<svg height="256" viewBox="0 0 46.566666 67.733335" width="176" xmlns="http://www.w3.org/2000/svg"><path d="m13.229167 9.2604156h5.55625" fill="none" stroke="#3a3a38" stroke-width=".264583"/><path d="m-.00000155 0h46.56666955v67.733337h-46.56666955z" fill="#fafafa"/><g stroke-width=".264583" transform="translate(0 -2.116667)"><path d="m18.25625 26.326042-2.51385.000316v2.11667l-2.777817-.00032" fill="none" stroke="#3a3a38"/><path d="m12.83199 42.465935h2.91041v-11.90623l-2.777817-.00032" fill="none" stroke="#3a3a38"/><g stroke="#0063b1" stroke-linecap="round" stroke-linejoin="round"><circle cx="40.084061" cy="9.922175" fill="#83beec" r="5.027083"/><g fill="none" transform="translate(302.9854 98.250009)"><path d="m-267.92222-88.327808h10.04177"/><path d="m-266.667-91.466995c2.41176.776611 4.90705.895848 7.53133 0"/><path d="m-266.667-85.174777c2.41176-.776611 4.90705-.895848 7.53133 0"/><path d="m-263.21514-93.350507c-1.97986 3.24952-2.20177 6.586896 0 10.045398"/><path d="m-262.58753-93.350507c1.97986 3.24952 2.20177 6.586896 0 10.045398"/></g></g><path d="m40.08407 14.949271v2.64583h-8.20208l-.00001-8.202081-3.30698-.0003116" fill="none" stroke="#1e8bcd"/><g stroke-linecap="round" stroke-linejoin="round" transform="translate(-.529167 1.852084)"><path d="m18.917709 5.953125h10.054166v10.054166h-10.054166z" fill="#fafafa" stroke="#3a3a38"/><path d="m18.917709 7.540625h10.054166v-1.5875h-10.054166z" fill="#83beec" stroke="#0063b1"/><path d="m20.505209 9.128125v1.5875h1.5875v-1.5875zm3.175.5291667h3.175zm-3.175 2.6458333v1.5875h1.5875v-1.5875zm3.175.529166h3.175z" fill="none" stroke="#3a3a38"/></g></g><g stroke-linecap="round" stroke-linejoin="round"><g fill="#fafafa" stroke="#3a3a38" stroke-width=".52239" transform="matrix(.50648644 0 0 .50648644 21.627822 39.082741)"><path d="m4.5745939 21.306032h14.6269131v-14.3060318l-4.201507-4.5000002-10.4254061.0000002z"/><path d="m14.5 7.201508 4.701507.0000002v-.201508l-4.201507-4.5000002h-.5z"/></g><g transform="matrix(.50648644 0 0 .50648644 20.123463 39.128102)"><g fill="none" stroke="#fafafa" stroke-width="3"><path d="m6.5.5v2zm-4 4h2zm6 0h2zm-2 2v2z"/><path d="m2.5.5 2.5 2.5zm8 0-2.5 2.5zm-5.5 5.5-2.5 2.5zm3 0 2.5 2.5z"/><path d="m8.5 4.5a2 2 0 0 1 -2 2 2 2 0 0 1 -2-2 2 2 0 0 1 2-2 2 2 0 0 1 2 2z"/></g><g fill="#f8db8f" stroke="#ed8733" stroke-width=".52239"><path d="m6.5.5v2zm-4 4h2zm6 0h2zm-2 2v2z"/><path d="m2.5.5 2.5 2.5zm8 0-2.5 2.5zm-5.5 5.5-2.5 2.5zm3 0 2.5 2.5z"/><path d="m8.5 4.5a2 2 0 0 1 -2 2 2 2 0 0 1 -2-2 2 2 0 0 1 2-2 2 2 0 0 1 2 2z"/></g></g></g><path d="m7.8052084 15.874999.0000003 5.688514" fill="none" stroke="#1e8bcd" stroke-width=".264583"/><path d="m23.944792 15.874999-.000302 5.688849" fill="none" stroke="#1e8bcd" stroke-width=".264583"/><g stroke-linecap="round" stroke-linejoin="round" transform="translate(-.528865 -2.117002)"><g stroke="#3a3a38"><path d="m18.917407 23.680544h10.054166v10.054166h-10.054166z" fill="#fafafa" stroke-width=".264583"/><g fill="#797774" stroke-width=".5" transform="matrix(.52916667 0 0 .52916667 17.59449 22.357627)"><path d="m2.5 5.5h19zm0 4h19zm0 4h19zm0 4h19z"/><path d="m8.5 2.5v19zm7 0v19z"/></g><path d="m18.917407 23.680544h10.054166v10.054166h-10.054166z" fill="none" stroke-width=".264583"/></g><path d="m28.971573 25.268044v-1.5875h-10.054166v1.5875z" fill="#d492d8" stroke="#922e9b" stroke-width=".264583"/></g><g fill="none" stroke-width=".264583"><path d="m28.575 26.590624 3.307.000319v2.11667l1.852375-.000322" stroke="#3a3a38"/><path d="m12.832 57.811769h2.91041l-.00001-11.112504h-2.91041" stroke="#3a3a38"/><path d="m12.832 57.811775h2.91041l12.17083-.000009.000302-7.805517" stroke="#18ab50"/></g><g stroke-linecap="round" stroke-linejoin="round"><g stroke-width=".264583" transform="translate(-.793742 -.264583)"><path d="m3.5718699 5.953125h10.0541621v10.054166h-10.0541621z" fill="#fafafa" stroke="#3a3a38"/><path d="m3.5718699 7.540625h10.0541621v-1.5875h-10.0541621z" fill="#83beec" stroke="#0063b1"/><path d="m5.159369 9.128125v1.5875h1.5874991v-1.5875zm3.1749982.5291667h3.1749988zm-3.1749982 2.6458333v1.5875h1.5874991v-1.5875zm3.1749982.529166h3.1749988z" fill="none" stroke="#3a3a38"/></g><g transform="translate(14.816969 -2.117003)"><g stroke="#3a3a38"><path d="m18.917407 23.680544h10.054166v10.054166h-10.054166z" fill="#fafafa" stroke-width=".264583"/><g fill="#797774" stroke-width=".5" transform="matrix(.52916667 0 0 .52916667 17.59449 22.357627)"><path d="m2.5 5.5h19zm0 4h19zm0 4h19zm0 4h19z"/><path d="m8.5 2.5v19zm7 0v19z"/></g><path d="m18.917407 23.680544h10.054166v10.054166h-10.054166z" fill="none" stroke-width=".264583"/></g><path d="m28.971573 25.268044v-1.5875h-10.054166v1.5875z" fill="#d492d8" stroke="#922e9b" stroke-width=".264583"/></g><g transform="translate(-16.139281 -2.117002)"><g stroke="#3a3a38"><path d="m18.917407 23.680544h10.054166v10.054166h-10.054166z" fill="#fafafa" stroke-width=".264583"/><g fill="#797774" stroke-width=".5" transform="matrix(.52916667 0 0 .52916667 17.59449 22.357627)"><path d="m2.5 5.5h19zm0 4h19zm0 4h19zm0 4h19z"/><path d="m8.5 2.5v19zm7 0v19z"/></g><path d="m18.917407 23.680544h10.054166v10.054166h-10.054166z" fill="none" stroke-width=".264583"/></g><path d="m28.971573 25.268044v-1.5875h-10.054166v1.5875z" fill="#d492d8" stroke="#922e9b" stroke-width=".264583"/></g><g transform="translate(-16.139281 29.633011)"><g stroke="#3a3a38"><path d="m18.917407 23.680544h10.054166v10.054166h-10.054166z" fill="#fafafa" stroke-width=".264583"/><g fill="#797774" stroke-width=".5" transform="matrix(.52916667 0 0 .52916667 17.59449 22.357627)"><path d="m2.5 5.5h19zm0 4h19zm0 4h19zm0 4h19z"/><path d="m8.5 2.5v19zm7 0v19z"/></g><path d="m18.917407 23.680544h10.054166v10.054166h-10.054166z" fill="none" stroke-width=".264583"/></g><path d="m28.971573 25.268044v-1.5875h-10.054166v1.5875z" fill="#d492d8" stroke="#922e9b" stroke-width=".264583"/></g><g transform="translate(-16.139281 13.758011)"><g stroke="#3a3a38"><path d="m18.917407 23.680544h10.054166v10.054166h-10.054166z" fill="#fafafa" stroke-width=".264583"/><g fill="#797774" stroke-width=".5" transform="matrix(.52916667 0 0 .52916667 17.59449 22.357627)"><path d="m2.5 5.5h19zm0 4h19zm0 4h19zm0 4h19z"/><path d="m8.5 2.5v19zm7 0v19z"/></g><path d="m18.917407 23.680544h10.054166v10.054166h-10.054166z" fill="none" stroke-width=".264583"/></g><path d="m28.971573 25.268044v-1.5875h-10.054166v1.5875z" fill="#d492d8" stroke="#922e9b" stroke-width=".264583"/></g></g></svg>