<svg viewBox="0 0 128 128" xmlns="http://www.w3.org/2000/svg"><path d="m30.90625 5.9921875c-6.595944 0-11.90625 5.3103015-11.90625 11.9062505v90.187502c0 6.59593 5.310306 11.90625 11.90625 11.90625h66.1875c6.59593 0 11.90625-5.31032 11.90625-11.90625l-.002-56.583987c.0435-1.9158-.70754-3.837968-2.04102-5.214844l-38.247996-38.2343746c-1.377233-1.332769-3.298557-2.0854124-5.214843-2.0410156zm52.023438 0c-.190471 0-.382102.013951-.570313.042969-2.41528.773604-3.227243 4.4506108-1.365234 6.1796878l21.857419 21.970703c2.01927 1.92465 6.04205.277883 6.14844-2.517578v-13.7695313c0-6.3031-4.85267-11.4202627-11.039062-11.8632818h-14.462891c-.18832-.029018-.377893-.042969-.568359-.042969zm-51.929688 6.0078125h33.179688.792968l.455078.453125 37.005856 37.503906.56641.566407v.794921 56.681641c0 3.324-2.676 6-6 6h-66c-3.323988 0-6-2.676-6-6v-90c0-3.323988 2.676012-6 6-6z" fill="#ed8733" stroke-width="5"/><path d="m31 12c-3.323997 0-6 2.676003-6 6v90c0 3.324 2.676003 6 6 6h66c3.324 0 6-2.676 6-6v-46.5-10.181641-.794921l-.56641-.566407-37.005856-37.503906-.455078-.453125h-12.472656z" fill="#ed8733" stroke-width="5"/><g fill="#fafafa" stroke-width="3"><path d="m52 60a12 12 0 0 0 -12 12 12 12 0 0 0 10.886719 11.919922l1.71289-2.966797a9 9 0 0 1 -.599609.046875 9 9 0 0 1 -9-9 9 9 0 0 1 9-9 9 9 0 0 1 8.988281 8.585938 1.73205 1.73205 0 0 1 .011719.011718l2.384766 4.128906a12 12 0 0 0 .615234-3.726562 12 12 0 0 0 -12-12z" opacity=".99"/><path d="m70 65.99997c-1.662 0-3 1.338-3 3v15c0 1.662 1.338 3 3 3h15c1.662 0 3-1.338 3-3v-15c0-1.662-1.338-3-3-3zm0 3h15v15h-15z" opacity=".99"/><path d="m59.140625 70.769531c-.480416.101856-.895011.402863-1.140625.828125l-12.587891 21.804688c-.666183 1.154607.166989 2.59747 1.5 2.597656h25.177735c1.333011-.000186 2.166183-1.443049 1.5-2.597656l-12.589844-21.804688c-.375107-.649519-1.125654-.983797-1.859375-.828125z" opacity=".99"/></g></svg>