<svg height="32" viewBox="0 0 8.4666665 8.4666669" width="32" xmlns="http://www.w3.org/2000/svg"><g stroke-width=".264583"><g transform="translate(0 -288.53332)"><path d="m1.5875 289.32707v6.87917h5.291037l.000635-5.02708-1.8520833-1.85209z" fill="#fafafa"/><path d="m1.5868703 289.06249c-.1465791 0-.2645833.118-.2645833.26458v6.87917c0 .14658.1180042.26458.2645833.26458h5.2916667c.1465792 0 .2361361-.12079.2645833-.26458v-2.67477-2.77952l-1.72193-1.68946zm0 .26458h3.4395834v1.5875c0 .17797.1300104.26459.2645833.26459h1.5875v5.02708h-5.2916667z" fill="#3a3a38"/><path d="m5.2916667 290.91457h1.5875l-1.5875-1.5875z" fill="#fafafa" fill-rule="evenodd"/><rect fill="#ed3d3b" height=".264583" ry=".132292" width="1.5875" x="4.7625" y="295.14792"/><rect fill="#ed3d3b" height=".264583" ry=".132292" width="1.852083" x="2.116667" y="290.91458"/><path d="m2.1166667 291.57603c0-.0733.059002-.13229.1322916-.13229.07329 0 .1322917.059.1322917.13229v3.30728c0 .14613.1184579.26459.2645833.26459h1.398881l-.3017904-.30179c-.025762-.0249-.040307-.0592-.040307-.0951.0000243-.1189.1446847-.17742.2273763-.092l.5291667.52917c.051642.0517.051642.1354 0 .18706l-.5291667.52917c-.124686.12986-.316928-.0624-.1870689-.18707l.304891-.30489h-1.401982c-.2922505 0-.5291666-.23691-.5291666-.52917z" fill="#1e8bcd" fill-rule="evenodd"/></g><g fill="#797774"><rect height=".264583" rx=".132292" width="3.175" x="2.910417" y="3.175"/><rect height=".264583" rx=".132292" ry=".113266" width="3.175" x="2.910417" y="3.96875"/><rect height=".264583" rx=".132292" ry=".066146" width="3.175" x="2.910417" y="4.7625"/><rect height=".264583" rx=".132292" width="3.175" x="2.910417" y="5.55625"/></g></g></svg>