<svg viewBox="0 0 24 24" xmlns="http://www.w3.org/2000/svg"><path d="m5 3v18h14v-14l-4-4z" fill="#fafafa"/><path d="m5 2c-.554 0-1 .446-1 1v18c0 .554.446 1 1 1h14c.554 0 1-.446 1-1v-13.9589844c0-.4506799.098038-.4254121-.605469-1.0664062l-3.30664-3.2382813c-.709525-.7368575-.710169-.7363281-1.09375-.7363281zm0 1h9v4c0 .554.446 1 1 1h4v13h-14zm10 0 4 4h-4z" fill="#0063b1"/><path d="m6.9 9h10.1v9.975308h-10.1z" fill="#1e8bcd" fill-opacity=".978947" stroke-width=".80364"/><path d="m9 10.987654.75 6h1.125l1.125-3 1.125 3h1.125l.75-6h-1.125l-.375 4-.93218-2.666667h-.94282l-1.125 2.666667-.375-4z" fill="#fafafa" stroke-width=".707107"/></svg>