<svg viewBox="0 0 24 24" xmlns="http://www.w3.org/2000/svg"><path d="m5 3v18h14v-14l-4-4z" fill="#fafafa"/><g fill="#3a3a38"><path d="m5 2c-.554 0-1 .446-1 1v18c0 .554.446 1 1 1h14c.554 0 1-.446 1-1v-13.9589844c0-.4506799.098038-.4254121-.605469-1.0664062l-3.30664-3.2382813c-.709525-.7368575-.710169-.7363281-1.09375-.7363281zm0 1h9v4c0 .554.446 1 1 1h4v13h-14zm10 0 4 4h-4z"/><path d="m7 10v4h4v-1.293l-2.707-2.707zm2.707 0 1.293 1.293v-1.293z"/><path d="m13 10v4h4v-1.293l-2.707-2.707zm2.707 0 1.293 1.293v-1.293z"/><path d="m13 15v4h4v-1.293l-2.707-2.707zm2.707 0 1.293 1.293v-1.293z"/><path d="m7 15v4h4v-1.293l-2.707-2.707zm2.707 0 1.293 1.293v-1.293z"/></g></svg>