<svg viewBox="0 0 32 32" xmlns="http://www.w3.org/2000/svg"><path d="m6 29v-26h20v20l-6 6z" fill="#fafafa"/><g fill="#3a3a38"><path d="m6 30c-.554 0-1-.446-1-1v-26c0-.554.446-1 1-1h20c.554 0 1 .446 1 1v19.75.208984c0 .45068.09804.425412-.605469 1.066407l-5.30664 5.238281c-.709525.736857-1.477331.736328-1.09375.736328h-.332032zm0-1h13v-6c0-.554.446016-1.004232 1-1h6v-19h-20zm14 0 6-6h-6z"/><g stroke-width="5"><path d="m7.5 1c.277 0 .5.223.5.5v3c0 .277-.223.5-.5.5s-.5-.223-.5-.5v-3c0-.277.223-.5.5-.5z"/><path d="m9.5 1c.277 0 .5.223.5.5v3c0 .277-.223.5-.5.5s-.5-.223-.5-.5v-3c0-.277.223-.5.5-.5z"/><path d="m11.5 1c.277 0 .5.223.5.5v3c0 .277-.223.5-.5.5s-.5-.223-.5-.5v-3c0-.277.223-.5.5-.5z"/><path d="m13.5 1c.277 0 .5.223.5.5v3c0 .277-.223.5-.5.5s-.5-.223-.5-.5v-3c0-.277.223-.5.5-.5z"/><path d="m23.5 1c.277 0 .5.223.5.5v3c0 .277-.223.5-.5.5s-.5-.223-.5-.5v-3c0-.277.223-.5.5-.5z"/></g><path d="m6 6h20v1h-20z" stroke-width="7.07107"/><g stroke-width="5"><path d="m15.5 1c.277 0 .5.223.5.5v3c0 .277-.223.5-.5.5s-.5-.223-.5-.5v-3c0-.277.223-.5.5-.5z"/><path d="m17.5 1c.277 0 .5.223.5.5v3c0 .277-.223.5-.5.5s-.5-.223-.5-.5v-3c0-.277.223-.5.5-.5z"/><path d="m19.5 1c.277 0 .5.223.5.5v3c0 .277-.223.5-.5.5s-.5-.223-.5-.5v-3c0-.277.223-.5.5-.5z"/><path d="m21.5 1c.277 0 .5.223.5.5v3c0 .277-.223.5-.5.5s-.5-.223-.5-.5v-3c0-.277.223-.5.5-.5z"/></g><path d="m10.5 9c-.277 0-.5.223-.5.5v4c0 .277.223.5.5.5h4c.277 0 .5-.223.5-.5v-.79297l-3.707-3.707zm2.207 0 2.293 2.293v-1.793c0-.277-.223-.5-.5-.5z"/><path d="m10.5 16c-.277 0-.5.223-.5.5v4c0 .277.223.5.5.5h4c.277 0 .5-.223.5-.5v-.79297l-3.707-3.707zm2.207 0 2.293 2.293v-1.793c0-.277-.223-.5-.5-.5z"/><path d="m17.5 9c-.277 0-.5.223-.5.5v4c0 .277.223.5.5.5h4c.277 0 .5-.223.5-.5v-.79297l-3.707-3.707zm2.207 0 2.293 2.293v-1.793c0-.277-.223-.5-.5-.5z"/><path d="m17.5 16c-.277 0-.5.223-.5.5v4c0 .277.223.5.5.5h4c.277 0 .5-.223.5-.5v-.79297l-3.707-3.707zm2.207 0 2.293 2.293v-1.793c0-.277-.223-.5-.5-.5z"/></g></svg>