<svg viewBox="0 0 24 24" xmlns="http://www.w3.org/2000/svg"><path d="m5 3v18h14v-14l-4-4z" fill="#fafafa"/><g fill="#0063b1"><path d="m5 2c-.554 0-1 .446-1 1v18c0 .554.446 1 1 1h14c.554 0 1-.446 1-1v-13.9589844c0-.4506799.098038-.4254121-.605469-1.0664062l-3.30664-3.2382813c-.709525-.7368575-.710169-.7363281-1.09375-.7363281zm0 1h9v4c0 .554.446 1 1 1h4v13h-14zm10 0 4 4h-4z"/><path d="m6 9h5v1h-5z"/><path d="m6 11h5v1h-5z"/><path d="m6 13h5v1h-5z"/><path d="m6 15h12v1h-12z"/><path d="m6 17h5v1h-5z"/></g><path d="m12 9v5h6v-5zm4.5 1a.5.5 0 0 1 .5.5.5.5 0 0 1 -.5.5.5.5 0 0 1 -.5-.5.5.5 0 0 1 .5-.5zm-2.5 1 2 2h-3z" fill="#1e8bcd"/></svg>