<svg viewBox="0 0 16 16" xmlns="http://www.w3.org/2000/svg"><path d="m2.8769531.00585938c-1.0499414.06347621-1.8769531.92769169-1.8769531 1.99414062v12c0 1.107999.8920011 2 2 2h10c1.107999 0 2-.892001 2-2v-6.9960938c.006-.2639607-.097505-.5290413-.28125-.71875l-6-5.99804682c-.1897762-.18363094-.4546953-.2873677-.71875-.28125z" fill="#3a3a38"/><path d="m11.421875 0c-.026142 0-.052296.00186088-.078125.00585938-.331493.10559028-.443055.60774876-.1875.84375l3 2.99804682c.277145.2626912.82915.0377568.84375-.34375v-1.5039062c0-1.06644893-.827012-1.93066441-1.876953-1.99414062h-1.623047c-.02585-.0039985-.051983-.00585938-.078125-.00585938z" fill="#3a3a38"/><path d="m2.9941406 2v12c0 .03774-.031876.0059.00586.0059h10c.03774 0 .0059.03188.0059-.0059v-6.6074219l-5.3945725-5.3925781z" fill="#fafafa"/></svg>