<svg height="48" width="48" xmlns="http://www.w3.org/2000/svg"><path d="m29.228516 2.9824219c-.07874 0-.156573.0055801-.234375.0175781-.998421.3197945-1.334168 1.8399182-.564453 2.5546875l9.035156 9.0820315c.834717.795616 2.497036.114581 2.541015-1.041016v-9.0820311c-.00009-.7926187-.717371-1.5135819-1.505859-1.5136719h-9.035156c-.07785-.011995-.157592-.017578-.236328-.0175781zm-8.228516.0078125v.0097656h-9c-2.2159912 0-4 1.7840088-4 4v34c0 2.215992 1.7840088 4 4 4h24c2.215992 0 4-1.784008 4-4v-14h.005859v-5.205078c.018-.791958-.292519-1.585123-.84375-2.154297l-15.810547-15.8066406c-.569315-.5509439-1.364097-.8621029-2.15625-.84375zm.009766 2h.185546c.01563.0001831.031246.0001831.046876 0 .23787-.0055111.547449.1154777.71875.28125l15.763671 15.7597656c.166381.171796.28665.4795.28125.71875-.000168.01497-.000168.029952 0 .044922v5.199219l-.005859.005859v14c0 1.142581-.857419 2-2 2h-24c-1.14258 0-2-.857419-2-2v-34c0-1.1425796.85742-2 2-2h9c.003267-.003244.006522-.0064992.009766-.0097656z" fill="#3a3a38"/><path d="m21.009766 4.9902344c-.003244.0032664-.006499.0065216-.009766.0097656h-9c-1.142581 0-2 .8574193-2 2v34c0 1.142582.857419 2 2 2h24c1.142582 0 2-.857418 2-2v-14c.002-.002.0039-.0039.0059-.0059v-5.199219c-.000168-.01497-.000168-.02995 0-.04492.0054-.23925-.114869-.546954-.28125-.71875l-15.763712-15.7597266c-.171301-.1657724-.480879-.2867611-.71875-.28125-.01563.0001831-.03125.0001831-.04688 0z" fill="#fafafa"/></svg>