<svg viewBox="0 0 32 32" xmlns="http://www.w3.org/2000/svg"><path d="m8 2c-1.6619966 0-3 1.3380034-3 3v22c0 1.661996 1.3380034 3 3 3h16c1.661996 0 3-1.338004 3-3v-12.666016c-.036609-.460348-.225324-.908213-.546875-1.240234l-10.541016-10.5371094c-.361695-.3500239-.86018-.5487364-1.363281-.5566406zm11.673828 0c-.665614.2131973-.888139 1.22661-.375 1.703125l6.023438 6.0546875c.525563.5009465 1.541644.1240291 1.677734-.5683594v-4.1894531c0-1.6619966-1.338004-3-3-3h-4.011719zm-5.152344 1.9941406.00586.0058594 10.470703 10.46875.001953.001953c-.00006-.000516.004773.002944.005859.003906v.001953.015626c-.000637-.007913-.003728-.012798-.005859-.017579v12.525391c0 .588589-.411411 1-1 1h-16c-.5885895 0-1-.411411-1-1v-22c0-.5885897.4114103-1.0000006 1-1h6.517578c-.0026-.00004.030276.0196606.003906-.0058594z" fill="#3a3a38"/><path d="m14.521484 3.9941406c.02637.02552-.0065.00582-.0039.00586h-6.517584c-.5885903-.0000006-1 .4114091-1 .9999994v22c0 .58859.4114099 1 1 1h16c.58859 0 1-.41141 1-1v-12.53125l-10.472656-10.46875zm10.484375 10.4804684v.01758c-.0017-.0211-.02192-.04053.0098-.0078z" fill="#fafafa"/></svg>