<svg height="48" width="48" xmlns="http://www.w3.org/2000/svg"><g transform="matrix(1.5 0 0 1.5 -.003493 0)"><path d="m6.0023288 2.6666667v26.6666663h20.0000002v-19.9999997l-6-6.6666666z" fill="#fafafa"/><path d="m6 2c-.3310045 0-.6643379.3333333-.6643379.6666667v26.6666663c0 .333334.3333334.666667.6643379.666667h20c.335662 0 .669034-.333333.668995-.666667v-19.9999997c.000001-.3333333 0-.3333333-.605469-1.0253906l-5.169218-5.7466455c-.221057-.1870991-.411399-.3956293-.900167-.5612972zm.00233.6666667h13.333332v6.6666666c0 .3333334.333333.6666667.664338.6666667h6l.0023 19.333333h-19.9999712zm14 0 6 6.6666666h-6z" fill="#922e9b"/></g><path d="m18 19a6 1.5 0 0 0 -6 1.5v1a6 2 0 0 0 6 2 6 2 0 0 0 6-2v-1a6 1.5 0 0 0 -6-1.5zm-6 4.5v3c0 .82842 2.6863 1.5 6 1.5s6-.67158 6-1.5v-3a6 1.5 0 0 1 -6 1.5 6 1.5 0 0 1 -6-1.5zm0 4.5v3c0 .82842 2.6863 1.5 6 1.5s6-.67158 6-1.5v-3a6 1.5 0 0 1 -6 1.5 6 1.5 0 0 1 -6-1.5zm0 4.5v3c0 .82842 2.6863 1.5 6 1.5s6-.67158 6-1.5v-3a6 1.5 0 0 1 -6 1.5 6 1.5 0 0 1 -6-1.5z" fill="#a846b2"/><path d="m26 21c-.554 0-1 .446-1 1v14c0 .554.446 1 1 1h9c.554 0 1-.446 1-1v-14c0-.554-.446-1-1-1zm0 1h4v4h-4zm5 0h4v4h-4zm-5 5h4v4h-4zm5 0h4v4h-4zm-5 5h4v4h-4zm5 0h4v4h-4z" fill="#922e9b"/></svg>