<svg viewBox="0 0 16 16" xmlns="http://www.w3.org/2000/svg">/&amp;amp;amp;amp;gt;<path d="m3 1v14h10v-11l-3-3z" fill="#fafafa"/><path d="m3 0c-.554 0-1 .446-1 1v14c0 .554.446 1 1 1h10c.554 0 1-.446 1-1v-11.3632812l-3.636719-3.6367188zm0 1h6v3.5c0 .277.223.5.5.5h3.5v10h-10zm7 0 3 3h-3z" fill="#922e9b"/><path d="m6 6a2 1 0 0 0 -2 1 2 1 0 0 0 2 1 2 1 0 0 0 2-1 2 1 0 0 0 -2-1zm-2 2v1a2 1 0 0 0 2 1 2 1 0 0 0 2-1v-1a2 1 0 0 1 -2 1 2 1 0 0 1 -2-1zm0 2v1a2 1 0 0 0 2 1 2 1 0 0 0 2-1v-1a2 1 0 0 1 -2 1 2 1 0 0 1 -2-1z" fill="#a846b2"/><path d="m9 7v5h3v-5zm1 1h1v1h-1zm0 2h1v1h-1z" fill="#922e9b"/></svg>