<svg viewBox="0 0 16 16" xmlns="http://www.w3.org/2000/svg">/&amp;amp;amp;amp;gt;<path d="m3 1v14h10v-11l-3-3z" fill="#fafafa"/><g fill="#ed8733"><path d="m3 0c-.554 0-1 .446-1 1v14c0 .554.446 1 1 1h10c.554 0 1-.446 1-1v-11.3632812l-3.636719-3.6367188zm0 1h6v3.5c0 .277.223.5.5.5h3.5v10h-10zm7 0 3 3h-3z"/><path d="m6 6a2 2 0 0 0 -2 2 2 2 0 0 0 2 2 2 2 0 0 0 2-2 2 2 0 0 0 -2-2zm0 1a1 1 0 0 1 1 1 1 1 0 0 1 -1 1 1 1 0 0 1 -1-1 1 1 0 0 1 1-1z"/><path d="m9 7v3h3v-3zm1 1h1v1h-1z"/></g><path d="m8 7.5 2.5981 4.5h-5.1962z" fill="#fb983b"/></svg>