<svg height="96" width="96" xmlns="http://www.w3.org/2000/svg"><g transform="matrix(3 0 0 3 -.006986 0)"><path d="m6.0023288 2.6666667v26.6666663h20.0000002v-19.9999997l-6-6.6666666z" fill="#fafafa"/><path d="m6 2c-.3310045 0-.6643379.3333333-.6643379.6666667v26.6666663c0 .333334.3333334.666667.6643379.666667h20c.335662 0 .669034-.333333.668995-.666667v-19.9999997c.000001-.3333333 0-.3333333-.605469-1.0253906l-5.169218-5.7466455c-.221057-.1870991-.411399-.3956293-.900167-.5612972zm.00233.6666667h13.333332v6.6666666c0 .3333334.333333.6666667.664338.6666667h6l.0023 19.333333h-19.9999712zm14 0 6 6.6666666h-6z" fill="#ed8733"/></g><g transform="matrix(2 0 0 2 0 -.00002)"><path d="m18 19.00001a6 6 0 0 0 -6 6 6 6 0 0 0 6 6 6 6 0 0 0 6-6 6 6 0 0 0 -6-6zm0 1a5 5 0 0 1 5 5 5 5 0 0 1 -5 5 5 5 0 0 1 -5-5 5 5 0 0 1 5-5z" fill="#ed8733"/><path d="m27 22c-.554 0-1 .446-1 1v8c0 .554.446 1 1 1h8c.554 0 1-.446 1-1v-8c0-.554-.446-1-1-1zm0 1h8v8h-8z" fill="#ed8733"/><path d="m23.00023 24.366 6.7942 11.768a.57735.57735 0 0 1 -.5.86602h-13.588a.57735.57735 0 0 1 -.5-.86603l6.7942-11.768a.57735.57735 0 0 1 1 0z" fill="#fb983b"/></g></svg>