<svg viewBox="0 0 32 32" xmlns="http://www.w3.org/2000/svg"><path d="m6 3v26h20v-20l-6-6z" fill="#fafafa"/><g fill="#3a3a38"><path d="m6 2c-.554 0-1 .446-1 1v26c0 .554.446 1 1 1h20c.554 0 1-.446 1-1v-19.75-.2089844c0-.4506797.098038-.4254121-.605469-1.0664062l-5.30664-5.2382813c-.709525-.7368575-1.477331-.7363281-1.09375-.7363281h-.332032zm0 1h13v6c0 .554.446016 1.004232 1 1h6v19h-20zm14 0 6 6h-6z"/><path d="m10.5 13c-.277 0-.5.223-.5.5v4c0 .277.223.5.5.5h4c.277 0 .5-.223.5-.5v-.79297l-3.707-3.707zm2.207 0 2.293 2.293v-1.793c0-.277-.223-.5-.5-.5z"/><path d="m10.5 20c-.277 0-.5.223-.5.5v4c0 .277.223.5.5.5h4c.277 0 .5-.223.5-.5v-.79297l-3.707-3.707zm2.207 0 2.293 2.293v-1.793c0-.277-.223-.5-.5-.5z"/><path d="m17.5 13c-.277 0-.5.223-.5.5v4c0 .277.223.5.5.5h4c.277 0 .5-.223.5-.5v-.79297l-3.707-3.707zm2.207 0 2.293 2.293v-1.793c0-.277-.223-.5-.5-.5z"/><path d="m17.5 20c-.277 0-.5.223-.5.5v4c0 .277.223.5.5.5h4c.277 0 .5-.223.5-.5v-.79297l-3.707-3.707zm2.207 0 2.293 2.293v-1.793c0-.277-.223-.5-.5-.5z"/></g></svg>