<svg viewBox="0 0 32 32" xmlns="http://www.w3.org/2000/svg"><path d="m6 3v26h20v-20l-6-6z" fill="#fafafa"/><g fill="#ed5a33"><path d="m6 2c-.554 0-1 .446-1 1v26c0 .554.446 1 1 1h20c.554 0 1-.446 1-1v-19.75-.2089844c0-.4506797.098038-.4254121-.605469-1.0664062l-5.30664-5.2382813c-.709525-.7368575-1.477331-.7363281-1.09375-.7363281h-.332032zm0 1h13v6c0 .554.446016 1.004232 1 1h6v19h-20zm14 0 6 6h-6z"/><rect height="1" ry=".5" width="16" x="8" y="13"/><rect height="1" ry=".5" width="12" x="10" y="15"/><circle cx="8.5" cy="19.5" r=".5"/><circle cx="8.5" cy="21.5" r=".5"/><circle cx="8.5" cy="23.5" r=".5"/><rect height="1" ry=".5" width="5" x="10" y="19"/><rect height="1" ry=".5" width="5" x="10" y="21"/><rect height="1" ry=".5" width="5" x="10" y="23"/></g><path d="m17 19c-.554 0-1 .446-1 1v4c0 .554.446 1 1 1h6c.554 0 1-.446 1-1v-4c0-.554-.446-1-1-1zm5.4219 1.0059a.5.5 0 0 1 .43164.14062.5.5 0 0 1 0 .70703l-2.3535 2.3535-1-1-1.6465 1.6465a.5.5 0 0 1 -.70703 0 .5.5 0 0 1 0-.70703l2.3535-2.3535 1 1 1.6465-1.6465a.5.5 0 0 1 .27539-.14062z" fill="#fb6d3b"/></svg>