<svg height="48" width="48" xmlns="http://www.w3.org/2000/svg"><g transform="matrix(1.5 0 0 1.5 -.003493 0)"><path d="m6.0023288 2.6666667v26.6666663h20.0000002v-19.9999997l-6-6.6666666z" fill="#fafafa"/><path d="m6 2c-.3310045 0-.6643379.3333333-.6643379.6666667v26.6666663c0 .333334.3333334.666667.6643379.666667h20c.335662 0 .669034-.333333.668995-.666667v-19.9999997c.000001-.3333333 0-.3333333-.605469-1.0253906l-5.169218-5.7466455c-.221057-.1870991-.411399-.3956293-.900167-.5612972zm.00233.6666667h13.333332v6.6666666c0 .3333334.333333.6666667.664338.6666667h6l.0023 19.333333h-19.9999712zm14 0 6 6.6666666h-6z" fill="#ed5a33"/></g><g fill-rule="evenodd"><g stroke-linecap="square"><rect fill="#ed5a33" height="1" ry=".5" width="24" x="12" y="19"/><rect fill="#ed5a33" height="1" ry=".5" width="18" x="15" y="22"/><path d="m24 28c-.554 0-1 .446-1 1v7c0 .554.446 1 1 1h11c.554 0 1-.446 1-1v-7c0-.554-.446-1-1-1zm9.8438 1.0117a1 1 0 0 1 .86328.28125 1 1 0 0 1 0 1.4141l-4.207 4.207-2-2-2.793 2.793a1 1 0 0 1 -1.4141 0 1 1 0 0 1 0-1.4141l4.207-4.207 2 2 2.793-2.793a1 1 0 0 1 .55078-.28125z" fill="#fb6d3b"/></g><g fill="#ed5a33"><rect height="1" ry=".5" width="6" x="15" y="29"/><rect height="1" ry=".5" width="6" x="15" y="32"/><rect height="1" ry=".5" width="6" x="15" y="35"/><g stroke-linecap="square" stroke-width="2"><circle cx="13.5" cy="29.5" r=".5"/><circle cx="13.5" cy="32.5" r=".5"/><circle cx="13.5" cy="35.5" r=".5"/></g></g></g></svg>