<svg viewBox="0 0 32 32" xmlns="http://www.w3.org/2000/svg"><path d="m6 3v26h20v-20l-6-6z" fill="#fafafa"/><path d="m6 2c-.554 0-1 .446-1 1v26c0 .554.446 1 1 1h20c.554 0 1-.446 1-1v-19.75-.2089844c0-.4506797.098038-.4254121-.605469-1.0664062l-5.30664-5.2382813c-.709525-.7368575-1.477331-.7363281-1.09375-.7363281h-.332032zm0 1h13v6c0 .554.446016 1.004232 1 1h6v19h-20zm14 0 6 6h-6z" fill="#309048"/><path d="m9 13c-.554 0-1 .446-1 1v7c0 .554.446 1 1 1h6v-1h-2v-1h2v-1h-2v-1h8v-4c0-.554-.446-1-1-1zm0 1h3v1h-3zm4 0h3v1h-3zm4 0h3v1h-3zm-8 2h3v1h-3zm4 0h3v1h-3zm4 0h3v1h-3zm-8 2h3v1h-3zm0 2h3v1h-3z" fill="#309048"/><path d="m16 18c-.554 0-1 .446-1 1v5c0 .554.446 1 1 1h7c.554 0 1-.446 1-1v-5c0-.554-.446-1-1-1zm2 1h1v5h-1zm-2 1h1v4h-1zm6 1h1v3h-1zm-2 1h1v2h-1z" fill="#18ab50"/></svg>