<svg viewBox="0 0 32 32" xmlns="http://www.w3.org/2000/svg"><path d="m6 29v-26h20v20l-6 6z" fill="#fafafa"/><g fill="#d42314"><path d="m6 30c-.554 0-1-.446-1-1v-26c0-.554.446-1 1-1h20c.554 0 1 .446 1 1v19.75.208984c0 .45068.09804.425412-.605469 1.066407l-5.30664 5.238281c-.709525.736857-1.477331.736328-1.09375.736328h-.332032zm0-1h13v-6c0-.554.446016-1.004232 1-1h6v-19h-20zm14 0 6-6h-6z"/><path d="m15.191 9-3.6914 7.3828-1.6914-3.3828h-1.3086a.5.5 0 0 0 -.5.5.5.5 0 0 0 .5.5h.69141l2.3086 4.6172 4.3086-8.6172h7.6914a.5.5 0 0 0 .5-.5.5.5 0 0 0 -.5-.5z" stroke-linecap="round"/><rect height="1" ry=".5" width="4" x="8" y="20"/><rect height="1" ry=".5" width="4" x="14" y="20"/><rect height="1" ry=".5" width="4" x="20" y="20"/></g><path d="m17.889 12.006a1 1 0 0 0 -.5957.28711 1 1 0 0 0 0 1.4141l1.293 1.293-1.293 1.293a1 1 0 0 0 0 1.4141 1 1 0 0 0 1.4141 0l1.293-1.293 1.293 1.293a1 1 0 0 0 1.4141 0 1 1 0 0 0 0-1.4141l-1.293-1.293 1.293-1.293a1 1 0 0 0 0-1.4141 1 1 0 0 0 -1.4141 0l-1.293 1.293-1.293-1.293a1 1 0 0 0 -.81836-.28711z" fill="#ed3d3b" stroke-linecap="round"/><g fill="#d42314"><g stroke-width="5"><path d="m7.5 1c.277 0 .5.223.5.5v3c0 .277-.223.5-.5.5s-.5-.223-.5-.5v-3c0-.277.223-.5.5-.5z"/><path d="m9.5 1c.277 0 .5.223.5.5v3c0 .277-.223.5-.5.5s-.5-.223-.5-.5v-3c0-.277.223-.5.5-.5z"/><path d="m11.5 1c.277 0 .5.223.5.5v3c0 .277-.223.5-.5.5s-.5-.223-.5-.5v-3c0-.277.223-.5.5-.5z"/><path d="m13.5 1c.277 0 .5.223.5.5v3c0 .277-.223.5-.5.5s-.5-.223-.5-.5v-3c0-.277.223-.5.5-.5z"/><path d="m23.5 1c.277 0 .5.223.5.5v3c0 .277-.223.5-.5.5s-.5-.223-.5-.5v-3c0-.277.223-.5.5-.5z"/></g><path d="m6 6h20v1h-20z" stroke-width="7.07107"/><g stroke-width="5"><path d="m15.5 1c.277 0 .5.223.5.5v3c0 .277-.223.5-.5.5s-.5-.223-.5-.5v-3c0-.277.223-.5.5-.5z"/><path d="m17.5 1c.277 0 .5.223.5.5v3c0 .277-.223.5-.5.5s-.5-.223-.5-.5v-3c0-.277.223-.5.5-.5z"/><path d="m19.5 1c.277 0 .5.223.5.5v3c0 .277-.223.5-.5.5s-.5-.223-.5-.5v-3c0-.277.223-.5.5-.5z"/><path d="m21.5 1c.277 0 .5.223.5.5v3c0 .277-.223.5-.5.5s-.5-.223-.5-.5v-3c0-.277.223-.5.5-.5z"/></g></g></svg>