<svg viewBox="0 0 16 16" xmlns="http://www.w3.org/2000/svg">/&amp;amp;amp;amp;amp;gt;<path d="m3 15v-14h10v11l-3 3z" fill="#fafafa"/><g fill="#ed8733" transform="matrix(1 0 0 -1 0 16)"><path d="m3 0c-.554 0-1 .446-1 1v14c0 .554.446 1 1 1h10c.554 0 1-.446 1-1v-11.3632812l-3.636719-3.6367188zm0 1h6v3.5c0 .277.223.5.5.5h3.5v10h-10zm7 0 3 3h-3z"/><path d="m6 7c-1.1045695 0-2 .8954305-2 2 0 1.104569.8954305 2 2 2s2-.895431 2-2c0-1.1045695-.8954305-2-2-2zm0 1c.5522847 0 1 .4477153 1 1s-.4477153 1-1 1-1-.4477153-1-1 .4477153-1 1-1z"/><path d="m9 8v3h3v-3zm1 1h1v1h-1z"/></g><path d="m8 6.5 2.5981 4.5h-5.1962z" fill="#fb983b"/><g fill="#ed8733" stroke-width="5"><path d="m4.5 0c.277 0 .5.223.5.5v3c0 .277-.223.5-.5.5s-.5-.223-.5-.5v-3c0-.277.223-.5.5-.5z"/><path d="m6.5 0c.277 0 .5.223.5.5v3c0 .277-.223.5-.5.5s-.5-.223-.5-.5v-3c0-.277.223-.5.5-.5z"/><path d="m8.5 0c.277 0 .5.223.5.5v3c0 .277-.223.5-.5.5s-.5-.223-.5-.5v-3c0-.277.223-.5.5-.5z"/><path d="m10.5 0c.277 0 .5.223.5.5v3c0 .277-.223.5-.5.5s-.5-.223-.5-.5v-3c0-.277.223-.5.5-.5z"/><path d="m3 2h10v1h-10z"/></g></svg>