<svg height="48" width="48" xmlns="http://www.w3.org/2000/svg"><path d="m9.0000002 44v-40h29.9999998v30l-9 10z" fill="#fafafa" stroke-width="1.5"/><g fill="#ed8733"><path d="m8.996507 45c-.4965068 0-.9965068-.5-.9965068-1v-40c0-.5.5-1 .9965068-1h30c.503493 0 1.003551.5 1.003493 1v30c.000001.5 0 .5-.908204 1.538086l-7.753827 8.619968c-.331585.280649-.617099.593444-1.350251.841946zm.0035-1h19.999993v-10c0-.5.5-1 .996507-1h9l.0035-29h-30.0000068zm21 0 9-10h-9z" stroke-width="1.5"/><g stroke-width="5"><path d="m9 8h30v1h-30z" opacity=".98"/><path d="m10.5 2c.277 0 .5.223.5.5v4c0 .277-.223.5-.5.5s-.5-.223-.5-.5v-4c0-.277.223-.5.5-.5z" opacity=".98"/><path d="m13.5 2c.277 0 .5.223.5.5v4c0 .277-.223.5-.5.5s-.5-.223-.5-.5v-4c0-.277.223-.5.5-.5z" opacity=".98"/><path d="m16.5 2c.277 0 .5.223.5.5v4c0 .277-.223.5-.5.5s-.5-.223-.5-.5v-4c0-.277.223-.5.5-.5z" opacity=".98"/><path d="m19.5 2c.277 0 .5.223.5.5v4c0 .277-.223.5-.5.5s-.5-.223-.5-.5v-4c0-.277.223-.5.5-.5z" opacity=".98"/><path d="m22.5 2c.277 0 .5.223.5.5v4c0 .277-.223.5-.5.5s-.5-.223-.5-.5v-4c0-.277.223-.5.5-.5z" opacity=".98"/><path d="m25.5 2c.277 0 .5.223.5.5v4c0 .277-.223.5-.5.5s-.5-.223-.5-.5v-4c0-.277.223-.5.5-.5z" opacity=".98"/><path d="m28.5 2c.277 0 .5.223.5.5v4c0 .277-.223.5-.5.5s-.5-.223-.5-.5v-4c0-.277.223-.5.5-.5z" opacity=".98"/><path d="m31.5 2c.277 0 .5.223.5.5v4c0 .277-.223.5-.5.5s-.5-.223-.5-.5v-4c0-.277.223-.5.5-.5z" opacity=".98"/><path d="m34.5 2c.277 0 .5.223.5.5v4c0 .277-.223.5-.5.5s-.5-.223-.5-.5v-4c0-.277.223-.5.5-.5z" opacity=".98"/><path d="m37.5 2c.277 0 .5.223.5.5v4c0 .277-.223.5-.5.5s-.5-.223-.5-.5v-4c0-.277.223-.5.5-.5z" opacity=".98"/></g><path d="m18 13a6 6 0 0 0 -6 6 6 6 0 0 0 6 6 6 6 0 0 0 6-6 6 6 0 0 0 -6-6zm0 1a5 5 0 0 1 5 5 5 5 0 0 1 -5 5 5 5 0 0 1 -5-5 5 5 0 0 1 5-5z"/><path d="m27 16c-.554 0-1 .446-1 1v8c0 .554.446 1 1 1h8c.554 0 1-.446 1-1v-8c0-.554-.446-1-1-1zm0 1h8v8h-8z"/></g><path d="m23.00023 18.366 6.7942 11.768a.57735.57735 0 0 1 -.5.86602h-13.588a.57735.57735 0 0 1 -.5-.86603l6.7942-11.768a.57735.57735 0 0 1 1 0z" fill="#fb983b"/></svg>