<svg viewBox="0 0 32 32" xmlns="http://www.w3.org/2000/svg"><path d="m6 29v-26h20v20l-6 6z" fill="#fafafa"/><path d="m6 30c-.554 0-1-.446-1-1v-26c0-.554.446-1 1-1h20c.554 0 1 .446 1 1v19.75.208984c0 .45068.09804.425412-.605469 1.066407l-5.30664 5.238281c-.709525.736857-1.477331.736328-1.09375.736328h-.332032zm0-1h13v-6c0-.554.446016-1.004232 1-1h6v-19h-20zm14 0 6-6h-6z" fill="#ed8733"/><g fill="#ed8733" fill-rule="evenodd" transform="translate(0 -4)"><path d="m12 13a4 4 0 0 0 -4 4 4 4 0 0 0 4 4 4 4 0 0 0 4-4 4 4 0 0 0 -4-4zm0 1a3 3 0 0 1 3 3 3 3 0 0 1 -3 3 3 3 0 0 1 -3-3 3 3 0 0 1 3-3z"/><path d="m18 15c-.554 0-1 .446-1 1v5c0 .554.446 1 1 1h5c.554 0 1-.446 1-1v-5c0-.554-.446-1-1-1zm0 1h5v5h-5z"/></g><path d="m15.00015 12.866 4.1962 7.268a.57735.57735 0 0 1 -.5.86602h-8.3923a.57735.57735 0 0 1 -.5-.86603l4.1962-7.2679a.57735.57735 0 0 1 1 0z" fill="#fb983b" fill-rule="evenodd"/><g fill="#ed8733"><g stroke-width="5"><path d="m7.5 1c.277 0 .5.223.5.5v3c0 .277-.223.5-.5.5s-.5-.223-.5-.5v-3c0-.277.223-.5.5-.5z"/><path d="m9.5 1c.277 0 .5.223.5.5v3c0 .277-.223.5-.5.5s-.5-.223-.5-.5v-3c0-.277.223-.5.5-.5z"/><path d="m11.5 1c.277 0 .5.223.5.5v3c0 .277-.223.5-.5.5s-.5-.223-.5-.5v-3c0-.277.223-.5.5-.5z"/><path d="m13.5 1c.277 0 .5.223.5.5v3c0 .277-.223.5-.5.5s-.5-.223-.5-.5v-3c0-.277.223-.5.5-.5z"/><path d="m23.5 1c.277 0 .5.223.5.5v3c0 .277-.223.5-.5.5s-.5-.223-.5-.5v-3c0-.277.223-.5.5-.5z"/></g><path d="m6 6h20v1h-20z" stroke-width="7.07107"/><g stroke-width="5"><path d="m15.5 1c.277 0 .5.223.5.5v3c0 .277-.223.5-.5.5s-.5-.223-.5-.5v-3c0-.277.223-.5.5-.5z"/><path d="m17.5 1c.277 0 .5.223.5.5v3c0 .277-.223.5-.5.5s-.5-.223-.5-.5v-3c0-.277.223-.5.5-.5z"/><path d="m19.5 1c.277 0 .5.223.5.5v3c0 .277-.223.5-.5.5s-.5-.223-.5-.5v-3c0-.277.223-.5.5-.5z"/><path d="m21.5 1c.277 0 .5.223.5.5v3c0 .277-.223.5-.5.5s-.5-.223-.5-.5v-3c0-.277.223-.5.5-.5z"/></g></g></svg>