<svg height="96" width="96" xmlns="http://www.w3.org/2000/svg"><g transform="matrix(3 0 0 -3 -.006986 96)"><path d="m6.0023288 2.6666667v26.6666663h20.0000002v-19.9999997l-6-6.6666666z" fill="#fafafa"/><path d="m6 2c-.3310045 0-.6643379.3333333-.6643379.6666667v26.6666663c0 .333334.3333334.666667.6643379.666667h20c.335662 0 .669034-.333333.668995-.666667v-19.9999997c.000001-.3333333 0-.3333333-.605469-1.0253906l-5.169218-5.7466455c-.221057-.1870991-.411399-.3956293-.900167-.5612972zm.00233.6666667h13.333332v6.6666666c0 .3333334.333333.6666667.664338.6666667h6l.0023 19.333333h-19.9999712zm14 0 6 6.6666666h-6z" fill="#ed5a33"/></g><g fill="#ed5a33" stroke-width="5"><path d="m18 16h60v2h-60z" opacity=".98"/><path d="m21 4c.554 0 1 .446 1 1v8c0 .554-.446 1-1 1s-1-.446-1-1v-8c0-.554.446-1 1-1z" opacity=".98"/><path d="m27 4c.554 0 1 .446 1 1v8c0 .554-.446 1-1 1s-1-.446-1-1v-8c0-.554.446-1 1-1z" opacity=".98"/><path d="m33 4c.554 0 1 .446 1 1v8c0 .554-.446 1-1 1s-1-.446-1-1v-8c0-.554.446-1 1-1z" opacity=".98"/><path d="m39 4c.554 0 1 .446 1 1v8c0 .554-.446 1-1 1s-1-.446-1-1v-8c0-.554.446-1 1-1z" opacity=".98"/><path d="m45 4c.554 0 1 .446 1 1v8c0 .554-.446 1-1 1s-1-.446-1-1v-8c0-.554.446-1 1-1z" opacity=".98"/><path d="m51 4c.554 0 1 .446 1 1v8c0 .554-.446 1-1 1s-1-.446-1-1v-8c0-.554.446-1 1-1z" opacity=".98"/><path d="m57 4c.554 0 1 .446 1 1v8c0 .554-.446 1-1 1s-1-.446-1-1v-8c0-.554.446-1 1-1z" opacity=".98"/><path d="m63 4c.554 0 1 .446 1 1v8c0 .554-.446 1-1 1s-1-.446-1-1v-8c0-.554.446-1 1-1z" opacity=".98"/><path d="m69 4c.554 0 1 .446 1 1v8c0 .554-.446 1-1 1s-1-.446-1-1v-8c0-.554.446-1 1-1z" opacity=".98"/><path d="m75 4c.554 0 1 .446 1 1v8c0 .554-.446 1-1 1s-1-.446-1-1v-8c0-.554.446-1 1-1z" opacity=".98"/></g><g fill-rule="evenodd"><g stroke-linecap="square" transform="matrix(2 0 0 2 0 -8)"><rect fill="#ed5a33" height="1" ry=".5" width="24" x="12" y="19"/><rect fill="#ed5a33" height="1" ry=".5" width="18" x="15" y="22"/><path d="m24 28c-.554 0-1 .446-1 1v7c0 .554.446 1 1 1h11c.554 0 1-.446 1-1v-7c0-.554-.446-1-1-1zm9.8438 1.0117a1 1 0 0 1 .86328.28125 1 1 0 0 1 0 1.4141l-4.207 4.207-2-2-2.793 2.793a1 1 0 0 1 -1.4141 0 1 1 0 0 1 0-1.4141l4.207-4.207 2 2 2.793-2.793a1 1 0 0 1 .55078-.28125z" fill="#fb6d3b"/></g><g fill="#ed5a33"><g stroke-width="2"><rect height="2" ry="1" width="12" x="30" y="50"/><rect height="2" ry="1" width="12" x="30" y="56"/><rect height="2" ry="1" width="12" x="30" y="62"/></g><g stroke-linecap="square" stroke-width="4"><circle cx="27" cy="51" r="1"/><circle cx="27" cy="57" r="1"/><circle cx="27" cy="63" r="1"/></g></g></g></svg>