<svg height="48" width="48" xmlns="http://www.w3.org/2000/svg"><path d="m9.0000002 44v-40h29.9999998v30l-9 10z" fill="#fafafa" stroke-width="1.5"/><g fill="#ed5a33"><path d="m8.996507 45c-.4965068 0-.9965068-.5-.9965068-1v-40c0-.5.5-1 .9965068-1h30c.503493 0 1.003551.5 1.003493 1v30c.000001.5 0 .5-.908204 1.538086l-7.753827 8.619968c-.331585.280649-.617099.593444-1.350251.841946zm.0035-1h19.999993v-10c0-.5.5-1 .996507-1h9l.0035-29h-30.0000068zm21 0 9-10h-9z" stroke-width="1.5"/><g stroke-width="5"><path d="m9 8h30v1h-30z" opacity=".98"/><path d="m10.5 2c.277 0 .5.223.5.5v4c0 .277-.223.5-.5.5s-.5-.223-.5-.5v-4c0-.277.223-.5.5-.5z" opacity=".98"/><path d="m13.5 2c.277 0 .5.223.5.5v4c0 .277-.223.5-.5.5s-.5-.223-.5-.5v-4c0-.277.223-.5.5-.5z" opacity=".98"/><path d="m16.5 2c.277 0 .5.223.5.5v4c0 .277-.223.5-.5.5s-.5-.223-.5-.5v-4c0-.277.223-.5.5-.5z" opacity=".98"/><path d="m19.5 2c.277 0 .5.223.5.5v4c0 .277-.223.5-.5.5s-.5-.223-.5-.5v-4c0-.277.223-.5.5-.5z" opacity=".98"/><path d="m22.5 2c.277 0 .5.223.5.5v4c0 .277-.223.5-.5.5s-.5-.223-.5-.5v-4c0-.277.223-.5.5-.5z" opacity=".98"/><path d="m25.5 2c.277 0 .5.223.5.5v4c0 .277-.223.5-.5.5s-.5-.223-.5-.5v-4c0-.277.223-.5.5-.5z" opacity=".98"/><path d="m28.5 2c.277 0 .5.223.5.5v4c0 .277-.223.5-.5.5s-.5-.223-.5-.5v-4c0-.277.223-.5.5-.5z" opacity=".98"/><path d="m31.5 2c.277 0 .5.223.5.5v4c0 .277-.223.5-.5.5s-.5-.223-.5-.5v-4c0-.277.223-.5.5-.5z" opacity=".98"/><path d="m34.5 2c.277 0 .5.223.5.5v4c0 .277-.223.5-.5.5s-.5-.223-.5-.5v-4c0-.277.223-.5.5-.5z" opacity=".98"/><path d="m37.5 2c.277 0 .5.223.5.5v4c0 .277-.223.5-.5.5s-.5-.223-.5-.5v-4c0-.277.223-.5.5-.5z" opacity=".98"/></g></g><g fill-rule="evenodd"><g stroke-linecap="square" transform="translate(0 -6)"><rect fill="#ed5a33" height="1" ry=".5" width="24" x="12" y="19"/><rect fill="#ed5a33" height="1" ry=".5" width="18" x="15" y="22"/><path d="m24 28c-.554 0-1 .446-1 1v7c0 .554.446 1 1 1h11c.554 0 1-.446 1-1v-7c0-.554-.446-1-1-1zm9.8438 1.0117a1 1 0 0 1 .86328.28125 1 1 0 0 1 0 1.4141l-4.207 4.207-2-2-2.793 2.793a1 1 0 0 1 -1.4141 0 1 1 0 0 1 0-1.4141l4.207-4.207 2 2 2.793-2.793a1 1 0 0 1 .55078-.28125z" fill="#fb6d3b"/></g><g fill="#ed5a33"><rect height="1" ry=".5" width="6" x="15" y="23"/><rect height="1" ry=".5" width="6" x="15" y="26"/><rect height="1" ry=".5" width="6" x="15" y="29"/><g stroke-linecap="square" stroke-width="2"><circle cx="13.5" cy="23.5" r=".5"/><circle cx="13.5" cy="26.5" r=".5"/><circle cx="13.5" cy="29.5" r=".5"/></g></g></g></svg>