<svg height="96" width="96" xmlns="http://www.w3.org/2000/svg"><g transform="matrix(3 0 0 -3 -.006986 96)"><path d="m6.0023288 2.6666667v26.6666663h20.0000002v-19.9999997l-6-6.6666666z" fill="#fafafa"/><path d="m6 2c-.3310045 0-.6643379.3333333-.6643379.6666667v26.6666663c0 .333334.3333334.666667.6643379.666667h20c.335662 0 .669034-.333333.668995-.666667v-19.9999997c.000001-.3333333 0-.3333333-.605469-1.0253906l-5.169218-5.7466455c-.221057-.1870991-.411399-.3956293-.900167-.5612972zm.00233.6666667h13.333332v6.6666666c0 .3333334.333333.6666667.664338.6666667h6l.0023 19.333333h-19.9999712zm14 0 6 6.6666666h-6z" fill="#309048"/></g><g fill="#309048"><g stroke-width="5"><path d="m18 16h60v2h-60z" opacity=".98"/><path d="m21 4c.554 0 1 .446 1 1v8c0 .554-.446 1-1 1s-1-.446-1-1v-8c0-.554.446-1 1-1z" opacity=".98"/><path d="m27 4c.554 0 1 .446 1 1v8c0 .554-.446 1-1 1s-1-.446-1-1v-8c0-.554.446-1 1-1z" opacity=".98"/><path d="m33 4c.554 0 1 .446 1 1v8c0 .554-.446 1-1 1s-1-.446-1-1v-8c0-.554.446-1 1-1z" opacity=".98"/><path d="m39 4c.554 0 1 .446 1 1v8c0 .554-.446 1-1 1s-1-.446-1-1v-8c0-.554.446-1 1-1z" opacity=".98"/><path d="m45 4c.554 0 1 .446 1 1v8c0 .554-.446 1-1 1s-1-.446-1-1v-8c0-.554.446-1 1-1z" opacity=".98"/><path d="m51 4c.554 0 1 .446 1 1v8c0 .554-.446 1-1 1s-1-.446-1-1v-8c0-.554.446-1 1-1z" opacity=".98"/><path d="m57 4c.554 0 1 .446 1 1v8c0 .554-.446 1-1 1s-1-.446-1-1v-8c0-.554.446-1 1-1z" opacity=".98"/><path d="m63 4c.554 0 1 .446 1 1v8c0 .554-.446 1-1 1s-1-.446-1-1v-8c0-.554.446-1 1-1z" opacity=".98"/><path d="m69 4c.554 0 1 .446 1 1v8c0 .554-.446 1-1 1s-1-.446-1-1v-8c0-.554.446-1 1-1z" opacity=".98"/><path d="m75 4c.554 0 1 .446 1 1v8c0 .554-.446 1-1 1s-1-.446-1-1v-8c0-.554.446-1 1-1z" opacity=".98"/></g><g transform="matrix(2 0 0 2 0 -7.99998)"><path d="m13 19c-.554 0-1 .446-1 1v11c0 .554.446 1 1 1h10v-1h-4v-2h4v-1h-4v-2h5v1h1v-1h5v1h1v-7c0-.554-.446-1-1-1zm0 1h5v2h-5zm6 0h5v2h-5zm6 0h5v2h-5zm-12 3h5v2h-5zm6 0h5v2h-5zm6 0h5v2h-5zm-12 3h5v2h-5zm0 3h5v2h-5z" fill="#309048"/><path d="m24 27c-.554 0-1 .446-1 1v8c0 .554.446 1 1 1h11c.554 0 1-.446 1-1v-8c0-.554-.446-1-1-1zm3 1h2v8h-2zm-3 2h2v6h-2zm9 2h2v4h-2zm-3 2h2v2h-2z" fill="#18ab50"/></g></g></svg>