<svg viewBox="0 0 32 32" xmlns="http://www.w3.org/2000/svg"><path d="m6 29v-26h20v20l-6 6z" fill="#fafafa"/><path d="m6 30c-.554 0-1-.446-1-1v-26c0-.554.446-1 1-1h20c.554 0 1 .446 1 1v19.75.208984c0 .45068.09804.425412-.605469 1.066407l-5.30664 5.238281c-.709525.736857-1.477331.736328-1.09375.736328h-.332032zm0-1h13v-6c0-.554.446016-1.004232 1-1h6v-19h-20zm14 0 6-6h-6z" fill="#309048"/><path d="m9 9c-.554 0-1 .446-1 1v7c0 .554.446 1 1 1h6v-1h-2v-1h2v-1h-2v-1h8v-4c0-.554-.446-1-1-1zm0 1h3v1h-3zm4 0h3v1h-3zm4 0h3v1h-3zm-8 2h3v1h-3zm4 0h3v1h-3zm4 0h3v1h-3zm-8 2h3v1h-3zm0 2h3v1h-3z" fill="#309048"/><path d="m16 14c-.554 0-1 .446-1 1v5c0 .554.446 1 1 1h7c.554 0 1-.446 1-1v-5c0-.554-.446-1-1-1zm2 1h1v5h-1zm-2 1h1v4h-1zm6 1h1v3h-1zm-2 1h1v2h-1z" fill="#18ab50"/><g fill="#309048"><g stroke-width="5"><path d="m7.5 1c.277 0 .5.223.5.5v3c0 .277-.223.5-.5.5s-.5-.223-.5-.5v-3c0-.277.223-.5.5-.5z"/><path d="m9.5 1c.277 0 .5.223.5.5v3c0 .277-.223.5-.5.5s-.5-.223-.5-.5v-3c0-.277.223-.5.5-.5z"/><path d="m11.5 1c.277 0 .5.223.5.5v3c0 .277-.223.5-.5.5s-.5-.223-.5-.5v-3c0-.277.223-.5.5-.5z"/><path d="m13.5 1c.277 0 .5.223.5.5v3c0 .277-.223.5-.5.5s-.5-.223-.5-.5v-3c0-.277.223-.5.5-.5z"/><path d="m23.5 1c.277 0 .5.223.5.5v3c0 .277-.223.5-.5.5s-.5-.223-.5-.5v-3c0-.277.223-.5.5-.5z"/></g><path d="m6 6h20v1h-20z" stroke-width="7.07107"/><g stroke-width="5"><path d="m15.5 1c.277 0 .5.223.5.5v3c0 .277-.223.5-.5.5s-.5-.223-.5-.5v-3c0-.277.223-.5.5-.5z"/><path d="m17.5 1c.277 0 .5.223.5.5v3c0 .277-.223.5-.5.5s-.5-.223-.5-.5v-3c0-.277.223-.5.5-.5z"/><path d="m19.5 1c.277 0 .5.223.5.5v3c0 .277-.223.5-.5.5s-.5-.223-.5-.5v-3c0-.277.223-.5.5-.5z"/><path d="m21.5 1c.277 0 .5.223.5.5v3c0 .277-.223.5-.5.5s-.5-.223-.5-.5v-3c0-.277.223-.5.5-.5z"/></g></g></svg>