<svg viewBox="0 0 16 16" xmlns="http://www.w3.org/2000/svg">/&amp;amp;amp;amp;amp;gt;<path d="m3 15v-14h10v11l-3 3z" fill="#fafafa"/><path d="m3 16c-.554 0-1-.446-1-1v-14c0-.554.446-1 1-1h10c.554 0 1 .446 1 1v11.363281l-3.636719 3.636719zm0-1h6v-3.5c0-.277.223-.5.5-.5h3.5v-10h-10zm7 0 3-3h-3z" fill="#0063b1"/><path d="m8 5h4v2h-4z" fill="#1e8bcd"/><g fill="#0063b1"><g transform="translate(0 -1)"><path d="m4 7h3v1h-3z"/><path d="m4 9h8v1h-8z"/><path d="m4 11h5v1h-5z"/></g><g stroke-width="5"><path d="m4.5 0c.277 0 .5.223.5.5v3c0 .277-.223.5-.5.5s-.5-.223-.5-.5v-3c0-.277.223-.5.5-.5z"/><path d="m6.5 0c.277 0 .5.223.5.5v3c0 .277-.223.5-.5.5s-.5-.223-.5-.5v-3c0-.277.223-.5.5-.5z"/><path d="m8.5 0c.277 0 .5.223.5.5v3c0 .277-.223.5-.5.5s-.5-.223-.5-.5v-3c0-.277.223-.5.5-.5z"/><path d="m10.5 0c.277 0 .5.223.5.5v3c0 .277-.223.5-.5.5s-.5-.223-.5-.5v-3c0-.277.223-.5.5-.5z"/><path d="m3 2h10v1h-10z"/></g></g></svg>