<svg viewBox="0 0 16 16" xmlns="http://www.w3.org/2000/svg">/&amp;amp;amp;amp;amp;amp;gt;<path d="m3 15v-14h10v11l-3 3z" fill="#fafafa"/><g fill="#ed5a33" stroke-width="5"><path d="m4.5 0c.277 0 .5.223.5.5v3c0 .277-.223.5-.5.5s-.5-.223-.5-.5v-3c0-.277.223-.5.5-.5z"/><path d="m6.5 0c.277 0 .5.223.5.5v3c0 .277-.223.5-.5.5s-.5-.223-.5-.5v-3c0-.277.223-.5.5-.5z"/><path d="m8.5 0c.277 0 .5.223.5.5v3c0 .277-.223.5-.5.5s-.5-.223-.5-.5v-3c0-.277.223-.5.5-.5z"/><path d="m10.5 0c.277 0 .5.223.5.5v3c0 .277-.223.5-.5.5s-.5-.223-.5-.5v-3c0-.277.223-.5.5-.5z"/><path d="m3 2h10v1h-10z"/></g><path d="m4 5v7h7v-7z" fill="#fb7445"/><path d="m5.9998 6v5h1v-2h.5c.8284271 0 1.5-.6715729 1.5-1.5s-.6715729-1.5-1.5-1.5h-.5zm1 1h.5c.2761424 0 .5.2238576.5.5s-.2238576.5-.5.5h-.5z" fill="#fafafa"/><path d="m3 16c-.554 0-1-.446-1-1v-14c0-.554.446-1 1-1h10c.554 0 1 .446 1 1v11.363281l-3.636719 3.636719zm0-1h6v-3.5c0-.277.223-.5.5-.5h3.5v-10h-10zm7 0 3-3h-3z" fill="#ed5a33"/></svg>