<svg viewBox="0 0 16 16" xmlns="http://www.w3.org/2000/svg"><path d="m6 1.2949219a7 7 0 0 0 -4.7011719 4.7050781h1.0527344a6 6 0 0 1 3.6484375-3.6503906zm4 .0039062v1.0527344a6 6 0 0 1 3.650391 3.6484375h1.054687a7 7 0 0 0 -4.705078-4.7011719zm-8.7050781 8.7011719a7 7 0 0 0 4.7050781 4.703125v-1.056641a6 6 0 0 1 -3.6503906-3.646484zm12.3535161 0a6 6 0 0 1 -3.648438 3.650391v1.052734a7 7 0 0 0 4.701172-4.703125z" fill="#3a3a38"/><circle cx="8" cy="8" fill="#fafafa" r="6"/><g fill="#3a3a38"><rect height="5" ry="1" width="2" x="7"/><rect height="5" ry="1" width="2" x="7" y="11"/><g transform="matrix(0 1 -1 0 16 0)"><rect height="5" ry="1" width="2" x="7"/><rect height="5" ry="1" width="2" x="7" y="11"/></g><circle cx="8" cy="8" r="1"/></g></svg>