<svg viewBox="0 0 128 128" xmlns="http://www.w3.org/2000/svg"><path d="m30.90625 5.9921875c-6.595944 0-11.90625 5.3103015-11.90625 11.9062505v90.187502c0 6.59593 5.310306 11.90625 11.90625 11.90625h66.1875c6.59593 0 11.90625-5.31032 11.90625-11.90625l-.002-56.583987c.0435-1.9158-.70754-3.837968-2.04102-5.214844l-38.247996-38.2343746c-1.377233-1.332769-3.298557-2.0854124-5.214843-2.0410156zm52.023438 0c-.190471 0-.382102.013951-.570313.042969-2.41528.773604-3.227243 4.4506108-1.365234 6.1796878l21.857419 21.970703c2.01927 1.92465 6.04205.277883 6.14844-2.517578v-13.7695313c0-6.3031-4.85267-11.4202627-11.039062-11.8632818h-14.462891c-.18832-.029018-.377893-.042969-.568359-.042969zm-51.929688 6.0078125h33.179688.792968l.455078.453125 37.005856 37.503906.56641.566407v.794921 56.681641c0 3.324-2.676 6-6 6h-66c-3.323988 0-6-2.676-6-6v-90c0-3.323988 2.676012-6 6-6z" fill="#0063b1" stroke-width="5"/><path d="m31 12c-3.323997 0-6 2.676003-6 6v90c0 3.324 2.676003 6 6 6h66c3.324 0 6-2.676 6-6v-46.5-10.181641-.794921l-.56641-.566407-37.005856-37.503906-.455078-.453125h-12.472656z" fill="#0063b1" stroke-width="5"/><g fill="#fafafa" fill-rule="evenodd" stroke-linecap="square" transform="matrix(3 0 0 3 16 21)"><rect height="1" ry=".5" width="7" x="8" y="13"/><rect height="1" ry=".5" width="7" x="8" y="15"/><rect height="1" ry=".5" width="7" x="8" y="17"/><rect height="1" ry=".5" width="16" x="8" y="20"/><rect height="1" ry=".5" width="16" x="8" y="22"/><rect height="1" ry=".5" width="7" x="8" y="24"/><path d="m18 13c-.554 0-1 .446-1 1v3c0 .554.446 1 1 1h5c.554 0 1-.446 1-1v-3c0-.554-.446-1-1-1zm4.5 1a.5.5 0 0 1 .5.5.5.5 0 0 1 -.5.5.5.5 0 0 1 -.5-.5.5.5 0 0 1 .5-.5zm-3.1641.5293a.61803.61803 0 0 1 .37109.17773l2.293 2.293h-4l.68359-2.0508a.61803.61803 0 0 1 .65234-.41992z" fill="#fafafa"/></g></svg>