<svg height="32" viewBox="0 0 32 32" width="32" xmlns="http://www.w3.org/2000/svg"><path d="m8.4018199 5.9999999c.1846156 0 .3420812.010044.4723979.030121.1303178.010044.2443444.04016.3420822.09036.1085889.04016.2063345.1004011.2932122.180723.097734.080321.2063358.185743.3257928.316265l12.262435 13.7650611c-.06516-.662649-.09774-1.290159-.09774-1.88253v-12.5h3v20h-1.583714c-.336649 0-.619002-.0502-.847056-.150602-.217196-.110445-.43439-.286146-.651584-.527109l-12.015376-13.054217c.06517.62249.1055 1.199857.09773 1.731928v12h-3v-20z" fill="#3a3a38"/></svg>