<svg viewBox="0 0 32 32" xmlns="http://www.w3.org/2000/svg"><g fill="#3a3a38"><path d="m20.41485 8.9280908q-.197681.3690023-.540325.3690023-.19768 0-.474432-.1976798-.263573-.2108585-.658932-.4480743-.382182-.2503945-.935686-.4480743-.540324-.2108584-1.304686-.2108584-.724827 0-1.27833.2108584-.540325.1976798-.909327.5666822-.355824.3558237-.540325.843434-.1845.4744321-.1845 1.0279351 0 .724826.329465 1.199258.342646.474431.88297.817075.553504.329467 1.251972.579862.698469.250395 1.423295.513967.724827.263574 1.423294.606218.69847.329467 1.238794.843434.553505.500789.88297 1.238794.342646.738005.342646 1.805476 0 1.146543-.369003 2.14812-.369002.9884-1.08065 1.726405-.698468.738004-1.726403 1.159721-1.027935.421717-2.345801.421717-1.594617 0-2.93884-.606218-1.331044-.619396-2.266729-1.660511l.698469-1.133363q.09225-.144966.224036-.224038.144966-.09225.329468-.09225.250394 0 .553502.276751.316289.263574.777542.59304.461253.316288 1.107007.593041.658932.263572 1.56826.263572.764361 0 1.357401-.224037.59304-.224037 1.001579-.632576.421716-.408538.632574-.97522.224037-.579861.224037-1.278329 0-.777542-.342645-1.27833-.329467-.500789-.88297-.830255-.540325-.342645-1.238793-.566682-.698468-.237217-1.423295-.487611-.724826-.250394-1.423295-.566681-.698468-.329468-1.251972-.856613-.540325-.527146-.88297-1.304688-.329466-.77754-.329466-1.937262 0-.9093267.342646-1.7659393.342644-.8697913.988398-1.5287241.658933-.6721113 1.607795-1.067471.962043-.4085384 2.200837-.4085384 1.383759 0 2.530301.4612531 1.159723.4612529 2.003156 1.3442228z" stroke-width=".77"/><path d="m6 25h20v1h-20z" fill="#1e8bcd" fill-opacity=".992647" stroke-width="1.025978"/></g></svg>