<svg viewBox="0 0 16 16" xmlns="http://www.w3.org/2000/svg">
/&amp;amp;amp;amp;amp;gt;<path d="m8 2a6 6 0 0 0 -6 6 6 6 0 0 0 .0703125.8574219 1.0001 1.0001 0 0 1 -.0703125-.0273438 6 6 0 0 0 1.7128906 3.3535159 6 6 0 0 0 .2285156.220703 6 6 0 0 0 .0761719.066406 6 6 0 0 0 3.0878907 1.455078 1.0001 1.0001 0 0 1 0-.0625 6 6 0 0 0 .8203124.0625 6 6 0 0 0 5.9999998-5.9999998 6 6 0 0 0 -.070312-.8574218 1.0001 1.0001 0 0 1 .070312.0273437 6 6 0 0 0 -1.71289-3.3535156 6 6 0 0 0 -.228516-.2207031 6 6 0 0 0 -.076172-.0664063 6 6 0 0 0 -3.0878905-1.4550781 1.0001 1.0001 0 0 1 0 .0625 6 6 0 0 0 -.8203125-.0625z" fill="#fafafa"/><path d="m8 1a7 7 0 0 0 -6.9628906 6.3398438h-.0019532a7 7 0 0 0 -.0019531.0351562 7 7 0 0 0 -.03125.5800781 7 7 0 0 0 -.0019531.0292969 7 7 0 0 0 0 .0058594 7 7 0 0 0 0 .0097656 7 7 0 0 0 .0351562.6835938 7 7 0 0 0 .1035157.6914062 7 7 0 0 0 6.4472656 5.609375l-.0078125-.015625a7 7 0 0 0 .421875.015625 7 7 0 0 0 6.962891-6.3398438h.001953a7 7 0 0 0 .001953-.0351562 7 7 0 0 0 .03125-.5800781 7 7 0 0 0 .001953-.0292969 7 7 0 0 0 0-.015625 7 7 0 0 0 -.035156-.6835938 7 7 0 0 0 -.103516-.6914062 7 7 0 0 0 -6.4472655-5.609375l.0078125.015625a7 7 0 0 0 -.421875-.015625zm0 1a6 6 0 0 1 5.777344 4.3984375 6 6 0 0 1 0 .0019531 6 6 0 0 1 0 .0019532 6 6 0 0 1 .125.5605468 6 6 0 0 1 .023437.1289063 6 6 0 0 1 0 .0039062 6 6 0 0 1 .074219.8886719 6 6 0 0 1 -6 6 6 6 0 0 1 -5.7773438-4.3984375 6 6 0 0 1 0-.0039063 6 6 0 0 1 -.125-.5605468 6 6 0 0 1 -.0234374-.1289063 6 6 0 0 1 0-.0039062 6 6 0 0 1 -.0742188-.8886719 6 6 0 0 1 6-6zm0 1a5 5 0 0 0 -5 5 5 5 0 0 0 4.6132812 4.984375l.0175782-.015625a5 5 0 0 0 .3691406.015625 5 5 0 0 0 5-5 5 5 0 0 0 -4.6132812-4.984375l-.0175782.015625a5 5 0 0 0 -.3691406-.015625z" fill="#ed3d3b"/></svg>