<svg height="16" viewBox="0 0 4.2333332 4.2333335" width="16" xmlns="http://www.w3.org/2000/svg"><rect fill="#3a3a38" height="4.233334" rx=".132292" width="3.439583" x=".264583"/><path d="m.52916664.26458332h2.91041656v3.70416668h-2.91041656z" fill="#fafafa"/><g fill="#3a3a38"><circle cx=".926042" cy=".661458" r=".132292"/><circle cx="3.042708" cy=".661458" r=".132292"/><circle cx=".926042" cy="3.571875" r=".132292"/><circle cx="3.042708" cy="3.571875" r=".132292"/><path d="m7.5 3a4.4999996 4.4999996 0 0 0 -4.5 4.5 4.4999996 4.4999996 0 0 0 .8671875 2.648438l.7460937-.6718755c-.3860081-.562643-.6132812-1.2426891-.6132812-1.9765625 0-1.9329966 1.5670034-3.5 3.5-3.5s3.5 1.5670034 3.5 3.5-1.5670034 3.5-3.5 3.5c-.3879793 0-.7547365-.078767-1.1035156-.195312l-.3828125.9375a4.4999996 4.4999996 0 0 0 1.4863281.257812 4.4999996 4.4999996 0 0 0 4.5-4.5 4.4999996 4.4999996 0 0 0 -4.5-4.5zm0 3a1.5 1.5 0 0 0 -1.5 1.5 1.5 1.5 0 0 0 .1328125.6113281l.5332031-.4785156a.49930288.49930288 0 0 1 .3105469-.1328125.49930288.49930288 0 0 1 .0234375 0 .49999995.49999995 0 0 1 .5-.5.49999995.49999995 0 0 1 .5.5.49999995.49999995 0 0 1 -.4980469.5.49930288.49930288 0 0 1 -.0390625.1933594l-.3125.7636718a1.5 1.5 0 0 0 .3496094.0429688 1.5 1.5 0 0 0 1.5-1.5 1.5 1.5 0 0 0 -1.5-1.5z" transform="scale(.26458333)"/><path d="m1.8292428 2.2004184-.7480681.6081281a.26458331.26458331 0 0 0 -.098599.079788.26458331.26458331 0 0 0 .052917.3704167.26458331.26458331 0 0 0 .3704166-.052917.26458331.26458331 0 0 0 .049299-.1174089z"/><path d="m1.8520833 2.1166667-.7709086.6918798c-.038849.018208-.072688.045591-.098599.079788-.0876752.1169004-.0639834.2827416.052917.3704167.1169003.087675.2827415.063983.3704166-.052917.025746-.034539.042669-.074843.049299-.1174089z"/></g></svg>