<svg viewBox="0 0 128 128" xmlns="http://www.w3.org/2000/svg"><path d="m12.00015 6.0269977v115.9684823c.0004 4.1875 1.811244 5.99736 5.9998 5.99776h91.99824c4.18856-.0004 5.9994-1.81026 5.9998-5.99776v-71.819197c.048-2.111901-.77998-4.2306-2.24995-5.748411l-42.162522-42.1492612c-1.518209-1.46919047-3.637447-2.29830906-5.749885-2.24936803h-47.835683c-4.151757 0-6.01812 3.48472913-5.9998 5.99775493z" fill="#3a3a38"/><path d="m86.633697.05483285c-2.662506.85278942-3.558569 4.90601815-1.50597 6.81207925l24.095443 24.2209309c2.22595 2.121657 6.65954.306281 6.77682-2.775324v-24.220851c-.00024-2.1136607-1.91324-4.03659524-4.01592-4.03683515h-24.095438c-.415191-.0639752-.839983-.0639752-1.254935 0z" fill="#3a3a38"/><path d="m18.000147 5.9918v2 112 2h1.999997 88.000006 2v-2-70-.8752l-.62497-.6248-41.750007-42-.499969-.5h-.875016-46.250044z" fill="#fafafa"/><path d="m32.001 89h64v14h-64z" fill="#fb983b"/><path d="m32.001 48h64v41h-64z" fill="#fb983b"/><rect fill="#fafafa" height="38" rx="1" width="60" x="33.999001" y="49.999981"/><path d="m33.999 91h60v10h-60z" fill="#fafafa"/><path d="m89.499 50.4999v37m-51-37v37m25-37v37m-28-3h57m-57-21h57m-57-10h57" fill="#fb983b" stroke="#fb983b" stroke-dasharray="1 3" stroke-dashoffset="6.1" stroke-linecap="square"/><g fill="#3a3a38"><path d="m59.99959 52.992899h30.016254v5.999984h-3.001625v-1.999995h-24.510165l-12.229201 27.999984h-1.776177l-7.489919-15.498457-2.916759 1.482334-1.07618-3.634015 6.053208-2.23336 6.296973 11.917415 10.631183-24.03389"/><path d="m87.1763 62.9999h-4.9606l-6.0976 7.6508h-.155l-5.8908-7.6508h-5.3741l8.4394 10.7273v.1363l-8.7495 11.1364h4.9608l6.5108-8.2873h.1551l6.5109 8.2873h5.3741l-8.9561-11.3181v-.1364z"/><path d="m50.257253 94.183v.7704c-.225403-.1313-.452305-.2297-.680507-.2953-.228303-.066-.460805-.099-.697707-.099-.356604 0-.623406.059-.800308.1755-.174102.1141-.261103.2896-.261103.5264 0 .214.066.3738.196902.4794.131201.1056.457905.2083.98011.3082l.316703.06c.390904.074.686207.2225.886009.4451.202502.2225.303803.5122.303803.8688 0 .4737-.168302.8446-.505005 1.1128-.336703.2654-.804608.398-1.403814.398-.236902 0-.485105-.026-.744708-.077-.259702-.049-.540705-.1227-.843208-.2225v-.8132c.293903.1512.575006.2653.843208.3424.268203.074.522106.1112.761808.1112.348104 0 .617706-.07.808908-.2097.191202-.1426.286803-.341.286803-.5949 0-.3652-.349603-.6177-1.04861-.7576l-.034-.01-.295303-.06c-.453704-.089-.784608-.2369-.99291-.4451-.208302-.2112-.312503-.4979-.312503-.8603 0-.4594.155502-.8132.466505-1.0614.311103-.2511.754707-.3767 1.331113-.3767.256803 0 .503605.024.740408.073.236902.046.469404.1155.697707.2097"/><path d="m52.817978 96.4343c0 .6106.096 1.0714.286703 1.3824.194102.311.480805.4665.860309.4665.379503 0 .666306-.1555.860308-.4665.196902-.3139.295303-.7747.295303-1.3824 0-.6078-.098-1.0672-.295303-1.3782-.194002-.3139-.480805-.4708-.860308-.4708-.379504 0-.666207.1555-.860309.4665-.191102.311-.286703.7718-.286703 1.3825m2.302623 1.7804c-.128401.2368-.302403.4195-.522205.5478-.216802.1256-.469305.1884-.757508.1884-.573505 0-1.02721-.2212-1.361013-.6634-.331004-.4451-.496505-1.0572-.496505-1.8361 0-.7932.165501-1.4138.496505-1.8618.331003-.448.784608-.672 1.361013-.672.285303 0 .536406.063.753308.1884.219702.1226.395104.3024.526405.5392v-.612h.791808v6.6168h-.791808z"/><path d="m61.550865 95.0985c-.168301-.1313-.339503-.2268-.513605-.2868-.174001-.06-.365203-.09-.573505-.09-.490805 0-.866009.154-1.125612.4622-.259702.3082-.389504.7533-.389504 1.3353v2.384h-.791807v-4.7936h.791807v.9373c.131202-.3395.332404-.5992.603506-.7789.273903-.1826.597706-.2739.97151-.2739.194002 0 .375204.024.543606.073.168301.049.329503.1241.483604.2269v.8046"/><path d="m64.883399 92.78v1.3611h1.789018v.612h-1.789018v2.6022c0 .3538.067.6006.201102.7405.134101.1398.368103.2097.701907.2097h.886009v.6291h-.96301c-.590606 0-1.00721-.1184-1.249812-.3552-.242503-.2368-.363804-.6449-.363804-1.2241v-2.6022h-1.279713v-.612h1.279713v-1.3611z"/><path d="m72.172272 99.3728v.6163h-.273903c-.710507 0-1.187012-.1055-1.429514-.3167-.239703-.2111-.359604-.632-.359504-1.2626v-1.0229c-.0001-.4308-.077-.729-.231202-.8945-.151202-.1655-.426505-.2482-.826009-.2482h-.265402v-.6121h.265402c.402304 0 .679107-.081.830309-.2439.151201-.1627.226802-.458.226902-.886v-1.0272c-.0001-.6305.119801-1.05.359504-1.2583.242502-.2111.719007-.3167 1.429514-.3167h.273903v.612h-.299603c-.399504.0001-.660607.063-.783208.1884-.119901.1227-.179802.3866-.179802.7918v1.0614c0 .448-.066.7732-.196902.9758-.128401.2026-.349503.3396-.663407.4109.316704.077.539306.2168.667707.4194s.192602.5265.192602.9716v1.0614c0 .408.06.6734.179802.7961.122601.1227.383704.184.783208.184z"/><path d="m77.523925 94.0161-1.716317 2.294 1.883219 2.4995h-.911609l-1.403914-1.9217-1.399514 1.9217h-.911609l1.883118-2.4995-1.716217-2.294h.873109l1.271113 1.7334 1.262612-1.7334z"/><path d="m78.863939 99.3728h.291003c.402404 0 .664906-.063.787607-.1883.122702-.1255.184002-.3895.184002-.7918v-1.0614c0-.4451.064-.769.192602-.9716.128401-.2026.351004-.3424.667707-.4194-.313903-.071-.536506-.2083-.667707-.4109-.128401-.2026-.192602-.5278-.192602-.9758v-1.0614c0-.4024-.061-.6663-.184002-.7918-.122701-.1256-.385203-.1883-.787607-.1884h-.291003v-.612h.265402c.710407 0 1.185512.1056 1.425214.3167.239703.2083.359504.6278.359504 1.2583v1.0272c0 .428.076.7233.226902.886.154002.1626.432205.2439.834509.2439h.274002v.6121h-.274002c-.402304 0-.680507.083-.834509.2482-.151301.1655-.226902.4637-.226902.8945v1.0229c0 .6306-.119801 1.0515-.359504 1.2626-.239702.2112-.714807.3167-1.425214.3167h-.265402z"/></g></svg>