<svg height="48" width="48" xmlns="http://www.w3.org/2000/svg" xmlns:xlink="http://www.w3.org/1999/xlink"><linearGradient id="a" gradientTransform="matrix(1 0 0 -1 -986.00068 895.63619)" gradientUnits="userSpaceOnUse" x1="1013.5938" x2="1013.5938" y1="873.13702" y2="856.62634"><stop offset="0" stop-color="#c99c00"/><stop offset="1" stop-color="#876900"/></linearGradient><path d="m6.4378301.01350697c-1.3751541.2623985-2.4620779 1.59976123-2.4374187 2.99916983v41.9881982c.00015 1.570313 1.4292124 2.99902 2.9999 2.99917h33.9988566c1.570687-.00015 2.99975-1.428857 2.9999-2.99917v-26.182212c.018-.791964-.292491-1.586476-.843722-2.155656l-15.810733-15.80598631c-.569321-.55094689-1.364025-.86186662-2.156178-.84351372h-18.1881236c-.1868938-.01799304-.3755275-.01799304-.5624813 0z" fill="#ed8733"/><path d="m32.987605.02310326c-.998427.3197963-1.334446 1.83975834-.564731 2.55453184l9.035668 9.0828569c.834723.795622 2.497297.114855 2.541276-1.040748v-9.0828263c-.00009-.79262341-.717456-1.51372447-1.50595-1.51381444h-9.035669c-.155695-.02399072-.314989-.02399072-.470594 0z" fill="#ed8733"/><path d="m7.0006124 3.02112v.75 40.50004.72723h.74999 32.4994296.74998v-.72723-25.50003-.3282l-.23436-.2343-14.90598-15.00001-.18748-.1875h-.32813-17.5934596z" fill="#fafafa"/><path d="m26.498963 25.501661a6.999993 6.999993 0 0 1 -13.999986 0 6.999993 6.999993 0 1 1 13.999986 0z" fill="#ff9198" stroke="#d42314" stroke-width=".999998"/><path d="m24.499321 33.49837h11v-11h-11z" fill="url(#a)" stroke="#876900" stroke-linecap="round" stroke-linejoin="round" stroke-width=".999999"/><g fill="#fafafa" stroke="#e78e46" transform="translate(4.000001)"><path d="m22.42932 33.49839 9.07-.00002v-11h-11l.07 8z" fill="#83beec" stroke="#0063b1" stroke-linecap="round" stroke-linejoin="round" stroke-width=".999999"/><path d="m25.49932 38.49839h-15.99999l7.99999-13z" fill="#f8db8f" stroke="#ed8733" stroke-linecap="round" stroke-linejoin="round"/><g fill="#a1ddaa" stroke="#309048"><path d="m8.49932 37.49837h2v2h-2z"/><path d="m24.49932 37.49837h2v2h-2z"/><path d="m16.49932 24.49837h2v2h-2z"/></g></g></svg>