<svg height="96" width="96" xmlns="http://www.w3.org/2000/svg"><text x="447.7438" y="-244.83366"><tspan x="447.7438" y="-244.83366"/></text><path d="m12.377242.02702954c-2.750262.52479665-3.4240883 1.69950156-3.3747707 4.49831696v86.9763735c.0003 3.140625 1.3583917 4.49802 4.4997147 4.49832h68.996596c3.141335-.0003 4.499426-1.357695 4.499726-4.49832v-53.864404c.036-1.583926-.584967-3.172951-1.687418-4.311309l-31.62094-31.6119512c-1.138622-1.10189299-2.728002-1.72373204-4.312283-1.68702626h-35.875681c-.373782-.03598605-.751042-.03598605-1.124944 0z" fill="#309048"/><path d="m13 4v1.5000003 84.9999987 1.500001h1.499972 67.000055 1.499973v-1.500001-52.843599-.6564l-.468719-.4686-32.156311-32.1563999-.37497-.3750001h-.65625-34.843778z" fill="#fafafa"/><path d="m64.975944.04621964c-1.996819.63959217-2.668845 3.67951416-1.129443 5.10906026l18.071034 18.1657011c1.669418 1.591243 4.994507.229711 5.082465-2.081493v-18.1656415c-.00018-1.5852458-1.434889-3.02744692-3.011849-3.02762686h-18.071033c-.311385-.0479814-.629969-.0479814-.941174 0z" fill="#309048"/><g transform="translate(2)"><path d="m25 38v36h43v-36zm1 1h13v6h-13zm14 0h13v6h-13zm14 0h13v6h-13zm-28 7h13v6h-13zm14 0h13v6h-13zm14 0h13v6h-13zm-28 7h13v6h-13zm14 0h13v6h-13zm14 0h13v6h-13zm-28 7h13v6h-13zm14 0h13v6h-13zm14 0h13v6h-13zm-28 7h13v6h-13zm14 0h13v6h-13zm14 0h13v6h-13z" fill="#18ab50"/><path d="m44 58h27v19h-27z" fill="#fafafa"/><path d="m43 57v21h29v-21zm1 1h27v19h-27z" fill="#18ab50"/><path d="m46 64h5v12h-5z" fill="#1e8bcd"/><path d="m52 60h5v16h-5z" fill="#ed3d3b"/><path d="m58 68h5v8h-5z" fill="#fb983b"/><path d="m64 65h5v11h-5z" fill="#18ab50"/></g><g fill="#3a3a38"><path d="m13 4h7v88h-7z" fill="#309048" fill-opacity=".978947"/><path d="m15 6h3v3h-3z" fill="#fafafa"/><path d="m5 6h8v3h-8z"/><path d="m15 14h3v3h-3z" fill="#fafafa"/><path d="m5 14h8v3h-8z"/><path d="m15 22h3v3h-3z" fill="#fafafa"/><path d="m5 22h8v3h-8z"/><path d="m15 30h3v3h-3z" fill="#fafafa"/><path d="m5 30h8v3h-8z"/><path d="m15 38h3v3h-3z" fill="#fafafa"/><path d="m5 38h8v3h-8z"/><path d="m15 46h3v3h-3z" fill="#fafafa"/><path d="m5 46h8v3h-8z"/><path d="m15 54h3v3h-3z" fill="#fafafa"/><path d="m5 54h8v3h-8z"/><path d="m15 62h3v3h-3z" fill="#fafafa"/><path d="m5 62h8v3h-8z"/><path d="m15 70h3v3h-3z" fill="#fafafa"/><path d="m5 70h8v3h-8z"/><path d="m15 78h3v3h-3z" fill="#fafafa"/><path d="m5 78h8v3h-8z"/><path d="m15 86h3v3h-3z" fill="#fafafa"/><path d="m5 86h8v3h-8z"/></g></svg>