<svg viewBox="0 0 24 24" xmlns="http://www.w3.org/2000/svg"><path d="m3 2c-.554 0-1 .446-1 1v18c0 .554.446 1 1 1h13.541016a4 4 0 0 1 -.541016-2 4 4 0 0 1 4-4 4 4 0 0 1 2 .541016v-13.541016c0-.554-.446-1-1-1z" fill="#922e98"/><path d="m3 3v18h13.130859a4 4 0 0 1 -.130859-1 4 4 0 0 1 4-4 4 4 0 0 1 1 .132812v-13.132812z" fill="#d492d8"/><path d="m4 2c-.554 0-1 .446-1 1v8c0 .554.446 1 1 1h16c.554 0 1-.446 1-1v-8c0-.554-.446-1-1-1zm3 12c-.554 0-1 .446-1 1v6c0 .554.446 1 1 1h9.541016a4 4 0 0 1 -.541016-2 4 4 0 0 1 3-3.869141v-1.130859c0-.554-.446-1-1-1z" fill="#922e98"/><path d="m5 3c-.554 0-1 .446-1 1v6c0 .554.446 1 1 1h14c.554 0 1-.446 1-1v-6c0-.554-.446-1-1-1zm3 12c-.554 0-1 .446-1 1v4c0 .554.446 1 1 1h2v-5h2v5h4.130859a4 4 0 0 1 -.130859-1 4 4 0 0 1 2-3.458984v-.541016c0-.554-.446-1-1-1z" fill="#fafafa"/><circle cx="20" cy="20" fill="#ed3d3d" r="3"/></svg>