<svg viewBox="0 0 16 16" xmlns="http://www.w3.org/2000/svg"><path d="m1.8125756.00599937c-.4583913.08746719-.82070444.53319998-.8124846.99962503v13.9947496c.00005.523384.4764109.999575.999981.999625h11.999772c.52357-.00005.999931-.476241.999981-.999625v-7.9969996c.006-.263961-.0975-.5287717-.281245-.7184805l-5.9998857-5.99774999c-.1897764-.18363112-.4546813-.28726224-.7187363-.28114454h-5.999886c-.0622988-.00599774-.1251776-.00599774-.1874964 0z" fill="#922e9b"/><path d="m11.343644.00599937c-.331493.10559039-.443051.60743213-.187496.8434336l2.999943 2.99887503c.277145.2626914.829134.037886.843734-.3436211v-2.99887503c-.00003-.26169182-.238205-.49978251-.49999-.4998125h-2.999943c-.0517-.007997-.104589-.007997-.156248 0z" fill="#922e9b"/><path d="m2.0023.99933v.5 13 .5h.5 10.9998.5v-.5-7.3125-.2188l-.1562-.125-5.6875-5.7187-.1562-.125h-.1875-5.3124z" fill="#fafafa"/><path d="m4 6v1 1 1 1 1 1 1h1 2 1 2 1v-1-6h-6z" fill="#a846b2"/><path d="m7 7-2 5h1l.375-1h2.25l.375 1h1l-2-5zm.5 1 .75 2h-1.5z" fill="#fafafa"/></svg>