<svg viewBox="0 0 32 32" xmlns="http://www.w3.org/2000/svg"><path d="m5 2c-.554 0-1 .446-1 1v26c0 .554.446 1 1 1h22c.554 0 1-.446 1-1v-26c0-.554-.446-1-1-1zm0 1h22v26h-22z" fill="#3a3a38"/><path d="m5 3v26h22v-26z" fill="#fafafa"/><path d="m7 4c-.554 0-1 .446-1 1v14c0 .518043.394835.927663.898438.980469l.980468-.980469h-.878906v-14h9v14h-.878906l.980468.980469c.503603-.052806.898438-.462426.898438-.980469v-14c0-.554-.446-1-1-1z" fill="#1e8bcd"/><path d="m7 5v14h.878906l2.560547-2.560547c.275236-.27537.647821-.433253 1.037109-.439453.405454-.0062.797318.152655 1.083985.439453l2.560547 2.560547h.878906v-14z" fill="#fafafa"/><g fill="none" stroke="#1e8bcd" stroke-linejoin="round"><path d="m16 5-4.5 7 4.5 7"/><path d="m11.499858 18.5 4.000071 4h-3.000071v5h-2v-5h-2.999929z" stroke-linecap="round"/></g></svg>