<svg viewBox="0 0 24 24" xmlns="http://www.w3.org/2000/svg"><g fill="#3a3a38"><path d="m10 12.90137v4.09863h-2v-12h3.738843c.793388 0 1.480991.092694 2.06281.2780822.58843.1853881 1.07438.4474886 1.457851.7863013.383471.3388128.667769.7511415.852893 1.2369862.191735.4794521.287603 1.0164384.287603 1.6109589 0 .5881278-.102479 1.1251144-.307438 1.6109584-.198347.485845-.495867.907762-.892562 1.265753-.390083.351599-.876033.626485-1.457851.824658-.575207.191781-1.242975.287672-2.003306.287672zm0-1.380822h1.738843c.46281 0 .872727-.06393 1.229752-.191781.357025-.127854.654545-.30685.892562-.536987.244628-.230137.426446-.505022.545454-.8246569.12562-.3196347.18843-.6712329.18843-1.0547945 0-.8054794-.234711-1.428767-.704132-1.8698629-.469421-.4474886-1.186777-.6712329-2.152066-.6712329h-1.738843z" stroke-width=".7"/><g fill="#1e8bcd"><path d="m4 20h16v1h-16z"/><path d="m4 18h16v1h-16z"/></g></g></svg>