<svg viewBox="0 0 24 24" xmlns="http://www.w3.org/2000/svg"><g fill="#3a3a38"><path d="m9.8485462 13.180932v5.185181h-1.9666163v-13.2206776h3.6764351c.780145 0 1.456271.094268 2.028377.2828027.578608.1885351 1.056447.4550847 1.433517.7996489.377071.3445642.656623.7638923.838657 1.2579843.188535.4875908.282802 1.0336925.282802 1.6383051 0 .5981117-.100769 1.1442136-.302306 1.6383056-.195037.494092-.487591.923172-.877663 1.287239-.383572.357567-.861411.637119-1.433517.838657-.565606.195036-1.222228.292554-1.969867.292554zm0-1.404262h1.7098188c.455085 0 .85816-.06501 1.209225-.195036.351065-.130024.64362-.312058.877663-.546102.240545-.234043.419329-.513595.53635-.838656.123523-.3250604.185285-.6826269.185285-1.0726996 0-.8191525-.230793-1.4530206-.692379-1.9016041-.461586-.4550848-1.166967-.6826272-2.116144-.6826272h-1.7098188z" stroke-width=".7" transform="matrix(1.0169752 0 0 .98330815 -.015727 -.059549)"/><path d="m4 20h16v1h-16z" fill="#1e8bcd" stroke-width=".917663"/></g></svg>