<svg viewBox="0 0 24 24" xmlns="http://www.w3.org/2000/svg"><path d="m5.0058594 2c-.5577284 0-1.0058594.448131-1.0058594 1.0058594v17.9882816c0 .557728.448131 1.005859 1.0058594 1.005859h13.9882106c.557728 0 1.005859-.448131 1.005859-1.005859v-17.9882816c0-.5577284-.448131-1.0058594-1.005859-1.0058594zm-.0058594 1h13.999929v18h-13.999929z" fill="#3a3a38"/><path d="m5 3v18h13.999929v-18z" fill="#fafafa"/><g fill="#1e8bcd"><rect height="1" ry=".5" width="7" x="6" y="6"/><rect height="1" ry=".5" width="7" x="6" y="12"/><rect height="1" ry=".5" width="7" x="6" y="18"/><rect height="1" ry=".5" width="7" x="6" y="15"/><rect height="1" ry=".5" width="7" x="6" y="9"/><rect height="1" ry=".5" width="4" x="14" y="6"/><rect height="1" ry=".5" width="4" x="14" y="12"/><rect height="1" ry=".5" width="4" x="14" y="18"/><rect height="1" ry=".5" width="4" x="14" y="15"/><rect height="1" ry=".5" width="4" x="14" y="9"/></g></svg>