<svg viewBox="0 0 24 24" xmlns="http://www.w3.org/2000/svg"><path d="m4 4c0-.554.446-1 1-1h11.09375c-.057859.1575702-.09375.3251094-.09375.5s.035891.3424298.09375.5h-11.09375v13.09375c-.1575702-.057859-.3251095-.09375-.5-.09375s-.3424298.035891-.5.09375zm3.90625 16h11.09375v-13.09375c.15757.0578587.325109.09375.5.09375s.34243-.0358913.5-.09375v13.09375c0 .554-.446 1-1 1h-11.09375c.0578587-.15757.09375-.325109.09375-.5s-.0358913-.34243-.09375-.5z" fill="#3a3a38"/><path d="m5 4h11.09375c.211337.5755473.767438 1 1.40625 1h.5v.5c0 .6388124.424453 1.194913 1 1.40625v13.09375h-11.09375c-.211337-.575547-.7674377-1-1.40625-1h-.5v-.5c0-.638812-.4244527-1.194913-1-1.40625z" fill="#fafafa"/><g fill="#1e8bcd"><path d="m2 20.5c0-.277.223-.5.5-.5h1.5v-1.5c0-.277.223-.5.5-.5s.5.223.5.5v1.5h1.5c.277 0 .5.223.5.5s-.223.5-.5.5h-1.5v1.5c0 .277-.223.5-.5.5s-.5-.223-.5-.5v-1.5h-1.5c-.277 0-.5-.223-.5-.5z"/><path d="m17 3.5c0-.277.223-.5.5-.5h1.5v-1.5c0-.277.223-.50000001.5-.50000001s.5.22300001.5.50000001v1.5h1.5c.277 0 .5.223.5.5s-.223.5-.5.5h-1.5v1.5c0 .277-.223.5-.5.5s-.5-.223-.5-.5v-1.5h-1.5c-.277 0-.5-.223-.5-.5z"/></g></svg>