<svg viewBox="0 0 24 24" xmlns="http://www.w3.org/2000/svg"><path d="m5.0058594 2c-.5577284 0-1.0058594.448131-1.0058594 1.0058594v17.9882816c0 .557728.448131 1.005859 1.0058594 1.005859h13.9882816c.557728 0 1.005859-.448131 1.005859-1.005859v-17.9882816c0-.5577284-.448131-1.0058594-1.005859-1.0058594zm-.0058594 1h14v18h-14z" fill="#3a3a38"/><path d="m5 3h14v18h-14z" fill="#fafafa"/><path d="m8.65625 9-2.671875 7h.998047l.638672-1.794922h3.154297l.638671 1.794922h.984376l-2.667969-7zm6.59375 0c-1.242635 0-2.249992.8954284-2.25 2h1c-.00013-.613736.559552-1.1113281 1.25-1.1113281s1.25013.4975921 1.25 1.1113281c-.000715.426689-.276251.815324-.708984 1h-.791016v.01367.07617.822265.07227.01563h.224609.02539.541016c.432729.184675.708265.573307.708985.999995.000126.613737-.559555 1.111328-1.25 1.111328s-1.250126-.497591-1.25-1.111328h-1c.000015 1.104574 1.00737 2 2.25 2s2.249985-.895426 2.25-2c-.000982-.574543-.279884-1.120962-.765625-1.5.485744-.379038.764645-.925458.765625-1.5-.000008-1.1045716-1.007365-2-2.25-2zm-6.058594.9335938 1.289063 3.4824222h-2.574219z" fill="#1e8bcd"/></svg>