<?xml version="1.0" encoding="utf-8"?>
<!-- Generator: Adobe Illustrator 12.0.1, SVG Export Plug-In . SVG Version: 6.00 Build 51448)  -->
<!DOCTYPE svg PUBLIC "-//W3C//DTD SVG 1.1//EN" "http://www.w3.org/Graphics/SVG/1.1/DTD/svg11.dtd" [
	<!ENTITY ns_svg "http://www.w3.org/2000/svg">
	<!ENTITY ns_xlink "http://www.w3.org/1999/xlink">
]>
<svg  version="1.1" id="Layer_1" xmlns="&ns_svg;" xmlns:xlink="&ns_xlink;" width="100" height="120" viewBox="0 0 100 120"
	 overflow="visible" enable-background="new 0 0 100 120" xml:space="preserve">
<g>
	<g>
		<g>
			<linearGradient id="XMLID_6_" gradientUnits="userSpaceOnUse" x1="33.939" y1="36.9912" x2="33.939" y2="107.4937">
				<stop  offset="0" style="stop-color:#FF5F06"/>
				<stop  offset="0.1061" style="stop-color:#F95507"/>
				<stop  offset="1" style="stop-color:#CB0212"/>
			</linearGradient>
			<path fill="url(#XMLID_6_)" d="M17.166,41.788c0,0,0,36.559,0,36.56l-0.018,0.696c0,18.101,14.726,32.956,32.825,33.115
				l0.757,0.007V86.969L50,86.95c-5.564-0.145-9.923-4.619-9.923-10.186l0.006-0.236v-34.74H17.166z"/>
			<path fill="#BE0000" d="M40.832,41.039h-1.5H17.915h-1.5v1.5v35.777c-0.001,0.082-0.004,0.164-0.007,0.245
				c-0.005,0.153-0.011,0.313-0.011,0.483c0,8.993,3.488,17.463,9.822,23.847c6.329,6.381,14.763,9.939,23.747,10.019l1.513,0.013
				v-1.513V87.701V86.24l-1.461-0.038c-2.469-0.065-4.78-1.075-6.508-2.846c-1.731-1.772-2.684-4.113-2.684-6.592
				c0-0.025,0.001-0.052,0.002-0.077c0.002-0.046,0.003-0.093,0.004-0.14v-0.01v-0.009v-33.99V41.039L40.832,41.039z M17.915,42.539
				h21.417v33.99l0,0l0,0c-0.001,0.079-0.006,0.155-0.006,0.235c0,5.946,4.744,10.782,10.653,10.937v23.709l0,0l0,0
				c-17.745-0.156-32.082-14.586-32.082-32.365l0,0l0,0c0-0.235,0.013-0.463,0.018-0.696V42.539L17.915,42.539L17.915,42.539z"/>
		</g>
		<g>
			<linearGradient id="XMLID_7_" gradientUnits="userSpaceOnUse" x1="66.4165" y1="21.5396" x2="66.4165" y2="111.9223">
				<stop  offset="0" style="stop-color:#7DBAFF"/>
				<stop  offset="1" style="stop-color:#2210D1"/>
			</linearGradient>
			<path fill="url(#XMLID_7_)" d="M60.457,41.788v34.736c0.003,0.104,0.006,0.24,0.006,0.24c0,5.621-4.572,10.193-10.192,10.193
				h-0.75l-0.078,0.748v24.459l0.828,0.002c18.263,0,33.121-14.859,33.121-33.123l-0.018-0.729V41.788H60.457z"/>
			<path fill="#353D84" d="M84.123,41.039h-1.5H61.206h-1.5v1.5v33.985v0.02v0.018l0.003,0.094c0.001,0.036,0.003,0.072,0.003,0.109
				c0,5.199-4.223,9.432-9.419,9.444c-0.037-0.001-0.068-0.002-0.102-0.002h-1.5v1.5v23.709c0-0.125,0.016-0.179,0.044-0.179
				c0.162,0,0.753,1.679,1.456,1.679h-0.025c0.039,0.001,0.071,0.002,0.103,0.002c4.572,0,9.008-0.896,13.185-2.663
				c4.033-1.706,7.656-4.148,10.766-7.259c3.11-3.11,5.552-6.733,7.258-10.768c1.767-4.176,2.663-8.611,2.663-13.184
				c0-0.185-0.006-0.359-0.012-0.527c-0.002-0.073-0.005-0.147-0.006-0.222l0,0V42.539V41.039L84.123,41.039z M61.206,42.539h21.417
				v35.795c0.006,0.236,0.018,0.472,0.018,0.711l0,0l0,0c0,17.877-14.494,32.373-32.372,32.373c-0.026,0-0.051-0.002-0.078-0.002
				V87.707l0,0l0,0c0.027,0,0.052,0.002,0.078,0.002c6.043,0,10.943-4.901,10.943-10.944c0-0.08-0.004-0.16-0.006-0.24V42.539
				L61.206,42.539L61.206,42.539z"/>
		</g>
		<g>
			<linearGradient id="XMLID_8_" gradientUnits="userSpaceOnUse" x1="33.939" y1="110.0659" x2="33.939" y2="52.8149">
				<stop  offset="0" style="stop-color:#BE0000"/>
				<stop  offset="0.05" style="stop-color:#C30707"/>
				<stop  offset="0.34" style="stop-color:#DB2A2A"/>
				<stop  offset="0.4952" style="stop-color:#E43838"/>
			</linearGradient>
			<path fill="url(#XMLID_8_)" d="M49.98,87.7c-5.909-0.154-10.653-4.99-10.653-10.936c0-0.08,0.005-0.156,0.006-0.236v-33.99
				H17.916v35.811c-0.005,0.232-0.018,0.461-0.018,0.695c0,17.779,14.337,32.209,32.082,32.365V87.7z"/>
		</g>
		<g opacity="0.1">
			<path fill="#FFFFFF" d="M60.457,41.788v34.736c0.003,0.104,0.006,0.24,0.006,0.24c0,5.621-4.572,10.193-10.192,10.193h-0.75
				l-0.078,0.748v24.459l0.828,0.002c18.263,0,33.121-14.859,33.121-33.123l-0.018-0.729V41.788H60.457z"/>
			<g>
				<path fill="#774E26" d="M84.123,41.039h-1.5H61.206h-1.5v1.5v33.985v0.02v0.018l0.003,0.094
					c0.001,0.036,0.003,0.072,0.003,0.109c0,5.199-4.223,9.432-9.419,9.444c-0.037-0.001-0.068-0.002-0.102-0.002h-1.5v1.5v23.709
					c0-0.125,0.016-0.179,0.044-0.179c0.162,0,0.753,1.679,1.456,1.679h-0.025c0.039,0.001,0.071,0.002,0.103,0.002
					c4.572,0,9.008-0.896,13.185-2.663c4.033-1.706,7.656-4.148,10.766-7.259c3.11-3.11,5.552-6.733,7.258-10.768
					c1.767-4.176,2.663-8.611,2.663-13.184c0-0.185-0.006-0.359-0.012-0.527c-0.002-0.073-0.005-0.147-0.006-0.222l0,0V42.539
					V41.039L84.123,41.039z M61.206,42.539h21.417v35.795c0.006,0.236,0.018,0.472,0.018,0.711l0,0l0,0
					c0,17.877-14.494,32.373-32.372,32.373c-0.026,0-0.051-0.002-0.078-0.002V87.707l0,0l0,0c0.027,0,0.052,0.002,0.078,0.002
					c6.043,0,10.943-4.901,10.943-10.944c0-0.08-0.004-0.16-0.006-0.24V42.539L61.206,42.539L61.206,42.539z"/>
			</g>
		</g>
		<path opacity="0.2" fill="#FFFFFF" d="M82.624,78.333v1.406c0.005-0.232,0.018-0.463,0.018-0.695
			C82.641,78.805,82.629,78.569,82.624,78.333z M17.916,79.739v-1.391c-0.005,0.232-0.018,0.461-0.018,0.695
			C17.898,79.276,17.911,79.506,17.916,79.739z M82.624,42.538H61.207v2h21.417V42.538z M39.333,42.538H17.916v2h21.417V42.538z
			 M61.207,76.995c-0.124,5.938-4.971,10.713-10.937,10.713s-10.813-4.775-10.938-10.713v1.535
			c-0.001,0.078-0.006,0.154-0.006,0.234c0,6.043,4.899,10.943,10.943,10.943c6.043,0,10.942-4.9,10.942-10.943
			c0-0.08-0.004-0.16-0.006-0.24V76.995z"/>
		<g>
			<linearGradient id="XMLID_9_" gradientUnits="userSpaceOnUse" x1="39.7896" y1="45.2183" x2="16.0392" y2="45.2183">
				<stop  offset="0.0048" style="stop-color:#D1CFD1"/>
				<stop  offset="0.5" style="stop-color:#F8F8F8"/>
				<stop  offset="1" style="stop-color:#DBDCDC"/>
				<stop  offset="1" style="stop-color:#B4B4B5"/>
			</linearGradient>
			<path fill="url(#XMLID_9_)" d="M18.271,38.414c-1.379,0-2.501,1.192-2.501,2.659v8.289c0,1.467,1.122,2.659,2.501,2.659h20.458
				c1.379,0,2.501-1.192,2.501-2.659v-8.289c0-1.466-1.122-2.659-2.501-2.659H18.271z"/>
			<g>
				<path fill="#606060" d="M38.728,37.754H18.27c-1.742,0-3.16,1.489-3.16,3.319v8.289c0,1.829,1.418,3.318,3.16,3.318h20.458
					c1.743,0,3.161-1.489,3.161-3.318v-8.289C41.889,39.243,40.471,37.754,38.728,37.754L38.728,37.754z M16.429,41.074
					c0-1.105,0.825-2,1.841-2h20.458c1.017,0,1.842,0.895,1.842,2v8.289l0,0l0,0c0,1.103-0.825,2-1.842,2H18.27
					c-1.016,0-1.841-0.897-1.841-2V41.074L16.429,41.074L16.429,41.074z"/>
			</g>
		</g>
		<g opacity="0.5">
			<path fill="#FFFFFF" d="M38.729,39.073H18.271c-1.017,0-1.842,0.895-1.842,2v2c0-1.105,0.825-2,1.842-2h20.458
				c1.017,0,1.842,0.895,1.842,2v-2C40.571,39.968,39.746,39.073,38.729,39.073z"/>
		</g>
		<g>
			<linearGradient id="XMLID_10_" gradientUnits="userSpaceOnUse" x1="59.9429" y1="45.2173" x2="83.6703" y2="45.2173">
				<stop  offset="0.0048" style="stop-color:#D1CFD1"/>
				<stop  offset="0.5" style="stop-color:#F8F8F8"/>
				<stop  offset="1" style="stop-color:#DBDCDC"/>
				<stop  offset="1" style="stop-color:#B4B4B5"/>
			</linearGradient>
			<path fill="url(#XMLID_10_)" d="M61.801,38.422c-1.351,0-2.449,1.189-2.449,2.651v8.289c0,1.462,1.099,2.651,2.449,2.651h19.972
				c1.351,0,2.449-1.189,2.449-2.651v-8.289c0-1.462-1.099-2.651-2.449-2.651H61.801z"/>
			<g>
				<path fill="#606060" d="M81.772,37.771H61.801c-1.71,0-3.101,1.482-3.101,3.303v8.289c0,1.82,1.391,3.303,3.101,3.303h19.971
					c1.71,0,3.101-1.482,3.101-3.303v-8.289C84.873,39.252,83.482,37.771,81.772,37.771L81.772,37.771z M60.003,41.074
					c0-1.105,0.806-2,1.798-2h19.971c0.993,0,1.798,0.895,1.798,2v8.289l0,0l0,0c0,1.103-0.805,2-1.798,2H61.801
					c-0.992,0-1.798-0.897-1.798-2V41.074L60.003,41.074L60.003,41.074z"/>
			</g>
		</g>
		<g opacity="0.5">
			<path fill="#FFFFFF" d="M81.773,39.073H61.801c-0.992,0-1.798,0.895-1.798,2v2c0-1.105,0.806-2,1.798-2h19.972
				c0.992,0,1.798,0.895,1.798,2v-2C83.571,39.968,82.765,39.073,81.773,39.073z"/>
		</g>
	</g>
	<polyline fill="none" stroke="#8B8B8B" stroke-width="1.5" points="28.369,31.906 33.307,26.574 36.687,30.606 40.066,17.61 
		43.053,28.724 47.864,8.583 51.762,41.264 56.441,23.423 60.579,33.243 64.505,27.754 68.653,30.54 	"/>
</g>
</svg>
