<svg viewBox="0 0 32 32" xmlns="http://www.w3.org/2000/svg"><g transform="translate(0 -2)"><g fill-rule="evenodd" stroke-linecap="round"><path d="m28.486328 16.007812a.4931056.4931056 0 0 0 -.207031.05078l-24.0000001 12a.4931056.4931056 0 0 0 .2207031.933596h24a.4931056.4931056 0 0 0 .492188-.492188v-12a.4931056.4931056 0 0 0 -.50586-.492188z" fill="#3a3a38"/><path d="m28 17.308594-21.3828125 10.691406h21.3828125z" fill="#fafafa"/></g><g transform="matrix(-1 0 0 1 32.000697 2.003788)"><path d="m23.485758 10.5h-8" fill="none" stroke="#1e8bcd" stroke-linecap="round"/><path d="m19.500697 14.497475-4.000697-3.997475 4.000697-4.002525" fill="none" stroke="#1e8bcd" stroke-linecap="round" stroke-linejoin="round"/><g fill="#1e8bcd"><rect height="4.497475" rx=".5" ry=".497475" width="1.000697" x="27" y="14.5"/><path d="m23 10v1a4 4 0 0 1 4 4h1a5 5 0 0 0 -5-5z"/></g></g></g></svg>