<svg viewBox="0 0 32 32" xmlns="http://www.w3.org/2000/svg"><path d="m14.4375 6.9960938c-6.2626641-.0000002-11.4414063 4.2265762-11.4414062 10.5039062a.50200332.50200332 0 0 0 .5019531.501953h7.0019531a.50200332.50200332 0 0 0 .501953-.501953c0-1.124094.526896-1.96264 1.304688-2.564453.777791-.601813 1.81269-.928966 2.695312-.933594.918367-.0048 1.948206.221801 2.707031.759766.645944.457938 1.053188 1.195641 1.181641 2.236328h-2.232422a.50200332.50200332 0 0 0 -.392578.814453l5.591797 7.001953a.50200332.50200332 0 0 0 .767578.021485l6.251953-7.001954a.50200332.50200332 0 0 0 -.375-.835937h-2.1875c-.147597-2.924627-1.493776-5.405344-3.574219-7.1367189-2.202416-1.8328841-5.171402-2.8652345-8.302734-2.8652343zm0 1c2.91059-.0000001 5.658388.9672389 7.662109 2.6347652 2.003722 1.667527 3.271485 4.016239 3.271485 6.869141a.49885698.49885698 0 0 0 .498047.498047h1.519531l-5.117188 5.730469-4.576172-5.730469h1.804688a.49885698.49885698 0 0 0 .498047-.498047c0-1.660316-.718533-2.852512-1.708985-3.554688-.99045-.702173-2.209908-.949059-3.291015-.943359-1.116643.005855-2.331134.390807-3.302735 1.142578-.854092.660851-1.485375 1.648028-1.632812 2.857422h-6.015625c.2683916-5.442416 4.74581-9.0058594 10.390625-9.0058592z" fill="#3a3a38"/><path d="m14.4375 7.9960938c-5.644815-.0000001-10.1222334 3.5634432-10.390625 9.0058592h6.015625c.147437-1.209394.77872-2.196571 1.632812-2.857422.9716-.751771 2.186092-1.136723 3.302735-1.142578 1.081107-.0057 2.300565.241185 3.291015.943359.990451.702175 1.708985 1.894372 1.708985 3.554688a.49885698.49885698 0 0 1 -.498047.498047h-1.804688l4.576172 5.730469 5.117188-5.730469h-1.519531a.49885698.49885698 0 0 1 -.498047-.498047c0-2.852902-1.267763-5.201614-3.271485-6.869141-2.003721-1.6675267-4.751519-2.6347653-7.662109-2.6347652z" fill="#fafafa"/></svg>