<svg viewBox="0 0 32 32" xmlns="http://www.w3.org/2000/svg"><path d="m3.5 3a.50005.50005 0 0 0 -.4648438.6855469l4.9257813 12.3144531-4.9257813 12.314453a.50005.50005 0 0 0 .4648438.685547h20a.50005.50005 0 0 0 .464844-.314453l5-12.5a.50005.50005 0 0 0 0-.371094l-5-12.4999999a.50005.50005 0 0 0 -.464844-.3144531zm.7382812 1h18.9238278l4.798829 12-4.798829 12h-18.9238278l4.7265626-11.814453a.50005.50005 0 0 0 0-.371094z" fill="#3a3a38"/><path d="m4.2382812 4 4.7265626 11.814453a.50005.50005 0 0 1 0 .371094l-4.7265626 11.814453h18.9238278l4.798829-12-4.798829-12z" fill="#fafafa"/></svg>