<svg viewBox="0 0 32 32" xmlns="http://www.w3.org/2000/svg"><path d="m29.000224 12.500224a.50005.50005 0 0 0 -.5-.5h-17.5v-2.5a.50005.50005 0 0 0 -.839844-.3671875l-7.0000001 6.4999995a.50005.50005 0 0 0 0 .734376l7.0000001 6.5a.50005.50005 0 0 0 .839844-.367188v-2.5h17.5a.50005.50005 0 0 0 .5-.5zm-1 .5v6h-17.5a.50005.50005 0 0 0 -.5.5v1.853516l-5.7656251-5.353516 5.7656251-5.353516v1.853516a.50005.50005 0 0 0 .5.5z" fill="#3a3a38"/><path d="m28.000224 13.000224h-17.5a.50005.50005 0 0 1 -.5-.5v-1.853516l-5.7656251 5.353516 5.7656251 5.353516v-1.853516a.50005.50005 0 0 1 .5-.5h17.5z" fill="#fafafa"/></svg>