<svg viewBox="0 0 32 32" xmlns="http://www.w3.org/2000/svg"><path d="m21.503906 3a.49960548.49960548 0 0 0 -.503906.5v2.5h-.652344c-3.158706 0-5.776488 1.3303459-7.570312 3.4433594-1.793824 2.1130136-2.777344 4.9939316-2.777344 8.1191406 0 1.111157-.5839216 1.921948-1.5175781 2.517578-.9336566.59563-2.2122726.919922-3.4199219.919922h-1.5625a.49960548.49960548 0 0 0 -.5.5v7a.49960548.49960548 0 0 0 .5.5h1.5625c6.310522 0 10.9375-5.154562 10.9375-11.4375 0-1.133626.559067-2.291312 1.400391-3.154297.841324-.862984 1.948552-1.408203 2.947265-1.408203h.652344v2.5a.49960548.49960548 0 0 0 .824219.378906l7-5.9999998a.49960548.49960548 0 0 0 0-.7578124l-7-6a.49960548.49960548 0 0 0 -.320313-.1210938zm.496094 1.5878906 5.732422 4.9121094-5.732422 4.912109v-1.912109a.50005.50005 0 0 0 -.5-.5h-1.152344c-1.349699 0-2.666601.689799-3.662109 1.710938-.995509 1.021138-1.685547 2.396256-1.685547 3.851562 0 5.797879-4.167196 10.4375-9.9375 10.4375h-1.0625v-6h1.0625c1.3812318 0 2.821001-.350191 3.9589844-1.076172 1.1379836-.725981 1.9785156-1.883534 1.9785156-3.361328 0-2.915214.919269-5.56464 2.539062-7.472656 1.619794-1.9080167 3.926892-3.089844 6.808594-3.089844h1.152344a.50005.50005 0 0 0 .5-.5z" fill="#3a3a38"/><path d="m22 4.5878906v1.9121094a.50005.50005 0 0 1 -.5.5h-1.152344c-2.881702 0-5.1888 1.1818276-6.808594 3.089844-1.619793 1.908016-2.539062 4.557442-2.539062 7.472656 0 1.477794-.840532 2.635347-1.9785156 3.361328-1.1379834.725981-2.5777526 1.076172-3.9589844 1.076172h-1.0625v6h1.0625c5.770304 0 9.9375-4.639621 9.9375-10.4375 0-1.455306.690038-2.830424 1.685547-3.851562.995508-1.021139 2.31241-1.710938 3.662109-1.710938h1.152344a.50005.50005 0 0 1 .5.5v1.912109l5.732422-4.912109z" fill="#fafafa"/></svg>