<svg viewBox="0 0 32 32" xmlns="http://www.w3.org/2000/svg"><path d="m9.4804688 3.0019531a.49823071.49823071 0 0 0 -.359375.1738281l-6 6.9999998a.49823071.49823071 0 0 0 .3789062.822266h2.5019531v10.003906h-2.5019531a.49823071.49823071 0 0 0 -.3789062.822266l6 7a.49823071.49823071 0 0 0 .7578124 0l5.9999998-7a.49823071.49823071 0 0 0 -.378906-.822266h-2.501953v-2.003906h8.003906v2.501953a.49823071.49823071 0 0 0 .806641.392578l7-5.5a.49823071.49823071 0 0 0 0-.785156l-7-5.5a.49823071.49823071 0 0 0 -.806641.392578v2.501953h-8.003906v-2.003906h2.501953a.49823071.49823071 0 0 0 .378906-.822266l-5.9999998-6.9999998a.49823071.49823071 0 0 0 -.3984374-.1738281zm.0195312 1.2597657 4.921875 5.7421872h-1.921875a.49614804.49614804 0 0 0 -.496094.496094v3a.49614804.49614804 0 0 0 .496094.496094h9a.49614804.49614804 0 0 0 .496094-.496094v-1.978516l5.699218 4.478516-5.699218 4.478516v-1.978516a.49614804.49614804 0 0 0 -.496094-.496094h-9a.49614804.49614804 0 0 0 -.496094.496094v3a.49614804.49614804 0 0 0 .496094.496094h1.921875l-4.921875 5.742187-4.921875-5.742187h1.921875a.49614804.49614804 0 0 0 .4960938-.496094v-11a.49614804.49614804 0 0 0 -.4960938-.496094h-1.921875z" fill="#3a3a38"/><path d="m9.5 4.2617188-4.921875 5.7421872h1.921875a.49614804.49614804 0 0 1 .4960938.496094v11a.49614804.49614804 0 0 1 -.4960938.496094h-1.921875l4.921875 5.742187 4.921875-5.742187h-1.921875a.49614804.49614804 0 0 1 -.496094-.496094v-3a.49614804.49614804 0 0 1 .496094-.496094h9a.49614804.49614804 0 0 1 .496094.496094v1.978516l5.699218-4.478516-5.699218-4.478516v1.978516a.49614804.49614804 0 0 1 -.496094.496094h-9a.49614804.49614804 0 0 1 -.496094-.496094v-3a.49614804.49614804 0 0 1 .496094-.496094h1.921875z" fill="#fafafa"/></svg>