<svg viewBox="0 0 32 32" xmlns="http://www.w3.org/2000/svg"><path d="m13.5 3a.50005.50005 0 0 0 -.5.5v8.5h-2v-2.5a.50005.50005 0 0 0 -.839844-.3671875l-6.9999998 6.4999995a.50005.50005 0 0 0 0 .734376l6.9999998 6.5a.50005.50005 0 0 0 .839844-.367188v-2.5h2v8.5a.50005.50005 0 0 0 .5.5h5a.50005.50005 0 0 0 .5-.5v-8.5h2v2.5a.50005.50005 0 0 0 .839844.367188l7-6.5a.50005.50005 0 0 0 0-.734376l-7-6.4999995a.50005.50005 0 0 0 -.839844.3671875v2.5h-2v-8.5a.50005.50005 0 0 0 -.5-.5zm.5 1h4v8.5a.50005.50005 0 0 0 .5.5h3a.50005.50005 0 0 0 .5-.5v-1.853516l5.765625 5.353516-5.765625 5.353516v-1.853516a.50005.50005 0 0 0 -.5-.5h-3a.50005.50005 0 0 0 -.5.5v8.5h-4v-8.5a.50005.50005 0 0 0 -.5-.5h-3a.50005.50005 0 0 0 -.5.5v1.853516l-5.765625-5.353516 5.765625-5.353516v1.853516a.50005.50005 0 0 0 .5.5h3a.50005.50005 0 0 0 .5-.5z" fill="#3a3a38"/><path d="m14 4v8.5a.50005.50005 0 0 1 -.5.5h-3a.50005.50005 0 0 1 -.5-.5v-1.853516l-5.765625 5.353516 5.765625 5.353516v-1.853516a.50005.50005 0 0 1 .5-.5h3a.50005.50005 0 0 1 .5.5v8.5h4v-8.5a.50005.50005 0 0 1 .5-.5h3a.50005.50005 0 0 1 .5.5v1.853516l5.765625-5.353516-5.765625-5.353516v1.853516a.50005.50005 0 0 1 -.5.5h-3a.50005.50005 0 0 1 -.5-.5v-8.5z" fill="#fafafa"/></svg>