<svg viewBox="0 0 32 32" xmlns="http://www.w3.org/2000/svg"><path d="m3.5 3a.50005.50005 0 0 0 -.5.5v9a.50005.50005 0 0 0 .8652344.339844l1.8339844-1.96875 6.3007812 6.646484v10.982422a.50005.50005 0 0 0 .5.5h7a.50005.50005 0 0 0 .5-.5v-10.982422l6.300781-6.646484 1.833985 1.96875a.50005.50005 0 0 0 .865234-.339844v-9a.50005.50005 0 0 0 -.5-.5h-9a.50005.50005 0 0 0 -.339844.8652344l1.978516 1.8417968-5.138672 5.0898438-5.138672-5.0898438 1.978516-1.8417968a.50005.50005 0 0 0 -.339844-.8652344zm.5 1h7.230469l-1.4296878 1.3320312a.50005.50005 0 0 0 -.0117187.7207032l5.8593755 5.8027346a.50005.50005 0 0 0 .703124 0l5.859376-5.8027346a.50005.50005 0 0 0 -.011719-.7207032l-1.429688-1.3320312h7.230469v7.230469l-1.332031-1.4296878a.50005.50005 0 0 0 -.728516-.0039062l-6.802734 7.177734a.50005.50005 0 0 0 -.136719.34375v10.681641h-6v-10.681641a.50005.50005 0 0 0 -.136719-.34375l-6.8027341-7.177734a.50005.50005 0 0 0 -.7285157.0039062l-1.3320312 1.4296878z" fill="#3a3a38"/><path d="m4 4v7.230469l1.3320312-1.4296878a.50005.50005 0 0 1 .7285157-.00391l6.8027341 7.177734a.50005.50005 0 0 1 .136719.3437538v10.681641h6v-10.681641a.50005.50005 0 0 1 .136719-.34375l6.802734-7.177734a.50005.50005 0 0 1 .728516.00391l1.332031 1.429684v-7.230469h-7.230469l1.429688 1.3320312a.50005.50005 0 0 1 .01172.7207032l-5.859376 5.8027346a.50005.50005 0 0 1 -.703124 0l-5.8593765-5.8027346a.50005.50005 0 0 1 .0117187-.7207032l1.4296878-1.3320312z" fill="#fafafa"/></svg>