<svg viewBox="0 0 32 32" xmlns="http://www.w3.org/2000/svg"><path d="m3.5 29.000449a.50005.50005 0 0 1 -.5-.5v-12a.50005.50005 0 0 1 .5-.5h8.5v-5h-2.5a.50005.50005 0 0 1 -.3671875-.839844l6.4999995-7.0000001a.50005.50005 0 0 1 .734376 0l6.5 7.0000001a.50005.50005 0 0 1 -.367188.839844h-2.5v5h8.5a.50005.50005 0 0 1 .5.5v12a.50005.50005 0 0 1 -.5.5zm.5-1h24v-11h-8.5a.50005.50005 0 0 1 -.5-.5v-6a.50005.50005 0 0 1 .5-.5h1.853516l-5.353516-5.7656251-5.353516 5.7656251h1.853516a.50005.50005 0 0 1 .5.5v6a.50005.50005 0 0 1 -.5.5h-8.5z" fill="#3a3a38"/><path d="m4 28.000449v-11h8.5a.50005.50005 0 0 0 .5-.5v-6a.50005.50005 0 0 0 -.5-.5h-1.853516l5.353516-5.7656251 5.353516 5.7656251h-1.853516a.50005.50005 0 0 0 -.5.5v6a.50005.50005 0 0 0 .5.5h8.5v11z" fill="#fafafa"/></svg>