<svg viewBox="0 0 32 32" xmlns="http://www.w3.org/2000/svg"><path d="m29 13.5a.50005.50005 0 0 0 -.5-.5h-8.5v-2h2.5a.50005.50005 0 0 0 .367187-.839844l-6.499999-6.9999998a.50005.50005 0 0 0 -.734376 0l-6.5 6.9999998a.50005.50005 0 0 0 .367188.839844h2.5v2h-8.5a.50005.50005 0 0 0 -.5.5v5a.50005.50005 0 0 0 .5.5h8.5v2h-2.5a.50005.50005 0 0 0 -.367188.839844l6.5 7a.50005.50005 0 0 0 .734376 0l6.499999-7a.50005.50005 0 0 0 -.367187-.839844h-2.5v-2h8.5a.50005.50005 0 0 0 .5-.5zm-1 .5v4h-8.5a.50005.50005 0 0 0 -.5.5v3a.50005.50005 0 0 0 .5.5h1.853516l-5.353516 5.765625-5.353516-5.765625h1.853516a.50005.50005 0 0 0 .5-.5v-3a.50005.50005 0 0 0 -.5-.5h-8.5v-4h8.5a.50005.50005 0 0 0 .5-.5v-3a.50005.50005 0 0 0 -.5-.5h-1.853516l5.353516-5.765625 5.353516 5.765625h-1.853516a.50005.50005 0 0 0 -.5.5v3a.50005.50005 0 0 0 .5.5z" fill="#3a3a38"/><path d="m28 14h-8.5a.50005.50005 0 0 1 -.5-.5v-3a.50005.50005 0 0 1 .5-.5h1.853516l-5.353516-5.765625-5.353516 5.765625h1.853516a.50005.50005 0 0 1 .5.5v3a.50005.50005 0 0 1 -.5.5h-8.5v4h8.5a.50005.50005 0 0 1 .5.5v3a.50005.50005 0 0 1 -.5.5h-1.853516l5.353516 5.765625 5.353516-5.765625h-1.853516a.50005.50005 0 0 1 -.5-.5v-3a.50005.50005 0 0 1 .5-.5h8.5z" fill="#fafafa"/></svg>