<svg viewBox="0 0 32 32" xmlns="http://www.w3.org/2000/svg"><path d="m16.013672 3a.49870322.49870322 0 0 0 -.050781.0019531.49870322.49870322 0 0 0 -.330079.1601563l-4.605468 5a.49870322.49870322 0 0 0 .367187.8359375h1.607422v4.0039061h-4.0039061v-1.607422a.49870322.49870322 0 0 0 -.8359375-.367187l-5 4.605468a.49870322.49870322 0 0 0 0 .734376l5 4.605468a.49870322.49870322 0 0 0 .8359375-.367187v-1.607422h4.0039061v4.003906h-1.607422a.49870322.49870322 0 0 0 -.367187.835938l4.605468 5a.49870322.49870322 0 0 0 .734376 0l4.605468-5a.49870322.49870322 0 0 0 -.367187-.835938h-1.607422v-4.003906h4.003906v1.607422a.49870322.49870322 0 0 0 .835938.367187l5-4.605468a.49870322.49870322 0 0 0 0-.734376l-5-4.605468a.49870322.49870322 0 0 0 -.835938.367187v1.607422h-4.003906v-4.0039061h1.607422a.49870322.49870322 0 0 0 .367187-.8359375l-4.605468-5a.49870322.49870322 0 0 0 -.353516-.1621094zm-.013672 1.2402344 3.460938 3.7578125h-.960938a.50234751.50234751 0 0 0 -.501953.5019531v5a.50234751.50234751 0 0 0 .501953.501953h5a.50234751.50234751 0 0 0 .501953-.501953v-.960938l3.757813 3.460938-3.757813 3.460938v-.960938a.50234751.50234751 0 0 0 -.501953-.501953h-5a.50234751.50234751 0 0 0 -.501953.501953v5a.50234751.50234751 0 0 0 .501953.501953h.960938l-3.460938 3.757813-3.460938-3.757813h.960938a.50234751.50234751 0 0 0 .501953-.501953v-5a.50234751.50234751 0 0 0 -.501953-.501953h-5a.50234751.50234751 0 0 0 -.5019531.501953v.960938l-3.7578125-3.460938 3.7578125-3.460938v.960938a.50234751.50234751 0 0 0 .5019531.501953h5a.50234751.50234751 0 0 0 .501953-.501953v-5a.50234751.50234751 0 0 0 -.501953-.5019531h-.960938z" fill="#3a3a38"/><path d="m16 4.2402344-3.460938 3.7578125h.960938a.50234751.50234751 0 0 1 .501953.5019531v5a.50234751.50234751 0 0 1 -.501953.501953h-5a.50234751.50234751 0 0 1 -.5019531-.501953v-.960938l-3.7578125 3.460938 3.7578125 3.460938v-.960938a.50234751.50234751 0 0 1 .5019531-.501953h5a.50234751.50234751 0 0 1 .501953.501953v5a.50234751.50234751 0 0 1 -.501953.501953h-.960938l3.460938 3.757813 3.460938-3.757813h-.960938a.50234751.50234751 0 0 1 -.501953-.501953v-5a.50234751.50234751 0 0 1 .501953-.501953h5a.50234751.50234751 0 0 1 .501953.501953v.960938l3.757813-3.460938-3.757813-3.460938v.960938a.50234751.50234751 0 0 1 -.501953.501953h-5a.50234751.50234751 0 0 1 -.501953-.501953v-5a.50234751.50234751 0 0 1 .501953-.5019531h.960938z" fill="#fafafa"/></svg>