<svg viewBox="0 0 32 32" xmlns="http://www.w3.org/2000/svg"><path d="m16.011719 2.9980469a.500571.500571 0 0 0 -.048828.0019531.500571.500571 0 0 0 -.330079.1601562l-4.605468 5a.500571.500571 0 0 0 .367187.8398438h1.605469v2h-1.5a.500571.500571 0 0 0 -.5.5v1.5h-2v-1.605469a.500571.500571 0 0 0 -.8398438-.367187l-5 4.605468a.500571.500571 0 0 0 0 .734376l5 4.605468a.500571.500571 0 0 0 .8398438-.367187v-1.605469h2v1.5a.500571.500571 0 0 0 .5.5h1.5v2h-1.605469a.500571.500571 0 0 0 -.367187.839844l4.605468 5a.500571.500571 0 0 0 .734376 0l4.605468-5a.500571.500571 0 0 0 -.367187-.839844h-1.605469v-2h1.5a.500571.500571 0 0 0 .5-.5v-1.5h2v1.605469a.500571.500571 0 0 0 .839844.367187l5-4.605468a.500571.500571 0 0 0 0-.734376l-5-4.605468a.500571.500571 0 0 0 -.839844.367187v1.605469h-2v-1.5a.500571.500571 0 0 0 -.5-.5h-1.5v-2h1.605469a.500571.500571 0 0 0 .367187-.8398438l-4.605468-5a.500571.500571 0 0 0 -.355469-.1621093zm-.011719 1.2382812 3.466797 3.7636719h-.966797a.49939613.49939613 0 0 0 -.5.5v3a.49939613.49939613 0 0 0 .5.5h1.5v1.5a.49939613.49939613 0 0 0 .5.5h3a.49939613.49939613 0 0 0 .5-.5v-.966797l3.763672 3.466797-3.763672 3.466797v-.966797a.49939613.49939613 0 0 0 -.5-.5h-3a.49939613.49939613 0 0 0 -.5.5v1.5h-1.5a.49939613.49939613 0 0 0 -.5.5v3a.49939613.49939613 0 0 0 .5.5h.966797l-3.466797 3.763672-3.466797-3.763672h.966797a.49939613.49939613 0 0 0 .5-.5v-3a.49939613.49939613 0 0 0 -.5-.5h-1.5v-1.5a.49939613.49939613 0 0 0 -.5-.5h-3a.49939613.49939613 0 0 0 -.5.5v.966797l-3.7636719-3.466797 3.7636719-3.466797v.966797a.49939613.49939613 0 0 0 .5.5h3a.49939613.49939613 0 0 0 .5-.5v-1.5h1.5a.49939613.49939613 0 0 0 .5-.5v-3a.49939613.49939613 0 0 0 -.5-.5h-.966797z" fill="#3a3a38"/><path d="m16 4.2363281-3.466797 3.7636719h.966797a.49939613.49939613 0 0 1 .5.5v3a.49939613.49939613 0 0 1 -.5.5h-1.5v1.5a.49939613.49939613 0 0 1 -.5.5h-3a.49939613.49939613 0 0 1 -.5-.5v-.966797l-3.7636719 3.466797 3.7636719 3.466797v-.966797a.49939613.49939613 0 0 1 .5-.5h3a.49939613.49939613 0 0 1 .5.5v1.5h1.5a.49939613.49939613 0 0 1 .5.5v3a.49939613.49939613 0 0 1 -.5.5h-.966797l3.466797 3.763672 3.466797-3.763672h-.966797a.49939613.49939613 0 0 1 -.5-.5v-3a.49939613.49939613 0 0 1 .5-.5h1.5v-1.5a.49939613.49939613 0 0 1 .5-.5h3a.49939613.49939613 0 0 1 .5.5v.966797l3.763672-3.466797-3.763672-3.466797v.966797a.49939613.49939613 0 0 1 -.5.5h-3a.49939613.49939613 0 0 1 -.5-.5v-1.5h-1.5a.49939613.49939613 0 0 1 -.5-.5v-3a.49939613.49939613 0 0 1 .5-.5h.966797z" fill="#fafafa"/></svg>