<svg viewBox="0 0 32 32" xmlns="http://www.w3.org/2000/svg"><path d="m21.472656 9a.49976041.49976041 0 0 0 -.472656.5v2.5h-7.5a.49976041.49976041 0 0 0 -.5.5v7a.49976041.49976041 0 0 0 .5.5h7.5v2.5a.49976041.49976041 0 0 0 .839844.365234l7-6.5a.49976041.49976041 0 0 0 0-.730468l-7-6.5000004a.49976041.49976041 0 0 0 -.316406-.1347656.49976041.49976041 0 0 0 -.050782 0zm.527344 1.646484 5.765625 5.353516-5.765625 5.353516v-1.853516a.50005.50005 0 0 0 -.5-.5h-7.5v-6h7.5a.50005.50005 0 0 0 .5-.5zm-18.5 1.353516a.49976041.49976041 0 0 0 -.5.5v7a.49976041.49976041 0 0 0 .5.5h3a.49976041.49976041 0 0 0 .5-.5v-7a.49976041.49976041 0 0 0 -.5-.5zm5 0a.49976041.49976041 0 0 0 -.5.5v7a.49976041.49976041 0 0 0 .5.5h3a.49976041.49976041 0 0 0 .5-.5v-7a.49976041.49976041 0 0 0 -.5-.5zm-4.5 1h2v6h-2zm5 0h2v6h-2z" fill="#3a3a38"/><path d="m22 10.646484v1.853516a.50005.50005 0 0 1 -.5.5h-7.5v6h7.5a.50005.50005 0 0 1 .5.5v1.853516l5.765625-5.353516zm-18 2.353516v6h2v-6zm5 0v6h2v-6z" fill="#fafafa"/></svg>