<svg viewBox="0 0 32 32" xmlns="http://www.w3.org/2000/svg"><path d="m4 6c-.5539651 0-1 .4460349-1 1v13c0 .553965.4460349 1 1 1h10v-1h-10v-13h24v13h-1.302734l1.18164 1h.121094c.553965 0 1-.446035 1-1v-13c0-.5539651-.446035-1-1-1z" fill="#3a3a38"/><path d="m4 7v13h10v-7.486328c.000236-.794325.725212-1.516462 1.519531-1.513672a1.0021752 1.0021752 0 0 0 .001953 0c.351903.001717.700098.130123.96875.357422a1.0021752 1.0021752 0 0 0 .001954 0l10.205078 8.642578h1.302734v-13z" fill="#fafafa"/><path d="m6.9999393 8.0000001v10.9999989l-1 .000002v-11.0000009z" fill="#797774" stroke-width="2.582858"/><path d="m15.515625 12.001953a.51187412.51187412 0 0 0 -.513672.511719v17.857422a.51187412.51187412 0 0 0 .886719.347656l3.640625-3.9375 1.919922 4.082031-.019531-.046875c.197908.561415.669927.930051 1.171874 1.082032.501949.151978 1.045418.125671 1.546876-.03711.501456-.162781.97151-.469805 1.269531-.943359s.382499-1.114693.152343-1.767578a.51187412.51187412 0 0 0 -.015624-.039063l-2.273438-5.099609h5.205078a.51187412.51187412 0 0 0 .330078-.902344l-12.972656-10.986328a.51187412.51187412 0 0 0 -.328125-.121094zm.484375 1.560547 11.160156 9.451172h-4.667968a.48637676.48637676 0 0 0 -.44336.683594l2.580078 5.785156c.14559.413006.089084.675846-.054687.904297s-.413915.421364-.734375.52539c-.320461.10403-.68047.11262-.949219.03125-.268749-.081371-.434371-.217409-.519531-.458984a.48637676.48637676 0 0 0 -.019532-.044922l-2.242187-4.769531a.48637676.48637676 0 0 0 -.796875-.123047l-3.3125 3.582031z" fill="#3a3a38"/><path d="m16 13.562501v15.566405l3.3125-3.582031a.48637676.48637676 0 0 1 .796875.123047l2.242187 4.769531a.48637676.48637676 0 0 1 .01953.04492c.08516.241575.250782.377613.519531.458984.268749.08137.628758.07278.949219-.03125.32046-.104026.590604-.296939.734375-.52539s.20028-.491291.05469-.904297l-2.580078-5.785156a.48637676.48637676 0 0 1 .44336-.683594h4.667968z" fill="#fafafa"/></svg>