<svg viewBox="0 0 32 32" xmlns="http://www.w3.org/2000/svg"><path d="m4 4v20h6.279297c.354201-.496326.74856-1.033463 1.427734-1.611328.998658-.849692 2.154291-1.196978 3.121094-1.355469a1.0028014 1.0028014 0 0 1 .003906 0c.059232-.009484.121788-.00925.183594-.013672.021208-.05991.016087-.111164.041016-.171875a1.0028014 1.0028014 0 0 1 .15625-.259765c2.855031-3.443492 4.754743-6.143035 7.787109-8.695313v-7.892578zm19 19.205078c-.27323.251696-.578305.52308-.884766.794922h.884766z" fill="#fafafa"/><path d="m4 3c-.554 0-1 .446-1 1v20c0 .554.446 1 1 1h5.546875l.3203125-.431641c.00878-.01389.017894-.02757.027344-.04102.1208405-.15908.2583765-.350236.3847655-.527339h-1.279297-1-4v-3-1-3-1-3-1-8h19v7.892578c.312236-.262803.661451-.522897 1-.783203v-7.109375c0-.554-.446-1-1-1z" fill="#3a3a38"/><path d="m3 3h21v6h-21z" fill="#0063b1"/><path d="m8 9v3h-4v1h4v3h-4v1h4v3h-4v1h4v3h1v-3h4v.587891c.336568-.15378.671375-.283402 1-.373047v-.214844h1.019531c.014191-.051635.014989-.098472.03711-.152344a1.0028014 1.0028014 0 0 1 .15625-.259765c.173761-.209577.309412-.383684.476562-.587891h-1.689453v-3h4v.160156c.334723-.410214.667775-.813316 1-1.205078v-2.955078h2.769531c.355569-.336979.723368-.669538 1.111328-1h-3.880859v-3h-1v3h-4v-3h-1v3h-4v-3zm1 4h4v3h-4zm5 0h4v3h-4zm-5 4h4v3h-4z" fill="#797774"/><path d="m4 4h19v4h-19z" fill="#83beec" stroke-width=".784465"/><g transform="matrix(1.00000000461 0 0 1.00000000461 .00004139954 -.00000051658)"><path d="m27.691406 10c-.22542.0066-.443679.07359-.634765.193359-5.242111 3.276319-7.223725 6.39338-11.072266 11.035157-.119983.292206-.174733.54833-.193359.783203.252232-.0029.498727-.01441.804687.0039.0701.01176.140585.04131.210938.06055.01344-.100845.03673-.218763.09375-.382813 3.768565-4.564986 5.663157-7.513351 10.685547-10.652343a1.00266 1.00266 0 0 0 .0039 0c.03795-.02379.08455-.03767.132812-.03906.162985-.0047.271443.100553.271485.263672v2.537109c.000038.05341-.01563.10012-.04492.144532v.0039c-2.50979 3.723111-3.145242 5.058158-7.621094 8.958984-.04626.04044-.100682.06142-.162109.06445-.575475.02518-1.38626.0078-2.064454-.09766.101933.107344.203617.215251.291016.337891.000923.0016.0012.0043.002.0059.169415.240408.290068.49.378907.746094.528279.03372 1.039735.02947 1.441406.01172.285168-.01406.558485-.124579.773437-.3125 4.529708-3.947763 5.299157-5.456989 7.792969-9.15625.140545-.209299.215031-.456875.214844-.708985v-2.533232c-.000229-.714408-.590617-1.2880151-1.304731-1.267578z" fill="#3a3a38" stroke-width="1.264202"/><path d="m27.722656 11.001953c-.04827.0014-.09486.01527-.132812.03906a1.00266 1.00266 0 0 1 -.0039 0c-5.022389 3.138992-6.916982 6.087357-10.685547 10.652343-.05702.16405-.08031.281874-.09375.382813.463346.126683.919458.405383 1.294921.800781.678526.106032 1.488523.122853 2.064454.09766.06143-.003.115848-.02401.162109-.06445 4.475852-3.900826 5.111304-5.235873 7.621094-8.958984v-.0039c.02929-.04441.04496-.09113.04492-.144532v-2.537109c-.000042-.163119-.1085-.268337-.271485-.263672z" fill="#fafafa" stroke-width="1.264202"/><g><path d="m15.15625 22.009766c-.05604.000193-.11062.0048-.166016.01367-.861141.14117-1.823873.440633-2.632812 1.128906-.799494.680238-1.156748 1.31455-1.664063 1.982422-.0022.0037-.0037.006-.0059.0098l-1.4453125 1.947266c-.574829.775025-.048639 1.902781.8886715 1.904297h3.339844c.01741-.000357.0334-.000581.05078-.002 1.992813-.09787 3.805246-.876425 4.972657-2.089844.07973-.0831.14637-.17727.199218-.28125.313645-.615499.331828-1.216374.269532-1.785156-.0623-.568779-.212142-1.111696-.56836-1.617188-.000739-.0015-.0011-.0043-.002-.0059-.458211-.642967-1.139791-1.088959-1.796875-1.199219-.547311-.03276-.91274-.01587-1.439453-.0059zm-.0098 1c-.01077.0018-.0054.000065.01367 0 .0059.000052.01168.000052.01758 0 .502137-.0095.822534-.01705 1.271485.0059.335539.06267.818347.346258 1.126953.779297l-.04883-.07617c-.0049-.0082.0018-.0011-.002-.0078.01554.02881.03249.05683.05078.08398.239126.339334.345824.687901.396484 1.15039.05145.469747.0302.826096-.171875 1.222657v.002c-.0077.01513-.01729.02627-.0293.03906-.03195.03322-.07019.06314-.103515.0957l-5.472657-1.527344c.22598-.295617.468219-.573676.808594-.863282.619918-.527446 1.389292-.780455 2.142578-.904296z" fill="#0063b1"/><path d="m11.53125 25.683594c-.0054.0071-.0083.01234-.01367.01953a.99948558.99948558 0 0 1 -.02734.04102l-1.447265 1.941406c-.1247191.168155-.046862.308372.08984.308594h3.337891a.99948558.99948558 0 0 1 .002 0c1.180206-.05797 2.27261-.395107 3.15625-.908203z" fill="#83beec"/><path d="m15.146484 23.009766c-.753286.123841-1.52266.37685-2.142578.904296-.340375.289605-.582615.567665-.808594.863282l5.472657 1.527344c.03333-.03256.07156-.06248.103515-.0957.01201-.01279.0216-.02393.0293-.03906v-.002c.202079-.396561.223324-.752911.171875-1.222657-.05066-.462489-.157358-.811056-.396484-1.15039-.308606-.433039-.791414-.716625-1.126953-.779297-.448951-.02291-.769348-.01545-1.271485-.0059-.0059.000052-.01172.000052-.01758 0-.01909.000065-.02444.0018-.01367 0zm2.429688.785156c-.01829-.02715-.03524-.05517-.05078-.08398.0038.0067-.0029-.000419.002.0078z" fill="#fafafa"/></g></g></svg>