<svg viewBox="0 0 32 32" xmlns="http://www.w3.org/2000/svg"><path d="m10.949219 3c-.5263 0-.949219.4229188-.949219.9492188v11.0511722h9.050781c.5263 0 .949219.422919.949219.949219v4.05039h8.050781c.5263 0 .949219-.422919.949219-.949219v-15.1015622c0-.5263-.422919-.9492188-.949219-.9492188z" fill="#ed8733"/><path d="m4 16c-.554 0-1 .446-1 1v11c0 .554.446 1 1 1h14c.554 0 1-.446 1-1v-11c0-.554-.446-1-1-1zm0 1h14v11h-14z" fill="#3a3a38"/><path d="m4 17h14v11h-14z" fill="#fafafa"/><path d="m11 4v11h8.050781c.5263 0 .949219.422919.949219.949219v3.050781h8v-15z" fill="#f8db8f"/></svg>