<svg viewBox="0 0 32 32" xmlns="http://www.w3.org/2000/svg"><path d="m15.984375 3a.50005.50005 0 0 0 -.294922.1074219l-12.4999999 9.8691401a.50005.50005 0 0 0 -.1621093.556641l5.2636718 15.130859a.50005.50005 0 0 0 .4726563.335938h14.4726561a.50005.50005 0 0 0 .472656-.335938l5.263672-15.130859a.50005.50005 0 0 0 -.162109-.556641l-12.5-9.8691401a.50005.50005 0 0 0 -.326172-.1074219zm.015625 1.1367188 11.917969 9.4101562-5.035157 14.453125h-13.7597651l-5.0332031-14.460938z" fill="#3a3a38"/><path d="m16 4.1372672-11.9099406 9.4017958 5.0325984 14.460937h13.7605072l5.034804-14.453125z" fill="#fafafa"/></svg>