<svg viewBox="0 0 32 32" xmlns="http://www.w3.org/2000/svg"><path d="m4.0292969 14.001953a.99459878.99459878 0 0 0 -1.0234375.994141v5.003906h-.0039063v2.5c0 .263814.0336339.521363.0898438.773438.0549142.246264.1359016.486762.2402343.720703.0258506.05857.0632042.112374.0917969.169921.0816407.162465.1637124.324719.2675781.480469.101878.154758.2218196.298674.3417969.44336.0461495.055319.0839275.113666.1328125.167968.0168724.018787.0297208.040005.046875.058594.1504871.163071.3186785.315431.4902344.466797.0182453.016111.0322907.034781.0507812.050781.1995785.1725.4150365.33633.640625.494141.0197591.013911.036689.029162.0566407.042969.1951804.134153.4042137.260845.6171875.384765.0613273.036023.117011.076188.1796875.111328.0485232.026952.1029875.049707.1523437.076172.227204.12289.4565984.244268.6992188.355469.4921497.225569 1.0266162.424727 1.5820312.607422.1102219.03652.2155926.076506.328125.111328.1183295.036352.2426804.067143.3632813.101563.2386216.068576.476749.136293.7246091.197265.053075.012996.108686.022518.16211.035156.305116.072472.613892.142445.93164.203125.107743.020609.219324.035474.328125.054688.271974.047846.544184.097663.824219.136719.210783.029749.42512.049613.638672.074218.16375.018527.32416.041127.490234.056641.831396.079612 1.678414.123047 2.527344.123047s1.695948-.043435 2.527344-.123047c.166074-.015514.326484-.038114.490234-.056641.213552-.024605.427889-.044469.638672-.074218.280035-.039056.552245-.088873.824219-.136719.108801-.019214.220382-.034079.328125-.054688.317748-.06068.626524-.130653.93164-.203125.053235-.012644.109279-.02216.16211-.035156.24786-.060972.485988-.128689.724609-.197265.120601-.03442.244952-.065211.363281-.101563.112533-.034822.217904-.074808.328125-.111328.555415-.182695 1.089882-.381853 1.582032-.607422.24262-.111201.472014-.232579.699218-.355469.049335-.026684.103795-.048952.152344-.076172.063115-.035056.118006-.075438.179688-.111328.212973-.12392.422007-.250612.617187-.384765.019929-.013698.036904-.029162.056641-.042969.225588-.157811.441046-.321641.640625-.494141.018425-.015925.032586-.034727.050781-.050781.171556-.151366.339747-.303726.490234-.466797.017155-.018589.030003-.039807.046875-.058594.048885-.054302.086663-.112649.132813-.167968.119977-.144686.239919-.288602.341797-.44336.103865-.15575.185937-.318004.267578-.480469.028593-.057548.065946-.111351.091797-.169921.104333-.233941.18532-.47444.240234-.720703.05621-.252075.089844-.509624.089844-.773438v-2.5h-.003906v-5.003906a.99459878.99459878 0 0 0 -1.023438-.994141.99459878.99459878 0 0 0 -.548828.185547c.089003-.063574.078325-.058996-.027344.015625a.99459878.99459878 0 0 0 -.1875.173828c-1.67134 1.990987-6.176482 3.625387-11.207031 3.628906-5.030549-.003519-9.5356912-1.637919-11.2070312-3.628906a.99459878.99459878 0 0 0 -.1875-.173828c-.105669-.074621-.1163468-.079199-.0273438-.015625a.99459878.99459878 0 0 0 -.5488281-.185547zm-.0292969.984375c.0087289.007457.0185877.014053.0273438.021484a13 6.5 0 0 0 11.9726562 3.992188 13 6.5 0 0 0 11.96875-3.984375c.009874-.00697.021402-.012542.03125-.019531v7.503906c0 3.037566-5.372583 5.5-12 5.5s-12-2.462434-12-5.5z" fill="#3a3a38"/><path d="m16 3a13 6.5 0 0 0 -13 6.5 13 6.5 0 0 0 13 6.5 13 6.5 0 0 0 13-6.5 13 6.5 0 0 0 -13-6.5zm0 1a12 5.5 0 0 1 12 5.5 12 5.5 0 0 1 -12 5.5 12 5.5 0 0 1 -12-5.5 12 5.5 0 0 1 12-5.5z" fill="#3a3a38"/><g fill="#fafafa"><path d="m28 9.5a12 5.5 0 0 1 -12 5.5 12 5.5 0 0 1 -12-5.5 12 5.5 0 0 1 12-5.5 12 5.5 0 0 1 12 5.5z"/><path d="m4 14.986328v7.513672c0 3.037566 5.372583 5.5 12 5.5s12-2.462434 12-5.5v-7.503906c-.009848.006989-.021376.012561-.03125.019531a13 6.5 0 0 1 -11.96875 3.984375 13 6.5 0 0 1 -11.9726562-3.992188c-.0087561-.007432-.0186149-.014027-.0273438-.021484z"/></g></svg>