<svg viewBox="0 0 32 32" xmlns="http://www.w3.org/2000/svg"><path d="m15.992188 3a.50005.50005 0 0 0 -.345704.1464844l-12.4999996 12.4999996a.50005.50005 0 0 0 0 .707032l12.4999996 12.5a.50005.50005 0 0 0 .707032 0l12.5-12.5a.50005.50005 0 0 0 0-.707032l-12.5-12.4999996a.50005.50005 0 0 0 -.361328-.1464844zm.007812 1.2050781 11.792969 11.7949219-11.792969 11.794922-11.7929688-11.794922z" fill="#3a3a38"/><path d="m16 4.2050781-11.7929688 11.7949219 11.7929688 11.794922 11.792969-11.794922z" fill="#fafafa"/></svg>