<svg viewBox="0 0 32 32" xmlns="http://www.w3.org/2000/svg"><path d="m16 3c-7.1797017 0-13 5.8202983-13 13 0 7.179702 5.8202983 13 13 13 7.179702 0 13-5.820298 13-13 0-7.1797017-5.820298-13-13-13zm0 1a12 12 0 0 1 12 12 12 12 0 0 1 -12 12 12 12 0 0 1 -12-12 12 12 0 0 1 12-12zm0 6a6 6 0 0 0 -6 6 6 6 0 0 0 6 6 6 6 0 0 0 6-6 6 6 0 0 0 -6-6zm0 1a5 5 0 0 1 5 5 5 5 0 0 1 -5 5 5 5 0 0 1 -5-5 5 5 0 0 1 5-5z" fill="#3a3a38"/><path d="m16 4c6.627417 0 12 5.372583 12 12s-5.372583 12-12 12-12-5.372583-12-12 5.372583-12 12-12zm0 6c-3.313708 0-6 2.686292-6 6s2.686292 6 6 6 6-2.686292 6-6-2.686292-6-6-6z" fill="#fafafa"/></svg>