<svg viewBox="0 0 32 32" xmlns="http://www.w3.org/2000/svg"><path d="m5.6953125 3c-1.4929831 0-2.6953125 1.2557386-2.6953125 2.8144531v20.3710939c0 1.558714 1.2023294 2.814453 2.6953125 2.814453h20.6093755c1.492983 0 2.695312-1.255739 2.695312-2.814453v-20.3710939c0-1.5587145-1.202329-2.8144531-2.695312-2.8144531zm.3046875 1h20c1.108 0 2 .8467765 2 1.8984375v20.2031245c0 1.051662-.892 1.898438-2 1.898438h-20c-1.108 0-2-.846776-2-1.898438v-20.2031245c0-1.051661.892-1.8984375 2-1.8984375z" fill="#3a3a38"/><path d="m6 4h20c1.108 0 2 .8466441 2 1.8983051v20.2033899c0 1.051661-.892 1.898305-2 1.898305h-20c-1.108 0-2-.846644-2-1.898305v-20.2033899c0-1.051661.892-1.8983051 2-1.8983051z" fill="#fafafa"/></svg>