<svg viewBox="0 0 32 32" xmlns="http://www.w3.org/2000/svg"><path d="m16 9c-3.221699.00138-6.4281882 1.251985-8.7988281 3.433594-2.3706399 2.181608-3.8819157 5.271928-4.1503907 8.482422-.0490873.583176.4108556 1.083702.9960938 1.083984h5.953125c.552285 0 .986837-.299957 1.097656-1h.003906a5 5 0 0 1 4.898438-4 5 5 0 0 1 4.894531 4h.007813c.110819.700043.545371 1 1.097656 1h5.949219c.585238-.000283 1.045182-.500808.996093-1.083984-.268415-3.209792-1.780624-6.298952-4.15039-8.480469s-5.573928-3.43312-8.794922-3.435547zm0 1a12 12 0 0 1 11.949219 11h-6.035157a6 6 0 0 0 -5.914062-5 6 6 0 0 0 -5.910156 5h-6.042969a12 12 0 0 1 11.953125-11z" fill="#3a3a38"/><path d="m16 10a12 12 0 0 0 -11.953125 11h6.042969a6 6 0 0 1 5.910156-5 6 6 0 0 1 5.914062 5h6.035157a12 12 0 0 0 -11.949219-11z" fill="#fafafa"/></svg>