<svg height="32" viewBox="0 0 8.4666665 8.466667" width="32" xmlns="http://www.w3.org/2000/svg"><g transform="translate(0 -288.53332)"><g fill="#3a3a38" stroke-width=".264583"><path d="m.79375 289.85624h1.5875v.26458h-1.5875z"/><path d="m6.0854167 289.85624h1.5875v.26458h-1.5875z"/><rect height=".264583" ry=".132292" width="6.879167" x=".79375" y="295.94162"/></g><g transform="matrix(.26458333 0 0 .26458333 -1.322917 282.71249)"><path d="m14 25c-.554 0-1 .446-1 1v3c0 .554.446 1 1 1h3c.554 0 1-.446 1-1v-3c0-.554-.446-1-1-1zm0 1h3v3h-3z" fill="#0063b1"/><path d="m14 26h3v3h-3z" fill="#fafafa" stroke-width=".75"/></g><path d="m3.7041667 295.67707h.79375v.79375h-.79375z" fill="#3a3a38" stroke-width=".264583"/><g transform="matrix(.26458333 0 0 .26458333 1.322917 282.71249)"><path d="m14 25c-.554 0-1 .446-1 1v3c0 .554.446 1 1 1h3c.554 0 1-.446 1-1v-3c0-.554-.446-1-1-1zm0 1h3v3h-3z" fill="#0063b1"/><path d="m14 26h3v3h-3z" fill="#fafafa" stroke-width=".75"/></g><g fill="none" stroke="#1e8bcd" transform="matrix(.26458333 0 0 .26458333 -.130955 288.5352)"><path d="m15.99495 10.992879v12"/><path d="m20.99495 17.978637-5 5-5-5" stroke-linejoin="round"/></g></g></svg>