<svg viewBox="0 0 32 32" xmlns="http://www.w3.org/2000/svg"><path d="m8 4h17v24h-17z" fill="#fafafa"/><path d="m7.5 3c-.277 0-.5.223-.5.5v1.5h-.5c-.277 0-.5.223-.5.5v3c0 .277.223.5.5.5h.5v14h-.5c-.277 0-.5.223-.5.5v3c0 .277.223.5.5.5h.5v1.5c0 .277.223.5.5.5h18c.277 0 .5-.223.5-.5v-25c0-.277-.223-.5-.5-.5zm.5 1h17v24h-17v-1.5-3-15-3z" fill="#3a3a38"/><path d="m10 17h13v2h-13z" fill="#fb983b"/><path d="m11 21h11v1h-11z" fill="#fb983b"/><path d="m11 4h4v8l-2-2-2 2z" fill="#1e8bcd" fill-rule="evenodd"/></svg>