<svg viewBox="0 0 32 32" xmlns="http://www.w3.org/2000/svg"><path d="m2.9980469 5.9980469v.0019531 19.996094.001953h12.5898441a8 8 0 0 1 -.587891-2.998047 8 8 0 0 1 8-8 8 8 0 0 1 5.998047 2.720703v-11.720703-.0019531z" fill="#fafafa"/><path d="m2.9980469 5c-.554 0-1 .446-1 1v20c0 .554.446 1 1 1h13.0859371a8 8 0 0 1 -.496093-1h-12.5898441v-.001953-.001953-19.996094-.0019531h26.0000001v.0019531 11.720703a8 8 0 0 1 1 1.421875v-13.142578c0-.554-.456533-.892483-1-1z" fill="#3a3a38"/><path d="m29 23a6 6 0 0 1 -6 6 6 6 0 0 1 -6-6 6 6 0 0 1 6-6 6 6 0 0 1 6 6z" fill="#fafafa"/><g fill="#1e8bcd"><path d="m23 16a7.0000001 7.0000001 0 0 0 -7 7 7.0000001 7.0000001 0 0 0 7 7 7.0000001 7.0000001 0 0 0 7-7 7.0000001 7.0000001 0 0 0 -7-7zm0 1a6 6 0 0 1 6 6 6 6 0 0 1 -6 6 6 6 0 0 1 -6-6 6 6 0 0 1 6-6z" stroke-width="1.272727"/><path d="m17.679688 18.453125a7.0000001 7.0000001 0 0 0 -.59375.818359 11 11 0 0 0 5.914062 1.728516 11 11 0 0 0 5.914062-1.740234 7.0000001 7.0000001 0 0 0 -.595703-.796875 10 10 0 0 1 -5.318359 1.537109 10 10 0 0 1 -5.320312-1.546875z"/><path d="m16.970085 22.000001h12.529915v.999999h-12.529915z" stroke-width="1.272727"/><path d="m17.66409 27.546976a7.0000001 7.0000001 0 0 1 -.59375-.81836 11 11 0 0 1 5.914063-1.728515 11 11 0 0 1 5.914062 1.740233 7.0000001 7.0000001 0 0 1 -.595703.796875 10 10 0 0 0 -5.318359-1.537108 10 10 0 0 0 -5.320313 1.546875z" stroke-width="1.272727"/><path d="m23 16a7 7 0 0 0 -.496094.017576 12.5 12.5 0 0 0 -2.503906 7.482421 12.5 12.5 0 0 0 1.771484 6.384767 7 7 0 0 0 1.228516.115232 7 7 0 0 0 .02734 0 11.5 11.5 0 0 1 -2.027344-6.499999 11.5 11.5 0 0 1 2.75-7.45703 7 7 0 0 0 -.749996-.042967z" stroke-width="1.272727"/><path d="m22.749994 16a7 7 0 0 1 .496094.01758 12.5 12.5 0 0 1 2.503906 7.482421 12.5 12.5 0 0 1 -1.771485 6.384767 7 7 0 0 1 -1.228515.115232 7 7 0 0 1 -.02734 0 11.5 11.5 0 0 0 2.027346-6.500003 11.5 11.5 0 0 0 -2.75-7.45703 7 7 0 0 1 .749994-.042967z" stroke-width="1.272727"/></g></svg>