<svg viewBox="0 0 32 32" xmlns="http://www.w3.org/2000/svg"><path d="m16 2.9824219c-3.556638 0-6.7852544 1.077223-9.1484375 2.8496093-2.3631831 1.7723864-3.8691406 4.2676518-3.8691406 7.0429688 0 1.87495.7808038 3.534851 2.0253906 4.904297 1.172549 1.290181 2.7724357 2.319204 4.5527344 3.132812v7.587891a.51773647.51773647 0 0 0 .9023441.345703l5.783203-6.423828c3.448914-.045705 6.582757-1.011555 8.892578-2.660156 2.365989-1.688691 3.878906-4.111401 3.878906-6.886719s-1.505957-5.2705824-3.86914-7.0429688c-2.363185-1.7723862-5.5918-2.8496093-9.148438-2.8496093zm0 1.0117187c3.351522 0 6.377457 1.0223514 8.542969 2.6464844s3.46289 3.823708 3.46289 6.234375-1.292245 4.518809-3.455078 6.0625c-2.162832 1.543691-5.191427 2.490234-8.550781 2.490234a.49441966.49441966 0 0 0 -.367188.164063l-5.060546 5.621094v-6.607422a.49441966.49441966 0 0 0 -.296875-.453125c-1.8169683-.790329-3.4044557-1.825792-4.5195316-3.052735-1.1150759-1.226942-1.7617188-2.626895-1.7617188-4.224609 0-2.410667 1.2973789-4.610242 3.4628906-6.234375 2.165512-1.624133 5.1914468-2.6464844 8.5429688-2.6464844z" fill="#3a3a38"/><path d="m16 3.9941406c-3.351522 0-6.3774569 1.0223514-8.5429688 2.6464844-2.1655118 1.624133-3.4628906 3.823708-3.4628906 6.234375 0 1.597714.6466429 2.997667 1.7617188 4.224609 1.1150759 1.226943 2.7025637 2.262406 4.5195316 3.052735a.49441966.49441966 0 0 1 .296875.453125v6.607422l5.060546-5.621094a.49441966.49441966 0 0 1 .367188-.164063c3.359354 0 6.387949-.946543 8.550781-2.490234 2.162833-1.543691 3.455078-3.651833 3.455078-6.0625s-1.297378-4.610242-3.46289-6.234375-5.191447-2.6464844-8.542969-2.6464844z" fill="#fafafa"/></svg>