<svg viewBox="0 0 32 32" xmlns="http://www.w3.org/2000/svg"><path d="m23.550781 3.0078125c-.05213.0006258-.103976.0078404-.154297.0214844l-21.0624996 5.875c-.3958988.110837-.5753024.5700704-.359375.9199219l11.5624996 18.4218752c.0038.0066.007699.013091.011719.019531l.345703.517578c.114933.17108.307571.273626.513672.273438h4.521485l-1.060547-1.0625h-3.222657l-.208984-.3125-11.2480469-17.9121098 19.7832029-5.5195312-2.335937 10.910156-.169922.683594c-.02586.102902-.014077.211661.033203.306641l.283203.566406 1.566406 3.550781c.074252.05094.145824.106792.210938.171875.33732.337172.472425.80618.416015 1.253906l.697266 1.580079c.00785.01884.016984.037107.027344.054687l.441406.671875h.857422c.152546 0 .27521-.015609.384766-.037109l-.75586-1.158203-2.876953-6.527344c-.0044-.0086-.008902-.017031-.013672-.025391l-.185547-.373047.117188-.470703c.0014-.0065.002706-.013001.003906-.019531l2.492188-11.6347658c.082274-.3886058-.218072-.7528353-.615235-.7460937zm-1.648437 17.0546875c.022187.00626.044455.012245.066406.019531-.022204-.007479-.04396-.013106-.066406-.019531zm.947265 2.074219c-.007075.015372-.015821.029764-.023437.044922.007528-.0153.016459-.029405.023437-.044922z" fill="#3a3a38"/><path d="m22.972656 4.25-19.7832029 5.5195312 11.2480469 17.9121098.208984.3125h3.222657l-1.425782-1.429688.0039.002c-.145238-.144746-.257892-.316206-.332032-.5-.06703-.165912-.109375-.358177-.109375-.5625 0-.20364.04275-.395036.109375-.560547.07428-.184305.187028-.357412.332032-.501953l-.0039.002 3.992188-4.003906h.002c.29316-.293187.681193-.439547 1.062453-.439547.295225 0 .594895.09283.849609.267578l-1.566406-3.550781-.283203-.566406c-.04728-.09498-.05906-.203739-.0332-.306641l.169922-.683594zm.0039 17.441406c-.03993.32016-.174931.630023-.416015.871094l-1.433588 1.4375h3.015625l-.441406-.671875c-.01036-.01758-.01949-.03585-.02734-.05469z" fill="#fafafa"/><path d="m27.5 19c-.277 0-.5.223-.5.5v3.5a1.9999999 1.9999999 0 0 1 -2 2h-6.283203l3.136719-3.144531c.195866-.195855.195866-.513205 0-.708985-.097935-.097889-.225707-.146484-.353516-.146484s-.257537.04859-.355469.146484l-3.992187 4.003907c-.04702.04687-.08409.103275-.109375.166015-.02336.05783-.03711.120981-.03711.1875 0 .06652.01375.129673.03711.1875.02531.06274.06235.11915.109375.166016l3.992187 4.003906c.09793.09827.22766.146484.355469.146484s.255581-.04859.353516-.146484c.195866-.195855.195866-.513205 0-.708984l-3.140625-3.148438h4.792968c.0069 0 .01268-.0036.01953-.0039h1.474611a3 3 0 0 0 .0078 0h.002a3 3 0 0 0 2.9902-3.000006v-3.5c0-.277-.223-.5-.5-.5z" fill="#1e8bcd"/></svg>