<svg viewBox="0 0 32 32" xmlns="http://www.w3.org/2000/svg"><path d="m18.996094 7.501953c0 .127809.04855.255581.146484.353516.195869.195868.513116.195868.708985 0l3.148437-3.148438v8.792969c0 .277.223.5.5.5s.5-.223.5-.5v-8.792969l3.148438 3.148438c.195868.195868.513115.195868.708984 0 .09793-.09793.146484-.225707.146484-.353516 0-.127808-.04855-.257539-.146484-.355469l-4.003906-4c-.04701-.04702-.103236-.08408-.166016-.109375-.057904-.02334-.12105-.037109-.1875-.037109s-.129596.01377-.1875.03711c-.06278.0253-.119003.06236-.166016.109375l-4.003906 4c-.09793.09793-.146484.22766-.146484.355468z" fill="#1e8bcd"/><g fill="#3a3a38" transform="matrix(.62471443 0 0 .62471443 20.394393 14.006853)"><path d="m-4.9921875 24h-2.7539062q-.4687501 0-.7617188-.234375-.2734375-.234375-.4296875-.585938l-2.1875-6.171875h-10.585937l-2.167969 6.152344q-.117188.332031-.449219.585938-.3125.253906-.761719.253906h-2.753906l9.628906-25.6640625h3.613281zm-15.8203125-9.53125h8.789062l-3.632812-10.3320313q-.195313-.4687499-.390625-1.0937499-.195312-.625-.371094-1.3476563-.195312.7421875-.390625 1.3671875-.195312.625-.371093 1.09375z"/><path d="m19 13v16.033203h5.417969c.854014.012234 1.610653-.110452 2.269531-.330078.667013-.219626 1.228073-.529153 1.683594-.927734.455521-.406715.801214-.889905 1.037109-1.451172s.353516-1.183906.353516-1.867188c0-1.000519-.284114-1.805942-.853516-2.416015-.561266-.618207-1.399272-1.036233-2.513672-1.25586.488058-.154552.909669-.359165 1.267578-.611328.35791-.252163.656684-.532693.892579-.841797.235894-.309103.409557-.645675.523437-1.011719.122012-.366043.183594-.744319.183594-1.134765 0-.650744-.10133-1.233633-.304688-1.746094-.203357-.520595-.525591-.958497-.964843-1.316406-.431118-.366044-.988594-.642989-1.671876-.830078-.390747-.112987-.83965-.184827-1.320312-.232422v1.802734c.535317.101993.973508.26958 1.285156.541016.512461.431118.767578 1.113383.767578 2.048828 0 .406715-.068748.777822-.207031 1.111328-.130149.333507-.329224.617621-.597656.853516s-.606957.422264-1.013672.560547c-.406715.130148-.882736.195312-1.427734.195312h-2.585938v-5.429687h.779297v-1.744141zm2.220703 8.736328h3.160156c1.081551.025966 1.878165.24078 2.390625.720703.520596.479925.78125 1.129608.78125 1.951172 0 .41485-.059626.802247-.18164 1.160156-.113881.349775-.302202.650181-.5625.902344-.252163.252164-.581566.451239-.988282.597656-.39858.138283-.878186.207032-1.439453.207032h-3.160156z" stroke-width=".624714" transform="matrix(1.6007314 0 0 1.6007314 -32.645945 -22.421209)"/></g></svg>