<svg viewBox="0 0 32 32" xmlns="http://www.w3.org/2000/svg"><g fill="#3a3a38" stroke-width=".57469" transform="matrix(.95945142 0 0 .95945142 .556667 .694363)"><path d="m13.865156 29.151096q-.317552 0-.488541-.09771-.17099-.09771-.232058-.403047l-.268698-1.111432q-.464114.427474-.916015.769453-.439688.329766-.928229.561823-.488542.232057-1.050365.341979-.561823.122135-1.2335678.122135-.6961719 0-1.306849-.183203-.5984636-.195414-1.0625782-.586248-.451901-.403047-.7205989-.989297-.2564844-.598463-.2564844-1.404557 0-.708385.3786198-1.355703.3908333-.659531 1.2579948-1.1725.8671615-.512969 2.2595053-.830521 1.3923434-.329766 3.4197914-.37862v-.916015q0-1.392344-.598463-2.088516-.58625-.708386-1.72211-.708386-.7572392 0-1.2824215.195417-.5129688.195417-.8915886.427474-.3786198.232057-.6595313.427474-.2686979.195417-.5496094.195417-.2198437 0-.3786198-.109922-.158776-.109922-.2564844-.280912l-.3908333-.683958q.9892969-.952656 2.1251563-1.416771 1.148073-.476328 2.540417-.476328 1.00151 0 1.783177.329766.781667.317552 1.306849.916015.525182.598464.79388 1.428985.280912.830521.280912 1.844245v7.633463zm-4.4701561-1.319062q.5373959 0 .9892971-.109922.451901-.109922.854948-.305339.403047-.20763.757239-.500755.366407-.305338.720599-.671745v-2.467135q-1.428984.06107-2.430494.244271-1.0015109.170989-1.6366151.464114-.6228907.293125-.9038021.696172-.2809115.390834-.2809115.879375 0 .464115.1465625.806094.158776.329766.4152604.549609.2564844.207631.6106771.317552.3541928.09771.7572396.09771z"/><path d="m18.115469 29.151096v-17.367657h2.149583v7.120496q.732813-.867162 1.673255-1.367917.940443-.512969 2.161797-.512969 1.038151 0 1.868672.403047.830521.403047 1.416771 1.160286.58625.75724.891589 1.844245.317552 1.074792.317552 2.442709 0 1.453411-.354193 2.638125-.354193 1.184713-1.013724 2.039661-.659531.842735-1.599974 1.306849-.940443.464115-2.112943.464115-1.1725 0-1.96638-.439688-.781667-.451901-1.392344-1.245781l-.122135 1.062578q-.04885.451901-.525183.451901zm5.264036-10.430365q-.989297 0-1.746536.464115-.745026.464115-1.367917 1.319063v5.764791q.561823.769454 1.233568 1.087006.671745.305338 1.477838.305338 1.648829 0 2.528204-1.184713.879375-1.184714.879375-3.529714 0-2.174011-.781667-3.199948-.781667-1.025938-2.222865-1.025938z"/></g><path d="m18.996094 9.498047c0-.127809.04855-.255581.146484-.353516.195869-.195868.513116-.195868.708985 0l3.148437 3.148438v-8.792969c0-.277.223-.5.5-.5s.5.223.5.5v8.792969l3.148438-3.148438c.195868-.195868.513115-.195868.708984 0 .09793.09793.146484.225707.146484.353516 0 .127808-.04855.257539-.146484.355469l-4.003906 4c-.04701.04702-.103236.08408-.166016.109375-.057904.02334-.12105.037109-.1875.037109s-.129596-.01377-.1875-.03711c-.06278-.0253-.119003-.06236-.166016-.109375l-4.003906-4c-.09793-.09793-.146484-.22766-.146484-.355468z" fill="#1e8bcd"/></svg>