<svg height="32" viewBox="0 0 8.4666665 8.4666669" width="32" xmlns="http://www.w3.org/2000/svg"><g transform="translate(0 -288.53332)"><g stroke-width=".264583"><path d="m5.55625 289.85625c0-.14658-.1180042-.26458-.2645833-.26458h-2.1166667c-.1465792 0-.2645833.118-.2645833.26458v3.175c0 .14658.1180041.26458.2645833.26458h2.1166667c.1465791 0 .2645833-.118.2645833-.26458z" fill="#ed8733"/><path d="m5.2916667 289.85625v3.175h-2.1166667v-3.175z" fill="#f8db8f"/><path d="m4 17c-.5539999 0-1 .445997-1 1v7c0 .554003.4460001 1 1 1h15c.554 0 1-.445997 1-1v-7c0-.554003-.446-1-1-1zm0 1h15v7h-15z" fill="#3a3a38" stroke-width=".999999" transform="matrix(.26458333 0 0 .26458333 0 288.53332)"/><path d="m1.0583333 293.29583h3.96875v1.85209h-3.96875z" fill="#797774"/><path d="m7.4083333 293.825c.1465792 0 .2645834-.118.2645834-.26458v-1.85209c0-.14658-.1180042-.26458-.2645834-.26458h-3.175c-.1465791 0-.2645833.118-.2645833.26458v1.85209c0 .14658.1180042.26458.2645833.26458z" fill="#0063b1"/></g><path d="m7.4083333 293.56042h-3.175v-1.85209h3.175z" fill="#83beec"/></g></svg>