<svg viewBox="0 0 32 32" xmlns="http://www.w3.org/2000/svg"><g fill="#1e8bcd"><path d="m16.006223 3.0019531c-7.022679-.1219949-12.661721 5.3688221-12.992551 12.3847659-.33083 7.015943 4.985282 13.034847 11.988281 13.574219 7.002999.539371 13.235714-4.369693 13.98315-11.35355.02846-.273789-.241739-.514858-.502681-.773404l-11.765625-13.3242184c-.309231-.3686162-.435197-.5024404-.710574-.5078125zm-.299192 1.0898438 12.072266 13.6718751c-.934146 6.186787-6.403019 10.686256-12.701172 10.201172-6.474645-.498678-11.370323-6.042684-11.064453-12.529297.297529-6.3097356 5.43862-11.1818063 11.693359-11.3437501z"/><path d="m19.851695 11.14823c.195869.195868.195869.511238 0 .707107l-10.9988254 10.998824c-.195868.195869-.511238.195869-.7071062 0-.1958686-.195868-.1958686-.511238 0-.707107l10.9988246-10.998824c.195869-.195869.511239-.195869.707107 0z"/></g></svg>