<svg height="32" viewBox="0 0 32 32" width="32" xmlns="http://www.w3.org/2000/svg"><g stroke-width="1.33333"><path d="m3 3v6h9v-6zm1 1h7v4h-7zm-1 6v6h9v-6zm1 1h7v4h-7zm16 2v5.039062a1.0013091 1.0013091 0 0 1 .429688.253907l.707031.707031h7.863281v-6zm1 1h7v4h-7zm-18 3v6h9v-6zm1 1h7v4h-7zm-1 6v5h9v-5zm1 1h7v3h-7z" fill="#3a3a38"/><path d="m4 4v4h7v-4zm0 7v4h7v-4zm17 3v4h7v-4zm-17 4v4h7v-4zm0 7v3h7v-3z" fill="#fafafa"/><g fill="#1e8bcd"><path d="m13.404298 5.6972662 4.949218 4.9492178 1.646484-1.6464834v3.9999994h-4l1.646484-1.646484-4.949218-4.9492196z"/><path d="m16 19 1.646484 1.646484-4.949218 4.949219.707031.707031 4.949219-4.949218 1.646484 1.646484v-.863281l-1.707031-1.707031a1.0013091 1.0013091 0 0 1 0-1.414063l.015625-.015625z"/></g></g><path d="m31.277778 19-5.777778 5.777778-5.777778-5.777778-.722222.722222 5.777778 5.777778-5.777778 5.777778.722222.722222 5.777778-5.777778 5.777778 5.777778.722222-.722222-5.777778-5.777778 5.777778-5.777778z" fill="#ed3d3b"/></svg>