<svg viewBox="0 0 32 32" xmlns="http://www.w3.org/2000/svg"><path d="m7 4v24h9.683594c-.447543-.936924-.681048-1.961677-.683594-3 0-3.865993 3.134007-7 7-7 .677425.001 1.351116.100357 2 .294922v-8.294922l-6-6z" fill="#fafafa"/><path d="m7 3c-.554 0-1 .446-1 1v24c0 .554.446 1 1 1h10.265625a7 7 0 0 1 -.582031-1h-9.683594v-24h11v6c0 .554.446 1 1 1h6v7.294922a7 7 0 0 1 1 .390625v-6.794922-1.640625-.208984c0-.4506805.098038-.4254125-.605469-1.0664066l-5.30664-5.2382813c-.709525-.7368575-1.477331-.7363281-1.09375-.7363281h-.332032-.662109zm12 1 6 6h-6z" fill="#3a3a38"/><g transform="matrix(1.1990633 0 0 1.1990633 1.421544 -6.170962)"><path d="m23.003906 19.009766a5.9953165 5.9953165 0 0 0 -5.99414 5.99414 5.9953165 5.9953165 0 0 0 5.99414 5.996094 5.9953165 5.9953165 0 0 0 5.996094-5.996094 5.9953165 5.9953165 0 0 0 -5.996094-5.99414zm-3.003906 2.390625a.5995916.5995916 0 0 1 .431641.183593l2.572265 2.572266 2.574219-2.572266a.5995916.5995916 0 0 1 .412109-.18164.5995916.5995916 0 0 1 .435547 1.029297l-2.574219 2.572265 2.574219 2.574219a.5995916.5995916 0 1 1 -.847656.847656l-2.574219-2.574219-2.572265 2.574219a.5995916.5995916 0 1 1 -.847657-.847656l2.572266-2.574219-2.572266-2.572265a.5995916.5995916 0 0 1 .416016-1.03125z" fill="#ed3d3b" stroke-width="1.199063" transform="matrix(.83398433 0 0 .83398433 -1.185545 5.146486)"/><path d="m15.494141 22.994141a.50005.50005 0 0 0 -.347657.859375l2.146485 2.146484-2.146485 2.146484a.50005.50005 0 1 0 .707032.707032l2.146484-2.146485 2.146484 2.146485a.50005.50005 0 1 0 .707032-.707032l-2.146485-2.146484 2.146485-2.146484a.50005.50005 0 0 0 -.363282-.857422.50005.50005 0 0 0 -.34375.15039l-2.146484 2.146485-2.146484-2.146485a.50005.50005 0 0 0 -.359375-.152343z" fill="#fafafa"/></g></svg>