<svg viewBox="0 0 32 32" xmlns="http://www.w3.org/2000/svg"><path d="m6 3v26h13.25v-1h-.875c-.747468-.000075-1.374925-.627532-1.375-1.375v-4.125-4.123047-.001953-.375c.0161-.708242.293091-1 1-1h8v-8l-6-6zm18.521484 25-1.125 1h2.603516v-1z" fill="#fafafa"/><path d="m5.9980469 2c-.554 0-1 .446-1 1v26c0 .554.446 1 1 1h13.0019531v-1h-13.0019531v-26h13.0000001v6c0 .6726441.491378 1 1 1h6l.001953 7h1l-.001953-8.6152344-6.507813-6.3847656zm14.0019531 1 6 6h-6z" fill="#3a3a38"/><rect fill="#797774" height="1" ry=".5" width="5" x="8" y="10"/><rect fill="#797774" height="1" ry=".5" width="9" x="8" y="14"/><g fill="#fb983b"><rect height="1" ry=".5" width="5" x="19" y="14"/><rect height="1" ry=".5" width="7" x="8" y="18"/><rect height="1" ry=".5" width="7" x="8" y="26"/></g><g fill="#797774"><rect height="1" ry=".474576" width="4" x="8" y="22"/><rect height="1" ry=".474576" width="1" x="14" y="22"/><rect height="1" ry=".5" width="2" x="15" y="10"/></g><path d="m18.375 18c-.207107 0-.375.167893-.375.375.00002.0221.001959.044646.005859.066406h-.005859v8.183594c.000021.207098.167902.374979.375.375h1.625v2.625c.000584.323169.381373.493848.623047.279297l3.519531-2.904297h5.482422c.207098-.000021.374979-.167902.375-.375v-8.25c-.000021-.207098-.167902-.374979-.375-.375zm.625 1h10v7h-5.5l-2.5 2.236328v-2.236328h-2s.000018-7.000018 0-7z" fill="#3a3a38"/><path d="m19 19c.000018-.000018 0 7 0 7h2v2.237288l2.5-2.237288h5.5v-7z" fill="#fafafa"/></svg>