<svg viewBox="0 0 32 32" xmlns="http://www.w3.org/2000/svg"><g fill="#3a3a38"><path d="m31.5 4.5-25.5 23.5" stroke="#1e8bcd" stroke-linecap="round" stroke-linejoin="round"/><path d="m4.5 4a.50005.50005 0 0 0 -.3535156.1464844l-3.96875002 3.9707031-.03125.0292969a.50005.50005 0 0 0 -.00195313.0019531.50005.50005 0 0 0 -.00390625.0039063.50005.50005 0 0 0 -.02734375.03125.50005.50005 0 0 0 -.00585937.0058593.50005.50005 0 0 0 -.0234375.0351563.50005.50005 0 0 0 -.00390625.0058594.50005.50005 0 0 0 -.02148438.0371093.50005.50005 0 0 0 -.00390625.0058594.50005.50005 0 0 0 -.01757812.0390625.50005.50005 0 0 0 -.01367188.0371094.50005.50005 0 0 0 -.00585937.0175781.50005.50005 0 0 0 0 .0019531.50005.50005 0 0 0 -.00976563.046875.50005.50005 0 0 0 -.00585937.0410156.50005.50005 0 0 0 0 .0078126.50005.50005 0 0 0 -.00195313.0175781.50005.50005 0 0 0 0 .0175781.50005.50005 0 0 0 0 .0078125v10.9921875a.50005.50005 0 0 0 .5.5h11a.50005.50005 0 0 0 .015625 0 .50005.50005 0 0 0 .013672-.001953.50005.50005 0 0 0 .033203-.001953.50005.50005 0 0 0 .001953 0 .50005.50005 0 0 0 .035156-.00586.50005.50005 0 0 0 .013672-.003906.50005.50005 0 0 0 .048828-.013672.50005.50005 0 0 0 .033203-.011718.50005.50005 0 0 0 .013672-.00586.50005.50005 0 0 0 .03125-.015625.50005.50005 0 0 0 .011719-.007812.50005.50005 0 0 0 .03125-.019532.50005.50005 0 0 0 .011719-.007812.50005.50005 0 0 0 .027344-.021485.50005.50005 0 0 0 .011718-.009765.50005.50005 0 0 0 .019532-.019531l.005859-.00586 3.994141-3.99414a.50005.50005 0 0 0 .146484-.353516v-11a.50005.50005 0 0 0 -.5-.5zm.21875 1h9.574219l-2.984375 3h-9.605469zm10.28125.7109375v9.5742185l-3 3.007813v-9.5859378zm-14 3.2890625h10v10h-10z"/><path d="m18.5 18a.50005.50005 0 0 0 -.5.5v11a.50005.50005 0 0 0 .5.5h11a.50005.50005 0 0 0 .5-.5v-11a.50005.50005 0 0 0 -.5-.5zm.5 1h10v10h-10z"/></g><path d="m19 19v10h10v-10z" fill="#fafafa"/><path d="m4.71875 5-3.015625 3h9.605469l2.984375-3zm10.28125.7109375-3 2.9960937v9.5859378l3-3.007813zm-14 3.2890625v10h10v-10z" fill="#fafafa"/></svg>