<svg viewBox="0 0 32 32" xmlns="http://www.w3.org/2000/svg"><path d="m4 3v18h8v-12h6v-1h-4c-.554 0-1-.446-1-1v-4zm10 0v4h4z" fill="#fafafa"/><path d="m4 2c-.554 0-1 .446-1 1v18c0 .554.446 1 1 1h8v-1h-8v-18h9v4c0 .554.446 1 1 1h4v1h1v-1.75-.2089844c0-.4506799.098038-.4254121-.605469-1.0664062l-3.30664-3.2382813c-.709525-.7368575-.710169-.7363281-1.09375-.7363281-3.33138 0-6.6627607 0-9.994141 0zm10 1 4 4h-4z" fill="#3a3a38"/><path d="m6.5 12c-.277 0-.5.223-.5.5s.223.5.5.5h5.5v-1zm0 3c-.277 0-.5.223-.5.5s.223.5.5.5h5.5v-1zm0 3c-.277 0-.5.223-.5.5s.223.5.5.5h5.5v-1z" fill="#1e8bcd" opacity=".99"/><path d="m14 11v18h14v-13h-4c-.554 0-1-.446-1-1v-4zm10 0v4h4z" fill="#fafafa"/><path d="m14 10c-.554 0-1 .446-1 1v18c0 .554.446 1 1 1h14c.554 0 1-.446 1-1 0-4.652995 0-9.305989 0-13.958984 0-.45068.09804-.425413-.605469-1.066407l-3.30664-3.238281c-.709525-.7368574-.710169-.736328-1.09375-.736328-3.33138 0-6.662761 0-9.994141 0zm0 1h9v4c0 .554.446 1 1 1h4v13h-14zm10 0 4 4h-4z" fill="#3a3a38"/><g fill="#1e8bcd"><rect height="1" opacity=".99" ry=".5" width="10" x="16" y="25"/><rect height="1" opacity=".99" ry=".5" width="10" x="16" y="19"/><rect height="1" opacity=".99" ry=".5" width="10" x="16" y="22"/></g></svg>