<svg viewBox="0 0 32 32" xmlns="http://www.w3.org/2000/svg"><path d="m4 4v21.083984 1.916016h1 9 1v-1.916016-21.083984z" fill="#fafafa" stroke-width=".978945"/><g fill="#3a3a38"><path d="m3 3v25h11 2v-2-1-22zm1 1h11v16 5.083984 1.916016h-1-9-.8066406-.1933594z"/><rect height="1" ry=".5" width="3" x="25" y="3"/><rect height="1" ry=".423048" width="3" x="20" y="3"/><rect height="1" ry=".423048" width="1" x="17" y="3"/></g><path d="m13 10a3 3 0 0 1 -3 3 3 3 0 0 1 -3-3 3 3 0 0 1 3-3 3 3 0 0 1 3 3z" fill="#ed8733"/><path d="m12 10a2 2 0 0 1 -2 2 2 2 0 0 1 -2-2 2 2 0 0 1 2-2 2 2 0 0 1 2 2z" fill="#f8db8f"/><g fill="#1e8bcd" transform="translate(6 6)"><rect height="1" ry=".474349" width="11" x="11" y="21"/><rect height="1" ry=".410036" transform="rotate(90)" width="11" x="11" y="-22"/><rect height="1" rx="0" ry=".448699" width="11" x="14" y="14"/><rect height="1" ry=".474349" transform="rotate(90)" width="11" x="14" y="-15"/></g><g fill="#3a3a38"><rect height="3" ry=".5" width="1" x="27" y="8"/><rect height="3" ry=".5" width="1" x="27" y="3"/><rect height="3" ry=".5" width="1" x="27" y="13"/></g><g stroke-width="1.333333"><path d="m12.5 18.5-8.4277344 8.427734-.0722656.072266h3.5l6.75-6.75zm2.5 2.5-6 6h6z" fill="#83beec"/><path d="m12.5 17-8.5 8.5v1.25c0 .06925.0270776.132547.0722656.177734l8.4277344-8.427734 1.75 1.75-6.75 6.75h1.5l6-6v-1.5z" fill="#0063b1"/></g></svg>