<svg viewBox="0 0 32 32" xmlns="http://www.w3.org/2000/svg"><path d="m3 9v14h.2011719c.1892539-.516059.4947756-.99751.8886719-1.410156a1.0001 1.0001 0 0 1 .6582031-.556641c.9217881-.642102 2.0664074-1.03169 3.25-1.033203a1.0001 1.0001 0 0 0 .0019531 0c1.1842811.00108 2.331544.390774 3.253906 1.033203a1.0001 1.0001 0 0 1 .65625.554688c.054768.057366.095332.123352.146485.183593.064276-.817651.450051-1.57073 1.033203-2.18164a1.0001 1.0001 0 0 1 .658203-.556641c.921788-.642102 2.066407-1.031689 3.25-1.033203a1.0001 1.0001 0 0 1 .003906 0c.828488.001059 1.618876.222732 2.357422.542969.17506-.358709.449119-.658383.730469-.953125a1.0001 1.0001 0 0 1 .658203-.556641c.921788-.642102 2.066407-1.031689 3.25-1.033203a1.0001 1.0001 0 0 0 .001953 0c1.184281.00108 2.331544.390774 3.253906 1.033203a1.0001 1.0001 0 0 1 .65625.554688c.639654.67001 1.088299 1.506783 1.089844 2.410156v-10.998047z" fill="#fafafa"/><path d="m2 8v16h1a1.0001 1.0001 0 0 0 0-.001953c.0023275-.902315.4509879-1.738937 1.0898438-2.408203a1.0001 1.0001 0 0 1 .6582031-.556641c.102986-.071738.2178794-.128114.3261719-.193359-.5391047-.517735-1.2677437-.839844-2.0742188-.839844v-8c1.6568542 0 3-1.343146 3-3h20c0 1.656854 1.343146 3 3 3v7.998047a1.0001 1.0001 0 0 0 0 .001953v4h1v-16zm14 4c-2.209139 0-4 1.790861-4 4 0 1.270363.603942 2.388372 1.527344 3.121094a1.0001 1.0001 0 0 1 .220703-.087891c.239383-.16675.495499-.313043.761719-.443359-.898484-.518253-1.509766-1.478087-1.509766-2.589844 0-1.656854 1.343146-3 3-3s3 1.343146 3 3c0 .834904-.342184 1.588946-.892578 2.132812.352542.078728.695596.188766 1.029297.322266.532686-.67945.863281-1.524762.863281-2.455078 0-2.209139-1.790861-4-4-4z" fill="#0063b1"/><path d="m21 18v9c.370533.826893 1.052371 1.409694 3 1 1.595993.30523 2.668676.04977 3-1v-9zm-7 2v7c.370533.826893 1.052371 1.409694 3 1 1.595993.30523 2.668676.04977 3-1v-7zm-9 2v5l1 1h2 2l1-1v-5z" fill="#f8db8f"/><path d="m24 17a4 3 0 0 0 -4 3v.019531a4 3 0 0 0 -3-1.019531 4 3 0 0 0 -4 3v4a4 3 0 0 0 4 3 4 3 0 0 0 3.5-1.552734 4 3 0 0 0 3.5 1.552734 4 3 0 0 0 4-3v-6a4 3 0 0 0 -4-3zm0 1a3 2 0 0 1 3 2 3 2 0 0 1 -3 2 3 2 0 0 1 -3-2 3 2 0 0 1 3-2zm-7 2a3 2 0 0 1 3 2 3 2 0 0 1 -3 2 3 2 0 0 1 -3-2 3 2 0 0 1 3-2zm-9 1a4 3 0 0 0 -4 3v2a4 3 0 0 0 4 3 4 3 0 0 0 4-3v-2a4 3 0 0 0 -4-3zm19 1a3 2 0 0 1 -3 2 3 2 0 0 1 -3-2 4 3 0 0 0 3 1 4 3 0 0 0 3-1zm-19 0a3 2 0 0 1 3 2 3 2 0 0 1 -3 2 3 2 0 0 1 -3-2 3 2 0 0 1 3-2zm12 2a3 2 0 0 1 -3 2 3 2 0 0 1 -3-2 4 3 0 0 0 3 1 4 3 0 0 0 3-1zm7 0a3 2 0 0 1 -3 2 3 2 0 0 1 -3-2 4 3 0 0 0 3 1 4 3 0 0 0 3-1zm-16 2a3 2 0 0 1 -3 2 3 2 0 0 1 -3-2 4 3 0 0 0 3 1 4 3 0 0 0 3-1zm9 0a3 2 0 0 1 -3 2 3 2 0 0 1 -3-2 4 3 0 0 0 3 1 4 3 0 0 0 3-1zm7 0a3 2 0 0 1 -3 2 3 2 0 0 1 -3-2 4 3 0 0 0 3 1 4 3 0 0 0 3-1z" fill="#ed8733"/><path d="m16 13a3 3 0 0 0 -3 3 3 3 0 0 0 1.498047 2.59375c.761642-.374819 1.61954-.592624 2.5-.59375a1.0001 1.0001 0 0 1 .003906 0c.377163.000482.745394.052403 1.105469.132812a3 3 0 0 0 .892578-2.132812 3 3 0 0 0 -3-3z" fill="#83beec"/></svg>