<svg height="32" viewBox="0 0 8.4666665 8.4666669" width="32" xmlns="http://www.w3.org/2000/svg"><g transform="translate(0 -288.53332)"><path d="m1.0583333 289.32707c-.14657913 0-.2645833.118-.2645833.26458v6.35c0 .14658.11800417.26459.2645833.26459h6.35c.1465792 0 .2645834-.11801.2645834-.26459v-6.35c0-.14658-.1180042-.26458-.2645834-.26458zm0 .26458h6.35v6.35h-6.35z" fill="#3a3a38" stroke-width=".264583"/><path d="m1.0583333 289.59165h6.35v6.35h-6.35z" fill="#fafafa" stroke-width=".264583"/><path d="m1.0583333 289.59165h1.3229167v6.35h-1.3229167z" fill="#83beec" stroke-width=".232055"/><g stroke-width=".264583"><path d="m1.0583333 290.64999v.26458h1.3229167.2645833 1.3229167.2645833 1.3229167.2645833 1.5875v-.26458zm0 1.32291v.26459h1.3229167.2645833 1.3229167.2645833 1.3229167.2645833 1.5875v-.26459h-1.5875-.2645833-1.3229167-.2645833-1.3229167-.2645833zm0 1.32292v.26458h1.3229167.2645833 1.3229167.2645833 1.3229167.2645833 1.5875v-.26458h-1.5875-.2645833-1.3229167-.2645833-1.3229167-.2645833zm0 1.32292v.26458h1.3229167.2645833 1.3229167.2645833 1.3229167.2645833 1.5875v-.26458h-1.5875-.2645833-1.3229167-.2645833-1.3229167-.2645833z" fill="#797774"/><path d="m1.0583333 289.32707c-.14657913 0-.2645833.118-.2645833.26458v6.35c0 .14658.11800417.26459.2645833.26459h1.3229167.2645833v-.26459-6.35-.26458h-.2645833zm0 .26458h1.3229167v1.05834h-1.3229167zm0 1.32292h1.3229167v1.05833h-1.3229167zm0 1.32292h1.3229167v1.05833h-1.3229167zm0 1.32291h1.3229167v1.05834h-1.3229167zm0 1.32292h1.3229167v1.05833h-1.3229167z" fill="#0063b1"/></g></g></svg>