<svg viewBox="0 0 32 32" xmlns="http://www.w3.org/2000/svg"><path d="m6.6972656 3a.97470684.97470684 0 0 0 -.6894531.2851562l-1.7226563 1.7226563a.97470684.97470684 0 0 0 -.2851562.6894531v1.6425782a.97470684.97470684 0 0 0 .203125.5957031l8.822266 11.3984371v5.166016a.97470684.97470684 0 0 0 .390625.779297l4 3a.97470684.97470684 0 0 0 1.558593-.779297v-8.166016l.048829-.0625c-.009406-.085884-.022209-.171502-.023438-.257812a1.0001 1.0001 0 0 1 0-.027344c.001965-.137955.014981-.275999.037109-.412109a1.0001 1.0001 0 0 1 0-.003907c.008212-.049226.018529-.097767.029297-.146484.017645-.089341.038512-.178374.064453-.265625a1.0001 1.0001 0 0 1 .011719-.033203c.022833-.067819.048604-.13512.076172-.201172.025434-.065257.052228-.12993.082031-.193359a1.0001 1.0001 0 0 1 .009766-.023438c.03492-.069547.073432-.138053.113281-.205078.036102-.062582.075124-.123268.115234-.183594a1.0001 1.0001 0 0 1 .011719-.019531c.041836-.060079.085287-.118086.13086-.175781.044992-.058639.092031-.115674.140625-.171875a1.0001 1.0001 0 0 1 .007812-.009766c.050233-.056691.102563-.10991.15625-.164062.054427-.056719.110018-.113956.167969-.167969a1.0001 1.0001 0 0 1 .017578-.015625c.056867-.050578.115956-.098366.175781-.146484.056984-.047148.114194-.093808.173828-.138672a1.0001 1.0001 0 0 1 .015625-.011719c.080626-.058419.163122-.113548.248047-.167969.04559-.030064.091863-.060955.138672-.089844a1.0001 1.0001 0 0 1 .015625-.007812c.07718-.045829.154211-.090076.234375-.132812.074234-.041061.149815-.080796.226563-.119141a1.0001 1.0001 0 0 1 .019531-.009766c.05602-.02657.112718-.051004.169922-.076172.098982-.04487.198375-.088309.300781-.128906h.001953l5.904297-7.6289061a.97470684.97470684 0 0 0 .203125-.5957031v-1.6425782a.97470684.97470684 0 0 0 -.285156-.6894531l-1.722656-1.7226563a.97470684.97470684 0 0 0 -.689454-.2851562zm0 .9746094h18.6054684l1.722657 1.7226562v1.6425782l-9.025391 11.6601562v8.5l-4-3v-5.5l-9.0253906-11.6601562v-1.6425782z" fill="#3a3a38"/><path d="m6.6972656 3.9746094-1.7226562 1.7226562v1.6425782l9.0253906 11.6601562v5.5l4 3v-8.5l9.025391-11.6601562v-1.6425782l-1.722657-1.7226562z" fill="#fafafa" fill-rule="evenodd"/><path d="m25 16c-2.761424 0-5 1.343146-5 3v8c0 1.656854 2.238576 3 5 3s5-1.343146 5-3v-8c0-1.656854-2.238576-3-5-3zm0 1c2.209139 0 4 .895431 4 2s-1.790861 2-4 2-4-.895431-4-2 1.790861-2 4-2zm-4 3.794922c.942499.757331 2.424723 1.20388 4 1.205078 1.575277-.0012 3.057501-.447747 4-1.205078v6.205078h-.0039c0 .376571-.264802.834662-.976563 1.261719-.711767.427056-1.801487.734375-3.019531.734375s-2.30777-.307319-3.019531-.734375c-.711767-.427057-.976569-.885148-.976569-1.261719h-.003906z" fill="#ed8733"/><path d="m25 17c-2.209139 0-4 .895431-4 2s1.790861 2 4 2 4-.895431 4-2-1.790861-2-4-2zm-4 3.794922v6.205078h.0039c0 .376571.264796.834662.976563 1.261719.711761.427056 1.801487.734375 3.019531.734375s2.307764-.307319 3.019531-.734375c.711767-.427057.976569-.885148.976569-1.261719h.003906v-6.205078c-.942499.757331-2.424723 1.203878-4 1.205078-1.575277-.0012-3.057501-.447747-4-1.205078z" fill="#f8db8f"/></svg>