<svg viewBox="0 0 32 32" xmlns="http://www.w3.org/2000/svg"><rect fill="#0063b1" height="20" ry="1.333333" width="6" x="4" y="9"/><path d="m23.333984 13c-.738666 0-1.333984.595318-1.333984 1.333984v1.177735c.919581-.344317 1.956144-.527344 3-.527344s2.080419.183027 3 .527344v-1.177735c0-.738666-.595318-1.333984-1.333984-1.333984z" fill="#309048"/><rect fill="#3a3a38" height="26" ry="1.3" width="6" x="13" y="3"/><path d="m5 10h4v18h-4z" fill="#83beec" stroke-width="1.358732"/><path d="m14 4h4v24h-4z" fill="#797774" stroke-width="1.333333"/><path d="m23 14v1.212891c.644496-.146923 1.320429-.228516 2-.228516s1.355504.081593 2 .228516v-1.212891z" fill="#a1ddaa"/><path d="m25 16c-2.761424 0-5 1.343146-5 3v8c0 1.656854 2.238576 3 5 3s5-1.343146 5-3v-8c0-1.656854-2.238576-3-5-3zm0 1c2.209139 0 4 .895431 4 2s-1.790861 2-4 2-4-.895431-4-2 1.790861-2 4-2zm-4 3.794922c.942499.757331 2.424723 1.20388 4 1.205078 1.575277-.0012 3.057501-.447747 4-1.205078v6.205078h-.0039c0 .376571-.264802.834662-.976563 1.261719-.711767.427056-1.801487.734375-3.019531.734375s-2.30777-.307319-3.019531-.734375c-.711767-.427057-.976569-.885148-.976569-1.261719h-.003906z" fill="#ed8733"/><path d="m25 17c-2.209139 0-4 .895431-4 2s1.790861 2 4 2 4-.895431 4-2-1.790861-2-4-2zm-4 3.794922v6.205078h.0039c0 .376571.264796.834662.976563 1.261719.711761.427056 1.801487.734375 3.019531.734375s2.307764-.307319 3.019531-.734375c.711767-.427057.976569-.885148.976569-1.261719h.003906v-6.205078c-.942499.757331-2.424723 1.203878-4 1.205078-1.575277-.0012-3.057501-.447747-4-1.205078z" fill="#f8db8f"/></svg>