<svg viewBox="0 0 32 32" xmlns="http://www.w3.org/2000/svg"><path d="m4 3c-.554 0-1 .446-1 1v12 12c0 .554.446 1 1 1h11v-1h-11v-12-9h24v9 2c.364211.000036.703716.10831 1 .283203v-2.283203-12c0-.554-.446-1-1-1z" fill="#3a3a38"/><path d="m4 7v21h11v-10c.000109-1.092632.907368-1.999891 2-2h2c.447847.000086.87501.158787 1.224609.431641l3.408203 1.568359h4.367188v-11z" fill="#fafafa"/><path d="m7 10v4h4v-4zm1 1h2v2h-2zm5 0v1h12v-1zm-6 5v4h4v-4zm1 1h2v2h-2zm5 0v1h2c.000036-.364211.10831-.703716.283203-1zm8.458984 0 2.173828 1h1.367188v-1zm-14.458984 5v4h4v-4zm1 1h2v2h-2zm5 0v1h2v-1z" fill="#797774"/><path d="m3 3h26v6h-26z" fill="#3a3a38"/><path d="m4 4h24v4h-24z" fill="#797774" stroke-width=".784465"/><g fill-rule="evenodd" transform="translate(16 16)"><path d="m3 2.0000002 4 2.0000002 5-.0000002v7.9999998h-11v-10z" fill="#fafafa"/><path d="m0 14h1 12l2.744141-7.0078125c.297854-.992847.298232-.9921875-.744141-.9921875h-1-1-8.9785156c-1.0211864 0-1.0208091-.0005516-1.2792969.9902344l-1.7421875 4.6757816z" fill="#ed8733"/><path d="m3 1c.265199.0000511.519519.1054325.707031.2929688l3.7070315 1.7070312h4.5859375c.552262.0000552.999945.4477379 1 1v7h-1v-.333984-5.666016-1h-5l-4-2h-2v12h-1v-12c.000055-.5522619.447738-.9999448 1-1z" fill="#ed8733"/><path d="m4.0214844 7c-.1271747 0-.1609225.00219-.2441406.00391-.022899.080791-.035762.1133336-.068359.2382813a1.0001 1.0001 0 0 1 -.029297.097656l-1.7421878 4.6757777a1.0001 1.0001 0 0 1 -.017578.04492l-.4023439.939455h10.8007809l2.347657-6h-.666016-1z" fill="#f8db8f"/></g></svg>