<svg height="32" viewBox="0 0 8.4666665 8.4666669" width="32" xmlns="http://www.w3.org/2000/svg"><g transform="translate(0 -288.53331)"><g stroke-width=".264583" transform="translate(0 -.000009)"><path d="m3.175 290.91456v.23203l.144694.14469c.1404712.14047.1714695.38974.011369.54984l-.023254.0233c-.039727.0397-.085078.0675-.1328089.0847v2.40502h4.2333332v-3.43958z" fill="#fafafa"/><path d="m1.0583333 292.50208h4.2333334v3.43959h-4.2333334z" fill="#fafafa"/><path d="m3.2070394 289.32706-.2966228.29662v.23255h.1322917c.2152965 0 .396875.18158.396875.39687 0 .2153-.1815785.39688-.396875.39688h-.1322917v.23202l.4092774.40928c.1404712.14047.1714695.38974.011369.54984l-.023254.0233c-.1600959.1601-.4100947.12734-.5493205-.0119l-.5529383-.55294c-.029392.0136-.05849.0255-.088884.0367v.23978c0 .21529-.1815784.39687-.396875.39687-.2152965 0-.396875-.18158-.396875-.39687v-.23875c-.030453-.0112-.059438-.0236-.088883-.0372l-.44028321.44028v4.20129c0 .14658.11800419.26459.26458331.26459h4.2333333c.1465792 0 .2645833-.11801.2645833-.26459v-1.32291h1.8520833c.1465792 0 .2645834-.11801.2645834-.26459v-4.7625c0-.14658-.1180042-.26458-.2645834-.26458zm2.0846272 1.5875h2.1166666v3.43958h-1.8520833v-3.175c0-.14658-.1180041-.26458-.2645833-.26458zm-4.2333333 1.5875h1.8520833v1.85208c0 .14658.1180042.26459.2645834.26459h2.1166666v1.32291h-4.2333333zm2.1166667 0h2.1166666v1.85208h-2.1166666z" fill="#3a3a38"/></g><g fill="#bababa" transform="matrix(.26458333 0 0 .26458333 0 288.533321)"><path d="m6 16h4v1h-4z" fill="#797774"/><path d="m14 16h4v1h-4z" fill="#1e8bcd"/><path d="m6 19h4v1h-4z" fill="#797774"/><path d="m14 19h4v1h-4z" fill="#1e8bcd"/><g fill="#797774"><path d="m6 22h4v1h-4z"/><path d="m6 25h4v1h-4z"/><path d="m14 25h4v1h-4z"/><path d="m22 10h4v1h-4z"/><path d="m22 13h4v1h-4z"/><path d="m22 16h4v1h-4z"/><path d="m22 19h4v1h-4z"/></g></g><g transform="matrix(.26458333 0 0 .26458333 0 288.533301)"><g stroke-width=".999999"><path d="m11.123047 9 1.423828 1.423828c.530915.530913.648074 1.473041.04297 2.078125l-.08789.08789c-.605087.605105-1.549964.481267-2.076172-.04492l-2.0898455-2.089845c-.1110863.05139-.2210664.096414-.3359375.138672v.90625c0 .813719-.6862809 1.5-1.5 1.5s-1.5-.686281-1.5-1.5v-.902344c-.1150963-.042414-.2246482-.089042-.3359375-.140625l-1.6640625 1.664063v2.878906h18v-4-1c0-.5540031-.446-1-1-1z" fill="#3a3a38"/><path d="m12.123047 10 .423828.423828c.530915.530913.648074 1.473041.04297 2.078125l-.08789.08789c-.150148.150152-.321553.25494-.501955.320313v1.089844h8v-4zm-3.7871095.455078c-.1110863.05139-.2210664.096414-.3359375.138672v.90625c0 .813719-.6862809 1.5-1.5 1.5s-1.5-.686281-1.5-1.5v-.902344c-.1150963-.042414-.2246482-.089042-.3359375-.140625l-.6640625.664063v2.878906h7v-1.103516c-.215043-.07648-.414889-.192238-.574219-.351562z" fill="#797774"/><path d="m12.121094 3-1.121094 1.1210938v.8789062h.5c.813719 0 1.5.6862809 1.5 1.5s-.686281 1.5-1.5 1.5h-.5v.8769531l.123047.1230469h17.876953v-4-1c0-.5540031-.446-1-1-1z" fill="#3a3a38"/></g><path d="m12 4v1.09375c.575551.2113333 1 .7674249 1 1.40625s-.424449 1.1949167-1 1.40625v.09375h16v-4z" fill="#797774" stroke-width="1.598022"/></g><path d="m.39894206 288.79792c-.0332883-.00053-.0663668.0116-.0914673.0367l-.005684.006c-.0502004.0502-.0492398.13266.002585.18449l.67437589.67437a.92604169.92604169 0 0 0 -.17466636.42168h-.40721029c-.0732896 0-.13229167.059-.13229167.1323s.0590021.13229.13229167.13229h.40772704a.92604169.92604169 0 0 0 .1741496.42168l-.67127686.67127c-.0518236.0518-.0572187.13037-.0118856.1757l.0232545.0233c.0453331.0453.1238763.0399.17569987-.0119l.67127677-.67163a.92604169.92604169 0 0 0 .4216796.17518v.40669c0 .0733.059002.13229.1322918.13229.07329 0 .1322915-.059.1322915-.13229v-.40773a.92604169.92604169 0 0 0 .4216797-.17466l.6717936.67179c.051824.0518.1298501.0572.1751832.0119l.023254-.0233c.045334-.0453.040455-.12387-.011369-.1757l-.6717931-.67179a.92604169.92604169 0 0 0 .1746663-.42116h.4072104c.07329 0 .1322917-.059.1322917-.13229 0-.0733-.059002-.1323-.1322917-.1323h-.40772712a.92604169.92604169 0 0 0 -.1741496-.42168l.6743774-.67437c.051824-.0518.053301-.13429.0031-.18449l-.00568-.006c-.050202-.0502-.1326626-.0487-.1844863.003l-.6743801.67438a.92604169.92604169 0 0 0 -.4216797-.17467v-.40721c0-.0733-.059002-.13229-.1322915-.13229-.07329 0-.1322918.059-.1322918.13229v.40773a.92604169.92604169 0 0 0 -.4216796.17415l-.67437742-.67438c-.0259118-.0259-.0592125-.0393-.0925008-.0398zm1.32084964.79375a.66145833.66145833 0 0 1 .6614582.66146.66145833.66145833 0 0 1 -.6614582.66145.66145833.66145833 0 0 1 -.6614584-.66145.66145833.66145833 0 0 1 .1912028-.46458l.00568-.006a.66145833.66145833 0 0 1 .4645754-.19068z" fill="#ed8733"/><circle cx="1.719792" cy="290.25311" fill="#fafafa" r=".661458"/></g></svg>