<svg height="32" viewBox="0 0 8.4666665 8.4666669" width="32" xmlns="http://www.w3.org/2000/svg"><g transform="translate(0 -288.53331)"><g stroke-width=".264583"><path d="m3.175 290.91458h4.2333333v3.43959h-4.2333333z" fill="#fafafa"/><path d="m1.0583333 292.50208h4.2333334v3.43959h-4.2333334z" fill="#fafafa"/><path d="m3.175 289.32708c-.1465792 0-.2645833.11801-.2645833.26459v1.32291h-1.8520834c-.14657913 0-.2645833.11801-.2645833.26459v4.7625c0 .14658.11800417.26458.2645833.26458h4.2333334c.1465791 0 .2645833-.118.2645833-.26458v-1.32292h1.8520833c.1465792 0 .2645834-.118.2645834-.26458v-4.7625c0-.14658-.1180042-.26459-.2645834-.26459zm2.1166667 1.5875h2.1166666v3.43959h-1.8520833v-3.175c0-.14658-.1180042-.26459-.2645833-.26459zm-4.2333334 1.5875h1.8520834v1.85209c0 .14658.1180041.26458.2645833.26458h2.1166667v1.32292h-4.2333334zm2.1166667 0h2.1166667v1.85209h-2.1166667z" fill="#3a3a38"/></g><g fill="#bababa" transform="matrix(.26458333 0 0 .26458333 0 288.53335)"><path d="m6 16h4v1h-4z" fill="#797774"/><path d="m14 16h4v1h-4z" fill="#1e8bcd"/><path d="m6 19h4v1h-4z" fill="#797774"/><path d="m14 19h4v1h-4z" fill="#1e8bcd"/><g fill="#797774"><path d="m6 22h4v1h-4z"/><path d="m6 25h4v1h-4z"/><path d="m14 25h4v1h-4z"/><path d="m22 10h4v1h-4z"/><path d="m22 13h4v1h-4z"/><path d="m22 16h4v1h-4z"/><path d="m22 19h4v1h-4z"/></g></g><g stroke-width=".264583"><path d="m1.0583333 290.91458c-.14657913 0-.2645833.11801-.2645833.26459v.26458 1.05833h4.7625v-1.05833-.26458c0-.14658-.1180042-.26459-.2645833-.26459z" fill="#3a3a38"/><path d="m1.0583333 291.17917v1.05833h1.8520834v-1.05833zm2.1166667 0v1.05833h2.1166667v-1.05833z" fill="#797774"/><path d="m3.175 289.32708c-.1465792 0-.2645833.11801-.2645833.26459v.26458 1.05833h4.7625v-1.05833-.26458c0-.14658-.1180042-.26459-.2645834-.26459z" fill="#3a3a38"/></g><path d="m3.175 289.59168h4.2333331v1.05833h-4.2333331z" fill="#797774" stroke-width=".42281"/></g></svg>