<svg viewBox="0 0 32 32" xmlns="http://www.w3.org/2000/svg"><path d="m14.685547 6-7.5058595 20h1.9570313c.2080942 0 .3693892-.055138.5058593-.166016.00129-.000671.0025763-.001253.0039063-.001953.1560517-.11929.2519534-.248702.3027344-.392578l1.9160152-5.439453h4.134766v.013672h4.134766l1.916015 5.439453c.050781.143876.146683.273288.302735.392578.0013.0007.002606.001282.003906.001953.136471.110876.297764.166016.505859.166016h1.957031l-7.505859-20.0000001h-1.314453v-.0136719zm1.314453 1.9863281v.0136719l.150391.4765625c.102536.3896427.204453.7491572.30664 1.0761719.102381.3276215.199626.6135766.291016.8574216l.001953.001953 2.679688 7.601563h-3.429688v-.013672h-3.429688l2.679688-7.601562.001953-.001954c.09144-.243845.188635-.5298.291016-.8574215.102184-.3270607.204104-.6865292.30664-1.0761719z" fill="#3a3a38"/></svg>