<svg height="32" viewBox="0 0 32 32" width="32" xmlns="http://www.w3.org/2000/svg"><path d="m16.386719 5-10.9375002 11.035156 8.5839842 9.583985 1.966797-1.81836v-9.800781h10v-9zm5.613281 2c1.104569 0 2 .895431 2 2s-.895431 2-2 2-2-.895431-2-2 .895431-2 2-2z" fill="#fafafa"/><g fill="#3a3a38" transform="translate(5 1)"><path d="m16 4-12 12 10 11 2-1.845703v-1.353516l-1.966797 1.81836-8.5839842-9.583985 10.9375002-11.035156h9.613281v9h1v-10z" transform="translate(-5 -1)"/><path d="m17 6a2 2 0 0 0 -2 2 2 2 0 0 0 2 2 2 2 0 0 0 2-2 2 2 0 0 0 -2-2zm0 1a1 1 0 0 1 1 1 1 1 0 0 1 -1 1 1 1 0 0 1 -1-1 1 1 0 0 1 1-1z"/></g><path d="m17 15h12v14h-12z" fill="#3a3a38"/><path d="m18 16h10v12h-10z" fill="#fafafa"/><g fill="#1e8bcd"><path d="m22 19.5a1.5 1.5 0 0 1 -1.5 1.5 1.5 1.5 0 0 1 -1.5-1.5 1.5 1.5 0 0 1 1.5-1.5 1.5 1.5 0 0 1 1.5 1.5z"/><path d="m23 19h4v1h-4z"/><path d="m22 23.5a1.5 1.5 0 0 1 -1.5 1.5 1.5 1.5 0 0 1 -1.5-1.5 1.5 1.5 0 0 1 1.5-1.5 1.5 1.5 0 0 1 1.5 1.5z"/><path d="m23 23h4v1h-4z"/></g></svg>