<svg viewBox="0 0 32 32" xmlns="http://www.w3.org/2000/svg"><path d="m12.183594 3-8.183594 22h1.3535156c.233384 0 .4313958-.06535.59375-.197266.1725012-.131913.2887267-.28453.3496094-.457031l2.0117188-5.345703h8.1933592c1.014424-1.255867 1.991273-2.460231 2.943359-3.554688l-4.628906-12.445312h-1.316406zm1.316406 2.1640625c.05236.155364.106825.3291366.15625.4609375l4.28125 11.375h-8.875l4.28125-11.375c.049425-.1318009.103887-.3055735.15625-.4609375z" fill="#3a3a38"/><g transform="matrix(1.00000000461 0 0 1.00000000461 .00000039954 -.00000051658)"><path d="m27.691406 10c-.22542.006574-.443679.073594-.634765.193359-5.242111 3.276319-7.223725 6.39338-11.072266 11.035157-.119983.292206-.174733.54833-.193359.783203.252232-.002851.498727-.014405.804687.003906.070096.011762.140585.041312.210938.060547.013444-.100845.036733-.218763.09375-.382813 3.768565-4.564986 5.663157-7.513351 10.685547-10.652343a1.00266 1.00266 0 0 0 .003906 0c.03795-.023793.084545-.037672.132812-.039063.162985-.004665.271443.100553.271485.263672v2.537109c.000038.053407-.015631.10012-.044922.144532v.003906c-2.50979 3.723111-3.145242 5.058158-7.621094 8.958984-.046261.040442-.100682.061419-.162109.064453-.575475.025177-1.38626.007844-2.064454-.097656.101933.107344.203617.215251.291016.337891.000923.001643.001215.004342.001953.005859.169415.240408.290068.49.378907.746094.528279.033722 1.039735.029466 1.441406.011719.285168-.014058.558485-.124579.773437-.3125 4.529708-3.947763 5.299157-5.456989 7.792969-9.15625.140545-.209299.215031-.456875.214844-.708985v-2.533203c-.000186-.714408-.590574-1.2880151-1.304688-1.267578z" fill="#3a3a38" stroke-width="1.264202"/><path d="m27.722656 11.001953c-.048267.001391-.094862.01527-.132812.039063a1.00266 1.00266 0 0 1 -.003906 0c-5.022389 3.138992-6.916982 6.087357-10.685547 10.652343-.057017.16405-.080312.281874-.09375.382813.463346.126683.919458.405383 1.294921.800781.678526.106032 1.488523.122853 2.064454.097656.061427-.003034.115848-.024011.162109-.064453 4.475852-3.900826 5.111304-5.235873 7.621094-8.958984v-.003906c.029291-.044412.04496-.091125.044922-.144532v-2.537109c-.000042-.163119-.1085-.268337-.271485-.263672z" fill="#fafafa" stroke-width="1.264202"/><g><path d="m15.15625 22.009766c-.05604.000193-.11062.004801-.166016.013672-.861141.14117-1.823873.440633-2.632812 1.128906-.799494.680238-1.156748 1.31455-1.664063 1.982422-.0022.0037-.003659.005965-.005859.009765l-1.4453125 1.947266c-.574829.775025-.0486386 1.902781.8886715 1.904297h3.339844c.01741-.000357.033401-.000581.050781-.001953 1.992813-.09787 3.805246-.876425 4.972657-2.089844.07973-.0831.14637-.17727.199218-.28125.313645-.615499.331828-1.216374.269532-1.785156-.0623-.568779-.212142-1.111696-.56836-1.617188-.000739-.0015-.001053-.004259-.001953-.005859-.458211-.642967-1.139791-1.088959-1.796875-1.199219-.547311-.03276-.91274-.015869-1.439453-.005859zm-.009766 1c-.01077.0018-.005418.000065.013672 0 .00586.000052.011678.000052.017578 0 .502137-.00955.822534-.017051 1.271485.005859.335539.062672.818347.346258 1.126953.779297l-.048828-.076172c-.0049-.008219.001847-.001112-.001953-.007812.01554.02881.032491.056834.050781.083984.239126.339334.345824.687901.396484 1.15039.051449.469747.030204.826096-.171875 1.222657v.001953c-.0077.01513-.017287.026272-.029297.039062-.031955.03322-.070185.063143-.103515.095704l-5.472657-1.527344c.22598-.295617.468219-.573676.808594-.863282.619918-.527446 1.389292-.780455 2.142578-.904296z" fill="#0063b1"/><path d="m11.53125 25.683594c-.0054.0071-.0083.01234-.01367.01953a.99948558.99948558 0 0 1 -.02734.04102l-1.447265 1.941406c-.1247191.168155-.046862.308372.08984.308594h3.337891a.99948558.99948558 0 0 1 .002 0c1.180206-.05797 2.27261-.395107 3.15625-.908203z" fill="#83beec"/><path d="m15.146484 23.009766c-.753286.123841-1.52266.37685-2.142578.904296-.340375.289605-.582615.567665-.808594.863282l5.472657 1.527344c.03333-.03256.07156-.06248.103515-.0957.01201-.01279.0216-.02393.0293-.03906v-.002c.202079-.396561.223324-.752911.171875-1.222657-.05066-.462489-.157358-.811056-.396484-1.15039-.308606-.433039-.791414-.716625-1.126953-.779297-.448951-.02291-.769348-.01545-1.271485-.0059-.0059.000052-.01172.000052-.01758 0-.01909.000065-.02444.0018-.01367 0zm2.429688.785156c-.01829-.02715-.03524-.05517-.05078-.08398.0038.0067-.0029-.000419.002.0078z" fill="#fafafa"/></g></g></svg>