<svg height="32" viewBox="0 0 8.4666665 8.4666669" width="32" xmlns="http://www.w3.org/2000/svg"><g stroke-width=".264583" transform="translate(0 -288.53332)"><path d="m1.0583333 289.32707c-.14657913 0-.2645833.118-.2645833.26458v6.35c0 .14658.11800417.26459.2645833.26459h6.35c.1465792 0 .2645834-.11801.2645834-.26459v-6.35c0-.14658-.1180042-.26458-.2645834-.26458zm0 .26458h6.35v2.38125.26459 1.05833.26458 1.05834.26458 1.05833h-1.5875-.2645833-1.3229167-.2645833-1.3229167-.2645833-1.3229167v-1.05833-.26458-1.05834-.26458-1.05833-.26459z" fill="#3a3a38"/><path d="m1.0583333 289.59165h6.35v6.35h-6.35z" fill="#fafafa"/><path d="m1.0583333 290.91457h1.3229167v5.02708h-1.3229167z" fill="#c8c6c4"/><path d="m.79375 289.32707h6.8791667v1.5875h-6.8791667z" fill="#83beec"/><path d="m2.38125 290.91457v1.05833h-1.3229167v.26459h1.3229167v1.05833h-1.3229167v.26458h1.3229167v1.05834h-1.3229167v.26458h1.3229167v1.05833h.2645833v-1.05833h1.3229167v1.05833h.2645833v-1.05833h1.3229167v1.05833h.2645833v-1.05833h1.5875v-.26458h-1.5875v-1.05834h1.5875v-.26458h-1.5875v-1.05833h1.5875v-.26459h-1.5875v-1.05833h-.2645833v1.05833h-1.3229167v-1.05833h-.2645833v1.05833h-1.3229167v-1.05833zm.2645833 1.32292h1.3229167v1.05833h-1.3229167zm1.5875 0h1.3229167v1.05833h-1.3229167zm-1.5875 1.32291h1.3229167v1.05834h-1.3229167zm1.5875 0h1.3229167v1.05834h-1.3229167z" fill="#797774"/><path d="m1.0583333 289.32707c-.14657913 0-.2645833.118-.2645833.26458v1.32292h.2645833 1.3229167.2645833 1.3229167.2645833 1.3229167.2645833 1.5875.2645834v-1.32292c0-.14658-.1180042-.26458-.2645834-.26458zm0 .26458h1.3229167v1.05834h-1.3229167zm1.5875 0h1.3229167v1.05834h-1.3229167zm1.5875 0h1.3229167v1.05834h-1.3229167zm1.5875 0h1.5875v1.05834h-1.5875z" fill="#1e8bcd"/></g></svg>