<svg viewBox="0 0 32 32" xmlns="http://www.w3.org/2000/svg"><path d="m27 5c.371492 0 .703958-.0039399 1.007812.0019531-.002791-.0000227-.005015-.0019531-.007812-.0019531zm1.007812.0019531c.1371.0011412.268.0292239.386719.0800781-.118659-.0508018-.249323-.0789613-.386719-.0800781zm.386719.0800781c.11872.0508543.224708.1247145.314453.2148438-.089724-.0905058-.195419-.1638816-.314453-.2148438zm.314453.2148438c.089746.0901293.162714.19744.212891.3164062-.049949-.1197453-.123061-.2257946-.212891-.3164062zm.291016.7382812c-.046086.0777684-.076956.1443907-.140625.234375l-.859375.6660157v19.0644531h-24v-1c-.5522619-.000055-.9999448-.447738-1-1v2c0 .554.446 1 1 1h24c.554 0 1-.446 1-1z" fill="#3a3a38"/><path d="m28 6.9355469-.001953.0019531-.998047.7675781v4.2949219h-5.587891l-1.300781 1h6.888672v12h-22v-.384766l-.4335938.333985c-.0157979.02202-.0255246.029441-.0410156.050781h-.5253906v1h24zm-2 1.5371093-3.287109 2.5273438h3.287109zm-7.189453 5.5273438-12.810547 9.847656v.152344h20v-10z" fill="#fafafa"/><path d="m27 7.7050781-1 .7675781v2.5273438h-3.287109l-1.300782 1h5.587891zm-6.888672 5.2949219-1.300781 1h7.189453v10h-20v-.152344l-1 .767578v.384766h22v-12z" fill="#3a3a38"/><path d="m5 4.9999996c-1.108 0-2 .892-2 2v1 15.0000004 1c.0000552.552262.4477381.999945 1 1h.5253906c.015491-.02134.025218-.02876.041016-.05078l23.4316404-18.0117204.861328-.6679688c.063669-.0899843.094539-.1566067.140625-.234375v-.0351562c-.000055-.5494604-.443791-.9934824-.992188-.9980469-.303854-.005893-.63632-.0019531-1.007812-.0019531zm-1 1h23l-23 18.0000004v-.4375z" fill="#3a3a38"/><path d="m4 5.9999996h23l-23 18.0000004v-.4375z" fill="#fafafa"/></svg>