<svg height="32" viewBox="0 0 8.4666665 8.4666669" width="32" xmlns="http://www.w3.org/2000/svg"><g stroke-width=".264583" transform="translate(0 -288.53332)"><path d="m2.9104167 289.59165v6.35h1.5875v-6.35z" fill="#fafafa"/><path d="m2.9104167 289.32707v.26458h1.3229166v6.35h-1.3229166v.26459h1.5875c0-2.38276 0-4.83446 0-6.87917z" fill="#3a3a38"/><path d="m.79375 289.59165v6.35h1.8520833v-6.35z" fill="#fafafa"/><path d="m2.38125 290.91457h.2645833v5.29167h-.2645833z" fill="#3a3a38"/><path d="m1.0583333 289.32707c-.14657913 0-.2645833.118-.2645833.26458v6.35c0 .14658.11800417.26459.2645833.26459h1.3229167c.1465792 0 .2645833-.11801.2645833-.26459h-.2645833-1.3229167v-6.35h1.3229167.2645833c0-.14658-.1180041-.26458-.2645833-.26458z" fill="#3a3a38"/><path d="m2.9104167 290.64999v.26458h1.3229166v-.26458zm0 1.32291v.26459h1.3229166v-.26459zm0 1.32292v.26458h1.3229166v-.26458zm0 1.32292v.26458h1.3229166v-.26458z" fill="#797774" fill-opacity=".959559"/><path d="m2.38125 289.59165v1.05834h-1.3229167v.26458h1.3229167v1.05833h-1.3229167v.26459h1.3229167v1.05833h-1.3229167v.26458h1.3229167v1.05834h-1.3229167v.26458h1.3229167v1.05833h.2645833v-6.35z" fill="#797774" fill-opacity=".959559"/><path d="m6.7494589 293.03124c-.033816 0-.067623.0128-.093534.0387-.051824.0518-.051824.13525 0 .18707l1.0945069 1.09709h-2.5910568c-.07329 0-.1322917.059-.1322917.1323s.059002.13229.1322917.13229h2.5910564l-1.0945069 1.09709c-.051824.0518-.051824.13524 0 .18707.025912.0259.059718.0387.093534.0387s.067622-.0128.093534-.0387l1.320333-1.32292c.012441-.0124.022246-.0273.028939-.0439.00618-.0153.00982-.032.00982-.0496s-.00364-.0343-.00982-.0496c-.00669-.0166-.016499-.0315-.028939-.0439l-1.320333-1.32292c-.025912-.0259-.059717-.0387-.093534-.0387z" fill="#1e8bcd"/></g></svg>