<svg height="32" viewBox="0 0 8.4666665 8.4666669" width="32" xmlns="http://www.w3.org/2000/svg"><g transform="translate(0 -288.53332)"><path d="m.52916666 290.12082v3.70417h3.17499994v-1.98076c.0000625-.21016.191879-.40123.4020426-.40049a.2651588.2651588 0 0 0 .0005292 0c.093108.00045.1852342.0344.2563151.0946a.2651588.2651588 0 0 0 .0005291 0l2.700069 2.28668h.8738484v-3.70417z" fill="#fafafa" stroke-width=".264583"/><path d="m.26458333 289.85624v4.23333h.26458333 3.17499994v-.26458h-3.17499994v-3.70417h7.40833334v3.70417h-.8738484l.3126422.26458h.5612062.2645833v-4.23333h-.2645833-7.40833334z" fill="#3a3a38" stroke-width=".249452"/><path d="m3.7041669 290.38541v1.45882c.0000579-.19458.1648656-.37107.3560506-.39584v-1.06298zm-1.23455.86403c-.1537905 0-.2938365.0265-.4206462.0791-.1254606.0513-.2426443.12939-.3519165.23461l.064596.11318c.010792.0189.024837.0344.042375.0465.017537.0121.038246.0186.062529.0186.031028 0 .061788-.011.091467-.0326.031028-.0216.067217-.0452.1090372-.0708.04182-.0256.091135-.0492.1477947-.0708.058009-.0216.1287496-.0326.2123901-.0326.1254606 0 .2205.0391.2852538.11731.066103.0769.099219.19244.099219.34623v.15193c-.2239405.005-.4125832.0261-.5663737.0625-.1537904.0351-.2788723.0808-.3746541.13746-.095782.0567-.1650868.12145-.208256.1943-.04182.0715-.062528.14655-.062528.22479 0 .089.014045.16644.042375.23255.029679.0648.069458.11929.1193725.16381.051263.0432.109597.0756.1756999.0971.067452.0202.139629.0305.2165242.0305.074197 0 .1425829-.007.2046387-.0202.062056-.0121.120188-.0312.1741496-.0568.053962-.0256.1049135-.0566.1534791-.093.049914-.0378.1006652-.0804.1519285-.12764l.044442.18448c.00674.0337.01987.0559.038758.0667.018886.0108.04554.016.080615.016h.1581299v-1.26452c0-.11197-.015481-.21367-.046509-.30541-.029679-.0917-.073766-.17057-.1317749-.23668-.058009-.0661-.1301857-.11685-.2165242-.15192-.086339-.0364-.184968-.0548-.2955892-.0548zm2.2262208.004c-.1349039 0-.2542416.0281-.3581178.0847-.059609.0317-.1142638.0722-.1663981.11731.069843.0122.137473.0368.1917195.0827a.2651588.2651588 0 0 0 .0005292 0l.032039.0269c.056167-.0183.1155467-.0305.1808675-.0305.1591866 0 .2815977.0567.3679362.17002.073694.0967.1142215.24238.1250569.4315l.3570844.3023c.00868-.0687.013951-.1401.013951-.21549 0-.15109-.017634-.28642-.05271-.40514-.033726-.12006-.083041-.22177-.1477944-.30541-.064754-.0836-.1428766-.14772-.2346111-.19223-.091735-.0445-.1948735-.0667-.3095418-.0667zm1.9202961 0c-.1429981 0-.2697174.0257-.3803386.077-.1092724.0499-.2019562.11994-.2775024.21032-.074197.0904-.1308931.19856-.1700154.32402-.039122.12411-.058394.25965-.058394.40669 0 .16189.020709.30624.062528.43305.00866.0252.020569.0461.030489.0698l.5932456.50229c.046562.008.093855.0145.1431438.0145.067452 0 .1336836-.006.1984375-.0181.066103-.0122.1294625-.0305.1901693-.0548.060707-.0256.1174027-.0573.1700154-.0951.052612-.0391.1004911-.0849.1436603-.13746l-.1033526-.12971c-.01619-.0229-.037615-.0341-.064596-.0341-.024283 0-.047863.01-.070797.03-.021585.0202-.049473.0429-.083199.0672s-.075142.0464-.1250571.0667c-.049914.0202-.1139918.0305-.1922362.0305-.080942 0-.1538375-.0162-.2185914-.0486-.064754-.0337-.1200139-.0823-.1658813-.14573-.045866-.0634-.081854-.14132-.107487-.23306-.024283-.0931-.036174-.19857-.036174-.31729 0-.11467.011173-.21833.034106-.31006.024284-.0917.058835-.16914.1033529-.23254.045867-.0648.1025636-.11407.1700154-.1478.068802-.0351.1476415-.0527.2366783-.0527.067452 0 .124148.008.1700154.0243.047216.0162.086996.0346.1193726.0548.032378.0189.059548.0365.081132.0527.021582.0162.042292.0243.062528.0243.018889 0 .032932-.004.042375-.0103.010792-.008.021765-.0193.032556-.0341l.093017-.12971c-.078244-.081-.1680562-.14359-.2692342-.18811-.101178-.0459-.2190795-.0687-.3539836-.0687zm-3.804419 1.1188v.40876c-.039122.0405-.078901.0779-.1193726.11162-.039122.0324-.081055.0597-.1255736.0827-.044518.0216-.091679.0385-.1415935.0507-.049914.0121-.1044565.0181-.1638143.0181-.044518 0-.086452-.005-.1255737-.016-.039122-.0121-.072956-.0298-.1012858-.0527-.02833-.0243-.051192-.0545-.06873-.091-.016189-.0378-.024288-.0821-.024288-.13332 0-.054.015481-.10256.046509-.14573.031028-.0445.081061-.0834.1498616-.11576.07015-.0324.1606801-.0576.2713013-.0765.1106212-.0202.2447219-.0341.4025594-.0408z" fill="#3a3a38" stroke-width=".264583"/><g fill-rule="evenodd" transform="matrix(.26458333 0 0 .26458333 0 288.53332)"><path d="m15.515625 12.001953a.51187412.51187412 0 0 0 -.513672.511719v17.857422a.51187412.51187412 0 0 0 .886719.347656l3.640625-3.9375 1.919922 4.082031-.01953-.04687c.197909.561415.669926.930052 1.171874 1.082032.501949.151979 1.045418.125671 1.546876-.03711.501457-.162781.97151-.469805 1.269531-.943359s.382499-1.114693.152343-1.767578a.51187412.51187412 0 0 0 -.01562-.03906l-2.273443-5.099617h5.205078a.51187412.51187412 0 0 0 .330078-.902344l-12.972656-10.986328a.51187412.51187412 0 0 0 -.328125-.121094z" fill="#3a3a38"/><path d="m16 13.5625v15.566406l3.3125-3.582031a.48637676.48637676 0 0 1 .796875.123047l2.242187 4.769531a.48637676.48637676 0 0 1 .01953.04492c.08516.241575.250782.377613.519531.458984.268749.08137.628758.07278.949219-.03125.32046-.104026.590604-.296939.734375-.52539s.20028-.491291.05469-.904297l-2.580078-5.785156a.48637676.48637676 0 0 1 .44336-.683594h4.667968z" fill="#fafafa"/></g></g></svg>