<svg height="32" viewBox="0 0 8.4666664 8.4666669" width="32" xmlns="http://www.w3.org/2000/svg"><path d="m.9255249.79271647a.13194757.13194757 0 0 0 -.12867431.16226399l1.05885011 4.49791664a.13194757.13194757 0 0 0 .1286743.1038696h1.1895915v1.9843749a.13194757.13194757 0 0 0 .1328084.1328084h4.2343667a.13194757.13194757 0 0 0 .1328084-.1328084v-4.7640501a.13194757.13194757 0 0 0 -.1328084-.1328085h-4.2343667a.13194757.13194757 0 0 0 -.1328084.1328085v1.4552083h-.2909385l-.7834146-3.3357137a.13194757.13194757 0 0 0 -.1286743-.10386963zm.1684652.26561683h.7710123l.7834148 3.3382976a.13266222.13266222 0 0 0 .1286743.1012857h.5296834a.13266222.13266222 0 0 0 .1328084-.1328084v-1.4552083h3.9687499v4.4984333h-3.9687499v-1.9843749a.13266222.13266222 0 0 0 -.1328084-.1328084h-1.21698z" fill="#3a3a38"/><path d="m1.09375 1.0585.9960938 4.23242h1.2167968a.13266222.13266222 0 0 1 .1328125.13281v1.98438h3.96875v-4.49805h-3.96875v1.45508a.13266222.13266222 0 0 1 -.1328125.13281h-.5292968a.13266222.13266222 0 0 1 -.1289063-.10156l-.7832031-3.33789z" fill="#fafafa"/><path d="m15 14v1h11v-1zm0 2v1h10v-1zm0 2v1h10v-1zm0 2v1h9v-1zm0 2v1h8v-1zm0 2v1h11v-1z" fill="#1e8bcd" transform="scale(.26458333)"/></svg>