<svg height="32" viewBox="0 0 8.4666665 8.4666669" width="32" xmlns="http://www.w3.org/2000/svg"><g transform="matrix(.26458333 0 0 .26458333 -1.058333 -2.38124)"><path d="m26.001953 4.9980469-21.9999999.0019531-.0019531 14.998047 2-.001953v-7.496094c0-.831.669-1.5 1.5-1.5h18.501953z" fill="#fafafa" transform="translate(4 8.999962)"/><path d="m26 3.9980469-22 .0019531c-.5539999.00005-1 .446-1 1l-.0019531 15c0 .554.456533.892483 1 1h2.0019531v-1h-2.0019531l.0019531-14.9980469v-.0019531l22-.0019531v.0019531 6h1v-6.0019531c.000114-.554-.446-1.00005-1-1z" fill="#3a3a38" transform="translate(4 8.999962)"/><path d="m10.998047 16h16.001953v2h-16.001953z" fill="#797774"/></g><g transform="matrix(.26458333 0 0 .26458333 0 -.26404)"><path d="m30.001953 13.998-22.0000059.002-.0019471 14.998 2.998053-.002.002.002 19-.002z" fill="#fafafa"/><path d="m31 13.998c.000114-.554-.446-1.00005-1-1l-22.000006.002c-.5539999.00005-1 .446-1 1l-.00195 14.999953c0 .554.456533.892483 1 1l22.000006-.002c.543467-.107517 1-.446 1-1zm-1 0v.002l-.0019 14.997953-22.0000001.002.0019001-14.998v-.001953z" fill="#3a3a38"/><path d="m11 19.999953v1h1v-1zm2 0v1h14.001953v-1zm-2 3v1h1v-1zm2 0v1h10.001953v-1zm-2 3v1h1v-1zm2 0v1l12-.002v-1z" fill="#c8c6c4"/><path d="m10.998047 16h16.001953v2h-16.001953z" fill="#797774"/></g></svg>