<svg viewBox="0 0 32 32" xmlns="http://www.w3.org/2000/svg"><path d="m7 4v24h18v-18.6406494l-6-5.3593506z" fill="#fafafa"/><path d="m7 3c-.554 0-1 .446-1 1v24c0 .554.446 1 1 1h18c.554 0 1-.446 1-1v-16.109375-1.641221-.207924c0-.4506797.09887-.4265949-.604637-1.067589l-5.307389-5.2370335c-.709525-.7368575-1.478385-.7368575-1.094804-.7368575h-.331557-.661613zm0 1h11v6c0 .554.446 1 1 1h6v17h-18z" fill="#3a3a38"/><path d="m19 10h6l-6-6z" fill="#fafafa" fill-rule="evenodd"/><path d="m9 23h14v3h-14z" fill="#ed8733"/><path d="m9 6h7v3h-7z" fill="#ed8733"/><g fill="#f8db8f"><path d="m10 7h5v1h-5z" stroke-width=".48795"/><path d="m10 24h12v1h-12z" stroke-width=".534522"/></g></svg>