<svg viewBox="0 0 32 32" xmlns="http://www.w3.org/2000/svg"><path d="m5.5 2.9999996a.49809668.49809668 0 0 0 -.5.4980469v23.5332035a.49809668.49809668 0 0 0 .8652344.337891l4.9453126-5.375 2.623047 5.611328-.01953-.04687c.239343.682691.805907 1.128106 1.423829 1.316406s1.299532.157307 1.925781-.04687c.626248-.204187 1.208821-.589416 1.572266-1.169922.363444-.580506.468249-1.356315.18164-2.173828a.49809668.49809668 0 0 0 -.01563-.03711l-3.089844-6.970704h7.089844a.49809668.49809668 0 0 0 .322266-.876953l-17.0039035-14.4804778a.49809668.49809668 0 0 0 -.3203125-.1191406zm.5 1.5859375 15.136719 12.8906249h-6.490235a.50200332.50200332 0 0 0 -.458984.705079l3.384766 7.634765c.201702.576907.125545.97588-.08398 1.310547-.209797.335095-.590988.60518-1.035156.75-.444168.144824-.940807.157853-1.324219.04102-.383411-.116838-.642104-.325983-.769531-.689453a.50200332.50200332 0 0 0 -.01953-.04687l-2.9375-6.285157a.50200332.50200332 0 0 0 -.824225-.126962l-4.578125 4.97461z" fill="#3a3a38" fill-rule="evenodd"/><path d="m6 4.5859371v21.1582039l4.578125-4.97461a.50200332.50200332 0 0 1 .824219.126953l2.9375 6.285157a.50200332.50200332 0 0 1 .01953.04687c.127427.36347.38612.572615.769531.689453.383412.116837.880051.103804 1.324219-.04102.444168-.14482.825359-.414905 1.035156-.75.20953-.334667.285682-.73364.08398-1.310547l-3.38476-7.634756a.50200332.50200332 0 0 1 .458984-.705079h6.490235z" fill="#fafafa" fill-rule="evenodd"/><path d="m26 15c-2.21 0-4 1.79-4 4h2c0-1.1.9-2 2-2s2 .9 2 2c0 .55-.219844 1.050156-.589844 1.410156l-1.240234 1.259766c-.72.73-1.169922 1.730078-1.169922 2.830078v.5h2c0-1.5.449922-2.100078 1.169922-2.830078l.90039-.919922c.57-.57.929688-1.37.929688-2.25 0-2.21-1.79-4-4-4zm-1 13v2h2v-2z" fill="#fb983b"/></svg>