<svg viewBox="0 0 32 32" xmlns="http://www.w3.org/2000/svg"><path d="m7 4v24h7.001953v-15.486328c.000461-.836235.679392-1.513416 1.515625-1.511719.35619.000899.700635.127473.972656.357422l8.509766 7.207031v-8.566406l-6-6z" fill="#fafafa"/><path d="m7 3c-.554 0-1 .446-1 1v24c0 .554.446 1 1 1h7.001953v-1h-7.001953v-24h11v6c0 .554.446 1 1 1h6v7.566406l1 .845703v-7.521484-1.640625-.208984c0-.4506805.098038-.4254125-.605469-1.0664066l-5.30664-5.2382813c-.709525-.7368575-1.477331-.7363281-1.09375-.7363281h-.332032-.662109zm12 1 6 6h-6z" fill="#3a3a38"/><path d="m19 10h6l-6-6z" fill="#fafafa" fill-rule="evenodd"/><path d="m15.515625 12.001953a.51187413.51187413 0 0 0 -.513672.511719v17.857422a.51187413.51187413 0 0 0 .886719.347656l3.640625-3.9375 1.919922 4.082031-.01953-.04687c.197909.561415.669926.930051 1.171874 1.082032.50195.151979 1.045417.125671 1.546876-.03711.501457-.162781.97151-.469805 1.269531-.943359s.3825-1.114693.152343-1.767578a.51187413.51187413 0 0 0 -.01562-.03906l-2.273443-5.099617h5.205078a.51187413.51187413 0 0 0 .330078-.902344l-12.972656-10.986328a.51187413.51187413 0 0 0 -.328125-.121094zm.484375 1.560547 11.160156 9.451172h-4.667968a.48637677.48637677 0 0 0 -.44336.683594l2.580078 5.785156c.14559.413006.08908.675846-.05469.904297-.143771.228451-.413915.421364-.734375.52539-.320461.10403-.68047.11262-.949219.03125s-.434371-.217409-.519531-.458984a.48637677.48637677 0 0 0 -.01953-.04492l-2.242186-4.769533a.48637677.48637677 0 0 0 -.796875-.123047l-3.3125 3.582031z" fill="#3a3a38"/><path d="m16 13.562501v15.566405l3.3125-3.582031a.48637676.48637676 0 0 1 .796875.123047l2.242187 4.769531a.48637676.48637676 0 0 1 .01953.04492c.08516.241575.250782.377613.519531.458984.268749.08137.628758.07278.949219-.03125.32046-.104026.590604-.296939.734375-.52539s.20028-.491291.05469-.904297l-2.580078-5.785156a.48637676.48637676 0 0 1 .44336-.683594h4.667968z" fill="#fafafa"/></svg>