<svg viewBox="0 0 32 32" xmlns="http://www.w3.org/2000/svg"><path d="m3.5 3a.50005.50005 0 0 0 -.5.5v8a.50005.50005 0 0 0 .5.5h8a.50005.50005 0 0 0 .5-.5v-8a.50005.50005 0 0 0 -.5-.5zm11 0a.50005.50005 0 0 0 -.5.5v8a.50005.50005 0 0 0 .5.5h14a.50005.50005 0 0 0 .5-.5v-8a.50005.50005 0 0 0 -.5-.5zm-10.5 1h7v7h-7zm11 0h13v7h-13zm-11.5 10a.50005.50005 0 0 0 -.5.5v14a.50005.50005 0 0 0 .5.5h8a.50005.50005 0 0 0 .5-.5v-14a.50005.50005 0 0 0 -.5-.5zm11 0a.50005.50005 0 0 0 -.5.5v14a.50005.50005 0 0 0 .5.5h14a.50005.50005 0 0 0 .5-.5v-14a.50005.50005 0 0 0 -.5-.5zm-10.5 1h7v13h-7zm11 0h13v13h-13z" fill="#3a3a38"/><path d="m4 4v7h7v-7zm11 0v7h13v-7zm-11 11v13h7v-13zm11 0v13h13v-13z" fill="#fafafa"/></svg>