<svg viewBox="0 0 32 32" xmlns="http://www.w3.org/2000/svg"><path d="m3.5 3a.50005.50005 0 0 0 -.5.5v25a.50005.50005 0 0 0 .5.5h6a.50005.50005 0 0 0 .5-.5v-25a.50005.50005 0 0 0 -.5-.5zm10 0a.50005.50005 0 0 0 -.5.5v25a.50005.50005 0 0 0 .5.5h6a.50005.50005 0 0 0 .5-.5v-25a.50005.50005 0 0 0 -.5-.5zm9 0a.50005.50005 0 0 0 -.5.5v25a.50005.50005 0 0 0 .5.5h6a.50005.50005 0 0 0 .5-.5v-25a.50005.50005 0 0 0 -.5-.5zm-18.5 1h5v24h-5zm10 0h5v24h-5zm9 0h5v24h-5z" fill="#3a3a38"/><path d="m4 4v24h5v-24zm10 0v24h5v-24zm9 0v24h5v-24z" fill="#fafafa"/></svg>