<svg viewBox="0 0 32 32" xmlns="http://www.w3.org/2000/svg"><path d="m3.5 3a.50005.50005 0 0 0 -.3535156.8535156l12.1464846 12.1464844-12.1464846 12.146484a.50005.50005 0 0 0 .3535156.853516h25a.50005.50005 0 0 0 .353516-.853516l-12.146485-12.146484 12.146485-12.1464844a.50005.50005 0 0 0 -.353516-.8535156zm1.2070312 1h22.5859378l-11.292969 11.292969zm11.2929688 12.707031 11.292969 11.292969h-22.5859378z" fill="#3a3a38"/><path d="m4.7070312 4 11.2929688 11.292969 11.292969-11.292969zm11.2929688 12.707031-11.2929688 11.292969h22.5859378z" fill="#fafafa"/></svg>