<svg viewBox="0 0 32 32" xmlns="http://www.w3.org/2000/svg"><path d="m10.078125 3a.50005.50005 0 0 0 -.4433594.2675781l-6.578125 12.4999999a.50005.50005 0 0 0 0 .464844l6.578125 12.5a.50005.50005 0 0 0 .4433594.267578h11.84375a.50005.50005 0 0 0 .443359-.267578l6.578125-12.5a.50005.50005 0 0 0 0-.464844l-6.578125-12.4999999a.50005.50005 0 0 0 -.443359-.2675781zm.302734 1h11.238282l6.316406 12-6.316406 12h-11.238282l-6.3164059-12z" fill="#3a3a38"/><path d="m10.380859 4-6.3164059 12 6.3164059 12h11.238282l6.316406-12-6.316406-12z" fill="#fafafa"/></svg>