<svg viewBox="0 0 32 32" xmlns="http://www.w3.org/2000/svg"><path d="m15.996094 3c-2.622852-.0001628-5.243232.8981187-7.5253909 2.6757812a.48248594.48248594 0 0 0 -.0488281.7167969l7.232422 7.4433599a.48248594.48248594 0 0 0 .691406 0l7.232422-7.4433599a.48248594.48248594 0 0 0 -.048828-.7167969c-2.286606-1.7767886-4.910352-2.6756185-7.533203-2.6757812zm0 .9921875c2.22163.0001378 4.437728.7332582 6.443359 2.1503906l-6.439453 6.6269529-6.4394531-6.628906c2.0010881-1.4167544 4.2143901-2.1485754 6.4355471-2.1484375zm-9.9531252 4.2929687a.48248594.48248594 0 0 0 -.3671876.1875c-3.5395091 4.5605268-3.5483708 10.4892868 0 15.0566408a.48248594.48248594 0 0 0 .7167969.048828l7.4433599-7.232422a.48248594.48248594 0 0 0 0-.691406l-7.4433599-7.232422a.48248594.48248594 0 0 0 -.3496093-.1367188zm19.9062502 0a.48248594.48248594 0 0 0 -.341797.1367188l-7.44336 7.232422a.48248594.48248594 0 0 0 0 .691406l7.44336 7.232422a.48248594.48248594 0 0 0 .716797-.050781c3.539403-4.560424 3.548377-10.489281 0-15.0566409a.48248594.48248594 0 0 0 -.375-.1855469zm-19.8066409 1.2753907 6.6269529 6.4394531-6.628906 6.439453c-2.8295054-4.004475-2.8218114-8.879699.0019531-12.8789061zm19.7167969 0c2.829433 4.0043891 2.821541 8.8798331-.001953 12.8789061l-6.626953-6.439453zm-9.859375 8.4570311a.48248594.48248594 0 0 0 -.345703.146484l-7.232422 7.44336a.48248594.48248594 0 0 0 .0488281.716797c4.5673539 3.548371 10.4961149 3.539509 15.0566409 0a.48248594.48248594 0 0 0 .050781-.716797l-7.232422-7.44336a.48248594.48248594 0 0 0 -.345703-.146484zm0 1.212891 6.439453 6.626953c-3.999207 2.823764-8.874431 2.831458-12.8789061.001953z" fill="#3a3a38"/><path d="m15.996094 3.9921875c-2.221157-.0001379-4.434459.7316831-6.4355471 2.1484375l6.4394531 6.628906 6.439453-6.6269529c-2.005631-1.4171324-4.221729-2.1502528-6.443359-2.1503906zm-9.8535159 5.5683594c-2.8237645 3.9992071-2.8314585 8.8744311-.0019531 12.8789061l6.628906-6.439453zm19.7167969 0-6.628906 6.4394531 6.626953 6.439453c2.823494-3.999073 2.831386-8.874517.002-12.8789061zm-9.859375 9.6699221-6.4394531 6.628906c4.0044751 2.829505 8.8796991 2.821811 12.8789061-.002z" fill="#fafafa"/></svg>