<svg viewBox="0 0 32 32" xmlns="http://www.w3.org/2000/svg"><path d="m9.8359375 3c-2.0159599 0-3.73277 1.5820085-4.9257813 3.9355469-1.1930112 2.3535383-1.9101562 5.5442221-1.9101562 9.0644531s.717145 6.710915 1.9101562 9.064453c1.1930113 2.353538 2.9098214 3.935547 4.9257813 3.935547h18.6699215v-1c-1.482727 0-2.839963-1.203057-3.859375-3.373047s-1.640625-5.235607-1.640625-8.626953c0-3.391345.621213-6.4569628 1.640625-8.6269531s2.376648-3.3730469 3.859375-3.3730469a.50005.50005 0 0 0 0-1zm0 1h16.0937505c-.860223.6965605-1.603006 1.7050217-2.1875 2.9492188-1.105924 2.3541427-1.736329 5.5386592-1.736329 9.0507812s.630406 6.696638 1.736329 9.050781c.584495 1.244197 1.327277 2.252659 2.1875 2.949219h-16.0937505c-1.4827621 0-2.9329261-1.216124-4.0332031-3.386719-1.100277-2.170594-1.8027344-5.230044-1.8027344-8.613281 0-3.383236.7024574-6.4426865 1.8027344-8.6132812 1.100277-2.1705949 2.550441-3.3867188 4.0332031-3.3867188z" fill="#3a3a38"/><path d="m9.8359375 4c-1.4827621 0-2.9329261 1.2161239-4.0332031 3.3867188-1.100277 2.1705948-1.8027344 5.2300452-1.8027344 8.6132812 0 3.383237.7024574 6.442687 1.8027344 8.613281 1.100277 2.170595 2.550441 3.386719 4.0332031 3.386719h16.0937505c-.860223-.69656-1.603005-1.705022-2.1875-2.949219-1.105923-2.354143-1.736329-5.538659-1.736329-9.050781s.630406-6.6966384 1.736329-9.0507812c.584495-1.244197 1.327277-2.2526583 2.1875-2.9492188z" fill="#fafafa"/></svg>