<svg viewBox="0 0 32 32" xmlns="http://www.w3.org/2000/svg"><path d="m15.992188 3a.50005.50005 0 0 0 -.345704.1464844l-.533203.5332031-10.9589841 10.4589845a.50005.50005 0 0 0 .3457031.861328h23a.50005.50005 0 0 0 .345703-.861328l-10.958984-10.4589845-.533203-.5332031a.50005.50005 0 0 0 -.361328-.1464844zm.007812 1.1953125.189453.1894531a.49157456.49157456 0 0 0 .007813.0078125l10.074218 9.6152339h-20.5429684l10.0742184-9.6152339a.49157456.49157456 0 0 0 .007813-.0078125zm-11.5 12.8046875a.50005.50005 0 0 0 -.3457031.861328l10.9589841 10.458984.533203.533204a.50005.50005 0 0 0 .707032 0l.533203-.533204 10.958984-10.458984a.50005.50005 0 0 0 -.345703-.861328zm1.2285156.992188h20.5429684l-10.074218 9.615234a.49157456.49157456 0 0 0 -.007813.007812l-.189453.189454-.189453-.189454a.49157456.49157456 0 0 0 -.007813-.007812z" fill="#3a3a38"/><path d="m16 4.1953125-.189453.1894531a.49157456.49157456 0 0 1 -.0078.00781l-10.0742314 9.6152364h20.5429684l-10.074218-9.6152339a.49157456.49157456 0 0 1 -.0078-.00781zm-10.2714844 13.7968755 10.0742184 9.615234a.49157456.49157456 0 0 1 .0078.0078l.189466.189466.189453-.189454a.49157456.49157456 0 0 1 .0078-.0078l10.074218-9.615234z" fill="#fafafa"/></svg>