<svg viewBox="0 0 32 32" xmlns="http://www.w3.org/2000/svg"><path d="m10.078125 3c-1.996088 0-3.7620051 1.5735255-5.0234375 3.9257812-1.2614324 2.3522558-2.0546875 5.5470018-2.0546875 9.0742188s.7932552 6.721963 2.0546875 9.074219 3.0273495 3.925781 5.0234375 3.925781h11.84375c1.996091 0 3.762006-1.57352 5.023437-3.925781 1.261432-2.352262 2.054688-5.547027 2.054688-9.074219 0-3.527193-.793256-6.7219572-2.054688-9.0742188-1.261431-2.3522614-3.027346-3.9257812-5.023437-3.9257812zm0 1h11.84375c1.455628 0 2.977877 1.2265555 4.142578 3.3984375s1.935547 5.2253285 1.935547 8.6015625c0 3.376233-.770846 6.42968-1.935547 8.601562-1.164701 2.171883-2.68695 3.398438-4.142578 3.398438h-11.84375c-1.4556302 0-2.9778775-1.226562-4.1425781-3.398438-1.1647006-2.171874-1.9355469-5.225303-1.9355469-8.601562s.7708463-6.4296873 1.9355469-8.6015625 2.6869479-3.3984375 4.1425781-3.3984375z" fill="#3a3a38"/><path d="m10.078125 4c-1.4556302 0-2.9778775 1.2265623-4.1425781 3.3984375s-1.9355469 5.2253035-1.9355469 8.6015625.7708463 6.429687 1.9355469 8.601562c1.1647006 2.171876 2.6869479 3.398438 4.1425781 3.398438h11.84375c1.455628 0 2.977877-1.226555 4.142578-3.398438 1.164701-2.171882 1.935547-5.225329 1.935547-8.601562 0-3.376234-.770846-6.4296805-1.935547-8.6015625s-2.68695-3.3984375-4.142578-3.3984375z" fill="#fafafa"/></svg>