<svg viewBox="0 0 32 32" xmlns="http://www.w3.org/2000/svg"><path d="m22.009766 6c-2.189721-.0468469-4.395578 1.1968027-6.435547 3.2734375-2.373332 2.0627325-4.443362 2.8019775-6.3437502 2.7421875-1.9003881-.05979-3.6842539-.936294-5.4257813-2.28125-.3288645-.2526449-.8046389-.0182219-.8046875.396484v11.841797c.0002793.123422.046193.242379.1289062.333985 2.2253768 2.470542 4.4878555 3.668627 6.7558594 3.679687 2.2665034.01105 4.4487224-1.150076 6.5527344-3.144531l.003906-.003906c2.239662-2.072391 4.25643-2.82463 6.164063-2.771485 1.908878.05318 3.760308.934862 5.595703 2.306641.329632.245626.798356.010693.798828-.400391v-2.705078-6.412109-2.72461c-.000161-.121562-.044597-.2389031-.125-.3300778-2.303985-2.6113843-4.607361-3.7524763-6.865234-3.8007812zm-.019532.9824219c1.910619.0408757 3.88917.973391 6.027344 3.3476561v10.798828c-1.703064-1.147535-3.476482-1.991762-5.384766-2.044922-2.192039-.061068-4.490657.840148-6.863281 3.03711l-.003906.003906c-1.997757 1.894873-3.948842 2.888306-5.8769531 2.878906-1.8895252-.009214-3.841944-.988003-5.90625-3.232422v-10.785156c1.6203012 1.118956 3.3306239 1.952379 5.2167969 2.011719 2.1819862.06865 4.5184532-.810615 7.0195312-2.984375.00944-.008108.018544-.0165807.027344-.0253908 1.936035-1.9799659 3.937169-3.0445173 5.74414-3.0058593z" fill="#3a3a38"/><path d="m21.990234 6.9824219c-1.806971-.038658-3.808105 1.0258933-5.74414 3.0058593-.0088.00881-.0179.017283-.02734.025391-2.501078 2.17376-4.837545 3.053025-7.0195312 2.984375-1.8861729-.05934-3.5964957-.892763-5.2167969-2.011719v10.785156c2.064306 2.244419 4.0167248 3.223208 5.90625 3.232422 1.9281111.0094 3.8791961-.984033 5.8769531-2.878906l.0039-.0039c2.372624-2.196962 4.671241-3.098178 6.863281-3.03711 1.908283.05316 3.681702.897387 5.384766 2.044922v-10.7988342c-2.138174-2.3742652-4.116723-3.3067804-6.027342-3.3476561z" fill="#fafafa"/></svg>