<svg viewBox="0 0 32 32" xmlns="http://www.w3.org/2000/svg"><path d="m16 3c-3.553054 0-6.7789429 1.0759074-9.1386719 2.8457031s-3.8613281 4.2603509-3.8613281 7.0292969c0 1.435128.4050095 2.782126 1.125 3.974609a.50005.50005 0 0 0 .0292969.042969c6.2732071 8.315462 17.8188601 11.181845 24.2753911 12.101563a.50005.50005 0 0 0 .570312-.494141v-7a.50005.50005 0 0 0 -.433594-.496094l-5.058594-.6875c1.325483-.718759 2.551511-1.535271 3.472657-2.548828 1.242323-1.366956 2.019531-3.022472 2.019531-4.892578 0-2.768946-1.501599-5.2595012-3.861328-7.0292969s-5.585619-2.8457031-9.138672-2.8457031zm0 .9941406c3.351522 0 6.377457 1.0223515 8.542969 2.6464844s3.46289 3.823708 3.46289 6.234375c0 1.597714-.646643 2.997667-1.761718 4.224609-1.115076 1.226943-2.702564 2.262407-4.519532 3.052735a.49441966.49441966 0 0 0 .13086.943359l6.15039.835938v5.966797c-6.403451-.978349-17.202068-3.870775-23.037109-11.580079-.6282094-1.046669-.9746094-2.20047-.9746094-3.443359 0-2.410667 1.2973789-4.6102421 3.4628906-6.234375 2.165512-1.6241329 5.1914468-2.6464844 8.5429688-2.6464844z" fill="#3a3a38"/><path d="m16 3.9941406c-3.351522 0-6.3774569 1.0223515-8.5429688 2.6464844-2.1655118 1.6241329-3.4628906 3.823708-3.4628906 6.234375 0 1.242889.3464 2.39669.9746094 3.443359 5.835041 7.709304 16.633658 10.60173 23.037109 11.580079v-5.966797l-6.15039-.835938a.49441966.49441966 0 0 1 -.13086-.943359c1.816968-.790328 3.404456-1.825792 4.519532-3.052735 1.115075-1.226942 1.761718-2.626895 1.761718-4.224609 0-2.410667-1.297378-4.6102421-3.46289-6.234375s-5.191447-2.6464844-8.542969-2.6464844z" fill="#fafafa"/></svg>