<svg viewBox="0 0 32 32" xmlns="http://www.w3.org/2000/svg"><path d="m3.484375 28.997674a.49807245.49807245 0 0 1 -.4824219-.498047v-17a.49807245.49807245 0 0 1 .2304688-.419922l12.5000001-7.9999997a.49807245.49807245 0 0 1 .535156 0l12.5 7.9999997a.49807245.49807245 0 0 1 .230469.419922v17a.49807245.49807245 0 0 1 -.765625.419922l-12.232422-7.828125-12.2324219 7.828125a.49807245.49807245 0 0 1 -.2832031.078125zm.515625-1.412109 11.730469-7.507813a.50005.50005 0 0 1 .539062 0l11.730469 7.507813v-15.8125l-12-7.6796877-12 7.6796877z" fill="#3a3a38"/><path d="m4 27.585565v-15.8125l12-7.6796877 12 7.6796877v15.8125l-11.730469-7.507813a.50005.50005 0 0 0 -.539062 0z" fill="#fafafa"/></svg>