<svg viewBox="0 0 32 32" xmlns="http://www.w3.org/2000/svg"><path d="m15.984375 20.826481a.99932143.99932143 0 0 1 -.05469-.0039c-3.653303-.019034-7.2459503-1.511584-9.8300756-4.095709-1.2933362-1.293335-2.3105258-2.840491-3.0097656-4.519532a.99932143.99932143 0 0 1 .5585937-1.314453l4.6621094-1.824218a.99932143.99932143 0 0 1 1.28125.533203c1.1063061 2.561622 3.6198551 4.218272 6.4101561 4.224609a.99932143.99932143 0 0 1 .0098 0c2.790301-.0063 5.30385-1.662987 6.410156-4.224609a.99932143.99932143 0 0 1 1.28125-.533203l4.662109 1.824218a.99932143.99932143 0 0 1 .558594 1.314453c-.699274 1.679041-1.716462 3.226197-3.0098 4.519532-2.584125 2.584125-6.176773 4.076675-9.830078 4.095703a.99932143.99932143 0 0 1 -.05469.0039.99932143.99932143 0 0 1 -.0293 0c-.0052 0-.01042.000006-.01563 0zm.01563-1c3.40356 0 6.786679-1.39996 9.193359-3.806641 1.19675-1.196748 2.144387-2.635176 2.794922-4.197265l-4.708989-1.695313a8 8 0 0 1 -7.279297 4.699219 8 8 0 0 1 -7.3261719-4.828125l-4.6621093 1.824219c.650535 1.562089 1.5981728 3.000517 2.7949218 4.197265 2.4066805 2.406681 5.7897994 3.806641 9.1933594 3.806641z" fill="#3a3a38"/><path d="m16 19.826481c-3.40356 0-6.7866789-1.39996-9.1933594-3.806641-1.196749-1.196748-2.1443868-2.635176-2.7949218-4.197265l4.6621093-1.824219a8 8 0 0 0 7.3261719 4.828125 8 8 0 0 0 7.279297-4.699219l4.708984 1.695313c-.650535 1.562089-1.598172 3.000517-2.794922 4.197265-2.40668 2.406681-5.789799 3.806641-9.193359 3.806641z" fill="#fafafa"/></svg>