<svg viewBox="0 0 32 32" xmlns="http://www.w3.org/2000/svg"><path d="m20.826481 16.015625a.99932143.99932143 0 0 1 -.0039.05469c-.01903 3.653303-1.511584 7.24595-4.095709 9.830076-1.293335 1.293336-2.840491 2.310525-4.519532 3.009765a.99932143.99932143 0 0 1 -1.314453-.558594l-1.824218-4.662109a.99932143.99932143 0 0 1 .533203-1.28125c2.561622-1.106306 4.218272-3.619855 4.224609-6.410156a.99932143.99932143 0 0 1 0-.0098c-.0063-2.790301-1.662987-5.30385-4.224609-6.410156a.99932143.99932143 0 0 1 -.533203-1.28125l1.824218-4.662109a.99932143.99932143 0 0 1 1.314453-.558594c1.679041.699274 3.226197 1.716462 4.519532 3.0098 2.584125 2.584125 4.076675 6.176773 4.095703 9.830078a.99932143.99932143 0 0 1 .0039.05469.99932143.99932143 0 0 1 0 .0293c0 .0052.000006.01042 0 .01563zm-1-.01563c0-3.40356-1.39996-6.786679-3.806641-9.193359-1.196748-1.19675-2.635176-2.144387-4.197265-2.794922l-1.695313 4.708989a8 8 0 0 1 4.699219 7.279297 8 8 0 0 1 -4.828125 7.326172l1.824219 4.662109c1.562089-.650535 3.000517-1.598173 4.197265-2.794922 2.406681-2.40668 3.806641-5.789799 3.806641-9.193359z" fill="#3a3a38"/><path d="m19.826481 16c0 3.40356-1.39996 6.786679-3.806641 9.193359-1.196748 1.196749-2.635176 2.144387-4.197265 2.794922l-1.824219-4.662109a8 8 0 0 0 4.828125-7.326172 8 8 0 0 0 -4.699219-7.279297l1.695313-4.708984c1.562089.650535 3.000517 1.598172 4.197265 2.794922 2.406681 2.40668 3.806641 5.789799 3.806641 9.193359z" fill="#fafafa"/></svg>