<svg viewBox="0 0 32 32" xmlns="http://www.w3.org/2000/svg"><path d="m28.5 3c.263579.011497.494008.2362014.498047.5v19c0 .840234-.44154 1.613417-1.138672 2.267578s-1.663044 1.218603-2.833984 1.69336c-2.341882.949512-5.517508 1.537109-9.025391 1.537109s-6.6835089-.587597-9.0253909-1.537109c-1.17094-.474758-2.136852-1.039199-2.833984-1.69336s-1.138672-1.427344-1.138672-2.267578v-10c.00016-.274997.22305-.497887.498047-.498047 7.7122529 0 13.9189689-.877931 18.1425779-2.408203 2.111805-.7651359 3.723036-1.6937221 4.783203-2.7246094 1.060168-1.0308872 1.576172-2.1375944 1.576172-3.3691406.004307-.2805208.217748-.5119645.498047-.5zm-.5 3.3769531c-.269969.4112589-.498204.8387967-.878906 1.2089844-1.205783 1.1724805-2.937764 2.1498463-5.138672 2.9472655-4.302766 1.558951-10.43618 2.414814-17.9824219 2.453125v9.513672c0 .49052.256462 1.006303.824219 1.539062.567756.53276 1.43438 1.053745 2.52539 1.496094 2.182021.884699 5.2551739 1.464844 8.6503909 1.464844 3.395218 0 6.46837-.580145 8.650391-1.464844 1.09101-.442349 1.957634-.963334 2.52539-1.496094.567757-.532758.824219-1.048542.824219-1.539062z" fill="#3a3a38"/><path d="m28 6.3769531v16.1230469c0 .49052-.256462 1.006303-.824219 1.539062-.567756.53276-1.43438 1.053745-2.52539 1.496094-2.182021.884699-5.255173 1.464844-8.650391 1.464844-3.395217 0-6.4683699-.580145-8.6503909-1.464844-1.09101-.442349-1.957634-.963334-2.52539-1.496094-.567757-.532759-.824219-1.048542-.824219-1.539062v-9.513672c7.5462419-.038311 13.6796559-.894174 17.9824219-2.453125 2.200908-.7974193 3.932889-1.774785 5.138672-2.9472655.380702-.3701877.608937-.7977255.878906-1.2089844z" fill="#fafafa"/></svg>