<svg viewBox="0 0 32 32" xmlns="http://www.w3.org/2000/svg"><path d="m3.484375 3.0019531a.49807245.49807245 0 0 0 -.4824219.4980469v17a.49807245.49807245 0 0 0 .2304688.419922l12.5000001 8a.49807245.49807245 0 0 0 .535156 0l12.5-8a.49807245.49807245 0 0 0 .230469-.419922v-17a.49807245.49807245 0 0 0 -.765625-.4199219l-12.232422 7.8281249-12.2324219-7.8281249a.49807245.49807245 0 0 0 -.2832031-.078125zm.515625 1.4121094 11.730469 7.5078125a.50005.50005 0 0 0 .539062 0l11.730469-7.5078125v15.8124995l-12 7.679688-12-7.679688z" fill="#3a3a38"/><path d="m4 4.4140625v15.8124995l12 7.679688 12-7.679688v-15.8124995l-11.730469 7.5078125a.50005.50005 0 0 1 -.539062 0z" fill="#fafafa"/></svg>