<svg viewBox="0 0 32 32" xmlns="http://www.w3.org/2000/svg"><g fill="#fafafa" stroke="#3a3a38" stroke-linecap="round" stroke-linejoin="round" stroke-width=".760355" transform="matrix(-1.3157658 0 0 1.3157658 31.78919 .842372)"><path d="m2.5 4.5000005v6.0000005l19 8.999999v-12.9999995z" opacity="0"/><g stroke="none"><path d="m3.515625 6a.50124307.50124307 0 0 0 -.515625.5019531v8.9980469a.50124307.50124307 0 0 0 .296875.460938l25 10.998046a.50124307.50124307 0 0 0 .703125-.458984v-17a.50124307.50124307 0 0 0 -.441406-.4980469l-25.0000002-3a.50124307.50124307 0 0 0 -.0429688-.0019531zm.4824219 1.0644531 24.0039061 2.8808594v15.7890625l-24.0039061-10.560547z" fill="#3a3a38" transform="matrix(-.76001367 0 0 .76001367 24.160219 -.640214)"/><path d="m21.121094 4.7285156-18.2421878 2.1894532v12.0000002l18.2421878-8.025391z" fill="#fafafa"/></g></g></svg>