<svg viewBox="0 0 32 32" xmlns="http://www.w3.org/2000/svg"><path d="m15.984375 3a.50005.50005 0 0 0 -.253906.078125l-12.5000002 8a.50005.50005 0 0 0 -.2304688.421875v9a.50005.50005 0 0 0 .2304688.421875l12.5000002 8a.50005.50005 0 0 0 .539062 0l12.5-8a.50005.50005 0 0 0 .230469-.421875v-9a.50005.50005 0 0 0 -.230469-.421875l-12.5-8a.50005.50005 0 0 0 -.285156-.078125zm.015625 1.0976562 11.996094 7.6777348v8.449218l-11.996094 7.677735-11.9960938-7.677735v-8.449218z" fill="#3a3a38"/><path d="m16 4.0976562-11.9960938 7.6777348v8.449218l11.9960938 7.677735 11.996094-7.677735v-8.449218z" fill="#fafafa"/></svg>