<svg viewBox="0 0 32 32" xmlns="http://www.w3.org/2000/svg"><path d="m28.533202 5a.50005.50005 0 0 1 .466797.5v15a.50005.50005 0 0 1 -.382813.486328l-24.9999991 6a.50005.50005 0 0 1 -.617188-.486328v-15a.50005.50005 0 0 1 .382812-.486328l25.0000001-6.0000001a.50005.50005 0 0 1 .09961-.0136719.50005.50005 0 0 1 .050781 0zm-.533203 1.1347656-24.0000001 5.7597654v13.970703l24.0000001-5.759765z" fill="#3a3a38"/><path d="m27.999999 6.1347656v13.9707034l-24.0000001 5.759765v-13.970703z" fill="#fafafa"/></svg>