<svg viewBox="0 0 32 32" xmlns="http://www.w3.org/2000/svg"><path d="m11.5 3a.50005.50005 0 0 0 -.353516.1464844l-7.9999996 7.9999996a.50005.50005 0 0 0 -.1464844.353516v9a.50005.50005 0 0 0 .1464844.353516l7.9999996 8a.50005.50005 0 0 0 .353516.146484h9a.50005.50005 0 0 0 .353516-.146484l8-8a.50005.50005 0 0 0 .146484-.353516v-9a.50005.50005 0 0 0 -.146484-.353516l-8-7.9999996a.50005.50005 0 0 0 -.353516-.1464844zm.207031 1h8.585938l7.707031 7.707031v8.585938l-7.707031 7.707031h-8.585938l-7.707031-7.707031v-8.585938z" fill="#3a3a38"/><path d="m11.707031 4-7.707031 7.707031v8.585938l7.707031 7.707031h8.585938l7.707031-7.707031v-8.585938l-7.707031-7.707031z" fill="#fafafa"/></svg>