<svg viewBox="0 0 32 32" xmlns="http://www.w3.org/2000/svg"><path d="m22 2.5a.50005.50005 0 0 0 -.554688-.4960938c-7.075495.7910591-12.436812 6.776914-12.445312 13.8964848a.50005.50005 0 0 0 .0039.04883.50005.50005 0 0 0 -.0039.050779c.0085 7.11957 5.369816 13.105425 12.445312 13.896484a.50005.50005 0 0 0 .554688-.496093v-6.052735a.50005.50005 0 0 0 -.400391-.490234c-3.261814-.665815-5.599248-3.528347-5.599609-6.857422a.50005.50005 0 0 0 -.002-.05078.50005.50005 0 0 0 .002-.048829c.000361-3.329075 2.337795-6.1916072 5.599609-6.8574222a.50005.50005 0 0 0 .400391-.4902344zm-1 .703125v5.0566406a8 8 0 0 0 -6 7.7402344 8 8 0 0 0 6 7.734375v5.054687c-2.932779-.462922-5.702079-1.920056-7.683594-4.132812-2.107787-2.353764-3.312657-5.496668-3.316406-8.65625.001921-3.160836 1.204559-6.3068015 3.3125-8.6621094 1.981762-2.2143217 4.753401-3.6716841 7.6875-4.1347656z" fill="#3a3a38"/><path d="m21 3.203125c-2.934099.4630815-5.705738 1.9204439-7.6875 4.1347656-2.107941 2.3553079-3.310579 5.5012734-3.3125 8.6621094.0037 3.159582 1.208619 6.302486 3.316406 8.65625 1.981515 2.212756 4.750815 3.66989 7.683594 4.132812v-5.054687a8 8 0 0 1 -6-7.734375 8 8 0 0 1 6-7.7402344z" fill="#fafafa"/></svg>