<svg viewBox="0 0 32 32" xmlns="http://www.w3.org/2000/svg"><path d="m16.003906 28.999988a.50005.50005 0 0 1 -.451172-.277344l-12.4999996-25a.50005.50005 0 0 1 .4472656-.722656h25a.50005.50005 0 0 1 .447266.722656l-12.5 25a.50005.50005 0 0 1 -.44336.277344zm-.0059-1.58789c0-8.289848.0021-8.407411.002-.02344l11.69726-23.38867c-6.993807 0-15.647462.01612-23.3964848.02148z" fill="#3a3a38"/><path d="m15.998047 27.412098-11.6972658-23.390626c7.7490228-.0054 16.4026778-.02148 23.3964848-.02148l-11.697266 23.388668c.000122-8.383973-.002-8.26641-.002.02344z" fill="#fafafa"/></svg>