<svg viewBox="0 0 32 32" xmlns="http://www.w3.org/2000/svg"><path d="m9.9902344 6c-2.2578741.048305-4.5612498 1.1893971-6.8652344 3.8007812a.50005.50005 0 0 0 -.125.3300778v11.841797a.50005.50005 0 0 0 .7988281.400391c1.8353951-1.371779 3.6868251-2.253461 5.5957031-2.306641 1.9088778-.053179 3.9265518.699922 6.1679688 2.775391 2.104012 1.994455 4.286231 3.155584 6.552734 3.144531 2.268004-.01106 4.530483-1.209145 6.75586-3.679687a.50005.50005 0 0 0 .128906-.333985v-11.841797a.50005.50005 0 0 0 -.804688-.396484c-1.741527 1.344956-3.525393 2.22146-5.425781 2.28125s-3.970418-.679455-6.34375-2.7421875c-2.039969-2.0766348-4.245826-3.3202844-6.4355466-3.2734375zm.0214846 1.0058594c1.797773-.0384616 3.791205 1.0207585 5.724609 2.9980466a.50511881.50511881 0 0 0 .029297.027344c2.504066 2.176358 4.848536 3.059094 7.037109 2.990234 1.87821-.059092 3.578743-.88682 5.191407-1.99414v10.734375c-2.05922 2.236582-4.002986 3.211503-5.882813 3.220703-1.920161.009363-3.866087-.982513-5.861328-2.875a.50511881.50511881 0 0 0 -.003906-.003906c-2.375693-2.199804-4.680243-3.104219-6.8789065-3.042969-1.9007276.052952-3.6665258.891487-5.3613281 2.027344v-10.748047c2.1329144-2.3659893 4.1042206-3.2933009 6.0058596-3.3339846z" fill="#3a3a38"/><path d="m10.011719 7.0058594c-1.9016388.0406837-3.8729452.9679955-6.0058596 3.3339846v10.748047c1.6948023-1.135857 3.4606005-1.974392 5.3613281-2.027344 2.1986635-.06125 4.5032135.843165 6.8789065 3.042969a.50511881.50511881 0 0 1 .0039.0039c1.995241 1.892487 3.941167 2.884363 5.861328 2.875 1.879827-.0092 3.823593-.984121 5.882813-3.220703v-10.734369c-1.612664 1.10732-3.313197 1.935048-5.191407 1.99414-2.188573.06886-4.533043-.813876-7.037109-2.990234a.50511881.50511881 0 0 1 -.0293-.02734c-1.933404-1.9772884-3.926827-3.0365122-5.7246-2.9980506z" fill="#fafafa"/></svg>