<svg viewBox="0 0 32 32" xmlns="http://www.w3.org/2000/svg"><path d="m15.984375 3a.99932143.99932143 0 0 0 -.054687.0039062c-3.653304.0190235-7.2459533 1.5115782-9.8300786 4.0957032-1.2933362 1.293335-2.3105259 2.84049-3.0097656 4.5195316a.99932143.99932143 0 0 0 .5585937 1.314453l4.6621094 1.824218a.99932143.99932143 0 0 0 1.28125-.533203c1.1063061-2.561622 3.6198551-4.218272 6.4101561-4.224609a.99932143.99932143 0 0 0 .009766 0c2.790301.0063 5.30385 1.662987 6.410156 4.224609a.99932143.99932143 0 0 0 1.28125.533203l4.662109-1.824218a.99932143.99932143 0 0 0 .558594-1.314453c-.699274-1.6790416-1.716427-3.2261966-3.009766-4.5195316-2.584125-2.584125-6.176773-4.0766759-9.830078-4.0957032a.99932143.99932143 0 0 0 -.054687-.0039062.99932143.99932143 0 0 0 -.029297 0c-.0052 0-.010415-.000006-.015625 0zm.015625 1c3.40356 0 6.786679 1.3999596 9.193359 3.8066406 1.19675 1.196748 2.144387 2.6351764 2.794922 4.1972654l-4.708984 1.695313a8 8 0 0 0 -7.279297-4.699219 8 8 0 0 0 -7.3261719 4.828125l-4.6621093-1.824219c.6505349-1.562089 1.5981728-3.0005174 2.7949218-4.1972654 2.4066805-2.406681 5.7897994-3.8066406 9.1933594-3.8066406zm-7.2988281 13a.99932143.99932143 0 0 0 -.390625.068359l-4.6621094 1.824219a.99932143.99932143 0 0 0 -.5585937 1.314453c.6992397 1.679041 1.7164294 3.226197 3.0097656 4.519531 2.5841253 2.584125 6.1767746 4.07667 9.8300786 4.095704a.99932143.99932143 0 0 0 .054687.003906c.00521.000006.010425 0 .015625 0a.99932143.99932143 0 0 0 .029297 0 .99932143.99932143 0 0 0 .054687-.003906c3.653305-.019028 7.245953-1.511578 9.830078-4.095704 1.293339-1.293334 2.310492-2.84049 3.009766-4.519531a.99932143.99932143 0 0 0 -.558594-1.314453l-4.662109-1.824219a.99932143.99932143 0 0 0 -1.28125.533203c-1.106306 2.561622-3.619855 4.21831-6.410156 4.22461a.99932143.99932143 0 0 0 -.009766 0c-2.790301-.006337-5.30385-1.662988-6.4101561-4.22461a.99932143.99932143 0 0 0 -.890625-.601562zm-.0273438.998047a8 8 0 0 0 7.3261719 4.828125 8 8 0 0 0 7.279297-4.699219l4.708984 1.695313c-.650535 1.562089-1.598172 3.000517-2.794922 4.197265-2.40668 2.406681-5.789799 3.806641-9.193359 3.806641s-6.7866789-1.39996-9.1933594-3.806641c-1.196749-1.196748-2.1443869-2.635176-2.7949218-4.197265z" fill="#3a3a38"/><path d="m16 4c-3.40356 0-6.7866789 1.3999596-9.1933594 3.8066406-1.196749 1.196748-2.1443868 2.6351764-2.7949218 4.1972654l4.6621093 1.824219a8 8 0 0 1 7.3261719-4.828125 8 8 0 0 1 7.279297 4.699219l4.708984-1.695313c-.650535-1.562089-1.598172-3.0005174-2.794922-4.1972654-2.40668-2.406681-5.789799-3.8066406-9.193359-3.8066406zm-7.3261719 13.998047-4.6621093 1.824219c.650535 1.562089 1.5981728 3.000517 2.7949218 4.197265 2.4066805 2.406681 5.7897994 3.806641 9.1933594 3.806641s6.786679-1.39996 9.193359-3.806641c1.19675-1.196748 2.144387-2.635176 2.794922-4.197265l-4.708984-1.695313a8 8 0 0 1 -7.279297 4.699219 8 8 0 0 1 -7.3261719-4.828125z" fill="#fafafa"/></svg>