<svg viewBox="0 0 32 32" xmlns="http://www.w3.org/2000/svg"><path d="m6 6v12h3v-4c0-.554.446-1 1-1h12v-7zm4 8v4h12v-4z" fill="#fafafa"/><path d="m6 5c-.554 0-1 .446-1 1v12c0 .554.446 1 1 1h16c.554 0 1-.446 1-1v-12c0-.554-.446-1-1-1zm0 1h16v12h-16z" fill="#3a3a38"/><path d="m3 3v3h3v-3zm1 1h1v1h-1z" fill="#0063b1"/><path d="m4 4h1v1h-1z" fill="#fafafa"/><path d="m10 14v12h16v-12z" fill="#fafafa"/><path d="m10 13c-.554 0-1 .446-1 1v12c0 .554.446 1 1 1h16c.554 0 1-.446 1-1v-12c0-.554-.446-1-1-1zm0 1h16v12h-16z" fill="#3a3a38"/><path d="m7 26v3h3v-3zm1 1h1v1h-1z" fill="#0063b1"/><path d="m26 26v3h3v-3zm1 1h1v1h-1z" fill="#0063b1"/><path d="m27 27h1v1h-1z" fill="#fafafa"/><path d="m8 27h1v1h-1z" fill="#fafafa"/><path d="m3 18v3h3v-3zm1 1h1v1h-1z" fill="#0063b1"/><path d="m4 19h1v1h-1z" fill="#fafafa"/><path d="m7 11v3h3v-3zm1 1h1v1h-1z" fill="#0063b1"/><path d="m8 12h1v1h-1z" fill="#fafafa"/><path d="m26 11v3h3v-3zm1 1h1v1h-1z" fill="#0063b1"/><path d="m27 12h1v1h-1z" fill="#fafafa"/><path d="m22 3v3h3v-3zm1 1h1v1h-1z" fill="#0063b1"/><path d="m23 4h1v1h-1z" fill="#fafafa"/></svg>