<svg viewBox="0 0 32 32" xmlns="http://www.w3.org/2000/svg"><path d="m16 3c-1.380711 0-2 1.1192881-2 2.5-.000262.166415.000478.4774598.0332.640625.19205 2.0429687.56725 5.113981.591797 5.984375-.0466 1.49723-.739118 1.856264-1.875 1.875h-2.5c-.692497 0-1.249997.5575-1.249997 1.25v.75 4h14v-4-.75c0-.6925-.5575-1.25-1.25-1.25h-2.5c-1.135882-.01874-1.8284-.37777-1.875-1.875.02455-.870394.399747-3.9414063.591797-5.984375.032725-.1631652.033465-.47421.033203-.640625 0-1.3807119-.619289-2.5-2-2.5z" fill="#3a3a38" stroke-width="1.25"/><path d="m10 21c-.031951.488941-.1032185.938321-.1894531 1.373047 4.9112471 1.593214 8.8359571 2.439648 12.2343751 2.691406-.039043-1.307611-.0555-2.657598-.044922-4.064453z" fill="#fafafa" stroke-width="1.408559"/><path d="m9.4648438 23.695312c-.5057337 1.542273-1.2543624 2.839648-1.828125 4.300782l14.5488282.003906c-.037242-.491792-.048831-1.035283-.074219-1.550781-3.710804-.298455-8.859532-1.432758-12.6464842-2.753907z" fill="#f8db8f" stroke-width="2.027025"/><g stroke-width="1.25"><path d="m9 20c-.6513227 4.18535-2.1798649 6.618324-3 9h17.5c-.243128-2.341756-.357197-3.817392-.5-9zm1 1h12c-.010578 1.406855.005879 2.756842.044922 4.064453-3.398418-.251758-7.323128-1.098192-12.2343751-2.691406.0862346-.434726.1575021-.884106.1894531-1.373047zm-.5351562 2.695312c3.7869522 1.321149 8.9356802 2.455452 12.6464842 2.753907.025388.515498.036977 1.058989.074219 1.550781l-14.5488282-.003906c.5737626-1.461134 1.3223914-2.75851 1.828125-4.300782z" fill="#ed8733"/><path d="m16 4.0019531c-.41942 0-.546785.099633-.705078.3183594-.158293.2187263-.292969.6392369-.292969 1.1796875a1.0027477 1.0027477 0 0 1 0 .00195c-.000254.1614637.02868.5162394.01367.4414063a1.0027477 1.0027477 0 0 1 .01563.1035156c.189424 2.0150354.564913 4.959024.595703 6.050781a1.0027477 1.0027477 0 0 1 0 .05859c-.02803.900486-.280905 1.701566-.873047 2.216797-.592141.515231-1.318102.617852-1.988281.628906a1.0027477 1.0027477 0 0 1 -.01563 0h-2.5c-.154371 0-.248047.09367-.248047.248047v.7500071 2.998047h11.996096v-2.998047-.75c0-.154376-.09367-.248047-.248047-.248047h-2.5a1.0027477 1.0027477 0 0 1 -.01563 0c-.670177-.01106-1.39614-.113676-1.988281-.628906-.592142-.51523-.84502-1.316311-.873047-2.216797a1.0027477 1.0027477 0 0 1 0-.05859c.03079-1.091747.406279-4.0357446.595703-6.050781a1.0027477 1.0027477 0 0 1 .01563-.1035156c-.01501.074864.01393-.2799305.01367-.4414063a1.0027477 1.0027477 0 0 1 0-.00195c0-.5404506-.134676-.9609612-.292969-1.1796875-.158291-.2187334-.285656-.3183665-.705076-.3183665z" fill="#fafafa"/></g></svg>