<svg height="32" viewBox="0 0 32 32" width="32" xmlns="http://www.w3.org/2000/svg"><g fill="#3a3a38" transform="matrix(1 0 0 -1 0 32)"><rect height="3" rx="1" width="26" x="3" y="3"/><rect height="2" rx=".5" width="26" x="3" y="9"/><path d="m3.5 17c-.277 0-.5.223-.5.5v1c0 .277.223.5.5.5h13c.277 0 .5-.223.5-.5v-.730469l-.744141.197266c-.653115.17232-1.254386-.333777-1.251953-.966797z" transform="matrix(1 0 0 -1 0 32)"/></g><g fill="#fb983b" transform="matrix(1.1667513 0 0 1.1666667 3.165736 -9.833333)"><path d="m25.623047 17-8.513672 8.490234-1.109375 4.509766 4.441406-1.179688 7.308594-7.294921-3.322266-3.324219 1.199219-1.197266zm-1.197266 2.519531 2.003907 2.00586-5.751954 5.738281-2.009765-2.009766zm-6.464843 6.441407 2.009765 2.009765-.01172.01172-2.675781.710937.669922-2.726562z" fill="#0063b1" transform="matrix(.85708068 0 0 .85714283 -2.713291 -2.714286)"/><path d="m26.990234 16c-.221171 0-.439899.08465-.609375.253906l-1.953125 1.947266 3.322266 3.324219 1.996094-1.91211c.338948-.338481.338948-.88222 0-1.220703l-2.142578-2.138672c-.169476-.169241-.39211-.253906-.613282-.253906zm0 .998047 2.00586 2.003906-1.232422 1.179688-1.978516-1.980469z" fill="#0063b1" transform="matrix(.85708068 0 0 .85714283 -2.713291 -2.714286)"/><g fill="#83beec"><path d="m20.419922 11.855469-1.033203 1.03125 1.695312 1.697265 1.056641-1.011718z"/><path d="m24.425781 19.519531-5.757812 5.734375 2.009765 2.009766 5.751954-5.738281zm-6.464843 6.441407-.0078.0059-.669922 2.726562 2.675781-.710937.01172-.01172z" stroke-width="1.166709" transform="matrix(.85708068 0 0 .85714283 -2.713291 -2.714286)"/></g></g></svg>