<svg viewBox="0 0 32 32" xmlns="http://www.w3.org/2000/svg"><path d="m3 5c-.554 0-1 .446-1 1v20c0 .554.446 1 1 1h26c.554 0 1-.446 1-1v-20c0-.554-.446-1-1-1zm0 1h26v20h-26z" fill="#3a3a38"/><path d="m29 6v20h-26v-20z" fill="#fafafa"/><path d="m27.474609 7c-.03773.00228-.07508.0088302-.111328.0195312l-7 1.0898438c-.366501.1045105-.486004.5642194-.216797.8339844l1.986328 2.3496096-12.9218745 8.65039-2.3574219-2.796875c-.2697649-.269208-.729474-.149705-.8339844.216797l-2 7c-.09416.329518.1635855.653939.5058594.636719.037728-.0023.0750761-.008801.1113282-.019531l7.0000002-1.06836c.366501-.10451.486003-.564219.216797-.833984l-1.994141-2.365234 12.923828-8.652344 2.363281 2.792969c.269765.269208.729475.149705.833985-.216797l2-7.0000002c.09416-.3295179-.163586-.6539393-.50586-.6367188zm-.492187.9609375-1.648438 5.7675785-4.11914-4.869141zm-20.3183595 10.3105465 4.1230465 4.890625-5.771484.88086z" fill="#0063b1"/><g fill="#83beec" fill-rule="evenodd"><path d="m26.982422 7.9609375-5.767578.8984375 4.11914 4.869141zm-20.3183595 10.3105465-1.6484375 5.771485 5.771484-.88086z"/><path d="m6.6640625 18.271484-1.6484375 5.771485 5.771484-.88086z"/></g></svg>