<svg viewBox="0 0 32 32" xmlns="http://www.w3.org/2000/svg"><path d="m13.119141 6.0019531-.66211.6621094c.051287.1111654.096526.2209951.138672.3359375h.904297c.813719 0 1.5.6862809 1.5 1.5s-.686281 1.5-1.5 1.5h-.904297c-.042065.114262-.087569.223469-.138672.333984l2.089844 2.089844c.530915.530913.648074 1.473041.042969 2.078125l-.087891.087891c-.605087.605105-1.549964.481267-2.076172-.044922l-2.089843-2.089844c-.111087.05139-.221067.096414-.335938.138672v.90625c0 .813719-.6862809 1.5-1.5 1.5s-1.5-.686281-1.5-1.5v-.902344c-.1150963-.042414-.2246482-.089042-.3359375-.140625l-.6640625.664063v13.878906h21v-20.9980469z" fill="#fafafa"/><path d="m14.121094 5-1 1h13.878906v9.001953 2.996094 9.001953h-21v-9.001953-2.996094-1.880859l-1 1v.880859 2.996094 9.001953c0 .554.446 1 1 1h21c.554 0 1-.446 1-1v-9.001953-2.996094-9.001953c0-.554-.446-1-1-1z" fill="#3a3a38"/><path d="m20.496094 12.001953c-.127785.000006-.255556.048574-.353516.146485l-3.640625 3.646484-.001953.001953-.001953-.001953-1.654297-1.658203c-.064334.129342-.142687.254018-.253906.365234l-.087891.087891c-.111429.111432-.237449.189875-.367187.253906l1.65625 1.658203.001953.001953-3.642578 3.640625c-.195917.195821-.195869.511165 0 .707031.195868.19587.511114.195822.707031 0l3.642578-3.640624 3.642578 3.640624c.195917.195822.511163.195869.707031 0 .19587-.195866.195917-.51121 0-.707031l-3.642578-3.640625.001953-.001953 3.640625-3.646484c.195917-.19582.19587-.511163 0-.707031-.097934-.097935-.22573-.146491-.353515-.146485z" fill="#1e8bcd"/><path d="m3.5078125 3.000109c-.125814-.002-.2508351.043843-.3457032.1387087l-.021483.022677c-.1897336.1897324-.186103.5013923.00977.6972852l2.5488222 2.5488a3.5000001 3.5000001 0 0 0 -.660156 1.5937512h-1.5390625c-.277 0-.5.2229921-.5.5000315s.2230001.4999937.5.4999937h1.5410156a3.5000001 3.5000001 0 0 0 .6582032 1.5937507l-2.5371094 2.537084c-.1958687.19578-.2162596.492737-.044922.664063l.087891.08806c.1713377.171213.4681939.150803.6640625-.04498l2.5371091-2.538437a3.5000001 3.5000001 0 0 0 1.5937501.662097v1.537096c0 .27704.2229997.499994.5000001.499994.2770016 0 .4999997-.222992.4999997-.499994v-1.541027a3.5000001 3.5000001 0 0 0 1.5937501-.660132l2.539062 2.539049c.19587.19578.490772.216189.66211.04498l.08789-.08806c.171341-.171212.152901-.46817-.04297-.664063l-2.539061-2.539055a3.5000001 3.5000001 0 0 0 .660156-1.5917863h1.539063c.277002 0 .5-.2229921.5-.4999937 0-.2770394-.223-.5000315-.5-.5000315h-1.541015a3.5000001 3.5000001 0 0 0 -.658204-1.5937512l2.548828-2.5488001c.19587-.1957795.201453-.5075527.01172-.697285l-.021471-.0226772c-.18974-.1897323-.501402-.184063-.697271.0113386l-2.548837 2.5488378a3.5000001 3.5000001 0 0 0 -1.5937501-.66017v-1.5390615c0-.2770394-.2229996-.4999937-.4999997-.4999937-.2770016 0-.5000001.2229921-.5000001.4999937v1.5410268a3.5000001 3.5000001 0 0 0 -1.5937501.6582047l-2.5488281-2.5488378c-.0979343-.0978897-.2237952-.1485354-.3496093-.1504252zm4.9921877 3a2.5 2.5 0 0 1 2.4999998 2.5000064 2.5 2.5 0 0 1 -2.4999998 2.4999686 2.5 2.5 0 0 1 -2.5000003-2.4999686 2.5 2.5 0 0 1 .7226563-1.755893l.021468-.022677a2.5 2.5 0 0 1 1.755876-.7206805z" fill="#ed8733"/><circle cx="8.5" cy="8.50005" fill="#fafafa" r="2.5"/></svg>