<svg height="32" viewBox="0 0 8.4666665 8.4666669" width="32" xmlns="http://www.w3.org/2000/svg"><g transform="translate(0 -288.53332)"><path d="m1.0583333 289.32708c-.14657913 0-.2645833.11801-.2645833.26459v6.35c0 .14658.11800417.26458.2645833.26458h6.35c.1465792 0 .2645834-.118.2645834-.26458v-6.35c0-.14658-.1180042-.26459-.2645834-.26459zm0 .26459h6.35v2.38125.26458 1.05833.26459 1.05833.26458 1.05834h-1.5875-.2645833-1.3229167-.2645833-1.3229167-.2645833-1.3229167v-1.05834-.26458-1.05833-.26459-1.05833-.26458z" fill="#3a3a38" stroke-width=".264583"/><path d="m4 4v24h24v-24zm5.4980469 5c.381288 0 .7720841.1511432 1.0605471.4394531l7.441406 7.4394529v-4.378906c0-.813704.686296-1.5 1.5-1.5s1.5.686296 1.5 1.5v8c-.000003.194935-.040114.386818-.111328.5625v.001953c-.147599.363262-.434358.662236-.804688.818359-.182492.076919-.381574.117188-.583984.117188h-8c-.813704 0-1.5-.686296-1.5-1.5s.686296-1.5 1.5-1.5h4.378906l-7.441406-7.439453c-.5756593-.575361-.5752809-1.545746 0-2.1210939.2884709-.28832.6792328-.4394531 1.0605469-.4394531z" fill="#fafafa" transform="matrix(.26458333 0 0 .26458333 0 288.53332)"/><path d="m9 4v4h-5v1h5v.0917969c.1621402-.057503.3300142-.0917969.4980469-.0917969.1692438 0 .3387436.0334615.5019531.0917969v-.0917969h5v4h-.880859l1.880859 1.878906v-.878906h2v-1h-2v-4h5v3.5.5 1 4 1 1.5 2.5h-5v-1h-1v1h-5v-2.5-1.5h1.5 3.5.878906l-1-1h-4.878906v-4h.876953l-1.876953-1.876953v.876953h-5v1h5v4h-5v1h5v4h-5v1h5v4h1v-4h5v4h1v-4h5v4h1v-4h6v-1h-6v-4h6v-1h-6v-4h6v-1h-6v-4h6v-1h-6v-4h-1v4h-5v-4h-1v4h-5v-4z" fill="#797774" transform="matrix(.26458333 0 0 .26458333 0 288.53332)"/><path d="m5.8208333 294.88333h1.5875v1.05834h-1.5875z" fill="#83beec" stroke-width=".103778"/><g fill="#0063b1"><path d="m5.55625 294.61875v.26458 1.05834.26458h1.8520833c.1465792 0 .2645834-.118.2645834-.26458v-1.32292h-.2645834-1.5875zm.2645833.26458h1.5875v1.05834h-1.5875z" stroke-width=".264583"/><path d="m9.4980469 10c-.1278076 0-.2555805.048595-.3535157.146484-.1958702.195893-.1958815.511252 0 .707032l9.1484378 9.146484h-6.792969c-.277 0-.5.223-.5.5s.223.5.5.5h8c.06925 0 .135453-.013828.195312-.039062.122137-.051488.217961-.150319.267579-.273438.024484-.060179.037108-.123591.037109-.1875v-8c0-.277-.223-.5-.5-.5s-.5.223-.5.5v6.792969l-9.1484375-9.146485c-.097941-.097889-.225708-.146484-.3535156-.146484z" transform="matrix(.26458333 0 0 .26458333 0 288.53332)"/></g></g></svg>