<svg viewBox="0 0 32 32" xmlns="http://www.w3.org/2000/svg"><path d="m3.7070312 3c-.392 0-.7070312.3680705-.7070312.8261719v24.3476561c0 .458102.3150312.826172.7070312.826172h24.5859378c.392 0 .707031-.36807.707031-.826172v-24.3476561c0-.4581014-.315031-.8261719-.707031-.8261719zm.2929688 1h24v24h-24z" fill="#3a3a38"/><path d="m4 4h24v24h-24z" fill="#fafafa"/><path d="m8.1835938 7c-.6924252 0-1.1835938.6275891-1.1835938 1.3007812v15.3984378c0 .673192.4911692 1.300781 1.1835938 1.300781h15.6328122c.692425 0 1.183594-.627589 1.183594-1.300781v-15.3984378c0-.6731922-.491169-1.3007812-1.183594-1.3007812zm-.1835938 1h16v16h-16z" fill="#3a3a38"/><path d="m8 8h16v16h-16z" fill="#fafafa"/><g fill="#3a3a38"><path d="m13.171875 12c-.687759 0-1.171875.615853-1.171875 1.267578v5.464844c0 .651725.484116 1.267578 1.171875 1.267578h5.65625c.687759 0 1.171875-.615852 1.171875-1.267578v-5.464844c0-.651726-.484116-1.267578-1.171875-1.267578zm-.171875 1h6v6h-6z"/><rect height="1" rx=".687881" ry=".804953" width=".5" x="24" y="7.5"/><rect height="1" rx=".687881" ry=".804953" width=".5" x="24" y="7.5"/></g><path d="m13 13h6v6h-6z" fill="#fafafa"/></svg>