<svg viewBox="0 0 32 32" xmlns="http://www.w3.org/2000/svg"><path d="m4 10v6h6v-6z" fill="#18ab50"/><path d="m4 4v6h6v-6z" fill="#1e8bcd"/><path d="m10 10v6h6v-6z" fill="#fb983b"/><path d="m10 4v6h6v-6z" fill="#ed3d3b"/><path d="m16 10v6h6v-6z" fill="#18ab50"/><path d="m16 4v6h6v-6z" fill="#1e8bcd"/><path d="m22 10v6h6v-6z" fill="#fb983b"/><path d="m22 4v6h6v-6z" fill="#ed3d3b"/><path d="m4 22v6h6v-6z" fill="#18ab50"/><path d="m4 16v6h6v-6z" fill="#1e8bcd"/><path d="m10 22v6h6v-6z" fill="#fb983b"/><path d="m10 16v6h6v-6z" fill="#ed3d3b"/><path d="m16 22v6h6v-6z" fill="#18ab50"/><path d="m16 16v6h6v-6z" fill="#1e8bcd"/><path d="m22 22v6h6v-6z" fill="#fb983b"/><path d="m22 16v6h6v-6z" fill="#ed3d3b"/></svg>