<svg viewBox="0 0 32 32" xmlns="http://www.w3.org/2000/svg"><path d="m4 4v24h15.958984l.208985-.291016-1.332031-.222656a1.0001 1.0001 0 0 1 -.835938-.986328v-.783203-1.216797a1.0001 1.0001 0 0 1 .835938-.986328l1.332031-.222656-.785157-1.097657a1.0001 1.0001 0 0 1 .105469-1.287109l.552735-.554688a1.0001 1.0001 0 0 0 .001953-.001953l.861328-.859375a1.0001 1.0001 0 0 1 1.289062-.107422l1.097657.785157.222656-1.332031a1.0001 1.0001 0 0 1 .986328-.835938h1.216797.783203a1.0001 1.0001 0 0 1 .986328.835938l.222656 1.332031.291016-.208985v-15.958984z" fill="#fafafa"/><g stroke-width="1.333333"><path d="m21.5 15.5-12.5 12.5h10.958984l.208985-.291016-1.332031-.222656c-.482276-.080252-.835837-.497421-.835938-.986328v-.783203-1.216797c.000101-.488907.353662-.906076.835938-.986328l1.332031-.222656-.785157-1.097657c-.283686-.397277-.239106-.941313.105469-1.287109l.552735-.554688c.000652-.00065.0013-.0013.002-.002l.861328-.859375c.34558-.346268.890935-.391714 1.289062-.107422l1.097657.785157.222656-1.332031c.05545-.329293.2716-.609183.576172-.746094zm-9 4-8.4277344 8.427734-.0722656.072266h3.5l6.75-6.75z" fill="#83beec"/><path d="m21.5 14-6.5 6.5-2.5-2.5-8.5 8.5v1.25c0 .06925.0270776.132547.0722656.177734l8.4277344-8.427734 1.75 1.75-6.75 6.75h1.5l6-6 6.5-6.5 2.589844 2.589844a1.0001 1.0001 0 0 1 .410156-.089844h1z" fill="#0063b1"/></g><path d="m3 3v26h16.275391a1.0001 1.0001 0 0 1 .107421-.193359l.576172-.806641h-15.958984v-24h24v15.958984l.806641-.576172a1.0001 1.0001 0 0 1 .193359-.107421v-16.275391z" fill="#3a3a38"/><path d="m13 10a3 3 0 0 1 -3 3 3 3 0 0 1 -3-3 3 3 0 0 1 3-3 3 3 0 0 1 3 3z" fill="#ed8733"/><path d="m12 10a2 2 0 0 1 -2 2 2 2 0 0 1 -2-2 2 2 0 0 1 2-2 2 2 0 0 1 2 2z" fill="#f8db8f"/><path d="m24.5 19-.371094 2.228516a4.5 4.5 0 0 0 -.683594.279296l-1.833984-1.310546-.861328.859375-.552734.554687 1.3125 1.835938a4.5 4.5 0 0 0 -.289063.68164l-2.220703.371094v1.216797.783203l2.228516.371094a4.5 4.5 0 0 0 .279296.683594l-1.310546 1.833984.552734.554687.861328.859375 1.835938-1.3125a4.5 4.5 0 0 0 .68164.289063l.371094 2.220703h1.216797.783203l.371094-2.228516a4.5 4.5 0 0 0 .683594-.279296l1.833984 1.310546.554687-.552734.859375-.861328-1.3125-1.835938a4.5 4.5 0 0 0 .289063-.68164l2.220703-.371094v-.783203-1.216797l-2.228516-.371094a4.5 4.5 0 0 0 -.279296-.683594l1.310546-1.833984-.859375-.861328-.554687-.552734-1.835938 1.3125a4.5 4.5 0 0 0 -.68164-.289063l-.371094-2.220703h-.783203zm.605469 1h.789062l.353516 2v.08984a3.5 3.5 0 0 1 1.136719.466797l.06055-.06055 1.664063-1.164063.558594.558594-1.164063 1.664063-.0625.0625a3.5 3.5 0 0 1 .470703 1.134765h.087887l2 .353516v.789062l-2 .353516h-.08984a3.5 3.5 0 0 1 -.466797 1.136719l.06055.06055 1.164063 1.664063-.558594.558594-1.664063-1.164063-.0625-.0625a3.5 3.5 0 0 1 -1.134765.470703v.087894l-.353516 2h-.789062l-.353516-2v-.08984a3.5 3.5 0 0 1 -1.136719-.466797l-.06055.06055-1.664063 1.164063-.558594-.558594 1.164063-1.664063.0625-.0625a3.5 3.5 0 0 1 -.470706-1.134772h-.087891l-2-.353516v-.789062l2-.353516h.08984a3.5 3.5 0 0 1 .466797-1.136719l-.06055-.06055-1.164063-1.664063.558594-.558594 1.664063 1.164063.0625.0625a3.5 3.5 0 0 1 1.134765-.470703v-.087887zm.394531 3a2.5 2.5 0 0 0 -2.5 2.5 2.5 2.5 0 0 0 2.5 2.5 2.5 2.5 0 0 0 2.5-2.5 2.5 2.5 0 0 0 -2.5-2.5zm0 1a1.5 1.5 0 0 1 1.5 1.5 1.5 1.5 0 0 1 -1.5 1.5 1.5 1.5 0 0 1 -1.5-1.5 1.5 1.5 0 0 1 1.5-1.5z" fill="#1e8bcd"/><path d="m25.105469 20h.789062l.353516 2v.08984c.40347.08734.788306.245379 1.136719.466797l.06055-.06055 1.664063-1.164063.558594.558594-1.164063 1.664063-.0625.0625c.222578.347545.381933.731717.470703 1.134765h.087887l2 .353516v.789062l-2 .353516h-.08984c-.08734.40347-.245379.788306-.466797 1.136719l.06055.06055 1.164063 1.664063-.558594.558594-1.664063-1.164063-.0625-.0625c-.347545.222578-.731717.381933-1.134765.470703v.087894l-.353516 2h-.789062l-.353516-2v-.08984c-.40347-.08734-.788306-.245379-1.136719-.466797l-.06055.06055-1.664063 1.164063-.558594-.558594 1.164063-1.664063.0625-.0625c-.222581-.347552-.381936-.731724-.470706-1.134772h-.087891l-2-.353516v-.789062l2-.353516h.08984c.08734-.40347.245379-.788306.466797-1.136719l-.06055-.06055-1.164063-1.664063.558594-.558594 1.664063 1.164063.0625.0625c.347545-.222578.731717-.381933 1.134765-.470703v-.087887zm.394531 3c-1.380712 0-2.5 1.119288-2.5 2.5s1.119288 2.5 2.5 2.5 2.5-1.119288 2.5-2.5-1.119288-2.5-2.5-2.5z" fill="#fafafa"/></svg>