<svg viewBox="0 0 32 32" xmlns="http://www.w3.org/2000/svg"><path d="m4 11c-.554 0-1 .446-1 1v13c0 .554.446 1 1 1h12.785156l-1-1h-11.785156v-13h9.072266a8 8.0000003 0 0 1 -.072266-1z" fill="#3a3a38"/><path d="m21 4a7 7 0 0 0 -7 7 7 7 0 0 0 1.482422 4.302734l4.154297-4.154296a.50594388.50594388 0 0 1 .349609-.148438.50594388.50594388 0 0 1 .365234.148438l5.177735 5.177734a7 7 0 0 0 2.470703-5.326172 7 7 0 0 0 -7-7z" fill="#fafafa"/><path d="m4 12v13h11.785156l-4.642578-4.642578a.50594388.50594388 0 0 1 0-.714844l3.63086-3.630859a8 8.0000003 0 0 1 -1.701172-4.011719z" fill="#fafafa"/><path d="m21 3a8 8.0000003 0 0 0 -8 8 8 8.0000003 0 0 0 1.773438 5.011719l.708984-.708985a7 7 0 0 1 -1.482422-4.302734 7 7 0 0 1 7-7 7 7 0 0 1 7 7 7 7 0 0 1 -2.470703 5.326172l.710937.71289a8 8.0000003 0 0 0 2.759766-6.039062 8 8.0000003 0 0 0 -8-8z" fill="#3a3a38"/><g fill-rule="evenodd"><path d="m19.986328 11a.50594388.50594388 0 0 0 -.349609.148438l-8.494141 8.49414a.50594388.50594388 0 0 0 0 .714844l8.494141 8.49414a.50594388.50594388 0 0 0 .714843 0l8.492188-8.49414a.50594388.50594388 0 0 0 0-.714844l-8.492188-8.49414a.50594388.50594388 0 0 0 -.365234-.148438zm.007813.998047 7.998047 8.001953-7.998047 7.998047-8.001953-7.998047z" fill="#3a3a38"/><path d="m19.900391 11.898438-8.001953 8.001953 8.001953 7.998047 7.998047-7.998047z" fill="#fafafa" transform="translate(.093357 .1)"/></g></svg>