<svg viewBox="0 0 32 32" xmlns="http://www.w3.org/2000/svg"><path d="m4 4v24h15v-6.5c0-3.037566 2.462434-5.5 5.5-5.5 1.278053.0018 2.515591.448589 3.5 1.263672v-13.263672z" fill="#fafafa"/><path d="m6 5c-.554 0-1 .446-1 1s.446 1 1 1 1-.446 1-1-.446-1-1-1zm5 0c-.554 0-1 .446-1 1s.446 1 1 1 1-.446 1-1-.446-1-1-1zm5 0c-.554 0-1 .446-1 1s.446 1 1 1 1-.446 1-1-.446-1-1-1zm5 0c-.554 0-1 .446-1 1s.446 1 1 1 1-.446 1-1-.446-1-1-1zm5 0c-.554 0-1 .446-1 1s.446 1 1 1 1-.446 1-1-.446-1-1-1zm-20 5c-.554 0-1 .446-1 1s.446 1 1 1 1-.446 1-1-.446-1-1-1zm5 0c-.554 0-1 .446-1 1s.446 1 1 1 1-.446 1-1-.446-1-1-1zm5 0c-.554 0-1 .446-1 1s.446 1 1 1 1-.446 1-1-.446-1-1-1zm5 0c-.554 0-1 .446-1 1s.446 1 1 1 1-.446 1-1-.446-1-1-1zm5 0c-.554 0-1 .446-1 1s.446 1 1 1 1-.446 1-1-.446-1-1-1zm-20 5c-.554 0-1 .446-1 1s.446 1 1 1 1-.446 1-1-.446-1-1-1zm5 0c-.554 0-1 .446-1 1s.446 1 1 1 1-.446 1-1-.446-1-1-1zm5 0c-.554 0-1 .446-1 1s.446 1 1 1 1-.446 1-1-.446-1-1-1zm5 0c-.554 0-1 .446-1 1s.446 1 1 1 1-.446 1-1-.446-1-1-1zm5 0c-.554 0-1 .446-1 1 0 .015981.009032.029129.009766.044922.631448.060051 1.240186.226472 1.810546.49414.10373-.157664.179688-.33543.179688-.539062 0-.554-.446-1-1-1zm-20 5c-.554 0-1 .446-1 1s.446 1 1 1 1-.446 1-1-.446-1-1-1zm5 0c-.554 0-1 .446-1 1s.446 1 1 1 1-.446 1-1-.446-1-1-1zm5 0c-.554 0-1 .446-1 1s.446 1 1 1 1-.446 1-1-.446-1-1-1zm-10 5c-.554 0-1 .446-1 1s.446 1 1 1 1-.446 1-1-.446-1-1-1zm5 0c-.554 0-1 .446-1 1s.446 1 1 1 1-.446 1-1-.446-1-1-1zm5 0c-.554 0-1 .446-1 1s.446 1 1 1 1-.446 1-1-.446-1-1-1z" fill="#1e8bcd"/><path d="m4 3c-.554 0-1 .446-1 1v24c0 .554.446 1 1 1h15v-1h-15v-24h24v13.263672c.380221.313594.716566.676873 1 1.080078v-14.34375c0-.554-.446-1-1-1z" fill="#3a3a38"/><path d="m24.5 17c-2.485281 0-4.488729 2.014745-4.5 4.5v7.5h3v-7.5c0-.828427.671573-1.5 1.5-1.5s1.5.671573 1.5 1.5v7.5h3v-7.5c0-2.485281-2.014719-4.5-4.5-4.5z" fill="#ed3d3b"/><g fill="#1e8bcd" stroke-width=".866025"><path d="m23 27h-3v2h3z"/><path d="m29 27h-3v2h3z"/></g></svg>