<svg viewBox="0 0 32 32" xmlns="http://www.w3.org/2000/svg"><path d="m10 11c-.554 0-1 .446-1 1v8c0 .554.446 1 1 1h12c.554 0 1-.446 1-1v-8c0-.554-.446-1-1-1zm0 1h12v8h-12z" fill="#3a3a38"/><path d="m10 12h12v8h-12z" fill="#fafafa"/><path d="m9.5 3c-.277 0-.5.223-.5.5v6.5h1v-6.5c0-.277-.223-.5-.5-.5zm13 0c-.277 0-.5.223-.5.5v6.5h1v-6.5c0-.277-.223-.5-.5-.5zm-19 8c-.277 0-.5.223-.5.5s.223.5.5.5h4.5v-1zm20.5 0v1h4.5c.277 0 .5-.223.5-.5s-.223-.5-.5-.5zm-20.5 9c-.277 0-.5.223-.5.5s.223.5.5.5h4.5v-1zm20.5 0v1h4.5c.277 0 .5-.223.5-.5s-.223-.5-.5-.5zm-15 2v6.5c0 .277.223.5.5.5s.5-.223.5-.5v-6.5zm13 0v6.5c0 .277.223.5.5.5s.5-.223.5-.5v-6.5z" fill="#1e8bcd"/></svg>