<svg height="32" viewBox="0 0 8.4666664 8.4666664" width="32" xmlns="http://www.w3.org/2000/svg"><g transform="translate(0 -288.53333)"><path d="m1.0583333 289.59166v6.35h2.6453166v-4.09742a.40107269.40107269 0 0 1 .4020426-.40101.40107269.40107269 0 0 1 .2583823.0951l3.0442585 2.57814v-4.52479zm5.5107748 5.56039.3519164.78961h.4873088v-.78961z" fill="#fafafa" stroke-width=".264583"/><path d="m.79375 289.32708v6.87917h2.9098999v-.26459h-2.6453166v-6.35h6.35v4.52479l.2645834.22428v-5.01365zm6.8791667 5.80068a.40107269.40107269 0 0 1 -.1359091.0243h-.1286743v.78961h-.4873088l.083199.18604a.40107269.40107269 0 0 1 .011885.03c.00557.0158.0068.0325.011369.0486h.6454389zm-2.5781373.96118-.1085205.11731h.1638144z" fill="#3a3a38" stroke-width=".264583"/><g fill-rule="evenodd" transform="matrix(.26458333 0 0 .26458333 0 288.53333)"><path d="m15.515625 12.001953a.51187413.51187413 0 0 0 -.513672.511719v17.857422a.51187413.51187413 0 0 0 .886719.347656l3.640625-3.9375 1.919922 4.082031-.019531-.046875c.197909.561415.669926.930051 1.171874 1.082032.50195.151979 1.045417.125671 1.546876-.03711.501457-.162781.97151-.469805 1.269531-.943359s.3825-1.114693.152343-1.767578a.51187413.51187413 0 0 0 -.015624-.039063l-2.273438-5.099609h5.205078a.51187413.51187413 0 0 0 .330078-.902344l-12.972656-10.986328a.51187413.51187413 0 0 0 -.328125-.121094zm.484375 1.560547 11.160156 9.451172h-4.667968a.48637677.48637677 0 0 0 -.44336.683594l2.580078 5.785156c.14559.413006.089084.675846-.054687.904297s-.413915.421364-.734375.52539c-.320461.10403-.68047.11262-.949219.03125-.268749-.081371-.434371-.217409-.519531-.458984a.48637677.48637677 0 0 0 -.019532-.044922l-2.242187-4.769531a.48637677.48637677 0 0 0 -.796875-.123047l-3.3125 3.582031z" fill="#3a3a38"/><path d="m16 13.562501v15.566405l3.3125-3.582031a.48637676.48637676 0 0 1 .796875.123047l2.242187 4.769531a.48637676.48637676 0 0 1 .01953.04492c.08516.241575.250782.377613.519531.458984.268749.08137.628758.07278.949219-.03125.32046-.104026.590604-.296939.734375-.52539s.20028-.491291.05469-.904297l-2.580078-5.785156a.48637676.48637676 0 0 1 .44336-.683594h4.667968z" fill="#fafafa"/></g><path d="m3.4395833 291.17916a.79375.79375 0 0 1 -.79375.79375.79375.79375 0 0 1 -.79375-.79375.79375.79375 0 0 1 .79375-.79375.79375.79375 0 0 1 .79375.79375z" fill="#ed8733" stroke-width=".264583"/><path d="m3.175 291.17916a.52916667.52916667 0 0 1 -.5291667.52917.52916667.52916667 0 0 1 -.5291666-.52917.52916667.52916667 0 0 1 .5291666-.52916.52916667.52916667 0 0 1 .5291667.52916z" fill="#f8db8f" stroke-width=".264583"/><g stroke-width="1.333333" transform="matrix(.26458333 0 0 .26458333 0 288.53333)"><path d="m21.5 15.5-.05273.05273.685546.580078zm-9 4-8.4277344 8.427734-.0722656.072266h3.5l6.498047-6.498047v-.503906zm1.498047 3.501953-4.998047 4.998047h4.998047zm10.830078 2.013672 1.330078 2.984375h1.841797v-2.984375z" fill="#83beec"/><path d="m21.5 14-.865234.865234.8125.6875.052734-.052734.632812.632812 5.867188 4.96875v-.601562zm-9 4-8.5 8.5v1.25l.0722656.177734 8.4277344-8.427734 1.498047 1.498047v-1.5zm1.498047 3.501953-6.498047 6.498047h1.5l4.998047-4.998047z" fill="#0063b1"/></g></g></svg>