<svg height="32" viewBox="0 0 8.4666665 8.4666669" width="32" xmlns="http://www.w3.org/2000/svg"><g transform="translate(0 -288.53332)"><g stroke-width=".264583"><path d="m1.0583333 289.59166h6.0854167v6.08542h-6.0854167z" fill="#fafafa"/><path d="m.79375 289.32708v6.61458h6.6145831v-6.61458zm.2645833.26458h6.0854167v6.08542h-6.0854167z" fill="#3a3a38"/><path d="m7.4083331 289.59166v6.08542c0 .14658-.1180047.26494-.2645831.26458h-6.0854167v.26459c0 .14658.1180042.26458.2645834.26458h6.35c.1465789 0 .2645833-.118.2645833-.26458v-6.35c0-.14658-.1180044-.26459-.2645833-.26459z" fill="#3a3a38"/><path d="m3.175 290.91458a.79375.79375 0 0 1 -.79375.79375.79375.79375 0 0 1 -.79375-.79375.79375.79375 0 0 1 .79375-.79375.79375.79375 0 0 1 .79375.79375z" fill="#ed8733"/><path d="m2.9104167 290.91458a.52916667.52916667 0 0 1 -.5291667.52917.52916667.52916667 0 0 1 -.5291667-.52917.52916667.52916667 0 0 1 .5291667-.52917.52916667.52916667 0 0 1 .5291667.52917z" fill="#f8db8f"/></g><g stroke-width=".352778"><path d="m5.4239583 292.36979-1.7197916 1.71979-1.5875001 1.5875h5.0270831v-1.5875zm-2.38125 1.05834-1.984375 1.98437v.26458h.6614583l1.7859376-1.78593z" fill="#83beec"/><path d="m5.4239583 291.97292-1.7197916 1.71979-.6614584-.66146-1.984375 1.98437v.39688l1.984375-1.98437.4630209.46302-1.7859376 1.78593h.396875l3.3072917-3.30729 1.7197914 1.71979v-.39687z" fill="#0063b1"/></g></g></svg>