<svg viewBox="0 0 32 32" xmlns="http://www.w3.org/2000/svg"><g fill="#1e8bcd"><path d="m10.501953 2.9980469c.127809-.0000005.255582.048551.353516.1464843.195867.1958675.195869.511162 0 .7070313l-6.148438 6.1484375h23.792969c.276998 0 .5.223.5.5s-.223002.5-.5.5h-23.792969l6.148438 6.148438c.19587.195868.195868.511163 0 .707031s-.511162.19587-.707031 0l-7.001954-7.001953c-.047012-.047013-.084075-.103238-.109375-.166016-.024483-.06017-.037109-.123595-.037109-.1875 0-.06645.013774-.129596.037109-.1875.0253-.06278.062363-.119003.109375-.166016l7.001954-7.0019528c.09793-.097935.225706-.1464839.353515-.1464843z"/><path d="m19.501953 16c-.127809 0-.255585.04854-.353515.146484l-6.001954 6c-.04702.04701-.08407.103236-.109375.166016-.02334.057904-.037109.12105-.037109.1875s.01377.129596.03711.1875c.0253.06278.06236.119003.109375.166016l6.001954 6c.097929.097944.225705.146484.353514.146484.127809.000001.255586-.04855.353516-.146484.195867-.195868.195869-.511162 0-.707032l-5.148438-5.146484h13.792969c.276998 0 .5-.223.5-.5s-.223002-.5-.5-.5h-13.792969l5.148438-5.146484c.195869-.19587.195867-.511164 0-.707032-.097934-.097934-.225707-.146485-.353516-.146484z"/></g></svg>