<svg viewBox="0 0 32 32" xmlns="http://www.w3.org/2000/svg"><path d="m14.121094 3-1.664063 1.6640625c.051287.1111654.096526.2209951.138672.3359375h.904297c.813719 0 1.5.6862809 1.5 1.5s-.686281 1.5-1.5 1.5h-.904297c-.042065.1142616-.087569.2234686-.138672.3339844l2.089844 2.0898436c.530915.530913.648074 1.473041.042969 2.078125l-.087891.087891c-.605087.605105-1.549964.481267-2.076172-.044922l-2.089843-2.089844c-.111087.05139-.221067.096414-.335938.138672v.90625c0 .813719-.6862809 1.5-1.5 1.5s-1.5-.686281-1.5-1.5v-.902344c-.1150963-.042414-.2246482-.089042-.3359375-.140625l-.6640625.664063v17.878906h19.998047l.001953-19-7-7z" fill="#fafafa"/><path d="m6.1210938 2 .5429687.5429688c.1111654-.0512871.2209951-.0965254.3359375-.1386719v-.4042969zm3.8789062 0v.4042969c.114871.0422581.224851.0872816.335938.1386719l.542968-.5429688zm4.902344 0c-.072305.2079471-.184673.4034225-.345703.5644531l-.435547.4355469h4.876953v6c0 .6726441.491378 1 1 1h6v19h-20.0000001v-17.876953l-1 1v16.876953c0 .554.446 1 1 1h20.0000001c.554 0 .892483-.456533 1-1v-10.109375-10.5058594l-6.507813-6.3847656z" fill="#3a3a38"/><path d="m20 9h6l-6-6z" fill="#fafafa" fill-rule="evenodd"/><path d="m3.5078125 1.000109c-.125814-.002003-.2508351.043843-.3457032.1387087l-.021483.022677c-.1897336.1897324-.186103.5013923.00977.6972852l2.5488222 2.5488a3.5000001 3.5000001 0 0 0 -.660156 1.5937512h-1.5390625c-.277 0-.5.2229921-.5.5000315s.2230001.4999937.5.4999937h1.5410156a3.5000001 3.5000001 0 0 0 .6582032 1.5937512l-2.5371094 2.5370835c-.1958687.19578-.2162596.492737-.044922.664063l.087891.08806c.1713377.171213.4681939.150803.6640625-.04498l2.5371091-2.5384375a3.5000001 3.5000001 0 0 0 1.5937501.6620976v1.5370959c0 .27704.2229997.499994.5000001.499994.2770016 0 .4999997-.222992.4999997-.499994v-1.5410266a3.5000001 3.5000001 0 0 0 1.5937501-.6601323l2.539062 2.5390489c.19587.19578.490772.216189.66211.04498l.08789-.08806c.171341-.171212.152901-.46817-.04297-.664063l-2.539061-2.5390555a3.5000001 3.5000001 0 0 0 .660156-1.5917858h1.539063c.277002 0 .5-.2229921.5-.4999937 0-.2770394-.223-.5000315-.5-.5000315h-1.541015a3.5000001 3.5000001 0 0 0 -.658204-1.5937512l2.548828-2.5488001c.19587-.1957795.201453-.5075527.01172-.697285l-.021471-.0226772c-.18974-.18973225-.501402-.18406296-.697271.0113386l-2.548837 2.5488378a3.5000001 3.5000001 0 0 0 -1.5937501-.66017v-1.5390615c0-.2770394-.2229996-.49999369-.4999997-.49999369-.2770016 0-.5000001.22299209-.5000001.49999369v1.5410268a3.5000001 3.5000001 0 0 0 -1.5937501.6582047l-2.5488281-2.5488378c-.0979343-.0978897-.2237952-.1485354-.3496093-.15042518zm4.9921877 3a2.5 2.5 0 0 1 2.4999998 2.5000064 2.5 2.5 0 0 1 -2.4999998 2.4999685 2.5 2.5 0 0 1 -2.5000003-2.4999685 2.5 2.5 0 0 1 .7226563-1.755893l.021468-.022677a2.5 2.5 0 0 1 1.755876-.7206805z" fill="#ed8733"/><circle cx="8.5" cy="6.50005" fill="#fafafa" r="2.5"/><path d="m9 12.90625c-.1575712.057858-.325106.09375-.5.09375-.1727488 0-.338226-.035283-.4941406-.091797v4.091797c-.000012 1.653052 1.3372101 2.9962 2.9902346 3h.001953.007812 1.998047.476563c.0069.0002.012631.003906.019531.003906h4.792969l-2.140625 2.140625c-.195867.19578-.195867.513206 0 .708985.097901.09789.225706.146484.353515.146484.127808 0 .257539-.04821.355469-.146484l2.992188-2.996094c.04703-.04687.08405-.103276.109375-.166016.02336-.05783.037109-.12098.037109-.1875s-.013749-.12967-.037109-.1875c-.02529-.06274-.06236-.119145-.109375-.166015l-2.992188-3.003907c-.097931-.097886-.227661-.146484-.355469-.146484-.127812 0-.255585.04859-.353515.146484-.195867.195779-.195867.513205 0 .708985l2.136718 2.144531h-5.283203-2c-1.1045692 0-1.9999996-.895433-1.9999996-2v-4.091797c-.0019291-.000699-.0039338-.001246-.0058594-.001953z" fill="#1e8bcd"/></svg>