<svg viewBox="0 0 32 32" xmlns="http://www.w3.org/2000/svg"><g fill="#ed3d3b"><path d="m2.4726562 12a.50005.50005 0 0 0 -.4726562.5v6a.50005.50005 0 0 0 .8007812.400391l4-3a.50005.50005 0 0 0 0-.800782l-4-3a.50005.50005 0 0 0 -.328125-.099609zm.5273438 1.5 2.6679688 2-2.6679688 2zm5.5 1.5c-.277 0-.5.223-.5.5s.223.5.5.5h5c.277 0 .5-.223.5-.5s-.223-.5-.5-.5zm8 0c-.277 0-.5.223-.5.5s.223.5.5.5h5c.277 0 .5-.223.5-.5s-.223-.5-.5-.5zm7.960938 0c-.25588 0-.460938.205058-.460938.460938v.078124c0 .25588.205059.460938.460938.460938h5.078124c.25588 0 .460938-.205058.460938-.460938v-.078124c0-.25588-.205059-.460938-.460938-.460938z" fill="#d42314"/><path d="m3 13.5v4l2.6679688-2z" fill="#ff9198"/></g><path d="m6.9667969 18c-.5352205 0-.9667969.431576-.9667969.966797v10.033203h1v-10h20v10h1v-10.033203c0-.535221-.431576-.966797-.966797-.966797z" fill="#3a3a38"/><path d="m7 19v10h20v-10z" fill="#fafafa"/><path d="m6.9667969 13c-.5352205 0-.9667969-.431576-.9667969-.966797v-9.033203h1v9h20v-9h1v9.033203c0 .535221-.431576.966797-.966797.966797z" fill="#3a3a38"/><path d="m7 12v-9h20v9z" fill="#fafafa"/></svg>