<svg viewBox="0 0 32 32" xmlns="http://www.w3.org/2000/svg"><path d="m3 6v19.998047h15.480469c-.804958-.01108-1.480469-.690989-1.480469-1.498047 0-.813703.686297-1.5 1.5-1.5h1.5v-3h-1.5c-.813703 0-1.5-.686297-1.5-1.5s.686297-1.5 1.5-1.5h1.5v-1.5c0-.813703.686297-1.5 1.5-1.5s1.5.686297 1.5 1.5v1.5h3v-1.5c0-.813703.686297-1.5 1.5-1.5s1.5.686297 1.5 1.5v1.5-11z" fill="#fafafa"/><path d="m2.9980469 5c-.5539999 0-1 .446-1 1v20c0 .554.456533.892483 1 1h17.0019531v-1h-1.5-15.5019531v-19.9980469-.0019531h26.0000001v.0019531 10.9980469h.492187c.178637-.0019.348015.03386.507813.0918v-11.0918c0-.554-.446-1-1-1z" fill="#3a3a38"/><path d="m7 15v1h1v-1zm2 0v1h11v-.5c0-.174891.03589-.34243.09375-.5zm13.90625 0c.057859.15757.09375.325109.09375.5v.5h3v-.5-.5zm-15.90625 3v1h1v-1zm2 0v1h8.09375c-.057859-.15757-.09375-.325109-.09375-.5s.03589-.34243.09375-.5zm-2 3v1h1v-1zm2 0v1h11v-1z" fill="#c8c6c4"/><path d="m7 10h18v2h-18z" fill="#797774"/><path d="m21.5 15c-.277 0-.5.223-.5.5v2.5h-2.5c-.277 0-.5.223-.5.5s.223.5.5.5h2.5v5h-2.5c-.277 0-.5.223-.5.5s.223.5.5.5h2.5v2.5c0 .277.223.5.5.5s.5-.223.5-.5v-2.5h5v2.5c0 .277.223.5.5.5s.503797-.223026.5-.5v-2.5h2.5c.277 0 .5-.223.5-.5s-.223-.5-.5-.5h-2.5v-5h2.5c.277 0 .5-.223.5-.5s-.223016-.502973-.5-.5h-2.5v-2.5c0-.277-.223-.5-.5-.5s-.5.223-.5.5v2.5h-5v-2.5c0-.277-.223-.5-.5-.5zm.5 4h5v5h-5z" fill="#1e8bcd"/></svg>