<svg viewBox="0 0 32 32" xmlns="http://www.w3.org/2000/svg"><g transform="scale(-1 1)"><rect fill="#3a3a38" height="1" ry=".5" width="14.999998" x="-28" y="4"/><rect fill="#1e8bcd" height="1" ry=".392136" width="15.000005" x="-28" y="14"/><rect fill="#3a3a38" height="1" ry=".436441" width="15.000001" x="-28" y="24"/><rect fill="#3a3a38" height="1" ry=".5" width="8.999999" x="-22" y="27"/><rect fill="#1e8bcd" height="1" ry=".5" width="8.999999" x="-22" y="17"/><rect fill="#3a3a38" height="1" ry=".5" width="9.000002" x="-22" y="7"/></g><g fill="#3a3a38"><path d="m6.567057 23.012724q.555431 0 1.017175.160606.461744.160607.796341.455052.334597.294446.51528.709346.187374.4149.187374.923488 0 .421592-.107071.749497-.100379.327905-.294445.575507-.194067.247602-.468436.421592-.27437.167299-.615659.27437.836493.227526 1.258085.762881.421592.528664.421592 1.331696 0 .608967-.227526 1.097479-.227526.481819-.62235.823108-.388133.341289-.910104.521972-.521971.180682-1.110862.180682-.682578 0-1.164398-.167298-.48182-.173991-.823109-.48182-.341288-.307829-.562123-.72273-.220834-.4149-.368056-.910104l.481819-.20745q.194067-.0803.368057-.04684.180683.03346.260986.200758.0803.17399.194066.4149.120455.234218.321213.455052.200759.214142.508588.368057.307829.147223.769573.147223.441668 0 .769573-.147223.327905-.153915.548739-.388133.220834-.234218.327905-.528663.113763-.294445.113763-.575507 0-.347981-.08699-.642426-.087-.301138-.327905-.508588-.24091-.214142-.669194-.334597-.421592-.120455-1.090786-.120455v-.809724q.548739-.0067.930179-.120455.381441-.120455.622351-.321214.24091-.200758.347981-.481819.107071-.281062.107071-.615659 0-.374748-.113763-.649118-.107071-.281062-.307829-.468436-.194067-.187374-.468436-.274369-.267678-.09369-.588891-.09369-.321213 0-.588891.10038-.260986.09369-.468436.267677-.20745.167299-.354673.408209-.14053.234217-.214142.515279-.05354.227526-.187374.301137-.127147.06692-.361365.03346l-.588891-.09369q.087-.608967.327906-1.070711.240909-.468436.608966-.782957.374749-.314521.849877-.475128.481819-.160606 1.03725-.160606z"/><path d="m6.5416824 2.991824q.4994545 0 .9266989.150438.4272445.150438.7401566.433262.3129111.282824.487419.692016.1805265.409191.1805265.932717 0 .439279-.1323855.818383-.1263688.373087-.3490167.716086-.2166311.343-.5054732.673963-.2888411.324947-.60777.655911l-2.0279067 2.112152q.2286656-.0662.4573322-.102298.2346834-.0361.4452967-.0361h2.5093089q.1624733 0 .2587544.09628.09628.09026.09628.246719v.607771h-5.1690566v-.343q0-.102298.042121-.216631.042121-.12035.1444201-.21663l2.4491343-2.527362q.3129111-.318929.55963-.613788.2527356-.294859.4272445-.589718.1745078-.300877.2707888-.60777.09628-.306894.09628-.649893 0-.342999-.1083156-.601753-.1022974-.258756-.282823-.427247-.1805255-.174508-.4272444-.258753-.2467189-.08424-.53556-.08424-.2828244 0-.5235255.09026-.2407011.08424-.4272444.240702-.1865434.150437-.3189289.367068-.1323856.210614-.1925611.46335-.04814.204596-.1684901.270789-.1143333.06018-.3249466.03008l-.5235255-.08424q.072215-.547596.2888421-.962805.2226479-.421228.5536123-.704051.3309644-.282824.7582088-.427244.4332612-.144421.9327167-.144421z" stroke-width="1.004801"/></g></svg>