<svg viewBox="0 0 32 32" xmlns="http://www.w3.org/2000/svg"><g transform="scale(-1 1)"><rect fill="#1e8bcd" height="1" ry=".5" width="14.999998" x="-28" y="4"/><rect fill="#3a3a38" height="1" ry=".385879" width="12" x="-28" y="14"/><rect fill="#1e8bcd" height="1" ry=".436441" width="15.000001" x="-28" y="24"/><rect fill="#1e8bcd" height="1" ry=".5" width="8.999999" x="-22" y="27"/><g fill="#3a3a38"><rect height="1" ry=".5" width="6" x="-22" y="17"/><rect fill="#1e8bcd" height="1" ry=".5" width="9.000002" x="-22" y="7"/></g></g><path d="m4.25 4c-.1384999 0-.25.1115001-.25.25v.5 20c0 .1385.1115001.25.25.25h.25l4.7773438-.001953-1.1386719 1.144531c-.3255187.317139-.0929894.868926.3613281.857422.1300479-.0041.2533701-.05875.34375-.152344l1.90625-1.912109c.173289-.160699.223009-.266429.224609-.435547-.0016-.169118-.05132-.274898-.224609-.435547l-1.90625-1.912109c-.0903799-.09359-.2137021-.148244-.34375-.152344-.4543175-.0115-.6868468.540283-.3613281.857422l1.1386719 1.144531-4.2773438-.001953v-19h5.75c.1385 0 .25-.1115001.25-.25v-.5c0-.1384999-.1115-.25-.25-.25z" fill="#1e8bcd" fill-rule="evenodd"/></svg>