<svg viewBox="0 0 32 32" xmlns="http://www.w3.org/2000/svg"><path d="m5 5.7226562v20.5546878l.7226562.722656h17.1640628-4.886719v-1h-.5c-.813704 0-1.5-.686296-1.5-1.5s.686296-1.5 1.5-1.5h8.380859l-1.439453-1.439453c-.575291-.575286-.575286-1.545811 0-2.121094.288605-.288608.679495-.439453 1.060547-.439453.381046 0 .771936.150833 1.060547.439453l.4375.4375v-.0039-7.746094-6.4042968c0-.4001169-.322545-.7226622-.722656-.7226622h-20.5546878z" fill="#83beec" opacity=".5"/><path d="m6 6v12h3v-4c0-.554.446-1 1-1h12v-7zm4 8v4h12v-4z" fill="#fafafa"/><path d="m10 13c-.554 0-1 .446-1 1v12c0 .554.446 1 1 1h8v-.996094h-.5c-.012662 0-.024511-.003576-.037109-.003906h-7.462891v-12h16v5.085938c.207.073294.402038.189142.564453.351562l.435547.435547v-5.873047c0-.554-.446-1-1-1z" fill="#3a3a38"/><path d="m26 3v3h3v-3zm1 1h1v1h-1z" fill="#0063b1"/><path d="m3 26v3h3v-3zm1 1h1v1h-1z" fill="#0063b1"/><path d="m10 14v12h7.462891c-.79894-.020905-1.466797-.697035-1.466797-1.5 0-.815627.688279-1.503906 1.503906-1.503906h8.373047l-1.433594-1.433594c-.576651-.576645-.576645-1.548358 0-2.125.289288-.289291.680541-.441406 1.0625-.441406.167518 0 .336338.032585.498047.089844v-5.085938z" fill="#fafafa"/><path d="m6 5c-.554 0-1 .446-1 1v12c0 .554.446 1 1 1h16c.554 0 1-.446 1-1v-12c0-.554-.446-1-1-1zm0 1h16v12h-16z" fill="#3a3a38"/><path d="m3 3v3h3v-3zm1 1h1v1h-1z" fill="#0063b1"/><g fill="#fafafa"><path d="m4 4h1v1h-1z"/><path d="m27 4h1v1h-1z"/><path d="m4 27h1v1h-1z"/></g><path d="m25.501953 20c-.127809 0-.255582.04855-.353515.146484-.195869.195868-.195871.511163 0 .707032l3.144531 3.146484h-10.792969c-.277 0-.5.223-.5.5s.223.5.5.5h10.792969l-3.144531 3.146484c-.195871.195869-.195869.511164 0 .707032.097933.097934.225706.146484.353515.146484.12781 0 .255583-.048549.353516-.146484l3.998047-4c.047015-.047013.084075-.103236.109375-.166016.02334-.057904.037109-.12105.037109-.1875s-.013769-.129596-.037109-.1875c-.0253-.06278-.06236-.119003-.109375-.166016l-3.998047-4c-.097933-.097935-.225706-.146484-.353516-.146484z" fill="#1e8bcd"/><path d="m7 3v1h2v-1zm3 0v1h2v-1zm3 0v1h2v-1zm3 0v1h2v-1zm3 0v1h2v-1zm3 0v1h2v-1zm3 0v1h1v-1zm-22 3v1h1v-1zm25 1v2h1v-2zm-25 1v2h1v-2zm25 2v2h1v-2zm-25 1v2h1v-2zm25 2v2h1v-2zm-25 1v2h1v-2zm25 2v2h1v-2zm-25 1v2h1v-2zm25 2v1.875l.123047.125h.876953v-2zm-25 1v2h1v-2zm0 3v2h1v-2zm3 5v1h2v-1zm3 0v1h2v-1zm3 0v1h2v-1zm3 0v1h2v-1z" fill="#3a3a38"/></svg>