<svg viewBox="0 0 32 32" xmlns="http://www.w3.org/2000/svg"><rect fill="#1e8bcd" height="4" ry="1.333334" width="10" x="11" y="25"/><path d="m13.427734 3c0 8.647059-3.419045 10.460785-6.427734 13.587891l5.142578 7.412109h7.714844l5.142578-7.412109c-3.008688-3.127106-6.427734-4.940832-6.427734-13.587891h-1.572266v16h-1-1v-16zm.572266 3.859375v12.140625a1.0001 1.0001 0 0 0 1 1h1 1a1.0001 1.0001 0 0 0 1-1v-12.140625c.372195 2.2574457.937981 4.172055 1.814453 5.542969 1.167003 1.825341 2.579472 3.038349 3.880859 4.310547l-4.361328 6.287109h-6.667968l-4.3613285-6.287109c1.3013882-1.272198 2.7138565-2.485206 3.8808595-4.310547.876472-1.370914 1.442258-3.2855233 1.814453-5.542969z" fill="#3a3a38"/><path d="m14 6.859375c-.372195 2.2574457-.937981 4.172055-1.814453 5.542969-1.167003 1.825341-2.5794713 3.038349-3.8808595 4.310547l4.3613285 6.287109h6.667968l4.361328-6.287109c-1.301387-1.272198-2.713856-2.485206-3.880859-4.310547-.876472-1.370914-1.442258-3.2855233-1.814453-5.542969v12.140625a1.0001 1.0001 0 0 1 -1 1h-1-1a1.0001 1.0001 0 0 1 -1-1z" fill="#fafafa" fill-rule="evenodd"/></svg>