<svg viewBox="0 0 32 32" xmlns="http://www.w3.org/2000/svg"><path d="m3 7v22h26v-22zm1 1h17v20h-17zm18 0h6v20h-6z" fill="#3a3a38"/><path d="m4 8v20h17v-20zm18 0v20h6v-20zm3 2 2 3h-4zm-18.5175781 2h12.0351561c.26761 0 .482422.214812.482422.482422v.035156c0 .26761-.214812.482422-.482422.482422h-12.0351561c-.2676103 0-.4824219-.214812-.4824219-.482422v-.035156c0-.26761.2148116-.482422.4824219-.482422zm0 4h12.0351561c.26761 0 .482422.214812.482422.482422v.035156c0 .26761-.214812.482422-.482422.482422h-12.0351561c-.2676103 0-.4824219-.214812-.4824219-.482422v-.035156c0-.26761.2148116-.482422.4824219-.482422zm0 4h12.0351561c.26761 0 .482422.214812.482422.482422v.035156c0 .26761-.214812.482422-.482422.482422h-12.0351561c-.2676103 0-.4824219-.214812-.4824219-.482422v-.035156c0-.26761.2148116-.482422.4824219-.482422zm16.5175781 3h4l-2 3zm-16.5175781 1h12.0351561c.26761 0 .482422.214812.482422.482422v.035156c0 .26761-.214812.482422-.482422.482422h-12.0351561c-.2676103 0-.4824219-.214812-.4824219-.482422v-.035156c0-.26761.2148116-.482422.4824219-.482422z" fill="#fafafa"/><path d="m25 10-2 3h4zm-18.5175781 2c-.2676103 0-.4824219.214812-.4824219.482422v.035156c0 .26761.2148116.482422.4824219.482422h12.0351561c.26761 0 .482422-.214812.482422-.482422v-.035156c0-.26761-.214812-.482422-.482422-.482422zm0 4c-.2676103 0-.4824219.214812-.4824219.482422v.035156c0 .26761.2148116.482422.4824219.482422h12.0351561c.26761 0 .482422-.214812.482422-.482422v-.035156c0-.26761-.214812-.482422-.482422-.482422zm0 4c-.2676103 0-.4824219.214812-.4824219.482422v.035156c0 .26761.2148116.482422.4824219.482422h12.0351561c.26761 0 .482422-.214812.482422-.482422v-.035156c0-.26761-.214812-.482422-.482422-.482422zm16.5175781 3 2 3 2-3zm-16.5175781 1c-.2676103 0-.4824219.214812-.4824219.482422v.035156c0 .26761.2148116.482422.4824219.482422h12.0351561c.26761 0 .482422-.214812.482422-.482422v-.035156c0-.26761-.214812-.482422-.482422-.482422z" fill="#3a3a38"/></svg>