<svg viewBox="0 0 32 32" xmlns="http://www.w3.org/2000/svg"><path d="m4 2c-.554 0-1 .446-1 1v22c0 .554.4567584.891352 1 1h2v-1h-2v-22h16v3h1v-3c0-.554-.446-1-1-1z" fill="#3a3a38"/><path d="m4 3v22h2v-18c0-.554.446-1 1-1h13v-3z" fill="#fafafa"/><path d="m7 6c-.554 0-1 .446-1 1v22c0 .554.446 1 1 1h7v-1h-7v-22h16v9h1v-9c0-.554-.446-1-1-1z" fill="#3a3a38"/><path d="m7 7v22h7v-7c0-.554.446-1 1-1h2v-4c0-.554.446-1 1-1h5v-9z" fill="#fafafa"/><path d="m18.857422 17c-.474857 0-.857422.382565-.857422.857422v4.142578h1 7 1v-4.142578c0-.474857-.382565-.857422-.857422-.857422zm.142578 1h7v3h-7zm-3 4c-.554 0-1 .446-1 1v5c0 .554.446 1 1 1h3v2.142578c0 .474857.382565.857422.857422.857422h5.285156c.474857 0 .838139-.382957.857422-.857422v-2.142578h3c.554 0 1-.446 1-1v-5c0-.554-.446-1-1-1h-1v1h1v5h-4v3h-5v-3h-4v-5h1v-1z" fill="#3a3a38"/><path d="m18 22h9v1h-9z" fill="#1e8bcd"/><path d="m16 23v5h4 5 2v-1h2v-4h-1v1h-11v-1z" fill="#797774"/><path d="m19 18v3h7v-3zm8 9v1h2v-1zm-7 1v3h5v-3z" fill="#fafafa" fill-rule="evenodd"/></svg>