<svg viewBox="0 0 32 32" xmlns="http://www.w3.org/2000/svg"><path d="m4 2c-.554 0-1 .446-1 1v22c0 .554.4567584.891352 1 1h3c.7643635.878143.9252051.0098 1 0v-14c0-.554.446-1 1-1h12v-8c0-.554-.446-1-1-1zm5 25c-6 3.333333-3 1.666667 0 0z" fill="#3a3a38"/><path d="m4 3v22h3l1 1v-14c0-.554.446-1 1-1h11v-8z" fill="#fafafa"/><path d="m7 6c-.554 0-1 .446-1 1v22c0 .554.446 1 1 1h10c0-2.482427 1.327777-4.638153 3.291016-5.875l.339843-1.017578c-.394521-.61137-.630859-1.33043-.630859-2.107422 0-2.197294 1.802706-4 4-4v-10c0-.554-.446-1-1-1z" fill="#3a3a38"/><path d="m7 7v22h10.076172c.3473-2.365541 1.903832-4.332324 4.005859-5.3125-.657612-.713744-1.082031-1.648189-1.082031-2.6875 0-1.850301 1.284214-3.405591 3-3.855469v-10.144531z" fill="#fafafa"/><path d="m24 18a3 3 0 0 0 -3 3 3 3 0 0 0 3 3 3 3 0 0 0 3-3 3 3 0 0 0 -3-3zm0 6a6 6 0 0 0 -6 6h1a5 5 0 0 1 5-5 5 5 0 0 1 5 5h1a6 6 0 0 0 -6-6z" fill="#0063b1"/><path d="m26 21a2 2 0 0 1 -2 2 2 2 0 0 1 -2-2 2 2 0 0 1 2-2 2 2 0 0 1 2 2z" fill="#83beec"/></svg>