<svg viewBox="0 0 32 32" xmlns="http://www.w3.org/2000/svg"><path d="m3.5 3a.50005.50005 0 0 0 -.5.5v19a.50005.50005 0 0 0 .5.5h4.5v5.5a.50005.50005 0 0 0 .8261719.378906l6.8593751-5.878906h12.814453a.50005.50005 0 0 0 .5-.5v-19a.50005.50005 0 0 0 -.5-.5zm.5 1h24v18h-12.5a.50005.50005 0 0 0 -.326172.121094l-6.173828 5.291015v-4.912109a.50005.50005 0 0 0 -.5-.5h-4.5z" fill="#3a3a38" fill-rule="evenodd"/><path d="m4 4v18h4.5a.50005.50005 0 0 1 .5.5v4.912109l6.173828-5.291015a.50005.50005 0 0 1 .326172-.121094h12.5v-18z" fill="#fafafa" fill-rule="evenodd"/><path d="m19.992214 15.047488h-.862564q-.146819 0-.238581-.07341-.08565-.07341-.134585-.183525l-.685157-1.933122h-3.315671l-.679039 1.927005q-.03671.103997-.140702.183524-.09788.07953-.238582.07953h-.862564l3.015915-8.038361h1.131733zm-4.955154-2.985327h2.752864l-1.137851-3.2361441q-.06117-.1468194-.122349-.3425786-.06118-.1957592-.116232-.4221057-.06118.232464-.12235.4282232-.06117.1957592-.116232.3425785z" fill="#3a3a38" transform="matrix(1.2532057 0 0 1.2532057 .991584 1.120574)"/><path d="m11 5v2h-5v1h2v2.5c.6572797 1.210531 1.647912 2.412895 2.753906 3.478516-.8780494.779752-1.4412578 1.086981-2.347656 1.810546l.59375.710938c.8172934-.490376 1.676078-1.11992 2.5-1.835938.823922.716018 1.682707 1.345562 2.5 1.835938l.59375-.710938c-.906398-.723565-1.469607-1.030794-2.347656-1.810546 1.105994-1.065621 2.096626-2.267985 2.753906-3.478516v-2.5h2v-1h-5v-2zm-2 3h5v2.5c-1.095268 1.296501-1.87139 2.140227-2.5 2.769531-.62861-.629304-1.404732-1.47303-2.5-2.769531z" fill="#1e8bcd"/></svg>