<svg viewBox="0 0 32 32" xmlns="http://www.w3.org/2000/svg"><path d="m16 3a13 13 0 0 0 -8.0605469 2.8183594l.7050781.7070312a12 12 0 0 1 7.3554688-2.5253906 12 12 0 0 1 12 12 12 12 0 0 1 -2.53125 7.347656l.722656.720703a13 13 0 0 0 2.808594-8.068359 13 13 0 0 0 -13-13zm-10.1914062 4.9296875a13 13 0 0 0 -2.8085938 8.0703125 13 13 0 0 0 13 13 13 13 0 0 0 8.064453-2.822266l-.705078-.705078a12 12 0 0 1 -7.359375 2.527344 12 12 0 0 1 -12-12 12 12 0 0 1 2.53125-7.3476562z" fill="#3a3a38"/><path d="m16 4a12 12 0 0 0 -7.3554688 2.5253906l16.8242188 16.8222654a12 12 0 0 0 2.53125-7.347656 12 12 0 0 0 -12-12zm-9.46875 4.6523438a12 12 0 0 0 -2.53125 7.3476562 12 12 0 0 0 12 12 12 12 0 0 0 7.359375-2.527344z" fill="#fafafa"/><path d="m18.988281 8-5.642578 3.226562.695313.69336 4.958984-2.6484376v7.6074216l1 1v-9.4082029-.4707031h-1zm-9.988281 5v6h2v-5.880859l-.119141-.119141zm3 1.119141v5.880859.003906l6.988281 3.996094h.011719 1v-.470703-1.414063l-1-1v1.613282l-6-3.205078v-4.40625z" fill="#3a3a38"/><path d="m3.7045112 3-.7045112.708419 25.303301 25.291581.696699-.708419z" fill="#ed3d3b"/></svg>