<svg viewBox="0 0 32 32" xmlns="http://www.w3.org/2000/svg"><path d="m20 18v4.089844c.234137.07979.451573.206353.609375.376953.283645.306794.396484.678996.396484 1.035156s-.11284.730315-.396484 1.037109c-.157803.170684-.375198.297156-.609375.376954v5.083984h9v-12z" fill="#fafafa"/><path d="m19.488281 17c-.27055 0-.488281.217729-.488281.488281v4.509766h.476562l-.050781.001953c.190794-.009783.387438.026192.574219.089844v-4.089844h9v12h-9v-5.083984c-.186745.063634-.383464.099626-.574219.089843l.050781.001953h-.476562v5.503907c0 .08913.030896.168464.072266.240234.01155.02008.022899.036558.037109.054688.05084.06549.109954.121611.1875.154297.058453.024636.123766.039062.191406.039062h10.023438c.06764 0 .132948-.014423.191406-.039062.07755-.03268.136655-.0888.1875-.154297.01421-.01812.025559-.034598.037109-.054688.041366-.07177.072266-.151102.072266-.240234v-13.023438c0-.270549-.217731-.488281-.488281-.488281z" fill="#3a3a38"/><path d="m1.4882812 6c-.2705497 0-.4882812.2177315-.4882812.4882812v19.0234378c0 .27055.2177317.488281.4882812.488281h12.0234378c.096822 0 .182078-.035772.257812-.083984l-.916015-.916016h-10.853516v-18h10.861328l.914063-.9121094c-.076956-.0505883-.164286-.0878906-.263672-.0878906zm11.5117188 4.146484v11.714844l1-.996094v-9.720703z" fill="#3a3a38"/><path d="m2 7v18h10.853516l-.34961-.349609.222656.167968c-.981011-.545823-.987815-2.068456-.011718-2.623047l-.212891.16211.498047-.496094v-11.714844l-.496094-.4960934.222656.1679688c-.98101-.5458236-.987815-2.0684571-.011718-2.6230469l-.212891.1621094.359375-.3574219z" fill="#fafafa"/><path d="m3.4277344 11c-.2371624 0-.4277344.190572-.4277344.427734v.144532c0 .237162.190572.427734.4277344.427734h8.1445316c.237162 0 .427734-.190572.427734-.427734v-.144532c0-.237162-.190572-.427734-.427734-.427734zm0 3c-.2371624 0-.4277344.190572-.4277344.427734v.144532c0 .237162.190572.427734.4277344.427734h8.1445316c.237162 0 .427734-.190572.427734-.427734v-.144532c0-.237162-.190572-.427734-.427734-.427734zm0 6c-.2371624 0-.4277344.190572-.4277344.427734v.144532c0 .237162.190572.427734.4277344.427734h8.1445316c.237162 0 .427734-.190572.427734-.427734v-.144532c0-.237162-.190572-.427734-.427734-.427734z" fill="#83beec"/><path d="m3.4648438 8c-.257081 0-.4648438.2077628-.4648438.4648438v.070312c0 .2570814.2077628.4648442.4648438.4648442h8.0703122c.257081 0 .464844-.2077628.464844-.4648438v-.070312c0-.2570814-.207763-.4648442-.464844-.4648442zm0 9c-.257081 0-.4648438.207763-.4648438.464844v.07031c0 .257083.2077628.464846.4648438.464846h8.0703122c.257081 0 .464844-.207763.464844-.464844v-.07031c0-.257083-.207763-.464846-.464844-.464846zm0 6c-.257081 0-.4648438.207763-.4648438.464844v.07031c0 .257083.2077628.464846.4648438.464846h8.0703122c.257081 0 .464844-.207763.464844-.464844v-.07031c0-.257083-.207763-.464846-.464844-.464846z" fill="#797774"/><path d="m21.5 19c-.257081 0-.464844.207763-.464844.464844v.07031c0 .257083.207763.464846.464844.464846h6.070312c.257081 0 .464844-.207763.464844-.464844v-.07031c0-.257083-.207763-.464846-.464844-.464846zm0 3c-.257081 0-.464844.207763-.464844.464844v.07031c0 .257083.207763.464846.464844.464846h6.070312c.257081 0 .464844-.207763.464844-.464844v-.07031c0-.257083-.207763-.464846-.464844-.464846zm-.07031 6c-.257081 0-.464844.207763-.464844.464844v.07031c-.000002.257083.207761.464846.464842.464846h6.070312c.257081 0 .464844-.207763.464844-.464844v-.07031c0-.257083-.207763-.464846-.464844-.464846z" fill="#797774"/><path d="m21.5 25h6c.277 0 .5.223.5.5s-.223.5-.5.5h-6c-.277 0-.5-.223-.5-.5s.223-.5.5-.5z" fill="#83beec"/><path d="m20 2v5.0898438c.234137.0797956.451573.2063258.609375.3769531.283645.3067943.396484.6789965.396484 1.0351562s-.11284.7303151-.396484 1.0371094c-.157803.1706829-.375198.2971556-.609375.3769531v4.0839844h9v-12z" fill="#fafafa"/><path d="m19.488281 1c-.27055 0-.488281.2177292-.488281.4882812v5.5097657h.476562l-.050781.0019531c.190794-.0097828.387438.0261872.574219.0898438v-5.0898438h9v12h-9v-4.0839844c-.186745.0636347-.383464.0996264-.574219.0898434l.050781.001953h-.476562v4.503907c0 .08913.030896.168464.072266.240234.01155.02008.022899.036558.037109.054688.05084.06549.109954.121612.1875.154297.058453.024636.123766.039062.191406.039062h10.023438c.06764 0 .132948-.014423.191406-.039062.07755-.03268.136655-.0888.1875-.154297.01421-.01812.025559-.034598.037109-.054688.041366-.07177.072266-.151102.072266-.240234v-13.0234378c0-.2705489-.217731-.4882812-.488281-.4882812z" fill="#3a3a38"/><path d="m21.5 3c-.257081 0-.464844.2077628-.464844.4648438v.0703124c0 .2570831.207763.4648438.464844.4648438h6.070312c.257081 0 .464844-.2077628.464844-.4648438v-.0703124c0-.2570831-.207763-.4648438-.464844-.4648438zm0 3c-.257081 0-.464844.2077628-.464844.4648438v.0703124c0 .257083.207763.4648438.464844.4648438h.070312c-.277 0-.5-.223-.5-.5s.223-.5.5-.5zm-.070312 6c-.257081 0-.464844.207763-.464844.464844v.070312c-.000002.257083.207763.464844.464844.464844h6.070312c.257081 0 .464844-.207763.464844-.464844v-.070312c0-.257083-.207763-.464844-.464844-.464844z" fill="#797774"/><path d="m21.5 9h6c.277 0 .5.223.5.5s-.223.5-.5.5h-6c-.277 0-.5-.223-.5-.5s.223-.5.5-.5z" fill="#83beec"/><path d="m21.570312 6h6c.277 0 .5.223.5.5s-.223.5-.5.5h-6c-.277 0-.5-.223-.5-.5s.223-.5.5-.5z" fill="#83beec"/><g fill="#1e8bcd" fill-rule="evenodd"><path d="m16.474598 12.007812c-.130048-.0041-.253371-.05875-.34375-.152344l-2.916015-2.9160147c-.340562-.189485-.342753-.678567-.0039-.871094l2.919922-2.9101561c.472656-.470054 1.177738.23893.705082.708984l-2.144531 2.1367191h4.785156c.700353-.03591.700353 1.033956 0 .998047h-4.789063l2.148437 2.1484367c.325519.317139.09298.868926-.361338.857422z"/><path d="m16.474598 27.007812c-.130048-.0041-.253371-.05875-.34375-.152344l-2.916015-2.916015c-.340562-.189485-.342753-.678567-.0039-.871094l2.919922-2.910156c.472656-.470054 1.177738.23893.705082.708984l-2.144531 2.136719h4.785156c.700353-.03591.700353 1.033956 0 .998047h-4.789063l2.148437 2.148437c.325519.317139.09298.868926-.361338.857422z"/></g></svg>