<svg height="32" viewBox="0 0 32 32" width="32" xmlns="http://www.w3.org/2000/svg">
/&amp;amp;gt;<path d="m21 7c-.545351 0-1 .4546486-1 1v15c0 .545351.454649 1 1 1h3c.545351 0 1-.454649 1-1v-15c0-.5453514-.454649-1-1-1zm0 1h3v15h-3z" fill="#3a3a38"/><path d="m7.4667969 7.0019531a.49876399.49876399 0 0 0 -.4648438.4980469v16a.49876399.49876399 0 0 0 .8320313.371094l8.8886716-8a.49876399.49876399 0 0 0 0-.742188l-8.8886716-7.9999998a.49876399.49876399 0 0 0 -.3671875-.1269531zm.5332031 1.6191407 7.642578 6.8789062-7.642578 6.878906z" fill="#3a3a38" fill-rule="evenodd"/><g fill="#fafafa"><path d="m8 8.6210938v13.7578122l7.642578-6.878906z" fill-rule="evenodd"/><path d="m21 8h3v15h-3z"/></g></svg>