<svg viewBox="0 0 32 32" xmlns="http://www.w3.org/2000/svg"><path d="m7 3c-.554 0-1 .446-1 1v24c0 .554.446 1 1 1h8.216797 6.425781 3.357422c.1385 0 .270906-.02766.390625-.07813.359156-.151401.609375-.50637.609375-.92187v-3.447266-17.1054684-3.4472656c0-.554-.446-1-1-1h-3.357422-6.425781zm0 1h8.462891 7.117187 2.419922v2.4648438 19.0703122 2.464844h-2.419922-7.117187-8.462891z" fill="#3a3a38"/><path d="m7 4v24h18v-24z" fill="#1e8bcd"/><g fill="#fafafa"><path d="m24 5h-16v1 3 1h16v-1-3zm-1 1v3h-14v-3z"/><path d="m8 12h16v1h-16z"/><path d="m8 15h16v1h-16z"/><path d="m8 18h16v1h-16z"/><path d="m8 21h16v1h-16z"/><path d="m8 24h16v1h-16z"/></g></svg>