<svg viewBox="0 0 32 32" xmlns="http://www.w3.org/2000/svg">

/&amp;amp;amp;amp;amp;gt;<g fill="#3a3a38"><path d="m5.478904 5.9999996-5.478904 5.1440434.7593307.108398c.085837.131512.2321155.231921.4419262.302734.2193486.0607.4449905-.01008.6738758-.212402l4.1248673-4.342773c-.02861.4248863.0226 3.202631.02198 3.597168l-.02198 12.902832v.500489 1.999511h1v-1.999511-18.0004894z"/><path d="m13.783203 5.4589844c-.862406-.0000001-1.658588.123826-2.394531.3691406-.722377.244407-1.354598.6033751-1.9101564 1.078125-.5536586.4731264-1.0182976 1.0620662-1.3984375 1.78125-.300518.5764036-.4706338 1.289357-.609375 2.035156l.6818451.169527c.3265657.04665.5249561.0078.6015625-.03125.065264-.03682.160721-.141073.2304688-.4375.00065-.000002.0013-.000002.00195 0 .119506-.5019136.3119268-.9697218.5781281-1.3945321.2650355-.4336946.5888094-.808412.9687494-1.1152343.000709-.0005723.0012-.00138.002-.00195.378334-.3157665.832725-.7540354 1.312803-.9229286.491567-.184078 1.471161-.2753906 2.032795-.2753906.569459 0 1.106739.085561 1.605469.2558594.504697.1723356.93392.636248 1.310243.9991004.380642.3562197.674523.8062189.880859 1.328125.222009.5341667.328125 1.1394538.328125 1.8066408 0 .665223-.09388 1.300818-.283203 1.904297-.358513 1.208173-1.285574 2.323543-2.214687 3.398827-.456122.544875-.96936 1.106766-1.542968 1.691406l-6.6660159 6.878906c-.00508.0053-.010292.01055-.015625.01563-.1386502.130494-.2223891.262353-.2734365.408202-.00129.002-.00259.0039-.00391.0059-.061337.166485-.085937.309883-.085937.431641v.474568h12.8727734l.01984-.578679c.0064-.188059-.03872-.260548-.119141-.335937-.0033-.0032-.0066-.0065-.0098-.0098-.08526-.08526-.176288-.128906-.378906-.128906l-6.550504-.000001-3.7914078.01056.9844974-1.029507 5.5214844-5.75c.5738-.595454 1.119629-1.183743 1.638672-1.767578l.002-.0039c.508616-.583115.951139-1.173449 1.330078-1.773438.0013-.002.0026-.0039.0039-.0059.384511-.592354.68571-1.206116.902344-1.845703-.000006-.0013-.000006-.0026 0-.0039.221914-.635481.333984-1.326601.333985-2.078125 0-.89777-.152876-1.677377-.451172-2.3535159-.00068-.00195-.0013-.0039-.002-.00586-.292622-.6861142-.694709-1.2542663-1.21289-1.7226226-.521142-.4710327-1.136072-.8312531-1.859375-1.0859375-.72268-.2544646-1.510935-.3847656-2.371094-.3847656z" transform="matrix(.85451697 0 0 .95899354 3.086809 .766482)"/><path d="m31.048828 5.4238281c-.865774 0-1.6645.1244949-2.404297.3710938v-.00195c-.726144.2454569-1.36879.6076874-1.939453 1.0859374-.556424.475489-1.017996 1.06635-1.388672 1.7871094-.000665.0006522-.0013.0013-.002.00195-.311418.5968847-.521841 1.3023583-.667969 2.0781253l.74506.174174c.330648.04723.534548.0091.621094-.03516.07676-.04323.178926-.158877.25-.460938.000628-.0033.0013-.0065.002-.0098.129437-.4942133.319027-.9542373.570312-1.3730464.000665-.0006522.0013-.0013.002-.00195.262827-.4301219.586189-.7983094.960891-1.1015275.376125-.3151987 1.069822-.7765332 1.540681-.9455595.487252-.1818902 1.017605-.2714843 1.583985-.2714843.563162 0 1.552821.1193884 2.036879.2878015.500794.1594612.921451.6151108 1.284572.9647446.373337.3493931.65909.7884564.853516 1.2949219.210981.5103461.310546 1.0935997.310546 1.7460937.04619 1.392676-.586106 2.147526-1.728285 2.977824-.445981.371649-1.005906.654208-1.667969.863281-.002.000681-.0039.0013-.0059.002-.555959.165813-1.249021.22253-1.974609.257812v1.236328c.897219.02567 1.73.08349 2.361328.263672.742385.208796 1.348076.506232 1.804688.91211.448321.387428 1.227159.914158 1.390395 1.479207.15446.523489.230469 1.086983.230469 1.689453 0 .515714-.107274 1.036934-.308594 1.558594-.000243.000629.000243.0013 0 .002-.194415.53115-.492793 1.013723-.888672 1.433594-.399748.423976-.893189.771891-1.470703 1.042969-.002.0013-.0039.0026-.0059.0039-.600529.269625-1.753806.360636-2.521255.360636-.798183 0-1.489455-.124458-2.066406-.40039-.002-.0013-.0039-.0026-.0059-.0039-.540028-.270014-1.245532-.582979-1.612362-.974263l-.0039-.0039c-.349564-.38452-.634239-.786303-.84961-1.205078-.002-.0039-.004-.0078-.0059-.01172-.184644-.391012-.34469-.728034-.476563-1.013672-.08238-.171627-.15114-.226266-.332031-.259766-.0013.000006-.0026.000006-.0039 0-.192545-.03703-.400546-.01559-.65625.08984l-.549747.325826c.210656.638893.436738 1.258215.726562 1.802734.338005.635038.76619 1.182496 1.28711 1.652344.511329.461201 1.132464.826258 1.871093 1.09375.0011.000382.0028-.000381.0039 0 .000852.000308.0011.0016.002.002.727081.251582 1.628562.384766 2.705078.384766.917967 0 1.774989-.139284 2.580078-.417969.80421-.27838 1.49718-.677847 2.087891-1.197265.000664-.000669.0013-.0013.002-.002.59972-.518401 1.068804-1.138619 1.416016-1.873046.342767-.735943.517578-1.566688.517578-2.507813 0-1.236527-.31672-2.215205-.939454-2.996094-.000002-.000667-.000002-.0013 0-.002-.765898-1.020849-1.673048-1.468724-2.827134-2.112648.984387-.511783 1.783011-1.22091 2.399442-1.981149.282264-.360129.500141-.780668.650391-1.271484.000642-.0026.0013-.0052.002-.0078.158082-.484127.240234-1.05082.240234-1.703125 0-.7778506-.142718-1.4678045-.421875-2.0859372-.000673-.0013-.0013-.0026-.002-.00391-.271211-.6228426-.651886-1.1475189-1.152323-1.5879029-.502479-.4421822-1.10137-.7872123-1.808593-1.0332031-.703542-.2447106-1.485789-.3691407-2.351563-.3691407z" transform="matrix(.84258285 0 0 .94560032 .60556 .870395)"/></g></svg>