<svg viewBox="0 0 32 32" xmlns="http://www.w3.org/2000/svg"><path d="m8.1936653 8.109557h1.1408078v.5704039q0 .090064-.060042.1561105-.054038.060042-.1621148.060042h-.918651v2.0654626h-.882625v-2.0654621h-3.3924021q-.120085 0-.1981403-.060042-.078055-.066047-.1020723-.168119l-.1020722-.5043577 3.7346444-5.0976095h.9426675zm-.882625-3.2182788q0-.2882041.036026-.6304465l-2.7559519 3.8487253h2.7199259z" fill="#3a3a38" transform="translate(-.193665 .038424)"/><path d="m8.5719332 13.5103q0 .210149-.1380978.348247-.1320936.138098-.4503189.138098h-2.3836879l-.3422423 2.041445q.3002126-.06605.5643997-.09607.2701913-.03002.5223698-.03002.6004252 0 1.0627526.186132.4623273.180127.7745484.498353.3122211.318225.4683316.756535.1621148.432306.1621148.942668 0 .630446-.216153 1.140808-.2101488.504357-.5884167.864612-.3722636.360255-.882625.552391-.5103613.192136-1.098778.192136-.3422423 0-.6544634-.07205-.3122211-.066047-.5884167-.180128-.2761955-.11408-.5103613-.264187-.2281616-.150106-.4082891-.318225l.3062168-.426302q.1080765-.144102.2701913-.144102.1080765 0 .2401701.08406.1380977.08406.3302338.192136.192136.102072.4503189.186131.2581828.08406.6184379.08406.3962806 0 .7145059-.132094.3182253-.132093.5403826-.372263.2221573-.24017.3422424-.576408.120085-.342243.120085-.76254 0-.36626-.1080765-.660468-.1020723-.294208-.3122211-.504357-.2041446-.210149-.5163656-.32423-.3122211-.11408-.7265145-.11408-.5824124 0-1.2368758.216153l-.6244421-.192136.6244421-3.692615h3.674602z" fill="#3a3a38"/><g transform="scale(-1 1)"><rect fill="#3a3a38" height="1" ry=".5" width="14.999998" x="-28" y="4"/><rect fill="#3a3a38" height="1" ry=".392136" width="15.000005" x="-28" y="14"/><rect fill="#1e8bcd" height="1" ry=".436441" width="15.000001" x="-28" y="24"/><rect fill="#1e8bcd" height="1" ry=".5" width="8.999999" x="-22" y="27"/><g fill="#3a3a38"><rect height="1" ry=".5" width="8.999999" x="-22" y="17"/><rect height="1" ry=".5" width="9.000002" x="-22" y="7"/></g></g><path d="m4.0083 31h1.986424l-.0083-6.171944c-.0002109-.156863.006-.319759.0181-.488688l-1.345401 1.182505c-.09653.08044-.191051.108597-.28356.08446-.08849-.02815-.15083-.06838-.187029-.120664l-.319759-.440418 2.310711-2.045251h.820514l.0083 8h2l-.0083 1h-5z" fill="#1e8bcd"/></svg>