<svg viewBox="0 0 32 32" xmlns="http://www.w3.org/2000/svg"><path d="m6 3v26h9v-11c.000109-1.092632.907368-1.999891 2-2h2c.459533.000088.90361.158819 1.257812.445312l3.375 1.554688h2.367188v-15z" fill="#fafafa"/><path d="m6 2c-.5539994 0-1 .4460006-1 1v26c0 .553999.4460006 1 1 1h9v-1h-9v-26h20v15h1v-15c0-.5539994-.446001-1-1-1z" fill="#3a3a38"/><g fill="#3a3a38"><g stroke-width="5"><path d="m7.5 1c.277 0 .5.223.5.5v3c0 .277-.223.5-.5.5s-.5-.223-.5-.5v-3c0-.277.223-.5.5-.5z"/><path d="m9.5 1c.277 0 .5.223.5.5v3c0 .277-.223.5-.5.5s-.5-.223-.5-.5v-3c0-.277.223-.5.5-.5z"/><path d="m11.5 1c.277 0 .5.223.5.5v3c0 .277-.223.5-.5.5s-.5-.223-.5-.5v-3c0-.277.223-.5.5-.5z"/><path d="m13.5 1c.277 0 .5.223.5.5v3c0 .277-.223.5-.5.5s-.5-.223-.5-.5v-3c0-.277.223-.5.5-.5z"/><path d="m23.5 1c.277 0 .5.223.5.5v3c0 .277-.223.5-.5.5s-.5-.223-.5-.5v-3c0-.277.223-.5.5-.5z"/></g><path d="m6 6h20v1h-20z" stroke-width="7.07107"/><g stroke-width="5"><path d="m15.5 1c.277 0 .5.223.5.5v3c0 .277-.223.5-.5.5s-.5-.223-.5-.5v-3c0-.277.223-.5.5-.5z"/><path d="m17.5 1c.277 0 .5.223.5.5v3c0 .277-.223.5-.5.5s-.5-.223-.5-.5v-3c0-.277.223-.5.5-.5z"/><path d="m19.5 1c.277 0 .5.223.5.5v3c0 .277-.223.5-.5.5s-.5-.223-.5-.5v-3c0-.277.223-.5.5-.5z"/><path d="m21.5 1c.277 0 .5.223.5.5v3c0 .277-.223.5-.5.5s-.5-.223-.5-.5v-3c0-.277.223-.5.5-.5z"/></g></g><path d="m19 18 4 2h5v8h-11v-10z" fill="#fafafa"/><path d="m16 30h1 12l2.744141-7.007813c.297854-.992847.298232-.992187-.744141-.992187h-1-1-8.978516c-1.021186 0-1.020809-.000552-1.279297.990234l-1.742187 4.675782z" fill="#ed8733"/><path d="m19 17c.265199.000051.519519.105432.707031.292969l3.707031 1.707031h4.585938c.552262.000055.999945.447738 1 1v7h-1v-.333984-5.666016-1h-5l-4-2h-2v12h-1v-12c.000055-.552262.447738-.999945 1-1z" fill="#ed8733"/><path d="m20.021484 23c-.127174 0-.160922.0022-.24414.0039-.0229.08079-.03576.113334-.06836.238281a1.0001 1.0001 0 0 1 -.0293.09766l-1.742184 4.675784a1.0001 1.0001 0 0 1 -.01758.04492l-.402342.939455h10.800781l2.347657-6h-.666016-1z" fill="#f8db8f"/></svg>