<svg height="32" viewBox="0 0 32 32" width="32" xmlns="http://www.w3.org/2000/svg">







     /&amp;amp;amp;amp;amp;amp;gt;
 <path d="m10.832031 3.0996094-6.4394529 12.5449216c-.2639727.29176-.7220147.465911-1.375.521485l-.1035156.833984h4.7089844l.1035156-.833984c-.7641317-.097253-1.3186831-.305454-1.6660156-.625l1.2910156-2.541016h4.5175785l.443359 2.644531c-.236186.25008-.694228.424232-1.375.521485l-.125.833984h5.751953l.082031-.833984c-.597412-.097253-.972173-.333866-1.125-.708985l-2.521484-12.3574216zm-.082031 3.2519531.773438 4.6484375h-3.1582036z" fill="#1e8bcd" transform="matrix(1.0000000019 0 0 1.0000000019 .00000009296 -.00000011022)"/><path d="m23.320312 18-4.126953 11h1.181641c.128361 0 .236877-.03682.326172-.109375.09488-.07255.15792-.155124.191406-.25l.931641-2.640625h4.539062l.933594 2.648438c.04465.100456.107414.184982.185547.251953.083714.066971.19223.099609.326172.099609h1.179687l-4.11914-11zm.771485 1.439453c.05023.206494.102394.399536.158203.578125.05581.17859.11216.334808.167969.46875l1.591797 4.513672h-3.833985l1.589844-4.505859c.05023-.133943.102394-.290161.158203-.46875.05581-.17859.11216-.373863.167969-.585938z" fill="#3a3a38" transform="matrix(1.00000001256 0 0 1.00000001256 -.00000012646 .00000008717)"/><path d="m31.5 4.5-25.5 23.5" fill="none" stroke="#3a3a38" stroke-linecap="round" stroke-linejoin="round"/></svg>