<svg viewBox="0 0 32 32" xmlns="http://www.w3.org/2000/svg"><path d="m6 3v26h20v-26z" fill="#fafafa"/><g fill="#3a3a38"><path d="m6 2c-.554 0-1 .446-1 1v26c0 .554.446 1 1 1h20c.554 0 1-.446 1-1v-26c0-.554-.446-1-1-1zm0 1h20v26h-20z"/><g fill="#797774"><rect height="1" ry=".464045" width="7" x="8" y="24"/><rect height="1" ry=".47603" width="7" x="17" y="24"/><rect height="1" ry=".464045" width="7" x="8" y="20"/><rect height="1" ry=".47603" width="7" x="17" y="20"/><rect height="1" ry=".464045" width="7" x="8" y="16"/><rect height="1" ry=".47603" width="7" x="17" y="16"/><rect height="1" ry=".464045" width="7" x="8" y="12"/><rect height="1" ry=".47603" width="7" x="17" y="12"/></g></g><g fill="#1e8bcd"><rect height="1" ry=".464045" width="7" x="8" y="7"/><rect height="1" ry=".47603" width="7" x="17" y="7"/></g></svg>