<svg viewBox="0 0 32 32" xmlns="http://www.w3.org/2000/svg"><path d="m6 3v26h13.275391a1.0001 1.0001 0 0 1 .107421-.193359l.785157-1.097657-1.332031-.222656a1.0001 1.0001 0 0 1 -.835938-.986328v-.783203-1.216797a1.0001 1.0001 0 0 1 .835938-.986328l1.332031-.222656-.785157-1.097657a1.0001 1.0001 0 0 1 .105469-1.287109l.552735-.554688a1.0001 1.0001 0 0 0 .001953-.001953l.861328-.859375a1.0001 1.0001 0 0 1 1.289062-.107422l1.097657.785157.222656-1.332031a1.0001 1.0001 0 0 1 .986328-.835938h1.216797.283203v-9.640625l-6-5.359375z" fill="#fafafa"/><path d="m6 2c-.554 0-1 .446-1 1v26c0 .554.446 1 1 1h13.408203a1.0001 1.0001 0 0 1 -.132812-1h-13.275391v-26h13v6c0 .554.446016 1.004232 1 1h6v8h.5a1.0001 1.0001 0 0 1 .5.134766v-7.244141-1.640625-.2089844c0-.4506797.098038-.4254121-.605469-1.0664062l-5.30664-5.2382813c-.709525-.7368575-1.477331-.7363281-1.09375-.7363281h-.332032-.662109z" fill="#3a3a38"/><path d="m20 9h6l-6-6z" fill="#fafafa" fill-rule="evenodd"/><path d="m24.5 19-.371094 2.228516a4.5 4.5 0 0 0 -.683594.279296l-1.833984-1.310546-.861328.859375-.552734.554687 1.3125 1.835938a4.5 4.5 0 0 0 -.289063.68164l-2.220703.371094v1.216797.783203l2.228516.371094a4.5 4.5 0 0 0 .279296.683594l-1.310546 1.833984.552734.554687.861328.859375 1.835938-1.3125a4.5 4.5 0 0 0 .68164.289063l.371094 2.220703h1.216797.783203l.371094-2.228516a4.5 4.5 0 0 0 .683594-.279296l1.833984 1.310546.554687-.552734.859375-.861328-1.3125-1.835938a4.5 4.5 0 0 0 .289063-.68164l2.220703-.371094v-.783203-1.216797l-2.228516-.371094a4.5 4.5 0 0 0 -.279296-.683594l1.310546-1.833984-.859375-.861328-.554687-.552734-1.835938 1.3125a4.5 4.5 0 0 0 -.68164-.289063l-.371094-2.220703h-.783203zm.605469 1h.789062l.353516 2v.08984a3.5 3.5 0 0 1 1.136719.466797l.06055-.06055 1.664063-1.164063.558594.558594-1.164063 1.664063-.0625.0625a3.5 3.5 0 0 1 .470703 1.134765h.087887l2 .353516v.789062l-2 .353516h-.08984a3.5 3.5 0 0 1 -.466797 1.136719l.06055.06055 1.164063 1.664063-.558594.558594-1.664063-1.164063-.0625-.0625a3.5 3.5 0 0 1 -1.134765.470703v.087894l-.353516 2h-.789062l-.353516-2v-.08984a3.5 3.5 0 0 1 -1.136719-.466797l-.06055.06055-1.664063 1.164063-.558594-.558594 1.164063-1.664063.0625-.0625a3.5 3.5 0 0 1 -.470706-1.134772h-.087891l-2-.353516v-.789062l2-.353516h.08984a3.5 3.5 0 0 1 .466797-1.136719l-.06055-.06055-1.164063-1.664063.558594-.558594 1.664063 1.164063.0625.0625a3.5 3.5 0 0 1 1.134765-.470703v-.087887zm.394531 3a2.5 2.5 0 0 0 -2.5 2.5 2.5 2.5 0 0 0 2.5 2.5 2.5 2.5 0 0 0 2.5-2.5 2.5 2.5 0 0 0 -2.5-2.5zm0 1a1.5 1.5 0 0 1 1.5 1.5 1.5 1.5 0 0 1 -1.5 1.5 1.5 1.5 0 0 1 -1.5-1.5 1.5 1.5 0 0 1 1.5-1.5z" fill="#1e8bcd"/><path d="m25.105469 20h.789062l.353516 2v.08984c.40347.08734.788306.245379 1.136719.466797l.06055-.06055 1.664063-1.164063.558594.558594-1.164063 1.664063-.0625.0625c.222578.347545.381933.731717.470703 1.134765h.087887l2 .353516v.789062l-2 .353516h-.08984c-.08734.40347-.245379.788306-.466797 1.136719l.06055.06055 1.164063 1.664063-.558594.558594-1.664063-1.164063-.0625-.0625c-.347545.222578-.731717.381933-1.134765.470703v.087894l-.353516 2h-.789062l-.353516-2v-.08984c-.40347-.08734-.788306-.245379-1.136719-.466797l-.06055.06055-1.664063 1.164063-.558594-.558594 1.164063-1.664063.0625-.0625c-.222581-.347552-.381936-.731724-.470706-1.134772h-.087891l-2-.353516v-.789062l2-.353516h.08984c.08734-.40347.245379-.788306.466797-1.136719l-.06055-.06055-1.164063-1.664063.558594-.558594 1.664063 1.164063.0625.0625c.347545-.222578.731717-.381933 1.134765-.470703v-.087887zm.394531 3c-1.380712 0-2.5 1.119288-2.5 2.5s1.119288 2.5 2.5 2.5 2.5-1.119288 2.5-2.5-1.119288-2.5-2.5-2.5z" fill="#fafafa"/></svg>