<svg viewBox="0 0 32 32" xmlns="http://www.w3.org/2000/svg"><path d="m5.5 4c-.831 0-1.5.669-1.5 1.5v23c0 .831.669 1.5 1.5 1.5h5.830078c-.115892-.31916-.187735-.655962-.232422-1h-5.097656c-.554 0-1-.446-1-1v-22c0-.554.446-1 1-1h4v-1zm16.5 0v1h4c.554 0 1 .446 1 1v16h1v-16.5c0-.831-.669-1.5-1.5-1.5z" fill="#ed8733"/><path d="m6 5c-.554 0-1 .446-1 1v22c0 .554.446 1 1 1h5.099609c-.019204-.166435-.050781-.328965-.050781-.5v-.5h-4.048828v-22h3v-1zm16 0v1h3v16.03125c.152593-.018196.307421-.030027.464844-.03125a2.0023972 2.0023972 0 0 1 .015625 0h1.519531v-16c0-.554-.446-1-1-1zm2.175781 17.220703c-.025295.008385-.051079.014595-.076172.023438.025056-.008854.050915-.015042.076172-.023438zm-.78125.347656c-.04184.023767-.082011.049142-.123047.074219.040923-.025042.081324-.050479.123047-.074219zm-.720703.50586c-.235588.201094-.454125.42145-.648437.664062.194255-.24254.412965-.46282.648437-.664062z" fill="#f8db8f"/><path d="m7 6v22h4.048828v-.5-1c0-2.448201 2.023455-4.481014 4.466797-4.5a2.0023972 2.0023972 0 0 1 .015625 0h3.039062a2.0023972 2.0023972 0 0 1 .015626 0c1.39705.010856 2.616185.710379 3.439453 1.738281.730499-.912076 1.773014-1.563745 2.974609-1.707031v-16.03125h-3v2h-12v-2z" fill="#fafafa"/><path d="m16 2c-1.1046 0-2 .89543-2 2h-3v3h10v-3h-3c0-.13807-.005-.27605-.03125-.40625-.18649-.91137-1.00215-1.59375-1.96875-1.59375zm0 1c.41421 0 .75444.26608.90625.625.0506.11964.09375.23693.09375.375 0 .55228-.44771 1-1 1s-1-.44772-1-1 .44771-1 1-1z" fill="#3a3a38"/><g fill="#1e8bcd" transform="translate(8 8)"><path d="m10 19h8v1h-8z"/><path d="m17.480469 16.001953c-1.204888.009363-2.200759.860275-2.429688 1.998047h1.041016c.206006-.581923.753963-1 1.408203-1h.457031c.01437-.0018.02804-.0059.04297-.0059h2c.01493 0 .0286.0041.04297.0059h.457029c.831 0 1.5.669 1.5 1.5v1 1c0 .831-.669 1.5-1.5 1.5h-.457031c-.01437.0018-.02804.0059-.04297.0059h-2c-.01493 0-.0286-.0041-.04297-.0059h-.457029c-.65424 0-1.202197-.418077-1.408203-1h-1.041016c.228929 1.137772 1.2248 1.988647 2.429688 1.998047h3.039062c1.375703-.01069 2.480469-1.119731 2.480469-2.498047v-1-1c0-1.378316-1.104766-2.487357-2.480469-2.498047z"/><path d="m10.570312 16.001953c1.204888.009363 2.200759.860275 2.429688 1.998047h-1.041016c-.206006-.581923-.753963-1-1.408203-1h-.457031c-.01437-.0018-.02804-.0059-.04297-.0059h-2c-.01493 0-.0286.0041-.04297.0059h-.457031c-.831 0-1.5.669-1.5 1.5v1 1c0 .831.669 1.5 1.5 1.5h.457031c.01437.0018.02804.0059.04297.0059h2c.01493 0 .0286-.0041.04297-.0059h.457031c.65424 0 1.202197-.418077 1.408203-1h1.041016c-.228929 1.137772-1.2248 1.988647-2.429688 1.998047h-3.039062c-1.375703-.01069-2.480469-1.119731-2.480469-2.498047v-1-1c0-1.378316 1.104766-2.487357 2.480469-2.498047z"/></g></svg>