<svg height="32" viewBox="0 0 8.4666664 8.4666669" width="32" xmlns="http://www.w3.org/2000/svg"><g stroke-width=".264583" transform="translate(0 -288.53332)"><path d="m1.0583333 289.59165v4.49792h.79375v-4.23333h4.2333334v-.26459z" fill="#fafafa"/><path d="m.79375 289.32707v6.08542h1.0583333v-1.32292h-.79375v-4.49792h5.0270834v.26459h.2645833v-.52917z" fill="#3a3a38"/><path d="m2.38125 290.3854h5.0270833v4.49792h-5.0270833z" fill="#fafafa"/><path d="m2.1166667 290.12082v6.08542h5.55625v-6.08542zm.2645833.26458h5.0270833v4.49792h-5.0270833z" fill="#3a3a38"/><path d="m4.2333333 291.57603a.66145833.66145833 0 0 1 -.6614583.66146.66145833.66145833 0 0 1 -.6614583-.66146.66145833.66145833 0 0 1 .6614583-.66146.66145833.66145833 0 0 1 .6614583.66146z" fill="#ed8733"/><path d="m5.8208333 292.63436-1.0583333 1.05834-1.190625 1.19062h3.8364583v-.66146zm-1.5875.52917-1.7197916 1.71979h.6614583l1.3890625-1.38906z" fill="#83beec"/><path d="m5.8208333 292.23749-1.0583333 1.05833-.5291667-.52917-1.8520833 1.85209v.26458h.1322917l1.7197916-1.71979.3307292.33073-1.3890625 1.38906h.396875l2.2489583-2.24896 1.5875 1.5875v-.39687z" fill="#0063b1"/><path d="m3.96875 291.57603a.396875.396875 0 0 1 -.396875.39687.396875.396875 0 0 1 -.396875-.39687.396875.396875 0 0 1 .396875-.39688.396875.396875 0 0 1 .396875.39688z" fill="#f8db8f"/></g></svg>