<svg viewBox="0 0 32 32" xmlns="http://www.w3.org/2000/svg"><g fill="#1e8bcd"><path d="m3.5 3a.50005.50005 0 0 0 -.5.5v25a.50005.50005 0 0 0 .5.5h25a.50005.50005 0 0 0 .5-.5v-10a.50005.50005 0 0 0 -.5-.5h-14.5v-14.5a.50005.50005 0 0 0 -.5-.5zm.5 1h9v14.5a.50005.50005 0 0 0 .001953.035156.50005.50005 0 0 0 .005859.048828.50005.50005 0 0 0 .009766.044922.50005.50005 0 0 0 0 .00586.50005.50005 0 0 0 .011719.033203.50005.50005 0 0 0 .007812.021484.50005.50005 0 0 0 .001953.005859.50005.50005 0 0 0 .015626.03125.50005.50005 0 0 0 .02539.042969.50005.50005 0 0 0 .019531.029297.50005.50005 0 0 0 .013672.017578.50005.50005 0 0 0 .017578.019532.50005.50005 0 0 0 .015625.017578.50005.50005 0 0 0 .017578.015625.50005.50005 0 0 0 .019532.017578.50005.50005 0 0 0 .017578.013672.50005.50005 0 0 0 .015625.011718.50005.50005 0 0 0 .013672.007813.50005.50005 0 0 0 .042969.02539.50005.50005 0 0 0 .037109.017579.50005.50005 0 0 0 .021484.007812.50005.50005 0 0 0 .06836.019531.50005.50005 0 0 0 .015625.001954.50005.50005 0 0 0 .048828.005859.50005.50005 0 0 0 .035156.001953h14.5v9h-24z"/><path d="m12.851695 19.14823c.195869.195868.195869.511238 0 .707107l-6.9988253 6.998824c-.195868.195869-.511238.195869-.7071062 0-.1958687-.195868-.1958687-.511238 0-.707107l6.9988245-6.998824c.195869-.195869.511239-.195869.707107 0z"/></g></svg>