<svg viewBox="0 0 32 32" xmlns="http://www.w3.org/2000/svg"><path d="m23.550781 3.0078125c-.05213.0006258-.103976.0078404-.154297.0214844l-21.0624996 5.875c-.3958988.1108366-.5753024.5700704-.359375.9199219l11.5624996 18.4218752c.0038.0066.007699.013091.011719.019531l.345703.517578c.114933.17108.307571.273626.513672.273438h13.158203c.482545-.0012.777738-.530101.525391-.941407l-3.462891-5.310546-2.876953-6.527344c-.0044-.0086-.008902-.017031-.013672-.025391l-.185547-.373047.117188-.470703c.0014-.0065.002706-.013001.003906-.019531l2.492188-11.6347658c.082274-.3886058-.218072-.7528353-.615235-.7460937zm-.578125 1.2421875-2.335937 10.910156-.169922.683594c-.02586.102902-.014077.211661.033203.306641l.283203.566406 2.890625 6.556641c.00785.01884.016984.037107.027344.054687l3.066406 4.666016h-12.121094l-.208984-.3125-11.2480469-17.9121098z" fill="#3a3a38"/><path d="m22.972656 4.25-19.7832029 5.5195312 11.2487489 17.9111548.208984.3125h12.121094l-3.067108-4.665061c-.01036-.01758-.01949-.03585-.02734-.05469l-2.890629-6.556638-.283203-.566406c-.04728-.09498-.05906-.203739-.0332-.306641l.169922-.683594z" fill="#fafafa"/></svg>