<svg viewBox="0 0 32 32" xmlns="http://www.w3.org/2000/svg"><path d="m3 6v19.998047h7.806641l1.060547-1.429688a1.0028014 1.0028014 0 0 1 .027343-.041015c.459492-.604914.890978-1.354608 1.8125-2.138672.998658-.849692 2.154291-1.196978 3.121094-1.355469a1.0028014 1.0028014 0 0 1 .003906 0c.059232-.009484.121788-.00925.183594-.013672.021208-.05991.016087-.111164.041016-.171875a1.0028014 1.0028014 0 0 1 .15625-.259765c3.815357-4.601754 5.923452-7.876849 11.310547-11.244141.148505-.0930802.310881-.1602992.476562-.2167969v-3.1269531zm26 12.869141c-1.224091 1.635447-2.6434 3.190795-5.353516 5.552734-.385156.336167-.871611.533389-1.382812.558594a1.0028014 1.0028014 0 0 1 -.003906 0c-.09467.004183-.235367-.006439-.339844-.003907.022653.318499.031882.662507-.011719 1.021485h7.091797z" fill="#fafafa"/><path d="m2.9980469 5c-.5539999 0-1 .446-1 1v20c0 .554.456533.892483 1 1h7.1679691c.067044-.1753.152747-.345769.271484-.505859l.367188-.494141h-7.8066411v-19.9980469-.0019531h26.0000001v.0019531 3.125c.213755-.073078.4356-.1222172.664062-.1289062.114383-.0032735.225409.0117397.335938.0253906v-3.0234375c0-.554-.446-1-1-1zm27.0000001 12.476562c-.33021.482646-.661948.942963-1 1.394532v7.128906h-7.089844c-.039417.323167-.129007.659022-.291015 1h7.380859c.543467-.107517 1-.446 1-1z" fill="#3a3a38"/><path d="m7 15v1h1v-1zm2 0v1h11.962891c.288379-.340711.583151-.671121.876953-1zm-2 3v1h1v-1zm2 0v1h9.501953c.269109-.333159.554216-.680032.8125-1zm-2 3v1h1v-1zm2 0v1h5.253906c.858836-.561208 1.778406-.836337 2.574219-.966797a1.0028014 1.0028014 0 0 1 .003906 0c.059232-.009484.121788-.00925.183594-.013672.002389-.006748.002105-.012976.003906-.019531z" fill="#c8c6c4"/><path d="m7 10h18v2h-18z" fill="#797774"/><g transform="matrix(1.00000000461 0 0 1.00000000461 2.00004139954 -.00000051658)"><path d="m27.691406 10c-.22542.0066-.443679.07359-.634765.193359-5.242111 3.276319-7.223725 6.39338-11.072266 11.035157-.119983.292206-.174733.54833-.193359.783203.252232-.0029.498727-.01441.804687.0039.0701.01176.140585.04131.210938.06055.01344-.100845.03673-.218763.09375-.382813 3.768565-4.564986 5.663157-7.513351 10.685547-10.652343a1.00266 1.00266 0 0 0 .0039 0c.03795-.02379.08455-.03767.132812-.03906.162985-.0047.271443.100553.271485.263672v2.537109c.000038.05341-.01563.10012-.04492.144532v.0039c-2.50979 3.723111-3.145242 5.058158-7.621094 8.958984-.04626.04044-.100682.06142-.162109.06445-.575475.02518-1.38626.0078-2.064454-.09766.101933.107344.203617.215251.291016.337891.000923.0016.0012.0043.002.0059.169415.240408.290068.49.378907.746094.528279.03372 1.039735.02947 1.441406.01172.285168-.01406.558485-.124579.773437-.3125 4.529708-3.947763 5.299157-5.456989 7.792969-9.15625.140545-.209299.215031-.456875.214844-.708985v-2.533232c-.000229-.714408-.590617-1.2880151-1.304731-1.267578z" fill="#3a3a38" stroke-width="1.264202"/><path d="m27.722656 11.001953c-.04827.0014-.09486.01527-.132812.03906a1.00266 1.00266 0 0 1 -.0039 0c-5.022389 3.138992-6.916982 6.087357-10.685547 10.652343-.05702.16405-.08031.281874-.09375.382813.463346.126683.919458.405383 1.294921.800781.678526.106032 1.488523.122853 2.064454.09766.06143-.003.115848-.02401.162109-.06445 4.475852-3.900826 5.111304-5.235873 7.621094-8.958984v-.0039c.02929-.04441.04496-.09113.04492-.144532v-2.537109c-.000042-.163119-.1085-.268337-.271485-.263672z" fill="#fafafa" stroke-width="1.264202"/><g><path d="m15.15625 22.009766c-.05604.000193-.11062.0048-.166016.01367-.861141.14117-1.823873.440633-2.632812 1.128906-.799494.680238-1.156748 1.31455-1.664063 1.982422-.0022.0037-.0037.006-.0059.0098l-1.4453125 1.947266c-.574829.775025-.048639 1.902781.8886715 1.904297h3.339844c.01741-.000357.0334-.000581.05078-.002 1.992813-.09787 3.805246-.876425 4.972657-2.089844.07973-.0831.14637-.17727.199218-.28125.313645-.615499.331828-1.216374.269532-1.785156-.0623-.568779-.212142-1.111696-.56836-1.617188-.000739-.0015-.0011-.0043-.002-.0059-.458211-.642967-1.139791-1.088959-1.796875-1.199219-.547311-.03276-.91274-.01587-1.439453-.0059zm-.0098 1c-.01077.0018-.0054.000065.01367 0 .0059.000052.01168.000052.01758 0 .502137-.0095.822534-.01705 1.271485.0059.335539.06267.818347.346258 1.126953.779297l-.04883-.07617c-.0049-.0082.0018-.0011-.002-.0078.01554.02881.03249.05683.05078.08398.239126.339334.345824.687901.396484 1.15039.05145.469747.0302.826096-.171875 1.222657v.002c-.0077.01513-.01729.02627-.0293.03906-.03195.03322-.07019.06314-.103515.0957l-5.472657-1.527344c.22598-.295617.468219-.573676.808594-.863282.619918-.527446 1.389292-.780455 2.142578-.904296z" fill="#0063b1"/><path d="m11.53125 25.683594c-.0054.0071-.0083.01234-.01367.01953a.99948558.99948558 0 0 1 -.02734.04102l-1.447265 1.941406c-.1247191.168155-.046862.308372.08984.308594h3.337891a.99948558.99948558 0 0 1 .002 0c1.180206-.05797 2.27261-.395107 3.15625-.908203z" fill="#83beec"/><path d="m15.146484 23.009766c-.753286.123841-1.52266.37685-2.142578.904296-.340375.289605-.582615.567665-.808594.863282l5.472657 1.527344c.03333-.03256.07156-.06248.103515-.0957.01201-.01279.0216-.02393.0293-.03906v-.002c.202079-.396561.223324-.752911.171875-1.222657-.05066-.462489-.157358-.811056-.396484-1.15039-.308606-.433039-.791414-.716625-1.126953-.779297-.448951-.02291-.769348-.01545-1.271485-.0059-.0059.000052-.01172.000052-.01758 0-.01909.000065-.02444.0018-.01367 0zm2.429688.785156c-.01829-.02715-.03524-.05517-.05078-.08398.0038.0067-.0029-.000419.002.0078z" fill="#fafafa"/></g></g></svg>