<svg viewBox="0 0 32 32" xmlns="http://www.w3.org/2000/svg"><path d="m10 23v4h12v-4z" fill="#fafafa" fill-rule="evenodd"/><path d="m9 23v4.142578c0 .474857.3825649.857422.8574219.857422h12.2851561c.474857 0 .729382-.400153.857422-.857422v-4.142578h-1v4h-12v-4z" fill="#3a3a38"/><path d="m3 10c-.6282872 0-1 .457457-1 1v11c0 .554.446 1 1 1h26c.554 0 1-.446 1-1v-11c0-.554-.421822-1-1-1h-4v1h4v11h-26v-11h4v-1z" fill="#3a3a38"/><path d="m9 9c-.554 0-1 .446-1 1v2.296875c0 .554.446 1 1 1h14c.554 0 1-.446 1-1v-2.296875c0-.554-.446-1-1-1v2h-1-12-1z" fill="#1e8bcd"/><path d="m9.8574219 4.000125c-.473825.0312909-.6853036.4148561-.8574219.8574219v6.1425781h1c0-2 0-4 0-6h12v6h1c0-2.047526 0-4.0950521 0-6.1425781 0-.474857-.383597-.826131-.857422-.8574219-4.095052 0-8.190104 0-12.2851561 0z" fill="#3a3a38"/><path d="m10 5.000125v6h12v-6z" fill="#fafafa" fill-rule="evenodd"/><path d="m3 11v11h26v-11h-4v2c0 .554-.446 1-1 1h-16c-.554 0-1-.446-1-1v-2zm23 9h2v1h-2z" fill="#797774"/><path d="m26 20h2v1h-2z" fill="#fafafa"/></svg>