<svg viewBox="0 0 32 32" xmlns="http://www.w3.org/2000/svg"><path d="m10 23v4h12v-4z" fill="#fafafa" fill-rule="evenodd"/><path d="m9 23v4.142578c0 .474857.3825649.857422.8574219.857422h12.2851561c.474857 0 .729382-.400153.857422-.857422v-4.142578h-1v4h-12v-4z" fill="#3a3a38"/><path d="m3 10c-.6282872 0-1 .457457-1 1v11c0 .554.446 1 1 1h26c.554 0 1-.446 1-1v-11c0-.554-.421822-1-1-1h-4v1h4v11h-26v-11h4v-1z" fill="#3a3a38"/><path d="m9 9c-.554 0-1 .446-1 1v2.296875c0 .554.446 1 1 1h14c.554 0 1-.446 1-1v-2.296875c0-.554-.446-1-1-1v2h-1-12-1z" fill="#1e8bcd"/><path d="m9.8574219 4c-.473825.0312909-.6853036.4148561-.8574219.8574219v6.1425781h1v-6h2.333984c.033735-.004255.064853-.01363.09961-.015625.080394-.0046145.163682.004907.246094.015625h1.326171v-1zm7.1484371 0v1h1.275391c.104022-.0188562.208889-.0269565.310547-.0214844.048445.0026078.0922.0145676.138672.0214844h3.269531v6h1v-6.1425781c0-.474857-.383597-.826131-.857422-.8574219z" fill="#3a3a38"/><path d="m10 5v6h5.484375c-.467151-.007337-.906253-.233443-1.183594-.609375l.097657.113281-2.947266-2.9511716c-.294553-.2949147-.469166-.7416021-.445313-1.1425782.023854-.400976.201171-.7350518.447266-.9804687.224749-.2241294.525675-.3848874.880859-.4296875zm5.484375 6h6.515625v-6h-3.269531c.343593.0511405.635882.208895.853515.4277344.247069.2484376.423718.5873924.44336.9941406.019641.4067482-.165768.8571548-.470703 1.1484375l-2.945313 2.9414065.085938-.097657c-.288387.375312-.739631.593307-1.212891.585938zm-2.804687-6c.328344.0427026.659075.1958959.894531.4316406l.433593.4335938-.001953-.8652344zm4.326171 0 .001953.8769531.433594-.4335937c.219723-.2274906.527777-.3867909.839844-.4433594z" fill="#fafafa" fill-rule="evenodd"/><path d="m3 11v11h26v-11h-4v2c0 .554-.446 1-1 1h-16c-.554 0-1-.446-1-1v-2zm23 9h2v1h-2z" fill="#797774"/><path d="m26 20h2v1h-2z" fill="#fafafa"/><path d="m15.5 9.9999998c-.155997-.00245-.301909-.077577-.394531-.203125l-2.947266-2.951171c-.472076-.4726564.236908-1.1796884.708984-.707032l2.142579 2.146485-.0081-6.7780958c-.0096-.67616134 1.009563-.67616134 1 0l.0081 6.7780958 2.15039-2.146485c.472612-.489321 1.197003.2390839.705078.708985l-2.960937 2.957031c-.096318.1253494-.246235.1977732-.404297.195312z" fill="#1e8bcd" fill-rule="evenodd"/></svg>