<svg viewBox="0 0 32 32" xmlns="http://www.w3.org/2000/svg"><path d="m6 3v26h19.998047v-.183594l-3.462891-3.46289c-.796849.377491-1.644525.635318-2.533203.636718h-.001953c-3.301864 0-6-2.698136-6-6 0-3.301863 2.698136-6 6-6 3.288678 0 5.976617 2.677096 5.998047 5.960938l.001953-10.951172-6-6zm19.998047 17.019531c-.0067.878604-.261241 1.717286-.634766 2.50586l.634766.634765z" fill="#fafafa"/><path d="m5.9980469 2c-.554 0-1 .446-1 1v26c0 .554.446 1 1 1h20.0000001c.342398 0 .591521-.185747.765625-.447266-.064939-.052772-.132905-.101179-.191406-.162109l-.574219-.574219v.183594h-20.0000001v-26h13.0000001v6c0 .6726441.491378 1 1 1h6v9.951172c.000086.013166.001953.025877.001953.039062v.001954c-.000015.009229-.001883.018122-.001953.027343v3.140625l1 1v-5.269531-10.5058594l-6.507813-6.3847656zm14.0019531 1 6 6h-6z" fill="#3a3a38"/><path d="m20 14.990234c-2.761424 0-5 2.238577-5 5 0 2.761424 2.238576 5 5 5 1.197648 0 2.281598-.438436 3.142578-1.140625l6.007813 6.007813c.195868.195868.511162.195868.707031 0 .195868-.195869.195868-.511163 0-.707031l-6.007813-6.007813c.707415-.862556 1.150391-1.949752 1.150391-3.152344 0-2.761423-2.238576-5-5-5zm0 1.009766c2.209139 0 4 1.790861 4 4 0 1.084587-.435821 2.064638-1.136719 2.785156a4 4 0 0 1 -.105469.101563c-.718101.686142-1.686184 1.113281-2.757812 1.113281-2.209139 0-4-1.790861-4-4s1.790861-4 4-4z" fill="#1e8bcd"/><path d="m24 20a4 4 0 0 1 -4 4 4 4 0 0 1 -4-4 4 4 0 0 1 4-4 4 4 0 0 1 4 4z" fill="#fafafa"/></svg>