<svg viewBox="0 0 32 32" xmlns="http://www.w3.org/2000/svg"><path d="m16 3a13 13 0 0 0 -13 13 13 13 0 0 0 13 13 13 13 0 0 0 13-13 13 13 0 0 0 -13-13zm0 .9980469a12.001416 12.001416 0 0 1 12.001953 12.0019531 12.001416 12.001416 0 0 1 -12.001953 12.001953 12.001416 12.001416 0 0 1 -12.0019531-12.001953 12.001416 12.001416 0 0 1 12.0019531-12.0019531z" fill="#d42314"/><path d="m16 3.9980469a12.001416 12.001416 0 0 0 -12.0019531 12.0019531 12.001416 12.001416 0 0 0 12.0019531 12.001953 12.001416 12.001416 0 0 0 12.001953-12.001953 12.001416 12.001416 0 0 0 -12.001953-12.0019531zm-.5 1.0019531h1c.277 0 .5.223.5.5v8c0 .277-.223.5-.5.5h-1c-.277 0-.5-.223-.5-.5v-8c0-.277.223-.5.5-.5zm3.5 2.5253906a9 9 0 0 1 6 8.4746094 9 9 0 0 1 -9 9 9 9 0 0 1 -9-9 9 9 0 0 1 6-8.4726562v2.15625a7 7 0 0 0 -4 6.3164062 7 7 0 0 0 7 7 7 7 0 0 0 7-7 7 7 0 0 0 -4-6.3144531z" fill="#ff9198"/><path d="m15.5 5c-.277 0-.5.223-.5.5v8c0 .277.223.5.5.5h1c.277 0 .5-.223.5-.5v-8c0-.277-.223-.5-.5-.5zm3.5 2.5253906v2.1601563a7 7 0 0 1 4 6.3144531 7 7 0 0 1 -7 7 7 7 0 0 1 -7-7 7 7 0 0 1 4-6.3164062v-2.15625a9 9 0 0 0 -6 8.4726562 9 9 0 0 0 9 9 9 9 0 0 0 9-9 9 9 0 0 0 -6-8.4746094z" fill="#fafafa"/></svg>