<svg viewBox="0 0 32 32" xmlns="http://www.w3.org/2000/svg"><path d="m15.287109 5.9921875c-1.125884 0-2.155776.2080058-3.089843.625-.934067.4086543-1.735153.9896449-2.4023441 1.7402344-.6671907.7422496-1.1838264 1.629917-1.5507813 2.6640621-.3669548 1.025806-.5507812 2.150991-.5507812 3.376954 0 1.234302.1838264 2.364819.5507812 3.390624.3669549 1.025806.8835906 1.910095 1.5507813 2.652344.6671911.74225 1.4682771 1.321287 2.4023441 1.738282.934067.408654 1.963959.613281 3.089843.613281 1.084185 0 2.081187-.192538 2.990235-.576172l2.800781 3.253906c.183477.191817.384726.328711.601563.412109.053641.020632.11466.031348.171874.046876.101771-.115682.158204-.220297.158204-.263672v-2.28711l-.339844-.388672h-.669922a.98990486.98990486 0 0 1 -.990234-.990234v-3a.98990486.98990486 0 0 1 .990234-.990234h1.222656c.414639-1.079104.632813-2.279225.632813-3.611328 0-1.225963-.183827-2.351148-.550781-3.376954-.358615-1.0341451-.871872-1.9218125-1.539063-2.6640621-.658851-.7505895-1.454605-1.3315801-2.388672-1.7402344-.925727-.4169942-1.95562-.625-3.089844-.625zm0 1.9648437c.800629 0 1.521892.148983 2.164063.4492188.650511.2918959 1.200037.7166185 1.65039 1.2753906.458694.5504324.808925 1.2267154 1.050782 2.0273434.250196.792289.376953 1.688668.376953 2.689454 0 1.000785-.126757 1.902496-.376953 2.703124-.241857.792289-.592088 1.466619-1.050782 2.025391-.450353.550432-.999879.971776-1.65039 1.263672-.642171.291896-1.363434.4375-2.164063.4375-.800628 0-1.527223-.145604-2.177734-.4375-.642171-.291896-1.191697-.71324-1.650391-1.263672-.458693-.558772-.812303-1.233102-1.0625-2.025391-.241856-.800628-.363281-1.702339-.363281-2.703124 0-1.000786.121425-1.897165.363281-2.689454.250197-.800628.603807-1.476911 1.0625-2.0273434.458694-.5587721 1.00822-.9834947 1.650391-1.2753906.650511-.3002358 1.377106-.4492188 2.177734-.4492188z" fill="#3a3a38"/><path d="m21 19v3h2v3.666667c0 .920475-1.116352 1.666666-2 1.666666v1.666667c1.767312 0 2.962774-1.492761 3-3.333333v-3.666667-1.333333-1.666667zm5 0v3h1.400001v3.666667c0 .920475-.516352 1.666666-1.400001 1.666666v1.666667c1.767312 0 3-1.492385 3-3.333333v-3.666667-1.333333-1.666667z" fill="#1e8bcd"/></svg>