<svg viewBox="0 0 32 32" xmlns="http://www.w3.org/2000/svg"><circle cx="19" cy="13" fill="#fafafa" r="9"/><path d="m19.009766 2.990234a10 10 0 0 0 -10.0000004 10 10 10 0 0 0 2.2636724 6.324219l-7.9746099 7.974609c-.3917371.391739-.3917371 1.022326 0 1.414063.3917372.391738 1.0223253.391738 1.4140625 0l7.9746094-7.972656a10 10 0 0 0 6.322266 2.259765 10 10 0 0 0 10-10 10 10 0 0 0 -10-10zm-.0098 1.0097656a9 9 0 0 1 9 9.0000004 9 9 0 0 1 -9 9 9 9 0 0 1 -5.652344-2.005859 9 9 0 0 1 -.595703-.529297 9 9 0 0 1 -.0957-.08984 9 9 0 0 1 -.519531-.568359 9 9 0 0 1 -.13086-.148438 9 9 0 0 1 -2.005859-5.658203 9 9 0 0 1 9-9.0000004z" fill="#1e8bcd"/></svg>