<svg viewBox="0 0 32 32" xmlns="http://www.w3.org/2000/svg"><path d="m11.46875 3c1.95897.00449 3.906628.7015492 5.371094 2.1660156l.353515.3535156 9.806641 9.8066408v-8.326172h1v9 1h-10v-1h8.257812l-9.771484-9.7734375-.353516-.3535156c-2.733668-2.7336697-7.3464084-2.3899193-10.0800784.34375-2.562815 2.5628161-2.728791 6.4478511-.486328 9.1972651.149498.183295.307662.360397.478516.53125l.353516.353516 11.9589844 11.957031.03516.03516-.705082.708981-.03516-.0332v-.002l-11.9257824-11.925782-.03516-.0332-.353515-.353515c-.195262-.195262-.377973-.397943-.548829-.607422-2.562797-3.142109-2.372284-7.6061834.556649-10.5351154.195262-.195262.397943-.3799273.607422-.5507812 1.571095-1.281408 3.5566554-1.9634731 5.5156254-1.9589844z" fill="#1e8bcd"/></svg>