<svg viewBox="0 0 32 32" xmlns="http://www.w3.org/2000/svg"><path d="m6 3v26h13.863281l3.5-3.5-5.070312-5.070312c-.389703-.390805-.389703-1.023258 0-1.414063l.722656-.722656c.183424-.184366.431383-.290133.691406-.294922.270862-.0035.531581.102912.722657.294922l5.070312 5.070312.498047-.498047.001953-12.865234-7-7z" fill="#fafafa"/><path d="m5.9980469 2c-.554 0-1 .446-1 1v26c0 .554.446 1 1 1h12.8652341l1-1h-13.8652341v-26h13.0000001v6c0 .6726441.491378 1 1 1h6v12.865234l1-1v-2.974609-10.5058594l-6.507813-6.3847656z" fill="#3a3a38"/><path d="m20 9h6l-6-6z" fill="#fafafa" fill-rule="evenodd"/><rect fill="#1e8bcd" height="3" ry="1" width="9" x="8" y="6"/><path d="m8.4667969 13c-.2582205 0-.4667969.208576-.4667969.466797v.066406c0 .258221.2085764.466797.4667969.466797h11.0664061c.258221 0 .466797-.208576.466797-.466797v-.066406c0-.258221-.208576-.466797-.466797-.466797zm14.0058591 0c-.262061 0-.472656.210595-.472656.472656v.054688c0 .262061.210595.472656.472656.472656h1.054688c.262061 0 .472656-.210595.472656-.472656v-.054688c0-.262061-.210595-.472656-.472656-.472656zm-13.9824216 3c-.2720201 0-.4902344.218214-.4902344.490234v.019532c0 .27202.2182143.490234.4902344.490234h11.0195316c.27202 0 .490234-.218214.490234-.490234v-.019532c0-.27202-.218214-.490234-.490234-.490234zm13.9824216 0c-.262061 0-.472656.210595-.472656.472656v.054688c0 .262061.210595.472656.472656.472656h1.054688c.262061 0 .472656-.210595.472656-.472656v-.054688c0-.262061-.210595-.472656-.472656-.472656zm-13.9824216 3c-.2720201 0-.4902344.218214-.4902344.490234v.019532c0 .27202.2182143.490234.4902344.490234h9.5507816a1.0013091 1.0013091 0 0 1 .251953-.984375l.015625-.015625zm13.9824216 0c-.262061 0-.472656.210595-.472656.472656v.054688c0 .262061.210595.472656.472656.472656h1.054688c.262061 0 .472656-.210595.472656-.472656v-.054688c0-.262061-.210595-.472656-.472656-.472656zm-13.9824216 3c-.2720201 0-.4902344.218214-.4902344.490234v.019532c0 .27202.2182143.490234.4902344.490234h11.0195316c.27202 0 .490234-.218214.490234-.490234v-.019532c0-.27202-.218214-.490234-.490234-.490234zm-.0234375 3c-.2582205 0-.4667969.208576-.4667969.466797v.066406c0 .258221.2085764.466797.4667969.466797h11.0664061c.258221 0 .466797-.208576.466797-.466797v-.066406c0-.258221-.208576-.466797-.466797-.466797zm14.0058591 0c-.262061 0-.472656.210595-.472656.472656v.054688c0 .262061.210595.472656.472656.472656h.390625l.5-.5-.5-.5z" fill="#1e8bcd"/><path d="m31.277778 19-5.777778 5.777778-5.777778-5.777778-.722222.722222 5.777778 5.777778-5.777778 5.777778.722222.722222 5.777778-5.777778 5.777778 5.777778.722222-.722222-5.777778-5.777778 5.777778-5.777778z" fill="#ed3d3b"/></svg>