<svg viewBox="0 0 32 32" xmlns="http://www.w3.org/2000/svg"><path d="m16 4a12 12 0 0 0 -12 12 12 12 0 0 0 12 12 12 12 0 0 0 7.345703-2.517578l-5.052734-5.052734a1.0013091 1.0013091 0 0 1 0-1.414063l.722656-.722656a1.0013091 1.0013091 0 0 1 .691406-.294922 1.0013091 1.0013091 0 0 1 .722657.294922l5.046874 5.046875a12 12 0 0 0 2.523438-7.339844 12 12 0 0 0 -12-12z" fill="#fafafa"/><path d="m16 3a13 13 0 0 0 -1.095703.0546875 13 13 0 0 0 -.669922.0820313 13 13 0 0 0 -.630859.09375 13 13 0 0 0 -.650391.1464843 13 13 0 0 0 -.59375.1523438 13 13 0 0 0 -.650391.2148437 13 13 0 0 0 -.591796.2148438 13 13 0 0 0 -.595704.2675781 13 13 0 0 0 -.5859371.2851563 13 13 0 0 0 -.5410157.3085937 13 13 0 0 0 -.5820312.3574219 13 13 0 0 0 -.5097656.3652344 13 13 0 0 0 -.5214844.3945312 13 13 0 0 0 -.5019531.4414062 13 13 0 0 0 -.4667969.4335938 13 13 0 0 0 -.4335938.4667969 13 13 0 0 0 -.4414062.5019531 13 13 0 0 0 -.3945312.5214844 13 13 0 0 0 -.3652344.5097656 13 13 0 0 0 -.3574219.5820312 13 13 0 0 0 -.3085937.5410157 13 13 0 0 0 -.2851563.5859371 13 13 0 0 0 -.2675781.595704 13 13 0 0 0 -.2148438.591796 13 13 0 0 0 -.2148437.650391 13 13 0 0 0 -.1523438.59375 13 13 0 0 0 -.1464843.650391 13 13 0 0 0 -.09375.630859 13 13 0 0 0 -.0820313.669922 13 13 0 0 0 -.0546875 1.095703 13 13 0 0 0 .046875.949219 13 13 0 0 0 .0898438.828125 13 13 0 0 0 .0605468.394531 13 13 0 0 0 .2011719.958984 13 13 0 0 0 .03125.144532c.0017608-.00167.0040899-.002254.0058594-.003907a13 13 0 0 0 9.8105471 9.416016 13 13 0 0 0 .199218.044922 13 13 0 0 0 1.0625.164062 13 13 0 0 0 .296876.03711 13 13 0 0 0 1.195312.066406 13 13 0 0 0 1.195312-.066406 13 13 0 0 0 .296876-.03711 13 13 0 0 0 1.0625-.164062 13 13 0 0 0 .199218-.044922 13 13 0 0 0 2.074219-.652344l2.535156-2.535156-.035156-.035156a12 12 0 0 1 -4.667969 2.222656c.055808-.138415.098519-.277479.152344-.416016.171754-.441501.334363-.88359.486328-1.326172.073041-.213553.146482-.426819.214844-.640624.186257-.580037.358515-1.160339.509766-1.742188.008123-.031279.019319-.062466.027343-.09375l-.003906-.003906c.088408-.344677.169738-.689876.246094-1.035156l-1.251953-1.251954c-.422654-.03687-.845531-.07186-1.271485-.09375-.437003-.022457-.877895-.029664-1.318359-.035156-.150175-.002118-.301403-.011589-.451172-.011719-.149769.00013-.300997.009601-.451172.011719-.440464.005492-.881356.012699-1.318359.035156-.53651.027571-1.070168.064583-1.601563.117188l.007813.007812c-.052284.005186-.103917.006291-.15625.011719-.07054-.381262-.118726-.762796-.173828-1.144531-.037109-.252659-.082747-.504932-.113282-.757813-.071125-.605162-.123623-1.211757-.15625-1.818359h7.925782c-.009288.172676-.032443.344936-.044922.517578a1.0013091 1.0013091 0 0 1 .511719.275391l.425781.425781c.041438-.406028.084507-.811962.105469-1.21875h6.927734a12 12 0 0 1 -.025391.171875 12 12 0 0 1 -.130859.705078 12 12 0 0 1 -1.660156 4.125c-.651367-.191573-1.297646-.356189-1.941407-.507812l1.369141 1.36914 2.539062-2.539062a13 13 0 0 0 .525391-1.552735c.00177.001653.004099.002237.005859.003907a13 13 0 0 0 .03125-.144532 13 13 0 0 0 .201172-.958984 13 13 0 0 0 .060547-.394531 13 13 0 0 0 .089844-.828125 13 13 0 0 0 .046875-.949219 13 13 0 0 0 -.054688-1.095703 13 13 0 0 0 -.082031-.669922 13 13 0 0 0 -.09375-.630859 13 13 0 0 0 -.146484-.650391 13 13 0 0 0 -.152344-.59375 13 13 0 0 0 -.214844-.650391 13 13 0 0 0 -.214843-.591796 13 13 0 0 0 -.267578-.595704 13 13 0 0 0 -.285157-.5859371 13 13 0 0 0 -.308593-.5410157 13 13 0 0 0 -.357422-.5820312 13 13 0 0 0 -.365235-.5097656 13 13 0 0 0 -.394531-.5214844 13 13 0 0 0 -.441406-.5019531 13 13 0 0 0 -.433594-.4667969 13 13 0 0 0 -.466797-.4335938 13 13 0 0 0 -.501953-.4414062 13 13 0 0 0 -.521484-.3945312 13 13 0 0 0 -.509766-.3652344 13 13 0 0 0 -.582031-.3574219 13 13 0 0 0 -.541016-.3085937 13 13 0 0 0 -.585937-.2851563 13 13 0 0 0 -.595704-.2675781 13 13 0 0 0 -.591796-.2148438 13 13 0 0 0 -.650391-.2148437 13 13 0 0 0 -.59375-.1523438 13 13 0 0 0 -.650391-.1464843 13 13 0 0 0 -.630859-.09375 13 13 0 0 0 -.669922-.0820313 13 13 0 0 0 -1.095703-.0546875zm0 1a12 12 0 0 1 .787109.046875 12 12 0 0 1 .671875.0546875 12 12 0 0 1 .039063.0058594l.037109.0859375c.783147 1.8600932 1.376643 3.7252959 1.789063 5.5957031-1.11981.1135787-2.227352.1699791-3.324219.171875-1.096867-.0018962-2.204409-.0582951-3.324219-.171875.41242-1.8704072 1.005916-3.7356099 1.789063-5.5957031l.037109-.0859375a12 12 0 0 1 .039063-.0058594 12 12 0 0 1 .671875-.0546875 12 12 0 0 1 .787109-.046875zm-2.660156.3125c-.718302 1.7815142-1.278255 3.5722397-1.666016 5.3710938-.85823-.1127413-1.7102711-.2566067-2.5566405-.4296876-.8478037-.1753751-1.703466-.381798-2.5664063-.6269531a12 12 0 0 1 1.65625-1.7324219 12 12 0 0 1 .9492188-.7324218 12 12 0 0 1 .990234-.6191406 12 12 0 0 1 .208985-.1074219 12 12 0 0 1 .835937-.4121094 12 12 0 0 1 .373047-.1445313 12 12 0 0 1 .744141-.2792968 12 12 0 0 1 .826172-.2304688 12 12 0 0 1 .205078-.0566406zm5.320312 0a12 12 0 0 1 .205078.0566406 12 12 0 0 1 .826172.2304688 12 12 0 0 1 .744141.2792968 12 12 0 0 1 .373047.1445313 12 12 0 0 1 .835937.4121094 12 12 0 0 1 .208985.1074219 12 12 0 0 1 .990234.6191406 12 12 0 0 1 .949219.7324218 12 12 0 0 1 1.65625 1.7324219c-.86294.2451551-1.718602.4515779-2.566407.6269531-.846369.173081-1.69841.3169463-2.55664.4296876-.387761-1.7988541-.947714-3.5895796-1.666016-5.3710938zm-12.7324216 5.1855469c.3136529.0922483.6256314.1730446.9375.2558593.1468513.0390038.2921796.0840233.4394531.1210938.3578072.0903003.7128346.167631 1.0683594.246094.104994.023019.2092576.05018.3144531.072265.9398008.198809 1.87221.359485 2.796875.482422-.320523 1.768204-.489025 3.541955-.486328 5.324219-.00025.166947.009019.333198.011719.5h-6.9843754a12 12 0 0 1 -.0253906-.5 12 12 0 0 1 .0566406-1.074219 12 12 0 0 1 .0527344-.433593 12 12 0 0 1 .1191406-.775391 12 12 0 0 1 .078125-.345703 12 12 0 0 1 .2167969-.841797 12 12 0 0 1 .0878906-.261719 12 12 0 0 1 .3203125-.873047 12 12 0 0 1 .0996094-.222656 12 12 0 0 1 .4296875-.886719 12 12 0 0 1 .1132813-.195312 12 12 0 0 1 .3535156-.5917971zm20.1445316 0a12 12 0 0 1 .353515.5917971 12 12 0 0 1 .113281.195312 12 12 0 0 1 .429688.886719 12 12 0 0 1 .099609.222656 12 12 0 0 1 .320313.873047 12 12 0 0 1 .08789.261719 12 12 0 0 1 .216797.841797 12 12 0 0 1 .078125.345703 12 12 0 0 1 .119141.775391 12 12 0 0 1 .052734.433593 12 12 0 0 1 .056641 1.074219 12 12 0 0 1 -.025391.5h-6.984375c.00272-.166802.011972-.333053.011719-.5.00273-1.782264-.165805-3.556015-.486328-5.324219.924665-.122937 1.857074-.283613 2.796875-.482422.104497-.022105.209762-.04916.314453-.072265.355525-.078463.710552-.1557937 1.068359-.246094.004551-.0011485.009121-.0027558.013672-.0039062.456623-.1151336.910782-.2391018 1.363282-.3730469zm-13.59375 1.2890621c1.161617.120263 2.334871.179807 3.521484.177735 1.186613.002073 2.359867-.057478 3.521484-.177735.320022 1.732207.486971 3.468594.484375 5.212891.00025.166877-.008918.333266-.011718.5h-7.988282c-.002849-.166734-.011967-.333123-.011718-.5-.002602-1.744297.164353-3.480684.484375-5.212891zm-8.3671879 6.712891h6.9277339c.02741.531919.077452 1.063034.136719 1.59375.023738.224705.051232.449335.080078.673828.006418.049452.010993.098994.017579.148438l.005859.005859c.062524.46752.12433.93556.208984 1.402344-1.8237429.242284-3.6758641.623431-5.5605466 1.177734a12 12 0 0 1 -1.6601563-4.125 12 12 0 0 1 -.1308593-.705078 12 12 0 0 1 -.0253907-.171875zm11.8886719 4.539062c.538394.000926 1.079264.015467 1.623047.042969.003923.000199.007795-.0002.011719 0 .028099.001445.055899.004343.083984.00586.532616.02846 1.067416.068476 1.605469.123047-.055443.251442-.123539.502651-.185547.753906-.068087.276453-.135096.553849-.210938.830078-.066084.239453-.140754.477514-.21289.716797-.058548.195423-.113203.390627-.175782.585937-.141102.437637-.289531.875429-.451171 1.3125-.172215.465664-.356948.931461-.552735 1.396485l-.037109.085937a12 12 0 0 1 -.720703.0625 12 12 0 0 1 -.648438.042969 12 12 0 0 1 -.128906.001953 12 12 0 0 1 -.128906-.001953 12 12 0 0 1 -.648438-.042969 12 12 0 0 1 -.720703-.0625l-.037109-.085937c-.195787-.465024-.38052-.930821-.552735-1.396485-.16164-.437071-.31007-.874863-.451171-1.3125-.06258-.19531-.117234-.390514-.175782-.585937-.072136-.239283-.146806-.477344-.21289-.716797-.075842-.276229-.142851-.553625-.210938-.830078-.062008-.251255-.130104-.502464-.185547-.753906.538053-.054571 1.072853-.094587 1.605469-.123047.027847-.001488.056151-.004442.083984-.00586.003902-.0002.007817.000199.011719 0 .543783-.027502 1.084653-.042043 1.623047-.042969zm-4.322266.271485c.082989.385199.176789.769877.275391 1.154297l-.003906.003906c.008024.031284.019221.062471.027343.09375.151252.581849.323509 1.16215.509766 1.742188.068362.213806.141803.427071.214844.640624.151965.442582.314574.884671.486328 1.326172.053825.138537.096536.277601.152344.416016a12 12 0 0 1 -6.7890628-4.314453c1.7391841-.49409 3.4460505-.841232 5.1269528-1.0625z" fill="#3a3a38"/><path d="m31.277778 19-5.777778 5.777778-5.777778-5.777778-.722222.722222 5.777778 5.777778-5.777778 5.777778.722222.722222 5.777778-5.777778 5.777778 5.777778.722222-.722222-5.777778-5.777778 5.777778-5.777778z" fill="#ed3d3b"/></svg>