<svg viewBox="0 0 32 32" xmlns="http://www.w3.org/2000/svg"><g fill="#3a3a38" transform="scale(-1 1)"><rect height="1" ry=".5" width="14.999998" x="-28" y="4"/><rect height="1" ry=".392136" width="15.000005" x="-28" y="14"/><rect height="1" ry=".5" width="8.999999" x="-22" y="17"/><rect height="1" ry=".5" width="9.000002" x="-22" y="7"/><rect height="1" ry=".392136" width="15.000005" x="-28" y="24"/><rect height="1" ry=".5" width="8.999999" x="-22" y="27"/></g><path d="m31.277778 19-5.777778 5.777778-5.777778-5.777778-.722222.722222 5.777778 5.777778-5.777778 5.777778.722222.722222 5.777778-5.777778 5.777778 5.777778.722222-.722222-5.777778-5.777778 5.777778-5.777778z" fill="#ed3d3b" transform="translate(-19)"/><g fill="#1e8bcd"><path d="m9 16a2 2 0 0 1 -2 2 2 2 0 0 1 -2-2 2 2 0 0 1 2-2 2 2 0 0 1 2 2z"/><path d="m4.0083 10h1.986424v-5.1719427c0-.1568629.006-.319759.0181-.4886883l-1.345401 1.1825051c-.09653.080442-.191051.1085975-.28356.084465-.08849-.028155-.15083-.068376-.187029-.1206638l-.319759-.4404232 2.310711-2.0452511h.820514v6.999999h2l-.0083 1h-5z"/></g></svg>