<svg viewBox="0 0 32 32" xmlns="http://www.w3.org/2000/svg"><path d="m4 4v18h4.5a.50005.50005 0 0 1 .5.5v4.912109l5.925781-5.078125.00586-4.9375c.001919-1.353241 1.12343-2.476562 2.478515-2.476562h10.589844v-10.919922z" fill="#fafafa"/><g fill="#3a3a38"><path d="m28.610157 15.998802c.7756 0 1.401094.624401 1.4 1.400001l-.010157 7.201197c-.0011.775599-.624442 1.408038-1.4 1.4h-1.589843l.01016 3.298803c-.000244.623446-.564084.935613-1.005079.494922l-4.005081-3.793725h-4.610157c-.7756 0-1.401094-.624401-1.4-1.4l.01016-7.201197c.0011-.7756.6244-1.400001 1.4-1.400001z"/><path d="m3.5 3a.50005.50005 0 0 0 -.5.5v19a.50005.50005 0 0 0 .5.5h4.5v5.5a.50005.50005 0 0 0 .8261719.378906l6.1738281-5.291015v-1.31836l-6 5.142578v-4.912109a.50005.50005 0 0 0 -.5-.5h-4.5v-18h24v10.998047h.599609c.13671 0 .269525.018375.400391.041015v-11.539062a.50005.50005 0 0 0 -.5-.5z" fill-rule="evenodd"/></g><path d="m29.010157 17v8h-3v3l-3.5-3h-5.5v-8z" fill="#fafafa"/></svg>