<svg height="32" viewBox="0 0 8.4666666 8.466667" width="32" xmlns="http://www.w3.org/2000/svg"><path d="m4 13a1.0001 1.0001 0 0 0 -1 1v11.998047a1.0001 1.0001 0 0 0 .2929688.707031l2.0019531 2.001953a1.0001 1.0001 0 0 0 .7070312.292969h11.9980469a1.0001 1.0001 0 0 0 1-1v-8h-2.998047c-.52354-.000101-1.043888-.215713-1.414062-.585938l-1.414063-1.414062h-6.173828v-4h5v-1zm3 11h7v4h-4v-3h-2v3h-1z" fill="#922e9b" transform="scale(.26458333)"/><path d="m4 14v11.998047l2 2v-4.998047h9v5h3v-8h-1.998047c-.52354-.000101-1.043888-.215713-1.414062-.585938l-.414063-.414062h-8.173828v-5z" fill="#d492d8" transform="matrix(.26458333 0 0 .26458333 0 -.000003)"/><path d="m7 14v4h6.173828l-.58789-.587891c-.370225-.370174-.585837-.890522-.585938-1.414062v-1.998047zm0 10v4h1v-3h2v3h4v-4z" fill="#fafafa" transform="scale(.26458333)"/><g stroke-width=".264583" transform="translate(0 -288.5333)"><path d="m14 3a1.0001 1.0001 0 0 0 -1 1v11.998047a1.0001 1.0001 0 0 0 .292969.707031l2.001953 2.001953a1.0001 1.0001 0 0 0 .707031.292969h11.998047a1.0001 1.0001 0 0 0 1-1v-14a1.0001 1.0001 0 0 0 -1-1zm3 1h8v4h-8zm0 10h7v4h-4v-3h-2v3h-1z" fill="#922e9b" stroke-width=".999999" transform="matrix(.26458334 0 0 .26458334 0 288.5333)"/><path d="m3.7041667 289.59163v3.17449l.5291666.52916v-1.3224h2.38125v1.32292h.79375v-3.70417h-.5291666v1.32292h-2.6458334v-1.32292z" fill="#d492d8"/><path d="m4.4979167 289.59163v1.05834h2.1166666v-1.05834zm0 2.64584v1.05833h.2645833v-.79375h.5291667v.79375h1.0583333v-1.05833z" fill="#fafafa"/></g></svg>