<svg height="32" viewBox="0 0 8.4666665 8.4666669" width="32" xmlns="http://www.w3.org/2000/svg"><g fill-rule="evenodd" transform="scale(.26458333)"><path d="m3.0429688 4.0585938-.0332032 19.0000002h13.9902344v-7.683594c0-1.266973.942901-2.375 2.25-2.375h3.40625 2.375l.011719-4.9414062h-11.017578l-4.9824222-4z" fill="#fafafa"/><path d="m3.0097656 3.0585938c-.676037.0000647-.999932.3502801-1 1l-.0332031 19.5000002 1.0234375-.058594.0097656-19.4414062h.0332032 5.9667968.0332032l4.9824222 4h10.984375.033203l-.011719 4.9414062h.978516v-4.9414062c-.000068-.64972-.323964-.9999352-1-1h-10.509766l-4.7285156-3.65625c-.229538-.2206308-.5405984-.3436901-.8652344-.34375z" fill="#ed8733"/><path d="m6.875 11.058594c-1.2500514.0041-1.2623376-.002915-1.5664062 1.166015l-2.2988282 8.833985-1.0332031 3h1.2226563 11.8007812v-.058594h2v-.941406h-13.6210938l.5761719-1.673828a1.0001 1.0001 0 0 0 .0214844-.074219l2.2988281-8.833985a1.0001 1.0001 0 0 1 .0019532 0c.0549188-.211123.0856624-.318187.1152343-.412109.0448083.005694.1745548-.004109.4824219-.005859h.0039062 19.1308598 2.738281l-.300781.951172.552734.033203c.154833.026566.302943.07067.445312.126953l.296876-.94336c.364608-1.168053.363884-1.167968-.91211-1.167968h-2.820312z" fill="#ed8733"/><path d="m6.40625 12.017578c-.0396528.031763-.0456778.042808-.0136719.046875.0033742-.010716.0104019-.036823.0136719-.046875zm-.0136719.046875c-.0295719.093922-.0603154.200985-.1152343.412109a1.0001 1.0001 0 0 1 -.0019532 0l-2.2988281 8.833985a1.0001 1.0001 0 0 1 -.0214844.074219l-.5761719 1.673828h13.6210938v-7.683594c0-1.266973.942901-2.375 2.25-2.375h3.40625 5.626953l.164063.009766.300781-.951172h-2.738281-19.1308598-.0039062c-.3078671.00175-.4376136.011553-.4824219.005859z" fill="#f8db8f"/></g><g stroke-width=".264583"><path d="m5.0932293 3.7041665c-.024763 0-.048395.00246-.070797.00672-.101633.025602-.1701446.084542-.2170408.1648455-.027446.054595-.042891.1192244-.042891.1922364v2.2820314h1.5875v.6614583.033073.011885h.00155c.00397.09375.053384.1808631.127124.245463.026641.024651.05656.045803.088883.062528.032323.016727.06705.029024.1038701.036174.022968.00469.046682.00735.070797.00775h.00465v.0005292c.025043-.0002058.049565-.0034.073381-.00827.073639-.014301.1394708-.049402.1927529-.098702.07374-.0646.1231561-.1517129.1271241-.2454629h.00156v-.0118944-.0330729c.000055-.00952-.000054-.022466 0-.032039-.00167-.02335-.00267-.046146 0-.067696.00331-.6499202.00251-1.4106642.00259-2.1492228h-.0005326v-.6614588c0-.1450918.049486-.2835603.1317749-.3963583-.00124-.0001179-.00235-.0004048-.00362-.000516h-.976165z" fill="#fafafa"/><path d="m5.0932293 3.4395831c-.3458365 0-.5953126.2931655-.5953126.6283855v2.2820312h.2645834v-2.2820312c0-.21445.1268937-.3638021.3307292-.3638021h1.1870076.9958048c.0948298-.1297007.2333866-.2251632.396875-.2532145l-.1896526-.0113689h-1.4887978zm2.0510374 1.3229167c-.0000759.7728316.00135 1.5809627-.00259 2.2489583v.033073.011885h-.00156c-.00397.09375-.053384.1808631-.1271241.245463-.053282.0493-.1191141.084402-.1927529.098702-.023815.00487-.048339.00806-.073381.00827v.2640668c.3446997-.00108.6614779-.2709023.6614779-.6263182 0-.011187.0006615-.024045 0-.03514h.00103v-2.2489599z" fill="#3a3a38"/><path d="m3.96875 6.3499998v.6614583h.0031c-.0006511.011094-.0031.021886-.0031.033073 0 .35613.3159744.6283854.6614584.6283854h2.1166666v-.2645834h-.00465c-.024115-.0003969-.04783-.00306-.070799-.00775-.0736379-.014299-.1394694-.049401-.1927516-.0987011-.07374-.0645999-.1231561-.1517129-.127124-.245463h-.00155v-.011888-.0330729-.396875-.2645833zm.2645834.2645833h1.8520834v.396875h.0031c-.0006509.011094-.0031.021886-.0031.033073 0 .137627.048245.2621.1260905.3638021l-1.5812989.0005292c-.02577-.0000524-.05097-.00328-.075448-.00828-.073637-.0143-.139471-.049402-.1927531-.098702-.07374-.0646-.1231562-.1517128-.1271241-.2454629h-.00155v-.011885-.033073z" fill="#922e9b"/><path d="m4.2333334 6.6145831v.396875.033073.011885h.00155.00155c.0106.092971.054997.1734608.1173054.2351278.0033.00308.00486.00735.00827.010335.010264.0095.022945.015891.034107.024289.023112.01724.04736.033035.073897.044958.027116.012306.054715.023622.084749.029456.015423.00315.031584.00378.047542.00517.00936.0006879.018388.00257.027905.00259.027083 0 .054096-.00275.080615-.00775v.00569h1.3745949l.1250569.0005291c-.0747996-.0983224-.12118-.2179386-.1240253-.3498776h-.0010293v-.0124024-.0325562-.0005167-.3963583z" fill="#d492d8"/><path d="m7.6729167 3.450952c-.3057996.0524691-.5291667.3377814-.5291667.6500895v.6614583h1.0583333v-.6614583c0-.3123081-.223367-.5976204-.5291666-.6500895zm0 .2733683c.059628.021033.1142838.058468.1581298.1085205.0493.053282.084402.1191141.098702.1927531.005.024478.00823.049678.00827.075448h-.0005185v.3968749c-.176389 0-.3527777 0-.5291667 0v-.3968753h-.0005291c.0000399-.02577.00327-.05097.00827-.075448.014301-.073639.049402-.1394709.098702-.1927531.043861-.050052.098514-.087487.1581422-.1085205z" fill="#922e9b"/><path d="m7.6729167 3.7243203c.059628.021033.1142838.058468.1581298.1085205.0493.053282.084402.1191141.098702.1927531.005.024478.00823.049678.00827.075448h-.0005185v.3968745h-.5291667v-.3968749h-.0005291c.0000399-.02577.00327-.05097.00827-.075448.014301-.073639.049402-.1394709.098702-.1927531.043861-.050052.098514-.087487.1581422-.1085205z" fill="#d492d8"/></g></svg>