<svg viewBox="0 0 32 32" xmlns="http://www.w3.org/2000/svg"><g fill-rule="evenodd"><path d="m7.5 3a.49809668.49809668 0 0 0 -.5.4980469v23.5332031a.49809668.49809668 0 0 0 .8652344.337891l4.9453126-5.375 2.623047 5.611328-.019532-.046875c.239343.682691.805907 1.128106 1.423829 1.316406s1.299532.157307 1.925781-.046875c.626248-.204187 1.208821-.589416 1.572266-1.169922.363444-.580506.468249-1.356315.18164-2.173828a.49809668.49809668 0 0 0 -.015625-.037109l-3.089844-6.970704h7.089844a.49809668.49809668 0 0 0 .322266-.876953l-17.0039065-14.4804684a.49809668.49809668 0 0 0 -.3203125-.1191406zm.5 1.5859375 15.136719 12.8906245h-6.490235a.50200332.50200332 0 0 0 -.458984.705079l3.384766 7.634765c.201702.576907.125545.97588-.083985 1.310547-.209797.335095-.590988.60518-1.035156.75-.444168.144824-.940807.157853-1.324219.041016-.383411-.116838-.642104-.325983-.769531-.689453a.50200332.50200332 0 0 0 -.019531-.046875l-2.9375-6.285157a.50200332.50200332 0 0 0 -.824219-.126953l-4.578125 4.97461z" fill="#3a3a38"/><path d="m8 4.5859375v21.1582035l4.578125-4.97461a.50200332.50200332 0 0 1 .824219.126953l2.9375 6.285157a.50200332.50200332 0 0 1 .01953.04687c.127427.36347.38612.572615.769531.689453.383412.116837.880051.103804 1.324219-.04102.444168-.14482.825359-.414905 1.035156-.75.20953-.334667.285682-.73364.08398-1.310547l-3.38476-7.634756a.50200332.50200332 0 0 1 .458984-.705079h6.490235z" fill="#fafafa"/></g></svg>