<svg height="32" viewBox="0 0 8.4666665 8.4666669" width="32" xmlns="http://www.w3.org/2000/svg"><g transform="translate(0 -288.53332)"><g stroke-width=".264583"><path d="m7.4707031 10.001953c-.8714003 0-1.4936872.729593-1.4921875 1.498047l.03125 13.996094c.0021234.816907.6673651 1.5 1.4902344 1.5h21.001953c.822869 0 1.491834-.680372 1.490235-1.5l-.021485-13.996094c-.002039-.806891-.662243-1.498047-1.498047-1.498047h-1.970703a.49665517.49665517 0 0 0 -.496094.494141v3.005859c0 .284977-.220232.501953-.509765.501953h-15c-.116965 0-.098706-.001473-.191406-.126953-.073663-.099779-.185146-.308053-.3105474-.515625v-2.865234a.49665517.49665517 0 0 0 -.4941406-.494141zm0 .996094h1.5273438v2.503906a.50344486.50344486 0 0 0 .0820312.279297c.1226423.18395.2290028.42898.4199219.6875.1909175.258595.556869.53125.996094.53125h15c.822079 0 1.507812-.671502 1.507812-1.498047v-2.503906h1.46875c.317029 0 .501201.204126.501953.501953l.021485 13.996094c.000555.284636-.212687.501953-.494141.501953h-21.001953c-.2814554 0-.4933934-.214331-.4941406-.501953l-.0292969-13.996094c-.0006119-.313739.1122904-.501953.4941406-.501953z" fill="#3a3a38" transform="matrix(.26458333 0 0 .26458333 0 288.53332)"/><path d="m11 9c-.554 0-1 .4459969-1 1v2c0 .554003.446 1 1 1h14c.554 0 1-.445997 1-1v-2c0-.5540031-.446-1-1-1v2h-1-12-1z" fill="#1e8bcd" stroke-width=".999999" transform="matrix(.26458333 0 0 .26458333 0 288.53332)"/><path d="m3.1372762 289.5917c-.1253662.008-.18132.10976-.2268596.22686v1.62522h.2645834c0-.52917 0-1.05833 0-1.5875h3.175v1.5875h.2645833c0-.54174 0-1.08348 0-1.62522 0-.12564-.1014934-.21858-.2268596-.22686-1.0834825 0-2.166965 0-3.2504475 0z" fill="#3a3a38"/><path d="m3.175 289.85628v1.5875h3.175c0-.52917 0-1.05833 0-1.5875-1.0583333 0-2.1166667 0-3.175 0z" fill="#fafafa" fill-rule="evenodd"/><path d="m7.4707031 10.998047c-.3818502 0-.4947525.188214-.4941406.501953l.0292969 13.996094c.0007472.287622.2126852.501953.4941406.501953h21.001953c.281454 0 .494696-.217317.494141-.501953l-.021485-13.996094c-.000752-.297827-.184924-.501953-.501953-.501953h-1.46875v2.503906c0 .826545-.685733 1.498047-1.507812 1.498047h-15c-.439225 0-.8051765-.272655-.996094-.53125-.1909191-.25852-.2972796-.50355-.4199219-.6875a.50344485.50344485 0 0 1 -.0820312-.279297v-2.503906zm3.5292969 6.001953h1v1h-1zm3 0h1v1h-1zm3 0h1v1h-1zm3.5 0h5c.822372 0 1.5.677628 1.5 1.5v1c0 .822372-.677628 1.5-1.5 1.5h-5c-.822372 0-1.5-.677628-1.5-1.5v-1c0-.822372.677628-1.5 1.5-1.5zm-9.5 3h1v1h-1zm3 0h1v1h-1zm3 0h1v1h-1zm-6 3h1v1h-1zm3 0h1v1h-1zm3 0h1v1h-1z" fill="#797774" transform="matrix(.26458333 0 0 .26458333 0 288.53332)"/></g><path d="m11 17v1h1v-1zm3 0v1h1v-1zm3 0v1h1v-1zm-6 3v1h1v-1zm3 0v1h1v-1zm3 0v1h1v-1zm-6 3v1h1v-1zm3 0v1h1v-1zm3 0v1h1v-1z" fill="#fafafa" stroke-width=".707108" transform="matrix(.26458333 0 0 .26458333 0 288.53332)"/><path d="m.66210938 291.17969c-.21771736 0-.39648438.17876-.39648438.39648v3.70313c0 .21772.17876702.39648.39648438.39648h.52929682c.2177174 0 .3945313-.17993.3945313-.39648v-3.70313c0-.21655-.1768139-.39648-.3945313-.39648z" fill="#3a3a38"/><g fill="#fafafa" transform="matrix(.26458333 0 0 .26458333 0 288.53333)"><path d="m20.5 17c-.822372 0-1.5.677628-1.5 1.5v1c0 .822372.677628 1.5 1.5 1.5h5c.822372 0 1.5-.677628 1.5-1.5v-1c0-.822372-.677628-1.5-1.5-1.5zm0 1h5c.285669 0 .5.214331.5.5v1c0 .285669-.214331.5-.5.5h-5c-.285669 0-.5-.214331-.5-.5v-1c0-.285669.214331-.5.5-.5z" fill="#3a3a38" transform="translate(0 -.000038)"/><path d="m20.5 18c-.285669 0-.5.214331-.5.5v1c0 .285669.214331.5.5.5h5c.285669 0 .5-.214331.5-.5v-1c0-.285669-.214331-.5-.5-.5z"/></g><path d="m.66210938 291.44336c-.0747971 0-.1328125.058-.1328125.13281v3.70313c0 .0748.0580154.13281.1328125.13281h.52929682c.074797 0 .1308594-.0568.1308594-.13281v-3.70313c0-.076-.056062-.13281-.1308594-.13281z" fill="#797774"/></g></svg>