<svg viewBox="0 0 32 32" xmlns="http://www.w3.org/2000/svg"><path d="m10.001953 10-6.001953 16h1.7167969c.1866977 0 .3447327-.052672.4746093-.158203.1379942-.105525.2305932-.227241.2792969-.365235l1.2265625-3.476562h6.8593754l1.230468 3.488281c.06494.146112.153936.267827.267579.365235.121757.097408.279795.146484.474609.146484h1.71875l-5.992188-16zm1.121094 2.095703c.07306.300339.151248.58009.232422.839844.08117.259754.161015.486826.242187.681641l2.251953 6.382812h-5.4472652l2.2460942-6.373047c.073059-.194815.149295-.419934.230468-.679687.08117-.259754.162967-.543106.244141-.851563z" fill="#3a3a38" stroke-width=".614923"/><path d="m17 9.5c0-.127809.04855-.25558.146485-.353515.195869-.195868.513115-.195868.708984 0l4.142578 4.140625v-10.7929702c0-.277.223-.5.5-.5s.5.223.5.5v10.7929702l4.142578-4.140625c.195869-.195868.513116-.195868.708984 0 .09794.09793.146485.225706.146485.353515s-.04855.257539-.146485.355469l-4.998046 4.992188c-.04701.04702-.103236.08408-.166016.109375-.0579.02334-.12105.03711-.1875.03711s-.129596-.01377-.1875-.03711c-.06278-.0253-.119003-.06236-.166016-.109375l-4.998046-4.992189c-.09793-.09793-.146485-.22766-.146485-.355468z" fill="#1e8bcd"/></svg>