<svg viewBox="0 0 32 32" xmlns="http://www.w3.org/2000/svg"><path d="m6 6v8.585938l1.2929688-1.292969c.6299945-.629556 1.7066816-.183606 1.7070312.707031v4c-.0003496.890637-1.0770367 1.336587-1.7070312.707031l-1.2929688-1.292969v11.585938h13v-1-4c0-.310732.015203-.606652.039062-.894531a5.5 5.5 0 0 1 -.039062-.605469 5.5 5.5 0 0 1 4.832031-5.453125c.056146-.01284.111795-.03564.167969-.046875.172799-.034559.346293-.022303.519531.001953a5.5 5.5 0 0 1 .480469.023438v-4.025391l-6-7h-6.585938l1.292969 1.2929688c.629556.6299945.183606 1.7066816-.707031 1.7070312h-4c-.8906368-.0003495-1.3365875-1.0770367-.7070312-1.7070312l1.2929687-1.2929688z" fill="#fafafa"/><path d="m5.9980469 5c-.554 0-1 .446-1 1v8.583984l.5019531.501954.4980469-.498047v-8.587891h3.5878906l.5000005-.5-.5000005-.5zm6.4160151 0-.5.5.5.5h6.583985v6c0 .672644.491378 1 1 1h5v4.025391a5.5 5.5 0 0 1 1 .1875v-5.828125l-5.507813-6.384766zm-6.914062 11.914062-.5019531.501954v11.583984c0 .554.446 1 1 1h13.0019531v-1h-13.0019531v-11.587891z" fill="#3a3a38"/><g fill="#1e8bcd" fill-rule="evenodd"><path d="m11 6 2 2h-4z"/><path d="m11 5 2-2h-4z"/><path d="m6 16 2-2v4z"/><path d="m5 16-2-2v4z"/></g><path d="m24.5 18c-2.485281 0-4.5 2.014719-4.5 4.5v7.5h3v-7.5c0-.828427.671573-1.5 1.5-1.5s1.5.671573 1.5 1.5v7.5h3v-7.5c0-2.485281-2.014719-4.5-4.5-4.5z" fill="#ed3d3b"/><path d="m-17 22h-4v2h4z" fill="#1e8bcd" transform="matrix(.75 0 0 1 35.75 6)"/><path d="m29 28h-3v2h3z" fill="#1e8bcd" stroke-width=".866025"/><path d="m25 12-5-6v6z" fill="#fafafa"/></svg>