<svg viewBox="0 0 32 32" xmlns="http://www.w3.org/2000/svg"><path d="m5.875 3c-1.5840932 0-2.875 1.2909067-2.875 2.875v20.25c0 1.584092 1.2909066 2.875 2.875 2.875h20.25c1.584093 0 2.875-1.290907 2.875-2.875v-20.25c0-1.5840935-1.290908-2.875-2.875-2.875zm0 1h20.25c1.047376 0 1.875.8276235 1.875 1.875v20.25c0 1.047375-.827625 1.875-1.875 1.875h-20.25c-1.0473764 0-1.875-.827624-1.875-1.875v-20.25c0-1.0473767.8276234-1.875 1.875-1.875z" fill="#3a3a38"/><path d="m5.875 4c-1.0473766 0-1.875.8276233-1.875 1.875v20.25c0 1.047376.8276236 1.875 1.875 1.875h20.25c1.047375 0 1.875-.827625 1.875-1.875v-20.25c0-1.0473765-.827624-1.875-1.875-1.875z" fill="#fafafa"/></svg>