<svg viewBox="0 0 32 32" xmlns="http://www.w3.org/2000/svg"><path d="m10.5 3a.50005.50005 0 0 0 -.5.5c0 1.5545294-.8171874 3.1999999-2.0585938 4.4414062-1.2414063 1.2414064-2.8868768 2.0585938-4.4414062 2.0585938a.50005.50005 0 0 0 -.5.5v11a.50005.50005 0 0 0 .5.5c1.5545294 0 3.1999998.817187 4.4414062 2.058594 1.2414066 1.241406 2.0585938 2.886877 2.0585938 4.441406a.50005.50005 0 0 0 .5.5h11a.50005.50005 0 0 0 .5-.492188c.036422-2.216309.628591-3.819423 1.693359-4.880859 1.064769-1.061436 2.645338-1.626953 4.806641-1.626953a.50005.50005 0 0 0 .5-.5v-11a.50005.50005 0 0 0 -.5-.5c-1.55453 0-3.2-.8171874-4.441406-2.0585938-1.241407-1.2414063-2.058594-2.8868767-2.058594-4.4414062a.50005.50005 0 0 0 -.5-.5zm.439453 1h10.121094c.150989 1.7189979 1.019224 3.376646 2.291015 4.6484375 1.271793 1.2717915 2.92944 2.1400265 4.648438 2.2910155v10.095703c-2.099173.087795-3.817285.694071-5.011719 1.884766-1.197687 1.193938-1.825707 2.931176-1.945312 5.080078h-10.103516c-.150989-1.718998-1.019224-3.376646-2.2910155-4.648438-1.2717915-1.271791-2.9294396-2.140026-4.6484375-2.291015v-10.121094c1.7189979-.150989 3.376646-1.019224 4.6484375-2.2910155s2.1400265-2.9294396 2.2910155-4.6484375z" fill="#3a3a38"/><path d="m10.939453 4c-.150989 1.7189979-1.019224 3.376646-2.2910155 4.6484375s-2.9294396 2.1400265-4.6484375 2.2910155v10.121094c1.7189979.150989 3.376646 1.019224 4.6484375 2.291015 1.2717915 1.271792 2.1400265 2.92944 2.2910155 4.648438h10.103516c.119605-2.148902.747625-3.88614 1.945312-5.080078 1.194434-1.190695 2.912546-1.796971 5.011719-1.884766v-10.095703c-1.718998-.150989-3.376646-1.019224-4.648438-2.2910155-1.271791-1.2717915-2.140026-2.9294396-2.291015-4.6484375z" fill="#fafafa"/></svg>