<svg viewBox="0 0 32 32" xmlns="http://www.w3.org/2000/svg"><path d="m16.039062 3.9980469a.6464188.6464188 0 0 0 -.638671.4394531l-2.867188 8.421875-8.892578.103516a.6464188.6464188 0 0 0 -.3769531 1.164062l7.1269531 5.328125-2.6503906 8.492188a.6464188.6464188 0 0 0 .9863281.716796l7.2714845-5.128906 7.255859 5.144532a.6464188.6464188 0 0 0 .994141-.720704l-2.634766-8.496093 7.132813-5.316407a.6464188.6464188 0 0 0 -.376953-1.164062l-8.896485-.121094-2.847656-8.423828a.6464188.6464188 0 0 0 -.585938-.4394531zm-.029296 2.2246093 2.515625 7.4414058a.50747422.50747422 0 0 0 .472656.34375l7.859375.109376-6.300781 4.691406a.50747422.50747422 0 0 0 -.181641.55664l2.324219 7.50586-6.404297-4.541016a.50747422.50747422 0 0 0 -.585938 0l-6.4238278 4.533203 2.3417968-7.5a.50747422.50747422 0 0 0 -.181641-.55664l-6.2910151-4.705079 7.8496091-.09375a.50747422.50747422 0 0 0 .47461-.345703z" fill="#3a3a38"/><path d="m15.726562 9.8320312-1.216796 4.5644528a.30510553.30510553 0 0 1 -.271485.226563l-4.7050779.373047 3.9648439 2.568359a.30510553.30510553 0 0 1 .130859.326172l-1.101562 4.59375 3.669922-2.978516a.30510553.30510553 0 0 1 .351562-.02344l4.025391 2.464844-1.697266-4.408204a.30510553.30510553 0 0 1 .08594-.341796l3.589843-3.06836-4.71875.251953a.30510553.30510553 0 0 1 -.296875-.1875z" fill="#fafafa" transform="matrix(1.6595114 .11181968 -.11181968 1.6595114 -8.989845 -11.851318)"/></svg>