<svg viewBox="0 0 32 32" xmlns="http://www.w3.org/2000/svg"><path d="m15.992188 3.4785156a.50005.50005 0 0 0 -.345704.1464844l-3.375 3.375h-4.771484a.50005.50005 0 0 0 -.5.5v4.771484l-3.375 3.375a.50005.50005 0 0 0 0 .707032l3.375 3.375v4.771484a.50005.50005 0 0 0 .5.5h4.771484l3.375 3.375a.50005.50005 0 0 0 .707032 0l3.375-3.375h4.771484a.50005.50005 0 0 0 .5-.5v-4.771484l3.375-3.375a.50005.50005 0 0 0 0-.707032l-3.375-3.375v-4.771484a.50005.50005 0 0 0 -.5-.5h-4.771484l-3.375-3.375a.50005.50005 0 0 0 -.361328-.1464844zm.007812 1.2070313 3.314453 3.3144531h4.685547v4.685547l3.314453 3.314453-3.314453 3.314453v4.685547h-4.685547l-3.314453 3.314453-3.314453-3.314453h-4.685547v-4.685547l-3.3144531-3.314453 3.3144531-3.314453v-4.685547h4.685547z" fill="#3a3a38"/><path d="m16 4.6855469-3.314453 3.3144531h-4.685547v4.685547l-3.3144531 3.314453 3.3144531 3.314453v4.685547h4.685547l3.314453 3.314453 3.314453-3.314453h4.685547v-4.685547l3.314453-3.314453-3.314453-3.314453v-4.685547h-4.685547z" fill="#fafafa"/></svg>