<svg viewBox="0 0 32 32" xmlns="http://www.w3.org/2000/svg"><path d="m25.375 3c-1.799087 0-3.038766 1.3400259-3.259766 3.0390625h-15.490234c-1.2305486 0-2.1891829.5650016-2.7792969 1.3613281-.5901139.7963266-.8457031 1.7985787-.8457031 2.7558594v15.21875c0 1.995875 1.6291256 3.625 3.625 3.625 1.7917052 0 3.0567253-1.304643 3.2832031-3l15.4667969.029297c1.216044 0 2.16998-.566214 2.763672-1.361328.593691-.795114.861328-1.797271.861328-2.757813v-15.285156c0-1.9958745-1.629125-3.6250012-3.625-3.625zm0 1c1.455933-.0000008 2.625 1.1690666 2.625 2.625v15.285156c0 .770676-.225853 1.578507-.660156 2.160156-.434304.58165-1.042999.944663-1.964844.929685l-15.8730469.000003c-.2769954-.001302-.5021757.223002-.5019531.5 0 1.504176-.8949459 2.5-2.375 2.5-1.4559333 0-2.625-1.169066-2.625-2.625v-15.21875c0-.7739362.2190312-1.5806959.6484375-2.1601562.4294063-.5794605 1.0352013-.9570313 1.9765625-.9570313h15.900391c.276233.000219.500219-.223767.5-.5 0-1.5090739.877091-2.5390625 2.349609-2.5390625z" fill="#3a3a38"/><path d="m25.375 4c-1.472518 0-2.349609 1.0299886-2.349609 2.5390625.000219.276233-.223767.500219-.5.5h-15.900391c-.9413612 0-1.5471562.3775708-1.9765625.9570313-.4294063.5794604-.6484375 1.38622-.6484375 2.1601562v15.21875c0 1.455934 1.1690667 2.625 2.625 2.625 1.4800541 0 2.375-.995824 2.375-2.5-.0002226-.276998.2249577-.501302.5019531-.5h15.8730469c.921967 0 1.53054-.348035 1.964844-.929685.434303-.581652.660156-1.389483.660156-2.160159v-15.285156c0-1.4559334-1.169067-2.6250008-2.625-2.625z" fill="#fafafa"/></svg>