<svg viewBox="0 0 32 32" xmlns="http://www.w3.org/2000/svg"><path d="m10.082031 3.0019531a.49853938.49853938 0 0 0 -.4960935.5722657s.2052211 1.3478095.2675781 2.9785156c.0623571 1.630706-.0578249 3.5551616-.5488281 4.5371096-.4742384.948421-1.9611555 1.968177-3.3417969 2.666015-1.3806414.697839-2.6210937 1.113282-2.6210937 1.113282a.49853938.49853938 0 0 0 -.0957031.902343s1.2520274.742778 2.6464843 1.771485c1.3944569 1.028706 2.9210704 2.385168 3.4121094 3.367187.4910041.981953.6111852 2.906405.5488281 4.53711-.062357 1.630705-.2675781 2.978515-.2675781 2.978515a.49853938.49853938 0 0 0 .9140625.339844s.813187-1.287343 1.9375-2.568359c.562157-.640508 1.200868-1.276437 1.832031-1.736328.631164-.459892 1.24735-.726562 1.730469-.726563.483119 0 1.099305.266672 1.730469.726563.631163.45989 1.269874 1.095819 1.832031 1.736328 1.124313 1.281016 1.9375 2.568359 1.9375 2.568359a.49853938.49853938 0 0 0 .914062-.339844s-.20522-1.347809-.267578-2.978515c-.062357-1.630706.057825-3.555162.548828-4.53711.491039-.982019 2.017653-2.338481 3.41211-3.367187 1.394457-1.028707 2.646484-1.771485 2.646484-1.771485a.49853938.49853938 0 0 0 -.095703-.902343s-1.240452-.415443-2.621094-1.113282c-1.380641-.697838-2.867557-1.717594-3.341797-2.666015-.491004-.981953-.611185-2.9064046-.548828-4.5371096.062358-1.630705.267579-2.9785156.267578-2.9785156a.49853938.49853938 0 0 0 -.914062-.3398438s-.813187 1.2873433-1.9375 2.5683594c-.562157.640508-1.200868 1.276437-1.832031 1.7363281-.631164.4598911-1.24735.7265618-1.730469.7265625s-1.099305-.2666719-1.730469-.7265625c-.631163-.4598906-1.269874-1.0958197-1.832031-1.7363281-1.124313-1.2810169-1.9375-2.5683594-1.9375-2.5683594a.49853938.49853938 0 0 0 -.417969-.2324219zm.640625 2.1679688c.35599.4961887.402837.6423203.96875 1.2871093.592604.6751995 1.271366 1.3561701 1.994141 1.8828126.722775.5266423 1.497505.9160167 2.314453.9160156.816948-.0000012 1.591679-.3893731 2.314453-.9160156.722775-.5266428 1.401537-1.2076135 1.994141-1.8828126.565913-.6447885.61276-.7909211.96875-1.2871093-.054601.5335288-.092925.6070921-.121094 1.34375-.064734 1.6928646-.020223 3.6744751.652344 5.0195311.68913 1.378181 2.328497 2.373135 3.78125 3.107422.992043.501423 1.396153.617952 1.880859.796875-.459386.284464-.921883.547323-1.951172 1.306641-1.439104 1.061643-3.038405 2.37767-3.710937 3.722656-.672568 1.345053-.717078 3.326665-.652344 5.019531.028169.736658.066493.810221.121094 1.34375-.35599-.496189-.402837-.64232-.96875-1.287109-.592604-.6752-1.271366-1.35617-1.994141-1.882813-.722775-.526642-1.497505-.916016-2.314453-.916015s-1.591679.389373-2.314453.916015c-.722775.526643-1.401537 1.207614-1.994141 1.882813-.565913.644788-.61276.790921-.96875 1.287109.054601-.533529.092925-.607092.121094-1.34375.064734-1.692864.020222-3.674475-.652344-5.019531-.6725323-1.344986-2.2718334-2.661013-3.7109372-3.722656-1.0292887-.759318-1.4917856-1.022177-1.9511719-1.306641.4847063-.178923.8888162-.295452 1.8808593-.796875 1.4527527-.734287 3.0921197-1.729241 3.7812498-3.107422.672567-1.345053.717078-3.3266655.652344-5.0195311-.028169-.7366583-.066493-.8102206-.121094-1.34375z" fill="#3a3a38"/><path d="m10.722656 5.1699219c.0546.5335294.09292.6070917.121094 1.34375.06473 1.6928656.02022 3.6744781-.652344 5.0195311-.6891304 1.378181-2.3284971 2.373135-3.7812498 3.107422-.9920431.501423-1.396153.617952-1.8808593.796875.4593863.284464.9218833.547323 1.9511719 1.306641 1.4391038 1.061643 3.0384047 2.37767 3.7109372 3.722656.672566 1.345056.717078 3.326667.652344 5.019531-.02817.736658-.06649.810221-.121094 1.34375.35599-.496188.402837-.642321.96875-1.287109.592604-.675199 1.271366-1.35617 1.994141-1.882813.722774-.526642 1.497505-.916014 2.314453-.916015s1.591678.389373 2.314453.916015c.722775.526643 1.401537 1.207613 1.994141 1.882813.565913.644789.61276.79092.96875 1.287109-.0546-.533529-.09293-.607092-.121094-1.34375-.06473-1.692866-.02022-3.674478.652344-5.019531.672532-1.344986 2.271833-2.661013 3.710937-3.722656 1.029289-.759318 1.491786-1.022177 1.951172-1.306641-.484706-.178923-.888816-.295452-1.880859-.796875-1.452753-.734287-3.09212-1.729241-3.78125-3.107422-.672567-1.345056-.717078-3.3266665-.652344-5.0195311.02817-.7366579.06649-.8102212.121094-1.34375-.35599.4961882-.402837.6423207-.96875 1.2871093-.592604.675199-1.271366 1.3561699-1.994141 1.8828126-.722774.5266426-1.497505.9160144-2.314453.9160156-.816948.0000011-1.591678-.3893733-2.314453-.9160156-.722775-.5266424-1.401537-1.2076131-1.994141-1.8828126-.565913-.644789-.61276-.7909206-.96875-1.2871093z" fill="#fafafa"/></svg>