<svg viewBox="0 0 32 32" xmlns="http://www.w3.org/2000/svg"><path d="m15.341797 2.9902344a.63056253.63056253 0 0 0 -.585938.546875l-.470703 3.5703125-1.353515-3.3144531a.63056253.63056253 0 0 0 -1.208985.3203124l.470703 3.5722657-2.191406-2.8847657a.63056253.63056253 0 0 0 -1.0839842.6230469l1.3886722 3.3339844-2.8593754-2.1933594a.63056253.63056253 0 0 0 -.8828125.8828125l2.1933594 2.8593754-3.3339844-1.3886722a.63056253.63056253 0 0 0 -.6230469 1.0839842l2.8847657 2.191406-3.5722657-.470703a.63056253.63056253 0 0 0 -.3203124 1.208985l3.3164062 1.353515-3.5722656.470703a.63056253.63056253 0 0 0 0 1.25l2.9746094.392579a.63056253.63056253 0 0 0 .6230468-.302735c.167797-.281704.353584-.539731.5585938-.773437a.63056253.63056253 0 0 0 .0351562-.785157l.2246094.091797a.63056253.63056253 0 0 0 .5996094-.068359c.4461694-.312486.9177056-.561622 1.421875-.71875a.63056253.63056253 0 0 0 .0058594-.001953c.6338112-.20396 1.3106632-.304688 2.0175782-.304688.745182 0 1.443883.112332 2.080078.34375a.63056253.63056253 0 0 0 .005859.003906c.634019.221805 1.196627.548008 1.658204.97461a.63056253.63056253 0 0 0 .003906.003906c.263038.239681.48936.531679.701172.861328a.63056253.63056253 0 0 0 .53125.289063h2.8125 2.548828a.63056253.63056253 0 0 0 .505859-.25586l.427735-.576171a.63056253.63056253 0 0 0 .005859-.740235l.617187-.251953a.63056253.63056253 0 0 0 .271485-.212891l.03125-.042968a.63056253.63056253 0 0 0 .076172-.142579c.000329-.003729-.069691.056681-.011719.007813.310715-.261918-.332761.349079-.054688.052734.278074-.296344-.290471.385326-.048828.058594l-.730468-.535156.720703-.095703a.58526187.58526187 0 0 0 .164062.228515.63056253.63056253 0 0 0 -1.082031-.378906c.061427-.070808.149726-.173191.089844-.109375-.09268.098769.261762-.237687.158203-.15039-.103559.087294.288808-.203539.175781-.128907s.308454-.170326.1875-.109375c-.120954.060952.328405-.13433.201172-.08789s.340762-.093796.208984-.0625.349371-.052835.214844-.03711c-.134527.015726.35224-.013612.216797-.013672v1.216797.044922h.302734a.63056253.63056253 0 0 0 .238281-.046875l1.740235-.710937a.63056253.63056253 0 0 0 -.320313-1.208985l-3.570312.470703 2.884766-2.191406a.63056253.63056253 0 0 0 -.623047-1.0839842l-3.332032 1.3886722 2.191407-2.8574222a.63056253.63056253 0 0 0 -.882813-.8847657l-2.859375 2.1933594 1.388672-3.3339844a.63056253.63056253 0 0 0 -1.083984-.6230469l-2.191407 2.8847657.470703-3.5722657a.63056253.63056253 0 0 0 -1.208984-.3203124l-1.353516 3.3144531-.470703-3.5703125a.63056253.63056253 0 0 0 -.664062-.546875zm.039062 5.1054687.201172 1.5253907a.58526187.58526187 0 0 0 1.121094.1445312l.539063-1.3203125-.189454 1.4375a.58526187.58526187 0 0 0 1.046875.4296875l.863282-1.1347656-.539063 1.2910156a.58526187.58526187 0 0 0 .896484.689453l1.210938-.927734-.929688 1.210937a.58526187.58526187 0 0 0 .689454.896485l1.294922-.539063-1.136719.863281a.58526187.58526187 0 0 0 .429687 1.046875l1.4375-.189453-1.320312.539063a.58526187.58526187 0 0 0 -.330078.736328h-.875-2.542969c-.204585-.287606-.405735-.578338-.681641-.830078-.593854-.548856-1.301862-.957517-2.074218-1.228516-.784823-.285481-1.625419-.417969-2.494141-.417969-.613022 0-1.197099.136712-1.779297.271485l-1.0410156-.791016 1.2910156.539063a.58526187.58526187 0 0 0 .689453-.896485l-.931641-1.214844 1.214844.931641a.58526187.58526187 0 0 0 .896485-.689453l-.539063-1.2910156.863281 1.1347656a.58526187.58526187 0 0 0 1.046875-.4296875l-.189453-1.4375.539063 1.3203125a.58526187.58526187 0 0 0 1.121094-.1445312zm-6.4980465 8.1230469a.63056253.63056253 0 0 0 -.5097656.265625c-.000673.000955-.1105636.098742-.234375.292969.0862139-.057566.1145075-.07766.203125-.136719-.0023087.004123-.0035548.009534-.0058594.013672-.0218382.01465-.0025721.002273-.0253906.017578a.58526187.58526187 0 0 1 -.0019531.001953c-.1643387.108878-.0653179.042225-.1816407.119141-.0161865.026178-.0283964.034081-.0449219.064453a.63056253.63056253 0 0 0 -.0019531.001953l-.0019531-.001953c-.0092297.016731-.004188.017985-.0117188.033203a.63056253.63056253 0 0 0 -.0371093.103516c-.0172399.053101-.0508761.127154-.0585938.158203-.0143589.057768-.027597.086951-.0058593.039062a.63056253.63056253 0 0 0 .4394531.875.63056253.63056253 0 0 0 .0195312.00586c.0074097.001975.0122885.001568.0214844.003906 0 0 .0019531-.001953.0019531-.001953a.63056253.63056253 0 0 0 .0097656.001953l.0351563.003906c-.0073371-.001079-.0268857-.003797-.0449219-.007812.0078411-.020208.0573314-.144869.1132813-.289063a.63056253.63056253 0 0 0 .0527343.003906c-.0251495.152043-.0453821.27381-.0507812.306641a.63056253.63056253 0 0 0 .4414062-.150391c-.0007613-.000989-.0016282-.003485-.0019531-.003906a.58526187.58526187 0 0 0 .0839844-.152344c.0084424.005627.0207484.014202.0351563.023438a.63056253.63056253 0 0 0 .0703124-.138672c.0115827-.033384.0368639-.071432.0507813-.105469-.0087126-.000974-.0403579-.004039-.0566406-.005859-.0008923-.030615-.0009237-.044915-.0019531-.080078.0300717-.00131.0978468-.005698.1015624-.00586.0024811-.005435.007014-.010209.0097657-.015625-.0000009-.000012.0001323.012775 0 .015625h.0019531v-.023437c.0445919-.09534.0800824-.187617.1386719-.289063a.63056253.63056253 0 0 0 -.4628907-.9375c-.0937322.063878-.1555195.107072-.5371093.363282l-.0078125-.003907c.2369501-.15782.3880344-.258177.5410156-.359375a.63056253.63056253 0 0 0 -.0859375-.005859zm-.4414063.707031c.0014234.00767.0289338.160625.0585938.320313l-.1171875-.109375c-.0386851-.049953-.1015379-.128926-.1015625-.128907-.0000945.000074.0528761-.035244.0527344-.035156-.000074.000046.0093229-.005339.0136718-.007812.039593-.016852.0525209-.021431.09375-.039063zm-.0410156.00586c-.0047321.002257-.006371.00328-.0117187.005859-.0160432.007736-.0285803.01382-.0351563.017578-.0083104.00475-.0083159.004546-.0136718.007813-.0600077.02629-.0729867.031069-.0996094.042968l-.0097656-.007812c.0072689-.005095.023468-.015642.0234374-.015625-.0000613.000033.0980595-.033663.1464844-.050781zm.5429688.021484c.0530836.026405.1055138.052769.1054687.052734-.0000911-.000069.1836404.222752.1835938.222657-.0000451-.000093.0566373.208322.0605469.222656-.0013419.000106-.0770557.0072-.109375.009766-.0004638-.015817-.0019507-.044909-.0019532-.044922 0 0-.2303818.042079-.4140625.076172l-.0644531-.058594c.0515713-.102415.2272587-.454701.2402344-.480469zm-.6347656.029297c-.0192076.013827-.0507286.039019-.0507813.039062l-.015625-.013672c.0224799-.009491.0401953-.014262.0664063-.02539zm-2.4609376.05664a.63056253.63056253 0 0 0 -.2382812.046876l-1.8164062.74414a.63056253.63056253 0 0 0 .3203124 1.208984l1.6953126-.222656a.63056253.63056253 0 0 0 .5410156-.523437c.0207685-.126818.0646252-.279309.1113281-.480469a.63056253.63056253 0 0 0 -.6132813-.773438zm2.1679688.214844a.63056253.63056253 0 0 0 .0234375.101563l-.0585937-.019531c.0039088-.009464.0189812-.042812.0351562-.082032zm-.0371094.136719.0859375.027344a.63056253.63056253 0 0 0 .1171875.173828c-.0775652.024477-.1686006.053758-.1777344.056641-.0055006-.055003-.0200839-.205065-.0253906-.257813zm.515625.037109c.0115886.004241.0360258.013085.0429688.015625.0016745.009016.0047405.029133.0058594.035157-.0019531.000616-.0112184.003132-.0136719.003906-.0058584-.009136-.0241436-.037506-.0351563-.054688zm.6894532.101563c-.0000006-.000037-.002875.02049-.0039063.029297-.0720268-.008052-.1224145-.01222-.2402344-.025391.1162547-.001507.2441411-.003867.2441407-.003906zm1.7675782.013672a.63056253.63056253 0 0 0 -.529297.324219c-.016548.0635-.007354.033553-.085937.308593a.58526187.58526187 0 0 0 -.001954.013672h-.001953c-.3576866 1.151123-.066524.161439.072266-.291015a.63056253.63056253 0 0 0 -.007813.017578c.015031-.03342-.0406.035026-.09375.208984l.003907.001953a.63056253.63056253 0 0 0 -.009766.025391c-.059848.168954-.150736.348146-.265625.515625a.63056253.63056253 0 0 0 -.1015625.257812l-.9238281 1.203125a.63056253.63056253 0 0 0 -.4003906-.816406c-.1754779.000881-.0470473.000758-.4257813.001953a.58526187.58526187 0 0 0 -.0039063 0c-1.9075769-.006018-.9528654-.007812.0019532-.007812.1831509 0 .2491667-.00015.4121094 0a.63056253.63056253 0 0 0 -.1054688-.021485c-.1730416-.018797-.2442198-.014856-.2011719-.007812v.001953a.63056253.63056253 0 0 0 -.0039062 0l-.9804688-.166016a.63056253.63056253 0 0 0 -.4863281.119141l-2.0117188 1.527344a.63056253.63056253 0 0 0 .6230469 1.083984l3.234375-1.349609a.63056253.63056253 0 0 0 .1210938-.066407l-2.2148438 2.886719a.63056253.63056253 0 0 0 .8828125.882813l3.9062504-2.996094a.63056253.63056253 0 0 0 .248046-.5v-2.527344a.63056253.63056253 0 0 0 -.65039-.630859zm-1.6621095.029297c-.00058.01264-.0018449.03078-.0019531.033203.0027429-.011772.0078105-.033186.0078125-.033203 0 0-.0057536.000011-.0058594 0zm-.1582031.08789c.0002387.000088.0078125.003906.0078125.003906l-.0332031.076172s-.0026571.006025-.0058594.011719l.0078125-.025391a.58526187.58526187 0 0 0 .0078125-.03125c.0071471-.017328.0084789-.017827.015625-.035156zm.1347656.039063c.0000835-.000257-.0192027.051114-.0292969.074219.0000576-.000122.0253542-.056541.0253907-.056641.0000043-.000012.0030311-.013829.0039062-.017578zm-.234375.142578c-.016768.02015-.0332169.04103-.0332031.041015.0000048-.000004-.0067283.005018-.0078125.00586.0111-.012232.0206003-.024364.0410156-.046875zm-.4746094.283203c-.0000072.000046-.0000004.003906 0 .003906.0000769.000013.0780199.007809.078125.007813.000161.000006.0197787.000413.0351563 0-.0158528-.001043-.0958667-.007837-.0957031-.007813.0000115.000002-.0136795-.00287-.0175782-.003906zm2.9550784.341797.003906.001953c.31913-1.222575-.398373 1.288662-.023437.082031a.63056253.63056253 0 0 0 .019531-.083984zm-1.126953 1.861328v.083984l-.154297.119141z" fill="#3a3a38"/><path d="m11.5 14.897916q.880717 0 1.634102.265276.753385.265276 1.305159.763995.551775.49872.859495 1.220271.318331.721551.318331 1.644713 0 .774606-.233443 1.443102-.222832.657885-.615441 1.262715-.381998.60483-.891328 1.188437-.50933.572997-1.071716 1.156605l-3.575923 3.724478q.403219-.116721.80644-.180388.413831-.06367.785217-.06367h4.424808q.286498 0 .456275.169777.169776.159165.169776.435053v1.07172h-9.114891v-.60483q0-.180388.07428-.381998.07428-.212221.254666-.381997l4.318697-4.456641q.551774-.562386.986827-1.082327.445665-.519942.753385-1.039883.30772-.530553.477497-1.071716.169777-.541163.169777-1.145993 0-.60483-.190999-1.061105-.180388-.456275-.498719-.753385-.318332-.30772-.753385-.456275-.435053-.148554-.944383-.148554-.49872 0-.923162.159165-.424442.148555-.753384.424442-.328942.265277-.562386.647274-.233443.371387-.339553.817051-.08489.360776-.29711.477497-.201609.106111-.572996.05306l-.923162-.148554q.127333-.965605.509331-1.697768.392609-.742773.976216-1.241493.583608-.498719 1.336993-.753384.763992-.254668 1.644709-.254668z" fill="#1e8bcd"/><path d="m25.737643 23.942966h2.022813v1.011407q0 .159696-.106463.276806-.09582.106464-.287453.106464h-1.628897v3.662357h-1.565019v-3.662357h-6.015209q-.212928 0-.351331-.106464-.138403-.11711-.180989-.298099l-.180988-.894296 6.622053-9.038784h1.671483zm-1.565019-5.706464q0-.511027.06388-1.117871l-4.886692 6.824335h4.822814z" fill="#1e8bcd"/><path d="m15.380859 8.0957031-.201171 1.5253907c-.0802.5928372-.893158.6976432-1.121094.1445312l-.539063-1.3203125.189453 1.4375c.078459.5956735-.684225.9087155-1.046875.4296875l-.863281-1.1347656.539063 1.2910156c.230542.553296-.420913 1.054306-.896485.689453l-1.214844-.931641.931641 1.214844c.364853.475572-.136157 1.127027-.689453.896485l-1.2910156-.539063 1.0410156.791016c.582198-.134773 1.166275-.271485 1.779297-.271485.868722 0 1.709319.132488 2.494141.417969.772356.270999 1.480364.67966 2.074218 1.228516.275906.25174.477056.542472.681641.830078h2.542969.875c-.103801-.294187.04139-.618083.330078-.736328l1.320312-.539063-1.4375.189453c-.595673.07846-.908714-.684225-.429687-1.046875l1.136719-.863281-1.294922.539063c-.553297.230544-1.054308-.420912-.689454-.896485l.929688-1.210937-1.210938.927734c-.475572.36485-1.127024-.136158-.896484-.689453l.539063-1.2910156-.863282 1.1347656c-.36265.479028-1.125334.165986-1.046875-.4296875l.189454-1.4375-.539063 1.3203125c-.227936.553112-1.040893.448306-1.121094-.1445312zm8.769532 5.1816409-.720703.0957.730468.535156c-.241643.326732.326902-.354938.04883-.05859-.278073.296345.365403-.314652.05469-.05273-.310715.261918.399668-.268845.06055-.04492-.339122.223923.429313-.221939.06641-.03906-.362907.182876.452059-.168635.07031-.0293-.381747.139337.467648-.115384.07227-.02149-.395383.0939.479804-.06085.07617-.01367-.403632.04718.482552-.0037.07617-.0039-.236133-.0032-.447197-.148037-.535165-.367196zm-15.9726562 6.029303c-.9548186 0-1.9095302.0018-.00195.0078.0013-.000004.00261-.000004.00391 0 1.9075772-.006.9528655-.0078-.00195-.0078zm2.2070312 1.021484-.154297.203125.154297-.119141z" fill="#fafafa"/></svg>