<svg viewBox="0 0 32 32" xmlns="http://www.w3.org/2000/svg"><path d="m19.126953 3.0058594a.49506924.49506924 0 0 0 -.425781.296875l-2.185547 5.0566406-1.382813-3.8710938a.49506924.49506924 0 0 0 -.941406.0253907l-1.291015 4.3261719-2.916016-3.5253907a.49506924.49506924 0 0 0 -.8125.5585938l2.830078 5.0605471-4.751953-3.2050784a.49506924.49506924 0 0 0 -.6542969.7304688l3.7578129 4.4394536-4.5273441-1.701172a.49506924.49506924 0 0 0 -.4765625.855468l3.0078125 2.314454-4.9238281 1.55664a.49506924.49506924 0 0 0 .078125.962891l5.0351562.726562-5.25 2.357422a.49506924.49506924 0 0 0 .2773438.941406l6.5839842-.990234-2.4023436 4.787109a.49506924.49506924 0 0 0 .7617187.601563l3.0156249-2.521485-2.2929686 3.761719a.49506924.49506924 0 0 0 .7382812.638672l4.0703124-3.390625-.925781 3.398438a.49506924.49506924 0 0 0 .929687.332031l2.101563-4.703125 1.455078 5.794922a.49506924.49506924 0 0 0 .964844-.017578l1.353515-6.371094 2.851563 3.289062a.49506924.49506924 0 0 0 .847656-.466796l-.941406-3.144532 4.246094 2.476563a.49506924.49506924 0 0 0 .541015-.828125l-4.609375-3.347656 5.546875 1.029296a.49506924.49506924 0 0 0 .394532-.876953l-4.322266-3.373047 3.65625-.804687a.49506924.49506924 0 0 0 -.13086-.978516l-3.980468.205078 4.388672-3.341797a.49506924.49506924 0 0 0 -.47461-.857421l-4.527344 1.693359 2.908204-3.2890625a.49506924.49506924 0 0 0 -.462891-.8144531l-5.183594.96875 2.779297-2.8847656a.49519425.49519425 0 0 0 -.6875-.7128907l-4.220703 3.765625 1.097656-6.3554687a.49506924.49506924 0 0 0 -.517578-.578125zm-4.417969 3.2578125 1.291016 3.6152343a.50152018.50152018 0 0 0 .933594.03125l1.009765-2.3378906-.621093 3.5957034a.50152018.50152018 0 0 0 .828125.460937l.779297-.695312a.50152018.50152018 0 0 0 .40625.101562l5.27539-.986328-3.257812 3.683594a.50152018.50152018 0 0 0 .550781.800781l3.203125-1.197265-2.960938 2.253906a.50152018.50152018 0 0 0 .330078.898437l.447266-.023437a.50152018.50152018 0 0 0 .115234.662109l3.53711 2.759766-5.683594-1.054688a.50152018.50152018 0 0 0 -.386719.898438l1.017579.738281a.50152018.50152018 0 0 0 -.154297.525391l.632812 2.111328-1.972656-2.275391a.50152018.50152018 0 0 0 -.869141.22461l-1.111328 5.224609-1.27539-5.083985a.50152018.50152018 0 0 0 -.94336-.082031l-.46289 1.035157a.50152018.50152018 0 0 0 -.746094-.121094l-2.958985 2.464844 2.28125-3.744141a.50152018.50152018 0 0 0 -.75-.646485l-3.4628902 2.896485 1.7480472-3.484375a.50152018.50152018 0 0 0 -.521485-.720703l-3.9179685.589843 3.4707035-1.558593a.50152018.50152018 0 0 0 -.132813-.953125l-4.5527342-.658203 3.7382812-1.181641a.50152018.50152018 0 0 0 .15625-.875l-1.0996094-.845703 3.1640624 1.189453a.50152018.50152018 0 0 0 .558594-.792969l-2.6445314-3.125 3.4707034 2.339844a.50152018.50152018 0 0 0 .71875-.660156l-1.144531-2.050781a.50152018.50152018 0 0 0 .847656-.199219z" fill="#3a3a38"/><path d="m14.708984 6.2636719-1.11914 3.7480471a.50152018.50152018 0 0 1 -.853516.191406l1.150391 2.058594a.50152018.50152018 0 0 1 -.71875.660156l-3.4707034-2.339844 2.6445314 3.125a.50152018.50152018 0 0 1 -.558594.792969l-3.1640624-1.189453 1.0996094.845703a.50152018.50152018 0 0 1 -.15625.875l-3.7382812 1.181641 4.5527342.658203a.50152018.50152018 0 0 1 .132813.953125l-3.4707035 1.558593 3.9179685-.589843a.50152018.50152018 0 0 1 .521485.720703l-1.7480472 3.484375 3.4628902-2.896485a.50152018.50152018 0 0 1 .75.646485l-2.28125 3.744141 2.958985-2.464844a.50152018.50152018 0 0 1 .746094.121094l.46289-1.035157a.50152018.50152018 0 0 1 .94336.08203l1.27539 5.083985 1.111328-5.224609a.50152018.50152018 0 0 1 .869141-.22461l1.972656 2.275391-.632812-2.111328a.50152018.50152018 0 0 1 .154297-.525391l-1.017579-.738281a.50152018.50152018 0 0 1 .386719-.898438l5.683594 1.054688-3.53711-2.759766a.50152018.50152018 0 0 1 -.115234-.662109l-.447266.02344a.50152018.50152018 0 0 1 -.330078-.898437l2.960938-2.253906-3.203125 1.197265a.50152018.50152018 0 0 1 -.550781-.800781l3.257812-3.683594-5.27539.986328a.50152018.50152018 0 0 1 -.40625-.101562l-.779297.695312a.50152018.50152018 0 0 1 -.828125-.460939l.621093-3.5957034-1.009765 2.3378906a.50152018.50152018 0 0 1 -.933594-.03125z" fill="#fafafa"/></svg>