<svg viewBox="0 0 32 32" xmlns="http://www.w3.org/2000/svg"><path d="m3.4921875 3a.50027559.50027559 0 0 0 -.0957031.0117188.50027559.50027559 0 0 0 -.0449219.0097656.50027559.50027559 0 0 0 -.0039063.0019531.50027559.50027559 0 0 0 -.0429687.015625.50027559.50027559 0 0 0 -.0039063.0019531.50027559.50027559 0 0 0 -.1230468.0761719.50027559.50027559 0 0 0 -.0039063.0039063.50027559.50027559 0 0 0 -.0976562.1132812.50027559.50027559 0 0 0 -.0761719.3046875v24.9179685a.50027559.50027559 0 0 0 .0097656.144531.50027559.50027559 0 0 0 0 .003907.50027559.50027559 0 0 0 .0273438.08789.50027559.50027559 0 0 0 .0019531.003907.50027559.50027559 0 0 0 .0019531.003906.50027559.50027559 0 0 0 .0195313.041016.50027559.50027559 0 0 0 .0019531.003906.50027559.50027559 0 0 0 .0253906.039062.50027559.50027559 0 0 0 .0019532.003906.50027559.50027559 0 0 0 .0273437.035157.50027559.50027559 0 0 0 .0019531.003906.50027559.50027559 0 0 0 .0332032.033203.50027559.50027559 0 0 0 .0019531.001953.50027559.50027559 0 0 0 .0351562.03125.50027559.50027559 0 0 0 .0019531.001953.50027559.50027559 0 0 0 .0390626.027344.50027559.50027559 0 0 0 .0390624.021484.50027559.50027559 0 0 0 .0039063.001954.50027559.50027559 0 0 0 .0039063.001953.50027559.50027559 0 0 0 .0410156.019531.50027559.50027559 0 0 0 .0195312.005859.50027559.50027559 0 0 0 .0273438.009766.50027559.50027559 0 0 0 .0039062 0 .50027559.50027559 0 0 0 .0449219.011719.50027559.50027559 0 0 0 .0039063 0 .50027559.50027559 0 0 0 .046875.005859.50027559.50027559 0 0 0 .0039062 0 .50027559.50027559 0 0 0 .0449219 0h24.9863281a.50027559.50027559 0 0 0 .007812 0 .50027559.50027559 0 0 0 .007813 0 .50027559.50027559 0 0 0 .041016-.003906.50027559.50027559 0 0 0 .095703-.019531.50027559.50027559 0 0 0 .001953 0 .50027559.50027559 0 0 0 .041015-.015625.50027559.50027559 0 0 0 .00586-.001953.50027559.50027559 0 0 0 .039062-.019532.50027559.50027559 0 0 0 .00586-.003906.50027559.50027559 0 0 0 .037109-.021484.50027559.50027559 0 0 0 .001953-.001954.50027559.50027559 0 0 0 .003906-.001953.50027559.50027559 0 0 0 .033204-.027343.50027559.50027559 0 0 0 .005859-.003907.50027559.50027559 0 0 0 .03125-.029297.50027559.50027559 0 0 0 .003906-.005859.50027559.50027559 0 0 0 .029297-.03125.50027559.50027559 0 0 0 .003906-.005859.50027559.50027559 0 0 0 .025391-.035156.50027559.50027559 0 0 0 .001953-.001954.50027559.50027559 0 0 0 .001953-.003906.50027559.50027559 0 0 0 .021485-.037109.50027559.50027559 0 0 0 .001953-.00586.50027559.50027559 0 0 0 .005859-.011718.50027559.50027559 0 0 0 .011719-.029297.50027559.50027559 0 0 0 .015625-.046875.50027559.50027559 0 0 0 .001953-.00586.50027559.50027559 0 0 0 .017578-.130859v-25a.50027559.50027559 0 0 0 0-.0019531.50027559.50027559 0 0 0 0-.0039063.50027559.50027559 0 0 0 0-.0058594.50027559.50027559 0 0 0 -.011719-.0917968.50027559.50027559 0 0 0 -.009765-.0429688.50027559.50027559 0 0 0 -.001953-.0058594.50027559.50027559 0 0 0 -.001954-.0019531.50027559.50027559 0 0 0 -.394531-.3398437.50027559.50027559 0 0 0 -.042969-.0058594.50027559.50027559 0 0 0 -.039062 0h-25a.50027559.50027559 0 0 0 -.0078125 0zm1.2167969.9980469h22.5820316l-6 6.0039061h-10.582032zm23.2949216.7109375v22.5820316l-6.003906-6v-10.582032zm-24.0058591.0019531 6.0039061 6.0000005v10.580078.001953l-3.001953 3-3.0019531 3zm7.0039061 6.2910155h9.998047v9.998047h-9.998047zm-.292969 10.998047h.001954 10.580078l6 6.003906h-22.5820316z" fill="#3a3a38"/><path d="m4.7089844 3.9980469 5.9999996 6.0039061h10.582032l6-6.0039061zm23.2949216.7109375-6.003906 6.0019536v10.582031l6.003906 6zm-24.003906.0019531v22.5839845l6.003906-6.001953v-10.582031zm7 6.2890625v10h10v-10zm-.291016 11-5.9999996 6.003906h22.5820316l-6-6.003906z" fill="#fafafa" stroke-width="1.000449"/></svg>