<svg viewBox="0 0 32 32" xmlns="http://www.w3.org/2000/svg"><path d="m15.964844 3a.50005.50005 0 0 0 -.417969.2890625l-1.886719 4.03125-.572265 1.2246094-.001953.0039062a8.0019531 8.0019531 0 0 1 1.279296-.3710937l.001954-.0039063a8.0019531 8.0019531 0 0 1 1.634765-.1777343 8.0019531 8.0019531 0 0 1 .794922.0429687 8.0019531 8.0019531 0 0 1 .003906 0 8.0019531 8.0019531 0 0 1 .78711.1210937 8.0019531 8.0019531 0 0 1 .003906 0 8.0019531 8.0019531 0 0 1 .039062.0097657v.0019531a8.0019531 8.0019531 0 0 1 .28711.0761719 8.0019531 8.0019531 0 0 1 .59375.1679687 8.0019531 8.0019531 0 0 1 .408203.1445313l-.003906-.0058594-.560547-1.2011719-1.902344-4.0644531a.50005.50005 0 0 0 -.4375-.2890625.50005.50005 0 0 0 -.050781 0zm.035156 1.6855469 1.121094 2.3964843a9 9 0 0 0 -1.121094-.0820312 9 9 0 0 0 -1.123047.0839844zm8.849609 1.9746093a.50005.50005 0 0 0 -.050781.0019532.50005.50005 0 0 0 -.130859.0292968l-4.185547 1.5175782-1.275391.4628906-.005859.0019531a8.0019531 8.0019531 0 0 1 1.171875.6386719 8.0019531 8.0019531 0 0 1 .1875.1191406 8.0019531 8.0019531 0 0 1 .240234.1835938 8.0019531 8.0019531 0 0 1 .410157.3203125 8.0019531 8.0019531 0 0 1 .138671.1289061 8.0019531 8.0019531 0 0 1 .4375.419922 8.0019531 8.0019531 0 0 1 .128907.144531 8.0019531 8.0019531 0 0 1 .40039.46875 8.0019531 8.0019531 0 0 1 .009766.011719 8.0019531 8.0019531 0 0 1 .048828.072266 8.0019531 8.0019531 0 0 1 .373047.535156 8.0019531 8.0019531 0 0 1 .197265.339844 8.0019531 8.0019531 0 0 1 .175782.318359 8.0019531 8.0019531 0 0 1 .203125.431641l.001953-.007813.423828-1.166016 1.558594-4.3007808a.50005.50005 0 0 0 -.458985-.671875zm-17.7148434.0019532a.50005.50005 0 0 0 -.4433594.6699218l1.5175782 4.1855468.4628906 1.277344a8.0019531 8.0019531 0 0 1 .3574219-.712891 8.0019531 8.0019531 0 0 1 .0019531-.001953 8.0019531 8.0019531 0 0 1 .0253906-.042969 8.0019531 8.0019531 0 0 1 .3984375-.632812 8.0019531 8.0019531 0 0 1 .0039063-.005859 8.0019531 8.0019531 0 0 1 .4882812-.625 8.0019531 8.0019531 0 0 1 .5527344-.578126 8.0019531 8.0019531 0 0 1 1.246094-.960937 8.0019531 8.0019531 0 0 1 .121094-.0703125 8.0019531 8.0019531 0 0 1 .554687-.3085937 8.0019531 8.0019531 0 0 1 .382813-.1796876l-.003907-.0019531-1.287109-.4667969-4.1816408-1.515625a.50005.50005 0 0 0 -.1972656-.0292968zm.8613282 1.3339844 2.5019532.90625a9 9 0 0 0 -1.5976564 1.5917972zm16.0078122 0-.90625 2.5019532a9 9 0 0 0 -1.591797-1.5957032zm-8.003906 2.0039062a6 6 0 0 0 -6 6 6 6 0 0 0 6 6 6 6 0 0 0 6-6 6 6 0 0 0 -6-6zm0 1a5 5 0 0 1 5 5 5 5 0 0 1 -5 5 5 5 0 0 1 -5-5 5 5 0 0 1 5-5zm-7.4453125 2.082031-5.265625 2.464844a.50005.50005 0 0 0 0 .90625l4.03125 1.886719 1.2226563.572265a8.0019531 8.0019531 0 0 1 -.3691407-1.279297l-.0019531-.001953a8.0019531 8.0019531 0 0 1 -.1757812-1.628906 8.0019531 8.0019531 0 0 1 .5585937-2.919922zm14.8945315.001953a8.0019531 8.0019531 0 0 1 .371093 1.28125l.007813.003907a8.0019531 8.0019531 0 0 1 .175781 1.628906 8.0019531 8.0019531 0 0 1 -.164062 1.59375 8.0019531 8.0019531 0 0 1 -.009766.039062 8.0019531 8.0019531 0 0 1 -.0625.240235 8.0019531 8.0019531 0 0 1 -.185547.654297 8.0019531 8.0019531 0 0 1 -.046875.134765 8.0019531 8.0019531 0 0 1 -.09375.259766l.003906-.001953 1.242188-.582031 4.023438-1.882813a.50005.50005 0 0 0 0-.90625l-4.03125-1.886719-1.222657-.572265zm-16.3652346 1.794922a9 9 0 0 0 -.0839844 1.121094 9 9 0 0 0 .0839844 1.123047l-2.3984375-1.123047zm17.8320316 0 2.398437 1.121094-2.398437 1.123047a9 9 0 0 0 .083984-1.123047 9 9 0 0 0 -.083984-1.121094zm-16.2421879 4.322266-.4667969 1.285156-1.515625 4.181641a.50005.50005 0 0 0 .640625.640625l4.6113278-1.671875.847657-.308594a8.0019531 8.0019531 0 0 1 -.712891-.357422 8.0019531 8.0019531 0 0 1 -.001953 0 8.0019531 8.0019531 0 0 1 -3.232422-3.408203 8.0019531 8.0019531 0 0 1 -.1699219-.361328zm14.6542969.003906a8.0019531 8.0019531 0 0 1 -.054687.109375 8.0019531 8.0019531 0 0 1 -.386719.738281 8.0019531 8.0019531 0 0 1 -.34375.542969 8.0019531 8.0019531 0 0 1 -2.289063 2.171875 8.0019531 8.0019531 0 0 1 -.109375.0625 8.0019531 8.0019531 0 0 1 -.58789.328125 8.0019531 8.0019531 0 0 1 -.357422.167969l5.46875 1.982422a.50005.50005 0 0 0 .640625-.640625l-1.517578-4.185547zm-14.4257812 2.296875a9 9 0 0 0 1.5917972 1.597656l-2.4980472.904297zm14.1972652.003906.904297 2.498047-2.501953-.90625a9 9 0 0 0 1.597656-1.591797zm-10.015625 1.939453.580078 1.242188h.001954l1.880859 4.023438a.50005.50005 0 0 0 .90625 0l1.886719-4.03125.572265-1.22461a8.0019531 8.0019531 0 0 1 -1.279297.371094 8.0019531 8.0019531 0 0 1 -1.634765.177734 8.0019531 8.0019531 0 0 1 -2.914063-.558594zm1.794922 1.470704a9 9 0 0 0 1.121094.083984 9 9 0 0 0 1.123047-.083984l-1.123047 2.398437z" fill="#3a3a38"/><g fill="#fafafa"><path d="m16 4.6855469-1.121094 2.3964843a9 9 0 0 1 1.121094-.0820312 9 9 0 0 1 1.119141.078125zm-8.0039062 3.3105469.9023437 2.4921872a9 9 0 0 1 1.5820315-1.5917966zm16.0078122 0-2.492187.9023437a9 9 0 0 1 1.591797 1.5820315zm-8.003906 3.0039062a5 5 0 0 0 -5 5 5 5 0 0 0 5 5 5 5 0 0 0 5-5 5 5 0 0 0 -5-5zm8.917969 3.878906a9 9 0 0 1 .082031 1.121094 9 9 0 0 1 -.078125 1.119141l2.392578-1.119141zm-17.839844.001953-2.3925781 1.119141 2.3964843 1.121094a9 9 0 0 1 -.0820312-1.121094 9 9 0 0 1 .078125-1.119141zm16.023437 6.63086a9 9 0 0 1 -1.582031 1.591797l2.484375.90039zm-14.2050776.007812-.9003906 2.484375 2.4921872-.902344a9 9 0 0 1 -1.5917966-1.582031zm8.2246096 3.398438a9 9 0 0 1 -1.121094.082031 9 9 0 0 1 -1.119141-.078125l1.119141 2.392578z"/><circle cx="16" cy="16" r="0"/></g></svg>