<svg viewBox="0 0 32 32" xmlns="http://www.w3.org/2000/svg"><path d="m11.308853 3.5116731-7.8088526 7.8088519v9.370623l7.8088526 7.808852h9.370622l7.808852-7.808852v-9.370623l-7.808852-7.8088519z" fill="#fafafa"/><path d="m12.138672 3a.51176992.51176992 0 0 0 -.478516.6914062l2.341797 6.2460938a.51176992.51176992 0 0 0 .478516.332031h3.027343a.51176992.51176992 0 0 0 .478516-.332031l2.341797-6.2460938a.51176992.51176992 0 0 0 -.478516-.6914062zm-1.458984.6347656a.51176992.51176992 0 0 0 -.367188.1503906l-6.5390625 6.5390628a.51176992.51176992 0 0 0 .1816406.839843l6.2460939 2.34375a.51176992.51176992 0 0 0 .541016-.117187l2.636718-2.636719a.51176992.51176992 0 0 0 .117188-.541015l-2.34375-6.2460941a.51176992.51176992 0 0 0 -.472656-.3320313zm10.626953 0a.51176992.51176992 0 0 0 -.470703.3320313l-2.34375 6.2460941a.51176992.51176992 0 0 0 .117187.541015l2.636719 2.636719a.51176992.51176992 0 0 0 .541015.117187l6.246094-2.34375a.51176992.51176992 0 0 0 .181641-.839843l-6.539063-6.5390628a.51176992.51176992 0 0 0 -.36914-.1503906zm-8.462891.3652344h6.300781l-1.974609 5.2695312h-2.351563zm-2.361328 1.0292969 1.966797 5.2402341-2.191407 2.191407-5.2402339-1.966797zm11.023437 0 5.464844 5.4648441-5.240234 1.966797-2.191407-2.191407zm-18.0273434 6.6093751a.51176992.51176992 0 0 0 -.4902344.511719v7.710937a.51176992.51176992 0 0 0 .6914063.478516l6.2480469-2.341797a.51176992.51176992 0 0 0 .3320316-.478516v-3.027343a.51176992.51176992 0 0 0 -.3320316-.478516l-6.2480469-2.341797a.51176992.51176992 0 0 0 -.2011719-.033203zm24.9941404 0a.51176992.51176992 0 0 0 -.164062.033203l-6.246094 2.341797a.51176992.51176992 0 0 0 -.332031.478516v3.027343a.51176992.51176992 0 0 0 .332031.478516l6.246094 2.341797a.51176992.51176992 0 0 0 .691406-.478516v-7.710937a.51176992.51176992 0 0 0 -.527344-.511719zm-24.4843748 1.216797 5.2714844 1.974609v2.351563l-5.2714844 1.974609zm24.0117188 0v6.300781l-5.269531-1.974609v-2.351563zm-17.626953 5.615234a.51176992.51176992 0 0 0 -.171875.033203l-6.2460939 2.34375a.51176992.51176992 0 0 0 -.1816406.839844l6.5390625 6.539062a.51176992.51176992 0 0 0 .839844-.18164l2.34375-6.246094a.51176992.51176992 0 0 0 -.117188-.541016l-2.636718-2.636718a.51176992.51176992 0 0 0 -.369141-.150391zm11.212891 0a.51176992.51176992 0 0 0 -.339844.150391l-2.636719 2.636718a.51176992.51176992 0 0 0 -.117187.541016l2.34375 6.246094a.51176992.51176992 0 0 0 .839843.18164l6.539063-6.539062a.51176992.51176992 0 0 0 -.181641-.839844l-6.246094-2.34375a.51176992.51176992 0 0 0 -.201171-.033203zm-11.328126 1.080078 2.191407 2.191407-1.966797 5.240234-5.4648439-5.464844zm11.472657 0 5.240234 1.966797-5.464844 5.464844-1.966797-5.240234zm-7.25 2.189453a.51176992.51176992 0 0 0 -.478516.332032l-2.341797 6.248046a.51176992.51176992 0 0 0 .478516.691407h7.710937a.51176992.51176992 0 0 0 .478516-.691407l-2.341797-6.248046a.51176992.51176992 0 0 0 -.478516-.332032zm.33789 1h2.351563l1.974609 5.271485h-6.300781z" fill="#3a3a38"/></svg>