<svg viewBox="0 0 32 32" xmlns="http://www.w3.org/2000/svg"><path d="m10.53125 2.9960938c-4.1556209 0-7.5351562 3.3795054-7.5351562 7.5351562 0 .86515.0821695 1.783769.4960937 2.576172a.50413839.50413839 0 0 0 .0039063.005859c1.8192142 3.395563 3.846732 5.270139 5.8789062 7.279297 2.017681 1.99483 4.055798 4.139175 6.082031 8.158203v.001953a.50413839.50413839 0 0 0 .042969.125c.028373.056555.038684.045393.066406.076172a.50413839.50413839 0 0 0 .884766-.029297c.016423-.033057.031468-.061014.048828-.095703 2.040624-4.075239 4.092826-6.227168 6.125-8.236328s4.059691-3.883734 5.878906-7.279297a.50413839.50413839 0 0 0 .003906-.005859c.413921-.792402.496094-1.711021.496094-2.576172 0-4.1556506-3.379534-7.5351562-7.535156-7.5351562-2.178801-.0000002-4.098273.9557333-5.46875 2.4355468-1.370479-1.4798125-3.289946-2.4355469-5.46875-2.4355468zm0 1.0058593c2.044474 0 3.831758.9340629 5.03125 2.4042969.07777.09502.099042.1125219.044922.0449219a.5023732.5023732 0 0 0 .785156 0c-.055254.0690184-.037208.0557811.044922-.0449219 1.199486-1.4701387 2.986779-2.4042969 5.03125-2.4042969 3.611701 0 6.529297 2.9175682 6.529297 6.5292969 0 .791714-.097822 1.56271-.382813 2.109375-1.745166 3.256408-3.650176 5.01125-5.697265 7.035156-1.918227 1.896504-3.943995 4.08404-5.917969 7.791016-1.973973-3.70698-3.999741-5.894513-5.917969-7.791016-2.0467572-2.023576-3.9523308-3.777812-5.6972654-7.033203v-.001953s-.0019531-.001953-.0019531-.001953c-.2841904-.546545-.3808594-1.316668-.3808594-2.107422 0-3.6117285 2.9175973-6.5292969 6.5292969-6.5292969z" fill="#3a3a38"/><path d="m10.53125 4.0019531c-3.6116996 0-6.5292969 2.9175684-6.5292969 6.5292969 0 .790754.096669 1.560877.3808594 2.107422.0004566.000852.0015.0011.00195.002.0002639.000506-.0002642.0014 0 .002 1.7449346 3.255391 3.650508 5.009627 5.6972654 7.033203 1.918228 1.896503 3.943996 4.084036 5.917969 7.791016 1.973974-3.706976 3.999742-5.894512 5.917969-7.791016 2.047089-2.023906 3.952099-3.778748 5.697265-7.035156.284991-.546665.382813-1.317661.382813-2.109375 0-3.6117287-2.917596-6.5292969-6.529297-6.5292969-2.044471 0-3.831764.9341582-5.03125 2.4042969-.08213.100703-.100174.1139404-.04492.044922a.5023732.5023732 0 0 1 -.785156 0c.05412.0676.03285.050098-.04492-.044922-1.1994919-1.470234-2.9867769-2.4043909-5.0312509-2.4043909z" fill="#fafafa"/></svg>