<svg viewBox="0 0 32 32" xmlns="http://www.w3.org/2000/svg"><path d="m18.001953 3a.50609469.50609469 0 0 0 -.367187.1699219l-9.3085941 10.5019531a.50609469.50609469 0 0 0 -.0097657.013672l-2.1992187 2.650391a.50609469.50609469 0 0 0 .3886719.828124h3.3476562 7.6250004l-3.830078 4.039063-1.964844-2.248047a.50609469.50609469 0 0 0 -.88086.261719l-1.3417965 9.205078a.50609469.50609469 0 0 0 .6367185.560547l9.394532-2.628906a.50609469.50609469 0 0 0 .085937-.94336l-2.134766-1.046875 8.457032-11.349609a.50609469.50609469 0 0 0 -.40625-.808594h-3.394532-6.875l5.826172-5.7089842a.50609469.50609469 0 0 0 0-.7226563l-2.683593-2.6289063a.50609469.50609469 0 0 0 -.365235-.1445312zm.039063 1.2402344 1.933593 1.8945312-6.34375 6.2148434a.50654791.50654791 0 0 0 .355469.867188h8.113281 2.384766l-8.21875 11.029297a.50654791.50654791 0 0 0 .183594.757812l1.490234.730469-7.363281 2.060547 1.070312-7.34375 1.605469 1.83789a.50654791.50654791 0 0 0 .748047.013672l5.021484-5.296875a.50654791.50654791 0 0 0 -.367187-.853515h-8.8007814-2.2695312l1.5058594-1.814453z" fill="#3a3a38"/><path d="m18.041016 4.2402344-8.9511722 10.0976566-1.5058594 1.814453h2.2695312 8.8007814a.50654791.50654791 0 0 1 .367187.853515l-5.021484 5.296875a.50654791.50654791 0 0 1 -.748047-.01367l-1.605469-1.83789-1.070312 7.34375 7.363281-2.060547-1.490234-.730469a.50654791.50654791 0 0 1 -.183594-.757812l8.21875-11.029297h-2.384766-8.113281a.50654791.50654791 0 0 1 -.355469-.867188l6.34375-6.2148434z" fill="#fafafa"/></svg>