<svg viewBox="0 0 32 32" xmlns="http://www.w3.org/2000/svg"><path d="m16 4c-2.298424 0-4.187274 1.6032673-4.875 3.7539062-.669813-.2758244-1.3866954-.4707031-2.1523438-.4707031-3.3071164 0-5.9726562 2.8192559-5.9726562 6.2539059 0 1.903123.8261801 3.591086 2.1191406 4.744141-1.2660325.987628-2.1191406 2.514106-2.1191406 4.287109 0 2.981194 2.3157039 5.43164 5.1914062 5.431641 1.1953837 0 2.2533238-.48365 3.1230468-1.189453.869723.705803 1.927666 1.189453 3.123047 1.189453 2.298419 0 4.187273-1.603271 4.875-3.753906.669813.275825 1.386696.470703 2.152344.470703 3.307115 0 5.974609-2.819047 5.974609-6.253906 0-1.069168-.313648-2.048342-.765625-2.921875 1.389674-.977464 2.326172-2.595495 2.326172-4.466797 0-2.9811935-2.315447-5.433594-5.191406-5.433594-1.271935 0-2.387695.5519534-3.292969 1.3457031-.853987-1.7322343-2.505672-2.986328-4.515625-2.9863281zm0 1.0019531c1.787337.0000001 3.276362 1.2087115 3.878906 2.9042969a.49439531.49439531 0 0 0 .837891.1582031c.767607-.8809677 1.870585-1.421875 3.091797-1.421875 2.306475 0 4.189453 1.9652704 4.189453 4.4316409 0 1.686892-.896916 3.134096-2.193359 3.882812a.49439531.49439531 0 0 0 -.175782.683594c.496239.820855.808594 1.789.808594 2.822266 0 2.919487-2.234881 5.251953-4.972656 5.251953-.784532 0-1.543-.209635-2.210938-.558594a.49439531.49439531 0 0 0 -.71289.337891c-.410224 2.005231-2.10174 3.503906-4.103516 3.503906-1.071204 0-2.034132-.436314-2.783203-1.146485a.49439531.49439531 0 0 0 -.679688 0c-.749076.710174-1.7119947 1.146485-2.7832028 1.146485-2.3067221-.000001-4.1894531-1.963317-4.1894531-4.429688 0-1.663754.877771-3.076902 2.1503907-3.835937a.49439531.49439531 0 0 0 .0332031-.826172c-1.3200147-.937602-2.1835938-2.541209-2.1835938-4.369141 0-2.919689 2.2329274-5.2519528 4.9707031-5.2519528.7845296 0 1.5429968.2096354 2.2109378.5585938a.49439531.49439531 0 0 0 .71289-.3378906c.410225-2.005239 2.101732-3.5039063 4.103516-3.5039063z" fill="#3a3a38"/><path d="m16 5.0019531c-2.001784 0-3.693291 1.4986673-4.103516 3.5039063a.49439531.49439531 0 0 1 -.71289.3378906c-.667941-.3489584-1.4264083-.5585938-2.2109378-.5585938-2.7377758 0-4.9707031 2.3322638-4.9707031 5.2519528 0 1.827932.8635791 3.431539 2.1835938 4.369141a.49439531.49439531 0 0 1 -.033203.826172c-1.2726196.759035-2.1503907 2.172183-2.1503907 3.835937 0 2.466371 1.8827309 4.429687 4.1894531 4.429688 1.071208 0 2.0341268-.436311 2.7832028-1.146485a.49439531.49439531 0 0 1 .679688 0c.749071.71017 1.711999 1.146485 2.783203 1.146485 2.001776 0 3.693292-1.498675 4.103516-3.503906a.49439531.49439531 0 0 1 .71289-.337891c.667938.348959 1.426406.558594 2.210938.558594 2.737775 0 4.972656-2.332466 4.972656-5.251953 0-1.033266-.312355-2.001411-.808594-2.822266a.49439531.49439531 0 0 1 .175782-.683594c1.296443-.748716 2.193359-2.19592 2.193359-3.882812 0-2.4663702-1.882978-4.4316409-4.189453-4.4316409-1.221212 0-2.32419.5409073-3.091797 1.421875a.49439531.49439531 0 0 1 -.8378911-.1582031c-.602544-1.6955854-2.091569-2.9042968-3.878906-2.9042969z" fill="#fafafa"/></svg>