<svg height="32" viewBox="0 0 8.4666665 8.4666669" width="32" xmlns="http://www.w3.org/2000/svg"><g transform="translate(0 -288.53331)"><path d="m1.0583333 289.32706c-.14657913 0-.2645833.118-.2645833.26458v6.35c0 .14658.11800417.26459.2645833.26459h6.35c.1465792 0 .2645834-.11801.2645834-.26459v-6.35c0-.14658-.1180042-.26458-.2645834-.26458zm0 .26458h6.35v2.38125.26459 1.05833.26458 1.05834.26458 1.05833h-1.5875-.2645833-1.3229167-.2645833-1.3229167-.2645833-1.3229167v-1.05833-.26458-1.05834-.26458-1.05833-.26459z" fill="#3a3a38" stroke-width=".264583"/><path d="m1.0583333 289.59164h6.35v6.35h-6.35z" fill="#fafafa" stroke-width=".264583"/><path d="m1.0583333 289.59164h6.35v1.05834h-6.35z" fill="#83beec" stroke-width=".207556"/><path d="m1.0583333 289.32706c-.14657913 0-.2645833.118-.2645833.26458v1.32292h.2645833 1.3229167.2645833 1.3229167.2645833 1.3229167.2645833 1.5875.2645834v-1.32292c0-.14658-.1180042-.26458-.2645834-.26458zm0 .26458h1.3229167v1.05834h-1.3229167zm1.5875 0h1.3229167v1.05834h-1.3229167zm1.5875 0h1.3229167v1.05834h-1.3229167zm1.5875 0h1.5875v1.05834h-1.5875z" fill="#0063b1" stroke-width=".264583"/><g fill="#1e8bcd" transform="matrix(.26458333 0 0 .26458333 0 288.53331)"><path d="m15.5 12c-.277 0-.465859.225112-.5.5v1.5h-1.5c-.277 0-.5.223-.5.5s.223209.510757.5.5h1.5v6h-1.5c-.277 0-.5.223-.5.5s.223.5.5.5h1.5v1.5c0 .277.223.5.5.5s.531914-.224845.5-.5v-1.5h6v1.5c0 .277.223.5.5.5s.5-.223.5-.5v-1.5h1.5c.277 0 .5-.223.5-.5s-.223-.5-.5-.5h-1.5v-6h1.5c.277 0 .5-.223.5-.5s-.223-.5-.5-.5h-1.5v-1.5c0-.277-.223-.5-.5-.5s-.5.223-.5.5v1.5h-6v-1.5c0-.277-.223-.5-.5-.5zm.5 3h6v6h-6z"/><rect height="2" ry=".5" width="2" x="10" y="22"/></g></g></svg>