<svg height="32" viewBox="0 0 8.4666665 8.4666669" width="32" xmlns="http://www.w3.org/2000/svg"><g transform="translate(0 -288.53332)"><g fill="#3a3a38" stroke-width=".264583"><rect height=".264583" ry=".118022" width="6.879167" x=".79375" y="289.32707"/><rect height=".264583" ry=".118022" width="6.879167" x=".79375" y="290.12082"/><rect height=".264583" ry=".118022" width="6.879167" x=".79375" y="294.88332"/><rect height=".264583" ry=".118022" width="6.879167" x=".79375" y="295.67707"/><rect height=".264583" ry=".132292" width="4.233333" x=".79375" y="290.91457"/><rect height=".264583" ry=".132292" width="3.439583" x=".79375" y="291.70832"/><rect height=".264583" ry=".113266" width="2.910417" x=".79375" y="292.50207"/><rect height=".264583" ry=".132292" width="3.439583" x=".79375" y="293.29582"/><rect height=".264583" ry=".132292" width="4.233333" x=".79375" y="294.08957"/></g><g transform="matrix(.70710678 .70710678 -.70710678 .70710678 0 0)"><path d="m209.82382 201.40485h2.618812v2.618812h-2.618812z" fill="#0063b1" stroke-width=".201447"/><path d="m210.10446 201.68549h2.057532v2.057532h-2.057532z" fill="#83beec" stroke-width=".158271"/></g></g></svg>