<svg height="32" viewBox="0 0 8.4666665 8.4666669" width="32" xmlns="http://www.w3.org/2000/svg"><path d="m2.38125 2.38126h3.704167v3.439583h-3.704167z" fill="#0063b1" stroke-width=".264583"/><g fill="#3a3a38" stroke-width=".264583"><rect height=".264583" ry=".118022" width="6.879167" x=".79375" y=".79375"/><rect height=".264583" ry=".108509" width="1.058333" x="6.614583" y="3.96875"/><rect height=".264583" ry=".118022" width="1.058333" x="6.614583" y="3.175"/><rect height=".264583" ry=".118022" width="1.058333" x="6.614583" y="2.38125"/><rect height=".264583" ry=".118022" width="6.879167" x=".79375" y="1.5875"/><rect height=".264583" ry=".118022" width="6.879167" x=".79375" y="6.35"/><rect height=".264583" ry=".118022" width="6.879167" x=".79375" y="7.14375"/><rect height=".264583" ry=".108509" width="1.058333" x="6.614583" y="5.55625"/><rect height=".264583" ry=".118022" width="1.058333" x="6.614583" y="4.7625"/><rect height=".264583" ry=".108509" width="1.058333" x=".79375" y="3.96875"/><rect height=".264583" ry=".118022" width="1.058333" x=".79375" y="3.175"/><rect height=".264583" ry=".118022" width="1.058333" x=".79375" y="2.38125"/><rect height=".264583" ry=".108509" width="1.058333" x=".79375" y="5.55625"/><rect height=".264583" ry=".118022" width="1.058333" x=".79375" y="4.7625"/></g><path d="m2.645833 2.645833h3.175v2.910417h-3.175z" fill="#83beec" stroke-width=".225327"/></svg>