<svg viewBox="0 0 32 32" xmlns="http://www.w3.org/2000/svg"><path d="m10 9v14h12v-10l-4-4z" fill="#fafafa"/><path d="m10 8c-.554 0-1 .446-1 1v14c0 .554.446 1 1 1h12c.554 0 1-.446 1-1v-9.75-.208984c0-.45068.09804-.425413-.605469-1.066407l-3.30664-3.2382809c-.709525-.7368575-1.477331-.7363281-1.09375-.7363281h-.332032zm0 1h7v4c0 .554.446016 1.004232 1 1h4v9h-12zm8 0 4 4h-4z" fill="#3a3a38"/><g fill-rule="evenodd"><path d="m25.746889 12.499801c-.412951.0016-.74685.336863-.746888.749817l-.000001.250595v5l.000001.247569c-.000857.636426.741397.984615 1.230166.577007l5.498899-2.749081c.361245-.29986.361245-.854157 0-1.154015l-5.498899-2.749083c-.135745-.112652-.306874-.173843-.483278-.172809z" fill="#0063b1"/><path d="m6.253111 12.499802c.412951.0016.7468501.336863.7468881.749817l.0000009.250594v5l-.0000009.247569c.000857.636426-.741397.984615-1.2301661.577007l-5.49889865-2.749081c-.3612458-.299859-.3612458-.854156 0-1.154015l5.49889865-2.749082c.135746-.112653.3068741-.173843.483278-.172809z" fill="#0063b1"/><path d="m26 13.675994v4.646485l4.646484-2.324219z" fill="#83beec"/><path d="m6 13.675994v4.646485l-4.646484-2.324219z" fill="#83beec"/><path d="m19.500199 25.746889c-.0016-.412951-.336863-.74685-.749817-.746888l-.250595-.000001h-5l-.247569.000001c-.636426-.000857-.984615.741397-.577007 1.230166l2.749081 5.498899c.29986.361245.854157.361245 1.154015 0l2.749083-5.498899c.112652-.135745.173843-.306874.172809-.483278z" fill="#0063b1"/><path d="m19.500198 6.253111c-.0016.412951-.336863.7468501-.749817.7468881l-.250594.0000009h-5l-.247569-.0000009c-.636426.000857-.984615-.741397-.577007-1.2301661l2.749081-5.49889865c.299859-.3612458.854156-.3612458 1.154015 0l2.749082 5.49889865c.112653.135746.173843.3068741.172809.483278z" fill="#0063b1"/><path d="m18.324006 26h-4.646485l2.324219 4.646484z" fill="#83beec"/><path d="m18.324006 6h-4.646485l2.324219-4.646484z" fill="#83beec"/></g></svg>