<svg viewBox="0 0 32 32" xmlns="http://www.w3.org/2000/svg"><path d="m6.0019531 3v17.4375l4.2812499-2.140625c-.05138.0341-.104274.06558-.152344.105469l.191407-.125c.282515-.177923.604111-.278876.935546-.277344h.002c.95182.0048 1.740147.799695 1.740234 1.75v.25 5 .246094.002c.000207 1.413943-1.785322 2.249223-2.871094 1.34375l.193314.126906-4.3203129-2.160156v4.441406h19.9980469v-4.435547l-4.310547 2.154297.193359-.126953c-1.085768.905474-2.8713.07019-2.871093-1.34375v-.002-.246047-5-.25c.000087-.950305.788414-1.7452 1.740234-1.75h.002c.333771-.0015.657486.10092.941406.28125l.185547.121094c-.04807-.03989-.100963-.07137-.152343-.105469l4.271437 2.136719.001953-11.433594-6-6z" fill="#fafafa"/><path d="m6 2c-.554 0-1 .446-1 1v17.939453l1-.5v-17.439453h13v6c0 .6726441.491378 1 1 1h6v10.433594l1 .5v-2.042969-10.5058594l-6.507812-6.3847656zm14.001953 1 6 6h-6zm-15.001953 21.058594v4.941406c0 .554.446 1 1 1h20c.554 0 .892483-.456533 1-1v-4.935547l-1 .5v4.435547h-20v-4.441406z" fill="#3a3a38"/><g fill-rule="evenodd"><path d="m20.746889 18.999588c-.412951.0016-.74685.336863-.746888.749817l-.000001.250595v5l.000001.247569c-.000857.636426.741397.984615 1.230166.577007l5.498899-2.749081c.361245-.29986.361245-.854157 0-1.154015l-5.498899-2.749083c-.135745-.112652-.306874-.173843-.483278-.172809z" fill="#0063b1"/><path d="m11.253111 18.999589c.412951.0016.74685.336863.746888.749817l.000001.250594v5l-.000001.247569c.000857.636426-.741397.984615-1.230166.577007l-5.4988987-2.749081c-.3612458-.299859-.3612458-.854156 0-1.154015l5.4988987-2.749082c.135746-.112653.306874-.173843.483278-.172809z" fill="#0063b1"/><path d="m21 20.175781v4.646485l4.646484-2.324219z" fill="#83beec"/><path d="m11 20.175781v4.646485l-4.646484-2.324219z" fill="#83beec"/></g></svg>