<svg viewBox="0 0 32 32" xmlns="http://www.w3.org/2000/svg"><path d="m15.505859 3.0058594c-.06645 0-.129596.0137693-.1875.0371094-.06278.0252949-.120958.062355-.167968.109375l-5 4.9902343c-.09793.097934-.144532.2257056-.144532.3535157 0 .1278089.046598.2536284.144532.3515624.195868.1958691.513115.1958691.708984 0l4.146484-4.1347656v9.7812504 1.505859h-1.505859-9.7832031l4.1367187-4.146484c.195869-.195869.195869-.511164 0-.707032-.097934-.097934-.2257066-.146484-.3535156-.146484-.12781 0-.2555816.048549-.3535156.146484l-4.9902344 5c-.047015.047013-.084075.103236-.109375.166016-.02334.057904-.0371094.12105-.0371094.1875s.0137694.129596.0371094.1875c.025295.06278.062355.119006.109375.166016l4.9902344 5c.097934.097934.2257056.146484.3535156.146484.127809 0 .2555816-.04855.3535156-.146484.195869-.195868.195869-.511163 0-.707032l-4.1367187-4.146484h9.7832031 1.505859v1.505859 9.783203l-4.146484-4.138671c-.195869-.195869-.513116-.195869-.708984 0-.09793.09793-.144532.227659-.144532.355468 0 .12781.046598.253629.144532.351563l5 4.992187c.04701.04702.105188.08408.167968.109375.0579.02334.12105.03711.1875.03711s.129596-.01377.1875-.03711c.06278-.0253.119003-.06236.166016-.109375l5-4.992187c.09793-.09793.146484-.223753.146484-.351563 0-.127809-.04855-.257534-.146484-.355468-.195868-.195869-.513115-.195869-.708984 0l-4.144532 4.138671v-9.783203-1.505859h1.503907 9.783203l-4.136719 4.146484c-.195869.195869-.195869.511164 0 .707032.097934.097934.225707.146484.353516.146484.12781 0 .255581-.04855.353515-.146484l4.990235-5c.04702-.04701.08408-.103236.109375-.166016.02334-.057904.037109-.12105.037109-.1875s-.013769-.129596-.037109-.1875c-.0253-.06278-.06236-.119003-.109375-.166016l-4.990235-5c-.097934-.097935-.225705-.146484-.353515-.146484-.127809 0-.255582.04855-.353516.146484-.195869.195868-.195869.511163 0 .707032l4.136719 4.146484h-9.783203-1.503907v-1.505859-9.7812504l4.144532 4.1347656c.195869.1958691.513116.195869.708984 0 .09793-.097934.146484-.2237534.146484-.3515624 0-.1278101-.04855-.2555817-.146484-.3535157l-5-4.9902343c-.04701-.0470151-.103236-.084075-.166016-.109375-.0579-.0233401-.12105-.0371094-.1875-.0371094z" fill="#1e8bcd"/></svg>