<svg xmlns="http://www.w3.org/2000/svg" xmlns:xlink="http://www.w3.org/1999/xlink" width="207.999" height="256"><defs><linearGradient id="g"><stop offset="0" stop-color="#B3B3B3"/><stop offset="1" stop-color="#E6E6E6"/></linearGradient><linearGradient id="N"><stop offset="0" stop-color="#FFF"/><stop offset="1" stop-color="#00A0FC" stop-opacity="0"/></linearGradient><linearGradient id="M"><stop offset="0" stop-color="#1C99E0"/><stop offset="1" stop-color="#035482"/></linearGradient><linearGradient id="O"><stop offset="0" stop-color="#AADCF7"/><stop offset="1" stop-color="#AADCF7" stop-opacity="0"/></linearGradient><linearGradient id="e"><stop offset="0"/><stop offset="1" stop-color="#4D4D4D"/></linearGradient><linearGradient id="n"><stop offset="0" stop-color="gray"/><stop offset="1" stop-color="#B3B3B3"/></linearGradient><linearGradient id="m"><stop offset="0" stop-color="#FFF"/><stop offset="1" stop-color="#F5FFAA" stop-opacity="0"/></linearGradient><linearGradient id="y"><stop offset="0" stop-color="#F00"/><stop offset="1" stop-color="#D3D300" stop-opacity="0"/></linearGradient><linearGradient id="v"><stop offset="0" stop-color="maroon"/><stop offset="1" stop-color="#FFC600" stop-opacity="0"/></linearGradient><linearGradient id="x"><stop offset="0" stop-color="#003362"/><stop offset="1" stop-color="#00FF8C" stop-opacity="0"/></linearGradient><linearGradient id="w"><stop offset="0" stop-color="#FFF" stop-opacity="0"/><stop offset=".493" stop-color="#FFF"/><stop offset="1" stop-color="#FFF" stop-opacity="0"/></linearGradient><linearGradient id="u"><stop offset="0" stop-color="#4A00FF"/><stop offset="1" stop-color="#00A0C1" stop-opacity="0"/></linearGradient><linearGradient id="ar"><stop offset="0" stop-color="green"/><stop offset="1" stop-color="#0F0" stop-opacity="0"/></linearGradient><linearGradient id="aq"><stop offset="0"/><stop offset="1" stop-opacity="0"/></linearGradient><linearGradient id="ap"><stop offset="0" stop-opacity="0"/><stop offset=".493"/><stop offset="1" stop-opacity="0"/></linearGradient><linearGradient id="am"><stop offset="0" stop-color="#FFF" stop-opacity=".85"/><stop offset="1" stop-color="#FFF" stop-opacity=".9"/></linearGradient><linearGradient id="an"><stop offset="0" stop-color="#999"/><stop offset="1" stop-color="#E6E6E6"/></linearGradient><linearGradient id="ao"><stop offset="0"/><stop offset=".455" stop-opacity=".361"/><stop offset="1" stop-opacity="0"/></linearGradient><linearGradient id="r"><stop offset="0" stop-color="#F09E6F"/><stop offset="1" stop-color="#F9CFB5"/></linearGradient><linearGradient id="s"><stop offset="0" stop-color="#F5CE53"/><stop offset="1" stop-color="#FDE9A9"/></linearGradient><linearGradient id="o"><stop offset="0" stop-color="#F2F2F2"/><stop offset="1" stop-color="#FFF"/></linearGradient><linearGradient id="t"><stop offset="0" stop-color="#8EE780"/><stop offset="1" stop-color="#CCF4C6"/></linearGradient><linearGradient id="a"><stop offset="0" stop-color="#18A303"/><stop offset="1" stop-color="#106802"/></linearGradient><linearGradient id="f"><stop offset="0" stop-color="#666"/><stop offset="1" stop-color="#333"/></linearGradient><linearGradient id="q"><stop offset="0" stop-color="#63BBEE"/><stop offset="1" stop-color="#AADCF7"/></linearGradient><linearGradient id="h"><stop offset="0" stop-color="gray"/><stop offset="1" stop-color="#4D4D4D"/></linearGradient><linearGradient id="as"><stop offset="0" stop-opacity=".502"/><stop offset="1" stop-opacity="0"/></linearGradient><linearGradient id="l"><stop offset="0" stop-opacity="0"/><stop offset=".493"/><stop offset="1" stop-opacity="0"/></linearGradient><linearGradient id="b"><stop offset="0" stop-color="#A33E03"/><stop offset="1" stop-color="#622502"/></linearGradient><linearGradient id="c"><stop offset="0" stop-color="#C99C00"/><stop offset="1" stop-color="#876900"/></linearGradient><linearGradient id="d"><stop offset="0" stop-color="#8E03A3"/><stop offset="1" stop-color="#530260"/></linearGradient><linearGradient id="p"><stop offset="0"/><stop offset=".455" stop-opacity=".361"/><stop offset="1" stop-opacity="0"/></linearGradient><linearGradient id="k"><stop offset="0" stop-color="#125A00"/><stop offset="1" stop-color="#69CE00" stop-opacity="0"/></linearGradient><linearGradient id="i"><stop offset="0" stop-color="#0369A3"/><stop offset="1" stop-color="#023F62"/></linearGradient><linearGradient id="j"><stop offset="0" stop-color="#0369A3"/><stop offset="1" stop-color="#023F62"/></linearGradient><linearGradient xlink:href="#a" id="bc" gradientUnits="userSpaceOnUse" gradientTransform="matrix(2 0 0 2 -711 -2873.64)" x1="640" y1="632.998" x2="640" y2="688.52"/><linearGradient xlink:href="#k" id="bm" gradientUnits="userSpaceOnUse" gradientTransform="translate(-637.22 -625.976) scale(.7317)" x1="152" y1="-1192.638" x2="113.882" y2="-1230.756"/><linearGradient xlink:href="#l" id="bn" gradientUnits="userSpaceOnUse" gradientTransform="matrix(.739 0 0 1 538.565 -303)" x1="-17" y1="-1194.638" x2="144" y2="-1194.638"/><radialGradient xlink:href="#m" id="bo" gradientUnits="userSpaceOnUse" gradientTransform="matrix(-3.3157 0 0 -4.65 -3490.73 -4550.95)" cx="-1535.304" cy="-853" fx="-1535.304" fy="-853" r="10"/><linearGradient xlink:href="#l" id="bp" gradientUnits="userSpaceOnUse" gradientTransform="matrix(.4845 0 0 1 583.236 -297)" x1="-17" y1="-1194.638" x2="144" y2="-1194.638"/><linearGradient xlink:href="#n" id="bq" gradientUnits="userSpaceOnUse" x1="652.25" y1="-1491.638" x2="652.25" y2="-1548.138"/><linearGradient xlink:href="#o" id="br" gradientUnits="userSpaceOnUse" gradientTransform="matrix(1.8974 0 0 2.6 -777.77 1271.82)" x1="714" y1="-1063.638" x2="714" y2="-1083.638"/><linearGradient xlink:href="#p" id="bu" gradientUnits="userSpaceOnUse" gradientTransform="matrix(.6098 0 0 .6098 557.317 -767.42)" x1="152" y1="-1192.638" x2="113.882" y2="-1230.756"/><linearGradient xlink:href="#q" id="bx" gradientUnits="userSpaceOnUse" gradientTransform="matrix(1.7143 0 0 3.3333 -316.43 5092.43)" x1="525.639" y1="-1078.644" x2="525.639" y2="-1068.787"/><linearGradient xlink:href="#r" id="by" gradientUnits="userSpaceOnUse" gradientTransform="matrix(1.7143 0 0 4.4444 -298.43 6290.36)" x1="525.639" y1="-1078.644" x2="525.639" y2="-1068.787"/><linearGradient xlink:href="#s" id="bz" gradientUnits="userSpaceOnUse" gradientTransform="matrix(1.7143 0 0 2 -280.43 3654.91)" x1="525.639" y1="-1078.644" x2="525.639" y2="-1068.787"/><linearGradient xlink:href="#t" id="bA" gradientUnits="userSpaceOnUse" gradientTransform="matrix(1.7143 0 0 2.889 -262.43 4613.26)" x1="525.639" y1="-1078.644" x2="525.639" y2="-1068.787"/><linearGradient xlink:href="#u" id="bB" gradientUnits="userSpaceOnUse" gradientTransform="matrix(.8333 0 0 2.3333 141.167 2160.52)" x1="529.25" y1="-1568.638" x2="535" y2="-1574.638"/><linearGradient xlink:href="#v" id="bC" gradientUnits="userSpaceOnUse" gradientTransform="matrix(.8333 0 0 3.1667 159.167 3467.72)" x1="529.25" y1="-1568.638" x2="535" y2="-1574.638"/><linearGradient xlink:href="#l" id="bE" gradientUnits="userSpaceOnUse" gradientTransform="matrix(.4596 0 0 1 584.814 -303)" x1="-17" y1="-1194.638" x2="144" y2="-1194.638"/><linearGradient xlink:href="#w" id="bF" gradientUnits="userSpaceOnUse" gradientTransform="matrix(.4596 0 0 1 584.814 -300)" x1="-17" y1="-1194.638" x2="144" y2="-1194.638"/><linearGradient xlink:href="#x" id="bG" gradientUnits="userSpaceOnUse" gradientTransform="matrix(.8333 0 0 2 195.167 1637.64)" x1="529.25" y1="-1568.638" x2="535" y2="-1574.638"/><linearGradient xlink:href="#y" id="bH" gradientUnits="userSpaceOnUse" gradientTransform="matrix(.8333 0 0 1.3333 177.167 591.88)" x1="529.25" y1="-1568.638" x2="535" y2="-1574.638"/><linearGradient xlink:href="#a" id="aJ" gradientUnits="userSpaceOnUse" gradientTransform="matrix(1.004 0 0 1.0096 -1.5 -9.366)" x1="168.828" y1="-1408.796" x2="168.828" y2="-1156.21"/><linearGradient xlink:href="#a" id="aK" gradientUnits="userSpaceOnUse" gradientTransform="matrix(1.004 0 0 1.0096 -1.5 -9.366)" x1="168.828" y1="-1408.796" x2="168.828" y2="-1156.21"/><linearGradient xlink:href="#a" id="aI" gradientUnits="userSpaceOnUse" gradientTransform="matrix(1.004 0 0 1.0096 -1.5 -9.366)" x1="168.828" y1="-1408.796" x2="168.828" y2="-1156.21"/><linearGradient id="C"><stop offset="0" stop-color="#666"/><stop offset="1" stop-color="#333"/></linearGradient><linearGradient id="z"><stop offset="0" stop-color="#666"/><stop offset="1" stop-color="#333"/></linearGradient><linearGradient id="A"><stop offset="0" stop-color="#0369A3"/><stop offset="1" stop-color="#023F62"/></linearGradient><linearGradient id="B"><stop offset="0" stop-color="#0369A3"/><stop offset="1" stop-color="#023F62"/></linearGradient><linearGradient id="D"><stop offset="0" stop-color="#18A303"/><stop offset="1" stop-color="#106802"/></linearGradient><linearGradient id="E"><stop offset="0" stop-color="#A33E03"/><stop offset="1" stop-color="#622502"/></linearGradient><linearGradient id="I"><stop offset="0" stop-color="#0369A3"/><stop offset="1" stop-color="#023F62"/></linearGradient><linearGradient id="G"><stop offset="0" stop-color="#0369A3"/><stop offset="1" stop-color="#023F62"/></linearGradient><linearGradient id="H"><stop offset="0" stop-color="#666"/><stop offset="1" stop-color="#333"/></linearGradient><linearGradient id="F"><stop offset="0" stop-color="#666"/><stop offset="1" stop-color="#333"/></linearGradient><linearGradient id="J"><stop offset="0" stop-color="#666"/><stop offset="1" stop-color="#333"/></linearGradient><linearGradient id="L"><stop offset="0" stop-color="#323232"/><stop offset="1" stop-color="#535353"/></linearGradient><linearGradient id="K"><stop offset="0" stop-color="#323232"/><stop offset="1" stop-color="#535353"/></linearGradient><linearGradient id="P"><stop offset="0" stop-color="#FFF" stop-opacity=".588"/><stop offset="1" stop-color="#FFF" stop-opacity=".863"/></linearGradient><linearGradient id="Q"><stop offset="0" stop-color="gray"/><stop offset="1" stop-color="#4D4D4D"/></linearGradient><linearGradient id="R"><stop offset="0" stop-color="gray"/><stop offset="1" stop-color="#4D4D4D"/></linearGradient><linearGradient id="S"><stop offset="0" stop-color="#FFF" stop-opacity=".588"/><stop offset="1" stop-color="#FFF" stop-opacity=".863"/></linearGradient><linearGradient id="T"><stop offset="0" stop-color="#B3B3B3"/><stop offset="1" stop-color="#E6E6E6"/></linearGradient><linearGradient id="U"><stop offset="0" stop-color="#B3B3B3"/><stop offset="1" stop-color="#E6E6E6"/></linearGradient><linearGradient id="V"><stop offset="0" stop-color="#B3B3B3"/><stop offset="1" stop-color="#E6E6E6"/></linearGradient><linearGradient id="W"><stop offset="0" stop-color="#B3B3B3"/><stop offset="1" stop-color="#E6E6E6"/></linearGradient><linearGradient id="X"><stop offset="0" stop-color="#B3B3B3"/><stop offset="1" stop-color="#E6E6E6"/></linearGradient><linearGradient id="Y"><stop offset="0" stop-color="#B3B3B3"/><stop offset="1" stop-color="#E6E6E6"/></linearGradient><linearGradient id="Z"><stop offset="0" stop-color="#B3B3B3"/><stop offset="1" stop-color="#E6E6E6"/></linearGradient><linearGradient id="aa"><stop offset="0" stop-color="gray"/><stop offset="1" stop-color="#4D4D4D"/></linearGradient><linearGradient id="ab"><stop offset="0" stop-color="gray"/><stop offset="1" stop-color="#4D4D4D"/></linearGradient><linearGradient id="ac"><stop offset="0" stop-color="#B3B3B3"/><stop offset="1" stop-color="#E6E6E6"/></linearGradient><linearGradient id="ad"><stop offset="0" stop-color="#B3B3B3"/><stop offset="1" stop-color="#E6E6E6"/></linearGradient><linearGradient id="ae"><stop offset="0" stop-color="#B3B3B3"/><stop offset="1" stop-color="#E6E6E6"/></linearGradient><linearGradient id="af"><stop offset="0" stop-color="#B3B3B3"/><stop offset="1" stop-color="#E6E6E6"/></linearGradient><linearGradient id="ag"><stop offset="0" stop-color="#FFF" stop-opacity=".588"/><stop offset="1" stop-color="#FFF" stop-opacity=".863"/></linearGradient><linearGradient id="ah"><stop offset="0" stop-color="#666"/><stop offset="1" stop-color="#333"/></linearGradient><linearGradient id="ai"><stop offset="0" stop-color="#666"/><stop offset="1" stop-color="#333"/></linearGradient><linearGradient id="aj"><stop offset="0" stop-color="#666"/><stop offset="1" stop-color="#333"/></linearGradient><linearGradient id="ak"><stop offset="0" stop-color="#666"/><stop offset="1" stop-color="#333"/></linearGradient><linearGradient id="al"><stop offset="0" stop-color="#666"/><stop offset="1" stop-color="#333"/></linearGradient><linearGradient xlink:href="#am" id="aL" gradientUnits="userSpaceOnUse" gradientTransform="matrix(8 0 0 8 -1161 4583.47)" x1="209.063" y1="-754.085" x2="209.063" y2="-782.638"/><linearGradient xlink:href="#an" id="aM" gradientUnits="userSpaceOnUse" gradientTransform="matrix(15.958 0 0 16.0248 -4178.13 -5573.42)" x1="294.343" y1="256.581" x2="294.418" y2="243.139"/><linearGradient xlink:href="#am" id="aN" gradientUnits="userSpaceOnUse" gradientTransform="matrix(8 0 0 8 -1161 4583.47)" x1="209.063" y1="-754.085" x2="209.063" y2="-782.638"/><linearGradient xlink:href="#ao" id="aO" gradientUnits="userSpaceOnUse" gradientTransform="matrix(.7805 0 0 .7805 -619.634 -520.8)" x1="152" y1="-1192.638" x2="113.882" y2="-1230.756"/><linearGradient xlink:href="#ap" id="aP" gradientUnits="userSpaceOnUse" gradientTransform="matrix(.621 0 0 1 550.56 -257)" x1="-17" y1="-1194.638" x2="144" y2="-1194.638"/><linearGradient xlink:href="#ap" id="aQ" gradientUnits="userSpaceOnUse" gradientTransform="matrix(1.4162 0 0 1 -1655.56 693.64)" x1="-17" y1="-1194.638" x2="144" y2="-1194.638"/><linearGradient xlink:href="#ap" id="aR" gradientUnits="userSpaceOnUse" gradientTransform="matrix(.867 0 0 1 -1578 506.64)" x1="-17" y1="-1194.638" x2="144" y2="-1194.638"/><linearGradient xlink:href="#ap" id="aS" gradientUnits="userSpaceOnUse" gradientTransform="matrix(.621 0 0 1 550.56 -251)" x1="-17" y1="-1194.638" x2="144" y2="-1194.638"/><linearGradient xlink:href="#aq" id="aT" gradientUnits="userSpaceOnUse" gradientTransform="translate(137 -1753.64)" x1="364.867" y1="300.819" x2="389.102" y2="276.584"/><linearGradient xlink:href="#aq" id="aU" gradientUnits="userSpaceOnUse" gradientTransform="matrix(1 0 0 -1 135 -1379.64)" x1="364.867" y1="300.819" x2="389.102" y2="276.584"/><linearGradient xlink:href="#l" id="aV" gradientUnits="userSpaceOnUse" gradientTransform="matrix(.524 0 0 1 -738.005 -421.606)" x1="-17" y1="-1194.638" x2="144" y2="-1194.638"/><linearGradient xlink:href="#l" id="aW" gradientUnits="userSpaceOnUse" gradientTransform="matrix(.524 0 0 1 -738.715 -413.828)" x1="-17" y1="-1194.638" x2="144" y2="-1194.638"/><linearGradient xlink:href="#l" id="aX" gradientUnits="userSpaceOnUse" gradientTransform="matrix(.524 0 0 1 -738.715 -442.112)" x1="-17" y1="-1194.638" x2="144" y2="-1194.638"/><linearGradient xlink:href="#ap" id="aY" gradientUnits="userSpaceOnUse" gradientTransform="matrix(1.4162 0 0 1 -1655.56 699.64)" x1="-17" y1="-1194.638" x2="144" y2="-1194.638"/><linearGradient xlink:href="#ap" id="aZ" gradientUnits="userSpaceOnUse" gradientTransform="matrix(.899 0 0 1 -1580.99 1875.64)" x1="-17" y1="-1194.638" x2="144" y2="-1194.638"/><linearGradient xlink:href="#ao" id="ba" gradientUnits="userSpaceOnUse" gradientTransform="matrix(.7805 0 0 .7805 562.366 -520.8)" x1="152" y1="-1192.638" x2="113.882" y2="-1230.756"/><linearGradient xlink:href="#aq" id="bb" gradientUnits="userSpaceOnUse" gradientTransform="matrix(-1 0 0 1 1045 -1753.64)" x1="364.867" y1="300.819" x2="389.102" y2="276.584"/><linearGradient xlink:href="#a" id="aG" gradientUnits="userSpaceOnUse" x1="475" y1="-895.638" x2="475" y2="-848.638"/><linearGradient xlink:href="#l" id="be" gradientUnits="userSpaceOnUse" gradientTransform="matrix(.1615 0 0 1 530.745 -391)" x1="-17" y1="-1194.638" x2="144" y2="-1194.638"/><linearGradient xlink:href="#ar" id="bh" gradientUnits="userSpaceOnUse" gradientTransform="translate(0 -18)" x1="529.25" y1="-1568.638" x2="535.438" y2="-1574.826"/><linearGradient xlink:href="#ar" id="bi" gradientUnits="userSpaceOnUse" gradientTransform="translate(0 -1)" x1="529.25" y1="-1568.638" x2="535.438" y2="-1574.826"/><linearGradient xlink:href="#l" id="bv" gradientUnits="userSpaceOnUse" gradientTransform="matrix(.379 0 0 1 589.44 -344)" x1="-17" y1="-1194.638" x2="144" y2="-1194.638"/><radialGradient xlink:href="#as" id="bw" gradientUnits="userSpaceOnUse" gradientTransform="matrix(0 .3778 -.665 0 85.14 -1556.34)" cx="152.333" cy="-754.638" fx="152.333" fy="-754.638" r="15"/><linearGradient xlink:href="#w" id="bD" gradientUnits="userSpaceOnUse" gradientTransform="matrix(.0745 0 0 1 582.267 -334)" x1="-17" y1="-1194.638" x2="144" y2="-1194.638"/><linearGradient xlink:href="#l" id="bI" gradientUnits="userSpaceOnUse" gradientTransform="matrix(.4596 0 0 1 -643.186 2740.28)" x1="-17" y1="-1194.638" x2="144" y2="-1194.638"/></defs><g transform="translate(-488 1693.638)"><use xlink:href="#aH" transform="translate(1571)" width="5033" height="1085" opacity=".75"/><text y="-1109.14" x="382.125" font-size="8" font-family="Sans"/><g transform="matrix(1 0 0 .9998 527.994 -261.184)" overflow="visible" fill="url(#aI)" stroke-width="15.998" font-family="Andale Mono"><path style="line-height:normal;text-indent:0pt;text-align:start;text-decoration-line:none;text-transform:none" d="M-39.993-1184.568c0 3.868 3.622 7.93 7.757 7.93H159.75c4.627 0 8.25-3.87 8.25-7.745v-149.215c0-4.225-.512-6.183-3.5-9.17l-85.324-85.3c-2.988-2.986-5.274-4.526-9.5-4.53l-101.736-.08c-4.133 0-7.933 3.683-7.933 8.122v239.988z" overflow="visible" fill="url(#aJ)"/><path style="line-height:normal;text-indent:0pt;text-align:start;text-decoration-line:none;text-transform:none" d="M103.26-1421.89l53.19 53.442c4.34 4.358 11.554 3.324 11.554-3.55v-52.443c0-4.228-3.827-8.198-8.032-8.198h-53.19c-6.838 0-7.138 7.115-3.522 10.748z" overflow="visible" fill="url(#aK)"/></g><path d="M501-1677.53v226h180v-140.44c-28.986-29.2-58.078-58.297-87-87.56h-93v2z" fill="url(#aL)" transform="translate(1)"/><path d="M495-1683.638v238h192v-151.406c-29.383-29.502-58.745-59.027-88.063-88.594H495v2z" style="line-height:normal;text-indent:0pt;text-align:start;text-decoration-line:none;text-transform:none" font-family="Andale Mono" overflow="visible" fill="url(#aM)" transform="translate(1)"/><path d="M501-1677.53v226h180v-140.44c-28.986-29.2-58.078-58.297-87-87.56h-93v2z" fill="url(#aN)" transform="translate(1)"/><path d="M496-1685.638v240h192v-151.406c-29.383-29.502-58.745-59.027-88.063-88.594H496zm1 1h102.5c29.148 29.362 58.296 58.725 87.5 88.03v149.97H497v-238z" style="line-height:normal;text-indent:0pt;text-align:start;text-decoration-line:none;text-transform:none" font-family="Andale Mono" overflow="visible" opacity=".15" fill="#fff"/><path transform="matrix(-1 0 0 1 1 0)" overflow="visible" opacity=".15" fill="url(#aO)" d="M-565-1515.638h64v64h-64z"/><path overflow="visible" opacity=".2" fill="url(#aP)" d="M540-1451.638h100v1H540z" transform="translate(1)"/><path transform="rotate(90 .5 .5)" overflow="visible" opacity=".2" fill="url(#aQ)" d="M-1679.638-501h228v1h-228z"/><path transform="rotate(90 .5 .5)" overflow="visible" opacity=".5" fill="url(#aR)" d="M-1592.742-688h139.604v1h-139.604z"/><path overflow="visible" opacity=".5" fill="url(#aS)" d="M540-1445.638h100v1H540z" transform="translate(1)"/><path d="M502-1502.638v50h50v-1h-49v-49h-1z" overflow="visible" opacity=".15" fill="url(#aT)" transform="translate(1)"/><path d="M500-1630.638v-50h50v1h-49v49h-1z" overflow="visible" opacity=".1" fill="url(#aU)" transform="translate(1)"/><path transform="rotate(45 .5 1.207)" overflow="visible" opacity=".4" fill="url(#aV)" d="M-746.917-1616.244h84.375v1h-84.375z"/><path transform="rotate(45 .5 1.207)" overflow="visible" opacity=".1" fill="url(#aW)" d="M-747.624-1608.466h84.375v1h-84.374z"/><path transform="rotate(45 .5 1.207)" overflow="visible" opacity=".4" fill="url(#aX)" d="M-747.624-1636.75h84.375v1h-84.374z"/><path transform="rotate(90 .5 .5)" overflow="visible" opacity=".5" fill="url(#aY)" d="M-1679.638-495h228v1h-228z"/><path transform="matrix(0 1 1 0 1 0)" overflow="visible" opacity=".2" fill="url(#aZ)" d="M-1596.276 681h144.745v1h-144.746z"/><path overflow="visible" opacity=".15" fill="url(#ba)" d="M617-1515.638h64v64h-64z" transform="translate(1)"/><path d="M680-1502.638v50h-50v-1h49v-49h1z" overflow="visible" opacity=".15" fill="url(#bb)" transform="translate(1)"/><g transform="translate(1)"><path d="M525-1602.638v105h119v-105H525z" overflow="visible" fill="url(#bc)"/><use height="1085" width="5033" transform="translate(29 51)" xlink:href="#bd"/><use xlink:href="#bd" transform="translate(0 34)" width="5033" height="1085"/><path id="bf" overflow="visible" opacity=".5" fill="url(#be)" d="M528-1585.638h26v1h-26z"/><use xlink:href="#bf" transform="matrix(0 .6154 -1 0 -999.638 -1925.56)" width="5033" height="1085"/><path id="bg" overflow="visible" fill="#92e285" d="M528-1599.638h26v14h-26z"/><use xlink:href="#bg" transform="translate(29)" width="5033" height="1085"/><use height="1085" width="5033" transform="translate(58)" xlink:href="#bg"/><use xlink:href="#bg" transform="translate(87)" width="5033" height="1085"/><path id="bj" overflow="visible" opacity=".5" fill="url(#bh)" stroke-width="15.997" d="M529-1598.638h12v12h-12z"/><use xlink:href="#bf" transform="matrix(0 .6154 -1 0 -1057.64 -1925.56)" width="5033" height="1085"/><g id="bd"><use xlink:href="#bf" transform="translate(0 17)" width="5033" height="1085"/><path overflow="visible" fill="#e0f4dd" d="M528-1582.638h26v14h-26z"/><path overflow="visible" opacity=".25" fill="url(#bi)" stroke-width="15.997" d="M529-1581.638h12v12h-12z"/><use xlink:href="#bf" transform="matrix(0 .6154 -1 0 -1057.64 -1908.56)" width="5033" height="1085"/></g><use height="1085" width="5033" transform="matrix(0 .6154 -1 0 -1028.64 -1925.56)" xlink:href="#bf"/><use xlink:href="#bj" id="bk" transform="translate(29)" width="5033" height="1085"/><use xlink:href="#bk" id="bl" transform="translate(29)" width="5033" height="1085"/><use height="1085" width="5033" transform="matrix(0 .6154 -1 0 -970.638 -1925.56)" xlink:href="#bf"/><use xlink:href="#bl" transform="translate(29)" width="5033" height="1085"/><use xlink:href="#bd" transform="translate(29 34)" width="5033" height="1085"/><use xlink:href="#bd" transform="translate(29)" width="5033" height="1085"/><use height="1085" width="5033" transform="translate(58)" xlink:href="#bd"/><use xlink:href="#bd" transform="translate(87)" width="5033" height="1085"/><use height="1085" width="5033" transform="translate(0 17)" xlink:href="#bd"/><use height="1085" width="5033" transform="translate(29 17)" xlink:href="#bd"/><use xlink:href="#bd" transform="translate(58 17)" width="5033" height="1085"/><use height="1085" width="5033" transform="translate(87 17)" xlink:href="#bd"/><use height="1085" width="5033" transform="translate(0 51)" xlink:href="#bd"/><use xlink:href="#bd" transform="translate(0 68)" width="5033" height="1085"/><use xlink:href="#bd" transform="translate(29 68)" width="5033" height="1085"/><path transform="scale(-1 1)" overflow="visible" opacity=".5" fill="url(#bm)" d="M-586-1558.638h60v60h-60z"/><use xlink:href="#bd" transform="translate(87 34)" width="5033" height="1085"/><use height="1085" width="5033" transform="translate(58 34)" xlink:href="#bd"/><path overflow="visible" opacity=".5" fill="url(#bn)" d="M526-1497.638h119v1H526z"/><rect transform="matrix(0 -1 -1 0 0 0)" width="32" height="93" x="1567.638" y="-631" ry="2" rx="2" overflow="visible" opacity=".6" fill="url(#bo)"/><path overflow="visible" opacity=".25" fill="url(#bp)" d="M575-1491.638h78v1h-78z"/><path overflow="visible" fill="url(#bq)" d="M575-1547.638h78v56h-78z"/><path overflow="visible" fill="url(#br)" d="M577-1545.638h74v52h-74z"/><use xlink:href="#bs" transform="translate(18)" width="5033" height="1085"/><use height="1085" width="5033" transform="translate(36)" xlink:href="#bs"/><use xlink:href="#bs" transform="translate(54)" width="5033" height="1085"/><use transform="translate(0 30)" xlink:href="#bt" width="5033" height="1085"/><use xlink:href="#bt" transform="translate(0 10)" width="5033" height="1085"/><path overflow="visible" opacity=".15" fill="url(#bu)" d="M600-1544.638h50v50h-50z"/><use height="1085" width="5033" xlink:href="#bt" transform="translate(0 20)"/><path overflow="visible" fill="#0369a3" d="M580-1529.638h14v32h-14z"/><path id="bt" overflow="visible" opacity=".25" fill="url(#bv)" d="M583-1538.638h61v1h-61z"/><path overflow="visible" fill="#a33e03" d="M598-1539.638h14v42h-14z"/><path overflow="visible" fill="#c99c00" d="M616-1517.638h14v20h-14z"/><path overflow="visible" fill="#43c330" d="M634-1525.638h14v28h-14z"/><path id="bs" d="M577.57-1503.638h18.86c.315 0 .57 1.508.57 3.382v3.237c0 1.874-.255 3.382-.57 3.382h-18.86c-.315 0-.57-1.508-.57-3.38v-3.238c0-1.874.255-3.382.57-3.382z" overflow="visible" opacity=".5" fill="url(#bw)"/><path transform="scale(1 -1)" overflow="visible" fill="url(#bx)" d="M581 1498.638h12v30h-12z"/><path transform="scale(1 -1)" overflow="visible" fill="url(#by)" d="M599 1498.638h12v40h-12z"/><path transform="scale(1 -1)" overflow="visible" fill="url(#bz)" d="M617 1498.638h12v18h-12z"/><path transform="scale(1 -1)" overflow="visible" fill="url(#bA)" d="M635 1498.638h12v26h-12z"/><path overflow="visible" opacity=".35" fill="url(#bB)" d="M582-1527.638h10v28h-10z"/><path overflow="visible" opacity=".35" fill="url(#bC)" d="M600-1537.638h10v38h-10z"/><path id="bK" overflow="visible" opacity=".75" fill="url(#bD)" d="M581-1528.638h12v1h-12z"/><path overflow="visible" opacity=".5" fill="url(#bE)" d="M577-1497.638h74v1h-74z"/><path overflow="visible" opacity=".75" fill="url(#bF)" d="M577-1494.638h74v1h-74z"/><path overflow="visible" opacity=".35" fill="url(#bG)" d="M636-1523.638h10v24h-10z"/><path overflow="visible" opacity=".35" fill="url(#bH)" d="M618-1515.638h10v16h-10z"/><path transform="scale(-1)" id="bJ" overflow="visible" opacity=".25" fill="url(#bI)" d="M-651 1545.638h74v1h-74z"/><use xlink:href="#bJ" transform="translate(0 53)" width="5033" height="1085"/><use xlink:href="#bK" transform="translate(18 -10)" width="5033" height="1085"/><use height="1085" width="5033" transform="translate(36 12)" xlink:href="#bK"/><use xlink:href="#bK" transform="translate(54 4)" width="5033" height="1085"/></g></g></svg>