<svg viewBox="0 0 24 24" xmlns="http://www.w3.org/2000/svg"><g fill="#3a3a38"><path d="m1.9999999 19.000002v-14.9999992h4.3632562v.5798749c0 .1137009-.04071.2103468-.1221295.2899375-.08142.073906-.1910229.1108584-.32881.1108584h-2.9123165v13.0386574h2.9123165c.1377871 0 .2473904.03695.32881.110859.08142.07959.1221295.176236.1221295.289937v.579875z"/><path d="m14.291829 16.866341q-.236058 0-.363166-.0713-.127107-.07129-.172503-.294059l-.19974-.810891q-.345006.31188-.680934.561386-.326849.240594-.690013.409901-.363165.169308-.780804.249506-.41764.089116-.91699.089116-.5175102 0-.9714662-.133664-.4448768-.142572-.7898833-.427721-.3359274-.29406-.535668-.721784-.1906615-.436633-.1906615-1.024752 0-.516832.2814527-.98911.2905318-.481187.9351492-.855445.6446177-.374259 1.6796371-.605942 1.035019-.240594 2.542153-.276237v-.668317q0-1.015842-.444877-1.523764-.435798-.5168319-1.280156-.5168319-.562905 0-.953308.1425744-.381322.142574-.662776.3118813-.2814511.1693071-.490271.3118812-.1997407.142574-.4085604.142574-.163424 0-.2814526-.0802-.1180285-.080189-.1906615-.204946l-.2905317-.4990081q.7354085-.6950499 1.5797662-1.033664.853437-.3475249 1.888456-.3475249.744488 0 1.325552.2405942.581063.2316833.971466.6683172.390401.4366339.590141 1.0425743.208821.6059413.208821 1.3455463v5.569309zm-3.322958-.962377q.399482 0 .735408-.0802.335929-.0802.63554-.222772.29961-.151485.562905-.365347.272373-.222773.535668-.490099v-1.800001q-1.062257.04456-1.806745.178218-.744488.124753-1.216601.338614-.4630363.21386-.6718552.507921-.2088197.285148-.2088197.641584 0 .338613.1089494.58812.1180281.240593.3086892.40099.1906613.151486.4539563.231684.263294.07129.562905.07129z"/><path d="m17.636741 4.0000028h4.36276v14.9999992h-4.36276v-.579875c0-.113701.04071-.210346.12213-.289937.08768-.07391.200417-.110859.338203-.110859h2.902926v-13.0386574h-2.902926c-.137786 0-.25052-.036953-.338203-.1108584-.08142-.079591-.12213-.1762366-.12213-.2899375z"/><path d="m19 4h1v15h-1z"/><path d="m4 4h1v15h-1z"/></g></svg>