<svg viewBox="0 0 24 24" xmlns="http://www.w3.org/2000/svg"><g fill="#3a3a38"><path d="m6.5042012 2.9919062c-.1822559.0044418-.3476515.1077205-.4316407.2695314l-4.0136719 7.9685384c-.083769.156973-.077819.346635.015625.498047l4.0117188 9.035696c.3414292.598154 1.2310859.0513.8515625-.523438l-3.8613281-8.789601 3.8769531-7.7165863c.1871249-.3378605-.0631064-.7512862-.4492187-.7421875z" fill-rule="evenodd"/><path d="m16.526047 2.9919066c.182256.00444.347652.1077205.431641.2695314l4.013672 7.968538c.08377.156973.07782.346635-.01563.498047l-4.011719 9.035696c-.341429.598154-1.231086.0513-.851563-.523438l3.861334-8.789601-3.876954-7.7165859c-.187124-.3378605.06311-.7512862.449219-.7421875z" fill-rule="evenodd"/><path d="m9 12.008065q0 .201612-.080975.387095-.080975.177418-.2267202.314514-.1376518.129033-.3238861.209677-.1781374.080649-.3805662.080649-.2024287 0-.380566-.080649-.1781372-.080649-.3157889-.209677-.1295543-.137096-.2105258-.314514-.0809718-.185483-.0809718-.387095 0-.209677.080972-.387095.080972-.185484.2105258-.32258.1376517-.137096.3157889-.217741.1781373-.080649.380566-.080649.2024288 0 .3805662.08065.1862343.08065.3238857.217741.1457494.137096.2267202.32258.0809752.177417.0809752.387094z"/><path d="m16 12.008065q0 .201612-.08097.387095-.08098.177418-.22672.314514-.137656.129033-.32389.209677-.178137.080649-.380566.080649-.202428 0-.380565-.080649-.178138-.080649-.315788-.209677-.129554-.137096-.210526-.314514-.080975-.185483-.080975-.387095 0-.209677.08097-.387095.08098-.185484.210526-.32258.13765-.137096.315788-.217741.178137-.080649.380565-.080649.202429 0 .380566.08065.186234.08065.323885.217741.145748.137096.22672.32258.08098.177417.08098.387094z"/><path d="m10.999999 3h1v17h-1z"/><path d="m9 7.008065q0 .201612-.080975.387095-.080975.177418-.2267202.314514-.1376518.129033-.3238861.209677-.1781374.080649-.3805662.080649-.2024287 0-.380566-.080649-.1781372-.080649-.3157889-.209677-.1295543-.137096-.2105258-.314514-.0809718-.185483-.0809718-.387095 0-.209677.080972-.387095.080972-.185484.2105258-.32258.1376517-.137096.3157889-.217741.1781373-.080649.380566-.080649.2024288 0 .3805662.08065.1862343.08065.3238857.217741.1457494.137096.2267202.32258.0809752.177417.0809752.387094z"/><path d="m16 7.008065q0 .201612-.08097.387095-.08098.177418-.22672.314514-.137656.129033-.32389.209677-.178137.080649-.380566.080649-.202428 0-.380565-.080649-.178138-.080649-.315788-.209677-.129554-.137096-.210526-.314514-.080975-.185483-.080975-.387095 0-.209677.08097-.387095.08098-.185484.210526-.32258.13765-.137096.315788-.217741.178137-.080649.380565-.080649.202429 0 .380566.08065.186234.08065.323885.217741.145748.137096.22672.32258.08098.177417.08098.387094z"/><path d="m9 17.008065q0 .201612-.080975.387095-.080975.177418-.2267202.314514-.1376518.129033-.3238861.209677-.1781374.080649-.3805662.080649-.2024287 0-.380566-.080649-.1781372-.080649-.3157889-.209677-.1295543-.137096-.2105258-.314514-.0809718-.185483-.0809718-.387095 0-.209677.080972-.387095.080972-.185484.2105258-.32258.1376517-.137096.3157889-.217741.1781373-.080649.380566-.080649.2024288 0 .3805662.08065.1862343.08065.3238857.217741.1457494.137096.2267202.32258.0809752.177417.0809752.387094z"/><path d="m16 17.008065q0 .201612-.08097.387095-.08098.177418-.22672.314514-.137656.129033-.32389.209677-.178137.080649-.380566.080649-.202428 0-.380565-.080649-.178138-.080649-.315788-.209677-.129554-.137096-.210526-.314514-.080975-.185483-.080975-.387095 0-.209677.08097-.387095.08098-.185484.210526-.32258.13765-.137096.315788-.217741.178137-.080649.380565-.080649.202429 0 .380566.08065.186234.08065.323885.217741.145748.137096.22672.32258.08098.177417.08098.387094z"/></g></svg>