<svg viewBox="0 0 24 24" xmlns="http://www.w3.org/2000/svg"><g fill="#3a3a38"><path d="m6.494164 15.896045q-.168613 0-.259404-.05544-.09079-.05544-.123216-.228713l-.142673-.630697q-.246433.242575-.486381.436634-.233463.187129-.492867.318812-.259402.131683-.557717.194059-.298314.0693-.654993.0693-.36965 0-.693904-.10396-.3177692-.110891-.5642022-.332673-.2399478-.228713-.3826198-.561387-.136187-.339604-.136187-.797029 0-.401981.201037-.769307.207523-.374258.6679638-.665347.4604412-.291089 1.1997402-.471287.7393-.187129 1.815824-.214851v-.519803q0-.790099-.317769-1.185148-.311284-.4019807-.914397-.4019807-.402075 0-.680933.1108917-.272374.110891-.473412.242574-.201038.131683-.350194.242574-.142672.110891-.2918302.110891-.116731 0-.201036-.06238-.08431-.06238-.136187-.159406l-.2075228-.38811q.5252918-.5405946 1.128404-.803961.609598-.270297 1.348898-.270297.531777 0 .946823.1871288.415045.1801981.693904.5198021.278858.3396041.42153.8108911.149157.471287.149157 1.046535v4.331683zm-2.373542-.748515q.285344 0 .525292-.06238.239948-.06238.453956-.173267.214007-.117822.402075-.284159.194553-.173267.38262-.381188v-1.4q-.758755.03465-1.290531.138614-.531778.09703-.869001.263366-.33074.166337-.479897.39505-.149157.221782-.149157.49901 0 .263366.07782.457425.0843.187129.220493.311882.136187.117821.324254.180198.188068.05545.402075.05545z"/><path d="m19.304582 16q-2.304582 0-2.304582-2.449275 0-2.52174 1.334232-3.8405804.727763-.710145 1.630728-.710145.902965 0 1.469003.391305.566037.376811.566037 1.0869554 0 .405798-.242588.724638-.242587.318841-.539083.318841-.592992 0-.6469-.521739.215633-.362319.215633-.652174 0-.6956524-.579515-.6956524-.822102 0-1.415094 1.1739134-.592992 1.173913-.592992 2.594203 0 .797102.309973 1.318841.32345.507246.956873.507246.350405 0 .781672-.188406.444744-.202899.700808-.405797l.256065-.202899.363881.536232q-.336927.362319-1.024259.695652-.673854.318841-1.239892.318841z"/><path d="m10 15.912256v-8.912256h1.025641v3.6539q.34965-.444987.798367-.70195.448719-.263232 1.031469-.263232.495338 0 .891609.206826.39627.206824.67599.595403.279721.388579.425408.946379.151515.551532.151515 1.253482 0 .745821-.168997 1.35376-.168998.607939-.483683 1.046658-.314686.43245-.763404.670612-.448717.238162-1.008158.238162-.559441 0-.938228-.225627-.37296-.231894-.664336-.639276l-.05828.545265q-.02331.231894-.250582.231894h-.664336zm2.511654-5.352367q-.472028 0-.833333.238161-.355478.238162-.65268.676881v2.958216q.268065.394847.588578.5578.320512.156685.705128.156685.786713 0 1.206294-.607938.41958-.60794.41958-1.811282 0-1.115598-.372961-1.642061-.37296-.526462-1.060606-.526462z"/></g><g fill="none" stroke="#3a3a38" stroke-linecap="round"><path d="m2.5067603 4.49995h18.9864797" stroke-width=".999644"/><path d="m18.5 1.5 3 3-3 3" stroke-linejoin="round"/></g></svg>