<svg viewBox="0 0 24 24" xmlns="http://www.w3.org/2000/svg"><g fill="#3a3a38"><path d="m17.000005 21.912256v-8.912256h1.025641v3.6539q.34965-.444987.798367-.70195.448719-.263232 1.031469-.263232.495338 0 .891609.206826.39627.206824.67599.595403.279721.388579.425408.946379.151515.551532.151515 1.253482 0 .745821-.168997 1.35376-.168998.607939-.483683 1.046658-.314686.43245-.763404.670612-.448717.238162-1.008158.238162-.559441 0-.938228-.225627-.37296-.231894-.664336-.639276l-.05828.545265q-.02331.231894-.250582.231894h-.664336zm2.511654-5.352367q-.472028 0-.833333.238161-.355478.238162-.65268.676881v2.958216q.268065.394847.588578.5578.320512.156685.705128.156685.786713 0 1.206294-.607938.41958-.60794.41958-1.811282 0-1.115598-.372961-1.642061-.37296-.526462-1.060606-.526462z"/><path d="m7.129192 17.058092q0 .674273.9729419.755185l-.131478.997927h-3.707699l-.2629569-.512449q.7099851-1.402491 3.3132625-4.099585l1.6303354-1.699169-1.5251528-3.5871379q-.341844-.8361001-.7099851-1.0248961-.341844-.2157677-1.0781246-.2157677l-.1314788-.8900418 2.7610523-.7821575.657393.5933606 1.8407011 4.3962674q2.15625-2.2655618 2.15625-2.9937767 0-.7282166-.841463-.8900418v-.8900426h3.497332l.420732.485478q.10518.10788-.999237 1.4294607-1.078127 1.3215764-2.314025 2.5892114l-1.41997 1.456432 1.840702 4.315353q.262956.56639.394436.620331.131478.02697.447028.02697.315548 0 1.157012-.512448l.262956.86307q-1.709222 1.510375-2.734756 1.510375-.709984 0-1.104421-.674274-.157773-.242738-.368139-.728215l-1.6829271-3.910787q-2.3403209 2.400415-2.3403209 3.371369z"/></g></svg>