<svg viewBox="0 0 24 24" xmlns="http://www.w3.org/2000/svg"><g fill="#3a3a38"><path d="m14.494164 6.9108957q-.168614 0-.259405-.04752-.09079-.04752-.123213-.1960398l-.142676-.5405978q-.246433.2079215-.48638.3742579-.233463.1603964-.492868.2732676-.259401.1128712-.557716.1663364-.298315.0594-.654993.0594-.36965 0-.693904-.089109-.317769-.0950491-.564201-.2851481-.239949-.1960398-.38262-.4811891-.136188-.2910893-.136188-.6831681 0-.3445553.201038-.6594064.207522-.3207927.667962-.5702977.460441-.249505 1.199741-.4039606.7393-.1603963 1.815824-.1841581v-.4455456q0-.6772281-.31777-1.0158418-.311284-.3445553-.914396-.3445553-.402075 0-.680933.09505-.272375.09505-.473412.2079207-.201038.1128712-.350194.2079207-.142672.09505-.29183.09505-.116737 0-.201036-.053469-.08431-.053469-.136186-.1366338l-.207524-.3326657q.525292-.4633674 1.128404-.6891098.609598-.2316833 1.348898-.2316833.531777 0 .946823.1603964.415045.1544555.693904.4455448.278857.2910893.42153.6950498.149157.4039605.149157.8970305v3.7128733zm-2.373543-.6415847q.285345 0 .525293-.053469.239947-.053469.453956-.1485146.214008-.1009904.402075-.243565.194554-.1485147.38262-.3267328v-1.2000007q-.758755.0297-1.290531.1188121-.531778.083169-.869.2257424-.330741.1425746-.479898.3386145-.149157.1900989-.149157.4277231 0 .2257424.07781.3920788.0843.1603963.220494.2673276.136186.1009894.324254.1544555.188069.047529.402075.047529z"/><path d="m12.304582 23q-2.304582 0-2.304582-2.099379 0-2.161491 1.334232-3.291925.727763-.608696 1.630728-.608696.902965 0 1.469004.335404.566036.322981.566036.931676 0 .347827-.242587.621118-.242588.273293-.539083.273293-.592992 0-.646901-.447205.215633-.310559.215633-.559007 0-.596273-.579515-.596273-.822102 0-1.415094 1.006211-.592992 1.006212-.592992 2.223603 0 .68323.309974 1.130435.323449.434782.956872.434782.350406 0 .781672-.16149.444744-.173914.700809-.347826l.256064-.173914.363881.459628q-.336927.310559-1.024258.596273-.673855.273292-1.239893.273292z"/><path d="m9.9999997 15.922006v-7.922006h1.0256413v3.247911q.34965-.395544.798367-.623956.448718-.233984 1.031469-.233984.495337 0 .891609.183846.39627.183844.67599.529247.279722.345403.425408.841226.151515.490251.151515 1.114206 0 .662952-.168996 1.203342-.168999.540391-.483684.930363-.314686.3844-.763405.5961-.448716.211699-1.008157.211699-.559441 0-.938228-.200558-.37296-.206128-.664336-.568244l-.05828.48468q-.02331.206128-.250583.206128h-.664336zm2.5116543-4.75766q-.472028 0-.833333.211699-.355478.211699-.65268.601672v2.629525q.268065.350975.588578.495822.320512.139275.705127.139275.786713 0 1.206295-.540389.41958-.540391.41958-1.610028 0-.991643-.372962-1.45961-.37296-.467966-1.060605-.467966z"/></g></svg>