<svg height="96" viewBox="0 0 96 96" width="96" xmlns="http://www.w3.org/2000/svg"><g fill="none" stroke="#1e8bcd" stroke-linecap="round" stroke-linejoin="round"><path d="m30.507128 65.49995h22.996743"/><path d="m41.507039 85.497331 22.985923.0027" stroke-width=".999837"/><path d="m51.50505 70.500237-4-4-4 4"/><path d="m47.50505 66.492879v17.507121"/><path d="m51.50505 80.500021-4 4-4-4"/></g><g fill="#3a3a38"><path d="m4.8275862 63.42029q4.8827585-30.559004 4.8827585-31.80124 0-1.325052-1.2413793-1.821947-1.2413792-.496894-4.0551723-.496894l-.4137931-2.732918 11.255172-2.567289 2.068965 2.070394-.827585 7.619047q5.37931-9.689441 13.075862-9.689441 4.634482 0 6.951723 2.401656 2.4 2.401657 2.4 6.873706 5.462069-9.275362 12.827586-9.275362 4.468966 0 6.868965 2.318841 2.482759 2.318841 2.482759 6.542443 0 1.407867-.331034 3.312629l-3.062069 18.385092q-.413793 2.070393-.413793 2.484472 0 1.242237 1.572413 1.242237 1.655172 0 4.303449-1.573499l.827586 2.650103q-5.379311 4.637681-9.517241 4.637681-2.813794 0-3.724139-1.076605-.910345-1.15942-.910345-2.815734 0-1.656315 1.986208-13.084886 1.986207-11.428571 1.986207-13.498964 0-2.070393-1.24138-3.478261-1.15862-1.490683-3.475862-1.490683-2.234483 0-4.386206 1.656314-2.151725 1.656315-3.64138 4.637682-1.489655 2.89855-2.648275 6.211179-1.158621 3.312629-1.986207 7.453416-1.158622 6.376812-1.737932 10.517598-.57931 4.140787-.57931 4.389233h-7.034482q.248275-1.821945 1.406896-8.861283 3.144828-18.21946 3.144828-20.621116 0-2.484472-1.24138-3.89234-1.15862-1.490683-3.144827-1.490683-4.8 0-8.35862 6.459627-3.558622 6.459627-4.882759 14.906832l-2.151724 13.498963z"/><path d="m67.410643 83.437417q9.536122-7.731958 13.186312-12.503681 3.695818-4.815906 3.695818-8.571429 0-3.799706-2.874525-3.799706-1.733841 0-2.828898 1.413844-1.095057 1.369662-1.095057 2.960235 0 1.590575.456274 2.650958-1.825095 1.502209-3.604563 1.502209-1.73384 0-2.692015-.839469-.912547-.83947-.912547-2.385863 0-3.622974 3.422053-5.74374 3.467681-2.120766 7.48289-2.120766 4.060836 0 6.707224 1.767305 2.646388 1.767305 2.646388 5.036819 0 4.153167-3.330799 8.350516-3.330798 4.197348-11.543726 10.515463h12.273764l-.730038 4.329897h-20.669202z"/></g></svg>