<svg height="96" viewBox="0 0 96 96" width="96" xmlns="http://www.w3.org/2000/svg"><g fill="none" stroke="#1e8bcd" stroke-linecap="round" stroke-linejoin="round"><path d="m41.509892 60.5 12.980216-.0025" stroke-width="1.004882"/><path d="m41.509684 94.497272h12.980631" stroke-width="1.004882"/><path d="m52 89.492642-4 4-4-4"/><path d="m48 93.5v-32"/><path d="m52 65.49495-4-4-4 4"/></g><g fill="#3a3a38"><path d="m26.730161 42.527735q-.450291.149925-.750484.149925-.270175 0-.570369-.05997-.06004-1.97901-.750485-3.028486h-5.523568l-1.200776 7.526237q2.52163-.05997 3.212075-.149925 1.170757-.08996 1.951261-1.979011h.96062l-.930601 5.847077h-.930601q0-.689655-.270175-1.289355-.240154-.599704-.510329-.719645-.240156-.149925-.600388-.17991l-3.122016-.11994-1.230796 7.766118h5.823762q.99064-1.109445 1.801164-3.358321.360233-.05997.540349-.05997.210136 0 .690446.05997l-1.080698 5.067466h-13.238552l.150097-1.109445q1.771144-.209896 2.701745-.77961l2.581667-16.22189q-.990639-.5997-2.581667-.77961l.150097-1.109445h13.178513l-.450291 4.527736z"/><path d="m45.629412 57.783507q1.868616-11.412371 1.868616-11.876288 0-.494845-.475072-.680413-.475072-.185567-1.551901-.185567l-.158357-1.020618 4.307317-.958764.791787.773196-.316714 2.845361q2.058644-3.618557 5.00409-3.618557 1.773602 0 2.660402.896908.918473.896907.918473 2.56701 2.090315-3.463918 4.909075-3.463918 1.710259 0 2.628732.86598.950143.86598.950143 2.443299 0 .525774-.126686 1.237114l-1.171843 6.865979q-.158358.773196-.158358.927835 0 .463917.601758.463917.633429 0 1.646916-.587629l.316714.989691q-2.058644 1.731959-3.642217 1.731959-1.07683 0-1.425216-.402062-.348386-.43299-.348386-1.051547 0-.618556.760115-4.886597.760115-4.268041.760115-5.041237 0-.773196-.475072-1.29897-.4434-.556701-1.330202-.556701-.855128 0-1.678587.618557-.823457.618557-1.393544 1.731959-.570086 1.082474-1.013486 2.319587-.4434 1.237114-.760116 2.783506-.4434 2.381443-.6651 3.927834-.2217 1.546392-.2217 1.639176h-2.692074q.09501-.680412.538414-3.309278 1.203516-6.804124 1.203516-7.701031 0-.927835-.475072-1.453609-.4434-.556701-1.203515-.556701-1.836945 0-3.198817 2.412371-1.361873 2.412372-1.868616 5.567011l-.823459 5.041237z"/><path d="m82.046145 54.721651-.09501.680413q0 .463917.633429.463917.633429 0 1.646916-.587629l.316715.989691q-2.058645 1.731959-3.610546 1.731959-1.07683 0-1.425216-.402062-.348386-.402062-.348386-.958763 0-.587629.253372-1.886598-2.248674 3.247423-4.592362 3.247423-2.312017 0-3.198817-1.42268-.886801-1.453609-.886801-3.989691 0-2.536083.823458-4.639176.823457-2.13402 2.502045-3.525772 1.678588-1.422681 3.610547-1.422681 1.931958 0 3.70556.804124l1.615244-.742269.918473.43299-1.868617 11.226804zm-6.460977 1.670103q1.330201 0 2.755417-2.226804 1.425215-2.257732 1.995301-5.690721l.538416-3.247423q-1.171844-.742268-2.502046-.742268-1.330201 0-2.533716 1.391752-1.171844 1.360825-1.741931 3.15464-.538414 1.793814-.538414 3.463917 0 3.896907 2.026973 3.896907z"/><path d="m29 52h13v2h-13z"/><path d="m29 47h13v2h-13z"/></g></svg>