<svg height="96" viewBox="0 0 96 96" width="96" xmlns="http://www.w3.org/2000/svg"><g fill="none" stroke="#1e8bcd" stroke-linecap="round" stroke-linejoin="round"><path d="m73.509892 31.500237 12.980216-.0025" stroke-width="1.004882"/><path d="m47.5 77.497509h38.990315"/><path d="m84.50505 72.485521-4 4-4-4"/><path d="m80.50505 76.492879v-44"/><path d="m84.50505 36.487829-4-4-4 4"/></g><g fill="#3a3a38"><path d="m4.8275862 75.42029q4.8827585-30.559004 4.8827585-31.801241 0-1.325052-1.2413793-1.821946-1.2413792-.496894-4.0551723-.496894l-.4137931-2.732919 11.255172-2.567288 2.068965 2.070394-.827585 7.619046q5.37931-9.68944 13.075862-9.68944 4.634482 0 6.951723 2.401656 2.4 2.401656 2.4 6.873706 5.462069-9.275362 12.827586-9.275362 4.468966 0 6.868965 2.31884 2.482759 2.318841 2.482759 6.542444 0 1.407866-.331034 3.312628l-3.062069 18.385093q-.413793 2.070394-.413793 2.484472 0 1.242236 1.572413 1.242236 1.655172 0 4.303449-1.573498l.827586 2.650103q-5.379311 4.637681-9.517241 4.637681-2.813794 0-3.724139-1.076605-.910345-1.15942-.910345-2.815734 0-1.656316 1.986208-13.084886 1.986207-11.428572 1.986207-13.498965 0-2.070393-1.24138-3.47826-1.15862-1.490683-3.475862-1.490683-2.234483 0-4.386206 1.656314-2.151725 1.656315-3.64138 4.637681-1.489655 2.898551-2.648275 6.211179-1.158621 3.31263-1.986207 7.453417-1.158622 6.376811-1.737932 10.517597-.57931 4.140787-.57931 4.389234h-7.034482q.248275-1.821945 1.406896-8.861283 3.144828-18.219461 3.144828-20.621117 0-2.484472-1.24138-3.892339-1.15862-1.490683-3.144827-1.490683-4.8 0-8.35862 6.459626-3.558622 6.459627-4.882759 14.906832l-2.151724 13.498964z"/><path d="m78 10c-.941933 2.215425-1.63833 19.344994 0 20 2.909136 1.163077 8.575273-12.37903 12-20 2.579837-5.6289809-5.572674-15.1170544-12 0z" fill-rule="evenodd"/></g></svg>