<svg height="96" viewBox="0 0 96 96" width="96" xmlns="http://www.w3.org/2000/svg"><g fill="#3a3a38"><path d="m17.73016 42.527735q-.450291.149925-.750485.149925-.270175 0-.570369-.05997-.06003-1.97901-.750485-3.028486h-5.523568l-1.2007751 7.526237q2.5216291-.05997 3.2120751-.149925 1.170756-.08996 1.95126-1.979011h.960621l-.930602 5.847077h-.930601q0-.689655-.270173-1.289355-.240156-.5997-.510331-.719641-.240154-.149925-.600388-.17991l-3.1220162-.11994-1.2307951 7.766118h5.8237623q.990639-1.109445 1.801164-3.358321.360232-.05997.540348-.05997.210137 0 .690447.05997l-1.080698 5.067466h-13.2385528l.150097-1.109445q1.7711442-.2099 2.7017454-.779614l2.5816677-16.22189q-.99064-.5997-2.5816677-.77961l.1500969-1.109445h13.1785135l-.450291 4.527736z"/><path d="m36.629409 57.783507q1.868615-11.412371 1.868615-11.876288 0-.494845-.475071-.680413-.475072-.185567-1.551902-.185567l-.158357-1.020618 4.307319-.958764.791786.773196-.316715 2.845361q2.058645-3.618557 5.00409-3.618557 1.773602 0 2.660403.896908.918473.896907.918473 2.56701 2.090316-3.463918 4.909076-3.463918 1.710258 0 2.62873.86598.950144.86598.950144 2.443299 0 .525774-.126686 1.237114l-1.171844 6.865979q-.158357.773196-.158357.927835 0 .463917.601757.463917.63343 0 1.646916-.587629l.316715.989691q-2.058645 1.731959-3.642218 1.731959-1.076829 0-1.425216-.402062-.348385-.43299-.348385-1.051547 0-.618556.760115-4.886597.760115-4.268041.760115-5.041237 0-.773196-.475072-1.29897-.4434-.556701-1.330201-.556701-.85513 0-1.678588.618557-.823458.618557-1.393544 1.731959-.570086 1.082474-1.013487 2.319587-.4434 1.237114-.760114 2.783506-.4434 2.381443-.6651 3.927834-.221702 1.546392-.221702 1.639176h-2.692073q.09501-.680412.538415-3.309278 1.203515-6.804124 1.203515-7.701031 0-.927835-.475071-1.453609-.443401-.556701-1.203516-.556701-1.836944 0-3.198817 2.412371-1.361873 2.412372-1.868616 5.567011l-.823458 5.041237z"/><path d="m73.046142 54.721651-.09501.680413q0 .463917.633429.463917.633429 0 1.646915-.587629l.316716.989691q-2.058646 1.731959-3.610547 1.731959-1.076829 0-1.425216-.402062-.348386-.402062-.348386-.958763 0-.587629.253372-1.886598-2.248673 3.247423-4.592361 3.247423-2.312017 0-3.198817-1.42268-.886801-1.453609-.886801-3.989691 0-2.536083.823457-4.639176.823459-2.13402 2.502046-3.525772 1.678587-1.422681 3.610546-1.422681 1.93196 0 3.705561.804124l1.615244-.742269.918472.43299-1.868616 11.226804zm-6.460977 1.670103q1.330201 0 2.755417-2.226804 1.425216-2.257732 1.995302-5.690721l.538414-3.247423q-1.171843-.742268-2.502045-.742268-1.330201 0-2.533717 1.391752-1.171844 1.360825-1.74193 3.15464-.538414 1.793814-.538414 3.463917 0 3.896907 2.026973 3.896907z"/></g><g fill="none" stroke="#1e8bcd" stroke-linecap="round" stroke-linejoin="round"><path d="m95.5 56.5.0025 12.980216" stroke-width="1.004882"/><path d="m76.502491 56.499585v12.980631" stroke-width="1.004882"/><path d="m81.507121 69.49495-4-4 4-4"/><path d="m77.507121 65.49495h16.992879"/><path d="m90.50505 69.49495 4-4-4-4"/></g><g fill="#3a3a38"><path d="m20 52h13v2h-13z"/><path d="m20 47h13v2h-13z"/></g></svg>