<svg height="96" viewBox="0 0 96 96" width="96" xmlns="http://www.w3.org/2000/svg"><g fill="none" stroke="#1e8bcd" stroke-linecap="round" stroke-linejoin="round"><path d="m73.50989 25.497508 14.98022-.0025" stroke-width="1.004882"/><path d="m85.50505 20.49015-4 4-4-4"/><path d="m81.50505 41.492879v-10"/><path d="m85.50505 35.487829-4-4-4 4"/><path d="m81.50505 24.497508v-10"/><path d="m73.50989 30.497508 14.98022-.0025" stroke-width="1.004882"/></g><g fill="#3a3a38"><path d="m20.932772 12.746947q0-.612213-.426347-.78713-.397924-.174919-1.364311-.174919l-.142116-.962049 4.036087-.903742.710577.728825q-1.648541 10.145239-1.648541 10.611687 0 .466448.08527.612212.113693.116612.540039.116612.454771 0 1.364311-.553906l.284232.932895q-1.847504 1.632567-3.268661 1.632567-.966387 0-1.279041-.378989-.312655-.378988-.312655-.991201 0-.641366.710578-5.189232.710579-4.577018.710579-4.69363zm3.496046-6.5885751q0 .7871306-.483193 1.3410373-.45477.5539068-1.136925.5539068-1.392734 0-1.392734-1.3118845 0-.9620485.45477-1.5159552.483193-.5539068 1.165349-.5539068.682155 0 1.023233.3498358.3695.3498359.3695 1.1369666z"/><path d="m64.124803 24.000001h-1.27457l-10.078003-16.2143925v14.1993995q.978159.598201 2.875195.850075l-.118565 1.164918h-7.528861l.177847-1.164918q1.719189-.220389 2.72699-.850075v-17.0014984q-1.156006-.6296851-2.904837-.8500748.118565-.7556222.148206-1.1334333h4.712948l9.336974 14.9865055v-13.0029974q-1.037442-.5982008-2.845554-.8500748.029642-.3778111.148206-1.1334333h7.499219q-.118564.7556222-.148205 1.1334333-1.630265.1889055-2.72699.8500748z"/><path d="m31 10h12v2h-12z"/><path d="m31 14h12v2h-12z"/><path d="m65.000004 75.304358-.97517 14.695646h-47.024833v-3.478255l18.961627-26.173912-17.878105-24.347826 2.167043-4h42.257338l.975169 13.130435c-1.258783.408956-1.33863.382559-2.887136.260866-1.011287-3.536232-2.708804-7.072472-5.092551-9.391312h-30.801353l17.336344 24.260878-17.986456 25.739122h33.1851c2.528217-2.608695 4.225734-6.811586 5.092551-10.695644.899072-.07251 1.781996-.09499 2.670432.000002z"/></g></svg>