<svg height="96" viewBox="0 0 96 96" width="96" xmlns="http://www.w3.org/2000/svg"><path d="m31.738533 33.62885-.123853.907217q0 .618556.825688.618556.825688 0 2.146789-.783505l.412844 1.319588q-2.683487 2.309278-4.706422 2.309278-1.40367 0-1.857798-.536083-.454128-.536082-.454128-1.27835 0-.783505.330275-2.515464-2.931193 4.329897-5.986238 4.329897-3.013762 0-4.169725-1.896908-1.155963-1.938144-1.155963-5.319586 0-3.381444 1.073395-6.185568 1.073394-2.845361 3.261467-4.70103 2.188074-1.896908 4.706421-1.896908 2.518349 0 4.830275 1.072166l2.105505-.989691 1.197247.577319zm-8.422018 2.226804q1.733945 0 3.591743-2.969072 1.857798-3.010309 2.600917-7.587629l.701835-4.329897q-1.527523-.98969-3.261467-.98969-1.733946 0-3.302752 1.85567-1.527523 1.814433-2.270642 4.206185-.701835 2.391753-.701835 4.618557 0 5.195876 2.642201 5.195876z" fill="#3a3a38"/><g fill="none" stroke="#1e8bcd" stroke-linecap="round" stroke-linejoin="round"><path d="m58.507121 40.510193.0025 12.98021" stroke-width="1.004882"/><path d="m40.514479 51.505643-4-4 4-4"/><path d="m36.5 47.505643h21.007121"/><path d="m53.512171 51.505643 4-4-4-4"/><path d="m35.502493 40.510193.0025 12.98021" stroke-width="1.004882"/></g><g fill="#3a3a38"><path d="m66.01835 37.999984q-7.059632 0-7.059632-6.969072 0-7.175257 4.087155-10.927834 2.229358-2.020619 4.995413-2.020619 2.766055 0 4.5 1.113402 1.733944 1.072165 1.733944 3.092783 0 1.154639-.743119 2.061856-.743119.907216-1.651376.907216-1.816513 0-1.981651-1.484536.660551-1.030928.660551-1.85567 0-1.979381-1.775229-1.979381-2.518349 0-4.334863 3.340206-1.816513 3.340206-1.816513 7.381443 0 2.268041.949541 3.752578.990825 1.443298 2.931192 1.443298 1.073395 0 2.394496-.536082 1.362385-.57732 2.146788-1.15464l.784404-.577319 1.114678 1.525773q-1.032109 1.030928-3.137614 1.979381-2.06422.907217-3.798165.907217z"/><path d="m19.683488 77.175233q-.412844-.164949-.825688-.618558-.37156-.494845-.37156-1.072164 0-.57732.206422-2.020619 1.444954-8.865979 2.353212-14.556701.908256-5.690721.908256-6.061855 0-1.731959-3.178899-2.061856l.206422-1.360824 5.986238-.453608 1.032111 1.030927-1.981652 12.123711q2.80734-4.041237 5.779817-4.041237 3.01376 0 4.169723 1.938145 1.155963 1.938144 1.155963 5.195875 0 3.216496-1.197246 6.103093-1.197248 2.845361-3.509175 4.783505-2.311926 1.896908-4.871559 1.896908-2.559633 0-4.004587-.329897-1.40367-.371134-1.857798-.494845zm5.325688-1.030929q2.683485 0 4.541284-3.463917 1.899083-3.505155 1.899083-7.216494 0-5.237114-2.642202-5.237114-1.940368 0-4.004587 3.917526-2.064221 3.876288-2.766055 10.474226 0 .701031.825688 1.113402.866972.412371 2.146789.412371z"/><path d="m70.541284 58.948428q0 0 1.073395-6.103092 0-1.731959-3.178899-2.061856l.206422-1.360824 5.986239-.453608.94954 1.030927-3.839449 23.752576q-.123853.618558-.123853.783506 0 .618557.825688.618557.825688 0 2.146789-.783505l.412843 1.319587q-2.683485 2.309279-4.665136 2.309279-1.444955 0-1.899083-.536083-.454128-.536083-.454128-1.27835 0-.783506.330275-2.515464-2.931192 4.329897-5.986238 4.329897-3.013762 0-4.169725-1.896908-1.155963-1.938144-1.155963-5.195876 0-3.298969 1.03211-6.103092 1.073395-2.845361 3.220184-4.783505 2.146789-1.938145 4.706421-1.938145 2.600917 0 4.582568.865979zm-7.22477 16.907217q1.733946 0 3.591743-2.969072 1.857798-3.01031 2.600918-7.587629l.701834-4.329897q-1.568807-1.030928-3.09633-1.030928-2.72477 0-4.582568 3.505155-1.857798 3.505155-1.857798 7.216494 0 5.195877 2.642201 5.195877z"/><path d="m5 12v2 68 2h12v-2h-8v-68h8v-2z"/><path d="m91 12v2 68 2h-12v-2h8v-68h-8v-2z"/></g></svg>