<svg viewBox="0 0 24 24" xmlns="http://www.w3.org/2000/svg"><g fill="#3a3a38"><path d="m16.60766 17.20747q0 .622405.810785.697093l-.109565.921164h-3.089749l-.219131-.47303q.591654-1.294607 2.761053-3.784232l1.358612-1.568464-1.270961-3.3112043q-.28487-.7717847-.591654-.9460579-.28487-.1991702-.898437-.1991702l-.109565-.8215771 2.300876-.7219915.547828.5477175 1.533917 4.0580925q1.796875-2.0912874 1.796875-2.7634857 0-.6722-.701219-.8215771v-.8215778h2.914443l.35061.4481336q.08765.099582-.832697 1.3195022-.898439 1.2199168-1.928354 2.3900408l-1.183309 1.344399 1.533919 3.983403q.21913.522822.328696.572613.109565.0249.372524.0249.262956 0 .964176-.473029l.21913.79668q-1.424351 1.394188-2.278963 1.394188-.591653 0-.920351-.622407-.131477-.224066-.306782-.672198l-1.402439-3.609957q-1.950268 2.215767-1.950268 3.112032z"/><g font-family="sans-serif" font-size="22.779793" letter-spacing="0" word-spacing="0"><text transform="scale(.96567394 1.0355462)" x="1.078926" y="18.462069"><tspan fill="#3a3a38" font-family="Carlito" x="1.078926" y="18.462069">∫</tspan></text><g transform="scale(.96567396 1.0355462)"><text x="5.221111" y="18.462069"><tspan fill="#3a3a38" font-family="Carlito" x="5.221111" y="18.462069">∫</tspan></text><text x="9.363296" y="18.462069"><tspan fill="#3a3a38" font-family="Carlito" x="9.363296" y="18.462069">∫</tspan></text></g></g></g></svg>