<svg viewBox="0 0 24 24" xmlns="http://www.w3.org/2000/svg"><g fill="#3a3a38"><path d="m18.291829 16.866341q-.236058 0-.363166-.0713-.127107-.07129-.172503-.294059l-.19974-.810891q-.345006.31188-.680934.561386-.326849.240594-.690013.409901-.363165.169308-.780804.249506-.41764.089116-.91699.089116-.51751 0-.971466-.133664-.444877-.142572-.789884-.427721-.335927-.29406-.535668-.721784-.190661-.436633-.190661-1.024752 0-.516832.281453-.98911.290531-.481187.935149-.855445.644618-.374259 1.679637-.605942 1.035019-.240594 2.542153-.276237v-.668317q0-1.015842-.444877-1.523764-.435798-.516832-1.280156-.516832-.562905 0-.953308.142574-.381322.142574-.662776.311882-.281451.169307-.490271.311881-.199741.142574-.40856.142574-.163424 0-.281453-.0802-.118028-.08019-.190661-.204946l-.290532-.499008q.735408-.69505 1.579766-1.033664.853437-.347525 1.888456-.347525.744488 0 1.325552.240594.581063.231684.971466.668317.390401.436634.590141 1.042575.208821.605941.208821 1.345546v5.569309zm-3.322958-.962377q.399482 0 .735408-.0802.335929-.0802.63554-.222772.29961-.151485.562905-.365347.272373-.222773.535668-.490099v-1.800001q-1.062257.04456-1.806745.178218-.744488.124753-1.216601.338614-.463036.21386-.671855.507921-.20882.285148-.20882.641584 0 .338613.10895.58812.118028.240593.308689.40099.190661.151486.453956.231684.263294.07129.562905.07129z"/><rect height="1" ry=".5" width="7" x="3" y="12"/><rect height="7" ry=".5" width="1" x="6" y="9"/></g></svg>