<?xml version="1.0" encoding="UTF-8" standalone="no"?>
<svg
   xmlns:pmml2svg="https://sourceforge.net/projects/pmml2svg/"
   xmlns:dc="http://purl.org/dc/elements/1.1/"
   xmlns:cc="http://creativecommons.org/ns#"
   xmlns:rdf="http://www.w3.org/1999/02/22-rdf-syntax-ns#"
   xmlns:svg="http://www.w3.org/2000/svg"
   xmlns="http://www.w3.org/2000/svg"
   id="svg60"
   viewBox="0 0 259.19443333333334 54.962500000000006"
   height="54.962500000000006px"
   width="259.19443333333334px"
   version="1.1">
  <defs
     id="defs64" />
  <metadata
     id="metadata2">
    <pmml2svg:baseline-shift>24.137500000000003</pmml2svg:baseline-shift>
    <rdf:RDF>
      <cc:Work
         rdf:about="">
        <dc:format>image/svg+xml</dc:format>
        <dc:type
           rdf:resource="http://purl.org/dc/dcmitype/StillImage" />
      </cc:Work>
    </rdf:RDF>
  </metadata>
  <g
     style="font-family:STIXGeneral, STIXSizeOneSym;fill:#000000;stroke:none;text-rendering:optimizeLegibility"
     id="g58">
    <g
       id="g56"
       style="font-family:STIXGeneral, STIXSizeOneSym">
      <g
         id="g54"
         style="font-family:STIXGeneral, STIXSizeOneSym">
        <g
           id="text4"
           style="font-size:25px;font-family:STIXGeneral, STIXSizeOneSym;fill:#000000"
           aria-label="cot">
          <path
             id="path66"
             style="font-size:25px;font-family:STIXGeneral, STIXSizeOneSym;fill:#000000"
             d="m 14.95,26.925001 c -1.2,1.75 -2.1,2.35 -3.525,2.35 -2.3,0 -3.875,-2 -3.875,-4.875 0,-2.6 1.375,-4.35 3.4,-4.35 0.9,0 1.225,0.275 1.475,1.2 l 0.15,0.55 c 0.2,0.725 0.65,1.15 1.2,1.15 0.65,0 1.175,-0.475 1.175,-1.05 0,-1.4 -1.75,-2.575 -3.85,-2.575 -1.175,0 -2.375,0.45 -3.375,1.275 -1.35,1.125 -2.1,2.85 -2.1,4.925 0,3.225 1.975,5.55 4.75,5.55 1.075,0 2.025,-0.35 2.875,-1.05 0.75,-0.6 1.25,-1.325 2.05,-2.875 z" />
          <path
             id="path68"
             style="font-size:25px;font-family:STIXGeneral, STIXSizeOneSym;fill:#000000"
             d="m 27.833984,25.050001 c 0,-3.45 -2.35,-5.725 -5.4,-5.725 -3.375,0 -5.625,2.325 -5.625,5.8 0,3.475 2.375,5.95 5.4,5.95 3.375,0 5.625,-2.55 5.625,-6.025 z m -2.25,0.675 c 0,2.9 -1.1,4.65 -2.95,4.65 -0.9,0 -1.7,-0.45 -2.25,-1.25 -0.925,-1.35 -1.325,-3.15 -1.325,-5.125 0,-2.5 1.175,-3.975 2.9,-3.975 1.075,0 1.775,0.5 2.375,1.25 0.8,1.025 1.25,2.75 1.25,4.45 z" />
          <path
             id="path70"
             style="font-size:25px;font-family:STIXGeneral, STIXSizeOneSym;fill:#000000"
             d="m 35.038672,28.900001 c -0.55,0.65 -0.95,0.875 -1.5,0.875 -0.925,0 -1.3,-0.65 -1.3,-2.25 v -7.15 h 2.525 v -0.8 h -2.525 v -2.9 c 0,-0.25 -0.05,-0.325 -0.175,-0.325 -0.15,0.25 -0.35,0.475 -0.5,0.7 -0.95,1.375 -1.775,2.3 -2.425,2.675 -0.275,0.175 -0.425,0.325 -0.425,0.475 0,0.075 0.025,0.125 0.1,0.175 h 1.325 v 7.525 c 0,2.1 0.75,3.175 2.2,3.175 1.25,0 2.2,-0.6 3.025,-1.9 z" />
        </g>
        <g
           id="g52"
           style="font-family:STIXGeneral, STIXSizeOneSym">
          <g
             id="g20"
             style="font-family:STIXGeneral, STIXSizeOneSym">
            <g
               id="text6"
               style="font-size:25px;font-family:STIXGeneral, STIXSizeOneSym;fill:#000000"
               aria-label="(">
              <path
                 id="path73"
                 style="font-size:25px;font-family:STIXGeneral, STIXSizeOneSym;fill:#000000"
                 d="m 43.175001,34.850001 c -3.5,-2.925 -4.25,-5.75 -4.25,-10.4 0,-4.825 0.775,-7.15 4.25,-10.125 l -0.225,-0.4 c -4,2.375 -6.175,5.975 -6.175,10.6 0,4.25 2.15,8.475 6.1,10.725 z" />
            </g>
            <g
               id="g16"
               style="font-family:STIXGeneral, STIXSizeOneSym">
              <g
                 id="g14"
                 style="font-family:STIXGeneral, STIXSizeOneSym">
                <g
                   id="text8"
                   style="font-style:italic;font-size:25px;font-family:STIXGeneral, STIXSizeOneSym;fill:#000000"
                   aria-label="a">
                  <path
                     id="path76"
                     style="font-style:italic;font-size:25px;font-family:STIXGeneral, STIXSizeOneSym;fill:#000000"
                     d="m 55.475002,28.050001 -0.675,0.725 c -0.75,0.825 -1.075,1.025 -1.3,1.025 -0.2,0 -0.35,-0.15 -0.35,-0.325 0,-0.5 1.05,-4.8 2.225,-9.075 0.075,-0.25 0.1,-0.3 0.15,-0.525 l -0.175,-0.075 -1.525,0.175 -0.075,0.075 -0.275,1.2 c -0.2,-0.925 -0.925,-1.45 -2,-1.45 -3.325,0 -7.15,4.525 -7.15,8.4 0,1.9 1.1,2.9 2.5,2.9 1.75,0 3.2,-1.1 5.075,-3.925 -0.525,2.05 -0.575,2.25 -0.575,2.875 0,0.725 0.3,1.025 1,1.025 1,0 1.6,-0.475 3.475,-2.75 z m -2.45,-6.25 c 0,1.775 -0.75,3.925 -1.925,5.625 -0.75,1.075 -1.925,2.45 -3.175,2.45 -0.9,0 -1.5,-0.475 -1.5,-1.85 0,-1.575 0.875,-3.8 1.925,-5.375 1.05,-1.525 2.15,-2.3 3.275,-2.3 0.875,0 1.4,0.575 1.4,1.45 z" />
                </g>
                <g
                   id="text10"
                   style="font-size:25px;font-family:STIXGeneral, STIXSizeOneSym;fill:#000000"
                   aria-label="+">
                  <path
                     id="path79"
                     style="font-size:25px;font-family:STIXGeneral, STIXSizeOneSym;fill:#000000"
                     d="m 77.880549,25.325001 v -1.65 h -6.525 v -6.525 h -1.65 v 6.525 h -6.525 v 1.65 h 6.525 v 6.525 h 1.65 v -6.525 z" />
                </g>
                <g
                   id="text12"
                   style="font-style:italic;font-size:25px;font-family:STIXGeneral, STIXSizeOneSym;fill:#000000"
                   aria-label="bi">
                  <path
                     id="path82"
                     style="font-style:italic;font-size:25px;font-family:STIXGeneral, STIXSizeOneSym;fill:#000000"
                     d="m 88.736102,23.575001 2.1,-7.65 0.525,-2.05 -0.125,-0.125 c -1.25,0.225 -2.15,0.375 -3.825,0.575 v 0.425 c 1.475,0.05 1.6,0.075 1.6,0.625 0,0.225 -0.075,0.575 -0.225,1.175 l -3.55,13.075 v 0.15 c 0,0.75 1.825,1.325 3.25,1.325 3.875,0 8,-4.35 8,-8.3 0,-1.925 -1.225,-3 -2.9,-3 -1.75,0 -3.125,0.95 -4.825,3.775 z m 5.625,-0.4 c 0,1.85 -1.25,4.325 -2.75,5.875 -0.925,0.95 -2,1.475 -3.075,1.475 -0.775,0 -1.15,-0.275 -1.15,-0.85 0,-1.5 0.7,-3.925 1.8,-5.775 1.075,-1.825 2.225,-2.875 3.425,-2.875 1.1,0 1.75,0.625 1.75,2.15 z" />
                  <path
                     id="path84"
                     style="font-style:italic;font-size:25px;font-family:STIXGeneral, STIXSizeOneSym;fill:#000000"
                     d="m 103.7611,15.850001 c 0,-0.725 -0.575,-1.375 -1.25,-1.375 -0.675,0 -1.175,0.55 -1.175,1.325 0,0.8 0.475,1.325 1.2,1.325 0.65,0 1.225,-0.575 1.225,-1.275 z m -1.05,12.125 c -1.075,1.425 -1.675,1.95 -2.1,1.95 -0.2,0 -0.35,-0.125 -0.35,-0.375 0,-0.35 0.125,-0.675 0.25,-1.1 l 2.35,-8.575 -0.1,-0.075 c -2.525,0.475 -3.024998,0.55 -3.999998,0.625 v 0.4 c 1.349998,0.025 1.599998,0.1 1.599998,0.6 0,0.2 -0.1,0.65 -0.225,1.1 l -1.199998,4.425 c -0.375,1.4 -0.55,2.275 -0.55,2.775 0,0.925 0.4,1.375 1.225,1.375 1.249998,0 2.049998,-0.75 3.424998,-2.85 z" />
                </g>
              </g>
            </g>
            <g
               id="text18"
               style="font-size:25px;font-family:STIXGeneral, STIXSizeOneSym;fill:#000000"
               aria-label=")">
              <path
                 id="path87"
                 style="font-size:25px;font-family:STIXGeneral, STIXSizeOneSym;fill:#000000"
                 d="m 104.8361,14.325001 c 3.625,2.85 4.25,5.725 4.25,10.4 0,4.85 -0.7,7.2 -4.25,10.125 l 0.225,0.4 c 3.975,-2.425 6.175,-5.975 6.175,-10.6 0,-4.25 -2.275,-8.425 -6.1,-10.725 z" />
            </g>
          </g>
          <g
             id="text22"
             style="font-size:25px;font-family:STIXGeneral, STIXSizeOneSym;fill:#000000"
             aria-label="=">
            <path
               id="path90"
               style="font-size:25px;font-family:STIXGeneral, STIXSizeOneSym;fill:#000000"
               d="m 135.30555,22.825001 v -1.65 h -14.725 v 1.65 z m 0,5 v -1.65 h -14.725 v 1.65 z" />
          </g>
          <g
             id="text24"
             style="font-size:25px;font-family:STIXGeneral, STIXSizeOneSym;fill:#000000"
             aria-label="1">
            <path
               id="path93"
               style="font-size:25px;font-family:STIXGeneral, STIXSizeOneSym;fill:#000000"
               d="m 202.42222,21.9 v -0.375 c -1.875,0 -2.375,-0.45 -2.375,-1.525 V 5.0749996 l -0.225,-0.075 -4.475,2.275 v 0.35 l 0.675,-0.25 c 0.45,-0.175 0.875,-0.3 1.125,-0.3 0.525,0 0.75,0.375 0.75,1.225 V 19.525 c 0,1.375 -0.525,1.9 -2.375,2 V 21.9 Z" />
          </g>
          <g
             id="g48"
             style="font-family:STIXGeneral, STIXSizeOneSym">
            <g
               id="g44"
               style="font-family:STIXGeneral, STIXSizeOneSym">
              <g
                 id="text26"
                 style="font-size:25px;font-family:STIXGeneral, STIXSizeOneSym;fill:#000000"
                 aria-label="tan">
                <path
                   id="path96"
                   style="font-size:25px;font-family:STIXGeneral, STIXSizeOneSym;fill:#000000"
                   d="m 151.76667,43.612498 c -0.55,0.65 -0.95,0.875 -1.5,0.875 -0.925,0 -1.3,-0.65 -1.3,-2.25 v -7.15 h 2.525 v -0.8 h -2.525 v -2.9 c 0,-0.25 -0.05,-0.325 -0.175,-0.325 -0.15,0.25 -0.35,0.475 -0.5,0.7 -0.95,1.375 -1.775,2.3 -2.425,2.675 -0.275,0.175 -0.425,0.325 -0.425,0.475 0,0.075 0.025,0.125 0.1,0.175 h 1.325 v 7.525 c 0,2.1 0.75,3.175 2.2,3.175 1.25,0 2.2,-0.6 3.025,-1.9 z" />
                <path
                   id="path98"
                   style="font-size:25px;font-family:STIXGeneral, STIXSizeOneSym;fill:#000000"
                   d="m 163.3444,43.887498 c -0.425,0.35 -0.675,0.475 -1.075,0.475 -0.45,0 -0.775,-0.5 -0.775,-1.65 v -4.775 c 0,-1.525 -0.1,-2.05 -0.7,-2.775 -0.6,-0.725 -1.55,-1.125 -2.95,-1.125 -1.125,0 -2.175,0.3 -2.875,0.75 -0.875,0.55 -1.275,1.35 -1.275,2 0,0.675 0.55,1.15 1.075,1.15 0.65,0 1.15,-0.55 1.15,-1.025 0,-0.525 -0.15,-0.6 -0.15,-1.05 0,-0.675 0.75,-1.225 1.75,-1.225 1.125,0 1.95,0.7 1.95,2.25 v 1.35 c -2.825,1.05 -3.75,1.525 -4.5,2.025 -0.975,0.65 -1.75,1.625 -1.75,2.925 0,1.65 1.075,2.6 2.625,2.6 1.075,0 2.3,-0.325 3.625,-1.825 h 0.025 c 0.125,1.325 0.675,1.825 1.6,1.825 0.85,0 1.5,-0.25 2.25,-1.2 z m -3.875,-1.525 c 0,0.725 -0.15,1.075 -0.875,1.575 -0.425,0.275 -0.95,0.4 -1.45,0.4 -0.975,0 -1.725,-0.6 -1.725,-1.925 0,-0.775 0.25,-1.375 0.85,-1.925 0.625,-0.575 1.65,-1.1 3.2,-1.65 z" />
                <path
                   id="path100"
                   style="font-size:25px;font-family:STIXGeneral, STIXSizeOneSym;fill:#000000"
                   d="m 175.50339,45.537498 v -0.375 c -1.225,-0.125 -1.525,-0.4 -1.525,-1.75 v -5.525 c 0,-2.475 -1.05,-3.85 -2.95,-3.85 -1.15,0 -2.3,0.55 -3.6,2.025 h -0.025 v -1.95 l -0.2,-0.075 c -1.225,0.45 -2.05,0.725 -3.425,1.125 v 0.425 c 0.175,-0.075 0.45,-0.1 0.725,-0.1 0.7,0 0.875,0.4 0.875,1.625 v 6.075 c 0,1.475 -0.275,1.875 -1.55,1.975 v 0.375 h 5.275 v -0.375 c -1.275,-0.1 -1.625,-0.45 -1.625,-1.425 v -6.9 c 1.15,-1.125 1.75,-1.425 2.575,-1.425 1.225,0 1.825,0.75 1.825,2.525 v 4.975 c 0,1.65 -0.3,2.15 -1.55,2.25 l -0.025,0.375 z" />
              </g>
              <g
                 id="g42"
                 style="font-family:STIXGeneral, STIXSizeOneSym">
                <g
                   id="text28"
                   style="font-size:25px;font-family:STIXGeneral, STIXSizeOneSym;fill:#000000"
                   aria-label="(">
                  <path
                     id="path103"
                     style="font-size:25px;font-family:STIXGeneral, STIXSizeOneSym;fill:#000000"
                     d="m 183.26667,49.562498 c -3.5,-2.925 -4.25,-5.75 -4.25,-10.4 0,-4.825 0.775,-7.15 4.25,-10.125 l -0.225,-0.4 c -4,2.375 -6.175,5.975 -6.175,10.6 0,4.25 2.15,8.475 6.1,10.725 z" />
                </g>
                <g
                   id="g38"
                   style="font-family:STIXGeneral, STIXSizeOneSym">
                  <g
                     id="g36"
                     style="font-family:STIXGeneral, STIXSizeOneSym">
                    <g
                       id="text30"
                       style="font-style:italic;font-size:25px;font-family:STIXGeneral, STIXSizeOneSym;fill:#000000"
                       aria-label="a">
                      <path
                         id="path106"
                         style="font-style:italic;font-size:25px;font-family:STIXGeneral, STIXSizeOneSym;fill:#000000"
                         d="m 195.56667,42.762498 -0.675,0.725 c -0.75,0.825 -1.075,1.025 -1.3,1.025 -0.2,0 -0.35,-0.15 -0.35,-0.325 0,-0.5 1.05,-4.8 2.225,-9.075 0.075,-0.25 0.1,-0.3 0.15,-0.525 l -0.175,-0.075 -1.525,0.175 -0.075,0.075 -0.275,1.2 c -0.2,-0.925 -0.925,-1.45 -2,-1.45 -3.325,0 -7.15,4.525 -7.15,8.4 0,1.9 1.1,2.9 2.5,2.9 1.75,0 3.2,-1.1 5.075,-3.925 -0.525,2.05 -0.575,2.25 -0.575,2.875 0,0.725 0.3,1.025 1,1.025 1,0 1.6,-0.475 3.475,-2.75 z m -2.45,-6.25 c 0,1.775 -0.75,3.925 -1.925,5.625 -0.75,1.075 -1.925,2.45 -3.175,2.45 -0.9,0 -1.5,-0.475 -1.5,-1.85 0,-1.575 0.875,-3.8 1.925,-5.375 1.05,-1.525 2.15,-2.3 3.275,-2.3 0.875,0 1.4,0.575 1.4,1.45 z" />
                    </g>
                    <g
                       id="text32"
                       style="font-size:25px;font-family:STIXGeneral, STIXSizeOneSym;fill:#000000"
                       aria-label="+">
                      <path
                         id="path109"
                         style="font-size:25px;font-family:STIXGeneral, STIXSizeOneSym;fill:#000000"
                         d="m 217.97222,40.037498 v -1.65 h -6.525 v -6.525 h -1.65 v 6.525 h -6.525 v 1.65 h 6.525 v 6.525 h 1.65 v -6.525 z" />
                    </g>
                    <g
                       id="text34"
                       style="font-style:italic;font-size:25px;font-family:STIXGeneral, STIXSizeOneSym;fill:#000000"
                       aria-label="bi">
                      <path
                         id="path112"
                         style="font-style:italic;font-size:25px;font-family:STIXGeneral, STIXSizeOneSym;fill:#000000"
                         d="m 228.82776,38.287498 2.1,-7.65 0.525,-2.05 -0.125,-0.125 c -1.25,0.225 -2.15,0.375 -3.825,0.575 v 0.425 c 1.475,0.05 1.6,0.075 1.6,0.625 0,0.225 -0.075,0.575 -0.225,1.175 l -3.55,13.075 v 0.15 c 0,0.75 1.825,1.325 3.25,1.325 3.875,0 8,-4.35 8,-8.3 0,-1.925 -1.225,-3 -2.9,-3 -1.75,0 -3.125,0.95 -4.825,3.775 z m 5.625,-0.4 c 0,1.85 -1.25,4.325 -2.75,5.875 -0.925,0.95 -2,1.475 -3.075,1.475 -0.775,0 -1.15,-0.275 -1.15,-0.85 0,-1.5 0.7,-3.925 1.8,-5.775 1.075,-1.825 2.225,-2.875 3.425,-2.875 1.1,0 1.75,0.625 1.75,2.15 z" />
                      <path
                         id="path114"
                         style="font-style:italic;font-size:25px;font-family:STIXGeneral, STIXSizeOneSym;fill:#000000"
                         d="m 243.85276,30.562498 c 0,-0.725 -0.575,-1.375 -1.25,-1.375 -0.675,0 -1.175,0.55 -1.175,1.325 0,0.8 0.475,1.325 1.2,1.325 0.65,0 1.225,-0.575 1.225,-1.275 z m -1.05,12.125 c -1.075,1.425 -1.675,1.95 -2.1,1.95 -0.2,0 -0.35,-0.125 -0.35,-0.375 0,-0.35 0.125,-0.675 0.25,-1.1 l 2.35,-8.575 -0.1,-0.075 c -2.525,0.475 -3.025,0.55 -4,0.625 v 0.4 c 1.35,0.025 1.6,0.1 1.6,0.6 0,0.2 -0.1,0.65 -0.225,1.1 l -1.2,4.425 c -0.375,1.4 -0.55,2.275 -0.55,2.775 0,0.925 0.4,1.375 1.225,1.375 1.25,0 2.05,-0.75 3.425,-2.85 z" />
                    </g>
                  </g>
                </g>
                <g
                   id="text40"
                   style="font-size:25px;font-family:STIXGeneral, STIXSizeOneSym;fill:#000000"
                   aria-label=")">
                  <path
                     id="path117"
                     style="font-size:25px;font-family:STIXGeneral, STIXSizeOneSym;fill:#000000"
                     d="m 244.92777,29.037498 c 3.625,2.85 4.25,5.725 4.25,10.4 0,4.85 -0.7,7.2 -4.25,10.125 l 0.225,0.4 c 3.975,-2.425 6.175,-5.975 6.175,-10.6 0,-4.25 -2.275,-8.425 -6.1,-10.725 z" />
                </g>
              </g>
            </g>
            <g
               id="g46"
               style="font-family:STIXGeneral, STIXSizeOneSym" />
          </g>
          <path
             id="line50"
             d="M 143.45,24.4 H 254.19443"
             style="fill:none;stroke:#000000;stroke-width:1.5625" />
        </g>
      </g>
    </g>
  </g>
</svg>
