<svg viewBox="0 0 24 24" xmlns="http://www.w3.org/2000/svg"><path d="m5 3v18h5.09375c-.057859-.15757-.09375-.325109-.09375-.5v-3c0-.30295.170612-.54637.332031-.785156-.216779-.20976-.327301-.506159-.300781-.806641.304545-3.336133 3.118763-5.905374 6.46875-5.908203h.002c.899422.0014 1.726552.260853 2.498047.650391v-7.650391z" fill="#fafafa"/><path d="m5 2c-.554 0-1 .446-1 1v18c0 .554.446 1 1 1h6.5c-.638812 0-1.194913-.424453-1.40625-1h-5.09375v-18h14v7.650391c.345853.174625.679859.373149 1 .599609v-8.25c0-.554-.446-1-1-1zm6.5 20h1.853516c-.26089-.167142-.516573-.343679-.759766-.537109-.277253.315796-.651445.537109-1.09375.537109z" fill="#3a3a38"/><g fill="#797774"><path d="m12 5v1h6v-1zm0 3v1h6v-1zm-6 3v1h5.828125c.365531-.379199.77212-.718336 1.21875-1zm0 3v1h4.1875c.08202-.345007.18989-.679335.324219-1zm0 3v1h4v-.5c0-.185798.06938-.346321.15625-.5z" fill="#797774"/><path d="m6 5h4v4h-4z"/></g><path d="m16.5 11c-2.842075.0024-5.214286 2.169693-5.472656 5h1.003906c.2545-2.276321 2.178247-3.998276 4.46875-4 1.903272.0043 3.598001 1.205572 4.232422 3h-2.232422c-.277 0-.5.223-.5.5s.223.5.5.5h3c.06925 0 .135453-.01383.195312-.03906.179579-.075706.304688-.25319.304688-.46094v-3c0-.277-.223-.5-.5-.5s-.5.223-.5.5v.849609c-1.027231-1.470011-2.706643-2.346892-4.5-2.349609zm-5 6c-.277 0-.5.223-.5.5v3c0 .277.223.5.5.5s.5-.223.5-.5v-.867188c.99762 1.431399 2.64246 2.366305 4.5 2.367188 2.842075-.0024 5.214286-2.169693 5.472656-5h-1.003906c-.2545 2.276321-2.178247 3.998276-4.46875 4-1.937261-.0023-3.59894-1.24237-4.222656-3h2.222656c.277 0 .5-.223.5-.5s-.223-.5-.5-.5z" fill="#18ab50"/></svg>