<svg viewBox="0 0 16 16" xmlns="http://www.w3.org/2000/svg">


/&amp;amp;amp;gt;<path d="m3 0c-.554 0-1 .446-1 1v14c0 .554.446 1 1 1h4v-1h-4v-14h10v6h1v-6c0-.554-.446-1-1-1z" fill="#3a3a38"/><path d="m3 1v14h4v-7.5c0-.277.223-.5.5-.5h5.5v-6z" fill="#fafafa"/><path d="m4 3h4v4h-4z" fill="#797774"/><path d="m9 3v1h3v-1zm0 3v1h3v-1zm-5 3v1h3v-1zm0 3v1h3v-1z" fill="#797774"/><path d="m8 8v8h8v-8z" fill="#a846b2"/><g fill="#fafafa"><rect height="3" rx=".5" width="6" x="9" y="9"/><path d="m10 12.999999c-.554 0-1 .446-1 1v1c0 .554.446 1 1 1v-2h1v2h2c.554 0 1-.446 1-1v-1c0-.554-.446-1-1-1z"/></g></svg>