<svg viewBox="0 0 16 16" xmlns="http://www.w3.org/2000/svg"><path d="m7.8987919 13.42685q1.0120798 0 1.6788618-.208524.6667823-.21895 1.0954263-.479606.428646-.260655.67869-.46918.250044-.218951.428645-.218951.202416 0 .261951.104263l.750129.792392q-.976359.980065-2.274204 1.522229-1.2859351.531738-2.9767037.531738-1.333564 0-2.3932709-.427476-1.0478003-.437901-1.7741164-1.219869-.726316-.781966-1.1192411-1.866293-.3810182-1.084328-.3810182-2.3771796 0-1.7933109.6072477-3.2842611.6191547-1.5013764 1.6788619-2.5648515 1.0716138-1.0739012 2.5123391-1.6681961 1.4407253-.5942949 3.083867-.5942949.7977556 0 1.4407246.1251148.642969.1251146 1.166868.3649179.535807.2293769.964453.5734424.440553.3336392.797757.7506882l-.714409.7611145q-.09525.093836-.202416.1563933-.107161.062557-.273857.062557-.130975 0-.26195-.083409-.130975-.0938365-.309578-.2293774-.166694-.1355409-.392924-.281508-.22623-.1563934-.547714-.2919344-.321485-.1355409-.762037-.2189507-.440552-.093836-1.0239862-.093836-1.1787753 0-2.2146687.4483277-1.0239866.4379014-1.7860231 1.2719995-.7501297.8236718-1.1906821 2.0018354-.4286455 1.1781633-.4286455 2.637835 0 1.0426228.2857637 1.87672.2857636.823672.797757 1.407541.5239001.573443 1.2383092.886229.7144094.30236 1.5597936.30236z" fill="#3a3a38" stroke-width=".875151"/></svg>