<svg enable-background="new 0 0 13.945 13.945" height="13.945" viewBox="0 0 13.945 13.945" width="13.945" xmlns="http://www.w3.org/2000/svg" xmlns:xlink="http://www.w3.org/1999/xlink"><radialGradient id="a" cx="6.9727" cy="6.9727" gradientUnits="userSpaceOnUse" r="6.9727"><stop offset="0" stop-color="#5a3d89"/><stop offset="1" stop-color="#2b1872"/></radialGradient><mask id="b" height="4.42" maskUnits="userSpaceOnUse" width="12.994" x=".488" y=".623"><path d="m .415.516h13.156v4.634h-13.156z" fill="url(#c)"/></mask><linearGradient id="c" gradientUnits="userSpaceOnUse" x1="6.9927" x2="6.9927" y1=".4624" y2="5.0431"><stop offset="0" stop-color="#fff"/><stop offset="1"/></linearGradient><path d="m13.945 12.949c0 .551-.445.996-.995.996h-11.954c-.551 0-.996-.445-.996-.996v-11.953c0-.551.445-.996.996-.996h11.954c.55 0 .995.445.995.996z" fill="url(#a)"/><path d="m13.482 4.24c0 .442-.24.803-.535.803h-11.922c-.296 0-.537-.36-.537-.803v-2.814c0-.443.241-.803.537-.803h11.922c.295 0 .535.359.535.803z" fill="#fff" mask="url(#b)" opacity=".8"/></svg>