<svg enable-background="new 0 0 16.854 16.855" height="16.855" viewBox="0 0 16.854 16.855" width="16.854" xmlns="http://www.w3.org/2000/svg" xmlns:xlink="http://www.w3.org/1999/xlink"><radialGradient id="a" cx="7.7354" cy="8.7939" gradientTransform="matrix(.7071 -.7071 .7071 .7071 -3.2619 7.6792)" gradientUnits="userSpaceOnUse" r="6.2207"><stop offset="0" stop-color="#c5d4e1"/><stop offset="1" stop-color="#7194b8"/></radialGradient><mask id="b" height="15.016" maskUnits="userSpaceOnUse" width="15.017" x=".918" y=".919"><path d="m .47 8.312 8.004-7.702 2.574 2.436 2.621 2.691s-4.518 4.423-10.766 5.29c-.82-.868-2.433-2.715-2.433-2.715z" fill="url(#c)"/></mask><linearGradient id="c" gradientUnits="userSpaceOnUse" x1="2.6665" x2="9.2414" y1="1.7036" y2="9.6487"><stop offset="0" stop-color="#fff"/><stop offset="1"/></linearGradient><path d="m16.595 7.799c.346.348.346.91 0 1.258l-7.539 7.538c-.348.348-.91.348-1.258.002l-7.537-7.54c-.348-.348-.348-.91 0-1.258l7.537-7.539c.348-.347.91-.347 1.258.001z" fill="url(#a)"/><path d="m15.704 7.868c.309.309.309.811 0 1.12l-6.717 6.715c-.311.31-.811.31-1.121.002l-6.715-6.717c-.311-.31-.311-.812 0-1.121l6.715-6.716c.311-.31.811-.31 1.121.001z" fill="#fff" mask="url(#b)"/></svg>