<svg height="32" viewBox="0 0 32 32" width="32" xmlns="http://www.w3.org/2000/svg"><path d="m21 6a1.0001 1.0001 0 0 0 -1 1v18a1.0001 1.0001 0 0 0 1 1h2a1.0001 1.0001 0 0 0 1-1v-6h2a1.0001 1.0001 0 0 0 1-1v-2a1.0001 1.0001 0 0 0 -1-1h-2v-8a1.0001 1.0001 0 0 0 -1-1zm0 1h2v9h3v2h-3v7h-2zm-15 1a1.0001 1.0001 0 0 0 -1 1v2a1.0001 1.0001 0 0 0 1 1h8.90625c-.117503 1.852997-.410222 4.031473-1.097656 5.632812-.927404 2.16034-4.1069958 4.316346-7.808594 4.314454a1.0001 1.0001 0 0 0 -1 1v2.052734a1.0001 1.0001 0 0 0 1 1c5.502151.002875 9.789207-2.776245 11.429688-6.597656 1.538704-3.584329 1.640253-6.823477 1.570312-9.246094v-1.15625a1.0001 1.0001 0 0 0 -1-1zm0 1h12v1.185547c.068438 2.370558-.028799 5.422481-1.488281 8.822265-1.459481 3.399783-5.344656 5.994888-10.511719 5.992188v-2.052734c4.072914.002082 7.586682-2.264629 8.726562-4.919922.906269-2.111105 1.225338-4.966893 1.273438-7.027344h-10z" fill="#3a3a38" fill-rule="evenodd" stroke-width="1.026664"/></svg>