<svg viewBox="0 0 32 32" xmlns="http://www.w3.org/2000/svg"><path d="m19 7.490234c0 .127809.04855.255582.146484.353516.195868.195869.511163.195869.707032 0l4.146484-4.136719v9.792969c0 .277.223.5.5.5s.5-.223.5-.5v-9.792969l4.146484 4.136719c.195869.195869.511164.195869.707032 0 .097934-.097934.146484-.225707.146484-.353516 0-.12781-.04855-.255581-.146484-.353515l-5-4.990235c-.04701-.04702-.103236-.08408-.166016-.109375-.057904-.02334-.12105-.037109-.1875-.037109s-.129596.01377-.1875.03711c-.06278.0253-.119003.06236-.166016.109375l-5 4.990235c-.097935.097934-.146484.225704-.146484.353514z" fill="#1e8bcd"/><path d="m19 24.509766c0-.127809.04855-.255582.146484-.353516.195868-.195869.511163-.195869.707032 0l4.146484 4.136719v-9.792969c0-.277.223-.5.5-.5s.5.223.5.5v9.792969l4.146484-4.136719c.195869-.195869.511164-.195869.707032 0 .097934.097934.146484.225707.146484.353516 0 .12781-.04855.255581-.146484.353515l-5 4.990235c-.04701.04702-.103236.08408-.166016.109375-.057904.02334-.12105.037109-.1875.037109s-.129596-.01377-.1875-.03711c-.06278-.0253-.119003-.06236-.166016-.109375l-5-4.990235c-.097935-.097934-.146484-.225704-.146484-.353514z" fill="#1e8bcd"/><path d="m17 6v20h1.869141l-.429688-.429688c-.288599-.288598-.439453-.679496-.439453-1.060546 0-.381052.150849-.771944.439453-1.060547.161064-.161065.354869-.272873.560547-.34375v-5.105469h3v-2h-3v-7.1054688c-.205678-.070877-.399483-.1826853-.560547-.34375-.288603-.2886026-.439453-.6794954-.439453-1.0605468 0-.3810453.150849-.7719447.439453-1.0605469l.429688-.4296875zm-14 2v2h9c-.04685 2.006937-.304768 5.736693-1.1875 7.792969-1.1102766 2.586331-3.8453659 5.209059-7.8125 5.207031v2c5.0328659.0026 8.129205-2.940467 9.550781-6.251953 1.421577-3.311487 1.515879-6.982026 1.449219-9.2910158v-1.4570312z" fill="#3a3a38" fill-rule="evenodd"/></svg>