<svg viewBox="0 0 32 32" xmlns="http://www.w3.org/2000/svg"><path d="m3.5 5c-.277 0-.5.223-.5.5s.223.5.5.5h8.5v7.521484c0 .264735.213781.478516.478516.478516h.042968c.264735 0 .478516-.213781.478516-.478516v-8.021484-.0214844c0-.2647345-.213781-.4785156-.478516-.4785156h-.021484-.021484z" fill="#1e8bcd"/><path d="m5.5 18c-.277 0-.5.223-.5.5s.223.5.5.5h5c.277 0 .5-.223.5-.5s-.223-.5-.5-.5zm-2 3c-.277 0-.5.223-.5.5s.223.5.5.5h9c.277 0 .5-.223.5-.5s-.223-.5-.5-.5zm1 3c-.277 0-.5.223-.5.5v4c0 .277.223.5.5.5h7c.277 0 .5-.223.5-.5v-4c0-.277-.223-.5-.5-.5zm.5 1h6v3h-6z" fill="#a846b2"/><g fill="none" stroke="#3a3a38" stroke-linecap="round" stroke-width="1"><path d="m22.5 6.5v19.974679"/><path d="m27.490726 21.466785-4.990726 4.99367-4.990726-4.99367" stroke-linejoin="round"/></g></svg>