<svg viewBox="0 0 32 32" xmlns="http://www.w3.org/2000/svg"><path d="m16 3v16.619141c1.057743-1.300562 2.046175-2.539304 3-3.664063v-.955078h.839844c.930886-1.042023 1.907691-2.034644 3.041015-3h-3.880859v-9zm-4.15625 3c-.05493.097689-.112808.1941912-.175781.2871094.219.2152016.327011.5190733.292969.8242187-.080679.7216098-.305148 1.3953518-.634766 2.0019531-.401631 7.6415258-2.0447557 11.7602448-8.326172 11.8867188v2.666016c9.934356-1.127735 11.211725-7.198916 11-15.7226566v-1.9433594z" fill="#3a3a38"/><g transform="matrix(1.2642017 0 0 1.2642017 -.079973 -10.227257)"><path d="m21.96826 16.000001c-.17831.0052-.351993.05797-.503145.152706-4.146578 2.591611-5.714115 5.057001-8.758361 8.728707-.884211 2.153413 1.99576 2.23573 3.347109 2.176021.225572-.01112.440793-.09803.610823-.246678 3.583058-3.122732 4.192351-4.317551 6.164989-7.243715.111173-.165558.170473-.360498.170325-.55992v-2.004747c-.000147-.565106-.466867-1.01854-1.03174-1.002374z" fill="#3a3a38"/><path d="m21.992188 16.792969c-.03818.0011-.07545.01243-.105469.03125a.79311708.79311708 0 0 1 -.002 0c-3.972775 2.482984-5.472141 4.814817-8.453125 8.425781-.102128.293846-.09942.450445-.06641.511719.03744.06947.164639.188556.447266.291015.564264.204559 1.568097.23872 2.203125.210938.04859-.0024.09036-.01879.126953-.05078 3.540457-3.085604 4.044021-4.142862 6.029297-7.087891v-.002c.02317-.03513.03519-.07299.03516-.115235v-2.005859c-.000033-.129029-.08592-.212674-.214843-.208984z" fill="#fafafa"/><g transform="matrix(.79101302 0 0 .79101302 .06326 8.089893)"><path d="m15.15625 22.009766c-.05604.000193-.11062.0048-.166016.01367-.861141.14117-1.823873.440633-2.632812 1.128906-.799494.680238-1.156748 1.31455-1.664063 1.982422-.0022.0037-.0037.006-.0059.0098l-1.4453125 1.947266c-.574829.775025-.048639 1.902781.8886715 1.904297h3.339844c.01741-.000357.0334-.000628.05078-.002 1.992813-.09787 3.805246-.876425 4.972657-2.089844.07973-.0831.14637-.17727.199218-.28125.313645-.615499.331828-1.216374.269532-1.785156-.0623-.568779-.212142-1.111696-.56836-1.617188-.000739-.0015-.0011-.0043-.002-.0059-.458211-.642967-1.139791-1.088959-1.796875-1.199219-.547311-.03276-.91274-.01591-1.439453-.0059z" fill="#0063b1"/><path d="m11.53125 25.683594c-.0054.0071-.0083.01234-.01367.01953a.99948558.99948558 0 0 1 -.02734.04102l-1.447265 1.941406c-.1247191.168155-.046862.308372.08984.308594h3.337891a.99948558.99948558 0 0 1 .002 0c1.180206-.05797 2.27261-.395107 3.15625-.908203z" fill="#83beec"/><path d="m15.146484 23.009766c-.753286.123841-1.52266.37685-2.142578.904296-.340375.289605-.582615.567665-.808594.863282l5.472657 1.527344c.03333-.03256.07156-.06248.103515-.0957.01201-.01279.0216-.02393.0293-.03906v-.002c.202079-.396561.223324-.752911.171875-1.222657-.05066-.462489-.157358-.811056-.396484-1.15039-.308606-.433039-.791414-.716625-1.126953-.779297-.448951-.02291-.769348-.01545-1.271485-.0059-.0059.000052-.01172.000052-.01758 0-.01909.000065-.02444.0018-.01367 0zm2.429688.785156c-.01829-.02715-.03524-.05517-.05078-.08398.0038.0067-.0029-.000419.002.0078z" fill="#fafafa"/></g></g><path d="m6.5 2c-2.289756.0027-4.212381 1.72442-4.466797 4h1.007813c.24827-1.720082 1.721079-2.997459 3.458984-3 1.349002.0031 2.576155.781161 3.154297 2h-1.154297c-.277 0-.5.223-.5.5s.223.5.5.5h2c.277 0 .5-.223.5-.5v-2-1c0-.277-.223-.5-.5-.5s-.5.223-.5.5v1 .183594c-.851968-1.061692-2.138739-1.680663-3.5-1.683594zm-4 5c-.277 0-.5.223-.5.5v2 1c0 .277.223.5.5.5s.5-.223.5-.5v-1-.183594c.851968 1.061692 2.138739 1.680663 3.5 1.683594 2.289756-.0027 4.212381-1.72442 4.466797-4h-1.007813c-.248271 1.720082-1.721079 2.997459-3.458984 3-1.349002-.00308-2.576155-.781162-3.154297-2h1.154297c.277 0 .5-.223.5-.5s-.223-.5-.5-.5z" fill="#1e8bcd"/></svg>