<svg viewBox="0 0 32 32" xmlns="http://www.w3.org/2000/svg"><path d="m23.509766 18c-.127809 0-.255582.04855-.353516.146484-.195869.195868-.195869.511163 0 .707032l4.136719 4.146484h-8.792969c-.277 0-.5.223-.5.5s.223.5.5.5h8.792969l-4.136719 4.146484c-.195869.195869-.195869.511164 0 .707032.097934.097934.225707.146484.353516.146484.12781 0 .255581-.04855.353515-.146484l4.990235-5c.04702-.04701.08408-.103236.109375-.166016.02334-.057904.037109-.12105.037109-.1875s-.01377-.129596-.03711-.1875c-.0253-.06278-.06236-.119003-.109375-.166016l-4.990235-5c-.097934-.097935-.225704-.146484-.353514-.146484z" fill="#1e8bcd"/><path d="m8.490234 18c.127809 0 .255582.04855.353516.146484.195869.195868.195869.511163 0 .707032l-4.136719 4.146484h8.792969c.277 0 .5.223.5.5s-.223.5-.5.5h-8.792969l4.136719 4.146484c.195869.195869.195869.511164 0 .707032-.097934.097934-.225707.146484-.353516.146484-.12781 0-.255581-.04855-.353515-.146484l-4.990235-5c-.04702-.04701-.08408-.103236-.109375-.166016-.02334-.057904-.037109-.12105-.037109-.1875s.01377-.129596.03711-.1875c.0253-.06278.06236-.119003.109375-.166016l4.990235-5c.097934-.097935.225704-.146484.353514-.146484z" fill="#1e8bcd"/><path d="m21 2v16.957031h2v-8h3v-2h-3v-6.957031zm-14 2v2h9c-.04685 2.006937.105012 3.5661421-.77772 5.622418-1.110277 2.586331-4.255146 4.336641-8.22228 4.334613v2c5.032866.0026 8.539614-2.068347 9.96119-5.379833 1.421577-3.3114869 1.10547-4.811177 1.03881-7.120167v-1.457031z" fill="#3a3a38" fill-rule="evenodd"/></svg>