<svg height="32" viewBox="0 0 32 32" width="32" xmlns="http://www.w3.org/2000/svg"><path d="m11.999999 14.461538h.93816c.62745 0 1.071895-.200802 1.333332-.602409l4.094118-7.045876c.230066-.3012047.481046-.512048.752941-.63253.282353-.120482.622223-.180723 1.019608-.180723h2.861842l-5.364706 8.401298c-.386927.532129-.8.908635-1.239215 1.129518.313725.110443.596079.271085.847058.481928.25098.210843.491503.476908.721569.798193l5.458823 9.189063h-2.924587c-.46013 0-.805229-.06526-1.035294-.195784-.219607-.140562-.407841-.321284-.564705-.542168l-4.156863-7.030815c-.156862-.240965-.345098-.416667-.564706-.527109-.20915-.110441-.502328-.18228-.878432-.165662h-1.298943v8.461538h-2.999999v-20h3z" fill="#3a3a38"/></svg>