<svg height="24" viewBox="0 0 6.3499999 6.3500002" width="24" xmlns="http://www.w3.org/2000/svg"><g transform="translate(0 -290.64998)"><path d="m1.3229167 291.44373v4.7625h1.1317138c-.046319-.0804-.073879-.17174-.073897-.26458v-2.38125c.0000277-.27729.2523913-.52966.5296834-.52968h2.1166664v-1.58699z" fill="#fafafa" stroke-width=".264583"/><path d="m1.3229167 291.17915c-.1465792 0-.2645834.118-.2645834.26458v4.7625c0 .14658.1180042.26459.2645834.26459h1.3673584l-.1545126-.15452c-.032388-.0324-.058282-.0704-.081132-.11007h-1.1317138v-4.7625h3.7041666v1.58699h.2645833v-1.58699c0-.14658-.1180041-.26458-.2645833-.26458z" fill="#3a3a38" stroke-width=".264583"/><g fill="#797774" transform="matrix(.26458333 0 0 .26458333 0 290.64998)"><path d="m12 5v1h6v-1zm0 3v.9980469h6v-.9980469zm-6 3v1h2.9980469v-1zm0 3v1h2.9980469v-1zm0 3v1h2.9980469v-1z"/><path d="m6 5h4v4h-4z"/></g><g stroke-width=".264583"><path d="m2.9104166 293.29582a.26460979.26460979 0 0 0 -.2645833.26458v2.38125a.26460979.26460979 0 0 0 .077515.18707l.2645833.26458a.26460979.26460979 0 0 0 .1870687.0775h2.38125a.26460979.26460979 0 0 0 .264583-.26457v-2.64583a.26460979.26460979 0 0 0 -.2645833-.26458z" fill="#922e9b"/><path d="m2.9104166 293.5604v2.38125l.2645834.26458v-1.05833h1.8520833v1.05833h.5291667v-2.64583h-.2645834v1.05833h-2.1166666v-1.05833z" fill="#d492d8"/><path d="m3.4395833 293.5604v.79375h1.5875v-.79375zm0 1.85208v.79375h.2645833v-.52916h.2645834v.52916h.79375v-.79375z" fill="#fafafa"/></g></g></svg>