<svg viewBox="0 0 16 16" xmlns="http://www.w3.org/2000/svg">/&amp;amp;amp;amp;amp;gt;<path d="m3 0c-.554 0-1 .446-1 1v14c0 .554.446 1 1 1h4.5820312l-1-1h-3.5820312v-14h10v4.9980469h1v-4.9980469c0-.554-.446-1-1-1z" fill="#3a3a38"/><path d="m3 1v14h3.5820312l-.2910156-.291016a1.0030299 1.0030299 0 0 1 -.2929687-.708984v-6.5a1.0030299 1.0030299 0 0 1 0-.0097656c.0011299-.1116456.0173538-.2204724.0429687-.3261719l-.0410156-.1640625c.0005284-.6167866.5004009-.9994716 1.1171875-1h.3632813c.0066393-.0000916.0128733-.0019531.0195312-.0019531h5.5v-4.9980469z" fill="#fafafa"/><path d="m4 3v4h2.09375c.2120557-.5733389.7645431-1.0019531 1.40625-1.0019531h.5v-2.9980469z" fill="#797774"/><path d="m9 3v1h3v-1zm-5 6v1h2v-1zm0 3v1h2v-1z" fill="#797774"/><g fill="#fafafa"><rect height="3" rx=".5" width="6" x="9" y="9"/><path d="m10 12.999999c-.554 0-1 .446-1 1v1c0 .554.446 1 1 1v-2h1v2h2c.554 0 1-.446 1-1v-1c0-.554-.446-1-1-1z"/></g><path d="m7.4999999 7c-.2770004 0-.4971966.2230135-.5.5v6.5l2 2h6.5000001c.277002 0 .5-.223.5-.5v-8c0-.2770007-.222999-.5-.5-.5zm2.5000001 1h3v2h-3zm.207031 5h2.585938c.115026 0 .207031.10994.207031.246094v1.507812c0 .13615-.092005.246094-.207031.246094h-.792969v-1h-1v1h-.792969c-.115026 0-.2070311-.10994-.2070311-.246094v-1.507812c0-.13615.0920051-.246094.2070311-.246094z" fill="#922e9b" stroke-width=".999999"/><path d="m7.9999999 8v5l1 1v-2h5.0000001v3h1v-7h-1v3h-5.0000001v-3z" fill="#d492d8"/><path d="m9.9999998 8 .0000002 2h3v-2zm.2070312 5c-.115026 0-.2070312.109943-.2070312.246093v1.507812c0 .136154.092005.246093.2070312.246093h.792969v-.999998h1v1h.792968c.115026 0 .207032-.109943.207032-.246093v-1.507813c0-.136154-.09201-.246093-.207032-.246093z" fill="#fafafa" stroke-width=".999999"/></svg>