<svg viewBox="0 0 24 24" xmlns="http://www.w3.org/2000/svg"><g fill-rule="evenodd" stroke-width=".7"><path d="m16 6v14h1v-6h2v-1h-2v-7zm-10 1v1h7c-.0328 1.4048561-.213778 4.815894-.83169 6.255287-.777194 1.810432-3.3913161 3.746133-6.16831 3.744713v1c3.5230061.0018 5.990444-2.158327 6.985547-4.476367.995104-2.318041 1.061115-5.2874184 1.014453-6.9037112v-.6199218z" fill="#1e8bcd"/><path d="m15 5v14h1v-6h2v-1h-2v-7zm-10 1v1h7c-.0328 1.4048561-.213778 4.815894-.83169 6.255287-.777194 1.810432-3.3913161 3.746133-6.16831 3.744713v1c3.5230061.0018 5.990444-2.158327 6.985547-4.476367.995104-2.318041 1.061115-5.2874184 1.014453-6.9037112v-.6199218z" fill="#3a3a38"/></g></svg>