<svg viewBox="0 0 24 24" xmlns="http://www.w3.org/2000/svg"><g fill-rule="evenodd"><g fill="#1e8bcd"><path d="m15.99982 19.515625c-.0115-.454318.540283-.686847.857422-.361328l2.144531 2.148437-.0018-7.777343c-.017923-.350177.241538-.525391.500027-.525391s.51795.175214.5.525391l-.0022 7.777343 2.144531-2.148437c.317139-.325519.868926-.09299.857422.361328-.0041.130048-.05875.25337-.152344.34375l-2.912112 2.916016c-.160579.173289-.266359.223009-.435477.224609-.169118-.0016-.274898-.05132-.435547-.224609l-2.912109-2.916016c-.09359-.09038-.148244-.213702-.152344-.34375z"/><path d="m15.99982 4.484375c-.0115.454318.540283.686847.857422.361328l2.144531-2.148437-.0018 7.777343c-.017923.350177.241538.525391.500027.525391s.51795-.175214.5-.525391l-.0022-7.777343 2.144531 2.148437c.317139.325519.868926.09299.857422-.361328-.0041-.130048-.05875-.25337-.152344-.34375l-2.912112-2.916016c-.160579-.173289-.266359-.223009-.435477-.224609-.169118.0016-.274898.05132-.435547.224609l-2.912109 2.916016c-.09359.09038-.148244.213702-.152344.34375z"/></g><path d="m12 5v14h1v-6h2v-1h-2v-7zm-10 1v1h7c-.0328 1.4048561-.213778 4.815894-.83169 6.255287-.777194 1.810432-3.3913161 3.746133-6.16831 3.744713v1c3.5230061.0018 5.990443-2.158327 6.985547-4.476367.995104-2.318041 1.061115-5.2874184 1.014453-6.9037112v-.6199218z" fill="#3a3a38" fill-rule="evenodd" stroke-width=".7"/></g></svg>