<svg viewBox="0 0 24 24" xmlns="http://www.w3.org/2000/svg"><g fill="none" stroke="#3a3a38" stroke-linecap="round" stroke-linejoin="round" stroke-width=".999439"><path d="m22.495233 15.492559-3.995233 4.000284-3.995233-4.000284"/><path d="m18.5 19.492843v-14.992843"/></g><g fill="#a846b2"><rect height="1" ry=".464045" width="5" x="4" y="13"/><rect height="1" ry=".464045" width="11" x="1" y="15"/><path d="m3 17c-.554 0-1 .446-1 1v3c0 .554.446 1 1 1h6c.554 0 1-.446 1-1v-3c0-.554-.446-1-1-1zm0 1h6v3h-6z"/></g><g fill="#1e8bcd"><rect height="1" ry=".5" width="8" x="2" y="3"/><rect height="7" ry=".5" width="1" x="9" y="3"/></g></svg>