<svg viewBox="0 0 24 24" xmlns="http://www.w3.org/2000/svg"><path d="m1.5 2.5h21v19h-21z" fill="#fafafa" stroke="#3a3a38" stroke-linecap="round" stroke-linejoin="round"/><g fill="#3a3a38"><rect height="1" ry=".5" width="6" x="15" y="14"/><rect height="1" ry=".5" width="6" x="15" y="10"/><rect height="1" ry=".5" width="6" x="15" y="6"/><rect height="1" ry=".5" width="18" x="3" y="18"/></g><g fill="#1e8bcd" fill-rule="evenodd"><path d="m11 4.0000004v11.9999996h1v-5h2v-1h-2v-5.9999996z"/><path d="m3 5v1h5c-.02712 1.204162.033718 3.6421946-.477337 4.87596-.642792 1.551799-2.225902 3.125257-4.522663 3.12404v1c2.913765.0016 4.4648566-1.310043 5.2878746-3.296935.823018-1.9868921.7507184-4.4435615.7121254-5.8289555v-.874219z"/></g></svg>