<svg viewBox="0 0 16 16" xmlns="http://www.w3.org/2000/svg">/&amp;amp;gt;<path d="m12 0a1.0001 1.0001 0 0 0 -1 1v1a1.0001 1.0001 0 0 0 -1-1h-9a1.0001 1.0001 0 0 0 -1 1v1a1.0001 1.0001 0 0 0 1 1h6.8730469c-.1530256 2.5290123-.7385033 4.5364941-1.7734375 5.8066406-1.1819744 1.4506054-2.8329427 2.1933594-5.0996094 2.1933594a1.0001 1.0001 0 0 0 -1 1v1a1.0001 1.0001 0 0 0 1 1c3.1922941 0 5.8203-.977891 7.53125-3.117188 1.71095-2.1392942 2.46875-5.2612066 2.46875-9.4257808v12.5429688a1.0001 1.0001 0 0 0 1 1h1a1.0001 1.0001 0 0 0 1-1v-6h2a1.0001 1.0001 0 0 0 1-1v-1a1.0001 1.0001 0 0 0 -1-1h-2v-5a1.0001 1.0001 0 0 0 -1-1zm0 1h1v6h3v1h-3v7h-1zm-11 1h9v.4570312c0 8.0816748-3 11.5429688-9 11.5429688v-1c5 0 8-3.5 8-10h-8z" fill="#3a3a38" fill-rule="evenodd"/></svg>