<svg viewBox="0 0 16 16" xmlns="http://www.w3.org/2000/svg"><g fill-rule="evenodd"><g fill="#1e8bcd"><path d="m8.9998699 3.484375c-.011504.454318.540283.6868471.857422.3613281l2.1445311-2.1484375-.002 4.7773434c-.017903.350177.241558.525391.500047.525391s.51795-.175214.5-.525391l-.002-4.7773434 2.144531 2.1484375c.317139.325519.868926.09299.857422-.3613281-.0041-.130048-.05875-.25337-.152344-.34375l-2.912062-2.9160156c-.160649-.173289-.266429-.2230094-.435547-.2246094-.169118.0016-.274898.0513204-.435547.2246094l-2.9121091 2.9160156c-.09359.09038-.148244.213702-.152344.34375z"/><path d="m8.9998699 12.515625c-.011504-.454318.540283-.686847.857422-.361328l2.1445311 2.148437-.0019-4.777343c-.018003-.350177.241458-.525391.499947-.525391s.51795.175214.5.525391l-.002 4.777343 2.144531-2.148437c.317139-.325519.868926-.09299.857422.361328-.0041.130048-.05875.25337-.152344.34375l-2.912112 2.916016c-.160599.173289-.266379.223009-.435497.224609-.169118-.0016-.274898-.05132-.435547-.224609l-2.9121091-2.916016c-.09359-.09038-.148244-.213702-.152344-.34375z"/></g><path d="m0 2v1h8c0 6.5-3 10-8 10v1c5.3656486 0 8.3252937-2.779397 8.8925781-9.1445312-.5006108-.2255006-.9024579-.7749084-.8867187-1.3964844a.99465785.99465785 0 0 1 0-.0058594c.0122477-.388487.1754685-.7573248.4550781-1.0273438l.4257813-.4257812zm11.005859 2.1015625-.005859.0058594v7.7851561l.005859.00586v-2.3222661c-.022019-.428299.162038-.8946595.466797-1.1757813.161366-.1488496.341826-.2457208.527344-.3085937v-.0917969h3v-1h-1.097656c-.080295.2306648-.206691.4443439-.375.5996094-.304737.2811202-.673383.3945312-1.027344.3945312s-.722627-.1134124-1.027344-.3945312c-.304716-.2811189-.488687-.7476127-.466797-1.1757813z" fill="#3a3a38" fill-rule="evenodd"/></g></svg>