<svg viewBox="0 0 16 16" xmlns="http://www.w3.org/2000/svg"><text transform="scale(.98518432 1.0150385)" x="20.576035" y="17.066408"><tspan x="20.576035" y="17.066408"/></text><path d="m9.2189752 1.0004304c-2.1196853 0-3.6590296.3687364-4.6196759 1.0668489-.9896861.7209241-1.5853388 1.5970396-1.8154446 2.6541118-.2453277 1.1509555.079992 2.0353566 1.0188107 2.7561932.9388183.7208367 2.514269 1.2482049 4.7197556 1.5492327a.18341702.18341702 0 0 1 .002 0l1.4391467.2041625a.18341702.18341702 0 0 1 .1541223.2201752l-.3983166 1.9035153c-.1657343.772392-.5309297 1.374224-1.090868 1.771409s-1.3022259.588468-2.2097584.588468c-.9075324 0-1.5833682-.186447-1.9975894-.608484-.4142213-.422036-.5200268-1.055012-.3542819-1.827454l.3502786-1.657319h-2.0376213l-.3662915 1.73338c-.2702318 1.251646-.067927 2.130888.5824635 2.726169.6503908.595279 1.7992127.918731 3.4627554.918731 1.6635428 0 2.9624736-.318614 3.9051073-.936745.9426343-.618133 1.5412163-1.532603 1.8114413-2.784216l.358285-1.7233715a.18341702.18341702 0 0 1 .102082-.1281019c.123553-.05758.241505-.1312699.350279-.2181736a.18341702.18341702 0 0 1 .002-.002c.348227-.265562.54788-.5733991.624498-.9447518.07682-.3723548.01063-.6505041-.202161-.8967135a.18341702.18341702 0 0 1 -.002-.002c-.213741-.2541844-.493818-.3763026-.898717-.3763026-.406004 0-.769143.1251957-1.108883.3903105-.191258.1485586-.337446.3095606-.444352.4803823a.18341702.18341702 0 0 1 -.180145.084067l-1.4251331-.1901514c-1.4970684-.2056798-2.5941489-.5484465-3.2966232-1.0608442-.7024743-.5123976-.9916868-1.2298804-.8166499-2.0456277a.18341702.18341702 0 0 1 .002-.002c.1711347-.7723702.5701179-1.3767194 1.1829429-1.7774158a.18341702.18341702 0 0 1 .002-.002c.6320881-.3985493 1.5745771-.5784587 2.8342537-.5784587s2.1249726.1702472 2.6120786.5964747c.469868.4116798.648204.97781.508404 1.6032757l.0021-.002-.08207.3762994h2.039623l.09608-.45236a.18341702.18341702 0 0 1 0-.002c.194105-.889968-.025595-1.6524524-.68664-2.3598842-.638405-.666487-2.010732-1.0448313-4.1292858-1.0448313z" fill="#3a3a38" stroke-width=".897908"/></svg>