<svg viewBox="0 0 24 24" xmlns="http://www.w3.org/2000/svg"><path d="m16 4a1.0001 1.0001 0 0 0 -1 1v1a1.0001 1.0001 0 0 0 -1-1h-8a1.0001 1.0001 0 0 0 -1 1v1a1.0001 1.0001 0 0 0 1 1h5.935547c-.029567.6370942-.045763 1.2352054-.126953 2.009766-.122534 1.168986-.348623 2.362446-.558594 2.851562-.558492 1.300977-2.9378888 3.139854-5.25 3.138672a1.0001 1.0001 0 0 0 -1 1v1a1.0001 1.0001 0 0 0 1 1c3.9320475.002009 6.761588-2.420154 7.904297-5.082031.820406-1.911094 1.049811-4.0720368 1.095703-5.7500002v-1.5488282c.012274.4347466.015981.9645061 0 1.5488282v10.8320312a1.0001 1.0001 0 0 0 1 1h1a1.0001 1.0001 0 0 0 1-1v-5h1a1.0001 1.0001 0 0 0 1-1v-1a1.0001 1.0001 0 0 0 -1-1h-1v-6a1.0001 1.0001 0 0 0 -1-1zm0 1h1v7h2v1h-2v6h-1zm-10 1h8v.6191406c.046662 1.6162928-.018568 4.5862554-1.013672 6.9042974-.995104 2.318039-3.4633219 4.478362-6.986328 4.476562v-1c2.7769939.00142 5.390775-1.933709 6.167969-3.744141.617912-1.439393.799231-4.8510029.832031-6.255859h-7z" fill="#3a3a38" fill-rule="evenodd" stroke-width=".7"/></svg>