<svg viewBox="0 0 24 24" xmlns="http://www.w3.org/2000/svg"><path d="m13.542556 5-1.944207 10c.0038-.0029.0076-.0057.01139-.0085l1.547979-1.325244.121937-.654584.542379-.011672 1.159927-1h-1.481961l1.5-7zm-8.6941362 2-.3643609 1.4574438h5.1010531c-.439794 4.7355972-1.6009152 7.1965442-5.829775 7.2872192l-.364361 1.457444c6.670086-.538359 7.568077-4.603779 7.65158-10.202107z" fill="#3a3a38" stroke-width=".728722"/><path d="m1.449219 20c-.277 0-.5.223-.5.5s.223.5.5.5h8.472656l-.921875-1z" fill="#1e8bcd"/><g fill="#ed3d3b"><path d="m16.518661 20.388672 4.995399-4.642082-3.51406-3.74659-5.090273 4.561871z" fill="#d42314"/><path d="m13.579208 23c.189562 0 .378184-.07172.523438-.216797l2.416015-2.394531-3.620653-3.844379-2.453125 2.363281c-.290506.290127-.290506.756747 0 1.046875l2.608935 2.828754c.145254.145064.335828.216797.52539.216797z" fill="#d42314"/><path d="m17.982422 13.048828-4.052734 3.529297 2.599609 2.755859 3.972656-3.597656z" fill="#ff9198"/></g></svg>