<svg viewBox="0 0 24 24" xmlns="http://www.w3.org/2000/svg"><path d="m13 2v12.947266c.685023-.848427 1.355343-1.68013 2-2.4375v-2.509766h2.394531c.197165-.1818195.396047-.3634696.605469-.5429688v-1.4570312h-3v-6zm-2 2.5c0 .3035897-.169991.5480159-.332031.7871094.219.2152016.327011.5190733.292969.8242187-.172262 1.5407598-.9906525 2.8597578-2.1503911 3.7441407-.5246617 3.8925492-2.273792 6.0348532-6.8105469 6.1445312v2c8.646907-.799633 9.189151-4.98506 9-12.5429688z" fill="#3a3a38"/><path d="m21.970703 8c-.177888.00524-.351159.057831-.501953.1523438-4.136759 2.5854742-5.700584 5.0450262-8.737621 8.7080372-.210813.253601-.283141.594786-.193359.91211.124699.438291.05849.586853.729808.897431.67132.310578 1.530176.423588 2.802734.361328.225038-.01109.439749-.0978.609376-.246094 3.574573-3.115338 4.182424-4.307327 6.15039-7.226562.11091-.165166.17007-.359644.169922-.558594v-2c-.000147-.5637669-.465761-1.0161281-1.029297-1z" fill="#3a3a38"/><path d="m22 9v2c-2 2.966753-2.5 4-5.979176 7.032197-2.365328.115723-2.378568-.032197-2.520824-.532197 3.032664-3.657737 4.5-6 8.5-8.5z" fill="#fafafa"/><path d="m12.521484 18.03125c-.323926.05073-.668149.136039-.99414.259766-.326113.124095-.634239.287343-.888672.49414-.314064.255263-.429433.449978-.638672.714844l4.261719 1.419922c.192081-.135176.38609-.269973.537109-.419922.19996-.374848.180051-.969421.01758-1.433594v-.002c-.054184-.15472-.124008-.293657-.207033-.406203-.150368-.173668-.346757-.299663-.558594-.390625h-.002c-.212443-.09101-.440245-.147122-.654297-.18164-.428371-.06869-.799057-.05211-.873047-.05469z" fill="#fafafa"/><path d="m12.515625 17.017578c-.05035.000165-.100621.0041-.150391.01172-.773679.12116-1.638455.378043-2.365234.96875-.7182932.583809-1.0383516 1.127975-1.4941406 1.701172-.00197.0032-.00392.0065-.00586.0098l-1.2988275 1.669886c-.5164462.665161-.0432845 1.633465.7988281 1.634766h3c.01564-.000305.03126-.000925.04687-.002 1.790411-.084 3.417955-.751558 4.466797-1.792969.07164-.07132.132206-.152947.179687-.242188.28179-.528248.298157-1.043096.242188-1.53125-.05597-.488151-.191681-.954835-.511719-1.388671-.000664-.0013-.0013-.0026-.002-.0039-.411673-.551823-1.022934-.934666-1.613281-1.029296-.491722-.02811-.819751-.01448-1.292969-.0059zm.0059 1.013672c.147979.0052 1.48492-.06945 2.087891.626953.332098.450185.456066 1.341999.189453 1.841797-.151019.149949-.345028.284746-.537109.419922l-4.26176-1.419922c.209239-.264866.324608-.459581.638672-.714844.508867-.413594 1.23496-.65245 1.882812-.753906zm-3.1093746 2.152344 3.3242186 1.476562c-.545471.17759-1.125964.311206-1.736369.339844h-3l1.2988281-1.669922c.044164-.05554.072599-.09372.1132813-.146484z" fill="#0063b1"/><path d="m9.4121094 20.183594c-.040682.05276-.069117.09094-.1132813.146484l-1.2988281 1.669922h3c.610405-.02864 1.190857-.162254 1.736328-.339844z" fill="#83beec"/><path d="m5.5 1c-2.289756.0027-4.212381 1.72442-4.466797 4h1.007813c.24827-1.720082 1.721079-2.997459 3.458984-3 1.349002.0031 2.576155.781161 3.154297 2h-1.154297c-.277 0-.5.223-.5.5s.223.5.5.5h2c.277 0 .5-.223.5-.5v-2-1c0-.277-.223-.5-.5-.5s-.5.223-.5.5v1 .183594c-.851968-1.061692-2.138739-1.680663-3.5-1.683594zm-4 5c-.277 0-.5.223-.5.5v2 1c0 .277.223.5.5.5s.5-.223.5-.5v-1-.183594c.851968 1.061692 2.138739 1.680663 3.5 1.683594 2.289756-.0027 4.212381-1.72442 4.466797-4h-1.007813c-.248271 1.720082-1.721079 2.997459-3.458984 3-1.349002-.00308-2.576155-.781162-3.154297-2h1.154297c.277 0 .5-.223.5-.5s-.223-.5-.5-.5z" fill="#1e8bcd"/></svg>