<svg viewBox="0 0 16 16" xmlns="http://www.w3.org/2000/svg"><path d="m9 2-1 6.5c.4845529-.4711247.9842837-.9453791 1.4060433-1.2811447l.7479287-5.2188553zm-8.012695 1.6666667v.8333333h4.4563802c.1661817.0002293.2883377.1559182.2490235.3173828-.1220704 2.1826172-.4855085 3.457629-1.2264813 4.4449952-.7022716.935797-1.8689472 1.804917-3.4789224 1.881502v.85612c2.6879362-.509285 4.012695-1 5.0602213-3.2470703.6047341-1.4357805.7504493-3.2151971.789388-5.086263z" fill="#3a3a38" stroke-width=".833333"/><path d="m0 15v.466797.066406.466797h.46679688 1.53320312 5.2871094l-.8300782-.830078c-.0522944-.052265-.0935885-.111916-.1367187-.169922h-4.3203125-1.53320312z" fill="#3a3a38"/><g stroke-width=".749398"><path d="m11.134151 14.042357 4.865849-4.9793909-3.5-3.5629661-4.9369202 4.919259z" fill="#d42314"/><path d="m8.9321417 16c.1420051 0 .283306-.05377.392119-.162527l1.8098903-1.795116-3.579851-3.636275-1.8376898 1.771688c-.2176245.217501-.2176245.567313 0 .784815l2.8219501 2.874888c.108813.108751.2515762.162527.3935814.162527z" fill="#d42314"/><path d="m12.492188 6.9941406-3.445313 3.4316404 2.083984 2.115235 3.396485-3.4765629z" fill="#ff9198"/></g></svg>