<svg viewBox="0 0 16 16" xmlns="http://www.w3.org/2000/svg"><path d="m12.5 0c-.277 0-.5.223-.5.5v4.7949219l-2.1484375-2.1464844c-.195975-.1957618-.5111622-.1958686-.7070313 0-.195868.1958686-.195975.5112694 0 .7070313l3.0019528 2.9980468c.097935.0979343.22572.1464977.353516.1464844.063898-.0000067.127325-.0126308.1875-.0371094.060163-.024381.117048-.0604078.166016-.109375l3.001953-2.9980468c.195975-.1957619.195868-.5111627 0-.7070313-.195869-.1958686-.511057-.1957618-.707031 0l-2.148438 2.1464844v-4.7949219c0-.277-.223-.5-.5-.5z" fill="#1e8bcd"/><path d="m1 5v1h6c0 4.5-1 7-6 7v1c6 0 7-2.5 7-8.5429688v-.4570312zm9 1.1230469v8.8769531h1v-5h3v-1h-3v-1.8789062z" fill="#3a3a38" fill-rule="evenodd"/></svg>