<svg viewBox="0 0 16 16" xmlns="http://www.w3.org/2000/svg">
/&amp;gt;<path d="m11 .99896222v9.99999978h1v-3.9999997h2v-1h-2v-5.00000008zm-8 0v.99999998h6c-.0338983 4.7288137-1.5084746 7.9322035-6 8.0000001v.9999997c5.0169491.06779 7-3.1864404 7-9.5429686v-.45703118z" fill="#3a3a38" fill-rule="evenodd"/><g fill="#1e8bcd"><path d="m12.515625 9c-.454318-.011504-.686847.5402829-.361328.8574219l2.146484 2.1425781h-4.800781c-.277 0-.5.223-.5.5s.223.5.5.5h4.800781l-2.146484 2.142578c-.325519.317139-.09299.868926.361328.857422.130048-.0041.25337-.05875.34375-.152344l2.916016-2.912109c.173289-.160699.223009-.266429.224609-.435547-.0016-.169118-.05132-.274898-.224609-.435547l-2.916016-2.9121092c-.09038-.0935941-.213702-.1482439-.34375-.1523438z"/><path d="m3.484375 9c.454318-.011504.686847.5402829.361328.8574219l-2.146484 2.1425781h4.800781c.277 0 .5.223.5.5s-.223.5-.5.5h-4.800781l2.146484 2.142578c.325519.317139.09299.868926-.361328.857422-.130048-.0041-.25337-.05875-.34375-.152344l-2.916016-2.912109c-.173289-.160699-.223009-.266429-.224609-.435547.0016-.169118.05132-.274898.224609-.435547l2.916016-2.9121092c.09038-.0935941.213702-.1482439.34375-.1523438z"/></g></svg>