<svg viewBox="0 0 16 16" xmlns="http://www.w3.org/2000/svg"><g fill="#3a3a38" transform="matrix(.87512015 0 0 .87512015 .999039 .999039)"><path d="m14.975945 14.325719q-1.20275.884303-2.561856 1.285188-1.359106.389094-2.8865977.389094-1.9364262 0-3.5120274-.589536-1.5635739-.601326-2.6821306-1.662491-1.1185567-1.072955-1.7319587-2.535004-.6013746-1.4738391-.6013746-3.2188648 0-1.7568166.5773196-3.2188652.5773195-1.4738393 1.6477663-2.5350037 1.0824742-1.0611643 2.5979381-1.65069999 1.5274914-.58953574 3.40378-.58953574.974226 0 1.816151.1532793.841924.15327928 1.563574.42446573.721649.27118643 1.310996.6484893.601375.3773028 1.082475.8371407l-.902062 1.3913044q-.204468.33014-.553265.412675-.33677.0707443-.733677-.16507-.372852-.2240236-.745704-.412675-.372853-.2004421-.805842-.3419307-.420962-.1532793-.938144-.2358143-.5171824-.0825354-1.1907219-.0825354-1.1305842 0-2.032646.3890936-.9020619.3773032-1.5395189 1.0729554-.6374571.6956521-.9862543 1.6978629-.3367698.99042-.3367698 2.2048637 0 1.32056.3728523 2.3581428.3728522 1.037583 1.0463917 1.756817.685567.707443 1.6477663 1.084745.9621993.365512 2.1408935.365512.7938141 0 1.4192441-.153279.637457-.16507 1.250859-.448047v-2.735445h-1.840206q-.2886601 0-.4690724-.165071-.1683849-.1650698-.1683849-.4008841v-1.7450257h5.3402063z"/><path d="m14.975945 14.325719q-1.20275.884303-2.561856 1.285188-1.359106.389094-2.8865977.389094-1.9364262 0-3.5120274-.589536-1.5635739-.601326-2.6821306-1.662491-1.1185567-1.072955-1.7319587-2.535004-.6013746-1.4738391-.6013746-3.2188648 0-1.7568166.5773196-3.2188652.5773195-1.4738393 1.6477663-2.5350037 1.0824742-1.0611643 2.5979381-1.65069999 1.5274914-.58953574 3.40378-.58953574.974226 0 1.816151.1532793.841924.15327928 1.563574.42446573.721649.27118643 1.310996.6484893.601375.3773028 1.082475.8371407l-.902062 1.3913044q-.204468.33014-.553265.412675-.33677.0707443-.733677-.16507-.372852-.2240236-.745704-.412675-.372853-.2004421-.805842-.3419307-.420962-.1532793-.938144-.2358143-.5171824-.0825354-1.1907219-.0825354-1.1305842 0-2.032646.3890936-.9020619.3773032-1.5395189 1.0729554-.6374571.6956521-.9862543 1.6978629-.3367698.99042-.3367698 2.2048637 0 1.32056.3728523 2.3581428.3728522 1.037583 1.0463917 1.756817.685567.707443 1.6477663 1.084745.9621993.365512 2.1408935.365512.7938141 0 1.4192441-.153279.637457-.16507 1.250859-.448047v-2.735445h-1.840206q-.2886601 0-.4690724-.165071-.1683849-.1650698-.1683849-.4008841v-1.7450257h5.3402063z"/></g></svg>