<svg height="112" viewBox="0 0 44.449999 29.633334" width="168" xmlns="http://www.w3.org/2000/svg" xmlns:xlink="http://www.w3.org/1999/xlink"><linearGradient id="a" gradientTransform="matrix(.07888208 0 0 .26458333 276.64556 281.1563)" gradientUnits="userSpaceOnUse" x1="-17" x2="144" xlink:href="#b" y1="-1194.6378" y2="-1194.6378"/><linearGradient id="b"><stop offset="0" stop-opacity="0"/><stop offset=".49305555"/><stop offset="1" stop-opacity="0"/></linearGradient><linearGradient id="c" gradientTransform="matrix(.07888208 0 0 .26458333 276.64556 303.11672)" gradientUnits="userSpaceOnUse" x1="-17" x2="144" xlink:href="#b" y1="-1194.6378" y2="-1194.6378"/><linearGradient id="d" gradientTransform="matrix(.07888208 0 0 .26458333 276.64556 281.95005)" gradientUnits="userSpaceOnUse" x1="-17" x2="144" xlink:href="#b" y1="-1194.6378" y2="-1194.6378"/><linearGradient id="e" gradientTransform="matrix(.07888208 0 0 .26458333 276.64556 302.32297)" gradientUnits="userSpaceOnUse" x1="-17" x2="144" xlink:href="#b" y1="-1194.6378" y2="-1194.6378"/><linearGradient id="f" gradientTransform="matrix(.13865966 0 0 .26458333 15.189465 591.12137)" gradientUnits="userSpaceOnUse" x1="-17" x2="144" xlink:href="#b" y1="-1194.6378" y2="-1194.6378"/><linearGradient id="g" gradientTransform="matrix(.13865966 0 0 .26458333 15.189465 604.08595)" gradientUnits="userSpaceOnUse" x1="-17" x2="144" xlink:href="#b" y1="-1194.6378" y2="-1194.6378"/><linearGradient id="h" gradientTransform="matrix(.45349847 0 0 .73377689 75.226207 -840.79291)" gradientUnits="userSpaceOnUse" x1="445.69522" x2="441.38797" y1="1103.5776" y2="1099.8198"><stop offset="0" stop-color="#e9b913"/><stop offset="1" stop-color="#ff0"/></linearGradient><linearGradient id="i" gradientUnits="userSpaceOnUse" x1="20.20755195875" x2="20.20755195875" y1="286.41720306213" y2="288.0381199167"><stop offset="0" stop-color="#0369a3"/><stop offset="1" stop-color="#047fc6"/></linearGradient><linearGradient id="j" gradientUnits="userSpaceOnUse" x1="23.42892279317" x2="23.42892279317" xlink:href="#k" y1="282.69763769232" y2="284.40943892075"/><linearGradient id="k"><stop offset="0" stop-color="#808080"/><stop offset="1" stop-color="#666"/></linearGradient><linearGradient id="l" gradientUnits="userSpaceOnUse" x1="23.42892279317" x2="23.42892279317" xlink:href="#k" y1="282.36690852982" y2="284.01256392575"/><linearGradient id="m" gradientUnits="userSpaceOnUse" x1="20.20752814625" x2="20.20752814625" xlink:href="#n" y1="281.72860124619" y2="284.82673974883"/><linearGradient id="n"><stop offset="0" stop-color="#666"/><stop offset="1" stop-color="#666" stop-opacity=".5"/></linearGradient><radialGradient id="o" cx="-1535.3044" cy="-842.90808" gradientTransform="matrix(-.87728953 0 0 -2.0067085 -1622.1311 -1725.4299)" gradientUnits="userSpaceOnUse" r="10"><stop offset="0" stop-color="#fff"/><stop offset="1" stop-color="#00a8ff" stop-opacity="0"/></radialGradient><linearGradient id="p" gradientUnits="userSpaceOnUse" x1="20.20752814625" x2="20.20752814625" xlink:href="#n" y1="281.72860124619" y2="283.56925455634"/><linearGradient id="q" gradientTransform="matrix(2.3458805 0 0 2.1448448 -795.57032 -2237.9624)" gradientUnits="userSpaceOnUse" x1="345" x2="345" y1="1173" y2="1178"><stop offset="0" stop-color="#0369a3"/><stop offset="1" stop-color="#023f62"/></linearGradient><linearGradient id="r" gradientUnits="userSpaceOnUse" x1="25.27867511625" x2="25.27867511625" y1="286.99202752566" y2="284.90150198066"><stop offset="0" stop-color="#18a303"/><stop offset="1" stop-color="#106802"/></linearGradient><linearGradient id="s" gradientTransform="matrix(2.3458805 0 0 2.1448448 -795.57032 -2240.6347)" gradientUnits="userSpaceOnUse" x1="345" x2="345" y1="1173.9109" y2="1178"><stop offset="0" stop-color="#666"/><stop offset="1" stop-color="#1a1a1a"/></linearGradient><linearGradient id="t" gradientUnits="userSpaceOnUse" x1="22.67364851101" x2="26.55573419127" y1="281.15691604506" y2="283.72938038765"><stop offset="0" stop-color="#fff"/><stop offset="1" stop-color="#fff" stop-opacity="0"/></linearGradient><linearGradient id="u" gradientTransform="matrix(-2.3458805 0 0 2.1448448 843.19532 -2241.2961)" gradientUnits="userSpaceOnUse" x1="345" x2="345" y1="1173" y2="1178"><stop offset="0" stop-color="#666"/><stop offset="1" stop-color="#333"/></linearGradient><linearGradient id="v" gradientTransform="matrix(2.5976844 0 0 2.1166666 -563.26351 1506.4368)" gradientUnits="userSpaceOnUse" x1="230" x2="230" y1="-581.63782" y2="-577.57336"><stop offset="0" stop-color="#44adeb"/><stop offset="1" stop-color="#aadcf7"/></linearGradient><linearGradient id="w" gradientUnits="userSpaceOnUse" x1="9.78958334" x2="9.78958334" y1="278.21515050046" y2="299.38181690046"><stop offset="0" stop-color="#259dd2"/><stop offset="1" stop-color="#025583"/></linearGradient><g transform="matrix(2.0000007 0 0 2.0000007 -25.400008 -548.49291)"><path d="m12.7 274.24637h22.225v14.816665h-22.225z" fill="url(#w)"/><path d="m13.758721 275.30469h20.10792v12.7h-20.10792z" fill="url(#v)"/><path d="m28.401367 279.04533c-3.985829 1.58962-7.878977 3.76251-10.525456 7.2099 5.418448 0 10.571541-.2613 15.989988-.2613l.000794-2.39279c-1.341006-1.16276-3.810439-3.97743-5.465273-4.55581z" fill="#fff" opacity=".5"/><path d="m28.504528 279.29132c1.340535.67024 3.670226 3.00437 5.361371 4.69185v2.01076h-15.415715c2.681444-3.35127 6.703031-5.36207 10.054344-6.70261z" fill="url(#u)"/><path d="m23.582278 283.18723s.117136-.9465.117136-.9465 1.760257-.75308 1.760257-.75308.989968-.92496.989968-.92496 1.740707-.7058 1.740707-.7058-.45426 1.14342-.45426 1.14342-.678609 1.18878-.678609 1.18878-.403929 1.29185-.403929 1.29185-.27935.7443-.27935.7443-2.79192-1.03801-2.79192-1.03801z" fill="#333"/><path d="m18.901172 277.13536c-1.706293 2.57098-3.137781 4.89847-5.142452 7.20013l.01789 1.86127c4.440039 0 11.772227.0585 16.212266.0585-3.719261-2.70002-7.772161-5.1807-10.078971-9.26867-.317791.28294-.804608-.13732-1.008724.1488z" fill="url(#t)" opacity=".5"/><path d="m24.14782 282.30749c-2.006354-1.6646-3.016192-3.01617-4.356719-5.02698-.391997.11837-.377024.0733-.670264 0 0 0-1.793351 2.66425-2.68106 4.02159-.887704 1.35734-2.681444 3.35132-2.681444 3.35132v1.34051h15.415715s-3.682859-2.66028-5.026228-3.68644z" fill="url(#s)"/><path d="m33.866645 284.65342h-.864031s-3.827819.67026-3.827819.67026-3.782571-1.00539-4.3516-1.00539c-.559072 0-2.35104.33513-2.686365.33513-.235011 0-1.675468-.67025-2.016101-.67025-.562025 0-1.20968.71213-2.885339 1.00537 0 0-.481426-1.06818-.795613-1.00537-2.010794.77502-2.681444.67025-2.681444.67025v3.35131h20.107566s.00053-3.35131.00053-3.35131h.000074z" fill="url(#r)"/><path d="m13.758725 285.32368-.000262 2.68105h17.427255s.670263-.67026.670263-.67026-.670263-.67025-.670263-.67025-1.34053-.67029-1.34053-.67029-3.351321-.67025-3.351321-.67025-3.351318-.33514-3.351318-.33514-3.01619.33514-3.01619.33514h-4.021587-2.345923z" fill="url(#q)"/><path d="m15.09925 283.98317s.954965-1.53297.954965-1.53297 1.131883-1.33958 1.131883-1.33958.864288-1.57433.864288-1.57433 1.070451-1.58554 1.070451-1.58554-.726551 2.00229-.726551 2.00229-.531995 1.64952-.531995 1.64952-.257305 1.04055-.257305 1.04055-.480134 1.10861-.480134 1.10861c-.193276-.14097-.437626-.14619-.657992-.2177 0 0-.629275.24664-.629275.24664s-.738335.20251-.738335.20251z" fill="#333"/><path d="m17.558139 284.01278.720635-1.81991.35148-1.87873.508352-1.1599.31736-1.20349.440542 1.23836.12515 1.18258.53289 1.05352.528277 1.21044.09875.855-.887346.24908-.842907-.32864-.931783.60452h-.9614z" fill="url(#p)"/><path d="m26.1971 284.31951s-1.174031-.84622-1.174031-.84622-.749855-.59822-.749855-.59822.728268 1.13491.728268 1.13491 1.195618.30953 1.195618.30953z" fill="#808080"/><path d="m-283.77136-33.866665h8.466666v20.108334h-8.466666z" fill="url(#o)" transform="matrix(0 -1 -1 0 0 0)"/><path d="m279.25196-33.866665a3.9687526 3.96875 0 0 1 -3.96876 3.96875v-3.96875z" fill="#e9b913" opacity=".5" transform="rotate(90)"/><path d="m27.180723 283.51243s.414313-1.33416.414313-1.33416.508347-1.15991.508347-1.15991.317365-1.20338.317365-1.20338.440536 1.23833.440536 1.23833.565016 1.05693.565016 1.05693.40722 1.05352.40722 1.05352-.05818 1.12665-.05818 1.12665.559559.56173.559559.56173-1.151927-.0623-1.151927-.0623-2.324891-.48109-2.324891-.48109.322665-.79643.322665-.79643z" fill="url(#m)"/><path d="m24.482946 283.98317s-.975913-1.47896-.975913-1.47896-1.730655-1.8873-1.730655-1.8873-1.431856-1.88259-1.431856-1.88259-.553421-.78357-.553421-.78357.59981 2.03436.59981 2.03436.657831 1.21999.657831 1.21999.583538 1.86367.583538 1.86367.169617.9144.169617.9144.602477.20188.602477.20188.920959-.21336.920959-.21336c.386625-.0382.773266.007 1.157613.0116z" fill="url(#l)"/><path d="m33.59435 284.2554s-.787403-.47352-.787403-.47352-1.102283-1.51032-1.102283-1.51032-1.62037-1.40076-1.62037-1.40076-1.265576-1.05582-1.265576-1.05582.243732.88225.243732.88225 1.11864 1.76464 1.11864 1.76464.122729 1.59139.122729 1.59139.672314.51639.672314.51639 1.508094-.29324 1.508094-.29324l1.110123-.0206z" fill="url(#j)"/><path d="m13.765519 286.01147-.0068 1.99326h16.756598v-.67026l-.670259-.67025-3.351326-.67029-3.351318-.3351-3.351319.3351-3.62721.1z" fill="url(#i)"/><path d="m23.151486 285.34117-3.365614.38151-3.590134.27458-2.18948.008 2.15813.0898 3.699912-.006 3.278473-.33901 3.356901.31988 1.493348.29131 1.838749.42801.603581.57878.08268.63667h.305924l.05427-.73748-.902518-.86299-3.492532-.65651z" fill="#0088b7"/><path d="m21.131628 287.33447s.670269-.67025.670269-.67025h2.681049s2.010791.67025 2.010791.67025.670267.67026.670267.67026h-1.340525s-4.691851-.67026-4.691851-.67026z" fill="#1c99e0" opacity=".5"/><path d="m19.794141 277.95054.413411 1.56268c.339815.62921 1.006449.89551 1.556777 1.43158.79467.7741 1.677143 1.68855 2.015098 1.98322l-.272851-.4217-1.72806-1.89341-1.430404-1.8769z" fill="#fff" opacity=".4"/><path d="m19.124414 277.95054-.865084 2.01433-.862976 2.41744-.945515 1.15697c.135985.0304.557144.13129.672664.21556l.479557-1.10794.256315-1.0418.537435-1.65365z" opacity=".25"/><path d="m20.116602 283.98635c-.547373 0-1.17292.66953-2.753321.97565l-.05788.0331c.0285.01.128765.0278.479557-.0249.46772-.0702 2.132516-.77581 2.530079-.75239.397563.0233 1.585147.70135 1.81901.67799.23386-.0236 2.481199-.34988 2.902149-.25633.420949.0935 4.282943.95912 4.282943.95912l3.68763-.678.859896.0249v-.2894h-.868164l-3.819922.66974s-3.788328-1.00872-4.357357-1.00872c-.559073 0-2.35185.33898-2.687175.33898-.235011 0-1.676815-.66971-2.017448-.66971z" fill="#ff0" opacity=".35"/><path d="m278.74362-33.867634a3.4395747 3.4395792 0 0 1 -3.43957 3.439579v-3.439579z" fill="url(#h)" opacity=".74" transform="rotate(90)"/><path d="m29.633333 275.30471c0 2.33976 1.893523 4.23333 4.233334 4.23333v-.26151c-2.195378 0-3.971814-1.77647-3.971814-3.97182z" fill="#fff" opacity=".5"/><path d="m28.814779 279.81088.248047.88471 1.11621 1.7694.124024 1.5875.669726.52089.115756-.0249-.595313-.59531-.115755-1.52136-.638416-.98134 1.713286.9152 1.355989 1.41385-1.099674-1.50482-1.620573-1.4056zm3.993554 3.96875.06615.0744-.01654-.0414z" fill="#fff" opacity=".4"/><path d="m12.832292 288.0047h22.324219v.264588h-22.324219z" fill="url(#g)" opacity=".25"/><path d="m12.832292 275.0401h22.324219v.264588h-22.324219z" fill="url(#f)" opacity=".15"/><path d="m13.758333 275.30471v12.7h20.108334v-12.7zm.264584.26458h19.579166v12.17083h-19.579166z" fill="#fff" opacity=".35"/><g transform="rotate(90)"><path d="m275.30469-13.758342h12.7v.264588h-12.7z" fill="url(#e)" opacity=".25"/><path d="m275.30469-34.131256h12.7v.264588h-12.7z" fill="url(#d)" opacity=".25"/><path d="m275.30469-12.964591h12.7v.264588h-12.7z" fill="url(#c)" opacity=".25"/><path d="m275.30469-34.925007h12.7v.264588h-12.7z" fill="url(#a)" opacity=".25"/></g></g></svg>