<svg viewBox="0 0 16 16" xmlns="http://www.w3.org/2000/svg">
/&amp;gt;<path d="m1 2v9.480469c.0076284-.373312.1693968-.770289.4394531-1.041016l2.9472657-2.9511718-.0976563.1132813c.277348-.3759423.7164748-.602025 1.1835937-.609375.4732591-.0073684.9244907.2106241 1.2128907.5859375l-.0859375-.0976562 2.9453125 2.9414062c.304933.291283.4903431.741691.4707031 1.148437-.019642.406748-.1962914.745704-.4433594.994141s-.5855555.427329-.9921875.449219c-.406631.021889-.8574276-.161525-1.1503906-.464844l-.4277344-.427734.0019531 1.878906h7.9960938v-9.4570312c-.015492.3753632-.185748.7704395-.462891 1.0351562l-2.945312 2.9414062.085937-.0976562c-.288388.3753137-.739632.5933375-1.21289.5859375-.4671193-.007347-.906247-.2334329-1.183594-.609375l.0976562.1132813-2.9472656-2.9511719c-.294907-.295051-.4692825-.7415066-.4453125-1.1425781.023971-.4010717.2011646-.7350457.4472657-.9804688.2461009-.2454231.5793327-.4224475.9804687-.4453125.401137-.0228648.8483351.1534989 1.1425781.4492187l.4375.4375.0019532-1.8789062zm10.996094 0-.001953 1.8789062.427734-.4277343c.29296-.3033305.743751-.4867293 1.150391-.4648438.406639.0218855.745116.2007791.992187.4492188.235951.2372575.403463.5588332.435547.9414062v-2.3769531zm-10.996094 9.619141v2.380859h3.0039062l-.0019531-1.878906-.4375.4375-.0019531.001953c-.294372.294147-.740616.470225-1.140625.447265-.400836-.023001-.7344788-.2-.9804688-.445312-.2380396-.237384-.4085869-.559717-.4414062-.943359z" fill="#fafafa"/><path d="m1 2v2h5.078125c.0793869-.2174651.2015815-.4090367.3554688-.5625.2461009-.2454231.5793327-.4224475.9804687-.4453125.401137-.0228648.8483351.1534989 1.1425781.4492187l.4375.4375.0019532-1.8789062zm10.996094 0-.001953 1.8789062.427734-.4277343c.29296-.3033305.743751-.4867293 1.150391-.4648438.406639.0218855.745116.2007791.992187.4492188.153014.1538607.272429.3460328.349609.5644531h.085938v-2z" fill="#797774"/><path d="m1 1c-.554 0-1 .446-1 1v12c0 .554.446 1 1 1h3.0058594l-.0019532-1h-3.0039062v-2.380859c-.00109609-.012814-.0050802-.024157-.00585938-.03711-.00199624-.033185.00517067-.06786.00585938-.101562v-9.480469h7.9960938l.0019531-1zm10.998047 0-.001953 1h3.003906v2.3769531c.001512.018031.006929.0344266.007812.0527344.001791.0370934-.006258.0756157-.007812.1132813v9.4570312h-7.9960938l.0019532 1h7.9941406c.554 0 1-.446 1-1v-12c0-.554-.446-1-1-1z" fill="#3a3a38"/><g fill="#1e8bcd"><path d="m0 1v4h6.0820312c-.0700963-.1902728-.1071148-.3910978-.0957031-.5820312.0089821-.1502813.0442259-.2876571.0917969-.4179688h-5.078125v-2h7.9960938l.0019531-1zm11.998047 0-.001953 1h3.003906v2h-.083984c.047988.1336485.08434.2752452.091796.4296875.009071.1878651-.029626.3838029-.099609.5703125h1.091797v-4z" fill="#3a3a38"/><g fill-rule="evenodd"><path d="m5.488213 7.992879a.50005.50005 0 0 0 -.394531.203125l-2.947266 2.951171a.50063788.50063788 0 1 0 .708984.707032l2.142579-2.146485.0078 5.785157a.50005.50005 0 1 0 1 0l-.0078-5.785157 2.15039 2.146485a.50005.50005 0 1 0 .705078-.708985l-2.960937-2.957031a.50005.50005 0 0 0 -.404297-.195312z"/><path d="m10.480118 8.0071211a.50005.50005 0 0 1 -.394531-.203125l-2.947266-2.951171a.50063788.50063788 0 1 1 .708984-.707032l2.142579 2.146485.0078-5.78515686a.50005.50005 0 1 1 1 0l-.0078 5.78515686 2.15039-2.146485a.50005.50005 0 1 1 .705078.708985l-2.960937 2.957031a.50005.50005 0 0 1 -.404297.195312z"/></g></g></svg>