<svg viewBox="0 0 16 16" xmlns="http://www.w3.org/2000/svg">/&amp;amp;amp;gt;<path d="m5.5371094 1c-.2826966-.00348741-.5135219.2542462-.5136719.5722656v7.8554688c.0003644.3914471.342455.6671776.671875.5410156l1.3046875-.4980469v-.4707031c0-1.0907028.9092972-2 2-2h4.472656l1.207032-.4609375c.43684-.1695915.461972-.8529474.039062-1.0625l-8.9824219-4.4277344c-.0628333-.0310838-.1305876-.0480181-.1992187-.0488281z" fill="#d42314"/><path d="m2.9771752 1c-.554 0-1 .446-1 1v13c0 .554.446 1 1 1s1-.446 1-1v-13c0-.554-.446-1-1-1z" fill="#3a3a38"/><rect fill="#922e9b" height="8" ry="1" width="8" x="8" y="8"/><g fill="#fafafa"><rect height="3" rx=".5" width="6" x="9" y="9"/><path d="m10 12.999999c-.554 0-1 .446-1 1v1c0 .554.446 1 1 1v-2h1v2h2c.554 0 1-.446 1-1v-1c0-.554-.446-1-1-1z"/></g><path d="m6 2.265625v6.5410156l1.109375-.4238281c.2658248-.7943706 1.0157905-1.3828125 1.890625-1.3828125h1.734375l2.744141-1.046875z" fill="#ff9198"/></svg>