<svg viewBox="0 0 16 16" xmlns="http://www.w3.org/2000/svg">/&amp;amp;amp;gt;<path d="m5.5371094 1c-.2826966-.00348741-.5135219.2542462-.5136719.5722656v7.8554688c.0003644.3914471.342455.6671776.671875.5410156l.6132813-.234375c.7438806-2.1812455 2.8035951-3.7315441 5.1894532-3.734375a1.0001 1.0001 0 0 1 .003906 0c.935269.0020137 1.797646.3122887 2.591797.7617188l.322266-.1210938c.152867-.2194931.343249-.3994482.574218-.5117188.052524-.2497181-.023695-.5295637-.271484-.6523437l-8.9824219-4.4277344c-.0628333-.0310838-.1305876-.0480181-.1992187-.0488281z" fill="#d42314"/><path d="m3 1c-.554 0-1 .446-1 1v13c0 .554.446 1 1 1s1-.446 1-1v-13c0-.554-.446-1-1-1z" fill="#3a3a38"/><path d="m11.5 7c-2.2897564.0027169-4.212381 1.72442-4.4667969 4h1.0078125c.2482706-1.7200823 1.721079-2.9974588 3.4589844-3 1.349002.00308 2.576155.7811616 3.154297 2h-1.154297c-.277 0-.5.223-.5.5s.223.5.5.5h2c.277 0 .5-.223.5-.5v-2-1c0-.277-.223-.5-.5-.5s-.5.223-.5.5v1 .1835938c-.851968-1.0616918-2.138739-1.6806629-3.5-1.6835938zm-4 5c-.277 0-.5.223-.5.5v2 1c0 .277.223.5.5.5s.5-.223.5-.5v-1-.183594c.8519683 1.061692 2.138739 1.680663 3.5 1.683594 2.289756-.0027 4.212381-1.72442 4.466797-4h-1.007813c-.248271 1.720082-1.721079 2.997459-3.458984 3-1.349002-.003078-2.5761554-.781162-3.1542969-2h1.1542969c.277 0 .5-.223.5-.5s-.223-.5-.5-.5z" fill="#18ab50"/><path d="m6 2.265625v6.5410156l.9628906-.3671875c.994277-1.4689222 2.6588728-2.4372268 4.5351564-2.4394531a1.0003839 1.0003839 0 0 1 .003906 0c.454431.0009784.889403.0814748 1.310547.2070312l.666016-.2539062z" fill="#ff9198"/></svg>