<svg height="32" viewBox="0 0 32 32" width="32" xmlns="http://www.w3.org/2000/svg"><g stroke-width=".125"><path d="m15.443359 3.0019531c-.334707.019102-.637578.2046383-.80664.4941407l-3.5 6c-.089388.1528995-.136569.3267946-.136719.5039062v1h-1c-.1771116.00015-.3510067.04733-.5039062.136719l-6 3.5c-.6602378.386164-.6602377 1.340398 0 1.726562l6 3.5c.1528995.089388.3267946.136569.5039062.136719h1v1c.00015.177112.04733.351007.136719.503906l3.5 6c.386164.660238 1.340398.660238 1.726562 0l3.5-6c.089388-.152899.136569-.326794.136719-.503906v-1h1c.177112-.00015.351007-.04733.503906-.136719l6-3.5c.660238-.386164.660238-1.340398 0-1.726562l-6-3.5c-.152899-.089388-.326794-.136569-.503906-.136719h-1v-1c-.00015-.1771116-.047331-.3510067-.136719-.5039062l-3.5-6c-.18948-.3244333-.544806-.5152986-.919922-.4941407zm.056641.9980469 3.5 6v1h-.34375a5.5 5.5 0 0 0 -3.15625-1 5.5 5.5 0 0 0 -3.150391 1h-.349609v-1zm0 7a4.5 4.5 0 0 1 4.5 4.5 4.5 4.5 0 0 1 -4.5 4.5 4.5 4.5 0 0 1 -4.5-4.5 4.5 4.5 0 0 1 4.5-4.5zm-5.5 1h1v.34375a5.5 5.5 0 0 0 -1 3.15625 5.5 5.5 0 0 0 1 3.150391v.349609h-1l-6-3.5zm5.5 0c-1.932997 0-3.5 1.567003-3.5 3.5s1.567003 3.5 3.5 3.5 3.5-1.567003 3.5-3.5-1.567003-3.5-3.5-3.5zm4.5 0h1l6 3.5-6 3.5h-1v-.34375a5.5 5.5 0 0 0 1-3.15625 5.5 5.5 0 0 0 -1-3.150391zm-4.5 1a2.5 2.5 0 0 1 .472656.046875c.025789.004943.050671.011849.076172.017578a2.5 2.5 0 0 1 .408203.126953c.012676.005262.024541.012115.03711.017578a2.5 2.5 0 0 1 .392578.212891c.010165.006791.019237.014549.029297.021484a2.5 2.5 0 0 1 .34375.283203c.002314.002297.005507.003555.007812.00586a2.5 2.5 0 0 1 .011719.015625 2.5 2.5 0 0 1 .283203.339844c.003177.004634.006619.009014.009766.013671a2.5 2.5 0 0 1 .009765.019532 2.5 2.5 0 0 1 .220703.40625 2.5 2.5 0 0 1 .136719.4375c.002904.013284.007074.0257.009766.039062a2.5 2.5 0 0 1 .001953.013672 2.5 2.5 0 0 1 .048828.482422 2.5 2.5 0 0 1 -.046875.472656c-.004943.025789-.011849.050671-.017578.076172a2.5 2.5 0 0 1 -.126953.408203c-.005262.012676-.012115.024541-.017578.03711a2.5 2.5 0 0 1 -.212891.392578c-.006791.010165-.014549.019237-.021484.029297a2.5 2.5 0 0 1 -.283203.34375 2.5 2.5 0 0 1 -.021485.019531 2.5 2.5 0 0 1 -.339844.283203c-.004634.003177-.009014.006619-.013671.009766a2.5 2.5 0 0 1 -.019532.009765 2.5 2.5 0 0 1 -.40625.220703 2.5 2.5 0 0 1 -.4375.136719c-.013284.002904-.0257.007074-.039062.009766a2.5 2.5 0 0 1 -.013672.001953 2.5 2.5 0 0 1 -.482422.048828 2.5 2.5 0 0 1 -.472656-.046875c-.025789-.004943-.050671-.011849-.076172-.017578a2.5 2.5 0 0 1 -.408203-.126953c-.012676-.005262-.024541-.012115-.03711-.017578a2.5 2.5 0 0 1 -.392578-.212891c-.010165-.006791-.019237-.014549-.029297-.021484a2.5 2.5 0 0 1 -.34375-.283203c-.006942-.006889-.012669-.014516-.019531-.021485a2.5 2.5 0 0 1 -.283203-.339844 2.5 2.5 0 0 1 -.003906-.007812c-.005626-.008268-.010096-.017052-.015625-.025391a2.5 2.5 0 0 1 -.220703-.40625 2.5 2.5 0 0 1 -.136719-.4375c-.002904-.013284-.007074-.0257-.009766-.039062a2.5 2.5 0 0 1 -.001953-.013672 2.5 2.5 0 0 1 -.048828-.482422 2.5 2.5 0 0 1 .009766-.208984c.001102-.01365.000624-.027384.001953-.041016.001563-.015557.007922-.029457.009765-.044922a2.5 2.5 0 0 1 .078125-.394531c.006481-.022602.014395-.044084.021485-.066406a2.5 2.5 0 0 1 .146484-.371094c.001299-.00257.002599-.005248.003906-.007813a2.5 2.5 0 0 1 .001954-.005859c.004309-.008401.011223-.015094.015624-.023437a2.5 2.5 0 0 1 .21875-.34375c.005372-.007087.010181-.014459.015626-.021485a2.5 2.5 0 0 1 .27539-.298828c.014565-.01354.028087-.027826.042969-.041016a2.5 2.5 0 0 1 .304687-.230468c.025561-.016485.051946-.031313.078125-.046875a2.5 2.5 0 0 1 .339844-.169922c.021231-.008582.042945-.015428.064453-.023438a2.5 2.5 0 0 1 .386719-.111328c.014166-.002782.028722-.003318.042969-.005859a2.5 2.5 0 0 1 .441406-.042969zm-3.5 7h.34375a5.5 5.5 0 0 0 3.15625 1 5.5 5.5 0 0 0 3.150391-1h.349609v1l-3.5 6-3.5-6z" fill="#fff"/><path d="m15.5 4-3.5 6v1h.349609a5.5 5.5 0 0 1 3.150391-1 5.5 5.5 0 0 1 3.15625 1h.34375v-1zm-5.5 8-6 3.5 6 3.5h1v-.349609a5.5 5.5 0 0 1 -1-3.150391 5.5 5.5 0 0 1 1-3.15625v-.34375zm10 0v.349609a5.5 5.5 0 0 1 1 3.150391 5.5 5.5 0 0 1 -1 3.15625v.34375h1l6-3.5-6-3.5zm-4.5 1a2.5 2.5 0 0 0 -2.5 2.5 2.5 2.5 0 0 0 2.5 2.5 2.5 2.5 0 0 0 2.5-2.5 2.5 2.5 0 0 0 -2.5-2.5zm-3.5 7v1l3.5 6 3.5-6v-1h-.349609a5.5 5.5 0 0 1 -3.150391 1 5.5 5.5 0 0 1 -3.15625-1z"/></g></svg>