<svg height="32" viewBox="0 0 32 32" width="32" xmlns="http://www.w3.org/2000/svg"><g transform="matrix(.125 0 0 .125 -8 25)"><path d="m72-192v104l24-24 25.60938 48h-33.60938v72h104v-72h-49.04688c.77863-3.95243-.37021-8.5425-2.1875-11.4375l-27.45312-44.5625h38.6875zm32 144h72v40h-72z" fill="#fafafa"/><path d="m64-200v131.3125l30.015625-30.01563 22.656255 42.43751.15624.2344c.008.0128.0231.0184.0313.0312h-4.85942v8h8v-4.43751c3.24163 2.7467 7.34574 4.07203 11.0625 4.20313 5.08093.1792 9.91409-1.30561 14.03125-4.3125.69584-.27848 1.01055-.95845 1.51563-1.4375 6.76067-8.36888 5.30272-18.72422.93749-25.6875l-19.90625-32.3281h45.20313l-97.765625-88zm48 144v-8h-8v8zm-8 0h-8v8h8zm-8 8h-8v8h8zm0 8v8h8v-8zm0 8h-8v8h8zm0 8v8h8v-8zm0 8h-8v8h8zm0 8v8h8v-8zm8 8v8h8v-8zm8 0h8v-8h-8zm8 0v8h8v-8zm8 0h8v-8h-8zm8 0v8h8v-8zm8 0h8v-8h-8zm8 0v8h8v-8zm8 0h8v-8h-8zm8 0v8h8v-8zm8 0h8v-8h-8zm8-8h8v-8h-8zm0-8v-8h-8v8zm0-8h8v-8h-8zm0-8v-8h-8v8zm0-8h8v-8h-8zm0-8v-8h-8v8zm-8-8v-8h-8v8zm-8 0h-8v8h8zm-8 0v-8h-8v8zm24 0h8v-8h-8zm0 56v8h8v-8zm-88 0h-8v8h8zm0-56v-8h-8v8zm-24-136 80 72h-38.6875l27.45312 44.5625c2.68749 4.28125 3.23438 12.7798-.39062 16.42188-4.96222 4.01675-13.41377 4.10976-16.78125-1.26563l-27.59375-51.71875-24 24z"/></g></svg>