<svg height="32" viewBox="0 0 32 32" width="32" xmlns="http://www.w3.org/2000/svg"><g transform="matrix(.125 0 0 .125 -8 -3)"><path d="m72 31.999999v104.000001l24-24 25.60938 48h-33.60938v16h88v40h-32v16h32 16v-56-16h-49.04688c.77863-3.95243-.37021-8.5425-2.1875-11.4375l-27.45312-44.5625h38.6875zm24 152.000001v40h40v-40z" fill="#fafafa"/><path d="m64 23.999999v131.312501l30.015625-30.01563 22.656255 42.4375.15625.23438c.008.0128.0231.0185.0312.0312h-4.85933v8h-8v-8h-8v8h-8v56h56v-8h8v-8h-8v-40h-24v-4.4375c3.24163 2.74669 7.34574 4.07202 11.0625 4.20312 5.08093.1792 9.91409-1.30561 14.03125-4.31249.69584-.27848 1.01055-.95846 1.51563-1.43751 6.76067-8.36888 5.30272-18.72421.93749-25.68749l-19.90624-32.32808h45.20312l-97.765625-88.000001zm88 200.000001v8h8v-8zm8 0h8v-8h-8zm8 0v8h8v-8zm8 0h8v-8h-8zm8-8h8v-8h-8zm0-8v-8h-8v8zm0-8h8v-8h-8zm0-8v-8h-8v8zm0-8h8v-8h-8zm0-8v-8h-8v8zm-8-8v-8h-8v8zm-8 0h-8v8h8zm-8 0v-8h-8v8zm24 0h8v-8h-8zm0 56v8h8v-8zm-88-56v-8h-8v8zm8 0h8v-8h-8zm-32-136.000001 80 72.000001h-38.6875l27.45312 44.5625c2.68749 4.28125 3.23438 12.7798-.39062 16.42187-4.96222 4.01676-13.41377 4.10976-16.78125-1.26562l-27.59375-51.71875-24 24zm24 152.000001h40v40h-40zm16 8v8h1.53125l-9.53125 8v8h8v-3.0625l8-7.23437v2.29687h8v-9.53125-6.46875h-4.9375-5.90625z"/></g></svg>