<svg height="32" viewBox="0 0 32 32" width="32" xmlns="http://www.w3.org/2000/svg"><g stroke-width=".125"><path d="m1 1v13l3-3 3.4492188 6.464844c.4209344.671924 1.4653937.666288 2.0976562.158203.551258-.515184.3847644-1.517578.0488281-2.052735l-3.4316406-5.570312h4.8359375zm27 11v4c0 1.656854-1.343146 3-3 3h-6c-2.209139 0-4 1.790861-4 4v4h1v-4c0-1.656854 1.343146-3 3-3h6c2.209139 0 4-1.790861 4-4v-4zm-13 6c-.552285 0-1 .447715-1 1s.447715 1 1 1 1-.447715 1-1-.447715-1-1-1zm14 1c-.552285 0-1 .447715-1 1s.447715 1 1 1 1-.447715 1-1-.447715-1-1-1z" fill="#fafafa"/><path d="m0 0v16.414062l3.7519531-3.751953 2.8320313 5.304688c.0592889.128262.2256883.32019.4160156.478515.4052032.343337.9182176.509004 1.3828125.525391.6351165.0224 1.2392605-.163201 1.7539065-.539062.08698-.03481.126318-.119807.189453-.179688.845084-1.04611.66284-2.340527.117187-3.210937l-2.4882809-4.041016h5.6503909l-12.2207034-11zm1 1 10 9h-4.8359375l3.4316406 5.570312c.335936.535157.4042969 1.597475-.0488281 2.052735-.6202776.502094-1.6767218.51372-2.0976562-.158203l-3.4492188-6.464844-3 3zm26 10v1 4c0 1.11641-.88359 2-2 2h-6c-.79219 0-1.516154.226864-2.183594.558594-.2245-.85802-.894556-1.558594-1.816406-1.558594-1.09272 0-2 .90727-2 2 0 .92185.700574 1.591906 1.558594 1.816406-.33173.66744-.558594 1.391404-.558594 2.183594v5h3v-5c0-1.11641.88359-2 2-2h6c.79219 0 1.516154-.226864 2.183594-.558594.2245.85802.894556 1.558594 1.816406 1.558594 1.09272 0 2-.90728 2-2 0-.92185-.700574-1.591906-1.558594-1.816406.33173-.66744.558594-1.391404.558594-2.183594v-5zm1 1h1v4c0 2.209139-1.790861 4-4 4h-6c-1.656854 0-3 1.343146-3 3v4h-1v-4c0-2.209139 1.790861-4 4-4h6c1.656854 0 3-1.343146 3-3zm-13 6c.552285 0 1 .447715 1 1s-.447715 1-1 1-1-.447715-1-1 .447715-1 1-1zm14 1c.552285 0 1 .447715 1 1s-.447715 1-1 1-1-.447715-1-1 .447715-1 1-1z"/></g></svg>