<svg height="32" viewBox="0 0 32 32" width="32" xmlns="http://www.w3.org/2000/svg"><path d="m1 5v7h17v-7z" fill="#fff" stroke-width=".125"/><path d="m0 4v9h2.171875.060547l1.1875-1h-.248047-2.171875v-7h1.2324219l-.875-.7363281a.9978984.9978984 0 0 1 -.21875-.2636719zm8.0546875 0 .8671875 1h2.816406l1.1875-1zm8.6679685 0-.867187 1h2.144531v7h-3.009766l.865235 1h3.144531v-9zm-6.9355466 8-.8652344 1h2.816406l-1.1875-1z" stroke-width=".125"/><path d="m2 2v1.5l6.5332031 5.5-6.5332031 5.5v1.5h1 2l5-5.767578 5.291016 4.455078h.707031l-4.929688-5.6875 4.929688-5.6875h-.707031l-5.291016 4.4550781-5-5.7675781h-2z" fill="#060000"/></svg>