<svg height="32" viewBox="0 0 32 32" width="32" xmlns="http://www.w3.org/2000/svg"><g transform="matrix(.125 0 0 .125 -5.370881 -1.000798)"><path d="m50.96705 32.006382v56.044676h55.76935v110.040852l29.93867-29.53918 33.01969 51.32216c5.71591 9.16916 25.96863 1.89077 19.77758-10.88367l-32.84852-52.69826h37.75012s0 0-64.82564-68.241902h56.85859v-56.044676z" fill="#fafafa"/><path d="m43 24v72.05744h55.769346v121.11217l36.520824-36.02872 27.65127 42.98739c2.80446 4.49877 7.53936 6.93296 11.90389 7.61545 4.36453.68247 8.61099-.0272 12.47963-1.78268 3.86866-1.75523 7.51782-4.66511 9.64761-9.11663 2.12979-4.45156 2.08459-10.3484-.34235-15.35599l-.18674-.39096-25.4261-40.79814h41.98262l-64.82561-68.24189h46.19955v-72.05744zm7.96705 8.006382h135.43984v56.044676h-45.84165l-30.42106-32.025529h-11.374834v8.006382 24.019147h-47.802296zm55.76935 32.025529 87.63754 92.261049h-37.75012l32.84852 52.69826c6.19105 12.77444-14.06167 20.05283-19.77758 10.88367l-33.01969-51.32216-29.93867 29.53918z"/></g></svg>