<svg height="25" viewBox="0 0 150 25" width="150" xmlns="http://www.w3.org/2000/svg" xmlns:xlink="http://www.w3.org/1999/xlink"><linearGradient id="a"><stop offset="0" stop-color="#fdfdfd"/><stop offset=".60000002" stop-color="#fdfdfd"/><stop offset=".74999994" stop-color="#a9a9a9"/><stop offset="1" stop-color="#fdfdfd"/></linearGradient><radialGradient id="b" cx="11.287591" cy="11.559854" gradientTransform="matrix(1.3043478 .43478266 -.50890004 1.5267 2.159865 -11.556078)" gradientUnits="userSpaceOnUse" r="11.5" xlink:href="#a"/><radialGradient id="c" cx="11.287591" cy="11.559854" gradientTransform="matrix(1.3043478 .43478266 -.50890004 1.5267 27.159865 -11.556078)" gradientUnits="userSpaceOnUse" r="11.5" xlink:href="#a"/><radialGradient id="d" cx="11.287591" cy="11.559854" gradientTransform="matrix(1.3043478 .43478266 -.50890004 1.5267 52.159865 -11.556078)" gradientUnits="userSpaceOnUse" r="11.5" xlink:href="#a"/><path d="m0 0h150v25h-150z" fill="#fff"/><g opacity=".5" transform="translate(100)"><path d="m25 12.5a12.5 12.5 0 0 1 -12.5 12.5 12.5 12.5 0 0 1 -12.5-12.5 12.5 12.5 0 0 1 12.5-12.5 12.5 12.5 0 0 1 12.5 12.5z" opacity="1"/><path d="m24 12.5a11.5 11.5 0 0 1 -11.5 11.5 11.5 11.5 0 0 1 -11.5-11.5 11.5 11.5 0 0 1 11.5-11.5 11.5 11.5 0 0 1 11.5 11.5z" fill="url(#b)" opacity="1"/><path d="m15 12.5a2.5 2.5 0 0 1 -2.5 2.5 2.5 2.5 0 0 1 -2.5-2.5 2.5 2.5 0 0 1 2.5-2.5 2.5 2.5 0 0 1 2.5 2.5z" opacity="1"/><path d="m9 17 3.5 7 3.496094-6.992188a5.708447 5.708447 0 0 1 -3.496094 1.201172 5.708447 5.708447 0 0 1 -3.5-1.208984zm.0039-9.007812a5.708447 5.708447 0 0 1 3.4961-1.201172 5.708447 5.708447 0 0 1 3.5 1.208984l-3.5-7z"/></g><g opacity=".5" transform="translate(75)"><path d="m25 12.5a12.5 12.5 0 0 1 -12.5 12.5 12.5 12.5 0 0 1 -12.5-12.5 12.5 12.5 0 0 1 12.5-12.5 12.5 12.5 0 0 1 12.5 12.5z" opacity="1"/><path d="m24 12.5a11.5 11.5 0 0 1 -11.5 11.5 11.5 11.5 0 0 1 -11.5-11.5 11.5 11.5 0 0 1 11.5-11.5 11.5 11.5 0 0 1 11.5 11.5z" fill="url(#b)" opacity="1"/><path d="m15 12.5a2.5 2.5 0 0 1 -2.5 2.5 2.5 2.5 0 0 1 -2.5-2.5 2.5 2.5 0 0 1 2.5-2.5 2.5 2.5 0 0 1 2.5 2.5z" opacity="1"/><path d="m17 16 7-3.5-6.992188-3.496094a5.708447 5.708447 0 0 1 1.201172 3.496094 5.708447 5.708447 0 0 1 -1.208984 3.5zm-9.007812-.0039a5.708447 5.708447 0 0 1 -1.201172-3.4961 5.708447 5.708447 0 0 1 1.208984-3.5l-7 3.5z"/></g><g opacity=".5" transform="translate(75)"><path d="m75 12.5a12.5 12.5 0 0 1 -12.5 12.5 12.5 12.5 0 0 1 -12.5-12.5 12.5 12.5 0 0 1 12.5-12.5 12.5 12.5 0 0 1 12.5 12.5z" opacity="1"/><path d="m74 12.5a11.5 11.5 0 0 1 -11.5 11.5 11.5 11.5 0 0 1 -11.5-11.5 11.5 11.5 0 0 1 11.5-11.5 11.5 11.5 0 0 1 11.5 11.5z" fill="url(#d)" opacity="1"/><path d="m65 12.5a2.5 2.5 0 0 1 -2.5 2.5 2.5 2.5 0 0 1 -2.5-2.5 2.5 2.5 0 0 1 2.5-2.5 2.5 2.5 0 0 1 2.5 2.5z" opacity="1"/><path d="m67 16 7-3.5-6.992188-3.496094a5.708447 5.708447 0 0 1 1.201172 3.496094 5.708447 5.708447 0 0 1 -1.208984 3.5zm-9.007812-.0039a5.708447 5.708447 0 0 1 -1.201172-3.4961 5.708447 5.708447 0 0 1 1.208984-3.5l-7 3.5z"/><path d="m59 17 3.5 7 3.496094-6.992188a5.708447 5.708447 0 0 1 -3.496094 1.201172 5.708447 5.708447 0 0 1 -3.5-1.208984zm.0039-9.007812a5.708447 5.708447 0 0 1 3.4961-1.201172 5.708447 5.708447 0 0 1 3.5 1.208984l-3.5-7z"/></g><path d="m75 12.5a12.5 12.5 0 0 1 -12.5 12.5 12.5 12.5 0 0 1 -12.5-12.5 12.5 12.5 0 0 1 12.5-12.5 12.5 12.5 0 0 1 12.5 12.5z"/><path d="m74 12.5a11.5 11.5 0 0 1 -11.5 11.5 11.5 11.5 0 0 1 -11.5-11.5 11.5 11.5 0 0 1 11.5-11.5 11.5 11.5 0 0 1 11.5 11.5z" fill="url(#d)"/><path d="m65 12.5a2.5 2.5 0 0 1 -2.5 2.5 2.5 2.5 0 0 1 -2.5-2.5 2.5 2.5 0 0 1 2.5-2.5 2.5 2.5 0 0 1 2.5 2.5z"/><path d="m66 8-3.5-7-3.496094 6.9921875a5.708447 5.708447 0 0 1 3.496094-1.2011719 5.708447 5.708447 0 0 1 3.5 1.2089844zm-.0039 9.007812a5.708447 5.708447 0 0 1 -3.4961 1.201172 5.708447 5.708447 0 0 1 -3.5-1.208984l3.5 7z"/><path d="m67 16 7-3.5-6.992188-3.496094a5.708447 5.708447 0 0 1 1.201172 3.496094 5.708447 5.708447 0 0 1 -1.208984 3.5zm-9.007812-.0039a5.708447 5.708447 0 0 1 -1.201172-3.4961 5.708447 5.708447 0 0 1 1.208984-3.5l-7 3.5z"/><path d="m50 12.5a12.5 12.5 0 0 1 -12.5 12.5 12.5 12.5 0 0 1 -12.5-12.5 12.5 12.5 0 0 1 12.5-12.5 12.5 12.5 0 0 1 12.5 12.5z"/><path d="m49 12.5a11.5 11.5 0 0 1 -11.5 11.5 11.5 11.5 0 0 1 -11.5-11.5 11.5 11.5 0 0 1 11.5-11.5 11.5 11.5 0 0 1 11.5 11.5z" fill="url(#c)"/><path d="m40 12.5a2.5 2.5 0 0 1 -2.5 2.5 2.5 2.5 0 0 1 -2.5-2.5 2.5 2.5 0 0 1 2.5-2.5 2.5 2.5 0 0 1 2.5 2.5z"/><path d="m41 8-3.5-7-3.496094 6.9921875a5.708447 5.708447 0 0 1 3.496094-1.2011719 5.708447 5.708447 0 0 1 3.5 1.2089844zm-.0039 9.007812a5.708447 5.708447 0 0 1 -3.4961 1.201172 5.708447 5.708447 0 0 1 -3.5-1.208984l3.5 7z"/><path d="m25 12.5a12.5 12.5 0 0 1 -12.5 12.5 12.5 12.5 0 0 1 -12.5-12.5 12.5 12.5 0 0 1 12.5-12.5 12.5 12.5 0 0 1 12.5 12.5z"/><path d="m24 12.5a11.5 11.5 0 0 1 -11.5 11.5 11.5 11.5 0 0 1 -11.5-11.5 11.5 11.5 0 0 1 11.5-11.5 11.5 11.5 0 0 1 11.5 11.5z" fill="url(#b)"/><path d="m15 12.5a2.5 2.5 0 0 1 -2.5 2.5 2.5 2.5 0 0 1 -2.5-2.5 2.5 2.5 0 0 1 2.5-2.5 2.5 2.5 0 0 1 2.5 2.5z"/><path d="m8 9-7 3.5 6.9921875 3.496094a5.708447 5.708447 0 0 1 -1.2011719-3.496094 5.708447 5.708447 0 0 1 1.2089844-3.5zm9.007812.00391a5.708447 5.708447 0 0 1 1.201172 3.49609 5.708447 5.708447 0 0 1 -1.208984 3.5l7-3.5z"/></svg>