<svg viewBox="0 0 32 32" xmlns="http://www.w3.org/2000/svg"><path d="m8 27h16v1h-16z" fill="#1e8bcd" fill-opacity=".992647" stroke-width=".917663"/><path d="m23 26h-2v-9.5c-1.553977.429237-4.179902.697509-5.541236.804817-1.348492.107311-2.207806-.0067-3.222384-.342046-1.001737-.348754-1.791568-.952368-2.3694927-1.810839-.5779249-.858472-.8668873-1.164123-.8668873-2.653033v-6.498899h2v5.975767c0 .938954.135226 1.68341.469139 2.233367.333912.536545.821937.912126 1.464076 1.126744.654983.201204 1.464077.261565 2.427285.181084.976051-.0939 4.368065-.301806 5.6395-.623732v-8.89323h2z" fill="#3a3a38" stroke-width="1.065703"/></svg>