<svg viewBox="0 0 16 16" xmlns="http://www.w3.org/2000/svg">

/&amp;amp;gt;<g fill="#3a3a38"><path d="m.5 8c-.1282996 0-.24174074.0519711-.33007812.1308594-.05159481.0460759-.0941589.1001497-.12304688.1640625-.02843682.0629146-.046875.1313131-.046875.2050781v.2597656.4804688.2597656c0 .073765.01843818.1421635.046875.2050781.02888798.0639128.07145204.1179866.12304688.1640625.08833739.0788883.20177852.1308594.33007812.1308594h5.4609375c-.1312812-.1338853-.2459948-.2794354-.3242187-.4433594-.2240857-.4695881-.2102987-1.0572805.0488281-1.5566406z"/><rect height="1" rx=".5" ry=".428091" width="2" y="14"/><rect height="1" rx=".5" ry=".428091" width="2" x="4" y="14"/><rect height="1" rx=".5" ry=".428091" width="2" x="8" y="14"/><rect height="1" rx=".5" ry=".428091" width="2" x="12" y="14"/><rect height="2" rx=".5" width="16" y="11"/></g><g stroke-width=".733366" transform="translate(-.233366 -.066173)"><path d="m15.699497.06647007c-.130457.003843-.271852.0706921-.382439.1400047-3.03376 1.89609983-3.483889 2.79346063-5.317305 5.36024243-.154603.1859825-.207646.4361961-.141803.6689108.09145.3214279.04289.4303782.535216.6581457.492324.2277674.755497.3106452 1.688748.2649858.165035-.00813.322497-.071723.446896-.1804771 2.621471-2.2846837 2.136701-1.7835691 3.579941-3.9244378.08134-.1211272.124724-.2637508.124615-.409654v-1.8334158c-.000107-.41344775-.120591-.75613253-.533869-.74430473z" fill="#3a3a38"/><path d="m15.232422 1.5136719c-2.171954 1.4601014-2.722085 2.2573978-4.326172 4.5078125.143468.066456.255452.1217701.355469.1386718.11012.018609.339537.013931.671875 0 1.238329-1.2340416 2.706787-2.7659289 3.298828-3.609375z" fill="#fafafa"/><path d="m9.802088 5.9405625c-.1915511.0071429-.3771959.021192-.5357017.0343765-1.5083087.3623563-1.273955.9805211-2.4063583 2.4364373-.3787441.4878067-.0446341 1.1936318.5729425 1.1945848 1.988582-.1271298 2.7428785.387869 4.0908095-.9052483.05254-.052304.09696-.1121662.131776-.1776126.119616-.257919.192063-.5006046.190504-.7419606-.0027-.416742-.170325-.8056286-.295066-1.0900229-.323861-.4259069-.645354-.638391-1.175964-.749122-.18346-.00902-.381392-.00857-.572942-.00147z" fill="#0063b1"/><path d="m8.3300781 7.6484375c-.1692064.2879104-.397982.6579029-.7617187 1.1386719.4956352.0006527 1.4680869.00145 2.0917968.00781.2643925-.02175.4685528-.084361.6953128-.2128907z" fill="#83beec"/><path d="m9.8125 6.6914062c-.3349847-.0025249-.6347055.0822152-.9394531.2851563l2.1621091.9960937c.01511-.064711.02744-.1278592.02734-.1679687v-.00195c-.016429-.3040146-.094134-.5314589-.224605-.7031281-.129315-.1701468-.312143-.2878371-.541016-.3691406-.0013-.000176-.0026.000175-.0039 0-.169876-.0224962-.3289997-.0379317-.480475-.0390626z" fill="#fafafa"/></g></svg>