<svg height="16" viewBox="0 0 4.2333332 4.2333335" width="16" xmlns="http://www.w3.org/2000/svg"><g transform="translate(0 -292.76665)"><path d="m3.4401001 293.82655c.4832008.21669.7932332.5492.7932332.92449 0 .40096-.3582686.7508-.8991698.96583l-.1994712-.17466c.535472-.16178.8340577-.45422.8340577-.79117 0-.26534-.1894792-.5721-.5291667-.80873v-.11576zm-2.6463501 0v.11576c-.33968716.23663-.52916667.54339-.52916667.80873 0 .47135.58410502.85529 1.58749997.91416v-.78187l1.0583334.92604-1.0583334.92605v-.80874c-1.04260991-.07402-1.8520833-.56908-1.8520833-1.17564 0-.3754.31030598-.70781.79375-.92449z" fill="#1e8bcd" stroke-width=".264583"/><g fill="#3a3a38" transform="matrix(.26458333 0 0 .26458333 0 292.76667)"><path d="m7 5h1l.018678 1h-1l-.018678 1h-.9805491l.0186782-1h-2.5381291l-.0469245-.8103465 2.5340939-4.1896535h1.0128306zm-2.5179532 0h1.5374041v-2.6724253l-.072633.1291258z"/><path d="m8.6384047 3.9761946.3187793-2.9618232 3.042816-.0143714-.016949.9856286-2.2277096.0143714-.144458 1.2660026c.2717024-.156027.5783766-.2340405.9200216-.2340405.559545 0 .993999.178893 1.303363.5366791.312054.3577861.468081.8393178.468081 1.444595 0 .5972068-.172168 1.0733582-.516503 1.4284542-.344335.3524058-.816452.5286087-1.416349.5286087-.5380239 0-.9845838-.1519918-1.3396797-.4559755-.3524059-.3066737-.5434045-.7101919-.5729958-1.2105544h.9482676c.037662.2851529.1398866.5043977.3066738.6577346.1667875.1506468.3846871.2259702.6536991.2259702.301294 0 .535335-.1076049.702122-.3228146.169477-.2152097.254216-.5084328.254216-.8796695 0-.3577861-.09281-.6402488-.278427-.8473881-.185619-.2098294-.44118-.3147441-.766685-.3147441-.177548 0-.3281947.024211-.45194.072633-.1237456.045732-.2582516.1371961-.4035181.2743924z"/><path d="m14.5 0a1.5 1.5 0 0 0 -1.5 1.5 1.5 1.5 0 0 0 1.5 1.5 1.5 1.5 0 0 0 1.5-1.5 1.5 1.5 0 0 0 -1.5-1.5zm0 1a.5.5 0 0 1 .5.5.5.5 0 0 1 -.5.5.5.5 0 0 1 -.5-.5.5.5 0 0 1 .5-.5z"/></g></g></svg>