<svg height="16" viewBox="0 0 24 16" width="24" xmlns="http://www.w3.org/2000/svg"><g fill="#fafafa"><path d="m3.6113281 0-3.6113281 10h1.0332031c.1123322 0 .2070123-.0336494.2851563-.0996094.0830281-.065957.1386647-.1422656.1679687-.2285156l.90625-2.671875h3.7890625l.9101563 2.6796875c.0390721.091324.0917772.1676256.1601562.2285156.0732593.06088.169893.0917969.2871094.0917969h1.0332031l-3.6054687-10zm.6738281 1.3085938c.043956.1877219.091785.3630364.140625.5253906.04884.1623541.097644.3040156.1464844.4257812l1.2695313 3.7402344h-3.109375l1.2675781-3.7324219c.043956-.1217657.089832-.2634271.1386719-.4257812.04884-.1623541.097644-.3404077.1464843-.5332031z"/><path d="m15 10v-9.99999988h3.18254q.920634 0 1.579365.1826484.666666.17503805 1.087301.51750381.428572.33485547.626985.82191777.198412.4794521.198412 1.0882801 0 .3652967-.119047.7077626-.111112.3424657-.34127.631659-.230158.2891933-.579365.5251141-.349207.2359209-.825397.3805176 1.087302.2054794 1.63492.7838659.555556.5707763.555556 1.5068494 0 .6392694-.230158 1.1643836-.230159.5251141-.674603.9056316-.444446.3729072-1.095239.5783869-.642857.2054791-1.47619.2054791zm1.444445-4.5509893v3.4550989h2.055555q.547619 0 .936508-.1293759.396825-.1369863.642858-.3729072.253968-.2359208.365079-.5631659.119047-.3348554.119047-.7229832 0-.7686454-.507937-1.217656-.5-.4490107-1.555555-.4490107zm0-.9741248h1.682539q.531746 0 .928572-.1217656.396825-.129376.65873-.3500761.261904-.2207001.388889-.5327245.13492-.3120243.13492-.6925418 0-.8751902-.499999-1.2785388-.492064-.4109589-1.555556-.4109589h-1.738095z"/><rect height="7" ry=".5" width="1" x="15" y="9"/><rect height="7" ry=".5" transform="scale(-1 1)" width="1" x="-8.000146" y="9"/><path d="m3.4844898 8.9998692c.125183-.00772.258789.036809.376953.1542969l2.904297 2.9062499c.141888.136779.236365.258099.234375.439453.002.181354-.09249.302674-.234375.439453l-2.904297 2.90625c-.472656.469951-1.177734-.239033-.705078-.708984l2.128906-2.132813h-4.7597656c-.287625.01483-.52821-.215913-.525391-.503906-.00282-.287993.237766-.518736.525391-.503906h4.7597656l-2.128906-2.1328126c-.354492-.3524632-.047424-.8401111.328125-.8632812z"/><path d="m19.515746 8.9998692c-.125183-.00772-.258789.036809-.376953.1542969l-2.904297 2.9062499c-.141888.136779-.236365.258099-.234375.439453-.002.181354.09249.302674.234375.439453l2.904297 2.90625c.472656.469951 1.177734-.239033.705078-.708984l-2.128906-2.132813h4.759765c.287625.01483.52821-.215913.525391-.503906.0028-.287993-.237766-.518736-.525391-.503906h-4.759765l2.128906-2.1328126c.354492-.3524632.04742-.8401111-.328125-.8632812z"/></g></svg>