<svg height="16" viewBox="0 0 24 16" width="24" xmlns="http://www.w3.org/2000/svg"><g fill="#fafafa"><path d="m3.6113281 0-3.6113281 10h1.0332031c.1123322 0 .2070123-.0336494.2851563-.0996094.0830281-.065957.1386647-.1422656.1679687-.2285156l.90625-2.671875h3.7890625l.9101563 2.6796875c.0390721.091324.0917772.1676256.1601562.2285156.0732593.06088.169893.0917969.2871094.0917969h1.0332031l-3.6054687-10zm.6738281 1.3085938c.043956.1877219.091785.3630364.140625.5253906.04884.1623541.097644.3040156.1464844.4257812l1.2695313 3.7402344h-3.109375l1.2675781-3.7324219c.043956-.1217657.089832-.2634271.1386719-.4257812.04884-.1623541.097644-.3404077.1464843-.5332031z"/><path d="m15.667784 10.212038v-10.21203783h3.116459q.901519 0 1.546572.18652124.652824.17874952 1.064725.52847685.419673.34195564.613966.83934554.194293.4896183.194293 1.1113558 0 .3730424-.116576.7227698-.108804.3497273-.334184.6450526-.225379.2953253-.567335.5362485-.341956.2409233-.808259.388586 1.064726.2098364 1.600974.8004869.54402.5828789.54402 1.5388003 0 .6528243-.225379 1.1890729-.22538.5362485-.660596.9248345-.435217.3808142-1.072498.5906509-.629509.209836-1.445539.209836zm1.414453-4.6474875v3.5283601h2.012875q.536248 0 .917062-.1321192.388586-.1398909.62951-.3808142.248695-.2409233.357499-.5751072.116575-.3419556.116575-.7383132 0-.7849436-.49739-1.2434749-.489618-.4585314-1.523256-.4585314zm0-.99478h1.647604q.520705 0 .909291-.1243475.388586-.1321192.645053-.357499.256466-.2253798.380814-.5440203.132119-.3186404.132119-.7072263 0-.8937476-.489618-1.3056487-.481847-.4196728-1.523257-.4196728h-1.702006z" transform="matrix(1.0212038 0 0 .97923647 -6 0)"/><rect height="7" ry=".5" width="1" x="10" y="9"/><rect height="7" ry=".5" transform="scale(-1 1)" width="1" x="-8.000146" y="9"/><path d="m3.4844898 8.9998692c.125183-.00772.258789.036809.376953.1542969l2.904297 2.9062499c.141888.136779.236365.258099.234375.439453.002.181354-.09249.302674-.234375.439453l-2.904297 2.90625c-.472656.469951-1.177734-.239033-.705078-.708984l2.128906-2.132813h-4.7597656c-.287625.01483-.52821-.215913-.525391-.503906-.00282-.287993.237766-.518736.525391-.503906h4.7597656l-2.128906-2.1328126c-.354492-.3524632-.047424-.8401111.328125-.8632812z"/><path d="m14.515746 8.9998692c-.125183-.00772-.258789.036809-.376953.1542969l-2.904297 2.9062499c-.141888.136779-.236365.258099-.234375.439453-.002.181354.09249.302674.234375.439453l2.904297 2.90625c.472656.469951 1.177734-.239033.705078-.708984l-2.128906-2.132813h4.759765c.287625.01483.52821-.215913.525391-.503906.0028-.287993-.237766-.518736-.525391-.503906h-4.759765l2.128906-2.1328126c.354492-.3524632.04742-.8401111-.328125-.8632812z"/></g></svg>