<svg viewBox="0 0 16 16" xmlns="http://www.w3.org/2000/svg"><path d="m.5 0c-.277 0-.5.223-.5.5v12c0 .277.223.5.5.5h9.5l.009766-1.070312v-.28125c-.1771724-.201873-.3335604-.421079-.4667972-.654297l-.2382813-.472657c-.00065-.0026-.0013047-.005212-.0019531-.007812-.1982352-.480115-.3010644-.9942444-.3027344-1.513672 0-2.209139 1.790861-4 4-4 1.149118.0017906 2.24193.4976979 3 1.3613281v-5.8613281c0-.277-.223-.5-.5-.5zm15.5 11.638672c-.0033.00392-.006466.007819-.009766.011719v.898437c.001701-.016849.009766-.031516.009766-.048828zm-.009766.910156c-.006378.063185-.023914.12359-.050781.177734.028081-.054404.044329-.11382.050781-.177734zm-.050781.177734c-.026456.053316-.062902.10041-.105469.140626.043821-.039823.078039-.087481.105469-.140626zm-.130859.158204c-.037804.031462-.078714.059223-.125.078125.046847-.018469.086384-.047173.125-.078125z" fill="#3a3a38"/><path d="m1 1v11h9.009766v-.070312-.28125c-.1771724-.201873-.3335604-.421079-.4667972-.654297l-.2382813-.472657c-.00065-.0026-.0013047-.005212-.0019531-.007812-.1982352-.480115-.3010644-.9942444-.3027344-1.513672 0-2.209139 1.790861-4 4-4 .714487.0011133 1.395968.2136257 2 .5664062v-4.5664062z" fill="#f8db8f"/><path d="m2 2v9h7.546875c-.0011703-.00204-.0027395-.003817-.0039062-.005859l-.2382813-.472657c-.00065-.0026-.0013047-.005212-.0019531-.007812-.1982352-.480115-.3010644-.9942444-.3027344-1.513672 0-2.209139 1.790861-4 4-4 .34208.000533.675241.0578035 1 .1425781v-3.1425781z" fill="#fafafa"/><path d="m13 6a3 3 0 0 0 -3 3 3 3 0 0 0 3 3 3 3 0 0 0 3-3 3 3 0 0 0 -3-3zm0 2a1 1 0 0 1 1 1 1 1 0 0 1 -1 1 1 1 0 0 1 -1-1 1 1 0 0 1 1-1z" fill="#ed3d3b"/><path d="m11 12.458984v3.541016l2-2 2 2v-3.541016a4 4 0 0 1 -2 .541016 4 4 0 0 1 -2-.541016z" fill="#ed3d3b" fill-rule="evenodd"/><path d="m2 2v9h7.546875c-.0011703-.00204-.0027395-.003817-.0039062-.005859l-.2382813-.472657c-.00065-.0026-.0013047-.005212-.0019531-.007812-.0686293-.166217-.1107293-.340493-.15625-.513672h-6.1464844v-7h10v2c.34208.000533.675241.0578035 1 .1425781v-3.1425781z" fill="#ed8733"/><path d="m5 4h5v2h-5z" fill="#797774"/><path d="m4 7h4v1h-4z" fill="#c8c6c4"/></svg>