<svg viewBox="0 0 16 16" xmlns="http://www.w3.org/2000/svg"><path d="m.5 0c-.277 0-.5.223-.5.5v12c0 .262484.20230305.47048.45898438.492188l2.80468752-5.6093755c.4146812-.8306693 1.3235467-1.3886087 2.2519531-1.3828125.9175547.0062195 1.8108707.561848 2.2207031 1.3828125l1.5683594 3.1386715a4 4 0 0 1 -.0019531-.007812 4 4 0 0 1 -.2246094-.7402345c-.0005045-.0025164.0004997-.0052951 0-.0078125a4 4 0 0 1 -.078125-.765625 4 4 0 0 1 .078125-.765625c.0066846-.0344506.0158748-.0674336.0234375-.1015625a4 4 0 0 1 .2011719-.6523437c.0131806-.032027.0289871-.0621469.0429687-.09375a4 4 0 0 1 .3242188-.5976563c.0150899-.0226849.0313374-.0440503.046875-.0664063a4 4 0 0 1 .4453121-.5371093c.013041-.0131493.025842-.0260944.039063-.0390625a4 4 0 0 1 .550781-.453125c.014527-.0098953.030259-.0176357.044922-.0273438a4 4 0 0 1 .628906-.3417968c.005387-.0023111.010226-.0055245.015625-.0078126a4 4 0 0 1 .001953-.0019531c.006783-.0028686.014683-.0030271.021485-.0058593a4 4 0 0 1 .710937-.2207032c.006133-.0012852.011435-.0046022.017578-.0058594a4 4 0 0 1 .011719-.0019531 4 4 0 0 1 .794922-.0800781 4 4 0 0 1 .794922.0859375c.031447.0064327.062505.0123523.09375.0195313a4 4 0 0 1 .71875.2382812c.02039.0089993.04031.0180051.060547.0273438a4 4 0 0 1 .6875.4042968c.008384.0061385.017051.011372.02539.0175782a4 4 0 0 1 .619141.5683593v-5.8613281c0-.277-.223-.5-.5-.5zm9.0429688 10.994141.4667972.935547v-.28125a4 4 0 0 1 -.003907-.003907 4 4 0 0 1 -.4628902-.65039zm6.4570312.644531a4 4 0 0 1 -.009766.011719v.898437c.001701-.016849.009766-.031516.009766-.048828z" fill="#3a3a38"/><path d="m1 1v10.910156l2.2636719-4.5273435c.4146812-.8306693 1.3235467-1.3886087 2.2519531-1.3828125.9175547.0062195 1.8108707.561848 2.2207031 1.3828125l1.5683594 3.1386715a4 4 0 0 1 -.0019531-.007812 4 4 0 0 1 -.2246094-.7402345c-.0005045-.0025164.0004997-.0052951 0-.0078125a4 4 0 0 1 -.078125-.765625 4 4 0 0 1 .078125-.765625c.0066846-.0344506.0158748-.0674336.0234375-.1015625a4 4 0 0 1 .2011719-.6523437c.0131806-.032027.0289871-.0621469.0429687-.09375a4 4 0 0 1 .3242188-.5976563c.0150899-.0226849.0313374-.0440503.046875-.0664063a4 4 0 0 1 .4453121-.5371093c.013041-.0131493.025842-.0260944.039063-.0390625a4 4 0 0 1 .550781-.453125c.014527-.0098953.030259-.0176357.044922-.0273438a4 4 0 0 1 .628906-.3417968c.005387-.0023111.010226-.0055245.015625-.0078126a4 4 0 0 1 .001953-.0019531c.006783-.0028686.014683-.0030271.021485-.0058593a4 4 0 0 1 .710937-.2207032c.006133-.0012852.011435-.0046022.017578-.0058594a4 4 0 0 1 .011719-.0019531 4 4 0 0 1 .794922-.0800781 4 4 0 0 1 .529297.0390625 4 4 0 0 1 1.470703.5039063v-4.5429688zm8.5429688 9.994141.4667972.935547v-.28125a4 4 0 0 1 -.003907-.003907 4 4 0 0 1 -.4628902-.65039z" fill="#f8db8f"/><path d="m2 2v7.9101562l1.2636719-2.5273437c.4146812-.8306693 1.3235467-1.3886087 2.2519531-1.3828125.9175547.0062195 1.8108707.561848 2.2207031 1.3828125l1.5683594 3.1386715a4 4 0 0 1 -.0019531-.007812 4 4 0 0 1 -.2246094-.7402345c-.0005045-.0025164.0004997-.0052951 0-.0078125a4 4 0 0 1 -.078125-.765625 4 4 0 0 1 .078125-.765625c.0066846-.0344506.0158748-.0674336.0234375-.1015625a4 4 0 0 1 .2011719-.6523437c.0131806-.032027.0289871-.0621469.0429687-.09375a4 4 0 0 1 .3242188-.5976563c.0150899-.0226849.0313374-.0440503.046875-.0664063a4 4 0 0 1 .4453121-.5371093c.013041-.0131493.025842-.0260944.039063-.0390625a4 4 0 0 1 .550781-.453125c.014527-.0098953.030259-.0176357.044922-.0273438a4 4 0 0 1 .628906-.3417968c.005387-.0023111.010226-.0055245.015625-.0078126a4 4 0 0 1 .001953-.0019531c.006783-.0028686.014683-.0030271.021485-.0058593a4 4 0 0 1 .710937-.2207032c.006133-.0012852.011435-.0046022.017578-.0058594a4 4 0 0 1 .011719-.0019531 4 4 0 0 1 .794922-.0800781 4 4 0 0 1 1 .1289062v-3.1289062zm7.5429688 8.994141.0019531.005859h.0019531a4 4 0 0 1 -.0039062-.005859z" fill="#fafafa"/><path d="m13 6a3 3 0 0 0 -3 3 3 3 0 0 0 3 3 3 3 0 0 0 3-3 3 3 0 0 0 -3-3zm0 2a1 1 0 0 1 1 1 1 1 0 0 1 -1 1 1 1 0 0 1 -1-1 1 1 0 0 1 1-1z" fill="#ed3d3b"/><path d="m11 12.458984v3.541016l2-2 2 2v-3.541016a4 4 0 0 1 -2 .541016 4 4 0 0 1 -2-.541016z" fill="#ed3d3b" fill-rule="evenodd"/><path d="m2 2v7.9101562l1-2v-4.9101562h10v2a4 4 0 0 1 1 .1289062v-3.1289062zm7.0449219 8 .2597656.521484a4 4 0 0 1 -.0019531-.007812 4 4 0 0 1 -.1679688-.513672zm.4980469.994141.0019531.005859h.0019531a4 4 0 0 1 -.0039062-.005859z" fill="#ed8733"/><path d="m5 4h5v2h-5z" fill="#797774"/><path d="m7.4707031 7c.0954261.1228896.1959151.2431716.265625.3828125l.2636719.5273437v-.9101562z" fill="#c8c6c4"/><path d="m5.5097656 7a1.50015 1.50015 0 0 0 -1.3515625.8300781l-3 5.9999999a1.50015 1.50015 0 0 0 1.3417969 2.169922h6a1.50015 1.50015 0 0 0 1.3417969-2.169922l-3-5.9999999a1.50015 1.50015 0 0 0 -1.3320313-.8300781z" fill="#ed8733" stroke-linecap="square" stroke-width="2"/><path d="m5.5039062 7.9980469c-.1861449-.0011622-.3680285.110795-.4511718.2773437a.99896156.99896156 0 0 1 -.00195.00195l-2.99805 5.9980504c-.1516879.304007.1075164.726441.4472656.726562h6c.3397492-.000121.5989535-.422555.4472656-.726562l-2.9980468-5.9980472a.99896156.99896156 0 0 1 -.00195-.00195c-.0821744-.1646061-.2593933-.2760999-.4433626-.2773469z" fill="#f8db8f" stroke-linecap="square" stroke-width="2"/><g fill="#3a3a38"><rect height="4" ry=".5" width="1" x="5" y="9"/><circle cx="5.5" cy="14.5" r=".5"/></g></svg>