<svg viewBox="0 0 24 24" xmlns="http://www.w3.org/2000/svg"><g fill="#3a3a38"><path d="m4.4336285 11.499999q0 1.742424.4872463 3.383838.4966163 1.632997 1.4336283 3.114478.1499219.244109.074961.378789-.074961.143098-.2155128.218855l-.7308692.40404q-.6746488-.934343-1.1525249-1.860269-.468506-.917508-.7683498-1.835017-.2904738-.925927-.4310256-1.868687-.1311817-.951179-.1311817-1.936027 0-.984849.1311817-1.92761.1405518-.9427608.4310256-1.8686868.2998438-.925926.7683498-1.8434344.4778761-.9175085 1.1525248-1.851852l.7308692.3956229q.1405519.0841751.2155128.2272727.074961.1346802-.0749609.3787879-.937012 1.4814816-1.4336283 3.1228959-.4872463 1.6329964-.4872463 3.3670038z"/><path d="m19.566373 11.499999q0-1.7340074-.496616-3.3670038-.487247-1.6414143-1.424259-3.1228959-.07496-.1262626-.0937-.2188552-.0094-.092593.01874-.1683502.02811-.075757.08433-.1262626.05623-.050505.131182-.092593l.73087-.4040404q.674648.942761 1.143154 1.8602695.477876.9175084.76835 1.8434344.299844.9259261.431026 1.8686872.14055.942761.14055 1.92761 0 .984848-.140551 1.936027-.131182.94276-.431026 1.868687-.290474.917509-.76835 1.835017-.468506.925926-1.143154 1.860269l-.73087-.40404q-.07496-.03367-.131182-.09259-.05622-.05051-.08433-.126262-.02811-.06734-.01874-.159933.01874-.09259.0937-.218856.937012-1.481481 1.424259-3.114478.496616-1.641414.496616-3.383838z"/><path d="m14.291829 16.866341q-.236058 0-.363166-.0713-.127107-.07129-.172503-.294059l-.19974-.810891q-.345006.31188-.680934.561386-.326849.240594-.690013.409901-.363165.169308-.780804.249506-.41764.089116-.91699.089116-.5175102 0-.9714662-.133664-.4448768-.142572-.7898833-.427721-.3359274-.29406-.535668-.721784-.1906615-.436633-.1906615-1.024752 0-.516832.2814527-.98911.2905318-.481187.9351492-.855445.6446177-.374259 1.6796371-.605942 1.035019-.240594 2.542153-.276237v-.668317q0-1.015842-.444877-1.523764-.435798-.5168319-1.280156-.5168319-.562905 0-.953308.1425744-.381322.142574-.662776.3118813-.2814511.1693071-.490271.3118812-.1997407.142574-.4085604.142574-.163424 0-.2814526-.0802-.1180285-.080189-.1906615-.204946l-.2905317-.4990081q.7354085-.6950499 1.5797662-1.033664.853437-.3475249 1.888456-.3475249.744488 0 1.325552.2405942.581063.2316833.971466.6683172.390401.4366339.590141 1.0425743.208821.6059413.208821 1.3455463v5.569309zm-3.322958-.962377q.399482 0 .735408-.0802.335929-.0802.63554-.222772.29961-.151485.562905-.365347.272373-.222773.535668-.490099v-1.800001q-1.062257.04456-1.806745.178218-.744488.124753-1.216601.338614-.4630363.21386-.6718552.507921-.2088197.285148-.2088197.641584 0 .338613.1089494.58812.1180281.240593.3086892.40099.1906613.151486.4539563.231684.263294.07129.562905.07129z"/></g></svg>