<svg viewBox="0 0 24 24" xmlns="http://www.w3.org/2000/svg"><g fill="#3a3a38"><path d="m10.968449 13.372907c-.04369.07103-.09709.154744-.160194.251142l-1.9660194 2.747336c-.1075235.245629-.304834.422644-.4514561.624045.1650485-.02537.315534-.04312.4514563-.05327.1407767-.01522.2718447-.02283.3932039-.02283h7.7645633v1.08067h-10.0000002v-.517505c0-.101471.021845-.202942.065534-.304413.048543-.106545.1067958-.200406.1747573-.281583l2.8033909-3.881278-2.8834942-4.0182647c-.0436893-.0558093-.0825243-.1192289-.1165049-.1902588-.0291262-.0710299-.0436893-.1420599-.0436893-.2130898v-.5936073h10.0000004v1.0806698h-7.6043693c-.3613008.0223792-.7134355-.0575723-1.0412621-.098934.301448.1865346.4740753.5056904.6626213.7458143l1.8058251 2.4809745c.422099.500769.37645.720972.145637 1.164382z"/><g transform="scale(.99204462 1.0080192)"><path d="m7.1859333 23.683439-.1516225-.675803h-.034657q-.3552299.446203-.7104599.60649-.3508979.155955-.8880749.155955-.7017957 0-1.1003464-.368226-.3985507-.368227-.3985507-1.039698 0-1.446912 2.2830023-1.516225l.8057655-.03033v-.281585q0-.541509-.2339319-.797101-.233932-.259924-.7494486-.259924-.3768903 0-.714792.112634-.3335696.112634-.6281505.25126l-.238264-.58483q.359562-.190611.7841052-.298913.4245431-.108302.840422-.108302.8620825 0 1.2822935.381223.420211.381222.420211 1.21298v3.24039h-.5675015zm-1.6071989-.541509q.654143 0 1.0267012-.350898.3768903-.35523.3768903-1.005041v-.428875l-.7017957.03032q-.8187617.03032-1.1956521.259924-.3725582.2296-.3725582.723456 0 .372559.2252678.571834.2295998.199275.6411467.199275z"/><path d="m8.9664153 19.992513v-.62815h4.0634837v.62815zm0 1.767486v-.632483h4.0634837v.632483z"/><path d="m14.182231 23.202579q0-.285917.138626-.437539.142958-.155955.402883-.155955.264256 0 .411547.155955.14729.151622.14729.437539 0 .281585-.14729.446204-.147291.160286-.411547.160286-.255593 0-.398551-.160286-.142958-.160287-.142958-.446204z"/><path d="m16.556206 23.202579q0-.285917.138627-.437539.142958-.155955.402882-.155955.264257 0 .411547.155955.147291.151622.147291.437539 0 .281585-.147291.446204-.14729.160286-.411547.160286-.255592 0-.39855-.160286-.142959-.160287-.142959-.446204z"/><path d="m18.930182 23.202579q0-.285917.138626-.437539.142959-.155955.402883-.155955.264257 0 .411547.155955.14729.151622.14729.437539 0 .281585-.14729.446204-.14729.160286-.411547.160286-.255592 0-.398551-.160286-.142958-.160287-.142958-.446204z"/></g><g transform="scale(.98224679 1.0180741)"><path d="m6.5525651 1.9087192q.9413457 0 1.4532295.6506998.5118839.6463618.5118839 1.8089454 0 1.1799356-.5205599 1.8262974-.5205598.6420238-1.4445535.6420238-.4815178 0-.8589237-.17352-.3774059-.1735199-.6159958-.5162218h-.060732q-.1344779.5205598-.1605059.6029818h-.5596019v-6.74992577h.7808398v1.63976347q0 .4901938-.04338.9803877h.04338q.4815178-.7114318 1.4749195-.7114318zm-.13014.6463618q-.7201077 0-1.0324436.4077719-.3123359.4077718-.3123359 1.3794835v.034704q0 .9760497.3166739 1.3968355.3210119.4164479 1.0454576.4164479.6420238 0 .9543597-.4685038.3166739-.4728419.3166739-1.3621316 0-.9023037-.3166739-1.3534556-.3166739-.4511518-.9717117-.4511518z"/><path d="m9.5067419 3.0539508v-.6290098h4.0690431v.6290098zm0 1.7699034v-.6333477h4.0690431v.6333477z"/><path d="m14.729692 6.2684078q0-.2863079.138816-.4381379.143154-.1561679.403434-.1561679.264618 0 .41211.1561679.147492.15183.147492.4381379 0 .2819699-.147492.4468138-.147492.160506-.41211.160506-.255942 0-.399096-.160506-.143154-.1605059-.143154-.4468138z"/><path d="m17.106915 6.2684078q0-.2863079.138816-.4381379.143154-.1561679.403434-.1561679.264618 0 .41211.1561679.147492.15183.147492.4381379 0 .2819699-.147492.4468138-.147492.160506-.41211.160506-.255942 0-.399096-.160506-.143154-.1605059-.143154-.4468138z"/><path d="m19.484139 6.2684078q0-.2863079.138815-.4381379.143154-.1561679.403434-.1561679.264618 0 .41211.1561679.147492.15183.147492.4381379 0 .2819699-.147492.4468138-.147492.160506-.41211.160506-.255942 0-.399096-.160506-.143153-.1605059-.143153-.4468138z"/></g></g></svg>