<svg viewBox="0 0 24 24" xmlns="http://www.w3.org/2000/svg"><path d="m11.129908 22.878916c-1.1357028-.280951-2.0045768-.839476-3.9940498-2.567401-2.294373-1.992746-3.058564-2.42932-4.694088-2.681696-.334567-.05166-.44177-.122819-.44177-.293407 0-.322398.393528-.385309 1.982936-.316985 2.145447.09226 3.086161.565232 5.486643 2.758762 1.9939168 1.82202 3.3611058 2.653238 4.1547748 2.526023 1.521394-.24387 3.265716-1.807233 3.526997-3.16109.233125-1.207973-.01325-1.844482-1.261147-3.258208-.451948-.512-.986125-1.257924-1.18706-1.657596-.330805-.657983-.359815-.802898-.306923-1.533097.110626-1.52724 1.097953-2.674999 2.726306-3.1693275 1.796353-.545314 3.837893.1502793 4.56331 1.5548275.131914.255408.249363.681789.260999.947499.02094.478327.01707.483128-.390117.483128-.398828 0-.416498-.01926-.583968-.63807-.302525-1.11777-1.293492-1.861264-2.483254-1.863121-.924549-.000988-1.428472.800241-1.504264 2.393129-.06153 1.293138.04237 1.530657 1.321501 3.021054 1.166142 1.358736 1.48186 1.978077 1.48186 2.906956 0 1.01122-.276987 1.806335-.917187 2.632851-.607575.784398-1.642312 1.482553-2.673555 1.803894-.784393.244414-4.225138.320374-5.067944.111875zm-3.5535378-10.380303c-1.650423-.281238-3.060229-1.025996-4.124831-2.17902-2.219566-2.4039106-1.804449-6.1046834.894529-7.9747545 1.439721-.9975555 2.657168-1.3576548 4.54554-1.3444918 1.7875318.012456 3.2780868.4249721 4.8600658 1.3450271 1.034015.601367 2.695398 2.3085738 3.380769 3.4740155.815071 1.3859919.826314 1.3963744 1.51214 1.3963744 1.199132 0 2.237042-.5982842 2.39549-1.3808358.07433-.3671046.142797-.4109576.574502-.3679709.390903.038928.462189.1946075.313528.684722-.323075 1.0651406-1.511631 1.6711333-3.317562 1.6914794-2.204353.024833-3.355877-.654592-5.599387-3.3037773-2.045083-2.4148785-2.794355-2.909112-4.4102938-2.909112-1.640379 0-2.911282.545561-4.19703 1.8016592-.645872.6309784-.896662.9752072-1.103566 1.514728-.866244 2.2588089-.0241 4.6076431 2.152978 6.0048917.81558.523429 1.548988.778857 2.770182.964745.773639.117762.908958.172692.939652.381437.02949.200567-.03669.252227-.372796.290977-.22476.02588-.771019-.01462-1.21391-.09008z" fill="#3a3a38"/></svg>