<svg viewBox="0 0 24 24" xmlns="http://www.w3.org/2000/svg"><path d="m17.492188 2-.683594.4335938c-.37639.2387399-1.113452.6666587-1.638672.9492187-.92082.49537-3.261828 1.6295363-3.361328 1.6289063-.0267-.00017-.171143-.2360275-.320313-.5234376-.31158-.60032-.905414-1.2818056-1.396484-1.6035156-1.2965496-.84946-3.9432301-.811875-5.4687501.078125-.52623.30702-1.4943582 1.2636538-1.7988281 1.7773438-.7361901 1.24204-.9966344 2.5196231-.7089844 3.4707031.21712.7179.6072425 1.2504475 1.8515625 2.5234375 1.3154 1.34571 1.5761719 1.730395 1.5761719 2.328125 0 .19036-.0357782.416553-.0800782.501953-.11904.22961-.5028056.613549-.7285156.730469-.20188.1046-.2751069.399187-.1230469.492187.10494.06415 1.0167938-.62304 1.4023438-1.05664.69605-.78282 1.0515931-1.863892.9082031-2.763672-.17368-1.0898001-.6691737-1.8332289-1.9023438-2.8554689-1.27118-1.05374-1.6329525-1.6030981-1.6328124-2.4863281.00012-.91965.7393968-1.89862 1.8417968-2.4375.7925695-.2359249 1.7112028-.463265 2.6972656-.0488281.91203.42737 1.3831038 1.1174637 1.6210938 2.3710937.4025185 5.0793944.0809951 8.0405474.0332031 12.4746094-.26643 1.20314-.5580056 1.689831-1.2285156 2.050781l-.3671875.197266-2.0605469-2.103516c-1.1873288.734523-2.0400518 1.253199-3.1425781 1.960938-.06971.06128.1458487.345703.2617188.345703.325495-.184592.590407-.330737.9121093-.496094.03387 0 .504165.462437 1.046875 1.029297h.0019531c.5427201.56684 1.0102625 1.03125 1.0390626 1.03125.0835999 0 3.3596275-2.107236 3.8046874-2.447266 1.6370698-1.25074 2.3072448-2.842918 2.4277348-5.761718l.044921-1.066407 2.791016-1.08789.494141.488281c1.000824 1.254769 1.370079 2.363244 1.121093 4.21875.01019 2.7282.06874 3.251033.44336 4.007812.334.674731 1.452431 1.742789 1.68164 1.605469.27048-.16204 3.148438-2.32774 3.148438-2.36914 0-.02679-.04225-.106182-.09375-.175782-.08783-.11879-.122985-.108778-.578125.138672-.43143.23462-.52762.258969-.875.230469-.45813-.03757-.637696-.16862-.853516-.625-.14366-.3037-.151156-.440242-.160156-2.701172-.00893-2.1688-.023592-2.436871-.164062-3.019531-.2352-.97564-.708588-1.875946-1.304688-2.478516-.27157-.27451-.487516-.502812-.478515-.507812.008899-.00527.225501-.116444.482421-.246094 1.48875-.7513 2.607124-1.8721756 2.939453-2.9472656.30913-1.00004.256809-1.6387156-.207031-2.5722656-.21612-.43499-.399177-.6830894-.748047-1.0058594-.42961-.39747-1.478041-1.1286619-2.169922-1.5136719zm-1.851563 2.3398438c.91552-.0037.947136.0022687 1.416016.2304687.58383.28412 1.061655.7845625 1.291015 1.3515625.13835.34196.165016.5380925.166016 1.2578125.00159.83379-.005783.8655988-.257813 1.3867187-.28638.5921501-.692299 1.0423175-1.287109 1.4296876-1.333119.7426002-3.001403 1.4803272-4.65625 2.1289062-.034882-2.6667997.039852-3.5877787-.21875-5.9023438-.1159-.51849-.1298-.6848687-.0625-.7304687.30876-.20888 1.551843-.7792856 2.064453-.9472656.54017-.17698.717642-.2020781 1.544922-.2050781z" fill="#3a3a38"/></svg>