<svg viewBox="0 0 24 24" xmlns="http://www.w3.org/2000/svg"><g fill="#3a3a38"><path d="m21.494164 16.896042q-.168613 0-.259404-.05544-.09079-.05544-.123216-.228713l-.142673-.630699q-.246433.242574-.486381.436634-.233463.187128-.492867.318812-.259402.131682-.557717.194059-.298314.069305-.654993.069305-.36965 0-.693904-.103961-.317769-.110891-.564202-.332673-.239948-.228713-.38262-.561386-.136187-.339604-.136187-.79703 0-.40198.201037-.769307.207523-.374257.667964-.665346.460441-.291089 1.19974-.471287.7393-.187129 1.815824-.214852v-.519802q0-.790099-.317769-1.185148-.311284-.401981-.914397-.401981-.402075 0-.680933.110891-.272374.110892-.473412.242575-.201038.131683-.350194.242574-.142672.110891-.29183.110891-.116731 0-.201036-.06238-.08431-.06238-.136187-.159406l-.207523-.388116q.525292-.540594 1.128404-.80396.609598-.270297 1.348898-.270297.531777 0 .946823.187128.415045.180198.693904.519802.278858.339604.42153.810891.149157.471288.149157 1.046535v4.331684zm-2.373542-.748516q.285344 0 .525292-.06238.239948-.06238.453956-.173267.214007-.117822.402075-.284158.194553-.173268.38262-.381188v-1.4q-.758755.03465-1.290531.138613-.531778.09703-.869001.263367-.33074.166336-.479897.395049-.149157.221782-.149157.49901 0 .263367.07782.457426.0843.187129.220493.311881.136187.117822.324254.180198.188068.05545.402075.05545z"/><text font-family="sans-serif" font-size="15.669697" letter-spacing="0" transform="scale(-1.0053702 .99465848)" word-spacing="0" x="-10.007794" y="17.091293"><tspan fill="#3a3a38" font-family="Carlito" x="-10.007794" y="17.091293">A</tspan></text><path d="m14 11a2 2.5 0 0 1 2 2.5 2 2.5 0 0 1 -2 2.5h-3v-1h3a1 1.5 0 0 0 .941406-1h-3.941406v-1h3.941406a1 1.5 0 0 0 -.941406-1h-3v-1z"/></g></svg>