<svg class="railroad-diagram" height="102" viewBox="0 0 551.0 102" width="551.0" xmlns="http://www.w3.org/2000/svg">
<g transform="translate(.5 .5)">
<style>/* <![CDATA[ */
    svg.railroad-diagram {
        background-color:transparent;
    }
    svg.railroad-diagram path {
        stroke-width:1;
        stroke:black;
        fill:rgba(0,0,0,0);
    }
    svg.railroad-diagram text {
        font:bold 14px monospace;
        font-family: Verdana, sans-serif;
        text-anchor:middle;
    }
    svg.railroad-diagram text.label{
        text-anchor:start;
    }
    svg.railroad-diagram text.comment{
        font:italic 12px monospace;
    }
    svg.railroad-diagram rect{
        stroke-width:1;
        stroke:black;
        fill:transparent;
    }

/* ]]> */
</style><g>
<path d="M20 41v20m0 -10h20"></path></g><g>
<path d="M40 51h0.0"></path><path d="M511.0 51h0.0"></path><path d="M40.0 51a15 15 0 0 0 15 -15v-1a15 15 0 0 1 15 -15h347.5"></path><path d="M133.5 82h347.5a15 15 0 0 0 15 -15v-1a15 15 0 0 1 15 -15"></path><path d="M40.0 51h15"></path><g class="terminal">
<path d="M55.0 51h10.0"></path><path d="M93.5 51h10.0"></path><rect height="22" rx="10" ry="10" width="28.5" x="65.0" y="40"></rect><text x="79.25" y="55">%</text></g><path d="M103.5 51a15 15 0 0 1 15 15v1a15 15 0 0 0 15 15"></path><path d="M103.5 20a15 15 0 0 1 15 15v1a15 15 0 0 0 15 15"></path><g class="terminal">
<path d="M133.5 51h10.0"></path><path d="M172.0 51h10.0"></path><rect height="22" rx="10" ry="10" width="28.5" x="143.5" y="40"></rect><text x="157.75" y="55">&#38;</text></g><path d="M182.0 51a15 15 0 0 1 15 15v1a15 15 0 0 0 15 15"></path><path d="M182.0 20a15 15 0 0 1 15 15v1a15 15 0 0 0 15 15"></path><g class="terminal">
<path d="M212.0 51h10.0"></path><path d="M250.5 51h10.0"></path><rect height="22" rx="10" ry="10" width="28.5" x="222.0" y="40"></rect><text x="236.25" y="55">!</text></g><path d="M260.5 51a15 15 0 0 1 15 15v1a15 15 0 0 0 15 15"></path><path d="M260.5 20a15 15 0 0 1 15 15v1a15 15 0 0 0 15 15"></path><g class="terminal">
<path d="M290.5 51h10.0"></path><path d="M329.0 51h10.0"></path><rect height="22" rx="10" ry="10" width="28.5" x="300.5" y="40"></rect><text x="314.75" y="55">#</text></g><path d="M339.0 51a15 15 0 0 1 15 15v1a15 15 0 0 0 15 15"></path><path d="M339.0 20a15 15 0 0 1 15 15v1a15 15 0 0 0 15 15"></path><g class="terminal">
<path d="M369.0 51h10.0"></path><path d="M407.5 51h10.0"></path><rect height="22" rx="10" ry="10" width="28.5" x="379.0" y="40"></rect><text x="393.25" y="55">$</text></g><path d="M417.5 51a15 15 0 0 1 15 15v1a15 15 0 0 0 15 15"></path><path d="M417.5 20a15 15 0 0 1 15 15v1a15 15 0 0 0 15 15"></path><g class="terminal">
<path d="M447.5 51h10.0"></path><path d="M486.0 51h10.0"></path><rect height="22" rx="10" ry="10" width="28.5" x="457.5" y="40"></rect><text x="471.75" y="55">@</text></g><path d="M496.0 51h15"></path></g><path d="M 511.0 51 h 20 m 0 -10 v 20"></path></g></svg>