<svg class="railroad-diagram" height="208" viewBox="0 0 429.0 208" width="429.0" xmlns="http://www.w3.org/2000/svg">
<g transform="translate(.5 .5)">
<style>/* <![CDATA[ */
    svg.railroad-diagram {
        background-color:transparent;
    }
    svg.railroad-diagram path {
        stroke-width:1;
        stroke:black;
        fill:rgba(0,0,0,0);
    }
    svg.railroad-diagram text {
        font:bold 14px monospace;
        font-family: Verdana, sans-serif;
        text-anchor:middle;
    }
    svg.railroad-diagram text.label{
        text-anchor:start;
    }
    svg.railroad-diagram text.comment{
        font:italic 12px monospace;
    }
    svg.railroad-diagram rect{
        stroke-width:1;
        stroke:black;
        fill:transparent;
    }

/* ]]> */
</style><g>
<path d="M20 41v20m0 -10h20"></path></g><g>
<path d="M40 51h0.0"></path><path d="M389.0 51h0.0"></path><path d="M40.0 51a15 15 0 0 0 15 -15v-1a15 15 0 0 1 15 -15"></path><g>
<path d="M70.0 20h289.0"></path></g><path d="M359.0 20a15 15 0 0 1 15 15v1a15 15 0 0 0 15 15"></path><path d="M40.0 51h30"></path><g>
<path d="M70.0 51h0.0"></path><path d="M359.0 51h0.0"></path><path d="M70.0 51h30"></path><g class="terminal">
<path d="M100.0 51h83.25"></path><path d="M245.75 51h83.25"></path><rect height="22" rx="10" ry="10" width="62.5" x="183.25" y="40"></rect><text x="214.5" y="55">Share</text></g><path d="M329.0 51h30"></path><path d="M70.0 51a15 15 0 0 1 15 15v54a15 15 0 0 0 15 15"></path><g>
<path d="M100.0 135h0.0"></path><path d="M329.0 135h0.0"></path><g class="terminal">
<path d="M100.0 135h0.0"></path><path d="M154.0 135h0.0"></path><rect height="22" rx="10" ry="10" width="54.0" x="100.0" y="124"></rect><text x="127.0" y="139">Lock</text></g><path d="M154.0 135h10"></path><g>
<path d="M164.0 135h0.0"></path><path d="M329.0 135h0.0"></path><path d="M164.0 135a15 15 0 0 0 15 -15v-12a15 15 0 0 1 15 -15"></path><g class="terminal">
<path d="M194.0 93h25.5"></path><path d="M273.5 93h25.5"></path><rect height="22" rx="10" ry="10" width="54.0" x="219.5" y="82"></rect><text x="246.5" y="97">Read</text></g><path d="M299.0 93a15 15 0 0 1 15 15v12a15 15 0 0 0 15 15"></path><path d="M164.0 135h30"></path><g class="terminal">
<path d="M194.0 135h0.0"></path><path d="M299.0 135h0.0"></path><rect height="22" rx="10" ry="10" width="105.0" x="194.0" y="124"></rect><text x="246.5" y="139">Read Write</text></g><path d="M299.0 135h30"></path><path d="M164.0 135a15 15 0 0 1 15 15v12a15 15 0 0 0 15 15"></path><g class="terminal">
<path d="M194.0 177h21.25"></path><path d="M277.75 177h21.25"></path><rect height="22" rx="10" ry="10" width="62.5" x="215.25" y="166"></rect><text x="246.5" y="181">Write</text></g><path d="M299.0 177a15 15 0 0 0 15 -15v-12a15 15 0 0 1 15 -15"></path></g></g><path d="M329.0 135a15 15 0 0 0 15 -15v-54a15 15 0 0 1 15 -15"></path></g><path d="M359.0 51h30"></path></g><path d="M 389.0 51 h 20 m 0 -10 v 20"></path></g></svg>