<svg class="railroad-diagram" height="230" viewBox="0 0 1189.0 230" width="1189.0" xmlns="http://www.w3.org/2000/svg">
<g transform="translate(.5 .5)">
<style>/* <![CDATA[ */
    svg.railroad-diagram {
        background-color:transparent;
    }
    svg.railroad-diagram path {
        stroke-width:1;
        stroke:black;
        fill:rgba(0,0,0,0);
    }
    svg.railroad-diagram text {
        font:bold 14px monospace;
        font-family: Verdana, sans-serif;
        text-anchor:middle;
    }
    svg.railroad-diagram text.label{
        text-anchor:start;
    }
    svg.railroad-diagram text.comment{
        font:italic 12px monospace;
    }
    svg.railroad-diagram rect{
        stroke-width:1;
        stroke:black;
        fill:transparent;
    }

/* ]]> */
</style><g>
<path d="M20 105v20m10 -20v20m-10 -10h20"></path></g><path d="M40 115h10"></path><g class="terminal">
<path d="M50 115h0.0"></path><path d="M104.0 115h0.0"></path><rect height="22" rx="10" ry="10" width="54.0" x="50.0" y="104"></rect><text x="77.0" y="119">Open</text></g><path d="M104.0 115h10"></path><path d="M114.0 115h10"></path><g class="terminal">
<path d="M124.0 115h0.0"></path><path d="M212.0 115h0.0"></path><rect height="22" rx="10" ry="10" width="88.0" x="124.0" y="104"></rect><text x="168.0" y="119">pathname</text></g><path d="M212.0 115h10"></path><path d="M222.0 115h10"></path><g>
<path d="M232.0 115h0.0"></path><path d="M418.5 115h0.0"></path><g class="terminal">
<path d="M232.0 115h0.0"></path><path d="M277.5 115h0.0"></path><rect height="22" rx="10" ry="10" width="45.5" x="232.0" y="104"></rect><text x="254.75" y="119">For</text></g><path d="M277.5 115h10"></path><g>
<path d="M287.5 115h0.0"></path><path d="M418.5 115h0.0"></path><path d="M287.5 115a15 15 0 0 0 15 -15v-12a15 15 0 0 1 15 -15"></path><g class="terminal">
<path d="M317.5 73h0.0"></path><path d="M388.5 73h0.0"></path><rect height="22" rx="10" ry="10" width="71.0" x="317.5" y="62"></rect><text x="353.0" y="77">Output</text></g><path d="M388.5 73a15 15 0 0 1 15 15v12a15 15 0 0 0 15 15"></path><path d="M287.5 115a15 15 0 0 0 15 -15v-54a15 15 0 0 1 15 -15"></path><g class="terminal">
<path d="M317.5 31h4.25"></path><path d="M384.25 31h4.25"></path><rect height="22" rx="10" ry="10" width="62.5" x="321.75" y="20"></rect><text x="353.0" y="35">Input</text></g><path d="M388.5 31a15 15 0 0 1 15 15v54a15 15 0 0 0 15 15"></path><path d="M287.5 115h30"></path><g class="terminal">
<path d="M317.5 115h0.0"></path><path d="M388.5 115h0.0"></path><rect height="22" rx="10" ry="10" width="71.0" x="317.5" y="104"></rect><text x="353.0" y="119">Random</text></g><path d="M388.5 115h30"></path><path d="M287.5 115a15 15 0 0 1 15 15v12a15 15 0 0 0 15 15"></path><g class="terminal">
<path d="M317.5 157h0.0"></path><path d="M388.5 157h0.0"></path><rect height="22" rx="10" ry="10" width="71.0" x="317.5" y="146"></rect><text x="353.0" y="161">Append</text></g><path d="M388.5 157a15 15 0 0 0 15 -15v-12a15 15 0 0 1 15 -15"></path><path d="M287.5 115a15 15 0 0 1 15 15v54a15 15 0 0 0 15 15"></path><g class="terminal">
<path d="M317.5 199h0.0"></path><path d="M388.5 199h0.0"></path><rect height="22" rx="10" ry="10" width="71.0" x="317.5" y="188"></rect><text x="353.0" y="203">Binary</text></g><path d="M388.5 199a15 15 0 0 0 15 -15v-54a15 15 0 0 1 15 -15"></path></g></g><path d="M418.5 115h10"></path><g>
<path d="M428.5 115h0.0"></path><path d="M559.5 115h0.0"></path><path d="M428.5 115h30"></path><g>
<path d="M458.5 115h71.0"></path></g><path d="M529.5 115h30"></path><path d="M428.5 115a15 15 0 0 1 15 15v1a15 15 0 0 0 15 15"></path><g class="non-terminal">
<path d="M458.5 146h0.0"></path><path d="M529.5 146h0.0"></path><rect height="22" width="71.0" x="458.5" y="135"></rect><text x="494.0" y="150">access</text></g><path d="M529.5 146a15 15 0 0 0 15 -15v-1a15 15 0 0 1 15 -15"></path></g><g>
<path d="M559.5 115h0.0"></path><path d="M699.0 115h0.0"></path><path d="M559.5 115h30"></path><g>
<path d="M589.5 115h79.5"></path></g><path d="M669.0 115h30"></path><path d="M559.5 115a15 15 0 0 1 15 15v1a15 15 0 0 0 15 15"></path><g class="non-terminal">
<path d="M589.5 146h0.0"></path><path d="M669.0 146h0.0"></path><rect height="22" width="79.5" x="589.5" y="135"></rect><text x="629.25" y="150">locking</text></g><path d="M669.0 146a15 15 0 0 0 15 -15v-1a15 15 0 0 1 15 -15"></path></g><path d="M699.0 115h10"></path><g class="terminal">
<path d="M709.0 115h0.0"></path><path d="M746.0 115h0.0"></path><rect height="22" rx="10" ry="10" width="37.0" x="709.0" y="104"></rect><text x="727.5" y="119">As</text></g><path d="M746.0 115h10"></path><g>
<path d="M756.0 115h0.0"></path><path d="M844.5 115h0.0"></path><path d="M756.0 115a15 15 0 0 0 15 -15v-1a15 15 0 0 1 15 -15"></path><g>
<path d="M786.0 84h28.5"></path></g><path d="M814.5 84a15 15 0 0 1 15 15v1a15 15 0 0 0 15 15"></path><path d="M756.0 115h30"></path><g class="terminal">
<path d="M786.0 115h0.0"></path><path d="M814.5 115h0.0"></path><rect height="22" rx="10" ry="10" width="28.5" x="786.0" y="104"></rect><text x="800.25" y="119">#</text></g><path d="M814.5 115h30"></path></g><path d="M844.5 115h10"></path><g class="terminal">
<path d="M854.5 115h0.0"></path><path d="M934.0 115h0.0"></path><rect height="22" rx="10" ry="10" width="79.5" x="854.5" y="104"></rect><text x="894.25" y="119">filenum</text></g><path d="M934.0 115h10"></path><g>
<path d="M944.0 115h0.0"></path><path d="M1149.0 115h0.0"></path><path d="M944.0 115h30"></path><g>
<path d="M974.0 115h145.0"></path></g><path d="M1119.0 115h30"></path><path d="M944.0 115a15 15 0 0 1 15 15v1a15 15 0 0 0 15 15"></path><g>
<path d="M974.0 146h0.0"></path><path d="M1119.0 146h0.0"></path><g class="terminal">
<path d="M974.0 146h0.0"></path><path d="M1028.0 146h0.0"></path><rect height="22" rx="10" ry="10" width="54.0" x="974.0" y="135"></rect><text x="1001.0" y="150">Len=</text></g><path d="M1028.0 146h10"></path><path d="M1038.0 146h10"></path><g class="terminal">
<path d="M1048.0 146h0.0"></path><path d="M1119.0 146h0.0"></path><rect height="22" rx="10" ry="10" width="71.0" x="1048.0" y="135"></rect><text x="1083.5" y="150">recLen</text></g></g><path d="M1119.0 146a15 15 0 0 0 15 -15v-1a15 15 0 0 1 15 -15"></path></g><path d="M 1149.0 115 h 20 m -10 -10 v 20 m 10 -20 v 20"></path></g></svg>