<svg height="12" viewBox="0 0 12 12" width="12" xmlns="http://www.w3.org/2000/svg">/&gt;<path d="m11 0v11h-10v1h10 1v-12z" fill="#3a3a38"/><path d="m0 0v1 11h1v-11h10v-1z" fill="#fafafa"/><path d="m7.7942858 3.4515646q0 .2280179-.1508571.3755589-.1508572.14307-.4982858.14307h-1.5542857l-.2011429 1.1669151q.3611429-.071535.6948572-.071535.4662857 0 .8228572.1430701.3611427.1385994.6034284.384501.2422858.2459017.3657143.5767511.1234286.3308495.1234286.7108793 0 .4739195-.1691427.8673623-.1645714.3889713-.4617144.6661695-.2971428.2771983-.7085715.4336812-.4068571.1520119-.8914286.1520119-.2834285 0-.5394285-.0581225-.2514285-.0581219-.4754285-.1564826-.2240001-.0983606-.4160001-.2280179-.1874285-.1296572-.3382857-.2727273l.3382857-.4560358q.1142857-.1475409.2834286-.1475409.1097144 0 .2148572.067064.1051428.062593.2377143.14307.1371429.080478.3154285.147541.1828572.062593.4434286.062593.2697143 0 .4662858-.089419.2011428-.089418.3337142-.2459016.1325714-.1564829.1965715-.3666169.068572-.2146052.068572-.4649777 0-.4739196-.2697142-.7332341-.2697142-.2593137-.7817142-.2593137-.2057143 0-.416.040238-.2102857.035768-.4205714.1117735l-.6811433-.1833082.4937144-2.9105813h2.9714287v.4515649z" fill="#505050"/></svg>