<svg height="16" viewBox="0 0 4.2333332 4.2333335" width="16" xmlns="http://www.w3.org/2000/svg"><g stroke-width=".999999" transform="scale(.26458333)"><path d="m1 1v14h.9960938c.0020782-.434796.1228996-.877508.4121093-1.25.7078097-.910022.9542227-1.525116 1.4238281-2.185547.4696056-.66043 1.2588327-1.225042 2.4277344-1.505859a1.02588 1.02588 0 0 1 .1542969-.023438c.0628313-.005224.1510213-.008378.2207031-.013672.0367783-.0552892.030831-.1213733.0742188-.1738278.0010009-.00121.0009485-.0026978.0019531-.0039062 2.4383719-3.4178186 3.3050895-4.903071 7.4941405-7.5214844.190569-.1194425.43377-.2613989.794922-.3183594v-1.0039062zm14 9.029297c-.612098.745639-1.327509 1.381583-3.375 3.166015l-.001953.001954c-.165121.143979-.394257.154969-.59375.238281.000998.029424.01348.048203.013672.078125.003482.538808-.155546 1.018139-.355469 1.449219a1.02588 1.02588 0 0 1 -.017578.037109h4.330078z" fill="#fafafa"/><path d="m.50195312.00195313c-.27630145-.00037796-.50038441.22375433-.49999999.49999999l-.00390626 14.99609388c-.00038441.276283.22369855.500378.50000001.5h1.75195312c-.0224605-.039446-.0567376-.072564-.0761719-.113281-.1286891-.269623-.1792118-.575679-.1777343-.884766h-1.00000005l.00390625-14h14 .003906v1.0039062c.076182-.0118557.150216-.0267027.238282-.0292968.252394-.0072234.516537.0669246.759765.1816406v-1.65429688c.000384-.27628346-.223699-.50037795-.5-.49999999zm15.49804688 8.65624997c-.370929.5524478-.708447 1.0182118-.998047 1.3710939l-.001953 4.970703h-4.330078a1.02588 1.02588 0 0 1 -.00586.013672c-.095553.179596-.217221.342863-.361328.486328a1.02588 1.02588 0 0 1 -.013672.013672c-.195526.187575-.3915038.336039-.5878901.484375h5.7968751c.276302.000378.500384-.223717.5-.5z" fill="#3a3a38"/><path d="m5 1v4h-4v1h4v4h-4v1h3.359375c.4660692-.407452 1.0862033-.745806 1.9003906-.941406a1.02588 1.02588 0 0 1 .1542969-.023438c.0628313-.005224.1510213-.008378.2207031-.013672.0045909-.006901.0063272-.014294.0097656-.021484h-.6445312v-4h3.6132812c.4139848-.4625157.8723498-.9120304 1.3867188-1.359375v-3.640625h-1v4h-4v-4zm10 9.029297c-.241392.294057-.570225.638423-.919922.970703h.919922zm-4.001953 3.970703c-.059302.345408-.173176.666686-.310547.962891a1.02588 1.02588 0 0 1 -.015625.035156h.326172z" fill="#797774"/><g fill="#1e8bcd"><path d="m6 6v4h.6445312c.0241077-.0504133.0264813-.106437.0644532-.1523438.0010009-.00121.0009485-.0026978.0019531-.0039062 1.1431695-1.6023585 1.9457565-2.7750237 2.9023437-3.84375z" opacity=".5"/><path d="m5 5v5.556641c.3609172-.203531.7699088-.380364 1.2597656-.498047a1.02588 1.02588 0 0 1 .1542969-.023438c.0628313-.005224.1510213-.008378.2207031-.013672.0045909-.006901.0063272-.014294.0097656-.021484h-.6445312v-4h3.6132812c.3037261-.3393314.6227108-.6725056.9746098-1z"/></g></g><path d="m1.5875.52916h1.058333v3.175h-1.058333z" fill="#ff9f0a" opacity="0"/><g transform="scale(.26458333)"><path d="m15.272029 3c-.177888.00524-.37069.0963941-.521484.1909069-4.136759 2.5854743-4.750545 3.8090931-7.250545 7.3090931-.210813.253601-.283141.594786-.193359.91211.124699.438291.05849.586853.729808.897431.67132.310578 1.030176.423588 2.302734.361328.225038-.01109.439749-.0978.609376-.246094 3.574573-3.115338 2.913553-2.4320307 4.881519-5.3512657.11091-.165166.17007-.359644.169922-.558594v-2.5c-.000147-.563767-.164435-1.0310434-.727971-1.0149153z" fill="#3a3a38"/><path d="m15 4.2729381c-3.629717 2.3517184-4.226438 3.3663405-6.6855469 6.8090929-.014286.01941-.02927.03831-.044922.05664h-.00195c.083056.291924.1130843.342522.042969.232422-.070116-.1101-.1231235-.09544.1464843.0293.6319655.292371.6295827.330409 1.8339846.271484.000666-.000668.0013-.0013.002-.002 1.750049-1.525215 2.380042-2.2914085 2.851512-3.044877.471254-.7531216.833054-.5909801 1.855469-2.1079213v-.00195z" fill="#fafafa"/><path d="m7.2304688 11.009766c-.2611936.00974-.5143343.028897-.7304688.046875-2.056692.4941-1.7371332 1.337014-3.28125 3.322265-.5164462.665161-.0608622 1.627607.78125 1.628906 2.7115807-.173351 3.7401211.528889 5.578125-1.234374.07164-.07132.1322065-.152947.1796875-.242188.1631052-.351692.2618925-.682612.2597655-1.011719-.0037-.568259-.23225-1.098535-.4023436-1.486328-.4416095-.580756-.8799889-.870494-1.6035156-1.021484-.2501619-.0123-.5200567-.01169-.78125-.002zm.013672.978515c.2108343.0016.4312475.02151.6660156.05274.6457798.226088 1.0391393.662816 1.0839844 1.507812.0004787.07407-.016144.177417-.048828.296875l-3.09375-1.423828c.4524271-.326142.8961695-.4373 1.3925781-.433594zm-2.0585937 1.226563 3.0214843 1.390625c-.4027608.269951-.7300308.357145-1.1699218.392578-.9042073-.0092-2.4189477-.0088-3.0351563-.0098.6037334-.776211.9275974-1.337725 1.1835938-1.773437z" fill="#0063b1"/><path d="m5.1855469 13.214844c-.2559964.435712-.5798604.997226-1.1835938 1.773437.6162086.000977 2.130949.000587 3.0351563.0098.439891-.03543.7671611-.122627 1.1699218-.392578z" fill="#83beec"/><path d="m7.2441406 11.988281c-.4902613-.00366-.9303436.122539-1.3769531.439453l3.078125 1.417969c.032685-.119484.049307-.222806.048828-.296875-.044845-.844996-.4382045-1.281724-1.0839843-1.507812-.2347681-.031228-.4551813-.051161-.6660156-.052735z" fill="#fafafa"/></g></svg>