<svg viewBox="0 0 32 32" xmlns="http://www.w3.org/2000/svg"><g stroke-width=".405752"><path d="m17 23h-1.138508q-.200913 0-.309741-.09208-.108828-.09208-.150684-.259512l-.652969-2.670478h-4.72146l-1.3143077 2.670472q-.066971.142313-.2092846.251141-.1423135.100458-.326484.100458h-1.1468797l5.583714-11h1.498477zm-6.445965-4.085236h3.934551l-1.096652-4.503805q-.04185-.200913-.100458-.460425-.05023-.267885-.09208-.569254-.117199.301369-.226027.569254-.108828.267884-.200913.468796z" stroke-width=".428615"/><path d="m24.863399 23.151155h-.729086q-.27737 0-.372468-.134723-.0951-.142647-.07925-.340769l.142647-1.648369q-.301144.507191-.649837.919283-.340769.412092-.729087.705312-.380393.293219-.81626.451716-.427942.158498-.887583.158498-.507191 0-.919283-.182272-.404168-.182272-.697387-.530965-.285295-.356619-.443792-.871734-.150572-.52304-.150572-1.196653 0-.681537.182271-1.331375.190197-.649838.523041-1.220427.340768-.578515.816259-1.061931.475492-.483416 1.054006-.832109.578514-.348694 1.252127-.53889.673612-.198122 1.402699-.198122.52304 0 1.030231.07925.50719.07132.982681.27737zm-3.605808-1.046081q.412092 0 .808335-.229821.396243-.237745.744936-.657763.356619-.420017.657763-.990606.309069-.57059.53889-1.252127l.316994-2.607277q-.182271-.03962-.372468-.04755-.190196-.01585-.372468-.01585-.752861 0-1.418549.324919-.665687.316994-1.164953.863809-.499266.53889-.792485 1.252126-.285295.713237-.285295 1.497798 0 1.86234 1.3393 1.86234z" stroke-width=".405752"/><g fill-rule="evenodd" transform="translate(-2)"><path d="m10 2h7l-5 5h3l-12 9 4-8h-3z" fill="#ed8733"/><path d="m10.414063 3-4.0000005 4h.5859375a1.0001 1.0001 0 0 1 .8945312 1.4472656l-2.1054687 4.2109374 6.2109375-4.658203a1.0001 1.0001 0 0 1 -.707031-1.7070312l3.292969-3.2929688z" fill="#f8db8f"/></g></g></svg>