<svg viewBox="0 0 32 32" xmlns="http://www.w3.org/2000/svg" xmlns:xlink="http://www.w3.org/1999/xlink"><linearGradient id="a" gradientUnits="userSpaceOnUse" x1="22" x2="22" y1="27" y2="4"><stop offset="0" stop-color="#f6f6f6"/><stop offset="1" stop-color="#fafafa"/></linearGradient><path d="m9.15625 3.5c-1.7312189 0-3.6171875.9530874-3.6171875 3.125v3.125 5.091797c-.018245-.0038-.0364745-.007699-.0546875-.011719l.015625 7.669922c-1.725908 0-3 1.149093-3 2.875s1.399094 3.125 3.125 3.125h1.5625 1.5625 3.125 3.125.339844l.798828-3.248047c.043113-.178092.134322-.340918.263672-.470703l5.558594-5.542969v-2.080078c.018249.0038.036467.007699.054687.011719l-.015625-7.669922c1.725908 0 3-1.1490933 3-2.875 0-1.7259065-1.400927-3.2045535-3.125-3.125h-1.5625-1.5625-6.398438-2.039062z" fill="url(#a)"/><path d="m9.15625 3c-.9574002 0-1.9591053.2555392-2.7558594.8457031-.7967541.590164-1.3613281 1.5484618-1.3613281 2.7792969v3.125 4.966797c-.01825-.0051-.0364805-.010335-.0546875-.015625l.015625 7.390625c-1.695587.226513-3 1.491233-3 3.283203 0 1.996232 1.6287695 3.625 3.625 3.625h1.5625 1.5625 3.125 3.341797l.246094-1h-.197266-3.390625-3.125-1.5625-1.5625c-1.4555815 0-2.625-1.169418-2.625-2.625 0-1.472323 1.0303222-2.349609 2.5390625-2.349609.2760796-.000151.4998486-.22392.5-.5v-12.775391-3.125c0-.9410775.3774121-1.5452796.9570313-1.9746094.579619-.4293298 1.3863375-.6503906 2.1601562-.6503906h1.15625 2.421875 6.515625 1.5625 2.1875c2.125 0 4 1.1694179 4 2.625 0 1.472323-3.030322 2.3496094-4.539062 2.3496094-.276081.0001514-.49985.2239204-.5.5v9.7636716l1-.998047v-.957031c.018249.0051.036477.010335.054687.015625l-.015625-7.3906249c1.695587-.2265133 5-1.4912332 5-3.2832031 0-1.125-.695861-3.625-5-3.625h-2.1875-1.5625-7.361328-1.576172z" fill="#3a3a38"/><circle cx="-25.838984" cy="20.313559" fill="#f00" r="0"/><path d="m2 22v3.375.125h.0136719c.0678501 1.937381 1.6579446 3.5 3.6113281 3.5h9.591797l.246094-1h-9.837891-.125-.5v-.052734c-.9795521-.201574-1.7447262-.967512-1.9453125-1.947266h-.0546875v-.5-.125-2.349609-.025391h.0292969 1.9707031.5.1972656 11.3027344v1.185547l1-.998047v-.1875-1h-11.9609375-1.0390625z" fill="#922e9b"/><path d="m3 23v2.5.5h.0546875c.2005868.979754.9657604 1.745696 1.9453125 1.947266v.052734h.5 9.962891l.675781-2.748047c.043113-.178092.134322-.340918.263672-.470703l.597656-.595703v-1.185547h-11.5-.5z" fill="#d492d8"/><g transform="translate(-1)"><path d="m26 3.0625c-1.655982.292289-2.925915 1.712463-2.986328 3.4375h-.013672v.125 3.375h3 3v-3.375-.125h-.01367c-.060415-1.7250369-1.330348-3.1452114-2.98633-3.4375zm0 .9902344a2.5 2.5 0 0 1 1.945312 1.9472656h.054688v.5.125 2.3496094.0253906h-.029297-1.970703-1.970703-.029297v-.0253906-2.3496094-.125-.5h.05469a2.5 2.5 0 0 1 1.94531-1.9472656z" fill="#922e9b"/><path d="m26 4.0527344a2.5 2.5 0 0 0 -1.945312 1.9472656h-.054688v.5 2.5h2 2v-2.5-.5h-.05469a2.5 2.5 0 0 0 -1.94531-1.9472656z" fill="#d492d8"/></g><g fill="#fb983b" transform="matrix(1.1667513 0 0 1.1666667 3.165736 3.166667)"><path d="m25.623047 17-8.513672 8.490234-1.109375 4.509766 4.441406-1.179688 7.308594-7.294921-3.322266-3.324219 1.199219-1.197266zm-1.197266 2.519531 2.003907 2.00586-5.751954 5.738281-2.009765-2.009766zm-6.464843 6.441407 2.009765 2.009765-.01172.01172-2.675781.710937.669922-2.726562z" fill="#0063b1" transform="matrix(.85708068 0 0 .85714283 -2.713291 -2.714286)"/><path d="m26.990234 16c-.221171 0-.439899.08465-.609375.253906l-1.953125 1.947266 3.322266 3.324219 1.996094-1.91211c.338948-.338481.338948-.88222 0-1.220703l-2.142578-2.138672c-.169476-.169241-.39211-.253906-.613282-.253906zm0 .998047 2.00586 2.003906-1.232422 1.179688-1.978516-1.980469z" fill="#0063b1" transform="matrix(.85708068 0 0 .85714283 -2.713291 -2.714286)"/><g fill="#83beec"><path d="m20.419922 11.855469-1.033203 1.03125 1.695312 1.697265 1.056641-1.011718z"/><path d="m24.425781 19.519531-5.757812 5.734375 2.009765 2.009766 5.751954-5.738281zm-6.464843 6.441407-.0078.0059-.669922 2.726562 2.675781-.710937.01172-.01172z" stroke-width="1.166709" transform="matrix(.85708068 0 0 .85714283 -2.713291 -2.714286)"/></g></g></svg>