<svg height="32" viewBox="0 0 8.4666665 8.466667" width="32" xmlns="http://www.w3.org/2000/svg"><g stroke-width=".264583" transform="translate(0 -288.53332)"><path d="m4.2333333 289.59166a3.4395833 6.4822917 0 0 0 -3.4395833 6.48229 3.4395833 6.4822917 0 0 0 .003617.13229h.2609663a3.174555 6.3491097 0 0 1 0-.001 3.174555 6.3491097 0 0 1 3.1744833-6.34897 3.174555 6.3491097 0 0 1 3.1744833 6.34897 3.174555 6.3491097 0 0 1 0 .001h.2630328a3.4395833 6.4822917 0 0 0 .00258-.13229 3.4395833 6.4822917 0 0 0 -3.4395834-6.48229z" fill="#3a3a38"/><rect fill="#1e8bcd" height=".264583" ry=".132292" width="6.879167" x=".79375" y="289.59167"/><path d="m3.7041667 289.06249c-.1465792 0-.2645834.118-.2645834.26458v.79375c0 .14658.1180042.26459.2645834.26459h.79375c.1465791 0 .2645833-.11801.2645833-.26459v-.79375c0-.14658-.1180042-.26458-.2645833-.26458zm0 .26458h.79375v.79375h-.79375z" fill="#0063b1"/><path d="m3.7041667 289.32707h.79375v.79375h-.79375z" fill="#fff"/></g></svg>