<svg viewBox="0 0 32 32" xmlns="http://www.w3.org/2000/svg"><path d="m9 26.121212v-20.121212h6.833332q1.939395 0 3.318182.3787878 1.378788.3787879 2.242424 1.0757576.878786.6969696 1.272726 1.6969694.409091.9848492.409091 2.2121222 0 .69697-.196969 1.348485-.196969.651515-.606062 1.21212-.40909.560607-1.060604 1.030304-.636364.454546-1.530303.772727 3.893939.939394 3.893939 4.439393 0 1.287878-.469697 2.378788-.469698 1.090908-1.378788 1.893939-.89394.787879-2.227273 1.242425-1.318181.439394-3.030302.439394zm3.984847-8.742424v5.651513h3.409091q.954546 0 1.59091-.242424.636363-.242424 1-.651513.378786-.409092.530302-.939396.151514-.545454.151514-1.121211 0-.621211-.181818-1.121212-.166665-.499998-.560604-.848485-.378789-.348484-1.015153-.530302-.621211-.19697-1.530302-.19697zm0-2.742425h2.621212q1.681819 0 2.590909-.636362.909092-.651515.909092-2.136364 0-1.545454-.787879-2.1666674-.787878-.6363639-2.484849-.6363639h-2.848485z" fill="#3a3a38" stroke-width="1.267656"/></svg>