<svg viewBox="0 0 32 32" xmlns="http://www.w3.org/2000/svg"><path d="m23.550781 3.0078125c-.05213.0006258-.103976.00784-.154297.021484l-21.0624996 5.875c-.3958988.110837-.5753024.5700708-.359375.9199223l11.5624996 18.4218752c.0038.0066.0077.01309.01172.01953l.345703.517578c.114933.17108.307571.273626.513672.273438h4.521485l-2.486329-2.492188.0039.002c-.145238-.144746-.257892-.316206-.332032-.5-.06703-.165912-.109375-.358177-.109375-.5625 0-.20364.04275-.395036.109375-.560547.07428-.184305.187028-.357412.332032-.501953l-.0039.002 3.992188-4.003906h.002c.293159-.293186.681192-.439546 1.062452-.439546.381286 0 .772065.151107 1.060547.439453.578012.577758.577792 1.545287 0 2.123047l-1.433594 1.4375h3.873047c.152546 0 .27521-.01561.384766-.03711l-.75586-1.158203-2.876953-6.527344c-.0044-.0086-.0089-.01703-.01367-.02539l-.185547-.373047.117188-.470703c.0014-.0065.0027-.013.0039-.01953l2.492192-11.6347668c.082274-.3886058-.218072-.7528353-.615235-.7460937z" fill="#3a3a38"/><path d="m22.972656 4.25-19.7832029 5.5195312 11.2480469 17.9121098.208984.3125h3.222657l-1.425782-1.429688.0039.002c-.145238-.144746-.257892-.316206-.332032-.5-.06703-.165912-.109375-.358177-.109375-.5625 0-.20364.04275-.395036.109375-.560547.07428-.184305.187028-.357412.332032-.501953l-.0039.002 3.992188-4.003906h.002c.29316-.293187.681193-.439547 1.062453-.439547.295225 0 .594895.09283.849609.267578l-1.566406-3.550781-.283203-.566406c-.04728-.09498-.05906-.203739-.0332-.306641l.169922-.683594zm.0039 17.441406c-.03993.32016-.174931.630023-.416015.871094l-1.433588 1.4375h3.015625l-.441406-.671875c-.01036-.01758-.01949-.03585-.02734-.05469z" fill="#fafafa"/><path d="m27.5 19c-.277 0-.5.223-.5.5v3.5a1.9999999 1.9999999 0 0 1 -2 2h-6.283203l3.136719-3.144531c.195866-.195855.195866-.513205 0-.708985-.097935-.097889-.225707-.146484-.353516-.146484s-.257537.04859-.355469.146484l-3.992187 4.003907c-.04702.04687-.08409.103275-.109375.166015-.02336.05783-.03711.120981-.03711.1875 0 .06652.01375.129673.03711.1875.02531.06274.06235.11915.109375.166016l3.992187 4.003906c.09793.09827.22766.146484.355469.146484s.255581-.04859.353516-.146484c.195866-.195855.195866-.513205 0-.708984l-3.140625-3.148438h4.792968c.0069 0 .01268-.0036.01953-.0039h1.474611a3 3 0 0 0 .0078 0h.002a3 3 0 0 0 2.9902-3.000006v-3.5c0-.277-.223-.5-.5-.5z" fill="#1e8bcd"/></svg>