<svg viewBox="0 0 32 32" xmlns="http://www.w3.org/2000/svg"><path d="m15.5 3.0214844c-.166654.0075381-.334463.0087371-.5.0234375-6.5934295.4528777-10.699221 5.3465541-10.6992188 11.3300781 0 5.525 2.6494517 8.70389 6.6914068 10.724609l1.007812.900391v2l-7.375-.072266c-1.2906725-.345865-1.57131-1.662766-1.625-2.011718v3.083984h10v-3.25-.660156l-.453125-.355469c-2.8476947-1.738123-7.046875-3.734375-7.046875-10.234375 0-7 4.911529-9.9671356 9.5-10.5.16173-.0259969.333251-.0300595.5-.0449219.166749.0148624.33827.018925.5.0449219 4.588471.5328644 9.5 3.5 9.5 10.5 0 6.5-4.19918 8.496252-7.046875 10.234375l-.453125.355469v.660156 3.25h10v-3.083984c-.05369.348952-.334328 1.665853-1.625 2.011718l-7.375.072266v-2l1.007812-.900391c4.041955-2.020719 6.691407-5.199609 6.691407-10.724609.000002-5.9835235-4.10579-10.8772004-10.699219-11.3300781-.165537-.014697-.333346-.0158975-.5-.0234375z" fill="#3a3a38"/></svg>