<svg viewBox="0 0 32 32" xmlns="http://www.w3.org/2000/svg"><path d="m14.177734 2.9902344-9.7617184 26.0195316h2.7929688c.3036118 0 .5602761-.086206.7714844-.257813.2244087-.171607.375875-.369341.4550781-.59375l2.1718751-6.158203h10.787109l2.189453 6.177734c.105604.23761.25074.435344.435547.59375.198008.158407.454672.238282.771485.238282h2.792968l-9.742187-26.0195316zm1.822266 3.40625c.118805.488419.244948.944771.376953 1.3671875s.262526.7906095.394531 1.1074219l3.5625 10.1289062h-8.667968l3.5625-10.109375c.118804-.3168124.242994-.6850054.375-1.1074219.132005-.4224165.264479-.8850991.396484-1.3867187z" fill="#3a3a38"/></svg>