<svg height="32" viewBox="0 0 8.4666665 8.4666669" width="32" xmlns="http://www.w3.org/2000/svg" xmlns:xlink="http://www.w3.org/1999/xlink"><radialGradient id="a" cx="31.815958" cy="30.834661" gradientTransform="matrix(.16917967 -.08816634 .14109636 .27074545 -3.455023 288.7571)" gradientUnits="userSpaceOnUse" r="17.333334"><stop offset="0" stop-color="#83beec"/><stop offset="1" stop-color="#0063b1"/></radialGradient><g transform="translate(0 -288.53332)"><path d="m4.1010417 289.32707-3.14606123 4.6354c-.10424476.16424-.16123047.34245-.16123047.52398 0 .9498 1.4076624 1.71979 3.3072917 1.71979 1.8996292 0 3.3072916-.76999 3.3072916-1.71979 0-.20775-.07995-.40678-.2149739-.59118z" fill="url(#a)" opacity=".986928" stroke-width=".198438"/><path d="m4.1010417 289.06249c.07329 0 .1322916.059.1322916.13229v7.40833c0 .0733-.059002.1323-.1322916.1323-.07329 0-.1322917-.059-.1322917-.1323v-7.40833c0-.0733.059002-.13229.1322917-.13229z" fill="#fb983b"/></g></svg>