<svg viewBox="0 0 32 32" xmlns="http://www.w3.org/2000/svg"><path d="m3 3v20.711133c12.043396.223564 19.928085 2.34301 26 5.288867v-20.7111328c-7.089784-4.1010913-16.388894-4.9262868-26-5.2888672z" fill="#fafafa"/><path d="m9.5 10.8-3.9 3.12 3.9 3.38v-1.3c5.75036 0 8.825952.09428 13 1.3v1.3l3.9-3.12-3.9-3.38v1.3c-3.558532-1.046448-7.800001-1.3-13-1.3z" fill="#1e8bcd"/><path d="m3 3v20.711133c12.043396.223564 19.928085 2.34301 26 5.288867v-20.7111328c-7.089784-4.1010913-16.388894-4.9262868-26-5.2888672zm1.3 1.421875c8.768659.3833457 17.072554 1.2857036 23.4 4.7074219v17.9308591c-5.751347-2.490578-13.064225-4.247224-23.4-4.570312z" fill="#3a3a38"/></svg>