<svg viewBox="0 0 32 32" xmlns="http://www.w3.org/2000/svg"><path d="m6 3v26h8v-12c0-.554.446-1 1-1h11v-7.640625l-6-5.359375z" fill="#fafafa"/><path d="m6 2c-.554 0-1 .446-1 1v26c0 .554.446 1 1 1h8v-1h-8v-26h13v6c0 .554.446016 1.004232 1 1h6v6h1v-5.109375-1.640625-.2089844c0-.4506797.098038-.4254121-.605469-1.0664062l-5.30664-5.2382813c-.709525-.7368575-1.477331-.7363281-1.09375-.7363281h-.332032-.662109z" fill="#3a3a38"/><path d="m16 20h13v9h-13z" fill="#fafafa"/><path d="m15 7h4l-4-4z" fill="#fafafa" fill-rule="evenodd"/><path d="m15 19v11h15v-11zm1 1h6 1 6v4 1 4h-6-1-6v-4-1z" fill="#3a3a38"/><path d="m15 17v3h1v-1-1h6 1 6v1 1h1v-3z" fill="#0063b1"/><path d="m22 20v4h-6v1h6v4h1v-4h6v-1h-6v-4z" fill="#797774"/><path d="m16 18h13v2h-13z" fill="#83beec"/><path d="m22 18v1h-6v1h13v-1h-6v-1z" fill="#1e8bcd"/><path d="m20 9h6l-6-6z" fill="#fafafa" fill-rule="evenodd"/></svg>