<svg viewBox="0 0 32 32" xmlns="http://www.w3.org/2000/svg"><path d="m24 3c.554 0 1 .446 1 1v2c0 .554-.446 1-1 1h-21v2h1 5 1 5 1 5 1 6 1v-6z" fill="#3a3a38"/><path d="m24 3c.554 0 1 .446 1 1h3v5 4 1 4 1 4 1 4h-6-1-5-1-5-1-5v-4-1-4-1-4-1-4-2h-1v2 19c0 .554.446 1 1 1h24c.554 0 1-.446 1-1v-24c0-.554-.446-1-1-1z" fill="#3a3a38"/><path d="m25 4v2c0 .554-.446 1-1 1h-20v1h24v-4z" fill="#797774" stroke-width=".784465"/><path d="m4 9h24v19h-24z" fill="#fafafa"/><path d="m9 9v4h-5v1h5v4h-5v1h5v4h-5v1h5v4h1v-4h5v4h1v-4h5v4h1v-4h6v-1h-6v-4h6v-1h-6v-4h6v-1h-6v-4h-1v4h-5v-4h-1v4h-5v-4zm1 5h5v4h-5zm6 0h5v4h-5zm-6 5h5v4h-5zm6 0h5v4h-5z" fill="#797774"/><rect fill="#1e8bcd" height="2" ry=".966102" width="21" x="3" y="4"/></svg>