<svg viewBox="0 0 32 32" xmlns="http://www.w3.org/2000/svg"><path d="m3 11h7v17h-7z" fill="#fafafa"/><path d="m3 4h24v6h-24z" fill="#1e8bcd" opacity=".5"/><path d="m2 11v17c0 .554.4625411 1.134365 1 1h8v-1-5-1-5-1-5h-1v5h-7v-5zm1 6h7v5h-7zm0 6h7v5h-7z" fill="#3a3a38"/><path d="m3 3c-.554 0-1 .446-1 1v7h1 7 1 17v-7c0-.554-.446-1-1-1zm0 1h7v6h-7zm8 0h8v6h-8zm9 0h7v6h-7z" fill="#0063b1"/><path d="m20.5 13c-.282697-.0039-.513491.281395-.513641.634749v8.73025c.000364.434941.342414.740751.671834.600571l8.985781-3.810939c.436842-.188435.46197-.948776.03905-1.181612l-8.983823-4.919309c-.06283-.03454-.130575-.05281-.199206-.05371z" fill="#1e8bcd"/><rect fill="#3a3a38" height="16" ry=".5" width="1" x="18" y="13"/></svg>