<svg height="32" viewBox="0 0 32 32" width="32" xmlns="http://www.w3.org/2000/svg"><g transform="matrix(0 -1 1 0 5 24)"><g transform="matrix(0 1 -1 0 24 6)"><path d="m4 3c-.554 0-1 .446-1 1v17c0 .554.446 1 1 1h13c.554 0 1-.446 1-1v-17c0-.554-.446-1-1-1zm0 1h13v17h-13z" fill="#3a3a38"/><path d="m4 4v17h13v-17z" fill="#fafafa"/></g><path d="m5 26v-19h4v19z" fill="#ed8733"/><path d="m6 25v-17h2v17z" fill="#f8db8f"/><g fill="#ed8733" transform="matrix(0 -1 1 0 -11 -16)"><path d="m-36 16h1v2h-1z"/><path d="m-33 16h1v2h-1z"/><path d="m-30 16h1v2h-1z"/><path d="m-27 16h1v2h-1z"/><path d="m-39 16h1v2h-1z"/></g></g><g transform="matrix(0 -1 1 0 -5 31)"><g transform="matrix(0 1 -1 0 24 6)"><path d="m4 3c-.554 0-1 .446-1 1v17c0 .554.446 1 1 1h13c.554 0 1-.446 1-1v-17c0-.554-.446-1-1-1zm0 1h13v17h-13z" fill="#3a3a38"/><path d="m4 4v17h13v-17z" fill="#fafafa"/></g><path d="m5 26v-19h4v19z" fill="#ed8733"/><path d="m6 25v-17h2v17z" fill="#f8db8f"/><g fill="#ed8733" transform="matrix(0 -1 1 0 -11 -16)"><path d="m-36 16h1v2h-1z"/><path d="m-33 16h1v2h-1z"/><path d="m-30 16h1v2h-1z"/><path d="m-27 16h1v2h-1z"/><path d="m-39 16h1v2h-1z"/></g></g></svg>