<svg viewBox="0 0 32 32" xmlns="http://www.w3.org/2000/svg"><path d="m4 11c-.554 0-1 .446-1 1v16c0 .554.446 1 1 1h11c.554 0 1-.446 1-1v-16c0-.554-.446-1-1-1zm0 1h11v16h-11z" fill="#3a3a38"/><path d="m4 12h11v16h-11z" fill="#fafafa"/><path d="m10 7c-.554 0-1 .446-1 1v16c0 .554.446 1 1 1h11c.554 0 1-.446 1-1v-16c0-.554-.446-1-1-1zm0 1h11v16h-11z" fill="#3a3a38"/><path d="m10 8h11v16h-11z" fill="#fafafa"/><path d="m16 3c-.554 0-1 .446-1 1v16c0 .554.446 1 1 1h11c.554 0 1-.446 1-1v-16c0-.554-.446-1-1-1zm0 1h11v16h-11z" fill="#3a3a38"/><path d="m16 4h11v16h-11z" fill="#fafafa"/></svg>