<svg height="32" viewBox="0 0 8.4666665 8.4666669" width="32" xmlns="http://www.w3.org/2000/svg"><g transform="translate(0 -288.53332)"><path d="m5 5v10 10h18.888672l1.009766-1.007812h-9.371094c-.814752-.000001-1.501953-.687202-1.501953-1.501954s.687201-1.501953 1.501953-1.501953h9.371094l-1.435547-1.433593c-.576028-.576027-.576036-1.548973 0-2.125.288979-.288985.680959-.439454 1.0625-.439454.381573 0 .773521.150472 1.0625.439454l1.412109 1.410156v-3.839844-10z" fill="#fafafa" transform="matrix(.26458333 0 0 .26458333 0 288.53332)"/><path d="m5 4c-.5540001 0-1 .4459969-1 1v10 10c0 .554003.4459999 1 1 1h18.115234c.070525-.210963.183012-.409574.347657-.574219l.425781-.425781h-5.888672-1-6-1-5v-6-1-3-1-1-8h5 1 6 1 9v8 1 1 3 .839844l1 1v-4.839844-10c0-.5540031-.446-1-1-1zm22.964844 21.175781-.789063.789063c.407202-.074454.714607-.381861.789063-.789063z" fill="#3a3a38" transform="matrix(.26458333 0 0 .26458333 0 288.53332)"/><path d="m1.3229167 289.85625h5.8208333v1.05833h-5.8208333z" fill="#797774" stroke-width=".264583"/><path d="m1.3229167 290.91458h5.8208333v.26459h-5.8208333z" fill="#3a3a38" stroke-width=".264583"/><path d="m7.501953 19.001953c.127809 0 .255582.04855.353516.146485.195869.195867.195869.511162 0 .707031l-3.148438 3.144531h11.792969c.277 0 .5.223.5.5s-.223.5-.5.5h-11.792969l3.148438 3.144531c.195869.195869.195869.511163 0 .707031-.09793.09793-.225707.146485-.353516.146485-.12781 0-.255586-.04855-.353515-.146485l-4.001954-3.998046c-.04702-.04701-.08408-.103236-.109375-.166016-.02334-.057904-.037109-.12105-.037109-.1875s.01377-.129596.03711-.1875c.0253-.06278.06236-.119003.109375-.166016l4.001954-3.998046c.09793-.09793.225705-.146485.353514-.146485z" fill="#1e8bcd" transform="matrix(-.26458333 0 0 .26458333 8.473686 288.26608)"/></g></svg>