<svg viewBox="0 0 32 32" xmlns="http://www.w3.org/2000/svg"><path d="m5 4c-.554 0-1 .446-1 1v13c0 .554.446 1 1 1h17c.554 0 1-.446 1-1v-13c0-.554-.446-1-1-1zm0 1h17v13h-17z" fill="#3a3a38"/><path d="m5 5h17v13h-17z" fill="#fafafa"/><g fill="#3a3a38"><path d="m10 13c-.554 0-1 .446-1 1v13c0 .554.446 1 1 1h17c.554 0 1-.446 1-1v-13c0-.554-.446-1-1-1zm0 1h17v13h-17z"/><path d="m3 3h3v3h-3z"/><path d="m26 3h3v3h-3z"/><path d="m3 26h3v3h-3z"/></g><path d="m10 14h17v13h-17z" fill="#fafafa"/><path d="m26 26h3v3h-3z" fill="#3a3a38"/><g fill="#fafafa"><path d="m4 4h1v1h-1z"/><path d="m27 4h1v1h-1z"/><path d="m27 27h1v1h-1z"/><path d="m4 27h1v1h-1z"/></g></svg>