<svg viewBox="0 0 32 32" xmlns="http://www.w3.org/2000/svg"><path d="m18 28.5c-3.733348-.526683-7.891351-2.393971-9.1666751-5.333386-1.2753239-2.939413-3.5051917-4.518978-2.66666-5.999984.8385318-1.481006 2.9901194-1.484931 3.333325-3.333324.3432055-1.848395-2.9811793-4.306086-2.6666599-5.9999862.3145194-1.6939-2.2270009-3.3348529-1.33333-4.3333198l10.470382.1410653c6.291379.0847625 9.076711 10.2604167 13.529557 13.5255647 3.188558 8.033032-5.644586 12.057872-11.499939 11.33337z" fill="#83beec" stroke="#0063b1"/><g fill="#fb983b" transform="matrix(1.1667513 0 0 1.1666667 2.165736 4.166667)"><path d="m19.247728-.14285817-12.4393881 12.42020017-.950824 3.865512 3.806643-1.011161 11.4065391-11.3956448-2.84745-2.84933037 1.027827-1.026228zm-1.026154 2.15959767 1.71751 1.7193087-10.0723731 10.0613818-1.72253-1.722655zm-10.6833761 10.6640625 1.722531 1.722655-.01004.01004-2.293361.609374.574178-2.337052z" fill="#3a3a38" stroke-width=".857112"/><path d="m20.419517-1.0000005c-.189561 0-.377029.072557-.522283.21763366l-1.673986 1.66908467 2.84745 2.84933037 1.710813-1.6389507c.290506-.290127.290506-.7561887 0-1.0463167l-1.836362-1.83314764c-.145254-.1450637-.33607-.21763366-.525632-.21763366zm0 .85546833 1.719184 1.71763367-1.056285 1.011161-1.695748-1.69754467z" fill="#3a3a38" stroke-width=".857112"/><g fill="#fafafa" transform="translate(0 -12)"><path d="m20.419922 11.855469-1.033203 1.03125 1.695312 1.697265 1.056641-1.011718z"/><path d="m24.425781 19.519531-11.757812 11.734375 2.009765 2.009766 11.751954-11.738281zm-12.464843 12.441407-.0078.0059-.669922 2.726562 2.675781-.710937.01172-.01172z" stroke-width="1.166709" transform="matrix(.85708068 0 0 .85714283 -2.713291 -2.714286)"/></g></g></svg>