<svg height="32" viewBox="0 0 32 32" width="32" xmlns="http://www.w3.org/2000/svg">

/&amp;amp;gt;<rect fill="#797774" height="9" ry="1" width="14" x="15" y="20"/><rect fill="#0063b1" height="9" ry="1" width="14" x="13" y="18"/><path d="m14 19h12v7h-12z" fill="#83beec"/><g fill="#ed8733"><rect height="3" rx=".5" width="1" x="10" y="3"/><rect height="3" rx=".5" width="1" x="10" y="15"/><rect height="3" rx=".5" transform="rotate(90)" width="1" x="10" y="-18"/><rect height="3" rx=".5" transform="rotate(90)" width="1" x="10" y="-6"/><rect height="3" rx=".5" transform="matrix(.70710678 .70710678 -.70710678 .70710678 0 0)" width="1" x="14.349243" y="-7.5"/><rect height="3" rx=".5" transform="matrix(.70710678 .70710678 -.70710678 .70710678 0 0)" width="1" x="14.349243" y="4.5"/><rect height="3" rx=".5" transform="matrix(-.70710678 .70710678 -.70710678 -.70710678 0 0)" width="1" x="-.5" y="-22.349243"/><rect height="3" rx=".5" transform="matrix(-.70710678 .70710678 -.70710678 -.70710678 0 0)" width="1" x="-.5" y="-10.349242"/><circle cx="10.5" cy="10.5" r="3.5"/></g><circle cx="10.5" cy="10.5" fill="#f8db8f" r="2.5"/></svg>