<svg viewBox="0 0 32 32" xmlns="http://www.w3.org/2000/svg"><g transform="matrix(0 -1 1 0 .00505 32)"><g fill="none" stroke="#1e8bcd" stroke-linecap="round" transform="matrix(-1 0 0 1 33.028484 -.0101)"><path d="m16.514242 23.50505h13.028484"/><path d="m24.528484 18.50505 5 5-5 5" stroke-linejoin="round"/></g><g fill="none" stroke="#1e8bcd" stroke-linecap="round" transform="translate(-1 -.0101)"><path d="m16.5 23.50505h13.014242"/><path d="m24.5 18.50505 5 5-5 5" stroke-linejoin="round"/></g><path d="m29 4.927734c0-.514162-.413572-.927734-.927734-.927734h-24.1445315c-.514162 0-.927734.413572-.927734.927734v8.144532c0 .514162.413572.927734.927734.927734h24.1445315c.514162 0 .927734-.413572.927734-.927734zm-1 .067216v8h-24v-8z" fill="#3a3a38"/><path d="m4 4.99495v8h24v-8z" fill="#fafafa"/></g></svg>