<svg viewBox="0 0 32 32" xmlns="http://www.w3.org/2000/svg"><path d="m4 4v24h9.998047v-15.486328a1.5158653 1.5158653 0 0 1 1.519531-1.515625 1.5158653 1.5158653 0 0 1 .976563.359375l11.505859 9.74414v-17.101562zm20.828125 21.015625 1.330078 2.984375h1.841797v-2.984375z" fill="#fafafa"/><path d="m3 3v26h10.998047v-1h-9.998047v-24h24v17.101562l1 .847657v-18.949219zm26 21.923828a1.5158653 1.5158653 0 0 1 -.513672.091797h-.486328v2.984375h-1.841797l.314453.703125a1.5158653 1.5158653 0 0 1 .044922.113281c.021062.059746.025697.122831.042969.183594h2.439453zm-9.744141 3.632813-.410156.443359h.619141z" fill="#3a3a38"/><g fill-rule="evenodd"><path d="m15.515625 12.001954a.51187412.51187412 0 0 0 -.513672.511719v17.857421a.51187412.51187412 0 0 0 .886719.347656l3.640625-3.9375 1.919922 4.082031-.01953-.04687c.197909.561415.669926.930052 1.171874 1.082032.501949.151979 1.045418.125671 1.546876-.03711.501457-.162781.97151-.469805 1.269531-.943359s.382499-1.114693.152343-1.767578a.51187412.51187412 0 0 0 -.01562-.03906l-2.273443-5.099617h5.205078a.51187412.51187412 0 0 0 .330078-.902344l-12.972656-10.986327a.51187412.51187412 0 0 0 -.328125-.121094z" fill="#3a3a38"/><path d="m16 13.562501v15.566405l3.3125-3.582031a.48637676.48637676 0 0 1 .796875.123047l2.242187 4.769531a.48637676.48637676 0 0 1 .01953.04492c.08516.241575.250782.377613.519531.458984.268749.08137.628758.07278.949219-.03125.32046-.104026.590604-.296939.734375-.52539s.20028-.491291.05469-.904297l-2.580078-5.785156a.48637676.48637676 0 0 1 .44336-.683594h4.667968z" fill="#fafafa"/></g><path d="m12 9a3 3 0 0 1 -3 3 3 3 0 0 1 -3-3 3 3 0 0 1 3-3 3 3 0 0 1 3 3z" fill="#ed8733"/><path d="m11 9a2 2 0 0 1 -2 2 2 2 0 0 1 -2-2 2 2 0 0 1 2-2 2 2 0 0 1 2 2z" fill="#f8db8f"/><g stroke-width="1.333333"><path d="m11.5 22.5-6 5.5h8.5v-4l-.5.5zm13.326172 2.513672 1.330078 2.986328h1.84375v-2.986328z" fill="#83beef"/><path d="m21.5 15-.324219.324219 4.232422 3.583984zm-10 6-7.5 7h1.5l6-5.5 2 2 .5-.5v-1.5l-.5.5z" fill="#0063b1"/></g></svg>