<svg height="32" viewBox="0 0 8.4666665 8.4666669" width="32" xmlns="http://www.w3.org/2000/svg"><g transform="translate(0 -288.53332)"><g transform="matrix(.26458333 0 0 .26458333 3.96875 288.00415)"><path d="m18 15v7h1.880859l-.435547-.4375c-.577799-.577767-.578018-1.545282 0-2.123047.288504-.288385.679262-.439453 1.060547-.439453.381265 0 .76929.146357 1.0625.439453a1.0001172 1.0001172 0 0 0 .002.002l2.988282 3 .0039.0039c.142715.143333.254516.314011.328125.496094v.002c.066589.165434.109334.356826.109334.560459 0 .204316-.04235.396577-.109375.5625-.07381.182967-.185798.353711-.330078.498047l-.002.002-2.988282 2.992188c-.294142.295163-.685102.441359-1.064406.441359-.381264 0-.772051-.151078-1.060547-.439453-.577799-.577768-.578022-1.545281 0-2.123047l.433594-.433594h-1.878906v3.996094h10v-11.294922l-2.695312-2.705078z" fill="#fafafa" transform="translate(-15 2)"/><path d="m18 14c-.554 0-1 .446-1 1v7h.0059.9941v-7h6v3.5c0 .277.223.5.5.5h3.5v10h-10v-3.996094h-.5c-.355312 0-.381027-.01786-.0625-.0039h-.433594-.003906v4c0 .554.446 1 1 1h10c.554 0 1-.446 1-1v-10.500006-.863281l-3.636719-3.636719h-.863281zm7 1 3 3h-3z" fill="#3a3a38" transform="translate(-15 2)"/><path d="m10 17 3 3h-3z" fill="#fafafa"/></g><path d="m3.3088419 293.03124c.07329 0 .1322916.059.1322916.13229v.92604c0 .29225.2369159.52917.5291667.52917h.5291667 1.3978474l-.5651455-.56722c-.051823-.0518-.051823-.13578 0-.18758.025911-.0259.059718-.0388.093535-.0388.033816 0 .06814.0129.094051.0388l.7914881.79459c.012441.0124.022249.0273.028939.0439.00618.0153.00982.032.00982.0496s-.00364.0343-.00982.0496c-.0067.0166-.016497.0315-.028939.0439l-.7916828.79254c-.025911.026-.060235.0388-.094051.0388s-.067622-.0129-.093534-.0388c-.051823-.0518-.051823-.13579 0-.18759l.5663737-.5662h-1.2681405c-.00183 0-.00335-.00095-.00517-.001h-.1262186-.5285195c-.0006879 0-.00138 0-.00206 0h-.0005291c-.4373637-.001-.7911603-.35638-.7911571-.79375v-.92604c0-.0733.059002-.13229.1322917-.13229z" fill="#1e8bcd" stroke-width=".264583"/><g transform="matrix(.26458333 0 0 .26458333 -3.439583 285.09374)"><path d="m17 16c-.554 0-1 .446-1 1v12c0 .554.446 1 1 1h11c.554 0 1-.446 1-1v-12c0-.554-.446-1-1-1z" fill="#922e9b"/><path d="m19 16.999988h7c.554 0 1 .446 1 1v3c0 .554-.446 1-1 1h-7c-.554 0-1-.446-1-1v-3c0-.554.446-1 1-1z" fill="#fafafa"/><path d="m19 25c-.554 0-1 .446-1 1v2c0 .554.446895 1.031478 1 1h1v-3h2v3h3c.554 0 1-.446 1-1v-2c0-.554-.446-1-1-1z" fill="#fafafa"/><path d="m4 10v1 1c0-.554.446-1 1-1h8c.554 0 1.013662.446168 1 1v4h1v-5-1z" fill="#d492d8" transform="translate(13 13)"/></g></g></svg>