<svg viewBox="0 0 32 32" xmlns="http://www.w3.org/2000/svg"><path d="m6 3v26h20v-20.6406494l-6-5.3593506z" fill="#fafafa"/><path d="m6 2c-.554 0-1 .446-1 1v26c0 .554.446 1 1 1h20c.554 0 1-.446 1-1v-18.109375-1.641221-.207924c0-.4506797.09887-.4265949-.604637-1.067589l-5.307389-5.2370335c-.709525-.7368575-1.478385-.7368575-1.094804-.7368575h-.331557-.661613zm0 1h13v6c0 .554.446016 1.004232 1 1h6v19h-20z" fill="#3a3a38"/><path d="m20 9h6l-6-6z" fill="#fafafa" fill-rule="evenodd"/><path d="m21.087884 13.982422c-.192735.366938-.377936.759081-.867187 1-.485545.240918-.662384.177734-1.210938.177734v.822266c.496663 0 .660385.0763 1.171875-.138672.515196-.214974.685127-.554647.822266-.84375l-.0039 5h-1.9961v1h1.994141 1.005859 2v-1h-2l.0059-6.017578z" fill="#ed3d3b"/><g fill-opacity=".992647"><path d="m8 20h10v1h-10z" fill="#c8c6c4"/><path d="m8 22h16v1h-16z" fill="#c8c6c4"/><path d="m8 24h16v1h-16z" fill="#c8c6c4"/><path d="m8 26h16v1h-16z" fill="#ed3d3b"/></g></svg>