<svg viewBox="0 0 32 32" xmlns="http://www.w3.org/2000/svg"><path d="m13.398437 3-9.398437 26 2.99872.01695c.4271776.0024.7829188-.117988 1.0677084-.352929.2977345-.247992.4980025-.515195.6015624-.802345l2.3320092-5.861676h10l2.320225 5.881988c.129453.326305.329719.600768.601562.822657.271844.208834.635474.314873 1.088541.312304l2.989672-.016949-9.398437-26zm2.583333 4.7378903c.168286.6395584.334319 1.2342291.502604 1.7824222.168287.5351415.33164 1.0045605.486981 1.4091795l3.028645 8.070508h-8l3.028645-8.050196c.142396-.404618.297862-.881298.466147-1.4294915.168284-.5481931.331639-1.1428638.486978-1.7824222z" fill="none" stroke="#3a3a38" stroke-linecap="round" stroke-linejoin="round" stroke-width="2"/><path d="m13.398437 3-9.398437 26 2.99872.01695c.4271776.0024.7829188-.117988 1.0677084-.352929.2977345-.247992.4980025-.515195.6015624-.802345l2.3320092-5.861676h10l2.320225 5.881988c.129453.326305.329719.600768.601562.822657.271844.208834.635474.314873 1.088541.312304l2.989672-.016949-9.398437-26zm2.583333 4.7378903c.168286.6395584.334319 1.2342291.502604 1.7824222.168287.5351415.33164 1.0045605.486981 1.4091795l3.028645 8.070508h-8l3.028645-8.050196c.142396-.404618.297862-.881298.466147-1.4294915.168284-.5481931.331639-1.1428638.486978-1.7824222z" fill="#fafafa"/></svg>