<svg viewBox="0 0 32 32" xmlns="http://www.w3.org/2000/svg"><path d="m4 4h24v24h-24z" fill="#fafafa"/><path d="m3 3v20h1v-4-1-4-1-4-1-4h7 1 8v-1zm18 0v1h7v19h1v-20zm-18 21v5h17v-1h-16v-4zm25 0v4h-7v1h8v-5z"/><g fill="#ed3d3b"><path d="m20 4h1v4h-1z"/><path d="m20 9h1v4h-1z"/><path d="m20 14h1v4h-1z"/><path d="m20 19h1v4h-1z"/><path d="m20 24h1v4h-1z"/><path d="m4 23h7v1h-7z"/><path d="m12 23h8v1h-8z"/><path d="m21 23h7v1h-7z"/></g><path d="m11 4v4h-7v1h7v4h-7v1h7v4h-7v1h7v4h1v-4h8v-1h-8v-4h8v-1h-8v-4h8v-1h-8v-4z" fill="#797774"/></svg>