<svg viewBox="0 0 32 32" xmlns="http://www.w3.org/2000/svg"><path d="m13.875 3c-4.2239775 0-7.6604005 3.2975883-7.8554688 7.433594-.0057848.122656-.0195312.243115-.0195312.367187 0 .0316.0036163.06223.0039062.09375-.0015378.035147-.0028361.070304-.0039062.105469.00347.420193.040042.839458.109375 1.253906.010133.06865.019679.137063.03125.205078.016142.08687.0337234.173475.0527344.259766.49599 2.482862 1.960724 4.496843 4.1582026 5.398438.837309.42583 1.74307.700863 2.675782.8125l.972656.070312h1v10.033203h1.058594l.078125-24.9980468 2.863281-.0351562-.078125 25h1.078125v-4.876953l-.560547-.5625c-.14317-.14314-.255595-.315141-.330078-.5-.066604-.165238-.109375-.355951-.109375-.560547s.04277-.395309.109375-.560547c.07448-.184822.186974-.356902.330078-.5l.560547-.5625v-16.876953h7v-1h-13z" fill="#3a3a38"/><path d="m25.490234 17c.127809 0 .255582.04855.353516.146484.195869.195868.195869.511163 0 .707032l-4.136719 4.146484h9.792969c.277 0 .5.223.5.5s-.223.5-.5.5h-9.792969l4.136719 4.146484c.195869.195869.195869.511164 0 .707032-.097934.097934-.225707.146484-.353516.146484-.12781 0-.255581-.04855-.353515-.146484l-4.990235-5c-.04702-.04701-.08408-.103236-.109375-.166016-.02334-.057904-.037109-.12105-.037109-.1875s.01377-.129596.03711-.1875c.0253-.06278.06236-.119003.109375-.166016l4.990235-5c.097934-.097935.225704-.146484.353514-.146484z" fill="#1e8bcd"/></svg>