<svg viewBox="0 0 32 32" xmlns="http://www.w3.org/2000/svg"><path d="m5 2c-.554 0-1 .446-1 1v26c0 .554.446 1 1 1h11.017578c-.0048-.207034.01595-.416975.08594-.628906v-.002l.123044-.369094h-11.226562v-26h22v13.892578l1-.332031v-13.560547c0-.554-.446-1-1-1z" fill="#3a3a38"/><path d="m5 3v26h11.226562l1.816407-5.455078c.231824-2.907518 2.594439-5.270131 5.501953-5.501953l3.455078-1.150391v-13.892578z" fill="#fafafa"/><rect fill="#797774" height="8" ry="1" width="6" x="7" y="6"/><path d="m15.5 7c-.277 0-.5.223-.5.5s.223.5.5.5h9c.277 0 .5-.223.5-.5s-.223-.5-.5-.5zm0 4c-.277 0-.5.223-.5.5s.223.5.5.5h9c.277 0 .5-.223.5-.5s-.223-.5-.5-.5zm-8.0488281 6c-.2504418 0-.4511719.20073-.4511719.451172v.097656c0 .250438.2007301.451172.4511719.451172h16.2226561l1.324219-.441406c.000077-.003459.001953-.006288.001953-.009766v-.097656c0-.250438-.20073-.451172-.451172-.451172zm0 4c-.2504418 0-.4511719.20073-.4511719.451172v.097656c0 .250438.2007301.451172.4511719.451172h10.9257811c.128479-.353056.304245-.680231.494141-1zm0 4c-.2504418 0-.4511719.20073-.4511719.451172v.097656c0 .250438.2007301.451172.4511719.451172h9.7734371l.333985-1z" fill="#797774"/><path d="m29.990234 17c-.10416.0013-.205932.01957-.304687.05273l-5.919922 1.970704c-2.516616.12692-4.615266 2.225567-4.742187 4.742187l-1.970704 5.919922c-.257633.780132.481587 1.519352 1.261719 1.261719l5.919922-1.970704c2.516616-.12692 4.615266-2.225567 4.742187-4.742187l1.970704-5.919922c.216004-.650533-.271593-1.319848-.957032-1.314449zm-5.990234 4a3 3 0 0 1 3 3 3 3 0 0 1 -3 3 3 3 0 0 1 -3-3 3 3 0 0 1 3-3z" fill="#1e8bcd"/></svg>