<svg viewBox="0 0 32 32" xmlns="http://www.w3.org/2000/svg" xmlns:xlink="http://www.w3.org/1999/xlink"><linearGradient id="a" gradientUnits="userSpaceOnUse" x1="11.003906" x2="11" y1="30.91016" y2="17"><stop offset="0" stop-color="#f6f6f6"/><stop offset="1" stop-color="#fafafa"/></linearGradient><g fill-rule="evenodd" transform="translate(.009765 -1.941406)"><path d="m9.033203 6 4.982891 4h11.017109l-.033203 15h-22l.033203-19z" fill="#fafafa"/><path d="m8.8964839 5c.324636.0000601.635697.1231192.865235.34375l4.7285151 3.65625h10.509766c.676036.000065.999932.35028 1 1v16h-1.033203v-13l.033203-3h-11.017578l-4.9824221-4h-6l-.009765 19.441406-1.023438.058594.033203-19.5c.000068-.6497199.323963-.9999351 1-1z" fill="#ed8733"/><path d="m1.9667969 26h1.2226562 22.0351559.775391l3.732422-11.832031c.36461-1.168055.363884-1.167969-.91211-1.167969h-2.820312-19.1347656c-1.2500514.0041-1.2623375-.002914-1.5664063 1.166016l-2.2988281 8.833984z" fill="#ed8733"/><path d="m6.3964844 13.958984c-.031929.09815-.067721.223771-.1289063.458985a1.0001 1.0001 0 0 1 -.00195 0l-2.2988281 8.833984a1.0001 1.0001 0 0 1 -.021484.07422l-.5761754 1.673827h21.8554684.04297l3.470702-11h-2.738281-19.1308594-.0039062c-.5277722.003-.5639167.03521-.46875-.04102z" fill="#f8db8f"/></g><g transform="translate(14.996047 -3.000044)"><path d="m8.7773438 16.976562c.00588.0078.01174.01561.017578.02344h-4.7949218v.01758c-.533997.127016-.8266138.494787-1 .982418v9.982422c-.06906.0014-.1282364.0096-.1933594.01367-.3736689-.03397-.716301.0484-1.0019531.210937-.6268889.267366-.86471507.984321-.8125 1.449219-.002239.03193-.0121649.0639-.0117188.0957.006895.491527.3439855.9582 1.1484375 1.152344.1609346.05069.3303102.08701.515625.09375.051496.0019.1071945-.006.1601563-.0078.0661823.002925.1249992.009586.1953125.009758h4.2636719c-.00588-.0078-.01174-.01561-.017578-.02344l3.3632811.01758.002.0059c.08568-.02039.176844-.07996.267578-.15625.04414.02062.08264.05003.128906.06641.596378-.212706.994966-.776982.996094-1.410156-.000362-.129259-.01743-.257929-.05078-.382812.01356-.03435.04061-.08858.05078-.117188l.04102-9.255859c.07185-.0014.133578-.0094.201172-.01367.372474.03242.713474-.04817.998046-.210938.625266-.267542 1.856873-.734843 1.804688-1.199219.0022-.03193.01216-.06389.01172-.0957-.0065-.461162-1.301378-.896334-2.001953-1.109375-.04379-.01331-.08581-.02758-.132813-.03906-.163354-.05232-.336726-.0908-.525391-.09766-.05341-.0019-.111027.0077-.166015.0098-.06434-.0028-.121219-.01155-.189453-.01172zm2.2304682 13.933594c-.03347.01161-.06735.02204-.101562.03125.03421-.0092.06809-.01964.101562-.03125zm-.101562.03125c-.02649.0079-.05319.01506-.08008.02149.02689-.0064.05359-.01359.08008-.02149zm-.136719.0332c-.03817.0074-.07661.01322-.115234.01758.03862-.0044.07707-.01023.115234-.01758z" fill="url(#a)"/><path d="m4.25 16c-1.3070984 0-2.25 1.108004-2.25 2.375v1.875 5.142578 1.804688c-1.07146171.240703-2 1.27521-2 2.427734 0 1.346001 1.1942339 2.375 2.5 2.375h5.84375 2.410156c1.307098 0 2.249668-1.108004 2.25-2.375v-1.875-5.142578-2.054688c1.071462-.240703 2.996094-1.02521 2.996094-2.177734 0-1.346002-1.262328-2.375-2.568094-2.375h-5.775656zm0 1h4.4863281 3.7675779c.76536 0 2.496094.649877 2.496094 1.375s-1.730931 1.357669-2.496094 1.375h-.5v2.464844 5.535156l-.01131 1.807118c-.0045.723658-1.010183 1.417191-1.453646 1.420255l-3.2752781.022627h-4.7636719c-.7653589 0-1.5-.649877-1.5-1.375 0-.09064.0116205-.180412.0332031-.267578.1510787-.610167.7971075-1.357422 1.4667969-1.357422h.5v-2.214844-5.535156-1.875c0-.810522.4795984-1.375 1.25-1.375z" fill="#3a3a38"/><circle cx="2.5" cy="29.5" fill="#98989d" r="1.5"/><g transform="translate(-14.996047 3.000044)"><path d="m28.996094 13.052734c-.937371.190077-1.725338.901395-1.935547 1.835938-.017658.038957-.046098.07046-.060547.111328h-.003906v.375 2.625h1 1 2v-2.625-.375h-.035156c-.168918-.990668-.989692-1.749528-1.964844-1.947266zm0 1.050782c.189533.06913.367347.163337.513672.298828.189174.165775.330661.372307.410156.597656h-.923828v2h-1v-1.5-.169922h.011718c.013281-.116858.049298-.224218.087891-.330078h-.001953c.007187-.019929.007623-.043025.015625-.0625.055366-.127442.125131-.249123.216797-.359375.01056-.01299.022213-.024489.033203-.037109.072889-.083901.154096-.160727.244141-.226563.007377-.004922.01417-.010591.021484-.015625.008002-.0057.015619-.011742.023438-.017578.107356-.072513.222819-.13354.347656-.177734zm-14 9.896484v3h.042968c.19831 1.155777 1.276655 2 2.457032 2h8.25c.08644 0 .166915-.017934.25-.027344v-1.15039c-.17551.09242-.342241.15365-.464844.154296l-.287109.001954c.05558.0097.111656.016181.167968.019531l-.876953-.003906c.158374-.004989.315727-.029914.464844-.083985-.527274-.186662-.925614-.656347-.992188-1.240234h-.011718v-.169922-1.5-1zm1.076172 3h7.011718c.206223.583287.750202.971535 1.365235.992188l-.453125-.001954h-.957032l-1.779296.009766h-3.763672c-.097397-.000134-.192644-.011307-.285156-.029297-.278321-.054121-.527135-.186577-.728516-.373047-.189174-.165775-.330662-.372307-.410156-.597656zm9.529296.994141.001954.005859h-.095704c.031301-.000974.06257-.002859.09375-.005859z" fill="#922e9b"/><path d="m29.017578 14.095703c-.536381.183905-.943076.647631-1.009766 1.234375h-.011718v.169922 1.5h2v-1.5-.169922h-.011719c-.06554-.574834-.451749-1.041881-.966797-1.234375zm-13.021484 10.904297v1.5.169922h.011718c.086308.75699.726389 1.32903 1.488282 1.330078.102362.000007.204457-.01046.304687-.03125v.021484h5.195313l1.416015.007813c-.728957-.041898-1.321836-.602635-1.404297-1.328125h-.011718v-.169922-1.5zm8.605468 2.994141c-.03118.0029-.06245.004859-.09375.005859h.095704z" fill="#d492d8"/></g></g></svg>