<svg height="32" viewBox="0 0 8.4666665 8.4666669" width="32" xmlns="http://www.w3.org/2000/svg"><g stroke-width=".264583" transform="translate(0 -288.53332)"><path d="m1.0583333 289.59167c-.14657913 0-.2645833.118-.2645833.26458v1.05833 5.02709c0 .14658.11800417.26458.2645833.26458h6.0854167c.1465792 0 .2645833-.118.2645833-.26458v-5.02709-1.05833c0-.14658-.1180041-.26458-.2645833-.26458zm0 .26458h6.0854167v1.05833 1.05834.26458 1.05833.26459 1.05833.26458 1.05834h-1.3229167-.2645833-1.3229167-.2645833-1.3229167-.2645833-1.3229167v-1.05834-.26458-1.05833-.26459-1.05833-.26458-1.05834-.26458z" fill="#0063b1"/><path d="m1.0583333 289.85625h6.0854167v6.08542h-6.0854167z" fill="#83beec"/><path d="m2.38125 289.85625v1.32292h-1.3229167v.26458h1.3229167v1.32292h-1.3229167v.26458h1.3229167v1.32292h-1.3229167v.26458h1.3229167v1.32292h.2645833v-1.32292h1.3229167v1.32292h.2645833v-1.32292h1.3229167v1.32292h.2645833v-1.32292h1.3229167v-.26458h-1.3229167v-1.32292h1.3229167v-.26458h-1.3229167v-1.32292h1.3229167v-.26458h-1.3229167v-1.32292h-.2645833v1.32292h-1.3229167v-1.32292h-.2645833v1.32292h-1.3229167v-1.32292zm.2645833 1.5875h1.3229167v1.32292h-1.3229167zm1.5875 0h1.3229167v1.32292h-1.3229167zm-1.5875 1.5875h1.3229167v1.32292h-1.3229167zm1.5875 0h1.3229167v1.32292h-1.3229167z" fill="#1e8bcd"/></g></svg>