<svg viewBox="0 0 32 32" xmlns="http://www.w3.org/2000/svg"><path d="m4 7v21h11.226562l1.816407-5.455078c.231822-2.907324 2.594634-5.270128 5.501953-5.501953l5.455078-1.816407v-8.226562zm24 19.224609c-.462767.708633-1.066758 1.312624-1.775391 1.775391h1.775391z" fill="#fafafa"/><path d="m4 3c-.554 0-1 .446-1 1v24c0 .554.446 1 1 1h9.642578 1.375c-.0045-.206613.01607-.417347.08594-.628906v-.002l.123044-.369094h-.646484-10.580078v-21h24v8.226562l.367188-.123046c.197721-.066396.403503-.100916.611328-.103516h.002.002c.0061-.000048.01152.0019.01758.002v-11.002c-.000096-.554-.446096-1-1.000096-1zm25 20.326172-.04297.128906c-.080772 1.012996-.42513 1.955036-.95703 2.769531v1.775391h-1.775391c-.814495.5319-1.756537.876257-2.769531.957031l-.128906.042969h4.673828c.554 0 1-.446 1-1v-3.765625z" fill="#3a3a38"/><path d="m3 3h26v6h-26z" fill="#3a3a38"/><path d="m4 4h24v4h-24z" fill="#797774" stroke-width=".784465"/><path d="m28.991232 15.99978c-.10416.0013-.207496.01879-.306251.05195l-5.919936 1.971489c-2.516616.126924-4.614496 2.224797-4.741417 4.741417l-1.971489 5.919937c-.257633.780132.483152 1.520917 1.263284 1.263284l5.919937-1.971489c2.516616-.126924 4.614496-2.224797 4.741417-4.741417l1.971489-5.919936c.216004-.650535-.271595-1.320635-.957034-1.315235zm-5.99103 4.20001a2.8000065 2.8000065 0 0 1 2.007037.850392 2.8000065 2.8000065 0 0 1 .185937.207813 2.8000065 2.8000065 0 0 1 .607033 1.741801 2.8000065 2.8000065 0 0 1 -2.800007 2.800007 2.8000065 2.8000065 0 0 1 -.555078-.05468 2.8000065 2.8000065 0 0 1 -.0028 0 2.8000065 2.8000065 0 0 1 -1.938612-1.47657 2.8000065 2.8000065 0 0 1 -.112112-.254298 2.8000065 2.8000065 0 0 1 -.150388-.538672 2.8000065 2.8000065 0 0 1 -.04102-.475783 2.8000065 2.8000065 0 0 1 .658986-1.804691 2.8000065 2.8000065 0 0 1 .191407-.205079 2.8000065 2.8000065 0 0 1 1.949613-.790236z" fill="#1e8bcd"/><g fill="#797774"><path d="m7 10v4h4v-4zm1 1h2v2h-2z"/><path d="m7 16v4h4v-4zm1 1h2v2h-2z"/><path d="m13 11h12v1h-12z"/><path d="m7 22v4h4v-4zm1 1h2v2h-2z"/><path d="m13 17v1h6.789062c.813984-.529091 1.754537-.874134 2.765626-.953125l.140624-.046875z"/><path d="m13 23v1h3.566406l.332032-1z"/></g></svg>