<svg viewBox="0 0 32 32" xmlns="http://www.w3.org/2000/svg"><g fill="none" stroke="#3a3a38" stroke-linecap="round" stroke-width="1"><path d="m22.5 6.5v19.974679"/><path d="m27.490726 21.466785-4.990726 4.99367-4.990726-4.99367" stroke-linejoin="round"/></g><path d="m7.964844 2.9999999-5 12.0000001h.9648438c.109147-.0083.1991681-.02724.2675781-.08203.06386-.05479.1139006-.122888.1503906-.205078l1.4550781-3.712892h2.6621094 2.662109l1.455079 3.712891c.03649.08219.08653.150283.15039.205078.06841.05479.158431.073741.267578.082031h.964844l-5-12.0000001h-.234375-.265625-.265625zm.5 1.671875c.043243.136143.087801.259818.1308594.363281l2.1035156 4.964844h-2.234375-2.234375l2.1035156-4.964844c.043059-.103463.087619-.227138.1308594-.363281z" fill="#1e8bcd"/><path d="m8.8146188-8.1731886v1.3085938c0 .4166666-.1236979.8072916-.3710937 1.171875l-20.9960941 28.8476568h21.3671878v2.890625h-25.6640628v-1.386719c0-.195312.03255-.377604.09766-.546875.0651-.169271.149739-.332031.253906-.488281l20.9765633-28.9062506h-21.3281263v-2.890625z" fill="#a846b2" transform="matrix(.35068492 0 0 .35068492 9.908846 19.866214)"/></svg>