<svg height="32" viewBox="0 0 32 32" width="32" xmlns="http://www.w3.org/2000/svg" xmlns:xlink="http://www.w3.org/1999/xlink"><linearGradient id="a" gradientUnits="userSpaceOnUse" x1="16" x2="16" y1="22" y2="13"><stop offset="0" stop-color="#c20618"/><stop offset="1" stop-color="#ff6961" stop-opacity=".966805"/></linearGradient><path d="m4 4v10h24v-10h-8.90625l1.445312 1.4414062a.98752222.98752222 0 0 0 .001954.0019532c.292332.292691.465053.7353029.441406 1.1328125s-.199245.7272614-.44336.9707031c-.244113.2434417-.575416.4186055-.972656.4414062-.396413.0227534-.838515-.1498191-1.130859-.4414062l-1.458985-1.4550781-.005859 5.3945311c.005804.407546-.175126.843006-.464844 1.111328-.289717.268322-.640266.381851-.974609.392578a.98752222.98752222 0 0 1 -.0625 0c-.334411-.010695-.68489-.124244-.974609-.392578-.28972-.268334-.470648-.703782-.464844-1.111328l-.005859-5.3945311-1.457032 1.453125c-.292332.2926896-.735573.4661601-1.132812.4433593-.39724-.0228007-.728543-.1979639-.972656-.4414062-.244116-.2434423-.419714-.5731937-.44336-.9707031-.0236459-.3975094.149074-.8401218.441406-1.1328125a.98752222.98752222 0 0 0 .001954-.0019532l1.445312-1.4414062zm0 12.9375v11.0625h8.904297l-2.443359-2.4375a.98752222.98752222 0 0 0 -.001954-.001953c-.292332-.292691-.4650519-.735303-.441406-1.132813.023646-.397509.199244-.72726.44336-.970703.244114-.243442.575416-.418605.972656-.441406.396413-.022753.838514.14982 1.130859.441406l.001953.001953 1.457032 1.453125.005859-5.394531c-.00577-.407506.175138-.843007.464844-1.111328.289705-.268321.640265-.381851.974609-.392578a.98752222.98752222 0 0 1 .0625 0c.334344.010727.684903.124257.974609.392578.289707.268321.470618.703817.464844 1.111328l.005859 5.394531 1.457032-1.453125c.292332-.292691.735573-.46616 1.132812-.443359.39724.022801.728543.197964.972656.441406.244115.243442.419713.573194.44336.970703.023647.39751-.149074.840122-.441406 1.132813a.98752222.98752222 0 0 0 -.001954.001953l-2.443359 2.4375h9.904297v-11.0625z" fill="#fafafa"/><path d="m9 4v4h-5v1h5v2.251953 1.748047h-3.8105469-1.1894531v1h.1757812 23.8242188v-1h-1.138672-4.824219-.037109v-4h6v-1h-6v-4h-1v4h-4.025391l-.001953 1h4.027344v4h-5v-.101562c-.154717.054661-.313296.086809-.46875.091796a.98752222.98752222 0 0 1 -.0625 0c-.155486-.004972-.31404-.037134-.46875-.091796v.101562h-4.986328c-.000513.036707-.011487.07267-.013672.109375v-.109375-.337891-3.662109h4.027344l-.001953-1h-4.025391v-4zm-5 13v6h.2089844 1 3.7910156v2 3h1v-4.636719-.363281h.037109 3.988282l.001953-1h-4.027344v-4h-1v4h-4.7910156-.0332032v-5zm17 1v4h-4.027344l.001953 1h4.025391v5h1v-5h.013672 4.828125 1.158203v-1h-.158203-5.550781-.291016v-4z" fill="#797774"/><path d="m3 3v1 5 5h1v-1-4-1-4h5 1 1.90625l1.001953-1h-8.908203zm15.091797 0 1.001953 1h1.90625 1 6v4 1 4 1h1v-5-5-1h-1zm-15.091797 13.9375v5.095703 5.966797c0 .554.446 1 1 1h9.90625l-1.001953-1h-2.904297-1-5v-5-6.0625zm25 0v4.902344.160156 1 5h-6-1-2.904297l-1.001953 1h10.90625c.554 0 1-.446 1-1v-6-1.160156-3.902344z" fill="#3a3a38"/><path d="m4 13v1h24v-1zm0 4v1h24v-1z" fill="url(#a)"/><g fill="#ed3d3b" fill-rule="evenodd"><path d="m15.5 2c-.155997.00245-.301909.077577-.394531.203125l-3.947266 3.9375c-.472077.4726563.236907 1.1796876.708985.7070312l3.142578-3.1328124.007812 7.7851562c-.004685.330014.236192.496031.482422.503906.24623-.007875.487122-.173892.482422-.503906l.007812-7.7851562 3.142578 3.1328124c.472077.4726564 1.181062-.2343749.708985-.7070312l-3.947266-3.9375c-.092622-.125548-.238534-.200675-.394531-.203125z"/><path d="m15.5 29.003906c-.155997-.0025-.301909-.07758-.394531-.203125l-3.947266-3.9375c-.472077-.472656.236907-1.179688.708985-.707031l3.142578 3.132812.0078-7.785156c-.004673-.330014.236204-.496031.482434-.503906.24623.0079.487122.173892.482422.503906l.0078 7.785156 3.142578-3.132812c.472077-.472657 1.181062.234375.708985.707031l-3.947266 3.9375c-.09261.125548-.238522.200675-.394519.203125z"/></g></svg>