<svg viewBox="0 0 32 32" xmlns="http://www.w3.org/2000/svg"><path d="m19.155436 3.4999518-2.682494 6.210326-1.80664-5.0567618-1.556397 5.2154532-3.5064682-4.238891 3.8452152 6.8756088-6.4758302-4.3670642 4.9865712 5.8929422-6.3079818-2.371214 3.7597649 2.893067-5.8288563 1.843259 6.7230212.97046-6.8054187 3.054808 7.5317357-1.132202-2.8320296 5.6427 5.3161596-4.446411-3.8543678 6.323242 5.2795408-4.397582-1.339722 4.916378 2.685545-6.008908 1.803591 7.180785 1.559448-7.342528 3.503416 4.040527-1.303099-4.348754 5.331418 3.10974-6.381224-4.63562 7.699583 1.431275-5.151367-4.022216 4.684448-1.031493-5.581664.286864 5.664062-4.312132-6.387327 2.389526 4.223632-4.7760008-6.707764 1.2542718 3.85437-4.0008533-5.282593 4.7119133 1.339722-7.7545152z" fill="#fafafa" stroke="#3a3a38" stroke-linecap="round" stroke-linejoin="round" stroke-width="1.000449"/></svg>