<svg viewBox="0 0 32 32" xmlns="http://www.w3.org/2000/svg"><g fill="#fafafa" stroke-width=".760355" transform="matrix(1.3151751 0 0 1.3151751 -1.7607 2.196498)"><path d="m9.9375 1-5.9375 5.9375v7.125l5.9375 5.9375h7.125l5.9375-5.9375v-7.125l-5.9375-5.9375z"/><path d="m10.568359 1 1.78125 4.75h2.300782l1.78125-4.75zm-1.1132809.4824219-4.9726562 4.9726562 4.75 1.78125 2.0039061-2.0039062-1.7812499-4.75zm8.0898439 0-1.78125 4.75 2.003906 2.0039062 4.75-1.78125zm-13.544922 6.0859375v5.8632816l4.75-1.78125v-2.3007816zm19 0-4.75 1.78125v2.3007816l4.75 1.78125zm-13.7675781 5.1953126-4.75 1.78125 4.9726562 4.972656 1.7812499-4.75zm8.5351561 0-2.003906 2.003906 1.78125 4.75 4.972656-4.972656zm-5.417969 2.486328-1.78125 4.75h5.863282l-1.78125-4.75z" stroke="#3a3a38" stroke-linecap="round" stroke-linejoin="round"/></g></svg>