<svg viewBox="0 0 32 32" xmlns="http://www.w3.org/2000/svg"><path d="m16 3.500225c-6.9034352 0-12.4997754 5.5963402-12.4997754 12.499776 0 6.903434 5.5963402 12.499774 12.4997754 12.499774 6.903434 0 12.499775-5.59634 12.499775-12.499774 0-6.9034358-5.596341-12.499776-12.499775-12.499776zm0 3.9472975c5.086742 0 8.552478 3.4657365 8.552478 8.5524785 0 1.371173-.259749 2.619107-.727269 3.71858l-11.543789-11.5437894c1.099472-.4675207 2.347406-.7272691 3.71858-.7272691zm-6.8640831 3.1634915 12.2530691 12.253069c-1.425073 1.07637-3.262725 1.688395-5.388986 1.688395-5.086742 0-8.5524778-3.465736-8.5524778-8.552477 0-2.126264.6120251-3.963914 1.6883947-5.388987z" fill="#fafafa" stroke="#3a3a38" stroke-linecap="round" stroke-linejoin="round" stroke-width="1.000449"/></svg>