<svg viewBox="0 0 32 32" xmlns="http://www.w3.org/2000/svg"><g fill="none" stroke="#1e8bcd" stroke-linecap="round" stroke-linejoin="round"><path d="m28.502491 27.490403v-7.990316" stroke-width="1.004882"/><path d="m3.5024912 27.490403v-7.990316" stroke-width="1.004882"/><path d="m3.5071212 23.485353h5.9928788"/><path d="m22.507121 23.485353h5.992879"/></g><path d="m13.999706 18.990403a2 2 0 0 0 -2 2 2 2 0 0 0 2 2 2 2 0 0 0 2-2 2 2 0 0 0 -2-2zm0 1a1 1 0 0 1 1 1 1 1 0 0 1 -1 1 1 1 0 0 1 -1-1 1 1 0 0 1 1-1z" fill="#1e8bcd"/><path d="m17.999706 23.990403a2 2 0 0 0 -2 2 2 2 0 0 0 2 2 2 2 0 0 0 2-2 2 2 0 0 0 -2-2zm0 1a1 1 0 0 1 1 1 1 1 0 0 1 -1 1 1 1 0 0 1 -1-1 1 1 0 0 1 1-1z" fill="#1e8bcd"/><path d="m12.499706 27.490403 7-8" fill="none" stroke="#1e8bcd" stroke-linecap="round"/><path d="m4 6.99v10.000403h24v-10.000403z" fill="#fafafa"/><path d="m3 6.99v10.000403c0 .554.446 1 1 1h24c.554 0 1.134365-.462541 1-1v-10.000403h-1-7-1-8-1-7zm1 1h7v4h-7zm8 0h8v4h-8zm9 0h7v4h-7zm-17 5h7v4.000403h-7zm8 0h8v4.000403h-8zm9 0h7v4.000403h-7z" fill="#3a3a38"/></svg>