<svg height="32" viewBox="0 0 32 32" width="32" xmlns="http://www.w3.org/2000/svg"><path d="m6 4v24h8.84375l11.15625-11.232422v-7.7011718l-5.011719-5.0664062z" fill="#fafafa"/><path d="m20 10h6l-6-6z" fill="#fafafa" fill-rule="evenodd"/><path d="m19.994141 2.9941406a.50005.50005 0 0 0 -.076172.0058594h-.417969-.5-13c-.554 0-1 .446-1 1v24c0 .554.446 1 1 1h7.851562l.992188-1h-7.84375-1v-1-22-1h1 12v6.5c0 .277.223.5.5.5h6.5v5.767578l1-1.007812v-4.759766-.5-.421875a.50005.50005 0 0 0 -.146484-.4316406l-6.5-6.5a.50005.50005 0 0 0 -.359375-.1523438zm.005859 1.2128906 5.792969 5.7929688h-5.792969z" fill="#3a3a38"/><path d="m27.499929 17.5-12 12h12zm-2 5v1.476392 3.523608h-4.499999-.500001z" fill="#f8db8f" fill-rule="evenodd" stroke="#ed8733" stroke-linecap="round" stroke-linejoin="round"/></svg>