<svg height="32" viewBox="0 0 8.4666665 8.4666669" width="32" xmlns="http://www.w3.org/2000/svg"><g transform="translate(0 -288.53332)"><path d="m1.0583333 289.32708h6.35c.1465792 0 .2645834.11801.2645834.26459v6.35c0 .14658-.1180042.26458-.2645834.26458h-6.35c-.14657913 0-.2645833-.118-.2645833-.26458v-6.35c0-.14658.11800417-.26459.2645833-.26459z" fill="#3a3a38" stroke-width=".264583"/><path d="m1.0583333 289.59167h6.35v6.35h-6.35z" fill="#fafafa" stroke-width=".264583"/><g fill="#797774" transform="matrix(.26458333 0 0 .26458333 0 288.53333)"><path d="m11.5 10h13c.277 0 .5.211661.5.474576v.05085c0 .262913-.223.474574-.5.474574h-13c-.277 0-.5-.211661-.5-.474576v-.05085c0-.262913.223-.474574.5-.474574z"/><path d="m11.5 16h13c.277 0 .5.211661.5.474576v.05085c0 .262913-.223.474574-.5.474574h-13c-.277 0-.5-.211661-.5-.474576v-.05085c0-.262913.223-.474574.5-.474574z"/><path d="m11.5 22h13c.277 0 .5.211661.5.474576v.05085c0 .262913-.223.474574-.5.474574h-13c-.277 0-.5-.211661-.5-.474576v-.05085c0-.262913.223-.474574.5-.474574z"/></g><g stroke-width=".264583"><path d="m2.38125 291.31146c0 .21919-.177687.39687-.396875.39687s-.396875-.17768-.396875-.39687.177687-.39688.396875-.39688.396875.17769.396875.39688z" fill="#1e8bcd"/><path d="m2.38125 292.89896c0 .21919-.177687.39687-.396875.39687s-.396875-.17768-.396875-.39687.177687-.39688.396875-.39688.396875.17769.396875.39688z" fill="#fb983b"/><path d="m2.38125 294.48646c0 .21919-.177687.39687-.396875.39687s-.396875-.17768-.396875-.39687.177687-.39688.396875-.39688.396875.17769.396875.39688z" fill="#797774"/></g></g></svg>