<svg viewBox="0 0 32 32" xmlns="http://www.w3.org/2000/svg"><path d="m6 3v26h9.216797l.921875-3.748047c.043113-.178092.134322-.340918.263672-.470703l8.513672-8.490234.71289-.699219.044922-.044922c.099175-.099046.21003-.182879.326172-.255859v-6.931641l-6-5.359375zm20 21.685547-4.322266 4.314453h4.322266z" fill="#fafafa"/><path d="m6 2c-.554 0-1 .446-1 1v26c0 .554.446 1 1 1h9.003906c.0003-.077996.005584-.157447.025391-.238281l.1875-.761719h-9.216797v-26h13v6c0 .554.446016 1.004232 1 1h6v5.291016c.300675-.188936.646622-.291016.990234-.291016.003223 0 .006543-.000017.009766 0v-4.109375-1.640625-.2089844c0-.4506797.098038-.4254121-.605469-1.0664062l-5.30664-5.2382813c-.709525-.7368575-1.477331-.7363281-1.09375-.7363281h-.332032-.662109zm21 21.6875-1 .998047v4.314453h-4.322266l-.529296.527344c-.124823.124898-.280487.214525-.451172.259765l-.800782.212891h6.103516c.554 0 1-.446 1-1z" fill="#3a3a38"/><path d="m20 9h6l-6-6z" fill="#fafafa" fill-rule="evenodd"/><g fill="#fb983b" transform="matrix(1.1667513 0 0 1.1666667 3.165736 3.166667)"><path d="m25.623047 17-8.513672 8.490234-1.109375 4.509766 4.441406-1.179688 7.308594-7.294921-3.322266-3.324219 1.199219-1.197266zm-1.197266 2.519531 2.003907 2.00586-5.751954 5.738281-2.009765-2.009766zm-6.464843 6.441407 2.009765 2.009765-.01172.01172-2.675781.710937.669922-2.726562z" fill="#0063b1" transform="matrix(.85708068 0 0 .85714283 -2.713291 -2.714286)"/><path d="m26.990234 16c-.221171 0-.439899.08465-.609375.253906l-1.953125 1.947266 3.322266 3.324219 1.996094-1.91211c.338948-.338481.338948-.88222 0-1.220703l-2.142578-2.138672c-.169476-.169241-.39211-.253906-.613282-.253906zm0 .998047 2.00586 2.003906-1.232422 1.179688-1.978516-1.980469z" fill="#0063b1" transform="matrix(.85708068 0 0 .85714283 -2.713291 -2.714286)"/><path d="m20.419922 11.855469-1.033203 1.03125 1.695312 1.697265 1.056641-1.011718z" fill="#83beec"/><path d="m24.425781 19.519531-5.757812 5.734375 2.009765 2.009766 5.751954-5.738281zm-6.464843 6.441407-.0078.0059-.669922 2.726562 2.675781-.710937.01172-.01172z" fill="#83beec" stroke-width="1.166709" transform="matrix(.85708068 0 0 .85714283 -2.713291 -2.714286)"/><g stroke-width=".857112"><g fill="#fb983b"><rect height=".857143" ry=".428571" width="4.285403" x="13.571241" y="9.285714"/><rect height=".857143" ry=".428571" width="5.999565" x="4.143354" y="12.714285"/><rect height=".857143" ry=".428571" width="5.999565" x="4.143354" y="19.571428"/></g><g fill="#797774"><rect height=".857143" ry=".428571" width="4.285403" x="4.143354" y="5.857142"/><rect height=".857143" ry=".428571" width="7.713726" x="4.143354" y="9.285714"/><rect height=".857143" ry=".406779" width="3.428323" x="4.143354" y="16.142857"/><rect height=".857143" ry=".406779" width="3.428323" x="9.285838" y="16.142857"/><rect height=".857143" ry=".406779" width="3.428323" x="11.85708" y="12.714285"/><rect height=".857143" ry=".428571" width="1.714161" x="10.14292" y="5.857142"/></g></g></g></svg>