<svg height="32" viewBox="0 0 8.4666665 8.4666669" width="32" xmlns="http://www.w3.org/2000/svg" xmlns:xlink="http://www.w3.org/1999/xlink"><filter id="a" color-interpolation-filters="sRGB" height="1.094553" width="1.097492" x="-.048746" y="-.047277"><feGaussianBlur stdDeviation=".36559322"/></filter><g transform="translate(0 -288.53332)"><g stroke-width=".264583"><path d="m1.0583333 290.91458v5.02709h2.6463501v-1.5875-.26459-.79375a.26410346.26410346 0 0 1 .0005292-.0134c.013861-.27156.2395815-.51522.5281207-.51522h3.175v-1.8526z" fill="#fafafa"/><path d="m1.0583333 289.32708c-.14657913 0-.2645833.11801-.2645833.26459v6.35c0 .14658.11800417.26458.2645833.26458h2.6463501v-.26458h-2.6463501v-5.02709h6.35v1.8526h.2645834v-3.17551c0-.14658-.1180042-.26459-.2645834-.26459z" fill="#3a3a38"/><path d="m1.0583333 289.59167h6.35v1.05833h-6.35z" fill="#797774"/></g><path d="m13 14.5h13v13h-13z" filter="url(#a)" opacity=".15" stroke-width="1.015418" transform="matrix(.26458333 0 0 .26458333 .79375 289.32708)"/><g stroke-width=".264583"><path d="m3.96875 294.35417v2.11666h3.96875v-2.11666zm.2645833 0h3.4395834v1.85208h-3.4395834z" fill="#3a3a38" fill-opacity=".996078"/><path d="m4.2333333 293.825h3.4395834v2.38125h-3.4395834z" fill="#fafafa"/><path d="m3.96875 293.29583h3.96875v1.05834h-3.96875z" fill="#83beec"/><path d="m5.8208333 294.35417v.79375h-1.5875v.26458h1.5875v.79375h.2645834v-.79375h1.5875v-.26458h-1.5875v-.79375z" fill="#797774"/><path d="m4.2333333 293.03125c-.1465791 0-.2571043.11819-.2645833.26458v.79375.26459h.2645833v-.26459-.79375h1.5875.2645834 1.5875v.79375.26459h.2645833v-.26459-.79375c0-.14658-.1180042-.26458-.2645833-.26458z" fill="#0063b1"/></g><g fill="#797774" transform="matrix(.26458333 0 0 .26458333 0 288.53333)"><path d="m7 10v4h4v-4zm1 1h2v2h-2z"/><path d="m7 16v4h4v-4zm1 1h2v2h-2z"/><path d="m13 11v1h12v-1zm0 6v1h1v-1zm0 6v1h1v-1z"/><path d="m7 22v4h4v-4zm1 1h2v2h-2z"/></g><path d="m5.8208333 293.29583v.79375h-1.5875v.26459h3.4395834v-.26459h-1.5875v-.79375z" fill="#1e8bcd" stroke-width=".264583"/></g></svg>