<svg viewBox="0 0 32 32" xmlns="http://www.w3.org/2000/svg"><path d="m16 4a12 3 0 0 0 -12 3v18a12 3 0 0 0 12 3 12 3 0 0 0 12-3v-18a12 3 0 0 0 -12-3z" fill="#fafafa"/><path d="m16 3a13 4 0 0 0 -13 4v6 6 6 .3125h.0507812a13 4 0 0 0 12.9492188 3.6875 13 4 0 0 0 13-4v-18a13 4 0 0 0 -13-4zm0 1a12 3 0 0 1 12 3 12 3 0 0 1 -12 3 12 3 0 0 1 -12-3 12 3 0 0 1 12-3zm12 4.5292969v4.4707031a12 3 0 0 1 -12 3 12 3 0 0 1 -12-3v-4.4628906a13 4 0 0 0 12 2.4628906 13 4 0 0 0 12-2.4707031zm0 6.0000001v4.470703a12 3 0 0 1 -12 3 12 3 0 0 1 -12-3v-4.462891a13 4 0 0 0 12 2.462891 13 4 0 0 0 12-2.470703zm0 6v4.470703a12 3 0 0 1 -12 3 12 3 0 0 1 -12-3v-4.462891a13 4 0 0 0 12 2.462891 13 4 0 0 0 12-2.470703z" fill="#3a3a38"/></svg>