<svg viewBox="0 0 32 32" xmlns="http://www.w3.org/2000/svg"><path d="m13 4a9 9 0 0 0 -9 9 9 9 0 0 0 9 9 9 9 0 0 0 9-9 9 9 0 0 0 -9-9zm-4 2h1a1.0001 1.0001 0 0 1 1 1v2h2a1.0001 1.0001 0 0 1 1 1v1a1.0001 1.0001 0 0 1 -1 1h-2v2a1.0001 1.0001 0 0 1 -1 1h-1a1.0001 1.0001 0 0 1 -1-1v-2h-2a1.0001 1.0001 0 0 1 -1-1v-1a1.0001 1.0001 0 0 1 1-1h2v-2a1.0001 1.0001 0 0 1 1-1zm4 8h7a1.0001 1.0001 0 0 1 1 1v1a1.0001 1.0001 0 0 1 -1 1h-7a1.0001 1.0001 0 0 1 -1-1v-1a1.0001 1.0001 0 0 1 1-1z" fill="#fafafa" fill-opacity=".965649"/><path d="m13 3a10 10 0 0 0 -10 10 10 10 0 0 0 10 10 10 10 0 0 0 10-10 10 10 0 0 0 -10-10zm0 1a9 9 0 0 1 5.728516 2.0644531l-4.728516 4.7285159v.207031a1.0001 1.0001 0 0 1 -1 1h-.207031l-1.792969 1.792969v.207031a1.0001 1.0001 0 0 1 -1 1h-.2070312l-3.7265626 3.726562a9 9 0 0 1 -2.0664062-5.726562 9 9 0 0 1 9-9zm6.466797 2.7402344a9 9 0 0 1 2.533203 6.2597656 9 9 0 0 1 -9 9 9 9 0 0 1 -6.2519531-2.541016z" fill="#3a3a38"/><path d="m28 28-7.5-7.5" fill="none" stroke="#3a3a38" stroke-linecap="round" stroke-width="2"/><g fill="#1e8bcd" fill-opacity=".965649"><path d="m9 7v3h-3v1h3v3h1v-3h3v-1h-3v-3z"/><path d="m13 15h7v1h-7z"/></g></svg>