<svg viewBox="0 0 16 16" xmlns="http://www.w3.org/2000/svg"><path d="m6 6.8087354h.432353c.4117647 0 .4107845-.1405623.5823531-.4216868l2.6867648-4.8177715c.1509802-.2108433.3156861-.3584337.4941181-.4427711.185294-.0843373.408333-.126506.669117-.126506h2.357354l-3.5205891 5.7665667c-.2539216.37249-.525.6360442-.8132353.7906627.2058823.077309.3911765.1897591.5558824.3373494.1647059.1475904.3225491.3338354.4735297.5587351l3.5823533 6.5466871h-2.39853c-.30196 0-.528431-.04568-.679412-.137048-.144117-.09839-.267647-.224899-.370588-.379518l-2.7279414-5.1024103c-.1029411-.1686747-.2264706-.2916666-.3705883-.3689759-.1372548-.0773092-.0367647-.1159638-.2838236-.1159638h-.6691177v6.103916h-3v-14.000001h3z" fill="#3a3a38" stroke-width=".875"/></svg>