<svg height="32" viewBox="0 0 32 32" width="32" xmlns="http://www.w3.org/2000/svg"><path d="m2 5h28v22h-28z" fill="#fafafa"/><g fill="#1e8bcd"><path d="m4.00003 6.05052 23.07579-6.05061 4.92421 15.94939-23.07579 6.05061z"/><path d="m22.7906 22.46319a8.0000001 8.0000001 0 0 0 -2.42399-11.05099 8.0000001 8.0000001 0 0 0 -11.05098 2.42398l1.68437 1.07838a6.0000001 6.0000001 0 0 1 8.28824-1.81799 6.0000001 6.0000001 0 0 1 1.81798 8.28824z"/><path d="m24.47497 23.54156-5.05311-3.23513.90899 4.14413z" fill-rule="evenodd"/></g><path d="m2 4c-.554 0-1 .446-1 1v22c0 .554.446 1 1 1h28c.554 0 1-.446 1-1v-22c0-.554-.446-1-1-1zm0 1h28v22h-28z" fill="#3a3a38"/></svg>