<svg height="32" viewBox="0 0 32 32" width="32" xmlns="http://www.w3.org/2000/svg"><path d="m2 5h28v22h-28z" fill="#fafafa"/><g fill="#1e8bcd"><path d="m16.00001 7.99997h2.00002v4h-2.00002z"/><path d="m15.00001 3.99997h3.00001v4h-3.00001z"/><path d="m16.00001 23.99997h2.00002v4h-2.00002z"/><path d="m19.00001 15.99997h2.99999v4h-2.99999z"/><path d="m15.00001 19.99997h3.00001v4h-3.00001z"/><path d="m19.00001 7.99997h2.99999v4h-2.99999z"/><path d="m18.99998 23.99997h3.00003v4h-3.00003z"/><path d="m17.99998 19.99997h4v4h-4z"/><path d="m18.00001 3.99997h4v4h-4z"/><path d="m18.00001 11.99997h4v4h-4z"/><path d="m22.00001 4.99997h7.99999v22.00003h-7.99999z"/><path d="m16.00001 15.99997h2.00002v4h-2.00002z"/><path d="m15.00001 11.99997h3.00001v4h-3.00001z"/><path d="m12.00001 3.99997h3.00001v4h-3.00001z"/><path d="m13.00001 7.99997h2v4h-2z"/><path d="m12.00001 11.99997h2v4h-2z"/><path d="m13.00001 15.99997h2v4h-2z"/><path d="m12.00001 19.99997h2v4h-2z"/><path d="m13.00001 23.99997h2v4h-2z"/><path d="m7.00001 4.99997h3v3h-3z"/><path d="m9.00001 7.99997h3v4h-3z"/><path d="m8.00001 11.99997h2v4h-2z"/><path d="m10.00001 15.99997h2v4h-2z"/><path d="m7.00001 19.99997h3v4h-3z"/><path d="m10.00001 23.99997h2v3h-2z"/><path d="m5.00001 7.99997h2v4h-2z"/><path d="m6.00001 15.99997h2v4h-2z"/><path d="m6.00001 23.99997h2v3h-2z"/><path d="m4.00001 11.99997h2v4h-2z"/><path d="m3.00001 4.99997h2v3h-2z"/></g><path d="m2 4c-.554 0-1 .446-1 1v22c0 .554.446 1 1 1h28c.554 0 1-.446 1-1v-22c0-.554-.446-1-1-1zm0 1h28v22h-28z" fill="#3a3a38"/></svg>