<svg height="32" viewBox="0 0 32 32" width="32" xmlns="http://www.w3.org/2000/svg"><path d="m2 4c-.554 0-1 .446-1 1v22c0 .554.446 1 1 1h28c.554 0 1-.446 1-1v-22c0-.554-.446-1-1-1zm0 1h28v22h-28z" fill="#3a3a38"/><path d="m2 5h28v22h-28z" fill="#fafafa"/><g fill="#1e8bcd"><path d="m2.00001 25.99997h1v1h-1z"/><path d="m4.00001 25.99997h1v1h-1z"/><path d="m6.00001 25.99997h1v1h-1z"/><path d="m8.00001 25.99997h1v1h-1z"/><path d="m10.00001 25.99997h1v1h-1z"/><path d="m12.00001 25.99997h1v1h-1z"/><path d="m14.00001 25.99997h1v1h-1z"/><path d="m16.00001 25.99997h1v1h-1z"/><path d="m18.00001 25.99997h1v1h-1z"/><path d="m20.00001 25.99997h1v1h-1z"/><path d="m22.00001 25.99997h1v1h-1z"/><path d="m24.00001 25.99997h1v1h-1z"/><path d="m26.00001 25.99997h1v1h-1z"/><path d="m28.00001 25.99997h1v1h-1z"/><path d="m3.00001 24.99997h1v1h-1z"/><path d="m5.00001 24.99997h1v1h-1z"/><path d="m7.00001 24.99997h1v1h-1z"/><path d="m9.00001 24.99997h1v1h-1z"/><path d="m11.00001 24.99997h1v1h-1z"/><path d="m13.00001 24.99997h1v1h-1z"/><path d="m15.00001 24.99997h1v1h-1z"/><path d="m17.00001 24.99997h1v1h-1z"/><path d="m19.00001 24.99997h1v1h-1z"/><path d="m21.00001 24.99997h1v1h-1z"/><path d="m23.00001 24.99997h1v1h-1z"/><path d="m25.00001 24.99997h1v1h-1z"/><path d="m27.00001 24.99997h1v1h-1z"/><path d="m29.00001 24.99997h1v1h-1z"/><path d="m2.00001 23.99997h1v1h-1z"/><path d="m4.00001 23.99997h1v1h-1z"/><path d="m6.00001 23.99997h1v1h-1z"/><path d="m8.00001 23.99997h1v1h-1z"/><path d="m10.00001 23.99997h1v1h-1z"/><path d="m12.00001 23.99997h1v1h-1z"/><path d="m14.00001 23.99997h1v1h-1z"/><path d="m16.00001 23.99997h1v1h-1z"/><path d="m18.00001 23.99997h1v1h-1z"/><path d="m20.00001 23.99997h1v1h-1z"/><path d="m22.00001 23.99997h1v1h-1z"/><path d="m24.00001 23.99997h1v1h-1z"/><path d="m26.00001 23.99997h1v1h-1z"/><path d="m28.00001 23.99997h1v1h-1z"/><path d="m3.00001 22.99997h1v1h-1z"/><path d="m5.00001 22.99997h1v1h-1z"/><path d="m7.00001 22.99997h1v1h-1z"/><path d="m9.00001 22.99997h1v1h-1z"/><path d="m11.00001 22.99997h1v1h-1z"/><path d="m13.00001 22.99997h1v1h-1z"/><path d="m15.00001 22.99997h1v1h-1z"/><path d="m17.00001 22.99997h1v1h-1z"/><path d="m19.00001 22.99997h1v1h-1z"/><path d="m21.00001 22.99997h1v1h-1z"/><path d="m23.00001 22.99997h1v1h-1z"/><path d="m25.00001 22.99997h1v1h-1z"/><path d="m27.00001 22.99997h1v1h-1z"/><path d="m29.00001 22.99997h1v1h-1z"/><path d="m2.00001 21.99997h1v1h-1z"/><path d="m4.00001 21.99997h1v1h-1z"/><path d="m6.00001 21.99997h1v1h-1z"/><path d="m8.00001 21.99997h1v1h-1z"/><path d="m10.00001 21.99997h1v1h-1z"/><path d="m12.00001 21.99997h1v1h-1z"/><path d="m14.00001 21.99997h1v1h-1z"/><path d="m16.00001 21.99997h1v1h-1z"/><path d="m18.00001 21.99997h1v1h-1z"/><path d="m20.00001 21.99997h1v1h-1z"/><path d="m22.00001 21.99997h1v1h-1z"/><path d="m24.00001 21.99997h1v1h-1z"/><path d="m26.00001 21.99997h1v1h-1z"/><path d="m28.00001 21.99997h1v1h-1z"/><path d="m3.00001 20.99997h1v1h-1z"/><path d="m5.00001 20.99997h1v1h-1z"/><path d="m7.00001 20.99997h1v1h-1z"/><path d="m9.00001 20.99997h1v1h-1z"/><path d="m11.00001 20.99997h1v1h-1z"/><path d="m13.00001 20.99997h1v1h-1z"/><path d="m15.00001 20.99997h1v1h-1z"/><path d="m17.00001 20.99997h1v1h-1z"/><path d="m19.00001 20.99997h1v1h-1z"/><path d="m21.00001 20.99997h1v1h-1z"/><path d="m23.00001 20.99997h1v1h-1z"/><path d="m25.00001 20.99997h1v1h-1z"/><path d="m27.00001 20.99997h1v1h-1z"/><path d="m29.00001 20.99997h1v1h-1z"/><path d="m2.00001 19.99997h1v1h-1z"/><path d="m4.00001 19.99997h1v1h-1z"/><path d="m6.00001 19.99997h1v1h-1z"/><path d="m8.00001 19.99997h1v1h-1z"/><path d="m10.00001 19.99997h1v1h-1z"/><path d="m12.00001 19.99997h1v1h-1z"/><path d="m14.00001 19.99997h1v1h-1z"/><path d="m16.00001 19.99997h1v1h-1z"/><path d="m18.00001 19.99997h1v1h-1z"/><path d="m20.00001 19.99997h1v1h-1z"/><path d="m22.00001 19.99997h1v1h-1z"/><path d="m24.00001 19.99997h1v1h-1z"/><path d="m26.00001 19.99997h1v1h-1z"/><path d="m28.00001 19.99997h1v1h-1z"/><path d="m3.00001 18.99997h1v1h-1z"/><path d="m5.00001 18.99997h1v1h-1z"/><path d="m7.00001 18.99997h1v1h-1z"/><path d="m9.00001 18.99997h1v1h-1z"/><path d="m11.00001 18.99997h1v1h-1z"/><path d="m13.00001 18.99997h1v1h-1z"/><path d="m15.00001 18.99997h1v1h-1z"/><path d="m17.00001 18.99997h1v1h-1z"/><path d="m19.00001 18.99997h1v1h-1z"/><path d="m21.00001 18.99997h1v1h-1z"/><path d="m23.00001 18.99997h1v1h-1z"/><path d="m25.00001 18.99997h1v1h-1z"/><path d="m27.00001 18.99997h1v1h-1z"/><path d="m29.00001 18.99997h1v1h-1z"/><path d="m2.00001 17.99997h1v1h-1z"/><path d="m4.00001 17.99997h1v1h-1z"/><path d="m6.00001 17.99997h1v1h-1z"/><path d="m8.00001 17.99997h1v1h-1z"/><path d="m10.00001 17.99997h1v1h-1z"/><path d="m12.00001 17.99997h1v1h-1z"/><path d="m14.00001 17.99997h1v1h-1z"/><path d="m16.00001 17.99997h1v1h-1z"/><path d="m18.00001 17.99997h1v1h-1z"/><path d="m20.00001 17.99997h1v1h-1z"/><path d="m22.00001 17.99997h1v1h-1z"/><path d="m24.00001 17.99997h1v1h-1z"/><path d="m26.00001 17.99997h1v1h-1z"/><path d="m28.00001 17.99997h1v1h-1z"/><path d="m3.00001 16.99997h1v1h-1z"/><path d="m5.00001 16.99997h1v1h-1z"/><path d="m7.00001 16.99997h1v1h-1z"/><path d="m9.00001 16.99997h1v1h-1z"/><path d="m11.00001 16.99997h1v1h-1z"/><path d="m13.00001 16.99997h1v1h-1z"/><path d="m15.00001 16.99997h1v1h-1z"/><path d="m17.00001 16.99997h1v1h-1z"/><path d="m19.00001 16.99997h1v1h-1z"/><path d="m21.00001 16.99997h1v1h-1z"/><path d="m23.00001 16.99997h1v1h-1z"/><path d="m25.00001 16.99997h1v1h-1z"/><path d="m27.00001 16.99997h1v1h-1z"/><path d="m29.00001 16.99997h1v1h-1z"/><path d="m2.00001 15.99997h1v1h-1z"/><path d="m4.00001 15.99997h1v1h-1z"/><path d="m6.00001 15.99997h1v1h-1z"/><path d="m8.00001 15.99997h1v1h-1z"/><path d="m10.00001 15.99997h1v1h-1z"/><path d="m12.00001 15.99997h1v1h-1z"/><path d="m14.00001 15.99997h1v1h-1z"/><path d="m16.00001 15.99997h1v1h-1z"/><path d="m18.00001 15.99997h1v1h-1z"/><path d="m20.00001 15.99997h1v1h-1z"/><path d="m22.00001 15.99997h1v1h-1z"/><path d="m24.00001 15.99997h1v1h-1z"/><path d="m26.00001 15.99997h1v1h-1z"/><path d="m28.00001 15.99997h1v1h-1z"/><path d="m3.00001 14.99997h1v1h-1z"/><path d="m5.00001 14.99997h1v1h-1z"/><path d="m7.00001 14.99997h1v1h-1z"/><path d="m9.00001 14.99997h1v1h-1z"/><path d="m11.00001 14.99997h1v1h-1z"/><path d="m13.00001 14.99997h1v1h-1z"/><path d="m15.00001 14.99997h1v1h-1z"/><path d="m17.00001 14.99997h1v1h-1z"/><path d="m19.00001 14.99997h1v1h-1z"/><path d="m21.00001 14.99997h1v1h-1z"/><path d="m23.00001 14.99997h1v1h-1z"/><path d="m25.00001 14.99997h1v1h-1z"/><path d="m27.00001 14.99997h1v1h-1z"/><path d="m29.00001 14.99997h1v1h-1z"/><path d="m2.00001 13.99997h1v1h-1z"/><path d="m4.00001 13.99997h1v1h-1z"/><path d="m6.00001 13.99997h1v1h-1z"/><path d="m8.00001 13.99997h1v1h-1z"/><path d="m10.00001 13.99997h1v1h-1z"/><path d="m12.00001 13.99997h1v1h-1z"/><path d="m14.00001 13.99997h1v1h-1z"/><path d="m16.00001 13.99997h1v1h-1z"/><path d="m18.00001 13.99997h1v1h-1z"/><path d="m20.00001 13.99997h1v1h-1z"/><path d="m22.00001 13.99997h1v1h-1z"/><path d="m24.00001 13.99997h1v1h-1z"/><path d="m26.00001 13.99997h1v1h-1z"/><path d="m28.00001 13.99997h1v1h-1z"/><path d="m3.00001 12.99997h1v1h-1z"/><path d="m5.00001 12.99997h1v1h-1z"/><path d="m7.00001 12.99997h1v1h-1z"/><path d="m9.00001 12.99997h1v1h-1z"/><path d="m11.00001 12.99997h1v1h-1z"/><path d="m13.00001 12.99997h1v1h-1z"/><path d="m15.00001 12.99997h1v1h-1z"/><path d="m17.00001 12.99997h1v1h-1z"/><path d="m19.00001 12.99997h1v1h-1z"/><path d="m21.00001 12.99997h1v1h-1z"/><path d="m23.00001 12.99997h1v1h-1z"/><path d="m25.00001 12.99997h1v1h-1z"/><path d="m27.00001 12.99997h1v1h-1z"/><path d="m29.00001 12.99997h1v1h-1z"/><path d="m2.00001 11.99997h1v1h-1z"/><path d="m4.00001 11.99997h1v1h-1z"/><path d="m6.00001 11.99997h1v1h-1z"/><path d="m8.00001 11.99997h1v1h-1z"/><path d="m10.00001 11.99997h1v1h-1z"/><path d="m12.00001 11.99997h1v1h-1z"/><path d="m14.00001 11.99997h1v1h-1z"/><path d="m16.00001 11.99997h1v1h-1z"/><path d="m18.00001 11.99997h1v1h-1z"/><path d="m20.00001 11.99997h1v1h-1z"/><path d="m22.00001 11.99997h1v1h-1z"/><path d="m24.00001 11.99997h1v1h-1z"/><path d="m26.00001 11.99997h1v1h-1z"/><path d="m28.00001 11.99997h1v1h-1z"/><path d="m3.00001 10.99997h1v1h-1z"/><path d="m5.00001 10.99997h1v1h-1z"/><path d="m7.00001 10.99997h1v1h-1z"/><path d="m9.00001 10.99997h1v1h-1z"/><path d="m11.00001 10.99997h1v1h-1z"/><path d="m13.00001 10.99997h1v1h-1z"/><path d="m15.00001 10.99997h1v1h-1z"/><path d="m17.00001 10.99997h1v1h-1z"/><path d="m19.00001 10.99997h1v1h-1z"/><path d="m21.00001 10.99997h1v1h-1z"/><path d="m23.00001 10.99997h1v1h-1z"/><path d="m25.00001 10.99997h1v1h-1z"/><path d="m27.00001 10.99997h1v1h-1z"/><path d="m29.00001 10.99997h1v1h-1z"/><path d="m2.00001 9.99997h1v1h-1z"/><path d="m4.00001 9.99997h1v1h-1z"/><path d="m6.00001 9.99997h1v1h-1z"/><path d="m8.00001 9.99997h1v1h-1z"/><path d="m10.00001 9.99997h1v1h-1z"/><path d="m12.00001 9.99997h1v1h-1z"/><path d="m14.00001 9.99997h1v1h-1z"/><path d="m16.00001 9.99997h1v1h-1z"/><path d="m18.00001 9.99997h1v1h-1z"/><path d="m20.00001 9.99997h1v1h-1z"/><path d="m22.00001 9.99997h1v1h-1z"/><path d="m24.00001 9.99997h1v1h-1z"/><path d="m26.00001 9.99997h1v1h-1z"/><path d="m28.00001 9.99997h1v1h-1z"/><path d="m3.00001 8.99997h1v1h-1z"/><path d="m5.00001 8.99997h1v1h-1z"/><path d="m7.00001 8.99997h1v1h-1z"/><path d="m9.00001 8.99997h1v1h-1z"/><path d="m11.00001 8.99997h1v1h-1z"/><path d="m13.00001 8.99997h1v1h-1z"/><path d="m15.00001 8.99997h1v1h-1z"/><path d="m17.00001 8.99997h1v1h-1z"/><path d="m19.00001 8.99997h1v1h-1z"/><path d="m21.00001 8.99997h1v1h-1z"/><path d="m23.00001 8.99997h1v1h-1z"/><path d="m25.00001 8.99997h1v1h-1z"/><path d="m27.00001 8.99997h1v1h-1z"/><path d="m29.00001 8.99997h1v1h-1z"/><path d="m2.00001 7.99997h1v1h-1z"/><path d="m4.00001 7.99997h1v1h-1z"/><path d="m6.00001 7.99997h1v1h-1z"/><path d="m8.00001 7.99997h1v1h-1z"/><path d="m10.00001 7.99997h1v1h-1z"/><path d="m12.00001 7.99997h1v1h-1z"/><path d="m14.00001 7.99997h1v1h-1z"/><path d="m16.00001 7.99997h1v1h-1z"/><path d="m18.00001 7.99997h1v1h-1z"/><path d="m20.00001 7.99997h1v1h-1z"/><path d="m22.00001 7.99997h1v1h-1z"/><path d="m24.00001 7.99997h1v1h-1z"/><path d="m26.00001 7.99997h1v1h-1z"/><path d="m28.00001 7.99997h1v1h-1z"/><path d="m3.00001 6.99997h1v1h-1z"/><path d="m5.00001 6.99997h1v1h-1z"/><path d="m7.00001 6.99997h1v1h-1z"/><path d="m9.00001 6.99997h1v1h-1z"/><path d="m11.00001 6.99997h1v1h-1z"/><path d="m13.00001 6.99997h1v1h-1z"/><path d="m15.00001 6.99997h1v1h-1z"/><path d="m17.00001 6.99997h1v1h-1z"/><path d="m19.00001 6.99997h1v1h-1z"/><path d="m21.00001 6.99997h1v1h-1z"/><path d="m23.00001 6.99997h1v1h-1z"/><path d="m25.00001 6.99997h1v1h-1z"/><path d="m27.00001 6.99997h1v1h-1z"/><path d="m29.00001 6.99997h1v1h-1z"/><path d="m2.00001 5.99997h1v1h-1z"/><path d="m4.00001 5.99997h1v1h-1z"/><path d="m6.00001 5.99997h1v1h-1z"/><path d="m8.00001 5.99997h1v1h-1z"/><path d="m10.00001 5.99997h1v1h-1z"/><path d="m12.00001 5.99997h1v1h-1z"/><path d="m14.00001 5.99997h1v1h-1z"/><path d="m16.00001 5.99997h1v1h-1z"/><path d="m18.00001 5.99997h1v1h-1z"/><path d="m20.00001 5.99997h1v1h-1z"/><path d="m22.00001 5.99997h1v1h-1z"/><path d="m24.00001 5.99997h1v1h-1z"/><path d="m26.00001 5.99997h1v1h-1z"/><path d="m28.00001 5.99997h1v1h-1z"/><path d="m3.00001 4.99997h1v1h-1z"/><path d="m5.00001 4.99997h1v1h-1z"/><path d="m7.00001 4.99997h1v1h-1z"/><path d="m9.00001 4.99997h1v1h-1z"/><path d="m11.00001 4.99997h1v1h-1z"/><path d="m13.00001 4.99997h1v1h-1z"/><path d="m15.00001 4.99997h1v1h-1z"/><path d="m17.00001 4.99997h1v1h-1z"/><path d="m19.00001 4.99997h1v1h-1z"/><path d="m21.00001 4.99997h1v1h-1z"/><path d="m23.00001 4.99997h1v1h-1z"/><path d="m25.00001 4.99997h1v1h-1z"/><path d="m27.00001 4.99997h1v1h-1z"/><path d="m29.00001 4.99997h1v1h-1z"/></g></svg>