<svg height="32" viewBox="0 0 32 32" width="32" xmlns="http://www.w3.org/2000/svg"><path d="m2 4c-.554 0-1 .446-1 1v22c0 .554.446 1 1 1h28c.554 0 1-.446 1-1v-22c0-.554-.446-1-1-1zm0 1h28v22h-28z" fill="#3a3a38"/><path d="m2 5h28v22h-28z" fill="#fafafa"/><g fill="#1e8bcd"><g fill-rule="evenodd"><path d="m8.57201 13.94802-2.19068-.44829-.51763-1.93185 1.67303-1.48356 2.19067.44828.51764 1.93186z"/><path d="m12.43571 12.91275-2.19067-.44828-.51764-1.93186 1.67303-1.48356 2.19067.44829.51764 1.93185z"/><path d="m16.29942 11.87748-2.19067-.44829-.51764-1.93185 1.67304-1.48357 2.19067.44829.51763 1.93185z"/><path d="m15.14402 15.29289-2.19067-.44829-.51764-1.93185 1.67303-1.48356 2.19067.44829.51764 1.93185z"/><path d="m19.00772 14.25762-2.19067-.44829-.51764-1.93185 1.67303-1.48357 2.19068.44829.51763 1.93185z"/><path d="m10.12493 19.74358-2.19067-.44828-.51764-1.93186 1.67303-1.48356 2.19067.44829.51764 1.93185z"/><path d="m13.98863 18.70831-2.19067-.44829-.51764-1.93185 1.67304-1.48357 2.19067.44829.51764 1.93185z"/><path d="m17.85233 17.67302-2.19067-.44829-.51764-1.93185 1.67303-1.48356 2.19067.44829.51764 1.93185z"/><path d="m12.83324 22.12372-2.19067-.44828-.51764-1.93186 1.67303-1.48356 2.19067.44829.51764 1.93185z"/><path d="m16.69693 21.08845-2.19067-.44829-.51764-1.93185 1.67304-1.48357 2.19067.44829.51763 1.93185z"/><path d="m21.71604 16.63776-2.19067-.44829-.51764-1.93185 1.67303-1.48357 2.19067.44829.51764 1.93185z"/><path d="m22.87142 13.22234-2.19067-.44829-.51763-1.93185 1.67303-1.48356 2.19067.44828.51764 1.93186z"/><path d="m20.16312 10.84219-2.19068-.44829-.51763-1.93185 1.67303-1.48356 2.19067.44829.51764 1.93185z"/><path d="m8.96953 23.15899-2.19068-.44829-.51763-1.93185 1.67303-1.48356 2.19067.44828.51764 1.93186z"/><path d="m7.41662 17.36344-2.19067-.44828-.51764-1.93185 1.67303-1.48357 2.19068.44829.51763 1.93185z"/><path d="m24.02682 9.80693-2.19067-.44829-.51763-1.93185 1.67303-1.48356 2.19067.44828.51764 1.93186z"/><path d="m6.26122 20.77886-2.19068-.44829-.51763-1.93185 1.67303-1.48356 2.19067.44828.51764 1.93186z"/><path d="m4.70831 14.98331-2.19068-.44829-.51763-1.93185 1.67303-1.48356 2.19067.44828.51764 1.93186z"/><path d="m26.73513 12.18705-2.19068-.44829-.51763-1.93185 1.67303-1.48356 2.19067.44828.51764 1.93186z"/><path d="m25.57974 15.60247-2.19068-.44829-.51763-1.93185 1.67303-1.48356 2.19067.44828.51764 1.93186z"/><path d="m11.67784 25.53913-2.19068-.44829-.51763-1.93185 1.67303-1.48356 2.19067.44828.51764 1.93186z"/><path d="m15.54154 24.50385-2.19068-.44829-.51763-1.93185 1.67303-1.48356 2.19067.44828.51764 1.93186z"/></g><path d="m16 10.24219v1.99414a6.0000001 6.0000001 0 0 1 3.28906.94531 6.0000001 6.0000001 0 0 1 1.81641 8.28906l1.68555 1.07813a8.0000001 8.0000001 0 0 0 -2.42383-11.05078 8.0000001 8.0000001 0 0 0 -4.36719-1.25586z"/><path d="m24.47497 23.62696-5.05311-3.23513.90899 4.14413z" fill-rule="evenodd"/></g></svg>