<svg height="18" viewBox="0 0 140 18" width="140" xmlns="http://www.w3.org/2000/svg"><g fill="#3a3a38"><path d="m5 8h2v2h-2z"/><path d="m9 8h2v2h-2z"/><path d="m13 8h2v2h-2z"/><path d="m17 8h2v2h-2z"/><path d="m21 8h2v2h-2z"/><path d="m25 8h2v2h-2z"/><path d="m29 8h2v2h-2z"/><path d="m33 8h2v2h-2z"/><path d="m37 8h2v2h-2z"/><path d="m41 8h2v2h-2z"/><path d="m45 8h2v2h-2z"/><path d="m49 8h2v2h-2z"/><path d="m53 8h2v2h-2z"/><path d="m57 8h2v2h-2z"/><path d="m61 8h2v2h-2z"/><path d="m65 8h2v2h-2z"/><path d="m69 8h2v2h-2z"/><path d="m73 8h2v2h-2z"/><path d="m77 8h2v2h-2z"/><path d="m81 8h2v2h-2z"/><path d="m85 8h2v2h-2z"/><path d="m89 8h2v2h-2z"/><path d="m93 8h2v2h-2z"/><path d="m97 8h2v2h-2z"/><path d="m101 8h2v2h-2z"/><path d="m105 8h2v2h-2z"/><path d="m109 8h2v2h-2z"/><path d="m113 8h2v2h-2z"/><path d="m117 8h2v2h-2z"/><path d="m121 8h2v2h-2z"/><path d="m125 8h2v2h-2z"/><path d="m129 8h2v2h-2z"/><path d="m133 8h2v2h-2z"/></g></svg>