<svg viewBox="0 0 24 24" xmlns="http://www.w3.org/2000/svg"><path d="m14 6v16h1v-8h2v-1h-2v-7zm-13 1v1h9c0 6-4 12-9 12v1c6 0 10-6 10-13.542969v-.457031z" fill="#3a3a38" fill-rule="evenodd"/><path d="m19.5039 12.000005c-.0021 0-.0037-.0019-.0059-.002.000026-.0021.002-.0037.002-.0059-.06645 0-.1296-.01377-.1875-.03711-.06278-.0253-.119006-.06236-.166016-.109375l-2.996093-3.00577c-.09793-.09793-.146485-.2276607-.146485-.3554687 0-.127809.04856-.2555756.146485-.3535156.195869-.195868.513115-.195868.708984 0l2.140619 2.1542963v-8.7929696c0-.276999.223-.49999996.5-.49999996.0013 0 .0026-.00001.0039 0v.0078c.277 0 .5.22300196.5.49999996v8.7929816l2.140625-2.1542967c.195869-.195868.513116-.195868.708985 0 .09794.09794.14649.2257066.14649.3535156 0 .127808-.04855.2575387-.146484.3554688l-2.996094 3.0058593c-.04701.04702-.103236.08407-.166016.109375-.0579.02334-.12105.03711-.1875.03711z" fill="#1e8bcd"/></svg>