<svg viewBox="0 0 24 24" xmlns="http://www.w3.org/2000/svg"><path d="m16 0v18h2v-8h3v-2h-3v-8zm-13 2v2h9c-.04685 2.0069373-.305397 3.736991-1.188129 5.793267-1.1102766 2.586331-3.8447369 5.208761-7.811871 5.206733v2c5.0328659.0026 8.129205-2.940467 9.550781-6.251953 1.421577-3.311487 1.515879-4.9820261 1.449219-7.2910158v-1.4570312z" fill="#3a3a38" fill-rule="evenodd"/><g fill="#1e8bcd"><path d="m18.484369 15c.125183-.0077.258789.03681.376953.154297l2.904297 2.90625c.141888.136779.236365.258099.234375.439453.002.181354-.09249.302674-.234375.439453l-2.904297 2.90625c-.472656.469951-1.177734-.239033-.705078-.708984l2.128906-2.132813h-6.759765c-.287625.014834-.52821-.215913-.525391-.503906-.0028-.287993.237766-.518736.525391-.503906h6.759765l-2.128906-2.132813c-.354492-.352463-.04742-.840111.328125-.863281z" transform="translate(1 1)"/><path d="m18.484369 15c.125183-.0077.258789.03681.376953.154297l2.904297 2.90625c.141888.136779.236365.258099.234375.439453.002.181354-.09249.302674-.234375.439453l-2.904297 2.90625c-.472656.469951-1.177734-.239033-.705078-.708984l2.128906-2.132813h-6.759765c-.287625.014834-.52821-.215913-.525391-.503906-.0028-.287993.237766-.518736.525391-.503906h6.759765l-2.128906-2.132813c-.354492-.352463-.04742-.840111.328125-.863281z" transform="matrix(-1 0 0 1 22.999994 1)"/></g></svg>