<svg viewBox="0 0 16 16" xmlns="http://www.w3.org/2000/svg">/&amp;amp;amp;amp;gt;<path d="m8 0v7.2851562c.9567179-.7959986 2.174504-1.283584 3.498047-1.2851562.0013-.0000025.0026-.0000025.0039 0 .521789.00112 1.020061.099796 1.498047.2617188v-1.2617188h-2.412103-.587891v-5zm-8 1v2h5c0 3.5-1 6-5 7v2c6-1 7-3.9999999 7-9.5429688v-1.4570312z" fill="#3a3a38"/><path d="m11.5 6.9999999c-2.2897564.00272-4.212381 1.72442-4.4667969 4.0000001h1.0078125c.2482706-1.7200824 1.721079-2.9974589 3.4589844-3.0000001 1.349002.00308 2.576155.7811616 3.154297 2h-1.154297c-.277 0-.5.2230001-.5.5000001s.223.5.5.5h2c.277 0 .5-.223.5-.5v-2.0000001-1c0-.277-.223-.5-.5-.5s-.5.223-.5.5v1 .1835938c-.851968-1.0616918-2.138739-1.6806629-3.5-1.6835938zm-4 5.0000001c-.277 0-.5.223-.5.5v2 1c0 .277.223.5.5.5s.5-.223.5-.5v-1-.183594c.8519683 1.061692 2.138739 1.680663 3.5 1.683594 2.289756-.0027 4.212381-1.72442 4.466797-4h-1.007813c-.248271 1.720082-1.721079 2.997459-3.458984 3-1.349002-.00308-2.5761554-.781162-3.1542969-2h1.1542969c.277 0 .5-.223.5-.5s-.223-.5-.5-.5z" fill="#1e8bcd"/></svg>