<svg height="52" viewBox="0 0 60 52" width="60" xmlns="http://www.w3.org/2000/svg"><path d="m0 0h60v52h-60z" fill="#fafafa"/><path d="m14 37-12 12" fill="none" stroke="#3a3a38"/><path d="m13 37h46v.9874h-46z" fill="#3a3a38"/><path d="m13 2h1v36h-1z" fill="#3a3a38"/><g fill="#1e8bcd"><path d="m33 22-20-12 3-3 20 12z" fill-rule="evenodd" opacity=".9"/><path d="m51 13v30l3-3v-30z" fill-rule="evenodd" opacity=".8"/><path d="m13 10 20 12 18-9v30h-38z"/></g><path d="m46 22v25l3-3v-25z" fill="#fb983b" fill-rule="evenodd" opacity=".8"/><path d="m51 13-18 9 3-3 18-9z" fill="#1e8bcd" fill-rule="evenodd" opacity=".7"/><g fill="#fb983b"><path d="m28 32-20-7 3-3 20 7z" fill-rule="evenodd" opacity=".9"/><path d="m8 25 20 7 18-10v25h-38z"/><path d="m46 22-18 10 3-3 18-10z" fill-rule="evenodd" opacity=".7"/></g></svg>