<svg height="52" viewBox="0 0 60 52" width="60" xmlns="http://www.w3.org/2000/svg"><path d="m0 0h60v52h-60z" fill="#fafafa"/><path d="m12 40-9 9" fill="none" stroke="#3a3a38"/><path d="m11 40.0062h46v.9874h-46z" fill="#3a3a38"/><path d="m11 1h1v40h-1z" fill="#3a3a38"/><path d="m31 9h-26l3-3h26z" fill="#fb983b" fill-rule="evenodd" opacity=".7"/><path d="m31 9v15h-26v-15z" fill="#fb983b"/><path d="m47 29v16h-33v-16z" fill="#1e8bcd"/><path d="m14 29h-9l3-3h9z" fill="#fb983b" fill-rule="evenodd" opacity=".7"/><path d="m47 29v16l3-3v-16z" fill="#1e8bcd" fill-rule="evenodd" opacity=".8"/><path d="m14 29v16h-9v-16z" fill="#fb983b"/><g fill="#1e8bcd"><path d="m47 9v15l3-3v-15z" fill-rule="evenodd" opacity=".8"/><path d="m47 9v15h-16v-15z"/><g fill-rule="evenodd"><path d="m47 9h-16l3-3h16z" opacity=".7"/><path d="m47 29h-33l3-3h33z" opacity=".7"/></g></g><g fill="#fafafa"><path d="m39 12.4999a2 2 0 0 0 -2 2 2 2 0 0 0 2 2 2 2 0 0 0 2-2 2 2 0 0 0 -2-2zm0 1a1 1 0 0 1 1 1 1 1 0 0 1 -1 1 1 1 0 0 1 -1-1 1 1 0 0 1 1-1z"/><path d="m43 16.4999a2 2 0 0 0 -2 2 2 2 0 0 0 2 2 2 2 0 0 0 2-2 2 2 0 0 0 -2-2zm0 1a1 1 0 0 1 1 1 1 1 0 0 1 -1 1 1 1 0 0 1 -1-1 1 1 0 0 1 1-1z"/><path d="m43.59961 12.2002-6 8 .80078.5996 6-8z" fill-rule="evenodd"/></g></svg>