<svg height="52" viewBox="0 0 60 52" width="60" xmlns="http://www.w3.org/2000/svg"><path d="m0 0h60v52h-60z" fill="#fafafa"/><path d="m12 40-9 9" fill="none" stroke="#3a3a38"/><path d="m11 40.0062h46v.9874h-46z" fill="#3a3a38"/><path d="m11 1h1v40h-1z" fill="#3a3a38"/><path d="m14 10h-9l3-3h9z" fill="#fb983b" fill-rule="evenodd" opacity=".7"/><path d="m31 30v15h-26v-15z" fill="#fb983b"/><path d="m47 30v15h-16v-15z" fill="#1e8bcd"/><path d="m31 30h-26l3-3h26z" fill="#fb983b" fill-rule="evenodd" opacity=".7"/><path d="m47 30v15l3-3v-15z" fill="#1e8bcd" fill-rule="evenodd" opacity=".8"/><path d="m14 10v15h-9v-15z" fill="#fb983b"/><g fill="#1e8bcd"><path d="m30 10v15l3-3v-15z" fill-rule="evenodd" opacity=".8"/><path d="m30 10v15h-16v-15z"/><g fill-rule="evenodd"><path d="m30 10h-16l3-3h16z" opacity=".7"/><path d="m47 30h-16l3-3h16z" opacity=".7"/></g></g></svg>