<svg height="52" viewBox="0 0 60 52" width="60" xmlns="http://www.w3.org/2000/svg"><path d="m0 0h60v52h-60z" fill="#fafafa"/><path d="m12 40-9 9" fill="none" stroke="#3a3a38"/><path d="m11 40.0062h46v.9874h-46z" fill="#3a3a38"/><path d="m11 3h1v38h-1z" fill="#3a3a38"/><path d="m15.999998 24-4.955078 18.75c-.02803.083-.04303.1664-.04492.25 0 1.1046 2.238576 2 5 2s5-.8954 5-2c-.0021-.083-.0171-.1658-.04492-.248z" fill="#fb983b"/><path d="m41 14-4.955078 28.75c-.02803.083-.04303.1664-.04492.25 0 1.1046 2.238576 2 5 2s5-.8954 5-2c-.0021-.083-.0171-.1658-.04492-.248z" fill="#fb983b"/><g fill="#1e8bcd"><path d="m51 5-4.955078 37.75c-.02803.083-.04303.1664-.04492.25 0 1.1046 2.238576 2 5 2s5-.8954 5-2c-.0021-.083-.0171-.1658-.04492-.248z"/><path d="m25.999998 17-4.955078 25.75c-.02803.083-.04303.1664-.04492.25 0 1.1046 2.238576 2 5 2s5-.8954 5-2c-.0021-.083-.0171-.1658-.04492-.248z"/></g></svg>