<svg height="52" viewBox="0 0 60 52" width="60" xmlns="http://www.w3.org/2000/svg"><path d="m0 0h60v52h-60z" fill="#fafafa"/><path d="m20.8125 16.8125a13 13 0 0 0 -3.8125 9.1875 13 13 0 0 0 13 13 13 13 0 0 0 13-13 13 13 0 0 0 -3.8125-9.1875l-5.654297 5.6543a5 5 0 0 1 1.466797 3.5332 5 5 0 0 1 -5 5 5 5 0 0 1 -5-5 5 5 0 0 1 1.466797-3.5332zm-2.388672 1.3359c-.02546.038-.05305.074-.07813.1114a14 14 0 0 1 .07813-.1114zm-.644531 1.0567c-.04945.089-.104866.1739-.152344.2637a14 14 0 0 1 .152344-.2637zm-.566406 1.1406c-.05713.1289-.120618.2542-.173829.3848a14 14 0 0 1 .173829-.3848zm-.484375 1.25c-.0494.1484-.102059.2953-.146485.4453a14 14 0 0 1 .146485-.4453zm-.353516 1.2637c-.04231.1827-.08805.3642-.123047.5488a14 14 0 0 1 .123047-.5488zm-.240234 1.3242c-.02681.2029-.0563.4048-.07422.6094a14 14 0 0 1 .07422-.6094zm27.804687 3.0176a14 14 0 0 1 -.08984.7363c.03391-.2443.06871-.4882.08984-.7363zm-.1875 1.375a14 14 0 0 1 -.179687.8027c.06593-.2656.129166-.5314.179687-.8027zm-27.472656.2051c.08492.4213.194879.8335.316406 1.2402a14 14 0 0 1 -.316406-1.2402zm.316406 1.2402a14 14 0 0 0 .0957.2949c-.03184-.099-.06599-.1955-.0957-.2949zm.0957.2949c.105154.3253.219825.6446.347656.959a14 14 0 0 1 -.347656-.959zm.347656.959a14 14 0 0 0 .115235.2812c-.04016-.093-.07705-.1873-.115235-.2812zm.115235.2812c.17002.3932.35226.7809.556641 1.1543a14 14 0 0 1 -.556641-1.1543zm26.285156-1.6601a14 14 0 0 1 -.289062.8691c.103956-.2867.203652-.574.289062-.8691zm-.447265 1.3027a14 14 0 0 1 -.384766.8574c.135701-.2819.267781-.5654.384766-.8574zm-.578126 1.2598a14 14 0 0 1 -.441406.7715c.153354-.2534.304001-.508.441406-.7715zm-24.675781.293c.21514.3899.447158.7687.697266 1.1347a14 14 0 0 1 -.697266-1.1347zm23.964844.9218a14 14 0 0 1 -.474609.6621c.162034-.2179.325206-.4347.474609-.6621zm-23.111328.4239c.212115.2982.429789.5927.664062.873a14 14 0 0 1 -.664062-.873zm22.292969.6972a14 14 0 0 1 -.544922.6211c.185714-.2038.371358-.4065.544922-.6211zm-21.310547.5254c.200564.2242.398837.4493.613281.6602a14 14 0 0 1 -.613281-.6602zm20.40625.4922a14 14 0 0 1 -.660157.6133c.22421-.2006.449305-.3989.660157-.6133zm-19.396485.5273c.203828.1858.406528.3714.621094.545a14 14 0 0 1 -.621094-.545zm18.386719.4043a14 14 0 0 1 -.873047.6641c.29829-.2121.592731-.4298.873047-.6641zm-17.306641.4844c.217909.162.434717.3252.66211.4746a14 14 0 0 1 -.66211-.4746zm16.222657.336a14 14 0 0 1 -1.134766.6972c.389869-.2151.768729-.447 1.134766-.6972zm-15.117188.4082c.25337.1533.507942.304.771485.4414a14 14 0 0 1 -.771485-.4414zm13.941407.3164a14 14 0 0 1 -1.154297.5566c.393162-.17.780811-.3523 1.154297-.5566zm-1.154297.5566c-.09286.04-.187358.077-.28125.1152a14 14 0 0 0 .28125-.1152zm-.28125.1152a14 14 0 0 1 -.958985.3477c.32526-.1052.644643-.2198.958985-.3477zm-.958985.3477c-.0985.032-.195477.066-.294922.096a14 14 0 0 0 .294922-.096zm-.294922.096a14 14 0 0 1 -1.240234.3164c.421338-.085.833532-.1949 1.240234-.3164zm-10.078122-.7969c.281897.1357.565423.2678.857422.3848a14 14 0 0 1 -.857422-.3848zm1.291016.543c.286702.1039.574066.2037.869141.2891a14 14 0 0 1 -.869141-.2891zm1.386719.4219c.265571.066.531418.1292.802734.1797a14 14 0 0 1 -.802734-.1797zm1.441406.2773c.244289.034.488178.069.736328.09a14 14 0 0 1 -.736328-.09z" fill="#fb983b"/><path d="m31.103516 12.0488a14 14 0 0 1 .501953.061 14 14 0 0 0 -.501953-.061zm1.412109.1856a14 14 0 0 1 .410156.092 14 14 0 0 0 -.410156-.092zm1.361328.3203a14 14 0 0 1 .371094.123 14 14 0 0 0 -.371094-.123zm-3.876953.4453a13 13 0 0 0 -9.1875 3.8125l5.654297 5.6543a5 5 0 0 1 3.533203-1.4668 5 5 0 0 1 3.533203 1.4668l5.654297-5.6543a13 13 0 0 0 -9.1875-3.8125zm5.226562.019a14 14 0 0 1 .214844.098 14 14 0 0 0 -.214844-.098zm1.263672.584a14 14 0 0 1 .22461.1289 14 14 0 0 0 -.22461-.1289z" fill="#1e8bcd"/><path d="m39 4.0843a23 23 0 0 0 -17.243239 1.3092 23 23 0 0 0 -11.196136 12.3399l7.58689 2.5498a15 15 0 0 1 7.170086-7.7237 15 15 0 0 1 20.107655 6.7579 15 15 0 0 1 -6.757885 20.1077 15 15 0 0 1 -10.490677 1.0568l-2.544224 7.5701a23 23 0 0 0 16.594498-1.4634 23 23 0 0 0 10.362395-30.8327 23 23 0 0 0 -13.589363-11.6716zm-29.4305656 16.8497a23 23 0 0 0 -.3307342 1.8608 23 23 0 0 1 .3307342-1.8608zm-.396611 2.2775a23 23 0 0 0 -.132141 1.7419 23 23 0 0 1 .132141-1.7419zm-.1663017 2.3095a23 23 0 0 0 .040516 1.5962 23 23 0 0 1 -.040516-1.5962zm.069608 2.325a23 23 0 0 0 .1884101 1.487 23 23 0 0 1 -.1884101-1.487zm.3043621 2.3069a23 23 0 0 0 .3165056 1.3757 23 23 0 0 1 -.3165056-1.3757zm.5287 2.2341a23 23 0 0 0 .4316562 1.2783 23 23 0 0 1 -.4316562-1.2783zm.7548802 2.1988a23 23 0 0 0 .644306 1.4487 23 23 0 0 1 -.644306-1.4487z" fill="#1e8bcd"/><path d="m5.5514567 21.2966a23 23 0 0 0 -.220066 1.0787 23 23 0 0 0 -.044464.2285 23 23 0 0 0 -.2033672 2.0126 23 23 0 0 0 -.025355.2798 23 23 0 0 0 -.0036 1.8782 23 23 0 0 0 .00727.4515 23 23 0 0 0 .1678697 1.7205 23 23 0 0 0 .068035.5841 23 23 0 0 0 .3188382 1.5879 23 23 0 0 0 .1461032.6806 23 23 0 0 0 .4485315 1.4438 23 23 0 0 0 .2446438.7602 23 23 0 0 0 .5633533 1.3341 23 23 0 0 0 .3481567.797 23 23 0 0 0 .8582793 1.6071 23 23 0 0 0 13.1274578 10.2588l1.985508-7.7457a15 15 0 0 1 -8.227961-6.5853 15 15 0 0 1 -1.819241-10.3884l-7.7399844-1.984z" fill="#fb983b" fill-rule="evenodd"/></svg>