<svg viewBox="0 0 24 24" xmlns="http://www.w3.org/2000/svg"><path d="m12 17.2c0 .4432-.446.8-1 .8h-6c-.554 0-1-.3568-1-.8v-2.4c0-.4432.446-.8 1-.8h6c.554 0 1 .3568 1 .8z" fill="#3a3a38"/><path d="m14 7c0 .554-.446 1-1 1h-8c-.554 0-1-.446-1-1v-2c0-.554.446-1 1-1h8c.554 0 1 .446 1 1z" fill="#1e8bcd"/><g transform="matrix(0 -1 -1 0 0 0)"><rect fill="#fb983b" height="14" ry="1" width="4" x="-13" y="-18"/><g fill="#3a3a38"><rect height="1" ry=".5" width="20" x="-22" y="-5"/><rect height="20" ry=".5" width="1" x="-20" y="-22"/></g></g></svg>