<svg height="52" viewBox="0 0 60 52" width="60" xmlns="http://www.w3.org/2000/svg"><path d="m0 0h60v52h-60z" fill="#fafafa"/><path d="m3 45h52v1h-52z" fill="#3a3a38"/><path d="m6 3h1v46h-1z" fill="#3a3a38"/><g fill="#1e8bcd"><path d="m14.285714 7.9554 14.410714-4.9777-2.977678 2.9554-14.433036 5.0223z" opacity=".7"/><path d="m28.669643 2.933 14.946429 29.7321-3.044643 3.134-14.901786-29.8661z" opacity=".8"/><path d="m43.580357 32.6429 10.772321-8.6607-3.200892 3.2902-10.616072 8.5491z" opacity=".7"/></g><g fill="#fb983b"><path d="m44.294643 5.9465 10.579473 6.1556-3.157836 3.0947-10.421637-6.2503z" opacity=".7"/><path d="m23.446429 26.7946 20.838835-20.866-2.842164 3.0632-20.996671 20.8028z" opacity=".8"/><path d="m14.820749 18.1894 8.748572 8.6494-3.12627 3.2526-8.622302-8.902z" opacity=".7"/></g><g fill="none"><path d="m11.49996 11.4 14-4.9998 15 30 11.00004-8.9002" stroke="#1e8bcd"/><path d="m11.499553 21.4996 9 9 21.000447-20.9996 9.999553 5.9996" stroke="#fb983b"/></g></svg>