<svg height="52" viewBox="0 0 60 52" width="60" xmlns="http://www.w3.org/2000/svg"><path d="m0 0h60v52h-60z" fill="#fafafa"/><path d="m3 45h52v1h-52z" fill="#3a3a38"/><path d="m6 3h1v46h-1z" fill="#3a3a38"/><g fill="#1e8bcd"><path d="m14.191012 8.3026c2.67049-1.7827 2.499239-3.224 14.505416-5.3249l-2.977678 2.9554c-5.352462.2904-9.796702 2.9018-14.433036 5.0223z" opacity=".7"/><path d="m28.636161 3c.296617.056.64829.8063.798395 1.1128 4.785238 9.7691 8.4813 21.6967 14.181516 28.5523l-3.044643 3.134c-5.004531 2.1235-7.727959-16.6976-11.550626-25.4257l-3.35116-4.4404z" opacity=".8"/><path d="m43.580357 32.6429c2.052547.8045 4.523334-3.083 7.426191-5.2199l.145238.1651c-4.084418 10.178-7.65624 9.2284-10.928572 8.5013z" opacity=".7"/></g><g fill="#fb983b"><path d="m44.294643 5.9465c5.607757 1.2825 8.725065 5.0447 10.674175 7.513l-3.126269 1.9267c-2.509271-2.9346-5.23644-5.9777-10.547906-6.4397z" opacity=".7"/><path d="m20.433036 30.2321c.951511-.5147 1.602952-.1216 2.352266-.8031.831671-.7564 1.68831-1.1758 2.44683-1.9476 10.039671-10.2147 13.887561-21.6635 19.053132-21.5528l-2.842164 3.0632-3.681662 2.42c-5.771669 6.2147-11.543339 13.1412-17.315009 18.3828z" opacity=".8"/><path d="m15.776084 19.4088 7.793237 7.43-3.12627 3.2526c-5.538474-.169-7.407492-4.0075-8.466052-8.6565z" opacity=".7"/></g><g fill="none"><path d="m11.49996 11.4s6.513892-8.0078 14-4.9998 7.23191 28.3163 15 30 11.00004-8.9002 11.00004-8.9002" stroke="#1e8bcd"/><path d="m11.499553 21.4996s1.928927 8.9999 9 9 14.158785-20.1574 21.000447-20.9996 9.999553 5.9996 9.999553 5.9996" stroke="#fb983b"/></g></svg>