<svg height="52" viewBox="0 0 60 52" width="60" xmlns="http://www.w3.org/2000/svg"><path d="m0 0h60v52h-60z" fill="#fafafa"/><path d="m3 45h52v1h-52z" fill="#3a3a38"/><path d="m6 3h1v46h-1z" fill="#3a3a38"/><g fill="#1e8bcd"><path d="m11 11h15v1h-15z"/><path d="m25 6h1v5h-1z"/><path d="m36 6h1v31h-1z"/><path d="m26 6h11v1h-11z"/><path d="m37 36h15v1h-15z"/><path d="m51 27h1v9h-1z"/></g><g fill="#fb983b"><path d="m11 21h10v1h-10z"/><path d="m20 22h1v9h-1z"/><path d="m41 9h11v1h-11z"/><path d="m51 9h1v7h-1z"/></g><g fill-rule="evenodd"><path d="m51 36h-14l3-3h11z" fill="#1e8bcd" opacity=".7"/><path d="m42 10v21l3-3v-18z" fill="#fb983b" opacity=".8"/><path d="m37 6v30l3-3v-30z" fill="#1e8bcd" opacity=".8"/><g fill="#fb983b"><path d="m41 30h-20l3-3h17z" opacity=".7"/><path d="m21 21v9l3-3v-9z" opacity=".8"/><path d="m52 9v7l3-3v-7z" opacity=".8"/></g><g fill="#1e8bcd"><path d="m37 6h-12l3-3h12z" opacity=".7"/><path d="m25 11h-14l3-3h11z" opacity=".7"/><path d="m26 7v5l3-3v-2z" opacity=".8"/><path d="m52 27v10l3-3v-7z" opacity=".8"/></g><g fill="#fb983b"><path d="m21 21h-10l3-3h10z" opacity=".7"/><path d="m52 9h-11l3-3h11z" opacity=".7"/></g></g><g fill="#fb983b"><path d="m21 30h21v1h-21z"/><path d="m41 9h1v22h-1z"/></g></svg>