<svg height="52" viewBox="0 0 60 52" width="60" xmlns="http://www.w3.org/2000/svg"><path d="m0 0h60v52h-60z" fill="#fafafa"/><path d="m12 40-9 9" fill="none" stroke="#3a3a38"/><path d="m11 40.0062h46v.9874h-46z" fill="#3a3a38"/><path d="m11 1h1v40h-1z" fill="#3a3a38"/><g fill="#1e8bcd"><path d="m48 37-43 8v-15z"/><path d="m39 18-34 7v-15z"/><g fill-rule="evenodd"><path d="m39 18-34-8 3-3z" opacity=".7"/><path d="m48 37-43-7 3-3z" opacity=".7"/></g></g><g fill="#fb983b"><path d="m5 10v15l9-1.853516v-11.029296z"/><path d="m8 7-3 3 9.003734 2.139897 2.115407-2.2590376z" fill-rule="evenodd" opacity=".7"/><path d="m5 30v15l26-4.837891v-5.929687z"/><path d="m8 27-3 3 26.013672 4.231864 1.424944-1.137556z" fill-rule="evenodd" opacity=".7"/></g></svg>