<svg height="52" viewBox="0 0 60 52" width="60" xmlns="http://www.w3.org/2000/svg"><path d="m0 0h60v52h-60z" fill="#fafafa"/><path d="m12 40-9 9" fill="none" stroke="#3a3a38"/><path d="m11 40.0062h46v.9874h-46z" fill="#3a3a38"/><path d="m11 3h1v38h-1z" fill="#3a3a38"/><path d="m15 16 3 29h-8z" fill="#fb983b"/><path d="m37 15 3 30h-8z" fill="#fb983b"/><g fill-rule="evenodd"><path d="m23 9 3 36 3-3z" fill="#1e8bcd" opacity=".8"/><path d="m45 24 3 21 3-3z" fill="#1e8bcd" opacity=".8"/><g fill="#fb983b"><path d="m37 15 3 30 3-3z" opacity=".8"/><path d="m15 16 3 29 3-3z" opacity=".8"/></g></g><g fill="#1e8bcd"><path d="m23 9 3 36h-8z"/><path d="m45 24 3 21h-8z"/></g></svg>