<svg height="30" viewBox="0 0 15 17.307692" width="30" xmlns="http://www.w3.org/2000/svg"><path d="m.000001 1.153846h14.999999v15h-14.999999z" fill="#fafafa"/><path d="m1 1v28h28v-28zm1 1h26v26h-26z" fill="#3a3a38" transform="matrix(.57692303 0 0 .57692307 -1.153846 0)"/><g fill="#1e8bcd"><path d="m.576924 12.692308h1.153846v1.153846h-1.153846z"/><path d="m4.0384618 12.115385h1.153846v1.153846h-1.153846z"/><path d="m5.1923078 8.6538462h1.153846v1.1538457h-1.153846z"/><path d="m8.653846 8.6538462h1.1538459v1.1538457h-1.1538459z"/><path d="m9.8076921 5.1923077h1.1538459v1.1538461h-1.1538459z"/><path d="m12.692307 2.3076923h1.153846v1.1538461h-1.153846z"/></g><path d="m28 5.9023438-.273438.1777343-25.726562 16.8222659v1.193359l.2734375-.177734 25.7265625-16.8183596z" fill="#ed3d3b" fill-rule="evenodd" transform="matrix(.57692303 0 0 .57692307 -1.153846 0)"/></svg>