<svg height="30" viewBox="0 0 15 17.307692" width="30" xmlns="http://www.w3.org/2000/svg"><path d="m.000001 1.153846h14.999999v15h-14.999999z" fill="#fafafa"/><path d="m-.57692287 16.730769v-16.15384603h16.15384487v16.15384603zm.57692303-.576923h14.99999884v-15h-14.99999884z" fill="#3a3a38"/><g fill="#1e8bcd"><path d="m4 21v3h3v-3zm1 1h1v1h-1z" transform="matrix(.57692303 0 0 .57692307 -1.153846 0)"/><path d="m11.538461 10.961538v1.73077h1.730769v-1.73077zm.576923.576923h.576923v.576923h-.576923z"/><path d="m6.9230769 4.0384614v1.7307692h1.7307691v-1.7307692zm.5769231.5769231h.576923v.576923h-.576923z"/><path d="m18 8v1h5v9h1v-9-1zm-3 3v11h-7v1h7 1v-12z" transform="matrix(.57692303 0 0 .57692307 -1.153846 0)"/></g></svg>