<svg height="30" viewBox="0 0 15 17.307692" width="30" xmlns="http://www.w3.org/2000/svg"><path d="m.0000011 16.153846h14.9999989v-15h-14.9999989z" fill="#fafafa"/><path d="m-.57692287 16.730769v-16.15384603h16.15384487v16.15384603zm.57692303-.576923h14.99999884v-15h-14.99999884z" fill="#3a3a38"/><g fill="#1e8bcd"><path d="m4 21v3h3v-3zm1 1h1v1h-1z" transform="matrix(.57692303 0 0 .57692307 -1.153846 0)"/><path d="m11.538461 10.961538v1.73077h1.730769v-1.73077zm.576923.576923h.576923v.576923h-.576923z"/><path d="m6.9230769 4.0384614v1.7307692h1.7307691v-1.7307692zm.5769231.5769231h.576923v.576923h-.576923z"/><path d="m5 8v1 11h1v-11h7v-1zm10 3v10h1 5v-1h-5v-9z" transform="matrix(.57692303 0 0 .57692307 -1.153846 0)"/></g></svg>