<svg viewBox="0 0 16 16" xmlns="http://www.w3.org/2000/svg"><path d="m8 0c-4.418278 0-8 3.581722-8 8s3.581722 8 8 8 8-3.581722 8-8-3.581722-8-8-8zm-.9882812 1.078125c-4.6744792 9.947917-2.3372396 4.9739583 0 0zm-.0117188 0v7.921875h7.919922c-.496648 3.440897-3.443369 5.995887-6.919922 6-3.8659932 0-7-3.134007-7-7 .0031438-3.4772942 2.5583696-6.4251199 6-6.921875zm7.919922 7.9199219c-9.9466147 4.6679691-4.9733073 2.3339841 0 0z" fill="#fb983b"/><path d="m7.0117188 1.078125c-4.6744792 9.947917-2.3372396 4.9739583 0 0zm-.0117188 0v7.921875h7.919922c-.496648 3.440897-3.443369 5.995887-6.919922 6-3.8659932 0-7-3.134007-7-7 .0031438-3.4772942 2.5583696-6.4251199 6-6.921875zm7.919922 7.9199219c-9.9466147 4.6679691-4.9733073 2.3339841 0 0z" fill="#fafafa"/></svg>