<svg height="52" viewBox="0 0 60 52" width="60" xmlns="http://www.w3.org/2000/svg"><path d="m0 0h60v52h-60z" fill="#fafafa"/><path d="m3 45h52v1h-52z" fill="#3a3a38"/><path d="m6 3h1v46h-1z" fill="#3a3a38"/><path d="m11.5 35.5s8.831585-20.6055 17-23 18.684412 1.6011 21 8-9 16-9 16" fill="none" stroke="#1e8bcd"/><path d="m20.5 8.5s-10.6689045 6.2441-9 13c1.668905 6.7559 16.130808 11.2403 23 12s15-4 15-4" fill="none" stroke="#fb983b"/><g fill="#fb983b"><path d="m48 29h1v1h-1z"/><path d="m49 28h1v1h-1z"/><path d="m49 30h1v1h-1z"/><path d="m50 29h1v1h-1z"/></g><path d="m49 29h1v1h-1z" fill="#fafafa"/><g fill="#fb983b"><path d="m33 33h1v1h-1z"/><path d="m34 32h1v1h-1z"/><path d="m34 34h1v1h-1z"/><path d="m35 33h1v1h-1z"/></g><path d="m34 33h1v1h-1z" fill="#fafafa"/><g fill="#fb983b"><path d="m10 21h1v1h-1z"/><path d="m11 20h1v1h-1z"/><path d="m11 22h1v1h-1z"/><path d="m12 21h1v1h-1z"/></g><path d="m11 21h1v1h-1z" fill="#fafafa"/><g fill="#fb983b"><path d="m19 8h1v1h-1z"/><path d="m20 7h1v1h-1z"/><path d="m20 9h1v1h-1z"/><path d="m21 8h1v1h-1z"/></g><path d="m20 8h1v1h-1z" fill="#fafafa"/><g fill="#1e8bcd"><path d="m27 11h1v1h-1z"/><path d="m29 11h1v1h-1z"/><path d="m27 13h1v1h-1z"/><path d="m29 13h1v1h-1z"/></g><path d="m28 11v1h-1v1h1v1h1v-1h1v-1h-1v-1z" fill="#fafafa"/><g fill="#1e8bcd"><path d="m48 19.00002h1v1h-1z"/><path d="m50 19.00002h1v1h-1z"/><path d="m48 21.00002h1v1h-1z"/><path d="m50 21.00002h1v1h-1z"/></g><path d="m49 19.00002v1h-1v1h1v1h1v-1h1v-1h-1v-1z" fill="#fafafa"/><g fill="#1e8bcd"><path d="m39 35.00002h1v1h-1z"/><path d="m41 35.00002h1v1h-1z"/><path d="m39 37.00002h1v1h-1z"/><path d="m41 37.00002h1v1h-1z"/></g><path d="m40 35.00002v1h-1v1h1v1h1v-1h1v-1h-1v-1z" fill="#fafafa"/><g fill="#1e8bcd"><path d="m10 34.00002h1v1h-1z"/><path d="m12 34.00002h1v1h-1z"/><path d="m10 36.00002h1v1h-1z"/><path d="m12 36.00002h1v1h-1z"/></g><path d="m11 34.00002v1h-1v1h1v1h1v-1h1v-1h-1v-1z" fill="#fafafa"/></svg>