<svg viewBox="0 0 16 16" xmlns="http://www.w3.org/2000/svg">/&amp;amp;amp;gt;<path d="m8 0a8 8 0 0 0 -8 8 8 8 0 0 0 8 8 8 8 0 0 0 8-8 8 8 0 0 0 -8-8zm0 1a7 7 0 0 1 7 7 7 7 0 0 1 -7 7 7 7 0 0 1 -7-7 7 7 0 0 1 7-7z" fill="#3a3a38"/><path d="m15 8a7 7 0 0 1 -7 7 7 7 0 0 1 -7-7 7 7 0 0 1 7-7 7 7 0 0 1 7 7z" fill="#fafafa"/><path d="m15.208632 8.3085146c-.129384-.1367747-.322056-.2292741-.528933-.229273l-7.7508484-.0409353.0419444-2.5649424c.0000018-.4125691-.3544817-.7354129-.7522139-.7354133-.0004976.0004156-.0009942.0008323-.00149.00125l-.3731053.00202c-.3927853.0010593-.7463988.3221231-.7474908.7317527l-.042214 3.2969083c-.0004354.00783-.0006603.01567-.0006743.023512l.0001753.3466017.0000256.015277c-.0001696.00183-.0003277.00367-.0004743.0055.0000033.2112059.095375.3153833.1330275.3651563.013425.039459.01633.074814.080501.1415205.00247.00303.00498.00602.00753.00898.1719202.1693536.2718536.1569941.1989594.118611l.00405.00171c-.011817-.00553.078089.015758.091874.027443.02625.02226.058839.03896.1739921.055423.028257.0063.058324.01288.062563.01379.0004651.0001.00675.002.00675.002l.2580671-.0024.108035.0011 8.502316.040105c.415225-.000001.734157-.3580893.734158-.7537127-.000432-.000511-.000865-.00102-.0013-.00153l.000085-.3493194-.0013-.00153c-.0004414-.194858-.0745254-.3827226-.2040094-.5196044zm-9.4153206 1.5851904c.0000782.000001-.025967-.0058-.038043-.0089.023385.0024.00724.0099.033793.0099.00142-.0003263.00283-.0006596.00424-.001zm-.071836-.01876c-.056367-.01414-.1195851-.02996-.1193895-.02985.00269.0017.010486.0064.01052.0065.0001785.000087.055142.01147.1088621.02339z" fill="#3a3a38" stroke-width=".7" transform="matrix(.64278761 -.76604444 .76604444 .64278761 -4.212502 10.310289)"/></svg>