<svg viewBox="0 0 16 16" xmlns="http://www.w3.org/2000/svg"><path d="m3 11v3h4.8847656l-.4453125-.445312.0410157.039062c-.3219343-.287017-.5275398-.749512-.5117188-1.167969.0158214-.418456.1988826-.762079.4511719-1.013672.1953579-.194818.4465445-.345886.7441406-.412109zm5.7773438 0c.3114586.071489.615092.244344.8242187.480469l-.0410156-.044922.4375.4375.0019531-.873047z" fill="#fafafa"/><path d="m11.484184 15.999935a.49947237.49960183 0 0 1 -.394076-.202943l-2.9438609-2.948526a.50005966.50018927 0 1 1 .708165-.706399l2.1401039 2.144562.0078-5.7799722a.49947237.49960183 0 1 1 .998845 0l-.0078 5.7799722 2.147906-2.144562a.49947237.49960183 0 1 1 .704263.70835l-2.957516 2.954381a.49947237.49960183 0 0 1 -.40383.195137z" fill="#1e8bcd" fill-rule="evenodd"/><path d="m3 5v3h7.097656c.213399-.5830634.777742-1.0100495 1.427735-1 .632848.0100106 1.175135.431555 1.382812 1h.091797v-3z" fill="#fafafa"/><g fill="#3a3a38"><path d="m3 2c-.554 0-1 .446-1 1v5c0 .554.446 1 1 1h7.001953v-.4824219c-.0023002-.1816543.036067-.3546361.095703-.5175781h-7.097656v-3h10v3h1v-5c0-.554-.446-1-1-1z"/><path d="m3 10c-.554 0-1 .446-1 1v3c0 .554.44629 1.017922 1 1h5.8828125l-.9980469-1h-4.8847656v-3h5.1640625c.0867258-.019299.1770194-.033822.2714844-.037109.1124644-.003914.2273836.010848.3417969.037109h1.2226562v-1z"/></g><path d="m3 3h10v1h-10z" fill="#797774"/></svg>