<svg height="24" viewBox="0 0 24 24" width="24" xmlns="http://www.w3.org/2000/svg"><g stroke-width=".405752" transform="translate(0 -8)"><path d="m14 27h-1.035007q-.182648 0-.281583-.08371-.09893-.08371-.136985-.23592l-.593609-2.427707h-4.2922367l-1.194825 2.427702q-.060883.129376-.1902587.22831-.1293759.09133-.2968036.09133h-1.042618l5.076104-10.000005h1.362252zm-5.8599683-3.713851h3.5768643l-.996956-4.094369q-.03805-.182648-.09132-.418568-.04566-.243532-.08371-.517504-.106544.273972-.205479.517504-.09893.243531-.182648.426178z" stroke-width=".38965"/><path d="m21 27h-.622218q-.236714 0-.317873-.114976-.08116-.121738-.06763-.290819l.121738-1.406755q-.257003.432848-.554586.784537-.290819.351688-.622218.601928-.324636.25024-.696615.385505-.365215.135265-.757483.135265-.432848 0-.784536-.155554-.344926-.155555-.595166-.453138-.243477-.304346-.378742-.743957-.128501-.446374-.128501-1.02125 0-.581639.155554-1.136225.162318-.554586.446375-1.041539.290819-.493718.696613-.906275.405796-.412558.899512-.710141.493717-.297583 1.068593-.4599.574876-.169082 1.197094-.169082.446374 0 .879222.06763.432848.06087.838642.236713zm-3.077276-.892749q.351688 0 .689851-.196134.338162-.202897.635744-.561349.304347-.358452.56135-.845405.263766-.486955.459901-1.068593l.270529-2.225108q-.155554-.03381-.317872-.04058-.162318-.01353-.317873-.01353-.642508 0-1.210621.277293-.568112.27053-.994196.737194-.426085.4599-.676325 1.068592-.243477.608692-.243477 1.278254 0 1.589362 1.142989 1.589362z" stroke-width=".346278"/><g fill-rule="evenodd" transform="translate(-1.085938 10)"><path d="m6.004237 1h5.995763l-4 4h2l-9 7 3-6h-2z" fill="#ed8733"/><path d="m6.484375 2-2.40625 3.0039062a1.0001 1.0001 0 0 1 .8164062 1.4433594l-1.0292968 2.0585938 3.5078125-2.7285156a1.0001 1.0001 0 0 1 -.0800781-1.484375l2.2929687-2.2929688z" fill="#f8db8f"/></g></g></svg>