<svg viewBox="0 0 24 24" xmlns="http://www.w3.org/2000/svg"><path d="m17 7c-2.21 0-4 1.79-4 4h2c0-1.1.9-2 2-2s2 .9 2 2c0 .55-.219844 1.050156-.589844 1.410156l-1.240234 1.259766c-.72.73-1.169922 1.730078-1.169922 2.830078v.5h2c0-1.5.449922-2.100078 1.169922-2.830078l.90039-.919922c.57-.57.929688-1.37.929688-2.25 0-2.21-1.79-4-4-4zm-1 13v2h2v-2z" fill="#fb983b"/><path d="m3 2c-.5282798.0163207-.9975987.4714736-1 1v11c.0024.528526.4717202.983679 1 1 .23109.0071.4572702-.0676.6386719-.210938l6.9667971-5.5253901c.2331-.1851154.393031-.4660127.394531-.7636719-.001496-.2976592-.161431-.5785565-.394531-.7636719l-6.9667971-5.5253906c-.1814017-.1433405-.4075819-.2180422-.6386719-.2109375z" fill="#309048"/><path d="m3 3v11l6.9550781-5.5z" fill="#a1ddaa"/></svg>