<svg viewBox="0 0 24 24" xmlns="http://www.w3.org/2000/svg"><path d="m6 3v2c0 .554-.446 1-1 1h-2v12h2c.554 0 1 .446 1 1v2h12v-2c0-.554.446-1 1-1h2v-12h-2c-.554 0-1-.446-1-1v-2z" fill="#fafafa"/><g fill="#3a3a38"><g fill="#0063b1"><rect height="3" ry="1" width="3" x="19" y="2"/><rect height="3" ry="1" width="3" x="2" y="2"/><rect height="3" ry="1" width="3" x="19" y="19"/><rect height="3" ry="1" width="3" x="2" y="19"/></g><rect height="1" ry=".5" width="12" x="6" y="20"/><rect height="1" ry=".5" width="12" x="6" y="3"/><rect height="12" ry=".5" width="1" x="3" y="6"/><rect height="12" ry=".5" width="1" x="20" y="6"/></g><path d="m12 5.4999996-1.5 5.0000004h-5l4 3-1 5 3.5-3 4.5 3-1.5-5 3.5-3h-4.5z" fill="#f8db8f" stroke="#ed8733" stroke-linecap="round" stroke-linejoin="round"/><g fill="#83beec"><path d="m3.0000523 3h.9998954c.000029 0 .0000523.0000233.0000523.0000523v.9998954c0 .000029-.0000233.0000523-.0000523.0000523h-.9998954c-.000029 0-.0000523-.0000233-.0000523-.0000523v-.9998954c0-.000029.0000233-.0000523.0000523-.0000523z"/><path d="m20 3h.999895c.000029 0 .000053.0000233.000053.0000523v.9998954c0 .000029-.000024.0000523-.000053.0000523h-.999895c-.000029 0-.000052-.0000233-.000052-.0000523v-.9998954c0-.000029.000023-.0000523.000052-.0000523z"/><path d="m3 20h.9998954c.000029 0 .0000523.000023.0000523.000052v.999896c0 .000029-.0000233.000052-.0000523.000052h-.9998954c-.000029 0-.0000523-.000023-.0000523-.000052v-.999896c0-.000029.0000233-.000052.0000523-.000052z"/><path d="m19.999948 20h.999895c.000029 0 .000053.000023.000053.000052v.999896c0 .000029-.000024.000052-.000053.000052h-.999895c-.000029 0-.000052-.000023-.000052-.000052v-.999896c0-.000029.000023-.000052.000052-.000052z"/></g></svg>