<svg viewBox="0 0 24 24" xmlns="http://www.w3.org/2000/svg"><path d="m4 2c-.554 0-1 .446-1 1v1c0 .554.446 1 1 1h16c.554 0 1-.446 1-1v-1c0-.554-.446-1-1-1zm-.5 6c-.277 0-.5.223-.5.5v1c0 .277.223.5.5.5h17c.277 0 .5-.223.5-.5v-1c0-.277-.223-.5-.5-.5zm0 5c-.277 0-.5.223-.5.5s.223.5.5.5h6c.277 0 .5-.223.5-.5s-.223-.5-.5-.5zm8 0c-.277 0-.5.223-.5.5s.223.5.5.5h2.015625l.242187-.242188.707032-.707031a1.0001 1.0001 0 0 1 .054687-.050781zm4.337891 0 .125.083984.017578-.083984zm4.18164 0 .017578.083984.125-.083984zm-16.519531 4c-.277 0-.5.190572-.5.427734v.144532c0 .237162.223.427734.5.427734h1c.277 0 .5-.190572.5-.427734v-.144532c0-.237162-.223-.427734-.5-.427734zm4 0c-.277 0-.5.190572-.5.427734v.144532c0 .237162.223.427734.5.427734h1c.277 0 .5-.190572.5-.427734v-.144532c0-.237162-.223-.427734-.5-.427734zm4 0c-.277 0-.5.190572-.5.427734v.144532c0 .237162.223.427734.5.427734h.5v-1zm-8 3c-.277 0-.5.223-.5.5v1c0 .277.223.5.5.5h10.015625l-.464844-.464844a1.0001 1.0001 0 0 1 -.125-1.261718l.158203-.236329-.183593-.037109z" fill="#3a3a38"/><path d="m17 13-.349609 1.744141-1.478516-.986329-.707031.707032-.707032.707031.986329 1.478516-1.744141.349609v1 1l1.744141.349609-.986329 1.478516.707032.707031.707031.707032 1.478516-.986329.349609 1.744141h1 1l.349609-1.744141 1.478516.986329.707031-.707032.707032-.707031-.986329-1.478516 1.744141-.349609v-1-1l-1.744141-.349609.986329-1.478516-.707032-.707031-.707031-.707032-1.478516.986329-.349609-1.744141h-1zm.800781 1h.398438l.300781 1.5h.535156l.378906.378906 1.273438-.847656.28125.28125-.847656 1.273438.378906.378906v.535156l1.5.300781v.398438l-1.5.300781v.535156l-.378906.378906.847656 1.273438-.28125.28125-1.273438-.847656-.378906.378906h-.535156l-.300781 1.5h-.398438l-.300781-1.5h-.535156l-.378906-.378906-1.273438.847656-.28125-.28125.847656-1.273438-.378906-.378906v-.535156l-1.5-.300781v-.398438l1.5-.300781v-.535156l.378906-.378906-.847656-1.273438.28125-.28125 1.273438.847656.378906-.378906h.535156zm.199219 2a2 2 0 0 0 -2 2 2 2 0 0 0 2 2 2 2 0 0 0 2-2 2 2 0 0 0 -2-2zm0 1a1 1 0 0 1 1 1 1 1 0 0 1 -1 1 1 1 0 0 1 -1-1 1 1 0 0 1 1-1z" fill="#1e8bcd"/><path d="m17.800781 14h.398438l.300781 1.5h.535156l.378906.378906 1.273438-.847656.28125.28125-.847656 1.273438.378906.378906v.535156l1.5.300781v.398438l-1.5.300781v.535156l-.378906.378906.847656 1.273438-.28125.28125-1.273438-.847656-.378906.378906h-.535156l-.300781 1.5h-.398438l-.300781-1.5h-.535156l-.378906-.378906-1.273438.847656-.28125-.28125.847656-1.273438-.378906-.378906v-.535156l-1.5-.300781v-.398438l1.5-.300781v-.535156l.378906-.378906-.847656-1.273438.28125-.28125 1.273438.847656.378906-.378906h.535156zm.199219 2c-1.104569 0-2 .895431-2 2s.895431 2 2 2 2-.895431 2-2-.895431-2-2-2z" fill="#fafafa"/></svg>