<svg viewBox="0 0 24 24" xmlns="http://www.w3.org/2000/svg"><path d="m12 2c-5.5228475 0-10 4.4771525-10 10 0 5.522847 4.4771525 10 10 10 5.522847 0 10-4.477153 10-10 0-5.5228475-4.477153-10-10-10z" fill="#fafafa"/><path d="m12 2a10 10 0 0 0 -10 10 10 10 0 0 0 10 10 10 10 0 0 0 10-10 10 10 0 0 0 -10-10zm0 1a9 9 0 0 1 9 9 9 9 0 0 1 -9 9 9 9 0 0 1 -9-9 9 9 0 0 1 9-9z" fill="#3a3a38"/><path d="m8 7c-.554 0-1 .446-1 1v8c0 .554.446 1 1 1h8c.554 0 1-.446 1-1v-8c0-.554-.446-1-1-1z" fill="#ed3d3b"/></svg>