<svg viewBox="0 0 24 24" xmlns="http://www.w3.org/2000/svg"><path d="m11 4.0000004v1c1.1846 0 2 .67365 2 2.40625v2.6874996c0 .831 1.00158 2.39355 2 2.90625-1.682649.268764-2 1.297561-2 2.25v3.34375c0 1.7326-.8155 2.40625-2 2.40625v1c1.77683 0 3.046875-.6966 3.046875-2.5v-3.78125c0-1.739523 1.452593-1.71875 2.953125-1.71875v-2c-1.128954 0-2.953125-.709412-2.953125-2.4062496v-3.09375c0-1.8034-1.270045-2.5-3.046875-2.5z" fill="#3a3a38"/><path d="m9 4.0000004v1c-1.1846 0-2 .67365-2 2.40625v2.6874996c0 .831-1.00158 2.39355-2 2.90625 1.682649.268764 2 1.297561 2 2.25v3.34375c0 1.7326.8155 2.40625 2 2.40625v1c-1.77683 0-3.046875-.6966-3.046875-2.5v-3.78125c0-1.739523-1.452593-1.71875-2.953125-1.71875v-2c1.128954 0 2.953125-.709412 2.953125-2.4062496v-3.09375c0-1.8034 1.270045-2.5 3.046875-2.5z" fill="#3a3a38"/><path d="m22.50506 7.507142-2.995 2.992879-3.005-2.992879" fill="none" stroke="#1e8bcd" stroke-linecap="round" stroke-linejoin="round"/><g fill="#1e8bcd" fill-rule="evenodd"><path d="m11.5 2.015625v1h5c1.380712 0 2.5 1.119288 2.5 2.5h.0059v.4238281l-.0059 4.0605469h1l.0059-4.0605469v-.5c-.005941-2.154663-1.88341-3.3737981-3.5059-3.4238281z"/><path d="m5.505859 2.015625c-1.62249.05003-3.499959 1.2691651-3.505859 3.4238281v.5l.00586 4.0605469h1l-.00586-4.0605469v-.4238281h.0059c0-1.380712 1.119288-2.5 2.5-2.5h7.8941v-1h-7.8941z"/></g></svg>