<svg viewBox="0 0 24 24" xmlns="http://www.w3.org/2000/svg"><path d="m15 3v5h7v-5zm1 1h5v3h-5zm-15 6v2.300781l.0078125-.007812a.99955814.99955814 0 0 1 .6914063-.292969.99955814.99955814 0 0 1 .3007812.042969v-1.042969h5v3h-2.8710938l1 1h1.7421876l1.1289062-1.128906v-3.871094zm14 0v5h7v-5zm1 1h5v3h-5zm-1 6v5h7v-5zm1 1h5v3h-5z" fill="#3a3a38"/><path d="m16 4v3h5v-3zm-14 7v1.042969a.99955814.99955814 0 0 1 .421875.25l1.7070312 1.707031h2.8710938v-3zm14 0v3h5v-3zm0 7v3h5v-3z" fill="#fafafa"/><g fill="#1e8bcd"><path d="m10.417969 15.710938-.7070315.707031 1.9355465 1.935547-1.582031 1.582031.064453.064453h3.871094v-4l-1.646484 1.646484z"/><path d="m8.4941414 11.00586c-.449403-.000092-.670587-.54684-.347657-.859375l3.4999996-3.5-1.646484-1.646485h4v4l-1.646484-1.646484-3.4999996 3.5c-.09421.09737-.223892.152344-.359375.152344z"/></g><path d="m10.285747 12.999968-4.285715 4.285714-4.285715-4.285714-.714285.714285 4.285714 4.285715-4.285714 4.285715.714285.714285 4.285715-4.285714 4.285715 4.285714.714285-.714285-4.285714-4.285715 4.285714-4.285715z" fill="#ed3d3b"/></svg>