<svg viewBox="0 0 24 24" xmlns="http://www.w3.org/2000/svg"><path d="m12 12h10v10h-10z" fill="#fafafa"/><path d="m3 3v15h7v-7c0-.554.446-1 1-1h10v-7z" fill="#fafafa"/><path d="m2 2v1 15c0 .554.446 1 1 1h7v-1h-1-1-5v-3-1-3-1-3-1-3h5 1 2 1 8v3 1 3h1v-7-1zm9 8c-.124837 0-.241533.02897-.351562.070312.109864-.041307.226912-.070312.351562-.070312zm-.443359.113281c-.080004.039843-.150875.089554-.216797.148438.065512-.058505.13739-.108722.216797-.148438zm-.283203.208985c-.079327.084918-.149415.178233-.195313.287109.045823-.108697.116192-.202201.195313-.287109z"/><path d="m18.498047 12.994141a.50005.50005 0 0 0 -.457031.308593l-.728516 1.697266h-3.8125c-.277 0-.5.223-.5.5s.223.5.5.5h3.384766l-.857422 2h-2.527344c-.277 0-.5.223-.5.5s.223.5.5.5h2.099609l-.558593 1.302734a.50005.50005 0 1 0 .917968.394532l.726563-1.697266h3.814453c.277 0 .5-.223.5-.5s-.223-.5-.5-.5h-3.384766l.857422-2h2.527344c.277 0 .5-.223.5-.5s-.223-.5-.5-.5h-2.099609l.558593-1.302734a.50005.50005 0 0 0 -.460937-.703125z" fill="#3a3a38"/><path d="m12 11c-.554 0-1 .446-1 1v10c0 .554.446 1 1 1h10c.554 0 1-.446 1-1v-10c0-.554-.446-1-1-1zm0 1h10v10h-10z" fill="#3a3a38"/><path d="m6 3v3h-3v1h3v3h-3v1h3v3h-3v1h3v3h1v-3h3v-1h-3v-3h3c0-.1385.027656-.270906.078125-.390625.151406-.359156.506375-.609375.921875-.609375h-4v-3h9v3h1v-3h3v-1h-3v-3h-1v3h-9v-3z" fill="#797774"/><path d="m6 14h4v5h-4z" fill="#d42314"/><path d="m6 10v5h4v-4c0-.554.446-1 1-1z" fill="#309048"/><path d="m6 6v5h4c0-.554.446-1 1-1h6v-4z" fill="#d42314"/><path d="m6 2h11v5h-11z" fill="#309048"/><path d="m7 15h3v3h-3z" fill="#ff9198" stroke-width=".866025"/><path d="m7 11h3v3h-3z" fill="#a1ddaa" stroke-width=".707107"/><path d="m7 7h9v3h-9z" fill="#ff9198" stroke-width="1.341641"/><path d="m7 3h9v3h-9z" fill="#a1ddaa" stroke-width="1.224745"/></svg>