<svg viewBox="0 0 24 24" xmlns="http://www.w3.org/2000/svg"><path d="m10.599609 2.0058594-7.4980465 19.9882816h2.1445313c.2332413 0 .4314951-.06543.59375-.197266.1723957-.131832.2887638-.284635.3496093-.457031l1.5292969-4.339844h8.570312l1.53711 4.355469c.08113.182536.192011.333387.333984.455078.152114.121691.350368.183594.59375.183594h2.144532l-7.484376-19.9882816zm1.400391 2.6171875c.09127.3752143.187654.7243184.289062 1.0488281.10141.3245097.203279.6081802.304688.8515625l2.990234 8.4765625h-7.1601559l2.9824219-8.4609375c.091268-.2433823.187654-.5270528.289062-.8515625.101411-.3245097.203279-.6790979.304688-1.0644531z" fill="#3a3a38"/></svg>