<svg viewBox="0 0 24 24" xmlns="http://www.w3.org/2000/svg"><path d="m3 3v13h6v-10h4l-3-3z" fill="#fafafa"/><path d="m2.8574219 2c-.474857 0-.8574219.3825647-.8574219.8574219v13.2851561c0 .474857.3825649.857422.8574219.857422h6.1425781v-1h-6v-13h6v3h1v-2.5859375l2.585938 2.5859375h1.414062l-1-1-2-2-1-1z" fill="#3a3a38"/><path d="m4.5 13c-.277 0-.5.223-.5.5s.223.5.5.5h4.5v-1z" fill="#1e8bcd"/><path d="m4.5 10c-.277 0-.5.223-.5.5s.223.5.5.5h4.5v-1z" fill="#1e8bcd"/><path d="m11 21h10v-9-1l-3-3h-7z" fill="#fafafa" fill-rule="evenodd"/><path d="m10.857422 7c-.474857 0-.857422.3825647-.857422.8574219v13.2851561c0 .474857.382565.857422.857422.857422h10.285156c.474857 0 .857422-.382565.857422-.857422v-10.142578l-1-1-2-2-1-1zm.142578 1h6v3.142578c0 .474857.382565.857422.857422.857422h3.142578v9h-10zm7 .4140625 2.585938 2.5859375h-2.585938z" fill="#3a3a38"/><g fill="#1e8bcd"><rect height="1" ry=".5" width="8" x="12" y="18"/><rect height="1" ry=".5" width="8" x="12" y="15"/></g></svg>