<svg viewBox="0 0 24 24" xmlns="http://www.w3.org/2000/svg"><path d="m5 3v18h5.458984l.402344-1.638672.136719-.347656c.013832-.201488.088912-.400366.224609-.566406.02153-.02587.04434-.050639.06836-.074219l.707031-.707031.712891-.707032 4.802734-4.783203 1.486328-1.480469v-7.695312zm14 16.197266-1.794922 1.802734h1.794922z" fill="#fafafa"/><path d="m5 2c-.554 0-1 .446-1 1v18c0 .554.446 1 1 1h5.212891l.246093-1h-5.458984v-18h14v7.695312l.1875-.1875c.228846-.228567.514552-.375824.8125-.451171v-7.056641c0-.554-.446-1-1-1zm15 16.193359-1 1.003907v1.802734h-1.794922l-.996094 1h2.791016c.554 0 1-.446 1-1z" fill="#3a3a38"/><g fill="#797774"><path d="m12 5v1h6v-1zm0 3v1h6v-1zm-6 3v1h11.689453l.310547-.308594v-.691406zm0 3v1h8.677734l1.003907-1zm0 3v1h5.664062l.333985-.333984.671875-.666016z"/><path d="m6 5h4v4h-4z"/></g><g fill="#fb983b" transform="translate(-1 -1)"><path d="m20.419922 11c-.189562 0-.378184.07172-.523438.216797l-1.673828 1.669922 2.847656 2.849609 1.710938-1.638672c.290506-.290127.290506-.756747 0-1.046875l-1.835938-1.833984c-.145254-.145064-.335828-.216797-.52539-.216797zm0 .990234 1.582031 1.580078-.917969.88086-1.5625-1.5625z" fill="#0063b1" transform="translate(1 1)"/><path d="m21.419922 12.990234-.898438.898438 1.5625 1.5625.917969-.88086z" fill="#83beec"/><g transform="translate(1 1)"><path d="m12.708984 18.376953-.002-.002-.706984.707078.002.002-.05078.05078-.95122 3.865189 3.806641-1.011719 6.24414-6.271484-2.828125-2.830078zm5.511719-4.191406 1.53125 1.533203-4.841797 4.861328-1.550781-1.552734zm-5.509765 5.708984 1.34375 1.341797-1.791016.476563z" fill="#0063b1"/><path d="m18.220703 14.185547 1.53125 1.533203-4.841797 4.861328-1.550781-1.552734zm-5.509765 5.708984 1.34375 1.341797-1.791016.476563z" fill="#83beec"/></g></g></svg>