<svg viewBox="0 0 24 24" xmlns="http://www.w3.org/2000/svg"><path d="m10.5 3c.813703 0 1.5.6862972 1.5 1.5s-.686297 1.5-1.5 1.5h-.380859l1.189453 1.1894531a1.0019135 1.0019135 0 0 1 1.294922.1015625l2.103515 2.1035156a1.0019135 1.0019135 0 0 1 0 1.4140628l-9.707031 9.708984v.482422h14v-18zm-2.5 5.1230469v.3769531c0 .8137028-.6862972 1.5-1.5 1.5s-1.5-.6862972-1.5-1.5v4.978516l4.1777344-4.1777348z" fill="#fafafa"/><path d="m11.121094 2-1 1h.378906 8.5v18h-14v-.482422l-.9023438.902344c.158727.341563.4995943.580078.9023438.580078h14c.554 0 1-.446 1-1v-18c0-.554-.446-1-1-1zm-6.121094 6.1210938-1 1v5.3574222l1-1v-4.978516z" fill="#3a3a38"/><path d="m12 5v1h6v-1zm1.3125 3 1 1h3.6875v-1zm-5.3125.1230469v.3769531c0 .1748905-.0358913.3424298-.09375.5h.9707031zm-2 2.8769531v1h.4804688l1-1zm8.515625 0-1 1h4.484375v-1zm-3 3-1 1h7.484375v-1zm-2.9980469 3-1 1h10.4824219v-1z" fill="#797774"/><g transform="translate(3)"><path d="m3.5 0c-.277 0-.5.223-.5.5v1.5507812a2.5 2.5 0 0 0 -.8789062.3652344l-2.26562505-2.26562498c-.19586858-.19586857-.51116267-.19586857-.70703125 0-.1958686.19586858-.1958686.51116268 0 .70703126l2.265625 2.26562502a2.5 2.5 0 0 0 -.359375.8769531h-1.5546875c-.277 0-.5.223-.5.5s.223.5.5.5h1.5507812a2.5 2.5 0 0 0 .3652344.8769531l-2.2675781 2.2675781c-.1958685.1958687-.1958685.5111627 0 .7070313.19586857.1958685.51116267.1958685.70703125 0l2.26757815-2.2675781a2.5 2.5 0 0 0 .8769531.3613281v1.5546875c0 .277.223.5.5.5s.5-.223.5-.5v-1.5507812a2.5 2.5 0 0 0 .875-.3652344l2.2675781 2.2675781c.1958686.1958686.5111627.1958686.7070313 0s.1958686-.5111626 0-.7070313l-2.265625-2.265625a2.5 2.5 0 0 0 .3613281-.8789062h1.5546875c.277 0 .5-.223.5-.5s-.223-.5-.5-.5h-1.5507812a2.5 2.5 0 0 0 -.3652344-.8769531l2.265625-2.26562502c.1958686-.19586858.1958686-.51116268 0-.70703126-.1958686-.19586857-.5111627-.19586857-.7070313 0l-2.265625 2.26562498a2.5 2.5 0 0 0 -.8769531-.3613281v-1.5546875c0-.277-.223-.5-.5-.5zm0 3a1.5 1.5 0 0 1 1.5 1.5 1.5 1.5 0 0 1 -1.5 1.5 1.5 1.5 0 0 1 -1.5-1.5 1.5 1.5 0 0 1 .4394531-1.0585938 1.5 1.5 0 0 1 .0019531-.0019531 1.5 1.5 0 0 1 1.0585938-.4394531z" fill="#fb983b"/><circle cx="3.5" cy="4.5" fill="#fafafa" r="1.5"/></g><g transform="matrix(2.6453867 2.6453867 -2.6453867 2.6453867 784.97991 -766.47952)"><path d="m.26458332 292.50208h.79374998v4.49791h-.79374998z" fill="#3a3a38"/><path d="m.52916664 292.76663h.26458332v1.32292h-.26458332z" fill="#fafafa"/></g></svg>