<svg viewBox="0 0 24 24" xmlns="http://www.w3.org/2000/svg"><path d="m13.386719 4-9.9375002 9.035156 7.5839842 7.583985.966797-.878907v-9.740234h5c-1.104569 0-2-.8954305-2-2s.895431-2 2-2 2 .8954305 2 2-.895431 2-2 2h4v-6z" fill="#fafafa"/><g fill="#3a3a38"><path d="m13 3-11 10 9 9 1-.908203v-1.351563l-.966797.878907-7.5839842-7.583985 9.9375002-9.035156h7.613281v6h1v-7z"/><path d="m17 6a2 2 0 0 0 -2 2 2 2 0 0 0 2 2 2 2 0 0 0 2-2 2 2 0 0 0 -2-2zm0 1a1 1 0 0 1 1 1 1 1 0 0 1 -1 1 1 1 0 0 1 -1-1 1 1 0 0 1 1-1z"/></g><path d="m13 11h9v11h-9z" fill="#3a3a38"/><path d="m14 12h7v9h-7z" fill="#fafafa"/><g fill="#1e8bcd"><circle cx="16" cy="15" r="1"/><path d="m18 14h2v1h-2z"/><circle cx="16" cy="18" r="1"/><path d="m18 17h2v1h-2z"/></g></svg>