<svg viewBox="0 0 24 24" xmlns="http://www.w3.org/2000/svg"><path d="m0 1h23v22h-23z" fill="#3a3a38"/><path d="m1 4h21v18h-21z" fill="#fafafa"/><path d="m11 4h1v18h-1z" fill="#797774"/><path d="m1 2h21v1h-21z" fill="#797774"/><path d="m8.8146191-5.321626v1.3085938c0 .4166666-.1236979.8072916-.3710937 1.171875l-12.4414068 14.6289072h12.8125005v2.890625h-17.1093755v-1.386719c0-.195312.032552-.377604.097656-.546875s.1497394-.332031.2539062-.488281l12.4218758-14.687501h-12.773438v-2.890625z" fill="#a846b2" transform="matrix(.35068492 0 0 .35068492 16.908846 6.866214)"/><path d="m16.5 13-2.865234 8h.964843c.109461 0 .199166-.027237.267579-.082031.063849-.054795.1139-.122888.15039-.205078l.603516-1.712891h1.378906.134766 1.378906l.603516 1.712891c.03649.08219.086543.150283.15039.205078.068413.054794.158117.082031.267578.082031h.964844l-2.865234-8h-.5-.134766zm.566406 1.431641c.019915.072727.039416.151055.060547.21875.04561.146119.091109.275176.136719.384765l.896484 2.964844h-1.02539-.134766-1.025391l.896485-2.964844c.045609-.109589.091109-.238646.136718-.384765.021084-.067542.038722-.146199.058594-.21875z" fill="#1e8bcd"/><path d="m5.5 5.000001-2.865234 8h.964843c.109461 0 .199166-.02724.267579-.08203.063849-.05479.1139-.122888.15039-.205078l.603516-1.712892h1.378906.134766 1.378906l.603516 1.712891c.03649.08219.086543.150283.15039.205078.068413.05479.158117.08203.267578.08203h.964844l-2.865234-8h-.5-.134766zm.566406 1.431641c.019915.072727.039416.151055.060547.21875.04561.146119.091109.275176.136719.384765l.896484 2.964844h-1.02539-.134766-1.025391l.896485-2.964844c.045609-.109589.091109-.238646.136718-.384765.021084-.067542.038722-.146199.058594-.21875z" fill="#1e8bcd"/><path d="m8.8146191-5.321626v1.3085938c0 .4166666-.1236979.8072916-.3710937 1.171875l-12.4414068 14.6289072h12.8125005v2.890625h-17.1093755v-1.386719c0-.195312.032552-.377604.097656-.546875s.1497394-.332031.2539062-.488281l12.4218758-14.687501h-12.773438v-2.890625z" fill="#a846b2" transform="matrix(.35068492 0 0 .35068492 5.929394 15.852515)"/></svg>