<svg viewBox="0 0 24 24" xmlns="http://www.w3.org/2000/svg"><path d="m4.71875 2a.50535904.50535904 0 0 0 -.3535156.1445312l-1.2128906 1.1855469a.50535904.50535904 0 0 0 -.1523438.3613281v1.1875.3613282a.50535904.50535904 0 0 0 .09375.2949218l5.9003906 8.2499998v4.148438.046875a.50535904.50535904 0 0 0 .2148438.414062l3.7949216 2.669922a1.0001 1.0001 0 0 1 -.003906-.064453v-1.173828l-2.994141-2.107422v-4.095703a.50535904.50535904 0 0 0 -.0957028-.294922l-5.9003906-8.25v-.1992188-.9746093l.9160156-.8945313h14.1484378l.916015.8945313v1.1738281l-5.894531 8.25a.50535904.50535904 0 0 0 -.095703.294922v.376953h1.011719v-.214844l5.894531-8.2499998a.50535904.50535904 0 0 0 .09375-.2949218v-1.5488282a.50535904.50535904 0 0 0 -.152344-.3613281l-1.21289-1.1855469a.50535904.50535904 0 0 0 -.353516-.1445312z" fill="#3a3a38"/><path d="m4.9257812 3.0097656-.9160156.8945313v.9746093.1992188l5.9003906 8.25c.062016.085851.0954928.189015.0957028.294922v4.095703l2.994141 2.107422v-.826172a1.0001 1.0001 0 0 1 1-1 1.0001 1.0001 0 0 1 -1-1v-2a1.0001 1.0001 0 0 1 1-1v-.376953c.00021-.105907.033683-.209072.095703-.294922l5.894531-8.25v-1.1738281l-.916015-.8945313z" fill="#fafafa"/><path d="m20.105469 12.552734-1.222657 2.447266h-4.882812v2h3.882812l-1 2h-2.882812v2h1.882812l-.777343 1.552734 1.789062.894532 1.222657-2.447266h4.882812v-2h-3.882812l1-2h2.882812v-2h-1.882812l.777343-1.552734z" fill="#1e8bcd"/></svg>