<svg viewBox="0 0 24 24" xmlns="http://www.w3.org/2000/svg"><path d="m11.5 6c-.930682 0-1.7769305.3745117-2.40625.9746094l.4628906.4628906c.5752824.5752835.5752834 1.5458102 0 2.1210938-.4132852.4132855-1.0284718.5242752-1.5566406.34375v2.5976562c0 1.921703 1.5782972 3.5 3.5 3.5h1c.111914 0 .192666-.033852.296875-.044922l1.199219 1.345703a1.0001 1.0001 0 0 0 .023437.027344c.177437.185488.40592.348731.66211.447266.241295.09281.490058.128906.728515.128906h.945313a1.0001 1.0001 0 0 0 .746093-1.666016l-.21875-.246093a1.0001 1.0001 0 0 0 .117188.007812h4a1.0001 1.0001 0 0 0 1-1v-1a1.0001 1.0001 0 0 0 -1-1h-2v-6a1.0001 1.0001 0 0 0 -1-1h-1a1.0001 1.0001 0 0 0 -1 1v2.5c0-1.921703-1.578297-3.5-3.5-3.5zm-8.5 2.1210938-1.4375 1.4375c-.0219484.0219483-.0472574.0383201-.0703125.0585937.0303322.2843931.0812369.5635165.1933594.8281245a1.0001 1.0001 0 0 0 .0039062.011719c.1498707.340092.3586485.648158.6171875.900391a1.0001 1.0001 0 0 0 .0097656.009766c.2392675.227873.5186092.422361.828125.568359a1.0001 1.0001 0 0 0 .0136719.005859c.2383373.107926.481102.205546.7285157.291016.225204.0778.4419005.150558.6484374.220703a1.0001 1.0001 0 0 0 .0175782.005859c.1347191.04321.2406367.09296.328125.148438a1.0001 1.0001 0 0 0 .0234375.015625c.0434545.025863.0524529.039499.0644531.056641.0006165.006436.0019531.007427.0019531.035156 0 .102323-.0162012.167736-.0351562.216797a1.0001 1.0001 0 0 0 -.0039063.011718c-.012812.03443-.0193718.045563-.0449218.070313a1.0001 1.0001 0 0 0 -.0117188.011719c-.021645.02164-.0416123.037423-.0976562.058593-.0467361.01766-.1282851.03711-.2597657.03711-.1709072 0-.2731597-.024882-.3261719-.044922-.1283101-.05593-.2280444-.109565-.3007812-.158203-.00281-.002-.0030694-.00386-.0058594-.00586-.121724-.08717-.2214462-.160124-.2871094-.214843l.0332032.029296c-.1924868-.17575-.4802047-.386718-.9238282-.386718-.233029-.000001-.4816288.07758-.671875.195312-.1594754.09826-.3169682.2453-.421875.410156a1.0001 1.0001 0 0 0 -.0097656.015626l-.3144531.513671a1.0001 1.0001 0 0 0 .109375 1.189453c.3731325.415175.8316393.749064 1.3457031.988282a1.0001 1.0001 0 0 0 .0117188.005859c.5407322.24386 1.131898.361328 1.7382812.361328.505068 0 .9913958-.08261 1.4375-.265625.4224209-.173301.8102535-.428196 1.125-.759765.309089-.321491.5465206-.704895.7011719-1.119141a1.0001 1.0001 0 0 0 0-.003906c.1531393-.415669.2304687-.861372.2304687-1.316406.0000002-.426166-.067668-.84419-.2480468-1.234376-.1497218-.331238-.3639571-.630442-.6269532-.871093-.2381716-.224853-.5133637-.413584-.8125-.5546878-.2340826-.1143339-.4749195-.2190388-.7265624-.3105468-.0135452-.0049255-.025578-.0087844-.0390626-.0136719-.2716537.2630671-.6370807.4296875-1.0351562.4296875-.8137028 0-1.5-.6862972-1.5-1.5zm3 .0019531v.3769531c0 .3158452-.1051781.6107004-.2792969.8554688.1477178.0830789.3240878.15625.59375.15625.2709355 0 .5453311-.1339074.7675781-.3066407zm5.390625.8769531h1.21875c.191886 0 .390625.166387.390625.5v3c0 .333613-.198739.5-.390625.5h-1.21875c-.191886 0-.390625-.166387-.390625-.5v-3c0-.333613.198739-.5.390625-.5zm4.609375 3.5v2.5a1.0001 1.0001 0 0 0 0 .005859l-.601562-.673828c.34587-.539832.601562-1.142723.601562-1.832031z" fill="#fafafa"/><path d="m11.5 7c-.676942 0-1.287053.2690582-1.7363281.703125.3548801.5764206.2871651 1.3612724-.2070313 1.8554688-.1599938.1599939-.3525096.2707956-.5566406.3417968v2.5996094c0 1.385 1.115 2.5 2.5 2.5h1c.240936 0 .469308-.04439.689453-.107422l1.552735 1.744141c.091699.09586.19046.163398.298828.205078s.231596.0625.36914.0625h.945313l-2.240235-2.507813c.537671-.457856.884766-1.131712.884766-1.896484v-3c0-1.385-1.115-2.5-2.5-2.5zm5.5 0v8h4v-1h-3v-7zm-5.609375 1h1.21875c.770632 0 1.390625.669 1.390625 1.5v3c0 .831-.619993 1.5-1.390625 1.5h-1.21875c-.770632 0-1.390625-.669-1.390625-1.5v-3c0-.831.619993-1.5 1.390625-1.5zm-8.390625.1210938-.4414062.4414062c-.0608674.2014647-.1015625.4066259-.1015626.6171875 0 .349273.0492119.6408265.1484376.8750005.1031944.234171.2376607.429129.4003906.58789.1666988.158761.3540949.289446.5644531.388672.210358.09526.4242819.180448.6425781.255859.2182961.07541.4341732.147308.6445313.21875.210358.06747.395864.154617.5585937.257813.166699.09923.299212.224176.3984375.375.1031945.150823.15625.342.15625.576172 0 .210357-.034089.403488-.1015625.578125-.063504.170668-.1601005.316413-.2871094.439453-.1230396.12304-.2725658.219636-.4511718.287109-.1786057.06747-.3830781.101563-.6132813.101563-.2738625 0-.5105337-.03976-.7089843-.119141-.1944822-.08335-.361084-.174275-.5-.269531-.1389158-.09923-.2563064-.188198-.3515626-.267578-.0912869-.08335-.174589-.125-.25-.125-.055565 0-.1047785.015189-.1484374.042968-.039691.02381-.0737799.05595-.1015626.09961l-.3144531.513672c.2818004.313552.6225665.563455 1.0234375.75.4048402.182575.8478733.273437 1.328125.273437.3969019 0 .7490102-.0644 1.0585938-.191406.3095834-.127009.5708919-.301171.78125-.523437.2143271-.222268.3751959-.481621.4863281-.779297.1111328-.301646.1679687-.6254.1679687-.970703.0000002-.321491-.051102-.594142-.1542968-.816407-.0992257-.222267-.2336919-.407772-.4003906-.558593-.1627299-.154793-.3482355-.281634-.5585938-.38086-.210358-.103194-.424282-.19601-.6425781-.27539-.2182959-.079381-.4341733-.155058-.6445313-.230469-.2103582-.075412-.3977543-.164447-.5644531-.263672-.1172028-.0743246-.2126383-.1628939-.2988281-.2578126-.4295146-.2671064-.7246094-.7402508-.7246094-1.2714844zm3 .0019531v.2304687c.0317371.0223087.0745851.0467773.1015625.0683594.083349.05953.1533546.0898438.2128906.0898438.0211585 0 .0373146-.0129521.0566407-.0175782z" fill="#3a3a38"/><g transform="translate(1)"><path d="m3.5 0c-.277 0-.5.223-.5.5v1.5507812a2.5 2.5 0 0 0 -.8789062.3652344l-2.26562505-2.26562498c-.19586858-.19586857-.51116267-.19586857-.70703125 0-.1958686.19586858-.1958686.51116268 0 .70703126l2.265625 2.26562502a2.5 2.5 0 0 0 -.359375.8769531h-1.5546875c-.277 0-.5.223-.5.5s.223.5.5.5h1.5507812a2.5 2.5 0 0 0 .3652344.8769531l-2.2675781 2.2675781c-.1958685.1958687-.1958685.5111627 0 .7070313.19586857.1958685.51116267.1958685.70703125 0l2.26757815-2.2675781a2.5 2.5 0 0 0 .8769531.3613281v1.5546875c0 .277.223.5.5.5s.5-.223.5-.5v-1.5507812a2.5 2.5 0 0 0 .875-.3652344l2.2675781 2.2675781c.1958686.1958686.5111627.1958686.7070313 0s.1958686-.5111626 0-.7070313l-2.265625-2.265625a2.5 2.5 0 0 0 .3613281-.8789062h1.5546875c.277 0 .5-.223.5-.5s-.223-.5-.5-.5h-1.5507812a2.5 2.5 0 0 0 -.3652344-.8769531l2.265625-2.26562502c.1958686-.19586858.1958686-.51116268 0-.70703126-.1958686-.19586857-.5111627-.19586857-.7070313 0l-2.265625 2.26562498a2.5 2.5 0 0 0 -.8769531-.3613281v-1.5546875c0-.277-.223-.5-.5-.5zm0 3a1.5 1.5 0 0 1 1.5 1.5 1.5 1.5 0 0 1 -1.5 1.5 1.5 1.5 0 0 1 -1.5-1.5 1.5 1.5 0 0 1 .4394531-1.0585938 1.5 1.5 0 0 1 .0019531-.0019531 1.5 1.5 0 0 1 1.0585938-.4394531z" fill="#fb983b"/><circle cx="3.5" cy="4.5" fill="#fafafa" r="1.5"/></g></svg>