<svg viewBox="0 0 24 24" xmlns="http://www.w3.org/2000/svg"><path d="m3 3c-.554 0-1 .446-1 1v15c0 .554.446 1 1 1h11.855469v-.605469c0-.141046.02979-.273063.08203-.394531h-11.937499c0-5 0-10 0-15 6.0063845-.00656 11.993847 0 18 0 .01509 3.6363529 0 7.210428 0 10.841797l1 .998047c0-3.946615 0-7.8932293 0-11.839844 0-.554-.446-1-1-1z" fill="#3a3a38"/><path d="m3 4h18v4h-18z" fill="#797774"/><path d="m3 8v11h14.927734l.01758-.01758h-6.396484l.01367-.002c-.787815.01114-1.511719-.702341-1.511719-1.490235s.723904-1.501376 1.511719-1.490234l-.01367-.002h6.384766l-.435549-.435451c-.429819-.415386-.568677-1.101778-.335938-1.652344.232243-.549391.819882-.92729 1.416016-.910156h.002c.381581.01111.756648.174217 1.023438.447266l1.396437 1.394531v-6.841797z" fill="#fafafa"/><path d="m18.510001 13.990234a.50005.50005 0 0 1 .34375.150391l2.957031 2.953125a.50005.50005 0 0 1 .002.792969l-2.957032 2.960937a.50005.50005 0 1 1 -.708984-.705078l2.148391-2.152344h-8.787109a.50005.50005 0 1 1 0-1h8.783203l-2.144531-2.140625a.50005.50005 0 0 1 .363281-.859375z" fill="#1e8bcd" fill-rule="evenodd"/><path d="m3 8h18v1h-18z" fill="#3a3a38"/></svg>