<svg viewBox="0 0 24 24" xmlns="http://www.w3.org/2000/svg"><path d="m9 11v9h1.894531l-.40625-.40625.095703.083984c-.7599129-.587102-.7570461-1.795644.00586-2.378906l-.09961.087891 2.949219-2.945313c.093794-.09599.24152-.08936.355469-.15625a1.0001 1.0001 0 0 1 .671875-.294922h.001953s.001953.001954.001953.001954c.01-.000301.017344.007882.027344.007812v-.009766a1.0001 1.0001 0 0 1 .550781.169922c.374302.156209.699878.401132.845703.746094.21893.517899.121689 1.217962-.33789 1.662109l-.421875.421875h4.865234v-5.990234zm6.123047 8.990234.009765.009766h4.867188v-.009766z" fill="#fafafa"/><path d="m4 3c-.554 0-1 .446-1 1v9c0 .554.446 1 1 1h11c.554 0 1-.446 1-1v-9c0-.554-.446-1-1-1zm0 1h11v9h-11z" fill="#3a3a38"/><path d="m4 4h11v9h-11z" fill="#fafafa"/><path d="m9 10c-.554 0-1 .446-1 1v9c0 .554.446 1 1 1h2.892578l-.998047-1h-1.894531v-6-3h7 4v5.990234h1v-5.990234c0-.554-.446-1-1-1zm11 9.990234v.009766h-4.867188l.423829.423828c.162236.156686.284675.360091.365234.576172h4.078125c.554 0 1-.446 1-1v-.009766z" fill="#3a3a38"/><g fill="#0063b1"><path d="m2 2h3v3h-3z"/><path d="m19 2h3v3h-3z"/><path d="m2 19h3v3h-3z"/></g><g fill="#fafafa"><path d="m3 3h1v1h-1z"/><path d="m20 3h1v1h-1z"/><path d="m3 20h1v1h-1z"/></g><path d="m14.498071 14.990234a.50005.50005 0 0 0 -.34375.150391l-2.957031 2.953125a.50005.50005 0 0 0 -.002.792969l2.957032 2.960937a.50005.50005 0 1 0 .708984-.705078l-2.148437-2.152344h8.787108a.50005.50005 0 1 0 0-1h-8.783202l2.144531-2.140625a.50005.50005 0 0 0 -.363281-.859375z" fill="#1e8bcd" fill-rule="evenodd"/></svg>