<svg viewBox="0 0 24 24" xmlns="http://www.w3.org/2000/svg"><path d="m4 3v18h4.0039062v-11.5a1.4960638 1.4960638 0 0 1 1.46875-1.4960938 1.4960638 1.4960638 0 0 1 .9707028.3339844l7.556641 6.1367184v-7.7460934l-4-3.7285156zm13.162109 15.996094.837891 1.728515v-1.728515z" fill="#fafafa"/><path d="m4 2c-.554 0-1 .446-1 1v18c0 .554.446 1 1 1h4.0039062v-1h-4.0039062v-18h9v4c0 .554.446 1 1 1h4v6.474609l1 .8125v-4.396484-3.640625-.2089844c0-.4506799.098038-.4254121-.605469-1.0664062l-3.30664-3.2382813c-.709525-.7368575-.710169-.7363281-1.09375-.7363281h-.332032-.662109zm14 16.996094v1.728515l.15625.322266a1.4960638 1.4960638 0 0 1 .064453.154297c.08224.23329.118511.480131.134766.728516.376565-.143213.644531-.50167.644531-.929688v-2.003906zm-5.736328 2.71875-.263672.285156h.398438z" fill="#3a3a38"/><g fill="#fafafa" fill-rule="evenodd"><path d="m14 7h4l-4-4z"/><path d="m9.5 9.5 9.85125 8h-4.576441l2.034843 4.198667c.570475 1.618275-1.996658 2.225126-2.424513 1.011422l-1.711421-3.641118-3.173718 3.431029z" stroke="#3a3a38" stroke-linejoin="round"/></g></svg>