<svg viewBox="0 0 24 24" xmlns="http://www.w3.org/2000/svg"><g fill="#fb983b" transform="translate(-2 -10)"><path d="m20.419922 11c-.189562 0-.378184.07172-.523438.216797l-1.673828 1.669922 2.847656 2.849609 1.710938-1.638672c.290506-.290127.290506-.756747 0-1.046875l-1.835938-1.833984c-.145254-.145064-.335828-.216797-.52539-.216797zm0 .990234 1.582031 1.580078-.917969.88086-1.5625-1.5625z" fill="#3a3a38" transform="translate(1 1)"/><path d="m21.419922 12.990234-.898438.898438 1.5625 1.5625.917969-.88086z" fill="#fafafa"/><g transform="translate(1 1)"><path d="m8.708984 22.376953-.002-.002-.706984.707078.002.002-.05078.05078-.95122 3.865189 3.806641-1.011719 10.24414-10.271484-2.828125-2.830078zm9.511719-8.191406 1.53125 1.533203-8.841797 8.861328-1.550781-1.552734zm-9.509765 9.708984 1.34375 1.341797-1.791016.476563z" fill="#3a3a38"/><path d="m18.220703 14.185547 1.53125 1.533203-8.841797 8.861328-1.550781-1.552734zm-9.509765 9.708984 1.34375 1.341797-1.791016.476563z" fill="#fafafa"/></g><path d="m12.5 12.5h-7c.5258883 3.07596 1.8340995 5.376723 3.0000001 7.999999l-2.5 3.000001v1l2 3 1.5 3c2.8759689 1.974167 4.6886909 2.413914 7.9999999 2l2-1c3.565773-1.593572 4.069176-4.053409 4.5-7.5l-.5-.5" fill="none" stroke="#0063b1"/></g></svg>