<svg viewBox="0 0 24 24" xmlns="http://www.w3.org/2000/svg"><path d="m3 6h18v14h-18z" fill="#fafafa"/><path d="m2 3v1 2 14c0 .554.446 1 1 1h18c.554 0 1-.446 1-1v-14-2-1h-1-18zm1 3h18v14h-18zm13.5 1a.5.5 0 0 0 -.386719.1835938l-8.9960935 10.9941402a.5.5 0 1 0 .7828125.632813l9-10.9941408a.5.5 0 0 0 -.4-.8164062zm-8.5 0a2 2 0 0 0 -2 2 2 2 0 0 0 2 2 2 2 0 0 0 2-2 2 2 0 0 0 -2-2zm0 1a1 1 0 0 1 1 1 1 1 0 0 1 -1 1 1 1 0 0 1 -1-1 1 1 0 0 1 1-1zm8 7a2 2 0 0 0 -2 2 2 2 0 0 0 2 2 2 2 0 0 0 2-2 2 2 0 0 0 -2-2zm0 1a1 1 0 0 1 1 1 1 1 0 0 1 -1 1 1 1 0 0 1 -1-1 1 1 0 0 1 1-1z" fill="#3a3a38"/><path d="m2 3h20v3h-20z" fill="#0063b1"/><path d="m3 4.0536435h18v.9463565h-18z" fill="#83beec" stroke-width=".532829"/></svg>