<svg viewBox="0 0 24 24" xmlns="http://www.w3.org/2000/svg"><path d="m2 7v5h5v-5z" fill="#18ab50"/><path d="m2 2v5h5v-5z" fill="#1e8bcd"/><path d="m7 7v5h5v-5z" fill="#fb983b"/><path d="m7 2v5h5v-5z" fill="#ed3d3b"/><path d="m12 7v5h5v-5z" fill="#18ab50"/><path d="m12 2v5h5v-5z" fill="#1e8bcd"/><path d="m17 7v5h5v-5z" fill="#fb983b"/><path d="m17 2v5h5v-5z" fill="#ed3d3b"/><path d="m2 17v5h5v-5z" fill="#18ab50"/><path d="m2 12v5h5v-5z" fill="#1e8bcd"/><path d="m7 17v5h5v-5z" fill="#fb983b"/><path d="m7 12v5h5v-5z" fill="#ed3d3b"/><path d="m12 17v5h5v-5z" fill="#18ab50"/><path d="m12 12v5h5v-5z" fill="#1e8bcd"/><path d="m17 17v5h5v-5z" fill="#fb983b"/><path d="m17 12v5h5v-5z" fill="#ed3d3b"/></svg>