<svg viewBox="0 0 24 24" xmlns="http://www.w3.org/2000/svg"><path d="m9.5 4c.813703 0 1.5.6862972 1.5 1.5s-.686297 1.5-1.5 1.5h-.3808594l1.4375004 1.4375c.575282.5752835.575283 1.5458102 0 2.121094-.5752842.575284-1.5458103.575284-2.1210941 0l-1.4355469-1.4355471v.3769531c0 .813703-.6862972 1.5-1.5 1.5s-1.5-.686297-1.5-1.5v11.5h17v-17z" fill="#fafafa"/><path d="m10.121094 3-1.0000002 1h.3789062 11.5v7 3 7h-17v-7-3-1.5-.3789062l-1 1.0000002v.878906 3 7c0 .1385.027656.270906.078125.390625.045898.108876.1159865.202191.1953125.287109.020859.022385.0435803.040163.0664063.060547.065922.058884.1367928.108595.2167968.148438.030712.015361.0593619.030773.0917969.042969.11003.041342.2267265.070312.3515625.070312h17c.124837 0 .241533-.02897.351562-.070312.032436-.012196.061085-.027608.091797-.042969.080004-.039843.150875-.089554.216797-.148438.022826-.020384.045548-.038162.066406-.060547.079327-.084918.149415-.178233.195313-.287109.050469-.119719.078125-.252125.078125-.390625v-7-3-7c0-.124836-.02897-.2415335-.070312-.3515625-.012196-.03244-.027608-.0610769-.042969-.0917969-.039843-.08-.089554-.1508748-.148438-.2167968-.020384-.02283-.038162-.0455463-.060547-.0664063-.084918-.07933-.178233-.1494165-.287109-.1953125-.119719-.050462-.252125-.078125-.390625-.078125z" fill="#3a3a38"/><path d="m15.5 9c-.127791 0-.255581.0485504-.353516.1464844l-2.646484 2.6464846-1.65625-1.65625c-.070541.152777-.163133.297898-.287109.421875-.123334.123334-.268045.214705-.419922.285156l1.65625 1.65625-2.6464846 2.646484c-.195868.195869-.195868.511163 0 .707032.195869.195868.5111622.195868.7070312 0l2.6464844-2.646485 2.646484 2.646485c.097935.097934.225706.146484.353516.146484s.255581-.04855.353516-.146484c.195869-.195869.195869-.511163 0-.707032l-2.646485-2.646484 2.646485-2.6464844c.195868-.195869.195868-.5111622 0-.7070312-.097935-.097934-.225725-.1464844-.353516-.1464844z" fill="#1e8bcd"/><g transform="translate(2 1)"><path d="m3.5 0c-.277 0-.5.223-.5.5v1.5507812a2.5 2.5 0 0 0 -.8789062.3652344l-2.26562505-2.26562498c-.19586858-.19586857-.51116267-.19586857-.70703125 0-.1958686.19586858-.1958686.51116268 0 .70703126l2.265625 2.26562502a2.5 2.5 0 0 0 -.359375.8769531h-1.5546875c-.277 0-.5.223-.5.5s.223.5.5.5h1.5507812a2.5 2.5 0 0 0 .3652344.8769531l-2.2675781 2.2675781c-.1958685.1958687-.1958685.5111627 0 .7070313.19586857.1958685.51116267.1958685.70703125 0l2.26757815-2.2675781a2.5 2.5 0 0 0 .8769531.3613281v1.5546875c0 .277.223.5.5.5s.5-.223.5-.5v-1.5507812a2.5 2.5 0 0 0 .875-.3652344l2.2675781 2.2675781c.1958686.1958686.5111627.1958686.7070313 0s.1958686-.5111626 0-.7070313l-2.265625-2.265625a2.5 2.5 0 0 0 .3613281-.8789062h1.5546875c.277 0 .5-.223.5-.5s-.223-.5-.5-.5h-1.5507812a2.5 2.5 0 0 0 -.3652344-.8769531l2.265625-2.26562502c.1958686-.19586858.1958686-.51116268 0-.70703126-.1958686-.19586857-.5111627-.19586857-.7070313 0l-2.265625 2.26562498a2.5 2.5 0 0 0 -.8769531-.3613281v-1.5546875c0-.277-.223-.5-.5-.5zm0 3a1.5 1.5 0 0 1 1.5 1.5 1.5 1.5 0 0 1 -1.5 1.5 1.5 1.5 0 0 1 -1.5-1.5 1.5 1.5 0 0 1 .4394531-1.0585938 1.5 1.5 0 0 1 .0019531-.0019531 1.5 1.5 0 0 1 1.0585938-.4394531z" fill="#fb983b"/><circle cx="3.5" cy="4.5" fill="#fafafa" r="1.5"/></g></svg>