<svg viewBox="0 0 24 24" xmlns="http://www.w3.org/2000/svg"><path d="m3 8c-.554 0-1 .446-1 1v10c0 .554.446 1 1 1h10c.554 0 1-.446 1-1v-10c0-.554-.446-1-1-1zm0 1h10v10h-10z" fill="#3a3a38"/><path d="m3 9h10v10h-10z" fill="#fafafa"/><g transform="translate(8 -6)"><path d="m8 8a6 6 0 0 0 -6 6 6 6 0 0 0 6 6 6 6 0 0 0 6-6 6 6 0 0 0 -6-6zm0 1a5 5 0 0 1 5 5 5 5 0 0 1 -5 5 5 5 0 0 1 -5-5 5 5 0 0 1 5-5z" fill="#3a3a38"/><circle cx="8" cy="14" fill="#fafafa" r="5"/></g><path d="m15 21.533351 6.533351-6.533352-6.533351-6.5333503-6.5333514 6.5333503z" style="fill:#fafafa;fill-rule:evenodd;stroke:#3a3a38;stroke-width:.933336;stroke-linecap:round;stroke-linejoin:round"/></svg>