<svg height="24" viewBox="0 0 6.3499999 6.3500002" width="24" xmlns="http://www.w3.org/2000/svg"><g transform="matrix(-1 0 0 -1 6.35 297.00002)"><path d="m.79375 291.44375v4.7625h4.7625v-4.7625zm.6909139.79427c.095975.007.1872385.0498.2568319.11937l1.4324708 1.43247v-.36174c0-.21592.1819836-.3979.3979084-.3979.2159249 0 .3979085.18198.3979085.3979v1.32292c0 .089-.013388.10979-.00568.0522a.2657887.2657887 0 0 1 -.0005291.003c.0008731-.006-.00281.0275-.017571.0724-.038998.1145-.1325044.20802-.2470131.24701-.044752.0147-.078541.0185-.072347.0176a.2657887.2657887 0 0 1 -.00259.00052c.057631-.008.036787.006-.052193.006h-1.3229234c-.2159034-.00001-.3978871-.18199-.397887-.39792-.0000001-.21592.1819836-.39791.3979085-.39791h.361735l-1.4324707-1.43247c-.1382168-.1382-.1755781-.38769-.013436-.54983l.026872-.0269c.082828-.0828.1969335-.11338.2930054-.10593z" fill="#fafafa" stroke-width=".264583"/><path d="m2.1166667 291.44375v.52917h-1.3229167v.26458h1.3229167v.49506l.2645833.26458v-.75964h1.5875v.79375h-.3870565c.1654323.004.3079109.11476.3627686.26458h.024288v.12248c.0000871.003.00103.006.00103.01v1.32291c0 .008-.0008202.008-.00103.015v.38189h-.3818888c-.00705.0002-.00677.001-.014986.001h-1.3229167c-.046302 0-.090571-.0101-.1322916-.0253v.0243h-1.322917v.26458h1.3229167v.79375h.2645833v-.79375h1.5875v.79375h.2645834v-.79394h1.3229166v-.26458h-1.3229166v-.79375h1.3229166v-.26459h-1.3229166v-.79375h1.3229166v-.26458h-1.3229166v-.79375h1.3229166v-.26458h-1.3229166v-.52917h-.2645834v.52917h-1.5875v-.52917zm-1.3229167 1.5875v.26458h.7596436l-.2645834-.26458zm1.6216065 0 .2645832.26458h.5193483c.054858-.14982.1973363-.26026.3627686-.26458zm-.2986898.82786v.23047h-1.3229167v.26459h1.3229167v.0243c.041721-.0153.08599-.0253.1322917-.0253h.361735z" fill="#797774" stroke-width=".264583"/><path d="m4.2333334 295.4125h1.3229166v.79375h-1.3229166z" fill="#83beec" stroke-width=".170788"/><path d="m.79375 291.17917c-.14657916 0-.26458333.118-.26458333.26458v4.7625c0 .14658.11800417.26458.26458333.26458h4.7625c.1465792 0 .2645834-.118.2645834-.26458v-4.7625c0-.14658-.1180042-.26458-.2645834-.26458zm0 .26458h1.3229167.2645833 1.5875.2645834 1.3229166v1.5875.26458.79375.26459.79375.26458.79375h-1.3229166-.2645834-1.5875-.2645833-1.3229167v-.79375-.26458-.79375-.26459-.79375-.26458z" fill="#3a3a38" stroke-width=".264583"/><g fill="#0063b1"><path d="m3.96875 295.14792v.26458.79375.26458h1.5875c.1465792 0 .2645834-.118.2645834-.26458v-.79375-.26458h-.2645834zm.2645834.26458h1.3229166v.79375h-1.3229166z" stroke-width=".264583"/><path d="m1.4639933 292.50312c-.031384-.002-.062047.007-.084233.0289l-.026872.0269c-.044371.0444-.038391.12181.013436.17363l1.88619 1.88619h-1.0035559c-.07329 0-.1322917.059-.1322917.13229 0 .0733.059002.13229.1322917.13229h1.3229166c.00606 0 .011213-.003.017052-.004.00833-.001.016555-.002.024289-.005.039472-.0131.069595-.0432.082682-.0827.00304-.008.00346-.0159.00465-.0243.0007829-.006.00362-.011.00362-.017v-1.32292c0-.0733-.059002-.13229-.1322917-.13229-.07329 0-.1322916.059-.1322916.13229v1.00356l-1.8861898-1.88619c-.025913-.0259-.058016-.0399-.0894-.0424z"/></g></g></svg>