<svg viewBox="0 0 24 24" xmlns="http://www.w3.org/2000/svg"><path d="m3 3h18v18h-18z" fill="#fafafa"/><path d="m2 2v20h20v-20zm1 1h18v18h-18z" fill="#3a3a38"/><circle cx="7.5" cy="7.5" fill="#ed8733" r="2.5"/><path d="m16 12.5-6 6-1.5-1.5-4 4h16.5v-3.5z" fill="#83beef"/><path d="m16 11-6 6-1.5-1.5-5.5 5.5h1.5l4-4 1.5 1.5 6-6 5 5v-1.5z" fill="#0063b1"/><path d="m9 7.5a1.5 1.5 0 0 1 -1.5 1.5 1.5 1.5 0 0 1 -1.5-1.5 1.5 1.5 0 0 1 1.5-1.5 1.5 1.5 0 0 1 1.5 1.5z" fill="#f8db8f"/><path d="m11 7h10v8h-10z" fill="#fafafa" fill-opacity=".5"/><path d="m10 6v1 8 1h11 1v-1-8-1h-1-10zm1 1h10v8h-10z" fill="#d42314"/></svg>