<svg viewBox="0 0 24 24" xmlns="http://www.w3.org/2000/svg"><path d="m12 2c-5.5228488 0-9.0000019 3.9175089-9 8.75 0 4.25 1.8908055 6.695601 5 8.25l1 .5v1.5h-5.75c-.992825-.26605-1.2087-1.27845-1.25-1.546875v2.546875h8.007812v-2.5-.507812l-.664062-.273438c-2.113559-.904023-5.281566-3.414408-5.34375-7.71875-.0000099-4.4873253 4-8 8-8s8.00001 3.5126747 8 8c-.062184 4.304342-3.230191 6.814727-5.34375 7.71875l-.664062.273438v.507812 2.5h8.007812v-2.546875c-.0413.268425-.257175 1.280825-1.25 1.546875h-5.75v-1.5l1-.5c3.109194-1.554399 5-4 5-8.25.000002-4.8324911-3.477151-8.75-9-8.75z" fill="#3a3a38"/></svg>