<svg viewBox="0 0 24 24" xmlns="http://www.w3.org/2000/svg"><path d="m3 4h17v15h-17z" fill="#fafafa"/><path d="m6 4v3h-3v1h3v3h-3v1h3v3h-3v1h3v3h1v-3h9v3h1v-3h3v-1h-3v-3h3v-1h-3v-3h3v-1h-3v-3h-1v3h-9v-3zm1 4h9v3h-9zm0 4h9v3h-9z" fill="#797774"/><path d="m2 3v1 15c0 .554.446 1 1 1h17c.554 0 1-.446 1-1v-15-1zm1 1h17v15h-17z" fill="#3a3a38"/><path d="m10 5.5a1 1 0 0 1 -1 1 1 1 0 0 1 -1-1 1 1 0 0 1 1-1 1 1 0 0 1 1 1z" fill="#18ab50"/><path d="m10 9.5a1 1 0 0 1 -1 1 1 1 0 0 1 -1-1 1 1 0 0 1 1-1 1 1 0 0 1 1 1z" fill="#ed3d3b"/><path d="m11 5h4v1h-4z" fill="#797774"/><path d="m11 9h4v1h-4z" fill="#797774"/><path d="m10 13.5a1 1 0 0 1 -1 1 1 1 0 0 1 -1-1 1 1 0 0 1 1-1 1 1 0 0 1 1 1z" fill="#18ab50"/><path d="m10 17.5a1 1 0 0 1 -1 1 1 1 0 0 1 -1-1 1 1 0 0 1 1-1 1 1 0 0 1 1 1z" fill="#ed3d3b"/><g fill="#797774"><path d="m11 13h4v1h-4z"/><path d="m11 17h4v1h-4z"/></g></svg>