<svg height="24" viewBox="0 0 6.3499998 6.3500002" width="24" xmlns="http://www.w3.org/2000/svg"><g transform="translate(0 -290.64998)"><path d="m15 8v4.875l2.568359 2.5625c.440426.439446.556615 1.078746.332032 1.630859a1.0036208 1.0036208 0 0 1 0 .007813c-.081087.197631-.205767.359449-.332032.486328l-3.003906 3.005859c-.289232.288832-.675619.431575-1.0625.431641h7.498047v-10.294922l-2.695312-2.705078zm-1.498047 13c-.38688.000066-.773269-.142545-1.0625-.431641-.57854-.578494-.579542-1.548231 0-2.126953l.433594-.435547h-1.873047v2.994141z" fill="#fafafa" transform="matrix(.26458333 0 0 .26458333 0 290.64998)"/><path d="m15 7v1h2v3.5c0 .277039.223.5.5.5h3.5v9h-7.498047-2.501953v-2.994141h-.503906c-.166682-.000048-.330697-.031641-.496094-.050781v3.044922c0 .554003.446 1 1 1h10c.554 0 1-.445997 1-1v-9.5-.863281l-3.636719-3.636719h-.863281zm3 1 3 3h-3zm-8 7v.138672a1.0036208 1.0036208 0 0 1 .414062-.138672zm0 1.857422v.095703c.125169.009588.23132.012979.349609.033203a1.0036208 1.0036208 0 0 1 -.349609-.128906z" fill="#3a3a38" transform="matrix(.26458333 0 0 .26458333 0 290.64998)"/><path d="m4.7625 292.76664.79375.79375h-.79375z" fill="#fafafa" stroke-width=".264583"/><path d="m1.984375 292.76664c-.07329 0-.1322916.059-.1322916.13229v1.32292a.92604167.92604167 0 0 0 .9260416.92604h1.2691732l-.5689576.56844c-.051871.0518-.051824.13525 0 .18707.051823.0518.1351978.0518.1870689 0l.7947834-.79375c.012851-.0129.022974-.0276.029456-.0434.0000643-.00016-.0000638-.00037 0-.00053.019444-.0478.00945-.10431-.029456-.14314l-.7947834-.79375c-.051871-.0518-.1352452-.0518-.1870689 0-.051823.0518-.051871.13529 0 .18707l.5679241.56742h-1.2681397a.66145833.66145833 0 0 1 -.6614583-.66147v-1.32292c0-.0733-.059002-.13229-.1322917-.13229z" fill="#1e8bcd"/><g transform="matrix(.26458333 0 0 .26458333 0 290.91456)"><rect fill="#922e9b" height="12" rx="0" ry=".5" width="12" x="2" y="1"/><g fill="#fafafa" transform="translate(-11 -12)"><path d="m15 14h8v3h-8z"/><path d="m17 21c-.554 0-1 .446-1 1v1c0 .554.446 1 1 1v-2h1v2h3c.554 0 1-.446 1-1v-1c0-.554-.446-1-1-1z"/></g><path d="m3 6v6h1v-3c0-.554.446-1 1-1h6c.554 0 1 .446 1 1v3h1v-6h-1-8z" fill="#d492d8"/></g></g></svg>