<svg viewBox="0 0 24 24" xmlns="http://www.w3.org/2000/svg"><path d="m3 8c-.554 0-1 .446-1 1v10c0 .554.446 1 1 1h10c.554 0 1-.446 1-1v-10c0-.554-.446-1-1-1zm0 1h10v10h-10z" fill="#3a3a38"/><path d="m3 9h10v10h-10z" fill="#fafafa"/><g transform="translate(8 -6)"><path d="m8 8a6 6 0 0 0 -6 6 6 6 0 0 0 6 6 6 6 0 0 0 6-6 6 6 0 0 0 -6-6zm0 1a5 5 0 0 1 5 5 5 5 0 0 1 -5 5 5 5 0 0 1 -5-5 5 5 0 0 1 5-5z" fill="#3a3a38"/><path d="m13 14a5 5 0 0 1 -5 5 5 5 0 0 1 -5-5 5 5 0 0 1 5-5 5 5 0 0 1 5 5z" fill="#fafafa"/></g><g fill-rule="evenodd"><path d="m14.992188 8a.46684355.46684355 0 0 0 -.322266.1367188l-6.5332032 6.5332032a.46684355.46684355 0 0 0 0 .660156l6.5332032 6.533203a.46684355.46684355 0 0 0 .660156 0l6.533203-6.533203a.46684355.46684355 0 0 0 0-.660156l-6.533203-6.5332032a.46684355.46684355 0 0 0 -.33789-.1367188z" fill="#3a3a38"/><path d="m15 9-6 6 6 6 6-6z" fill="#fafafa"/></g></svg>