<svg viewBox="0 0 24 24" xmlns="http://www.w3.org/2000/svg"><path d="m5 3v18h14v-14.2705905l-4-3.7294095z" fill="#fafafa"/><path d="m5 2c-.554 0-1 .446-1 1v18c0 .554.446 1 1 1h14c.554 0 1-.446 1-1v-10.109375-3.6412209-.2079239c0-.4506799.09887-.4265951-.604637-1.0675892l-3.307389-3.2370335c-.709525-.7368575-.711223-.7368575-1.094804-.7368575h-.331557-.661613zm0 1h9v4c0 .554.446 1 1 1h4v13h-14z" fill="#3a3a38"/><path d="m15 7h4l-4-4z" fill="#fafafa" fill-rule="evenodd"/><rect fill="#797774" height="1" ry=".5" width="7" x="6" y="5"/><rect fill="#797774" height="1" ry=".5" width="7" x="6" y="8"/><g fill="#1e8bcd"><rect height="1" ry=".5" width="5" x="6" y="11"/><rect height="1" ry=".5" width="5" x="13" y="11"/><rect height="1" ry=".5" width="5" x="6" y="14"/><rect height="1" ry=".5" width="5" x="13" y="14"/></g><rect fill="#797774" height="1" ry=".482023" width="12" x="6" y="17"/></svg>