<svg viewBox="0 0 24 24" xmlns="http://www.w3.org/2000/svg"><g fill="#3a3a38"><path d="m3 2c-.554 0-1 .446-1 1v4c0 .554.446 1 1 1h7c.554 0 1-.446 1-1v-4c0-.554-.446-1-1-1zm0 1h7v4h-7z"/><path d="m14 9c-.554 0-1 .446-1 1v4c0 .554.446 1 1 1h7c.554 0 1-.446 1-1v-4c0-.554-.446-1-1-1zm0 1h7v4h-7z"/><path d="m14 16c-.554 0-1 .446-1 1v4c0 .554.446 1 1 1h7c.554 0 1-.446 1-1v-4c0-.554-.446-1-1-1zm0 1h7v4h-7z"/></g><g fill="#fafafa"><path d="m14 10h7v4h-7z"/><path d="m14 17h7v4h-7z"/><path d="m3 3h7v4h-7z"/></g><path d="m6 8v11h1 6v-1h-6v-6h6v-1h-6v-3z" fill="#3a3a38"/></svg>