<svg viewBox="0 0 24 24" xmlns="http://www.w3.org/2000/svg"><path d="m4 3c-.554 0-1 .446-1 1v9c0 .554.446 1 1 1h11c.554 0 1-.446 1-1v-9c0-.554-.446-1-1-1zm0 1h11v9h-11z" fill="#3a3a38"/><path d="m4 4h11v9h-11z" fill="#fafafa"/><g fill="#3a3a38"><path d="m9 10c-.554 0-1 .446-1 1v9c0 .554.446 1 1 1h8.076172c.08822-.229036.224537-.442298.402344-.601562l.396484-.398438h-8.875v-9h11v3.873047l1 .998047v-4.871094c0-.554-.446-1-1-1z"/><path d="m2 2h3v3h-3z"/><path d="m19 2h3v3h-3z"/><path d="m2 19h3v3h-3z"/></g><g fill="#fafafa"><path d="m9 11v9h8.875l.009766-.009766h-6.363282c-.420168.005943-.867654-.182805-1.138672-.484375-.271015-.30157-.382812-.666177-.382812-1.015625 0-.349447.111796-.714055.382812-1.015625.271018-.30157.718504-.490275 1.138672-.484375h6.351563l-.421875-.421875c-.452852-.438274-.556085-1.125408-.347656-1.640625.207997-.514149.758145-.9356 1.386718-.9375h.001954c.404468-.001027.793315.161987 1.076171.451172l.431641.431641v-3.873047z"/><path d="m3 3h1v1h-1z"/><path d="m20 3h1v1h-1z"/><path d="m3 20h1v1h-1z"/></g><path d="m18.494141 14.990234a.50005.50005 0 0 0 -.347657.859375l2.144532 2.140625h-8.783204a.50005.50005 0 1 0 0 1h8.78711l-2.148438 2.152344a.50005.50005 0 1 0 .707032.705078l2.957031-2.960937a.50005.50005 0 0 0 -.0039-.796875l-2.953125-2.949219a.50005.50005 0 0 0 -.359375-.150391z" fill="#1e8bcd" fill-rule="evenodd"/></svg>