<svg viewBox="0 0 24 24" xmlns="http://www.w3.org/2000/svg"><path d="m3 4v5.1054688 9.1113282.783203h.8085938 7.8652342c.108615-.108547.217577-.215672.326172-.324219.108595.108547.217557.215672.326172.324219h.048828l8.625-8.902344v-.9921872-5.1054688z" fill="#1e8bcd"/><path d="m2 3v17h7.5 1.455078.451172l.96875-1h-.701172-2.173828-6.5v-15h18v5.1054688.9921872l1-1.0332029v-6.0644531z" fill="#3a3a38"/><path d="m4 5v1 2 1h16v-1-2-1zm1 1h14v2h-14zm-1 4v1 6 1h9.34375l.96875-1h-9.3125v-6h14v1.162109l1-1.033203v-.128906-1z" fill="#fafafa"/><path d="m22.499933 10.5-10.5 11h10.5zm-2 5v4h-4z" fill="#f8db8f" fill-rule="evenodd" stroke="#ed8733" stroke-linecap="round" stroke-linejoin="round"/></svg>