<svg height="24" viewBox="0 0 24 24" width="24" xmlns="http://www.w3.org/2000/svg" xmlns:xlink="http://www.w3.org/1999/xlink"><linearGradient id="a"><stop offset="0" stop-color="#e9e9e9"/><stop offset=".2857143" stop-color="#f2f2f2"/><stop offset="1" stop-color="#fbfbfb"/></linearGradient><linearGradient id="b" gradientUnits="userSpaceOnUse" x1="9" x2="9" xlink:href="#a" y1="13" y2="4"/><linearGradient id="c" gradientUnits="userSpaceOnUse" x1="6" x2="5.5" xlink:href="#a" y1="18" y2="10"/>



/&amp;amp;amp;amp;amp;amp;gt;<path d="m11 8a5 5 0 0 1 -5 5 5 5 0 0 1 -5-5 5 5 0 0 1 5-5 5 5 0 0 1 5 5z" fill="#3a3a38"/><path d="m10 8a4 4 0 0 1 -4 4 4 4 0 0 1 -4-4 4 4 0 0 1 4-4 4 4 0 0 1 4 4z" fill="url(#c)"/><path d="m8 8a2 2 0 0 1 -2 2 2 2 0 0 1 -2-2 2 2 0 0 1 2-2 2 2 0 0 1 2 2z" fill="#1e8bcd"/><path d="m13 3c-.554 0-1 .446-1 1v8c0 .554.446 1 1 1h9c.554 0 1-.446 1-1v-8c0-.554-.446-1-1-1zm0 1h8v7h-8z" fill="#3a3a38"/><path d="m13 4h8v7h-8z" fill="url(#b)"/><g fill="#1e8bcd"><path d="m7.5 17.5a1.5 1.5 0 0 1 -1.5 1.5 1.5 1.5 0 0 1 -1.5-1.5 1.5 1.5 0 0 1 1.5-1.5 1.5 1.5 0 0 1 1.5 1.5z"/><path d="m13.5 17.5a1.5 1.5 0 0 1 -1.5 1.5 1.5 1.5 0 0 1 -1.5-1.5 1.5 1.5 0 0 1 1.5-1.5 1.5 1.5 0 0 1 1.5 1.5z"/><path d="m19.5 17.5a1.5 1.5 0 0 1 -1.5 1.5 1.5 1.5 0 0 1 -1.5-1.5 1.5 1.5 0 0 1 1.5-1.5 1.5 1.5 0 0 1 1.5 1.5z"/></g></svg>