<svg viewBox="0 0 24 24" xmlns="http://www.w3.org/2000/svg"><path d="m3 3v16h1v-14c0-.554.446-1 1-1h10v-1zm2 2v16h8.128906c.338038-1.434718 1.371462-2.597753 2.72461-3.291016-.508743-.608228-.853516-1.361119-.853516-2.208984 0-1.383152.824694-2.5777 2-3.144531v-7.355469z" fill="#fafafa"/><path d="m3 2c-.554 0-1 .446-1 1v16c0 .554.446 1 1 1h1v1c0 .554.446 1 1 1h8c0-.347709.053059-.678085.128906-1h-8.128906v-1-1-10-4h12v7.355469c.311665-.150311.646742-.252834 1-.304688v-7.050781c0-.554-.446-1-1-1h-1v-1c0-.554-.446-1-1-1zm0 1h12v1h-10c-.554 0-1 .446-1 1v14h-1z" fill="#3a3a38"/><g fill="#0063b1"><path d="m21 15.5a2.5 2.5 0 0 1 -2.5 2.5 2.5 2.5 0 0 1 -2.5-2.5 2.5 2.5 0 0 1 2.5-2.5 2.5 2.5 0 0 1 2.5 2.5z" fill="#0063b1"/><path d="m18.5 18a4.5 4 0 0 0 -4.5 4h1a3.5 3 0 0 1 3.5-3 3.5 3 0 0 1 3.5 3h1a4.5 4 0 0 0 -4.5-4z" fill="#0063b1"/><path d="m20 15.5a1.5 1.5 0 0 1 -1.5 1.5 1.5 1.5 0 0 1 -1.5-1.5 1.5 1.5 0 0 1 1.5-1.5 1.5 1.5 0 0 1 1.5 1.5z" fill="#83beec"/></g></svg>