<svg viewBox="0 0 24 24" xmlns="http://www.w3.org/2000/svg"><path d="m7.5 3c-1.9329966 0-3.5 1.790861-3.5 4s1.5670034 4 3.5 4 3.5-1.790861 3.5-4-1.5670034-4-3.5-4zm11 0c-.384264 0-.713074.089228-.986328.2675781-.264715.1702431-.503317.4179148-.716797.7421875l-10.900391 15.9902344h1.3828125c.3415674 0-.2561753-.06004.0000004-.181641.2647149-.121603.5084498-.352873.7304687-.693359l10.9902344-16.125zm-11 1c1.3807119 0 2.5 1.3431458 2.5 3s-1.1192881 3-2.5 3-2.5-1.3431458-2.5-3 1.1192881-3 2.5-3zm9 9c-1.932997 0-3.5 1.790861-3.5 4s1.567003 4 3.5 4 3.5-1.790861 3.5-4-1.567003-4-3.5-4zm0 1c1.380712 0 2.5 1.343146 2.5 3s-1.119288 3-2.5 3-2.5-1.343146-2.5-3 1.119288-3 2.5-3z" fill="#3a3a38"/></svg>