<svg viewBox="0 0 24 24" xmlns="http://www.w3.org/2000/svg"><path d="m10.15713 1.9900229c-.2061811-.0004876-.3906253.133259-.4615133.3346584l-6.6565206 18.9998377c-.1172131.333228.1203999.686035.4615137.685253h2.8188717c.3917233 0 .7719483-.121688 1.0666519-.372506l.00191-.002c.2610064-.224286.4650683-.491739.5744984-.804775.00269-.0066.00524-.01322.00766-.01992l1.0205458-3.810571h6.0092524l1.059138 3.826507c.0034.01142.0073.02272.01149.03386.12141.315736.318261.592606.572583.806767l.01149.01c.296992.235381.671021.332667 1.066652.332667h2.778657c.341114.000781.578726-.352025.461513-.685253l-6.658429-18.9998667c-.070647-.2007141-.254119-.3343099-.459599-.3346584zm.342784 1.0199116h3.000796l6.298417 17.9799255h-2.077769c-.242238 0-.37702-.05329-.465344-.121512-.126877-.108263-.212849-.228982-.273844-.386452-.000353-.000913-.0016-.0011-.0019-.002l-1.143251-4.125318c-.065012-.211347-.253936-.354711-.467259-.354578h-6.7254603c-.2133227-.000133-.4022468.143231-.4672586.354578l-1.1355917 4.12731c-.03728.106643-.1168898.228368-.2776742.366531-.1084405.09186-.2316622.141433-.4442787.141433h-2.1198988l6.3003313-17.9799255zm1.491781 2.4422101c-.227444-.0021729-.426458.1586584-.480664.3884429-.108001.4587412-.221161.883468-.337039 1.2728975-.117727.395646-.225751.7369484-.323634 1.0238956l-.0038.015936-1.8575743 5.9943064c-.1011835.329176.1350272.852562.4672586.852377h5.0881397c.332232.000185.568443-.523201.467259-.852377l-1.857544-6.0102424c-.0029-.00939-.0061-.018691-.0096-.027888-.105256-.2829149-.216359-.6167225-.333185-.9999916-.116593-.3920262-.233064-.818648-.350444-1.2788735-.05683-.2215179-.248777-.3763616-.469173-.3784829zm.0038 2.3226894c.07901.2442718.159365.4984694.235544.7031812l1.639235 5.5219848h-3.741899l1.650726-5.533937-.0057.013944c.06869-.2013511.146203-.4598081.22214-.7051732z" fill="#3a3a38"/><path d="m10.499914 3.0099349h3.000796l6.298417 17.9799251h-2.077769c-.242238 0-.37702-.05329-.465344-.121512-.126877-.108263-.212849-.228982-.273844-.386452-.000353-.000913-.0016-.0011-.0019-.002l-1.143251-4.125318c-.06501-.211347-.253936-.354711-.467259-.354578h-6.7254603c-.2133227-.000133-.4022468.143231-.4672586.354578l-1.1355917 4.12731c-.03728.106643-.1168898.228368-.2776742.366531-.1084405.09186-.2316622.141433-.4442787.141433h-2.1198988l6.3003313-17.9799251zm1.491781 2.4422101c-.227444-.00217-.426458.1586584-.480664.3884429-.108001.4587412-.221161.883468-.337039 1.2728975-.117727.395646-.225751.7369484-.323634 1.0238956l-.0038.015936-1.8575743 5.994306c-.1011835.329176.1350272.852562.4672586.852377h5.0881397c.332232.000185.568443-.523201.467259-.852377l-1.857544-6.010242c-.0029-.00939-.0061-.018691-.0096-.027888-.105256-.2829149-.216359-.6167225-.333185-.9999916-.116593-.3920262-.233064-.818648-.350444-1.2788735-.05683-.2215179-.248777-.3763616-.469173-.3784829z" fill="#fafafa"/></svg>