<svg viewBox="0 0 24 24" xmlns="http://www.w3.org/2000/svg"><path d="m8 16v5h8v-5z" fill="#fafafa" fill-rule="evenodd"/><path d="m7 16v5.142578c0 .474857.3825649.857422.8574219.857422h8.2851561c.474857 0 .857422-.382565.857422-.857422v-5.142578h-1v5h-8v-5z" fill="#3a3a38"/><path d="m3 9c-.554 0-1 .446-1 1v8c0 .554.446 1 1 1h18c.554 0 1-.446 1-1v-8c0-.554-.446-1-1-1h-2v3c0 .554-.446 1-1 1h-12c-.554 0-1-.446-1-1v-3z" fill="#3a3a38"/><path d="m3 10v8h18v-8h-2v2c0 .554-.446 1-1 1h-12c-.554 0-1-.446-1-1v-2z" fill="#797774"/><rect fill="#1e8bcd" height="4.29661" ry="1" width="12" x="6" y="8"/><path d="m7.8574219 4c-.474857 0-.8574219.3825649-.8574219.8574219v5.1425781h1v-5h8v5h1v-5.1425781c0-.474857-.382565-.8574219-.857422-.8574219z" fill="#3a3a38"/><g fill="#fafafa"><path d="m8 5v5h8v-5z" fill-rule="evenodd"/><path d="m18 16h2v1h-2z"/></g></svg>