<svg viewBox="0 0 24 24" xmlns="http://www.w3.org/2000/svg"><path d="m13 2c-3.3137085 0-6 2.6862915-6 6 0 .7073105.1287587 1.3835551.3535156 2.013672.0506893-.005262.1017569-.013672.1523438-.013672.381578 0 .7707611.14576 1.0644531.439453l3.4726565 3.478516c.312405.050207.630468.082031.957031.082031h1v2.480469c.000092.006712.001953.012791.001953.019531s-.001861.012819-.001953.019531v5.480469h1v-19h2v19h1v-19h1 3v-1z" fill="#3a3a38"/><path d="m7.505859 11.001953c-.127809 0-.25558.04855-.353515.146485-.195868.195869-.195868.513115 0 .708984l4.140625 4.142578h-10.792969c-.277 0-.5.223-.5.5s.223.5.5.5h10.792969l-4.140625 4.142578c-.195868.195869-.195868.513116 0 .708984.09793.09794.225706.146485.353515.146485s.257539-.04855.355469-.146485l4.992188-4.998046c.04702-.04701.08408-.103236.109375-.166016.02334-.0579.03711-.12105.03711-.1875s-.01377-.129596-.03711-.1875c-.0253-.06278-.06236-.119003-.109375-.166016l-4.992189-4.998046c-.09793-.09793-.22766-.146485-.355468-.146485z" fill="#1e8bcd"/></svg>