<svg viewBox="0 0 24 24" xmlns="http://www.w3.org/2000/svg"><path d="m2.5 4c-.277 0-.5.223-.5.5v1 13 1c0 .277.223.5.5.5h1 9.804688c.362311-.582535 1.004767-.999931 1.695312-1h-12v-14h10.304688c.362311-.582535 1.004767-.999931 1.695312-1h-11.5zm14.501953 0c.173959.0002428.330046.089654.498047.1347656.168001-.0451116.324088-.1345228.498047-.1347656zm2.998047 0c1.047117.0001047 1.999895.9528834 2 2v-.5-1c0-.277-.223-.5-.5-.5h-1zm2 3c-.000069.6905443-.417465 1.3330006-1 1.6953125v10.3046875h-1c.677049.000068 1.309636.40023 1.675781.964844.189212-.071141.324219-.250169.324219-.464844v-1z" fill="#3a3a38"/><path d="m3 5v14h12v-10c-1.047117-.0001047-1.999895-.9528834-2-2v-1c.000036-.3565723.117603-.6991998.304688-1zm18 3.6953125c-.3008.1870849-.643428.3046518-1 .3046875v10h1z" fill="#fafafa"/><path d="m5 7v2h10c-1.047117-.0001047-1.999895-.9528834-2-2z" fill="#797774"/><path d="m5 11v1h1v-1zm2 0v1h8v-1zm-2 2v1h1v-1zm2 0v1h8v-1zm-2 2v1h1v-1zm2 0v1h8v-1z" fill="#c8c6c4"/><path d="m15 5.0000005a1.0001 1.0001 0 0 0 -1 1v1a1.0001 1.0001 0 0 0 1 1h1v1 9.9999995 1h-1a1.0001 1.0001 0 0 0 -1 1v1a1.0001 1.0001 0 0 0 1 1h2a1.0001 1.0001 0 0 0 .5-.134766 1.0001 1.0001 0 0 0 .5.134766h2a1.0001 1.0001 0 0 0 1-1v-1a1.0001 1.0001 0 0 0 -1-1h-1v-1-9.9999995-1h1a1.0001 1.0001 0 0 0 1-1v-1a1.0001 1.0001 0 0 0 -1-1h-2a1.0001 1.0001 0 0 0 -.5.1347656 1.0001 1.0001 0 0 0 -.5-.1347656z" fill="#3a3a38"/><path d="m15 6.0000005v1h2v-1zm2 1v13.9999995h1v-13.9999995zm1 0h2v-1h-2zm0 13.9999995v1h2v-1zm-1 0h-2v1h2z" fill="#fafafa"/></svg>