<svg viewBox="0 0 24 24" xmlns="http://www.w3.org/2000/svg"><path d="m5 3v11.871094l1 1 3.578125-3.578125a.99955814.99955814 0 0 1 1.414063 0l.714843.714843a.99955814.99955814 0 0 1 .292969.69336.99955814.99955814 0 0 1 .292969-.69336l.714843-.714843a.99955814.99955814 0 0 1 .691407-.292969.99955814.99955814 0 0 1 .722656.292969l3.578125 3.578125 1-1v-8.1425784l-4-3.7285156zm7 10.701172a.99955814.99955814 0 0 1 -.292969.720703l-3.5781248 3.578125 2.9999998 3h1.742188l3-3-3.578125-3.578125a.99955814.99955814 0 0 1 -.292969-.720703zm-6 6.427734-.8710938.871094h1.7421876zm12 0-.871094.871094h1.742188z" fill="#fafafa"/><path d="m5 2c-.554 0-1 .446-1 1v10.871094l1 1v-11.871094h9v4c0 .554.446 1 1 1h4v6.871094l1-1v-2.980469-3.640625-.2089844c0-.4506799.098038-.4254121-.605469-1.0664062l-3.30664-3.2382813c-.709525-.7368575-.710169-.7363281-1.09375-.7363281h-.332032-.662109zm.1289062 19-.7597656.759766c.1730567.143571.387408.240234.6308594.240234h2.8710938l-1-1zm5.9999998 0 .578125.578125a.99955814.99955814 0 0 1 .25.421875h.085938a.99955814.99955814 0 0 1 .25-.421875l.578125-.578125zm6 0-1 1h2.871094c.243451 0 .457803-.096663.630859-.240234l-.759765-.759766z" fill="#3a3a38"/><path d="m15 7h4l-4-4z" fill="#fafafa" fill-rule="evenodd"/><rect fill="#797774" height="1" ry=".5" width="5" x="7" y="5"/><rect fill="#797774" height="1" ry=".5" width="3" x="7" y="9"/><rect fill="#fb983b" height="1" ry=".5" width="5" x="12" y="9"/><path d="m7.5 12c-.277 0-.5.223-.5.5s.223.5.5.5h1.3710938l.7070312-.707031a.99955814.99955814 0 0 1 .693359-.292969zm2.771484 0a.99955814.99955814 0 0 1 .720704.292969l.707031.707031h.601562l.707031-.707031a.99955814.99955814 0 0 1 .554688-.28125c-.021333-.002755-.040393-.011719-.0625-.011719z" fill="#fb983b"/><path d="m10.90625 15.222656-.777344.777344h.371094c.277 0 .5-.223.5-.5 0-.104951-.038917-.197088-.09375-.277344z" fill="#797774"/><path d="m12.474609 15c-.262915 0-.474609.211694-.474609.474609v.050782c0 .262917.211694.474609.474609.474609h1.050782c.06573 0 .128731-.013159.185547-.037109 0 0 .001953-.001953.001953-.001953l.060547-.058594-.902344-.902344z" fill="#797774"/><path d="m8.1289062 18 1 1h2.4707028c.221806 0 .400391-.178585.400391-.400391v-.199218c0-.221806-.178585-.400391-.400391-.400391z" fill="#fb983b"/><g fill="#ed3d3b"><path d="m22.285683 12.999968-4.285715 4.285714-4.285715-4.285714-.714285.714285 4.285714 4.285715-4.285714 4.285715.714285.714285 4.285715-4.285714 4.285715 4.285714.714285-.714285-4.285714-4.285715 4.285714-4.285715z"/><path d="m10.285747 12.999968-4.285715 4.285714-4.285715-4.285714-.714285.714285 4.285714 4.285715-4.285714 4.285715.714285.714285 4.285715-4.285714 4.285715 4.285714.714285-.714285-4.285714-4.285715 4.285714-4.285715z"/></g></svg>