<svg viewBox="0 0 24 24" xmlns="http://www.w3.org/2000/svg"><path d="m2 13v8c0 .554.446 1 1 1h6.8730469l-.9980469-1h-.875-5v-3-1-3h5 1 3.5 3.5 1 5v3 1 3h-5-.882812l-1.001954 1h6.884766c.554 0 1-.446 1-1v-8h-1-5-1-7-1-5z" fill="#3a3a38" fill-opacity=".959559"/><path d="m3 14v7h5.875l-.4414062-.441406c-.1154417-.115729-.2053807-.2578-.2792969-.408203-.0074975-.015595-.0164456-.029095-.0234375-.044922v-.001953c-.0703128-.15557-.1147794-.318349-.1308594-.482422-.006728-.06865-.0157495-.138071-.0117188-.205078.0015584-.025906.0089041-.048889.0117188-.074219.0199375-.179422.0688326-.343732.1425781-.492188.0756556-.155965.1752182-.294683.2929688-.412109.1012126-.100934.2260034-.180117.3554687-.251953.0677149-.037573.1341343-.074437.2089844-.101563.1144809-.041488.2352688-.071988.3652344-.083984.0174526-.001611.0330643-.006797.0507812-.007812.0401512-.002305.0821738.006197.1230469.007812.3665659.014485.7527405.174535 1.0175785.439453h.001953l.4375.439453.001953-.878906v-1l.001953-1.478516c-.005942-.420168.182805-.867654.484375-1.138672.30157-.271015.666177-.382812 1.015625-.382812zm9.5 0c.349448 0 .714055.111798 1.015625.382812.30157.271018.490275.718504.484375 1.138672l-.001953 1.478516v.199219.800781l-.001953.876953.427734-.425781c.246439-.255152.603554-.416546.953125-.451172.065995-.006537.13269-.017148.197266-.013672.030707.001653.05797.010266.08789.013672.119419.013594.231811.041553.337891.080078.074232.026959.139861.064389.207031.101563.131265.072645.257542.151508.359375.253906.118241.118896.217716.259929.292969.417969.074459.15296.123284.322295.140625.507812.002126.022744.008645.043205.009766.066406.002223.046048-.006858.093708-.009766.140625-.005634.090884-.019446.180645-.042969.271485-.00047.001893.000478.003967 0 .005859-.001201.004571-.002662.009107-.003906.013672-.001457.005345-.004344.01029-.005859.015625-.021696.077083-.046517.152729-.080078.226562-.014044.031785-.032762.060997-.048829.091797-.000689.001292-.00126.002617-.001953.003907-.026906.050608-.051735.101369-.083984.148437-.057517.083948-.12141.163694-.19336.232422l-.421874.421875h5.882812v-7z" fill="#fafafa"/><path d="m2 2v1 3 4h1 5 1 3.455078c-.168491-.0046376-.338636-.0312719-.503906-.09375-.081606-.0308502-.162577-.0683647-.240234-.1152344-.078317-.0465951-.154395-.1011595-.226563-.1660156-.08587-.0771698-.158928-.1704034-.224609-.2714844-.008246-.013092-.013608-.027616-.021485-.0410156-.058756-.0966958-.107026-.1999993-.144531-.3085938-.000478-.0013863-.001478-.0025186-.001953-.0039062h-2.091797-1-5v-3-1-2h5 .8808594l.9980468-1h-6.8789062zm13.107422 0 1.001953 1h.890625 5v2 1 3h-5-1-2.091797c-.000466.0013617-.001483.002546-.001953.0039062-.037507.1085946-.085771.211898-.144531.3085938-.007877.0133996-.013239.0279236-.021485.0410156-.065684.101081-.138739.1943146-.224609.2714844-.072168.0648561-.148246.1194205-.226563.1660156-.077658.0468697-.158628.0843842-.240234.1152344-.16527.0624781-.335415.0891124-.503906.09375h3.455078 1 5 1v-4-3-1h-1z" fill="#3a3a38"/><path d="m3 3v2 1 3h8.091797c-.057283-.1672871-.094214-.3415432-.091797-.5136719l-.001953-2.4863281-.001953-.8710938-.4375.4375-.001953.0019532c-.11039.1103052-.246016.1967033-.388672.2695312-.01662.0083099-.031929.0157008-.048828.0234375-.1478254.0693909-.3020038.1182036-.4589848.1386719-.0822474.010724-.164011.0202234-.2441406.015625-.0347685-.0019953-.0658653-.0113684-.0996094-.015625-.1751141-.0220895-.3351694-.0728157-.4804687-.1464844-.1512251-.0743577-.2858906-.1690184-.4003906-.2832031-.230089-.2294553-.3948179-.5395009-.4355469-.90625v-.2792969c.0335124-.3419432.1883855-.6916826.4335938-.9375l.4472656-.4472656zm13.109375 0 .429687.4296875c.270414.2583064.438156.6406511.460938 1.0078125v.2070312c-.035053.3763804-.200526.6933759-.433594.9277344-.114215.1148487-.250378.210537-.402344.2851563-.136805.0693438-.287761.1182559-.451171.1425781-.046472.0069169-.090227.0188766-.138672.0214844-.101658.0054721-.206525-.0026282-.310547-.0214844-.138794-.0251591-.272458-.0776997-.402344-.140625-.033042-.0159192-.063841-.0307196-.095703-.0488281-.125348-.0713246-.244074-.1527288-.341797-.2539063l-.427734-.4277344.001953.8710938.001953 2.4863281c.002434.1721287-.034512.3463848-.091797.5136719h8.091797v-4-2z" fill="#fafafa"/><path d="m8 3v1.3847656c.0335124-.3419432.1883855-.6916826.4335938-.9375l.4472656-.4472656zm8.109375 0 .429687.4296875c.270414.2583064.438156.6406511.460938 1.0078125v-1.4375zm.890625 1.6445312c-.035053.3763804-.200526.6933759-.433594.9277344-.114215.1148487-.250378.210537-.402344.2851563-.136805.0693438-.287761.1182559-.451171.1425781h.287109v3h1v-3h5v-1h-5zm-9 .0195313v.3359375h-5v1h5v3h1v-3h.3164062c-.1751142-.0220895-.3351694-.0728157-.4804687-.1464844-.1512251-.0743577-.2858906-.1690184-.4003906-.2832031-.230089-.2294553-.3948179-.5395009-.4355469-.90625zm2.996094.4648437-.4375.4375-.001953.0019532c-.11039.1103052-.246016.1967033-.388672.2695312-.01662.0083099-.031929.0157008-.048828.0234375-.1478246.0693909-.3020039.1182036-.4589848.1386719h1.3378908zm3 0 .001953.8710938h1.265625c-.138794-.0251591-.272458-.0776997-.402344-.140625-.033042-.0159192-.063841-.0307196-.095703-.0488281-.125348-.0713246-.244074-.1527288-.341797-.2539063z" fill="#797774"/><path d="m8 14v3h-5v1h5v1.341797c.0199375-.179422.0688326-.343732.1425781-.492188.0756556-.155965.1752182-.294683.2929688-.412109.1015821-.101303.2243145-.18179.3554687-.251953.0677149-.037573.1341343-.074437.2089844-.101563v-.083984h.3652344c.0174526-.001611.0330643-.006797.0507812-.007812.0401512-.002305.0821738.006197.1230469.007812h1.4589845v-1h-1.998047v-3zm8 0v3h-2.001953v.199219.800781h1.378906c.065995-.006537.13269-.017148.197266-.013672.030707.001653.05797.010266.08789.013672h.337891v.080078c.074232.026959.139861.064389.207031.101563.133004.070785.257137.1511.359375.253906.118241.118896.217716.259929.292969.417969.074459.15296.123284.322295.140625.507812v-1.361328h5v-1h-5v-3zm1 5.568359c-.005634.090884-.019446.180645-.042969.271485-.00047.001893.000478.003967 0 .005859-.001201.004571-.002662.009107-.003906.013672-.001457.005345-.004344.01029-.005859.015625-.021933.077242-.046505.152704-.080078.226562-.014044.031785-.032762.060997-.048829.091797-.000689.001292-.00126.002617-.001953.003907-.027162.050523-.051733.101367-.083984.148437-.056837.084368-.121016.163318-.19336.232422l-.421874.421875h.882812zm-9 .052735v1.378906h.875l-.4414062-.441406c-.1154416-.115729-.2053807-.2578-.2792969-.408203-.0074975-.015595-.0164456-.029095-.0234375-.044922-.000266-.000587.0002652-.001367 0-.001953-.0703718-.155642-.1147735-.31829-.1308594-.482422z" fill="#797774"/><g fill="#ed3d3b"><path d="m12.482422 1a.50005.50005 0 0 0 -.394531.203125l-2.947266 2.951171a.50063788.50063788 0 1 0 .7089844.707032l2.1425786-2.146485.0078 5.785157a.50005.50005 0 1 0 1 0l-.0078-5.785157 2.15039 2.146485a.50005.50005 0 1 0 .705078-.708985l-2.960937-2.957031a.50005.50005 0 0 0 -.404297-.195312z" fill-rule="evenodd"/><path d="m12.482422 23.007061a.50005.50005 0 0 1 -.394531-.203125l-2.947266-2.951171a.50063788.50063788 0 1 1 .7089844-.707032l2.1425786 2.146485.0078-5.785157a.50005.50005 0 1 1 1 0l-.0078 5.785157 2.15039-2.146485a.50005.50005 0 1 1 .705078.708985l-2.960937 2.957031a.50005.50005 0 0 1 -.404297.195312z" fill-rule="evenodd"/><path d="m2 9v1h10.455078c-.168491-.0046376-.338636-.0312719-.503906-.09375-.081606-.0308502-.162577-.0683647-.240234-.1152344-.078317-.0465951-.154395-.1011595-.226563-.1660156-.08587-.0771698-.158928-.1704034-.224609-.2714844-.008246-.013092-.013608-.027616-.021485-.0410156-.058756-.0966958-.107026-.1999993-.144531-.3085938-.000478-.0013863-.001478-.0025186-.001953-.0039062h-2.091797-1-5zm11.908203 0c-.000466.0013617-.001483.002546-.001953.0039062-.037507.1085946-.085771.211898-.144531.3085938-.007877.0133996-.013239.0279236-.021485.0410156-.065684.101081-.138739.1943146-.224609.2714844-.072168.0648561-.148246.1194205-.226563.1660156-.077658.0468697-.158628.0843842-.240234.1152344-.16527.0624781-.335415.0891124-.503906.09375h10.455078v-1h-1-5-1z"/><path d="m2 13v1h1 19 1v-1z" fill-opacity=".959559"/></g></svg>