<svg viewBox="0 0 24 24" xmlns="http://www.w3.org/2000/svg"><circle cx="14.5" cy="9.5" fill="#fafafa" r="6.5"/><path d="m14.5 2c-4.142136 0-7.5 3.3578644-7.5 7.5.00203 1.642863.5434283 3.239616 1.5410156 4.544922l-6.2480468 6.248047c-.9816672.942509.4715546 2.395729 1.4140624 1.414062l6.25-6.25c1.2261298.937159 2.7120968 1.456598 4.2499998 1.519531.030346-.120042.045909-.247053.083985-.363281.067907-.216025.162446-.414977.255859-.615234a6.5 6.5 0 0 1 -.046875.001953 6.5 6.5 0 0 1 -6.5-6.5 6.5 6.5 0 0 1 6.5-6.5 6.5 6.5 0 0 1 6.5 6.5 6.5 6.5 0 0 1 -.025391.5h.384766.609375c.015985-.1662252.026404-.3330318.03125-.5 0-4.1421356-3.357864-7.5-7.5-7.5z" fill="#3a3a38"/><path d="m16.675361 12.95527q-.186802 0-.287388-.05641-.100586-.05641-.13651-.232703l-.158062-.641693q-.273019.246805-.538853.444249-.258649.190393-.546037.324373-.287388.133979-.617884.197444-.330496.07051-.725654.07051-.409528 0-.768763-.105774-.352049-.112825-.625068-.338476-.265834-.232701-.423897-.571176-.150879-.345528-.150879-.810932 0-.40899.222726-.782724.22991-.380785.740024-.6769507.510113-.296166 1.329168-.4795068.819056-.1903885 2.011716-.2185947v-.528868q0-.8038791-.352051-1.2058187-.344865-.4089911-1.013042-.4089911-.445451 0-.754393.1128251-.301758.1128252-.524483.246805-.222725.1339799-.387974.246805-.158063.1128251-.32331.1128251-.129325 0-.222727-.063464-.0934-.063464-.150878-.162186l-.22991-.3948882q.58196-.5500226 1.250137-.8179823.675361-.2750113 1.494417-.2750113.589145 0 1.048965.1903924.459821.1833409.768763.5288679.308942.345527.467005.8250339.165249.4795068.165249 1.0647872v4.4072322zm-2.629599-.76157q.316127 0 .581961-.06347.265833-.06346.502928-.176288.237095-.119877.445451-.289116.215541-.176284.423898-.387832v-1.424417q-.84061.035258-1.429755.1410311-.589145.098723-.962749.2679599-.36642.169238-.531668.40194-.165249.22565-.165249.507713 0 .26796.08622.465404.0934.190392.24428.317321.150878.119876.359236.18334.208355.05641.44545.05641z" fill="#1e8bcd" stroke-width=".791343"/><path d="m23 22v-10h-1.368584v4.099859c-1.072029-1.082167-2.294426-1.206204-3.631416-.850914-.352515.154713-.653189.377403-.902021.668073-.248835.290671-.438051.644632-.567653 1.061885-.134785.412565-.202177.881388-.202177 1.406469 0 .5579.07518 1.064229.225505 1.518989.150337.454758.365475.846226.645413 1.174402.279938.323488.619492.574308 1.018663.752461.39917.178152.84759.267229 1.345256.267229s.914982-.08439 1.251944-.253164c.331778-.173464.627268-.412565.886469-.717301l.07776.611815c.020738.173466.132195.260197.334371.260197zm-3.351477-6.005626c.419907 0 .790563.08908 1.111974.267229.316227.178153.606533.431318.870919.759494v3.319269c-.238466.295358-.50026.503985-.785382.625879-.285121.117205-.598756.175808-.940902.175808-.699844 0-1.236392-.227378-1.609642-.682137s-.559876-1.132209-.559876-2.032349c0-.834506.165889-1.448664.497668-1.842475.331777-.393812.803525-.590718 1.415241-.590718z" fill="#3a3a38" stroke-width=".837751"/></svg>