<svg viewBox="0 0 24 24" xmlns="http://www.w3.org/2000/svg"><path d="m22.495233 15.492559-3.995233 4.000284-3.995233-4.000284" fill="none" stroke="#3a3a38" stroke-linecap="round" stroke-linejoin="round" stroke-width=".999439"/><path d="m18.5 19.492843v-14.992843" fill="none" stroke="#3a3a38" stroke-linecap="round" stroke-linejoin="round" stroke-width=".999439"/><path d="m5.359375 2-3.4492188 9h.9863282c.1072844 0 .1988049-.03048.2734375-.08984.079297-.05936.1321689-.127452.1601562-.205078l.6132813-1.705082h4.1210937l.6171875 1.712891c.037316.08219.088993.150283.1542969.205078.0699681.054794.1614885.082031.2734375.082031h.986328l-3.4414061-9zm.6425781 1.1777344c.041981.1689498.086167.3265375.1328125.4726562.046645.1461188.09398.2751767.140625.3847656l1.4277344 3.9648438h-3.3984375l1.4257813-3.9589844c.0419809-.109589.0861671-.2366937.1328124-.3828125.046645-.1461187.092026-.3069527.1386719-.4804687z" fill="#1e8bcd" transform="matrix(.97777462899 0 0 .99999996571 .13084167098 .00000036461)"/><path d="m8.8146188-8.1731886v1.3085938c0 .4166666-.1236979.8072916-.3710937 1.171875l-12.4414068 20.2929698h12.8125005v2.890625h-17.1093755v-1.386719c0-.195312.032552-.377604.097656-.546875s.1497394-.332031.2539062-.488281l12.4218758-20.3515636h-12.773438v-2.890625z" fill="#a846b2" transform="matrix(.35068492 0 0 .35068492 5.908846 15.866214)"/></svg>