<svg viewBox="0 0 24 24" xmlns="http://www.w3.org/2000/svg"><path d="m11.5 2a2.5 2.5 0 0 0 -2.5 2.5 2.5 2.5 0 0 0 2 2.4453125v2.0546875h-2.5c-.277 0-.5.223-.5.5s.223.5.5.5h2.5v10.974609a8.5 8.5 0 0 1 -7.234375-4.974609h1.734375c.277 0 .5-.223.5-.5s-.223-.5-.5-.5h-3c-.277 0-.5.223-.5.5v3c0 .277.223.5.5.5s.5-.223.5-.5v-1.791016a9.5 9.5 0 0 0 8.5 5.291016 9.5 9.5 0 0 0 8.5-5.271484v1.771484c0 .277.223.5.5.5s.5-.223.5-.5v-3c0-.277-.223-.5-.5-.5h-3c-.277 0-.5.223-.5.5s.223.5.5.5h1.736328a8.5 8.5 0 0 1 -7.236328 4.978516v-10.978516h2.5c.277 0 .5-.223.5-.5s-.223-.5-.5-.5h-2.5v-2.0507812a2.5 2.5 0 0 0 2-2.4492188 2.5 2.5 0 0 0 -2.5-2.5zm0 1a1.5 1.5 0 0 1 1.5 1.5 1.5 1.5 0 0 1 -1.5 1.5 1.5 1.5 0 0 1 -1.5-1.5 1.5 1.5 0 0 1 1.5-1.5z" fill="#1e8bcd"/></svg>