<svg height="24" viewBox="0 0 6.3499999 6.3500002" width="24" xmlns="http://www.w3.org/2000/svg"><g stroke-width=".264583" transform="translate(0 -290.64998)"><rect fill="#3a3a38" height="5.291667" rx=".264583" width="5.291667" x=".529167" y="291.17914"/><path d="m.79375 291.44371h4.7625v4.7625h-4.7625z" fill="#fafafa"/><g fill="#797774"><rect height=".264583" rx=".132292" ry=".125565" width="2.116667" x="2.645833" y="292.23746"/><rect height=".264583" rx=".132292" ry=".125565" width="2.116667" x="2.645833" y="293.560377"/><rect height=".264583" rx=".132292" ry=".125565" width="2.116667" x="2.645833" y="294.883293"/></g><g><path d="m2.1166667 292.36976a.396875.396875 0 0 1 -.396875.39687.396875.396875 0 0 1 -.396875-.39687.396875.396875 0 0 1 .396875-.39688.396875.396875 0 0 1 .396875.39688z" fill="#1e8bcd"/><path d="m2.1166667 293.69267a.396875.396875 0 0 1 -.396875.39688.396875.396875 0 0 1 -.396875-.39688.396875.396875 0 0 1 .396875-.39687.396875.396875 0 0 1 .396875.39687z" fill="#fb983b"/><path d="m2.1166667 295.01559a.396875.396875 0 0 1 -.396875.39687.396875.396875 0 0 1 -.396875-.39687.396875.396875 0 0 1 .396875-.39688.396875.396875 0 0 1 .396875.39688z" fill="#797774"/></g></g></svg>