<svg viewBox="0 0 24 24" xmlns="http://www.w3.org/2000/svg"><path d="m3 3c-.554 0-1 .446-1 1v3 13c0 .554.446 1 1 1h6 6v-1h-6-6v-16h5v5h13v6h1v-6c0-.554-.446-1-1-1h-12v-4c0-.554-.446-1-1-1zm18 16v1h-2v1h2c.554 0 1-.446 1-1v-1z" fill="#3a3a38"/><path d="m3 4v16h6 6v-1h-3c-1.090703 0-2-.909297-2-2s.909297-2 2-2h3v-3c0-1.090703.909297-2 2-2s2 .909297 2 2v3h2v-6h-13v-5zm16 15v1h2v-1z" fill="#fafafa"/><g fill="#1e8bcd"><rect height="4" ry="1" width="11" x="10" y="3"/><path d="m17 11c-.554 0-1 .446-1 1v4h-4c-.554 0-1 .446-1 1s.446 1 1 1h4v4c0 .554.446 1 1 1s1-.446 1-1v-4h4c.554 0 1-.446 1-1s-.446-1-1-1h-4v-4c0-.554-.446-1-1-1z"/></g></svg>