<svg viewBox="0 0 16 16" xmlns="http://www.w3.org/2000/svg"><path d="m3 1v6.1835938l.5.5 5.0917969-5.0917969a.9913122.9913122 0 0 0 .0019531-.0019531l.7070312-.703125a.9913122.9913122 0 0 1 .6699219-.2871094.9913122.9913122 0 0 1 1.0214849.9902344v1.4101562a.9913122.9913122 0 0 1 -.291016.7011719l-5.7929689 5.7929691-.7070312.707031a.9913122.9913122 0 0 1 -1.2011719.154297v3.644531h7.130859c.0711-.215451.182627-.415763.347657-.574219l1.441406-1.443359-5.3828126.003906c-.7862256.01112-1.5097657-.701977-1.5097656-1.488281 0-.786304.72354-1.499403 1.5097656-1.488281l5.3867186-.003907-1.451172-1.4511715c-.409877-.3987624-.5553936-1.0455463-.357422-1.5820313.197975-.5364849.728175-.9337788 1.298828-.9707031.005901-.0000521.011719-.0000521.017579 0 .04131-.00194.08367-.00151.125 0 .3799.01177.753894.1734437 1.019531.4453125l.423828.4238282v-3.1660157l-1.759766-1.7675781-.935546-.9375z" fill="#fafafa"/><path d="m3 0c-.554 0-1 .446-1 1v5.1835938l1 1v-6.1835938h6v1.1855469l.3007812-.2988281a.9913122.9913122 0 0 1 .6699219-.2871094.9913122.9913122 0 0 1 .0292969 0v-.5996094l3 3h-2.007812a.9913122.9913122 0 0 1 -.291016.7011719l-.298828.2988281h2.597656v1.8710938l1 1v-4.234375l-3.636719-3.6367188h-7.0605466zm-1 10.402344v4.597656c0 .554.446 1 1 1h7.125c-.10485-.321506-.100275-.6785.005859-1h-7.130859v-3.644531a.9913122.9913122 0 0 1 -.2011719-.154297l-.7070312-.707031zm11.972656 4.738281-.833984.832031c.43713-.06281.770357-.395173.833984-.832031z" fill="#3a3a38"/><path d="m11.478516 6.9888998a.50005.50005 0 0 0 -.316407.8574219l3.146485 3.1464843-7.7851565.0059a.50005.50005 0 1 0 0 1l7.7851565-.0059-3.146485 3.146484a.50005.50005 0 1 0 .707032.707031l3.953125-3.953125a.50005.50005 0 0 0 .0059-.0039.50005.50005 0 0 0 -.002-.792968l-3.957025-3.9570375a.50005.50005 0 0 0 -.34375-.1503907.50005.50005 0 0 0 -.04687 0z" fill="#1e8bcd" fill-rule="evenodd"/><path d="m8.4023438 7-1 1h2.7343752c-.117024-.3216307-.139313-.6762154-.027344-1z" fill="#fb983b"/><path d="m5.4023438 10-.4941407.494141-.4902343.490234c.0276508.004705.0529995.015625.0820312.015625h.6289062c.2226807-.5648.794069-.99892 1.4082032-.990234h1.0078125c-.0155889-.001452-.0289411-.009766-.0449219-.009766zm-.9023438 3c-.277 0-.5.223-.5.5s.223.5.5.5h1.9628906.0371094c.277 0 .5-.223.5-.5 0-.206182-.1233731-.382334-.3007812-.458984-.0609347-.026328-.1284012-.041016-.1992188-.041016z" fill="#797774"/><path d="m9.292893 3.292893-5.792893 5.792894-2.7928933-2.792893-.7071067.707106 2.7928932 2.792893.7071068.707107.707107-.707107 5.792893-5.792893v-1.410156z" fill="#1e8bcd"/></svg>