<svg height="16" viewBox="0 0 4.2333332 4.2333335" width="16" xmlns="http://www.w3.org/2000/svg"><g transform="translate(0 -292.76665)"><g stroke-width=".264583"><path d="m1.0583333 293.29583v.52917h-.52916663v2.11667h.52916663v.52916h2.1166667v-.52916h.5291667v-2.11667h-.5291667v-.52917z" fill="#fafafa"/><g fill="#0063b1"><rect height=".79375" ry=".264583" width=".79375" x="3.439583" y="292.76667"/><rect height=".79375" ry=".264583" width=".79375" y="292.76667"/><rect height=".79375" ry=".264583" width=".79375" x="3.439583" y="296.206253"/><rect height=".79375" ry=".264583" width=".79375" y="296.206253"/></g><path d="m2.1166667 293.56042-.2645834.92604h-.92604163l.79375003.52917-.396875 1.05833.79375-.66146.79375.66146-.396875-1.05833.9260416-.52917h-1.0583333z" fill="#f8db8f" stroke="#ed8733" stroke-linecap="round" stroke-linejoin="round"/></g><g fill="#3a3a38" transform="matrix(.26458333 0 0 .26458333 0 292.76667)"><path d="m4 1h8v1h-8z"/><path d="m4 14h8v1h-8z"/><g transform="rotate(90)"><path d="m4-15h8v1h-8z"/><path d="m4-2h8v1h-8z"/></g></g><g fill="#83beec"><path d="m.26459717 293.03122h.26455565c.00000767 0 .00001385.00001.00001385.00001v.26457c0 .00001-.00000618.00002-.00001385.00002h-.26455565c-.00000767 0-.00001385-.00001-.00001385-.00002v-.26457s.00000618-.00001.00001385-.00001z"/><path d="m3.7041805 293.03122h.2645556c.0000077 0 .0000139.00001.0000139.00001v.26457c0 .00001-.0000062.00002-.0000139.00002h-.2645556c-.0000077 0-.0000139-.00001-.0000139-.00002v-.26457s.0000062-.00001.0000139-.00001z"/><path d="m.26459718 296.47081h.26455565c.00000767 0 .00001385.00001.00001385.00001v.26457c0 .00001-.00000618.00002-.00001385.00002h-.26455565c-.00000767 0-.00001385-.00001-.00001385-.00002v-.26457s.00000618-.00001.00001385-.00001z"/><path d="m3.7041805 296.47081h.2645556c.0000077 0 .0000139.00001.0000139.00001v.26457c0 .00001-.0000062.00002-.0000139.00002h-.2645556c-.0000077 0-.0000139-.00001-.0000139-.00002v-.26457s.0000062-.00001.0000139-.00001z"/></g></g></svg>