<svg viewBox="0 0 16 16" xmlns="http://www.w3.org/2000/svg"><path d="m6 1.6328125a7 15 0 0 0 -5 14.3671875h1a6 14 0 0 1 4-13.1835938zm4 .0039063v1.1816406a6 14 0 0 1 4 13.1816406h1a7 15 0 0 0 -5-14.3632812z" fill="#3a3a38"/><g fill="#1e8bcd"><path d="m1.5 1c-.277 0-.5.223-.5.5 0 .0733677.0167736.1424272.0449219.2050781a1 1 0 0 1 .9550781-.7050781zm.5 0a1 1 0 0 1 1 1h3v-1zm8 0v1h3a1 1 0 0 1 1-1zm4 0a1 1 0 0 1 .953125.7050781c.028437-.0629146.046875-.1313131.046875-.2050781 0-.277-.223-.5-.5-.5z"/><path d="m7 0c-.554 0-1 .446-1 1v2c0 .554.446 1 1 1h2c.554 0 1-.446 1-1v-2c0-.554-.446-1-1-1zm0 1h2v2h-2z"/><path d="m2 0c-1.108 0-2 .892-2 2s.892 2 2 2 2-.892 2-2-.892-2-2-2zm0 1a1 1 0 0 1 1 1 1 1 0 0 1 -1 1 1 1 0 0 1 -1-1 1 1 0 0 1 1-1z"/><path d="m14 0c-1.108 0-2 .892-2 2s.892 2 2 2 2-.892 2-2-.892-2-2-2zm0 1a1 1 0 0 1 1 1 1 1 0 0 1 -1 1 1 1 0 0 1 -1-1 1 1 0 0 1 1-1z"/></g></svg>