<svg viewBox="0 0 16 16" xmlns="http://www.w3.org/2000/svg">/&gt;<path d="m1 5h7v10h-7z" fill="#fafafa"/><path d="m9 5h6v10h-6z" fill="#fafafa"/><g fill="#3a3a38"><path d="m0 0v16h16v-16zm1 1h7v3h-7zm0 4h7v10h-7zm8 0h6v10h-6z"/><rect height="1" ry=".5" width="5" x="2" y="7"/><rect height="1" ry=".5" width="5" x="2" y="10"/><rect height="1" ry=".5" width="5" x="2" y="13"/></g><g fill-rule="evenodd"><path d="m9 1 3 3 3-3z" fill="#fafafa"/><g fill="#3a3a38"><path d="m10 11 2 3 2-3z"/><path d="m10 9 2-3 2 3z"/></g></g><path d="m1 1h7v3h-7z" fill="#fafafa"/></svg>