<svg viewBox="0 0 16 16" xmlns="http://www.w3.org/2000/svg">

/&amp;amp;amp;gt;<path d="m1 1v14h8v-3h.0097656a4 3.75 0 0 1 -.0097656-.25 4 3.75 0 0 1 4-3.75 4 3.75 0 0 1 2 .5078125v-7.5078125z" fill="#fafafa"/><path d="m1 0c-.554 0-1 .446-1 1v14c0 .554.446 1 1 1h8v-1h-8v-14h14v7.5078125a4 3.75 0 0 1 1 .7675781v-8.2753906c0-.554-.446-1-1-1z" fill="#3a3a38"/><path d="m13 9c-1.656854 0-3 1.343146-3 3v4h2v-4c0-.552285.447715-1 1-1s1 .447715 1 1v4h2v-4c0-1.656854-1.343146-3-3-3z" fill="#ed3d3b"/><rect fill="#ed3d3b" height="2" ry="1" width="2" x="5" y="5"/><g fill="#1e8bcd" fill-rule="evenodd"><path d="m6 8 2 2h-4z"/><path d="m6 4 2-2h-4z"/><path d="m8 6 2-2v4z"/><path d="m4 6-2-2v4z"/></g></svg>