<svg viewBox="0 0 16 16" xmlns="http://www.w3.org/2000/svg">/&gt;<path d="m0 0v12.745313c7.4113208.137577 12.263437 1.441852 16 3.254687v-12.7453125c-4.362944-2.52374846-10.0854734-3.0315611-16-3.2546875z" fill="#fafafa"/><path d="m4 4.8-2.4 1.92 2.4 2.08v-.8c3.5386832 0 5.4313552.058016 8 .8v.8l2.4-1.92-2.4-2.08v.8c-2.1898656-.6439678-4.8000008-.8-8-.8z" fill="#1e8bcd"/><path d="m0 0v12.745313c7.4113208.137577 12.263437 1.441852 16 3.254687v-12.7453125c-4.362944-2.52374846-10.0854734-3.0315611-16-3.2546875zm.8.875c5.3960977.235905 10.506187.7912022 14.4 2.896875v11.034375c-3.53929-1.532664-8.0395232-2.613676-14.4-2.8125z" fill="#3a3a38"/></svg>