<svg viewBox="0 0 16 16" xmlns="http://www.w3.org/2000/svg"><path d="m1 3v12h12v-7.1015625c-.570537.1899434-1.243533.0488923-1.650391-.4472656a1.0001 1.0001 0 0 1 -.058593-.0800781l.050781.0761718-2.8847658-2.8808594c-.4324634-.4185416-.5374058-1.060417-.3652343-1.5664062z" fill="#fafafa"/><path d="m0 2v14h14v-8.8769531l-.382812.3828125.09375-.1074219c-.184729.2469888-.436689.4086969-.710938.5v7.1015625h-12v-12h7.0917969c.008117-.0238549.0081941-.0510224.0175781-.0742188.20012-.4946799.719666-.8938568 1.3183594-.9257812zm9.6191406 0c.3592914.0289401.6993404.1799967.9531254.4394531l.4375.4375v-.8769531z" fill="#3a3a38"/><g fill="none" stroke="#1e8bcd" stroke-linecap="round" stroke-linejoin="round" transform="matrix(0 -1.0000007 -.99998453 0 16.999881 12.000008)"><path d="m8.507121 1.494946-2.9999998 2.9949499 2.9999998 3.0050501"/><path d="m5.5071212 4.4898959h5.9928788"/></g><path d="m6 6a2 2 0 0 1 -2 2 2 2 0 0 1 -2-2 2 2 0 0 1 2-2 2 2 0 0 1 2 2z" fill="#ed8733" stroke-width=".8"/><path d="m10 9-4 4.5-1.5-1.5-3 3h11.5v-3z" fill="#83beef"/><path d="m10 7.5-4 4.5-1.5-1.5-3.5 3.5v1h.5l3-3 1.5 1.5 4-4.5 3 3v-1.5z" fill="#0063b1"/><path d="m5 6a1 1 0 0 1 -1 1 1 1 0 0 1 -1-1 1 1 0 0 1 1-1 1 1 0 0 1 1 1z" fill="#f8db8f"/></svg>