<svg height="16" viewBox="0 0 4.2333332 4.2333335" width="16" xmlns="http://www.w3.org/2000/svg"><g fill="#fff" transform="matrix(.26458333 0 0 .26458333 0 .00002)"><path d="m3.9980469 0c-.5527774 0-.9980469.44526954-.9980469.99804688v11.00390612c0 .552777.4452695.998047.9980469.998047h11.0039061c.552777 0 .998047-.44527.998047-.998047v-11.00390612c0-.55277734-.44527-.99804688-.998047-.99804688zm6.0019531 1h4a1.0001 1.0001 0 0 1 1 1v4a1.0001 1.0001 0 0 1 -1.726562.6875l-.859376-.9101562-1.394531 1.3945312-.002.00195-.707031.7070313a1.0001 1.0001 0 0 1 -1.4140626 0l-.7089374-.7089813a1.0001 1.0001 0 0 1 0-1.4140625l.7089844-.7089844 1.3945316-1.3964843-.978516-.9277344a1.0001 1.0001 0 0 1 .6875-1.7246094z" fill="#3a3a38"/><path d="m4 1v11h11v-6a1.0001 1.0001 0 0 1 -1.726562.6875l-.859376-.9101562-1.394531 1.3945312-.002.00195-.707031.7070313a1.0001 1.0001 0 0 1 -1.4140626 0l-.7089374-.7089813a1.0001 1.0001 0 0 1 0-1.4140625l.7089844-.7089844 1.3945316-1.3964843-.978516-.9277344a1.0001 1.0001 0 0 1 .6875-1.7246094zm10 0a1.0001 1.0001 0 0 1 1 1v-1z" fill="#fafafa"/><path d="m.99804688 3c-.55277734 0-.99804688.4452695-.99804688.9980469v11.0039061c0 .552777.44526954.998047.99804688.998047h11.00390612c.552777 0 .998047-.44527.998047-.998047v-8.6035155l-.585938-.6210937-1.394531 1.3945312-.002.00195-.707031.7070313a1.0001 1.0001 0 0 1 -1.4140626 0l-.7089374-.7089813a1.0001 1.0001 0 0 1 0-1.4140625l.7089844-.7089844 1.3945316-1.3964843-.6875004-.6523438z" fill="#3a3a38"/><path d="m1 4v11h11v-8.8085938l-.980469.9804688-.002.00195-.707031.7070313a1.0001 1.0001 0 0 1 -1.4140626 0l-.7089374-.7089813a1.0001 1.0001 0 0 1 0-1.4140625l.7089844-.7089844 1.046875-1.0488281z" fill="#fafafa"/></g><g stroke-width=".264583" transform="translate(0 -292.76665)"><path d="m2.6458333 293.29583.4557861.43254-.5606892.5612-.1875855.18759.1875855.18758.1870687-.18707.0005167-.00051.5617229-.56121.4139282.43822v-1.05834z" fill="#1e8bcd"/><path d="m2.2489583 295.54478-.9260417.92603-.2645833-.26458-.6614583.52917h2.778125v-.39687z" fill="#83beef" stroke-width=".070004"/><path d="m2.2489583 295.1479-.9260417.92603-.2645833-.26458-.79374997.66147v.26458h.13229167l.6614583-.52917.2645833.26457.9260417-.92602.9260417.79375v-.39688z" fill="#0063b1" stroke-width=".070004"/><path d="m1.5875 294.61874a.52916667.52916667 0 0 1 -.5291667.52916.52916667.52916667 0 0 1 -.52916663-.52916.52916667.52916667 0 0 1 .52916663-.52917.52916667.52916667 0 0 1 .5291667.52917z" fill="#ed8733" stroke-width=".211667"/><path d="m1.3229167 294.61874a.26458333.26458333 0 0 1 -.2645834.26458.26458333.26458333 0 0 1 -.2645833-.26458.26458333.26458333 0 0 1 .2645833-.26459.26458333.26458333 0 0 1 .2645834.26459z" fill="#f8db8f"/></g></svg>