<svg viewBox="0 0 16 16" xmlns="http://www.w3.org/2000/svg"><path d="m1 1v14h5v-9h9v-5z" fill="#fafafa"/><path d="m0 0v16h6v-1h-5v-14h14v5h1v-6z" fill="#3a3a38"/><path d="m3 1v4h-2v1h2v4h-2v1h2v4h1v-4h2v-1h-2v-4h2 6 1 2v-1h-2v-4h-1v4h-8v-4z" fill="#797774"/><path d="m3 10v6h3v-6z" fill="#d42314"/><path d="m4 11v4h2v-4z" fill="#ff9198"/><path d="m3 5v6h3v-5h7v-1z" fill="#309048"/><path d="m4 6v4h2v-4z" fill="#a1ddaa"/><path d="m3 0h10v6h-10z" fill="#d42314" stroke-width="1.279204"/><path d="m4 1h8v4h-8z" fill="#ff9198" stroke-width=".953463"/><path d="m7 7h9v9h-9z" fill="#3a3a38"/><path d="m8 8h7v7h-7z" fill="#fafafa"/><path d="m12 9-.400391 1h-2.599609v1h2.199219l-.398438 1h-1.800781v1h1.400391l-.400391 1h1l.400391-1h2.599609v-1h-2.199219l.398438-1h1.800781v-1h-1.400391l.400391-1z" fill="#797774"/></svg>