<svg viewBox="0 0 16 16" xmlns="http://www.w3.org/2000/svg">






     /&amp;amp;amp;gt;
 <path d="m8 4a4 4 0 0 1 -4 4 4 4 0 0 1 -4-4 4 4 0 0 1 4-4 4 4 0 0 1 4 4z" fill="#3a3a38"/><path d="m7 4a3 3 0 0 1 -3 3 3 3 0 0 1 -3-3 3 3 0 0 1 3-3 3 3 0 0 1 3 3z" fill="#fafafa"/><circle cx="4" cy="4" fill="#1e8bcd" r="2"/><path d="m9 1c-.554 0-1 .446-1 1v4c0 .554.446 1 1 1h.4804688l.0390624-.1972656a1.0001 1.0001 0 0 1 .9804688-.8027344h2a1.0001 1.0001 0 0 1 .980469.8027344l.039062.1972656h1.480469c.554 0 1-.446 1-1v-4c0-.554-.446-1-1-1z" fill="#3a3a38"/><path d="m9 2h5v3h-5z" fill="#fafafa"/><path d="m10.5 7-.412109 2.056641-1.9843754-.6718754-.25.4316406-.5.8671878-.25.43164 1.5742188 1.384766-1.5742188 1.384766.25.43164.5.867188.25.43164 1.9843754-.671875.412109 2.056641h.5 1 .5l.412109-2.056641 1.984375.671875.25-.43164.5-.867188.25-.43164-1.574218-1.384766 1.574218-1.384766-.25-.43164-.5-.8671878-.25-.4316406-1.984375.6718754-.412109-2.056641h-.5-1zm.875 1h.25l.375 1.5h.654297l.328125.566406 1.486328-.423828.125.214844-1.111328 1.076172.328125.566406-.328125.566406 1.111328 1.076172-.125.214844-1.486328-.423828-.328125.566406h-.654297l-.375 1.5h-.25l-.375-1.5h-.654297l-.328125-.566406-1.486328.423828-.125-.214844 1.1113281-1.076172-.328125-.566406.328125-.566406-1.1113281-1.076172.125-.214844 1.486328.423828.328125-.566406h.654297zm.125 2a1.5 1.5 0 0 0 -1.5 1.5 1.5 1.5 0 0 0 1.5 1.5 1.5 1.5 0 0 0 1.5-1.5 1.5 1.5 0 0 0 -1.5-1.5zm0 1a.5.5 0 0 1 .5.5.5.5 0 0 1 -.5.5.5.5 0 0 1 -.5-.5.5.5 0 0 1 .5-.5z" fill="#1e8bcd"/><path d="m11.375 8h.25l.375 1.5h.654297l.328125.566406 1.486328-.423828.125.214844-1.111328 1.076172.328125.566406-.328125.566406 1.111328 1.076172-.125.214844-1.486328-.423828-.328125.566406h-.654297l-.375 1.5h-.25l-.375-1.5h-.654297l-.328125-.566406-1.486328.423828-.125-.214844 1.1113281-1.076172-.328125-.566406.328125-.566406-1.1113281-1.076172.125-.214844 1.486328.423828.328125-.566406h.654297zm.125 2c-.828427 0-1.5.671573-1.5 1.5s.671573 1.5 1.5 1.5 1.5-.671573 1.5-1.5-.671573-1.5-1.5-1.5z" fill="#fafafa"/></svg>