<svg viewBox="0 0 16 16" xmlns="http://www.w3.org/2000/svg"><path d="m9 2h6v13h-6z" fill="#fafafa"/><g fill="#3a3a38" transform="translate(1)"><path d="m9 7 2-4 2 4z" fill-rule="evenodd"/><path d="m8 1c-.554 0-1.001273.4460015-1 1v6 1 6c0 .554.446 1 1 1h6c.554 0 1-.446 1-1v-6-1-6c0-.554-.446-1-1-1zm0 1h6v6h-6zm0 7h6v6h-6z"/><path d="m9 10 2 4 2-4z" fill-rule="evenodd"/></g><path d="m1 9h6v6h-6z" fill="#fafafa" stroke-width=".5"/><path d="m.5 8c-.277 0-.5.223-.5.5v7c0 .277.223.5.5.5h7c.277 0 .5-.223.5-.5v-7c0-.277-.223-.5-.5-.5zm.5 1h6v6h-6z" fill="#3a3a38" stroke-width=".5"/><path d="m2 12.5 1.5 1 2.5-3" fill="none" stroke="#3a3a38" stroke-linecap="round" stroke-linejoin="round" stroke-width="1.6"/><path d="m4 0a4 4 0 0 0 -4 4 4 4 0 0 0 4 4 4 4 0 0 0 4-4 4 4 0 0 0 -4-4zm0 1a3 3 0 0 1 3 3 3 3 0 0 1 -3 3 3 3 0 0 1 -3-3 3 3 0 0 1 3-3z" fill="#3a3a38"/><circle cx="4" cy="4" fill="#fafafa" r="3"/><path d="m5.99865 4a1.99865 1.99865 0 0 1 -1.99865 1.99865 1.99865 1.99865 0 0 1 -1.99865-1.99865 1.99865 1.99865 0 0 1 1.99865-1.99865 1.99865 1.99865 0 0 1 1.99865 1.99865z" fill="#1e8bcd" fill-opacity=".898039"/></svg>