<svg viewBox="0 0 16 16" xmlns="http://www.w3.org/2000/svg">/&amp;gt;<path d="m8 0c-4.412355 0-8 3.5876537-8 8 0 4.412346 3.587645 8 8 8s8-3.587654 8-8c0-4.4123463-3.587645-8-8-8zm0 1c3.871913 0 7 3.1280955 7 7 0 3.871904-3.128087 7-7 7s-7-3.128096-7-7c0-3.8719045 3.128087-7 7-7zm-.00586 3c-2.2421083.0296791-3.9997674 1.750012-3.99414 4.0019531.0056189 2.2485339 1.7482439 4.0279319 4.0058594 3.9980469 2.2422676-.029681 3.9672586-1.751131 3.9941406-3.9941406.027048-2.2568688-1.748156-4.035745-4.0058594-4.0058594zm.011719 1c1.742234-.0230622 3.015029 1.2512966 2.994141 2.9941406-.021058 1.7569908-1.248127 2.9825924-3.0058594 3.0058594-1.7423213.023063-2.9897639-1.2504873-2.9941406-3.0019531-.004371-1.7491953 1.2479683-2.9747774 3.0058594-2.9980469z" fill="#1e8bcd"/></svg>