<svg viewBox="0 0 16 16" xmlns="http://www.w3.org/2000/svg">


/&amp;amp;amp;amp;amp;gt;<path d="m1 5h14v9h-14z" fill="#fafafa"/><path d="m13 1v2c0 .554-.446 1-1 1h-12v1h16v-4z"/><path d="m0 5v9.5c-.00038442.276301.22369855.500384.5.5h15c.276301.000384.500384-.223699.5-.5v-9.5h-.998047v9.001953h-14.00390612v-9.001953z" fill="#3a3a38"/><g fill="#797774"><path d="m5 5v4h-4v1h4v4h1v-4h4v4h1v-4h4v-1h-4v-4h-1v4h-4v-4z"/><path d="m13 2v1c0 .554-.446 1-1 1h3v-2z"/></g><rect fill="#1e8bcd" height="2" ry=".961864" width="12" y="1"/></svg>