<svg viewBox="0 0 16 16" xmlns="http://www.w3.org/2000/svg">
/&amp;amp;gt;<path d="m1 2v5h5.8789062l1-1h-.3789062c-.8137028 0-1.5-.6862972-1.5-1.5s.6862972-1.5 1.5-1.5h.3769531l-1-1z" fill="#fafafa"/><path d="m0 0v2 6h6.0976562c.07082-.206354.1822192-.4009689.34375-.5625l.4375-.4375h-5.8789062v-5h5.8769531l-.4355469-.4355469c-.41529-.41529-.5260919-1.0345978-.3417968-1.5644531z" fill="#3a3a38"/><path d="m8 10h7v5h-7z" fill="#fafafa"/><path d="m10 8.1210938-1.4375 1.4375c-.4146877.4146871-1.0331491.5269092-1.5625.34375v.0976562 6h9v-6-.0996094c-.529855.1842954-1.149163.0734934-1.564453-.3417968l-1.435547-1.4355469v.3769531c0 .8137028-.686297 1.5-1.5 1.5h3.5v5h-7v-5h3.5c-.813703 0-1.5-.6862972-1.5-1.5z" fill="#3a3a38"/><path d="m3 8v5h1 3v-1h-3v-4z" fill="#1e8bcd"/><path d="m2 3v1h4.09375c.1534783-.4179771.4882729-.7527717.90625-.90625v-.09375zm0 2v1h5v-.09375c-.4179771-.1534783-.7527717-.4882729-.90625-.90625z" fill="#797774"/><path d="m9 11v1h5v-1zm0 2v1h5v-1z" fill="#797774"/><g transform="translate(8)"><path d="m3.5 0c-.277 0-.5.223-.5.5v1.5507812a2.5 2.5 0 0 0 -.8789062.3652344l-2.26562505-2.26562498c-.19586858-.19586857-.51116267-.19586857-.70703125 0-.1958686.19586858-.1958686.51116268 0 .70703126l2.265625 2.26562502a2.5 2.5 0 0 0 -.359375.8769531h-1.5546875c-.277 0-.5.223-.5.5s.223.5.5.5h1.5507812a2.5 2.5 0 0 0 .3652344.8769531l-2.2675781 2.2675781c-.1958685.1958687-.1958685.5111627 0 .7070313.19586857.1958685.51116267.1958685.70703125 0l2.26757815-2.2675781a2.5 2.5 0 0 0 .8769531.3613281v1.5546875c0 .277.223.5.5.5s.5-.223.5-.5v-1.5507812a2.5 2.5 0 0 0 .875-.3652344l2.2675781 2.2675781c.1958686.1958686.5111627.1958686.7070313 0s.1958686-.5111626 0-.7070313l-2.265625-2.265625a2.5 2.5 0 0 0 .3613281-.8789062h1.5546875c.277 0 .5-.223.5-.5s-.223-.5-.5-.5h-1.5507812a2.5 2.5 0 0 0 -.3652344-.8769531l2.265625-2.26562502c.1958686-.19586858.1958686-.51116268 0-.70703126-.1958686-.19586857-.5111627-.19586857-.7070313 0l-2.265625 2.26562498a2.5 2.5 0 0 0 -.8769531-.3613281v-1.5546875c0-.277-.223-.5-.5-.5zm0 3a1.5 1.5 0 0 1 1.5 1.5 1.5 1.5 0 0 1 -1.5 1.5 1.5 1.5 0 0 1 -1.5-1.5 1.5 1.5 0 0 1 .4394531-1.0585938 1.5 1.5 0 0 1 .0019531-.0019531 1.5 1.5 0 0 1 1.0585938-.4394531z" fill="#fb983b"/><circle cx="3.5" cy="4.5" fill="#fafafa" r="1.5"/></g></svg>