<svg height="16" viewBox="0 0 4.2333332 4.2333335" width="16" xmlns="http://www.w3.org/2000/svg"><path d="m1 1v10h4v-7.5c.0003065-.7694255.6840938-1.4753701 1.453125-1.5.3487297-.0106862.7004776.1044923.9746094.3203125a.99814667.99814667 0 0 0 .0019531.0019531l7.5703125 5.9765625v-7.2988281z" fill="#fafafa" transform="scale(.26458333)"/><path d="m0 0v1 10 1h5v-1h-4v-10h14v7.2988281l1 .7910157v-8.0898438-1zm16 11.832031c-.198803.097565-.410807.167484-.632812.167969h.632812z" fill="#3a3a38" stroke-width=".26639" transform="scale(.26458333)"/><g fill="#3a3a38" stroke-width=".856606" transform="matrix(.26458333615 0 0 .26458333615 -.00000013794 .00000001347)"><path d="m5 4.2519531c-.4271811.0034107-.8181957.0778701-1.171875.2246094-.3582434.1463791-.6938409.3694597-1.0058594.6699219l.1855469.3242187c.0308166.0539289.0710167.0981434.1210937.1328125.050077.0346686.1103501.0507813.1796876.0507813.0885978 0 .1750199-.0301637.2597656-.0917969.0885979-.0616333.1911324-.1299355.3105468-.203125.1194145-.0731895.2600877-.1395386.421875-.2011719.1656395-.0616332.368593-.0917969.6074219-.0917969.0347686 0 .0586611.0135206.0917969.015625zm0 2.6484375c-.2174226.027938-.4285912.0582828-.6113281.1015625-.4391371.1001542-.7948617.2307908-1.0683594.3925781-.2734976.1617874-.4724366.3466752-.5957031.5546876-.1194145.2041602-.1796875.4172045-.1796875.640625 0 .2542372.0402001.4753103.1210937.6640624.0847458.1848998.1992699.3416312.3417969.46875.146379.1232667.3132012.2157114.5019531.2773438.192604.057781.3995721.085938.6191406.085938.2118645-.000001.4048357-.018119.5820313-.056641.1028077-.020115.194035-.0606685.2890625-.0937501v-.6464844c-.0335538.0099567-.063202.0267751-.0976562.0351563-.142527.0346702-.2992586.0507812-.46875.0507812-.1271187 0-.2457116-.0141035-.3574219-.0449219-.1117104-.0346687-.2081688-.0849052-.2890625-.1503906-.0808935-.0693374-.1452353-.1557594-.1953125-.2597656-.0462248-.107858-.0703125-.2344801-.0703125-.3808594 0-.154083.0442146-.2927491.1328125-.4160156.0885978-.1271187.2312783-.2376282.4277343-.3300781.2003082-.09245.457567-.166774.7734376-.2207032.0396629-.0072554.1027424-.0070238.1445312-.0136718z"/><path d="m9 1.7832031v1.7792969l1.017578.8027344v-2.5820313zm2.832031 2.4785157c-.385208 0-.726827.0823532-1.023437.2441406-.117242.0624277-.225021.1402197-.332032.2207031l.523438.4160156c.152643-.0465234.31433-.0761719.490234-.0761719.454547 0 .804249.1608004 1.050782.484375.191411.2512266.306811.6144825.349609 1.0839844l1.039063.8203125c.011758-.1398018.027343-.277059.027343-.4257812 0-.431433-.050236-.8153138-.15039-1.1542969-.096302-.3428351-.236975-.6342179-.421875-.8730469-.1849-.2388289-.407981-.4217094-.669922-.5488281-.261941-.1271186-.555386-.1914063-.882813-.1914062z"/></g><g fill-rule="evenodd" transform="scale(.26458333)"><path d="m6.484375 2.9980469a.5024107.5024107 0 0 0 -.4863281.5019531v11.298828a.5024107.5024107 0 0 0 .859375.353516l2.3300781-2.347656 1.207031 2.394531-.02148-.04883c.158804.419916.531583.682333.902344.787109.37076.104776.761012.08648 1.125-.02344.363987-.109912.714608-.315863.947265-.660156.232658-.344292.297621-.835262.123047-1.296875a.5024107.5024107 0 0 0 -.01563-.03516l-1.36914-2.919922h3.279296a.5024107.5024107 0 0 0 .310547-.896484l-8.8652331-6.9999922a.5024107.5024107 0 0 0 -.3261719-.1074219z" fill="#3a3a38"/><path d="m7 4.5332031v9.0527349l1.9667969-1.982422a.49993388.49993388 0 0 1 .8027343.126953l1.5214848 3.017578a.49993388.49993388 0 0 1 .01953.04687c.03169.0838.08929.135631.238281.177734.148987.0421.369196.0402.560547-.01758s.341175-.165419.40625-.261719c.06408-.09482.09231-.172702.01758-.375l-1.689454-3.605461a.49993388.49993388 0 0 1 .453125-.712891h2.626953z" fill="#fafafa"/></g></svg>