<svg viewBox="0 0 16 16" xmlns="http://www.w3.org/2000/svg">






/&amp;amp;amp;amp;amp;amp;amp;gt;<path d="m2 2v8h3.0859375a6 6 0 0 1 -.0859375-1 6 6 0 0 1 6-6 6 6 0 0 1 2 .3515625v-1.3515625z" fill="#fafafa"/><path d="m1 1v10h4.3496094a6 6 0 0 1 -.2636719-1h-3.0859375v-8h11v1.3515625a6 6 0 0 1 1 .4589844v-2.8105469z" fill="#3a3a38"/><path d="m0 0h15v1h-15z" fill="#1e8bcd"/><path d="m3 3v2h3.5351562a6 6 0 0 1 4.4648438-2zm8 0a6 6 0 0 1 1 .0898438v-.0898438z" fill="#797774"/><path d="m7 13.464844v1.535156h1v-.810547a6 6 0 0 1 -1-.724609z" fill="#3a3a38"/><path d="m2 15h11v1h-11z" fill="#3a3a38"/><circle cx="11" cy="11" fill="#fafafa" r="0"/><path d="m16 9a5 5 0 0 1 -5 5 5 5 0 0 1 -5-5 5 5 0 0 1 5-5 5 5 0 0 1 5 5z" fill="#3a3a38"/><path d="m15 9a4 4 0 0 1 -4 4 4 4 0 0 1 -4-4 4 4 0 0 1 4-4 4 4 0 0 1 4 4z" fill="#fafafa"/><g fill="#3a3a38"><path d="m10 6h1v5h-1z"/><path d="m11 10h2v1h-2z"/></g></svg>