<svg viewBox="0 0 16 16" xmlns="http://www.w3.org/2000/svg">/&amp;amp;amp;amp;amp;amp;gt;<path d="m15 8a7 7 0 0 1 -7 7 7 7 0 0 1 -7-7 7 7 0 0 1 7-7 7 7 0 0 1 7 7z" fill="#f8db8f"/><g fill="#a05a00"><path d="m8 0a8 8 0 0 0 -8 8 8 8 0 0 0 8 8 8 8 0 0 0 8-8 8 8 0 0 0 -8-8zm0 1a7 7 0 0 1 7 7 7 7 0 0 1 -7 7 7 7 0 0 1 -7-7 7 7 0 0 1 7-7z" fill="#ed8733"/><path d="m4.2324219 10h7.5332031c-.564356 1.197184-2.0725528 1.998218-3.765625 2-1.6937893-.001162-3.2029822-.802309-3.7675781-2z" fill="#fafafa"/><g fill="#a05a00"><g fill="#a05a00"><path d="m5.5 4a1.5 1.5 0 0 0 -1.5 1.5 1.5 1.5 0 0 0 1.5 1.5 1.5 1.5 0 0 0 1.5-1.5 1.5 1.5 0 0 0 -1.5-1.5zm0 1a.5.5 0 0 1 .5.5.5.5 0 0 1 -.5.5.5.5 0 0 1 -.5-.5.5.5 0 0 1 .5-.5z" fill="#3a3a38"/><path d="m10.5 4a1.5 1.5 0 0 0 -1.5 1.5 1.5 1.5 0 0 0 1.5 1.5 1.5 1.5 0 0 0 1.5-1.5 1.5 1.5 0 0 0 -1.5-1.5zm0 1a.5.5 0 0 1 .5.5.5.5 0 0 1 -.5.5.5.5 0 0 1 -.5-.5.5.5 0 0 1 .5-.5z" fill="#3a3a38"/><path d="m3 9a5 4 0 0 0 5 4 5 4 0 0 0 5-4h-.5-.5-8-.5zm1.2324219 1h7.5332031a4 3 0 0 1 -3.765625 2 4 3 0 0 1 -3.7675781-2z" fill="#ed8733"/></g><path d="m5.5 5c.2761424 0 .5.2238576.5.5s-.2238576.5-.5.5-.5-.2238576-.5-.5.2238576-.5.5-.5zm5 0c.276142 0 .5.2238576.5.5s-.223858.5-.5.5-.5-.2238576-.5-.5.223858-.5.5-.5z" fill="#3a3a38"/><path d="m8 11a3 1.25 0 0 0 -2.3046875.451172c.6591682.349408 1.4587528.548248 2.3046875.548828.8449136-.000889 1.6442307-.199942 2.302734-.548828a3 1.25 0 0 0 -2.302734-.451172z" fill="#ed3d3b"/></g></g></svg>