<svg viewBox="0 0 16 16" xmlns="http://www.w3.org/2000/svg"><path d="m1 6 9-5h5v6l-5 8v-9z" fill="#fafafa" fill-rule="evenodd"/><path d="m10 0-.4277344.21875-9.1425781 5.5449219-.4296875.2363281v10h10c2.041677-3.142583 4.282542-6.277179 6-9v-6-.29296875-.70703125h-.707031-.292969zm.214844 1h4.078125l-4.6464846 4.6464844-.3535156.3535156h-7.3242188l8.123047-4.9257812zm4.785156.7070312v5.0625l-5 7.4374998v-7.4999998l.353516-.3535156zm-14 5.2929688h8v8h-8z" fill="#3a3a38"/><g fill="#fafafa"><path d="m1 7h8v8h-8z"/><path d="m1 7h8v8h-8z"/></g></svg>