<svg viewBox="0 0 16 16" xmlns="http://www.w3.org/2000/svg">/&amp;gt;<g stroke-linejoin="round" transform="matrix(-1 0 0 1 16 0)"><path d="m11.603515 1.7559898c-1.257865.080247-2.467453.8978611-3.6621087 2.1875-2.7143895 3.0996208-5.1293038 2.4336581-7.4414063.3051757v1.7260742 4.0625003 1.711426c1.2731477 1.523179 2.5574337 2.5 3.75 2.5 1.25 0 2.5490762-.822957 3.8085938-2.182617 2.7143902-3.0996216 5.1293042-2.4458664 7.4414062-.317383v-1.711426-4.0625003-1.7260742c-1.346241-1.6106271-2.638619-2.5729228-3.896485-2.4926757z" fill="#fafafa" stroke="#3a3a38"/><path d="m11.643458 2.6725823c-1.106149.059755-2.6444206 1.4821461-3.6949845 2.442468-2.386997 2.308114-4.4089446 2.3206835-6.56082.8543659l.016949 1.1666667v3.0251161 1.274403c1.1195887 1.134227 2.0116841 1.844661 3.0604106 1.844661 1.0992328 0 2.4789108-1.443318 3.5865133-2.455781 2.3869976-2.3081144 4.4936906-2.1263841 6.5099726-.8973546l.0339-1.0879623v-3.0251161-1.2853108c-1.183868-1.1993437-1.845792-1.9159114-2.951941-1.8561559z" fill="none" stroke="#fafafa" stroke-width=".809215"/></g></svg>