<svg viewBox="0 0 16 16" xmlns="http://www.w3.org/2000/svg">
/&amp;amp;amp;gt;<path d="m7.5 15.5c-2.800018-.395012-2.5435045-1.295433-3.4999999-3.5-.97098-1.29464 1.0361331-3.4566505.4999999-5.5-.2582261-.98417-.7315418-3.1658969-3-3h7c4.718974 0 3.624082 4.5462801 6.963725 6.995148-1 5-3.463725 5.504852-7.963725 5.004852z" fill="#83beec" stroke="#0063b1"/><g transform="translate(-1 -5)"><path d="m14.809596 6.0679863c.171006-.1739438-.174941.1601863-1.386719 1.3476562l.01563.015625c.619714-.6142617 1.234361-1.2242057 1.371089-1.3632812zm-1.371094 1.3632812c-1.705556 1.6905364-7.4229688 7.3697965-7.7236582 7.6702945l-.7148438 2.898438 2.8554688-.757812 7.6885012-7.7034991zm-.002 1.0078125 1.099609 1.0996089-7.0498299 7.0628731-1.5039062.400391.3789062-1.535156c.3659391-.364052 5.4366929-5.405291 7.0752679-7.027717z" fill="#3a3a38"/><path d="m15.071314 5.9996269c-.142171 0-.283638.053302-.392578.1621094l-1.255859 1.2539062 2.134765 2.1367184 1.283204-1.2304684c.21788-.2175952.21788-.5675602 0-.7851562l-1.376954-1.375c-.108941-.108798-.250406-.1621094-.392578-.1621094zm0 .9941406.933594.9316406-.433594.4160157-.923828-.9257813z" fill="#3a3a38"/><g fill="#fafafa"><path d="m15.071314 6.9937675-.423828.421875.923828.9257813.433594-.4160157z"/><path d="m13.436549 8.43908c-1.638575 1.622426-6.7093288 6.663665-7.0752209 7.027717l-.3789062 1.535156 1.5039062-.400391 7.0498299-7.0628731z"/></g><path d="m16.263456 9.1923881 1.455965-2.5549758h-3z" fill="#3a3a38" transform="matrix(.70710678 .70710678 -.70710678 .70710678 0 0)"/></g></svg>