<svg viewBox="0 0 16 16" xmlns="http://www.w3.org/2000/svg"><path d="m1 7v8h9v-4h-5c-.554 0-1-.446-1-1v-3z" fill="#fafafa"/><path d="m1 7h9v8h-9z" fill="none"/><path d="m.5 6a.50005.50005 0 0 0 -.5.5v9a.50005.50005 0 0 0 .5.5h10a.50005.50005 0 0 0 .5-.5v-4.5h-1v4h-9v-8h3v-1z" fill="#3a3a38"/><path d="m5.5 0c-.2761309.00002761-.4999724.22386906-.5.5v9c.0000276.2761309.2238691.4999724.5.5h10c.276131-.0000276.499972-.2238691.5-.5v-9c-.000028-.27613094-.223869-.49997239-.5-.5z" fill="#ed8733"/><path d="m6 1h9v8h-9z" fill="#f8db8f"/></svg>