<svg viewBox="0 0 16 16" xmlns="http://www.w3.org/2000/svg">
/&amp;gt;<path d="m2 2h9v7h-9z" fill="#fafafa"/><path d="m5 6c-.554 0-1 .446-1 1v7c0 .554.446 1 1 1h9c.554 0 1-.446 1-1v-7c0-.554-.446-1-1-1zm0 1h9v7h-9z" fill="#3a3a38"/><path d="m13 0h3v3h-3z" fill="#0063b1"/><path d="m0 13h3v3h-3z" fill="#0063b1"/><path d="m5 7h9v7h-9z" fill="#fafafa"/><path d="m13 13h3v3h-3z" fill="#0063b1"/><g fill="#fafafa"><path d="m14 1h1v1h-1z"/><path d="m14 14h1v1h-1z"/><path d="m1 14h1v1h-1z"/></g><path d="m2 1c-.554 0-1 .446-1 1v7c0 .554.446 1 1 1h9c.554 0 1-.446 1-1v-7c0-.554-.446-1-1-1zm0 1h9v7h-9z" fill="#3a3a38"/><path d="m0 0h3v3h-3z" fill="#0063b1"/><path d="m1 1h1v1h-1z" fill="#fafafa"/></svg>