<svg viewBox="0 0 16 16" xmlns="http://www.w3.org/2000/svg"><path d="m1 4.9765625a1.0240893 1.0240893 0 0 0 -1.0234375 1.0234375v8a1.0240893 1.0240893 0 0 0 .19335938.599609c.39346384.543353.92604382 1.051863 1.63867192 1.330079.7109269.277551 1.551799.295442 2.4472656.06055 1.2298536-.309503 2.2766999-.989876 3.2460937-1.53516.9717513-.54661 1.8393759-.931641 2.4980469-.93164a1.0240893 1.0240893 0 0 0 1.023438-1.023438v-6.5a1.0240893 1.0240893 0 0 0 -1.023438-1.0234375z" fill="#3a3a38" transform="translate(4 -4)"/><path d="m5 2v8c.6353599.877399 1.514085 1.391683 3 1 2-.5 4-2.5 6-2.5v-6.5z" fill="#fafafa"/><path d="m1 4.9765625a1.0240893 1.0240893 0 0 0 -1.0234375 1.0234375v8a1.0240893 1.0240893 0 0 0 .19335938.599609c.39346384.543353.92604382 1.051863 1.63867192 1.330079.7109269.277551 1.551799.295442 2.4472656.06055 1.2298536-.309503 2.2766999-.989876 3.2460937-1.53516.9717513-.54661 1.8393759-.931641 2.4980469-.93164a1.0240893 1.0240893 0 0 0 1.023438-1.023438v-6.5a1.0240893 1.0240893 0 0 0 -1.023438-1.0234375z" fill="#3a3a38" transform="translate(2 -2)"/><path d="m3 4v8c.6353599.877399 1.514085 1.391683 3 1 2-.5 4-2.5 6-2.5v-6.5z" fill="#fafafa"/><path d="m1 4.9765625a1.0240893 1.0240893 0 0 0 -1.0234375 1.0234375v8a1.0240893 1.0240893 0 0 0 .19335938.599609c.39346384.543353.92604382 1.051863 1.63867192 1.330079.7109269.277551 1.551799.295442 2.4472656.06055 1.2298536-.309503 2.2766999-.989876 3.2460937-1.53516.9717513-.54661 1.8393759-.931641 2.4980469-.93164a1.0240893 1.0240893 0 0 0 1.023438-1.023438v-6.5a1.0240893 1.0240893 0 0 0 -1.023438-1.0234375z" fill="#3a3a38"/><path d="m1 6v8c.6353599.877399 1.514085 1.391683 3 1 2-.5 4-2.5 6-2.5v-6.5z" fill="#fafafa"/></svg>