<svg height="16" viewBox="0 0 4.2333332 4.2333335" width="16" xmlns="http://www.w3.org/2000/svg"><g transform="translate(0 -292.76665)"><path d="m.26354981 293.5604.001034 2.91041h3.70416629l-.00103-2.91041h-2.612764l.7611938.76067v-.0992c0-.21557.1818222-.3974.3973918-.3974s.3973918.18183.3973918.3974v1.05833c.0000008.0518-.010464.10267-.029456.14934v.00053c-.0002911.00085-.00148.004-.00156.005h-.0005291c-.041454.0981-.1202508.17442-.2165242.21343-.046692.019-.097514.0294-.1493219.0294h-1.058334c-.2155695 0-.3973917-.18182-.3973917-.39739s.1818222-.39739.3973917-.39739h.098185l-.90847143-.90828c-.10991326-.10992-.1390741-.27406-.0904338-.41444z" fill="#fafafa" stroke-width=".264583"/><path d="m1.3549561 293.5604.2325439.23254v-.23254zm1.2908773 0v.28887c.1508919.0554.2622839.20038.2645834.36742v-.12713-.52916zm-2.38125007.79375v.26458h1.02474367l-.2651001-.26458zm2.64635017 0v.26458h1.0578166v-.26458zm-1.5880168.29817v.25528c.041745-.0153.085959-.0248.1322916-.0248h.098185zm1.5875001.63304c-.000688.05-.010589.0991-.028939.14417v.00053c-.0002911.00085-.00148.004-.00156.005h-.0005291c-.041454.0981-.1202508.17442-.2165242.21343-.045114.0184-.094164.0282-.1441543.0289h.1271241v.26459.52916h.2645834v-.52916-.26459h1.0583324v-.26491h-1.0583333zm-2.64583347.12712v.26458h1.05833337v.26459.52916h.2645833v-.52916-.26407h-.1322917c-.1692368 0-.3165973-.11262-.372587-.2651z" fill="#797774" stroke-width=".264583"/><path d="m2.9104168 295.67706h1.0583333l.0005292.79427h-1.0583334z" fill="#83beec" stroke-width=".209383"/><g stroke-width=".264583"><path d="m.13177491 293.29633c-.07310476-.0001-.13239338.0592-.13229167.13229.00165619 1.05794.00051676 2.11593.00051676 3.17448-.00010171.0731.05918691.1324.13229167.1323h3.96875013c.073105.0001.1323932-.0592.1322916-.1323-.0004233-1.05855.00114-2.11654-.0005291-3.17448.0001016-.0731-.059187-.13239-.1322917-.13229h-3.1693033c.1018563.001.2019973.0423.2759521.11627l.1477947.1478h2.6127605.00103l.0005308 2.91093h-3.70521082l-.00051677-2.91093h.2909383c.0187976-.0543.0479521-.10532.0904338-.1478.0739494-.074.17409586-.1149.27595217-.11627z" fill="#3a3a38"/><g fill="#0063b1"><path d="m2.8866455 295.41248c-.00198.006-.00294.0116-.00517.0171v.00053c-.000291.00085-.00148.004-.00156.005h-.0005292c-.041454.0981-.1202507.17441-.2165241.21343-.00547.002-.011472.003-.017052.005v.0238l.00103.79375h.2635735v-.52916-.26459h1.0583364l.0005292.79427h-1.3224124v.26407h1.4541749c.072929.0001.1321083-.0589.1322916-.13178v-.00053l-.00103-1.19062h-.2635517-1.0583333z"/><path d="m.92592665 293.56069c-.0338165 0-.0676225.0134-.0935343.0393-.0518236.0518-.0518213.13524 0 .18707l1.36178895 1.36086h-.738973c-.07329 0-.1322916.059-.1322916.13229 0 .0733.059002.13229.1322916.13229h1.0583334c.016908 0 .033689-.003.049609-.01.032575-.0131.058724-.0385.072347-.0708.0002699-.00063.000257-.001.000516-.002.00648-.0159.00982-.0327.00982-.0496v-1.05833c0-.0733-.059002-.1323-.1322918-.1323-.07329 0-.1322917.059-.1322917.1323v.73897l-1.361789-1.36086c-.0259107-.0259-.0597178-.0393-.0935344-.0393z"/></g></g></g></svg>