<svg viewBox="0 0 16 16" xmlns="http://www.w3.org/2000/svg"><path d="m3 1v7.9902344h1.8730469l-.421875-.421875c-.4528518-.4382739-.5560848-1.1254084-.3476563-1.640625.2079966-.5141489.7581458-.93563 1.3867188-.9375h.0019531c.404468-.0010277.7933154.1619873 1.0761719.4511718l2.9453125 2.9414063-.1074219-.0917969c.773747.5807992.779734 1.8003134.0117188 2.3886724l.0996093-.085938-2.9179687 2.919922c-.2244876.252026-.5548854.427257-.8886719.486328h7.2890625v-11.2949219l-2.695312-2.7050781zm0 10.990234v3.009766h2.25c-.3336088-.054247-.6171915-.209577-.8300781-.421875-.2520026-.251306-.4330708-.595966-.4492188-1.013672-.0161484-.417706.1870374-.878696.5078125-1.166015l.40625-.408204z" fill="#fafafa"/><path d="m3 0c-.554 0-1 .446-1 1v7.9902344h1v-7.9902344h6v3.5c0 .277.223.5.5.5h3.5v7 2 .091797.908203h-2-.740234-4.0585941-.4902344c-.0921034.0163-.1850477.028632-.2753906.025391-.0648431-.002328-.1242495-.015424-.1855469-.025391h-.25-2v-3.009766h-1v3.009766c0 .554.446 1 1 1h2 1.0292969 2.9433593 2.0273438 2c.554 0 1-.446 1-1v-.800781-.199219-2-7.5-.8632812l-3.636719-3.6367188h-.863281zm7 1 3 3h-3z" fill="#3a3a38"/><g fill="none" stroke="#1e8bcd" stroke-linecap="round" stroke-linejoin="round" transform="matrix(-1 0 0 1 14.007121 6)"><path d="m8.507121 1.494946-2.9999998 2.9949499 2.9999998 3.0050501"/><path d="m5.5071212 4.4898959h7.9928788"/></g></svg>