<svg viewBox="0 0 16 16" xmlns="http://www.w3.org/2000/svg">
/&amp;amp;gt;<g fill-rule="evenodd"><path d="m1.0019531.98242188v2.10937502l5.9023438 5.3671875.0820312-.1425782a1.0001 1.0001 0 0 0 .0019531-.0019531l.25-.4316406a1.0001 1.0001 0 0 1 1.1855469-.4453125l.90625.3066406.1894531-.9414062a1.0001 1.0001 0 0 1 .9804688-.8027344h.5.785156l3.212891-2.9375v-2.08007812z" fill="#fafafa"/><path d="m.50195312-.01953125a.50141049.50141049 0 0 0 -.50195312.50195313v2.83007812a.50141049.50141049 0 0 0 .1640625.3710938l6.0117187 5.4648437v.5976563a1.0001 1.0001 0 0 1 .0625-.1328126l.25-.4296874.4160157-.7265626-5.9023438-5.3671874v-2.1054688h13.9960939v2.0761719l-3.216797 2.9394531h.21875.5a1.0001 1.0001 0 0 1 .570312.1796875l2.765626-2.5273437a.50141049.50141049 0 0 0 .164062-.3691407v-2.80078122a.50141049.50141049 0 0 0 -.501953-.50195313zm5.67382808 10.50390625v2.03125a1.0001 1.0001 0 0 1 .2675782-.380859l.7207031-.634766-.7207031-.634766a1.0001 1.0001 0 0 1 -.2675782-.380859zm0 2.771484v2.242188a.50141049.50141049 0 0 0 .5.501953h2.6484376a.50141049.50141049 0 0 0 .1503906-.023438l-.1445313-.720703-.90625.306641a1.0001 1.0001 0 0 1 -1.1855469-.445312l-.25-.431641a1.0001 1.0001 0 0 0 -.0019531-.001953l-.4980469-.867188-.25-.429687a1.0001 1.0001 0 0 1 -.0625-.13086z" fill="#3a3a38"/></g><path d="m10.5 7-.412109 2.056641-1.9843754-.6718754-.25.4316406-.5.8671878-.25.43164 1.5742188 1.384766-1.5742188 1.384766.25.43164.5.867188.25.43164 1.9843754-.671875.412109 2.056641h.5 1 .5l.412109-2.056641 1.984375.671875.25-.43164.5-.867188.25-.43164-1.574218-1.384766 1.574218-1.384766-.25-.43164-.5-.8671878-.25-.4316406-1.984375.6718754-.412109-2.056641h-.5-1zm.875 1h.25l.375 1.5h.654297l.328125.566406 1.486328-.423828.125.214844-1.111328 1.076172.328125.566406-.328125.566406 1.111328 1.076172-.125.214844-1.486328-.423828-.328125.566406h-.654297l-.375 1.5h-.25l-.375-1.5h-.654297l-.328125-.566406-1.486328.423828-.125-.214844 1.1113281-1.076172-.328125-.566406.328125-.566406-1.1113281-1.076172.125-.214844 1.486328.423828.328125-.566406h.654297zm.125 2a1.5 1.5 0 0 0 -1.5 1.5 1.5 1.5 0 0 0 1.5 1.5 1.5 1.5 0 0 0 1.5-1.5 1.5 1.5 0 0 0 -1.5-1.5zm0 1a.5.5 0 0 1 .5.5.5.5 0 0 1 -.5.5.5.5 0 0 1 -.5-.5.5.5 0 0 1 .5-.5z" fill="#1e8bcd"/><path d="m11.375 8h.25l.375 1.5h.654297l.328125.566406 1.486328-.423828.125.214844-1.111328 1.076172.328125.566406-.328125.566406 1.111328 1.076172-.125.214844-1.486328-.423828-.328125.566406h-.654297l-.375 1.5h-.25l-.375-1.5h-.654297l-.328125-.566406-1.486328.423828-.125-.214844 1.1113281-1.076172-.328125-.566406.328125-.566406-1.1113281-1.076172.125-.214844 1.486328.423828.328125-.566406h.654297zm.125 2c-.828427 0-1.5.671573-1.5 1.5s.671573 1.5 1.5 1.5 1.5-.671573 1.5-1.5-.671573-1.5-1.5-1.5z" fill="#fafafa"/></svg>