<svg viewBox="0 0 16 16" xmlns="http://www.w3.org/2000/svg"><path d="m0 4v7h7v-7zm1 1h5v5h-5z" fill="#3a3a38"/><path d="m1 5h5v5h-5z" fill="#fafafa"/><path d="m3 5v2h-2v1h2v2h1v-2h2v-1h-2v-2z" fill="#18ab50"/><path d="m9 0v5h6v-5zm1 1h4v3h-4zm-1 4v5h6v-5zm1 1h4v3h-4zm-1 4v5h6v-5zm1 1h4v3h-4z" fill="#3a3a38"/><path d="m10 1v3h4v-3zm0 5v3h4v-3zm0 5v3h4v-3z" fill="#fafafa"/><g fill="#1e8bcd"><path d="m3.5 0c-.277 0-.5.223-.5.5 0 .04567837.0140203.0869226.0253906.12890625-.0115845.04234718-.0253906.08278484-.0253906.12890625v2.7421875c0 .277.223.5.5.5s.5-.223.5-.5v-2.5h3.5c.277 0 .5-.223.5-.5s-.223-.5-.5-.5z"/><path d="m3.5 15c-.277 0-.5-.223-.5-.5 0-.04568.01402-.08692.025391-.128906-.0115849-.042347-.025391-.082785-.025391-.128906v-2.742188c0-.277.223-.5.5-.5s.5.223.5.5v2.5h3.5c.277 0 .5.223.5.5s-.223.5-.5.5z"/></g></svg>