<svg viewBox="0 0 16 16" xmlns="http://www.w3.org/2000/svg">
/&amp;amp;gt;<path d="m8 0a8 8 0 0 0 -8 8 8 8 0 0 0 8 8 8 8 0 0 0 8-8 8 8 0 0 0 -8-8z" fill="#0063b1"/><path d="m15 8a7 7 0 0 1 -7 7 7 7 0 0 1 -7-7 7 7 0 0 1 7-7 7 7 0 0 1 7 7z" fill="#83beec"/><path d="m8 2c-2.2100007 0-4 1.9373333-4 4h2c0-1.0266666.9000001-2.1328125 2-2.1328125s2 .8385678 2 1.8652344c0 .5133334-.2198441.9804062-.5898438 1.3164062l-1.2402343 1.1757813c-.72.6813334-1.1699219 1.6159111-1.1699219 2.6425786v.132812h2c0-1.4.4499221-1.6272604 1.169922-2.3085938l.90039-.8574218c.570001-.532.929688-1.2802291.929688-2.1015625 0-2.0626667-1.79-3.7324219-4-3.7324219zm-1 10v2h2v-2z" fill="#fafafa"/></svg>