<svg viewBox="0 0 16 16" xmlns="http://www.w3.org/2000/svg"><path d="m1 11h14v4h-14z" fill="#a1ddaa" fill-opacity=".935114"/><path d="m1 1v9h10.474609c-.027895-.0007001-.059122-.0089615-.08789-.0117188-.030369-.0020693-.061092-.0092899-.091797-.0136718-.070867-.0116435-.140433-.0263433-.212891-.0488282-.028188-.0092171-.055685-.0197916-.083984-.03125-.260406-.0954243-.514397-.2477271-.689453-.4511718l.048828.0527344-2.9101564-2.9199219c-.2938013-.2954276-.4680294-.7420542-.4433594-1.1425781.0165681-.2689869.1168961-.4934422.2460938-.6953126.0326202-.0537408.0689522-.1014088.1074219-.1503906.0344335-.0418941.0577261-.0950447.0957031-.1328125.0189378-.0188335.046443-.0288939.0664062-.046875.0875321-.0813167.1838286-.144947.2851563-.2011719.0373463-.0207856.0678715-.048686.1074219-.0664062.0055338-.0024241.0100673-.0074235.015625-.0097656.0121534-.0051216.0267119-.005.0390625-.0097656.1435769-.0577335.2978541-.0999054.4667969-.109375.246706-.0138285.5071655.0555409.7421874.1738281.0024289.0012251.0053895.0007139.0078126.0019531.0020893.0010643.0037746.002833.0058593.0039062.1415446.0728718.2752929.1594526.3847657.2695313l.4277342.4277344-.001953-3.8886719zm12 0-.001953 3.8886719.427734-.4277344c.222681-.2239133.53217-.3773266.84375-.4296875.099514-.0167232.199889-.0249676.296875-.0195312.00476.0002667.008931.0016431.013672.0019531.146462.0095774.280873.0453021.408203.0917969.003599.0013327.008134.0006007.011719.0019531v-3.1074219zm2 6.1308594-2.357422 2.3652344.048828-.0527344c-.250708.2913672-.658574.4847972-1.021484.5351562-.048152.0066818-.098558.0203306-.144531.0214844h3.474609z" fill="#fafafa" fill-opacity=".935114"/><path d="m0 0v10h1c0-3 0-6 0-9 3.0018364.0001221 5.997836-.001953 9-.001953v-.498047l.002.0507813c-.0092854-.18012963.027082-.36977724.087844-.5507813-3.5923285 0-6.9412266 0-10.089844 0zm12.910156 0c.06075.18100446.09715.37065427.08789.55078125l.001954-.05078125v.5h2v3.1074219c.0042.00157.0076.00426.01172.00586.06218.023894.116696.056668.173828.087891.120447.064807.23265.1387625.328125.2304687.0097.00921.02373.014021.0332.023437.246192.2448353.424549.5779917.449219.9785157.02467.4005238-.149554.8471509-.44336 1.1425781l-.552732.554687v2.8691406h1v-4-1-5z" fill="#3a3a38"/><path d="m5 1v4h-4v1h4v4h1v-3.9492188-.0507812h.0058594 1.0878906c-.0660619-.1857265-.1012729-.3808513-.0898438-.5664062.0096445-.1565797.048118-.2988579.0996094-.4335938h-1.1035156v-4zm5 8.1367188v.8632812h1v-.1054688c-.261018-.0953465-.515959-.2472735-.691406-.4511718l.048828.0527344z" fill="#797774"/><path d="m1 10v1h4v4h1v-4h4v4h1v-4h4v-1z" fill="#18ab50"/><path d="m11.5 0c-.258489 0-.51796.14982333-.5.5l.001953 6.8105469-2.1367186-2.1445313c-.470054-.4726558-1.1790384.2324223-.7089844.7050782l2.910156 2.9199218c.124667.144885.268641.2048444.433594.2089844.164953-.00414.308927-.0640994.433594-.2089844l2.910156-2.9199218c.470054-.4726559-.23893-1.177734-.708984-.7050782l-2.136719 2.1445313.001953-6.8105469c.017955-.35017667-.241511-.5-.5-.5z" fill="#3a3a38" fill-rule="evenodd"/><path d="m0 10v5.5c-.000384.276301.223699.500384.5.5h15c.276301.000384.500384-.223699.5-.5v-5.5h-.998047v5.001953h-14.00390612v-5.001953z" fill="#309048"/></svg>