<svg viewBox="0 0 16 16" xmlns="http://www.w3.org/2000/svg"><path d="m9.1210938 2-1 1h.3789062c.8137028 0 1.5.6862972 1.5 1.5s-.6862972 1.5-1.5 1.5h-.3808594l1.4375 1.4375c.5752824.5752835.5752834 1.5458102 0 2.1210938-.5752838.5752842-1.5458099.5752842-2.1210937 0l-1.4355469-1.4355469v.3769531c0 .8137028-.6862972 1.5-1.5 1.5s-1.5-.6862972-1.5-1.5v-.3789062l-1.4375 1.4375c-.1615311.1615309-.356146.27293-.5625.34375v3.0976562h14v-11z" fill="#1e8bcd"/><path d="m9.9003906 1c-.0707617.2070303-.1817515.4024546-.34375.5644531l-.4355468.4355469h.1699218 5.7089844v11h-14v-3.0976562c-.32340432.1109912-.67684444.1118142-1 0v4.0976562h16v-13zm-9.9003906 1.1230469v.9707031c.15757018-.0578587.32510948-.09375.5-.09375h.37695312zm0 3.7832031v.9726562l.87890625-.8789062h-.37890625c-.17489052 0-.34242982-.0358913-.5-.09375z" fill="#3a3a38"/><path d="m8.5 3c.6388123 0 1.194913.4244527 1.40625 1h3.09375v1h-3.09375c-.211337.5755473-.7674377 1-1.40625 1h5.5v-.5-2-.5zm.6191406 4 .4375.4375c.1615307.161531.27293.3561459.34375.5625h3.0996094v3h-10v-2.5-.3789062l-1 1v2.3789062.5h12v-.5-4-.5z" fill="#fafafa" stroke-width=".5"/><g transform="translate(1)"><path d="m3.5 0c-.277 0-.5.223-.5.5v1.5507812a2.5 2.5 0 0 0 -.8789062.3652344l-2.26562505-2.26562498c-.19586858-.19586857-.51116267-.19586857-.70703125 0-.1958686.19586858-.1958686.51116268 0 .70703126l2.265625 2.26562502a2.5 2.5 0 0 0 -.359375.8769531h-1.5546875c-.277 0-.5.223-.5.5s.223.5.5.5h1.5507812a2.5 2.5 0 0 0 .3652344.8769531l-2.2675781 2.2675781c-.1958685.1958687-.1958685.5111627 0 .7070313.19586857.1958685.51116267.1958685.70703125 0l2.26757815-2.2675781a2.5 2.5 0 0 0 .8769531.3613281v1.5546875c0 .277.223.5.5.5s.5-.223.5-.5v-1.5507812a2.5 2.5 0 0 0 .875-.3652344l2.2675781 2.2675781c.1958686.1958686.5111627.1958686.7070313 0s.1958686-.5111626 0-.7070313l-2.265625-2.265625a2.5 2.5 0 0 0 .3613281-.8789062h1.5546875c.277 0 .5-.223.5-.5s-.223-.5-.5-.5h-1.5507812a2.5 2.5 0 0 0 -.3652344-.8769531l2.265625-2.26562502c.1958686-.19586858.1958686-.51116268 0-.70703126-.1958686-.19586857-.5111627-.19586857-.7070313 0l-2.265625 2.26562498a2.5 2.5 0 0 0 -.8769531-.3613281v-1.5546875c0-.277-.223-.5-.5-.5zm0 3a1.5 1.5 0 0 1 1.5 1.5 1.5 1.5 0 0 1 -1.5 1.5 1.5 1.5 0 0 1 -1.5-1.5 1.5 1.5 0 0 1 .4394531-1.0585938 1.5 1.5 0 0 1 .0019531-.0019531 1.5 1.5 0 0 1 1.0585938-.4394531z" fill="#fb983b"/><circle cx="3.5" cy="4.5" fill="#fafafa" r="1.5"/></g></svg>