<svg viewBox="0 0 16 16" xmlns="http://www.w3.org/2000/svg"><rect fill="#3a3a38" height="15" ry="1" width="15" x="1" y="1"/><path d="m1 1h13v13h-13z" fill="#fafafa"/><path d="m0 0v15h15v-15zm1 1h13v13h-13z" fill="#3a3a38"/><path d="m6 5a2 2 0 0 1 -2 2 2 2 0 0 1 -2-2 2 2 0 0 1 2-2 2 2 0 0 1 2 2z" fill="#ed8733" stroke-width=".8"/><path d="m10.5 7.5-4.5 5-1.5-1.5-3 3h12.5v-3z" fill="#83beef"/><path d="m10.5 6-4.5 5-1.5-1.5-3.5 3.5v1h.5l3-3 1.5 1.5 4.5-5 3.5 3.5v-1.5z" fill="#0063b1"/><path d="m5 5a1 1 0 0 1 -1 1 1 1 0 0 1 -1-1 1 1 0 0 1 1-1 1 1 0 0 1 1 1z" fill="#f8db8f"/></svg>