<svg viewBox="0 0 16 16" xmlns="http://www.w3.org/2000/svg"><path d="m1 1h14v14h-14z" fill="#fafafa"/><path d="m0 0v16h16v-16zm1 1h14v14h-14z" fill="#3a3a38"/><path d="m6 5a2 2 0 0 1 -2 2 2 2 0 0 1 -2-2 2 2 0 0 1 2-2 2 2 0 0 1 2 2z" fill="#ed8733" stroke-width=".8"/><path d="m11 8-4.5 5-1.5-1.5-3.5 3.5h13.5v-3z" fill="#83beef"/><path d="m11 6.5-4.5 5-1.5-1.5-4 4v1h.5l3.5-3.5 1.5 1.5 4.5-5 4 4v-1.5z" fill="#0063b1"/><path d="m5 5a1 1 0 0 1 -1 1 1 1 0 0 1 -1-1 1 1 0 0 1 1-1 1 1 0 0 1 1 1z" fill="#f8db8f"/><path d="m6 4v1 6 1h1 8 1v-1-6-1h-1-8zm1 1h8v6h-8z" fill="#d42314"/><path d="m7 5h8v6h-8z" fill="#fafafa" fill-opacity=".5"/></svg>