<svg viewBox="0 0 16 16" xmlns="http://www.w3.org/2000/svg"><g fill="#ed3d3b"><path d="m5.4882812 7c-.2687864 0-.4863281.2155885-.4863281.484375v.03125c0 .2687865.2175417.484375.4863281.484375h1.6816407l.0683593-.1171875a1.0001 1.0001 0 0 1 .7441407-.4902344c-.0442866-.2225323-.2308685-.3925781-.4667969-.3925781z"/><path d="m9.4785156 7.0039062c-.2654743.0127523-.4765625.2273505-.4765625.4960938 0 .0506058.0154415.0966075.0292969.1425781l.2988281.1015625z"/><path d="m13.519531 7 .150391.7441406.90625-.3066406a1.0001 1.0001 0 0 1 1.185547.4453125l.013672.0234375c.131564-.0898891.222656-.2342014.222656-.40625 0-.277-.223-.5-.5-.5z"/><path d="m.49414062 5.0000003a.50005.50005 0 0 0 -.49414062.5v4a.50005.50005 0 0 0 .77734375.4160156l3.00000005-2a.50005.50005 0 0 0 0-.8320312l-3.00000005-2a.50005.50005 0 0 0 -.28320313-.0839844z"/></g><path d="m5 9c-.554 0-.9999846.446-1 1v6h1v-6h1.1113281c.0153616-.1362458.0585741-.2678777.1269531-.3867188l.25-.4296874.1054688-.1835938z" fill="#3a3a38"/><path d="m5 10v6h4.4804688l-.1503907-.744141-.90625.306641c-.4507995.152549-.9466552-.0337-1.1855469-.445312l-.25-.431641c-.0006501-.000652-.0013-.0013-.00195-.002l-.4980469-.867188-.25-.429687c-.2389441-.412779-.1530911-.93689.2050751-1.251906l.7207031-.634766-.7207031-.634766c-.245692-.216634-.3697259-.539851-.3320313-.865234z" fill="#fafafa"/><path d="m5.002 6c-.554 0-1.0783767-.4515722-1-1v-5h1v5h10.000214v-5h1v5c0 .554-.446 1-1 1z" fill="#3a3a38"/><path d="m5.0015725 0v5h10.0002135v-5z" fill="#fafafa"/><path d="m10.5 7-.412109 2.056641-1.9843754-.6718754-.25.4316406-.5.8671878-.25.43164 1.5742188 1.384766-1.5742188 1.384766.25.43164.5.867188.25.43164 1.9843754-.671875.412109 2.056641h.5 1 .5l.412109-2.056641 1.984375.671875.25-.43164.5-.867188.25-.43164-1.574218-1.384766 1.574218-1.384766-.25-.43164-.5-.8671878-.25-.4316406-1.984375.6718754-.412109-2.056641h-.5-1zm.875 1h.25l.375 1.5h.654297l.328125.566406 1.486328-.423828.125.214844-1.111328 1.076172.328125.566406-.328125.566406 1.111328 1.076172-.125.214844-1.486328-.423828-.328125.566406h-.654297l-.375 1.5h-.25l-.375-1.5h-.654297l-.328125-.566406-1.486328.423828-.125-.214844 1.1113281-1.076172-.328125-.566406.328125-.566406-1.1113281-1.076172.125-.214844 1.486328.423828.328125-.566406h.654297zm.125 2a1.5 1.5 0 0 0 -1.5 1.5 1.5 1.5 0 0 0 1.5 1.5 1.5 1.5 0 0 0 1.5-1.5 1.5 1.5 0 0 0 -1.5-1.5zm0 1a.5.5 0 0 1 .5.5.5.5 0 0 1 -.5.5.5.5 0 0 1 -.5-.5.5.5 0 0 1 .5-.5z" fill="#1e8bcd"/><path d="m11.375 8h.25l.375 1.5h.654297l.328125.566406 1.486328-.423828.125.214844-1.111328 1.076172.328125.566406-.328125.566406 1.111328 1.076172-.125.214844-1.486328-.423828-.328125.566406h-.654297l-.375 1.5h-.25l-.375-1.5h-.654297l-.328125-.566406-1.486328.423828-.125-.214844 1.1113281-1.076172-.328125-.566406.328125-.566406-1.1113281-1.076172.125-.214844 1.486328.423828.328125-.566406h.654297zm.125 2c-.828427 0-1.5.671573-1.5 1.5s.671573 1.5 1.5 1.5 1.5-.671573 1.5-1.5-.671573-1.5-1.5-1.5z" fill="#fafafa"/></svg>