<svg viewBox="0 0 16 16" xmlns="http://www.w3.org/2000/svg">/&amp;amp;gt;<path d="m3 1v14h3.5c-.8137028 0-1.5-.686297-1.5-1.5s.6862972-1.5 1.5-1.5h.5v-2h-.5c-.8137028 0-1.5-.6862972-1.5-1.5s.6862972-1.5 1.5-1.5h.5v-.5c0-.8137028.6862972-1.5 1.5-1.5s1.5.6862972 1.5 1.5v.5h2v-.5c0-.6388123.424453-1.194913 1-1.40625v-1.3886719l-2.695312-2.7050781z" fill="#fafafa"/><path d="m3 0c-.554 0-1 .446-1 1v14c0 .554.446 1 1 1h2 1.0292969 1.0644531c-.0578587-.15757-.09375-.325109-.09375-.5v-.5h-.5-.2988281-1.2011719-2v-14h6v3.5c0 .277.223.5.5.5h3.5v.09375c.15757-.0578587.325109-.09375.5-.09375s.34243.0358913.5.09375v-.59375-.8632812l-3.636719-3.6367188h-.863281zm7 1 3 3h-3z" fill="#3a3a38"/><path d="m8.5 6c-.277 0-.5.223-.5.5v1.5h-1.5c-.277 0-.5.223-.5.5s.223.5.5.5h1.5v4h-1.5c-.277 0-.5.223-.5.5s.223.5.5.5h1.5v1.5c0 .277.223.5.5.5s.5-.223.5-.5v-1.5h4v1.5c0 .277.223.5.5.5s.503797-.223026.5-.5v-1.5h1.5c.277 0 .5-.223.5-.5s-.223-.5-.5-.5h-1.5v-4h1.5c.277 0 .5-.223.5-.5s-.223016-.5029731-.5-.5h-1.5v-1.5c0-.277-.223-.5-.5-.5s-.5.223-.5.5v1.5h-4v-1.5c0-.277-.223-.5-.5-.5zm.5 3h4v4h-4z" fill="#1e8bcd"/></svg>