<svg viewBox="0 0 16 16" xmlns="http://www.w3.org/2000/svg">
/&amp;amp;gt;<path d="m2 0c-.554 0-1 .446-1 1v11c0 .554.446 1 1 1h2.890625l-.3574219-.355469c-.2032743-.172063-.3562649-.393831-.4472656-.644531h-2.0859375v-11h12v9.011719h1v-9.011719c0-.554-.446-1-1-1zm7.1210938 12.998047.0019531.001953h4.8769531c.002948 0 .004879-.001927.007812-.001953z" fill="#3a3a38"/><path d="m2 1h12v3h-12z" fill="#797774"/><path d="m2 4v8h2.0859375c-.0587073-.161734-.1003817-.329713-.0996094-.501953.0019519-.435252.2171854-.85282.5488281-1.132813l2.9042969-2.9042965c.2669207-.2764321.6432664-.4429995 1.0273438-.4550781a.99472593.99472593 0 0 1 .0058593 0c.5961685-.0150834 1.1844265.3645075 1.4160157.9140625.2315891.5495549.0912138 1.2342345-.3359375 1.6503906l-.4414063.4414065h4.8886719v-6.011719z" fill="#fafafa"/><path d="m2 4h12v1h-12z" fill="#3a3a38"/><path d="m8.4980469 8a.49967901.49967901 0 0 0 -.34375.1523438l-2.9160157 2.9160152a.49967901.49967901 0 0 0 -.00391.871094l2.9199219 2.910156a.49994836.49994836 0 0 0 .7050819-.708984l-2.1445312-2.136719h8.7851562a.49967901.49967901 0 1 0 0-.998047h-8.7890625l2.1484375-2.1484371a.49967901.49967901 0 0 0 -.3613281-.8574219z" fill="#1e8bcd" fill-rule="evenodd"/></svg>