<svg viewBox="0 0 16 16" xmlns="http://www.w3.org/2000/svg">
/&amp;gt;<path d="m12.916016 1c.178257.5103106.070475 1.1616272-.369141 1.5820312l-.419922.4199219h2.873047v-2.0019531zm-.789063 5 .427735.4277344c.167689.1638351.268108.3639667.333984.5722656h2.111328v-1z" fill="#fafafa"/><path d="m12.900391 9c-.074488.2134792-.181503.4175358-.353516.5820312l-.419922.4199218h2.873047v-1.001953zm-.773438 4.001953.427735.427735c.431046.421137.531817 1.063996.355468 1.570312h2.089844v-1.998047z" fill="#fafafa"/><g fill="#3a3a38"><path d="m12.916016 8c.108548.3106369.100261.6678747-.01563 1h2.099614v1.001953h.480469c.174161-.0024743.350505.035165.519531.09375v-1.095703c0-.554-.446-1-1-1zm3.083984 4.908203c-.169029.05898-.34537.09619-.519531.09375h-.480469v1.998047h-2.089844c-.0094.02708-.01042.05776-.02148.08398-.217962.516461-.786771.93343-1.421879.91602h3.533203c.554 0 1-.446 1-1zm-4.533203 3.091797c-.389681-.01082-.759265-.172971-1.03125-.451172l-1.435547-1.433594v.884766c0 .554.446 1 1 1z"/><path d="m10 0c-.554 0-1 .446-1 1v.8886719l1.427734-1.42578128c.281404-.29381489.670542-.46135681 1.078125-.46289062zm1.505859 0c.631851-.00244925 1.188397.4217088 1.396485.93945312.0076.0189049.0069.0412073.01367.0605469l2.083986-.00000002v2.0019531h.480469c.173961-.0024714.350901.0351236.519531.09375v-2.0957031c0-.554-.446-1-1-1zm4.494141 5.90625c-.168633.0586248-.34557.0962077-.519531.09375h-.480469v1h-2.111328c.09788.3095069.103786.6419145.01367.9394531v.00195c.0073.018318.0071.039869.01367.058594l2.083988.0000029c.554 0 1-.446 1-1z"/><path d="m.48828125 0c-.2705497 0-.48828125.21773155-.48828125.48828125v15.02343775c0 .27055.21773155.488281.48828125.488281h7.02343755c.27055 0 .4882812-.217731.4882812-.488281v-2.394531l-.4648438-.464844.03125.023437-.015625-.013672c-.7308662-.597805-.7132305-1.773928.0351563-2.349609l-.0976563.085938.5117188-.5117192v-3.7695313l-.515625-.515625.0664062.0585937c-.7284407-.595822-.7106881-1.773931.0351563-2.3476562l-.0976563.0859375.5117188-.5117187v-2.39843755c0-.2705497-.2177313-.48828125-.4882812-.48828125zm.51171875 1h6v14h-6z"/></g><path d="m1 .9999999v14.0000001h6v-14.0000001z" fill="#fafafa"/><rect fill="#83beec" height="1" ry=".428091" width="4" x="2" y="9"/><rect fill="#797774" height="1" ry=".464045" width="4" x="2" y="12"/><rect fill="#83beec" height="1" ry=".428091" width="4" x="2" y="3.000001"/><rect fill="#797774" height="1" ry=".464045" width="4" x="2" y="6.000001"/><g fill="#1e8bcd"><path d="m11.508855.9995551c.451461-.00175.673608.5482632.347429.8601877l-2.1448045 2.1424172h5.7817315c.675719-.0096.675719 1.008226 0 .998676h-5.7817315l2.1448055 2.1426695c.325056.317583.09138.868743-.363045.856287-.129675-.0036-.252865-.05746-.343525-.150192l-2.9587232-2.9560445-.00779-.0059c-.2490067-.203673-.2432814-.586013.0117075-.782158l2.9548057-2.9518502c.09382-.097958.223457-.1535821.35914-.1540927z"/><path d="m11.508855 7.9999062c.451461-.00175.673608.5482632.347429.8601877l-2.1448045 2.1424171h5.7817315c.675719-.0096.675719 1.008226 0 .998676h-5.7817315l2.1448055 2.14267c.325056.317583.09138.868743-.363045.856287-.129675-.0036-.252865-.05746-.343525-.150192l-2.9587232-2.956045-.00779-.0059c-.2490067-.203673-.2432814-.586013.0117075-.782158l2.9548057-2.9518501c.09382-.097958.223457-.1535821.35914-.1540927z"/></g></svg>