<svg viewBox="0 0 16 16" xmlns="http://www.w3.org/2000/svg">
/&amp;amp;amp;gt;<path d="m1 0c-.554 0-1 .446-1 1v14c0 .554.446 1 1 1h5.0039062a.99765489.99765489 0 0 1 .0273438-.238281l.1875-.761719h-5.21875v-14h10v7.4101562l.15625-.15625a.99765489.99765489 0 0 1 .341797-.2226562.99765489.99765489 0 0 1 .214844-.3203125l.287109-.2871094v-6.4238281c0-.554-.446-1-1-1zm11 14.498047-1.4375 1.447265a.99765489.99765489 0 0 1 -.060547.054688h.498047c.554 0 1-.446 1-1z" fill="#3a3a38"/><path d="m1 1v14h5.21875l.5273438-2.136719a.99765489.99765489 0 0 1 .2636718-.466797l3.9902344-3.9863278v-7.4101562z" fill="#fafafa"/><path d="m3 2c-.554 0-1 .446-1 1v12c0 .554.446 1 1 1h3.0039062a.99765489.99765489 0 0 1 .0273438-.238281l.1875-.761719h-3.21875v-12h10v3.4316406c.27895-.2640134.641899-.407851 1-.4238281v-3.0078125c0-.554-.446-1-1-1zm11 10.484375-1 1.007813v1.507812h-1.498047l-.939453.945312a.99765489.99765489 0 0 1 -.060547.054688h2.498047c.554 0 1-.446 1-1z" fill="#3a3a38"/><path d="m3 3v12h3.21875l.5273438-2.136719a.99765489.99765489 0 0 1 .2636718-.466797l4.1464844-4.1425778a.99765489.99765489 0 0 1 .341797-.2226562.99765489.99765489 0 0 1 .214844-.3203125l1.255859-1.2539063c.009642-.0096304.021388-.0160568.03125-.0253906v-3.4316406zm10 10.492188-1.498047 1.507812h1.498047z" fill="#fafafa"/><circle cx="11.5" cy="16.5" fill="#fafafa" r="0"/><circle cx="11.5" cy="16.5" fill="#500" r="0"/><g fill="#fb983b"><path d="m13.804688 7.0683594c.171006-.1739438-.174941.1601863-1.386719 1.3476562l.01563.015625c.619714-.6142617 1.234361-1.2242057 1.371089-1.3632812zm-1.371094 1.3632812c-1.705556 1.6905364-4.4180608 4.3694234-4.7187502 4.6699214l-.7148438 2.898438 2.8554688-.757812 4.6835932-4.703126zm-.002 1.0078125 1.099609 1.0996089-4.0449219 4.0625-1.5039062.400391.3789062-1.535156c.3659391-.364052 2.4317849-2.404918 4.0703599-4.0273439z" fill="#0063b1"/><path d="m14.066406 7c-.142171 0-.283638.053302-.392578.1621094l-1.255859 1.2539062 2.134765 2.1367184 1.283204-1.2304684c.21788-.2175952.21788-.5675602 0-.7851562l-1.376954-1.375c-.108941-.108798-.250406-.1621094-.392578-.1621094zm0 .9941406.933594.9316406-.433594.4160157-.923828-.9257813z" fill="#0063b1"/><g fill="#83beec"><path d="m14.066406 7.9941406-.423828.421875.923828.9257813.433594-.4160157z"/><path d="m12.431641 9.4394531c-1.638575 1.6224259-3.7044208 3.6632919-4.0703129 4.0273439l-.3789062 1.535156 1.5039062-.400391 4.0449219-4.0625z"/></g></g></svg>