<svg viewBox="0 0 16 16" xmlns="http://www.w3.org/2000/svg">/&amp;gt;<g fill="#3a3a38"><path d="m11.992188 1c-.560803 0-1.085856.1428002-1.572266.4277344-.4864092.2779846-.9090154.704432-1.2695314 1.28125-.354792.5768181-.6338357 1.3068519-.8398437 2.1894531-.206008.8756517-.3105469 1.9101357-.3105469 3.1054687 0 1.195334.1045389 2.2345868.3105469 3.1171878.206008.875652.4850517 1.602869.8398437 2.179687.360516.569869.7831222.998269 1.2695314 1.283203.48641.277984 1.011464.416016 1.572266.416016.560801 0 1.083902-.138032 1.570312-.416016.492131-.284934.918783-.713334 1.279297-1.283203.360515-.576818.641647-1.304035.847656-2.179687.206008-.882601.310547-1.9218538.310547-3.1171878 0-1.1953331-.104539-2.229817-.310547-3.1054687-.206009-.8826012-.487141-1.612635-.847656-2.1894531-.360514-.576818-.787166-1.0032654-1.279297-1.28125-.48641-.2849342-1.009511-.4277344-1.570312-.4277344zm0 1c.420419 0 .832275.1233347 1.201171.3515625.395123.2444537.707493.6254956.962891 1.1054687.267364.4914895.464023 1.1016609.607422 1.8417969.145667.7444729.214845 1.6416541.214844 2.7050781 0 1.0634251-.06936 1.9678529-.214844 2.7187498-.143501.733405-.340756 1.339878-.607422 1.830078-.255119.479468-.566529.862201-.962891 1.107422-.0026.0013-.0052.0026-.0078.0039-.369288.220006-.777461.335944-1.193371.335944-.415909 0-.824081-.115932-1.19336-.335938-.0039-.0019-.0078-.0039-.01172-.0059-.388869-.245213-.700201-.624679-.9609371-1.103515-.0006571-.0013-.00131-.0026-.00195-.0039-.2596367-.488699-.4541922-1.094863-.5976584-1.828091-.1456419-.7517131-.2128906-1.6559122-.2128906-2.7187498 0-1.0628394.067078-1.9597912.2128906-2.7050781.143366-.7399687.3373468-1.349839.5976563-1.8398437.000645-.00131.0013-.00261.00195-.00391.2610211-.4793601.5733151-.8571357.9609371-1.1015625.0013-.0006571.0026-.00131.0039-.00195.3689061-.2282278.7807601-.3515619 1.2011821-.3515619z"/><path d="m3 0v1.7675781c-.2581916.0473224-.4985049.1185324-.7207031.2128907-.4426912.1844545-.8122704.431211-1.1152344.7402343-.2979778.304059-.5251831.6545215-.6835937 1.0566407-.1587481.3968702-.2382813.8043612-.2382813 1.2246093 0 .5472986.0781778.9944133.2246094 1.3417969.1587528.3602468.3626076.6576411.6074219.8964844.2551806.2426295.5425673.4395955.8652343.5917968.3364426.1522744.6774816.2899695 1.0253907.4101563.011901.00411.02327.00762.035156.011719v4.9570315c-.3023629-.028238-.5868474-.076927-.8339842-.175782a.20146155.20146155 0 0 1 -.00586-.002c-.3260542-.13969-.6062745-.290852-.8457025-.455031a.20146155.20146155 0 0 1 -.00391-.002c-.2286843-.163301-.4233256-.311386-.5839806-.445266a.20146155.20146155 0 0 1 -.0078125-.005859c-.1282177-.117068-.2207298-.150391-.2695312-.150391-.0589136 0-.0979943.01176-.1347657.03516a.20146155.20146155 0 0 1 -.003906.002c-.0350822.02105-.0691784.05374-.0996094.101562l-.42382812.6875c.42005562.439283.91145832.80302 1.49414042 1.074169.5298014.238429 1.1027385.371576 1.71875.410156v1.714844h1v-1.751953c.3602694-.04543.7010073-.114816 1.0019531-.238281.480167-.196992.8776458-.466866 1.1992188-.806641a.20146155.20146155 0 0 1 .00195-.002c.329608-.341815.578314-.739346.75-1.199219.172241-.467512.2597656-.967666.2597656-1.507812 0-.5014947-.08203-.9140615-.234375-1.2421879a.20146155.20146155 0 0 1 0-.00195c-.1511479-.3385356-.3521604-.6200126-.6015594-.8456592a.20146155.20146155 0 0 1 -.00391-.00195c-.2488452-.2367131-.5334081-.4311527-.8574181-.5839875a.20146155.20146155 0 0 1 -.00195 0c-.3356828-.1646732-.6788234-.3107641-1.0273469-.4375-.1653445-.0601253-.3240795-.1167986-.4863281-.1757813v-4.4355469c.3228792.013396.6173782.058001.8691406.15625.28089.1006272.5252182.2164145.7285156.3496094.191997.1155218.3541714.2238597.4902344.3320313.118189.084421.2023958.109375.2304688.109375.095379 0 .144543-.027496.21875-.1660157l.3613281-.6796874c-.371779-.3625946-.7952497-.6516531-1.2929687-.8496094-.4842769-.1948241-1.0231742-.2897658-1.6054688-.3085938v-1.7128906zm0 2.8808594v3.9414062c-.1813131-.0810408-.3540475-.1667043-.5136719-.2617187a.20146155.20146155 0 0 1 -.00391-.00391c-.2834468-.1797455-.5227155-.3971389-.7070275-.65234a.20146155.20146155 0 0 1 -.00195-.00195c-.189061-.2722467-.2773468-.6123464-.2773468-.99805 0-.2934807.051161-.5683897.1503906-.8242188v-.0019531c.0996381-.2627024.2467211-.4967211.4414062-.6914062.2022628-.2022629.4526617-.355342.7402344-.4609376.0537426-.0204226.1156061-.0282903.171875-.0449218zm1 5.7148437c.00249.0008455.00532.00111.00781.00195.3561825.1142474.6738475.2591588.9550781.4375.292908.1752606.5314634.4000896.7089844.6699219.194305.2850796.2851562.6411609.2851562 1.0507809 0 .363557-.058071.702005-.1777343 1.011719-.11278.30202-.2833287.567173-.5097657.78711h-.00195v.002c-.2213393.2207071-.4934607.3894551-.8066412.5077681-.1447355.054678-.3001453.093795-.4609375.123047z"/></g></svg>