<svg viewBox="0 0 16 16" xmlns="http://www.w3.org/2000/svg"><path d="m3 1h10v14h-10z" fill="#fafafa"/><path d="m3 0c-.554 0-1 .446-1 1v14c0 .554.446 1 1 1h10c.554 0 1-.446 1-1v-14c0-.554-.446-1-1-1zm0 1h10v14h-10z" fill="#3a3a38"/><g fill="#1e8bcd" transform="scale(-1 1)"><rect height="1" ry=".5" width="3" x="-12" y="4"/><rect height="1" ry=".5" width="4" x="-8" y="4"/><rect height="1" ry=".5" width="3" x="-12" y="7"/><rect height="1" ry=".5" width="4" x="-8" y="7"/></g><g fill="#797774"><rect height="1" ry=".482023" width="8" x="4" y="10"/><rect height="1" ry=".482023" width="8" x="4" y="13"/></g></svg>