<svg viewBox="0 0 16 16" xmlns="http://www.w3.org/2000/svg">
/&amp;amp;gt;<path d="m4 0c-2.209139 0-4 1.790861-4 4s1.790861 4 4 4h1v8h1v-15h2v11.337891c.0454291-.460587.2747848-.90258.7109375-1.150391l-.2148437.162109.5039062-.501953v-9.847656h1 3v-1h-3-2-2zm4 12.660156v3.339844h1v-1.851562l-.5-.5.2226562.167968c-.4424498-.246174-.6763401-.691386-.7226562-1.15625z" fill="#3a3a38"/><path d="m12.472772 16.003915c-.130048-.0041-.253371-.05875-.34375-.152344l-2.9160158-2.916015c-.340562-.189485-.342752-.678567-.0039-.871094l2.9199218-2.9101563c.472656-.4700541 1.177738.23893.705082.708984l-2.144531 2.1367193h4.785157c.700353-.03591.700353 1.033956 0 .998047h-4.789064l2.148438 2.148437c.325519.317139.09298.868926-.361338.857422z" fill="#1e8bcd" fill-rule="evenodd"/></svg>