<svg viewBox="0 0 16 16" xmlns="http://www.w3.org/2000/svg">






/&amp;amp;amp;amp;amp;amp;gt;<path d="m2 2v6.6484375 1.3515625h3.0859375 1.0253906a1.0001 1.0001 0 0 1 .1269531-.3867188l.25-.4296874.4980469-.8671876a1.0001 1.0001 0 0 0 .0019531-.0019531l.25-.4316406a1.0001 1.0001 0 0 1 1.1855469-.4453125l.90625.3066406.1894531-.9414062a1.0001 1.0001 0 0 1 .9804688-.8027344h.5 1 .5a1.0001 1.0001 0 0 1 .5.1367188v-2.7851563-1.3515625h-3.0859375z" fill="#fafafa"/><path d="m1 1v10h5.5957031l-.1523437-.134766a1.0001 1.0001 0 0 1 -.3320313-.865234h-4.1113281v-8h11v4.1367188a1.0001 1.0001 0 0 1 .480469.6660156l.189453.9414062.330078-.1113281v-6.6328125z" fill="#3a3a38"/><path d="m0 0h15v1h-15z" fill="#1e8bcd"/><path d="m7 11.355469v.289062l.1640625-.144531zm0 3.349609v.294922h.1699219z" fill="#3a3a38"/><path d="m2 15v1h7.4804688l-.1503907-.744141-.90625.306641a1.0001 1.0001 0 0 1 -1.1855469-.445312l-.0683593-.117188z" fill="#3a3a38"/><circle cx="11" cy="11" fill="#fafafa" r="0"/><path d="m3 3v1.9101562.0898438h1 2.5351562 5.4648438v-1.9101562-.0898438h-1-2.5351562z" fill="#797774"/><path d="m10.5 7-.412109 2.056641-1.9843754-.6718754-.25.4316406-.5.8671878-.25.43164 1.5742188 1.384766-1.5742188 1.384766.25.43164.5.867188.25.43164 1.9843754-.671875.412109 2.056641h.5 1 .5l.412109-2.056641 1.984375.671875.25-.43164.5-.867188.25-.43164-1.574218-1.384766 1.574218-1.384766-.25-.43164-.5-.8671878-.25-.4316406-1.984375.6718754-.412109-2.056641h-.5-1zm.875 1h.25l.375 1.5h.654297l.328125.566406 1.486328-.423828.125.214844-1.111328 1.076172.328125.566406-.328125.566406 1.111328 1.076172-.125.214844-1.486328-.423828-.328125.566406h-.654297l-.375 1.5h-.25l-.375-1.5h-.654297l-.328125-.566406-1.486328.423828-.125-.214844 1.1113281-1.076172-.328125-.566406.328125-.566406-1.1113281-1.076172.125-.214844 1.486328.423828.328125-.566406h.654297zm.125 2a1.5 1.5 0 0 0 -1.5 1.5 1.5 1.5 0 0 0 1.5 1.5 1.5 1.5 0 0 0 1.5-1.5 1.5 1.5 0 0 0 -1.5-1.5zm0 1a.5.5 0 0 1 .5.5.5.5 0 0 1 -.5.5.5.5 0 0 1 -.5-.5.5.5 0 0 1 .5-.5z" fill="#1e8bcd"/><path d="m11.375 8h.25l.375 1.5h.654297l.328125.566406 1.486328-.423828.125.214844-1.111328 1.076172.328125.566406-.328125.566406 1.111328 1.076172-.125.214844-1.486328-.423828-.328125.566406h-.654297l-.375 1.5h-.25l-.375-1.5h-.654297l-.328125-.566406-1.486328.423828-.125-.214844 1.1113281-1.076172-.328125-.566406.328125-.566406-1.1113281-1.076172.125-.214844 1.486328.423828.328125-.566406h.654297zm.125 2c-.828427 0-1.5.671573-1.5 1.5s.671573 1.5 1.5 1.5 1.5-.671573 1.5-1.5-.671573-1.5-1.5-1.5z" fill="#fafafa"/></svg>