<svg viewBox="0 0 16 16" xmlns="http://www.w3.org/2000/svg"><path d="m12 6a3 3 0 0 0 -3 3v1c-.554 0-1 .446-1 1v4c0 .554.446 1 1 1h6c.554 0 1-.446 1-1v-4c0-.554-.461794-.86866-1-1v-1a3 3 0 0 0 -3-3zm0 1a2 2 0 0 1 2 2v1h-4v-1a2 2 0 0 1 2-2z" fill="#ed8733"/><path d="m9 11h6v4h-6z" fill="#f8db8f"/><path d="m5.5371094 1c-.2826966 0-.5135219.2542462-.5371094.5722656v7.8554688c.0238019.3914471.3658925.6671776.6953125.5410156l2.3046875-.8789062v-.0898438c0-1.0471976.4313945-2.0876445 1.171875-2.828125s1.780927-1.171875 2.828125-1.171875 2.087645.4313945 2.828125 1.171875c.040611.0406115.070643.0904449.109375.1328125.154046-.273761.089658-.6753083-.21875-.828125l-8.9824219-4.4277344c-.0628333-.0310838-.1305876-.0480181-.1992187-.0488281z" fill="#0063b1"/><path d="m2.9771752 1c-.554 0-1 .446-1 1v13c0 .554.446 1 1 1s1-.446 1-1v-13c0-.554-.446-1-1-1z" fill="#3a3a38"/><path d="m6 2.265625v6.5410156l2.1328125-.8144531a4 4 0 0 1 3.4628905-2.9667969z" fill="#83beec"/></svg>