<svg viewBox="0 0 16 16" xmlns="http://www.w3.org/2000/svg">

/&amp;amp;amp;gt;<path d="m.50195312-.01953125c-.27734535-.00030031-.50225343.22460778-.50195312.50195313v2.83007812c-.00003865.1412881.05953385.2760353.1640625.3710938l5.8339844 5.4667968v6.3496094c-.0002198.202375.1203663.375683.2929687.455078-.3881773-.390988-.3873042-1.022197.00195-1.412109l.7070344-.707031v-4.6718755l-.7070312-.7070313c-.1813864-.1812832-.2862571-.4252823-.2929688-.6816406l-4.9980469-4.6855468v-2.1054688h13.9960939v2.0761719l-5.0332032 4.7402343.7128902.7128907 5.158204-4.8613281c.104027-.0946005.163552-.2285331.164062-.3691407v-2.80078122c.0003-.27734532-.224608-.50225337-.501953-.50195313z" fill="#3a3a38" fill-rule="evenodd"/><path d="m1.0019531.984375v2.1054688l4.9980469 4.6855468a1.0007407 1.0007407 0 0 1 .2929688-.7324218l.75-.75a1.0007407 1.0007407 0 0 1 .6914062-.2929688 1.0007407 1.0007407 0 0 1 .7226562.2929688l1.5078126 1.5078124 5.0332032-4.7402343v-2.0761719zm5.9980469 8.1796875v4.6718755l2-2v-.671876z" fill="#fafafa" fill-rule="evenodd"/><path d="m15.25 7.0000002-3.75 3.7499998-3.75-3.7499998-.75.75 3.75 3.7499998-3.75 3.75.75.75 3.75-3.75 3.75 3.75.75-.75-3.75-3.75 3.75-3.7499998z" fill="#ed3d3b"/></svg>