<svg viewBox="0 0 16 16" xmlns="http://www.w3.org/2000/svg"><path d="m3 1v14h3.0332031c.044313-.172771.1339958-.330559.2597657-.457031l3.0429687-3.042969-3.0429687-3.0429688c-.3900151-.3906761-.3900151-1.0233863 0-1.4140624l.75-.75c.1837045-.1836993.4316466-.2887595.6914062-.2929688.2705891-.0040708.5312915.1016194.7226562.2929688l3.0429688 3.0429687 1.5-1.5v-4.1308594l-2.695312-2.7050781z" fill="#fafafa"/><path d="m3 0c-.554 0-1 .446-1 1v14c0 .554.446 1 1 1h2 1.0292969.3066406l-.042969-.04297c-.2496703-.250664-.3484338-.61453-.2597654-.95703h-1.0332031-2v-14h6v3.5c0 .277.223.5.5.5h3.5v2.8359375l1-1v-2.3359375-.8632812l-3.636719-3.6367188h-.863281zm7 1 3 3h-3z" fill="#3a3a38"/><path d="m4.5 6c-.277 0-.5.223-.5.5s.223.5.5.5h1.8359375l.7070313-.7070312a1.0007407 1.0007407 0 0 1 .6914062-.2929688zm3.234375 0a1.0007407 1.0007407 0 0 1 .7226562.2929688l.4628907.4628906c.0462959-.0758569.0800781-.1601259.0800781-.2558594 0-.277-.223-.5-.5-.5zm3.765625 0c-.277 0-.5.223-.5.5s.223.5.5.5.5-.223.5-.5-.223-.5-.5-.5zm-7 3c-.277 0-.5.223-.5.5s.223.5.5.5h3.3359375l-1-1zm7 0c-.095733 0-.180002.0337822-.255859.0800781l.255859.2558594.255859-.2558594c-.075857-.0462959-.160126-.0800781-.255859-.0800781zm-7 3c-.277 0-.5.223-.5.5s.223.5.5.5h3.3359375l.9199219-.919922c-.0758569-.046296-.1601259-.080078-.2558594-.080078z" fill="#1e8bcd"/><path d="m15.25 7.0000002-3.75 3.7499998-3.75-3.7499998-.75.75 3.75 3.7499998-3.75 3.75.75.75 3.75-3.75 3.75 3.75.75-.75-3.75-3.75 3.75-3.7499998z" fill="#ed3d3b"/></svg>