<svg height="16" viewBox="0 0 4.2333332 4.2333335" width="16" xmlns="http://www.w3.org/2000/svg"><g transform="translate(0 -292.76665)"><circle cx="1.984375" cy="295.01559" fill="#fafafa" r="1.719792"/><path d="m6 0v1.1523438a7.4999997 7.4999997 0 0 0 -6 7.3476562 7.4999997 7.4999997 0 0 0 7.5 7.5 7.4999997 7.4999997 0 0 0 7.5-7.5 7.4999997 7.4999997 0 0 0 -1.863281-4.9296875l.726562-.7265625 1.414063 1.4140625.707031-.7070313-3.535156-3.5351562-.707031.70703125 1.414062 1.41406255-.730469.7304687a7.4999997 7.4999997 0 0 0 -3.425781-1.7070313v-1.1601562zm1.5 2a6.4999996 6.4999996 0 0 1 6.5 6.5 6.4999996 6.4999996 0 0 1 -6.5 6.5 6.4999996 6.4999996 0 0 1 -6.5-6.5 6.4999996 6.4999996 0 0 1 6.5-6.5zm-.5 2v3.0878906a1.5 1.5 0 0 0 -1 1.4121094 1.5 1.5 0 0 0 1 1.4121094v2.0878906h1v-2.0878906a1.5 1.5 0 0 0 1-1.4121094 1.5 1.5 0 0 0 -1-1.4121094v-3.0878906zm.5 4a.49999995.49999995 0 0 1 .5.5.49999995.49999995 0 0 1 -.5.5.49999995.49999995 0 0 1 -.5-.5.49999995.49999995 0 0 1 .5-.5z" fill="#3a3a38" transform="matrix(.26458333 0 0 .26458333 0 292.76665)"/></g></svg>