<svg viewBox="0 0 16 16" xmlns="http://www.w3.org/2000/svg">


/&amp;amp;amp;gt;<path d="m2 0c-.554 0-1 .446-1 1v14c0 .554.446 1 1 1h4.1679688c-.1461386-.305285-.1980258-.648153-.1230469-1h-4.0449219v-14h10v6.0195312l1-.3339843v-5.6855469c0-.554-.446-1-1-1z" fill="#3a3a38"/><path d="m2 1v14h4.0449219c.0115758-.054321.0094005-.107776.0273437-.162109.00065-.0013.0013003-.002607.0019532-.003907l1.2480468-3.74414c.2019027-1.9803748 1.7872061-3.5656748 3.7675784-3.7675784l.910156-.3027344v-6.0195312z" fill="#fafafa"/><g fill="#797774" transform="translate(-1)"><path d="m4 3h4v4h-4z"/><path d="m8 3v1h3v-1zm0 3v1h3v-1zm-5 3v1h4.5839844c.1402101-.3594105.3224857-.695047.5507812-1zm0 3v1h3.6855469l.3339843-1z" transform="translate(1)"/></g><path d="m15.351562 7c-.06696.0008118-.13378.011882-.197265.033203l-3.804688 1.2675782c-1.6178247.081594-2.9672354 1.4310013-3.0488278 3.0488278l-1.2675781 3.804688c-.165621.501513.3109864.978121.8125.8125l3.8046879-1.267578c1.617824-.08159 2.967235-1.431 3.048828-3.048828l1.267578-3.8046879c.13886-.4182031-.174594-.8491744-.615235-.8457031zm-3.851562 3a1.5 1.5 0 0 1 1.5 1.5 1.5 1.5 0 0 1 -1.5 1.5 1.5 1.5 0 0 1 -1.5-1.5 1.5 1.5 0 0 1 1.5-1.5z" fill="#1e8bcd"/></svg>