<svg viewBox="0 0 16 16" xmlns="http://www.w3.org/2000/svg"><path d="m.46679688 15c-.25822052 0-.46679688.208576-.46679688.466797v.06641c0 .258217.20857636.466793.46679688.466793h6.82031252l-.8300782-.830078c-.0522944-.052265-.0935885-.111916-.1367187-.169922z" fill="#3a3a38"/><path d="m11.134151 14.042357 4.865849-4.9793909-3.5-3.5629661-4.9369202 4.919259z" fill="#d42314" stroke-width=".749398"/><path d="m8.9321417 16c.1420051 0 .283306-.05377.392119-.162527l1.8098903-1.795116-3.579851-3.636275-1.8376898 1.771688c-.2176245.217501-.2176245.567313 0 .784815l2.8219501 2.874888c.108813.108751.2515762.162527.3935814.162527z" fill="#d42314" stroke-width=".749398"/><path d="m7.1347656-.05664063-7.1347656 14.05664063h1.4648438c.1569048 0 .296724-.04332.4179687-.128906.1212446-.09272.2105218-.199068.2675781-.320313l1.7519532-3.550781h2.0976562l2-2h-3.1113281l2.4492187-4.9648438c.0784524-.1711689.165096-.3713841.2578125-.5996093s.189214-.4717619.2890625-.7285157c.03566.2567538.074395.5002905.1171875.7285157.049924.2210931.093246.4167217.1289063.5878906l.9492187 3.8964844 1.4277339-1.4277344-1.4570308-5.54882813z" fill="#3a3a38" transform="matrix(1.0000000263 0 0 1.0000000263 .00000054293 -.00000051268)"/><path d="m12.492188 6.9941406-3.445313 3.4316404 2.083984 2.115235 3.396485-3.4765629z" fill="#ff9198" stroke-width=".749398"/></svg>