<svg viewBox="0 0 16 16" xmlns="http://www.w3.org/2000/svg"><path d="m3 1v6.3554688c1.4942899-.8665253 3.2098094-1.3531223 4.9980469-1.3554688h.0019531c1.7884477.0005154 3.504781.4846352 5 1.3496094v-3.6445313l-2.695312-2.7050781zm.2070312 9.982422c-.0711577.068034-.1378329.14085-.2070312.210937v.806641c0-.360311.1336834-.678351.2070312-1.017578zm-.2070312 1.017578v3h1.0292969c-.636541-.839053-1.0292969-1.872038-1.0292969-3z" fill="#fafafa"/><path d="m3 0c-.554 0-1 .446-1 1v7.0253906c.321176-.2420306.652567-.4684486 1-.6699218v-6.3554688h6v3.5c0 .277.223.5.5.5h3.5v2.3496094c.347076.2007809.679057.4267237 1 .6679687v-3.5175781-.8632812l-3.636719-3.6367188h-.863281zm7 1 3 3h-3zm-7 10.193359c-.3718621.376642-.7153949.781317-1 1.236329v2.570312c0 .554.446 1 1 1h2.0371094c-.3825721-.284619-.7196794-.620199-1.0078125-1h-1.0292969v-3z" fill="#3a3a38"/><rect fill="#3a3a38" height="1" ry=".5" width="4" x="4" y="4"/><circle cx="8" cy="12" fill="#fafafa" r="4"/><path d="m7.999953 7c-3.280109.0043-6.298117 1.792832-7.876953 4.667969.128945.363734.357439.676587.65625.908203 1.321789-2.791309 4.132254-4.572462 7.220703-4.576172-2.209139 0-4 1.790861-4 4s1.790861 4 4 4 4-1.790861 4-4c.008-2.079511-1.578821-3.81826-3.650391-4 2.961312.134551 5.605464 1.895565 6.871094 4.576172.301515-.233711.531909-.55005.660156-.917969-1.582074-2.87259-4.601418-4.657258-7.880859-4.658203zm0 2c1.656854 0 3 1.343146 3 3s-1.343146 3-3 3-3-1.343146-3-3 1.343146-3 3-3z" fill="#3a3a38"/><path d="m7.999953 10c-1.104569 0-2 .895431-2 2s.895431 2 2 2 2-.89543 2-2c.02896-.194894.02896-.392997 0-.587891-.174008.38903-.57545.625034-1 .587891-.552285 0-1-.447715-1-1-.03682-.425027.200049-.826612.589844-1-.195534-.02915-.39431-.02915-.589844 0z" fill="#1e8bcd"/></svg>