<svg viewBox="0 0 16 16" xmlns="http://www.w3.org/2000/svg"><path d="m10 1a5 5 0 0 0 -5 5 5 5 0 0 0 4.3105469 4.945312c.1498937-.40556.3477974-.78652.625-1.1074214.3191101-.3694175.7217741-.6644586 1.1699221-.859375a1.0001 1.0001 0 0 1 .142578-.0507812c.815788-.214841 1.683334-.1513301 2.521484.0996094v-2.0273438a1.0001 1.0001 0 0 1 1-1h.230469a5 5 0 0 0 -5-5z" fill="#fafafa"/><path d="m16 15.912256v-8.9122562h-1.230769v3.6539002c-.964076-.9644554-2.063378-1.0750016-3.265734-.7583571-.317017.1378831-.587414.3363511-.811189.5954041-.223776.259053-.39394.574512-.51049.946379-.121212.367688-.1818182.785515-.1818182 1.253481 0 .497215.067601.948468.2027972 1.353761.135198.405293.328671.754179.58042 1.046658.251748.288301.557109.511838.916084.670613.358974.158774.762238.238161 1.20979.238161s.822843-.07521 1.125874-.225626c.298369-.154597.564103-.367689.797203-.639277l.06993.545265c.01865.154596.118882.231894.3007.231894zm-3.013986-5.352368c.377622 0 .710955.07939 1 .238162.284382.158774.545455.384401.783217.67688v2.958218c-.214453.263231-.449883.449164-.706293.557799-.256411.104456-.538462.156685-.846154.156685-.629371 0-1.111889-.202646-1.447554-.607938-.335664-.405293-.503496-1.009054-.503496-1.811282 0-.743733.149184-1.291086.447553-1.642062.298368-.350974.722611-.526462 1.272727-.526462z" fill="#3a3a38"/><path d="m10 0a6 6 0 0 0 -6 6 6 6 0 0 0 1.4179688 3.875l-5.26562505 5.265625a.50005.50005 0 1 0 .70703125.707031l5.2714844-5.271484a6 6 0 0 0 2.9238281 1.339844c.037688-.269122.093789-.530544.1757813-.78125.0208259-.06621.0561701-.124766.0800781-.189454a5 5 0 0 1 -4.3105469-4.945312 5 5 0 0 1 5-5 5 5 0 0 1 5 5h1a6 6 0 0 0 -6-6z" fill="#3a3a38"/><path d="m9.7890625 2c-.4928667 0-.9432108.0893332-1.3496094.2695312-.4020752.1755778-.778712.4442914-1.1289062.8046876l.2089843.3886718c.034587.064687.078562.1166191.1347657.1582032.056205.041584.1233509.0625.2011719.0625.099438-.0000002.1978544-.035448.2929687-.109375.099439-.073927.2155846-.1563519.3496094-.2441407.1340247-.087789.2910734-.16826.4726562-.2421875.1859058-.073927.4135904-.1113281.6816407-.1113281.4020752 0 .7065402.1343569.9140622.4023437.211848.2633666.31836.6588141.31836 1.1855469v.5195313c-.717684.0184818-1.3235398.0900912-1.8164066.2148437-.4928662.1201321-.8922583.2766452-1.1992188.4707031-.3069609.1940594-.5296207.4165107-.6679687.6660157-.1340253.244885-.2011719.5015447-.2011719.7695312 0 .3049507.0459278.5704722.1367188.796875.0951148.2217824.2228473.4080723.3828124.5605469.1642891.1478556.3526075.2600577.5644532.3339844.2161695.0693073.446926.1035156.6933594.1035156.2377861 0 .4554206-.0221594.6542968-.0683594.1988759-.041584.3856582-.1075235.5585938-.1953125.1729356-.0877888.3365446-.1936069.4921876-.3183593.159965-.1293732.322039-.275784.486328-.4375l.142578.6308593c.02162.1155156.06252.1915556.123047.2285157.05276.032219.134305.044461.226563.048828.178077-.0362541.35762-.0623152.539062-.0742187v-4.25c0-.3834984-.048999-.7326835-.148438-1.046875-.095113-.3141915-.23597-.584144-.421874-.8105469-.185907-.2264025-.416663-.3993991-.69336-.5195312-.276697-.1247525-.592748-.1875-.9472655-.1875zm1.0957035 3.8457031v1.4003907c-.125379.1386145-.253111.2653484-.382813.3808593-.125378.1108915-.259672.206608-.402344.2851563-.1426716.073925-.2931592.1322428-.4531246.1738281-.1599654.041585-.3351612.0625-.5253906.0625-.1426716 0-.2769657-.019681-.4023438-.056641-.1253791-.0415838-.2334276-.1011398-.3242188-.1796871-.0907911-.0831688-.1644991-.1877476-.2207031-.3125-.0518806-.129373-.078125-.2814535-.078125-.4570313 0-.1848182.050952-.3501917.1503907-.4980469.0994374-.1524749.2580222-.2855929.4785156-.3964843.2248157-.1108909.5146224-.1989851.8691406-.2636719.3545182-.0693069.785178-.1155697 1.291016-.1386719z" fill="#1e8bcd"/></svg>