<svg viewBox="0 0 16 16" xmlns="http://www.w3.org/2000/svg">/&gt;<path d="m8 .5-1.3841367 3.1242055c.9578219-.3335618 1.9694067-.3049387 2.8699688-.1016949zm-5.3125 2.1875 1.3125 3.3125c.4534657-.8142649 1.1857351-1.5465343 2-2zm10.625 0-3.3125 1.0952066c.814265.4534657 1.546533 1.1675942 2 1.9818591zm-5.3125 2.8125c-1.3252005-.0237516-2.4925861 1.1748644-2.5 2.5-.0074153 1.3253929 1.0779266 2.48142 2.5 2.5 1.3286699.01736 2.5-1.1746947 2.5-2.5 0-1.3931016-1.0223217-2.4735155-2.5-2.5zm-4.2740996.8785752-3.2259004 1.6214248 3.0733581 1.6383739c-.4983911-1.1920137-.2546356-2.0964353.1525423-3.2597987zm8.6668436.2711865c.333562.9578216.254091 1.9355077.05085 2.8360699l3.056406-1.4858316zm-8.5930883 3.6365203-1.1121557 3.026218 3.0601165-1.078257c-.8142649-.453467-1.4944951-1.133696-1.9479608-1.947961zm8.4854353.0678c-.453467.814265-1.235392 1.511444-2.049657 1.964911l3.077066.993507zm-5.7539734 2.208153 1.4688824 2.937765 1.4519338-2.954714c-.9778149.561438-1.9174282.243399-2.9208162.01695z" fill="#fafafa" stroke="#3a3a38" stroke-linejoin="round"/></svg>