<svg viewBox="0 0 16 16" xmlns="http://www.w3.org/2000/svg"><path d="m3 1v14h10v-4.070312l-.054688-.03125-.61914 1.21289c-.131091.226141-.312962.41871-.53125.5625l-1.8652345 1.232422c-.2907266.192417-.6339492.289997-.9824219.279297-.9501888-.029487-1.6881884-.838194-1.6308594-1.787109l.1347657-2.232422c.0155994-.2613272.0918306-.51543.2226562-.7421879l2.2363281-4.2480469 1.4999998-2.5976562c.056363-.0969676.137422-.1728408.210938-.2558594l-1.316406-1.3222656z" fill="#fafafa"/><path d="m3 0c-.554 0-1 .446-1 1v14c0 .554.446 1 1 1h10c.554 0 1-.446 1-1v-4.072266a.99343846.99343846 0 0 1 -.996094.003907l-.003906-.001953v4.070312h-10v-14h6v3.5c0 .277.223.5.5.5h.511719l.578125-1h-.589844v-3l1.486328 1.4863281c.185558-.2723481.435623-.4954448.742188-.6210937l-1.865235-1.8652344h-.863281z" fill="#3a3a38"/><path d="m7.3587687 11.364407c-2.4317625.532816-2.908689-.424715-3.1755738-1.4944866-.1712497-.7551355-.4135091-1.5878619-.6531895-2.2452729.017403-.012383.00516.03332.022858.032126.017702-.00119.033285-.030875.052243-.037172.026851-.00891.048268.00385.075101-.00505.018915-.00627.033276-.030869.052243-.037172.5773339-.041638 1.035331.1846901 1.4237945.3419514.1208234.059213.2416635.1184131.3624867.1776257.8242943.4161694 1.3628725 1.0055375 1.9397914 1.6201983l.09144.128513" fill="none" stroke="#1e8bcd" stroke-width=".5"/><path d="m11.370613 6.0196211 1.73205 1-2.236638 4.2483279-1.732051-1z" fill="#7b7b7b" stroke="#3a3a38" stroke-linecap="round" stroke-linejoin="round"/><path d="m12.870613 3.4215449 1.73205 1-1.5 2.5980762-1.73205-1z" fill="#7b7b7b" stroke="#3a3a38" stroke-linecap="round"/><path d="m14.773571 5.098933-.5.8660254.360403.1428389-2 3.4641024.866025.5000003 2.5-4.3301281-.866025-.5z" fill="#3a3a38"/><path d="m9.133974 10.267949-.1339746 2.232051 1.8660256-1.232051z" fill="#616165" stroke="#3a3a38" stroke-linecap="round" stroke-linejoin="round"/></svg>