<svg viewBox="0 0 16 16" xmlns="http://www.w3.org/2000/svg">/&amp;amp;gt;<path d="m3 0c-1.6533367 0-3 1.3466633-3 3v10c0 1.653337 1.3466632 3 3 3h10c1.653337 0 3-1.346663 3-3v-10c0-1.6533368-1.346663-3-3-3zm0 1h10c1.116611 0 2 .8833886 2 2v10c0 1.116611-.883389 2-2 2h-10c-1.1166114 0-2-.883389-2-2v-10c0-1.1166115.8833885-2 2-2z" fill="#3a3a38"/><path d="m3 1h10c1.116611 0 2 .8833886 2 2v10c0 1.116611-.883389 2-2 2h-10c-1.1166114 0-2-.883389-2-2v-10c0-1.1166115.8833885-2 2-2z" fill="#fafafa"/></svg>