<svg viewBox="0 0 16 16" xmlns="http://www.w3.org/2000/svg">










     /&amp;amp;amp;amp;amp;amp;amp;gt;
 <path d="m.5 2c-.277 0-.5.223-.5.5v11c0 .277.223.5.5.5h6.09375l-.1054688-.183594-.25-.429687a1.0001 1.0001 0 0 1 -.1269531-.386719h-5.1113281v-10h14v4.390625a1.0001 1.0001 0 0 1 .761719.4921875l.238281.4121094v-5.7949219c0-.277-.223-.5-.5-.5zm15.5 9.355469-.164062.144531.164062.144531zm-9.8847656 1.386719a1.0001 1.0001 0 0 0 -.0078125.068359 1.0001 1.0001 0 0 1 .0078125-.068359z" fill="#3a3a38"/><path d="m2 4h12v2h-12z" fill="#c2c2c4"/><path d="m1 3v10h5.1113281a1.0001 1.0001 0 0 1 .3320313-.865234l.7207031-.634766-.7207031-.634766a1.0001 1.0001 0 0 1 -.2050782-1.2519528l.25-.4296874.4980469-.8671876a1.0001 1.0001 0 0 0 .0019531-.0019531l.25-.4316406a1.0001 1.0001 0 0 1 1.1855469-.4453125l.90625.3066406.1894531-.9414062a1.0001 1.0001 0 0 1 .9804688-.8027344h.5 1 .5a1.0001 1.0001 0 0 1 .980469.8027344l.189453.9414062.90625-.3066406a1.0001 1.0001 0 0 1 .423828-.046875v-4.390625z" fill="#fafafa"/><path d="m3 4v2h10v-2z" fill="#797774"/><g fill="#c8c6c4"><path d="m5 7v1h2.1699219l.0683593-.1171875a1.0001 1.0001 0 0 1 1.1855469-.4453125l.90625.3066406.1503907-.7441406z"/><path d="m5 9v1h1.1113281a1.0001 1.0001 0 0 1 .1269531-.3867188l.25-.4296874.1054688-.1835938z"/><path d="m3 7h1v1h-1z"/><path d="m3 9h1v1h-1z"/><path d="m5 11v1h1.5957031l.5683594-.5-.5683594-.5z"/><path d="m3 11h1v1h-1z"/></g><path d="m10.5 7-.412109 2.056641-1.9843754-.6718754-.25.4316406-.5.8671878-.25.43164 1.5742188 1.384766-1.5742188 1.384766.25.43164.5.867188.25.43164 1.9843754-.671875.412109 2.056641h.5 1 .5l.412109-2.056641 1.984375.671875.25-.43164.5-.867188.25-.43164-1.574218-1.384766 1.574218-1.384766-.25-.43164-.5-.8671878-.25-.4316406-1.984375.6718754-.412109-2.056641h-.5-1zm.875 1h.25l.375 1.5h.654297l.328125.566406 1.486328-.423828.125.214844-1.111328 1.076172.328125.566406-.328125.566406 1.111328 1.076172-.125.214844-1.486328-.423828-.328125.566406h-.654297l-.375 1.5h-.25l-.375-1.5h-.654297l-.328125-.566406-1.486328.423828-.125-.214844 1.1113281-1.076172-.328125-.566406.328125-.566406-1.1113281-1.076172.125-.214844 1.486328.423828.328125-.566406h.654297zm.125 2a1.5 1.5 0 0 0 -1.5 1.5 1.5 1.5 0 0 0 1.5 1.5 1.5 1.5 0 0 0 1.5-1.5 1.5 1.5 0 0 0 -1.5-1.5zm0 1a.5.5 0 0 1 .5.5.5.5 0 0 1 -.5.5.5.5 0 0 1 -.5-.5.5.5 0 0 1 .5-.5z" fill="#1e8bcd"/><path d="m11.375 8h.25l.375 1.5h.654297l.328125.566406 1.486328-.423828.125.214844-1.111328 1.076172.328125.566406-.328125.566406 1.111328 1.076172-.125.214844-1.486328-.423828-.328125.566406h-.654297l-.375 1.5h-.25l-.375-1.5h-.654297l-.328125-.566406-1.486328.423828-.125-.214844 1.1113281-1.076172-.328125-.566406.328125-.566406-1.1113281-1.076172.125-.214844 1.486328.423828.328125-.566406h.654297zm.125 2c-.828427 0-1.5.671573-1.5 1.5s.671573 1.5 1.5 1.5 1.5-.671573 1.5-1.5-.671573-1.5-1.5-1.5z" fill="#fafafa"/></svg>