<svg viewBox="0 0 16 16" xmlns="http://www.w3.org/2000/svg">/&gt;<g fill="#fafafa"><path d="m13.625.5c-1.035563 0-1.875.9644375-1.875 2h-7.5-1.875c-1.0387594 0-1.875.71125-1.875 1.75v9.25c0 1.035563.8394375 2 1.875 2s1.875-.964437 1.875-2h8.4375.9375c1.03876 0 1.875-.71125 1.875-1.75v-9.25c0-1.0355625-.839438-2-1.875-2z" stroke="#3a3a38"/><path d="m13.751953.98046875c-.825421-.01157796-1.715653.89453125-1.488281 2.01953125h-10.263672c-.4876307.1733862-.855402.466003-.9824219 1h-.0175781v8 .308594.691406c-.31968479 2.194741 2.7097362 3.253551 2.7460938 0h10.2539062c.817356-.322077.836264-.662723 1-1v-9c-.003544-1.4459933-.606053-2.01052617-1.248047-2.01953125zm-.751953 2.01953125h1v1 8h-11v1h-1v-1-2-6h11z"/></g></svg>