<svg viewBox="0 0 16 16" xmlns="http://www.w3.org/2000/svg">/&gt;<path d="m9.89209.5-1.6088869 3.725586-1.0839843-3.034668-.9326173 3.1323243-2.1044921-2.5463868 2.3071288 4.1259765-3.8842772-2.6196289 2.9907226 3.5351563-3.7841797-1.4233399 2.2558593 1.7382812-3.4960937 1.105957 4.0332031.5810548-4.0844726 1.8334965 4.519043-.6811527-1.6992188 3.3862297 3.1884766-2.666015-2.3120118 3.793945 3.1689454-2.63916-.8032226 2.949219 1.6113281-3.605958 1.0815431 4.309083.935058-4.404297 2.102051 2.424317-.78125-2.612305 3.198243 1.867675-3.828125-2.7807611 4.61914.8569341-3.09082-2.4121099 2.810059-.6176757-3.347169.1708983 3.398437-2.5878906-3.833007 1.4331055 2.53418-2.8637695-4.025879.7519532 2.314453-2.3999024-3.171387 2.8271484z" fill="#fafafa" stroke="#3a3a38" stroke-linejoin="round"/></svg>