<svg viewBox="0 0 16 16" xmlns="http://www.w3.org/2000/svg"><path d="m3 1v14h3.2011719c.046877-.118056.1158137-.226102.203125-.318359.00151-.00001.083434-.08231.013672-.01172.00212-.002.00179-.0058.00391-.0078.020623-.02046.042128-.04001.064453-.05859 1.818538-1.52061 2.5129604-2.700691 2.8261681-3.767593.3118616-1.0623177.2332053-2.1197771.1679688-3.4121099-.0037887-.0685134-.0005163-.1372348.0097656-.2050781.00156-.02415-.00357-.025383 0-.050781.00183-.013153.015368-.020177.017578-.033203.042292-.17286.1299423-.3313046.2539063-.4589844l.00195-.00195c.2491363-.3844843.6155483-.6825916 1.0937533-.6738316.703751.01209 1.295011.5860433 1.330078 1.2890625.01055.215079.0066.2633722-.0039.0625.0034.063256.000794.1266916-.0078.1894531-.247154 1.7827323.06889 2.6254894.601563 3.1835934.05585.05851.151077.11022.222656.166016l-.000019-7.1855469-2.695312-2.7050781zm9.845703 13.089844c-.252875.01662-.50783.0544-.767578.115234-.560306.131226-1.163203.382191-1.818359.794922h2.740234v-.908203c-.05141.0017-.102808-.0053-.154297-.002z" fill="#fafafa"/><path d="m3 0c-.554 0-1 .446-1 1v14c0 .554.446 1 1 1h3.0292969c-.0276409-.102762-.046762-.209222-.0488281-.324219-.0021911-.121989.1127475-.216802.1484374-.339843a1.0001 1.0001 0 0 1 .0722657-.335938h-3.2011719v-14h6v3.5c0 .277.223.5.5.5h3.5v5.890625c.248709.193869.570418.372351 1 .521484v-6.912109-.8632812l-3.636719-3.6367188h-.863281zm7 1 3 3h-3zm3 13.091797v.908203h-2.740234c-.4043262.254714-.837182.598968-1.2871098 1h4.0273438c.554 0 1-.446 1-1v-.800781c-.131309-.03459-.269199-.06478-.396484-.101563-.202397-.01586-.40245-.01268-.603516-.0059z" fill="#3a3a38"/><path d="m7.3552524 15.644758c3.9201846-3.277907 3.6057646-5.7662152 3.4784016-8.2894016-.561677 4.0514056 1.529192 5.5007666 4.81093 5.7819296-2.474792-.780342-5.097383-.732202-8.2893316 2.507472z" fill="none" stroke="#ed3d3b" stroke-linecap="round" stroke-linejoin="round" stroke-width=".711393"/><path d="m6.5174224 8.0117188c-.1934491-.0049598-.3723258.1023662-.4589844.2753906l-1.9980468 3.9882816c-.2991123.595363.5947128 1.043252.8925781.447265l.6113281-1.220703h1.1757813l.2792969 1.117188c.1614586.645833 1.1302086.403645.96875-.242188l-1-3.986328c-.0539104-.2177374-.2464756-.3727484-.4707032-.3789062zm-.1699218 1.9257812.1425781.566406h-.4257813z" fill="#fb983b" fill-rule="evenodd"/></svg>