<svg viewBox="0 0 16 16" xmlns="http://www.w3.org/2000/svg"><path d="m7.1074219 0-7.1074219 14h1.4589844c.156266 0 .2952648-.041717.4160156-.126953.1207508-.092339.2088011-.199562.265625-.320313l1.7539062-3.552734h2.3300782c.0991954-.348462.2266433-.6842673.3886718-1h-2.2265624l2.921875-5.9199219c.0781329-.1704718.1635204-.3703604.2558593-.5976562.092339-.2272958.1876675-.4689016.2871094-.7246094.035515.2557078.0745695.4973136.1171875.7246094.0497209.2201927.0933913.4154656.1289062.5859375l.8730469 3.5761718c.5095747-.2673572 1.0565029-.4639044 1.6406249-.5605468l-1.5976561-6.0839844z" fill="#3a3a38" transform="matrix(1.0000000182 0 0 1.0000000182 .00000028938 .00000039256)"/><path d="m11.5 6.9999999c-2.2897564.00272-4.212381 1.72442-4.4667969 4.0000001h1.0078125c.2482706-1.7200824 1.721079-2.9974589 3.4589844-3.0000001 1.349002.00308 2.576155.7811616 3.154297 2h-1.154297c-.277 0-.5.2230001-.5.5000001s.223.5.5.5h2c.277 0 .5-.223.5-.5v-2.0000001-1c0-.277-.223-.5-.5-.5s-.5.223-.5.5v1 .1835938c-.851968-1.0616918-2.138739-1.6806629-3.5-1.6835938zm-4 5.0000001c-.277 0-.5.223-.5.5v2 1c0 .277.223.5.5.5s.5-.223.5-.5v-1-.183594c.8519683 1.061692 2.138739 1.680663 3.5 1.683594 2.289756-.0027 4.212381-1.72442 4.466797-4h-1.007813c-.248271 1.720082-1.721079 2.997459-3.458984 3-1.349002-.00308-2.5761554-.781162-3.1542969-2h1.1542969c.277 0 .5-.223.5-.5s-.223-.5-.5-.5z" fill="#1e8bcd"/></svg>