<svg viewBox="0 0 16 16" xmlns="http://www.w3.org/2000/svg">
/&amp;amp;amp;amp;amp;gt;<path d="m0 5v9.5c-.00038442.276301.22369855.500384.5.5h6.59375c-.0578587-.15757-.09375-.325109-.09375-.5v-.498047h-6.00195312v-9.001953zm15.001953 0v1h.488281c.179293-.0019245.349471.033444.509766.0917969v-1.0917969z" fill="#3a3a38"/><path d="m1 5v9h5.5c-.8137028 0-1.5-.686297-1.5-1.5s.6862972-1.5 1.5-1.5h.5v-2h-.5c-.8137028 0-1.5-.6862972-1.5-1.5s.6862972-1.5 1.5-1.5h.5v-.5c0-.1748905.0358913-.3424298.09375-.5zm8.90625 0c.0578587.1575702.09375.3251095.09375.5v.5h2v-.5c0-.1748905.035891-.3424298.09375-.5zm5 0c.057859.1575702.09375.3251095.09375.5v-.5zm-4.90625 4v2h2v-2z" fill="#fafafa"/><path d="m1 2h14v2h-14z" fill="#83beec" stroke-width=".661438"/><path d="m.50195312 1.0019531c-.27630145-.000384-.50038441.223699-.49999999.5v3.4980469h.99804687 6.09375c.211337-.5755473.7674377-1 1.40625-1h-2.5v-2h4v2h-1.5c.6388123 0 1.194913.4244527 1.40625 1h2.1875c.211337-.5755473.767438-1 1.40625-1h-2.5v-2h4.003906v3h.998047v-3.4980469c.000384-.276301-.223699-.500384-.5-.5zm12.99804688 2.9980469c.638812 0 1.194913.4244527 1.40625 1h.09375v-1zm-12.5-2h4v2h-4z" fill="#0063b1"/><path d="m8.5 5c-.277 0-.5.223-.5.5v1.5h-1.5c-.277 0-.5.223-.5.5s.223.5.5.5h1.5v4h-1.5c-.277 0-.5.223-.5.5s.223.5.5.5h1.5v1.5c0 .277.223.5.5.5s.5-.223.5-.5v-1.5h4v1.5c0 .277.223.5.5.5s.503797-.223026.5-.5v-1.5h1.5c.277 0 .5-.223.5-.5s-.223-.5-.5-.5h-1.5v-4h1.5c.277 0 .5-.223.5-.5s-.223016-.5029731-.5-.5h-1.5v-1.5c0-.277-.223-.5-.5-.5s-.5.223-.5.5v1.5h-4v-1.5c0-.277-.223-.5-.5-.5zm.5 3h4v4h-4z" fill="#1e8bcd"/></svg>