<svg viewBox="0 0 16 16" xmlns="http://www.w3.org/2000/svg">/&amp;gt;<path d="m2 1v4.6289062l1.5410156-1.2832031a1.0001 1.0001 0 0 0 .0019532-.0019531c.1804384-.1497366.4171274-.1779535.6425781-.2304688-.2317904-.4989591-.219582-1.112231.1640625-1.5722656l1.2832031-1.5410156zm8.371094 0 1.283203 1.5410156a1.0001 1.0001 0 0 0 .001953.0019532c.224833.2709193.347303.6128737.345703.9648437v.0019531c-.001196.2253195-.154494.3889679-.248047.5820313.249273.046719.505694.0881967.703125.2519531a1.0001 1.0001 0 0 0 .001953.0019531l1.541016 1.2832031v-4.6289062zm-2.3691409.28125-1.4335937 1.7207031h2.8671875zm-2.2070312 3.7207031c.0680487.16974.2070138.3046494.2070312.4960938v4.9980471.001953c.0000073.188639-.0926592.338975-.1601562.5h4.3164061c-.067497-.161025-.1601634-.311362-.1601561-.5v-.001953-4.9980471c.0000174-.1914446.1389811-.3263538.2070311-.4960938zm-1.7929688 1.5625-1.7207031 1.4335938 1.7207031 1.4335937zm7.9960939 0v2.8671875l1.720703-1.4335937zm-9.998047 3.8027349v4.632812h3.6328125l-1.2832031-1.541016c-.3780439-.45332-.3892994-1.053933-.1679688-1.548828-.2242645-.040684-.4498748-.100689-.640625-.259765zm12 0-1.541016 1.283203c-.206462.172177-.449467.24691-.693359.28125.086723.187354.235462.343842.236328.560547.00162.351997-.120879.69393-.345703.964843a1.0001 1.0001 0 0 0 -.001953.001953l-1.283203 1.541016h3.628906zm-7.4316406 2.630859 1.4335937 1.720703 1.4335938-1.720703z" fill="#fafafa"/><path d="m2 0c-.554 0-1 .446-1 1v5.4628906l1-.8339844v-4.6289062h3.6152344l.8320312-1zm7.5371094 0 .8339846 1h3.628906v4.6191406l1 .8320313v-5.4511719c0-.554-.446-1-1-1zm-8.5371094 9.5332031v5.4667969c0 .554.446 1 1 1h4.4394531l-.8339843-1h-3.6054688v-4.632812zm14 .0117188-1 .8320311v4.623047h-3.628906l-.8339846 1h4.4628906c.554 0 1-.446 1-1z" fill="#3a3a38"/><g fill="#1e8bcd" fill-rule="evenodd"><path d="m11.001766 3.503285c.00069-.1176319-.04011-.2317416-.115235-.3222656l-2.4999993-2.9999999c-.199955-.24088995-.569577-.24088995-.769531 0l-2.5 2.9999999c-.271805.325926-.03962.8209335.384765.8203125h5.0000003c.27537-.000025.4989-.2226788.5-.4980469zm0 8.993782c-.0011-.275368-.22463-.498022-.5-.498047h-5.0000003c-.424388-.000621-.65657.494386-.384765.820313l2.5 2.999999c.199954.240891.569576.240891.769531 0l2.4999993-2.999999c.07512-.09052.115925-.204634.115235-.322266z"/><path d="m4.5029331 4.9982571c-.1176319-.00069-.2317416.040113-.3222656.1152343l-3 2.4999998c-.24089.199955-.24089.569577 0 .769531l3 2.4999998c.325926.271805.8209335.03962.8203125-.384765v-4.9999999c-.000025-.27537-.2226788-.4989-.4980469-.5zm6.9939579 0c-.275368.0011-.498022.22463-.498047.5v4.9999999c-.000621.424388.494386.65657.820313.384765l2.999999-2.4999998c.240891-.199954.240891-.569576 0-.769531l-2.999999-2.4999998c-.09052-.0751209-.204634-.1159243-.322266-.1152343z"/></g></svg>