<svg viewBox="0 0 16 16" xmlns="http://www.w3.org/2000/svg">/&amp;gt;<path d="m6 0c-3.3137085 0-6 2.6862915-6 6s2.6862915 6 6 6c1.418684.000324 2.791591-.50206 3.875-1.417969l5.277344 5.267578c.472611.489355 1.197037-.239083.705078-.708984l-5.28125-5.2714844c.03648-.045698.07229-.091927.107422-.1386718-.080135-.0553274-.169036-.1006765-.236328-.1679688-.174447-.174447-.311758-.3960453-.386719-.6523438-.9377512 1.3101508-2.4493767 2.0881398-4.060547 2.0898438-2.7614237 0-5-2.2385763-5-5s2.2385763-5 5-5c1.5700059.0026078 3.0476185.742499 3.9902344 1.9980469l1.1972656-.0019531c-1.071241-1.8522288-3.0478031-2.99381246-5.1875-2.9960938z" fill="#3a3a38"/><path d="m6 1a5 5 0 0 0 -5 5 5 5 0 0 0 5 5 5 5 0 0 0 4.058594-2.09375c-.030807-.1065075-.052536-.2171222-.058594-.3359375-.0207397-.4067468.164536-.8582907.46875-1.1503906l.427734-.4277344a5 5 0 0 0 .103516-.9921875 5 5 0 0 0 0-.0039062l-4.4628906.0039062c-.4201687.0059422-.8676557-.1828049-1.1386719-.484375s-.3828125-.6661774-.3828125-1.015625.1117963-.7140549.3828125-1.015625.7185032-.4903172 1.1386719-.484375l3.453125-.0019531a5 5 0 0 0 -3.9902344-1.9980469z" fill="#fafafa"/><path d="m11.478516-.00976563a.50005.50005 0 0 0 -.316407.85742188l3.146485 3.14648435-7.7851565.0058594a.50005.50005 0 1 0 0 1l7.7851565-.0058594-3.146485 3.1464844a.50005.50005 0 1 0 .707032.7070312l3.953125-3.953125a.50005.50005 0 0 0 .005859-.0039062.50005.50005 0 0 0 -.001953-.7929688l-3.957031-3.9570312a.50005.50005 0 0 0 -.34375-.15039063.50005.50005 0 0 0 -.046875 0z" fill="#1e8bcd" fill-rule="evenodd"/></svg>