<?xml version="1.0" encoding="UTF-8"?>
<svg id="logo" version="1.1" viewBox="0 0 286 60" xml:space="preserve" xmlns="http://www.w3.org/2000/svg" xmlns:xlink="http://www.w3.org/1999/xlink"><defs><path id="a" d="M-5-1h62v62H-5z"/><clipPath id="d-5"><use width="100%" height="100%" overflow="visible" xlink:href="#c"/></clipPath><path id="a-85" d="m-5-1h62v62h-62z"/><path id="c" d="m-5-1h62v62h-62z"/></defs><clipPath id="b"><use width="100%" height="100%" overflow="visible" xlink:href="#a"/></clipPath><g transform="translate(.10025)" fill="#15334a"><path style="fill:var(--ov_logo_text_color);" transform="matrix(.78095 0 0 .78095 14.238 8.152)" d="m75.237 18.5c-6.008 0-10.237 4.52-10.237 10.528 0 5.98 4.229 10.47 10.237 10.47 5.979 0 10.207-4.49 10.207-10.47 0-6.007-4.228-10.528-10.207-10.528zm6.97 10.528c0 4.375-2.741 7.612-6.97 7.612-4.23 0-7-3.237-7-7.612 0-4.403 2.77-7.699 7-7.699 4.229 0 6.97 3.296 6.97 7.7zm21.839-10.236v16.332l-10.906-16.332h-3.88v20.415h3.091v-16.39l10.879 16.39h3.908v-20.415zm10.978 17.615v-17.615h-3.15v20.415h13.649v-2.8zm14.597-17.615v20.415h3.15v-20.415zm22.843 0v16.332l-10.907-16.332h-3.88v20.415h3.092v-16.39l10.879 16.39h3.908v-20.415zm22.031 2.741v-2.741h-14.203v20.415h14.203v-2.742h-11.112v-6.59h10.733v-2.655h-10.733v-5.687zm18.205 6.067 5.599-8.663v-0.145h-13.24v2.712h8.486l-5.425 8.195v0.146h2.625c2.77 0 4.696 1.458 4.696 3.47 0 1.984-1.663 3.442-4.083 3.442-1.692 0-3.908-0.67-6.33-2.07v3.382c2.334 1.05 4.434 1.459 6.242 1.43 4.258-0.03 7.291-2.538 7.291-6.154 0-3.092-2.537-5.25-5.862-5.746zm17.266-8.808h-7.408v20.415h7.408c6.183 0 10.849-4.2 10.849-10.208 0-5.92-4.666-10.207-10.85-10.207zm0.029 17.586h-4.287v-14.758h4.287c4.345 0 7.583 3.062 7.583 7.378 0 4.346-3.15 7.379-7.583 7.379zm34.925-17.586-5.833 17.47-5.862-17.47h-3.587l7.262 20.415h4.316l7.291-20.415zm7.056 0v20.415h3.15v-20.415zm22.26 2.741v-2.741h-14.203v20.415h14.203v-2.742h-11.112v-6.59h10.733v-2.655h-10.733v-5.687zm29.18-2.741-3.996 17.09-5.308-17.09h-3.733l-5.045 17.061-4.229-17.061h-3.733l5.687 20.415h4.404l4.754-17.411 5.045 17.41h4.404l5.454-20.414zm21.231 2.741v-2.741h-14.203v20.415h14.203v-2.742h-11.111v-6.59h10.732v-2.655h-10.732v-5.687zm17.253 17.674h4.024l-6.27-8.341c3.353-0.525 5.6-2.946 5.6-6.037 0-3.413-2.888-6.037-7-6.037h-9.012v20.415h3.15v-8.225h3.995zm-9.508-17.703h5.745c2.391 0 4.025 1.458 4.025 3.354 0 1.954-1.634 3.5-4.025 3.5h-5.745z" fill="#15334a" stroke-width="2.2231" aria-label="ONLINE 3D VIEWER"/></g><g transform="translate(-.7 .077394)"><clipPath id="b-3"><use width="100%" height="100%" overflow="visible" xlink:href="#a-85"/></clipPath><g clip-path="url(#b-3)"><clipPath id="d"><use width="100%" height="100%" overflow="visible" xlink:href="#c"/></clipPath><g style="stroke:var(--ov_logo_border_color);" stroke-linecap="round" stroke-linejoin="round" stroke-miterlimit="10"><path transform="translate(.039092 .02257)" d="m38.361 22.877-12.4-7.3 9.2e-5 -14.177 24.8 14.2v28.8l-12.4-7.3226z" clip-path="url(#d)" fill="#4688b4"/><path transform="rotate(120,26,30.082)" d="m38.4 22.923-12.522-7.0887 0.14178-14.4 24.78 14.166v28.8l-12.522-7.0883z" clip-path="url(#d-5)" fill="#64c0ff"/><path d="m26 30v14.4l12.4-7.3v-14.2z" clip-path="url(#d)" fill="#294e67"/><path d="m13.6 37.1v-14.2l12.4-7.3v-14.177l-24.8 14.177v28.8z" clip-path="url(#d)" fill="#294e67"/><path d="m26 15.6-12.4 7.3 12.4 7.1 12.4-7.1z" clip-path="url(#d)" fill="#64c0ff"/><path d="m13.6 22.9 12.4 7.1v14.4l-12.4-7.3z" clip-path="url(#d)" fill="#4688b4"/></g></g></g></svg>
