<svg viewBox="0 0 16 16" xmlns="http://www.w3.org/2000/svg">



/&amp;amp;amp;amp;gt;<path d="m4 0c-2.209139 0-4 1.790861-4 4s1.790861 4 4 4h1v2.556641c.2916047-.164444.6247789-.303925 1-.414063v-3.142578-6h2v7.0449219c.3341967-.4611655.6760749-.9280026 1-1.3300781v-5.7148438h4v-1zm0 1h1v6h-1c-1.6568542 0-3-1.3431458-3-3s1.3431458-3 3-3z" fill="#3a3a38"/><path d="m15.271484 3c-.177888.00524-.37069.0968934-.521484.1914062-4.136759 2.5854743-4.75 3.8085938-7.25 7.3085938-.1225618.147438-.192493.325021-.2167969.509766.2445374-.007882.4952395-.009517.7285157.001953.1065286.022231.1959295.055251.2910156.083984.0036418-.004767.0081629-.008841.0117187-.013672 2.4591089-3.442752 3.0558299-4.4568751 6.6855469-6.8085935v2.2421875.0019531c-.84072 1.2264503-2.50005 3.4824669-4.707031 5.1523439l-.001953.001953c-.5013467.024528-.7723477.026284-.9882816.005859.1058637.105418.2099037.220546.3125.355469.0811342.184976.1749652.406059.2519531.644531.1516365-.001498.2853345.001353.4726565-.007812.225038-.01109.439748-.0978.609375-.246094 3.574573-3.1153378 2.912893-2.4303742 4.880859-5.3496092.11091-.1651661.17007-.3596438.169922-.5585938v-2.5c-.000147-.563767-.16498-1.0317531-.728516-1.015625z" fill="#3a3a38"/><path d="m15 4.2729381c-3.629717 2.3517184-4.226438 3.3663405-6.6855469 6.8090929-.014286.01941-.02927.03831-.044922.05664h-.00195c.083056.291924.1130843.342522.042969.232422-.070116-.1101-.1231235-.09544.1464843.0293.6319655.292371.6295827.330409 1.8339846.271484.000666-.000668.0013-.0013.002-.002 2.206981-1.669877 3.866261-3.926348 4.706981-5.1527983v-.00195z" fill="#fafafa"/><path d="m7.2304688 11.009766c-.2611936.00974-.5143343.028897-.7304688.046875-2.056692.4941-1.7371332 1.337014-3.28125 3.322265-.5164462.665161-.0608622 1.627607.78125 1.628906 2.7115807-.173351 3.7401211.528889 5.578125-1.234374.07164-.07132.1322065-.152947.1796875-.242188.1631052-.351692.2618925-.682612.2597655-1.011719-.0037-.568259-.23225-1.098535-.4023436-1.486328-.4416095-.580756-.8799889-.870494-1.6035156-1.021484-.2501619-.0123-.5200567-.01169-.78125-.002zm.013672.978515c.2108343.0016.4312475.02151.6660156.05274.6457798.226088 1.0391393.662816 1.0839844 1.507812.0004787.07407-.016144.177417-.048828.296875l-3.09375-1.423828c.4524271-.326142.8961695-.4373 1.3925781-.433594zm-2.0585937 1.226563 3.0214843 1.390625c-.4027608.269951-.7300308.357145-1.1699218.392578-.9042073-.0092-2.4189477-.0088-3.0351563-.0098.6037334-.776211.9275974-1.337725 1.1835938-1.773437z" fill="#0063b1"/><path d="m5.1855469 13.214844c-.2559964.435712-.5798604.997226-1.1835938 1.773437.6162086.000977 2.130949.000587 3.0351563.0098.439891-.03543.7671611-.122627 1.1699218-.392578z" fill="#83beec"/><path d="m7.2441406 11.988281c-.4902613-.00366-.9303436.122539-1.3769531.439453l3.078125 1.417969c.032685-.119484.049307-.222806.048828-.296875-.044845-.844996-.4382045-1.281724-1.0839843-1.507812-.2347681-.031228-.4551813-.051161-.6660156-.052735z" fill="#fafafa"/><path d="m4 1c-.1971186 0-.3896675.0223049-.5761719.0585938-.0063211.0012299-.0132244.0006835-.0195312.0019531a3 3 0 0 0 -.0527344.0136719c-.1793627.0395758-.3538045.0920128-.5195313.1621093-.1683538.0712077-.3275276.158403-.4785156.2578125a3 3 0 0 0 -.0410156.0253906 3 3 0 0 0 -.0058594.0039063c-.1469881.1007036-.283599.2152426-.4101562.3398437a3 3 0 0 0 -.0253906.0234376c-.1189566.1198269-.2247703.252193-.3222657.390625a3 3 0 0 0 -.0527343.0742187c-.0934585.1416779-.1734872.2921282-.2421876.4492187a3 3 0 0 0 -.0234374.0527344c-.065311.157657-.1164434.322324-.1542969.4921875a3 3 0 0 0 -.0195313.0820313c-.0357912.1852764-.0566406.3765361-.0566406.5722656 0 .1971186.0223049.3896675.0585938.5761719a3 3 0 0 0 .0019531.0195312 3 3 0 0 0 .0136719.0527344c.0395758.1793627.0920128.3538045.1621093.5195313.0712077.1683538.158403.3275276.2578125.4785156a3 3 0 0 0 .0253906.0410156 3 3 0 0 0 .0039063.0058594c.1007036.1469881.2152426.283599.3398437.4101562a3 3 0 0 0 .0234376.0253906c.1198269.1189566.252193.2247703.390625.3222657a3 3 0 0 0 .0742187.0527343c.1416779.0934585.2921282.1734872.4492187.2421876a3 3 0 0 0 .0527344.0234374c.157657.065311.322324.1164434.4921875.1542969a3 3 0 0 0 .0820313.0195313c.1852764.0357912.3765361.0566406.5722656.0566406h1v-6z" fill="#c8c6c4"/></svg>