<svg enable-background="new 0 0 13.945 13.945" height="13.945" viewBox="0 0 13.945 13.945" width="13.945" xmlns="http://www.w3.org/2000/svg" xmlns:xlink="http://www.w3.org/1999/xlink"><radialGradient id="a" cx="6.9727" cy="6.9727" gradientUnits="userSpaceOnUse" r="6.9727"><stop offset="0" stop-color="#ffc10e"/><stop offset=".1778" stop-color="#febb0f"/><stop offset=".4104" stop-color="#fcab13"/><stop offset=".6735" stop-color="#f89019"/><stop offset=".9571" stop-color="#f26a21"/><stop offset="1" stop-color="#f16422"/></radialGradient><mask id="b" height="4.42" maskUnits="userSpaceOnUse" width="12.992" x=".489" y=".623"><path d="m .415.516h13.156v4.634h-13.156z" fill="url(#c)"/></mask><linearGradient id="c" gradientUnits="userSpaceOnUse" x1="6.9927" x2="6.9927" y1=".4624" y2="5.0431"><stop offset="0" stop-color="#fff"/><stop offset="1"/></linearGradient><path d="m13.945 12.949c0 .551-.445.996-.995.996h-11.953c-.552 0-.997-.445-.997-.996v-11.952c0-.552.445-.997.997-.997h11.953c.55 0 .995.445.995.997z" fill="url(#a)"/><path d="m13.481 4.239c0 .443-.239.804-.535.804h-11.921c-.296 0-.536-.36-.536-.804v-2.813c0-.442.24-.803.536-.803h11.921c.296 0 .535.36.535.803z" fill="#fff" mask="url(#b)" opacity=".8"/></svg>