<?xml version="1.0" encoding="utf-8"?>
<!-- Generator: Adobe Illustrator 12.0.1, SVG Export Plug-In . SVG Version: 6.00 Build 51448)  -->
<!DOCTYPE svg PUBLIC "-//W3C//DTD SVG 1.1//EN" "http://www.w3.org/Graphics/SVG/1.1/DTD/svg11.dtd" [
	<!ENTITY ns_svg "http://www.w3.org/2000/svg">
	<!ENTITY ns_xlink "http://www.w3.org/1999/xlink">
]>
<svg  version="1.1" id="Layer_1" xmlns="&ns_svg;" xmlns:xlink="&ns_xlink;" width="139.489" height="128.666"
	 viewBox="0 0 139.489 128.666" overflow="visible" enable-background="new 0 0 139.489 128.666" xml:space="preserve">
<g>
	<linearGradient id="XMLID_4_" gradientUnits="userSpaceOnUse" x1="64.2842" y1="118.2715" x2="8.5981" y2="21.4835">
		<stop  offset="0" style="stop-color:#4591D6"/>
		<stop  offset="1" style="stop-color:#5AC0FF"/>
	</linearGradient>
	<polygon fill="url(#XMLID_4_)" points="9.745,23.433 9.745,103.955 67.442,123.66 67.442,43.281 	"/>
	<linearGradient id="XMLID_5_" gradientUnits="userSpaceOnUse" x1="65.5215" y1="38.3955" x2="131.5813" y2="110.1251">
		<stop  offset="0" style="stop-color:#4591D6"/>
		<stop  offset="1" style="stop-color:#5AC0FF"/>
	</linearGradient>
	<polygon fill="url(#XMLID_5_)" points="67.442,43.281 129.392,24.568 129.745,105.16 67.442,123.66 	"/>
	<linearGradient id="XMLID_6_" gradientUnits="userSpaceOnUse" x1="108.9609" y1="13.312" x2="12.1746" y2="39.829">
		<stop  offset="0" style="stop-color:#4591D6"/>
		<stop  offset="1" style="stop-color:#5AC0FF"/>
	</linearGradient>
	<polygon fill="url(#XMLID_6_)" points="9.745,23.433 71.27,5.006 129.392,24.568 67.583,43.281 	"/>
	<polygon opacity="0.3" fill="#FFFFFF" points="69.325,123.104 69.257,45.096 129.402,27.044 129.392,24.568 126.557,23.611 
		67.691,41.275 12.521,22.603 9.745,23.433 9.745,25.994 65.149,44.753 65.221,122.902 67.442,123.66 	"/>
</g>
</svg>
