<?xml version="1.0" encoding="utf-8"?>
<!-- Generator: Adobe Illustrator 12.0.1, SVG Export Plug-In . SVG Version: 6.00 Build 51448)  -->
<!DOCTYPE svg PUBLIC "-//W3C//DTD SVG 1.1//EN" "http://www.w3.org/Graphics/SVG/1.1/DTD/svg11.dtd" [
	<!ENTITY ns_svg "http://www.w3.org/2000/svg">
	<!ENTITY ns_xlink "http://www.w3.org/1999/xlink">
]>
<svg  version="1.1" id="Layer_1" xmlns="&ns_svg;" xmlns:xlink="&ns_xlink;" width="179" height="179" viewBox="0 0 179 179"
	 overflow="visible" enable-background="new 0 0 179 179" xml:space="preserve">
<g>
	<path fill="#000066" d="M148.377,62.717h18.111V26.601c0-1.909-0.658-3.661-1.756-5.055l0,0l-0.01-0.012
		c-0.135-0.169-0.277-0.333-0.424-0.492l-5.678-6.571l-0.342,3.949h-35.973v18.629c0,2.819-2.285,5.105-5.104,5.105h-26.65
		c-2.818,0-5.104-2.286-5.104-5.105V18.42l-5.321-6.206l-0.701,6.206H49.221c-4.517,0-8.18,3.664-8.18,8.181V68.04H21.463
		c-2.004,0-3.631,1.624-3.631,3.629v14.758l-3.721,0.998l4.498,5.438l0.014-0.005c0.666,0.842,1.684,1.394,2.84,1.394h19.578v40.209
		l-3.621-0.003l5.355,6.254c0.148,0.191,0.307,0.374,0.471,0.552l0,0l0,0c1.494,1.6,3.615,2.607,5.975,2.607h41.551v14.536h-2.367
		l-1.48,1.454l4.863,5.81h0.004c0.662,0.684,1.582,1.114,2.611,1.114h18.951c2.005,0,3.631-1.627,3.631-3.63v-19.284h41.324
		c4.518,0,8.18-3.666,8.18-8.183V99.575l-5.32-6.207v6.207h-12.791c-2.818,0-5.105-2.288-5.105-5.105V67.818
		C143.271,65.001,145.559,62.717,148.377,62.717z"/>
	<linearGradient id="XMLID_4_" gradientUnits="userSpaceOnUse" x1="155.0586" y1="141.791" x2="30.0287" y2="-5.8511">
		<stop  offset="0" style="stop-color:#143777"/>
		<stop  offset="0.8539" style="stop-color:#1D68AA"/>
	</linearGradient>
	<path fill="url(#XMLID_4_)" d="M80.127,30.842V12.214H43.9c-4.518,0-8.18,3.663-8.18,8.18v41.438h-19.58
		c-2.004,0-3.629,1.626-3.629,3.631v18.951c0,2.005,1.625,3.63,3.629,3.63h19.58v41.438c0,4.518,3.662,8.182,8.18,8.182h41.551
		v19.286c0,2.003,1.624,3.628,3.629,3.628h18.951c2.006,0,3.63-1.625,3.63-3.628v-19.286h41.325c4.518,0,8.182-3.664,8.182-8.182
		V93.368h-18.11c-2.819,0-5.106-2.288-5.106-5.106V61.612c0-2.817,2.287-5.103,5.106-5.103h18.11V20.394
		c0-4.517-3.664-8.18-8.182-8.18h-36v18.628c0,2.818-2.287,5.104-5.104,5.104h-26.65C82.414,35.946,80.127,33.66,80.127,30.842z"/>
	<defs>
		<filter id="Adobe_OpacityMaskFilter" filterUnits="userSpaceOnUse" x="12.512" y="12.214" width="148.656" height="148.362">
			<feColorMatrix  type="matrix" values="1 0 0 0 0  0 1 0 0 0  0 0 1 0 0  0 0 0 1 0"/>
		</filter>
	</defs>
	<mask maskUnits="userSpaceOnUse" x="12.512" y="12.214" width="148.656" height="148.362" id="XMLID_5_">
		<g filter="url(#Adobe_OpacityMaskFilter)">
			<linearGradient id="XMLID_6_" gradientUnits="userSpaceOnUse" x1="38.9575" y1="-14.8525" x2="101.0321" y2="72.9387">
				<stop  offset="0" style="stop-color:#FFFFFF"/>
				<stop  offset="1" style="stop-color:#000000"/>
			</linearGradient>
			<path fill="url(#XMLID_6_)" d="M7.145,113.822c0,0,119.274-34.143,166.272-112.179L117.551-24.96L83.852-14.764L32.861,1.644
				L22.664,22.482L5.814,51.746l-7.981,33.257L7.145,113.822z"/>
		</g>
	</mask>
	<path opacity="0.8" mask="url(#XMLID_5_)" fill="#FFFFFF" d="M80.127,30.842V12.214H43.9c-4.518,0-8.18,3.663-8.18,8.18v41.438
		h-19.58c-2.004,0-3.629,1.626-3.629,3.631v18.951c0,2.005,1.625,3.63,3.629,3.63h19.58v41.438c0,4.518,3.662,8.182,8.18,8.182
		h41.551v19.286c0,2.003,1.624,3.628,3.629,3.628h18.951c2.006,0,3.63-1.625,3.63-3.628v-19.286h41.325
		c4.518,0,8.182-3.664,8.182-8.182V93.368h-18.11c-2.819,0-5.106-2.288-5.106-5.106V61.612c0-2.817,2.287-5.103,5.106-5.103h18.11
		V20.394c0-4.517-3.664-8.18-8.182-8.18h-36v18.628c0,2.818-2.287,5.104-5.104,5.104h-26.65
		C82.414,35.946,80.127,33.66,80.127,30.842z"/>
	<path opacity="0.8" fill="none" stroke="#70A4EF" stroke-width="0.8868" d="M118.76,13.986c0,2.903,0,16.855,0,16.855
		c0,3.791-3.086,6.878-6.877,6.878h-26.65c-3.793,0-6.879-3.087-6.879-6.878c0,0,0-13.952,0-16.855c-3.209,0-34.453,0-34.453,0
		c-3.532,0-6.406,2.872-6.406,6.407v43.211H16.141c-1.022,0-1.855,0.834-1.855,1.857v18.951c0,0.495,0.194,0.961,0.545,1.313
		c0.35,0.35,0.816,0.543,1.311,0.543h21.354v43.211c0,3.532,2.874,6.408,6.406,6.408h43.323v21.06c0,1.024,0.833,1.856,1.856,1.856
		h18.951c1.023,0,1.857-0.832,1.857-1.856v-21.06h43.098c3.533,0,6.408-2.876,6.408-6.408c0,0,0-31.133,0-34.34
		c-2.889,0-16.337,0-16.337,0c-3.794,0-6.88-3.085-6.88-6.879V61.612c0-3.792,3.086-6.878,6.88-6.878c0,0,13.448,0,16.337,0
		c0-3.206,0-34.341,0-34.341c0-3.535-2.875-6.407-6.408-6.407C152.986,13.986,121.967,13.986,118.76,13.986z"/>
</g>
</svg>
