<?xml version="1.0" encoding="utf-8"?>
<!-- Generator: Adobe Illustrator 12.0.1, SVG Export Plug-In . SVG Version: 6.00 Build 51448)  -->
<!DOCTYPE svg PUBLIC "-//W3C//DTD SVG 1.1//EN" "http://www.w3.org/Graphics/SVG/1.1/DTD/svg11.dtd" [
	<!ENTITY ns_svg "http://www.w3.org/2000/svg">
	<!ENTITY ns_xlink "http://www.w3.org/1999/xlink">
]>
<svg  version="1.1" id="Layer_1" xmlns="&ns_svg;" xmlns:xlink="&ns_xlink;" width="263.987" height="263.987"
	 viewBox="0 0 263.987 263.987" overflow="visible" enable-background="new 0 0 263.987 263.987" xml:space="preserve">
<g>
	<circle fill="#FFFFFF" stroke="#7C86C1" stroke-width="1.637" cx="131.993" cy="131.994" r="122.169"/>
	<g>
		<linearGradient id="XMLID_15_" gradientUnits="userSpaceOnUse" x1="24.5122" y1="-88.7832" x2="245.9684" y2="184.3998">
			<stop  offset="0.0048" style="stop-color:#004C95"/>
			<stop  offset="1" style="stop-color:#102D4B"/>
		</linearGradient>
		<path fill="url(#XMLID_15_)" d="M73.404,29.398c0.554,0.959,57.801,100.116,58.725,101.717
			c0.926-1.6,58.336-100.681,58.893-101.641C154.676,8.686,109.72,8.656,73.404,29.398z"/>
		<g>
			<path fill="#FFFFFF" d="M132.014,13.227c-20.182,0-40.631,5.141-59.365,15.956l58.85,101.932l0,0l0.083,0.145l0,0l0.545,0.945
				l0.547-0.944l0,0l0.084-0.146l0,0l58.47-100.911c0.002,0,0.002,0,0.002,0l-0.002,0l0,0l0.548-0.944
				C173.633,18.771,152.969,13.227,132.014,13.227L132.014,13.227z M74.142,29.587c8.825-4.988,18.214-8.816,27.924-11.383
				c9.756-2.578,19.831-3.886,29.947-3.886c20.399,0,40.521,5.302,58.269,15.344l-58.153,100.363L74.142,29.587L74.142,29.587z"/>
		</g>
	</g>
	<g>
		<linearGradient id="XMLID_16_" gradientUnits="userSpaceOnUse" x1="28.4253" y1="-90.6416" x2="249.8778" y2="182.5369">
			<stop  offset="0.0048" style="stop-color:#004C95"/>
			<stop  offset="1" style="stop-color:#102D4B"/>
		</linearGradient>
		<path fill="url(#XMLID_16_)" d="M133.11,131.652c1.847,0.003,116.348,0.193,117.463,0.195
			c-0.219-20.833-5.746-41.244-16.032-59.06c-10.289-17.821-25.061-32.665-42.724-42.984
			C191.263,30.765,134.032,130.053,133.11,131.652z"/>
		<g>
			<path fill="#FFFFFF" d="M191.625,29.042l-59.46,103.155l1.091,0.002l0,0h0.167l0,0l116.623,0.194l0,0l0,0l0,0l1.091,0.002
				c-0.121-20.484-5.255-41.05-16.126-59.879C224.207,53.8,209.083,39.132,191.625,29.042L191.625,29.042z M134.053,131.109
				l57.97-100.571c8.387,4.952,16.128,10.93,23.021,17.78c7.375,7.328,13.775,15.653,19.024,24.744
				c5.269,9.127,9.301,18.901,11.983,29.052c2.498,9.452,3.837,19.266,3.984,29.188L134.053,131.109L134.053,131.109z"/>
		</g>
	</g>
	<linearGradient id="XMLID_17_" gradientUnits="userSpaceOnUse" x1="8.5845" y1="-78.7163" x2="232.8774" y2="197.966">
		<stop  offset="0.0048" style="stop-color:#004C95"/>
		<stop  offset="1" style="stop-color:#102D4B"/>
	</linearGradient>
	<path fill="url(#XMLID_17_)" stroke="#FFFFFF" stroke-width="1.0914" d="M191.353,234.822
		c38.053-21.969,59.369-61.787,59.492-102.772l-118.733,0.165L191.353,234.822z"/>
	<linearGradient id="XMLID_18_" gradientUnits="userSpaceOnUse" x1="8.5225" y1="-78.6699" x2="232.8183" y2="198.0161">
		<stop  offset="0.0048" style="stop-color:#004C95"/>
		<stop  offset="1" style="stop-color:#102D4B"/>
	</linearGradient>
	<path fill="url(#XMLID_18_)" stroke="#FFFFFF" stroke-width="1.0914" d="M133.056,132.759
		c0.924,1.601,57.934,100.344,58.488,101.303c18.07-10.544,33.043-25.657,43.304-43.763c9.957-17.57,15.278-37.512,15.433-57.703
		C249.168,132.598,134.904,132.756,133.056,132.759z"/>
	<g>
		<linearGradient id="XMLID_19_" gradientUnits="userSpaceOnUse" x1="-47.3022" y1="-30.5239" x2="173.9641" y2="242.4249">
			<stop  offset="0.0048" style="stop-color:#004C95"/>
			<stop  offset="1" style="stop-color:#102D4B"/>
		</linearGradient>
		<path fill="url(#XMLID_19_)" d="M13.668,131.869c1.105-0.001,115.622-0.18,117.47-0.183
			c-0.924-1.601-58.171-100.756-58.726-101.716C36.291,51.05,13.836,89.998,13.668,131.869z"/>
		<g>
			<path fill="#FFFFFF" d="M72.603,29.21C34.417,51.256,13.08,91.278,13.105,132.416l1.091-0.002l0,0l0,0c0,0.001,0,0.001,0,0.001
				l116.626-0.182l0,0l0.167-0.001l0,0l1.091-0.001L72.603,29.21L72.603,29.21z M14.201,131.323
				c0.173-19.985,5.445-39.717,15.273-57.133c5.066-8.976,11.289-17.243,18.496-24.573c7.182-7.304,15.331-13.663,24.235-18.912
				l57.988,100.437L14.201,131.323L14.201,131.323z"/>
		</g>
	</g>
	<g>
		<linearGradient id="XMLID_20_" gradientUnits="userSpaceOnUse" x1="-64.6685" y1="-15.6177" x2="156.7868" y2="257.5642">
			<stop  offset="0.0048" style="stop-color:#004C95"/>
			<stop  offset="1" style="stop-color:#102D4B"/>
		</linearGradient>
		<path fill="url(#XMLID_20_)" d="M29.421,191.215c10.286,17.815,25.199,32.809,43.131,43.414
			c0.556-0.967,57.641-100.224,58.562-101.824c-1.847-0.001-116.448-0.08-117.557-0.081
			C13.663,153.181,19.132,173.395,29.421,191.215z"/>
		<path fill="#FFFFFF" d="M12.993,132.178c0,0.363,0.002,0.729,0.005,1.092l0,0l0,0l0,0c0.19,19.808,5.338,39.84,15.95,58.219
			c10.678,18.494,25.575,33.032,42.854,43.35l0,0l0,0l0,0c0.313,0.187,0.625,0.371,0.939,0.556l0.544-0.946l0,0l0,0l0,0
			l58.144-101.097l0,0l0.083-0.145l0,0l0.544-0.946L12.993,132.178L12.993,132.178z M72.346,233.892
			c-8.519-5.089-16.349-11.155-23.286-18.045c-7.449-7.398-13.898-15.777-19.168-24.904c-5.248-9.09-9.257-18.795-11.916-28.847
			c-2.486-9.395-3.792-19.087-3.887-28.826l116.082,0.08L72.346,233.892L72.346,233.892z"/>
	</g>
	<linearGradient id="XMLID_21_" gradientUnits="userSpaceOnUse" x1="-66.4897" y1="-17.8647" x2="157.8074" y2="258.8228">
		<stop  offset="0.0048" style="stop-color:#004C95"/>
		<stop  offset="1" style="stop-color:#102D4B"/>
	</linearGradient>
	<path fill="url(#XMLID_21_)" stroke="#FFFFFF" stroke-width="1.0914" d="M29.421,191.215L29.421,191.215
		c10.287,17.816,25.2,32.81,43.131,43.413c0.556-0.967,57.642-100.223,58.562-101.823c-1.847-0.001-116.448-0.081-117.557-0.082
		C13.663,153.179,19.132,173.394,29.421,191.215z"/>
	<linearGradient id="XMLID_22_" gradientUnits="userSpaceOnUse" x1="-63.4077" y1="-20.3623" x2="160.8891" y2="256.3248">
		<stop  offset="0.0048" style="stop-color:#004C95"/>
		<stop  offset="1" style="stop-color:#102D4B"/>
	</linearGradient>
	<path fill="url(#XMLID_22_)" stroke="#FFFFFF" stroke-width="1.0914" d="M191.34,235.342c-38.052,21.97-83.194,20.521-118.75,0.136
		l59.508-102.745L191.34,235.342z"/>
	<linearGradient id="XMLID_23_" gradientUnits="userSpaceOnUse" x1="-63.3931" y1="-20.3726" x2="160.903" y2="256.3137">
		<stop  offset="0.0048" style="stop-color:#004C95"/>
		<stop  offset="1" style="stop-color:#102D4B"/>
	</linearGradient>
	<path fill="url(#XMLID_23_)" stroke="#FFFFFF" stroke-width="1.0914" d="M73.346,235.261c17.563,9.962,37.493,15.325,57.688,15.487
		c20.811,0.166,41.386-5.244,59.553-15.621c-0.554-0.959-57.564-99.703-58.488-101.303
		C131.171,135.422,73.903,234.299,73.346,235.261z"/>
	<circle fill="#FFFFFF" cx="131.994" cy="132.54" r="91.799"/>
	<g>
		<linearGradient id="XMLID_24_" gradientUnits="userSpaceOnUse" x1="44.3657" y1="87.4829" x2="146.9459" y2="230.1789">
			<stop  offset="0" style="stop-color:#5C85C4"/>
			<stop  offset="1" style="stop-color:#22579F"/>
		</linearGradient>
		<path fill="url(#XMLID_24_)" d="M42.493,131.994c0,28.38,13.655,55.296,36.54,72.132c0.647-0.893,51.216-70.654,52.078-71.844
			c-1.397-0.451-83.39-26.947-84.446-27.288C43.909,113.711,42.493,122.789,42.493,131.994z"/>
		<g>
			<path fill="#FFFFFF" d="M46.292,104.301c-2.817,8.725-4.345,18.03-4.345,27.694c0,29.593,14.278,55.845,36.317,72.26l0,0l0,0l0,0
				c0.292,0.218,0.585,0.434,0.879,0.647l0.641-0.884l0,0l0,0l0,0l51.536-71.095l0,0l0.033-0.045l0,0l0.641-0.884L46.292,104.301
				L46.292,104.301z M78.904,203.371c-5.211-3.884-10.004-8.342-14.255-13.263c-4.51-5.222-8.409-10.96-11.589-17.059
				c-3.236-6.208-5.73-12.795-7.412-19.578c-1.732-6.984-2.611-14.211-2.611-21.477c0-8.967,1.333-17.814,3.964-26.318
				l83.226,26.894L78.904,203.371L78.904,203.371z"/>
		</g>
	</g>
	<g>
		<linearGradient id="XMLID_25_" gradientUnits="userSpaceOnUse" x1="48.1865" y1="89.2124" x2="149.333" y2="229.9141">
			<stop  offset="0" style="stop-color:#5C85C4"/>
			<stop  offset="1" style="stop-color:#22579F"/>
		</linearGradient>
		<path fill="url(#XMLID_25_)" d="M80.349,205.55c14.817,10.578,33.126,16.415,51.642,16.415c18.54,0,36.252-5.695,51.276-16.443
			c-0.648-0.898-50.384-69.814-51.246-71.008C131.156,135.704,81.004,204.648,80.349,205.55z"/>
		<g>
			<path fill="#FFFFFF" d="M132.022,133.584l-52.45,72.106c0.294,0.213,0.591,0.425,0.888,0.634l0,0l0,0l0,0
				c14.472,10.196,32.494,16.187,51.53,16.187c19.05,0,36.697-6.001,51.161-16.214l0,0l0,0l0,0c0.297-0.21,0.593-0.421,0.888-0.635
				L132.022,133.584L132.022,133.584z M81.103,205.442l50.916-69.998l50.494,69.968c-7.084,5.001-14.828,8.905-23.034,11.612
				c-8.841,2.917-18.09,4.396-27.488,4.396c-9.423,0-18.734-1.477-27.674-4.389C95.964,214.31,88.16,210.413,81.103,205.442
				L81.103,205.442z"/>
		</g>
	</g>
	<g>
		<linearGradient id="XMLID_26_" gradientUnits="userSpaceOnUse" x1="116.3931" y1="36.9712" x2="218.9747" y2="179.6692">
			<stop  offset="0" style="stop-color:#5C85C4"/>
			<stop  offset="1" style="stop-color:#22579F"/>
		</linearGradient>
		<path fill="url(#XMLID_26_)" d="M132.876,132.282c0.862,1.188,51.436,70.946,52.082,71.839
			c22.882-16.833,36.535-43.747,36.535-72.127c0-9.209-1.418-18.291-4.177-27.012C216.26,105.323,134.274,131.83,132.876,132.282z"
			/>
		<g>
			<path fill="#FFFFFF" d="M217.689,104.288l-85.695,27.707l0.641,0.884l0,0l0.033,0.045l0,0l51.54,71.09l0,0l0,0l0,0l0.64,0.884
				c0.295-0.214,0.588-0.43,0.88-0.647l0,0l0,0l0,0c22.036-16.413,36.313-42.664,36.313-72.255
				C222.039,122.328,220.508,113.017,217.689,104.288L217.689,104.288z M133.76,132.57l83.219-26.906
				c2.634,8.508,3.969,17.361,3.969,26.331c0,7.265-0.879,14.491-2.611,21.476c-1.682,6.783-4.175,13.37-7.411,19.577
				c-3.179,6.099-7.077,11.837-11.587,17.058c-4.25,4.921-9.042,9.378-14.253,13.261L133.76,132.57L133.76,132.57z"/>
		</g>
	</g>
	<g>
		<linearGradient id="XMLID_27_" gradientUnits="userSpaceOnUse" x1="117.7456" y1="34.7212" x2="220.3221" y2="177.412">
			<stop  offset="0" style="stop-color:#5C85C4"/>
			<stop  offset="1" style="stop-color:#22579F"/>
		</linearGradient>
		<path fill="url(#XMLID_27_)" d="M132.54,131.244c1.394-0.45,83.39-26.946,84.446-27.288
			c-12.063-36.607-45.879-61.209-84.447-61.441C132.539,43.626,132.539,129.779,132.54,131.244z"/>
		<g>
			<path fill="#FFFFFF" d="M131.993,41.948v1.091l0,0l0,0l0,0l0.001,87.81l0,0v0.055l0,0v1.092l1.038-0.335l0,0l0.053-0.018l0,0
				l84.609-27.34C206.01,68.121,172.061,41.948,131.993,41.948L131.993,41.948z M133.084,130.496l-0.001-87.45
				c9.31,0.112,18.46,1.655,27.213,4.592c8.796,2.95,17.054,7.255,24.542,12.796c7.402,5.478,13.892,12.038,19.286,19.501
				c5.247,7.259,9.345,15.217,12.188,23.667L133.084,130.496L133.084,130.496z"/>
		</g>
	</g>
	<g>
		<linearGradient id="XMLID_28_" gradientUnits="userSpaceOnUse" x1="80.3823" y1="60.9253" x2="182.8367" y2="203.4463">
			<stop  offset="0" style="stop-color:#5C85C4"/>
			<stop  offset="1" style="stop-color:#22579F"/>
		</linearGradient>
		<path fill="url(#XMLID_28_)" d="M47.005,103.94c1.057,0.342,83.047,26.853,84.442,27.304c0-1.466,0-87.618,0-88.729
			C92.886,42.747,59.074,67.343,47.005,103.94z"/>
		<g>
			<path fill="#FFFFFF" d="M131.993,41.948c-40.063,0-74.009,26.166-85.696,62.338l1.039,0.335l0,0l0,0c0,0,0,0,0,0l83.567,27.021
				l0,0l0.053,0.017l0,0l1.038,0.336V41.948L131.993,41.948z M47.677,103.585c2.845-8.449,6.943-16.403,12.191-23.66
				c5.395-7.46,11.883-14.02,19.285-19.495c7.489-5.54,15.745-9.844,24.539-12.794c8.753-2.936,17.901-4.479,27.21-4.59v87.45
				L47.677,103.585L47.677,103.585z"/>
		</g>
	</g>
	<circle fill="#82ABE0" stroke="#FFFFFF" stroke-width="3.2741" cx="131.993" cy="131.994" r="24.769"/>
</g>
</svg>
