<?xml version="1.0" encoding="utf-8"?>
<!-- Generator: Adobe Illustrator 12.0.1, SVG Export Plug-In . SVG Version: 6.00 Build 51448)  -->
<!DOCTYPE svg PUBLIC "-//W3C//DTD SVG 1.1//EN" "http://www.w3.org/Graphics/SVG/1.1/DTD/svg11.dtd" [
	<!ENTITY ns_svg "http://www.w3.org/2000/svg">
	<!ENTITY ns_xlink "http://www.w3.org/1999/xlink">
]>
<svg  version="1.1" id="Layer_1" xmlns="&ns_svg;" xmlns:xlink="&ns_xlink;" width="263.986" height="263.987"
	 viewBox="0 0 263.986 263.987" overflow="visible" enable-background="new 0 0 263.986 263.987" xml:space="preserve">
<g>
	<circle fill="#FFFFFF" stroke="#7C86C1" stroke-width="1.637" cx="131.993" cy="131.994" r="122.169"/>
	<g>
		<linearGradient id="XMLID_7_" gradientUnits="userSpaceOnUse" x1="16.3745" y1="73.3877" x2="151.5427" y2="261.4159">
			<stop  offset="0" style="stop-color:#5C85C4"/>
			<stop  offset="1" style="stop-color:#22579F"/>
		</linearGradient>
		<path fill="url(#XMLID_7_)" d="M13.916,131.994c0,37.411,17.986,72.888,48.129,95.101c0.967-1.335,67.335-92.892,68.625-94.669
			c-2.09-0.676-109.695-35.446-111.276-35.957C15.777,107.941,13.916,119.884,13.916,131.994z"/>
		<g>
			<path fill="#FFFFFF" d="M18.835,95.428c-3.72,11.521-5.738,23.807-5.738,36.566c0,39.004,18.784,73.612,47.796,95.293l0,0l0,0
				l0,0c0.437,0.326,0.876,0.65,1.318,0.971l0.961-1.326l0,0l0,0l0,0l67.811-93.545l0,0l0.05-0.068l0,0l0.96-1.325L18.835,95.428
				L18.835,95.428z M61.854,225.961c-6.809-5.091-13.071-10.927-18.633-17.364c-5.945-6.881-11.084-14.446-15.275-22.485
				c-4.266-8.182-7.553-16.864-9.771-25.807c-2.283-9.208-3.441-18.732-3.441-28.311c0-11.752,1.738-23.35,5.167-34.501
				l109.443,35.365L61.854,225.961L61.854,225.961z"/>
		</g>
	</g>
	<g>
		<linearGradient id="XMLID_8_" gradientUnits="userSpaceOnUse" x1="20.0029" y1="72.6929" x2="155.1672" y2="260.7156">
			<stop  offset="0" style="stop-color:#5C85C4"/>
			<stop  offset="1" style="stop-color:#22579F"/>
		</linearGradient>
		<path fill="url(#XMLID_8_)" d="M62.981,228.158c19.812,14.12,44.273,21.912,69.011,21.912c24.771,0,48.437-7.604,68.522-21.951
			c-0.97-1.344-67.193-93.105-68.481-94.89C130.739,135.008,63.962,226.809,62.981,228.158z"/>
		<g>
			<path fill="#FFFFFF" d="M132.036,131.834l-70.219,96.533c0.442,0.319,0.886,0.636,1.333,0.95l0,0l0,0l0,0
				c19.351,13.588,43.423,21.57,68.843,21.57c25.441,0,49.015-7.998,68.351-21.608l0,0l0,0l0,0c0.446-0.314,0.89-0.631,1.332-0.951
				L132.036,131.834L132.036,131.834z M64.113,227.994l67.917-93.369l67.354,93.327c-9.43,6.637-19.731,11.822-30.646,15.423
				c-11.82,3.899-24.183,5.877-36.746,5.877c-12.596,0-25.043-1.975-36.994-5.868C83.892,239.765,73.509,234.59,64.113,227.994
				L64.113,227.994z"/>
		</g>
	</g>
	<g>
		<linearGradient id="XMLID_9_" gradientUnits="userSpaceOnUse" x1="111.5962" y1="6.8311" x2="246.7696" y2="194.8665">
			<stop  offset="0" style="stop-color:#5C85C4"/>
			<stop  offset="1" style="stop-color:#22579F"/>
		</linearGradient>
		<path fill="url(#XMLID_9_)" d="M133.318,132.424c1.289,1.778,67.663,93.329,68.629,94.663
			c30.14-22.212,48.123-57.688,48.123-95.094c0-12.114-1.864-24.062-5.484-35.541C243.005,96.964,135.407,131.75,133.318,132.424z"
			/>
		<g>
			<path fill="#FFFFFF" d="M245.144,95.413l-113.15,36.581l0.961,1.325l0,0l0.05,0.068l0,0l67.814,93.539l0,0l0,0l0,0l0.961,1.326
				c0.441-0.32,0.881-0.645,1.317-0.971l0,0h0.001l0,0c29.007-21.681,47.791-56.286,47.791-95.287
				C250.889,119.23,248.866,106.938,245.144,95.413L245.144,95.413z M134.642,132.858l109.436-35.379
				c3.434,11.16,5.173,22.764,5.173,34.516c0,9.576-1.157,19.102-3.44,28.309c-2.217,8.941-5.504,17.623-9.771,25.805
				c-4.19,8.038-9.329,15.604-15.273,22.484c-5.56,6.437-11.822,12.271-18.631,17.363L134.642,132.858L134.642,132.858z"/>
		</g>
	</g>
	<g>
		<linearGradient id="XMLID_10_" gradientUnits="userSpaceOnUse" x1="113.3081" y1="3.686" x2="248.4765" y2="191.7146">
			<stop  offset="0" style="stop-color:#5C85C4"/>
			<stop  offset="1" style="stop-color:#22579F"/>
		</linearGradient>
		<path fill="url(#XMLID_10_)" d="M132.812,130.868c2.085-0.673,109.695-35.443,111.276-35.954
			C228.156,46.701,183.62,14.297,132.811,13.95C132.811,15.612,132.812,128.677,132.812,130.868z"/>
		<g>
			<path fill="#FFFFFF" d="M131.992,13.099v1.637l0,0l0,0l0,0l0.001,115.537l0,0v0.083l0,0v1.638l1.558-0.504l0,0l0.079-0.025l0,0
				l111.519-36.033C229.725,47.658,184.897,13.099,131.992,13.099L131.992,13.099z M133.63,129.744l-0.001-114.996
				c49.846,0.68,93.496,32.438,109.449,79.633L133.63,129.744L133.63,129.744z"/>
		</g>
	</g>
	<g>
		<linearGradient id="XMLID_11_" gradientUnits="userSpaceOnUse" x1="63.9033" y1="38.2344" x2="198.8714" y2="225.9842">
			<stop  offset="0" style="stop-color:#5C85C4"/>
			<stop  offset="1" style="stop-color:#22579F"/>
		</linearGradient>
		<path fill="url(#XMLID_11_)" d="M19.904,94.891c1.581,0.511,109.185,35.303,111.271,35.977c0-2.191,0-115.255,0-116.917
			C80.377,14.297,35.843,46.692,19.904,94.891z"/>
		<g>
			<path fill="#FFFFFF" d="M131.992,13.099c-52.899,0-97.718,34.549-113.151,82.309l111.514,36.056l0,0l0.079,0.025l0,0l1.558,0.504
				V13.099L131.992,13.099z M20.914,94.357c15.961-47.181,59.607-78.93,109.442-79.61v114.995L20.914,94.357L20.914,94.357z"/>
		</g>
	</g>
	<circle fill="#FFFFFF" stroke="#FFFFFF" stroke-width="1.637" cx="131.993" cy="131.993" r="35.896"/>
	<linearGradient id="XMLID_12_" gradientUnits="userSpaceOnUse" x1="114.4263" y1="103.9727" x2="152.0547" y2="163.9917">
		<stop  offset="0" style="stop-color:#A1C1EA"/>
		<stop  offset="1" style="stop-color:#6295D6"/>
	</linearGradient>
	<circle fill="url(#XMLID_12_)" cx="131.993" cy="131.993" r="32.705"/>
</g>
</svg>
