<?xml version="1.0" encoding="utf-8"?>
<!-- Generator: Adobe Illustrator 12.0.1, SVG Export Plug-In . SVG Version: 6.00 Build 51448)  -->
<!DOCTYPE svg PUBLIC "-//W3C//DTD SVG 1.1//EN" "http://www.w3.org/Graphics/SVG/1.1/DTD/svg11.dtd" [
	<!ENTITY ns_svg "http://www.w3.org/2000/svg">
	<!ENTITY ns_xlink "http://www.w3.org/1999/xlink">
]>
<svg  version="1.1" id="Layer_1" xmlns="&ns_svg;" xmlns:xlink="&ns_xlink;" width="254.037" height="257"
	 viewBox="0 0 254.037 257" overflow="visible" enable-background="new 0 0 254.037 257" xml:space="preserve">
<rect x="-39" y="-44" fill="none" width="305" height="301"/>
<rect x="-44" y="-37" fill="none" width="305" height="304"/>
<g>
	<g>
		<g>
			<path fill="#141745" d="M9.746,130.239l44.812,39.049c0,0,0-18.713,0-20.127c1.389,0,15.72,0,15.72,0v-37.835
				c0,0-14.331,0-15.72,0c0-1.414,0-20.129,0-20.129L9.746,130.239z"/>
			<path fill="#141745" d="M55.325,89.512l-2.542,2.214L9.906,129.083l-1.327,1.157l1.327,1.156l42.877,37.362l2.542,2.215v-3.371
				v-17.674H69.51h1.534v-1.534v-36.302v-1.534H69.51H55.325V92.883V89.512L55.325,89.512z M10.914,130.24l42.877-37.357v17.676l0,0
				l0,0v1.534h1.534l0,0l0,0H69.51v36.302l0,0l0,0H53.791v1.534l0,0l0,0v17.674l0,0l0,0L10.914,130.24L10.914,130.24L10.914,130.24z
				"/>
		</g>
		<g>
			
				<linearGradient id="XMLID_6_" gradientUnits="userSpaceOnUse" x1="105.6279" y1="-4086.4424" x2="161.8066" y2="-4086.4424" gradientTransform="matrix(1 0 0 -1 -93.2549 -3956.2002)">
				<stop  offset="0" style="stop-color:#27447D"/>
				<stop  offset="1" style="stop-color:#1C2958"/>
			</linearGradient>
			<path fill="url(#XMLID_6_)" d="M12.373,130.239c1.535,1.338,37.572,32.74,40.459,35.256c0-3.34,0-18.06,0-18.06s14.029,0,15.72,0
				c0-1.768,0-32.616,0-34.384c-1.69,0-15.72,0-15.72,0s0-14.722,0-18.063C49.945,97.505,13.908,128.901,12.373,130.239z"/>
			<g>
				<path fill="#619BD6" d="M53.791,92.883L10.914,130.24l1.445,1.26l0,0l0.015,0.012l0,0l39.5,34.421l0,0l0.472,0.411l0,0
					l1.445,1.259v-19.208l0,0l0,0H69.51v-36.302H53.791V92.883L53.791,92.883z M13.834,130.24l38.04-33.144v14.996v1.917h1.917
					h13.802v32.468H53.791h-1.917v1.917v14.994L13.834,130.24L13.834,130.24z"/>
			</g>
		</g>
	</g>
	<g>
		<g>
			<path fill="#141745" d="M200.002,111.326c-1.389,0-15.722,0-15.722,0v37.835c0,0,14.333,0,15.722,0c0,1.414,0,20.127,0,20.127
				l44.81-39.049l-44.81-39.042C200.002,91.197,200.002,109.912,200.002,111.326z"/>
			<path fill="#141745" d="M199.234,89.512v3.371v17.676h-14.188h-1.534v1.534v36.302v1.534h1.534h14.188v17.674v3.371l2.542-2.215
				l42.876-37.362l1.326-1.156l-1.326-1.157l-42.876-37.357L199.234,89.512L199.234,89.512z M200.768,92.883l42.876,37.357l0,0l0,0
				l-42.876,37.362v-19.208h-15.722v-36.302l0,0l0,0h14.188l0,0l0,0h1.533V92.883L200.768,92.883L200.768,92.883z"/>
		</g>
		<g>
			
				<linearGradient id="XMLID_7_" gradientUnits="userSpaceOnUse" x1="-4111.6621" y1="-4086.4424" x2="-4055.4824" y2="-4086.4424" gradientTransform="matrix(-1 0 0 -1 -3869.4766 -3956.2002)">
				<stop  offset="0" style="stop-color:#27447D"/>
				<stop  offset="1" style="stop-color:#1C2958"/>
			</linearGradient>
			<path fill="url(#XMLID_7_)" d="M201.728,113.052c0,0-14.031,0-15.722,0c0,1.768,0,32.616,0,34.384c1.69,0,15.722,0,15.722,0
				s0,14.72,0,18.06c2.887-2.516,38.923-33.918,40.458-35.256c-1.535-1.338-37.571-32.734-40.458-35.25
				C201.728,98.33,201.728,113.052,201.728,113.052z"/>
			<g>
				<path fill="#619BD6" d="M200.768,92.883v1.918l0,0v0.626l0,0v16.666l0,0l0,0h-15.722v36.302h15.722v16.664l0,0v0.627l0,0v1.917
					l1.446-1.259l0,0l0.471-0.411l0,0l39.5-34.421l0,0l0.014-0.012l0,0l1.445-1.26L200.768,92.883L200.768,92.883z M186.963,114.01
					h13.805h1.917v-1.917V97.097l38.04,33.144l-38.04,33.148v-14.994v-1.917h-1.917h-13.805V114.01L186.963,114.01z"/>
			</g>
		</g>
	</g>
	<g>
		<g>
			<path fill="#141745" d="M108.362,187.243c0,0,0,14.334,0,15.723c-1.414,0-20.128,0-20.128,0l39.04,44.809l39.05-44.809
				c0,0-18.714,0-20.128,0c0-1.389,0-15.723,0-15.723H108.362z"/>
			<path fill="#141745" d="M146.963,186.476h-1.534h-36.301h-1.534v1.534v14.189H89.919h-3.371l2.214,2.542l37.355,42.875
				l1.157,1.327l1.155-1.327l37.364-42.875l2.215-2.542h-3.371h-17.675V188.01V186.476L146.963,186.476z M109.128,188.01h36.301
				v14.189l0,0l0,0v1.534h1.534l0,0l0,0h17.675l0,0l0,0l-37.363,42.875l-37.355-42.875l0,0l0,0h17.675l0,0l0,0h1.534V188.01
				L109.128,188.01L109.128,188.01z"/>
		</g>
		<g>
			
				<linearGradient id="XMLID_8_" gradientUnits="userSpaceOnUse" x1="-1924.9229" y1="-6027.1821" x2="-1868.7432" y2="-6027.1821" gradientTransform="matrix(0 -1 -1 0 -5899.9033 -1679.7744)">
				<stop  offset="0" style="stop-color:#27447D"/>
				<stop  offset="1" style="stop-color:#1C2958"/>
			</linearGradient>
			<path fill="url(#XMLID_8_)" d="M110.088,188.969c0,1.69,0,15.723,0,15.723s-14.722,0-18.062,0
				c2.516,2.887,33.91,38.922,35.248,40.457c1.338-1.535,32.741-37.57,35.257-40.457c-3.34,0-18.061,0-18.061,0s0-14.032,0-15.723
				C142.703,188.969,111.855,188.969,110.088,188.969z"/>
			<g>
				<path fill="#619BD6" d="M145.429,188.01h-36.301v15.724l0,0l0,0H89.919l1.26,1.445l0,0l0.41,0.472l0,0l34.413,39.498l0,0
					l0.013,0.014l0,0l1.26,1.446l1.26-1.446l0,0l0.012-0.014l0,0l34.422-39.498l0,0l0.41-0.472l0,0l1.26-1.445h-19.209V188.01
					L145.429,188.01z M111.045,189.927h32.467v13.807v1.917h1.917h14.995l-33.149,38.038L94.133,205.65h14.995h1.917v-1.917V189.927
					L111.045,189.927z"/>
			</g>
		</g>
	</g>
	<g>
		<g>
			<path fill="#141745" d="M88.234,57.521c0,0,18.714,0,20.128,0c0,1.388,0,15.723,0,15.723h37.834c0,0,0-14.335,0-15.723
				c1.414,0,20.128,0,20.128,0l-39.05-44.81L88.234,57.521z"/>
			<path fill="#141745" d="M127.274,11.544l-1.157,1.327L88.762,55.746l-2.214,2.542h3.371h17.675v14.189v1.534h1.534h36.301h1.534
				v-1.534V58.288h17.675h3.371l-2.215-2.542L128.43,12.871L127.274,11.544L127.274,11.544z M89.919,56.754l37.355-42.875
				l37.363,42.875l0,0l0,0h-19.209v1.534l0,0l0,0v14.189l0,0l0,0h-36.301V56.754H89.919L89.919,56.754L89.919,56.754L89.919,56.754z
				"/>
		</g>
		<g>
			
				<linearGradient id="XMLID_9_" gradientUnits="userSpaceOnUse" x1="-2081.1089" y1="-6027.1812" x2="-2024.9292" y2="-6027.1812" gradientTransform="matrix(0 1 -1 0 -5899.9023 2096.4473)">
				<stop  offset="0" style="stop-color:#27447D"/>
				<stop  offset="1" style="stop-color:#1C2958"/>
			</linearGradient>
			<path fill="url(#XMLID_9_)" d="M92.026,55.795c3.34,0,18.062,0,18.062,0s0,14.032,0,15.723c1.768,0,32.615,0,34.383,0
				c0-1.691,0-15.723,0-15.723s14.721,0,18.061,0c-2.516-2.887-33.919-38.922-35.257-40.457
				C125.937,16.874,94.542,52.909,92.026,55.795z"/>
			<g>
				<path fill="#619BD6" d="M127.274,13.879L89.919,56.754h1.918l0,0h0.626l0,0h16.665v15.723h36.301V56.754l0,0l0,0h16.665l0,0
					h0.627l0,0h1.917L127.274,13.879L127.274,13.879z M94.133,54.837l33.142-38.039l33.149,38.039h-14.995h-1.917v1.917V70.56
					h-32.467V56.754v-1.917h-1.917H94.133L94.133,54.837z"/>
			</g>
		</g>
	</g>
	<g>
		<g>
			<path fill="#141745" d="M87.544,130.243c0,21.91,17.824,39.735,39.734,39.735c21.911,0,39.737-17.825,39.737-39.735
				s-17.826-39.735-39.737-39.735C105.368,90.508,87.544,108.333,87.544,130.243z"/>
			<g>
				<path fill="#141745" d="M127.278,89.741c-5.468,0-10.772,1.07-15.767,3.183c-4.822,2.04-9.153,4.961-12.873,8.68
					c-3.719,3.72-6.64,8.051-8.68,12.874c-2.112,4.994-3.183,10.3-3.183,15.767s1.07,10.771,3.183,15.765
					c2.04,4.823,4.961,9.154,8.68,12.874c3.72,3.719,8.051,6.64,12.873,8.679c4.994,2.113,10.299,3.185,15.767,3.185
					c5.467,0,10.771-1.071,15.766-3.185c4.824-2.039,9.155-4.96,12.875-8.679c3.719-3.72,6.64-8.051,8.68-12.874
					c2.113-4.994,3.185-10.298,3.185-15.765s-1.071-10.772-3.185-15.768c-2.04-4.822-4.961-9.153-8.68-12.873
					c-3.72-3.719-8.051-6.64-12.875-8.68C138.05,90.812,132.745,89.741,127.278,89.741L127.278,89.741z M88.31,130.244
					c0-21.523,17.446-38.969,38.969-38.969c21.521,0,38.971,17.445,38.971,38.969l0,0l0,0c0,21.52-17.449,38.968-38.971,38.968
					C105.756,169.212,88.31,151.764,88.31,130.244L88.31,130.244L88.31,130.244z"/>
			</g>
		</g>
		<g>
			<linearGradient id="XMLID_10_" gradientUnits="userSpaceOnUse" x1="102.896" y1="103.0459" x2="148.8757" y2="154.3309">
				<stop  offset="0" style="stop-color:#27447D"/>
				<stop  offset="1" style="stop-color:#1C2958"/>
			</linearGradient>
			<path fill="url(#XMLID_10_)" d="M89.27,130.243c0,20.959,17.051,38.01,38.009,38.01c20.96,0,38.012-17.051,38.012-38.01
				s-17.052-38.01-38.012-38.01C106.32,92.233,89.27,109.284,89.27,130.243z"/>
			<g>
				<path fill="#619BD6" d="M127.278,91.275c-21.522,0-38.969,17.445-38.969,38.969c0,21.52,17.446,38.968,38.969,38.968
					c21.521,0,38.971-17.448,38.971-38.968C166.249,108.721,148.8,91.275,127.278,91.275L127.278,91.275z M127.278,167.295
					c-9.897,0-19.201-3.854-26.199-10.853s-10.853-16.303-10.853-26.198c0-9.897,3.854-19.202,10.853-26.2
					s16.302-10.852,26.199-10.852c9.896,0,19.202,3.854,26.2,10.852s10.854,16.303,10.854,26.2c0,9.896-3.855,19.2-10.854,26.198
					C146.48,163.44,137.175,167.295,127.278,167.295L127.278,167.295z"/>
			</g>
		</g>
	</g>
</g>
</svg>
