<?xml version="1.0" encoding="utf-8"?>
<!-- Generator: Adobe Illustrator 12.0.1, SVG Export Plug-In . SVG Version: 6.00 Build 51448)  -->
<!DOCTYPE svg PUBLIC "-//W3C//DTD SVG 1.1//EN" "http://www.w3.org/Graphics/SVG/1.1/DTD/svg11.dtd" [
	<!ENTITY ns_svg "http://www.w3.org/2000/svg">
	<!ENTITY ns_xlink "http://www.w3.org/1999/xlink">
]>
<svg  version="1.1" id="Layer_1" xmlns="&ns_svg;" xmlns:xlink="&ns_xlink;" width="297" height="303" viewBox="0 0 297 303"
	 overflow="visible" enable-background="new 0 0 297 303" xml:space="preserve">
<g>
	<path fill="#92DBFF" d="M29.645,81.22h236.631c-24.209-40.013-68.138-66.758-118.315-66.758
		C97.783,14.462,53.852,41.207,29.645,81.22z"/>
	<path fill="#45AFFF" d="M9.8,150.216h276.318c-0.4-23.103-6.465-44.825-16.874-63.835H26.674
		C16.266,105.391,10.201,127.113,9.8,150.216z"/>
	<path fill="#0683F4" d="M27.129,219.742h241.66c10.784-19.383,17.038-41.629,17.339-65.311H9.794
		C10.092,178.113,16.347,200.359,27.129,219.742z"/>
	<path fill="#154F91" d="M29.701,224.181c24.22,39.96,68.121,66.663,118.259,66.663c50.136,0,94.038-26.703,118.259-66.663H29.701z"
		/>
</g>
</svg>
