<?xml version="1.0" encoding="utf-8"?>
<!-- Generator: Adobe Illustrator 12.0.1, SVG Export Plug-In . SVG Version: 6.00 Build 51448)  -->
<!DOCTYPE svg PUBLIC "-//W3C//DTD SVG 1.1//EN" "http://www.w3.org/Graphics/SVG/1.1/DTD/svg11.dtd" [
	<!ENTITY ns_svg "http://www.w3.org/2000/svg">
	<!ENTITY ns_xlink "http://www.w3.org/1999/xlink">
]>
<svg  version="1.1" id="Layer_1" xmlns="&ns_svg;" xmlns:xlink="&ns_xlink;" width="208" height="122" viewBox="0 0 208 122"
	 overflow="visible" enable-background="new 0 0 208 122" xml:space="preserve">
<g>
	<g>
		<linearGradient id="XMLID_23_" gradientUnits="userSpaceOnUse" x1="9.5332" y1="85.3906" x2="109.3936" y2="85.3906">
			<stop  offset="0" style="stop-color:#CC0212"/>
			<stop  offset="1" style="stop-color:#FF5F06"/>
		</linearGradient>
		<polygon fill="url(#XMLID_23_)" points="30.07,57.787 9.533,76.44 9.721,112.994 90.74,112.994 109.394,93.775 109.394,58.166 		
			"/>
		<linearGradient id="XMLID_24_" gradientUnits="userSpaceOnUse" x1="84.6377" y1="112.2705" x2="8.8942" y2="73.8335">
			<stop  offset="0" style="stop-color:#CC0212"/>
			<stop  offset="1" style="stop-color:#FF5F06"/>
		</linearGradient>
		<polyline fill="url(#XMLID_24_)" points="9.721,76.817 90.74,76.817 90.74,112.994 10.098,112.994 		"/>
		<linearGradient id="XMLID_25_" gradientUnits="userSpaceOnUse" x1="108.502" y1="90.0479" x2="84.7614" y2="77.6123">
			<stop  offset="0" style="stop-color:#CC0212"/>
			<stop  offset="1" style="stop-color:#FF5F06"/>
		</linearGradient>
		<polygon fill="url(#XMLID_25_)" points="109.205,58.166 90.74,76.817 90.74,112.994 109.205,93.398 		"/>
		<linearGradient id="XMLID_26_" gradientUnits="userSpaceOnUse" x1="106.7305" y1="55.1797" x2="46.2488" y2="71.0067">
			<stop  offset="0" style="stop-color:#CC0212"/>
			<stop  offset="1" style="stop-color:#FF5F06"/>
		</linearGradient>
		<polygon fill="url(#XMLID_26_)" points="30.07,57.787 109.205,58.166 90.74,76.817 9.721,76.817 		"/>
		<polygon opacity="0.1" fill="#FFFFFF" points="10.946,75.593 90.082,75.404 107.039,57.882 109.205,58.166 91.211,76.724 
			9.721,76.817 		"/>
		<polygon opacity="0.1" fill="#FFFFFF" points="90.029,76.405 90.033,112.474 91.446,112.569 91.446,76.394 		"/>
	</g>
	<g>
		<polygon fill="#0D69C8" points="120.506,58.067 99.969,76.721 100.156,113.274 181.176,113.274 199.83,94.057 199.83,58.445 		"/>
		<linearGradient id="XMLID_27_" gradientUnits="userSpaceOnUse" x1="175.0732" y1="112.5508" x2="99.3305" y2="74.1142">
			<stop  offset="0" style="stop-color:#0D69C8"/>
			<stop  offset="1" style="stop-color:#0683F4"/>
		</linearGradient>
		<polyline fill="url(#XMLID_27_)" points="100.156,77.099 181.176,77.099 181.176,113.274 100.535,113.274 		"/>
		<linearGradient id="XMLID_28_" gradientUnits="userSpaceOnUse" x1="198.9385" y1="90.3276" x2="175.198" y2="77.8921">
			<stop  offset="0" style="stop-color:#0D69C8"/>
			<stop  offset="1" style="stop-color:#0683F4"/>
		</linearGradient>
		<polygon fill="url(#XMLID_28_)" points="199.642,58.445 181.176,77.099 181.176,113.274 199.642,93.679 		"/>
		<linearGradient id="XMLID_29_" gradientUnits="userSpaceOnUse" x1="197.167" y1="55.4609" x2="136.6847" y2="71.2881">
			<stop  offset="0" style="stop-color:#0683F4"/>
			<stop  offset="1" style="stop-color:#2CA5FF"/>
		</linearGradient>
		<polygon fill="url(#XMLID_29_)" points="120.506,58.067 199.642,58.445 181.176,77.099 100.156,77.099 		"/>
		<polygon opacity="0.1" fill="#FFFFFF" points="101.383,75.873 180.518,75.685 197.475,58.162 199.642,58.445 181.648,77.004 
			100.156,77.099 		"/>
		<polygon opacity="0.1" fill="#FFFFFF" points="180.465,76.686 180.47,112.755 181.883,112.851 181.883,76.675 		"/>
	</g>
	<g>
		<linearGradient id="XMLID_30_" gradientUnits="userSpaceOnUse" x1="9.0176" y1="38.1924" x2="108.8779" y2="38.1924">
			<stop  offset="0" style="stop-color:#FFC10E"/>
			<stop  offset="1" style="stop-color:#F16422"/>
		</linearGradient>
		<polygon fill="url(#XMLID_30_)" points="29.555,10.589 9.018,29.242 9.205,65.796 90.225,65.796 108.878,46.577 108.878,10.966 		
			"/>
		<linearGradient id="XMLID_31_" gradientUnits="userSpaceOnUse" x1="4.9888" y1="54.8774" x2="116.054" y2="37.0728">
			<stop  offset="0" style="stop-color:#FFC10E"/>
			<stop  offset="1" style="stop-color:#F16422"/>
		</linearGradient>
		<polyline fill="url(#XMLID_31_)" points="9.205,29.619 90.225,29.619 90.225,65.796 9.583,65.796 		"/>
		<linearGradient id="XMLID_32_" gradientUnits="userSpaceOnUse" x1="57.1743" y1="78.7642" x2="132.6319" y2="6.6981">
			<stop  offset="0" style="stop-color:#FFC10E"/>
			<stop  offset="1" style="stop-color:#F16422"/>
		</linearGradient>
		<polygon fill="url(#XMLID_32_)" points="108.689,10.966 90.225,29.619 90.225,65.796 108.689,46.199 		"/>
		<linearGradient id="XMLID_33_" gradientUnits="userSpaceOnUse" x1="9.9683" y1="25.9766" x2="154.0991" y2="9.0202">
			<stop  offset="0" style="stop-color:#FFC10E"/>
			<stop  offset="1" style="stop-color:#F16422"/>
		</linearGradient>
		<polygon fill="url(#XMLID_33_)" points="29.555,10.589 108.689,10.966 90.225,29.619 9.205,29.619 		"/>
		<polygon opacity="0.1" fill="#FFFFFF" points="10.432,28.396 89.566,28.206 106.523,10.683 108.689,10.966 90.696,29.525 
			9.205,29.619 		"/>
		<polygon opacity="0.1" fill="#FFFFFF" points="89.514,29.206 89.519,65.276 90.932,65.372 90.932,29.195 		"/>
	</g>
	<g>
		<linearGradient id="XMLID_34_" gradientUnits="userSpaceOnUse" x1="100.3008" y1="38.7603" x2="200.1621" y2="38.7603">
			<stop  offset="0" style="stop-color:#B0FF78"/>
			<stop  offset="1" style="stop-color:#00C400"/>
		</linearGradient>
		<polygon fill="url(#XMLID_34_)" points="120.838,11.157 100.301,29.811 100.488,66.363 181.509,66.363 200.162,47.145 
			200.162,11.534 		"/>
		<linearGradient id="XMLID_35_" gradientUnits="userSpaceOnUse" x1="175.4063" y1="65.6401" x2="99.6627" y2="27.2031">
			<stop  offset="0" style="stop-color:#00C109"/>
			<stop  offset="1" style="stop-color:#42EA42"/>
		</linearGradient>
		<polyline fill="url(#XMLID_35_)" points="100.488,30.188 181.509,30.188 181.509,66.363 100.867,66.363 		"/>
		<linearGradient id="XMLID_36_" gradientUnits="userSpaceOnUse" x1="199.2715" y1="43.417" x2="175.531" y2="30.9815">
			<stop  offset="0" style="stop-color:#00C109"/>
			<stop  offset="1" style="stop-color:#42EA42"/>
		</linearGradient>
		<polygon fill="url(#XMLID_36_)" points="199.974,11.534 181.509,30.188 181.509,66.363 199.974,46.769 		"/>
		<linearGradient id="XMLID_37_" gradientUnits="userSpaceOnUse" x1="197.4995" y1="8.5503" x2="137.0172" y2="24.3775">
			<stop  offset="0" style="stop-color:#00C109"/>
			<stop  offset="1" style="stop-color:#42EA42"/>
		</linearGradient>
		<polygon fill="url(#XMLID_37_)" points="120.839,11.157 199.974,11.534 181.509,30.188 100.488,30.188 		"/>
		<linearGradient id="XMLID_38_" gradientUnits="userSpaceOnUse" x1="100.4883" y1="20.7192" x2="199.9736" y2="20.7192">
			<stop  offset="0" style="stop-color:#B0FF78"/>
			<stop  offset="1" style="stop-color:#00C400"/>
		</linearGradient>
		<polygon opacity="0.1" fill="url(#XMLID_38_)" points="101.715,28.963 180.85,28.774 197.807,11.251 199.974,11.534 
			181.98,30.093 100.488,30.188 		"/>
		<polygon opacity="0.1" fill="#FFFFFF" points="180.797,29.774 180.802,65.845 182.215,65.939 182.215,29.764 		"/>
	</g>
</g>
</svg>
