<?xml version="1.0" encoding="utf-8"?>
<!-- Generator: Adobe Illustrator 12.0.1, SVG Export Plug-In . SVG Version: 6.00 Build 51448)  -->
<!DOCTYPE svg PUBLIC "-//W3C//DTD SVG 1.1//EN" "http://www.w3.org/Graphics/SVG/1.1/DTD/svg11.dtd" [
	<!ENTITY ns_svg "http://www.w3.org/2000/svg">
	<!ENTITY ns_xlink "http://www.w3.org/1999/xlink">
]>
<svg  version="1.1" id="Layer_1" xmlns="&ns_svg;" xmlns:xlink="&ns_xlink;" width="369.508" height="261.492"
	 viewBox="0 0 369.508 261.492" overflow="visible" enable-background="new 0 0 369.508 261.492" xml:space="preserve">
<path fill="#92DBFF" d="M117.189,72.432h13.128V46.906c0-3.184-2.581-5.763-5.765-5.763H95.354V26.851
	c0-1.415-1.146-2.559-2.557-2.559H79.442c-1.412,0-2.557,1.145-2.557,2.559v14.292H47.686c-3.182,0-5.765,2.579-5.765,5.763v29.278
	h-13.59c-1.411,0-2.557,1.146-2.557,2.56v13.354c0,1.412,1.146,2.557,2.557,2.557h13.59v29.119c0,3.181,2.583,5.764,5.765,5.764
	h25.448v-12.762c0-1.986,1.61-3.596,3.598-3.596h18.777c1.986,0,3.597,1.609,3.597,3.596v12.762h25.447
	c3.184,0,5.765-2.583,5.765-5.764V98.406h-13.128c-1.984,0-3.596-1.611-3.596-3.598V76.03
	C113.593,74.042,115.205,72.432,117.189,72.432z"/>
<path fill="#45AFFF" d="M167.173,54.563V41.436h-25.526c-3.184,0-5.765,2.582-5.765,5.766v29.197h-13.795
	c-1.413,0-2.559,1.147-2.559,2.559v13.353c0,1.415,1.146,2.559,2.559,2.559h13.795v29.199c0,3.182,2.582,5.765,5.765,5.765h29.277
	v13.59c0,1.411,1.146,2.557,2.557,2.557h13.355c1.413,0,2.557-1.146,2.557-2.557v-13.59h29.121c3.184,0,5.764-2.583,5.764-5.765
	v-25.45h-12.762c-1.986,0-3.598-1.607-3.598-3.593V76.247c0-1.987,1.611-3.598,3.598-3.598h12.762V47.202
	c0-3.184-2.58-5.766-5.764-5.766h-25.369v13.127c0,1.986-1.61,3.597-3.595,3.597h-18.779
	C168.784,58.16,167.173,56.549,167.173,54.563z"/>
<path fill="#0054A5" d="M242.641,192.724h-13.129v25.526c0,3.183,2.584,5.765,5.766,5.765h29.199v13.797
	c0,1.412,1.145,2.559,2.559,2.559h13.354c1.412,0,2.558-1.146,2.558-2.559v-13.797h29.196c3.185,0,5.768-2.582,5.768-5.765v-29.277
	h13.588c1.413,0,2.559-1.147,2.559-2.559V173.06c0-1.412-1.146-2.556-2.559-2.556h-13.588v-29.119c0-3.186-2.583-5.765-5.768-5.765
	H286.7v12.762c0,1.983-1.614,3.597-3.6,3.597h-18.777c-1.987,0-3.598-1.613-3.598-3.597V135.62h-25.448
	c-3.182,0-5.766,2.579-5.766,5.765v25.366h13.129c1.986,0,3.597,1.61,3.597,3.597v18.78
	C246.237,191.114,244.627,192.724,242.641,192.724z"/>
<path fill="#0683F4" d="M193.157,148.833v-13.126h25.528c3.182,0,5.765,2.581,5.765,5.766v29.198h13.793
	c1.414,0,2.561,1.146,2.561,2.557v13.356c0,1.409-1.146,2.558-2.561,2.558H224.45v29.196c0,3.185-2.583,5.766-5.765,5.766h-29.278
	v13.59c0,1.412-1.146,2.559-2.559,2.559h-13.354c-1.412,0-2.558-1.146-2.558-2.559v-13.59h-29.118c-3.184,0-5.766-2.581-5.766-5.766
	v-25.447h12.762c1.987,0,3.597-1.608,3.597-3.597v-18.776c0-1.986-1.61-3.598-3.597-3.598h-12.762v-25.447
	c0-3.185,2.582-5.766,5.766-5.766h25.367v13.126c0,1.988,1.61,3.598,3.597,3.598h18.778
	C191.547,152.431,193.157,150.821,193.157,148.833z"/>
</svg>
