<?xml version="1.0" encoding="utf-8"?>
<!-- Generator: Adobe Illustrator 12.0.1, SVG Export Plug-In . SVG Version: 6.00 Build 51448)  -->
<!DOCTYPE svg PUBLIC "-//W3C//DTD SVG 1.1//EN" "http://www.w3.org/Graphics/SVG/1.1/DTD/svg11.dtd" [
	<!ENTITY ns_svg "http://www.w3.org/2000/svg">
	<!ENTITY ns_xlink "http://www.w3.org/1999/xlink">
]>
<svg  version="1.1" id="Layer_1" xmlns="&ns_svg;" xmlns:xlink="&ns_xlink;" width="352.667" height="359.333"
	 viewBox="0 0 352.667 359.333" overflow="visible" enable-background="new 0 0 352.667 359.333" xml:space="preserve">
<g>
	<g>
		<linearGradient id="XMLID_19_" gradientUnits="userSpaceOnUse" x1="91.6172" y1="250.2695" x2="65.6221" y2="335.3455">
			<stop  offset="0" style="stop-color:#0D69C8"/>
			<stop  offset="1" style="stop-color:#1B3962"/>
		</linearGradient>
		<polygon fill="url(#XMLID_19_)" points="12.453,348.539 153.334,348.539 154.03,214.422 10.827,214.422 		"/>
		<linearGradient id="XMLID_20_" gradientUnits="userSpaceOnUse" x1="10.8267" y1="197.3369" x2="180.2529" y2="197.3369">
			<stop  offset="0.0053" style="stop-color:#4084C1"/>
			<stop  offset="1" style="stop-color:#B0CCE5"/>
		</linearGradient>
		<polygon fill="url(#XMLID_20_)" points="10.827,214.422 180.253,180.251 154.03,214.422 		"/>
		<linearGradient id="XMLID_21_" gradientUnits="userSpaceOnUse" x1="153.334" y1="264.3955" x2="180.2529" y2="264.3955">
			<stop  offset="0.0053" style="stop-color:#4084C1"/>
			<stop  offset="1" style="stop-color:#B0CCE5"/>
		</linearGradient>
		<polygon fill="url(#XMLID_21_)" points="153.334,348.539 180.253,180.251 154.03,214.422 		"/>
		<polygon fill="#9ACEE2" points="178.937,179.06 152.466,214.422 153.904,214.422 153.921,221.134 153.928,216.49 180.911,179.277 
					"/>
	</g>
	<g>
		<linearGradient id="XMLID_22_" gradientUnits="userSpaceOnUse" x1="194.7852" y1="261.208" x2="306.2995" y2="289.2613">
			<stop  offset="0" style="stop-color:#0D69C8"/>
			<stop  offset="1" style="stop-color:#1B3962"/>
		</linearGradient>
		<polygon fill="url(#XMLID_22_)" points="204.119,348.539 344.997,348.539 346.624,214.422 203.421,214.422 		"/>
		<linearGradient id="XMLID_23_" gradientUnits="userSpaceOnUse" x1="180.2529" y1="197.3369" x2="346.624" y2="197.3369">
			<stop  offset="0.0053" style="stop-color:#4084C1"/>
			<stop  offset="1" style="stop-color:#B0CCE5"/>
		</linearGradient>
		<polygon fill="url(#XMLID_23_)" points="346.624,214.422 203.421,214.422 180.253,180.251 		"/>
		<linearGradient id="XMLID_24_" gradientUnits="userSpaceOnUse" x1="180.2529" y1="264.3955" x2="204.1191" y2="264.3955">
			<stop  offset="0.0053" style="stop-color:#4084C1"/>
			<stop  offset="1" style="stop-color:#B0CCE5"/>
		</linearGradient>
		<polygon fill="url(#XMLID_24_)" points="204.119,348.539 180.253,180.251 203.421,214.422 		"/>
		<polygon fill="#9ACEE2" points="203.499,214.422 204.736,214.422 181.503,179.729 179.528,179.908 203.477,217.822 
			203.558,222.463 		"/>
	</g>
	<g>
		
			<linearGradient id="XMLID_25_" gradientUnits="userSpaceOnUse" x1="91.6172" y1="-1146.4604" x2="65.6221" y2="-1061.3845" gradientTransform="matrix(1 0 0 -1 0 -1035.582)">
			<stop  offset="0" style="stop-color:#0D69C8"/>
			<stop  offset="1" style="stop-color:#1B3962"/>
		</linearGradient>
		<polygon fill="url(#XMLID_25_)" points="12.453,12.608 153.334,12.608 154.03,146.726 10.827,146.726 		"/>
		
			<linearGradient id="XMLID_26_" gradientUnits="userSpaceOnUse" x1="10.8267" y1="-1199.3945" x2="180.2529" y2="-1199.3945" gradientTransform="matrix(1 0 0 -1 0 -1035.582)">
			<stop  offset="0.0053" style="stop-color:#4084C1"/>
			<stop  offset="1" style="stop-color:#B0CCE5"/>
		</linearGradient>
		<polygon fill="url(#XMLID_26_)" points="10.827,146.726 180.253,180.899 154.03,146.726 		"/>
		
			<linearGradient id="XMLID_27_" gradientUnits="userSpaceOnUse" x1="153.334" y1="-1132.3359" x2="180.2529" y2="-1132.3359" gradientTransform="matrix(1 0 0 -1 0 -1035.582)">
			<stop  offset="0.0053" style="stop-color:#4084C1"/>
			<stop  offset="1" style="stop-color:#B0CCE5"/>
		</linearGradient>
		<polygon fill="url(#XMLID_27_)" points="153.334,12.608 180.253,180.899 154.03,146.726 		"/>
		<polygon fill="#9ACEE2" points="178.937,182.087 152.466,146.726 153.904,146.726 153.921,140.014 153.928,144.66 180.911,181.87 
					"/>
	</g>
	<g>
		
			<linearGradient id="XMLID_28_" gradientUnits="userSpaceOnUse" x1="194.7852" y1="-1135.522" x2="306.2995" y2="-1107.4686" gradientTransform="matrix(1 0 0 -1 0 -1035.582)">
			<stop  offset="0" style="stop-color:#0D69C8"/>
			<stop  offset="1" style="stop-color:#1B3962"/>
		</linearGradient>
		<polygon fill="url(#XMLID_28_)" points="204.119,12.608 344.997,12.608 346.624,146.726 203.421,146.726 		"/>
		
			<linearGradient id="XMLID_29_" gradientUnits="userSpaceOnUse" x1="180.2529" y1="-1199.3945" x2="346.624" y2="-1199.3945" gradientTransform="matrix(1 0 0 -1 0 -1035.582)">
			<stop  offset="0.0053" style="stop-color:#4084C1"/>
			<stop  offset="1" style="stop-color:#B0CCE5"/>
		</linearGradient>
		<polygon fill="url(#XMLID_29_)" points="346.624,146.726 203.421,146.726 180.253,180.899 		"/>
		
			<linearGradient id="XMLID_30_" gradientUnits="userSpaceOnUse" x1="180.2529" y1="-1132.3359" x2="204.1191" y2="-1132.3359" gradientTransform="matrix(1 0 0 -1 0 -1035.582)">
			<stop  offset="0.0053" style="stop-color:#4084C1"/>
			<stop  offset="1" style="stop-color:#B0CCE5"/>
		</linearGradient>
		<polygon fill="url(#XMLID_30_)" points="204.119,12.608 180.253,180.899 203.421,146.726 		"/>
		<polygon fill="#9ACEE2" points="203.499,146.726 204.736,146.726 181.503,181.419 179.528,181.237 203.477,143.328 
			203.558,138.685 		"/>
	</g>
</g>
</svg>
