<?xml version="1.0" encoding="utf-8"?>
<!-- Generator: Adobe Illustrator 12.0.1, SVG Export Plug-In . SVG Version: 6.00 Build 51448)  -->
<!DOCTYPE svg PUBLIC "-//W3C//DTD SVG 1.1//EN" "http://www.w3.org/Graphics/SVG/1.1/DTD/svg11.dtd" [
	<!ENTITY ns_svg "http://www.w3.org/2000/svg">
	<!ENTITY ns_xlink "http://www.w3.org/1999/xlink">
]>
<svg  version="1.1" id="Layer_1" xmlns="&ns_svg;" xmlns:xlink="&ns_xlink;" width="224.667" height="181.333"
	 viewBox="0 0 224.667 181.333" overflow="visible" enable-background="new 0 0 224.667 181.333" xml:space="preserve">
<g>
	<g>
		<polygon fill="#0D69C8" points="37.428,111.568 16.892,130.22 17.08,166.774 98.099,166.774 116.752,147.556 116.752,111.945 		
			"/>
		<linearGradient id="XMLID_19_" gradientUnits="userSpaceOnUse" x1="91.9961" y1="166.0503" x2="16.2534" y2="127.6137">
			<stop  offset="0" style="stop-color:#1B3962"/>
			<stop  offset="1" style="stop-color:#0D69C8"/>
		</linearGradient>
		<polyline fill="url(#XMLID_19_)" points="17.08,130.597 98.099,130.597 98.099,166.774 17.457,166.774 		"/>
		<linearGradient id="XMLID_20_" gradientUnits="userSpaceOnUse" x1="115.8613" y1="143.8276" x2="92.1199" y2="131.3916">
			<stop  offset="0" style="stop-color:#1B3962"/>
			<stop  offset="1" style="stop-color:#0D69C8"/>
		</linearGradient>
		<polygon fill="url(#XMLID_20_)" points="116.564,111.945 98.099,130.597 98.099,166.774 116.564,147.179 		"/>
		<linearGradient id="XMLID_21_" gradientUnits="userSpaceOnUse" x1="146.8413" y1="93.9248" x2="34.9217" y2="132.3618">
			<stop  offset="0" style="stop-color:#1B3962"/>
			<stop  offset="1" style="stop-color:#0D69C8"/>
		</linearGradient>
		<polygon fill="url(#XMLID_21_)" points="37.429,111.568 116.564,111.945 98.099,130.597 17.08,130.597 		"/>
		<polygon opacity="0.1" fill="#FFFFFF" points="18.305,129.374 97.44,129.185 114.398,111.661 116.564,111.945 98.571,130.503 
			17.08,130.597 		"/>
		<polygon opacity="0.1" fill="#FFFFFF" points="97.387,130.185 97.392,166.255 98.806,166.351 98.806,130.173 		"/>
	</g>
	<g>
		<polygon fill="#0077E2" points="37.428,65.216 16.892,83.87 17.08,120.423 98.099,120.423 116.752,101.206 116.752,65.594 		"/>
		<linearGradient id="XMLID_22_" gradientUnits="userSpaceOnUse" x1="91.9961" y1="119.7002" x2="16.2534" y2="81.2636">
			<stop  offset="0" style="stop-color:#0D69C8"/>
			<stop  offset="1" style="stop-color:#0683F4"/>
		</linearGradient>
		<polyline fill="url(#XMLID_22_)" points="17.08,84.248 98.099,84.248 98.099,120.423 17.457,120.423 		"/>
		<linearGradient id="XMLID_23_" gradientUnits="userSpaceOnUse" x1="115.8613" y1="97.4771" x2="92.1208" y2="85.0415">
			<stop  offset="0" style="stop-color:#0D69C8"/>
			<stop  offset="1" style="stop-color:#0683F4"/>
		</linearGradient>
		<polygon fill="url(#XMLID_23_)" points="116.564,65.594 98.099,84.248 98.099,120.423 116.564,100.828 		"/>
		<linearGradient id="XMLID_24_" gradientUnits="userSpaceOnUse" x1="114.0898" y1="62.6104" x2="53.6082" y2="78.4374">
			<stop  offset="0" style="stop-color:#0683F4"/>
			<stop  offset="1" style="stop-color:#2CA5FF"/>
		</linearGradient>
		<polygon fill="url(#XMLID_24_)" points="37.429,65.216 116.564,65.594 98.099,84.248 17.08,84.248 		"/>
		<polygon opacity="0.1" fill="#FFFFFF" points="18.305,83.023 97.44,82.834 114.398,65.311 116.564,65.594 98.571,84.153 
			17.08,84.248 		"/>
		<polygon opacity="0.1" fill="#FFFFFF" points="97.387,83.834 97.392,119.904 98.806,120 98.806,83.823 		"/>
	</g>
	<g>
		<polygon fill="#5AC0FF" points="37.428,18.867 16.892,37.52 17.08,74.073 98.099,74.073 116.752,54.854 116.752,19.244 		"/>
		<linearGradient id="XMLID_25_" gradientUnits="userSpaceOnUse" x1="91.9961" y1="73.3486" x2="16.2534" y2="34.912">
			<stop  offset="0" style="stop-color:#5AC0FF"/>
			<stop  offset="1" style="stop-color:#92DBFF"/>
		</linearGradient>
		<polyline fill="url(#XMLID_25_)" points="17.08,37.896 98.099,37.896 98.099,74.073 17.457,74.073 		"/>
		<linearGradient id="XMLID_26_" gradientUnits="userSpaceOnUse" x1="115.8613" y1="51.1265" x2="92.1208" y2="38.6909">
			<stop  offset="0" style="stop-color:#5AC0FF"/>
			<stop  offset="1" style="stop-color:#92DBFF"/>
		</linearGradient>
		<polygon fill="url(#XMLID_26_)" points="116.564,19.244 98.099,37.896 98.099,74.073 116.564,54.478 		"/>
		<linearGradient id="XMLID_27_" gradientUnits="userSpaceOnUse" x1="114.0894" y1="16.2588" x2="53.608" y2="32.0857">
			<stop  offset="0" style="stop-color:#5AC0FF"/>
			<stop  offset="1" style="stop-color:#92DBFF"/>
		</linearGradient>
		<polygon fill="url(#XMLID_27_)" points="37.429,18.867 116.564,19.244 98.099,37.896 17.08,37.896 		"/>
		<polygon opacity="0.1" fill="#FFFFFF" points="18.305,36.672 97.44,36.484 114.398,18.96 116.564,19.244 98.571,37.802 
			17.08,37.896 		"/>
		<polygon opacity="0.1" fill="#FFFFFF" points="97.387,37.485 97.392,73.554 98.806,73.649 98.806,37.472 		"/>
	</g>
	<g>
		<polygon fill="#0D69C8" points="129.001,111.001 108.464,129.656 108.652,166.208 189.671,166.208 208.325,146.99 
			208.325,111.379 		"/>
		<linearGradient id="XMLID_28_" gradientUnits="userSpaceOnUse" x1="183.5688" y1="165.4858" x2="107.8253" y2="127.0488">
			<stop  offset="0" style="stop-color:#1B3962"/>
			<stop  offset="1" style="stop-color:#0D69C8"/>
		</linearGradient>
		<polyline fill="url(#XMLID_28_)" points="108.652,130.033 189.671,130.033 189.671,166.208 109.029,166.208 		"/>
		<linearGradient id="XMLID_29_" gradientUnits="userSpaceOnUse" x1="207.4326" y1="143.2622" x2="183.694" y2="130.8277">
			<stop  offset="0" style="stop-color:#1B3962"/>
			<stop  offset="1" style="stop-color:#0D69C8"/>
		</linearGradient>
		<polygon fill="url(#XMLID_29_)" points="208.136,111.379 189.671,130.033 189.671,166.208 208.136,146.613 		"/>
		<linearGradient id="XMLID_30_" gradientUnits="userSpaceOnUse" x1="238.4131" y1="93.3594" x2="126.494" y2="131.7962">
			<stop  offset="0" style="stop-color:#1B3962"/>
			<stop  offset="1" style="stop-color:#0D69C8"/>
		</linearGradient>
		<polygon fill="url(#XMLID_30_)" points="129.001,111.001 208.136,111.379 189.671,130.033 108.652,130.033 		"/>
		<polygon opacity="0.1" fill="#FFFFFF" points="109.876,128.808 189.012,128.619 205.97,111.096 208.136,111.379 190.142,129.938 
			108.652,130.033 		"/>
		<polygon opacity="0.1" fill="#FFFFFF" points="188.959,129.62 188.964,165.69 190.378,165.785 190.378,129.608 		"/>
	</g>
	<g>
		<polygon fill="#0077E2" points="129.001,64.652 108.464,83.305 108.652,119.858 189.671,119.858 208.325,100.639 208.325,65.029 
					"/>
		<linearGradient id="XMLID_31_" gradientUnits="userSpaceOnUse" x1="183.5693" y1="119.1348" x2="107.8258" y2="80.6978">
			<stop  offset="0" style="stop-color:#0D69C8"/>
			<stop  offset="1" style="stop-color:#0683F4"/>
		</linearGradient>
		<polyline fill="url(#XMLID_31_)" points="108.652,83.681 189.671,83.681 189.671,119.858 109.029,119.858 		"/>
		<linearGradient id="XMLID_32_" gradientUnits="userSpaceOnUse" x1="207.4326" y1="96.9111" x2="183.6931" y2="84.4761">
			<stop  offset="0" style="stop-color:#0D69C8"/>
			<stop  offset="1" style="stop-color:#0683F4"/>
		</linearGradient>
		<polygon fill="url(#XMLID_32_)" points="208.136,65.029 189.671,83.681 189.671,119.858 208.136,100.262 		"/>
		<linearGradient id="XMLID_33_" gradientUnits="userSpaceOnUse" x1="205.6611" y1="62.0444" x2="145.1797" y2="77.8714">
			<stop  offset="0" style="stop-color:#0683F4"/>
			<stop  offset="1" style="stop-color:#2CA5FF"/>
		</linearGradient>
		<polygon fill="url(#XMLID_33_)" points="129.001,64.652 208.136,65.029 189.671,83.681 108.652,83.681 		"/>
		<polygon opacity="0.1" fill="#FFFFFF" points="109.876,82.458 189.012,82.269 205.97,64.746 208.136,65.029 190.142,83.587 
			108.652,83.681 		"/>
		<polygon opacity="0.1" fill="#FFFFFF" points="188.959,83.269 188.964,119.339 190.378,119.435 190.378,83.258 		"/>
	</g>
	<g>
		<polygon fill="#5AC0FF" points="129.001,18.867 108.464,37.52 108.652,74.073 189.671,74.073 208.325,54.854 208.325,19.244 		"/>
		<linearGradient id="XMLID_34_" gradientUnits="userSpaceOnUse" x1="183.5688" y1="73.3491" x2="107.8253" y2="34.9121">
			<stop  offset="0" style="stop-color:#5AC0FF"/>
			<stop  offset="1" style="stop-color:#92DBFF"/>
		</linearGradient>
		<polyline fill="url(#XMLID_34_)" points="108.652,37.896 189.671,37.896 189.671,74.073 109.029,74.073 		"/>
		<linearGradient id="XMLID_35_" gradientUnits="userSpaceOnUse" x1="207.4336" y1="51.126" x2="183.6931" y2="38.6905">
			<stop  offset="0" style="stop-color:#5AC0FF"/>
			<stop  offset="1" style="stop-color:#92DBFF"/>
		</linearGradient>
		<polygon fill="url(#XMLID_35_)" points="208.136,19.244 189.671,37.896 189.671,74.073 208.136,54.478 		"/>
		<linearGradient id="XMLID_36_" gradientUnits="userSpaceOnUse" x1="205.6621" y1="16.2603" x2="145.1807" y2="32.0872">
			<stop  offset="0" style="stop-color:#5AC0FF"/>
			<stop  offset="1" style="stop-color:#92DBFF"/>
		</linearGradient>
		<polygon fill="url(#XMLID_36_)" points="129.001,18.867 208.136,19.244 189.671,37.896 108.652,37.896 		"/>
		<polygon opacity="0.1" fill="#FFFFFF" points="109.876,36.672 189.012,36.484 205.97,18.96 208.136,19.244 190.142,37.802 
			108.652,37.896 		"/>
		<polygon opacity="0.1" fill="#FFFFFF" points="188.959,37.485 188.964,73.554 190.378,73.649 190.378,37.472 		"/>
	</g>
</g>
</svg>
