<svg viewBox="0 0 24 24" xmlns="http://www.w3.org/2000/svg"><g fill="#3a3a38" transform="translate(24)"><rect height="1" ry=".5" width="14.999998" x="-22" y="2"/><rect height="1" ry=".392136" width="15.000005" x="-22" y="10"/><g transform="scale(-1 1)"><path d="m7.4355469 18c-.2417883 0-.4355469.193759-.4355469.435547v.128906c0 .241788.1937586.435547.4355469.435547h4.5644531v-1z"/><path d="m7.5 21c-.277 0-.5.223-.5.5s.223.5.5.5h6.015625l-.464844-.464844a1.0001 1.0001 0 0 1 -.277343-.535156z"/><path d="m7.5 13c-.277 0-.5.223-.5.5s.223.5.5.5h6.015625l.242187-.242188.707032-.707031a1.0001 1.0001 0 0 1 .054687-.050781z"/></g><rect height="1" ry=".5" width="9.000002" x="-16" y="5"/></g><path d="m7 13 .349609 1.744141 1.478516-.986329.707031.707032.707032.707031-.986329 1.478516 1.744141.349609v1 1l-1.744141.349609.986329 1.478516-.707032.707031-.707031.707032-1.478516-.986329-.349609 1.744141h-1-1l-.349609-1.744141-1.478516.986329-.707031-.707032-.707032-.707031.986329-1.478516-1.744141-.349609v-1-1l1.744141-.349609-.986329-1.478516.707032-.707031.707031-.707032 1.478516.986329.349609-1.744141h1zm-.800781 1h-.398438l-.300781 1.5h-.535156l-.378906.378906-1.273438-.847656-.28125.28125.847656 1.273438-.378906.378906v.535156l-1.5.300781v.398438l1.5.300781v.535156l.378906.378906-.847656 1.273438.28125.28125 1.273438-.847656.378906.378906h.535156l.300781 1.5h.398438l.300781-1.5h.535156l.378906-.378906 1.273438.847656.28125-.28125-.847656-1.273438.378906-.378906v-.535156l1.5-.300781v-.398438l-1.5-.300781v-.535156l-.378906-.378906.847656-1.273438-.28125-.28125-1.273438.847656-.378906-.378906h-.535156zm-.199219 2a2 2 0 0 1 2 2 2 2 0 0 1 -2 2 2 2 0 0 1 -2-2 2 2 0 0 1 2-2zm0 1a1 1 0 0 0 -1 1 1 1 0 0 0 1 1 1 1 0 0 0 1-1 1 1 0 0 0 -1-1z" fill="#1e8bcd"/><path d="m6.199219 14h-.398438l-.300781 1.5h-.535156l-.378906.378906-1.273438-.847656-.28125.28125.847656 1.273438-.378906.378906v.535156l-1.5.300781v.398438l1.5.300781v.535156l.378906.378906-.847656 1.273438.28125.28125 1.273438-.847656.378906.378906h.535156l.300781 1.5h.398438l.300781-1.5h.535156l.378906-.378906 1.273438.847656.28125-.28125-.847656-1.273438.378906-.378906v-.535156l1.5-.300781v-.398438l-1.5-.300781v-.535156l-.378906-.378906.847656-1.273438-.28125-.28125-1.273438.847656-.378906-.378906h-.535156zm-.199219 2c1.104569 0 2 .895431 2 2s-.895431 2-2 2-2-.895431-2-2 .895431-2 2-2z" fill="#fafafa"/><g fill="#1e8bcd" transform="matrix(-1 0 0 1 40.136242 .082299)"><path d="m21.142809 7.4177009h-1.242161v-4.0358857q0-.1774515-.01365-.3685532l1.014659.8918078q.109201.091001.213852.063701.100101-.03185.141051-.091001l.241153-.3321531-1.742666-1.5424637h-.618805v5.4145479h-1.13751v.5824052h3.144077z"/><path d="m19.850598 9.9531033q-.377653 0-.700706.1137507-.323053.113751-.559655.327603-.236602.213852-.368553.523255-.136502.309403-.136502.705256 0 .332153.100101.618806.09555.282102.263903.541454.163801.259353.382203.509605.218402.245702.459554.495954l1.533364 1.597064q-.172902-.05005-.345803-.07735-.177452-.0273-.336703-.0273h-1.897367q-.122851 0-.195652.0728-.0728.06825-.0728.186552v.459554h3.908485v-.259352q0-.07735-.03185-.163802-.03185-.091-.109201-.163801l-1.851867-1.911017q-.236602-.241152-.423153-.464104-.191102-.222952-.323053-.445904-.131951-.227502-.204752-.459554-.0728-.232052-.0728-.491405 0-.259352.0819-.455004.07735-.195651.213852-.323053.136501-.131951.323053-.195651.186552-.0637.404953-.0637.213852 0 .395854.06825.182001.0637.323053.182001.141051.113751.241152.277553.100101.159251.145601.350353.0364.154701.127401.204752.08645.0455.245702.02275l.395854-.0637q-.054601-.414053-.218403-.728006-.168352-.318503-.418604-.532355-.250252-.213852-.573305-.323053-.327603-.1092017-.705256-.1092017z"/><path d="m19.777797 17.953103q-.377653 0-.691606.109201-.313953.109201-.541455.309403-.227502.200202-.350353.482304-.127401.282103-.127401.627906 0 .286652.0728.509604.06825.222952.200202.391304.131951.168351.318503.286652.186551.113751.418604.186552-.568755.154701-.855408.518705-.286653.359453-.286653.905458 0 .414053.154702.746206.154701.327603.423154.559655.263902.232052.618805.354903.354903.122851.755307.122851.464104 0 .791707-.113751.327602-.118301.559654-.327603.232052-.209301.382204-.491404.150151-.282102.250252-.618805l-.327603-.141052q-.131951-.0546-.250252-.03185-.122851.02275-.177452.136501-.0546.118301-.131951.282103-.0819.159251-.218402.309403-.136501.145601-.345803.250252-.209302.100101-.523255.100101-.300302 0-.523254-.100101-.222952-.104651-.373103-.263903-.150152-.159251-.222953-.359453-.07735-.200202-.07735-.391303 0-.236602.05915-.436804.05915-.204752.222952-.345803.163802-.145601.455004-.227502.286653-.0819.741657-.0819v-.550555q-.373103-.0046-.632456-.0819-.259352-.0819-.423153-.218402-.163802-.136502-.236602-.327603-.0728-.191102-.0728-.418604 0-.254802.07735-.441354.0728-.191103.209301-.318504.131952-.127401.318503-.186551.182002-.0637.400404-.0637.218402 0 .400403.06825.177452.0637.318503.182001.141051.113751.241152.277553.09555.159251.145601.350353.0364.154701.127402.204752.08645.0455.245702.02275l.400403-.0637q-.05915-.414053-.222952-.728006-.163801-.318503-.414053-.532355-.254802-.213852-.577855-.323053-.327603-.109201-.705257-.109202z"/></g></svg>