<svg height="24" viewBox="0 0 6.3499998 6.3500002" width="24" xmlns="http://www.w3.org/2000/svg"><g transform="translate(0 -290.64998)"><path d="m5.0270834 293.29581h.2645833v-1.1705c0-.0358.00138-.073.00413-.11148l-.306903.26974c-.02202.0183-.043581.0247-.064684.0192-.020185-.006-.034406-.0152-.042664-.0275l-.072941-.10052.5271024-.46655.2205432.00011v1.5875h.2645834v.2645l-.79375-.00011z" fill="#1e8bcd"/><g stroke-width=".264583"><path d="m.79375 291.44373v4.7625h3.7041667v-3.77576l-1.0583333-.98674z" fill="#fafafa"/><path d="m.79375 291.17915c-.1465792 0-.2645833.118-.2645833.26458v4.7625c0 .14658.1180041.26459.2645833.26459h3.7041667c.1465792 0 .2645834-.11801.2645834-.26459v-2.67477-.96341-.055c0-.11924.026159-.11287-.1599769-.28246l-.87508-.85647c-.1877285-.19497-.1881778-.19497-.2896669-.19497h-.0877245-.1750517zm0 .26458h2.3812501v1.05834c0 .14658.1180041.26458.2645833.26458h1.0583333v3.43958h-3.7041667z" fill="#3a3a38"/><path d="m3.4395834 292.50207h1.0583333l-1.0583333-1.05834z" fill="#fff" fill-rule="evenodd"/><path d="m3.4395834 291.44373 1.0583333 1.05834h-1.0583333z" fill="#fafafa"/><rect fill="#1e8bcd" height=".529167" ry=".132292" width="1.581348" x="1.322917" y="292.50208"/><rect fill="#797774" height=".264583" ry=".129913" transform="scale(-1 1)" width="2.645834" x="-3.962598" y="293.82498"/><rect fill="#797774" height=".264583" ry=".122779" transform="scale(-1 1)" width="2.645833" x="-3.962598" y="294.61874"/><rect fill="#797774" height=".264583" ry=".129913" transform="scale(-1 1)" width="2.645833" x="-3.962598" y="295.41248"/></g></g></svg>