<svg viewBox="0 0 24 24" xmlns="http://www.w3.org/2000/svg"><path d="m2.5 2c-.277 0-.5.223-.5.5s.223.5.5.5h14c.277 0 .5-.223.5-.5s-.223-.5-.5-.5zm6 3c-.277 0-.5.223-.5.5s.223.5.5.5h8c.277 0 .5-.223.5-.5s-.223-.5-.5-.5zm-6.1074219 5c-.2172433 0-.3925781.175335-.3925781.392578v.214844c0 .217243.1753348.392578.3925781.392578h14.2148439c.217243 0 .392578-.175335.392578-.392578v-.214844c0-.217243-.175335-.392578-.392578-.392578zm6.1074219 3c-.277 0-.5.223-.5.5s.223.5.5.5h8c.277 0 .5-.223.5-.5s-.223-.5-.5-.5zm-6.0644531 5c-.2417883 0-.4355469.193759-.4355469.435547v.128906c0 .241788.1937586.435547.4355469.435547h14.1289061c.241788 0 .435547-.193759.435547-.435547v-.128906c0-.241788-.193759-.435547-.435547-.435547zm6.0644531 3c-.277 0-.5.223-.5.5s.223.5.5.5h8c.277 0 .5-.223.5-.5s-.223-.5-.5-.5z" fill="#3a3a38"/><path d="m19.9375 2-1.9375 1.5605469.369141.46875c.01941.024061.046431.0482056.082031.0722656.038838.021053.082319.0359019.130859.0449219.048544.00902.10123.00902.15625 0 .055016-.009023.109043-.0340669.164063-.0761719l.839844-.671875c-.00976.150376-.013672.2952478-.013672.4335937v3.1679688h-1.248047v1h3.519531v-1h-1v-5zm.152344 8c-.258352 0-.500876.036868-.726563.111328-.225686.071482-.426361.180233-.601562.326172-.172235.142964-.315828.323593-.431641.541016-.115809.214446-.195688.466954-.240234.755859l.570312.097656c.142539.023827.253807.01435.333985-.027343.083147-.041699.147799-.130573.195312-.267579.026729-.089352.064754-.172561.115235-.25.050482-.077442.112324-.144585.183593-.201171.07127-.056586.151147-.101999.240235-.134766.089086-.032767.186064-.048828.292968-.048828.249444 0 .443479.070952.580078.210937.1366.139985.205079.34708.205079.621094 0 .151899-.019987.297515-.058594.4375-.038605.137007-.09662.27315-.173828.410156-.074239.134028-.166454.269244-.279297.40625-.109874.137007-.239257.281695-.384766.433594l-1.71875 1.773437c-.071272.068504-.120697.144193-.15039.22461-.026727.077439-.041016.150247-.041016.21875v.361328h4v-.642578c0-.107222-.036153-.194244-.107422-.259766-.0683-.065526-.158641-.097656-.271484-.097656h-1.339844c-.115813 0-.24137.01133-.375.035156-.133631.020854-.266761.052057-.400391.09375l1.25586-1.318359c.154416-.160834.301837-.32066.441406-.478516.13957-.160834.2613-.323443.365234-.490234.103936-.169769.185687-.346589.248047-.53125.06236-.187639.09375-.389998.09375-.607422 0-.253165-.043725-.484871-.132812-.693359-.086117-.211467-.208784-.392095-.369141-.541016-.157387-.148921-.350485-.263333-.576172-.34375-.222717-.083395-.468988-.125-.742187-.125z" fill="#1e8bcd"/></svg>