<svg viewBox="0 0 16 16" xmlns="http://www.w3.org/2000/svg"><path d="m8.5 2c.277 0 .5.223.5.5s-.223.5-.5.5h-8c-.277 0-.5-.223-.5-.5s.223-.5.5-.5zm0 3c.277 0 .5.223.5.5s-.223.5-.5.5h-4.400391c-.277 0-.5-.223-.5-.5s.223-.5.5-.5zm0 5c.277 0 .5.223.5.5s-.223.5-.5.5h-8c-.277 0-.5-.223-.5-.5s.223-.5.5-.5zm0 3c.277 0 .5.223.5.5s-.223.5-.5.5h-4.400391c-.277 0-.5-.223-.5-.5s.223-.5.5-.5z" fill="#3a3a38"/><path d="m11.957031 1-1.957031 6h.830078c.088995 0 .163323-.0278146.222656-.0820312.06203-.0572287.103427-.1173285.125-.1835938l.335938-1.1757812h1.976562l.339844 1.1796874c.02697.0753014.07032.1382485.126953.1894532.056634.0481926.132172.0722656.226563.0722656h.816406l-1.957031-6zm.539063 1.09375c.035058.1475903.070409.2836502.105468.4101562.035062.123494.069203.2327985.101563.3261719l.544922 1.8964844h-1.496094l.544922-1.8925781c.029667-.0933735.062596-.2035721.097656-.3300782.035062-.1265059.069203-.2625659.101563-.4101562zm-1.511719 6.90625v6h2.050781c.313236 0 .588911-.04351.830078-.130859.243936-.090362.44778-.214468.611328-.371094.166321-.159639.292975-.347585.378907-.564453.085932-.216867.128906-.45296.128906-.708985 0-.695783-.355955-1.137472-1.068359-1.324218.163548-.063253.303497-.140107.419922-.230469.119195-.093373.216171-.195195.291015-.306641.074847-.111446.129982-.23181.166016-.361328.036033-.129518.054687-.263789.054687-.402344 0-.243975-.038437-.464372-.113281-.6601559-.072073-.1987953-.18688-.3673053-.347656-.5058593-.158004-.1385547-.362983-.2450119-.615235-.3203126-.252252-.0753013-.557293-.1132812-.912109-.1132812zm1.09375.9121094h.78125c.310464 0 .537497.0629476.681641.1894526.144144.123495.216796.339256.216796.646485 0 .295181-.083679.507201-.25.636719-.166319.126506-.403245.191406-.710937.191406h-.71875zm0 2.4804686h.931641c.16632 0 .306269.019434.419922.058594.116424.036144.209996.088926.279296.158203.072071.069277.121851.154509.152344.253906.033267.099398.050781.210491.050781.333985 0 .114458-.013295.225551-.041015.333984-.02772.105422-.077185.199925-.146485.28125-.066528.081325-.157012.145166-.273437.193359-.116424.048194-.262864.072266-.4375.072266h-.935547z" fill="#1e8bcd"/></svg>