<svg height="16" viewBox="0 0 4.2333332 4.2333335" width="16" xmlns="http://www.w3.org/2000/svg"><g stroke-width=".264583" transform="translate(0 -292.76665)"><path d="m3.4395836 294.61873h.2645834v-.83831c0-.0366.00127-.0748.00385-.11459l-.1618327.16173c-.014557.0111-.029113.0179-.043669.0203-.014557.002-.028256.002-.0411 0-.012843-.002-.024403-.006-.034678-.0119-.00942-.006-.016698-.0127-.021833-.0191l-.097613-.12417.4521033-.39688h.2093557v1.32292h.2645833v.26458h-.79375z" fill="#1e8bcd"/><path d="m.26458333 293.03123v3.70417h2.64583337v-2.98845l-.7131347-.71572z" fill="#fafafa"/><path d="m.26458333 292.76665c-.1465792 0-.2645834.118-.2645834.26458v3.70417c0 .14658.1180042.26458.2645834.26458h2.64583337c.1465791 0 .2645833-.118.2645833-.26458v-2.77813-.22841l-.9622152-.96221h-.2284098zm0 .26458h1.58749997v.92604c0 .0733.059002.13229.1322917.13229h.9260417v2.64584h-2.64583337zm1.85208337 0 .79375.79375h-.79375z" fill="#3a3a38"/><path d="m2.1166667 293.03123.79375.79375h-.79375z" fill="#fafafa"/><rect fill="#797774" height=".264583" ry=".132292" transform="scale(-1 1)" width="2.116667" x="-2.645833" y="295.94165"/><rect fill="#797774" height=".264583" ry=".132292" transform="scale(-1 1)" width="2.116667" x="-2.645833" y="295.14789"/><rect fill="#1e8bcd" height=".529167" rx=".132292" width="1.322917" x=".529167" y="294.08954"/></g></svg>