<svg viewBox="0 0 16 16" xmlns="http://www.w3.org/2000/svg"><path d="m14.061797 6.9985849q0 1.7897622-.600729 3.2705761-.589175 1.470163-1.640448 2.524844-1.051274 1.054681-2.5068839 1.629963-1.4556097.57528-3.1653734.57528h-5.21015865l1.87149825-13.9984974h5.2101586q1.3978474 0 2.5068831.4474405 1.120589.4367873 1.906157 1.2251349.785566.7883477 1.201454 1.8962958.427442 1.107948.427442 2.4289631zm-2.090996.042613q0-1.044028-.288811-1.8856425-.277259-.841614-.820224-1.427548-.531414-.5859341-1.3054282-.8948812-.7624623-.3196004-1.7328687-.3196004h-3.1653736l-1.4671621 10.9729472h3.1538211q1.2476655 0 2.2873867-.436787 1.0397212-.44744 1.7790788-1.278402.739357-.830961 1.143694-2.0241356.415887-1.1931748.415887-2.7059505z" fill="#3a3a38" stroke-width=".874906"/></svg>