<svg viewBox="0 0 16 16" xmlns="http://www.w3.org/2000/svg">/&amp;amp;amp;gt;<g fill="#3a3a38"><path d="m1 15h14v1h-14z" fill="#1e8bcd"/><path d="m1 13h14v1h-14z" fill="#1e8bcd"/><path d="m3.8847656 1c-.3468073.733197-.7483046 1.4039554-1.2558594 2.0292969-.00256.00329-.00517.00655-.00781.00977-.1063501.1243591-.1210962.1936184-.1210962.2363237 0 .044866.013936.1129174.1347656.2460938.00198.00258.00393.00519.00586.00781.322141.4812529.7664485.7588731 1.2363275 1.0742212.079253.090952.122954.2074882.1230469.328125v4.0683594c0 3 2.5 3.500629 4 3.517578 2.5-.016949 4-.715528 4-3.517578v-3.7792969l-2.0136719-1.6230469c-.3916332-.2851524-.1895245-.5982229.2949219-.5976562h2.71875v-2h-3.1152344c-.3468073.733197-.7483046 1.4039554-1.2558594 2.0292969-.00256.00329-.00517.00655-.00781.00977-.1063526.1243547-.1210962.1936184-.1210962.2363237 0 .044866.013936.1129174.1347656.2460938.00198.00258.00393.00519.00586.00781.3221404.4812554.7664485.7588731 1.2363275 1.0742212.079253.090952.122954.2074882.1230469.328125v4.0683594c0 1.5-.5374254 2.316473-2 2.324219-1.4864185-.0425-2-.824219-2-2.324219v-3.7792969l-2.0136719-1.6230469c-.3916332-.2851525-.1895245-.5982229.2949219-.5976562h2.71875v-2z" fill="#3a3a38"/></g></svg>