<svg viewBox="0 0 32 32" xmlns="http://www.w3.org/2000/svg"><path d="m25 28h-18.0000004v-24.0000005h12.0000004l6 6z" fill="#fafafa"/><path d="m26.000155 28.000154c0 .554-.446 1-1 1h-18.0000004c-.554 0-1-.446-1-1v-23.9999995c0-.554.446-1 1-1h6.5703124a.50005.50005 0 0 1 .03516 0h4.394528.5a.50005.50005 0 0 1 .353516.146484l.853515.853516 5.292969 5.292969.853515.8535155a.50005.50005 0 0 1 .146485.353516v.5 10.999999zm-1 0v-5.964844-11.035155h-6c-.554 0-1-.446-1-1v-6.0000005h-4.394531-6.6054694v23.9999995zm-.707032-17.999999-5.292968-5.2929695v5.2929695z" fill="#3a3a38"/></svg>