<svg height="32" viewBox="0 0 32 32" width="32" xmlns="http://www.w3.org/2000/svg"><path d="m15.866244 23.844514q1.337564 0 2.218784-.301423.881219-.316494 1.447718-.69327.566498-.376778.896955-.6782.330456-.316495.566498-.316495.267514 0 .346193.150711l.991372 1.145405q-1.290357 1.416685-3.005587 2.200382-1.699493.768629-3.934016.768629-1.762438 0-3.162947-.617915-1.384773-.632988-2.3446727-1.763322-.9598994-1.130333-1.4791894-2.697729-.503554-1.567396-.503554-3.436213 0-2.592231.8025389-4.747401.8182752-2.17024 2.2187852-3.707494 1.416245-1.5523243 3.320308-2.4113779 1.904063-.8590536 4.075639-.8590536 1.054317 0 1.904063.180854.849748.180853 1.542133.5274887.708122.3315649 1.274621.8289115.582235.4822756 1.054316 1.0851197l-.944162 1.1001909q-.125888.1356409-.267513.2260673-.141627.090424-.361931.090424-.173096 0-.346193-.1205686-.173097-.1356392-.409138-.3315644-.220303-.195924-.519288-.4069201-.298987-.2260662-.72386-.4219913-.424873-.195924-1.007107-.3164927-.582235-.1356407-1.353302-.1356407-1.557869 0-2.926906.6480585-1.353302.6329863-2.360409 1.8386767-.991372 1.190617-1.573606 2.893652-.566498 1.703036-.566498 3.812992 0 1.507112.377666 2.712799.377664 1.190619 1.054315 2.034602.692386.828911 1.63655 1.281043.944162.437063 2.061424.437063z" fill="#3a3a38" stroke-width="1.012025"/></svg>