<svg viewBox="0 0 16 16" xmlns="http://www.w3.org/2000/svg"><path d="m3.9579184 1.000001c.1256411 0 .2328055.00703.3214933.021084.088688.00703.1662895.028112.2328054.063253.073906.028113.1404222.070281.1995475.1265059.066516.056225.1404225.1300199.2217194.2213856l6.166932 8.8161615c-.044345-.4638559-.064745-.9031166-.066518-1.317771l-.033898-7.93062h3v13.999999h-1.935748c-.229109 0-.421266-.03514-.576469-.105422-.147814-.07731-.295627-.200301-.44344-.368976l-6.110859-8.7469999c.044344.4357429.066516.8398593.066516 1.2123493v8.0090496h-3v-13.999999z" fill="#3a3a38" stroke-width=".875"/></svg>