<svg viewBox="0 0 24 24" xmlns="http://www.w3.org/2000/svg"><g fill="#3a3a38"><path d="m17.990234 4c-.701002 0-1.356832.1626422-1.964843.4882812-.608012.3176967-1.137246.8056232-1.587891 1.4648438-.44349.6592207-.793271 1.493266-1.050781 2.5019531-.257511 1.0007448-.386719 2.1846859-.386719 3.5507809 0 1.366096.129208 2.553813.386719 3.5625.135125.525128.296276 1.000988.482422 1.431641h1.193359c-.259386-.522723-.460158-1.134109-.613281-1.849609a.67982563.67982563 0 0 0 0-.001953c-.185643-.876047-.273438-1.918449-.273438-3.142579 0-1.223372.08764-2.2618418.273438-3.130859.181866-.8582249.426287-1.5736442.763672-2.1542969a.67982563.67982563 0 0 1 .003906-.0058593c.335744-.5637376.742056-1.0143945 1.242187-1.3027344a.67982563.67982563 0 0 1 .00586-.0019532c.471278-.2665156.99274-.4101562 1.52539-.4101562.532651 0 1.054073.1435561 1.525391.4101562.509194.2880261.918985.7414615 1.248047 1.3066407.345941.5815003.59517 1.2985229.777344 2.1582031.185812.8690259.273437 1.907489.273437 3.130859 0 1.224128-.08779 2.266526-.273437 3.142579a.67982563.67982563 0 0 0 0 .001953c-.153175.715742-.358041 1.326469-.623047 1.849609h.582031c.200633 0 .393549.042117.570312.117188.211728-.461701.395046-.973966.542969-1.548829.25751-1.008687.386719-2.196404.386719-3.5625 0-1.366095-.129209-2.5500361-.386719-3.5507809-.257511-1.0086871-.611857-1.8427324-1.0625-2.5019531-.450643-.6592206-.982492-1.1471471-1.597656-1.4648438-.608013-.3256391-1.261889-.4882812-1.962891-.4882812z"/><path d="m6.9902344 4c-.701002 0-1.3568328.1626422-1.9648438.4882812-.608012.3176967-1.1372456.8056232-1.5878906 1.4648438-.44349.6592207-.7932713 1.493266-1.0507812 2.5019531-.2575111 1.0007448-.3867188 2.1846859-.3867188 3.5507809 0 1.366096.1292077 2.553813.3867188 3.5625.2575099 1.000745.6072912 1.829061 1.0507812 2.488282.450645.651278.9798786 1.141158 1.5878906 1.466797.608011.317696 1.2638418.476562 1.9648438.476562s1.3548786-.158867 1.9628906-.476562c.615164-.325639 1.147013-.815519 1.597656-1.466797.450643-.659221.804989-1.487537 1.0625-2.488282.25751-1.008687.386719-2.196404.386719-3.5625 0-1.366095-.129209-2.5500361-.386719-3.5507809-.257511-1.0086871-.611857-1.8427324-1.0625-2.5019531-.450643-.6592206-.982492-1.1471471-1.597656-1.4648438-.608013-.3256391-1.2618886-.4882812-1.9628906-.4882812zm0 1c.5326509 0 1.0540727.143556 1.5253906.4101562.5091945.288026.9189853.7414615 1.2480469 1.3066407.3459411.5815003.5951701 1.2985229.7773441 2.1582031.185812.8690259.273437 1.907489.273437 3.130859 0 1.224128-.087788 2.266527-.273437 3.142579a.67982563.67982563 0 0 0 0 .001953c-.182309.851881-.432185 1.56435-.7773441 2.144531-.329062.565181-.7388544 1.018615-1.2480469 1.30664a.67982563.67982563 0 0 1 -.0097656.00586c-.4701266.256076-.9870989.392578-1.515625.392578-.5285254 0-1.0454979-.136501-1.515625-.392578a.67982563.67982563 0 0 1 -.015625-.007813c-.5001297-.288339-.9064426-.738995-1.2421875-1.302734a.67982563.67982563 0 0 1 -.0039063-.005859c-.3366263-.579348-.5816788-1.290223-.7636718-2.140625a.67982563.67982563 0 0 0 0-.001953c-.1856431-.876047-.2734374-1.918449-.2734376-3.142579.0000001-1.223372.0876358-2.2618418.2734376-3.130859.1818665-.8582249.4262876-1.5736442.7636718-2.1542969a.67982563.67982563 0 0 1 .0039063-.0058593c.3357445-.5637375.7420557-1.0143945 1.2421875-1.3027344a.67982563.67982563 0 0 1 .0058594-.0019532c.4713183-.2666012.9927403-.4101562 1.5253906-.4101562z"/><path d="m8.6875667 21.030433q0-.429687.15625-.820312.1757813-.390625.46875-.683594.2929688-.292969.7031243-.46875.429688-.175781.9375-.175781.585938 0 1.015625.214843.449219.214844.742188.585938.292969.351562.429687.859375.15625.488281.15625 1.054687 0 .839844-.253906 1.757813-.234375.917969-.703125 1.816406-.449219.898438-1.113281 1.738281-.664063.859375-1.5234373 1.582032l-.5859375-.546875q-.2539062-.234375-.2539062-.546875 0-.234375.2734375-.507813.1757812-.195312.46875-.546875.2929688-.351562.5859375-.800781.3125-.449219.566406-.996094.253906-.546875.371094-1.171875h-.214844q-.9960937 0-1.6210935-.664062-.6054688-.664063-.6054688-1.679688z" fill="#3a3a38" transform="matrix(.52032523 0 0 .52032523 -4.52036 8.175221)"/></g><path d="m17.5 15c-.277 0-.509005.223146-.5.5v3.5h-3.5c-.277 0-.5.223-.5.5s.223053.505397.5.5h3.5v3.5c0 .277.223.5.5.5s.49135-.223135.5-.5v-3.5h3.5c.277 0 .5-.223.5-.5s-.223-.5-.5-.5h-3.5v-3.5c0-.277-.223-.5-.5-.5z" fill="#1e8bcd"/></svg>