<?xml version="1.0" encoding="UTF-8"?>
<!-- Created with Inkscape (http://www.inkscape.org/) -->
<svg id="SVGRoot" width="24px" height="24px" version="1.1" viewBox="0 0 24 24" xml:space="preserve" xmlns="http://www.w3.org/2000/svg" xmlns:xlink="http://www.w3.org/1999/xlink"><defs><linearGradient id="linearGradient4349" x1="3" x2="21" y1="23" y2="1" gradientUnits="userSpaceOnUse"><stop stop-color="#c10018" offset="0"/><stop stop-color="#ff5a96" offset="1"/></linearGradient></defs><path d="m5 0c-1.662 0-3 1.338-3 3v18c0 1.662 1.338 3 3 3h14c1.662 0 3-1.338 3-3v-12l-9-9h-8zm10 0 7 7v-7h-7z" fill="url(#linearGradient4349)" fill-rule="evenodd" stroke-linecap="square"/><g fill-rule="evenodd" stroke-linecap="square"><path d="m2 20v1c0 1.662 1.338 3 3 3h14c1.662 0 3-1.338 3-3v-1c0 1.662-1.338 3-3 3h-14c-1.662 0-3-1.338-3-3z" fill-opacity=".19965"/><path d="m15 0h1.4l5.6 5.6v1.4z" fill-opacity=".19965"/></g><g transform="translate(-8,5)"><g fill-rule="evenodd" stroke-linecap="square"><path d="m14.5 7.5h0.5l1 2.5 2.2-5.5h7.3" fill="none" stroke="#fafafa" stroke-linecap="square"/><path d="m20.889 6.0062a1 1 0 0 0-0.5957 0.28711 1 1 0 0 0 0 1.4141l0.79297 0.79297-0.79297 0.79297a1 1 0 0 0 0 1.4141 1 1 0 0 0 1.4141 0l0.79297-0.79297 0.79297 0.79297a1 1 0 0 0 1.4141 0 1 1 0 0 0 0-1.4141l-0.79297-0.79297 0.79297-0.79297a1 1 0 0 0 0-1.4141 1 1 0 0 0-1.4141 0l-0.79297 0.79297-0.79297-0.79297a1 1 0 0 0-0.81836-0.28711z" color="#000000" fill="#fda8b3" fill-rule="evenodd" stroke-linecap="round"/><g fill="#fafafa" fill-rule="evenodd"><rect x="14" y="12" width="2" height="1"/><rect x="24" y="12" width="2" height="1"/><rect x="19" y="12" width="2" height="1"/></g></g></g></svg>
