<?xml version="1.0" encoding="UTF-8"?>
<!-- Created with Inkscape (http://www.inkscape.org/) -->
<svg id="SVGRoot" width="24px" height="24px" version="1.1" viewBox="0 0 24 24" xml:space="preserve" xmlns="http://www.w3.org/2000/svg" xmlns:xlink="http://www.w3.org/1999/xlink"><defs><linearGradient id="linearGradient4349" x1="3" x2="21" y1="23" y2="1" gradientUnits="userSpaceOnUse"><stop stop-color="#7324a9" offset="0"/><stop stop-color="#fa51fd" offset="1"/></linearGradient></defs><g fill-rule="evenodd"><path d="m5 0c-1.662 0-3 1.338-3 3v18c0 1.662 1.338 3 3 3h14c1.662 0 3-1.338 3-3v-12l-9-9h-8zm10 0 7 7v-7h-7z" fill="url(#linearGradient4349)" stroke-linecap="square"/><g stroke-linecap="square"><path d="m2 20v1c0 1.662 1.338 3 3 3h14c1.662 0 3-1.338 3-3v-1c0 1.662-1.338 3-3 3h-14c-1.662 0-3-1.338-3-3z" fill-opacity=".19965"/><path d="m15 0h1.4l5.6 5.6v1.4z" fill-opacity=".19965"/></g><g><path d="m9 9a3 1 0 0 0-3 1v1a3 1 0 0 0 3 1 3 1 0 0 0 3-1v-1a3 1 0 0 0-3-1zm-3 3v1a3 1 0 0 0 3 1 3 1 0 0 0 3-1v-1a3 1 0 0 1-3 1 3 1 0 0 1-3-1zm0 2v1a3 1 0 0 0 3 1 3 1 0 0 0 3-1v-1a3 1 0 0 1-3 1 3 1 0 0 1-3-1zm0 2v1a3 1 0 0 0 3 1 3 1 0 0 0 3-1v-1a3 1 0 0 1-3 1 3 1 0 0 1-3-1z" fill="#fa9bfd"/><path d="m13 11v7h5v-7h-5zm1 1h1v1h-1v-1zm2 0h1v1h-1v-1zm-2 2h1v1h-1v-1zm2 0h1v1h-1v-1zm-2 2h1v1h-1v-1zm2 0h1v1h-1v-1z" fill="#fafafa"/></g></g></svg>
