<?xml version="1.0" encoding="UTF-8"?>
<!-- Created with Inkscape (http://www.inkscape.org/) -->
<svg id="SVGRoot" width="24px" height="24px" version="1.1" viewBox="0 0 24 24" xml:space="preserve" xmlns="http://www.w3.org/2000/svg" xmlns:xlink="http://www.w3.org/1999/xlink"><defs><linearGradient id="linearGradient4349" x1="3" x2="21" y1="23" y2="1" gradientUnits="userSpaceOnUse"><stop stop-color="#007c3c" offset="0"/><stop stop-color="#78fc4e" offset="1"/></linearGradient></defs><g fill-rule="evenodd" stroke-linecap="square"><path d="m5 0c-1.662 0-3 1.338-3 3v18c0 1.662 1.338 3 3 3h14c1.662 0 3-1.338 3-3v-12l-9-9h-8zm10 0 7 7v-7h-7z" fill="url(#linearGradient4349)"/><g><path d="m2 20v1c0 1.662 1.338 3 3 3h14c1.662 0 3-1.338 3-3v-1c0 1.662-1.338 3-3 3h-14c-1.662 0-3-1.338-3-3z" fill-opacity=".19965"/><path d="m15 0h1.4l5.6 5.6v1.4z" fill-opacity=".19965"/></g><g><path d="m11 13v5h7v-5h-7zm3 1h1v3h-1v-3zm-2 1h1v2h-1v-2zm4 1h1v1h-1v-1z" fill="#b4f48b"/><path d="m6 9v7h5v-1h-1v-1h1v-1h-1v-1h2v1h1v-1h2v1h1v-4h-10zm1 1h2v1h-2v-1zm3 0h2v1h-2v-1zm3 0h2v1h-2v-1zm-6 2h2v1h-2v-1zm0 2h2v1h-2v-1z" fill="#fafafa"/></g></g></svg>
