<svg viewBox="0 0 24 24" xmlns="http://www.w3.org/2000/svg"><path d="m10.5 3a7.5 7.5 0 0 0 -7.5 7.5 7.5 7.5 0 0 0 7.5 7.5 7.5 7.5 0 0 0 1.691406-.203125c.156158-.286665.392015-.515478.691406-.65625.317992-.149517.741088-.145363 1.123047-.015625a7.5 7.5 0 0 0 .990235-.630859v-4.96875l.001953.050781c-.043579-.845199.657011-1.573943 1.501953-1.572266.714513-.001464 1.319444.521481 1.464844 1.19336a7.5 7.5 0 0 0 .035156-.697266 7.5 7.5 0 0 0 -7.5-7.5z" fill="#fafafa"/><path d="m10.5 2c-.40048.0004349-.7951818.032946-1.1835938.0878906-.0240858.0034157-.0482322.0061466-.0722656.0097656-.3692583.0554595-.7298441.1382759-1.0839844.2402344-.0442971.0127702-.088777.0236339-.1328124.0371094-.350182.1070015-.6905063.2367456-1.0214844.3867188-.036703.0166357-.0729284.033633-.109375.0507812-.2051581.0964953-.3974293.2139015-.59375.3261719-.1950616.1115465-.3886357.2230205-.5742188.3496093-.1660564.1132258-.3228098.2366255-.4804687.3613282-.1672868.1323411-.3310775.2672356-.4882813.4121094-.2342297.2157337-.4663611.4340494-.6757812.6757812-.2623981.3028837-.50372.6263438-.7226563.9667969-.0025538.0039755-.0052648.0077382-.0078125.0117187-.2120641.3309777-.3980832.6799646-.5644531 1.0429688-.0066278.0144527-.0168847.0265134-.0234375.0410156h-.0019531c-.0056416.0136904-.0100542.0273169-.015625.0410156-.1083741.2433908-.2086851.491776-.2949219.7480469-.206195.7226504-.4114115 1.4613284-.4296875 2.2382815-.0122.157304-.0200375.314917-.0234375.472656.002515.116679.0102371.233143.0175781.349609.0012263-.015586.0081777-.029431.0097657-.044921.0833646 1.055588.3003921 2.137427.7363281 3.195312h.0019531c1.2657419 2.801263 3.9376672 4.659796 6.9589844 4.941406l-.015625.017578c.26153.02468.5244666.040727.7910156.041016.266549-.000289.529486-.016336.791016-.041016l-.015625-.017578c.259971-.024231.513453-.075869.767578-.123047-.0306-.131902-.049024-.264334-.041016-.394531a1.0001 1.0001 0 0 0 0-.001953c.014851-.240701.090909-.449157.195313-.636719-.06807.015863-.132547.04266-.201172.056641.479074-.868315.868816-1.738459 1.171875-2.609375.61054.085351 1.219762.197438 1.828125.322266v-1.027344-.087891c-.499535-.109599-.996009-.198575-1.490235-.263672.134665-.506431.232261-1.013009.306641-1.519531.006604-.044973.017209-.089791.023438-.134766v-.001953c.07535-.505907.123951-1.012364.144531-1.519531h1.015625.091797c.211462-.574143.769111-.99737 1.412109-.996094.643057-.001318 1.200665.421938 1.412109.996094h.0625c-.003001.052345-.017224.100469-.021484.152344.034175.136545.056396.277045.048828.423828l.001953-.050781v2.904297c.075462-.144135.162868-.280079.230469-.429688h.001953c.435936-1.057885.652962-2.139724.736328-3.195312.001588.01549.00854.029335.009766.044921.007341-.116466.015063-.23293.017578-.349609-.0034-.157739-.011238-.315352-.023438-.472656-.018276-.7769531-.223492-1.5156311-.429687-2.2382815-.086237-.2562709-.186548-.5046561-.294922-.7480469-.00557-.0136987-.009984-.0273252-.015625-.0410156h-.001953c-.006553-.0145022-.01681-.0265629-.023437-.0410156-.16637-.3630042-.35239-.7119911-.564454-1.0429688-.00078-.0012176-.001172-.0026891-.001953-.0039062-.001771-.0027642-.004085-.0050508-.005859-.0078125-.218936-.3404531-.460258-.6639132-.722656-.9667969-.209421-.2417318-.441552-.4600475-.675782-.6757812-.157203-.1448739-.320994-.2797683-.488281-.4121094-.157659-.1247027-.314412-.2481024-.480469-.3613282-.185583-.1265887-.379157-.2380628-.574218-.3496093-.196321-.1122704-.388592-.2296766-.59375-.3261719-.036447-.0171482-.072672-.0341455-.109375-.0507812-.330979-.1499731-.671303-.2797173-1.021485-.3867188-.044035-.0134755-.088515-.0243392-.132812-.0371094-.354141-.1019585-.714726-.1847749-1.083985-.2402344-.024033-.003619-.048179-.0063499-.072265-.0097656-.388412-.0549446-.783114-.0874557-1.183594-.0878906zm0 1c.08796.00301.175868.0075699.263672.0136719.586038.9672847 1.04821 1.9278003 1.402344 2.8847656-.553205.0540912-1.107264.0862383-1.664063.0957031-.001303-.0000219-.002603.0000222-.003906 0-.5567995-.0094648-1.1108583-.0416122-1.6640626-.0957031.3541338-.9569653.8163055-1.9174809 1.4023436-2.8847656.087804-.006102.175712-.0106619.263672-.0136719zm-1.4960938.1582031c-.2431207.440649-.462702.8808077-.6601562 1.3222657-.062433.1397062-.1081058.2801538-.1660156.4199218-.1198036.2888991-.2451004.5780808-.3457032.8671875-.8995078-.1257469-1.7961256-.2959432-2.6914062-.5058593.0139555-.0142613.0308615-.0249216.0449219-.0390626 1.0423877-1.0483652 2.3688519-1.7691507 3.8183593-2.0644531zm2.9921878 0c1.449507.2953024 2.775972 1.0160879 3.818359 2.0644531.01406.014141.030966.0248013.044922.0390626-.895281.2099162-1.791898.3801124-2.691406.5058593-.100603-.2891067-.2259-.5782884-.345703-.8671875-.05791-.139768-.103583-.2802157-.166016-.4199218-.197454-.441458-.417036-.8816167-.660156-1.3222657zm-7.5878909 2.9824219h.0019531c1.0384125.3190995 2.0669762.5496463 3.0839844.6835938-.1322511.4973543-.2288286.9947485-.3027344 1.4921874-.0081617.0539679-.0197547.1081377-.0273437.1621094v.0019532c-.0753461.5058898-.1239574 1.0123825-.1445313 1.5195312h-1.2988281-2.6953125c.0155458-.2711235.0635936-.5299939.1113282-.7890625.0063738-.0031467.0111663-.0086381.0175781-.0117187.0495808-.2644372.10911-.5250781.1796875-.78125.0083047-.0266989.0167854-.0534936.0253906-.0800782.0457185-.159738.1005945-.3161501.15625-.4726562.2373155-.5984408.5422383-1.1703816.8925781-1.7246094zm12.1816409 0h.001953c.35034.5542278.655263 1.1261686.892578 1.7246094.055655.1565061.110531.3129182.15625.4726562.008605.0265846.017086.0533793.025391.0800782.070577.2561719.130106.5168129.179687.78125.006412.0030805.011204.008572.017578.0117187.047735.2590686.095783.517939.111328.7890625h-2.695312-1.298828c-.020577-.5071668-.069184-1.0136238-.144531-1.5195312v-.0019532c-.00759-.0539717-.019183-.1081415-.027344-.1621094-.073906-.4974388-.170483-.9948331-.302735-1.4921874 1.017009-.1339475 2.045572-.3644943 3.083985-.6835938zm-8.1015628.78125c.6730637.0534022 1.3410585.0746441 2.0058598.0644531.003891-.0000596.007827.0000618.011718 0 .664801.010191 1.332796-.0110509 2.00586-.0644531.005266.0259959.01029.0520515.017578.078125h-.007813c.280816 1.000216.435659 1.9998302.480469 3h-5.0039061c.022405-.5000849.0729297-1.0000482.1523437-1.5.0794138-.4999517.1877167-.999892.328125-1.5h-.0078125c.0072932-.0260735.0123108-.0521291.0175781-.078125zm-5.4628906 4.078125h2.9785156 1.015625c.0205771.507167.069185 1.013624.1445313 1.519531v.001953c.006329.045011.0167114.089759.0234375.134766.0743783.506522.1719758 1.0131.3066406 1.519531-.4942258.065097-.9906992.154073-1.4902344.263672v.087891c-.5293889.105181-1.0573669.223334-1.5820312.353515-.7507458-1.183092-1.3139974-2.442255-1.3964844-3.880859zm4.9726563 0h5.0039061c-.04481 1.00017-.199653 1.999784-.480469 3h.007813c-.007297.026071-.012312.052128-.017578.078125-.673064-.053404-1.341059-.074645-2.00586-.064453-.003891.00006-.007827-.000062-.011718 0-.6648013-.010192-1.3327961.011049-2.0058598.064453-.0052664-.025997-.0102849-.052054-.0175781-.078125h.0078125c-.140408-.500108-.248711-1.000048-.328125-1.5-.0794134-.499952-.1299382-.999915-.1523437-1.5zm2.5000001 4.005859c.001303.000022.002603-.000022.003906 0 .558751.009492 1.114787.041271 1.669922.095703-.354713.958301-.823008 1.920047-1.410156 2.888672-.050099.0028-.100251.00416-.150391.00586-.036472.047981-.072448.096461-.111328.142578-.03888-.046117-.074856-.094597-.111328-.142578-.05014-.0017-.100292-.00306-.150391-.00586-.587147-.968625-1.0554433-1.930371-1.410156-2.888672.5551349-.054432 1.1111717-.086211 1.669922-.095703zm-2.6660158.226563c.3030592.870916.6928004 1.74106 1.171875 2.609375-1.4690591-.299285-2.8147101-1.031973-3.8632812-2.103516.8952806-.209916 1.7918984-.380112 2.6914062-.505859zm7.1640628 1.259766c-.316244.237053-.651315.444961-1 .628906.212532.070669.415927.169596.574218.328125l.001954.001953.296875.296875c.042337-.025361.08507-.050082.126953-.076172z" fill="#3a3a38"/><path d="m13.000353 18.484015c-.0077.125183.03681.25879.154297.376954l2.90625 2.904296c.136779.141888.258099.236365.439453.234375.181354.002.302674-.09249.439453-.234375l2.90625-2.904296c.469951-.472656-.239033-1.177734-.708984-.705079l-2.132813 2.128907v-8.759766c.01483-.287625-.215913-.52821-.503906-.525391-.287993-.0028-.518736.237766-.503906.525391v8.759766l-2.132813-2.128907c-.352463-.354491-.840111-.04742-.863281.328125z" fill="#1e8bcd"/></svg>