<svg viewBox="0 0 24 24" xmlns="http://www.w3.org/2000/svg"><path d="m9.2509087 11.142965h.578756q.3108133 0 .5144493-.08517.203637-.09582.385838-.319392l4.297799-5.3125471q.214354-.2448669.439425-.330038.225072-.085171.525169-.085171h1.607655l-5.015885 6.0471481q-.385838.447149-.782393.61749.246507.09582.428708.255514.182201.159696.332249.425855l3.611866 6.643346h-1.639809q-.353684 0-.503732-.106464-.13933-.106464-.246506-.287453l-3.108135-5.568061q-.13933-.244867-.321531-.340684-.182201-.106464-.5680381-.106464h-.7180862l-.79311 6.409126h-1.8755982l1.7255503-14.0000006h1.8863162z" fill="#3a3a38" stroke-width=".7"/></svg>