<svg viewBox="0 0 32 32" xmlns="http://www.w3.org/2000/svg"><path d="m9.8066404 7.3769531a.49809421.49809421 0 0 0 -.4707031.3554688l-1.5820313 5.2695311h-5.2539062a.49809421.49809421 0 0 0 -.2988281.896485l4.2480469 3.1875-1.0625 5.316406a.49809421.49809421 0 0 0 .8125.476562l3.6503906-3.130859 4.7499998 3.166015a.49809421.49809421 0 0 0 .751953-.55664l-1.59375-5.314453 3.691407-3.164063a.49809421.49809421 0 0 0 -.324219-.876953h-4.724609l-2.125-5.3124999a.49809421.49809421 0 0 0 -.4687506-.3125z" fill="#ed8733"/><path d="m13 7 .5 1h15.5v-1zm1 2 .5 1h15.5v-1zm1 2 .5 1h13.5v-1zm5.5 3-1.5 1h11v-1zm-2.5 2-1 1h12v-1zm-.5 2 .5 1h5.486328l.027344-.164062a1.0001 1.0001 0 0 1 .986328-.835938zm9.005859 0a1.0001 1.0001 0 0 1 .980469.835938l.027344.164062h1.486328v-1zm-8.005859 2 .5 1h.40625a1.0001 1.0001 0 0 1 .082031-.09375l.552735-.554688a1.0001 1.0001 0 0 0 .001953-.001953l.349609-.349609zm4.556641 0 .234375.167969.027343-.167969zm4.625 0 .027343.167969.234375-.167969z" fill="#fb983b"/><path d="m9.8828123 9.449219-1.2597656 4.199219a.5192402.5192402 0 0 1 -.4980469.371093h-4.0664062l3.2519531 2.439453a.5192402.5192402 0 0 1 .1992187.517578l-.8300781 4.148438 2.7949219-2.394531a.5192402.5192402 0 0 1 .6249998-.03711l3.863282 2.576172-1.273438-4.246093a.5192402.5192402 0 0 1 .160156-.542969l2.871094-2.460938h-3.658203a.5192402.5192402 0 0 1 -.482422-.326172z" fill="#f8db8f"/><path d="m24.5 19-.371094 2.228516a4.5 4.5 0 0 0 -.683594.279296l-1.833984-1.310546-.861328.859375-.552734.554687 1.3125 1.835938a4.5 4.5 0 0 0 -.289063.68164l-2.220703.371094v1.216797.783203l2.228516.371094a4.5 4.5 0 0 0 .279296.683594l-1.310546 1.833984.552734.554687.861328.859375 1.835938-1.3125a4.5 4.5 0 0 0 .68164.289063l.371094 2.220703h1.216797.783203l.371094-2.228516a4.5 4.5 0 0 0 .683594-.279296l1.833984 1.310546.554687-.552734.859375-.861328-1.3125-1.835938a4.5 4.5 0 0 0 .289063-.68164l2.220703-.371094v-.783203-1.216797l-2.228516-.371094a4.5 4.5 0 0 0 -.279296-.683594l1.310546-1.833984-.859375-.861328-.554687-.552734-1.835938 1.3125a4.5 4.5 0 0 0 -.68164-.289063l-.371094-2.220703h-.783203zm.605469 1h.789062l.353516 2v.08984a3.5 3.5 0 0 1 1.136719.466797l.06055-.06055 1.664063-1.164063.558594.558594-1.164063 1.664063-.0625.0625a3.5 3.5 0 0 1 .470703 1.134765h.087887l2 .353516v.789062l-2 .353516h-.08984a3.5 3.5 0 0 1 -.466797 1.136719l.06055.06055 1.164063 1.664063-.558594.558594-1.664063-1.164063-.0625-.0625a3.5 3.5 0 0 1 -1.134765.470703v.087894l-.353516 2h-.789062l-.353516-2v-.08984a3.5 3.5 0 0 1 -1.136719-.466797l-.06055.06055-1.664063 1.164063-.558594-.558594 1.164063-1.664063.0625-.0625a3.5 3.5 0 0 1 -.470706-1.134772h-.087891l-2-.353516v-.789062l2-.353516h.08984a3.5 3.5 0 0 1 .466797-1.136719l-.06055-.06055-1.164063-1.664063.558594-.558594 1.664063 1.164063.0625.0625a3.5 3.5 0 0 1 1.134765-.470703v-.087887zm.394531 3a2.5 2.5 0 0 0 -2.5 2.5 2.5 2.5 0 0 0 2.5 2.5 2.5 2.5 0 0 0 2.5-2.5 2.5 2.5 0 0 0 -2.5-2.5zm0 1a1.5 1.5 0 0 1 1.5 1.5 1.5 1.5 0 0 1 -1.5 1.5 1.5 1.5 0 0 1 -1.5-1.5 1.5 1.5 0 0 1 1.5-1.5z" fill="#1e8bcd"/><path d="m25.105469 20h.789062l.353516 2v.08984c.40347.08734.788306.245379 1.136719.466797l.06055-.06055 1.664063-1.164063.558594.558594-1.164063 1.664063-.0625.0625c.222578.347545.381933.731717.470703 1.134765h.087887l2 .353516v.789062l-2 .353516h-.08984c-.08734.40347-.245379.788306-.466797 1.136719l.06055.06055 1.164063 1.664063-.558594.558594-1.664063-1.164063-.0625-.0625c-.347545.222578-.731717.381933-1.134765.470703v.087894l-.353516 2h-.789062l-.353516-2v-.08984c-.40347-.08734-.788306-.245379-1.136719-.466797l-.06055.06055-1.664063 1.164063-.558594-.558594 1.164063-1.664063.0625-.0625c-.222581-.347552-.381936-.731724-.470706-1.134772h-.087891l-2-.353516v-.789062l2-.353516h.08984c.08734-.40347.245379-.788306.466797-1.136719l-.06055-.06055-1.164063-1.664063.558594-.558594 1.664063 1.164063.0625.0625c.347545-.222578.731717-.381933 1.134765-.470703v-.087887zm.394531 3c-1.380712 0-2.5 1.119288-2.5 2.5s1.119288 2.5 2.5 2.5 2.5-1.119288 2.5-2.5-1.119288-2.5-2.5-2.5z" fill="#fafafa"/></svg>