<svg viewBox="0 0 32 32" xmlns="http://www.w3.org/2000/svg"><path d="m23.974609 3c-.169721.00208-.333125.0713651-.453125.1914062l-7.55664 7.5566408-12.7734378 12.773437c-.2554146.254121-.2554146.667754 0 .921875l4.3632813 4.365235c.2541102.255424.6677648.255424.921875 0l12.7402345-12.742188 7.589844-7.5898435h.001953c.063853-.0635304.110651-.1363815.142578-.2148437.000244-.0005992-.000242-.0013535 0-.0019532.032056-.0784186.048654-.1607593.048828-.2441406.000348-.1667626-.063709-.333877-.191406-.4609375l-4.365235-4.3632813c-.12435-.1244103-.292874-.1941002-.46875-.1914062z" fill="#3a3a38"/><path d="m23.982761 4.5381388-7.116772 7.1170642 3.454161 3.524419 7.116772-7.1404324z" fill="#fafafa"/><g fill-rule="evenodd"><path d="m9 2h7l-5 5h3l-12 9 4-8h-3z" fill="#ed8733"/><path d="m9.4140625 3-4 4h.5859375a1.0001 1.0001 0 0 1 .8945312 1.4472656l-2.1054687 4.2109374 6.2109375-4.658203a1.0001 1.0001 0 0 1 -.707031-1.7070312l3.292969-3.2929688z" fill="#f8db8f"/></g></svg>