<svg viewBox="0 0 32 32" xmlns="http://www.w3.org/2000/svg"><g fill="#3a3a38" transform="matrix(.75312501 0 0 .75312501 -14.691065 15.125452)"><path d="m37.175781 18q-.507812 0-.78125-.15625-.273437-.15625-.371094-.644531l-.429687-1.777344q-.742188.683594-1.464844 1.230469-.703125.527343-1.484375.898437-.78125.371094-1.679687.546875-.898438.195313-1.972657.195313-1.113281 0-2.089843-.292969-.957032-.3125-1.699219-.9375-.722656-.644531-1.152344-1.582031-.410156-.957031-.410156-2.246094 0-1.132812.605469-2.167969.625-1.054687 2.011718-1.8749997 1.386719-.8203125 3.613282-1.3281251 2.226562-.5273437 5.46875-.6054687v-1.4648438q0-2.2265624-.957032-3.3398437-.9375-1.1328125-2.753906-1.1328125-1.210937 0-2.050781.3125-.820313.3125-1.425781.6835938-.605469.3710937-1.054688.6835937-.429687.3125-.878906.3125-.351563 0-.605469-.1757812-.253906-.1757813-.410156-.4492188l-.625-1.09375q1.582031-1.5234375 3.398437-2.265625 1.835938-.7617187 4.0625-.7617187 1.601563 0 2.851563.5273437 1.25.5078125 2.089844 1.46484375.839843.95703125 1.269531 2.28515625.449219 1.328125.449219 2.9492187v12.2070313zm-7.148437-2.109375q.859375 0 1.582031-.175781.722656-.175781 1.367187-.488281.644532-.332032 1.210938-.800782.585937-.488281 1.152344-1.074218v-3.945313q-2.285157.097656-3.886719.390625-1.601563.273438-2.617188.742188-.996093.46875-1.445312 1.113281-.449219.625-.449219 1.40625 0 .742187.234375 1.289062.253906.527344.664063.878907.410156.332031.976562.507812.566406.15625 1.210938.15625z"/><path d="m17 8v20.916016h1.677734c.378988.051316.591637-.180136.63086-.542969l.148437-1.279297c.490316.63741 1.048178 1.137166 1.675781 1.5.637411.353027 1.427735.529297 2.369141.529297s1.789835-.185954 2.544922-.558594c.755086-.37264 1.39624-.897583 1.925781-1.574219.529541-.686441.93632-1.505819 1.220703-2.457031.284383-.951213.427735-2.010783.427735-3.177734 0-1.098308-.127849-2.078451-.382813-2.941407-.245158-.872762-.603515-1.612711-1.074219-2.220703-.470703-.607991-1.038248-1.074829-1.705078-1.398437-.666829-.323609-1.418416-.484375-2.251953-.484375-.980631 0-1.848429.205322-2.603515.617187-.755087.402059-1.425293.95219-2.013672 1.648438v-5.859375l-2.150391-2.1464845c-.163418-.1634173-.276904-.3616647-.349609-.5703125zm6.339844 8.355469c1.157145 0 2.05013.410644 2.677734 1.234375.627604.82373.941406 2.109944.941406 3.855468 0 1.882813-.354492 3.298788-1.060546 4.25-.706055.951213-1.721069 1.427735-3.044922 1.427735-.647217 0-1.23995-.123983-1.779297-.369141-.539348-.254964-1.033285-.690796-1.484375-1.308594v-6.943359c.500122-.686442 1.048299-1.21525 1.646484-1.587891.607991-.372639 1.309204-.558593 2.103516-.558593z" stroke-width=".753125" transform="matrix(1.3278008 0 0 1.3278008 19.506808 -20.083587)"/></g><path d="m29 7.509766c0-.127809-.04855-.255582-.146484-.353516-.195868-.195869-.511163-.195869-.707032 0l-4.146484 4.136719v-7.792969c0-.277-.223-.5-.5-.5s-.502521.2230115-.5.5v7.792969l-4.146484-4.136719c-.195869-.195869-.511164-.195869-.707032 0-.097934.097934-.146484.225707-.146484.353516 0 .12781.04855.255581.146484.353515l5 4.990235c.04701.04702.103236.08408.166016.109375.0579.02334.12105.03711.1875.03711s.129596-.01377.1875-.03711c.06278-.0253.119003-.06236.166016-.109375l5-4.990235c.097935-.097935.146484-.225705.146484-.353515z" fill="#1e8bcd"/></svg>