<svg viewBox="0 0 32 32" xmlns="http://www.w3.org/2000/svg"><path d="m7 4v24h18v-18.6406494l-6-5.3593506z" fill="#fafafa"/><path d="m7 3c-.554 0-1 .446-1 1v24c0 .554.446 1 1 1h18c.554 0 1-.446 1-1v-16.109375-1.641221-.207924c0-.4506797.09887-.4265949-.604637-1.067589l-5.307389-5.2370335c-.709525-.7368575-1.478385-.7368575-1.094804-.7368575h-.331557-.661613zm0 1h11v6c0 .554.446 1 1 1h6v17h-18z" fill="#3a3a38"/><path d="m19 10h6l-6-6z" fill="#fafafa" fill-rule="evenodd"/><g transform="matrix(1.1990633 0 0 1.1990633 1.421544 -6.170962)"><path d="m18 21a5 5 0 0 0 -5 5 5 5 0 0 0 5 5 5 5 0 0 0 5-5 5 5 0 0 0 -5-5z" fill="#ed3d3b"/><path d="m15.494141 22.994141a.50005.50005 0 0 0 -.347657.859375l2.146485 2.146484-2.146485 2.146484a.50005.50005 0 1 0 .707032.707032l2.146484-2.146485 2.146484 2.146485a.50005.50005 0 1 0 .707032-.707032l-2.146485-2.146484 2.146485-2.146484a.50005.50005 0 0 0 -.363282-.857422.50005.50005 0 0 0 -.34375.15039l-2.146484 2.146485-2.146484-2.146485a.50005.50005 0 0 0 -.359375-.152343z" fill="#fafafa"/></g></svg>