<svg height="32" viewBox="0 0 32 32" width="32" xmlns="http://www.w3.org/2000/svg"><path d="m29 16a13 13 0 0 1 -13 13 13 13 0 0 1 -13-13 13 13 0 0 1 13-13 13 13 0 0 1 13 13z" fill="#d42314"/><path d="m28 16a12 12 0 0 1 -12 12 12 12 0 0 1 -12-12 12 12 0 0 1 12-12 12 12 0 0 1 12 12z" fill="#ff9198" fill-opacity=".965649"/><path d="m9.9902344 8.9882812c-.2556191 0-.5111627.0990533-.7070313.2949219-.3917371.3917372-.3917371 1.0223249 0 1.4140629l5.3027349 5.302734-5.3027349 5.302734c-.3917371.391738-.3917371 1.022326 0 1.414063.3917372.391737 1.0223249.391737 1.4140629 0l5.302734-5.302735 5.302734 5.302735c.391738.391737 1.022326.391737 1.414063 0s.391737-1.022325 0-1.414063l-5.302735-5.302734 5.302735-5.302734c.391737-.391738.391737-1.0223257 0-1.4140629-.391737-.3917371-1.022325-.3917371-1.414063 0l-5.302734 5.3027349-5.302734-5.3027349c-.195869-.1958686-.451413-.2949219-.7070316-.2949219z" fill="#fafafa"/></svg>