<svg viewBox="0 0 32 32" xmlns="http://www.w3.org/2000/svg"><path d="m4 7h24v21h-24z" fill="#fafafa"/><g fill="#3a3a38"><path d="m4 3c-.554 0-1 .446-1 1v24c0 .554.446 1 1 1h24c.554 0 1-.446 1-1v-24c0-.554-.446-1-1-1zm0 4h24v21h-24z" fill="#3a3a38"/><rect height="1" ry=".5" width="20" x="6" y="14"/><path d="m21 14.5a2.5 2.5 0 0 1 -2.5 2.5 2.5 2.5 0 0 1 -2.5-2.5 2.5 2.5 0 0 1 2.5-2.5 2.5 2.5 0 0 1 2.5 2.5z" fill="#1e8bcd"/><path d="m6.5 22c-.277 0-.5.223-.5.5s.223.5.5.5h4.587891a1.5 1.5 0 0 1 -.087891-.5 1.5 1.5 0 0 1 .087891-.5zm7.412109 0a1.5 1.5 0 0 1 .087891.5 1.5 1.5 0 0 1 -.087891.5h11.587891c.277 0 .5-.223.5-.5s-.223-.5-.5-.5z"/><path d="m12.5 20a2.5 2.5 0 0 0 -2.5 2.5 2.5 2.5 0 0 0 2.5 2.5 2.5 2.5 0 0 0 2.5-2.5 2.5 2.5 0 0 0 -2.5-2.5zm0 1a1.5 1.5 0 0 1 1.5 1.5 1.5 1.5 0 0 1 -1.5 1.5 1.5 1.5 0 0 1 -1.5-1.5 1.5 1.5 0 0 1 1.5-1.5z" fill="#1e8bcd"/></g><path d="m4 4h24v2h-24z" fill="#797774"/></svg>