<svg viewBox="0 0 32 32" xmlns="http://www.w3.org/2000/svg"><g transform="translate(-1)"><path d="m4 3v18h8v-12h6v-2.2714844l-4-3.7285156z" fill="#fafafa" transform="translate(1)"/><path d="m4 2c-.554 0-1 .446-1 1v18c0 .554.446 1 1 1h8v-1h-8v-18h9v4c0 .554.446 1 1 1h4v1h1v-1.75-.2089844c0-.4506799.098038-.4254121-.605469-1.0664062l-3.30664-3.2382813c-.709525-.7368575-.710169-.7363281-1.09375-.7363281h-.332032-.662109z" fill="#3a3a38" transform="translate(1)"/><path d="m15 7h4l-4-4z" fill="#fafafa" fill-rule="evenodd"/></g><path d="m6.5 12c-.277 0-.5.223-.5.5s.223.5.5.5h5.5v-1zm0 3c-.277 0-.5.223-.5.5s.223.5.5.5h5.5v-1zm0 3c-.277 0-.5.223-.5.5s.223.5.5.5h5.5v-1z" fill="#1e8bcd" opacity=".99"/><g transform="translate(9 8)"><path d="m5 3v18h14v-14.2705905l-4-3.7294095z" fill="#fafafa"/><path d="m5 2c-.554 0-1 .446-1 1v18c0 .554.446 1 1 1h14c.554 0 1-.446 1-1v-10.109375-3.6412209-.2079239c0-.4506799.09887-.4265951-.604637-1.0675892l-3.307389-3.2370335c-.709525-.7368575-.711223-.7368575-1.094804-.7368575h-.331557-.661613zm0 1h9v4c0 .554.446 1 1 1h4v13h-14z" fill="#3a3a38"/><path d="m15 7h4l-4-4z" fill="#fafafa" fill-rule="evenodd"/></g><g fill="#1e8bcd"><rect height="1" opacity=".99" ry=".5" width="10" x="16" y="25"/><rect height="1" opacity=".99" ry=".5" width="10" x="16" y="19"/><rect height="1" opacity=".99" ry=".5" width="10" x="16" y="22"/></g></svg>