<svg viewBox="0 0 32 32" xmlns="http://www.w3.org/2000/svg"><path d="m6 3v13h11c.514581 0 .921152.389956.978516.888672 1.054011-.564456 2.252527-.888224 3.521484-.888672 1.739333.0016 3.220756.747517 4.5 1.755859v-.255859-9.140625l-6-5.359375z" fill="#fafafa"/><path d="m6 2c-.554 0-1 .446-1 1v13h1v-13h13v6c0 .554.446016 1.004232 1 1h6v7.5c0-.638812.424453-1.194913 1-1.40625v-5.203125-1.640625-.2089844c0-.4506797.098038-.4254121-.605469-1.0664062l-5.30664-5.2382813c-.709525-.7368575-1.477331-.7363281-1.09375-.7363281h-.332032-.662109z" fill="#3a3a38"/><path d="m3 20v9h11v-3.5c0-.60922.374138-1.154363.916016-1.382812.182491-.076919.381564-.117188.583984-.117188h-.478516a1.0001 1.0001 0 0 1 -.996093-1.076172c.081316-1.053984.386219-2.039875.855468-2.923828z" fill="#fafafa"/><path d="m15 7h4l-4-4z" fill="#fafafa" fill-rule="evenodd"/><path d="m2 19v11h12.09375c-.057859-.15757-.09375-.325109-.09375-.5v-.5h-4-1-6v-4-1-4h6 1 4.880859c.185684-.349783.392527-.686156.628907-1z" fill="#3a3a38"/><path d="m2 17v3h1v-1-1h6 1 6v.417969c.306078-.330928.639854-.634882 1-.90625v-.511719z" fill="#0063b1"/><path d="m9 20v4h-6v1h6v4h1v-4h4.09375c.141038-.393198.43599-.719964.822266-.882812.182491-.076919.381564-.117188.583984-.117188h-.478516-5.021484v-4z" fill="#797774"/><path d="m3 18v2h11.880859c.305871-.576187.68071-1.108004 1.119141-1.582031v-.417969z" fill="#83beec"/><path d="m9 18v1h-6v1h11.880859c.185684-.349783.392527-.686156.628907-1h-5.509766v-1z" fill="#1e8bcd"/><path d="m20 9h6l-6-6z" fill="#fafafa" fill-rule="evenodd"/><path d="m21.5 17c-3.395063.0012-6.217358 2.614997-6.478516 6h1.003907c.258438-2.831052 2.631785-4.998648 5.474609-5 2.119094.0018 3.966175 1.213522 4.880859 3h-2.880859c-.277 0-.5.223-.5.5s.223.5.5.5h3.285156.214844.5c.06925 0 .135453-.01383.195312-.03906.17958-.075709.304688-.25319.304688-.46094v-4c0-.277-.223-.5-.5-.5s-.5.223-.5.5v2.548828c-1.153072-1.836729-3.192934-3.046652-5.5-3.048828zm5.474609 7c-.258438 2.831052-2.631785 4.998648-5.474609 5-2.091064-.002413-3.955644-1.190838-4.880859-3h2.880859c.277 0 .5-.223.5-.5s-.223-.5-.5-.5h-4c-.06925 0-.135454.01383-.195312.03906-.17958.075709-.304688.25319-.304688.46094v4c0 .277.223.5.5.5s.5-.223.5-.5v-2.556641c1.185145 1.897493 3.262808 3.05216 5.5 3.056641 3.395063-.0012 6.217358-2.614997 6.478516-6z" fill="#18ab50"/></svg>