<svg viewBox="0 0 32 32" xmlns="http://www.w3.org/2000/svg"><path d="m6 3v26h10.914062l-2.449218-2.447266c-.143354-.143323-.255502-.314908-.330078-.5-.06669-.165442-.109375-.357641-.109375-.5625s.04269-.397058.109375-.5625c.07458-.185054.18679-.356719.330078-.5l4.001953-3.998046c.288979-.288983.680927-.439454 1.0625-.439454.381541 0 .773521.150469 1.0625.439454.576036.576027.576028 1.548973 0 2.125l-1.435547 1.433593h6.84375v-13.988281l-7-7z" fill="#fafafa"/><path d="m5.9980469 2c-.554 0-1 .446-1 1v26c0 .277585.1134969.526193.2949219.707031.090139.08985.1952401.164588.3144531.214844h.00195l.388675.078125h.0019531 11.916016l-1.001954-1h-10.914062l-.0019531-26h13.0000001v6c0 .6726441.491378 1 1 1h6l.001953 13.988281h1l-.001953-15.6035154-6.507813-6.3847656z" fill="#3a3a38"/><path d="m20 9h6l-6-6z" fill="#fafafa" fill-rule="evenodd"/><path d="m7.501953 19.001953c.127809 0 .255582.04855.353516.146485.195869.195867.195869.511162 0 .707031l-3.148438 3.144531h11.792969c.277 0 .5.223.5.5s-.223.5-.5.5h-11.792969l3.148438 3.144531c.195869.195869.195869.511163 0 .707031-.09793.09793-.225707.146485-.353516.146485-.12781 0-.255586-.04855-.353515-.146485l-4.001954-3.998046c-.04702-.04701-.08408-.103236-.109375-.166016-.02334-.057904-.037109-.12105-.037109-.1875s.01377-.129596.03711-.1875c.0253-.06278.06236-.119003.109375-.166016l4.001954-3.998046c.09793-.09793.225705-.146485.353514-.146485z" fill="#1e8bcd" transform="translate(12.026531 1.9899)"/></svg>