<svg viewBox="0 0 32 32" xmlns="http://www.w3.org/2000/svg"><path d="m6.5 3.5-2 2v2l8 10.5v6.5l2.5 1.785156v-7.285156h4.5v-1l8-10.5v-2l-2-2z" fill="#fafafa" fill-rule="evenodd"/><path d="m25.080078 15.605938-1.882812 4.394531h-7.197266v2h6.339844l-1.285156 3h-5.054688v2h4.197266l-1.117188 2.605469 1.839844.789062 1.455078-3.394531h7.625v-2h-6.767578l1.285156-3h5.482422v-2h-4.625l1.544922-3.605469z" fill="#1e8bcd"/><path d="m6.5 3a.50005.50005 0 0 0 -.3535156.1464844l-2 2a.50005.50005 0 0 0 -.1464844.3535156v2a.50005.50005 0 0 0 .1015625.3027344l7.8984375 10.3652346v6.332031a.50005.50005 0 0 0 .208984.40625l2.791016 1.994141v-1.228516l-2-1.429687v-6.242188a.50005.50005 0 0 0 -.101562-.302734l-7.898438-10.3652348v-1.625l1.7070312-1.7070312h18.5859378l1.707031 1.7070312v1.625l-7.898438 10.3652348a.50005.50005 0 0 0 -.101562.302734v1h1v-.832031l7.898438-10.3652346a.50005.50005 0 0 0 .101562-.3027344v-2a.50005.50005 0 0 0 -.146484-.3535156l-2-2a.50005.50005 0 0 0 -.353516-.1464844z" fill="#3a3a38" fill-rule="evenodd"/></svg>