<svg viewBox="0 0 32 32" xmlns="http://www.w3.org/2000/svg"><path d="m12.902344 2c-.07231.2079471-.184673.4034225-.345703.5644531l-.435547.4355469h14.878906v26h-22v-17.5-.902344c-.1150963-.042414-.2246482-.089042-.3359375-.140625l-.6640625.664063v17.878906c0 .554.446 1 1 1h22c.554 0 1-.446 1-1v-26c0-.554-.446-1-1-1z" fill="#3a3a38"/><path d="m12.121094 3-1.664063 1.6640625c.051287.1111654.096526.2209951.138672.3359375h.904297c.813719 0 1.5.6862809 1.5 1.5s-.686281 1.5-1.5 1.5h-.904297c-.042065.1142616-.087569.2234686-.138672.3339844l2.089844 2.0898436c.530915.530913.648074 1.473041.042969 2.078125l-.087891.087891c-.605087.605105-1.549964.481267-2.076172-.044922l-2.0898435-2.089844c-.1110863.05139-.2210664.096414-.3359375.138672v.90625c0 .813719-.6862809 1.5-1.5 1.5s-1.5-.686281-1.5-1.5v17.5h22v-26z" fill="#fafafa"/><g fill="#797774"><path d="m12.962891 6.8164062c-.149621.6676356-.757323 1.1835938-1.462891 1.1835938h-.904297c-.042065.1142616-.087569.2234686-.138672.3339844l2.089844 2.0898436c.530915.530913.648074 1.473041.042969 2.078125l-.087891.087891c-.605087.605105-1.549964.481267-2.076172-.044922l-2.0898435-2.089844c-.1110863.05139-.2210664.096414-.3359375.138672v.90625c0 .638825-.4244492 1.194917-1 1.40625v.09375c0 .554.446 1 1 1h4c.554 0 1-.446 1-1v-6c0-.0651216-.025333-.1220057-.037109-.1835938z" fill="#797774"/><rect height="1" ry=".5" width="10" x="15" y="7"/><rect height="1" ry=".452061" width="18" x="7" y="25"/><rect height="1" ry=".5" width="10" x="15" y="11"/><rect height="1" ry=".452061" width="18" x="7" y="21"/><rect height="1" ry=".452061" width="18" x="7" y="17"/></g><path d="m1.5078125 1.000109c-.125814-.002003-.2508351.043843-.3457032.1387087l-.021483.022677c-.18973359.1897324-.18610298.5013923.0097703.6972852l2.5488222 2.5488a3.5000001 3.5000001 0 0 0 -.6601563 1.5937512h-1.5390625c-.277 0-.5.2229921-.5.5000315s.2230001.4999937.5.4999937h1.5410156a3.5000001 3.5000001 0 0 0 .6582032 1.5937512l-2.5371094 2.5370835c-.19586871.19578-.21625964.492737-.044922.664063l.087891.08806c.1713377.171213.4681939.150803.6640625-.04498l2.5371091-2.5384375a3.5000001 3.5000001 0 0 0 1.5937501.6620976v1.5370959c0 .27704.2229997.499994.5000001.499994.2770016 0 .4999997-.222992.4999997-.499994v-1.5410266a3.5000001 3.5000001 0 0 0 1.5937501-.6601323l2.539062 2.5390489c.19587.19578.490772.216189.66211.04498l.08789-.08806c.171341-.171212.152901-.46817-.04297-.664063l-2.5390607-2.5390555a3.5000001 3.5000001 0 0 0 .6601561-1.5917858h1.5390626c.277002 0 .5-.2229921.5-.4999937 0-.2770394-.223-.5000315-.5-.5000315h-1.5410155a3.5000001 3.5000001 0 0 0 -.6582032-1.5937512l2.5488277-2.5488001c.19587-.1957795.201453-.5075527.01172-.697285l-.021471-.0226772c-.18974-.18973225-.501402-.18406296-.697271.0113386l-2.548837 2.5488378a3.5000001 3.5000001 0 0 0 -1.5937501-.66017v-1.5390615c0-.2770394-.2229996-.49999369-.4999997-.49999369-.2770016 0-.5000001.22299209-.5000001.49999369v1.5410268a3.5000001 3.5000001 0 0 0 -1.5937501.6582047l-2.5488281-2.5488378c-.0979343-.0978897-.2237952-.1485354-.3496093-.15042518zm4.9921877 3a2.5 2.5 0 0 1 2.4999999 2.5000064 2.5 2.5 0 0 1 -2.4999999 2.4999685 2.5 2.5 0 0 1 -2.5000003-2.4999685 2.5 2.5 0 0 1 .7226563-1.755893l.021468-.022677a2.5 2.5 0 0 1 1.755876-.7206805z" fill="#ed8733"/><circle cx="6.5" cy="6.50005" fill="#fafafa" r="2.5"/></svg>