<svg height="32" viewBox="0 0 8.4666665 8.4666669" width="32" xmlns="http://www.w3.org/2000/svg" xmlns:xlink="http://www.w3.org/1999/xlink"><linearGradient id="a" gradientUnits="userSpaceOnUse" x1="77.999999" x2="77.999999" xlink:href="#b" y1="36.000055" y2="18.000055"/><linearGradient id="b" gradientUnits="userSpaceOnUse" x1="70" x2="70" y1="42" y2="24"><stop offset="0" stop-color="#e9e9e9"/><stop offset=".2857143" stop-color="#f2f2f2"/><stop offset="1" stop-color="#fbfbfb"/></linearGradient><linearGradient id="c" gradientUnits="userSpaceOnUse" x1="69.99999764641" x2="69.99999764641" xlink:href="#b" y1="42.00005474532" y2="24.00005502657"/><g stroke-width=".264583" transform="scale(.26458333)"><path d="m12 9v.8769531l.546875.5468749c.530915.530913.648074 1.473041.042969 2.078125l-.087891.087891c-.150146.150151-.321551.254939-.501953.320312v3.546875l3.167969-3.167969a1.0017879 1.0017879 0 0 1 1.417969 0l2.125 2.125a1.0017879 1.0017879 0 0 1 0 1.417969l-5.167969 5.167969h14.457031v-13z" fill="url(#a)"/><path d="m4 15v9.457031l9.457031-9.457031zm14.296875 0 .414063.414062a1.0017879 1.0017879 0 0 1 0 1.417969l-11.1679692 11.167969h12.4570312v-13z" fill="url(#c)" stroke-width=".999999"/><path d="m12.121094 3-1.121094 1.1210938v.8789062h.5c.813719 0 1.5.6862809 1.5 1.5s-.686281 1.5-1.5 1.5h-.5v.8769531l1.546875 1.5468749c.530915.530913.648074 1.473041.042969 2.078125l-.087891.087891c-.605087.605105-1.549964.481267-2.076172-.044922l-2.0898435-2.089844c-.1110863.05139-.2210664.096414-.3359375.138672v.90625c0 .813719-.6862809 1.5-1.5 1.5s-1.5-.686281-1.5-1.5v-.902344c-.1150963-.042414-.2246482-.089042-.3359375-.140625l-1.6640625 1.664063v13.335937l1-1v-9.457031h7v2.457031l1-1v-1.457031h1.457031l1.710938-1.710938a1.0017879 1.0017879 0 0 1 1.417969 0l1.710937 1.710938h1.703125v7h-6.457031l-1 1h7.457031v5h-12.4570312l-1 1h13.4570312c.554 0 1-.445997 1-1v-5h7c.554 0 1-.445997 1-1v-18c0-.5540031-.446-1-1-1zm7.878906 6h8v13h-7v-12c0-.5540031-.446-1-1-1z" fill="#3a3a38"/></g><g fill="#bababa" transform="matrix(.26458333 0 0 .26458333 0 .00002)"><path d="m6 16h4v1h-4z" fill="#797774"/><path d="m14 16h4v1h-4z" fill="#1e8bcd"/><path d="m6 19v1h2.4570312l1-1z" transform="translate(0 -.000076)"/><path d="m16.542969 19-1 1h2.457031v-1z" fill="#1e8bcd" transform="translate(0 -.000076)"/><g fill="#797774"><path d="m6 22v.457031l.4570312-.457031z" transform="translate(0 -.000076)"/><path d="m10 25.542969-.4570312.457031h.4570312z" transform="translate(0 -.000076)"/><path d="m14 25h4v1h-4z"/><path d="m22 10h4v1h-4z"/><path d="m22 13h4v1h-4z"/><path d="m22 16h4v1h-4z"/><path d="m22 19h4v1h-4z"/></g></g><g transform="scale(.26458333)"><g stroke-width=".999999"><path d="m11.123047 9 1.423828 1.423828c.530915.530913.648074 1.473041.042969 2.078125l-.087891.087891c-.605087.605105-1.549964.481267-2.076172-.044922l-2.0898435-2.089844c-.1110863.05139-.2210664.096414-.3359375.138672v.90625c0 .813719-.6862809 1.5-1.5 1.5s-1.5-.686281-1.5-1.5v-.902344c-.1150963-.042414-.2246482-.089042-.3359375-.140625l-1.6640625 1.664063v2.878906h10.457031l1.710938-1.710938a1.0017879 1.0017879 0 0 1 1.417969 0l1.710937 1.710938h2.703125v-4-1c0-.5540031-.446-1-1-1z" fill="#3a3a38"/><path d="m12.123047 10 .423828.423828c.530915.530913.648074 1.473041.042969 2.078125l-.087891.087891c-.150146.150151-.321551.254939-.501953.320312v1.089844h8v-4zm-3.7871095.455078c-.1110863.05139-.2210664.096414-.3359375.138672v.90625c0 .813719-.6862809 1.5-1.5 1.5s-1.5-.686281-1.5-1.5v-.902344c-.1150963-.042414-.2246482-.089042-.3359375-.140625l-.6640625.664063v2.878906h7v-1.103516c-.215043-.076482-.414889-.192238-.574219-.351562z" fill="#797774"/><path d="m12.121094 3-1.121094 1.1210938v.8789062h.5c.813719 0 1.5.6862809 1.5 1.5s-.686281 1.5-1.5 1.5h-.5v.8769531l.123047.1230469h17.876953v-4-1c0-.5540031-.446-1-1-1z" fill="#3a3a38"/></g><path d="m12 4v1.09375c.575551.2113333 1 .7674249 1 1.40625s-.424449 1.1949167-1 1.40625v.09375h16v-4z" fill="#797774" stroke-width="1.598022"/></g><path d="m.39894206.26461217c-.0332883-.00052996-.0663668.0116001-.0914673.0367l-.005684.006c-.0502004.0502-.0492398.13266004.002585.18449004l.67437588.67436999a.9260417.9260417 0 0 0 -.17466635.42168h-.40721029c-.0732896 0-.13229167.059-.13229167.1323s.0590021.13229.13229167.13229h.40772705a.9260417.9260417 0 0 0 .17414959.42168l-.67127686.67127c-.0518236.0518-.0572187.13037-.0118856.1757l.0232545.023299c.0453331.0453.1238763.0399.17569987-.011901l.67127675-.671628a.9260417.9260417 0 0 0 .4216797.17518v.40669c0 .0733.059002.13229.1322917.13229.07329 0 .1322916-.059.1322916-.13229v-.40773a.9260417.9260417 0 0 0 .4216797-.17466l.6717935.67179c.051824.0518.1298501.0572.1751833.011901l.023254-.023299c.045334-.0453.040455-.12387-.011369-.1757l-.6717931-.671792a.9260417.9260417 0 0 0 .1746663-.42116h.4072103c.07329 0 .1322917-.059.1322917-.13229 0-.0733-.059002-.1323-.1322917-.1323h-.407727a.9260417.9260417 0 0 0 -.1741496-.42168l.6743774-.67437004c.051824-.0518.053301-.13428998.0031-.18448999l-.00568-.006c-.050202-.0502-.1326626-.0487-.1844863.003l-.6743798.67438a.9260417.9260417 0 0 0 -.4216797-.17466998v-.40721002c0-.0733-.059002-.13229-.1322916-.13229-.07329 0-.1322917.059-.1322917.13229v.40773001a.9260417.9260417 0 0 0 -.4216797.17414999l-.67437742-.67438c-.0259118-.0259-.0592125-.0393-.0925008-.0398zm1.32084964.79375003a.66145834.66145834 0 0 1 .6614583.66146.66145834.66145834 0 0 1 -.6614583.66145.66145834.66145834 0 0 1 -.6614584-.66145.66145834.66145834 0 0 1 .1912028-.46458l.00568-.006a.66145834.66145834 0 0 1 .4645755-.19068z" fill="#ed8733"/><circle cx="1.719792" cy="1.719805" fill="#fafafa" r=".661458"/><g transform="matrix(.18744215 .18744215 -.18744215 .18744215 3.263658 -.607697)"><path d="m14 9h3v21h-3z" fill="#3a3a38"/><path d="m15 10h1v5h-1z" fill="#fafafa"/></g></svg>