<svg viewBox="0 0 32 32" xmlns="http://www.w3.org/2000/svg"><path d="m4 4v24h10v-6c0-.554.446-1 1-1h2v-4c0-.554.446-1 1-1h9c.554 0 1 .446 1 1v-13z" fill="#fafafa" fill-opacity=".959559"/><path d="m3 3v26h11v-1h-2-1-7v-4-1-4-1-4-1-4-1-4h7 1 8 1 7v4 1 4 1 3 4h1v-18z" fill="#3a3a38"/><path d="m11 4v4h-7v1h7v4h-7v1h7v4h-7v1h7v4h-7v1h7v4h1v-4h2v-1h-2v-4h5v-1h-5v-4h8v2h1v-2h7v-1h-7v-4h7v-1h-7v-4h-1v4h-8v-4zm1 5h8v4h-8z" fill="#797774"/><path d="m11 4v4h-7v1h7v4h-7v1h7 1 8 1v-10h-1v4h-8v-4zm1 5h8v4h-8z" fill="#1e8bcd"/><path d="m4 4h16v9h-16z" fill="#1e8bcd" opacity=".5"/><path d="m18.857422 17c-.474857 0-.857422.382565-.857422.857422v4.142578h1 7 1v-4.142578c0-.474857-.382565-.857422-.857422-.857422zm.142578 1h7v3h-7zm-3 4c-.554 0-1 .446-1 1v5c0 .554.446 1 1 1h3v2.142578c0 .474857.382565.857422.857422.857422h5.285156c.474857 0 .838139-.382957.857422-.857422v-2.142578h3c.554 0 1-.446 1-1v-5c0-.554-.446-1-1-1h-1v2h-1-9-1v-2zm4 6h5v3h-5z" fill="#3a3a38"/><path d="m16 23v5h4 5 4v-5h-1v1h-1-9-1v-1z" fill="#797774" fill-opacity=".959559"/><path d="m27 27h2v1h-2z" fill="#fafafa"/><path d="m18 22h9v1h-9z" fill="#1e8bcd"/><path d="m19 18v3h7v-3zm1 10v3h5v-3z" fill="#fafafa"/><path d="m3 3v11h1v-10h17v-1h-17z" fill="#0063b1" fill-opacity=".959559"/></svg>