<svg viewBox="0 0 32 32" xmlns="http://www.w3.org/2000/svg"><path d="m29 16a13 13 0 0 1 -13 13 13 13 0 0 1 -13-13 13 13 0 0 1 13-13 13 13 0 0 1 13 13z" fill="#ed8733"/><path d="m28 16a12 12 0 0 1 -12 12 12 12 0 0 1 -12-12 12 12 0 0 1 12-12 12 12 0 0 1 12 12z" fill="#f8db8f"/><g fill="#a05a00"><path d="m7 17c0 3.313708 4.581722 7 9 7s9-3.686292 9-7h-.5-.5-16-.5zm1.1484375 1h15.7109375c-.665329 2.328167-4.532729 5.000273-7.859375 5-3.32371-.002377-7.1868218-2.673886-7.8515625-5z" fill="#ed8733"/><path d="m12 9a2 2 0 0 0 -2 2 2 2 0 0 0 2 2 2 2 0 0 0 2-2 2 2 0 0 0 -2-2zm0 1a1 1 0 0 1 1 1 1 1 0 0 1 -1 1 1 1 0 0 1 -1-1 1 1 0 0 1 1-1z" fill="#3a3a38"/><path d="m20 9a2 2 0 0 0 -2 2 2 2 0 0 0 2 2 2 2 0 0 0 2-2 2 2 0 0 0 -2-2zm0 1a1 1 0 0 1 1 1 1 1 0 0 1 -1 1 1 1 0 0 1 -1-1 1 1 0 0 1 1-1z" fill="#3a3a38"/><path d="m8.1484375 18h15.7109375c-.665329 2.328167-4.532729 5.000273-7.859375 5-3.32371-.002377-7.1868218-2.673886-7.8515625-5z" fill="#fafafa"/><path d="m12 10c.552285 0 1 .447715 1 1s-.447715 1-1 1-1-.447715-1-1 .447715-1 1-1z" fill="#3a3a38"/><path d="m20 10c.552285 0 1 .447715 1 1s-.447715 1-1 1-1-.447715-1-1 .447715-1 1-1z" fill="#3a3a38"/><path d="m16 19a8 3 0 0 0 -6.3730469 1.191406c1.5809849 1.541265 4.0922839 2.806963 6.3730469 2.808594 2.282778.000187 4.796265-1.264715 6.378906-2.806641a8 3 0 0 0 -6.378906-1.193359z" fill="#ed3d3b"/></g></svg>