<svg viewBox="0 0 32 32" xmlns="http://www.w3.org/2000/svg"><path d="m5 2c-.554 0-1 .446-1 1v26c0 .554.446 1 1 1h12.585938l-1-1h-11.585938v-26h22v15.585938l1-1v-14.585938c0-.554-.446-1-1-1zm23 20.414062-1 1v5.585938h-5.585938l-1 1h6.585938c.554 0 1-.446 1-1z" fill="#3a3a38"/><path d="m5 3v26h11.585938l-4.292969-4.292969a1.0001 1.0001 0 0 1 0-1.414062l1-1a1.0001 1.0001 0 0 1 1.414062 0l4.292969 4.292969 8-8v-15.585938zm22 20.414062-5.585938 5.585938h5.585938z" fill="#fafafa"/><rect fill="#797774" height="8" ry="1" width="6" x="7" y="6"/><path d="m15.5 7c-.277 0-.5.223-.5.5s.223.5.5.5h9c.277 0 .5-.223.5-.5s-.223-.5-.5-.5zm0 4c-.277 0-.5.223-.5.5s.223.5.5.5h9c.277 0 .5-.223.5-.5s-.223-.5-.5-.5zm-8.0488281 6c-.2504418 0-.4511719.20073-.4511719.451172v.097656c0 .250438.2007301.451172.4511719.451172h17.0976561c.250442 0 .451172-.20073.451172-.451172v-.097656c0-.250438-.20073-.451172-.451172-.451172zm0 4c-.2504418 0-.4511719.20073-.4511719.451172v.097656c0 .250438.2007301.451172.4511719.451172h6.5332031 9.601563l.99414-.994141c-.010895-.000776-.020146-.005859-.03125-.005859zm0 4c-.2504418 0-.4511719.20073-.4511719.451172v.097656c0 .250438.2007301.451172.4511719.451172h6.1347661l-1-1zm9.9628901 0 1 1h1.171876l1-1zm7.580079.419922-.580079.580078h.134766c.250442 0 .451172-.20073.451172-.451172v-.097656c0-.011104-.005083-.020355-.005859-.03125z" fill="#797774"/><path d="m19 30-6-5.999999 1-1 5 4.999999 11-10.999999 1 1z" fill="#1e8bcd"/></svg>