<svg viewBox="0 0 32 32" xmlns="http://www.w3.org/2000/svg"><g transform="matrix(1.1759688 0 0 1.1823114 2.471687 2.989148)"><path d="m9.4826858 7.014209 7.3972132 5.217215c.907371.545594 1.173892 1.818531.117811 2.523559l-.99771.245017-9-6 .1052786-1.4242999c.4973822-.8952347 1.238349-1.2182456 2.3773917-.5614919z" fill="#3a3a38"/><path d="m10.185547 14.8125-3.4394532 6.455078c-1.8724132 3.627549-.083127 7.732422 3.8105472 7.732422h9.542968l-1.6875-1.625c-.392791-.263593-.550975-.922984-.158203-1.40625l.837891-1.496094.208984-.373047 1.228516-2.193359zm.445312 1.642578c.01041-.000525.02084-.000525.03125 0 .06339-.000339.125388.01874.177735.05469l8.097656 5.552732c.133481.09258.174219.272511.09375.414062l-.386719.691407-10.4179685-2.494141 2.1601565-4.052734c.04864-.09291.140262-.15522.24414-.166016zm-2.9707028 5.28125 10.3925778 2.488281-.605468 1.080079.01367.0098c-.553979.681613-.45227 1.462966-.04297 2.183594.120339.20966-.03072.471568-.271485.470703h-6.589843c-1.5739909 0-2.6026258-.776762-3.1425785-1.917969-.5400183-1.141345-.548719-2.702603.2148437-4.232422.0001602-.000675.00188-.0084.00391-.01563.00114-.0023.0008087-.0055.00195-.0078.00518-.01027.00842-.01903.013672-.0293.0015-.0029.0004449-.0068.00195-.0098l.00195-.0039c.0009664-.0022.0058-.0097.00586-.0098.000002-.000651.000002-.0013 0-.002z" fill="#ed8733" stroke-width="1.179136" transform="matrix(.8503627 0 0 .84580086 -2.10183 -2.528224)"/><path d="m19 1-6 9" fill="none" stroke="#3a3a38" stroke-linecap="round" stroke-width="2"/><g stroke-width="1.179136" transform="matrix(.8503627 0 0 .84580086 -2.10183 -2.528224)"><path d="m7.6601562 21.736328-.00195.0039c-.000002.000651-.000002.0013 0 .002-.0000549.000104-.00489.0076-.00586.0098l-.00195.0039c-.00151.0029-.0004508.0068-.00195.0098-.00525.01027-.00849.01903-.013672.0293-.00114.0023-.0008122.0055-.00195.0078-.00202.0073-.00375.01495-.00391.01563-.7635627 1.529819-.754862 3.091077-.2148437 4.232422.5399527 1.141207 1.5685876 1.917969 3.1425785 1.917969h6.589843c.240764.000865.391824-.261043.271485-.470703-.409301-.720628-.51101-1.501981.04297-2.183594l-.01367-.0098.605468-1.080079z" fill="#f8db8f"/><path d="m10.630859 16.455078c-.103878.0108-.195504.0731-.24414.166016l-2.1601565 4.052734 10.4179685 2.494141.386719-.691407c.08047-.141551.03973-.321477-.09375-.414062l-8.097656-5.552734c-.05235-.03595-.114341-.05503-.177735-.05469-.01041-.000525-.02084-.000525-.03125 0z" fill="#fafafa"/></g></g></svg>