<svg viewBox="0 0 32 32" xmlns="http://www.w3.org/2000/svg"><path d="m11.398438 4a5.5 5.5 0 0 1 .601562 2.5 5.5 5.5 0 0 1 -5.5 5.5 5.5 5.5 0 0 1 -2.5-.607422v16.607422h24v-24z" fill="#fafafa"/><path d="m10.736328 3a5.5 5.5 0 0 1 .66211 1h16.601562v17 1 6h-24v-6-1-9.607422a5.5 5.5 0 0 1 -1-.652344v18.259766h26v-26z" fill="#3a3a38"/><path d="m11.398438 4a5.5 5.5 0 0 1 .601562 2.5v-2.5zm.601562 2.5a5.5 5.5 0 0 1 -1.259766 3.5h.259766v5h-7v1h7v5h-7v1h7v6h1v-6h8v6h1v-6h7v-1h-7v-5h7v-1h-7v-5h7v-1h-7v-5h-1v5h-8zm0 3.5h8v5h-8zm0 6h8v5h-8z" fill="#797774"/><path d="m11.398438 4a5.5 5.5 0 0 1 .601562 2.5 5.5 5.5 0 0 1 -.607422 2.5h16.607422v-5z" fill="#83beec"/><path d="m11 9.65625a5.5 5.5 0 0 1 -4.5 2.34375 5.5 5.5 0 0 1 -2.5-.607422v16.607422h7z" fill="#83beec"/><path d="m10.736328 3a5.5 5.5 0 0 1 1.263672 3.5v-2.5h6.978516l-6.115235 3.8046875-.322265.1953125h.007812l-.548828.3417969v-1.3417969-.5a5.5 5.5 0 0 1 -4.5410156 5.414062l-.9453125.675782-2.5136719 1.751953v-2.949219a5.5 5.5 0 0 1 -1-.652344v5.259766 6 7h9v-8-4-7h10.5 6.5v-7h-9-8-1zm10.263672 1h6.167969l-6.167969 4.3417969v-.3417969-2zm-1 .6132812v1.3867188 2 1h-7.232422l3.714844-2.3105469zm8 0v4.3867188h-5.5-.732422zm-17 6.0449218v4.341797h-1-.5-4.640625l3.625-2.589844zm-7 5.341797h5.5.5.232422l-.203125.140625c-.002597-.018137-.010045-.034296-.011719-.052734l-3.4843749 2.488281-2.5332031 1.765625zm7 .658203v.341797 4h-6.140625l3.625-2.589844zm-7 5.341797h6.232422l-6.232422 5.341797zm7 .658203v5.341797h-6.2324219z" fill="#0063b1"/><path d="m6.5 2c-.8284271 0-1.5.4477153-1.5 1 .6583105.952402 1 .8379831 1 2.0878906-.17281.0608692-.3330065.1528829-.4726562.2714844-1.0444016-.3558189-1.006659-1.1950217-1.3085938-1.9082031-.4782064-.2755382-1.2011195.0819847-1.6152344.7988281-.4140922.7170712-.3625121 1.5222457.1152344 1.7988281 1.1537964-.09135 1.2251599-.4472633 2.3066406.1777344-.0168066.0901777-.0253057.181707-.0253906.2734375.0000849.09173.00858.1832598.025391.2734375-.8299181.7260213-1.5387901.2727246-2.306641.1777344-.4777465.2765824-.5293266 1.0817569-.1152344 1.7988281.4141149.7168434 1.137028 1.0743663 1.6152344.7988281.496724-1.0450426.2265792-1.2841278 1.3085938-1.9082031.1396497.1186015.2998462.2106152.4726562.2714844.2138027 1.0835323-.5321375 1.4695824-1 2.0878906 0 .552285.6715729 1 1.5 1s1.5-.447715 1.5-1c-.6583105-.952402-1-.8379831-1-2.0878906.17281-.0608692.3330065-.1528829.4726562-.2714844 1.0444016.3558189 1.006659 1.1950217 1.3085938 1.9082031.4782064.2755378 1.2011192-.081985 1.615234-.7988281.414092-.717071.362512-1.5222455-.115234-1.7988281-1.1537964.09135-1.2251599.4472633-2.3066406-.1777344.0168066-.0901777.0253057-.181707.0253906-.2734375-.0000849-.0917305-.008584-.1832598-.0253906-.2734375.8299177-.7260213 1.5387897-.2727246 2.3066406-.1777344.477746-.2765826.529326-1.0817571.115234-1.7988281-.4141148-.7168431-1.1370276-1.0743659-1.615234-.7988281-.496724 1.0450426-.2265792 1.2841278-1.3085938 1.9082031-.1396497-.1186015-.2998462-.2106152-.4726562-.2714844-.2138027-1.0835323.5321375-1.4695824 1-2.0878906 0-.5522847-.6715729-1-1.5-1z" fill="#1e8bcd"/></svg>