<svg height="32" viewBox="0 0 8.4666665 8.4666669" width="32" xmlns="http://www.w3.org/2000/svg"><g transform="translate(0 -288.53332)"><path d="m1.0583333 289.59167v6.61458h6.35v-6.61458z" fill="#fafafa" stroke-width=".408261"/><path d="m1.0583333 289.32708c-.14657913 0-.2645833.11801-.2645833.26459v6.35c0 .14658.0818026.26458.2645833.26458h6.35c.1569953 0 .2645834-.118.2645834-.26458v-6.35c0-.14658-.1180042-.26459-.2645834-.26459zm0 .26459h6.35v6.35h-6.35z" fill="#3a3a38" stroke-width=".264583"/><g fill="#c8c6c4"><path d="m1.0583333 293.03125h6.3499999v.26458h-6.3499999z" stroke-width=".346421"/><path d="m1.0583333 294.08958h6.3499999v.26459h-6.3499999z" stroke-width=".346421"/><path d="m1.0583333 295.14792h6.3499999v.26458h-6.3499999z" stroke-width=".346421"/><g stroke-width=".305515"><path d="m2.1166666 289.59167v6.35h-.2645833v-6.35z"/><path d="m3.175 289.59167v6.35h-.2645834v-6.35z"/><path d="m4.2333333 289.59167v6.35h-.2645833v-6.35z"/><path d="m5.2916666 289.59167v6.35h-.2645833v-6.35z"/><path d="m6.3499999 289.59167v6.35h-.2645833v-6.35z"/></g><path d="m1.0583333 291.97292h6.3499999v.26458h-6.3499999z" stroke-width=".359498"/><path d="m1.0583333 290.91458h6.3499999v.26459h-6.3499999z" stroke-width=".359498"/><path d="m1.0583333 289.85625h6.3499999v.26458h-6.3499999z" stroke-width=".359498"/></g><path d="m7.2574383 289.59167c-.062752.001-.1158568.0468-.1271241.10852-.5230357 3.10127-3.2313573 5.70729-5.9713991 5.98324-.17638711.0447-.1004171.30977.072864.25424.1062824.0101.2143189-.0151.3529501-.0434 2.6631846-.37302 5.3206596-2.91109 5.8101686-5.9295.00234-.0129.00776-.0245.013436-.0357v-.17776c.017663-.0834-.065645-.16152-.1508952-.15968z" fill="#1e8bcd" stroke-width=".264583"/></g></svg>