<svg viewBox="0 0 32 32" xmlns="http://www.w3.org/2000/svg"><path d="m4 11c-.554 0-1 .446-1 1v13c0 .554.446 1 1 1h14c.554 0 1-.446 1-1v-13c0-.554-.446-1-1-1zm0 1h14v13h-14z" fill="#3a3a38"/><circle cx="21" cy="11" fill="#fafafa" r="7"/><path d="m4 12h14v13h-14z" fill="#fafafa"/><path d="m21 3a8 8.0000003 0 0 0 -8 8 8 8.0000003 0 0 0 8 8 8 8.0000003 0 0 0 8-8 8 8.0000003 0 0 0 -8-8zm0 1a7 7 0 0 1 7 7 7 7 0 0 1 -7 7 7 7 0 0 1 -7-7 7 7 0 0 1 7-7z" fill="#3a3a38"/><path d="m19.9 28.393355 8.493356-8.493355-8.493356-8.493351-8.493357 8.493351z" fill="#fafafa" fill-rule="evenodd" stroke="#3a3a38" stroke-linecap="round" stroke-linejoin="round"/></svg>