<svg height="32" viewBox="0 0 32 32" width="32" xmlns="http://www.w3.org/2000/svg"><g stroke-width=".750002" transform="matrix(1.33333 0 0 1.33333 1.00007 .33334)"><path d="m2.2499531 11.000023v1.500004h6.0000151v-1.500004z" fill="#ed3d3b"/><path d="m9.3749713 1.2499978c-.2077513 0-.375001.1672509-.375001.3750009 0 .207751.1672497.3750009.375001.3750009h10.5000267c.207751 0 .375001-.1672499.375001-.3750009 0-.20775-.16725-.3750009-.375001-.3750009zm0 2.2500056c-.2077513 0-.375001.16725-.375001.3750009 0 .20775.1672497.375001.375001.375001h10.5000267c.207751 0 .375001-.167251.375001-.375001 0-.2077509-.16725-.3750009-.375001-.3750009zm1.5000037 3.7500094c-.207751 0-.375001.1672504-.375001.3750009 0 .2077506.16725.375001.375001.375001h9.000023c.207751 0 .375001-.1672504.375001-.375001 0-.2077505-.16725-.3750009-.375001-.3750009zm0 2.2500056c-.207751 0-.375001.1672505-.375001.375001 0 .2077506.16725.3750006.375001.3750006h9.000023c.207751 0 .375001-.16725.375001-.3750006 0-.2077505-.16725-.375001-.375001-.375001zm0 3.7500096c-.207751 0-.375001.167251-.375001.375001 0 .207751.16725.375001.375001.375001h9.000023c.207751 0 .375001-.16725.375001-.375001 0-.20775-.16725-.375001-.375001-.375001zm0 2.250005c-.207751 0-.375001.16725-.375001.375001 0 .20775.16725.375001.375001.375001h9.000023c.207751 0 .375001-.167251.375001-.375001 0-.207751-.16725-.375001-.375001-.375001zm-1.5000037 3.75001c-.2077513 0-.375001.167251-.375001.375001 0 .207751.1672497.375001.375001.375001h10.5000267c.207751 0 .375001-.16725.375001-.375001 0-.20775-.16725-.375001-.375001-.375001zm0 2.250006c-.2077513 0-.375001.167249-.375001.375 0 .20775.1672497.375001.375001.375001h10.5000267c.207751 0 .375001-.167251.375001-.375001 0-.207751-.16725-.375-.375001-.375z" fill="#3a3a38"/></g></svg>