<svg viewBox="0 0 32 32" xmlns="http://www.w3.org/2000/svg"><path d="m4 4h24v24h-24z" fill="#fafafa"/><path d="m3 3v26h26v-26zm1 1h9 1 7 1 6v5 1 5 1 5 1 6h-6-1-7-1-9v-6-1-5-1-5-1z" fill="#3a3a38"/><path d="m7 4v5h-3v1h3v5h-3v1h3v5h-3v1h3v6h1v-6h16v6h1v-6h3v-1h-3v-5h3v-1h-3v-5h3v-1h-3v-5h-1v5h-16v-5zm1 6h16v5h-16zm0 6h16v5h-16z" fill="#797774"/><path d="m12 6.5a1.5 1.5 0 0 1 -1.5 1.5 1.5 1.5 0 0 1 -1.5-1.5 1.5 1.5 0 0 1 1.5-1.5 1.5 1.5 0 0 1 1.5 1.5z" fill="#18ab50"/><path d="m12 12.5a1.5 1.5 0 0 1 -1.5 1.5 1.5 1.5 0 0 1 -1.5-1.5 1.5 1.5 0 0 1 1.5-1.5 1.5 1.5 0 0 1 1.5 1.5z" fill="#ed3d3b"/><path d="m14 6h8v1h-8z" fill="#797774"/><path d="m14 12h8v1h-8z" fill="#797774"/><path d="m12 18.5a1.5 1.5 0 0 1 -1.5 1.5 1.5 1.5 0 0 1 -1.5-1.5 1.5 1.5 0 0 1 1.5-1.5 1.5 1.5 0 0 1 1.5 1.5z" fill="#18ab50"/><path d="m12 24.5a1.5 1.5 0 0 1 -1.5 1.5 1.5 1.5 0 0 1 -1.5-1.5 1.5 1.5 0 0 1 1.5-1.5 1.5 1.5 0 0 1 1.5 1.5z" fill="#ed3d3b"/><g fill="#797774"><path d="m14 18h8v1h-8z"/><path d="m14 24h8v1h-8z"/></g></svg>