<svg height="32" viewBox="0 0 8.4666665 8.4666669" width="32" xmlns="http://www.w3.org/2000/svg"><g transform="translate(0 -288.53332)"><path d="m5 5v10 10h10.914062l-1.449218-1.447266c-.143354-.143323-.255502-.314908-.330078-.5-.06669-.165442-.109375-.357641-.109375-.5625s.04269-.397058.109375-.5625c.07458-.185054.18679-.356719.330078-.5l4.001953-3.998046c.288979-.288982.680927-.439454 1.0625-.439454.381541 0 .773521.150469 1.0625.439454.576036.576027.576028 1.548973 0 2.125l-1.435547 1.433593h7.84375v-5.988281-10z" fill="#fafafa" transform="matrix(.26458333 0 0 .26458333 0 288.53332)"/><path d="m5 4c-.5540001 0-1 .4459969-1 1v10 10c0 .554003.4459999 1 1 1h11.914062l-1-1h-4.914062-1-5v-6-1-3-1-1-8h5 1 6 1 9v8 1 1 3 1 1.988281h1v-5.988281-10c0-.5540031-.446-1-1-1z" fill="#3a3a38" transform="matrix(.26458333 0 0 .26458333 0 288.53332)"/><path d="m1.3229167 289.85625h5.8208333v1.05833h-5.8208333z" fill="#797774" stroke-width=".264583"/><path d="m1.3229167 290.91458h5.8208333v.26459h-5.8208333z" fill="#3a3a38" stroke-width=".264583"/><path d="m12.498047 12.001953c-.127809 0-.255582.04855-.353516.146485-.195869.195867-.195869.511162 0 .707031l3.148438 3.144531h-11.792969c-.277 0-.5.223-.5.5s.223.5.5.5h11.792969l-3.148438 3.144531c-.195869.195869-.195869.511163 0 .707031.09793.09793.225707.146485.353516.146485.12781 0 .255586-.04855.353515-.146485l4.001954-3.998046c.04702-.04701.08408-.103236.109375-.166016.02334-.057904.037109-.12105.037109-.1875s-.01377-.129596-.03711-.1875c-.0253-.06278-.06236-.119003-.109375-.166016l-4.001954-3.998046c-.09793-.09793-.225705-.146485-.353514-.146485z" fill="#1e8bcd" transform="matrix(-.26458333 0 0 .26458333 8.473686 290.11816331)"/></g></svg>