<svg viewBox="0 0 32 32" xmlns="http://www.w3.org/2000/svg"><path d="m11.121094 6-.664063.6640625c.051287.1111654.096526.2209951.138672.3359375h.904297c.813719 0 1.5.6862809 1.5 1.5s-.686281 1.5-1.5 1.5h-.904297c-.04207.114262-.08757.223469-.138672.333984l2.089844 2.089844c.530915.530913.648074 1.473041.04297 2.078125l-.08789.08789c-.605087.605105-1.549964.481267-2.076172-.04492l-2.0898455-2.089845c-.1110863.05139-.2210664.096414-.3359375.138672v.90625c0 .813719-.6862809 1.5-1.5 1.5s-1.5-.686281-1.5-1.5v-.902344c-.1150963-.042414-.2246482-.089042-.3359375-.140625l-1.6640625 1.664063v4.878906 6.998047h6.9980469l.0019531.001953h6 6l.002-.002h6.998v-6.998-13z" fill="#fafafa"/><path d="m12.121094 5-1 1h17.876953v.0019531 12.9980469 2.511719 4.488281h-4.404297-2.59375-.002v.002h-6-6.0000001v-.002h-.00195-2.59375-4.4042969v-4.488281-7.388672l-.421875.421875c-.1606229.160619-.3621538.27873-.578125.355469v5.591797 5.507812c0 .554.456533.892483 1 1h5.3847656 4.7246095 5.78125 4.724609 5.384766c.543467-.107517 1-.446 1-1v-5.507812-14.492188c0-.554-.446-1-1-1z" fill="#3a3a38"/><g fill="#c8c6c4" transform="translate(0 3)"><path d="m7 12h1v1h-1z"/><path d="m7 15h1v1h-1z"/><path d="m7 18h1v1h-1z"/><path d="m9 12h16v1h-16z"/><path d="m9 18h15v1h-15z" stroke-width="1.167748"/><path d="m9 15h12v1h-12z"/></g><path d="m10.595703 10c-.042065.114262-.087569.223469-.138672.333984l1.666016 1.666016h12.876953v-2h-13.5z" fill="#797774"/><path d="m1.5078125 3.000109c-.125814-.002-.2508351.043843-.3457032.1387087l-.021483.022677c-.18973359.1897324-.18610298.5013923.0097703.6972852l2.5488222 2.5488a3.5000001 3.5000001 0 0 0 -.6601563 1.5937512h-1.5390625c-.277 0-.5.2229921-.5.5000315s.2230001.4999937.5.4999937h1.5410156a3.5000001 3.5000001 0 0 0 .6582032 1.5937507l-2.5371094 2.537084c-.19586871.19578-.21625964.492737-.044922.664063l.087891.08806c.1713377.171213.4681939.150803.6640625-.04498l2.5371091-2.538437a3.5000001 3.5000001 0 0 0 1.5937501.662097v1.537096c0 .27704.2229997.499994.5000001.499994.2770016 0 .4999997-.222992.4999997-.499994v-1.541027a3.5000001 3.5000001 0 0 0 1.5937501-.660132l2.539062 2.539049c.19587.19578.490772.216189.66211.04498l.08789-.08806c.171341-.171212.152901-.46817-.04297-.664063l-2.5390607-2.539055a3.5000001 3.5000001 0 0 0 .6601561-1.5917863h1.5390626c.277002 0 .5-.2229921.5-.4999937 0-.2770394-.223-.5000315-.5-.5000315h-1.5410155a3.5000001 3.5000001 0 0 0 -.6582032-1.5937512l2.5488277-2.5488001c.19587-.1957795.201453-.5075527.01172-.697285l-.021471-.0226772c-.18974-.1897323-.501402-.184063-.697271.0113386l-2.548837 2.5488378a3.5000001 3.5000001 0 0 0 -1.5937501-.66017v-1.5390615c0-.2770394-.2229996-.4999937-.4999997-.4999937-.2770016 0-.5000001.2229921-.5000001.4999937v1.5410268a3.5000001 3.5000001 0 0 0 -1.5937501.6582047l-2.5488281-2.5488378c-.0979343-.0978897-.2237952-.1485354-.3496093-.1504252zm4.9921877 3a2.5 2.5 0 0 1 2.4999999 2.5000064 2.5 2.5 0 0 1 -2.4999999 2.4999686 2.5 2.5 0 0 1 -2.5000003-2.4999686 2.5 2.5 0 0 1 .7226563-1.755893l.021468-.022677a2.5 2.5 0 0 1 1.755876-.7206805z" fill="#ed8733"/><circle cx="6.5" cy="8.50005" fill="#fafafa" r="2.5"/></svg>