<svg height="32" viewBox="0 0 42.666667 42.666667" width="32" xmlns="http://www.w3.org/2000/svg" xmlns:xlink="http://www.w3.org/1999/xlink"><linearGradient id="a" gradientUnits="userSpaceOnUse" x1="6.666667" x2="34.715641" y1="36" y2="7.951027"><stop offset="0" stop-color="#83beec" stop-opacity=".007273"/><stop offset=".20833333" stop-color="#83beec" stop-opacity=".061818"/><stop offset=".70833331" stop-color="#1e8bcd"/><stop offset="1" stop-color="#0063b1"/></linearGradient><path d="m6 6v4h4v-4zm4 4v4h4v-4zm4 0h4v-4h-4zm4 0v4h4v-4zm4 0h4v-4h-4zm0 4v4h4v-4zm0 4h-4v4h4zm0 4v4h4v-4zm-4 0h-4v4h4zm-4 0v-4h-4v4zm-4 0h-4v4h4zm0-4v-4h-4v4zm4 0h4v-4h-4z" fill="#c8c6c4" transform="scale(1.3333333)"/><path d="m10 6v4h4v-4zm4 4v4h4v-4zm4 0h4v-4h-4zm4 0v4h4v-4zm0 4h-4v4h4zm0 4v4h4v-4zm0 4h-4v4h4zm-4 0v-4h-4v4zm-4 0h-4v4h4zm-4 0v-4h-4v4zm0-4h4v-4h-4zm0-4v-4h-4v4z" fill="#797774" transform="scale(1.3333333)"/><path d="m34.66667 8.000002-26.6666705-.0000033.0000007 26.6666683 26.6666698.000003z" fill="url(#a)"/><g stroke-width=".75" transform="scale(1.3333333)"><path d="m25 3v3.2929688l-18.7070312 18.7070312h-3.2929688v4h4v-3.292969l18.707031-18.707031h3.292969v-4z" fill="#3a3a38"/><path d="m26 4v2h2v-2zm-22 22v2h2v-2z" fill="#fafafa"/></g></svg>