<svg viewBox="0 0 32 32" xmlns="http://www.w3.org/2000/svg"><path d="m5 4c-.554 0-1 .446-1 1v13c0 .554.446 1 1 1h5v-1h-5v-13h17v9h1v-9c0-.554-.446-1-1-1z" fill="#3a3a38"/><path d="m5 5h17v13h-17z" fill="#fafafa"/><g fill="#3a3a38"><path d="m10 13c-.554 0-1 .446-1 1v7.828125 5.171875c0 .554.446 1 1 1h11v-1h-11v-4.171875-8.828125h4.732422 12.267578v4.171875 1.701172l1 1.001953v-1.703125-5.171875c0-.554-.446-1-1-1h-11.974609z"/><path d="m3 3h3v3h-3z"/><path d="m26 3h3v3h-3z"/><path d="m3 26h3v3h-3z"/></g><g fill="#fafafa"><path d="m10 14v13h11v-2h-7.5c-.813728 0-1.5-.686272-1.5-1.5s.686272-1.5 1.5-1.5h11.382812l-2.433593-2.439453c-.575303-.575303-.575306-1.545791 0-2.121094.288612-.288613.679483-.439453 1.060547-.439453.381057 0 .771936.15084 1.060546.439453l2.429688 2.433594v-5.873047z"/><path d="m4 4h1v1h-1z"/><path d="m27 4h1v1h-1z"/><path d="m4 27h1v1h-1z"/></g><path d="m23.509766 18c-.127809 0-.255582.04855-.353516.146484-.195869.195868-.195869.511163 0 .707032l4.136719 4.146484h-13.792969c-.277 0-.5.223-.5.5s.223.5.5.5h13.792969l-4.136719 4.146484c-.195869.195869-.195869.511164 0 .707032.097934.097934.225707.146484.353516.146484.12781 0 .255581-.04855.353515-.146484l4.990235-5c.04702-.04701.08408-.103236.109375-.166016.02334-.057904.037109-.12105.037109-.1875s-.01377-.129596-.03711-.1875c-.0253-.06278-.06236-.119003-.109375-.166016l-4.990235-5c-.097934-.097935-.225704-.146484-.353514-.146484z" fill="#1e8bcd"/></svg>