<svg viewBox="0 0 32 32" xmlns="http://www.w3.org/2000/svg"><path d="m5.13363 17.000006c.4098 0 .781737.0556 1.115812.16679.338531.107223.625836.260115.861917.458675.240534.19856.425389.438818.554566.720774.133629.277985.200444.585753.200444.923306 0 .289898-.04677.55994-.140311.810126-.09354.246215-.218263.482502-.374164.708861-.155902.222387-.33853.440804-.547885.655249-.209354.210474-.429844.422934-.661471.63738l-2.142538 1.918833 3.432071-.0038c.169265 0 .305122.04368.407573.13105.106904.08735.160356.202514.160356.345478v.527272h-6v-.482501c0-.09134.02005-.188633.06014-.291885.04455-.107222.120271-.206502.227172-.29784l2.579068-2.364854c.218263-.202532.4098-.395135.57461-.57781.169266-.182677.309578-.363367.420936-.542071.115813-.182675.202673-.365351.260579-.548027.05791-.186647.08686-.381236.08686-.583767 0-.365351-.10245-.64135-.30735-.827997s-.494432-.27997-.868597-.27997c-.160356 0-.307349.02184-.44098.06553-.13363.04368-.253897.103253-.360802.178704-.106903.07545-.198217.164805-.273942.268057-.07572.103251-.133626.214445-.173718.333581-.07127.182676-.169268.301812-.293988.357409-.120267.05559-.287305.06751-.501112.03574l-.855236-.13105c.06681-.38521.187079-.720779.360798-1.006706.173719-.289898.389755-.530156.648107-.720774.262807-.194589.563475-.339538.902005-.434846.33853-.09928.701559-.148921 1.08908-.148917z" fill="#1e8bcd"/><path d="m5.90625 5-2.90625 2.341797.552734.703125c.02913.03609.0716.07329.125.109375.05825.03158.122493.05288.195313.06641s.151845.01353.234375 0c.08252-.01354.163574-.05208.246094-.115234l1.259765-1.007813c-.01455.225564-.02148.442872-.02148.650391l-.000004 5.251949h1.408203v-8z" fill="#1e8bcd"/><g transform="translate(3)"><path d="m7 3v26h19v-20.6406494l-6-5.3593506z" fill="#fafafa"/><path d="m7 2c-.554 0-1 .446-1 1v26c0 .554.446 1 1 1h19c.554 0 1-.446 1-1v-18.109375-1.641221-.207924c0-.4506797.09887-.4265949-.604637-1.067589l-5.307389-5.2370335c-.709525-.7368575-1.478385-.7368575-1.094804-.7368575h-.331557-.661613zm0 1h12v6c0 .554.446016 1.004232 1 1h6v19h-19z" fill="#3a3a38"/><path d="m20 9h6l-6-6z" fill="#fafafa" fill-rule="evenodd"/><g fill="#3a3a38"><path d="m9 8h8v1h-8z"/><path d="m9 20h15v1h-15z"/></g></g></svg>