<svg viewBox="0 0 32 32" xmlns="http://www.w3.org/2000/svg"><path d="m3.5 3.5h25v19h-13l-7 6v-6h-5z" fill="#fafafa" fill-rule="evenodd" stroke="#3a3a38" stroke-linecap="round" stroke-linejoin="round"/><g fill="none" stroke="#4e83b9" stroke-width=".750002" transform="matrix(1.33333 0 0 1.33333 1.6667 2.66668)"><path d="m3.2499831 3.6249991h8.2500209"/><path d="m7.3749934 3.2499981v-1.5000037"/><path d="m5.1249878 4v1.8750047c.955687 1.7601166 2.8450773 3.5070512 4.5000113 4.5000113"/><path d="m9.6249991 4v1.8750047c-.955687 1.7601166-2.8450773 3.5070512-4.5000113 4.5000113"/></g><path d="m19.992214 15.047488h-.862564q-.146819 0-.238581-.07341-.08565-.07341-.134585-.183525l-.685157-1.933122h-3.315671l-.679039 1.927005q-.03671.103997-.140702.183524-.09788.07953-.238582.07953h-.862564l3.015915-8.038361h1.131733zm-4.955154-2.985327h2.752864l-1.137851-3.2361441q-.06117-.1468194-.122349-.3425786-.06118-.1957592-.116232-.4221057-.06118.232464-.12235.4282232-.06117.1957592-.116232.3425785z" fill="#3a3a38" transform="matrix(1.2532057 0 0 1.2532057 .991584 1.120574)"/></svg>