<svg viewBox="0 0 32 32" xmlns="http://www.w3.org/2000/svg"><path d="m28 16a12 12 0 0 1 -12 12 12 12 0 0 1 -12-12 12 12 0 0 1 12-12 12 12 0 0 1 12 12z" fill="#fafafa"/><path d="m21.992188 9c-.104161.00126-.207887.0195624-.306641.0527344l-5.919922 1.9707036c-2.516616.126915-4.615266 2.225611-4.742187 4.742187l-1.9707036 5.919922c-.2576328.780118.4815862 1.519346 1.2617186 1.261719l5.921875-1.970704c2.516615-.126916 4.613312-2.225612 4.740234-4.742187l1.972657-5.919922c.216003-.6505253-.271592-1.3198531-.957031-1.314453zm-5.992188 4a3 3 0 0 1 3 3 3 3 0 0 1 -3 3 3 3 0 0 1 -3-3 3 3 0 0 1 3-3z" fill="#1e8bcd"/><path d="m16 3c-7.1716829.0002268-12.9997729 5.8283171-13 13 .0002271 7.171683 5.8283171 12.999773 13 13 7.171683-.000227 12.999773-5.828317 13-13-.000227-7.1716828-5.828317-12.9997729-13-13zm0 1a12 12 0 0 1 12 12 12 12 0 0 1 -12 12 12 12 0 0 1 -12-12 12 12 0 0 1 12-12z" fill="#3a3a38"/></svg>