<svg viewBox="0 0 32 32" xmlns="http://www.w3.org/2000/svg"><path d="m19 3a10 10 0 0 0 -10 10 10 10 0 0 0 .203125 2h9.796875c.554 0 1 .446 1 1v6.949219a10 10 0 0 0 9-9.949219 10 10 0 0 0 -10-10z" fill="#ed8733"/><path d="m4 16c-.554 0-1 .446-1 1v11c0 .554.446 1 1 1h14c.554 0 1-.446 1-1v-11c0-.554-.446-1-1-1zm0 1h14v11h-14z" fill="#3a3a38"/><path d="m4 17h14v11h-14z" fill="#fafafa"/><path d="m19 4a9 9 0 0 0 -9 9 9 9 0 0 0 .236328 2h8.763672c.554 0 1 .446 1 1v5.933594a9 9 0 0 0 8-8.933594 9 9 0 0 0 -9-9z" fill="#f8db8f"/></svg>