<svg viewBox="0 0 32 32" xmlns="http://www.w3.org/2000/svg"><path d="m3.5 8c-.277 0-.5.223-.5.5s.223.5.5.5h11c.277 0 .5-.223.5-.5s-.223-.5-.5-.5zm0 4c-.277 0-.5.223-.5.5s.223.5.5.5h11c.277 0 .5-.223.5-.5s-.223-.5-.5-.5zm0 7c-.277 0-.5.223-.5.5s.223.5.5.5h11c.277 0 .5-.223.5-.5s-.223-.5-.5-.5zm0 4c-.277 0-.5.223-.5.5s.223.5.5.5h11c.277 0 .5-.223.5-.5s-.223-.5-.5-.5z" fill="#3a3a38"/><g fill="#1e8bcd"><path d="m28 9.501953c0 .12781-.04855.255582-.146484.353516l-5 4.998047c-.04701.04702-.103236.08407-.166016.109375-.0579.02334-.12105.03711-.1875.03711s-.129596-.01377-.1875-.03711c-.06278-.0253-.119003-.06236-.166016-.109375l-5-4.998047c-.097934-.097934-.146484-.225706-.146484-.353516 0-.127809.04855-.255582.146484-.353516.195868-.195869.511163-.195869.707032 0l4.146484 4.144532v-9.80009c0-.277.223-.5.5-.5s.5.223.5.5v9.80009l4.146484-4.144532c.195869-.195869.511164-.195869.707032 0 .097934.097934.146484.225707.146484.353516z"/><path d="m28 22.498048c0-.12781-.04855-.255582-.146484-.353516l-5-4.998047c-.04701-.04701-.103236-.08407-.166016-.109375-.0579-.02334-.12105-.03711-.1875-.03711s-.129596.01377-.1875.03711c-.06278.0253-.119003.06236-.166016.109375l-5 4.998047c-.097934.097934-.146484.225706-.146484.353516 0 .127809.04855.255582.146484.353516.195868.195869.511163.195869.707032 0l4.146484-4.144532v9.785848c0 .277.223.5.5.5s.5-.223.5-.5v-9.785848l4.146484 4.144532c.195869.195869.511164.195869.707032 0 .097934-.097934.146484-.225707.146484-.353516z"/></g></svg>