<svg viewBox="0 0 32 32" xmlns="http://www.w3.org/2000/svg"><path d="m6 3v13c0-1.090703.9092972-2 2-2 .5340877 0 1.0172778.229481 1.3789062.580078.2617982-.341429.6392518-.587103 1.1484378-.580078.24625.003229.474966.073014.666015.177734h.001953l7.804688 4.273438v-1.951172c0-2.473437 2.026563-4.5 4.5-4.5.922893 0 1.783593.283408 2.5.765625v-4.40625l-6-5.359375zm17.5 12c-.840272 0-1.5.659728-1.5 1.5v2.5h3v-2.5c0-.840272-.659728-1.5-1.5-1.5zm-7.5 8.791016-4.9375 2.09375c-.364441.155082-.718555-.038173-1.0625-.181641v3.296875h6z" fill="#fafafa"/><path d="m6 2c-.554 0-1 .446-1 1v26c0 .554.446 1 1 1v-1-13-13h13v6c0 .554.446016 1.004232 1 1h6v2.765625c.38424.258633.711424.586182 1 .947266v-2.822266-1.640625-.2089844c0-.4506797.098038-.4254121-.605469-1.0664062l-5.30664-5.2382813c-.709525-.7368575-1.477331-.7363281-1.09375-.7363281h-.332032-.662109zm4 27v1h6.283203c-.175464-.296519-.283203-.636031-.283203-1z" fill="#3a3a38"/><path d="m20 9h6l-6-6z" fill="#fafafa" fill-rule="evenodd"/><path d="m10.513672 15c-.282697-.0039-.513522.281412-.513672.634766v8.730468c.000364.434941.342455.73979.671875.59961l5.328125-2.259766v-1.705078c0-1.067946.87337-1.955345 1.933594-1.992188l-7.220703-3.953124c-.06283-.03454-.130588-.053788-.199219-.054688z" fill="#0063b1"/><rect fill="#3a3a38" height="16" ry="1" width="2" x="7" y="15"/><path d="m23.5 13c-1.932997 0-3.5 1.567003-3.5 3.5v3.5h-2c-.554 0-1 .446-1 1v8c0 .554.446 1 1 1h11c.554 0 1-.446 1-1v-8c0-.554-.446-1-1-1h-2v-3.5c0-1.932997-1.567003-3.5-3.5-3.5zm0 1c1.380712 0 2.5 1.119288 2.5 2.5v3.5h-5v-3.5c0-1.380712 1.119288-2.5 2.5-2.5z" fill="#ed8733"/><path d="m18 21h11v8h-11z" fill="#f8db8f"/><path d="m23.5 21a2.5 2.5 0 0 0 -2.5 2.5 2.5 2.5 0 0 0 1 1.996094v2.503906h3v-2.501953a2.5 2.5 0 0 0 1-1.998047 2.5 2.5 0 0 0 -2.5-2.5z" fill="#ed8733"/><path d="m23.5 22a1.5 1.5 0 0 0 -1.5 1.5 1.5 1.5 0 0 0 1 1.412109v2.087891h1v-2.087891a1.5 1.5 0 0 0 1-1.412109 1.5 1.5 0 0 0 -1.5-1.5z" fill="#fafafa"/><path d="m11 16.351562v7.388672l5.001953-2.121093v-.619141c0-.604607.285275-1.146774.720703-1.515625z" fill="#83beec"/></svg>