<svg viewBox="0 0 32 32" xmlns="http://www.w3.org/2000/svg"><path d="m6 3v26h20v-17.623047l-10.474609 10.837891a1.0088837 1.0088837 0 0 1 -.011719.011718c-.085083.08508-.184837.07334-.279297.13086a1.0088837 1.0088837 0 0 1 -.416016.265625l-4 1.333984a1.0088837 1.0088837 0 0 1 -1.2753902-1.27539l1.3242192-3.972657-.050782.271485c.016266-.344775.162867-.723413.441406-1.001953l11.81836-12.2304691-3.076172-2.7480469z" fill="#fafafa"/><path d="m6 2c-.554 0-1 .446-1 1v26c0 .554.446 1 1 1h20c.554 0 1-.446 1-1v-18.109375-.546875l-1 1.033203v17.623047h-20v-26h13v6c0 .2652807.10797.5024517.275391.6816406l4.318359-4.4707031-2.505859-2.4746094c-.709525-.7368575-1.477331-.7363281-1.09375-.7363281h-.332032-.662109z" fill="#3a3a38"/><path d="m20 3v5.9316406l2.914062-3.0175781z" fill="#fafafa"/><path d="m8.5 5c-.277 0-.5.223-.5.5s.223.5.5.5h8c.277 0 .5-.223.5-.5s-.223-.5-.5-.5zm0 3c-.277 0-.5.223-.5.5s.223.5.5.5h8c.277 0 .5-.223.5-.5s-.223-.5-.5-.5zm0 3c-.277 0-.5.223-.5.5s.223.5.5.5h8.535156l.964844-1zm0 3c-.277 0-.5.223-.5.5s.223.5.5.5h5.636719l.964843-1zm14.964844 0-.966797 1h1.001953c.277 0 .5-.223.5-.5s-.223-.5-.5-.5zm-14.964844 3c-.277 0-.5.223-.5.5s.223.5.5.5h2.740234c.006513-.006776.010915-.014821.017578-.021484l.945313-.978516zm12.066406 0-.966797 1h3.900391c.277 0 .5-.223.5-.5s-.223-.5-.5-.5zm-12.066406 3c-.277 0-.5.223-.5.5s.223.5.5.5h1.603516l.333984-1zm9.166016 0-.966797 1h6.800781c.277 0 .5-.223.5-.5s-.223-.5-.5-.5zm-9.166016 3c-.277 0-.5.223-.5.5s.223.5.5.5h1.878906a1.0088837 1.0088837 0 0 1 -.8867185-1zm5.1875 0-2.869141.957031a1.0088837 1.0088837 0 0 1 -.197265.042969h12.878906c.277 0 .5-.223.5-.5s-.223-.5-.5-.5zm-5.1875 3c-.277 0-.5.223-.5.5s.223.5.5.5h15c.277 0 .5-.223.5-.5s-.223-.5-.5-.5z" fill="#ed3d3b"/><g transform="matrix(1.33333 0 0 1.33333 -1.668774 1.331978)"><path d="m21.310955 2.115187 1.576175 1.576175c.151005.1510055.148418.3915966 0 .5451453l-10.535616 10.8998197c-.151006.151005-.39414.151005-.545146 0l-1.576175-1.576175c-.151005-.151006-.151005-.390234 0-.54124l10.535616-10.903725c.151006-.1510052.39414-.1510055.545146 0z" fill="#d42314"/><path d="m21.035156 2.9667969c-.07763.00128-.151506.033645-.205078.089844l-9.666366 10.0323071c-.108376.113595-.106647.292815.0039.404297l.707031.707031c.115319.114336.302048.111675.414062-.0059l9.666373-10.0303135c.108376-.1135942.106647-.2928145-.0039-.4042969l-.707037-.7089844c-.0555-.055013-.130852-.085296-.208985-.083984z" fill="#ff9198"/><g fill="#d42314"><path d="m10.126603 13.251057-.9999997 3 2.9999997-1z"/><path d="m16.648932-11.313708h2.229048c.213554 0 .385476.171922.385476.385476v.229048c0 .213553-.171922.385476-.385476.385476h-2.229048c-.213553 0-.385476-.171923-.385476-.385476v-.229048c0-.213554.171923-.385476.385476-.385476z" transform="matrix(.70710678 .70710678 -.70710678 .70710678 0 0)"/></g></g></svg>