<svg height="32" viewBox="0 0 32 32" width="32" xmlns="http://www.w3.org/2000/svg">



/&amp;amp;amp;amp;amp;gt;<path d="m14 12a6 6 0 0 1 -6 6 6 6 0 0 1 -6-6 6 6 0 0 1 6-6 6 6 0 0 1 6 6z" fill="#3a3a38"/><path d="m13 12a5 5 0 0 1 -5 5 5 5 0 0 1 -5-5 5 5 0 0 1 5-5 5 5 0 0 1 5 5z" fill="#fafafa"/><path d="m11 12a3 3 0 0 1 -3 3 3 3 0 0 1 -3-3 3 3 0 0 1 3-3 3 3 0 0 1 3 3z" fill="#1e8bcd"/><path d="m17 6c-.554 0-1 .446-1 1v10c0 .554.446 1 1 1h3.783203c1.100144-.632203 2.36828-.999523 3.716797-1 1.260426.001178 2.381822.4005 3.392578 1h1.201172c.211338-.575546.767441-1 1.40625-1 .168639 0 .329693.035849.482422.089844.00288-.031052.017578-.058016.017578-.089844v-10c0-.554-.446-1-1-1zm0 1h12v9h-12z" fill="#3a3a38"/><path d="m17 7h12v9h-12z" fill="#fafafa"/><path d="m25.105469 20h.789062l.353516 2v.08984c.40347.08734.788306.245379 1.136719.466797l.06055-.06055 1.664063-1.164063.558594.558594-1.164063 1.664063-.0625.0625c.222578.347545.381933.731717.470703 1.134765h.087887l2 .353516v.789062l-2 .353516h-.08984c-.08734.40347-.245379.788306-.466797 1.136719l.06055.06055 1.164063 1.664063-.558594.558594-1.664063-1.164063-.0625-.0625c-.347545.222578-.731717.381933-1.134765.470703v.087894l-.353516 2h-.789062l-.353516-2v-.08984c-.40347-.08734-.788306-.245379-1.136719-.466797l-.06055.06055-1.664063 1.164063-.558594-.558594 1.164063-1.664063.0625-.0625c-.222581-.347552-.381936-.731724-.470706-1.134772h-.087891l-2-.353516v-.789062l2-.353516h.08984c.08734-.40347.245379-.788306.466797-1.136719l-.06055-.06055-1.164063-1.664063.558594-.558594 1.664063 1.164063.0625.0625c.347545-.222578.731717-.381933 1.134765-.470703v-.087887zm.394531 3c-1.380712 0-2.5 1.119288-2.5 2.5s1.119288 2.5 2.5 2.5 2.5-1.119288 2.5-2.5-1.119288-2.5-2.5-2.5z" fill="#fafafa"/><path d="m24.5 18.000063c-3.395063.0012-6.217358 2.61498-6.478516 6h1.003907c.258437-2.831055 2.631785-4.998652 5.474609-5.000013 2.119094.0018 3.966175 1.213531 4.880859 3h-2.880859c-.277001 0-.5.222993-.5.499994 0 .277039.223.499994.5.499994h3.285156.214844.5c.06925 0 .135454-.01512.195311-.03893.17958-.07559.304686-.253229.304686-.460952v-3.999986c0-.277039-.222999-.499994-.5-.499994s-.5.222993-.5.499994v2.548838c-1.153069-1.836737-3.192931-3.046677-5.499997-3.048832zm5.474609 6.999987c-.258436 2.831055-2.631785 4.998652-5.474609 5.000013-2.091064-.0024-3.955644-1.190854-4.880858-3h2.880858c.277002 0 .5-.222992.5-.499994 0-.277039-.222999-.500031-.5-.500031h-4c-.06925 0-.135454.01512-.19531.03893-.179581.07559-.304687.253228-.304687.460951v3.999987c0 .27704.223.499994.5.499994.277002 0 .5-.222992.5-.499994v-2.556661c1.185145 1.897512 3.262808 3.052157 5.5 3.056655 3.395063-.0012 6.217358-2.614979 6.478516-6z" fill="#18ab50" stroke-width=".999999"/></svg>