<svg viewBox="0 0 32 32" xmlns="http://www.w3.org/2000/svg"><path d="m3 6v13 6.998047h6.9980469l.0019531.001953h6 6v-2-12-2c-1.047117-.0001047-1.999895-.9528834-2-2v-1c.000036-.3565723.117603-.6991998.304688-1zm25.695312 0c.187085.3008002.304652.6434277.304688 1v-1zm.304688 2c-.000105 1.0471166-.952883 1.9998953-2 2v2 12 1.998047h2v-6.998047z" fill="#fafafa"/><path d="m2.9980469 5c-.5539999 0-1 .446-1 1v14.492188 5.507812c0 .554.456533.892483 1 1h5.3847656 4.7246095 5.78125 1.416016c.35919-.577516.993858-.990919 1.677734-.998047h-5.984375-6.0000001v-.001953h-.0019531-2.59375-4.4042969v-4.488281-15.5097659-.0019531h17.3066411c.362311-.582535 1.004767-.999931 1.695312-1zm21.0039061 0c.173959.0002428.330046.089654.498047.1347656.168001-.0451116.324088-.1345228.498047-.1347656zm2.998047 0c.690545.000069 1.333001.417465 1.695312 1h.302735v.0019531.9804688c.000062.0059433.001952.0116286.001953.0175781v1c-.000001.0059495-.001891.0116348-.001953.0175781v10.9824219 2.511719 4.488281h-1.998047c.690545.000069 1.333001.417465 1.695312 1h.302735c.543467-.107517 1-.446 1-1v-5.507812-14.492188c0-.554-.446-1-1-1z" fill="#3a3a38"/><g fill="#c8c6c4" transform="translate(0 3)"><path d="m7 12h1v1h-1z"/><path d="m7 15h1v1h-1z"/><path d="m7 18h1v1h-1z"/><g transform="translate(0 -3)"><path d="m9 15v1h13v-1z"/><path d="m9 21v1h13v-1z" stroke-width="1.167748"/><path d="m9 18v1h12v-1z"/></g></g><path d="m7 10v2h15v-2z" fill="#797774"/><path d="m22 6.0000005a1.0001 1.0001 0 0 0 -1 1v1a1.0001 1.0001 0 0 0 1 1h1v2.9999995 12 3h-1a1.0001 1.0001 0 0 0 -1 1v1a1.0001 1.0001 0 0 0 1 1h2a1.0001 1.0001 0 0 0 .5-.134766 1.0001 1.0001 0 0 0 .5.134766h2a1.0001 1.0001 0 0 0 1-1v-1a1.0001 1.0001 0 0 0 -1-1h-1v-3-12-2.9999995h1a1.0001 1.0001 0 0 0 1-1v-1a1.0001 1.0001 0 0 0 -1-1h-2a1.0001 1.0001 0 0 0 -.5.1347656 1.0001 1.0001 0 0 0 -.5-.1347656z" fill="#3a3a38" fill-opacity=".992366"/><path d="m22 7.0000005v1h2v-1zm2 1v19.9999995h1v-19.9999995zm1 0h2v-1h-2zm0 19.9999995v1h2v-1zm-1 0h-2v1h2z" fill="#fafafa" stroke-width="2"/></svg>