<svg viewBox="0 0 32 32" xmlns="http://www.w3.org/2000/svg"><path d="m4 5c-.554 0-1 .446-1 1v20c0 .554.446 1 1 1h16.304688c.362311-.582535 1.004767-.999931 1.695312-1h-18v-20h16.304688c.362311-.582535 1.004767-.999931 1.695312-1zm20.001953 0c.173959.0002428.330046.089654.498047.1347656.168001-.0451116.324088-.1345228.498047-.1347656zm2.998047 0c1.047117.0001047 1.999895.9528834 2 2v-1c0-.554-.446-1-1-1zm2 3c-.000069.6905443-.417465 1.3330006-1 1.6953125v16.3046875h-1c.611099.000061 1.18432.328247 1.560547.806641.259322-.180316.439453-.465491.439453-.806641z"/><path d="m4 6v20h18v-2-12-2c-1.047117-.0001047-1.999895-.9528834-2-2v-1c.000036-.3565723.117603-.6991998.304688-1zm24 3.6953125c-.3008.1870849-.643428.3046518-1 .3046875v2 12 2h1z" fill="#1e8bcd"/><g fill="#fafafa"><path d="m5 13v1 10 1h17v-1h-16v-10h16v-1z"/><path d="m5 7v1 3 1h17v-1h-16v-3h14v-1z"/></g><path d="m22 6.0000005a1.0001 1.0001 0 0 0 -1 1v1a1.0001 1.0001 0 0 0 1 1h1v2.9999995 12 3h-1a1.0001 1.0001 0 0 0 -1 1v1a1.0001 1.0001 0 0 0 1 1h2a1.0001 1.0001 0 0 0 .5-.134766 1.0001 1.0001 0 0 0 .5.134766h2a1.0001 1.0001 0 0 0 1-1v-1a1.0001 1.0001 0 0 0 -1-1h-1v-3-12-2.9999995h1a1.0001 1.0001 0 0 0 1-1v-1a1.0001 1.0001 0 0 0 -1-1h-2a1.0001 1.0001 0 0 0 -.5.1347656 1.0001 1.0001 0 0 0 -.5-.1347656z" fill="#3a3a38" fill-opacity=".992366"/><path d="m22 7.0000005v1h2v-1zm2 1v19.9999995h1v-19.9999995zm1 0h2v-1h-2zm0 19.9999995v1h2v-1zm-1 0h-2v1h2z" fill="#fafafa" stroke-width="2"/></svg>