<svg viewBox="0 0 32 32" xmlns="http://www.w3.org/2000/svg"><path d="m3.0000002 28h25.9999998v1h-25.9999998z" fill="#797774"/><path d="m15 26v2h-2v1h6v-1h-2v-2z" fill="#3a3a38"/><path d="m5 3h22c.554 0 1 .446 1 1v21c0 .554-.446 1-1 1h-22c-.554 0-1-.446-1-1v-21c0-.554.446-1 1-1z" fill="#922e98"/><path d="m5 4h22v21h-22z" fill="#d492d8"/><path d="m7 4c-.554 0-1 .446-1 1v6c0 .554.446 1 1 1h18c.554 0 1-.446 1-1v-6c0-.554-.446-1-1-1zm1 9c-.554 0-1 .446-1 1v10c0 .554.446 1 1 1h14c.554 0 1-.446 1-1v-10c0-.554-.446-1-1-1z" fill="#922e98"/><g fill="#fafafa"><path d="m9 14c-.554 0-1 .446-1 1v8c0 .554.446919.968104 1 1h2v-8h3v8h7c.554 0 1-.446 1-1v-8c0-.554-.446-1-1-1z"/><path d="m8 5h16c.554 0 1 .446 1 1v4c0 .554-.446 1-1 1h-16c-.554 0-1-.446-1-1v-4c0-.554.446-1 1-1z"/></g></svg>