<svg viewBox="0 0 32 32" xmlns="http://www.w3.org/2000/svg"><g transform="translate(-10 10)"><path d="m4 13c-.554 0-1 .446-1 1v14c0 .554.446 1 1 1h14c.554 0 1-.446 1-1v-8h-5c-1.108 0-2-.892-2-2v-5z" fill="#922e9b" transform="translate(10 -10)"/><path d="m14 10v8h1v-5c0-.554.446-1 1-1h10c.554 0 1 .446 1 1v5h1v-8c0 .554-.446 1-1 1h-12c-.554 0-1-.446-1-1z" fill="#d492d8"/><path d="m5.5 14c-.277 0-.5.223-.5.5v5c0 .277.223.5.5.5h8.5c-1.108 0-2-.892-2-2v-4z" fill="#fafafa" transform="translate(10 -10)"/><rect fill="#fafafa" height="5" rx=".5" width="10" x="16" y="13"/><path d="m18 14h2v4h-2z" fill="#922e9b"/></g><rect fill="#922e9b" height="16" rx="1" width="16" x="13" y="3"/><path d="m14 10v8h1v-5c0-.554.446-1 1-1h10c.554 0 1 .446 1 1v5h1v-8c0 .554-.446 1-1 1h-12c-.554 0-1-.446-1-1z" fill="#d492d8"/><rect fill="#fafafa" height="6" rx=".5" width="12" x="15" y="4"/><rect fill="#fafafa" height="5" rx=".5" width="10" x="16" y="13"/><path d="m18 14h2v4h-2z" fill="#922e9b"/></svg>