<svg viewBox="0 0 32 32" xmlns="http://www.w3.org/2000/svg"><path d="m28.5202 5.0000002c.277 0 .5.223.5.5 0 .2770001-.223.5-.5.5h-11c-.277 0-.5-.2229999-.5-.5 0-.277.223-.5.5-.5zm0 3.9999998c.277 0 .5.223.5.5s-.223.5-.5.5h-11c-.277 0-.5-.223-.5-.5s.223-.5.5-.5zm0 13c.277 0 .5.223.5.5s-.223.5-.5.5h-11c-.277 0-.5-.223-.5-.5s.223-.5.5-.5zm0 4c.277 0 .5.223.5.5s-.223.5-.5.5h-11c-.277 0-.5-.223-.5-.5s.223-.5.5-.5z" fill="#3a3a38"/><g fill="#1e8bcd"><path d="m14 8.490926c0-.12781-.04855-.255582-.146484-.353516l-5-4.998047c-.047013-.047015-.103236-.084075-.166016-.109375-.057904-.02334-.12105-.037109-.1875-.037109s-.129596.01377-.1875.03711c-.06278.0253-.119003.06236-.166016.109375l-5 4.998047c-.097934.097933-.146484.225705-.146484.353515 0 .127809.04855.255582.146484.353516.195868.195869.511163.195869.707032 0l4.146484-4.144532v9.80009c0 .277.223.5.5.5s.5-.223.5-.5v-9.80009l4.146484 4.144532c.195869.195869.511164.195869.707032 0 .097934-.097934.146484-.225707.146484-.353516z"/><path d="m14 23.494832c0 .12781-.04855.255582-.146484.353516l-5 4.998047c-.047013.047015-.103236.084075-.166016.109375-.057904.02334-.12105.037109-.1875.037109s-.129596-.01377-.1875-.03711c-.06278-.0253-.119003-.06236-.166016-.109375l-5-4.998047c-.097934-.097933-.146484-.225705-.146484-.353515 0-.127809.04855-.255582.146484-.353516.195868-.195869.511163-.195869.707032 0l4.146484 4.144532v-9.785848c0-.277.223-.5.5-.5s.5.223.5.5v9.785848l4.146484-4.144532c.195869-.195869.511164-.195869.707032 0 .097934.097934.146484.225707.146484.353516z"/></g></svg>