<svg viewBox="0 0 32 32" xmlns="http://www.w3.org/2000/svg"><path d="m5 4v10h22v-10zm0 13v11h22v-11z" fill="#fafafa"/><path d="m5 3c-.554 0-1 .446-1 1v10h1v-10h5 1 6 1 9v10h1v-10c0-.554-.446-1-1-1zm-1 14v11c0 .554.446 1 1 1h22c.554 0 1-.446 1-1v-11h-1v11h-22v-11z" fill="#3a3a38"/><path d="m4 3h24v4h-24z" fill="#3a3a38"/><g fill="#1e8bcd"><rect height="1" ry=".492088" width="6" x="2" y="15"/><rect height="1" ry=".492088" width="6" x="9" y="15"/><rect height="1" ry=".494948" width="6" x="17" y="15"/><rect height="1" ry=".5" width="6" x="24" y="15"/></g><path d="m5 4h22v2h-22z" fill="#797774" stroke-width=".677003"/></svg>