<svg viewBox="0 0 32 32" xmlns="http://www.w3.org/2000/svg"><path d="m4 4h24v19h-24z" fill="#83beec"/><path d="m4 3c-.554 0-1 .446-1 1v19c0 .554.446 1 1 1l24.019531-.0039c.544357-.010965.980469-.449025.980469-.9961v-19c0-.554-.446-1-1-1zm0 1h24v19h-24z" fill="#0063b1"/><path d="m9 4v4h-5v1h5v4h-5v1h5v4h-5v1h5v4h1v-4h5v4h1v-4h5v4h1v-4h6v-1h-6v-4h6v-1h-6v-4h6v-1h-6v-4h-1v4h-5v-4h-1v4h-5v-4zm1 5h5v4h-5zm6 0h5v4h-5zm-6 5h5v4h-5zm6 0h5v4h-5z" fill="#1e8bcd"/><path d="m3 23v5c0 .554.446 1 1 1h5.5l2.5-5h-1l-2 4h-5v-5z" fill="#0063b1"/><path d="m4 24v4h5l2-4z" fill="#83beec"/><path d="m11 23v5c0 .554.446 1 1 1h5.5l2.5-5h-1l-2 4h-5v-5z" fill="#0063b1"/><path d="m12 24v4h5l2-4z" fill="#83beec"/><path d="m19 23v5c0 .554.446 1 1 1h5.5l2.5-5h-1l-2 4h-5v-5z" fill="#0063b1"/><path d="m20 24v4h5l2-4z" fill="#83beec"/></svg>