<svg viewBox="0 0 32 32" xmlns="http://www.w3.org/2000/svg"><g fill="#3a3a38" transform="matrix(0 -1 -1 0 0 0)"><path d="m-29.593145-5h25.18629c.2253977 0 .406855.1814573.406855.406855v.18629c0 .2253977-.1814573.406855-.406855.406855h-25.18629c-.225398 0-.406855-.1814573-.406855-.406855v-.18629c0-.2253977.181457-.406855.406855-.406855z"/><path d="m-27.5-29c.277 0 .5.223.5.5v26c0 .277-.223.5-.5.5s-.5-.223-.5-.5v-26c0-.277.223-.5.5-.5z"/></g><path d="m28 4h-23v1h23zm0 3h-23v1h23zm0 3h-23v1h23zm0 3h-23v1h23zm0 3h-23v1h23zm0 3h-23v1h23zm0 3h-23v1h23zm0 3h-23v1h23z" fill="#83beec"/></svg>