<svg viewBox="0 0 32 32" xmlns="http://www.w3.org/2000/svg"><path d="m6 3v26h11.882812l5.722657-11.447266a1.0001 1.0001 0 0 1 .902343-.552734 1.0001 1.0001 0 0 1 .886719.552734l.605469 1.208985v-8.761719l-7-7z" fill="#fafafa"/><path d="m5.9980469 2c-.554 0-1 .446-1 1v26c0 .554.446 1 1 1h11.3847651l.5-1h-11.8847651v-26h13.0000001v6c0 .6726441.491378 1 1 1h6v8.759766l1 2v-1.869141-10.5058594l-6.507813-6.3847656z" fill="#3a3a38"/><path d="m20 9h6l-6-6z" fill="#fafafa" fill-rule="evenodd"/><rect fill="#1e8bcd" height="3" ry="1" width="9" x="8" y="6"/><path d="m8.4667969 13c-.2582205 0-.4667969.208576-.4667969.466797v.066406c0 .258221.2085764.466797.4667969.466797h11.0664061c.258221 0 .466797-.208576.466797-.466797v-.066406c0-.258221-.208576-.466797-.466797-.466797zm14.0058591 0c-.262061 0-.472656.210595-.472656.472656v.054688c0 .262061.210595.472656.472656.472656h1.054688c.262061 0 .472656-.210595.472656-.472656v-.054688c0-.262061-.210595-.472656-.472656-.472656zm-13.9824216 3c-.2720201 0-.4902344.218214-.4902344.490234v.019532c0 .27202.2182143.490234.4902344.490234h11.0195316c.27202 0 .490234-.218214.490234-.490234v-.019532c0-.27202-.218214-.490234-.490234-.490234zm13.9824216 0c-.262061 0-.472656.210595-.472656.472656v.054688c0 .262061.210595.472656.472656.472656h1.054688c.262061 0 .472656-.210595.472656-.472656v-.054688c0-.262061-.210595-.472656-.472656-.472656zm-13.9824216 3c-.2720201 0-.4902344.218214-.4902344.490234v.019532c0 .27202.2182143.490234.4902344.490234h11.0195316c.27202 0 .490234-.218214.490234-.490234v-.019532c0-.27202-.218214-.490234-.490234-.490234zm13.9824216 0c-.262061 0-.472656.210595-.472656.472656v.054688c0 .232719.169912.414971.390625.455078l.492187-.982422zm-13.9824216 3c-.2720201 0-.4902344.218214-.4902344.490234v.019532c0 .27202.2182143.490234.4902344.490234h11.0195316c.27202 0 .490234-.218214.490234-.490234v-.019532c0-.27202-.218214-.490234-.490234-.490234zm-.0234375 3c-.2582205 0-.4667969.208576-.4667969.466797v.066406c0 .258221.2085764.466797.4667969.466797h10.9160151l.44336-.888672c-.080628-.066432-.180095-.111328-.292969-.111328z" fill="#1e8bcd"/><path d="m24.5 18-6.5 13h13z" fill="#ed8733"/><path d="m24.5 20.246094-4.875 9.75h9.75z" fill="#f8db8f"/><g fill="#3a3a38" fill-opacity=".965649"><rect height="5" ry=".5" width="1" x="24" y="22"/><rect height="1" ry=".5" width="1" x="24" y="28"/></g></svg>