<svg viewBox="0 0 32 32" xmlns="http://www.w3.org/2000/svg"><path d="m6 3v26h19.99762l.00238-20-6-6z" fill="#fafafa"/><path d="m5.9976202 2c-.554 0-1 .446-1 1v26c0 .554.446 1 1 1h19.9999998c.554 0 .892483-.456533 1-1v-10.109375-10.5052752l-6.508082-6.3853498zm0 1h12.9999998v6c0 .6726441.491378 1 1 1h6v19h-19.9999998z" fill="#3a3a38"/><path d="m20 9h6l-6-6z" fill="#fafafa" fill-rule="evenodd"/><path d="m8.000028 13.000008h1.3615111q.2046719 0 .3470531.109587.1512786.100453.1957732.273973l2.2691856 8.283101q.124586.438356.231369 1.02283.0534-.283105.11568-.538812.06229-.26484.133481-.49315l2.607341-8.264835q.04449-.155251.195772-.273973.151284-.118721.355954-.118721h.471636q.21357 0 .347052.109587.142379.100453.195773.273973l2.607339 8.283101q.07119.219178.133482.474885.06229.246576.11568.520548.0534-.273972.106786-.52968.0534-.255707.11568-.465753l2.260277-8.273967q.04449-.155251.195773-.273973.160179-.118721.364851-.118721h1.272523l-3.55061 11.999992h-1.468296l-2.812011-9.095885q-.04449-.127853-.08899-.273971-.03559-.155251-.08009-.328768-.03559.173517-.08009.328768-.0356.146118-.08009.273971l-2.829816 9.095885h-1.459397l-3.55061-11.999992z" fill="#fb983b"/><g fill="#3a3a38"><rect height="1" ry=".5" width="7" x="8" y="14"/><rect height="1" ry=".488015" width="16" x="8" y="22"/><rect height="1" ry=".464045" width="7" x="17" y="14"/><rect height="1" ry=".428091" transform="scale(-1 1)" width="11" x="-24" y="18"/><rect height="1" ry=".5" transform="scale(-1 1)" width="3" x="-11" y="18"/><rect height="1" ry=".380151" width="9" x="8" y="10"/><rect height="1" ry=".452061" width="9" x="8" y="6"/><rect height="1" ry=".428091" width="11" x="8" y="26"/><rect height="1" ry=".5" width="3" x="21" y="26"/></g></svg>