<svg viewBox="0 0 32 32" xmlns="http://www.w3.org/2000/svg"><path d="m6 3v26h19.914062l-2.0625-2.042969c-1.016767.623287-2.146941 1.042743-3.351562 1.042969-3.578006 0-6.5-2.921994-6.5-6.5s2.921994-6.5 6.5-6.5c2.313229 0 4.347505 1.224355 5.5 3.054688v-8.054688l-7-7z" fill="#fafafa"/><path d="m15 11a6 6 0 0 0 -6 6 6 6 0 0 0 5.167969 5.935547 6.5 6.5 0 0 1 -.167969-1.435547 6.5 6.5 0 0 1 6.5-6.5 6.5 6.5 0 0 1 .152344.007812 6 6 0 0 0 -5.652344-4.007812z" fill="#ed8733"/><path d="m5.9980469 2c-.554 0-1 .446-1 1v26c0 .554.446 1 1 1h20.0000001c.26527 0 .477829-.110529.642578-.279297l-.726563-.720703h-19.9160151v-26h13.0000001v6c0 .6726441.491378 1 1 1h6v8.054688c.54573.8664.878623 1.871515.962891 2.945312h.037109v-2.109375-10.5058594l-6.507813-6.3847656z" fill="#3a3a38"/><path d="m20 9h6l-6-6z" fill="#fafafa" fill-rule="evenodd"/><path d="m20.5 16a5.5 5.5 0 0 0 -5.5 5.5 5.5 5.5 0 0 0 5.5 5.5 5.5 5.5 0 0 0 5.5-5.5 5.5 5.5 0 0 0 -5.5-5.5zm0 1a4.5 4.5 0 0 1 4.5 4.5 4.5 4.5 0 0 1 -4.5 4.5 4.5 4.5 0 0 1 -4.5-4.5 4.5 4.5 0 0 1 4.5-4.5z" fill="#3a3a38"/><path d="m22.992188 23.494141a.50005.50005 0 0 0 -.34375.861328l5.507812 5.457031a.50064154.50064154 0 1 0 .705078-.710938l-5.509766-5.457031a.50005.50005 0 0 0 -.359374-.15039z" fill="#3a3a38" fill-rule="evenodd"/><circle cx="20.5" cy="21.5" fill="#fafafa" r="4.5"/><g fill="#1e8bcd"><rect height="7" ry=".5" width="1" x="20" y="18"/><rect height="1" ry=".5" width="7" x="17" y="21"/></g><path d="m15 12a5 5 0 0 0 -5 5 5 5 0 0 0 4.021484 4.902344 6.5 6.5 0 0 1 -.021484-.402344 6.5 6.5 0 0 1 5.605469-6.431641 5 5 0 0 0 -4.605469-3.068359z" fill="#f8db8f"/></svg>