<svg viewBox="0 0 32 32" xmlns="http://www.w3.org/2000/svg"><path d="m6 3v26h19.99762l.0024-19-7-7z" fill="#fafafa"/><path d="m5.9976202 2c-.554 0-1 .446-1 1v26c0 .554.446 1 1 1h19.9999998c.554 0 .892483-.456533 1-1v-10.109375-10.5052752l-6.508082-6.3853498zm0 1h12.9999998v6c0 .6726441.491378 1 1 1h6v19h-19.9999998z" fill="#3a3a38"/><g fill-rule="evenodd"><path d="m20 9h6l-6-6z" fill="#fafafa"/><g fill="#1e8bcd"><path d="m20.746889 18.999588c-.412951.0016-.74685.336863-.746888.749817v7.498164c-.000857.636426.741397.984615 1.230166.577007l4.498899-3.749081c.361245-.29986.361245-.854157 0-1.154015l-4.498899-3.749083c-.135745-.112652-.306874-.173843-.483278-.172809z"/><path d="m11.253111 18.999589c.412951.0016.74685.336863.746888.749817v7.498163c.000857.636426-.741397.984615-1.230166.577007l-4.4988987-3.749081c-.3612458-.299859-.3612458-.854156 0-1.154015l4.4988987-3.749082c.135746-.112653.306874-.173843.483278-.172809z"/></g></g></svg>