<svg viewBox="0 0 24 24" xmlns="http://www.w3.org/2000/svg"><g fill="#3a3a38"><path d="m15.457003 7.0827995q-.154791.2626954-.423096.2626954-.154792 0-.371499-.1407297-.206388-.1501116-.51597-.3189873-.299263-.1782576-.732678-.3189869-.423096-.150112-1.021622-.150112-.567568 0-1.000983.150112-.423096.1407293-.71204.4034248-.278623.2533134-.423095.6004467-.144472.3377513-.144472.7317945 0 .516009.257985.8537603.268305.3377513.691401.5816828.433415.2345496.980344.4128069.546929.178258 1.114497.365897.567567.18764 1.114496.431572.546928.234549.970024.600446.433416.356516.691401.881907.268304.52539.268304 1.285331 0 .816232-.288942 1.529263-.288944.703648-.846193 1.229039-.546929.525391-1.351842.825615-.804914.300223-1.836855.300223-1.24865 0-2.3012291-.431571-1.0422605-.440953-1.7749386-1.18213l.5469287-.806849q.072236-.103203.17543-.159495.1135135-.06567.2579852-.06567.1960688 0 .4334153.197022.2476658.18764.6088452.422189.3611793.225167.8668313.422189.51597.187639 1.22801.187639.598525 0 1.062898-.159493.464373-.159494.784276-.450335.330221-.290841.495331-.694267.17543-.412807.17543-.910052 0-.553536-.268304-.910052-.257986-.35652-.691401-.591069-.423096-.243931-.970025-.403425-.546928-.168879-1.114496-.347136-.567567-.178255-1.114496-.403422-.5469291-.23455-.9803443-.609829-.4230958-.375279-.6914004-.928816-.2579853-.5535368-.2579853-1.3791511 0-.6473568.2683046-1.2571855.2683047-.6192104.7739559-1.0883094.5159705-.478481 1.2589675-.759941.753317-.290841 1.723342-.290841 1.083539 0 1.981327.328369.908108.328369 1.56855.956962z" stroke-width=".7"/><path d="m4 20h16v1h-16z" fill="#1e8bcd" stroke-width=".917663"/></g></svg>