<?xml version="1.0" encoding="utf-8"?>
<!-- Generator: Adobe Illustrator 12.0.1, SVG Export Plug-In . SVG Version: 6.00 Build 51448)  -->
<!DOCTYPE svg PUBLIC "-//W3C//DTD SVG 1.1//EN" "http://www.w3.org/Graphics/SVG/1.1/DTD/svg11.dtd" [
	<!ENTITY ns_svg "http://www.w3.org/2000/svg">
	<!ENTITY ns_xlink "http://www.w3.org/1999/xlink">
]>
<svg  version="1.1" id="Layer_1" xmlns="&ns_svg;" xmlns:xlink="&ns_xlink;" width="330" height="159" viewBox="0 0 330 159"
	 overflow="visible" enable-background="new 0 0 330 159" xml:space="preserve">
<g>
	<g>
		<linearGradient id="XMLID_13_" gradientUnits="userSpaceOnUse" x1="106.8589" y1="66.1777" x2="70.2925" y2="113.5122">
			<stop  offset="0" style="stop-color:#00A000"/>
			<stop  offset="1" style="stop-color:#B0FF78"/>
		</linearGradient>
		<polygon fill="url(#XMLID_13_)" points="70.187,114.072 101.342,83.424 100.953,73.891 70.021,103.756 		"/>
		<linearGradient id="XMLID_14_" gradientUnits="userSpaceOnUse" x1="4.1445" y1="88.3682" x2="68.9801" y2="110.1294">
			<stop  offset="0" style="stop-color:#00C400"/>
			<stop  offset="1" style="stop-color:#B0FF78"/>
		</linearGradient>
		<polygon fill="url(#XMLID_14_)" points="5.972,86.031 6.224,95.789 70.187,114.072 70.021,103.756 		"/>
		<linearGradient id="XMLID_15_" gradientUnits="userSpaceOnUse" x1="127.4541" y1="30.0103" x2="36.7998" y2="93.5168">
			<stop  offset="0" style="stop-color:#00A000"/>
			<stop  offset="1" style="stop-color:#B0FF78"/>
		</linearGradient>
		<path fill="url(#XMLID_15_)" d="M156.646,24.365c0,0-39.49,10.209-56.196,20.192c-14.218,8.495-22.719,15.497-27.764,29.54
			c0,0-9.156-21.075,28.569-38.853c24.293-12.563,51.691-16.096,55.392-16.096V24.365z"/>
		<linearGradient id="XMLID_16_" gradientUnits="userSpaceOnUse" x1="84.4863" y1="42.4795" x2="54.8729" y2="136.704">
			<stop  offset="0" style="stop-color:#00C400"/>
			<stop  offset="1" style="stop-color:#B0FF78"/>
		</linearGradient>
		<path fill="url(#XMLID_16_)" d="M74.031,77.256l26.922-3.365l-30.932,29.865L5.972,86.031l25.322-3.197
			c0,0-3.534-10.515,8.75-24.311c0,0,11.104-15.817,50.477-27.764c0,0,35.67-10.601,66.124-11.611c0,0-31.97,3.703-60.234,18.509
			c-18.678,10.77-22.38,21.705-22.38,21.705S69.657,70.077,74.031,77.256z"/>
		<polygon fill="#7EFF48" points="6.964,85.908 5.972,86.031 5.972,86.396 70.032,104.398 100.996,74.866 100.953,73.891 
			100.176,73.946 69.721,103.053 7.626,85.824 		"/>
		<path fill="#62EF2E" d="M72.685,74.097c0,0-7.575-26.243,43.475-43.981c0,0,28.842-9.395,40.485-10.968
			c0,0-9.337,0.581-42.353,10.249c0,0-18.24,6.523-28.52,15.106C74.603,54.007,71.338,63.223,72.685,74.097z"/>
	</g>
	<g>
		<linearGradient id="XMLID_17_" gradientUnits="userSpaceOnUse" x1="254.3262" y1="159.9219" x2="280.7319" y2="123.0411">
			<stop  offset="0" style="stop-color:#6295D6"/>
			<stop  offset="1" style="stop-color:#355787"/>
		</linearGradient>
		<polygon fill="url(#XMLID_17_)" points="236.32,107.889 236.32,117.861 316.7,149.986 317.109,139.583 316.234,138.422 
			239.256,108.285 		"/>
		<linearGradient id="XMLID_18_" gradientUnits="userSpaceOnUse" x1="261.0625" y1="154.96" x2="102.1883" y2="100.3919">
			<stop  offset="0" style="stop-color:#6295D6"/>
			<stop  offset="1" style="stop-color:#355787"/>
		</linearGradient>
		<path fill="url(#XMLID_18_)" d="M295.439,130.184l-0.464,11.156c0,0-43.63,16.705-105.833,12.672c0,0-78.494-2.979-109.858-31.363
			c0-3.152-0.051-5.57-0.051-5.57s9.773,4.678,11.009,5.035c0,0,22.732,9.287,35.369,11.854c0,0,24.285,6.028,47.586,8.188
			C173.197,142.156,243.227,147.182,295.439,130.184z"/>
		<linearGradient id="XMLID_19_" gradientUnits="userSpaceOnUse" x1="293.7559" y1="104.2344" x2="113.0993" y2="149.9633">
			<stop  offset="0" style="stop-color:#6295D6"/>
			<stop  offset="1" style="stop-color:#355787"/>
		</linearGradient>
		<path fill="url(#XMLID_19_)" d="M258.625,117.031l-22.305-9.143l78.451-4.481l2.338,36.176l-21.67-8.466
			c0,0-42.869,15.887-103.494,12.558c0,0-63.427-1.05-112.485-26.455c0,0,39.247,16.993,108.282,13.841
			C187.742,131.061,232.246,128.783,258.625,117.031z"/>
		<polygon fill="#99CAFF" points="236.32,108.455 236.32,107.889 237.135,107.842 258.861,116.791 258.625,117.031 258.07,117.273 
					"/>
		<polygon fill="#99CAFF" points="317.061,139.043 317.109,139.583 317.088,139.963 295.385,131.776 295.439,131.117 
			295.877,131.029 		"/>
		<path fill="#99CAFF" d="M295.631,131.193c0.07-0.166,0.355-0.092,0.246-0.164c-0.129-0.086-0.75-0.193-0.75-0.193
			s-34.605,10.943-71.657,11.994c0,0-21.701,1.752-51.37-1.4c0,0-37.496-2.57-80.336-18.707L79.46,117.22c0,0,8.536,4.7,14.61,7.388
			c0,0,44.68,17.871,96.752,19.943c0,0,53.115,4.004,104.563-12.774C295.5,131.508,295.5,131.508,295.631,131.193z"/>
	</g>
	<g>
		<linearGradient id="XMLID_20_" gradientUnits="userSpaceOnUse" x1="179.0449" y1="15.1582" x2="230.6755" y2="53.4569">
			<stop  offset="0" style="stop-color:#FFC00E"/>
			<stop  offset="1" style="stop-color:#F06422"/>
		</linearGradient>
		<polygon fill="url(#XMLID_20_)" points="180.23,16.655 180.23,25.611 224.502,48.832 224.755,39.492 		"/>
		<linearGradient id="XMLID_21_" gradientUnits="userSpaceOnUse" x1="223.4375" y1="-5.2329" x2="248.3233" y2="71.3629">
			<stop  offset="0" style="stop-color:#FFC00E"/>
			<stop  offset="1" style="stop-color:#F06422"/>
		</linearGradient>
		<polygon fill="url(#XMLID_21_)" points="242.804,3.299 242.588,3.343 224.662,39.492 224.409,48.832 242.582,12.573 		"/>
		<linearGradient id="XMLID_22_" gradientUnits="userSpaceOnUse" x1="218.4277" y1="7.1455" x2="327.9888" y2="94.8913">
			<stop  offset="0" style="stop-color:#FFC00E"/>
			<stop  offset="1" style="stop-color:#F06422"/>
		</linearGradient>
		<path fill="url(#XMLID_22_)" d="M230.281,29.033l-0.063,8.315c0,0,32.705,5.821,50.763,14.344c0,0,28.155,10.095,37.577,31.521
			c2.131,7.963,1.297,11.556,1.297,11.556l0.26-6.776c0,0,5.398-14.988-13.77-30.948C306.346,57.044,285.355,34.977,230.281,29.033z
			"/>
		<linearGradient id="XMLID_23_" gradientUnits="userSpaceOnUse" x1="338.873" y1="40.0249" x2="322.9679" y2="85.5776">
			<stop  offset="0" style="stop-color:#FFC00E"/>
			<stop  offset="1" style="stop-color:#F06422"/>
		</linearGradient>
		<path fill="url(#XMLID_23_)" d="M326.236,71.169c0,0-0.021,9.491-6.121,16.823c-0.435,7.896-0.26,6.776-0.26,6.776
			s3.87-3.71,5.711-11.345C326.637,76.201,326.236,71.169,326.236,71.169z"/>
		<linearGradient id="XMLID_24_" gradientUnits="userSpaceOnUse" x1="200.0776" y1="12.3506" x2="345.5137" y2="71.8183">
			<stop  offset="0" style="stop-color:#FFC00E"/>
			<stop  offset="1" style="stop-color:#F06422"/>
		</linearGradient>
		<path fill="url(#XMLID_24_)" d="M180.23,16.655l62.664-13.356l-4.715,9.232c0,0,31.037,4.323,53.822,16.895
			c22.789,12.572,31.768,22.796,33.931,36.331c2.017,12.645-5.817,22.235-5.817,22.235s2.355-7.824-2.945-18.381
			c-3.448-6.603-13.039-16.278-27.426-23.429c0,0-25.365-13.559-59.463-17.149l-5.526,10.459L180.23,16.655z"/>
		<polygon fill="#FFDA00" points="180.883,16.511 180.232,16.614 180.232,17.038 224.719,39.876 230.346,29.612 230.288,28.445 
			224.525,38.492 		"/>
		<path fill="#FFDA00" d="M230.288,28.445c0,0,32.53,2.805,59.677,16.828c0,0,37.24,17.384,30.063,42.622
			c5.83-21.087-21.09-36.117-26.475-39.708c0,0-22.77-13.91-63.207-18.574L230.288,28.445z"/>
		<polygon fill="#FFDA00" points="242.508,3.388 242.822,3.324 242.804,3.874 238.385,12.558 238.113,12.518 237.84,12.432 		"/>
	</g>
</g>
</svg>
