<svg height="24" viewBox="0 0 24 24" width="24" xmlns="http://www.w3.org/2000/svg"><path d="m2 2v20h20v-20z" fill="#fafafa" stroke-width="1.25"/><path d="m4 4v1h1v-1zm2 0v1h2v-1zm3 0v1h2v-1zm3 0v1h2v-1zm3 0v1h2v-1zm3 0v1h1 1v-1h-1zm-14 2v2h1v-2zm15 0v2h1v-2zm-15 3v2h1v-2zm15 0v2h1v-2zm-15 3v2h1v-2zm15 0v2h1v-2zm-15 3v2h1v-2zm15 0v2h1v-2zm-15 3v2h1v-2zm15 0v1h-1v1h1 1v-2zm-13 1v1h2v-1zm3 0v1h2v-1zm3 0v1h2v-1zm3 0v1h2v-1z" fill="#d3d3d3"/><path d="m4 4v2h2 12 2v-2zm0 14v2h16v-2h-2-12z" fill="#3a3a38"/><path d="m11 6v2h2v-2zm0 3v2h2v-2zm0 3v2h2v-2zm0 3v2h2v-2z" fill="#d3d3d3"/><path d="m4 11h16v2h-16z" fill="#3a3a38"/></svg>