<svg height="16" width="16" xmlns="http://www.w3.org/2000/svg"><path d="m3 3v8h8v-8zm9 2v7h-7v1h8v-1-7z" fill="#fafafa"/><path d="m12 4v1h1v8h-8v-1h-1v2h10v-10z" fill="#3a3a38"/><text x="-1.564022" y="15.757234"><tspan x="-1.564022" y="15.757234"/></text><text x="-.827327" y="9.893891"><tspan x="-.827327" y="9.893891"/></text><path d="m2 2v10h1 9v-1-1-1-5-2zm1 1h8v1 4 3h-8v-1.71875z" fill="#3a3a38"/><path d="m5.5 4a1.5 1.5 0 0 0 -1.5 1.5 1.5 1.5 0 0 0 1.5 1.5 1.5 1.5 0 0 0 1.5-1.5 1.5 1.5 0 0 0 -1.5-1.5zm0 1c.27614 0 .5.22386.5.5s-.22386.5-.5.5-.5-.22386-.5-.5.22386-.5.5-.5zm3.5 1-3.34375 3.34375-1.34375-1.34375h-.03125l-1.28125 1.28125v1.304688l1.28125-1.2812505h.03125l1.34375 1.3437505 3.34375-3.3437505 2 2v-1.3046875z" fill="#ed8733"/><path d="m5.5 5c-.27614 0-.5.22386-.5.5s.22386.5.5.5.5-.22386.5-.5-.22386-.5-.5-.5zm3.5 2.3046875-3.34375 3.3437505-1.34375-1.3437505h-.03125l-1.28125 1.2812505v.414062h8v-1.6953125z" fill="#f8db8f"/></svg>