<svg height="22" viewBox="0 0 22 22" width="22" xmlns="http://www.w3.org/2000/svg"><path d="m0 .00026h22v22h-22z" fill="#c8c6c4" opacity=".66"/><path d="m10.5 3c-1.104569 0-2 .8954-2 2 0 .932.637301 1.7155 1.5 1.9375v2.0625h-3v1h3v7.96875c-2.303316-.147595-3.827644-1.277241-5.189453-2.96875h2.189453v-1h-3-1v1 3h1v-2.435547c1.639472 2.078797 3.648157 3.435547 6.5 3.435547s4.860528-1.35675 6.5-3.435547v2.435547h1v-3-1h-1-3v1h2.189453c-1.361809 1.691509-2.886137 2.821155-5.189453 2.96875v-7.96875h3v-1h-3v-2.0625c.862699-.222 1.5-1.0055 1.5-1.9375 0-1.1046-.895431-2-2-2zm0 1c.552285 0 1 .4477 1 1s-.447715 1-1 1-1-.4477-1-1 .447715-1 1-1z" fill="#3a3a38" fill-rule="evenodd"/></svg>