<?xml version="1.0" encoding="utf-8"?>
<!-- Generator: Adobe Illustrator 12.0.1, SVG Export Plug-In . SVG Version: 6.00 Build 51448)  -->
<!DOCTYPE svg PUBLIC "-//W3C//DTD SVG 1.1//EN" "http://www.w3.org/Graphics/SVG/1.1/DTD/svg11.dtd" [
	<!ENTITY ns_svg "http://www.w3.org/2000/svg">
	<!ENTITY ns_xlink "http://www.w3.org/1999/xlink">
]>
<svg  version="1.1" id="Layer_1" xmlns="&ns_svg;" xmlns:xlink="&ns_xlink;" width="100" height="100" viewBox="0 0 100 100"
	 overflow="visible" enable-background="new 0 0 100 100" xml:space="preserve">
<g>
	<g>
		<g>
			<g>
				<radialGradient id="XMLID_4_" cx="48.084" cy="53.4453" r="52.5298" gradientUnits="userSpaceOnUse">
					<stop  offset="0" style="stop-color:#FFF254"/>
					<stop  offset="1" style="stop-color:#F9BC21"/>
				</radialGradient>
				<path fill="url(#XMLID_4_)" d="M6.934,49.576c0,23.371,19.014,42.385,42.384,42.385c23.371,0,42.385-19.014,42.385-42.385
					S72.689,7.191,49.318,7.191C25.947,7.191,6.934,26.205,6.934,49.576z"/>
				<path fill="#CC7E29" d="M49.317,6.371c-5.832,0-11.49,1.142-16.818,3.396c-5.145,2.176-9.765,5.291-13.732,9.259
					c-3.967,3.968-7.082,8.588-9.258,13.733c-2.254,5.328-3.396,10.986-3.396,16.818s1.142,11.489,3.396,16.817
					c2.176,5.146,5.291,9.766,9.258,13.733c3.967,3.967,8.587,7.082,13.732,9.258c5.328,2.254,10.986,3.396,16.818,3.396
					s11.49-1.143,16.818-3.396c5.145-2.176,9.766-5.291,13.733-9.258c3.968-3.968,7.083-8.588,9.259-13.733
					c2.254-5.328,3.396-10.985,3.396-16.817s-1.142-11.49-3.396-16.818c-2.176-5.146-5.291-9.766-9.259-13.733
					c-3.967-3.968-8.588-7.083-13.733-9.259C60.807,7.513,55.149,6.371,49.317,6.371L49.317,6.371z M7.754,49.577
					c0-22.955,18.608-41.565,41.563-41.565s41.565,18.61,41.565,41.565l0,0l0,0c0,22.955-18.61,41.563-41.565,41.563
					S7.754,72.532,7.754,49.577L7.754,49.577L7.754,49.577z"/>
			</g>
			<path fill="none" stroke="#727272" stroke-width="0.5471" d="M27.102,68.709"/>
			<path fill="none" stroke="#666666" stroke-width="1.6413" d="M59.927,27.404"/>
		</g>
		<defs>
			<filter id="Adobe_OpacityMaskFilter" filterUnits="userSpaceOnUse" x="10.838" y="7.867" width="76.947" height="76.947">
				<feColorMatrix  type="matrix" values="1 0 0 0 0  0 1 0 0 0  0 0 1 0 0  0 0 0 1 0"/>
			</filter>
		</defs>
		<mask maskUnits="userSpaceOnUse" x="10.838" y="7.867" width="76.947" height="76.947" id="XMLID_5_">
			<g filter="url(#Adobe_OpacityMaskFilter)">
				<radialGradient id="XMLID_6_" cx="48.312" cy="24.748" r="59.7214" gradientUnits="userSpaceOnUse">
					<stop  offset="0" style="stop-color:#FFFFFF"/>
					<stop  offset="1" style="stop-color:#000000"/>
				</radialGradient>
				<circle opacity="0.7" fill="url(#XMLID_6_)" cx="49.097" cy="42.414" r="44.755"/>
			</g>
		</mask>
		<circle opacity="0.57" mask="url(#XMLID_5_)" fill="#FFFFFF" cx="49.312" cy="46.34" r="38.474"/>
		<circle fill="#3F3F3F" stroke="#3F3F3F" stroke-width="2.1883" stroke-linecap="round" stroke-linejoin="round" cx="32.957" cy="43.693" r="4.336"/>
		<circle fill="#3F3F3F" stroke="#3F3F3F" stroke-width="2.1883" stroke-linecap="round" stroke-linejoin="round" cx="65.478" cy="43.693" r="4.336"/>
	</g>
	<polygon fill="#3F3F3F" stroke="#3F3F3F" stroke-width="2.1883" stroke-linecap="round" stroke-linejoin="round" points="
		55.059,38.021 81.565,36.277 81.565,40.777 55.065,40.777 	"/>
	<polygon fill="#3F3F3F" stroke="#3F3F3F" stroke-width="2.1883" stroke-linecap="round" stroke-linejoin="round" points="
		43.648,38.021 17.143,36.277 17.143,40.777 43.643,40.777 	"/>
	<line fill="none" stroke="#606060" stroke-width="3.5" stroke-linecap="round" x1="33.565" y1="69.527" x2="65.565" y2="69.527"/>
</g>
</svg>
