<?xml version="1.0" encoding="utf-8"?>
<!-- Generator: Adobe Illustrator 12.0.1, SVG Export Plug-In . SVG Version: 6.00 Build 51448)  -->
<!DOCTYPE svg PUBLIC "-//W3C//DTD SVG 1.1//EN" "http://www.w3.org/Graphics/SVG/1.1/DTD/svg11.dtd" [
	<!ENTITY ns_svg "http://www.w3.org/2000/svg">
	<!ENTITY ns_xlink "http://www.w3.org/1999/xlink">
]>
<svg  version="1.1" id="Layer_1" xmlns="&ns_svg;" xmlns:xlink="&ns_xlink;" width="100.002" height="100"
	 viewBox="0 0 100.002 100" overflow="visible" enable-background="new 0 0 100.002 100" xml:space="preserve">
<g>
	<g>
		
			<linearGradient id="XMLID_3_" gradientUnits="userSpaceOnUse" x1="81.6104" y1="19.4907" x2="33.1169" y2="34.0198" gradientTransform="matrix(0.9948 -0.1019 0.1019 0.9948 -0.5671 10.2099)">
			<stop  offset="0" style="stop-color:#BE0000"/>
			<stop  offset="0.0716" style="stop-color:#C60D0D"/>
			<stop  offset="0.2948" style="stop-color:#DC3030"/>
			<stop  offset="0.4143" style="stop-color:#E53E3E"/>
			<stop  offset="0.4693" style="stop-color:#DE3333"/>
			<stop  offset="0.6322" style="stop-color:#CD1919"/>
			<stop  offset="0.7286" style="stop-color:#C70F0F"/>
			<stop  offset="1" style="stop-color:#D32222"/>
		</linearGradient>
		<path fill="url(#XMLID_3_)" d="M47.351,15.252c-0.011,0.005-0.022,0.01-0.033,0.016c-14.441,7.336-26.813-0.489-26.936-0.569
			c-0.264-0.171-0.606-0.16-0.857,0.028c-0.251,0.188-0.359,0.513-0.27,0.814l11.472,38.544c0.054,0.183,0.176,0.335,0.341,0.431
			c2.456,1.427,15.483,8.123,30.842-0.209c12.882-6.269,25.157-2.688,25.673-2.532c0.27,0.081,0.563,0.008,0.758-0.195
			c0.195-0.202,0.262-0.494,0.17-0.761L76.234,15c-0.048-0.14-0.135-0.26-0.253-0.35C69.436,9.649,62.934,8.264,47.351,15.252z"/>
		<path fill="#7C1212" d="M64.602,9.684c-4.548,0-10.127,1.552-17.559,4.884c-0.022,0.01-0.044,0.021-0.065,0.032
			c-4.021,2.042-8.243,3.078-12.549,3.078c-7.956,0-13.584-3.572-13.64-3.608c-0.249-0.16-0.532-0.24-0.815-0.24
			c-0.317,0-0.634,0.1-0.9,0.3c-0.502,0.376-0.718,1.025-0.539,1.626c0.103,0.347,10.325,34.755,11.473,38.547
			c0.11,0.364,0.354,0.672,0.682,0.863c2.055,1.193,7.681,3.973,15.533,3.973c5.529,0,10.912-1.396,16.001-4.148
			c4.918-2.391,10.323-3.602,16.068-3.602c5.344,0.001,9.036,1.094,9.073,1.105c0.142,0.042,0.287,0.063,0.432,0.063
			c0.4,0,0.791-0.159,1.078-0.455c0.39-0.403,0.523-0.989,0.346-1.52c-0.038-0.115-3.927-11.715-12.279-35.826
			c-0.096-0.278-0.272-0.522-0.506-0.701C72.425,10.991,68.886,9.684,64.602,9.684L64.602,9.684z M34.429,19.178
			c3.955,0,8.473-0.825,13.228-3.241c7.449-3.34,12.738-4.753,16.945-4.753c4.413,0,7.637,1.553,10.923,4.063
			c8.446,24.384,12.274,35.811,12.274,35.811l0,0l0,0c0,0-3.843-1.168-9.507-1.169c-4.707,0-10.671,0.807-16.74,3.76
			c-5.427,2.944-10.678,3.99-15.329,3.99c-6.461,0-11.764-2.017-14.779-3.77c-1.16-3.834-11.471-38.541-11.471-38.541l0,0l0,0
			C19.973,15.329,25.888,19.178,34.429,19.178L34.429,19.178z M62.233,54.985c0.011-0.007,0.022-0.013,0.034-0.019
			C62.256,54.973,62.245,54.979,62.233,54.985L62.233,54.985z"/>
	</g>
	<path opacity="0.1" fill="#EAF3FB" d="M75.601,15.768c-0.025-0.175-0.051-0.345-0.075-0.521c-6.419-4.904-12.605-6.154-27.868,0.69
		c-15.021,7.631-27.684-0.608-27.684-0.608s10.311,34.707,11.471,38.54c0.419,0.244,0.893,0.493,1.406,0.741
		c-2.474-8.276-10.9-36.641-10.9-36.641s0.209,0.136,0.601,0.354l5.538,16.427c0,0,13.406,0.82,25.361-7.928
		c9.196-7.613,9.307-11.004,22.967-9.686L75.601,15.768z"/>
	<g>
		
			<linearGradient id="XMLID_4_" gradientUnits="userSpaceOnUse" x1="9.4033" y1="48.2012" x2="27.3369" y2="43.5308" gradientTransform="matrix(0.8088 -0.0419 0.1416 0.982 6.5269 7.5226)">
			<stop  offset="0.0048" style="stop-color:#ADADAD"/>
			<stop  offset="0.0464" style="stop-color:#B1B1B1"/>
			<stop  offset="0.2369" style="stop-color:#C1C1C1"/>
			<stop  offset="0.3857" style="stop-color:#C7C7C6"/>
			<stop  offset="0.5389" style="stop-color:#BABAB9"/>
			<stop  offset="0.8211" style="stop-color:#989898"/>
			<stop  offset="1" style="stop-color:#7F7F7F"/>
		</linearGradient>
		<path fill="url(#XMLID_4_)" d="M18.822,14.332L18.822,14.332l-5.891,1.903c-0.473,0.152-0.868,0.497-1.11,0.97
			c-0.299,0.584-0.344,1.313-0.123,1.999l22.194,68.482c0.221,0.685,0.683,1.249,1.268,1.549c0.473,0.242,0.995,0.291,1.468,0.138
			l5.89-1.902c0.474-0.152,0.868-0.496,1.11-0.97c0.3-0.584,0.345-1.313,0.123-1.999L21.559,16.018
			c-0.221-0.685-0.683-1.249-1.268-1.548C19.818,14.228,19.296,14.179,18.822,14.332z"/>
		<path fill="#757575" d="M19.382,13.603c-0.257,0-0.51,0.039-0.753,0.117l-5.895,1.905c-0.636,0.205-1.164,0.662-1.484,1.287
			c-0.377,0.735-0.436,1.643-0.163,2.49l22.195,68.482c0.42,1.306,1.566,2.22,2.787,2.22c0.261,0,0.517-0.041,0.762-0.121l5.885-1.9
			c0.636-0.204,1.164-0.662,1.485-1.287c0.377-0.736,0.436-1.644,0.163-2.491L22.169,15.821c0,0,0,0,0.001,0
			C21.741,14.494,20.621,13.603,19.382,13.603L19.382,13.603z M12.202,18.325c0.002-0.692,0.352-1.292,0.927-1.478l5.891-1.904
			c0.119-0.038,0.24-0.056,0.362-0.056c0.653,0,1.307,0.53,1.565,1.329l22.194,68.481c0.074,0.23,0.108,0.461,0.108,0.683
			c-0.002,0.692-0.352,1.293-0.928,1.478l-5.89,1.903c-0.119,0.039-0.241,0.057-0.362,0.057c-0.654,0-1.308-0.531-1.565-1.331
			L12.31,19.007C12.236,18.777,12.201,18.546,12.202,18.325L12.202,18.325z"/>
	</g>
</g>
</svg>
