<?xml version="1.0" encoding="utf-8"?>
<!-- Generator: Adobe Illustrator 12.0.1, SVG Export Plug-In . SVG Version: 6.00 Build 51448)  -->
<!DOCTYPE svg PUBLIC "-//W3C//DTD SVG 1.1//EN" "http://www.w3.org/Graphics/SVG/1.1/DTD/svg11.dtd" [
	<!ENTITY ns_svg "http://www.w3.org/2000/svg">
	<!ENTITY ns_xlink "http://www.w3.org/1999/xlink">
]>
<svg  version="1.1" id="Layer_1" xmlns="&ns_svg;" xmlns:xlink="&ns_xlink;" width="100.001" height="100.001"
	 viewBox="0 0 100.001 100.001" overflow="visible" enable-background="new 0 0 100.001 100.001" xml:space="preserve">
<g>
	<g>
		<linearGradient id="XMLID_2_" gradientUnits="userSpaceOnUse" x1="34.4058" y1="28.6323" x2="55.8648" y2="61.8734">
			<stop  offset="0" style="stop-color:#FFF254"/>
			<stop  offset="1" style="stop-color:#F9BC21"/>
		</linearGradient>
		<path fill="url(#XMLID_2_)" d="M47.254,10.46l-9.831,19.919c-1.03,2.087-3.845,4.133-6.147,4.467L9.294,38.041
			c-2.066,0.301-2.701,1.35-2.896,1.948c-0.059,0.182-0.11,0.42-0.11,0.706c0,0.655,0.267,1.556,1.308,2.57L23.503,58.77
			c1.433,1.397,2.429,4.042,2.429,6.215c0,0.353-0.026,0.692-0.081,1.013L22.096,87.89c-0.061,0.353-0.087,0.672-0.087,0.961
			c0,1.399,0.623,2.089,1.044,2.396c0.509,0.369,1.639,0.845,3.487-0.127l19.661-10.337c2.06-1.083,5.539-1.083,7.599,0
			L73.461,91.12c1.849,0.972,2.979,0.496,3.488,0.126c0.509-0.369,1.31-1.298,0.957-3.355l-3.755-21.893
			c-0.394-2.293,0.681-5.603,2.348-7.228l15.906-15.505c1.495-1.457,1.393-2.679,1.198-3.276c-0.194-0.599-0.829-1.647-2.895-1.948
			l-21.982-3.194c-2.302-0.334-5.117-2.38-6.147-4.467L52.748,10.46c-0.924-1.873-2.117-2.152-2.747-2.152
			S48.178,8.588,47.254,10.46z"/>
		<path fill="#E2963B" d="M50,7.559c-1.368,0-2.614,0.937-3.419,2.571L36.75,30.047c-0.919,1.863-3.527,3.759-5.582,4.058
			L9.186,37.298c-1.06,0.154-2.923,0.68-3.501,2.459c-0.422,1.301,0.084,2.774,1.388,4.046l15.906,15.505
			c1.487,1.448,2.483,4.516,2.132,6.563l-3.754,21.894c-0.323,1.879,0.216,2.992,0.725,3.596c0.589,0.699,1.45,1.083,2.424,1.083
			c0.75,0,1.552-0.222,2.384-0.66l19.66-10.336c0.879-0.462,2.136-0.727,3.45-0.727c1.313,0,2.572,0.265,3.452,0.727l19.66,10.337
			c0.83,0.438,1.631,0.659,2.382,0.659c0.974,0,1.835-0.384,2.424-1.083c0.509-0.604,1.049-1.717,0.728-3.595L74.89,65.871
			c-0.352-2.047,0.644-5.113,2.132-6.563l15.906-15.505c1.304-1.271,1.81-2.745,1.388-4.046c-0.422-1.3-1.698-2.195-3.499-2.459
			l-21.983-3.193c-2.056-0.299-4.664-2.194-5.583-4.057L53.42,10.129C52.946,9.169,51.871,7.559,50,7.559L50,7.559z M7.039,40.677
			c0.008-0.939,0.828-1.671,2.363-1.895l21.981-3.194c2.551-0.369,5.572-2.564,6.712-4.877l9.831-19.918
			c0.57-1.156,1.322-1.734,2.074-1.734s1.504,0.578,2.075,1.734l9.831,19.918c1.14,2.313,4.161,4.508,6.712,4.877L90.6,38.783
			c1.534,0.224,2.354,0.955,2.362,1.895c0.005,0.622-0.346,1.335-1.081,2.052L75.975,58.234C74.389,59.78,73.313,62.62,73.319,65
			c0.001,0.39,0.031,0.767,0.093,1.124l3.755,21.894c0.049,0.287,0.073,0.557,0.074,0.807c0.006,1.347-0.667,2.118-1.747,2.118
			c-0.487,0-1.056-0.156-1.684-0.487L54.149,80.119C53.008,79.52,51.504,79.22,50,79.22s-3.008,0.3-4.148,0.898L26.191,90.456
			c-0.629,0.331-1.198,0.487-1.685,0.487c-1.071,0-1.74-0.757-1.746-2.081c-0.001-0.26,0.023-0.542,0.075-0.844l3.754-21.894
			C26.65,65.767,26.68,65.39,26.681,65c0.006-2.381-1.069-5.221-2.655-6.767L8.12,42.729C7.384,42.012,7.033,41.299,7.039,40.677
			L7.039,40.677z"/>
	</g>
	<g opacity="0.05">
		<path d="M45.736,76.381L26.075,86.719c-1.278,0.672-2.321,0.597-2.79-0.202l-0.346-0.59l-0.351,2.048
			c-0.228,1.328,0.041,2.347,0.759,2.866c0.717,0.521,1.769,0.463,2.96-0.164L45.969,80.34c2.224-1.169,5.841-1.169,8.064,0
			l19.661,10.337c1.192,0.627,2.244,0.686,2.961,0.164c0.717-0.521,0.986-1.539,0.758-2.866l-0.351-2.048l-0.347,0.591
			c-0.468,0.798-1.511,0.873-2.789,0.201L54.266,76.381C51.914,75.146,48.088,75.146,45.736,76.381z"/>
		<path fill="#E2963B" d="M50,75.205c-1.651,0-3.207,0.34-4.381,0.956L25.958,86.499c-0.531,0.279-1.032,0.427-1.446,0.427
			c-0.463,0-0.803-0.18-1.011-0.533l-0.693-1.184l-0.231,1.353l-0.235,1.373c-0.203,1.187-0.029,2.148,0.505,2.781
			c0.401,0.477,0.975,0.728,1.659,0.728c0.586,0,1.231-0.183,1.918-0.545l19.661-10.336c1.032-0.543,2.423-0.842,3.915-0.842
			c1.492,0,2.883,0.299,3.917,0.842l19.66,10.337c0.686,0.361,1.331,0.544,1.917,0.544c0.685,0,1.259-0.251,1.66-0.728
			c0.534-0.633,0.709-1.595,0.506-2.781l-0.236-1.374l-0.232-1.35L76.5,86.392c-0.208,0.354-0.548,0.533-1.011,0.533
			c-0.415,0-0.915-0.147-1.446-0.427L54.382,76.161h-0.001C53.207,75.544,51.651,75.205,50,75.205L50,75.205z M24.512,87.425
			c0.485,0,1.052-0.154,1.679-0.483l19.661-10.338c1.14-0.6,2.644-0.899,4.148-0.899s3.008,0.3,4.149,0.899L73.81,86.942
			c0.626,0.329,1.193,0.483,1.679,0.483c0.645,0,1.145-0.273,1.442-0.78l0.236,1.373c0.049,0.287,0.073,0.557,0.075,0.807
			c0.005,1.347-0.666,2.118-1.748,2.118c-0.487,0-1.056-0.156-1.684-0.487L54.149,80.119C53.008,79.52,51.504,79.22,50,79.22
			s-3.008,0.3-4.148,0.898L26.191,90.456c-0.629,0.331-1.198,0.487-1.685,0.487c-1.071,0-1.74-0.757-1.746-2.081
			c-0.001-0.26,0.023-0.542,0.075-0.844l0.235-1.373C23.367,87.152,23.866,87.425,24.512,87.425L24.512,87.425z"/>
	</g>
	<g opacity="0.3">
		<path fill="#FFFFFF" d="M90.6,38.783l-21.982-3.194c-2.551-0.37-5.571-2.565-6.712-4.877l-9.831-19.919
			c-1.141-2.312-3.008-2.312-4.148,0l-9.831,19.919c-1.141,2.312-4.161,4.507-6.712,4.877L9.402,38.783
			c-2.552,0.371-3.128,2.146-1.282,3.945l1.352,1.318l21.912-3.186c2.551-0.37,5.571-2.564,6.712-4.877l9.831-19.918
			c1.141-2.312,3.008-2.312,4.148,0l9.831,19.918c1.141,2.313,4.161,4.507,6.712,4.877l21.913,3.186l1.351-1.318
			C93.727,40.929,93.151,39.154,90.6,38.783z"/>
	</g>
</g>
</svg>
