<svg height="32" viewBox="0 0 32 32" width="32" xmlns="http://www.w3.org/2000/svg"><path d="m2 4c-.554 0-1 .446-1 1v22c0 .554.446 1 1 1h28c.554 0 1-.446 1-1v-22c0-.554-.446-1-1-1zm0 1h28v22h-28z" fill="#3a3a38"/><path d="m2 5h28v22h-28z" fill="#fafafa"/><g fill="#1e8bcd"><path d="m1.99998 4.99997h3v22.00003h-3z"/><path d="m6.99998 4.99997h1v22.00003h-1z"/><path d="m9.99998 4.99997h1v22.00003h-1z"/><path d="m11.99998 4.99997h3v22.00003h-3z"/><path d="m15.99998 4.99997h2v22.00003h-2z"/><path d="m19.99998 4.99997h1v22.00003h-1z"/><path d="m23.99998 4.99997h1v22.00003h-1z"/><path d="m26.99998 4.99997h1.99999v22.00006h-1.99999z"/></g></svg>