<svg height="32" viewBox="0 0 32 32" width="32" xmlns="http://www.w3.org/2000/svg"><g stroke-width=".125"><path d="m21 6.9990845c-.00015-.1771116-.047331-.3510067-.136719-.5039062l-3.5-6.00000002c-.386164-.6602377-1.340398-.6602377-1.726562 0l-3.5 6.00000002c-.089388.1528995-.136569.3267946-.136719.5039062v1c.000055.552262.447738.999945 1 1h.349609c.205523-.000107.406023-.06353.574219-.181641.754039-.529888 1.652682-.815585 2.574219-.818359h.002.002c.923131.0018 1.824685.287522 2.580078.818359.168135.118101.368618.181524.574125.181641h.34375c.552262-.000055.999945-.447738 1-1zm-1 0v1h-.34375c-.924399-.649603-2.026428-.9988-3.15625-1-1.127821.0024-2.227628.351543-3.150391 1h-.349609v-1l3.5-6.00000002zm0 5.4999995c0-1.921152-1.578848-3.4999995-3.5-3.4999995s-3.5 1.5788475-3.5 3.4999995 1.578848 3.5 3.5 3.5 3.5-1.578848 3.5-3.5zm-1 0c0 1.380712-1.119288 2.5-2.5 2.5s-2.5-1.119288-2.5-2.5 1.119288-2.4999995 2.5-2.4999995 2.5 1.1192875 2.5 2.4999995z" fill="#ffeffc"/><path d="m20 6.9990845-3.5-6.00000002-3.5 6.00000002v1h.349609c.922763-.648457 2.02257-.997559 3.150391-1 1.129822.0012 2.231851.350397 3.15625 1h.34375zm-1 5.4999995c0-1.380712-1.119288-2.4999995-2.5-2.4999995s-2.5 1.1192875-2.5 2.4999995 1.119288 2.5 2.5 2.5 2.5-1.119288 2.5-2.5z"/></g></svg>