<svg height="32" viewBox="0 0 32 32" width="32" xmlns="http://www.w3.org/2000/svg"><g transform="matrix(.125 0 0 .125 -3.5 -2)"><path d="m92 24v56h-56v8h56v56h8v-56h56v-8h-56v-56zm48 104v8l24 24h32v16h64v-40h-64v16h-24l-24-24zm64 16h48v24h-48z" fill="#fafafa"/><path d="m7 0v1 6h-7v3h7v7h3v-7h7v-3h-7v-7zm1 1h1v6h-1zm-7 7h6v1h-6zm7 0h1v1h-1zm2 0h6v1h-6zm-2 2h1v6h-1zm5 3v1 1.414062l3.585938 3.585938h3.414062v2h10v-7h-10v2h-1.585938l-3-3zm1 1h1l3 3h3v-2h8v5h-8v-2h-4l-3-3zm8 2v3h6v-3zm1 1h4v1h-4z" fill="#141414" stroke-width=".125" transform="matrix(8 0 0 8 28 16)"/></g></svg>