<svg height="32" viewBox="0 0 32 32" width="32" xmlns="http://www.w3.org/2000/svg"><g transform="matrix(.125 0 0 .125 -3.5 -2)"><path d="m76 16v8 40h-48v24h48v48h24v-48h48v-24h-48v-48zm72 136v8 88h24v-37.78125l3.46875 5.78125h15.20312l13.32813-10v18h4.68751l-4.68751 4.6875v19.3125h19.3125l20.6875-20.6875v-11.3125-4.6875l3.3125-3.3125h-3.3125v-8h-16v-32h-18.65625l-21.8125 16.32813-18.95312-32.32813z" fill="#fafafa"/><path d="m84 16v56h-56v8h56v56h8v-56h56v-8h-56v-56zm72 144v80h8v-58.67187l16 26.67187h8l24-18v26h8 8l-16 16v8h8l16-16v-8-8h-16v-32h-8l-26.84375 20.09375-21.15625-36.09375z"/></g></svg>