<svg height="32" width="32" xmlns="http://www.w3.org/2000/svg"><path d="m16 3a13 13 0 0 0 -13 13 13 13 0 0 0 13 13 13 13 0 0 0 13-13 13 13 0 0 0 -13-13zm0 1a12 12 0 0 1 12 12 12 12 0 0 1 -12 12 12 12 0 0 1 -12-12 12 12 0 0 1 12-12z" fill="#309048"/><path d="m16 4a12 12 0 0 0 -12 12 12 12 0 0 0 12 12 12 12 0 0 0 12-12 12 12 0 0 0 -12-12zm8.066406 5.9980469c.79164.0362701 1.207831.9553191.712891 1.5742191l-10.585938 12.574218c-.339982.436962-.976207.501029-1.396484.140625l-5.1542969-4.828125c-.9934324-.840227.2790677-2.325466 1.2617188-1.472656l4.3828121 4.166016 9.960938-11.769532c.192619-.255394.498805-.3993511.818359-.3847651z" fill="#a1ddaa"/><path d="m24.066648 9.9977632c-.319554-.014586-.625741.1293728-.81836.3847668l-9.960506 11.770366-4.3827784-4.167075c-.9826511-.85281-2.2551508.632429-1.2617184 1.472656l5.1542628 4.829185c.420277.360404 1.056502.296337 1.396484-.140625l10.585506-12.575055c.49494-.6189.07875-1.537949-.71289-1.5742188z" fill="#fafafa" fill-rule="evenodd"/></svg>