<svg height="32" width="32" xmlns="http://www.w3.org/2000/svg"><path d="m16 2-14 28h28zm0 2.2363281 12.382812 24.7636719h-24.7656245z" fill="#ed8733"/><path d="m16 4.2363281-12.3828125 24.7636719h24.7656245zm0 5.7636719c1.104569 0 2 .895431 2 2 0 2-.667318 3.666667-1.333984 9h-1.332032c-.666666-5.333333-1.333984-7-1.333984-9 0-1.104569.895431-2 2-2zm0 13c1.104569 0 2 .895431 2 2s-.895431 2-2 2-2-.895431-2-2 .895431-2 2-2z" fill="#f8db8f"/><path d="m16 10c-1.104569 0-2 .895431-2 2 0 2 .666667 3.666667 1.333333 9h1.333334c.666666-5.333333 1.333333-7 1.333333-9 0-1.104569-.895431-2-2-2zm0 13c-1.104569 0-2 .895431-2 2s.895431 2 2 2 2-.895431 2-2-.895431-2-2-2z" fill="#3a3a38"/></svg>