<?xml version="1.0" encoding="UTF-8" standalone="no"?>
<svg
   xmlns:dc="http://purl.org/dc/elements/1.1/"
   xmlns:cc="http://creativecommons.org/ns#"
   xmlns:rdf="http://www.w3.org/1999/02/22-rdf-syntax-ns#"
   xmlns:svg="http://www.w3.org/2000/svg"
   xmlns="http://www.w3.org/2000/svg"
   xmlns:sodipodi="http://sodipodi.sourceforge.net/DTD/sodipodi-0.dtd"
   xmlns:inkscape="http://www.inkscape.org/namespaces/inkscape"
   version="1.1"
   id="svg4"
   sodipodi:docname="at21711.svg"
   width="10.5593"
   height="10.5593"
   inkscape:version="0.92.4 (5da689c313, 2019-01-14)">
  <metadata
     id="metadata10">
    <rdf:RDF>
      <cc:Work
         rdf:about="">
        <dc:format>image/svg+xml</dc:format>
        <dc:type
           rdf:resource="http://purl.org/dc/dcmitype/StillImage" />
        <dc:title></dc:title>
      </cc:Work>
    </rdf:RDF>
  </metadata>
  <defs
     id="defs8" />
  <sodipodi:namedview
     pagecolor="#ffffff"
     bordercolor="#666666"
     borderopacity="1"
     objecttolerance="10"
     gridtolerance="10"
     guidetolerance="10"
     inkscape:pageopacity="0"
     inkscape:pageshadow="2"
     inkscape:window-width="819"
     inkscape:window-height="480"
     id="namedview6"
     showgrid="false"
     fit-margin-top="0"
     fit-margin-left="0"
     fit-margin-right="0"
     fit-margin-bottom="0"
     inkscape:zoom="2.36"
     inkscape:cx="49.0754"
     inkscape:cy="-38.57"
     inkscape:window-x="0"
     inkscape:window-y="0"
     inkscape:window-maximized="0"
     inkscape:current-layer="svg4" />
  <path
     d="m 7.5068502,9.8492998 0.882,0.2000012 -0.062,0.35 h -2.227 l 0.227,-1.2200012 q -1.321,1.3800012 -2.414,1.3800012 -0.946,0 -1.524,-0.6900012 -0.5704,-0.7 -0.5704,-1.916 0,-1.367 0.5934,-2.554 0.602,-1.196 1.602,-1.86 1,-0.672 2.172,-0.672 0.946,0 1.782,0.328 l 0.351,-0.265 h 0.422 z m -0.227,-5.99 q -0.305,-0.211 -0.57,-0.289 -0.266,-0.086 -0.657,-0.086 -0.781,0 -1.437,0.594 -0.649,0.586 -1.024,1.586 -0.375,1 -0.375,2.086 0,0.836 0.344,1.336 0.344,0.503 0.938,0.503 0.882,0 1.929,-1.089 z m 1.383,-3.07800001 q 0,0.32800001 -0.219,0.56300001 -0.219,0.226 -0.547,0.226 -0.328,0 -0.555,-0.242 -0.226,-0.242 -0.226,-0.54700001 0,-0.328 0.226,-0.555 0.227,-0.22630000133423 0.555,-0.22630000133423 0.328,0 0.547,0.22630000133423 0.219,0.227 0.219,0.555 z m -2.782,0 q 0,0.32800001 -0.218,0.56300001 -0.219,0.226 -0.547,0.226 -0.321,0 -0.555,-0.234 -0.234,-0.235 -0.234,-0.55500001 0,-0.328 0.242,-0.555 0.242,-0.22630000133423 0.547,-0.22630000133423 0.328,0 0.547,0.22630000133423 0.218,0.227 0.218,0.555 z"
     id="path2"
     inkscape:connector-curvature="0" />
</svg>
