<?xml version="1.0" encoding="UTF-8" standalone="no"?>
<svg
   xmlns:dc="http://purl.org/dc/elements/1.1/"
   xmlns:cc="http://creativecommons.org/ns#"
   xmlns:rdf="http://www.w3.org/1999/02/22-rdf-syntax-ns#"
   xmlns:svg="http://www.w3.org/2000/svg"
   xmlns="http://www.w3.org/2000/svg"
   xmlns:sodipodi="http://sodipodi.sourceforge.net/DTD/sodipodi-0.dtd"
   xmlns:inkscape="http://www.inkscape.org/namespaces/inkscape"
   version="1.1"
   id="svg10"
   sodipodi:docname="at21714.svg"
   width="21.695999"
   height="21.695999"
   inkscape:version="0.92.4 (5da689c313, 2019-01-14)">
  <metadata
     id="metadata16">
    <rdf:RDF>
      <cc:Work
         rdf:about="">
        <dc:format>image/svg+xml</dc:format>
        <dc:type
           rdf:resource="http://purl.org/dc/dcmitype/StillImage" />
        <dc:title></dc:title>
      </cc:Work>
    </rdf:RDF>
  </metadata>
  <defs
     id="defs14" />
  <sodipodi:namedview
     pagecolor="#ffffff"
     bordercolor="#666666"
     borderopacity="1"
     objecttolerance="10"
     gridtolerance="10"
     guidetolerance="10"
     inkscape:pageopacity="0"
     inkscape:pageshadow="2"
     inkscape:window-width="819"
     inkscape:window-height="480"
     id="namedview12"
     showgrid="false"
     fit-margin-top="0"
     fit-margin-left="0"
     fit-margin-right="0"
     fit-margin-bottom="0"
     inkscape:zoom="2.36"
     inkscape:cx="49.356"
     inkscape:cy="-35.56"
     inkscape:window-x="0"
     inkscape:window-y="0"
     inkscape:window-maximized="0"
     inkscape:current-layer="svg10" />
  <path
     d="m 6.2669996,14.61925 0.883,0.2 -0.063,0.35 h -2.226 l 0.226,-1.22 q -1.32,1.38 -2.414,1.38 -0.945,0 -1.524,-0.69 -0.57000003,-0.7 -0.57000003,-1.916 0,-1.367 0.59400003,-2.554 0.602,-1.1960004 1.602,-1.8600004 1,-0.672 2.172,-0.672 0.945,0 1.781,0.328 l 0.352,-0.265 h 0.422 z m -0.227,-5.9900004 q -0.304,-0.211 -0.57,-0.289 -0.266,-0.086 -0.656,-0.086 -0.781,0 -1.438,0.594 -0.648,0.586 -1.023,1.5860004 -0.375,1 -0.375,2.086 0,0.839 0.343,1.339 0.344,0.5 0.938,0.5 0.883,0 1.93,-1.09 z"
     id="path2"
     inkscape:connector-curvature="0" />
  <path
     d="m 9.4859996,4.6062496 -1.039,-0.188 0.063,-0.3515 H 10.856 l -0.58,3.4455 q -0.13,0.891 -0.3100004,1.508 0.6300004,-0.641 1.2900004,-1.016 0.66,-0.375 1.21,-0.375 0.98,0 1.57,0.704 0.58,0.695 0.58,1.9060004 0,1.344 -0.58,2.539 -0.58,1.191 -1.6,1.871 -1.03,0.68 -2.24,0.68 -0.6900004,0 -1.3510004,-0.18 -0.656,-0.18 -1.148,-0.48 z m -0.445,9.7230004 q 0.455,0.38 1.2550004,0.38 0.8,0 1.47,-0.59 0.68,-0.59 1.06,-1.583 0.39,-1 0.39,-2.094 0,-0.8750004 -0.36,-1.3520004 -0.36,-0.484 -0.97,-0.484 -0.46,0 -1,0.305 -0.53,0.304 -1.0200004,0.781 z"
     id="path4"
     inkscape:connector-curvature="0" />
  <path
     d="m 20.156,14.05925 q -0.64,0.59 -1.43,0.93 -0.79,0.34 -1.5,0.34 -1.25,0 -1.94,-0.73 -0.69,-0.73 -0.69,-2.008 0,-1.36 0.55,-2.477 0.54,-1.1250004 1.55,-1.8050004 1.02,-0.68 2.13,-0.68 0.55,0 1.18,0.118 0.62,0.117 1.03,0.289 l -0.35,2.0470004 h -0.43 l -0.13,-1.3600004 q -0.49,-0.492 -1.31,-0.492 -0.75,0 -1.41,0.555 -0.65,0.554 -1.04,1.5470004 -0.39,0.992 -0.39,2.18 0,1.996 1.61,1.996 1.12,0 2.33,-0.78 z"
     id="path6"
     inkscape:connector-curvature="0" />
  <path
     d="m -4.2724609e-7,17.62925 v -1.32 H 21.696 v 1.32 z"
     id="path8"
     inkscape:connector-curvature="0" />
</svg>
