<?xml version="1.0" encoding="UTF-8" standalone="no"?>
<svg
   xmlns:dc="http://purl.org/dc/elements/1.1/"
   xmlns:cc="http://creativecommons.org/ns#"
   xmlns:rdf="http://www.w3.org/1999/02/22-rdf-syntax-ns#"
   xmlns:svg="http://www.w3.org/2000/svg"
   xmlns="http://www.w3.org/2000/svg"
   xmlns:sodipodi="http://sodipodi.sourceforge.net/DTD/sodipodi-0.dtd"
   xmlns:inkscape="http://www.inkscape.org/namespaces/inkscape"
   version="1.1"
   id="svg120"
   sodipodi:docname="bi21312.svg"
   width="24"
   height="24"
   inkscape:version="0.92.4 (5da689c313, 2019-01-14)">
  <metadata
     id="metadata126">
    <rdf:RDF>
      <cc:Work
         rdf:about="">
        <dc:format>image/svg+xml</dc:format>
        <dc:type
           rdf:resource="http://purl.org/dc/dcmitype/StillImage" />
        <dc:title></dc:title>
      </cc:Work>
    </rdf:RDF>
  </metadata>
  <defs
     id="defs124" />
  <sodipodi:namedview
     pagecolor="#ffffff"
     bordercolor="#666666"
     borderopacity="1"
     objecttolerance="10"
     gridtolerance="10"
     guidetolerance="10"
     inkscape:pageopacity="0"
     inkscape:pageshadow="2"
     inkscape:window-width="1920"
     inkscape:window-height="995"
     id="namedview122"
     showgrid="false"
     fit-margin-top="0"
     fit-margin-left="0"
     fit-margin-right="0"
     fit-margin-bottom="0"
     inkscape:zoom="2.36"
     inkscape:cx="-30.87381"
     inkscape:cy="-40.352"
     inkscape:window-x="0"
     inkscape:window-y="0"
     inkscape:window-maximized="1"
     inkscape:current-layer="svg120" />
  <path
     d="m 3.0164,10.4735 q 0.902,0 1.324,0.369 0.428,0.369 0.428,1.131 v 3.721 l 0.685,0.146 v 0.264 h -1.511 l -0.112,-0.551 q -0.668,0.668 -1.705,0.668 -1.4118,0 -1.4118,-1.64 0,-0.551 0.2109,-0.909 0.2169,-0.363 0.6859,-0.55 0.468,-0.194 1.359,-0.211 l 0.826,-0.024 v -0.861 q 0,-0.568 -0.211,-0.838 -0.205,-0.27 -0.638,-0.27 -0.586,0 -1.073,0.276 l -0.199,0.685 h -0.328 v -1.201 q 0.949,-0.205 1.67,-0.205 z m 0.779,2.824 -0.767,0.024 q -0.786,0.029 -1.067,0.304 -0.275,0.276 -0.275,0.92 0,1.032 0.838,1.032 0.398,0 0.685,-0.088 0.293,-0.094 0.586,-0.235 z"
     id="path114"
     inkscape:connector-curvature="0" />
  <path
     d="m 12.2564,12.2025 q -0.29,-0.516 -0.68,-0.774 -0.38,-0.258 -0.88,-0.258 -0.594,0 -0.969,0.393 -0.375,0.387 -0.375,1.002 0,0.592 0.346,0.984 0.345,0.393 0.868,0.393 0.47,0 0.85,-0.387 0.39,-0.387 0.84,-1.353 z m 2.18,2.584 q -0.43,0 -0.87,-0.34 -0.42,-0.346 -0.89,-1.172 -0.42,0.797 -0.87,1.166 -0.46,0.369 -1.01,0.369 -0.794,0 -1.345,-0.656 -0.544,-0.656 -0.544,-1.623 0,-1.026 0.486,-1.658 0.492,-0.633 1.273,-0.633 0.56,0 1,0.363 0.44,0.357 0.88,1.184 0.4,-0.809 0.86,-1.19 0.46,-0.387 1.03,-0.387 v 0.879 q -0.24,0 -0.63,0.393 -0.38,0.387 -0.83,1.348 0.29,0.521 0.68,0.785 0.39,0.258 0.78,0.258 z"
     id="path116"
     inkscape:connector-curvature="0" />
  <path
     d="m 22.2364,13.1985 q 0,-1.078 -0.38,-1.606 -0.37,-0.527 -1.16,-0.527 -0.34,0 -0.68,0.064 -0.34,0.059 -0.5,0.129 v 4.366 q 0.5,0.093 1.18,0.093 0.81,0 1.17,-0.633 0.37,-0.632 0.37,-1.886 z m -3.69,-5.016 -0.8,-0.14 v -0.264 h 1.77 v 1.969 q 0,0.316 -0.03,1.16 0.58,-0.457 1.48,-0.457 1.12,0 1.72,0.685 0.6,0.68 0.6,2.063 0,1.482 -0.66,2.256 -0.66,0.767 -1.91,0.767 -0.5,0 -1.11,-0.111 -0.6,-0.111 -1.06,-0.293 z"
     id="path118"
     inkscape:connector-curvature="0" />
</svg>
