<?xml version="1.0" encoding="UTF-8" standalone="no"?>
<svg
   xmlns:dc="http://purl.org/dc/elements/1.1/"
   xmlns:cc="http://creativecommons.org/ns#"
   xmlns:rdf="http://www.w3.org/1999/02/22-rdf-syntax-ns#"
   xmlns:svg="http://www.w3.org/2000/svg"
   xmlns="http://www.w3.org/2000/svg"
   xmlns:sodipodi="http://sodipodi.sourceforge.net/DTD/sodipodi-0.dtd"
   xmlns:inkscape="http://www.inkscape.org/namespaces/inkscape"
   version="1.1"
   id="svg176"
   sodipodi:docname="co21912.svg"
   width="24"
   height="24"
   inkscape:version="0.92.4 (5da689c313, 2019-01-14)">
  <metadata
     id="metadata182">
    <rdf:RDF>
      <cc:Work
         rdf:about="">
        <dc:format>image/svg+xml</dc:format>
        <dc:type
           rdf:resource="http://purl.org/dc/dcmitype/StillImage" />
        <dc:title></dc:title>
      </cc:Work>
    </rdf:RDF>
  </metadata>
  <defs
     id="defs180" />
  <sodipodi:namedview
     pagecolor="#ffffff"
     bordercolor="#666666"
     borderopacity="1"
     objecttolerance="10"
     gridtolerance="10"
     guidetolerance="10"
     inkscape:pageopacity="0"
     inkscape:pageshadow="2"
     inkscape:window-width="1920"
     inkscape:window-height="995"
     id="namedview178"
     showgrid="false"
     fit-margin-top="0"
     fit-margin-left="0"
     fit-margin-right="0"
     fit-margin-bottom="0"
     inkscape:zoom="2.36"
     inkscape:cx="-31.41661"
     inkscape:cy="-37.17"
     inkscape:window-x="0"
     inkscape:window-y="0"
     inkscape:window-maximized="1"
     inkscape:current-layer="svg176" />
  <path
     d="m 9.03,15.15 q 0,-0.962 -0.334,-1.43 -0.333,-0.469 -1.031,-0.469 -0.307,0 -0.609,0.057 -0.302,0.052 -0.438,0.115 V 17.3 q 0.438,0.09 1.047,0.09 0.719,0 1.042,-0.57 Q 9.03,16.26 9.03,15.15 Z M 5.754,10.688 5.04,10.563 v -0.234 h 1.578 v 1.75 q 0,0.281 -0.031,1.031 0.521,-0.406 1.312,-0.406 1,0 1.532,0.609 0.536,0.604 0.536,1.837 0,1.31 -0.588,2 -0.584,0.68 -1.693,0.68 -0.448,0 -0.99,-0.09 -0.536,-0.1 -0.942,-0.27 z"
     id="path172"
     inkscape:connector-curvature="0" />
  <path
     d="m 18.96,13.162 v 0.352 h -3.32 v -0.352 l 0.97,-0.179 -1.69,-2.602 -1.987,2.617 1.007,0.164 v 0.352 H 11.301 V 13.162 L 12.152,13.037 14.57,9.85 12.441,6.717 11.574,6.522 V 6.17 H 14.9 v 0.352 l -0.97,0.211 1.41,2.109 1.62,-2.125 -1,-0.195 V 6.17 h 2.64 v 0.352 l -0.85,0.164 -2.06,2.672 2.42,3.64 z"
     id="path174"
     inkscape:connector-curvature="0" />
</svg>
