<?xml version="1.0" encoding="UTF-8" standalone="no"?>
<svg
   xmlns:dc="http://purl.org/dc/elements/1.1/"
   xmlns:cc="http://creativecommons.org/ns#"
   xmlns:rdf="http://www.w3.org/1999/02/22-rdf-syntax-ns#"
   xmlns:svg="http://www.w3.org/2000/svg"
   xmlns="http://www.w3.org/2000/svg"
   xmlns:sodipodi="http://sodipodi.sourceforge.net/DTD/sodipodi-0.dtd"
   xmlns:inkscape="http://www.inkscape.org/namespaces/inkscape"
   version="1.1"
   id="svg34"
   sodipodi:docname="mi22012.svg"
   width="23"
   height="23"
   inkscape:version="0.92.4 (5da689c313, 2019-01-14)">
  <metadata
     id="metadata40">
    <rdf:RDF>
      <cc:Work
         rdf:about="">
        <dc:format>image/svg+xml</dc:format>
        <dc:type
           rdf:resource="http://purl.org/dc/dcmitype/StillImage" />
        <dc:title></dc:title>
      </cc:Work>
    </rdf:RDF>
  </metadata>
  <defs
     id="defs38" />
  <sodipodi:namedview
     pagecolor="#ffffff"
     bordercolor="#666666"
     borderopacity="1"
     objecttolerance="10"
     gridtolerance="10"
     guidetolerance="10"
     inkscape:pageopacity="0"
     inkscape:pageshadow="2"
     inkscape:window-width="1920"
     inkscape:window-height="995"
     id="namedview36"
     showgrid="false"
     fit-margin-top="0"
     fit-margin-left="0"
     fit-margin-right="0"
     fit-margin-bottom="0"
     inkscape:zoom="2.36"
     inkscape:cx="-31.96061"
     inkscape:cy="-36.57"
     inkscape:window-x="0"
     inkscape:window-y="0"
     inkscape:window-maximized="1"
     inkscape:current-layer="svg34" />
  <path
     d="m 11.489,15.969 q 0.375,0 0.625,0.25 0.257,0.24 0.257,0.61 0,0.35 -0.265,0.61 -0.258,0.26 -0.617,0.26 -0.352,0 -0.61,-0.26 -0.25,-0.26 -0.25,-0.61 0,-0.34 0.25,-0.61 0.25,-0.25 0.61,-0.25 z m 0,-5.324 q 0.367,0 0.617,0.242 0.265,0.242 0.265,0.601 0,0.352 -0.265,0.618 -0.266,0.265 -0.617,0.265 -0.344,0 -0.61,-0.265 -0.25,-0.274 -0.25,-0.618 0,-0.843 0.86,-0.843 z m 0,-5.344 q 0.375,0 0.625,0.242 0.257,0.242 0.257,0.617 0,0.352 -0.265,0.61 -0.258,0.257 -0.617,0.257 -0.352,0 -0.61,-0.257 -0.25,-0.266 -0.25,-0.61 0,-0.344 0.25,-0.609 0.25,-0.25 0.61,-0.25 z"
     id="path32"
     inkscape:connector-curvature="0" />
</svg>
