<?xml version="1.0" encoding="UTF-8" standalone="no"?>
<svg
   xmlns:dc="http://purl.org/dc/elements/1.1/"
   xmlns:cc="http://creativecommons.org/ns#"
   xmlns:rdf="http://www.w3.org/1999/02/22-rdf-syntax-ns#"
   xmlns:svg="http://www.w3.org/2000/svg"
   xmlns="http://www.w3.org/2000/svg"
   xmlns:sodipodi="http://sodipodi.sourceforge.net/DTD/sodipodi-0.dtd"
   xmlns:inkscape="http://www.inkscape.org/namespaces/inkscape"
   version="1.1"
   id="svg114"
   sodipodi:docname="mi22006.svg"
   width="23"
   height="23"
   inkscape:version="0.92.4 (5da689c313, 2019-01-14)">
  <metadata
     id="metadata120">
    <rdf:RDF>
      <cc:Work
         rdf:about="">
        <dc:format>image/svg+xml</dc:format>
        <dc:type
           rdf:resource="http://purl.org/dc/dcmitype/StillImage" />
        <dc:title></dc:title>
      </cc:Work>
    </rdf:RDF>
  </metadata>
  <defs
     id="defs118" />
  <sodipodi:namedview
     pagecolor="#ffffff"
     bordercolor="#666666"
     borderopacity="1"
     objecttolerance="10"
     gridtolerance="10"
     guidetolerance="10"
     inkscape:pageopacity="0"
     inkscape:pageshadow="2"
     inkscape:window-width="1920"
     inkscape:window-height="995"
     id="namedview116"
     showgrid="false"
     fit-margin-top="0"
     fit-margin-left="0"
     fit-margin-right="0"
     fit-margin-bottom="0"
     inkscape:zoom="2.36"
     inkscape:cx="-31.52761"
     inkscape:cy="-37.07"
     inkscape:window-x="0"
     inkscape:window-y="0"
     inkscape:window-maximized="1"
     inkscape:current-layer="svg114" />
  <path
     d="m 14.8595,9.8365 q 0,1.328 -0.281,2.805 -0.281,1.476 -0.844,2.553 -0.554,1.07 -1.344,1.63 -0.781,0.55 -1.75,0.55 -1.187,0 -1.843,-0.73 -0.657,-0.73 -0.657,-2.07 0,-1.215 0.547,-2.394 0.547,-1.18 1.407,-1.766 0.859,-0.594 1.921,-0.594 0.727,0 1.282,0.391 0.562,0.383 0.828,1.031 h 0.031 l 0.031,-0.906 q 0,-1.774 -0.586,-2.719 -0.578,-0.945 -1.687,-0.945 -0.836,0 -1.781,0.656 l -0.282,-0.258 0.821,-1.172 q 0.617,-0.273 1.226,-0.273 1.43,0 2.196,1.086 0.765,1.078 0.765,3.125 z m -0.898,2.305 q -0.141,-0.719 -0.617,-1.188 -0.469,-0.476 -1.079,-0.476 -0.71,0 -1.296,0.539 -0.586,0.539 -0.969,1.609 -0.375,1.07 -0.375,2.159 0,0.97 0.406,1.51 0.406,0.53 1.102,0.53 0.632,0 1.203,-0.54 0.578,-0.56 1.015,-1.66 0.438,-1.101 0.61,-2.483 z"
     id="path112"
     inkscape:connector-curvature="0" />
</svg>
