<?xml version="1.0" encoding="UTF-8" standalone="no"?>
<svg
   xmlns:dc="http://purl.org/dc/elements/1.1/"
   xmlns:cc="http://creativecommons.org/ns#"
   xmlns:rdf="http://www.w3.org/1999/02/22-rdf-syntax-ns#"
   xmlns:svg="http://www.w3.org/2000/svg"
   xmlns="http://www.w3.org/2000/svg"
   xmlns:sodipodi="http://sodipodi.sourceforge.net/DTD/sodipodi-0.dtd"
   xmlns:inkscape="http://www.inkscape.org/namespaces/inkscape"
   version="1.1"
   id="svg146"
   sodipodi:docname="op22002.svg"
   width="25"
   height="25"
   inkscape:version="0.92.4 (5da689c313, 2019-01-14)">
  <metadata
     id="metadata152">
    <rdf:RDF>
      <cc:Work
         rdf:about="">
        <dc:format>image/svg+xml</dc:format>
        <dc:type
           rdf:resource="http://purl.org/dc/dcmitype/StillImage" />
        <dc:title></dc:title>
      </cc:Work>
    </rdf:RDF>
  </metadata>
  <defs
     id="defs150" />
  <sodipodi:namedview
     pagecolor="#ffffff"
     bordercolor="#666666"
     borderopacity="1"
     objecttolerance="10"
     gridtolerance="10"
     guidetolerance="10"
     inkscape:pageopacity="0"
     inkscape:pageshadow="2"
     inkscape:window-width="1920"
     inkscape:window-height="995"
     id="namedview148"
     showgrid="false"
     fit-margin-top="0"
     fit-margin-left="0"
     fit-margin-right="0"
     fit-margin-bottom="0"
     inkscape:zoom="2.36"
     inkscape:cx="-31.76361"
     inkscape:cy="-36.25"
     inkscape:window-x="0"
     inkscape:window-y="0"
     inkscape:window-maximized="1"
     inkscape:current-layer="svg146" />
  <path
     d="m 16.0965,9.283 q 0.43,1.265 0.43,3.297 0,5.848 -3.728,5.848 -2.344,0 -3.204,-2.26 -2.281,2.51 -2.539,2.51 -0.422,0 -0.422,-0.42 0,-0.25 2.688,-2.98 -0.25,-1.112 -0.25,-2.698 0,-5.86 3.727,-5.86 2.007,0 2.958,1.766 1.93,-2.164 2.19,-2.164 0.42,0 0.42,0.422 0,0.289 -2.27,2.539 z m -1.33,0.258 q -0.476,-1.649 -1.984,-1.649 -1.453,0 -1.969,1.742 -0.305,1.032 -0.305,2.946 0,0.757 0.047,1.39 z m 0.321,3.039 q 0,-1.125 -0.133,-2.094 l -4.266,4.512 q 0.406,2.27 2.11,2.27 1.468,0 1.984,-1.74 0.305,-1.011 0.305,-2.948 z"
     id="path144"
     inkscape:connector-curvature="0" />
</svg>
