<?xml version="1.0" encoding="utf-8"?>
<!-- Generator: Adobe Illustrator 16.0.0, SVG Export Plug-In . SVG Version: 6.00 Build 0)  -->
<!DOCTYPE svg PUBLIC "-//W3C//DTD SVG 1.1//EN" "http://www.w3.org/Graphics/SVG/1.1/DTD/svg11.dtd">
<svg version="1.1" id="Layer_1" xmlns="http://www.w3.org/2000/svg" xmlns:xlink="http://www.w3.org/1999/xlink" x="0px" y="0px"
	 width="126px" height="126px" viewBox="0 0 126 126" enable-background="new 0 0 126 126" xml:space="preserve">
<path d="M41.579,64.707c0-2.747-1.907-4.386-5.273-4.386c-1.373,0-2.303,0.132-2.791,0.265v8.819
	c0.577,0.132,1.286,0.177,2.258,0.177C39.364,69.582,41.579,67.765,41.579,64.707z"/>
<path d="M62.411,60.409c-1.508,0-2.481,0.133-3.059,0.266v19.542c0.577,0.134,1.508,0.134,2.35,0.134
	c6.114,0.043,10.103-3.323,10.103-10.458C71.849,63.687,68.215,60.409,62.411,60.409z"/>
<path d="M102.328,48.928h-2.449V37.11c0-0.074-0.012-0.148-0.021-0.223c-0.004-0.469-0.154-0.93-0.475-1.295L79.717,13.127
	c-0.006-0.006-0.012-0.008-0.016-0.014c-0.117-0.131-0.254-0.24-0.398-0.334c-0.043-0.029-0.086-0.053-0.131-0.078
	c-0.125-0.068-0.258-0.125-0.395-0.166c-0.037-0.01-0.07-0.025-0.107-0.035c-0.148-0.035-0.303-0.057-0.459-0.057H29.879
	c-2.207,0-4,1.795-4,4v32.484H23.43c-3.157,0-5.717,2.559-5.717,5.717v29.73c0,3.156,2.56,5.717,5.717,5.717h2.449v20.352
	c0,2.205,1.793,4,4,4h66c2.205,0,4-1.795,4-4V90.092h2.449c3.157,0,5.717-2.561,5.717-5.717v-29.73
	C108.045,51.487,105.485,48.928,102.328,48.928z M29.879,16.444h46.332v20.465c0,1.105,0.896,2,2,2h17.668v10.02h-66V16.444z
	 M78.982,69.669c0,5.718-2.082,9.661-4.966,12.099c-3.143,2.614-7.93,3.854-13.777,3.854c-3.5,0-5.981-0.221-7.667-0.442V55.844
	c2.481-0.398,5.718-0.62,9.13-0.62c5.669,0,9.348,1.02,12.229,3.19C77.032,60.719,78.982,64.396,78.982,69.669z M26.823,85.313
	V55.844c2.082-0.353,5.008-0.62,9.129-0.62c4.165,0,7.135,0.798,9.128,2.394c1.906,1.506,3.188,3.988,3.188,6.913
	c0,2.925-0.972,5.407-2.746,7.09c-2.304,2.171-5.716,3.147-9.705,3.147c-0.885,0-1.685-0.045-2.303-0.133v10.679H26.823z
	 M95.879,109.36h-66V90.092h66V109.36z M101.675,60.985H90.196v6.824h10.724v5.495H90.196v12.009h-6.777V55.446h18.256V60.985z"/>
</svg>
