<svg viewBox="0 0 24 24" xmlns="http://www.w3.org/2000/svg"><path d="m11.019531 5.0019531-5.2499999 13.9960939h1.5019532c.1633253 0 .3004448-.04636.4140625-.138672.1207187-.09231.2034871-.197641.2460937-.318359l1.2480469-3.541016h5.6484376l1.251953 3.550781c.05681.12782.13496.2351.234375.320313.106517.08521.243636.126953.414063.126953h1.501953l-5.240235-13.9960939zm.980469 1.8320313c.06391.2627408.132114.5071397.203125.734375.07101.2272353.14188.4272298.212891.5976562l1.705078 4.8339844h-4.2363285l1.6992185-4.8242188c.06391-.1704264.132114-.3684678.203125-.5957031s.14188-.4762518.212891-.7460937z" fill="#3a3a38"/><path d="m2.6666667 20h18.6666663v1h-18.6666663z" fill="#1e8bcd" stroke-width=".917663" transform="matrix(.75 0 0 1 3 0)"/></svg>