<svg height="128" viewBox="0 0 128 128" width="128" xmlns="http://www.w3.org/2000/svg" xmlns:xlink="http://www.w3.org/1999/xlink"><path d="m16.50215.036c-3.66708.69972-4.56553 2.266-4.49977 5.99775v115.96848c.0004 4.1875 1.81122 5.99736 5.99972 5.99776h91.99709c4.18851-.0004 5.99933-1.81026 5.99973-5.99776v-71.81919c.048-2.11191-.77997-4.2306-2.24993-5.74842l-42.16199-42.14926c-1.51819-1.46919-3.6374-2.29831-5.74981-2.24936h-47.83509c-.49838-.048-1.00141-.048-1.49995 0z" fill="#922e9b"/><path d="m18.00018 5.99175v2 112 2h2 88.00001 2v-2-70-.8752l-.62497-.6248-41.75001-42-.49997-.5h-.87502-46.25004z" fill="#fafafa"/><path d="m86.63499.06159c-2.66247.85278-3.55852 4.90601-1.50595 6.81207l24.09514 24.22094c2.22593 2.12165 6.65946.30628 6.77674-2.77533v-24.22085c-.00024-2.11366-1.91322-4.03659-4.01587-4.03683h-24.09514c-.41519-.064-.83997-.064-1.25492 0z" fill="#922e9b"/><path d="m31 47.998047v3h14v-3zm16 0v3h15v-3zm17 0v3h15v-3zm17 0v3h14v-3zm-50 5v4h14v-4zm16 0v4h15v-4zm17 0v4h15v-4zm17 0v4h14v-4zm-50 6v4h9.814453v-1.675781c0-1.108.892-2 2-2 8.508062-.380345-11.167045-.324219-11.814453-.324219zm51.339844.324219c1.108 0 2 .892 2 2v1.675781h10.660156v-4c-.169969-.398483-18.85138.324219-12.660156.324219zm-51.339844 5.675781v4h9.814453v-4zm53.339844 0v4h10.660156v-4zm-53.339844 6v4h9.814453v-4zm53.339844 0v4h10.660156v-4zm-53.339844 6v4h9.814453v-4zm53.339844 0v4h10.660156v-4zm-53.339844 6v4h9.814453v-4zm53.339844 0v4h10.660156v-4zm-53.339844 6v4h10.589844c-.469734-.365337-.775391-.930388-.775391-1.574219v-2.425781zm53.339844 0v2.425781c0 .643831-.307611 1.208882-.777344 1.574219h11.4375v-4zm-53.339844 6v4h14v-4zm16 0v4h15v-4zm17 0v4h15v-4zm17 0v4h14v-4zm-50 6.000003v3h14v-3zm16 0v3h15v-3zm17 0v3h15v-3zm17 0v3h14v-3z" fill="#d492d8"/><path d="m62.99924 54.96725c-6.6937 0-12.762.7304-17.2188 1.9375-2.2282.6036-4.0271 1.2932-5.375 2.1563-1.3477.863-2.4062 1.9891-2.4062 3.4375-.062 8.7636.0002 17.6812.0002 26.5v.5c0 1.3963.9899 2.5081 2.3438 3.375 1.3536.8669 3.2039 1.5826 5.4374 2.1875 4.4672 1.2098 10.5182 1.9375 17.2188 1.9375s12.7517-.7277 17.2188-1.9375c2.2335-.6049 4.0837-1.3206 5.4374-2.1875 1.3539-.8669 2.3438-1.9787 2.3438-3.375v-27c0-1.3529-1.3173-2.7252-2.406-3.4375-1.3478-.8631-3.1466-1.5527-5.375-2.1563-4.4568-1.2071-10.5251-1.9375-17.2188-1.9375zm0 2.0625c6.5612 0 12.5205.7295 16.75 1.875 2.1148.5728 3.7938 1.2452 4.875 1.9375 1.0811.6924 1.4062 1.3098 1.4062 1.6563s-.3251.9639-1.4062 1.6562c-1.0812.6924-2.7602 1.3648-4.875 1.9375-4.2295 1.1456-10.1888 1.875-16.75 1.875-6.5611 0-12.5205-.7294-16.75-1.875-2.1148-.5727-3.7939-1.2451-4.875-1.9375-1.0812-.6923-1.4063-1.3097-1.4062-1.6562 0-.3465.325-.9639 1.4062-1.6563 1.0811-.6923 2.7602-1.3647 4.875-1.9375 4.2295-1.1455 10.1889-1.875 16.75-1.875zm-23 8.5938c.1377.1.2601.2189.4062.3125 1.3479.863 3.1467 1.5527 5.375 2.1562 4.4568 1.207 10.5251 1.9375 17.2188 1.9375s12.762-.7305 17.2188-1.9375c2.2283-.6035 4.0272-1.2932 5.375-2.1562.1461-.094.2685-.2128.4062-.3125v5.375.5c0 .3986-.3624.9991-1.4375 1.6875s-2.7341 1.3661-4.8437 1.9375c-4.2193 1.1427-10.1646 1.875-16.7188 1.875s-12.4994-.7323-16.7188-1.875c-2.1096-.5714-3.7686-1.2491-4.8437-1.9375s-1.4375-1.2889-1.4375-1.6875v-.5zm0 9c.1172.083.22.1708.3438.25 1.3536.8669 3.2039 1.5826 5.4374 2.1875 4.4672 1.2098 10.5182 1.9375 17.2188 1.9375s12.7517-.7277 17.2188-1.9375c2.2335-.6049 4.0837-1.3206 5.4374-2.1875.1238-.079.2266-.1666.3438-.25v5.375.5c0 .3986-.3624.9991-1.4375 1.6875s-2.7341 1.3661-4.8437 1.9375c-4.2193 1.1427-10.1646 1.875-16.7188 1.875s-12.4994-.7323-16.7188-1.875c-2.1096-.5714-3.7686-1.2491-4.8437-1.9375s-1.4375-1.2889-1.4375-1.6875v-.5zm0 9c.1172.083.22.1708.3438.25 1.3536.8669 3.2039 1.5826 5.4374 2.1875 4.4672 1.2098 10.5182 1.9375 17.2188 1.9375s12.7517-.7277 17.2188-1.9375c2.2335-.6049 4.0837-1.3206 5.4374-2.1875.1238-.079.2266-.1666.3438-.25v5.375.5c0 .3986-.3624.9991-1.4375 1.6875s-2.7341 1.3661-4.8437 1.9375c-4.2193 1.1427-10.1646 1.875-16.7188 1.875s-12.4994-.7323-16.7188-1.875c-2.1096-.5714-3.7686-1.2491-4.8437-1.9375s-1.4375-1.2889-1.4375-1.6875v-.5z" fill="none" stroke="#fafafa" stroke-width="2"/><path d="m62.996094 56.5a23.499916 6.0000281 0 0 0 -23.5 6 23.499916 6.0000281 0 0 0 .333984.998047h-.830078v7.5.5c0 .168665.031538.334566.078125.5h-.078125v8 .5c0 .167878.030015.335322.076172.5h-.076172v8 .5c0 3.5898 10.7452 6.5 24 6.5s24-2.9102 24-6.5v-.5-8h-.078125c.046204-.164761.078125-.332035.078125-.5v-.5-8h-.078125c.046587-.165434.078125-.331335.078125-.5v-.5-7.5h-.857422a23.499916 6.0000281 0 0 0 .353516-.998047 23.499916 6.0000281 0 0 0 -23.5-6z" fill="#fafafa"/><path d="m62.99924 54.96725c-6.6937 0-12.762.7304-17.2188 1.9375-2.2282.6036-4.0271 1.2932-5.375 2.1563-1.3477.863-2.375 1.9891-2.375 3.4375h-.031v26.5.5c0 1.3963.9899 2.5081 2.3438 3.375 1.3536.8669 3.2039 1.5826 5.4374 2.1875 4.4672 1.2098 10.5182 1.9375 17.2188 1.9375s12.7517-.7277 17.2188-1.9375c2.2335-.6049 4.0837-1.3206 5.4374-2.1875 1.3539-.8669 2.3438-1.9787 2.3438-3.375v-27h-.031c0-1.4484-1.0273-2.5745-2.375-3.4375-1.3478-.8631-3.1466-1.5527-5.375-2.1563-4.4568-1.2071-10.5251-1.9375-17.2188-1.9375zm0 2.0625c6.5612 0 12.5205.7295 16.75 1.875 2.1148.5728 3.7938 1.2452 4.875 1.9375 1.0811.6924 1.4062 1.3098 1.4062 1.6563s-.3251.9639-1.4062 1.6562c-1.0812.6924-2.7602 1.3648-4.875 1.9375-4.2295 1.1456-10.1888 1.875-16.75 1.875-6.5611 0-12.5205-.7294-16.75-1.875-2.1148-.5727-3.7939-1.2451-4.875-1.9375-1.0812-.6923-1.4063-1.3097-1.4062-1.6562 0-.3465.325-.9639 1.4062-1.6563 1.0811-.6923 2.7602-1.3647 4.875-1.9375 4.2295-1.1455 10.1889-1.875 16.75-1.875zm-23 8.5938c.1377.1.2601.2189.4062.3125 1.3479.863 3.1467 1.5527 5.375 2.1562 4.4568 1.207 10.5251 1.9375 17.2188 1.9375s12.762-.7305 17.2188-1.9375c2.2283-.6035 4.0272-1.2932 5.375-2.1562.1461-.094.2685-.2128.4062-.3125v5.375.5c0 .3986-.3624.9991-1.4375 1.6875s-2.7341 1.3661-4.8437 1.9375c-4.2193 1.1427-10.1646 1.875-16.7188 1.875s-12.4994-.7323-16.7188-1.875c-2.1096-.5714-3.7686-1.2491-4.8437-1.9375s-1.4375-1.2889-1.4375-1.6875v-.5zm0 9c.1172.083.22.1708.3438.25 1.3536.8669 3.2039 1.5826 5.4374 2.1875 4.4672 1.2098 10.5182 1.9375 17.2188 1.9375s12.7517-.7277 17.2188-1.9375c2.2335-.6049 4.0837-1.3206 5.4374-2.1875.1238-.079.2266-.1666.3438-.25v5.375.5c0 .3986-.3624.9991-1.4375 1.6875s-2.7341 1.3661-4.8437 1.9375c-4.2193 1.1427-10.1646 1.875-16.7188 1.875s-12.4994-.7323-16.7188-1.875c-2.1096-.5714-3.7686-1.2491-4.8437-1.9375s-1.4375-1.2889-1.4375-1.6875v-.5zm0 9c.1172.083.22.1708.3438.25 1.3536.8669 3.2039 1.5826 5.4374 2.1875 4.4672 1.2098 10.5182 1.9375 17.2188 1.9375s12.7517-.7277 17.2188-1.9375c2.2335-.6049 4.0837-1.3206 5.4374-2.1875.1238-.079.2266-.1666.3438-.25v5.375.5c0 .3986-.3624.9991-1.4375 1.6875s-2.7341 1.3661-4.8437 1.9375c-4.2193 1.1427-10.1646 1.875-16.7188 1.875s-12.4994-.7323-16.7188-1.875c-2.1096-.5714-3.7686-1.2491-4.8437-1.9375s-1.4375-1.2889-1.4375-1.6875v-.5z" fill="none"/><path d="m63 54.966797c-6.6937 0-12.76195.7304-17.21875 1.9375-2.2282.6036-4.0271 1.29315-5.375 2.15625-1.3477.863-2.40625 1.9891-2.40625 3.4375-.062 8.7636 0 17.6812 0 26.5v.5c0 1.3963.98985 2.5081 2.34375 3.375 1.3536.8669 3.204 1.5826 5.4375 2.1875 4.4672 1.2098 10.51815 1.9375 17.21875 1.9375s12.75165-.7277 17.21875-1.9375c2.2335-.6049 4.0838-1.3206 5.4375-2.1875 1.3539-.8669 2.34375-1.9787 2.34375-3.375v-27c0-1.3529-1.31755-2.7252-2.40625-3.4375-1.3478-.8631-3.1466-1.55265-5.375-2.15625-4.4568-1.2071-10.52505-1.9375-17.21875-1.9375zm0 2.0625c6.5612 0 12.5205.7295 16.75 1.875 2.1148.5728 3.7938 1.2452 4.875 1.9375 1.0811.6924 1.40625 1.30975 1.40625 1.65625s-.32515.96395-1.40625 1.65625c-1.0812.6924-2.7602 1.3648-4.875 1.9375-4.2295 1.1456-10.1888 1.875-16.75 1.875-6.5611 0-12.5205-.7294-16.75-1.875-2.1148-.5727-3.7939-1.2451-4.875-1.9375-1.0812-.6923-1.40635-1.30975-1.40625-1.65625 0-.3465.32505-.96385 1.40625-1.65625 1.0811-.6923 2.7602-1.3647 4.875-1.9375 4.2295-1.1455 10.1889-1.875 16.75-1.875zm-23 8.59375c.1377.1.26015.2189.40625.3125 1.3479.863 3.1467 1.55275 5.375 2.15625 4.4568 1.207 10.52505 1.9375 17.21875 1.9375s12.76195-.7305 17.21875-1.9375c2.2283-.6035 4.0272-1.29325 5.375-2.15625.1461-.094.26855-.2128.40625-.3125v5.375.5c0 .3986-.3624.9991-1.4375 1.6875s-2.73415 1.3661-4.84375 1.9375c-4.2193 1.1427-10.16455 1.875-16.71875 1.875s-12.49935-.7323-16.71875-1.875c-2.1096-.5714-3.76865-1.2491-4.84375-1.9375s-1.4375-1.2889-1.4375-1.6875v-.5zm0 9c.1172.083.21995.1708.34375.25 1.3536.8669 3.204 1.5826 5.4375 2.1875 4.4672 1.2098 10.51815 1.9375 17.21875 1.9375s12.75165-.7277 17.21875-1.9375c2.2335-.6049 4.0838-1.3206 5.4375-2.1875.1238-.079.22655-.1666.34375-.25v5.375.5c0 .3986-.3624.9991-1.4375 1.6875s-2.73415 1.3661-4.84375 1.9375c-4.2193 1.1427-10.16455 1.875-16.71875 1.875s-12.49935-.7323-16.71875-1.875c-2.1096-.5714-3.76865-1.2491-4.84375-1.9375s-1.4375-1.2889-1.4375-1.6875v-.5zm0 9c.1172.083.21995.1708.34375.25 1.3536.8669 3.204 1.5826 5.4375 2.1875 4.4672 1.2098 10.51815 1.9375 17.21875 1.9375s12.75165-.7277 17.21875-1.9375c2.2335-.6049 4.0838-1.3206 5.4375-2.1875.1238-.079.22655-.1666.34375-.25v5.375.5c0 .3986-.3624.9991-1.4375 1.6875s-2.73415 1.3661-4.84375 1.9375c-4.2193 1.1427-10.16455 1.875-16.71875 1.875s-12.49935-.7323-16.71875-1.875c-2.1096-.5714-3.76865-1.2491-4.84375-1.9375s-1.4375-1.2889-1.4375-1.6875v-.5z" fill="#a846b2"/><path id="a" d="m40.49924 66.49855v4.0657.4239c0 3.0433 9.8483 5.5104 21.9969 5.5104s23.0031-2.4671 23.0031-5.5104v-.4239-4.0381c-1.9668 1.6873-10.2916 4.1764-22.9341 4.1764-12.6424 0-20.226-2.5166-22.0659-4.204z" fill="none" stroke="#fafafa"/><use height="1085" transform="translate(0 8.999999)" width="5033" xlink:href="#a"/><use height="1085" transform="translate(0 17.999999)" width="5033" xlink:href="#a"/></svg>