<svg viewBox="0 0 16 16" xmlns="http://www.w3.org/2000/svg">/&gt;<path d="m1 2h14v11h-14z" fill="#fafafa"/><path d="m1 1c-.554 0-1 .446-1 1v11c0 .554.446 1 1 1h14c.554 0 1-.446 1-1v-11c0-.554-.446-1-1-1zm0 1h14v11h-14z" fill="#3a3a38"/><path d="m8.5 2.9999998c-1.38125 0-2.5 1.0743907-2.5 2.4003906v.5996094h1v-.5996094c0-.6599999.812504-1.4066504 1.5-1.4042968.990199.00339 1.49904.5352625 1.486328 1.3691406-.005.3299617-.374219.6648596-.605469.8808596l-.77539.755859c-.45.4380003-.623578.9963643-.611328 1.6562503l.00586 1.3417969h1c0-1.1928259-.000732-1.9992189.855469-2.6972662l.5625-.552734c.35625-.342.582031-.8216094.582031-1.3496094 0-1.3259999-1.11875-2.4003905-2.5-2.4003905zm-.5 8.0000002v1h1v-1z" fill="#1e8bcd"/></svg>