<svg viewBox="0 0 16 16" xmlns="http://www.w3.org/2000/svg" xmlns:xlink="http://www.w3.org/1999/xlink"><linearGradient id="a" gradientUnits="userSpaceOnUse" x1="10" x2="11.500001" y1="4" y2="2.499999"><stop offset="0" stop-color="#fff"/><stop offset=".77967989" stop-color="#f1f1f1"/><stop offset="1" stop-color="#d5d5d5"/></linearGradient><path d="m3 1v14h3.265625a4.5 3 0 0 1 -.265625-1v-7h3v-1.5h2v-1h2v-.7949219l-2.695312-2.7050781z" fill="#fafafa"/><path d="m3 0c-.554 0-1 .446-1 1v14c0 .554.446 1 1 1h4.1523438a4.5 3 0 0 1 -.8867188-1h-3.265625v-14h6v3.5c0 .277.223.5.5.5h1.5v-.5h2.5.5v-.8632812l-3.636719-3.6367188h-.863281zm7 1 3 3h-3z" fill="#3a3a38"/><path d="m10 1 3 3h-3z" fill="url(#a)"/><g fill="#ed8733"><path d="m7 10v1 3a3.5 2 0 0 0 3.5 2 3.5 2 0 0 0 3.5-2h1c.554 0 1-.446 1-1v-2c0-.554-.446-1-1-1h-1zm1 1h5v2 1a2.5 1 0 0 1 -2.5 1 2.5 1 0 0 1 -2.5-1zm6 0h1v2h-1z"/><path d="m8 8h1v1h-1z"/><path d="m10 7h1v2h-1z"/><path d="m12 6h1v3h-1z"/></g><path d="m8 11v3a2.5 1 0 0 0 2.5 1 2.5 1 0 0 0 2.5-1v-3zm6 0v2h1v-2z" fill="#f8db8f"/><path d="m0 2v1h5v-1zm0 3v1h5v-1zm0 3v1h5v-1zm0 3v1h5v-1zm0 3v1h5v-1z" fill="#3a3a38"/></svg>