<svg viewBox="0 0 16 16" xmlns="http://www.w3.org/2000/svg"><path d="m3 1v14h3v-6h1v-2h2v-1h2v-1h2v-1.2949219l-2.695312-2.7050781z" fill="#fafafa"/><path d="m3 0c-.554 0-1 .446-1 1v14c0 .554.446 1 1 1h2 1v-1h-1-2v-14h6v3.5c0 .277.223.5.5.5h3.5 1v-.5-.8632812l-3.636719-3.6367188h-.863281zm7 1 3 3h-3z" fill="#3a3a38"/><g fill="#ed8733"><path d="m7 10v1 3a3.5 2 0 0 0 3.5 2 3.5 2 0 0 0 3.5-2h1c.554 0 1-.446 1-1v-2c0-.554-.446-1-1-1h-1zm1 1h5v2 1a2.5 1 0 0 1 -2.5 1 2.5 1 0 0 1 -2.5-1zm6 0h1v2h-1z"/><path d="m8 8h1v1h-1z"/><path d="m10 7h1v2h-1z"/><path d="m12 6h1v3h-1z"/></g><path d="m8 11v3a2.5 1 0 0 0 2.5 1 2.5 1 0 0 0 2.5-1v-3zm6 0v2h1v-2z" fill="#f8db8f"/></svg>