<svg viewBox="0 0 32 32" xmlns="http://www.w3.org/2000/svg"><path d="m4.6252931.00899256c-.9167679.17493262-1.6413825 1.06650924-1.6249431 1.99944994v27.9921785c.0001 1.046877.9528067 1.99935 1.99993 1.99945h21.99921c1.047123-.0001 1.99983-.952573 1.99993-1.99945v-17.454837c.012-.527977-.194993-1.057653-.56248-1.437106l-10.540471-10.53734203c-.379547-.36729853-.909349-.5745787-1.43745-.56234341h-11.458739c-.1245956-.01199538-.2503512-.01199538-.3749869 0z" fill="#0063b1"/><path d="m21.658457.0153901c-.665617.21319788-.889629 1.2265076-.376487 1.7030241l6.023769 6.0552478c.556481.5304157 1.664862.07657 1.694181-.6938328v-6.0552278c-.00006-.52841648-.478303-1.00915133-1.003965-1.0092113h-6.023769c-.103796-.01599385-.209993-.01599385-.313729 0z" fill="#0063b1"/><path d="m5.00048 2.01156v.5 27 .5h.49999 20.9996.49999v-.5-17-.2188l-.15624-.1562-9.93731-10-.12499-.125h-.21875-11.0623z" fill="#fafafa"/><path d="m10 12h12v13h-12z" fill="#1e8bcd" fill-opacity=".978947"/><path d="m12 14 1 9h1.5l1.5-4.5 1.5 4.5h1.5l1-9h-1.5l-.5 6-1.242907-4h-1.257093l-1.5 4-.5-6z" fill="#fafafa"/></svg>