<svg height="48" width="48" xmlns="http://www.w3.org/2000/svg"><path d="m6.437813.01351433c-1.3751.2624-2.4621 1.59975997-2.4374 2.99916997v41.9881997c.0001 1.57031 1.4292 2.99902 2.9999 2.99916h33.9989c1.5706-.00014 2.9997-1.42885 2.9999-2.99916v-26.18222c.018-.79196-.2925-1.58647-.8438-2.15565l-15.8107-15.80598967c-.5693-.55095-1.364-.86187-2.1562-.84351h-18.1881c-.1869-.018-.3755-.018-.5625 0z" fill="#3a3a38"/><g fill="#fafafa" transform="translate(4)"><path d="m3.0006127 3.0210943v.75 40.5000397.72723h.75 32.4994003.75v-.72723-25.50003-.3282l-.2344-.2343-14.9059-15.0000097-.1875-.1875h-.3281-17.5935003z"/><path d="m7.9993127 17.998344h11.0000003v9.00002h-11.0000003z" opacity=".5"/><path d="m20.999313 17.998344h11v9.00002h-11z" opacity=".5"/><path d="m20.999313 28.998344h11v9.00002h-11z" opacity=".5"/><path d="m7.9993127 28.998344h11.0000003v9.00002h-11.0000003z" opacity=".5"/></g><path d="m32.987613.02310433c-.9984.3198-1.3345 1.83975997-.5647 2.55453997l9.0356 9.0828497c.8348.79562 2.4973.11486 2.5413-1.04075v-9.0828197c-.0001-.79262997-.7174-1.51372997-1.5059-1.51381997h-9.0357c-.1557-.024-.315-.024-.4706 0z" fill="#3a3a38"/><g fill="#1e8bcd" transform="translate(4)"><path d="m7.9993127 17.998344h11.0000003v9.00002h-11.0000003z" opacity=".5"/><path d="m20.999313 17.998344h11v9.00002h-11z" opacity=".5"/><path d="m20.999313 28.998344h11v9.00002h-11z" opacity=".5"/><path d="m7.9993127 28.998344h11.0000003v9.00002h-11.0000003z" opacity=".5"/><path d="m7.9968127 19.998404h3.0000003v1.00003h-3.0000003z"/><path d="m7.9968127 17.998404h3.0000003v1.00003h-3.0000003z"/><path d="m7.9968127 21.998404h3.0000003v1.00003h-3.0000003z"/><path d="m7.9968127 23.998404h11.0000003v1.00003h-11.0000003z"/><path d="m7.9968127 25.998404h8.0000003v1.00003h-8.0000003z"/><path d="m11.995113 17.998344h6.9999v5.00006h-6.9999z"/></g><path d="m16.995113 18.998404h5v3h-5z" fill="#fafafa"/><path d="m18.995013 19.498404-1.9999 2v.5h4.9998v-.5z" fill="#3a3a38"/><g fill="#1e8bcd" transform="translate(4)"><path d="m20.996813 19.998404h3v1.00003h-3z"/><path d="m20.996813 17.998404h3v1.00003h-3z"/><path d="m20.996813 21.998404h3v1.00003h-3z"/><path d="m20.996813 23.998404h11v1.00003h-11z"/><path d="m20.996813 25.998404h8v1.00003h-8z"/><path d="m24.995113 17.998344h6.9999v5.00006h-6.9999z"/></g><path d="m29.995113 18.998404h5v3h-5z" fill="#fafafa"/><path d="m31.995013 19.498404-1.9999 2v.5h4.9998v-.5z" fill="#3a3a38"/><g fill="#1e8bcd" transform="translate(4)"><path d="m20.996813 30.998284h3v1.00003h-3z"/><path d="m20.996813 28.998284h3v1.00003h-3z"/><path d="m20.996813 32.998284h3v1.00003h-3z"/><path d="m20.996813 34.998284h11v1.00003h-11z"/><path d="m20.996813 36.998284h8v1.00003h-8z"/><path d="m24.995113 28.998344h6.9999v5.00006h-6.9999z"/></g><path d="m29.995113 29.998404h5v3h-5z" fill="#fafafa"/><path d="m31.995013 30.498394-1.9999 2v.5h4.9998v-.5z" fill="#3a3a38"/><g fill="#1e8bcd" transform="translate(4)"><path d="m7.9968127 30.998284h3.0000003v1.00003h-3.0000003z"/><path d="m7.9968127 28.998284h3.0000003v1.00003h-3.0000003z"/><path d="m7.9968127 32.998284h3.0000003v1.00003h-3.0000003z"/><path d="m7.9968127 34.998284h11.0000003v1.00003h-11.0000003z"/><path d="m7.9968127 36.998284h8.0000003v1.00003h-8.0000003z"/><path d="m11.995113 28.998344h6.9999v5.00006h-6.9999z"/></g><path d="m16.995113 29.998404h5v3h-5z" fill="#fafafa"/><path d="m18.995013 30.498394-1.9999 2v.5h4.9998v-.5z" fill="#3a3a38"/></svg>