<svg height="96" width="96" xmlns="http://www.w3.org/2000/svg"><text x="406.59131" y="-228.15564"><tspan x="406.59131" y="-228.15564"/></text><text x="447.7438" y="-244.83366"><tspan x="447.7438" y="-244.83366"/></text><path d="m12.377242.02702954c-2.750262.52479665-3.4240883 1.69950156-3.3747707 4.49831696v86.9763735c.0003 3.140625 1.3583917 4.49802 4.4997147 4.49832h68.996596c3.141335-.0003 4.499426-1.357695 4.499726-4.49832v-53.864404c.036-1.583926-.584967-3.172951-1.687418-4.311309l-31.62094-31.6119512c-1.138622-1.10189299-2.728002-1.72373204-4.312283-1.68702626h-35.875681c-.373782-.03598605-.751042-.03598605-1.124944 0z" fill="#0063b1"/><path d="m13 4v1.5000003 84.9999987 1.500001h1.499972 67.000055 1.499973v-1.500001-52.843599-.6564l-.468719-.4686-32.156311-32.1563999-.37497-.3750001h-.65625-34.843778z" fill="#fafafa"/><path d="m64.975944.04621964c-1.996819.63959217-2.668845 3.67951416-1.129443 5.10906026l18.071034 18.1657011c1.669418 1.591243 4.994507.229711 5.082465-2.081493v-18.1656415c-.00018-1.5852458-1.434889-3.02744692-3.011849-3.02762686h-18.071033c-.311385-.0479814-.629969-.0479814-.941174 0z" fill="#0063b1"/><g transform="translate(-2.249198 -30.999253)"><path d="m45.249195 69.997299h27v17h-27z" fill="#fafafa" fill-opacity=".978947"/><path d="m26.249197 67.997302v3l14-.000002v-3zm0 6v3l14-.000002v-3zm0 6v3l14-.000002v-3zm0 6v3l14-.000002v-3zm0 6v3h48.000001v-3zm0 6v2.999998h48.000001v-2.999998zm0 5.999998v3h31.500001v-3z" fill="#1e8bcd"/><path d="m43 37.001953v21h31v-21zm2 1.998047h27v17h-27z" fill="#0063b1" transform="translate(.249197 30.9973)"/><path d="m59.200472 78.455624c-2.693978-2.276475-4.04991-4.125-5.849873-6.87495-.526342.161925-.506235.100351-.899985 0 0 0-2.407972 3.64365-3.599925 5.499975-1.191937 1.8564-3.600442 4.583325-3.600442 4.583325v1.8333h20.699085s-4.945081-3.638175-6.748861-5.041575z" fill="#83beec"/><path d="m65.050351 74.330624c1.799963.916726 4.9281 4.108875 7.198845 6.416701v2.74995h-20.699077c3.600442-4.58325 9.00033-7.333275 13.500232-9.166651z" fill="#83beec"/><path d="m72.250201 82.413974h-1.160159s-5.139705.91665-5.139705.91665-5.07897-1.374975-5.84301-1.374975c-.75069 0-3.15681.458325-3.607058.458325-.315555 0-2.249693-.916649-2.707073-.916649-.754642 0-1.624267.97395-3.874214 1.374975 0 0-.646425-1.46085-1.068293-1.374975-2.69994 1.0599-3.600442.916649-3.600442.916649v4.583326h26.99895s.000749-4.583326.000749-4.583326h.000105z" fill="#18ab50"/><path d="m72.249197 74.4973a4.5 4.5000029 0 0 1 -4.5-4.5h4.5z" fill="#fb983b"/></g></svg>