<svg viewBox="0 0 32 32" xmlns="http://www.w3.org/2000/svg"><path d="m4.6252931.00899256c-.9167679.17493262-1.6413825 1.06650924-1.6249431 1.99944994v27.9921785c.0001 1.046877.9528067 1.99935 1.99993 1.99945h21.99921c1.047123-.0001 1.99983-.952573 1.99993-1.99945v-17.454837c.012-.527977-.194993-1.057653-.56248-1.437106l-10.540471-10.53734203c-.379547-.36729853-.909349-.5745787-1.43745-.56234341h-11.458739c-.1245956-.01199538-.2503512-.01199538-.3749869 0z" fill="#0063b1"/><path d="m21.658457.0153901c-.665617.21319788-.889629 1.2265076-.376487 1.7030241l6.023769 6.0552478c.556481.5304157 1.664862.07657 1.694181-.6938328v-6.0552278c-.00006-.52841648-.478303-1.00915133-1.003965-1.0092113h-6.023769c-.103796-.01599385-.209993-.01599385-.313729 0z" fill="#0063b1"/><path d="m5.00048 2.01156v.5 27 .5h.49999 20.9996.49999v-.5-17-.2188l-.15624-.1562-9.93731-10-.12499-.125h-.21875-11.0623z" fill="#fafafa"/><g fill="#1e8bcd"><path d="m7.99888 15.99636h4.9999v2h-4.9999z"/><path d="m7.99888 11.99636h4.9999v2h-4.9999z"/><path d="m7.99888 19.99636h15.99968v2h-15.99968z"/><path d="m7.99888 23.99636h11.99976v2h-11.99976z"/></g><path d="m15.998957 12.99641h6.999867v4h-6.999867z" fill="#fafafa"/><path d="m14.998047 11.996094v6h9v-6zm1 1h7v.003906h.001953v4h-7v-.507812l-.001953.003906z" fill="#0063b1"/><path d="m22.998047 13v3.496094l-1.5-1.5-1.5 1-2-2.5-1.998047 2.996094v.507812h7v-4z" fill="#83beec"/><path d="m21 13a2 2 0 0 0 2 2v-2z" fill="#fb983b" fill-opacity=".978947"/></svg>