<svg height="48" width="48" xmlns="http://www.w3.org/2000/svg"><path d="m6.4378301.01350697c-1.3751541.2623985-2.4620779 1.59976123-2.4374187 2.99916983v41.9881982c.00015 1.570313 1.4292124 2.99902 2.9999 2.99917h33.9988566c1.570687-.00015 2.99975-1.428857 2.9999-2.99917v-26.182212c.018-.791964-.292491-1.586476-.843722-2.155656l-15.810733-15.80598631c-.569321-.55094689-1.364025-.86186662-2.156178-.84351372h-18.1881236c-.1868938-.01799304-.3755275-.01799304-.5624813 0z" fill="#3a3a38"/><path d="m32.987605.02310326c-.998427.3197963-1.334446 1.83975834-.564731 2.55453184l9.035668 9.0828569c.834723.795622 2.497297.114855 2.541276-1.040748v-9.0828263c-.00009-.79262341-.717456-1.51372447-1.50595-1.51381444h-9.035669c-.155695-.02399072-.314989-.02399072-.470594 0z" fill="#3a3a38"/><path d="m7.0006124 3.02112v.75 40.50004.72723h.74999 32.4994296.74998v-.72723-25.50003-.3282l-.23436-.2343-14.90598-15.00001-.18748-.1875h-.32813-17.5934596z" fill="#fafafa"/><g fill="#ed8733" transform="translate(5.000709 .001635)"><path d="m7.9992914 36.998365h23.9999996v1h-23.9999996z"/><path d="m7.9992914 19.998365h23.9999996v1h-23.9999996z"/><path d="m9.9992914 17.998365v22h-1v-22z"/><path d="m30.99929 17.998365v22h-1v-22z"/></g><g fill="#3a3a38"><g transform="translate(5.000709 .001635)"><path d="m28.991623 21.994771v2.999992h-1.499899v-1.399995h-9.300062l-2.100039 12.399988h-2.399958l-2.000015-6.299995h-1.200129v-1.700005l2.500132.00003 1.749881 4.999977 1.750032-11.000007"/><g stroke="#3a3a38" stroke-linecap="round" stroke-linejoin="round" stroke-width="2"><path d="m26.999311 27.998392-7 7"/><path d="m19.999311 27.998392 7 7"/></g></g><g transform="translate(-.50085)"><path d="m7.5008502 3h2.9999998v42h-2.9999998z" fill="#3a3a38" fill-opacity=".978947"/><g fill="#fafafa"><path d="m8.50085 5.99834h1v1h-1z"/><path d="m8.50085 8.99834h1v1h-1z"/><path d="m8.50085 11.99834h1v1h-1z"/><path d="m8.50085 14.99834h1v1h-1z"/><path d="m8.50085 17.99834h1v1h-1z"/><path d="m8.50085 20.99834h1v1h-1z"/><path d="m8.50085 23.99834h1v1h-1z"/><path d="m8.50085 26.99834h1v1h-1z"/><path d="m8.50085 29.99834h1v1h-1z"/><path d="m8.50085 32.99834h1v1h-1z"/><path d="m8.50085 35.99834h1v1h-1z"/><path d="m8.50085 38.99834h1v1h-1z"/><path d="m8.50085 41.99834h1v1h-1z"/></g><path d="m3.50085 5.99834h4v1h-4z"/><path d="m3.50085 8.99834h4v1h-4z"/><path d="m3.50085 11.99834h4v1h-4z"/><path d="m3.50085 14.99834h4v1h-4z"/><path d="m3.50085 17.99834h4v1h-4z"/><path d="m3.50085 20.99834h4v1h-4z"/><path d="m3.50085 23.99834h4v1h-4z"/><path d="m3.50085 26.99834h4v1h-4z"/><path d="m3.50085 29.99834h4v1h-4z"/><path d="m3.50085 32.99834h4v1h-4z"/><path d="m3.50085 35.99834h4v1h-4z"/><path d="m3.50085 38.99834h4v1h-4z"/><path d="m3.50085 41.99834h4v1h-4z"/></g></g></svg>