<svg viewBox="0 0 32 32" xmlns="http://www.w3.org/2000/svg" xmlns:xlink="http://www.w3.org/1999/xlink"><path d="m4.6252931.00899256c-.9167679.17493262-1.6413825 1.06650924-1.6249431 1.99944994v27.9921785c.0001 1.046877.9528067 1.99935 1.99993 1.99945h21.99921c1.047123-.0001 1.99983-.952573 1.99993-1.99945v-17.454837c.012-.527977-.194993-1.057653-.56248-1.437106l-10.540471-10.53734203c-.379547-.36729853-.909349-.5745787-1.43745-.56234341h-11.458739c-.1245956-.01199538-.2503512-.01199538-.3749869 0z" fill="#ed8733"/><path d="m21.658457.0153901c-.665617.21319788-.889629 1.2265076-.376487 1.7030241l6.023769 6.0552478c.556481.5304157 1.664862.07657 1.694181-.6938328v-6.0552278c-.00006-.52841648-.478303-1.00915133-1.003965-1.0092113h-6.023769c-.103796-.01599385-.209993-.01599385-.313729 0z" fill="#ed8733"/><g fill="#fafafa"><path d="m5.00018 2.01156v.5 27 .5h.49999 20.9996.49999v-.5-17-.2188l-.15624-.1562-9.93731-10-.12499-.125h-.21875-11.0623z"/><g stroke="#e78e46" transform="translate(1.00109 .00362)"><circle cx="12.999042" cy="16.996269" fill="#ff9198" r="4.499996" stroke="#d42314" stroke-width=".999997"/><path d="m16.49891 21.49636h7v-5.99998h-7z" fill="#83beec" stroke="#0063b1" stroke-linecap="round" stroke-linejoin="round" stroke-width=".999999"/><path d="m19.49891 24.4964h-11l5-9z" fill="#f8db8f" stroke="#ed8733" stroke-linecap="round" stroke-linejoin="round"/><g fill="#a1ddaa" stroke="#309048"><path d="m12.49891 15.49636h2v2h-2z"/><path d="m17.49891 23.49636h2v2h-2z"/><path d="m8.49891 23.49636h2v2h-2z"/></g></g></g><g fill="#3a3a38" transform="translate(-.4991)"><path d="m5.4991002 2h3v28h-3z" fill="#ed8733"/><path id="a" d="m6.4991 3.99632h1v1h-1z" fill="#fafafa"/><path id="b" d="m2.4991 3.99632h3v1h-3z" fill="#3a3a38"/><g fill="#3a3a38"><use height="1085" transform="translate(0 2)" width="5033" xlink:href="#b"/><use height="1085" transform="translate(0 4)" width="5033" xlink:href="#b"/><use height="1085" transform="translate(0 6)" width="5033" xlink:href="#b"/><use height="1085" transform="translate(0 8)" width="5033" xlink:href="#b"/><use height="1085" transform="translate(0 10)" width="5033" xlink:href="#b"/><use height="1085" transform="translate(0 12)" width="5033" xlink:href="#b"/><use height="1085" transform="translate(0 14)" width="5033" xlink:href="#b"/><use height="1085" transform="translate(0 16)" width="5033" xlink:href="#b"/><use height="1085" transform="translate(0 18)" width="5033" xlink:href="#b"/><use height="1085" transform="translate(0 20)" width="5033" xlink:href="#b"/><use height="1085" transform="translate(0 22)" width="5033" xlink:href="#b"/><use height="1085" transform="translate(0 24)" width="5033" xlink:href="#b"/></g><g fill="#fafafa"><use height="1085" transform="translate(0 2)" width="5033" xlink:href="#a"/><use height="1085" transform="translate(0 4)" width="5033" xlink:href="#a"/><use height="1085" transform="translate(0 6)" width="5033" xlink:href="#a"/><use height="1085" transform="translate(0 8)" width="5033" xlink:href="#a"/><use height="1085" transform="translate(0 10)" width="5033" xlink:href="#a"/><use height="1085" transform="translate(0 12)" width="5033" xlink:href="#a"/><use height="1085" transform="translate(0 14)" width="5033" xlink:href="#a"/><use height="1085" transform="translate(0 16)" width="5033" xlink:href="#a"/><use height="1085" transform="translate(0 18)" width="5033" xlink:href="#a"/><use height="1085" transform="translate(0 20)" width="5033" xlink:href="#a"/><use height="1085" transform="translate(0 22)" width="5033" xlink:href="#a"/><use height="1085" transform="translate(0 24)" width="5033" xlink:href="#a"/></g></g></svg>