<svg height="96" width="96" xmlns="http://www.w3.org/2000/svg"><path d="m12.377242.02702954c-2.750262.52479665-3.4240883 1.69950156-3.3747707 4.49831696v86.9763735c.0003 3.140625 1.3583917 4.49802 4.4997147 4.49832h68.996596c3.141335-.0003 4.499426-1.357695 4.499726-4.49832v-53.864404c.036-1.583926-.584967-3.172951-1.687418-4.311309l-31.62094-31.6119512c-1.138622-1.10189299-2.728002-1.72373204-4.312283-1.68702626h-35.875681c-.373782-.03598605-.751042-.03598605-1.124944 0z" fill="#ed5a33"/><path d="m13 4v1.5000003 84.9999987 1.500001h1.499972 67.000055 1.499973v-1.500001-52.843599-.6564l-.468719-.4686-32.156311-32.1563999-.37497-.3750001h-.65625-34.843778z" fill="#fafafa"/><path d="m64.975944.04621964c-1.996819.63959217-2.668845 3.67951416-1.129443 5.10906026l18.071034 18.1657011c1.669418 1.591243 4.994507.229711 5.082465-2.081493v-18.1656415c-.00018-1.5852458-1.434889-3.02744692-3.011849-3.02762686h-18.071033c-.311385-.0479814-.629969-.0479814-.941174 0z" fill="#ed5a33"/><g transform="translate(1)"><g fill="#3a3a38" transform="translate(2)"><path d="m46.590915 74.00007-9.090908 5.99993h3.663301l2.02431-.41768 7.062375-5.58225z"/><path d="m49.499992 74.00007 9 5.99993h-3.754207l-1.907325-.32918-7.08846-5.67075z"/><path d="m45.840907 74.00007-9.090907 5.99993h4.409093l7.590914-5.99993z"/><path d="m45.749955 72.5h4.5v2.25h-4.5z"/><path d="m50.25 74.00007 9 5.99993h-4.5l-7.500007-5.99993z"/></g><rect fill="none" height="31.500017" rx=".75" width="45" x="27.500017" y="40.249973"/><rect fill="#fafafa" height="31.500017" rx=".75" width="45" x="27.500017" y="40.249973"/><rect fill="none" height="23.570576" rx="1.5" transform="rotate(90)" width="11.756208" x="59.993778" y="-61.570587"/><path d="m53.375 64.624998 4.125-4.125 3 3 5.625-5.625" fill="none" stroke="#1e8bcd" stroke-linecap="round" stroke-linejoin="round" stroke-width="1.125"/><g fill="#fb6d3b" transform="translate(2)"><path d="m29 43h38v3h-38z"/><path d="m36 48h24v2h-24z"/><path d="m33 55h12v2h-12z"/><path d="m33 60h12v2h-12z"/><path d="m33 66h12v2h-12z"/><circle cx="30" cy="56" r="1"/><circle cx="30" cy="61" r="1"/><circle cx="30" cy="67" r="1"/><path d="m48 55v13h19v-13zm1 1h17v11h-17z"/><path d="m25 39c-.554 0-1 .446-1 1v32c0 .554.446 1 1 1h46c.554 0 1-.446 1-1v-32c0-.554-.446-1-1-1zm1 2h44v30h-44z"/></g></g><g fill="#3a3a38"><path d="m13 4h7v88h-7z" fill="#ed5a33"/><path d="m15 6h3v3h-3z" fill="#fafafa"/><path d="m5 6h8v3h-8z"/><path d="m15 14h3v3h-3z" fill="#fafafa"/><path d="m5 14h8v3h-8z"/><path d="m15 22h3v3h-3z" fill="#fafafa"/><path d="m5 22h8v3h-8z"/><path d="m15 30h3v3h-3z" fill="#fafafa"/><path d="m5 30h8v3h-8z"/><path d="m15 38h3v3h-3z" fill="#fafafa"/><path d="m5 38h8v3h-8z"/><path d="m15 46h3v3h-3z" fill="#fafafa"/><path d="m5 46h8v3h-8z"/><path d="m15 54h3v3h-3z" fill="#fafafa"/><path d="m5 54h8v3h-8z"/><path d="m15 62h3v3h-3z" fill="#fafafa"/><path d="m5 62h8v3h-8z"/><path d="m15 70h3v3h-3z" fill="#fafafa"/><path d="m5 70h8v3h-8z"/><path d="m15 78h3v3h-3z" fill="#fafafa"/><path d="m5 78h8v3h-8z"/><path d="m15 86h3v3h-3z" fill="#fafafa"/><path d="m5 86h8v3h-8z"/></g></svg>