<svg viewBox="0 0 32 32" xmlns="http://www.w3.org/2000/svg"><path d="m4 3c-.554 0-1 .446-1 1v24c0 .554.446 1 1 1h18.007812a5 5 0 0 1 -1.007812-3 5 5 0 0 1 5-5 5 5 0 0 1 3 1.007812v-18.007812c0-.554-.446-1-1-1z" fill="#922e98"/><path d="m4 4v24h17.423828a5 5 0 0 1 -.423828-2 5 5 0 0 1 5-5 5 5 0 0 1 2 .419922v-17.419922z" fill="#d492d8"/><path d="m6 4c-.554 0-1 .446-1 1v9c0 .554.446 1 1 1h20c.554 0 1-.446 1-1v-9c0-.554-.446-1-1-1zm1 12c-.554 0-1 .446-1 1v10c0 .554.446 1 1 1h14.423828a5 5 0 0 1 -.423828-2 5 5 0 0 1 3-4.576172v-4.423828c0-.554-.446-1-1-1z" fill="#922e98"/><path d="m7 5c-.554 0-1 .446-1 1v7c0 .554.446 1 1 1h18c.554 0 1-.446 1-1v-7c0-.554-.446-1-1-1zm1 12c-.554 0-1 .446-1 1v8c0 .554.446 1 1 1h3v-8h3v8h7.105469a5 5 0 0 1 -.105469-1 5 5 0 0 1 2-3.992188v-4.007812c0-.554-.446-1-1-1z" fill="#fafafa"/><circle cx="26" cy="26" fill="#ed3d3d" r="4"/></svg>