<svg height="16" viewBox="0 0 4.2333333 4.2333334" width="16" xmlns="http://www.w3.org/2000/svg"><g transform="translate(0 -292.76665)"><g stroke-width=".264583"><path d="m.79375 293.03123v3.70417h2.6458334v-2.98845l-.7131347-.71572z" fill="#fafafa"/><path d="m.79375 292.76665c-.14657916 0-.26458333.118-.26458333.26458v3.70417c0 .14658.11800417.26458.26458333.26458h2.6458334c.1465791 0 .2645833-.118.2645833-.26458v-2.77812-.22841l-.9622152-.96222h-.2284098zm0 .26458h1.5875v.92605c0 .0733.059002.13229.1322917.13229h.9260417v2.64583h-2.6458334zm1.8520834 0 .79375.79375h-.79375z" fill="#3a3a38"/><path d="m2.6458334 293.03123.79375.79375h-.79375z" fill="#fafafa"/><g stroke-width=".999999" transform="matrix(.26458333 0 0 .26458333 0 292.76665)"><path d="m11 8-4.5 5-1.5-1.5-2 2v1.5h10v-5z" fill="#83beec"/><path d="m11 6.5-4.5 5-1.5-1.5-2 2v1.5l2-2 1.5 1.5 4.5-5 2 2v-1.5z" fill="#0063b1"/></g></g><path d="m2.1166667 294.08957a.52916667.52916667 0 0 1 -.5291667.52916.52916667.52916667 0 0 1 -.5291667-.52916.52916667.52916667 0 0 1 .5291667-.52917.52916667.52916667 0 0 1 .5291667.52917z" fill="#ed8733" stroke-width=".211667"/><path d="m1.8520833 294.08957a.26458333.26458333 0 0 1 -.2645833.26458.26458333.26458333 0 0 1 -.2645833-.26458.26458333.26458333 0 0 1 .2645833-.26459.26458333.26458333 0 0 1 .2645833.26459z" fill="#f8db8f" stroke-width=".264583"/></g></svg>