<svg xmlns="http://www.w3.org/2000/svg" xmlns:xlink="http://www.w3.org/1999/xlink" width="207.999" height="256"><defs><linearGradient id="g"><stop offset="0" stop-color="#B3B3B3"/><stop offset="1" stop-color="#E6E6E6"/></linearGradient><linearGradient id="H"><stop offset="0" stop-color="#FFF"/><stop offset="1" stop-color="#00A0FC" stop-opacity="0"/></linearGradient><linearGradient id="F"><stop offset="0" stop-color="#1C99E0"/><stop offset="1" stop-color="#035482"/></linearGradient><linearGradient id="I"><stop offset="0" stop-color="#AADCF7"/><stop offset="1" stop-color="#AADCF7" stop-opacity="0"/></linearGradient><linearGradient id="e"><stop offset="0"/><stop offset="1" stop-color="#4D4D4D"/></linearGradient><linearGradient id="k"><stop offset="0" stop-color="#DC85E9"/><stop offset="1" stop-color="#F8DCFB"/></linearGradient><linearGradient id="l"><stop offset="0" stop-color="#9200FF"/><stop offset="1" stop-color="#F0F" stop-opacity="0"/></linearGradient><linearGradient id="m"><stop offset="0" stop-color="purple"/><stop offset=".727" stop-color="purple"/><stop offset="1" stop-color="#F0F" stop-opacity="0"/></linearGradient><linearGradient id="o"><stop offset="0" stop-color="#9207A7"/><stop offset=".273" stop-color="#C658BC"/><stop offset=".51" stop-color="#A42EB6"/><stop offset=".834" stop-color="#B415CD"/><stop offset="1" stop-color="#950BA8"/></linearGradient><linearGradient id="r"><stop offset="0" stop-color="#FFF"/><stop offset="1" stop-color="#FFF" stop-opacity="0"/></linearGradient><linearGradient id="q"><stop offset="0" stop-color="#FFF"/><stop offset="1" stop-color="#FFF" stop-opacity="0"/></linearGradient><linearGradient id="n"><stop offset="0" stop-color="#E196FB"/><stop offset=".13" stop-color="#F4C7FA"/><stop offset=".314" stop-color="#E091F3"/><stop offset=".441" stop-color="#D764E9"/><stop offset=".684" stop-color="#E7ADF0"/><stop offset=".756" stop-color="#E6A9F8"/><stop offset=".88" stop-color="#E595F2"/><stop offset="1" stop-color="#F2CBF8"/></linearGradient><linearGradient id="am"><stop offset="0" stop-color="#FFF"/><stop offset="1" stop-color="#A00" stop-opacity="0"/></linearGradient><linearGradient id="ak"><stop offset="0"/><stop offset="1" stop-opacity="0"/></linearGradient><linearGradient id="aj"><stop offset="0" stop-opacity="0"/><stop offset=".493"/><stop offset="1" stop-opacity="0"/></linearGradient><linearGradient id="ag"><stop offset="0" stop-color="#FFF" stop-opacity=".85"/><stop offset="1" stop-color="#FFF" stop-opacity=".9"/></linearGradient><linearGradient id="ah"><stop offset="0" stop-color="#999"/><stop offset="1" stop-color="#E6E6E6"/></linearGradient><linearGradient id="ai"><stop offset="0"/><stop offset=".455" stop-opacity=".361"/><stop offset="1" stop-opacity="0"/></linearGradient><linearGradient id="p"><stop offset="0" stop-color="#DC85E9"/><stop offset="1" stop-color="#F2CBF8"/></linearGradient><linearGradient id="a"><stop offset="0" stop-color="#18A303"/><stop offset="1" stop-color="#106802"/></linearGradient><linearGradient id="f"><stop offset="0" stop-color="#666"/><stop offset="1" stop-color="#333"/></linearGradient><linearGradient id="G"><stop offset="0" stop-color="#63BBEE"/><stop offset="1" stop-color="#AADCF7"/></linearGradient><linearGradient id="h"><stop offset="0" stop-color="gray"/><stop offset="1" stop-color="#4D4D4D"/></linearGradient><linearGradient id="al"><stop offset="0" stop-opacity="0"/><stop offset=".493"/><stop offset="1" stop-opacity="0"/></linearGradient><linearGradient id="b"><stop offset="0" stop-color="#A33E03"/><stop offset="1" stop-color="#622502"/></linearGradient><linearGradient id="c"><stop offset="0" stop-color="#C99C00"/><stop offset="1" stop-color="#876900"/></linearGradient><linearGradient id="d"><stop offset="0" stop-color="#8E03A3"/><stop offset="1" stop-color="#530260"/></linearGradient><linearGradient id="i"><stop offset="0" stop-color="#0369A3"/><stop offset="1" stop-color="#023F62"/></linearGradient><linearGradient id="j"><stop offset="0" stop-color="#0369A3"/><stop offset="1" stop-color="#023F62"/></linearGradient><linearGradient xlink:href="#d" id="aD" gradientUnits="userSpaceOnUse" gradientTransform="matrix(16 0 0 15.995 -279.247 -17311.2)" x1="26.993" y1="992.622" x2="26.993" y2="1008.692"/><linearGradient xlink:href="#d" id="aE" gradientUnits="userSpaceOnUse" gradientTransform="matrix(16 0 0 15.995 -279.247 -17311.2)" x1="26.993" y1="992.622" x2="26.993" y2="1008.692"/><linearGradient xlink:href="#d" id="aC" gradientUnits="userSpaceOnUse" gradientTransform="matrix(16 0 0 15.995 -279.247 -17311.2)" x1="26.993" y1="992.622" x2="26.993" y2="1008.692"/><linearGradient xlink:href="#k" id="aW" gradientUnits="userSpaceOnUse" gradientTransform="matrix(2 0 0 2 -1069 630.656)" x1="1278" y1="-1062.638" x2="1278" y2="-1118.638"/><linearGradient xlink:href="#l" id="aX" gradientUnits="userSpaceOnUse" gradientTransform="matrix(-1 0 0 1 2865 -1753.64)" x1="1559.5" y1="184" x2="1542" y2="184"/><linearGradient xlink:href="#l" id="aY" gradientUnits="userSpaceOnUse" gradientTransform="translate(-123 -1753.64)" x1="1559.5" y1="184" x2="1542" y2="184"/><radialGradient xlink:href="#m" id="aZ" gradientUnits="userSpaceOnUse" gradientTransform="matrix(0 1.015 -4.277 0 -1857.01 -1670.52)" cx="152.333" cy="-754.638" fx="152.333" fy="-754.638" r="15"/><linearGradient xlink:href="#n" id="ba" gradientUnits="userSpaceOnUse" gradientTransform="matrix(2 0 0 2 513 -3495.64)" x1="453.5" y1="970.5" x2="404.5" y2="970.5"/><linearGradient xlink:href="#o" id="bb" gradientUnits="userSpaceOnUse" gradientTransform="translate(.023)" x1="1322" y1="-1568.511" x2="1419" y2="-1568.511"/><radialGradient xlink:href="#p" id="bc" gradientUnits="userSpaceOnUse" gradientTransform="matrix(.96 0 0 .268 21.68 534.374)" cx="518.854" cy="730.484" fx="518.854" fy="730.484" r="22.89"/><linearGradient xlink:href="#q" id="be" gradientUnits="userSpaceOnUse" gradientTransform="matrix(.984 0 0 .973 -100.35 -1748.97)" x1="1510.477" y1="169" x2="1485.877" y2="194"/><linearGradient xlink:href="#r" id="bh" gradientUnits="userSpaceOnUse" gradientTransform="matrix(.976 .126 -.367 .977 -556.18 -210.596)" x1="1354.568" y1="-1522.359" x2="1383.38" y2="-1543.981"/><linearGradient id="v"><stop offset="0" stop-color="#666"/><stop offset="1" stop-color="#333"/></linearGradient><linearGradient id="s"><stop offset="0" stop-color="#666"/><stop offset="1" stop-color="#333"/></linearGradient><linearGradient id="t"><stop offset="0" stop-color="#0369A3"/><stop offset="1" stop-color="#023F62"/></linearGradient><linearGradient id="u"><stop offset="0" stop-color="#0369A3"/><stop offset="1" stop-color="#023F62"/></linearGradient><linearGradient id="w"><stop offset="0" stop-color="#18A303"/><stop offset="1" stop-color="#106802"/></linearGradient><linearGradient id="x"><stop offset="0" stop-color="#A33E03"/><stop offset="1" stop-color="#622502"/></linearGradient><linearGradient id="B"><stop offset="0" stop-color="#0369A3"/><stop offset="1" stop-color="#023F62"/></linearGradient><linearGradient id="z"><stop offset="0" stop-color="#0369A3"/><stop offset="1" stop-color="#023F62"/></linearGradient><linearGradient id="A"><stop offset="0" stop-color="#666"/><stop offset="1" stop-color="#333"/></linearGradient><linearGradient id="y"><stop offset="0" stop-color="#666"/><stop offset="1" stop-color="#333"/></linearGradient><linearGradient id="C"><stop offset="0" stop-color="#666"/><stop offset="1" stop-color="#333"/></linearGradient><linearGradient id="E"><stop offset="0" stop-color="#323232"/><stop offset="1" stop-color="#535353"/></linearGradient><linearGradient id="D"><stop offset="0" stop-color="#323232"/><stop offset="1" stop-color="#535353"/></linearGradient><linearGradient id="J"><stop offset="0" stop-color="#FFF" stop-opacity=".588"/><stop offset="1" stop-color="#FFF" stop-opacity=".863"/></linearGradient><linearGradient id="K"><stop offset="0" stop-color="gray"/><stop offset="1" stop-color="#4D4D4D"/></linearGradient><linearGradient id="L"><stop offset="0" stop-color="gray"/><stop offset="1" stop-color="#4D4D4D"/></linearGradient><linearGradient id="M"><stop offset="0" stop-color="#FFF" stop-opacity=".588"/><stop offset="1" stop-color="#FFF" stop-opacity=".863"/></linearGradient><linearGradient id="N"><stop offset="0" stop-color="#B3B3B3"/><stop offset="1" stop-color="#E6E6E6"/></linearGradient><linearGradient id="O"><stop offset="0" stop-color="#B3B3B3"/><stop offset="1" stop-color="#E6E6E6"/></linearGradient><linearGradient id="P"><stop offset="0" stop-color="#B3B3B3"/><stop offset="1" stop-color="#E6E6E6"/></linearGradient><linearGradient id="Q"><stop offset="0" stop-color="#B3B3B3"/><stop offset="1" stop-color="#E6E6E6"/></linearGradient><linearGradient id="R"><stop offset="0" stop-color="#B3B3B3"/><stop offset="1" stop-color="#E6E6E6"/></linearGradient><linearGradient id="S"><stop offset="0" stop-color="#B3B3B3"/><stop offset="1" stop-color="#E6E6E6"/></linearGradient><linearGradient id="T"><stop offset="0" stop-color="#B3B3B3"/><stop offset="1" stop-color="#E6E6E6"/></linearGradient><linearGradient id="U"><stop offset="0" stop-color="gray"/><stop offset="1" stop-color="#4D4D4D"/></linearGradient><linearGradient id="V"><stop offset="0" stop-color="gray"/><stop offset="1" stop-color="#4D4D4D"/></linearGradient><linearGradient id="W"><stop offset="0" stop-color="#B3B3B3"/><stop offset="1" stop-color="#E6E6E6"/></linearGradient><linearGradient id="X"><stop offset="0" stop-color="#B3B3B3"/><stop offset="1" stop-color="#E6E6E6"/></linearGradient><linearGradient id="Y"><stop offset="0" stop-color="#B3B3B3"/><stop offset="1" stop-color="#E6E6E6"/></linearGradient><linearGradient id="Z"><stop offset="0" stop-color="#B3B3B3"/><stop offset="1" stop-color="#E6E6E6"/></linearGradient><linearGradient id="aa"><stop offset="0" stop-color="#FFF" stop-opacity=".588"/><stop offset="1" stop-color="#FFF" stop-opacity=".863"/></linearGradient><linearGradient id="ab"><stop offset="0" stop-color="#666"/><stop offset="1" stop-color="#333"/></linearGradient><linearGradient id="ac"><stop offset="0" stop-color="#666"/><stop offset="1" stop-color="#333"/></linearGradient><linearGradient id="ad"><stop offset="0" stop-color="#666"/><stop offset="1" stop-color="#333"/></linearGradient><linearGradient id="ae"><stop offset="0" stop-color="#666"/><stop offset="1" stop-color="#333"/></linearGradient><linearGradient id="af"><stop offset="0" stop-color="#666"/><stop offset="1" stop-color="#333"/></linearGradient><linearGradient xlink:href="#ag" id="aF" gradientUnits="userSpaceOnUse" gradientTransform="matrix(8 0 0 8 -379 4583.47)" x1="209.063" y1="-754.085" x2="209.063" y2="-782.638"/><linearGradient xlink:href="#ah" id="aG" gradientUnits="userSpaceOnUse" gradientTransform="matrix(15.958 0 0 16.025 -3396.13 -5573.42)" x1="294.343" y1="256.581" x2="294.418" y2="243.139"/><linearGradient xlink:href="#ag" id="aH" gradientUnits="userSpaceOnUse" gradientTransform="matrix(8 0 0 8 -379 4583.47)" x1="209.063" y1="-754.085" x2="209.063" y2="-782.638"/><linearGradient xlink:href="#ai" id="aI" gradientUnits="userSpaceOnUse" gradientTransform="matrix(.78 0 0 .78 -1401.634 -520.8)" x1="152" y1="-1192.638" x2="113.882" y2="-1230.756"/><linearGradient xlink:href="#aj" id="aJ" gradientUnits="userSpaceOnUse" gradientTransform="matrix(.62 0 0 1 1332.56 -257)" x1="-17" y1="-1194.638" x2="144" y2="-1194.638"/><linearGradient xlink:href="#aj" id="aK" gradientUnits="userSpaceOnUse" gradientTransform="matrix(1.416 0 0 1 -1655.56 -88.36)" x1="-17" y1="-1194.638" x2="144" y2="-1194.638"/><linearGradient xlink:href="#aj" id="aL" gradientUnits="userSpaceOnUse" gradientTransform="matrix(.867 0 0 1 -1578 -275.36)" x1="-17" y1="-1194.638" x2="144" y2="-1194.638"/><linearGradient xlink:href="#aj" id="aM" gradientUnits="userSpaceOnUse" gradientTransform="matrix(.62 0 0 1 1332.56 -251)" x1="-17" y1="-1194.638" x2="144" y2="-1194.638"/><linearGradient xlink:href="#ak" id="aN" gradientUnits="userSpaceOnUse" gradientTransform="translate(919 -1753.64)" x1="364.867" y1="300.819" x2="389.102" y2="276.584"/><linearGradient xlink:href="#ak" id="aO" gradientUnits="userSpaceOnUse" gradientTransform="matrix(1 0 0 -1 917 -1379.64)" x1="364.867" y1="300.819" x2="389.102" y2="276.584"/><linearGradient xlink:href="#al" id="aP" gradientUnits="userSpaceOnUse" gradientTransform="matrix(.524 0 0 1 -185.048 -974.564)" x1="-17" y1="-1194.638" x2="144" y2="-1194.638"/><linearGradient xlink:href="#al" id="aQ" gradientUnits="userSpaceOnUse" gradientTransform="matrix(.524 0 0 1 -185.758 -966.785)" x1="-17" y1="-1194.638" x2="144" y2="-1194.638"/><linearGradient xlink:href="#al" id="aR" gradientUnits="userSpaceOnUse" gradientTransform="matrix(.524 0 0 1 -185.758 -995.07)" x1="-17" y1="-1194.638" x2="144" y2="-1194.638"/><linearGradient xlink:href="#aj" id="aS" gradientUnits="userSpaceOnUse" gradientTransform="matrix(1.416 0 0 1 -1655.56 -82.36)" x1="-17" y1="-1194.638" x2="144" y2="-1194.638"/><linearGradient xlink:href="#aj" id="aT" gradientUnits="userSpaceOnUse" gradientTransform="matrix(.9 0 0 1 -1580.99 2657.64)" x1="-17" y1="-1194.638" x2="144" y2="-1194.638"/><linearGradient xlink:href="#ai" id="aU" gradientUnits="userSpaceOnUse" gradientTransform="matrix(.78 0 0 .78 1344.366 -520.8)" x1="152" y1="-1192.638" x2="113.882" y2="-1230.756"/><linearGradient xlink:href="#ak" id="aV" gradientUnits="userSpaceOnUse" gradientTransform="matrix(-1 0 0 1 1827 -1753.64)" x1="364.867" y1="300.819" x2="389.102" y2="276.584"/><linearGradient xlink:href="#a" id="aA" gradientUnits="userSpaceOnUse" x1="475" y1="-895.638" x2="475" y2="-848.638"/><linearGradient xlink:href="#am" id="bd" gradientUnits="userSpaceOnUse" gradientTransform="translate(0 -.5)" x1="1372.884" y1="-1544.389" x2="1372.884" y2="-1558.638"/></defs><g transform="translate(-1270.996 1693.638)"><use xlink:href="#aB" transform="translate(1571)" width="5033" height="1085" opacity=".75"/><text y="-1109.14" x="382.125" font-size="8" font-family="Sans"/><g transform="translate(1310.99 -261.184)" overflow="visible" fill="url(#aC)" stroke-width="2" font-family="Andale Mono"><path d="M-39.993-1184.568c0 3.868 3.622 7.93 7.757 7.93H159.75c4.627 0 8.25-3.87 8.25-7.745v-149.215c0-4.225-.512-6.183-3.5-9.17l-85.324-85.3c-2.988-2.986-5.274-4.526-9.5-4.53l-101.736-.08c-4.133 0-7.933 3.683-7.933 8.122v239.988z" style="line-height:normal;text-indent:0pt;text-align:start;text-decoration-line:none;text-transform:none" overflow="visible" fill="url(#aD)"/><path d="M103.26-1421.89l53.19 53.442c4.34 4.358 11.554 3.324 11.554-3.55v-52.443c0-4.228-3.827-8.198-8.032-8.198h-53.19c-6.838 0-7.138 7.115-3.522 10.748z" style="line-height:normal;text-indent:0pt;text-align:start;text-decoration-line:none;text-transform:none" overflow="visible" fill="url(#aE)"/></g><path d="M1283-1677.53v226h180v-140.44c-28.986-29.2-58.078-58.297-87-87.56h-93v2z" fill="url(#aF)" transform="translate(2)"/><path d="M1277-1683.638v238h192v-151.406c-29.383-29.502-58.745-59.027-88.063-88.594H1277v2z" style="line-height:normal;text-indent:0pt;text-align:start;text-decoration-line:none;text-transform:none" font-family="Andale Mono" overflow="visible" fill="url(#aG)" transform="translate(2)"/><path d="M1283-1677.53v226h180v-140.44c-28.986-29.2-58.078-58.297-87-87.56h-93v2z" fill="url(#aH)" transform="translate(2)"/><path d="M1279-1685.638v240h192v-151.406c-29.383-29.502-58.745-59.027-88.063-88.594H1279zm1 1h102.5c29.148 29.362 58.296 58.725 87.5 88.03v149.97h-190v-238z" style="line-height:normal;text-indent:0pt;text-align:start;text-decoration-line:none;text-transform:none" font-family="Andale Mono" overflow="visible" opacity=".15" fill="#fff"/><path transform="matrix(-1 0 0 1 2 0)" overflow="visible" opacity=".15" fill="url(#aI)" d="M-1347-1515.638h64v64h-64z"/><path overflow="visible" opacity=".2" fill="url(#aJ)" d="M1322-1451.638h100v1h-100z" transform="translate(2)"/><path transform="rotate(90 1 1)" overflow="visible" opacity=".2" fill="url(#aK)" d="M-1679.638-1283h228v1h-228z"/><path transform="rotate(90 1 1)" overflow="visible" opacity=".5" fill="url(#aL)" d="M-1592.742-1470h139.604v1h-139.604z"/><path overflow="visible" opacity=".5" fill="url(#aM)" d="M1322-1445.638h100v1h-100z" transform="translate(2)"/><path d="M1284-1502.638v50h50v-1h-49v-49h-1z" overflow="visible" opacity=".15" fill="url(#aN)" transform="translate(2)"/><path d="M1282-1630.638v-50h50v1h-49v49h-1z" overflow="visible" opacity=".1" fill="url(#aO)" transform="translate(2)"/><path transform="rotate(45 1 2.414)" overflow="visible" opacity=".4" fill="url(#aP)" d="M-193.96-2169.202h84.376v1h-84.375z"/><path transform="rotate(45 1 2.414)" overflow="visible" opacity=".1" fill="url(#aQ)" d="M-194.666-2161.424h84.375v1h-84.376z"/><path transform="rotate(45 1 2.414)" overflow="visible" opacity=".4" fill="url(#aR)" d="M-194.666-2189.71h84.375v1h-84.376z"/><path transform="rotate(90 1 1)" overflow="visible" opacity=".5" fill="url(#aS)" d="M-1679.638-1277h228v1h-228z"/><path transform="matrix(0 1 1 0 2 0)" overflow="visible" opacity=".2" fill="url(#aT)" d="M-1596.276 1463h144.745v1h-144.746z"/><path overflow="visible" opacity=".15" fill="url(#aU)" d="M1399-1515.638h64v64h-64z" transform="translate(2)"/><path d="M1462-1502.638v50h-50v-1h49v-49h1z" overflow="visible" opacity=".15" fill="url(#aV)" transform="translate(2)"/><g transform="translate(2)"><path d="M1307-1602.638v6h28v-6h-28zm32 0v6h30v-6h-30zm34 0v6h30v-6h-30zm34 0v6h28v-6h-28zm-100 10v8h28v-8h-28zm32 0v8h30v-8h-30zm34 0v8h30v-8h-30zm34 0v8h28v-8h-28zm-100 12v8h28v-8h-28zm32 0v8h30v-8h-30zm34 0v8h30v-8h-30zm34 0v8h28v-8h-28zm-100 12v8h28v-8h-28zm32 0v8h30v-8h-30zm34 0v8h30v-8h-30zm34 0v8h28v-8h-28zm-100 12v8h28v-8h-28zm32 0v8h30v-8h-30zm34 0v8h30v-8h-30zm34 0v8h28v-8h-28zm-100 12v8h28v-8h-28zm32 0v8h30v-8h-30zm34 0v8h30v-8h-30zm34 0v8h28v-8h-28zm-100 12v8h28v-8h-28zm32 0v8h30v-8h-30zm34 0v8h30v-8h-30zm34 0v8h28v-8h-28zm-100 12v8h28v-8h-28zm32 0v8h30v-8h-30zm34 0v8h30v-8h-30zm34 0v8h28v-8h-28zm-100 12v8h28v-8h-28zm32 0v8h30v-8h-30zm34 0v8h30v-8h-30zm34 0v8h28v-8h-28zm-100 12v6h28v-6h-28zm32 0v6h30v-6h-30zm34 0v6h30v-6h-30zm34 0v6h28v-6h-28z" overflow="visible" fill="url(#aW)"/><path d="M1307-1602.638v1h28v-1h-28zm32 0v1h30v-1h-30zm34 0v1h30v-1h-30zm34 0v1h28v-1h-28zm-100 10v1h28v-1h-28zm32 0v1h30v-1h-30zm34 0v1h30v-1h-30zm34 0v1h28v-1h-28zm-100 12v1h28v-1h-28zm32 0v1h30v-1h-30zm34 0v1h30v-1h-30zm34 0v1h28v-1h-28zm-100 12v1h28v-1h-28zm32 0v1h30v-1h-30zm34 0v1h30v-1h-30zm34 0v1h28v-1h-28zm-100 12v1h28v-1h-28zm32 0v1h30v-1h-30zm34 0v1h30v-1h-30zm34 0v1h28v-1h-28zm-100 12v1h28v-1h-28zm32 0v1h30v-1h-30zm34 0v1h30v-1h-30zm34 0v1h28v-1h-28zm-100 12v1h28v-1h-28zm32 0v1h30v-1h-30zm34 0v1h30v-1h-30zm34 0v1h28v-1h-28zm-100 12v1h28v-1h-28zm32 0v1h30v-1h-30zm34 0v1h30v-1h-30zm34 0v1h28v-1h-28zm-100 12v1h28v-1h-28zm32 0v1h30v-1h-30zm34 0v1h30v-1h-30zm34 0v1h28v-1h-28zm-100 12v1h28v-1h-28zm32 0v1h30v-1h-30zm34 0v1h30v-1h-30zm34 0v1h28v-1h-28z" overflow="visible" opacity=".25" fill="purple"/><path d="M1336.867-1582.857c-4.423 1.106-8 2.64-10.563 4.282-2.562 1.64-4.21 3.59-4.22 5.937-.077 19.65-.06 38.386-.06 54 0 2.294 1.65 4.262 4.218 5.906 2.568 1.645 6.19 3.057 10.594 4.25 8.81 2.386 20.86 3.844 34.187 3.844 13.328 0 25.378-1.458 34.188-3.844 4.406-1.193 8.026-2.605 10.595-4.25 2.568-1.644 4.196-3.623 4.196-5.917v-54c0-2.345-1.695-4.285-4.257-5.925-2.563-1.64-6.163-3.09-10.563-4.282-8.8-2.383-20.826-3.78-34.156-3.78-13.42 0-24.7 1.417-34.157 3.78zm34.156-1.78c13.188-.025 25.115 1.46 33.687 3.78 4.287 1.16 7.736 2.593 10.032 4.063 2.295 1.47 3.46 2.918 3.343 4.156-.21 2.205-2.578 3.735-4.25 4.688-2.71 1.545-5.95 2.71-8.874 3.468-9.98 2.59-19.947 3.535-29.53 3.78-13.262.214-26.41-.73-38.532-3.84-2.813-.735-5.25-1.64-7.656-2.845-2.16-1.083-5.063-2.882-5.28-5.25-.118-1.273 1.047-2.686 3.343-4.156 2.296-1.47 5.697-3.094 10.03-4.062 11.927-2.665 23.656-3.764 33.688-3.783zm-47 16.124c.633.635 1.392 1.273 2.28 1.813 3.29 1.996 7.31 3.487 10.564 4.28 13.105 3.04 26.117 4.087 38.625 3.72 10.112-.32 20.32-1.07 29.687-3.72 4.634-1.31 9.564-2.895 12.843-6.093v12.875c0 .582 0 1.22-.125 1.72-.273 1.104-1.37 2.436-3.344 3.593-3.264 1.91-6.84 3.083-10 3.937-11.23 2.74-22.915 3.735-33.53 3.75-11.457-.088-23.537-1.125-33.688-3.78-4.357-1.376-8.725-2.563-11.875-5.47-.724-.677-1.133-1.406-1.31-2.03-.163-.567-.125-1.123-.125-1.72v-12.875zm0 18.03c.388.385.835.766 1.312 1.126 3.833 2.65 8.6 4.188 12.75 5.22 11.482 2.606 21.65 3.477 32.938 3.5 11.353-.234 22.474-.815 32.937-3.5 3.705-.967 7.68-2.386 10.688-3.907 1.144-.58 2.937-2.034 3.375-2.438v12.844c0 .582 0 1.22-.125 1.72-.273 1.104-1.402 2.38-3.344 3.592-4.288 2.516-9.373 3.904-13.843 4.875-10.388 2.016-19.908 2.798-29.687 2.812-4.946 0-9.71-.172-14.187-.594-10.05-1.23-18.982-2.152-27.5-6.063-1.452-.672-2.796-1.603-3.875-2.593-.73-.67-1.116-1.41-1.31-2.03-.076-.24-.124-.504-.125-.72-.035-4.614 0-9.23 0-13.844zm0 18c1.566 1.542 3.638 2.706 5.53 3.502 8.676 3.596 18.944 5.06 27.126 5.748 4.934.406 9.77.595 14.343.594 11.368-.184 22.45-.886 32.937-3.5 4.22-1.145 8.17-2.41 11.657-4.47.934-.554 1.67-1.192 2.406-1.874v13.844c0 1.296-1.023 2.753-3.312 4.22-2.29 1.465-5.718 2.84-10 4-8.562 2.317-20.505 3.78-33.687 3.78-13.182 0-25.125-1.462-33.687-3.78-4.282-1.16-7.71-2.535-10-4-2.29-1.467-3.313-2.924-3.313-4.22v-13.844z" style="line-height:normal;text-indent:0pt;text-align:start;text-decoration-line:none;text-transform:none" font-family="Sans" overflow="visible" opacity=".5" fill="none" stroke="#fff" stroke-width="2"/><path d="M1322-1602.638v6h-15v-6h15zm0 10v8h-15v-8h15zm0 12v8h-15v-8h15zm0 12v8h-15v-8h15zm0 12v8h-15v-8h15zm0 12v8h-15v-8h15zm0 12v8h-15v-8h15zm0 12v8h-15v-8h15zm0 12v8h-15v-8h15zm0 12v6h-15v-6h15z" overflow="visible" opacity=".35" fill="url(#aX)"/><path d="M1420-1602.638v6h15v-6h-15zm0 10v8h15v-8h-15zm0 12v8h15v-8h-15zm0 12v8h15v-8h-15zm0 12v8h15v-8h-15zm0 12v8h15v-8h-15zm0 12v8h15v-8h-15zm0 12v8h15v-8h-15zm0 12v8h15v-8h-15zm0 12v6h15v-6h-15z" overflow="visible" opacity=".35" fill="url(#aY)"/><path overflow="visible" opacity=".5" fill="url(#aZ)" d="M1307-1530.638h128v30h-128z"/><path d="M1323-1570.638v52c0 7.18 21.49 13 48 13s48-5.82 48-13v-52h-96z" overflow="visible" fill="url(#ba)"/><path style="line-height:normal;text-indent:0pt;text-align:start;text-decoration-line:none;text-transform:none" d="M1336.867-1582.857c-4.423 1.106-8 2.64-10.563 4.282-2.562 1.64-4.21 3.59-4.22 5.937-.077 19.65-.06 38.386-.06 54 0 2.294 1.65 4.262 4.218 5.906 2.568 1.645 6.19 3.057 10.594 4.25 8.81 2.386 20.86 3.844 34.187 3.844 13.328 0 25.378-1.458 34.188-3.844 4.406-1.193 8.026-2.605 10.595-4.25 2.568-1.644 4.196-3.623 4.196-5.917v-54c0-2.345-1.695-4.285-4.257-5.925-2.563-1.64-6.163-3.09-10.563-4.282-8.8-2.383-20.826-3.78-34.156-3.78-13.42 0-24.7 1.417-34.157 3.78zm34.156-1.78c13.188-.025 25.115 1.46 33.687 3.78 4.287 1.16 7.736 2.593 10.032 4.063 2.295 1.47 3.46 2.918 3.343 4.156-.21 2.205-2.578 3.735-4.25 4.688-2.71 1.545-5.95 2.71-8.874 3.468-9.98 2.59-19.947 3.535-29.53 3.78-13.262.214-26.41-.73-38.532-3.84-2.813-.735-5.25-1.64-7.656-2.845-2.16-1.083-5.063-2.882-5.28-5.25-.118-1.273 1.047-2.686 3.343-4.156 2.296-1.47 5.697-3.094 10.03-4.062 11.927-2.665 23.656-3.764 33.688-3.783zm-47 16.124c.633.635 1.392 1.273 2.28 1.813 3.29 1.996 7.31 3.487 10.564 4.28 13.105 3.04 26.117 4.087 38.625 3.72 10.112-.32 20.32-1.07 29.687-3.72 4.634-1.31 9.564-2.895 12.843-6.093v12.875c0 .582 0 1.22-.125 1.72-.273 1.104-1.37 2.436-3.344 3.593-3.264 1.91-6.84 3.083-10 3.937-11.23 2.74-22.915 3.735-33.53 3.75-11.457-.088-23.537-1.125-33.688-3.78-4.357-1.376-8.725-2.563-11.875-5.47-.724-.677-1.133-1.406-1.31-2.03-.163-.567-.125-1.123-.125-1.72v-12.875zm0 18.03c.388.385.835.766 1.312 1.126 3.833 2.65 8.6 4.188 12.75 5.22 11.482 2.606 21.65 3.477 32.938 3.5 11.353-.234 22.474-.815 32.937-3.5 3.705-.967 7.68-2.386 10.688-3.907 1.144-.58 2.937-2.034 3.375-2.438v12.844c0 .582 0 1.22-.125 1.72-.273 1.104-1.402 2.38-3.344 3.592-4.288 2.516-9.373 3.904-13.843 4.875-10.388 2.016-19.908 2.798-29.687 2.812-4.946 0-9.71-.172-14.187-.594-10.05-1.23-18.982-2.152-27.5-6.063-1.452-.672-2.796-1.603-3.875-2.593-.73-.67-1.116-1.41-1.31-2.03-.076-.24-.124-.504-.125-.72-.035-4.614 0-9.23 0-13.844zm0 18c1.566 1.542 3.638 2.706 5.53 3.502 8.676 3.596 18.944 5.06 27.126 5.748 4.934.406 9.77.595 14.343.594 11.368-.184 22.45-.886 32.937-3.5 4.22-1.145 8.17-2.41 11.657-4.47.934-.554 1.67-1.192 2.406-1.874v13.844c0 1.296-1.023 2.753-3.312 4.22-2.29 1.465-5.718 2.84-10 4-8.562 2.317-20.505 3.78-33.687 3.78-13.182 0-25.125-1.462-33.687-3.78-4.282-1.16-7.71-2.535-10-4-2.29-1.467-3.313-2.924-3.313-4.22v-13.844z" font-family="Sans" overflow="visible" fill="url(#bb)"/><ellipse transform="matrix(2.095 0 0 2.11 282.407 -3113.52)" cx="519.688" cy="730.313" rx="22.438" ry="5.688" overflow="visible" fill="url(#bc)"/><path id="bf" d="M1324.484-1567.358v12.087c0 6.7 20.817 12.132 46.495 12.132 25.677 0 46.494-5.432 46.494-12.133v-12.027c-4.157 3.715-19.627 9.195-46.35 9.195-26.72 0-42.75-5.54-46.64-9.256z" overflow="visible" opacity=".5" fill="none" stroke="#fff"/><ellipse transform="matrix(2.072 0 0 2.022 293.987 -3049.31)" cx="519.688" cy="730.313" rx="22.438" ry="5.688" overflow="visible" opacity=".5" fill="none" stroke="#fff" stroke-width=".489"/><path d="M1324.484-1566.858v10.087c0 6.7 20.817 12.132 46.495 12.132 25.677 0 46.494-5.432 46.494-12.133v-10.027c-4.157 3.715-19.627 9.196-46.35 9.196-26.72 0-42.75-5.542-46.64-9.258z" id="bg" overflow="visible" opacity=".25" fill="url(#bd)"/><path d="M1336.75-1580.477l71.375 15.074-19.444 3.89-31.502-22.125-20.428 3.16z" opacity=".25" fill="url(#be)"/><use xlink:href="#bf" transform="translate(0 18)" width="5033" height="1085"/><use xlink:href="#bg" transform="translate(0 18)" width="5033" height="1085"/><use height="1085" width="5033" transform="translate(0 36)" xlink:href="#bf"/><use height="1085" width="5033" transform="translate(0 36)" xlink:href="#bg"/><path d="M1331.727-1563.88s1.28 21.614 9.426 36.528c8.145 14.914 15.245 19.133 15.245 19.133l16.834-1.45c0 .002-17.05-11.446-25.067-27.663-8.016-16.217-10.008-24.395-10.008-24.395l-6.43-2.153z" opacity=".25" fill="url(#bh)"/></g></g></svg>