<svg height="26" width="21.5" xmlns="http://www.w3.org/2000/svg"><g fill="#fff" fill-rule="evenodd" transform="matrix(.31255684 0 0 .31250224 -233.40716 -366.24428)"><path d="m796.28645 1171.974c-.80495-.02-1.59796.4831-1.91259 1.2141-.31466.7309-.131 1.6434.44298 2.2004l17.27601 17.3306c.55718.5581 1.4644.7432 2.20023.4487.73584-.2944 1.256-1.0507 1.2615-1.8338v-17.3628c.002-1.0462-.96414-1.999-2.02478-1.9972z"/><path d="m748.78346 1171.9733c-1.06249.015-2.01821.9868-2.01636 2.0494v79.1007c-.002 1.0625.9539 2.0338 2.01636 2.0493h64.72168c1.07351 0 2.05112-.9758 2.04941-2.0493v-50.9378c.003-.5376-.21596-1.0732-.59499-1.4544l-27.99758-28.1298c-.37577-.3909-.9122-.6226-1.45442-.6281z" fill="none"/><path d="m748.78346 1171.9733a2.0460372 2.0460372 0 0 0 -2.01636 2.0494v79.1007a2.0460372 2.0460372 0 0 0 2.01636 2.0493h64.72168a2.0460372 2.0460372 0 0 0 2.04941-2.0493v-50.9378a2.0460372 2.0460372 0 0 0 -.59499-1.4544l-27.99758-28.1298a2.0460372 2.0460372 0 0 0 -1.45442-.6281zm2.04941 4.0988h33.81526l26.8076 26.94v48.0618h-60.62286z"/></g></svg>
