<svg viewBox="0 0 24 24" xmlns="http://www.w3.org/2000/svg"><path d="m8.3588706 10.169184c.1182796.249749.2550404.435046.4102823.555892.1552419.11279.37332.169185.6542341.169185h.576613v-4.894261h3v4.894261h.543348c.280914 0 .506384-.0564.676411-.169185.170027-.120846.310484-.306143.421371-.555892l1.55242-3.3595162c.125672-.2497483.292002-.4471301.498991-.5921452.214383-.1450151.450942-.2175226.709678-.2175226h2.217742l-2.284274 4.422961c-.170027.3142-.343751.567976-.52117.761329-.177419.193354-.3918.346426-.643145.459216.347446.120845.62836.298086.842743.531722.221773.225579.417674.515609.587701.87009l2.295363 4.954684h-1.962702c-.487903 0-.861223-.08056-1.11996-.241692-.258737-.169184-.469422-.431017-.632056-.785499l-1.297379-3.250756c-.110887-.281974-.269826-.49144-.476815-.628398-.199597-.136959-.428763-.205438-.6875-.205438h-.720767v5.111783h-3v-5.111783h-.720766c-.2587369 0-.4879038.06848-.6875005.205438-.1995968.136958-.358535.350453-.4768146.640484l-1.2862905 3.226586c-.081317.177241-.1737231.33434-.2772178.471299-.1034946.128902-.2254704.237663-.3659274.326284-.1330645.08056-.2920027.140986-.4768146.181269-.1848119.04028-.4028899.06042-.654234.06042h-1.9294357l2.2842746-4.954683c.1700268-.354479.3622311-.644509.5766129-.870088.2217742-.233636.5063845-.410877.8538308-.531722-.2513441-.11279-.4657259-.265862-.6431454-.459216-.1774193-.193353-.3511425-.447129-.5211694-.761329l-2.2842745-4.422961h2.2177423c.2587366 0 .4915995.072508.6985887.2175226.2143818.1369587.3844087.3303123.5100808.5800606z" fill="#3a3a38" stroke-width=".75"/></svg>