<svg viewBox="0 0 16 16" xmlns="http://www.w3.org/2000/svg">/&amp;amp;amp;gt;<g fill="#3a3a38"><path d="m1 15h14v1h-14z" fill="#1e8bcd"/><path d="m12.88591 14.123955h-1.982448v-5.9644105c-1.164962.308089-3.3762877.5006446-4.3968325.5776669-1.0109171.0770223-1.896673-.0048139-2.6572677-.2455084-2.0726379-.7566466-1.8853154-2.1534921-1.8669142-3.8270432v-4.66466003l1.9824476.00000023v4.2891765c0 .6739447.1251612 1.2082865.3754835 1.6030256.2503223.3851112.616178.6546891 1.097567.8087336.4910169.1444167 1.0975671.1877417 1.8196507.129975.7317113-.067394 2.6927148-.216625 3.6458656-.4476918v-6.3832189l1.982448-.00000023z" transform="scale(1.0088539 .99122381)"/></g></svg>