<?xml version="1.0" encoding="utf-8"?>
<!-- Generator: Adobe Illustrator 12.0.1, SVG Export Plug-In . SVG Version: 6.00 Build 51448)  -->
<!DOCTYPE svg PUBLIC "-//W3C//DTD SVG 1.1//EN" "http://www.w3.org/Graphics/SVG/1.1/DTD/svg11.dtd" [
	<!ENTITY ns_svg "http://www.w3.org/2000/svg">
	<!ENTITY ns_xlink "http://www.w3.org/1999/xlink">
]>
<svg  version="1.1" id="Layer_1" xmlns="&ns_svg;" xmlns:xlink="&ns_xlink;" width="90.958" height="92.554"
	 viewBox="0 0 90.958 92.554" overflow="visible" enable-background="new 0 0 90.958 92.554" xml:space="preserve">
<defs>
	<filter id="Adobe_OpacityMaskFilter" filterUnits="userSpaceOnUse" x="5.612" y="2.814" width="79.732" height="86.925">
		<feFlood  style="flood-color:white;flood-opacity:1" result="back"/>
		<feBlend  in="SourceGraphic" in2="back" mode="normal"/>
	</filter>
</defs>
<mask maskUnits="userSpaceOnUse" x="5.612" y="2.814" width="79.732" height="86.925" id="XMLID_4_">
	<g filter="url(#Adobe_OpacityMaskFilter)">
		
			<linearGradient id="XMLID_5_" gradientUnits="userSpaceOnUse" x1="2.6479" y1="181.1416" x2="-26.284" y2="121.4122" gradientTransform="matrix(0.9996 -0.0276 0.0276 0.9996 62.705 -87.3452)">
			<stop  offset="0" style="stop-color:#000000"/>
			<stop  offset="1" style="stop-color:#FFFFFF"/>
		</linearGradient>
		<polygon fill="url(#XMLID_5_)" points="2.737,22.282 41.73,-0.643 44.69,-0.726 40.729,16.791 47.483,19.938 56.8,28.753 
			63.646,35.229 77.336,48.183 83.585,66.712 86.997,82.913 87.118,87.354 85.86,88.685 85.526,89.714 84.744,90.13 78.948,77.362 
			60.909,56.481 34.794,42.801 31.929,58.132 19.617,45.372 4.788,25.77 		"/>
	</g>
</mask>
<linearGradient id="XMLID_6_" gradientUnits="userSpaceOnUse" x1="20.27" y1="162.0527" x2="-44.1462" y2="102.4492" gradientTransform="matrix(0.9996 -0.0276 0.0276 0.9996 62.705 -87.3452)">
	<stop  offset="0" style="stop-color:#27447D"/>
	<stop  offset="1" style="stop-color:#1C2958"/>
</linearGradient>
<path mask="url(#XMLID_4_)" fill="url(#XMLID_6_)" d="M85.345,89.739c-2.844-33.107-21.417-60.488-46.332-71.511l3.055-15.415
	L5.612,23.852l25.794,32.737l3-15.137C59.454,47.663,79.186,66.142,85.345,89.739z"/>
</svg>
