<?xml version="1.0" encoding="utf-8"?>
<!-- Generator: Adobe Illustrator 12.0.1, SVG Export Plug-In . SVG Version: 6.00 Build 51448)  -->
<!DOCTYPE svg PUBLIC "-//W3C//DTD SVG 1.1//EN" "http://www.w3.org/Graphics/SVG/1.1/DTD/svg11.dtd" [
	<!ENTITY ns_svg "http://www.w3.org/2000/svg">
	<!ENTITY ns_xlink "http://www.w3.org/1999/xlink">
]>
<svg  version="1.1" id="Layer_1" xmlns="&ns_svg;" xmlns:xlink="&ns_xlink;" width="173" height="99" viewBox="0 0 173 99"
	 overflow="visible" enable-background="new 0 0 173 99" xml:space="preserve">
<g>
	
		<linearGradient id="XMLID_4_" gradientUnits="userSpaceOnUse" x1="-3449.6807" y1="1177.7524" x2="-3366.1377" y2="1177.7524" gradientTransform="matrix(0.9998 0.0203 -0.0203 0.9998 3477.9309 -1073.1327)">
		<stop  offset="0" style="stop-color:#6295D6"/>
		<stop  offset="1" style="stop-color:#1C2958"/>
	</linearGradient>
	<path fill="url(#XMLID_4_)" d="M4.445,63.23l25.058,0.456c0,0,12.876-51.378,59.623-55.602C20.932-2.468,4.508,60.482,4.445,63.23z
		"/>
	
		<linearGradient id="XMLID_5_" gradientUnits="userSpaceOnUse" x1="-3292.3145" y1="1205.812" x2="-3374.8694" y2="1100.0376" gradientTransform="matrix(1 0 0 1 3438.4688 -1107.4844)">
		<stop  offset="0" style="stop-color:#6295D6"/>
		<stop  offset="1" style="stop-color:#1C2958"/>
	</linearGradient>
	<path fill="url(#XMLID_5_)" d="M168.554,65.266l-14.908-0.468l-1.649,0.004C134.862-1.484,64.631-3.02,35.297,18.053
		c51.018-27.336,85.391,13.558,90.736,46.789l-17.791-0.394l-1.166,1.912l36.289,27.567l23.717-27.024l-6.127,0.303l6.401-0.607
		L168.554,65.266z"/>
	
		<linearGradient id="XMLID_6_" gradientUnits="userSpaceOnUse" x1="-3292.1533" y1="1205.1763" x2="-3374.4102" y2="1099.7838" gradientTransform="matrix(1 0 0 1 3438.4688 -1107.4844)">
		<stop  offset="0" style="stop-color:#4590D5"/>
		<stop  offset="1" style="stop-color:#D2EFF9"/>
	</linearGradient>
	<path fill="url(#XMLID_6_)" d="M36.159,17.471C65.773-3.802,137.386-3.403,153.646,64.798l14.908,0.468l-23.716,27.025
		l-36.596-27.844c0,0,6.991,0.351,19.241,0.425C123.197,31.271,88.176-10.4,36.159,17.471z"/>
	<path opacity="0.3" fill="#FFFFFF" d="M35.297,18.053c0,0,18.078-11.68,39.948-9.293c17.598,1.494,44.955,16.075,52.238,56.113
		l-19.241-0.425l36.596,27.844l1.291-1.473l-34.068-25.305h16.853c0,0-7.816-51.718-52.651-57.124
		C76.262,8.39,55.156,5.004,35.297,18.053z"/>
</g>
</svg>
