<svg height="16" viewBox="0 0 16 16" width="16" xmlns="http://www.w3.org/2000/svg"><path d="m7.5 0c-1.3807119 0-2.5 1.1192881-2.5 2.5.0022516.5418181.1804672 1.0682396.5078125 1.5h-4.5078125c-.55226188.0000552-.99994478.4477381-1 1v1c.00005522.5522619.44773812.9999448 1 1h3v8c.0000552.552262.4477381.999945 1 1h1c.097963-.0047.1947012-.02379.2871094-.05664-.3795328-.39014-.3760555-1.012562.00781-1.398437l.7050806-.705079v-1.839844h1v.839844l1-1v-.679688l-.1601562-.160156h-2.8398438v4h-1v-9h-4v-1h6.5 6.5v1h-4v1.8398438l1 1v-1.8398438h2.839844l.705078-.7050781c.124658-.119161.27809-.2039529.445312-.2460938.00366-.0161925.006916-.0324735.009766-.0488281v-1c-.000055-.5522619-.447738-.9999448-1-1h-4.5078125c.3273453-.4317604.5055609-.9581819.5078125-1.5 0-1.3807119-1.1192881-2.5-2.5-2.5zm0 1c.8284271 0 1.5.6715729 1.5 1.5s-.6715729 1.5-1.5 1.5-1.5-.6715729-1.5-1.5.6715729-1.5 1.5-1.5z" fill="#3a3a38"/><path d="m15.25 7.0000002-3.75 3.7499998-3.75-3.7499998-.75.75 3.75 3.7499998-3.75 3.75.75.75 3.75-3.75 3.75 3.75.75-.75-3.75-3.75 3.75-3.7499998z" fill="#ed3d3b"/></svg>