<svg height="80" width="80" xmlns="http://www.w3.org/2000/svg"><text x="398.65909" y="-213.98619"><tspan x="398.65909" y="-213.98619"/></text><path d="m22.437919 16.013507c-1.375154.262398-2.462078 1.599761-2.437419 2.99917v41.988198c.00015 1.570313 1.429212 2.99902 2.9999 2.99917h33.998857c1.570687-.00015 2.99975-1.428857 2.9999-2.99917v-26.182212c.018-.791964-.292491-1.586476-.843722-2.155656l-15.810733-15.805986c-.569321-.550947-1.364025-.861867-2.156178-.843514h-18.188124c-.186894-.01799-.375527-.01799-.562481 0z" fill="#a846b2"/><path d="m48.987694 16.023103c-.998427.319797-1.334446 1.839759-.564731 2.554532l9.035668 9.082857c.834723.795622 2.497297.114855 2.541276-1.040748v-9.082826c-.00009-.792624-.717456-1.513725-1.50595-1.513815h-9.035669c-.155695-.02399-.314989-.02399-.470594 0z" fill="#a846b2"/><path d="m23.000705 19.021063v.75 40.50004.72723h.75 32.499398.75v-.72723-25.50003-.3282l-.2344-.2343-14.9059-15.00001-.1875-.1875h-.3282-17.593398z" fill="#fafafa"/><path d="m34 34v2 2 2 8.541016a4 4 0 0 0 -2-.541016 4 4 0 0 0 -4 4 4 4 0 0 0 4 4 4 4 0 0 0 4-4v-12h12v8.541016a4 4 0 0 0 -2-.541016 4 4 0 0 0 -4 4 4 4 0 0 0 4 4 4 4 0 0 0 4-4v-16-2zm2 2h12v2h-12z" fill="#a846b2"/></svg>