<svg height="16" width="16" xmlns="http://www.w3.org/2000/svg"><path d="m3 3v8h8v-8zm9 2v7h-7v1h8v-1-7z" fill="#fafafa"/><path d="m12 4v1h1v8h-8v-1h-1v2h10v-10z" fill="#3a3a38"/><text x="-1.564022" y="15.757234"><tspan x="-1.564022" y="15.757234"/></text><text x="-.827327" y="9.893891"><tspan x="-.827327" y="9.893891"/></text><path d="m2 2v10h1 9v-1-1-1-5-2zm1 1h8v1 4 3h-8v-1.71875z" fill="#3a3a38"/><path d="m5.5 4c-.8284271 0-1.5.6715729-1.5 1.5s.6715729 1.5 1.5 1.5 1.5-.6715729 1.5-1.5-.6715729-1.5-1.5-1.5zm0 1c.27614 0 .5.22386.5.5s-.22386.5-.5.5-.5-.22386-.5-.5.22386-.5.5-.5zm4 1.5-3 3-1.5-1.5-2 2v1h.3945312l1.6054688-1.6054688.8027344.8027348-.8027344.802734h1.3945312l3.1054688-3.1054688 1.5 1.5v-1.3945312z" fill="#309048"/><path d="m5.5 5c-.27614 0-.5.22386-.5.5s.22386.5.5.5.5-.22386.5-.5-.22386-.5-.5-.5zm4 2.8945312-3.1054688 3.1054688h4.6054688v-1.6054688zm-4.5 1.5-1.6054688 1.6054688h1.6054688l.8027344-.802734z" fill="#a1ddaa"/></svg>