<svg viewBox="0 0 16 16" xmlns="http://www.w3.org/2000/svg"><g fill="#ed3d3b" transform="matrix(0 -1 -1 0 21 17)"><path d="m16 8.5-3-2.5v5z" fill-rule="evenodd"/><rect height="1" ry=".5" width="5" x="9" y="8"/></g><g fill="#ed3d3b" transform="matrix(0 1 -1 0 12 1)"><path d="m0 8.5 3-2.5v5z" fill-rule="evenodd"/><rect height="1" ry=".5" transform="scale(-1 1)" width="5" x="-7" y="8"/></g><g fill="#1e8bcd"><path d="m1 9c-.554 0-1 .446-1 1v5c0 .554.446 1 1 1h14c.554 0 1-.446 1-1v-5c0-.554-.446-1-1-1zm0 1h14v5h-14z"/><path d="m1 10v5h14v-5z" opacity=".6"/></g></svg>