<svg height="15" width="15" xmlns="http://www.w3.org/2000/svg"><path d="m0 0v15h15v-15z" fill="#fafafa" stroke-width=".9375"/><path d="m1 1v1h1v-1zm2 0v1h2v-1zm3 0v1h2v-1zm3 0v1h2v-1zm3 0v1h1 1v-1h-1zm-11 2v2h1v-2zm12 0v2h1v-2zm-12 3v2h1v-2zm12 0v2h1v-2zm-12 3v2h1v-2zm12 0v2h1v-2zm-12 3v2h1v-2zm12 0v1h-1v1h1 1v-2zm-10 1v1h2v-1zm3 0v1h2v-1zm3 0v1h2v-1z" fill="#d3d3d3"/><g fill="#3a3a38"><path d="m14.217514 1.4895924-.707106-.70710682-12.72792242 12.72792242.70710682.707106 1.9581413-1.958141 8.8116393-8.8116388z"/><path d="m13.510408 14.217514.707106-.707106-12.7279216-12.72792242-.70710682.70710682 1.95814132 1.9581413 8.8116391 8.8116383z"/></g></svg>