<svg height="52" viewBox="0 0 60 52" width="60" xmlns="http://www.w3.org/2000/svg"><path d="m0-.00002h60v52h-60z" fill="#fafafa"/><path d="m12 40-9 9" fill="none" stroke="#3a3a38"/><path d="m11 40.0062h46v.9874h-46z" fill="#3a3a38"/><path d="m11 3h1v38h-1z" fill="#3a3a38"/><path d="m10 31h16v15h-16z" fill="#fb983b"/><path d="m32 36h16v9h-16z" fill="#fb983b"/><g fill="#1e8bcd"><path d="m32 21h16v15h-16z"/><path d="m10 13h16v18h-16z"/><g fill-rule="evenodd"><path d="m26 13h-16l4-3h15z" opacity=".7"/><path d="m48 21h-16l3-3h16z" opacity=".7"/><path d="m26 13v18l3-3v-18z" opacity=".8"/><path d="m48 21v15l3-3v-15z" opacity=".8"/></g></g><g fill="#fb983b" fill-rule="evenodd"><path d="m48 36v9l3-3v-9z" opacity=".8"/><path d="m26 31v15l3-3v-15z" opacity=".8"/></g></svg>