<svg height="52" viewBox="0 0 60 52" width="60" xmlns="http://www.w3.org/2000/svg"><path d="m0 0h60v52h-60z" fill="#fafafa"/><path d="m14 37-12 12" fill="none" stroke="#3a3a38"/><path d="m13 37h46v.9874h-46z" fill="#3a3a38"/><path d="m13 2h1v36h-1z" fill="#3a3a38"/><path d="m15 39v.014.012-.027c.03001 2.198 3.603753 3.9995 8 4 4.39776-.0005 7.970131-1.7758 7.998047-3.9746h.002l-.002-.014.002-.012-8-22z" fill="#1e8bcd"/><path d="m21 33-8 12v.014.012h.002c.0033.1141.01629.2282.03906.3418.0113.056.02498.1121.04101.168.01925.074.0427.1487.07031.2226.02125.054.04469.107.07031.1602.03733.081.07967.1608.126953.2402.02835.045.0583.09.08984.1348.05361.08.112235.1585.175781.2363.04345.051.08903.102.136719.1523.06083.067.125306.1324.193359.1973.0563.052.114912.1035.175782.1543.08056.069.165234.1367.253906.2031.05643.041.114386.081.173828.1211.09077.063.185212.1251.283203.1856.08171.049.16572.096.251953.1425.09613.053.195128.1056.296875.1563.07916.039.159902.076.242188.1133.117305.054.237801.106.361328.1562.08146.032.164158.063.248047.094.128641.049.260211.096.394531.1406.09385.03.188922.058.285156.086.129336.04.2609.077.394532.1133.115162.029.231732.057.349609.084.115918.028.233139.053.351562.078.126389.025.254034.049.382813.07.132311.023.265821.045.400391.064.115846.016.232412.031.349609.045.143675.017.288261.032.433594.045.109661.01.219711.018.330078.025.148545.011.297693.02.447265.027.215604.01.431928.015.648408.016.2256-.0004.451062-.01.675781-.016.143044-.01.285674-.016.427735-.027.121496-.01.242622-.017.363281-.027.132901-.013.265105-.028.396484-.045.135006-.016.269166-.033.402344-.053.102858-.015.205092-.031.306641-.049.153356-.026.305118-.054.455078-.084.105815-.022.210657-.046.314453-.07.131877-.029.262133-.061.390625-.094.118887-.032.236112-.066.351562-.1016.110953-.032.220359-.065.328125-.1.114709-.039.227378-.079.337891-.1211.105444-.038.20899-.078.310547-.1191.101056-.042.200044-.085.296875-.1289.10129-.045.20028-.091.296875-.1387.09358-.048.184752-.097.273437-.1465.09038-.049.178302-.099.263672-.1504.07509-.047.148026-.095.21875-.1445.0935-.062.183378-.125.269532-.1895.05226-.04.10305-.082.152343-.123.08857-.072.172592-.1445.251953-.2188.046-.045.09028-.091.132813-.1367.07246-.075.140196-.1513.203125-.2285.0363-.047.07082-.095.103516-.1426.05616-.077.10762-.1542.154296-.2324.02955-.053.0569-.1065.08203-.1602.03736-.073.07058-.1466.09961-.2207.02007-.057.03765-.1144.05273-.1718.02356-.079.04245-.1573.05664-.2364.01722-.099.02699-.199.0293-.2988h.002l-.002-.01.002-.012-8-12z" fill="#fb983b"/><path d="m38 39.0018v.014.012h.002c.03055 2.1979 3.602124 3.9717 7.998 3.9722 4.397753-.0005 7.970121-1.7758 7.998047-3.9746h.002l-.002-.014.002-.012-7.000047-29.9994s-9 30-9 30.0018z" fill="#1e8bcd"/><path d="m36 44.9752v.014.012h.002c.02793 2.1988 3.600294 3.9741 7.998047 3.9746 4.397753-.0005 7.970121-1.7758 7.998047-3.9746h.002l-.002-.014.002-.012-7.998141-15.9752s-8 16-8.001953 15.9752z" fill="#fb983b"/></svg>