<svg height="52" viewBox="0 0 60 52" width="60" xmlns="http://www.w3.org/2000/svg" xmlns:xlink="http://www.w3.org/1999/xlink"><linearGradient id="a" gradientTransform="matrix(.98461538 0 0 1.875 .210256 -1895.8041)" gradientUnits="userSpaceOnUse" x1="19" x2="19" y1="1023.3622" y2="1015.3622"><stop offset="0" stop-color="#f62459"/><stop offset="1" stop-color="#f8567f"/></linearGradient><path d="m7 8a4 7.5 0 0 0 -4 7.5 4 7.5 0 0 0 4 7.5h28v-15z" fill="url(#a)"/><path d="m0 0h60v52h-60z" fill="#fafafa"/><g fill="#3a3a38"><path d="m11.646484 39.6456-8.9999996 9 .7070312.707 9.0000004-9z" fill-rule="evenodd"/><path d="m11 40.0062h46v.9874h-46z"/><path d="m9 3h1v38h-1z"/></g><path d="m7 28a4 7.5 0 0 0 -4 7.5 4 7.5 0 0 0 4 7.5h28v-15z" fill="#fb983b"/><path d="m27 28c-2.209139 0-4 3.3579-4 7.5s1.790861 7.5 4 7.5h22a4 7.5 0 0 1 -4-7.5 4 7.5 0 0 1 4-7.5z" fill="#1e8bcd"/><ellipse cx="35.499981" cy="-49" fill="#1e8bcd" opacity=".8" rx="7.5" ry="4" transform="rotate(90)"/><path d="m7 8c-2.209139 0-4 3.357864-4 7.5s1.790861 7.5 4 7.5h12c-2.209139 0-4-3.3579-4-7.5s1.790861-7.5 4-7.5z" fill="#fb983b"/><g fill="#1e8bcd"><path d="m19 8c-2.209139 0-4 3.3579-4 7.5s1.790861 7.5 4 7.5h8 8a4 7.5 0 0 1 -4-7.5 4 7.5 0 0 1 4-7.5h-8z"/><ellipse cx="15.499983" cy="-35" opacity=".8" rx="7.5" ry="4" transform="rotate(90)"/></g></svg>