<svg height="52" viewBox="0 0 60 52" width="60" xmlns="http://www.w3.org/2000/svg"><path d="m0 0h60v52h-60z" fill="#fafafa"/><path d="m12 40-9 9" fill="none" stroke="#3a3a38"/><path d="m11 40.0062h46v.9874h-46z" fill="#3a3a38"/><path d="m11 3h1v38h-1z" fill="#3a3a38"/><g fill="#1e8bcd"><path d="m18 7v36a5 2 0 0 0 5 2 5 2 0 0 0 5-2v-36a5 2 0 0 1 -5 2 5 2 0 0 1 -5-2z"/><ellipse cx="23" cy="6.999922" opacity=".7" rx="5" ry="2"/><path d="m44 22v21a5 2 0 0 0 5 2 5 2 0 0 0 5-2v-21a5 2 0 0 1 -5 2 5 2 0 0 1 -5-2z"/><ellipse cx="49" cy="21.999983" opacity=".7" rx="5" ry="2"/></g><g fill="#fb983b"><path d="m8 16v27a5 2 0 0 0 5 2 5 2 0 0 0 5-2v-27a5 2 0 0 1 -5 2 5 2 0 0 1 -5-2z"/><ellipse cx="13" cy="15.999922" opacity=".7" rx="5" ry="2"/><path d="m34 14v2 25 2a5 2 0 0 0 5 2 5 2 0 0 0 5-2v-2-25-2a5 2 0 0 1 -5 2 5 2 0 0 1 -5-2z"/><ellipse cx="39" cy="13.999922" opacity=".7" rx="5" ry="2"/></g></svg>