<svg viewBox="0 0 24 24" xmlns="http://www.w3.org/2000/svg"><rect fill="#3a3a38" height="1" ry=".5" width="20" x="2" y="19"/><rect fill="#3a3a38" height="20" ry=".5" width="1" x="4" y="2"/><g fill="#fb983b"><path d="m7 5h1v1h-1z"/><path d="m9 5h1v1h-1z"/><path d="m9 7h1v1h-1z"/><path d="m7 7h1v1h-1z"/></g><g fill="#1e8bcd"><path d="m19 3h1v1h-1z"/><path d="m18 4h1v1h-1z"/><path d="m20 4h1v1h-1z"/><path d="m19 5h1v1h-1z"/><path d="m8 14h1v1h-1z"/><path d="m7 15h1v1h-1z"/><path d="m9 15h1v1h-1z"/><path d="m8 16h1v1h-1z"/></g><g fill="#fb983b"><path d="m12 8h1v1h-1z"/><path d="m14 8h1v1h-1z"/><path d="m14 10h1v1h-1z"/><path d="m12 10h1v1h-1z"/><path d="m18 14h1v1h-1z"/><path d="m20 14h1v1h-1z"/><path d="m20 16h1v1h-1z"/><path d="m18 16h1v1h-1z"/></g><g fill="#1e8bcd"><path d="m16 11h1v1h-1z"/><path d="m15 12h1v1h-1z"/><path d="m17 12h1v1h-1z"/><path d="m16 13h1v1h-1z"/></g></svg>