<svg height="52" viewBox="0 0 60 52" width="60" xmlns="http://www.w3.org/2000/svg"><path d="m0 0h60v52h-60z" fill="#fafafa"/><path d="m3 45h52v1h-52z" fill="#3a3a38"/><path d="m6 3h1v45.999962h-1z" fill="#3a3a38"/><g fill="#1e8bcd"><path d="m10 10h3v3h-3z"/><path d="m24 5h3v3h-3z"/><path d="m37 35h3v3h-3z"/><path d="m50 26h3v3h-3z"/></g><g fill="#fb983b"><path d="m50 14h3v3h-3z"/><path d="m40 8h3v3h-3z"/><path d="m19 29h3v3h-3z"/><path d="m10 20h3v3h-3z"/></g><g fill="#1e8bcd"><path d="m11 11h15v1h-15z"/><path d="m25 6h1v4.999983h-1z"/><path d="m38 6h1v31.000017h-1z"/><path d="m26 6h13v1h-13z"/><path d="m38 36h14v1h-14z"/><path d="m51 27h1v8.999983h-1z"/></g><g fill="#fb983b"><path d="m11 21h10v1h-10z"/><path d="m20 22h1v9.000017h-1z"/><path d="m21 30h21v1h-21z"/><path d="m41 9h1v22h-1z"/><path d="m41 9h11v1h-11z"/><path d="m51 9h1v7h-1z"/></g></svg>