<svg height="52" viewBox="0 0 60 52" width="60" xmlns="http://www.w3.org/2000/svg"><path d="m0 0h60v52h-60z" fill="#fafafa"/><path d="m12 40-9 9" fill="none" stroke="#3a3a38"/><path d="m11 40.0062h46v.9874h-46z" fill="#3a3a38"/><path d="m11 1h1v40h-1z" fill="#3a3a38"/><path d="m53 37-48 8v-15z" fill="#1e8bcd"/><path d="m53 37-48-7 3-3z" fill="#1e8bcd" fill-rule="evenodd" opacity=".7"/><path d="m5 30v15l27-4.5v-6.5625z" fill="#fb983b"/><path d="m8 27-3 3 27.054688 3.945312 1.308593-1.308593z" fill="#fb983b" fill-rule="evenodd" opacity=".7"/><path d="m53 17-48 8v-15z" fill="#1e8bcd"/><path d="m53 17-48-7 3-3z" fill="#1e8bcd" fill-rule="evenodd" opacity=".7"/><path d="m8 7-3 3 14 2 2.091797-2.0917969z" fill="#fb983b" fill-rule="evenodd" opacity=".7"/><path d="m5 10v15l14-2.333984v-10.625z" fill="#fb983b"/><g fill="#fafafa"><path d="m9 33.4999a2 2 0 0 0 -2 2 2 2 0 0 0 2 2 2 2 0 0 0 2-2 2 2 0 0 0 -2-2zm0 1a1 1 0 0 1 1 1 1 1 0 0 1 -1 1 1 1 0 0 1 -1-1 1 1 0 0 1 1-1z"/><path d="m13 37.4999a2 2 0 0 0 -2 2 2 2 0 0 0 2 2 2 2 0 0 0 2-2 2 2 0 0 0 -2-2zm0 1a1 1 0 0 1 1 1 1 1 0 0 1 -1 1 1 1 0 0 1 -1-1 1 1 0 0 1 1-1z"/><path d="m13.59961 33.2002-6 8 .80078.5996 6-8z" fill-rule="evenodd"/></g></svg>