<svg viewBox="0 0 16 16" xmlns="http://www.w3.org/2000/svg"><path d="m4 7c-.554 0-1 .446-1 1v6c0 .554.446 1 1 1h2c.554 0 1-.446 1-1v-6c0-.554-.446-1-1-1z" fill="#1e8bcd"/><rect fill="#fb983b" height="10" ry="1" width="4" x="9" y="5"/><rect fill="#3a3a38" height="15.999998" ry=".5" width="1" x="1"/><rect fill="#3a3a38" height="1" ry=".5" width="16" y="14"/><g fill="#ed3d3b"><rect height="3" ry=".5" width="1" x="10" y="1"/><rect height="1" ry=".5" width="2" x="10" y="2"/><rect height="3" ry=".5" width="1" x="4" y="3"/><rect height="1" ry=".5" width="2" x="4" y="4"/></g></svg>