<svg height="71" viewBox="0 0 89 71" width="89" xmlns="http://www.w3.org/2000/svg"><path d="m4 4h81v63h-81z" fill="#fafafa"/><g fill="#69696e"><path d="m3 3v65h83v-65zm1 1h81v63h-81z" fill="#3a3a38"/><path d="m11.824219 8c-.456236 0-.824219.367983-.824219.824219v53.351562c0 .456236.367983.824219.824219.824219h65.351562c.456236 0 .824219-.367983.824219-.824219v-53.351562c0-.456236-.367983-.824219-.824219-.824219zm.175781 1h65v53h-65z" fill="#797774"/></g><path d="m21 44c-.554 0-1 .446-1 1v9c0 .554.446 1 1 1h6c.554 0 1-.446 1-1v-9c0-.554-.446-1-1-1zm0 1h6v9h-6z" fill="#0063b1"/><path d="m21 45h6v9h-6z" fill="#83beec"/><path d="m31 32c-.554 0-1 .446-1 1v21c0 .554.446 1 1 1h6c.554 0 1-.446 1-1v-21c0-.554-.446-1-1-1zm0 1h6v21h-6z" fill="#d42314"/><path d="m31 33v21h6v-21z" fill="#ff9198"/><path d="m41 18c-.554 0-1 .446-1 1v35c0 .554.446 1 1 1h6c.554 0 1-.446 1-1v-35c0-.554-.446-1-1-1zm0 1h6v35h-6z" fill="#ed8733"/><path d="m41 19v35h6v-35z" fill="#f8db8f"/><path d="m51 38c-.554 0-1 .446-1 1v15c0 .554.446 1 1 1h6c.554 0 1-.446 1-1v-15c0-.554-.446-1-1-1zm0 1h6v15h-6z" fill="#0063b1"/><path d="m51 39v15h6v-15z" fill="#83beec"/><g fill="#309048"><path d="m61 30c-.554 0-1 .446-1 1v23c0 .554.446 1 1 1h6c.554 0 1-.446 1-1v-23c0-.554-.446-1-1-1zm0 1h6v23h-6z" fill="#309048"/><path d="m61 31v23h6v-23z" fill="#a1ddaa"/></g></svg>