<svg height="16" viewBox="0 0 4.2333332 4.2333335" width="16" xmlns="http://www.w3.org/2000/svg"><g stroke-width=".264583" transform="translate(0 -292.76665)"><path d="m0 293.82498v2.38125h4.2333333v-2.38125zm1.0433472.26459a.79375.92604167 0 0 1 .79375.92604.79375.92604167 0 0 1 -.79375.92604.79375.92604167 0 0 1 -.79375003-.92604.79375.92604167 0 0 1 .79375003-.92604zm1.0583333 0h.2795695v1.5875h.5141804v.26458h-.7937499zm1.0583332 0h1.0583334v.26458h-.79375v.52917h.5291666v.26458h-.5291666v.52917h.7947837l-.00206.26458h-1.0573071zm-2.1166665.26458a.52916667.66145833 0 0 0 -.52916669.66146.52916667.66145833 0 0 0 .52916669.66146.52916667.66145833 0 0 0 .5291666-.66146.52916667.66145833 0 0 0 -.5291666-.66146z" fill="#0063b1"/><path d="m1.984375 292.76665c-.07329 0-.1322917.059-.1322917.13229v.52917c0 .0733.059002.13229.1322917.13229.07329 0 .1322917-.059.1322917-.13229v-.52917c0-.0733-.059002-.13229-.1322917-.13229zm-1.11879475.1602c-.0334764-.005-.0688694.003-.0981852.0248-.0586317.044-.0703287.12689-.0263549.18552l.31729315.42323c.043974.0586.12637.0703.1850017.0263.058632-.044.070845-.12637.026872-.185l-.31781003-.42323c-.0219869-.0293-.05334-.0469-.0868164-.0517zm2.36988125 0c-.033476.005-.06483.0224-.086816.0517l-.3178101.42323c-.043974.0586-.03176.14103.026872.185.058632.044.141028.0323.1850017-.0263l.3172934-.42323c.043974-.0586.032276-.14154-.026355-.18552-.029316-.022-.064709-.0296-.098185-.0248zm-2.1166667 3.175c-.033477.005-.06483.0224-.086817.0517l-.31780999.42323c-.0439738.0586-.0317599.14103.0268717.185.0586317.044.14102789.0323.18500164-.0263l.31729385-.42331c.043974-.0586.032277-.14154-.026355-.18552-.029316-.022-.064709-.0296-.098185-.0248zm1.8365804 0c-.033476-.005-.068353.003-.097669.0248-.058632.044-.070845.12689-.026872.18552l.3178101.42323c.043974.0586.1263698.0703.1850014.0264.058632-.044.070329-.12637.026355-.18501l-.3172934-.42323c-.021987-.0293-.053857-.0469-.087333-.0517zm-.9710002.36897c-.07329 0-.1322917.059-.1322917.13229v.26458c0 .0733.059002.13229.1322917.13229.07329 0 .1322917-.059.1322917-.13229v-.26458c0-.0733-.059002-.13229-.1322917-.13229z" fill="#18ab50"/><path d="m1.0433472 294.08957c.4383755 0 .7937492.4146.79375.92604-.0000008.51144-.3553745.92604-.79375.92604-.43837547 0-.79374924-.4146-.79375003-.92604.00000079-.51144.35537456-.92604.79375003-.92604zm1.0583333 0h.2795695v1.5875h.5141804v.26458h-.7937499zm1.0583332 0h1.0583334v.26458h-.79375v.52917h.5291666v.26458h-.5291666v.52917h.7947837l-.00206.26458h-1.0573071zm-2.1166665.26458c-.29225121 0-.52916743.29615-.52916669.66146-.00000074.36531.23691548.66146.52916669.66146.2922512 0 .5291673-.29615.5291666-.66146.0000007-.36531-.2369154-.66146-.5291666-.66146z" fill="#fafafa"/></g></svg>