<svg height="54" viewBox="0 0 63.749999 50.625" width="68" xmlns="http://www.w3.org/2000/svg"><path d="m2.8125 2.8125h57.1875v44.0625h-57.1875z" fill="#3a3a38"/><path d="m3.75 3.75h55.3125v42.1875h-55.3125z" fill="#fafafa"/><path d="m54.375 6.5624999c.519375 0 .9375.418125.9375.9375v34.6875001c0 .519375-.418125.9375-.9375.9375h-45.9375c-.519375 0-.9375-.418125-.9375-.9375l-.0000004-34.6875001c0-.519375.418125-.9375.9375-.9375zm-.9375.9375h-44.0625004c-.519375 0-.9375.418125-.9375.9375l.0000004 32.8125001c0 .519375.418125.9375.9375.9375h44.0625c.519375 0 .9375-.418125.9375-.9375v-32.8125001c0-.519375-.418125-.9375-.9375-.9375z" fill="#797774"/><g fill="#1e8bcd"><rect height="1.875" rx=".6375" ry="0" width="15.9375" x="23.4375" y="26.25"/><rect height="1.875" rx="1.0125" ry="0" width="25.3125" x="18.75" y="21.5625"/></g></svg>