<svg height="16" viewBox="0 0 4.2333332 4.2333335" width="16" xmlns="http://www.w3.org/2000/svg"><g stroke-width=".264583" transform="translate(0 -292.76665)"><path d="m.79375 293.03123v3.70417h2.6458334v-2.98845l-.7131347-.71572z" fill="#fafafa" opacity=".5"/><path d="m.79375 292.76665c-.14657916 0-.26458333.118-.26458333.26458v3.70417c0 .14658.11800417.26458.26458333.26458h2.6458334c.1465791 0 .2645833-.118.2645833-.26458v-2.77812-.22841l-.9622152-.96222h-.2284098zm0 .26458h1.5875v.92605c0 .0733.059002.13229.1322917.13229h.9260417v2.64583h-2.6458334zm1.8520834 0 .79375.79375h-.79375z" fill="#3a3a38" opacity=".5"/><path d="m2.6458334 293.03123.79375.79375h-.79375z" fill="#fafafa" opacity=".5"/></g></svg>