<svg height="16" viewBox="0 0 4.2333333 4.2333336" width="16" xmlns="http://www.w3.org/2000/svg"><g opacity=".5" transform="translate(0 -292.76665)"><g stroke-width=".264583"><path d="m.79375 293.03123v3.70417h2.6458334v-2.98845l-.7131347-.71572z" fill="#fafafa"/><path d="m.79375 292.76665c-.14657916 0-.26458333.118-.26458333.26458v3.70417c0 .14658.11800417.26458.26458333.26458h2.6458334c.1465791 0 .2645833-.118.2645833-.26458v-2.77812-.22841l-.9622152-.96222h-.2284098zm0 .26458h1.5875v.92605c0 .0733.059002.13229.1322917.13229h.9260417v2.64583h-2.6458334zm1.8520834 0 .79375.79375h-.79375z" fill="#3a3a38"/><path d="m2.6458334 293.03123.79375.79375h-.79375z" fill="#fafafa"/></g><path d="m1.0583333 294.61873h1.0583334v1.5875h-1.0583334z" fill="#ed8733" stroke-width=".167337"/><path d="m3.1746809 295.54493a.66129879.66129879 0 0 1 -.6612987.6613.66129879.66129879 0 0 1 -.6612988-.6613.66129879.66129879 0 0 1 .6612988-.66129.66129879.66129879 0 0 1 .6612987.66129z" fill="#0063b1" stroke-width=".188942"/><path d="m2.9104167 295.54478a.396875.396875 0 0 1 -.396875.39687.396875.396875 0 0 1 -.396875-.39687.396875.396875 0 0 1 .396875-.39688.396875.396875 0 0 1 .396875.39688z" fill="#83beec" stroke-width=".264583"/><path d="m1.3229167 294.88332h.5291667v1.05833h-.5291667z" fill="#f8db8f" stroke-width=".096612"/></g></svg>