<svg viewBox="0 0 32 32" xmlns="http://www.w3.org/2000/svg"><g opacity=".5"><path d="m4 4h24v24h-24z" fill="#fafafa"/><path d="m3 3v26h26v-26zm1 1h24v24h-24z" fill="#3a3a38"/><path d="m13 10a3 3 0 0 1 -3 3 3 3 0 0 1 -3-3 3 3 0 0 1 3-3 3 3 0 0 1 3 3z" fill="#ed8733"/><path d="m12 10a2 2 0 0 1 -2 2 2 2 0 0 1 -2-2 2 2 0 0 1 2-2 2 2 0 0 1 2 2z" fill="#f8db8f"/><g stroke-width="1.333333"><path d="m21.5 15.5-6.5 6.5-6 6h19v-6zm-9 4-8.4277344 8.427734-.0722656.072266h3.5l6.75-6.75z" fill="#83beec"/><path d="m21.5 14-6.5 6.5-2.5-2.5-8.5 8.5v1.25l.072266.177734 8.427734-8.427734 1.75 1.75-6.75 6.75h1.5l12.5-12.5 6.5 6.5v-1.5z" fill="#0063b1"/></g></g></svg>