<svg height="33" viewBox="0 0 8.7312499 8.7312502" width="33" xmlns="http://www.w3.org/2000/svg"><path d="m2.5 4c-.2769995 0-.5.2230001-.5.5v10c0 .277.2230005.5.5.5h12c.276999 0 .5-.223.5-.5v-10c0-.2769999-.223001-.5-.5-.5zm16 0c-.276998 0-.5.2229996-.5.5v10c0 .277002.223.5.5.5h12c.276998 0 .5-.223.5-.5v-10c0-.2770016-.223-.5-.5-.5zm-14.5 2h9v7h-9zm16 0h9v7h-9zm-17.5 12c-.2769997 0-.5.223-.5.5v10c0 .277002.2230005.5.5.5h12c.276998 0 .5-.223.5-.5v-10c0-.277002-.223-.5-.5-.5zm16 0c-.276998 0-.5.223-.5.5v10c0 .277002.223.5.5.5h12c.276998 0 .5-.223.5-.5v-10c0-.277002-.223-.5-.5-.5zm-14.5 2h9v7h-9zm16 0h9v7h-9z" fill="#fff" transform="scale(.26458333)"/><g fill="#fafafa"><path d="m1.0583333 1.5875h2.3812499v1.8520833h-2.3812499z" opacity=".5"/><path d="m5.2916668 1.5875001h2.3812499v1.8520833h-2.3812499z" opacity=".5"/><path d="m1.0583332 5.2916666h2.3812499v1.8520833h-2.3812499z" opacity=".5"/><path d="m5.2916667 5.2916667h2.3812499v1.8520833h-2.3812499z" opacity=".5"/></g></svg>