<svg height="71" viewBox="0 0 89 71" width="89" xmlns="http://www.w3.org/2000/svg"><path d="m4 4h81v63h-81z" fill="#fafafa"/><g fill="#69696e"><path d="m3 3v65h83v-65zm1 1h81v63h-81z" fill="#3a3a38"/><path d="m11.824219 8c-.456236 0-.824219.3679828-.824219.8242188v53.3515622c0 .456236.367983.824219.824219.824219h65.351562c.456236 0 .824219-.367983.824219-.824219v-53.3515622c0-.456236-.367983-.8242188-.824219-.8242188zm.175781 1h16v8h-16zm17 0h15v8h-15zm16 0h16v8h-16zm17 0h15v8h-15zm-50 9h16v8h-16zm17 0h15v8h-15zm16 0h16v8h-16zm17 0h15v8h-15zm-50 9h16v8h-16zm17 0h15v8h-15zm16 0h16v8h-16zm17 0h15v8h-15zm-50 9h16v8h-16zm17 0h15v8h-15zm16 0h16v8h-16zm17 0h15v8h-15zm-50 9h16v8h-16zm17 0h15v8h-15zm16 0h16v8h-16zm17 0h15v8h-15zm-50 9h16v8h-16zm17 0h15v8h-15zm16 0h16v8h-16zm17 0h15v8h-15z" fill="#797774"/><g fill="#1e8bcd" stroke-width="1.066667"><rect height="4" rx="1" width="12" x="14" y="11"/><rect height="4" rx="1" width="8" x="31" y="11"/><rect height="4" rx="1" width="12" x="47" y="11"/><rect height="4" rx="1" width="8" x="64" y="11"/><rect height="4" rx="1" width="8" x="14" y="20"/><rect height="4" rx="1" width="8" x="47" y="20"/><rect height="4" rx="1" width="12" x="31" y="20"/><rect height="4" rx="1" width="11" x="64" y="20"/><rect height="4" rx="1" width="12" x="14" y="29"/><rect height="4" rx="1" width="8" x="31" y="29"/><rect height="4" rx="1" width="12" x="47" y="29"/><rect height="4" rx="1" width="8" x="64" y="29"/><rect height="4" rx="1" width="8" x="14" y="38"/><rect height="4" rx="1" width="8" x="47" y="38"/><rect height="4" rx="1" width="12" x="31" y="38"/><rect height="4" rx="1" width="11" x="64" y="38"/><rect height="4" rx="1" width="12" x="14" y="47"/><rect height="4" rx="1" width="8" x="31" y="47"/><rect height="4" rx="1" width="12" x="47" y="47"/><rect height="4" rx="1" width="8" x="64" y="47"/><rect height="4" rx="1" width="8" x="14" y="56"/><rect height="4" rx="1" width="8" x="47" y="56"/><rect height="4" rx="1" width="12" x="31" y="56"/><rect height="4" rx="1" width="11" x="64" y="56"/></g></g></svg>