<?xml version="1.0" encoding="utf-8"?>
<!-- Generator: Adobe Illustrator 12.0.1, SVG Export Plug-In . SVG Version: 6.00 Build 51448)  -->
<!DOCTYPE svg PUBLIC "-//W3C//DTD SVG 1.1//EN" "http://www.w3.org/Graphics/SVG/1.1/DTD/svg11.dtd" [
	<!ENTITY ns_svg "http://www.w3.org/2000/svg">
	<!ENTITY ns_xlink "http://www.w3.org/1999/xlink">
]>
<svg  version="1.1" id="图层_1" xmlns="&ns_svg;" xmlns:xlink="&ns_xlink;" width="15.988" height="12.901"
	 viewBox="0 0 15.988 12.901" overflow="visible" enable-background="new 0 0 15.988 12.901" xml:space="preserve">
<g>
	<linearGradient id="XMLID_3_" gradientUnits="userSpaceOnUse" x1="4.7002" y1="7.8076" x2="15.9883" y2="7.8076">
		<stop  offset="0" style="stop-color:#FFC10E"/>
		<stop  offset="1" style="stop-color:#F16422"/>
	</linearGradient>
	<path fill="url(#XMLID_3_)" d="M4.71,7.803c0,1.365-0.01,4.949-0.01,4.949s4.092-0.008,5.649-0.008
		c3.113,0,5.639-2.212,5.639-4.941c0-1.363-0.054-4.893-0.054-4.893s-4.028-0.047-5.585-0.047C7.232,2.863,4.71,5.075,4.71,7.803z"
		/>
	<linearGradient id="XMLID_4_" gradientUnits="userSpaceOnUse" x1="1.7974" y1="-0.4531" x2="12.9976" y2="19.6142">
		<stop  offset="0.0109" style="stop-color:#A01C15"/>
		<stop  offset="1" style="stop-color:#65040B"/>
	</linearGradient>
	<path fill="url(#XMLID_4_)" d="M5.654,0.014C4.095,0.014,0,0,0,0s0.011,4.676,0.011,6.457c0,3.56,2.524,6.444,5.644,6.444
		c1.557,0,5.591-0.062,5.591-0.062s0.054-4.604,0.054-6.383C11.299,2.898,8.772,0.014,5.654,0.014z"/>
</g>
</svg>
