<svg viewBox="0 0 24 24" xmlns="http://www.w3.org/2000/svg"><path d="m22 4.0058594c0-.5577284-.448131-1.0058594-1.005859-1.0058594h-17.988282c-.557728 0-1.005859.448131-1.005859 1.0058594v15.9882816c0 .557728.448131 1.005859 1.005859 1.005859h17.988282c.557728 0 1.005859-.448131 1.005859-1.005859zm-1-.0058594v16h-18v-16z" fill="#3a3a38"/><path d="m21 4v16h-18v-16z" fill="#fafafa"/><path d="m6 8v7h1 2c1.104569 0 2-.8954 2-2 0-.8733-.563477-1.6023-1.34375-1.875.215649-.3192.34375-.7108.34375-1.125 0-1.1046-.895431-2-2-2h-1zm7 0v1 2 .5h2.25c.690356 0 1.25.5596 1.25 1.25s-.559644 1.25-1.25 1.25-1.25-.5596-1.25-1.25h-1c0 1.2426 1.007359 2.25 2.25 2.25s2.25-1.0074 2.25-2.25-1.007359-2.25-2.25-2.25h-1.25v-1.5h3.25v-1zm-6 1h1c.552285 0 1 .4477 1 1s-.447715 1-1 1h-1zm0 3h2c.552285 0 1 .4477 1 1s-.447715 1-1 1h-2z" fill="#1e8bcd"/></svg>