<svg height="32" viewBox="0 0 32 32" width="32" xmlns="http://www.w3.org/2000/svg"><path d="m17.667965 5.8925322c-1.585129 0-3.011366.2427394-4.285156.7207031v-.00195c-1.268003.4795685-2.343005 1.1453935-3.240234 2-.8871096.8549855-1.567923 1.8728027-2.0488283 3.0664027.0000017.000667.0000017.0013 0 .002-.4795711 1.180768-.7226562 2.482981-.7226562 3.917969 0 1.421326.251452 2.720725.75 3.910156.510638 1.183301 1.226864 2.203302 2.1562495 3.070312.929065.856913 2.043198 1.528871 3.355469 2.019532 1.315545.478045 2.788737.720703 4.425781.720703 1.289269 0 2.500815-.159693 3.640625-.476563 1.088996-.312289 2.300038-.819019 3.265625-1.472656l.03516-7.369141h-6v2.662109c-.000409.0937.02012.138763.0918.208984.0754.06559.166661.106552.347657.109376l2.171871.019531h.388672v.392578l-.01367 2.41211c-.000233.155585-.09209.296432-.234375.359375-.549012.246237-1.277267.504815-1.863277.652348-.0013.000674-.0026.0013-.0039.002-.5784.137813-1.223349.205078-1.935547.205078-1.060433 0-2.03528-.160336-2.917968-.486328-.0013-.000659-.0026-.0013-.0039-.002-.881019-.335874-1.64694-.824569-2.28125-1.460938l-.0039-.0039c-.623857-.647679-1.105855-1.437058-1.445312-2.355469-.341881-.924963-.509766-1.966903-.509766-3.117187 0-1.060232.152649-2.034538.460937-2.916016-.000002-.000667-.000002-.0013 0-.002.318048-.888472.772895-1.652792 1.365235-2.28125.591343-.6274025 1.308957-1.113769 2.138672-1.4511713.834516-.3492768 1.769126-.5214844 2.791015-.5214844.598774 0 1.13342.035831 1.607422.109375.469064.072777.898155.178024 1.289063.3164063.390426.1247405.75635.2747391 1.097656.453125.328808.1619834.656793.3399399.984375.5312499.284512.1643665.497329.1967785.673828.1621085.203481-.048009.34119-.1423935.470703-.3457025.0013-.00261.0026-.00521.0039-.0078l.966774-1.4492409c-.334012-.2851414-.676615-.5656365-1.078125-.8105469-.000669-.0006476-.0013-.0013-.002-.00195-.485263-.3020704-1.0306-.5651594-1.632765-.7851594-.601638-.2198072-1.25604-.3940725-1.964844-.5195313-.703637-.1245446-1.467029-.1855468-2.291016-.1855468z" fill="#3a3a38" stroke-width="1.010675"/></svg>