<svg height="16" viewBox="0 0 16 16" width="16" xmlns="http://www.w3.org/2000/svg"><path d="m9 0c-.554 0-1 .446-1 1v14c0 .554.446 1 1 1h6c.554 0 1-.446 1-1v-14c0-.554-.446-1-1-1zm0 1h6v14h-6z" fill="#3a3a38"/><path d="m9 1h6v14h-6z" fill="#fafafa"/><path d="m10 3h4v4h-4z" fill="#0063b1"/><path d="m11 4h2v2h-2z" fill="#83beec"/><g fill="#3a3a38"><path d="m10 10h4v1h-4z"/><path d="m10 12h4v1h-4z"/><path d="m0 2v3h3v-3zm1 1h1v1h-1z"/></g><path d="m1 3h1v1h-1z" fill="#fafafa"/><path d="m4 3h3v1h-3z" fill="#3a3a38"/><path d="m0 6v3h3v-3zm1 1h1v1h-1z" fill="#3a3a38"/><path d="m1 7h1v1h-1z" fill="#fafafa"/><path d="m4 7h3v1h-3z" fill="#3a3a38"/><path d="m0 10v3h3v-3zm1 1h1v1h-1z" fill="#3a3a38"/><path d="m1 11h1v1h-1z" fill="#fafafa"/><path d="m4 11h3v1h-3z" fill="#3a3a38"/><path d="m10 8h4v1h-4z" fill="#3a3a38"/></svg>