<svg viewBox="0 0 16 16" xmlns="http://www.w3.org/2000/svg"><g fill="none" stroke="#1e8bcd" stroke-linecap="round" stroke-linejoin="round" transform="matrix(0 1.0000007 -.99998453 0 16.999881 -5.007125)"><path d="m8.507121 1.494946-2.9999998 2.9949499 2.9999998 3.0050501"/><path d="m5.5071212 4.4898959h5.9928788"/></g><path d="m6.0566406 2-5.0566406 14h1.4453125c.1572649 0 .2909889-.046333.4003906-.138672.1162393-.092339.1953025-.199561.2363281-.320312l1.1386719-3.355469h3.8261719c.0172188-.088157.0296284-.17851.0625-.259766.2084285-.515216.7604197-.937372 1.390625-.9375.4031194.000043.790385.16299 1.072266.451172l.4375.4375v-1.398437l-1.994141-5.5332035c-.2309133-.0786368-.4334946-.2045351-.59375-.3652344-.2513063-.2520024-.4322726-.597876-.4472656-1.015625-.0100844-.2809792.0866054-.5765756.2441406-.8300781l-.265625-.734375zm.9433594 1.8320312c.0615385.2628108.1269364.5090324.1953125.7363282s.1367021.4252313.2050781.5957031l1.9082032 5.6367185h-4.6171876l1.9082032-5.6249998c.0615384-.1704718.1269364-.3703604.1953125-.5976562.068376-.2272958.136702-.47618.2050781-.7460938z" fill="#3a3a38"/><g fill="none" stroke="#1e8bcd" stroke-linecap="round" stroke-linejoin="round" transform="matrix(0 -1.0000007 -.99998453 0 16.999881 21.000003)"><path d="m8.507121 1.494946-2.9999998 2.9949499 2.9999998 3.0050501"/><path d="m5.5071212 4.4898959h5.9928788"/></g></svg>