<svg height="52" viewBox="0 0 60 52" width="60" xmlns="http://www.w3.org/2000/svg"><path d="m0 0h60v52h-60z" fill="#fafafa"/><path d="m29.5 9.5 19 19.5 2.5 2.5-21.5-10.5-17.5 7z" fill="#3a3a38"/><path d="m29.5 11 16.225305 16.546875-.725305-.322299-15.5-7.224576-13.5 5.242187z" fill="#797774" stroke-width=".793492"/><path d="m7 28.770689 22.5-8.770689 21.5 10v6l-20.5-9.234375-23.5 11.734375z" fill="#ed8733" stroke-width=".878062"/><path d="m8 29.5 21.5-8.5 20.5 10v4.5l-19.5-10-22.5 11.5z" fill="#f8db8f" stroke-width=".706619"/><g fill="#3a3a38" transform="translate(1 2)"><path d="m7 41h43v1h-43z"/><path d="m6 6h1v36h-1z"/></g><path d="m30.5 25.5 20.5 10.5v9h-44v-7.5z" fill="#0063b1" stroke-width=".707107"/><path d="m30.5 26.765625 19.5 9.941406v7.292969h-42v-5.734375z" fill="#83beec" stroke-width=".555556"/></svg>