<svg height="52" viewBox="0 0 60 52" width="60" xmlns="http://www.w3.org/2000/svg"><path d="m0 0h60v52h-60z" fill="#fafafa"/><path d="m12.277344 6-5.277344 5.279297-1 1v30.720703 1h38.851562l5.984376-6h.0039l.160162-.164062v-.835938-30-1zm.722656.9882812 37 .0117188v30h-37zm-1 .6972657v29.3144531.291016l-5 5.001953v-29.595703zm.708984 30.3027341 36.716797.011719-4.99414 5h-36.7207035z" fill="#3a3a38"/><path d="m11 19-2 2v5h38l2-2v-5zm0 1h36l-1 1h-36zm37 .5v3.5l-1 1v-3.5zm-38 1.5h36v3h-36z" fill="#3a3a38"/><path d="m11 20-1 1h36l1-1zm37 .5-1 1v3.5l1-1zm-38 1.5v3h36v-3z" fill="#797774"/><path d="m11 15-2 2v5h29l2-2v-5zm0 1h27l-1 1h-27zm28 .5v3.5l-1 1v-3.5zm-29 1.5h27v3h-27z" fill="#ed8733"/><path d="m11 16-1 1h27l1-1zm28 .5-1 1v3.5l1-1zm-29 1.5v3h27v-3z" fill="#f8db8f"/><path d="m11 11-2 2v5h22l2-2v-5zm0 1h20l-1 1h-20zm21 .5v3.5l-1 1v-3.5zm-22 1.5h20v3h-20z" fill="#0063b1"/><path d="m11 12-1 1h20l1-1zm21 .5-1 1v3.5l1-1zm-22 1.5v3h20v-3z" fill="#83beec"/><path d="m11 35-2 2v5h32l2-2v-5zm0 1h30l-1 1h-30zm31 .5v3.5l-1 1v-3.5zm-32 1.5h30v3h-30z" fill="#3a3a38"/><path d="m11 36-1 1h30l1-1zm31 .5-1 1v3.5l1-1zm-32 1.5v3h30v-3z" fill="#797774"/><path d="m11 31-2 2v5h38l2-2v-5zm0 1h36l-1 1h-36zm37 .5v3.5l-1 1v-3.5zm-38 1.5h36v3h-36z" fill="#ed8733"/><path d="m11 32-1 1h36l1-1zm37 .5-1 1v3.5l1-1zm-38 1.5v3h36v-3z" fill="#f8db8f"/><path d="m11 27-2 2v5h16l2-2v-5zm0 1h14l-1 1h-14zm15 .5v3.5l-1 1v-3.5zm-16 1.5h14v3h-14z" fill="#0063b1"/><path d="m11 28-1 1h14l1-1zm15 .5-1 1v3.5l1-1zm-16 1.5v3h14v-3z" fill="#83beec"/></svg>