<svg height="52" viewBox="0 0 60 52" width="60" xmlns="http://www.w3.org/2000/svg"><path d="m0 0h60v52h-60z" fill="#fafafa"/><path d="m12.277344 6-5.277344 5.279297-1 1v30.720703 1h38.851562l5.984376-6h.0039l.160162-.164062v-.835938-30-1zm.722656.9882812 37 .0117188v30h-37zm-1 .6972657v29.3144531.291016l-5 5.001953v-29.595703zm.708984 30.3027341 36.716797.011719-4.99414 5h-36.7207035z" fill="#3a3a38"/><path d="m14 31-2 2v9h13l2-2v-9zm0 1h11l-1 1h-11zm12 .5v7.5l-1 1v-7.5zm-13 1.5h11v7h-11z" fill="#0063b1"/><path d="m14 32-1 1h11l1-1zm12 .5-1 1v7.5l1-1zm-13 1.5v7h11v-7z" fill="#83beec"/><path d="m14 20-2 2v12h13l2-2v-12zm0 1h11l-1 1h-11zm12 .5v10.5l-1 1v-10.5zm-13 1.5h11v10h-11z" fill="#ed8733"/><path d="m14 21-1 1h11l1-1zm12 .5-1 1v10.5l1-1zm-13 1.5v10h11v-10z" fill="#f8db8f"/><path d="m14 10-2 2v11h13l2-2v-11zm0 1h11l-1 1h-11zm12 .5v9.5l-1 1v-9.5zm-13 1.5h11v9h-11z" fill="#3a3a38"/><path d="m14 11-1 1h11l1-1zm12 .5-1 1v9.5l1-1zm-13 1.5v9h11v-9z" fill="#797774"/><path d="m32 26-2 2v14h13l2-2v-14zm0 1h11l-1 1h-11zm12 .5v12.5l-1 1v-12.5zm-13 1.5h11v12h-11z" fill="#0063b1"/><path d="m32 27-1 1h11l1-1zm12 .5-1 1v12.5l1-1zm-13 1.5v12h11v-12z" fill="#83beec"/><path d="m32 17-2 2v10h13l2-2v-10zm0 1h11l-1 1h-11zm12 .5v8.5l-1 1v-8.5zm-13 1.5h11v8h-11z" fill="#ed8733"/><path d="m32 18-1 1h11l1-1zm12 .5-1 1v8.5l1-1zm-13 1.5v8h11v-8z" fill="#f8db8f"/><path d="m32 10-2 2v8h13l2-2v-8zm0 1h11l-1 1h-11zm12 .5v6.5l-1 1v-6.5zm-13 1.5h11v6h-11z" fill="#3a3a38"/><path d="m32 11-1 1h11l1-1zm12 .5-1 1v6.5l1-1zm-13 1.5v6h11v-6z" fill="#797774"/></svg>