<svg height="52" viewBox="0 0 60 52" width="60" xmlns="http://www.w3.org/2000/svg"><path d="m0 0h60v52h-60z" fill="#fafafa"/><g fill="#3a3a38"><path d="m13 17h15v11h-15z" stroke-width=".707107"/><path d="m7 44h45v1h-45z"/><path d="m6 5h1v40h-1z"/></g><path d="m14 18h13v9h-13z" fill="#797774" stroke-width=".555556"/><path d="m13 27h15v11h-15z" fill="#ed8733" stroke-width=".878062"/><path d="m14 28h13v9h-13z" fill="#f8db8f" stroke-width=".706619"/><path d="m13 37h15v7h-15z" fill="#0063b1"/><path d="m14 38h13v6h-13z" fill="#83beec" stroke-width=".793492"/><path d="m32 7h15v13h-15z" fill="#3a3a38" stroke-width=".707107"/><path d="m33 8h13v11h-13z" fill="#797774" stroke-width=".555556"/><path d="m32 19h15v11h-15z" fill="#ed8733" stroke-width=".878062"/><path d="m33 20h13v9h-13z" fill="#f8db8f" stroke-width=".706619"/><path d="m32 29h15v15h-15z" fill="#0063b1"/><path d="m33 30h13v14h-13z" fill="#83beec" stroke-width=".793492"/></svg>