<svg height="52" viewBox="0 0 60 52" width="60" xmlns="http://www.w3.org/2000/svg"><path d="m0 0h60v52h-60z" fill="#fafafa"/><path d="m7 44h45v1h-45z" fill="#3a3a38"/><path d="m6 5h1v40h-1z" fill="#3a3a38"/><path d="m33 18h15v15h-15z" fill="#0063b1" stroke-width=".878062"/><path d="m34 19h13v13h-13z" fill="#83beec" stroke-width=".706619"/><path d="m17.5 18.5 1 1 24-12-.5-1.5z" fill="#3a3a38"/><path d="m33 32h15v12h-15z" fill="#3a3a38" stroke-width=".986684"/><path d="m34 33h13v11h-13z" fill="#797774" stroke-width=".809991"/><path d="m12 25h15v11h-15z" fill="#0063b1" stroke-width=".878062"/><path d="m13 26h13v9h-13z" fill="#83beec" stroke-width=".706619"/><path d="m12 35h15v9h-15z" fill="#3a3a38" stroke-width=".986684"/><path d="m13 36h13v8h-13z" fill="#797774" stroke-width=".809991"/></svg>