<svg height="52" viewBox="0 0 60 52" width="60" xmlns="http://www.w3.org/2000/svg"><path d="m0 0h60v52h-60z" fill="#fafafa"/><path d="m12.277344 6-5.277344 5.279297-1 1v30.720703 1h38.851562l5.984376-6h.0039l.160162-.164062v-.835938-30-1zm.722656.9882812 37 .0117188v30h-37zm-1 .6972657v29.3144531.291016l-5 5.001953v-29.595703zm.708984 30.3027341 36.716797.011719-4.99414 5h-36.7207035z" fill="#3a3a38"/><path d="m37 40-2 2h-5v-22l2-2h5zm-1 0v-20l-1 1v20zm-.5-21h-3.5l-1 1h3.5zm-1.5 22v-20h-3v20z" fill="#0063b1"/><path d="m36 40-1 1v-20l1-1zm-.5-21-1 1h-3.5l1-1zm-1.5 22h-3v-20h3z" fill="#83beec"/><path d="m19 40-2 2h-5v-16l2-2h5zm-1 0v-14l-1 1v14zm-.5-15h-3.5l-1 1h3.5zm-1.5 16v-14h-3v14z" fill="#0063b1"/><path d="m18 40-1 1v-14l1-1zm-.5-15-1 1h-3.5l1-1zm-1.5 16h-3v-14h3z" fill="#83beec"/><path d="m41 40-2 2h-5v-29l2-2h5zm-1 0v-27l-1 1v27zm-.5-28h-3.5l-1 1h3.5zm-1.5 29v-27h-3v27z" fill="#ed8733"/><path d="m40 40-1 1v-27l1-1zm-.5-28-1 1h-3.5l1-1zm-1.5 29h-3v-27h3z" fill="#f8db8f"/><path d="m23 40-2 2h-5v-22l2-2h5zm-1 0v-20l-1 1v20zm-.5-21h-3.5l-1 1h3.5zm-1.5 22v-20h-3v20z" fill="#ed8733"/><path d="m22 40-1 1v-20l1-1zm-.5-21-1 1h-3.5l1-1zm-1.5 22h-3v-20h3z" fill="#f8db8f"/><path d="m45 40-2 2h-5v-13l2-2h5zm-1 0v-11l-1 1v11zm-.5-12h-3.5l-1 1h3.5zm-1.5 13v-11h-3v11z" fill="#3a3a38"/><path d="m44 40-1 1v-11l1-1zm-.5-12-1 1h-3.5l1-1zm-1.5 13h-3v-11h3z" fill="#797774"/><path d="m27 40-2 2h-5v-26l2-2h5zm-1 0v-24l-1 1v24zm-.5-25h-3.5l-1 1h3.5zm-1.5 26v-24h-3v24z" fill="#3a3a38"/><path d="m26 40-1 1v-24l1-1zm-.5-25-1 1h-3.5l1-1zm-1.5 26h-3v-24h3z" fill="#797774"/></svg>