<svg height="52" viewBox="0 0 60 52" width="60" xmlns="http://www.w3.org/2000/svg"><path d="m0 0h60v52h-60z" fill="#fafafa"/><path d="m12.277344 6-5.277344 5.279297-1 1v30.720703 1h38.851562l5.984376-6h.0039l.160162-.164062v-.835938-30-1zm.722656.9882812 37 .0117188v30h-37zm-1 .6972657v29.3144531.291016l-5 5.001953v-29.595703zm.708984 30.3027341 36.716797.011719-4.99414 5h-36.7207035z" fill="#3a3a38"/><path d="m43.458984 27.001953c-.492953.01997-.89767 2.396488-.953125 2.886719l-2.480468 8.316406.01563-.09375c-.02637.125803-.04051.255238-.04102.384766-.000003.0013-.000003.0026 0 .0039 0 .828959.557902 1.52146 1.21875 1.917969.660847.396515 1.469697.582037 2.281249.582037s1.620402-.185522 2.28125-.582031 1.21875-1.08901 1.21875-1.917969c.000031-.0046.000031-.0091 0-.01367-.0016-.117097-.0144-.233599-.03711-.347656l.01367.08398-2.482421-8.333984c-.05896-.521389-.510898-2.908524-1.035157-2.886719z" fill="#3a3a38"/><path d="m43.5 30-2.480469 8.316406c-.012765.060901-.019287.122214-.019531.183594 0 .828427 1.119288 1.5 2.5 1.5s2.5-.671573 2.5-1.5c-.000737-.05549-.0066-.110915-.01758-.166016z" fill="#797774"/><path d="m37.499996 9.999998c-.506455.011584-.947695 3.401981-.99609 3.906252l-2.480468 24.316406.01758-.111328c-.02638.125859-.0405.255197-.04102.384766-.000003.0013-.000003.0026 0 .0039 0 .86458.571961 1.531067 1.216797 1.917969.644838.386907 1.430717.582037 2.283205.582037s1.638367-.19513 2.283203-.582031c.644836-.386902 1.216797-1.053389 1.216797-1.917969.000031-.0046.000031-.0091 0-.01367-.0016-.117045-.01434-.233398-.03711-.347656l.01563.101562-2.482422-24.333984c-.050098-.522162-.471689-3.918842-.996098-3.906252z" fill="#ed8733"/><path d="m37.5 14-2.480469 24.316406c-.012765.060901-.019287.122214-.019531.183594 0 .828427 1.119288 1.5 2.5 1.5s2.5-.671573 2.5-1.5c-.000737-.05549-.0066-.110915-.01758-.166016z" fill="#f8db8f"/><path d="m31.449219 18.001953c-.485137.02489-.882229 2.394796-.941407 2.876953l-2.480468 17.316406.01367-.08398c-.02638.125855-.0405.255193-.04101.384762-.000003.0013-.000003.0026 0 .0039 0 .86458.571961 1.531067 1.216797 1.917969.644832.386907 1.430711.582037 2.283199.582037s1.638367-.19513 2.283203-.582031c.644836-.386902 1.216797-1.053389 1.216797-1.917969.000031-.0046.000031-.0091 0-.01367-.0016-.117045-.01434-.233398-.03711-.347656l.01172.07422-2.482421-17.333985c-.06392-.52058-.519144-2.903344-1.042969-2.876953z" fill="#0063b1"/><path d="m31.5 21-2.480469 17.316406c-.012765.060901-.019287.122214-.019531.183594 0 .828427 1.119288 1.5 2.5 1.5s2.5-.671573 2.5-1.5c-.000737-.05549-.0066-.110915-.01758-.166016z" fill="#83beec"/><path d="m23.439453 14.001953c-.478148.02865-.86884 2.392317-.931641 2.867188l-2.480468 21.316406.01367-.07422c-.02638.12586-.0405.255198-.04101.384767-.000003.0013-.000003.0026 0 .0039 0 .86458.571961 1.531067 1.216797 1.917969.644832.386907 1.430711.582037 2.283199.582037s1.638367-.19513 2.283203-.582031c.644836-.386902 1.216797-1.053389 1.216797-1.917969.000031-.0046.000031-.0091 0-.01367-.0016-.117045-.01434-.233398-.03711-.347656l.01172.06445-2.482421-21.333984c-.06881-.520625-.528569-2.899354-1.052735-2.867188z" fill="#3a3a38"/><path d="m23.5 17-2.480469 21.316406c-.012765.060901-.019287.122214-.019531.183594 0 .828427 1.119288 1.5 2.5 1.5s2.5-.671573 2.5-1.5c-.000737-.05549-.0066-.110915-.01758-.166016z" fill="#797774"/><path d="m17.5 18.5c-.498701-.0079-.911343 1.85291-.988281 2.345703l-2.480469 17.316406.0098-.05078c-.02642.125858-.04054.255196-.04105.384765-.000003.0013-.000003.0026 0 .0039 0 .86458.571961 1.531067 1.216797 1.917969.644836.386907 1.430715.582037 2.283203.582037s1.638367-.19513 2.283203-.582031c.644836-.386902 1.216797-1.053389 1.216797-1.917969.000031-.0046.000031-.0091 0-.01367-.0016-.117045-.01434-.233398-.03711-.347656l.0078.04102-2.482422-17.333985c-.07511-.48109-.501408-2.338169-.988268-2.345709z" fill="#ed8733"/><path d="m17.5 21-2.480469 17.316406c-.012765.060901-.019287.122214-.019531.183594 0 .828427 1.119288 1.5 2.5 1.5s2.5-.671573 2.5-1.5c-.000737-.05549-.0066-.110915-.01758-.166016z" fill="#f8db8f"/><path d="m11.500002 23.999999c-.491514.02084-.937851 2.397996-.994143 2.88672l-2.4804684 11.316406.015625-.0918c-.02638.125862-.040501.2552-.041016.384769-.0000025.0013-.0000025.0026 0 .0039 0 .86458.5719609 1.531067 1.2167974 1.917969.644836.386907 1.430715.582037 2.283203.582037s1.638367-.19513 2.283203-.582031c.644836-.386902 1.216797-1.053389 1.216797-1.917969.000031-.0046.000031-.0091 0-.01367-.0016-.117045-.01434-.233398-.03711-.347656l.01367.08203-2.482421-11.333984c-.060022-.52135-.469844-2.909584-.994139-2.88672z" fill="#0063b1"/><path d="m11.5 27-2.480469 11.316406c-.012765.060901-.019287.122214-.019531.183594 0 .828427 1.119288 1.5 2.5 1.5s2.5-.671573 2.5-1.5c-.000737-.05549-.0066-.110915-.01758-.166016z" fill="#83beec"/></svg>