<svg height="52" viewBox="0 0 60 52" width="60" xmlns="http://www.w3.org/2000/svg"><path d="m0 0h60v52h-60z" fill="#fafafa"/><path d="m12.277344 6-5.277344 5.279297-1 1v30.720703 1h38.851562l5.984376-6h.003906l.160156-.164062v-.835938-30-1zm.722656.9882812 37 .0117188v30h-37zm-1 .6972657v29.3144531.291016l-5 5.001953v-29.595703zm.708984 30.3027341 36.716797.011719-4.99414 5h-36.7207035z" fill="#3a3a38"/><path d="m38.517578 8-.986328 2.75-6.365234 24.566406c-.0036.01425-.0068.02858-.0098.04297l-.0918.433594c-.0029.01427-.0055.02859-.0078.04297-.0364.21808-.05542.437535-.05662.658201-.000006.002-.000006.0039 0 .0059 0 1.556252.92923 3.031384 2.333984 4.003906 1.404759.972481 3.283078 1.496053 5.16602 1.496053s3.761261-.523572 5.166016-1.496094c1.404754-.972522 2.333984-2.447654 2.333984-4.003906.000031-.0046.000031-.0091 0-.01367-.002-.155259-.02539-.308674-.04492-.46289.0026-.07797-.004-.155975-.01953-.232422l-.01953-.08789-.0059-.03125c-.01199-.06375-.02608-.126232-.04102-.189453l-.02539-.121094c-.0029-.01505-.0062-.03002-.0098-.04492l-6.36516-24.566411z" fill="#0063b1"/><path d="m38.5 11-6.365234 24.566406-.091797.433594a6.5 4.5 0 0 0 -.042969.5 6.5 4.5 0 0 0 6.5 4.5 6.5 4.5 0 0 0 6.5-4.5 6.5 4.5 0 0 0 -.046875-.5h.003906l-.02539-.119141a6.5 4.5 0 0 0 -.041016-.193359l-.025391-.121094z" fill="#83beec"/><path d="m21.517578 8-.986328 2.75-6.365234 24.566406c-.0036.01425-.0068.02858-.0098.04297l-.0918.433594c-.0029.01427-.0055.02859-.0078.04297-.0364.21808-.05542.437535-.05662.658201-.000006.002-.000006.0039 0 .0059 0 1.556252.92923 3.031384 2.333984 4.003906 1.404759.972481 3.283078 1.496053 5.16602 1.496053s3.761261-.523572 5.166016-1.496094c1.404754-.972522 2.333984-2.447654 2.333984-4.003906.000031-.0046.000031-.0091 0-.01367-.002-.155259-.02539-.308674-.04492-.46289.0026-.07797-.004-.155975-.01953-.232422l-.01953-.08789-.0059-.03125c-.01199-.06375-.02608-.126232-.04102-.189453l-.02539-.121094c-.0029-.01505-.0062-.03002-.0098-.04492l-6.36516-24.566411z" fill="#0063b1"/><path d="m21.5 11-6.365234 24.566406-.091797.433594a6.5 4.5 0 0 0 -.042969.5 6.5 4.5 0 0 0 6.5 4.5 6.5 4.5 0 0 0 6.5-4.5 6.5 4.5 0 0 0 -.046875-.5h.003906l-.02539-.119141a6.5 4.5 0 0 0 -.041016-.193359l-.025391-.121094z" fill="#83beec"/><path d="m25.285156 21.617188c-.672754.69866-1.749721 1.180219-2.974609 1.330078-.02846.0036-.05734.0065-.08594.0098-.239397.027266-.481727.041671-.724607.042934-.2614-.0012-.522152-.01749-.779297-.04883-1.235854-.14401-2.325422-.62543-3.005859-1.328125-.793185 3.057067-1.585158 6.114448-2.376953 9.171875l-.123047.470703c.03531.09659.07439.192332.117187.287109v.04883l.02734.01367c.896038 2.019246 3.359096 3.378634 6.132817 3.384768l.007812.003906.007812-.003906c2.768847-.0078 5.227301-1.364057 6.125-3.378906l.03516-.01953v-.06055c.04205-.0935.08047-.187946.115234-.283204-.834807-3.21299-1.666216-6.42686-2.49805-9.640622z" fill="#ed8733"/><path d="m24.417969 22.275391c-.601512.343727-1.328481.575495-2.107422.671875-.02846.0036-.05734.0065-.08594.0098-.239399.027301-.481727.041671-.724607.042934-.2614-.0012-.522152-.01749-.779297-.04883-.790663-.09266-1.529752-.324632-2.140625-.671875l-2.3125 8.923828c.702142 1.621265 2.771266 2.796877 5.232422 2.796877s4.53028-1.175612 5.232422-2.796875z" fill="#f8db8f"/><path d="m21.515625 8-.984375 2.748047-2.671875 10.296875.0039.0059-.148437.572266c.680437.702695 1.770005 1.184115 3.005859 1.328125.257151.031294.517903.047632.779303.048787.24288-.0013.485208-.01563.724609-.04297.0286-.0033.05748-.0061.08594-.0098 1.224888-.149859 2.301855-.631418 2.974609-1.330078l-.146484-.56836.002-.0039-2.671875-10.296875z" fill="#3a3a38"/><path d="m21.5 11-2.671875 10.296875h.011719c.664017.445422 1.636129.702409 2.660156.703125 1.025392-.000063 1.999161-.257069 2.664062-.703125h.007813z" fill="#797774"/><path d="m35.355469 19.142578-2.076172 8.015625c1.183514 1.111564 3.073025 1.841797 5.220703 1.841797s4.037189-.730233 5.220703-1.841797l-2.076172-8.013672a4.5 3 0 0 1 -3.144531.855469 4.5 3 0 0 1 -.617188-.033203 4.5 3 0 0 1 -2.527343-.824219z" fill="#ed8733"/><path d="m36.037109 20.507812-1.634765 6.306641c1.007508.721975 2.460998 1.185547 4.097656 1.185547s3.090148-.463572 4.097656-1.185547l-1.634765-6.306641c-.731691.320257-1.587597.491302-2.462891.492188-.875294-.000886-1.7312-.171931-2.462891-.492188z" fill="#f8db8f"/><path d="m38.517578 8-.986328 2.75-2.390625 9.228516c.824504.621788 2.016621 1.021484 3.359375 1.021484s2.534871-.399696 3.359375-1.021484l-2.390625-9.228516z" fill="#3a3a38"/><path d="m38.5 11-2.212891 8.537109c.604602.284527 1.368499.462891 2.212891.462891s1.608289-.178364 2.212891-.462891z" fill="#797774"/></svg>