<svg height="52" viewBox="0 0 15.875 13.758334" width="60" xmlns="http://www.w3.org/2000/svg"><path d="m.00000019 0h15.87499981v13.75833h-15.87499981z" fill="#fafafa" stroke-width=".264583"/><path d="m26.351562 6-19.351562 13.240234v.759766 23.240234.759766h28 .644531l.355469-.287109v-.001953l15.671875-12.710938h.007813l.320312-.265625v-.734375-.023438-23.976562h-25zm.648438 1h24v23l-24 .011719v-.011719zm-1 .4414062v22.7988278l-18 12.316407v-22.800782zm.646484 23.5585938h23.44336l-14.792969 12h-26.1914062z" fill="#3a3a38" transform="scale(.26458334)"/><path d="m7.0114586 5.5557334c-.2829726 0-.5268992.1629138-.6836791.3824055-.1567799.219492-.2428793.5018352-.2428793.8087363s.086099.5892443.2428793.8087363c.1567799.2194917.4007065.3824055.6836791.3824055h.00103c.01697-.0000593.00508-.00161.017571-.00259.027133.0037.054676.00317.081649-.00156l4.8420814-.9260417 1.5875-.260966-1.5875-.2609659-4.8420814-.9260417c-.025598-.00448-.051715-.00518-.077514-.00206-.00959-.0006086-.010972-.00206-.022738-.00206z" fill="#3a3a38"/><path d="m7.0114586 5.8208335c-.3653134 0-.6614583.4146029-.6614583.9260417s.2961449.9260417.6614583.9260417c.017792-.0000622.035067-.00686.05271-.0093v.0093l4.8420814-.9260417-4.8420813-.9260417v.00517c-.01753-.00236-.035028-.00515-.05271-.00517z" fill="#797774"/><path d="m7.0114586 2.6453165c-.2829726 0-.5268992.1629138-.6836791.3824055-.1567799.219492-.2428793.5018352-.2428793.8087363s.086099.5892443.2428793.8087363c.1567799.2194917.4007065.3824055.6836791.3824055.000344.0000007.0006879.0000007.00103 0 .01697-.0000593.00508-.00161.017571-.00259.027133.0037.054676.00317.081649-.00156l5.1066664-.9260417 1.5875-.260966-1.5875-.2609659-5.1066664-.9260417c-.025598-.00448-.051715-.00518-.077514-.00206-.00959-.0006086-.010972-.00206-.022738-.00206z" fill="#3a3a38"/><path d="m7.0114586 2.9104166c-.3653134 0-.6614583.4146029-.6614583.9260417s.2961449.9260417.6614583.9260417c.017792-.0000622.035067-.00686.05271-.0093v.0093l5.1066664-.9260417-5.1066663-.9260417v.00517c-.01753-.00236-.035028-.00515-.05271-.00517z" fill="#797774"/><path d="m19.5 25.998047c-1.069503 0-1.99143.615737-2.583984 1.445312-.592554.829576-.917969 1.8967-.917969 3.056641s.325415 2.227065.917969 3.056641c.592554.829575 1.514481 1.445312 2.583984 1.445312.0013.000003.0026.000003.0039 0 .06414-.000224.0192-.0061.06641-.0098.102552.01398.206651.01199.308594-.0059l19.300782-3.5 6-.986328-6-.986328-19.300782-3.5c-.09675-.01694-.195457-.01957-.292968-.0078-.03625-.0023-.04147-.0078-.08594-.0078z" fill="#ed8733" transform="scale(.26458334)"/><path d="m5.1593752 3.9682332c-.2830378 0-.5268751.1623632-.6836791.3818888s-.2428794.5023189-.2428794.809253.086075.5897269.2428794.809253c.156804.2195251.4006413.3818891.6836791.3818891h.00103c.01549-.000053.030561-.0036.045992-.0047.011494-.0017.035777-.0034.037724-.0036l-.0005167-.000516c.018113-.0021.036358-.0023.054261-.0057.010823.0017.025541.0043.031006.0031.042145-.0096.072497-.02008.088367-.02481.4104612-.1217549.8257354-.2338372 1.2433371-.3441129l.00103-.0005167 2.1363038-.5539714a.2646098.2646098 0 0 0 .033073-.010852l.00517-.00155.9534299-.2439128-.9534299-.2439128-.0031-.0005167a.2646098.2646098 0 0 0 -.00258-.00103.2646098.2646098 0 0 0 -.032556-.010852l-2.1363074-.5539753-.0010334-.0005167c-.4176023-.1102757-.8328772-.2223567-1.2433351-.344165-.015713-.00467-.046254-.015189-.088367-.024805-.00555-.00127-.020517.00136-.031523.0031-.018066-.00343-.036498-.00358-.054777-.00568l.00103-.00103c-.00209-.0002429-.031759-.00259-.055294-.00465-.00973-.0003966-.019189-.00309-.028939-.0031z" fill="#ed8733"/><path d="m5.1593752 4.2333333c-.3653134 0-.6614584.4146029-.6614584.9260417s.296145.9260417.6614584.9260417c.018011-.000063.035835-.00357.053743-.00568v.00258c.024259.01282.084767-.00863.1286743-.021704.4149881-.1231518.8331787-.2361247 1.2521205-.3467496l2.1373373-.5544881-2.1373373-.5544881c-.4189418-.1106249-.8371324-.2235962-1.25212-.3467489-.0439068-.013035-.1044152-.0345271-.1286743-.021704v.00258c-.017917-.00207-.035728-.00567-.053743-.00568z" fill="#f8db8f"/><g transform="scale(.26458334)"><path d="m19.5 27c-1.380712 0-2.5 1.567003-2.5 3.5s1.119288 3.5 2.5 3.5c.067246-.000235.132538-.025929.199219-.035156v.035156l19.300781-3.5-19.300781-3.5v.019531c-.066257-.008923-.132388-.019471-.199219-.019531z" fill="#f8db8f"/><path d="m13.5 30.998047c-1.069749 0-1.991339.613656-2.583984 1.443359s-.9179691 1.898528-.9179691 3.058594.3253221 2.228889.9179691 3.058594c.592645.829701 1.514235 1.443359 2.583984 1.443359h.003906c.058544-.0002.115507-.013729.173828-.017578.043442-.006281.135219-.012804.142578-.013672l-.001953-.001953c.06846-.007979.137417-.008583.205079-.021484.040907.006515.096535.016429.117187.011718.159289-.036337.274006-.075895.333984-.09375 1.551342-.460373 3.120882-.883991 4.699219-1.300781l.003906-.001953 8.074219-2.09375a1.0001 1.0001 0 0 0 .125-.041016l.019531-.005859 3.603516-.921875-3.603516-.921875-.011718-.001953a1.0001 1.0001 0 0 0 -.009766-.003906 1.0001 1.0001 0 0 0 -.123047-.041016l-8.074219-2.09375-.003906-.001953c-1.578339-.41679-3.147882-.840403-4.699219-1.300781-.059389-.017633-.174817-.057408-.333984-.09375-.020976-.00479-.077543.005147-.119141.011718-.068279-.012975-.137946-.013541-.207031-.021484l.003906-.003906c-.007918-.000918-.120033-.00979-.208984-.017578-.036773-.001499-.072526-.011687-.109375-.011719z" fill="#0063b1"/><path d="m13.5 32c-1.380712 0-2.5 1.567003-2.5 3.5s1.119288 3.5 2.5 3.5c.068073-.000238.135438-.013498.203125-.021484v.009765c.091688.048454.320381-.032633.486328-.082031 1.568457-.465453 3.14902-.892437 4.732422-1.310547l8.078125-2.095703-8.078125-2.095703c-1.583402-.41811-3.163965-.845088-4.732422-1.310547-.165947-.049266-.39464-.130496-.486328-.082031v.009765c-.067716-.007815-.135034-.021423-.203125-.021484z" fill="#83beec"/><path d="m13.5 19.998047c-1.069749 0-1.991339.613656-2.583984 1.443359s-.9179691 1.898528-.9179691 3.058594.3253241 2.228891.9179691 3.058594 1.514235 1.443359 2.583984 1.443359c.0013.000003.0026.000003.0039 0 .380313-.0013.757863-.08023 1.107422-.228515l.0078-.0039.195312-.08594 7.582031-3.261719 2.103535-.921879-2.103535-.921871-7.578125-3.259766-.191406-.08594c-.0065-.0027-.01299-.0053-.01953-.0078-.349826-.147388-.727204-.226237-1.107404-.226576z" fill="#0063b1"/><path d="m13.5 21c-1.380712 0-2.5 1.567003-2.5 3.5s1.119288 3.5 2.5 3.5c.243537-.000851.485678-.05152.71875-.150391l.197266-.0859 7.583984-3.263709-7.583984-3.263672-.197266-.08789c-.233142-.098213-.475282-.148221-.71875-.148438z" fill="#83beec"/></g></svg>