<svg height="52" viewBox="0 0 60 52" width="60" xmlns="http://www.w3.org/2000/svg"><path d="m0 0h60v52h-60z" fill="#fafafa"/><path d="m12.277344 6-5.277344 5.279297-1 1v30.720703 1h38.851562l5.984376-6h.0039l.160162-.164062v-.835938-30-1zm.722656.9882812 37 .0117188v30h-37zm-1 .6972657v29.3144531.291016l-5 5.001953v-29.595703zm.708984 30.3027341 36.716797.011719-4.99414 5h-36.7207035z" fill="#3a3a38"/><path d="m32.5 18c-1.932997 0-3.5.895431-3.5 2v20c0 1.104569 1.567003 2 3.5 2s3.5-.895431 3.5-2v-20c0-1.104569-1.567003-2-3.5-2zm0 1c1.380712 0 2.5.447715 2.5 1s-1.119288 1-2.5 1-2.5-.447715-2.5-1 1.119288-1 2.5-1zm-2.5 2.398438c.65794.384402 1.559035.601228 2.5.601562.940965-.000334 1.84206-.21716 2.5-.601562v17.205078 1.396484c-.000457.02739-.0037.05475-.0098.08203-.005.02026-.01148.04045-.01953.06055-.0045.01371-.0097.02739-.01563.04102-.0086.01768-.01835.03526-.0293.05273-.0083.0144-.01743.02873-.02734.04297-.01091.01443-.02263.02875-.03516.04297-.0166.02041-.03484.04061-.05469.06055-.0082.0072-.01671.01436-.02539.02148-.0257.02386-.05371.04732-.08398.07031-.0064.0046-.01293.0091-.01953.01367-.0339.0247-.07039.04881-.109376.07227-.01343.0072-.0271.01439-.04102.02148-.02935.01665-.05996.03293-.0918.04883-.02651.0133-.05386.02632-.08203.03906-.03407.01474-.06924.02907-.105469.04297-.0091.0033-.01817.0066-.02734.0098-.05124.02045-.104675.04-.160156.05859-.01037.0026-.02079.0052-.03125.0078-.05054.01644-.10266.03207-.15625.04688-.0372.0089-.07498.01732-.113281.02539-.03086.0074-.06212.01459-.09375.02148-.02646.0054-.05316.01061-.08008.01563-.05629.01128-.11362.0217-.171875.03125-.01428.002-.0286.004-.04297.0059-.06164.0095-.124187.01792-.1875.02539-.02399.0027-.04808.0053-.07227.0078-.04653.0051-.09343.0097-.140625.01367-.07373.0052-.148006.0091-.222608.01167-.08304.0036-.166474.0056-.25.0059-.08353-.000295-.166965-.0023-.25-.0059-.07462-.0026-.148914-.0065-.222656-.01172-.0472-.004-.09409-.0086-.140625-.01367-.02419-.0025-.04828-.0051-.07227-.0078-.06331-.0075-.125863-.01594-.1875-.02539-.01437-.0019-.02869-.0039-.04297-.0059-.05826-.0095-.115587-.01997-.171875-.03125-.02692-.005-.05362-.01023-.08008-.01563-.03163-.0069-.06289-.01405-.09375-.02148-.0383-.0081-.07608-.01654-.113281-.02539-.05359-.01481-.105713-.03045-.15625-.04688-.01046-.0026-.02088-.0052-.03125-.0078-.05548-.01859-.108916-.03814-.160156-.05859-.0092-.0032-.01829-.0065-.02734-.0098-.03623-.0139-.0714-.02823-.105469-.04297-.02817-.01274-.05552-.02576-.08203-.03906-.03184-.0159-.06245-.03218-.0918-.04883-.01391-.0071-.02759-.01425-.04102-.02148-.03899-.02346-.07548-.04757-.109376-.07227-.0066-.0045-.01311-.0091-.01953-.01367-.03027-.02299-.05828-.04645-.08398-.07031-.0087-.0071-.01714-.01428-.02539-.02148-.01985-.01994-.03809-.04014-.05469-.06055-.01253-.01422-.02425-.02854-.03516-.04297-.0099-.01424-.01902-.02857-.02734-.04297-.01095-.01747-.02072-.03505-.0293-.05273-.0059-.01363-.01113-.0273-.01563-.04102-.008-.0201-.01456-.04029-.01953-.06055-.006051-.027288-.009305-.054625-.009752-.08198v-1.398438z" fill="#0063b1"/><path d="m32.5 19c-1.380712 0-2.5.447715-2.5 1s1.119288 1 2.5 1 2.5-.447715 2.5-1-1.119288-1-2.5-1zm2.5 2.396484c-.657369.38512-1.558536.602667-2.5.603516-.940965-.000334-1.84206-.21716-2.5-.601562v18.601562c0 .552285 1.119288 1 2.5 1s2.5-.447715 2.5-1z" fill="#83beec"/><path d="m37.5 11c-1.932997 0-3.5.895431-3.5 2v27c0 1.104569 1.567003 2 3.5 2s3.5-.895431 3.5-2v-27c0-1.104569-1.567003-2-3.5-2zm0 1c1.380712 0 2.5.447715 2.5 1s-1.119288 1-2.5 1-2.5-.447715-2.5-1 1.119288-1 2.5-1zm-2.5 2.398438c.65794.384402 1.559035.601228 2.5.601562.940965-.000334 1.84206-.21716 2.5-.601562v24.205078 1.396484c-.000457.02739-.0037.05475-.0098.08203-.005.02026-.01148.04045-.01953.06055-.0045.01371-.0097.02739-.01563.04102-.0086.01768-.01835.03526-.0293.05273-.0083.0144-.01743.02873-.02734.04297-.01091.01443-.02263.02875-.03516.04297-.0166.02041-.03484.04061-.05469.06055-.0082.0072-.01671.01436-.02539.02148-.0257.02386-.05371.04732-.08398.07031-.0064.0046-.01293.0091-.01953.01367-.0339.0247-.07039.04881-.109376.07227-.01343.0072-.0271.01439-.04102.02148-.02935.01665-.05996.03293-.0918.04883-.02651.0133-.05386.02632-.08203.03906-.03407.01474-.06924.02907-.105469.04297-.0091.0033-.01817.0066-.02734.0098-.05124.02045-.104675.04-.160156.05859-.01037.0026-.02079.0052-.03125.0078-.05054.01644-.10266.03207-.15625.04688-.0372.0089-.07498.01732-.113281.02539-.03086.0074-.06212.01459-.09375.02148-.02646.0054-.05316.01061-.08008.01563-.05629.01128-.11362.0217-.171875.03125-.01428.002-.0286.004-.04297.0059-.06164.0095-.124187.01792-.1875.02539-.02399.0027-.04808.0053-.07227.0078-.04653.0051-.09343.0097-.140625.01367-.07373.0052-.148006.0091-.222608.01167-.08304.0036-.166474.0056-.25.0059-.08353-.000295-.166965-.0023-.25-.0059-.07462-.0026-.148914-.0065-.222656-.01172-.0472-.004-.09409-.0086-.140625-.01367-.02419-.0025-.04828-.0051-.07227-.0078-.06331-.0075-.125863-.01594-.1875-.02539-.01437-.0019-.02869-.0039-.04297-.0059-.05826-.0095-.115587-.01997-.171875-.03125-.02692-.005-.05362-.01023-.08008-.01563-.03163-.0069-.06289-.01405-.09375-.02148-.0383-.0081-.07608-.01654-.113281-.02539-.05359-.01481-.105713-.03045-.15625-.04688-.01046-.0026-.02088-.0052-.03125-.0078-.05548-.01859-.108916-.03814-.160156-.05859-.0092-.0032-.01829-.0065-.02734-.0098-.03623-.0139-.0714-.02823-.105469-.04297-.02817-.01274-.05552-.02576-.08203-.03906-.03184-.0159-.06245-.03218-.0918-.04883-.01391-.0071-.02759-.01425-.04102-.02148-.03899-.02346-.07548-.04757-.109376-.07227-.0066-.0045-.01311-.0091-.01953-.01367-.03027-.02299-.05828-.04645-.08398-.07031-.0087-.0071-.01714-.01428-.02539-.02148-.01985-.01994-.03809-.04014-.05469-.06055-.01253-.01422-.02425-.02854-.03516-.04297-.0099-.01424-.01902-.02857-.02734-.04297-.01095-.01747-.02072-.03505-.0293-.05273-.0059-.01363-.01113-.0273-.01563-.04102-.008-.0201-.01456-.04029-.01953-.06055-.006051-.027288-.009305-.054625-.009752-.08198v-1.398438z" fill="#ed8733"/><path d="m37.5 12c-1.380712 0-2.5.447715-2.5 1s1.119288 1 2.5 1 2.5-.447715 2.5-1-1.119288-1-2.5-1zm2.5 2.396484c-.657369.38512-1.558536.602667-2.5.603516-.940965-.000334-1.84206-.21716-2.5-.601562v25.601562c0 .552285 1.119288 1 2.5 1s2.5-.447715 2.5-1z" fill="#f8db8f"/><path d="m42.5 27a3.5 2 0 0 0 -3.5 2v11a3.5 2 0 0 0 3.5 2 3.5 2 0 0 0 3.5-2v-11a3.5 2 0 0 0 -3.5-2zm0 1a2.5 1 0 0 1 2.5 1 2.5 1 0 0 1 -2.5 1 2.5 1 0 0 1 -2.5-1 2.5 1 0 0 1 2.5-1zm-2.5 2.398438a3.5 2 0 0 0 2.5.601562 3.5 2 0 0 0 2.5-.601562v8.205078 1.396484a2.5 1 0 0 1 -.0098.08203 2.5 1 0 0 1 -.01953.06055 2.5 1 0 0 1 -.01563.04102 2.5 1 0 0 1 -.0293.05273 2.5 1 0 0 1 -.02734.04297 2.5 1 0 0 1 -.03516.04297 2.5 1 0 0 1 -.05469.06055 2.5 1 0 0 1 -.02539.02148 2.5 1 0 0 1 -.08398.07031 2.5 1 0 0 1 -.01953.01367 2.5 1 0 0 1 -.109376.07227 2.5 1 0 0 1 -.04102.02148 2.5 1 0 0 1 -.0918.04883 2.5 1 0 0 1 -.08203.03906 2.5 1 0 0 1 -.105469.04297 2.5 1 0 0 1 -.02734.0098 2.5 1 0 0 1 -.160156.05859 2.5 1 0 0 1 -.03125.0078 2.5 1 0 0 1 -.15625.04688 2.5 1 0 0 1 -.113281.02539 2.5 1 0 0 1 -.09375.02148 2.5 1 0 0 1 -.08008.01563 2.5 1 0 0 1 -.171875.03125 2.5 1 0 0 1 -.04297.0059 2.5 1 0 0 1 -.1875.02539 2.5 1 0 0 1 -.07227.0078 2.5 1 0 0 1 -.140625.01367 2.5 1 0 0 1 -.222608.011671 2.5 1 0 0 1 -.25.005859 2.5 1 0 0 1 -.25-.0059 2.5 1 0 0 1 -.222656-.01172 2.5 1 0 0 1 -.140625-.01367 2.5 1 0 0 1 -.07227-.0078 2.5 1 0 0 1 -.1875-.02539 2.5 1 0 0 1 -.04297-.0059 2.5 1 0 0 1 -.171875-.03125 2.5 1 0 0 1 -.08008-.01563 2.5 1 0 0 1 -.09375-.02148 2.5 1 0 0 1 -.113281-.02539 2.5 1 0 0 1 -.15625-.04688 2.5 1 0 0 1 -.03125-.0078 2.5 1 0 0 1 -.160156-.05859 2.5 1 0 0 1 -.02734-.0098 2.5 1 0 0 1 -.105469-.04297 2.5 1 0 0 1 -.08203-.03906 2.5 1 0 0 1 -.0918-.04883 2.5 1 0 0 1 -.04102-.02148 2.5 1 0 0 1 -.109376-.07227 2.5 1 0 0 1 -.01953-.01367 2.5 1 0 0 1 -.08398-.07031 2.5 1 0 0 1 -.02539-.02148 2.5 1 0 0 1 -.05469-.06055 2.5 1 0 0 1 -.03516-.04297 2.5 1 0 0 1 -.02734-.04297 2.5 1 0 0 1 -.0293-.05273 2.5 1 0 0 1 -.01563-.04102 2.5 1 0 0 1 -.01953-.06055 2.5 1 0 0 1 -.009752-.08194v-1.398438z" fill="#3a3a38"/><path d="m42.5 28a2.5 1 0 0 0 -2.5 1 2.5 1 0 0 0 2.5 1 2.5 1 0 0 0 2.5-1 2.5 1 0 0 0 -2.5-1zm2.5 2.396484a3.5 2 0 0 1 -2.5.603516 3.5 2 0 0 1 -2.5-.601562v9.601562a2.5 1 0 0 0 2.5 1 2.5 1 0 0 0 2.5-1z" fill="#797774"/><path d="m14.5 24c-1.932997 0-3.5.895431-3.5 2v14c0 1.104569 1.567003 2 3.5 2s3.5-.895431 3.5-2v-14c0-1.104569-1.567003-2-3.5-2zm0 1c1.380712 0 2.5.447715 2.5 1s-1.119288 1-2.5 1-2.5-.447715-2.5-1 1.119288-1 2.5-1zm-2.5 2.398438c.65794.384402 1.559035.601228 2.5.601562.940965-.000334 1.84206-.21716 2.5-.601562v11.205078 1.396484c-.000457.02739-.0037.05475-.0098.08203-.005.02026-.01148.04045-.01953.06055-.0045.01371-.0097.02739-.01563.04102-.0086.01768-.01835.03526-.0293.05273-.0083.0144-.01743.02873-.02734.04297-.01091.01443-.02263.02875-.03516.04297-.0166.02041-.03484.04061-.05469.06055-.0082.0072-.01671.01436-.02539.02148-.0257.02386-.05371.04732-.08398.07031-.0064.0046-.01293.0091-.01953.01367-.0339.0247-.07039.04881-.109376.07227-.01343.0072-.0271.01439-.04102.02148-.02935.01665-.05996.03293-.0918.04883-.02651.0133-.05386.02632-.08203.03906-.03407.01474-.06924.02907-.105469.04297-.0091.0033-.01817.0066-.02734.0098-.05124.02045-.104675.04-.160156.05859-.01037.0026-.02079.0052-.03125.0078-.05054.01644-.10266.03207-.15625.04688-.0372.0089-.07498.01732-.113281.02539-.03086.0074-.06212.01459-.09375.02148-.02646.0054-.05316.01061-.08008.01563-.05629.01128-.11362.0217-.171875.03125-.01428.002-.0286.004-.04297.0059-.06164.0095-.124187.01792-.1875.02539-.02399.0027-.04808.0053-.07227.0078-.04653.0051-.09343.0097-.140625.01367-.07373.0052-.148006.0091-.222608.01167-.08304.0036-.166474.0056-.25.0059-.08353-.000295-.166965-.0023-.25-.0059-.07462-.0026-.148914-.0065-.222656-.01172-.0472-.004-.09409-.0086-.140625-.01367-.02419-.0025-.04828-.0051-.07227-.0078-.06331-.0075-.125863-.01594-.1875-.02539-.01437-.0019-.02869-.0039-.04297-.0059-.05826-.0095-.115587-.01997-.171875-.03125-.02692-.005-.05362-.01023-.08008-.01563-.03163-.0069-.06289-.01405-.09375-.02148-.0383-.0081-.07608-.01654-.113281-.02539-.05359-.01481-.105713-.03045-.15625-.04688-.01046-.0026-.02088-.0052-.03125-.0078-.05548-.01859-.108916-.03814-.160156-.05859-.0092-.0032-.01829-.0065-.02734-.0098-.03623-.0139-.0714-.02823-.105469-.04297-.02817-.01274-.05552-.02576-.08203-.03906-.03184-.0159-.06245-.03218-.0918-.04883-.01391-.0071-.02759-.01425-.04102-.02148-.03899-.02346-.07548-.04757-.109376-.07227-.0066-.0045-.01311-.0091-.01953-.01367-.03027-.02299-.05828-.04645-.08398-.07031-.0087-.0071-.01714-.01428-.02539-.02148-.01985-.01994-.03809-.04014-.05469-.06055-.01253-.01422-.02425-.02854-.03516-.04297-.0099-.01424-.01902-.02857-.02734-.04297-.01095-.01747-.02072-.03505-.0293-.05273-.0059-.01363-.01113-.0273-.01563-.04102-.008-.0201-.01456-.04029-.01953-.06055-.006051-.027288-.009305-.054625-.009752-.08198v-1.398438z" fill="#0063b1"/><path d="m14.5 25c-1.380712 0-2.5.447715-2.5 1s1.119288 1 2.5 1 2.5-.447715 2.5-1-1.119288-1-2.5-1zm2.5 2.396484c-.657369.38512-1.558536.602667-2.5.603516-.940965-.000334-1.84206-.21716-2.5-.601562v12.601562c0 .552285 1.119288 1 2.5 1s2.5-.447715 2.5-1z" fill="#83beec"/><path d="m18.5 18c-1.932997 0-3.5.895431-3.5 2v20c0 1.104569 1.567003 2 3.5 2s3.5-.895431 3.5-2v-20c0-1.104569-1.567003-2-3.5-2zm0 1c1.380712 0 2.5.447715 2.5 1s-1.119288 1-2.5 1-2.5-.447715-2.5-1 1.119288-1 2.5-1zm-2.5 2.398438c.65794.384402 1.559035.601228 2.5.601562.940965-.000334 1.84206-.21716 2.5-.601562v17.205078 1.396484c-.000457.02739-.0037.05475-.0098.08203-.005.02026-.01148.04045-.01953.06055-.0045.01371-.0097.02739-.01563.04102-.0086.01768-.01835.03526-.0293.05273-.0083.0144-.01743.02873-.02734.04297-.01091.01443-.02263.02875-.03516.04297-.0166.02041-.03484.04061-.05469.06055-.0082.0072-.01671.01436-.02539.02148-.0257.02386-.05371.04732-.08398.07031-.0064.0046-.01293.0091-.01953.01367-.0339.0247-.07039.04881-.109376.07227-.01343.0072-.0271.01439-.04102.02148-.02935.01665-.05996.03293-.0918.04883-.02651.0133-.05386.02632-.08203.03906-.03407.01474-.06924.02907-.105469.04297-.0091.0033-.01817.0066-.02734.0098-.05124.02045-.104675.04-.160156.05859-.01037.0026-.02079.0052-.03125.0078-.05054.01644-.10266.03207-.15625.04688-.0372.0089-.07498.01732-.113281.02539-.03086.0074-.06212.01459-.09375.02148-.02646.0054-.05316.01061-.08008.01563-.05629.01128-.11362.0217-.171875.03125-.01428.002-.0286.004-.04297.0059-.06164.0095-.124187.01792-.1875.02539-.02399.0027-.04808.0053-.07227.0078-.04653.0051-.09343.0097-.140625.01367-.07373.0052-.148006.0091-.222608.01167-.08304.0036-.166474.0056-.25.0059-.08353-.000295-.166965-.0023-.25-.0059-.07462-.0026-.148914-.0065-.222656-.01172-.0472-.004-.09409-.0086-.140625-.01367-.02419-.0025-.04828-.0051-.07227-.0078-.06331-.0075-.125863-.01594-.1875-.02539-.01437-.0019-.02869-.0039-.04297-.0059-.05826-.0095-.115587-.01997-.171875-.03125-.02692-.005-.05362-.01023-.08008-.01563-.03163-.0069-.06289-.01405-.09375-.02148-.0383-.0081-.07608-.01654-.113281-.02539-.05359-.01481-.105713-.03045-.15625-.04688-.01046-.0026-.02088-.0052-.03125-.0078-.05548-.01859-.108916-.03814-.160156-.05859-.0092-.0032-.01829-.0065-.02734-.0098-.03623-.0139-.0714-.02823-.105469-.04297-.02817-.01274-.05552-.02576-.08203-.03906-.03184-.0159-.06245-.03218-.0918-.04883-.01391-.0071-.02759-.01425-.04102-.02148-.03899-.02346-.07548-.04757-.109376-.07227-.0066-.0045-.01311-.0091-.01953-.01367-.03027-.02299-.05828-.04645-.08398-.07031-.0087-.0071-.01714-.01428-.02539-.02148-.01985-.01994-.03809-.04014-.05469-.06055-.01253-.01422-.02425-.02854-.03516-.04297-.0099-.01424-.01902-.02857-.02734-.04297-.01095-.01747-.02072-.03505-.0293-.05273-.0059-.01363-.01113-.0273-.01563-.04102-.008-.0201-.01456-.04029-.01953-.06055-.006051-.027288-.009305-.054625-.009752-.08198v-1.398438z" fill="#ed8733"/><path d="m18.5 19c-1.380712 0-2.5.447715-2.5 1s1.119288 1 2.5 1 2.5-.447715 2.5-1-1.119288-1-2.5-1zm2.5 2.396484c-.657369.38512-1.558536.602667-2.5.603516-.940965-.000334-1.84206-.21716-2.5-.601562v18.601562c0 .552285 1.119288 1 2.5 1s2.5-.447715 2.5-1z" fill="#f8db8f"/><path d="m23.5 14c-1.932997 0-3.5.895431-3.5 2v24c0 1.104569 1.567003 2 3.5 2s3.5-.895431 3.5-2v-24c0-1.104569-1.567003-2-3.5-2zm0 1c1.380712 0 2.5.447715 2.5 1s-1.119288 1-2.5 1-2.5-.447715-2.5-1 1.119288-1 2.5-1zm-2.5 2.398438c.65794.384402 1.559035.601228 2.5.601562.940965-.000334 1.84206-.21716 2.5-.601562v21.205078 1.396484c-.000457.02739-.0037.05475-.0098.08203-.005.02026-.01148.04045-.01953.06055-.0045.01371-.0097.02739-.01563.04102-.0086.01768-.01835.03526-.0293.05273-.0083.0144-.01743.02873-.02734.04297-.01091.01443-.02263.02875-.03516.04297-.0166.02041-.03484.04061-.05469.06055-.0083.0072-.01671.01436-.02539.02148-.0257.02386-.05371.04732-.08398.07031-.0064.0046-.01293.0091-.01953.01367-.0339.0247-.07039.04881-.109376.07227-.01343.0072-.02711.01439-.04102.02148-.02935.01665-.05996.03293-.0918.04883-.02651.0133-.05386.02632-.08203.03906-.03407.01474-.06924.02907-.105469.04297-.0091.0033-.01817.0066-.02734.0098-.05124.02045-.104675.04-.160156.05859-.01037.0026-.02079.0052-.03125.0078-.05054.01644-.10266.03207-.15625.04688-.0372.0089-.07498.01732-.113281.02539-.03086.0074-.06212.01459-.09375.02148-.02646.0054-.05316.01061-.08008.01563-.05629.01128-.11362.0217-.171875.03125-.01428.002-.0286.004-.04297.0059-.06164.0095-.124187.01792-.1875.02539-.02399.0027-.04808.0053-.07227.0078-.04654.0051-.09343.0097-.140625.01367-.07373.0052-.148006.0091-.222608.01167-.08304.0036-.166474.0056-.25.0059-.08353-.000295-.166965-.0023-.25-.0059-.07462-.0026-.148914-.0065-.222656-.01172-.04719-.004-.09409-.0086-.140625-.01367-.02419-.0025-.04828-.0051-.07227-.0078-.06331-.0075-.125863-.01594-.1875-.02539-.01437-.0019-.02869-.0039-.04297-.0059-.05825-.0095-.115587-.01997-.171875-.03125-.02692-.005-.05362-.01023-.08008-.01563-.03163-.0069-.06289-.01405-.09375-.02148-.0383-.0081-.07608-.01654-.113281-.02539-.05359-.01481-.105713-.03045-.15625-.04688-.01046-.0026-.02088-.0052-.03125-.0078-.05548-.01859-.108916-.03814-.160156-.05859-.0092-.0032-.01829-.0065-.02734-.0098-.03623-.0139-.0714-.02823-.105469-.04297-.02817-.01274-.05552-.02576-.08203-.03906-.03184-.0159-.06245-.03218-.0918-.04883-.01391-.0071-.02759-.01425-.04102-.02148-.03899-.02346-.07548-.04757-.109376-.07227-.0066-.0045-.01311-.0091-.01953-.01367-.03027-.02299-.05828-.04645-.08398-.07031-.0087-.0071-.01714-.01428-.02539-.02148-.01985-.01994-.03809-.04014-.05469-.06055-.01253-.01422-.02425-.02854-.03516-.04297-.0099-.01424-.01902-.02857-.02734-.04297-.01095-.01747-.02072-.03505-.0293-.05273-.0059-.01363-.01113-.0273-.01563-.04102-.008-.0201-.01456-.04029-.01953-.06055-.006051-.027288-.009305-.054625-.009752-.08198v-1.398438z" fill="#3a3a38"/><path d="m23.5 15c-1.380712 0-2.5.447715-2.5 1s1.119288 1 2.5 1 2.5-.447715 2.5-1-1.119288-1-2.5-1zm2.5 2.396484c-.657369.38512-1.558536.602667-2.5.603516-.940965-.000334-1.84206-.21716-2.5-.601562v22.601562c0 .552285 1.119288 1 2.5 1s2.5-.447715 2.5-1z" fill="#797774"/></svg>