<svg height="52" viewBox="0 0 15.875 13.758334" width="60" xmlns="http://www.w3.org/2000/svg"><path d="m0 0h15.875v13.75833h-15.875z" fill="#fafafa" stroke-width=".264583"/><path d="m6.9721843 1.5875-5.1201009 3.5031453v.2010215 6.1489792.201021h7.4083335.1705322l.094051-.07596v-.000529l4.1465169-3.3630942h.0021l.08475-.07028v-.1943036-.0062014-6.3437988h-6.6146168zm.1715659.2645834h6.3499998v6.0854168l-6.3499998.0031v-.0031zm-.2645833.1167887v6.03219l-4.7625002 3.2587159v-6.0327069zm.1710489 6.2332114h6.2027222l-3.9139729 3.1750005h-6.9298098z" fill="#3a3a38"/><path d="m12.435417 7.0114585c0-.657564-.296145-1.1906252-.661458-1.190625l-5.0270838.0000033c-.3653134.0000002-.6614584.5330611-.6614584 1.190625 0 .657564.296145 1.1906253.6614584 1.1906251l5.0270838-.0000033c.365313-.0000002.661458-.5330611.661458-1.1906251zm-.264583 0c0 .5114387-.177687.9260417-.396875.9260417s-.396875-.414603-.396875-.9260417c0-.5114388.177687-.9260417.396875-.9260417s.396875.4146029.396875.9260417zm-.811837.9260417-4.1971602.0000033h-.4149616c-.00914-.0004762-.01828-.00167-.027389-.00362-.00708-.00111-.014145-.00266-.021188-.00465-.00536-.00164-.010697-.00353-.01602-.00568-.00762-.00293-.015203-.00637-.022738-.010335-.00624-.00327-.012441-.00689-.018603-.010853-.00888-.00566-.017669-.012036-.026355-.019121-.012473-.010279-.02472-.022008-.03669-.03514-.00505-.00595-.010049-.012152-.014986-.018603-.00277-.00337-.00553-.00681-.00827-.010335-.00365-.00418-.00726-.00848-.010853-.01292-.0003439-.0005291-.0006879-.00103-.00103-.00156-.0005291-.0008731-.00103-.00172-.00156-.00259-.010652-.01488-.020997-.030917-.031006-.048059l-.0005292-.00103c-.0003439-.0005292-.0006879-.00103-.00103-.00156-.0006879-.00153-.00138-.0031-.00206-.00465-.00909-.015991-.017886-.032888-.026355-.050643l-.00103-.00206c-.0005291-.00138-.00103-.00275-.00156-.00414-.00844-.017952-.016544-.036745-.024289-.056327-.0006879-.00172-.00138-.00344-.00206-.00517-.0006879-.00222-.00138-.00447-.00206-.00672-.00762-.0201-.014862-.040962-.021704-.062529-.0003439-.0008731-.0006879-.00172-.00103-.00259-.0005291-.00172-.00103-.00344-.00156-.00517-.0003439-.00119-.0006879-.00241-.00103-.00362-.000291-.000979-.0007408-.00161-.00103-.00259-.0003439-.00153-.0006614-.00307-.00101-.00461-.0000453-.0001511.0000453-.0003704 0-.0005292-.00525-.017166-.01025-.034747-.014986-.05271-.0006879-.00275-.00138-.0055-.00206-.00827-.00122-.00514-.00243-.010308-.00362-.015502-.00402-.01677-.00781-.03383-.011362-.051155-.00233-.011091-.00457-.022288-.00672-.03359-.00377-.020714-.00722-.041744-.010335-.063045-.0003439-.00156-.0006879-.0031-.00103-.00465-.0001798-.00225-.0003439-.00448-.0005291-.00672l-.0005292-.00362c-.0008996-.00618-.00175-.01238-.00259-.018603-.0001299-.000979.0001288-.00212 0-.0031-.00185-.01283-.00357-.025752-.00517-.038758-.00151-.013533-.00289-.027145-.00414-.040824-.00185-.020884-.00341-.041912-.00465-.063046-.0001789-.00191-.0003439-.00379-.0005291-.00568-.0001873-.00396-.0003705-.00792-.0005292-.011885-.00116-.020598-.00204-.041279-.00259-.062012-.0003175-.015145-.0004498-.030304-.0004498-.045466.0000262-.030895.0007144-.061767.00206-.092501.00273-.061559.0081-.1223238.01602-.1813843.0001746-.00156.000344-.0031.0005292-.00465.0005027-.00259.00103-.00518.00156-.00775l.0005291-.00362c.00321-.023932.00683-.04755.010851-.070797.010763-.05869.024096-.1146254.039791-.1669151.0002354-.0007938.0002911-.0018.0005292-.00259.00103-.00277.00206-.00553.0031-.00827.00586-.019848.012066-.039154.018588-.057874.017063-.047206.036105-.090313.056844-.1286743v-.0005325c.00206-.00332.00412-.00659.0062-.00982.014462-.025477.029657-.048614.045475-.069247.000926-.00124.00164-.00292.00259-.00413.00148-.0019.00316-.00382.00465-.00568.017757-.022362.036223-.041531.055234-.057338.00869-.00709.017478-.013462.026355-.019121.00616-.00397.012364-.00759.018603-.010853.00754-.00396.015118-.00741.022738-.010335.00532-.00214.010665-.00404.01602-.00568.00704-.00198.014108-.00354.021188-.00465.00911-.00194.018243-.00315.027387-.00362h.4154798l4.1961277-.0000022c-.03813.055398-.07187.1182801-.101803.1860351-.0016.00377-.0031.00756-.0046.011369-.02719.063092-.05072.1308625-.07028.202055-.0027.00958-.0052.01923-.0077.028939-.01817.070897-.03273.1448512-.04289.221175-.0009.00671-.0018.013422-.0026.020153-.01025.083499-.016.1691961-.01602.2563151.000046.086106.006.1706409.01602.2532144.0013.00968.0027.019325.0041.028939.01036.075855.02461.1497259.04289.2201418.0018.00692.0038.013811.0057.020669.01915.070182.04166.137097.06821.1994713.0034.008.0068.015925.01033.02377.02931.065336.06221.1261734.09922.179834z" fill="#3a3a38"/><path d="m12.17083 7.0114553c0-.5114388-.177687-.9260417-.396874-.9260417-.219188 0-.396875.4146029-.396875.9260417s.177687.9260417.396875.9260417c.219187 0 .396874-.4146029.396874-.9260417zm-.811836.9260417c-.155693-.2257634-.246304-.5661694-.246497-.9260417.000067-.3597164.09048-.7000949.24598-.9260417l-4.1961267.0000033h-.4154783c-.045098.0004233-.089836.018767-.1322917.05426-.019267.015893-.037674.035315-.055294.057361-.00148.00185-.00317.00378-.00465.00568-.016955.02187-.032849.046354-.048059.073381-.031459.055897-.058804.1227307-.081649.1968873-.00103.00274-.00206.0055-.0031.00827-.022058.073368-.038937.1544154-.05116.2402955-.0006879.00378-.00138.00757-.00206.011369-.012052.08859-.018547.1821598-.018605.2785366.0000563.093695.00668.184381.018087.2707847.0008467.00622.00169.012422.00259.018603.0001003.0007144-.0001011.00135 0 .00206.012152.084939.029356.1650412.05115.2377154.000344.00156.0006879.0031.00103.00465.0002911.0009789.0007408.00161.00103.00259.02299.07513.050883.1424522.082682.1989542.01506.026761.031286.050638.048059.072347.00274.00352.0055.00697.00827.010335.016596.02027.033649.038861.051679.053735.042456.035494.087193.053843.1322917.05426h.4149628z" fill="#797774"/><path d="m10.583334 8.3343752c0-.657564-.296145-1.1906253-.6614582-1.1906251l-4.7625006.0000035c-.3653134.0000002-.6614584.5330611-.6614584 1.190625 0 .657564.296145 1.1906256.6614584 1.190625l4.7625006-.0000031c.3653132-.0000006.6614582-.5330614.6614582-1.1906253zm-.264583 0c0 .5114388-.177687.9260417-.3968752.9260417-.2191877 0-.3968748-.4146029-.3968748-.9260417s.1776871-.9260417.3968748-.9260417c.2191882 0 .3968752.4146029.3968752.9260417zm-.8118369.9260417-3.9325773.0000034h-.4149616c-.00914-.0004763-.01828-.00167-.027389-.00362-.00708-.00111-.014145-.00266-.021188-.00465-.00536-.00164-.010697-.00353-.01602-.00568-.00762-.00293-.015203-.00637-.022738-.010335-.00624-.00327-.012441-.00689-.018603-.010853-.00888-.00566-.017669-.012036-.026355-.019121-.012473-.010279-.02472-.022008-.03669-.03514-.00505-.00595-.010049-.012152-.014986-.018603-.00277-.00337-.00553-.00681-.00827-.010335-.00365-.00418-.00726-.00848-.010853-.01292-.000344-.0005292-.0006879-.00103-.00103-.00156-.0005292-.0008731-.00103-.00172-.00156-.00259-.010652-.01488-.020997-.030917-.031006-.048059l-.0005292-.00103c-.000344-.0005291-.0006879-.00103-.00103-.00156-.0006879-.00153-.00138-.0031-.00206-.00465-.00909-.015992-.017886-.032888-.026355-.050643l-.00103-.00206c-.0005292-.00138-.00103-.00275-.00156-.00414-.00844-.017952-.016544-.036745-.024289-.056327-.0006879-.00172-.00138-.00344-.00206-.00517-.0006879-.00222-.00138-.00447-.00206-.00672-.00762-.0201-.014862-.040962-.021704-.062529-.000344-.0008731-.0006879-.00172-.00103-.00259-.0005292-.00172-.00103-.00344-.00156-.00517-.0003439-.00119-.0006879-.00241-.00103-.00362-.000291-.000979-.0007408-.00161-.00103-.00259-.000344-.00153-.0006615-.00307-.00101-.00461-.0000453-.000151.0000453-.0003704 0-.0005291-.00525-.017166-.01025-.034747-.014986-.05271-.0006879-.00275-.00138-.0055-.00206-.00827-.00122-.00514-.00243-.010308-.00362-.015502-.00402-.016767-.00781-.033827-.011358-.051152-.00233-.011091-.00457-.022289-.00672-.03359-.00377-.020714-.00722-.041744-.010335-.063045-.000344-.00156-.0006879-.0031-.00103-.00465-.0001798-.00225-.0003439-.00448-.0005292-.00672l-.0005291-.00362c-.0008996-.00618-.00175-.01238-.00259-.018603-.0001299-.000979.0001288-.00212 0-.0031-.00185-.01283-.00357-.025752-.00517-.038758-.00151-.013534-.00289-.027145-.00414-.040824-.00185-.020884-.00341-.041912-.00465-.063046-.0001789-.0019-.000344-.00379-.0005292-.00568-.0001873-.00396-.0003704-.00792-.0005292-.011885-.00116-.020598-.00204-.041279-.00259-.062012-.0003175-.015145-.0004497-.030304-.0004497-.045466.0000261-.030895.0007143-.061767.00206-.092501.00273-.061559.0081-.1223237.01602-.1813843.0001746-.00156.0003439-.0031.0005291-.00465.0005027-.00259.00103-.00518.00156-.00775l.0005292-.00362c.00321-.023932.00683-.04755.010851-.070797.010763-.05869.024096-.1146252.039791-.166915.0002354-.0007938.000291-.0018.0005292-.00259.00103-.00277.00206-.00553.0031-.00827.00586-.019849.012066-.039154.018588-.057874.017063-.047206.036105-.090313.056844-.1286743v-.0005292c.00206-.00332.00412-.00659.0062-.00982.014462-.025477.029657-.048614.045475-.069247.000926-.00124.00164-.00292.00259-.00413.00148-.0019.00316-.00382.00465-.00568.017757-.022363.036223-.041531.055234-.057338.00869-.00709.017478-.013462.026355-.019122.00616-.00397.012364-.00759.018603-.010853.00754-.00396.015118-.00741.022738-.010335.00532-.00214.010665-.00404.01602-.00568.00704-.00198.014108-.00354.021188-.00465.00911-.00193.018243-.00315.027387-.00362h.4154763l3.9315448-.0000021c-.03813.055398-.07187.1182799-.1018029.1860349-.00159.00377-.0031.00756-.0046.011369-.02719.063092-.05072.1308623-.07028.2020548-.0027.00958-.0052.01923-.0077.028939-.018169.070897-.03273.1448512-.04289.221175-.0008995.00671-.0018.013422-.00259.020153-.01025.083499-.015999.169196-.01602.2563151.000046.086106.006.1706409.01602.2532142.0013.00968.0027.019325.0041.028939.010361.075855.024609.1497259.04289.2201418.0018.00692.0038.013811.0057.020669.019151.070182.04166.137097.06821.1994715.0034.008.0068.015925.010329.02377.02931.065336.06221.1261735.09922.1798339z" fill="#ed8733"/><path d="m10.318747 8.334372c0-.5114388-.177687-.9260417-.3968744-.9260417s-.3968745.4146029-.3968745.9260417.1776871.9260417.3968745.9260417.3968744-.4146029.3968744-.9260417zm-.811836.9260417c-.1556931-.2257634-.2463038-.5661695-.246497-.9260417.0000669-.3597164.09048-.7000949.24598-.9260417l-3.9315437.0000034h-.4154783c-.045098.0004234-.089836.018767-.1322917.05426-.019267.015894-.037674.035315-.055294.057361-.00148.00185-.00317.00378-.00465.00568-.016955.021871-.032849.046354-.048059.073381-.031459.055897-.058804.1227307-.081649.1968873-.00103.00274-.00206.0055-.0031.00827-.022058.073368-.038937.1544156-.05116.2402956-.0006879.00378-.00138.00757-.00206.011369-.012052.08859-.018547.1821598-.018605.2785366.0000563.093695.00668.184381.018087.2707847.0008466.00622.00169.012422.00259.018603.0001003.0007144-.0001011.00135 0 .00206.012152.084939.029356.1650412.05115.2377154.0003439.00156.0006879.0031.00103.00465.000291.0009789.0007408.00161.00103.00259.02299.07513.050883.1424522.082682.1989542.01506.026761.031286.050638.048059.072347.00274.00352.0055.00697.00827.010335.016596.02027.033649.038861.051679.053735.042456.035494.087193.053843.1322917.05426h.414964z" fill="#f8db8f"/><path d="m7.6729174 9.6572919c0-.657564-.296145-1.1906253-.6614584-1.190625l-3.7041672.0000034c-.3653134.0000003-.6614584.5330611-.6614584 1.190625 0 .6575637.296145 1.1906257.6614584 1.1906257l3.7041672-.000004c.3653134 0 .6614584-.533061.6614584-1.1906251zm-.2645831 0c0 .5114391-.177687.9260421-.3968753.9260421-.2191877 0-.3968747-.414603-.3968747-.9260421 0-.5114388.177687-.9260417.3968747-.9260417.2191883 0 .3968753.4146029.3968753.9260417zm-.8118372.9260421-2.8742437.000003h-.4149616c-.00914-.000476-.01828-.0017-.027389-.0036-.00708-.0011-.014145-.0027-.021188-.0046-.00536-.0016-.010697-.0035-.01602-.0057-.00762-.0029-.015203-.0064-.022738-.01033-.00624-.0033-.012441-.0069-.018603-.01085-.00888-.0057-.017669-.01204-.026355-.01912-.012473-.01028-.02472-.02201-.03669-.03514-.00505-.0059-.010049-.01215-.014986-.0186-.00277-.0034-.00553-.0068-.00827-.01033-.00365-.0042-.00726-.0085-.010853-.01292-.000344-.000529-.0006879-.001-.00103-.0016-.0005292-.000873-.00103-.0017-.00156-.0026-.010652-.01488-.020997-.03092-.031006-.04806l-.0005292-.001c-.0003439-.000529-.0006879-.001-.00103-.0016-.0006879-.0015-.00138-.0031-.00206-.0046-.00909-.01599-.017886-.03289-.026355-.05064l-.00103-.0021c-.0005291-.0014-.00103-.0027-.00156-.0041-.00844-.01795-.016544-.03674-.024289-.05633-.0006879-.0017-.00138-.0034-.00206-.0052-.0006879-.0022-.00138-.0045-.00206-.0067-.00762-.0201-.014862-.04096-.021704-.06253-.0003439-.000873-.0006879-.0017-.00103-.0026-.0005291-.0017-.00103-.0034-.00156-.0052-.0003439-.0012-.0006879-.0024-.00103-.0036-.000291-.000979-.0007408-.0016-.00103-.0026-.0003439-.0015-.0006614-.0031-.00101-.0046-.0000453-.000151.0000453-.000371 0-.000529-.00525-.01717-.01025-.03475-.014986-.05271-.0006879-.0027-.00138-.0055-.00206-.0083-.00122-.0051-.00243-.01031-.00362-.0155-.00402-.01677-.00781-.03383-.011356-.05115-.00233-.01109-.00457-.02229-.00672-.03359-.00377-.02071-.00722-.041743-.010335-.063045-.000344-.00156-.0006879-.0031-.00103-.00465-.0001798-.00225-.000344-.00448-.0005292-.00672l-.0005291-.00362c-.0008996-.00618-.00175-.01238-.00259-.018603-.0001299-.0009789.0001288-.00212 0-.0031-.00185-.01283-.00357-.025752-.00517-.038758-.00151-.013533-.00289-.027145-.00414-.040824-.00185-.020884-.00341-.041912-.00465-.063046-.0001789-.00191-.000344-.00379-.0005292-.00568-.0001873-.00396-.0003704-.00792-.0005292-.011885-.00116-.020598-.00204-.041279-.00259-.062012-.0003175-.015145-.0004498-.030304-.0004498-.045466.0000262-.030895.0007144-.061767.00206-.092501.00273-.061559.0081-.1223238.01602-.1813843.0001746-.00156.000344-.0031.0005292-.00465.0005027-.00259.00103-.00518.00156-.00775l.0005292-.00362c.00321-.023932.00683-.04755.010851-.070797.010763-.05869.024096-.1146254.039791-.1669151.0002354-.0007937.000291-.0018.0005291-.00259.00103-.00277.00206-.00553.0031-.00827.00586-.019848.012066-.039154.018588-.057874.017063-.047206.036105-.090313.056844-.1286744v-.0005318c.00206-.00332.00412-.00659.0062-.00982.014462-.025477.029657-.048614.045475-.069247.0009261-.00124.00164-.00292.00259-.00413.00148-.0019.00316-.00382.00465-.00568.017757-.022362.036223-.041531.055234-.057338.00869-.00709.017478-.013462.026355-.019121.00616-.00397.012364-.00759.018603-.010853.00754-.00396.015118-.00741.022738-.010335.00532-.00214.010665-.00404.01602-.00568.00704-.00198.014108-.00354.021188-.00465.00911-.00194.018243-.00315.027387-.00362h.4154767l2.8732116-.0000023c-.03813.055398-.07187.1182801-.101803.1860351-.00159.00377-.0031.00756-.0046.011369-.02719.063092-.05072.1308625-.07028.2020551-.0027.00958-.0052.01923-.0077.028939-.018169.070897-.03273.1448512-.04289.221175-.0008996.00671-.0018.013422-.00259.020153-.01025.083499-.015999.1691961-.016021.2563151.000046.086106.006.170641.016021.2532145.0013.00968.0027.019325.0041.028939.010361.075855.024609.149726.04289.220142.0018.0069.0038.01381.0057.02067.01915.07018.04166.137097.06821.199471.0034.008.0068.01593.010329.02377.02931.06534.06221.126173.09922.179834z" fill="#0063b1"/><path d="m7.4083303 9.6572887c0-.5114388-.177687-.9260417-.3968744-.9260417-.2191878 0-.3968748.4146029-.3968748.9260417 0 .5114393.177687.9260423.3968748.9260423.2191874 0 .3968744-.414603.3968744-.9260423zm-.8118361.9260423c-.155693-.225764-.2463041-.56617-.246497-.9260423.000067-.3597164.09048-.7000949.24598-.9260417l-2.8732103.0000034h-.4154783c-.045098.0004233-.089836.018767-.1322917.05426-.019267.015893-.037674.035315-.055294.057361-.00148.00185-.00317.00378-.00465.00568-.016955.02187-.032849.046354-.048059.073381-.031459.055897-.058804.1227307-.081649.1968873-.00103.00274-.00206.0055-.0031.00827-.022058.073368-.038937.1544154-.05116.2402955-.0006879.00378-.00138.00757-.00206.011369-.012052.08859-.018547.1821597-.018605.2785365.0000563.093695.00668.1843811.018087.2707847.0008467.00622.00169.012422.00259.018603.0001003.0007144-.0001011.00135 0 .00206.012152.08494.029356.1650417.05115.2377157.000344.0016.0006879.0031.00103.0046.000291.000979.0007408.0016.00103.0026.02299.07513.050883.142452.082682.198954.01506.02676.031286.05064.048059.07235.00274.0035.0055.007.00827.01033.016596.02027.033649.03886.051679.05373.042456.03549.087193.05384.1322917.05426h.4149671z" fill="#83beec"/><path d="m13.229167 4.1010417c0-.657564-.296145-1.1906252-.661458-1.190625l-5.8208338.0000032c-.3653134.0000002-.6614584.5330611-.6614584 1.190625 0 .657564.296145 1.1906253.6614584 1.1906251l5.8208338-.0000032c.365313-.0000002.661458-.5330611.661458-1.1906251zm-.264583 0c0 .5114387-.177687.9260417-.396875.9260417s-.396875-.414603-.396875-.9260417c0-.5114388.177687-.9260417.396875-.9260417s.396875.4146029.396875.9260417zm-.811837.9260417-4.9909102.0000032h-.4149616c-.00914-.0004762-.01828-.00167-.027389-.00362-.00708-.00111-.014145-.00266-.021188-.00465-.00536-.00164-.010697-.00353-.01602-.00568-.00762-.00293-.015203-.00637-.022738-.010335-.00624-.00327-.012441-.00689-.018603-.010853-.00888-.00566-.017669-.012036-.026355-.019121-.012473-.010279-.02472-.022008-.03669-.03514-.00505-.00595-.010049-.012152-.014986-.018603-.00277-.00337-.00553-.00681-.00827-.010335-.00365-.00418-.00726-.00848-.010853-.01292-.000344-.0005291-.000688-.00103-.00103-.00156-.0005291-.0008731-.00103-.00172-.00156-.00259-.010652-.014879-.020997-.030916-.031006-.048058l-.0005292-.00103c-.0003439-.0005292-.0006879-.00103-.00103-.00156-.0006879-.00153-.00138-.0031-.00206-.00465-.00909-.015991-.017886-.032888-.026355-.050643l-.00103-.00206c-.0005292-.00138-.00103-.00275-.00156-.00414-.00844-.017952-.016544-.036745-.024289-.056327-.0006879-.00172-.00138-.00344-.00206-.00517-.0006879-.00222-.00138-.00447-.00206-.00672-.00762-.0201-.014862-.040962-.021704-.062529-.000344-.0008731-.000688-.00172-.00103-.00259-.0005291-.00172-.00103-.00344-.00156-.00517-.000344-.00119-.0006879-.00241-.00103-.00362-.0002911-.000979-.0007409-.00161-.00103-.00259-.0003439-.00153-.0006614-.00307-.00101-.00461-.0000453-.0001511.0000452-.0003704 0-.0005292-.00525-.017166-.01025-.034747-.014986-.05271-.0006879-.00275-.00138-.0055-.00206-.00827-.00122-.00514-.00243-.010308-.00362-.015502-.00402-.016772-.00781-.033832-.011363-.051157-.00233-.011091-.00457-.022288-.00672-.03359-.00377-.020714-.00722-.041744-.010335-.063045-.0003439-.00156-.0006879-.0031-.00103-.00465-.0001798-.00225-.000344-.00448-.0005292-.00672l-.0005291-.00362c-.0008996-.00618-.00175-.01238-.00259-.018603-.0001299-.000979.0001288-.00212 0-.0031-.00185-.01283-.00357-.025752-.00517-.038758-.00151-.013533-.00289-.027145-.00414-.040824-.00185-.020884-.00341-.041912-.00465-.063046-.0001789-.00191-.0003439-.00379-.0005291-.00568-.0001873-.00396-.0003704-.00792-.0005292-.011885-.00116-.020598-.00204-.041279-.00259-.062012-.0003175-.015145-.0004498-.030304-.0004498-.045466.0000262-.030895.0007144-.061767.00206-.092501.00273-.061559.0081-.1223238.01602-.1813843.0001746-.00156.000344-.0031.0005292-.00465.0005027-.00259.00103-.00518.00156-.00775l.0005291-.00362c.00321-.023932.00683-.04755.010853-.070797.010763-.05869.024096-.1146254.039791-.1669151.0002354-.0007938.000291-.0018.0005291-.00259.00103-.00277.00206-.00553.0031-.00827.00586-.019848.012066-.039154.018588-.057874.017063-.047206.036105-.090313.056844-.1286743v-.0005292c.00206-.00332.00412-.00659.0062-.00982.014462-.025477.029657-.048614.045475-.069247.000926-.00124.00164-.00292.00259-.00413.00148-.0019.00316-.00382.00465-.00568.017757-.022362.036223-.041531.055234-.057338.00869-.00709.017478-.013462.026355-.019121.00616-.00397.012364-.00759.018603-.010853.00754-.00396.015118-.00741.022738-.010335.00532-.00214.010665-.00404.01602-.00568.00704-.00198.014108-.00354.021188-.00465.00911-.00194.018243-.00315.027387-.00362h.4154822l4.9898778-.000003c-.03813.055399-.07187.1182807-.101806.1860357-.0016.00377-.0031.00756-.0046.011369-.02719.063092-.05072.1308624-.07028.2020549-.0027.00958-.0052.01923-.0077.028939-.01817.070897-.03273.1448512-.04289.221175-.0009.00671-.0018.013422-.0026.020153-.01025.083499-.016.1691961-.01602.2563151.000046.086106.006.1706409.01602.2532144.0013.00968.0027.019325.0041.028939.01036.075855.02461.1497259.04289.2201418.0018.00692.0038.013811.0057.020669.01915.070182.04166.137097.06821.1994713.0034.008.0068.015925.01033.02377.02931.065336.06221.1261734.09922.179834z" fill="#3a3a38"/><path d="m12.96458 4.1010385c0-.5114388-.177687-.9260417-.396874-.9260417-.219188 0-.396875.4146029-.396875.9260417s.177687.9260417.396875.9260417c.219187 0 .396874-.4146029.396874-.9260417zm-.811836.9260417c-.155693-.2257634-.246304-.5661694-.246497-.9260417.000067-.3597164.09048-.7000949.24598-.9260417l-4.9898766.0000032h-.4154784c-.045098.0004234-.089836.018767-.1322917.05426-.019267.015893-.037674.035315-.055294.057361-.00148.00185-.00317.00378-.00465.00568-.016955.02187-.032849.046354-.048059.073381-.031459.055897-.058804.1227307-.081649.1968873-.00103.00274-.00206.0055-.0031.00827-.022058.073368-.038937.1544154-.05116.2402955-.0006879.00378-.00138.00757-.00206.011369-.012052.08859-.018547.1821598-.018605.2785366.0000563.093695.00668.1843811.018087.2707847.0008466.00622.00169.012422.00259.018603.0001003.0007143-.0001011.00135 0 .00206.012152.084939.029356.1650412.05115.2377154.000344.00156.000688.0031.00103.00465.000291.000979.0007408.00161.00103.00259.02299.07513.050883.1424522.082682.1989542.01506.026761.031286.050638.048059.072347.00274.00352.0055.00697.00827.010335.016596.02027.033649.038861.051679.053735.042456.035494.087193.053843.1322917.05426h.4149598z" fill="#797774"/><path d="m9.5250008 5.4239584c0-.657564-.296145-1.1906253-.6614584-1.190625l-3.7041672.0000034c-.3653134.0000003-.6614584.5330611-.6614584 1.190625 0 .657564.296145 1.1906254.6614584 1.1906251l3.7041672-.0000034c.3653134-.0000003.6614584-.5330611.6614584-1.1906251zm-.2645831 0c0 .5114388-.177687.9260417-.3968753.9260417-.2191877 0-.3968747-.4146029-.3968747-.9260417s.177687-.9260417.3968747-.9260417c.2191883 0 .3968753.4146029.3968753.9260417zm-.8118372.9260417-2.8742437.0000035h-.4149616c-.00914-.0004763-.01828-.00167-.027389-.00362-.00708-.00111-.014145-.00266-.021188-.00465-.00536-.00164-.010697-.00353-.01602-.00568-.00762-.00293-.015203-.00637-.022738-.010335-.00624-.00327-.012441-.00689-.018603-.010853-.00888-.00566-.017669-.012036-.026355-.019121-.012473-.010279-.02472-.022008-.03669-.03514-.00505-.00595-.010049-.012152-.014986-.018603-.00277-.00337-.00553-.00681-.00827-.010335-.00365-.00418-.00726-.00848-.010853-.01292-.000344-.0005292-.0006879-.00103-.00103-.00156-.0005292-.0008731-.00103-.00172-.00156-.00259-.010652-.01488-.020997-.030917-.031006-.048059l-.0005292-.00103c-.000344-.0005292-.0006879-.00103-.00103-.00156-.0006879-.00153-.00138-.0031-.00206-.00465-.00909-.015991-.017886-.032888-.026355-.050643l-.00103-.00206c-.0005292-.00138-.00103-.00275-.00156-.00414-.00844-.017952-.016544-.036745-.024289-.056327-.0006879-.00172-.00138-.00344-.00206-.00517-.0006879-.00222-.00138-.00447-.00206-.00672-.00762-.0201-.014862-.040962-.021704-.062529-.000344-.0008731-.0006879-.00172-.00103-.00259-.0005292-.00172-.00103-.00344-.00156-.00517-.0003439-.00119-.0006879-.00241-.00103-.00362-.000291-.0009789-.0007408-.00161-.00103-.00259-.000344-.00153-.0006615-.00307-.00101-.00461-.0000453-.0001511.0000453-.0003704 0-.0005292-.00525-.017166-.01025-.034747-.014986-.05271-.0006879-.00275-.00138-.0055-.00206-.00827-.00122-.00514-.00243-.010308-.00362-.015502-.00402-.016767-.00781-.033827-.011358-.051152-.00233-.011091-.00457-.022288-.00672-.03359-.00377-.020714-.00722-.041744-.010335-.063045-.000344-.00156-.0006879-.0031-.00103-.00465-.0001798-.00225-.0003439-.00448-.0005292-.00672l-.0005291-.00362c-.0008996-.00618-.00175-.01238-.00259-.018603-.0001299-.0009789.0001288-.00212 0-.0031-.00185-.01283-.00357-.025752-.00517-.038758-.00151-.013533-.00289-.027145-.00414-.040824-.00185-.020884-.00341-.041912-.00465-.063046-.0001789-.00191-.000344-.00379-.0005292-.00568-.0001873-.00396-.0003704-.00792-.0005292-.011885-.00116-.020598-.00204-.041279-.00259-.062012-.0003175-.015145-.0004497-.030304-.0004497-.045466.0000261-.030895.0007143-.061767.00206-.092501.00273-.061559.0081-.1223238.01602-.1813843.0001746-.00156.0003439-.0031.0005291-.00465.0005027-.00259.00103-.00518.00156-.00775l.0005292-.00362c.00321-.023932.00683-.04755.010851-.070797.010763-.05869.024096-.1146254.039791-.1669151.0002354-.0007938.000291-.0018.0005292-.00259.00103-.00277.00206-.00553.0031-.00827.00586-.019848.012066-.039154.018588-.057874.017063-.047206.036105-.090313.056844-.1286744v-.0005318c.00206-.00332.00412-.00659.0062-.00982.014462-.025477.029657-.048614.045475-.069247.000926-.00124.00164-.00292.00259-.00413.00148-.0019.00316-.00382.00465-.00568.017757-.022362.036223-.041531.055234-.057338.00869-.00709.017478-.013462.026355-.019121.00616-.00397.012364-.00759.018603-.010853.00754-.00396.015118-.00741.022738-.010335.00532-.00214.010665-.00404.01602-.00568.00704-.00198.014108-.00354.021188-.00465.00911-.00194.018243-.00315.027387-.00362h.415475l2.8732116-.0000023c-.03813.055398-.07187.1182801-.1018029.1860351-.00159.00377-.0031.00756-.0046.011369-.02719.063092-.05072.1308625-.07028.2020551-.0027.00958-.0052.01923-.0077.028939-.018169.070897-.03273.1448512-.04289.221175-.0008996.00671-.0018.013422-.00259.020153-.01025.083499-.015999.169196-.016021.256315.0000461.086106.006.170641.016021.2532145.0013.00968.0027.019325.0041.028939.010361.075855.024609.1497262.04289.2201418.0018.00692.0038.013811.0057.020669.019151.070182.04166.137097.06821.1994715.0034.008.0068.015925.010329.02377.02931.065336.06221.1261735.09922.1798342z" fill="#ed8733"/><path d="m9.2604137 5.4239552c0-.5114388-.177687-.9260417-.3968744-.9260417-.2191878 0-.3968748.4146029-.3968748.9260417 0 .5114389.177687.9260417.3968748.9260417.2191874 0 .3968744-.4146028.3968744-.9260417zm-.8118361.9260417c-.155693-.2257634-.2463041-.5661694-.246497-.9260417.000067-.3597164.09048-.7000949.24598-.9260417l-2.8732103.0000034h-.4154783c-.045098.0004234-.089836.018767-.1322917.05426-.019267.015893-.037674.035315-.055294.057361-.00148.00185-.00317.00378-.00465.00568-.016955.02187-.032849.046354-.048059.073381-.031459.055897-.058804.1227307-.081649.1968873-.00103.00274-.00206.0055-.0031.00827-.022058.073368-.038937.1544154-.05116.2402955-.0006879.00378-.00138.00757-.00206.011369-.012052.08859-.018547.1821597-.018605.2785364.0000563.093695.00668.1843812.018087.2707848.0008466.00622.00169.012422.00259.018603.0001003.0007143-.0001011.00135 0 .00206.012152.084939.029356.165041.05115.2377154.0003439.00156.0006879.0031.00103.00465.000291.000979.0007408.00161.00103.00259.02299.07513.050883.1424522.082682.1989543.01506.026761.031286.050638.048059.072347.00274.00352.0055.00697.00827.010335.016596.02027.033649.038861.051679.053735.042456.035494.087193.053843.1322917.05426h.414964z" fill="#f8db8f"/><path d="m6.3500002 6.7468751c0-.657564-.296145-1.1906255-.6614584-1.190625l-2.38125.0000033c-.3653134.0000005-.6614584.5330612-.6614584 1.190625 0 .6575637.296145 1.190626.6614584 1.1906254l2.38125-.0000039c.3653134-.0000006.6614584-.5330607.6614584-1.1906248zm-.2645831 0c0 .5114391-.177687.9260418-.3968753.9260418-.2191877 0-.3968747-.4146027-.3968747-.9260418 0-.5114388.177687-.9260417.3968747-.9260417.2191883 0 .3968753.4146029.3968753.9260417zm-.8118372.9260418-1.5513265.0000029h-.4149616c-.00914-.0004762-.01828-.0017-.027389-.0036-.00708-.0011-.014145-.0027-.021188-.0046-.00536-.0016-.010697-.0035-.01602-.0057-.00762-.0029-.015203-.0064-.022738-.01033-.00624-.0033-.012441-.0069-.018603-.01085-.00888-.0057-.017669-.01204-.026355-.01912-.012473-.01028-.02472-.02201-.03669-.03514-.00505-.0059-.010049-.01215-.014986-.0186-.00277-.0034-.00553-.0068-.00827-.01033-.00365-.0042-.00726-.0085-.010853-.01292-.000344-.0005292-.0006879-.001-.00103-.0016-.0005292-.0008731-.00103-.0017-.00156-.0026-.010652-.01488-.020997-.03092-.031006-.04806l-.0005292-.001c-.0003439-.0005291-.0006879-.001-.00103-.0016-.0006879-.0015-.00138-.0031-.00206-.0046-.00909-.01599-.017886-.03289-.026355-.05064l-.00103-.0021c-.0005291-.0014-.00103-.0027-.00156-.0041-.00844-.01795-.016544-.03674-.024289-.05633-.0006879-.0017-.00138-.0034-.00206-.0052-.0006879-.0022-.00138-.0045-.00206-.0067-.00762-.0201-.014862-.04096-.021704-.06253-.0003439-.0008731-.0006879-.0017-.00103-.0026-.0005291-.0017-.00103-.0034-.00156-.0052-.0003439-.0012-.0006879-.0024-.00103-.0036-.000291-.0009789-.0007408-.0016-.00103-.0026-.0003439-.0015-.0006614-.0031-.00101-.0046-.0000453-.000151.0000453-.0003704 0-.0005291-.00525-.01717-.01025-.03475-.014986-.05271-.0006879-.0027-.00138-.0055-.00206-.0083-.00122-.0051-.00243-.01031-.00362-.0155-.00402-.016765-.00781-.033825-.011352-.051145-.00233-.01109-.00457-.02229-.00672-.03359-.00377-.02071-.00722-.041743-.010335-.063045-.0003439-.00156-.0006879-.0031-.00103-.00465-.0001798-.00225-.0003439-.00448-.0005291-.00672l-.0005292-.00362c-.0008996-.00618-.00175-.01238-.00259-.018603-.0001299-.0009789.0001288-.00212 0-.0031-.00185-.01283-.00357-.025752-.00517-.038758-.00151-.013533-.00289-.027145-.00414-.040824-.00185-.020884-.00341-.041912-.00465-.063046-.0001789-.00191-.000344-.00379-.0005292-.00568-.0001873-.00396-.0003704-.00792-.0005291-.011885-.00116-.020598-.00204-.041279-.00259-.062012-.0003175-.015145-.0004498-.030304-.0004498-.045466.0000262-.030895.0007143-.061767.00206-.092501.00273-.061559.0081-.1223238.01602-.1813843.0001746-.00156.0003439-.0031.0005291-.00465.0005028-.00259.00103-.00518.00156-.00775l.0005292-.00362c.00321-.023932.00683-.04755.010851-.070797.010763-.05869.024096-.1146254.039791-.1669151.0002354-.0007937.0002911-.0018.0005292-.00259.00103-.00277.00206-.00553.0031-.00827.00586-.019848.012066-.039154.018588-.057874.017063-.047206.036105-.090313.056844-.1286744v-.0005318c.00206-.00332.00412-.00659.0062-.00982.014462-.025477.029657-.048614.045475-.069247.000926-.00124.00164-.00292.00259-.00413.00148-.0019.00316-.00382.00465-.00568.017757-.022362.036223-.041531.055234-.057338.00869-.00709.017478-.013462.026355-.019121.00616-.00397.012364-.00759.018603-.010853.00754-.00396.015118-.00741.022738-.010335.00532-.00214.010665-.00404.01602-.00568.00704-.00198.014108-.00354.021188-.00465.00911-.00194.018243-.00315.027387-.00362h.4154748l1.5502944-.0000022c-.038133.055393-.071873.1182749-.1018061.1860299-.00159.00377-.0031.00756-.0046.011369-.02719.063092-.05072.1308625-.07028.2020551-.0027.00958-.0052.01923-.0077.028939-.018169.070897-.03273.1448512-.04289.221175-.0008995.00671-.0018.013422-.00259.020153-.01025.083499-.015999.1691962-.016021.2563152.000046.086106.006.170641.016021.2532144.0013.00968.0027.019325.0041.028939.010361.075855.024609.1497261.04289.2201421.0018.0069.0038.01381.0057.02067.01915.07018.04166.137097.06821.199471.0034.008.0068.01593.010329.02377.02931.06534.06221.1261729.09922.1798339z" fill="#0063b1"/><path d="m6.0854131 6.7468719c0-.5114388-.177687-.9260417-.3968745-.9260417-.2191877 0-.3968747.4146029-.3968747.9260417 0 .5114393.177687.926042.3968747.926042.2191875 0 .3968745-.4146027.3968745-.926042zm-.8118361.926042c-.155693-.2257637-.2463041-.5661697-.246497-.926042.000067-.3597164.09048-.7000949.24598-.9260417l-1.5502931.0000033h-.4154783c-.045098.0004234-.089836.018767-.1322917.05426-.019267.015893-.037674.035315-.055294.057361-.00148.00185-.00317.00378-.00465.00568-.016955.02187-.032849.046354-.048059.073381-.031459.055897-.058804.1227307-.081649.1968873-.00103.00274-.00206.0055-.0031.00827-.022058.073368-.038937.1544154-.05116.2402955-.0006879.00378-.00138.00757-.00206.011369-.012052.08859-.018547.1821596-.018605.2785364.0000563.093695.00668.1843812.018087.2707847.0008467.00622.00169.012422.00259.018603.0001003.0007144-.0001011.00135 0 .00206.012152.08494.029356.1650417.05115.2377156.000344.0016.0006879.0031.00103.0046.000291.000979.0007408.0016.00103.0026.02299.07513.050883.1424521.082682.1989541.01506.02676.031286.05064.048059.07235.00274.0035.0055.007.00827.01033.016596.02027.033649.03886.051679.05373.042456.03549.087193.05384.1322917.05426h.4149677z" fill="#83beec"/></svg>