<svg height="52" viewBox="0 0 60 52" width="60" xmlns="http://www.w3.org/2000/svg"><path d="m0 0h60v52h-60z" fill="#fafafa"/><path d="m26.351562 6-19.351562 13.240234v.759766 23.240234.759766h28 .644531l.355469-.287109v-.002l15.671875-12.710891h.0078l.320325-.265625v-.734375-.023438-23.976562h-25zm.648438 1h24v23l-24 .01172v-.01172zm-1 .4414062v22.7988278l-18 12.316407v-22.800782zm.646484 23.5585938h23.44336l-14.792969 12h-26.1914062z" fill="#3a3a38"/><path d="m29.5 14c-2.485281 0-4.5 1.119288-4.5 2.5v15c0 1.380712 2.014719 2.5 4.5 2.5s4.5-1.119288 4.5-2.5v-15c0-1.380712-2.014719-2.5-4.5-2.5zm0 1c1.932997 0 3.5.671573 3.5 1.5s-1.567003 1.5-3.5 1.5-3.5-.671573-3.5-1.5 1.567003-1.5 3.5-1.5zm3.5 3.068359v11.863282 1.568359c-.0018.03456-.0063.06909-.01367.103516-.0042.02676-.01005.05346-.01758.08008-.0062.02024-.01336.04043-.02148.06055-.01107.0288-.02409.05746-.03906.08594-.01235.02358-.02603.04702-.04102.07031-.02139.03355-.04549.06678-.07227.09961-.03885.04714-.08318.09343-.132813.138672-.02249.01909-.04593.03798-.07031.05664-.01273.01048-.02575.0209-.03906.03125-.01579.01378-.03206.02745-.04883.04102-.002.0013-.0039.0026-.0059.0039-.0033.002-.0065.0039-.0098.0059-.05624.04026-.11685.07936-.18164.117187l-.0039.002c-.002.0013-.0039.0026-.0059.0039-.0058.0026-.0117.0052-.01758.0078-.06044.03436-.1243.0676-.191406.09961l-.0078.0039c-.0052.002-.01041.0039-.01563.0059-.06785.0319-.138879.06253-.212891.0918-.0065.0026-.013.0052-.01953.0078-.0084.0026-.0169.0052-.02539.0078-.07597.0288-.154817.05617-.236329.08203-.0033.0013-.0065.0026-.0098.0039-.0065.002-.013.0039-.01953.0059-.0045.0013-.0091.0026-.01367.0039-.0037.0011-.0061.0028-.0098.0039-.0058.0013-.0116.0025-.01741.0038-.000571.000171-.0014-.000171-.002 0-.06488.01985-.131327.03874-.199219.05664-.01039.0026-.0208.0052-.03125.0078-.01943.0046-.03896.0092-.05859.01367-.0634.01518-.127881.02951-.193359.04297-.04192.0088-.08424.01729-.126953.02539-.07829.01426-.157773.02728-.238281.03906-.0059.0013-.01171.0026-.01758.0039-.0085.00068-.01692.0013-.02539.002l-.01367.002c-.02336.0034-.04679.0066-.07031.0098-.0037.000491-.008-.000487-.01172 0-.04849.007-.09733.01348-.146485.01953-.05115.0057-.102595.01092-.154296.01563-.07893.007-.158406.0129-.238282.01758-.0072.000676-.01431.0013-.02148.002-.01496.000708-.02994.0014-.04492.002-.07785.0044-.156016.0077-.234375.0098-.05724.0012-.114536.0017-.17184.0017-.116767-.000099-.233449-.0027-.349609-.0078-.232663-.01031-.462326-.0306-.685547-.06055-.0059-.00066-.01172-.0013-.01758-.002-.0098-.0019-.01956-.0039-.0293-.0059l-.01367-.002c-.09045-.01212-.179718-.0258-.267578-.04102-.22182-.04068-.43323-.09107-.63086-.15039-.003-.00089-.0068-.0011-.0098-.002-.01047-.0039-.02089-.0078-.03125-.01172-.07503-.02221-.147998-.04566-.21875-.07031-.178418-.06449-.341339-.136458-.486328-.214843h-.002c-.01254-.0078-.02491-.01558-.03711-.02344-.09629-.05466-.183738-.11209-.261719-.171875-.0047-.0035-.01103-.0062-.01563-.0098-.0072-.0056-.01444-.01195-.02148-.01758-.084519-.067113-.156966-.136906-.216712-.208757-.02678-.03283-.05088-.06606-.07227-.09961-.01499-.02329-.02867-.04673-.04102-.07031-.01497-.02848-.02799-.05714-.03906-.08594-.0081-.02012-.01528-.04031-.02148-.06055-.0075-.02662-.01339-.05332-.01758-.08008-.007338-.034426-.011896-.068949-.013668-.10351v-1.570312-11.859376c.20938.144099.447043.271651.703125.384766.01426.0059.02858.01177.04297.01758.238458.102765.494598.191696.763672.265625.03622.01004.07268.01981.109375.0293.267956.06867.547469.123716.835937.16211.02534.0034.05073.0067.07617.0098.315588.03876.639482.06049.96875.06055.325441-.000174.644942-.02256.957031-.06055.03657-.005.07304-.01017.109375-.01563.286694-.03915.565893-.09301.832032-.162109.02616-.007.0522-.01418.07812-.02148.265256-.07239.518162-.157437.753907-.257812.03024-.01281.06019-.02583.08984-.03906.24694-.110786.476876-.235134.679688-.375z" fill="#3a3a38"/><path d="m29.5 15c-1.932997 0-3.5.671573-3.5 1.5s1.567003 1.5 3.5 1.5 3.5-.671573 3.5-1.5-1.567003-1.5-3.5-1.5zm3.5 3.068359c-.853279.588447-2.139853.930912-3.5.931641-1.359558-.000253-2.646028-.341971-3.5-.929688v11.859376 1.570312c.0016.17045.07093.339538.205078.5.06007.07282.133474.14239.216797.208984.007.0056.01428.01199.02148.01758.08266.06408.175197.124152.277344.181641.211266.118901.463864.222253.744141.308594.01036.0039.02078.0078.03125.01172.277296.08337.583617.147163.908203.193359.01428.0026.02861.0052.04297.0078.33483.04555.688478.0701 1.052737.07032.354122-.000213.696873-.02523 1.023438-.06836.02352-.0032.04695-.0064.07031-.0098.0027-.000379.0051.000382.0078 0 .321029-.04593.623778-.11095.898452-.193324.0059-.0013.01173-.0026.01758-.0039.0037-.0011.0061-.0028.0098-.0039.283956-.08689.538402-.192313.751953-.3125.101143-.05692.191388-.118248.273437-.181641.01331-.01035.02633-.02077.03906-.03125.076611-.062724.146875-.127178.203092-.195323.134149-.160462.203502-.32955.205078-.5v-1.568359z" fill="#797774"/><path d="m40.5 17c-2.485281 0-4.5 1.119288-4.5 2.5v12c0 1.380712 2.014719 2.5 4.5 2.5s4.5-1.119288 4.5-2.5v-12c0-1.380712-2.014719-2.5-4.5-2.5zm0 1c1.932997 0 3.5.671573 3.5 1.5s-1.567003 1.5-3.5 1.5-3.5-.671573-3.5-1.5 1.567003-1.5 3.5-1.5zm3.5 3.068359v8.863282 1.568359c-.0018.03456-.0063.06909-.01367.103516-.0042.02676-.01005.05346-.01758.08008-.0062.02024-.01336.04043-.02148.06055-.01107.0288-.02409.05746-.03906.08594-.01235.02358-.02603.04702-.04102.07031-.02139.03355-.04549.06678-.07227.09961-.03885.04714-.08318.09343-.132813.138672-.02249.01909-.04593.03798-.07031.05664-.01273.01048-.02575.0209-.03906.03125-.01579.01378-.03206.02745-.04883.04102-.002.0013-.0039.0026-.0059.0039-.0033.002-.0065.0039-.0098.0059-.05624.04026-.11685.07936-.18164.117187l-.0039.002c-.002.0013-.0039.0026-.0059.0039-.0058.0026-.0117.0052-.01758.0078-.06044.03436-.1243.0676-.191406.09961l-.0078.0039c-.0052.002-.01041.0039-.01563.0059-.06785.0319-.138879.06253-.212891.0918-.0065.0026-.013.0052-.01953.0078-.0084.0026-.0169.0052-.02539.0078-.07597.0288-.154817.05617-.236329.08203-.0033.0013-.0065.0026-.0098.0039-.0065.002-.013.0039-.01953.0059-.0045.0013-.0091.0026-.01367.0039-.0037.0011-.0061.0028-.0098.0039-.0058.0013-.0116.0025-.01741.0038-.000571.000171-.0014-.000171-.002 0-.06488.01985-.131327.03874-.199219.05664-.01039.0026-.0208.0052-.03125.0078-.01943.0046-.03896.0092-.05859.01367-.0634.01518-.127881.02951-.193359.04297-.04192.0088-.08424.01729-.126953.02539-.07829.01426-.157773.02728-.238281.03906-.0059.0013-.01171.0026-.01758.0039-.0085.00068-.01692.0013-.02539.002l-.01367.002c-.02336.0034-.04679.0066-.07031.0098-.0037.000491-.008-.000487-.01172 0-.04849.007-.09733.01348-.146485.01953-.05115.0057-.102595.01092-.154296.01563-.07893.007-.158406.0129-.238282.01758-.0072.000676-.01431.0013-.02148.002-.01496.000708-.02994.0014-.04492.002-.07785.0044-.156016.0077-.234375.0098-.05724.0012-.114536.0017-.17184.0017-.116767-.000099-.233449-.0027-.349609-.0078-.232663-.01031-.462326-.0306-.685547-.06055-.0059-.00066-.01172-.0013-.01758-.002-.0098-.0019-.01956-.0039-.0293-.0059l-.01367-.002c-.09045-.01212-.179718-.0258-.267578-.04102-.22182-.04068-.43323-.09107-.63086-.15039-.003-.00089-.0068-.0011-.0098-.002-.01047-.0039-.02089-.0078-.03125-.01172-.07503-.02221-.147998-.04566-.21875-.07031-.178418-.06449-.341339-.136458-.486328-.214843h-.002c-.01254-.0078-.02491-.01558-.03711-.02344-.09629-.05466-.183738-.11209-.261719-.171875-.0047-.0035-.01103-.0062-.01563-.0098-.0072-.0056-.01444-.01195-.02148-.01758-.084519-.067113-.156966-.136906-.216712-.208757-.02678-.03283-.05088-.06606-.07227-.09961-.01499-.02329-.02867-.04673-.04102-.07031-.01497-.02848-.02799-.05714-.03906-.08594-.0081-.02012-.01528-.04031-.02148-.06055-.0075-.02662-.01339-.05332-.01758-.08008-.007338-.034426-.011896-.068949-.013668-.10351v-1.570312-8.859376c.20938.144099.447043.271651.703125.384766.01426.0059.02858.01177.04297.01758.238458.102765.494598.191696.763672.265625.03622.01004.07268.01981.109375.0293.267956.06867.547469.123716.835937.16211.02534.0034.05073.0067.07617.0098.315588.03876.639482.06049.96875.06055.325441-.000174.644942-.02256.957031-.06055.03657-.005.07304-.01017.109375-.01563.286694-.03915.565893-.09301.832032-.162109.02616-.007.0522-.01418.07812-.02148.265256-.07239.518162-.157437.753907-.257812.03024-.01281.06019-.02583.08984-.03906.24694-.110786.476876-.235134.679688-.375z" fill="#3a3a38"/><path d="m40.5 18c-1.932997 0-3.5.671573-3.5 1.5s1.567003 1.5 3.5 1.5 3.5-.671573 3.5-1.5-1.567003-1.5-3.5-1.5zm3.5 3.068359c-.853279.588447-2.139853.930912-3.5.931641-1.359558-.000253-2.646028-.341971-3.5-.929688v8.859376 1.570312c.0016.17045.07093.339538.205078.5.06007.07282.133474.14239.216797.208984.007.0056.01428.01199.02148.01758.08266.06408.175197.124152.277344.181641.211266.118901.463864.222253.744141.308594.01036.0039.02078.0078.03125.01172.277296.08337.583617.147163.908203.193359.01428.0026.02861.0052.04297.0078.33483.04555.688478.0701 1.052737.07032.354122-.000213.696873-.02523 1.023438-.06836.02352-.0032.04695-.0064.07031-.0098.0027-.000379.0051.000382.0078 0 .321029-.04593.623778-.11095.898452-.193324.0059-.0013.01173-.0026.01758-.0039.0037-.0011.0061-.0028.0098-.0039.283956-.08689.538402-.192313.751953-.3125.101143-.05692.191388-.118248.273437-.181641.01331-.01035.02633-.02077.03906-.03125.076611-.062724.146875-.127178.203092-.195323.134149-.160462.203502-.32955.205078-.5v-1.568359z" fill="#797774"/><path d="m35.5 26c-2.485281 0-4.5 1.119288-4.5 2.5v7c0 1.380712 2.014719 2.5 4.5 2.5s4.5-1.119288 4.5-2.5v-7c0-1.380712-2.014719-2.5-4.5-2.5zm0 1c1.932997 0 3.5.671573 3.5 1.5s-1.567003 1.5-3.5 1.5-3.5-.671573-3.5-1.5 1.567003-1.5 3.5-1.5zm3.5 3.068359v3.863282 1.568359c-.0018.03456-.0063.06909-.01367.103516-.0042.02676-.01005.05346-.01758.08008-.0062.02024-.01336.04043-.02148.06055-.01107.0288-.02409.05746-.03906.08594-.01235.02358-.02603.04702-.04102.07031-.02139.03355-.04549.06678-.07227.09961-.03885.04714-.08318.09343-.132813.138672-.02249.01909-.04593.03798-.07031.05664-.01273.01048-.02575.0209-.03906.03125-.01579.01378-.03206.02745-.04883.04102-.002.0013-.0039.0026-.0059.0039-.0033.002-.0065.0039-.0098.0059-.05624.04026-.11685.07936-.18164.117187l-.0039.002c-.002.0013-.0039.0026-.0059.0039-.0058.0026-.0117.0052-.01758.0078-.06044.03436-.1243.0676-.191406.09961l-.0078.0039c-.0052.002-.01041.0039-.01563.0059-.06785.0319-.138879.06253-.212891.0918-.0065.0026-.013.0052-.01953.0078-.0084.0026-.0169.0052-.02539.0078-.07597.0288-.154817.05617-.236329.08203-.0033.0013-.0065.0026-.0098.0039-.0065.002-.013.0039-.01953.0059-.0045.0013-.0091.0026-.01367.0039-.0037.0011-.0061.0028-.0098.0039-.0058.0013-.0116.0025-.01741.0038-.000571.000171-.0014-.000171-.002 0-.06488.01985-.131327.03874-.199219.05664-.01039.0026-.0208.0052-.03125.0078-.01943.0046-.03896.0092-.05859.01367-.0634.01518-.127881.02951-.193359.04297-.04192.0088-.08424.01729-.126953.02539-.07829.01426-.157773.02728-.238281.03906-.0059.0013-.01171.0026-.01758.0039-.0085.00068-.01692.0013-.02539.002l-.01367.002c-.02336.0034-.04679.0066-.07031.0098-.0037.000491-.008-.000487-.01172 0-.04849.007-.09733.01348-.146485.01953-.05115.0057-.102595.01092-.154296.01563-.07893.007-.158406.0129-.238282.01758-.0072.000676-.01431.0013-.02148.002-.01496.000708-.02994.0014-.04492.002-.07785.0044-.156016.0077-.234375.0098-.05724.0012-.114536.0017-.17184.0017-.116767-.000099-.233449-.0027-.349609-.0078-.232663-.01031-.462326-.0306-.685547-.06055-.0059-.00066-.01172-.0013-.01758-.002-.0098-.0019-.01956-.0039-.0293-.0059l-.01367-.002c-.09045-.01212-.179718-.0258-.267578-.04102-.22182-.04068-.43323-.09107-.63086-.15039-.003-.00089-.0068-.0011-.0098-.002-.01047-.0039-.02089-.0078-.03125-.01172-.07503-.02221-.147998-.04566-.21875-.07031-.178418-.06449-.341339-.136458-.486328-.214843h-.002c-.01254-.0078-.02491-.01558-.03711-.02344-.09629-.05466-.183738-.11209-.261719-.171875-.0047-.0035-.01103-.0062-.01563-.0098-.0072-.0056-.01444-.01195-.02148-.01758-.084519-.067113-.156966-.136906-.216712-.208757-.02678-.03283-.05088-.06606-.07227-.09961-.01499-.02329-.02867-.04673-.04102-.07031-.01497-.02848-.02799-.05714-.03906-.08594-.0081-.02012-.01528-.04031-.02148-.06055-.0075-.02662-.01339-.05332-.01758-.08008-.007338-.034426-.011896-.068949-.013668-.10351v-1.570312-3.859376c.20938.144099.447043.271651.703125.384766.01426.0059.02858.01177.04297.01758.238458.102765.494598.191696.763672.265625.03622.01004.07268.01981.109375.0293.267956.06867.547469.123716.835937.16211.02534.0034.05073.0067.07617.0098.315588.03876.639482.06049.96875.06055.325441-.000174.644942-.02256.957031-.06055.03657-.005.07304-.01017.109375-.01563.286694-.03915.565893-.09301.832032-.162109.02616-.007.0522-.01418.07812-.02148.265256-.07239.518162-.157437.753907-.257812.03024-.01281.06019-.02583.08984-.03906.24694-.110786.476876-.235134.679688-.375z" fill="#ed8733"/><path d="m35.5 27c-1.932997 0-3.5.671573-3.5 1.5s1.567003 1.5 3.5 1.5 3.5-.671573 3.5-1.5-1.567003-1.5-3.5-1.5zm3.5 3.068359c-.853279.588447-2.139853.930912-3.5.931641-1.359558-.000253-2.646028-.341971-3.5-.929688v3.859376 1.570312c.0016.17045.07093.339538.205078.5.06007.07282.133474.14239.216797.208984.007.0056.01428.01199.02148.01758.08266.06408.175197.124152.277344.181641.211266.118901.463864.222253.744141.308594.01036.0039.02078.0078.03125.01172.277296.08337.583617.147163.908203.193359.01428.0026.02861.0052.04297.0078.33483.04555.688478.0701 1.052737.07032.354122-.000213.696873-.02523 1.023438-.06836.02352-.0032.04695-.0064.07031-.0098.0027-.000379.0051.000382.0078 0 .321029-.04593.623778-.11095.898452-.193324.0059-.0013.01173-.0026.01758-.0039.0037-.0011.0061-.0028.0098-.0039.283956-.08689.538402-.192313.751953-.3125.101143-.05692.191388-.118248.273437-.181641.01331-.01035.02633-.02077.03906-.03125.076611-.062724.146875-.127178.203092-.195323.134149-.160462.203502-.32955.205078-.5v-1.568359z" fill="#f8db8f"/><path d="m23.5 21c-2.485281 0-4.5 1.119288-4.5 2.5v12c0 1.380712 2.014719 2.5 4.5 2.5s4.5-1.119288 4.5-2.5v-12c0-1.380712-2.014719-2.5-4.5-2.5zm0 1c1.932997 0 3.5.671573 3.5 1.5s-1.567003 1.5-3.5 1.5-3.5-.671573-3.5-1.5 1.567003-1.5 3.5-1.5zm3.5 3.068359v8.863282 1.568359c-.0018.03456-.0063.06909-.01367.103516-.0042.02676-.01005.05346-.01758.08008-.0062.02024-.01336.04043-.02148.06055-.01107.0288-.02409.05746-.03906.08594-.01235.02358-.02603.04702-.04102.07031-.02139.03355-.04549.06678-.07227.09961-.03885.04714-.08318.09343-.132813.138672-.02249.01909-.04593.03798-.07031.05664-.01273.01048-.02575.0209-.03906.03125-.01579.01378-.03206.02745-.04883.04102-.002.0013-.0039.0026-.0059.0039-.0033.002-.0065.0039-.0098.0059-.05624.04026-.11685.07936-.18164.117187l-.0039.002c-.002.0013-.0039.0026-.0059.0039-.0058.0026-.0117.0052-.01758.0078-.06044.03436-.1243.0676-.191406.09961l-.0078.0039c-.0052.002-.01041.0039-.01563.0059-.06785.0319-.138879.06253-.212891.0918-.0065.0026-.013.0052-.01953.0078-.0084.0026-.0169.0052-.02539.0078-.07597.0288-.154817.05617-.236329.08203-.0033.0013-.0065.0026-.0098.0039-.0065.002-.013.0039-.01953.0059-.0045.0013-.0091.0026-.01367.0039-.0037.0011-.0061.0028-.0098.0039-.0058.0013-.0116.0025-.01741.0038-.000571.000171-.0014-.000171-.002 0-.06488.01985-.131327.03874-.199219.05664-.01039.0026-.0208.0052-.03125.0078-.01943.0046-.03896.0092-.05859.01367-.0634.01518-.127881.02951-.193359.04297-.04192.0088-.08424.01729-.126953.02539-.07829.01426-.157773.02728-.238281.03906-.0059.0013-.01171.0026-.01758.0039-.0085.00068-.01692.0013-.02539.002l-.01367.002c-.02336.0034-.04679.0066-.07031.0098-.0037.000491-.008-.000487-.01172 0-.04849.007-.09733.01348-.146485.01953-.05115.0057-.102595.01092-.154296.01563-.07893.007-.158406.0129-.238282.01758-.0072.000676-.01431.0013-.02148.002-.01496.000708-.02994.0014-.04492.002-.07785.0044-.156016.0077-.234375.0098-.05724.0012-.114536.0017-.17184.0017-.116767-.000099-.233449-.0027-.349609-.0078-.232663-.01031-.462326-.0306-.685547-.06055-.0059-.00066-.01172-.0013-.01758-.002-.0098-.0019-.01956-.0039-.0293-.0059l-.01367-.002c-.09045-.01212-.179718-.0258-.267578-.04102-.22182-.04068-.43323-.09107-.63086-.15039-.003-.00089-.0068-.0011-.0098-.002-.01047-.0039-.02089-.0078-.03125-.01172-.07503-.02221-.147998-.04566-.21875-.07031-.178418-.06449-.341339-.136458-.486328-.214843h-.002c-.01254-.0078-.02491-.01558-.03711-.02344-.09629-.05466-.183738-.11209-.261719-.171875-.0047-.0035-.01103-.0062-.01563-.0098-.0072-.0056-.01444-.01195-.02148-.01758-.084519-.067113-.156966-.136906-.216712-.208757-.02678-.03283-.05088-.06606-.07227-.09961-.01499-.02329-.02867-.04673-.04102-.07031-.01497-.02848-.02799-.05714-.03906-.08594-.0081-.02012-.01528-.04031-.02148-.06055-.0075-.02662-.01339-.05332-.01758-.08008-.007338-.034426-.011896-.068949-.013668-.10351v-1.570312-8.859376c.20938.144099.447043.271651.703125.384766.01426.0059.02858.01177.04297.01758.238458.102765.494598.191696.763672.265625.03622.01004.07268.01981.109375.0293.267956.06867.547469.123716.835937.16211.02534.0034.05073.0067.07617.0098.315588.03876.639482.06049.96875.06055.325441-.000174.644942-.02256.957031-.06055.03657-.005.07304-.01017.109375-.01563.286694-.03915.565893-.09301.832032-.162109.02616-.007.0522-.01418.07812-.02148.265256-.07239.518162-.157437.753907-.257812.03024-.01281.06019-.02583.08984-.03906.24694-.110786.476876-.235134.679688-.375z" fill="#ed8733"/><path d="m23.5 22c-1.932997 0-3.5.671573-3.5 1.5s1.567003 1.5 3.5 1.5 3.5-.671573 3.5-1.5-1.567003-1.5-3.5-1.5zm3.5 3.068359c-.853279.588447-2.139853.930912-3.5.931641-1.359558-.000253-2.646028-.341971-3.5-.929688v8.859376 1.570312c.0016.17045.07093.339538.205078.5.06007.07282.133474.14239.216797.208984.007.0056.01428.01199.02148.01758.08266.06408.175197.124152.277344.181641.211266.118901.463864.222253.744141.308594.01036.0039.02078.0078.03125.01172.277296.08337.583617.147163.908203.193359.01428.0026.02861.0052.04297.0078.33483.04555.688478.0701 1.052737.07032.354122-.000213.696873-.02523 1.023438-.06836.02352-.0032.04695-.0064.07031-.0098.0027-.000379.0051.000382.0078 0 .321029-.04593.623778-.11095.898452-.193324.0059-.0013.01173-.0026.01758-.0039.0037-.0011.0061-.0028.0098-.0039.283956-.08689.538402-.192313.751953-.3125.101143-.05692.191388-.118248.273437-.181641.01331-.01035.02633-.02077.03906-.03125.076611-.062724.146875-.127178.203092-.195323.134149-.160462.203502-.32955.205078-.5v-1.568359z" fill="#f8db8f"/><path d="m19.5 28c-2.485281 0-4.5 1.119288-4.5 2.5v9c0 1.380712 2.014719 2.5 4.5 2.5s4.5-1.119288 4.5-2.5v-9c0-1.380712-2.014719-2.5-4.5-2.5zm0 1c1.932997 0 3.5.671573 3.5 1.5s-1.567003 1.5-3.5 1.5-3.5-.671573-3.5-1.5 1.567003-1.5 3.5-1.5zm3.5 3.068359v5.863282 1.568359c-.0018.03456-.0063.06909-.01367.103516-.0042.02676-.01005.05346-.01758.08008-.0062.02024-.01336.04043-.02148.06055-.01107.0288-.02409.05746-.03906.08594-.01235.02358-.02603.04702-.04102.07031-.02139.03355-.04549.06678-.07227.09961-.03885.04714-.08318.09343-.132813.138672-.02249.01909-.04593.03798-.07031.05664-.01273.01048-.02575.0209-.03906.03125-.01579.01378-.03206.02745-.04883.04102-.002.0013-.0039.0026-.0059.0039-.0033.002-.0065.0039-.0098.0059-.05624.04026-.11685.07936-.18164.117187l-.0039.002c-.002.0013-.0039.0026-.0059.0039-.0058.0026-.0117.0052-.01758.0078-.06044.03436-.1243.0676-.191406.09961l-.0078.0039c-.0052.002-.01041.0039-.01563.0059-.06785.0319-.138879.06253-.212891.0918-.0065.0026-.013.0052-.01953.0078-.0084.0026-.0169.0052-.02539.0078-.07597.0288-.154817.05617-.236329.08203-.0033.0013-.0065.0026-.0098.0039-.0065.002-.013.0039-.01953.0059-.0045.0013-.0091.0026-.01367.0039-.0037.0011-.0061.0028-.0098.0039-.0058.0013-.0116.0025-.01741.0038-.000571.000171-.0014-.000171-.002 0-.06488.01985-.131327.03874-.199219.05664-.01039.0026-.0208.0052-.03125.0078-.01943.0046-.03896.0092-.05859.01367-.0634.01518-.127881.02951-.193359.04297-.04192.0088-.08424.01729-.126953.02539-.07829.01426-.157773.02728-.238281.03906-.0059.0013-.01171.0026-.01758.0039-.0085.00068-.01692.0013-.02539.002l-.01367.002c-.02336.0034-.04679.0066-.07031.0098-.0037.000491-.008-.000487-.01172 0-.04849.007-.09733.01348-.146485.01953-.05115.0057-.102595.01092-.154296.01563-.07893.007-.158406.0129-.238282.01758-.0072.000676-.01431.0013-.02148.002-.01496.000708-.02994.0014-.04492.002-.07785.0044-.156016.0077-.234375.0098-.05724.0012-.114536.0017-.17184.0017-.116767-.000099-.233449-.0027-.349609-.0078-.232663-.01031-.462326-.0306-.685547-.06055-.0059-.00066-.01172-.0013-.01758-.002-.0098-.0019-.01956-.0039-.0293-.0059l-.01367-.002c-.09045-.01212-.179718-.0258-.267578-.04102-.22182-.04068-.43323-.09107-.63086-.15039-.003-.00089-.0068-.0011-.0098-.002-.01047-.0039-.02089-.0078-.03125-.01172-.07503-.02221-.147998-.04566-.21875-.07031-.178418-.06449-.341339-.136458-.486328-.214843h-.002c-.01254-.0078-.02491-.01558-.03711-.02344-.09629-.05466-.183738-.11209-.261719-.171875-.0047-.0035-.01103-.0062-.01563-.0098-.0072-.0056-.01444-.01195-.02148-.01758-.084519-.067113-.156966-.136906-.216712-.208757-.02678-.03283-.05088-.06606-.07227-.09961-.01499-.02329-.02867-.04673-.04102-.07031-.01497-.02848-.02799-.05714-.03906-.08594-.0081-.02012-.01528-.04031-.02148-.06055-.0075-.02662-.01339-.05332-.01758-.08008-.007338-.034426-.011896-.068949-.013668-.10351v-1.570312-5.859376c.20938.144099.447043.271651.703125.384766.01426.0059.02858.01177.04297.01758.238458.102765.494598.191696.763672.265625.03622.01004.07268.01981.109375.0293.267956.06867.547469.123716.835937.16211.02534.0034.05073.0067.07617.0098.315588.03876.639482.06049.96875.06055.325441-.000174.644942-.02256.957031-.06055.03657-.005.07304-.01017.109375-.01563.286694-.03915.565893-.09301.832032-.162109.02616-.007.0522-.01418.07812-.02148.265256-.07239.518162-.157437.753907-.257812.03024-.01281.06019-.02583.08984-.03906.24694-.110786.476876-.235134.679688-.375z" fill="#0063b1"/><path d="m19.5 29c-1.932997 0-3.5.671573-3.5 1.5s1.567003 1.5 3.5 1.5 3.5-.671573 3.5-1.5-1.567003-1.5-3.5-1.5zm3.5 3.068359c-.853279.588447-2.139853.930912-3.5.931641-1.359558-.000253-2.646028-.341971-3.5-.929688v5.859376 1.570312c.0016.17045.07093.339538.205078.5.06007.07282.133474.14239.216797.208984.007.0056.01428.01199.02148.01758.08266.06408.175197.124152.277344.181641.211266.118901.463864.222253.744141.308594.01036.0039.02078.0078.03125.01172.277296.08337.583617.147163.908203.193359.01428.0026.02861.0052.04297.0078.33483.04555.688478.0701 1.052737.07032.354122-.000213.696873-.02523 1.023438-.06836.02352-.0032.04695-.0064.07031-.0098.0027-.000379.0051.000382.0078 0 .321029-.04593.623778-.11095.898452-.193324.0059-.0013.01173-.0026.01758-.0039.0037-.0011.0061-.0028.0098-.0039.283956-.08689.538402-.192313.751953-.3125.101143-.05692.191388-.118248.273437-.181641.01331-.01035.02633-.02077.03906-.03125.076611-.062724.146875-.127178.203092-.195323.134149-.160462.203502-.32955.205078-.5v-1.568359z" fill="#83beec"/><path d="m31.5 32c-2.485281 0-4.5 1.119288-4.5 2.5v5c0 1.380712 2.014719 2.5 4.5 2.5s4.5-1.119288 4.5-2.5v-5c0-1.380712-2.014719-2.5-4.5-2.5zm0 1c1.932997 0 3.5.671573 3.5 1.5s-1.567003 1.5-3.5 1.5-3.5-.671573-3.5-1.5 1.567003-1.5 3.5-1.5zm3.5 3.068359v1.863282 1.568359c-.0018.03456-.0063.06909-.01367.103516-.0042.02676-.01005.05346-.01758.08008-.0062.02024-.01336.04043-.02148.06055-.01107.0288-.02409.05746-.03906.08594-.01235.02358-.02603.04702-.04102.07031-.02139.03355-.04549.06678-.07227.09961-.03885.04714-.08318.09343-.132813.138672-.02249.01909-.04593.03798-.07031.05664-.01273.01048-.02575.0209-.03906.03125-.01579.01378-.03206.02745-.04883.04102-.002.0013-.0039.0026-.0059.0039-.0033.002-.0065.0039-.0098.0059-.05624.04026-.11685.07936-.18164.117187l-.0039.002c-.002.0013-.0039.0026-.0059.0039-.0058.0026-.0117.0052-.01758.0078-.06044.03436-.1243.0676-.191406.09961l-.0078.0039c-.0052.002-.01041.0039-.01563.0059-.06785.0319-.138879.06253-.212891.0918-.0065.0026-.013.0052-.01953.0078-.0084.0026-.0169.0052-.02539.0078-.07597.0288-.154817.05617-.236329.08203-.0033.0013-.0065.0026-.0098.0039-.0065.002-.013.0039-.01953.0059-.0045.0013-.0091.0026-.01367.0039-.0037.0011-.0061.0028-.0098.0039-.0058.0013-.0116.0025-.01741.0038-.000571.000171-.0014-.000171-.002 0-.06488.01985-.131327.03874-.199219.05664-.01039.0026-.0208.0052-.03125.0078-.01943.0046-.03896.0092-.05859.01367-.0634.01518-.127881.02951-.193359.04297-.04192.0088-.08424.01729-.126953.02539-.07829.01426-.157773.02728-.238281.03906-.0059.0013-.01171.0026-.01758.0039-.0085.00068-.01692.0013-.02539.002l-.01367.002c-.02336.0034-.04679.0066-.07031.0098-.0037.000491-.008-.000487-.01172 0-.04849.007-.09733.01348-.146485.01953-.05115.0057-.102595.01092-.154296.01563-.07893.007-.158406.0129-.238282.01758-.0072.000676-.01431.0013-.02148.002-.01496.000708-.02994.0014-.04492.002-.07785.0044-.156016.0077-.234375.0098-.05724.0012-.114536.0017-.17184.0017-.116767-.000099-.233449-.0027-.349609-.0078-.232663-.01031-.462326-.0306-.685547-.06055-.0059-.00066-.01172-.0013-.01758-.002-.0098-.0019-.01956-.0039-.0293-.0059l-.01367-.002c-.09045-.01212-.179718-.0258-.267578-.04102-.22182-.04068-.43323-.09107-.63086-.15039-.003-.00089-.0068-.0011-.0098-.002-.01047-.0039-.02089-.0078-.03125-.01172-.07503-.02221-.147998-.04566-.21875-.07031-.178418-.06449-.341339-.136458-.486328-.214843h-.002c-.01254-.0078-.02491-.01558-.03711-.02344-.09629-.05466-.183738-.11209-.261719-.171875-.0047-.0035-.01103-.0062-.01563-.0098-.0072-.0056-.01444-.01195-.02148-.01758-.084519-.067113-.156966-.136906-.216712-.208757-.02678-.03283-.05088-.06606-.07227-.09961-.01499-.02329-.02867-.04673-.04102-.07031-.01497-.02848-.02799-.05714-.03906-.08594-.0081-.02012-.01528-.04031-.02148-.06055-.0075-.02662-.01339-.05332-.01758-.08008-.007338-.034426-.011896-.068949-.013668-.10351v-1.570312-1.859376c.20938.144099.447043.271651.703125.384766.01426.0059.02858.01177.04297.01758.238458.102765.494598.191696.763672.265625.03622.01004.07268.01981.109375.0293.267956.06867.547469.123716.835937.16211.02534.0034.05073.0067.07617.0098.315588.03876.639482.06049.96875.06055.325441-.000174.644942-.02256.957031-.06055.03657-.005.07304-.01017.109375-.01563.286694-.03915.565893-.09301.832032-.162109.02616-.007.0522-.01418.07812-.02148.265256-.07239.518162-.157437.753907-.257812.03024-.01281.06019-.02583.08984-.03906.24694-.110786.476876-.235134.679688-.375z" fill="#0063b1"/><path d="m31.5 33c-1.932997 0-3.5.671573-3.5 1.5s1.567003 1.5 3.5 1.5 3.5-.671573 3.5-1.5-1.567003-1.5-3.5-1.5zm3.5 3.068359c-.853279.588447-2.139853.930912-3.5.931641-1.359558-.000253-2.646028-.341971-3.5-.929688v1.859376 1.570312c.0016.17045.07093.339538.205078.5.06007.07282.133474.14239.216797.208984.007.0056.01428.01199.02148.01758.08266.06408.175197.124152.277344.181641.211266.118901.463864.222253.744141.308594.01036.0039.02078.0078.03125.01172.277296.08337.583617.147163.908203.193359.01428.0026.02861.0052.04297.0078.33483.04555.688478.0701 1.052737.07032.354122-.000213.696873-.02523 1.023438-.06836.02352-.0032.04695-.0064.07031-.0098.0027-.000379.0051.000382.0078 0 .321029-.04593.623778-.11095.898452-.193324.0059-.0013.01173-.0026.01758-.0039.0037-.0011.0061-.0028.0098-.0039.283956-.08689.538402-.192313.751953-.3125.101143-.05692.191388-.118248.273437-.181641.01331-.01035.02633-.02077.03906-.03125.076611-.062724.146875-.127178.203092-.195323.134149-.160462.203502-.32955.205078-.5v-1.568359z" fill="#83beec"/></svg>