<svg height="52" viewBox="0 0 60 52" width="60" xmlns="http://www.w3.org/2000/svg"><path d="m0 0h60v52h-60z" fill="#fafafa"/><path d="m12.277344 6-5.277344 5.279297-1 1v30.720703 1h38.851562l5.984376-6h.0039l.160162-.164062v-.835938-30-1zm.722656.9882812 37 .0117188v30h-37zm-1 .6972657v29.3144531.291016l-5 5.001953v-29.595703zm.708984 30.3027341 36.716797.011719-4.99414 5h-36.7207035z" fill="#3a3a38"/><path d="m38 24c-3.313708 0-6 1.119288-6 2.5v13c0 1.380712 2.686292 2.5 6 2.5s6-1.119288 6-2.5v-13c0-1.380712-2.686292-2.5-6-2.5zm0 1c2.761424 0 5 .671573 5 1.5s-2.238576 1.5-5 1.5-5-.671573-5-1.5 2.238576-1.5 5-1.5zm5 2.878906v11.621094c-.000804.04369-.008.08735-.02148.130859-.0076.02154-.01668.04303-.02734.06445-.01103.0281-.02471.05611-.04102.08398-.01678.02488-.03567.04963-.05664.07422-.01664.0216-.03487.04309-.05469.06445-.02849.02826-.05975.05627-.09375.08398-.02217.01902-.04561.0379-.07031.05664-.04048.02971-.08412.05902-.13086.08789-.02326.01509-.04735.03007-.07227.04492-.04972.02849-.102481.0565-.158203.08398-.03152.01646-.06408.03274-.09766.04883-.06855.03074-.140864.0607-.216797.08984-.02057.0079-.04141.01569-.0625.02344-.07788.02889-.159321.0569-.24414.08398-.03265.01121-.06586.02228-.09961.0332-.09166.02713-.186786.05319-.285156.07812-.02196.0059-.0441.01178-.06641.01758-.08563.02105-.173571.04125-.263672.06055-.06336.01413-.127836.02781-.193359.04102-.04701.0094-.09454.01847-.142579.02734-.097.01794-.196016.03487-.296874.05078-.06761.01023-.135989.02-.205079.0293-.06256.0089-.125723.01732-.189453.02539-.09011.01121-.181295.02164-.273437.03125-.08451.0092-.169828.01762-.25586.02539-.05057.0041-.10136.0081-.152343.01172-.104667.0082-.210191.01535-.316407.02148-.08369.0039-.167706.0072-.251953.0098-.07461.0038-.149502.007-.224609.0098-.144829.003839-.290146.005781-.435539.005821-.145399-.000066-.29072-.002-.435547-.0059-.07511-.0028-.149996-.006-.224609-.0098-.08425-.0026-.168259-.0059-.251953-.0098-.106216-.0061-.21174-.01329-.316407-.02148-.05098-.0037-.10177-.0076-.152343-.01172-.08603-.0078-.171349-.01624-.25586-.02539-.09214-.0096-.183327-.02004-.273437-.03125-.06373-.0081-.126894-.01653-.189453-.02539-.06909-.0093-.137468-.01907-.205079-.0293-.100858-.01591-.199874-.03284-.296874-.05078-.04804-.0089-.09557-.01799-.142579-.02734-.06552-.01321-.129995-.02689-.193359-.04102-.0901-.0193-.17804-.0395-.263672-.06055-.02231-.0058-.04445-.01166-.06641-.01758-.09837-.02493-.193493-.05099-.285156-.07812-.03375-.01092-.06696-.02199-.09961-.0332-.08482-.02708-.166255-.05509-.24414-.08398-.02109-.0078-.04193-.01556-.0625-.02344-.07593-.02914-.148248-.0591-.216797-.08984-.03358-.01609-.06614-.03237-.09766-.04883-.05572-.02748-.108483-.05548-.158203-.08398-.02492-.01485-.04901-.02983-.07227-.04492-.04674-.02887-.09038-.05818-.13086-.08789-.0247-.01874-.04814-.03762-.07031-.05664-.034-.02771-.06526-.05572-.09375-.08398-.01981-.02136-.03805-.04285-.05469-.06445-.02097-.02459-.03986-.04934-.05664-.07422-.01631-.02787-.02999-.05588-.04102-.08398-.01066-.02142-.01978-.04291-.02734-.06445-.013499-.043479-.020663-.087114-.021472-.13078v-11.619141c.100162.06252.207042.123131.320312.181641.07241.03669.147306.07251.22461.107422.06089.02925.123411.0579.1875.08594.06314.02532.127613.05007.193359.07422.07993.03219.161994.06346.246094.09375.106502.03606.215941.07058.328125.103516.04255.01326.08552.02628.128906.03906.10969.03017.22173.05883.335938.08594.06436.01679.129472.03307.195312.04883.08749.01848.176062.03606.265625.05273.0932.01991.187632.03879.283203.05664.07178.01099.14406.02141.216797.03125.118422.01916.238274.03674.359375.05273.100891.01152.202489.02194.304688.03125.07256.0084.145487.0162.21875.02344l.02344.002c.09146.0067.18328.01261.275391.01758.124427.0088.249489.01597.375.02148h.0059c.170148.0063.340862.0095.511675.0097.174087-.000113.34808-.0034.521484-.0098.120938-.0056.241436-.0128.361328-.02148.09734-.0049.19437-.01073.291016-.01758.06144-.0061.122647-.01262.183594-.01953.12199-.01079.243142-.02317.363281-.03711.107154-.01438.213316-.03.318359-.04687.08664-.0122.172601-.02522.257813-.03906.133083-.02406.264029-.05012.392578-.07813.03728-.007.07439-.01417.111328-.02149l.01367-.0039c.115399-.02579.228741-.05315.339844-.08203.06457-.01642.128378-.03335.191406-.05078.07345-.02146.145732-.0436.216797-.06641.09717-.02876.192267-.05872.285156-.08984.0052-.002.01043-.0039.01563-.0059.04222-.01603.08389-.03231.125-.04883.09646-.03456.190257-.07038.28125-.107422.07308-.03241.144066-.06562.212891-.09961.06414-.02868.126663-.05798.1875-.08789.116941-.060289.227085-.122834.330075-.18741z" fill="#0063b1"/><path d="m38 25c-2.761424 0-5 .671573-5 1.5s2.238576 1.5 5 1.5 5-.671573 5-1.5-2.238576-1.5-5-1.5zm5 2.878906c-1.109978.69943-2.987575 1.120423-5 1.121094-2.011533-.000237-3.888943-.420455-5-1.119141v11.619141c0 .828427 2.238576 1.5 5 1.5s5-.671573 5-1.5z" fill="#83beec"/><path d="m38 15c-3.313708 0-6 1.119288-6 2.5v9c0 1.380712 2.686292 2.5 6 2.5s6-1.119288 6-2.5v-9c0-1.380712-2.686292-2.5-6-2.5zm0 1c2.761424 0 5 .671573 5 1.5s-2.238576 1.5-5 1.5-5-.671573-5-1.5 2.238576-1.5 5-1.5zm5 2.878906v7.621094c-.000804.04369-.008.08735-.02148.130859-.0076.02154-.01668.04303-.02734.06445-.01103.0281-.02471.05611-.04102.08398-.01678.02488-.03567.04963-.05664.07422-.01664.0216-.03487.04309-.05469.06445-.02849.02826-.05975.05627-.09375.08398-.02217.01902-.04561.0379-.07031.05664-.04048.02971-.08412.05902-.13086.08789-.02326.01509-.04735.03007-.07227.04492-.04972.02849-.102481.0565-.158203.08398-.03152.01646-.06408.03274-.09766.04883-.06855.03074-.140864.0607-.216797.08984-.02057.0079-.04141.01569-.0625.02344-.07788.02889-.159321.0569-.24414.08398-.03265.01121-.06586.02228-.09961.0332-.09166.02713-.186786.05319-.285156.07812-.02196.0059-.0441.01178-.06641.01758-.08563.02105-.173571.04125-.263672.06055-.06336.01413-.127836.02781-.193359.04102-.04701.0094-.09454.01847-.142579.02734-.097.01794-.196016.03487-.296874.05078-.06761.01023-.135989.02-.205079.0293-.06256.0089-.125723.01732-.189453.02539-.09011.01121-.181295.02164-.273437.03125-.08451.0092-.169828.01762-.25586.02539-.05057.0041-.10136.0081-.152343.01172-.104667.0082-.210191.01535-.316407.02148-.08369.0039-.167706.0072-.251953.0098-.07461.0038-.149502.007-.224609.0098-.144829.003839-.290146.005781-.435539.005821-.145399-.000066-.29072-.002-.435547-.0059-.07511-.0028-.149996-.006-.224609-.0098-.08425-.0026-.168259-.0059-.251953-.0098-.106216-.0061-.21174-.01329-.316407-.02148-.05098-.0037-.10177-.0076-.152343-.01172-.08603-.0078-.171349-.01624-.25586-.02539-.09214-.0096-.183327-.02004-.273437-.03125-.06373-.0081-.126894-.01653-.189453-.02539-.06909-.0093-.137468-.01907-.205079-.0293-.100858-.01591-.199874-.03284-.296874-.05078-.04804-.0089-.09557-.01799-.142579-.02734-.06552-.01321-.129995-.02689-.193359-.04102-.0901-.0193-.17804-.0395-.263672-.06055-.02231-.0058-.04445-.01166-.06641-.01758-.09837-.02493-.193493-.05099-.285156-.07812-.03375-.01092-.06696-.02199-.09961-.0332-.08482-.02708-.166255-.05509-.24414-.08398-.02109-.0078-.04193-.01556-.0625-.02344-.07593-.02914-.148248-.0591-.216797-.08984-.03358-.01609-.06614-.03237-.09766-.04883-.05572-.02748-.108483-.05548-.158203-.08398-.02492-.01485-.04901-.02983-.07227-.04492-.04674-.02887-.09038-.05818-.13086-.08789-.0247-.01874-.04814-.03762-.07031-.05664-.034-.02771-.06526-.05572-.09375-.08398-.01981-.02136-.03805-.04285-.05469-.06445-.02097-.02459-.03986-.04934-.05664-.07422-.01631-.02787-.02999-.05588-.04102-.08398-.01066-.02142-.01978-.04291-.02734-.06445-.013499-.043479-.020663-.087114-.021472-.13078v-7.619141c.100162.06252.207042.123131.320312.181641.07241.03669.147306.07251.22461.107422.06089.02925.123411.0579.1875.08594.06314.02532.127613.05007.193359.07422.07993.03219.161994.06346.246094.09375.106502.03606.215941.07058.328125.103516.04255.01326.08552.02628.128906.03906.10969.03017.22173.05883.335938.08594.06436.01679.129472.03307.195312.04883.08749.01848.176062.03606.265625.05273.0932.01991.187632.03879.283203.05664.07178.01099.14406.02141.216797.03125.118422.01916.238274.03674.359375.05273.100891.01152.202489.02194.304688.03125.07256.0084.145487.0162.21875.02344l.02344.002c.09146.0067.18328.01261.275391.01758.124427.0088.249489.01597.375.02148h.0059c.170148.0063.340862.0095.511675.0097.174087-.000113.34808-.0034.521484-.0098.120938-.0056.241436-.0128.361328-.02148.09734-.0049.19437-.01073.291016-.01758.06144-.0061.122647-.01262.183594-.01953.12199-.01079.243142-.02317.363281-.03711.107154-.01438.213316-.03.318359-.04687.08664-.0122.172601-.02522.257813-.03906.133083-.02406.264029-.05012.392578-.07813.03728-.007.07439-.01417.111328-.02149l.01367-.0039c.115399-.02579.228741-.05315.339844-.08203.06457-.01642.128378-.03335.191406-.05078.07345-.02146.145732-.0436.216797-.06641.09717-.02876.192267-.05872.285156-.08984.0052-.002.01043-.0039.01563-.0059.04222-.01603.08389-.03231.125-.04883.09646-.03456.190257-.07038.28125-.107422.07308-.03241.144066-.06562.212891-.09961.06414-.02868.126663-.05798.1875-.08789.116941-.060289.227085-.122834.330075-.18741z" fill="#ed8733"/><path d="m38 16c-2.761424 0-5 .671573-5 1.5s2.238576 1.5 5 1.5 5-.671573 5-1.5-2.238576-1.5-5-1.5zm5 2.878906c-1.109978.69943-2.987575 1.120423-5 1.121094-2.011533-.000237-3.888943-.420455-5-1.119141v7.619141c0 .828427 2.238576 1.5 5 1.5s5-.671573 5-1.5z" fill="#f8db8f"/><path d="m38 8a6 2.5 0 0 0 -6 2.5v7a6 2.5 0 0 0 6 2.5 6 2.5 0 0 0 6-2.5v-7a6 2.5 0 0 0 -6-2.5zm0 1a5 1.5 0 0 1 5 1.5 5 1.5 0 0 1 -5 1.5 5 1.5 0 0 1 -5-1.5 5 1.5 0 0 1 5-1.5zm5 2.878906v5.621094a5 1.5 0 0 1 -.02148.130859 5 1.5 0 0 1 -.02734.06445 5 1.5 0 0 1 -.04102.08398 5 1.5 0 0 1 -.05664.07422 5 1.5 0 0 1 -.05469.06445 5 1.5 0 0 1 -.09375.08398 5 1.5 0 0 1 -.07031.05664 5 1.5 0 0 1 -.13086.08789 5 1.5 0 0 1 -.07227.04492 5 1.5 0 0 1 -.158203.08398 5 1.5 0 0 1 -.09766.04883 5 1.5 0 0 1 -.216797.08984 5 1.5 0 0 1 -.0625.02344 5 1.5 0 0 1 -.24414.08398 5 1.5 0 0 1 -.09961.0332 5 1.5 0 0 1 -.285156.07812 5 1.5 0 0 1 -.06641.01758 5 1.5 0 0 1 -.263672.06055 5 1.5 0 0 1 -.193359.04102 5 1.5 0 0 1 -.142579.02734 5 1.5 0 0 1 -.296874.05078 5 1.5 0 0 1 -.205079.0293 5 1.5 0 0 1 -.189453.02539 5 1.5 0 0 1 -.273437.03125 5 1.5 0 0 1 -.25586.02539 5 1.5 0 0 1 -.152343.01172 5 1.5 0 0 1 -.316407.02148 5 1.5 0 0 1 -.251953.0098 5 1.5 0 0 1 -.224609.0098 5 1.5 0 0 1 -.435539.005821 5 1.5 0 0 1 -.435547-.0059 5 1.5 0 0 1 -.224609-.0098 5 1.5 0 0 1 -.251953-.0098 5 1.5 0 0 1 -.316407-.02148 5 1.5 0 0 1 -.152343-.01172 5 1.5 0 0 1 -.25586-.02539 5 1.5 0 0 1 -.273437-.03125 5 1.5 0 0 1 -.189453-.02539 5 1.5 0 0 1 -.205079-.0293 5 1.5 0 0 1 -.296874-.05078 5 1.5 0 0 1 -.142579-.02734 5 1.5 0 0 1 -.193359-.04102 5 1.5 0 0 1 -.263672-.06055 5 1.5 0 0 1 -.06641-.01758 5 1.5 0 0 1 -.285156-.07812 5 1.5 0 0 1 -.09961-.0332 5 1.5 0 0 1 -.24414-.08398 5 1.5 0 0 1 -.0625-.02344 5 1.5 0 0 1 -.216797-.08984 5 1.5 0 0 1 -.09766-.04883 5 1.5 0 0 1 -.158203-.08398 5 1.5 0 0 1 -.07227-.04492 5 1.5 0 0 1 -.13086-.08789 5 1.5 0 0 1 -.07031-.05664 5 1.5 0 0 1 -.09375-.08398 5 1.5 0 0 1 -.05469-.06445 5 1.5 0 0 1 -.05664-.07422 5 1.5 0 0 1 -.04102-.08398 5 1.5 0 0 1 -.02734-.06445 5 1.5 0 0 1 -.021472-.13078v-5.619141a6 2.5 0 0 0 .320312.181641 6 2.5 0 0 0 .22461.107422 6 2.5 0 0 0 .1875.08594 6 2.5 0 0 0 .193359.07422 6 2.5 0 0 0 .246094.09375 6 2.5 0 0 0 .328125.103516 6 2.5 0 0 0 .128906.03906 6 2.5 0 0 0 .335938.08594 6 2.5 0 0 0 .195312.04883 6 2.5 0 0 0 .265625.05273 6 2.5 0 0 0 .283203.05664 6 2.5 0 0 0 .216797.03125 6 2.5 0 0 0 .359375.05273 6 2.5 0 0 0 .304688.03125 6 2.5 0 0 0 .21875.02344 6 2.5 0 0 0 .02344.002 6 2.5 0 0 0 .275391.01758 6 2.5 0 0 0 .375.02148 6 2.5 0 0 0 .0059 0 6 2.5 0 0 0 .511675.009722 6 2.5 0 0 0 .521484-.0098 6 2.5 0 0 0 .361328-.02148 6 2.5 0 0 0 .291016-.01758 6 2.5 0 0 0 .183594-.01953 6 2.5 0 0 0 .363281-.03711 6 2.5 0 0 0 .318359-.04687 6 2.5 0 0 0 .257813-.03906 6 2.5 0 0 0 .392578-.07813 6 2.5 0 0 0 .111328-.02149 6 2.5 0 0 0 .01367-.0039 6 2.5 0 0 0 .339844-.08203 6 2.5 0 0 0 .191406-.05078 6 2.5 0 0 0 .216797-.06641 6 2.5 0 0 0 .285156-.08984 6 2.5 0 0 0 .01563-.0059 6 2.5 0 0 0 .125-.04883 6 2.5 0 0 0 .28125-.107422 6 2.5 0 0 0 .212891-.09961 6 2.5 0 0 0 .1875-.08789 6 2.5 0 0 0 .330075-.187432z" fill="#3a3a38"/><path d="m38 9a5 1.5 0 0 0 -5 1.5 5 1.5 0 0 0 5 1.5 5 1.5 0 0 0 5-1.5 5 1.5 0 0 0 -5-1.5zm5 2.878906a6 2.5 0 0 1 -5 1.121094 6 2.5 0 0 1 -5-1.119141v5.619141a5 1.5 0 0 0 5 1.5 5 1.5 0 0 0 5-1.5z" fill="#797774"/><path d="m22 29c-3.313708 0-6 1.119288-6 2.5v8c0 1.380712 2.686292 2.5 6 2.5s6-1.119288 6-2.5v-8c0-1.380712-2.686292-2.5-6-2.5zm0 1c2.761424 0 5 .671573 5 1.5s-2.238576 1.5-5 1.5-5-.671573-5-1.5 2.238576-1.5 5-1.5zm5 2.878906v6.621094c-.000804.04369-.008.08735-.02148.130859-.0076.02154-.01668.04303-.02734.06445-.01103.0281-.02471.05611-.04102.08398-.01678.02488-.03567.04963-.05664.07422-.01664.0216-.03487.04309-.05469.06445-.02849.02826-.05975.05627-.09375.08398-.02217.01902-.04561.0379-.07031.05664-.04048.02971-.08412.05902-.13086.08789-.02326.01509-.04735.03007-.07227.04492-.04972.02849-.102481.0565-.158203.08398-.03152.01646-.06408.03274-.09766.04883-.06855.03074-.140864.0607-.216797.08984-.02057.0079-.04141.01569-.0625.02344-.07788.02889-.159321.0569-.24414.08398-.03265.01121-.06586.02228-.09961.0332-.09166.02713-.186786.05319-.285156.07812-.02196.0059-.0441.01178-.06641.01758-.08563.02105-.173571.04125-.263672.06055-.06336.01413-.127836.02781-.193359.04102-.04701.0094-.09454.01847-.142579.02734-.097.01794-.196016.03487-.296874.05078-.06761.01023-.135989.02-.205079.0293-.06256.0089-.125723.01732-.189453.02539-.09011.01121-.181295.02164-.273437.03125-.08451.0092-.169828.01762-.25586.02539-.05057.0041-.10136.0081-.152343.01172-.104667.0082-.210191.01535-.316407.02148-.08369.0039-.167706.0072-.251953.0098-.07461.0038-.149502.007-.224609.0098-.144829.003839-.290146.005781-.435539.005821-.145399-.000066-.29072-.002-.435547-.0059-.07511-.0028-.149996-.006-.224609-.0098-.08425-.0026-.168259-.0059-.251953-.0098-.106216-.0061-.21174-.01329-.316407-.02148-.05098-.0037-.10177-.0076-.152343-.01172-.08603-.0078-.171349-.01624-.25586-.02539-.09214-.0096-.183327-.02004-.273437-.03125-.06373-.0081-.126894-.01653-.189453-.02539-.06909-.0093-.137468-.01907-.205079-.0293-.100858-.01591-.199874-.03284-.296874-.05078-.04804-.0089-.09557-.01799-.142579-.02734-.06552-.01321-.129995-.02689-.193359-.04102-.0901-.0193-.17804-.0395-.263672-.06055-.02231-.0058-.04445-.01166-.06641-.01758-.09837-.02493-.193493-.05099-.285156-.07812-.03375-.01092-.06696-.02199-.09961-.0332-.08482-.02708-.166255-.05509-.24414-.08398-.02109-.0078-.04193-.01556-.0625-.02344-.07593-.02914-.148248-.0591-.216797-.08984-.03358-.01609-.06614-.03237-.09766-.04883-.05572-.02748-.108483-.05548-.158203-.08398-.02492-.01485-.04901-.02983-.07227-.04492-.04674-.02887-.09038-.05818-.13086-.08789-.0247-.01874-.04814-.03762-.07031-.05664-.034-.02771-.06526-.05572-.09375-.08398-.01981-.02136-.03805-.04285-.05469-.06445-.02097-.02459-.03986-.04934-.05664-.07422-.01631-.02787-.02999-.05588-.04102-.08398-.01066-.02142-.01978-.04291-.02734-.06445-.013499-.043479-.020663-.087114-.021472-.13078v-6.619141c.100162.06252.207042.123131.320312.181641.07241.03669.147306.07251.22461.107422.06089.02925.123411.0579.1875.08594.06314.02532.127613.05007.193359.07422.07993.03219.161994.06346.246094.09375.106502.03606.215941.07058.328125.103516.04255.01326.08552.02628.128906.03906.10969.03017.22173.05883.335938.08594.06436.01679.129472.03307.195312.04883.08749.01848.176062.03606.265625.05273.0932.01991.187632.03879.283203.05664.07178.01099.14406.02141.216797.03125.118422.01916.238274.03674.359375.05273.100891.01152.202489.02194.304688.03125.07256.0084.145487.0162.21875.02344l.02344.002c.09146.0067.18328.01261.275391.01758.124427.0088.249489.01597.375.02148h.0059c.170148.0063.340862.0095.511675.0097.174087-.000113.34808-.0034.521484-.0098.120938-.0056.241436-.0128.361328-.02148.09734-.0049.19437-.01073.291016-.01758.06144-.0061.122647-.01262.183594-.01953.12199-.01079.243142-.02317.363281-.03711.107154-.01438.213316-.03.318359-.04687.08664-.0122.172601-.02522.257813-.03906.133083-.02406.264029-.05012.392578-.07813.03728-.007.07439-.01417.111328-.02149l.01367-.0039c.115399-.02579.228741-.05315.339844-.08203.06457-.01642.128378-.03335.191406-.05078.07345-.02146.145732-.0436.216797-.06641.09717-.02876.192267-.05872.285156-.08984.0052-.002.01043-.0039.01563-.0059.04222-.01603.08389-.03231.125-.04883.09646-.03456.190257-.07038.28125-.107422.07308-.03241.144066-.06562.212891-.09961.06414-.02868.126663-.05798.1875-.08789.116941-.060289.227085-.122834.330075-.18741z" fill="#0063b1"/><path d="m22 30c-2.761424 0-5 .671573-5 1.5s2.238576 1.5 5 1.5 5-.671573 5-1.5-2.238576-1.5-5-1.5zm5 2.878906c-1.109978.69943-2.987575 1.120423-5 1.121094-2.011533-.000237-3.888943-.420455-5-1.119141v6.619141c0 .828427 2.238576 1.5 5 1.5s5-.671573 5-1.5z" fill="#83beec"/><path d="m22 18c-3.313708 0-6 1.119288-6 2.5v11c0 1.380712 2.686292 2.5 6 2.5s6-1.119288 6-2.5v-11c0-1.380712-2.686292-2.5-6-2.5zm0 1c2.761424 0 5 .671573 5 1.5s-2.238576 1.5-5 1.5-5-.671573-5-1.5 2.238576-1.5 5-1.5zm5 2.878906v9.621094c-.000804.04369-.008.08735-.02148.130859-.0076.02154-.01668.04303-.02734.06445-.01103.0281-.02471.05611-.04102.08398-.01678.02488-.03567.04963-.05664.07422-.01664.0216-.03487.04309-.05469.06445-.02849.02826-.05975.05627-.09375.08398-.02217.01902-.04561.0379-.07031.05664-.04048.02971-.08412.05902-.13086.08789-.02326.01509-.04735.03007-.07227.04492-.04972.02849-.102481.0565-.158203.08398-.03152.01646-.06408.03274-.09766.04883-.06855.03074-.140864.0607-.216797.08984-.02057.0079-.04141.01569-.0625.02344-.07788.02889-.159321.0569-.24414.08398-.03265.01121-.06586.02228-.09961.0332-.09166.02713-.186786.05319-.285156.07812-.02196.0059-.0441.01178-.06641.01758-.08563.02105-.173571.04125-.263672.06055-.06336.01413-.127836.02781-.193359.04102-.04701.0094-.09454.01847-.142579.02734-.097.01794-.196016.03487-.296874.05078-.06761.01023-.135989.02-.205079.0293-.06256.0089-.125723.01732-.189453.02539-.09011.01121-.181295.02164-.273437.03125-.08451.0092-.169828.01762-.25586.02539-.05057.0041-.10136.0081-.152343.01172-.104667.0082-.210191.01535-.316407.02148-.08369.0039-.167706.0072-.251953.0098-.07461.0038-.149502.007-.224609.0098-.144829.003839-.290146.005781-.435539.005821-.145399-.000066-.29072-.002-.435547-.0059-.07511-.0028-.149996-.006-.224609-.0098-.08425-.0026-.168259-.0059-.251953-.0098-.106216-.0061-.21174-.01329-.316407-.02148-.05098-.0037-.10177-.0076-.152343-.01172-.08603-.0078-.171349-.01624-.25586-.02539-.09214-.0096-.183327-.02004-.273437-.03125-.06373-.0081-.126894-.01653-.189453-.02539-.06909-.0093-.137468-.01907-.205079-.0293-.100858-.01591-.199874-.03284-.296874-.05078-.04804-.0089-.09557-.01799-.142579-.02734-.06552-.01321-.129995-.02689-.193359-.04102-.0901-.0193-.17804-.0395-.263672-.06055-.02231-.0058-.04445-.01166-.06641-.01758-.09837-.02493-.193493-.05099-.285156-.07812-.03375-.01092-.06696-.02199-.09961-.0332-.08482-.02708-.166255-.05509-.24414-.08398-.02109-.0078-.04193-.01556-.0625-.02344-.07593-.02914-.148248-.0591-.216797-.08984-.03358-.01609-.06614-.03237-.09766-.04883-.05572-.02748-.108483-.05548-.158203-.08398-.02492-.01485-.04901-.02983-.07227-.04492-.04674-.02887-.09038-.05818-.13086-.08789-.0247-.01874-.04814-.03762-.07031-.05664-.034-.02771-.06526-.05572-.09375-.08398-.01981-.02136-.03805-.04285-.05469-.06445-.02097-.02459-.03986-.04934-.05664-.07422-.01631-.02787-.02999-.05588-.04102-.08398-.01066-.02142-.01978-.04291-.02734-.06445-.013499-.043479-.020663-.087114-.021472-.13078v-9.619141c.100162.06252.207042.123131.320312.181641.07241.03669.147306.07251.22461.107422.06089.02925.123411.0579.1875.08594.06314.02532.127613.05007.193359.07422.07993.03219.161994.06346.246094.09375.106502.03606.215941.07058.328125.103516.04255.01326.08552.02628.128906.03906.10969.03017.22173.05883.335938.08594.06436.01679.129472.03307.195312.04883.08749.01848.176062.03606.265625.05273.0932.01991.187632.03879.283203.05664.07178.01099.14406.02141.216797.03125.118422.01916.238274.03674.359375.05273.100891.01152.202489.02194.304688.03125.07256.0084.145487.0162.21875.02344l.02344.002c.09146.0067.18328.01261.275391.01758.124427.0088.249489.01597.375.02148h.0059c.170148.0063.340862.0095.511675.0097.174087-.000113.34808-.0034.521484-.0098.120938-.0056.241436-.0128.361328-.02148.09734-.0049.19437-.01073.291016-.01758.06144-.0061.122647-.01262.183594-.01953.12199-.01079.243142-.02317.363281-.03711.107154-.01438.213316-.03.318359-.04687.08664-.0122.172601-.02522.257813-.03906.133083-.02406.264029-.05012.392578-.07813.03728-.007.07439-.01417.111328-.02149l.01367-.0039c.115399-.02579.228741-.05315.339844-.08203.06457-.01642.128378-.03335.191406-.05078.07345-.02146.145732-.0436.216797-.06641.09717-.02876.192267-.05872.285156-.08984.0052-.002.01043-.0039.01563-.0059.04222-.01603.08389-.03231.125-.04883.09646-.03456.190257-.07038.28125-.107422.07308-.03241.144066-.06562.212891-.09961.06414-.02868.126663-.05798.1875-.08789.116941-.060289.227085-.122834.330075-.18741z" fill="#ed8733"/><path d="m22 19c-2.761424 0-5 .671573-5 1.5s2.238576 1.5 5 1.5 5-.671573 5-1.5-2.238576-1.5-5-1.5zm5 2.878906c-1.109978.69943-2.987575 1.120423-5 1.121094-2.011533-.000237-3.888943-.420455-5-1.119141v9.619141c0 .828427 2.238576 1.5 5 1.5s5-.671573 5-1.5z" fill="#f8db8f"/><path d="m22 8c-3.313708 0-6 1.119288-6 2.5v10c0 1.380712 2.686292 2.5 6 2.5s6-1.119288 6-2.5v-10c0-1.380712-2.686292-2.5-6-2.5zm0 1c2.761424 0 5 .671573 5 1.5s-2.238576 1.5-5 1.5-5-.671573-5-1.5 2.238576-1.5 5-1.5zm5 2.878906v8.621094c-.000804.04369-.008.08735-.02148.130859-.0076.02154-.01668.04303-.02734.06445-.01103.0281-.02471.05611-.04102.08398-.01678.02488-.03567.04963-.05664.07422-.01664.0216-.03488.04309-.05469.06445-.02849.02826-.05975.05627-.09375.08398-.02217.01902-.04561.0379-.07031.05664-.04048.02971-.08412.05902-.13086.08789-.02326.01509-.04735.03007-.07227.04492-.04972.02849-.102481.0565-.158203.08398-.03152.01646-.06408.03274-.09766.04883-.06855.03074-.140864.0607-.216797.08984-.02057.0079-.04141.01569-.0625.02344-.07788.02889-.159321.0569-.24414.08398-.03265.01121-.06586.02228-.09961.0332-.09166.02713-.186786.05319-.285156.07812-.02196.0059-.0441.01178-.06641.01758-.08563.02105-.173571.04125-.263672.06055-.06336.01413-.127836.02781-.193359.04102-.04701.0094-.09454.01847-.142579.02734-.097.01794-.196016.03487-.296874.05078-.06761.01023-.135989.02-.205079.0293-.06256.0089-.125723.01732-.189453.02539-.09011.01121-.181295.02164-.273437.03125-.08451.0092-.169828.01762-.25586.02539-.05057.0041-.10136.0081-.152343.01172-.104667.0082-.210191.01535-.316407.02148-.08369.0039-.167706.0072-.251953.0098-.07461.0038-.149502.007-.224609.0098-.144829.003839-.290146.005781-.435539.005821-.145399-.000066-.29072-.002-.435547-.0059-.07511-.0028-.149996-.006-.224609-.0098-.08425-.0026-.168259-.0059-.251953-.0098-.106216-.0061-.21174-.01329-.316407-.02148-.05098-.0037-.10177-.0076-.152343-.01172-.08603-.0078-.171349-.01624-.25586-.02539-.09214-.0096-.183327-.02004-.273437-.03125-.06373-.0081-.126894-.01653-.189453-.02539-.06909-.0093-.137468-.01907-.205079-.0293-.100858-.01591-.199874-.03284-.296874-.05078-.04804-.0089-.09557-.01799-.142579-.02734-.06552-.01321-.129995-.02689-.193359-.04102-.0901-.0193-.17804-.0395-.263672-.06055-.02231-.0058-.04445-.01166-.06641-.01758-.09837-.02493-.193493-.05099-.285156-.07812-.03375-.01092-.06696-.02199-.09961-.0332-.08482-.02708-.166255-.05509-.24414-.08398-.02109-.0078-.04193-.01556-.0625-.02344-.07593-.02914-.148248-.0591-.216797-.08984-.03358-.01609-.06614-.03237-.09766-.04883-.05572-.02748-.108483-.05548-.158203-.08398-.02492-.01485-.04901-.02983-.07227-.04492-.04674-.02887-.09038-.05818-.13086-.08789-.0247-.01874-.04814-.03762-.07031-.05664-.034-.02771-.06526-.05572-.09375-.08398-.01981-.02136-.03805-.04285-.05469-.06445-.02097-.02459-.03986-.04934-.05664-.07422-.01631-.02787-.02999-.05588-.04102-.08398-.01066-.02142-.01978-.04291-.02734-.06445-.013499-.043479-.020663-.087114-.021472-.13078v-8.619141c.100162.06252.207042.123131.320312.181641.07241.03669.147306.07251.22461.107422.06089.02925.123411.0579.1875.08594.06314.02532.127613.05007.193359.07422.07993.03219.161994.06346.246094.09375.106502.03606.215941.07058.328125.103516.04255.01326.08552.02628.128906.03906.10969.03017.22173.05883.335938.08594.06436.01679.129472.03307.195312.04883.08749.01848.176062.03606.265625.05273.0932.01991.187632.03879.283203.05664.07178.01099.14406.02141.216797.03125.118422.01916.238274.03674.359375.05273.100891.01152.202489.02194.304688.03125.07256.0084.145487.0162.21875.02344l.02344.002c.09146.0067.18328.01261.275391.01758.124427.0088.249489.01597.375.02148h.0059c.170148.0063.340862.0095.511675.0097.174087-.000113.34808-.0034.521484-.0098.120938-.0056.241436-.0128.361328-.02148.09734-.0049.19437-.01073.291016-.01758.06144-.0061.122647-.01262.183594-.01953.12199-.01079.243142-.02317.363281-.03711.107154-.01438.213316-.03.318359-.04687.08664-.0122.172601-.02522.257813-.03906.133083-.02406.264029-.05012.392578-.07813.03728-.007.0744-.01417.111328-.02149l.01367-.0039c.115399-.02579.228741-.05315.339844-.08203.06457-.01642.128378-.03335.191406-.05078.07345-.02146.145732-.0436.216797-.06641.09717-.02876.192267-.05872.285156-.08984.0052-.002.01043-.0039.01563-.0059.04222-.01603.08389-.03231.125-.04883.09646-.03456.190257-.07038.28125-.107422.07308-.03241.144066-.06562.212891-.09961.06415-.02868.126663-.05798.1875-.08789.116941-.060289.227085-.122834.330075-.18741z" fill="#3a3a38"/><path d="m22 9c-2.761424 0-5 .671573-5 1.5s2.238576 1.5 5 1.5 5-.671573 5-1.5-2.238576-1.5-5-1.5zm5 2.878906c-1.109978.69943-2.987575 1.120423-5 1.121094-2.011533-.000237-3.888943-.420455-5-1.119141v8.619141c0 .828427 2.238576 1.5 5 1.5s5-.671573 5-1.5z" fill="#797774"/></svg>