<svg height="52" viewBox="0 0 60 52" width="60" xmlns="http://www.w3.org/2000/svg"><path d="m0 0h60v52h-60z" fill="#fafafa"/><path d="m29 4v22.201172l-25.4257812-12.201172-.4316407.902344 25.4941409 12.234376-18.8945375 18.263672.6953125.71875 19.058594-18.423829 18.875 18.613282.701172-.712891-18.712887-18.455038 23.736328-11.281254-.427734-.904297-23.667967 11.249963v-22.205078z" fill="#3a3a38"/><path d="m48 17h3v3h-3z" fill="#0063b1"/><path d="m49 18h1v1h-1z" fill="#83beec"/><path d="m28 4h3v3h-3z" fill="#0063b1"/><path d="m29 5h1v1h-1z" fill="#83beec"/><path d="m4 13h3v3h-3z" fill="#0063b1"/><path d="m5 14h1v1h-1z" fill="#83beec"/><path d="m41 38h3v3h-3z" fill="#0063b1"/><path d="m42 39h1v1h-1z" fill="#83beec"/><path d="m10 43h3v3h-3z" fill="#0063b1"/><path d="m11 44h1v1h-1z" fill="#83beec"/><path d="m41 18h3v3h-3z" fill="#3a3a38"/><path d="m42 19h1v1h-1z" fill="#797774"/><path d="m28 11h3v3h-3z" fill="#3a3a38"/><path d="m29 12h1v1h-1z" fill="#797774"/><path d="m14 18h3v3h-3z" fill="#3a3a38"/><path d="m15 19h1v1h-1z" fill="#797774"/><path d="m15 37h3v3h-3z" fill="#3a3a38"/><path d="m16 38h1v1h-1z" fill="#797774"/><path d="m20 33h3v3h-3z" fill="#ed8733"/><path d="m21 34h1v1h-1z" fill="#f8db8f"/><path d="m33 29h3v3h-3z" fill="#ed8733"/><path d="m34 30h1v1h-1z" fill="#f8db8f"/><path d="m37 22h3v3h-3z" fill="#ed8733"/><path d="m38 23h1v1h-1z" fill="#f8db8f"/><path d="m28 18h3v3h-3z" fill="#ed8733"/><path d="m29 19h1v1h-1z" fill="#f8db8f"/><path d="m17 20h3v3h-3z" fill="#ed8733"/><path d="m18 21h1v1h-1z" fill="#f8db8f"/><path d="m47 44h3v3h-3z" fill="#3a3a38"/><path d="m48 45h1v1h-1z" fill="#797774"/></svg>