<svg height="52" viewBox="0 0 60 52" width="60" xmlns="http://www.w3.org/2000/svg"><path d="m0 0h60v52h-60z" fill="#fafafa"/><path d="m49.5 28v13.5h-14v-30h-14v6h-14.5" fill="none" stroke="#0063b1"/><path d="m49.5 23v-6.5h-14v20h-14v-7h-14.5" fill="none" stroke="#ed8733"/><path d="m34 40h3v3h-3z" fill="#0063b1"/><path d="m35 41h1v1h-1z" fill="#83beec" stroke-width=".333333"/><path d="m48 27h3v3h-3z" fill="#0063b1"/><path d="m49 28h1v1h-1z" fill="#83beec" stroke-width=".333333"/><path d="m20 10h3v3h-3z" fill="#0063b1"/><path d="m21 11h1v1h-1z" fill="#83beec" stroke-width=".333333"/><path d="m6 16h3v3h-3z" fill="#0063b1"/><path d="m7 17h1v1h-1z" fill="#83beec" stroke-width=".333333"/><path d="m34 15h3v3h-3z" fill="#ed8733"/><path d="m35 16h1v1h-1z" fill="#f8db8f" stroke-width=".333333"/><path d="m48 21h3v3h-3z" fill="#ed8733"/><path d="m49 22h1v1h-1z" fill="#f8db8f" stroke-width=".333333"/><path d="m20 35h3v3h-3z" fill="#ed8733"/><path d="m21 36h1v1h-1z" fill="#f8db8f" stroke-width=".333333"/><path d="m6 28h3v3h-3z" fill="#ed8733"/><path d="m7 29h1v1h-1z" fill="#f8db8f" stroke-width=".333333"/></svg>