<svg height="52" viewBox="0 0 60 52" width="60" xmlns="http://www.w3.org/2000/svg"><path d="m0 0h60v52h-60z" fill="#fafafa"/><g stroke-linecap="round"><g fill="#83beec" stroke="#0063b1"><path d="m53.5 24.5-4 4c.02474 5.119876-3.507577 8.338209-5.230469 10.875.252297-.225491.492998-.45879.72461-.697266l-.494141.822266c.661813-.399844 3.385116-3.764866 3.955078-4.294922 4.080167-3.794497 5.799014-10.308187 5.044922-10.705078z"/><path d="m7.5 17.5 4-4 1.782222-3.372107c-1.462014 1.505679-5.3805925 4.61651-6.2321277 6.310029z" stroke-linejoin="round"/><path d="m23.199219 7.1210938c-5.435044-.1300939-12.935681 4.0083812-11.990235 6.0117182 6.640311-2.818354 8.977326-2.201594 11.011719-1.349609 5.3444 3.628647 3.758795 10.724691 4.660156 16.089844.08911 3.112147 1.319111 11.444677 8.619141 13.626953 5.061005 1.476312 8.796444-1.440677 11.158203-4.884766-2.709544 1.421082-5.578365 1.408751-7.576172.8125-5.401469-2.03201-7.299523-6.081138-7.876953-10.890625-1.227452-7.782386.295299-16.9595021-5.705078-19.037109-.694176-.2403558-1.473414-.3591025-2.300781-.3789062z"/></g><g stroke="#ed8733"><path d="m3.5 33.5c-.8732605 2.159617 3.664994 7.118671 14 7s2.233397-21.080962 14-21.04661c11.766603.03435 14.474832 6.436111 14 7.04661" fill="none"/><path d="m7.5 29.5c-.8732605 2.159617 3.664994 7.118671 14 7s2.233397-21.080962 14-21.04661c11.766603.03435 14.474832 6.436111 14 7.04661" fill="none"/><g fill="#f8db8f"><path d="m7.5 29.5-3.9550781 3.998047c-.8599587 2.779478 4.2690034 5.678397 7.0175781 6.171875 2.6407.763988 4.895835.844128 6.9375.830078 1.969417-.02261 3.268544-.801972 4.164062-2.048828.325024-1.063868 1.592604-1.709721 2.515626-2.507813-1.050066.186185-1.573276.570786-3.167969.552735-1.690717.133673-5.196075-.338243-7.97461-1.294922-4.3090022-1.596178-6.1172181-4.266533-5.537109-5.701172z"/><path d="m30.544922 17.583984c-.017735.021865-.031358.048175-.048828.070313l.011718-.025391-3.8125 4.095703c-2.571017 2.761099-2.626373 8.799063-3.636718 13.173829l-1.558594 3.601562.21875-.214844-.091797.216797c.071676-.097558.130742-.214647.197266-.320312l2.474609-2.425782c3.473366-2.171502 3.167021-8.660504 4.335938-13.724609l.759765-1.783203z"/><path d="m35.5 15.453125c-.880362-.0026-2.363481-.08837-4.017578 1.197266-1.413753 1.098829-2.770973 2.614919-3.898438 3.955078-.768037.568154-1.367494 1.311056-1.830078 2.195312 4.596494-6.230348 14.62851-2.189025 17.095703-.216797 2.274284 1.732964 2.896154 3.600034 2.650391 3.916016 1.27358-1.345371 2.667508-2.838117 4-4 .474832-.610499-2.233397-7.012522-14-7.046875z"/></g></g></g></svg>