<svg height="52" viewBox="0 0 60 52" width="60" xmlns="http://www.w3.org/2000/svg"><path d="m0 0h60v52h-60z" fill="#fafafa"/><path d="m50.519531 29.730469c-.144166.461156-.317523.917409-.519531 1.367187v.03711c-.0056.01287-.009995.026212-.015625.039062.0068.108684.012305.217408.015625.326172 0 8.008129-9.178163 14.5-20.5 14.5-2.938378-.0062-5.84053-.459155-8.509766-1.328125v-3.972656-.003907-.037109l-.019531.03125-.015625.027344c-.328895-.102699-.645817-.218561-.964844-.332031v4.996093c.329099.122729.662544.239305 1 .34961v-.015625c2.685579.841677 5.581376 1.279045 8.509766 1.285156 11.641289 0 21.115109-6.671764 21.482422-15l.017578-.5v-1.660156zm-8.271484 9.230469c-.02549.01357-.050592.027525-.076172.041015.02555-.0135.050702-.027435.076172-.041015zm-1.308594.642578c-.08443.03836-.168714.07771-.253906.115234.08525-.03762.169408-.07677.253906-.115234zm-1.445312.603515c-.103986.03949-.209509.07696-.314453.115235.105003-.03838.210395-.07565.314453-.115235zm-1.53711.529297c-.111109.03438-.223918.06655-.335937.09961.111998-.033141.224831-.06515.335937-.09961zm-1.607422.445313c-.111064.02698-.224119.050471-.335937.076171.111815-.02579.224858-.049091.335937-.076171zm-1.628906.347656c-.164983.02982-.333646.051085-.5.078125.166311-.02718.335016-.048155.5-.078125zm-1.689453.255859c-.264441.03173-.533491.049539-.800781.074219.267146-.02492.53636-.042229.800781-.074219zm-1.726562.15625c-.596043.03612-1.197612.058424-1.804688.058594.606605-.000673 1.208406-.021894 1.804688-.058594z" fill="#ed8733"/><path d="m5.0214844 24.18164c-.0086718.101507-.0158337.203075-.0214844.304688.00499 5.391052 4.23811 10.335078 10.990234 12.835938v-3.955079h.03125c-5.313644-1.885466-9.2482375-5.222079-10.9999996-9.185547z" fill="#797774"/><path d="m29.259766 24.933598-9.269532 15.447265a21.5 15.5 0 0 0 9.509766 1.619141 21.5 15.5 0 0 0 21.019531-12.269531z" fill="#ed8733"/><path d="m29.742188 26.07227-8.242188 13.734375c2.528924.76607 5.2416 1.187788 8 1.193359 9.378928 0 17.269139-4.459618 19.707031-10.541016z" fill="#f8db8f"/><path d="m17.881359-54.889328h1v21h-1z" fill="#ed8733" opacity=".584" transform="matrix(-.22011044 .97547496 -.97547496 -.22011044 0 0)"/><path d="m25.5 3.9863281c-11.874122 0-21.5 6.9395859-21.5 15.4999999.00357 6.17652 5.0933541 11.762012 12.955078 14.216797l9.044922-15.074219v-14.6249998c-.166566-.00726-.333244-.013118-.5-.0175781zm-.5 1.0136719v13.351562l-8.488281 14.146485c-7.0343112-2.42726-11.500802-7.475744-11.511719-13.011719.0071782-7.866713 8.881402-14.2944586 20-14.486328z" fill="#3a3a38"/><path d="m25 5c-11.118598.1918694-19.9928218 6.619615-20 14.486328.010917 5.535975 4.477408 10.584459 11.511719 13.011719l8.488281-14.146485z" fill="#797774"/><path d="m31.5 3.9824219c-.166735.00316-.333413.00772-.5.013672v1 12.8789061 1.011842l21.181641 4.773314c.535642-1.359177.810978-2.764774.818359-4.177734 0-8.560414-9.625878-15.5000001-21.5-15.5000001z" fill="#0063b1"/><path d="m32 5v13.082031l19.550781 4.41211c.290566-.972221.449219-1.978306.449219-3.011719 0-7.888717-8.911504-14.2927939-20-14.482422z" fill="#83beec"/><path d="m15.990234 33.371094v4.996093a21.5 15.5 0 0 0 1 .34961v-5.072266l-.03516.05859c-.328899-.102697-.645817-.218561-.964844-.332031z" fill="#ed8733"/><path d="m49.982422 31.136723c-2.807257 6.45567-11.098071 10.852877-20.482422 10.863281-2.930277-.012273-5.826145-.456257-8.509766-1.304688v3.976563c2.669236.86897 5.571388 1.32191 8.509766 1.328125 11.321837 0 20.5-6.491871 20.5-14.5-.0037-.121141-.0096-.242244-.01758-.363281z" fill="#f8db8f"/><path d="m25 20.294922-8.044922 13.408203c-5.79831-1.810494-10.0813534-5.325878-11.9355468-9.523437-.0038171.102703-.0194369.203286-.0195312.30664.010917 5.535975 4.4774076 10.584459 11.511719 13.011719l8.488281-14.146485z" fill="#797774"/><path d="m26 18.628906-1 1.666016v3.05664l-8.005859 13.341797.005859-3.09375c.000354.000666-.046042.103166-.044922.103516-.328899-.102697-.645817-.218561-.964844-.332031v3.93164c-.256983-.095239-.517941-.186818-.767578-.289062-.838245-.343322-1.634139-.725678-2.384765-1.142578-.375314-.208451-.739771-.427062-1.091797-.652344-.349248-.223504-.686296-.45431-1.011719-.693359-.003753-.002758-.007968-.005054-.011719-.007813-.654295-.481396-1.2582614-.993154-1.8105466-1.53125-.2766338-.269526-.539403-.545934-.7890625-.828125s-.4872209-.571421-.7089844-.865234-.428148-.592091-.6210937-.896485c-.1803328-.284495-.3456194-.57433-.5-.867187-.0128523-.024381-.0283461-.04783-.0410157-.072266-.1594551-.307534-.3035437-.619866-.4335937-.935547-.0011012-.002673-.0028072-.005139-.0039063-.007812-.1198667-.291588-.2242866-.58704-.3183593-.884766-.0111922-.035421-.0262878-.069966-.0371094-.105468-.083446-.273759-.1478659-.551853-.2089844-.830079-.0125901-.057571-.0313486-.11413-.0429688-.171875-.067102-.331863-.1177831-.666821-.1523437-1.003906-.0350306-.341669-.0540052-.685251-.0546875-1.03125.0056507-.101613.0128126-.20318.0214844-.304687-.0003433-.000777-.0016181-.001175-.0019532-.001953-.0076249-.017262-.011989-.03545-.0195312-.052735v-.232422c-.6476281-1.403704-.999072-2.886523-1-4.408203v5 .212891h.0117188c.1195328 6.09122 5.1725775 11.577517 12.9433592 14.003906l.007813-.011719c.009348.002922.017987.006853.027343.009766v-.056641l9.009766-15.015625zm-9 14.970703c-.000039-.000074.003906-.001853.003906-.001953l-.003906-.001953zm-11.2929688-8.089843c.0322631.05491.0645273.109458.0976563.164062-.033046-.05457-.0654702-.109196-.0976563-.164062z" fill="#3a3a38"/><path d="m31 18.886719v2.988281 1.011719l21.181641 4.773437c.533424-1.353549.808799-2.753107.818359-4.160156.00004-.00585-.000031-.011728 0-.017578v-3.982422c-.004477.658912-.073094 1.315126-.193359 1.966797-.061207.332036-.138622.661626-.228516.990234-.010996.039713-.019821.079487-.03125.119141-.103589.363632-.224187.726079-.365234 1.083984l-.63086-.142578z" fill="#0063b1"/><path d="m32 19.111328v2.970703l19.550781 4.41211v-2.976563z" fill="#83beec"/></svg>