<svg height="52" viewBox="0 0 60 52" width="60" xmlns="http://www.w3.org/2000/svg"><path d="m0 0h60v52h-60z" fill="#fafafa"/><path d="m50 23.5c-.0044.843476-.108115 1.6839-.302734 2.513672-.05611.239205-.118037.477612-.189454.714844l.01172.002c-.144166.461156-.317524.917362-.519532 1.36714v.03711c-.0056.01287-.01.02621-.01563.03906.006787.108684.012308.21741.01563.326174 0 8.008129-9.178163 14.5-20.5 14.5-2.938378-.0062-5.84053-.459155-8.509766-1.328125v-3.972656-.0039-.03711l-.01953.03125-.01563.02734c-.328895-.102699-.645813-.218563-.96484-.332033v4.996093c.329099.122729.662544.239305 1 .34961v-.01563c2.685579.841677 5.581376 1.27905 8.509766 1.285161 11.641289 0 21.115109-6.671764 21.482422-15l.017578-.5zm-8.751953 12.460938c-.02549.01357-.05059.02753-.07617.04102.02555-.0135.0507-.02744.07617-.04102zm-1.308594.642578c-.08443.03836-.168714.07771-.253906.115234.08525-.03762.169408-.07677.253906-.115234zm-1.445312.603515c-.103986.03949-.209509.07696-.314453.115235.105003-.03838.210395-.07565.314453-.115235zm-1.53711.529297c-.111109.03438-.223918.06655-.335937.09961.111998-.03314.224831-.06515.335937-.09961zm-1.607422.445313c-.111064.02698-.224119.05047-.335937.07617.111815-.02579.224858-.04909.335937-.07617zm-1.628906.347656c-.164983.02982-.333646.05109-.5.07813.166311-.02718.335016-.04816.5-.07813zm-1.689453.255859c-.264441.03173-.533491.04954-.800781.07422.267146-.02492.53636-.04223.800781-.07422zm-1.726562.15625c-.596043.036123-1.197612.058424-1.804688.058594.606605-.000673 1.208406-.02189 1.804688-.05859z" fill="#ed8733"/><path d="m8.0214844 28.195312c-.0086718.101507-.0158337.203075-.0214844.304688.00499 5.391052 4.23811 10.335078 10.990234 12.835938v-3.955079h.03125c-5.313644-1.885466-9.2482375-5.222079-10.9999996-9.185547z" fill="#797774"/><path d="m28.259766 21.933594-9.269532 15.447265a21.5 15.5 0 0 0 9.509766 1.619141 21.5 15.5 0 0 0 21.019531-12.269531z" fill="#ed8733"/><path d="m28.742188 23.072266-8.242188 13.734375c2.528924.76607 5.2416 1.187788 8 1.193359 9.378928 0 17.269139-4.459618 19.707031-10.541016z" fill="#f8db8f"/><path d="m15.175041-53.253521h1v21h-1z" fill="#ed8733" opacity=".584" transform="matrix(-.22011044 .97547496 -.97547496 -.22011044 0 0)"/><path d="m28.5 8c-11.874122 0-21.5 6.939586-21.5 15.5.00357 6.17652 5.093354 11.762012 12.955078 14.216797l9.044922-15.074219v-14.6249999c-.166566-.007258-.333244-.0131178-.5-.0175781z" fill="#3a3a38"/><path d="m28 9.0136719c-11.118598.1918694-19.9928218 6.6196151-20 14.4863281.010917 5.535975 4.477408 10.584459 11.511719 13.011719l8.488281-14.146485z" fill="#797774"/><path d="m28.5 8c-.166735.00316-.333413.00772-.5.013672v1 12.878906 1.011842l21.181641 4.773314c.535642-1.359177.810978-2.764774.818359-4.177734 0-8.560414-9.625878-15.5-21.5-15.5z" fill="#0063b1"/><path d="m29 9.0175781v13.0820309l19.550781 4.41211c.290566-.972221.449219-1.978306.449219-3.011719 0-7.888717-8.911504-14.2927938-20-14.4824219z" fill="#83beec"/><path d="m18.990234 37.384766v4.996093a21.5 15.5 0 0 0 1 .34961v-5.072266l-.035156.058594c-.328899-.102697-.645817-.218561-.964844-.332031z" fill="#ed8733"/><path d="m48.982422 28.136719c-2.807257 6.45567-11.098071 10.852877-20.482422 10.863281-2.930277-.012273-5.826145-.456257-8.509766-1.304688v3.976563c2.669236.86897 5.571388 1.32191 8.509766 1.328125 11.321837 0 20.5-6.491871 20.5-14.5-.0037-.121141-.0096-.242244-.01758-.363281z" fill="#f8db8f"/><path d="m7 23.5v5 .212891h.015625a21.5 15.5 0 0 0 12.974609 14.001953v-5.015625c.000354.000666-.036283.017226-.035156.017578-.328899-.102697-.645817-.218561-.964844-.332031v3.951172c-6.752124-2.500862-10.985244-7.444886-10.990234-12.835938.0056507-.101613.0128126-.203181.0214844-.304688-.0079656-.018022-.0136092-.036639-.0214844-.054687v-.232422c-.6476281-1.403704-.999072-2.886523-1-4.408203zm12.990234 14.199219c-.000039-.000074.003936-.001876.003907-.001953a21.5 15.5 0 0 1 -.003907-.001954zm-11.2832028-8.175781c.0322628.054906.0645273.109458.0976563.164062-.0330458-.05457-.0654705-.109196-.0976563-.164062z" fill="#3a3a38"/><path d="m50 23.5c-.0044.843476-.108115 1.6839-.302734 2.513672-.05611.239205-.118037.477612-.189454.714844l.011719.001953c-.093714.299773-.219654.593488-.33789.888672v5.048828c.454609-1.174758.74479-2.398468.800781-3.667969l.017578-.5z" fill="#0063b1"/></svg>