<svg height="52" viewBox="0 0 60 52" width="60" xmlns="http://www.w3.org/2000/svg"><path d="m0 0h60v52h-60z" fill="#fafafa"/><path d="m12.277344 6-5.277344 5.279297-1 1v30.720703 1h38.851562l5.984376-6h.003906l.160156-.164062v-.835938-30-1zm.722656.9882812 37 .0117188v30h-37zm-1 .6972657v29.3144531.291016l-5 5.001953v-29.595703zm.708984 30.3027341 36.716797.011719-4.99414 5h-36.7207035z" fill="#3a3a38"/><path d="m43 42 4.200742-4.198093-10.700742-29.801907z" fill="#0063b1"/><path d="m42.926039 40.403195 3.003648-3.039914-7.723823-21.740611z" fill="#83beec"/><path d="m30 42v-1l6.5-33 6.5 33v1z" fill="#0063b1"/><path d="m31 41h11l-5.5-29z" fill="#83beec"/><path d="m34.136719 20-1.773438 9h8.273438l-1.773438-9z" fill="#ed8733"/><path d="m34.792969 21-1.328125 7h6.070312l-1.328125-7z" fill="#f8db8f"/><path d="m40.318359 18.636719-1.539062 1.285156.185547.966797 1.351562 7.070312.16211.84961.158203.191406 2.61914-2.183594-.361328-1.009765-2.21289-6.16211zm-.445312 1.68164 2.195312 6.177735-1.546875 1.291015-1.316406-6.910156v-.001953z" fill="#ed8733"/><path d="m39.873047 20.318359-.667969.556641 1.316406 6.912109 1.546875-1.291015z" fill="#f8db8f"/><path d="m36.5 8 2.279297 11.921875.185547.966797.091797.111328 1.625-1.355469-.363282-1.007812zm1.705078 7.623047 1.308594 3.685547-.523438.4375z" fill="#3a3a38"/><path d="m38.205078 15.623047.785156 4.123047.523438-.4375z" fill="#797774"/><path d="m36.5 8-2.560547 13h5.121094z" fill="#3a3a38"/><path d="m36.5 12-1.517578 8h3.035156z" fill="#797774"/><path d="m25 42 4.200742-4.198093-10.700742-23.801907z" fill="#0063b1"/><path d="m24.926039 40.403195 3.003648-3.039914-7.78324-17.100718z" fill="#83beec"/><path d="m12 42v-1l6.5-27 6.5 27v1z" fill="#0063b1"/><path d="m13 41h11l-5.5-23z" fill="#83beec"/><path d="m15.371094 27-2.167969 9h10.59375l-2.167969-9z" fill="#ed8733"/><path d="m16.109375 28-1.673828 7h8.128906l-1.673828-7z" fill="#f8db8f"/><path d="m18.5 14-3.371094 14h6.742188z" fill="#3a3a38"/><path d="m18.5 18-2.152344 9h4.304688z" fill="#797774"/><path d="m23.568359 25.273438-2.052734 1.714843.1875.808594 1.679687 7.238281.150391.648438.263672.316406 3.341797-2.787109-.429688-.953125-2.71289-6.033204z" fill="#ed8733"/><path d="m18.5 14 3.015625 12.988281.1875.808594.167969.203125 2.125-1.773438-.427735-.953124z" fill="#3a3a38"/><path d="m20.146484 20.261719 1.558594 6.568359 1.03711-.865234z" fill="#797774"/><path d="m23.173828 26.912109-1.208984 1.009766 1.642578 6.925781 2.302734-1.921875z" fill="#f8db8f"/></svg>