<svg height="30" viewBox="0 0 15 17.307692" width="30" xmlns="http://www.w3.org/2000/svg"><path d="m.0000011 16.153846h14.9999989v-15h-14.9999989z" fill="#fafafa"/><g fill="#1e8bcd"><path d="m.5769241 14.423076h1.153846v-1.153846h-1.153846z"/><path d="m4.0384619 4.6153848h1.153846v-1.153846h-1.153846z"/><path d="m2.942308 11.538461h1.153846v-1.153845h-1.153846z"/><path d="m6.3461539 12.692308h1.1538459v-1.153846h-1.1538459z"/><path d="m8.6538461 8.076923h1.1538459v-1.1538461h-1.1538459z"/><path d="m12.692307 15h1.153846v-1.153846h-1.153846z"/><path d="m11.538461 11.538462h1.153846v-1.153846h-1.153846z"/></g><path d="m.8653851 16.153846c-.01086386-1.153846.2884614-4.323942.8653845-4.326923.5769231-.003.5769231.581545 1.4423076.576923.8653845-.0046.8653846-6.9065107 1.7307691-6.9230768.8653845-.016566 1.1286244 5.1952748 2.0192306 5.1923078.8906062-.003 1.1538461-2.3017694 1.7307691-2.3076925.576923-.00592 1.1538468 4.0296245 2.019231 4.0384615.865384.0088 1.2033-1.727257 2.01923-1.730769.81593-.0035 1.414974 4.326923 1.442308 5.480769" fill="none" stroke="#ed3d3b" stroke-linecap="square" stroke-linejoin="round" stroke-width=".576923"/><path d="m-.57692287 16.730769v-16.15384603h16.15384487v16.15384603zm.57692303-.576923h14.99999884v-15h-14.99999884z" fill="#3a3a38"/></svg>