<svg height="52" viewBox="0 0 60 52" width="60" xmlns="http://www.w3.org/2000/svg"><path d="m0 0h60v52h-60z" fill="#fafafa"/><g stroke-linecap="round" stroke-linejoin="round"><g fill="#83beec" stroke="#0063b1"><path d="m35.5 16.5h14l4-4h-14z"/><path d="m7.5 16.5h14l4-4h-14z"/><path d="m21.5 16.5 4-4v-7l-4 4z"/><path d="m21.5 9.5h14l4-4h-14z"/><path d="m35.5 16.5 4-4v-7l-4 4z"/><path d="m49.5 16.5 4-4v-3l-4 4z"/></g><g fill="#f8db8f" stroke="#ed8733"><path d="m7.5 41.5h14l4-4h-14z"/><path d="m21.5 41.5 4-4v-11l-4 4z"/><path d="m21.5 30.5h14l4-4h-14z"/><path d="m35.5 30.5 4-4v-5l-4 4z"/><path d="m35.5 25.5h14l4-4h-14z"/></g></g></svg>