<svg height="52" viewBox="0 0 60 52" width="60" xmlns="http://www.w3.org/2000/svg"><path d="m0 0h60v52h-60z" fill="#fafafa"/><path d="m34 15h3v3h-3z" fill="#0063b1"/><path d="m35 16h1v1h-1z" fill="#83beec" stroke-width=".333333"/><path d="m48 12h3v3h-3z" fill="#0063b1"/><path d="m49 13h1v1h-1z" fill="#83beec" stroke-width=".333333"/><path d="m20 8h3v3h-3z" fill="#0063b1"/><path d="m21 9h1v1h-1z" fill="#83beec" stroke-width=".333333"/><path d="m6 15h3v3h-3z" fill="#0063b1"/><path d="m7 16h1v1h-1z" fill="#83beec" stroke-width=".333333"/><path d="m34 24h3v3h-3z" fill="#ed8733"/><path d="m35 25h1v1h-1z" fill="#f8db8f" stroke-width=".333333"/><path d="m48 24h3v3h-3z" fill="#ed8733"/><path d="m49 25h1v1h-1z" fill="#f8db8f" stroke-width=".333333"/><path d="m20 29h3v3h-3z" fill="#ed8733"/><path d="m21 30h1v1h-1z" fill="#f8db8f" stroke-width=".333333"/><path d="m6 40h3v3h-3z" fill="#ed8733"/><path d="m7 41h1v1h-1z" fill="#f8db8f" stroke-width=".333333"/></svg>