<svg height="52" viewBox="0 0 60 52" width="60" xmlns="http://www.w3.org/2000/svg"><path d="m0 0h60v52h-60z" fill="#fafafa"/><g fill="#3a3a38"><path d="m6 45h47v1h-47z" stroke-width=".950708"/><path d="m5 6h1v40h-1z" stroke-width=".932505"/><path d="m21 20h1v14h-1z" stroke-width="1.247219"/><path d="m27 6h1v16h-1z" stroke-width="1.333333"/><path d="m37 28h5v8h-5z" stroke-width="1.632993"/><path d="m39 25h1v16h-1z" stroke-width="1.333333"/><path d="m49 10h5v8h-5z" stroke-width="1.85164"/><path d="m51 4h1v16h-1z" stroke-width="1.449486"/><path d="m45 20h2v1h-2z" stroke-width=".414039"/><path d="m45 12h1v15h-1z" stroke-width="1.403459"/><path d="m31 20h5v8h-5z" stroke-width="1.632993"/><path d="m33 16h1v15h-1z" stroke-width="1.290994"/><path d="m15 18h1v14h-1z" stroke-width="1.247219"/><path d="m9 28h1v13h-1z" stroke-width="1.20185"/></g><path d="m50 11h3v6h-3z" fill="#fafafa" stroke-width="1.242118"/><path d="m43 15h5v7h-5z" fill="#797774" stroke-width="1.732051"/><path d="m38 29h3v6h-3z" fill="#fafafa" stroke-width="1.095445"/><path d="m44 16h3v5h-3z" fill="#3a3a38" stroke-width="1.133893"/><path d="m32 21h3v6h-3z" fill="#fafafa" stroke-width="1.095445"/><path d="m25 10h5v7h-5z" fill="#797774" stroke-width="1.527525"/><path d="m26 11h3v5h-3z" fill="#3a3a38"/><path d="m19 23.105932h5v7.894068h-5z" fill="#3a3a38" stroke-width="1.622145"/><path d="m20 24h3v6h-3z" fill="#fafafa" stroke-width="1.095445"/><path d="m13 21h5v7h-5z" fill="#797774" stroke-width="1.527525"/><path d="m14 22h3v5h-3z" fill="#3a3a38"/><path d="m7 30h5v7h-5z" fill="#797774" stroke-width="1.527525"/><path d="m8 31h3v5h-3z" fill="#3a3a38"/></svg>