<svg height="52" viewBox="0 0 60 52" width="60" xmlns="http://www.w3.org/2000/svg"><path d="m0 0h60v52h-60z" fill="#fafafa"/><g fill="#3a3a38"><path d="m6 45h47v1h-47z" stroke-width=".950708"/><path d="m5 6h1v40h-1z" stroke-width=".932505"/><path d="m22 27h2v.894068h-2z" stroke-width=".345267"/><path d="m21 21h1v13h-1z" stroke-width="1.20185"/><path d="m28 13h2v1h-2z" stroke-width=".365148"/><path d="m27 8h1v12h-1z" stroke-width="1.154701"/><path d="m40 30h2v1h-2z" stroke-width=".365148"/><path d="m39 26h1v13h-1z" stroke-width="1.20185"/><path d="m52 12h2v1h-2z" stroke-width=".414039"/><path d="m51 6h1v12h-1z" stroke-width="1.255292"/><path d="m46 20h2v1h-2z" stroke-width=".414039"/><path d="m45 13h1v11h-1z" stroke-width="1.201851"/><path d="m34 23h2v1h-2z" stroke-width=".365148"/><path d="m33 18h1v12h-1z" stroke-width="1.154701"/><path d="m16 23h2v.894068h-2z" stroke-width=".345267"/><path d="m15 19h1v11h-1z" stroke-width="1.105542"/><path d="m10 34h2v.894068h-2z" stroke-width=".345267"/><path d="m9 30h1v10h-1z" stroke-width="1.054093"/></g></svg>