<svg height="52" viewBox="0 0 60 52" width="60" xmlns="http://www.w3.org/2000/svg"><path d="m0 0h60v52h-60z" fill="#fafafa"/><g fill="#0063b1"><path d="m9 28h7v17h-7z" stroke-width=".699794"/><path d="m20 20h7v25h-7z" stroke-width=".881917"/><path d="m31 29h7v16h-7z" stroke-width=".644061"/><path d="m42 22h7v23h-7z" stroke-width=".922958"/></g><g fill="#3a3a38"><path d="m3 45h52v1h-52z"/><path d="m5 6h1v40h-1z" stroke-width=".932505"/><path d="m13 22h3v1h-3z" stroke-width=".447214"/></g><path d="m10 29h5v16h-5z" fill="#83beec" stroke-width=".573775"/><g fill="#3a3a38"><path d="m12 18h1v13h-1z" stroke-width="1.20185"/><path d="m3 6h2v1h-2z"/><path d="m3 25h2v1h-2z"/></g><path d="m21 21h5v24h-5z" fill="#83beec" stroke-width=".730297"/><path d="m24 15h3v1h-3z" fill="#3a3a38" stroke-width=".447214"/><path d="m23 10h1v13h-1z" fill="#3a3a38" stroke-width="1.201851"/><path d="m32 30h5v15h-5z" fill="#83beec" stroke-width=".527046"/><path d="m35 24h3v1h-3z" fill="#3a3a38" stroke-width=".447214"/><path d="m34 22h1v13h-1z" fill="#3a3a38" stroke-width="1.20185"/><path d="m43 23h5v22h-5z" fill="#83beec" stroke-width=".762896"/><g fill="#3a3a38"><path d="m46 19h3v1h-3z" stroke-width=".507093"/><path d="m45 13h1v12h-1z" stroke-width="1.255292"/><path d="m53 6h-1v40h1z" stroke-width=".932505"/><path d="m55 6h-2v1h2z"/><path d="m55 9h-2v1h2z"/><path d="m55 11.5h-2v1h2z"/><path d="m55 14.5h-2v1h2z"/><path d="m55 18h-2v1h2z"/><path d="m55 21h-2v1h2z"/><path d="m55 23.5h-2v1h2z"/><path d="m55 26.5h-2v1h2z"/><path d="m55 30h-2v1h2z"/><path d="m55 33h-2v1h2z"/><path d="m55 35.5h-2v1h2z"/><path d="m55 38.5h-2v1h2z"/><path d="m55 42h-2v1h2z"/></g></svg>