<svg viewBox="0 0 16 16" xmlns="http://www.w3.org/2000/svg"><path d="m7.2832031 7-.2832031.2890625-5.140625 5.1406255a7.5 7.5 0 0 0 .2324219.263671l.0859375.085938a7.5 7.5 0 0 0 5.3222656 2.220703 7.5 7.5 0 0 0 7.5-7.5 7.5 7.5 0 0 0 -.017578-.5h-6.982422z" fill="#0063b1"/><path d="m7.703125 8-4.4316406 4.431641c1.1771537 1.010693 2.6770037 1.566988 4.2285156 1.568359 3.39356-.0032 6.213567-2.616493 6.474609-6h-5.974609z" fill="#83beec"/><path d="m7 7.2890625-5.15625 5.1562495.7070312.707032 5.1523438-5.152344h.296875 7v-1h-7-.7173835z" fill="#797774"/><path d="m7.5 0a7.5 7.5 0 0 0 -7.5 7.5 7.5 7.5 0 0 0 2.5644531 5.638672l5.1386719-5.138672.296875-.2753906v-.7246094-6.97460937a7.5 7.5 0 0 0 -.5-.02539063z" fill="#3a3a38"/><path d="m7 1.0214844c-3.3850032.2611585-5.9988378 3.0834532-6 6.4785156.00222 1.549247.5577291 3.046756 1.5664062 4.222656l4.4335938-4.4335935zm1 .00391c-5.3333333 9.9830734-2.6666667 4.9915365 0 0z" fill="#797774"/><path d="m7.5 0a7.5 7.5 0 0 0 -.5.01757813v7.98242187h7.974609a7.5 7.5 0 0 0 .025391-.5 7.5 7.5 0 0 0 -7.5-7.5z" fill="#ed8733"/><path d="m8 1.0253906v5.9746094h5.978516a6.5 6.5 0 0 0 -5.978516-5.9746094z" fill="#f8db8f"/></svg>