<svg height="52" viewBox="0 0 60 52" width="60" xmlns="http://www.w3.org/2000/svg"><path d="m0 0h60v52h-60z" fill="#fafafa"/><g stroke-linecap="round" stroke-linejoin="round"><g fill="none"><path d="m8.5 44.5c-1.0364341-2.218715-4.14245-29.05697 17-35 8.61056-2.4203828 20.216985 3.895138 24 12 3.043441 6.520372-5 21-5 21" stroke="#0063b1"/><path d="m55.5 29.5s-10.749086 2.372081-16 4c-7.827236 2.426645-29.044376 2.982539-31-15-.7264985-6.680368 7.412968-10.342874 9-9" stroke="#ed8733"/><path d="m12.5 40.5c-1.036434-2.218715-4.14245-29.05697 17-35 8.61056-2.4203828 20.216985 3.895138 24 12 3.043441 6.520372-5 21-5 21" stroke="#0063b1"/></g><path d="m32.847656 4.9882812c-1.148809.0431184-2.271336.209171-3.347656.5117188-5.382461 1.5129811-9.183873 4.3849726-11.857422 7.855469-.09024.06894-.184756.135059-.273437.205078l.05859.06055.228483-.121955c6.664519-5.6087214 14.64478-5.9457539 22.351753-1.625062 4.27601 2.397222 9.47345 7.141673 10.04643 11.601177.746315 5.808576-2.060951 12.574574-5.601275 19.07748l4.046878-4.052737s8.043441-14.479628 5-21c-3.310138-7.091754-12.610678-12.8135472-20.652344-12.5117188z" fill="#83beec" stroke="#0063b1"/><path d="m17.439453 13.503906c-12.1852609 9.536648-9.8181767 29.114993-8.939453 30.996094l4.003906-4.013672c-.699514-2.297107-2.6541765-16.41983 4.935547-26.982422z" fill="#83beec" stroke="#0063b1"/><g fill="#f8db8f" stroke="#ed8733"><path d="m9.1933594 14.298828c-2.5415293 1.453012-5.1157823 4.316869-4.6933594 8.201172 1.9556239 17.982539 23.172764 17.426645 31 15 5.230607-1.621623 15.870547-3.972004 15.953125-3.990234l.05859.02734 3.988285-4.037106s-4.090799.91581-8.439453 1.984375c-5.976726 1.264941-14.147936 4.774183-25.018953 2.225342-2.845996-.667278-6.252317-2.417062-8.020684-4.039233-3.807207-3.545651-7.0355338-9.147846-4.7611444-15.36189-.00286.0057-.00497.01189-.00781.01758z"/><path d="m16.806641 9.3105469c-2.128354-.010527-7.5321766 2.8562051-9.3281254 6.2070311-.011385.0099-.023801.01741-.035156.02734l.023437-.0078c-.0039.0073-.00981.01414-.013672.02149-.016258.03089.081861-.02187.1875-.08008 3.281779-2.082092 4.61813-2.665677 5.835937-1.884766l4.0234384-4.093762c-.150021-.126941-.388048-.187943-.693359-.1894531z"/></g></g></svg>