<svg height="52" viewBox="0 0 60 52" width="60" xmlns="http://www.w3.org/2000/svg"><path d="m0 0h60v52h-60z" fill="#fafafa"/><path d="m25 6h3v3h-3z" fill="#0063b1"/><path d="m26 7h1v1h-1z" fill="#83beec" stroke-width=".333333"/><path d="m49 18h3v3h-3z" fill="#0063b1"/><path d="m50 19h1v1h-1z" fill="#83beec" stroke-width=".333333"/><path d="m8 41h3v3h-3z" fill="#0063b1"/><path d="m9 42h1v1h-1z" fill="#83beec" stroke-width=".333333"/><path d="m35 34h3v3h-3z" fill="#ed8733"/><path d="m36 35h1v1h-1z" fill="#f8db8f" stroke-width=".333333"/><path d="m51 30h3v3h-3z" fill="#ed8733"/><path d="m52 31h1v1h-1z" fill="#f8db8f" stroke-width=".333333"/><path d="m4 19h3v3h-3z" fill="#ed8733"/><path d="m5 20h1v1h-1z" fill="#f8db8f" stroke-width=".333333"/><path d="m13 10h3v3h-3z" fill="#ed8733"/><path d="m14 11h1v1h-1z" fill="#f8db8f" stroke-width=".333333"/><path d="m44 39h3v3h-3z" fill="#0063b1"/><path d="m45 40h1v1h-1z" fill="#83beec" stroke-width=".333333"/></svg>