<svg viewBox="0 0 32 32" xmlns="http://www.w3.org/2000/svg"><path d="m19.001953 9.501926c0-.127809.04855-.25558.146485-.353515.195869-.195868.513115-.195868.708984 0l4.142578 4.140625v-10.7929702c0-.277.223-.5.5-.5s.5.223.5.5v10.7929702l4.142578-4.140625c.195869-.195868.513116-.195868.708984 0 .09794.09793.146485.225706.146485.353515s-.04855.257539-.146485.355469l-4.998046 4.992188c-.04701.04702-.103236.08408-.166016.109375-.0579.02334-.12105.03711-.1875.03711s-.129596-.01377-.1875-.03711c-.06278-.0253-.119003-.06236-.166016-.109375l-4.998046-4.992189c-.09793-.09793-.146485-.22766-.146485-.355468z" fill="#1e8bcd"/><path d="m17 7v22h2l.000006-9h3.999994v-2h-3.999993l-.000007-11zm-14 4v2h8.830379c-.04473 2.264231-.291534 4.985296-1.134219 7.305191-1.0599065 2.917904-3.909004 5.312482-7.69616 5.310194v2.256404c4.8045384.003 7.999098-2.753387 9.35618-6.489413 1.357084-3.736027 1.707456-6.133542 1.64382-8.73855v-1.643826z" fill="#3a3a38" fill-rule="evenodd" stroke-width="1.037795"/></svg>