<svg viewBox="0 0 32 32" xmlns="http://www.w3.org/2000/svg"><g transform="matrix(0 1 -1 0 32 0)"><path d="m3 4h26v24h-26z" fill="#3a3a38"/><path d="m4 5h24v22h-24z" fill="#fafafa"/><g fill="#797774" transform="rotate(90)"><rect height="4" opacity=".99" ry=".5" width="1" x="8" y="-26"/><rect height="4" opacity=".99" ry=".5" width="1" x="12" y="-26"/><rect height="4" opacity=".99" ry=".5" width="1" x="16" y="-26"/><rect height="20" opacity=".99" ry=".472666" width="1" x="23" y="-26"/><rect height="4" opacity=".99" ry=".472666" width="1" x="19" y="-26"/></g><path d="m6 11h14v-2h-5v-3h-2v3h-7zm2 9h2v-6c4.456932.247361 6.97045 2.461785 7 6h2c-.06001-6.400071-5.789744-8.124987-9.542969-8h-1.457031z" fill="#1e8bcd" fill-rule="evenodd"/></g></svg>