<?xml version="1.0" encoding="UTF-8" standalone="no"?>
<svg
   xmlns:dc="http://purl.org/dc/elements/1.1/"
   xmlns:cc="http://creativecommons.org/ns#"
   xmlns:rdf="http://www.w3.org/1999/02/22-rdf-syntax-ns#"
   xmlns:svg="http://www.w3.org/2000/svg"
   xmlns="http://www.w3.org/2000/svg"
   xmlns:sodipodi="http://sodipodi.sourceforge.net/DTD/sodipodi-0.dtd"
   xmlns:inkscape="http://www.inkscape.org/namespaces/inkscape"
   version="1.1"
   id="svg252"
   sodipodi:docname="al21809.svg"
   width="23"
   height="23"
   inkscape:version="0.92.4 (5da689c313, 2019-01-14)">
  <metadata
     id="metadata258">
    <rdf:RDF>
      <cc:Work
         rdf:about="">
        <dc:format>image/svg+xml</dc:format>
        <dc:type
           rdf:resource="http://purl.org/dc/dcmitype/StillImage" />
        <dc:title></dc:title>
      </cc:Work>
    </rdf:RDF>
  </metadata>
  <defs
     id="defs256" />
  <sodipodi:namedview
     pagecolor="#ffffff"
     bordercolor="#666666"
     borderopacity="1"
     objecttolerance="10"
     gridtolerance="10"
     guidetolerance="10"
     inkscape:pageopacity="0"
     inkscape:pageshadow="2"
     inkscape:window-width="1920"
     inkscape:window-height="995"
     id="namedview254"
     showgrid="false"
     fit-margin-top="0"
     fit-margin-left="0"
     fit-margin-right="0"
     fit-margin-bottom="0"
     inkscape:zoom="2.36"
     inkscape:cx="-31.37961"
     inkscape:cy="-32.28"
     inkscape:window-x="0"
     inkscape:window-y="0"
     inkscape:window-maximized="1"
     inkscape:current-layer="svg252" />
  <path
     d="m 5.0645,19.8379 v 0.38 q -3.133,-2.62 -3.133,-8.778 0,-6.2270001 3.133,-8.7978001 v 0.3985 q -2.282,2.2503 -2.282,8.3993001 0,6.208 2.282,8.398 z"
     id="path244"
     inkscape:connector-curvature="0" />
  <path
     d="m 13.1285,9.3959002 0.66,0.146 -0.05,0.264 h -1.67 l 0.17,-0.914 q -0.99,1.037 -1.81,1.037 -0.709,0 -1.143,-0.521 -0.428,-0.522 -0.428,-1.4360001 0,-1.0250003 0.446,-1.9160003 0.451,-0.896 1.201,-1.395 0.754,-0.503 1.624,-0.503 0.71,0 1.34,0.246 l 0.26,-0.2 h 0.32 z m -0.17,-4.4940003 q -0.23,-0.158 -0.43,-0.217 -0.2,-0.065 -0.49,-0.065 -0.59,0 -1.08,0.446 -0.489,0.439 -0.771,1.189 -0.281,0.75 -0.281,1.5650003 0,0.627 0.258,1.002 0.258,0.375 0.704,0.375 0.66,0 1.45,-0.815 z"
     id="path246"
     inkscape:connector-curvature="0" />
  <path
     d="m 9.9185,11.8159 -0.779,-0.14 0.047,-0.264 h 1.762 l -0.438,2.586 q -0.1,0.67 -0.229,1.13 0.469,-0.48 0.957,-0.76 0.5,-0.28 0.92,-0.28 0.73,0 1.17,0.52 0.44,0.52 0.44,1.43 0,1.01 -0.44,1.91 -0.43,0.89 -1.2,1.4 -0.77,0.51 -1.677,0.51 -0.515,0 -1.013,-0.13 -0.493,-0.14 -0.862,-0.36 z m -0.334,7.292 q 0.34,0.28 0.943,0.28 0.601,0 1.101,-0.44 0.51,-0.44 0.8,-1.18 0.29,-0.75 0.29,-1.57 0,-0.66 -0.27,-1.02 -0.27,-0.36 -0.73,-0.36 -0.35,0 -0.75,0.23 -0.4,0.23 -0.763,0.58 z"
     id="path248"
     inkscape:connector-curvature="0" />
  <path
     d="m 17.9385,19.9779 q 2.29,-2.2 2.29,-8.398 0,-6.1100001 -2.29,-8.3993001 V 2.7820998 q 1.71,1.3598 2.49,4.0158 0.64,2.0940004 0.64,4.7820002 0,6.238 -3.13,8.778 z"
     id="path250"
     inkscape:connector-curvature="0" />
</svg>
