<?xml version="1.0" encoding="UTF-8" standalone="no"?>
<svg
   xmlns:dc="http://purl.org/dc/elements/1.1/"
   xmlns:cc="http://creativecommons.org/ns#"
   xmlns:rdf="http://www.w3.org/1999/02/22-rdf-syntax-ns#"
   xmlns:svg="http://www.w3.org/2000/svg"
   xmlns="http://www.w3.org/2000/svg"
   xmlns:sodipodi="http://sodipodi.sourceforge.net/DTD/sodipodi-0.dtd"
   xmlns:inkscape="http://www.inkscape.org/namespaces/inkscape"
   version="1.1"
   id="svg188"
   sodipodi:docname="al21812.svg"
   width="23"
   height="23"
   inkscape:version="0.92.4 (5da689c313, 2019-01-14)">
  <metadata
     id="metadata194">
    <rdf:RDF>
      <cc:Work
         rdf:about="">
        <dc:format>image/svg+xml</dc:format>
        <dc:type
           rdf:resource="http://purl.org/dc/dcmitype/StillImage" />
        <dc:title></dc:title>
      </cc:Work>
    </rdf:RDF>
  </metadata>
  <defs
     id="defs192" />
  <sodipodi:namedview
     pagecolor="#ffffff"
     bordercolor="#666666"
     borderopacity="1"
     objecttolerance="10"
     gridtolerance="10"
     guidetolerance="10"
     inkscape:pageopacity="0"
     inkscape:pageshadow="2"
     inkscape:window-width="1920"
     inkscape:window-height="995"
     id="namedview190"
     showgrid="false"
     fit-margin-top="0"
     fit-margin-left="0"
     fit-margin-right="0"
     fit-margin-bottom="0"
     inkscape:zoom="2.36"
     inkscape:cx="-31.35161"
     inkscape:cy="-32.49"
     inkscape:window-x="0"
     inkscape:window-y="0"
     inkscape:window-maximized="1"
     inkscape:current-layer="svg188" />
  <path
     d="m 5.0495,19.756 h -0.086 q -1.047,0 -1.594,-0.71 -0.516,-0.63 -0.516,-1.7 l 0.016,-4.72 q 0,-0.996 -0.977,-1.004 v -0.258 l 0.289,-0.016 q 0.688,-0.117 0.688,-1.007 L 2.8535,5.6209999 q 0,-1.078 0.57,-1.719 Q 3.9865,3.254 5.0495,3.254 v 0.258 l -0.36,0.023 -0.289,0.078 q -0.898,0.3440001 -0.922,1.79 L 3.4165,9.8950001 Q 3.3925,11.005 2.3925,11.497 q 1,0.476 1.024,1.619 l 0.062,4.48 q 0.031,1.89 1.531,1.9 0.024,0 0.04,0 z"
     id="path180"
     inkscape:connector-curvature="0" />
  <path
     d="m 13.1175,9.0040001 0.66,0.146 -0.05,0.264 h -1.67 l 0.17,-0.914 q -0.99,1.037 -1.81,1.037 -0.709,0 -1.143,-0.5210001 -0.428,-0.522 -0.428,-1.436 0,-1.0250001 0.446,-1.9160001 0.451,-0.896 1.201,-1.395 0.754,-0.503 1.624,-0.503 0.71,0 1.34,0.246 l 0.26,-0.2 h 0.32 z m -0.17,-4.4940002 q -0.23,-0.158 -0.43,-0.2169999 -0.2,-0.065 -0.49,-0.065 -0.59,0 -1.08,0.446 -0.489,0.439 -0.771,1.189 -0.281,0.75 -0.281,1.5650001 0,0.6270001 0.258,1.0020001 0.258,0.375 0.704,0.375 0.66,0 1.45,-0.815 z"
     id="path182"
     inkscape:connector-curvature="0" />
  <path
     d="m 9.9075,11.424 -0.779,-0.14 0.047,-0.264 h 1.762 l -0.438,2.586 q -0.1,0.67 -0.229,1.13 0.469,-0.48 0.957,-0.76 0.5,-0.28 0.92,-0.28 0.73,0 1.17,0.52 0.44,0.52 0.44,1.43 0,1.01 -0.44,1.91 -0.43,0.89 -1.2,1.4 -0.77,0.51 -1.677,0.51 -0.515,0 -1.013,-0.13 -0.493,-0.14 -0.862,-0.36 z m -0.334,7.292 q 0.34,0.28 0.943,0.28 0.601,0 1.101,-0.44 0.51,-0.44 0.8,-1.18 0.29,-0.75 0.29,-1.57 0,-0.66 -0.27,-1.02 -0.27,-0.36 -0.73,-0.36 -0.35,0 -0.75,0.23 -0.4,0.23 -0.763,0.58 z"
     id="path184"
     inkscape:connector-curvature="0" />
  <path
     d="m 17.9475,19.746 v -0.26 l 0.36,-0.02 q 1.21,-0.21 1.21,-1.88 0,-0.75 -0.05,-2.26 -0.04,-1.48 -0.04,-2.24 0,-1.06 1.03,-1.599 -1.03,-0.492 -1.03,-1.602 0,-0.742 0.04,-2.258 0.05,-1.5000001 0.05,-2.2500001 0,-1.875 -1.57,-1.875 v -0.258 h 0.08 q 1.03,0 1.57,0.664 0.54,0.664 0.54,1.719 0,0.852 -0.1,2.3520001 -0.09,1.57 -0.09,2.352 0,1.023 1.03,1.023 h 0.13 v 0.258 l -0.35,0.016 q -0.81,0.109 -0.81,1.008 0,0.79 0.09,2.35 0.1,1.52 0.1,2.35 0,2.41 -2.19,2.41 z"
     id="path186"
     inkscape:connector-curvature="0" />
</svg>
