<?xml version="1.0" encoding="UTF-8" standalone="no"?>
<svg
   xmlns:dc="http://purl.org/dc/elements/1.1/"
   xmlns:cc="http://creativecommons.org/ns#"
   xmlns:rdf="http://www.w3.org/1999/02/22-rdf-syntax-ns#"
   xmlns:svg="http://www.w3.org/2000/svg"
   xmlns="http://www.w3.org/2000/svg"
   xmlns:sodipodi="http://sodipodi.sourceforge.net/DTD/sodipodi-0.dtd"
   xmlns:inkscape="http://www.inkscape.org/namespaces/inkscape"
   version="1.1"
   id="svg87"
   sodipodi:docname="at21702.svg"
   width="11.278"
   height="11.278"
   inkscape:version="0.92.4 (5da689c313, 2019-01-14)">
  <metadata
     id="metadata93">
    <rdf:RDF>
      <cc:Work
         rdf:about="">
        <dc:format>image/svg+xml</dc:format>
        <dc:type
           rdf:resource="http://purl.org/dc/dcmitype/StillImage" />
        <dc:title></dc:title>
      </cc:Work>
    </rdf:RDF>
  </metadata>
  <defs
     id="defs91" />
  <sodipodi:namedview
     pagecolor="#ffffff"
     bordercolor="#666666"
     borderopacity="1"
     objecttolerance="10"
     gridtolerance="10"
     guidetolerance="10"
     inkscape:pageopacity="0"
     inkscape:pageshadow="2"
     inkscape:window-width="1920"
     inkscape:window-height="995"
     id="namedview89"
     showgrid="false"
     fit-margin-top="0"
     fit-margin-left="0"
     fit-margin-right="0"
     fit-margin-bottom="0"
     inkscape:zoom="9.44"
     inkscape:cx="47.361215"
     inkscape:cy="-16.724037"
     inkscape:window-x="0"
     inkscape:window-y="0"
     inkscape:window-maximized="1"
     inkscape:current-layer="svg87" />
  <path
     d="m 7.8659999,10.568 0.883,0.2 -0.063,0.35 h -2.227 l 0.227,-1.2199998 q -1.321,1.3799998 -2.414,1.3799998 -0.946,0 -1.524,-0.69 -0.57,-0.6999998 -0.57,-1.9159998 0,-1.367 0.593,-2.554 0.602,-1.196 1.602,-1.86 1,-0.672 2.172,-0.672 0.946,0 1.782,0.328 l 0.351,-0.265 h 0.422 z m -0.227,-5.9899998 q -0.305,-0.211 -0.57,-0.289 -0.266,-0.086 -0.657,-0.086 -0.781,0 -1.437,0.594 -0.649,0.586 -1.024,1.586 -0.375,1 -0.375,2.086 0,0.839 0.344,1.339 0.344,0.4999998 0.938,0.4999998 0.882,0 1.929,-1.0899998 z m -0.312,-2.195 -2.399,-2.09399996 0.047,-0.28899999585938 h 1.586 L 7.7949999,2.1250002 l -0.039,0.258 z"
     id="path85"
     inkscape:connector-curvature="0" />
</svg>
