<?xml version="1.0" encoding="UTF-8" standalone="no"?>
<svg
   xmlns:dc="http://purl.org/dc/elements/1.1/"
   xmlns:cc="http://creativecommons.org/ns#"
   xmlns:rdf="http://www.w3.org/1999/02/22-rdf-syntax-ns#"
   xmlns:svg="http://www.w3.org/2000/svg"
   xmlns="http://www.w3.org/2000/svg"
   xmlns:sodipodi="http://sodipodi.sourceforge.net/DTD/sodipodi-0.dtd"
   xmlns:inkscape="http://www.inkscape.org/namespaces/inkscape"
   version="1.1"
   id="svg4"
   sodipodi:docname="at21709.svg"
   width="11.7234"
   height="11.7234"
   inkscape:version="0.92.4 (5da689c313, 2019-01-14)">
  <metadata
     id="metadata10">
    <rdf:RDF>
      <cc:Work
         rdf:about="">
        <dc:format>image/svg+xml</dc:format>
        <dc:type
           rdf:resource="http://purl.org/dc/dcmitype/StillImage" />
        <dc:title></dc:title>
      </cc:Work>
    </rdf:RDF>
  </metadata>
  <defs
     id="defs8" />
  <sodipodi:namedview
     pagecolor="#ffffff"
     bordercolor="#666666"
     borderopacity="1"
     objecttolerance="10"
     gridtolerance="10"
     guidetolerance="10"
     inkscape:pageopacity="0"
     inkscape:pageshadow="2"
     inkscape:window-width="819"
     inkscape:window-height="480"
     id="namedview6"
     showgrid="false"
     fit-margin-top="0"
     fit-margin-left="0"
     fit-margin-right="0"
     fit-margin-bottom="0"
     inkscape:zoom="2.36"
     inkscape:cx="49.0013"
     inkscape:cy="-37.45"
     inkscape:window-x="204"
     inkscape:window-y="122"
     inkscape:window-maximized="0"
     inkscape:current-layer="svg4" />
  <path
     d="m 8.0888501,11.0134 0.883,0.2 -0.063,0.35 h -2.227 l 0.227,-1.22 q -1.321,1.38 -2.414,1.38 -0.946,0 -1.524,-0.69 -0.5703,-0.7 -0.5703,-1.9160002 0,-1.367 0.5933,-2.554 0.602,-1.196 1.602,-1.86 1,-0.672 2.172,-0.672 0.946,0 1.782,0.328 l 0.351,-0.265 h 0.422 z m -0.227,-5.9900002 q -0.305,-0.211 -0.57,-0.289 -0.266,-0.086 -0.657,-0.086 -0.781,0 -1.437,0.594 -0.649,0.586 -1.024,1.586 -0.375,1 -0.375,2.086 0,0.839 0.344,1.3390002 0.344,0.5 0.938,0.5 0.882,0 1.929,-1.0900002 z m 0.867,-3.437 q 0,0.656 -0.468,1.125 -0.461,0.461 -1.118,0.461 -0.656,0 -1.125,-0.461 -0.461,-0.469 -0.461,-1.125 0,-0.65700004 0.461,-1.11800004 0.469,-0.4683999919336 1.125,-0.4683999919336 0.657,0 1.118,0.4683999919336 0.468,0.461 0.468,1.11800004 z m -0.625,0 q 0,-0.399 -0.281,-0.68000004 -0.281,-0.281 -0.68,-0.281 -0.398,0 -0.679,0.281 -0.282,0.28100004 -0.282,0.68000004 0,0.406 0.289,0.687 0.289,0.274 0.672,0.274 0.375,0 0.664,-0.274 0.297,-0.273 0.297,-0.687 z"
     id="path2"
     inkscape:connector-curvature="0" />
</svg>
