<?xml version="1.0" encoding="UTF-8" standalone="no"?>
<svg
   xmlns:dc="http://purl.org/dc/elements/1.1/"
   xmlns:cc="http://creativecommons.org/ns#"
   xmlns:rdf="http://www.w3.org/1999/02/22-rdf-syntax-ns#"
   xmlns:svg="http://www.w3.org/2000/svg"
   xmlns="http://www.w3.org/2000/svg"
   xmlns:sodipodi="http://sodipodi.sourceforge.net/DTD/sodipodi-0.dtd"
   xmlns:inkscape="http://www.inkscape.org/namespaces/inkscape"
   version="1.1"
   id="svg106"
   sodipodi:docname="bi21307.svg"
   width="24"
   height="24"
   inkscape:version="0.92.4 (5da689c313, 2019-01-14)">
  <metadata
     id="metadata112">
    <rdf:RDF>
      <cc:Work
         rdf:about="">
        <dc:format>image/svg+xml</dc:format>
        <dc:type
           rdf:resource="http://purl.org/dc/dcmitype/StillImage" />
        <dc:title></dc:title>
      </cc:Work>
    </rdf:RDF>
  </metadata>
  <defs
     id="defs110" />
  <sodipodi:namedview
     pagecolor="#ffffff"
     bordercolor="#666666"
     borderopacity="1"
     objecttolerance="10"
     gridtolerance="10"
     guidetolerance="10"
     inkscape:pageopacity="0"
     inkscape:pageshadow="2"
     inkscape:window-width="1920"
     inkscape:window-height="995"
     id="namedview108"
     showgrid="false"
     fit-margin-top="0"
     fit-margin-left="0"
     fit-margin-right="0"
     fit-margin-bottom="0"
     inkscape:zoom="2.36"
     inkscape:cx="-30.88201"
     inkscape:cy="-39.44"
     inkscape:window-x="0"
     inkscape:window-y="0"
     inkscape:window-maximized="1"
     inkscape:current-layer="svg106" />
  <path
     d="m 3.1013,10.3045 q 1.003,0 1.471,0.41 0.476,0.41 0.476,1.256 v 4.134 l 0.761,0.166 v 0.29 h -1.679 l -0.124,-0.612 q -0.742,0.742 -1.895,0.742 -1.5686,0 -1.5686,-1.823 0,-0.612 0.2344,-1.009 0.2412,-0.403 0.7622,-0.612 0.52,-0.215 1.51,-0.234 l 0.918,-0.026 v -0.957 q 0,-0.632 -0.234,-0.931 -0.228,-0.3 -0.71,-0.3 -0.651,0 -1.191,0.306 l -0.222,0.762 h -0.364 v -1.335 q 1.054,-0.227 1.855,-0.227 z m 0.866,3.138 -0.853,0.026 q -0.872,0.032 -1.185,0.338 -0.306,0.306 -0.306,1.022 0,1.146 0.931,1.146 0.443,0 0.762,-0.098 0.325,-0.104 0.651,-0.26 z"
     id="path100"
     inkscape:connector-curvature="0" />
  <path
     d="m 13.0673,11.9315 q -0.69,0 -1.6,-0.788 -0.48,-0.41 -0.8,-0.592 -0.31,-0.189 -0.56,-0.189 -0.501,0 -0.755,0.358 -0.254,0.352 -0.338,1.211 h -0.658 q 0.117,-1.217 0.547,-1.725 0.436,-0.514 1.204,-0.514 0.37,0 0.75,0.188 0.39,0.189 0.88,0.599 0.56,0.469 0.82,0.632 0.28,0.156 0.51,0.156 0.45,0 0.7,-0.338 0.25,-0.346 0.38,-1.237 h 0.67 q -0.11,0.846 -0.32,1.295 -0.21,0.449 -0.55,0.697 -0.35,0.247 -0.88,0.247 z m 0,2.669 q -0.69,0 -1.6,-0.787 -0.48,-0.411 -0.8,-0.593 -0.31,-0.189 -0.56,-0.189 -0.501,0 -0.755,0.358 -0.254,0.352 -0.338,1.211 h -0.658 q 0.117,-1.217 0.547,-1.725 0.436,-0.514 1.204,-0.514 0.37,0 0.75,0.189 0.39,0.188 0.88,0.599 0.56,0.468 0.82,0.631 0.28,0.156 0.51,0.156 0.45,0 0.7,-0.338 0.25,-0.345 0.38,-1.237 h 0.67 q -0.11,0.846 -0.32,1.295 -0.21,0.45 -0.55,0.697 -0.35,0.247 -0.88,0.247 z"
     id="path102"
     inkscape:connector-curvature="0" />
  <path
     d="m 22.2873,13.3315 q 0,-1.198 -0.41,-1.784 -0.42,-0.586 -1.29,-0.586 -0.39,0 -0.76,0.072 -0.38,0.065 -0.55,0.143 v 4.85 q 0.55,0.104 1.31,0.104 0.9,0 1.3,-0.703 0.4,-0.703 0.4,-2.096 z m -4.09,-5.573 -0.89,-0.156 v -0.293 h 1.97 v 2.187 q 0,0.352 -0.04,1.289 0.65,-0.508 1.64,-0.508 1.25,0 1.91,0.762 0.67,0.755 0.67,2.292 0,1.647 -0.73,2.506 -0.73,0.853 -2.12,0.853 -0.56,0 -1.23,-0.12 -0.67,-0.13 -1.18,-0.33 z"
     id="path104"
     inkscape:connector-curvature="0" />
</svg>
