<?xml version="1.0" encoding="UTF-8" standalone="no"?>
<svg
   xmlns:dc="http://purl.org/dc/elements/1.1/"
   xmlns:cc="http://creativecommons.org/ns#"
   xmlns:rdf="http://www.w3.org/1999/02/22-rdf-syntax-ns#"
   xmlns:svg="http://www.w3.org/2000/svg"
   xmlns="http://www.w3.org/2000/svg"
   xmlns:sodipodi="http://sodipodi.sourceforge.net/DTD/sodipodi-0.dtd"
   xmlns:inkscape="http://www.inkscape.org/namespaces/inkscape"
   version="1.1"
   id="svg274"
   sodipodi:docname="bi21309.svg"
   width="24"
   height="24"
   inkscape:version="0.92.4 (5da689c313, 2019-01-14)">
  <metadata
     id="metadata280">
    <rdf:RDF>
      <cc:Work
         rdf:about="">
        <dc:format>image/svg+xml</dc:format>
        <dc:type
           rdf:resource="http://purl.org/dc/dcmitype/StillImage" />
        <dc:title></dc:title>
      </cc:Work>
    </rdf:RDF>
  </metadata>
  <defs
     id="defs278" />
  <sodipodi:namedview
     pagecolor="#ffffff"
     bordercolor="#666666"
     borderopacity="1"
     objecttolerance="10"
     gridtolerance="10"
     guidetolerance="10"
     inkscape:pageopacity="0"
     inkscape:pageshadow="2"
     inkscape:window-width="1920"
     inkscape:window-height="995"
     id="namedview276"
     showgrid="false"
     fit-margin-top="0"
     fit-margin-left="0"
     fit-margin-right="0"
     fit-margin-bottom="0"
     inkscape:zoom="2.36"
     inkscape:cx="-31.17731"
     inkscape:cy="-41.419"
     inkscape:window-x="0"
     inkscape:window-y="0"
     inkscape:window-maximized="1"
     inkscape:current-layer="svg274" />
  <path
     d="m 3.16765,10.6435 q 0.802,0 1.177,0.328 0.38,0.328 0.38,1.005 v 3.307 l 0.609,0.131 v 0.234 h -1.343 l -0.099,-0.49 q -0.594,0.594 -1.516,0.594 -1.2553,0 -1.2553,-1.458 0,-0.49 0.1873,-0.807 0.193,-0.323 0.61,-0.49 0.416,-0.172 1.208,-0.188 l 0.734,-0.02 v -0.766 q 0,-0.505 -0.187,-0.745 -0.182,-0.239 -0.568,-0.239 -0.521,0 -0.953,0.244 l -0.177,0.61 h -0.292 v -1.068 q 0.844,-0.182 1.485,-0.182 z m 0.692,2.51 -0.682,0.021 q -0.698,0.026 -0.948,0.271 -0.245,0.245 -0.245,0.818 0,0.916 0.745,0.916 0.354,0 0.609,-0.078 0.261,-0.083 0.521,-0.208 z"
     id="path268"
     inkscape:connector-curvature="0" />
  <path
     d="m 8.62565,13.1845 v -0.557 l 6.164,2.469 v 0.552 z m 6.164,-4.13 v 0.558 l -4.768,1.906 4.768,1.911 v 0.558 l -6.164,-2.469 z"
     id="path270"
     inkscape:connector-curvature="0" />
  <path
     d="m 21.93965,13.0655 q 0,-0.959 -0.33,-1.427 -0.33,-0.469 -1.03,-0.469 -0.31,0 -0.61,0.057 -0.3,0.052 -0.44,0.115 v 3.88 q 0.44,0.083 1.05,0.083 0.72,0 1.04,-0.562 0.32,-0.563 0.32,-1.677 z m -3.27,-4.459 -0.72,-0.125 v -0.234 h 1.58 v 1.75 q 0,0.281 -0.03,1.031 0.52,-0.406 1.31,-0.406 1,0 1.53,0.609 0.54,0.604 0.54,1.834 0,1.317 -0.59,2.005 -0.58,0.682 -1.69,0.682 -0.45,0 -0.99,-0.099 -0.54,-0.099 -0.94,-0.26 z"
     id="path272"
     inkscape:connector-curvature="0" />
</svg>
