<?xml version="1.0" encoding="UTF-8" standalone="no"?>
<svg
   xmlns:dc="http://purl.org/dc/elements/1.1/"
   xmlns:cc="http://creativecommons.org/ns#"
   xmlns:rdf="http://www.w3.org/1999/02/22-rdf-syntax-ns#"
   xmlns:svg="http://www.w3.org/2000/svg"
   xmlns="http://www.w3.org/2000/svg"
   xmlns:sodipodi="http://sodipodi.sourceforge.net/DTD/sodipodi-0.dtd"
   xmlns:inkscape="http://www.inkscape.org/namespaces/inkscape"
   version="1.1"
   id="svg372"
   sodipodi:docname="bi21315.svg"
   width="24"
   height="24"
   inkscape:version="0.92.4 (5da689c313, 2019-01-14)">
  <metadata
     id="metadata378">
    <rdf:RDF>
      <cc:Work
         rdf:about="">
        <dc:format>image/svg+xml</dc:format>
        <dc:type
           rdf:resource="http://purl.org/dc/dcmitype/StillImage" />
        <dc:title></dc:title>
      </cc:Work>
    </rdf:RDF>
  </metadata>
  <defs
     id="defs376" />
  <sodipodi:namedview
     pagecolor="#ffffff"
     bordercolor="#666666"
     borderopacity="1"
     objecttolerance="10"
     gridtolerance="10"
     guidetolerance="10"
     inkscape:pageopacity="0"
     inkscape:pageshadow="2"
     inkscape:window-width="1920"
     inkscape:window-height="995"
     id="namedview374"
     showgrid="false"
     fit-margin-top="0"
     fit-margin-left="0"
     fit-margin-right="0"
     fit-margin-bottom="0"
     inkscape:zoom="2.36"
     inkscape:cx="-31.13811"
     inkscape:cy="-41.453"
     inkscape:window-x="0"
     inkscape:window-y="0"
     inkscape:window-maximized="1"
     inkscape:current-layer="svg372" />
  <path
     d="m 2.92225,10.6075 q 0.802,0 1.177,0.328 0.381,0.328 0.381,1.005 v 3.307 l 0.609,0.131 v 0.234 h -1.344 l -0.099,-0.49 q -0.593,0.594 -1.515,0.594 -1.2555,0 -1.2555,-1.458 0,-0.49 0.1875,-0.807 0.193,-0.323 0.609,-0.49 0.417,-0.172 1.209,-0.188 l 0.734,-0.02 v -0.766 q 0,-0.505 -0.187,-0.745 -0.183,-0.239 -0.568,-0.239 -0.521,0 -0.953,0.244 l -0.177,0.61 h -0.292 v -1.068 q 0.844,-0.182 1.484,-0.182 z m 0.693,2.51 -0.682,0.021 q -0.698,0.026 -0.948,0.271 -0.245,0.245 -0.245,0.818 0,0.916 0.745,0.916 0.354,0 0.609,-0.078 0.261,-0.083 0.521,-0.208 z"
     id="path366"
     inkscape:connector-curvature="0" />
  <path
     d="m 22.18425,13.0655 q 0,-0.959 -0.33,-1.427 -0.34,-0.469 -1.03,-0.469 -0.31,0 -0.61,0.057 -0.31,0.052 -0.44,0.115 v 3.88 q 0.44,0.083 1.05,0.083 0.71,0 1.04,-0.562 0.32,-0.563 0.32,-1.677 z m -3.28,-4.459 -0.71,-0.125 v -0.234 h 1.58 v 1.75 q 0,0.281 -0.03,1.031 0.52,-0.406 1.31,-0.406 1,0 1.53,0.609 0.54,0.604 0.54,1.834 0,1.317 -0.59,2.005 -0.58,0.682 -1.69,0.682 -0.45,0 -0.99,-0.099 -0.54,-0.099 -0.95,-0.26 z"
     id="path368"
     inkscape:connector-curvature="0" />
  <path
     d="m 8.85925,13.2585 h -0.323 q 0.078,-1.666 1.375,-1.666 0.603,0 1.863,0.625 1.27,0.625 1.74,0.625 0.75,0 0.87,-1.13 h 0.32 q -0.1,1.661 -1.38,1.661 -0.66,0 -1.8,-0.625 -1.14,-0.62 -1.8,-0.62 -0.412,0 -0.651,0.37 -0.214,0.328 -0.214,0.76 z"
     id="path370"
     inkscape:connector-curvature="0" />
</svg>
