<?xml version="1.0" encoding="UTF-8" standalone="no"?>
<svg
   xmlns:dc="http://purl.org/dc/elements/1.1/"
   xmlns:cc="http://creativecommons.org/ns#"
   xmlns:rdf="http://www.w3.org/1999/02/22-rdf-syntax-ns#"
   xmlns:svg="http://www.w3.org/2000/svg"
   xmlns="http://www.w3.org/2000/svg"
   xmlns:sodipodi="http://sodipodi.sourceforge.net/DTD/sodipodi-0.dtd"
   xmlns:inkscape="http://www.inkscape.org/namespaces/inkscape"
   version="1.1"
   id="svg260"
   sodipodi:docname="bi21304.svg"
   width="24"
   height="24"
   inkscape:version="0.92.4 (5da689c313, 2019-01-14)">
  <metadata
     id="metadata266">
    <rdf:RDF>
      <cc:Work
         rdf:about="">
        <dc:format>image/svg+xml</dc:format>
        <dc:type
           rdf:resource="http://purl.org/dc/dcmitype/StillImage" />
        <dc:title></dc:title>
      </cc:Work>
    </rdf:RDF>
  </metadata>
  <defs
     id="defs264" />
  <sodipodi:namedview
     pagecolor="#ffffff"
     bordercolor="#666666"
     borderopacity="1"
     objecttolerance="10"
     gridtolerance="10"
     guidetolerance="10"
     inkscape:pageopacity="0"
     inkscape:pageshadow="2"
     inkscape:window-width="1920"
     inkscape:window-height="995"
     id="namedview262"
     showgrid="false"
     fit-margin-top="0"
     fit-margin-left="0"
     fit-margin-right="0"
     fit-margin-bottom="0"
     inkscape:zoom="2.36"
     inkscape:cx="-30.75741"
     inkscape:cy="-40.431"
     inkscape:window-x="0"
     inkscape:window-y="0"
     inkscape:window-maximized="1"
     inkscape:current-layer="svg260" />
  <path
     d="m 2.8886,10.4735 q 0.902,0 1.324,0.369 0.428,0.369 0.428,1.131 v 3.721 l 0.685,0.146 v 0.264 h -1.512 l -0.111,-0.551 q -0.668,0.668 -1.705,0.668 -1.4122,0 -1.4122,-1.64 0,-0.551 0.211,-0.909 0.2167,-0.363 0.6852,-0.55 0.469,-0.194 1.36,-0.211 l 0.826,-0.024 v -0.861 q 0,-0.568 -0.211,-0.838 -0.205,-0.27 -0.639,-0.27 -0.586,0 -1.072,0.276 l -0.199,0.685 h -0.328 v -1.201 q 0.949,-0.205 1.67,-0.205 z m 0.779,2.824 -0.768,0.024 q -0.785,0.029 -1.066,0.304 -0.276,0.276 -0.276,0.92 0,1.032 0.838,1.032 0.399,0 0.686,-0.088 0.293,-0.094 0.586,-0.235 z"
     id="path254"
     inkscape:connector-curvature="0" />
  <path
     d="m 11.9946,8.1595 v 7.382 h 3.43 v 0.563 h -7.46 v -0.563 h 3.47 v -7.382 z"
     id="path256"
     inkscape:connector-curvature="0" />
  <path
     d="m 22.3646,13.1985 q 0,-1.078 -0.38,-1.606 -0.37,-0.527 -1.16,-0.527 -0.34,0 -0.68,0.064 -0.34,0.059 -0.49,0.129 v 4.366 q 0.49,0.093 1.17,0.093 0.81,0 1.17,-0.633 0.37,-0.632 0.37,-1.886 z m -3.69,-5.016 -0.8,-0.141 v -0.263 h 1.78 v 1.969 q 0,0.316 -0.04,1.16 0.59,-0.457 1.48,-0.457 1.12,0 1.72,0.685 0.6,0.68 0.6,2.063 0,1.482 -0.66,2.256 -0.66,0.767 -1.9,0.767 -0.51,0 -1.12,-0.111 -0.6,-0.111 -1.06,-0.293 z"
     id="path258"
     inkscape:connector-curvature="0" />
</svg>
