<?xml version="1.0" encoding="UTF-8" standalone="no"?>
<svg
   xmlns:dc="http://purl.org/dc/elements/1.1/"
   xmlns:cc="http://creativecommons.org/ns#"
   xmlns:rdf="http://www.w3.org/1999/02/22-rdf-syntax-ns#"
   xmlns:svg="http://www.w3.org/2000/svg"
   xmlns="http://www.w3.org/2000/svg"
   xmlns:sodipodi="http://sodipodi.sourceforge.net/DTD/sodipodi-0.dtd"
   xmlns:inkscape="http://www.inkscape.org/namespaces/inkscape"
   version="1.1"
   id="svg40"
   sodipodi:docname="co21907.svg"
   width="24"
   height="24"
   inkscape:version="0.92.4 (5da689c313, 2019-01-14)">
  <metadata
     id="metadata46">
    <rdf:RDF>
      <cc:Work
         rdf:about="">
        <dc:format>image/svg+xml</dc:format>
        <dc:type
           rdf:resource="http://purl.org/dc/dcmitype/StillImage" />
        <dc:title></dc:title>
      </cc:Work>
    </rdf:RDF>
  </metadata>
  <defs
     id="defs44" />
  <sodipodi:namedview
     pagecolor="#ffffff"
     bordercolor="#666666"
     borderopacity="1"
     objecttolerance="10"
     gridtolerance="10"
     guidetolerance="10"
     inkscape:pageopacity="0"
     inkscape:pageshadow="2"
     inkscape:window-width="1920"
     inkscape:window-height="995"
     id="namedview42"
     showgrid="false"
     fit-margin-top="0"
     fit-margin-left="0"
     fit-margin-right="0"
     fit-margin-bottom="0"
     inkscape:zoom="2.36"
     inkscape:cx="-32.80261"
     inkscape:cy="-31.03"
     inkscape:window-x="0"
     inkscape:window-y="0"
     inkscape:window-maximized="1"
     inkscape:current-layer="svg40" />
  <path
     d="m 4.485,5.9414999 q 0.802,0 1.177,0.3280002 0.38,0.328 0.38,1.005 V 10.5815 l 0.61,0.131 v 0.234 H 5.308 l -0.099,-0.49 q -0.594,0.594 -1.516,0.594 -1.255,0 -1.255,-1.4579999 0,-0.49 0.188,-0.807 0.192,-0.323 0.609,-0.49 0.417,-0.172 1.208,-0.188 l 0.735,-0.02 v -0.766 q 0,-0.505 -0.188,-0.745 -0.182,-0.239 -0.568,-0.239 -0.52,0 -0.953,0.244 l -0.177,0.61 H 3.001 v -1.068 Q 3.844,5.9414999 4.485,5.9414999 Z m 0.693,2.5100002 -0.683,0.021 q -0.698,0.026 -0.948,0.271 -0.244,0.245 -0.244,0.818 0,0.9159999 0.744,0.9159999 0.355,0 0.61,-0.078 0.26,-0.083 0.521,-0.208 z"
     id="path24"
     inkscape:connector-curvature="0" />
  <path
     d="m 9.058,10.5295 1.424,0.141 v 0.276 H 6.73 v -0.276 l 1.432,-0.141 V 4.8314999 l -1.411,0.506 v -0.276 l 2.036,-1.157 h 0.271 z"
     id="path26"
     inkscape:connector-curvature="0" />
  <path
     d="m 15.092,5.9374999 q 0.8,0 1.18,0.3280002 0.38,0.328 0.38,1.005 V 10.5775 l 0.61,0.131 v 0.234 h -1.35 l -0.09,-0.49 q -0.6,0.594 -1.52,0.594 -1.25,0 -1.25,-1.4579999 0,-0.49 0.18,-0.807 0.2,-0.323 0.61,-0.49 0.42,-0.172 1.21,-0.188 l 0.73,-0.02 v -0.766 q 0,-0.505 -0.18,-0.745 -0.19,-0.239 -0.57,-0.239 -0.52,0 -0.95,0.244 l -0.18,0.61 h -0.29 V 6.1194999 q 0.84,-0.182 1.48,-0.182 z m 0.69,2.5100002 -0.68,0.021 q -0.7,0.026 -0.95,0.271 -0.24,0.245 -0.24,0.818 0,0.9159999 0.74,0.9159999 0.36,0 0.61,-0.078 0.26,-0.083 0.52,-0.208 z"
     id="path28"
     inkscape:connector-curvature="0" />
  <path
     d="m 21.142,10.9425 h -4.27 v -0.766 l 0.97,-0.8799999 q 0.93,-0.818 1.37,-1.323 0.43,-0.505 0.62,-1.041 0.19,-0.537 0.19,-1.2300002 0,-0.677 -0.3,-1.031 -0.31,-0.354 -1.01,-0.354 -0.27,0 -0.57,0.078 -0.29,0.073 -0.51,0.198 l -0.18,0.854 h -0.35 v -1.344 q 0.95,-0.224 1.61,-0.224 1.15,0 1.72,0.48 0.58,0.474 0.58,1.343 0,0.5840002 -0.23,1.1050002 -0.22,0.515 -0.69,1.031 -0.47,0.51 -1.56,1.432 -0.46,0.396 -0.98,0.8699999 h 3.59 z"
     id="path30"
     inkscape:connector-curvature="0" />
  <path
     d="m 4.688,15.0105 q 0.802,0 1.177,0.33 0.38,0.33 0.38,1.01 v 3.31 l 0.61,0.13 v 0.23 H 5.511 l -0.099,-0.49 q -0.594,0.59 -1.516,0.59 -1.255,0 -1.255,-1.45 0,-0.49 0.188,-0.81 0.192,-0.32 0.609,-0.49 0.417,-0.17 1.208,-0.19 l 0.735,-0.02 v -0.77 q 0,-0.5 -0.188,-0.74 -0.182,-0.24 -0.568,-0.24 -0.52,0 -0.953,0.25 l -0.177,0.6 H 3.204 v -1.06 q 0.843,-0.19 1.484,-0.19 z m 0.693,2.52 -0.683,0.02 q -0.698,0.02 -0.948,0.27 -0.244,0.24 -0.244,0.81 0,0.92 0.744,0.92 0.355,0 0.61,-0.08 0.26,-0.08 0.521,-0.21 z"
     id="path32"
     inkscape:connector-curvature="0" />
  <path
     d="m 10.912,18.1205 q 0,0.94 -0.65,1.47 -0.642,0.53 -1.824,0.53 -0.99,0 -1.875,-0.22 l -0.057,-1.47 h 0.343 l 0.235,0.98 q 0.203,0.12 0.573,0.2 0.375,0.08 0.698,0.08 0.817,0 1.208,-0.37 0.389,-0.38 0.389,-1.25 0,-0.69 -0.358,-1.04 -0.359,-0.36 -1.114,-0.4 l -0.745,-0.04 v -0.43 l 0.745,-0.05 q 0.588,-0.03 0.869,-0.36 0.282,-0.33 0.282,-1.01 0,-0.7 -0.308,-1.02 -0.302,-0.33 -0.968,-0.33 -0.276,0 -0.579,0.08 -0.302,0.08 -0.531,0.2 l -0.182,0.86 H 6.719 v -1.35 q 0.516,-0.13 0.891,-0.18 0.375,-0.04 0.745,-0.04 2.237,0 2.237,1.72 0,0.72 -0.4,1.15 -0.395,0.43 -1.124,0.53 0.944,0.11 1.394,0.55 0.45,0.43 0.45,1.21 z"
     id="path34"
     inkscape:connector-curvature="0" />
  <path
     d="m 15.082,14.9205 q 0.8,0 1.18,0.33 0.38,0.33 0.38,1.01 v 3.31 l 0.61,0.13 v 0.23 h -1.35 l -0.09,-0.49 q -0.6,0.59 -1.52,0.59 -1.25,0 -1.25,-1.45 0,-0.49 0.18,-0.81 0.2,-0.32 0.61,-0.49 0.42,-0.17 1.21,-0.19 l 0.73,-0.02 v -0.77 q 0,-0.5 -0.18,-0.74 -0.19,-0.24 -0.57,-0.24 -0.52,0 -0.95,0.25 l -0.18,0.6 h -0.29 v -1.06 q 0.84,-0.19 1.48,-0.19 z m 0.69,2.52 -0.68,0.02 q -0.7,0.02 -0.95,0.27 -0.24,0.24 -0.24,0.81 0,0.92 0.74,0.92 0.36,0 0.61,-0.08 0.26,-0.08 0.52,-0.21 z"
     id="path36"
     inkscape:connector-curvature="0" />
  <path
     d="m 20.612,18.3905 v 1.54 h -0.9 v -1.54 h -3.11 v -0.69 l 3.41,-4.79 h 0.6 v 4.74 h 0.95 v 0.74 z m -0.9,-4.26 h -0.02 l -2.5,3.52 h 2.52 z"
     id="path38"
     inkscape:connector-curvature="0" />
</svg>
