<?xml version="1.0" encoding="UTF-8" standalone="no"?>
<svg
   xmlns:dc="http://purl.org/dc/elements/1.1/"
   xmlns:cc="http://creativecommons.org/ns#"
   xmlns:rdf="http://www.w3.org/1999/02/22-rdf-syntax-ns#"
   xmlns:svg="http://www.w3.org/2000/svg"
   xmlns="http://www.w3.org/2000/svg"
   xmlns:sodipodi="http://sodipodi.sourceforge.net/DTD/sodipodi-0.dtd"
   xmlns:inkscape="http://www.inkscape.org/namespaces/inkscape"
   version="1.1"
   id="svg88"
   sodipodi:docname="co21905.svg"
   width="24"
   height="24"
   inkscape:version="0.92.4 (5da689c313, 2019-01-14)">
  <metadata
     id="metadata94">
    <rdf:RDF>
      <cc:Work
         rdf:about="">
        <dc:format>image/svg+xml</dc:format>
        <dc:type
           rdf:resource="http://purl.org/dc/dcmitype/StillImage" />
        <dc:title></dc:title>
      </cc:Work>
    </rdf:RDF>
  </metadata>
  <defs
     id="defs92" />
  <sodipodi:namedview
     pagecolor="#ffffff"
     bordercolor="#666666"
     borderopacity="1"
     objecttolerance="10"
     gridtolerance="10"
     guidetolerance="10"
     inkscape:pageopacity="0"
     inkscape:pageshadow="2"
     inkscape:window-width="1920"
     inkscape:window-height="995"
     id="namedview90"
     showgrid="false"
     fit-margin-top="0"
     fit-margin-left="0"
     fit-margin-right="0"
     fit-margin-bottom="0"
     inkscape:zoom="2.36"
     inkscape:cx="-31.49161"
     inkscape:cy="-34.48"
     inkscape:window-x="0"
     inkscape:window-y="0"
     inkscape:window-maximized="1"
     inkscape:current-layer="svg88" />
  <path
     d="m 11.8865,4.7270498 q 0.903,0 1.324,0.3689 0.428,0.3690003 0.428,1.1310004 v 3.721 l 0.686,0.1459998 v 0.264 h -1.512 l -0.111,-0.5509998 q -0.668,0.6679998 -1.705,0.6679998 -1.413,0 -1.413,-1.6399999 0,-0.551 0.211,-0.909 0.217,-0.363 0.686,-0.55 0.469,-0.194 1.359,-0.211 l 0.827,-0.024 v -0.861 q 0,-0.568 -0.211,-0.838 -0.206,-0.2700003 -0.639,-0.2700003 -0.586,0 -1.072,0.2760003 l -0.2,0.685 h -0.328 V 4.9319499 q 0.95,-0.2049001 1.67,-0.2049001 z m 0.78,2.8239003 -0.768,0.024 q -0.785,0.029 -1.066,0.304 -0.276,0.2760001 -0.276,0.9200001 0,1.032 0.838,1.032 0.398,0 0.686,-0.088 0.293,-0.094 0.586,-0.235 z"
     id="path84"
     inkscape:connector-curvature="0" />
  <path
     d="m 13.5265,16.59295 q 0,-0.96 -0.334,-1.43 -0.333,-0.47 -1.031,-0.47 -0.307,0 -0.609,0.06 -0.302,0.05 -0.438,0.11 v 3.88 q 0.438,0.09 1.047,0.09 0.719,0 1.042,-0.57 0.323,-0.56 0.323,-1.67 z m -3.276,-4.462 -0.714,-0.125 v -0.234 h 1.578 v 1.75 q 0,0.281 -0.031,1.031 0.521,-0.41 1.312,-0.41 1,0 1.532,0.61 0.536,0.61 0.536,1.84 0,1.31 -0.588,2 -0.584,0.68 -1.693,0.68 -0.448,0 -0.99,-0.09 -0.536,-0.1 -0.942,-0.27 z"
     id="path86"
     inkscape:connector-curvature="0" />
</svg>
