<?xml version="1.0" encoding="UTF-8" standalone="no"?>
<svg
   xmlns:dc="http://purl.org/dc/elements/1.1/"
   xmlns:cc="http://creativecommons.org/ns#"
   xmlns:rdf="http://www.w3.org/1999/02/22-rdf-syntax-ns#"
   xmlns:svg="http://www.w3.org/2000/svg"
   xmlns="http://www.w3.org/2000/svg"
   xmlns:sodipodi="http://sodipodi.sourceforge.net/DTD/sodipodi-0.dtd"
   xmlns:inkscape="http://www.inkscape.org/namespaces/inkscape"
   version="1.1"
   id="svg164"
   sodipodi:docname="co21909.svg"
   width="24"
   height="24"
   inkscape:version="0.92.4 (5da689c313, 2019-01-14)">
  <metadata
     id="metadata170">
    <rdf:RDF>
      <cc:Work
         rdf:about="">
        <dc:format>image/svg+xml</dc:format>
        <dc:type
           rdf:resource="http://purl.org/dc/dcmitype/StillImage" />
        <dc:title></dc:title>
      </cc:Work>
    </rdf:RDF>
  </metadata>
  <defs
     id="defs168" />
  <sodipodi:namedview
     pagecolor="#ffffff"
     bordercolor="#666666"
     borderopacity="1"
     objecttolerance="10"
     gridtolerance="10"
     guidetolerance="10"
     inkscape:pageopacity="0"
     inkscape:pageshadow="2"
     inkscape:window-width="1920"
     inkscape:window-height="995"
     id="namedview166"
     showgrid="false"
     fit-margin-top="0"
     fit-margin-left="0"
     fit-margin-right="0"
     fit-margin-bottom="0"
     inkscape:zoom="2.36"
     inkscape:cx="-31.103613"
     inkscape:cy="-38.098352"
     inkscape:window-x="0"
     inkscape:window-y="0"
     inkscape:window-maximized="1"
     inkscape:current-layer="svg164" />
  <path
     d="m 18.601498,7.3652995 q 1.4,0 2.06,0.574 0.66,0.574 0.66,1.759 v 5.7879995 l 1.07,0.228 v 0.41 h -2.35 l -0.17,-0.856999 q -1.04,1.036999 -2.66,1.036999 -2.19,0 -2.19,-2.55 0,-0.857 0.32,-1.413 0.34,-0.565 1.07,-0.856 0.73,-0.301 2.12,-0.328 l 1.28,-0.037 V 9.7802995 q 0,-0.884 -0.33,-1.303 -0.32,-0.419 -0.99,-0.419 -0.91,0 -1.67,0.428 l -0.31,1.066 h -0.51 v -1.868 q 1.48,-0.319 2.6,-0.319 z m 1.21,4.3929995 -1.19,0.037 q -1.22,0.045 -1.66,0.474 -0.43,0.428 -0.43,1.431 0,1.604 1.3,1.604 0.62,0 1.07,-0.137 0.45,-0.146 0.91,-0.365 z"
     id="path158"
     inkscape:connector-curvature="0" />
  <path
     d="m 2.5994988,11.986299 3.209,-3.2099995 h 1.601 l -2.642,2.6429995 h 9.1639992 v 1.133 H 4.7674988 l 2.642,2.643 h -1.601 z"
     id="path160"
     inkscape:connector-curvature="0" />
  <path
     style="stroke:#000000;stroke-width:1px"
     d="m 2.1084988,6.3856995 0.037,11.2286005"
     id="path162"
     inkscape:connector-curvature="0" />
</svg>
