<?xml version="1.0" encoding="UTF-8" standalone="no"?>
<svg
   xmlns:dc="http://purl.org/dc/elements/1.1/"
   xmlns:cc="http://creativecommons.org/ns#"
   xmlns:rdf="http://www.w3.org/1999/02/22-rdf-syntax-ns#"
   xmlns:svg="http://www.w3.org/2000/svg"
   xmlns="http://www.w3.org/2000/svg"
   xmlns:sodipodi="http://sodipodi.sourceforge.net/DTD/sodipodi-0.dtd"
   xmlns:inkscape="http://www.inkscape.org/namespaces/inkscape"
   version="1.1"
   id="svg46"
   sodipodi:docname="fo21611.svg"
   width="24"
   height="24"
   inkscape:version="0.92.4 (5da689c313, 2019-01-14)">
  <metadata
     id="metadata52">
    <rdf:RDF>
      <cc:Work
         rdf:about="">
        <dc:format>image/svg+xml</dc:format>
        <dc:type
           rdf:resource="http://purl.org/dc/dcmitype/StillImage" />
        <dc:title></dc:title>
      </cc:Work>
    </rdf:RDF>
  </metadata>
  <defs
     id="defs50" />
  <sodipodi:namedview
     pagecolor="#ffffff"
     bordercolor="#666666"
     borderopacity="1"
     objecttolerance="10"
     gridtolerance="10"
     guidetolerance="10"
     inkscape:pageopacity="0"
     inkscape:pageshadow="2"
     inkscape:window-width="1920"
     inkscape:window-height="995"
     id="namedview48"
     showgrid="false"
     fit-margin-top="0"
     fit-margin-left="0"
     fit-margin-right="0"
     fit-margin-bottom="0"
     inkscape:zoom="2.36"
     inkscape:cx="-30.85621"
     inkscape:cy="-34.27"
     inkscape:window-x="0"
     inkscape:window-y="0"
     inkscape:window-maximized="1"
     inkscape:current-layer="svg46" />
  <path
     d="m 15.6552,12.0145 q 0,1.414 -2.51,2.348 -0.19,5.1 -2.4,5.1 -1.149,0 -1.149,-1.03 0,-0.84 0.719,-0.84 0.64,0 0.64,0.7 0,0.27 -0.24,0.52 0.14,0.09 0.32,0.09 0.88,0 0.88,-1.74 v -0.05 l -0.07,-2.35 q -1.45,0.35 -3.194,0.4 -0.32,4.3 -2.336,4.3 -1.172,0 -1.172,-1.03 0,-0.84 0.742,-0.84 0.633,0 0.633,0.7 0,0.25 -0.234,0.52 0.141,0.09 0.305,0.09 0.875,0 0.875,-1.66 0,-0.92 -0.032,-2.08 -1.664,-0.05 -3.179,-0.41 -0.243,4.71 -2.368,4.71 -1.1714,0 -1.1714,-1.03 0,-0.84 0.7344,-0.84 0.641,0 0.641,0.7 0,0.3 -0.243,0.52 0.149,0.09 0.305,0.09 0.883,0 0.883,-1.66 0,-1.27 -0.063,-2.88 -2.5464,-0.95 -2.5464,-2.317 0,-1.43 2.5314,-2.4219999 0.086,-2.141 0.367,-3.148 0.562,-1.9380002 2.031,-1.9380002 1.149,0 1.149,1.0550002 0,0.82 -0.719,0.82 -0.672,0 -0.672,-0.672 0,-0.265 0.258,-0.5310002 l -0.305,-0.094 q -0.898,0 -0.898,1.4380002 0,0.007 0.086,2.656 1.367,-0.336 3.164,-0.383 0.258,-4.2890002 2.367,-4.2890002 1.161,0 1.161,1.0550002 0,0.82 -0.72,0.82 -0.66,0 -0.66,-0.656 0,-0.2970002 0.235,-0.5470002 -0.141,-0.094 -0.305,-0.094 -0.891,0 -0.891,1.4380002 0,0.57 0.063,2.289 1.778,0.047 3.178,0.383 0.15,-4.6880002 2.38,-4.6880002 1.14,0 1.14,1.0550002 0,0.82 -0.7,0.82 -0.67,0 -0.67,-0.656 0,-0.3360002 0.24,-0.5470002 l -0.3,-0.094 q -0.9,0 -0.9,1.4060002 0,0.125 0.09,3.102 2.53,0.9919999 2.53,2.3909999 z m -12.699,1.788 q -0.031,-0.531 -0.031,-1.765 0,-0.789 0.015,-1.82 -1.937,0.726 -1.937,1.812 0,1.071 1.953,1.773 z m 4.445,0.78 q -0.07,-1.232 -0.07,-2.537 0,-1.281 0.07,-2.6249999 -1.766,0.047 -3.133,0.383 L 4.3002,12.1625 q 0,1.047 -0.032,2.04 1.422,0.34 3.133,0.38 z m 4.434,-0.4 -0.01,-3.372 q 0,-0.492 0.01,-1.0069999 -1.4,-0.336 -3.153,-0.383 L 8.7142,13.0605 q -0.008,1.012 -0.032,1.522 1.653,-0.01 3.153,-0.4 z m 3.25,-2.168 q 0,-1.079 -1.94,-1.813 0.03,0.508 0.03,1.75 0,0.789 -0.02,1.841 1.93,-0.739 1.93,-1.778 z"
     id="path42"
     inkscape:connector-curvature="0" />
  <path
     d="m 23.5752,16.0325 v 0.35 h -3.32 v -0.35 l 0.97,-0.18 -1.69,-2.603 -1.99,2.613 1.01,0.17 v 0.35 h -2.64 v -0.35 l 0.85,-0.13 2.42,-3.184 -2.13,-3.1329999 -0.87,-0.195 v -0.352 h 3.33 v 0.352 l -0.97,0.211 1.41,2.1089999 1.62,-2.1249999 -1,-0.195 v -0.352 h 2.64 v 0.352 l -0.85,0.164 -2.06,2.6719999 2.42,3.636 z"
     id="path44"
     inkscape:connector-curvature="0" />
</svg>
