<?xml version="1.0" encoding="UTF-8" standalone="no"?>
<svg
   xmlns:dc="http://purl.org/dc/elements/1.1/"
   xmlns:cc="http://creativecommons.org/ns#"
   xmlns:rdf="http://www.w3.org/1999/02/22-rdf-syntax-ns#"
   xmlns:svg="http://www.w3.org/2000/svg"
   xmlns="http://www.w3.org/2000/svg"
   xmlns:sodipodi="http://sodipodi.sourceforge.net/DTD/sodipodi-0.dtd"
   xmlns:inkscape="http://www.inkscape.org/namespaces/inkscape"
   version="1.1"
   id="svg10"
   sodipodi:docname="fo21601.svg"
   width="24"
   height="24"
   inkscape:version="0.92.4 (5da689c313, 2019-01-14)">
  <metadata
     id="metadata16">
    <rdf:RDF>
      <cc:Work
         rdf:about="">
        <dc:format>image/svg+xml</dc:format>
        <dc:type
           rdf:resource="http://purl.org/dc/dcmitype/StillImage" />
        <dc:title></dc:title>
      </cc:Work>
    </rdf:RDF>
  </metadata>
  <defs
     id="defs14" />
  <sodipodi:namedview
     pagecolor="#ffffff"
     bordercolor="#666666"
     borderopacity="1"
     objecttolerance="10"
     gridtolerance="10"
     guidetolerance="10"
     inkscape:pageopacity="0"
     inkscape:pageshadow="2"
     inkscape:window-width="1920"
     inkscape:window-height="995"
     id="namedview12"
     showgrid="false"
     fit-margin-top="0"
     fit-margin-left="0"
     fit-margin-right="0"
     fit-margin-bottom="0"
     inkscape:zoom="2.36"
     inkscape:cx="-31.11781"
     inkscape:cy="-41.407"
     inkscape:window-x="0"
     inkscape:window-y="0"
     inkscape:window-maximized="1"
     inkscape:current-layer="svg10" />
  <path
     d="m 4.0094,15.359 0.629,0.097 v 0.176 H 2.7356 V 15.456 L 3.3604,15.359 V 10.351 L 2.7356,10.257 v -0.176 h 1.2738 z"
     id="path2"
     inkscape:connector-curvature="0" />
  <path
     d="m 5.7744,10.761 q 0,0.172 -0.125,0.297 -0.125,0.125 -0.301,0.125 -0.171,0 -0.296,-0.125 -0.125,-0.125 -0.125,-0.297 0,-0.176 0.125,-0.301 0.125,-0.125 0.296,-0.125 0.176,0 0.301,0.125 0.125,0.125 0.125,0.301 z m -0.039,4.598 0.629,0.097 v 0.176 h -1.902 v -0.176 l 0.625,-0.097 v -3.125 l -0.52,-0.098 V 11.96 h 1.168 z"
     id="path4"
     inkscape:connector-curvature="0" />
  <path
     d="m 7.2864,12.257 q 0.293,-0.168 0.621,-0.281 0.328,-0.114 0.578,-0.114 0.27,0 0.496,0.102 0.231,0.102 0.344,0.324 0.301,-0.168 0.703,-0.297 0.406,-0.129 0.672,-0.129 0.938,0 0.938,1.083 v 2.414 l 0.476,0.097 v 0.176 h -1.672 v -0.176 l 0.547,-0.097 v -2.344 q 0,-0.672 -0.625,-0.672 -0.101,0 -0.238,0.016 -0.133,0.015 -0.27,0.035 -0.133,0.019 -0.258,0.047 -0.121,0.023 -0.203,0.039 0.067,0.211 0.067,0.465 v 2.414 l 0.551,0.097 v 0.176 h -1.743 v -0.176 l 0.543,-0.097 v -2.344 q 0,-0.324 -0.168,-0.496 -0.164,-0.176 -0.496,-0.176 -0.344,0 -0.855,0.113 v 2.903 l 0.551,0.097 v 0.176 h -1.665 v -0.176 l 0.465,-0.097 V 12.234 L 6.1804,12.136 V 11.96 h 1.075 z"
     id="path6"
     inkscape:connector-curvature="0" />
  <path
     d="m 21.2644,15.32 v 0.352 h -3.32 V 15.32 l 0.97,-0.179 -1.69,-2.602 -1.99,2.617 1.01,0.164 v 0.352 h -2.64 V 15.32 l 0.85,-0.125 2.42,-3.187 -2.13,-3.133 -0.87,-0.195 V 8.328 h 3.33 V 8.68 l -0.97,0.211 1.41,2.109 1.62,-2.125 -1,-0.195 V 8.328 h 2.64 V 8.68 l -0.85,0.164 -2.06,2.672 2.42,3.64 z"
     id="path8"
     inkscape:connector-curvature="0" />
</svg>
