<?xml version="1.0" encoding="UTF-8" standalone="no"?>
<svg
   xmlns:dc="http://purl.org/dc/elements/1.1/"
   xmlns:cc="http://creativecommons.org/ns#"
   xmlns:rdf="http://www.w3.org/1999/02/22-rdf-syntax-ns#"
   xmlns:svg="http://www.w3.org/2000/svg"
   xmlns="http://www.w3.org/2000/svg"
   xmlns:sodipodi="http://sodipodi.sourceforge.net/DTD/sodipodi-0.dtd"
   xmlns:inkscape="http://www.inkscape.org/namespaces/inkscape"
   version="1.1"
   id="svg156"
   sodipodi:docname="fo21610.svg"
   width="24"
   height="24"
   inkscape:version="0.92.4 (5da689c313, 2019-01-14)">
  <metadata
     id="metadata162">
    <rdf:RDF>
      <cc:Work
         rdf:about="">
        <dc:format>image/svg+xml</dc:format>
        <dc:type
           rdf:resource="http://purl.org/dc/dcmitype/StillImage" />
        <dc:title></dc:title>
      </cc:Work>
    </rdf:RDF>
  </metadata>
  <defs
     id="defs160" />
  <sodipodi:namedview
     pagecolor="#ffffff"
     bordercolor="#666666"
     borderopacity="1"
     objecttolerance="10"
     gridtolerance="10"
     guidetolerance="10"
     inkscape:pageopacity="0"
     inkscape:pageshadow="2"
     inkscape:window-width="1920"
     inkscape:window-height="995"
     id="namedview158"
     showgrid="false"
     fit-margin-top="0"
     fit-margin-left="0"
     fit-margin-right="0"
     fit-margin-bottom="0"
     inkscape:zoom="2.36"
     inkscape:cx="-31.51761"
     inkscape:cy="-34.13"
     inkscape:window-x="0"
     inkscape:window-y="0"
     inkscape:window-maximized="1"
     inkscape:current-layer="svg156" />
  <path
     d="m 13.0395,12.0145 q 0,1.748 -2.551,2.698 -0.25,4.75 -2.368,4.75 -1.171,0 -1.171,-1.03 0,-0.84 0.742,-0.84 0.633,0 0.633,0.7 0,0.24 -0.235,0.52 0.141,0.09 0.305,0.09 0.875,0 0.875,-1.66 0,-1.13 -0.047,-2.19 -0.773,0.13 -1.586,0.13 -0.828,0 -1.609,-0.13 -0.297,4.41 -2.336,4.41 -1.172,0 -1.172,-1.03 0,-0.84 0.734,-0.84 0.641,0 0.641,0.7 0,0.3 -0.242,0.52 0.148,0.09 0.304,0.09 0.883,0 0.883,-1.66 0,-1.17 -0.047,-2.53 -2.562,-0.93 -2.562,-2.698 0,-1.743 2.547,-2.7269999 0.14,-4.7500002 2.382,-4.7500002 1.149,0 1.149,1.0550002 0,0.82 -0.719,0.82 -0.672,0 -0.672,-0.672 0,-0.266 0.258,-0.5310002 l -0.305,-0.094 q -0.898,0 -0.898,1.4220002 0,0.094 0.086,2.414 0.781,-0.125 1.578,-0.125 0.813,0 1.586,0.125 0.125,-1.875 0.43,-2.781 0.562,-1.6330002 1.937,-1.6330002 1.16,0 1.16,1.0550002 0,0.82 -0.72,0.82 -0.66,0 -0.66,-0.656 0,-0.2970002 0.24,-0.5470002 -0.14,-0.094 -0.31,-0.094 -0.89,0 -0.89,1.4380002 0,0.648 0.063,2.718 2.567,0.9849999 2.567,2.7429999 z m -8.262,2.078 q -0.047,-0.735 -0.047,-1.969 0,-0.969 0.031,-2.2109999 -1.953,0.8049999 -1.953,2.1169999 0,1.274 1.969,2.063 z m 4.429,0.37 q -0.062,-1.144 -0.054,-2.511 0,-1.133 0.039,-2.4219999 -0.774,-0.125 -1.571,-0.125 -0.804,0 -1.546,0.125 0.093,2.2889999 0,4.9429999 0.742,0.13 1.546,0.13 0.852,0 1.586,-0.14 z m 3.253,-2.448 q 0,-1.336 -1.971,-2.1179999 0.046,0.7189999 0.046,1.9299999 l -0.031,2.246 q 1.956,-0.746 1.956,-2.058 z"
     id="path152"
     inkscape:connector-curvature="0" />
  <path
     d="m 21.7695,16.3525 v 0.35 h -3.32 v -0.35 l 0.97,-0.18 -1.69,-2.603 -1.99,2.613 1.01,0.17 v 0.35 h -2.64 v -0.35 l 0.85,-0.13 2.42,-3.184 -2.13,-3.1329999 -0.87,-0.195 v -0.352 h 3.33 v 0.352 l -0.97,0.211 1.41,2.1089999 1.62,-2.1249999 -1,-0.195 v -0.352 h 2.64 v 0.352 l -0.85,0.164 -2.06,2.6719999 2.42,3.636 z"
     id="path154"
     inkscape:connector-curvature="0" />
</svg>
