<?xml version="1.0" encoding="UTF-8" standalone="no"?>
<svg
   xmlns:dc="http://purl.org/dc/elements/1.1/"
   xmlns:cc="http://creativecommons.org/ns#"
   xmlns:rdf="http://www.w3.org/1999/02/22-rdf-syntax-ns#"
   xmlns:svg="http://www.w3.org/2000/svg"
   xmlns="http://www.w3.org/2000/svg"
   xmlns:sodipodi="http://sodipodi.sourceforge.net/DTD/sodipodi-0.dtd"
   xmlns:inkscape="http://www.inkscape.org/namespaces/inkscape"
   version="1.1"
   id="svg22"
   sodipodi:docname="fo21604.svg"
   width="24"
   height="24"
   inkscape:version="0.92.4 (5da689c313, 2019-01-14)">
  <metadata
     id="metadata28">
    <rdf:RDF>
      <cc:Work
         rdf:about="">
        <dc:format>image/svg+xml</dc:format>
        <dc:type
           rdf:resource="http://purl.org/dc/dcmitype/StillImage" />
        <dc:title></dc:title>
      </cc:Work>
    </rdf:RDF>
  </metadata>
  <defs
     id="defs26" />
  <sodipodi:namedview
     pagecolor="#ffffff"
     bordercolor="#666666"
     borderopacity="1"
     objecttolerance="10"
     gridtolerance="10"
     guidetolerance="10"
     inkscape:pageopacity="0"
     inkscape:pageshadow="2"
     inkscape:window-width="1920"
     inkscape:window-height="995"
     id="namedview24"
     showgrid="false"
     fit-margin-top="0"
     fit-margin-left="0"
     fit-margin-right="0"
     fit-margin-bottom="0"
     inkscape:zoom="2.36"
     inkscape:cx="-31.23551"
     inkscape:cy="-39.27"
     inkscape:window-x="0"
     inkscape:window-y="0"
     inkscape:window-maximized="1"
     inkscape:current-layer="svg22" />
  <path
     d="m 10.89655,16.8595 h -7.9271 v -0.39 h 0.9951 v -8.943 h -0.9951 v -0.386 h 3.1041 v 0.386 h -1 v 8.943 h 3.719 v -8.943 h -1 v -0.386 h 3.104 v 0.386 h -0.995 v 8.943 h 0.995 z"
     id="path18"
     inkscape:connector-curvature="0" />
  <path
     d="m 21.03055,16.1995 v 0.35 h -3.32 v -0.35 l 0.97,-0.181 -1.69,-2.602 -1.99,2.617 1.01,0.166 v 0.35 h -2.64 v -0.35 l 0.85,-0.127 2.42,-3.187 -2.13,-3.133 -0.87,-0.195 v -0.352 h 3.33 v 0.352 l -0.97,0.211 1.41,2.109 1.62,-2.125 -1,-0.195 v -0.352 h 2.64 v 0.352 l -0.85,0.164 -2.06,2.672 2.42,3.64 z"
     id="path20"
     inkscape:connector-curvature="0" />
</svg>
