<?xml version="1.0" encoding="UTF-8" standalone="no"?>
<svg
   xmlns:dc="http://purl.org/dc/elements/1.1/"
   xmlns:cc="http://creativecommons.org/ns#"
   xmlns:rdf="http://www.w3.org/1999/02/22-rdf-syntax-ns#"
   xmlns:svg="http://www.w3.org/2000/svg"
   xmlns="http://www.w3.org/2000/svg"
   xmlns:sodipodi="http://sodipodi.sourceforge.net/DTD/sodipodi-0.dtd"
   xmlns:inkscape="http://www.inkscape.org/namespaces/inkscape"
   version="1.1"
   id="svg6"
   sodipodi:docname="fu21505.svg"
   width="23"
   height="23"
   inkscape:version="0.92.4 (5da689c313, 2019-01-14)">
  <metadata
     id="metadata12">
    <rdf:RDF>
      <cc:Work
         rdf:about="">
        <dc:format>image/svg+xml</dc:format>
        <dc:type
           rdf:resource="http://purl.org/dc/dcmitype/StillImage" />
        <dc:title></dc:title>
      </cc:Work>
    </rdf:RDF>
  </metadata>
  <defs
     id="defs10" />
  <sodipodi:namedview
     pagecolor="#ffffff"
     bordercolor="#666666"
     borderopacity="1"
     objecttolerance="10"
     gridtolerance="10"
     guidetolerance="10"
     inkscape:pageopacity="0"
     inkscape:pageshadow="2"
     inkscape:window-width="1920"
     inkscape:window-height="995"
     id="namedview8"
     showgrid="false"
     fit-margin-top="0"
     fit-margin-left="0"
     fit-margin-right="0"
     fit-margin-bottom="0"
     inkscape:zoom="2.36"
     inkscape:cx="-31.41361"
     inkscape:cy="-38.1"
     inkscape:window-x="0"
     inkscape:window-y="0"
     inkscape:window-maximized="1"
     inkscape:current-layer="svg6" />
  <path
     d="m 7.1235,13.944 v 0.105 q 0,0.809 0.176,1.256 0.181,0.45 0.55,0.68 0.375,0.24 0.979,0.24 0.316,0 0.75,-0.05 0.434,-0.06 0.715,-0.12 v 0.33 q -0.281,0.18 -0.768,0.31 -0.48,0.14 -0.984,0.14 -1.283,0 -1.881,-0.69 -0.592,-0.7 -0.592,-2.225 0,-1.441 0.604,-2.15 0.603,-0.709 1.722,-0.709 2.116,0 2.116,2.402 v 0.481 z m 1.271,-2.415 q -0.609,0 -0.937,0.493 -0.322,0.492 -0.322,1.453 h 2.355 q 0,-1.049 -0.27,-1.494 -0.269,-0.452 -0.826,-0.452 z"
     id="path2"
     inkscape:connector-curvature="0" />
  <path
     d="m 16.9315,11.409 v 0.264 h -2.492 v -0.264 l 0.732,-0.134 -1.271,-1.952 -1.488,1.963 0.756,0.123 v 0.264 h -1.981 v -0.264 l 0.639,-0.093 1.811,-2.391 -1.594,-2.35 -0.65,-0.146 V 6.165 h 2.496 v 0.264 l -0.733,0.158 1.061,1.582 1.214,-1.594 -0.751,-0.146 V 6.165 h 1.981 v 0.264 l -0.63,0.123 -1.551,2.004 1.811,2.73 z"
     id="path4"
     inkscape:connector-curvature="0" />
</svg>
