<?xml version="1.0" encoding="UTF-8" standalone="no"?>
<svg
   xmlns:dc="http://purl.org/dc/elements/1.1/"
   xmlns:cc="http://creativecommons.org/ns#"
   xmlns:rdf="http://www.w3.org/1999/02/22-rdf-syntax-ns#"
   xmlns:svg="http://www.w3.org/2000/svg"
   xmlns="http://www.w3.org/2000/svg"
   xmlns:sodipodi="http://sodipodi.sourceforge.net/DTD/sodipodi-0.dtd"
   xmlns:inkscape="http://www.inkscape.org/namespaces/inkscape"
   version="1.1"
   id="svg14"
   sodipodi:docname="fu21523.svg"
   width="23"
   height="23"
   inkscape:version="0.92.4 (5da689c313, 2019-01-14)">
  <metadata
     id="metadata20">
    <rdf:RDF>
      <cc:Work
         rdf:about="">
        <dc:format>image/svg+xml</dc:format>
        <dc:type
           rdf:resource="http://purl.org/dc/dcmitype/StillImage" />
        <dc:title></dc:title>
      </cc:Work>
    </rdf:RDF>
  </metadata>
  <defs
     id="defs18" />
  <sodipodi:namedview
     pagecolor="#ffffff"
     bordercolor="#666666"
     borderopacity="1"
     objecttolerance="10"
     gridtolerance="10"
     guidetolerance="10"
     inkscape:pageopacity="0"
     inkscape:pageshadow="2"
     inkscape:window-width="1920"
     inkscape:window-height="995"
     id="namedview16"
     showgrid="false"
     fit-margin-top="0"
     fit-margin-left="0"
     fit-margin-right="0"
     fit-margin-bottom="0"
     inkscape:zoom="7.375"
     inkscape:cx="23.643185"
     inkscape:cy="-38.49"
     inkscape:window-x="0"
     inkscape:window-y="0"
     inkscape:window-maximized="1"
     inkscape:current-layer="svg14" />
  <path
     d="m 1.8401,16.81965 q -0.563,0 -0.844,-0.34 -0.275,-0.33 -0.275,-0.93 v -3.866 H 0 v -0.263 l 0.7321,-0.229 0.592,-1.248 h 0.369 v 1.248 h 1.26 v 0.492 h -1.26 v 3.756 q 0,0.38 0.17,0.57 0.176,0.2 0.457,0.2 0.34,0 0.826,-0.1 v 0.38 q -0.205,0.15 -0.591,0.23 -0.387,0.1 -0.715,0.1 z"
     id="path2"
     inkscape:connector-curvature="0" />
  <path
     d="m 5.4351,11.06865 q 0.903,0 1.325,0.369 0.427,0.369 0.427,1.131 v 3.721 l 0.686,0.15 v 0.26 h -1.512 l -0.111,-0.55 q -0.668,0.67 -1.705,0.67 -1.412,0 -1.412,-1.643 0,-0.551 0.211,-0.909 0.216,-0.363 0.685,-0.55 0.469,-0.194 1.36,-0.211 l 0.826,-0.024 v -0.861 q 0,-0.568 -0.211,-0.838 -0.205,-0.27 -0.639,-0.27 -0.586,0 -1.072,0.276 l -0.199,0.685 h -0.328 v -1.201 q 0.949,-0.205 1.669,-0.205 z m 0.78,2.824 -0.768,0.024 q -0.785,0.029 -1.066,0.304 -0.276,0.276 -0.276,0.92 0,1.029 0.838,1.029 0.399,0 0.686,-0.09 0.293,-0.09 0.586,-0.23 z"
     id="path4"
     inkscape:connector-curvature="0" />
  <path
     d="m 9.4281,11.63765 q 0.45,-0.258 0.96,-0.422 0.51,-0.17 0.85,-0.17 0.72,0 1.08,0.416 0.36,0.416 0.36,1.207 v 3.621 l 0.67,0.15 v 0.26 h -2.37 v -0.26 l 0.73,-0.15 v -3.516 q 0,-0.486 -0.24,-0.761 -0.23,-0.282 -0.73,-0.282 -0.53,0 -1.3,0.17 v 4.389 l 0.75,0.15 v 0.26 h -2.381 v -0.26 l 0.662,-0.15 v -4.688 l -0.662,-0.146 v -0.264 h 1.571 z"
     id="path6"
     inkscape:connector-curvature="0" />
  <path
     d="m 14.9381,10.75865 q 0,0.609 -0.04,0.879 0.42,-0.241 0.96,-0.417 0.54,-0.175 0.91,-0.175 0.71,0 1.07,0.416 0.37,0.416 0.37,1.207 v 3.621 l 0.66,0.15 v 0.26 h -2.37 v -0.26 l 0.73,-0.15 v -3.551 q 0,-1.008 -0.97,-1.008 -0.55,0 -1.32,0.17 v 4.389 l 0.75,0.15 v 0.26 h -2.42 v -0.26 l 0.7,-0.15 v -7.512 l -0.82,-0.14 v -0.264 h 1.79 z"
     id="path8"
     inkscape:connector-curvature="0" />
  <path
     d="m 17.1881,7.49965 v -0.598 h 2.07 v 0.598 z"
     id="path10"
     inkscape:connector-curvature="0" />
  <path
     d="m 21.7781,11.14865 1.07,0.106 v 0.207 h -2.82 v -0.207 l 1.08,-0.106 v -4.273 l -1.06,0.379 v -0.207 l 1.53,-0.8673 h 0.2 z"
     id="path12"
     inkscape:connector-curvature="0" />
</svg>
