<?xml version="1.0" encoding="UTF-8" standalone="no"?>
<svg
   xmlns:dc="http://purl.org/dc/elements/1.1/"
   xmlns:cc="http://creativecommons.org/ns#"
   xmlns:rdf="http://www.w3.org/1999/02/22-rdf-syntax-ns#"
   xmlns:svg="http://www.w3.org/2000/svg"
   xmlns="http://www.w3.org/2000/svg"
   xmlns:sodipodi="http://sodipodi.sourceforge.net/DTD/sodipodi-0.dtd"
   xmlns:inkscape="http://www.inkscape.org/namespaces/inkscape"
   version="1.1"
   id="svg118"
   sodipodi:docname="fu21517.svg"
   width="23"
   height="23"
   inkscape:version="0.92.4 (5da689c313, 2019-01-14)">
  <metadata
     id="metadata124">
    <rdf:RDF>
      <cc:Work
         rdf:about="">
        <dc:format>image/svg+xml</dc:format>
        <dc:type
           rdf:resource="http://purl.org/dc/dcmitype/StillImage" />
        <dc:title></dc:title>
      </cc:Work>
    </rdf:RDF>
  </metadata>
  <defs
     id="defs122" />
  <sodipodi:namedview
     pagecolor="#ffffff"
     bordercolor="#666666"
     borderopacity="1"
     objecttolerance="10"
     gridtolerance="10"
     guidetolerance="10"
     inkscape:pageopacity="0"
     inkscape:pageshadow="2"
     inkscape:window-width="1920"
     inkscape:window-height="995"
     id="namedview120"
     showgrid="false"
     fit-margin-top="0"
     fit-margin-left="0"
     fit-margin-right="0"
     fit-margin-bottom="0"
     inkscape:zoom="2.36"
     inkscape:cx="-31.63561"
     inkscape:cy="-40.939"
     inkscape:window-x="0"
     inkscape:window-y="0"
     inkscape:window-maximized="1"
     inkscape:current-layer="svg118" />
  <path
     d="m 6.8845,13.86715 q 0,0.82 -0.522,1.242 -0.515,0.422 -1.529,0.422 -0.41,0 -0.908,-0.088 -0.493,-0.082 -0.774,-0.187 v -1.354 h 0.264 l 0.287,0.768 q 0.439,0.398 1.143,0.398 1.136,0 1.136,-0.972 0,-0.715 -0.896,-1.02 l -0.522,-0.17 q -0.591,-0.193 -0.861,-0.392 -0.27,-0.2 -0.416,-0.487 -0.147,-0.293 -0.147,-0.703 0,-0.726 0.493,-1.142 0.498,-0.422 1.341,-0.422 0.604,0 1.512,0.181 v 1.202 h -0.275 l -0.246,-0.639 q -0.311,-0.276 -0.979,-0.276 -0.474,0 -0.726,0.235 -0.246,0.234 -0.246,0.633 0,0.334 0.222,0.562 0.229,0.229 0.686,0.381 0.861,0.293 1.125,0.428 0.263,0.135 0.445,0.334 0.188,0.193 0.287,0.445 0.106,0.252 0.106,0.621 z"
     id="path108"
     inkscape:connector-curvature="0" />
  <path
     d="m 9.0325,8.10715 q 0,0.258 -0.187,0.446 -0.188,0.187 -0.452,0.187 -0.257,0 -0.445,-0.187 -0.187,-0.188 -0.187,-0.446 0,-0.263 0.187,-0.451 0.188,-0.1873 0.445,-0.1873 0.264,0 0.452,0.1873 0.187,0.188 0.187,0.451 z m -0.059,6.897 0.944,0.146 v 0.264 h -2.854 v -0.264 l 0.938,-0.146 v -4.688 l -0.779,-0.146 v -0.264 h 1.751 z"
     id="path110"
     inkscape:connector-curvature="0" />
  <path
     d="m 11.5385,10.35215 q 0.452,-0.258 0.962,-0.422 0.51,-0.17 0.85,-0.17 0.71,0 1.08,0.416 0.36,0.416 0.36,1.207 v 3.621 l 0.67,0.146 v 0.264 h -2.38 v -0.264 l 0.74,-0.146 v -3.516 q 0,-0.486 -0.24,-0.761 -0.24,-0.282 -0.74,-0.282 -0.52,0 -1.29,0.17 v 4.389 l 0.74,0.146 v 0.264 h -2.375 v -0.264 l 0.662,-0.146 v -4.688 l -0.662,-0.146 v -0.264 h 1.57 z"
     id="path112"
     inkscape:connector-curvature="0" />
  <path
     d="m 14.1005,9.33415 v -0.598 h 2.08 v 0.598 z"
     id="path114"
     inkscape:connector-curvature="0" />
  <path
     d="m 18.7905,12.58515 1.07,0.106 v 0.207 h -2.82 v -0.207 l 1.08,-0.106 v -4.273 l -1.06,0.379 v -0.207 l 1.53,-0.867 h 0.2 z"
     id="path116"
     inkscape:connector-curvature="0" />
</svg>
