<?xml version="1.0" encoding="UTF-8" standalone="no"?>
<svg
   xmlns:dc="http://purl.org/dc/elements/1.1/"
   xmlns:cc="http://creativecommons.org/ns#"
   xmlns:rdf="http://www.w3.org/1999/02/22-rdf-syntax-ns#"
   xmlns:svg="http://www.w3.org/2000/svg"
   xmlns="http://www.w3.org/2000/svg"
   xmlns:sodipodi="http://sodipodi.sourceforge.net/DTD/sodipodi-0.dtd"
   xmlns:inkscape="http://www.inkscape.org/namespaces/inkscape"
   version="1.1"
   id="svg36"
   sodipodi:docname="fu21512.svg"
   width="23"
   height="23"
   inkscape:version="0.92.4 (5da689c313, 2019-01-14)">
  <metadata
     id="metadata42">
    <rdf:RDF>
      <cc:Work
         rdf:about="">
        <dc:format>image/svg+xml</dc:format>
        <dc:type
           rdf:resource="http://purl.org/dc/dcmitype/StillImage" />
        <dc:title></dc:title>
      </cc:Work>
    </rdf:RDF>
  </metadata>
  <defs
     id="defs40" />
  <sodipodi:namedview
     pagecolor="#ffffff"
     bordercolor="#666666"
     borderopacity="1"
     objecttolerance="10"
     gridtolerance="10"
     guidetolerance="10"
     inkscape:pageopacity="0"
     inkscape:pageshadow="2"
     inkscape:window-width="1920"
     inkscape:window-height="995"
     id="namedview38"
     showgrid="false"
     fit-margin-top="0"
     fit-margin-left="0"
     fit-margin-right="0"
     fit-margin-bottom="0"
     inkscape:zoom="2.36"
     inkscape:cx="-31.30461"
     inkscape:cy="-41.035"
     inkscape:window-x="0"
     inkscape:window-y="0"
     inkscape:window-maximized="1"
     inkscape:current-layer="svg36" />
  <path
     d="m 9.153,14.817 q -0.319,0.234 -0.878,0.371 -0.56,0.13 -1.146,0.13 -2.975,0 -2.975,-3.235 0,-1.53 0.755,-2.351 0.761,-0.827 2.174,-0.827 0.879,0 1.921,0.202 v 1.706 H 8.646 L 8.366,9.732 Q 7.825,9.426 7.07,9.426 q -1.745,0 -1.745,2.657 0,1.38 0.528,1.972 0.534,0.586 1.647,0.586 0.95,0 1.653,-0.215 z"
     id="path30"
     inkscape:connector-curvature="0" />
  <path
     d="m 15.216,12.096 q 0,3.222 -2.865,3.222 -1.38,0 -2.083,-0.827 -0.703,-0.826 -0.703,-2.395 0,-1.55 0.703,-2.37 0.703,-0.821 2.135,-0.821 1.393,0 2.103,0.808 0.71,0.801 0.71,2.383 z m -1.17,0 q 0,-1.407 -0.41,-2.038 -0.41,-0.632 -1.285,-0.632 -0.852,0 -1.237,0.606 -0.377,0.605 -0.377,2.064 0,1.477 0.384,2.096 0.391,0.612 1.23,0.612 0.855,0 1.275,-0.638 0.42,-0.638 0.42,-2.07 z"
     id="path32"
     inkscape:connector-curvature="0" />
  <path
     d="m 17.396,15.318 q -0.62,0 -0.94,-0.371 -0.3,-0.371 -0.3,-1.042 v -4.29 h -0.8 V 9.322 l 0.81,-0.254 0.66,-1.386 h 0.41 v 1.386 h 1.4 v 0.547 h -1.4 v 4.173 q 0,0.423 0.19,0.638 0.19,0.215 0.51,0.215 0.37,0 0.91,-0.104 v 0.423 q -0.22,0.156 -0.65,0.254 -0.43,0.104 -0.8,0.104 z"
     id="path34"
     inkscape:connector-curvature="0" />
</svg>
