<?xml version="1.0" encoding="UTF-8" standalone="no"?>
<svg
   xmlns:dc="http://purl.org/dc/elements/1.1/"
   xmlns:cc="http://creativecommons.org/ns#"
   xmlns:rdf="http://www.w3.org/1999/02/22-rdf-syntax-ns#"
   xmlns:svg="http://www.w3.org/2000/svg"
   xmlns="http://www.w3.org/2000/svg"
   xmlns:sodipodi="http://sodipodi.sourceforge.net/DTD/sodipodi-0.dtd"
   xmlns:inkscape="http://www.inkscape.org/namespaces/inkscape"
   version="1.1"
   id="svg32"
   sodipodi:docname="fu21507.svg"
   width="23"
   height="23"
   inkscape:version="0.92.4 (5da689c313, 2019-01-14)">
  <metadata
     id="metadata38">
    <rdf:RDF>
      <cc:Work
         rdf:about="">
        <dc:format>image/svg+xml</dc:format>
        <dc:type
           rdf:resource="http://purl.org/dc/dcmitype/StillImage" />
        <dc:title></dc:title>
      </cc:Work>
    </rdf:RDF>
  </metadata>
  <defs
     id="defs36" />
  <sodipodi:namedview
     pagecolor="#ffffff"
     bordercolor="#666666"
     borderopacity="1"
     objecttolerance="10"
     gridtolerance="10"
     guidetolerance="10"
     inkscape:pageopacity="0"
     inkscape:pageshadow="2"
     inkscape:window-width="1920"
     inkscape:window-height="995"
     id="namedview34"
     showgrid="false"
     fit-margin-top="0"
     fit-margin-left="0"
     fit-margin-right="0"
     fit-margin-bottom="0"
     inkscape:zoom="2.36"
     inkscape:cx="-31.21151"
     inkscape:cy="-41.74"
     inkscape:window-x="0"
     inkscape:window-y="0"
     inkscape:window-maximized="1"
     inkscape:current-layer="svg32" />
  <path
     d="m 4.65455,10.41355 v 0.094 q 0,0.719 0.157,1.12 0.161,0.396 0.489,0.604 0.334,0.208 0.87,0.208 0.281,0 0.667,-0.046 0.385,-0.047 0.635,-0.105 v 0.292 q -0.25,0.162 -0.682,0.281 -0.427,0.12 -0.875,0.12 -1.141,0 -1.672,-0.614 -0.5261,-0.615 -0.5261,-1.974 0,-1.282 0.5361,-1.912 0.537,-0.6301 1.532,-0.6301 1.88,0 1.88,2.1351 v 0.427 z m 1.131,-2.145 q -0.542,0 -0.834,0.437 -0.286,0.438 -0.286,1.292 h 2.094 q 0,-0.933 -0.24,-1.328 -0.24,-0.401 -0.734,-0.401 z"
     id="path26"
     inkscape:connector-curvature="0" />
  <path
     d="m 13.73255,12.64355 v 0.234 h -2.218 v -0.234 l 0.651,-0.12 -1.13,-1.735 -1.323,1.745 0.672,0.11 v 0.234 h -1.761 v -0.234 l 0.568,-0.084 1.609,-2.125 -1.416,-2.088 -0.579,-0.13 v -0.235 h 2.219 v 0.235 l -0.651,0.14 0.943,1.406 1.083,-1.416 -0.672,-0.13 v -0.235 h 1.765 v 0.235 l -0.57,0.109 -1.372,1.781 1.612,2.427 z"
     id="path28"
     inkscape:connector-curvature="0" />
  <path
     d="m 15.15255,8.34655 -0.55,-0.13 v -0.235 h 1.37 l 0.01,0.287 q 0.22,-0.188 0.58,-0.302 0.37,-0.1151 0.75,-0.1151 0.94,0 1.45,0.6511 0.52,0.651 0.52,1.87 0,1.245 -0.57,1.927 -0.55,0.682 -1.61,0.682 -0.59,0 -1.12,-0.114 0.03,0.375 0.03,0.588 v 1.323 l 0.86,0.125 v 0.245 h -2.34 v -0.245 l 0.62,-0.125 z m 3.19,2.026 q 0,-1 -0.33,-1.485 -0.32,-0.489 -0.98,-0.489 -0.61,0 -1.02,0.172 v 3.911 q 0.47,0.089 1.02,0.089 1.31,0 1.31,-2.198 z"
     id="path30"
     inkscape:connector-curvature="0" />
</svg>
