<?xml version="1.0" encoding="UTF-8" standalone="no"?>
<svg
   xmlns:dc="http://purl.org/dc/elements/1.1/"
   xmlns:cc="http://creativecommons.org/ns#"
   xmlns:rdf="http://www.w3.org/1999/02/22-rdf-syntax-ns#"
   xmlns:svg="http://www.w3.org/2000/svg"
   xmlns="http://www.w3.org/2000/svg"
   xmlns:sodipodi="http://sodipodi.sourceforge.net/DTD/sodipodi-0.dtd"
   xmlns:inkscape="http://www.inkscape.org/namespaces/inkscape"
   version="1.1"
   id="svg154"
   sodipodi:docname="fu21519.svg"
   width="23"
   height="23"
   inkscape:version="0.92.4 (5da689c313, 2019-01-14)">
  <metadata
     id="metadata160">
    <rdf:RDF>
      <cc:Work
         rdf:about="">
        <dc:format>image/svg+xml</dc:format>
        <dc:type
           rdf:resource="http://purl.org/dc/dcmitype/StillImage" />
        <dc:title></dc:title>
      </cc:Work>
    </rdf:RDF>
  </metadata>
  <defs
     id="defs158" />
  <sodipodi:namedview
     pagecolor="#ffffff"
     bordercolor="#666666"
     borderopacity="1"
     objecttolerance="10"
     gridtolerance="10"
     guidetolerance="10"
     inkscape:pageopacity="0"
     inkscape:pageshadow="2"
     inkscape:window-width="1920"
     inkscape:window-height="995"
     id="namedview156"
     showgrid="false"
     fit-margin-top="0"
     fit-margin-left="0"
     fit-margin-right="0"
     fit-margin-bottom="0"
     inkscape:zoom="2.36"
     inkscape:cx="-31.69761"
     inkscape:cy="-38.9"
     inkscape:window-x="0"
     inkscape:window-y="0"
     inkscape:window-maximized="1"
     inkscape:current-layer="svg154" />
  <path
     d="m 4.0155,16.542 q -0.562,0 -0.844,-0.34 -0.275,-0.33 -0.275,-0.934 v -3.862 h -0.721 v -0.263 l 0.733,-0.229 0.591,-1.248 h 0.37 v 1.248 h 1.259 v 0.492 h -1.259 v 3.756 q 0,0.38 0.169,0.57 0.176,0.2 0.458,0.2 0.339,0 0.826,-0.1 v 0.38 q -0.205,0.15 -0.592,0.23 -0.387,0.1 -0.715,0.1 z"
     id="path144"
     inkscape:connector-curvature="0" />
  <path
     d="m 7.6115,10.791 q 0.902,0 1.324,0.369 0.428,0.369 0.428,1.131 v 3.721 l 0.685,0.15 v 0.26 h -1.511 l -0.112,-0.55 q -0.668,0.67 -1.705,0.67 -1.412,0 -1.412,-1.643 0,-0.551 0.211,-0.909 0.217,-0.363 0.685,-0.55 0.469,-0.194 1.36,-0.211 l 0.826,-0.024 v -0.861 q 0,-0.568 -0.211,-0.838 -0.205,-0.27 -0.639,-0.27 -0.586,0 -1.072,0.276 l -0.199,0.685 h -0.328 v -1.201 q 0.949,-0.205 1.67,-0.205 z m 0.779,2.824 -0.768,0.024 q -0.785,0.029 -1.066,0.304 -0.275,0.276 -0.275,0.92 0,1.029 0.838,1.029 0.398,0 0.685,-0.09 0.293,-0.09 0.586,-0.23 z"
     id="path146"
     inkscape:connector-curvature="0" />
  <path
     d="m 11.6045,11.359 q 0.45,-0.257 0.96,-0.421 0.51,-0.17 0.85,-0.17 0.72,0 1.08,0.416 0.36,0.416 0.36,1.207 v 3.621 l 0.67,0.15 v 0.26 h -2.37 v -0.26 l 0.73,-0.15 v -3.516 q 0,-0.486 -0.24,-0.762 -0.23,-0.281 -0.73,-0.281 -0.53,0 -1.3,0.17 v 4.389 l 0.75,0.15 v 0.26 h -2.382 v -0.26 l 0.662,-0.15 v -4.688 l -0.662,-0.146 v -0.264 h 1.572 z"
     id="path148"
     inkscape:connector-curvature="0" />
  <path
     d="M 14.9245,7.859 V 7.261 h 2.08 v 0.598 z"
     id="path150"
     inkscape:connector-curvature="0" />
  <path
     d="m 19.7545,11.426 1.07,0.106 v 0.207 h -2.82 v -0.207 l 1.08,-0.106 V 7.153 l -1.06,0.379 V 7.325 l 1.53,-0.867 h 0.2 z"
     id="path152"
     inkscape:connector-curvature="0" />
</svg>
