<?xml version="1.0" encoding="UTF-8" standalone="no"?>
<svg
   xmlns:dc="http://purl.org/dc/elements/1.1/"
   xmlns:cc="http://creativecommons.org/ns#"
   xmlns:rdf="http://www.w3.org/1999/02/22-rdf-syntax-ns#"
   xmlns:svg="http://www.w3.org/2000/svg"
   xmlns="http://www.w3.org/2000/svg"
   xmlns:sodipodi="http://sodipodi.sourceforge.net/DTD/sodipodi-0.dtd"
   xmlns:inkscape="http://www.inkscape.org/namespaces/inkscape"
   version="1.1"
   id="svg174"
   sodipodi:docname="mi22011.svg"
   width="23"
   height="23"
   inkscape:version="0.92.4 (5da689c313, 2019-01-14)">
  <metadata
     id="metadata180">
    <rdf:RDF>
      <cc:Work
         rdf:about="">
        <dc:format>image/svg+xml</dc:format>
        <dc:type
           rdf:resource="http://purl.org/dc/dcmitype/StillImage" />
        <dc:title></dc:title>
      </cc:Work>
    </rdf:RDF>
  </metadata>
  <defs
     id="defs178" />
  <sodipodi:namedview
     pagecolor="#ffffff"
     bordercolor="#666666"
     borderopacity="1"
     objecttolerance="10"
     gridtolerance="10"
     guidetolerance="10"
     inkscape:pageopacity="0"
     inkscape:pageshadow="2"
     inkscape:window-width="1920"
     inkscape:window-height="995"
     id="namedview176"
     showgrid="false"
     fit-margin-top="0"
     fit-margin-left="0"
     fit-margin-right="0"
     fit-margin-bottom="0"
     inkscape:zoom="2.36"
     inkscape:cx="-31.29131"
     inkscape:cy="-36.43"
     inkscape:window-x="0"
     inkscape:window-y="0"
     inkscape:window-maximized="1"
     inkscape:current-layer="svg174" />
  <path
     d="m 7.08765,11.495 q 0,0.38 -0.273,0.67 -0.266,0.28 -0.672,0.28 -0.406,0 -0.68,-0.28 -0.2653,-0.29 -0.2653,-0.67 0,-0.4 0.2733,-0.67 0.274,-0.27 0.672,-0.27 0.398,0 0.672,0.27 0.273,0.27 0.273,0.67 z m 5.36,0 q 0,0.38 -0.274,0.67 -0.265,0.28 -0.672,0.28 -0.406,0 -0.679,-0.28 -0.266,-0.29 -0.266,-0.67 0,-0.4 0.274,-0.67 0.273,-0.27 0.671,-0.27 0.399,0 0.672,0.27 0.274,0.27 0.274,0.67 z m 5.355,0 q 0,0.38 -0.27,0.67 -0.26,0.28 -0.67,0.28 -0.41,0 -0.68,-0.28 -0.27,-0.29 -0.27,-0.67 0,-0.4 0.28,-0.67 0.27,-0.27 0.67,-0.27 0.4,0 0.67,0.27 0.27,0.27 0.27,0.67 z"
     id="path172"
     inkscape:connector-curvature="0" />
</svg>
