<?xml version="1.0" encoding="UTF-8" standalone="no"?>
<svg
   xmlns:dc="http://purl.org/dc/elements/1.1/"
   xmlns:cc="http://creativecommons.org/ns#"
   xmlns:rdf="http://www.w3.org/1999/02/22-rdf-syntax-ns#"
   xmlns:svg="http://www.w3.org/2000/svg"
   xmlns="http://www.w3.org/2000/svg"
   xmlns:sodipodi="http://sodipodi.sourceforge.net/DTD/sodipodi-0.dtd"
   xmlns:inkscape="http://www.inkscape.org/namespaces/inkscape"
   version="1.1"
   id="svg124"
   sodipodi:docname="mi22010.svg"
   width="23"
   height="23"
   inkscape:version="0.92.4 (5da689c313, 2019-01-14)">
  <metadata
     id="metadata130">
    <rdf:RDF>
      <cc:Work
         rdf:about="">
        <dc:format>image/svg+xml</dc:format>
        <dc:type
           rdf:resource="http://purl.org/dc/dcmitype/StillImage" />
        <dc:title></dc:title>
      </cc:Work>
    </rdf:RDF>
  </metadata>
  <defs
     id="defs128" />
  <sodipodi:namedview
     pagecolor="#ffffff"
     bordercolor="#666666"
     borderopacity="1"
     objecttolerance="10"
     gridtolerance="10"
     guidetolerance="10"
     inkscape:pageopacity="0"
     inkscape:pageshadow="2"
     inkscape:window-width="1920"
     inkscape:window-height="995"
     id="namedview126"
     showgrid="false"
     fit-margin-top="0"
     fit-margin-left="0"
     fit-margin-right="0"
     fit-margin-bottom="0"
     inkscape:zoom="2.36"
     inkscape:cx="-31.94461"
     inkscape:cy="-39.01"
     inkscape:window-x="0"
     inkscape:window-y="0"
     inkscape:window-maximized="1"
     inkscape:current-layer="svg124" />
  <path
     d="m 7.719,8.595 q -0.352,0 -0.61,-0.257 -0.25,-0.25 -0.25,-0.602 0,-0.375 0.242,-0.625 0.258,-0.258 0.618,-0.258 0.351,0 0.617,0.25 0.265,0.242 0.265,0.578 0,0.36 -0.265,0.633 -0.258,0.281 -0.617,0.281 z m 3.726,3.782 q -0.328,0 -0.57,-0.266 -0.242,-0.266 -0.242,-0.602 0,-0.867 0.867,-0.867 0.859,0 0.859,0.852 0,0.351 -0.273,0.617 -0.281,0.266 -0.641,0.266 z m 3.826,3.77 q -0.357,0 -0.623,-0.25 -0.258,-0.25 -0.258,-0.61 0,-0.34 0.266,-0.621 0.274,-0.258 0.615,-0.258 0.35,0 0.61,0.258 0.26,0.265 0.26,0.621 0,0.33 -0.27,0.6 -0.26,0.26 -0.6,0.26 z"
     id="path122"
     inkscape:connector-curvature="0" />
</svg>
