<?xml version="1.0" encoding="UTF-8" standalone="no"?>
<svg
   xmlns:dc="http://purl.org/dc/elements/1.1/"
   xmlns:cc="http://creativecommons.org/ns#"
   xmlns:rdf="http://www.w3.org/1999/02/22-rdf-syntax-ns#"
   xmlns:svg="http://www.w3.org/2000/svg"
   xmlns="http://www.w3.org/2000/svg"
   xmlns:sodipodi="http://sodipodi.sourceforge.net/DTD/sodipodi-0.dtd"
   xmlns:inkscape="http://www.inkscape.org/namespaces/inkscape"
   version="1.1"
   id="svg4"
   sodipodi:docname="mi22007.svg"
   width="23"
   height="23"
   inkscape:version="0.92.4 (5da689c313, 2019-01-14)">
  <metadata
     id="metadata10">
    <rdf:RDF>
      <cc:Work
         rdf:about="">
        <dc:format>image/svg+xml</dc:format>
        <dc:type
           rdf:resource="http://purl.org/dc/dcmitype/StillImage" />
        <dc:title></dc:title>
      </cc:Work>
    </rdf:RDF>
  </metadata>
  <defs
     id="defs8" />
  <sodipodi:namedview
     pagecolor="#ffffff"
     bordercolor="#666666"
     borderopacity="1"
     objecttolerance="10"
     gridtolerance="10"
     guidetolerance="10"
     inkscape:pageopacity="0"
     inkscape:pageshadow="2"
     inkscape:window-width="1920"
     inkscape:window-height="995"
     id="namedview6"
     showgrid="false"
     fit-margin-top="0"
     fit-margin-left="0"
     fit-margin-right="0"
     fit-margin-bottom="0"
     inkscape:zoom="2.36"
     inkscape:cx="-31.60661"
     inkscape:cy="-37.26"
     inkscape:window-x="0"
     inkscape:window-y="0"
     inkscape:window-maximized="1"
     inkscape:current-layer="svg4" />
  <path
     d="m 8.626,11.0515 q 2.547,-2.687 3.774,-3.461 1.234,-0.773 2.281,-0.773 0.894,0 1.464,0.641 0.58,0.632 0.58,1.632 0,1.899 -1.5,3.43 -1.505,1.524 -2.833,1.524 -0.75,0 -1.242,-0.438 -0.492,-0.437 -0.492,-1.094 0,-0.593 0.312,-1 0.313,-0.406 0.766,-0.406 0.242,0 0.406,0.164 0.164,0.164 0.164,0.406 0,0.235 -0.195,0.461 -0.196,0.219 -0.586,0.258 -0.383,0.031 -0.383,0.438 0,0.32 0.359,0.593 0.36,0.266 0.789,0.266 0.649,0 1.368,-0.641 0.718,-0.64 1.218,-1.937 0.509,-1.305 0.509,-2.344 0,-0.625 -0.34,-1.031 -0.325,-0.414 -0.817,-0.414 -0.688,0 -1.422,0.445 -0.727,0.445 -1.93,1.508 -1.203,1.062 -2.054,2.164 0.617,1.281 0.867,2.078 0.25,0.789 0.25,1.324 0,1.05 -0.563,1.78 -0.562,0.73 -1.351,0.73 -0.735,0 -1.242,-0.54 -0.508,-0.54 -0.508,-1.39 0,-0.7 0.312,-1.365 0.321,-0.656 1,-1.64 -0.461,-1.141 -0.461,-1.907 0,-1.257 0.946,-2.515 0.953,-1.258 2.765,-2.352 l 0.211,0.32 q -2.672,1.586 -2.672,3.86 0,0.695 0.25,1.226 z m -0.843,1.766 q -0.829,1.242 -0.985,1.68 -0.156,0.437 -0.156,0.947 0,0.69 0.375,1.12 0.375,0.42 0.922,0.42 0.445,0 0.726,-0.32 0.282,-0.32 0.282,-0.82 0,-0.94 -1.164,-3.027 z"
     id="path2"
     inkscape:connector-curvature="0" />
</svg>
