<?xml version="1.0" encoding="UTF-8" standalone="no"?>
<svg
   xmlns:dc="http://purl.org/dc/elements/1.1/"
   xmlns:cc="http://creativecommons.org/ns#"
   xmlns:rdf="http://www.w3.org/1999/02/22-rdf-syntax-ns#"
   xmlns:svg="http://www.w3.org/2000/svg"
   xmlns="http://www.w3.org/2000/svg"
   xmlns:sodipodi="http://sodipodi.sourceforge.net/DTD/sodipodi-0.dtd"
   xmlns:inkscape="http://www.inkscape.org/namespaces/inkscape"
   version="1.1"
   id="svg64"
   sodipodi:docname="mi22005.svg"
   width="23"
   height="23"
   inkscape:version="0.92.4 (5da689c313, 2019-01-14)">
  <metadata
     id="metadata70">
    <rdf:RDF>
      <cc:Work
         rdf:about="">
        <dc:format>image/svg+xml</dc:format>
        <dc:type
           rdf:resource="http://purl.org/dc/dcmitype/StillImage" />
        <dc:title></dc:title>
      </cc:Work>
    </rdf:RDF>
  </metadata>
  <defs
     id="defs68" />
  <sodipodi:namedview
     pagecolor="#ffffff"
     bordercolor="#666666"
     borderopacity="1"
     objecttolerance="10"
     gridtolerance="10"
     guidetolerance="10"
     inkscape:pageopacity="0"
     inkscape:pageshadow="2"
     inkscape:window-width="1920"
     inkscape:window-height="995"
     id="namedview66"
     showgrid="false"
     fit-margin-top="0"
     fit-margin-left="0"
     fit-margin-right="0"
     fit-margin-bottom="0"
     inkscape:zoom="2.36"
     inkscape:cx="-31.40361"
     inkscape:cy="-42.521"
     inkscape:window-x="0"
     inkscape:window-y="0"
     inkscape:window-maximized="1"
     inkscape:current-layer="svg64" />
  <path
     d="m 16.5965,11.524 q 0,1.289 -0.7,2.156 -0.696,0.867 -1.759,0.867 -1.64,0 -2.742,-2.062 -0.5,0.992 -1.14,1.507 -0.641,0.508 -1.368,0.508 -1.109,0 -1.796,-0.828 -0.688,-0.828 -0.688,-2.195 0,-1.321 0.695,-2.172 0.696,-0.852 1.789,-0.852 0.821,0 1.516,0.5 0.695,0.5 1.203,1.516 0.5,-0.977 1.11,-1.469 0.617,-0.5 1.437,-0.5 1.109,0 1.773,0.844 0.67,0.836 0.67,2.18 z M 14.3025,9.32 q -0.625,0 -1.149,0.547 -0.516,0.547 -1.016,1.657 0.469,1.101 0.985,1.656 0.523,0.555 1.195,0.555 0.75,0 1.219,-0.625 0.48,-0.625 0.48,-1.602 0,-0.938 -0.48,-1.563 -0.477,-0.625 -1.234,-0.625 z m -3.461,2.157 q -0.446,-1.094 -0.969,-1.649 -0.516,-0.562 -1.219,-0.562 -0.726,0 -1.195,0.633 -0.461,0.625 -0.461,1.593 0,0.985 0.453,1.594 0.461,0.602 1.234,0.602 0.633,0 1.157,-0.547 0.523,-0.555 1,-1.664 z"
     id="path62"
     inkscape:connector-curvature="0" />
</svg>
