<?xml version="1.0" encoding="UTF-8" standalone="no"?>
<svg
   xmlns:dc="http://purl.org/dc/elements/1.1/"
   xmlns:cc="http://creativecommons.org/ns#"
   xmlns:rdf="http://www.w3.org/1999/02/22-rdf-syntax-ns#"
   xmlns:svg="http://www.w3.org/2000/svg"
   xmlns="http://www.w3.org/2000/svg"
   xmlns:sodipodi="http://sodipodi.sourceforge.net/DTD/sodipodi-0.dtd"
   xmlns:inkscape="http://www.inkscape.org/namespaces/inkscape"
   version="1.1"
   id="svg274"
   sodipodi:docname="op21421.svg"
   width="25"
   height="25"
   inkscape:version="0.92.4 (5da689c313, 2019-01-14)">
  <metadata
     id="metadata280">
    <rdf:RDF>
      <cc:Work
         rdf:about="">
        <dc:format>image/svg+xml</dc:format>
        <dc:type
           rdf:resource="http://purl.org/dc/dcmitype/StillImage" />
        <dc:title></dc:title>
      </cc:Work>
    </rdf:RDF>
  </metadata>
  <defs
     id="defs278" />
  <sodipodi:namedview
     pagecolor="#ffffff"
     bordercolor="#666666"
     borderopacity="1"
     objecttolerance="10"
     gridtolerance="10"
     guidetolerance="10"
     inkscape:pageopacity="0"
     inkscape:pageshadow="2"
     inkscape:window-width="1920"
     inkscape:window-height="995"
     id="namedview276"
     showgrid="false"
     fit-margin-top="0"
     fit-margin-left="0"
     fit-margin-right="0"
     fit-margin-bottom="0"
     inkscape:zoom="2.36"
     inkscape:cx="-31.55161"
     inkscape:cy="-37.74"
     inkscape:window-x="0"
     inkscape:window-y="0"
     inkscape:window-maximized="1"
     inkscape:current-layer="svg274" />
  <path
     d="m 17.2575,15.317 q -0.77,1.427 -1.828,2.067 -1.054,0.65 -2.554,0.65 -2.243,0 -3.688,-1.52 -1.445,-1.525 -1.445,-3.806 0,-2.43 1.539,-4.078 1.539,-1.648 3.883,-1.648 0.554,0 1.117,0.14 0.562,0.141 1.14,0.422 0.329,0.156 0.461,0.156 0.477,0 0.625,-0.734 h 0.27 l 0.25,3.594 h -0.25 q -0.832,-3.039 -3.551,-3.039 -1.703,0 -2.703,1.351 -0.992,1.344 -0.992,3.82 0,2.258 1.101,3.462 1.102,1.19 2.852,1.19 1.109,0 1.906,-0.48 0.797,-0.48 1.637,-1.711 z m -3.742,2.357 q -4.304,-0.35 -4.304,-4.982 0,-2.242 0.828,-3.632 0.828,-1.391 2.297,-1.696 -1.86,0.203 -3.071,1.719 -1.203,1.516 -1.203,3.625 0,2.172 1.359,3.596 1.368,1.41 3.469,1.41 0.305,0 0.625,-0.04 z m 2.992,-9.927 q -0.25,0.274 -0.625,0.274 -0.117,0 -0.273,-0.055 0.586,0.469 0.998,1.25 z"
     id="path272"
     inkscape:connector-curvature="0" />
</svg>
