<?xml version="1.0" encoding="UTF-8" standalone="no"?>
<svg
   xmlns:dc="http://purl.org/dc/elements/1.1/"
   xmlns:cc="http://creativecommons.org/ns#"
   xmlns:rdf="http://www.w3.org/1999/02/22-rdf-syntax-ns#"
   xmlns:svg="http://www.w3.org/2000/svg"
   xmlns="http://www.w3.org/2000/svg"
   xmlns:sodipodi="http://sodipodi.sourceforge.net/DTD/sodipodi-0.dtd"
   xmlns:inkscape="http://www.inkscape.org/namespaces/inkscape"
   version="1.1"
   id="svg126"
   sodipodi:docname="op21415.svg"
   width="25"
   height="25"
   inkscape:version="0.92.4 (5da689c313, 2019-01-14)">
  <metadata
     id="metadata132">
    <rdf:RDF>
      <cc:Work
         rdf:about="">
        <dc:format>image/svg+xml</dc:format>
        <dc:type
           rdf:resource="http://purl.org/dc/dcmitype/StillImage" />
        <dc:title></dc:title>
      </cc:Work>
    </rdf:RDF>
  </metadata>
  <defs
     id="defs130" />
  <sodipodi:namedview
     pagecolor="#ffffff"
     bordercolor="#666666"
     borderopacity="1"
     objecttolerance="10"
     gridtolerance="10"
     guidetolerance="10"
     inkscape:pageopacity="0"
     inkscape:pageshadow="2"
     inkscape:window-width="1920"
     inkscape:window-height="995"
     id="namedview128"
     showgrid="false"
     fit-margin-top="0"
     fit-margin-left="0"
     fit-margin-right="0"
     fit-margin-bottom="0"
     inkscape:zoom="2.36"
     inkscape:cx="-30.15431"
     inkscape:cy="-40.749"
     inkscape:window-x="0"
     inkscape:window-y="0"
     inkscape:window-maximized="1"
     inkscape:current-layer="svg126" />
  <path
     d="m 2.38915,15.1838 v 0.242 h -2.0103 v -0.242 l 0.6928,-0.123 2.0825,-5.796 h 0.866 l 2.165,5.796 0.774,0.123 v 0.242 h -2.584 v -0.242 l 0.821,-0.123 -0.606,-1.763 h -2.407 l -0.615,1.763 z m 0.979,-5.263 -1.048,2.967 h 2.128 z"
     id="path120"
     inkscape:connector-curvature="0" />
  <path
     d="m 12.95115,14.6968 h 2.91 v 0.729 h -2.91 q -0.23,0 -0.45,-0.032 l -0.46,1.267 -0.69,-0.255 0.44,-1.217 q -0.16,-0.068 -0.31,-0.155 -0.68,-0.392 -1.068,-1.066 -0.392,-0.675 -0.392,-1.468 0,-0.793 0.392,-1.467 0.388,-0.675 1.068,-1.067 0.67,-0.392 1.47,-0.392 h 0.88 l 0.45,-1.2346 0.69,0.2556 -0.35,0.979 h 1.24 v 0.73 h -1.51 l -1.6,4.384 q 0.1,0.009 0.2,0.009 z m -0.91,-0.196 1.53,-4.197 h -0.62 q -0.6,0 -1.1,0.296 -0.51,0.296 -0.8,0.802 -0.3,0.506 -0.3,1.098 0,0.593 0.3,1.099 0.3,0.515 0.8,0.802 0.09,0.054 0.19,0.1 z"
     id="path122"
     inkscape:connector-curvature="0" />
  <path
     d="m 23.22115,10.7958 q 0,-0.561 -0.35,-0.816 -0.35,-0.255 -1.14,-0.255 h -0.95 v 2.31 h 1 q 0.74,0 1.09,-0.291 0.35,-0.292 0.35,-0.948 z m 0.46,2.889 q 0,-0.642 -0.43,-0.939 -0.43,-0.3 -1.37,-0.3 h -1.1 v 2.57 q 0.63,0.027 1.34,0.027 0.78,0 1.17,-0.328 0.39,-0.333 0.39,-1.03 z m -4.56,1.741 v -0.242 l 0.78,-0.123 v -5.386 l -0.78,-0.119 v -0.241 h 2.79 q 1.17,0 1.7,0.346 0.54,0.342 0.54,1.089 0,0.538 -0.33,0.916 -0.33,0.379 -0.93,0.506 0.83,0.087 1.28,0.483 0.45,0.392 0.45,1.012 0,0.879 -0.61,1.335 -0.61,0.451 -1.77,0.451 l -1.95,-0.027 z"
     id="path124"
     inkscape:connector-curvature="0" />
</svg>
