<?xml version="1.0" encoding="UTF-8" standalone="no"?>
<svg
   xmlns:dc="http://purl.org/dc/elements/1.1/"
   xmlns:cc="http://creativecommons.org/ns#"
   xmlns:rdf="http://www.w3.org/1999/02/22-rdf-syntax-ns#"
   xmlns:svg="http://www.w3.org/2000/svg"
   xmlns="http://www.w3.org/2000/svg"
   xmlns:sodipodi="http://sodipodi.sourceforge.net/DTD/sodipodi-0.dtd"
   xmlns:inkscape="http://www.inkscape.org/namespaces/inkscape"
   version="1.1"
   id="svg140"
   sodipodi:docname="un21214.svg"
   width="30"
   height="30"
   inkscape:version="0.92.4 (5da689c313, 2019-01-14)">
  <metadata
     id="metadata146">
    <rdf:RDF>
      <cc:Work
         rdf:about="">
        <dc:format>image/svg+xml</dc:format>
        <dc:type
           rdf:resource="http://purl.org/dc/dcmitype/StillImage" />
        <dc:title></dc:title>
      </cc:Work>
    </rdf:RDF>
  </metadata>
  <defs
     id="defs144" />
  <sodipodi:namedview
     pagecolor="#ffffff"
     bordercolor="#666666"
     borderopacity="1"
     objecttolerance="10"
     gridtolerance="10"
     guidetolerance="10"
     inkscape:pageopacity="0"
     inkscape:pageshadow="2"
     inkscape:window-width="1920"
     inkscape:window-height="995"
     id="namedview142"
     showgrid="false"
     fit-margin-top="0"
     fit-margin-left="0"
     fit-margin-right="0"
     fit-margin-bottom="0"
     inkscape:zoom="2.36"
     inkscape:cx="-31.37061"
     inkscape:cy="-37.4"
     inkscape:window-x="0"
     inkscape:window-y="0"
     inkscape:window-maximized="1"
     inkscape:current-layer="svg140" />
  <path
     d="m 7.795,19.921 0.883,0.2 -0.063,0.35 H 6.388 l 0.227,-1.22 q -1.32,1.38 -2.414,1.38 -0.946,0 -1.524,-0.69 -0.57,-0.7 -0.57,-1.916 0,-1.367 0.594,-2.554 0.601,-1.196 1.601,-1.86 1,-0.672 2.172,-0.672 0.946,0 1.782,0.328 L 8.607,13.002 H 9.029 Z M 7.568,13.931 Q 7.263,13.72 6.998,13.642 6.732,13.556 6.342,13.556 q -0.782,0 -1.438,0.594 -0.649,0.586 -1.024,1.586 -0.375,1 -0.375,2.086 0,0.839 0.344,1.339 0.344,0.5 0.938,0.5 0.883,0 1.93,-1.09 z"
     id="path134"
     inkscape:connector-curvature="0" />
  <path
     d="m 15.533,9.994 h 0.39 l 3.34,7.438 h -0.8 l -2.74,-6.321 -2.73,6.321 h -0.8 z"
     id="path136"
     inkscape:connector-curvature="0" />
  <path
     d="m 22.763,9.908 -1.04,-0.188 0.06,-0.351 h 2.35 l -0.58,3.445 q -0.13,0.891 -0.3,1.508 0.62,-0.641 1.28,-1.016 0.66,-0.375 1.22,-0.375 0.97,0 1.56,0.704 0.58,0.695 0.58,1.906 0,1.344 -0.58,2.54 -0.58,1.19 -1.6,1.87 -1.03,0.68 -2.24,0.68 -0.68,0 -1.35,-0.18 -0.66,-0.18 -1.15,-0.48 z m -0.44,9.723 q 0.45,0.38 1.25,0.38 0.8,0 1.47,-0.59 0.68,-0.59 1.07,-1.583 0.39,-1 0.39,-2.094 0,-0.875 -0.37,-1.352 -0.36,-0.484 -0.97,-0.484 -0.46,0 -1,0.305 -0.53,0.304 -1.02,0.781 z"
     id="path138"
     inkscape:connector-curvature="0" />
</svg>
