<?xml version="1.0" encoding="UTF-8" standalone="no"?>
<svg
   xmlns:dc="http://purl.org/dc/elements/1.1/"
   xmlns:cc="http://creativecommons.org/ns#"
   xmlns:rdf="http://www.w3.org/1999/02/22-rdf-syntax-ns#"
   xmlns:svg="http://www.w3.org/2000/svg"
   xmlns="http://www.w3.org/2000/svg"
   xmlns:sodipodi="http://sodipodi.sourceforge.net/DTD/sodipodi-0.dtd"
   xmlns:inkscape="http://www.inkscape.org/namespaces/inkscape"
   version="1.1"
   id="svg32"
   sodipodi:docname="un21207.svg"
   width="30"
   height="30"
   inkscape:version="0.92.4 (5da689c313, 2019-01-14)">
  <metadata
     id="metadata38">
    <rdf:RDF>
      <cc:Work
         rdf:about="">
        <dc:format>image/svg+xml</dc:format>
        <dc:type
           rdf:resource="http://purl.org/dc/dcmitype/StillImage" />
        <dc:title></dc:title>
      </cc:Work>
    </rdf:RDF>
  </metadata>
  <defs
     id="defs36" />
  <sodipodi:namedview
     pagecolor="#ffffff"
     bordercolor="#666666"
     borderopacity="1"
     objecttolerance="10"
     gridtolerance="10"
     guidetolerance="10"
     inkscape:pageopacity="0"
     inkscape:pageshadow="2"
     inkscape:window-width="1920"
     inkscape:window-height="995"
     id="namedview34"
     showgrid="false"
     fit-margin-top="0"
     fit-margin-left="0"
     fit-margin-right="0"
     fit-margin-bottom="0"
     inkscape:zoom="2.36"
     inkscape:cx="-31.32061"
     inkscape:cy="-37.8"
     inkscape:window-x="0"
     inkscape:window-y="0"
     inkscape:window-maximized="1"
     inkscape:current-layer="svg32" />
  <path
     d="m 7.685,19.92125 0.883,0.2 -0.062,0.35 H 6.279 l 0.226,-1.22 q -1.32,1.38 -2.414,1.38 -0.945,0 -1.523,-0.69 -0.571,-0.7 -0.571,-1.916 0,-1.367 0.594,-2.554 0.602,-1.196 1.602,-1.86 1,-0.672 2.172,-0.672 0.945,0 1.781,0.328 l 0.352,-0.265 H 8.92 Z m -0.226,-5.99 q -0.305,-0.211 -0.571,-0.289 -0.265,-0.086 -0.656,-0.086 -0.781,0 -1.438,0.594 -0.648,0.586 -1.023,1.586 -0.375,1 -0.375,2.086 0,0.839 0.344,1.339 0.343,0.5 0.937,0.5 0.883,0 1.93,-1.09 z"
     id="path26"
     inkscape:connector-curvature="0" />
  <path
     d="m 17.553,14.18025 -2.07,2.793 2.18,2.948 h -1.11 l -1.67,-2.256 -1.68,2.256 h -1.11 l 2.23,-3.004 -2.04,-2.737 h 1.11 l 1.53,2.045 1.52,-2.045 z"
     id="path28"
     inkscape:connector-curvature="0" />
  <path
     d="m 22.863,9.90825 -1.04,-0.188 0.07,-0.3515 h 2.34 l -0.58,3.4455 q -0.13,0.891 -0.3,1.508 0.62,-0.641 1.28,-1.016 0.66,-0.375 1.22,-0.375 0.97,0 1.56,0.704 0.59,0.695 0.59,1.906 0,1.344 -0.59,2.539 -0.58,1.191 -1.6,1.871 -1.02,0.68 -2.24,0.68 -0.68,0 -1.35,-0.18 -0.65,-0.18 -1.15,-0.48 z m -0.44,9.723 q 0.45,0.38 1.26,0.38 0.79,0 1.46,-0.59 0.68,-0.59 1.07,-1.583 0.39,-1 0.39,-2.094 0,-0.875 -0.37,-1.352 -0.36,-0.484 -0.97,-0.484 -0.46,0 -1,0.305 -0.53,0.304 -1.01,0.781 z"
     id="path30"
     inkscape:connector-curvature="0" />
</svg>
