<?xml version="1.0" encoding="UTF-8" standalone="no"?>
<svg
   xmlns:dc="http://purl.org/dc/elements/1.1/"
   xmlns:cc="http://creativecommons.org/ns#"
   xmlns:rdf="http://www.w3.org/1999/02/22-rdf-syntax-ns#"
   xmlns:svg="http://www.w3.org/2000/svg"
   xmlns="http://www.w3.org/2000/svg"
   xmlns:sodipodi="http://sodipodi.sourceforge.net/DTD/sodipodi-0.dtd"
   xmlns:inkscape="http://www.inkscape.org/namespaces/inkscape"
   version="1.1"
   id="svg6"
   sodipodi:docname="un21201.svg"
   width="30"
   height="30"
   inkscape:version="0.92.4 (5da689c313, 2019-01-14)">
  <metadata
     id="metadata12">
    <rdf:RDF>
      <cc:Work
         rdf:about="">
        <dc:format>image/svg+xml</dc:format>
        <dc:type
           rdf:resource="http://purl.org/dc/dcmitype/StillImage" />
        <dc:title></dc:title>
      </cc:Work>
    </rdf:RDF>
  </metadata>
  <defs
     id="defs10" />
  <sodipodi:namedview
     pagecolor="#ffffff"
     bordercolor="#666666"
     borderopacity="1"
     objecttolerance="10"
     gridtolerance="10"
     guidetolerance="10"
     inkscape:pageopacity="0"
     inkscape:pageshadow="2"
     inkscape:window-width="1920"
     inkscape:window-height="995"
     id="namedview8"
     showgrid="false"
     fit-margin-top="0"
     fit-margin-left="0"
     fit-margin-right="0"
     fit-margin-bottom="0"
     inkscape:zoom="2.36"
     inkscape:cx="-30.97211"
     inkscape:cy="-40.132"
     inkscape:window-x="0"
     inkscape:window-y="0"
     inkscape:window-maximized="1"
     inkscape:current-layer="svg6" />
  <path
     d="m 9.92025,14.5239 v 3.328 h -0.805 v -3.328 h -3.3125 v -0.797 h 3.3125 v -3.3288 h 0.805 v 3.3288 h 3.328 v 0.797 z"
     id="path2"
     inkscape:connector-curvature="0" />
  <path
     d="m 22.95725,18.8909 0.89,0.195 -0.07,0.352 h -2.22 l 0.22,-1.219 q -1.32,1.383 -2.41,1.383 -0.95,0 -1.52,-0.695 -0.57,-0.696 -0.57,-1.915 0,-1.367 0.59,-2.554 0.6,-1.196 1.6,-1.86 1,-0.672 2.17,-0.672 0.95,0 1.78,0.328 l 0.36,-0.265 h 0.42 z m -0.22,-5.993 q -0.31,-0.211 -0.57,-0.289 -0.27,-0.086 -0.66,-0.086 -0.78,0 -1.44,0.594 -0.65,0.586 -1.02,1.586 -0.38,1 -0.38,2.086 0,0.836 0.35,1.336 0.34,0.5 0.93,0.5 0.89,0 1.93,-1.086 z"
     id="path4"
     inkscape:connector-curvature="0" />
</svg>
