<svg viewBox="0 0 32 32" xmlns="http://www.w3.org/2000/svg"><g transform="matrix(0 1 -1 0 32 0)"><path d="m4.5 28.5v-25h23v25z" fill="#fafafa" fill-rule="evenodd" stroke="#3a3a38" stroke-linecap="round" stroke-linejoin="round"/><g fill="#3a3a38"><rect height="7" opacity=".99" ry=".5" width="1" x="8" y="6"/><rect height="7" opacity=".99" ry=".5" width="1" x="12" y="6"/><rect height="4" opacity=".99" ry=".5" width="1" x="16" y="6"/></g><path d="m7 17h14v-2h-5v-3h-2v3h-7zm2 9h2v-6c4.456932.247361 6.97045 2.461785 7 6h2c-.06001-6.400071-5.789744-8.124987-9.542969-8h-1.457031z" fill="#1e8bcd" fill-rule="evenodd"/><g fill="#818181"><rect height="20" opacity=".99" ry=".472666" width="1" x="23" y="6"/><rect height="7" opacity=".99" ry=".472666" width="1" x="19" y="6"/></g></g></svg>