<svg viewBox="0 0 32 32" xmlns="http://www.w3.org/2000/svg"><path d="m6 3v26h10.585938l-4.292969-4.292969a1.0001 1.0001 0 0 1 0-1.414062l1-1a1.0001 1.0001 0 0 1 1.414062 0l4.292969 4.292969 7-7v-11.226563l-6-5.359375zm20 21.414062-4.585938 4.585938h4.585938z" fill="#fafafa"/><path d="m6 2c-.554 0-1 .446-1 1v26c0 .554.446 1 1 1h11.585938l-1-1h-10.585938v-26h13v6c0 .554.446016 1.004232 1 1h6v9.585938l1-1v-7.695313-1.640625-.2089844c0-.4506797.098038-.4254121-.605469-1.0664062l-5.30664-5.2382813c-.709525-.7368575-1.477331-.7363281-1.09375-.7363281h-.332032-.662109zm21 21.414062-1 1v4.585938h-4.585938l-1 1h5.585938c.554 0 1-.446 1-1z" fill="#3a3a38"/><path d="m20 9h6l-6-6z" fill="#fafafa" fill-rule="evenodd"/><g fill="#fb983b"><rect height="1" ry=".5" width="5" x="19" y="14"/><rect height="1" ry=".5" width="7" x="8" y="18"/><path d="m8.5 26c-.277 0-.5.223-.5.5s.223.5.5.5h6c.025569 0 .04775-.010005.072266-.013672l-.986328-.986328z"/></g><g fill="#797774"><rect height="1" ry=".5" width="5" x="8" y="10"/><rect height="1" ry=".5" width="9" x="8" y="14"/><rect height="1" ry=".474576" width="4" x="8" y="22"/><rect height="1" ry=".474576" width="4" x="17" y="18"/><rect height="1" ry=".5" width="2" x="15" y="10"/></g><path d="m19 30-6-6 1-1 5 5 11-11 1 1z" fill="#1e8bcd"/></svg>