<svg viewBox="0 0 32 32" xmlns="http://www.w3.org/2000/svg"><path d="m4 3v9.585938l2 2 10.292969-10.2929692a1.0001 1.0001 0 0 1 .691406-.2929688 1.0001 1.0001 0 0 1 .722656.2929688l1 1a1.0001 1.0001 0 0 1 0 1.4140624l-11.9999998 11.9999998a1.0001 1.0001 0 0 1 -1.4140624 0l-1.2929688-1.292969v11.585938h20v-.095703c-.201443-.073243-.392406-.185374-.550781-.34375-.575306-.575303-.575303-1.545791 0-2.121094l.550781-.552734v-1.886719h-9.5c-.813728 0-1.5-.686272-1.5-1.5s.686272-1.5 1.5-1.5h9.5v-1.886719l-.550781-.552734c-.575303-.575303-.575306-1.545791 0-2.121094.158375-.158376.349338-.270507.550781-.34375v-7.736328l-6-5.359375z" fill="#fafafa"/><path d="m4 2c-.554 0-1 .446-1 1v8.585938l1 1v-9.585938h13v1a1.0001 1.0001 0 0 1 .707031.2929688l1 1a1.0001 1.0001 0 0 1 0 1.4140624l-1.707031 1.7070313v.5859375c0 .554.446016 1.004232 1 1h6v6.095703c.165652-.06023.33781-.095703.509766-.095703.165292 0 .330395.034147.490234.089844v-5.199219-1.640625-.2089844c0-.4506797.098038-.4254121-.605469-1.0664062l-5.30664-5.2382813c-.709525-.7368575-1.477331-.7363281-1.09375-.7363281h-.332032-.662109zm-1 14.414062v12.585938c0 .554.446 1 1 1h20c.554 0 1-.446 1-1v-.089844c-.159839.055698-.32494.089844-.490234.089844-.171956 0-.344114-.035473-.509766-.095703v.095703h-20v-11.585938zm21 2.699219v1.886719h1v-.884766zm0 4.886719v1.886719l1-1.001953v-.884766z" fill="#3a3a38"/><path d="m18 3v1.5859375l.707031.7070313a1.0001 1.0001 0 0 1 0 1.4140624l-.707031.7070313v1.5859375h6z" fill="#fafafa" fill-rule="evenodd"/><path d="m24.509766 17c-.127809 0-.255582.04855-.353516.146484-.195869.195868-.195869.511163 0 .707032l4.136719 4.146484h-13.792969c-.277 0-.5.223-.5.5s.223.5.5.5h13.792969l-4.136719 4.146484c-.195869.195869-.195869.511164 0 .707032.097934.097934.225707.146484.353516.146484.12781 0 .255581-.04855.353515-.146484l4.990235-5c.04702-.04701.08408-.103236.109375-.166016.02334-.057904.037109-.12105.037109-.1875s-.01377-.129596-.03711-.1875c-.0253-.06278-.06236-.119003-.109375-.166016l-4.990235-5c-.097934-.097935-.225704-.146484-.353514-.146484z" fill="#1e8bcd"/><g stroke-width=".857112" transform="matrix(1.1667513 0 0 1.1666667 1.165737 3.166667)"><g fill="#fb983b"><rect height=".857143" ry=".428571" width="4.285403" x="13.571241" y="9.285714"/><path d="m7.4140625 18-.7070313.707031a1.0001 1.0001 0 0 1 -.4101562.248047c.0622651.027726.1303372.044922.203125.044922h6c.27702 0 .5-.223.5-.5s-.22298-.5-.5-.5z" stroke-width="1" transform="matrix(.85708068 0 0 .85714283 -.99913 -2.714286)"/><rect height=".857143" ry=".428571" width="5.999565" x="4.143354" y="19.571428"/></g><g fill="#797774"><path d="m6.5 10c-.2770198 0-.5.223-.5.5s.2229802.5.5.5h3.0859375l.9863285-.986328c-.024518-.003667-.046695-.013672-.072266-.013672z" stroke-width="1" transform="matrix(.85708068 0 0 .85714283 -.99913 -2.714286)"/><path d="m6.5 14c-.2770198 0-.5.223-.5.5 0 .025569.0100043.04775.0136719.072266l.5722656-.572266zm4.914062 0-1 1h4.085938c.27702 0 .5-.223.5-.5s-.22298-.5-.5-.5z" stroke-width="1" transform="matrix(.85708068 0 0 .85714283 -.99913 -2.714286)"/><rect height=".857143" ry=".406779" width="3.428323" x="4.143354" y="16.142857"/><path d="m12.474609 22c-.262934 0-.474609.211695-.474609.474609v.050782c0 .262914.211675.474609.474609.474609h.619141c-.057857-.157572-.09375-.325104-.09375-.5s.035893-.342428.09375-.5z" stroke-width="1" transform="matrix(.85708068 0 0 .85714283 -.99913 -2.714286)"/><rect height=".857143" ry=".406779" width="3.428323" x="11.85708" y="12.714285"/><path d="m14.986328 10.427734-.572266.572266h.085938c.27702 0 .5-.223.5-.5 0-.025569-.010004-.04775-.013672-.072266z" stroke-width="1" transform="matrix(.85708068 0 0 .85714283 -.99913 -2.714286)"/></g></g><path d="m6 18-6-5.999998 1-1 5 4.999998 11-10.999998 1 1z" fill="#1e8bcd"/></svg>