<svg viewBox="0 0 32 32" xmlns="http://www.w3.org/2000/svg"><g fill="#3a3a38" transform="scale(-1 1)"><rect height="1" ry=".436441" width="26" x="-29" y="24"/><rect height="1" ry=".404121" width="17.999998" x="-21" y="27"/><rect height="1" ry=".440076" width="18.000002" x="-21" y="19"/></g><path d="m17 10.501952c0 .12781-.04855.255582-.146484.353516l-5 4.998047c-.04701.04702-.103236.08408-.166016.109375-.0579.02334-.12105.03711-.1875.03711s-.129596-.01377-.1875-.03711c-.06278-.0253-.119003-.06236-.166016-.109375l-5-4.998047c-.097934-.097934-.146484-.225706-.146484-.353516 0-.127809.04855-.255582.146484-.353516.195868-.195869.511163-.195869.707032 0l4.146484 4.144532v-10.80009c0-.277.223-.5.5-.5s.5.223.5.5v10.80009l4.146484-4.144532c.195869-.195869.511164-.195869.707032 0 .097934.097934.146484.225707.146484.353516z" fill="#1e8bcd"/></svg>