<svg viewBox="0 0 32 32" xmlns="http://www.w3.org/2000/svg"><g fill="#3a3a38" transform="scale(-1 1)"><rect height="1" ry=".5" width="14.999998" x="-28" y="4"/><rect height="1" ry=".392136" width="15.000005" x="-28" y="14"/><rect height="1" ry=".436441" width="15.000001" x="-28" y="24"/><rect height="1" ry=".5" width="8.999999" x="-22" y="27"/><rect height="1" ry=".5" width="8.999999" x="-22" y="17"/><rect height="1" ry=".5" width="9.000002" x="-22" y="7"/></g><g fill="#1e8bcd"><path d="m5.9492188 3-2.9492188 8h.84375c.0917382 0 .1686045-.027311.2324219-.080078.0678058-.052765.1147398-.11264.1386719-.181641l.6015624-1.738281h3.3671876l.6074218 1.744141c.0319086.073058.0769719.134887.1328125.183593.0598291.048707.1366954.072266.2324219.072266h.84375l-2.9433594-8zm.5507812 1.046875c.0358975.150178.0733952.2900385.1132812.4199219.0398862.1298826.0792547.2443842.1191407.3417969l1.1035156 3.1914062h-2.671875l1.1035156-3.1855469c.0358975-.0974126.0733953-.2119135.1132813-.3417969.0398861-.1298833.0792546-.2715445.1191406-.4257812z"/><path d="m3 21v-8h2.727889c.526076 0 .977323.04871 1.353741.146119.380952.09335.691609.231354.931971.414003.244898.178589.424036.397767.537414.657534.098024.269252.1056145.630013.068032.856924-.06349.182649-.160999.351092-.292517.505328-.131519.154237-.297052.294267-.496598.420092-.199547.125824-.435374.227295-.707483.304414.621315.109589 1.088435.539321 1.40136.847793.31746.304414.476191 1.065449.476191 1.564688 0 .340943-.065761.528159-.19728.80822-.13152.280061-.324264.521562-.578231.724505-.253968.198884-.566892.476407-.938774.585996-.367347.109589-.789115.164384-1.265305.164384zm1-4v3h1.999997c.312925 0 .580498-.0345.802719-.1035.226758-.07306.410432-.172502.551021-.298326.145125-.125825.249434-.152715.312926-.327246.06802-.178589.102036-.371385.102036-.578386 0-.409945-.145126-1.093861-.435375-1.333333-.285711-.239472-.730154-.359099-1.333327-.359209zm0-1h1.680269c.303855 0 .569161-.03247.795918-.09741.226757-.069.414966-.162355.564625-.280061.14966-.117707.260771-.259767.333333-.42618.125855-.320889-.0721089-.566975-.3129245-.867577-.281179-.219183-.725623-.328772-1.333332-.328772h-1.7278885z"/><path d="m8.8967215 29.372047q.085629 0 .1590263.0734l.4403804.477079q-.434264.574941-1.0703692.892993-.6361051.318053-1.5229824.318053-.7828986 0-1.4190037-.299704-.6299887-.299706-1.082602-.837949-.4464969-.544359-.6911527-1.296676-.2385394-.758433-.2385394-1.669775 0-.911343.2568886-1.66366.2568886-.758433.7217347-1.302792.464846-.544359 1.1131839-.844063.6483379-.299703 1.4312365-.299703.7767822 0 1.3639562.275238.5932903.275237 1.0336708.7462l-.3669837.513777q-.036698.05505-.091746.09175-.055048.0367-.1406771.0367-.1039788 0-.2324231-.110095-.1223278-.110101-.3241688-.238545-.2018411-.134561-.5015444-.244656-.2997034-.110095-.7462003-.110095-.52601 0-.9663904.214074-.4342641.214074-.7523167.623872-.3119361.403682-.4893116.990856-.1712591.581058-.1712591 1.321142 0 .7462.1834919 1.333374.1834919.587174.5015444.990856.3180526.403682.7462003.617756.434264.214074.929692.214074.3058198 0 .5443592-.04282.2446558-.04282.4464969-.128445.2079574-.09174.3853329-.226306.1834919-.140677.3608673-.330285.097862-.08563.1896083-.08563z" transform="matrix(.98077857 0 0 .98077857 -.404752 .519486)"/></g></svg>