<svg viewBox="0 0 32 32" xmlns="http://www.w3.org/2000/svg"><path d="m4 3c-.554 0-1 .446-1 1v24c0 .554.446 1 1 1h24c.554 0 1-.446 1-1v-24c0-.554-.446-1-1-1zm1 1h2v2h-2zm4 0h2v2h-2zm4 0h2v2h-2zm4 0h2v2h-2zm4 0h2v2h-2zm4 0h2v2h-2zm-21 3h24v18h-24zm1 19h2v2h-2zm4 0h2v2h-2zm4 0h2v2h-2zm4 0h2v2h-2zm4 0h2v2h-2zm4 0h2v2h-2z" fill="#3a3a38"/><path d="m4 7h24v18h-24z" fill="#fafafa"/><g transform="translate(6.187001 .998047)"><path d="m9.8066404 7.3769535a.49809421.49809421 0 0 0 -.4707031.3554688l-1.5820313 5.2695307h-5.2539062a.49809421.49809421 0 0 0 -.2988281.896485l4.2480469 3.1875-1.0625 5.316406a.49809421.49809421 0 0 0 .8125.476562l3.6503906-3.130859 4.7499998 3.166015a.49809421.49809421 0 0 0 .751953-.55664l-1.59375-5.314453 3.691407-3.164063a.49809421.49809421 0 0 0 -.324219-.876953h-4.724609l-2.125-5.3124995a.49809421.49809421 0 0 0 -.4687506-.3125z" fill="#ed8733"/><path d="m9.8828123 9.4492194-1.2597656 4.1992186a.5192402.5192402 0 0 1 -.4980469.371093h-4.0664062l3.2519531 2.439453a.5192402.5192402 0 0 1 .1992187.517578l-.8300781 4.148438 2.7949219-2.394531a.5192402.5192402 0 0 1 .6249998-.03711l3.863282 2.576172-1.273438-4.246093a.5192402.5192402 0 0 1 .160156-.542969l2.871094-2.460938h-3.658203a.5192402.5192402 0 0 1 -.482422-.326172z" fill="#f8db8f"/></g></svg>