<svg viewBox="0 0 32 32" xmlns="http://www.w3.org/2000/svg"><path d="m11 3.5v3.5h4c1.090703 0 2 .9092972 2 2 0 1.090703-.909297 2-2 2h-4v4c0 1.090703-.909297 2-2 2-1.0907028 0-2-.909297-2-2v-4h-.4609375v3.841797c-.018245-.0038-.0364745-.007699-.0546875-.011719l.015625 7.669922c-1.725908 0-3 1.149093-3 2.875s1.399094 3.125 3.125 3.125h1.5625 1.5625 3.125 3.125 2.1875 1.15625c1.731219 0 3.550993-.954096 3.617188-3.125v-3.125-5.091797c.018249.0038.036467.007699.054687.011719l-.015625-7.669922c1.725908 0 3-1.1490933 3-2.875 0-1.7259065-1.400927-3.2045535-3.125-3.125h-1.5625-1.5625-6.398438-2.039062zm-4 1.515625c-.2801486.4374132-.4609375.9631775-.4609375 1.609375v.375h.4609375z" fill="#fafafa"/><path d="m11 3v1h.3125 2.421875 6.515625 1.5625 2.1875c2.125 0 4 1.1694179 4 2.625 0 1.472323-3.030322 2.3496094-4.539062 2.3496094-.276081.0001514-.49985.2239204-.5.5v12.7753906 3.125c0 .941077-.377413 1.54528-.957032 1.974609-.579619.42933-1.386337.650391-2.160156.650391h-1.15625-2.421875-3.390625-3.125-1.5625-1.5625c-1.4555815 0-2.625-1.169418-2.625-2.625 0-1.472323 1.0303222-2.349609 2.5390625-2.349609.2760796-.000151.4998486-.22392.5-.5v-7.146485c-.024476-.123307-.0390625-.249249-.0390625-.378906v-4h-.9609375v3.716797c-.01825-.0051-.0364805-.010335-.0546875-.015625l.015625 7.390625c-1.695587.226513-3 1.491233-3 3.283203 0 1.996232 1.6287695 3.625 3.625 3.625h1.5625 1.5625 3.125 4.236328 1.576172 1.15625c.9574 0 1.959105-.255539 2.755859-.845703s1.325682-1.548978 1.361329-2.779297v-3.125-4.966797c.018249.0051.036477.010335.054687.015625l-.015625-7.3906249c1.695587-.2265133 5-1.4912332 5-3.2832031 0-1.125-.695861-3.625-5-3.625h-2.1875-1.5625-7.361328-1.576172zm-4 1.2167969c-.5733671.5897466-.9609375 1.4016296-.9609375 2.4082031v.375h.9609375z" fill="#3a3a38"/><circle cx="-24.838984" cy="20.313559" fill="#f00" r="0"/><path d="m3 22v3.375.125h.013672c.0678501 1.937381 1.6579445 3.5 3.611328 3.5h12.875.34375c.05195 0 .104156-.0079.15625-.0098.333444-.01211.669067-.05514 1-.130859v-.910156-.002-.113282c-.07777.02294-.158725.03526-.238281.05273-.870422-.270586-1.524534-.993553-1.707031-1.886633h-.054688v-.5-2.5-1h-11.9609375-1.0390625zm1 1h.0292969 1.9707031.5.1972656 11.3027344v2.5.5h.05469c.0128.05977.02778.119058.04492.177734.0013.0052.0026.01042.0039.01563.01427.04667.0299.09291.04687.138672.01166.03346.02404.06667.03711.09961.0088.02161.01793.0431.02734.06445.0088.02096.01795.04179.02734.0625.0026.0052.0052.01043.0078.01563.01437.03025.02935.0602.04492.08984.0077.0144.01549.02872.02344.04297.0108.01968.02187.03921.0332.05859.0019.0033.0039.0065.0059.0098.02126.0357.0434.07087.06641.105468.02383.03579.04858.07096.07422.105469.02027.02777.04111.05512.0625.08203.03385.04148.06902.08187.105469.121094.0223.02454.0451.04863.06836.07227.0032.0026.0065.0052.0098.0078.0317.03213.06426.06339.09766.09375.0039.0033.0078.0065.01172.0098.01864.01656.03752.03283.05664.04883.04001.03317.08105.06509.123047.0957.02822.02078.05687.04097.08594.06055.04341.02872.0877.05608.132812.08203.0213.01269.04279.02506.06445.03711l.002.002c.05559.02947.112269.05683.169922.08203.0162.0073.03248.0145.04883.02148.002.0013.0039.0026.0059.0039.06095.02457.122849.04672.185547.06641.01492.0054.0299.01056.04492.01563.02722.0076.05457.01479.08203.02148.0401.01142.08047.02184.121093.03125.0078.002.01562.0039.02344.0059.05439.01028.109109.01875.164062.02539-.05481.0039-.109297.01352-.164062.01563v.011573h-.15639-13.21875-.125-.5v-.05273c-.9795521-.201574-1.7447262-.967516-1.9453125-1.94727h-.0546875v-.5-.125-2.349609z" fill="#922e9b"/><path d="m4 23v2.5.5h.054687c.2005868.979754.9657609 1.745696 1.945313 1.947266v.052734h.5 13.5v-.05273c-.979552-.201574-1.744726-.967516-1.945312-1.94727h-.054688v-.5-2.5h-11.5-.5z" fill="#d492d8"/><path d="m26 3.0625c-1.655982.292289-2.925915 1.712463-2.986328 3.4375h-.013672v.125 3.375h3 3v-3.375-.125h-.013672c-.060413-1.7250369-1.330346-3.1452114-2.986328-3.4375zm0 .9902344a2.5 2.5 0 0 1 1.945312 1.9472656h.054688v.5.125 2.3496094.0253906h-.029297-1.970703-1.970703-.029297v-.0253906-2.3496094-.125-.5h.054688a2.5 2.5 0 0 1 1.945312-1.9472656z" fill="#922e9b"/><path d="m26 4.0527344a2.5 2.5 0 0 0 -1.945312 1.9472656h-.054688v.5 2.5h2 2v-2.5-.5h-.054688a2.5 2.5 0 0 0 -1.945312-1.9472656z" fill="#d492d8"/><path d="m9 2c-.554 0-1 .446-1 1v5h-5c-.554 0-1 .446-1 1s.446 1 1 1h5v5c0 .554.446 1 1 1s1-.446 1-1v-5h5c.554 0 1-.446 1-1s-.446-1-1-1h-5v-5c0-.554-.446-1-1-1z" fill="#3a3a38"/></svg>