<svg height="32" viewBox="0 0 32 32" width="32" xmlns="http://www.w3.org/2000/svg"><path d="m25 4-5.755859.3339844 1.03125 1.7324218-12.712891 7.7753908h-.00195c-.214701-.138302-.211179-.121056-.3398438-.199219-.022623-.02038-.048992-.03521-.072266-.05469-.059752-.04988-.1217154-.09478-.1855469-.138672-.078923-.05447-.159923-.103594-.2441406-.148438-.06321-.03355-.1255647-.06574-.1914062-.09375-.097186-.04155-.1970852-.07262-.2988282-.101562-.059011-.01668-.1154911-.03845-.1757812-.05078-.032552-.0067-.066775-.0043-.099609-.0098-.1237886-.0231-.2491454-.03681-.375-.04102-.00521-.000667-.010415-.0013-.015625-.002-.00398-.000024-.00774-.0019-.011719-.002-.00536 0-.010273.0019-.015625.002-.0117169-.000647-.0234359-.001298-.0351591-.001866-1.3807119 0-2.5 1.119288-2.5 2.5s1.1192881 2.5 2.5 2.5c.013026-.000549.026047-.0012.039063-.002.0047.000025.00897.002.013672.002.00726-.00001.01423-.0019.021484-.002.1324934-.0045.2644199-.01951.3945312-.04492.02896-.0052.059121-.0038.087891-.0098.052192-.0108.101106-.0289.1523438-.04297.1125652-.03094.223033-.06503.3300781-.111329.055173-.02384.1068366-.05232.1601563-.08008.097332-.05065.1909154-.106532.28125-.169922.051983-.03645.103101-.07281.1523437-.113281.029186-.02399.061663-.04297.089844-.06836.1281145-.07783.1259636-.06283.3378907-.199219h.0019522l12.712891 7.775391-1.03125 1.732422 5.755859.334068-3.177734-4.666016-1.03125 1.732422-12.7167972-7.777344h-.00195c-.07418-.04939-.051917-.03336-.125-.08203.01986-.06826.036805-.137331.050781-.207031.054788.000519.086061-.0026.1523437 0h.00195 13.8984372l.002 2 4.998047-2.5-2.6875-1.34375-2.3125467-1.156251v2h-13.8984372-.0019532c-.0077.000233-.0785403-.0032-.1503906 0-.01369-.07041-.0310933-.140018-.0507812-.208984.065234-.0433.05091-.03143.1210937-.07813l.00195-.002h.00195l12.7167972-7.7773442 1.03125 1.7324218z" fill="#3a3a38"/></svg>