<svg viewBox="0 0 32 32" xmlns="http://www.w3.org/2000/svg"><path d="m10 2h7l-5 5h3l-12 9 4-8h-3z" fill="#ed8733" fill-rule="evenodd"/><path d="m10.414063 3-4.0000005 4h.5859375a1.0001 1.0001 0 0 1 .8945312 1.4472656l-2.1054687 4.2109374 6.2109375-4.658203a1.0001 1.0001 0 0 1 -.707031-1.7070312l3.292969-3.2929688z" fill="#f8db8f" fill-rule="evenodd"/><path d="m20 3v6h9v-6zm1 1h7v4h-7zm-1 6v6h9v-6zm1 1h7v4h-7zm-1 6v6h9v-6zm1 1h7v4h-7zm-1 6v6h9v-6zm1 1h7v4h-7z" fill="#3a3a38"/><path d="m21 3.9999995v4h7.000001v-4zm0 7.0000005v3.999999h7.000001v-3.999999zm0 7v3.999999h7.000001v-3.999999zm0 7v4h7.000001v-4z" fill="#fafafa" stroke-width="1.33333"/></svg>