<svg viewBox="0 0 32 32" xmlns="http://www.w3.org/2000/svg"><path d="m4 4v20h6.279297c.354201-.496326.74856-1.033463 1.427734-1.611328.998658-.849692 2.154291-1.196978 3.121094-1.355469a1.0028014 1.0028014 0 0 1 .003906 0c.059232-.009484.121788-.00925.183594-.013672.021208-.05991.016087-.111164.041016-.171875a1.0028014 1.0028014 0 0 1 .15625-.259765c2.855031-3.443492 4.754743-6.143035 7.787109-8.695313v-7.892578zm19 19.205078c-.27323.251696-.578305.52308-.884766.794922h.884766z" fill="#fafafa"/><path d="m4 3c-.554 0-1 .446-1 1v20c0 .554.446 1 1 1h5.546875l.3203125-.431641c.00878-.01389.017894-.02757.027344-.04102.1208405-.15908.2583765-.350236.3847655-.527339h-1.279297-1-4v-3-1-3-1-3-1-8h19v7.892578c.312236-.262803.661451-.522897 1-.783203v-7.109375c0-.554-.446-1-1-1z" fill="#3a3a38"/><path d="m3 3h21v6h-21z" fill="#0063b1"/><path d="m8 9v3h-4v1h4v3h-4v1h4v3h-4v1h4v3h1v-3h4v.587891c.336568-.15378.671375-.283402 1-.373047v-.214844h1.019531c.014191-.051635.014989-.098472.03711-.152344a1.0028014 1.0028014 0 0 1 .15625-.259765c.173761-.209577.309412-.383684.476562-.587891h-1.689453v-3h4v.160156c.334723-.410214.667775-.813316 1-1.205078v-2.955078h2.769531c.355569-.336979.723368-.669538 1.111328-1h-3.880859v-3h-1v3h-4v-3h-1v3h-4v-3zm1 4h4v3h-4zm5 0h4v3h-4zm-5 4h4v3h-4z" fill="#797774"/><path d="m4 4h19v4h-19z" fill="#83beec" stroke-width=".784465"/><g transform="matrix(1.2642017 0 0 1.2642017 -.079974 -10.227257)"><path d="m21.96826 16.000001c-.17831.0052-.351993.05797-.503145.152706-4.146578 2.591611-5.714115 5.057001-8.758361 8.728707-.884211 2.153413 1.99576 2.23573 3.347109 2.176021.225572-.01112.440793-.09803.610823-.246678 3.583058-3.122732 4.192351-4.317551 6.164989-7.243715.111173-.165558.170473-.360498.170325-.55992v-2.004747c-.000147-.565106-.466867-1.01854-1.03174-1.002374z" fill="#3a3a38"/><path d="m21.992188 16.792969c-.03818.0011-.07545.01243-.105469.03125a.79311708.79311708 0 0 1 -.002 0c-3.972775 2.482984-5.472141 4.814817-8.453125 8.425781-.102128.293846-.09942.450445-.06641.511719.03744.06947.164639.188556.447266.291015.564264.204559 1.568097.23872 2.203125.210938.04859-.0024.09036-.01879.126953-.05078 3.540457-3.085604 4.044021-4.142862 6.029297-7.087891v-.002c.02317-.03513.03519-.07299.03516-.115235v-2.005859c-.000033-.129029-.08592-.212674-.214843-.208984z" fill="#fafafa"/><g transform="matrix(.79101302 0 0 .79101302 .06326 8.089893)"><path d="m15.15625 22.009766c-.056042.000193-.11062.004822-.166016.013672-.861141.14117-1.823873.440633-2.632812 1.128906-.799494.680238-1.156748 1.31455-1.664063 1.982422-.002187.003666-.003697.005973-.005859.009765l-1.4453125 1.947266c-.574829.775025-.0486389 1.902781.8886715 1.904297h3.339844c.017408-.000357.033399-.000628.050781-.001953 1.992813-.097875 3.805246-.876425 4.972657-2.089844.079733-.083096.14637-.17727.199218-.28125.313645-.615499.331828-1.216374.269532-1.785156-.0623-.568779-.212142-1.111696-.56836-1.617188-.000739-.001517-.001068-.004342-.001953-.005859-.458211-.642967-1.139791-1.088959-1.796875-1.199219-.547311-.032755-.91274-.01591-1.439453-.005859z" fill="#0063b1"/><path d="m11.53125 25.683594c-.005368.007146-.008254.012345-.013672.019531a.99948558.99948558 0 0 1 -.027344.041016l-1.447265 1.941406c-.1247191.168155-.0468617.308372.089843.308594h3.337891a.99948558.99948558 0 0 1 .001953 0c1.180206-.057967 2.27261-.395107 3.15625-.908203z" fill="#83beec"/><path d="m15.146484 23.009766c-.753286.123841-1.52266.37685-2.142578.904296-.340375.289605-.582615.567665-.808594.863282l5.472657 1.527344c.03333-.03256.07156-.06248.103515-.0957.01201-.01279.0216-.02393.0293-.03906v-.002c.202079-.396561.223324-.752911.171875-1.222657-.05066-.462489-.157358-.811056-.396484-1.15039-.308606-.433039-.791414-.716625-1.126953-.779297-.448951-.02291-.769348-.01545-1.271485-.0059-.0059.000052-.01172.000052-.01758 0-.01909.000065-.02444.0018-.01367 0zm2.429688.785156c-.01829-.02715-.03524-.05517-.05078-.08398.0038.0067-.0029-.000419.002.0078z" fill="#fafafa"/></g></g></svg>