<svg viewBox="0 0 32 32" xmlns="http://www.w3.org/2000/svg"><path d="m4.1818182 2.9999999c-.6547273 0-1.1818182.5203333-1.1818182 1.1666667v11.6666674c0 .646333.5270909 1.166666 1.1818182 1.166666h9.9023438l6.555398-6.464518 1.269531-1.2304689v-5.1383465c0-.6463334-.527091-1.1666667-1.181818-1.1666667z" fill="#fb983b"/><g fill="#3a3a38" transform="translate(0 .153)"><path d="m15.47405 17.360557-1.540456 1.435895-2.660867 4.353589 1.363728.849959 5.191221-1.362021 1.51382-1.464818z"/><path d="m25.482422 7.9980469c-.258511 0-.514804.0957069-.712891.2910156l-8.283203 8.2480465 3.882813 3.837891 8.333984-8.207031c.396171-.390582.396171-1.01762 0-1.408203l-2.503906-2.4707035c-.198087-.1952916-.458286-.2910156-.716797-.2910156zm0 .9941406c.012913 0 .013924.0022566.017578.0058594l2.5 2.4648441-7.628906 7.513671-2.472656-2.441406 7.572265-7.5410154-.001953.0039063c.008288-.0081715.000715-.0058594.013672-.0058594z" transform="translate(0 -.153)"/></g><g fill="#fafafa" transform="matrix(.4275574 0 0 .4275574 6.361796 8.824426)"><path d="m9.1757813 17q-.5078125 0-.78125-.15625-.2734375-.15625-.3710938-.644531l-.4296875-1.777344q-.7421875.683594-1.4648438 1.230469-.703125.527343-1.484375.898437-.7812499.371094-1.6796874.546875-.8984375.195313-1.9726563.195313-1.11328125 0-2.0898437-.292969-.9570313-.3125-1.6992188-.9375-.7226563-.644531-1.1523438-1.582031-.4101562-.957031-.4101562-2.246094 0-1.132812.6054687-2.167969.625-1.0546872 2.0117188-1.8749997 1.38671875-.8203126 3.6132812-1.3281251 2.2265625-.5273437 5.46875-.6054687v-1.4648438q0-2.2265624-.9570312-3.3398437-.9375-1.1328125-2.7539062-1.1328125-1.2109375 0-2.0507813.3125-.8203125.3125-1.42578125.6835937-.60546875.3710938-1.0546875.6835938-.42968745.3125-.87890625.3125-.3515625 0-.6054688-.1757812-.2539062-.1757813-.4101562-.4492188l-.625-1.09375q1.5820313-1.5234375 3.3984375-2.265625 1.8359375-.7617188 4.0625-.7617188 1.6015625 0 2.8515625.5273438 1.25.5078125 2.0898438 1.46484375.8398437.95703125 1.2695312 2.28515625.449219 1.328125.449219 2.9492187v12.2070313zm-7.1484375-2.109375q.859375 0 1.5820312-.175781.7226562-.175781 1.3671875-.488281.6445312-.332032 1.2109375-.800782.5859375-.488281 1.1523437-1.074218v-3.945313q-2.2851562.0976563-3.8867187.390625-1.6015625.2734375-2.6171875.7421875-.99609375.4687505-1.4453125 1.1132815-.4492187.625-.4492187 1.40625 0 .742187.23437495 1.289062.25390625.527344.6640625.878907.41015625.332031.9765625.507812.56640625.15625 1.21093755.15625z"/><path d="m12.529297 4v11.875h.953125c.213298-.040553.337108-.102609.359375-.308594l.083984-.726562c.278358.361865.594874.645577.951172.851562.115852.064164.255131.10091.388672.144532l1.037109-1.023438c-.143205.024133-.290339.042969-.449218.042969-.367433 0-.703572-.069806-1.009766-.208985-.306193-.144745-.587661-.391456-.84375-.742187v-3.9414064c.283925-.3897007.595951-.6907919.935547-.9023437.345164-.2115519.74242-.3164063 1.193359-.3164063.656924 0 1.163234.233531 1.519532.7011719s.535156 1.1965465.535156 2.1874995c0 .583496-.066101 1.079967-.185547 1.50586l1.691406-1.666016c-.00839-.577256-.075133-1.100903-.210937-1.5605466-.139179-.4954767-.342152-.9165553-.609375-1.2617188-.267224-.3451635-.590184-.6092526-.96875-.7929687-.378567-.1837161-.804136-.2753907-1.277344-.2753907-.556715.0000001-1.049845.1177421-1.478516.3515626-.428671.2282533-.810502.5402789-1.144531.9355468v-4.8691406z" stroke-width=".427557" transform="matrix(2.3388672 0 0 2.3388672 -14.879395 -20.639161)"/></g></svg>