<svg height="32" viewBox="0 0 32 32" width="32" xmlns="http://www.w3.org/2000/svg"><path d="m4 15v2h8v-2z" fill="#ed3d3b" stroke-width="1.095445"/><path d="m5.5273437-2.9570313q1.6210938 0 3.0078126.4882813 1.3867187.4882813 2.4023437 1.40625 1.015625.91796875 1.582031 2.2460937.585938 1.3281251.585938 3.0273438 0 1.4257812-.429688 2.65625-.410156 1.2109375-1.132812 2.3242188-.703125 1.1132817-1.6406252 2.1874997-.9375 1.054688-1.9726563 2.128907l-6.5820313 6.855468q.7421876-.214844 1.4843751-.332031.7617187-.117188 1.4453124-.117188h8.1445313q.527344 0 .839844.3125.3125.292969.3125.800782v1.972656h-16.777344v-1.113281q0-.332032.1367187-.703125.1367188-.390625.46875-.703125l7.9492188-8.203125q1.015625-1.035156 1.8164062-1.992188.8203125-.957031 1.3867188-1.9140622.5664063-.9765626.8789063-1.9726563.3125-.9960938.3125-2.109375 0-1.1132812-.3515625-1.953125-.3320313-.8398438-.9179688-1.38671875-.5859375-.56640625-1.3867188-.83984375-.8007812-.2734375-1.7382812-.2734375-.9179688 0-1.6992187.29296875-.78125.2734375-1.3867188.78125-.6054688.48828125-1.0351563 1.19140625-.42968745.6835938-.62499995 1.5039063-.15625.6640624-.546875.8789062-.37109375.1953125-1.0546875.0976562l-1.69921875-.2734375q.234375-1.7773437.9375-3.125.7226563-1.36718745 1.796875-2.2851562 1.0742187-.9179688 2.4609375-1.3867188 1.40625-.46875 3.0273437-.46875z" fill="#3a3a38" transform="matrix(.77050414 0 0 .77050414 16.541008 8.278405)"/></svg>