<svg viewBox="0 0 32 32" xmlns="http://www.w3.org/2000/svg"><path d="m4.5 3.015721c-.276142 0-.5.223858-.5.5s.223858.5.5.5h8c1.380712 0 2.5 1.119288 2.5 2.5h.0059v.4238281l-.0039 3.3476559-2.144531-2.1347652c-.09454-.096651-.224179-.1509034-.359375-.1503907-.448457.00184-.667961.5474983-.345703.859375l3.003906 2.9921879c.195265.195184.511766.195184.707031 0l2.996047-2.9921879c.490833-.4712542-.235777-1.1978644-.707031-.7070312l-2.150391 2.1484371.0039-3.3632809v-.5c-.005894-2.154663-1.883363-3.3737981-3.505853-3.4238281z" fill="#1e8bcd" fill-rule="evenodd"/><g fill="#3a3a38"><path d="m21 7v1c1.1846 0 2 .67365 2 2.40625v4.6875c0 .831 1.00158 2.39355 2 2.90625-1.682649.268764-2 1.297561-2 2.25v5.34375c0 1.7326-.8155 2.40625-2 2.40625v1c1.77683 0 3.046875-.6966 3.046875-2.5v-5.78125c0-1.739523 1.452593-1.71875 2.953125-1.71875v-2c-1.128954 0-2.953125-.709412-2.953125-2.40625v-5.09375c0-1.8034-1.270045-2.5-3.046875-2.5z"/><path d="m10 7v1c-1.1846 0-2 .67365-2 2.40625v4.6875c0 .831-1.00158 2.39355-2 2.90625 1.682649.268764 2 1.297561 2 2.25v5.34375c0 1.7326.8155 2.40625 2 2.40625v1c-1.77683 0-3.046875-.6966-3.046875-2.5v-5.78125c0-1.739523-1.452593-1.71875-2.953125-1.71875v-2c1.128954 0 2.953125-.709412 2.953125-2.40625v-5.09375c0-1.8034 1.270045-2.5 3.046875-2.5z"/></g></svg>