<svg viewBox="0 0 32 32" xmlns="http://www.w3.org/2000/svg"><path d="m17 7v1c1.1846 0 2 .67365 2 2.40625v4.6875c0 .831 1.00158 2.39355 2 2.90625-1.682649.268764-2 1.297561-2 2.25v5.34375c0 1.7326-.8155 2.40625-2 2.40625v1c1.77683 0 3.046875-.6966 3.046875-2.5v-5.78125c0-1.739523 1.452593-1.71875 2.953125-1.71875v-2c-1.128954 0-2.953125-.709412-2.953125-2.40625v-5.09375c0-1.8034-1.270045-2.5-3.046875-2.5z" fill="#3a3a38"/><path d="m12 7v1c-1.1846 0-2 .67365-2 2.40625v4.6875c0 .831-1.00158 2.39355-2 2.90625 1.682649.268764 2 1.297561 2 2.25v5.34375c0 1.7326.8155 2.40625 2 2.40625v1c-1.77683 0-3.046875-.6966-3.046875-2.5v-5.78125c0-1.739523-1.452593-1.71875-2.953125-1.71875v-2c1.128954 0 2.953125-.709412 2.953125-2.40625v-5.09375c0-1.8034 1.270045-2.5 3.046875-2.5z" fill="#3a3a38"/><path d="m28.50506 8.507142-2.995 2.992879-3.005-2.992879" fill="none" stroke="#1e8bcd" stroke-linecap="round" stroke-linejoin="round"/><g fill="#1e8bcd" fill-rule="evenodd"><path d="m18 3.015625v1h4.5c1.380712 0 2.5 1.119288 2.5 2.5h.0059v.423828l-.0059 4.060547h1l.0059-4.060547v-.5c-.005941-2.154663-1.88341-3.373798-3.5059-3.423828z"/><path d="m6.505859 3.015625c-1.62249.05003-3.499959 1.269165-3.505859 3.423828v.5l.00586 4.060547h1l-.00586-4.060547v-.423828h.0059c0-1.380712 1.119288-2.5 2.5-2.5h11.8941v-1h-11.8941z"/></g></svg>