<svg viewBox="0 0 32 32" xmlns="http://www.w3.org/2000/svg"><path d="m4.4422741 9.9504795h1.0342045v24.8209055h-1.0342045z" fill="#3a3a38" transform="matrix(.70710678 -.70710678 .70710678 .70710678 0 0)"/><g transform="translate(-18 -1)"><path d="m30 4a2 2 0 0 1 -2 2 2 2 0 0 1 -2-2 2 2 0 0 1 2-2 2 2 0 0 1 2 2z" fill="#0063b1"/><path d="m29 4a1 1 0 0 1 -1 1 1 1 0 0 1 -1-1 1 1 0 0 1 1-1 1 1 0 0 1 1 1z" fill="#83beec"/></g><g transform="translate(1 18)"><path d="m30 4a2 2 0 0 1 -2 2 2 2 0 0 1 -2-2 2 2 0 0 1 2-2 2 2 0 0 1 2 2z" fill="#0063b1"/><path d="m29 4a1 1 0 0 1 -1 1 1 1 0 0 1 -1-1 1 1 0 0 1 1-1 1 1 0 0 1 1 1z" fill="#83beec"/></g><path d="m22 18.5a10.5 10.5 0 0 1 -10.5 10.5 10.5 10.5 0 0 1 -10.5-10.5 10.5 10.5 0 0 1 10.5-10.5 10.5 10.5 0 0 1 10.5 10.5z" fill="#0063b1"/><path d="m21 18.5a9.5 9.5 0 0 1 -9.5 9.5 9.5 9.5 0 0 1 -9.5-9.5 9.5 9.5 0 0 1 9.5-9.5 9.5 9.5 0 0 1 9.5 9.5z" fill="#83beec"/></svg>