<svg height="32" viewBox="0 0 32 32" width="32" xmlns="http://www.w3.org/2000/svg"><path d="m4 3c-.554 0-1 .446-1 1v1c0 .554.446 1 1 1h24c.554 0 1-.446 1-1v-1c0-.554-.446-1-1-1zm-.5 6c-.277 0-.5.223-.5.5v1c0 .277.223.5.5.5h25c.277 0 .5-.223.5-.5v-1c0-.277-.223-.5-.5-.5zm0 5c-.277 0-.5.223-.5.5s.223.5.5.5h25c.277 0 .5-.223.5-.5s-.223-.5-.5-.5zm0 4c-.277 0-.5.223-.5.5s.223.5.5.5h6c.277 0 .5-.223.5-.5s-.223-.5-.5-.5zm8 0c-.277 0-.5.223-.5.5s.223.5.5.5h6c.277 0 .5-.223.5-.5s-.223-.5-.5-.5zm9 0c-.277 0-.5.223-.5.5s.223.5.5.5h2.986328l.027344-.164062a1.0001 1.0001 0 0 1 .986328-.835938zm-17 4c-.277 0-.5.190572-.5.427734v.144532c0 .237162.223.427734.5.427734h1c.277 0 .5-.190572.5-.427734v-.144532c0-.237162-.223-.427734-.5-.427734zm4 0c-.277 0-.5.190572-.5.427734v.144532c0 .237162.223.427734.5.427734h1c.277 0 .5-.190572.5-.427734v-.144532c0-.237162-.223-.427734-.5-.427734zm4 0c-.277 0-.5.190572-.5.427734v.144532c0 .237162.223.427734.5.427734h1c.277 0 .5-.190572.5-.427734v-.144532c0-.237162-.223-.427734-.5-.427734zm4 0c-.277 0-.5.190572-.5.427734v.144532c0 .237162.223.427734.5.427734h1c.277 0 .5-.190572.5-.427734v-.144532c0-.237162-.223-.427734-.5-.427734zm3.792969.041016c-.17223.067359-.292969.213404-.292969.386718v.144532c0 .237162.223.427734.5.427734h.458984l-.576172-.806641a1.0001 1.0001 0 0 1 -.089843-.152343zm-15.792969 4.958984c-.277 0-.5.223-.5.5v1c0 .277.223.5.5.5h15.775391a1.0001 1.0001 0 0 1 .107421-.193359l.785157-1.097657-1.332031-.222656a1.0001 1.0001 0 0 1 -.699219-.486328z" fill="#3a3a38"/><path d="m24.5 19-.371094 2.228516a4.5 4.5 0 0 0 -.683594.279296l-1.833984-1.310546-.861328.859375-.552734.554687 1.3125 1.835938a4.5 4.5 0 0 0 -.289063.68164l-2.220703.371094v1.216797.783203l2.228516.371094a4.5 4.5 0 0 0 .279296.683594l-1.310546 1.833984.552734.554687.861328.859375 1.835938-1.3125a4.5 4.5 0 0 0 .68164.289063l.371094 2.220703h1.216797.783203l.371094-2.228516a4.5 4.5 0 0 0 .683594-.279296l1.833984 1.310546.554687-.552734.859375-.861328-1.3125-1.835938a4.5 4.5 0 0 0 .289063-.68164l2.220703-.371094v-.783203-1.216797l-2.228516-.371094a4.5 4.5 0 0 0 -.279296-.683594l1.310546-1.833984-.859375-.861328-.554687-.552734-1.835938 1.3125a4.5 4.5 0 0 0 -.68164-.289063l-.371094-2.220703h-.783203zm.605469 1h.789062l.353516 2v.08984a3.5 3.5 0 0 1 1.136719.466797l.06055-.06055 1.664063-1.164063.558594.558594-1.164063 1.664063-.0625.0625a3.5 3.5 0 0 1 .470703 1.134765h.087887l2 .353516v.789062l-2 .353516h-.08984a3.5 3.5 0 0 1 -.466797 1.136719l.06055.06055 1.164063 1.664063-.558594.558594-1.664063-1.164063-.0625-.0625a3.5 3.5 0 0 1 -1.134765.470703v.087894l-.353516 2h-.789062l-.353516-2v-.08984a3.5 3.5 0 0 1 -1.136719-.466797l-.06055.06055-1.664063 1.164063-.558594-.558594 1.164063-1.664063.0625-.0625a3.5 3.5 0 0 1 -.470706-1.134772h-.087891l-2-.353516v-.789062l2-.353516h.08984a3.5 3.5 0 0 1 .466797-1.136719l-.06055-.06055-1.164063-1.664063.558594-.558594 1.664063 1.164063.0625.0625a3.5 3.5 0 0 1 1.134765-.470703v-.087887zm.394531 3a2.5 2.5 0 0 0 -2.5 2.5 2.5 2.5 0 0 0 2.5 2.5 2.5 2.5 0 0 0 2.5-2.5 2.5 2.5 0 0 0 -2.5-2.5zm0 1a1.5 1.5 0 0 1 1.5 1.5 1.5 1.5 0 0 1 -1.5 1.5 1.5 1.5 0 0 1 -1.5-1.5 1.5 1.5 0 0 1 1.5-1.5z" fill="#1e8bcd"/><path d="m25.105469 20h.789062l.353516 2v.08984c.40347.08734.788306.245379 1.136719.466797l.06055-.06055 1.664063-1.164063.558594.558594-1.164063 1.664063-.0625.0625c.222578.347545.381933.731717.470703 1.134765h.087887l2 .353516v.789062l-2 .353516h-.08984c-.08734.40347-.245379.788306-.466797 1.136719l.06055.06055 1.164063 1.664063-.558594.558594-1.664063-1.164063-.0625-.0625c-.347545.222578-.731717.381933-1.134765.470703v.087894l-.353516 2h-.789062l-.353516-2v-.08984c-.40347-.08734-.788306-.245379-1.136719-.466797l-.06055.06055-1.664063 1.164063-.558594-.558594 1.164063-1.664063.0625-.0625c-.222581-.347552-.381936-.731724-.470706-1.134772h-.087891l-2-.353516v-.789062l2-.353516h.08984c.08734-.40347.245379-.788306.466797-1.136719l-.06055-.06055-1.164063-1.664063.558594-.558594 1.664063 1.164063.0625.0625c.347545-.222578.731717-.381933 1.134765-.470703v-.087887zm.394531 3c-1.380712 0-2.5 1.119288-2.5 2.5s1.119288 2.5 2.5 2.5 2.5-1.119288 2.5-2.5-1.119288-2.5-2.5-2.5z" fill="#fafafa"/></svg>