<svg viewBox="0 0 32 32" xmlns="http://www.w3.org/2000/svg"><path d="m4 4v24h15v-6.5c0-3.037566 2.462434-5.5 5.5-5.5 1.278053.0018 2.515591.448589 3.5 1.263672v-13.263672z" fill="#fafafa"/><path d="m4 3c-.554 0-1 .446-1 1v24c0 .554.446 1 1 1h15v-1h-15v-24h24v13.263672c.380221.313594.716566.676873 1 1.080078v-14.34375c0-.554-.446-1-1-1z" fill="#3a3a38"/><path d="m24.5 17c-2.485281 0-4.488729 2.014745-4.5 4.5v7.5h3v-7.5c0-.828427.671573-1.5 1.5-1.5s1.5.671573 1.5 1.5v7.5h3v-7.5c0-2.485281-2.014719-4.5-4.5-4.5z" fill="#ed3d3b"/><g fill="#1e8bcd" stroke-width=".866025"><path d="m23 27h-3v2h3z"/><path d="m29 27h-3v2h3z"/></g><rect fill="#ed3d3b" height="2" ry="1" width="2" x="9" y="9"/><g fill="#1e8bcd" fill-rule="evenodd" transform="translate(0 2)"><path d="m10 10 2 2h-4z"/><path d="m10 6 2-2h-4z"/><path d="m12 8 2-2v4z"/><path d="m8 8-2-2v4z"/></g></svg>