<svg viewBox="0 0 32 32" xmlns="http://www.w3.org/2000/svg"><path d="m6.9980469 3c-.5527774 0-.9980469.446-.9980469 1v21c0 .554.4452695 1 .9980469 1h21.0039061c.552777 0 .998047-.446.998047-1v-21c0-.554-.44527-1-.998047-1zm13.3535151 1h6 .087891.208985c.729521 0 1.351562.6220415 1.351562 1.3515625v.2089844.0878906 6.0000005c0 .729528-.622032 1.351562-1.351562 1.351562h-.296876c-.729528 0-1.351562-.622038-1.351562-1.351562v-2.5273442l-4.675781 4.6757812c-.517324.51732-1.394786.517324-1.91211 0l-.208984-.208984c-.517322-.517323-.517314-1.394788 0-1.91211l4.675781-4.675781h-2.527344c-.729521 0-1.351562-.6220415-1.351562-1.3515625v-.296875c0-.729521.622041-1.3515625 1.351562-1.3515625z" fill="#3a3a38"/><path d="m7 4v21h21v-13.351562c0 .729528-.622032 1.351562-1.351562 1.351562h-.296876c-.729528 0-1.351562-.622038-1.351562-1.351562v-2.5273442l-4.675781 4.6757812c-.517324.51732-1.394786.517324-1.91211 0l-.208984-.208984c-.517322-.517323-.517314-1.394788 0-1.91211l4.675781-4.675781h-2.527344c-.729521 0-1.351562-.6220415-1.351562-1.3515625v-.296875c0-.729521.622041-1.3515625 1.351562-1.3515625zm19.648438 0c.729521 0 1.351562.6220415 1.351562 1.3515625v-1.3515625z" fill="#fff" stroke-width=".916667"/><path d="m3.9980469 6c-.5527774 0-.9980469.446-.9980469 1v21c0 .554.4452695 1 .9980469 1h21.0039061c.552777 0 .998047-.446.998047-1v-15.054688c-.56617-.160877-1-.688937-1-1.296874v-2.5273442l-4.675781 4.6757812c-.517324.51732-1.394786.517324-1.91211 0l-.208984-.208984c-.517322-.517323-.517314-1.394788 0-1.91211l4.675781-4.675781h-2.527344c-.607934 0-1.135996-.4338324-1.296874-1z" fill="#3a3a38"/><path d="m4 7v21h21v-16.351562-2.5273442l-4.675781 4.6757812c-.517324.51732-1.394786.517324-1.91211 0l-.208984-.208984c-.517322-.517323-.517314-1.394788 0-1.91211l4.675781-4.675781h-2.527344z" fill="#fff" stroke-width=".916667"/><path d="m20.351562 5c-.195142 0-.351562.1564199-.351562.3515625v.296875c0 .1951426.15642.3515625.351562.3515625h4.941407l-6.382813 6.382812c-.137986.137987-.137986.360061 0 .498047l.208985.208985c.137986.137986.36006.137986.498047 0l6.382812-6.3828128v4.9414068c0 .195141.15642.351562.351562.351562h.296876c.195142 0 .351562-.156421.351562-.351562v-6.0000005-.0878906-.2089844c0-.1951426-.15642-.3515625-.351562-.3515625h-.208985-.087891z" fill="#1e8bcd"/><path d="m19 17-8 8-2-2-5 4.583984v.416016h21v-5z" fill="#83beef" stroke-width="1.333333"/><path d="m19 15.5-8 8-2-2-5 4.666016v1.417968l5-4.583984 2 2 8-8 6 6v-1.5z" fill="#0063b1" stroke-width="1.333333"/><path d="m12 12a3 3 0 0 1 -3 3 3 3 0 0 1 -3-3 3 3 0 0 1 3-3 3 3 0 0 1 3 3z" fill="#ed8733"/><path d="m11 12a2 2 0 0 1 -2 2 2 2 0 0 1 -2-2 2 2 0 0 1 2-2 2 2 0 0 1 2 2z" fill="#f8db8f"/></svg>