<svg viewBox="0 0 32 32" xmlns="http://www.w3.org/2000/svg"><path d="m16 4a12 3 0 0 0 -12 3v14.005859h7.892578l-1.449219-1.447265a.99337163.99337163 0 0 0 -.001953 0c-.5727303-.572731-.5727332-1.540551 0-2.113282.287336-.287349.677293-.4375 1.056641-.4375.37877 0 .767494.151055 1.054687.4375l4.001954 3.998047a.99337163.99337163 0 0 0 .001953 0c.142489.142474.25398.314063.328125.498047.066311.164511.109375.354934.109375.558594s-.043064.394083-.109375.558594c-.074107.183853-.185557.355508-.328125.498047a.99337163.99337163 0 0 0 -.001953 0l-4 3.998047c-.120722.120731-.261607.211874-.410157.283203a12 3 0 0 0 3.855469.162109 12 3 0 0 0 12-3v-7.005859h-7.892578l1.449219 1.447265a.99337163.99337163 0 0 0 .001953 0c.572731.572731.572733 1.540551 0 2.113282-.287336.287349-.677293.4375-1.056641.4375-.379367-.000002-.76932-.150179-1.056641-.4375l-4-3.998047a.99337163.99337163 0 0 0 -.001953 0c-.142439-.142425-.253937-.313883-.328125-.498047-.066328-.164542-.109375-.354934-.109375-.558594s.043064-.394083.109375-.558594c.07415-.184032.185607-.355558.328125-.498047a.99337163.99337163 0 0 0 .001953 0l4-3.998047c.287307-.287292.677242-.4375 1.056641-.4375.379322.000002.769292.150124 1.056641.4375.572742.572735.572733 1.540549 0 2.113282a.99337163.99337163 0 0 0 -.001953 0l-1.449219 1.447265h7.892578v-8.005859a12 3 0 0 0 -12-3zm-12 19.994141v1.005859a12 3 0 0 0 6.591797 2.677734c-.051458-.039298-.103838-.076489-.150391-.123046-.5727414-.572734-.5727327-1.540549 0-2.113282a.99337163.99337163 0 0 0 .001953 0l1.449219-1.447265z" fill="#fafafa"/><path d="m16 3a13 4 0 0 0 -13 4v6 6 2.005859h1v-.46875a13 4 0 0 0 .7695312.46875h2.3261719a12 3 0 0 1 -3.0957031-2.005859v-4.462891a13 4 0 0 0 11.09375 2.453125c-.052147-.148812-.087891-.313052-.087891-.490234 0-.185617.039163-.357688.095703-.511719a12 3 0 0 1 -11.101562-2.988281v-4.4628906a13 4 0 0 0 12 2.4628906 13 4 0 0 0 12-2.4707031v4.4707031a12 3 0 0 1 -3.091797 2.005859h2.308594a13 4 0 0 0 .783203-.476562v.476562h1v-8.005859a13 4 0 0 0 -13-4zm0 1a12 3 0 0 1 12 3 12 3 0 0 1 -12 3 12 3 0 0 1 -12-3 12 3 0 0 1 12-3zm12 13.994141v1.005859a12 3 0 0 1 -6.591797 2.677734c-.266159.20326-.588359.314454-.90625.314454-.219983-.000001-.441457-.055845-.646484-.154297a12 3 0 0 1 -2.955078.152343c.056065.153482.09375.325049.09375.509766 0 .175801-.036461.338406-.087891.486328a13 4 0 0 0 11.09375-2.457031v4.470703a12 3 0 0 1 -12 3 12 3 0 0 1 -3.855469-.162109c-.205029.098449-.426515.154297-.646484.154297-.319603-.000001-.643183-.112901-.910156-.31836a12 3 0 0 1 -6.587891-2.673828v-1.005859h-1v1.005859.3125h.0507812a13 4 0 0 0 12.9492188 3.6875 13 4 0 0 0 13-4v-7.005859z" fill="#3a3a38"/><g fill="#1e8bcd" transform="matrix(1 0 0 -1 0 37)"><path d="m11.498047 10.001953c-.127809 0-.255582.04855-.353516.146485-.195869.195867-.195869.511162 0 .707031l3.148438 3.144531h-11.792969c-.277 0-.5.223-.5.5s.223.5.5.5h11.792969l-3.148438 3.144531c-.195869.195869-.195869.511163 0 .707031.09793.09793.225707.146485.353516.146485.12781 0 .255586-.04855.353515-.146485l4.001954-3.998046c.04702-.04701.08408-.103236.109375-.166016.02334-.057904.037109-.12105.037109-.1875s-.01377-.129596-.03711-.1875c-.0253-.06278-.06236-.119003-.109375-.166016l-4.001954-3.998046c-.09793-.09793-.225705-.146485-.353514-.146485z"/><path d="m20.501953 24.998047c.127809 0 .255582-.04855.353516-.146485.195869-.195867.195869-.511162 0-.707031l-3.148438-3.144531h11.792969c.277 0 .5-.223.5-.5s-.223-.5-.5-.5h-11.792969l3.148438-3.144531c.195869-.195869.195869-.511163 0-.707031-.09793-.09793-.225707-.146485-.353516-.146485-.12781 0-.255586.04855-.353515.146485l-4.001954 3.998046c-.04702.04701-.08408.103236-.109375.166016-.02334.0579-.037109.12105-.037109.1875s.01377.129596.03711.1875c.0253.06278.06236.119003.109375.166016l4.001954 3.998046c.09793.09793.225705.146485.353514.146485z"/></g></svg>