<svg height="32" viewBox="0 0 8.4666665 8.4666669" width="32" xmlns="http://www.w3.org/2000/svg" xmlns:xlink="http://www.w3.org/1999/xlink"><linearGradient id="a" gradientUnits="userSpaceOnUse" x1="5.82146296833" x2="6.61521295833" y1="290.91457997" y2="290.12082998"><stop offset="0" stop-color="#fff"/><stop offset=".77967989" stop-color="#f1f1f1"/><stop offset="1" stop-color="#d5d5d5"/></linearGradient><g transform="translate(0 -288.53332)"><g stroke-width=".264583"><path d="m2.1172964 289.32708v6.87917h5.291037l.000635-5.02708-1.8520834-1.85209z" fill="#fafafa"/><path d="m2.1166667 289.0625c-.1465791 0-.2645833.118-.2645833.26458v6.87917c0 .14658.1180042.26458.2645833.26458h5.2916667c.1465791 0 .2361361-.12079.2645833-.26458v-2.67477-2.77952l-1.72193-1.68946zm0 .26458h3.4395833v1.5875c0 .17797.1300105.26459.2645834.26459h1.5875v5.02708h-5.2916667z" fill="#3a3a38"/><rect fill="#1e8bcd" height=".79375" ry=".264583" width="2.646463" x="2.645833" y="290.64999"/><path d="m5.8214631 290.91458h1.5875l-1.5875-1.5875z" fill="url(#a)" fill-rule="evenodd"/></g><g fill="#797774" transform="matrix(-.26458333 0 0 .26458333 0 288.53333)"><rect height="1" ry=".491011" width="16" x="-26.00238" y="18"/><rect height="1" ry=".466102" width="16" x="-26.00238" y="15"/><rect height="1" ry=".491011" width="16" x="-26.00238" y="21"/><rect height="1" ry=".491011" width="16" x="-26.00238" y="24"/></g><path d="m.79375 291.9729.2673358.00002v-1.65615c0-.0492.00189-.10029.00568-.15328l-.15740815.10684c-.0302774.0252-.059924.034-.0889399.0265-.0277543-.009-.0473084-.0215-.0586625-.0378l-.10029692-.13821.52916667-.39687h.1322917v2.24895h.2645833v.26458l-.79375-.00002z" fill="#1e8bcd"/></g></svg>