<svg viewBox="0 0 32 32" xmlns="http://www.w3.org/2000/svg"><path d="m4 3c-.554 0-1 .446-1 1v24c0 .554.446 1 1 1h24c.554 0 1-.446 1-1v-24c0-.554-.446-1-1-1zm0 1h24v24h-24z" fill="#3a3a38"/><path d="m4 4h24v24h-24z" fill="#fafafa"/><path d="m23.071408 9.0009023a.9696394.9696394 0 0 0 -.81836.384766l-8.736328 11.2460927-3.9082025-3.353515a.9696394.9696394 0 1 0 -1.2617187 1.472656l4.6796872 4.015625a.9696394.9696394 0 0 0 1.396484-.140625l9.361328-12.050781a.9696394.9696394 0 0 0 -.71289-1.5742187z" fill="#3a3a38" fill-rule="evenodd"/></svg>