<svg height="32" viewBox="0 0 32 32" width="32" xmlns="http://www.w3.org/2000/svg" xmlns:xlink="http://www.w3.org/1999/xlink"><linearGradient id="a" gradientTransform="matrix(0 1 1 0 3.249961 -3.999963)" gradientUnits="userSpaceOnUse" x1="14.249983" x2="8.249969" y1="8.000014" y2="8.000014"><stop offset="0" stop-color="#0040dd"/><stop offset="1" stop-color="#0a84ff"/></linearGradient><g transform="matrix(1.33333 0 0 1.33333 1.00007 .33334)"><path d="m20 3v6h9v-6zm1 1h7v4h-7zm-1 6v6h9v-6zm1 1h7v4h-7zm-18 2v6h7.863281l.707031-.707031a1.0013091 1.0013091 0 0 1 .429688-.251953v-5.041016zm1 1h7v4h-7zm16 3v6h9v-6zm1 1h7v4h-7zm-1 6v5h9v-5zm1 1h7v3h-7z" fill="#3a3a38" stroke-width="1.33333" transform="matrix(.75000188 0 0 .75000188 -.750054 -.250006)"/><path d="m14.999985 2.7500015v3.0000075h5.250014v-3.0000075zm0 5.2500132v3.0000073h5.250014v-3.0000073zm0 5.2500133v3.000007h5.250014v-3.000007zm0 5.250013v2.250006h5.250014v-2.250006z" fill="#fafafa"/><path d="m8.5531923 9.7270701 3.7119227-3.7119231 1.234866 1.2348661v-3.0000075h-3.000007l1.234866 1.2348661-3.7119227 3.7119236z" fill="url(#a)"/><path d="m13.888672 20.181641a1.0013091 1.0013091 0 0 1 -.181641.248047l-.492187.492187 3.43164 3.431641-1.646484 1.646484h4v-4l-1.646484 1.646484z" fill="#1e8bcd" stroke-width="1.33333" transform="matrix(.75000188 0 0 .75000188 -.750054 -.250006)"/><path d="m2.249953 10.250021h5.250013v3.000008h-5.250013z" fill="#fafafa"/><path d="m8.4583003 14.00003-4.3333434 4.333344-4.33334433-4.333344-.541668.541668 4.33334433 4.333344-4.33334433 4.333345.541668.541668 4.33334433-4.333345 4.3333434 4.333345.541668-.541668-4.3333444-4.333345 4.3333444-4.333344z" fill="#ed3d3b"/></g></svg>