<svg viewBox="0 0 32 32" xmlns="http://www.w3.org/2000/svg"><path d="m28.322661 11.8585c1.69383 5.03984.147942 10.603164-3.903162 14.046652l-7.76264-9.689445z" fill="#309048"/><path d="m27.632812 13.078125-9.498046 3.544922 6.320312 7.886719c3.016634-3.002739 4.210728-7.302769 3.177734-11.431641z" fill="#a1ddaa"/><g transform="matrix(.30901699 -.95105652 .95105652 .30901699 -4.160381 26.271457)"><path d="m28.322661 11.8585c1.69383 5.03984.147942 10.603164-3.903162 14.046652l-7.76264-9.689445z" fill="#fb983b"/><path d="m27.632812 13.078125-9.498046 3.544922 6.320312 7.886719c3.016634-3.002739 4.210728-7.302769 3.177734-11.431641z" fill="#f8db8f"/></g><g transform="matrix(-.80901699 -.58778525 .58778525 -.80901699 19.539632 38.346541)"><path d="m28.322661 11.8585c1.69383 5.03984.147942 10.603164-3.903162 14.046652l-7.76264-9.689445z" fill="#d42314"/><path d="m27.632812 13.078125-9.498046 3.544922 6.320312 7.886719c3.016634-3.002739 4.210728-7.302769 3.177734-11.431641z" fill="#ff9198"/></g><g transform="matrix(-.80901699 .58778525 -.58778525 -.80901699 38.347425 19.537896)"><path d="m28.322661 11.8585c1.69383 5.03984.147942 10.603164-3.903162 14.046652l-7.76264-9.689445z" fill="#922e9b"/><path d="m27.632812 13.078125-9.498046 3.544922 6.320312 7.886719c3.016634-3.002739 4.210728-7.302769 3.177734-11.431641z" fill="#d492d8"/></g><g transform="matrix(.30901699 .95105652 -.95105652 .30901699 26.271269 -4.16157)"><path d="m28.322661 11.8585c1.69383 5.03984.147942 10.603164-3.903162 14.046652l-7.76264-9.689445z" fill="#0063b1"/><path d="m27.632812 13.078125-9.498046 3.544922 6.320312 7.886719c3.016634-3.002739 4.210728-7.302769 3.177734-11.431641z" fill="#83beec"/></g></svg>