<svg height="32" viewBox="0 0 8.4666665 8.4666669" width="32" xmlns="http://www.w3.org/2000/svg"><g transform="translate(0 -288.53332)"><path d="m1.0583333 291.17917v4.7625h6.35v-4.7625h-.9071427-4.5357144z" fill="#fafafa" stroke-width=".443143"/><g stroke-width=".264583"><path d="m.79375 289.59167v.33434.93276 5.01313c0 .18516.15361214.33435.344165.33435h6.1908367c.1905529 0 .344165-.14919.344165-.33435v-5.01313-.93276-.33434h-.344165-.6480225c.1099343 0 .1984375.0885.1984375.19843v.1323c0 .10993-.088503.19843-.1984375.19843h-.396875c-.1099344 0-.1984375-.0885-.1984375-.19843v-.1323c0-.10993.088503-.19843.1984375-.19843h-4.1010417c.1099344 0 .1984375.0885.1984375.19843v.1323c0 .10993-.088503.19843-.1984375.19843h-.396875c-.1099344 0-.1984375-.0885-.1984375-.19843v-.1323c0-.10993.088503-.19843.1984375-.19843h-.6480225zm.2645833 1.5875h6.35v4.7625h-6.35z" fill="#3a3a38"/><path d="m3.96875 291.70833h.79375v.79375h-.79375z" fill="#1e8bcd"/><path d="m5.0270833 291.70833h.79375v.79375h-.79375z" fill="#fb983b"/><path d="m6.0854167 291.70833h.79375v.79375h-.79375z" fill="#1e8bcd"/><path d="m5.0270833 293.03125h.79375v.79375h-.79375z" fill="#1e8bcd"/><path d="m6.0854167 293.03125h.79375v.79375h-.79375z" fill="#fb983b"/><path d="m1.8520833 293.03125h.79375v.79375h-.79375z" fill="#1e8bcd"/><path d="m2.9104167 293.03125h.79375v.79375h-.79375z" fill="#fb983b"/><path d="m3.96875 293.03125h.79375v.79375h-.79375z" fill="#1e8bcd"/><path d="m2.9104167 294.35417h.79375v.79375h-.79375z" fill="#1e8bcd"/><path d="m3.96875 294.35417h.79375v.79375h-.79375z" fill="#fb983b"/><path d="m2.9104167 291.70833h.79375v.79375h-.79375z" fill="#1e8bcd"/><path d="m1.8520833 291.70833h.79375v.79375h-.79375z" fill="#1e8bcd"/><path d="m5.0270833 294.35417h.79375v.79375h-.79375z" fill="#1e8bcd"/><path d="m6.0854167 294.35417h.79375v.79375h-.79375z" fill="#1e8bcd"/></g></g></svg>