<svg viewBox="0 0 32 32" xmlns="http://www.w3.org/2000/svg"><path d="m13 2c-.554 0-1 .446-1 1v19c0 .554.446 1 1 1h14c.554 0 1-.446 1-1v-19c0-.554-.446-1-1-1zm0 1h14v19h-14z" fill="#3a3a38"/><path d="m13 3v19h14v-19z" fill="#fafafa"/><path d="m9 5c-.554 0-1 .446-1 1v19c0 .554.446 1 1 1h14c.554 0 1-.446 1-1v-19c0-.554-.446-1-1-1zm0 1h14v19h-14z" fill="#3a3a38"/><path d="m9 6v19h14v-19z" fill="#fafafa"/><path d="m5 8c-.554 0-1 .446-1 1v19c0 .554.446 1 1 1h14c.554 0 1-.446 1-1v-19c0-.554-.446-1-1-1zm0 1h14v19h-14z" fill="#3a3a38"/><path d="m5 9v19h14v-19z" fill="#fafafa"/></svg>