<svg viewBox="0 0 32 32" xmlns="http://www.w3.org/2000/svg"><path d="m3 9v16h26v-16z" fill="#fafafa"/><path d="m2 8v18h28v-18zm4 1h20a3 3 0 0 0 3 3v10a3 3 0 0 0 -3 3h-20a3 3 0 0 0 -3-3v-10a3 3 0 0 0 3-3zm10 3a4 4 0 0 0 -4 4 4 4 0 0 0 4 4 4 4 0 0 0 4-4 4 4 0 0 0 -4-4zm0 1a3 3 0 0 1 3 3 3 3 0 0 1 -3 3 3 3 0 0 1 -3-3 3 3 0 0 1 3-3z" fill="#1e8bcd"/><path d="m21 18v9c.370533.826893 1.052371 1.409694 3 1 1.595993.30523 2.668676.04977 3-1v-9zm-7 2v7c.370533.826893 1.052371 1.409694 3 1 1.595993.30523 2.668676.04977 3-1v-7zm-9 2v5l1 1h2 2l1-1v-5z" fill="#fafafa"/><path d="m24 17a4 3 0 0 0 -4 3v.019531a4 3 0 0 0 -3-1.019531 4 3 0 0 0 -4 3v4a4 3 0 0 0 4 3 4 3 0 0 0 3.5-1.552734 4 3 0 0 0 3.5 1.552734 4 3 0 0 0 4-3v-6a4 3 0 0 0 -4-3zm0 1a3 2 0 0 1 3 2 3 2 0 0 1 -3 2 3 2 0 0 1 -3-2 3 2 0 0 1 3-2zm-7 2a3 2 0 0 1 3 2 3 2 0 0 1 -3 2 3 2 0 0 1 -3-2 3 2 0 0 1 3-2zm-9 1a4 3 0 0 0 -4 3v2a4 3 0 0 0 4 3 4 3 0 0 0 4-3v-2a4 3 0 0 0 -4-3zm19 1a3 2 0 0 1 -3 2 3 2 0 0 1 -3-2 4 3 0 0 0 3 1 4 3 0 0 0 3-1zm-19 0a3 2 0 0 1 3 2 3 2 0 0 1 -3 2 3 2 0 0 1 -3-2 3 2 0 0 1 3-2zm12 2a3 2 0 0 1 -3 2 3 2 0 0 1 -3-2 4 3 0 0 0 3 1 4 3 0 0 0 3-1zm7 0a3 2 0 0 1 -3 2 3 2 0 0 1 -3-2 4 3 0 0 0 3 1 4 3 0 0 0 3-1zm-16 2a3 2 0 0 1 -3 2 3 2 0 0 1 -3-2 4 3 0 0 0 3 1 4 3 0 0 0 3-1zm9 0a3 2 0 0 1 -3 2 3 2 0 0 1 -3-2 4 3 0 0 0 3 1 4 3 0 0 0 3-1zm7 0a3 2 0 0 1 -3 2 3 2 0 0 1 -3-2 4 3 0 0 0 3 1 4 3 0 0 0 3-1z" fill="#fb983b"/></svg>