<svg viewBox="0 0 32 32" xmlns="http://www.w3.org/2000/svg"><g fill-rule="evenodd"><path d="m6.6972656 3a.97470684.97470684 0 0 0 -.6894531.2851562l-1.7226563 1.7226563a.97470684.97470684 0 0 0 -.2851562.6894531v1.6425782a.97470684.97470684 0 0 0 .203125.5957031l8.822266 11.3984371v5.166016a.97470684.97470684 0 0 0 .390625.779297l4 3a.97470684.97470684 0 0 0 1.558593-.779297v-8.166016l8.822266-11.3984371a.97470684.97470684 0 0 0 .203125-.5957031v-1.6425782a.97470684.97470684 0 0 0 -.285156-.6894531l-1.722656-1.7226563a.97470684.97470684 0 0 0 -.689454-.2851562z" fill="#3a3a38"/><path d="m6.6972656 3.9746094-1.7226562 1.7226562v1.6425782l9.0253906 11.6601562v5.5l4 3v-8.5l9.025391-11.6601562v-1.6425782l-1.722657-1.7226562z" fill="#fafafa"/></g></svg>