<svg viewBox="0 0 32 32" xmlns="http://www.w3.org/2000/svg"><path d="m20.902344 6c-.072305.2079471-.184673.4034225-.345703.5644531l-1.556641 1.5566407v.8789062h.5c.813719 0 1.5.6862809 1.5 1.5 0 .813719-.686281 1.5-1.5 1.5h-.5v.876953l1.123047 1.123047h7.876953v-8z" fill="#fafafa"/><path d="m18.595703 12c-.023837.06475-.051686.126791-.078125.189453l.189453-.189453zm-2.402344 2.513672c-.06405.026856-.12721.055743-.193359.080078v.113281zm-3.041015 1.626953-.152344.152344v.707031.707031l5.646484 5.646485.353516-.353516v-.707031l-5.292969-5.292969.152344-.152344c-.306576-.149719-.557312-.400455-.707031-.707031z" fill="#1e8bcd"/><path d="m28 6v8h-7.876953l.423828.423828c.160755.160755.277192.360788.353516.576172h8.099609v-9zm-9 2.1210938-.542969.5429687c.051287.1111654.096526.2209951.138672.3359375h.404297zm-.404297 3.8789062c-.042065.114262-.087569.223469-.138672.333984l.542969.542969v-.876953z" fill="#3a3a38"/><path d="m18 3v1.8789062l.435547-.4355468c.564194-.5641933 1.527481-.5955512 2.111328-.0117188l.021484.0214844c.417208.4172139.515014 1.0262362.333985 1.546875h8.097656v-3z" fill="#3a3a38"/><path d="m19 20h9v8h-9z" fill="#fafafa"/><path d="m18 20v9h11v-9h-1v8h-9v-8z" fill="#3a3a38"/><path d="m18 17h11v3h-11z" fill="#3a3a38"/><path d="m3 14v8h9v-6.878906l-1.423828 1.423828c-.528566.528553-1.470345.652707-2.0781251.044922l-.0878907-.087891c-.6077734-.607774-.4836456-1.549557.0449219-2.078125l.4238281-.423828z" fill="#fafafa"/><path d="m2 14v9h11v-7.5-.902344c-.115096-.042414-.224648-.089042-.335938-.140625l-.664062.664063v6.878906h-9v-8z" fill="#3a3a38"/><path d="m2 11v3h6.8789062l1.6640628-1.664062c-.051287-.111166-.096526-.220996-.138672-.335938h-.904297c-.6388251 0-1.1949167-.424449-1.40625-1z" fill="#3a3a38"/><g fill="#797774"><path d="m20 8v1h7v-1zm.90625 3c-.153476.41798-.48827.752774-.90625.90625v.09375h7v-1z"/><path d="m20 22v1h7v-1zm0 3v1h7v-1z"/><path d="m4 16v1h7v-.878906l-.423828.423828c-.528566.528553-1.470345.652707-2.0781251.044922l-.0878907-.087891c-.1508162-.150816-.2565811-.32142-.3222656-.501953zm0 3v1h7v-1z"/><path d="m3 12v1h6.8789062l.6640628-.664062c-.051287-.111166-.096526-.220996-.138672-.335938h-.904297z"/><path d="m19 4v.0976562c.520639-.1810262 1.129665-.0832153 1.546875.3339844l.021484.0214844c.159194.1591963.268503.347043.337891.546875h7.09375v-1z"/><path d="m19 18h9v1h-9z"/></g><path d="m9.5078125 5.000109c-.125814-.002-.2508351.043843-.3457032.1387087l-.021483.022677c-.1897336.1897324-.186103.5013923.00977.6972852l2.5488227 2.5488a3.5000001 3.5000001 0 0 0 -.660156 1.5937511h-1.539063c-.277 0-.5.222992-.5.500032 0 .277039.2230001.499993.5.499993h1.541016a3.5000001 3.5000001 0 0 0 .658203 1.593752l-2.5371096 2.537083c-.1958687.19578-.2162596.492737-.044922.664063l.087891.08806c.1713377.171213.4681939.150803.6640625-.04498l2.5371091-2.538437a3.5000001 3.5000001 0 0 0 1.59375.662097v1.537096c0 .27704.223.499994.5.499994.277002 0 .5-.222992.5-.499994v-1.541027a3.5000001 3.5000001 0 0 0 1.59375-.660132l2.539062 2.539049c.19587.19578.490772.216189.66211.04498l.08789-.08806c.171341-.171212.152901-.46817-.04297-.664063l-2.539061-2.539055a3.5000001 3.5000001 0 0 0 .660156-1.591786h1.539063c.277002 0 .5-.222992.5-.499994 0-.277039-.223-.5000315-.5-.5000315h-1.541015a3.5000001 3.5000001 0 0 0 -.658204-1.5937512l2.548828-2.5488001c.19587-.1957795.201453-.5075527.01172-.697285l-.021471-.0226772c-.18974-.1897323-.501402-.184063-.697271.0113386l-2.548837 2.5488378a3.5000001 3.5000001 0 0 0 -1.59375-.66017v-1.5390615c0-.2770394-.223-.4999937-.5-.4999937-.277001 0-.5.2229921-.5.4999937v1.5410268a3.5000001 3.5000001 0 0 0 -1.59375.6582047l-2.5488281-2.5488378c-.0979343-.0978897-.2237952-.1485354-.3496093-.1504252zm4.9921875 3a2.5 2.5 0 0 1 2.5 2.500006 2.5 2.5 0 0 1 -2.5 2.499969 2.5 2.5 0 0 1 -2.5-2.499969 2.5 2.5 0 0 1 .722656-1.7558926l.02147-.022677a2.5 2.5 0 0 1 1.755874-.7206805z" fill="#ed8733"/><circle cx="14.5" cy="10.50005" fill="#fafafa" r="2.5"/></svg>