<svg height="32" viewBox="0 0 8.4666665 8.4666669" width="32" xmlns="http://www.w3.org/2000/svg"><g transform="translate(0 -288.53332)"><g transform="matrix(.26458333 0 0 .26458333 0 288.53333)"><path d="m8 12v2.998047h4.871094l-1.435547-1.433594c-.414868-.414867-.526476-1.034379-.34375-1.564453zm6.121094 0 3.441406 3.4375c.143288.143281.255502.314946.330078.5.06669.165442.109375.357641.109375.5625s-.04269.397058-.109375.5625c-.07458.185092-.186724.356677-.330078.5l-3.441406 3.4375h13.878906v-9zm-6.121094 6.001953v2.998047h3.091797c-.182725-.530074-.07112-1.149588.34375-1.564453l1.435547-1.433594z" fill="#fafafa"/><path d="m8 6c-.554 0-1 .446-1 1v7.998047h1v-2.998047h3.091797c.07098-.205914.182587-.399387.34375-.560547.288979-.288985.680959-.439453 1.0625-.439453.381573 0 .773521.150471 1.0625.439453l.560547.560547h4.878906 1 8v3 1 5h-13.878906l-.560547.560547c-.288993.289014-.680955.439453-1.0625.439453h15.501953c.554 0 1-.446 1-1v-5-1-8c0-.554-.446-1-1-1h-9zm4.498047 16c-.381568 0-.77352-.15047-1.0625-.439453-.16116-.16116-.272768-.354633-.34375-.560547h-3.091797v-2.998047h-1v2.998047c0 .554.446 1 1 1z" fill="#3a3a38"/><path d="m19 13v1h7v-1zm0 3v1h7v-1zm0 3v1h7v-1z" fill="#797774"/></g><path d="m2.1166667 290.38542h5.2916666v1.05833h-5.2916666z" fill="#797774" stroke-width=".472716"/><g stroke-width=".264583"><path d="m3.3067749 291.70885c-.033816 0-.067623.0129-.093534.0388-.051824.0518-.051824.13524 0 .18707l.8330238.83199h-3.12022303c-.0732896 0-.13229167.059-.13229167.13229 0 .0733.0590021.13229.13229167.13229h3.12022303l-.8330242.83199c-.051824.0518-.051824.13525 0 .18707.025911.0259.059718.0388.093534.0388s.067624-.0129.093534-.0388l1.0588509-1.05782c.012441-.0124.022246-.0273.028939-.0439.00618-.0153.00982-.032.00982-.0496s-.00364-.0343-.00982-.0496c-.00669-.0166-.016499-.0315-.028939-.0439l-1.0588506-1.05781c-.025911-.0259-.059718-.0388-.093534-.0388z" fill="#1e8bcd"/><path d="m.92604166 292.89895 3.17500004 3.175h-3.17500004zm.52916664 1.32292v.39063.93229h1.190625.1322917z" fill="#f8db8f" fill-rule="evenodd" stroke="#ed8733" stroke-linecap="round" stroke-linejoin="round"/></g></g></svg>