<svg viewBox="0 0 32 32" xmlns="http://www.w3.org/2000/svg"><g transform="translate(0 7)"><path d="m8 12v2.998047h4.871094l-1.435547-1.433594c-.414868-.414867-.526476-1.034379-.34375-1.564453zm6.121094 0 3.441406 3.4375c.143288.143281.255502.314946.330078.5.06669.165442.109375.357641.109375.5625s-.04269.397058-.109375.5625c-.07458.185092-.186724.356677-.330078.5l-3.441406 3.4375h13.878906v-9zm-6.121094 6.001953v2.998047h3.091797c-.182725-.530074-.07112-1.149588.34375-1.564453l1.435547-1.433594z" fill="#fafafa"/><path d="m8 6c-.554 0-1 .446-1 1v7.998047h1v-2.998047h3.091797c.07098-.205914.182587-.399387.34375-.560547.288979-.288985.680959-.439453 1.0625-.439453.381573 0 .773521.150471 1.0625.439453l.560547.560547h4.878906 1 8v3 1 5h-13.878906l-.560547.560547c-.288993.289014-.680955.439453-1.0625.439453h15.501953c.554 0 1-.446 1-1v-5-1-8c0-.554-.446-1-1-1h-9zm4.498047 16c-.381568 0-.77352-.15047-1.0625-.439453-.16116-.16116-.272768-.354633-.34375-.560547h-3.091797v-2.998047h-1v2.998047c0 .554.446 1 1 1z" fill="#3a3a38"/><path d="m19 13v1h7v-1zm0 3v1h7v-1zm0 3v1h7v-1z" fill="#797774"/></g><path d="m8 14h20v4h-20z" fill="#797774" stroke-width="1.786642"/><path d="m12.498047 12.001953c-.127809 0-.255582.04855-.353516.146485-.195869.195867-.195869.511162 0 .707031l3.148438 3.144531h-11.792969c-.277 0-.5.223-.5.5s.223.5.5.5h11.792969l-3.148438 3.144531c-.195869.195869-.195869.511163 0 .707031.09793.09793.225707.146485.353516.146485.12781 0 .255586-.04855.353515-.146485l4.001954-3.998046c.04702-.04701.08408-.103236.109375-.166016.02334-.057904.037109-.12105.037109-.1875s-.01377-.129596-.03711-.1875c-.0253-.06278-.06236-.119003-.109375-.166016l-4.001954-3.998046c-.09793-.09793-.225705-.146485-.353515-.146485z" fill="#1e8bcd" transform="translate(0 7)"/><path d="m13.5 3c-1.921703 0-3.5 1.5782972-3.5 3.5v2.8378906c-.0381276-.1351117-.0246485-.2857555-.0839844-.4140625-.158307-.3508336-.382995-.6751915-.671875-.9394531-.2580358-.2437364-.5554718-.4470459-.8789062-.5996094-.2616545-.1277998-.5283876-.2420345-.8027344-.3417968-.2449233-.0890631-.4854904-.1766969-.7226562-.2617188-.1822488-.0653344-.3285252-.1347384-.4453126-.203125-.0676753-.0447499-.1115251-.0890081-.1464843-.1347656.013252.024925.00781.04661.00781-.03125 0-.073211.010331-.1175265.025391-.15625a1.0001 1.0001 0 0 0 .00391-.00977c.014528-.038396.024059-.051403.044922-.072266.013328-.013328.030479-.028872.095703-.052734a1.0001 1.0001 0 0 0 .0117171-.005855c.054572-.020789.1445316-.041016.2890625-.041016.1629921 0 .262401.025609.296875.039062a1.0001 1.0001 0 0 0 .027344.00977c.1283744.045848.214676.091552.2597657.1210937a1.0001 1.0001 0 0 0 .035156.021484c.1089843.065391.1834427.1186292.2207031.1484375a1.0001 1.0001 0 0 0 .042969.033203c.1798892.1284919.4050781.2871094.8222656.2871094.4809268 0 .9742839-.3788202 1.1542969-.7148438a1.0001 1.0001 0 0 0 .00391-.00586l.2988241-.5664086a1.0001 1.0001 0 0 0 -.1621094-1.1582031c-.3819489-.3998526-.847814-.7091689-1.3613281-.9140625-.0005902-.0002374-.00136.0002371-.00195 0-.5151975-.2069706-1.0728445-.3046875-1.6484406-.3046875-.5250254 0-1.0340195.086445-1.5019532.2851563-.4263119.1785693-.8165666.4332105-1.1367187.7597656-.3090287.3153354-.5503691.690589-.7128907 1.1015625-.0002405.0006012.0002402.00135 0 .00195-.1607063.4024346-.2441406.8311946-.2441406 1.2597656 0 .4845221.065123.9420482.2460938 1.3691406a1.0001 1.0001 0 0 0 .00391.011719c.1589493.360704.3774217.6949188.6621056.9726591a1.0001 1.0001 0 0 0 .00977.00977c.2651369.2525115.5699459.4572982.89648.6113238a1.0001 1.0001 0 0 0 .013672.00586c.261223.118289.5293587.2271514.8046874.322265.2459589.084968.4861233.167715.7226562.248047a1.0001 1.0001 0 0 0 .017578.0059c.1674436.05371.2953449.112883.3945312.175781a1.0001 1.0001 0 0 0 .023437.01563c.070356.04188.099509.0736.1230469.109375a1.0001 1.0001 0 0 0 .00977.01563c-.021501-.03142-.00195-.03781-.00195.08008 0 .127871-.020311.216402-.046875.285157a1.0001 1.0001 0 0 0 -.00391.01172c-.023457.06304-.041617.08957-.076172.123046a1.0001 1.0001 0 0 0 -.011722.01172c-.0325.0325-.071908.06141-.1523438.0918-.067169.02537-.1727279.04883-.3320312.04883-.2002191 0-.3314048-.03032-.4101562-.06055-.1593837-.069272-.2808967-.136359-.3652341-.193416-.1381201-.098872-.2510824-.181891-.328125-.246094l.033203.0293c-.2004759-.183046-.4936377-.402347-.9531249-.402347-.2274462 0-.484808.07269-.6894531.199219-.1819619.112167-.3329987.265773-.4335938.423828a1.0001 1.0001 0 0 0 -.00781.01172l-.3535156.572265a1.0001 1.0001 0 0 0 .1074219 1.193359c.4069993.452859.9062821.815337 1.4667968 1.076172a1.0001 1.0001 0 0 0 .0117163.005859c.5872199.264825 1.2303226.394532 1.8945312.394531.5502429.000002 1.0788575-.08789 1.5644532-.287109.4615257-.189344.878212-.467541 1.2148437-.822265.3330913-.346321.5912248-.759489.7597657-1.210938a1.0001 1.0001 0 0 0 0-.0039c.0945522-.256649.1018932-.539038.1425782-.812506.195652 1.741223 1.633489 3.128906 3.423828 3.128906h1c.07859 0 .136202-.02372.210938-.0293l1.009765 1.152344a1.0001 1.0001 0 0 0 .0293.0332c.184926.193336.418285.362497.689453.466797.253894.09766.509433.132513.75.134765l.837891.0078a1.0001 1.0001 0 0 0 .759765-1.662109l-.1543-.173809a1.0001 1.0001 0 0 0 .367188.070312h4a1.0001 1.0001 0 0 0 1-1v-1a1.0001 1.0001 0 0 0 -1-1h-2v-7a1.0001 1.0001 0 0 0 -1-1h-1a1.0001 1.0001 0 0 0 -1 1v2.5c0-1.9217028-1.578297-3.5-3.5-3.5zm.208984 3h.582032c.318212 0 .708984.350778.708984 1v3c0 .649222-.390772 1-.708984 1h-.582032c-.318212 0-.708984-.350778-.708984-1v-3c0-.649222.390772-1 .708984-1zm4.291016 4.5v2.5a1.0001 1.0001 0 0 0 .0332.25l-.714841-.810547c.392147-.563801.681641-1.201826.681641-1.939453z" fill="#fafafa"/><path d="m13.5 4c-1.385 0-2.5 1.115-2.5 2.5v4c0 1.385 1.115 2.5 2.5 2.5h1c.213467 0 .417689-.0341.615234-.08398l1.357422 1.548828c.09961.10414.208449.179329.326172.224609s.250979.06696.400391.06836l.83789.0078-2.019531-2.287109c.594841-.456189.982422-1.167608.982422-1.978508v-4c0-1.385-1.115-2.5-2.5-2.5zm5.5 0v9h4v-1h-3v-8zm-12.2851562.0703125c-.4170923 0-.7874162.067526-1.1113282.2050781-.3194748.1331146-.5906424.3127678-.8125.5390625-.2174204.2218576-.384634.4805856-.5.7734375-.1153658.2884148-.171875.5844616-.171875.890625 0 .3904693.055087.7167238.1660156.9785156.115366.2617919.2633894.4826703.4453126.6601563.1863603.1774861.3976435.3207118.6328124.4316406.2351691.1064916.4747067.2028035.71875.2871094.2440433.084306.4835811.1662251.71875.2460937.2351691.075432.4430769.1697904.625.2851563.1863603.1109289.3363369.2513096.4472657.4199219.1153661.1686117.171875.3827396.171875.6445316 0 .235169-.03785.45125-.1132813.646484-.070994.190798-.1763705.354636-.3183594.492187-.1375516.137552-.3061875.244882-.5058593.320313-.1996718.07543-.4281922.113281-.6855469.113281-.3061634 0-.5711112-.04602-.7929688-.134765-.2174203-.09318-.4032934-.192337-.5585937-.298829-.1553003-.110928-.2860865-.210084-.3925781-.298828-.1020545-.09318-.194991-.140625-.2792969-.140625-.06212 0-.117207.01582-.1660156.04687-.044372.02663-.082221.06448-.1132813.113282l-.3535156.57227c.3150377.350535.696379.629344 1.1445312.837891.4525894.204109.9474798.30664 1.484375.30664.4437151.000001.8394492-.0709 1.1855469-.21289.346098-.141989.635925-.337458.8710938-.585938.2396066-.24848.4206818-.538307.5449219-.871093.12424-.337223.1875-.699906.1875-1.085938 0-.3594091-.058463-.6616756-.1738282-.9101561-.1109286-.2484805-.2589515-.4583414-.4453125-.6269531-.1819229-.1730489-.389831-.3148525-.625-.4257813-.235169-.1153659-.4747067-.2178977-.71875-.3066406-.2440433-.0887431-.483581-.1754598-.71875-.2597657-.235169-.0843058-.4464521-.1800868-.6328125-.2910156-.1819231-.1153659-.3299465-.2543251-.4453125-.4140625-.1109288-.1597374-.1679687-.3614255-.1679687-.6054687 0-.1863604.03163-.3597938.09375-.5195313.06212-.1641746.1536343-.3059782.2734375-.4257812.1242402-.1242403.2770612-.218599.4589843-.2851563.1863603-.070994.400488-.1074218.6445313-.1074218.2573547 0 .4782331.036427.6601563.1074218.1863603.066557.3439788.1422567.4726562.2265625.1331147.079869.2432883.1536151.3320312.2246094.09318.066557.1736771.1015625.2402344.1015625.1153662 0 .2068802-.06326.2734375-.1875l.2988281-.5664062c-.2839778-.2972891-.6212496-.5224341-1.0117187-.6777344-.3860321-.1553003-.8114429-.2324219-1.2773437-.2324219zm6.9941402.9296875h.582032c.946495 0 1.708984.892 1.708984 2v3c0 1.108-.762489 2-1.708984 2h-.582032c-.946495 0-1.708984-.892-1.708984-2v-3c0-1.108.762489-2 1.708984-2z" fill="#3a3a38"/></svg>