<svg height="32" viewBox="0 0 8.4666665 8.4666669" width="32" xmlns="http://www.w3.org/2000/svg" xmlns:xlink="http://www.w3.org/1999/xlink"><linearGradient id="a" gradientUnits="userSpaceOnUse" x1="77.99999878125" x2="77.99999878125" xlink:href="#b" y1="36.00005483907" y2="18.00005512032"/><linearGradient id="b" gradientUnits="userSpaceOnUse" x1="70" x2="70" y1="42" y2="24"><stop offset="0" stop-color="#e9e9e9"/><stop offset=".2857143" stop-color="#f2f2f2"/><stop offset="1" stop-color="#fbfbfb"/></linearGradient><linearGradient id="c" gradientUnits="userSpaceOnUse" x1="69.99999764641" x2="69.99999764641" xlink:href="#b" y1="42.00005474532" y2="24.00005502657"/><g transform="translate(0 -288.53331)"><g stroke-width=".999999" transform="matrix(.26458333 0 0 .26458333 0 288.53331)"><path d="m12 9v13h7.191406l5.72461-5.708984.71289-.699219.044922-.044922c.355925-.355461.840066-.546875 1.316406-.546875.35022 0 .703482.102202 1.009766.298828v-6.298828z" fill="url(#a)"/><path d="m4 15v13h11.462891l.675781-2.748047c.043113-.178092.134321-.340918.263672-.470703l3.597656-3.587891v-6.193359z" fill="url(#c)"/><path d="m12 3c-.554 0-1 .4459969-1 1v5h-7c-.5539999 0-1 .4459969-1 1v18c0 .554003.4460001 1 1 1h11.216797l.246094-1h-11.462891v-13h7v7c0 .554003.446 1 1 1h6.189453l1.001953-1h-7.191406v-7h8v6.193359l1-.998047v-10.195312c0-.5540031-.446-1-1-1h8v6.298828c.110339.07083.21485.152482.310547.248047l.689453.6875v-12.234375c0-.5540031-.446-1-1-1z" fill="#3a3a38"/></g><g fill="#bababa" transform="matrix(.26458333 0 0 .26458333 0 288.53333)"><path d="m6 16h4v1h-4z" fill="#797774"/><path d="m14 16h4v1h-4z" fill="#1e8bcd"/><path d="m6 19h4v1h-4z" fill="#797774"/><path d="m14 19h4v1h-4z" fill="#1e8bcd"/><g fill="#797774"><path d="m6 22h4v1h-4z"/><path d="m6 25h4v1h-4z"/><path d="m14 25v1h1.955078l.183594-.748047c.021413-.088452.055688-.17321.099609-.251953z" transform="translate(0 -.000076)"/><path d="m22 10h4v1h-4z"/><path d="m22 13h4v1h-4z"/><path d="m22 16v1h2.205078l.710938-.708984.296875-.291016z" transform="translate(0 -.000076)"/><path d="m22 19h4v1h-4z"/></g></g><g stroke-width=".264583"><path d="m1.0583333 290.91458c-.14657913 0-.2645833.11801-.2645833.26459v.26458 1.05833h4.7625v-1.05833-.26458c0-.14658-.1180042-.26459-.2645833-.26459z" fill="#3a3a38"/><path d="m1.0583333 291.17917v1.05833h1.8520834v-1.05833zm2.1166667 0v1.05833h2.1166667v-1.05833z" fill="#797774"/><path d="m3.175 289.32708c-.1465792 0-.2645833.11801-.2645833.26459v.26458 1.05833h4.7625v-1.05833-.26458c0-.14658-.1180042-.26459-.2645834-.26459z" fill="#3a3a38"/></g><path d="m3.175 289.59167h4.2333333v1.05833h-4.2333333z" fill="#797774" stroke-width=".42281"/></g><g fill="#fb983b" transform="matrix(.30870295 0 0 .30868057 .837601 .837847)"><path d="m25.623047 17-8.513672 8.490234-1.109375 4.509766 4.441406-1.179688 7.308594-7.294921-3.322266-3.324219 1.199219-1.197266zm-1.197266 2.519531 2.003907 2.00586-5.751954 5.738281-2.009765-2.009766zm-6.464843 6.441407 2.009765 2.009765-.01172.01172-2.675781.710937.669922-2.726562z" fill="#0063b1" transform="matrix(.85708068 0 0 .85714283 -2.713291 -2.714286)"/><path d="m26.990234 16c-.221171 0-.439899.08465-.609375.253906l-1.953125 1.947266 3.322266 3.324219 1.996094-1.91211c.338948-.338481.338948-.88222 0-1.220703l-2.142578-2.138672c-.169476-.169241-.39211-.253906-.613282-.253906zm0 .998047 2.00586 2.003906-1.232422 1.179688-1.978516-1.980469z" fill="#0063b1" transform="matrix(.85708068 0 0 .85714283 -2.713291 -2.714286)"/><g fill="#83beec"><path d="m20.419922 11.855469-1.033203 1.03125 1.695312 1.697265 1.056641-1.011718z"/><path d="m24.425781 19.519531-5.757812 5.734375 2.009765 2.009766 5.751954-5.738281zm-6.464843 6.441407-.0078.0059-.669922 2.726562 2.675781-.710937.01172-.01172z" stroke-width="1.166709" transform="matrix(.85708068 0 0 .85714283 -2.713291 -2.714286)"/></g></g></svg>