<svg viewBox="0 0 32 32" xmlns="http://www.w3.org/2000/svg"><path d="m5 2c-.554 0-1 .446-1 1v26c0 .554.446 1 1 1h10.003906c.0003-.077996.005584-.157447.025391-.238281l.1875-.761719h-10.216797v-26h22v12c.347053.001833.696535.104012 1 .298828v-12.298828c0-.554-.446-1-1-1zm23 20.689453-1 .998047v5.3125h-5.322266l-.529296.527344c-.124823.124898-.280487.214525-.451172.259765l-.800782.212891h7.103516c.554 0 1-.446 1-1z" fill="#3a3a38"/><path d="m5 3v26h10.216797l.921875-3.748047c.043113-.178092.134322-.340918.263672-.470703l8.513672-8.490234.71289-.699219.044922-.044922c.355925-.355462.840066-.546875 1.316406-.546875.003223 0 .006543-.000017.009766 0v-12zm22 20.6875-5.322266 5.3125h5.322266z" fill="#fafafa"/><g fill="#797774"><rect height="8" ry="1" width="6" x="7" y="6"/><path d="m15.5 7c-.277 0-.5.223-.5.5s.223.5.5.5h9c.277 0 .5-.223.5-.5s-.223-.5-.5-.5zm0 4c-.277 0-.5.223-.5.5s.223.5.5.5h9c.277 0 .5-.223.5-.5s-.223-.5-.5-.5zm-8.0488281 6c-.2504418 0-.4511719.20073-.4511719.451172v.097656c0 .250442.2007301.451172.4511719.451172h15.7519531l1.001953-1zm0 4c-.2504418 0-.4511719.20073-.4511719.451172v.097656c0 .250442.2007301.451172.4511719.451172h11.7402341l1.001953-1zm0 4c-.2504418 0-.4511719.20073-.4511719.451172v.097656c0 .250442.2007301.451172.4511719.451172h8.5039061l.183594-.748047c.021413-.088452.055688-.17321.099609-.251953zm17.5156251.716797-.25.25c.113938-.045583.204417-.136062.25-.25z"/></g><g fill="#fb983b" transform="matrix(1.1667513 0 0 1.1666667 3.165736 3.166667)"><path d="m25.623047 17-8.513672 8.490234-1.109375 4.509766 4.441406-1.179688 7.308594-7.294921-3.322266-3.324219 1.199219-1.197266zm-1.197266 2.519531 2.003907 2.00586-5.751954 5.738281-2.009765-2.009766zm-6.464843 6.441407 2.009765 2.009765-.01172.01172-2.675781.710937.669922-2.726562z" fill="#0063b1" transform="matrix(.85708068 0 0 .85714283 -2.713291 -2.714286)"/><path d="m26.990234 16c-.221171 0-.439899.08465-.609375.253906l-1.953125 1.947266 3.322266 3.324219 1.996094-1.91211c.338948-.338481.338948-.88222 0-1.220703l-2.142578-2.138672c-.169476-.169241-.39211-.253906-.613282-.253906zm0 .998047 2.00586 2.003906-1.232422 1.179688-1.978516-1.980469z" fill="#0063b1" transform="matrix(.85708068 0 0 .85714283 -2.713291 -2.714286)"/><g fill="#83beec"><path d="m20.419922 11.855469-1.033203 1.03125 1.695312 1.697265 1.056641-1.011718z"/><path d="m24.425781 19.519531-5.757812 5.734375 2.009765 2.009766 5.751954-5.738281zm-6.464843 6.441407-.0078.0059-.669922 2.726562 2.675781-.710937.01172-.01172z" stroke-width="1.166709" transform="matrix(.85708068 0 0 .85714283 -2.713291 -2.714286)"/></g></g></svg>