<svg viewBox="0 0 32 32" xmlns="http://www.w3.org/2000/svg"><path d="m5 2c-.554 0-1 .446-1 1v26c0 .554.446 1 1 1h13.863281l1-1h-14.863281v-26h22v18.863281l1-1v-17.863281c0-.554-.446-1-1-1z" fill="#3a3a38"/><path d="m5 3v26h14.863281l3.5-3.5-5.070312-5.070312c-.389703-.390805-.389703-1.023258 0-1.414063l.722656-.722656c.183424-.184366.431383-.290133.691406-.294922.270862-.0035.531581.102912.722657.294922l5.070312 5.070312 1.5-1.5v-18.863281z" fill="#fafafa"/><g fill="#797774"><rect height="8" ry="1" width="6" x="7" y="6"/><path d="m15.5 7c-.277 0-.5.223-.5.5s.223.5.5.5h9c.277 0 .5-.223.5-.5s-.223-.5-.5-.5zm0 4c-.277 0-.5.223-.5.5s.223.5.5.5h9c.277 0 .5-.223.5-.5s-.223-.5-.5-.5zm-8.0488281 6c-.2504418 0-.4511719.20073-.4511719.451172v.097656c0 .250442.2007301.451172.4511719.451172h12.2304691a1.0013091 1.0013091 0 0 1 .02539-.001953 1.0013091 1.0013091 0 0 1 .050781.001953h4.791016c.250442 0 .451172-.20073.451172-.451172v-.097656c0-.250442-.20073-.451172-.451172-.451172zm0 4c-.2504418 0-.4511719.20073-.4511719.451172v.097656c0 .250442.2007301.451172.4511719.451172h12.4121091l-1-1zm15.6855471 0 1 1h.412109c.250442 0 .451172-.20073.451172-.451172v-.097656c0-.250442-.20073-.451172-.451172-.451172zm-15.6855471 4c-.2504418 0-.4511719.20073-.4511719.451172v.097656c0 .250442.2007301.451172.4511719.451172h15.4121091l.5-.5-.5-.5z"/></g><path d="m31.277778 19-5.777778 5.777778-5.777778-5.777778-.722222.722222 5.777778 5.777778-5.777778 5.777778.722222.722222 5.777778-5.777778 5.777778 5.777778.722222-.722222-5.777778-5.777778 5.777778-5.777778z" fill="#ed3d3b"/></svg>