<svg viewBox="0 0 32 32" xmlns="http://www.w3.org/2000/svg"><path d="m4 3c-.554 0-1 .446-1 1v12 12c0 .554.446 1 1 1h16v-1h-16v-12-9h16c.000105-1.0471166.952883-1.9998953 2-2h2a1.0001 1.0001 0 0 0 .001953 0c.173959.0002428.330046.089654.498047.1347656.168001-.0451116.324088-.1345228.498047-.1347656a1.0001 1.0001 0 0 0 .001953 0h2c1.047117.0001047 1.999895.9528834 2 2v-3c0-.554-.446-1-1-1zm25 5c-.000069.6905443-.417465 1.3330006-1 1.6953125v6.3046875 10.304688c.582535.362311.999931 1.004767 1 1.695312v-12z" fill="#3a3a38"/><path d="m4 7v21h16c.000105-1.047117.952883-1.999895 2-2v-2-12-2c-1.047117-.0001047-1.999895-.9528834-2-2v-1zm24 2.6953125c-.3008.1870849-.643428.3046518-1 .3046875v2 12 2c.356572.000036.6992.117603 1 .304688z" fill="#fafafa"/><path d="m3 3v6h17.304688c-.187085-.3008002-.304652-.6434277-.304688-1v-1c.000105-1.0471166.952883-1.9998953 2-2h2a1.0001 1.0001 0 0 0 .001953 0c.173959.0002428.330046.089654.498047.1347656.168001-.0451116.324088-.1345228.498047-.1347656a1.0001 1.0001 0 0 0 .001953 0h2c1.047117.0001047 1.999895.9528834 2 2v-4zm26 5c-.000036.3565723-.117603.6991998-.304688 1h.304688z" fill="#3a3a38"/><path d="m4 4v4h16v-1c.000105-1.0471166.952883-1.9998953 2-2h2a1.0001 1.0001 0 0 0 .001953 0c.173959.0002428.330046.089654.498047.1347656.168001-.0451116.324088-.1345228.498047-.1347656a1.0001 1.0001 0 0 0 .001953 0h2c.356572.0000357.6992.1176026 1 .3046875v-1.3046875z" fill="#797774"/><path d="m22 6.0000005a1.0001 1.0001 0 0 0 -1 1v1a1.0001 1.0001 0 0 0 1 1h1v2.9999995 12 3h-1a1.0001 1.0001 0 0 0 -1 1v1a1.0001 1.0001 0 0 0 1 1h2a1.0001 1.0001 0 0 0 .5-.134766 1.0001 1.0001 0 0 0 .5.134766h2a1.0001 1.0001 0 0 0 1-1v-1a1.0001 1.0001 0 0 0 -1-1h-1v-3-12-2.9999995h1a1.0001 1.0001 0 0 0 1-1v-1a1.0001 1.0001 0 0 0 -1-1h-2a1.0001 1.0001 0 0 0 -.5.1347656 1.0001 1.0001 0 0 0 -.5-.1347656z" fill="#3a3a38" fill-opacity=".992366"/><path d="m22 7.0000005v1h2v-1zm2 1v19.9999995h1v-19.9999995zm1 0h2v-1h-2zm0 19.9999995v1h2v-1zm-1 0h-2v1h2z" fill="#fafafa" stroke-width="2"/><path d="m9 9v4h-5v1h5v4h-5v1h5v4h-5v1h5v4h1v-4h5v4h1v-4h5v2.304688c.3008-.187085.643428-.304652 1-.304688v-2-1-4-1-4-1-1-2c-.356572-.0000357-.6992-.1176026-1-.3046875v3.3046875h-5v-4h-1v4h-5v-4zm18 4v1h1v-1zm-17 1h5v4h-5zm6 0h5v4h-5zm11 4v1h1v-1zm-17 1h5v4h-5zm6 0h5v4h-5zm11 4v1h1v-1z" fill="#797774"/></svg>