<svg viewBox="0 0 32 32" xmlns="http://www.w3.org/2000/svg"><path d="m5 2c-.554 0-1 .446-1 1v26c0 .554.446 1 1 1h22c.554 0 1-.446 1-1v-26c0-.554-.446-1-1-1zm0 1h22v26h-22z" fill="#3a3a38"/><path d="m5 3v26h22v-26z" fill="#fafafa"/><g fill="#797774"><rect height="8" ry="1" width="6" x="7" y="6"/><g><rect height="1" ry=".5" width="10" x="15" y="7"/><rect height="1" ry=".452061" width="18" x="7" y="25"/><rect height="1" ry=".5" width="10" x="15" y="11"/><rect height="1" ry=".452061" width="18" x="7" y="21"/><rect height="1" ry=".452061" width="18" x="7" y="17"/></g></g></svg>