<svg viewBox="0 0 32 32" xmlns="http://www.w3.org/2000/svg"><path d="m16 2a7 7 0 0 0 -7 7 7 7 0 0 0 7 7 7 7 0 0 0 7-7 7 7 0 0 0 -7-7zm0 1a6 6 0 0 1 6 6 6 6 0 0 1 -6 6 6 6 0 0 1 -6-6 6 6 0 0 1 6-6z" fill="#3a3a38"/><path d="m16 16a13 13 0 0 0 -13 13h1.3007812a11.7 11.7 0 0 1 .0507813-.996094.3091834.3091834 0 0 1 -.2714844-.339844c.3246606-2.900343 1.7495809-5.662571 3.9238281-7.609374 2.1742478-1.946805 5.0776378-3.058984 7.9960938-3.0625 2.919793.001568 5.82606 1.111626 8.001953 3.058593s3.600971 4.711611 3.925781 7.613281a.3091834.3091834 0 0 1 -.277343.341797 11.7 11.7 0 0 1 .048828.994141h1.300781a13 13 0 0 0 -13-13z" fill="#3a3a38"/><path d="m16 16.992188c-2.918456.0035-5.821846 1.115696-7.9960938 3.0625-2.1742473 1.946803-3.5991675 4.709031-3.9238281 7.609374a.3091834.3091834 0 0 0 .3066407.34375h23.2343752a.3091834.3091834 0 0 0 .30664-.34375c-.32481-2.90167-1.749888-5.666314-3.925781-7.613281s-5.08216-3.057025-8.001953-3.058593z" fill="#fafafa"/><path d="m4.2880151 28h23.3999999l.011985 1h-23.4z" fill="#3a3a38"/><path d="m22 9a6 6 0 0 1 -6 6 6 6 0 0 1 -6-6 6 6 0 0 1 6-6 6 6 0 0 1 6 6z" fill="#fafafa"/></svg>