<svg viewBox="0 0 32 32" xmlns="http://www.w3.org/2000/svg"><path d="m21.498047 7.9980469c-.127809-.0000005-.255582.0485507-.353516.1464843-.195867.1958675-.195869.511162 0 .7070313l6.148438 6.1484375h-23.792969c-.2769983 0-.5.223-.5.5s.2230017.5.5.5h23.792969l-6.148438 6.148438c-.19587.195868-.195868.511163 0 .707031s.511162.19587.707031 0l7.001954-7.001953c.047012-.047013.084075-.103238.109375-.166016.024483-.06017.037109-.123595.037109-.1875 0-.066453-.013774-.129596-.037109-.1875-.0253-.062778-.062363-.119003-.109375-.166016l-7.001954-7.0019528c-.097934-.0979346-.225706-.1464839-.353515-.1464843z" fill="#1e8bcd"/></svg>