<svg viewBox="0 0 32 32" xmlns="http://www.w3.org/2000/svg"><path d="m4 4c-.554 0-1 .446-1 1v4 19c0 .554.446 1 1 1h15.863281l1-1h-4.863281-1-5-1-5v-4-1-4-1-4-1-4-1-3h23v4 4 1 4 1 2.863281l1-1v-11.863281-4c0-.554-.446-1-1-1z" fill="#3a3a38"/><path d="m4 5v23h16.863281l2.5-2.5-5.070312-5.070312c-.389703-.390805-.389703-1.023258 0-1.414063l.722656-.722656c.183424-.184366.431383-.290133.691406-.294922.270862-.0035.531581.102912.722657.294922l5.070312 5.070312 1.5-1.5v-16.863281z" fill="#fafafa"/><path d="m9 5v5h-5v1h5v5h-5v1h5v5h-5v1h5v5h1v-5h5v5h1v-5h4.863281l-1-1h-3.863281v-5h5v1.863281l1 1v-2.863281h5v-1h-5v-5h5v-1h-5v-5h-1v5h-5v-5h-1v5h-5v-5zm1 6h5v5h-5zm6 0h5v5h-5zm-6 6h5v5h-5zm14.136719 5 1 1h.726562l1-1zm-3.136719 1.136719v4.726562l1-1v-2.726562z" fill="#797774"/><path d="m4 17v5h15.863281l-1.570312-1.570312a1.0013091 1.0013091 0 0 1 0-1.414063l.722656-.722656a1.0013091 1.0013091 0 0 1 .691406-.294922 1.0013091 1.0013091 0 0 1 .722657.294922l3.707031 3.707031h2.726562l.136719-.136719v-4.863281z" fill="#ed3d3b" opacity=".5" stroke-width=".408248"/><path d="m4 16v1h5v5h-5v1h16.863281l-1-1h-3.863281v-5h5v1.863281l1 1v-2.863281h5v-1zm6 1h5v5h-5zm14.136719 5 1 1h.726562l1-1z" fill="#ed3d3b"/><path d="m3 16v7h1v-7zm24 0v5.863281l1-1v-4.863281z" fill="#d42314"/><path d="m31.277778 19-5.777778 5.777778-5.777778-5.777778-.722222.722222 5.777778 5.777778-5.777778 5.777778.722222.722222 5.777778-5.777778 5.777778 5.777778.722222-.722222-5.777778-5.777778 5.777778-5.777778z" fill="#ed3d3b"/></svg>