<svg viewBox="0 0 32 32" xmlns="http://www.w3.org/2000/svg"><path d="m4 3c-.554 0-1 .446-1 1v24c0 .554.446 1 1 1h13.863281l1-1h-14.863281v-24h24v14.863281l1-1v-13.863281c0-.554-.446-1-1-1z" fill="#3a3a38"/><path d="m4 4v24h14.863281l3.5-3.5-5.070312-5.070312c-.389703-.390805-.389703-1.023258 0-1.414063l.722656-.722656c.183424-.184366.431383-.290133.691406-.294922.270862-.0035.531581.102912.722657.294922l5.070312 5.070312 3.5-3.5v-14.863281z" fill="#fafafa"/><g fill="#797774"><path d="m11 6h15v4h-15z"/><path d="m11-10h15v4h-15z" transform="rotate(90)"/><path d="m6 6h4v4h-4z"/><g fill="#c8c6c4"><path d="m12 7h13v2h-13z" stroke-width=".658281"/><path d="m7 25v-13h2v13z" stroke-width=".658281"/><path d="m7 9v-2h2v2z" stroke-width=".258199"/></g></g><path d="m30.277778 18-5.777778 5.777778-5.777778-5.777778-.722222.722222 5.777778 5.777778-5.777778 5.777778.722222.722222 5.777778-5.777778 5.777778 5.777778.722222-.722222-5.777778-5.777778 5.777778-5.777778z" fill="#ed3d3b"/></svg>