<svg viewBox="0 0 32 32" xmlns="http://www.w3.org/2000/svg"><path d="m3 6v13 6.998047h6.9980469l.0019531.001953h6 6l.002-.002h.863281l.498-.498-5.070312-5.070312c-.389703-.390805-.389703-1.023258 0-1.414063l.722656-.722656c.183424-.184366.431383-.290133.691406-.294922.270862-.0035.531581.102912.722657.294922l5.070312 5.070312 3.5-3.5v-.863281-13z" fill="#fafafa"/><path d="m2.9980469 5c-.5539999 0-1 .446-1 1v14.492188 5.507812c0 .554.456533.892483 1 1h5.3847656 4.7246095 5.78125 2.974609l1-1h-.863281-.002v.002h-6-6.0000001v-.002h-.00195-2.59375-4.4042969v-4.488281-15.5097659-.0019531h26.000044v.0019531 12.9980469.865234l1-1v-12.865234c0-.554-.446-1-1-1z" fill="#3a3a38"/><g fill="#c8c6c4" transform="translate(0 3)"><path d="m7 12h1v1h-1z"/><path d="m7 15h1v1h-1z"/><path d="m7 18h1v1h-1z"/><path d="m9 12h16v1h-16z"/><g transform="translate(0 -3)"><path d="m9 21v1h10.863281l-1-1zm14.136719 0 .863281.863281v-.863281z" stroke-width="1.167748"/><path d="m9 18v1h9.308594l.707031-.707031a1.0013091 1.0013091 0 0 1 .666016-.292969zm10.757812 0a1.0013091 1.0013091 0 0 1 .671876.292969l.570312.570312v-.863281z"/></g></g><path d="m7 10h18v2h-18z" fill="#797774"/><path d="m31.277778 19-5.777778 5.777778-5.777778-5.777778-.722222.722222 5.777778 5.777778-5.777778 5.777778.722222.722222 5.777778-5.777778 5.777778 5.777778.722222-.722222-5.777778-5.777778 5.777778-5.777778z" fill="#ed3d3b"/></svg>