<svg viewBox="0 0 32 32" xmlns="http://www.w3.org/2000/svg"><rect fill="#3a3a38" height="14" ry="1" width="5" x="12" y="7"/><path d="m13 8h3v12h-3z" fill="#c8c6c4"/><rect fill="#3a3a38" height="18" ry="1" width="5" x="18" y="3"/><path d="m19 4h3v16h-3z" fill="#c8c6c4"/><rect fill="#3a3a38" height="11" ry="1" width="5" x="24" y="10"/><path d="m25 11h3v9h-3z" fill="#c8c6c4"/><g fill="none" stroke-linecap="round"><path d="m28.5 21.5h-18v-17.9999998" stroke="#3a3a38"/><path d="m10.858628 21.146447c.195869.195869.195979.511348 0 .707107l-7.0058012 6.998024c-.1959782.195759-.5112382.195868-.7071068 0-.1958685-.195869-.1959781-.511348 0-.707107l7.005802-6.998024c.195978-.195759.511238-.195868.707106 0z" fill="#3a3a38"/></g><g fill="#1e8bcd"><path d="m12.858628 22.146447c.195869.195869.195979.511348 0 .707107l-7.0058012 6.998024c-.1959782.195759-.5112382.195868-.7071068 0-.1958685-.195869-.1959781-.511348 0-.707107l7.005802-6.998024c.195978-.195759.511238-.195868.707106 0z"/><rect height="1" ry=".219174" width="17" x="12" y="23"/><rect height="1" ry=".219174" transform="rotate(90)" width="19" x="3" y="-9"/></g></svg>