<svg viewBox="0 0 32 32" xmlns="http://www.w3.org/2000/svg"><path d="m11 4v24h6v-24z" fill="#fafafa"/><path d="m11 3v1h5v4 1 4 1 4 1 4 1 4h-5v1h6v-1-4-1-4-1-4-1-4-6z"/><path d="m3 4v24h7v-24z" fill="#fafafa"/><path d="m9 9h1v20h-1z" fill="#3a3a38"/><path d="m4 3c-.554 0-1 .446-1 1v24c0 .554.446 1 1 1h5c.554 0 1-.446 1-1h-1-5v-4-1-4-1-4-1-4-1-4h5 1c0-.554-.446-1-1-1z" fill="#3a3a38"/><path d="m11 8v1h5v-1zm0 5v1h5v-1zm0 5v1h5v-1zm0 5v1h5v-1z" fill="#797774" fill-opacity=".959559"/><path d="m9 4v4h-5v1h5v4h-5v1h5v4h-5v1h5v4h-5v1h5v4h1v-24z" fill="#797774" fill-opacity=".959559"/><path d="m25.509766 17c-.127809 0-.255582.04855-.353516.146484-.195869.195868-.195869.511163 0 .707032l4.136719 4.146484h-9.792969c-.277 0-.5.223-.5.5s.223.5.5.5h9.792969l-4.136719 4.146484c-.195869.195869-.195869.511164 0 .707032.097934.097934.225707.146484.353516.146484.12781 0 .255581-.04855.353515-.146484l4.990235-5c.04702-.04701.08408-.103236.109375-.166016.02334-.057904.037109-.12105.037109-.1875s-.01377-.129596-.03711-.1875c-.0253-.06278-.06236-.119003-.109375-.166016l-4.990235-5c-.097934-.097935-.225704-.146484-.353514-.146484z" fill="#1e8bcd"/></svg>