<svg viewBox="0 0 32 32" xmlns="http://www.w3.org/2000/svg"><g fill="none" stroke="#1e8bcd" stroke-linecap="round" stroke-width="1" transform="matrix(-1 0 0 1 38.028484 -16.0101)"><path d="m14.56711 22.5101h13.975616"/><path d="m25.528484 19.5101 3 3-3 3" stroke-linejoin="round"/></g><path d="m3.5 13c-.277 0-.5.223-.5.5v13c0 .277.223.5.5.5h8c.277 0 .5-.223.5-.5v-13c0-.277-.223-.5-.5-.5zm.5 1h7v12h-7z" fill="#3a3a38"/><path d="m4 14h7v12h-7z" fill="#fafafa"/><path d="m21.5 13c-.277 0-.5.223-.5.5v15c0 .277.223.5.5.5h8c.277 0 .5-.223.5-.5v-15c0-.277-.223-.5-.5-.5zm.5 1h7v14h-7z" fill="#3a3a38"/><path d="m22 14h7v14h-7z" fill="#fafafa"/><path d="m20.5 3.5 3 3-3 3" fill="none" stroke="#1e8bcd" stroke-linecap="round" stroke-linejoin="round"/><g fill="#1e8bcd"><rect height="26" ry=".5" width="1" x="7" y="4"/><rect height="26" ry=".5" width="1" x="25" y="4"/></g></svg>