<svg viewBox="0 0 32 32" xmlns="http://www.w3.org/2000/svg"><g fill="#3a3a38"><path d="m7 3h1v26h-1z"/><path d="m24 3h1v26h-1z"/><path d="m3.5 12c-.277 0-.5.223-.5.5v13c0 .277.223.5.5.5h8c.277 0 .5-.223.5-.5v-13c0-.277-.223-.5-.5-.5zm.5 1h7v12h-7z"/></g><path d="m4 13h7v12h-7z" fill="#fafafa"/><path d="m20.5 14c-.277 0-.5.223-.5.5v11c0 .277.223.5.5.5h8c.277 0 .5-.223.5-.5v-11c0-.277-.223-.5-.5-.5zm.5 1h7v10h-7z" fill="#3a3a38"/><path d="m21 15h7v10h-7z" fill="#fafafa"/><path d="m11.515625 3c-.125183-.0077-.258789.03681-.376953.1542969l-2.904297 2.90625c-.141888.136779-.236365.2580991-.234375.4394531-.00199.181354.092487.3026741.234375.4394531l2.904297 2.90625c.472655.4699509 1.177734-.2390333.705078-.7089843l-2.1289062-2.1328126 6.2851562.0039062v-1.0078124l-6.2851562-.0039062 2.1289062-2.1328126c.354492-.352463.047424-.8401112-.328125-.8632812z" fill="#1e8bcd"/><path d="m20.484344 3c.125183-.0077.258789.03681.376953.1542969l2.904297 2.90625c.141888.136779.236365.2580991.234375.4394531.002.181354-.09249.3026741-.234375.4394531l-2.904297 2.90625c-.472655.4699509-1.177734-.2390333-.705078-.7089843l2.128906-2.1328126-6.285125.0039062v-1.0078124l6.285125-.00391-2.128906-2.1328126c-.354492-.3524592-.047424-.8401074.328125-.8632774z" fill="#1e8bcd"/></svg>