<svg height="32" viewBox="0 0 8.4666665 8.4666669" width="32" xmlns="http://www.w3.org/2000/svg"><path d="m2 6v14h12v-7.486328c.000236-.794325.725212-1.516462 1.519531-1.513672a1.002175 1.002175 0 0 0 .001953 0c.351903.001717.700098.130123.96875.357422a1.002175 1.002175 0 0 0 .001954 0l10.205078 8.642578h3.302734v-14z" fill="#fafafa" transform="scale(.26458333)"/><path d="m1 5v16h1 12v-1h-12v-14h28v14h-3.302734l1.18164 1h2.121094 1v-16h-1-28z" fill="#3a3a38" stroke-width=".942809" transform="scale(.26458333)"/><path d="m14 7v5.513672c.000219-.735447.623114-1.402495 1.345703-1.496094v-4.017578zm-4.6660156 3.265625c-.5812553 0-1.110563.099976-1.5898438.298828-.4741819.193751-.9170809.489014-1.3300781.886719l.2441406.427734c.0407902.071385.0938731.129901.1601563.175782.0662831.045879.1445505.070312.2363281.070312.1172708 0 .2335311-.04145.3457031-.123047.1172708-.081567.2540488-.170688.4121094-.267578.1580607-.096861.344447-.185981.5585938-.267578.2192453-.081597.486613-.123047.8027343-.123047.474182 0 .8333859.147626 1.0781249.443359.249838.290622.375.72734.375 1.308594v.574219c-.8463892.020394-1.5593696.098669-2.1406249.236328-.5812553.132568-1.0540057.305386-1.4160156.519531-.3620098.214146-.62395.459037-.7871094.734375-.1580606.270228-.2363281.553886-.2363281.84961 0 .336521.0530829.629073.1601562.878906.1121722.244742.2625189.450885.4511719.61914.1937519.163147.4142247.285591.6640625.367188.2549365.076467.5277317.115234.8183594.115234.2804301 0 .5388959-.02516.7734375-.076172.2345416-.045879.4542539-.117953.6582031-.214843.2039493-.096871.3965236-.213893.5800784-.351563.188653-.14276.380467-.303964.574218-.482422l.167969.697266c.025494.127507.075102.211204.146485.251953.071382.040749.17212.060547.304687.060547h.597656v-4.779297c0-.42319-.05851-.807583-.175781-1.154297-.112172-.346714-.278801-.644688-.498047-.894531-.219245-.249833-.49204-.44165-.818359-.574219-.326319-.137669-.6990917-.207031-1.1171876-.207031zm8.4140626.015625c-.509873 0-.960913.106167-1.353516.320312-.225294.119961-.431863.272793-.628906.44336.263974.045917.519583.139033.724609.3125a1.002175 1.002175 0 0 0 .001954 0l.121093.101562c.212285-.069347.436712-.115234.683594-.115234.60165 0 1.064306.214287 1.390625.642578.278528.365573.431703.916101.472656 1.63086l1.34961 1.142578c.032805-.259808.052734-.529537.052734-.814454 0-.571061-.066651-1.082563-.199219-1.53125-.127468-.453786-.313854-.838179-.558593-1.154296-.244741-.316128-.540006-.558307-.886719-.726563-.346714-.168256-.73653-.251953-1.169922-.251953zm7.257812 0c-.540465 0-1.019404.097264-1.4375.291016-.412998.18865-.763299.453308-1.048828.794922-.28043.341622-.494714.750428-.642578 1.224609-.147862.46908-.220703.981351-.220703 1.537109 0 .611851.078267 1.157437.236328 1.636719.032736.095139.077737.174368.115234.263672l2.242188 1.898437c.175984.031234.354727.054688.541016.054688.254937 0 .505261-.022479.75-.06836.249838-.045909.489307-.115271.71875-.207031.229443-.09687.443727-.216604.642578-.359375.19885-.147861.379809-.320679.542968-.519531l-.390624-.490234c-.061187-.086728-.142166-.128907-.244141-.128907-.091777 0-.1809.036815-.267578.113282-.081581.076496-.186985.162146-.314453.253906-.127469.091789-.284003.175486-.472657.251953-.188652.076467-.430835.115234-.726562.115234-.305923 0-.581433-.061217-.826172-.183593-.244739-.127468-.453596-.311141-.626953-.550782-.173352-.239641-.30937-.534145-.40625-.880859-.09178-.351805-.136719-.750523-.136719-1.199219 0-.433392.042228-.825161.128906-1.171875.091778-.346714.222367-.639275.390625-.878906.173357-.244742.387642-.431127.642578-.558594.260037-.132568.558015-.199219.894532-.199219.254936 0 .469221.030624.642578.091797.178455.061203.328803.130565.451172.207032.122372.071395.225063.138045.30664.199218.081575.061174.159842.091797.236328.091797.071388 0 .124469-.013606.160157-.039062.040788-.030686.082258-.072864.123047-.128906l.351562-.490235c-.295727-.305925-.635173-.542681-1.017578-.710937-.382405-.173357-.828017-.259766-1.337891-.259766zm-14.378906 4.228516v1.544922c-.147863.152962-.29821.294407-.451172.421874-.147863.122318-.306351.225773-.4746091.3125-.1682582.081589-.3465032.145527-.5351563.191407-.1886529.04588-.3947964.068359-.6191406.068359-.1682582 0-.3267462-.019797-.4746094-.060547-.1478632-.04584-.2757391-.11249-.3828125-.199219-.1070736-.091769-.1934825-.206079-.2597656-.34375-.0611851-.14276-.0917969-.310154-.0917969-.503906 0-.203953.0585106-.387616.1757813-.550781.1172708-.168256.3063709-.315134.5664062-.4375.2651341-.122317.6072946-.217627 1.0253907-.289063.4180959-.076515.9249332-.12884 1.5214842-.154296z" transform="matrix(.26458333438 0 0 .26458333438 .00000017535 .00000179344)"/><g fill-rule="evenodd" transform="scale(.26458333)"><path d="m15.515625 12.001953a.51187412.51187412 0 0 0 -.513672.511719v17.857422a.51187412.51187412 0 0 0 .886719.347656l3.640625-3.9375 1.919922 4.082031-.01953-.04687c.197909.561415.669926.930052 1.171874 1.082032.501949.151979 1.045418.125671 1.546876-.03711.501457-.162781.97151-.469805 1.269531-.943359s.382499-1.114693.152343-1.767578a.51187412.51187412 0 0 0 -.01562-.03906l-2.273443-5.099617h5.205078a.51187412.51187412 0 0 0 .330078-.902344l-12.972656-10.986328a.51187412.51187412 0 0 0 -.328125-.121094z" fill="#3a3a38"/><path d="m16 13.5625v15.566406l3.3125-3.582031a.48637676.48637676 0 0 1 .796875.123047l2.242187 4.769531a.48637676.48637676 0 0 1 .01953.04492c.08516.241575.250782.377613.519531.458984.268749.08137.628758.07278.949219-.03125.32046-.104026.590604-.296939.734375-.52539s.20028-.491291.05469-.904297l-2.580078-5.785156a.48637676.48637676 0 0 1 .44336-.683594h4.667968z" fill="#fafafa"/></g></svg>