<svg viewBox="0 0 32 32" xmlns="http://www.w3.org/2000/svg"><path d="m3.5 3.5v19h5v6l7-6h3.195312c2.325259-2.323637 4.648006-4.65046 6.978516-6.953125.355922-.355468.84009-.546875 1.316406-.546875.476373 0 .958984.186047 1.320313.546875l.189453.189453v-12.236328z" fill="#fafafa" fill-rule="evenodd"/><path d="m3.5 3c-.2761309.0000276-.4999724.2238691-.5.5v19c.0000276.276131.2238691.499972.5.5h4.5v5.5c.0001407.427572.5020444.657759.8261719.378906l6.8593751-5.878906h2.507812c.334524-.334322.669491-.665882 1.003907-1h-3.697266c-.119714.00002-.235448.04299-.326172.121094l-6.173828 5.291015v-4.912109c-.0000276-.276131-.2238691-.499972-.5-.5h-4.5v-18h24v11.298828c.11034.07083.214852.152485.310547.248047l.689453.6875v-12.734375c-.000028-.2761309-.223869-.4999724-.5-.5z" fill="#3a3a38" fill-rule="evenodd"/><g fill="#fb983b" transform="matrix(1.1667513 0 0 1.1666667 3.165736 3.166667)"><path d="m25.623047 17-8.513672 8.490234-1.109375 4.509766 4.441406-1.179688 7.308594-7.294921-3.322266-3.324219 1.199219-1.197266zm-1.197266 2.519531 2.003907 2.00586-5.751954 5.738281-2.009765-2.009766zm-6.464843 6.441407 2.009765 2.009765-.01172.01172-2.675781.710937.669922-2.726562z" fill="#0063b1" transform="matrix(.85708068 0 0 .85714283 -2.713291 -2.714286)"/><path d="m26.990234 16c-.221171 0-.439899.08465-.609375.253906l-1.953125 1.947266 3.322266 3.324219 1.996094-1.91211c.338948-.338481.338948-.88222 0-1.220703l-2.142578-2.138672c-.169476-.169241-.39211-.253906-.613282-.253906zm0 .998047 2.00586 2.003906-1.232422 1.179688-1.978516-1.980469z" fill="#0063b1" transform="matrix(.85708068 0 0 .85714283 -2.713291 -2.714286)"/><g fill="#83beec"><path d="m20.419922 11.855469-1.033203 1.03125 1.695312 1.697265 1.056641-1.011718z"/><path d="m24.425781 19.519531-5.757812 5.734375 2.009765 2.009766 5.751954-5.738281zm-6.464843 6.441407-.0078.0059-.669922 2.726562 2.675781-.710937.01172-.01172z" stroke-width="1.166709" transform="matrix(.85708068 0 0 .85714283 -2.713291 -2.714286)"/></g></g></svg>