<svg viewBox="0 0 32 32" xmlns="http://www.w3.org/2000/svg"><path d="m15.634766 3v9.822266l1.365234-1.365235v-2.9160154c.263867-.3621694.553536-.6412843.869141-.8378906.320778-.1966062.690293-.2949219 1.109375-.2949219.610514 0 1.080983.2177405 1.412109.6523438.331127.4346033.498047 1.1122579.498047 2.0332031 0 .993379-.186077 1.740323-.558594 2.242188-.10187.137242-.219354.25173-.345703.351562l.726563.726562a1.0017878 1.0017878 0 0 1 .128906.158204c.214289-.157733.414006-.335541.583984-.552735.279388-.362169.49449-.795011.644531-1.296875.150042-.501863.22461-1.060093.22461-1.675781 0-.5794709-.066652-1.0974356-.201172-1.5527344-.129347-.4604725-.318062-.8510963-.566406-1.171875-.248345-.3207786-.548569-.5655911-.900391-.7363281-.351821-.170737-.747723-.2558594-1.1875-.2558594-.517385 0-.976613.1088703-1.375.3261719-.398386.2121278-.752069.5017973-1.0625.8691406v-4.5253906zm-4.734375 3.3144531c-.589819 0-1.1288931.1009543-1.6152348.3027344-.4811678.1966063-.9305275.4968304-1.3496093.9003906l.2480469.4335938c.0413906.0724338.0968026.1311698.1640624.1777343.0672602.0465648.1471052.0703126.2402344.0703126.1189986-.0000002.2357847-.0402654.3496094-.1230469.1189985-.0827816.2575793-.1731813.4179688-.2714844.1603891-.0983031.3491045-.1887028.5664062-.2714844.222475-.0827815.493674-.125.814453-.125.481168 0 .847359.1491356 1.095703.4492188.253519.2949094.378906.7383062.378907 1.328125v.5820312c-.85886.0206954-1.582055.1005412-2.171876.2402339-.5898174.134522-1.068203.310043-1.4355464.527344-.3673432.217302-.6352181.466706-.8007812.746094-.1603894.274214-.2402344.561245-.2402344.861328 0 .341474.0554117.63906.1640625.892578.1138247.248345.2655987.45817.4570313.628906.1966061.165564.4222626.288314.6757812.371094.2586924.077608.5351687.117188.8300781.117188.2845616 0 .5452059-.026385.7832029-.078125.237997-.046565.461015-.118494.667969-.216797s.403585-.217728.589844-.357422c.191432-.144868.385425-.307197.582031-.488281l.169922.705078c.025869.129344.076003.216419.148437.257812.072434.041394.176027.060547.310547.060547h.605469v-4.8496091c0-.4294295-.06069-.8200533-.179687-1.171875-.113826-.3518218-.281431-.6546847-.503907-.9082031-.222475-.2535187-.498951-.4475112-.830078-.5820313-.331126-.1396939-.708556-.2089844-1.132812-.2089844zm15.902343.015625c-.548428 0-1.034729.0983157-1.458984.2949219-.419082.1914325-.774718.4599928-1.064453.8066406-.284562.3466479-.502303.7610196-.652344 1.2421875-.150042.4759942-.224609.9946445-.224609 1.5585939 0 .620862.079845 1.175767.240234 1.662109.165563.481169.391219.88831.675781 1.22461.289736.331126.62954.585807 1.017579.761718.388038.175911.803096.263672 1.248046.263672.258693 0 .513374-.023746.761719-.070312.253519-.046565.495692-.115855.728516-.208985.232823-.098303.450564-.220367.652343-.365234.20178-.150042.385218-.325564.550782-.527344l-.396485-.496094c-.062086-.087954-.14457-.132812-.248047-.132812-.093129 0-.183528.03958-.271484.117188-.082781.077607-.189013.16273-.318359.255859-.129347.093129-.289037.178251-.480469.255859-.191433.077608-.438198.117188-.738281.117188-.310431 0-.589546-.063328-.837891-.1875-.248345-.129346-.458853-.315423-.634766-.558594-.17591-.243171-.313806-.540757-.412109-.892578-.093129-.356996-.140625-.763451-.140625-1.21875 0-.4397771.044857-.8356784.132813-1.1875001.093129-.3518217.225747-.6494072.396484-.8925781.175911-.2483449.391698-.43706.650391-.5664063.263866-.1345201.566728-.2011719.908203-.2011719.258692 0 .476433.031664.652343.09375.181086.0620862.33286.1313767.457032.2089844.124172.0724341.227765.1390859.310547.2011719.082781.062086.164579.09375.242187.09375.072431 0 .125888-.0131932.16211-.0390625.041388-.0310428.083605-.0739467.125-.1308594l.355468-.4980469c-.300083-.3104309-.643211-.549966-1.03125-.7207031-.388038-.1759108-.840037-.2636719-1.357422-.2636719zm-14.591796 4.2910159v1.568359c-.150043.155215-.301816.296435-.457032.425781-.150042.124172-.309733.230404-.480468.31836-.170739.08278-.35349.146792-.544922.193359s-.399303.070313-.626954.070313c-.1707357 0-.3323798-.021107-.4824214-.0625-.1500416-.046565-.2780679-.113217-.3867187-.201172-.1086509-.09313-.198365-.209916-.265625-.34961-.062086-.144867-.0917969-.315112-.0917969-.511718 0-.206954.0587358-.393031.1777344-.558594.1189985-.170737.3103525-.319187.5742187-.44336.2690404-.12417.6167599-.222487 1.0410159-.294921.424256-.077611.937629-.128431 1.542969-.154297z" fill="#1e8bcd" stroke-width=".397352"/><g transform="matrix(.70844275 .70844275 -.70844275 .70844275 14.335084 -4.296809)"><path d="m14 9h3v21h-3z" fill="#3a3a38"/><path d="m15 10h1v5h-1z" fill="#fafafa"/></g></svg>