<svg viewBox="0 0 32 32" xmlns="http://www.w3.org/2000/svg"><path d="m20.791016 3.0078125a14 13 0 0 0 -13.400391 9.9921875h-4.390625v1h4.1679688a14 13 0 0 0 -.1679688 2 14 13 0 0 0 .0546875 1h-4.0546875v1h4.1855469a14 13 0 0 0 13.6289061 10.992188c2.150861-.02607 4.26646-.513874 6.179688-1.4375l-.464844-1.203126c-1.807849.882938-3.819971 1.345024-5.863281 1.347657-6.004139 0-11.0185975-3.890757-12.2949222-9.09961l-.1113282-.599609h.2402344 9.5v-1h-9.5-.390625l-.0625-1 .0820312-1.300781.1308594-.699219h1.2402344 9.5v-1h-9.5-1.0117188c1.4309379-5.0046624 6.3299528-8.6992188 12.1777348-8.6992188 2.04331.0026401 4.055432.464718 5.863281 1.3476563l.470703-1.2148437c-1.922552-.9242278-4.049209-1.4068371-6.208984-1.4257813z" fill="#1e8bcd"/></svg>