<svg viewBox="0 0 32 32" xmlns="http://www.w3.org/2000/svg"><g transform="matrix(0 -1 1 0 -1 32.0101)"><g fill="#1e8bcd"><rect height="14.5" ry=".5" width="1.0101" x="6" y="6"/><path d="m13 5.9902344a9 9 0 0 0 -9 8.9999996 9 9 0 0 0 9 9v-.990234a8 8 0 0 1 -8-8 8 8 0 0 1 8-8z" transform="matrix(0 -1 1 0 .0101 33)"/><rect height="14.5" ry=".5" width="1.0101" x="23" y="6.5"/><path d="m18.0101 11.490234c0 .127809.04855.255581.146484.353516.195869.195868.513116.195868.708985 0l4.148437-4.130859v12.792968c0 .275669.220946.49787.496094.5v-.0059c.275148-.0021.496094-.224331.496094-.5v-12.792928l4.148437 4.13086c.195869.195868.513116.195868.708985 0 .09793-.09794.146484-.225707.146484-.353516 0-.127808-.04855-.257539-.146484-.355469l-5.003907-4.982422c-.04701-.04702-.103235-.08408-.166015-.109375-.056743-.02287-.118604-.036569-.183594-.037109v.0059c-.06499.00054-.126851.01424-.183594.03711-.06278.0253-.119002.06236-.166015.109375l-5.003907 4.982381c-.09793.09793-.146484.22766-.146484.355468z"/></g><path d="m15 1v3h1v-3h-.5zm0 8v22h.5.5v-22z" fill="#3a3a38" transform="matrix(0 -1 1 0 .0101 33)"/></g></svg>