<svg viewBox="0 0 32 32" xmlns="http://www.w3.org/2000/svg"><path d="m16.5 6c-4.142134 0-7.5 3.357866-7.5 7.5 0 1.922702.7303186 3.670706 1.919922 4.998047l-.00586.001953c1.085939 1.255539 2.056401 1.951342 2.085938 3.25-.00068.07695-.004599.153844-.011719.230469l.011719.019531h1 5 1l.011719-.019531c-.00712-.076625-.011039-.153519-.011719-.230469.029537-1.298658 1-1.994461 2.085938-3.25l-.00586-.001953c1.189604-1.327341 1.919922-3.075345 1.919922-4.998047 0-4.142134-3.357865-7.5-7.5-7.5z" fill="#fb983b"/><g fill="#ed8733" transform="translate(0 -2)"><rect height="5" rx=".5" width="1" x="16" y="2"/><rect height="5" rx=".5" transform="rotate(90)" width="1" x="15" y="-30"/><rect height="5" rx=".5" transform="rotate(90)" width="1" x="15" y="-8"/><g transform="matrix(.70710678 .70710678 -.70710678 .70710678 15.792893 -7.127417)"><rect height="5" rx=".5" width="1" x="16" y="2"/><rect height="5" rx=".5" width="1" x="16" y="24"/><g transform="rotate(90)"><rect height="5" rx=".5" width="1" x="15" y="-30"/><rect height="5" rx=".5" width="1" x="15" y="-8"/></g></g><path d="m13 22v2 1 2h7v-2-1-2zm1 1h5v1h-5zm0 2h5v1h-5z" fill="#3a3a38" fill-opacity=".946565" transform="translate(0 2)"/><path d="m14 23v1h5v-1zm0 2v1h5v-1z" fill="#fafafa" fill-opacity=".950382" transform="translate(0 2)"/><path d="m13 30 .5 1h6l.5-1z" fill="#3a3a38"/></g><path d="m16.5 6.9804688c-3.612394 0-6.5195313 2.9071374-6.5195312 6.5195312 0 1.674489.6327042 3.186439 1.6699222 4.34375a.98029861.98029861 0 0 1 .06055.07617c.000633.000722.0013.0012.002.002.488164.556464.982102 1.025757 1.416015 1.585937.307126.396499.429818.969554.580078 1.511719h.290966 5 .291016c.150261-.542164.272952-1.11522.580078-1.511719.434475-.560906.929183-1.03047 1.417968-1.58789a.98029861.98029861 0 0 1 .06055-.07617c1.037219-1.157282 1.669919-2.669294 1.669919-4.343797 0-3.612394-2.907136-6.5195312-6.519531-6.5195312z" fill="#f8db8f"/></svg>