<svg viewBox="0 0 32 32" xmlns="http://www.w3.org/2000/svg"><path d="m6 3 .00238 23h19.99762l.00002-16-7-7z" fill="#fafafa"/><path d="m5.9976202 2c-.554 0-1.0000599.446-1 1l.00238 22c.0000599.554.446 1 1 1h19.9999998c.554 0 .892483-.456533 1-1l-.0024-6.109375v-10.5052752l-6.508062-6.3853498zm0 1h12.9999998v6c0 .6726441.491378 1 1 1h6l.00238 15h-19.9999998z" fill="#3a3a38"/><path d="m20 9h6l-6-6z" fill="#fafafa" fill-rule="evenodd"/><rect fill="#1e8bcd" height="2" ry=".966102" width="21" x="6" y="28"/></svg>