<svg viewBox="0 0 32 32" xmlns="http://www.w3.org/2000/svg"><path d="m6 3v15h.7167969.7832031a1.0001 1.0001 0 0 1 .9863281.835938l.2226563 1.332031 1.0976562-.785157a1.0001 1.0001 0 0 1 1.2871094.105469l.554688.552735a1.0001 1.0001 0 0 0 .001953.001953l.859375.861328a1.0001 1.0001 0 0 1 .107422 1.289062l-.785157 1.097657 1.332031.222656a1.0001 1.0001 0 0 1 .835938.986328v1.216797.783203a1.0001 1.0001 0 0 1 -.835938.986328l-1.332031.222656.785157 1.097657a1.0001 1.0001 0 0 1 .107421.193359h13.275391v-20.640625l-6-5.359375z" fill="#fafafa"/><path d="m6 2c-.554 0-1 .446-1 1v15.136719a1.0001 1.0001 0 0 1 .5-.136719h.5v-15h13v6c0 .554.446016 1.004232 1 1h6v19h-13.275391a1.0001 1.0001 0 0 1 -.132812 1h13.408203c.554 0 1-.446 1-1v-18.109375-1.640625-.2089844c0-.4506797.098038-.4254121-.605469-1.0664062l-5.30664-5.2382813c-.709525-.7368575-1.477331-.7363281-1.09375-.7363281h-.332032-.662109z" fill="#3a3a38"/><path d="m20 9h6l-6-6z" fill="#fafafa" fill-rule="evenodd"/><path d="m21.087884 13.982422c-.192735.366938-.377936.759081-.867187 1-.485545.240918-.662384.177734-1.210938.177734v.822266c.496663 0 .660385.0763 1.171875-.138672.515196-.214974.685127-.554647.822266-.84375l-.0039 5h-1.9961v1h1.994141 1.005859 2v-1h-2l.0059-6.017578z" fill="#ed3d3b"/><g fill-opacity=".992647"><path d="m8.6816406 20 .0273438.167969.234375-.167969zm2.9257814 0 .041016.041016a1.0001 1.0001 0 0 0 .001953.001953l.859375.861328a1.0001 1.0001 0 0 1 .082031.095703h5.408203v-1z" fill="#c8c6c4"/><path d="m12.724609 22a1.0001 1.0001 0 0 1 -.107421.193359l-.576172.806641h11.958984v-1z" fill="#c8c6c4"/><path d="m13.863281 24a1.0001 1.0001 0 0 1 .136719.5v.5h10v-1z" fill="#c8c6c4"/><path d="m14 26v.5a1.0001 1.0001 0 0 1 -.134766.5h10.134766v-1z" fill="#ed3d3b"/></g><path d="m5.5 19-.371094 2.228516a4.5 4.5 0 0 0 -.683594.279296l-1.833984-1.310546-.861328.859375-.552734.554687 1.3125 1.835938a4.5 4.5 0 0 0 -.289063.68164l-2.220703.371094v1.216797.783203l2.228516.371094a4.5 4.5 0 0 0 .279296.683594l-1.310546 1.833984.552734.554687.861328.859375 1.835938-1.3125a4.5 4.5 0 0 0 .68164.289063l.371094 2.220703h1.216797.783203l.371094-2.228516a4.5 4.5 0 0 0 .683594-.279296l1.833984 1.310546.554687-.552734.859375-.861328-1.3125-1.835938a4.5 4.5 0 0 0 .289063-.68164l2.220703-.371094v-.783203-1.216797l-2.228516-.371094a4.5 4.5 0 0 0 -.279296-.683594l1.310546-1.833984-.859375-.861328-.554687-.552734-1.835938 1.3125a4.5 4.5 0 0 0 -.68164-.289063l-.371094-2.220703h-.783203zm.605469 1h.789062l.353516 2v.08984a3.5 3.5 0 0 1 1.136719.466797l.06055-.06055 1.664063-1.164063.558594.558594-1.164063 1.664063-.0625.0625a3.5 3.5 0 0 1 .470703 1.134765h.087887l2 .353516v.789062l-2 .353516h-.08984a3.5 3.5 0 0 1 -.466797 1.136719l.06055.06055 1.164063 1.664063-.558594.558594-1.664063-1.164063-.0625-.0625a3.5 3.5 0 0 1 -1.134765.470703v.087894l-.353516 2h-.789062l-.353516-2v-.08984a3.5 3.5 0 0 1 -1.136719-.466797l-.06055.06055-1.664063 1.164063-.558594-.558594 1.164063-1.664063.0625-.0625a3.5 3.5 0 0 1 -.470706-1.134772h-.087891l-2-.353516v-.789062l2-.353516h.08984a3.5 3.5 0 0 1 .466797-1.136719l-.06055-.06055-1.164063-1.664063.558594-.558594 1.664063 1.164063.0625.0625a3.5 3.5 0 0 1 1.134765-.470703v-.087887zm.394531 3a2.5 2.5 0 0 0 -2.5 2.5 2.5 2.5 0 0 0 2.5 2.5 2.5 2.5 0 0 0 2.5-2.5 2.5 2.5 0 0 0 -2.5-2.5zm0 1a1.5 1.5 0 0 1 1.5 1.5 1.5 1.5 0 0 1 -1.5 1.5 1.5 1.5 0 0 1 -1.5-1.5 1.5 1.5 0 0 1 1.5-1.5z" fill="#1e8bcd"/><path d="m6.105469 20h.789062l.353516 2v.08984c.40347.08734.788306.245379 1.136719.466797l.06055-.06055 1.664063-1.164063.558594.558594-1.164063 1.664063-.0625.0625c.222578.347545.381933.731717.470703 1.134765h.087887l2 .353516v.789062l-2 .353516h-.08984c-.08734.40347-.245379.788306-.466797 1.136719l.06055.06055 1.164063 1.664063-.558594.558594-1.664063-1.164063-.0625-.0625c-.347545.222578-.731717.381933-1.134765.470703v.087894l-.353516 2h-.789062l-.353516-2v-.08984c-.40347-.08734-.788306-.245379-1.136719-.466797l-.06055.06055-1.664063 1.164063-.558594-.558594 1.164063-1.664063.0625-.0625c-.222581-.347552-.381936-.731724-.470706-1.134772h-.087891l-2-.353516v-.789062l2-.353516h.08984c.08734-.40347.245379-.788306.466797-1.136719l-.06055-.06055-1.164063-1.664063.558594-.558594 1.664063 1.164063.0625.0625c.347545-.222578.731717-.381933 1.134765-.470703v-.087887zm.394531 3c-1.380712 0-2.5 1.119288-2.5 2.5s1.119288 2.5 2.5 2.5 2.5-1.119288 2.5-2.5-1.119288-2.5-2.5-2.5z" fill="#fafafa"/></svg>