<svg viewBox="0 0 32 32" xmlns="http://www.w3.org/2000/svg"><path d="m4 8h24v20h-24z" fill="#fafafa"/><path d="m3 5v1 2 20c0 .554.446 1 1 1h24c.554 0 1-.446 1-1v-20-2-1h-1-24zm1 3h24v20h-16.613281-1.5625002-5.8242188z" fill="#3a3a38"/><path d="m3 4h26v4h-26z" fill="#0063b1" stroke-width="1.154701"/><path d="m15.426312 13.955913q0 .655004-.224298 1.192443-.2243.537439-.603883.915325-.370956.377887-.862689.587824-.491732.201539-1.026599.201539-.586629 0-1.086988-.201539-.491733-.209937-.854062-.587824-.362329-.377886-.569374-.915325-.198419-.537439-.198419-1.192443 0-.680196.198419-1.226032.207045-.545836.569374-.93212.362329-.386284.854062-.587824.500359-.209937 1.086988-.209937.586628 0 1.086988.209937.500359.20154.862689.587824.362329.386284.560747.93212.207045.545836.207045 1.226032zm-1.69087 0q0-.453464-.07764-.755773-.07764-.302309-.215672-.487054-.13803-.184744-.327822-.260322-.189791-.08398-.405463-.08398-.224299 0-.405464.08398-.181165.07558-.319195.260322-.13803.184745-.215672.487054-.06902.302309-.06902.755773 0 .436669.06902.730581.07764.293912.215672.470259.13803.176348.319195.251924.181165.07557.405464.07557.215672 0 .405463-.07557.189792-.07557.327822-.251924.13803-.176347.215672-.470259.07764-.293912.07764-.730581zm8.264558 6.138559q0 .655003-.224299 1.192442-.224299.537438-.603882.923723-.370956.377887-.862689.587823-.491733.20154-1.035226.20154-.586628 0-1.078361-.20154-.491732-.209936-.854061-.587823-.36233-.386285-.569376-.923723-.198418-.537439-.198418-1.192442 0-.680197.198418-1.226032.207046-.545837.569376-.932121.362329-.386284.854061-.587824.491733-.209936 1.078361-.209936.595255 0 1.095615.209936.500359.20154.862688.587824.362329.386284.560748.932121.207045.545835.207045 1.226032zm-1.69087 0q0-.445067-.07764-.747376-.07764-.30231-.224298-.487054-.138031-.184745-.327822-.260321-.189792-.08398-.405464-.08398-.215673 0-.396837.08398-.181165.07557-.319195.260321-.129403.184744-.207045.487054-.07764.302309-.07764.747376 0 .436669.07764.73058.07764.293913.207045.470259.13803.176347.319195.251925.181164.07557.396837.07557.215672 0 .405464-.07557.189791-.07558.327822-.251925.146657-.176346.224298-.470259.07764-.293911.07764-.73058zm-7.168943 2.158152q-.224299.352695-.491732.478657-.258807.125962-.603883.125962h-.931703l7.341481-11.042687q.215672-.335899.483106-.512247.27606-.184744.664269-.184744h.940331z" fill="#3a3a38"/><path d="m4 5h24v2h-24z" fill="#83beec" stroke-width=".784465"/></svg>