<svg viewBox="0 0 32 32" xmlns="http://www.w3.org/2000/svg"><path d="m6.6972656 3a.97470684.97470684 0 0 0 -.6894531.2851562l-1.7226563 1.7226563a.97470684.97470684 0 0 0 -.2851562.6894531v1.6425782a.97470684.97470684 0 0 0 .203125.5957031l8.822266 11.3984371v5.166016a.97470684.97470684 0 0 0 .390625.779297l3.240234 2.429687 1.386719-4.164062c.079349-.995184.415823-1.9199.93164-2.72461v-1.486328l8.822266-11.3984371a.97470684.97470684 0 0 0 .203125-.5957031v-1.6425782a.97470684.97470684 0 0 0 -.285156-.6894531l-1.722656-1.7226563a.97470684.97470684 0 0 0 -.689454-.2851562zm11.3457034 20.544922c-.004534.056862-.01469.112659-.017578.169922l.048828-.265625z" fill="#3a3a38" fill-rule="evenodd"/><path d="m6.6972656 3.9746094-1.7226562 1.7226562v1.6425782l9.0253906 11.6601562v5.5l2.980469 2.236328 1.019531-3.0625v-4.673828l9.025391-11.6601562v-1.6425782l-1.722657-1.7226562z" fill="#fafafa" fill-rule="evenodd"/><path d="m29.990234 17c-.10416.0013-.205932.01957-.304687.05273l-5.919922 1.970704c-2.516616.12692-4.615266 2.225567-4.742187 4.742187l-1.970704 5.919922c-.257633.780132.481587 1.519352 1.261719 1.261719l5.919922-1.970704c2.516616-.12692 4.615266-2.225567 4.742187-4.742187l1.970704-5.919922c.216004-.650533-.271593-1.319848-.957032-1.314449zm-5.990234 4a3 3 0 0 1 3 3 3 3 0 0 1 -3 3 3 3 0 0 1 -3-3 3 3 0 0 1 3-3z" fill="#1e8bcd"/></svg>