<svg viewBox="0 0 32 32" xmlns="http://www.w3.org/2000/svg"><path d="m30 17c1.5 5.5-2 12-10.5 11.5-2 0-7.44464-.47256-10-4.5-2-3-1.9898489-2.979698-3.5-6 .4929628-1.980021 3.1962671-2.272283 3.5-4.5 0-1-1.4013511-2.668919-2.5-4.5-.1762189-1.6875427-.5813144-3.242514-1.5-4.5v-1c2.4944531-.4208988 4.4821443 0 7 0" fill="none" stroke="#0063b1"/><g fill="#fb983b" transform="matrix(1.1667513 0 0 1.1666667 2.165736 4.166667)"><path d="m19.247728-.14285817-12.4393881 12.42020017-.950824 3.865512 3.806643-1.011161 11.4065391-11.3956448-2.84745-2.84933037 1.027827-1.026228zm-1.026154 2.15959767 1.71751 1.7193087-10.0723731 10.0613818-1.72253-1.722655zm-10.6833761 10.6640625 1.722531 1.722655-.01004.01004-2.293361.609374.574178-2.337052z" fill="#3a3a38" stroke-width=".857112"/><path d="m20.419517-1.0000005c-.189561 0-.377029.072557-.522283.21763366l-1.673986 1.66908467 2.84745 2.84933037 1.710813-1.6389507c.290506-.290127.290506-.7561887 0-1.0463167l-1.836362-1.83314764c-.145254-.1450637-.33607-.21763366-.525632-.21763366zm0 .85546833 1.719184 1.71763367-1.056285 1.011161-1.695748-1.69754467z" fill="#3a3a38" stroke-width=".857112"/><g fill="#fafafa" transform="translate(0 -12)"><path d="m20.419922 11.855469-1.033203 1.03125 1.695312 1.697265 1.056641-1.011718z"/><path d="m24.425781 19.519531-11.757812 11.734375 2.009765 2.009766 11.751954-11.738281zm-12.464843 12.441407-.0078.0059-.669922 2.726562 2.675781-.710937.01172-.01172z" stroke-width="1.166709" transform="matrix(.85708068 0 0 .85714283 -2.713291 -2.714286)"/></g></g></svg>