<svg viewBox="0 0 32 32" xmlns="http://www.w3.org/2000/svg"><g transform="matrix(0 -1 -1 0 32 32)"><path d="m5 5h23v23h-23z" fill="#fafafa"/><path d="m5 4c-.554 0-1 .446-1 1v23c0 .554.446 1 1 1h23c.554 0 1-.446 1-1v-23c0-.554-.446-1-1-1zm0 1h23v23h-23z" fill="#3a3a38"/><path d="m8 5v2h1v12 1h7.876953l.498047-.498047-.501953-.501953h-6.873047v-12h1v-2z" fill="#ed3d3b"/><path d="m15.501953 15.001953c-.127785-.000006-.255581.04855-.353515.146485-.19587.195868-.195917.511211 0 .707031l3.640624 3.646484.002.002-3.642578 3.640625c-.195917.195821-.19587.511164 0 .707031.195868.195869.511114.195822.707031 0l3.642578-3.640624 3.642578 3.640624c.195917.195822.511163.195869.707031 0 .195869-.195867.195917-.51121 0-.707031l-3.642578-3.640625.002-.002 3.640625-3.646484c.195917-.19582.195869-.511163 0-.707031-.195868-.19587-.511114-.195821-.707031 0l-3.640718 3.646484-.002.002-.002-.002-3.640625-3.646484c-.09796-.09791-.225731-.146479-.353516-.146485z" fill="#1e8bcd"/></g></svg>