<svg viewBox="0 0 32 32" xmlns="http://www.w3.org/2000/svg"><path d="m16.499999 8c-4.142134 0-7.499999 3.357865-7.499999 7.499999 0 4.142135 3.357865 7.500001 7.499999 7.500001 4.142135 0 7.500001-3.357866 7.500001-7.500001 0-4.142134-3.357866-7.499999-7.500001-7.499999z" fill="#fb983b"/><g fill="#ed8733"><rect height="5" rx=".5" width="1" x="16" y="2"/><rect height="5" rx=".5" width="1" x="16" y="24"/><rect height="5" rx=".5" transform="rotate(90)" width="1" x="15" y="-30"/><rect height="5" rx=".5" transform="rotate(90)" width="1" x="15" y="-8"/><g transform="matrix(.70710678 .70710678 -.70710678 .70710678 15.792893 -7.127417)"><rect height="5" rx=".5" width="1" x="16" y="2"/><rect height="5" rx=".5" width="1" x="16" y="24"/><g transform="rotate(90)"><rect height="5" rx=".5" width="1" x="15" y="-30"/><rect height="5" rx=".5" width="1" x="15" y="-8"/></g></g></g><path d="m23 15.5a6.5 6.5 0 0 1 -6.5 6.5 6.5 6.5 0 0 1 -6.5-6.5 6.5 6.5 0 0 1 6.5-6.5 6.5 6.5 0 0 1 6.5 6.5z" fill="#f8db8f"/></svg>