<svg viewBox="0 0 32 32" xmlns="http://www.w3.org/2000/svg"><path d="m5 5.995v20.02h.0300781 1.9699219v-9.02h10v9.02l2-.015v-20l-2-.005v9h-10v-9z" fill="#3a3a38" stroke-width=".77"/><path d="m26.737874 22.685661q0 1.594587-.917639 2.549834-.910118.955248-2.504704.955248-1.775106 0-2.730353-1.293721-.955248-1.301243-.955248-3.685601 0-2.617529.992856-4.046639.992856-1.429111 2.798048-1.429111 2.399401 0 3.023697 2.158709l-1.293721.233171q-.398647-1.293721-1.745019-1.293721-1.15081 0-1.790149 1.045507-.639339 1.045507-.639339 2.933437.36856-.684468 1.037985-1.037985.669426-.361039 1.534414-.361039 1.444153 0 2.316663.895075.872509.887553.872509 2.376836zm-1.376459.06017q0-1.083115-.579165-1.684846-.571645-.601731-1.556979-.601731-.556601 0-1.053028.255736-.496428.248214-.78225.699512-.278301.443776-.278301 1.007899 0 1.143288.601731 1.910495.609252.767207 1.556978.767207.955248 0 1.51937-.631818.571644-.631817.571644-1.722454z" fill="#1e8bcd"/></svg>