<svg viewBox="0 0 32 32" xmlns="http://www.w3.org/2000/svg"><path d="m7 3c-.554 0-1 .446-1 1v6 15c0 .554.446 1 1 1h9 3v-4.5-.5h.025391a5.5 5.5 0 0 1 5.474609-5 5.5 5.5 0 0 1 4.5 2.349609v-14.349609c0-.554-.446-1-1-1h-9z" fill="#fafafa"/><path d="m3 25v1h16v-1z" fill="#1e8bcd"/><path d="m5 3h1v26h-1z" fill="#1e8bcd"/><path d="m24.5 17a4.5 4.5 0 0 0 -4.5 4.5v7.5h3v-7.5a1.5 1.5 0 0 1 1.5-1.5 1.5 1.5 0 0 1 1.5 1.5v7.5h3v-7.5a4.5 4.5 0 0 0 -4.5-4.5z" fill="#ed3d3b"/><g fill="#1e8bcd"><path d="m-17 21h-4v2h4z" transform="matrix(.75 0 0 1 35.75 6)"/><path d="m29 27h-3v2h3z" stroke-width=".866025"/></g></svg>