<svg viewBox="0 0 32 32" xmlns="http://www.w3.org/2000/svg"><path d="m29 16a13 13 0 0 1 -13 13 13 13 0 0 1 -13-13 13 13 0 0 1 13-13 13 13 0 0 1 13 13z" fill="#0063b1"/><path d="m28 16a12 12 0 0 1 -12 12 12 12 0 0 1 -12-12 12 12 0 0 1 12-12 12 12 0 0 1 12 12z" fill="#83beec"/><path d="m15.999999 6c-2.946666 0-5.333333 2.3866668-5.333333 5.333333h2.666667c0-1.4666662 1.2-2.6666662 2.666666-2.6666662 1.466667 0 2.666667 1.2 2.666667 2.6666662 0 .733334-.293125 1.400208-.786459 1.880208l-1.653645 1.679688c-.96.973334-1.559896 2.306771-1.559896 3.773438v.666666h2.666667c0-2 .599896-2.800104 1.559896-3.773437l1.20052-1.226563c.76-.76 1.239584-1.826666 1.239584-3 0-2.9466662-2.386667-5.333333-5.333334-5.333333zm-1.333333 17.333333v2.666667h2.666667v-2.666667z" fill="#fafafa"/></svg>