<svg viewBox="0 0 32 32" xmlns="http://www.w3.org/2000/svg"><g transform="translate(0 2)"><path d="m4 11c-.554 0-1 .446-1 1v4c0 .554.446 1 1 1h23c.554 0 1-.446 1-1v-4c0-.554-.446-1-1-1zm0 1h23v4h-23z" fill="#3a3a38"/><path d="m4 12v4h23v-4z" fill="#fafafa"/><g fill="#1e8bcd" fill-rule="evenodd"><path d="m12.000033 6.515625c-.0115-.454318.540283-.686847.857422-.361328l2.144531 2.148437-.0018-7.777343c-.017923-.350177.241538-.525391.500027-.525391s.51795.175214.5.525391l-.0022 7.777343 2.144531-2.148437c.317139-.325519.868926-.09299.857422.361328-.0041.130048-.05875.25337-.152344.34375l-2.912112 2.916016c-.160579.173289-.266359.223009-.435477.224609-.169118-.0016-.274898-.05132-.435547-.224609l-2.912109-2.916016c-.09359-.09038-.148244-.213702-.152344-.34375z"/><path d="m12.000033 21.484375c-.0115.454318.540283.686847.857422.361328l2.144531-2.148437-.0018 7.777343c-.017923.350177.241538.525391.500027.525391s.51795-.175214.5-.525391l-.0022-7.777343 2.144531 2.148437c.317139.325519.868926.09299.857422-.361328-.0041-.130048-.05875-.25337-.152344-.34375l-2.912112-2.916016c-.160579-.173289-.266359-.223009-.435477-.224609-.169118.0016-.274898.05132-.435547.224609l-2.912109 2.916016c-.09359.09038-.148244.213702-.152344.34375z"/></g></g></svg>