<svg viewBox="0 0 32 32" xmlns="http://www.w3.org/2000/svg"><path d="m27.5 17c-.277 0-.5.223-.5.5v3.5c0 1.10457-.89543 2-2 2h-2-5.283203l3.136719-3.144531c.195866-.195855.195866-.513205 0-.708985-.097935-.097889-.225707-.146484-.353516-.146484s-.257537.04859-.355469.146484l-3.992187 4.003907c-.04702.04687-.08409.103275-.109375.166015-.02336.05783-.03711.120981-.03711.1875 0 .06652.01375.129673.03711.1875.02531.06274.06235.11915.109375.166016l3.992187 4.003906c.09793.09827.22766.146484.355469.146484s.255581-.04859.353516-.146484c.195866-.195855.195866-.513205 0-.708984l-3.140625-3.148438h4.792968c.0069 0 .01268-.0036.01953-.0039h.477057 1.997554c.0026.000003.0052.000003.0078 0h.002c1.653028-.0054 2.990212-1.346969 2.9902-3.000006v-3.5c0-.277-.223-.5-.5-.5z" fill="#1e8bcd"/><g fill="#3a3a38"><path d="m11.307012 15.03582q-.20178 0-.310431-.06209-.108651-.06209-.147455-.256106l-.170737-.70623q-.294909.271627-.582058.488929-.2793877.209541-.5898186.356995-.310431.147455-.6674266.217302-.3569955.07761-.7838381.07761-.4423641 0-.8304027-.116412-.3802779-.12417-.6751873-.372515-.2871486-.256106-.4578857-.628623-.1629762-.380278-.1629762-.892489 0-.450125.240584-.861446.2483447-.419082.7993596-.745034.551015-.325952 1.4357431-.527733.8847282-.20954 2.1730165-.240584v-.582058q0-.8847278-.380278-1.3270919-.3725169-.4501248-1.0942689-.4501248-.4811679 0-.8148812.1241723-.3259525.1241724-.5665364.2716271-.240584.1474547-.4190818.2716271-.170737.1241723-.3492348.1241723-.1396939 0-.240584-.069847-.10089-.069847-.1629762-.1784978l-.2483448-.4346032q.6286227-.6053403 1.3503746-.9002497.7295127-.3026702 1.6142409-.3026702.6363834 0 1.1330726.2095409.49669.2017801.830403.582058.333713.3802779.50445.9080105.178498.5277326.178498 1.1718764v4.850484zm-2.8404433-.838163q.341474 0 .6286227-.06985.2871486-.06985.5432541-.19402.2561055-.131933.4811685-.318191.232823-.19402.457885-.426843v-1.567674q-.9080104.0388-1.5443938.155216-.6363834.108651-1.0399437.294909-.3957994.186259-.5742972.442364-.1784978.248345-.1784978.558776 0 .29491.093129.512211.10089.209541.2638663.349235.1629762.131933.3880387.20178.2250624.06209.4811679.06209z" stroke-width=".397352"/><path d="m14 15.03582v-11.03582h1.365896v4.5245309q.465647-.551015 1.063226-.8692067.59758-.3259524 1.373657-.3259524.659666 0 1.187398.2561055.527733.2561055.90025.7372734.372517.481168.566537 1.1718768.20178.6829485.20178 1.5521545 0 .923532-.225063 1.676327-.225062.752796-.644144 1.29605-.419082.535493-1.016661.830402-.59758.29491-1.342614.29491-.745034 0-1.249485-.279388-.496689-.287149-.884728-.791599l-.07761.675187q-.03104.287149-.333714.287149zm3.344893-6.6277007q-.628622 0-1.10979.2949093-.473407.2949094-.869207.8381636v3.6630858q.356996.488928.783838.690708.426843.19402.939054.19402 1.047704 0 1.60648-.752795.558776-.752796.558776-2.242864 0-1.3814178-.49669-2.0333228-.496689-.6519049-1.412461-.6519049z" stroke-width=".397352"/><path d="m27.201076 8.8116795q-.06209.085369-.124173.1319331-.05433.038804-.162976.038804-.116412 0-.240584-.093129-.124172-.093129-.310431-.2017801-.186258-.1164116-.457886-.2095409-.263866-.093129-.651904-.093129-.512212 0-.908011.2017801-.388039.1940194-.651905.5665365-.256105.3647564-.395799.8924888-.131934.527733-.131934 1.187398 0 .682948.139694 1.218442.147455.527732.411321.892489.263867.364757.636384.558776.372517.186259.838163.186259.450125 0 .737274-.116412.287148-.116412.481168-.256105.194019-.139694.318191-.256106.131934-.116412.271628-.116412.155215 0 .248344.131934l.3958.496689q-.248345.30267-.551015.527733-.30267.217301-.651905.364756-.349235.139694-.729513.209541-.372517.06985-.760556.06985-.667426 0-1.249484-.263866-.582058-.263867-1.016661-.760556-.426843-.50445-.675188-1.226203-.240584-.729513-.240584-1.660806 0-.845924.225063-1.559915.225062-.7217519.651905-1.2417237.434603-.5199718 1.063226-.8071205.636383-.2949093 1.459025-.2949093.776077 0 1.358135.2638662.582058.2561056 1.032183.721752z" stroke-width=".397352"/><path d="m11.535791 27.841393q-.144755 0-.23618-.06095-.09142-.06857-.106661-.213324l-.137137-.891388q-.472359.571403-1.0742369.921863-.6018774.35046-1.3942224.35046-.6323522 0-1.1504239-.243798-.510453-.251417-.8761507-.731395-.3656976-.479979-.5637839-1.188518-.1980862-.716158-.1980862-1.645639 0-.82282.2133236-1.531359.2209424-.716158.6323523-1.23423.4114098-.518072.9980499-.815201.5942587-.29713 1.3408914-.29713.6780645 0 1.1580428.228562.479978.220942.853294.63997v-4.121717h1.340892v10.833794zm-2.5141713-.967576q.6323523 0 1.0970933-.28951.472359-.29713.87615-.82282v-3.603646q-.358079-.479978-.777107-.670446-.4190287-.198086-.9294817-.198086-1.0132873 0-1.5618338.739014-.5485465.739014-.5485465 2.110381 0 .723776.1218992 1.241848.1295179.518072.3656977.853294.2361797.327605.5790213.487597.3428415.152374.7771075.152374z"/></g></svg>