<svg viewBox="0 0 32 32" xmlns="http://www.w3.org/2000/svg"><path d="m4 4h23v23h-23z" fill="#fafafa"/><path d="m3 3v25h25v-25zm1 1h23v23h-23z" fill="#3a3a38"/><path d="m28 4v23c0 .554-.446002 1.001335-1 1h-23v1c0 .554.446 1 1 1h24c.554 0 1-.446 1-1v-24c0-.554-.446-1-1-1z" fill="#3a3a38"/><path d="m12 9a3 3 0 0 1 -3 3 3 3 0 0 1 -3-3 3 3 0 0 1 3-3 3 3 0 0 1 3 3z" fill="#ed8733"/><path d="m11 9a2 2 0 0 1 -2 2 2 2 0 0 1 -2-2 2 2 0 0 1 2-2 2 2 0 0 1 2 2z" fill="#f8db8f"/><g stroke-width="1.333333"><path d="m21 16-8 8-2-2-5.4550781 5h21.4550781v-5z" fill="#83beef"/><path d="m21 14.5-8 8-2-2-6.9648438 6.5h1.5097657l5.4550781-5 2 2 8-8 6 6v-1.5z" fill="#0063b1"/></g></svg>