<svg viewBox="0 0 32 32" xmlns="http://www.w3.org/2000/svg"><path d="m12 23v5c0 .554.446 1 1 1h5.5l1.548828-3.099609c-.035909-.130791-.058711-.264441-.058594-.398438-.000395-.449093.205876-.90559.589844-1.199219l-.099609.087891.390625-.390625h-.871094l-2 4h-5v-5z" fill="#3a3a38"/><path d="m13 24v4h5l2-4z" fill="#fafafa"/><path d="m4 3c-.554 0-1 .446-1 1v19c0 .554.446 1 1 1h16.871094l1-1h-17.871094v-19h24v19h-2.105469c-.072601.212851-.176419.416529-.345703.582031l-.412109.41211 2.882812.001953c.544357-.010959.980469-.449019.980469-.996094v-19c0-.554-.446-1-1-1z" fill="#3a3a38"/><path d="m4 4v19h17.871094l1.548828-1.546875c.272961-.27937.644575-.442289 1.035156-.453125.63862-.017513 1.208288.400027 1.427734.917969.138126.326006.135034.720499.011719 1.082031h2.105469v-19z" fill="#fafafa"/><path d="m9 4v4h-5v1h5v4h-5v1h5v4h-5v1h5v4h1v-4h5v4h1v-4h5v4h.871094l.128906-.126953v-3.873047h6v-1h-6v-4h6v-1h-6v-4h6v-1h-6v-4h-1v4h-5v-4h-1v4h-5v-4zm1 5h5v4h-5zm6 0h5v4h-5zm-6 5h5v4h-5zm6 0h5v4h-5z" fill="#797774"/><path d="m3 23v5c0 .554.446 1 1 1h5.5l2.5-5h-1l-2 4h-5v-5z" fill="#3a3a38"/><path d="m4 24v4h5l2-4z" fill="#fafafa"/><path d="m31.001953 25.502c-.00086.251745-.170594.502816-.507812.498047l-7.785157.0059 2.136719 2.134765c.32527.318004.09144.869893-.363281.857422-.12976-.0036-.253031-.05754-.34375-.15039l-2.947266-2.945354c-.131583-.100625-.198034-.250919-.197265-.40039-.000769-.149471.06568-.299765.197265-.400391l2.947266-2.945312c.09072-.09285.21399-.146791.34375-.150391.454721-.01247.688551.539419.363281.857422l-2.136719 2.134766 7.785157.0059c.337218-.0048.506952.246301.507812.498046z" fill="#1e8bcd" fill-rule="evenodd"/></svg>