<svg viewBox="0 0 32 32" xmlns="http://www.w3.org/2000/svg"><g fill="#3a3a38"><path d="m11 15h10v1h-10z"/><path d="m6.5 11c-1.939 0-3.5 1.326032-3.5 2.972656v3.054688c0 1.646624 1.561 2.972656 3.5 2.972656h5c1.939 0 3.5-1.326032 3.5-2.972656v-.027344h-1.046875c-.221521 1.135525-1.411816 2-2.869141 2h-4.1679684c-1.615834 0-2.9160156-1.059654-2.9160156-2.376953v-2.246094c0-1.317299 1.3001816-2.376953 2.9160156-2.376953h4.1679684c1.457325 0 2.64762.864475 2.869141 2h1.046875v-.027344c0-1.646624-1.561-2.972656-3.5-2.972656zm14 0c-1.939 0-3.5 1.326032-3.5 2.972656v.027344h1.046875c.221521-1.135525 1.411816-2 2.869141-2h4.167968c1.615834 0 2.916016 1.059654 2.916016 2.376953v2.246094c0 1.317299-1.300182 2.376953-2.916016 2.376953h-4.167968c-1.457325 0-2.64762-.864475-2.869141-2h-1.046875v.027344c0 1.646624 1.561 2.972656 3.5 2.972656h5c1.939 0 3.5-1.326032 3.5-2.972656v-3.054688c0-1.646624-1.561-2.972656-3.5-2.972656z"/></g></svg>