<svg viewBox="0 0 32 32" xmlns="http://www.w3.org/2000/svg"><path d="m4 11c-.554 0-1 .446-1 1v13c0 .554.446 1 1 1h14c.554 0 1-.446 1-1v-13c0-.554-.446-1-1-1zm0 1h14v13h-14z" fill="#3a3a38"/><path d="m4 12h14v13h-14z" fill="#fafafa"/><path d="m28 11a7 7 0 0 1 -7 7 7 7 0 0 1 -7-7 7 7 0 0 1 7-7 7 7 0 0 1 7 7z" fill="#fafafa"/><path d="m21 3a8 8.0000003 0 0 0 -8 8 8 8.0000003 0 0 0 8 8 8 8.0000003 0 0 0 8-8 8 8.0000003 0 0 0 -8-8zm0 1a7 7 0 0 1 7 7 7 7 0 0 1 -7 7 7 7 0 0 1 -7-7 7 7 0 0 1 7-7z" fill="#3a3a38"/><g fill-rule="evenodd" transform="translate(-.8)"><path d="m19.894531 11.001953a.4049017.4049017 0 0 0 -.28125.117188l-8.49414 8.49414a.4049017.4049017 0 0 0 0 .574219l8.49414 8.492188a.4049017.4049017 0 0 0 .574219 0l8.492188-8.492188a.4049017.4049017 0 0 0 0-.574219l-8.492188-8.49414a.4049017.4049017 0 0 0 -.292969-.117188z" fill="#3a3a38"/><path d="m19.900391 11.996094-7.904297 7.904297 7.904297 7.90039 7.90039-7.90039z" fill="#fafafa"/></g></svg>