<svg viewBox="0 0 32 32" xmlns="http://www.w3.org/2000/svg"><path d="m6 3v26h11v-1h-1.5c-.813703 0-1.5-.686297-1.5-1.5s.686297-1.5 1.5-1.5h1.5v-3h-1.5c-.813703 0-1.5-.686297-1.5-1.5s.686297-1.5 1.5-1.5h1.5v-1.5c0-.813703.686297-1.5 1.5-1.5s1.5.686297 1.5 1.5v1.5h3v-1.5c0-.813703.686297-1.5 1.5-1.5s1.5.686297 1.5 1.5v-9.140625l-6-5.359375z" fill="#fafafa"/><path d="m6 2c-.554 0-1 .446-1 1v26c0 .554.446 1 1 1h11.09375c-.057859-.15757-.09375-.325109-.09375-.5v-.5h-11v-26h13v6c0 .554.446016 1.004232 1 1h6v7.5 1.5h1v-8.109375-1.640625-.2089844c0-.4506797.098038-.4254121-.605469-1.0664062l-5.30664-5.2382813c-.709525-.7368575-1.477331-.7363281-1.09375-.7363281h-.332032-.662109z" fill="#3a3a38"/><path d="m20 9h6l-6-6z" fill="#fafafa" fill-rule="evenodd"/><path d="m18.5 17c-.277 0-.5.223-.5.5v2.5h-2.5c-.277 0-.5.223-.5.5s.223.5.5.5h2.5v5h-2.5c-.277 0-.5.223-.5.5s.223.5.5.5h2.5v2.5c0 .277.223.5.5.5s.5-.223.5-.5v-2.5h5v2.5c0 .277.223.5.5.5s.503797-.223026.5-.5v-2.5h2.5c.277 0 .5-.223.5-.5s-.223-.5-.5-.5h-2.5v-5h2.5c.277 0 .5-.223.5-.5s-.223016-.502973-.5-.5h-2.5v-2.5c0-.277-.223-.5-.5-.5s-.5.223-.5.5v2.5h-5v-2.5c0-.277-.223-.5-.5-.5zm.5 4h5v5h-5z" fill="#1e8bcd"/></svg>