<svg viewBox="0 0 32 32" xmlns="http://www.w3.org/2000/svg"><path d="m4.2382812 3c-.6859074 0-1.2382812.5523738-1.2382812 1.2382812v18.5234378c0 .685907.5523738 1.238281 1.2382812 1.238281h10.5234378c.685907 0 1.238281-.552374 1.238281-1.238281v-18.5234378c0-.6859074-.552374-1.2382812-1.238281-1.2382812zm-.2382812 1h11v19h-11z" fill="#3a3a38"/><path d="m4 4h11v19h-11z" fill="#fafafa"/><path d="m8.2382812 5c-.6859071 0-1.2382812.5523738-1.2382812 1.2382812v18.5234378c0 .685907.5523741 1.238281 1.2382812 1.238281h8.7617188v-1h-9v-19h11v9h1v-8.7617188c0-.6859073-.552374-1.2382812-1.238281-1.2382812z" fill="#3a3a38"/><path d="m8 6v19h9v-10h2v-9z" fill="#fafafa"/><path d="m12.238281 7c-.685907 0-1.238281.5523738-1.238281 1.2382812v18.5234378c0 .685907.552374 1.238281 1.238281 1.238281h4.761719v-1h-5v-19h11v7h1v-6.7617188c0-.6859073-.552374-1.2382812-1.238281-1.2382812z" fill="#3a3a38"/><path d="m12 8v19h5v-12h6v-7z" fill="#fafafa"/><g fill="#1e8bcd" transform="matrix(1.3333333 0 0 1.3333333 -3 -1.666667)"><path d="m19.5 16.500001h.750001v5h-.750001z"/><g fill="#1e8bcd" fill-opacity=".992647"><path d="m21.750001 13.25-.000001.75h1.500001v8.250001h-1.5l-.000001.749999h2.25l.000001-.749999-.000001-8.250001.000001-.75z"/><path d="m18 13.25v.75h-1.5l.000001 8.250001h1.499999v.749999h-2.25l.000001-.749999-.000001-8.250001.000001-.75z"/><path d="m20.25 15.125a.375.375 0 0 1 -.375.375.375.375 0 0 1 -.375-.375.375.375 0 0 1 .375-.375.375.375 0 0 1 .375.375z"/></g></g></svg>