<svg viewBox="0 0 32 32" xmlns="http://www.w3.org/2000/svg"><path d="m6 3v26h10v-13c0-1.090703.909297-2 2-2 .534088 0 1.017278.229481 1.378906.580078.261798-.341429.639252-.587078 1.148438-.580078.24625.003229.475059.073014.666015.177734h.001953l4.804688 2.63086v-6.808594l-7-7zm19.998047 20.791016-4.935547 2.09375c-.364441.155082-.718555-.038173-1.0625-.181641v3.296875h5.998047z" fill="#fafafa"/><path d="m5.9980469 2c-.554 0-1 .446-1 1v26c0 .554.446 1 1 1h10.0019531v-1h-10.0019531v-26h13.0000001v6c0 .6726441.491378 1 1 1h6v6.806641l1 .548828v-8.9707034l-6.507813-6.3847656zm21.0000001 21.367188-1 .423828v5.208984h-5.998047v1h5.998047c.554 0 .892483-.456533 1-1z" fill="#3a3a38"/><path d="m20 9h6l-6-6z" fill="#fafafa" fill-rule="evenodd"/><path d="m20.513641 15.000039c-.282697-.0039-.513491.281395-.513641.634749v8.73025c.000364.434941.342414.740751.671834.600571l8.985781-3.810939c.436842-.188435.46197-.948776.03905-1.181612l-8.983823-4.919309c-.06283-.03454-.130575-.05281-.199206-.05371z" fill="#0063b1"/><rect fill="#3a3a38" height="16" ry="1" width="2" x="17" y="15"/><path d="m21 16.351562v7.388672l7.605469-3.224609z" fill="#83beec"/></svg>