<svg viewBox="0 0 32 32" xmlns="http://www.w3.org/2000/svg"><path d="m11 3h-5v8 18h19.998047l.002-19-7-7z" fill="#fafafa"/><path d="m5.4882812 2c-.2703603 0-.4882812.2179209-.4882812.4882812v.0234376 8.4882812h-.0019531v18c0 .554.446 1 1 1h20.0000001c.554 0 .892483-.456533 1-1v-10.109375-10.5058594l-6.507813-6.3847656h-8.978515-.511719-5.4882812zm.5117188 1h5 .511719 7.486328v6c0 .6726441.491378 1 1 1h6v19h-20.0000001v-17.478516c.0000703-.003428.0019531-.00632.0019531-.009765z" fill="#3a3a38"/><path d="m20 9h6l-6-6z" fill="#fafafa" fill-rule="evenodd"/><g fill="#1e8bcd"><rect height="2" ry=".915254" width="12" x="10" y="15"/><rect height="1" ry=".466102" width="8" x="12" y="19"/></g></svg>