<svg viewBox="0 0 32 32" xmlns="http://www.w3.org/2000/svg"><g transform="matrix(0 1 -1 0 32 0)"><path d="m5 3c-.554 0-1 .446-1 1v15.998047h1v-3.998047-1-5-1-5h3 1 4 1 1.166016 2.833984.71875.28125 4 1 4v3 2 1 1 4 1 5 1 5h-4-1-4-1.166016-1.335937-1.498047-.71875-.28125-1-4-4v-3-.998047h-1v.998047 3c0 .554.446 1 1 1h4 6.984375.03906 7.976565 4c.1385 0 .270906-.02766.390625-.07813.359156-.151401.609375-.50637.609375-.92187v-16-4-3c0-.554-.446-1-1-1h-10.984375-.039063-7.976562z" fill="#3a3a38" transform="matrix(0 1 1 0 0 0)"/><path d="m5 4v15.998047h11.871094l-1.435547-1.433594c-.576028-.576027-.576036-1.548972 0-2.125.288979-.288985.680959-.439453 1.0625-.439453.381573 0 .773521.150471 1.0625.439453l4.001953 3.998047c.143288.143281.255498.314946.330078.5.06668.165442.109375.357641.109375.5625s-.04268.397058-.109375.5625c-.07458.185092-.186724.356677-.330078.5l-4.001953 3.998047c-.288993.289014-.680955.439453-1.0625.439453h11.501953v-23zm11.498047 23c-.381568 0-.77352-.15047-1.0625-.439453-.576028-.576025-.576025-1.548975 0-2.125l1.435547-1.433594h-11.871094v3.998047z" fill="#fafafa" transform="matrix(0 1 1 0 0 0)"/><path d="m4 23h23v5h-23z" fill="#a1ddaa" stroke-width=".408248"/><path d="m10 4v5h-5v1h5v5h-5v1h5v3h1v-3h5v.08984c.161783-.05687.33071-.08984.498047-.08984.168758 0 .338941.033966.501953.091797v-.091797h5v5h-.08789c.05359.151316.08984.319316.08984.5s-.03625.348684-.08984.5h.08789v5h1v-5h5v-1h-5v-5h5v-1h-5v-4-1h5v-1h-5v-2-3h-1v3 2h-5v-5h-1v5h-5v-5zm1 6h.277344 4.722656v4.720703.279297h-5zm6 0h5v1 4h-5zm-7 14v3h1v-3zm7 2.908203c-.163012.057827-.333207.091797-.501953.091797h.501953zm-.501953.091797c-.167349 0-.336266-.032965-.498047-.089844v.089844z" fill="#797774" transform="matrix(0 1 1 0 0 0)"/><path d="m4 22v1h5v5h-5v1h23v-1h-5v-5h5v-1zm6 1h5v5h-5zm6 0h5v5h-5z" fill="#18ab50"/><path d="m16.498047 12.001953c-.127809 0-.255582.04855-.353516.146485-.195869.195867-.195869.511162 0 .707031l3.148438 3.144531h-15.792969c-.277 0-.5.223-.5.5s.223.5.5.5h15.792969l-3.148438 3.144531c-.195869.195869-.195869.511163 0 .707031.09793.09793.225707.146485.353516.146485.12781 0 .255586-.04855.353515-.146485l4.001954-3.998046c.04702-.04701.08408-.103236.109375-.166016.02334-.057904.037109-.12105.037109-.1875s-.01377-.129596-.03711-.1875c-.0253-.06278-.06236-.119003-.109375-.166016l-4.001954-3.998046c-.09793-.09793-.225705-.146485-.353514-.146485z" fill="#3a3a38" transform="matrix(0 1 1 0 5 0)"/><path d="m3 22h1v6h23v-6h1v2 4l-.07813.390625c-.151401.359156-.50637.609375-.92187.609375h-23c-.554 0-1-.446-1-1z" fill="#309048"/></g></svg>