<svg height="32" viewBox="0 0 8.4666665 8.4666669" width="32" xmlns="http://www.w3.org/2000/svg"><g transform="translate(0 -288.53332)"><path d="m4 3c-.5539999 0-1 .4459969-1 1v24c0 .554003.4460001 1 1 1h15.275391a1.0001 1.0001 0 0 1 .107421-.193359l.785157-1.097657-1.332031-.222656a1.0001 1.0001 0 0 1 -.835938-.986328v-.783203-1.216797a1.0001 1.0001 0 0 1 .835938-.986328l1.332031-.222656-.785157-1.097657a1.0001 1.0001 0 0 1 .105469-1.287109l.552735-.554688a1.0001 1.0001 0 0 0 .001953-.001953l.861328-.859375a1.0001 1.0001 0 0 1 1.289062-.107422l1.097657.785157.222656-1.332031a1.0001 1.0001 0 0 1 .986328-.835938h1.216797.783203a1.0001 1.0001 0 0 1 .986328.835938l.222656 1.332031 1.097657-.785157a1.0001 1.0001 0 0 1 .193359-.107421v-15.275391c0-.5540031-.446-1-1-1z" fill="#3a3a38" transform="matrix(.26458333 0 0 .26458333 0 288.53332)"/><path d="m4 4v24h15.958984l.208985-.291016-1.332031-.222656a1.0001 1.0001 0 0 1 -.835938-.986328v-.783203-1.216797a1.0001 1.0001 0 0 1 .835938-.986328l1.332031-.222656-.785157-1.097657a1.0001 1.0001 0 0 1 .105469-1.287109l.552735-.554688a1.0001 1.0001 0 0 0 .001953-.001953l.861328-.859375a1.0001 1.0001 0 0 1 1.289062-.107422l1.097657.785157.222656-1.332031a1.0001 1.0001 0 0 1 .986328-.835938h1.216797.783203a1.0001 1.0001 0 0 1 .986328.835938l.222656 1.332031.291016-.208985v-15.958984z" fill="#fafafa" transform="matrix(.26458333 0 0 .26458333 0 288.53332)"/><g fill="#797774" transform="matrix(.26458333 0 0 .26458333 0 288.53333)"><path d="m11.5 10h13c.277 0 .5.211661.5.474576v.05085c0 .262913-.223.474574-.5.474574h-13c-.277 0-.5-.211661-.5-.474576v-.05085c0-.262913.223-.474574.5-.474574z"/><path d="m11.5 16h13c.277 0 .5.211661.5.474576v.05085c0 .262913-.223.474574-.5.474574h-13c-.277 0-.5-.211661-.5-.474576v-.05085c0-.262913.223-.474574.5-.474574z"/><path d="m11.5 22c-.277 0-.5.211696-.5.474609v.050782c0 .262915.223.474609.5.474609h8.458984l-.576172-.806641a1.0001 1.0001 0 0 1 -.107421-.193359z" transform="translate(0 -.000038)"/></g><g stroke-width=".264583"><path d="m2.38125 291.31146c0 .21919-.177687.39687-.396875.39687s-.396875-.17768-.396875-.39687.177687-.39688.396875-.39688.396875.17769.396875.39688z" fill="#1e8bcd"/><path d="m2.38125 292.89896c0 .21919-.177687.39687-.396875.39687s-.396875-.17768-.396875-.39687.177687-.39688.396875-.39688.396875.17769.396875.39688z" fill="#fb983b"/><path d="m2.38125 294.48646c0 .21919-.177687.39687-.396875.39687s-.396875-.17768-.396875-.39687.177687-.39688.396875-.39688.396875.17769.396875.39688z" fill="#797774"/></g><path d="m6.4822917 293.5604-.098185.58963a1.190625 1.190625 0 0 0 -.1808676.0739l-.4852416-.34675-.227893.22738-.1462442.14676.3472656.48576a1.190625 1.190625 0 0 0 -.076481.18035l-.587561.0982v.32195.20722l.5896282.0982a1.190625 1.190625 0 0 0 .073897.18087l-.3467487.48524.1462442.14676.2278931.22738.4857586-.34727a1.190625 1.190625 0 0 0 .1803506.0765l.098185.58756h.3219442.2072224l.098185-.58963a1.190625 1.190625 0 0 0 .1808676-.0739l.4852416.34675.1467609-.14624.2273763-.2279-.3472656-.48576a1.190625 1.190625 0 0 0 .076481-.18035l.587561-.0982v-.20722-.32195l-.5896282-.0982a1.190625 1.190625 0 0 0 -.073897-.18087l.3467486-.48524-.2273763-.2279-.1467609-.14624-.4857586.34727a1.190625 1.190625 0 0 0 -.1803506-.0765l-.098185-.58756h-.2072224zm.160197.26459h.2087726l.093535.52916v.0238a.92604167.92604167 0 0 1 .3007569.12351l.016021-.016.4402833-.30799.1477947.14779-.3079917.44029-.016536.0165a.92604167.92604167 0 0 1 .1245401.30024h.023254l.5291666.0935v.20877l-.5291666.0935h-.02377a.92604167.92604167 0 0 1 -.1235067.30076l.016021.016.3079917.44028-.1477947.1478-.4402833-.30799-.016536-.0165a.92604167.92604167 0 0 1 -.3002399.12454v.0233l-.093534.52916h-.2087762l-.093534-.52916v-.0238a.92604167.92604167 0 0 1 -.3007569-.12351l-.01602.016-.4402834.30799-.1477946-.14779.3079916-.44029.016536-.0165a.92604167.92604167 0 0 1 -.124541-.30024h-.023255l-.5291666-.0935v-.20877l.5291666-.0935h.02377a.92604167.92604167 0 0 1 .1235067-.30075l-.01602-.016-.3079917-.44029.1477947-.14779.4402833.30799.016536.0165a.92604167.92604167 0 0 1 .3002399-.12454v-.0233zm.1043863.79375a.66145833.66145833 0 0 0 -.6614583.66145.66145833.66145833 0 0 0 .6614583.66146.66145833.66145833 0 0 0 .6614583-.66146.66145833.66145833 0 0 0 -.6614583-.66145zm0 .26458a.396875.396875 0 0 1 .396875.39687.396875.396875 0 0 1 -.396875.39688.396875.396875 0 0 1 -.396875-.39688.396875.396875 0 0 1 .396875-.39687z" fill="#1e8bcd"/><path d="m6.6424887 293.82499h.2087726l.093535.52916v.0238c.1067514.0231.2085726.0649.3007569.12351l.016021-.016.4402833-.30799.1477947.14779-.3079917.44029-.016536.0165c.05889.092.1010531.1936.1245401.30024h.023254l.5291666.0935v.20877l-.5291666.0935h-.02377c-.023109.10676-.064923.20858-.1235067.30076l.016021.016.3079917.44028-.1477947.1478-.4402833-.30799-.016536-.0165c-.091955.0589-.1936001.10105-.3002399.12454v.0233l-.093534.52916h-.2087762l-.093534-.52916v-.0238c-.1067515-.0231-.2085726-.0649-.3007569-.12351l-.01602.016-.4402834.30799-.1477946-.14779.3079916-.44029.016536-.0165c-.058891-.092-.1010539-.1936-.124541-.30024h-.023255l-.5291666-.0935v-.20877l.5291666-.0935h.02377c.023109-.10675.064923-.20857.1235067-.30075l-.01602-.016-.3079917-.44029.1477947-.14779.4402833.30799.016536.0165c.091955-.0589.1936001-.10106.3002399-.12454v-.0233zm.1043863.79375c-.3653134 0-.6614583.29614-.6614583.66145 0 .36532.2961449.66146.6614583.66146s.6614583-.29614.6614583-.66146c0-.36531-.2961449-.66145-.6614583-.66145z" fill="#fafafa"/></g></svg>