<svg viewBox="0 0 32 32" xmlns="http://www.w3.org/2000/svg"><path d="m4 2c-.554 0-1 .446-1 1v22c0 .554.4567584.891352 1 1h3c.7643635.878143.9252051.0098 1 0v-14c0-.554.446-1 1-1h12v-8c0-.554-.446-1-1-1zm5 25c-6 3.333333-3 1.666667 0 0z" fill="#3a3a38"/><path d="m4 3v22h3l1 1v-14c0-.554.446-1 1-1h11v-8z" fill="#fafafa"/><path d="m7 6c-.554 0-1 .446-1 1v22c0 .554.446 1 1 1h7.96875l1.236328-5.019531.197266-.197266c2.539313-2.536238 5.065722-5.049645 7.597656-7.568359v-10.214844c0-.554-.446-1-1-1zm17 20.666016c-.948635.944208-1.901504 1.879146-2.839844 2.849609l-.193359.199219-1.072266.285156h3.105469c.554 0 1-.446 1-1z" fill="#3a3a38"/><path d="m7 7v22h8.214844l.990234-4.019531.197266-.197266c2.205098-2.202428 4.400164-4.385388 6.597656-6.572265v-11.210938zm16 20.669922c-.441242.444218-.887189.879813-1.326172 1.330078h1.326172z" fill="#fafafa"/><g fill="#fb983b" transform="matrix(1.1667513 0 0 1.1666667 3.165736 3.166667)"><path d="m25.623047 17-8.513672 8.490234-1.109375 4.509766 4.441406-1.179688 7.308594-7.294921-3.322266-3.324219 1.199219-1.197266zm-1.197266 2.519531 2.003907 2.00586-5.751954 5.738281-2.009765-2.009766zm-6.464843 6.441407 2.009765 2.009765-.01172.01172-2.675781.710937.669922-2.726562z" fill="#0063b1" transform="matrix(.85708068 0 0 .85714283 -2.713291 -2.714286)"/><path d="m26.990234 16c-.221171 0-.439899.08465-.609375.253906l-1.953125 1.947266 3.322266 3.324219 1.996094-1.91211c.338948-.338481.338948-.88222 0-1.220703l-2.142578-2.138672c-.169476-.169241-.39211-.253906-.613282-.253906zm0 .998047 2.00586 2.003906-1.232422 1.179688-1.978516-1.980469z" fill="#0063b1" transform="matrix(.85708068 0 0 .85714283 -2.713291 -2.714286)"/><g fill="#83beec"><path d="m20.419922 11.855469-1.033203 1.03125 1.695312 1.697265 1.056641-1.011718z"/><path d="m24.425781 19.519531-5.757812 5.734375 2.009765 2.009766 5.751954-5.738281zm-6.464843 6.441407-.0078.0059-.669922 2.726562 2.675781-.710937.01172-.01172z" stroke-width="1.166709" transform="matrix(.85708068 0 0 .85714283 -2.713291 -2.714286)"/></g></g></svg>