<svg viewBox="0 0 32 32" xmlns="http://www.w3.org/2000/svg"><path d="m4 5c-.554 0-1 .446-1 1v20c0 .554.446 1 1 1h11.851562l.992188-1h-12.84375v-20h24v8.767578l1-1.007812v-7.759766c0-.554-.446-1-1-1z" fill="#3a3a38"/><path d="m4 6v20h12.84375l11.15625-11.232422v-8.767578z" fill="#1e8bcd"/><path d="m5 7v1 3 1h22v-1-3-1zm1 1h20v3h-20zm-1 5v1 10 1h12.837891l.992187-1h-12.830078v-10h20v2.78125l1-1.007812v-1.773438-1z" fill="#fafafa"/><path d="m29.499929 15.5-12 12h12zm-2 5v1.476392 3.523608h-4.499999-.500001z" fill="#f8db8f" fill-rule="evenodd" stroke="#ed8733" stroke-linecap="round" stroke-linejoin="round"/></svg>