<svg viewBox="0 0 32 32" xmlns="http://www.w3.org/2000/svg"><path d="m26 13.509766c0-.127809-.04855-.255582-.146484-.353516-.195868-.195869-.511163-.195869-.707032 0l-4.146484 4.136719v-10.792969c0-.277-.223-.5-.5-.5s-.5.223-.5.5v10.792969l-4.146484-4.136719c-.195869-.195869-.511164-.195869-.707032 0-.097934.097934-.146484.225707-.146484.353516 0 .12781.04855.255581.146484.353515l5 4.990235c.04701.04702.103236.08408.166016.109375.0579.02334.12105.03711.1875.03711s.129596-.01377.1875-.03711c.06278-.0253.119003-.06236.166016-.109375l5-4.990235c.097935-.097935.146484-.225705.146484-.353515z" fill="#1e8bcd"/><path d="m4 5v5h15v-3.5c0-.813728.686272-1.5 1.5-1.5zm16.5 0c.813728 0 1.5.686272 1.5 1.5v3.5h6v-5z" fill="#797774"/><path d="m3 4v7h16v-1h-15v-5c8.007063-.00733 15.996274 0 24 0v5h-5v1h6v-7z" fill="#3a3a38"/><path d="m4.4765625 10c-.2638556 0-.4765625.212707-.4765625.476562v.04688c0 .263851.2127069.476558.4765625.476558h14.5234375v-1zm17.5234375 0v1h5.523438c.263855 0 .476562-.212707.476562-.476562v-.04688c0-.263851-.212707-.476558-.476562-.476558z" fill="#3a3a38"/><path d="m4 11v16h24v-16h-6v3.882812l2.439453-2.433593c.575303-.575303 1.545791-.575306 2.121094 0 .288613.288612.439453.679483.439453 1.060547 0 .381057-.15084.771936-.439453 1.060546l-5 4.990235c-.143098.143104-.315178.255598-.5.330078-.165238.066605-.355951.109375-.560547.109375s-.395309-.04277-.560547-.109375c-.184859-.07448-.35686-.186908-.5-.330078l-5-4.990235c-.288608-.288607-.439453-.679484-.439453-1.060546 0-.381064.15084-.771935.439453-1.060547.575303-.575306 1.545791-.575303 2.121094 0l2.439453 2.433593v-3.882812z" fill="#fafafa"/><path d="m4 4c-.554 0-1 .446-1 1v22c0 .554.446 1 1 1h24c.554 0 1-.446 1-1v-22c0-.554-.446-1-1-1zm13.505859.9921875c.01495 0 .02993.0074.04492.00781l10.449221.0000025v.296875 4.703125 2.316406c.0043.03572.01384.06861.01563.105469.0036.07418-.0061.150703-.01563.226563v14.351562h-24v-17-4.703125-.296875h13.460938c.015-.0004128.02998-.00781.04492-.00781z" fill="#3a3a38"/></svg>