<svg height="32" viewBox="0 0 8.4666665 8.4666669" width="32" xmlns="http://www.w3.org/2000/svg"><g transform="translate(0 -288.53332)"><g stroke-width=".264583"><path d="m1.0583333 289.59167h6.35v6.35h-6.35z" fill="#fafafa"/><path d="m2.38125 289.59167v1.05833h-1.3229167v.26458h1.3229167v.59583.46251h.2645833v-.0894-.96894h1.3229167v1.05834h.2645833v-1.05834h1.3229167v1.05834h.2645833v-1.05834h1.5875v-.26458h-1.5875v-1.05833h-.2645833v1.05833h-1.3229167v-1.05833h-.2645833v1.05833h-1.3229167v-1.05833zm0 5.02708v.52917.79375h.2645833v-1.2268-.0961zm1.5875 0v1.32292h.2645833v-1.32292zm1.5875 0v1.32292h.2645833v-1.32292z" fill="#797774"/><path d="m.79375 289.32708v.26459 1.32291 1.63815 1.81022 1.57872c0 .14658.11800417.26458.2645833.26458h6.35c.1465792 0 .2645834-.118.2645834-.26458v-1.5875-.30696-1.50792-.26458-1.36013-1.32291-.26459h-.2645834-6.35zm.2645833.26459h1.3229167.2645833 1.3229167.2645833 1.3229167.2645833 1.5875v1.05833.26458 1.05834.26458.0372 2.03708.0424.26458 1.32292h-1.5875-.2645833-1.3229167-.2645833-1.3229167-.2645833-1.3229167v-1.32292-2.64583-1.05834-.26458z" fill="#3a3a38"/><path d="m1.0583333 291.97292v.26458h6.35v-.26458zm0 2.38125v.26458h6.35v-.26458z" fill="#0063b1"/></g><g fill="#0063b1"><path d="m.79374999 291.9729h.26458331v2.64583h-.26458331z"/><path d="m7.4083334 291.9729h.2645833v2.64583h-.2645833z"/></g></g></svg>