<svg viewBox="0 0 32 32" xmlns="http://www.w3.org/2000/svg" xmlns:xlink="http://www.w3.org/1999/xlink"><linearGradient id="a" gradientUnits="userSpaceOnUse" x1="23" x2="23" y1="27" y2="4"><stop offset="0" stop-color="#f6f6f6"/><stop offset="1" stop-color="#fafafa"/></linearGradient><path d="m10.15625 3.5c-1.7312189 0-3.6171875.9530874-3.6171875 3.125v3.125 5.091797c-.018245-.0038-.0364745-.007699-.0546875-.011719l.015625 7.669922c-1.725908 0-3 1.149093-3 2.875s1.399094 3.125 3.125 3.125h1.5625 1.5625 3.125 3.125 2.1875 1.15625c.090348 0 .180916-.014297.271484-.019531l.552735-.771485-1.332031-.222656a1.0001 1.0001 0 0 1 -.835938-.986328v-.783203-1.216797a1.0001 1.0001 0 0 1 .835938-.986328l1.332031-.222656-.785157-1.097657a1.0001 1.0001 0 0 1 .105469-1.287109l.552735-.554688a1.0001 1.0001 0 0 0 .001953-.001953l.861328-.859375a1.0001 1.0001 0 0 1 1.289062-.107422l.767579.548829v-2.773438c.018249.0038.036467.007699.054687.011719l-.015625-7.669922c1.725908 0 3-1.1490933 3-2.875 0-1.7259065-1.400927-3.2045535-3.125-3.125h-1.5625-1.5625-6.398438-2.039062z" fill="url(#a)"/><path d="m10.15625 3c-.9574002 0-1.9591053.2555392-2.7558594.8457031-.7967541.590164-1.3613281 1.5484618-1.3613281 2.7792969v3.125 4.966797c-.01825-.0051-.0364805-.010335-.0546875-.015625l.015625 7.390625c-1.695587.226513-3 1.491233-3 3.283203 0 1.996232 1.6287695 3.625 3.625 3.625h1.5625 1.5625 3.125 4.236328 1.576172.587891a1.0001 1.0001 0 0 1 .107421-.193359l.583985-.814453c-.041024.001231-.082169.007812-.123047.007812h-1.15625-2.421875-3.390625-3.125-1.5625-1.5625c-1.4555815 0-2.625-1.169418-2.625-2.625 0-1.472323 1.0303222-2.349609 2.5390625-2.349609.2760796-.000151.4998486-.22392.5-.5v-12.775391-3.125c0-.9410775.3774121-1.5452796.9570313-1.9746094.579619-.4293298 1.3863375-.6503906 2.1601562-.6503906h1.15625 2.421875 6.515625 1.5625 2.1875c2.125 0 4 1.1694179 4 2.625 0 1.472323-3.030322 2.3496094-4.539062 2.3496094-.276081.0001514-.49985.2239204-.5.5v10.4570316l.330078.236328.222656-1.332031a1.0001 1.0001 0 0 1 .447266-.677735v-.875c.018249.0051.036477.010335.054687.015625l-.015625-7.3906249c1.695587-.2265133 5-1.4912332 5-3.2832031 0-1.125-.695861-3.625-5-3.625h-2.1875-1.5625-7.361328-1.576172z" fill="#3a3a38"/><circle cx="-24.838984" cy="20.313559" fill="#f00" r="0"/><path d="m3 22v3.375.125h.0136719c.0678501 1.937381 1.6579446 3.5 3.6113281 3.5h12.650391a1.0001 1.0001 0 0 1 .107421-.193359l.576172-.806641h-.115234-13.21875-.125-.5v-.052734c-.9795521-.201574-1.7447262-.967512-1.9453125-1.947266h-.0546875v-.5-.125-2.349609-.025391h.0292969 1.9707031.5.1972656 11.3027344v1.494141a1.0001 1.0001 0 0 1 .835938-.980469l.164062-.027344v-.486328-1h-11.9609375-1.0390625zm16.037109 5.519531c.027095.01988.054156.039818.082032.058594.04341.02872.0877.056081.132812.082031.0213.01269.042793.02506.064453.03711l.001953.001953c.05559.02947.112269.056831.169922.082031.0162.0073.032478.014504.048828.021484.002.0013.00386.002607.00586.003907.06095.02457.122849.046716.185547.066406.01492.0054.029902.010555.044922.015625.027219.0076.054571.014794.082031.021484.0401.01142.08047.02184.121093.03125.007189.001843.014278.00403.021485.00586l.169922-.238282z" fill="#922e9b"/><path d="m4 23v2.5.5h.0546875c.2005868.979754.9657604 1.745696 1.9453125 1.947266v.052734h.5 13.458984l.039063-.052734c-.354092-.073144-.677563-.223648-.958985-.427735l-.203124-.033203a1.0001 1.0001 0 0 1 -.835938-.986328v-.5-.283203-.216797-1a1.0001 1.0001 0 0 1 0-.005859v-1.494141h-11.5-.5z" fill="#d492d8"/><path d="m26 3.0625c-1.655982.292289-2.925915 1.712463-2.986328 3.4375h-.013672v.125 3.375h3 3v-3.375-.125h-.013672c-.060413-1.7250369-1.330346-3.1452114-2.986328-3.4375zm0 .9902344a2.5 2.5 0 0 1 1.945312 1.9472656h.054688v.5.125 2.3496094.0253906h-.029297-1.970703-1.970703-.029297v-.0253906-2.3496094-.125-.5h.054688a2.5 2.5 0 0 1 1.945312-1.9472656z" fill="#922e9b"/><path d="m26 4.0527344a2.5 2.5 0 0 0 -1.945312 1.9472656h-.054688v.5 2.5h2 2v-2.5-.5h-.054688a2.5 2.5 0 0 0 -1.945312-1.9472656z" fill="#d492d8"/><path d="m24.5 19-.371094 2.228516a4.5 4.5 0 0 0 -.683594.279296l-1.833984-1.310546-.861328.859375-.552734.554687 1.3125 1.835938a4.5 4.5 0 0 0 -.289063.68164l-2.220703.371094v1.216797.783203l2.228516.371094a4.5 4.5 0 0 0 .279296.683594l-1.310546 1.833984.552734.554687.861328.859375 1.835938-1.3125a4.5 4.5 0 0 0 .68164.289063l.371094 2.220703h1.216797.783203l.371094-2.228516a4.5 4.5 0 0 0 .683594-.279296l1.833984 1.310546.554687-.552734.859375-.861328-1.3125-1.835938a4.5 4.5 0 0 0 .289063-.68164l2.220703-.371094v-.783203-1.216797l-2.228516-.371094a4.5 4.5 0 0 0 -.279296-.683594l1.310546-1.833984-.859375-.861328-.554687-.552734-1.835938 1.3125a4.5 4.5 0 0 0 -.68164-.289063l-.371094-2.220703h-.783203zm.605469 1h.789062l.353516 2v.08984a3.5 3.5 0 0 1 1.136719.466797l.06055-.06055 1.664063-1.164063.558594.558594-1.164063 1.664063-.0625.0625a3.5 3.5 0 0 1 .470703 1.134765h.087887l2 .353516v.789062l-2 .353516h-.08984a3.5 3.5 0 0 1 -.466797 1.136719l.06055.06055 1.164063 1.664063-.558594.558594-1.664063-1.164063-.0625-.0625a3.5 3.5 0 0 1 -1.134765.470703v.087894l-.353516 2h-.789062l-.353516-2v-.08984a3.5 3.5 0 0 1 -1.136719-.466797l-.06055.06055-1.664063 1.164063-.558594-.558594 1.164063-1.664063.0625-.0625a3.5 3.5 0 0 1 -.470706-1.134772h-.087891l-2-.353516v-.789062l2-.353516h.08984a3.5 3.5 0 0 1 .466797-1.136719l-.06055-.06055-1.164063-1.664063.558594-.558594 1.664063 1.164063.0625.0625a3.5 3.5 0 0 1 1.134765-.470703v-.087887zm.394531 3a2.5 2.5 0 0 0 -2.5 2.5 2.5 2.5 0 0 0 2.5 2.5 2.5 2.5 0 0 0 2.5-2.5 2.5 2.5 0 0 0 -2.5-2.5zm0 1a1.5 1.5 0 0 1 1.5 1.5 1.5 1.5 0 0 1 -1.5 1.5 1.5 1.5 0 0 1 -1.5-1.5 1.5 1.5 0 0 1 1.5-1.5z" fill="#1e8bcd"/><path d="m25.105469 20h.789062l.353516 2v.08984c.40347.08734.788306.245379 1.136719.466797l.06055-.06055 1.664063-1.164063.558594.558594-1.164063 1.664063-.0625.0625c.222578.347545.381933.731717.470703 1.134765h.087887l2 .353516v.789062l-2 .353516h-.08984c-.08734.40347-.245379.788306-.466797 1.136719l.06055.06055 1.164063 1.664063-.558594.558594-1.664063-1.164063-.0625-.0625c-.347545.222578-.731717.381933-1.134765.470703v.087894l-.353516 2h-.789062l-.353516-2v-.08984c-.40347-.08734-.788306-.245379-1.136719-.466797l-.06055.06055-1.664063 1.164063-.558594-.558594 1.164063-1.664063.0625-.0625c-.222581-.347552-.381936-.731724-.470706-1.134772h-.087891l-2-.353516v-.789062l2-.353516h.08984c.08734-.40347.245379-.788306.466797-1.136719l-.06055-.06055-1.164063-1.664063.558594-.558594 1.664063 1.164063.0625.0625c.347545-.222578.731717-.381933 1.134765-.470703v-.087887zm.394531 3c-1.380712 0-2.5 1.119288-2.5 2.5s1.119288 2.5 2.5 2.5 2.5-1.119288 2.5-2.5-1.119288-2.5-2.5-2.5z" fill="#fafafa"/></svg>