<svg viewBox="0 0 32 32" xmlns="http://www.w3.org/2000/svg"><path d="m8.9978381 21.498047c-.0000005-.127809.048551-.255582.1464843-.353516.1958675-.195867.511162-.195869.7070313 0l6.1484373 6.148438v-23.7929691c0-.276998.223-.5.5-.5s.5.223002.5.5v23.7929691l6.148438-6.148438c.195868-.19587.511163-.195868.707031 0s.19587.511162 0 .707031l-7.001953 7.001954c-.04701.04701-.103238.08408-.166016.109375-.06017.024483-.123595.037109-.1875.037109-.06645 0-.129596-.01377-.1875-.03711-.06278-.0253-.119003-.06236-.166016-.109375l-7.0019526-7.001953c-.097935-.09793-.1464839-.225706-.1464843-.353515z" fill="#1e8bcd"/></svg>