<svg viewBox="0 0 32 32" xmlns="http://www.w3.org/2000/svg"><g opacity=".5"><path d="m4 4v14h10v-10c0-.554.446-1 1-1v-3z" fill="#fafafa"/><path d="m4 3c-.554 0-1 .446-1 1v14c0 .554.446 1 1 1l10-.003906v-.996094h-10v-14h11v3h1v-3c0-.554-.446-1-1-1z" fill="#3a3a38"/><path d="m9 4v4h-5v1h5v4h-5v1h5v4h1v-4h4v-1h-4v-4h4v-1h-4v-4z" fill="#797774"/><path d="m3 18v5c0 .554.446 1 1 1h5.5l2.5-5h-1l-2 4h-5v-5z" fill="#3a3a38"/><path d="m4 19v4h5l2-4z" fill="#fafafa"/></g><path d="m16 9h11v14h-11z" fill="#fafafa"/><path d="m16 8c-.554 0-1 .446-1 1v14c0 .554.446 1 1 1l11.019531-.0039c.544357-.010965.980469-.449025.980469-.9961v-14c0-.554-.446-1-1-1zm0 1h11v14h-11z" fill="#3a3a38"/><path d="m21 9v4h-5v1h5v4h-5v1h5v4h1v-4h5v-1h-5v-4h5v-1h-5v-4z" fill="#797774"/><path d="m15 23v5c0 .554.446 1 1 1h5.5l2.5-5h-1l-2 4h-5v-5z" fill="#3a3a38"/><path d="m16 24v4h5l2-4z" fill="#fafafa"/></svg>