<svg viewBox="0 0 32 32" xmlns="http://www.w3.org/2000/svg">
/&amp;amp;amp;amp;gt;<g fill="#3a3a38"><path d="m23.486328 6c-.911302 0-1.762319.2023262-2.552734.609375-.790415.397121-1.478614 1.0080056-2.064453 1.8320312-.576537.8240258-1.030471 1.8660958-1.365235 3.1269528-.334764 1.250933-.503906 2.72988-.503906 4.4375 0 1.707619.169142 3.192266.503906 4.453125.334764 1.250931.788698 2.289257 1.365235 3.113282.585839.814098 1.274038 1.426936 2.064453 1.833984.790415.397121 1.641432.59375 2.552734.59375.911304 0 1.762318-.196629 2.552734-.59375.799714-.407048 1.492291-1.019886 2.078126-1.833984.585836-.824025 1.044142-1.862351 1.378906-3.113282.334764-1.260859.503906-2.745506.503906-4.453125 0-1.70762-.169142-3.186568-.503906-4.4375-.334764-1.260858-.79307-2.302927-1.378906-3.1269528-.585836-.8240257-1.278413-1.4349102-2.078126-1.8320312-.790416-.4070488-1.64143-.609375-2.552734-.609375zm0 1c.719546 0 1.431189.1854168 2.074219.5351562.700951.381244 1.265041.9823592 1.710937 1.71875.470494.7612008.803709 1.6847878 1.044922 2.7792968.247863 1.115218.359375 2.430311.359375 3.972656 0 1.543849-.111544 2.867696-.359375 3.992188a1.1017575 1.1017575 0 0 1 0 .0039c-.241475 1.084958-.576027 2.001165-1.044922 2.759766-.445896.736393-1.009988 1.337506-1.710937 1.71875a1.1017575 1.1017575 0 0 1 -.01367.0098c-.64197.336202-1.348761.509737-2.060549.509737-.711785 0-1.418576-.173532-2.060547-.509766a1.1017575 1.1017575 0 0 1 -.02148-.01367c-.689882-.382439-1.248201-.977662-1.701176-1.708986a1.1017575 1.1017575 0 0 1 -.0059-.0098c-.4572-.756563-.786023-1.671579-1.027343-2.755825a1.1017575 1.1017575 0 0 1 0-.0039c-.247821-1.124482-.359375-2.448336-.359375-3.992188 0-1.54235.111528-2.857454.359375-3.972656.241066-1.093828.568586-2.016218 1.027344-2.7753905a1.1017575 1.1017575 0 0 1 .0059-.00977c.452974-.7313235 1.01129-1.3265483 1.701171-1.708986a1.1017575 1.1017575 0 0 1 .0078-.00391c.643045-.3497384 1.354688-.5351525 2.074231-.5351525z"/><path d="m9.478904 5.9999996-5.478904 5.1440434.7593307.108398c.085837.131512.2321155.231921.4419262.302734.2193486.0607.4449905-.01008.6738758-.212402l4.1248673-4.342773c-.02861.4248863.0226 3.202631.02198 3.597168l-.02198 12.902832v.500489 1.999511h1v-1.999511-18.0004894z"/><path d="m8.6875667 21.030433q0-.429687.15625-.820312.1757813-.390625.46875-.683594.2929688-.292969.7031243-.46875.429688-.175781.9375-.175781.585938 0 1.015625.214843.449219.214844.742188.585938.292969.351562.429687.859375.15625.488281.15625 1.054687 0 .839844-.253906 1.757813-.234375.917969-.703125 1.816406-.449219.898438-1.113281 1.738281-.664063.859375-1.5234373 1.582032l-.5859375-.546875q-.2539062-.234375-.2539062-.546875 0-.234375.2734375-.507813.1757812-.195312.46875-.546875.2929688-.351562.5859375-.800781.3125-.449219.566406-.996094.253906-.546875.371094-1.171875h-.214844q-.9960937 0-1.6210935-.664062-.6054688-.664063-.6054688-1.679688z" fill="#3a3a38" transform="matrix(.60314134 0 0 .60314134 8.760169 11.815676)"/></g></svg>