<svg viewBox="0 0 32 32" xmlns="http://www.w3.org/2000/svg"><g fill="#3a3a38"><path d="m23.486328 6c-.911302 0-1.762319.2023262-2.552734.609375-.790415.397121-1.478614 1.0080056-2.064453 1.8320312-.576537.8240258-1.030471 1.8660958-1.365235 3.1269528-.334764 1.250933-.503906 2.72988-.503906 4.4375 0 1.707619.169142 3.192266.503906 4.453125.334764 1.250931.788698 2.289257 1.365235 3.113282.585839.814098 1.274038 1.426936 2.064453 1.833984.790415.397121 1.641432.59375 2.552734.59375.911304 0 1.762319-.196629 2.552734-.59375.799714-.407048 1.492291-1.019886 2.078126-1.833984.585836-.824025 1.044142-1.862351 1.378906-3.113282.334764-1.260859.503906-2.745506.503906-4.453125 0-1.70762-.169142-3.186568-.503906-4.4375-.334764-1.260858-.79307-2.302927-1.378906-3.1269528-.585835-.8240257-1.278413-1.4349102-2.078126-1.8320312-.790417-.4070488-1.64143-.609375-2.552734-.609375zm0 1c.719546 0 1.431189.185417 2.074219.5351562.700951.381244 1.265041.9823592 1.710937 1.71875.470494.7612008.803709 1.6847878 1.044922 2.7792968.247863 1.115218.359375 2.430311.359375 3.972656 0 1.543849-.111544 2.867696-.359375 3.992188a1.1017575 1.1017575 0 0 1 0 .003906c-.241475 1.084958-.576027 2.001165-1.044922 2.759766-.445896.736393-1.009988 1.337506-1.710937 1.71875a1.1017575 1.1017575 0 0 1 -.013672.009765c-.641968.336231-1.348759.509766-2.060547.509766-.711785 0-1.418576-.173532-2.060547-.509766a1.1017575 1.1017575 0 0 1 -.021484-.013672c-.689878-.382437-1.248197-.97766-1.701172-1.708984a1.1017575 1.1017575 0 0 1 -.005859-.009766c-.457201-.756597-.786024-1.671613-1.027344-2.755859a1.1017575 1.1017575 0 0 1 0-.003906c-.247821-1.124482-.359375-2.448336-.359375-3.992188 0-1.542351.111528-2.857454.359375-3.972656.241066-1.093828.568586-2.016218 1.027344-2.7753905a1.1017575 1.1017575 0 0 1 .005859-.0097656c.452975-.7313219 1.011291-1.3265467 1.701172-1.7089844a1.1017575 1.1017575 0 0 1 .007812-.0039063c.643032-.3497419 1.354676-.5351562 2.074219-.5351562z"/><path d="m8 3v3.6503906c-.6598813.0434362-1.2470274.1714888-1.7597656.3886719-.0012651.0005359-.002642.0014163-.0039063.0019531a.22119743.22119743 0 0 1 -.0039062.0019532c-.6461702.2692372-1.1753342.6217304-1.609375 1.0644531-.4286673.4374143-.7537412.9390352-.9824219 1.5195312h-.0019531a.22119743.22119743 0 0 1 0 .0019531c-.2296982.5742458-.3417969 1.1550928-.3417969 1.7617188 0 .808789.1198645 1.453931.3222656 1.935547.2290971.519872.513405.938453.8554688 1.273437h.0019531v.001953c.3664525.348602.7759344.629825 1.2402344.84961.5082179.230054 1.0243542.435331 1.5507812.617187.2485933.085878.4877925.167911.7324219.251953v8.042969c-.0606789.001712-.1161576.013672-.1777344.013672-.7449892 0-1.4148606-.106178-2.0039062-.341797a.22119743.22119743 0 0 1 -.0136719-.007812l-.0019531.003906c-.515861-.221083-.9692004-.46292-1.359375-.730469a.22119743.22119743 0 0 1 -.0097656-.005859c-.3575836-.255416-.658743-.488079-.9121094-.699219a.22119743.22119743 0 0 1 -.0195313-.019531l-.0019531.001953c-.0808301-.073801-.1453012-.114211-.1855469-.134766-.0158467-.008093-.0276408-.009303-.0371093-.011718.0001075.0006-.0032872-.003947-.015625.003906v-.001953a.22119743.22119743 0 0 1 -.015625.009765c-.0189978.011402-.0197687.011249-.0449219.050782a.22119743.22119743 0 0 1 -.0136719.017578l-.0058594.007812-.4941406.800781c.5793195.570196 1.2314843 1.056437 2.0097656 1.419922a.22119743.22119743 0 0 1 .0078125.001954v.001953c.9262679.417051 1.9399609.626953 3.0605469.626953.0809529 0 .155345-.007488.234375-.009766v3.638672h1v-3.730469c.423882-.072595.8174145-.182253 1.177734-.330078.702407-.288166 1.270983-.670645 1.732422-1.158203a.22119743.22119743 0 0 1 .003906-.003906l-.001953-.001953c.476216-.493855.836273-1.064312 1.085938-1.732422.250867-.681567.378906-1.41384.378906-2.208985 0-.736825-.12072-1.322512-.330078-1.773437h.001953a.22119743.22119743 0 0 1 -.003906-.009766c-.216422-.484788-.498503-.875503-.847656-1.191406a.22119743.22119743 0 0 1 -.011719-.009766c-.357752-.340276-.765758-.620751-1.234375-.841797a.22119743.22119743 0 0 1 -.009766-.005859l-.001953.003906c-.506704-.248571-1.0207046-.469532-1.5449218-.660156-.1338816-.048684-.26179-.09462-.3945312-.142578v-7.5429688c.4322691.0353546.8415923.1017922 1.203125.2421876.445871.1601208.840981.3444947 1.179687.5664062.279546.1686652.51739.3341455.728516.4980469a.22119743.22119743 0 0 1 .00586.0019531.22119743.22119743 0 0 1 .03125.0195312c.073535.0525261.131113.0818557.167968.0976563.005753.0024664.00704.0020932.011719.0039063.001378-.0037672.010023-.0093336.046875-.078125l.433594-.8164063c-.500514-.4536308-1.050973-.8299836-1.697266-1.0878906a.22119743.22119743 0 0 1 -.005859-.0019531.22119743.22119743 0 0 1 -.003907-.0019532c-.63807-.2566954-1.3379304-.4052267-2.101562-.453125v-3.6503906zm-4.7226562 19.431641c-.0001239-.000691-.0036159-.00586.0175781-.00586-.0360023 0-.0321567.002141-.0175781.00586zm2.8710937-15.8203129c-.3288336 0-.6567756.0027074 0 .0058594.0191104-.0000917.0040187.000089.0214844 0 .5827872-.0029713.297781-.0058594-.0214844-.0058594zm1.8515625 1.0507813v7.1816406c-.069423-.024887-.1418392-.051401-.2109375-.076172-.5582543-.200128-1.0682133-.434902-1.5253906-.707031a.22119743.22119743 0 0 1 -.0136719-.009766l-.0019531.001953c-.4573182-.290005-.8416572-.648234-1.1464844-1.0625a.22119743.22119743 0 0 1 -.0214844-.023437s-.0019531-.001953-.0019531-.001953a.22119743.22119743 0 0 1 -.0058594-.007813c-.3348049-.482118-.4824218-1.073939-.4824218-1.714843 0-.474235.0808163-.928125.2402343-1.351563a.22119743.22119743 0 0 1 .0097657-.0351562c.1682361-.4428433.4211379-.8391065.7519531-1.1699219.3455323-.3455335.7688713-.6084706 1.25-.7851563.3556517-.1352746.7491479-.2014981 1.1582031-.2382812zm4.324219 1.4355468c.00058-.0001879-.009975.0152713-.007813.0136719.013904-.0102813.033235-.0131452.007813-.0136719zm-5.8964846 4.5429688c.015891.010056.0088164.008577.0390625.027344a.22119743.22119743 0 0 1 .0097656.003906c.0067734.004198.0004621.001308.0078125.005859a.22119743.22119743 0 0 1 .0039062.001954c.0362221.02105.0177909.010018.0410157.023437.0253685.014658.0328463.018531.0449219.025391-.0298006-.017795-.0476994-.030152-.0859376-.052735h-.0019531c-.0259318-.015808-.0352704-.021029-.0585937-.035156zm4.6621096 1.951172c-.01024-.002446.014711.004539.003906.001953a.22119743.22119743 0 0 1 0-.001953c-.003251-.000847-.000705.000834-.003906 0zm1.238281.8125c-.016018-.011285.024362.019675.138672.105469a.22119743.22119743 0 0 1 .003906.001953s.001953.001953.001953.001953.001953.001953.001953.001953a.22119743.22119743 0 0 1 .001953.001953c.098964.072383.102545.074145.111329.080078-.018953-.014634-.04406-.034129-.076172-.058594-.014787-.010985-.019723-.013959-.035157-.02539 0 0-.001953-.001953-.001953-.001953-.02798-.02072-.038489-.029205-.0625-.046875-.031819-.023417-.074486-.053856-.083984-.060547zm-3.328125.263672c.5095013.173978.9783146.385979 1.394531.648437.474194.282728.868667.650643 1.167969 1.091797l.001953.001953a.22119743.22119743 0 0 1 .027344.03125v.001953c.3408.502112.490234 1.118449.490234 1.792969 0 .578386-.093381 1.124814-.283203 1.63086a.22119743.22119743 0 0 1 -.009766.037109c-.188233.503984-.4769.951471-.857421 1.322265h-.001953v.001954c-.374652.374064-.831897.661102-1.351563.857422-.1832515.069228-.3816054.108555-.578125.152343zm-5.9179688 5.355469c-.0238961.014015-.0338496.019391-.0605468.035156-.0382398.02258-.0561356.034942-.0859375.052734.0150294-.009264.0264801-.014098.0449219-.02539.0223941-.013352.00574-.002279.0410156-.023438a.22119743.22119743 0 0 1 .0019531-.001953h.0019531c.0506983-.030422.0340779-.023338.0566406-.037109zm.5800782.107421c-.0162684-.012474.0154376.016823.1347656.119141 0 0 .0019531.001953.0019531.001953a.22119743.22119743 0 0 1 .0019531.001953h.0019532c.1687616.144578.1418879.121063.0761718.0625.0530857.042116.0238638.01588-.0625-.05664-.0051802-.00435-.0065078-.005398-.0117187-.009766-.0391775-.034363-.061121-.051457-.0898437-.076172-.016266-.01336-.0466877-.038332-.0527344-.042969zm2.0957031 1.44336c-.0166967-.002816.0512893.011679.1484375.03125.0208091.004455.0035584-.000032.03125.005859a.22119743.22119743 0 0 1 0 .001953.22119743.22119743 0 0 1 .0039062 0c.0589063.011033.0368824.006307.0664063.011719.0831589.016273.0961532.018003.0292969.003906-.0328658-.006929-.0533108-.010777-.0957032-.019531-.001656-.000321-.0022507.00032-.0039062 0-.021844-.004508-.0281805-.005542-.0488281-.009766-.0226573-.004343-.0367374-.008332-.0546875-.011718-.0248419-.004687-.0677241-.012248-.0761719-.013672z"/></g></svg>