<svg viewBox="0 0 32 32" xmlns="http://www.w3.org/2000/svg"><path d="m4 16c-.554 0-1 .446-1 1v11c0 .554.446 1 1 1h14c.554 0 1-.446 1-1v-4a11 11 0 0 1 -1-.050781v4.050781h-14v-11h4.7539062a11 11 0 0 1 -.3339843-1z" fill="#3a3a38"/><path d="m4 17v11h14v-4.050781a11 11 0 0 1 -9.2460938-6.949219z" fill="#fafafa"/><path d="m19 3a10 10 0 0 0 -10 10 10 10 0 0 0 10 10 10 10 0 0 0 10-10 10 10 0 0 0 -10-10z" fill="#ed8733"/><path d="m28 13a9 9 0 0 1 -9 9 9 9 0 0 1 -9-9 9 9 0 0 1 9-9 9 9 0 0 1 9 9z" fill="#f8db8f"/></svg>