<svg viewBox="0 0 32 32" xmlns="http://www.w3.org/2000/svg"><path d="m4 19c-.554 0-1 .446-1 1v8c0 .554.446 1 1 1h11c.554 0 1-.446 1-1v-3a9 9 0 0 1 -1-.060547v3.060547h-11v-8h3.9414062a9 9 0 0 1 -.4160156-1z" fill="#3a3a38"/><path d="m4 20v8h11v-3.060547a9 9 0 0 1 -7.0585938-4.939453z" fill="#fafafa"/><path d="m17 3c-.554 0-1 .446-1 1v3a9 9 0 0 1 1 .0605469v-3.0605469h11v8h-3.941406a9 9 0 0 1 .416015 1h3.525391c.554 0 1-.446 1-1v-8c0-.554-.446-1-1-1z" fill="#3a3a38"/><path d="m17 4v3.0605469a9 9 0 0 1 7.058594 4.9394531h3.941406v-8z" fill="#fafafa"/><path d="m16 8a8 8 0 0 0 -8 8 8 8 0 0 0 8 8 8 8 0 0 0 8-8 8 8 0 0 0 -8-8z" fill="#ed8733"/><path d="m23 16a7 7 0 0 1 -7 7 7 7 0 0 1 -7-7 7 7 0 0 1 7-7 7 7 0 0 1 7 7z" fill="#f8db8f"/></svg>