<svg viewBox="0 0 32 32" xmlns="http://www.w3.org/2000/svg"><path d="m4 4v24h11.585938l-3.292969-3.292969a1.0001 1.0001 0 0 1 0-1.414062l1-1a1.0001 1.0001 0 0 1 1.414062 0l4.292969 4.292969 9-9v-13.585938zm24 18.414062-5.585938 5.585938h5.585938z" fill="#fafafa"/><path d="m4 3c-.554 0-1 .446-1 1v24c0 .554.446 1 1 1h12.585938l-1-1h-.585938-5-1-5v-4-1-4-1-4-1-9h24v9 1 3.585938l1-1v-12.585938c0-.554-.446-1-1-1zm25 18.414062-1 1v.585938 1 4h-5.585938l-1 1h6.585938c.554 0 1-.446 1-1z" fill="#3a3a38"/><path d="m3 3h26v6h-26z" fill="#0063b1"/><path d="m9 9v4h-5v1h5v4h-5v1h5v4h-5v1h5v4h1v-4h2a1.0001 1.0001 0 0 1 .292969-.707031l.292969-.292969h-2.585938v-4h5v3.585938l1.414062 1.414062h4.585938v.585938l1.585938-1.585938h-.585938v-4h4.585938l1-1h-5.585938v-4h6v-1h-6v-4h-1v4h-5v-4h-1v4h-5v-4zm1 5h5v4h-5zm6 0h5v4h-5zm0 5h5v4h-5zm11.414062 4-1 1h1.585938v-1zm-12.414062 4.414062v.585938h.585938z" fill="#797774"/><path d="m4 4h24v4h-24z" fill="#83beec" stroke-width=".784465"/><path d="m19 30-6-5.999999 1-1 5 4.999999 11-10.999999 1 1z" fill="#1e8bcd"/></svg>