<svg height="32" viewBox="0 0 8.4666664 8.4666669" width="32" xmlns="http://www.w3.org/2000/svg"><g stroke-width=".264583" transform="translate(0 -288.53331)"><path d="m1.0583333 289.59149v5.29167h4.2327036l.000635-3.43958-1.8520833-1.85209z" fill="#fafafa"/><path d="m3.9980469 3c-.5540001 0-1 .4459968-1 1v20c0 .554003.4459999 1 1 1h16.0000001c.554 0 .892483-.456542 1-1v-.109375-13.9824219c-.204635-.0741416-.396579-.1896132-.556641-.3496093l-2.001953-2c-.120173-.1197733-.248148-.2860021-.332031-.4941407-.063294-.1566992-.111328-.3581531-.111328-.5605469 0-.0203776.005119-.0386082.005859-.0585937l-.904297-.8867187-2.607422-2.5585938zm0 1h9.0000001v6c0 .672643.491378 1 1 1h6v13h-16.0000001zm21.1621091 13.619141.664063.789062c.159348.20863.368311.353382.595703.447266z" fill="#3a3a38" stroke-width=".999999" transform="matrix(.26458333 0 0 .26458333 0 288.53331)"/><path d="m3.7041666 291.17899h1.5875l-1.5875-1.5875z" fill="#fafafa" fill-rule="evenodd"/><path d="m2.1166666 292.76649.0006297 3.43959h5.291037l.0000053-1.5875-1.8520834-1.85209z" fill="#fafafa"/><path d="m2.1160369 292.50191c-.1465792 0-.2646101.118-.2645833.26458l.0006297 3.43959c.0000268.14658.1180042.26458.2645833.26458h5.2916667c.1465791 0 .2361361-.12079.2645833-.26458l-.000635-2.01471-1.7219247-1.68946zm0 .26458h3.4395833v1.5875c0 .17797.1300105.26459.2645834.26459h1.5875l.000635 1.5875h-5.291672z" fill="#3a3a38"/><path d="m5.8208333 294.35399h1.5875l-1.5875-1.5875z" fill="#fafafa" fill-rule="evenodd"/><path d="m5.6890584 289.5922c-.033816 0-.067623.0129-.093534.0388l-.5296837.52865c-.01244.0124-.022249.0273-.028939.0439-.00618.0153-.00982.032-.00982.0496s.00364.0343.00982.0496c.00669.0166.016497.0315.028939.0439l.5296837.52865c.025911.0259.059718.0387.093534.0387s.067623-.0128.093534-.0387c.051824-.0518.051824-.13525 0-.18707l-.3038578-.30279h1.135848a.52916664.52916664 0 0 1 .5291674.52916v1.79731l-.3028239-.30386c-.051824-.0518-.1352457-.0518-.1870686 0-.025911.0259-.038758.0597-.038758.0935s.012845.0676.038758.0935l.5286497.52968c.012438.0124.027314.0223.043925.0289.015319.006.032028.01.049609.01.017582 0 .034289-.004.049609-.01.016611-.007.031486-.0165.043925-.0289l.5286496-.52968c.025911-.0259.038758-.0597.038758-.0935s-.012846-.0676-.038758-.0935c-.051823-.0518-.1352449-.0518-.1870686 0l-.3028229.30386v-1.79731a.79375.79375 0 0 0 -.79375-.79375h-1.135848l.3038575-.30282c.051824-.0518.051824-.13525 0-.18707-.025911-.0259-.059718-.0388-.093534-.0388z" fill="#1e8bcd"/></g></svg>