<svg viewBox="0 0 32 32" xmlns="http://www.w3.org/2000/svg"><path d="m13.875 3c-4.2239775 0-7.6604005 3.2975883-7.8554688 7.433594-.0057848.122656-.0195312.243115-.0195312.367187 0 .0316.0036163.06223.0039062.09375-.0015378.035147-.0028361.070304-.0039062.105469.00347.420193.040042.839458.109375 1.253906.010133.06865.019679.137063.03125.205078.016142.08687.0337234.173475.0527344.259766.49599 2.482862 1.960724 4.496843 4.1582026 5.398438.837309.42583 1.74307.700863 2.675782.8125l.972656.070312h1v10.033203h1.058594l.078125-24.9980468 2.863281-.0351562-.060547 19.496094 1.060547-.177735v-.261718l-.617188-.863282a1.0001 1.0001 0 0 1 .105469-1.287109l.511719-.513672v-16.392578h7v-1h-13zm5.050781 24.501953-.003906 1.498047h.353516a1.0001 1.0001 0 0 1 .107421-.193359l.617188-.863282v-.261718z" fill="#3a3a38"/><path d="m24.5 19-.371094 2.228516a4.5 4.5 0 0 0 -.683594.279296l-1.833984-1.310546-.861328.859375-.552734.554687 1.3125 1.835938a4.5 4.5 0 0 0 -.289063.68164l-2.220703.371094v1.216797.783203l2.228516.371094a4.5 4.5 0 0 0 .279296.683594l-1.310546 1.833984.552734.554687.861328.859375 1.835938-1.3125a4.5 4.5 0 0 0 .68164.289063l.371094 2.220703h1.216797.783203l.371094-2.228516a4.5 4.5 0 0 0 .683594-.279296l1.833984 1.310546.554687-.552734.859375-.861328-1.3125-1.835938a4.5 4.5 0 0 0 .289063-.68164l2.220703-.371094v-.783203-1.216797l-2.228516-.371094a4.5 4.5 0 0 0 -.279296-.683594l1.310546-1.833984-.859375-.861328-.554687-.552734-1.835938 1.3125a4.5 4.5 0 0 0 -.68164-.289063l-.371094-2.220703h-.783203zm.605469 1h.789062l.353516 2v.08984a3.5 3.5 0 0 1 1.136719.466797l.06055-.06055 1.664063-1.164063.558594.558594-1.164063 1.664063-.0625.0625a3.5 3.5 0 0 1 .470703 1.134765h.087887l2 .353516v.789062l-2 .353516h-.08984a3.5 3.5 0 0 1 -.466797 1.136719l.06055.06055 1.164063 1.664063-.558594.558594-1.664063-1.164063-.0625-.0625a3.5 3.5 0 0 1 -1.134765.470703v.087894l-.353516 2h-.789062l-.353516-2v-.08984a3.5 3.5 0 0 1 -1.136719-.466797l-.06055.06055-1.664063 1.164063-.558594-.558594 1.164063-1.664063.0625-.0625a3.5 3.5 0 0 1 -.470706-1.134772h-.087891l-2-.353516v-.789062l2-.353516h.08984a3.5 3.5 0 0 1 .466797-1.136719l-.06055-.06055-1.164063-1.664063.558594-.558594 1.664063 1.164063.0625.0625a3.5 3.5 0 0 1 1.134765-.470703v-.087887zm.394531 3a2.5 2.5 0 0 0 -2.5 2.5 2.5 2.5 0 0 0 2.5 2.5 2.5 2.5 0 0 0 2.5-2.5 2.5 2.5 0 0 0 -2.5-2.5zm0 1a1.5 1.5 0 0 1 1.5 1.5 1.5 1.5 0 0 1 -1.5 1.5 1.5 1.5 0 0 1 -1.5-1.5 1.5 1.5 0 0 1 1.5-1.5z" fill="#1e8bcd"/><path d="m25.105469 20h.789062l.353516 2v.08984c.40347.08734.788306.245379 1.136719.466797l.06055-.06055 1.664063-1.164063.558594.558594-1.164063 1.664063-.0625.0625c.222578.347545.381933.731717.470703 1.134765h.087887l2 .353516v.789062l-2 .353516h-.08984c-.08734.40347-.245379.788306-.466797 1.136719l.06055.06055 1.164063 1.664063-.558594.558594-1.664063-1.164063-.0625-.0625c-.347545.222578-.731717.381933-1.134765.470703v.087894l-.353516 2h-.789062l-.353516-2v-.08984c-.40347-.08734-.788306-.245379-1.136719-.466797l-.06055.06055-1.664063 1.164063-.558594-.558594 1.164063-1.664063.0625-.0625c-.222581-.347552-.381936-.731724-.470706-1.134772h-.087891l-2-.353516v-.789062l2-.353516h.08984c.08734-.40347.245379-.788306.466797-1.136719l-.06055-.06055-1.164063-1.664063.558594-.558594 1.664063 1.164063.0625.0625c.347545-.222578.731717-.381933 1.134765-.470703v-.087887zm.394531 3c-1.380712 0-2.5 1.119288-2.5 2.5s1.119288 2.5 2.5 2.5 2.5-1.119288 2.5-2.5-1.119288-2.5-2.5-2.5z" fill="#fafafa"/></svg>