<svg viewBox="0 0 32 32" xmlns="http://www.w3.org/2000/svg"><path d="m5.5 4c-.831 0-1.5.669-1.5 1.5v23c0 .831.669 1.5 1.5 1.5h21c.831 0 1.5-.669 1.5-1.5v-23c0-.831-.669-1.5-1.5-1.5h-4.5v4h-12v-4z" fill="#ed8733"/><path d="m6 5c-.554 0-1 .446-1 1v22c0 .554.446 1 1 1h20c.554 0 1-.446 1-1v-22c0-.554-.446-1-1-1h-4v3h-12v-3z" fill="#f8db8f"/><path d="m7 6v22h18v-22h-3v2h-12v-2z" fill="#fafafa" stroke-width="1.189237"/><g fill="#3a3a38"><path d="m16 2c-1.1046 0-2 .89543-2 2h-3v3h10v-3h-3c0-.13807-.005-.27605-.03125-.40625-.18649-.91137-1.00215-1.59375-1.96875-1.59375zm0 1c.41421 0 .75444.26608.90625.625.0506.11964.09375.23693.09375.375 0 .55228-.44771 1-1 1s-1-.44772-1-1 .44771-1 1-1z"/><path d="m16.980469 18.5h5.332031v-17.3242188q0-.7617187.05859-1.5820312l-4.355465 3.828125q-.46875.390625-.917969.2734375-.429687-.1367187-.605469-.390625l-1.035156-1.4257813 7.480469-6.6210937h2.65625v23.2421875h4.882812v2.5h-13.496093z" transform="matrix(.59921978 0 0 .59921978 1.663719 12.841613)"/></g></svg>