<svg height="32" viewBox="0 0 8.4666665 8.4666669" width="32" xmlns="http://www.w3.org/2000/svg" xmlns:xlink="http://www.w3.org/1999/xlink"><linearGradient id="a" gradientUnits="userSpaceOnUse" x1="7.14374991" x2="7.14374991" y1="296.20623657" y2="295.41248658"><stop offset="0" stop-color="#0040dd"/><stop offset="1" stop-color="#0a84ff"/></linearGradient><g transform="translate(0 -288.53332)"><g fill="#0063b1" transform="matrix(.26458333 0 0 .26458333 0 288.53332)"><path d="m3 3h3v3h-3z"/><path d="m26 3h3v3h-3z"/><path d="m3 26h3v3h-3z"/></g><path d="m6.8791667 295.41249h.79375v.79375h-.79375z" fill="url(#a)" stroke-width=".264583"/><g fill="#fafafa" transform="matrix(.26458333 0 0 .26458333 0 288.53332)"><path d="m4 4h1v1h-1z"/><path d="m27 4h1v1h-1z"/><path d="m27 27h1v1h-1z"/><path d="m4 27h1v1h-1z"/></g><g fill="#3a3a38" transform="matrix(.26458333 0 0 .26458333 0 288.53332)"><g transform="rotate(90)"><path d="m4-26h1v2h-1z"/><path d="m4-23h1v2h-1z"/><path d="m4-20h1v2h-1z"/><path d="m4-17h1v2h-1z"/><path d="m4-14h1v2h-1z"/><path d="m4-11h1v2h-1z"/><path d="m4-8h1v2h-1z"/></g><path d="m27 6h1v2h-1z"/><path d="m27 9h1v2h-1z"/><path d="m27 12h1v2h-1z"/><path d="m27 15h1v2h-1z"/><path d="m27 18h1v2h-1z"/><path d="m27 21h1v2h-1z"/><path d="m27 24h1v2h-1z"/><path d="m4 6h1v2h-1z"/><path d="m4 9h1v2h-1z"/><path d="m4 12h1v2h-1z"/><path d="m4 15h1v2h-1z"/><path d="m4 18h1v2h-1z"/><path d="m4 21h1v2h-1z"/><path d="m4 24h1v2h-1z"/><g transform="rotate(90)"><path d="m27-26h1v2h-1z"/><path d="m27-23h1v2h-1z"/><path d="m27-20h1v2h-1z"/><path d="m27-17h1v2h-1z"/><path d="m27-14h1v2h-1z"/><path d="m27-11h1v2h-1z"/><path d="m27-8h1v2h-1z"/></g></g><path d="m3.9759848 291.17915a.26460979.26460979 0 0 0 -.2645834.26459v3.14968a.26460979.26460979 0 0 0 .2645834.26458h.252181c.0705 0 .1628288-.0197.2382281-.0837a.26460979.26460979 0 0 0 .00362.002c.1444421.08.3100906.11265.4847249.11265.1767472 0 .3478456-.0362.5007448-.11162.1490385-.0736.2782972-.18005.3808553-.31109a.26460979.26460979 0 0 0 .00103-.002c.1015587-.13165.1776002-.28532.2284097-.45527.051387-.17188.074931-.35743.074931-.55449 0-.18486-.020995-.35684-.067696-.51573-.0445-.15776-.1120579-.30149-.2067057-.42375-.093972-.12138-.2134614-.22036-.3503663-.2868-.1397304-.0678-.2953213-.0992-.4547526-.0992-.1534258 0-.2954856.0462-.4309814.10439v-.79012a.26460979.26460979 0 0 0 -.2645847-.26412zm-1.3513388.94568c-.1982437 0-.3875893.0345-.5612061.10646-.1712297.0701-.327953.17605-.4681884.31109a.26460979.26460979 0 0 0 -.046509.32194l.070797.12403c.030857.054.0765.10261.1260904.13694.065303.0452.1469782.0672.2191081.0672.096445 0 .1878174-.0372.2552816-.0863.028246-.0195.062077-.041.1023194-.0656.02809-.0172.066984-.0366.1157552-.0553.023884-.009.070679-.0186.1400431-.0186.082719 0 .091213.0111.1085205.032a.26460979.26460979 0 0 0 .0031.004c.010401.0121.020233.0805.029972.13849-.1366615.0124-.2849456.0173-.3999756.0444-.1871024.0427-.3483816.0996-.4857585.18087-.1325096.0784-.2448111.17786-.3203939.30541a.26460979.26460979 0 0 0 -.00103.002c-.067016.11457-.1049031.24638-.1049031.3793 0 .12551.019724.24722.067696.35915a.26460979.26460979 0 0 0 .0031.006c.046413.10126.1122644.19302.1948201.26665a.26460979.26460979 0 0 0 .00568.005c.082224.0693.1782226.12195.2811198.15555a.26460979.26460979 0 0 0 .0062.002c.1004477.0301.2055804.0444.3126424.0444.096147 0 .1883601-.009.2764689-.0279.087314-.0172.1721329-.0444.2516643-.0822.040713-.0193.077648-.046.1162719-.0698.024749.0326.021744.0704.064079.0946.082044.0469.154786.0522.2196248.0522h.173116a.26460979.26460979 0 0 0 .2645834-.26458v-1.38441c0-.14676-.02064-.28699-.064596-.41755-.042374-.13032-.1079367-.25011-.1963705-.35088-.090762-.10343-.206397-.18327-.3348631-.23565-.131133-.055-.2746721-.0801-.4242637-.0801zm2.3058025.84181c.1114774 0 .1457415.0199.1927529.0817.039809.0522.087333.18889.087333.42013 0 .25063-.05047.40602-.1069703.48214-.059248.0798-.1101164.108-.2459797.108-.063149 0-.1119767-.0113-.1560629-.031-.018611-.009-.046467-.0422-.071313-.0661v-.83044c.041277-.0465.082962-.0946.1224733-.11937.047111-.0288.099085-.045.1777669-.045zm-2.1962486.94413v.0413c-.011589.0104-.023709.0236-.03514.0331-.02617.0216-.054379.0396-.085266.0558-.030614.0147-.063556.0273-.1002522.0362-.03195.008-.070454.0124-.1167888.0124-.026384 0-.046695-.003-.063562-.008-.00681-.003-.01175-.005-.014469-.007-.0006245-.0006-.00179-.003-.00259-.004-.00162-.004-.00517-.0128-.00517-.0377 0-.008-.00202-.0002.00155-.005a.26460979.26460979 0 0 0 .00207-.003c-.00128.002.013722-.0159.057878-.0372.046354-.0214.1249825-.0456.2304768-.0636a.26460979.26460979 0 0 0 .0031-.00053c.033181-.006.088854-.008.1281575-.0129z" fill="#83beec"/><g transform="matrix(.11340436 0 0 .11340436 2.33675 292.8356)"><path d="m7.6757812 15.5q-.5078125 0-.78125-.15625-.2734375-.15625-.3710937-.644531l-.4296875-1.777344q-.7421875.683594-1.4648438 1.230469-.7031249.527344-1.4843749.898437-.78125.371094-1.6796876.546875-.89843745.195313-1.9726562.195313-1.1132812 0-2.0898438-.292969-.9570312-.3125-1.6992187-.9375-.7226562-.644531-1.1523437-1.582031-.4101563-.957031-.4101563-2.246094 0-1.1328125.6054688-2.1679687.625-1.0546876 2.0117187-1.8750001 1.3867188-.8203125 3.61328125-1.328125 2.22656255-.5273437 5.46874995-.6054687v-1.4648437q0-2.2265626-.9570312-3.3398438-.9375-1.1328125-2.7539062-1.1328125-1.21093755 0-2.0507813.3125-.8203125.3125-1.4257812.68359375-.6054688.37109375-1.0546876.68359375-.4296875.3125-.8789062.3125-.3515625 0-.6054688-.17578125-.2539062-.17578125-.4101562-.44921875l-.625-1.09375q1.5820312-1.5234375 3.3984375-2.265625 1.8359375-.7617188 4.0625-.7617188 1.6015625 0 2.8515625.5273438 1.25.5078125 2.0898437 1.4648438.8398438.9570312 1.2695313 2.2851562.4492188 1.328125.4492188 2.9492188v12.2070312zm-7.14843745-2.109375q.85937495 0 1.58203125-.175781.7226563-.175781 1.3671875-.488281.6445312-.332032 1.2109375-.800782.5859375-.488281 1.1523437-1.074218v-3.945313q-2.2851562.0976562-3.8867187.390625-1.6015625.2734375-2.6171875.7421875-.9960937.46875-1.4453125 1.1132813-.4492188.625-.4492188 1.4062502 0 .742187.234375 1.289062.2539063.527344.6640626.878907.4101562.332031.97656245.507812.56640625.15625 1.2109375.15625z"/><path d="m14.453125 15.5v-27.773438h3.4375v11.38671925q1.171875-1.38671875 2.675781-2.18750005 1.503906-.8203125 3.457031-.8203125 1.660157 0 2.988282.6445313 1.328125.6445312 2.265625 1.8554688.9375 1.21093745 1.425781 2.9492187.507812 1.71875.507812 3.90625 0 2.3242187-.566406 4.21875-.566406 1.8945315-1.621094 3.2617185-1.054687 1.347657-2.558593 2.089844-1.503907.742188-3.378907.742188-1.875 0-3.144531-.703125-1.25-.722657-2.226562-1.992188l-.195313 1.699219q-.078125.722656-.839844.722656zm8.417969-16.6796875q-1.582032 0-2.792969.7421875-1.191406.7421875-2.1875 2.109375v9.21875q.898437 1.230469 1.972656 1.738281 1.074219.488282 2.363281.488282 2.636719 0 4.042969-1.894532 1.40625-1.894531 1.40625-5.644531 0-3.4765625-1.25-5.1171875-1.25-1.640625-3.554687-1.640625z"/></g></g></svg>