<svg viewBox="0 0 32 32" xmlns="http://www.w3.org/2000/svg"><g fill-rule="evenodd"><path d="m11 3v2h5.5c.813728 0 1.5.686272 1.5 1.5s-.686272 1.5-1.5 1.5h-11.3828125l2.4335937 2.439453c.575303.575303.5753061 1.545791 0 2.121094-.288612.288613-.6794828.439453-1.0605468.439453-.381062 0-.7719399-.150845-1.0605469-.439453l-2.4296875-2.433594v12.373047a.50005.50005 0 0 0 .5.5h4.5v5.5a.50005.50005 0 0 0 .8261719.378906l6.8593751-5.878906h12.814453a.50005.50005 0 0 0 .5-.5v-19a.50005.50005 0 0 0 -.5-.5z" fill="#3a3a38"/><path d="m11 4v1h5.5c.813728 0 1.5.686272 1.5 1.5s-.686272 1.5-1.5 1.5h-11.3828125l2.4335937 2.439453c.575303.575303.5753061 1.545791 0 2.121094-.288612.288613-.6794828.439453-1.0605468.439453-.381062 0-.7719399-.150845-1.0605469-.439453l-1.4296875-1.431641v10.871094h4.5a.50005.50005 0 0 1 .5.5v4.912109l6.173828-5.291015a.50005.50005 0 0 1 .326172-.121094h12.5v-18z" fill="#fafafa"/></g><path d="m6.490234 1c.127809 0 .255582.04855.353516.146484.195869.195868.195869.511163 0 .707032l-4.136719 4.146484h13.792969c.277 0 .5.223.5.5s-.223.5-.5.5h-13.792969l4.136719 4.146484c.195869.195869.195869.511164 0 .707032-.097934.097934-.225707.146484-.353516.146484-.12781 0-.255581-.04855-.353515-.146484l-4.990235-5c-.04702-.04701-.08408-.103236-.109375-.166016-.02334-.057904-.037109-.12105-.037109-.1875s.01377-.129596.03711-.1875c.0253-.06278.06236-.119003.109375-.166016l4.990235-5c.097934-.097935.225704-.146484.353514-.146484z" fill="#1e8bcd"/></svg>