<svg viewBox="0 0 32 32" xmlns="http://www.w3.org/2000/svg"><path d="m6.0019531 3v26h7.9980469v-7c0-.554.446-1 1-1h2v-4c0-.554.446-1 1-1h8.0625l-.060547-6-7-7z" fill="#fafafa"/><path d="m6 2c-.554 0-1 .446-1 1v26c0 .554.446 1 1 1h8v-1h-8v-26h13v6c0 .6726441.491378 1 1 1h6l.060547 6h.939453c.022107 0 .040759.01032.0625.011719l-.0625-7.6269534-6.507812-6.3847656z" fill="#3a3a38"/><path d="m20.00238 9h6l-6-6z" fill="#fafafa" fill-rule="evenodd"/><path d="m18.857422 17c-.474857 0-.857422.382565-.857422.857422v4.142578h1 7 1v-4.142578c0-.474857-.382565-.857422-.857422-.857422zm.142578 1h7v3h-7zm-3 4c-.554 0-1 .446-1 1v5c0 .554.446 1 1 1h3v2.142578c0 .474857.382565.857422.857422.857422h5.285156c.474857 0 .838139-.382957.857422-.857422v-2.142578h3c.554 0 1-.446 1-1v-5c0-.554-.446-1-1-1h-1v2h-1-9-1v-2zm4 6h5v3h-5z" fill="#3a3a38"/><path d="m18 22h9v1h-9z" fill="#1e8bcd"/><path d="m19 18v3h7v-3zm8 9v1h2v-1zm-7 1v3h5v-3z" fill="#fafafa" fill-rule="evenodd"/></svg>