<svg viewBox="0 0 32 32" xmlns="http://www.w3.org/2000/svg"><path d="m6 3v26h10v-8c0-1.090703.909297-2 2-2h1v-2.5c0-2.473437 2.026563-4.5 4.5-4.5.922893 0 1.783593.283408 2.5.765625v-2.765625l-7-7zm17.5 12c-.840272 0-1.5.659728-1.5 1.5v2.5h3v-2.5c0-.840272-.659728-1.5-1.5-1.5z" fill="#fafafa"/><path d="m5.9980469 2c-.554 0-1 .446-1 1v26c0 .554.446 1 1 1h10.2851561c-.175464-.296519-.283203-.636031-.283203-1h-10.0019531v-26h13.0000001v6c0 .6726441.491378 1 1 1h6v2.763672c.383945.258111.711431.584929 1 .945312v-5.3242184l-6.507813-6.3847656z" fill="#3a3a38"/><path d="m20 9h6l-6-6z" fill="#fafafa" fill-rule="evenodd"/><g fill="#1e8bcd" transform="translate(1 8)"><path d="m9.9609375 21c-.5328727 0-.9609375.428065-.9609375.960938v.078124c0 .532873.4280648.960938.9609375.960938h6.0390625v-2z" transform="translate(-1 -8)"/><path d="m8 10c-1.104522 0-2 .895478-2 2v4c0 1.104597.8954308 2 2 2h1v-1h-1c-.5522842 0-1-.447701-1-1v-.28125-3.71875c0-.552299.4267669-1 1-1h1v-1z"/><path d="m16 18v1h1c.155485 0 .297442.036673.425781.095703.183492-.05678.373998-.095703.574219-.095703h.722656c-.346376-.595633-.984029-1-1.722656-1z" transform="translate(-1 -8)"/></g><path d="m23.5 13c-1.932997 0-3.5 1.567003-3.5 3.5v3.5h-2c-.554 0-1 .446-1 1v8c0 .554.446 1 1 1h11c.554 0 1-.446 1-1v-8c0-.554-.446-1-1-1h-2v-3.5c0-1.932997-1.567003-3.5-3.5-3.5zm0 1c1.380712 0 2.5 1.119288 2.5 2.5v3.5h-5v-3.5c0-1.380712 1.119288-2.5 2.5-2.5z" fill="#ed8733"/><path d="m18 21h11v8h-11z" fill="#f8db8f"/><path d="m23.5 21a2.5 2.5 0 0 0 -2.5 2.5 2.5 2.5 0 0 0 1 1.996094v2.503906h3v-2.501953a2.5 2.5 0 0 0 1-1.998047 2.5 2.5 0 0 0 -2.5-2.5z" fill="#ed8733"/><path d="m23.5 22a1.5 1.5 0 0 0 -1.5 1.5 1.5 1.5 0 0 0 1 1.412109v2.087891h1v-2.087891a1.5 1.5 0 0 0 1-1.412109 1.5 1.5 0 0 0 -1.5-1.5z" fill="#fafafa"/></svg>