<svg viewBox="0 0 32 32" xmlns="http://www.w3.org/2000/svg"><path d="m4 4v19h16.863281l-2.570312-2.570312a1.0013091 1.0013091 0 0 1 0-1.414063l.722656-.722656a1.0013091 1.0013091 0 0 1 .691406-.294922 1.0013091 1.0013091 0 0 1 .722657.294922l4.707031 4.707031h.726562l2.136719-2.136719v-16.863281z" fill="#fafafa"/><path d="m4 3c-.554 0-1 .446-1 1v19c0 .554.446 1 1 1l17.861328-.001953-.998047-.998047h-16.863281v-19h24v16.863281l1-1v-15.863281c0-.554-.446-1-1-1zm21.136719 20 .363281.363281.363281-.363281z" fill="#3a3a38"/><path d="m9 4v4h-5v1h5v4h-5v1h5v4h-5v1h5v4h1v-4h5v4h1v-4h2.308594l.707031-.707031a1.0013091 1.0013091 0 0 1 .666016-.292969h-3.681641v-4h5v4h-1.242188a1.0013091 1.0013091 0 0 1 .671876.292969l1.570312 1.570312v-.863281h6v-1h-6v-4h6v-1h-6v-4h6v-1h-6v-4h-1v4h-5v-4h-1v4h-5v-4zm1 5h5v4h-5zm6 0h5v4h-5zm-6 5h5v4h-5z" fill="#797774"/><path d="m3 23v5c0 .554.446 1 1 1h5.5l2.5-5h-1l-2 4h-5v-5z" fill="#3a3a38"/><path d="m4 24v4h5l2-4z" fill="#fafafa"/><path d="m31.277778 19-5.777778 5.777778-5.777778-5.777778-.722222.722222 5.777778 5.777778-5.777778 5.777778.722222.722222 5.777778-5.777778 5.777778 5.777778.722222-.722222-5.777778-5.777778 5.777778-5.777778z" fill="#ed3d3b"/></svg>