<svg viewBox="0 0 32 32" xmlns="http://www.w3.org/2000/svg"><path d="m20.304688 6-17.304688.0019531v12.9999999l7 7 11.994141-.001953c.001958-.000007.0039 0 .005859 0v-2-12-2c-1.047117-.0001047-1.999895-.9528834-2-2v-1c.000036-.3565723.117603-.6991998.304688-1zm8.390624 0c.187085.3008002.304652.6434277.304688 1v-1zm.304688 2c-.000105 1.0471166-.952883 1.9998953-2 2v2 12 2h.001953 1.998047z" fill="#fafafa"/><path d="m3 5c-.554 0-1 .446-1 1v14.492188l6.3847656 6.507812h11.9199224c.362311-.582535 1.004767-.999931 1.695312-1h-12v-6c0-.508622-.327356-1-1-1h-6v-13h17.304688c.362311-.582535 1.004767-.999931 1.695312-1zm21.001953 0c.173959.0002428.330046.089654.498047.1347656.168001-.0451116.324088-.1345228.498047-.1347656zm2.998047 0c.690545.000069 1.333001.417465 1.695312 1h.304688v1 1 18h-2c.690545.000069 1.333001.417465 1.695312 1h.304688c.543467-.107517 1-.446 1-1v-20c0-.554-.446-1-1-1z" fill="#3a3a38"/><path d="m9 20.00238v6l-6-6z" fill="#fafafa" fill-rule="evenodd"/><path d="m4 7v12h1v-11h15v-1h-15zm24 2.6953125c-.3008.1870849-.643428.3046518-1 .3046875v14 1h1v-1zm-18 14.3046875v1h12v-1z" fill="#797774"/><path d="m22 6.0000005a1.0001 1.0001 0 0 0 -1 1v1a1.0001 1.0001 0 0 0 1 1h1v2.9999995 12 3h-1a1.0001 1.0001 0 0 0 -1 1v1a1.0001 1.0001 0 0 0 1 1h2a1.0001 1.0001 0 0 0 .5-.134766 1.0001 1.0001 0 0 0 .5.134766h2a1.0001 1.0001 0 0 0 1-1v-1a1.0001 1.0001 0 0 0 -1-1h-1v-3-12-2.9999995h1a1.0001 1.0001 0 0 0 1-1v-1a1.0001 1.0001 0 0 0 -1-1h-2a1.0001 1.0001 0 0 0 -.5.1347656 1.0001 1.0001 0 0 0 -.5-.1347656z" fill="#3a3a38" fill-opacity=".992366"/><path d="m22 7.0000005v1h2v-1zm2 1v19.9999995h1v-19.9999995zm1 0h2v-1h-2zm0 19.9999995v1h2v-1zm-1 0h-2v1h2z" fill="#fafafa" stroke-width="2"/></svg>