<svg viewBox="0 0 32 32" xmlns="http://www.w3.org/2000/svg"><path d="m16 4a12 12 0 0 0 -4.783203 1h.283203c.450652 0 .857215.2149585 1.134766.5410156a11 11 0 0 1 3.365234-.5410156 11 11 0 0 1 9.796875 6h-5.796875v1h6 1v-1-6h-1v4.4140625a12 12 0 0 0 -10-5.4140625zm-11 7.240234a12 12 0 0 0 -1 4.759766 12 12 0 0 0 12 12 12 12 0 0 0 12-12h-1a11 11 0 0 1 -11 11 11 11 0 0 1 -11-11 11 11 0 0 1 .5351562-3.369141c-.323023-.277488-.5351562-.682664-.5351562-1.130859z" fill="#1e8bcd"/><path d="m1.5078125 1.000109c-.125814-.002003-.2508351.043843-.3457032.1387087l-.021483.022677c-.18973359.1897324-.18610298.5013923.0097703.6972852l2.5488222 2.5488a3.5000001 3.5000001 0 0 0 -.6601563 1.5937512h-1.5390625c-.277 0-.5.2229921-.5.5000315s.2230001.4999937.5.4999937h1.5410156a3.5000001 3.5000001 0 0 0 .6582032 1.5937512l-2.5371094 2.5370835c-.19586871.19578-.21625964.492737-.044922.664063l.087891.08806c.1713377.171213.4681939.150803.6640625-.04498l2.5371091-2.5384375a3.5000001 3.5000001 0 0 0 1.5937501.6620976v1.5370959c0 .27704.2229997.499994.5000001.499994.2770016 0 .4999997-.222992.4999997-.499994v-1.5410266a3.5000001 3.5000001 0 0 0 1.5937501-.6601323l2.539062 2.5390489c.19587.19578.490772.216189.66211.04498l.08789-.08806c.171341-.171212.152901-.46817-.04297-.664063l-2.5390607-2.5390555a3.5000001 3.5000001 0 0 0 .6601561-1.5917858h1.5390626c.277002 0 .5-.2229921.5-.4999937 0-.2770394-.223-.5000315-.5-.5000315h-1.5410155a3.5000001 3.5000001 0 0 0 -.6582032-1.5937512l2.5488277-2.5488001c.19587-.1957795.201453-.5075527.01172-.697285l-.021471-.0226772c-.18974-.18973225-.501402-.18406296-.697271.0113386l-2.548837 2.5488378a3.5000001 3.5000001 0 0 0 -1.5937501-.66017v-1.5390615c0-.2770394-.2229996-.49999369-.4999997-.49999369-.2770016 0-.5000001.22299209-.5000001.49999369v1.5410268a3.5000001 3.5000001 0 0 0 -1.5937501.6582047l-2.5488281-2.5488378c-.0979343-.0978897-.2237952-.1485354-.3496093-.15042518zm4.9921877 3a2.5 2.5 0 0 1 2.4999999 2.5000064 2.5 2.5 0 0 1 -2.4999999 2.4999685 2.5 2.5 0 0 1 -2.5000003-2.4999685 2.5 2.5 0 0 1 .7226563-1.755893l.021468-.022677a2.5 2.5 0 0 1 1.755876-.7206805z" fill="#ed8733"/><circle cx="6.5" cy="6.50005" fill="#fafafa" r="2.5"/></svg>