<svg viewBox="0 0 32 32" xmlns="http://www.w3.org/2000/svg"><g fill="#3a3a38" transform="scale(-1 1)"><rect height="1" ry=".5" width="14.999998" x="-28" y="4"/><rect height="1" ry=".392136" width="15.000005" x="-28" y="14"/><rect height="1" ry=".436441" width="15.000001" x="-28" y="24"/><rect height="1" ry=".5" width="8.999999" x="-22" y="27"/><rect height="1" ry=".5" width="8.999999" x="-22" y="17"/><rect height="1" ry=".5" width="9.000002" x="-22" y="7"/></g><g fill="#1e8bcd" transform="translate(1)"><path d="m4 13v1h1v-1zm3 0v1h1v-1zm-3 2v6h1v-6zm3 0v6h1v-6z"/><path d="m7 3v1h1v-1zm0 2v6h1v-6z"/><path d="m1 23v1h1v-1zm3 0v1h1v-1zm3 0v1h1v-1zm-6 2v6h1v-6zm3 0v6h1v-6zm3 0v6h1v-6z"/></g></svg>