<svg viewBox="0 0 32 32" xmlns="http://www.w3.org/2000/svg"><g fill-rule="evenodd" transform="translate(-.00091 -2.996212)"><path d="m14.020228 18.996212c-.559873-.01088-1.019581.440021-1.019531 1v8c.000055.552262.447738.999945 1 1l14.999303.003788c1.026939.0012 1.388458-1.360917.496094-1.869141l-14.999303-8.003788c-.145406-.0828-.309263-.127793-.476563-.130859z" fill="#3a3a38"/><path d="m14.000697 19.996212v8l14.999303.003788z" fill="#fafafa"/><path d="m10.9714 9.9962122c-.419745.01214-.787203.2851978-.919922.6835938l-8.0006968 17.003788c-.2159644.647787.2663802 1.316717.9492188 1.316406h8c.552262-.000055.999945-.447738 1-1l.000697-17.003788c.000184-.563907-.465631-1.0164628-1.029297-.9999998z" fill="#0063b1"/><path d="m3 28h8l.000697-17.003788z" fill="#83beec"/></g><g transform="translate(-.00091 .003788)"><path d="m23.485758 10.5h-8" fill="none" stroke="#1e8bcd" stroke-linecap="round"/><path d="m19.500697 14.497475-4.000697-3.997475 4.000697-4.002525" fill="none" stroke="#1e8bcd" stroke-linecap="round" stroke-linejoin="round"/><g fill="#1e8bcd"><rect height="4.497475" rx=".5" ry=".497475" width="1.000697" x="27" y="14.5"/><path d="m23 10v1a4 4 0 0 1 4 4h1a5 5 0 0 0 -5-5z"/></g></g></svg>