<svg viewBox="0 0 32 32" xmlns="http://www.w3.org/2000/svg"><rect fill="#922e98" height="26" ry="1" width="26" x="3" y="3"/><path d="m4 4h24v24h-24z" fill="#d492d8"/><path d="m6 4c-.554 0-1 .446-1 1v9c0 .554.446 1 1 1h20c.554 0 1-.446 1-1v-9c0-.554-.446-1-1-1zm1 12c-.554 0-1 .446-1 1v10c0 .554.446 1 1 1h16c.554 0 1-.446 1-1v-10c0-.554-.446-1-1-1z" fill="#922e98"/><g fill="#fafafa"><path d="m8 17c-.554 0-1 .446-1 1v8c0 .554.446 1 1 1h3v-8h3v8h8c.554 0 1-.446 1-1v-8c0-.554-.446-1-1-1z"/><rect height="9" ry="1" width="20" x="6" y="5"/></g></svg>