<svg viewBox="0 0 32 32" xmlns="http://www.w3.org/2000/svg"><path d="m3.2988883 27.289671 8.4852807-8.485281c.391737-.391738 1.022476-.391738 1.414213 0 .391739.391737.391739 1.022476 0 1.414213l-8.4852801 8.485281c-.3917372.391738-1.0224764.391738-1.4142136 0-.3917371-.391737-.3917371-1.022476 0-1.414213z" fill="#3a3a38"/><circle cx="19" cy="13" fill="#fafafa" r="9"/><path d="m19.009766 2.9902344a10 10 0 0 0 -10.0000004 9.9999996 10 10 0 0 0 10.0000004 10 10 10 0 0 0 10-10 10 10 0 0 0 -10-9.9999996zm-.009766 1.0097656a9 9 0 0 1 9 9 9 9 0 0 1 -9 9 9 9 0 0 1 -9-9 9 9 0 0 1 9-9z" fill="#3a3a38"/><path d="m21.386438 16.802779q-.20178 0-.310431-.06209-.108651-.06209-.147455-.256106l-.170737-.706229q-.294909.271626-.582058.488928-.279388.209541-.589819.356995-.310431.147455-.667426.217303-.356996.07761-.783838.07761-.442364 0-.830403-.116413-.380278-.12417-.675187-.372515-.287149-.256106-.457886-.628623-.162976-.380277-.162976-.892489 0-.450124.240584-.861445.248344-.419082.799359-.745034.551015-.325953 1.435743-.527733.884729-.209541 2.173017-.240584v-.582058q0-.884728-.380278-1.327092-.372517-.450125-1.094269-.450125-.481168 0-.814881.124172-.325953.124173-.566537.271627-.240584.147455-.419081.271628-.170737.124172-.349235.124172-.139694 0-.240584-.06985-.10089-.06985-.162976-.178498l-.248345-.4346q.628623-.6053404 1.350375-.9002498.729512-.3026702 1.61424-.3026702.636384 0 1.133073.2095409.49669.2017801.830403.5820581.333713.380278.50445.90801.178498.527733.178498 1.171877v4.850483zm-2.840443-.838163q.341474 0 .628622-.06985.287149-.06985.543254-.194019.256106-.131933.481169-.318191.232823-.19402.457885-.426843v-1.567674q-.90801.0388-1.544394.155216-.636383.108651-1.039944.294909-.395799.186259-.574297.442364-.178497.248345-.178497.558776 0 .29491.09313.512211.10089.20954.263866.349235.162976.131932.388038.201779.225063.06209.481168.06209z" fill="#1e8bcd"/><path d="m29 19v3.880859c-.05999-.03099-.113523-.072209-.175781-.099609-.388039-.175911-.840037-.263672-1.357422-.263672-.548428 0-1.112854.067061-1.537109.263672-.419082.191432-.772764.459993-1.0625.806641-.284562.346648-.502303.761019-.652344 1.242187-.150042.475994-.22461.996598-.22461 1.560547 0 .620862.07985 1.173814.240235 1.660156.165563.481168.389266.890263.673828 1.226563.289735.331126.629539.583854 1.017578.759765s.883174.294922 1.328125.294922c.258693 0 .511421-.021789.759766-.068359.253518-.04657.497645-.117808.730468-.210938.0929-.03923.171805-.09789.259766-.144531v.091797h1 .5v-11h-.5zm-1.447266 4.572266c.258692 0 .47448.03166.650391.09375.181085.06209.334812.131377.458984.208984.124173.07243.227766.141038.310547.203125.0093.007.018074.003466.027344.009766v4.582031c-.07936.07221-.172682.149174-.291016.234375-.129346.09313-.29099.178251-.482422.255859-.191431.07761-.436244.117188-.736328.117188-.31043 0-.667671-.092629-.916015-.216797-.248345-.129346-.460808-.315423-.636719-.558594s-.313806-.540757-.412109-.892578c-.09313-.356996-.138672-.763451-.138672-1.21875 0-.439777.0429-.835678.130859-1.1875.09313-.351822.225747-.649407.396484-.892578.175911-.248345.393652-.43706.652344-.566406.263866-.134521.644854-.171875.986328-.171875z" fill="#3a3a38"/></svg>