<svg viewBox="0 0 32 32" xmlns="http://www.w3.org/2000/svg"><path d="m3 11h7v17h-7z" fill="#fafafa"/><path d="m3 4h24v6h-24z" fill="#83beec"/><path d="m2 11v17c0 .554.4625411 1.134365 1 1h8v-1-5-1-5-1-5h-1v5h-7v-5zm1 6h7v5h-7zm0 6h7v5h-7z" fill="#3a3a38"/><path d="m3 3c-.554 0-1 .446-1 1v7h1 7 1 17v-7c0-.554-.446-1-1-1zm0 1h7v6h-7zm8 0h8v6h-8zm9 0h7v6h-7z" fill="#0063b1"/><g fill-rule="evenodd"><path d="m15.515625 12.001953a.51187412.51187412 0 0 0 -.513672.511719v17.857422a.51187412.51187412 0 0 0 .886719.347656l3.640625-3.9375 1.919922 4.082031-.01953-.04687c.197909.561415.669926.930052 1.171874 1.082032.501949.151979 1.045418.125671 1.546876-.03711.501457-.162781.97151-.469805 1.269531-.943359s.382499-1.114693.152343-1.767578a.51187412.51187412 0 0 0 -.01562-.03906l-2.273443-5.099617h5.205078a.51187412.51187412 0 0 0 .330078-.902344l-12.972656-10.986328a.51187412.51187412 0 0 0 -.328125-.121094z" fill="#3a3a38"/><path d="m16 13.5625v15.566406l3.3125-3.582031a.48637676.48637676 0 0 1 .796875.123047l2.242187 4.769531a.48637676.48637676 0 0 1 .01953.04492c.08516.241575.250782.377613.519531.458984.268749.08137.628758.07278.949219-.03125.32046-.104026.590604-.296939.734375-.52539s.20028-.491291.05469-.904297l-2.580078-5.785156a.48637676.48637676 0 0 1 .44336-.683594h4.667968z" fill="#fafafa"/></g></svg>