<svg viewBox="0 0 32 32" xmlns="http://www.w3.org/2000/svg"><path d="m13 4v24h7v-24z" fill="#fafafa"/><path d="m13 3v6 4 1 4 1 4 1 4 1h7v-1-4-1-4-1-4-1-4-6zm1 1h5v4 1 4 1 4 1 4 1 4h-5v-4-1-4-1-4-1-4-1z" fill="#3a3a38"/><path d="m14 8v1h5v-1zm0 5v1h5v-1zm0 5v1h5v-1zm0 5v1h5v-1z" fill="#797774"/><g fill="none" stroke="#1e8bcd" stroke-linecap="round" transform="matrix(0 1 -1 0 33 7)"><g transform="matrix(1 0 0 -1 0 47.991364)"><path d="m16.5 26.491364v-7.976272"/><path d="m13.5 21.491364 3-2.998053 3 2.998053" stroke-linejoin="round"/></g><g fill="none" stroke="#1e8bcd" transform="matrix(1 0 0 -1 0 16.000042)"><path d="m16.5 4.500042v7.976272"/><path d="m13.5 9.2749377 3 3.2132773 3-2.988173" stroke-linejoin="round"/></g></g></svg>