<svg viewBox="0 0 32 32" xmlns="http://www.w3.org/2000/svg"><path d="m5 2c-.554 0-1 .446-1 1v26c0 .554.446 1 1 1h20c.554 0 1-.446 1-1v-26c0-.554-.446-1-1-1zm0 1h20v26h-20z" fill="#3a3a38"/><path d="m5 3v26h20v-26z" fill="#fafafa"/><g fill="#797774"><rect height="1" ry=".262712" width="16" x="7" y="11"/><rect height="1" ry=".5" width="16" x="7" y="15"/><rect height="1" ry=".47603" width="16" x="7" y="19"/><rect height="1" ry=".5" width="16" x="7" y="23"/><rect height="1" ry=".5" width="16" x="7" y="7"/></g><path d="m28 18a8 8 0 0 1 -8 8 8 8 0 0 1 -8-8 8 8 0 0 1 8-8 8 8 0 0 1 8 8z" fill="#ed8733"/><path d="m27 18a7 7 0 0 1 -7 7 7 7 0 0 1 -7-7 7 7 0 0 1 7-7 7 7 0 0 1 7 7z" fill="#f8db8f"/></svg>