<svg height="32" viewBox="0 0 32 32" width="32" xmlns="http://www.w3.org/2000/svg" xmlns:xlink="http://www.w3.org/1999/xlink"><linearGradient id="a" gradientUnits="userSpaceOnUse" x1="4.499959" x2="4.499959" y1="14.750033" y2="8.750018"><stop offset="0" stop-color="#2a9240"/><stop offset="1" stop-color="#32d74b"/></linearGradient><g transform="matrix(1.33333 0 0 1.33333 1.00007 .33334)"><path d="m14.5 2c-.277001 0-.5.2230007-.5.5 0 .2770006.222999.5.5.5h14c.277001 0 .5-.2229994.5-.5 0-.2769993-.222999-.5-.5-.5zm0 3c-.277001 0-.5.2229994-.5.5 0 .2769993.222999.5.5.5h14c.277001 0 .5-.2230007.5-.5 0-.2770006-.222999-.5-.5-.5zm2 5c-.277001 0-.5.223-.5.5s.222999.5.5.5h12c.277001 0 .5-.223.5-.5s-.222999-.5-.5-.5zm0 3c-.277001 0-.5.223-.5.5s.222999.5.5.5h12c.277001 0 .5-.223.5-.5s-.222999-.5-.5-.5zm0 5c-.277001 0-.5.223001-.5.5 0 .277001.222999.5.5.5h12c.277001 0 .5-.222999.5-.5 0-.276999-.222999-.5-.5-.5zm0 3c-.277001 0-.5.222999-.5.5 0 .276999.222999.5.5.5h12c.277001 0 .5-.223001.5-.5 0-.277001-.222999-.5-.5-.5zm-2 5c-.277001 0-.5.223001-.5.5 0 .277001.222999.5.5.5h14c.277001 0 .5-.222999.5-.5 0-.276999-.222999-.5-.5-.5zm0 3c-.277001 0-.5.222999-.5.5 0 .276999.222999.5.5.5h14c.277001 0 .5-.223001.5-.5 0-.277001-.222999-.5-.5-.5z" fill="#3a3a38" transform="matrix(.75000188 0 0 .75000188 -1.500056 -.250006)"/><path d="m4.4999588 8.7500174v2.2500056h-2.2500057v1.500004h2.2500057v2.250006h1.5000037v-2.250006h2.2500057v-1.500004h-2.2500057v-2.2500056z" fill="url(#a)" stroke-width=".750002"/></g></svg>