<svg viewBox="0 0 32 32" xmlns="http://www.w3.org/2000/svg"><g transform="translate(0 2)"><path d="m4 10c-.554 0-1 .446-1 1v10c0 .554.446 1 1 1h10v-1h-10v-10h10v-1zm13 0v1h10v10h-10v1h10c.554 0 1-.446 1-1v-10c0-.554-.446-1-1-1z" fill="#3a3a38" transform="translate(0 -2)"/><path d="m4 11v10h10v-2.474609l.002.05078c-.02199-.42958.160924-.897509.466797-1.179688.305826-.282177.676012-.396483 1.031203-.396483s.725366.114305 1.03125.396484c.305884.28218.488819.750073.466797 1.179688l.001953-.050781v2.474609h10v-10h-10v2.474609l-.002-.05078c.02202.429615-.160913.897508-.466797 1.179688-.305837.282178-.676012.396483-1.031203.396483s-.725377-.114306-1.03125-.396484c-.305873-.282179-.488784-.750108-.466797-1.179688l-.001953.050781v-2.474609z" fill="#fafafa" transform="translate(0 -2)"/><g fill="#1e8bcd" fill-rule="evenodd"><path d="m12.000033 3.484375c-.0115.454318.540283.686847.857422.361328l2.144531-2.148437-.0018 9.777343c-.017923.350177.241538.525391.500027.525391s.51795-.175214.5-.525391l-.0022-9.777343 2.144531 2.148437c.317139.325519.868926.09299.857422-.361328-.0041-.130048-.05875-.25337-.152344-.34375l-2.912112-2.916016c-.160579-.173289-.266359-.223009-.435477-.224609-.169118.0016-.274898.05132-.435547.224609l-2.912109 2.916016c-.09359.09038-.148244.213702-.152344.34375z"/><path d="m12.000033 24.515625c-.0115-.454318.540283-.686847.857422-.361328l2.144531 2.148437-.0018-9.777343c-.017923-.350177.241538-.525391.500027-.525391s.51795.175214.5.525391l-.0022 9.777343 2.144531-2.148437c.317139-.325519.868926-.09299.857422.361328-.0041.130048-.05875.25337-.152344.34375l-2.912112 2.916016c-.160579.173289-.266359.223009-.435477.224609-.169118-.0016-.274898-.05132-.435547-.224609l-2.912109-2.916016c-.09359-.09038-.148244-.213702-.152344-.34375z"/></g></g></svg>