<svg height="32" viewBox="0 0 8.4666665 8.4666669" width="32" xmlns="http://www.w3.org/2000/svg"><g transform="translate(0 -288.53332)"><g stroke-width=".264583"><path d="m1.0583333 289.59167c-.14657912 0-.26458329.118-.26458329.26458v1.05833 5.02709c0 .14658.11800417.26458.26458329.26458h6.0854167c.1465792 0 .2645833-.118.2645833-.26458v-5.02709-1.05833c0-.14658-.1180041-.26458-.2645833-.26458zm0 .26458h6.0854167v1.05833 1.05834.26458 1.05833.26459 1.05833.26458 1.05834h-1.3229167-.2645833-1.3229167-.2645833-1.3229167-.2645833-1.3229167v-1.05834-.26458-1.05833-.26459-1.05833-.26458-1.05834-.26458z" fill="#3a3a38"/><path d="m1.0583333 289.85625h6.0854167v6.08542h-6.0854167z" fill="#fafafa"/><path d="m2.38125 289.85625v1.32292h-1.3229167v.26458h1.3229167v1.32292h-1.3229167v.26458h1.3229167v1.32292h-1.3229167v.26458h1.3229167v1.32292h.2645833v-1.32292h1.3229167v1.32292h.2645833v-1.32292h1.3229167v1.32292h.2645833v-1.32292h1.3229167v-.26458h-1.3229167v-1.32292h1.3229167v-.26458h-1.3229167v-1.32292h1.3229167v-.26458h-1.3229167v-1.32292h-.2645833v1.32292h-1.3229167v-1.32292h-.2645833v1.32292h-1.3229167v-1.32292zm.2645833 1.5875h1.3229167v1.32292h-1.3229167zm1.5875 0h1.3229167v1.32292h-1.3229167zm-1.5875 1.5875h1.3229167v1.32292h-1.3229167zm1.5875 0h1.3229167v1.32292h-1.3229167z" fill="#797774"/></g><path d="m2.6458333 295.94167v-6.08542h1.3229167v6.08542z" fill="#f8db8f" opacity=".5" stroke-width=".108016"/><path d="m2.38125 295.94167c0 .14658.1180042.26458.2645833.26458h1.3229167c.1465792 0 .2645833-.118.2645833-.26458v-6.08542c0-.14658-.1180041-.26458-.2645833-.26458h-1.3229167c-.1465791 0-.2645833.118-.2645833.26458zm.2645833 0v-1.32292h1.3229167v1.32292zm0-1.5875v-1.32292h1.3229167v1.32292zm0-1.5875v-1.32292h1.3229167v1.32292zm0-1.5875v-1.32292h1.3229167v1.32292z" fill="#ed8733" stroke-width=".264583"/></g></svg>