<svg viewBox="0 0 32 32" xmlns="http://www.w3.org/2000/svg"><path d="m6 3v26h19.998047v-8.716797l-3.228516 5.908203c-.131092.226141-.312962.41871-.53125.5625l-1.865234 1.232422c-1.159597.766812-2.696791-.120119-2.613281-1.507812l.134765-2.232422c.015599-.261325.091831-.51543.222657-.742188l5.5-10.0625 1.5-2.597656c.200468-.346786.519096-.590631.882812-.724609v-.119141l-7-7z" fill="#fafafa"/><path d="m5.9980469 2c-.554 0-1 .446-1 1v26c0 .554.446 1 1 1h20.0000001c.554 0 .892483-.456533 1-1v-10.109375-.435547l-1 1.830078v8.714844h-20.0000001v-26h13.0000001v6c0 .6726441.491378 1 1 1h6v.119141c.197169-.072871.403925-.1226106.621094-.117188.128566.00323.255347.026674.378906.058594v-1.6757814l-6.507813-6.3847656z" fill="#3a3a38"/><path d="m20 9h6l-6-6z" fill="#fafafa" fill-rule="evenodd"/><path d="m16.440678 22.940678c-.0057.119919.0045.24168-.01724.359757-1.48276 2.140243-3.174194 2.413727-4.733998 2.037374-1.08594-.278714-2.330522-.545396-3.355744-.719062 0-.01997.0458.01412.05992 0s-.0089-.04206 0-.05992c.01263-.02527.04729-.03466.05992-.05992.0089-.01787-.0089-.04206 0-.05992.457105-.462145 1.140881-.688255 1.67787-.898839.179773-.05992.359546-.119849.539319-.179773 1.241581-.402159 2.445893-.492944 3.715307-.599217h.239697c.488932-.000101 1.030634 0 1.498108 0 .114145.04124.195859.189602.316841.17952.155503-.01296.263683-.167693.402227-.239486.02341-.01213.278159 0 .299622 0l1.195432-.01695" fill="none" stroke="#1e8bcd" stroke-width=".5"/><path d="m17.008475 21.754237c.005.0072.255373.243013.220562.382255-.01532.06128-.04954.117466-.05992.179773-.11713 1.033768-.239689 1.946212-.239689 3.056139 0 .01424-.0067.226267 0 .239697.888459 1.257965.646134.942924.119835.599231-.05911-.0099-.119848 0-.179773 0-.591709.06282-1.361015.0429-1.737791-.11984-.02527-.01263-.03995-.03995-.05992-.05992s-.04729-.03466-.05992-.05992c-.0016-.0031-.0016-.176638 0-.179773.01263-.02527.03466-.04729.05992-.05992.338285-.236911.436696-.254998.898856-.239689.420371.03049.607917.205084.898826.35952.01412.01412-.0089.04206 0 .05992" fill="none" stroke="#1e8bcd" stroke-width=".5"/><g fill="#3a3a38"><path d="m25.077088 14.286323 1.732051 1-5.5 10.062178-1.732051-1z" stroke="#3a3a38" stroke-linecap="round" stroke-linejoin="round"/><path d="m26.577088 11.688247 1.732051 1-1.5 2.598076-1.732051-1z" stroke="#3a3a38" stroke-linecap="round"/><path d="m28.480047 13.365635-.5.866025.360402.142839-2 3.464103.866025.5 2.500001-4.330128-.866026-.5z"/><path d="m19.577088 24.348501-.133975 2.232051 1.866025-1.232051z" stroke="#3a3a38" stroke-linecap="round" stroke-linejoin="round"/></g></svg>