<svg viewBox="0 0 32 32" xmlns="http://www.w3.org/2000/svg"><path d="m4 4v9.585938l1.7070312 1.707031c.1951841.195265.2929688.451148.2929688.707031 0-.255883.0977847-.511766.2929688-.707031l2-2c.1802738-.180526.4227243-.285332.6777343-.292969.5636664-.016463 1.0294809.436093 1.0292969 1v4c-.0003496.890637-1.0770368 1.336587-1.7070312.707031l-2-2c-.1951841-.195265-.2929688-.451148-.2929688-.707031 0 .255883-.0977847.511766-.2929688.707031l-1.7070312 1.707031v9.585938h15v-4c0-.541398.030527-1.063623.080078-1.570312a5.5 5.5 0 0 1 -.080078-.929688 5.5 5.5 0 0 1 5.5-5.5 5.5 5.5 0 0 1 3.5 1.259766v-13.259766h-14.585938l-1.707031 1.7070312c-.39053.3903681-1.023532.3903681-1.414062 0l-1.7070315-1.7070312zm6.984375 2c.270603-.00414.531333.1015569.722656.2929688l2 2c.629556.6299944.183606 1.7066816-.707031 1.7070312h-4c-.8906368-.0003495-1.3365873-1.0770367-.7070312-1.7070312l2.0000002-2c.183666-.1837562.431632-.2888266.691406-.2929688z" fill="#fafafa"/><path d="m6 5c-.554 0-1 .446-1 1s.446 1 1 1 1-.446 1-1-.446-1-1-1zm5 0c-.554 0-1 .446-1 1s.446 1 1 1 1-.446 1-1-.446-1-1-1zm5 0c-.554 0-1 .446-1 1s.446 1 1 1 1-.446 1-1-.446-1-1-1zm5 0c-.554 0-1 .446-1 1s.446 1 1 1 1-.446 1-1-.446-1-1-1zm5 0c-.554 0-1 .446-1 1s.446 1 1 1 1-.446 1-1-.446-1-1-1zm-20 5c-.554 0-1 .446-1 1s.446 1 1 1 1-.446 1-1-.446-1-1-1zm5 0c-.554 0-1 .446-1 1s.446 1 1 1 1-.446 1-1-.446-1-1-1zm5 0c-.554 0-1 .446-1 1s.446 1 1 1 1-.446 1-1-.446-1-1-1zm5 0c-.554 0-1 .446-1 1s.446 1 1 1 1-.446 1-1-.446-1-1-1zm5 0c-.554 0-1 .446-1 1s.446 1 1 1 1-.446 1-1-.446-1-1-1zm-20 5c-.554 0-1 .446-1 1s.446 1 1 1 1-.446 1-1-.446-1-1-1zm5 0c-.554 0-1 .446-1 1s.446 1 1 1 1-.446 1-1-.446-1-1-1zm5 0c-.554 0-1 .446-1 1s.446 1 1 1 1-.446 1-1-.446-1-1-1zm5 0c-.554 0-1 .446-1 1s.446 1 1 1 1-.446 1-1-.446-1-1-1zm5 0c-.554 0-1 .446-1 1 0 .009056.005623.016394.005859.025391a5.5 5.5 0 0 1 1.824219.5c.098097-.154759.169922-.327841.169922-.525391 0-.554-.446-1-1-1zm-20 5c-.554 0-1 .446-1 1s.446 1 1 1 1-.446 1-1-.446-1-1-1zm5 0c-.554 0-1 .446-1 1s.446 1 1 1 1-.446 1-1-.446-1-1-1zm5 0c-.554 0-1 .446-1 1s.446 1 1 1 1-.446 1-1-.446-1-1-1zm-10 5c-.554 0-1 .446-1 1s.446 1 1 1 1-.446 1-1-.446-1-1-1zm5 0c-.554 0-1 .446-1 1s.446 1 1 1 1-.446 1-1-.446-1-1-1zm5 0c-.554 0-1 .446-1 1s.446 1 1 1 1-.446 1-1-.446-1-1-1z" fill="#1e8bcd"/><path d="m4 3c-.554 0-1 .446-1 1v9c.265199.000051.5195195.105433.7070312.292969l.2929688.292969v-9.585938h4.5859375l-.2929687-.2929688c-.1875364-.1875116-.2929177-.4418322-.2929688-.7070312zm10 0c-.000051.265199-.105433.5195195-.292969.7070312l-.292969.2929688h14.585938v13.259766a5.5 5.5 0 0 1 1 1.089843v-14.349609c0-.554-.446-1-1-1zm-10 15.414062-.2929688.292969c-.1875116.187536-.4418322.292918-.7070312.292969v9c0 .554.446 1 1 1h15v-1h-15z" fill="#3a3a38"/><g fill="#1e8bcd" fill-rule="evenodd"><path d="m11 7 2 2h-4z"/><path d="m11 5 2-2h-4z"/><path d="m7 16 2-2v4z"/><path d="m5 16-2-2v4z"/></g><path d="m24.5 17a4.5 4.5 0 0 0 -4.5 4.5v7.5h3v-7.5a1.5 1.5 0 0 1 1.5-1.5 1.5 1.5 0 0 1 1.5 1.5v7.5h3v-7.5a4.5 4.5 0 0 0 -4.5-4.5z" fill="#ed3d3b"/><g fill="#1e8bcd"><path d="m-17 21h-4v2h4z" transform="matrix(.75 0 0 1 35.75 6)"/><path d="m29 27h-3v2h3z" stroke-width=".866025"/></g></svg>