<svg viewBox="0 0 32 32" xmlns="http://www.w3.org/2000/svg"><g transform="matrix(1.2642017 0 0 1.2642017 -5.091524 -12.224129)"><path d="m24.905333 13.625099c-.17831.0052-3.289066 2.432872-3.440218 2.527608-4.146578 2.591611-5.714115 5.057001-8.758361 8.728707-.884211 2.153413 1.99576 2.23573 3.347109 2.176021.225572-.01112.440793-.09803.610823-.246678 3.583058-3.122732 4.192351-4.317551 6.164989-7.243715.111173-.165558 3.343998-4.160495 3.34385-4.359917.119133-1.473139-.967877-1.582026-1.268192-1.582026z" fill="#3a3a38"/><path d="m25.050781 14.433594c-.08087.05483-.167476.113094-.287109.199218-.30938.222725-.715651.52792-1.123047.835938s-.816561.620001-1.132813.861328c-.158125.120664-.292229.223521-.394531.300781s-.09814.08477-.240234.173829c-3.97749 2.48593-5.478452 4.823126-8.460938 8.435546-.106588.303818-.103012.463317-.06641.53125.04118.07642.173273.199158.458985.302735.570424.206792 1.576683.240728 2.21289.21289.0537-.0026.09821-.02127.138672-.05664a.77018142.77018142 0 0 1 .002 0c3.542337-3.087242 4.047387-4.148037 6.033203-7.09375.09588-.142787.108558-.146218.208985-.273438.100426-.12722.23707-.299483.396484-.5.318828-.401034.733168-.919399 1.142578-1.439453.409411-.520054.813326-1.04141 1.111328-1.4375.140553-.186816.252558-.339702.330078-.451172-.0031-.329324-.06036-.494827-.132812-.546875-.0502-.03606-.121562-.03937-.197266-.05469z" fill="#fafafa"/><g transform="matrix(.79101302 0 0 .79101302 .06326 8.089893)"><path d="m15.15625 22.009766c-.05604.000193-.11062.0048-.166016.01367-.861141.14117-1.823873.440633-2.632812 1.128906-.799494.680238-1.156748 1.31455-1.664063 1.982422-.0022.0037-.0037.006-.0059.0098l-1.4453125 1.947266c-.574829.775025-.048639 1.902781.8886715 1.904297h3.339844c.01741-.000357.0334-.000628.05078-.002 1.992813-.09787 3.805246-.876425 4.972657-2.089844.07973-.0831.14637-.17727.199218-.28125.313645-.615499.331828-1.216374.269532-1.785156-.0623-.568779-.212142-1.111696-.56836-1.617188-.000739-.0015-.0011-.0043-.002-.0059-.458211-.642967-1.139791-1.088959-1.796875-1.199219-.547311-.03276-.91274-.01591-1.439453-.0059z" fill="#0063b1"/><path d="m11.53125 25.683594c-.0054.0071-.0083.01234-.01367.01953a.99948558.99948558 0 0 1 -.02734.04102l-1.447265 1.941406c-.1247191.168155-.046862.308372.08984.308594h3.337891a.99948558.99948558 0 0 1 .002 0c1.180206-.05797 2.27261-.395107 3.15625-.908203z" fill="#83beec"/><path d="m15.146484 23.009766c-.753286.123841-1.52266.37685-2.142578.904296-.340375.289605-.582615.567665-.808594.863282l5.472657 1.527344c.03333-.03256.07156-.06248.103515-.0957.01201-.01279.0216-.02393.0293-.03906v-.002c.202079-.396561.223324-.752911.171875-1.222657-.05066-.462489-.157358-.811056-.396484-1.15039-.308606-.433039-.791414-.716625-1.126953-.779297-.448951-.02291-.769348-.01545-1.271485-.0059-.0059.000052-.01172.000052-.01758 0-.01909.000065-.02444.0018-.01367 0zm2.429688.785156c-.01829-.02715-.03524-.05517-.05078-.08398.0038.0067-.0029-.000419.002.0078z" fill="#fafafa"/></g></g></svg>