<svg height="32" viewBox="0 0 8.4666665 8.4666669" width="32" xmlns="http://www.w3.org/2000/svg"><g transform="translate(0 -288.53332)"><path d="m3.8364583 289.32708a3.0427083 3.0427083 0 0 0 -3.0427083 3.04271 3.0427083 3.0427083 0 0 0 3.0427083 3.04271 3.0427083 3.0427083 0 0 0 .7947835-.10697 1.8520833 1.8520833 0 0 1 -.1333251-.68678 1.8520833 1.8520833 0 0 1 1.8520833-1.85208 1.8520833 1.8520833 0 0 1 .4898924.0682 3.0427083 3.0427083 0 0 0 .039274-.46509 3.0427083 3.0427083 0 0 0 -3.0427084-3.04271zm.7947835 5.97845a3.0427083 3.0427083 0 0 0 2.2081339-2.46755 3.0427083 3.0427083 0 0 1 -2.2081339 2.46755z" fill="#3a3a38" stroke-width=".264583"/><path d="m3.8364583 289.59167a2.778125 2.778125 0 0 0 -2.778125 2.77812 2.778125 2.778125 0 0 0 2.778125 2.77813 2.778125 2.778125 0 0 0 .7162353-.0951 1.8520833 1.8520833 0 0 1 -.054777-.43408 1.8520833 1.8520833 0 0 1 1.8520833-1.85208 1.8520833 1.8520833 0 0 1 .2299602.0176 2.778125 2.778125 0 0 0 .034623-.41445 2.778125 2.778125 0 0 0 -2.7781249-2.77812z" fill="#fafafa"/><path d="m3.7041667 290.38542c-.5847292 0-1.0583334.4736-1.0583334 1.05833h.5291667c0-.29104.238125-.52917.5291667-.52917.2910416 0 .5291666.23813.5291666.52917 0 .14552-.058167.27785-.1560629.3731l-.3281452.33332c-.1905.19314-.3095419.45775-.3095419.74879v.13229h.5291667c0-.39687.1190419-.55565.3095419-.74879l.2382281-.2434c.1508125-.15081.24598-.36248.24598-.59531 0-.58473-.4736042-1.05833-1.0583333-1.05833zm-.2645834 3.43958v.52917h.5291667v-.52917z" fill="#3a3a38" stroke-width=".264583"/><path d="m6.35 293.03125a1.5875 1.5875 0 0 0 -1.5875 1.5875 1.5875 1.5875 0 0 0 1.5875 1.5875 1.5875 1.5875 0 0 0 1.5875-1.5875 1.5875 1.5875 0 0 0 -1.5875-1.5875zm0 .26458a1.3229167 1.3229167 0 0 1 1.3229167 1.32292 1.3229167 1.3229167 0 0 1 -1.3229167 1.32292 1.3229167 1.3229167 0 0 1 -1.3229167-1.32292 1.3229167 1.3229167 0 0 1 1.3229167-1.32292z" fill="#0063b1" stroke-width=".264583"/><circle cx="6.35" cy="294.61874" fill="#fafafa" r="1.322917"/><path d="m5.8208333 293.825 1.3229167.79375-1.3229167.79375z" fill="#0063b1" stroke-width=".264583"/></g></svg>