<svg viewBox="0 0 32 32" xmlns="http://www.w3.org/2000/svg"><g fill="#3a3a38"><path d="m18.408908 4.9755031-6.660926 22.0489939h1.901399l6.602637-22.0489939z"/><path d="m19.189475 8.6684675a.16949497.17450909 0 0 0 -.153657.173828v1.7089845a.16949497.17450909 0 0 0 .100542.160156l11.216999 5.111328a.16949497.17450909 0 0 0 .0057.002l.115718.04687-.125203.0625-11.216999 5.373047a.16949497.17450909 0 0 0 -.09675.158203v1.69336a.16949497.17450909 0 0 0 .239023.158203l12.626475-5.941406a.16949497.17450909 0 0 0 .09864-.158203v-2.666058a.16949497.17450909 0 0 0 -.100506-.160156l-12.626475-5.7089855a.16949497.17450909 0 0 0 -.08347-.01367z"/><path d="m12.81049 8.6684674a.16949497.17450909 0 0 1 .153657.173828v1.7089846a.16949497.17450909 0 0 1 -.100542.160156l-11.2169994 5.111328a.16949497.17450909 0 0 1 -.0057.002l-.115718.04687.125203.0625 11.2169994 5.373047a.16949497.17450909 0 0 1 .09675.158203v1.69336a.16949497.17450909 0 0 1 -.239023.158203l-12.62647541-5.941406a.16949497.17450909 0 0 1 -.09864-.158203v-2.666058a.16949497.17450909 0 0 1 .100506-.160156l12.62647541-5.7089856a.16949497.17450909 0 0 1 .08347-.01367z"/></g></svg>