<svg viewBox="0 0 32 32" xmlns="http://www.w3.org/2000/svg"><path d="m10.079021 3.5002642s.835729 5.4831985-.3289435 7.8124028c-1.1646732 2.32921-6.2499225 4.029556-6.2499225 4.029556s5.0852493 3.01612 6.2499225 5.345328c1.1646725 2.329213.3289435 7.812404.3289435 7.812404s3.316793-5.263091 5.920979-5.263094c2.604186-.000002 5.920979 5.263094 5.920979 5.263094s-.83573-5.4832.328943-7.812404c1.164673-2.329208 6.249923-5.345328 6.249923-5.345328s-5.08525-1.700346-6.249923-4.029556c-1.164673-2.3292123-.328943-7.8124028-.328943-7.8124028s-3.316793 5.263089-5.920979 5.2630926-5.920979-5.2630926-5.920979-5.2630926z" fill="#fafafa" stroke="#3a3a38" stroke-linecap="round" stroke-linejoin="round" stroke-width="1.000449"/></svg>