<svg viewBox="0 0 32 32" xmlns="http://www.w3.org/2000/svg"><g fill="#3a3a38"><path d="m10 18c-.554 0-1 .446-1 1v6c0 .554.446 1 1 1h2c.554 0 1-.446 1-1v-6c0-.554-.446-1-1-1zm0 1h2v6h-2z"/><path d="m15 12c-.554 0-1 .446-1 1v12c0 .554.446 1 1 1h2c.554 0 1-.446 1-1v-12c0-.554-.446-1-1-1zm0 1h2v12h-2z"/><path d="m20 16c-.554 0-1 .446-1 1v8c0 .554.446 1 1 1h2c.554 0 1-.446 1-1v-8c0-.554-.446-1-1-1zm0 1h2v8h-2z"/></g><path d="m5.5 14.5 10.5-6 5 3 6.5-7" fill="none" stroke="#18ab50" stroke-linecap="round" stroke-linejoin="round"/><path d="m5.5 3c-.277 0-.5.223-.5.5v22.5h-1.5c-.277 0-.5.223-.5.5s.223.5.5.5h1.5v1.5c0 .277.223.5.5.5s.5-.223.5-.5v-1.5h22.5c.277 0 .5-.223.5-.5s-.223-.5-.5-.5h-22.5v-22.5c0-.277-.223-.5-.5-.5z" fill="#3a3a38"/><g fill="#797774" transform="translate(0 -1)"><path d="m20 18h2v8h-2z"/><path d="m10 20h2v6h-2z"/></g><path d="m15 13h2v12h-2z" fill="#797774"/></svg>