<svg viewBox="0 0 32 32" xmlns="http://www.w3.org/2000/svg"><path d="m20.953548 9.89958q-.141934.295063-.340645.427841-.184516.118025-.468386.118025-.269678 0-.581936-.206544-.312259-.206544-.738065-.442594-.411612-.2508031-.965162-.4573471-.553548-.2065438-1.277419-.2065438-1.277419 0-1.930322.6491377-.63871.6491382-.63871 1.6966102 0 .663891.340646 1.106485.354838.427841.922581.75241.581934.309815 1.305805.560619.738065.250803 1.504518.545865.766451.28031 1.490323.678645.738062.383581 1.305805.973707.581935.590124.92258 1.445806.354839.855682.354839 2.080191 0 1.327783-.425806 2.493281-.411614 1.165496-1.220646 2.035932-.809031.855681-1.987096 1.357288-1.163871.501606-2.668388.501606-.851613 0-1.703226-.191789-.837419-.177039-1.618064-.516362-.780645-.339322-1.476129-.811421-.695484-.472101-1.2206449-1.062226l1.1070969-1.844141q.127742-.221297.340645-.354075.227097-.132779.482581-.132779.340645 0 .695483.28031.369033.265557.851613.604879.482581.324568 1.121291.604877.63871.265556 1.51871.265556 1.27742 0 1.987096-.678643.709678-.678644.709678-2.006425 0-.75241-.354838-1.224511-.340646-.472101-.908388-.781917-.567742-.324568-1.305806-.545865-.723872-.23605-1.490323-.501606-.752258-.265557-1.490322-.634385-.723872-.383581-1.291614-1.003213-.567742-.619632-.92258-1.534326-.340646-.914694-.340646-2.271982 0-1.076979.39742-2.094945.397419-1.0327193 1.163871-1.8293882.766452-.7966692 1.873548-1.2687694 1.121291-.4868534 2.554839-.4868534 1.618066 0 2.994839.5458659 1.390968.545866 2.370322 1.5343258z" fill="#3a3a38" stroke-width=".77"/></svg>