<svg viewBox="0 0 32 32" xmlns="http://www.w3.org/2000/svg"><path d="m9.6147442 15.840491-3.4601664-5.84049h1.9976218q.2378121 0 .3448276.08589.1189061.08589.2140309.233129l2.4256839 4.355827q.04756-.134969.09512-.257667.05946-.13497.154578-.26994l2.033293-3.77914q.107015-.17178.225922-.26994.118911-.09816.285379-.09816h1.914387l-3.472056 5.730062 3.626635 6.269938h-2.009512q-.237813.000001-.392391-.134969-.142687-.14724-.237812-.306749l-2.461355-4.539875q-.09512.282206-.214031.478525l-2.2235436 4.06135q-.095125.17178-.2378121.306749-.1307966.13497-.3567182.13497h-1.8668251z" fill="#3a3a38" stroke-width=".666667"/><path d="m20.385386 17.265444c.377335 0 .719808.05375 1.027418.161257.311712.103665.576257.251484.793636.443456.221479.191973.39169.424259.510633.696859.123044.268762.184566.566319.184566.892672 0 .280279-.04307.541362-.129196.783247-.08613.238046-.200973.466492-.344524.685341-.143552.215009-.311712.426178-.504481.633509-.192769.20349-.395792.408901-.60907.616231l-1.734922 1.717054 2.922299-.0025c.155856 0 .280951.04224.375285.126702.09843.08444.147653.195783.147653.334004v.646724h-5.524683v-.466492c0-.08831.01846-.182374.05537-.2822.04102-.103665.11074-.199651.209176-.287958l2.374752-2.286391c.200971-.195811.377335-.382024.529089-.558639.155858-.176615.285054-.35131.38759-.524085.106639-.176614.186616-.353229.239935-.529844.05332-.180453.07998-.368586.07998-.564398 0-.353229-.09433-.62007-.283002-.800524-.188668-.180455-.455264-.270681-.799787-.270681-.147653 0-.283002.02111-.406046.06335-.123045.04224-.233784.09983-.332218.172777-.09844.07295-.182518.159341-.252242.259167-.06973.09983-.123045.20733-.159958.322514-.06563.176614-.155856.291797-.270698.34555-.110739.05375-.264545.06527-.461415.03455l-.787482-.126696c.06152-.372426.172263-.69686.33222-.9733.159957-.28028.358879-.512566.596765-.69686.241986-.188133.518835-.328272.830546-.420419.311712-.09599.645983-.143979 1.002813-.143979z" fill="#1e8bcd" stroke-width=".552468"/></svg>