<svg viewBox="0 0 32 32" xmlns="http://www.w3.org/2000/svg"><path d="m9.9515351 3.5088252c.04853.4383294.2017299 2.0005113.2990669 3.9479985.05595 1.1194106.09106 2.3279058.04883 3.2981343-.02111.485036-.08669.887408-.149528 1.250912-.06284.363503-.113654.645572-.2502391.848179-.2312829.343508-.4245469.571602-.6500181.649864-.2254696.079667-.4322926-.016332-.6500123-.100674-.4354394-.177929-.9943161-.464437-2.0507464-.448503-1.055254.01562-1.8021729.356899-2.2979345.900046-.4957619.543303-.7503373 1.309208-.7507202 2.147906.0003829.838855.2549583 1.555787.7507202 2.09909.4957616.543305 1.2426805.883958 2.2979345.900046 1.0564303.01563 1.615307-.273622 2.0507464-.451548.2177197-.08593.4245427-.175892.6500123-.09762.2254712.07967.4187352.306511.6500141.649865.1365761.202761.1873901.484675.2502401.848177.06284.36335.128419.814536.149528 1.29973.04223.970383.0072 2.129907-.04883 3.249317-.0989 1.979043-.2545504 3.596758-.2990669 3.996814.2717109-.000936.5532469-.03787.7995479-.04883.476743-.02031.905493-.09318 1.248146-.152555.342654-.05781.573228-.112564.701892-.198314.319584-.215107.456592-.382116.497429-.500369.04086-.117144.03219-.250421-.04883-.448496-.162009-.396153-.517794-1.02858-.50048-2.150958.01732-1.123942.388032-1.939849 1.000959-2.498774.612929-.558767 1.448207-.847709 2.349814-.848177.901604.000468 1.736886.28941 2.349814.848177.612927.558925.983632 1.374832 1.00096 2.498774.01731 1.122378-.338472 1.754805-.50048 2.150958-.08101.198075-.08967.330087-.04884.448496.04086.117158.177845.285262.497427.500367.12869.08748.359227.139109.701892.198314.342668.05937.7714.132246 1.248148.152555.246303.01563.527836.04726.799549.04882-.0445-.400056-.200168-2.017772-.299067-3.996815-.05592-1.11941-.09104-2.278933-.04884-3.249317.02113-.485194.08667-.93638.149532-1.299729.06284-.363503.113669-.645417.250239-.848177.231276-.343355.424542-.571447.650011-.649865.225472-.07809.432292.01329.650012.09762.435441.177925.994319.46748 2.050747.451547 1.055258-.01563 1.802173-.356741 2.297936-.900045.495758-.543304.750338-1.260236.75072-2.09909-.000362-.838688-.254942-1.604594-.7507-2.147897-.495752-.543144-1.242668-.883953-2.297924-.900043-1.056429-.01562-1.615307.270574-2.050746.448499-.217721.08436-.424542.178944-.650015.100667-.225469-.07966-.418734-.306349-.650011-.649858-.136588-.202606-.187394-.484675-.250239-.848179-.06285-.363504-.128428-.765875-.14953-1.250911-.04223-.9702288-.0069-2.1787238.04883-3.2981346.09734-1.9474871.25054-3.5096691.299065-3.9479983-.271428.0009375-.553485-.015621-.799548 0-.476748.020307-.905481.090138-1.248147.1494989-.342665.057797-.573206.1156058-.701894.2013663-.319582.215103-.456579.3819564-.497426.5003645-.04086.1171586-.03217.2504215.04883.4484975.162009.3963081.517791 1.025059.50048 2.1479064-.01731 1.1234736-.388032 1.9400051-1.000962 2.4987731-.612922.5589272-1.448202.8507642-2.349807.8512332-.901616-.000469-1.736893-.292306-2.349823-.8512306-.612926-.5587679-.983627-1.3752995-1.000959-2.4987716-.01732-1.1228474.338471-1.7515981.50048-2.1479064.081-.198076.08966-.3318075.04882-.4484974-.04085-.1171587-.177845-.2852615-.497429-.5003646-.12867-.087479-.359239-.1421617-.701893-.2013663-.342654-.057798-.771403-.1291915-1.248148-.1494989-.246061-.015621-.52812.00157-.7995469 0z" fill="#fafafa" stroke="#3a3a38" stroke-width="1.000467"/></svg>