<svg viewBox="0 0 32 32" xmlns="http://www.w3.org/2000/svg"><path d="m4 8.990403v8h24v-8z" fill="#fafafa"/><path d="m3 8.990403v8c0 .554.446 1 1 1h24c.554 0 1.134365-.462541 1-1v-8h-1-7-1-8-1-7zm1 1h7v3h-7zm8 0h8v3h-8zm9 0h7v3h-7zm-17 4h7v3h-7zm8 0h8v3h-8zm9 0h7v3h-7z" fill="#3a3a38"/><g fill="none" stroke="#1e8bcd" stroke-linecap="round" stroke-linejoin="round"><path d="m28.502491 27.490403v-7.990316" stroke-width="1.004882"/><path d="m3.5024912 27.490403v-7.990316" stroke-width="1.004882"/><path d="m3.5071212 23.485353h24.9928788"/></g></svg>