<svg viewBox="0 0 32 32" xmlns="http://www.w3.org/2000/svg"><path d="m3 4v22h22l-6.8125-6.8125-2.931641.779297c-.733587.193552-1.407122-.468186-1.226562-1.205078l.736328-2.996094zm4 9.5 8.5 8.5h-8.5z" fill="#3a3a38"/><rect fill="#ed8733" height="4" ry="1" width="25" x="3" y="24"/><path d="m4 25h23v2h-23z" fill="#f8db8f"/><g fill="#ed8733" transform="translate(0 2)"><g transform="translate(1 8)"><path d="m5 14h1v2h-1z"/><path d="m8 14h1v2h-1z"/><path d="m11 14h1v2h-1z"/><path d="m14 14h1v2h-1z"/><path d="m17 14h1v2h-1z"/></g><path d="m18 22h1v2h-1z"/><path d="m21 22h1v2h-1z"/><path d="m24 22h1v2h-1z"/></g><g fill="#fb983b" transform="matrix(1.1667513 0 0 1.1666667 2.165736 -7.833333)"><path d="m25.623047 17-8.513672 8.490234-1.109375 4.509766 4.441406-1.179688 7.308594-7.294921-3.322266-3.324219 1.199219-1.197266zm-1.197266 2.519531 2.003907 2.00586-5.751954 5.738281-2.009765-2.009766zm-6.464843 6.441407 2.009765 2.009765-.01172.01172-2.675781.710937.669922-2.726562z" fill="#0063b1" transform="matrix(.85708068 0 0 .85714283 -2.713291 -2.714286)"/><path d="m26.990234 16c-.221171 0-.439899.08465-.609375.253906l-1.953125 1.947266 3.322266 3.324219 1.996094-1.91211c.338948-.338481.338948-.88222 0-1.220703l-2.142578-2.138672c-.169476-.169241-.39211-.253906-.613282-.253906zm0 .998047 2.00586 2.003906-1.232422 1.179688-1.978516-1.980469z" fill="#0063b1" transform="matrix(.85708068 0 0 .85714283 -2.713291 -2.714286)"/><g fill="#83beec"><path d="m20.419922 11.855469-1.033203 1.03125 1.695312 1.697265 1.056641-1.011718z"/><path d="m24.425781 19.519531-5.757812 5.734375 2.009765 2.009766 5.751954-5.738281zm-6.464843 6.441407-.0078.0059-.669922 2.726562 2.675781-.710937.01172-.01172z" stroke-width="1.166709" transform="matrix(.85708068 0 0 .85714283 -2.713291 -2.714286)"/></g></g></svg>