<svg viewBox="0 0 32 32" xmlns="http://www.w3.org/2000/svg"><path d="m16 20h13v9h-13z" fill="#fafafa"/><path d="m7 4v24h7v-11c0-.554.446-1 1-1h10v-12z" fill="#fafafa"/><path d="m7 3c-.554 0-1 .446-1 1v24c0 .554.446 1 1 1h7v-1h-7v-24h18v12h1v-12c0-.554-.446-1-1-1z" fill="#3a3a38"/><path d="m15 17v13h15v-13zm1 3h6 1 6v4 1 4h-6-1-6v-4-1z" fill="#3a3a38"/><path d="m15 17h15v3h-15z" fill="#0063b1"/><path d="m15 8c-3.175637 0-5 2.574363-5 5.75.0027.08342.0073.166776.01367.25h.99414c-.004796-.08325-.007401-.166613-.00781-.25 0-2.623353 1.376647-4.75 4-4.75 2.332727.00143 3.690709 2 5.4375 4h-3.9375c-.277 0-.5.223-.5.5s.223.5.5.5h3.988281 1.003907.0078c.277 0 .5-.223.5-.5v-5c.000012-.277-.222988-.5-.499988-.5s-.5.223-.5.5v3.5c-1.5-2.2949539-3.729418-3.9983684-6-4z" fill="#1e8bcd"/><path d="m22 20v4h-6v1h6v4h1v-4h6v-1h-6v-4z" fill="#797774"/><path d="m16 18h13v1h-13z" fill="#83beec" stroke-width=".537484"/></svg>