<svg height="32" viewBox="0 0 8.4666665 8.4666669" width="32" xmlns="http://www.w3.org/2000/svg"><g transform="translate(0 -288.53332)"><g stroke-width=".264583"><path d="m1.0583333 289.59167h6.35v6.35h-6.35z" fill="#fafafa"/><path d="m2.38125 289.59167v1.05833h-1.3229167v.26458h1.3229167v.59583.46251h.2645833v-.0894-.96894h1.3229167v1.05834h.2645833v-1.05834h1.3229167v1.05834h.2645833v-1.05834h1.5875v-.26458h-1.5875v-1.05833h-.2645833v1.05833h-1.3229167v-1.05833h-.2645833v1.05833h-1.3229167v-1.05833zm0 5.02708v.52917.79375h.2645833v-1.2268-.0961zm1.5875 0v1.32292h.2645833v-1.32292zm1.5875 0v1.32292h.2645833v-1.32292z" fill="#797774"/><path d="m.79375 289.32708v.26459 1.32291 1.63815 1.81022 1.57872c0 .14658.11800417.26458.2645833.26458h6.35c.1465792 0 .2645834-.118.2645834-.26458v-1.5875-.30696-1.50792-.26458-1.36013-1.32291-.26459h-.2645834-6.35zm.2645833.26459h1.3229167.2645833 1.3229167.2645833 1.3229167.2645833 1.5875v1.05833.26458 1.05834.26458.0372 2.03708.0424.26458 1.32292h-1.5875-.2645833-1.3229167-.2645833-1.3229167-.2645833-1.3229167v-1.32292-2.64583-1.05834-.26458z" fill="#3a3a38"/><path d="m1.0583333 291.97292v.26458h6.35v-.26458zm0 2.38125v.26458h6.35v-.26458z" fill="#0063b1"/></g><path d="m.79374999 291.9729h.26458331v2.64583h-.26458331z" fill="#0063b1"/><path d="m7.4083334 291.9729h.2645833v2.64583h-.2645833z" fill="#0063b1"/><g fill="#1e8bcd"><path d="m7.5117188 16c-.135292-.0019-.2656759.05086-.3613282.146484l-1.9453125 1.947266c-.1255445.09252-.2006248.238437-.203125.394531-.0000759.0038-.0000151.0079 0 .01172h-.0019531c-.0000151.0038-.000076.0079 0 .01172.0025.156056.07758.301933.203125.394531l1.9453125 1.947266c.0956523.09562.2260362.148372.3613281.146482.4430022-.0076.6597668-.542902.3457032-.855469l-1.140625-1.142578 6.7773442-.0078c.277144.003767.502411-.218247.505859-.494153h.001953c-.0034-.275943-.228714-.49792-.505859-.494141l-6.7773441-.0078 1.140625-1.142578c.314064-.312541.0972997-.847922-.3457031-.855481z" transform="matrix(.26458333 0 0 .26458333 0 288.53332)"/><path d="m6.4791813 292.76665c.035796-.0005.070293.0135.095601.0388l.5146973.51521c.033217.0245.053082.0631.053743.10439.0000201.001.000004.002 0 .003h.0005167c.000004.001.0000201.002 0 .003-.0006614.0413-.020526.0799-.053743.10439l-.5146972.51521c-.025308.0253-.059805.0393-.095601.0388-.117211-.002-.1745633-.14364-.091467-.22634l.3017903-.30231-1.7931723-.002c-.073328.00099-.1329295-.0577-.1338418-.13075h-.0005167c.0008995-.073.060514-.13174.1338418-.13074l1.7931723-.002-.3017904-.30231c-.083096-.0827-.025744-.22435.091467-.22635z" stroke-width=".264583"/></g></g></svg>