<svg viewBox="0 0 32 32" xmlns="http://www.w3.org/2000/svg"><g fill-rule="evenodd"><path d="m2 2v14l14-14zm1 1h10l-10 10z" fill="#3a3a38"/><path d="m3 3h10l-10 10z" fill="#fafafa"/><path d="m2 2v14l14-14zm1 1h10l-10 10z" fill="#3a3a38"/></g><g fill="#1e8bcd"><path d="m16.722656 3.0214844c-.225279 0-.433993.0314699-.644531.0585937l-3.931641 4.1425781c-.08879.322841-.173678.653512-.242187 1.0136719l-.253906 1.3027344-2.1542972.5664065-.1699219.964843h2.0976561l-1.5585936 9.71875c-.075562.453373-.1802666 1.274744-.3125 2.464844-.1133429 1.1901-.2642202 2.12463-.453125 2.804688-.2833572 1.038976-.8114279 1.558594-1.5859375 1.558594-.510043 0-.765625-.264036-.765625-.792969 0-.415591.1612836-.708893.4824219-.878907-.1511239-.680057-.605709-1.019531-1.3613282-1.019531-.4533715 0-.8409712.161284-1.1621094.482422-.3400286.321138-.5097656.79263-.5097656 1.416016 0 .642276.2659884 1.161894.7949219 1.558593.5100429.396701 1.0842862.595704 1.7265625.595704.6233859 0 1.1241435-.066986 1.5019531-.199219.3967001-.113343.7381272-.245361 1.0214844-.396485.2833572-.151123.5558461-.406705.8203125-.765624.264467-.340029.473877-.622924.625-.84961.170015-.207795.339752-.566129.509766-1.076172.170014-.491152.310485-.916472.423828-1.27539.132233-.35892.341642-1.465139.625-3.316407l1.585937-10.029297h2.748047l.199219-1.3886714h-2.720703c.018893-.2077952.048157-.737819.085937-1.5878906.037782-.8500716.150939-1.6233178.339844-2.3222656.264467-.944524.830257-1.4179688 1.699219-1.4179688.831181 0 1.246094.3602868 1.246094 1.078125 0 .3400287-.226316.6795027-.679688 1.0195313.188905.6800572.614224 1.0195312 1.275391 1.0195312.453371 0 .85983-.1885966 1.21875-.5664062.358918-.3778096.539062-.897427.539062-1.5585938s-.303708-1.2080971-.908203-1.6425781c-.585605-.4533715-1.302272-.6816406-2.152344-.6816406z"/><path d="m19.243194 26.937592q0 .708393 1.048422.7934l-.141679 1.048422h-3.995336l-.283358-.538379q.765065-1.473457 3.570301-4.307029l1.756815-1.785151-1.643472-3.76865q-.368364-.878408-.765064-1.076758-.368365-.226686-1.161765-.226686l-.141679-.935078 2.975251-.821736.708393.623386 1.9835 4.618722q2.32353-2.3802 2.32353-3.145265 0-.765064-.906744-.935079v-.935078h3.768651l.453372.510043q.113343.113342-1.076758 1.501793-1.161764 1.38845-2.493543 2.720229l-1.530129 1.530129 1.983501 4.533715q.283357.59505.425035.651722.141679.02833.481708.02833.340028 0 1.246771-.538378l.283357.906743q-1.841821 1.5868-2.946914 1.5868-.765065 0-1.190101-.708393-.170014-.255022-.3967-.765065l-1.813486-4.108679q-2.521879 2.521879-2.521879 3.541965z"/></g></svg>