<svg height="32" viewBox="0 0 8.4666665 8.4666669" width="32" xmlns="http://www.w3.org/2000/svg"><g stroke-width=".264583" transform="translate(0 -288.53332)"><path d="m1.0583333 289.59165h6.35v6.35h-6.35z" fill="#ff9f0a"/><path d="m1.0583333 289.32707c-.14657913 0-.2645833.118-.2645833.26458v1.32292 5.02708c0 .14658.11800417.26459.2645833.26459h6.35c.1465792 0 .2645834-.11801.2645834-.26459v-5.02708-1.32292c0-.14658-.1180042-.26458-.2645834-.26458zm0 .26458h6.35v1.32292 1.05833.26459 1.05833.26458 1.05834.26458 1.05833h-1.5875-.2645833-1.3229167-.2645833-1.3229167-.2645833-1.3229167v-1.05833-.26458-1.05834-.26458-1.05833-.26459-1.05833-.26458z" fill="#3a3a38"/><path d="m1.0583333 289.59165h6.35v6.35h-6.35z" fill="#fafafa"/><path d="m2.38125 289.59165v1.05834h-1.3229167v.26458h1.3229167v1.05833h-1.3229167v.26459h1.3229167v1.05833h-1.3229167v.26458h1.3229167v1.05834h-1.3229167v.26458h1.3229167v1.05833h.2645833v-1.05833h.0062a5.8208333 3.5974726 0 0 1 -.0062-.10645 5.8208333 3.5974726 0 0 1 .012919-.15813h-.012919v-1.05834h.3503663a5.8208333 3.5974726 0 0 1 .1715656-.26458h-.5219319v-1.05833h1.3229167v.2589a5.8208333 3.5974726 0 0 1 .2645833-.18242v-.0765h.1152385a5.8208333 3.5974726 0 0 1 .473356-.26459h-.5885945v-1.05833h1.3229167v.75189a5.8208333 3.5974726 0 0 1 .2645833-.094v-.65784h1.5875v-.26458h-1.5875v-1.05837h-.2645833v1.05834h-1.3229167v-1.05834h-.2645833v1.05834h-1.3229167v-1.05834zm.2645833 1.32292h1.3229167v1.05833h-1.3229167z" fill="#797774"/></g></svg>