<svg viewBox="0 0 32 32" xmlns="http://www.w3.org/2000/svg"><path d="m15.5 3c-1.932997 0-3.5 1.5670034-3.5 3.5.0016 1.7386471 1.279185 3.2125599 3 3.4609375v2.0390625h-6.5c-.277 0-.5.223-.5.5s.223.5.5.5h6.5v8 1 5.974609a12.5 12.5 0 0 1 -10.1640625-5.974609h2.6640625c.277 0 .5-.223.5-.5s-.223-.5-.5-.5h-4c-.277 0-.5.223-.5.5v4c0 .277.223.5.5.5s.5-.223.5-.5v-2.609375-.355469a13.5 13.5 0 0 0 11.5 6.464844 13.5 13.5 0 0 0 11.5-6.470703v.382812 2.587891c0 .277.223.5.5.5s.5-.223.5-.5v-4c0-.277-.223-.5-.5-.5h-4c-.277 0-.5.223-.5.5s.223.5.5.5h2.658203a12.5 12.5 0 0 1 -10.158203 5.980469v-5.980469-1-8h6.5c.277 0 .5-.223.5-.5s-.223-.5-.5-.5h-6.5v-2.0410156c1.720082-.2482706 2.997459-1.721079 3-3.4589844 0-1.9329966-1.567003-3.5-3.5-3.5zm0 1c1.380712 0 2.5 1.1192881 2.5 2.5s-1.119288 2.5-2.5 2.5-2.5-1.1192881-2.5-2.5 1.119288-2.5 2.5-2.5z" fill="#1e8bcd"/></svg>