<svg height="32" viewBox="0 0 8.4666665 8.4666669" width="32" xmlns="http://www.w3.org/2000/svg" xmlns:xlink="http://www.w3.org/1999/xlink"><radialGradient id="a" cx="17.995798" cy="7.046331" fx="17.995798" fy="7.046331" gradientTransform="matrix(.17197916 0 0 .17120098 3.202181 290.01951)" gradientUnits="userSpaceOnUse" r="10" xlink:href="#b"/><radialGradient id="b" cx="11" cy="5" gradientTransform="translate(-51.118644 17.830508)" gradientUnits="userSpaceOnUse" r="8"><stop offset="0" stop-color="#83beec"/><stop offset="1" stop-color="#0063b1"/></radialGradient><radialGradient id="c" cx="17.995798" cy="7.046331" fx="17.995798" fy="7.046331" gradientTransform="matrix(-.206375 0 0 -.13696079 5.883466 295.27254)" gradientUnits="userSpaceOnUse" r="10" xlink:href="#b"/><g stroke-width=".264583" transform="translate(0 -288.53332)"><path d="m4.2333333 289.85624v1.32292a1.8520833 1.5875 0 0 1 1.8520834 1.5875 1.8520833 1.5875 0 0 1 -1.8520834 1.5875v1.32291a3.4395833 2.9104167 0 0 0 3.4395834-2.91041 3.4395833 2.9104167 0 0 0 -3.4395834-2.91042z" fill="url(#a)"/><path d="m4.2333333 289.85624a3.4395833 2.9104167 0 0 0 -3.4395833 2.91042 3.4395833 2.9104167 0 0 0 3.4395833 2.91041v-1.32291a1.8520833 1.5875 0 0 1 -1.8520833-1.5875 1.8520833 1.5875 0 0 1 1.8520833-1.5875z" fill="url(#c)"/></g></svg>