<svg height="32" viewBox="0 0 32 32" width="32" xmlns="http://www.w3.org/2000/svg"><path d="m17 2c.554 0 1 .446 1 1v17c0 .554-.446 1-1 1h-13c-.554 0-1-.446-1-1v-17c0-.554.446-1 1-1zm0 1h-13v17h13z" fill="#3a3a38"/><path d="m17 3v17h-13v-17z" fill="#fafafa"/><path d="m23 6c.554 0 1 .446 1 1v17c0 .554-.446 1-1 1h-13c-.554 0-1-.446-1-1v-17c0-.554.446-1 1-1zm0 1h-13v17h13z" fill="#3a3a38"/><path d="m23 7v17h-13v-17z" fill="#fafafa"/><path d="m28 10c.554 0 1 .446 1 1v17c0 .554-.446 1-1 1h-13c-.554 0-1-.446-1-1v-17c0-.554.446-1 1-1zm0 1h-13v17h13z" fill="#3a3a38"/><path d="m28 11v17h-13v-17z" fill="#fafafa"/></svg>