<svg height="32" viewBox="0 0 32 32" width="32" xmlns="http://www.w3.org/2000/svg"><path d="m6 3.0000001v25.9999999h19.99762l.0024-19-7-6.9999999z" fill="#fafafa"/><path d="m5.9976202 2.0000001c-.554 0-1 .446-1 1v25.9999999c0 .554.446 1 1 1h19.9999998c.554 0 .892483-.456533 1-1v-10.109375-10.5052751l-6.508082-6.3853498zm0 1h12.9999998v6c0 .6726441.491378.9999999 1 .9999999h6v19h-19.9999998z" fill="#3a3a38"/><path d="m20 9.0000001h6l-6-6z" fill="#fafafa" fill-rule="evenodd"/><g transform="matrix(0 -1 1 0 -15 30)"><rect fill="#ed8733" height="4" ry="1" width="28" y="22"/><rect fill="#f8db8f" height="2" ry=".389831" width="26" x="1" y="23"/><g fill="#ed8733"><g transform="translate(1 8)"><path d="m5 14h1v2h-1z"/><path d="m8 14h1v2h-1z"/><path d="m11 14h1v2h-1z"/><path d="m14 14h1v2h-1z"/><path d="m17 14h1v2h-1z"/><path d="m2 14h1v2h-1z"/></g><path d="m18 22h1v2h-1z"/><path d="m21 22h1v2h-1z"/><path d="m24 22h1v2h-1z"/></g></g></svg>