<svg height="32" viewBox="0 0 32 32" width="32" xmlns="http://www.w3.org/2000/svg"><g fill="#3a3a38" transform="matrix(1 0 0 -1 0 32)"><g fill="#3a3a38"><path d="m3.5 17c-.277 0-.5.223-.5.5v.269531.730469c0 .277.223.5.5.5h8.818359c-.350716-.601032-.404762-1.356812-.039062-2h-7.2832032z" transform="matrix(1 0 0 -1 0 32)"/><rect height="3" rx="1" width="26" x="3" y="3"/><rect height="2" rx=".5" width="26" x="3" y="9"/></g><path d="m27.970703 28c-.177888-.0052-.351159-.05783-.501953-.152344-4.136759-2.585474-5.700584-5.045026-8.737621-8.708037-.210813-.253601-.283141-.594786-.193359-.91211.124699-.438291.05849-.586853.729808-.897431.67132-.310578 1.530176-.423588 2.802734-.361328.225038.01109.439749.0978.609376.246094 3.574573 3.115338 4.182424 4.307327 6.15039 7.226562.11091.165166.17007.359644.169922.558594v2c-.000147.563767-.465761 1.016128-1.029297 1z" fill="#3a3a38"/><path d="m28 27v-2c-2-2.966753-2.5-4-5.979176-7.032197-2.365328-.115723-2.378568.0322-2.520824.532197 3.032664 3.657737 4.5 6 8.5 8.5z" fill="#fafafa"/><path d="m18.521484 17.96875c-.323926-.05073-.668149-.136039-.99414-.259766-.326113-.124095-.634239-.287343-.888672-.49414-.314064-.255263-.429433-.449978-.638672-.714844l4.261719-1.419922c.192081.135176.38609.269973.537109.419922.19996.374848.180051.969421.01758 1.433594v.002c-.05418.15472-.124008.293657-.207033.406203-.150368.173668-.346757.299663-.558594.390625h-.002c-.212443.09101-.440245.147122-.654297.18164-.428371.06869-.799057.05211-.873047.05469z" fill="#fafafa"/><path d="m18.515625 18.982422c-.05035-.000165-.100621-.0041-.150391-.01172-.773679-.12116-1.638455-.378043-2.365234-.96875-.718293-.583809-1.038352-1.127975-1.494141-1.701172-.002-.0032-.0039-.0065-.0059-.0098l-1.298787-1.669886c-.516446-.665161-.043285-1.633465.798828-1.634766h3c.01564.000305.03126.000925.04687.002 1.790411.084 3.417955.751558 4.466797 1.792969.07164.07132.132206.152947.179687.242188.28179.528248.298157 1.043096.242188 1.53125-.05597.488151-.191681.954835-.511719 1.388671-.000664.0013-.0013.0026-.002.0039-.411673.551823-1.022934.934666-1.613281 1.029296-.491722.02811-.819751.01448-1.292969.0059zm.0059-1.013672c.147979-.0052 1.48492.06945 2.087891-.626953.332098-.450185.456066-1.341999.189453-1.841797-.151019-.149949-.345028-.284746-.537109-.419922l-4.26176 1.419922c.209239.264866.324608.459581.638672.714844.508867.413594 1.23496.65245 1.882812.753906zm-3.109375-2.152344 3.324219-1.476562c-.545471-.17759-1.125964-.311206-1.736369-.339844h-3l1.298828 1.669922c.04416.05554.0726.09372.113281.146484z" fill="#0063b1"/><path d="m15.412109 15.816406c-.04068-.05276-.06912-.09094-.113281-.146484l-1.298828-1.669922h3c.610405.02864 1.190857.162254 1.736328.339844z" fill="#83beec"/></g></svg>