<svg viewBox="0 0 32 32" xmlns="http://www.w3.org/2000/svg"><path d="m6 2c-.554 0-1 .446-1 1v26c0 .554.446 1 1 1h21c.554 0 1-.446 1-1v-26c0-.554-.446-1-1-1zm0 1h21v26h-21z" fill="#3a3a38"/><path d="m6 3v26h21v-26z" fill="#fafafa"/><g fill="#1e8bcd" fill-rule="evenodd"><path d="m21.746889 11.999588c-.412951.0016-.74685.336863-.746888.749817v7.498164c-.000857.636426.741397.984615 1.230166.577007l4.498899-3.749081c.361245-.29986.361245-.854157 0-1.154015l-4.498899-3.749083c-.135745-.112652-.306874-.173843-.483278-.172809z"/><path d="m11.253111 11.999588c.412951.0016.74685.336863.746888.749817v7.498163c.000857.636426-.741397.984615-1.230166.577007l-4.4988987-3.749081c-.3612458-.299859-.3612458-.854156 0-1.154015l4.4988987-3.749082c.135746-.112653.306874-.173843.483278-.172809z"/><path d="m21.000412 23.746888c-.001629-.412951-.336863-.74685-.749817-.746888h-7.498164c-.636426-.000857-.984615.741397-.577007 1.230167l3.749081 4.498899c.29986.361245.854157.361245 1.154015 0l3.749083-4.498899c.112652-.135746.173843-.306874.172809-.483279z"/><path d="m21.000411 8.2531116c-.0016.4129509-.336863.74685-.749816.7468877h-7.498163c-.636426.0008568-.984614-.7413968-.577007-1.2301662l3.749081-4.4988983c.299858-.3612463.854155-.3612463 1.154015 0l3.749082 4.4988983c.112652.1357457.173843.3068743.172808.4832785z"/></g></svg>