<svg viewBox="0 0 140 120" xmlns="http://www.w3.org/2000/svg"><rect fill="#3a3a38" height="93" rx="4" width="117" x="12.5" y="11.749996"/><rect fill="#fafafa" height="116.99994" rx="4.00036" stroke="#3a3a38" stroke-width="1.000062" width="136.99994" x="1.500031" y="1.50003"/><path d="m58.5 44.25c-.831 0-1.5.669-1.5 1.5v27c0 .831.669 1.5 1.5 1.5h25c.831 0 1.5-.669 1.5-1.5v-27c0-.831-.669-1.5-1.5-1.5zm.5 2h2v2h-2zm5 0h14c.554 0 1 .446 1 1v10c0 .554-.446 1-1 1h-14c-.554 0-1-.446-1-1v-10c0-.554.446-1 1-1zm17 0h2v2h-2zm-22 4h2v2h-2zm22 0h2v2h-2zm-22 4h2v2h-2zm22 0h2v2h-2zm-22 4h2v2h-2zm22 0h2v2h-2zm-17 2h14c.554 0 1 .446 1 1v10c0 .554-.446 1-1 1h-14c-.554 0-1-.446-1-1v-10c0-.554.446-1 1-1zm-5 2h2v2h-2zm22 0h2v2h-2zm-22 4h2v2h-2zm22 0h2v2h-2zm-22 4h2v2h-2zm22 0h2v2h-2z" fill="#1e8bcd"/></svg>