<svg viewBox="0 0 32 32" xmlns="http://www.w3.org/2000/svg"><path d="m8 27h16v1h-16z" fill="#1e8bcd" fill-opacity=".992647" stroke-width=".917663"/><path d="m16.554688 5.9511719c-.932514 0-1.747496.154598-2.455079.4550781a.29952794.29952794 0 0 1 -.002.00195c-.706309.2942955-1.297722.6867926-1.78125 1.1796875-.4759.4856128-.838842 1.0453865-1.091797 1.6875a.29952794.29952794 0 0 1 -.002.00195c-.253407.6337599-.378812 1.2818825-.378812 1.9531315 0 .873821.124494 1.588396.359375 2.144531.253634.575555.577462 1.049896.96875 1.431641.40712.387339.863332.700577 1.376953.943359.535668.242566 1.08403.460065 1.640625.652344.564576.195035 1.11825.385605 1.662109.570312.563516.181108 1.067431.411616 1.511719.69336.462243.276727.84206.631492 1.123047 1.058593.305517.449112.449219 1.010614.449219 1.658203 0 .576379-.09194 1.113535-.28125 1.603516-.178493.477902-.450701.896545-.808594 1.244141-.350804.350804-.780633.618995-1.277344.80664-.501981.189638-1.066418.28125-1.691406.28125-.737305 0-1.38706-.104824-1.945312-.328125a.29952794.29952794 0 0 1 -.0059-.002c-.517502-.221786-.967823-.462199-1.347656-.722656a.29952794.29952794 0 0 1 -.0039-.002c-.364113-.26008-.671651-.495256-.925781-.707031a.29952794.29952794 0 0 1 -.0098-.0098c-.206369-.188424-.361128-.246094-.445313-.246094-.09451 0-.163597.02048-.226562.06055a.29952794.29952794 0 0 1 -.0059.0039c-.06004.03602-.113539.08662-.164063.166016l-.683594 1.111328c.671091.705069 1.45654 1.288321 2.388672 1.722656.000563.000254.0014-.000253.002 0 .000832.000388.0011.0016.002.002 1.00633.45314 2.105173.68164 3.308594.68164.995093 0 1.871092-.160957 2.630859-.472656.766552-.314483 1.400403-.740469 1.914063-1.283203a.29952794.29952794 0 0 1 .002-.002c.525759-.545133.92313-1.182337 1.197234-1.915884v-.002c.274395-.745456.414062-1.545397.414062-2.40625 0-.800082-.129127-1.457056-.373047-1.982422a.29952794.29952794 0 0 1 -.002-.0039c-.241586-.541154-.561858-.988538-.960937-1.34961a.29952794.29952794 0 0 1 -.0059-.0059c-.39786-.378452-.850338-.687844-1.367187-.931641a.29952794.29952794 0 0 1 -.0059-.002c-.534857-.262316-1.077897-.495396-1.632685-.697136-.564192-.205162-1.119668-.404449-1.664062-.59961-.560475-.200924-1.065581-.435242-1.515626-.703125a.29952794.29952794 0 0 1 -.0078-.0059c-.449564-.285089-.824228-.62832-1.115234-1.03125a.29952794.29952794 0 0 1 -.0039-.0059c-.297685-.428669-.4375-.962062-.4375-1.572266 0-.463876.07939-.901736.236329-1.3066408.157677-.4167177.391522-.784101.699218-1.0917968.319836-.3198355.713133-.5634571 1.167969-.7304688l.0039-.00195c.471231-.1788741 1.005409-.2636719 1.597657-.2636719.619992 0 1.162647.083787 1.626953.2636719.448462.1601649.833019.3429154 1.15625.5546875.306266.1842367.564512.358555.779297.5292969.18893.1349499.328278.1777343.380859.1777343.159424 0 .24931-.049753.369141-.2734374h-.002l.582065-1.0975774c-.595664-.5837199-1.277476-1.0495245-2.076172-1.3671875-.854919-.3439328-1.802281-.5175781-2.847656-.5175781z" fill="#3a3a38"/></svg>