<svg height="48" width="48" xmlns="http://www.w3.org/2000/svg"><path d="m6.4378301.01347264c-1.3751541.2623985-2.4620779 1.59976126-2.4374187 2.99916986v41.9881985c.00015 1.570313 1.4292124 2.99902 2.9999 2.99917h33.9988566c1.570687-.00015 2.99975-1.428857 2.9999-2.99917v-26.182212c.018-.791964-.292491-1.586476-.843722-2.155656l-15.810733-15.80598664c-.569321-.55094689-1.364025-.86186662-2.156178-.84351372h-18.1881236c-.1868938-.01799304-.3755275-.01799304-.5624813 0z" fill="#3a3a38"/><path d="m32.987605.02306893c-.998427.3197963-1.334446 1.83975837-.564731 2.55453187l9.035668 9.0828572c.834723.795622 2.497297.114855 2.541276-1.040748v-9.0828266c-.00009-.79262344-.717456-1.5137245-1.50595-1.51381447h-9.035669c-.155695-.02399072-.314989-.02399072-.470594 0z" fill="#3a3a38"/><path d="m7.0006124 3.0210857v.75 40.5000403.72723h.74999 32.4994296.74998v-.72723-25.50003-.3282l-.23436-.2343-14.90598-15.0000103-.18748-.1875h-.32813-17.5934596z" fill="#fafafa"/></svg>