<svg viewBox="0 0 16 16" xmlns="http://www.w3.org/2000/svg"><path d="m1.8125656.00599975c-.4583913.08746719-.82070444.53319998-.8124846.99962505v13.9947492c.00005.523384.4764109.999575.999981.999625h11.999772c.52357-.00005.999931-.476241.999981-.999625v-7.9969992c.006-.263961-.0975-.5287717-.281245-.7184805l-5.9998857-5.99775001c-.1897764-.18363112-.4546813-.28726224-.7187363-.28114454h-5.999886c-.0622988-.00599775-.1251776-.00599775-.1874964 0z" fill="#3a3a38"/><path d="m11.343634.00599975c-.331493.10559039-.443051.60743213-.187496.8434336l2.999943 2.99887505c.277145.2626914.829134.037886.843734-.3436211v-2.99887505c-.00003-.26169182-.238205-.49978251-.49999-.4998125h-2.999943c-.0517-.007997-.104589-.007997-.156248 0z" fill="#3a3a38"/><path d="m2.000307.99933038v.50000002 12.9999996.5h.49999 10.99979.5v-.5-7.3124996-.2188l-.15625-.125-5.6874-5.7187-.15624-.12500002h-.1875-5.3124z" fill="#fafafa"/><g fill="none" stroke="#3a3a38" stroke-linecap="square" stroke-linejoin="round" transform="translate(1 -.00028)"><path d="m11.5 7.0002804v-.5h-5l-1 6.0000696-.25-2.9999696h-.75"/><path d="m11 9.0003804-3 2.9998996"/><path d="m8 9.0003804 3 2.9998996"/></g><path d="m2 1h2v14h-2z" fill="#3a3a38" fill-opacity=".978947"/><g fill="#fafafa"><path d="m2.0019531 2v1h1v-1zm0 2v1h1v-1zm0 2v1h1v-1zm0 2v1h1v-1zm0 2v1h1v-1zm0 2v1h1v-1z"/><path d="m2.0019531 2v1h1v-1zm0 2v1h1v-1zm0 2v1h1v-1zm0 2v1h1v-1zm0 2v1h1v-1zm0 2v1h1v-1z"/></g><g fill="#3a3a38" transform="translate(-2.001953)"><path d="m2.0019531 2v1h1v-1zm0 2v1h1v-1zm0 2v1h1v-1zm0 2v1h1v-1zm0 2v1h1v-1zm0 2v1h1v-1z"/><path d="m2.0019531 2v1h1v-1zm0 2v1h1v-1zm0 2v1h1v-1zm0 2v1h1v-1zm0 2v1h1v-1zm0 2v1h1v-1z"/></g></svg>