<svg viewBox="0 0 24 24" xmlns="http://www.w3.org/2000/svg"><path d="m2 2v5h13v-.5c0-.8137028.686297-1.5 1.5-1.5s1.5.6862972 1.5 1.5v.5h4v-5z" fill="#3a3a38"/><path d="m3 3v3h12.09375c.211337-.5755473.767438-1 1.40625-1s1.194913.4244527 1.40625 1h3.09375v-3z" fill="#797774"/><path d="m3 7v13h9.876953l-2.4375-2.4375c-.288608-.288605-.439453-.679496-.439453-1.060547s.150852-.771946.439453-1.060547c.575285-.575287 1.545809-.575284 2.121094 0l2.439453 2.4375v-10.878906zm15 0v10.878906l2.439453-2.4375c.161064-.161064.354869-.272872.560547-.34375v-8.097656zm3 12.123047-.876953.876953h.876953z" fill="#3a3a38"/><path d="m4 7v12h7.876953l-1.4375-1.4375c-.288608-.288605-.439453-.679496-.439453-1.060547s.150852-.771946.439453-1.060547c.575285-.575287 1.545809-.575284 2.121094 0l2.439453 2.4375v-10.878906zm14 0v10.878906l2-1.998047v-8.880859z" fill="#fafafa"/><path d="m5 12h6v1h-6z" fill="#3a3a38"/><path d="m5 15h3v1h-3z" fill="#3a3a38"/><g fill="#1e8bcd"><path d="m22 16.501953c0 .12781-.04855.255582-.146484.353516l-5 4.998047c-.04701.04702-.103236.08407-.166016.109375-.057904.02334-.12105.037109-.1875.037109s-.129596-.01377-.1875-.03711c-.06278-.0253-.119003-.06236-.166016-.109375l-5-4.998047c-.097934-.097933-.146484-.225705-.146484-.353515 0-.127809.04855-.255581.146484-.353515.195868-.195869.511163-.195869.707032 0l4.146484 4.144531v-13.792969c0-.277.223-.5.5-.5s.5.223.5.5v13.792969l4.146484-4.144531c.195869-.19587.511164-.19587.707032 0 .097934.097934.146484.225706.146484.353515z"/><rect height="1" ry=".5" width="11" x="11" y="22"/></g></svg>