<svg viewBox="0 0 24 24" xmlns="http://www.w3.org/2000/svg"><g fill="#3a3a38"><path d="m17 17.600001h-2v-5.32086c-1.047064.274847-2.513731.446627-3.430994.515338-.908609.068711-1.9892266-.004295-2.6728471-.219019-.6749669-.223313-.922649-.609816-1.312053-1.159509-.3894039-.549693-.5841059-1.301227-.5841059-2.254601v-4.16135h2v3.8263807c0 .601227.1124945 1.0779141.3374834 1.4300613.2249888.343558.5538189.584049.9864906.721472.441324.128834 1.270993.167484 1.919999.115951.657661-.06012 1.899338-.193249 2.756027-.399386v-5.694479h2z" stroke-width=".7"/><path d="m4 20h16v1h-16z" fill="#1e8bcd" stroke-width=".917663"/></g></svg>