<svg viewBox="0 0 16 16" xmlns="http://www.w3.org/2000/svg">/&amp;amp;amp;gt;<g fill="#3a3a38"><path d="m1 15h14v1h-14z" fill="#1e8bcd"/><path d="m1 13h14v1h-14z" fill="#1e8bcd"/><path d="m13 12h-2.000001l.000001-3.912065c-1.1752763.3053852-3.4061809.4962509-4.4357615.5725972-1.0198677.0763463-1.913466-.0047717-2.6807949-.2433538-2.0909888-.7500061-1.9020078-2.1345926-1.8834437-3.7934563v-4.6237221l2 .00000023v4.25153387c0 .66803.1262694 1.1976823.378808 1.5889571.2525387.3817314.6216336.6489435 1.1072848.801636.4953643.1431493 1.1072848.1860941 1.8357617.1288344.7381898-.0668026 2.7165556-.2147239 3.6781456-.4437628v-6.32719857l2.000001-.00000023z"/></g></svg>