<svg height="128" viewBox="0 0 128 128" width="128" xmlns="http://www.w3.org/2000/svg"><path d="m76 11-52.009766.07031c-.156157-.000537-.308365.04261-.445312.117188-.01047.0058-.02103.01144-.03125.01758-.131703.07906-.239434.187093-.316406.314453-.0072.01191-.01283.02485-.01953.03711-.0728.134284-.11766.285283-.117187.443359v104c-.000473.15808.04439.30908.117187.44336.0067.0123.0123.0252.01953.0371.07697.12736.184703.23539.316406.31445.01022.006.02078.0118.03125.0176.136947.0746.289154.11772.445312.11719l67.009766.0703v-10c0-3.27211 2.727898-6 6-6v-2.96875c-.05626-5.403704 3.29731-10.06035 8-12.03125v-46c.00008-.0328-.008-.06519-.0117-.09766-.008-.0662-.0226-.130234-.0449-.19336-.0197-.05597-.0427-.109918-.0723-.162109-.0387-.06698-.0821-.131554-.13476-.189453-.0267-.03007-.0542-.05887-.084-.08594-.0769-.06819-.16025-.127826-.25195-.171875-.0156-.0077-.031-.01465-.0469-.02148-.11295-.047308-.2323-.078411-.35349-.078123-4.002846.01172-8.001347.0059-12 0h-11.919922c-.0267.000076-.05338-.000078-.08008 0-1.709694.01306-3-1.281761-3-3v-24c.0003-.128489-.03044-.25511-.08398-.373047s-.129704-.227359-.222657-.320312c-.09295-.09295-.202377-.169117-.320312-.222657-.117937-.05354-.24456-.084289-.373049-.083984zm3 1 .06055 24c-.0003.128489.02532.249983.07227.361328s.115056.21271.199219.296875c.08416.08416.185532.152271.296875.199219.111344.04695.23284.07257.361328.07227l24.009758.070308z" fill="#fafafa"/><g fill="#d42314" stroke-width="4"><path d="m24 9c-1.718259 0-3 1.281741-3 3v104c0 1.71826 1.281743 2.99814 3 3h67.000001v-2l-67.009767-.0703c-.513956.001-.930907-.41574-.929687-.9297v-104c-.0012-.513956.415731-.930908.929687-.929688l52.009767-.070312c.513956-.0012 1.00122.486044 1 1v24c0 1.71824 1.290304 3.013061 3 3 8.005048-.0234 15.9943.02344 23.999999 0 .5137-.0011 1.00122.486117 1 1v46c.68578-.29208 1.26206-.486312 2-.658204v-45.841796l.0236-1.875c-.005-.212516-.0232-.269876-.0859-.398436-.12532-.257124-.65904-.868998-2.05468-2.140625-.008-.01024-.016-.02068-.0236-.03124l-23.304571-23.382808c-.008-.0051-.016-.01032-.0236-.01564-1.40204-1.398579-3.235576-2.5019662-5.031248-2.656251zm80 28-24.009767-.07031c-.513956.001218-.930908-.415734-.929688-.92969l-.06056-24z"/><path d="m61.371094 53c-5.204981 10.186895-10.097441 20.534939-15.375396 30.684434-2.540528-4.854881-4.940056-9.78335-7.390229-14.684434h-4.617188c-.523599 0-1 .476401-1 1s.476401 1 1 1h2.765625.644626l8.589749 17.232422 16.339844-32.679688c.169441-.338781.51574-.55276.894531-.552734h30.765625c.523599 0 1-.476401 1-1s-.476401-1-1-1z"/><rect height="2" ry="1" width="16" x="32" y="97"/><rect height="2" ry="1" width="16" x="56" y="97"/><rect height="2" ry="1" width="16" x="80" y="97"/></g><path d="m110 88c-5.52285 0-10.057502 4.477451-10 9.999999v6.000001h-3c-1.661998 0-3 1.338-3 3v18c0 1.662 1.338002 3 3 3h26c1.662 0 3-1.338 3-3v-18c0-1.662-1.33853-2.95787-3-3h-3v-6.000001c0-5.522847-4.47715-9.999999-10-9.999999zm0 3.999998c3.31371 0 6 2.686292 6 6.000001v6.000001h-12v-6.000001c0-3.313709 2.68629-6.000001 6-6.000001z" fill="#ed8733" stroke-width=".999999"/><g fill-opacity=".978947"><path d="m96 106h28v20h-28z" fill="#f8db8f"/><path d="m110.5 109a4.5 4.5 0 0 0 -4.5 4.5 4.5 4.5 0 0 0 2 3.74023v4.75977c0 .554.446 1 1 1h3c.554 0 1-.446 1-1v-4.76172a4.5 4.5 0 0 0 2-3.73828 4.5 4.5 0 0 0 -4.5-4.5z" fill="#ed8733"/><path d="m110.5 110a3.5 3.5 0 0 0 -3.5 3.5 3.5 3.5 0 0 0 2 3.1582v4.8418c0 .277.223.5.5.5h2c.277 0 .5-.223.5-.5v-4.8418a3.5 3.5 0 0 0 2-3.1582 3.5 3.5 0 0 0 -3.5-3.5z" fill="#fafafa"/></g><path d="m89.416979 66.580663c-.370368-.369935-.89074-.582986-1.414214-.58281-.523474-.000177-1.043846.212874-1.414213.58281l-5.1721 5.1721a2.0000479 2.0000479 0 0 1 -.0097.0069l-1.408689 1.408689-6.629126-6.629126c-.42086-.393624-1.016547-.595641-1.58961-.531711-.445566.05079-.872213.255813-1.189099.573143a2.0000479 2.0000479 0 0 1 -.0014.0014c-.740356.740515-.740356 2.087913 0 2.828428l5.170718 5.170718a2.0000479 2.0000479 0 0 1 .01519.02072l1.394879 1.394879-1.403165 1.403165a2.0000479 2.0000479 0 0 1 -.0069.0097l-5.170718 5.170718c-.740937.740584-.740937 2.090605 0 2.83119.72524.725086 2.030848.737988 2.78009.04281l6.629126-6.629126 1.400403 1.400403a2.0000479 2.0000479 0 0 1 .01933.01381l5.172099 5.1721c.740514.740356 2.085151.740356 2.825665 0 .725655-.725309.739915-2.032093.04419-2.781471l-6.633269-6.633269 6.612553-6.612554c.716926-.745263.710393-2.070921-.0221-2.803568z" fill="#ed3d3b"/></svg>