<svg height="128" viewBox="0 0 128 128" width="128" xmlns="http://www.w3.org/2000/svg"><path d="m76 11-52.009766.070312c-.156157-.000537-.308365.042612-.445312.117188-.010468.005752-.021034.011439-.03125.017578-.131703.079061-.239434.187093-.316406.314453-.007235.011913-.012826.024853-.019532.03711-.072802.134284-.11766.285283-.117187.443359v104c-.000473.15808.044385.30908.117187.44336.006706.01226.012297.0252.019532.03711.076972.12736.184703.23539.316406.31445.010216.00614.020782.01183.03125.01758.136947.0746.289154.11772.445312.11719l67.009766.07031v-10c0-3.27211 2.727898-6 6-6v-2.96875c-.05626-5.403704 3.29731-10.06035 8-12.03125v-46c.00008-.032801-.00793-.065192-.01172-.097656-.00753-.066202-.02255-.130234-.04492-.19336-.01966-.055972-.04273-.109918-.07227-.162109-.03872-.066981-.08215-.131554-.13476-.189453-.02674-.030068-.0542-.058867-.08399-.085938-.07694-.06819-.16025-.127826-.25195-.171875-.01558-.007661-.03098-.014654-.04687-.021484-.11298-.04731-.23233-.078413-.35352-.078125-4.002846.01172-8.001347.005855-12 0h-11.919922c-.0267.000076-.053377-.000078-.080078 0-1.709694.013061-3-1.281761-3-3v-24c.0003-.128489-.030444-.25511-.083984-.373047-.053541-.117937-.129704-.227359-.222657-.320312-.092952-.092954-.202377-.169117-.320312-.222657s-.244558-.084289-.373047-.083984zm3 1 .060547 24c-.0003.128489.025316.249983.072265.361328.04695.111345.115056.21271.199219.296875.084164.084165.185532.152271.296875.199219.111344.046948.23284.07257.361328.072266l24.009766.070312z" fill="#fafafa"/><g fill="#0063b1" transform="matrix(4 0 0 4 -.009315 0)"><path d="m6.0023287 2.25c-.4295647 0-.75.3204353-.75.75v26c0 .429565.3204357.749534.75.75h16.7500003v-.5l-16.7524417-.017578c-.128489.000305-.2327268-.103933-.2324218-.232422v-26c-.000305-.1284891.1039328-.2327269.2324218-.2324219l13.0024417-.0175781c.128489-.000305.250305.1215109.25.25v6c0 .4295601.322576.7532652.75.75 2.001262-.00585 3.998575.00586 6 0 .128424-.000279.250305.1215293.25.25v11.5c.171444-.07302.315514-.121578.5-.164551v-11.460449l.0059-.46875c-.0013-.053129-.0058-.067469-.02148-.099609-.03133-.064281-.16476-.2172495-.513671-.5351562-.002-.00256-.004-.00517-.0059-.00781l-5.826137-5.845702c-.002-.00127-.004-.00258-.0059-.00391-.35051-.3496447-.808894-.6254916-1.257812-.6640628zm20.0000003 7-6.002442-.017578c-.128489.0003049-.232727-.1039329-.232422-.232422l-.01514-6z"/><g fill-rule="evenodd" stroke-linecap="square"><rect height=".5" ry=".25" width="7" x="8.002329" y="13.25"/><rect height=".5" ry=".25" width="7" x="8.002329" y="15.25"/><rect height=".5" ry=".25" width="7" x="8.002329" y="17.25"/><rect height=".5" ry=".237846" width="15.999998" x="8.002329" y="20.25"/><rect height=".5" ry=".25" width="16" x="8.002329" y="22.25"/><rect height=".5" ry=".25" width="7" x="8.002329" y="24.25"/></g></g><path d="m72 52c-2.215998 0-4 1.784002-4 4v12c0 2.215998 1.784002 4 4 4h20c2.215998 0 4-1.784002 4-4v-12c0-2.215998-1.784002-4-4-4zm17.990234 4c1.104568 0 2 .895432 2 2s-.895432 2-2 2-2-.895432-2-2 .895432-2 2-2zm-12.873046 2.103516c.071583.001406.144506.005937.216796.013672.56147.060479 1.085309.311373 1.484375.710937l9.171875 9.171875h-16l2.734375-8.203125c.343384-1.035075 1.318828-1.714453 2.392579-1.693359z" fill="#1e8bcd" opacity=".98" stroke-width="5"/><path d="m110 88c-5.52285 0-10.057502 4.477451-10 9.999999v6.000001h-3c-1.661998 0-3 1.338-3 3v18c0 1.662 1.338002 3 3 3h26c1.662 0 3-1.338 3-3v-18c0-1.662-1.33853-2.95787-3-3h-3v-6.000001c0-5.522847-4.47715-9.999999-10-9.999999zm0 3.999998c3.31371 0 6 2.686292 6 6.000001v6.000001h-12v-6.000001c0-3.313709 2.68629-6.000001 6-6.000001z" fill="#ed8733" stroke-width=".999999"/><g fill-opacity=".978947" transform="translate(-2)"><path d="m98 106h28v20h-28z" fill="#f8db8f"/><path d="m112.5 109a4.5 4.5 0 0 0 -4.5 4.5 4.5 4.5 0 0 0 2 3.74023v4.75977c0 .554.446 1 1 1h3c.554 0 1-.446 1-1v-4.76172a4.5 4.5 0 0 0 2-3.73828 4.5 4.5 0 0 0 -4.5-4.5z" fill="#ed8733"/><path d="m112.5 110a3.5 3.5 0 0 0 -3.5 3.5 3.5 3.5 0 0 0 2 3.1582v4.8418c0 .277.223.5.5.5h2c.277 0 .5-.223.5-.5v-4.8418a3.5 3.5 0 0 0 2-3.1582 3.5 3.5 0 0 0 -3.5-3.5z" fill="#fafafa"/></g></svg>