<svg viewBox="0 0 16 16" xmlns="http://www.w3.org/2000/svg">
/&amp;gt;<path d="m10 1v5.0820312 8.8242188.09375h6v-.09375-8.8242188-5.0820312zm1 3h4v2.8730469 7.1269531h-.113281-3.773438-.113281v-7.1269531z" fill="#3a3a38"/><path d="m10 1v3h5v10h-3.886719l-.535156.535156c-.156749.164097-.360815.28903-.578125.371094v.09375h5c.554 0 1-.446 1-1v-10-3z" fill="#3a3a38"/><path d="m1.0000606 10.480118a.50005.50005 0 0 1 .203125-.394531l2.9511714-2.9472663a.50063788.50063788 0 1 1 .707032.708984l-2.1464854 2.1425793 5.7851564.0078a.50005.50005 0 1 1 0 1l-5.7851564-.0078 2.1464854 2.15039a.50005.50005 0 1 1 -.708985.705078l-2.9570314-2.960937a.50005.50005 0 0 1 -.195312-.404297z" fill="#1e8bcd" fill-rule="evenodd"/><path d="m11 2h4v1h-4z" fill="#797774"/><path d="m11 4h4v10h-4z" fill="#fafafa"/></svg>