<?xml version="1.0" encoding="utf-8"?>
<!-- Generator: Adobe Illustrator 12.0.1, SVG Export Plug-In . SVG Version: 6.00 Build 51448)  -->
<!DOCTYPE svg PUBLIC "-//W3C//DTD SVG 1.1//EN" "http://www.w3.org/Graphics/SVG/1.1/DTD/svg11.dtd" [
	<!ENTITY ns_svg "http://www.w3.org/2000/svg">
	<!ENTITY ns_xlink "http://www.w3.org/1999/xlink">
]>
<svg  version="1.1" id="Layer_1" xmlns="&ns_svg;" xmlns:xlink="&ns_xlink;" width="284.67" height="122.667"
	 viewBox="0 0 284.67 122.667" overflow="visible" enable-background="new 0 0 284.67 122.667" xml:space="preserve">
<g>
	<path fill="#166BB2" d="M163.443,77.065c0,0,0.088-0.35,0.002-0.879C163.444,76.748,163.443,77.065,163.443,77.065z
		 M163.509,32.796c-0.544-5.83-14.123-5.701-14.123-5.701h-87.9L61.423,2.503l-3.52,2.543L10.253,47.52l-1.074,1.552l48.967,48.838
		l3.518-2.543l-0.063-24.592h84.58v0.261c0,0,0.289,0,3,0c0,0,0.033,0.091,0.127,0.091c11.872,0,13.866,3.408,14.138,5.061
		C163.455,70.458,163.514,38.105,163.509,32.796z"/>
	<linearGradient id="XMLID_5_" gradientUnits="userSpaceOnUse" x1="17.6035" y1="54.8184" x2="178.9374" y2="41.4848">
		<stop  offset="0" style="stop-color:#99CAFF"/>
		<stop  offset="0.7247" style="stop-color:#4599D4"/>
		<stop  offset="1" style="stop-color:#2E77BD"/>
	</linearGradient>
	<path fill="url(#XMLID_5_)" d="M159.926,79.608c0,0,0.088-0.35,0.001-0.879C159.926,79.291,159.926,79.608,159.926,79.608z
		 M159.99,35.339c-0.543-5.83-14.124-5.701-14.124-5.701H57.967L57.903,5.046L5.659,51.614l52.486,46.295l-0.064-24.592h84.581
		v0.261c0,0,0.288,0,3,0c0,0,0.032,0.091,0.126,0.091c11.872,0,13.868,3.408,14.139,5.061
		C159.938,73.001,159.995,40.648,159.99,35.339z"/>
	<linearGradient id="XMLID_6_" gradientUnits="userSpaceOnUse" x1="130.1523" y1="64.0806" x2="167.0274" y2="60.5806">
		<stop  offset="0" style="stop-color:#057BCC"/>
		<stop  offset="1" style="stop-color:#008BFF"/>
	</linearGradient>
	<path fill="url(#XMLID_6_)" d="M159.829,35.419l0.044,43.83c0,0-0.668,6-13.167,5.166c-3.167,0.334-5.5,0.166-5.5,0.166
		s-14.112-0.619-14.89,5.706c0-7.706-0.056-43.378,0-43.715s0.153-5.522,13.354-5.522s6.913,0,6.913,0
		S158.619,40.922,159.829,35.419z"/>
	<linearGradient id="XMLID_7_" gradientUnits="userSpaceOnUse" x1="129.9541" y1="59.8843" x2="163.5098" y2="59.8843">
		<stop  offset="0.0056" style="stop-color:#2E6596"/>
		<stop  offset="1" style="stop-color:#4599D4"/>
	</linearGradient>
	<path fill="url(#XMLID_7_)" d="M163.467,32.45l0.043,43.83c0,0-0.666,6-13.167,5.166c-3.166,0.334-5.5,0.166-5.5,0.166
		s-14.111-0.619-14.889,5.706c0-7.706,0-43.715,0-43.715s0.152-5.522,13.354-5.522c13.201,0,6.913,0,6.913,0
		S162.257,37.953,163.467,32.45z"/>
	<path fill="#166BB2" d="M277.967,74.235l3.199-3.176L228.92,24.49l-3,3l2.936,21.593l-86.646,0.002
		c-12.125,0-12.875-5.75-12.875-5.75s-0.019,38.417-0.019,43.952c1.532,5.536,12.884,5.712,12.884,5.712v0.006
		c27.188-0.057,86.542-0.243,86.542-0.243l-0.061,24.592L277.967,74.235z"/>
	<linearGradient id="XMLID_8_" gradientUnits="userSpaceOnUse" x1="126.3164" y1="73.9219" x2="278.166" y2="73.9219">
		<stop  offset="0" style="stop-color:#99CAFF"/>
		<stop  offset="0.5562" style="stop-color:#4599D4"/>
		<stop  offset="1" style="stop-color:#3987C8"/>
	</linearGradient>
	<path fill="url(#XMLID_8_)" d="M278.166,74.06L225.92,27.49l-0.064,24.593l-86.646,0.002c-12.125,0-12.875-4.375-12.875-5.75
		c0.146-0.529-0.019,38.417-0.019,43.952c1.532,5.536,12.884,5.712,12.884,5.712v0.006c27.188-0.057,86.542-0.243,86.542-0.243
		l-0.061,24.592L278.166,74.06z"/>
</g>
</svg>
