<?xml version="1.0" encoding="utf-8"?>
<!-- Generator: Adobe Illustrator 12.0.1, SVG Export Plug-In . SVG Version: 6.00 Build 51448)  -->
<!DOCTYPE svg PUBLIC "-//W3C//DTD SVG 1.1//EN" "http://www.w3.org/Graphics/SVG/1.1/DTD/svg11.dtd" [
	<!ENTITY ns_svg "http://www.w3.org/2000/svg">
	<!ENTITY ns_xlink "http://www.w3.org/1999/xlink">
]>
<svg  version="1.1" id="Layer_1" xmlns="&ns_svg;" xmlns:xlink="&ns_xlink;" width="280.146" height="116.36"
	 viewBox="0 0 280.146 116.36" overflow="visible" enable-background="new 0 0 280.146 116.36" xml:space="preserve">
<g>
	<g>
		<g>
			<path fill="#141745" d="M2.379,57.96l59.842,52.785c0,0-0.047-17.735-0.053-19.698c2.155,0,72.122,0,72.122,0
				s-12.272-13.313-13.354-14.486c0.932-1.364,15.527-22.737,15.527-22.737s-26.971-13.098-30.036-14.586
				c2.683-1.831,21.497-14.667,21.497-14.667s-63.791,0-65.927,0c-0.005-1.954-0.049-19.704-0.049-19.704L2.379,57.96z"/>
			<path fill="#141745" d="M63.05,2.398L59.368,5.68L2.574,56.301l-1.867,1.665l1.876,1.654l57.055,50.326l3.698,3.264l-0.013-4.933
				l-0.043-16.12h68.479h5.062l-3.431-3.721l-11.041-11.977l14.306-20.947l1.448-2.123l-2.312-1.123l-27.16-13.19l16.95-11.564
				l5.937-4.05h-7.187H63.103L63.063,7.33L63.05,2.398L63.05,2.398z M4.05,57.957L60.844,7.335L60.89,25.68h63.441l0,0l0,0
				l-20.11,13.72l1.995,0.969l0,0l0.304,0.148l0,0l28.303,13.745l0,0l0,0l-15.3,22.404l12.237,13.274l0,0l0,0H61.056l0.006,2.218
				l0,0l0,0l0,0l0.043,16.125l0,0l0,0L4.05,57.957L4.05,57.957L4.05,57.957z"/>
		</g>
		<g>
			<path fill="#141745" d="M215.1,24.321c-2.134,0-61.223,0-61.223,0l-17.54,13.764c0,0,24.96,10.227,27.2,11.145
				c-1.317,2.055-16.768,26.164-16.768,26.164l12.648,15.403c0,0,53.372,0,55.508,0c-0.005,1.962-0.051,19.699-0.051,19.699
				l59.842-52.784L215.15,4.616C215.15,4.616,215.105,22.367,215.1,24.321z"/>
			<path fill="#141745" d="M214.046,2.148l-0.012,4.931l-0.041,16.133h-59.734h-0.766l-0.604,0.473l-15.739,12.351l-2.998,2.353
				l3.526,1.444l24.206,9.918l-15.614,24.365l-0.871,1.358l1.024,1.247l11.804,14.375l0.665,0.81h1.049h53.873l-0.043,16.121
				l-0.013,4.932l3.698-3.263l57.055-50.325l1.876-1.654l-1.867-1.665L217.728,5.43L214.046,2.148L214.046,2.148z M138.52,37.782
				l15.739-12.351h61.947l0.046-18.345l56.793,50.623l0,0l0,0l-57.055,50.325l0,0l0,0l0.042-16.126l0,0l0,0l0,0l0.006-2.218h-56.097
				l-11.804-14.375l0,0l0,0l15.834-24.707l0,0l0.02-0.031l0,0l1.196-1.868L138.52,37.782L138.52,37.782L138.52,37.782z"/>
		</g>
	</g>
	<g>
		<linearGradient id="XMLID_11_" gradientUnits="userSpaceOnUse" x1="4.0508" y1="57.8086" x2="134.8228" y2="57.8086">
			<stop  offset="0" style="stop-color:#27447D"/>
			<stop  offset="1" style="stop-color:#1C2958"/>
		</linearGradient>
		<polygon fill="url(#XMLID_11_)" points="119.523,76.664 134.823,54.26 104.222,39.399 124.332,25.679 60.891,25.679 60.845,7.335 
			4.051,57.956 61.106,108.282 61.057,89.938 131.76,89.938 		"/>
	</g>
	<g>
		<linearGradient id="XMLID_12_" gradientUnits="userSpaceOnUse" x1="138.521" y1="57.5591" x2="273.0454" y2="57.5591">
			<stop  offset="0" style="stop-color:#27447D"/>
			<stop  offset="1" style="stop-color:#1C2958"/>
		</linearGradient>
		<polygon fill="url(#XMLID_12_)" points="273.045,57.708 216.252,7.085 216.207,25.43 154.26,25.43 138.521,37.781 165.189,48.708 
			148.139,75.313 159.943,89.688 216.039,89.688 215.991,108.033 		"/>
	</g>
	<polygon fill="#619BD6" points="58.092,28.658 58.092,13.577 8.478,57.728 58.092,101.879 58.092,87.234 129.27,87.234 
		131.76,89.938 61.057,89.938 61.106,108.282 4.051,57.956 60.845,7.335 60.891,25.679 124.332,25.679 120.276,28.445 	"/>
	<polygon fill="#619BD6" points="219.176,28.658 219.176,13.577 268.792,57.728 219.176,101.879 219.176,87.234 157.926,87.234 
		160.113,89.938 216.212,89.938 216.163,108.282 273.217,57.956 216.426,7.335 216.379,25.679 153.966,25.679 150.417,28.445 	"/>
	<g opacity="0.9">
		<defs>
			<polygon id="XMLID_3_" opacity="0.9" points="120.493,77.635 134.657,54.496 103.356,41.179 122.754,26.475 59.393,29.636 
				58.43,11.315 4.229,64.709 63.722,112.126 62.761,93.807 133.377,90.283 			"/>
		</defs>
		<clipPath id="XMLID_13_">
			<use xlink:href="#XMLID_3_" />
		</clipPath>
		<defs>
			<filter id="Adobe_OpacityMaskFilter" filterUnits="userSpaceOnUse" x="23.132" y="-13.731" width="252.002" height="140.784">
				<feColorMatrix  type="matrix" values="1 0 0 0 0  0 1 0 0 0  0 0 1 0 0  0 0 0 1 0"/>
			</filter>
		</defs>
		<mask maskUnits="userSpaceOnUse" x="23.132" y="-13.731" width="252.002" height="140.784" id="XMLID_14_">
			<g clip-path="url(#XMLID_13_)" filter="url(#Adobe_OpacityMaskFilter)">
				<linearGradient id="XMLID_15_" gradientUnits="userSpaceOnUse" x1="102.6216" y1="25.7642" x2="141.9632" y2="93.0817">
					<stop  offset="0" style="stop-color:#FFFFFF"/>
					<stop  offset="1" style="stop-color:#000000"/>
				</linearGradient>
				<polygon opacity="0.2" fill="url(#XMLID_15_)" points="283.247,133.71 -24.985,149.093 -32.654,-4.585 275.577,-19.968 				"/>
			</g>
		</mask>
		<path clip-path="url(#XMLID_13_)" mask="url(#XMLID_14_)" fill="#FFFFFF" d="M23.132,95.923c0,0,123.516-7.453,197.61-109.654
			c19.684,17.813,52.688,56.021,52.688,56.021l1.703,16.545l-22.815,25.212l-44.947,37.694l-21.545-19.497l-114.234,0.013
			l-5.765,24.797L23.132,95.923z"/>
	</g>
	<g>
		<defs>
			<polygon id="XMLID_7_" points="273.045,57.708 216.252,7.085 216.207,25.43 154.26,25.43 138.521,37.781 165.189,48.708 
				148.139,75.313 159.943,89.688 216.039,89.688 215.991,108.033 			"/>
		</defs>
		<clipPath id="XMLID_16_">
			<use xlink:href="#XMLID_7_" />
		</clipPath>
		<defs>
			<filter id="Adobe_OpacityMaskFilter_1_" filterUnits="userSpaceOnUse" x="134.952" y="1.607" width="160.633" height="136.353">
				<feColorMatrix  type="matrix" values="1 0 0 0 0  0 1 0 0 0  0 0 1 0 0  0 0 0 1 0"/>
			</filter>
		</defs>
		<mask maskUnits="userSpaceOnUse" x="134.952" y="1.607" width="160.633" height="136.353" id="XMLID_17_">
			<g clip-path="url(#XMLID_16_)" filter="url(#Adobe_OpacityMaskFilter_1_)">
				<linearGradient id="XMLID_1_" gradientUnits="userSpaceOnUse" x1="196.2749" y1="58.8691" x2="225.1256" y2="82.4743">
					<stop  offset="0" style="stop-color:#FFFFFF"/>
					<stop  offset="1" style="stop-color:#000000"/>
				</linearGradient>
				<rect x="92.057" y="-20.956" opacity="0.1" fill="url(#XMLID_1_)" width="214.195" height="164.362"/>
			</g>
		</mask>
		<path clip-path="url(#XMLID_16_)" mask="url(#XMLID_17_)" fill="#FFFFFF" d="M134.952,81.888c0,0,68.139-9.296,108.177-80.28
			c17.484,17.482,52.456,48.082,52.456,48.082v14.864l-90.797,73.406l-5.246-20.984L134.952,81.888z"/>
	</g>
</g>
</svg>
