<?xml version="1.0" encoding="utf-8"?>
<!-- Generator: Adobe Illustrator 12.0.1, SVG Export Plug-In . SVG Version: 6.00 Build 51448)  -->
<!DOCTYPE svg PUBLIC "-//W3C//DTD SVG 1.1//EN" "http://www.w3.org/Graphics/SVG/1.1/DTD/svg11.dtd" [
	<!ENTITY ns_svg "http://www.w3.org/2000/svg">
	<!ENTITY ns_xlink "http://www.w3.org/1999/xlink">
]>
<svg  version="1.1" id="Layer_1" xmlns="&ns_svg;" xmlns:xlink="&ns_xlink;" width="60.333" height="50.333"
	 viewBox="0 0 60.333 50.333" overflow="visible" enable-background="new 0 0 60.333 50.333" xml:space="preserve">
<g>
	<g>
		<path fill="#F2A934" d="M2.649,25.23l23.033,23.033l8.326-8.326c0,0-6.579-6.579-8.002-8.002c2.284,0,26.354,0,26.354,0
			c2.815,0,5.106-2.291,5.106-5.107v-3.145c0-2.814-2.291-5.104-5.106-5.104c0,0-24.123,0-26.408,0
			c1.43-1.43,8.182-8.182,8.182-8.182L25.809,2.07L2.649,25.23z"/>
		<g>
			<path fill="#886254" d="M25.808,1.336l-0.734,0.735L2.649,24.497l-0.735,0.734l0.735,0.733l22.299,22.3l0.734,0.734l0.734-0.734
				l7.591-7.593l0.734-0.733l-0.734-0.734l-6.748-6.749H52.36c3.103,0,5.626-2.523,5.626-5.627v-3.144
				c0-3.102-2.523-5.625-5.626-5.625H27.206l6.928-6.928l0.734-0.734l-0.734-0.734l-7.592-7.592L25.808,1.336L25.808,1.336z
				 M3.384,25.231L25.808,2.805l7.592,7.592l0,0l0,0l-8.701,8.701h1.039l0,0h0.43l0,0H52.36c2.524,0,4.587,2.062,4.587,4.586v3.144
				l0,0l0,0c0,2.524-2.063,4.588-4.587,4.588H24.753l0.734,0.734l0,0l0.304,0.305l0,0l7.482,7.483l0,0l0,0l-7.591,7.592
				L3.384,25.231L3.384,25.231L3.384,25.231z"/>
		</g>
	</g>
	<g>
		<linearGradient id="XMLID_2_" gradientUnits="userSpaceOnUse" x1="4.3018" y1="25.1665" x2="56.2988" y2="25.1665">
			<stop  offset="0" style="stop-color:#FEC260"/>
			<stop  offset="1" style="stop-color:#F0A32A"/>
		</linearGradient>
		<path fill="url(#XMLID_2_)" d="M4.302,25.23c0.862,0.862,20.519,20.519,21.381,21.381c0.758-0.758,5.916-5.916,6.674-6.674
			c-0.821-0.821-9.171-9.171-9.171-9.171h29.176c2.171,0,3.938-1.767,3.938-3.938v-3.145c0-2.171-1.767-3.937-3.938-3.937H23.132
			c0,0,8.527-8.526,9.351-9.35c-0.758-0.758-5.916-5.916-6.674-6.674C24.946,4.585,5.164,24.368,4.302,25.23z"/>
		<g>
			<path fill="#FFF38E" d="M25.808,2.805L3.384,25.231L25.683,47.53l0.918-0.918l0,0l0,0l0,0l6.673-6.674l-8.521-8.522l0,0l0,0
				H52.36c2.524,0,4.587-2.063,4.587-4.588v-3.144c0-2.524-2.063-4.586-4.587-4.586H24.698l0,0l0,0l8.701-8.701l-0.918-0.918l0,0
				l0,0L25.808,2.805L25.808,2.805z M5.22,25.231l20.588-20.59l5.756,5.756L23.78,18.18l-2.216,2.216h3.134H52.36
				c1.813,0,3.289,1.475,3.289,3.288v3.144c0,1.814-1.476,3.29-3.289,3.29H24.753h-3.134l2.216,2.216l7.603,7.604l-5.755,5.756
				L5.22,25.231L5.22,25.231z"/>
		</g>
	</g>
</g>
</svg>
