<?xml version="1.0" encoding="utf-8"?>
<!-- Generator: Adobe Illustrator 12.0.1, SVG Export Plug-In . SVG Version: 6.00 Build 51448)  -->
<!DOCTYPE svg PUBLIC "-//W3C//DTD SVG 1.1//EN" "http://www.w3.org/Graphics/SVG/1.1/DTD/svg11.dtd" [
	<!ENTITY ns_svg "http://www.w3.org/2000/svg">
	<!ENTITY ns_xlink "http://www.w3.org/1999/xlink">
]>
<svg  version="1.1" id="Layer_1" xmlns="&ns_svg;" xmlns:xlink="&ns_xlink;" width="60.333" height="50.333"
	 viewBox="0 0 60.333 50.333" overflow="visible" enable-background="new 0 0 60.333 50.333" xml:space="preserve">
<g>
	<g>
		<path fill="#3D1501" d="M26.197,10.396c0,0,6.752,6.751,8.182,8.182c-2.285,0-26.407-0.002-26.407-0.002
			c-1.359,0-2.641,0.533-3.607,1.5c-0.967,0.968-1.5,2.249-1.5,3.608v3.145c0,2.816,2.292,5.107,5.107,5.107c0,0,24.069,0,26.354,0
			c-1.423,1.423-8.002,8.002-8.002,8.002l8.325,8.326L57.683,25.23L34.522,2.069L26.197,10.396z"/>
		<path fill="#3D1501" d="M34.522,1.335L33.788,2.07l-7.591,7.592l-0.734,0.734l0.734,0.734l6.928,6.928L7.971,18.056
			c-3.103,0-5.627,2.525-5.627,5.628v3.146c0,3.103,2.524,5.627,5.627,5.627h25.1l-6.748,6.748l-0.734,0.733l0.734,0.734
			l7.591,7.592l0.734,0.735l0.734-0.735l22.299-22.299l0.734-0.734l-0.734-0.733L35.257,2.07L34.522,1.335L34.522,1.335z
			 M26.932,10.396l7.591-7.592L56.947,25.23l0,0l0,0l-22.299,22.3l-7.591-7.593l0,0l0,0l7.481-7.481l0,0l0.305-0.305l0,0
			l0.734-0.734H7.971c-2.524,0-4.588-2.065-4.588-4.588v-3.146l0,0l0,0c0-2.523,2.064-4.589,4.588-4.589l26.193,0.002l0,0h0.43l0,0
			h1.039L26.932,10.396L26.932,10.396L26.932,10.396z"/>
	</g>
	<g>
		
			<linearGradient id="XMLID_2_" gradientUnits="userSpaceOnUse" x1="132.7861" y1="25.166" x2="184.7832" y2="25.166" gradientTransform="matrix(-1 0 0 1 188.8164 0)">
			<stop  offset="0.0109" style="stop-color:#A01C15"/>
			<stop  offset="1" style="stop-color:#65040B"/>
		</linearGradient>
		<path fill="url(#XMLID_2_)" d="M27.85,10.396c0.823,0.824,9.351,9.351,9.351,9.351L7.972,19.744c-1.047,0-2.035,0.411-2.781,1.158
			c-0.747,0.747-1.158,1.734-1.158,2.782v3.145c0,2.172,1.767,3.938,3.939,3.938h29.175c0,0-8.35,8.35-9.171,9.171
			c0.758,0.758,5.915,5.916,6.673,6.674c0.862-0.862,20.52-20.519,21.382-21.381C55.168,24.368,35.385,4.584,34.522,3.722
			C33.765,4.48,28.607,9.637,27.85,10.396z"/>
		<g>
			<path fill="#E5897A" d="M34.522,2.804l-7.591,7.592l8.701,8.701l0,0l0,0L7.971,19.095c-2.524,0-4.588,2.065-4.588,4.589v3.146
				c0,2.522,2.064,4.588,4.588,4.588h27.607l0,0l0,0l-7.603,7.603l0,0l0,0l-0.918,0.918l6.673,6.674v0.001v-0.001l0,0l0.918,0.919
				l22.299-22.3L34.522,2.804L34.522,2.804z M28.768,10.396l5.755-5.756l20.589,20.59L34.648,45.693l-5.755-5.756l7.603-7.603
				l2.217-2.216h-3.135H7.971c-1.814,0-3.29-1.477-3.29-3.29v-3.146c0-1.814,1.476-3.291,3.29-3.291l27.662,0.002h3.134
				l-2.216-2.216L28.768,10.396L28.768,10.396z"/>
		</g>
	</g>
</g>
</svg>
