<?xml version="1.0" encoding="utf-8"?>
<!-- Generator: Adobe Illustrator 12.0.1, SVG Export Plug-In . SVG Version: 6.00 Build 51448)  -->
<!DOCTYPE svg PUBLIC "-//W3C//DTD SVG 1.1//EN" "http://www.w3.org/Graphics/SVG/1.1/DTD/svg11.dtd" [
	<!ENTITY ns_svg "http://www.w3.org/2000/svg">
	<!ENTITY ns_xlink "http://www.w3.org/1999/xlink">
]>
<svg  version="1.1" id="Layer_1" xmlns="&ns_svg;" xmlns:xlink="&ns_xlink;" width="39.817" height="48.405"
	 viewBox="0 0 39.817 48.405" overflow="visible" enable-background="new 0 0 39.817 48.405" xml:space="preserve">
<g>
	<g>
		<path fill="#F2A934" d="M32.134,3.28L3.72,21.094c-1.296,0.813-2.006,1.926-2,3.135c0.006,1.209,0.728,2.315,2.033,3.115
			l28.559,17.497c1.316,0.807,2.593,0.939,3.595,0.375c1.002-0.563,1.55-1.725,1.542-3.268L37.294,6.121
			c-0.008-1.544-0.566-2.7-1.572-3.253C34.716,2.313,33.441,2.46,32.134,3.28z"/>
		<path fill="#886254" d="M34.406,1.86c-0.854,0-1.74,0.284-2.635,0.844L3.356,20.518c-1.481,0.929-2.326,2.283-2.319,3.715
			c0.007,1.432,0.867,2.778,2.358,3.692l28.56,17.498c0.884,0.541,1.761,0.816,2.604,0.816c0.933,0,1.762-0.338,2.396-0.975
			c0.773-0.777,1.179-1.924,1.173-3.318L37.974,6.118V6.117C37.958,3.176,36.171,1.86,34.406,1.86L34.406,1.86z M2.4,24.227
			c-0.005-0.923,0.555-1.849,1.681-2.555L32.495,3.858c0.688-0.431,1.339-0.636,1.911-0.636c1.301,0,2.195,1.056,2.205,2.902
			l0.155,35.829c0,0.016,0,0.029,0,0.044c-0.006,1.831-0.901,2.88-2.207,2.88c-0.567,0-1.211-0.197-1.893-0.615L4.107,26.764
			C2.975,26.07,2.405,25.149,2.4,24.227L2.4,24.227z"/>
	</g>
	<g>
		<linearGradient id="XMLID_2_" gradientUnits="userSpaceOnUse" x1="3.252" y1="24.0488" x2="35.916" y2="24.0488">
			<stop  offset="0" style="stop-color:#FEC260"/>
			<stop  offset="1" style="stop-color:#F0A32A"/>
		</linearGradient>
		<path fill="url(#XMLID_2_)" d="M32.947,4.579L4.534,22.393c-0.827,0.519-1.282,1.166-1.282,1.822c0,0.002,0,0.005,0,0.007
			c0.003,0.659,0.466,1.304,1.301,1.816l28.558,17.497c0.81,0.496,1.555,0.622,2.043,0.347c0.488-0.274,0.766-0.977,0.762-1.925
			L35.761,6.127c-0.005-0.949-0.288-1.648-0.777-1.917C34.493,3.94,33.752,4.075,32.947,4.579z"/>
		<path fill="#FFF38E" d="M34.406,3.222c-0.572,0-1.224,0.205-1.911,0.636L4.081,21.672c-1.126,0.706-1.686,1.632-1.681,2.555
			s0.575,1.843,1.708,2.538l28.56,17.497c0.682,0.418,1.325,0.615,1.893,0.615c1.306,0,2.201-1.049,2.207-2.88
			c0-0.015,0-0.028,0-0.044L36.611,6.124C36.602,4.278,35.707,3.222,34.406,3.222L34.406,3.222z M34.56,43.174
			c-0.259,0-0.625-0.134-1.003-0.365L4.998,25.312c-0.559-0.342-0.893-0.752-0.895-1.095c-0.002-0.343,0.328-0.755,0.883-1.102
			L33.399,5.301c0.541-0.339,0.885-0.376,1.007-0.376c0.46,0,0.501,0.925,0.502,1.208c0,0,0-0.001,0-0.002l0.155,35.83
			c0.003,0.632-0.143,1.004-0.28,1.142C34.758,43.128,34.713,43.174,34.56,43.174L34.56,43.174z"/>
	</g>
</g>
</svg>
