<svg height="32" viewBox="0 0 32 32" width="32" xmlns="http://www.w3.org/2000/svg"><g fill="#3a3a38" transform="matrix(.93565712 0 0 .95298416 5.06863 4.86863)"><path d="m6.3392565 7.4831991h3.206303v1.6789366h3.8463045c.904258 0 1.278436-.2018775 1.28378-.6055301v-2.5424758h3.420056v2.7840878c0 1.9215494-.968848 2.8823234-2.906545 2.8823234h-8.8498985zm3.206303 11.5298289 2.5650425-2.295678 2.565042 2.271456v-6.25893h3.420056v9.444018h-3.245641l-2.739457-2.489447-2.7273471 2.489447h-3.0439984l.0000001-9.444018h3.2063029z"/><path d="m6.9397549 4.2538432c0-2.0184335 1.2445502-3.0839539 4.1510951-3.0839539 1.202986 0 2.373677.3027651 3.512074.9082951 1.130322.6055301 2.177158 1.2411185 3.065269 2.0484919v1.8776293l-9.5209511.00982c-.807373.0008373-1.207487-.5492222-1.207487-1.7602824zm4.1269301-1.0086041c-.888111 0-1.3321666.3633181-1.3321666 1.0899541h4.9411256c-.904259-.726636-2.107245-1.0899541-3.608959-1.0899541z"/></g></svg>