<svg viewBox="0 0 32 32" xmlns="http://www.w3.org/2000/svg"><rect fill="#1e8bcd" height="1" ry=".5" width="14.999998" x="4" y="4"/><rect fill="#3a3a38" height="1" ry=".385879" width="12" x="4" y="14"/><rect fill="#1e8bcd" height="1" ry=".436441" width="15.000001" x="4" y="24"/><rect fill="#1e8bcd" height="1" ry=".5" width="8.999999" x="10" y="27"/><g fill="#3a3a38"><rect height="1" ry=".5" width="6" x="10" y="17"/><rect fill="#1e8bcd" height="1" ry=".5" width="9.000002" x="10" y="7"/></g><path d="m27.75 4c.1385 0 .25.1115001.25.25v.5 20c0 .1385-.1115.25-.25.25h-.25l-4.777344-.002 1.138672 1.144531c.325519.317186.09299.868973-.361328.857469-.130048-.0041-.25337-.05875-.34375-.152344l-1.90625-1.912109c-.173289-.160699-.223009-.266429-.224609-.435547.0016-.169118.05132-.274898.224609-.435547l1.90625-1.912109c.09038-.09359.213702-.148244.34375-.152344.454318-.0115.686847.540283.361328.857422l-1.138672 1.144531 4.277344-.001953v-19h-5.75c-.1385 0-.25-.1115001-.25-.25v-.5c0-.1384999.1115-.25.25-.25z" fill="#1e8bcd" fill-rule="evenodd"/></svg>