<svg height="32" viewBox="0 0 8.4666666 8.466667" width="32" xmlns="http://www.w3.org/2000/svg"><g stroke-width=".264583" transform="translate(0 -288.5333)"><path d="m4 3a1.0001 1.0001 0 0 0 -1 1v21a1.0001 1.0001 0 0 0 .2929688.707031l3 3a1.0001 1.0001 0 0 0 .7070312.292969h21a1.0001 1.0001 0 0 0 1-1v-6.277344c-.286998.164788-.615022.268336-.96875.279297-.466974.015118-.924432-.13608-1.291016-.425781a1.0029477 1.0029477 0 0 1 -.001953 0l-8.990234-7.113281a1.0029477 1.0029477 0 0 1 0-.001953c-.435661-.345449-.695793-.845361-.746094-1.365235a1.0029477 1.0029477 0 0 1 0-.191406c.031065-.321057.150945-.630151.333985-.904297h-9.335938v-8h16v2.5898438l2.738281-2.1660157a1.0029477 1.0029477 0 0 1 .001953 0c.366584-.2895118.824025-.4401434 1.291016-.4257812.35373.0113386.681751.1145095.96875.2792969v-.2773438a1.0001 1.0001 0 0 0 -1-1zm13.748047 8.539062c-.088188.069939-.16708.147842-.238281.230469.073602-.081608.149967-.160419.238281-.230469zm-8.748047 8.460938h14v8h-9v-7h-3v7h-2z" fill="#922e9b" stroke-width=".999999" transform="matrix(.26458334 0 0 .26458334 0 288.5333)"/><path d="m1.0583333 289.59163v5.55625l.79375.79375h.2645834v-2.38125h4.0963908l-1.5172201-1.20044a.26536325.26536325 0 0 1 0-.00053c-.1152686-.0914-.1840952-.22365-.197404-.36121a.26536325.26536325 0 0 1 -.00103-.0253h-2.6453201v-2.38125zm5.55625 0v.47594l.4599202-.3638a.26536325.26536325 0 0 1 .0005292 0c.094513-.0747.2119889-.11368.3322672-.11214zm-.2645833 4.07727v2.27273h1.0583333v-1.5875c-.1206386.002-.2385142-.0372-.3333131-.11213a.26536325.26536325 0 0 1 -.0005291 0z" fill="#d492d8"/><path d="m2.1166667 289.59163v2.11667h2.4701336c.02999-.0449.064955-.087.1090371-.12196a.26536325.26536325 0 0 1 0-.00053l1.6541626-1.30895v-.68523zm.2645833 4.23334v2.11666h.5291667v-1.85208h.79375v1.85208h2.38125v-2.11666z" fill="#fafafa"/><path d="m7.4085103 289.85622c.1397741.004.2639481.12474.2645834.26458v1.85208 1.85209c-.000635.13984-.1248093.26026-.2645834.26458-.061143.002-.1209862-.0179-.1689819-.0558l-2.3786661-1.88206c-.058257-.0462-.0917-.11177-.098185-.1788.00648-.067.039928-.13259.098185-.1788l2.3786664-1.88205c.047996-.0379.1078391-.0577.1689819-.0558z" fill="#309048"/><path d="m7.4085103 290.1208v1.85208 1.85209l-2.3466269-1.85209z" fill="#a1ddaa"/></g></svg>