<svg viewBox="0 0 24 24" xmlns="http://www.w3.org/2000/svg"><path d="m9.1210938 2-1 1h.3789062c.8137028 0 1.5.6862972 1.5 1.5s-.6862972 1.5-1.5 1.5h-.3808594l1.4375 1.4375c.5752824.5752835.5752834 1.5458102 0 2.1210938-.5752838.5752842-1.5458099.5752842-2.1210937 0l-1.4355469-1.4355469v.3769531c0 .8137028-.6862972 1.5-1.5 1.5s-1.5-.6862972-1.5-1.5v3.5h8v3h1c.554 0 1 .446 1 1v5h8v-19z" fill="#fafafa"/><path d="m9.9003906 1c-.0707617.2070303-.1817515.4024546-.34375.5644531l-.4355468.4355469h5.8789062 1 5v3 1 3 1 3 1 3 1 3h-5-1-2v1h9v-21zm-6.9003906 7.1210938-1 1v2.8789062h1v-2-1-.5z" fill="#3a3a38"/><path d="m9 14v2h-5v-2z" fill="#fafafa"/><path d="m10 13v3h-1v-2h-5v2h-1v-3h1 5zm1 3c.554 0 1 .446 1 1v4c0 .554-.446 1-1 1h-1v2h-1-5-1v-2h-1c-.554 0-1-.446-1-1v-4c0-.554.446-1 1-1v3h9zm-2 6h-5v1h5z" fill="#3a3a38"/><path d="m10 16h-7v2h7z" fill="#1e8bcd"/><path d="m9 22v1h-5v-1z" fill="#fafafa" stroke-width=".707107"/><path d="m15 2v3h-5.09375c-.211337.5755473-.7674377 1-1.40625 1h-.3808594l.8808594.8808594v-.8808594h6v3h-5.0996094c-.070932.2050019-.1831539.3979976-.34375.5585938-.5752838.5752842-1.5458099.5752842-2.1210937 0l-.5585938-.5585938h-.9707031c-.211337.5755473-.7674377 1-1.40625 1h3.5v2h1v-2h6v3h-4v1h4v3h-2v1h2v3h1v-3h5v-1h-5v-3h5v-1h-5v-3h5v-1h-5v-3h5v-1h-5v-3zm-10.5 8c-.6388123 0-1.194913-.4244527-1.40625-1h-.09375v1zm4.5-7.8789062-.8789062.8789062h.3789062c.1748905 0 .3424298.0358913.5.09375z" fill="#797774"/><path d="m9.1210938 2-1 1h.3789062c.8137028 0 1.5.6862972 1.5 1.5s-.6862972 1.5-1.5 1.5h-.3808594l1.4375 1.4375c.4146866.4146874.5269084 1.0331491.34375 1.5625h5.0996094v-7zm-3.1210938 6.1230469v.3769531c0 .1748905-.0358913.3424298-.09375.5h.9707031zm-3 .3769531v.5h.09375c-.0578587-.1575702-.09375-.3251095-.09375-.5z" fill="#1e8bcd" opacity=".5"/><path d="m9.9003906 1c-.0707617.2070303-.1817515.4024546-.34375.5644531l-.4355468.4355469h5.8789062 1v-1h-1zm-6.9003906 7.1210938-1 1v.8789062h1v-1-.5z" fill="#0063b1"/><path d="m15 2v3h-5.09375c-.211337.5755473-.7674377 1-1.40625 1h-.3808594l.8808594.8808594v-.8808594h6v3h-5.0996094c-.070932.2050019-.1831539.3979976-.34375.5585938-.5752838.5752842-1.5458099.5752842-2.1210937 0l-.5585938-.5585938h-.9707031c-.211337.5755473-.7674377 1-1.40625 1h11.5v-8zm-10.5 8c-.6388123 0-1.194913-.4244527-1.40625-1h-.09375v1zm4.5-7.8789062-.8789062.8789062h.3789062c.1748905 0 .3424298.0358913.5.09375z" fill="#1e8bcd"/><path d="m11 19v2h-9v-2z" fill="#797774" fill-opacity=".959559"/><g transform="translate(1)"><path d="m3.5 0c-.277 0-.5.223-.5.5v1.5507812a2.5 2.5 0 0 0 -.8789062.3652344l-2.26562505-2.26562498c-.19586858-.19586857-.51116267-.19586857-.70703125 0-.1958686.19586858-.1958686.51116268 0 .70703126l2.265625 2.26562502a2.5 2.5 0 0 0 -.359375.8769531h-1.5546875c-.277 0-.5.223-.5.5s.223.5.5.5h1.5507812a2.5 2.5 0 0 0 .3652344.8769531l-2.2675781 2.2675781c-.1958685.1958687-.1958685.5111627 0 .7070313.19586857.1958685.51116267.1958685.70703125 0l2.26757815-2.2675781a2.5 2.5 0 0 0 .8769531.3613281v1.5546875c0 .277.223.5.5.5s.5-.223.5-.5v-1.5507812a2.5 2.5 0 0 0 .875-.3652344l2.2675781 2.2675781c.1958686.1958686.5111627.1958686.7070313 0s.1958686-.5111626 0-.7070313l-2.265625-2.265625a2.5 2.5 0 0 0 .3613281-.8789062h1.5546875c.277 0 .5-.223.5-.5s-.223-.5-.5-.5h-1.5507812a2.5 2.5 0 0 0 -.3652344-.8769531l2.265625-2.26562502c.1958686-.19586858.1958686-.51116268 0-.70703126-.1958686-.19586857-.5111627-.19586857-.7070313 0l-2.265625 2.26562498a2.5 2.5 0 0 0 -.8769531-.3613281v-1.5546875c0-.277-.223-.5-.5-.5zm0 3a1.5 1.5 0 0 1 1.5 1.5 1.5 1.5 0 0 1 -1.5 1.5 1.5 1.5 0 0 1 -1.5-1.5 1.5 1.5 0 0 1 .4394531-1.0585938 1.5 1.5 0 0 1 .0019531-.0019531 1.5 1.5 0 0 1 1.0585938-.4394531z" fill="#fb983b"/><circle cx="3.5" cy="4.5" fill="#fafafa" r="1.5"/></g></svg>