<svg viewBox="0 0 24 24" xmlns="http://www.w3.org/2000/svg"><path d="m11.414062 3-1.064453 1.0644531a1.0001 1.0001 0 0 1 .263672 1.7246094l-5.613281 4.3652345v10.845703h14v-11.2480469l-6.050781 6.3261719a1.0028145 1.0028145 0 0 1 -.015625.015625c-.061775.061771-.1381.049603-.207032.095703a1.0028145 1.0028145 0 0 1 -.410156.261719l-2.9999998 1a1.0028145 1.0028145 0 0 1 -1.2675781-1.267578l.9960938-2.986328-.0488281.248046c.0196217-.286573.1374402-.625721.3984374-.886718l7.4726568-7.8183596-1.867188-1.7402344z" fill="#fafafa"/><path d="m12.414062 2-1 1h2.585938v4c0 .2071648.078489.3875883.185547.546875l3.294922-3.4472656-1.392578-1.3632813c-.709525-.7368575-.710169-.7363281-1.09375-.7363281h-.332032-.662109zm7.585938 6.7050781-1 1.046875v11.2480469h-14v-10.845703l-1 .779297v10.066406c0 .554.446 1 1 1h14c.554 0 1-.446 1-1v-10.109375z" fill="#3a3a38"/><path d="m15 3v3.6953125l1.806641-1.8886719z" fill="#fafafa"/><path d="m10.998047 5a1.0001 1.0001 0 0 1 -.384766.7890625l-.271484.2109375h2.273437c.213554 0 .384766-.1712119.384766-.3847656v-.2304688c0-.2135537-.171212-.3847656-.384766-.3847656zm-1.9414064 2-1.2851562 1h4.8437496c.213554 0 .384766-.1712119.384766-.3847656v-.2304688c0-.2135537-.171212-.3847656-.384766-.3847656zm-2.5566406 2c-.006925 0-.0126764.0036301-.0195312.0039062l-.4511719.3515626c-.0142085.0464997-.0292969.0932596-.0292969.1445312 0 .277.223.5.5.5h5.339844l.957031-1zm0 2c-.277 0-.5.223-.5.5s.223.5.5.5h3.4277344l.9570316-1zm11.240234.068359-.890625.931641h.650391c.277 0 .5-.223.5-.5 0-.188332-.106712-.346348-.259766-.431641zm-11.240234 1.931641c-.277 0-.5.223-.5.5s.223.5.5.5h2.2773438l.2675781-.802734-.0488281.248046c.0096413-.14081.0450275-.294622.1074218-.445312zm9.392578 0-.955078 1h2.5625c.277 0 .5-.223.5-.5s-.223-.5-.5-.5zm-9.392578 2c-.277 0-.5.223-.5.5s.223.5.5.5h1.609375l.3339844-1zm7.480469 0-.957031 1h4.476562c.277 0 .5-.223.5-.5s-.223-.5-.5-.5zm-7.480469 2c-.277 0-.5.223-.5.5s.223.5.5.5h11c.277 0 .5-.223.5-.5s-.223-.5-.5-.5h-6.830078l-1.3535158.451172a1.0028145 1.0028145 0 0 1 -1.1835937-.451172zm0 2c-.277 0-.5.223-.5.5s.223.5.5.5h11c.277 0 .5-.223.5-.5s-.223-.5-.5-.5z" fill="#ed3d3b"/><path d="m21.310955 2.115187 1.576175 1.576175c.151005.1510055.1476.3908101 0 .5451453l-10.662219 11.1487627c-.151006.151005-.39414.151005-.545146 0l-1.576175-1.576175c-.1510051-.151006-.1510051-.390234 0-.54124l10.662219-11.152668c.151006-.1510052.39414-.1510055.545146 0z" fill="#d42314"/><path d="m21.038382 3.2568279.707107.7071067-9.793151 10.2796944-.707107-.707107z" fill="#ff9198"/><path d="m10 13.5-1 3 3-1z" fill="#d42314"/><path d="m16.648932-11.313708h2.229048c.213554 0 .385476.171922.385476.385476v.229048c0 .213553-.171922.385476-.385476.385476h-2.229048c-.213553 0-.385476-.171923-.385476-.385476v-.229048c0-.213554.171923-.385476.385476-.385476z" fill="#d42314" transform="matrix(.70710678 .70710678 -.70710678 .70710678 0 0)"/><g fill-rule="evenodd"><path d="m6.004237 1h5.995763l-4 4h2l-9 7 3-6h-2z" fill="#ed8733"/><path d="m6.484375 2-2.40625 3.0039062a1.0001 1.0001 0 0 1 .8164062 1.4433594l-1.0292968 2.0585938 3.5078125-2.7285156a1.0001 1.0001 0 0 1 -.0800781-1.484375l2.2929687-2.2929688z" fill="#f8db8f"/></g></svg>