<svg viewBox="0 0 24 24" xmlns="http://www.w3.org/2000/svg"><path d="m16 4v1c1.1846 0 2 .67365 2 2.40625v2.6875c0 .831 1.00158 2.39355 2 2.90625-1.682649.268764-2 1.297561-2 2.25v3.34375c0 1.7326-.8155 2.40625-2 2.40625v1c1.77683 0 3.046875-.6966 3.046875-2.5v-3.78125c0-1.739523 1.452593-1.71875 2.953125-1.71875v-2c-1.128954 0-2.953125-.709412-2.953125-2.40625v-3.09375c0-1.8034-1.270045-2.5-3.046875-2.5z" fill="#3a3a38"/><path d="m8 4v1c-1.1846 0-2 .67365-2 2.40625v2.6875c0 .831-1.00158 2.39355-2 2.90625 1.682649.268764 2 1.297561 2 2.25v3.34375c0 1.7326.8155 2.40625 2 2.40625v1c-1.77683 0-3.046875-.6966-3.046875-2.5v-3.78125c0-1.739523-1.452593-1.71875-2.953125-1.71875v-2c1.128954 0 2.953125-.709412 2.953125-2.40625v-3.09375c0-1.8034 1.270045-2.5 3.046875-2.5z" fill="#3a3a38"/><path d="m2.5 2.015625c-.276142 0-.5.223858-.5.5s.223858.5.5.5h6c1.380712 0 2.5 1.119288 2.5 2.5h.005859v.4238281l-.003906 3.3476563-2.1445311-2.1347656a.50005.50005 0 0 0 -.359375-.1503907.50005.50005 0 0 0 -.3457031.859375l3.0039062 2.9921879a.50005.50005 0 0 0 .707031 0l2.996094-2.9921879a.50005.50005 0 1 0 -.707031-.7070312l-2.150391 2.1484375.003906-3.3632813v-.5c-.0059-2.154663-1.883369-3.3737981-3.505859-3.4238281z" fill="#1e8bcd" fill-rule="evenodd"/></svg>