<svg viewBox="0 0 24 24" xmlns="http://www.w3.org/2000/svg"><path d="m8.9746094 2.2226562a1 1 0 0 1 -.8203125.765625l12.8710941 13.7890628a1 1 0 0 1 .820312-.765625z" fill="#3a3a38"/><path d="m23.499999 17c.000558.828266-.671178 1.500001-1.5 1.500001-.828819 0-1.500556-.671735-1.499999-1.500001-.000557-.828263.67118-1.499999 1.499999-1.499999.828822 0 1.500558.671736 1.5 1.499999z" fill="none" stroke="#1e8bcd"/><path d="m9.4999993 2c.000558.828266-.671178 1.500001-1.5 1.500001-.828819 0-1.500556-.671735-1.499999-1.500001-.000557-.828263.67118-1.499999 1.499999-1.499999.828822 0 1.500558.671736 1.5 1.499999z" fill="none" stroke="#1e8bcd"/><path d="m7 6a10 10 0 0 0 -5 1.3554688v1.1699218a9 9 0 0 1 5-1.5253906 9 9 0 0 1 9 9 9 9 0 0 1 -3.347656 7h1.476562a10 10 0 0 0 2.871094-7 10 10 0 0 0 -10-10z" fill="#0063b1"/></svg>