<svg viewBox="0 0 24 24" xmlns="http://www.w3.org/2000/svg"><path d="m29.286478-16.164061-9.631016 25.6624824h1.94191c.299479 0 .55201-.084183.760343-.253448.221354-.1692614.371655-.3640757.449781-.5854296l2.309588-6.5468061h5.964947 5.964948l2.309588 6.5468061c.07812.2213539.228425.4161682.449781.5854296.208333.1692651.460862.253448.760342.253448h1.94191l-9.631016-25.6624824h-1.795553zm1.795553 1.82768c.130208.494792 1.072775 2.481919 1.202985 2.898586.130207.416666.254058.779824.371247 1.092324l3.748171 10.6305288h-5.322403-5.322404l3.748172-10.6305288c.117189-.312501.24104-.675658.371248-1.092324.130209-.416667 1.072777-2.403794 1.202984-2.898586z" fill="#3a3a38" transform="matrix(.54714177 0 0 .54714177 -5.006278 11.844033)"/><path d="m0 20h24v4h-24z" fill="#ed3d3b"/></svg>