<svg viewBox="0 0 24 24" xmlns="http://www.w3.org/2000/svg"><path d="m11.5 4c-2.493 0-4.5 1.338-4.5 3v4c0 1.662 2.007 3 4.5 3h3.5v-1h-4c-1.662 0-3-1.115-3-2.5v-3c0-1.385 1.338-2.5 3-2.5h7c1.662 0 3 1.115 3 2.5v3c0 1.385-1.338 2.5-3 2.5v.966797c2.252448-.167008 4-1.419169 4-2.966797v-4c0-1.662-2.007-3-4.5-3zm-2.5 6v1h4c1.662 0 3 1.115 3 2.5v3c0 1.385-1.338 2.5-3 2.5h-7c-1.662 0-3-1.115-3-2.5v-3c0-1.385 1.338-2.5 3-2.5v-.966797c-2.2524483.167008-4 1.419169-4 2.966797v4c0 1.662 2.007 3 4.5 3h6c2.493 0 4.5-1.338 4.5-3v-4c0-1.662-2.007-3-4.5-3z" fill="#3a3a38"/></svg>