<svg viewBox="0 0 24 24" xmlns="http://www.w3.org/2000/svg"><path d="m3 3h11v14h-11z" fill="#fafafa"/><path d="m3 2c-.554 0-1 .446-1 1v14c0 .554.446 1 1 1h6.357422 3.402344 1.240234c.1385 0 .270906-.02766.390625-.07813.359156-.151401.609375-.50637.609375-.92187v-2.724609-7.984375-3.291016c0-.1385-.027656-.2709062-.078125-.390625-.151406-.3591562-.506375-.609375-.921875-.609375h-1.240234-3.402344zm0 1h5.332031 4.638672 1.029297v3.007812 7.984376 3.007812h-1.029297-4.638672-5.332031v-2.769531-7.984375z" fill="#3a3a38"/><g fill="#797774"><rect height="1" ry=".5" width="9" x="4" y="11"/><rect height="1" ry=".453034" width="9" x="4" y="14"/><rect height="1" ry=".5" width="9" x="4" y="5"/><rect height="1" ry=".453034" width="9" x="4" y="8"/></g><path d="m10 7h11v14h-11z" fill="#fafafa"/><path d="m10 6c-.554 0-1 .446-1 1v14c0 .554.446 1 1 1h6.357422 3.402344 1.240234c.1385 0 .270906-.02766.390625-.07813.359156-.151401.609375-.50637.609375-.92187v-2.724609-7.984375-3.291016c0-.1385-.027656-.2709062-.078125-.390625-.151406-.3591562-.506375-.609375-.921875-.609375h-1.240234-3.402344zm0 1h5.332031 4.638672 1.029297v3.007812 7.984376 3.007812h-1.029297-4.638672-5.332031v-2.769531-7.984375z" fill="#0063b1"/><rect fill="#83beec" height="1" ry=".5" width="9" x="11" y="15"/><rect fill="#83beec" height="1" ry=".453034" width="9" x="11" y="18"/><rect fill="#83beec" height="1" ry=".5" width="9" x="11" y="9"/><rect fill="#83beec" height="1" ry=".453034" width="9" x="11" y="12"/></svg>