<svg viewBox="0 0 24 24" xmlns="http://www.w3.org/2000/svg"><path d="m9 7c-.554 0-1 .446-1 1v1.5898438 9.8203122 1.589844c0 .554.446 1 1 1h1 .5c-.277 0-.5-.223-.5-.5v-.5h-1v-1.265625-2.734375-5-2.734375-1.265625h1 8 1v1.265625 1.248047a6.5 6.5 0 0 1 .951172.486328h.048828v-1.4101562-1.5898438c0-.554-.446-1-1-1h-1-8z" fill="#3a3a38"/><path d="m9 8v1.265625 7.734375 2.734375 1.265625h1v-2-2.5a6.5 6.5 0 0 1 6.5-6.5 6.5 6.5 0 0 1 2.5.513672v-1.248047-1.265625h-1z" fill="#fafafa"/><path d="m16.5 11c-2.842075.0024-5.214286 2.169693-5.472656 5h1.003906c.2545-2.276321 2.178247-3.998276 4.46875-4 1.903272.0043 3.598001 1.205572 4.232422 3h-2.232422c-.277 0-.5.223-.5.5s.223.5.5.5h3c.06925 0 .135453-.01383.195312-.03906.179579-.075706.304688-.25319.304688-.46094v-3c0-.277-.223-.5-.5-.5s-.5.223-.5.5v.849609c-1.027231-1.470011-2.706643-2.346892-4.5-2.349609zm-5 6c-.277 0-.5.223-.5.5v3c0 .277.223.5.5.5s.5-.223.5-.5v-.867188c.99762 1.431399 2.64246 2.366305 4.5 2.367188 2.842075-.0024 5.214286-2.169693 5.472656-5h-1.003906c-.2545 2.276321-2.178247 3.998276-4.46875 4-1.937261-.0023-3.59894-1.24237-4.222656-3h2.222656c.277 0 .5-.223.5-.5s-.223-.5-.5-.5z" fill="#18ab50"/><path d="m5 3c-.554 0-1 .446-1 1v13c0 .554.446 1 1 1h2v-1h-2v-13h10v2h1v-2c0-.554-.446-1-1-1z" fill="#3a3a38"/><path d="m5 4v13h2v-11h8v-2z" fill="#fafafa"/></svg>