<svg viewBox="0 0 24 24" xmlns="http://www.w3.org/2000/svg"><path d="m3 4v5.1054688 9.1113282.783203h.8085938 7.8652342c.108615-.108547.217577-.215672.326172-.324219.01761.017602.035108.035195.052734.052735a6 6 0 0 1 -.052734-.728516 6 6 0 0 1 6-6 6 6 0 0 1 3 .810547v-3.7050782-5.1054688z" fill="#1e8bcd"/><path d="m2 3v17h7.5 1.455078 1.394531a6 6 0 0 1 -.263671-1h-.41211-2.173828-6.5v-15h18v5.1054688 3.7050782a6 6 0 0 1 1 .724609v-1.677734-8.857422z" fill="#3a3a38"/><path d="m20 5h-16v1 2 1h16v-1-2zm-1 1v2h-14v-2z" fill="#fafafa"/><path d="m4 10v1 6 1h8a6 6 0 0 1 .089844-1h-7.089844v-6h14v1.089844a6 6 0 0 1 1 .261718v-1.351562-1z" fill="#fafafa"/><path d="m18 13a5 5 0 0 0 -5 5 5 5 0 0 0 5 5 5 5 0 0 0 5-5 5 5 0 0 0 -5-5z" fill="#ed3d3b"/><path d="m15.494141 14.994141a.50005.50005 0 0 0 -.347657.859375l2.146485 2.146484-2.146485 2.146484a.50005.50005 0 1 0 .707032.707032l2.146484-2.146485 2.146484 2.146485a.50005.50005 0 1 0 .707032-.707032l-2.146485-2.146484 2.146485-2.146484a.50005.50005 0 0 0 -.363282-.857422.50005.50005 0 0 0 -.34375.15039l-2.146484 2.146485-2.146484-2.146485a.50005.50005 0 0 0 -.359375-.152343z" fill="#fafafa"/></svg>