<svg viewBox="0 0 24 24" xmlns="http://www.w3.org/2000/svg"><g fill="#fafafa"><path d="m15 16h7v5h-7z"/><path d="m15 4h7v5h-7z"/><path d="m2 10h7v5h-7z"/></g><path d="m14.646484 5.6464844-5.646484 5.6464846v.707031.707031l5.646484 5.646485.353516-.353516v-.707031l-5.2929688-5.292969 5.2929688-5.2929688v-.7070312z" fill="#1e8bcd" fill-rule="evenodd"/><g fill="#3a3a38"><g><path d="m1 10v6h9v-6h-1v5h-7v-5z"/><path d="m14 4v6h9v-6h-1v5h-7v-5z"/><path d="m14 16v6h9v-6h-1v5h-7v-5z"/><g fill="#797774"><path d="m3 11v1h5v-1zm0 2v1h5v-1z"/><path d="m16 5v1h5v-1zm0 2v1h5v-1z"/><path d="m16 17v1h5v-1zm0 2v1h5v-1z"/></g></g><g><path d="m14 2h9v2h-9z"/><path d="m14 14h9v2h-9z"/><path d="m1 8h9v2h-9z"/></g></g></svg>