<svg height="24" viewBox="0 0 6.3499999 6.3500002" width="24" xmlns="http://www.w3.org/2000/svg" xmlns:xlink="http://www.w3.org/1999/xlink"><linearGradient id="a" gradientUnits="userSpaceOnUse" x1="68.99999892188" x2="68.99999892188" xlink:href="#b" y1="32.00006485532" y2="17.00006508969"/><linearGradient id="b" gradientUnits="userSpaceOnUse" x1="63" x2="63" y1="35" y2="20"><stop offset="0" stop-color="#e9e9e9"/><stop offset=".2857143" stop-color="#f2f2f2"/><stop offset="1" stop-color="#fbfbfb"/></linearGradient><linearGradient id="c" gradientUnits="userSpaceOnUse" x1="62.99999901562" x2="62.99999901562" xlink:href="#b" y1="35.00006858797" y2="20.00006882234"/><g stroke-width=".264583"><g transform="translate(0 -290.64998)"><g stroke-width=".999999" transform="matrix(.26458334 0 0 .26458334 0 290.64998)"><path d="m9 6v12h3.34375l8.65625-8.9355469v-3.0644531z" fill="url(#a)"/><path d="m3 9v12h6.4375l5.5625-5.742188v-6.257812z" fill="url(#c)"/><path d="m9 2c-.5539997 0-1 .4459969-1 1v2h-5c-.554 0-1 .4459969-1 1v15c0 .554003.446 1 1 1h5.46875l.96875-1h-6.4375v-12h5v9c0 .554003.4460003 1 1 1h2.375l.96875-1h-3.34375v-9h6v6.257812l1-1.03125v-8.226562h5v3.0644531l1-1.03125v-5.0332031c0-.5540031-.446-1-1-1z" fill="#3a3a38"/></g><g fill="#98989d"><g fill="#797774"><path d="m16.5 13c-.277001 0-.5.223-.5.5 0 .194999.113323.358887.275391.441406l.912109-.941406z" stroke-width=".999999" transform="matrix(.26458334 0 0 .26458334 0 290.64998)"/><path d="m16.5 10c-.277001 0-.5.223-.5.5s.222999.5.5.5h2.625l.769531-.792969c-.090962-.122509-.229547-.207031-.394531-.207031z" stroke-width=".999999" transform="matrix(.26458334 0 0 .26458334 0 290.64998)"/><rect height=".264583" rx=".132292" width="1.058333" x="4.233333" y="292.502083"/><rect fill="#797774" height=".264583" rx=".132292" width="1.058333" x="1.058333" y="293.295833"/><rect height=".264583" rx=".132292" width="1.058333" x="1.058333" y="294.089583"/><rect height=".264583" rx=".132292" width="1.058333" x="1.058333" y="294.883333"/></g><g fill="#1e8bcd"><path d="m10.5 16c-.277001 0-.5.223-.5.5s.222999.5.5.5h2.8125l.652344-.673828c-.07067-.190142-.249503-.326172-.464844-.326172z" stroke-width=".999999" transform="matrix(.26458334 0 0 .26458334 0 290.64998)"/><rect height=".264583" rx=".132292" width="1.058333" x="2.645833" y="293.295833"/><rect height=".264583" rx=".132292" width="1.058333" x="2.645833" y="294.089583"/></g><rect fill="#797774" height=".264583" rx=".132292" width="1.058333" x="1.058333" y="295.677083"/></g><path d="m.79375 291.97292c-.14657916 0-.26458333.118-.26458333.26458v.52917.26458h.26458333 3.175.2645834v-.26458-.52917c0-.14658-.1180042-.26458-.2645834-.26458z" fill="#3a3a38"/><path d="m.79375 292.2375v.52917h1.3229167v-.52917zm1.5875 0v.52917h1.5875v-.52917z" fill="#797774"/><path d="m2.38125 291.17917c-.1465791 0-.2645833.118-.2645833.26458v.52917.26458h.2645833 3.175.2645834v-.26458-.52917c0-.14658-.1180042-.26458-.2645834-.26458z" fill="#3a3a38"/><path d="m2.38125 291.44375h3.175v.52917h-3.175z" fill="#797774"/></g><path d="m5.688524 2.7781251-2.778125 2.9104166h2.778125zm-.5291667 1.3229167v1.0583333h-1.0583333z" fill="#f8db8f" fill-rule="evenodd" stroke="#ed8733" stroke-linecap="round" stroke-linejoin="round"/></g></svg>