<svg viewBox="0 0 24 24" xmlns="http://www.w3.org/2000/svg"><path d="m3 4h17v15h-17z" fill="#fafafa"/><path d="m6 4v3h-3v1h3v3h-3v1h3v3h-3v1h3v3h1v-3h9v3h1v-3h3v-1h-3v-3h3v-1h-3v-3h3v-1h-3v-3h-1v3h-9v-3zm1 4h9v3h-9zm0 4h9v3h-9z" fill="#797774"/><path d="m6 11h10v5h-10z" fill="#0063b1" stroke-width="1.054093"/><path d="m6 7h7v5h-7z" fill="#0063b1" stroke-width=".881917"/><path d="m2 3v1 15c0 .554.446 1 1 1h17c.554 0 1-.446 1-1v-15-1zm1 1h17v15h-17z" fill="#3a3a38"/><path d="m6 15h5v5h-5z" fill="#0063b1" stroke-width=".745356"/><path d="m7 8h5v3h-5z" fill="#ff9198"/><path d="m6 3h9v5h-9z" fill="#0063b1"/><g fill="#83beec"><path d="m7 4h7v3h-7z"/><path d="m7 8h5v3h-5z"/><path d="m7 12h8v3h-8z" stroke-width="1.069045"/><path d="m7 16h3v3h-3z" stroke-width=".654654"/></g></svg>