<svg viewBox="0 0 24 24" xmlns="http://www.w3.org/2000/svg"><g fill="#fafafa"><path d="m15 16h7v5h-7z"/><path d="m16.121094 4-1 1h.378906c.813703 0 1.5.6862972 1.5 1.5s-.686297 1.5-1.5 1.5h-.380859l1 1h5.880859v-5z"/><path d="m2 10v5h7v-3.878906l-.4375.4375c-.5752839.575283-1.5458098.575283-2.1210938 0-.4137524-.413753-.5251513-1.03003-.34375-1.558594z"/></g><path d="m10 10.292969-1 1v.707031.707031l5.646484 5.646485.353516-.353516v-.707031l-5.2929688-5.292969.6054688-.605469c-.192439-.252351-.3125-.560695-.3125-.894531z" fill="#1e8bcd"/><g fill="#3a3a38"><path d="m1 10v6h9v-5.5-.378906l-1 1v3.878906h-7v-5z"/><path d="m22 4v5h-5.880859l.4375.4375c.16153.161531.27293.3561459.34375.5625h6.099609v-6z"/><path d="m14 16v6h9v-6h-1v5h-7v-5z"/><g fill="#797774"><path d="m3 11v1h5v-.097656c-.528564.181401-1.144841.070002-1.5585938-.34375-.1605961-.160596-.2728179-.353592-.34375-.558594zm0 2v1h5v-1z"/><path d="m16 5v.09375c.417977.1534783.752772.4882729.90625.90625h4.09375v-1zm.90625 2c-.153478.4179771-.488273.7527717-.90625.90625v.09375h5v-1z"/><path d="m16 17v1h5v-1zm0 2v1h5v-1z"/></g></g><g fill="#1e8bcd"><g fill="#3a3a38"><path d="m16.898438 2c.184294.5298553.073492 1.1491631-.341797 1.5644531l-.435547.4355469h6.878906v-2z"/><path d="m14 14h9v2h-9z"/><path d="m1 8v2h5.0976562c.07082-.206354.1822192-.4009689.34375-.5625l1.4375-1.4375h-.3789062z"/></g><g transform="translate(8 2)"><path d="m3.5 0c-.277 0-.5.223-.5.5v1.5507812a2.5 2.5 0 0 0 -.8789062.3652344l-2.26562505-2.26562498c-.19586858-.19586857-.51116267-.19586857-.70703125 0-.1958686.19586858-.1958686.51116268 0 .70703126l2.265625 2.26562502a2.5 2.5 0 0 0 -.359375.8769531h-1.5546875c-.277 0-.5.223-.5.5s.223.5.5.5h1.5507812a2.5 2.5 0 0 0 .3652344.8769531l-2.2675781 2.2675781c-.1958685.1958687-.1958685.5111627 0 .7070313.19586857.1958685.51116267.1958685.70703125 0l2.26757815-2.2675781a2.5 2.5 0 0 0 .8769531.3613281v1.5546875c0 .277.223.5.5.5s.5-.223.5-.5v-1.5507812a2.5 2.5 0 0 0 .875-.3652344l2.2675781 2.2675781c.1958686.1958686.5111627.1958686.7070313 0s.1958686-.5111626 0-.7070313l-2.265625-2.265625a2.5 2.5 0 0 0 .3613281-.8789062h1.5546875c.277 0 .5-.223.5-.5s-.223-.5-.5-.5h-1.5507812a2.5 2.5 0 0 0 -.3652344-.8769531l2.265625-2.26562502c.1958686-.19586858.1958686-.51116268 0-.70703126-.1958686-.19586857-.5111627-.19586857-.7070313 0l-2.265625 2.26562498a2.5 2.5 0 0 0 -.8769531-.3613281v-1.5546875c0-.277-.223-.5-.5-.5zm0 3a1.5 1.5 0 0 1 1.5 1.5 1.5 1.5 0 0 1 -1.5 1.5 1.5 1.5 0 0 1 -1.5-1.5 1.5 1.5 0 0 1 .4394531-1.0585938 1.5 1.5 0 0 1 .0019531-.0019531 1.5 1.5 0 0 1 1.0585938-.4394531z" fill="#fb983b"/><circle cx="3.5" cy="4.5" fill="#fafafa" r="1.5"/></g></g></svg>