<svg viewBox="0 0 24 24" xmlns="http://www.w3.org/2000/svg"><path d="m2 2v1 1 5.0039062h1v-4.0039062h5.5058594 9.6484376 2.845703v5 3.001953l1-.001953v-3-6-1-1h-1-18zm0 9.996094v2.003906.007812 4 .992188c0 .554.446 1 1 1h1.40625 5.3066406 4.5742184 2.207032c-.380068 0-.767982-.144975-1.060547-.4375v-.001953l-.558594-.560547h-1.613281-2.523438-4.9003904c-.0278279-.000507-.0564487.00588-.0839844.003906-.0081018-.000581-.0153755-.003222-.0234374-.003906h-.3378907-2.3925781v-.992188-4-.007812-2.003906zm14.494141 8.003906h3.099609 1.40625c.1385 0 .270906-.027656.390625-.078125.359156-.151406.609375-.506375.609375-.921875v-.992188-2.015624l-1 .001953v2.013671.992188h-2.392578-.337891c-.00806.0007-.015337.003325-.023437.003906-.02753.002-.056155-.004413-.083985-.003906h-.265625c-.070743.206335-.181754.400503-.34375.5625-.287847.287839-.678506.4375-1.058593.4375z" fill="#3a3a38"/><path d="m3 5v4.0039062h5.8925781l-1.4453125-1.4472656c-.5761465-.5761489-.5761465-1.5429917 0-2.1191406.2878607-.2878618.6785324-.4375 1.0585938-.4375zm5.5058594 0c.380092-.0000006.7679984.1449514 1.0605468.4375a.99621059.99621059 0 0 0 0 .0019531l3.9921878 4.0019531v.0019532c.142167.1424838.254039.3122566.328125.4960937.066434.1648149.109375.3564949.109375.5605469 0 .164975-.032265.317843-.078125.458984l1.515625-1.5195309v-.0019531c.292548-.2925517.680455-.4375006 1.060547-.4375.380061 0 .770733.1496382 1.058593.4375.576147.576149.576147 1.542992 0 2.119141l-1.445312 1.447265 4.892578-.001953v-8.001953zm-5.5058594 6.996094v7.003906h11.875l-3.433594-3.441406v-.001953c-.142282-.142575-.254082-.312399-.328125-.496094-.06643-.164815-.109375-.356495-.109375-.560547 0-.164975.032265-.317843.078125-.458984l-1.5156248 1.519531a.99621059.99621059 0 0 0 0 .001953c-.2925602.292572-.6804792.4375-1.0605468.4375-.3800874 0-.7707463-.149667-1.0585938-.4375-.5756903-.575693-.5747816-1.540878 0-2.117188l1.4453125-1.449218zm18 3.998047-4.892578.001953 1.445312 1.449218c.413042.41414.52441 1.027762.34375 1.554688h3.103516z" fill="#fafafa"/><path d="m3 3h18v1h-18z" fill="#797774"/><g fill="#1e8bcd"><path d="m8.5058594 5.9960938c-.127809 0-.2555807.048549-.3535156.1464843-.1958681.195869-.1958681.5131154 0 .7089844l3.1406252 3.1484375-9.792969-.0039062c-.277-.0001105-.5.2230002-.5.5000002s.223.499889.5.5l9.792969.003906-3.1406252 3.148438c-.1958681.195869-.195868.513115 0 .708984.097935.09793.2257066.146484.3535156.146484.127808 0 .2575387-.04855.3554687-.146484l3.9921879-4.003906c.04702-.04701.08407-.103236.109375-.166016.02334-.057904.037109-.12105.037109-.1875s-.01377-.129596-.03711-.1875c-.0253-.06278-.06236-.119003-.109375-.166016l-3.9921869-4.0039059c-.09793-.09793-.2276607-.1464844-.3554687-.1464843z" transform="matrix(-1 0 0 1 25 4)"/><path d="m8.5058594 5.9960938c-.127809 0-.2555807.048549-.3535156.1464843-.1958681.195869-.1958681.5131154 0 .7089844l3.1406252 3.1484375h-10.792969c-.277 0-.5.223-.5.5s.223.5.5.5h10.792969l-3.1406252 3.148438c-.1958681.195869-.195868.513115 0 .708984.097935.09793.2257066.146484.3535156.146484.127808 0 .2575387-.04855.3554687-.146484l3.9921879-4.003906c.04702-.04701.08407-.103236.109375-.166016.02334-.057904.037109-.12105.037109-.1875s-.01377-.129596-.03711-.1875c-.0253-.06278-.06236-.119003-.109375-.166016l-3.9921869-4.0039059c-.09793-.09793-.2276607-.1464844-.3554687-.1464843z"/></g></svg>