<svg viewBox="0 0 24 24" xmlns="http://www.w3.org/2000/svg"><path d="m3 3v18h10c.000105-1.047117.952883-1.999895 2-2v-10c-1.047117-.0001047-1.999895-.9528834-2-2v-1c.000105-1.0471166.952883-1.9998953 2-2h2a1.0001 1.0001 0 0 0 .001953 0c.173959.0002428.330046.089654.498047.1347656.168001-.0451116.324088-.1345228.498047-.1347656a1.0001 1.0001 0 0 0 .001953 0h2c.356572.0000357.6992.1176026 1 .3046875v-1.3046875zm18 5.6953125c-.3008.1870849-.643428.3046518-1 .3046875v10c.356572.000036.6992.117603 1 .304688z" fill="#fafafa"/><path d="m3 2c-.554 0-1 .446-1 1v18c0 .554.446 1 1 1h10v-1h-4-1-5v-3-1-3-1-3-1-6h5 1 6 1 5v1.3046875c.582535.3623119.999931 1.0047682 1 1.6953125v-3c0-.554-.446-1-1-1zm19 5c-.000069.6905443-.417465 1.3330006-1 1.6953125v.3046875 1 3 1 3 1 1.304688c.582535.362311.999931 1.004767 1 1.695312z" fill="#3a3a38"/><path d="m2 2v4h11c.000105-1.0471166.952883-1.9998953 2-2h2a1.0001 1.0001 0 0 0 .001953 0c.173959.0002428.330046.089654.498047.1347656.168001-.0451116.324088-.1345228.498047-.1347656a1.0001 1.0001 0 0 0 .001953 0h2c1.047117.0001047 1.999895.9528834 2 2v-4z" fill="#3a3a38"/><path d="m3 3v2h10.304688c.362311-.582535 1.004767-.999931 1.695312-1h2a1.0001 1.0001 0 0 0 .001953 0c.173959.0002428.330046.089654.498047.1347656.168001-.0451116.324088-.1345228.498047-.1347656a1.0001 1.0001 0 0 0 .001953 0h2c.356572.0000357.6992.1176026 1 .3046875v-1.3046875z" fill="#797774"/><path d="m15 5.0000005a1.0001 1.0001 0 0 0 -1 1v1a1.0001 1.0001 0 0 0 1 1h1v1 9.9999995 1h-1a1.0001 1.0001 0 0 0 -1 1v1a1.0001 1.0001 0 0 0 1 1h2a1.0001 1.0001 0 0 0 .5-.134766 1.0001 1.0001 0 0 0 .5.134766h2a1.0001 1.0001 0 0 0 1-1v-1a1.0001 1.0001 0 0 0 -1-1h-1v-1-9.9999995-1h1a1.0001 1.0001 0 0 0 1-1v-1a1.0001 1.0001 0 0 0 -1-1h-2a1.0001 1.0001 0 0 0 -.5.1347656 1.0001 1.0001 0 0 0 -.5-.1347656z" fill="#3a3a38"/><path d="m15 6.0000005v1h2v-1zm2 1v13.9999995h1v-13.9999995zm1 0h2v-1h-2zm0 13.9999995v1h2v-1zm-1 0h-2v1h2z" fill="#fafafa"/><g fill="#797774"><path d="m5 8v4h4v-4zm1 1h2v2h-2z"/><path d="m5 14v4h4v-4zm1 1h2v2h-2z"/><path d="m11 9v1h4v-1zm0 6v1h4v-1z"/></g></svg>