<svg viewBox="0 0 24 24" xmlns="http://www.w3.org/2000/svg"><path d="m13 16c-.554 0-1 .446-1 1v5c0 .554.446 1 1 1h9c.554 0 1-.446 1-1v-5c0-.554-.446-1-1-1h-4-1zm0 1h4 1 4v2 1 2h-4-1-4v-2-1z" fill="#3a3a38"/><path d="m12 13v4h1v-1-2h4 1 4v2 1h1v-4z" fill="#0063b1"/><path d="m5 3v18h6v-7-1c0-.554.446-1 1-1h7v-5.2714844l-4-3.7285156z" fill="#fafafa"/><path d="m5 2c-.554 0-1 .446-1 1v18c0 .554.446 1 1 1h6v-1h-6v-18h9v4c0 .554.446 1 1 1h4v4h1v-1.109375-3.640625-.2089844c0-.4506799.098038-.4254121-.605469-1.0664062l-3.30664-3.2382813c-.709525-.7368575-.710169-.7363281-1.09375-.7363281h-.332032-.662109z" fill="#3a3a38"/><path d="m15 7h4l-4-4z" fill="#fafafa" fill-rule="evenodd"/><path d="m13 17h9v5h-9z" fill="#fafafa"/><path d="m17 17v2h-4v1h4v2h1v-2h4v-1h-4v-2z" fill="#797774"/><path d="m13 14h9v3h-9z" fill="#83beec"/><path d="m17 14v2h-4v1h9v-1h-4v-2z" fill="#1e8bcd"/></svg>