<svg viewBox="0 0 24 24" xmlns="http://www.w3.org/2000/svg"><g transform="translate(0 6)"><path d="m5 3c-.554 0-1.0237314.4465085-1 1v5.0039062h1v-2.0039062h2.1054688c-.1838907-.5288587-.073755-1.1469464.3417968-1.5625.2878607-.2878618.6785324-.4375 1.0585938-.4375.380092-.0000006.7679983.1449514 1.0605468.4375a.99621059.99621059 0 0 0 0 .00195l1.5566408 1.56055h.876953 1 8v6 2h-10.875l-.5585938.560547a.99621059.99621059 0 0 0 0 .002c-.2925602.292525-.6804792.437453-1.0605468.437453h12.4941406c.554 0 1-.446 1-1v-11c0-.554-.446-1-1-1h-7zm3.5058594 13c-.3800874 0-.7707463-.149667-1.0585938-.4375-.1619958-.161997-.2730066-.356164-.34375-.5625h-2.1035156v-3.003906h-1v.003906 1 2c0 .554.446 1 1 1z" fill="#3a3a38"/><path d="m5 4v2h2.1035156c.0708827-.2065867.1816258-.4003751.34375-.5625.2878607-.2878618.6785324-.4375 1.0585938-.4375.380092-.0000006.7679983.1449514 1.0605468.4375a.99621059.99621059 0 0 0 0 .00195l.5585938.56055h10.875v-2z" fill="#797774"/><path d="m5 7v2.0039062h3.8925781l-1.4453125-1.4472656c-.1605946-.1605953-.2707303-.3522573-.3417968-.5566406zm6.123047 0 2.435547 2.4414062v.00195c.142167.1424838.254039.3122566.328125.4960937.06643.1648149.109375.3564949.109375.5605469s-.04294.395732-.109375.560547c-.07404.183695-.185843.353519-.328125.496094v.002l-3.433594 3.4413622h10.875v-8zm-6.123047 4.996094v3.003906h2.1035156c-.1806598-.526926-.069291-1.140549.34375-1.554688l1.4453125-1.449218z" fill="#fafafa"/><path d="m14.5 8c-.277 0-.5.223-.5.5s.223.5.5.5h5c.277 0 .5-.223.5-.5s-.223-.5-.5-.5zm0 2c-.277 0-.5.223-.5.5s.223.5.5.5h5c.277 0 .5-.223.5-.5s-.223-.5-.5-.5zm0 2c-.277 0-.5.223-.5.5s.223.5.5.5h5c.277 0 .5-.223.5-.5s-.223-.5-.5-.5z" fill="#797774"/><path d="m8.5058594 5.9960938c-.127809 0-.2555807.048549-.3535156.1464843-.1958681.195869-.1958681.5131154 0 .7089844l3.1406252 3.1484375h-10.792969c-.277 0-.5.223-.5.5s.223.5.5.5h10.792969l-3.1406252 3.148438c-.1958681.195869-.195868.513115 0 .708984.097935.09793.2257066.146484.3535156.146484.127808 0 .2575387-.04855.3554687-.146484l3.9921879-4.003906c.04702-.04701.08407-.103236.109375-.166016.02334-.057904.037109-.12105.037109-.1875s-.01377-.129596-.03711-.1875c-.0253-.06278-.06236-.119003-.109375-.166016l-3.9921869-4.0039059c-.09793-.09793-.2276607-.1464844-.3554687-.1464843z" fill="#1e8bcd"/></g><path d="m11.5 1c-1.9217028 0-3.5 1.5782972-3.5 3.5v3c0 1.9217028 1.5782972 3.5 3.5 3.5h1c.111914 0 .192666-.03385.296875-.04492l1.199219 1.345703a1.0001 1.0001 0 0 0 .02344.02734c.177437.185488.40592.348731.66211.447266.241295.09281.490058.128906.728515.128906h.945313a1.0001 1.0001 0 0 0 .746093-1.666016l-.21875-.246093a1.0001 1.0001 0 0 0 .117185.007814h4a1.0001 1.0001 0 0 0 1-1v-1a1.0001 1.0001 0 0 0 -1-1h-2v-6a1.0001 1.0001 0 0 0 -1-1h-1a1.0001 1.0001 0 0 0 -1 1v2.5c0-1.9217028-1.578297-3.5-3.5-3.5zm-6.7207031.023437c-.4847811 0-.954734.083009-1.3847657.265625-.3932185.164786-.7545586.4009784-1.0507812.7031255-.2832761.2890571-.5090235.6355661-.6601562 1.0175781-.0002402.0006005.0002398.00135 0 .00195-.1487955.3726541-.2265625.7703484-.2265626 1.1679687 0 .4432059.059299.8662746.2285157 1.265625a1.0001 1.0001 0 0 0 .00391.011719c.1498707.3400917.3586485.6481576.6171875.9003907a1.0001 1.0001 0 0 0 .00977.00977c.2392674.2278736.5186092.4223613.828125.5683594a1.0001 1.0001 0 0 0 .013672.00586c.2383373.1079258.481102.2055455.7285157.2910157.2252041.077797.4419004.1505584.6484374.2207031a1.0001 1.0001 0 0 0 .017578.00586c.1347191.043212.2406367.092957.328125.1484375a1.0001 1.0001 0 0 0 .023437.015625c.049783.029632.060292.043284.074219.064453a1.0001 1.0001 0 0 0 .00977.015625c-.02899-.04237-.017578-.071409-.017578.011719 0 .1023231-.016201.1677359-.035156.2167968a1.0001 1.0001 0 0 0 -.00391.011719c-.012812.034431-.019372.045562-.044922.070312a1.0001 1.0001 0 0 0 -.0117275.0117161c-.021645.021645-.041612.037422-.097656.058594-.046736.017656-.1282851.037109-.2597657.037109-.1709072 0-.2731598-.024876-.3261719-.044922-.1283101-.0559333-.2280446-.1095644-.3007814-.1582028-.0028114-.0020082-.003074-.0038648-.0058594-.0058594-.121724-.087166-.2214463-.1601247-.2871094-.2148438l.033203.029297c-.1924868-.1757494-.4802045-.3867188-.923828-.3867188-.2330291-.0000005-.4816288.077576-.671875.1953124-.1594754.098257-.3169683.2453012-.421875.4101563a1.0001 1.0001 0 0 0 -.00977.015625l-.3144487.5136719a1.0001 1.0001 0 0 0 .109375 1.1894531c.3731325.4151755.8316393.7490635 1.3457031.9882815a1.0001 1.0001 0 0 0 .011719.0059c.5407322.24386 1.131898.361328 1.7382812.361328.505068 0 .9913958-.08261 1.4375-.265625.4224209-.173301.8102535-.428196 1.125-.7597654.309089-.3214906.5465204-.7049356.7011717-1.1191816a1.0001 1.0001 0 0 0 0-.00391c.1531393-.4156592.2304687-.8613668.2304687-1.3164025.0000002-.4261643-.0676677-.844189-.2480468-1.234375-.1497224-.3312698-.3639571-.6304426-.6269532-.8710937-.2381716-.2248532-.5133638-.413585-.8125-.5546876-.2340826-.1143343-.4749195-.2190396-.7265624-.3105468-.2254533-.0819831-.4426057-.1586336-.6484376-.2324219-.147943-.0530362-.271549-.1127483-.3789062-.1757813-.034682-.023358-.05154-.044391-.070312-.064453.00103-.045304.00573-.073317.013672-.09375a1.0001 1.0001 0 0 0 .00391-.00977c.00861-.022743.00839-.020106.015625-.027344.00275-.00275.00402-.00776.046875-.023438a1.0001 1.0001 0 0 0 .011719-.00586c.031664-.012063.1026916-.029297.2226562-.029297.1369547 0 .2116957.021542.2265625.027344a1.0001 1.0001 0 0 0 .027344.00977c.1060669.037881.1738616.074645.2089843.097656a1.0001 1.0001 0 0 0 .035156.021484c.097893.058736.164413.1065302.1875.125a1.0001 1.0001 0 0 0 .042969.033203c.1682245.1201583.3959857.2753907.7949219.2753907.457755 0 .9509888-.3685423 1.125-.6933594a1.0001 1.0001 0 0 0 .00195-.00195l.2695296-.5058606a1.0001 1.0001 0 0 0 -.1601563-1.1621094c-.35211-.3686155-.7824839-.6548179-1.2558593-.84375-.0005896-.0002372-.00136.0002369-.00195 0-.4728007-.1899204-.985497-.28125-1.5136719-.28125zm6.6113281 2.976563h1.21875c.191886 0 .390625.1663871.390625.5v3c0 .3336129-.198739.5-.390625.5h-1.21875c-.191886 0-.390625-.1663871-.390625-.5v-3c0-.3336129.198739-.5.390625-.5zm4.609375 3.5v2.5a1.0001 1.0001 0 0 0 0 .0059l-.601562-.6738688c.345871-.5398326.601562-1.1427229.601562-1.8320312z" fill="#fafafa"/><path d="m11.5 2c-1.385 0-2.5 1.115-2.5 2.5v3c0 1.385 1.115 2.5 2.5 2.5h1c.240936 0 .469308-.0443853.689453-.1074219l1.552735 1.7441409c.091696.095864.19046.163398.298828.205078s.231596.0625.36914.0625h.945313l-2.240235-2.5078126c.537671-.4578566.884766-1.1317128.884766-1.8964844v-3c0-1.385-1.115-2.5-2.5-2.5zm5.5 0v8h4v-1h-3v-7zm-12.2207031.0234375c-.3730881 0-.7044021.0625073-.9941407.1855469-.2857693.1190706-.5281114.2800017-.7265624.4824218-.194482.1984509-.344071.4274978-.4472657.6894532-.1031947.2579862-.1542969.5249656-.1542969.7988281 0 .3492739.0492119.6408278.1484376.875.1031945.2341723.2376607.4291298.4003906.5878906.1666988.1587607.3540949.2894463.5644531.3886719.210358.0952565.4242819.180448.6425781.2558594.2182961.0754115.4341732.1473076.6445313.21875.210358.0674734.395864.1546179.5585937.2578125.166699.0992254.299212.2241771.3984375.375.1031945.1508226.15625.3419997.15625.5761719 0 .2103581-.0340892.4034881-.1015625.578125-.0635043.1706678-.1601005.3164135-.2871094.4394531-.1230396.1230396-.2725658.2196364-.4511718.2871093-.1786057.0674731-.3830781.1015626-.6132813.1015626-.2738625 0-.5105336-.0397607-.7089843-.1191407-.1944821-.0833494-.361084-.1742752-.5-.2695312-.1389157-.0992256-.2563065-.1881981-.3515626-.2675781-.0912874-.0833491-.174589-.125-.25-.125-.0555652-.0000001-.1047785.0151857-.1484374.0429687-.0396911.0238151-.0737796.0559504-.1015626.0996094l-.3144531.5136719c.2818004.3135525.6225665.563456 1.0234375.75.4048402.1825749.8478733.2734372 1.328125.2734372.3969019 0 .7490102-.0643973 1.0585938-.191406.3095834-.1270087.5708919-.3011723.78125-.5234375.2143271-.2222651.3751959-.4816204.4863281-.7792969.1111328-.3016455.1679687-.6253983.1679687-.9707031.0000001-.3214906-.0511024-.5941411-.1542968-.8164063-.0992257-.2222651-.2336919-.4077708-.4003906-.5585937-.1627299-.1547917-.3482355-.2816334-.5585938-.3808594-.210358-.1031945-.424282-.1960096-.6425781-.2753906-.2182959-.0793804-.4341733-.1550578-.6445313-.2304687-.2103582-.0754114-.3977543-.1644469-.5644531-.2636719-.1627297-.1031947-.2952429-.226256-.3984375-.3691407-.0992252-.1428848-.1503906-.3227196-.1503906-.5410156 0-.1666989.0284184-.3219589.0839844-.4648437.0555661-.1468538.136977-.2736959.2441406-.3808594.1111326-.1111325.2474263-.1963234.4101562-.2558594.1666987-.063505.3598288-.0957031.578125-.0957031.2302031 0 .4271139.0321988.5898438.0957031.1666987.0595352.3067734.1277136.421875.203125.1190707.0714425.2194476.1376667.2988281.2011719.0833494.059534.1533546.0898438.2128906.0898438.1031944 0 .1846047-.0548832.2441407-.1660157l.2695312-.5058593c-.2540173-.2659245-.5569762-.4685065-.90625-.6074219-.3453047-.1389167-.7258311-.2089844-1.1425781-.2089844zm6.6113281.9765625h1.21875c.770632 0 1.390625.669 1.390625 1.5v3c0 .831-.619993 1.5-1.390625 1.5h-1.21875c-.770632 0-1.390625-.669-1.390625-1.5v-3c0-.831.619993-1.5 1.390625-1.5z" fill="#3a3a38"/></svg>