<svg viewBox="0 0 24 24" xmlns="http://www.w3.org/2000/svg"><path d="m10.5 3c.813703 0 1.5.6862972 1.5 1.5s-.686297 1.5-1.5 1.5h-.380859l1.4375 1.4375c.575282.5752835.575283 1.5458102 0 2.1210938-.575284.5752842-1.54581.5752842-2.1210941 0l-1.4355469-1.4355469v.3769531c0 .8137028-.6862972 1.5-1.5 1.5s-1.5-.6862972-1.5-1.5v12.5h14v-18z" fill="#fafafa"/><path d="m11.121094 2-1 1h.378906 8.5v18h-14v-12.5-.3789062l-1 1v11.8789062c0 .554.446 1 1 1h14c.554 0 1-.446 1-1v-18c0-.554-.446-1-1-1z" fill="#3a3a38"/><g fill="#797774"><path d="m12 5v1h6v-1zm0 3v1h6v-1zm-6 3v1h12v-1zm0 3v1h12v-1zm0 3v1h12v-1z"/><path d="m8 8.1230469v.3769531c0 .1748905-.0358913.3424298-.09375.5h.9707031z"/></g><g transform="translate(3)"><path d="m3.5 0c-.277 0-.5.223-.5.5v1.5507812a2.5 2.5 0 0 0 -.8789062.3652344l-2.26562505-2.26562498c-.19586858-.19586857-.51116267-.19586857-.70703125 0-.1958686.19586858-.1958686.51116268 0 .70703126l2.265625 2.26562502a2.5 2.5 0 0 0 -.359375.8769531h-1.5546875c-.277 0-.5.223-.5.5s.223.5.5.5h1.5507812a2.5 2.5 0 0 0 .3652344.8769531l-2.2675781 2.2675781c-.1958685.1958687-.1958685.5111627 0 .7070313.19586857.1958685.51116267.1958685.70703125 0l2.26757815-2.2675781a2.5 2.5 0 0 0 .8769531.3613281v1.5546875c0 .277.223.5.5.5s.5-.223.5-.5v-1.5507812a2.5 2.5 0 0 0 .875-.3652344l2.2675781 2.2675781c.1958686.1958686.5111627.1958686.7070313 0s.1958686-.5111626 0-.7070313l-2.265625-2.265625a2.5 2.5 0 0 0 .3613281-.8789062h1.5546875c.277 0 .5-.223.5-.5s-.223-.5-.5-.5h-1.5507812a2.5 2.5 0 0 0 -.3652344-.8769531l2.265625-2.26562502c.1958686-.19586858.1958686-.51116268 0-.70703126-.1958686-.19586857-.5111627-.19586857-.7070313 0l-2.265625 2.26562498a2.5 2.5 0 0 0 -.8769531-.3613281v-1.5546875c0-.277-.223-.5-.5-.5zm0 3a1.5 1.5 0 0 1 1.5 1.5 1.5 1.5 0 0 1 -1.5 1.5 1.5 1.5 0 0 1 -1.5-1.5 1.5 1.5 0 0 1 .4394531-1.0585938 1.5 1.5 0 0 1 .0019531-.0019531 1.5 1.5 0 0 1 1.0585938-.4394531z" fill="#fb983b"/><circle cx="3.5" cy="4.5" fill="#fafafa" r="1.5"/></g></svg>