<svg viewBox="0 0 24 24" xmlns="http://www.w3.org/2000/svg"><path d="m5 3v18h8c.000105-1.047117.952883-1.999895 2-2v-10c-1.047117-.0001047-1.999895-.9528834-2-2v-1c.000105-1.0471166.952883-1.9998953 2-2h2a1.0001 1.0001 0 0 0 .001953 0c.173959.0002428.330046.089654.498047.1347656.168001-.0451116.324088-.1345228.498047-.1347656a1.0001 1.0001 0 0 0 .001953 0h1v-1z" fill="#fafafa"/><path d="m5 2c-.554 0-1 .446-1 1v18c0 .554.446 1 1 1h8v-1h-8v-18h14v1h1v-1c0-.554-.446-1-1-1z" fill="#3a3a38"/><g fill="#797774"><path d="m12 5v1h1c.000036-.3565723.117603-.6991998.304688-1zm0 3v1h3c-.690545-.000069-1.333001-.417465-1.695312-1zm-6 3v1h9v-1zm0 3v1h9v-1zm0 3v1h9v-1z" fill="#797774"/><path d="m6 5h4v4h-4z"/></g><path d="m15 5.0000005a1.0001 1.0001 0 0 0 -1 1v1a1.0001 1.0001 0 0 0 1 1h1v1 9.9999995 1h-1a1.0001 1.0001 0 0 0 -1 1v1a1.0001 1.0001 0 0 0 1 1h2a1.0001 1.0001 0 0 0 .5-.134766 1.0001 1.0001 0 0 0 .5.134766h2a1.0001 1.0001 0 0 0 1-1v-1a1.0001 1.0001 0 0 0 -1-1h-1v-1-9.9999995-1h1a1.0001 1.0001 0 0 0 1-1v-1a1.0001 1.0001 0 0 0 -1-1h-2a1.0001 1.0001 0 0 0 -.5.1347656 1.0001 1.0001 0 0 0 -.5-.1347656z" fill="#3a3a38"/><path d="m15 6.0000005v1h2v-1zm2 1v13.9999995h1v-13.9999995zm1 0h2v-1h-2zm0 13.9999995v1h2v-1zm-1 0h-2v1h2z" fill="#fafafa"/></svg>