<svg viewBox="0 0 24 24" xmlns="http://www.w3.org/2000/svg"><path d="m8.1191406 6 1.4375 1.4375c.2861965.286197.4302031.6701784.4316406 1.0546875l1.2011718-1.2011719a1.0019135 1.0019135 0 0 1 1.414063 0l2.103515 2.1035156a1.0019135 1.0019135 0 0 1 0 1.4140628l-10.1894529 10.191406h16.4824219v-15h-12.5zm-2.1191406 2.1230469v.3769531c0 .8137028-.6862972 1.5-1.5 1.5s-1.5-.6862972-1.5-1.5v6.978516l5.4902344-5.4882816c-.384509-.0014375-.7684903-.1454433-1.0546875-.4316406z" fill="#fafafa"/><path d="m9.1210938 2-1 1h.3789062c.8137028 0 1.5.6862972 1.5 1.5s-.6862972 1.5-1.5 1.5h12.5v6 9h-6-6-4.4824219l-1 1h5.4824219 6 6c.554 0 1-.446 1-1v-9-9c0-.554-.446-1-1-1zm-6.1210938 6.1210938-1 1v2.8789062 4.478516l1-1v-3.478516-3.5z" fill="#3a3a38"/><path d="m8.5 3c.1748905 0 .3424298.0358913.5.09375v-.09375zm6.5 0v6h-.6875l.394531.3945312a1.0019135 1.0019135 0 0 1 .28711.6054688h.005859v.085938 2.914062h-2.484375l-1 1h3.484375v3h-6v-.484375l-1.4824219 1.484375h.4824219v3h1v-3h6v3h1v-3h5v-1h-5v-3h5v-1h-5v-3h5v-1h-5v-6zm-6 2.90625c-.1575702.0578587-.3251095.09375-.5.09375h-.3808594l.8808594.8808594zm-6 3.09375v1h1.5c-.6388123 0-1.194913-.4244527-1.40625-1zm1.5 1h3.5v.480469l.4902344-.4902346c-.384509-.0014375-.7684903-.1454433-1.0546875-.4316406l-.5585938-.5585938h-.9707031c-.211337.5755473-.7674377 1-1.40625 1zm-1.5 3v1h1.4785156l1.0019532-1z" fill="#797774"/><path d="m9.1210938 2-1 1h.3789062c.8137028 0 1.5.6862972 1.5 1.5s-.6862972 1.5-1.5 1.5h13.5v-4z" fill="#3a3a38"/><path d="m8.5 3c.8137028 0 1.5.6862972 1.5 1.5 0 .1748905-.0358913.3424298-.09375.5h11.09375v-2z" fill="#797774"/><g transform="translate(1)"><path d="m3.5 0c-.277 0-.5.223-.5.5v1.5507812a2.5 2.5 0 0 0 -.8789062.3652344l-2.26562505-2.26562498c-.19586858-.19586857-.51116267-.19586857-.70703125 0-.1958686.19586858-.1958686.51116268 0 .70703126l2.265625 2.26562502a2.5 2.5 0 0 0 -.359375.8769531h-1.5546875c-.277 0-.5.223-.5.5s.223.5.5.5h1.5507812a2.5 2.5 0 0 0 .3652344.8769531l-2.2675781 2.2675781c-.1958685.1958687-.1958685.5111627 0 .7070313.19586857.1958685.51116267.1958685.70703125 0l2.26757815-2.2675781a2.5 2.5 0 0 0 .8769531.3613281v1.5546875c0 .277.223.5.5.5s.5-.223.5-.5v-1.5507812a2.5 2.5 0 0 0 .875-.3652344l2.2675781 2.2675781c.1958686.1958686.5111627.1958686.7070313 0s.1958686-.5111626 0-.7070313l-2.265625-2.265625a2.5 2.5 0 0 0 .3613281-.8789062h1.5546875c.277 0 .5-.223.5-.5s-.223-.5-.5-.5h-1.5507812a2.5 2.5 0 0 0 -.3652344-.8769531l2.265625-2.26562502c.1958686-.19586858.1958686-.51116268 0-.70703126-.1958686-.19586857-.5111627-.19586857-.7070313 0l-2.265625 2.26562498a2.5 2.5 0 0 0 -.8769531-.3613281v-1.5546875c0-.277-.223-.5-.5-.5zm0 3a1.5 1.5 0 0 1 1.5 1.5 1.5 1.5 0 0 1 -1.5 1.5 1.5 1.5 0 0 1 -1.5-1.5 1.5 1.5 0 0 1 .4394531-1.0585938 1.5 1.5 0 0 1 .0019531-.0019531 1.5 1.5 0 0 1 1.0585938-.4394531z" fill="#fb983b"/><circle cx="3.5" cy="4.5" fill="#fafafa" r="1.5"/></g><g transform="matrix(2.6453867 2.6453867 -2.6453867 2.6453867 784.97991 -766.47952)"><path d="m.26458332 292.50208h.79374998v4.49791h-.79374998z" fill="#3a3a38"/><path d="m.52916664 292.76663h.26458332v1.32292h-.26458332z" fill="#fafafa"/></g></svg>