<svg height="24" viewBox="0 0 6.3499999 6.3500002" width="24" xmlns="http://www.w3.org/2000/svg" xmlns:xlink="http://www.w3.org/1999/xlink"><linearGradient id="a" gradientUnits="userSpaceOnUse" x1="68.99999892188" x2="68.99999892188" xlink:href="#b" y1="32.00006485532" y2="17.00006508969"/><linearGradient id="b" gradientUnits="userSpaceOnUse" x1="63" x2="63" y1="35" y2="20"><stop offset="0" stop-color="#e9e9e9"/><stop offset=".2857143" stop-color="#f2f2f2"/><stop offset="1" stop-color="#fbfbfb"/></linearGradient><linearGradient id="c" gradientUnits="userSpaceOnUse" x1="62.99999901562" x2="62.99999901562" xlink:href="#b" y1="35.00006858797" y2="20.00006882234"/><g stroke-width=".264583" transform="translate(0 -290.64998)"><g stroke-width=".999999" transform="matrix(.26458334 0 0 .26458334 0 290.64998)"><path d="m9 6v12h3v-1a1.0001 1.0001 0 0 1 .802734-.980469l.28125-.05664-.158203-.236329a1.0001 1.0001 0 0 1 .125-1.261718l.707031-.707032.707032-.707031a1.0001 1.0001 0 0 1 1.261718-.125l.236329.158203.05664-.28125a1.0001 1.0001 0 0 1 .980469-.802734h1 1a1.0001 1.0001 0 0 1 .980469.802734l.05664.28125.236329-.158203a1.0001 1.0001 0 0 1 .726562-.152343v-6.773438z" fill="url(#a)"/><path d="m3 9v12h9.773438a1.0001 1.0001 0 0 1 .152343-.726562l.158203-.236329-.28125-.05664a1.0001 1.0001 0 0 1 -.802734-.980469v-1-1a1.0001 1.0001 0 0 1 .802734-.980469l.28125-.05664-.158203-.236329a1.0001 1.0001 0 0 1 .125-1.261718l.707031-.707032.707032-.707031a1.0001 1.0001 0 0 1 .535156-.277343v-3.773438z" fill="url(#c)"/><path d="m9 2c-.5539997 0-1 .4459969-1 1v2h-5c-.554 0-1 .4459969-1 1v15c0 .554003.446 1 1 1h10.515625l-.464844-.464844a1.0001 1.0001 0 0 1 -.277343-.535156h-9.773438v-12h5v9c0 .554003.4460003 1 1 1h3v-1h-3v-9h6v3.773438a1.0001 1.0001 0 0 1 .726562.152343l.236329.158203.037109-.183593v-6.900391h5v6.773438a1.0001 1.0001 0 0 1 .535156.277343l.464844.464844v-10.515625c0-.5540031-.446-1-1-1z" fill="#3a3a38"/></g><g fill="#98989d"><g fill="#797774"><rect height=".264583" rx=".132292" width="1.058333" x="4.233333" y="293.295833"/><rect height=".264583" rx=".132292" width="1.058333" x="4.233333" y="292.502083"/><rect fill="#797774" height=".264583" rx=".132292" width="1.058333" x="1.058333" y="293.295833"/><rect height=".264583" rx=".132292" width="1.058333" x="1.058333" y="294.089583"/><rect height=".264583" rx=".132292" width="1.058333" x="1.058333" y="294.883333"/></g><g fill="#1e8bcd"><path d="m10.5 16c-.277001 0-.5.223-.5.5s.222999.5.5.5h1.5a1.0001 1.0001 0 0 1 .802734-.980469l.097657-.019531z" stroke-width=".999999" transform="matrix(.26458334 0 0 .26458334 0 290.64998)"/><rect height=".264583" rx=".132292" width="1.058333" x="2.645833" y="293.295833"/><path d="m10.5 13c-.277001 0-.5.223-.5.5s.222999.5.5.5h3c.006925 0 .012676-.00363.019531-.003906l.238281-.238282.238282-.238281c.000276-.006855.003906-.012606.003906-.019531 0-.277-.222999-.5-.5-.5z" stroke-width=".999999" transform="matrix(.26458334 0 0 .26458334 0 290.64998)"/></g><rect fill="#797774" height=".264583" rx=".132292" width="1.058333" x="1.058333" y="295.677083"/></g><path d="m.79375 291.97292c-.14657916 0-.26458333.118-.26458333.26458v.52917.26458h.26458333 3.175.2645834v-.26458-.52917c0-.14658-.1180042-.26458-.2645834-.26458z" fill="#3a3a38"/><path d="m.79375 292.2375v.52917h1.3229167v-.52917zm1.5875 0v.52917h1.5875v-.52917z" fill="#797774"/><path d="m2.38125 291.17917c-.1465791 0-.2645833.118-.2645833.26458v.52917.26458h.2645833 3.175.2645834v-.26458-.52917c0-.14658-.1180042-.26458-.2645834-.26458z" fill="#3a3a38"/><path d="m2.38125 291.44375h3.175v.52917h-3.175z" fill="#797774"/></g><path d="m4.4979167 3.4395834-.0925007.4614706-.3911907-.2609662-.1870686.1870689-.1870689.1870686.2609662.3911907-.4614706.0925007v.2645833.2645833l.4614706.0925008-.2609662.3911907.1870689.1870686.1870686.1870689.3911907-.2609663.0925007.4614707h.2645833.2645833l.0925008-.4614707.3911907.2609663.1870686-.1870689.1870689-.1870686-.2609663-.3911907.4614707-.0925008v-.2645833-.2645833l-.4614707-.0925007.2609663-.3911907-.1870689-.1870686-.1870686-.1870689-.3911907.2609662-.0925008-.4614706h-.2645833zm.2118733.2645833h.10542l.079582.396875h.141593l.1002523.1002522.3369304-.2242756.0744141.074414-.2242757.3369305.1002523.1002522v.1415933l.396875.079582v.10542l-.396875.079582v.1415927l-.1002523.1002523.2242757.3369304-.0744141.0744141-.3369304-.2242757-.1002523.1002523h-.1415933l-.0795817.396875h-.10542l-.0795817-.396875h-.1415933l-.1002522-.1002523-.3369305.2242757-.074414-.0744141.2242756-.3369304-.1002522-.1002523v-.1415933l-.396875-.0795817v-.10542l.396875-.079582v-.141593l.1002522-.1002522-.2242756-.3369305.074414-.074414.3369305.2242756.1002522-.1002522h.1415933zm.05271.5291666a.52916667.52916667 0 0 0 -.5291667.5291667.52916667.52916667 0 0 0 .5291667.5291667.52916667.52916667 0 0 0 .5291667-.5291667.52916667.52916667 0 0 0 -.5291667-.5291667zm0 .2645834a.26458334.26458334 0 0 1 .2645833.2645833.26458334.26458334 0 0 1 -.2645833.2645833.26458334.26458334 0 0 1 -.2645833-.2645833.26458334.26458334 0 0 1 .2645833-.2645833z" fill="#1e8bcd"/><path d="m4.70979 3.7041667h.10542l.079582.396875h.141593l.1002523.1002522.3369304-.2242756.0744141.074414-.2242757.3369305.1002523.1002522v.1415933l.396875.079582v.10542l-.396875.079582v.1415927l-.1002523.1002523.2242757.3369304-.0744141.0744141-.3369304-.2242757-.1002523.1002523h-.1415933l-.0795817.396875h-.10542l-.0795817-.396875h-.1415933l-.1002522-.1002523-.3369305.2242757-.074414-.0744141.2242756-.3369304-.1002522-.1002523v-.1415933l-.396875-.0795817v-.10542l.396875-.079582v-.141593l.1002522-.1002522-.2242756-.3369305.074414-.074414.3369305.2242756.1002522-.1002522h.1415933zm.05271.5291666c-.2922505 0-.5291667.2369162-.5291667.5291667 0 .2922506.2369162.5291667.5291667.5291667.2922506 0 .5291667-.2369161.5291667-.5291667 0-.2922505-.2369161-.5291667-.5291667-.5291667z" fill="#fafafa"/></svg>