<svg viewBox="0 0 24 24" xmlns="http://www.w3.org/2000/svg"><g><path d="m3 2.9980469v7.0019531l1 1.072266v-2.072266c0-.554.446-1 1-1h13.001953v-5z" fill="#fafafa"/><path d="m4 4v5c0-.554.446-1 1-1v-3h11v3h1v-4z" fill="#797774"/><path d="m3 1.9980469c-.554 0-1 .446-1 1v6.9941406l2 1.9863285v-2.978516h-1v-6.0019531l15.001953.0019531v5h1v-5c0-.554-.223-1-.5-1-6.168098 0-9.33242-.0034231-15.501953-.0019531z" fill="#3a3a38"/><path d="m3 10 1 1v-1z" fill="#fafafa" fill-rule="evenodd"/></g><path d="m6 9.9980469v7.0000001l3.7285156 4 11.2714844.001953.002-11z" fill="#fafafa"/><path d="m7 11v7l2 2h10 1v-1-8zm1 1h11v7h-9.5l-1.5-1.5z" fill="#797774"/><path d="m6 8.9980469c-.554 0-1 .446-1 1v6.9921871l5.041016 5.007813h.207031l10.751953.001953c.554 0 1-.446 1-1l.002-11c0-.554-.223-1-.5-1-6.168098 0-9.332467-.0034158-15.502-.0019531zm0 1 15.001953.0019531-.001953 11-10-.002v-4c0-.554-.446367-.979835-1-1h-4z" fill="#3a3a38"/><path d="m9.9995699 16.99762v4l-4-4z" fill="#fafafa" fill-rule="evenodd"/></svg>