<svg viewBox="0 0 24 24" xmlns="http://www.w3.org/2000/svg"><g><path d="m5 3c-.554 0-1.0237314.4465085-1 1v5.0039062h1v-2.0039062h2.1054688c-.1838907-.5288587-.073755-1.1469464.3417968-1.5625.2878607-.2878618.6785324-.4375 1.0585938-.4375.380092-.0000006.7679983.1449514 1.0605468.4375a.99621059.99621059 0 0 0 0 .0019531l1.5566408 1.5605469h.876953 1 8v6 2h-10.875l-.5585938.560547a.99621059.99621059 0 0 0 0 .001953c-.2925602.292572-.6804792.4375-1.0605468.4375h12.4941406c.554 0 1-.446 1-1v-11c0-.554-.446-1-1-1h-7zm3.5058594 13c-.3800874 0-.7707463-.149667-1.0585938-.4375-.1619958-.161997-.2730066-.356164-.34375-.5625h-2.1035156v-3.003906h-1v.003906 1 2c0 .554.446 1 1 1z" fill="#3a3a38"/><path d="m5 4v2h2.1035156c.0708827-.2065867.1816258-.4003751.34375-.5625.2878607-.2878618.6785324-.4375 1.0585938-.4375.380092-.0000006.7679983.1449514 1.0605468.4375a.99621059.99621059 0 0 0 0 .0019531l.5585938.5605469h10.875v-2z" fill="#797774"/><path d="m5 7v2.0039062h3.8925781l-1.4453125-1.4472656c-.1605946-.1605953-.2707303-.3522573-.3417968-.5566406zm6.123047 0 2.435547 2.4414062v.0019532c.142167.1424838.254039.3122566.328125.4960937.066434.1648149.109375.3564949.109375.5605469s-.042941.395732-.109375.560547c-.074043.183695-.185843.353519-.328125.496094v.001953l-3.433594 3.441406h10.875v-8zm-6.123047 4.996094v3.003906h2.1035156c-.1806598-.526926-.0692915-1.140549.34375-1.554688l1.4453125-1.449218z" fill="#fafafa"/><path d="m14.5 8c-.277 0-.5.223-.5.5s.223.5.5.5h5c.277 0 .5-.223.5-.5s-.223-.5-.5-.5zm0 2c-.277 0-.5.223-.5.5s.223.5.5.5h5c.277 0 .5-.223.5-.5s-.223-.5-.5-.5zm0 2c-.277 0-.5.223-.5.5s.223.5.5.5h5c.277 0 .5-.223.5-.5s-.223-.5-.5-.5z" fill="#797774"/><path d="m8.5058594 5.9960938c-.127809 0-.2555807.0485493-.3535156.1464843-.1958681.195869-.1958681.5131154 0 .7089844l3.1406252 3.1484375h-10.792969c-.277 0-.5.223-.5.5s.223.5.5.5h10.792969l-3.1406252 3.148438c-.1958681.195869-.195868.513115 0 .708984.0979349.097934.2257066.146484.3535156.146484.127808 0 .2575387-.048554.3554687-.146484l3.9921879-4.003906c.047015-.047013.084075-.103236.109375-.166016.02334-.057904.037109-.12105.037109-.1875s-.013769-.129596-.037109-.1875c-.0253-.06278-.06236-.119003-.109375-.166016l-3.9921879-4.0039059c-.09793-.09793-.2276607-.1464844-.3554687-.1464843z" fill="#1e8bcd"/></g><path d="m2.5 10.5 10.5 11h-10.5zm2 5v4h4z" fill="#f8db8f" fill-rule="evenodd" stroke="#ed8733" stroke-linecap="round" stroke-linejoin="round"/></svg>