<svg height="24" viewBox="0 0 6.3499999 6.3500004" width="24" xmlns="http://www.w3.org/2000/svg"><g transform="translate(0 -290.64998)"><path d="m3 4v12h10.601562a5.4999997 5.4999997 0 0 1 .66211-1h-10.263672v-10h15v8.023438a5.4999997 5.4999997 0 0 1 1 .189453v-9.212891z" fill="#3a3a38" stroke-width=".999999" transform="matrix(.26458334 0 0 .26458334 0 290.64998)"/><path d="m4 5v10h10.263672a5.4999997 5.4999997 0 0 1 4.236328-2 5.4999997 5.4999997 0 0 1 .5.023438v-8.023438z" fill="#fafafa" stroke-width=".999999" transform="matrix(.26458334 0 0 .26458334 0 290.64998)"/><path d="m.26458317 291.44373h5.55625033l-.0000002.26458h-5.55625033z" fill="#1e8bcd" stroke-width=".264583"/><path d="m1.5874999 292.23748h2.9104169v.52916h-2.9104169z" fill="#797774" stroke-width=".264583"/><path d="m7 20v1h6.601562a5.4999997 5.4999997 0 0 1 -.386718-1z" fill="#3a3a38" transform="matrix(.26458334 0 0 .26458334 0 290.64998)"/><path d="m2.9104167 294.88331h.2645834v1.05833h-.2645834z" fill="#3a3a38"/><g transform="translate(0 290.64998)"><path d="m4.8947918 3.7041668a1.190625 1.190625 0 0 0 -1.190625 1.190625 1.190625 1.190625 0 0 0 1.190625 1.1906251 1.190625 1.190625 0 0 0 1.1906251-1.1906251 1.190625 1.190625 0 0 0 -1.1906251-1.190625zm0 .2645833a.92604169.92604169 0 0 1 .9260417.9260417.92604169.92604169 0 0 1 -.9260417.9260417.92604169.92604169 0 0 1 -.9260417-.9260417.92604169.92604169 0 0 1 .9260417-.9260417z" fill="#1e8bcd" stroke-width=".264583"/><circle cx="4.894792" cy="4.894792" fill="#fafafa" r=".926042" stroke-width=".264583"/><g fill="#1e8bcd"><path d="m4.2333334 4.2333334v1.3229167l.7937501-.6614583z"/><path d="m5.0270835 4.2333334v1.3229167l.79375-.6614583z"/></g></g></g></svg>