<svg viewBox="0 0 24 24" xmlns="http://www.w3.org/2000/svg"><path d="m3 6v15h7.458984l.402344-1.638672.136719-.347656c.013832-.201488.088912-.400366.224609-.566406.02153-.02587.04434-.050639.06836-.074219l.707031-.707031.712891-.707032 4.802734-4.783203 1.673828-1.667969c.33553-.33512.789822-.5117182 1.232422-.5117182.195236 0 .391501.0387202.580078.1054682v-4.101562zm18 11.1875-3.794922 3.8125h3.794922z" fill="#fafafa"/><path d="m3 2c-.554 0-1 .446-1 1v9 9c0 .554.446 1 1 1h6 1.212891l.246093-1h-1.458984-6v-9-6h18v4.101562c.238971.084586.464993.217195.654297.40625l.345703.345704v-7.853516c0-.554-.446-1-1-1zm19 14.234375-.236328.226563c-.050768.047982-.106406.090533-.166016.126953l-.597656.599609v3.8125h-3.794922l-.996094 1h4.791016c.554 0 1-.446 1-1z" fill="#3a3a38"/><path d="m8 3v6h-5v1h5v3h-5v1h5v3h-5v1h5v3h1v-3h2.664062l.333985-.333984.671875-.666016h-3.669922v-3h6v.679688l1.685547-1.679688h-.685547v-3h4.380859c.013035-.0003051.026045-.0039062.039063-.0039062.013019 0 .026029.0036063.039062.0039062h.541016v-1h-5v-6h-1v6h-6v-6zm1 7h6v3h-6zm12 7.1875-.808594.8125h.808594z" fill="#797774"/><path d="m2 2h20v4h-20z" fill="#3a3a38"/><path d="m3 3h18v2h-18z" fill="#797774"/><g fill="#fb983b" transform="translate(-1 -1)"><path d="m20.419922 11c-.189562 0-.378184.07172-.523438.216797l-1.673828 1.669922 2.847656 2.849609 1.710938-1.638672c.290506-.290127.290506-.756747 0-1.046875l-1.835938-1.833984c-.145254-.145064-.335828-.216797-.52539-.216797zm0 .990234 1.582031 1.580078-.917969.88086-1.5625-1.5625z" fill="#0063b1" transform="translate(1 1)"/><path d="m21.419922 12.990234-.898438.898438 1.5625 1.5625.917969-.88086z" fill="#83beec"/><g transform="translate(1 1)"><path d="m12.708984 18.376953-.002-.002-.706984.707078.002.002-.05078.05078-.95122 3.865189 3.806641-1.011719 6.24414-6.271484-2.828125-2.830078zm5.511719-4.191406 1.53125 1.533203-4.841797 4.861328-1.550781-1.552734zm-5.509765 5.708984 1.34375 1.341797-1.791016.476563z" fill="#0063b1"/><path d="m18.220703 14.185547 1.53125 1.533203-4.841797 4.861328-1.550781-1.552734zm-5.509765 5.708984 1.34375 1.341797-1.791016.476563z" fill="#83beec"/></g></g></svg>