<svg viewBox="0 0 24 24" xmlns="http://www.w3.org/2000/svg"><path d="m5 3v18h14v-14.2705905l-4-3.7294095z" fill="#fafafa"/><path d="m5 2c-.554 0-1 .446-1 1v18c0 .554.446 1 1 1h14c.554 0 1-.446 1-1v-10.109375-3.6412209-.2079239c0-.4506799.09887-.4265951-.604637-1.0675892l-3.307389-3.2370335c-.709525-.7368575-.711223-.7368575-1.094804-.7368575h-.331557-.661613zm0 1h9v4c0 .554.446 1 1 1h4v13h-14z" fill="#3a3a38"/><path d="m15 7h4l-4-4z" fill="#fafafa" fill-rule="evenodd"/><g fill="#1e8bcd"><rect height="7" ry=".961864" width="8" x="8" y="11"/><path d="m8 9c-1.104522 0-2 .895478-2 2v7c0 1.104597.9203229 2.233175 2 2h1v-1h-1c-.5522842 0-1.0767054-.453054-1-1v-.28125-6.71875c0-.552299.4267669-1 1-1h1v-1z"/><path d="m16 9c1.104522 0 2 .895478 2 2v7c0 1.104597-.928268 2.267326-2 2h-1v-1h1c.552284 0 .923295-.453054 1-1v-.28125-6.71875c0-.552299-.426767-1-1-1h-1v-1z"/></g></svg>