<svg viewBox="0 0 24 24" xmlns="http://www.w3.org/2000/svg"><path d="m8.8066406 3.359375a.51587393.51587393 0 0 0 -.4882812.3671875l-1.5761719 5.2578125h-5.2421875a.51587393.51587393 0 0 0 -.3085938.9277344l4.2382813 3.1796876-1.0605469 5.306641a.51587393.51587393 0 0 0 .8417969.49414l3.640625-3.121094 4.7382815 3.158204a.51587393.51587393 0 0 0 .779297-.578126l-1.591797-5.302734 3.683594-3.1562499a.51587393.51587393 0 0 0 -.335938-.9082031h-4.712891l-2.1210934-5.3007812a.51587393.51587393 0 0 0 -.484375-.3242188z" fill="#ed8733"/><path d="m12 5 .5 1h8.5v-1zm1 2 .5 1h8.5v-1zm5 2 .5 1h4.5v-1zm-1 2-1 1h7v-1zm-1 2-1 1h7v-1zm0 2 .5 1h6.5v-1z" fill="#fb983b"/><path d="m8.8808594 5.4101562-1.2714844 4.2363282a.50655745.50655745 0 0 1 -.484375.3593746h-4.1074219l3.2871094 2.464844a.50655745.50655745 0 0 1 .1914063.503906l-.8378907 4.185547 2.8242188-2.419922a.50655745.50655745 0 0 1 .6113281-.037109l3.892578 2.595703-1.283203-4.277344a.50655745.50655745 0 0 1 .154297-.53125l2.898437-2.484375h-3.693359a.50655745.50655745 0 0 1 -.470703-.318359z" fill="#f8db8f"/></svg>