<svg viewBox="0 0 24 24" xmlns="http://www.w3.org/2000/svg"><path d="m8.1191406 6 1.4375 1.4375c.5752824.5752835.5752834 1.5458102 0 2.1210938-.5752838.5752842-1.5458099.5752842-2.1210937 0l-1.4355469-1.4355469v.3769531c0 .8137028-.6862972 1.5-1.5 1.5s-1.5-.6862972-1.5-1.5v12.5h18v-15h-12.5z" fill="#fafafa"/><path d="m9.1210938 2-1 1h.3789062c.8137028 0 1.5.6862972 1.5 1.5s-.6862972 1.5-1.5 1.5h12.5v6 9h-6-6-6v-9-3.5-.3789062l-1 1v2.8789062 9c0 .554.446 1 1 1h6 6 6c.554 0 1-.446 1-1v-9-9c0-.554-.446-1-1-1z" fill="#3a3a38"/><g fill="#797774"><path d="m6 8.1230469v.3769531c0 .6388123-.4244527 1.194913-1 1.40625v2.09375h4v-2.0996094c-.3231665.1124044-.6762995.1125924-1 .0019532v1.0976562h-2v-2h.8769531z"/><path d="m5 14v4h4v-4zm1 1h2v2h-2z"/><path d="m11 9h7v1h-7z"/><path d="m11 15h7v1h-7z"/></g><path d="m9.1210938 2-1 1h.3789062c.8137028 0 1.5.6862972 1.5 1.5s-.6862972 1.5-1.5 1.5h13.5v-4z" fill="#3a3a38"/><path d="m8.5 3c.8137028 0 1.5.6862972 1.5 1.5 0 .1748905-.0358913.3424298-.09375.5h11.09375v-2z" fill="#797774"/><g transform="translate(1)"><path d="m3.5 0c-.277 0-.5.223-.5.5v1.5507812a2.5 2.5 0 0 0 -.8789062.3652344l-2.26562505-2.26562498c-.19586858-.19586857-.51116267-.19586857-.70703125 0-.1958686.19586858-.1958686.51116268 0 .70703126l2.265625 2.26562502a2.5 2.5 0 0 0 -.359375.8769531h-1.5546875c-.277 0-.5.223-.5.5s.223.5.5.5h1.5507812a2.5 2.5 0 0 0 .3652344.8769531l-2.2675781 2.2675781c-.1958685.1958687-.1958685.5111627 0 .7070313.19586857.1958685.51116267.1958685.70703125 0l2.26757815-2.2675781a2.5 2.5 0 0 0 .8769531.3613281v1.5546875c0 .277.223.5.5.5s.5-.223.5-.5v-1.5507812a2.5 2.5 0 0 0 .875-.3652344l2.2675781 2.2675781c.1958686.1958686.5111627.1958686.7070313 0s.1958686-.5111626 0-.7070313l-2.265625-2.265625a2.5 2.5 0 0 0 .3613281-.8789062h1.5546875c.277 0 .5-.223.5-.5s-.223-.5-.5-.5h-1.5507812a2.5 2.5 0 0 0 -.3652344-.8769531l2.265625-2.26562502c.1958686-.19586858.1958686-.51116268 0-.70703126-.1958686-.19586857-.5111627-.19586857-.7070313 0l-2.265625 2.26562498a2.5 2.5 0 0 0 -.8769531-.3613281v-1.5546875c0-.277-.223-.5-.5-.5zm0 3a1.5 1.5 0 0 1 1.5 1.5 1.5 1.5 0 0 1 -1.5 1.5 1.5 1.5 0 0 1 -1.5-1.5 1.5 1.5 0 0 1 .4394531-1.0585938 1.5 1.5 0 0 1 .0019531-.0019531 1.5 1.5 0 0 1 1.0585938-.4394531z" fill="#fb983b"/><circle cx="3.5" cy="4.5" fill="#fafafa" r="1.5"/></g></svg>