<?xml-stylesheet type="text/css" href="icons.css" ?>
<svg viewBox="0 0 24 24" xmlns="http://www.w3.org/2000/svg">
  <g id="background"
     class="icn icn--area-color"
     fill="#fafafa"
     stroke="#3a3a38"
     stroke-linecap="round"
     stroke-linejoin="round"
     >
      <path d="m 4.5,21.5 h 15 V 7 L 15,2.5 H 4.5 Z" />
      <path d="m 14.5,7.5 h 5 V 7 L 15,2.5 h -0.5 z" />
  </g>
  <g id="symbol"
	 class="icn icn--highlight-color"  
     fill="#83beec" 
     stroke="#1e8bcd" 
	 stroke-linecap="round" 
	 stroke-linejoin="round"
      >
      <path d="m 10.5,22.5 5,-2 -3,-3 z" />
      <path d="m 15.5,20.5 5,-5 -3,-3 -5,5 z" />
      <path d="m 22.5,13.5 -2,2 -3,-3 2,-2 z" />
  </g>
  <g id="symbol2"
	 class="icn icn--highlight-color"  
     fill="#83beec" 
     stroke="#1e8bcd" 
	 stroke-linecap="round" 
	 stroke-linejoin="round"
      >
      <path d="M 6.5 5.5 L 6.5 6.5 L 12.5 6.5 L 12.5 5.5 L 6.5 5.5 z M 6.5 9.5 L 13.5 9.5 L 6.5 9.5 z M 16.5 9.5 L 17.5 9.5 L 16.5 9.5 z M 6.5 12.5 L 13.5 12.5 L 6.5 12.5 z M 16.5 12.5 L 17.5 12.5 L 16.5 12.5 z M 6.5 15.5 L 11.5 15.5 L 6.5 15.5 z M 6.5 18.5 L 10.5 18.5 L 6.5 18.5 z " />
  </g>
</svg>
