<svg viewBox="0 0 24 24" xmlns="http://www.w3.org/2000/svg"><path d="m10.121094 2-8.121094 16h1.6679688c.1785896 0 .3366084-.049072.4746093-.146484.138001-.10553.2397459-.227234.3046875-.365235l1.7167969-3.488281h7.1601565l.460937 1.888672 1.714844-1.707031-3.199219-12.181641zm.853515 2.0097656c.040589.2922375.084107.5683584.132813.828125.056824.2516489.105896.4750969.146484.6699219l1.582032 6.4921875h-5.679688l3.197266-6.4804688c.089294-.194825.185485-.421874.291015-.6816406s.21643-.5358875.330078-.828125z" fill="#3a3a38"/><g fill="#fb983b" transform="translate(-1 -1)"><path d="m20.419922 11c-.189562 0-.378184.07172-.523438.216797l-1.673828 1.669922 2.847656 2.849609 1.710938-1.638672c.290506-.290127.290506-.756747 0-1.046875l-1.835938-1.833984c-.145254-.145064-.335828-.216797-.52539-.216797zm0 .990234 1.582031 1.580078-.917969.88086-1.5625-1.5625z" fill="#0063b1" transform="translate(1 1)"/><path d="m21.419922 12.990234-.898438.898438 1.5625 1.5625.917969-.88086z" fill="#83beec"/><g transform="translate(1 1)"><path d="m12.708984 18.376953-.002-.002-.706984.707078.002.002-.05078.05078-.95122 3.865189 3.806641-1.011719 6.24414-6.271484-2.828125-2.830078zm5.511719-4.191406 1.53125 1.533203-4.841797 4.861328-1.550781-1.552734zm-5.509765 5.708984 1.34375 1.341797-1.791016.476563z" fill="#0063b1"/><path d="m18.220703 14.185547 1.53125 1.533203-4.841797 4.861328-1.550781-1.552734zm-5.509765 5.708984 1.34375 1.341797-1.791016.476563z" fill="#83beec"/></g></g></svg>