<svg height="24" viewBox="0 0 6.3499999 6.3500002" width="24" xmlns="http://www.w3.org/2000/svg"><g stroke-width=".264583" transform="translate(0 -290.64998)"><path d="m.79375 291.17917h5.0270834v5.02708h-5.0270834z" fill="#fafafa"/><path d="m1.8520834 291.17917v1.05833h-1.0583334v.26458h1.0583334v1.05834h-1.0583334v.26458h1.0583334v1.05833h-1.0583334v.26459h1.0583334v1.05833h.2645833v-1.05833h1.0583333v1.05833h.2645834v-1.05833h1.0583333v1.05833h.2645833v-1.05833h1.0583334v-.26459h-1.0583334v-1.05833h1.0583334v-.26458h-1.0583334v-1.05834h1.0583334v-.26458h-1.0583334v-1.05833h-.2645833v1.05833h-1.0583333v-1.05833h-.2645834v1.05833h-1.0583333v-1.05833zm.2645833 1.32291h1.0583333v1.05834h-1.0583333zm1.3229167 0h1.0583333v1.05834h-1.0583333zm-1.3229167 1.32292h1.0583333v1.05833h-1.0583333zm1.3229167 0h1.0583333v1.05833h-1.0583333z" fill="#797774"/><path d="m.79375 290.91458c-.14657916 0-.26458333.11801-.26458333.26459v5.02708c0 .14658.11800417.26458.26458333.26458h5.0270834c.1465791 0 .2645833-.118.2645833-.26458v-5.02708c0-.14658-.1180042-.26459-.2645833-.26459zm0 .26459h5.0270834v5.02708h-5.0270834z" fill="#3a3a38"/></g><g fill="#1e8bcd" transform="matrix(.26458333 0 0 .26458333 0 .00002)"><path d="m12 7v4h-4v-4z" opacity=".5" stroke-width=".561952"/><path d="m7 6v1 4 1h6v-1-4-1zm1 1h4v4h-4z"/></g></svg>