<svg viewBox="0 0 24 24" xmlns="http://www.w3.org/2000/svg"><path d="m1 4v2.0019531 11.9960939 2.001953h10.001953 1.996094.001953v-1c.000105-1.047117.952883-1.999895 2-2v-10c-1.047117-.0001047-1.999895-.9528834-2-2v-1h-.001953-1.996094zm21 0v1c-.000105 1.0471166-.952883 1.9998953-2 2v10c1.047117.000105 1.999895.952883 2 2v1h1v-2.001953-11.9960939-2.0019531z" fill="#3a3a38"/><path d="m2 5v1.0019531 11.9960939 1.001953h8.71875 2.28125c.000105-1.047117.952883-1.999895 2-2v-10c-1.047117-.0001047-1.999895-.9528834-2-2h-2.267578zm20 0c-.000105 1.0471166-.952883 1.9998953-2 2v10c1.047117.000105 1.999895.952883 2 2v-1.001953-11.9960939z" fill="#fafafa"/><path d="m7.3066406 6-4.3066406 12h1.8242188c.1957929 0 .3597057-.053677.4902343-.162109.1364614-.114459.2279253-.238564.2753907-.371094l.7382812-2.349609h4.351563l.748046 2.359374c.059332.150604.150796.276497.275391.378907.124596.096384.292341.144531.5.144531h1.101563c.132087-.212376.299587-.398937.496093-.554688l-4.1074216-11.445312zm1.1835938 2.1875c.0771306.2951807.1552915.5692536.2324218.8222656.0771308.246988.1514589.4636437.2226563.6503906l1.0566405 3.3398438h-3.0039061l1.0566406-3.3320312c.0652643-.1867471.1377133-.4051911.2148437-.6582032.0771307-.253012.1495058-.5270849.2207032-.8222656z" fill="#1e8bcd"/><path d="m15 3.0000005a1.0001 1.0001 0 0 0 -1 1v1a1.0001 1.0001 0 0 0 1 1h1v1 9.9999995 1h-1a1.0001 1.0001 0 0 0 -1 1v1a1.0001 1.0001 0 0 0 1 1h2a1.0001 1.0001 0 0 0 .5-.134766 1.0001 1.0001 0 0 0 .5.134766h2a1.0001 1.0001 0 0 0 1-1v-1a1.0001 1.0001 0 0 0 -1-1h-1v-1-9.9999995-1h1a1.0001 1.0001 0 0 0 1-1v-1a1.0001 1.0001 0 0 0 -1-1h-2a1.0001 1.0001 0 0 0 -.5.1347656 1.0001 1.0001 0 0 0 -.5-.1347656z" fill="#3a3a38"/><path d="m15 4.0000005v1h2v-1zm2 1v13.9999995h1v-13.9999995zm1 0h2v-1h-2zm0 13.9999995v1h2v-1zm-1 0h-2v1h2z" fill="#fafafa"/></svg>