<svg viewBox="0 0 24 24" xmlns="http://www.w3.org/2000/svg"><path d="m17.507143 19.5 2.992879-2.995-2.992879-3.005001" fill="none" stroke="#1e8bcd" stroke-linecap="round" stroke-linejoin="round"/><path d="m20.007813 17.005859v-1l-11.007813-.0059v1z" fill="#1e8bcd" fill-rule="evenodd"/><path d="m9 17v-1a5 5 0 0 1 -5-5.000001 5 5 0 0 1 5-4.999999v-1a6 6 0 0 0 -6 5.999999 6 6 0 0 0 6 6.000001z" fill="#1e8bcd"/><path d="m12.000001 22c.554 0 1-.446 1-1v-14h-2v14c0 .554.446 1 1 1zm1-18v-1c0-.553999-.446-1-1-1s-1 .446001-1 1v1z" fill="#3a3a38"/><path d="m-14.999999-6h6v1h-6z" fill="#1e8bcd" transform="scale(-1)"/></svg>