<svg viewBox="0 0 24 24" xmlns="http://www.w3.org/2000/svg"><path d="m4.5 17.507142 2.995 2.992879 3.005001-2.992879" fill="none" stroke="#1e8bcd" stroke-linecap="round" stroke-linejoin="round"/><path d="m6.9941406 20.007812h1l.00586-11.0078124h-1z" fill="#1e8bcd" fill-rule="evenodd"/><path d="m7 8.9999996h1a5 5 0 0 1 5.000001-5 5 5 0 0 1 4.999999 5h1a6 6 0 0 0 -5.999999-6 6 6 0 0 0 -6.000001 6z" fill="#1e8bcd"/><path d="m2 12c0 .554.446 1 1 1h14v-2h-14c-.554 0-1 .446-1 1zm18 1h1c.553999 0 1-.446 1-1s-.446001-1-1-1h-1z" fill="#3a3a38"/><path d="m-14.999999 18h6v1h-6z" fill="#1e8bcd" transform="rotate(-90)"/></svg>