<svg viewBox="0 0 24 24" xmlns="http://www.w3.org/2000/svg"><path d="m10 3c-.554 0-1 .446-1 1v13c0 .554.446 1 1 1h10c.554 0 1-.446 1-1v-13c0-.554-.446-1-1-1zm0 1h10v13h-10z" fill="#3a3a38"/><path d="m10 4v13h10v-13z" fill="#fafafa"/><path d="m8 10c-.554 0-1 .446-1 1v2c0 .554.446 1 1 1h14c.554 0 1-.446 1-1v-2c0-.554-.446-1-1-1z" fill="#ed8733"/><path d="m8 11h14v2h-14z" fill="#f8db8f"/><g fill="#3a3a38"><path d="m10 10h1v2h-1z"/><path d="m4 7c-.554 0-1 .446-1 1v13c0 .554.446 1 1 1h10c.554 0 1-.446 1-1v-13c0-.554-.446-1-1-1zm0 1h10v13h-10z"/><path d="m13 10h1v2h-1z"/></g><path d="m4 8v13h10v-13z" fill="#fafafa"/><path d="m2 16c-.554 0-1 .446-1 1v2c0 .554.446 1 1 1h14c.554 0 1-.446 1-1v-2c0-.554-.446-1-1-1z" fill="#ed8733"/><path d="m2 17h14v2h-14z" fill="#f8db8f"/><g fill="#ed8733"><path d="m4 16h1v2h-1z"/><path d="m7 16h1v2h-1z"/><path d="m10 16h1v2h-1z"/><path d="m13 16h1v2h-1z"/><path d="m16 10h1v2h-1z"/><path d="m19 10h1v2h-1z"/></g></svg>