<svg viewBox="0 0 24 24" xmlns="http://www.w3.org/2000/svg"><path d="m10.599609 2.0058594-7.4980465 19.9882816h2.1445313c.2332413 0 .431495-.06543.59375-.197266.1723957-.131832.2887638-.284635.3496093-.457031l1.5292969-4.339844h4.28125a1.0001 1.0001 0 0 1 .802734-.980469l.28125-.05664-.158203-.236329a1.0001 1.0001 0 0 1 -.152343-.726562h-4.3496099l2.9824219-8.4609375c.091268-.2433823.187655-.5270528.289062-.8515625.101412-.3245097.203279-.6790979.304688-1.0644531.09127.3752143.187654.7243184.289062 1.0488281.101411.3245097.203279.6081802.304688.8515625l2.222656 6.3007815a1.0001 1.0001 0 0 1 .910156.101562l.236329.158203.05664-.28125a1.0001 1.0001 0 0 1 .980469-.802734h.15625l-3.742188-9.9941406z" fill="#3a3a38"/><path d="m17 13-.349609 1.744141-1.478516-.986329-.707031.707032-.707032.707031.986329 1.478516-1.744141.349609v1 1l1.744141.349609-.986329 1.478516.707032.707031.707031.707032 1.478516-.986329.349609 1.744141h1 1l.349609-1.744141 1.478516.986329.707031-.707032.707032-.707031-.986329-1.478516 1.744141-.349609v-1-1l-1.744141-.349609.986329-1.478516-.707032-.707031-.707031-.707032-1.478516.986329-.349609-1.744141h-1zm.800781 1h.398438l.300781 1.5h.535156l.378906.378906 1.273438-.847656.28125.28125-.847656 1.273438.378906.378906v.535156l1.5.300781v.398438l-1.5.300781v.535156l-.378906.378906.847656 1.273438-.28125.28125-1.273438-.847656-.378906.378906h-.535156l-.300781 1.5h-.398438l-.300781-1.5h-.535156l-.378906-.378906-1.273438.847656-.28125-.28125.847656-1.273438-.378906-.378906v-.535156l-1.5-.300781v-.398438l1.5-.300781v-.535156l.378906-.378906-.847656-1.273438.28125-.28125 1.273438.847656.378906-.378906h.535156zm.199219 2a2 2 0 0 0 -2 2 2 2 0 0 0 2 2 2 2 0 0 0 2-2 2 2 0 0 0 -2-2zm0 1a1 1 0 0 1 1 1 1 1 0 0 1 -1 1 1 1 0 0 1 -1-1 1 1 0 0 1 1-1z" fill="#1e8bcd"/><path d="m17.800781 14h.398438l.300781 1.5h.535156l.378906.378906 1.273438-.847656.28125.28125-.847656 1.273438.378906.378906v.535156l1.5.300781v.398438l-1.5.300781v.535156l-.378906.378906.847656 1.273438-.28125.28125-1.273438-.847656-.378906.378906h-.535156l-.300781 1.5h-.398438l-.300781-1.5h-.535156l-.378906-.378906-1.273438.847656-.28125-.28125.847656-1.273438-.378906-.378906v-.535156l-1.5-.300781v-.398438l1.5-.300781v-.535156l.378906-.378906-.847656-1.273438.28125-.28125 1.273438.847656.378906-.378906h.535156zm.199219 2c-1.104569 0-2 .895431-2 2s.895431 2 2 2 2-.895431 2-2-.895431-2-2-2z" fill="#fafafa"/></svg>