<svg viewBox="0 0 24 24" xmlns="http://www.w3.org/2000/svg"><path d="m3 2c-.554 0-1 .446-1 1v6.5 2.5 9c0 .554.446 1 1 1h6.4804688.4882812.46875l.96875-1h-.46875-.4375-1.0195312-6.4804688v-9-1.46875-4.53125h18v4.53125.566406l1-1.033203v-.564453-6.5c0-.554-.446-1-1-1z" fill="#3a3a38"/><path d="m3 6v15h8.40625l9.59375-9.902344v-5.097656z" fill="#fafafa"/><path d="m5 8v4h4v-4zm1 1h2v2h-2zm5 0v1h7v-1zm-6 5v4h4v-4zm1 1h2v2h-2zm5 0v1h5.25l.96875-1z" fill="#797774"/><path d="m2 2h20v4h-20z" fill="#3a3a38"/><path d="m3 3h18v2h-18z" fill="#797774"/><path d="m22.499933 11.5-10.5 11h10.5zm-2 5v4h-4z" fill="#f8db8f" fill-rule="evenodd" stroke="#ed8733" stroke-linecap="round" stroke-linejoin="round"/></svg>