<svg viewBox="0 0 24 24" xmlns="http://www.w3.org/2000/svg"><path d="m9 8h2v2h-2z" fill="#3a3a38"/><path d="m7 18h2v2h-2z" fill="#3a3a38"/><path d="m8.5021794 21.493207 5.9999996-19" fill="none" stroke="#1e8bcd" stroke-linecap="round" stroke-linejoin="round"/><g fill="#3a3a38"><path d="m3 2h2v2h-2z"/><path d="m7 4h2v2h-2z"/><path d="m3 8h2v2h-2z"/><path d="m7 12h2v2h-2z"/><path d="m3 16h2v2h-2z"/><path d="m11 2h2v2h-2z"/><path d="m20 2h2v2h-2z"/><path d="m20 12h2v2h-2z"/><path d="m14 12h2v2h-2z"/><path d="m18 20h2v2h-2z"/><path d="m16 6h2v2h-2z"/></g></svg>