<svg viewBox="0 0 24 24" xmlns="http://www.w3.org/2000/svg"><path d="m2.5289277 21.471072v-18.942144h7.9421443v18.942144z" fill="#fafafa" stroke="#3a3a38" stroke-linecap="round" stroke-linejoin="round" stroke-width="1.057855"/><path d="m12.990234 17.501953c.0036.12976.05754.253031.150391.34375l3.957031 3.957031c.199523.260944.592163.261911.792969.002l.0039-.0059 3.953125-3.953125c.490833-.471254-.235777-1.197864-.707031-.707031l-3.146478 3.146488c0-5.526042 0-11.052083 0-16.578125l3.146484 3.146485c.471255.490796 1.197838-.235788.707031-.707042l-3.957031-3.957031c-.201389-.262885-.598073-.26094-.796875.0039l-3.953125 3.953125c-.09665.09454-.150904.224178-.150391.359375.0019.447077.544711.667178.857422.347657l3.146485-3.146485v16.578125l-3.146485-3.146484c-.318004-.32527-.869893-.09144-.857422.363281z" fill="#1e8bcd" fill-rule="evenodd"/></svg>