<svg viewBox="0 0 24 24" xmlns="http://www.w3.org/2000/svg"><path d="m3 2v19h13v-4-.5h.035156a4 4 0 0 1 3.964844-3.5 4 4 0 0 1 2 .542969v-11.542969z" fill="#fafafa"/><path d="m5 3c-.554 0-1 .446-1 1s.446 1 1 1 1-.446 1-1-.446-1-1-1zm5 0c-.554 0-1 .446-1 1s.446 1 1 1 1-.446 1-1-.446-1-1-1zm5 0c-.554 0-1 .446-1 1s.446 1 1 1 1-.446 1-1-.446-1-1-1zm5 0c-.554 0-1 .446-1 1s.446 1 1 1 1-.446 1-1-.446-1-1-1zm-15 5c-.554 0-1 .446-1 1s.446 1 1 1 1-.446 1-1-.446-1-1-1zm5 0c-.554 0-1 .446-1 1s.446 1 1 1 1-.446 1-1-.446-1-1-1zm5 0c-.554 0-1 .446-1 1s.446 1 1 1 1-.446 1-1-.446-1-1-1zm5 0c-.554 0-1 .446-1 1s.446 1 1 1 1-.446 1-1-.446-1-1-1zm-15 5c-.554 0-1 .446-1 1s.446 1 1 1 1-.446 1-1-.446-1-1-1zm5 0c-.554 0-1 .446-1 1s.446 1 1 1 1-.446 1-1-.446-1-1-1zm5 0c-.554 0-1 .446-1 1s.446 1 1 1 1-.446 1-1-.446-1-1-1zm-10 5c-.554 0-1 .446-1 1s.446 1 1 1 1-.446 1-1-.446-1-1-1zm5 0c-.554 0-1 .446-1 1s.446 1 1 1 1-.446 1-1-.446-1-1-1zm5 0c-.554 0-1 .446-1 1s.446 1 1 1 1-.446 1-1-.446-1-1-1z" fill="#1e8bcd"/><path d="m3 1c-.554 0-1 .446-1 1v19c0 .554.446 1 1 1h13v-1h-13v-19h19v11.542969a4 4 0 0 1 1 .816406v-12.359375c0-.554-.446-1-1-1z" fill="#3a3a38"/><path d="m20 14c1.656854 0 3 1.343146 3 3v4 1h-2v-1-4c0-.552285-.447715-1-1-1s-1 .447715-1 1v4h-2v-4c0-1.656854 1.343146-3 3-3z" fill="#ed3d3b"/><g fill="#1e8bcd"><path d="m19 21h-2v1h2z"/><path d="m23 21h-2v1h2z"/></g></svg>