<svg viewBox="0 0 24 24" xmlns="http://www.w3.org/2000/svg"><path d="m17.503906.9921875c-.0021 0-.0037.001925-.0059.001953.000026.002124.002.003729.002.005859-.06645 0-.1296.013769-.1875.037109-.06278.025305-.119006.062355-.166016.109375l-2.996093 3.0058594c-.09793.09793-.146485.2276607-.146485.3554687 0 .127809.04855.2555756.146485.3535156.195869.195868.513115.195868.708984 0l2.140619-2.154296v8.7929688c0 .276999.223.5.5.5.0013 0 .0026.00001.0039 0v-.0078c.277 0 .5-.223002.5-.5v-8.7929812l2.140625 2.1542968c.195869.195868.513116.195868.708985 0 .097936-.09794.14649-.2257066.14649-.3535156 0-.127808-.04855-.2575387-.146484-.3554688l-2.996094-3.0058593c-.04701-.04702-.103236-.08407-.166016-.109375-.0579-.02334-.12105-.0371094-.1875-.0371094z" fill="#1e8bcd"/><path d="m9.5644531 5.0097656-5.0136719 13.9921874h1.4335938c.1559605 0 .28799-.04639.3964844-.138672.1152751-.09228.1936897-.199635.234375-.320312l1.1933594-3.542969h5.2949222c.03124 0 .058769-.010805.08789-.017578l1.205078 3.572266c.05424.127773.127724.233175.222657.318359.101714.08518.233744.128906.396484.128906h1.435547l-5.00586-13.9921874zm.9355469 1.8320313c.06103.26265.125551.5072182.193359.734375.06781.2271568.135316.4253355.203125.5957031l1.964844 5.828125h-4.7167968l1.9589848-5.8164062c.06103-.1703677.12555-.3685464.193359-.5957032.06781-.2271568.135316-.4763451.203125-.7460937z" fill="#3a3a38" stroke-width=".684153"/></svg>