<svg viewBox="0 0 24 24" xmlns="http://www.w3.org/2000/svg"><path d="m3 5c-.554 0-1 .446-1 1v15c0 .554.446 1 1 1h18c.554 0 1-.446 1-1v-15c0-.554-.446-1-1-1h-1.189453l-.587891 1h1.777344v15h-18v-11.9941406-3.0058594h1.4804688l.3203124-.5957031-.2226562-.4042969z" fill="#3a3a38"/><path d="m3 6v3.0058594a1.0001 1.0001 0 0 1 .1191406-.4804688l1.3613282-2.5253906zm0 3.0058594v11.9941406h18v-15h-1.777344l-.529297.8984375h1.22461a1.0001 1.0001 0 0 1 1 1v1.1015625a1.0001 1.0001 0 0 1 -1 1h-4.601563a1.0001 1.0001 0 0 1 -1-1v-.5371094c0-.3241488.103131-.675519.296875-.953125l-.041015.0664063.925781-1.5761719h-1.105469l-.265625.5351562v2.4648438a1.0001 1.0001 0 0 1 -1 1h-1.332031a1.0001 1.0001 0 0 1 -1-1v-2.4746094l-.261719-.5253906h-1.283203l1.335938 2.5332031a1.0001 1.0001 0 0 1 -.8847661 1.4667969h-1.3359375c-.2562216 0-.5996781-.0818467-.8613282-.3007812a1.0001 1.0001 0 0 1 -.0507812-.046875c-.1133919-.10899-.2093194-.2297095-.2871094-.3535157a1.0001 1.0001 0 0 1 -.0507812-.0917969l-.3222656-.6601562-.3066407.6445312a1.0001 1.0001 0 0 1 -.0566406.1035157c-.0809168.1287869-.1729646.238734-.2597656.328125-.236793.2438598-.6152182.3769531-.90625.3769531h-1.2636719a1.0001 1.0001 0 0 1 -1-.9941406z" fill="#fafafa"/><path d="m4.0722656 2 1.8671875 3.4003906-1.9394531 3.5996094h1.2636719c.0784816 0 .1416818-.0250221.1894531-.0742188.0477714-.0491964.0913716-.10237.1289062-.1621093l1.1464844-2.4199219c.0068247-.01757.015154-.0328183.0253906-.046875.0102374-.01757.0185667-.0351637.0253907-.0527344l1.234375 2.5234375c.0375349.0597392.0816293.114866.1328125.1640625.0545958.0456827.1266194.0683594.21875.0683594h1.3359375l-1.9296875-3.6640625 1.8886718-3.3359375h-1.2832031c-.0580083 0-.1074908.015249-.1484375.046875-.0409468.0281121-.0816059.0730732-.1191406.1328125l-1.0742188 2.25-.0820312.1523437-1.2285156-2.4296874c-.0341227-.0562246-.0723346-.0941498-.1132813-.1152344-.0375347-.024598-.0987817-.0371094-.1875-.0371094zm5.5878906 0 2.1347658 4.2910156v2.7089844h1.332031v-2.6992188l2.132813-4.3007812h-1.191407c-.112604 0-.205687.0328424-.277343.0996094-.071652.063253-.126523.133236-.164063.2070312l-.833984 2.265625c-.06824.1370482-.128994.267633-.183594.390625-.054591.122992-.101132.2461487-.138672.3691406-.044361-.1229919-.09629-.2461486-.154297-.3691406-.054596-.122992-.115842-.2559222-.1875-.3964844l-.839844-2.2597656c-.044358-.091365-.101676-.1664309-.169921-.2226562-.068245-.0562254-.156433-.0839844-.265625-.0839844zm5.8808598 0v1.1015625h2.820312l-2.927734 4.9804687c-.078482.1124499-.117188.2402972-.117188.3808594v.5371094h4.601563v-1.1015625h-2.972657l2.925782-4.9707031c.085306-.1265061.128906-.2649113.128906-.4160156v-.5117188z" fill="#3a3a38"/></svg>