<svg viewBox="0 0 24 24" xmlns="http://www.w3.org/2000/svg"><g transform="translate(3 -3)"><path d="m3 5a1.0001 1.0001 0 0 0 -1 1v10a1.0001 1.0001 0 0 0 1 1h3v4a1.0001 1.0001 0 0 0 1.7070312.707031l4.7070308-4.707031h5.585938a1.0001 1.0001 0 0 0 1-1v-10a1.0001 1.0001 0 0 0 -1-1z" fill="#3a3a38"/><path d="m3 6v10h4v5l5-5h6v-10z" fill="#fafafa"/></g><path d="m3 5a1.0001 1.0001 0 0 0 -1 1v10a1.0001 1.0001 0 0 0 1 1h3v4a1.0001 1.0001 0 0 0 1.7070312.707031l4.7070308-4.707031h5.585938a1.0001 1.0001 0 0 0 1-1v-10a1.0001 1.0001 0 0 0 -1-1z" fill="#3a3a38"/><path d="m3 6v10h4v5l5-5h6v-10z" fill="#fafafa"/><path d="m4 2c-1.108 0-2 .892-2 2v11c0 .581483 0 2.329012.6425781 1.464844l17.3574219-14.464844zm-1 1h14.183594l-14.183594 11.900391z" fill="#3a3a38"/><path d="m3 3h14.183594l-14.183594 11.900391z" fill="#fafafa"/></svg>