<svg viewBox="0 0 24 24" xmlns="http://www.w3.org/2000/svg"><path d="m4.5 2c-.277 0-.5.223-.5.5v5.5 11.5c0 .277.223.5.5.5h7.5 3v-3-.5h.035156a4 4 0 0 1 3.964844-3.5 4 4 0 0 1 3 1.359375v-.359375-11.5c0-.277-.223-.5-.5-.5h-7.5z" fill="#fafafa"/><path d="m2.5 19c-.277 0-.5.223-.5.5s.223.5.5.5h12.5v-1z" fill="#1e8bcd"/><rect fill="#1e8bcd" height="20" ry=".5" width="1" x="4" y="2"/><path d="m19 14c1.656854 0 3 1.343146 3 3v4 1h-2v-1-4c0-.552285-.447715-1-1-1s-1 .447715-1 1v4h-2v-4c0-1.656854 1.343146-3 3-3z" fill="#ed3d3b"/><g fill="#1e8bcd"><path d="m18 21h-2v1h2z"/><path d="m22 21h-2v1h2z"/></g></svg>