<svg viewBox="0 0 24 24" xmlns="http://www.w3.org/2000/svg"><circle cx="12" cy="12" fill="#0063b1" r="10"/><path d="m12 3a9 9 0 0 0 -9 9 9 9 0 0 0 9 9 9 9 0 0 0 9-9 9 9 0 0 0 -9-9z" fill="#83beec"/><path d="m12 4.9999998c-2.2100002 0-4.0000002 1.79-4.0000002 4h2c0-1.1.9000002-2 2.0000002-2s2 .9 2 2c0 .55-.219844 1.0501562-.589844 1.4101562l-1.240234 1.259766c-.72.73-1.169922 1.730078-1.169922 2.830078v.5h2c0-1.5.449922-2.100078 1.169922-2.830078l.90039-.919922c.57-.57.929688-1.3700002.929688-2.2500002 0-2.21-1.79-4-4-4zm-1 12.0000002v2h2v-2z" fill="#fafafa"/></svg>