<svg viewBox="0 0 24 24" xmlns="http://www.w3.org/2000/svg"><path d="m20.895074 16.354889q0 1.256755-.723227 2.009623-.717299.752867-1.974054.752867-1.399029 0-2.151897-1.019631-.752867-1.02556-.752867-2.904764 0-2.062975.782508-3.189313.782508-1.126337 2.205249-1.126337 1.891061 0 2.383092 1.701362l-1.019631.183771q-.314189-1.019632-1.375317-1.019632-.906998 0-1.410885.824005-.503888.824004-.503888 2.311955.290476-.539456.818076-.818076.5276-.284549 1.209331-.284549 1.138193 0 1.825851.705443.687659.699515.687659 1.873276zm-1.084841.04743q0-.853645-.456463-1.327892-.450534-.474247-1.227114-.474247-.438679 0-.829933.201555-.391254.195627-.616521.551312-.21934.349757-.21934.794364 0 .90107.474248 1.505735.480175.604665 1.227114.604665.752868 0 1.197474-.497959.450535-.49796.450535-1.357533z" fill="#1e8bcd"/><path d="m5 5v14h2v-5.900391h6v5.900391h2v-.910156c-.419414-.809483-.611328-1.781216-.611328-2.896485 0-1.200079.191968-2.236843.611328-3.101562v-7.091797h-2v6h-6v-6z" fill="#3a3a38" stroke-width=".7"/></svg>