<svg viewBox="0 0 24 24" xmlns="http://www.w3.org/2000/svg"><path d="m20.912858 16.366746q0 .824004-.349757 1.446453-.349758.62245-1.02556.966279-.669874.337901-1.588728.337901-1.167834 0-1.885133-.509815-.717298-.509816-.906997-1.476095l1.078912-.12449q.337901 1.238971 1.73693 1.238971.835861 0 1.333821-.49796.497959-.497959.497959-1.357532 0-.735083-.492031-1.203402-.492032-.468319-1.316036-.468319-.432751 0-.80622.136346-.37347.136346-.74694.462391h-1.043344l.278621-4.31565h4.7484v.859573h-3.764337l-.171915 2.519438q.693586-.533528 1.725074-.533528 1.20933 0 1.950342.699515.746939.693586.746939 1.819924z" fill="#1e8bcd"/><path d="m5 5v14h2v-5.900391h6v5.900391h2v-.009766c-.418049-.458286-.702955-1.038382-.826172-1.666015a1.0020533 1.0020533 0 0 1 .703125-1.154297 1.0020533 1.0020533 0 0 1 -.476562-.916016l.277343-4.316406a1.0020533 1.0020533 0 0 1 .322266-.671875v-5.265625h-2v6h-6v-6z" fill="#3a3a38" stroke-width=".7"/></svg>