<svg viewBox="0 0 24 24" xmlns="http://www.w3.org/2000/svg"><g fill="#ed3d3b"><rect height="1" ry=".5" width="4" x="6" y="11"/><rect height="1" ry=".5" width="4" x="12" y="11"/><rect height="1" ry=".429231" width="4" x="18" y="11"/><path d="m1.4941406 9.0019531a.49824866.49824866 0 0 0 -.4921875.4980469v4a.49824866.49824866 0 0 0 .7734375.414062l3-2a.49824866.49824866 0 0 0 0-.828124l-3-2.0000005a.49824866.49824866 0 0 0 -.28125-.083984z"/></g><path d="m7 13c-.554 0-1 .446-1 1v8h1v-8h14v8h1v-8c0-.554-.446-1-1-1z" fill="#3a3a38"/><path d="m7 14h14v8h-14z" fill="#fafafa"/><path d="m7 10c-.554 0-1-.446-1-1v-7h1v7h14v-7h1v7c0 .554-.446 1-1 1z" fill="#3a3a38"/><path d="m7-9h14v7h-14z" fill="#fafafa" transform="scale(1 -1)"/></svg>