<svg height="24" viewBox="0 0 24 24" width="24" xmlns="http://www.w3.org/2000/svg" xmlns:xlink="http://www.w3.org/1999/xlink"><linearGradient id="a" gradientUnits="userSpaceOnUse" x1="-27.807906" x2="-15.807906" y1="9.302687" y2="-2.697313"><stop offset="0" stop-color="#83beec" stop-opacity=".007273"/><stop offset=".20833333" stop-color="#83beec" stop-opacity=".061818"/><stop offset=".70833331" stop-color="#1e8bcd"/><stop offset="1" stop-color="#0063b1"/></linearGradient><path d="m8 4v4h4v-4zm4 4v4h4v-4zm4 0h4v-4h-4zm0 4v4h4v-4zm0 4h-4v4h4zm-4 0v-4h-4v4zm-4 0h-4v4h4zm0-4v-4h-4v4z" fill="#c8c6c4"/><path d="m4 4v4h4v-4zm4 4v4h4v-4zm4 0h4v-4h-4zm4 0v4h4v-4zm0 4h-4v4h4zm0 4v4h4v-4zm-4 0h-4v4h4zm-4 0v-4h-4v4z" fill="#797774"/><path d="m19 3v1h-15v15h-1v2h2v-1h15v-15h1v-2z" fill="url(#a)"/><path d="m18 2v3.2929688l-2 2-5.181641 5.1816402-5.5253902 5.525391h-3.2929688v4h4v-3.292969l5.525391-5.52539 3.18164-3.181641 4-4h3.292969v-4zm1 1h2v2h-2zm-16 16h2v2h-2z" fill="#3a3a38"/><path d="m19 3v2h2v-2zm-16 16v2h2v-2z" fill="#fafafa"/></svg>