<svg viewBox="0 0 24 24" xmlns="http://www.w3.org/2000/svg"><path d="m5 3v18h15v-18z" fill="#fafafa"/><path d="m6.5 5c-.277 0-.5.223-.5.5s.223.5.5.5h4c.277 0 .5-.223.5-.5s-.223-.5-.5-.5zm0 4c-.277 0-.5.223-.5.5s.223.5.5.5h4c.277 0 .5-.223.5-.5s-.223-.5-.5-.5zm8 0c-.277 0-.5.223-.5.5s.223.5.5.5h4c.277 0 .5-.223.5-.5s-.223-.5-.5-.5zm-8 3c-.277 0-.5.223-.5.5s.223.5.5.5h4c.277 0 .5-.223.5-.5s-.223-.5-.5-.5zm8 0c-.277 0-.5.223-.5.5s.223.5.5.5h4c.277 0 .5-.223.5-.5s-.223-.5-.5-.5zm-8 3c-.277 0-.5.223-.5.5s.223.5.5.5h4c.277 0 .5-.223.5-.5s-.223-.5-.5-.5zm8 0c-.277 0-.5.223-.5.5s.223.5.5.5h4c.277 0 .5-.223.5-.5s-.223-.5-.5-.5zm0 3c-.277 0-.5.223-.5.5s.223.5.5.5h4c.277 0 .5-.223.5-.5s-.223-.5-.5-.5z" fill="#797774"/><path d="m12.5 5c-.277 0-.5.223-.5.5v12.5h-3.6015625c-.220661 0-.3984375.177776-.3984375.398438v.203124c0 .220662.1777765.398438.3984375.398438h4.1015625.101562c.220662 0 .398438-.177776.398438-.398438v-.101562-.101562-12.398438h3.5c.277 0 .5-.223.5-.5s-.223-.5-.5-.5z" fill="#ed3d3b"/><path d="m5 2c-.554 0-1 .446-1 1v18c0 .554.446 1 1 1h15c.554 0 1-.446 1-1v-18c0-.554-.446-1-1-1zm0 1h15v18h-15z" fill="#3a3a38"/></svg>