<svg viewBox="0 0 24 24" xmlns="http://www.w3.org/2000/svg" xmlns:xlink="http://www.w3.org/1999/xlink"><linearGradient id="a" gradientTransform="matrix(0 1 -1 0 24 0)" gradientUnits="userSpaceOnUse" x1="21" x2="19" y1="-3.291139" y2="12"><stop offset="0" stop-color="#d7d7d7"/><stop offset=".29999998" stop-color="#f7f7f7"/><stop offset="1" stop-color="#fff"/></linearGradient><path d="m2.5 4c-.277 0-.5.223-.5.5v1 13 1c0 .277.223.5.5.5h1 9.59375c-.057859-.15757-.09375-.325109-.09375-.5s.035891-.34243.09375-.5h-10.09375v-14h18v6.09375c.15757-.057859.325109-.09375.5-.09375s.34243.03589.5.09375v-5.59375-1c0-.277-.223-.5-.5-.5h-1-17z" fill="#3a3a38"/><path d="m3 5v14h10.09375c.211337-.575547.767438-1 1.40625-1h.5v-2h-.5c-.813703 0-1.5-.686297-1.5-1.5s.686297-1.5 1.5-1.5h.5v-.5c0-.813703.686297-1.5 1.5-1.5s1.5.686297 1.5 1.5v.5h2v-.5c0-.638812.424453-1.194913 1-1.40625v-6.09375z" fill="url(#a)"/><path d="m5 7h14v2h-14z" fill="#797774" stroke-width="1.322876"/><path d="m5 11v1h1v-1zm2 0v1h8.09375c.211337-.575547.767438-1 1.40625-1zm9.5 0c.638812 0 1.194913.424453 1.40625 1h1.09375v-1zm-11.5 2v1h1v-1zm2 0v1h6.09375c.211337-.575547.767438-1 1.40625-1zm-2 2v1h1v-1zm2 0v1h7.5c-.638812 0-1.194913-.424453-1.40625-1z" fill="#c8c6c4"/><path d="m16.5 12c-.277 0-.5.223-.5.5v1.5h-1.5c-.277 0-.5.223-.5.5s.223.5.5.5h1.5v4h-1.5c-.277 0-.5.223-.5.5s.223.5.5.5h1.5v1.5c0 .277.223.5.5.5s.5-.223.5-.5v-1.5h4v1.5c0 .277.223.5.5.5s.503797-.223026.5-.5v-1.5h1.5c.277 0 .5-.223.5-.5s-.223-.5-.5-.5h-1.5v-4h1.5c.277 0 .5-.223.5-.5s-.223016-.502973-.5-.5h-1.5v-1.5c0-.277-.223-.5-.5-.5s-.5.223-.5.5v1.5h-4v-1.5c0-.277-.223-.5-.5-.5zm.5 3h4v4h-4z" fill="#1e8bcd"/></svg>