<svg viewBox="0 0 24 24" xmlns="http://www.w3.org/2000/svg"><path d="m10.5 3a7.5 7.5 0 0 0 -7.5 7.5 7.5 7.5 0 0 0 1.5195312 4.5h3.0039063 3.0546875 5.904297a7.5 7.5 0 0 0 1.517578-4.5 7.5 7.5 0 0 0 -7.5-7.5z" fill="#fafafa"/><path d="m10.5 2a8.5 8.5 0 0 0 -6.5625 3.1210938 14 7.5 0 0 1 -.0117188-.0039063 8.5 8.5 0 0 0 -.0683593.09375 8.5 8.5 0 0 0 -.0917969.125 8.5 8.5 0 0 0 -.4375.6210937 15 8.5 0 0 0 .0019531 0 8.5 8.5 0 0 0 -.5644531 1.0429688h-.0019531a8.5 8.5 0 0 0 -.0839844.1914062 8.5 8.5 0 0 0 -.0019531.0039063 8.5 8.5 0 0 0 -.2617188.7128906 8.5 8.5 0 0 0 -.0390625.1191407 8.5 8.5 0 0 0 -.1699219.6582031 8.5 8.5 0 0 0 -.0410156.1816406 8.5 8.5 0 0 0 -.0917968.5976563 8.5 8.5 0 0 0 -.0332032.2792968 8.5 8.5 0 0 0 -.0410156.7558594 8.5 8.5 0 0 0 .0410156.755859 8.5 8.5 0 0 0 .0332032.279297 8.5 8.5 0 0 0 .0917968.597656 8.5 8.5 0 0 0 .0410156.181641 8.5 8.5 0 0 0 .1699219.658203 8.5 8.5 0 0 0 .0390625.119141 8.5 8.5 0 0 0 .2617188.712891 8.5 8.5 0 0 0 .0019531.003906 8.5 8.5 0 0 0 .0839844.191406h.0019531a8.5 8.5 0 0 0 .546875 1h4.2109375 3.0546875 6.894531.22461a8.5 8.5 0 0 0 .849609-1.789062 8.5 8.5 0 0 0 .208984-.732422 8.5 8.5 0 0 0 .03125-.123047 8.5 8.5 0 0 0 .107422-.587891 8.5 8.5 0 0 0 .042969-.292969 8.5 8.5 0 0 0 .039062-.501953 8.5 8.5 0 0 0 .023438-.472656 8.5 8.5 0 0 0 -.023438-.472656 8.5 8.5 0 0 0 -.039062-.5019534 8.5 8.5 0 0 0 -.042969-.2929687 8.5 8.5 0 0 0 -.107422-.5878907 8.5 8.5 0 0 0 -.03125-.1230468 8.5 8.5 0 0 0 -.208984-.7324219 8.5 8.5 0 0 0 -.878906-1.8242187 15 8.5 0 0 0 .015625-.0039063 8.5 8.5 0 0 0 -.207032-.2949219 8.5 8.5 0 0 0 -.162109-.2265625 8.5 8.5 0 0 0 -.244141-.3242187 14 7.5 0 0 1 -.011718.0039062 8.5 8.5 0 0 0 -6.558594-3.1191406zm0 1a7.5 7.5 0 0 1 .267578.0136719c.593086.9790364 1.074271 1.9515258 1.429688 2.9199219a14 7.5 0 0 1 -1.697266.0664062 14 7.5 0 0 1 -1.6992188-.0625c.3557618-.9702074.8373182-1.9448956 1.4316408-2.9257812a7.5 7.5 0 0 1 .267578-.0117188zm1.486328.1503906a7.5 7.5 0 0 1 3.992188 2.2402344 14 7.5 0 0 1 -2.791016.4648438c-.304802-.9033018-.705519-1.8045653-1.201172-2.7050782zm-2.9765624.0058594c-.4945145.8992584-.8950044 1.7991362-1.1992187 2.7011719a14 7.5 0 0 1 -2.7890625-.4609375 7.5 7.5 0 0 1 3.9882812-2.2402344zm-4.6660156 3.078125a15 8.5 0 0 0 3.1621094.5898438c-.1450661.5481693-.2624841 1.0963748-.3417969 1.6445312-.0652907.4512453-.112468.9026018-.1328125 1.3535156-.0031654.0592193-.0009417.1184989-.0019531.1777344h-4.0039063a7.5 7.5 0 0 1 .0078125-.171875 7.5 7.5 0 0 1 .0683594-.4960938 7.5 7.5 0 0 1 .0390625-.2558593 7.5 7.5 0 0 1 .1171875-.4863281 7.5 7.5 0 0 1 .0585937-.2324219 7.5 7.5 0 0 1 .2148438-.6113281 7.5 7.5 0 0 1 .0273438-.0742188 7.5 7.5 0 0 1 .3144531-.671875 7.5 7.5 0 0 1 .4707031-.765625zm12.314453.0078125a7.5 7.5 0 0 1 .470703.7578125 7.5 7.5 0 0 1 .00586.0136719 7.5 7.5 0 0 1 .183593.3867187 7.5 7.5 0 0 1 .107422.2402344 7.5 7.5 0 0 1 .175781.4765625 7.5 7.5 0 0 1 .080079.2421875 7.5 7.5 0 0 1 .111328.4335938 7.5 7.5 0 0 1 .070312.3144531 7.5 7.5 0 0 1 .064453.4179687 7.5 7.5 0 0 1 .039063.3242188 7.5 7.5 0 0 1 .007812.1503906h-4.003906c-.001017-.0592355.00122-.1185151-.001953-.1777344-.020345-.4509138-.067525-.9022703-.132812-1.3535156-.079115-.5467859-.195307-1.0938256-.339844-1.640625a15 8.5 0 0 0 3.162109-.5859375zm-8.1718749.6699219a15 8.5 0 0 0 2.0136719.0878906 15 8.5 0 0 0 2.015625-.0878906c.008369.029155.019185.0587417.027344.0878906h-.021485c.280818 1.0002215.425875 1.9997594.466797 3h-4.9765622c.0409217-1.0002406.1859787-1.9997785.4667968-3h-.0214844c.0082127-.029339.0208722-.0585455.0292969-.0878906zm-5.4609375 4.0878906h4.0039063c.0010115.059235-.0012123.118515.0019531.177734.020345.450914.067522.902271.1328125 1.353516.0799662.552672.198886 1.10552.3457031 1.658203-1.0872945.126782-2.1434396.321705-3.1582031.582031a7.5 7.5 0 0 1 -.4785156-.771484 7.5 7.5 0 0 1 -.3144531-.671875 7.5 7.5 0 0 1 -.0273438-.074219 7.5 7.5 0 0 1 -.2148438-.611328 7.5 7.5 0 0 1 -.0585937-.232422 7.5 7.5 0 0 1 -.1171875-.486328 7.5 7.5 0 0 1 -.0390625-.255859 7.5 7.5 0 0 1 -.0683594-.496094 7.5 7.5 0 0 1 -.0078125-.171875zm4.9863282 0h4.9765622c-.040902 1.000241-.185979 1.999779-.466797 3h.021485c-.007665.027383-.019494.054643-.027344.082031-.666671-.05136-1.338658-.081954-2.015625-.082031-.6768157.0007-1.3492391.032032-2.015625.083984-.0080227-.027977-.0195141-.056012-.0273438-.083984h.0214844c-.2808178-1.000221-.4258751-1.999759-.4667968-3zm5.9589842 0h4.003906a7.5 7.5 0 0 1 -.007812.150391 7.5 7.5 0 0 1 -.039063.324218 7.5 7.5 0 0 1 -.064453.417969 7.5 7.5 0 0 1 -.070312.314453 7.5 7.5 0 0 1 -.111328.433594 7.5 7.5 0 0 1 -.080079.242187 7.5 7.5 0 0 1 -.175781.476563 7.5 7.5 0 0 1 -.107422.240234 7.5 7.5 0 0 1 -.183593.386719 7.5 7.5 0 0 1 -.00586.013672 7.5 7.5 0 0 1 -.472656.767578c-1.016768-.260014-2.074871-.454045-3.164062-.580078.146512-.551905.263894-1.104357.34375-1.65625.065287-.451245.112467-.902602.132812-1.353516.003165-.059219.00094-.118499.001953-.177734z" fill="#3a3a38"/><g fill="#1e8bcd"><path d="m10 19h8v1h-8z"/><path d="m17.480469 16.001953c-1.204888.009363-2.200759.860275-2.429688 1.998047h1.041016c.206006-.581923.753963-1 1.408203-1h.457031c.01437-.0018.028039-.005859.042969-.005859h2c.01493 0 .028599.004059.042969.005859h.457031c.831 0 1.5.669 1.5 1.5v1 1c0 .831-.669 1.5-1.5 1.5h-.457031c-.01437.0018-.028039.005859-.042969.005859h-2c-.01493 0-.028599-.004059-.042969-.005859h-.457031c-.65424 0-1.202197-.418077-1.408203-1h-1.041016c.228929 1.137772 1.2248 1.988647 2.429688 1.998047h3.039062c1.375703-.01069 2.480469-1.119731 2.480469-2.498047v-1-1c0-1.378316-1.104766-2.487357-2.480469-2.498047z"/><path d="m10.570312 16.001953c1.204888.009363 2.200759.860275 2.429688 1.998047h-1.041016c-.206006-.581923-.753963-1-1.408203-1h-.457031c-.01437-.0018-.02804-.0059-.04297-.0059h-2c-.01493 0-.0286.0041-.04297.0059h-.457031c-.831 0-1.5.669-1.5 1.5v1 1c0 .831.669 1.5 1.5 1.5h.457031c.01437.0018.02804.0059.04297.0059h2c.01493 0 .0286-.0041.04297-.0059h.457031c.65424 0 1.202197-.418077 1.408203-1h1.041016c-.228929 1.137772-1.2248 1.988647-2.429688 1.998047h-3.039062c-1.375703-.01069-2.480469-1.119731-2.480469-2.498047v-1-1c0-1.378316 1.104766-2.487357 2.480469-2.498047z"/></g></svg>