<svg viewBox="0 0 24 24" xmlns="http://www.w3.org/2000/svg"><path d="m11.5 1.9609375c-.926312 0-1.8469514.3821076-2.5019531 1.0371094-.6550018.6550017-1.0371094 1.5756407-1.0371094 2.5019531.0006232.7009816.2322281 1.3927745.6230469 1.9746094.0638831.2163044.1289237.4025541.1894531.5175781l-2.8125.0039063v-.0390626l-2.5917969.0039063c-.7728879.0011139-1.4012482.6281717-1.4003906 1.4042969l.0039062 2.9316406a1.0383564 1.0383564 0 0 0 .0390626.271484v1.019532l.6074218-.216797c.0455725-.016347.261788-.023256.3789063-.03711a1.0383564 1.0383564 0 0 0 .1523437-.009765c-.1651356.02241.05956-.002766.2109375-.009766.1513776-.007.3485573-.016027.5449219-.023437.3927291-.01482.8884281-.025391.8203125-.025391 1.227588 0 2.2343748 1.006782 2.234375 2.234375 0 1.22277-1.0016759 2.2213-2.2226563 2.228516-.039671-.0059-.087602-.015001-.1503906-.025391-.1499033-.0248-.3468816-.05849-.5449218-.09375-.1980404-.03526-.3958978-.071139-.5546876-.099609-.1587896-.02847-.2103835-.041837-.3515624-.060547a1.0383564 1.0383564 0 0 0 -.6542969.130859l-.4707031-.169922-.0019532.753906a1.0383564 1.0383564 0 0 0 -.0488281.314454v2.158203c0 .774714.6276354 1.402344 1.4023437 1.402343h16.2734378c.774724 0 1.403802-.627194 1.402343-1.404296v-6.634766a1.0383564 1.0383564 0 0 0 0-.009766l-.044921-4.6367184c-.0074-.7623669-.62759-1.3925781-1.402344-1.3925781h-1.089844l-2.880859-.0058594.001953.0390625-1.517578-.0019531c.030039-.0570644.064591-.1581451.097656-.2402344.520875-.6300321.834714-1.4316402.835937-2.25a1.0383564 1.0383564 0 0 0 0-.0019531c0-.9263124-.382107-1.8469514-1.037109-2.5019531-.655002-.6550049-1.575641-1.0371094-2.501953-1.0371094z" fill="#0063b1"/><path d="m11.5 3a2.5 2.5 0 0 0 -2.5 2.5 2.5 2.5 0 0 0 .8378906 1.8652344 2.5 2.5 0 0 1 -2.3378906 1.6347656 2.5 2.5 0 0 1 -.5-.0546875v.0488281l-3.6289062.0058594c-.198197.0002866-.3635003.1650844-.3632813.3632812l.0039063 2.9316408c.125429-.017021 1.5825206-.068358 1.7148437-.06836 1.7965809 0 3.2734372 1.476856 3.2734375 3.273438 0 1.79658-1.4778901 3.271484-3.2734375 3.271484-.1305774 0-1.6016843-.276418-1.7265625-.292968v2.158203c0 .198201.1650833.363281.3632812.363281h16.2734378c.198197 0 .363653-.165084.363281-.363281v-6.636719l-.044922-4.6367188c-.00192-.1981881-.165083-.3632812-.363281-.3632812h-1.091797l-2.880859-.0058594a2.5 2.5 0 0 1 -.119141.0058594 2.5 2.5 0 0 1 -2.341797-1.6328125 2.5 2.5 0 0 0 .841797-1.8671875 2.5 2.5 0 0 0 -2.5-2.5z" fill="#83beec"/></svg>