<svg height="24" viewBox="0 0 6.3499999 6.3500002" width="24" xmlns="http://www.w3.org/2000/svg"><g transform="matrix(1 0 0 -1 0 6.350516)"><path d="m3 2c-.1385 0-.2709063.0276577-.390625.078125-.1202234.0506801-.225797.123943-.3164062.2148438-.1807501.1807464-.2929688.4300296-.2929688.7070312v5.3027344 3.5117186 10.185547c0 .277002.1122187.526275.2929688.707031.090609.09091.1961828.16416.3164062.214844.1197187.050471.252125.078125.390625.078125h19c.1385 0 .270906-.02765.390625-.07813.120223-.05068.225797-.123938.316406-.214844.18075-.180751.292969-.430024.292969-.707026v-8.869141l-1 .998047v7.871094h-19v-9.183594-4.7988279-5.0175781h3.0058594 3.9863281 5.0156245.990235v-1h-.988281-5.0195316-3.9824219zm16.001953 0v1h2.998047v5.0175781 2.0781249c.322998-.1103861.677399-.1097699 1 .002v-1.7949686-5.3027344c0-.1385008-.027656-.2709073-.078125-.390625-.050256-.1192131-.124995-.2262687-.214844-.3164062-.090609-.0909008-.196183-.1641637-.316406-.2148438-.119719-.0504673-.252125-.078125-.390625-.078125z" fill="#3a3a38" transform="scale(.26458334)"/><path d="m3 3v14h12.875l-4.435547-4.429688c-.293724-.293706-.439453-.682907-.439453-1.064453 0-.381519.150366-.773492.439453-1.0625.578387-.5783856 1.548567-.5783826 2.126953 0l2.431641 2.429688v-9.873047zm16.001953 0v9.873047l2.431641-2.429688c.163234-.163233.358373-.276559.566406-.347656v-7.095703zm2.998047 11.128906-2.875 2.871094h2.875z" fill="#fafafa" fill-opacity=".984733" transform="scale(.26458334)"/><path d="m5.8208333 5.82083v-1.05834h-5.02708337v1.05834z" fill="#a1ddaa" stroke-width=".324047"/><g transform="scale(.26458334)"><path d="m7 3v4h-.9902344-3.0097656v1h3.0117188.9882812v4h-4v.816406.183594h.1835938 3.8164062v3.714844.285156h-4v.002.998.002h4v3.998.002h1v-4h4v4h1v-4h4v4h1v-.002-3.998047h4v-.001953-.998047-.001953h-2.875l-.5625.5625c-.143283.143289-.314944.255498-.5.330078-.165444.06668-.357639.109375-.5625.109375s-.397056-.04268-.5625-.109375c-.185094-.07458-.356675-.186723-.5-.330078l-.5625-.5625h-2.875v-2.871094l-1-.998047v.369141.332031 3.167969h-4v-.005859-3.994141h3.869141l-.429688-.429688c-.165407-.165397-.279616-.362768-.351562-.570312h-.087891v.002h-3v-4.0000469h3.806641c.0033-.0004308.0065-.00139.0098-.00195h.183559v.2636719 1.8339841c.322601-.1117233.677002-.1123398 1-.002v-1.8319872-.2636719h.183594c.0033.0005627.0064.00152.0098.00195h2.804688v-1.00195h-.994176-2.003906v-4h-1v4h-2.0039062-1.9960938v-4zm12.001953 4v1h2.998047v-1zm0 5v.873047l.873047-.873047zm-3.875.002.871094.871094v-.871094z" fill="#797774"/><path d="m3 17v1h4v4h-4v1h19v-1h-4v-4h4v-1h-2.875l-.5625.5625c-.143283.143289-.314944.255498-.5.330078-.165444.06668-.357639.109375-.5625.109375s-.397056-.04268-.5625-.109375c-.185094-.07458-.356675-.186723-.5-.330078l-.5625-.5625zm5 1h4v4h-4zm5 0h4v4h-4z" fill="#18ab50" stroke-width=".999999"/><path d="m2 17v5c0 .277002.1122187.526275.2929688.707031.090609.09091.1961828.16416.3164062.214844.1197187.050471.252125.078125.390625.078125h19c.1385 0 .270906-.02765.390625-.07813.120223-.05068.225797-.123938.316406-.214844.18075-.180751.292969-.430024.292969-.707026v-5h-1v5h-19v-5z" fill="#309048"/></g><path d="m6.0849011 3.0442579c0-.033816-.012846-.067622-.038758-.093534-.051824-.051823-.1357617-.051823-.1875854 0l-1.0960566 1.0955402-.0000001-3.64887305c0-.07329-.059002-.1322917-.1322917-.1322917-.07329 0-.1322916.059002-.1322916.1322917l.0000001 3.64887305-1.0960572-1.0955404c-.051824-.051823-.1357619-.051823-.1875853 0-.025913.025911-.038758.059718-.038758.093534s.012846.068141.038758.094051l1.3223997 1.3208501c.012438.012441.027315.022246.043925.028939.015321.00618.032028.00982.049609.00982.017582 0 .034289-.00364.049609-.00982.016611-.00669.031486-.016499.043925-.028939l1.3223997-1.32085c.025911-.025911.038758-.060235.038758-.094051z" fill="#3a3a38"/></g></svg>