<svg viewBox="0 0 24 24" xmlns="http://www.w3.org/2000/svg"><path d="m5 3v18h15v-18z" fill="#fafafa"/><path d="m5 2c-.554 0-1 .446-1 1v18c0 .554.446 1 1 1h15c.554 0 1-.446 1-1v-18c0-.554-.446-1-1-1zm0 1h15v18h-15z" fill="#3a3a38"/><path d="m12.5 8c-.276142 0-.5.223858-.5.5s.223858.5.5.5h1c1.380712 0 2.5 1.119288 2.5 2.5h.005859v.423828 1.359375l-2.152343-2.144531a.50005.50005 0 0 0 -.359375-.152344.50005.50005 0 0 0 -.347657.859375l3.00586 2.994141a.50005.50005 0 0 0 .707031-.001953l2.994141-2.992188a.50005.50005 0 1 0 -.707032-.707031l-2.140625 2.138672v-1.353516-.5c-.0059-2.1546629-1.883369-3.373798-3.505859-3.423828z" fill="#ed3d3b"/><path d="m6.5 5c-.277 0-.5.223-.5.5s.223.5.5.5h11c.277 0 .5-.223.5-.5s-.223-.5-.5-.5zm0 3c-.277 0-.5.223-.5.5s.223.5.5.5h4c.277 0 .5-.223.5-.5s-.223-.5-.5-.5zm0 3c-.277 0-.5.223-.5.5s.223.5.5.5h4c.277 0 .5-.223.5-.5s-.223-.5-.5-.5zm0 4c-.277 0-.5.223-.5.5s.223.5.5.5h11c.277 0 .5-.223.5-.5s-.223-.5-.5-.5zm0 3c-.277 0-.5.223-.5.5s.223.5.5.5h11c.277 0 .5-.223.5-.5s-.223-.5-.5-.5z" fill="#797774"/></svg>