<svg viewBox="0 0 24 24" xmlns="http://www.w3.org/2000/svg" xmlns:xlink="http://www.w3.org/1999/xlink"><linearGradient id="a" gradientTransform="matrix(0 1 -1 0 24 0)" gradientUnits="userSpaceOnUse" x1="21" x2="19" y1="-3.291139" y2="12"><stop offset="0" stop-color="#d7d7d7"/><stop offset=".29999998" stop-color="#f7f7f7"/><stop offset="1" stop-color="#fff"/></linearGradient><path d="m2.5 4c-.277 0-.5.223-.5.5v1 13 1c0 .277.223.5.5.5h1 17 1c.277 0 .5-.223.5-.5v-1-13-1c0-.277-.223-.5-.5-.5h-1-17zm.5 1h18v14h-18z" fill="#3a3a38"/><path d="m21 5h-18v14h18z" fill="url(#a)"/><g fill="#1e8bcd"><rect height="2" ry="1" width="6" x="9" y="10"/><rect height="1" ry=".248318" width="10" x="7" y="14"/></g></svg>