<svg viewBox="0 0 24 24" xmlns="http://www.w3.org/2000/svg"><path d="m10 3c-.554 0-1 .446-1 1v2h1v-2h1v-1zm2 0v1h3v-1zm4 0v1h3v-1zm4 0v1h1v1h1v-1c0-.554-.446-1-1-1zm1 3v2h1v-2zm-18 1c-.554 0-1 .446-1 1v1h1v-1h1v-1zm2 0v1h3v-1zm16 2v2h1v-2zm-19 1v2h1v-2zm19 2v2h1v-2zm-19 1v2h1v-2zm19 2v2h-1v1h1c.554 0 1-.446 1-1v-2zm-19 1v2h1v-2zm14 1v1h3v-1zm-14 2v2c0 .554.446 1 1 1h2v-1h-2v-2zm12 0v2h-2v1h2c.554 0 1-.446 1-1v-2zm-8 2v1h2v-1zm3 0v1h2v-1z" fill="#3a3a38"/><path d="m9 7v1 9c0 .554.446 1 1 1h4 1v-1-9c0-.554-.446-1-1-1h-4zm1 1h4v9h-4z" fill="#0063b1"/><path d="m10 8v9h4v-9z" fill="#fafafa"/></svg>