<svg height="24" viewBox="0 0 6.3499999 6.3500002" width="24" xmlns="http://www.w3.org/2000/svg"><g transform="translate(0 -290.64998)"><g stroke-width=".264583"><path d="m1.3229167 291.44375v4.7625h1.8980753c-.031212-.083-.050126-.17094-.050126-.26458v-.53589a.26874994.26874994 0 0 1 .1023194-.21032c-.046284-.0997-.1023194-.19615-.1023194-.31213v-.53588a.26874994.26874994 0 0 1 .1018026-.21032c-.046835-.10064-.1018026-.19958-.1018026-.31213 0-.32506.2196705-.61281.5177977-.79168.2981272-.17888.6852867-.27079 1.0738364-.27079.088693 0 .1772414.006.2645833.0155v-.34779l-1.0583334-.98649z" fill="#fafafa"/><path d="m1.3229167 291.17917c-.1465792 0-.2645834.118-.2645834.26458v4.7625c0 .14658.1180042.26458.2645834.26458h2.0541381c-.0672128-.07982-.1200658-.16883-.1560628-.26458h-1.8980753v-4.7625h2.3812499v1.05833c0 .14658.1180042.26459.2645834.26459h.72347c.023519-.00068.046731-.004.07028-.004.023905 0 .04746.003.071313.004h.1932703v.0114c.089722.0103.1781757.0253.2645833.045v-.25476-.0553c0-.11925.025939-.11256-.160197-.28216l-.8748818-.85679c-.1877285-.19496-.1878989-.19482-.289388-.19482h-.08785-.175183z" fill="#3a3a38"/><path d="m3.96875 292.50208h1.0583333l-1.0583333-1.05833z" fill="#fff" fill-rule="evenodd"/><path d="m3.96875 291.44375 1.0583333 1.05833h-1.0583333z" fill="#fafafa"/></g><g fill="#f8db8f" transform="matrix(.26458333 0 0 .26458333 0 290.65)"><path d="m13 13.974609v2.025391c0 1.656854 2.238576 3 5 3s5-1.343146 5-3v-2.025391c-1.237023 1.483512-2.784273 2.025391-5 2.025391-2.447645 0-3.681267-.674935-5-2.025391z"/><ellipse cx="18" cy="12" rx="5" ry="3"/><path d="m13 17.974609v2.025391c0 1.656854 2.238576 3 5 3s5-1.343146 5-3v-2.025391c-1.237023 1.483512-3 2.025391-5 2.025391s-3.681267-.674935-5-2.025391z"/></g><g fill="#ed8733" transform="matrix(.26458333 0 0 .26458333 0 290.65)"><path d="m13 13.974609v2.025391c0 1.656854 2.238576 3 5 3s5-1.343146 5-3v-2.025391c-1.237023 1.483512-2.784273 2.025391-5 2.025391-2.447645 0-3.681267-.674935-5-2.025391zm1.003906 1.923829c1.084008.642805 2.305964 1.105468 3.996094 1.105468 1.543442 0 2.835242-.430894 3.996094-1.097656v.09375c0 .376571-.264802.834662-.976563 1.261719-.711761.427056-1.801487.734375-3.019531.734375s-2.30777-.307319-3.019531-.734375c-.711761-.427057-.976563-.885148-.976563-1.261719z"/><path d="m18 9a5 3 0 0 0 -5 3 5 3 0 0 0 5 3 5 3 0 0 0 5-3 5 3 0 0 0 -5-3zm0 1a4 2 0 0 1 4 2 4 2 0 0 1 -4 2 4 2 0 0 1 -4-2 4 2 0 0 1 4-2z"/><path d="m13 17.974609v2.025391c0 1.656854 2.238576 3 5 3s5-1.343146 5-3v-2.025391c-1.237023 1.483512-2.784273 2.025391-5 2.025391-2.447645 0-3.681267-.674935-5-2.025391zm1.003906 1.923829c1.084008.642805 2.305964 1.105468 3.996094 1.105468 1.543442 0 2.835242-.430894 3.996094-1.097656v.09375c0 .376571-.264802.834662-.976563 1.261719-.711761.427056-1.801487.734375-3.019531.734375s-2.30777-.307319-3.019531-.734375c-.711761-.427057-.976563-.885148-.976563-1.261719z"/></g></g></svg>