<svg viewBox="0 0 24 24" xmlns="http://www.w3.org/2000/svg"><path d="m8.1230469 4.9980469-.0019531.0019531h.3789062c.8137028 0 1.5.6862972 1.5 1.5s-.6862972 1.5-1.5 1.5h-.3808594l1.4375 1.4375c.5752824.575284.5752834 1.54581 0 2.121094-.5752838.575284-1.5458099.575284-2.1210937 0l-1.4355469-1.435547v.376953c0 .813703-.6862972 1.5-1.5 1.5s-1.5-.686297-1.5-1.5v4.498047l3.7285156 4h14.2714844v-7.998047h.001953v-6h-6v-.0019531z" fill="#fafafa"/><path d="m9.90625 6c.0578587.1575702.09375.3251095.09375.5s-.0358913.3424298-.09375.5h9.09375v10h-12.5l-1.5-1.5v-2.666016-.927734c-.1575702.057859-.3251095.09375-.5.09375s-.3424298-.035891-.5-.09375v1.09375 3l2 2h14v-12z" fill="#797774"/><path d="m9.1230469 3.9980469-1 1 12.8789061.0019531-.001953 13.998047h-13v-4c0-.554-.446-1-1-1h-4v-3.498047-.378906l-1 1v2.876953.662109.330078c0 .383581-.0005299.386179.7363281 1.095704l3.2363281 3.30664c.640994.703509.6176804.605469 1.0683594.605469h.2070313 13.7519531c.554 0 1-.446 1-1l.001953-13.998047c0-.554-.223-1-.5-1-4.126793 0-8.252761-.0013792-12.3789061-.0019531z" fill="#3a3a38"/><path d="m6.9995699 14.99762v4l-4-4z" fill="#fafafa" fill-rule="evenodd"/><g transform="translate(1 2)"><path d="m3.5 0c-.277 0-.5.223-.5.5v1.5507812a2.5 2.5 0 0 0 -.8789062.3652344l-2.26562505-2.26562498c-.19586858-.19586857-.51116267-.19586857-.70703125 0-.1958686.19586858-.1958686.51116268 0 .70703126l2.265625 2.26562502a2.5 2.5 0 0 0 -.359375.8769531h-1.5546875c-.277 0-.5.223-.5.5s.223.5.5.5h1.5507812a2.5 2.5 0 0 0 .3652344.8769531l-2.2675781 2.2675781c-.1958685.1958687-.1958685.5111627 0 .7070313.19586857.1958685.51116267.1958685.70703125 0l2.26757815-2.2675781a2.5 2.5 0 0 0 .8769531.3613281v1.5546875c0 .277.223.5.5.5s.5-.223.5-.5v-1.5507812a2.5 2.5 0 0 0 .875-.3652344l2.2675781 2.2675781c.1958686.1958686.5111627.1958686.7070313 0s.1958686-.5111626 0-.7070313l-2.265625-2.265625a2.5 2.5 0 0 0 .3613281-.8789062h1.5546875c.277 0 .5-.223.5-.5s-.223-.5-.5-.5h-1.5507812a2.5 2.5 0 0 0 -.3652344-.8769531l2.265625-2.26562502c.1958686-.19586858.1958686-.51116268 0-.70703126-.1958686-.19586857-.5111627-.19586857-.7070313 0l-2.265625 2.26562498a2.5 2.5 0 0 0 -.8769531-.3613281v-1.5546875c0-.277-.223-.5-.5-.5zm0 3a1.5 1.5 0 0 1 1.5 1.5 1.5 1.5 0 0 1 -1.5 1.5 1.5 1.5 0 0 1 -1.5-1.5 1.5 1.5 0 0 1 .4394531-1.0585938 1.5 1.5 0 0 1 .0019531-.0019531 1.5 1.5 0 0 1 1.0585938-.4394531z" fill="#fb983b"/><circle cx="3.5" cy="4.5" fill="#fafafa" r="1.5"/></g></svg>