<svg viewBox="0 0 24 24" xmlns="http://www.w3.org/2000/svg"><g transform="matrix(-1 0 0 1 23.999707 0)"><path d="m10.5 5c-4.6707323 0-8.2223323 3.4164185-8.4921875 7.982422a1.0001 1.0001 0 0 0 -.00195.05273l-.0058625.958989a1.0001 1.0001 0 0 0 1.9941406.105468c.2283259-2.283259 1.0981257-3.747543 2.2636719-4.7011715 1.1655462-.9536287 2.6826637-1.3984375 4.2421875-1.3984375 1.464286 0 2.50762.5816572 3.277344 1.5566406.685091.8677834 1.100315 2.0878434 1.1875 3.4433594h-1.964844a1.0001 1.0001 0 0 0 -.707031 1.707031l4 4a1.0001 1.0001 0 0 0 1.414062 0l4-4a1.0001 1.0001 0 0 0 -.707031-1.707031h-2.023438c-.245239-4.5550252-3.797344-8-8.476562-8z" fill="#3a3a38"/><path d="m10.5 6c-4.2046385 0-7.2517449 2.9396336-7.4941406 7.041016l-.0058594.958984c.5-5 4-7 7.5-7s5.5 3 5.5 6.5v.5h-3l4 4 4-4h-3v-.5c0-4.3183911-3.135892-7.5-7.5-7.5z" fill="#fafafa"/></g><circle cx="9.5" cy="13.5" fill="#83beec" r="0"/></svg>