<svg viewBox="0 0 24 24" xmlns="http://www.w3.org/2000/svg"><path d="m19 8.5019538c0-.1278091-.04854-.255585-.146484-.353515l-6-6.001954c-.04701-.04702-.103236-.08407-.166016-.109375-.0579-.02334-.12105-.03711-.1875-.03711s-.129596.01377-.1875.03711c-.06278.0253-.119003.06236-.166016.109375l-5.9999998 6.001954c-.097944.09793-.146484.2257059-.146484.353515-.000001.1278089.04855.2555859.146484.353516.195868.195867.511162.195869.707032 0l5.1464838-5.1484381v17.7929683c0 .276998.223.5.5.5s.5-.223002.5-.5v-17.7929683l5.146484 5.148438c.19587.195869.511164.195867.707032 0 .09793-.09793.146485-.225707.146484-.3535159z" fill="#1e8bcd"/></svg>