<svg viewBox="0 0 24 24" xmlns="http://www.w3.org/2000/svg" xmlns:xlink="http://www.w3.org/1999/xlink"><linearGradient id="a" gradientUnits="userSpaceOnUse" x1="17.496094" x2="18" y1="20.935547" y2="3"><stop offset="0" stop-color="#f6f6f6"/><stop offset="1" stop-color="#fafafa"/></linearGradient><path d="m17.771484 2.9492188-1.396484.0507812h-.25-5.351562-2.585938-1.1875c-1.0474152 0-2 .8592521-2 1.875v2.375 9.5c-.0000276.276131-.2238691.499972-.5.5-.5207324 0-.8482337.184902-1.0976562.503906-.2494229.319004-.4023438.802696-.4023438 1.371094 0 .552515.1724303 1.029299.4511719 1.355469s.6530957.519531 1.1738281.519531h.25.9375.25.9375.25 2.125 3.226562.171876a1.0001 1.0001 0 0 1 .152343-.726562l.158203-.236329-.28125-.05664a1.0001 1.0001 0 0 1 -.802734-.980469v-1-1a1.0001 1.0001 0 0 1 .802734-.980469l.28125-.05664-.158203-.236329a1.0001 1.0001 0 0 1 .125-1.261718l.707031-.707032.707032-.707031a1.0001 1.0001 0 0 1 1.261718-.125l.236329.158203.05664-.28125a1.0001 1.0001 0 0 1 .980469-.802734h1 .375v-4.75c.000028-.276131.223869-.499972.5-.5.520732 0 1.848234-.1849024 2.097656-.5039062.249423-.3190041.402344-.8026958.402344-1.3710938 0-.552515-.17243-1.0292988-.451172-1.3554688-.278741-.3261699-1.194111-.5703125-1.714844-.5703124h-.25-.9375z" fill="url(#a)"/><path d="m18.78125 1.9785156c-.255116.0014238-.508962.0060276-.755859.0039063h-.47461l-10.550781.0175781c-1.5841076 0-3 1.2592251-3 2.875v2.375 3.560547 5.550781c-.5306291.110971-1.0030754.340448-1.328125.716797-.00242.0028-.0054125.005013-.0078125.007813-.6268096.484107-.6640625 1.051023-.6640625 1.914062 0 1.581925.918113 3.025391 2.5 3.025391h1.1875 1.1875 6.666016l-.490235-.490235a1.0001 1.0001 0 0 1 -.271484-.509765h-.164063c-.0046-.0085-.009101-.016911-.013672-.025391h-.914062-2.3125-2.375-1.1875-1.1875c-.5207324-.000001-.8950865-.193361-1.1738281-.519531s-.4511719-.802954-.4511719-1.355469c0-.568398.1529211-1.05209.4023438-1.371094.1143738-.146281.2479371-.260716.40625-.345703.2139554-.084214.4462462-.132812.6914062-.132812.2761309-.000028.4999724-.223869.5-.5v-.025391-5.75-3.75-2.375c0-1.0157479.9525848-1.875 2-1.875l10.425781.0078125h1.1875c.520732 0 1.656806.2109394 1.935547.5371094.278742.32617.451172.8029537.451172 1.3554687 0 .568398-.152921 1.0520898-.402344 1.3710938-.114373.1462808-.247937.2607164-.40625.3457031-.213955.084214-1.446246.1328125-1.691406.1328125-.276131.0000276-.499972.2238691-.5.5v.0253906 4.7246094h1v-4.3359375c.530629-.1109713 2.003075-.340448 2.328125-.7167969.0029-.00225.004913-.0055525.007813-.0078125 1.018565-4.7595236-.768874-4.9709041-2.554688-4.9609375z" fill="#3a3a38"/><path d="m2 16v1.5 1.5.5c.0004896.46152.1605796.908668.453125 1.265625.3857847.675633 1.0027778 1.159181 1.8261719 1.234375h9.2363281l-.464844-.464844a1.0001 1.0001 0 0 1 -.271484-.509765h-.164063c-.0046-.0085-.009101-.016911-.013672-.025391h-7.2812495-.3203125c-1.1045695 0-2-.895431-2-2v-2h2 7a1.0001 1.0001 0 0 1 .802734-.980469l.097657-.019531h-7.900391-1z" fill="#922e9b"/><path d="m3 17v2c0 1.104569.8954305 2 2 2h7.773438a1.0001 1.0001 0 0 1 .152343-.726562l.158203-.236329-.28125-.05664a1.0001 1.0001 0 0 1 -.802734-.980469v-1-1h-7z" fill="#d492d8"/><path d="m19.753906 2.0546875.246094.0078125c-.67977.1500751-1.207692.5778569-1.546875 1.171875-.292545.3569569-.452635.8041049-.453125 1.265625v.5 1.5 1.5h2 2v-1.5-1.5-.5c-.00049-.4615201-.16058-.9086681-.453125-1.265625-.339183-.5940181-.867105-1.0217999-1.546875-1.171875zm0 1.1816406.246094.0371094c.617107.3562835.998043 1.0139929 1 1.7265625v2h-1-1v-2c.002-.7125696.382893-1.370279 1-1.7265625z" fill="#922e9b"/><path d="m19.753906 3.2363281.246094.0371094c-.617107.3562835-.998 1.0139929-1 1.7265625v2h1 1v-2c-.002-.7125696-.382893-1.370279-1-1.7265625z" fill="#d492d8"/><path d="m17 13-.349609 1.744141-1.478516-.986329-.707031.707032-.707032.707031.986329 1.478516-1.744141.349609v1 1l1.744141.349609-.986329 1.478516.707032.707031.707031.707032 1.478516-.986329.349609 1.744141h1 1l.349609-1.744141 1.478516.986329.707031-.707032.707032-.707031-.986329-1.478516 1.744141-.349609v-1-1l-1.744141-.349609.986329-1.478516-.707032-.707031-.707031-.707032-1.478516.986329-.349609-1.744141h-1zm.800781 1h.398438l.300781 1.5h.535156l.378906.378906 1.273438-.847656.28125.28125-.847656 1.273438.378906.378906v.535156l1.5.300781v.398438l-1.5.300781v.535156l-.378906.378906.847656 1.273438-.28125.28125-1.273438-.847656-.378906.378906h-.535156l-.300781 1.5h-.398438l-.300781-1.5h-.535156l-.378906-.378906-1.273438.847656-.28125-.28125.847656-1.273438-.378906-.378906v-.535156l-1.5-.300781v-.398438l1.5-.300781v-.535156l.378906-.378906-.847656-1.273438.28125-.28125 1.273438.847656.378906-.378906h.535156zm.199219 2a2 2 0 0 0 -2 2 2 2 0 0 0 2 2 2 2 0 0 0 2-2 2 2 0 0 0 -2-2zm0 1a1 1 0 0 1 1 1 1 1 0 0 1 -1 1 1 1 0 0 1 -1-1 1 1 0 0 1 1-1z" fill="#1e8bcd"/><path d="m17.800781 14h.398438l.300781 1.5h.535156l.378906.378906 1.273438-.847656.28125.28125-.847656 1.273438.378906.378906v.535156l1.5.300781v.398438l-1.5.300781v.535156l-.378906.378906.847656 1.273438-.28125.28125-1.273438-.847656-.378906.378906h-.535156l-.300781 1.5h-.398438l-.300781-1.5h-.535156l-.378906-.378906-1.273438.847656-.28125-.28125.847656-1.273438-.378906-.378906v-.535156l-1.5-.300781v-.398438l1.5-.300781v-.535156l.378906-.378906-.847656-1.273438.28125-.28125 1.273438.847656.378906-.378906h.535156zm.199219 2c-1.104569 0-2 .895431-2 2s.895431 2 2 2 2-.895431 2-2-.895431-2-2-2z" fill="#fafafa"/></svg>