<svg viewBox="0 0 24 24" xmlns="http://www.w3.org/2000/svg" xmlns:xlink="http://www.w3.org/1999/xlink"><linearGradient id="a" gradientUnits="userSpaceOnUse" x1="18.5" x2="18.5" y1="23" y2="14.5"><stop offset="0" stop-color="#d70015"/><stop offset="1" stop-color="#ff453a"/></linearGradient><path d="m17.771484 2.9492188-1.396484.0507812h-.25-5.351562-2.585938-1.1875c-1.0474152 0-2 .8592521-2 1.875v2.375 9.5c-.0000276.276131-.2238691.499972-.5.5-.5207324 0-.8482337.184902-1.0976562.503906-.2494229.319004-.4023438.802696-.4023438 1.371094 0 .552515.1724303 1.029299.4511719 1.355469s.6530957.519531 1.1738281.519531h.25.9375.25.9375.25 2.125 3.226562 1a5.5 5.5 0 0 1 -.601562-2.5 5.5 5.5 0 0 1 5.375-5.494141v-5.755859c.000028-.276131.223869-.499972.5-.5.520732 0 1.848234-.1849024 2.097656-.5039062.249423-.3190041.402344-.8026958.402344-1.3710938 0-.552515-.17243-1.0292988-.451172-1.3554688-.278741-.3261699-1.194111-.5703125-1.714844-.5703124h-.25-.9375z" fill="#fafafa"/><path d="m18.78125 1.9785156c-.255116.0014238-.508962.0060276-.755859.0039063h-.47461l-10.550781.0175781c-1.5841076 0-3 1.2592251-3 2.875v2.375 3.560547 5.550781c-.5306291.110971-1.0030754.340448-1.328125.716797-.00242.0028-.0054125.005013-.0078125.007813-.6268096.484107-.6640625 1.051023-.6640625 1.914062 0 1.581925.918113 3.025391 2.5 3.025391h1.1875 1.1875 7.410156a5.5 5.5 0 0 1 -.669922-1h-1c-.0046-.0085-.009101-.016911-.013672-.025391h-.914062-2.3125-2.375-1.1875-1.1875c-.5207324-.000001-.8950865-.193361-1.1738281-.519531s-.4511719-.802954-.4511719-1.355469c0-.568398.1529211-1.05209.4023438-1.371094.1143738-.146281.2479371-.260716.40625-.345703.2139554-.084214.4462462-.132812.6914062-.132812.2761309-.000028.4999724-.223869.5-.5v-.025391-5.75-3.75-2.375c0-1.0157479.9525848-1.875 2-1.875l10.425781.0078125h1.1875c.520732 0 1.656806.2109394 1.935547.5371094.278742.32617.451172.8029537.451172 1.3554687 0 .568398-.152921 1.0520898-.402344 1.3710938-.114373.1462808-.247937.2607164-.40625.3457031-.213955.084214-1.446246.1328125-1.691406.1328125-.276131.0000276-.499972.2238691-.5.5v.0253906 5.7246094.025391a5.5 5.5 0 0 1 .5-.025391 5.5 5.5 0 0 1 .5.025391v-5.3613285c.530629-.1109713 2.003075-.340448 2.328125-.7167969.0029-.00225.004913-.0055525.007813-.0078125 1.018565-4.7595236-.768874-4.9709041-2.554688-4.9609375zm.15625 17.7343754c-.011563.05435-.03211.105105-.046875.158203.014771-.05337.035327-.103588.046875-.158203zm-.166016.515625c-.02995.068953-.068221.133198-.103515.199218.035327-.066376.073559-.129911.103515-.199218zm-.253906.457031c-.049858.073406-.105749.142412-.162109.210937.056456-.068973.112195-.137064.162109-.210937zm-.333984.40625c-.067053.068294-.137535.133528-.210938.195312.073578-.062256.143759-.126496.210938-.195312zm-.398438.339844c-.082488.059179-.165664.116971-.253906.167968.088384-.051364.171315-.108356.253906-.167968zm-.439453.263671c-.103889.051068-.208777.10124-.318359.140626.110068-.039721.214055-.089051.318359-.140626zm-.435547.175782c-.134429.0424-.269737.081738-.410156.105468.140671-.023773.275524-.062833.410156-.105468z" fill="#3a3a38"/><path d="m2 16v1.5 1.5.5c.0004896.46152.1605796.908668.453125 1.265625.3857847.675633 1.0027778 1.159181 1.8261719 1.234375h9.9843751a5.5 5.5 0 0 1 -.648438-.974609h-1c-.0046-.0085-.009101-.016911-.013672-.025391h-7.2812495-.3203125c-1.1045695 0-2-.895431-2-2v-2h2 8.210938a5.5 5.5 0 0 1 .390624-1h-8.601562-1z" fill="#922e9b"/><path d="m3 17v2c0 1.104569.8954305 2 2 2h8.601562a5.5 5.5 0 0 1 -.601562-2.5 5.5 5.5 0 0 1 .210938-1.5h-8.210938z" fill="#d492d8"/><path d="m19.753906 2.0546875.246094.0078125c-.67977.1500751-1.207692.5778569-1.546875 1.171875-.292545.3569569-.452635.8041049-.453125 1.265625v.5 1.5 1.5h2 2v-1.5-1.5-.5c-.00049-.4615201-.16058-.9086681-.453125-1.265625-.339183-.5940181-.867105-1.0217999-1.546875-1.171875zm0 1.1816406.246094.0371094c.617107.3562835.998043 1.0139929 1 1.7265625v2h-1-1v-2c.002-.7125696.382893-1.370279 1-1.7265625z" fill="#922e9b"/><path d="m19.753906 3.2363281.246094.0371094c-.617107.3562835-.998 1.0139929-1 1.7265625v2h1 1v-2c-.002-.7125696-.382893-1.370279-1-1.7265625z" fill="#d492d8"/><path d="m18.5 14a4.5 4.5 0 0 0 -4.5 4.5 4.5 4.5 0 0 0 4.5 4.5 4.5 4.5 0 0 0 4.5-4.5 4.5 4.5 0 0 0 -4.5-4.5zm0 1a3.5 3.5 0 0 1 3.5 3.5 3.5 3.5 0 0 1 -3.5 3.5 3.5 3.5 0 0 1 -3.5-3.5 3.5 3.5 0 0 1 3.5-3.5z" fill="url(#a)"/><path d="m22 18.5a3.5 3.5 0 0 1 -3.5 3.5 3.5 3.5 0 0 1 -3.5-3.5 3.5 3.5 0 0 1 3.5-3.5 3.5 3.5 0 0 1 3.5 3.5z" fill="#fafafa"/><path d="m21 18.5a2.5 2.5 0 0 1 -2.5 2.5 2.5 2.5 0 0 1 -2.5-2.5 2.5 2.5 0 0 1 2.5-2.5 2.5 2.5 0 0 1 2.5 2.5z" fill="url(#a)"/></svg>