<svg viewBox="0 0 24 24" xmlns="http://www.w3.org/2000/svg"><path d="m3 2c-.554 0-1 .446-1 1v16c0 .554.446 1 1 1h2v-1h-2v-16h12v5h1v-5c0-.554-.446-1-1-1z" fill="#3a3a38"/><path d="m3 3v16h2v-10h1v-1h9v-5z" fill="#fafafa"/><path d="m5 4c-.554 0-1 .446-1 1v16c0 .554.446 1 1 1h12c.554 0 1-.446 1-1v-1h-1v1h-12v-12-4h12v3h1v-3c0-.554-.446-1-1-1z" fill="#3a3a38"/><path d="m8 9c-.554 0-1 .446-1 1v8c0 .554.446 1 1 1h14c.554 0 1-.446 1-1v-8c0-.554-.446-1-1-1zm0 1h14v8h-14z" fill="#3a3a38"/><path d="m5 5v4 12h1 11v-1h-11v-11-1h11v-3z" fill="#fafafa"/><path d="m8 10h14v8h-14z" fill="#fafafa"/><g fill="#1e8bcd"><path d="m18 11h3v3h-3z" fill="#0063b1"/><path d="m9 14h7v1h-7z"/><path d="m10 16h5v1h-5z"/></g><path d="m19 12h1v1h-1z" fill="#83beec"/></svg>