<svg viewBox="0 0 24 24" xmlns="http://www.w3.org/2000/svg"><path d="m3 3v16h1v-14c0-.554.446-1 1-1h10v-1zm2 2v16h6v-6c0-.554.447149-.964332 1-1h1v-1c0-.554.446-1 1-1h3v-7z" fill="#fafafa"/><path d="m3 2c-.554 0-1 .446-1 1v16c0 .554.446 1 1 1h1v1c0 .554.446 1 1 1h6v-1h-6v-1-1-10-4h12v7h1v-7c0-.554-.446-1-1-1h-1v-1c0-.554-.446-1-1-1zm0 1h12v1h-10c-.554 0-1 .446-1 1v14h-1z" fill="#3a3a38"/><path d="m15 14v2h5v-2z" fill="#fafafa"/><path d="m14 13v3h1v-2h5v2h1v-3h-1-5zm-1 3c-.554 0-1 .446-1 1v4c0 .554.446 1 1 1h1v2h1 5 1v-2h1c.554 0 1-.446 1-1v-4c0-.554-.446-1-1-1v3h-9zm2 6h5v1h-5z" fill="#3a3a38"/><path d="m14 16h7v2h-7z" fill="#1e8bcd"/><path d="m15 22v1h5v-1z" fill="#fafafa" stroke-width=".707107"/></svg>