<svg viewBox="0 0 24 24" xmlns="http://www.w3.org/2000/svg"><g opacity=".5" transform="translate(2 -4)"><path d="m5 3v11h5v-7c0-.554.446-1 1-1h1v-3z" fill="#fafafa" transform="translate(-2 4)"/><path d="m3 19h4v2h-4z" fill="#fafafa"/><path d="m8 3v3h-3v1h3v3h-3v1h3v3h1v-3h1v-1h-1v-3h1c0-.554.446-1 1-1h-2v-3z" fill="#797774" transform="translate(-2 4)"/><g fill="#3a3a38"><path d="m5 2c-.554 0-1 .446-1 1v11c0 .554.446 1 1 1l5-.001953v-.998047h-5v-11h7v3h1v-3c0-.554-.446-1-1-1z" transform="translate(-2 4)"/><path d="m2 18v3c0 .554.446 1 1 1h3 .5l1.5-3h-1l-1 2h-3v-3z"/></g></g><g transform="translate(9 1)"><path d="m3 7h7v11h-7z" fill="#fafafa"/><path d="m3 19h4v2h-4z" fill="#fafafa"/><path d="m6 7v3h-3v1h3v3h-3v1h3v3h1v-3h3v-1h-3v-3h3v-1h-3v-3z" fill="#797774"/><g fill="#3a3a38"><path d="m3 6c-.554 0-1 .446-1 1v11c0 .554.446 1 1 1l7.011719-.002c.548255-.006532.988281-.448128.988281-.998v-11c0-.554-.446-1-1-1zm0 1h7v11h-7z"/><path d="m2 18v3c0 .554.446 1 1 1h3 .5l1.5-3h-1l-1 2h-3v-3z"/></g></g></svg>