<svg viewBox="0 0 24 24" xmlns="http://www.w3.org/2000/svg"><path d="m3 7v13h18v-10.3515625c-.042771.3400642-.205804.6837135-.455078.9218745l-2.945313 2.941407.085938-.097657c-.288385.375314-.739631.593338-1.212891.585938-.467121-.007347-.90625-.233432-1.183594-.609375l.097657.113281-2.947266-2.951172a1.0001 1.0001 0 0 0 -.001953 0c-.294369-.295185-.467489-.7418516-.443359-1.1425778.024126-.4007258.201293-.7351707.447265-.9804687s.579672-.4222905.980469-.4453125c.400797-.0230221.846256.15208 1.140625.4472656l.439453.4394532.001953-1.8710938zm15.003906 0-.001953 1.8710938.427735-.4277344c.292961-.3033115.743762-.4867357 1.15039-.4648438.406629.0218919.745124.2007827.992188.4492188.224676.2259251.384642.5301278.427734.8886718v-2.3164062z" fill="#fafafa"/><path d="m3 3c-.554 0-1 .446-1 1v16c0 .554.446 1 1 1h18c.554 0 1-.446 1-1v-16c0-.554-.446-1-1-1zm13.505859.9921875c.014947 0 .029927.0073997.044922.0078125h4.449219v.296875 2.703125 2.3164062c.004294.0357252.013845.0686141.015625.1054688.003583.0741837-.006084.1507034-.015625.2265625v10.3515625h-18v-13-2.703125-.296875h13.460938c.014995-.0004128.029975-.0078125.044921-.0078125z" fill="#3a3a38"/><path d="m2 3v5h11.322266c.03374-.00426.06484-.013628.09961-.015625.08041-.00462.163665.00492.246094.015625h1.335937v-1h-12.003907v-3h13.460938c.015-.0004128.02998-.00781.04492-.00781.01495 0 .02993.0074.04492.00781h4.449222v3h-2.996094v1h1.265625c.104022-.018857.20889-.026957.310547-.021484.04845.00261.0922.014567.138672.021484h2.28125v-5z" fill="#3a3a38"/><path d="m16.488166 12.999939a.50004318.50005 0 0 1 -.394526-.203125l-2.947226-2.9511706a.50063114.50063797 0 1 1 .708975-.707032l2.142549 2.1464846.0078-5.7851566a.50004318.50005 0 1 1 .999987 0l-.0078 5.7851566 2.15036-2.1464846a.50004318.50005 0 1 1 .705069.708985l-2.960897 2.9570306a.50004318.50005 0 0 1 -.404291.195312z" fill="#1e8bcd" fill-rule="evenodd"/><path d="m3 4v3h12.003906l.001953-1.4863281c-.005923-.4201543.182813-.8676682.484375-1.1386719.288665-.2594124.635102-.3657616.970704-.375zm13.550781 0c.335602.0092384.68204.1155876.970703.375.301563.2710037.490304.7185176.484375 1.1386719l-.001953 1.4863281h2.996094v-3z" fill="#797774"/></svg>