<svg viewBox="0 0 24 24" xmlns="http://www.w3.org/2000/svg"><path d="m1 6v12h2.9746094c0-.353805.1038674-.686125.25-1h-1.2246094c0-.554-.446-1-1-1v-8c.554 0 1-.446 1-1h18c0 .554.446 1 1 1v3.371094c.241953.102267.475086.218416.689453.361328.111534.074356.208251.168232.310547.255859v-4.988281-1h-1zm11 3a3 3 0 0 0 -3 3 3 3 0 0 0 2.267578 2.90625c.24026-.468168.601441-.879476 1.042969-1.173828.716499-.477666 1.612854-.718305 2.519531-.746094a3 3 0 0 0 .169922-.986328 3 3 0 0 0 -3-3zm8 3a3 2 0 0 0 -3 2v.511719a3 2 0 0 0 -2-.511719 3 2 0 0 0 -3 2v2 2a3 2 0 0 0 3 2 3 2 0 0 0 2.5-.896484 3 2 0 0 0 2.5.896484 3 2 0 0 0 3-2v-2-2-2a3 2 0 0 0 -3-2zm0 1a2 1 0 0 1 .199219.005859 2 1 0 0 1 .179687.011719 2 1 0 0 1 .111328.013672 2 1 0 0 1 .058594.007812 2 1 0 0 1 .169922.027344 2 1 0 0 1 .005859.001953 2 1 0 0 1 .001953 0 2 1 0 0 1 .160157.03711 2 1 0 0 1 .035156.007812 2 1 0 0 1 .101563.029297 2 1 0 0 1 .074218.021484 2 1 0 0 1 .117188.042969 2 1 0 0 1 .037109.013672 2 1 0 0 1 .140625.0625 2 1 0 0 1 .101563.054688 2 1 0 0 1 .058593.033203 2 1 0 0 1 .064454.042968 2 1 0 0 1 .039062.025391 2 1 0 0 1 .080078.066406 2 1 0 0 1 .027344.023438 2 1 0 0 1 .060547.064453 2 1 0 0 1 .023437.025391 2 1 0 0 1 .050782.070312 2 1 0 0 1 .015624.021485 2 1 0 0 1 .029297.054687 2 1 0 0 1 .023438.056641 2 1 0 0 1 .007812.027343 2 1 0 0 1 .017579.072266 2 1 0 0 1 .007812.078125 2 1 0 0 1 -.005859.070312 2 1 0 0 1 -.001953.007813 2 1 0 0 1 -.013672.058594 2 1 0 0 1 -.017578.052734 2 1 0 0 1 -.001954.009766 2 1 0 0 1 -.007812.017578 2 1 0 0 1 -.039063.072265 2 1 0 0 1 -.001953.00586 2 1 0 0 1 -.007812.011719 2 1 0 0 1 -.0625.082031 2 1 0 0 1 -.011719.013672 2 1 0 0 1 -.007813.009765 2 1 0 0 1 -1.820312.587891 2 1 0 0 1 -1.818359-.587891 2 1 0 0 1 -.074219-.09375 2 1 0 0 1 -.054688-.095703 2 1 0 0 1 -.035156-.097656 2 1 0 0 1 -.011719-.068359 2 1 0 0 1 -.005859-.056641 2 1 0 0 1 .007812-.078125 2 1 0 0 1 .017579-.072266 2 1 0 0 1 .007812-.027343 2 1 0 0 1 .023438-.056641 2 1 0 0 1 .029297-.054687 2 1 0 0 1 .015624-.021485 2 1 0 0 1 .050782-.070312 2 1 0 0 1 .023437-.025391 2 1 0 0 1 .060547-.064453 2 1 0 0 1 .027344-.023438 2 1 0 0 1 .080078-.066406 2 1 0 0 1 .039062-.025391 2 1 0 0 1 .064454-.042968 2 1 0 0 1 .058593-.033203 2 1 0 0 1 .101563-.054688 2 1 0 0 1 .140625-.0625 2 1 0 0 1 .037109-.013672 2 1 0 0 1 .117188-.042969 2 1 0 0 1 .074218-.021484 2 1 0 0 1 .101563-.029297 2 1 0 0 1 .035156-.007812 2 1 0 0 1 .160157-.03711 2 1 0 0 1 .001953 0 2 1 0 0 1 .005859-.001953 2 1 0 0 1 .169922-.027344 2 1 0 0 1 .058594-.007812 2 1 0 0 1 .111328-.013672 2 1 0 0 1 .179687-.011719 2 1 0 0 1 .199219-.005859zm-5 2a2 1 0 0 1 .199219.005859 2 1 0 0 1 .179687.011719 2 1 0 0 1 .111328.013672 2 1 0 0 1 .058594.007812 2 1 0 0 1 .169922.027344 2 1 0 0 1 .005859.001953 2 1 0 0 1 .001953 0 2 1 0 0 1 .160157.03711 2 1 0 0 1 .035156.007812 2 1 0 0 1 .101563.029297 2 1 0 0 1 .074218.021484 2 1 0 0 1 .117188.042969 2 1 0 0 1 .037109.013672 2 1 0 0 1 .140625.0625 2 1 0 0 1 .101563.054688 2 1 0 0 1 .058593.033203 2 1 0 0 1 .064454.042968 2 1 0 0 1 .039062.025391 2 1 0 0 1 .080078.066406 2 1 0 0 1 .027344.023438 2 1 0 0 1 .060547.064453 2 1 0 0 1 .023437.025391 2 1 0 0 1 .050782.070312 2 1 0 0 1 .015624.021485 2 1 0 0 1 .029297.054687 2 1 0 0 1 .023438.056641 2 1 0 0 1 .007812.027343 2 1 0 0 1 .017579.072266 2 1 0 0 1 .007812.078125 2 1 0 0 1 -.005859.070312 2 1 0 0 1 -.001953.007813 2 1 0 0 1 -.013672.058594 2 1 0 0 1 -.017578.052734 2 1 0 0 1 -.001954.009766 2 1 0 0 1 -.007812.017578 2 1 0 0 1 -.039063.072265 2 1 0 0 1 -.001953.00586 2 1 0 0 1 -.007812.011719 2 1 0 0 1 -.0625.082031 2 1 0 0 1 -.011719.013672 2 1 0 0 1 -.007813.009765 2 1 0 0 1 -1.820312.587891 2 1 0 0 1 -1.818359-.587891 2 1 0 0 1 -.074219-.09375 2 1 0 0 1 -.054688-.095703 2 1 0 0 1 -.035156-.097656 2 1 0 0 1 -.011719-.068359 2 1 0 0 1 -.005859-.056641 2 1 0 0 1 .007812-.078125 2 1 0 0 1 .017579-.072266 2 1 0 0 1 .007812-.027343 2 1 0 0 1 .023438-.056641 2 1 0 0 1 .029297-.054687 2 1 0 0 1 .015624-.021485 2 1 0 0 1 .050782-.070312 2 1 0 0 1 .023437-.025391 2 1 0 0 1 .060547-.064453 2 1 0 0 1 .027344-.023438 2 1 0 0 1 .080078-.066406 2 1 0 0 1 .039062-.025391 2 1 0 0 1 .064454-.042968 2 1 0 0 1 .058593-.033203 2 1 0 0 1 .101563-.054688 2 1 0 0 1 .140625-.0625 2 1 0 0 1 .037109-.013672 2 1 0 0 1 .117188-.042969 2 1 0 0 1 .074218-.021484 2 1 0 0 1 .101563-.029297 2 1 0 0 1 .035156-.007812 2 1 0 0 1 .160157-.03711 2 1 0 0 1 .001953 0 2 1 0 0 1 .005859-.001953 2 1 0 0 1 .169922-.027344 2 1 0 0 1 .058594-.007812 2 1 0 0 1 .111328-.013672 2 1 0 0 1 .179687-.011719 2 1 0 0 1 .199219-.005859zm3 .488281a3 2 0 0 0 .181641.097657 3 2 0 0 0 .021484.009765 3 2 0 0 0 .207031.095703 3 2 0 0 0 .039063.015625 3 2 0 0 0 .220703.082031 3 2 0 0 0 .042969.013672 3 2 0 0 0 .242187.06836 3 2 0 0 0 .025391.007812 3 2 0 0 0 .224609.046875 3 2 0 0 0 .123047.019531 3 2 0 0 0 .136719.019532 3 2 0 0 0 .15039.015625 3 2 0 0 0 .191407.013672 3 2 0 0 0 .193359.005859 3 2 0 0 0 .140625-.003906 3 2 0 0 0 .216797-.011719 3 2 0 0 0 .148437-.015625 3 2 0 0 0 .111329-.013672 3 2 0 0 0 .234374-.041016 3 2 0 0 0 .035157-.005859 3 2 0 0 0 .015625-.003906 3 2 0 0 0 .205078-.048828 3 2 0 0 0 .085937-.023438 3 2 0 0 0 .226563-.074219 3 2 0 0 0 .017578-.005859 3 2 0 0 0 .005859-.001953 3 2 0 0 0 .248047-.103516 3 2 0 0 0 .126953-.060546 3 2 0 0 0 .181641-.097657v.484375.027344.488281a3 2 0 0 1 -2 .511719 3 2 0 0 1 -2-.511719v-.46289a2 1 0 0 1 0-.025391zm-10 .511719a3 2 0 0 0 -3 2v2a3 2 0 0 0 3 2 3 2 0 0 0 3-2v-2a3 2 0 0 0 -3-2zm0 1a2 1 0 0 1 .1992188.005859 2 1 0 0 1 .1796874.011719 2 1 0 0 1 .1113282.013672 2 1 0 0 1 .0585937.007812 2 1 0 0 1 .1699219.027344 2 1 0 0 1 .0058594.001953 2 1 0 0 1 .0019531 0 2 1 0 0 1 .1601563.03711 2 1 0 0 1 .0351562.007812 2 1 0 0 1 .1015625.029297 2 1 0 0 1 .0742187.021484 2 1 0 0 1 .1171876.042969 2 1 0 0 1 .0371093.013672 2 1 0 0 1 .140625.0625 2 1 0 0 1 .1015625.054688 2 1 0 0 1 .0585938.033203 2 1 0 0 1 .0644531.042968 2 1 0 0 1 .0390625.025391 2 1 0 0 1 .0800781.066406 2 1 0 0 1 .0273438.023438 2 1 0 0 1 .0605469.064453 2 1 0 0 1 .0234374.025391 2 1 0 0 1 .0507813.070312 2 1 0 0 1 .015625.021485 2 1 0 0 1 .0292969.054687 2 1 0 0 1 .0234375.056641 2 1 0 0 1 .0078125.027343 2 1 0 0 1 .0175781.072266 2 1 0 0 1 .0078125.078125 2 1 0 0 1 -.0078125.078125 2 1 0 0 1 -.0175781.072266 2 1 0 0 1 -.0078125.027343 2 1 0 0 1 -.0234375.056641 2 1 0 0 1 -.0292969.054687 2 1 0 0 1 -.015625.021485 2 1 0 0 1 -.0507813.070312 2 1 0 0 1 -.0234374.025391 2 1 0 0 1 -.0605469.064453 2 1 0 0 1 -.0273438.023438 2 1 0 0 1 -.0800781.066406 2 1 0 0 1 -.0390625.025391 2 1 0 0 1 -.0644531.042968 2 1 0 0 1 -.0585938.033203 2 1 0 0 1 -.1015625.054688 2 1 0 0 1 -.140625.0625 2 1 0 0 1 -.0371093.013672 2 1 0 0 1 -.1171876.042969 2 1 0 0 1 -.0742187.021484 2 1 0 0 1 -.1015625.029297 2 1 0 0 1 -.0351562.007812 2 1 0 0 1 -.1601563.03711 2 1 0 0 1 -.0019531 0 2 1 0 0 1 -.0058594.001953 2 1 0 0 1 -.1699219.027344 2 1 0 0 1 -.0585937.007812 2 1 0 0 1 -.1113282.013672 2 1 0 0 1 -.1796874.011719 2 1 0 0 1 -.1992188.005859 2 1 0 0 1 -.1992188-.005859 2 1 0 0 1 -.1796874-.011719 2 1 0 0 1 -.1113282-.013672 2 1 0 0 1 -.0585937-.007812 2 1 0 0 1 -.1699219-.027344 2 1 0 0 1 -.0058594-.001953 2 1 0 0 1 -.0019531 0 2 1 0 0 1 -.1601563-.03711 2 1 0 0 1 -.0351562-.007812 2 1 0 0 1 -.1015625-.029297 2 1 0 0 1 -.0742187-.021484 2 1 0 0 1 -.1171876-.042969 2 1 0 0 1 -.0371093-.013672 2 1 0 0 1 -.140625-.0625 2 1 0 0 1 -.1015625-.054688 2 1 0 0 1 -.0585938-.033203 2 1 0 0 1 -.0644531-.042968 2 1 0 0 1 -.0390625-.025391 2 1 0 0 1 -.0800781-.066406 2 1 0 0 1 -.0273438-.023438 2 1 0 0 1 -.0605469-.064453 2 1 0 0 1 -.0234374-.025391 2 1 0 0 1 -.0507813-.070312 2 1 0 0 1 -.015625-.021485 2 1 0 0 1 -.0292969-.054687 2 1 0 0 1 -.0234375-.056641 2 1 0 0 1 -.0078125-.027343 2 1 0 0 1 -.0175781-.072266 2 1 0 0 1 -.0078125-.078125 2 1 0 0 1 .0078125-.078125 2 1 0 0 1 .0175781-.072266 2 1 0 0 1 .0078125-.027343 2 1 0 0 1 .0234375-.056641 2 1 0 0 1 .0292969-.054687 2 1 0 0 1 .015625-.021485 2 1 0 0 1 .0507813-.070312 2 1 0 0 1 .0234374-.025391 2 1 0 0 1 .0605469-.064453 2 1 0 0 1 .0273438-.023438 2 1 0 0 1 .0800781-.066406 2 1 0 0 1 .0390625-.025391 2 1 0 0 1 .0644531-.042968 2 1 0 0 1 .0585938-.033203 2 1 0 0 1 .1015625-.054688 2 1 0 0 1 .140625-.0625 2 1 0 0 1 .0371093-.013672 2 1 0 0 1 .1171876-.042969 2 1 0 0 1 .0742187-.021484 2 1 0 0 1 .1015625-.029297 2 1 0 0 1 .0351562-.007812 2 1 0 0 1 .1601563-.03711 2 1 0 0 1 .0019531 0 2 1 0 0 1 .0058594-.001953 2 1 0 0 1 .1699219-.027344 2 1 0 0 1 .0585937-.007812 2 1 0 0 1 .1113282-.013672 2 1 0 0 1 .1796874-.011719 2 1 0 0 1 .1992188-.005859zm5 .488281a3 2 0 0 0 .181641.097657 3 2 0 0 0 .021484.009765 3 2 0 0 0 .207031.095703 3 2 0 0 0 .039063.015625 3 2 0 0 0 .220703.082031 3 2 0 0 0 .042969.013672 3 2 0 0 0 .242187.06836 3 2 0 0 0 .025391.007812 3 2 0 0 0 .224609.046875 3 2 0 0 0 .123047.019531 3 2 0 0 0 .136719.019532 3 2 0 0 0 .15039.015625 3 2 0 0 0 .191407.013672 3 2 0 0 0 .193359.005859 3 2 0 0 0 .140625-.003906 3 2 0 0 0 .216797-.011719 3 2 0 0 0 .148437-.015625 3 2 0 0 0 .111329-.013672 3 2 0 0 0 .234374-.041016 3 2 0 0 0 .035157-.005859 3 2 0 0 0 .015625-.003906 3 2 0 0 0 .205078-.048828 3 2 0 0 0 .085937-.023438 3 2 0 0 0 .226563-.074219 3 2 0 0 0 .017578-.005859 3 2 0 0 0 .005859-.001953 3 2 0 0 0 .248047-.103516 3 2 0 0 0 .126953-.060546 3 2 0 0 0 .181641-.097657v.484375.027344.488281a3 2 0 0 1 -1.462891.476563 2 1 0 0 1 -.177734.019531 3 2 0 0 1 -.009766 0 3 2 0 0 1 -.205078.011719 3 2 0 0 1 -.144531.003906 2 1 0 0 1 -.089844-.001953 3 2 0 0 1 -.029297-.001953 2 1 0 0 1 -.097656-.003906 2 1 0 0 1 -.119141-.007813 3 2 0 0 1 -.046874-.001953 2 1 0 0 1 -.00586 0 3 2 0 0 1 -.029297-.003906 3 2 0 0 1 -1.582031-.490235v-.488281zm5 0c.130064.07784.27149.146087.417969.207031.011389.004739.021726.010992.033203.015626.139032.056131.285315.102298.435547.142578a3 2 0 0 0 .072265.019531c.149855.03718.303565.067038.460938.087891a3 2 0 0 0 .078125.007812c.165037.018852.332498.031097.501953.03125.175367-.000159.348958-.011081.519531-.03125a3 2 0 0 0 .027344-.001953c.003994-.000498.007728-.001445.011719-.001953.164343-.020927.324216-.053107.480468-.091797a3 2 0 0 0 .050782-.011719c.150139-.039244.294395-.087568.433594-.142578a3 2 0 0 0 .072265-.029297c.141363-.059538.278375-.12581.404297-.201172v.486328.025391.488281c-.364909.218389-.805012.36454-1.273438.44336-.080749.013587-.159753.029978-.242187.039062a2 1 0 0 1 -.125.013672 3 2 0 0 1 -.269531.013672 2 1 0 0 1 -.089844.001953 2 1 0 0 1 -.216797-.007812 2 1 0 0 1 -.166015-.009766 2 1 0 0 1 -.035157-.003906 2 1 0 0 1 -.054687-.007813c-.111219-.011959-.218111-.032616-.326172-.052734-.440849-.082077-.855225-.222647-1.201172-.429688v-.488281zm-12 2a3 2 0 0 0 .1464844.078125 3 2 0 0 0 .125.064453 3 2 0 0 0 .1152344.050782 3 2 0 0 0 .140625.058593 3 2 0 0 0 .1523437.052735 3 2 0 0 0 .09375.029297 3 2 0 0 0 .1992187.052734 3 2 0 0 0 .0839844.021484 3 2 0 0 0 .1523438.029297 3 2 0 0 0 .1699218.029297 3 2 0 0 0 .1152344.013672 3 2 0 0 0 .1484375.015625 3 2 0 0 0 .2167969.011719 3 2 0 0 0 .0507812.001953 3 2 0 0 0 .0898438.001953 3 2 0 0 0 .0898438-.001953 3 2 0 0 0 .0507812-.001953 3 2 0 0 0 .2167969-.011719 3 2 0 0 0 .1484375-.015625 3 2 0 0 0 .1152344-.013672 3 2 0 0 0 .1699218-.029297 3 2 0 0 0 .1523438-.029297 3 2 0 0 0 .0839844-.021484 3 2 0 0 0 .1992187-.052734 3 2 0 0 0 .09375-.029297 3 2 0 0 0 .1523437-.052735 3 2 0 0 0 .140625-.058593 3 2 0 0 0 .1152344-.050782 3 2 0 0 0 .125-.064453 3 2 0 0 0 .1464844-.078125v1a3 2 0 0 1 -.1464844.078125 3 2 0 0 1 -.125.064453 3 2 0 0 1 -.1152344.050782 3 2 0 0 1 -.140625.058593 3 2 0 0 1 -.1523437.052735 3 2 0 0 1 -.09375.029297 3 2 0 0 1 -.1992187.052734 3 2 0 0 1 -.0839844.021484 3 2 0 0 1 -.1523438.029297 3 2 0 0 1 -.1699218.029297 3 2 0 0 1 -.1152344.013672 3 2 0 0 1 -.1484375.015625 3 2 0 0 1 -.2167969.011719 3 2 0 0 1 -.140625.003906 3 2 0 0 1 -.0898438-.001953 3 2 0 0 1 -.0507812-.001953 3 2 0 0 1 -.2167969-.011719 3 2 0 0 1 -.1484375-.015625 3 2 0 0 1 -.1152344-.013672 3 2 0 0 1 -.1699218-.029297 3 2 0 0 1 -.1523438-.029297 3 2 0 0 1 -.0839844-.021484 3 2 0 0 1 -.1992187-.052734 3 2 0 0 1 -.09375-.029297 3 2 0 0 1 -.1523437-.052735 3 2 0 0 1 -.140625-.058593 3 2 0 0 1 -.1152344-.050782 3 2 0 0 1 -.125-.064453 3 2 0 0 1 -.1464844-.078125zm7 0a3 2 0 0 0 .007812.003907c.129185.076806.26882.144865.414063.205078.010027.004156.019202.009596.029297.013672.139032.056131.285315.102298.435547.142578a3 2 0 0 0 .072265.019531c.149855.03718.303565.067038.460938.087891a3 2 0 0 0 .078125.007812c.165037.018852.332498.031097.501953.03125.175367-.000159.348958-.011081.519531-.03125a3 2 0 0 0 .027344-.001953c.003994-.000498.007728-.001445.011719-.001953.164343-.020927.324215-.053107.480468-.091797a3 2 0 0 0 .050782-.011719c.152782-.039934.299982-.088278.441406-.144531a3 2 0 0 0 .050781-.021485c.142914-.05946.280873-.125616.408203-.201171a3 2 0 0 0 .009766-.00586v.511719.488281a3 2 0 0 1 -.416016.205078c-.009046.003772-.016289.009967-.02539.013672a3 2 0 0 1 -.011719.003907 3 2 0 0 1 -.431641.142578c-.026647.007158-.053134.012886-.080078.019531a3 2 0 0 1 -.443359.085937c-.033139.004485-.066212.007979-.099609.011719a3 2 0 0 1 -.492188.029297 3 2 0 0 1 -.486328-.029297c-.030673-.003394-.06134-.005744-.091797-.009765a3 2 0 0 1 -.460937-.087891c-.016909-.004187-.03399-.00733-.050782-.011719a3 2 0 0 1 -.433594-.142578c-.02436-.009628-.048292-.0192-.072265-.029297a3 2 0 0 1 -.404297-.201172zm5 0a3 2 0 0 0 .007812.003907c.129184.076806.26882.144865.414063.205078.010027.004156.019202.009596.029297.013672.139032.056131.285315.102298.435547.142578a3 2 0 0 0 .072265.019531c.149855.03718.303565.067038.460938.087891a3 2 0 0 0 .078125.007812c.165037.018852.332498.031097.501953.03125.175367-.000159.348958-.011081.519531-.03125a3 2 0 0 0 .027344-.001953c.003994-.000498.007728-.001445.011719-.001953.164343-.020927.324216-.053107.480468-.091797a3 2 0 0 0 .050782-.011719c.152782-.039934.299982-.088278.441406-.144531a3 2 0 0 0 .050781-.021485c.142914-.05946.280873-.125616.408203-.201171a3 2 0 0 0 .009766-.00586v1a3 2 0 0 1 -.416016.205078c-.009046.003772-.016289.009967-.02539.013672a3 2 0 0 1 -.011719.003907 3 2 0 0 1 -.431641.142578c-.026647.007158-.053134.012886-.080078.019531a3 2 0 0 1 -.443359.085937c-.033139.004485-.066212.007979-.099609.011719a3 2 0 0 1 -.492188.029297 3 2 0 0 1 -.486328-.029297c-.030673-.003394-.06134-.005744-.091797-.009765a3 2 0 0 1 -.460937-.087891c-.016908-.004187-.03399-.00733-.050782-.011719a3 2 0 0 1 -.433594-.142578c-.024361-.009628-.048292-.0192-.072265-.029297a3 2 0 0 1 -.404297-.201172z" fill="#3a3a38"/></svg>