<svg viewBox="0 0 24 24" xmlns="http://www.w3.org/2000/svg"><path d="m5 3v18h14v-12l-6-6z" fill="#fafafa"/><g fill="#3a3a38"><path d="m5 2c-.554 0-1 .446-1 1v18c0 .554.446 1 1 1h14c.554 0 1-.446 1-1v-9h-.002l.002-2.5c-.000025-.1325994-.05272-.2597597-.146484-.3535156l-7-7c-.093756-.0937682-.220916-.146459-.353516-.1464844h-2.5-4.5zm0 1h.4648438 4.5351562 2.292969l6.707031 6.7070312-.0078 7.5976568c-.000728.03338.0019.06675.0078.09961v3.595702h-14z"/><path d="m15.411494 2.0075719c-.416024.1332524-.556031.766565-.235307 1.0643933l3.764927 3.7845094c.347817.331511 1.040564.047817 1.058886-.4336417v-3.7845094c-.000038-.3302491-.298947-.6307139-.627488-.6307516h-3.764929c-.06489-.010096-.131258-.010096-.196089 0z"/></g><path d="m12.03125 8a5.5 5.5 0 0 0 -5.5 5.5 5.5 5.5 0 0 0 5.5 5.5 5.5 5.5 0 0 0 5.5-5.5 5.5 5.5 0 0 0 -5.5-5.5zm.002 1.152344.08984.130859c.395593.573138.685701 1.110167.904297 1.625-.66098.08701-1.337963.09546-1.998047.02149.219378-.521298.512948-1.065347.914062-1.646485zm-1.197265.0098c-.33902.54301-.609898 1.073508-.808641 1.587856-.410909-.103775-.799382-.255576-1.173828-.431641a4.5 4.5 0 0 1 1.982422-1.15625zm2.398437.0059a4.5 4.5 0 0 1 1.949219 1.126953c-.371117.166399-.754758.312263-1.160156.417969-.196337-.500938-.459886-1.016828-.789063-1.544922zm2.597656 1.923828a4.5 4.5 0 0 1 .665969 1.908128h-1.978516c-.01879-.430546-.08006-.872911-.191406-1.326172.525818-.144098 1.025061-.345735 1.503906-.582031zm-7.613281.02539c.481599.248881.983626.457377 1.509766.597656-.105107.438776-.163463.867582-.181688 1.285082h-1.984375a4.5 4.5 0 0 1 .65625-1.882812zm5.138672.761718c.09688.386241.141368.75759.158156 1.12102h-2.964844c.01639-.354839.05975-.717178.152344-1.09375.878831.124104 1.778028.11178 2.654297-.02734zm-5.793016 2.12102h2.011719c.04698.437909.138331.859149.253906 1.271484-.560836.141718-1.093792.361014-1.605469.625a4.5 4.5 0 0 1 -.660156-1.896484zm3.023438 0h2.890625c-.04721.37642-.130834.747696-.240235 1.115234-.405333-.05899-.81405-.09778-1.224609-.101562-.400382-.0037-.799302.02372-1.195313.07422-.105532-.35842-.184413-.720978-.230468-1.087892zm3.902343 0h2.009766a4.5 4.5 0 0 1 -.677734 1.917969c-.507501-.24957-1.03832-.463219-1.597657-.609375.1209-.424158.217214-.857368.265625-1.308594zm-2.478515 2.033203c.293733.0028.587627.029.878906.0625-.231663.557096-.501851 1.111673-.796875 1.671875l-.06055.113281-.05859-.113281c-.298139-.566116-.571154-1.126417-.804687-1.689453.279218-.02629.559921-.04758.841797-.04492zm-1.861328.207031c.216609.552107.473731 1.084982.742187 1.607422a4.5 4.5 0 0 1 -2.027344-1.15625c.407889-.190697.835239-.345886 1.285157-.451172zm3.751953.0332c.44544.108726.867828.262113 1.273437.443359a4.5 4.5 0 0 1 -2.003906 1.132812c.263467-.512631.51633-1.035121.730469-1.576171z" fill="#1e8bcd"/></svg>