<svg height="24" viewBox="0 0 24 24" width="24" xmlns="http://www.w3.org/2000/svg"><g fill="#1e8bcd" stroke-width="2" transform="translate(0 -1)"><rect height="13" rx=".432321" ry=".5" width="1" x="15" y="10"/><rect height="13" rx=".432321" ry=".5" transform="rotate(90)" width="1" x="16" y="-22"/></g><path d="m3 2c-.5282798.0163207-.9975987.4714736-1 1v11c.0024.528526.4717202.983679 1 1 .23109.0071.4572702-.0676.6386719-.210938l6.9667971-5.5253901c.2331-.1851154.393031-.4660127.394531-.7636719-.001496-.2976592-.161431-.5785565-.394531-.7636719l-6.9667971-5.5253906c-.1814017-.1433405-.4075819-.2180422-.6386719-.2109375z" fill="#309048"/><path d="m3 3v11l6.9550781-5.5z" fill="#a1ddaa"/></svg>