<svg viewBox="0 0 24 24" xmlns="http://www.w3.org/2000/svg"><g fill="#3a3a38"><path d="m17.990234 4c-.701002 0-1.356832.1626422-1.964843.4882812-.608012.3176967-1.137246.8056232-1.587891 1.4648438-.44349.6592207-.793271 1.493266-1.050781 2.5019531-.257511 1.0007448-.386719 2.1846859-.386719 3.5507809 0 1.366096.129208 2.553813.386719 3.5625.25751 1.000745.607291 1.829061 1.050781 2.488282.450645.651278.979879 1.141158 1.587891 1.466797.608011.317696 1.263841.476562 1.964843.476562s1.354879-.158867 1.962891-.476562c.615164-.325639 1.147013-.815519 1.597656-1.466797.450643-.659221.804989-1.487537 1.0625-2.488282.25751-1.008687.386719-2.196404.386719-3.5625 0-1.366095-.129209-2.5500361-.386719-3.5507809-.257511-1.0086871-.611857-1.8427324-1.0625-2.5019531-.450643-.6592206-.982492-1.1471471-1.597656-1.4648438-.608013-.3256391-1.261889-.4882812-1.962891-.4882812zm0 1c.532651 0 1.054073.143556 1.525391.4101562.509194.288026.918985.7414615 1.248047 1.3066407.345941.5815003.59517 1.2985229.777344 2.1582031.185812.8690259.273437 1.907489.273437 3.130859 0 1.224128-.08779 2.266527-.273437 3.142579a.67982563.67982563 0 0 0 0 .002c-.182309.851881-.432185 1.56435-.777344 2.144531-.329062.565181-.738855 1.018615-1.248047 1.30664a.67982563.67982563 0 0 1 -.0098.0059c-.470092.255989-.987065.392491-1.515591.392491-.528525 0-1.045498-.136501-1.515625-.392578a.67982563.67982563 0 0 1 -.01563-.0078c-.500124-.288352-.906437-.739008-1.242182-1.302747a.67982563.67982563 0 0 1 -.0039-.0059c-.336623-.579307-.581675-1.290182-.763668-2.140584a.67982563.67982563 0 0 0 0-.002c-.185643-.876-.273438-1.918402-.273438-3.142532 0-1.223372.08764-2.2618418.273438-3.130859.181866-.8582249.426287-1.5736442.763672-2.1542969a.67982563.67982563 0 0 1 .0039-.00586c.33574-.5637368.742052-1.0143938 1.242183-1.3027337a.67982563.67982563 0 0 1 .0059-.00195c.471278-.2666044.9927-.4101594 1.52535-.4101594z"/><path d="m5.9902344 4c-.701002 0-1.3568328.1626422-1.9648438.4882812-.608012.3176967-1.1372456.8056232-1.5878906 1.4648438-.44349.6592207-.7932713 1.493266-1.0507812 2.5019531-.2575111 1.0007448-.3867188 2.1846859-.3867188 3.5507809 0 1.366096.1292077 2.553813.3867188 3.5625.2575099 1.000745.6072912 1.829061 1.0507812 2.488282.450645.651278.9798786 1.141158 1.5878906 1.466797.608011.317696 1.2638418.476562 1.9648438.476562s1.3548786-.158867 1.9628906-.476562c.615164-.325639 1.147013-.815519 1.597656-1.466797.450643-.659221.804989-1.487537 1.0625-2.488282.25751-1.008687.386719-2.196404.386719-3.5625 0-1.366095-.129209-2.5500361-.386719-3.5507809-.257511-1.0086871-.611857-1.8427324-1.0625-2.5019531-.450643-.6592206-.982492-1.1471471-1.597656-1.4648438-.608013-.3256391-1.2618886-.4882812-1.9628906-.4882812zm0 1c.5326509 0 1.0540727.143556 1.5253906.4101562.5091945.288026.9189853.7414615 1.2480469 1.3066407.3459411.5815003.5951701 1.2985229.7773441 2.1582031.185812.8690259.273437 1.907489.273437 3.130859 0 1.224128-.08779 2.266527-.273437 3.142579a.67982563.67982563 0 0 0 0 .002c-.182309.851881-.432185 1.56435-.7773441 2.144531-.329062.565181-.7388544 1.018615-1.2480469 1.30664a.67982563.67982563 0 0 1 -.00977.0059c-.4701222.255989-.9870945.392491-1.5156206.392491-.5285254 0-1.0454979-.136501-1.515625-.392578a.67982563.67982563 0 0 1 -.015625-.0078c-.5001297-.288352-.9064426-.739008-1.2421875-1.302747a.67982563.67982563 0 0 1 -.00391-.0059c-.3366226-.579307-.5816751-1.290182-.7636681-2.140584a.67982563.67982563 0 0 0 0-.002c-.1856431-.876-.2734374-1.918402-.2734376-3.142532.0000001-1.223372.0876358-2.2618418.2734376-3.130859.1818665-.8582249.4262876-1.5736442.7636718-2.1542969a.67982563.67982563 0 0 1 .00391-.00586c.3357408-.5637368.742052-1.0143938 1.2421838-1.3027337a.67982563.67982563 0 0 1 .00586-.00195c.4713177-.2666044.9927397-.4101594 1.52539-.4101594z"/><path d="m11 19h2v2h-2z"/></g></svg>