<svg viewBox="0 0 24 24" xmlns="http://www.w3.org/2000/svg"><path d="m3 4v5.105469 9.111328.783203h.8085938 7.8652342c.108615-.108547.217577-.215672.326172-.324219.108595.108547.217557.215672.326172.324219h7.865234.808594v-.783203-9.111328-5.105469z" fill="#fafafa"/><g fill="#3a3a38"><path d="m2 3v17h7.5 1.455078 8.212891 1.332031 1.5v-2.751953-5.390625-8.857422zm1 1h18v5.105469 9.394531.5h-.5-.308594-8.517578-2.173828-6.5z"/><path d="m20 5h-16v1 2 1h16v-1-2zm-1 1v2h-14v-2z"/><path d="m20 10h-16v1 6 1h16v-1-6zm-1 1v6h-14v-6z"/></g></svg>