<svg viewBox="0 0 24 24" xmlns="http://www.w3.org/2000/svg"><g transform="matrix(.92387953 -.38268343 .38268343 .92387953 -3.678756 5.505647)"><path d="m11 2.0039062a.99624993.99624993 0 0 0 -.996094.9960938v3.4589844c-.1739981.0628674-.3422813.1323444-.5097654.2109375l-2.4453125-2.4453125a.99624993.99624993 0 0 0 -1.4101562 0l-1.4140625 1.4140625a.99624993.99624993 0 0 0 0 1.4101562l2.4453125 2.4453125c-.078962.1675499-.1496806.3356612-.2128907.5097654h-3.4570312a.99624993.99624993 0 0 0 -.9960938.996094v2a.99624993.99624993 0 0 0 .9960938.996094h3.4589844c.062867.173998.1323444.342281.2109375.509765l-2.4453125 2.445313a.99624993.99624993 0 0 0 0 1.410156l1.4140625 1.414063a.99624993.99624993 0 0 0 1.4101562 0l2.4453125-2.445313c.1675499.07896.3356613.149681.5097654.212891v3.457031a.99624993.99624993 0 0 0 .996094.996094h2a.99624993.99624993 0 0 0 .996094-.996094v-3.458984c.173998-.06287.342281-.132345.509765-.210938l2.445313 2.445313a.99624993.99624993 0 0 0 1.410156 0l1.414063-1.414063a.99624993.99624993 0 0 0 0-1.410156l-2.445313-2.445313c.07896-.16755.149681-.335661.212891-.509765h3.457031a.99624993.99624993 0 0 0 .996094-.996094v-2a.99624993.99624993 0 0 0 -.996094-.996094h-3.458984c-.062868-.1739981-.132345-.3422813-.210938-.5097654l2.445313-2.4453125a.99624993.99624993 0 0 0 0-1.4101562l-1.414063-1.4140625a.99624993.99624993 0 0 0 -1.410156 0l-2.445313 2.4453125c-.16755-.078962-.335661-.1496806-.509765-.2128907v-3.4570312a.99624993.99624993 0 0 0 -.996094-.9960938zm1 8.9960938a1 1 0 0 1 1 1 1 1 0 0 1 -1 1 1 1 0 0 1 -1-1 1 1 0 0 1 1-1z" fill="#3a3a38"/><path d="m11 3v4.1054688a5 5 0 0 0 -1.7539062.7265624l-2.9023438-2.9023437-1.4140625 1.4140625 2.9023437 2.9023438a5 5 0 0 0 -.7304687 1.7539062h-4.1015625v2h4.1054688a5 5 0 0 0 .7265624 1.753906l-2.9023437 2.902344 1.4140625 1.414062 2.9023438-2.902343a5 5 0 0 0 1.7539062.730469v4.101562h2v-4.105469a5 5 0 0 0 1.753906-.726562l2.902344 2.902343 1.414062-1.414062-2.902343-2.902344a5 5 0 0 0 .730469-1.753906h4.101562v-2h-4.105469a5 5 0 0 0 -.726562-1.7539062l2.902343-2.9023438-1.414062-1.4140625-2.902344 2.9023437a5 5 0 0 0 -1.753906-.7304687v-4.1015625zm1 7a2 2 0 0 1 2 2 2 2 0 0 1 -2 2 2 2 0 0 1 -2-2 2 2 0 0 1 2-2z" fill="#fafafa"/></g></svg>