<svg viewBox="0 0 24 24" xmlns="http://www.w3.org/2000/svg"><path d="m3 8c-.554 0-1 .446-1 1v10c0 .554.446 1 1 1h10c.554 0 1-.446 1-1v-10c0-.554-.446-1-1-1z" fill="#3a3a38"/><path d="m3 9h10v10h-10z" fill="#797774"/><path d="m16 2a6 6 0 0 0 -6 6 6 6 0 0 0 6 6 6 6 0 0 0 6-6 6 6 0 0 0 -6-6z" fill="#ed8733"/><path d="m21 8a5 5 0 0 1 -5 5 5 5 0 0 1 -5-5 5 5 0 0 1 5-5 5 5 0 0 1 5 5z" fill="#f8db8f"/><g fill-rule="evenodd"><path d="m15 22 7-7.000001-7-6.999999-7.0000001 6.999999z" fill="#0063b1"/><path d="m15 9-6 6 6 6 6-6z" fill="#83beec"/></g></svg>