<svg height="24" viewBox="0 0 6.3499998 6.3500002" width="24" xmlns="http://www.w3.org/2000/svg"><g stroke-width=".264583" transform="translate(0 -290.64998)"><path d="m.79375 291.44374v4.23333h2.9104167v-3.24659l-1.0583333-.98674z" fill="#fafafa"/><path d="m.79375 291.17915c-.14657916 0-.26458333.11801-.26458333.26459v4.23333c0 .14658.11800417.26458.26458333.26458h2.9104167c.1465792 0 .2645833-.118.2645833-.26458v-2.1456-.79375c-.05488-.0193-.1071152-.0462-.1483114-.0873l-.5291666-.5292c-.1184333-.11849-.1397331-.31423-.067179-.46303l-.2904218-.28422c-.1877285-.19496-.1878989-.19482-.2893881-.19482h-.08785-.1751831zm0 .26459h1.5875v1.05833c0 .14658.1180042.26458.2645834.26458h1.0583333v2.91042h-2.9104167zm3.1181559.88573c.023617.0249.038101.0438.046509.061-.00838-.0173-.022675-.0358-.046509-.061z" fill="#3a3a38"/><path d="m2.6458334 292.50207h1.0583333l-1.0583333-1.05833z" fill="#fff" fill-rule="evenodd"/><path d="m2.6458334 291.44374 1.0583333 1.05833h-1.0583333z" fill="#fafafa"/><path d="m1.8520834 293.5604v2.64584h3.7041666v-1.6591l-1.0583333-.98674z" fill="#fafafa"/><path d="m1.8520834 293.29582c-.1465792 0-.2645834.11801-.2645834.26458v2.64584c0 .14658.1180042.26458.2645834.26458h3.7041666c.1465792 0 .2645834-.118.2645834-.26458v-.55811-.96325-.0553c0-.11924.02594-.11256-.160197-.28215l-.3152262-.30902c-.1492261.0748-.3471627.0543-.4666382-.0651l-.5291667-.52917c-.041577-.0415-.071678-.093-.091467-.14831h-.024805zm0 .26458h2.38125v1.05834c0 .14658.1180041.26458.2645833.26458h1.0583333v1.32292h-3.7041666z" fill="#3a3a38"/><path d="m4.4979167 294.61874h1.0583333l-1.0583333-1.05834z" fill="#fff" fill-rule="evenodd"/><path d="m4.4979167 293.5604 1.0583333 1.05834h-1.0583333z" fill="#fafafa"/><path d="m4.0969076 291.17915a.1323049.1323049 0 0 0 -.0894.0388l-.5291667.52917a.1323049.1323049 0 0 0 0 .18707l.5291667.52916a.1323049.1323049 0 0 0 .2258261-.0935v-.39688h.5291666c.1461254 0 .2645834.11846.2645834.26459v.79375h-.396875a.1323049.1323049 0 0 0 -.1322917.13642.1323049.1323049 0 0 0 .038757.0894l.5291667.52917a.1323049.1323049 0 0 0 .1870689 0l.5291666-.52917a.1323049.1323049 0 0 0 -.093534-.22589h-.396875v-.79375c0-.29225-.2369161-.52917-.5291667-.52917h-.5291671v-.39687a.1323049.1323049 0 0 0 -.1364258-.1323z" fill="#1e8bcd"/></g></svg>