<svg height="24" viewBox="0 0 24 24" width="24" xmlns="http://www.w3.org/2000/svg">







     /&amp;amp;amp;amp;amp;amp;gt;
 <path d="m18.332031 12-4.126953 11h1.181641c.128361 0 .236877-.03682.326172-.109375.09488-.07255.15792-.155124.191406-.25l.929687-2.640625h4.541016l.933594 2.648438c.04465.100456.10546.184982.183594.251953.083713.066971.194182.099609.328124.099609h1.179688l-4.119141-11zm.771485 1.439453c.05023.206494.102394.399536.158203.578125.05581.17859.112158.334808.167969.46875l1.591796 4.513672h-3.833984l1.587891-4.505859c.05023-.133943.104347-.290161.160156-.46875.05581-.17859.112159-.373863.167969-.585938z" fill="#3a3a38" transform="matrix(1.00000000876 0 0 1.00000000876 .00000020085 -.00000000141)"/><path d="m23.5 3.5-17 17" fill="none" stroke="#3a3a38" stroke-linecap="round" stroke-linejoin="round"/><path d="m6.7617188 2-4.5253907 10.097656c-.2439719.166345-.649273.294096-1.2148437.382813l-.08203128.615234h3.90820308l.0839844-.615234c-.6986463-.088717-1.22521-.227492-1.5800781-.416016l.8925781-2.064453h3.3730469l.3085937 2.046875h-.0839843c-.3437785.210703-.8418056.355966-1.4960938.433594l-.1015625.615234h4.4082034l.068359-.615234c-.532303-.088717-.926579-.227492-1.1816405-.416016l-1.6972656-10.064453zm-.0175782 2.2128906.7226563 4.7871094h-2.7910157z" fill="#0063b1" transform="matrix(1.00000003513 0 0 1.00000003513 .00000026999 -.00000005411)"/></svg>