<svg viewBox="0 0 24 24" xmlns="http://www.w3.org/2000/svg"><path d="m2.5 4c-.277 0-.5.223-.5.5v1 13 1c0 .277.223.5.5.5h1 3.5078125l.65625-.841797a1.0005291 1.0005291 0 0 1 .0195313-.027344 1.0005291 1.0005291 0 0 1 .0390624-.054687c.0179683-.022597.0406127-.053002.0585938-.076172h-4.78125v-14h18v2.2753906c.287219-.1664149.608882-.2655952.941406-.2753906.019973-.0005716.038734.0038719.058594.0039062v-1.5039062-1c0-.277-.223-.5-.5-.5h-1-17zm19.5 10.541016c-.318909.449842-.639507.897852-1 1.33789v3.121094h-3.0625c-.200242.179777-.378949.346751-.599609.539062-.132021.115418-.319281.114937-.47461.191407.003202.086073-.005585.18096-.003906.269531h3.640625 1c.277 0 .5-.223.5-.5v-1z" fill="#3a3a38"/><path d="m3 5v14h4.78125c.3881203-.500115.7836154-1.12365 1.5878906-1.777344.8770944-.712879 1.8668984-1.003334 2.7167974-1.148437 2.918304-3.53659 4.636447-6.1347256 8.851562-8.7695315.019643-.0123114.042484-.0176993.0625-.0292969v-2.2753906zm18 10.878906c-.752713.918804-1.690706 1.889498-3.0625 3.121094h3.0625z" fill="#fafafa"/><path d="m5 7v2h13.558594c.143055-.1148913.291704-.2294195.441406-.34375v-1.65625z" fill="#797774"/><path d="m5 11v1h1v-1zm2 0v1h8.449219c.29893-.339487.606981-.673179.921875-1zm-2 2v1h1v-1zm2 0v1h6.767578c.272429-.3368.557052-.678468.824219-1zm-2 2v1h1v-1zm2 0v1h5.146484c.290887-.353268.539517-.664479.810547-1z" fill="#c8c6c4"/><path d="m21.970703 8c-.177888.00524-.351159.057831-.501953.1523438-4.136759 2.5854742-5.700584 5.0450262-8.737621 8.7080372-.210813.253601-.283141.594786-.193359.91211.124699.438291.05849.586853.729808.897431.67132.310578 1.530176.423588 2.802734.361328.225038-.01109.439749-.0978.609376-.246094 3.574573-3.115338 4.182424-4.307327 6.15039-7.226562.11091-.165166.17007-.359644.169922-.558594v-2c-.000147-.5637669-.465761-1.0161281-1.029297-1z" fill="#3a3a38"/><path d="m22 9v2c-2 2.966753-2.5 4-5.979176 7.032197-2.365328.115723-2.378568-.032197-2.520824-.532197 3.032664-3.657737 4.5-6 8.5-8.5z" fill="#fafafa"/><path d="m12.521484 18.03125c-.323926.05073-.668149.136039-.99414.259766-.326113.124095-.634239.287343-.888672.49414-.314064.255263-.429433.449978-.638672.714844l4.261719 1.419922c.192081-.135176.38609-.269973.537109-.419922.19996-.374848.180051-.969421.01758-1.433594v-.002c-.054184-.15472-.124008-.293657-.207033-.406203-.150368-.173668-.346757-.299663-.558594-.390625h-.002c-.212443-.09101-.440245-.147122-.654297-.18164-.428371-.06869-.799057-.05211-.873047-.05469z" fill="#fafafa"/><path d="m12.515625 17.017578c-.05035.000165-.100621.0041-.150391.01172-.773679.12116-1.638455.378043-2.365234.96875-.7182932.583809-1.0383516 1.127975-1.4941406 1.701172-.00197.0032-.00392.0065-.00586.0098l-1.2988275 1.669886c-.5164462.665161-.0432845 1.633465.7988281 1.634766h3c.01564-.000305.03126-.000925.04687-.002 1.790411-.084 3.417955-.751558 4.466797-1.792969.07164-.07132.132206-.152947.179687-.242188.28179-.528248.298157-1.043096.242188-1.53125-.05597-.488151-.191681-.954835-.511719-1.388671-.000664-.0013-.0013-.0026-.002-.0039-.411673-.551823-1.022934-.934666-1.613281-1.029296-.491722-.02811-.819751-.01448-1.292969-.0059zm.0059 1.013672c.147979.0052 1.48492-.06945 2.087891.626953.332098.450185.456066 1.341999.189453 1.841797-.151019.149949-.345028.284746-.537109.419922l-4.26176-1.419922c.209239-.264866.324608-.459581.638672-.714844.508867-.413594 1.23496-.65245 1.882812-.753906zm-3.1093746 2.152344 3.3242186 1.476562c-.545471.17759-1.125964.311206-1.736369.339844h-3l1.2988281-1.669922c.044164-.05554.072599-.09372.1132813-.146484z" fill="#0063b1"/><path d="m9.4121094 20.183594c-.040682.05276-.069117.09094-.1132813.146484l-1.2988281 1.669922h3c.610405-.02864 1.190857-.162254 1.736328-.339844z" fill="#83beec"/></svg>