<svg viewBox="0 0 24 24" xmlns="http://www.w3.org/2000/svg"><path d="m3 4.9980469v10.0000001l3.7285156 4h5.2714844v-.998047-1a1.0001 1.0001 0 0 1 .802734-.980469l.28125-.05664-.158203-.236329a1.0001 1.0001 0 0 1 .125-1.261718l.707031-.707032.707032-.707031a1.0001 1.0001 0 0 1 1.261718-.125l.236329.158203.05664-.28125a1.0001 1.0001 0 0 1 .980469-.802734h1 1a1.0001 1.0001 0 0 1 .980469.802734l.05664.28125.236329-.158203a1.0001 1.0001 0 0 1 .726562-.152343v-1.773438h.001953v-6h-6v-.0019531z" fill="#fafafa"/><path d="m4 6v7 3l2 2h6v-1h-5.5l-1.5-1.5v-2.666016-5.833984h14v5a1.0001 1.0001 0 0 1 .980469.802734l.019531.097657v-6.900391z" fill="#797774"/><path d="m3 3.9980469c-.554 0-1 .446-1 1v9.0000001.662109.330078c0 .383581-.0005299.386179.7363281 1.095704l3.2363281 3.30664c.640994.703509.6176804.605469 1.0683594.605469h.2070313 5.6425781l-.087891-.017578a1.0001 1.0001 0 0 1 -.802734-.980469v-.001953h-4v-4c0-.554-.446-1-1-1h-4v-9.0000001l18.001953.0019531-.001953 7.773438a1.0001 1.0001 0 0 1 .535156.277343l.464844.464844.001953-8.515625c0-.554-.223-1-.5-1-6.168051 0-12.3324201-.0034158-18.501953-.0019531z" fill="#3a3a38"/><path d="m6.9995699 14.99762v4l-4-4z" fill="#fafafa" fill-rule="evenodd"/><path d="m17 13-.349609 1.744141-1.478516-.986329-.707031.707032-.707032.707031.986329 1.478516-1.744141.349609v1 1l1.744141.349609-.986329 1.478516.707032.707031.707031.707032 1.478516-.986329.349609 1.744141h1 1l.349609-1.744141 1.478516.986329.707031-.707032.707032-.707031-.986329-1.478516 1.744141-.349609v-1-1l-1.744141-.349609.986329-1.478516-.707032-.707031-.707031-.707032-1.478516.986329-.349609-1.744141h-1zm.800781 1h.398438l.300781 1.5h.535156l.378906.378906 1.273438-.847656.28125.28125-.847656 1.273438.378906.378906v.535156l1.5.300781v.398438l-1.5.300781v.535156l-.378906.378906.847656 1.273438-.28125.28125-1.273438-.847656-.378906.378906h-.535156l-.300781 1.5h-.398438l-.300781-1.5h-.535156l-.378906-.378906-1.273438.847656-.28125-.28125.847656-1.273438-.378906-.378906v-.535156l-1.5-.300781v-.398438l1.5-.300781v-.535156l.378906-.378906-.847656-1.273438.28125-.28125 1.273438.847656.378906-.378906h.535156zm.199219 2a2 2 0 0 0 -2 2 2 2 0 0 0 2 2 2 2 0 0 0 2-2 2 2 0 0 0 -2-2zm0 1a1 1 0 0 1 1 1 1 1 0 0 1 -1 1 1 1 0 0 1 -1-1 1 1 0 0 1 1-1z" fill="#1e8bcd"/><path d="m17.800781 14h.398438l.300781 1.5h.535156l.378906.378906 1.273438-.847656.28125.28125-.847656 1.273438.378906.378906v.535156l1.5.300781v.398438l-1.5.300781v.535156l-.378906.378906.847656 1.273438-.28125.28125-1.273438-.847656-.378906.378906h-.535156l-.300781 1.5h-.398438l-.300781-1.5h-.535156l-.378906-.378906-1.273438.847656-.28125-.28125.847656-1.273438-.378906-.378906v-.535156l-1.5-.300781v-.398438l1.5-.300781v-.535156l.378906-.378906-.847656-1.273438.28125-.28125 1.273438.847656.378906-.378906h.535156zm.199219 2c-1.104569 0-2 .895431-2 2s.895431 2 2 2 2-.895431 2-2-.895431-2-2-2z" fill="#fafafa"/></svg>