<svg viewBox="0 0 24 24" xmlns="http://www.w3.org/2000/svg"><path d="m5 3v7.087891c.161004-.055818.3274442-.087891.4941406-.087891.3815452 0 .7735221.150472 1.0625.439453.5783824.578385.5783829 1.548568 0 2.126953l-1.5566406 1.558594v.873047h7.5c.81476 0 1.501953.687193 1.501953 1.501953s-.687193 1.501953-1.501953 1.501953h-7.5v.873047l1.5566406 1.558594c.163234.163234.2765592.358373.3476563.566406h12.0957031v-14.2714844l-4-3.7285156z" fill="#fafafa"/><path d="m5 2c-.554 0-1 .446-1 1v7.869141l.4296875-.429688c.1653894-.165389.3627694-.279611.5703125-.351562v-7.087891h9v4c0 .554.446 1 1 1h4v13h-12.0957031c.110387.322998.1097705.677399-.0019531 1h12.0976562c.554 0 1-.446 1-1v-10.109375-3.640625-.2089844c0-.4506799.098038-.4254121-.605469-1.0664062l-3.30664-3.2382813c-.709525-.7368575-.710169-.7363281-1.09375-.7363281h-.332032-.662109zm0 12.125-.8730469.873047h.8730469zm-.8730469 3.876953.8730469.873047v-.873047z" fill="#3a3a38"/><path d="m15 7h4l-4-4z" fill="#fafafa" fill-rule="evenodd"/><rect fill="#797774" height="1" ry=".5" width="5" x="7" y="5"/><rect fill="#797774" height="1" ry=".5" width="3" x="7" y="9"/><rect fill="#fb983b" height="1" ry=".5" width="5" x="12" y="9"/><path d="m12.519531 15c.631341.00869 1.179261.429698 1.388672 1h1.591797c.277 0 .5-.223.5-.5s-.223-.5-.5-.5z" fill="#797774"/><rect fill="#fb983b" height="1" ry=".5" width="7" x="7" y="12"/><rect fill="#797774" height="1" ry=".5" width="4" x="13" y="18"/><path d="m5.494141 11.001953c.127809 0 .25558.04855.353515.146485.195868.195869.195868.513115 0 .708984l-4.140625 4.142578h10.792969c.277 0 .5.223.5.5s-.223.5-.5.5h-10.792969l4.140625 4.142578c.195868.195869.195868.513116 0 .708984-.09793.09794-.225706.146485-.353515.146485s-.257539-.04855-.355469-.146485l-4.992188-4.998046c-.04702-.04701-.08408-.103236-.109375-.166016-.02334-.057904-.037109-.12105-.037109-.1875s.01377-.129596.03711-.1875c.0253-.06278.06236-.119003.109375-.166016l4.992188-4.998046c.09793-.09793.22766-.146485.355468-.146485z" fill="#1e8bcd"/><rect fill="#fb983b" height="1" ry=".474576" width="5" x="7" y="18"/></svg>