<svg viewBox="0 0 24 24" xmlns="http://www.w3.org/2000/svg"><path d="m5 4v17h5 .283203.716797v-5c0-.554.446-1 1-1h1v-3h6v-4.2714844l-4-3.7285156z" fill="#fafafa"/><path d="m5 3c-.554 0-1 .446-1 1v17c0 .554.446 1 1 1h6v-1h-6v-17h9v4c0 .554.446 1 1 1h4v3h1v-3.75-.2089844c0-.4506799.098038-.4254121-.605469-1.0664062l-3.30664-3.2382813c-.709525-.7368575-.710169-.7363281-1.09375-.7363281h-.332032-.662109z" fill="#3a3a38"/><path d="m15 8h4l-4-4z" fill="#fafafa" fill-rule="evenodd"/><path d="m15 14v2h5v-2z" fill="#fafafa"/><path d="m14 13v3h1v-2h5v2h1v-3h-1-5zm-1 3c-.554 0-1 .446-1 1v4c0 .554.446 1 1 1h1v2h1 5 1v-2h1c.554 0 1-.446 1-1v-4c0-.554-.446-1-1-1v3h-9zm2 6h5v1h-5z" fill="#3a3a38"/><path d="m14 16h7v2h-7z" fill="#1e8bcd"/><path d="m15 22v1h5v-1z" fill="#fafafa" stroke-width=".707107"/></svg>