<svg viewBox="0 0 24 24" xmlns="http://www.w3.org/2000/svg"><path d="m5 3v7.923828c.0420125-1.0557852.9275324-1.923828 1.9921875-1.923828.5453596 0 1.0445354.2281291 1.4082031.5917969.2629885-.3433892.6274426-.5976927 1.1113282-.5917969.2111605.0024614.4179764.0532348.6054692.1445312h.001953l4.802734 2.3378908c.735591-.895961 1.837465-1.482422 3.078125-1.482422.346993 0 .678233.060164 1 .144531v-3.4160154l-4-3.7285156zm7 15.152344-2.0039062.755859c-.3602118.136252-.6879811-.020575-1.0039063-.164062v2.255859h3.0078125z" fill="#fafafa"/><path d="m5 2c-.554 0-1 .446-1 1v18c0 .551203.4420776.993575.9921875.998047v-10.998047c0-.026064.006784-.050325.0078125-.076172v-7.923828h9v4c0 .554.446 1 1 1h4v2.144531c.355789.093288.689331.233855 1 .416016v-3.310547-.2089844c0-.4506799.098038-.4254121-.605469-1.0664062l-3.30664-3.2382813c-.709525-.7368575-.710169-.7363281-1.09375-.7363281h-.332032-.662109zm3.9921875 19v1h3.0078125v-1z" fill="#3a3a38"/><path d="m15 7h4l-4-4z" fill="#fafafa" fill-rule="evenodd"/><path d="m9.5 10c-.254427-.0031-.4627556.225128-.4628906.507812v6.984376c.000328.347953.3089907.592612.6054687.480468l2.3574219-.888672v-.083984c0-1.090703.909297-2 2-2v-1c0-.596922.14301-1.159473.380859-1.669922l-4.7011715-2.287109c-.05655-.02763-.1179195-.042249-.1796875-.042969z" fill="#0063b1"/><path d="m6.992073 9.999799c-.554 0-1 .446-1 1v11c0 .554.446 1 1 1s1-.446 1-1v-11c0-.554-.446-1-1-1z" fill="#3a3a38"/><path d="m18 11c-1.656854 0-3 1.343146-3 3v2h-1c-.554 0-1 .446-1 1v5c0 .554.446 1 1 1h8c.554 0 1-.446 1-1v-5c0-.554-.446052-1.007599-1-1h-1v-2c0-1.656854-1.343146-3-3-3zm0 1c1.104569 0 2 .895431 2 2v2h-4v-2c0-1.104569.895431-2 2-2z" fill="#ed8733"/><path d="m14 17h8v5h-8z" fill="#f8db8f"/><path d="m18 17c-1.104569 0-2 .895431-2 2v3h3v-1h1v-1-1c0-1.104569-.895431-2-2-2z" fill="#ed8733"/><path d="m18 18c-.552285 0-1 .447715-1 1v2h1v-1l1-.0038v-.9962c0-.552285-.447715-1-1-1z" fill="#fafafa"/><path d="m10 11.330078v5.425781l2.361328-.890625c.364258-.51871.963966-.865596 1.634766-.867187v-.998047c0-.236765.030238-.465546.070312-.691406z" fill="#83beec"/></svg>