<svg height="24" viewBox="0 0 6.3499999 6.3500004" width="24" xmlns="http://www.w3.org/2000/svg"><g transform="translate(0 -290.64998)"><path d="m3 4v12h9.900391l.183593-.037109-.158203-.236329a1.0001 1.0001 0 0 1 -.152343-.726562h-8.773438v-10h15v7a1.0001 1.0001 0 0 1 .980469.802734l.019531.097657v-8.900391z" fill="#3a3a38" stroke-width=".999999" transform="matrix(.26458334 0 0 .26458334 0 290.64998)"/><path d="m4 5v10h8.773438a1.0001 1.0001 0 0 1 .277343-.535156l.707031-.707032.707032-.707031a1.0001 1.0001 0 0 1 1.261718-.125l.236329.158203.05664-.28125a1.0001 1.0001 0 0 1 .980469-.802734h1 1v-7z" fill="#fafafa" stroke-width=".999999" transform="matrix(.26458334 0 0 .26458334 0 290.64998)"/><path d="m.26458317 291.44373h5.55625033l-.0000002.26458h-5.55625033z" fill="#1e8bcd" stroke-width=".264583"/><path d="m1.5874999 292.23748h2.9104169v.52916h-2.9104169z" fill="#797774" stroke-width=".264583"/><path d="m7 20v1h5.773438a1.0001 1.0001 0 0 1 .152343-.726562l.158203-.236329-.183593-.037109z" fill="#3a3a38" transform="matrix(.26458334 0 0 .26458334 0 290.64998)"/><path d="m2.9104167 294.88331h.2645834v1.05833h-.2645834z" fill="#3a3a38"/><path d="m4.4979168 294.08956-.092501.46147-.3911907-.26096-.1870687.18707-.1870688.18707.2609662.39119-.4614707.0925v.26458.26458l.4614707.0925-.2609662.39119.1870688.18707.1870687.18707.3911907-.26096.092501.46147h.2645833.2645834l.092501-.46147.3911907.26096.1870686-.18707.1870689-.18707-.2609662-.39119.4614706-.0925v-.26458-.26458l-.4614706-.0925.2609662-.39119-.1870689-.18707-.1870686-.18707-.3911907.26096-.092501-.46147h-.2645834zm.2118733.26459h.1054201l.079582.39687h.1415934l.1002522.10025.3369305-.22427.074414.0744-.2242756.33693.1002522.10026v.14159l.396875.0796v.10542l-.396875.0796v.1416l-.1002522.10025.2242756.33693-.074414.0744-.3369305-.22427-.1002522.10025h-.1415938l-.079582.39687h-.1054197l-.079582-.39687h-.141593l-.1002522-.10025-.3369305.22427-.074414-.0744.2242757-.33693-.1002523-.10025v-.1416l-.396875-.0796v-.10542l.396875-.0796v-.14159l.1002523-.10026-.2242757-.33693.074414-.0744.3369305.22427.1002522-.10025h.1415934zm.05271.52916a.52916668.52916668 0 0 0 -.5291666.52917.52916668.52916668 0 0 0 .5291666.52917.52916668.52916668 0 0 0 .5291667-.52917.52916668.52916668 0 0 0 -.5291667-.52917zm0 .26459a.26458334.26458334 0 0 1 .2645834.26458.26458334.26458334 0 0 1 -.2645834.26458.26458334.26458334 0 0 1 -.2645833-.26458.26458334.26458334 0 0 1 .2645833-.26458z" fill="#1e8bcd"/><path d="m4.7097901 294.35415h.1054201l.079582.39687h.1415934l.1002522.10025.3369305-.22427.074414.0744-.2242756.33693.1002522.10026v.14159l.396875.0796v.10542l-.396875.0796v.1416l-.1002522.10025.2242756.33693-.074414.0744-.3369305-.22427-.1002522.10025h-.1415938l-.079582.39687h-.1054197l-.079582-.39687h-.141593l-.1002522-.10025-.3369305.22427-.074414-.0744.2242757-.33693-.1002523-.10025v-.1416l-.396875-.0796v-.10542l.396875-.0796v-.14159l.1002523-.10026-.2242757-.33693.074414-.0744.3369305.22427.1002522-.10025h.1415934zm.05271.52916c-.2922505 0-.5291666.23692-.5291666.52917s.2369161.52917.5291666.52917c.2922506 0 .5291667-.23692.5291667-.52917s-.2369161-.52917-.5291667-.52917z" fill="#fafafa"/></g></svg>