<svg viewBox="0 0 24 24" xmlns="http://www.w3.org/2000/svg"><path d="m5 4c-.554 0-1 .446-1 1v5.582031 10.417969c0 .554.446 1 1 1h6.998047v-10.142578c0-.006003.001894-.011587.001953-.017578.000059.005991.001953.011575.001953.017578v10.142578h6.998047c.554 0 1-.446 1-1v-10.417969-5.582031c0-.554-.446-1-1-1h-2v3h-10v-3z" fill="#ed8733"/><path d="m5 5v4.9980469 11.0019531h6.998047v-9.142578c0-.006003.001894-.011587.001953-.017578.000059.005991.001953.011575.001953.017578v9.142578h6.998047v-11.0019531-4.9980469h-2v2h-10v-2z" fill="#f8db8f"/><path d="m6 6v3.9980469 10.0019531h5.998047v-8.142578c0-.006003.001894-.011587.001953-.017578.000059.005991.001953.011575.001953.017578v8.142578h5.998047v-10.0019531-3.9980469h-1v1h-10v-1z" fill="#fafafa"/><g fill="#1e8bcd" transform="matrix(.26754386 0 0 .26754386 12.385263 10.474386)"><path d="m-12.04 26.92q-.6.32-1.44.56-.8.28-2.12.28-1.36 0-2.44-.84-1.12-.84-1.12-2.2 0-1.32.72-2 .68-.68 1.64-.68 1.6 0 1.92 1.44-.68.36-.68 1.24 0 1.12 1.08 1.12 1.64 0 2.24-2.2.4-1.44.64-3.96.28-2.52.44-3.48l2.2-13.72h-2.96l.24-1.36 3.04-.8.36-1.84q1.4-7.36 6.8-7.36 1.8 0 3.04.96 1.28.92 1.28 2.32 0 1.4-.76 2.2-.76.8-1.72.8-1.4 0-1.8-1.44.96-.72.96-1.44 0-1.52-1.76-1.52-1.84 0-2.4 2-.4 1.48-.48 3.28-.08 1.8-.12 2.24h3.84l-.28 1.96h-3.88l-2.24 14.16q-.6 3.92-.88 4.68-.24.76-.6 1.8-.36 1.08-.72 1.52-.32.48-.88 1.2-.56.76-1.16 1.08z"/><path d="m2.07875 16.4q0 1 1.48 1.12l-.2 1.48h-5.64l-.4-.76q1.08-2.08 5.04-6.08l2.48-2.52-2.32-5.32q-.52-1.24-1.08-1.52-.52-.32-1.64-.32l-.2-1.32 4.2-1.16 1 .88 2.8 6.52q3.28-3.36 3.28-4.44 0-1.08-1.28-1.32v-1.32h5.32l.64.72q.16.16-1.52 2.12-1.64 1.96-3.52 3.84l-2.16 2.16 2.8 6.4q.4.84.6.92.2.04.68.04.48 0 1.76-.76l.4 1.28q-2.6 2.24-4.16 2.24-1.08 0-1.68-1-.24-.36-.56-1.08l-2.56-5.8q-3.56 3.56-3.56 5z"/></g><path d="m12 2c-1.1046 0-2 .89543-2 2h-2v2h8v-2h-2c0-.13807-.005-.27605-.03125-.40625-.18649-.91137-1.00215-1.59375-1.96875-1.59375zm0 1c.41421 0 .75444.26608.90625.625.0506.11964.09375.23693.09375.375 0 .55228-.44771 1-1 1s-1-.44772-1-1 .44771-1 1-1z" fill="#3a3a38"/></svg>