<svg height="24" viewBox="0 0 6.3499999 6.3500002" width="24" xmlns="http://www.w3.org/2000/svg"><g transform="translate(0 -290.64998)"><path d="m2 5v11.478516l1-1v-9.478516h18v13h-14.4824219l-1 1h16.4824219v-15z" fill="#3a3a38" transform="matrix(.26458333 0 0 .26458333 0 290.64998)"/><path d="m3 6v9.478516l8.189453-8.1875004a1.0019135 1.0019135 0 0 1 1.414063 0l2.103515 2.1035156a1.0019135 1.0019135 0 0 1 0 1.4140628l-8.1894529 8.191406h14.4824219v-13z" fill="#fafafa" transform="matrix(.26458333 0 0 .26458333 0 290.64998)"/><path d="m.2645834 291.70831h5.8208333l-.0000001.26461h-5.82083327z" fill="#1e8bcd" stroke-width=".264583"/><g transform="matrix(.26458333 0 0 .26458333 0 290.64998)"><path d="m9.0175781 8a3.9999999 3.9999999 0 0 0 -3.9492187 3.263672 3.9999999 3.9999999 0 0 0 .1425781 2.005859l3.8007813-3.800781zm2.7910159 5.707031-2.2500002 2.25a3.9999999 3.9999999 0 0 0 2.8593752-1.878906z" fill="#0063b1"/><path d="m10.017578 8.1367188-.001953.328125.248047-.25a3.9999999 3.9999999 0 0 0 -.246094-.078125zm2.9375 4.4238282-.417969.417969.291016.177734a3.9999999 3.9999999 0 0 0 .126953-.595703z" fill="#309048"/><path d="m14.3125 9 .394531.3945312a1.0019135 1.0019135 0 0 1 .28711.6054688h4.005859v-1zm.203125 2-.515625.515625v.484375h5v-1zm-.515625 2v1h5v-1z" fill="#98989d"/><path d="m8.0019531 9.390625c-.935481.3788598-1.746464 1.062525-1.9335937 2.060547-.0595596.319448-.0555237.644235-.0039063.96289l1.9316407-1.929687z" fill="#83beec"/></g><path d="m2.9101562 293.2793v.25l.2070313.125c-.037324-.14626-.098743-.26907-.2070313-.375z" fill="#a1ddaa" stroke-width=".264583"/><g transform="matrix(.69992523 .69992523 -.69992523 .69992523 207.6926 87.852273)"><path d="m.26458332 292.50208h.79374998v4.49791h-.79374998z" fill="#3a3a38"/><path d="m.52916664 292.76663h.26458332v1.32292h-.26458332z" fill="#fafafa"/></g></g></svg>