<svg viewBox="0 0 24 24" xmlns="http://www.w3.org/2000/svg"><path d="m5 4c-.554 0-1 .446-1 1v5.582031 10.417969c0 .554.446 1 1 1h6.998047v-10.142578c0-.006.0019-.01159.002-.01758.000059.006.002.01158.002.01758v10.142578h6.997953c.554 0 1-.446 1-1v-10.417969-5.582031c0-.554-.446-1-1-1h-2v3h-10v-3z" fill="#ed8733"/><path d="m5 5v4.9980469 11.0019531h6.998047v-9.142578c0-.006.0019-.01159.002-.01758.000059.006.002.01158.002.01758v9.142578h6.997953v-11.0019531-4.9980469h-2v2h-10v-2z" fill="#f8db8f"/><path d="m6 6v3.9980469 10.0019531h5.998047v-8.142578c0-.006.0019-.01159.002-.01758.000059.006.002.01158.002.01758v8.142578h5.997953v-10.0019531-3.9980469h-1v1h-10v-1z" fill="#fafafa"/><g fill="#3a3a38"><path d="m12 2c-1.1046 0-2 .89543-2 2h-2v2h8v-2h-2c0-.13807-.005-.27605-.03125-.40625-.18649-.91137-1.00215-1.59375-1.96875-1.59375zm0 1c.41421 0 .75444.26608.90625.625.0506.11964.09375.23693.09375.375 0 .55228-.44771 1-1 1s-1-.44772-1-1 .44771-1 1-1z"/><path d="m12.430018 15.889831q-.507812 0-.78125-.15625-.273437-.15625-.371093-.644532l-.429688-1.777343q-.742187.683593-1.4648436 1.230468-.703125.527344-1.484375.898438-.78125.371094-1.6796875.546875-.8984375.195312-1.9726562.195312-1.1132813 0-2.0898438-.292968-.9570312-.3125-1.69921873-.9375-.72265625-.644532-1.15234375-1.582032-.41015622-.957031-.41015622-2.246093 0-1.1328129.60546872-2.1679692.625-1.0546875 2.01171878-1.875 1.3867187-.8203125 3.6132812-1.328125 2.2265625-.5273437 5.4687501-.6054687v-1.4648438q0-2.2265625-.9570313-3.33984371-.9375-1.1328125-2.7539063-1.1328125-1.2109375 0-2.0507812.3125-.8203125.3125-1.4257813.68359375-.6054687.37109375-1.0546875.68359375-.4296875.31250001-.8789062.31250001-.3515625 0-.60546878-.1757813-.25390625-.17578121-.41015625-.44921871l-.625-1.09375q1.58203123-1.52343749 3.39843753-2.26562499 1.8359375-.7617188 4.0625-.7617188 1.6015625 0 2.8515623.5273438 1.25.5078125 2.089844 1.4648437.839844.95703129 1.269531 2.28515629.449219 1.32812501.449219 2.94921871v12.2070317zm-7.1484371-2.109375q.859375 0 1.5820313-.175782.7226562-.175781 1.3671875-.488281.6445312-.332031 1.2109375-.800781.5859378-.488281 1.1523438-1.074219v-3.9453124q-2.2851563.0976562-3.8867188.390625-1.6015625.2734375-2.6171875.7421875-.9960938.46875-1.4453125 1.1132812-.4492188.6249997-.4492188 1.4062497 0 .742188.234375 1.289063.2539063.527344.6640625.878906.4101563.332031.9765625.507813.5664063.15625 1.2109375.15625z" transform="matrix(.31036177 0 0 .31036177 9.622837 11.160277)"/></g></svg>