<svg viewBox="0 0 24 24" xmlns="http://www.w3.org/2000/svg"><path d="m8 2c-3.3137085 0-6 2.6862915-6 6 0 3.313708 2.6862915 6 6 6h1v8h1v-5.480469c-.0000917-.006712-.0019531-.012791-.0019531-.019531s.0018614-.012819.0019531-.019531v-13.480469h2v10.873047l1-1.001953v-9.871094h1 3v-1zm4 17.126953v2.873047h1v-1.871094z" fill="#3a3a38"/><path d="m16.494141 11.001953c.127809 0 .25558.04855.353515.146485.195868.195869.195868.513115 0 .708984l-4.140625 4.142578h10.792969c.277 0 .5.223.5.5s-.223.5-.5.5h-10.792969l4.140625 4.142578c.195868.195869.195868.513116 0 .708984-.09793.09794-.225706.146485-.353515.146485s-.257539-.04855-.355469-.146485l-4.992188-4.998046c-.04702-.04701-.08408-.103236-.109375-.166016-.02334-.0579-.03711-.12105-.03711-.1875s.01377-.129596.03711-.1875c.0253-.06278.06236-.119003.109375-.166016l4.992189-4.998046c.09793-.09793.22766-.146485.355468-.146485z" fill="#1e8bcd"/></svg>