<svg viewBox="0 0 24 24" xmlns="http://www.w3.org/2000/svg"><path d="m17 14v2h1.3v2.666667c0 .644332-.681446 1.166666-1.3 1.166666v1.166667c1.237118 0 1.973942-1.044933 2-2.333333v-2.666667-.833333-1.166667zm3 0v2h.980001v2.666667c0 .644332-.361447 1.166666-.980001 1.166666v1.166667c1.237118 0 2-1.044669 2-2.333333v-2.666667-.833333-1.166667z" fill="#1e8bcd" stroke-width=".7"/><path d="m16.797187 10.879489q0 1.523195-.516485 2.731245-.516486 1.199297-1.444409 1.987156l2.976357 3.405303h-1.321852q-.288882 0-.516486-.08754-.227604-.08754-.420192-.288882l-1.960893-2.276038q-.954186.402684-2.092204.402684-1.181789 0-2.1622363-.428946-.9804469-.437699-1.6807663-1.216804-.7003192-.779106-1.0854948-1.855847-.3851756-1.07674-.3851756-2.372331 0-1.2868367.3851756-2.3635776.3851756-1.0854949 1.0854948-1.8646.7003194-.7878592 1.6807663-1.2168048.9804473-.4376996 2.1622363-.4376996 1.190542 0 2.162235.4376996.980447.4289456 1.672012 1.2168048.70032.7791051 1.076741 1.8646.385176 1.0767409.385176 2.3635776zm-1.628243 0q0-1.0504789-.262619-1.8821081-.253865-.8403831-.735335-1.4181465-.472716-.5865174-1.155527-.8929071-.674058-.3151437-1.51444-.3151437-.840383 0-1.5231949.3151437-.6740573.3063897-1.1555269.8929071-.4814695.5777634-.7440892 1.4181465-.2538657.8316292-.2538657 1.8821081 0 1.050479.2538657 1.890862.2626197.831629.7440892 1.418146.4814696.577764 1.1555269.884154.6828119.306389 1.5231949.306389.840382 0 1.51444-.306389.682811-.30639 1.155527-.884154.48147-.586517.735335-1.418146.262619-.840383.262619-1.890862z" fill="#3a3a38"/></svg>