<svg viewBox="0 0 24 24" xmlns="http://www.w3.org/2000/svg"><path d="m4.71875 2a.50535904.50535904 0 0 0 -.3535156.1445312l-1.2128906 1.1855469a.50535904.50535904 0 0 0 -.1523438.3613281v1.1875.3613282a.50535904.50535904 0 0 0 .09375.2949218l5.9003906 8.2499998v4.148438.046875a.50535904.50535904 0 0 0 .2148438.414062l3.6796876 2.587891.724609-.72461-3.607422-2.539062v-4.095703a.50535904.50535904 0 0 0 -.0957028-.294922l-5.9003906-8.25v-.1992188-.9746093l.9160156-.8945313h14.1484378l.916015.8945313v1.1738281l-5.328125 7.455078.726563.726563 5.517578-7.7246098a.50535904.50535904 0 0 0 .09375-.2949218v-1.5488282a.50535904.50535904 0 0 0 -.152344-.3613281l-1.21289-1.1855469a.50535904.50535904 0 0 0 -.353516-.1445312zm9.28125 14.128906v3.742188l1.011719-1.011719v-1.71875z" fill="#3a3a38"/><path d="m4.9257812 3.0097656-.9160156.8945313v.9746093.1992188l5.9003906 8.25c.062016.085851.0954928.189015.0957028.294922v4.095703l3.607422 2.539062.386719-.386718v-3.742188l-1.707031-1.707031a.99955814.99955814 0 0 1 0-1.414063l.714843-.714843a.99955814.99955814 0 0 1 .691407-.292969.99955814.99955814 0 0 1 .722656.292969l.240234.240234 5.328125-7.455078v-1.1738281l-.916015-.8945313z" fill="#fafafa"/><path d="m22.285683 12.999968-4.285715 4.285714-4.285715-4.285714-.714285.714285 4.285714 4.285715-4.285714 4.285715.714285.714285 4.285715-4.285714 4.285715 4.285714.714285-.714285-4.285714-4.285715 4.285714-4.285715z" fill="#ed3d3b"/></svg>