<svg viewBox="0 0 24 24" xmlns="http://www.w3.org/2000/svg"><path d="m4.9804688 2 6.2460932 4.953125c.444458.3529635.770158.8883257.773438 1.5410156a1.0001 1.0001 0 0 1 0 .0117188c-.003289.6526724-.328976 1.1880486-.773438 1.5410156l-6.9667964 5.525391a1.0001 1.0001 0 0 0 -.0019531.001953c-.3660589.28925-.8227606.440108-1.2890625.425781-.3541553-.010941-.6815129-.115772-.96875-.28125v5.28125c0 .554.446 1 1 1h18c.554 0 1-.446 1-1v-18c0-.554-.446-1-1-1z" fill="#922e9b"/><path d="m6.2421875 3 4.9843745 3.953125c.444458.3529635.770158.8883257.773438 1.5410156a1.0001 1.0001 0 0 1 0 .0117188c-.003289.6526724-.328976 1.1880486-.773438 1.5410156l-6.9667964 5.525391a1.0001 1.0001 0 0 0 -.0019531.001953c-.3577836.282711-.8025168.430545-1.2578125.423828v5.001953h18v-18z" fill="#d492d8"/><path d="m4.9804688 2 6.2460932 4.953125c.444458.3529635.770158.8883257.773438 1.5410156a1.0001 1.0001 0 0 1 0 .0117188c-.003289.6526724-.328976 1.1880486-.773438 1.5410156l-2.4628901 1.953125h11.2363281c.554 0 1-.446 1-1v-8c0-.554-.446-1-1-1zm2.0195312 12c-.554 0-1 .446-1 1v6c0 .554.446 1 1 1h11c.554 0 1-.446 1-1v-6c0-.554-.446-1-1-1z" fill="#922e9b"/><path d="m6.2421875 3 4.9843745 3.953125c.444458.3529635.770158.8883257.773438 1.5410156a1.0001 1.0001 0 0 1 0 .0117188c-.003289.6526724-.328976 1.1880486-.773438 1.5410156l-1.201171.953125h8.974609c.554 0 1-.446 1-1v-6c0-.554-.446-1-1-1zm1.7578125 12c-.554 0-1 .446-1 1v4c0 .554.446 1 1 1h2v-5h2v5h5c.554 0 1-.446 1-1v-4c0-.554-.446-1-1-1z" fill="#fafafa"/><path d="m3 2c-.5282798.0163207-.9975987.4714736-1 1v11c.0024.528526.4717202.983679 1 1 .23109.0071.4572702-.0676.6386719-.210938l6.9667971-5.5253901c.2331-.1851154.393031-.4660127.394531-.7636719-.001496-.2976592-.161431-.5785565-.394531-.7636719l-6.9667971-5.5253906c-.1814017-.1433405-.4075819-.2180422-.6386719-.2109375z" fill="#309048"/><path d="m3 3v11l6.9550781-5.5z" fill="#a1ddaa"/></svg>