<svg viewBox="0 0 24 24" xmlns="http://www.w3.org/2000/svg"><path d="m3 4.9980469v10.0000001l3.7285156 4h8.2714844v-9.998047c-1.047117-.0001047-1.999895-.9528834-2-2v-1c.000036-.3574651.118703-.7006251.306641-1.0019531zm18.001953 3.6953125c-.301328.1879374-.644488.3066049-1.001953.3066406v9.998047h1v-7.998047h.001953z" fill="#fafafa"/><path d="m4 6v7 3l2 2h9v-1h-8.5l-1.5-1.5v-2.666016-5.833984h8v-1z" fill="#797774"/><path d="m3 3.9980469c-.554 0-1 .446-1 1v9.0000001.662109.330078c0 .383581-.0005299.386179.7363281 1.095704l3.2363281 3.30664c.640994.703509.6176804.605469 1.0683594.605469h.2070313 6.0585941c.362584-.581347 1.003707-.997978 1.693359-.998047v-.001953h-7v-4c0-.554-.446-1-1-1h-4v-9.0000001l10.304688.0019531c.362311-.582535 1.004767-.999931 1.695312-1-3.999505-.0008927-7.9985632-.0029018-12-.0019531zm14.001953.0019531c.173959.0002428.330046.089654.498047.1347656.168001-.0451116.324088-.1345228.498047-.1347656-.332013-.0000536-.664091.000063-.996094 0zm2.998047 0c1.047117.0001047 1.999895.9528834 2 2v1c-.000069.6899732-.416272 1.3328258-.998047 1.6953125l-.001953 10.3027345h-1v.001953c.610678.000061 1.182347.328788 1.558594.806641.260589-.180142.441406-.466462.441406-.808594l.001953-13.998047c0-.554-.223-1-.5-1-.50071 0-1.001286.0000406-1.501953 0z" fill="#3a3a38"/><path d="m6.9995699 14.99762v4l-4-4z" fill="#fafafa" fill-rule="evenodd"/><path d="m15 5.0000005a1.0001 1.0001 0 0 0 -1 1v1a1.0001 1.0001 0 0 0 1 1h1v1 9.9999995 1h-1a1.0001 1.0001 0 0 0 -1 1v1a1.0001 1.0001 0 0 0 1 1h2a1.0001 1.0001 0 0 0 .5-.134766 1.0001 1.0001 0 0 0 .5.134766h2a1.0001 1.0001 0 0 0 1-1v-1a1.0001 1.0001 0 0 0 -1-1h-1v-1-9.9999995-1h1a1.0001 1.0001 0 0 0 1-1v-1a1.0001 1.0001 0 0 0 -1-1h-2a1.0001 1.0001 0 0 0 -.5.1347656 1.0001 1.0001 0 0 0 -.5-.1347656z" fill="#3a3a38"/><path d="m15 6.0000005v1h2v-1zm2 1v13.9999995h1v-13.9999995zm1 0h2v-1h-2zm0 13.9999995v1h2v-1zm-1 0h-2v1h2z" fill="#fafafa"/></svg>