<svg height="24" viewBox="0 0 24 24" width="24" xmlns="http://www.w3.org/2000/svg" xmlns:xlink="http://www.w3.org/1999/xlink"><linearGradient id="a"><stop offset="0" stop-color="#e9e9e9"/><stop offset=".2857143" stop-color="#f2f2f2"/><stop offset="1" stop-color="#fbfbfb"/></linearGradient><linearGradient id="b" gradientUnits="userSpaceOnUse" x1="9" x2="9" xlink:href="#a" y1="12" y2="3"/><linearGradient id="c" gradientUnits="userSpaceOnUse" x1="6" x2="5.5" xlink:href="#a" y1="17" y2="9"/>



/&amp;amp;amp;amp;amp;gt;<path d="m11 7a5 5 0 0 1 -5 5 5 5 0 0 1 -5-5 5 5 0 0 1 5-5 5 5 0 0 1 5 5z" fill="#3a3a38"/><path d="m10 7a4 4 0 0 1 -4 4 4 4 0 0 1 -4-4 4 4 0 0 1 4-4 4 4 0 0 1 4 4z" fill="url(#c)"/><path d="m8 7a2 2 0 0 1 -2 2 2 2 0 0 1 -2-2 2 2 0 0 1 2-2 2 2 0 0 1 2 2z" fill="#1e8bcd"/><path d="m13 2c-.554 0-1 .446-1 1v8c0 .236784.093911.444299.230469.615234 1.147667-1.004119 2.644177-1.613861 4.269531-1.615234h-3.5v-7h8v7h-4.498047c1.47299.002232 2.774437.645621 3.904297 1.535156.27722-.315013.652085-.535156 1.09375-.535156.506634 0 .963376.266856 1.236328.664062.159503-.177055.263672-.405895.263672-.664062v-8c0-.554-.446-1-1-1z" fill="#3a3a38"/><path d="m13 3h8v7h-8z" fill="url(#b)"/><path d="m16.5 11c-2.842075.0024-5.214286 2.169693-5.472656 5h1.003906c.2545-2.276321 2.178247-3.998276 4.46875-4 1.903272.0043 3.598001 1.205572 4.232422 3h-2.232422c-.277 0-.5.223-.5.5s.223.5.5.5h3c.06925 0 .135453-.01383.195312-.03906.179579-.075706.304688-.25319.304688-.46094v-3c0-.277-.223-.5-.5-.5s-.5.223-.5.5v.849609c-1.027231-1.470011-2.706643-2.346892-4.5-2.349609zm-5 6c-.277 0-.5.223-.5.5v3c0 .277.223.5.5.5s.5-.223.5-.5v-.867188c.99762 1.431399 2.64246 2.366305 4.5 2.367188 2.842075-.0024 5.214286-2.169693 5.472656-5h-1.003906c-.2545 2.276321-2.178247 3.998276-4.46875 4-1.937261-.0023-3.59894-1.24237-4.222656-3h2.222656c.277 0 .5-.223.5-.5s-.223-.5-.5-.5z" fill="#18ab50"/></svg>