<svg viewBox="0 0 24 24" xmlns="http://www.w3.org/2000/svg"><path d="m12 3v1c1.103922 0 2.154671.2245334 3.111328.6289062.000561.0002371.001392-.0002372.001953 0 .24569.1037725.483289.2190862.712891.34375.146087.0797333.285395.1713666.425781.2597657.077697.0487083.158812.0934549.234375.1445312.185449.1258557.363233.2598141.53711.4003907.020986.0169672.043642.0316537.064453.0488281.002102.0017317.003758.0041257.005859.0058593.177141.1464964.345942.3038632.509766.4648438.016753.0164627.036125.0302664.052734.046875.002591.0025934.005225.0052159.007812.0078125.142696.1430865.276611.2957136.408204.4492187.038933.0455437.081297.0884239.11914.1347657.117469.1434011.224584.2938557.332032.4453125.042282.0598426.088327.1168253.128906.1777344.083225.124415.158075.2555541.234375.3847656.05885.100103.121376.1983273.175781.3007812.055245.1036314.101589.2120736.152344.3183594.06109.1283409.125493.2553656.179687.3867188.035596.0861599.063062.1760278.095703.2636718.05929.1592252.120797.3176921.169922.4804688.023286.0774173.039563.157942.060547.2363281.044428.1651685.089204.3300575.123047.4980465.046141.231292.081693.465107.107422.703125.001858.017193.006063.033556.007812.050782.000067.000642-.000066.001311 0 .001953.027184.268315.041016.540921.041016.816406 0 .276142-.013704.549423-.041016.818359-.026437.260324-.066395.515242-.117187.767579-.047386.2331-.1066.46592-.175781.697265-.005834.019508-.009635.039103-.015625.058594-.000184.000599.000183.001354 0 .001953-.079304.25781-.172149.513743-.279297.767578-.000237.000561.000237.001392 0 .001953-.103773.24569-.219086.483289-.34375.712891-.079734.146087-.171367.285395-.259766.425781-.048708.077697-.093455.158812-.144531.234375-.125856.185449-.259814.363233-.400391.53711-.016967.020986-.031653.043642-.048828.064453-.001732.002102-.004126.003758-.005859.005859-.146497.177141-.303863.345942-.464844.509766-.019004.019328-.035505.041431-.054687.060546-.143087.142696-.295714.276611-.449219.408204-.045544.038933-.088424.081297-.134766.11914-.143401.117469-.293856.224584-.445312.332032-.059843.042282-.116826.088327-.177735.128906-.124415.083225-.255554.158075-.384765.234375-.100103.05885-.198328.121376-.300782.175781-.103631.055245-.212073.101589-.318359.152344-.128341.06109-.255366.125493-.386719.179687-.08616.035596-.176028.063062-.263672.095703-.159225.05929-.317692.120797-.480468.169922-.077418.023286-.157942.039563-.236329.060547-.165168.044428-.330057.089204-.498046.123047-.231292.046141-.465107.081693-.703125.107422-.017698.001953-.035017.005977-.052735.007812-.268315.027184-.540921.041016-.816406.041016-.276142 0-.549423-.013704-.818359-.041016-.260324-.026437-.515242-.066395-.767579-.117187-.2331-.047386-.4659199-.1066-.6972651-.175781-.0195082-.005834-.0391029-.009635-.0585938-.015625-.0005991-.000184-.001354.000183-.0019531 0-.2578096-.079304-.5137429-.172149-.7675781-.279297-.0005464-.000231-.0014069.00023-.0019531 0-.2456895-.103773-.4832892-.219086-.7128907-.34375-.1460872-.079734-.285395-.171367-.4257812-.259766-.0776966-.048708-.1588117-.093455-.234375-.144531-.1854489-.125856-.3632331-.259814-.5371094-.400391-.0231316-.018701-.0473946-.035734-.0703125-.054687-.1771409-.146497-.3459419-.303863-.5097656-.464844-.0193743-.019038-.0413665-.035454-.0605469-.054687-.1426952-.143087-.2766105-.295714-.4082031-.449219-.0389334-.045544-.0812975-.088424-.1191406-.134766-.1174685-.143401-.2245839-.293856-.3320313-.445312-.0422825-.059843-.0883278-.116826-.1289063-.177735-.0832254-.124415-.1580754-.255554-.234375-.384765-.0588506-.100103-.1213761-.198328-.1757812-.300782-.0552448-.103631-.1015895-.212073-.1523438-.318359-.06109-.128341-.1254927-.255366-.1796874-.386719-.0355956-.08616-.0630616-.176028-.0957032-.263672-.0592895-.159225-.1207962-.317692-.1699218-.480468-.023286-.077418-.0395631-.157942-.0605469-.236329-.0444279-.165168-.0892041-.330057-.1230469-.498046-.0461408-.231292-.0816934-.465107-.1074219-.703125-.0019275-.017832-.0060023-.034868-.0078125-.052735-.0271837-.268315-.0410156-.540921-.0410156-.816406.0001577-.272053.0133197-.542922.0410156-.8125.027696-.269578.0701915-.53769.125-.802734s.1235827-.5267043.2050782-.7851566c.0814954-.2584523.1754463-.5138696.2832031-.7636719.3341556-.7738174.790109-1.4866629 1.3457031-2.1171875v3.28125h1v-4-1h-1-4v1h3.3105469c-.6658918.7405642-1.2121574 1.5809477-1.6015625 2.5-.0166208.0393748-.02695.079665-.0429688.1191406h-.0019531c-.0171968.0422496-.0283809.0864304-.0449219.1289063-.0888842.2288949-.1731219.457955-.2421875.6894531-.3438448 1.152519-.4475144 2.331272-.3300781 3.474609.0054485.054111.0170347.106333.0234375.160157.0282943.233869.0610737.467139.1074219.697265.0338557.169781.0797842.33381.1230468.5.0289688.110696.050863.222602.0839844.332031.0601011.199232.1337539.392799.2070313.585938.0289599.07637.0529704.154914.0839843.230469.0759424.184764.1623578.36266.25.541015.0411566.084044.0792804.169187.1230469.251954.0832986.15692.1754373.307753.2675781.458984.059937.098815.1178639.198356.1816407.294922.0788579.118898.1637803.232813.2480469.347656.0910873.124654.1796691.250965.2773437.371094.0615694.075476.1294185.145338.1933594.21875.1318265.151758.2637289.302042.40625.445312.0445331.044738.0932116.085108.1386719.128906.1572716.151552.3150748.302708.484375.44336.0921112.076683.1919421.143777.2871093.216797.136699.10459.2703677.213264.4140625.310547.1570491.106776.3223857.20194.4863282.298828.0836635.049197.1623292.103652.2480468.15039.5309955.291082 1.0943422.528743 1.6835938.708985.2770064.084731.5580483.156833.8457036.214843.248283.050635.497273.084128.746093.113282.041485.004796.081393.015301.123047.019531.001912.000197.003948-.000196.00586 0 .61255.06276 1.224222.061828 1.826171 0 .002564-.000258.00525.00026.007813 0 .051207-.005304.101284-.01726.152344-.023437.233869-.028295.467139-.061074.697265-.107422.169781-.033856.33381-.079785.5-.123047.110696-.028969.222602-.050863.332031-.083985.199232-.060101.392799-.133754.585938-.207031.07637-.02896.154914-.05297.230469-.083984.184764-.075943.36266-.162358.541015-.25.084044-.041157.169187-.079281.251954-.123047.15692-.083299.307753-.175437.458984-.267578.098815-.059937.198356-.117864.294922-.181641.118898-.078858.232813-.16378.347656-.248047.124654-.091087.250965-.179669.371094-.277344.075476-.061569.145338-.129418.21875-.193359.151758-.131826.302042-.263729.445312-.40625.044738-.044533.085108-.093211.128906-.138672.151552-.157271.302708-.315075.44336-.484375.076683-.092111.143777-.191942.216797-.287109.10459-.136699.213264-.270368.310547-.414063.106776-.157049.20194-.322385.298828-.486328.047006-.079538.099927-.155242.144531-.236328.002075-.003792.003789-.007922.005859-.011719.291082-.530995.528743-1.094342.708985-1.683593.084731-.277007.156833-.558049.214843-.845704.050635-.248283.084128-.497273.113282-.746093.004815-.041096.015294-.081955.019531-.123047.000195-.001922-.000194-.003937 0-.00586.06276-.61255.061828-1.224222 0-1.826171-.000264-.002568.000266-.005245 0-.007813-.005234-.051534-.017338-.10107-.023437-.152344-.028295-.233869-.061074-.467139-.107422-.697265-.033856-.169781-.079785-.3338105-.123047-.5000002-.028969-.1106958-.050863-.2226017-.083985-.3320313-.060101-.199231-.133754-.3927983-.207031-.5859375-.02896-.0763699-.05297-.1549142-.083984-.2304688-.075943-.1847642-.162358-.36266-.25-.5410156-.041157-.0840434-.079281-.1691866-.123047-.2519531-.083299-.1569209-.175437-.3077531-.267578-.4589844-.059937-.0988154-.117864-.1983559-.181641-.2949219-.078858-.1188983-.16378-.2328127-.248047-.3476562-.091087-.1246542-.179669-.2509646-.277344-.3710938-.061569-.0754764-.129418-.1453381-.193359-.21875-.131826-.1517581-.263729-.3020424-.40625-.4453124-.044533-.0447377-.093211-.0851081-.138672-.1289063-.157271-.1515519-.315075-.3027075-.484375-.4433594-.092111-.0766829-.191942-.1437768-.287109-.2167969-.136699-.10459-.270368-.2132646-.414063-.3105468-.157049-.1067765-.322385-.2019403-.486328-.2988282-.079538-.0470062-.155242-.0999275-.236328-.1445312-.003792-.0020749-.007922-.0037894-.011719-.0058594-1.282314-.7029412-2.752838-1.1035156-4.318359-1.1035156z" fill="#1e8bcd"/></svg>