<svg viewBox="0 0 24 24" xmlns="http://www.w3.org/2000/svg"><g transform="matrix(-1 0 0 1 24.001587 -3)"><g fill-rule="evenodd"><path d="m7.9735009 7.0039062c-.388468.0109721-.7352319.2464668-.8886719.6035157l-6.0027978 13.0000001c-.28194761.658671.20149 1.391028.9179688 1.390625h6c.5512343.000068.998115-.446813.9980469-.998047l.0028-13c-.0007886-.5621157-.4654741-1.0126662-1.027346-.9960938z" fill="#0063b1"/><path d="m11 13.998047a1.0013989 1.0013989 0 0 0 -1.0019531 1.001953v6a1.0013989 1.0013989 0 0 0 1.0019531 1.001953h11a1.0013989 1.0013989 0 0 0 .478516-1.880859l-11-6a1.0013989 1.0013989 0 0 0 -.478516-.123047z" fill="#3a3a38"/><path d="m1.999864 21h6l.0028-13z" fill="#83beec"/><path d="m10.999864 15v6h11z" fill="#fafafa"/></g><g transform="matrix(0 -1 -1 0 30.992857 29)"><path d="m21.5 16.5-2.995 2.992879-3.005-2.992879" fill="none" stroke="#1e8bcd" stroke-linecap="round" stroke-linejoin="round"/><path d="m13.5 11.007943c-.276142 0-.5.223858-.5.5s.223858.5.5.5h2c1.380712 0 2.5 1.119287 2.5 2.5h.0059v.423829 4.068228h1v-4.068228-.5c-.0059-2.154663-1.88341-3.373799-3.5059-3.423829z" fill="#1e8bcd" fill-rule="evenodd"/></g></g></svg>