<svg viewBox="0 0 24 24" xmlns="http://www.w3.org/2000/svg"><path d="m5.125 3 .875.875.875-.875zm6 0-3 3 3.580078 3.5800781a.99748709.99748709 0 0 1 0 1.4101559l-.714844.714844a.99748709.99748709 0 0 1 -1.4101559 0l-3.5800781-3.580078-1 1v11.875h12.095703c.071097-.208033.184423-.403172.347656-.566406l1.556641-1.558594v-.873047h-7.5c-.81476 0-1.5019531-.687193-1.5019531-1.501953s.6871931-1.501953 1.5019531-1.501953h7.5v-.873047l-1.556641-1.558594c-.578382-.578385-.578382-1.548567 0-2.126953.288977-.288979.680955-.439453 1.0625-.439453.166697 0 .333137.032074.494141.087891v-3.3593754l-4-3.7285156z" fill="#fafafa"/><path d="m5 2c-.2444339 0-.4594594.0975718-.6328125.2421875l.7578125.7578125h1.75l1-1zm6.955078 0a.99748709.99748709 0 0 1 -.25.4199219l-.580078.5800781h2.875v4c0 .554.446 1 1 1h4v2.087891c.207543.071951.404923.186172.570312.351562l.429688.429688v-3.619141-.2089844c0-.4506799.098038-.4254121-.605469-1.0664062l-3.30664-3.2382813c-.709525-.7368575-.710169-.7363281-1.09375-.7363281h-.332032-.662109zm-6.955078 7.125-1 1v10.875c0 .554.446 1 1 1h12.097656c-.111723-.322601-.11234-.677002-.001953-1h-12.095703zm14 5v.873047h.873047zm0 3.876953v.873047l.873047-.873047z" fill="#3a3a38"/><path d="m9.1289062 5-1 1h3.3710938c.277 0 .5-.223.5-.5s-.223-.5-.5-.5z" fill="#797774"/><path d="m7.09375 9.2226562c-.0548333.0802555-.09375.1723924-.09375.2773438 0 .277.223.5.5.5h.3710938z" fill="#797774"/><rect fill="#fb983b" height="1" ry=".5" width="5" x="12" y="9"/><rect fill="#fb983b" height="1" ry=".5" width="7" x="7" y="12"/><path d="m7.5 15c-.277 0-.5.223-.5.5s.223.5.5.5h2.591797c.133739-.364218.405495-.666009.75-.839844-.090133-.091608-.20226-.160156-.341797-.160156z" fill="#797774"/><path d="m10.285747 1.000121-4.285715 4.285714-4.285715-4.285714-.714285.714285 4.285714 4.285715-4.285714 4.285715.714285.714285 4.285715-4.285714 4.285715 4.285714.714285-.714285-4.285714-4.285715 4.285714-4.285715z" fill="#ed3d3b"/><path d="m15 7h4l-4-4z" fill="#fafafa" fill-rule="evenodd"/><path d="m18.505859 11.001953c-.127809 0-.25558.048549-.353515.146485-.195868.195869-.195868.513115 0 .708984l4.140625 4.142578h-10.792969c-.277 0-.5.223-.5.5s.223.5.5.5h10.792969l-4.140625 4.142578c-.195868.195869-.195868.513116 0 .708984.097935.097936.225706.146485.353515.146485s.257539-.048554.355469-.146485l4.992188-4.998046c.047015-.047013.084075-.103236.109375-.166016.02334-.057904.037109-.12105.037109-.1875s-.013769-.129596-.037109-.1875c-.0253-.06278-.06236-.119003-.109375-.166016l-4.992188-4.998046c-.09793-.09793-.22766-.146485-.355469-.146485z" fill="#1e8bcd"/><rect fill="#fb983b" height="1" rx=".5" width="5" x="7" y="18"/></svg>