<svg viewBox="0 0 24 24" xmlns="http://www.w3.org/2000/svg"><path d="m3 4v5.1054688 9.1113282.783203h.8085938 7.8652342c.108615-.108547.217577-.215672.326172-.324219.108595.108547.217557.215672.326172.324219h2.673828v-10c-1.047117-.0001047-1.999895-.9528834-2-2v-1c.000105-1.0471166.952883-1.9998953 2-2zm14.001953 0c.173959.0002428.330046.089654.498047.1347656.168001-.0451116.324088-.1345228.498047-.1347656zm2.998047 0c.356572.0000357.6992.1176026 1 .3046875v-.3046875zm1 4.6953125c-.3008.1870849-.643428.3046518-1 .3046875v10h.191406.808594v-.783203-9.1113282z" fill="#1e8bcd"/><path d="m2 3v17h7.5 1.455078 2.34961c.362311-.582535 1.004767-.999931 1.695312-1h-3.326172-2.173828-6.5v-15h12 2.001953.996094 2.001953 1v.3046875c.582535.3623119.999931 1.0047682 1 1.6953125v-3zm20 4c-.000069.6905443-.417465 1.3330006-1 1.6953125v.4101563 9.3945312.5h-.5-.308594-.191406c.690545.000069 1.333001.417465 1.695312 1h.304688v-2.751953-5.390625z"/><g fill="#fafafa"><path d="m4 5v1 2 1h11c-.690545-.000069-1.333001-.417465-1.695312-1h-8.304688v-2h8c.000036-.3565723.117603-.6991998.304688-1z"/><path d="m4 10v1 6 1h11v-1h-10v-6h10v-1z"/></g><path d="m15 5.0000005a1.0001 1.0001 0 0 0 -1 1v1a1.0001 1.0001 0 0 0 1 1h1v1 9.9999995 1h-1a1.0001 1.0001 0 0 0 -1 1v1a1.0001 1.0001 0 0 0 1 1h2a1.0001 1.0001 0 0 0 .5-.134766 1.0001 1.0001 0 0 0 .5.134766h2a1.0001 1.0001 0 0 0 1-1v-1a1.0001 1.0001 0 0 0 -1-1h-1v-1-9.9999995-1h1a1.0001 1.0001 0 0 0 1-1v-1a1.0001 1.0001 0 0 0 -1-1h-2a1.0001 1.0001 0 0 0 -.5.1347656 1.0001 1.0001 0 0 0 -.5-.1347656z" fill="#3a3a38"/><path d="m15 6.0000005v1h2v-1zm2 1v13.9999995h1v-13.9999995zm1 0h2v-1h-2zm0 13.9999995v1h2v-1zm-1 0h-2v1h2z" fill="#fafafa"/></svg>