<svg viewBox="0 0 24 24" xmlns="http://www.w3.org/2000/svg"><path d="m5 3v18h5.976562c2.120023-1.87144 3.016527-3.398892 3.425782-4.792969.205243-.699148.278814-1.390169.300781-2.123047-.06504-.590668-.08883-1.223783-.04297-1.910156-.0106-.238464-.01059-.447996-.01953-.625-.004-.07248-.000042-.145171.01172-.216797.000098-.0018-.000108-.0021 0-.0039.0016-.02652-.0039-.02843 0-.05664v-.002c.0026-.01862.02209-.02848.02539-.04687.04189-.14489.116001-.27843.216797-.390625.256329-.473186.684093-.841666 1.24414-.831996h.002c.763264.01506 1.403137.633939 1.443359 1.396484v.002c.04397.871902.07386 1.800796.04297 2.761718.157681.939743.444178 1.626648.835938 2.03711.145831.152793.332658.292536.537109.425781v-9.8945774l-4.000048-3.7285156zm13.777344 17.119141c-.35636.02375-.71519.07619-1.082032.162109-.593735.139055-1.21825.370652-1.876953.71875h3.181641v-.878906c-.07422.0025-.148252-.0069-.222656-.002z" fill="#fafafa"/><path d="m5 2c-.554 0-1 .446-1 1v18c0 .554.446 1 1 1h5.183594a1.0001 1.0001 0 0 1 .021484-.097656 1.0001 1.0001 0 0 1 .03125-.095703 1.0001 1.0001 0 0 1 .039063-.091797 1.0001 1.0001 0 0 1 .050781-.085938 1.0001 1.0001 0 0 1 .05664-.082031 1.0001 1.0001 0 0 1 .029297-.035156c.003-.0032.000914-.008499.003907-.011719a1.0001 1.0001 0 0 1 .007812-.007812c.07109-.072142.018231-.018059.019531-.017579a1.0001 1.0001 0 0 1 .072266-.068359 1.0001 1.0001 0 0 1 .013672-.011719c.16118-.134766.29858-.263277.447265-.394531h-5.976562v-18h9v4c0 .554.446 1 1 1h4v8.623047c.281406.183398.615707.347736 1 .494141v-6.226563-3.640625-.2089844c0-.4506799.098038-.4254121-.605469-1.0664062l-3.30664-3.2382813c-.709525-.7368575-.710169-.7363281-1.09375-.7363281h-.332032-.662109zm14 18.121094v.878906h-3.181641c-.490395.259154-1.00132.591845-1.535156 1h4.716797c.554 0 1-.446 1-1v-.830078c-.05069-.01448-.105973-.026326-.15625-.041016-.281796-.02259-.5625-.017322-.84375-.007812z" fill="#3a3a38"/><path d="m15 7h4l-4-4z" fill="#fafafa" fill-rule="evenodd"/><path d="m6.3847656 5c-.2135537 0-.3847656.1712119-.3847656.3847656v.2304688c0 .2135537.1712119.3847656.3847656.3847656h6.2304684c.213554 0 .384766-.1712119.384766-.3847656v-.2304688c0-.2135537-.171212-.3847656-.384766-.3847656zm0 2c-.2135537 0-.3847656.1712119-.3847656.3847656v.2304688c0 .2135537.1712119.3847656.3847656.3847656h6.2304684c.213554 0 .384766-.1712119.384766-.3847656v-.2304688c0-.2135537-.171212-.3847656-.384766-.3847656zm.1152344 2c-.277 0-.5.223-.5.5s.223.5.5.5h9.638672.001953 1.359375c.277 0 .5-.223.5-.5s-.223-.5-.5-.5zm0 2c-.277 0-.5.223-.5.5s.223.5.5.5h8.154297c-.004484-.160317-.007219-.323401-.013672-.451172-.004-.07248-.000043-.145171.011719-.216797.000098-.0018-.000108-.002106 0-.003906.0016-.02652-.0039-.028431 0-.056641v-.001953c.0026-.01862.02209-.028485.02539-.046875.022759-.078719.056764-.15224.097657-.222656zm11 0c.04405.126314.076676.257923.083984.396484v.001954c.009464.187653.013791.387393.021485.580078.224291-.049446.394531-.238938.394531-.478516 0-.277-.223-.5-.5-.5zm-11 2c-.277 0-.5.223-.5.5s.223.5.5.5h8.197266c-.032884-.319397-.048809-.654144-.052735-1zm11.130859.025391c.00348.312544.003853.628146-.003906.949218.213552-.05696.373047-.242622.373047-.474609 0-.230656-.15747-.416414-.369141-.474609zm-11.130859 1.974609c-.277 0-.5.223-.5.5s.223.5.5.5h7.945312c.085508-.331528.149254-.664558.1875-1zm11.40625.222656c.026891.072945.05271.147365.082031.214844-.010323-.079945-.038748-.151493-.082031-.214844zm-11.40625 1.777344c-.277 0-.5.223-.5.5s.223.5.5.5h7.097656c.208913-.345238.364125-.674492.501953-1zm0 2c-.277 0-.5.223-.5.5s.223.5.5.5h5.519531c.33192-.343444.632873-.678428.886719-1z" fill="#ed3d3b"/><path d="m7 5v1h3v-1zm2 2v1h3v-1zm-2 2v1h5v-1zm3 4v1h4v-1zm-2 2v1h4v-1zm3 4v1h1.019531c.33192-.343444.632873-.678428.886719-1z" fill="#3a3a38"/><path d="m11.473603 22.526341c5.226938-4.370563 4.807709-7.688322 4.637891-11.052586-.748906 5.401898 2.038932 7.334389 6.414603 7.709274-3.299738-1.04046-6.796542-.976274-11.052494 3.343312z" fill="none" stroke="#ed3d3b" stroke-linecap="round" stroke-linejoin="round" stroke-width=".948529"/></svg>