<svg viewBox="0 0 24 24" xmlns="http://www.w3.org/2000/svg"><g fill="#fafafa"><path d="m3 3v18h7v-2-2.5a6.5 6.5 0 0 1 6.5-6.5 6.5 6.5 0 0 1 3.451172 1h1.048828v-8z"/><path d="m8 3h13v1h-13z"/><path d="m3 8h1v13h-1z"/></g><g fill="#3a3a38"><path d="m3 2c-.554 0-1 .446-1 1v18c0 .554.446 1 1 1h7.5c-.277 0-.5-.223-.5-.5v-.5h-7v-18h18v8h1v-8c0-.554-.446-1-1-1z"/><g fill="#797774"><path d="m4 9v10h3v-.90625-3.228516-1.730468-3.228516-.90625z"/><path d="m9 4v3h.8574219 3.2675781 1.75 3.267578.857422v-3z"/><path d="m4 4h3v3h-3z"/><g fill="#c8c6c4"><path d="m5 10h1v8h-1z"/><path d="m-6 10h1v8h-1z" transform="rotate(-90)"/><path d="m-6 5h1v1h-1z" transform="rotate(-90)"/></g></g><path d="m16.5 11c-2.842075.0024-5.214286 2.169693-5.472656 5h1.003906c.2545-2.276321 2.178247-3.998276 4.46875-4 1.903272.0043 3.598001 1.205572 4.232422 3h-2.232422c-.277 0-.5.223-.5.5s.223.5.5.5h3c.06925 0 .135453-.01383.195312-.03906.179579-.075706.304688-.25319.304688-.46094v-3c0-.277-.223-.5-.5-.5s-.5.223-.5.5v.849609c-1.027231-1.470011-2.706643-2.346892-4.5-2.349609zm-5 6c-.277 0-.5.223-.5.5v3c0 .277.223.5.5.5s.5-.223.5-.5v-.867188c.99762 1.431399 2.64246 2.366305 4.5 2.367188 2.842075-.0024 5.214286-2.169693 5.472656-5h-1.003906c-.2545 2.276321-2.178247 3.998276-4.46875 4-1.937261-.0023-3.59894-1.24237-4.222656-3h2.222656c.277 0 .5-.223.5-.5s-.223-.5-.5-.5z" fill="#18ab50"/></g></svg>