<svg viewBox="0 0 24 24" xmlns="http://www.w3.org/2000/svg"><path d="m15 5v2l-4-.000001v12.000001h-2v-12.000001l-4 .000001v-2z" fill="#3a3a38" stroke-width=".7"/><path d="m15.251532 18.998817v-.693586q.290477-.646162.90107-1.298252.616521-.658018 1.671721-1.499806.942566-.752868 1.357533-1.310108.414966-.557241.414966-1.072985 0-.658018-.409038-1.013703-.409038-.355685-1.167834-.355685-.675802 0-1.096696.373469-.414967.367542-.492032 1.037416l-1.090768-.100777q.118561-1.007776.824004-1.594657.705443-.592809 1.855492-.592809 1.262683 0 1.968126.569097.705443.569097.705443 1.61244 0 .681731-.450535 1.363461-.450535.675802-1.345677 1.387173-1.221186.972207-1.695433 1.434598-.468319.456463-.663946.889213h4.286009v.865501z" fill="#1e8bcd"/></svg>