<svg viewBox="0 0 24 24" xmlns="http://www.w3.org/2000/svg"><path d="m4 3v18h9.037109c-1.227746-.913397-2.037109-2.361461-2.037109-4 0-.360311.133683-.678351.207031-1.017578-.607844.581165-1.150278 1.23346-1.5234372 2.021484l-.5332032 1.125-.984375-.761718c-.4483351-.347516-.7934119-.821048-.9863281-1.365235l-.1484375-.421875.2148438-.392578c1.7534129-3.19305 5.1091382-5.1827 8.7519532-5.1875h.001953c.681583.000196 1.347014.092534 2 .226562v-3.226562l-4-1-1-4z" fill="#fafafa" fill-rule="evenodd"/><path d="m4 2c-.554 0-1 .446-1 1v18c0 .554.446 1 1 1h11.115234c-.031619-.0309-.058832-.066161-.089843-.097656-.735968-.1471-1.405707-.46893-1.988282-.902344h-9.037109v-18h9v4c0 .554.446 1 1 1h4v3.226562c.338594.069499.672613.150506 1 .253907v-4.230469-.2089844c0-.4506799.098038-.4254121-.605469-1.0664062l-3.30664-3.2382813c-.709525-.7368575-.710169-.7363281-1.09375-.7363281h-.332032-.662109z" fill="#3a3a38"/><path d="m14 7h4l-4-4z" fill="#fafafa" fill-rule="evenodd"/><rect fill="#3a3a38" height="1" ry=".5" width="5" x="6" y="5"/><rect fill="#3a3a38" height="1" ry=".5" width="3" x="6" y="9"/><rect fill="#ed3d3b" height="1" ry=".5" width="5" x="11" y="9"/><path d="m6.5 12c-.277 0-.5.223-.5.5s.223.5.5.5h3.537109c.5196-.387907 1.075776-.719629 1.660157-1z" fill="#ed3d3b"/><path d="m6.5 15c-.277 0-.5.223-.5.5s.223.5.5.5h.8671875c.2007096-.34682.4130897-.683927.6503906-1z" fill="#3a3a38"/><rect fill="#ed3d3b" height="1" ry=".474576" width="2" x="6" y="18"/><circle cx="16" cy="17" fill="#fafafa" r="4"/><path d="m15.999953 12c-3.280109.0043-6.298117 1.792832-7.876953 4.667969.128945.363734.357439.676587.65625.908203 1.321789-2.791309 4.132254-4.572462 7.220703-4.576172-2.209139 0-4 1.790861-4 4s1.790861 4 4 4 4-1.790861 4-4c.008-2.079511-1.578821-3.81826-3.650391-4 2.961312.134551 5.605464 1.895565 6.871094 4.576172.301515-.233711.531909-.55005.660156-.917969-1.582074-2.87259-4.601418-4.657258-7.880859-4.658203zm0 2c1.656854 0 3 1.343146 3 3s-1.343146 3-3 3-3-1.343146-3-3 1.343146-3 3-3z" fill="#3a3a38"/><path d="m15.999953 15c-1.104569 0-2 .895431-2 2s.895431 2 2 2 2-.89543 2-2c.02896-.194894.02896-.392997 0-.587891-.174008.38903-.57545.625034-1 .587891-.552285 0-1-.447715-1-1-.03682-.425027.200049-.826612.589844-1-.195534-.02915-.39431-.02915-.589844 0z" fill="#1e8bcd"/></svg>