<svg viewBox="0 0 24 24" xmlns="http://www.w3.org/2000/svg"><path d="m17.5039 13.000005c-.0021 0-.0037-.0019-.0059-.002.000026-.0021.002-.0037.002-.0059-.06645 0-.1296-.01377-.1875-.03711-.06278-.0253-.119006-.06236-.166016-.109375l-2.996093-3.00577c-.09793-.09793-.146485-.2276607-.146485-.3554687 0-.127809.04856-.2555756.146485-.3535156.195869-.195868.513115-.195868.708984 0l2.140619 2.1542963v-8.7929696c0-.276999.223-.5.5-.5.0013 0 .0026-.00001.0039 0v.0078c.277 0 .5.223002.5.5v8.7929816l2.140625-2.1542967c.195869-.195868.513116-.195868.708985 0 .09794.09794.14649.2257066.14649.3535156 0 .127808-.04855.2575387-.146484.3554688l-2.996094 3.0058593c-.04701.04702-.103236.08407-.166016.109375-.0579.02334-.12105.03711-.1875.03711z" fill="#1e8bcd"/><path d="m7.9414062 9-3.9414062 11h1.1289062c.1226122 0 .2252515-.03683.3105469-.109375.090626-.07255.1516081-.155126.1835938-.25l.8886719-2.640625h4.3359372l.892578 2.648438c.04265.100453.101152.18303.175782.25.079965.066969.184558.101562.3125.101562h1.126953l-3.9355471-11zm.7363282 1.441406c.047977.206488.099034.397587.1523437.576172.05331.178585.1068466.334811.1601563.46875l1.5214846 4.513672h-3.6640628l1.5175782-4.505859c.04798-.133939.099034-.290165.1523437-.46875.05331-.178585.1068466-.371915.1601563-.583985z" fill="#3a3a38" stroke-width=".537864"/></svg>