<svg viewBox="0 0 24 24" xmlns="http://www.w3.org/2000/svg"><path d="m5 3v9h1 1a1.0001 1.0001 0 0 1 .9804688.802734l.0566406.28125.2363281-.158203a1.0001 1.0001 0 0 1 1.2617187.125l.7070318.707031.707031.707032a1.0001 1.0001 0 0 1 .125 1.261718c-.076187.11421-.095366.147731-.160157.244141.099603.01569.117915.023626.234376.041016a1.0001 1.0001 0 0 1 .851562.988281v1 1a1.0001 1.0001 0 0 1 -.802734.980469l-.28125.05664.158203.236329a1.0001 1.0001 0 0 1 .152343.726562h7.773438v-3.603516l-.455078.78711a1.6862314 1.6862314 0 0 1 -.53125.5625l-1.865234 1.232422a1.6862314 1.6862314 0 0 1 -2.613282-1.507813l.134766-2.232422a1.6862314 1.6862314 0 0 1 .222656-.742187l3.5-6.0625002 1.5-2.5976563a1.6862314 1.6862314 0 0 1 .083984-.1289063l-3.976562-3.7070312z" fill="#fafafa"/><path d="m5 2c-.554 0-1 .446-1 1v9.900391l.0195312-.097657a1.0001 1.0001 0 0 1 .9804688-.802734v-9h9v4c0 .554.446 1 1 1h3.220703l.671875-1.1640625a1.6862314 1.6862314 0 0 1 .701172-.6601563c-.067813-.0673492-.094297-.1055736-.199219-.2011718l-3.30664-3.2382813c-.709525-.7368575-.710169-.7363281-1.09375-.7363281h-.332032-.662109zm14.59375 4.1757812c.086005.0854178.204013.193102.253906.2539063-.058212-.0706625-.137777-.1524643-.248047-.2578125a1.6862314 1.6862314 0 0 0 -.005859.0039062zm.40625 9.4882808-1 1.732422v3.603516h-7.773438a1.0001 1.0001 0 0 1 -.277343.535156l-.464844.464844h8.515625c.554 0 1-.446 1-1z" fill="#3a3a38"/><path d="m15 3v4h3.796875l.074219-.1289062z" fill="#fafafa"/><g fill="#3a3a38"><path d="m18.852886 10.27785 1.732051 1-3.5 6.062178-1.732051-1z" stroke="#3a3a38" stroke-linecap="round" stroke-linejoin="round"/><path d="m20.352886 7.6797742 1.732051 1-1.5 2.5980758-1.732051-1z" stroke="#3a3a38" stroke-linecap="round"/><path d="m22.255845 9.3571623-.5.8660257.360402.142839-2 3.464102.866025.5 2.500001-4.330128-.866026-.4999998z"/><path d="m15.352886 16.340028-.133975 2.232051 1.866026-1.232051z" stroke="#3a3a38" stroke-linecap="round" stroke-linejoin="round"/></g><g fill="none" stroke="#1e8bcd" stroke-width=".5"><path d="m13.916016 14.441406c-.136269.07061-.241575.221565-.394532.234375l.689454-.234375c-.021111 0-.271892-.01191-.294922 0zm-.394532.234375c-.118996.009922-.200228-.135221-.3125-.175781-.459797 0-.991753-.000099-1.472656 0h-.236328c-.162557.013609-.317907.035026-.478516.048828a1.0001 1.0001 0 0 1 .052735 1.177734c-.076187.11421-.095366.147731-.160157.244141.099603.01569.117915.023626.234376.041016a1.0001 1.0001 0 0 1 .767578.591797c.544765-.338281 1.078899-.837573 1.58789-1.572266.02147-.116139.011978-.237529.017578-.355469z"/><path d="m12.444071 13.834734c.005.0072.255373.243013.220562.382255-.01532.06128-.04954.117466-.05992.179773-.11713 1.033768-.239689 1.946212-.239689 3.05614 0 .01424-.0067.226267 0 .239697.115419.455342.454381.707517.659141.958759.129784.04897.0365.07246 0 0-.01787-.03573.01787-.08412 0-.119848-.467113-.365628.000608.00027-.539306-.23968-.05911-.0099-.119848 0-.179773 0-.591709.06282-1.361015.0429-1.737791-.11984-.02527-.01263-.03995-.03995-.05992-.05992s-.04729-.03466-.05992-.05992c-.0016-.0031-.0016-.176638 0-.179773.01263-.02527.03466-.04729.05992-.05992.338285-.236911.436696-.254998.898856-.239689.420371.03049.607917.205084.898826.35952.01412.01412-.0089.04206 0 .05992.448441.616773.705564.948814 1.258403 1.204465"/></g><path d="m5 13-.349609 1.744141-1.478516-.986329-.707031.707032-.707032.707031.986329 1.478516-1.744141.349609v1 1l1.744141.349609-.986329 1.478516.707032.707031.707031.707032 1.478516-.986329.349609 1.744141h1 1l.349609-1.744141 1.478516.986329.707031-.707032.707032-.707031-.986329-1.478516 1.744141-.349609v-1-1l-1.744141-.349609.986329-1.478516-.707032-.707031-.707031-.707032-1.478516.986329-.349609-1.744141h-1zm.800781 1h.398438l.300781 1.5h.535156l.378906.378906 1.273438-.847656.28125.28125-.847656 1.273438.378906.378906v.535156l1.5.300781v.398438l-1.5.300781v.535156l-.378906.378906.847656 1.273438-.28125.28125-1.273438-.847656-.378906.378906h-.535156l-.300781 1.5h-.398438l-.300781-1.5h-.535156l-.378906-.378906-1.273438.847656-.28125-.28125.847656-1.273438-.378906-.378906v-.535156l-1.5-.300781v-.398438l1.5-.300781v-.535156l.378906-.378906-.847656-1.273438.28125-.28125 1.273438.847656.378906-.378906h.535156zm.199219 2a2 2 0 0 0 -2 2 2 2 0 0 0 2 2 2 2 0 0 0 2-2 2 2 0 0 0 -2-2zm0 1a1 1 0 0 1 1 1 1 1 0 0 1 -1 1 1 1 0 0 1 -1-1 1 1 0 0 1 1-1z" fill="#1e8bcd"/><path d="m5.800781 14h.398438l.300781 1.5h.535156l.378906.378906 1.273438-.847656.28125.28125-.847656 1.273438.378906.378906v.535156l1.5.300781v.398438l-1.5.300781v.535156l-.378906.378906.847656 1.273438-.28125.28125-1.273438-.847656-.378906.378906h-.535156l-.300781 1.5h-.398438l-.300781-1.5h-.535156l-.378906-.378906-1.273438.847656-.28125-.28125.847656-1.273438-.378906-.378906v-.535156l-1.5-.300781v-.398438l1.5-.300781v-.535156l.378906-.378906-.847656-1.273438.28125-.28125 1.273438.847656.378906-.378906h.535156zm.199219 2c-1.104569 0-2 .895431-2 2s.895431 2 2 2 2-.895431 2-2-.895431-2-2-2z" fill="#fafafa"/></svg>