<svg viewBox="0 0 24 24" xmlns="http://www.w3.org/2000/svg"><path d="m3 3h18v18h-18z" fill="#fafafa"/><path d="m2 2v1 3 4 1.875 3.228516 1.896484 3 1c0 .554.446 1 1 1h18c.554 0 1-.446 1-1v-1-3-1.888672-3.24414-1.867188-4-3-1h-1-18zm1 1h5 1 6 1 5v2 1 3 1 .869141 5.24414 3.886719 1h-5-1-6-1-5v-1-2-1-.894531-5.228516-.876953-1-3-1zm2.4394531 6c-.1821613.0085812-.3580798.0497019-.5234375.1210938.1649133-.0693316.3421371-.1125531.5234375-.1210938z"/><path d="m8 3v2h-5v1h5v3h1v-3h6v3h1v-3h5v-1h-5v-2h-1v2h-6v-2zm0 15v3h1v-3zm7 0v3h1v-3z" fill="#797774"/><g fill="#d42314"><path d="m3 9v1h3v7h-3v1h18v-1h-3v-7h3v-1zm4 1h4v7h-4zm5 0h5v7h-5z"/><path d="m2 9v9h1v-9zm19 0v9h1v-9z"/></g></svg>