<svg viewBox="0 0 24 24" xmlns="http://www.w3.org/2000/svg"><path d="m15.363916 7.7339711q-.09677.2063375-.232258.2991894-.125806.082535-.319355.082535-.183871 0-.396774-.1444361-.212903-.1444364-.503226-.3095065-.280645-.1753868-.658065-.3198231-.377419-.1444363-.870968-.1444363-.870967 0-1.316129.4539426-.435484.4539425-.435484 1.1864407 0 .4642594.232259.7737656.241935.2991895.629033.5261606.396773.216654.890321.392041.503227.175387 1.025808.381724.52258.196021 1.016129.474577.503225.268239.890322.680914.396774.412675.629032 1.011053.241936.598379.241936 1.45468 0 .928519-.290323 1.743553-.280645.815032-.832258 1.423728-.551613.598378-1.354839.949153-.793548.350773-1.819355.350773-.580645 0-1.16129-.134119-.570968-.123802-1.1032258-.361091-.5322581-.237288-1.0064516-.567428-.4741935-.33014-.8322581-.742815l.7548387-1.28961q.087097-.154753.232258-.247604.1548388-.09285.3290324-.09285.232258 0 .4741935.196021.2516129.185703.5806449.422991.329032.226971.764516.422991.435484.185704 1.035484.185704.870968 0 1.354839-.474575.483871-.474577.483871-1.403095 0-.526161-.241935-.856301-.232258-.33014-.619355-.546795-.387097-.226973-.890323-.381726-.493548-.16507-1.016129-.350774-.512903-.185703-1.016129-.443625-.4935484-.268239-.8806452-.701547-.3870969-.433309-.6290323-1.072956-.2322581-.6396463-.2322581-1.5887989 0-.7531319.2709678-1.4649963.2709678-.7221812.7935484-1.2792925.5225807-.5571113 1.2774184-.8872513.764517-.3404569 1.741936-.3404569 1.103227 0 2.041936.3817243.948387.3817245 1.616129 1.0729551z" fill="#3a3a38" stroke-width=".7"/></svg>