<svg viewBox="0 0 24 24" xmlns="http://www.w3.org/2000/svg"><path d="m3 6v15h9.335938l1.142578-3.431641c.213092-2.150895 1.938952-3.876749 4.089843-4.089843l3.431641-1.142578v-6.335938z" fill="#fafafa"/><path d="m3 2c-.554 0-1 .446-1 1v18c0 .554.446 1 1 1h9.044922c.01327-.0849.01485-.168762.04297-.253906v-.002l.248046-.744094h-9.335938v-15h18v6.335938l.742188-.246094c.083137-.027922.171575-.029876.257812-.044922v-9.044922c0-.554-.446-1-1-1z" fill="#3a3a38"/><path d="m22.279297 13c-.0744.000902-.148211.01342-.21875.03711l-4.228516 1.408203c-1.797579.09066-3.296061 1.589137-3.386719 3.386719l-1.408203 4.228516c-.184023.557236.345108 1.086367.902344.902344l4.228516-1.408203c1.797579-.09066 3.296061-1.589137 3.386719-3.386719l1.408203-4.228516c.154288-.464669-.193996-.943311-.683594-.939454zm-4.279297 3a2 2 0 0 1 1.433594.607422 2 2 0 0 1 .132812.148437 2 2 0 0 1 .433594 1.244141 2 2 0 0 1 -2 2 2 2 0 0 1 -.396484-.03906 2 2 0 0 1 -.002 0 2 2 0 0 1 -1.384719-1.05469 2 2 0 0 1 -.08008-.181641 2 2 0 0 1 -.10742-.384765 2 2 0 0 1 -.029297-.339844 2 2 0 0 1 .470703-1.289062 2 2 0 0 1 .136719-.146485 2 2 0 0 1 1.392578-.564453z" fill="#1e8bcd"/><path d="m2 2h20v4h-20z" fill="#3a3a38"/><g fill="#797774"><path d="m3 3h18v2h-18z"/><path d="m5 8v4h4v-4zm1 1h2v2h-2zm5 0v1h7v-1zm-6 5v4h4v-4zm1 1h2v2h-2zm5 0v1h2.927734c.181864-.364612.413276-.697598.681641-1z"/></g></svg>