<svg height="24" viewBox="0 0 6.3499998 6.3500001" width="24" xmlns="http://www.w3.org/2000/svg"><g transform="translate(0 -290.64999)"><g stroke-width=".264583"><path d="m1.984375 293.16353c-.1465792 0-.2645834.118-.2645834.26458v2.64584c0 .14657.1180042.26458.2645834.26458h3.7041666c.1465792 0 .2645834-.11801.2645834-.26458v-2.64584c0-.14658-.1180042-.26458-.2645834-.26458h-.396875v.66146c0 .14658-.1180041.26458-.2645833.26458h-2.38125c-.1465792 0-.2645833-.118-.2645833-.26458v-.66146z" fill="#797774" stroke="#3a3a38"/><path d="m2.9104166 292.76665h1.8520834c.1465791 0 .2645833.11801.2645833.26459v.60764c0 .14658-.1180042.26458-.2645833.26458h-1.8520834c-.1465791 0-.2645833-.118-.2645833-.26458v-.60764c0-.14658.1180042-.26459.2645833-.26459z" fill="#1e8bcd"/><path d="m3.1372762 291.70832c-.1256392 0-.18132.10976-.2268596.22686v1.36064h.2645834v-1.32292h1.3229166v1.32292h.2645834v-1.36064c0-.12564-.1012204-.22686-.2268596-.22686z" fill="#3a3a38"/></g><g fill="#fafafa" transform="matrix(.26458333 0 0 .26458333 0 290.64999)"><path d="m12 5v5h5v-5z" fill-rule="evenodd"/><path d="m10 15h1v1h-1z"/><path d="m12 15h1v1h-1z"/><path d="m14 15h1v1h-1z"/><path d="m10 17h1v1h-1z"/><path d="m12 17h1v1h-1z"/><path d="m14 17h1v1h-1z"/><path d="m10 19h1v1h-1z"/><path d="m12 19h1v1h-1z"/><path d="m14 19h1v1h-1z"/><rect height="2" rx="0" ry=".5" stroke="#3a3a38" stroke-linecap="round" stroke-linejoin="bevel" width="3" x="16.5" y="15.5"/></g><rect fill="#797774" height="3.17499996" rx=".26458333" stroke="#3a3a38" stroke-linecap="round" stroke-linejoin="bevel" stroke-width=".26458333" width="1.05833332" x=".396874995" y="293.163531635"/></g></svg>