<svg viewBox="0 0 24 24" xmlns="http://www.w3.org/2000/svg"><path d="m15 4.1484375v.8515625h-6v-.8496094a6 8.5 0 0 0 -1.5742188 1.8496094h.5742188v3h-1.734375a6 8.5 0 0 0 -.1660156 1h1.9003906v3h-1.9042969a6 8.5 0 0 0 .1757813 1h1.7285156v3h-.5644531a6 8.5 0 0 0 1.5644531 1.851562v-.851562h6v.849609a6 8.5 0 0 0 1.574219-1.849609h-.574219v-3h1.734375a6 8.5 0 0 0 .166016-1h-1.900391v-3h1.904297a6 8.5 0 0 0 -.175781-1h-1.728516v-3h.564453a6 8.5 0 0 0 -1.564453-1.8515625zm-6 1.8515625h6v3 1 3 1 3h-6v-3-1-3-1z" fill="#b8b8b8"/><path d="m2 2v3h6v-3zm7 0v3h6v-3zm7 0v3h6v-3zm-14 4v3h6v-3zm7 0v3 1 3 1 3h6v-3-1-3-1-3zm7 0v3h6v-3zm-14 4v3h6v-3zm14 0v3h6v-3zm-14 4v3h6v-3zm14 0v3h6v-3zm-14 4v3h6v-3zm7 0v3h6v-3zm7 0v3h6v-3z" fill="#fafafa"/><path d="m11 8h2v7h-2z" fill="#b8b8b8"/><path d="m12 2a7 9.5 0 0 0 -7 9.5 7 9.5 0 0 0 7 9.5 7 9.5 0 0 0 7-9.5 7 9.5 0 0 0 -7-9.5zm0 1a6 8.5 0 0 1 6 8.5 6 8.5 0 0 1 -6 8.5 6 8.5 0 0 1 -6-8.5 6 8.5 0 0 1 6-8.5z" fill="#ed3d3b"/><path d="m8 2v1.71875a7 9.5 0 0 1 1-.7910156v-.9277344zm7 0v.9296875a7 9.5 0 0 1 1 .7792969v-1.7089844zm-13 3v1h4.2988281a7 9.5 0 0 1 .609375-1zm15.097656 0a7 9.5 0 0 1 .59961 1h4.302734v-1zm-15.097656 4v1h3.0957031a7 9.5 0 0 1 .1582031-1zm16.75 0a7 9.5 0 0 1 .158203 1h3.091797v-1zm-16.75 4v1h3.25a7 9.5 0 0 1 -.1582031-1zm16.904297 0a7 9.5 0 0 1 -.158203 1h3.253906v-1zm-16.904297 4v1h4.9023438a7 9.5 0 0 1 -.5996094-1zm15.701172 0a7 9.5 0 0 1 -.609375 1h4.908203v-1zm-1.701172 2.28125a7 9.5 0 0 1 -1 .791016v.927734h1zm-8 .0098v1.70895h1v-.929688a7 9.5 0 0 1 -1-.779296z" fill="#797774"/><path d="m1 1v20 1h1 20 1v-21h-21zm1 1h20v19h-20z" fill="#3a3a38"/></svg>