<svg viewBox="0 0 24 24" xmlns="http://www.w3.org/2000/svg"><path d="m3 3v8h18v-8zm0 11v7h18v-7z" fill="#fafafa"/><path d="m3 2c-.554 0-1 .446-1 1v8h1v-1-1-6h5 1 6 1 5v6 1 1h1v-8c0-.554-.446-1-1-1zm-1 12v7c0 .554.446 1 1 1h18c.554 0 1-.446 1-1v-7h-1v3 1 3h-5-1-6-1-5v-3-1-3z" fill="#3a3a38"/><path d="m2 2h20v4h-20z" fill="#3a3a38"/><g fill="#1e8bcd"><rect height="1" ry=".5" width="4" x="1" y="12"/><rect height="1" ry=".5" width="4" x="7" y="12"/><rect height="1" ry=".5" width="4" x="13" y="12"/><rect height="1" ry=".5" width="4" x="19" y="12"/></g><path d="m3 3h18v2h-18z" fill="#797774" stroke-width=".67082"/></svg>