<svg viewBox="0 0 24 24" xmlns="http://www.w3.org/2000/svg"><path d="m22 3v5h-7v-5zm-1 1h-5v3h5zm1 6v5h-7v-5zm-14 0v5h-7v-5zm13 1h-5v3h5zm-14 0h-5v3h5zm15 6v5h-7v-5zm-1 1h-5v3h5z" fill="#3a3a38"/><path d="m21 4v3h-5v-3zm0 7v3h-5v-3zm-14 0v3h-5v-3zm14 7v3h-5v-3z" fill="#fafafa"/><g fill="#1e8bcd"><path d="m8.4941414 13.99414c-.449403.000092-.670587.54684-.347657.859375l3.4999996 3.5-1.646484 1.646485h4v-4l-1.646484 1.646484-3.4999996-3.5c-.09421-.09737-.223892-.152344-.359375-.152344z"/><path d="m8.4941414 11.00586c-.449403-.000092-.670587-.54684-.347657-.859375l3.4999996-3.5-1.646484-1.646485h4v4l-1.646484-1.646484-3.4999996 3.5c-.09421.09737-.223892.152344-.359375.152344z"/></g></svg>