<svg viewBox="0 0 24 24" xmlns="http://www.w3.org/2000/svg"><path d="m8.1626379 11.867076-2.965857-4.8670756h1.7122474q.2038389 0 .2955666.071574.1019193.071575.183455.1942739l2.0791576 3.6298577q.040768-.112475.081536-.214723.05096-.112476.1324953-.22495l1.7428222-3.1492841q.091725-.1431493.193647-.2249489.101919-.0818.244607-.0818h1.640903l-2.976048 4.775052 3.108544 5.224948h-1.722439q-.203838 0-.336334-.112474-.122304-.1227-.20384-.255624l-2.1097325-3.783231q-.081536.235174-.1834551.398773l-1.9058945 3.384458q-.0815357.143149-.2038388.255624-.1121115.112474-.3057586.112474h-1.6001359z" fill="#3a3a38" stroke-width=".714286"/><path d="m17.559131 4.0000089q.502005 0 .911247.1459418.4147.1407297.703898.4013403.294656.2606106.452895.6306776.163698.3648548.163698.8078927 0 .3804915-.114588.7088608-.114588.3231571-.305569.6202532-.190979.2918838-.447438.5733432-.256459.2762472-.540201.5577066l-1.538753 1.5376029q.245546-.07297.491092-.109456.245546-.04171.458352-.04171h1.642427q.20735 0 .332851.114668.130958.114673.130958.302313v.750557h-4.9v-.422188q0-.119881.04911-.255398.05457-.140731.185524-.260611l2.106235-2.0692483q.267372-.2658228.469265-.5055845.207351-.2397617.343765-.4743114.141871-.2397616.212806-.4795233.07093-.2449739.07093-.5107967 0-.4795234-.251003-.7244974-.251003-.2449739-.709354-.2449739-.196437 0-.360134.057334-.163697.057336-.294654.1563686-.13096.099035-.223721.234553-.09276.1355175-.141871.2918838-.0873.2397616-.240089.3127327-.147327.072971-.409243.031274l-.698435-.1146668q.08185-.5055845.294656-.8808637.212805-.3804914.529287-.6306775.321937-.2553984.736636-.3804915.4147-.1303052.889421-.1303052z" fill="#1e8bcd" stroke-width=".7"/></svg>