<?xml-stylesheet type="text/css" href="icons.css" ?>
<svg viewBox="0 0 24 24" xmlns="http://www.w3.org/2000/svg">
  <path
	 class="icn icn--shape-color"
     d="m 12,2.5 -0.630859,4.7871094 -1.8183598,-4.453 0.6308598,4.7871094 -2.931641,-3.8594 1.8554688,4.453 -3.8222657,-2.9316407 2.9316407,3.8222657 -4.453,-1.8554688 3.8594,2.931641 -4.7871094,-0.6308598 3.3594,1.3710938 c 0.3940116,-0.275956 0.821736,-0.504745 1.2890625,-0.650391 0.5656763,-0.182034 1.1652894,-0.271484 1.7851562,-0.271484 0.6536177,0 1.2774169,0.099036 1.8535159,0.308594 0.570975,0.19975 1.086787,0.498187 1.515625,0.894531 0.255877,0.233155 0.467515,0.506179 0.654297,0.797 h 2.271484 2.058594 l 0.345703,-0.47 -1.253906,-0.166015 1.97,-0.804688 c 0.141265,-0.05272 0.845953,-0.367248 1.074218,-0.439457 l 1.40625,-0.5742188 -4.78711,0.6308598 3.8594,-2.931641 -4.453,1.8554688 2.931641,-3.8222657 -3.822266,2.9316407 1.855469,-4.453 -2.931641,3.8594 0.63086,-4.7871094 -1.81836,4.453 z M 5.4082031,11.617188 2.5,12 4.9023438,12.316406 c 0.14949,-0.250778 0.3173201,-0.484288 0.5058593,-0.699218 z m -1.1074219,2.232421 -1.4667968,0.59961 1.3691406,-0.179688 c 0.023838,-0.145559 0.06512,-0.279782 0.097656,-0.419922 z M 5.3867188,15.515625 3.7617188,16.75 6.375,15.660156 c -0.062455,-0.0068 -0.1280944,2.75e-4 -0.1894531,-0.0098 -0.2658551,-0.04307 -0.532772,-0.08953 -0.7988281,-0.134731 z"
     fill="#fafafa"
	 stroke="#3a3a38"
	 stroke-linecap="round"
	 stroke-linejoin="round"
     />
  <path
	 class="icn icn--highlight-color"
     d="m 9.2675781,11 c -1.4119851,0.03079 -2.8168019,0.46711 -3.59375,1.957031 -0.2366026,0.42889 -0.4011865,0.931955 -0.4921875,1.509766 l 1.1660156,0.197265 c 0.2912033,0.04766 0.5178388,0.02871 0.6816407,-0.05466 0.1698685,-0.08342 0.3033229,-0.261168 0.4004031,-0.535181 0.3165409,-0.869856 0.7598622,-1.258874 1.7011594,-1.269531 0.5096056,-1e-6 0.9045236,0.139951 1.1835936,0.419921 0.27907,0.27997 0.417969,0.694161 0.417969,1.242188 0,0.303797 -0.03832,0.59503 -0.117188,0.875 -0.07887,0.274013 -0.197733,0.548252 -0.355468,0.822265 C 10.108098,16.432119 9.9180363,16.704502 9.7,16.978516 9.4630309,17.252529 9.2015668,17.539952 8.9042969,17.84375 L 5.390625,21.392578 C 4.9969842,21.863294 5,22.357478 5,23 h 8.172 v -1.287109 c 0,-0.214445 -0.07327,-0.386529 -0.219,-0.517579 -0.13941,-0.13105 -0.324027,-0.197265 -0.554562,-0.197265 -1.369314,-0.01477 -2.9289073,0.02015 -4.0549318,0.0328 l 2.2990718,-2.409756 c 1.193339,-1.186623 2.372259,-2.817174 2.347656,-4.216797 0,-0.506329 -0.09144,-0.967789 -0.273437,-1.384766 C 12.101892,11.480328 10.874176,11.046751 9.2675781,11 Z M 19.515625,11.125 13.97,18.603516 c -0.0094,0.523327 0.200723,1.155005 0.440156,1.421875 0.115268,0.08339 0.241325,0.125 0.38086,0.125 h 4.90625 V 23 h 1.910156 v -2.849609 h 0.947266 c 0.139534,0 0.247303,-0.04161 0.326171,-0.125 C 22.959727,19.941995 23,19.83984 23,19.720703 V 18.488281 H 21.607422 V 11.125 Z m 0.188544,2.715333 c 0.02701,1.6147 -0.0069,2.989323 -0.0069,4.647948 h -3.414063 z"
     fill="#83beec"
	 stroke="#1e8bcd"
	 stroke-linecap="round"
	 stroke-linejoin="round"
     />
</svg>
