<svg viewBox="0 0 24 24" xmlns="http://www.w3.org/2000/svg"><g transform="matrix(0 -1 1 0 0 24.000943)"><path d="m8.5289277 2.5289277 6.9710723.0000001v7.9421442h-6.9710723z" fill="#fafafa" stroke="#3a3a38" stroke-linecap="round" stroke-linejoin="round" stroke-width="1.057855"/><g fill="#1e8bcd" fill-rule="evenodd"><path d="m18.498047 12.990234c-.12976.0036-.253031.05754-.34375.150391l-3.957031 3.957031c-.260944.199523-.261914.592163-.002.792969l.0059.0039 3.953125 3.953125c.471254.490833 1.197864-.235777.707031-.707031l-3.146485-3.146484h6.285157v-1h-6.285157l3.146485-3.146485c.325269-.318004.09144-.869893-.363275-.857416z"/><path d="m5.5028897 12.990234c.12976.0036.253031.05754.34375.150391l3.9570313 3.957031c.260944.199523.261914.592163.002.792969l-.0059.0039-3.9531253 3.953125c-.471254.490833-1.197864-.235777-.707031-.707031l3.1464853-3.146484h-6.2851573v-1h6.2851573l-3.1464853-3.146485c-.325269-.318004-.09144-.869893.363275-.857416z"/></g></g></svg>