<svg viewBox="0 0 24 24" xmlns="http://www.w3.org/2000/svg"><path d="m17.490914 9.3196293q-.15625.2916648-.427082.2916648-.156249 0-.374998-.156249-.208331-.1666655-.520829-.3541643-.302081-.1979154-.739579-.3541644-.42708-.1666656-1.031243-.1666656-.572913 0-1.01041.1666656-.42708.156249-.718746.4479137-.281247.2812482-.42708.6666624-.145832.3749975-.145832.8124945 0 .572913.260415.947911.270831.374997.697912.645829.437497.260415.989577.458331.55208.197915 1.124993.406246.572913.208333 1.124992.479164.55208.260415.979161.666662.437496.395832.697912.979161.270831.583329.270831 1.427074 0 .906244-.291664 1.697906-.291665.781244-.854162 1.364575-.552079.583329-1.364575.91666-.812494.333331-1.854154.333331-1.260408 0-2.322901-.479163-1.052077-.489581-1.7916556-1.312492l.5520796-.895827q.07292-.114583.177082-.177083.114583-.07292.260415-.07292.197916 0 .437498.218749.249998.208332.614579.468746.364581.249999.874994.468748.52083.208331 1.239576.208331.604163 0 1.072909-.177081.468747-.177083.791662-.499998.333331-.322914.499997-.770828.177081-.45833.177081-1.01041 0-.614579-.270831-1.01041-.260414-.395831-.697912-.656246-.42708-.270831-.979161-.447914-.552079-.187499-1.124992-.385414-.572913-.197915-1.124992-.447913-.552081-.26041-.989578-.677074-.42708-.416664-.697912-1.031243-.260415-.61458-.260415-1.531241 0-.718745.270832-1.3958241.270831-.6874955.781245-1.2083255.52083-.5312465 1.270825-.8437445.760411-.3229146 1.739572-.3229146 1.093743 0 1.999987.364581.91666.3645809 1.583323 1.0624931z" fill="#1e8bcd" stroke-width="1.004564"/><path d="m15.483802 7.3330645q-.15554.2903396-.425141.2903396-.155539 0-.373294-.1555391-.207385-.1659083-.518463-.3525552-.300709-.1970162-.736219-.3525553-.42514-.1659084-1.026558-.1659084-.57031 0-1.005819.1659084-.42514.1555391-.71548.4458787-.27997.2799704-.42514.6636335-.14517.3732938-.14517.8088033 0 .57031.259232.9436038.269601.3732938.694741.6428952.43551.259232.985081.456248.549572.197016 1.119882.404401.57031.207386 1.119881.476987.549572.259232.974712.663633.435509.394033.694741.974712.269601.580679.269601 1.42059 0 .902127-.290339 1.690192-.29034.777695-.850281 1.358375-.549571.580679-1.358375.912496-.808803.331816-1.84573.331816-1.254682 0-2.312348-.476986-1.0472966-.487356-1.783515-1.306529l.5495715-.891757q.072585-.114062.1762776-.176278.114062-.07259.2592318-.07259.1970162 0 .4355095.217755.2488626.207386.6117871.466617.3629245.248863.8710185.466618.518464.207385 1.233944.207385.601418 0 1.068035-.176277.466617-.176278.788065-.497726.331816-.321447.497725-.767326.176277-.456248.176277-1.005819 0-.611787-.269601-1.00582-.259231-.394032-.694741-.653264-.42514-.269601-.974712-.445879-.549571-.186647-1.119881-.383663-.57031-.197016-1.119881-.445878-.549572-.259227-.9850814-.673998-.4251402-.414771-.6947413-1.026558-.2592318-.6117873-.2592318-1.5242833 0-.7154798.2696011-1.3894826.2696011-.684372.7776954-1.2028356.5184637-.5288329 1.265051-.8399111.756957-.3214475 1.731669-.3214475 1.088774 0 1.9909.3629246.912496.3629245 1.57613 1.0576658z" fill="#3a3a38" transform="matrix(1.0045641 0 0 1.0045641 -.063558 -.046904)"/></svg>