<?xml-stylesheet type="text/css" href="icons.css" ?>
<svg viewBox="0 0 24 24" xmlns="http://www.w3.org/2000/svg">
  <path
	 id="ShapeColor-line" 
     d="M 8.4375,2.5 2.5,8.4375 v 7.125 L 8.4375,21.5 h 7.125 L 21.5,15.5625 V 8.4375 L 15.5625,2.5 Z"
	 fill="#fafafa"
	 stroke="#3a3a38" 
	 stroke-linecap="round" 
	 stroke-linejoin="round"
     />
  <path
	 id="ShapeColor-line" 
     d="m 9.068359,2.5 1.8,4.75 h 2.3 l 1.8,-4.75 z m -1.1,0.5 -4.97,4.97 4.75,1.8 2.0061,-2.0 z m 8.1,0 -1.8,4.75 2.006,2.0 4.75,-1.8 z M 2.5,9.07 v 5.86 l 4.75,-1.8 v -2.3 z m 19,0 -4.75,1.7812496 v 2.3 l 4.75,1.8 z m -13.7675781,5.2 -4.75,1.8 4.97,4.97 1.8,-4.75 z m 8.5,0 -2.006,2.006 1.8,4.75 4.97,-4.97 z M 10.85,16.75 9.068359,21.5 h 5.863282 l -1.8,-4.75 z"
	 fill="#fafafa"
	 stroke="#3a3a38" 
	 stroke-linecap="round" 
	 stroke-linejoin="round"
     />
</svg>
