<svg viewBox="0 0 24 24" xmlns="http://www.w3.org/2000/svg"><path d="m6.5019531 2-4.5019531 12h1.2871094c.1400304 0 .2600094-.03999.3574218-.119141.1035008-.07915.1724548-.169936.2089844-.273437l.9199219-2.607422h5.1425781l.9238284 2.617188c.04871.109588.115936.200378.201172.273437.091324.073059.20935.109375.355468.109375h1.289063l-4.4941408-12zm.8398438 1.5703125c.0547947.2252666.1129454.4360345.1738281.6308594.060883.1948249.1227111.3656.1835938.5117187l1.8652343 5.2871094h-4.4394531l1.8613281-5.2792969c.0547946-.1461186.1129454-.3149406.1738281-.5097656.060883-.1948249.120758-.4092702.1816407-.640625z" fill="#3a3a38"/><path d="m11.497717 2h1.342466q.219178 0 .356164.1095891.136987.109589.200913.2739728l2.968037 8.4109581q.109589.283105.210045.621005.109589.328767.191782.694064.07306-.365297.164383-.694064.100457-.3379.210046-.621005l2.958904-8.4018258q.054794-.155251.200913-.2739724.146118-.1187218.356164-.1187218h1.342466l-4.502283 12h-1.497717z" fill="#3a3a38"/><g fill="#1e8bcd"><path d="m5.515625 15c-.125183-.0077-.2587892.03681-.3769531.154297l-2.9042969 2.90625c-.141888.136779-.236365.258099-.234375.439453-.00199.181354.092487.302674.234375.439453l2.9042969 2.90625c.4726555.469951 1.1777336-.239033.7050781-.708984l-2.1289062-2.132813h8.7597652c.287625.014834.52821-.215913.525391-.503906.0028-.287993-.237766-.518736-.525391-.503906h-8.7597652l2.1289062-2.132813c.3544916-.352463.047424-.840111-.328125-.863281z"/><path d="m18.484369 15c.125183-.0077.258789.03681.376953.154297l2.904297 2.90625c.141888.136779.236365.258099.234375.439453.002.181354-.09249.302674-.234375.439453l-2.904297 2.90625c-.472656.469951-1.177734-.239033-.705078-.708984l2.128906-2.132813h-8.759765c-.287625.014834-.52821-.215913-.525391-.503906-.0028-.287993.237766-.518736.525391-.503906h8.759765l-2.128906-2.132813c-.354492-.352463-.04742-.840111.328125-.863281z"/></g></svg>