<svg viewBox="0 0 24 24" xmlns="http://www.w3.org/2000/svg"><path d="m5 3v4.5859375l1.2929688-1.2929687c.1875117-.1875363.4418322-.2929177.7070312-.2929688.0000511-.265199.1054325-.5195195.2929688-.7070312l1.7929687-1.7929688-.5-.5zm6.414062 0-.5.5 1.792969 1.7929688c.629556.6299945.183606 1.7066816-.707031 1.7070312h-4v4c-.0003496.890637-1.0770367 1.336587-1.7070312.707031l-1.2929688-1.292969v10.585938h11v-3c0-1.850301 1.284214-3.405591 3-3.855469v-7.4160154l-4-3.7285156zm7.585938 13.271484c-.488159.280039-.845254.754088-.958984 1.328125.116772-.560774.477366-1.034195.958984-1.318359z" fill="#fafafa"/><path d="m5 3c-.554 0-1 .446-1 1v3.5859375l.5.5.5-.5v-3.5859375h3.5859375l.5-.5-.5-.5zm6.414062 0-.5.5.5.5h2.585938v4c0 .554.446 1 1 1h4v5.144531c.321767-.084367.653007-.144531 1-.144531v-3.109375-2.640625-.2089844c0-.4506799.098038-.4254121-.605469-1.0664062l-3.30664-3.2382813c-.709525-.7368575-.710169-.7363281-1.09375-.7363281h-.332032-.662109zm-6.914062 6.9140625-.5.4999995v10.585938c0 .554.446 1 1 1h11v-1h-11v-10.585938zm15.09375 6.1269535c-.214474.043124-.411167.125727-.59375.230468v.0098c.185114-.109221.384071-.195352.599609-.240234-.0019.000371-.004-.000376-.0059 0z" fill="#3a3a38"/><path d="m15 8h4l-4-4z" fill="#fafafa" fill-rule="evenodd"/><path d="m20 15c1.656854 0 3 1.343146 3 3v4 1h-2v-1-4c0-.552285-.447715-1-1-1s-1 .447715-1 1v4h-2v-4c0-1.656854 1.343146-3 3-3z" fill="#ed3d3b"/><g fill="#1e8bcd"><g><path d="m-19 22h2v1h-2z" transform="scale(-1 1)"/><g fill-rule="evenodd"><path d="m5 9 2-2v4z"/><path d="m4 9-2-2v4z"/><path d="m10 4 2 2h-4z"/><path d="m10 3 2-2h-4z"/></g></g><path d="m23 22h-2v1h2z"/></g></svg>