<?xml-stylesheet type="text/css" href="icons.css" ?>
<svg viewBox="0 0 24 24" xmlns="http://www.w3.org/2000/svg">
  <path
	 class="icn icn--shape-color"
     d="m14.4 2.5-2.0 4.7198487-1.4-3.8-1.2 3.96-2.6649171-3.22 2.92 5.22-4.92-3.3 3.8 4.5-4.8-1.8 2.86 2.2-4.43 1.4 5.1.73755-5.1721192 2.321655 5.7241211-.860474-2.1523438 4.288452 4.0402827-3.379272-2.9293207 4.805664 4.0124517-3.342163-1.018189 3.736449 2.041015-4.566771 1.370729 5.457397 1.185181-5.580322 2.662596 3.070801-.990355-3.305054 4.051879 2.363403-4.849731-3.523072 5.851684 1.08777-3.915039-3.056885 3.56018-.783935-4.242065.218017 4.304687-3.2772216-4.854369 1.8160406 3.209961-3.6297614-5.097901.9532471 2.929322-3.0406494-4.014772 3.5810547 1.018189-5.8934326z"
     fill="#fafafa"
	 stroke="#3a3a38"
	 stroke-linecap="round"
	 stroke-linejoin="round"
     />
</svg>
