<svg viewBox="0 0 24 24" xmlns="http://www.w3.org/2000/svg"><path d="m10.900391 2-5.900391 16h1.6875c.1835268 0 .3391262-.052673.4667969-.158203.13565-.105531.2275139-.227234.2753906-.365235l1.203125-3.476562h6.7382815l1.214844 3.488281c.063835.146119.151959.267822.263671.365235.119692.097412.275291.146484.466797.146484h1.6875l-5.888672-16zm1.101562 2.09375c.071815.3003552.146768.5800772.226563.8398438.079794.2597666.16044.4887687.240234.6835937l2.207031 6.3828125h-5.347656l2.207031-6.3710938c.071815-.1948249.146769-.421874.226563-.6816406s.16044-.5450427.240234-.8535156z" fill="#3a3a38" transform="matrix(1.00000000415 0 0 .99999999894 .00000018114 .00000010385)"/><g fill="#1e8bcd"><path d="m18.484369 15c.125183-.0077.258789.03681.376953.154297l2.904297 2.90625c.141888.136779.236365.258099.234375.439453.002.181354-.09249.302674-.234375.439453l-2.904297 2.90625c-.472656.469951-1.177734-.239033-.705078-.708984l2.128906-2.132813h-6.759765c-.287625.014834-.52821-.215913-.525391-.503906-.0028-.287993.237766-.518736.525391-.503906h6.759765l-2.128906-2.132813c-.354492-.352463-.04742-.840111.328125-.863281z" transform="translate(1 1)"/><path d="m18.484369 15c.125183-.0077.258789.03681.376953.154297l2.904297 2.90625c.141888.136779.236365.258099.234375.439453.002.181354-.09249.302674-.234375.439453l-2.904297 2.90625c-.472656.469951-1.177734-.239033-.705078-.708984l2.128906-2.132813h-6.759765c-.287625.014834-.52821-.215913-.525391-.503906-.0028-.287993.237766-.518736.525391-.503906h6.759765l-2.128906-2.132813c-.354492-.352463-.04742-.840111.328125-.863281z" transform="matrix(-1 0 0 1 22.999994 1)"/></g></svg>