<svg viewBox="0 0 24 24" xmlns="http://www.w3.org/2000/svg"><g transform="matrix(-1 0 0 1 24.026853 0)"><text fill="#1e8bcd" font-family="sans-serif" font-size="18.365749" letter-spacing="0" transform="scale(.99242005 1.0076378)" word-spacing="0" x="1.979405" y="13.893881"><tspan fill="#1e8bcd" font-family="Carlito" font-weight="bold" x="1.979405" y="13.893881">A</tspan></text><g fill="#3a3a38" fill-rule="evenodd"><path d="m20.497271 21.999939c-.155997-.0025-.301909-.07758-.394531-.203125l-2.947266-2.951171c-.472077-.472657.237631-1.18041.708984-.707032l2.142579 2.146485.0078-17.785096c-.0096-.6761613 1.009563-.6761613 1 0l-.0078 17.785096 2.15039-2.146485c.472612-.489321 1.197003.239084.705078.708985l-2.960937 2.957031c-.09632.125349-.246235.197773-.404297.195312z"/><path d="m12.515625 1.9921875c-.252395 0-.5048.1697318-.5.5078125l-.002 5.7910156.998047 2.7812504.004-8.572266c.0048-.3380807-.247605-.5078125-.5-.5078125zm-.505859 13.0078125-.002 5.285156-2.1425776-2.146484c-.471307-.473378-1.1810154.234374-.7089384.707031l2.947266 2.951172c.092622.125545.238534.200625.394531.203125.158062.0025.307977-.06996.404297-.195312l2.960937-2.957032c.491925-.469901-.232466-1.198305-.705078-.708984l-2.150391 2.146484.001954-5.285156a1.0001 1.0001 0 0 1 -.009766 0z"/><path d="m4.497271 21.999939c-.155997-.0025-.301909-.07758-.394531-.203125l-2.947266-2.951171c-.47207704-.472657.237631-1.18041.708984-.707032l2.142579 2.146485.0078-4.785096c-.0096-.676161 1.009563-.676161 1 0l-.0078 4.785096 2.15039-2.146485c.472612-.489321 1.197003.239084.705078.708985l-2.960937 2.957031c-.09632.125349-.246235.197773-.404297.195312z"/></g></g></svg>