<svg viewBox="0 0 24 24" xmlns="http://www.w3.org/2000/svg"><path d="m5 3v18h14v-14.2714844l-4-3.7285156z" fill="#1e8bcd"/><path d="m5 2c-.554 0-1 .446-1 1v18c0 .554.446 1 1 1h14c.554 0 1-.446 1-1v-10.109375-3.6412209-.2079239c0-.4506799.09887-.4265951-.604637-1.0675892l-3.307389-3.2370335c-.709525-.7368575-.711223-.7368575-1.094804-.7368575h-.331557-.661613zm0 1h9v4c0 .554.446 1 1 1h4v13h-14z" fill="#3a3a38"/><g fill="#fafafa"><path d="m15 7h4l-4-4z" fill-rule="evenodd"/><rect height="2" ry="1" width="6" x="9" y="10"/><rect height="1" ry=".5" width="10" x="7" y="14"/></g></svg>