<svg viewBox="0 0 24 24" xmlns="http://www.w3.org/2000/svg"><path d="m0 3h23v19h-23z" fill="#0063b1"/><path d="m1 4h21v16h-21z" fill="#83beec" stroke-width=".898933"/><g fill-rule="evenodd"><path d="m2 2v1 2 4 9 1h1 4.5c-.114601 0-.110323.0015.033203.0039.02801.000526.056029-.000126.083984-.002.00196-.000129.0039.000125.00586 0 1.4831602.0028 2.709734 1.108049 2.861328 2.583985.03085.304261.199223.577682.457031.742187-.09337-.05953-.08529-.05209.0293.01953.323938.202061.734656.202061 1.058594 0 .115349-.07209.124706-.08018.0293-.01953.257808-.164505.426177-.437926.457031-.742187.151591-1.47594 1.378166-2.5812 2.861328-2.583985.002.000125.0039-.000129.0059 0 .02796.0018.05598.0025.08399.002.14357-.002386.147862-.0039.033151-.0039h4.5 1v-1-9-4-2-1h-1-.5-4c-.111952 0-.08042.00103-.05078.00195-.0065-.0003397-.01304.0003131-.01953 0-.01626-.0010456-.032541-.0016968-.048831-.00195-1.603462.0004973-2.987235.8357751-3.880859 2.0566406-.893624-1.2208655-2.2773966-2.0561433-3.8808594-2.0566406-.01629.0002532-.03257.0009045-.048828.00195-.00654.0003154-.013013-.0003411-.019531 0 .0295165-.0009157.0608305-.0092579-.0507816-.00195h-4-.5z" fill="#3a3a38"/><path d="m15.380859 3c-1.98937.000617-3.65612 1.505416-3.859375 3.484375-.00796.00504-.013484.010625-.021484.015625v.5 2 12.5c.008-.005.01352-.01058.02148-.01563.203255-1.978959 1.870005-3.483758 3.859375-3.484375.0228.0011.04559.0024.06836.0039.017782-.000303.032671-.003895.050785-.003895h4.5v-9-4-2h-.5-4c-.01811 0-.033.00361-.05078.00391-.022771-.0015037-.04556-.00281-.068361-.00391z" fill="#fafafa"/><path d="m7.619141 3c1.98937.000617 3.65612 1.505416 3.859375 3.484375.00796.00504.013484.010625.021484.015625v.5 2 12.5c-.008-.005-.01352-.01058-.02148-.01563-.203259-1.978954-1.870009-3.483753-3.859379-3.48437-.0228.0011-.04559.0024-.06836.0039-.017778-.000308-.032667-.0039-.050781-.0039h-4.5v-9-4-2h.5 4c.01811 0 .033.00361.05078.00391.02277-.0015.04556-.00281.06836-.00391z" fill="#fafafa"/></g><path d="m11 5h1v17h-1z" fill="#3a3a38" stroke-width="1.06066"/></svg>