<svg viewBox="0 0 24 24" xmlns="http://www.w3.org/2000/svg"><path d="m5 3v18h6v-8c0-.554.446-1 1-1h7v-9z" fill="#fafafa"/><path d="m5 2c-.554 0-1 .446-1 1v18c0 .554.446 1 1 1h6v-1h-6v-18h14v9h1v-9c0-.554-.446-1-1-1z" fill="#3a3a38"/><path d="m13 16c-.554 0-1 .446-1 1v5c0 .554.446 1 1 1h9c.554 0 1-.446 1-1v-5c0-.554-.446-1-1-1h-4-1zm0 1h4 1 4v2 1 2h-4-1-4v-2-1z" fill="#3a3a38"/><path d="m12 13v4h1 4 1 4 1v-4zm1 1h4v2h-4zm5 0h4v2h-4z" fill="#0063b1"/><path d="m13 17h9v5h-9z" fill="#fafafa"/><path d="m17 17v2h-4v1h4v2h1v-2h4v-1h-4v-2z" fill="#797774"/><path d="m13 14h9v2h-9z" fill="#83beec"/><g fill="#1e8bcd"><path d="m17 14v2h-4v1h4 5v-1h-4v-2z"/><path d="m11.5 6c-3.0375661 0-5.5 2.4624339-5.5 5.5.0008697.166966.0093396.333805.0253906.5h1.0078125c-.020346-.165921-.0314308-.332846-.0332031-.5 0-2.4852814 2.0147186-4.5 4.5-4.5 2.5.5 2.744141 1.5 4.744141 4h-3.744141c-.277 0-.5.223-.5.5s.223.5.5.5h5c.277 0 .5-.223.5-.5v-5c0-.277-.223-.5-.5-.5s-.5.223-.5.5v3.744141c-1-1.5000003-2.999004-4.1982498-5.5-4.244141z"/></g></svg>