<svg viewBox="0 0 24 24" xmlns="http://www.w3.org/2000/svg"><path d="m4 3c-.554 0-1 .446-1 1v7.095703 8.904297c0 .554.446 1 1 1h9.185547.355469c-.276071-.30731-.521639-.640902-.730469-1h-.212891-8.597656v-8.162109-7.837891h8.402344 8.597656v7.919922c.360079.205479.691729.449453 1 .720703v-8.640625c0-.554-.446-1-1-1h-9.185547z" fill="#3a3a38"/><path d="m4 4v7.837891 8.162109h8.597656.212891c-.514348-.884458-.814453-1.907819-.814453-3a1.004037 1.004037 0 0 1 0-.003906c.000757-.227986.024741-.405217.035156-.513672a1.004037 1.004037 0 0 1 0-.015625c-.000003-.001552.001951-.002356.001953-.003906.000672-.007309.001454-.03082.001953-.03711a1.004037 1.004037 0 0 1 .265625-.603515c.250711-.459676.648178-.826323 1.199219-.826172.799767-.000219 1.470024.670761 1.46875 1.470703a1.004037 1.004037 0 0 1 -.005859.107422c-.017493.159059-.041219.234163-.058594.298828a1.004037 1.004037 0 0 1 .003906.080078c.000408 1.692999 1.351922 3.043377 3.044922 3.042969 1.692408-.000408 3.042561-1.350561 3.042969-3.042969.000372-1.545115-1.182519-2.681901-2.666016-2.890625l.34375.441406a1.004037 1.004037 0 0 0 .001953 0c.406943.522629.496415 1.452805-.083984 2.033203-.289354.289366-.680505.441407-1.0625.441407-.382069 0-.773142-.152049-1.0625-.441407a1.004037 1.004037 0 0 1 -.070313-.076171l-2.005859-2.47461c-.072213-.089131-.062947-.205427-.113281-.304687a1.004037 1.004037 0 0 1 -.269532-.675782c-.002276-.376713.131537-.73006.361329-1.013671l2.005859-2.4746099a1.004037 1.004037 0 0 1 .070312-.0761719c.289356-.2893574.680451-.4414062 1.0625-.4414062.382021 0 .773123.1519996 1.0625.4414062.48589.4858882.438104 1.1770408.191407 1.7089848.808024.108102 1.559875.382399 2.238281.769531v-7.919922h-8.597656z" fill="#fafafa"/><g fill="#1e8bcd"><path d="m3 18c-.554 0-1 .446-1 1v2c0 .554.446 1 1 1h2c.554 0 1-.446 1-1v-2c0-.554-.446-1-1-1zm0 1h2v2h-2z"/><path d="m3 2c-.554 0-1 .446-1 1v2c0 .554.446 1 1 1h2c.554 0 1-.446 1-1v-2c0-.554-.446-1-1-1zm0 1h2v2h-2z"/><path d="m20 2c-.554 0-1 .446-1 1v2c0 .554.446 1 1 1h2c.554 0 1-.446 1-1v-2c0-.554-.446-1-1-1zm0 1h2v2h-2z"/></g><g fill="#fafafa"><path d="m3 3h2v2h-2z"/><path d="m20 3h2v2h-2z"/><path d="m3 19h2v2h-2z"/></g><path d="m17.507812 10.003906c-.127809 0-.255581.04855-.353515.146485l-2.005859 2.474609c-.090425.111598-.137504.24518-.136719.375h.02539c.004231.122984.047376.248068.132813.353516l2.005859 2.474609c.097934.097935.225707.146484.353516.146484.12781 0 .255575-.048544.353515-.146484.195869-.195869.17018-.488472 0-.707031l-1.478515-1.896485c.489505-.206092 1.014795-.317613 1.548828-.320312 2.235567.000539 4.047414 1.813261 4.046875 4.048828-.000539 2.234804-1.812071 4.046336-4.046875 4.046875-2.235567.000539-4.048289-1.811308-4.048828-4.046875-.03615-.214054.031257-.221943.060547-.488281.000412-.256898-.207946-.46526-.464844-.464844-.256899-.000416-.46526.207945-.464844.464844.000299.01764.001607.035244.003906.052734-.0013-.0039-.002706-.007799-.003906-.011719-.01.126059-.034736.367687-.035156.494141 0 2.761424 2.238576 5 5 5s5-2.238576 5-5-2.238576-5-5-5c-.384884.001442-.76624.051931-1.138672.140625l1-1.283203c.17018-.218559.195869-.511162 0-.707031-.097934-.097935-.225705-.146485-.353516-.146485z" fill="#0063b1"/></svg>