<svg viewBox="0 0 24 24" xmlns="http://www.w3.org/2000/svg"><path d="m2 12c-.554 0-1 .446-1 1v8c0 .554.446 1 1 1h14c.554 0 1-.446 1-1v-8c0-.554-.446-1-1-1h-2-1-8-1zm0 1h1 12 1v1 6 1h-1-12-1v-1-6z" fill="#ed8733"/><path d="m2 13h14v8h-14z" fill="#f8db8f"/><path d="m9 14a2 2 0 0 0 -2 2v3c0 .554.446 1 1 1h1c.554 0 1-.446 1-1v-1.271484a2 2 0 0 0 1-1.728516 2 2 0 0 0 -2-2z" fill="#ed8733"/><path d="m9 15a1 1 0 0 0 -1 1v3h1v-2a1 1 0 0 0 1-1 1 1 0 0 0 -1-1z" fill="#fafafa"/><path d="m18 2a5 5 0 0 0 -5 5v5h1v-5a4 4 0 0 1 4-4 4 4 0 0 1 4 4v5h1v-5a5 5 0 0 0 -5-5z" fill="#ed8733"/></svg>