<svg viewBox="0 0 24 24" xmlns="http://www.w3.org/2000/svg"><path d="m11 15h11v7h-11z" fill="#fafafa"/><path d="m3 6v15h6v-9c0-.554.446-1 1-1h11v-5z" fill="#fafafa"/><path d="m3 2c-.554 0-1 .446-1 1v18c0 .554.446 1 1 1h6v-1h-6v-15h18v5h1v-8c0-.554-.446-1-1-1z" fill="#3a3a38"/><g fill="#797774"><path d="m5 8v4h4v-4zm1 1h2v2h-2z"/><path d="m5 14v4h4v-4zm1 1h2v2h-2z"/><path d="m11 9h7v1h-7z"/></g><path d="m10 13v10h13v-10zm1 2h11v7h-11z" fill="#3a3a38"/><path d="m2 2h20v4h-20z" fill="#3a3a38"/><path d="m10 12v1 1 1h1v-1-1h5 1 5v1 1h1v-1-1-1z" fill="#0063b1"/><path d="m3 3h18v2h-18z" fill="#797774" stroke-width=".67082"/><path d="m11 13h11v1h-11z" fill="#83beec" stroke-width=".650444"/><path d="m16 13v1h-5v1h11v-1h-5v-1z" fill="#1e8bcd"/><path d="m16 15v3h-5v1h5v3h1v-3h5v-1h-5v-3z" fill="#797774"/></svg>