<?xml-stylesheet type="text/css" href="icons.css" ?>
<svg viewBox="0 0 24 24" xmlns="http://www.w3.org/2000/svg">
  <path
     class="icn icn--line-color" 
	 d="M 2.5 3.5 L 21.5 3.5 L 2.5 3.5 z M 2.5 6.5 L 21.5 6.5 L 2.5 6.5 z M 2.5 9.5 L 5.5 9.5 L 2.5 9.5 z M 18.5 9.5 L 21.5 9.5 L 18.5 9.5 z M 2.5 12.5 L 5.5 12.5 L 2.5 12.5 z M 18.5 12.5 L 21.5 12.5 L 18.5 12.5 z M 2.5 15.5 L 5.5 15.5 L 2.5 15.5 z M 18.5 15.5 L 21.5 15.5 L 18.5 15.5 z M 2.5 18.5 L 21.5 18.5 L 2.5 18.5 z M 2.5 21.5 L 21.5 21.5 L 2.5 21.5 z "
     stroke="#3a3a38" 
	 stroke-linecap="round" 
	 stroke-linejoin="round"
     />
  <path
	 class="icn icn--highlight-color-2"
     d="m 6.5,7.5 h 11 v 10 h -11 z"
     fill="#f8db8f" 
     stroke="#ed8733" 
	 stroke-linecap="round" 
	 stroke-linejoin="round"
     />
  <path
	 class="icn icn--highlight-color"  
     d="m 7.5,8.5 h 9 v 8 h -9 z"
     fill="#83beec" 
     stroke="#1e8bcd" 
	 stroke-linecap="round" 
	 stroke-linejoin="round"
     />
</svg>
