<svg viewBox="0 0 24 24" xmlns="http://www.w3.org/2000/svg"><g fill="#1e8bcd"><path d="m19.5 8.0019531c-.127809 0-.255581.0485494-.353516.1464844-.195868.195869-.195868.5131154 0 .7089844l3.140625 3.1406251h-10.792968c-.277 0-.5.223-.5.5v.001953h.005859v.001953c0 .277.223.5.5.5h10.792969l-3.140625 3.140625c-.195868.195869-.195868.513116 0 .708984.097935.097935.225706.146485.353515.146485.127808 0 .257539-.048554.355469-.146485l3.992188-3.996093c.047015-.047013.084075-.103236.109375-.166016.02334-.057904.037109-.12105.037109-.1875v-.001953h-.005859v-.001953c0-.06645-.01377-.129596-.03711-.1875-.0253-.06278-.06236-.119003-.109375-.166016l-3.992187-3.9960935c-.09793-.09793-.227661-.1464844-.355469-.1464844z"/><path d="m5.494141 8.0019531c.127809 0 .255581.048549.353516.1464844.195868.195869.195868.5131154 0 .7089844l-3.140625 3.1406251h10.792968c.277 0 .5.223.5.5v.002h-.0059v.002c0 .277-.223.5-.5.5h-10.792928l3.140625 3.140625c.195868.195869.195868.513116 0 .708984-.09793.09793-.225706.146485-.353515.146485-.127808 0-.257539-.04855-.355469-.146485l-3.992188-3.996093c-.04702-.04701-.08408-.103236-.109375-.166016-.02334-.0579-.03711-.12105-.03711-.1875v-.002h.00586v-.002c0-.06645.01377-.129596.03711-.1875.0253-.06278.06236-.119003.109375-.166016l3.992187-3.9960935c.09793-.09793.227661-.1464844.355469-.1464844z"/><path d="m16.995164 19.502977c0-.127809-.04855-.255581-.146484-.353516-.195869-.195868-.513116-.195868-.708985 0l-3.140625 3.140625v-10.792968c0-.277-.223-.5-.5-.5h-.002v.0059h-.002c-.277 0-.5.223-.5.5v10.792969l-3.140625-3.140625c-.195869-.195868-.513116-.195868-.708984 0-.09793.09793-.146485.225706-.146485.353515 0 .127808.04855.257539.146485.355469l3.996093 3.992188c.04701.04702.103236.08408.166016.109375.0579.02334.12105.03711.1875.03711h.002v-.0059h.002c.06645 0 .129596-.01377.1875-.03711.06278-.0253.119003-.06236.166016-.109375l3.996094-3.992147c.09793-.09793.146484-.227661.146484-.355469z"/><path d="m16.995164 5.497118c0 .127809-.04855.255581-.146484.353516-.19587.195868-.513116.195868-.708985 0l-3.140625-3.140625v10.792968c0 .277-.223.5-.5.5h-.002v-.0059h-.002c-.277 0-.5-.223-.5-.5v-10.792928l-3.140625 3.140625c-.195869.195868-.513116.195868-.708984 0-.09793-.09793-.146485-.225706-.146485-.353515 0-.127808.04855-.257539.146485-.355469l3.996093-3.992188c.04701-.04702.103236-.08408.166016-.109375.0579-.02334.12105-.03711.1875-.03711h.002v.00586h.002c.06645 0 .129596.01377.1875.03711.06278.0253.119003.06236.166016.109375l3.996094 3.992187c.09793.09793.146484.227661.146484.355469z"/></g></svg>