<svg viewBox="0 0 24 24" xmlns="http://www.w3.org/2000/svg"><rect fill="#3a3a38" height="20" ry="1" width="16" x="4" y="2"/><path d="m5 3h14v18h-14z" fill="#fafafa"/><g fill="#1e8bcd" fill-rule="evenodd"><path d="m15.498047 8.9991328c-.275368.0011-.498022.22463-.498047.5v5.0000002c-.000621.424388.494386.65657.820312.384766l3-2.5c.24089-.199955.24089-.569577 0-.769532l-3-2.5000002c-.09052-.075121-.204633-.115924-.322265-.115234z"/><path d="m8.502932 8.9991328c.275368.0011.498022.22463.498047.5v5.0000002c.000621.424388-.494386.65657-.820312.384766l-3-2.5c-.24089-.199955-.24089-.569577 0-.769532l3-2.5000002c.090524-.075121.204633-.115924.322265-.115234z"/><path d="m15.000867 6.5019524c-.0011.275368-.22463.498022-.5.498047h-4.9999997c-.424388.000621-.6565702-.494386-.384766-.820312l2.4999997-3c.199955-.24089.569577-.24089.769532 0l2.5 3c.07512.090524.115924.204633.115234.322265z"/><path d="m15.000867 17.497067c-.0011-.275368-.22463-.498022-.5-.498047h-4.9999997c-.424388-.000621-.6565702.494386-.384766.820312l2.4999997 3c.199955.24089.569577.24089.769532 0l2.5-3c.07512-.09052.115924-.204633.115234-.322265z"/></g></svg>