<svg viewBox="0 0 16 16" xmlns="http://www.w3.org/2000/svg"><g fill="#fafafa" stroke="#3a3a38" stroke-linejoin="round"><path d="m6.8461891 3.3846258c-3.5048769 0-6.34615376 2.5829769-6.34615376 5.7692307h2.30769226c0-1.91175 1.8080769-3.4615384 4.0384615-3.4615384 2.2303842 0 4.0384609 1.5497884 4.0384609 3.4615384h-2.3076917l3.4615387 3.4615385 3.461538-3.4615385h-2.307692c0-3.1862538-2.841277-5.7692307-6.3461539-5.7692307z"/><path d="m6.8461891 3.3846258c-3.5048769 0-6.34615376 2.5829769-6.34615376 5.7692307h2.30769226c0-1.91175 1.8080769-3.4615384 4.0384615-3.4615384 2.2303842 0 4.0384609 1.5497884 4.0384609 3.4615384h-2.3076917l3.4615387 3.4615385 3.461538-3.4615385h-2.307692c0-3.1862538-2.841277-5.7692307-6.3461539-5.7692307z"/></g></svg>