<svg viewBox="0 0 16 16" xmlns="http://www.w3.org/2000/svg"><path d="m3 1v7c0-1.645014 1.354986-3 3-3h1a1.0001 1.0001 0 0 1 1 1v1a1.0001 1.0001 0 0 1 -1 1h4a1.0001 1.0001 0 0 1 -1-1v-1a1.0001 1.0001 0 0 1 1-1h1c.351852 0 .685106.0739426 1 .1875v-1.4824219l-2.695312-2.7050781zm3 7v.4042969c.2990206-.1860031.5890973-.4042969.9609375-.4042969zm5.039062 0c.371841 0 .661917.2182938.960938.4042969v-.4042969zm-5.039062 3.595703v.123047.28125h.9609375c-.3718404 0-.6619169-.218294-.9609375-.404297zm6 0c-.299021.186003-.589097.404297-.960938.404297h.960938v-.28125zm-9 .404297v3h3c-1.6449929 0-3-1.354976-3-3zm4 0a1.0001 1.0001 0 0 1 1 1v1a1.0001 1.0001 0 0 1 -1 1h4a1.0001 1.0001 0 0 1 -1-1v-1a1.0001 1.0001 0 0 1 1-1zm6 2.8125c-.314893.113557-.648153.1875-1 .1875h1z" fill="#fafafa"/><path d="m3 0c-.554 0-1 .446-1 1v14c0 .554.446 1 1 1h10c.554 0 1-.446 1-1v-.787109c-.289193.261879-.627024.465106-1 .599609v.1875h-1-1-4-1-3v-3-4-7h6v3.5c0 .277.223.5.5.5h1.5 1 1v.1875c.372978.1345035.710808.3377288 1 .5996094v-1.2871094-.8632812l-3.636719-3.6367188h-.863281zm7 1 3 3h-3z" fill="#3a3a38"/><g fill="#1e8bcd"><rect height="2" ry=".961864" width="6" x="6" y="9"/><path d="m6 6c-1.104522 0-2 .895478-2 2v4c0 1.104597.8954308 2 2 2h1v-1h-1c-.5522842 0-1-.447701-1-1v-.28125-3.71875c0-.552299.4267669-1 1-1h1v-1z"/><path d="m12 6c1.104522 0 2 .895478 2 2v4c0 1.104597-.895431 2-2 2h-1v-1h1c.552284 0 1-.447701 1-1v-.28125-3.71875c0-.552299-.426767-1-1-1h-1v-1z"/></g></svg>