<svg viewBox="0 0 16 16" xmlns="http://www.w3.org/2000/svg"><g fill="#3a3a38"><rect height="1" ry=".5" transform="scale(-1 1)" width="8.999998" x="-15" y="2"/><rect height="1" ry=".5" transform="scale(-1 1)" width="5.400001" x="-11.400001" y="5"/><g transform="matrix(-.89999978 0 0 1 1.500003 0)"><rect height="1" ry=".5" width="10" x="-14.999999" y="10"/><rect height="1" ry=".5" width="6.000002" x="-11" y="13"/></g></g><g fill="#1e8bcd"><path d="m4.4703352 7.8772726q-.1741689 0-.2660914-.04838-.0919225-.0532185-.1451407-.2080353l-.1064366-.3193097q-.1838449.1596548-.3531758.2806055-.1693309.1209506-.3531759.203197-.1790069.0822465-.387042.1209507-.203197.0435422-.4547743.0435422-.3096337 0-.566049-.082246-.2564153-.0870849-.4450983-.2515778-.183845-.1644928-.2854435-.4063941-.1015985-.2467393-.1015985-.5660489 0-.2660914.1354647-.5321828.1354647-.2660914.4596124-.4789645.3289857-.2177111.8708445-.3580139.5466969-.1451407 1.3594851-.1644928v-.2564153q0-.4644505-.193521-.6821616-.193521-.2177111-.5563729-.2177111-.2709294 0-.4499364.062894-.1741689.062894-.3096336.1403027-.1354647.07257-.2515773.1354647-.1161126.062894-.2612533.062894-.1257887 0-.2177112-.062894-.0870844-.067732-.1403027-.1596545l-.2225492-.387042q.4160702-.387042.9192248-.575725.5031546-.188683 1.0885557-.188683.4209082 0 .7547319.1403027.3338238.1354647.566049.3870421.2322252.2467392.3531758.590239.1209506.3434998.1209506.754732v3.0237657zm-1.6836328-.764408q.3289858 0 .566049-.1161126.2419013-.1209506.4789645-.3676899v-.774084q-.4789645.019352-.7982742.082246-.3144716.058056-.5031546.1548168-.188683.091922-.2709294.2177111-.077408.1257887-.077408.2709295 0 .2902815.1596548.4112321.1644929.1209506.4450983.1209506z" transform="matrix(.99373039 0 0 1.0063092 -1 -1)"/><path d="m.93773069 16.985352v-7.3877142h1.30583111v2.8841392q.2981819-.308464.6631977-.493543.3650158-.190219.8225707-.190219.4369908 0 .7865833.174796.3495926.174796.5963639.503825.2467712.323887.3804389.786583.1336678.462696.1336678 1.038495 0 .62207-.154232 1.131035-.1542321.508966-.4369908.873982-.2827587.359874-.6786208.560376-.3907212.195361-.8739815.195361-.2364891 0-.4267086-.04627-.1850784-.04627-.3444515-.128527-.1593731-.087398-.2930408-.205642-.1285267-.123386-.2519123-.272477l-.0565518.329028q-.025705.138809-.1028213.195361-.077116.05141-.2005016.05141h-.86884041zm2.33918561-4.169406q-.3290283 0-.5706585.149091-.2416301.14395-.462696.421567v2.251788q.1953605.24163.4215675.33931.226207.09768.4832603.09768.2570534 0 .4678372-.09254.2107837-.09768.3547336-.303323.149091-.210783.226207-.534671.082257-.329028.082257-.791724 0-.411285-.066834-.699185-.066834-.29304-.1953604-.478118-.1233856-.185079-.3136051-.272477-.1850784-.0874-.4267086-.0874z" transform="matrix(1.0664043 0 0 .93773069 -1 -1)"/></g></svg>