<svg height="16" viewBox="0 0 4.2333332 4.2333335" width="16" xmlns="http://www.w3.org/2000/svg"><g stroke-width=".264583" transform="translate(0 -292.76665)"><path d="m4 2v2h-2v8h2v2h2.59375l-.1054688-.183594-.25-.429687a1.0001 1.0001 0 0 1 .2050782-1.251953l.7207031-.634766-.7207031-.634766a1.0001 1.0001 0 0 1 -.2050782-1.2519528l.25-.4296874.4980469-.8671876a1.0001 1.0001 0 0 0 .0019531-.0019531l.25-.4316406a1.0001 1.0001 0 0 1 1.1855469-.4453125l.90625.3066406.1894531-.9414062a1.0001 1.0001 0 0 1 .9804688-.8027344h.5 1 .5a1.0001 1.0001 0 0 1 .980469.8027344l.189453.9414062.330078-.1113281v-3.6328125h-2v-2z" fill="#fafafa" stroke-width=".999999" transform="matrix(.26458333 0 0 .26458333 0 292.76665)"/><g fill="#0063b1"><rect height=".79375" ry=".264583" width=".79375" x="3.439583" y="292.76667"/><rect height=".79375" ry=".264583" width=".79375" y="292.76667"/><rect height=".79375" ry=".264583" width=".79375" y="296.206253"/></g><g transform="matrix(.26458333 0 0 .26458333 0 292.76665)"><path d="m8.0058594 2.5039062a.49572741.49572741 0 0 0 -.0546875.0019532.49572741.49572741 0 0 0 -.4296875.3535156l-.9003906 3.1464844h-3.1230469a.49572741.49572741 0 0 0 -.2714844.90625l2.671875 1.7792968-1.3652344 3.6328128a.49572741.49572741 0 0 0 .78125.560547l1.7558594-1.466797-.6269531-.552735a1.0001 1.0001 0 0 1 -.2050782-1.2519528l.25-.4296874.4980469-.8671876a1.0001 1.0001 0 0 0 .0019531-.0019531l.25-.4316406a1.0001 1.0001 0 0 1 1.1855469-.4453125l.90625.3066406.1894531-.9414062a1.0001 1.0001 0 0 1 .8808598-.796875h-1.025391l-.8925781-3.1386719a.49572741.49572741 0 0 0 -.4765625-.3632813zm4.5957026 3.5019532a1.0001 1.0001 0 0 1 .847657.6835937.49572741.49572741 0 0 0 -.449219-.6835937z" fill="#ed8733"/><path d="m8.0019531 4.7578125-.5390625 1.875a.48457493.48457493 0 0 1 -.4648437.3535156h-1.890625l1.6621093 1.1074219a.48457493.48457493 0 0 1 .1953126.2617188l.0214843-.0390626a1.0001 1.0001 0 0 0 .0019531-.0019531l.25-.4316406a1.0001 1.0001 0 0 1 1.1855469-.4453125l.90625.3066406.1523438-.7578125h-.484375a.48457493.48457493 0 0 1 -.4648438-.3535156zm-1.7734375 5.8378905-.1386718.369141.25-.207032a1.0001 1.0001 0 0 1 -.1113282-.162109z" fill="#f8db8f"/></g></g><g fill="#3a3a38" transform="matrix(.26458333 0 0 .26458333 0 .00002)"><path d="m4 1h8v1h-8z"/><path d="m4 14v1h3.1699219l-.1816407-.314453a1.0001 1.0001 0 0 0 -.0019531-.001953l-.3925781-.683594z" fill="#3a3a38" transform="translate(0 -.000076)"/><g transform="rotate(90)"><path d="m14 4v3.6328125l.576172-.1953125a1.0001 1.0001 0 0 1 .423828-.046875v-3.390625z" fill="#3a3a38" transform="matrix(0 -1 1 0 -.000076 0)"/><path d="m4-2h8v1h-8z"/></g></g><g fill="#83beec" transform="translate(0 -292.76665)"><path d="m.26459717 293.03122h.26455565c.00000767 0 .00001385.00001.00001385.00001v.26457c0 .00001-.00000618.00002-.00001385.00002h-.26455565c-.00000767 0-.00001385-.00001-.00001385-.00002v-.26457s.00000618-.00001.00001385-.00001z"/><path d="m3.7041805 293.03122h.2645556c.0000077 0 .0000139.00001.0000139.00001v.26457c0 .00001-.0000062.00002-.0000139.00002h-.2645556c-.0000077 0-.0000139-.00001-.0000139-.00002v-.26457s.0000062-.00001.0000139-.00001z"/><path d="m.26459718 296.47081h.26455565c.00000767 0 .00001385.00001.00001385.00001v.26457c0 .00001-.00000618.00002-.00001385.00002h-.26455565c-.00000767 0-.00001385-.00001-.00001385-.00002v-.26457s.00000618-.00001.00001385-.00001z"/></g><path d="m2.7781251 1.8520834-.1090372.5441529-.5250326-.177767-.0661459.1142049-.1322916.2294434-.0661459.1142047.4165121.366386-.4165121.366386.0661459.1142048.1322916.2294435.0661459.1142047.5250326-.1777669.1090372.5441529h.1322916.2645834.1322916l.1090372-.5441529.5250326.1777669.0661458-.1142047.1322917-.2294435.0661458-.1142048-.4165119-.366386.4165119-.366386-.0661458-.1142047-.1322917-.2294434-.0661458-.1142049-.5250326.177767-.1090372-.5441529h-.1322916-.2645834zm.2315104.2645833h.066146l.099219.396875h.173116l.086816.1498616.3932576-.1121378.033073.056844-.2940389.2847372.086816.1498615-.086816.1498616.2940389.2847372-.033073.056844-.3932575-.1121376-.0868165.1498616h-.173116l-.0992188.396875h-.0661458l-.0992188-.396875h-.1731161l-.0868164-.1498616-.3932576.1121378-.0330729-.0568441.2940389-.2847372-.0868164-.1498616.0868164-.1498615-.2940389-.2847372.0330729-.0568441.3932576.1121378.0868164-.1498616h.1731161zm.033073.5291666a.396875.396875 0 0 0 -.396875.396875.396875.396875 0 0 0 .396875.396875.396875.396875 0 0 0 .396875-.396875.396875.396875 0 0 0 -.396875-.396875zm0 .2645834a.13229167.13229167 0 0 1 .1322916.1322916.13229167.13229167 0 0 1 -.1322917.1322917.13229167.13229167 0 0 1 -.1322917-.1322917.13229167.13229167 0 0 1 .1322918-.1322916z" fill="#1e8bcd"/><path d="m3.0096355 2.1166667h.066146l.099219.396875h.173116l.086816.1498616.3932576-.1121378.033073.056844-.2940389.2847372.086816.1498615-.086816.1498616.2940389.2847372-.033073.056844-.3932575-.1121376-.0868165.1498616h-.173116l-.0992188.396875h-.0661458l-.0992188-.396875h-.1731161l-.0868164-.1498616-.3932576.1121378-.0330729-.0568441.2940389-.2847372-.0868164-.1498616.0868164-.1498615-.2940389-.2847372.0330729-.0568441.3932576.1121378.0868164-.1498616h.1731161zm.033073.5291666c-.219188 0-.396875.1776871-.396875.396875 0 .219188.177687.396875.396875.396875s.396875-.177687.396875-.396875c0-.2191879-.177687-.396875-.396875-.396875z" fill="#fafafa"/></svg>