<svg viewBox="0 0 16 16" xmlns="http://www.w3.org/2000/svg"><g fill="#3a3a38"><rect height="1" ry=".47603" width="14" x="1" y="12"/><rect height="1" ry=".5" width="8" x="1" y="14"/></g><path d="m4.0001771 5.515625c-.0115041-.454318.5402829-.686847.8574219-.361328l2.1445312 2.148437-.00195-6.777343c-.0179531-.350177.2415079-.525391.4999969-.525391s.51795.175214.5.525391l-.00195 6.777343 2.1445309-2.148437c.317139-.325519.868926-.09299.857422.361328-.0041.130048-.05875.25337-.152344.34375l-2.912112 2.916016c-.160649.173289-.2664289.223009-.4355469.224609-.169118-.0016-.2748979-.05132-.4355469-.224609l-2.9121093-2.916016c-.093594-.09038-.1482439-.213702-.1523438-.34375z" fill="#1e8bcd" fill-rule="evenodd"/></svg>