<svg viewBox="0 0 16 16" xmlns="http://www.w3.org/2000/svg">/&amp;amp;amp;gt;<path d="m1 4v8h2.5605469c.0881779-.143056.1692043-.291705.2714843-.435547.4696056-.66043 1.2588327-1.225042 2.4277344-1.505859a1.02588 1.02588 0 0 1 .1542969-.023438c.0628313-.005224.1510213-.008378.2207031-.013672.0367783-.0552892.030831-.1213732.0742188-.1738278.0010009-.00121.0009485-.0026978.0019531-.0039062 1.8714795-2.6232167 2.8299853-4.1113027 5.0625005-5.84375z" fill="#fafafa"/><path d="m0 0v4h11.773438c.368612-.286046.777826-.5809307 1.226562-.8867188v-3.1132812z" fill="#0063b1"/><path d="m0 4v8.5c-.00038442.276301.22369855.500384.5.5h2.4375c.2346122-.364355.4277062-.684141.6210938-.998047h-2.56054692v-8.001953z" fill="#3a3a38"/><path d="m4 4v3h-3v1h3v3.371094c.2564615-.306096.5874262-.581793 1-.814453v-2.556641h3v.0449219c.3341967-.4611655.6760749-.9280025 1-1.3300781v-2.7148438h-1v3h-3v-3z" fill="#797774"/><path d="m1 1h11v2h-11z" fill="#83beec" stroke-width=".661438"/><path d="m15.272029 3c-.177888.00524-.37069.0963941-.521484.1909069-4.136759 2.5854743-4.750545 3.8090931-7.250545 7.3090931-.210813.253601-.283141.594786-.193359.91211.124699.438291.05849.586853.729808.897431.67132.310578 1.030176.423588 2.302734.361328.225038-.01109.439749-.0978.609376-.246094 3.574573-3.115338 2.913553-2.4320307 4.881519-5.3512657.11091-.165166.17007-.359644.169922-.558594v-2.5c-.000147-.563767-.164435-1.0310434-.727971-1.0149153z" fill="#3a3a38"/><path d="m15 4.2729381c-3.629717 2.3517184-4.226438 3.3663405-6.6855469 6.8090929-.014286.01941-.02927.03831-.044922.05664h-.00195c.083056.291924.1130843.342522.042969.232422-.070116-.1101-.1231235-.09544.1464843.0293.6319655.292371.6295827.330409 1.8339846.271484.000666-.000668.0013-.0013.002-.002 1.750049-1.525215 2.380042-2.2914085 2.851512-3.044877.471254-.7531216.833054-.5909801 1.855469-2.1079213v-.00195z" fill="#fafafa"/><path d="m7.2304688 11.009766c-.2611936.00974-.5143343.028897-.7304688.046875-2.056692.4941-1.7371332 1.337014-3.28125 3.322265-.5164462.665161-.0608622 1.627607.78125 1.628906 2.7115807-.173351 3.7401211.528889 5.578125-1.234374.07164-.071322.1322065-.152947.1796875-.242188.1631052-.351692.2618925-.682612.2597655-1.011719-.0037-.568259-.23225-1.098535-.4023436-1.486328-.4416095-.580756-.8799889-.870494-1.6035156-1.021484-.2501619-.0123-.5200567-.011694-.78125-.001953zm.0136718.978515c.2108343.001574.4312475.021507.6660156.052735.6457798.226088 1.0391393.662816 1.0839844 1.507812.0004787.074069-.0161438.177417-.0488281.296875l-3.09375-1.423828c.4524271-.326142.8961695-.4373 1.3925781-.433594zm-2.0585937 1.226563 3.0214843 1.390625c-.4027608.269951-.7300308.357145-1.1699218.392578-.9042073-.009179-2.4189477-.008789-3.0351563-.009766.6037334-.776211.9275974-1.337725 1.1835938-1.773437z" fill="#0063b1"/><path d="m5.1855469 13.214844c-.2559964.435712-.5798604.997226-1.1835938 1.773437.6162086.000977 2.130949.000587 3.0351563.009766.439891-.035433.7671611-.122627 1.1699218-.392578z" fill="#83beec"/><path d="m7.2441406 11.988281c-.4902613-.00366-.9303436.122539-1.3769531.439453l3.078125 1.417969c.032685-.119484.049307-.222806.048828-.296875-.044845-.844996-.4382045-1.281724-1.0839843-1.507812-.2347681-.031228-.4551813-.051161-.6660156-.052735z" fill="#fafafa"/></svg>