<svg viewBox="0 0 16 16" xmlns="http://www.w3.org/2000/svg"><path d="m14 0-5.6503906.68554688 1.1269531 1.67187502-3.453125 2.2578125-1.6796875 1.0996094c-.1131774-.1110575-.2351564-.2068643-.3632812-.2929688-.005-.00336-.00865-.0084-.013672-.011719-.0226303-.0147946-.047386-.023119-.0703124-.0371091-.1161324-.0717284-.2368254-.1338211-.3613282-.1855469-.0260306-.0106996-.0518754-.0195061-.078125-.0292969-.1294833-.0489059-.2615359-.0878137-.3964843-.1152343-.0215404-.0042501-.0428551-.0080303-.0644531-.0117188-.1484862-.0262796-.298304-.0389664-.4492188-.0390625-.00196-.0000012-.0039-.0000032-.00586 0-.0013.0000106-.00261-.0000126-.00391 0-.4847178.00152-.9709549.130541-1.3984375.4101563-1.17122161.7661809-1.49036865 2.3225694-.71289065 3.4765624.19609796.2911443.44386507.5285249.72265625.7089844.000784.0005141.00117.00144.00195.00195.1360389.088983.2796577.1603016.4257813.2207031.1519081.062793.3064489.1082911.4648437.140625.00316.0006459.0066-.0006339.00977 0 .1585014.031737.3181215.0471163.4785188.0488313.0006463.000005.00131-.0000048.00195 0 .1641491.0016.3269301-.013626.4882812-.042969.4875527-.088663.9527164-.3090393 1.3261719-.671875l1.6660157 1.0917968c.0001483-.0053.00178-.0103.00195-.01563l3.4746093 2.273438-1.1269531 1.671875 5.6503909.685547-2.833985-4.865235-1.126953 1.671875-5.1367123-3.3593697c.0592271-.1420274.1047967-.289174.1367187-.4394531h1.7148438c.00183-.00272.00402-.0051.00586-.00781l4.228515.00781v-.5-.5h-4.2167969c-.00184-.00271-.00403-.0051-.00586-.00781h-1.728515c-.0314704-.1522922-.0772397-.3013708-.1367187-.445315l1.2363281-.8085938 3.8906245-2.5449218 1.126954 1.671875zm-3 5.5v1.0507812.4492188 1.4492188 1.0507812l4-2-1.123047-.5625z" fill="#3a3a38"/></svg>