<svg viewBox="0 0 16 16" xmlns="http://www.w3.org/2000/svg">

/&amp;amp;gt;<path d="m1 0c-.554 0-1 .446-1 1v6.1015625c.17556815-.0702703.35898568-.1169053.54882812-.1171875a1.0128149 1.0128149 0 0 0 .00195313 0h.44921875v-2.984375h3.2890625c.1681986-.4885371.5925791-.8646251 1.0898437-1h-1.3789062v-2h2v1.9746094c.5564706.0947696 1.0500678.4899991 1.234375 1.0253906h7.765625v6h-2.837891l-1.748047 1h1.585938v2h-2v-1.763672l-.5703125.326172.9140625 2.4375h4.65625c.554 0 1-.446 1-1v-12c0-.554-.446-1-1-1zm0 1h2v2h-2zm6 0h2v2h-2zm3 0h2v2h-2zm3 0h2v2h-2zm-13 9.0625v2.9375c0 .554.446 1 1 1h.1796875l.375-1h-.5546875v-2h.40625zm13 .9375h2v2h-2z" fill="#3a3a38"/><path d="m1 4v2.984375h2.4238281l.8320313-2.9179688a1.0128149 1.0128149 0 0 1 .0019531-.0039062c.006542-.0226242.0236027-.0402882.03125-.0625zm6.234375 0c.0076466.0222126.0247078.0398723.03125.0625a1.0128149 1.0128149 0 0 1 .0019531.0039062l.8320313 2.9179688h3.4511716a1.0128149 1.0128149 0 0 1 .00586 0c.681158.0033319 1.329016.5057298 1.503906 1.1640625.174889.6583327-.138815 1.4149172-.728516 1.7558594a1.0128149 1.0128149 0 0 1 -.005859.0019531l-.164063.09375h2.837891v-6z" fill="#fafafa" stroke-width=".898717"/><path d="m5.7579032 3.9453126a.55169204.55169204 0 0 0 -.5273437.3984374l-1.0429687 3.6542969h-3.63671882a.55169204.55169204 0 0 0 -.30664062 1.0097657l3.11132814 2.0742184-1.5839844 4.220703a.55169204.55169204 0 0 0 .8691407.617187l3.1210937-2.599609 3.1191406 2.599609a.55169204.55169204 0 0 0 .8691407-.617187l-1.5703126-4.191406 3.6445318-2.0839842a.55169204.55169204 0 0 0 -.273438-1.0292969h-4.2148438l-1.0429687-3.6542969a.55169204.55169204 0 0 0 -.5351563-.3984374z" fill="#ed8733"/><path d="m5.7618095 6.1367188-.7246094 2.5351562a.45109548.45109548 0 0 1 -.4335937.328125h-2.5644532l2.2363282 1.490234a.45109548.45109548 0 0 1 .171875.533204l-1.1386719 3.035155 2.1640625-1.802734a.45109548.45109548 0 0 1 .578125 0l2.1640625 1.802734-1.1386719-3.035155a.45109548.45109548 0 0 1 .1972656-.548829l2.5800782-1.474609h-2.9335938a.45109548.45109548 0 0 1 -.4335937-.328125z" fill="#f8db8f"/></svg>