<svg viewBox="0 0 16 16" xmlns="http://www.w3.org/2000/svg">
/&amp;amp;amp;amp;amp;amp;amp;amp;gt;<path d="m5.7070312-.05078125a.55169204.55169204 0 0 0 -.5273437.3984375l-1.0429687 3.65429685h-3.6367188a.55169204.55169204 0 0 0 -.30664062 1.0097657l3.11132812 2.0742187-1.5839844 4.2207035a.55169204.55169204 0 0 0 .8691407.617187l3.1210937-2.5996092.4746094.3964843a1.0001 1.0001 0 0 1 .0527343-.1074219l.25-.4296874.4980469-.8671876a1.0001 1.0001 0 0 0 .0019531-.0019531l.25-.4316406a1.0001 1.0001 0 0 1 .9941407-.4902344l-.1035157-.2773437 3.6445318-2.0839844a.55169204.55169204 0 0 0 -.273438-1.0292969h-4.2148438l-1.0429687-3.65429685a.55169204.55169204 0 0 0 -.5351563-.3984375z" fill="#ed8733"/><path d="m9 2 .5 1h5.5v-1zm4 2 .5 1h1.5v-1zm.5 2-.292969.2929688a1.0001 1.0001 0 0 1 .273438.5097656l.039062.1972656h1.480469v-1z" fill="#fb983b"/><path d="m5.7109375 2.140625-.7246094 2.5351562a.45109548.45109548 0 0 1 -.4335937.328125h-2.5644532l2.2363282 1.4902344a.45109548.45109548 0 0 1 .171875.5332032l-1.1386719 3.0351562 2.1640625-1.8027344a.45109548.45109548 0 0 1 .578125 0l.6894531.5742188.296875-.5175782a1.0001 1.0001 0 0 0 .0019531-.0019531l.25-.4316406a1.0001 1.0001 0 0 1 .0703126-.1035156l-.2832032-.7519531a.45109548.45109548 0 0 1 .1972656-.5488282l2.5800782-1.4746094h-2.9335938a.45109548.45109548 0 0 1 -.4335937-.328125z" fill="#f8db8f"/><path d="m10.5 7-.412109 2.056641-1.9843754-.6718754-.25.4316406-.5.8671878-.25.43164 1.5742188 1.384766-1.5742188 1.384766.25.43164.5.867188.25.43164 1.9843754-.671875.412109 2.056641h.5 1 .5l.412109-2.056641 1.984375.671875.25-.43164.5-.867188.25-.43164-1.574218-1.384766 1.574218-1.384766-.25-.43164-.5-.8671878-.25-.4316406-1.984375.6718754-.412109-2.056641h-.5-1zm.875 1h.25l.375 1.5h.654297l.328125.566406 1.486328-.423828.125.214844-1.111328 1.076172.328125.566406-.328125.566406 1.111328 1.076172-.125.214844-1.486328-.423828-.328125.566406h-.654297l-.375 1.5h-.25l-.375-1.5h-.654297l-.328125-.566406-1.486328.423828-.125-.214844 1.1113281-1.076172-.328125-.566406.328125-.566406-1.1113281-1.076172.125-.214844 1.486328.423828.328125-.566406h.654297zm.125 2a1.5 1.5 0 0 0 -1.5 1.5 1.5 1.5 0 0 0 1.5 1.5 1.5 1.5 0 0 0 1.5-1.5 1.5 1.5 0 0 0 -1.5-1.5zm0 1a.5.5 0 0 1 .5.5.5.5 0 0 1 -.5.5.5.5 0 0 1 -.5-.5.5.5 0 0 1 .5-.5z" fill="#1e8bcd"/><path d="m11.375 8h.25l.375 1.5h.654297l.328125.566406 1.486328-.423828.125.214844-1.111328 1.076172.328125.566406-.328125.566406 1.111328 1.076172-.125.214844-1.486328-.423828-.328125.566406h-.654297l-.375 1.5h-.25l-.375-1.5h-.654297l-.328125-.566406-1.486328.423828-.125-.214844 1.1113281-1.076172-.328125-.566406.328125-.566406-1.1113281-1.076172.125-.214844 1.486328.423828.328125-.566406h.654297zm.125 2c-.828427 0-1.5.671573-1.5 1.5s.671573 1.5 1.5 1.5 1.5-.671573 1.5-1.5-.671573-1.5-1.5-1.5z" fill="#fafafa"/></svg>