<svg viewBox="0 0 16 16" xmlns="http://www.w3.org/2000/svg"><path d="m4 1-1 1-3 7v1 1.347656.304688.347656h.03710937c.17905119 1.133504 1.20470303 2 2.46289063 2h2c1.2581876 0 2.2838394-.866496 2.4628906-2h.0371094v-.347656-.304688-1.347656h2v1.347656.304688.347656h.037109c.179052 1.133504 1.204703 2 2.462891 2h2c1.258188 0 2.283839-.866496 2.462891-2h.037109v-.347656-.304688-1.347656-1l-3-7-1-1h-3v3h1v-2h1.5l3 7h-13l3-7h1.5v2h1v-3zm-3 9h5v.476563 1.523437c0 .554-1.115 1-2.5 1s-2.5-.446-2.5-1v-1.523437zm9 0h5v.476563 1.523437c0 .554-1.115 1-2.5 1s-2.5-.446-2.5-1v-1.523437z" fill="#3a3a38"/><path d="m1 10v.476562 1.523438c0 .554 1.115 1 2.5 1s2.5-.446 2.5-1v-1.523438-.476562zm9 0v.476562 1.523438c0 .554 1.115 1 2.5 1s2.5-.446 2.5-1v-1.523438-.476562z" fill="#fafafa"/></svg>