<svg viewBox="0 0 16 16" xmlns="http://www.w3.org/2000/svg"><path d="m3 15v-14h4.7545182c.8995985 0 1.6691767.087851 2.3087348.2635542.639559.1757028 1.15964.4252008 1.560242.748494.407631.3232932.702812.7168675.885543 1.1807229.189758.4568273.284637.9698795.284637 1.5391568 0 .3232932-.04568.6360442-.137047.9382529-.09136.3022089-.231927.5833334-.421687.8433735-.189759.2600402-.435743.4989961-.737952.7168676-.295181.2108434-.662085.2605422-1.076744.4081325 1.806225.435743 2.721322 1.5948793 2.721322 3.2183726 0 .59739-.108936 1.149097-.326807 1.65512-.217871.506025-.53765.945282-.959337 1.317772-.414659.365462-.931225.653615-1.5497.864459-.6114457.203815-1.3142569.305722-2.1084336.305722zm3-6.2123491v3.9322291h2.1325937c.4427711 0 .811747-.05622 1.1069277-.168675.2951808-.112451.5271087-.263555.6957835-.453313.1757031-.18976.2986941-.407631.3689751-.653614.07028-.253013.105421-.513053.105421-.780122 0-.288153-.04217-.548192-.126505-.7801191-.077309-.231928-.207329-.4287154-.3900601-.5903621-.1757028-.1616465-.4111445-.2846384-.7063253-.3689758-.2881526-.0913654-.6430724-.1370481-1.0647592-.1370481zm0-1.9081327h1.5844008c.7801206 0 1.3810242-.1475904 1.802711-.4427711.4216869-.3022089.6325302-.7976908.6325302-1.4864458 0-.7168675-.1827309-1.2193776-.548193-1.5075301-.3654618-.2951808-.941767-.4427712-1.7289157-.4427712h-1.7425333z" fill="#3a3a38" stroke-width=".882014"/></svg>