<svg viewBox="0 0 16 16" xmlns="http://www.w3.org/2000/svg">/&amp;amp;gt;<path d="m1 7v8h9v-4.089844a6 6 0 0 1 -4.6503906-3.910156z" fill="#fafafa"/><path d="m.5 6a.50005.50005 0 0 0 -.5.5v9a.50005.50005 0 0 0 .5.5h10a.50005.50005 0 0 0 .5-.5v-4.5a6 6 0 0 1 -1-.08984v4.08984h-9v-8h4.3496094a6 6 0 0 1 -.2636719-1z" fill="#3a3a38"/><path d="m16 5a5 5 0 0 1 -5 5 5 5 0 0 1 -5-5 5 5 0 0 1 5-5 5 5 0 0 1 5 5z" fill="#ed8733"/><path d="m15 5a4 4 0 0 1 -4 4 4 4 0 0 1 -4-4 4 4 0 0 1 4-4 4 4 0 0 1 4 4z" fill="#f8db8f"/></svg>