<svg viewBox="0 0 16 16" xmlns="http://www.w3.org/2000/svg"><path d="m4 2c-1.104522 0-2 .8954778-2 2v3 1c0 .2761493-.2238577.5-.5.5h-.5v1h.5c.2761423 0 .5.2238507.5.5v1 1 2c0 1.104597 1 2 2 2h1v-1h-1c-.5522843 0-1-.447701-1-1v-2-1-1c0-.382499-.1392847-.7350257-.375-1 .2357153-.2649743.375-.617501.375-1v-1-.28125-2.71875c0-.5522986.4956628-1 1-1h1v-1z" fill="#3a3a38"/><path d="m6 2v1h1c.504337 0 1 .4477014 1 1v1.3359375c.0125563-.1437192.0455492-.2833052.0976562-.4121094.1519352-.3755702.4880659-.6984107.9023438-.8476562v-.0761719c0-1.1045222-.895478-2-2-2h-.6113281zm2 3.3359375v1.3828125.28125 1c0 .382499.139285.7350257.375 1-.235715.2649743-.375.617501-.375 1v1 1 2c0 .552299-.447716 1-1 1h-1v1h1c1 0 2-.895403 2-2v-2-1-1c0-.2761493.223858-.5.5-.5h.5v-1h-.5c-.276142 0-.5-.2238507-.5-.5v-.8828125l-.5546875-.5527344c-.3396387-.3287053-.4829815-.7973579-.4453125-1.2285156z" fill="#3a3a38"/><path d="m3.452909 0c-1.62249.05003-3.452909 1.2847901-3.458809 3.4394531v.5l.0059 4.0605469h1l-.0059-4.0605469v-.4238281h.0059c0-1.380712 1.072238-2.515625 2.45295-2.515625h2.9355136 3.101563c1.3807124 0 2.5000004 1.119288 2.5000004 2.5h.0059v.4238281l-.0039 3.3476563-2.1445324-2.1347657c-.0945357-.0966507-.2241785-.1509034-.359375-.1503906-.4494022.0000916-.6705866.5468399-.347656.859375l3.0058604 2.9921875c.195265.195184.511766.195184.707031 0l2.99414-2.9921875c.487601-.471344-.235835-1.1946904-.707119-.7070313l-2.148437 2.1464844.0039-3.3613281v-.5c-.005894-2.154663-1.883364-3.3737981-3.5058534-3.4238281h-3.101563z" fill="#1e8bcd" fill-rule="evenodd"/></svg>