<svg viewBox="0 0 16 16" xmlns="http://www.w3.org/2000/svg"><path d="m1 4v8h14v-8z" fill="#fafafa"/><path d="m0 3v10h15 1v-1-8-1h-1zm2 1h12c0 .554.446 1 1 1v6c-.552285 0-1 .447715-1 1h-12c0-.554-.446-1-1-1v-6c.554 0 1-.446 1-1zm6 1c-1.6568542 0-3 1.3431458-3 3s1.3431458 3 3 3 3-1.3431458 3-3-1.3431458-3-3-3z" fill="#1e8bcd"/><path d="m6 10a3 2 0 0 0 -3 2v2a3 2 0 0 0 3 2 3 2 0 0 0 3-2v-2a3 2 0 0 0 -3-2zm0 1a2 1 0 0 1 2 1 2 1 0 0 1 -2 1 2 1 0 0 1 -2-1 2 1 0 0 1 2-1zm-2 2.488281a3 2 0 0 0 2 .511719 3 2 0 0 0 2-.511719v1a3 2 0 0 1 -2 .511719 3 2 0 0 1 -2-.511719z" fill="#fb983b"/><path d="m6 11a2 1 0 0 0 -2 1 2 1 0 0 0 2 1 2 1 0 0 0 2-1 2 1 0 0 0 -2-1zm-2 2.488281v1a3 2 0 0 0 2 .511719 3 2 0 0 0 2-.511719v-1a3 2 0 0 1 -2 .511719 3 2 0 0 1 -2-.511719z" fill="#fafafa"/><path d="m13 10a3 2 0 0 0 -3 2v2a3 2 0 0 0 3 2 3 2 0 0 0 3-2v-2a3 2 0 0 0 -3-2zm0 1a2 1 0 0 1 2 1 2 1 0 0 1 -2 1 2 1 0 0 1 -2-1 2 1 0 0 1 2-1zm-2 2.488281a3 2 0 0 0 2 .511719 3 2 0 0 0 2-.511719v1a3 2 0 0 1 -2 .511719 3 2 0 0 1 -2-.511719z" fill="#fb983b"/><path d="m13 11a2 1 0 0 0 -2 1 2 1 0 0 0 2 1 2 1 0 0 0 2-1 2 1 0 0 0 -2-1zm-2 2.488281v1a3 2 0 0 0 2 .511719 3 2 0 0 0 2-.511719v-1a3 2 0 0 1 -2 .511719 3 2 0 0 1 -2-.511719z" fill="#fafafa"/><path d="m13 8a3 2 0 0 0 -3 2v2a3 2 0 0 0 3 2 3 2 0 0 0 3-2v-2a3 2 0 0 0 -3-2zm0 1a2 1 0 0 1 2 1 2 1 0 0 1 -2 1 2 1 0 0 1 -2-1 2 1 0 0 1 2-1zm-2 2.488281a3 2 0 0 0 2 .511719 3 2 0 0 0 2-.511719v1a3 2 0 0 1 -2 .511719 3 2 0 0 1 -2-.511719z" fill="#fb983b"/><path d="m13 9a2 1 0 0 0 -2 1 2 1 0 0 0 2 1 2 1 0 0 0 2-1 2 1 0 0 0 -2-1zm-2 2.488281v1a3 2 0 0 0 2 .511719 3 2 0 0 0 2-.511719v-1a3 2 0 0 1 -2 .511719 3 2 0 0 1 -2-.511719z" fill="#fafafa"/></svg>