<svg viewBox="0 0 16 16" xmlns="http://www.w3.org/2000/svg">/&gt;<path d="m.8.84218752c4.2221005.0507936 8.6435024.72455038 14.10025 2.18827528l-2.815875 12.0523502c-4.0195654-.949288-7.3829287-1.511003-11.284375-1.482813z" fill="#fafafa"/><path d="m4 4.8-2.4 2.3893344 2.4 2.389332v-1.1946664c2.8228016 0 4.0168112.1325504 6.030351.6892648l-.430351 1.3267352 3.2-1.68-1.6-3.12-.433098 1.226304c-2.0855084-.5522938-4.0861484-.8316374-6.766902-.8316374z" fill="#1e8bcd"/><path d="m0 0v14.4c4.5065436-.07378 8.2119632.434088 12.8 1.6l3.2-13.6c-6.3373432-1.8028164-11.2896853-2.37576232-16-2.4zm.8.84218752c4.2221005.0507936 8.6435024.72455038 14.10025 2.18827528l-2.815875 12.0523502c-4.0195654-.949288-7.3829287-1.511003-11.284375-1.482813z" fill="#3a3a38"/></svg>