<svg viewBox="0 0 16 16" xmlns="http://www.w3.org/2000/svg">/&amp;amp;gt;<path d="m1 4h14v11h-14z" fill="#fafafa"/><path d="m1 0c-.554 0-1 .446-1 1v14c0 .554.446 1 1 1h14c.554 0 1-.446 1-1v-14c0-.554-.446-1-1-1zm0 4h14v11h-14z" fill="#3a3a38"/><rect fill="#3a3a38" height="1" ry=".5" width="12" x="2" y="7"/><g fill="#1e8bcd"><rect height="1" ry=".5" width="4" x="2" y="11"/><path d="m6.5 10a1.5 1.5 0 0 0 -1.5 1.5 1.5 1.5 0 0 0 1.5 1.5 1.5 1.5 0 0 0 1.5-1.5 1.5 1.5 0 0 0 -1.5-1.5zm0 1a.5.5 0 0 1 .5.5.5.5 0 0 1 -.5.5.5.5 0 0 1 -.5-.5.5.5 0 0 1 .5-.5z"/><path d="m9.5 6c-.828427 0-1.5.671573-1.5 1.5s.671573 1.5 1.5 1.5 1.5-.671573 1.5-1.5-.671573-1.5-1.5-1.5z"/><rect height="1" ry=".491011" width="7" x="7" y="11"/></g><g fill="#3a3a38" transform="translate(-4 -4)"><rect height="1" ry=".5" width="4" x="6" y="15"/><rect height="1" ry=".491011" width="7" x="11" y="15"/><path d="m10.5 14a1.5 1.5 0 0 0 -1.5 1.5 1.5 1.5 0 0 0 1.5 1.5 1.5 1.5 0 0 0 1.5-1.5 1.5 1.5 0 0 0 -1.5-1.5zm0 1a.5.5 0 0 1 .5.5.5.5 0 0 1 -.5.5.5.5 0 0 1 -.5-.5.5.5 0 0 1 .5-.5z" fill="#1e8bcd"/></g><path d="m1 1h14v2h-14z" fill="#797774" fill-opacity=".992647"/></svg>