<svg viewBox="0 0 16 16" xmlns="http://www.w3.org/2000/svg"><path d="m12.496427.00002846c-.152571.00239-.2957.074317-.388672.195312l-.0039.0059-2.9570315 2.95312514c-.5267392.4691836.2344391 1.2324704.705078.7070312l2.1523445-2.1484373v6.7871098c-.0096.6761613 1.009563.6761613 1 0v-6.7832038l2.140625 2.1445313c.471354.4726558 1.180338-.2343754.708984-.7070312l-2.951172-2.95316514c-.0955-.1281139-.246469-.2028744-.406256-.201172z" fill="#1e8bcd" fill-rule="evenodd"/><g fill="#3a3a38"><path d="m7.9999998 16h-.9641026q-.1641026 0-.2666666-.091324-.0957266-.091324-.1504274-.228311l-.765812-2.404871h-3.7059829l-.7589744 2.397261q-.0410256.129376-.1572649.22831-.1094018.098935-.26666672.098935h-.96410253l3.37094025-10h1.2649572zm-5.5384616-3.71385h3.0769231l-1.2717949-4.025876q-.0683761-.1826484-.1367521-.4261796-.0683761-.2435312-.1299145-.5251142-.0683761.2891933-.1367522.5327245-.0683761.2435312-.1299145.4261796z"/><path d="m9 6v10h3.523438c.555555 0 1.047991-.068092 1.476562-.205078.433863-.136987.799407-.32952 1.095703-.578125.296296-.253678.520388-.556174.673828-.90625.153439-.350075.230469-.737882.230469-1.164063 0-.624048-.184318-1.127295-.554688-1.507812-.365079-.385591-.911851-.646217-1.636718-.783203.31746-.096399.593368-.223579.826172-.38086.232804-.15728.426639-.332595.580078-.5253902.15344-.1927956.26577-.402549.339844-.6308594.079365-.2283106.11914-.4654532.11914-.7089844 0-.4058853-.06499-.7682559-.197266-1.0878906-.132274-.3247083-.341239-.5990287-.626953-.8222656-.224396-.1826952-.51628-.3184648-.845703-.4296876v1.5488282c.151699.2504516.234375.5653767.234375.9589844 0 .2536783-.044818.4853431-.134765.6933593-.084656.208016-.214069.3860695-.388672.5332029-.174603.147134-.395606.263358-.660156.34961-.26455.081176-.573238.121093-.927735.121093h-1.681641v-3.3867184h.558594v-1.0878906zm1.445312 5.449219h2.054688c.703705 0 1.221355.149878 1.554688.449219.338624.299339.509765.704365.509765 1.216796 0 .258752-.039775.49942-.119141.722657-.074073.218164-.195921.407173-.365234.564453-.164021.15728-.379981.281723-.644531.373047-.259259.08625-.570467.128906-.935547.128906h-2.054688z"/></g></svg>