<svg viewBox="0 0 16 16" xmlns="http://www.w3.org/2000/svg">
/&amp;amp;gt;<path d="m2 0c-.554 0-1 .446-1 1v12c0 .554.446 1 1 1h1v-1h-1v-12h1 8 1c0-.554-.446-1-1-1z" fill="#3a3a38"/><path d="m2 1v12h1v-12z" fill="#fafafa"/><path d="m5 2c-.554 0-1 .446-1 1v12c0 .554.446 1 1 1h1.09375c-.0578587-.15757-.09375-.325109-.09375-.5v-.5h-1v-12h9v3.6074219c.108666.055098.211768.119531.316406.1816406.16767-.2886012.396767-.5277032.683594-.6640625v-3.125c0-.554-.446-1-1-1z" fill="#3a3a38"/><path d="m5 3v12h1v-.5-2c0-.30359.169991-.548016.3320312-.787109a1.0001 1.0001 0 0 1 -.2929687-.824219c.2826761-2.5283492 2.2731998-4.4881741 4.7363285-4.8203126.226959-.0406596.46299-.0680252.71875-.0683594.001319-.0000025.002587.0000016.003906 0a1.0001 1.0001 0 0 1 .003906 0c.001305.0000034.002602-.0000044.003906 0 .867621.0029016 1.722289.2110445 2.494141.6074219v-3.6074219z" fill="#fafafa"/><path d="m11.5 7c-2.2897564.0027169-4.212381 1.72442-4.4667969 4h1.0078125c.2482706-1.7200823 1.721079-2.9974588 3.4589844-3 1.349002.00308 2.576155.7811616 3.154297 2h-1.154297c-.277 0-.5.223-.5.5s.223.5.5.5h2c.277 0 .5-.223.5-.5v-2-1c0-.277-.223-.5-.5-.5s-.5.223-.5.5v1 .1835938c-.851968-1.0616918-2.138739-1.6806629-3.5-1.6835938zm-4 5c-.277 0-.5.223-.5.5v2 1c0 .277.223.5.5.5s.5-.223.5-.5v-1-.183594c.8519683 1.061692 2.138739 1.680663 3.5 1.683594 2.289756-.0027 4.212381-1.72442 4.466797-4h-1.007813c-.248271 1.720082-1.721079 2.997459-3.458984 3-1.349002-.003078-2.5761554-.781162-3.1542969-2h1.1542969c.277 0 .5-.223.5-.5s-.223-.5-.5-.5z" fill="#18ab50"/></svg>