<svg viewBox="0 0 16 16" xmlns="http://www.w3.org/2000/svg"><path d="m3 1v14h3v-2-2-3c0-1.0907028.9092972-2 2-2h5v-2.2949219l-2.695312-2.7050781z" fill="#fafafa"/><path d="m3 0c-.554 0-1 .446-1 1v14c0 .554.446 1 1 1h3v-1h-3v-14h6v3.5c0 .277.223.5.5.5h3.5v1h1v-1.5-.8632812l-3.636719-3.6367188h-.863281zm7 1 3 3h-3zm1.414062 14-1 1h1.589844.996094c.554 0 1-.446 1-1z" fill="#3a3a38"/><path d="m4.5 7c-.277 0-.5.223-.5.5s.223.5.5.5h1.5c0-.3639693.1077387-.7034806.2832031-1z" fill="#fb983b"/><path d="m8 7c-.554 0-1 .446-1 1v5 3h1l3-2h4c.554 0 1-.446 1-1v-5c0-.554-.446-1-1-1zm0 1h7v5h-4-1l-2 1.5z" fill="#3a3a38"/><path d="m8 8v5c1.0165612.535883.9334845.651651 2 0h1 4v-5z" fill="#fafafa"/><path d="m4.5 4c-.277 0-.5.223-.5.5s.223.5.5.5h3c.277 0 .5-.223.5-.5s-.223-.5-.5-.5zm0 6c-.277 0-.5.223-.5.5s.223.5.5.5h1.5v-1zm0 3c-.277 0-.5.223-.5.5s.223.5.5.5h1.5v-1z" fill="#797774"/></svg>