<svg viewBox="0 0 16 16" xmlns="http://www.w3.org/2000/svg">/&amp;gt;<path d="m4.0117188 0c-.5773501 1-.8781313 1-.3007813 2l3.5410156 6.140625-2.0566406 3.525391c.387581.357618.6521469.828641.7558594 1.345703l1.1621093-2.013672c.7804192-.01.8787974-.774603 1.3339844-.785156l1.6035154 2.78125c-.0023.01134-.0017.02375-.0039.03516.101315-.527403.369773-1.008161.765625-1.371094l-2.0527404-3.517582 3.5410154-6.140625c.57735-1 .276569-1-.300781-2l-3.9941406 6.8476562zm3.9882812 8c.277 0 .5.223.5.5s-.223.5-.5.5-.5-.223-.5-.5.223-.5.5-.5z" fill="#3a3a38"/><g fill="#1e8bcd"><path d="m3.5 11a2.5 2.5 0 0 0 -2.5 2.5 2.5 2.5 0 0 0 2.5 2.5 2.5 2.5 0 0 0 2.5-2.5 2.5 2.5 0 0 0 -2.5-2.5zm0 1a1.5 1.5 0 0 1 1.5 1.5 1.5 1.5 0 0 1 -1.5 1.5 1.5 1.5 0 0 1 -1.5-1.5 1.5 1.5 0 0 1 1.5-1.5z"/><path d="m12.5 11a2.5 2.5 0 0 0 -2.5 2.5 2.5 2.5 0 0 0 2.5 2.5 2.5 2.5 0 0 0 2.5-2.5 2.5 2.5 0 0 0 -2.5-2.5zm0 1a1.5 1.5 0 0 1 1.5 1.5 1.5 1.5 0 0 1 -1.5 1.5 1.5 1.5 0 0 1 -1.5-1.5 1.5 1.5 0 0 1 1.5-1.5z"/></g></svg>