<svg viewBox="0 0 16 16" xmlns="http://www.w3.org/2000/svg" xmlns:xlink="http://www.w3.org/1999/xlink"><linearGradient id="a" gradientUnits="userSpaceOnUse" x1="11.003906" x2="11" y1="14.91016" y2="1"><stop offset="0" stop-color="#f6f6f6"/><stop offset="1" stop-color="#fafafa"/></linearGradient>



     /&amp;amp;gt;
 <path d="m8.7773438.9765625c.0058802.00779688.0117396.01560941.0175781.0234375h-4.7949219v.017578c-.533997.1270201-.8266138.4947913-1 .982422v9.982422c-.06906.0014-.1282364.0096-.1933594.01367-.3736689-.03397-.716301.0484-1.0019531.210937-.6268889.267366-.86471507.984321-.8125 1.449219-.002239.03193-.0121649.0639-.0117188.0957.006895.491527.34398545.9582 1.14843745 1.152344.1609346.05069.3303102.08701.515625.09375.051496.0019.1071945-.006.1601563-.0078.06618235.002925.12499925.009586.19531255.009758h4.2636719c-.00588-.0078-.01174-.01561-.017578-.02344l3.3632812.01758.002.0059c.08568-.02039.176844-.07996.267578-.15625.04414.02062.08264.05003.128906.06641.596378-.212706.994966-.776982.996094-1.410156-.000362-.129259-.01743-.257929-.05078-.382812.01356-.03435.04061-.08858.05078-.117188l.04102-9.2558594c.07185-.00142.133578-.00936.201172-.013672.372474.032418.713474-.048175.998046-.2109376.625266-.2675418 1.856873-.734843 1.804688-1.1992187.0022-.031933.01216-.063895.01172-.095703-.0065-.4611622-1.301378-.8963342-2.001953-1.109375-.04379-.013315-.08581-.027577-.132813-.039063-.163354-.052324-.336726-.0907971-.525391-.0976563-.05341-.001942-.111027.007702-.166015.009766-.06434-.002776-.121219-.0115515-.189453-.0117188zm2.2304682 13.9335935c-.03347.01161-.06735.02204-.101562.03125.03421-.0092.06809-.01964.101562-.03125zm-.101562.03125c-.02649.0079-.05319.01506-.08008.02149.02689-.0064.05359-.01359.08008-.02149zm-.136719.0332c-.03817.0074-.07661.01322-.115234.01758.03862-.0044.07707-.01023.115234-.01758z" fill="url(#a)"/><path d="m4.25 0c-1.3070984 0-2.25 1.1080036-2.25 2.375v1.875 5.1425781 1.8046879c-1.07146171.240703-2 1.27521-2 2.427734 0 1.346001 1.1942339 2.375 2.5 2.375h5.84375 2.410156c1.307098 0 2.249668-1.108004 2.25-2.375v-1.875-5.1425781-2.0546875c1.071462-.2407031 2.996094-1.0252107 2.996094-2.1777344 0-1.3460015-1.262328-2.375-2.568094-2.375h-5.775656zm0 1h4.4863281 3.7675779c.76536 0 2.496094.6498765 2.496094 1.375s-1.730931 1.3576694-2.496094 1.375h-.5v2.4648438 5.5351562l-.01131 1.807118c-.0045.723658-1.010183 1.417191-1.453646 1.420255l-3.2752781.022627h-4.7636719c-.7653589 0-1.5-.649877-1.5-1.375 0-.09064.0116205-.180412.0332031-.267578.1510787-.610167.7971075-1.357422 1.4667969-1.357422h.5v-2.2148438-5.5351562-1.875c0-.8105224.4795984-1.375 1.25-1.375z" fill="#3a3a38"/><circle cx="2.5" cy="13.5" fill="#98989d" r="1.5"/><path d="m0 11v3h8.087891c.2116336.598592.7772071.999109 1.412109 1 .171876-.000857.342325-.03125.503906-.08984-.527274-.186662-.925614-.656347-.992187-1.240234h-.011719v-.169926-1.5-1z" fill="#922e9b"/><path d="m2 11v.197266c-1.07146171.240703-2 1.27521-2 2.427734 0 1.346001 1.1942339 2.375 2.5 2.375h8.25c.08644 0 .166915-.01793.25-.02734v-1.15039c-.17551.09242-.342241.153648-.464844.154296l-.287109.002c.05558.0097.111657.01618.167969.01953l-1.416016-.007862h-.9570312l-1.7792969.009766h-3.7636719c-.0973966-.000134-.1926433-.011307-.2851562-.029297-.2783204-.054121-.5271343-.186577-.7285157-.373047-.278703-.244231-.4654721-.573421-.4804687-.927734h-.0058594v-.044922-.125-1.5h1.5.5v-1zm8.605469 3.994141.002.0059h-.0957c.0313-.000974.06257-.0029.09375-.0059z" fill="#922e9b"/><path d="m1 12v1.5.169922h.011719c.0863071.75699.7263879 1.32903 1.488281 1.330078.1023627.000007.2044573-.01046.3046875-.03125v.02148h5.1953125l1.416016.0078c-.7289575-.041898-1.3218367-.602618-1.404297-1.328108h-.011719v-.169922-1.5zm8.605469 2.994141c-.03118.0029-.06245.0049-.09375.0059h.0957z" fill="#d492d8"/><path d="m14 .05273438v1.05078122c.189533.0691263.367347.1633377.513672.2988282.189174.1657756.330661.3723074.410156.5976562h-.923828v2 .8027344.1972656h2v-2.625-.375h-.035156c-.168921-.9906683-.989692-1.74952773-1.964844-1.94726562z" fill="#922e9b"/><path d="m13.416016 1c.171876.000857.422403.0449256.583984.1035156-.527274.186662-.921708.6426757-.988281 1.2265627h-.01172v.1699217 1.5 1h-.999999v-3h.0039c.211633-.598592.777207-.999109 1.41211-1z" fill="#f00"/><path d="m14 .05273438c-.975152.19773789-1.795927.95659732-1.964844 1.94726562h-.035156v.375 2.625h2v-.1972656-.8027344h-1v-1.5-.1699219h.011719c.013282-.1168576.049297-.2242185.08789-.3300781h-.023437c.054283-.15388.146365-.2925289.253906-.421875.010561-.0129858.022214-.0244939.033203-.0371094.041109-.0461956.075754-.097228.123047-.1386718.043472-.0402534.094066-.0701247.142578-.1035157.010673-.0075548.020375-.0161491.03125-.0234375.106119-.0685843.219102-.1278381.339844-.171875z" fill="#922e9b"/><path d="m14.021484 1.095703c-.536381.1839047-.943075.6476307-1.009765 1.234375h-.011719v.169922 1.5h2v-1.5-.1699219h-.01172c-.065537-.5748344-.451748-1.0418811-.966796-1.2343751z" fill="#d492d8"/></svg>