<svg viewBox="0 0 16 16" xmlns="http://www.w3.org/2000/svg"><g fill-opacity=".900735"><path d="m14.611937 6.1187486c.972455 2.9043716.08116 6.1082384-2.251469 8.0931554l-4.4773002-5.5860754z" fill="#309048"/><path d="m13.857422 7.4472656-4.3593751 1.6230469 2.9003911 3.6191405c1.246509-1.458789 1.771972-3.3489104 1.458984-5.2421874z" fill="#a1ddaa"/><g transform="matrix(.30901699 .95105652 -.95105652 .30901699 13.267796 -1.259027)"><path d="m14.611937 6.1187486c.972455 2.9043716.08116 6.1082384-2.251469 8.0931554l-4.4773002-5.5860754z" fill="#0063b1"/><path d="m13.857422 7.4472656-4.3593751 1.6230469 2.9003911 3.6191405c1.246509-1.458789 1.771972-3.3489104 1.458984-5.2421874z" fill="#83beec"/></g><g transform="matrix(-.80901699 .58778525 -.58778525 -.80901699 18.565176 10.970336)"><path d="m14.611937 6.1187486c.972455 2.9043716.08116 6.1082384-2.251469 8.0931554l-4.4773002-5.5860754z" fill="#922e9b"/><path d="m13.857422 7.4472656-4.3593751 1.6230469 2.9003911 3.6191405c1.246509-1.458789 1.771972-3.3489104 1.458984-5.2421874z" fill="#d492d8"/></g><g transform="matrix(-.80901699 -.58778525 .58778525 -.80901699 8.571341 19.787525)"><path d="m14.611937 6.1187486c.972455 2.9043716.08116 6.1082384-2.251469 8.0931554l-4.4773002-5.5860754z" fill="#d42314"/><path d="m13.857422 7.4472656-4.3593751 1.6230469 2.9003911 3.6191405c1.246509-1.458789 1.771972-3.3489104 1.458984-5.2421874z" fill="#ff9198"/></g><g transform="matrix(.30901699 -.95105652 .95105652 .30901699 -2.902569 13.007484)"><path d="m14.611937 6.1187486c.972455 2.9043716.08116 6.1082384-2.251469 8.0931554l-4.4773002-5.5860754z" fill="#fb983b"/><path d="m13.857422 7.4472656-4.3593751 1.6230469 2.9003911 3.6191405c1.246509-1.458789 1.771972-3.3489104 1.458984-5.2421874z" fill="#f8db8f"/></g></g></svg>