<svg viewBox="0 0 16 16" xmlns="http://www.w3.org/2000/svg">

/&amp;amp;amp;gt;<path d="m2 1v11h2v-10h4l-1-1z" fill="#fafafa"/><path d="m3.5 6c-.277 0-.5.223-.5.5s.223.5.5.5h.5v-1z" fill="#1e8bcd"/><path d="m3.5 9c-.277 0-.5.223-.5.5s.223.5.5.5h.5v-1z" fill="#1e8bcd"/><path d="m6 4h5l3 3v8h-8z" fill="#fafafa"/><g fill="#1e8bcd"><rect height="1" ry=".5" width="6" x="7" y="9"/><rect height="1" ry=".5" width="6" x="7" y="12"/></g><g fill="#3a3a38"><path d="m6 3c-.554 0-1 .446-1 1v11c0 .554.446 1 1 1h8c.554 0 1-.446 1-1v-6-1.5-.8632812l-3.636719-3.6367188h-.863281-.5zm0 1h4v3.5c0 .277.223.5.5.5h3.5v1 6h-8zm5 0 3 3h-3z"/><path d="m2 0c-.554 0-1 .446-1 1v11c0 .554.446 1 1 1h2v-1h-2v-11h4v1h1v-1l1 1h1.3632812l-2-2h-.8632812-.5z"/></g></svg>