<svg viewBox="0 0 16 16" xmlns="http://www.w3.org/2000/svg"><path d="m8 1a7 7 0 0 0 -7 7 7 7 0 0 0 7 7 7 7 0 0 0 7-7 7 7 0 0 0 -7-7z" fill="#d42314"/><path d="m14 8a6 6 0 0 1 -6 6 6 6 0 0 1 -6-6 6 6 0 0 1 6-6 6 6 0 0 1 6 6z" fill="#ff9198" fill-opacity=".965649"/><path d="m4.40625 4.0917969a.50005.50005 0 0 0 -.3496094.859375l3.1425782 3.1425781-3.1425782 3.142578a.50005.50005 0 1 0 .7070313.707031l3.1425781-3.1425778 3.142578 3.1425778a.50005.50005 0 1 0 .707031-.707031l-3.1425778-3.142578 3.1425778-3.1425781a.50005.50005 0 0 0 -.363281-.859375.50005.50005 0 0 0 -.34375.1523437l-3.142578 3.1425782-3.1425781-3.1425782a.50005.50005 0 0 0 -.3574219-.1523437z" fill="#fafafa"/></svg>