<svg viewBox="0 0 16 16" xmlns="http://www.w3.org/2000/svg">/&amp;gt;<path d="m14 1v10h-8v-10z" fill="#fafafa"/><path d="m14 0c.554 0 1 .446 1 1v10c0 .554-.446 1-1 1h-8c-.554 0-1-.446-1-1v-10c0-.554.446-1 1-1zm0 1h-8v10h8z" fill="#3a3a38"/><path d="m12 3v10h-8v-10z" fill="#fafafa"/><path d="m12 2c.554 0 1 .446 1 1v10c0 .554-.446 1-1 1h-8c-.554 0-1-.446-1-1v-10c0-.554.446-1 1-1zm0 1h-8v10h8z" fill="#3a3a38"/><path d="m10 4c.554 0 1 .446 1 1v10c0 .554-.446 1-1 1h-8c-.554 0-1-.446-1-1v-10c0-.554.446-1 1-1zm0 1h-8v10h8z" fill="#3a3a38"/><path d="m10 5v10h-8v-10z" fill="#fafafa"/></svg>