<svg viewBox="0 0 16 16" xmlns="http://www.w3.org/2000/svg">

/&amp;gt;<g fill="#1e8bcd" transform="matrix(0 1 -1 0 15.999999 .000001)"><rect fill="#3a3a38" height="16" rx=".5" width="1" x="9"/><rect fill="#3a3a38" height="16" rx=".5" width="1" x="6"/><path d="m3.4999984 1.0019531c.1345093-.0001797.2633927.05405.3574219.1503907l1.9492187 1.9511718c.1299054.1003353.1937249.248249.1933594.3964844.0003655.1482354-.063454.2961491-.1933594.3964844l-1.9492187 1.9511718c-.0940292.0963407-.2229126.1505704-.3574219.1503907-.4471002-.0006665-.6676852-.5446938-.3476562-.8574219l1.1367187-1.140625h-4.2890625v-.5-.5h4.2890625l-1.1367187-1.140625c-.320029-.3127281-.0994441-.8567554.3476562-.8574219z" fill-rule="evenodd"/><path d="m9 9h5v6h-5z" fill="#3a3a38"/><path d="m10 10h3v4h-3z" fill="#fafafa"/><path d="m2 7h5v8h-5z" fill="#3a3a38"/><path d="m3 8h3v6h-3z" fill="#fafafa"/><path d="m12.5 1.0019531c-.13451-.0001797-.263393.05405-.357422.1503907l-1.949219 1.9511718c-.129905.1003353-.193725.248249-.193359.3964844-.000366.1482354.06345.2961491.193359.3964844l1.949219 1.9511718c.094029.0963407.222912.1505704.357422.1503907.4471-.0006665.667685-.5446938.347656-.8574219l-1.136719-1.140625h4.289063v-.5-.5h-4.289063l1.136719-1.140625c.320029-.3127281.099444-.8567554-.347656-.8574219z" fill-rule="evenodd"/></g></svg>