<svg viewBox="0 0 16 16" xmlns="http://www.w3.org/2000/svg"><path d="m1 1h14v14h-14z" fill="#fafafa"/><path d="m0 0v16h16v-16zm1 1h14v14h-14z" fill="#3a3a38"/><path d="m3 1v4h-2v1h2v4h-2v1h2v4h1v-4h8v4h1v-4h2v-1h-2v-4h2v-1h-2v-4h-1v4h-8v-4zm1 5h8v4h-8z" fill="#797774"/><g fill="#0063b1"><path d="m3 10h10v6h-10z" stroke-width="1.279204"/><path d="m3 5h5v6h-5z" stroke-width=".904534"/><path d="m3 0h7v6h-7z" stroke-width="1.070259"/></g><path d="m4 1h5v4h-5z" fill="#83beec" stroke-width=".790569"/><path d="m4 11h8v4h-8z" fill="#83beec" stroke-width=".852803"/><path d="m4 6h3v4h-3z" fill="#83beec" stroke-width=".707107"/></svg>