<svg viewBox="0 0 16 16" xmlns="http://www.w3.org/2000/svg">


/&amp;amp;amp;gt;<path d="m3 0c-.554 0-1 .446-1 1v14c0 .554.446 1 1 1h5.2832031c-.1748928-.296284-.2831667-.63579-.2832031-1h-5v-14h7 2.001953.996094.001953 1c0-.554-.446-1-1-1z" fill="#3a3a38"/><path d="m3 1v14h5v-1c.0001092-1.092631.9073684-1.999891 2-2v-6c-1.0926313-.0001092-1.9998908-.9073687-2-2v-1c.0001092-1.0926313.9073687-1.9998908 2-2zm9.001953 0c.174935.0002442.330501.0897775.498047.1347656.167546-.0449881.323112-.1345214.498047-.1347656z" fill="#fafafa"/><path d="m4 3h4v4h-4z" fill="#797774"/><path d="m9 6v1h1v-1zm-5 3v1h6v-1zm0 3v1h4.2832031c.3497856-.592568.9883758-.999927 1.7167969-1z" fill="#797774"/><path d="m10 2.0000005c-.5522619.0000552-.9999448.4477381-1 1v1c.0000552.5522619.4477381.9999448 1 1h1v7.9999995h-1c-.5522619.000055-.9999448.447738-1 1v1c.0000552.552262.4477381.999945 1 1h2c.175608-.000245.348056-.04672.5-.134766.151944.08804.324392.134521.5.134766h2c.552262-.000055.999945-.447738 1-1v-1c-.000055-.552262-.447738-.999945-1-1h-1v-7.9999995h1c.552262-.0000552.999945-.4477381 1-1v-1c-.000055-.5522619-.447738-.9999448-1-1h-2c-.175608.0002451-.348056.0467252-.5.1347656-.151944-.0880404-.324392-.1345205-.5-.1347656z" fill="#3a3a38"/><path d="m10 3.0000005v1h2v-1zm2 1v9.9999995h1v-9.9999995zm1 0h2v-1h-2zm0 9.9999995v1h2v-1zm-1 0h-2v1h2z" fill="#fafafa"/></svg>