<svg viewBox="0 0 16 16" xmlns="http://www.w3.org/2000/svg"><path d="m9.3867188 1-7.9375 8.0351562 4.5507812 5.5429688v-8.578125h3.2773438c-.1715799-.29506-.2773438-.634089-.2773438-1 0-1.1045695.895431-2 2-2s2 .8954305 2 2c0 .365911-.105764.70494-.277344 1h2.277344v-5z" fill="#fafafa"/><g fill="#3a3a38"><path d="m9 0-9 9 6 7v-1.421875l-4.5507812-5.5429688 7.9375-8.0351562h5.6132812v5h1v-6z"/><path d="m11 3a2 2 0 0 0 -2 2 2 2 0 0 0 .2695312 1h1.7304688a1 1 0 0 1 -1-1 1 1 0 0 1 1-1 1 1 0 0 1 1 1 1 1 0 0 1 -1 1h1.728516a2 2 0 0 0 .271484-1 2 2 0 0 0 -2-2z"/></g><path d="m7 7h9v9h-9z" fill="#3a3a38"/><path d="m8 8h7v7h-7z" fill="#fafafa"/><g fill="#1e8bcd"><path d="m11 10c0 .552285-.447715 1-1 1-.5522847 0-1-.447715-1-1 0-.5522847.4477153-1 1-1 .552285 0 1 .4477153 1 1z"/><path d="m12 9h2v1h-2z"/><path d="m11 13c0 .552285-.447715 1-1 1-.5522847 0-1-.447715-1-1s.4477153-1 1-1c.552285 0 1 .447715 1 1z"/><path d="m12 12h2v1h-2z"/></g></svg>