<svg viewBox="0 0 16 16" xmlns="http://www.w3.org/2000/svg">
/&amp;amp;gt;<path d="m3.9589844 0c-.55954 0-.9589844.44045999-.9589844 1v4c0 .55954.3899217.983507.9492188 1h1.0507812v8.285156l3.8710938-4.285156h-.8710938v-1h.5039062c.2797702 0 .5058594-.2260893.5058594-.5058594 0-.2797698-.2260892-.5039062-.5058594-.5039062h-.5039062v-1.9902344h2.029297c.55954 0 .970703-.44046.970703-1v-4c0-.55953951-.399444-1-.958984-1zm1.0703125.8203125c.5578076 0 1.0097656.451958 1.0097656 1.0097656s-.451958 1.0097657-1.0097656 1.0097657-1.0097657-.4519581-1.0097657-1.0097657.4519581-1.0097656 1.0097657-1.0097656z" fill="#3a3a38"/><g fill="#fafafa" transform="matrix(1.01 0 0 1.01 -4.06 -3.22)"><path d="m8.9993039 4.0004641c-.5521036.000128-.9996399.4476643-.999768.9997679.0001281.5521035.4476644.99964.999768.999768.5521035-.0001281.9996398-.4476645.9997679-.999768-.0001281-.5521035-.4476645-.9996398-.9997679-.9997679z"/><path d="m6.5 5c-.277 0-.5.2260894-.5.5058594v7.6718746l1-1.105468v-6.5664066c0-.27977-.223-.5058594-.5-.5058594z" stroke-width="1.01" transform="matrix(.99009901 0 0 .99009901 4.019802 3.188119)"/></g><path d="m15.5 5.0000003-9.5 10.4999997h9.5zm-2 5.4999997v.976392 2.023608h-2-.5z" fill="#f8db8f" fill-rule="evenodd" stroke="#ed8733"/></svg>