<svg viewBox="0 0 16 16" xmlns="http://www.w3.org/2000/svg">
/&amp;amp;amp;gt;<path d="m1 1v2 1 1.9355469c0-.5178897.446-.9355469 1-.9355469h3 1 1c.554 0 1 .4176572 1 .9355469v.0644531.0332031a1.0007407 1.0007407 0 0 1 .4570312.2597657l3.0429688 3.0429687 3.042969-3.0429687a1.0007407 1.0007407 0 0 1 .457031-.2597657v-.0332031-2-1-2h-4-1-4-1zm14 9.164062-1.335938 1.335938.5.5h.835938z" fill="#fafafa"/><path d="m0 0v8h1v-2.0644531-1.9355469-1-2h4 1 4 1 4v2 1 2 .0332031a1.0007407 1.0007407 0 0 1 .957031.2597657l.042969.0429687v-6.3359375zm16 9.1640625-1 .9999995v1.835938h-.835938l1 1h.835938z" fill="#3a3a38"/><path d="m6 7v1h-3v-1zm0 5v1h-3v-1z" fill="#fafafa"/><path d="m2 6v2 1h4.8359375l-.5429687-.5429688a1.0007407 1.0007407 0 0 1 -.2929688-.6914062v.234375h-3v-1h3v.765625a1.0007407 1.0007407 0 0 1 .2929688-.7226562l.7070312-.7070313v-.3359375zm-1 3c-.554 0-1 .446-1 1v2c0 .554.446 1 1 1h1v1h1 3 .8359375l.1640625-.164062v-.835938h.8359375l1.1640625-1.164062v-.671876l-1-1v.835938h-1-5-1zm2 3h3v1h-3z" fill="#3a3a38"/><path d="m7 9h-5v1h5z" fill="#1e8bcd"/><path d="m5 1v2h-4v1h4v1h1v-1h4v2h-2v.0332031a1.0007407 1.0007407 0 0 1 .4570312.2597657l.7070313.7070312h.8359375v.8359375l1 1v-1.8359375h2.835938l.707031-.7070312a1.0007407 1.0007407 0 0 1 .457031-.2597657v-.0332031h-4v-2h4v-1h-4v-2h-1v2h-4v-2zm6.164062 8 .335938.3359375.335938-.3359375z" fill="#797774" fill-opacity=".959559"/><path d="m1 1v2 1 1 .9355469c0-.5178897.446-.9355469 1-.9355469h3 1 1c.554 0 1 .4176572 1 .9355469v.0644531h2v-1-1-1-2h-1.5-2.5-1z" fill="#5a81a9" opacity=".5"/><path d="m5 1v2h-4v1h4v1h1v-1h4v1 1h-2v.0332031a1.0007407 1.0007407 0 0 1 .4570312.2597657l.7070313.7070312h.8359375 1v-2.5-3.5h-1v2h-4v-2z" fill="#1e8bcd"/><path d="m0 0v7h1v-6h10v-1h-10z" fill="#0063b1" fill-opacity=".959559"/><path d="m15.25 7.0000002-3.75 3.7499998-3.75-3.7499998-.75.75 3.75 3.7499998-3.75 3.75.75.75 3.75-3.75 3.75 3.75.75-.75-3.75-3.75 3.75-3.7499998z" fill="#ed3d3b"/></svg>