<svg viewBox="0 0 16 16" xmlns="http://www.w3.org/2000/svg"><path d="m12.517578 2.9804688c-.158062-.00246-.307979.069963-.404297.1953124l-2.960937 2.9570313c-.491945.4699008.232466 1.1983259.705078.7089844l2.152344-2.1484375-.01172 5.296875v.00977l.001954-.0000044c0 1.104569-.895431 2-2 2v-.0098l-5.283203-.01172 2.144531-2.1406254c.328848-.317806.09381-.873807-.363281-.859375-.12976.0036-.253031.05754-.34375.1503906l-2.957031 2.9531248c-.260944.199523-.261914.592163-.002.792969l2.957031 2.960938c.469897.491948 1.198329-.232467.708984-.705079l-2.14839-2.152307 5.287109.011718v.009766c1.656854 0 3-1.343146 3-3v-.00977l.0098-5.2929688 2.140625 2.1445313c.317806.3288785.873807.093811.859375-.3632813-.0036-.1297601-.05754-.2530304-.150391-.34375l-2.953159-2.9570268c-.09258-.1217304-.235766-.194405-.388672-.1972656z" fill="#1e8bcd" fill-rule="evenodd"/><g fill="#3a3a38"><g fill="#3a3a38"><path d="m0 0h3v3h-3z"/><path d="m5 0v3h5.875l.53125-.53125-.08594.097656c.288389-.3753121.73964-.5933075 1.212891-.5859374a1.0001 1.0001 0 0 1 .0039 0c.457927.00857.888786.227271 1.166016.5917968l-.089836-.1015623.529297.5292969h1.857422v-3z"/><path d="m0 5v11h3v-1.90625l-.5117188-.511719.095703.08399c-.7599933-.587061-.7570072-1.795608.0058596-2.378912l-.0996094.087891.5097656-.509766v-5.865234z"/></g><path d="m1 6h1v9h-1z" fill="#c8c6c4"/><path d="m-2 6h1v9h-1z" fill="#c8c6c4" transform="rotate(-90)"/><path d="m-2 1h1v1h-1z" fill="#c8c6c4" transform="rotate(-90)"/></g></svg>