<svg height="16" viewBox="0 0 4.2333332 4.2333335" width="16" xmlns="http://www.w3.org/2000/svg" xmlns:xlink="http://www.w3.org/1999/xlink"><linearGradient id="a" gradientUnits="userSpaceOnUse" x1="65.99999896875" x2="65.99999896875" y1="25.00007869796" y2="14.00008138952"><stop offset="0" stop-color="#e9e9e9"/><stop offset=".2857143" stop-color="#f2f2f2"/><stop offset="1" stop-color="#fbfbfb"/></linearGradient><g transform="translate(0 -292.76665)"><g stroke-width=".999999" transform="matrix(.26458333 0 0 .26458333 0 292.76665)"><path d="m9.9003906 8c.1814014.5285641.0700024 1.1448413-.34375 1.5585938-.5752838.5752842-1.5458099.5752842-2.1210937 0l-1.4355469-1.4355469v.3769531c0 .8137028-.6862972 1.5-1.5 1.5s-1.5-.6862972-1.5-1.5v-.3789062l-1.4375 1.4375c-.1615311.1615309-.356146.27293-.5625.34375v5.0976562h9v-7z" fill="#fafafa"/><path d="m9.90625 4c.0578587.1575702.09375.3251095.09375.5 0 .8137028-.6862972 1.5-1.5 1.5h-.3808594l1.4375 1.4375c.5752824.5752835.5752834 1.5458103 0 2.1210938-.5752838.5752842-1.5458099.5752842-2.1210937 0l-1.4355469-1.4355469v.3769531 2.5h9v-7z" fill="url(#a)"/><path d="m6 0c-.0318284 0-.0587924.01469807-.0898438.01757813.0539926.15273443.0898438.31376338.0898438.48242187v.37890625l.8789062-.87890625zm3.8984375 0c.1842945.52985529.0734928 1.1491632-.3417969 1.5644531l-1.4355468 1.4355469h.3789062c.8137028 0 1.5.6862972 1.5 1.5s-.6862972 1.5-1.5 1.5h-.3808594l1.4375 1.4375c.1615307.161531.27293.3561459.34375.5625h.0996094v3h-4v-2.5c0 .6388123-.4244527 1.194913-1 1.40625v1.09375c0 .554003.4459999 1 1 1h4v3h-9v-5.0976562c-.32340431.1109912-.67684445.1118142-1 0v5.0976562c0 .554003.44600003 1 1 1h9c.554 0 1-.445997 1-1v-3h4c.554 0 1-.445997 1-1v-10c0-.55400315-.446-1-1-1zm.1015625 4h5v7h-4v-6c0-.5540031-.446-1-1-1zm-10 1.90625v.9726562l.87890625-.8789062h-.37890625c-.17489052 0-.34242983-.0358913-.5-.09375z" fill="#3a3a38"/></g><g fill="#bababa" transform="matrix(.26458333 0 0 .26458333 0 292.76667)"><path d="m7 9.1230469v.8769531h2v-.0996094c-.5298553.1842954-1.1491631.0734934-1.5644531-.3417968z" fill="#1e8bcd" transform="translate(0 -.000076)"/><g fill="#797774"><path d="m2.1210938 9-.1210938.1210938v.8789062h2v-.09375c-.4179771-.1534783-.7527717-.4882729-.90625-.90625z" transform="translate(0 -.000076)"/><path d="m2 11h2v1h-2z" fill="#797774"/><path d="m2 13h2v1h-2z"/><path d="m12 9h2v1h-2z"/><path d="m12 7h2v1h-2z"/><path d="m12 5h2v1h-2z"/><path d="m7 13h2v1h-2z"/></g></g><g transform="matrix(.26458333 0 0 .26458333 0 292.76665)"><g stroke-width=".999999"><path d="m9.90625 4c.0578587.1575702.09375.3251095.09375.5 0 .8137028-.6862972 1.5-1.5 1.5h-.3808594l1.4375 1.4375c.1615307.161531.27293.3561459.34375.5625h1.0996094v-3c0-.5540031-.446-1-1-1zm-9.90625 1.90625v.9726562l.87890625-.8789062h-.37890625c-.17489052 0-.34242983-.0358913-.5-.09375z" fill="#3a3a38"/><path d="m9.90625 5c-.211337.5755473-.7674377 1-1.40625 1h-.3808594l1 1h.8808594v-2z" fill="#797774"/><path d="m6 0c-.0318284 0-.0587924.01469807-.0898438.01757813.0539926.15273443.0898438.31376338.0898438.48242187v.37890625l.8789062-.87890625zm3.8984375 0c.1842945.52985529.0734928 1.1491632-.3417969 1.5644531l-1.4355468 1.4355469h.3789062c.6388123 0 1.194913.4244527 1.40625 1h6.09375v-3c0-.55400315-.446-1-1-1z" fill="#3a3a38"/></g><path d="m9.9003906 1c-.0707617.2070303-.1817515.4024546-.34375.5644531l-1.4355468 1.4355469h.3789062 6.5v-2z" fill="#797774" stroke-width=".866026"/></g></g><g transform="matrix(.26458333 0 0 .26458333 .264583 0)"><path d="m3.5 0c-.277 0-.5.223-.5.5v1.5507812a2.5 2.5 0 0 0 -.8789062.3652344l-2.26562505-2.26562498c-.19586858-.19586857-.51116267-.19586857-.70703125 0-.1958686.19586858-.1958686.51116268 0 .70703126l2.265625 2.26562502a2.5 2.5 0 0 0 -.359375.8769531h-1.5546875c-.277 0-.5.223-.5.5s.223.5.5.5h1.5507812a2.5 2.5 0 0 0 .3652344.8769531l-2.2675781 2.2675781c-.1958685.1958687-.1958685.5111627 0 .7070313.19586857.1958685.51116267.1958685.70703125 0l2.26757815-2.2675781a2.5 2.5 0 0 0 .8769531.3613281v1.5546875c0 .277.223.5.5.5s.5-.223.5-.5v-1.5507812a2.5 2.5 0 0 0 .875-.3652344l2.2675781 2.2675781c.1958686.1958686.5111627.1958686.7070313 0s.1958686-.5111626 0-.7070313l-2.265625-2.265625a2.5 2.5 0 0 0 .3613281-.8789062h1.5546875c.277 0 .5-.223.5-.5s-.223-.5-.5-.5h-1.5507812a2.5 2.5 0 0 0 -.3652344-.8769531l2.265625-2.26562502c.1958686-.19586858.1958686-.51116268 0-.70703126-.1958686-.19586857-.5111627-.19586857-.7070313 0l-2.265625 2.26562498a2.5 2.5 0 0 0 -.8769531-.3613281v-1.5546875c0-.277-.223-.5-.5-.5zm0 3a1.5 1.5 0 0 1 1.5 1.5 1.5 1.5 0 0 1 -1.5 1.5 1.5 1.5 0 0 1 -1.5-1.5 1.5 1.5 0 0 1 .4394531-1.0585938 1.5 1.5 0 0 1 .0019531-.0019531 1.5 1.5 0 0 1 1.0585938-.4394531z" fill="#fb983b"/><circle cx="3.5" cy="4.5" fill="#fafafa" r="1.5"/></g></svg>