<svg viewBox="0 0 16 16" xmlns="http://www.w3.org/2000/svg"><path d="m0 2v7h7v-7zm1 1h5v5h-5z" fill="#3a3a38"/><path d="m1 3h5v5h-5z" fill="#fafafa"/><path d="m3 3v2h-2v1h2v2h1v-2h2v-1h-2v-2z" fill="#18ab50"/><path d="m11 1v5h5v-5zm1 1h3v3h-3zm-1 4v5h5v-5zm1 1h3v3h-3zm-1 4v5h5v-5zm1 1h3v3h-3z" fill="#3a3a38"/><path d="m12 2v3h3v-3zm0 5v3h3v-3zm0 5v3h3v-3z" fill="#fafafa"/><path d="m0 9v7h7v-7zm1 1h5v5h-5z" fill="#3a3a38"/><path d="m1 10h5v5h-5z" fill="#fafafa"/><path d="m3 10v2h-2v1h2v2h1v-2h2v-1h-2v-2z" fill="#18ab50"/><path d="m7 1v5h5v-5zm1 1h3v3h-3zm-1 4v5h5v-5zm1 1h3v3h-3zm-1 4v5h5v-5zm1 1h3v3h-3z" fill="#3a3a38"/><path d="m8 2v3h3v-3zm0 5v3h3v-3zm0 5v3h3v-3z" fill="#fafafa"/></svg>