<svg height="16" viewBox="0 0 4.2333332 4.2333335" width="16" xmlns="http://www.w3.org/2000/svg"><g transform="translate(0 -292.76665)"><g stroke-width=".999999" transform="matrix(.26458333 0 0 .26458333 0 292.76665)"><path d="m1 8v7h5.2148438l.5273437-2.138672a1.0023027 1.0023027 0 0 1 .2636719-.46875c.2065804-.206447 1.7352811-1.7182 2.9941406-2.9628905v-1.4296875z" fill="#fafafa"/><path d="m6 4v7h2.4140625c.9691218-.958286 1.9840745-1.9616568 3.1660155-3.1328125a1.0023027 1.0023027 0 0 1 .128906-.1601563l1.25586-1.2539062c.095149-.0950627.084091-.067509.138672-.1015625a1.0023027 1.0023027 0 0 1 .017578-.0136719 1.0023027 1.0023027 0 0 1 .134765-.0996094l.001953-.0019531a1.0023027 1.0023027 0 0 1 .00586-.0039062c.188341-.1139339.458238-.234375.802734-.234375.325358 0 .657139.1133136.933594.3203125v-2.3183594z" fill="#fafafa"/><path d="m6 0c-.5540001 0-1 .44599685-1 1v3h-4c-.55399997 0-1 .4459969-1 1v10c0 .554003.44600003 1 1 1h4.9980469a1.0023027 1.0023027 0 0 1 .0292969-.240234l.1875-.759766h-5.2148438v-7h4v3c0 .554003.4459999 1 1 1h1.4023438c.1503598-.149139.7021998-.693942 1.0117187-1h-2.4140625v-3h4v1.4296875c.420172-.4154425.590967-.5834436 1-.9882813v-3.4414062c0-.5540031-.446-1-1-1h5v2.3183594c.057236.0428558.1165.0833651.167969.1347656l.832031.8300781v-6.2832031c0-.55400315-.446-1-1-1zm10 10.552734-.753906.722657a1.0023027 1.0023027 0 0 1 -.13086.105468l-.617187.619141h.501953c.554 0 1-.445997 1-1z" fill="#3a3a38"/></g><g fill="#bababa" transform="matrix(.26458333 0 0 .26458333 0 292.76667)"><path d="m7 9h2v1h-2z" fill="#1e8bcd"/><g fill="#797774"><path d="m2 9h2v1h-2z" fill="#797774"/><path d="m2 11h2v1h-2z" fill="#797774"/><path d="m2 13h2v1h-2z"/><path d="m12 9h2v1h-2z"/><path d="m12 7v.4160156l.417969-.4160156z" fill="#797774" transform="translate(0 -.000076)"/><path d="m12 5h2v1h-2z"/></g></g><g stroke-width=".264583"><path d="m.26458333 293.825c-.14657916 0-.26458333.118-.26458333.26458v.79375h2.9104167v-.79375c0-.14658-.1180042-.26458-.2645834-.26458z" fill="#3a3a38"/><path d="m.26458333 294.08958v.52917h1.05833337v-.52917zm1.32291667 0v.52917h1.0583333v-.52917z" fill="#797774"/><path d="m1.5875 292.76667c-.1465792 0-.2645833.118-.2645833.26458v.79375h2.9104166v-.79375c0-.14658-.1180041-.26458-.2645833-.26458z" fill="#3a3a38"/></g><path d="m1.5875 293.03125h2.38125v.52917h-2.38125z" fill="#797774" stroke-width=".229136"/></g><g fill="#fb983b" transform="scale(.26458333)"><path d="m13.804688 7.0683594c.171006-.1739438-.174941.1601863-1.386719 1.3476562l.01563.015625c.619714-.6142617 1.234361-1.2242057 1.371089-1.3632812zm-1.371094 1.3632812c-1.705556 1.6905364-4.4180608 4.3694234-4.7187502 4.6699214l-.7148438 2.898438 2.8554688-.757812 4.6835932-4.703126zm-.002 1.0078125 1.099609 1.0996089-4.0449219 4.0625-1.5039062.400391.3789062-1.535156c.3659391-.364052 2.4317849-2.404918 4.0703599-4.0273439z" fill="#0063b1"/><path d="m14.066406 7c-.142171 0-.283638.053302-.392578.1621094l-1.255859 1.2539062 2.134765 2.1367184 1.283204-1.2304684c.21788-.2175952.21788-.5675602 0-.7851562l-1.376954-1.375c-.108941-.108798-.250406-.1621094-.392578-.1621094zm0 .9941406.933594.9316406-.433594.4160157-.923828-.9257813z" fill="#0063b1"/><g fill="#83beec"><path d="m14.066406 7.9941406-.423828.421875.923828.9257813.433594-.4160157z"/><path d="m12.431641 9.4394531c-1.638575 1.6224259-3.7044208 3.6632919-4.0703129 4.0273439l-.3789062 1.535156 1.5039062-.400391 4.0449219-4.0625z"/></g></g></svg>