<svg viewBox="0 0 16 16" xmlns="http://www.w3.org/2000/svg"><g fill="#ed3d3b"><path d="m5.4882812 7c-.2687864 0-.4863281.2155885-.4863281.484375v.03125c0 .2687865.2175417.484375.4863281.484375h.5449219a1.0007407 1.0007407 0 0 1 .2597657-.9570312l.0429687-.0429688z"/><path d="m9.5019531 7c-.0963186 0-.1816573.0332577-.2578125.0800781l.9199214.9199219h1.335938c.277 0 .5-.223.5-.5s-.223-.5-.5-.5z"/><path d="m13.5 7c-.277 0-.5.223-.5.5 0 .0957335.033782.1800025.080078.2558594l.75586-.7558594z"/><path d="m.49414062 5a.50005.50005 0 0 0 -.49414062.5v4a.50005.50005 0 0 0 .77734375.4160156l3.00000005-2a.50005.50005 0 0 0 0-.8320312l-3.00000005-2a.50005.50005 0 0 0 -.28320313-.0839844z"/></g><path d="m5 9c-.554 0-.9999846.446-1 1v6h1v-6h2.8359375l-1-1zm6.164062 0 .335938.3359375.335938-.3359375z" fill="#3a3a38"/><path d="m5 10v6h1.3359375l-.042969-.04297c-.3900148-.390676-.3900148-1.023386 0-1.414062l3.042969-3.042968-1.5-1.5z" fill="#fafafa"/><path d="m5.002 6c-.554 0-1.0783767-.4515722-1-1v-5h1v5h10.000214v-5h1v5c0 .554-.446 1-1 1z" fill="#3a3a38"/><path d="m5.0015725 0v5h10.0002135v-5z" fill="#fafafa"/><path d="m15.25 7.0000002-3.75 3.7499998-3.75-3.7499998-.75.75 3.75 3.7499998-3.75 3.75.75.75 3.75-3.75 3.75 3.75.75-.75-3.75-3.75 3.75-3.7499998z" fill="#ed3d3b"/></svg>