<svg viewBox="0 0 16 16" xmlns="http://www.w3.org/2000/svg"><path d="m1.0019531.99414062v2.10546878l5.1425781 4.6757812c-.0795884.1113532-.1494211.228726-.2167968.3476563.3785903-.6763877.9675594-1.228305 1.6191406-1.6191407 1.1028841-.661539 2.467586-1.0039062 3.953125-1.0039062.270068 0 .533647.0167296.792969.0429688l2.705078-2.4726563v-2.07617188zm11.5449219 4.58203128c.132446.0170004.266087.0313837.396484.0527343l.00586-.0058593c-.132132-.0199423-.267438-.0323703-.402344-.046875zm-3.2226562 3.3867187c-.0785662.0381488-.1670743.0729124-.234375.1132813-.5257431.3153544-.58981.5530339-.5898438.6230469a1.50015 1.50015 0 0 0 0 .0019531c-.0000507.0700716.0642021.3055751.5898438.6210941.0672878.04039.1558296.075065.234375.113281z" fill="#fafafa"/><path d="m.50195312-.00976563c-.27734535-.0003003-.50225343.22460778-.50195312.50195313v2.8300781c-.00003865.1412881.05953385.2760354.1640625.3710938l5.5019531 5c.1115318-.3317944.2774328-.6366313.4785156-.9179688l-5.1425781-4.6757812v-2.10546878h13.9960939v2.07617188l-2.708985 2.4765625c.437939.037536.864715.0956313 1.271485.1953125l2.275391-2.0800781c.104027-.0946004.163552-.228533.164062-.3691406v-2.8007813c.0003-.2773453-.224608-.50225337-.501953-.50195313z" fill="#3a3a38" fill-rule="evenodd"/><path d="m11.5 7a4.5 2.7 0 0 0 -4.5 2.6992188 4.5 2.7 0 0 0 4.5 2.7011722 4.5 2.7 0 0 0 4.5-2.7011722 4.5 2.7 0 0 0 -4.5-2.6992188zm-4.5 4.476562v1.824219c0 1.491169 2.0147184 2.699219 4.5 2.699219 2.485282 0 4.5-1.20805 4.5-2.699219v-1.824219c-1.113321 1.335161-2.505846 1.824219-4.5 1.824219-2.2028805 0-3.3131403-.608807-4.5-1.824219z" fill="#f8db8f"/><path d="m11.5 7a4.5 2.7 0 0 0 -4.5 2.6992188 4.5 2.7 0 0 0 4.5 2.7011722 4.5 2.7 0 0 0 4.5-2.7011722 4.5 2.7 0 0 0 -4.5-2.6992188zm0 1c1.932997 0 3.5.6715729 3.5 1.5 0 .828427-1.555285 2.027344-3.488281 2.027344-1.9329972 0-3.511719-1.198917-3.511719-2.027344 0-.8284271 1.5670034-1.5 3.5-1.5zm-4.5 3.476562v1.824219c0 1.491169 2.0147184 2.699219 4.5 2.699219 2.485282 0 4.5-1.20805 4.5-2.699219v-1.824219c-1.113321 1.335162-2.505846 1.824219-4.5 1.824219-2.2028805 0-3.3131403-.608806-4.5-1.824219zm1.0019531 1.873047c.9575331.535022 2.0394689.914063 3.4980469.914063 1.331189 0 2.462494-.352155 3.486328-.900391-.02496.302234-.208602.664367-.800781 1.019531-.628959.377226-1.598984.654297-2.685547.654297s-2.0565882-.277071-2.6855469-.654297c-.6003967-.360093-.7929519-.728692-.8125-1.033203z" fill="#ed8733"/></svg>