<svg viewBox="0 0 16 16" xmlns="http://www.w3.org/2000/svg">

/&amp;amp;gt;<path d="m1 3v12h14v-12h-2-10z" fill="#fafafa"/><path d="m0 5v11h16v-11h-1v10h-2-10-2v-10z"/><path d="m5 6v.5898437c0 .1104418.037405.2092551.1127929.2945964.075388.080322.1602919.1205459.2534182.1204428l4.4096694-.0048829c-.1019955.125502-.1926382.2582008-.2724608.398763-.0798232.1405623-.5637725.9274364-.6391602 1.093099l-3.2460952 5.508138h1.1718757c.2261641 0 .4031348-.06018.5317381-.180664.1330381-.120482.2366237-.265515.3120123-.436198l3.1728526-5.680664c.03991-.095382.0831-.2157458.127441-.3613281.044352-.1455824.054209-.3341519.065916-.5647787v-.7763672z" fill="#3a3a38"/><path d="m0 1v3 1h1 14 1v-4h-1v3h-4v-3h-6v3h-4v-3z" fill="#0063b1"/><path d="m2.5 0c-.277 0-.5.223-.5.5v2c0 .277.223.5.5.5h1c.277 0 .5-.223.5-.5v-2c0-.277-.223-.5-.5-.5zm10 0c-.277 0-.5.223-.5.5v2c0 .277.223.5.5.5h1c.277 0 .5-.223.5-.5v-2c0-.277-.223-.5-.5-.5z" fill="#3a3a38"/><path d="m6 2h4v2h-4z" fill="#83beec" fill-opacity=".992647"/></svg>