<svg viewBox="0 0 16 16" xmlns="http://www.w3.org/2000/svg">/&gt;<path d="m1 4v2.9824219c.9362832.0028356 1.9001788.0016123 2.8691406 0l-.4316406-.4316407c-.4550542-.4448888-.5506114-1.1422989-.3320312-1.6582031.1997458-.4714508.695095-.8425809 1.2636718-.8925781zm3.703125 0c.3230527.0476738.6252005.1940087.8554688.4296875l2.9511718 2.9492187-.0996094-.0878906c.6408106.4899784.6207572 1.3647193.1875 1.9980469l1.8437498-1.8417969c.271882-.2782697.642232-.4403794 1.03125-.4511718.636158-.0174468 1.203295.3981582 1.421875.9140624.21858.5159043.123023 1.2133143-.332031 1.6582032l-.431641.4316406c.968963.001621 1.932858.002854 2.869141 0v-6zm-3.703125 5.9824219v4.0175781h7.8867188l-1.3222657-1.322266.046875.03125-.0273437-.021484c-.6382722-.493114-.6141306-1.366858-.1777344-1.998047l-1.8417969 1.839844c-.2920954.30423-.7436334.48949-1.1503906.46875-.4067572-.020735-.7444098-.199488-.9921875-.447266s-.4265316-.58543-.4472656-.992187c-.0207343-.406758.1645193-.858296.46875-1.150391l.4257812-.4257811c-.9689814.0000185-1.9320056.0000043-2.8691406 0zm11.130859 3.0175781.425782.425781c.162765.156273.28781.357944.36914.574219h2.074219v-1c-.937135.000004-1.900159.000019-2.869141 0z" fill="#fafafa"/><path d="m0 1v1 2 3.0761719c.15774285-.0576783.32449027-.09375.5-.09375h.00195312.00390626c.15849887.0008903.33288831-.0004884.49414062 0v-2.9824219h3.3691406c.0536115-.0047143.1033879-.0229877.1582032-.0214844.0595418.0016519.1174001.0128689.1757812.0214844h10.296875v6c.161252-.0004915.335642.000896.494141 0h.003906.001953c.17551 0 .342257.036072.5.09375v-6.09375-2-1h-1-14zm0 8.8886719v4.1113281c0 .554.446 1 1 1h8.8886719l-1.0019531-1h-7.8867188v-4.0175781c-.16331284-.0000008-.33935964 0-.5 0-.17550973 0-.34225715-.0360717-.5-.09375zm16 3.0175781c-.157743.057678-.32449.09375-.5.09375-.16064 0-.336687-.000001-.5 0v1h-2.074219c.070687.187971.109249.387032.09961.576172-.007782.152653-.044207.291739-.091797.423828h2.066406c.554 0 1-.446 1-1z" fill="#3a3a38"/><g fill="#1e8bcd" fill-rule="evenodd"><path d="m11.5 7.9960938c-.129759.0036-.253031.05754-.34375.1503906l-2.9589844 2.9570316c-.260943.199523-.2618671.592162-.00195.792968l.00586.0039 2.9550781 2.953125c.471255.490833 1.197865-.235777.707031-.707032l-2.1484409-2.146477c1.9033262-.000254 3.9265882 0 5.7851562 0 .276142 0 .5-.223858.5-.5s-.223858-.5-.5-.5c-1.861547.01045-3.87969 0-5.7851562 0l2.1484372-2.1464844c.32527-.318004.09145-.8698928-.363281-.8574218z"/><path d="m4.5009666 4.9791336c.129759.0036.253031.05754.34375.1503906l2.9589844 2.9570316c.260943.199523.2618671.592162.00195.792968l-.00586.0039-2.9550784 2.9531252c-.471255.490833-1.197865-.235777-.707031-.707032l2.1484412-2.1464772c-1.9033262-.000254-3.9265882 0-5.78515622 0-.276142 0-.5-.223858-.5-.5s.223858-.5.5-.5c1.86154702.01045 3.87969002 0 5.78515622 0l-2.1484372-2.1464844c-.32527-.318004-.09145-.8698928.363281-.8574218z"/></g></svg>