<svg viewBox="0 0 16 16" xmlns="http://www.w3.org/2000/svg">


/&amp;amp;amp;gt;<path d="m3 0c-.554 0-1 .446-1 1v14c0 .554.446 1 1 1h2.9980469a1.0023027 1.0023027 0 0 1 .0292969-.240234l.1875-.759766h-3.2148438v-14h10v5.4277344c.039253-.0335882.062706-.0507214.103516-.0761719a1.0023027 1.0023027 0 0 1 .017578-.0136719 1.0023027 1.0023027 0 0 1 .134765-.0996094l.001953-.0019531a1.0023027 1.0023027 0 0 1 .00586-.0039062c.174748-.1057091.426719-.2090922.736328-.2246094v-5.0078125c0-.554-.446-1-1-1zm11 12.5-1 1.005859v1.494141h-1.488281l-.945313.949219a1.0023027 1.0023027 0 0 1 -.054687.050781h2.488281c.554 0 1-.446 1-1z" fill="#3a3a38"/><path d="m3 1v14h3.2148438l.5273437-2.138672a1.0023027 1.0023027 0 0 1 .2636719-.46875c.31556-.315357 2.8667245-2.8334769 4.5742186-4.5253905a1.0023027 1.0023027 0 0 1 .128906-.1601563l1.25586-1.2539062c.024006-.023981.021911-.0140573.035156-.0253906v-5.4277344zm10 12.505859-1.488281 1.494141h1.488281z" fill="#fafafa"/><g fill="#797774"><path d="m4 3h4v4h-4z"/><path d="m9 3h3v1h-3z"/><path d="m9 6h3v1h-3z"/><path d="m4 9v1h5.4238281c.4020751-.3974617.5835099-.5764713 1.0117189-1zm0 3v1h2.7070312l.0351563-.138672a1.0023027 1.0023027 0 0 1 .2636719-.46875c.0273633-.027346.3375085-.334081.3964844-.392578z"/></g><g fill="#fb983b"><path d="m13.804688 7.0683594c.171006-.1739438-.174941.1601863-1.386719 1.3476562l.01563.015625c.619714-.6142617 1.234361-1.2242057 1.371089-1.3632812zm-1.371094 1.3632812c-1.705556 1.6905364-4.4180608 4.3694234-4.7187502 4.6699214l-.7148438 2.898438 2.8554688-.757812 4.6835932-4.703126zm-.002 1.0078125 1.099609 1.0996089-4.0449219 4.0625-1.5039062.400391.3789062-1.535156c.3659391-.364052 2.4317849-2.404918 4.0703599-4.0273439z" fill="#0063b1"/><path d="m14.066406 7c-.142171 0-.283638.053302-.392578.1621094l-1.255859 1.2539062 2.134765 2.1367184 1.283204-1.2304684c.21788-.2175952.21788-.5675602 0-.7851562l-1.376954-1.375c-.108941-.108798-.250406-.1621094-.392578-.1621094zm0 .9941406.933594.9316406-.433594.4160157-.923828-.9257813z" fill="#0063b1"/><g fill="#83beec"><path d="m14.066406 7.9941406-.423828.421875.923828.9257813.433594-.4160157z"/><path d="m12.431641 9.4394531c-1.638575 1.6224259-3.7044208 3.6632919-4.0703129 4.0273439l-.3789062 1.535156 1.5039062-.400391 4.0449219-4.0625z"/></g></g></svg>