<svg viewBox="0 0 16 16" xmlns="http://www.w3.org/2000/svg">/&gt;<path d="m1.0019531 1v5h13.9999999v-5zm0 6v4h1.0917969c.0083127-.024485.0079317-.052381.0175781-.076172.2081125-.513266.757203-.9329063 1.3847657-.9355468.4051407-.0015363.7948318.1615408 1.078125.4511718l.5605468.560547h.8710938v-2.484375c-.0124215-.7938529.6244725-1.4668528 1.4101562-1.515625zm6.5683594 0c.7938058.0364493 1.448122.7119866 1.4355469 1.515625v2.484375h.8710937l.5546879-.554688c.292094-.304234.743631-.4894831 1.15039-.4687495.40676.0207336.744409.1994485.992188.4472655.156691.156692.280398.352849.359375.576172h2.068359v-4z" fill="#fafafa"/><path d="m.00195313 0v1 5h.99804687v-5h4.0019531v4h-4v1h4 1 3.9999999 1 4v-1h-4v-4h4.001953v5h.998047v-5-1zm5.99999997 1h3.9999999v4h-3.9999999zm-5.99999997 6v4.5c-.00038442.276301.22369854.500384.49999999.5h1.61328128c-.118465-.33115-.1285276-.686748-.0234375-.998047h-1.0917969v-4.001953zm4.99999997 0v3.867188l.1328125.132812h.8671875v-4zm4.9999999 0v3.875l.429688-.429688c.155297-.161751.355567-.285777.570312-.367187v-3.078125zm5.001953 0v4.001953h-2.070312c.04556.129337.0803.265194.08789.414063.0098.191857-.03077.393633-.103515.583984h2.583984c.276301.000384.500384-.223699.5-.5v-4.5zm-9.8671872 4.001953.8691406.869141v-.869141z" fill="#3a3a38"/><g fill="none" stroke="#1e8bcd" stroke-linecap="round" stroke-linejoin="round" transform="matrix(0 -1 -1 0 17 18)"><path d="m6.5071212 5.4949499-4 4 4 4.0000001"/><path d="m2.5071212 9.4949499h6.9928788"/></g></svg>