<svg viewBox="0 0 16 16" xmlns="http://www.w3.org/2000/svg">



/&amp;amp;amp;amp;gt;<path d="m5.90625 0c.0578587.15757018.09375.32510948.09375.5v.37890625l.8789062-.87890625zm3.9921875 0c.1124045.3231665.1125915.6762995.0019531 1h5.0996094v14h-10v-.390625l-.8652344.865234c.1697612.309002.4864183.525391.8652344.525391h10c.554 0 1-.446 1-1v-14c0-.554-.446-1-1-1z" fill="#3a3a38"/><path d="m9.9003906 1c-.0707617.2070303-.1817515.4024546-.34375.5644531l-1.4355468 1.4355469h.3789062c.8137028 0 1.5.6862972 1.5 1.5 0 .0884233-.0118524.1750685-.0273438.2597656l1.7343748 1.734375a.99570177.99570177 0 0 1 0 1.4082032l-6.707031 6.7070312v.390625h10v-14z" fill="#fafafa"/><path d="m8.5 3c.8137028 0 1.5.6862972 1.5 1.5v-1.5zm1.5 1.5c0 .0884233-.0118524.1750685-.0273438.2597656l.0273438.0273438zm1-1.5v1h3v-1zm.212891 3 .49414.4941406a.99570177.99570177 0 0 1 .269531.5058594h2.023438v-1zm-.603516 3-1 1h4.390625v-1zm-3 3-1 1h7.390625v-1z" fill="#797774"/><g transform="translate(1)"><path d="m3.5 0c-.277 0-.5.223-.5.5v1.5507812a2.5 2.5 0 0 0 -.8789062.3652344l-2.26562505-2.26562498c-.19586858-.19586857-.51116267-.19586857-.70703125 0-.1958686.19586858-.1958686.51116268 0 .70703126l2.265625 2.26562502a2.5 2.5 0 0 0 -.359375.8769531h-1.5546875c-.277 0-.5.223-.5.5s.223.5.5.5h1.5507812a2.5 2.5 0 0 0 .3652344.8769531l-2.2675781 2.2675781c-.1958685.1958687-.1958685.5111627 0 .7070313.19586857.1958685.51116267.1958685.70703125 0l2.26757815-2.2675781a2.5 2.5 0 0 0 .8769531.3613281v1.5546875c0 .277.223.5.5.5s.5-.223.5-.5v-1.5507812a2.5 2.5 0 0 0 .875-.3652344l2.2675781 2.2675781c.1958686.1958686.5111627.1958686.7070313 0s.1958686-.5111626 0-.7070313l-2.265625-2.265625a2.5 2.5 0 0 0 .3613281-.8789062h1.5546875c.277 0 .5-.223.5-.5s-.223-.5-.5-.5h-1.5507812a2.5 2.5 0 0 0 -.3652344-.8769531l2.265625-2.26562502c.1958686-.19586858.1958686-.51116268 0-.70703126-.1958686-.19586857-.5111627-.19586857-.7070313 0l-2.265625 2.26562498a2.5 2.5 0 0 0 -.8769531-.3613281v-1.5546875c0-.277-.223-.5-.5-.5zm0 3a1.5 1.5 0 0 1 1.5 1.5 1.5 1.5 0 0 1 -1.5 1.5 1.5 1.5 0 0 1 -1.5-1.5 1.5 1.5 0 0 1 .4394531-1.0585938 1.5 1.5 0 0 1 .0019531-.0019531 1.5 1.5 0 0 1 1.0585938-.4394531z" fill="#fb983b"/><circle cx="3.5" cy="4.5" fill="#fafafa" r="1.5"/></g><g transform="matrix(2.7716524 2.7716524 -2.7716524 2.7716524 822.44739 -810.11404)"><path d="m.26458332 293.82498h.79374998v3.175h-.79374998z" fill="#3a3a38"/><path d="m.52916664 294.08957h.26458332v1.05833h-.26458332z" fill="#fafafa"/></g></svg>