<svg viewBox="0 0 16 16" xmlns="http://www.w3.org/2000/svg">
/&amp;amp;gt;<path d="m15 2h-10v7h10z" fill="#fafafa"/><path d="m16 2c0-.554-.446-1-1-1h-10c-.554 0-1 .446-1 1v7c0 .554.446 1 1 1h10c.554 0 1-.446 1-1zm-1 0v7h-10v-7z" fill="#3a3a38"/><g transform="matrix(0 1 1 0 0 0)"><path d="m1 10c-.554 0-1 .446-1 1v2c0 .554.446 1 1 1h9c.554 0 1-.446 1-1v-2c0-.554-.446-1-1-1z" fill="#ed8733"/><path d="m1 11h9v2h-9z" fill="#f8db8f"/><path d="m2 10v2h1v-2zm3 0v2h1v-2zm3 0v2h1v-2z" fill="#ed8733"/></g><path d="m12 7c0-.554-.446-1-1-1h-10c-.554 0-1 .446-1 1v7c0 .554.446 1 1 1h10c.554 0 1-.446 1-1zm-1 0v7h-10v-7z" fill="#3a3a38"/><path d="m11 7h-10v7h10z" fill="#fafafa"/><g transform="matrix(0 1 1 0 -4 5)"><path d="m1 10c-.554 0-1 .446-1 1v2c0 .554.446 1 1 1h9c.554 0 1-.446 1-1v-2c0-.554-.446-1-1-1z" fill="#ed8733"/><path d="m1 11h9v2h-9z" fill="#f8db8f"/><path d="m2 10v2h1v-2zm3 0v2h1v-2zm3 0v2h1v-2z" fill="#ed8733"/></g></svg>