<svg viewBox="0 0 16 16" xmlns="http://www.w3.org/2000/svg">
/&amp;gt;<path d="m2 2v7h4.8769531l.5605469-.5605469c.00106-.0010751.0028463-.0008831.0039062-.0019531.0934333-.0950492.240245-.0879853.3535157-.1542969a1.0001 1.0001 0 0 1 .6699219-.2949219h.0019531s.0019531.0019532.0019531.0019532c.010637-.0003.0186999.0078731.0292969.0078125v-.0097657a1.0001 1.0001 0 0 1 .5507812.171875c.3738001.156336.7000196.3995125.8457031.7441407.0125795.0297578.0129667.0648255.0234376.0957031h1.0820312v-7z" fill="#fafafa"/><path d="m5 6c-.554 0-1 .446-1 1v7c0 .554.446 1 1 1h.8945312l-1.4082031-1.408203.0957031.083984c-.7599563-.587102-.755093-1.795645.0078126-2.378906l-.0996094.087891.5097656-.509766v-3.875h9v3.988281h1v-3.988281c0-.554-.446-1-1-1zm9 7.988281v.011719h-4.8652344l.4199219.421875c.1628149.157241.2881125.361177.3691406.578125h4.0761719c.554 0 1-.446 1-1v-.011719z" fill="#3a3a38"/><path d="m13 0h3v3h-3z" fill="#0063b1"/><path d="m0 13h3v3h-3z" fill="#0063b1"/><g fill="#fafafa"><path d="m5 7v3.875l2.4375-2.4355469c.00106-.0010751.0028463-.0008831.0039062-.0019531.0934333-.0950492.240245-.0879853.3535157-.1542969a1.0001 1.0001 0 0 1 .6699219-.2949219h.0019531s.0019531.0019532.0019531.0019532c.010637-.0003.0186999.0078731.0292969.0078125v-.0097657a1.0001 1.0001 0 0 1 .5507812.171875c.3738001.156336.7000196.3995125.8457031.7441407.2189298.5178988.1197368 1.2179581-.3398437 1.6621091l-.421875.421875h4.8671875v-3.988281zm4.1230469 6.988281.0117187.011719h4.8652344v-.011719z"/><path d="m14 1h1v1h-1z"/><path d="m1 14h1v1h-1z"/></g><path d="m2 1c-.554 0-1 .446-1 1v7c0 .554.446 1 1 1h3.875l1.0019531-1h-4.8769531v-7h9v7h-1.0820312c.1057882.3119612.0989992.6679284-.0195313 1h1.1015625c.554 0 1-.446 1-1v-7c0-.554-.446-1-1-1z" fill="#3a3a38"/><path d="m0 0h3v3h-3z" fill="#0063b1"/><path d="m1 1h1v1h-1z" fill="#fafafa"/><path d="m8.4971204 8.9879134a.50005.50005 0 0 0 -.3437497.150391l-2.9570311 2.9531246a.50005.50005 0 0 0 -.002.792969l2.9570321 2.960937a.50005.50005 0 1 0 .7089837-.705078l-2.1484367-2.152344h8.7871083a.50005.50005 0 1 0 0-1h-8.7832023l2.1445307-2.1406248a.50005.50005 0 0 0 -.363281-.8593748z" fill="#1e8bcd" fill-rule="evenodd"/></svg>