<svg viewBox="0 0 16 16" xmlns="http://www.w3.org/2000/svg">
/&amp;amp;gt;<path d="m2 0c-.554 0-1 .446-1 1v11c0 .554.446 1 1 1h9.882812l.001954-.001953h-6.3281254c-.6352875.032573-1.2367834-.41335-1.4667968-.998047h-2.0898438v-11h12v6.8945312l1 1v-7.8945312c0-.554-.446-1-1-1z" fill="#3a3a38"/><path d="m2 1h12v3h-12z" fill="#797774"/><path d="m2 4v8h2.0898438c-.0621246-.157921-.1035157-.324283-.1035157-.496094 0-.807933.7634395-1.5335579 1.5703125-1.492187h6.3378904l-.441406-.4414065c-.427151-.4161561-.567527-1.1008357-.335937-1.6503906.231589-.549555.819847-.9291459 1.416015-.9140625a.99472593.99472593 0 0 1 .005859 0c.384078.0120786.760424.178646 1.027344.4550781l.433594.4335937v-3.8945312z" fill="#fafafa"/><path d="m2 4h12v1h-12z" fill="#3a3a38"/><path d="m12.508759 8a.49967901.49967901 0 0 1 .34375.1523438l2.916016 2.9160152a.49967901.49967901 0 0 1 .0039.871094l-2.919922 2.910156a.4999497.4999497 0 0 1 -.705082-.708984l2.144531-2.136719h-8.7851458a.49967901.49967901 0 1 1 0-.998047h8.7890628l-2.148438-2.1484371a.49967901.49967901 0 0 1 .361328-.8574219z" fill="#1e8bcd" fill-rule="evenodd"/></svg>