<svg viewBox="0 0 16 16" xmlns="http://www.w3.org/2000/svg">/&amp;gt;<path d="m3 1v14h3.2011719a1.0001 1.0001 0 0 1 .203125-.318359c.001515-.00001.0834338-.082309.0136719-.011719.00212-.002.0017862-.005813.0039062-.007813a1.0001 1.0001 0 0 1 .0644531-.058593c1.8185418-1.520595 2.5129642-2.700676 2.8261719-3.767578.3118616-1.0623177.2332053-2.1197771.1679688-3.4121099a1.0001 1.0001 0 0 1 .0097656-.2050781c.00156-.02415-.00357-.0253832 0-.0507812.00183-.013153.0153681-.0201772.0175781-.0332032a1.0001 1.0001 0 0 1 .2539063-.4589844 1.0001 1.0001 0 0 0 .0019531-.0019531c.2491331-.3844808.6155451-.6825881 1.0937501-.6738281.703751.0120896 1.295011.5860433 1.330078 1.2890625.01055.215079.006644.2633722-.003906.0625a1.0001 1.0001 0 0 1 -.007813.1894531c-.247154 1.7827323.068888 2.6254894.601563 3.1835934.055845.058512.151077.11022.222656.166016v-7.1855469l-2.695312-2.7050781zm7.195312 6.2675781-.007812.1894531c-.01342-.2552585-.007344-.2802091.003906-.0664062.001537.0027389.007558.0022544.007813.0058594.006-.0483443-.010707-.0800343-.003907-.1289063zm2.650391 6.8222659c-.252875.016624-.50783.0544-.767578.115234-.560306.131226-1.163203.382191-1.818359.794922h2.740234v-.908203c-.051407.001743-.102808-.005338-.154297-.001953z" fill="#fafafa"/><path d="m3 0c-.554 0-1 .446-1 1v14c0 .554.446 1 1 1h3.0292969c-.0276409-.102762-.046762-.209222-.0488281-.324219-.0021911-.121989.1127475-.216802.1484374-.339843a1.0001 1.0001 0 0 1 .0722657-.335938h-3.2011719v-14h6v3.5c0 .277.223.5.5.5h3.5v5.890625c.248709.193869.570418.372351 1 .521484v-6.912109-.8632812l-3.636719-3.6367188h-.863281zm7 1 3 3h-3zm3 13.091797v.908203h-2.740234c-.4043262.254714-.837182.598968-1.2871098 1h4.0273438c.554 0 1-.446 1-1v-.800781c-.131309-.034591-.269199-.064778-.396484-.101563-.202397-.015855-.40245-.012679-.603516-.005859z" fill="#3a3a38"/><path d="m7.3552524 15.644758c3.9201846-3.277907 3.6057646-5.7662152 3.4784016-8.2894016-.561677 4.0514056 1.529192 5.5007666 4.81093 5.7819296-2.474792-.780342-5.097383-.732202-8.2893316 2.507472z" fill="none" stroke="#ed3d3b" stroke-linecap="round" stroke-linejoin="round" stroke-width=".711393"/></svg>