<svg viewBox="0 0 16 16" xmlns="http://www.w3.org/2000/svg">/&amp;amp;amp;amp;gt;<path d="m1 1h14v14h-14z" fill="#fafafa" stroke-width="1.247219"/><path d="m0 0v6 9.5c-.00038442.276301.22369855.500384.5.5h15c.276301.000384.500384-.223699.5-.5v-9.5-6zm1 1h14v5h.001953v9.001953h-14.00390612v-9.001953h.00195312z" fill="#3a3a38"/><path d="m5 1v4h-4v1h4v4h-4v1h4v4h1v-4h4v4h1v-4h4v-1h-4v-4h4v-1h-4v-4h-1v4h-4v-4zm1 5h4v4h-4z" fill="#797774"/><g transform="matrix(-1 0 0 -1 16 16)"><path d="m5 1v4 1 4 1 4h1v-4h4v4h1v-4-1-9h-1v4h-4v-4zm1 5h4v4h-4z" fill="#1e8bcd"/><path d="m5 0v1h6v-1zm0 15v1h6v-1z" fill="#0063b1"/><path d="m6 1h4v14h-4z" fill="#1e8bcd" opacity=".5" stroke-width=".666667"/></g></svg>