<svg viewBox="0 0 16 16" xmlns="http://www.w3.org/2000/svg"><path d="m3 1v14h9.550781a1.0001 1.0001 0 0 1 -.722656-.292969l-2.828125-2.828125-.7070312-.707031a1.0001 1.0001 0 0 1 0-1.4140625l3.5351562-3.5351563a1.0001 1.0001 0 0 1 .691406-.2929687 1.0001 1.0001 0 0 1 .480469.1152344v-2.3398438l-2.695312-2.7050781zm9.550781 14h.449219v-.115234a1.0001 1.0001 0 0 1 -.449219.115234z" fill="#fafafa"/><path d="m3 0c-.554 0-1 .446-1 1v14c0 .554.446 1 1 1h10c.554 0 1-.446 1-1v-1.050781l-.050781.050781-.707031.707031a1.0001 1.0001 0 0 1 -.242188.177735v.115234h-.449219-9.550781v-14h6v3.5c0 .277.223.5.5.5h3.5v1.0449219a1.0001 1.0001 0 0 1 .242188.1777343l.707031.7070313.050781.0507813v-2.4804688-.8632812l-3.636719-3.6367188h-.863281zm7 1 3 3h-3z" fill="#3a3a38"/><path d="m12.535156 6.929688-3.535156 3.535156.707031.707031 2.828125 2.828125.707032-.707031 2.828124-2.828125-.707031-.707032-2.828125 2.828126-2.121093-2.121094 2.121093-2.121094.707032.707031-1.414062 1.414063.70703.707031 1.414064-1.414063.707031-.707031-1.414062-1.414062z" fill="#1e8bcd"/></svg>