<svg height="16" viewBox="0 0 4.2333332 4.2333335" width="16" xmlns="http://www.w3.org/2000/svg"><g stroke-width=".264583"><g stroke-width=".999999" transform="scale(.26458333)"><path d="m1 2v12h5.59375l-.1054688-.183594-.25-.429687a1.0001 1.0001 0 0 1 .2050782-1.251953l.7207031-.634766-.7207031-.634766a1.0001 1.0001 0 0 1 -.2050782-1.2519528l.25-.4296874.4980469-.8671876a1.0001 1.0001 0 0 0 .0019531-.0019531l.25-.4316406a1.0001 1.0001 0 0 1 1.1855469-.4453125l.90625.3066406.1894531-.9414062a1.0001 1.0001 0 0 1 .9804688-.8027344h.5 1 .5a1.0001 1.0001 0 0 1 .980469.8027344l.189453.9414062.90625-.3066406a1.0001 1.0001 0 0 1 .423828-.046875v-5.390625z" fill="#fafafa"/><path d="m.50195312 1.0019531c-.27630145-.0003779-.50038441.2237544-.49999999.5v3.4980469h-.00195313v9.5c-.00038442.276283.22369855.500378.5.5h6.6699219l-.1816407-.314453a1.0001 1.0001 0 0 0 -.0019531-.001953l-.390625-.681641h-5.59765622v-9.001953h.00195312v-1-2h4 1 4 1 4 .003906v3h-.001953v2.390625a1.0001 1.0001 0 0 1 .759766.4921875l.238281.4121094v-3.2949219h.001953v-3.4980469c.000384-.2762834-.223699-.5003779-.5-.5zm15.49804688 10.3535159-.164062.144531.164062.144531z" fill="#3a3a38"/><path d="m5 2v3h-4v1h4v3h-4v1h4v4h1v-4h.1113281a1.0001 1.0001 0 0 1 .1269531-.3867188l.25-.4296874.1054688-.1835938h-.59375v-3h4v.1367188a1.0001 1.0001 0 0 1 .5-.1367188h.5 1 .5 2.5v-1h-4v-3h-1v3h-4v-3z" fill="#797774"/></g><path d="m.26458367 1.5875h1.05833303v.79374h-1.05833303z" fill="#1e8bcd" opacity=".5"/><path d="m2.7781251 1.8520834-.1090372.5441529-.5250326-.177767-.0661459.1142049-.1322916.2294434-.0661459.1142047.4165121.366386-.4165121.366386.0661459.1142048.1322916.2294435.0661459.1142047.5250326-.1777669.1090372.5441529h.1322916.2645834.1322916l.1090372-.5441529.5250326.1777669.0661458-.1142047.1322917-.2294435.0661458-.1142048-.4165119-.366386.4165119-.366386-.0661458-.1142047-.1322917-.2294434-.0661458-.1142049-.5250326.177767-.1090372-.5441529h-.1322916-.2645834zm.2315104.2645833h.066146l.099219.396875h.173116l.086816.1498616.3932576-.1121378.033073.056844-.2940389.2847372.086816.1498615-.086816.1498616.2940389.2847372-.033073.056844-.3932575-.1121376-.0868165.1498616h-.173116l-.0992188.396875h-.0661458l-.0992188-.396875h-.1731161l-.0868164-.1498616-.3932576.1121378-.0330729-.0568441.2940389-.2847372-.0868164-.1498616.0868164-.1498615-.2940389-.2847372.0330729-.0568441.3932576.1121378.0868164-.1498616h.1731161zm.033073.5291666a.396875.396875 0 0 0 -.396875.396875.396875.396875 0 0 0 .396875.396875.396875.396875 0 0 0 .396875-.396875.396875.396875 0 0 0 -.396875-.396875zm0 .2645834a.13229167.13229167 0 0 1 .1322916.1322916.13229167.13229167 0 0 1 -.1322917.1322917.13229167.13229167 0 0 1 -.1322917-.1322917.13229167.13229167 0 0 1 .1322918-.1322916z" fill="#1e8bcd"/><path d="m3.0096355 2.1166667h.066146l.099219.396875h.173116l.086816.1498616.3932576-.1121378.033073.056844-.2940389.2847372.086816.1498615-.086816.1498616.2940389.2847372-.033073.056844-.3932575-.1121376-.0868165.1498616h-.173116l-.0992188.396875h-.0661458l-.0992188-.396875h-.1731161l-.0868164-.1498616-.3932576.1121378-.0330729-.0568441.2940389-.2847372-.0868164-.1498616.0868164-.1498615-.2940389-.2847372.0330729-.0568441.3932576.1121378.0868164-.1498616h.1731161zm.033073.5291666c-.219188 0-.396875.1776871-.396875.396875 0 .219188.177687.396875.396875.396875s.396875-.177687.396875-.396875c0-.2191879-.177687-.396875-.396875-.396875z" fill="#fafafa"/></g><path d="m1.5875.26458h1.0583332v.26458h-1.0583332z" fill="#c93400" opacity="0"/><path d="m-.00000007 1.3229166v.2645834.79375.2645833h.2645834 1.05833327.2645833v-1.0583333-.2645834h-.2645833-1.05833327zm.2645834.2645834h1.05833327v.79375h-1.05833327z" fill="#1e8bcd" stroke-width=".264583"/><path d="m1.5875.52916h1.058333v3.175h-1.058333z" fill="#ff9f0a" opacity="0"/></svg>