<svg height="16" viewBox="0 0 16 16" width="16" xmlns="http://www.w3.org/2000/svg"><path d="m1 2v12h5.59375l-.1054688-.183594-.25-.429687a1.0001 1.0001 0 0 1 .2050782-1.251953l.7207031-.634766-.7207031-.634766a1.0001 1.0001 0 0 1 -.2050782-1.2519528l.25-.4296874.4980469-.8671876a1.0001 1.0001 0 0 0 .0019531-.0019531l.25-.4316406a1.0001 1.0001 0 0 1 1.1855469-.4453125l.90625.3066406.1894531-.9414062a1.0001 1.0001 0 0 1 .9804688-.8027344h.5 1 .5a1.0001 1.0001 0 0 1 .980469.8027344l.189453.9414062.90625-.3066406a1.0001 1.0001 0 0 1 .423828-.046875v-5.390625z" fill="#3a3a38"/><path d="m2 3v10h4.1113281a1.0001 1.0001 0 0 1 .3320313-.865234l.7207031-.634766-.7207031-.634766a1.0001 1.0001 0 0 1 -.2050782-1.2519528l.25-.4296874.4980469-.8671876a1.0001 1.0001 0 0 0 .0019531-.0019531l.25-.4316406a1.0001 1.0001 0 0 1 1.1855469-.4453125l.90625.3066406.1894531-.9414062a1.0001 1.0001 0 0 1 .9804688-.8027344h.5 1 .5a1.0001 1.0001 0 0 1 .980469.8027344l.189453.9414062.330078-.1113281v-4.6328125z" fill="#fafafa"/><g fill="#1e8bcd"><path d="m3 4v8h3.5957031l.5683594-.5-.5683594-.5h-2.5957031v-6h8v1h.5a1.0001 1.0001 0 0 1 .5.1367188v-2.1367188z"/><path d="m1.5 1a1.5 1.5 0 0 0 -1.5 1.5 1.5 1.5 0 0 0 1.5 1.5 1.5 1.5 0 0 0 1.5-1.5 1.5 1.5 0 0 0 -1.5-1.5zm5.5 0v2h2v-2zm7.5 0a1.5 1.5 0 0 0 -1.5 1.5 1.5 1.5 0 0 0 1.5 1.5 1.5 1.5 0 0 0 1.5-1.5 1.5 1.5 0 0 0 -1.5-1.5zm-14.5 6v2h2v-2zm14 0v.6328125l.576172-.1953125a1.0001 1.0001 0 0 1 1.185547.4453125l.238281.4121094v-1.2949219zm-12.5 5a1.5 1.5 0 0 0 -1.5 1.5 1.5 1.5 0 0 0 1.5 1.5 1.5 1.5 0 0 0 1.5-1.5 1.5 1.5 0 0 0 -1.5-1.5zm5.5 2.705078v.294922h.1699219z"/><path d="m10.5 7-.412109 2.056641-1.9843754-.6718754-.25.4316406-.5.8671878-.25.43164 1.5742188 1.384766-1.5742188 1.384766.25.43164.5.867188.25.43164 1.9843754-.671875.412109 2.056641h.5 1 .5l.412109-2.056641 1.984375.671875.25-.43164.5-.867188.25-.43164-1.574218-1.384766 1.574218-1.384766-.25-.43164-.5-.8671878-.25-.4316406-1.984375.6718754-.412109-2.056641h-.5-1zm.875 1h.25l.375 1.5h.654297l.328125.566406 1.486328-.423828.125.214844-1.111328 1.076172.328125.566406-.328125.566406 1.111328 1.076172-.125.214844-1.486328-.423828-.328125.566406h-.654297l-.375 1.5h-.25l-.375-1.5h-.654297l-.328125-.566406-1.486328.423828-.125-.214844 1.1113281-1.076172-.328125-.566406.328125-.566406-1.1113281-1.076172.125-.214844 1.486328.423828.328125-.566406h.654297zm.125 2a1.5 1.5 0 0 0 -1.5 1.5 1.5 1.5 0 0 0 1.5 1.5 1.5 1.5 0 0 0 1.5-1.5 1.5 1.5 0 0 0 -1.5-1.5zm0 1a.5.5 0 0 1 .5.5.5.5 0 0 1 -.5.5.5.5 0 0 1 -.5-.5.5.5 0 0 1 .5-.5z"/></g><path d="m11.375 8h.25l.375 1.5h.654297l.328125.566406 1.486328-.423828.125.214844-1.111328 1.076172.328125.566406-.328125.566406 1.111328 1.076172-.125.214844-1.486328-.423828-.328125.566406h-.654297l-.375 1.5h-.25l-.375-1.5h-.654297l-.328125-.566406-1.486328.423828-.125-.214844 1.1113281-1.076172-.328125-.566406.328125-.566406-1.1113281-1.076172.125-.214844 1.486328.423828.328125-.566406h.654297zm.125 2c-.828427 0-1.5.671573-1.5 1.5s.671573 1.5 1.5 1.5 1.5-.671573 1.5-1.5-.671573-1.5-1.5-1.5z" fill="#fafafa"/></svg>