<svg viewBox="0 0 16 16" xmlns="http://www.w3.org/2000/svg">/&amp;amp;amp;amp;amp;amp;gt;<g transform="matrix(0 -1 1 0 -.001953 16.002)"><path d="m.50195312.00195313c-.27630145-.00038401-.50038441.223699-.49999999.49999999v4.49804688h-.00195313v9.5c-.00038442.276301.22369855.500384.5.5h7.9472656c-.4300128-.015221-.8616562-.214684-1.1425781-.582031l.087891.09961-.515625-.515625h-5.87890662v-4h.00195312v-9.001954h14.003906v4h-.002v9.001953h-4.878906l-.5156251.515625.087891-.09961c-.2808756.367354-.7125186.566814-1.1425315.582032h6.9472656c.276301.000384.500384-.223699.5-.5v-4.498047h.002v-9.49999988c.000384-.27630099-.223699-.500384-.5-.49999999z" fill="#3a3a38"/><path d="m1 5v9h5.875l-2.4199219-2.421875c-.2782756-.271896-.4403513-.64232-.4511719-1.03125-.0174465-.6361624.3981639-1.203294.9140626-1.421875.5158986-.218581 1.2133107-.1230266 1.6582031.3320312l.421875.421875.00391-3.3574218c-.0059307-.4190852.1824406-.8634482.4824181-1.1347656.2999775-.2713175.6622423-.3855251 1.0117188-.3867188zm7.5039062 0c.3494765.00119.7117413.1154013 1.0117188.3867188.2999775.2713174.488349.7156804.4824219 1.1347656l.00391 3.3574218.421875-.421875c.4448881-.4550584 1.1423011-.5506121 1.6581991-.3320312.515899.2185809.931508.7857128.914063 1.421875-.01079.389022-.172917.759378-.451172 1.03125l-2.419922 2.421875h4.875v-9z" fill="#fafafa"/><path d="m1 1h14v4h-14z" fill="#797774"/><path d="m8.5 6c-.2517451.0008599-.502816.1705939-.4980469.5078125l-.0058593 5.7851565-2.1347657-2.136719c-.3180035-.3252697-.8698925-.09144-.8574219.363281.00361.12976.057543.253031.1503907.34375l2.9453125 2.947266c.1006256.131583.2509197.198034.4003906.197265.1494709.000769.299765-.06568.4003906-.197265l2.9453124-2.947266c.09285-.09072.146791-.21399.150391-.34375.01247-.454721-.539419-.6885507-.857422-.363281l-2.1347658 2.136719-.0058593-5.7851565c.0047691-.3372186-.2463018-.5069526-.4980469-.5078125z" fill="#1e8bcd" fill-rule="evenodd"/></g></svg>