<svg viewBox="0 0 16 16" xmlns="http://www.w3.org/2000/svg">/&gt;<g fill="#fafafa" transform="matrix(.70710678 .70710678 -.70710678 .70710678 8 -3.313708)"><path d="m9.5.65234375v5.84765625h5.847656a7.5 7.5 0 0 0 -5.847656-5.84765625zm-3 .007813a7.5 7.5 0 0 0 -5.83789062 5.83984325h5.83789062v-5.83984375zm-5.84765625 8.83984325a7.5 7.5 0 0 0 5.84765625 5.847656v-5.847656zm8.84765625 0v5.839844a7.5 7.5 0 0 0 5.837891-5.839844z" stroke="#3a3a38" stroke-linejoin="round" stroke-width="1.011825"/><path d="m6.0058594 1.2949219c-1.6917929.3707671-3.8571704 1.9827207-4.7460938 4.7480469l.7402344-.0664063v.0234375h4v-1-3h-.0117188zm-1.0058594 1.4101562v2.2949219h-2.2109375c.5908854-1.205465 1.4043683-1.9084635 2.2109375-2.2949219z"/><path d="m14.705078 6.00586c-.370767-1.691793-1.98272-3.8571705-4.7480464-4.7460939l.066406.7402344h-.02344v3.9999995h1.0000004 3v-.01172l.705077.01758zm-1.410156-1.00586h-2.294922v-2.210937c1.205465.590885 1.908464 1.404368 2.294922 2.210937z"/><path d="m6.0058594 14.705077c-1.6917929-.370767-3.8571704-1.982721-4.7460938-4.748047l.7402344.06641v-.02344h4v1 3h-.011719l.017578.705078zm-1.0058594-1.410156v-2.294922h-2.2109375c.5908854 1.205465 1.4043683 1.908464 2.2109375 2.294922z"/><path d="m14.70508 9.994139c-.370767 1.691793-1.98272 3.857171-4.748046 4.746094l.066406-.740234h-.02344v-4h1 3v.01172l.705077-.01758zm-1.410156 1.00586h-2.294922v2.210937c1.205465-.590885 1.908464-1.404368 2.294922-2.210937z"/></g></svg>