<svg viewBox="0 0 16 16" xmlns="http://www.w3.org/2000/svg"><path d="m11 8.8457816-1.097724.6211493q-.1868445.1057304-.3559453.0712338-.1613168-.0389047-.3020849-.1545273l-2.2497902-2.1551371-4.2196126 2.3876795.5093167 3.1291402q.027413.168918-.048254.352766-.067881.179441-.2469418.280765l-1.097722.621149-1.8912419-13.18501663 1.4402736-.81498337 9.5597254 8.8457807zm-8.4338685-.5218312 3.5033688-1.9823924-3.7546348-3.6143868q-.1824988-.1571011-.3998795-.3812538-.2173809-.2241523-.4487778-.4946173.087837.3625473.1495126.6748063.061675.3122587.096254.5530609z" fill="#3a3a38"/><path d="m15.494141 8c-3.577003.0424373-10.7626427.9539956-15.39648475 7.201172a.50117728.50117728 0 1 0 .8046875.597656c4.36615795-5.8862942 11.18051825-6.7582177 14.60351525-6.798828a.50005.50005 0 1 0 -.01172-1z" fill="#1e8bcd"/></svg>