<svg viewBox="0 0 16 16" xmlns="http://www.w3.org/2000/svg">/&gt;<path d="m.52892751 1.5289282h14.94214449v5.9421443h-14.94214449z" fill="#fafafa" stroke="#3a3a38" stroke-linecap="round" stroke-linejoin="round" stroke-width="1.057855"/><path d="m3.4982305 8.9793216c-.129759.0036-.253031.05754-.34375.150391l-2.95721499 2.9569764c-.260944.199523-.261911.592163-.002.792969l.0059.0039 2.95331799 2.952991c.471255.490833 1.197865-.235777.707031-.707032l-2.146681-2.146343h12.5781255l-2.146479 2.146343c-.490797.471255.235788 1.197839.707042.707032l2.957025-2.956891c.262885-.201389.26094-.598073-.0039-.796875l-2.95313-2.9530704c-.09454-.09665-.224178-.150904-.359375-.150391-.447077.0019-.667178.544711-.347657.857422l2.14649 2.1464304h-12.5781255l2.146668-2.1464304c.32527-.318004.09144-.869893-.363287-.857422z" fill="#1e8bcd" fill-rule="evenodd"/></svg>