<svg viewBox="0 0 16 16" xmlns="http://www.w3.org/2000/svg">
/&amp;amp;gt;<path d="m1 1v14h8v-3h.0097656a4 3.75 0 0 1 -.0097656-.25 4 3.75 0 0 1 4-3.75 4 3.75 0 0 1 2 .5078125v-7.5078125z" fill="#fafafa"/><path d="m1 0c-.554 0-1 .446-1 1v14c0 .554.446 1 1 1h8v-1h-8v-14h14v7.5078125a4 3.75 0 0 1 1 .7675781v-8.2753906c0-.554-.446-1-1-1z" fill="#3a3a38"/><path d="m3 2c-.554 0-1 .446-1 1s.446 1 1 1 1-.446 1-1-.446-1-1-1zm5 0c-.554 0-1 .446-1 1s.446 1 1 1 1-.446 1-1-.446-1-1-1zm5 0c-.554 0-1 .446-1 1s.446 1 1 1 1-.446 1-1-.446-1-1-1zm-10 5c-.554 0-1 .446-1 1s.446 1 1 1 1-.446 1-1-.446-1-1-1zm5 0c-.554 0-1 .446-1 1s.446 1 1 1 1-.446 1-1-.446-1-1-1zm5 0c-.554 0-1 .446-1 1 0 .0422159.018407.0783286.023438.1191406a4 3.75 0 0 1 .976562-.1191406 4 3.75 0 0 1 .976562.1171875c.004875-.0401924.023438-.0756375.023438-.1171875 0-.554-.446-1-1-1zm-10 5c-.554 0-1 .446-1 1s.446 1 1 1 1-.446 1-1-.446-1-1-1zm5 0c-.554 0-1 .446-1 1s.446 1 1 1 1-.446 1-1-.446-1-1-1z" fill="#1e8bcd"/><path d="m13 9c-1.656854 0-3 1.343146-3 3v4h2v-4c0-.552285.447715-1 1-1s1 .447715 1 1v4h2v-4c0-1.656854-1.343146-3-3-3z" fill="#ed3d3b"/></svg>