<svg viewBox="0 0 16 16" xmlns="http://www.w3.org/2000/svg"><g transform="matrix(1 0 0 -1 0 16)"><path d="m2 2h13v13h-13z" fill="#fafafa"/><path d="m7.4960938 4.0019531c-.1277853-.0000057-.2555812.0485494-.3535157.1464844-.195868.195869-.195913.5112073 0 .7070313l2.6484375 2.6445312-2.6484375 2.646484c-.195913.195824-.195868.511163 0 .707032.0979345.097934.2257116.14649.3535157.146484.127804-.000006.2555591-.048572.3535156-.146484l2.6484376-2.6464848 2.648437 2.6464848c.097956.097912.225712.146478.353516.146484s.255582-.04855.353516-.146484c.195868-.195869.195913-.511208 0-.707032l-2.648438-2.646484 2.648438-2.6445312c.195913-.195824.195868-.5111623 0-.7070313-.195869-.19587-.511119-.195824-.707032 0l-2.648437 2.6464844-2.6484376-2.6464844c-.0979565-.097912-.2257304-.1464786-.3535156-.1464844z" fill="#1e8bcd" transform="matrix(1 0 0 -1 0 16)"/><path d="m2 1c-.1385 0-.2709062.0276562-.390625.078125-.1202234.0506815-.225797.1239413-.3164063.2148438-.18075.1807499-.2929687.4300312-.2929687.7070312v13c0 .1385.027656.268953.078125.388672.1509957.360079.5057091.611328.921875.611328h13c.415306.01267.770408-.244307.921875-.607422.000242-.000579-.000241-.0014 0-.002.050469-.119672.078125-.252078.078125-.390578v-13c0-.1390838-.027252-.2724567-.078125-.3925781-.151467-.3631153-.506569-.62009072-.921875-.6074219zm0 1h13v13h-13z" fill="#3a3a38"/><g fill="#ed3d3b" transform="scale(1 -1)"><path d="m2-10h2v3h-2z"/><path d="m4-9h4v1h-4z"/></g></g></svg>