<svg viewBox="0 0 16 16" xmlns="http://www.w3.org/2000/svg"><path d="m1 0c-.554 0-1 .446-1 1v9.09375 2.533203 2.373047c0 .554.446 1 1 1h14c.554 0 1-.446 1-1v-4.589844-3.1113279-6.2988281c0-.554-.446-1-1-1zm0 1h14v7.296875 1.1113281 5.5917969h-14v-3.375-.533203z" fill="#3a3a38"/><path d="m1 1h14v14h-14z" fill="#fafafa"/><path d="m4.6328262 2.0050318c-.3831805 0-.7346474.066533-1.0571128.2018306a.14411138.14411138 0 0 1 -.002.002c-.3169384.1298979-.5877814.3165566-.8213089.5655236-.2324527.247821-.4161685.5512412-.5515371.9072386-.1288791.3545381-.1958356.7532135-.1958356 1.2029902 0 .4320477.067045.8221738.1958356 1.1710172.135169.34998.3173308.6450769.5495387.8872553.2332879.2433045.5060221.4316781.823309.5675237.3230212.1301093.6753868.1958355 1.0591111.1958355.34683 0 .6788754-.065384.9971631-.1958355.3175052-.1359327.5936732-.3254178.8333005-.569522.2446201-.2435267.4389623-.5401152.5855086-.891252.1449727-.3473667.2198155-.7347646.2198154-1.1650222.0000001-.4493399-.067603-.847125-.2018305-1.2009919a.14411138.14411138 0 0 1 -.002-.002c-.1295043-.356261-.3108043-.659112-.5435421-.9072369-.2329826-.2483859-.5083841-.4354573-.8313023-.5655252a.14411138.14411138 0 0 1 -.002-.002c-.3226487-.1353736-.6719324-.201829-1.0551127-.201829zm7.0520808.1198993c-.241638 0-.436861.057023-.599497.1658609-.162198.1069545-.312892.2655316-.45162.4815957a.14411138.14411138 0 0 1 -.002.002l-7.3638182 11.0747033h.6854247c.2174262 0 .3991897-.04078.5535354-.115903a.14411138.14411138 0 0 1 .002 0c.1496988-.0705.3004669-.212522.4436277-.437633a.14411138.14411138 0 0 1 .002-.002l7.4257634-11.1686239zm-7.0520808.9931664c.1658172 0 .3254812.03238.4736025.097918.1540574.062322.2855324.1696782.3916712.3117383.1084528.1451573.1893302.3276917.2457938.5475404.057225.2228169.083929.4916379.083929.8093207 0 .3065493-.02653.566057-.083929.7833425-.056645.2144285-.1380192.3933065-.2477921.5335521-.1072268.1369928-.2391631.2422186-.3936695.3037451-.1467139.0584234-.3052682.0879262-.4696059.0879262-.1695588 0-.328696-.028307-.4716042-.087926-.14856-.0619758-.2770948-.1675749-.3836779-.3037453-.109773-.1402458-.1911471-.3191242-.247792-.5335522a.14411138.14411138 0 0 1 0-.004c-.0507721-.2162176-.073938-.474118-.073938-.7793425-.0000003-.3164071.023315-.5835812.073938-.805324a.14411138.14411138 0 0 1 0-.004c.0564635-.2198451.1373406-.4023797.2457937-.5475371.1052727-.1409004.233894-.2468912.3816795-.30974.1443683-.0669184.3046192-.0999157.4756009-.0999162zm6.7163628 5.1676627c-.383181 0-.730936.066841-1.047121.2018305a.14411138.14411138 0 0 1 -.002.002c-.3169372.1298984-.5877818.3165569-.8213092.5655237-.2327175.2481033-.4183162.5516582-.5535353.9072386-.1287236.354109-.1938373.7528-.1938373 1.20299 0 .432478.065207.822607.1938373 1.171017.1347226.348815.3191916.646999.551537.895249.2332878.243304.506024.431679.8233095.567524.316742.129818.665393.195835 1.049119.195835.353001 0 .687065-.06546 1.005156-.195835.317708-.136013.595933-.325685.8353-.569523.245377-.249711.43888-.547913.585507-.899244.144972-.347367.219816-.734765.219816-1.165023 0-.44934-.0676-.847125-.201831-1.2009917a.14411138.14411138 0 0 1 -.002-.002c-.129505-.3562616-.310804-.6591121-.543542-.9072369-.232982-.248386-.508383-.4354571-.831302-.5655254a.14411138.14411138 0 0 1 -.002-.002c-.322268-.1352136-.675794-.2018288-1.065104-.2018288zm0 1.121059c.165817 0 .32548.032381.473602.097918.152347.061579.283395.168732.389674.30974.115789.1463396.201315.3316648.257783.5515368.05733.223198.08193.487848.08193.799329 0 .305906-.0243.565193-.08193.783343-.05671.214693-.143106.394781-.259782.53555-.000352.000425.000354.0015 0 .002-.107205.135465-.239371.239098-.391671.299748-.146721.05843-.305273.08793-.469606.08793-.164337 0-.319748-.02874-.461612-.08793-.148555-.06198-.277095-.167575-.383678-.303746a.14411138.14411138 0 0 1 -.002-.002c-.102829-.140132-.179627-.318904-.235801-.531553-.0574-.217285-.08393-.476793-.08393-.783343 0-.312116.02684-.576985.08393-.799329.05596-.217894.131855-.3999957.233803-.5455418a.14411138.14411138 0 0 1 .002-.004c.105272-.1408951.233892-.2468862.381678-.3097351.143263-.066406.299791-.099916.46561-.099917z" fill="#1e8bcd" stroke-width="1.023141"/></svg>