<svg viewBox="0 0 16 16" xmlns="http://www.w3.org/2000/svg">/&gt;<path d="m.52892751 15.471072v-14.9421436h5.94214429v14.9421436z" fill="#fafafa" stroke="#3a3a38" stroke-linecap="round" stroke-linejoin="round" stroke-width="1.057855"/><path d="m7.990289 12.501769c.0036.129759.05754.253031.150391.34375l2.956976 2.957215c.199523.260944.592163.261911.792969.002l.0039-.0059 2.952991-2.953318c.490833-.471255-.235777-1.197865-.707032-.707031l-2.146343 2.146681v-12.5781246l2.146343 2.1464796c.471255.490796 1.197839-.235788.707032-.707042l-2.956891-2.9570256c-.201389-.262885-.598073-.26094-.796875.0039l-2.95307 2.9531306c-.09665.09454-.150904.224178-.150391.359375.0019.447077.544711.667178.857422.347657l2.14643-2.1464906v12.5781246l-2.14643-2.146668c-.318004-.32527-.869893-.09144-.857422.363287z" fill="#1e8bcd" fill-rule="evenodd"/></svg>