<svg viewBox="0 0 16 16" xmlns="http://www.w3.org/2000/svg">


/&amp;amp;amp;amp;gt;<path d="m2 2v8.441406 3.558594h5 2v-2h.0097656a4 3.75 0 0 1 -.0097656-.25 4 3.75 0 0 1 4-3.75 4 3.75 0 0 1 1 .1210938v-2.5625-3.5585938h-5z" fill="#fafafa"/><path d="m1.5 1c-.277 0-.5.223-.5.5v7.4277344 5.0722656h-.5c-.277 0-.5.223-.5.5s.223.5.5.5h.5v.5c0 .277.223.5.5.5s.5-.223.5-.5v-.5h5.0722656 1.9277344v-1h-2-5v-5-7.5c0-.277-.223-.5-.5-.5z" fill="#1e8bcd"/><g fill="#ed3d3b"><path d="m13 9c-1.656854 0-3 1.343146-3 3v4h2v-4c0-.552285.447715-1 1-1s1 .447715 1 1v4h2v-4c0-1.656854-1.343146-3-3-3z"/><path d="m13 9c-1.656854 0-3 1.343146-3 3v4h2v-4c0-.552285.447715-1 1-1s1 .447715 1 1v4h2v-4c0-1.656854-1.343146-3-3-3z"/></g></svg>