<svg viewBox="0 0 16 16" xmlns="http://www.w3.org/2000/svg"><path d="m13.214444 7q.610169 0 1.094326.1790715.490788.1790715.829034.4907885.338246.3050847.517318.7229182.185704.4112012.185704.8820929 0 .4178335-.09285.7361829-.08622.318349-.258659.557111-.172439.238762-.424466.404569-.252026.165807-.570376.271923 1.505525.510686 1.505525 2.03611 0 .66986-.245394 1.180545-.238762.504053-.649963.848931-.404569.344879-.948416.517318-.537214.172439-1.134119.172439-.630067 0-1.114223-.14591-.477524-.14591-.842299-.43773-.358143-.298453-.623434-.736183-.258659-.43773-.4443627-1.014738l.7030217-.298453q.278555-.112749.517317-.05306.245395.05306.344879.258659.119381.225497.252026.424466.132646.192336.298453.344878.172439.14591.391304.23213.218865.08622.504053.08622.351511 0 .61017-.112748.265291-.119381.43773-.305085.172439-.192336.258659-.431098.08622-.238762.08622-.477524 0-.305085-.05969-.557112-.05306-.252026-.252027-.431098-.192336-.179071-.570375-.278555-.37804-.09948-1.028003-.09948v-1.13412q.543846-.0066.888725-.09948.35151-.09285.550479-.258659.198968-.172439.271923-.404569.07296-.2321293.07296-.5173173 0-.6035372-.305085-.908622-.298458-.3050917-.842305-.3050917-.484156 0-.809138.2719234-.324981.2719233-.450994.66986-.106117.3050847-.285188.3979366-.17244.092852-.497421.039794l-.842299-.1459104q.092851-.6433309.35151-1.1208549.258659-.4841562.649963-.8025055.391305-.3249816.888726-.4841563.504053-.1658069 1.081061-.1658069z" fill="none"/><path d="m0 1v14h2v-6h6v6h2v-6-2-6h-2v6h-6v-6z" fill="#3a3a38"/><path d="m15.917442 12.36839q0 1.258956-.724493 2.013142-.718555.754186-1.977511.754186-1.40148 0-2.155665-1.021417-.754186-1.027356-.754186-2.909851 0-2.066588.783878-3.194898.783878-1.1283096 2.209111-1.1283096 1.894373 0 2.387266 1.7043414l-1.021417.1840926q-.314739-1.0214171-1.377726-1.0214171-.908586 0-1.413356.8254475-.50477.8254472-.50477 2.3160042.290985-.540401.819509-.819509.528524-.285047 1.211448-.285047 1.140187 0 1.82905.706678.688862.70074.688862 1.876557zm-1.08674.04751q0-.85514-.457262-1.330218-.451324-.475077-1.229264-.475077-.439447 0-.831386.201908-.391939.195969-.617601.552278-.219723.350369-.219723.795755 0 .902647.475077 1.508372.481016.605724 1.229264.605724.754186 0 1.199571-.498832.451324-.498832.451324-1.35991z" fill="#1e8bcd"/></svg>