<svg viewBox="0 0 16 16" xmlns="http://www.w3.org/2000/svg">
/&amp;amp;amp;amp;amp;amp;gt;<path d="m.99804688 2v9.998047h.00195312 13.998047.001953v-9.998047h-.002-13.998z" fill="#fafafa"/><path d="m5 2v2h-4v1h4v3h-4v1h4l-.00195 2.998047h1l.00195-2.998047h4l.002 2.998047h1l-.002-2.998047h4v-1h-4v-3h4v-1h-4v-2h-1v2h-4v-2zm1 3h4v3h-4z" fill="#797774"/><path d="m.49804688 1.0019531c-.06774688-.0000941-.13247708.0147062-.19140626.0390625-.18140943.0749794-.30888359.2523834-.30859375.4609375v10.9960939c-.00038441.276301.22369853.500384.50000001.5h15.00390612c.276301.000384.500384-.223699.5-.5v-10.9960939c.00029-.2085541-.127184-.3859581-.308594-.4609375-.0587-.024785-.123783-.038628-.191406-.039063h-.0039zm.50195312.9980469h14v10h-14z" fill="#3a3a38"/><path d="m1 13v2h2.5l.5-2z" fill="#fafafa"/><path d="m.00195312 12-.00195312 3.498047c-.00038443.276301.22369855.500384.5.5l4 .001953.498094-3h-.996094-.002l-.5 2h-2.50195313l.00195313-3h-.99609375z" fill="#3a3a38"/><path d="m0 1v14l15.845808-13.8650818c-.081206-.1349182-.258114-.1349182-.345808-.1349182zm1 1h12l-12 10.826172z" fill="#3a3a38"/><path d="m1 2 12 .000391-12 10.826172z" fill="#fafafa"/></svg>