<svg viewBox="0 0 16 16" xmlns="http://www.w3.org/2000/svg">
/&amp;amp;gt;<path d="m2 7v2h11v-2z" fill="#fafafa"/><path d="m2 6c-.554 0-1 .446-1 1v2c0 .554.446 1 1 1h11c.554 0 1-.446 1-1v-2c0-.554-.446-1-1-1zm0 1h11v2h-11z" fill="#3a3a38"/><g fill="#1e8bcd"><path d="m7.5 0c-.249672.0035642-.5047291.16552191-.5.5v3.7910156l-1.1386719-1.1425781c-.312338-.3263931-.8630741-.1041008-.8613281.3476563.0005112.1357713.056209.2654981.1542969.359375l1.9570312 1.953125c.0982024.1275781.2429157.1931313.3886719.1953124.1457562-.0021811.2904695-.0677343.3886719-.1953124l1.9570312-1.953125c.0980879-.0938769.1537857-.2236037.1542969-.359375.001746-.4517571-.5489901-.6740494-.8613281-.3476563l-1.1386719 1.1425781v-3.7910156c.0047291-.33447809-.250328-.4964358-.5-.5z"/><path d="m7.5 16.003906c-.249672-.0036-.5047291-.165522-.5-.5v-3.791015l-1.1386719 1.142578c-.312338.326393-.8630741.104101-.8613281-.347657.0005112-.135771.056209-.265498.1542969-.359375l1.9570312-1.953125c.0982024-.127578.2429157-.193131.3886719-.195312.1457562.0022.2904695.06773.3886719.195312l1.9570312 1.953125c.0980879.093877.1537857.223604.1542969.359375.0017.451758-.5489901.67405-.8613281.347657l-1.1386719-1.142578v3.791015c.00473.334478-.250328.496436-.5.5z"/></g></svg>