<svg viewBox="0 0 16 16" xmlns="http://www.w3.org/2000/svg"><path d="m3 1v14h10v-11.2949219l-2.695312-2.7050781z" fill="#fafafa"/><path d="m3 0c-.554 0-1 .446-1 1v14c0 .554.446 1 1 1h2 1.0292969 2.9433593 2.0273438 2c.554 0 1-.446 1-1v-.800781-.199219-2-7.5-.8632812l-3.636719-3.6367188h-.863281zm0 1h6v3.5c0 .277.223.5.5.5h3.5v7 2 .0918.9082h-2-.740234-4.0585941-1.2011719-2zm7 0 3 3h-3z" fill="#3a3a38"/><g fill="#1e8bcd"><rect height="1" ry=".5" width="5" x="4" y="6"/><rect height="1" ry=".5" width="1" x="11" y="6"/><rect height="1" ry=".5" width="5" x="4" y="12"/><rect height="1" ry=".5" width="1" x="11" y="12"/><rect height="1" ry=".5" width="5" x="4" y="9"/><rect height="1" ry=".5" width="1" x="11" y="9"/></g></svg>