<svg viewBox="0 0 16 16" xmlns="http://www.w3.org/2000/svg">/&amp;amp;gt;<path d="m5.5364663 1.0000351c-.2826966-.00348741-.5134911.2532544-.5136411.5712738v7.8572248c.0003644.3914471.3424145.6666763.6718345.5405141l8.9857803-3.4298459c.436841-.1695915.46197-.8538975.03906-1.0634501l-8.9838292-4.4273788c-.0628333-.0310838-.1305756-.0475313-.1992067-.0483413z" fill="#0063b1"/><path d="m2.9771752 1c-.554 0-1 .446-1 1v13c0 .554.446 1 1 1s1-.446 1-1v-13c0-.554-.446-1-1-1z" fill="#3a3a38"/><path d="m6 2.265625v6.5410156l7.478516-2.8535156z" fill="#83beec"/></svg>