<svg viewBox="0 0 16 16" xmlns="http://www.w3.org/2000/svg">










     /&amp;amp;amp;amp;amp;amp;amp;amp;gt;
 <path d="m.5 2c-.277 0-.5.223-.5.5v11c0 .277.223.5.5.5h4.59375c-.0578587-.15757-.09375-.325109-.09375-.5s.0358913-.34243.09375-.5h-4.09375v-10h14v3.5.5h.490234c.179293-.0019245.349471.033444.509766.0917969v-4.5917969c0-.277-.223-.5-.5-.5zm15.5 7.90625c-.15757.0578587-.325109.09375-.5.09375h-.5v2h.5c.174891 0 .34243.035891.5.09375z" fill="#3a3a38"/><path d="m1 3v10h4.09375c.211337-.575547.7674377-1 1.40625-1h.5v-2h-.5c-.8137028 0-1.5-.6862972-1.5-1.5s.6862972-1.5 1.5-1.5h.5v-.5c0-.8137028.6862972-1.5 1.5-1.5s1.5.6862972 1.5 1.5v.5h2v-.5c0-.8137028.686297-1.5 1.5-1.5s1.5.6862972 1.5 1.5v-3.5zm9 7v2h2v-2z" fill="#fafafa"/><path d="m3 4v2h4.09375c.211337-.5755473.7674377-1 1.40625-1s1.194913.4244527 1.40625 1h2.1875c.153478-.4179771.488273-.7527717.90625-.90625v-1.09375z" fill="#797774"/><path d="m3 7v1h1v-1zm2 0v1h.09375c.211337-.5755473.7674377-1 1.40625-1zm-2 2v1h1v-1zm2 0v1h1.5c-.6388123 0-1.194913-.4244527-1.40625-1zm-2 2v1h1v-1zm2 0v1h1.5.5v-1zm5 0v1h2v-1z" fill="#c8c6c4"/><path d="m8.5 6c-.277 0-.5.223-.5.5v1.5h-1.5c-.277 0-.5.223-.5.5s.223.5.5.5h1.5v4h-1.5c-.277 0-.5.223-.5.5s.223.5.5.5h1.5v1.5c0 .277.223.5.5.5s.5-.223.5-.5v-1.5h4v1.5c0 .277.223.5.5.5s.503797-.223026.5-.5v-1.5h1.5c.277 0 .5-.223.5-.5s-.223-.5-.5-.5h-1.5v-4h1.5c.277 0 .5-.223.5-.5s-.223016-.5029731-.5-.5h-1.5v-1.5c0-.277-.223-.5-.5-.5s-.5.223-.5.5v1.5h-4v-1.5c0-.277-.223-.5-.5-.5zm.5 3h4v4h-4z" fill="#1e8bcd"/></svg>