<svg viewBox="0 0 16 16" xmlns="http://www.w3.org/2000/svg"><g transform="matrix(0 1 1 0 0 0)"><path d="m1 1v5l3.8886719.0019531-.4277344-.4277343c-.2954275-.2938013-.4716763-.7399723-.4492187-1.140625.0224575-.400653.1985242-.7342773.4433593-.9804688s.5779916-.4245487.9785157-.4492188c.4005239-.0246697.8471506.1495582 1.1425781.4433594l2.9199219 2.9101563-.0527344-.0488281c.3300256.2839723.5467905.7735525.5566406 1.1660156v.050781c-.0098501.3924633-.226615.8820437-.5566406 1.1660158l.0527344-.0488281-2.9199219 2.9101559c-.2954275.293802-.7420543.46803-1.1425781.44336-.4005239-.02467-.7336805-.203028-.9785157-.449219s-.4209019-.579816-.4433593-.980469c-.0224576-.400653.1537913-.8468233.4492187-1.1406248l.4277344-.4277343-3.8886719.0019531v6h14v-14z" fill="#fafafa" fill-opacity=".950382" transform="matrix(0 1 1 0 0 0)"/><path d="m15.5 0-14.99804688.00195313c-.27630099-.00038401-.5003835.223699-.49999999.49999999v5.58789068c.18047422-.0603558.36928906-.0970989.54882812-.0878907l-.05078125-.0019531h.5v-5l14.001953-.00195312v14.00390612l-14.001953.001953v-6.003906h-.5l.05078125-.0019531c-.17953645.0092055-.36835352-.027535-.54882812-.0878907v6.5917968c-.00038351.276301.223699.500384.49999999.5l14.99804688-.001953c.276301.000384.500384-.223699.5-.5v-15c.000384-.276301-.223699-.500384-.5-.5z" fill="#3a3a38" transform="matrix(0 1 1 0 0 0)"/><path d="m6 11h4v4h-4z" fill="#a1ddaa" fill-opacity=".935114"/><path d="m5 1v2.1035156c.1347359-.0514914.2770141-.0899647.4335938-.0996094.1855549-.0114288.3806797.0237819.5664062.0898438v-2.09375zm5 0v4 1 4h-1.8652344l-1.0039062 1h2.7636718.1054688v4h1v-14zm-9 9v1h3.109375c-.0504548-.134656-.0888978-.277337-.0976562-.433594-.0104057-.18564.0267465-.380906.09375-.566406zm4 1.896484v3.103516h1v-3.09375c-.1857265.066062-.3808514.101273-.5664062.089844-.1565796-.009645-.2988579-.048118-.4335938-.09961z" fill="#797774" transform="matrix(0 1 1 0 0 0)"/><path d="m10 5v6h1 4v-1h-4v-4h4v-1h-4z" fill="#18ab50" transform="matrix(0 1 1 0 0 0)"/><path d="m7.5 0c-.258489 0-.51796.14982333-.5.5l.002 6.8105469-2.1367656-2.1445313c-.470054-.4726558-1.1790384.2324223-.7089844.7050782l2.910156 2.9199218c.124667.144885.268641.2048444.433594.2089844.164953-.00414.308927-.0640994.433594-.2089844l2.910156-2.9199218c.470054-.4726559-.23893-1.177734-.708984-.7050782l-2.136719 2.1445313.001953-6.8105469c.017955-.35017667-.241511-.5-.5-.5z" fill="#3a3a38" fill-rule="evenodd"/><path d="m15.001953 5v6h.998047v-6z" fill="#309048" transform="matrix(0 1 1 0 0 0)"/></g></svg>