<svg viewBox="0 0 16 16" xmlns="http://www.w3.org/2000/svg">/&amp;amp;gt;<path d="m3 1v14h10v-11.2949219l-2.695312-2.7050781z" fill="#fafafa"/><g fill="#1e8bcd" transform="scale(-1 1)"><rect height="1" ry=".5" width="3" x="-12" y="4"/><rect height="1" ry=".5" width="4" x="-8" y="4"/><rect height="1" ry=".5" width="3" x="-12" y="7"/><rect height="1" ry=".5" width="4" x="-8" y="7"/></g><g fill="#3a3a38"><path d="m3 0c-.554 0-1 .446-1 1v14c0 .554.446 1 1 1h2 1.0292969 2.9433593 2.0273438 2c.554 0 1-.446 1-1v-.800781-.199219-2-7.5-.8632812l-3.636719-3.6367188h-.863281zm0 1h6v3.5c0 .277.223.5.5.5h3.5v7 2 .0918.9082h-2-.740234-4.0585941-1.2011719-2zm7 0 3 3h-3z"/><g fill="#797774"><rect height="1" ry=".482023" width="8" x="4" y="10"/><rect height="1" ry=".482023" width="8" x="4" y="13"/></g></g></svg>