<svg viewBox="0 0 16 16" xmlns="http://www.w3.org/2000/svg">/&amp;amp;gt;<path d="m7.5 2a6.5 6.5 0 0 0 -6.5 6.5 6.5 6.5 0 0 0 .1855469 1.5h12.6308591a6.5 6.5 0 0 0 .183594-1.5 6.5 6.5 0 0 0 -6.5-6.5z" fill="#fafafa"/><path d="m7.5 1a7.5 7.5 0 0 0 -7.5 7.5 7.5 7.5 0 0 0 .15234375 1.5h1.03710935a6.5 6.5 0 0 1 -.1660156-1h3.9921875c.0082905.3339096.0293808.6666919.0605469 1h.9941406c-.0332469-.3332484-.0558378-.6661683-.0644531-1h2.9980468c-.0134577.3353208-.0405612.6681666-.078125 1h.9921876c.0351951-.3318634.0614273-.6643667.0742187-1h3.9824215a6.5 6.5 0 0 1 -.167968 1h1.027343a7.5 7.5 0 0 0 .166016-1.5 7.5 7.5 0 0 0 -7.5-7.5zm0 1a6.5 6.5 0 0 1 .1738281.0097656c.4200261.9880681.7338265 1.95703.953125 2.9101563-.7378934.0568561-1.4804429.0630368-2.2246093.0039062.2226983-.9691826.535097-1.9427315.9375-2.9199219a6.5 6.5 0 0 1 .1601562-.0039062zm1.3085938.1347656a6.5 6.5 0 0 1 3.5312502 2.0371094c-.897462.294082-1.804048.5020181-2.7167971.6347656-.1941237-.8799294-.461571-1.7698655-.8144531-2.671875zm-2.5839844.0019532c-.3379646.8882829-.6215073 1.7760693-.8183594 2.6640624-.8990868-.136337-1.8001054-.3525906-2.703125-.6738281a6.5 6.5 0 0 1 3.5214844-1.9902343zm-4.1699219 2.8222656c1.0584046.4008072 2.1190856.6646097 3.1777344.8261718-.1208492.7388647-.1919346 1.4775733-.2167969 2.2148438h-3.9902344a6.5 6.5 0 0 1 1.0292969-3.0410156zm10.9316405.0585937a6.5 6.5 0 0 1 .992188 2.9824219h-3.97461c-.0161175-.7295773-.0767694-1.465632-.1953122-2.2109375 1.0726912-.1573908 2.1353522-.4084171 3.1777342-.7714844zm-4.1621092.8945313c.11524.7041159.1723577 1.3992429.1894531 2.0878906h-3.0039063c.0256351-.6939615.0903478-1.3893669.2070313-2.0859375.8732457.0753852 1.7437085.0703933 2.6074219-.0019531z" fill="#3a3a38"/><g fill="#1e8bcd"><path d="m4.5 11c-.831 0-1.5.669-1.5 1.5v2c0 .831.669 1.5 1.5 1.5h3c.6542402 0 1.2021974-.418077 1.4082031-1h-1.9082031-2c-.554 0-1-.401791-1-.900391v-1.199218c0-.4986.446-.900391 1-.900391h2 1.9082031c-.2060057-.581923-.7539629-1-1.4082031-1z"/><path d="m14.5 11c.831 0 1.5.669 1.5 1.5v2c0 .831-.669 1.5-1.5 1.5h-3c-.65424 0-1.202197-.418077-1.408203-1h1.908203 2c.554 0 1-.401791 1-.900391v-1.199218c0-.4986-.446-.900391-1-.900391h-2-1.908203c.206006-.581923.753963-1 1.408203-1z"/><path d="m6 13h7v1h-7z"/></g></svg>