<svg viewBox="0 0 16 16" xmlns="http://www.w3.org/2000/svg">/&amp;amp;amp;amp;amp;gt;<path d="m1 13v2h7.8789062l-.3925781-.388672.0957031.083984c-.3698328-.282824-.5546406-.714577-.5800781-1.09375.0200598.300898-.0055332.196317-.0097656-.095703-.0001101-.02204-.00009.014011 0-.005859-.0000865-.01989-.0001135.016206 0-.005859.0042926-.291758.0299398-.396224.0097656-.095703.0087089-.129763.0427722-.264424.0898438-.398438z" fill="#fafafa"/><path d="m1 2-.00195312 9.998047h7.88281252l1.5605466-1.546875c.271876-.278262.642233-.440379 1.03125-.451172.636162-.0174457 1.203294.398165 1.421875.914062.140494.331595.096287.717851-.035156 1.083985h2.138672l.001953-9.998047z" fill="#fafafa"/><path d="m.50195312 1.0019531c-.27630145-.000384-.50038441.223699-.49999999.5v3.4980469h-.00195313l-.00195313 7.498047c-.00038442.276301.22369854.500384.50000001.5h7.59375002c.090582-.256939.2475162-.507744.4902343-.693359l-.0957031.083984.3925781-.388672h-7.88281245l.00195313-7h.00195312v-1-2h4 1 4 1 4 .003906v3h-.001953l-.001953 7h-2.140625l2.619141.001953c.174115-.002486.35094.035084.519531.09375l.001953-7.095703h.001953v-3.4980469c.000384-.276301-.223699-.500384-.5-.5z" fill="#3a3a38"/><path d="m5 2v2h-4v1h4v3h-4v1h4l-.0019531 2.998047h1l.0019531-2.998047h4l-.0019531 1.890625.4433591-.439453c.157372-.161068.350711-.277099.558594-.353516v-1.097656h4v-1h-4v-3h4v-1h-4v-2h-1v2h-4v-2zm1 3h4v3h-4z" fill="#797774"/><g fill="#3a3a38"><path d="m.00195312 12-.00195312 3.498047c-.00038443.276301.22369855.500384.5.5l4 .001953.498094-3h-.996094-.002l-.5 2h-2.50195313l.00195313-3h-.99609375z"/><path d="m5 13v2.498047c-.0003844.276301.2236985.500384.5.5l4 .001953.0546875-.330078-.9804687-.970703-.0742188.300781h-2.5019531v-2h-.9960938z"/></g><path d="m11.5 11c-.12976.0036-.25303.05754-.34375.150391l-1.9667969 1.949218c-.1210112.092542-.1802394.22795-.1894531.365235-.0008049.01199-.00787.02315-.00781.03516-.0000618.01201.00701.02316.00781.03516.00921.137285.068442.272693.1894531.365235l1.9667969 1.94921c.090719.09285.21399.146791.34375.150391.454721.01247.688551-.539418.363281-.857422l-.863281-1.142578 4.492188-.002c.337216.004816.506952-.246255.507812-.498-.00086-.251745-.170596-.502863-.507812-.498047l-4.492188-.001953.863281-1.142578c.32527-.318004.09144-.869892-.363281-.857422z" fill="#1e8bcd" fill-rule="evenodd"/></svg>