<svg viewBox="0 0 16 16" xmlns="http://www.w3.org/2000/svg"><path d="m3 1h12v14h-12z" fill="#fafafa"/><path d="m2.5 0c-.277 0-.5.18377966-.5.5v1.5h-.5c-.277 0-.5.223-.5.5v3c0 .277.223.5.5.5h.5v4h-.5c-.277 0-.5.223-.5.5v3c0 .277.223.5.5.5h.5v1.5c0 .277.223.5.5.5h13c.277 0 .5-.223.5-.5v-15c0-.277-.223-.5-.5-.5zm.5 1h12v14h-12v-1.5-3-5-3z" fill="#3a3a38"/><g fill="#ed3d3b"><rect height="2" ry=".961864" width="6" x="6" y="9"/><path d="m6 6c-1.104522 0-2 .895478-2 2v4c0 1.104597.8954308 2 2 2h1v-1h-1c-.5522842 0-1-.447701-1-1v-.28125-3.71875c0-.552299.4267669-1 1-1h1v-1z"/><path d="m12 6c1.104522 0 2 .895478 2 2v4c0 1.104597-.895431 2-2 2h-1v-1h1c.552284 0 1-.447701 1-1v-.28125-3.71875c0-.552299-.426767-1-1-1h-1v-1z"/></g></svg>