<svg viewBox="0 0 16 16" xmlns="http://www.w3.org/2000/svg"><g fill="#fafafa" stroke-linejoin="round"><path d="m6.8457031 2.9785156c-3.7045135 0-6.84146581 3.1874866-6.84146581 6.6152344.00004301.2243479.18190214.406207.40625.40625h1.30186551c.829682-1.472322 1.7175672-3.678476 5.1333503-3.9023438 1.8655798 0 3.6542969.9023438 3.9824219 2.9023438h-1.4140621c-.3615671.0004388-.542522.4374388-.2871094.6933593l3.1249995 3.2089847c.158633.158404.415586.158404.574219 0l3.057268-3.2089847c.255412-.2559204.074458-.6929202-.287109-.6933593h-1.596331c-.233754-3.232248-3.600273-6.0214844-7.1542969-6.0214844z" fill="#3a3a38"/><path d="m6.8457031 3.9628906c-2.9895338 0-5.3971355 2.4889586-5.7281846 5.0527344 1.7929688-3.0761719 3.1434122-3.8387021 5.7281846-3.9023438 2.4980468 0 5.2019339 2.0327221 5.2019339 4.3085938.00042.3194636-.258661.578546-.578125.578125h-.523438l1.592988 1.798828 1.800218-1.798828h-.563128c-.319464.000421-.663291-.5262395-.662871-.8457031 0-2.8431066-3.046372-5.1914063-6.2675779-5.1914063z"/></g></svg>