<svg viewBox="0 0 16 16" xmlns="http://www.w3.org/2000/svg">/&amp;amp;gt;<path d="m1 0c-.554 0-1 .446-1 1v14c0 .554.446 1 1 1h6c-.554 0-1-.446-1-1h-5v-14h10v6h1v-6c0-.554-.446-1-1-1z" fill="#3a3a38"/><path d="m1 1v14h5v-4c0-.554.446-1 1-1h1v-3h3v-6z" fill="#fafafa"/><path d="m3 2c-.554 0-1 .446-1 1v12c0 .554.446 1 1 1h4c-.554 0-1-.446-1-1h-3v-12h10v4h1v-4c0-.554-.446-1-1-1z" fill="#3a3a38"/><path d="m3 3v12h3v-4c0-.554.446-1 1-1h1v-3h5v-4z" fill="#fafafa"/><path d="m10 9v1h3v-1zm0 5v1h3v-1z" fill="#fafafa"/><path d="m9 8v2 1h5v-1-2zm1 1h3v1h-3zm-2 2c-.554 0-1 .446-1 1v2c0 .554.4482752 1.050157 1 1h1v1h1 3 1v-1h1c.554 0 1-.446 1-1v-2c0-.554-.446-1-1-1v2h-1-5-1zm2 3h3v1h-3z" fill="#3a3a38"/><path d="m9 11h5v1h-5z" fill="#1e8bcd"/></svg>