<svg viewBox="0 0 16 16" xmlns="http://www.w3.org/2000/svg">/&amp;gt;<path d="m1 2v2h8.0058594v-.4863281c-.0059409-.4201625.1828088-.8676538.484375-1.1386719.2886677-.2594262.6350966-.3657627.9707036-.375zm9.550781 0c.335608.0092373.682036.1155738.970703.375.301567.2710181.490322.7185094.484375 1.1386719v.4863281h2.994141v-2z" fill="#797774"/><path d="m1 4v10h14v-6.3515625c-.04277.3400678-.205756.6837164-.455078.921875l-2.945313 2.9414065.085938-.097657c-.288383.375316-.739629.593338-1.212891.585938-.467122-.007348-.9062523-.233433-1.1835935-.609375l.0976563.113281-2.9472657-2.9511716c-.2947992-.2950786-.4693125-.7415785-.4453125-1.1425782.0240001-.4009993.2011931-.735068.4472656-.9804687.2460728-.2454007.5793953-.4224164.9804688-.4453125s.8483236.1536007 1.1425781.4492188l.4375.4375.0039063-2.8710938zm11.005859 0-.003906 2.8710938.427735-.4277344c.292954-.3033298.743749-.4867308 1.15039-.4648438.406641.0218872.745121.2007777.992188.4492188.224422.2256712.384413.528712.427734.8867187v-3.3144531z" fill="#fafafa"/><path d="m1 1c-.554 0-1 .446-1 1v12c0 .554.446 1 1 1h14c.554 0 1-.446 1-1v-12c0-.554-.446-1-1-1zm9.505859.9921875c.014947 0 .029926.0073998.044922.0078125h4.449219v5.3144531c.004371.0361222.013825.0701433.015625.1074219.003582.0741853-.006084.1507026-.015625.2265625v6.3515625h-14v-12h9.460938c.014995-.0004127.029975-.0078125.044921-.0078125z" fill="#3a3a38"/><path d="m0 1v4h1 8v-1h-8v-2h9.460938c.014993-.0004127.029975-.0078125.044921-.0078125.014947 0 .029926.0073998.044922.0078125h4.449219v2h-3v1h3 1v-4z" fill="#3a3a38"/><path d="m10.488195 10.999939a.50003898.50005 0 0 1 -.394522-.203125l-2.9472009-2.9511702a.50062685.50063788 0 1 1 .7089682-.707032l2.1425317 2.1464846.0078-5.7851562a.50003898.50005 0 1 1 .999978 0l-.0078 5.7851562 2.150343-2.1464846a.50003898.50005 0 1 1 .705062.708985l-2.960872 2.9570302a.50003898.50005 0 0 1 -.404288.195312z" fill="#1e8bcd" fill-rule="evenodd"/></svg>