<svg height="16" viewBox="0 0 16 16" width="16" xmlns="http://www.w3.org/2000/svg"><path d="m3.001953 10.505859c0-.127809.04855-.25558.146485-.353515.195869-.195868.513115-.195868.708984 0l4.142578 4.140625v-13.792969c0-.277.223-.5.5-.5s.5.223.5.5v13.792969l4.142578-4.140625c.195869-.195868.513116-.195868.708984 0 .09794.09793.146485.225706.146485.353515s-.04855.257539-.146485.355469l-4.998046 4.992188c-.04701.04702-.103236.08408-.166016.109375-.057904.02334-.12105.037109-.1875.037109s-.129596-.01377-.1875-.03711c-.06278-.0253-.119003-.06236-.166016-.109375l-4.998046-4.992188c-.09793-.09793-.146485-.22766-.146485-.355468z" fill="#1e8bcd"/></svg>