<svg viewBox="0 0 16 16" xmlns="http://www.w3.org/2000/svg"><path d="m3 1v14h2.4902344l-1.2910156-2.251953c-.3117768-.544813-.2481859-1.234483.1582031-1.712891l.0019531-.003906 2.9921875-3.4941406c.2823013-.3393577.7031704-.5383756 1.1445313-.5410156h.0019531c.009457-.00004.0179237.0037636.0273437.0039062h4.4746094v-3.2949219l-2.695312-2.7050781z" fill="#fafafa"/><path d="m3 0c-.554 0-1 .446-1 1v14c0 .554.446 1 1 1h3.0625l-.5722656-1h-2.4902344v-14h6v3.5c0 .277.223.5.5.5h3.5v2h1v-2.5-.8632812l-3.636719-3.6367188h-.863281zm7 1 3 3h-3z" fill="#3a3a38"/><g fill="none" stroke="#1e8bcd" stroke-linecap="round"><path d="m11.5 8.5-2.0000215 7" stroke-width=".996799"/><g stroke-linejoin="round" stroke-width=".996865"><path d="m12.503169 15.496251 3.10629-3.490656-2.33364-3.4984987"/><path d="m7.5 15.5-2.0015802-3.495002 3.0015802-3.504998"/></g></g></svg>