<svg viewBox="0 0 16 16" xmlns="http://www.w3.org/2000/svg">/&gt;<path d="m3 1v14h10v-11.2949219l-2.695312-2.7050781z" fill="#fafafa"/><path d="m3 0c-.554 0-1 .446-1 1v14c0 .554.446 1 1 1h10c.554 0 1-.446 1-1v-10.5-.8632812l-3.636719-3.6367188h-.863281zm0 1h6v3.5c0 .277.223.5.5.5h3.5v10h-10zm7 0 3 3h-3z" fill="#3a3a38"/><rect fill="#fb983b" height="1" ry=".5" width="4" x="4" y="4"/><rect fill="#3a3a38" height="1" ry=".5" width="7" x="4" y="7"/><g fill="#fb983b"><rect height="1" ry=".5" width="4" x="4" y="10"/><rect height="1" ry=".5" width="3" x="9" y="10"/><rect height="1" ry=".5" width="3" x="4" y="13"/></g></svg>