<svg viewBox="0 0 16 16" xmlns="http://www.w3.org/2000/svg">/&amp;amp;amp;amp;gt;<path d="m1 0c-.554 0-1 .446-1 1v14c0 .554.446 1 1 1h5v-1h-5v-14h10v5h1v-5c0-.554-.446-1-1-1z" fill="#3a3a38"/><path d="m1 1v14h5v-9h5v-5z" fill="#fafafa"/><path d="m3 2c-.554 0-1 .446-1 1v12c0 .554.446 1 1 1h3v-1h-3v-12h10v3h1v-3c0-.554-.446-1-1-1z" fill="#3a3a38"/><path d="m3 3v12h3v-9h7v-3z" fill="#fafafa"/><circle cx="11.5" cy="16.5" fill="#fafafa" r="0"/><circle cx="11.5" cy="16.5" fill="#500" r="0"/><g fill="#fafafa"><rect height="3" rx=".5" width="6" x="9" y="9"/><path d="m10 12.999999c-.554 0-1 .446-1 1v1c0 .554.446 1 1 1v-2h1v2h2c.554 0 1-.446 1-1v-1c0-.554-.446-1-1-1z"/></g><g transform="translate(-1 -1)"><path d="m8 8v9h9v-9z" fill="#922e9b"/><g fill="#fafafa"><rect height="3" rx=".5" width="7" x="9" y="9"/><path d="m11 13.000013c-.554 0-1.0000001.446-1.0000001 1v1c0 .554.4460001 1 1.0000001 1v-2h1v2h2c.554 0 1-.446 1-1v-1c0-.554-.446-1-1-1z"/></g></g></svg>