<svg viewBox="0 0 16 16" xmlns="http://www.w3.org/2000/svg">/&amp;amp;gt;<path d="m2.5 0c-.277 0-.5.223-.5.5v2c0 .277.223.5.5.5h1c.277 0 .5-.223.5-.5v-2c0-.277-.223-.5-.5-.5zm10 0c-.277 0-.5.223-.5.5v2c0 .277.223.5.5.5h1c.277 0 .5-.223.5-.5v-2c0-.277-.223-.5-.5-.5zm-12.5 2v2 1 11h16v-11-3h-1v2h-4v-2h-6v2h-4v-2zm1 3h14v10h-2-10-2zm4 1v.5839844c0 .1104418.0378931.2095805.1132812.2949219.0753881.080322.1607799.1210937.2539063.1210937h4.8676625c-.101995.125502-.5654905.8926409-.6453132 1.0332031-.0798229.1405623-.1570341.2933218-.2324218.4589844l-3.2460938 5.5078125h.6799944c.2261641 0 .4026467-.0592.53125-.179688.1330381-.120481.2371114-.266815.3125-.4375l3.1718754-5.679687c.03991-.095382.082612-.2157458.126953-.3613281.044352-.1455824.066406-.3335294.066406-.5644531v-.7773438z" fill="#3a3a38"/></svg>