<svg viewBox="0 0 16 16" xmlns="http://www.w3.org/2000/svg">
/&amp;amp;gt;<path d="m12.5 9c-.277 0-.5.223-.5.5v2.5h-2.5c-.277 0-.5.223-.5.5s.223.5.5.5h2.5v2.5c0 .277.223.5.5.5s.5-.223.5-.5v-2.5h2.5c.277 0 .5-.223.5-.5s-.223-.5-.5-.5h-2.5v-2.5c0-.277-.223-.5-.5-.5z" fill="#1e8bcd"/><g fill="#3a3a38"><path d="m5.2285156 1c-.2282904 0-.4487511.0369035-.6621094.1074219-.2157688.071315-.4247557.177045-.625.3203125-.3982505.2779846-.7438877.704432-1.0390624 1.28125-.2904885.5768181-.5188299 1.3068519-.6875 2.1894531-.1686708.8756517-.2539063 1.9101359-.2539063 3.1054687 0 .4600975.020469.8812149.048828 1.2890626.014716.2420834.033373.4768951.056641.703125v.0019531.0019531c.040276.390593.082842.77785.1484376 1.121094.069437.36048.1547599.686726.2480468.990234.00182.0059.00208.01363.00391.01953.086275.292699.1873627.551648.2929687.798829.0026.0061.00521.01348.00781.01953-.00133.000367-.00258.0016-.00391.002.047915.112607.086789.246586.1386719.349609.2951747.569869.642765.998269 1.0410156 1.283203.1387927.09686.2814634.169465.4277344.232422.025486.01108.05046.02316.076172.0332.1443123.05582.2919896.101438.4433594.125.00124.000196.00267-.000193.00391 0 .1097934.016808.2205122.025349.3339827.025349.00132.000002.00259 0 .00391 0 .00121.000001.00268.000004.00391 0 .00134.000001.00267.000004.00391 0h.00391c.1147902 0 .2268607-.0081.3378906-.02539.00124-.000193.00267.000196.00391 0 .1514333-.02357.2989652-.06918.4433594-.125.025762-.01005.050636-.02212.076172-.0332.1463494-.06297.2908948-.135558.4296874-.232422.3982508-.284934.7438876-.713334 1.0390626-1.283203.051883-.103023.090757-.237002.1386718-.349609-.00133-.0004-.00258-.0016-.00391-.002.0026-.0061.00521-.01343.00781-.01953.105606-.247183.2066937-.50613.2929687-.798829.00183-.0059.00209-.01362.00391-.01953.0932618-.303467.1785937-.629713.2480307-.990193.0655789-.343203.1081615-.730501.1484374-1.121094v-.00195-.00195c.023268-.2262362.041925-.4610417.056641-.703125.028359-.407848.048828-.8289649.048828-1.2890626 0-1.1953327-.085236-2.229817-.2539062-3.1054687-.1686709-.8826022-.3970118-1.6126412-.6875002-2.1894593-.2951748-.576818-.6408118-1.0032654-1.0390626-1.28125-.2002442-.1432675-.4091075-.2489975-.625-.3203125-.106034-.0352578-.214478-.062241-.3242187-.0800781-.00128-.0002049-.00263.0002025-.00391 0-.1097474-.0176351-.2205515-.027141-.3339806-.0273438h-.00391-.00391c-.00123-.00000413-.00257-.00000103-.00391 0-.00247-.00000825-.00535 0-.00781 0zm7.4843754 0c-.228292 0-.448753.036904-.66211.1074219-.21577.071315-.424755.177045-.625.3203125-.39825.2779846-.743887.704432-1.039062 1.28125-.290489.5768181-.5188303 1.3068519-.6875002 2.1894531-.168671.8756517-.2539063 1.9101359-.2539063 3.1054687 0 .4600975.020468.8812149.048828 1.2890626.01472.2420834.033371.4768951.056641.703125v.0019531.0019531c.035931.348422.078519.68576.1328126 1h.7812502c-.01849-.0995-.04182-.182382-.05859-.287109v-.002c-.0423-.266555-.06954-.575728-.0957-.882813-.01616-.1747111-.02913-.3531377-.04102-.5390625l-.0059.00586c-.02194-.4042112-.03516-.8256145-.03516-1.2910157 0-.5297972.0124-1.0184008.04101-1.4667968.0067-.104966.02289-.1865247.03125-.2871094.0011.00102.0028.0009304.0039.00195.02727-.329928.05612-.6574597.101562-.9414062.116648-.7353403.272992-1.3416776.490234-1.8300781l.002-.00195v-.00195c.208292-.4776201.464735-.8569237.798828-1.109375.15367-.1161178.317973-.2075805.490234-.2695313.17277-.061963.351324-.094796.533203-.095703.18188.000905.362386.033739.535156.095703h.002c.172202.061951.336565.1534135.490235.2695313.334093.2524513.590539.6317612.798828 1.109375v.00195l.002.00195c.217243.4884006.373587 1.0947378.490234 1.8300781.04544.2839465.07429.6114751.101563.9414062.0011-.00103.0028-.0009362.0039-.00195.0083.1006004.02455.1821266.03125.2871094.0286.448396.04102.9369999.04102 1.4667968 0 .4646978-.01328.8854108-.03516 1.2890626l-.0039-.00391c-.01189.1859248-.02681.3643514-.04297.5390625-.02616.307085-.0534.616214-.0957.882813v.002c-.0168663.1047301-.0401903.1876191-.0586823.2871121h.519531c.08777 0 .173712.01208.257812.02734.056725-.321044.099808-.669378.136719-1.02734v-.00195-.00195c.02327-.2262299.04192-.4610417.05664-.703125.028361-.4078542.048829-.8289711.048829-1.2890688 0-1.1953326-.085239-2.229817-.253906-3.1054687-.168626-.8825612-.397012-1.612635-.6875-2.1894531-.295175-.576818-.640812-1.0032654-1.039063-1.28125-.200244-.1432675-.409108-.2489975-.625-.3203125-.106034-.035258-.214478-.062241-.324219-.080078-.0013-.0002049-.0026.0002025-.0039 0-.109768-.0176352-.220561-.0271411-.33399-.0273439h-.0039-.0039c-.0012-.00000413-.0026-.00000103-.0039 0-.0025-.00000825-.0053 0-.0078 0zm-7.4765629 1.0019531c.1818793.000905.362386.033739.5351563.095703h.00195c.1722037.0619512.3365676.1534136.4902375.2695314.3340923.2524513.5905384.6317612.7988281 1.109375v.00195l.00195.00195c.2172422.4884006.3735867 1.0947378.4902344 1.8300781.045441.2839465.074286.6114751.1015625.9414062.00108-.00103.00282-.0009362.00391-.00195.0083.1006004.024553.1821266.03125.2871094.028603.448396.041016.9369999.041016 1.4667968 0 .4646978-.013275.8854108-.035156 1.2890626l-.00391-.00391c-.01189.1859248-.026809.3643514-.042969.5390625-.026162.307085-.053404.616214-.095703.882813v.002c-.116721.72859-.2735263 1.329521-.4902344 1.816406l-.00195.002v.002c-.2080632.47712-.4635652.857969-.7988281 1.111328-.00181.0013-.00403.0026-.00586.0039-.1545058.112356-.3202851.198748-.4921875.257812-.1706708.05864-.347198.09051-.5253906.0918-.1794981-.000863-.3574268-.0327-.5292969-.0918s-.3376817-.145457-.4921875-.257812c-.00183-.0013-.00405-.0026-.00586-.0039-.3352559-.2536271-.5907642-.6343421-.7988274-1.1114621v-.002l-.00195-.002c-.2167143-.486697-.3735165-1.087722-.4902375-1.816312v-.002c-.042299-.266508-.0695411-.575681-.0957031-.882766-.01616-.1747111-.0291255-.3531377-.0410157-.5390625l-.00586.00586c-.02194-.4042112-.035156-.8256145-.035156-1.2910157 0-.5297972.012413-1.0184008.041016-1.4667968.0067-.104966.022888-.1865247.03125-.2871094.00109.00102.00282.0009304.00391.00195.0272692-.3299255.0561178-.6574572.1015588-.9414037.1166477-.7353403.2729922-1.3416776.4902344-1.8300781l.00195-.00195v-.00195c.2082959-.4776264.4647389-.85693.7988312-1.1093813.1536699-.1161178.3179732-.2075805.4902344-.2695313.1727704-.0619627.3513237-.0947961.5332031-.0957031z" stroke-width=".967327"/><path d="m0 14h2v2h-2z"/></g></svg>