<svg viewBox="0 0 16 16" xmlns="http://www.w3.org/2000/svg"><path d="m3 1v14h7.130859c.0711-.215451.182627-.415763.347657-.574219l1.441406-1.443359-5.3828126.0039c-.7862256.01112-1.5097658-.701977-1.5097656-1.488281 0-.786304.72354-1.4994034 1.5097656-1.488281l5.3867186-.0039-1.451172-1.4511715c-.409877-.3987634-.5553932-1.0455473-.357422-1.5820323.197975-.5364849.728176-.9337788 1.298828-.9707031.0059-.0000521.01172-.0000521.01758 0 .04131-.00194.08367-.00151.125 0 .3799.01177.753894.1734437 1.019531.4453125l.423827.4238282v-3.1660157l-1.759766-1.7675781-.935546-.9375z" fill="#fafafa"/><path d="m3 0c-.554 0-1 .446-1 1v14c0 .554.446 1 1 1h7.125c-.10485-.321506-.100275-.6785.0059-1h-7.1309v-14h6v3.5c0 .277.223.5.5.5h3.5v1.8710938l1 1v-4.234375l-3.636719-3.6367188h-7.0605466zm7 1 3 3h-3zm3.972656 14.140625-.833984.832031c.43713-.06281.770357-.395173.833984-.832031z" fill="#3a3a38"/><path d="m11.466011 6.9888998a.50005.50005 0 0 0 -.316407.8574219l3.146485 3.1464843-7.7851564.0059a.50005.50005 0 1 0 0 1l7.7851564-.0059-3.146485 3.146484a.50005.50005 0 1 0 .707032.707031l3.953125-3.953125a.50005.50005 0 0 0 .0059-.0039.50005.50005 0 0 0 -.002-.792968l-3.957025-3.9570375a.50005.50005 0 0 0 -.34375-.1503907.50005.50005 0 0 0 -.04687 0z" fill="#1e8bcd" fill-rule="evenodd"/><path d="m4.5 7c-.277 0-.5.223-.5.5s.223.5.5.5h5.636719c-.057031-.1567438-.090982-.3177148-.095703-.484375-.00038-.0080268-.001702-.0154092-.001954-.0234375-.002143-.1661839.016357-.3308275.070313-.4882813.000425-.0012398-.000428-.0026673 0-.0039062z" fill="#fb983b"/><g fill="#797774"><path d="m5.4023438 10-.4941407.494141-.4902343.490234c.0276508.004705.0529995.015625.0820312.015625h.6289062c.2226807-.5648.794069-.99892 1.4082032-.990234h1.0078125c-.0155889-.001452-.0289411-.009766-.0449219-.009766zm-.9023438 3c-.277 0-.5.223-.5.5s.223.5.5.5h1.9628906.0371094c.277 0 .5-.223.5-.5 0-.206182-.1233731-.382334-.3007812-.458984-.0609347-.026328-.1284012-.041016-.1992188-.041016z"/><rect height="1" ry=".5" width="4" x="4" y="4"/><path d="m4.5 10c-.277 0-.5.223-.5.5s.223.5.5.5h.6289062c.1812948-.45983.5927022-.82934 1.0722657-.947266a5.5 5.5 0 0 1 .0136719-.052734z"/></g></svg>