<svg viewBox="0 0 16 16" xmlns="http://www.w3.org/2000/svg">
/&amp;amp;gt;<g fill="#3a3a38"><path d="m4.3418198 1-4.3418198 3.6008301.4970368.1400802c.0613078.092059.1657963.1623444.3156612.211914.156677.042489.3178498-.00705.4813389-.1486815l2.7059631-2.0815431c-.020439.2974204-.029207.5834434-.029645.8596192l.029645 9.6677811v.350342 1.399658h1v-1.399658-12.600342z"/><path d="m11.992188 1c-.560803 0-1.085856.1428002-1.572266.4277344-.4864092.2779846-.9090154.704432-1.2695314 1.28125-.354792.5768181-.6338357 1.3068519-.8398437 2.1894531-.206008.8756517-.3105469 1.9101357-.3105469 3.1054687 0 1.195334.1045389 2.2345868.3105469 3.1171878.206008.875652.4850517 1.602869.8398437 2.179687.360516.569869.7831222.998269 1.2695314 1.283203.48641.277984 1.011464.416016 1.572266.416016.560801 0 1.083902-.138032 1.570312-.416016.492131-.284934.918783-.713334 1.279297-1.283203.360515-.576818.641647-1.304035.847656-2.179687.206008-.882601.310547-1.9218538.310547-3.1171878 0-1.1953331-.104539-2.229817-.310547-3.1054687-.206009-.8826012-.487141-1.612635-.847656-2.1894531-.360514-.576818-.787166-1.0032654-1.279297-1.28125-.48641-.2849342-1.009511-.4277344-1.570312-.4277344zm0 1c.420419 0 .832275.1233347 1.201171.3515625.395123.2444537.707493.6254956.962891 1.1054687.267364.4914895.464023 1.1016609.607422 1.8417969.145667.7444729.214845 1.6416541.214844 2.7050781 0 1.0634251-.06936 1.9678529-.214844 2.7187498-.143501.733405-.340756 1.339878-.607422 1.830078-.255119.479468-.566529.862201-.962891 1.107422-.0026.0013-.0052.0026-.0078.0039-.369288.220006-.777461.335944-1.193371.335944-.415909 0-.824081-.115932-1.19336-.335938-.0039-.0019-.0078-.0039-.01172-.0059-.388869-.245213-.700201-.624679-.9609371-1.103515-.0006571-.0013-.00131-.0026-.00195-.0039-.2596367-.488699-.4541922-1.094863-.5976584-1.828091-.1456419-.7517131-.2128906-1.6559122-.2128906-2.7187498 0-1.0628394.067078-1.9597912.2128906-2.7050781.143366-.7399687.3373468-1.349839.5976563-1.8398437.000645-.00131.0013-.00261.00195-.00391.2610212-.4793601.5733152-.8571357.9609372-1.1015625.0013-.0006571.0026-.00131.0039-.00195.368906-.2282278.78076-.3515619 1.201182-.3515619z"/><path d="m8.6875667 21.030433q0-.429687.15625-.820312.1757813-.390625.46875-.683594.2929688-.292969.7031243-.46875.429688-.175781.9375-.175781.585938 0 1.015625.214843.449219.214844.742188.585938.292969.351562.429687.859375.15625.488281.15625 1.054687 0 .839844-.253906 1.757813-.234375.917969-.703125 1.816406-.449219.898438-1.113281 1.738281-.664063.859375-1.5234373 1.582032l-.5859375-.546875q-.2539062-.234375-.2539062-.546875 0-.234375.2734375-.507813.1757812-.195312.46875-.546875.2929688-.351562.5859375-.800781.3125-.449219.566406-.996094.253906-.546875.371094-1.171875h-.214844q-.9960937 0-1.6210935-.664062-.6054688-.664063-.6054688-1.679688z" fill="#3a3a38" transform="matrix(.41665523 0 0 .41665523 2.460788 4.133159)"/></g></svg>