<svg viewBox="0 0 16 16" xmlns="http://www.w3.org/2000/svg">/&amp;amp;gt;<path d="m15 8a7 7 0 0 1 -7 7 7 7 0 0 1 -7-7 7 7 0 0 1 7-7 7 7 0 0 1 7 7z" fill="#fafafa"/><path d="m11.423828 4c-.05952.0007216-.11935.0103449-.175781.0292969l-3.3828126 1.1269531c-1.4380667.072528-2.6364582 1.270916-2.7089844 2.7089844l-1.1269531 3.3828126c-.1472187.445788.276866.869875.7226562.722656l3.3828125-1.126953c1.4380658-.072525 2.6364574-1.2709152 2.7089844-2.7089844l1.126953-3.3828125c.123431-.3717361-.155195-.7550387-.546875-.7519531z" fill="#1e8bcd"/><circle cx="8" cy="8.000082" fill="#fafafa" r="1.5"/><path d="m8 0a8 8 0 0 0 -8 8 8 8 0 0 0 8 8 8 8 0 0 0 8-8 8 8 0 0 0 -8-8zm0 1a7 7 0 0 1 7 7 7 7 0 0 1 -7 7 7 7 0 0 1 -7-7 7 7 0 0 1 7-7z" fill="#3a3a38"/></svg>