<svg viewBox="0 0 16 16" xmlns="http://www.w3.org/2000/svg">/&amp;amp;amp;amp;amp;amp;gt;<path d="m.49804688 1.0019531c-.06774701-.0000941-.13247701.0147062-.19140626.0390625-.18140959.0749794-.30888391.2523834-.30859375.4609375l.00195313 5.4980469-.00195313 5.498047c-.00029016.208554.12718416.385958.30859375.460937.05892925.024357.12365925.039157.19140626.039063.00132592.000008.00257788.000002.00390624 0h7.58984378.1933593c.3500954-.591324.9873565-.997974 1.7148438-.998047h-1.1210938-7.8789062v-2-1h-.00195312v-2-2h.00195312v-1-2h7.2832031c.3465872-.5871498.9770162-.9906865 1.6972657-.9980469h-1.8886719zm11.51367212 0c.170821.003583.323981.088696.488281.1328125.1643-.0441165.31746-.1292295.488281-.1328125zm3.007812 0c.323028.0033011.625538.0913711.896485.234375-.088935-.1383118-.237361-.2346206-.414063-.234375zm.980469 4.7148438c-.295748.1745762-.63457.2828026-.998047.2832031v1l-.001953 5c.365144.000036.705153.109435 1.001953.285156v-3.285156h-.001953v-2z" fill="#3a3a38"/><path d="m1 13v2h2.5l.5-2z" fill="#fafafa"/><path d="m1 2-.00195312 9.998047h4.00195312v.001953h10v-5.5-4.5z" fill="#fafafa"/><path d="m5 2v2h-4v1h4v3h-4v1h4l-.0019531 2.998047h1l.0019531-2.998047h4v-1h-4v-3h2.2832031c-.08144-.1379668-.144784-.2856132-.1914062-.4414062-.0060112-.0192134-.0141024-.0371997-.0195313-.0566407-.042967-.1614255-.0722482-.3282589-.0722656-.5019531h-2v-2zm5 7-.0019531 1.890625.0019531-.001953z" fill="#797774"/><path d="m.00195312 12-.00195312 3.498047c-.00038443.276301.22369855.500384.5.5l4 .001953.498094-3h-.996094-.002l-.5 2h-2.50195313l.00195313-3h-.99609375z" fill="#3a3a38"/><path d="m10 2c-.5522619.0000552-.9999448.4477381-1 1v1c.0000552.5522619.4477381.9999448 1 1h1v8h-1c-.5522619.000055-.9999448.447738-1 1v1c.0000552.552262.4477381.999945 1 1h2c.175608-.000245.348056-.04672.5-.134766.151944.08804.324392.134521.5.134766h2c.552262-.000055.999945-.447738 1-1v-1c-.000055-.552262-.447738-.999945-1-1h-1v-8h1c.552262-.0000552.999945-.4477381 1-1v-1c-.000055-.5522619-.447738-.9999448-1-1h-2c-.175608.0002451-.348056.0467252-.5.1347656-.151944-.0880404-.324392-.1345205-.5-.1347656z" fill="#3a3a38"/><path d="m10 3v1h2v-1zm2 1v10h1v-10zm1 0h2v-1h-2zm0 10v1h2v-1zm-1 0h-2v1h2z" fill="#fafafa"/></svg>