<svg viewBox="0 0 16 16" xmlns="http://www.w3.org/2000/svg"><g fill="#3a3a38"><rect height="1" ry=".5" transform="scale(-1 1)" width="8.999998" x="-15" y="2"/><rect height="1" ry=".5" transform="scale(-1 1)" width="5.400001" x="-11.400001" y="5"/><g fill="#1e8bcd" transform="matrix(-.89999978 0 0 1 1.500003 0)"><rect height="1" ry=".5" width="10" x="-14.999999" y="10"/><rect height="1" ry=".5" width="6.000002" x="-11" y="13"/></g></g><g fill="#1e8bcd"><path d="m0 1.000001v.999999h1v4h-1v1h1 1 3v-1h-1v-4h1v-.999999h-3-1zm2 .999999h1v4h-1z" fill="#3a3a38"/><path d="m1 9v1h1v4h-1v1h1 1 1v-1h-1v-4h1v-1h-1-1z"/></g></svg>