<svg viewBox="0 0 16 16" xmlns="http://www.w3.org/2000/svg">/&amp;amp;gt;<g fill="#3a3a38"><path d="m8 3a5.1428571 6 0 0 0 -5.1428571 6 5.1428571 6 0 0 0 5.1428571 6 5.1428571 6 0 0 0 5.142857-6 5.1428571 6 0 0 0 -5.142857-6zm0 1.7142857a3.4285714 4.2857143 0 0 1 3.428571 4.2857143 3.4285714 4.2857143 0 0 1 -3.428571 4.285714 3.4285714 4.2857143 0 0 1 -3.4285714-4.285714 3.4285714 4.2857143 0 0 1 3.4285714-4.2857143z" stroke-width=".857143"/><path d="m1 1h13v1h-13z" fill="#1e8bcd" stroke-width=".963624"/></g></svg>