<svg viewBox="0 0 16 16" xmlns="http://www.w3.org/2000/svg">
/&amp;amp;gt;<path d="m10.233259.24531042c-.5102448-.21129046-1.0951707.03099378-1.3065632.5411961l-.9268114 2.23752078-.9270097-2.23799945c-.2114151-.5101027-.7962333-.75234235-1.3064234-.54113829l-1.8475617.76528514c-.5101027.211415-.7523424.7962333-.5411383 1.3064234l.9270097 2.2379994-2.2375207-.9268114c-.5102446-.2112905-1.09517051.0309937-1.30656301.5411961l-.76536687 1.847759c-.21129046.5102446.0309937 1.0951707.5411961 1.306563l2.23752078.9268114-2.23799961.9270101c-.51010246.2114153-.75234183.7962329-.5411381 1.3064233l.76528492 1.847562c.21141522.510102.79623349.752342 1.30642339.541138l2.2379996-.92701-.9268114 2.237521c-.2112906.510244.030994 1.09517.5411961 1.306563l1.847759.765367c.5102445.21129 1.0951705-.03099 1.306563-.541197l.9268114-2.23752.9270099 2.238c.2114154.510102.7962329.752341 1.3064225.541138l1.847563-.765286c.510102-.211415.752342-.796233.541138-1.306423l-.92701-2.237999 2.237521.926811c.510244.211291 1.09517-.03099 1.306563-.541196l.765367-1.847759c.21129-.5102447-.030994-1.0951707-.541197-1.3065632l-2.23752-.9268114 2.238-.9270096c.510102-.2114152.752341-.7962334.541138-1.3064234l-.765286-1.8475619c-.211415-.5101024-.796233-.7523418-1.306423-.5411381l-2.237999.9270096.926811-2.2375207c.21129-.5102446-.030994-1.0951705-.541196-1.306563zm-1.7549047 6.84984018a1 1 0 0 1 .5411961 1.3065629 1 1 0 0 1 -1.306563.5411961 1 1 0 0 1 -.5411961-1.3065629 1 1 0 0 1 1.306563-.5411961z" fill="#3a3a38"/><path d="m9.8505754 1.16919-1.1981281 2.8925369a4 4 0 0 0 -1.2941185.0262951l-1.209235-2.9193517-1.8475617.7652851 1.2451739 3.0061157a4 4 0 0 0 -.792776.8829705l-3.0693732-1.271376-.76536684 1.847759 3.19207594 1.3222012a4 4 0 0 0 .053397 1.0347464l-3.2459924 1.3445338.7652853 1.847562 3.3327563-1.380473a4 4 0 0 0 .6751706.641168l-1.3902169 3.35628 1.847759.765367 1.3894696-3.354476a4 4 0 0 0 .9315392.02224l1.380473 3.332756 1.8475606-.765285-1.345591-3.248544a4 4 0 0 0 .772296-.690619l3.190271 1.321453.765367-1.847759-3.071178-1.2721232a4 4 0 0 0 .06558-1.1841842l3.0061168-1.245175-.765284-1.8475615-2.921904 1.2102922a4 4 0 0 0 -.894682-.9329261l1.198875-2.8943414zm-.9895377 5.0020811a2 2 0 0 1 1.0823922 2.6131259 2 2 0 0 1 -2.6131259 1.0823922 2 2 0 0 1 -1.0823922-2.6131259 2 2 0 0 1 2.6131259-1.0823922z" fill="#fafafa"/></svg>