<svg viewBox="0 0 16 16" xmlns="http://www.w3.org/2000/svg">/&amp;amp;amp;gt;<path d="m1 4c-.554 0-1 .446-1 1v8c0 .554.446 1 1 1h8c.554 0 1-.446 1-1v-8c0-.554-.446-1-1-1z" fill="#3a3a38"/><path d="m1 5h8v8h-8z" fill="#c8c6c4"/><path d="m11 0c-2.7614237 0-5 2.2385763-5 5s2.2385763 5 5 5c2.761424 0 5-2.2385763 5-5s-2.238576-5-5-5z" fill="#ed8733" stroke-width=".833333"/><path d="m15 5a4 4 0 0 1 -4 4 4 4 0 0 1 -4-4 4 4 0 0 1 4-4 4 4 0 0 1 4 4z" fill="#f8db8f"/><g fill-rule="evenodd"><path d="m10.5 16 5.5-5.608191-5.5-5.391809-5.5 5.5z" fill="#0063b1"/><path d="m10.503906 5.9960938-4.503906 4.5039062 4.496094 4.496094 4.503906-4.59375z" fill="#83beec"/></g></svg>