<svg viewBox="0 0 16 16" xmlns="http://www.w3.org/2000/svg"><path d="m1 2h14v11h-14z" fill="#f9f9f9"/><g fill="#3a3a38"><path d="m0 1v3.4433594 3.2695312 6.2871094h6.4628906 6.0253904 3.511719v-3.443359-3.2695316-6.2871094h-6.4628906-6.0253906zm1 1h1.5195312 6.7714844 5.7089844v4.3203125 5.2050785 1.474609h-1.519531-6.7714846-5.7089844v-4.3203125-5.2050781z"/><path d="m4 4c-.554 0-1 .446-1 1v1c0 .554.446 1 1 1h1c.554 0 1-.446 1-1v-1c0-.554-.446-1-1-1zm4.5 0c-.277 0-.5.223-.5.5s.223.5.5.5h4c.277 0 .5-.223.5-.5s-.223-.5-.5-.5zm-4.5 1h1v1h-1zm4.5 1c-.277 0-.5.223-.5.5s.223.5.5.5h4c.277 0 .5-.223.5-.5s-.223-.5-.5-.5zm-4.5 3c-.554 0-1 .446-1 1v1c0 .554.446 1 1 1h1c.554 0 1-.446 1-1v-1c0-.554-.446-1-1-1zm4.5 0c-.277 0-.5.223-.5.5s.223.5.5.5h4c.277 0 .5-.223.5-.5s-.223-.5-.5-.5zm-4.5 1h1v1h-1zm4.5 1c-.277 0-.5.223-.5.5s.223.5.5.5h4c.277 0 .5-.223.5-.5s-.223-.5-.5-.5z"/></g></svg>