<svg viewBox="0 0 16 16" xmlns="http://www.w3.org/2000/svg">/&amp;amp;amp;amp;gt;<path d="m2 2c-.554 0-1 .446-1 1v12c0 .554.446 1 1 1h5v-9c0-.554.446-1 1-1h6l1 1v-4c0-.554-.446-1-1-1h-1v2c0 .554-.446 1-1 1h-8c-.554 0-1-.446-1-1v-2z" fill="#ed8733"/><path d="m8 0a2 2 0 0 0 -2 2h-2v2h4 4v-2h-2a2 2 0 0 0 -2-2zm0 1a1 1 0 0 1 1 1 1 1 0 0 1 -1 1 1 1 0 0 1 -1-1 1 1 0 0 1 .0058594-.0996094 1 1 0 0 1 .9941406-.9003906z" fill="#3a3a38"/><path d="m9 8v7h6v-5.2949219l-1.695312-1.7050781z" fill="#fafafa"/><path d="m9 7c-.554 0-1 .446-1 1v7c0 .554.446 1 1 1h6c.554 0 1-.446 1-1v-4.5-.8632812l-2.636719-2.6367188h-.863281zm0 1h3v2.5c0 .277.22316.490579.5.5h2.5v4h-6zm4 0 2 2h-2z" fill="#3a3a38"/><path d="m2 3v12h5v-8c0-.554.446-1 1-1h6v-3h-1v1c0 .554-.446 1-1 1h-8c-.554 0-1-.446-1-1v-1z" fill="#f8db8f"/><path d="m3 4v10h4v-7c0-.554.446-1 1-1h5v-2c0 .554-.446 1-1 1h-8c-.554 0-1-.446-1-1z" fill="#fafafa"/></svg>