<svg viewBox="0 0 16 16" xmlns="http://www.w3.org/2000/svg"><path d="m3 1v5.875l.4375-.4375c.2693573-.2756766.6479293-.4404472 1.0332031-.4511719.0404405-.0013697.0806745-.0018965.1210938 0a1.0033338 1.0033338 0 0 1 .0175781 0c.576387.0372961 1.1144904.4385943 1.3144531.9804688.1999628.5418744.0507135 1.1948891-.3632812 1.5976562l-1.4257813 1.4257813 5.3515625.0039062c.7941239-.0112309 1.5234379.7097024 1.5234379 1.5039064 0 .794203-.729314 1.515137-1.5234379 1.503906l-5.3476562-.003906 1.4199219 1.419922c.1665126.160987.2805391.363615.3515624.582031h7.0898438v-11.2949219l-2.695312-2.7050781z" fill="#fafafa"/><path d="m3 0c-.554 0-1 .446-1 1v6.875l1-1v-5.875h6v3.5c0 .277.223.5.5.5h3.5v7 2 .091797.908203h-2-.740234-4.0585941-.2910157c.1046069.321695.1060035.678429.0019532 1h.1171875 2.9433593 2.0273438 2c.554 0 1-.446 1-1v-.800781-.199219-2-7.5-.8632812l-3.636719-3.6367188h-.863281zm7 1 3 3h-3zm-7.9726562 14.138672c.0628979.43777.3962143.771086.8339843.833984z" fill="#3a3a38"/><path d="m5.9296875 7c.11053.3239423.0910555.6782546-.0253906 1h.0957031 4 1.5c.277 0 .5-.223.5-.5s-.223-.5-.5-.5h-1.5273438-3.9453124z" fill="#fb983b"/><path d="m4.5 13c-.1018161 0-.1906991.037979-.2695312.089844l.9101562.910156h1.3222656.0371094c.277 0 .5-.223.5-.5 0-.206182-.1233731-.382334-.3007812-.458984-.0609347-.026328-.1284012-.041016-.1992188-.041016z" fill="#797774"/><rect fill="#797774" height="1" ry=".5" width="4" x="4" y="4"/><path d="m4.5439886 6.9888998a.50005.50005 0 0 1 .316407.8574219l-3.1464847 3.1464843 7.7851567.0059a.50005.50005 0 1 1 0 1l-7.7851567-.0059 3.1464847 3.146484a.50005.50005 0 1 1 -.707032.707031l-3.95312469-3.953125a.50005.50005 0 0 1 -.0059-.0039.50005.50005 0 0 1 .002-.792968l3.95702469-3.9570375a.50005.50005 0 0 1 .34375-.1503907.50005.50005 0 0 1 .04687 0z" fill="#1e8bcd" fill-rule="evenodd"/><path d="m8.5 13c-.277 0-.5.223-.5.5s.223.5.5.5h1.5 1.5c.277 0 .5-.223.5-.5s-.223-.5-.5-.5h-1.472656z" fill="#fb983b"/></svg>