<svg viewBox="0 0 16 16" xmlns="http://www.w3.org/2000/svg">/&gt;<g fill="#3a3a38"><path d="m9 13h-1.394466q-.2276686 0-.3628455-.101656-.1280641-.108434-.1707517-.277862l-.4268773-1.816265h-3.6996048l-.8964428 1.809488q-.0782609.149097-.2490119.271084-.1707509.115211-.3913042.115211h-1.40869575l4.73834005-9h1.8426878zm-5.4640315-3.3953317h2.824506l-.6901185-2.9344876q-.0498025-.2100904-.1067194-.4879518-.0498024-.2846386-.0996048-.6167169-.1280632.3320783-.2561264.6167169-.1209487.2846385-.2205534.501506z"/><path d="m15.275333 12.912024h-.829068q-.300921 0-.411463-.140763-.110542-.146627-.09826-.351906l.04912-.739003q-.42988.60997-.982592.967742-.546571.351906-1.209825.351906-.374616 0-.706244-.129032-.325486-.129032-.571136-.392962-.239509-.263929-.380757-.656892-.135108-.398826-.135108-.932551 0-.521994.141249-1.0087977.14739-.4926686.417605-.9266859.270215-.434018.650972-.7917887.380757-.3577714.853633-.6158362.472876-.2580645 1.019447-.3988269.552712-.1466276 1.160695-.1466276.44217 0 .88434.058651.442172.05865.872059.2052784zm-2.880244-1.1261q.276356 0 .534289-.170088.264073-.170088.491299-.463343.233367-.29912.423746-.692082.19652-.398827.331627-.8504404l.196521-1.5483873q-.08597-.00586-.171955-.00586-.08597-.00586-.165814-.00586-.528148 0-.9826.2111441-.454452.2052786-.78608.5571846-.331626.3519059-.522005.8211147-.190379.4633423-.190379.9853373 0 .615836.221085.891496.227226.269794.620266.269794z"/></g></svg>