<svg viewBox="0 0 16 16" xmlns="http://www.w3.org/2000/svg">
/&amp;amp;gt;<path d="m7 0c-2.209139 0-4 1.790861-4 4s1.790861 4 4 4h1v8h1v-15h2v15h1v-15h1 3v-1h-3-2-2z" fill="#3a3a38"/><path d="m3.516048 16.003915c.130048-.0041.253371-.05875.34375-.152344l2.916016-2.916015c.340562-.189485.342752-.678567.0039-.871094l-2.919922-2.9101563c-.472656-.4700541-1.177738.23893-.705082.708984l2.144531 2.1367193h-4.785157c-.700353-.03591-.700353 1.033956 0 .998047h4.789064l-2.148438 2.148437c-.325519.317139-.09298.868926.361338.857422z" fill="#1e8bcd" fill-rule="evenodd"/></svg>