<svg viewBox="0 0 16 16" xmlns="http://www.w3.org/2000/svg">/&amp;amp;amp;amp;amp;gt;<path d="m2 2c-.554 0-1 .446-1 1v12c0 .554.446 1 1 1h12c.554 0 1-.446 1-1v-12c0-.554-.446-1-1-1h-1v2c0 .554-.446 1-1 1h-8c-.554 0-1-.446-1-1v-2z" fill="#ed8733"/><path d="m2 3v12h12v-12h-1v1c0 .554-.446 1-1 1h-8c-.554 0-1-.446-1-1v-1z" fill="#f8db8f"/><path d="m3 4v10h10v-10c0 .554-.446 1-1 1h-8c-.554 0-1-.446-1-1z" fill="#fafafa" stroke-width="1.118034"/><g fill="#3a3a38"><path d="m8 0a2 2 0 0 0 -2 2h-2v2h4 4v-2h-2a2 2 0 0 0 -2-2zm0 1a1 1 0 0 1 1 1 1 1 0 0 1 -1 1 1 1 0 0 1 -1-1 1 1 0 0 1 .0058594-.0996094 1 1 0 0 1 .9941406-.9003906z"/><path d="m7 11h1v-3.1684206c0-.1383459.0041-.2827068.012312-.4330828l-.7099865.6721804c-.046512.042105-.093023.067669-.139535.076692-.046511.00902-.090287.00902-.1313268 0-.0410391-.00902-.0779754-.02406-.1108071-.045113-.030096-.02406-.0533517-.04812-.0697672-.072181l-.3119018-.4691724 1.6374829-1.5609022.8235295-.0000004v5h1v1h-3z" stroke-width=".919466"/></g></svg>