<svg viewBox="0 0 16 16" xmlns="http://www.w3.org/2000/svg">/&amp;amp;amp;amp;amp;gt;<path d="m2 2c-.554 0-1 .446-1 1v12c0 .554.446 1 1 1h12c.554 0 1-.446 1-1v-12c0-.554-.446-1-1-1h-1v2c0 .554-.446 1-1 1h-8c-.554 0-1-.446-1-1v-2z" fill="#ed8733"/><path d="m2 3v12h12v-12h-1v1c0 .554-.446 1-1 1h-8c-.554 0-1-.446-1-1v-1z" fill="#f8db8f"/><path d="m3 4v10h10v-10c0 .554-.446 1-1 1h-8c-.554 0-1-.446-1-1z" fill="#fafafa" stroke-width="1.118034"/><path d="m8 0a2 2 0 0 0 -2 2h-2v2h4 4v-2h-2a2 2 0 0 0 -2-2zm0 1a1 1 0 0 1 1 1 1 1 0 0 1 -1 1 1 1 0 0 1 -1-1 1 1 0 0 1 .0058594-.0996094 1 1 0 0 1 .9941406-.9003906z" fill="#3a3a38"/><g fill="#1e8bcd" transform="matrix(.23934298 0 0 .23934298 3.762114 8.894689)"><path d="m7.46 17.92q-.6.32-1.44.56-.8.28-2.12.28-1.36 0-2.44-.84-1.12-.84-1.12-2.2 0-1.32.72-2 .68-.68 1.64-.68 1.6 0 1.92 1.44-.68.36-.68 1.24 0 1.12 1.08 1.12 1.64 0 2.24-2.2.4-1.44.64-3.96.28-2.52.44-3.48l2.2-13.72h-2.96l.24-1.36 3.04-.8.36-1.84q1.4-7.36 6.8-7.36 1.8 0 3.04.96 1.28.92 1.28 2.32 0 1.4-.76 2.2-.76.8-1.72.8-1.4 0-1.8-1.44.96-.72.96-1.44 0-1.52-1.76-1.52-1.84 0-2.4 2-.4 1.48-.48 3.28-.08 1.8-.12 2.24h3.84l-.28 1.96h-3.88l-2.24 14.16q-.6 3.92-.88 4.68-.24.76-.6 1.8-.36 1.08-.72 1.52-.32.48-.88 1.2-.56.76-1.16 1.08z"/><path d="m21.57875 7.4q0 1 1.48 1.12l-.2 1.48h-5.64l-.4-.76q1.08-2.08 5.04-6.08l2.48-2.52-2.32-5.32q-.52-1.24-1.08-1.52-.52-.32-1.64-.32l-.2-1.32 4.2-1.16 1 .88 2.8 6.52q3.28-3.36 3.28-4.44 0-1.08-1.28-1.32v-1.32h5.32l.64.72q.16.16-1.52 2.12-1.64 1.96-3.52 3.84l-2.16 2.16 2.8 6.4q.4.84.6.92.2.04.68.04.48 0 1.76-.76l.4 1.28q-2.6 2.24-4.16 2.24-1.08 0-1.68-1-.24-.36-.56-1.08l-2.56-5.8q-3.56 3.56-3.56 5z"/></g></svg>