<svg viewBox="0 0 16 16" xmlns="http://www.w3.org/2000/svg">/&amp;amp;amp;gt;<path d="m5 11v4h6v-4z" fill="#fafafa" fill-rule="evenodd"/><path d="m1 5c-.554 0-1 .446-1 1v5c0 .554.446 1 1 1h3v3.142578c0 .474857.3825649.857422.8574219.857422h6.2851561c.474857 0 .838139-.382957.857422-.857422v-3.142578h3c.554 0 1-.446 1-1v-5c0-.554-.446-1-1-1h-1v2h-1-10-1v-2zm4 6h6v4h-6z" fill="#3a3a38"/><path d="m4 1v4h8v-4z" fill="#fafafa" fill-rule="evenodd"/><path d="m1 6v5h4 6 4v-5h-1v1h-1-10-1v-1z" fill="#797774"/><path d="m13 10h2v1h-2z" fill="#fafafa"/><path d="m3.8574219 0c-.474857 0-.8574219.38256487-.8574219.85742188v5.14257812h1 8 1v-5.14257812c0-.47485701-.382565-.85742188-.857422-.85742188zm.1425781 1h8v4h-8z" fill="#3a3a38"/></svg>