<svg viewBox="0 0 16 16" xmlns="http://www.w3.org/2000/svg"><path d="m1 1v9h2v-8h8v-1z" fill="#fafafa"/><path d="m0 0v9 1 1.5 1.5h3v-3h-2v-9h10v1h1v-2h-2-1-1z" fill="#3a3a38"/><path d="m5 4v9h10v-9z" fill="#fafafa"/><path d="m4 3v9 1 1.5 1.5h12v-13h-2-1-1zm1 1h10v9h-10z" fill="#3a3a38"/><path d="m12.5 9-2.5 3-1.5-1.5-2.5 2.5h9v-1.5z" fill="#83beec"/><path d="m9 6.5c0 .8284271-.6715729 1.5-1.5 1.5s-1.5-.6715729-1.5-1.5.6715729-1.5 1.5-1.5 1.5.6715729 1.5 1.5z" fill="#fb983b"/><path d="m12.5 8-2.5 3-1.5-1.5-3.5 3.5h1l2.5-2.5 1.5 1.5 2.5-3 2.5 2.5v-1z" fill="#0063b1"/></svg>