<svg height="16" viewBox="0 0 4.2333332 4.2333335" width="16" xmlns="http://www.w3.org/2000/svg" xmlns:xlink="http://www.w3.org/1999/xlink"><linearGradient id="a" gradientUnits="userSpaceOnUse" x1="61" x2="61" y1="29" y2="18"><stop offset="0" stop-color="#e9e9e9"/><stop offset=".2857143" stop-color="#f2f2f2"/><stop offset="1" stop-color="#fbfbfb"/></linearGradient><linearGradient id="b" gradientUnits="userSpaceOnUse" x1="65.99999896875" x2="65.99999896875" xlink:href="#a" y1="25.00007869796" y2="14.00008138952"/><linearGradient id="c" gradientUnits="userSpaceOnUse" x1="60.99999778703" x2="60.99999778703" xlink:href="#a" y1="29.00008115514" y2="18.00008006718"/><g transform="translate(0 -292.76665)"><g stroke-width=".999999" transform="matrix(.26458333 0 0 .26458333 0 292.76665)"><path d="m1 8v7h7v-1c.0001092-1.092631.9073684-1.999891 2-2v-4z" fill="url(#c)"/><path d="m6 4v7h4v-5c-1.0926313-.0001092-1.9998908-.9073687-2-2z" fill="url(#b)"/><path d="m6 0c-.5540001 0-1 .44599685-1 1v3h-4c-.55399997 0-1 .4459969-1 1v10c0 .554003.44600003 1 1 1h7.2832031c-.1748928-.296284-.2831667-.63579-.2832031-1h-7v-7h4v3c0 .554003.4459999 1 1 1h4v-1h-4v-3h4v-2c-1.0926313-.0001092-1.9998908-.9073687-2-2v-1c.0001092-1.0926313.9073687-1.9998908 2-2h2a1.0001 1.0001 0 0 0 .001953 0c.174935.0002442.330501.0897775.498047.1347656.167546-.0449881.323112-.1345214.498047-.1347656a1.0001 1.0001 0 0 0 .001953 0h2c.36421.0000364.703716.1083103 1 .2832031v-.2832031c0-.55400315-.446-1-1-1zm10 5.7167969c-.296284.1748928-.63579.2831667-1 .2832031v5 1c.554 0 1-.445997 1-1z" fill="#3a3a38"/></g><g fill="#bababa" transform="matrix(.26458333 0 0 .26458333 0 292.76667)"><path d="m7 9h2v1h-2z" fill="#1e8bcd"/><g fill="#797774"><path d="m2 9h2v1h-2z" fill="#797774"/><path d="m2 11h2v1h-2z" fill="#797774"/><path d="m2 13h2v1h-2z"/><path d="m12 9h2v1h-2z"/><path d="m12 7h2v1h-2z"/><path d="m12 5h2v1h-2z"/><path d="m7 13v1h1c.0000364-.36421.1083103-.703716.2832031-1z" transform="translate(0 -.000076)"/></g></g><g transform="matrix(.26458333 0 0 .26458333 0 292.76665)"><g stroke-width=".999999"><path d="m1 4c-.55399997 0-1 .4459969-1 1v3h10v-2c-1.0926313-.0001092-1.9998908-.9073687-2-2z" fill="#3a3a38"/><path d="m1 5v2h4v-2zm5 0v2h4v-1c-.7284209-.0000728-1.3670112-.4074317-1.7167969-1z" fill="#797774"/><path d="m6 0c-.5540001 0-1 .44599685-1 1v3h3v-1c.0001092-1.0926313.9073687-1.9998908 2-2h2a1.0001 1.0001 0 0 0 .001953 0c.174935.0002442.330501.0897775.498047.1347656.167546-.0449881.323112-.1345214.498047-.1347656a1.0001 1.0001 0 0 0 .001953 0h2c.36421.0000364.703716.1083103 1 .2832031v-.2832031c0-.55400315-.446-1-1-1z" fill="#3a3a38"/></g><path d="m6 1v2h2c.0001092-1.0926313.9073687-1.9998908 2-2zm6.001953 0c.174935.0002442.330501.0897775.498047.1347656.167546-.0449881.323112-.1345214.498047-.1347656z" fill="#797774" stroke-width=".866026"/></g></g><g stroke-width=".264583"><path d="m2.6458334.52916681c-.1461193.0000146-.2645687.11846404-.2645833.26458333v.26458336c.0000146.1461193.118464.2645687.2645833.2645833h.2645833v2.1166665h-.2645833c-.1461193.0000146-.2645687.118464-.2645833.2645833v.2645834c.0000146.1461193.118464.2645688.2645833.2645833h.5291666c.046463-.0000648.09209-.012361.1322917-.035657.040202.023294.085829.035592.1322917.035657h.5291666c.1461194-.0000145.2645688-.118464.2645834-.2645833v-.2645834c-.0000146-.1461193-.118464-.2645687-.2645834-.2645833h-.2645833v-2.1166665h.2645833c.1461194-.0000146.2645688-.118464.2645834-.2645833v-.26458336c-.0000146-.14611929-.118464-.26456873-.2645834-.26458333h-.5291666c-.046463.00006485-.09209.0123627-.1322917.0356567-.040202-.023294-.085829-.0355919-.1322917-.0356567z" fill="#3a3a38"/><path d="m2.6458334.79375014v.26458336h.5291666v-.26458336zm.5291666.26458336v2.6458331h.2645834v-2.6458331zm.2645834 0h.5291666v-.26458336h-.5291666zm0 2.6458331v.2645834h.5291666v-.2645834zm-.2645834 0h-.5291666v.2645834h.5291666z" fill="#fafafa"/></g></svg>