<svg viewBox="0 0 16 16" xmlns="http://www.w3.org/2000/svg" xmlns:xlink="http://www.w3.org/1999/xlink"><linearGradient id="a" gradientTransform="translate(0 -6)" gradientUnits="userSpaceOnUse" x1="18" x2="20" xlink:href="#c" y1="14" y2="8"/><linearGradient id="b" gradientTransform="matrix(-1 0 0 -1 16 22)" gradientUnits="userSpaceOnUse" x1="18" x2="20" xlink:href="#c" y1="14" y2="8"/><linearGradient id="c" gradientTransform="translate(0 -7)" gradientUnits="userSpaceOnUse" x1="18" x2="20" y1="14" y2="8"><stop offset="0" stop-color="#0040dd"/><stop offset="1" stop-color="#0a84ff"/></linearGradient>






     /&amp;amp;amp;amp;amp;gt;
 <path d="m.5 0c-.277 0-.5.223-.5.5v8.4960938h1v-7.9960938h7.8789062l.9023438-.90234375c-.0811084-.05672712-.1743337-.09765625-.28125-.09765625zm.5 8.9960938-.00390625.0039062h.00390625zm8.9414062-8.72070318c.0347008.06815178.0585938.14260888.0585938.22460938 0-.0820005-.0238931-.15645762-.0585938-.22460938zm-.9414062 3.84570318v4.8789062h-6.953125c-.02957.1650637-.045275.3323162-.046875.5.0002065.1697587.0244775.3350761.0527344.5h7.4472656c.277 0 .5-.223.5-.5v-4.3769531z" fill="#3a3a38"/><path d="m1 1v8h8v-4.8789062l-.5605469-.5605469c-.5551517-.5556005-.5551517-1.5654933 0-2.1210938l.4394531-.4394531z" fill="#fafafa"/><path d="m6.5 6c-.276131.000028-.499972.223869-.5.5v4.376953l1 1.001953v-4.878906h6.953125c.02957-.1650637.045275-.3323162.046875-.5-.000207-.1697586-.024478-.3350761-.052734-.5h-1.947266zm8.5 1v.0039062l.003906-.0039062zm0 .0039062v7.9960938h-7.8789062l-.9023438.902344c.0811374.056835.1746691.097645.28125.097656h2.5 6.5c.276131-.000028.499972-.223869.5-.5v-4.5-3.9960938zm-8.78125 8.8984378c-.0607249-.042537-.110391-.099151-.1484375-.16211.0369182.065742.086954.119042.1484375.16211zm-.21875-.402344c.0000083.081743.0238079.156481.0585938.224609-.036737-.066825-.0585854-.142027-.0585938-.224609z" fill="#ed8733"/><path d="m7 7v4.878906l.5605469.560547c.5551517.555601.5551517 1.565493 0 2.121094l-.4394531.439453h7.8789062v-8z" fill="#f8db8f"/><path d="m11.484375.00390625a.49738544.49738544 0 0 0 -.335937.14453125l-2.0000005 2a.49738544.49738544 0 0 0 0 .703125l2.0000005 2a.49738544.49738544 0 0 0 .849609-.3515625v-.5019531l.001953.0019531v-1a3 3 0 0 1 3 3h1a4 4 0 0 0 -4-4v-1l-.001953.0019531v-.5019531a.49738544.49738544 0 0 0 -.513672-.49609375z" fill="url(#a)"/><path d="m4.515625 15.996094a.49738544.49738544 0 0 0 .335937-.144532l2.0000005-2a.49738544.49738544 0 0 0 0-.703125l-2.0000005-2a.49738544.49738544 0 0 0 -.849609.351563v.501953l-.001953-.001953v1a3 3 0 0 1 -3-3h-1a4 4 0 0 0 4 4v1l.002-.002v.502a.49738544.49738544 0 0 0 .513625.496094z" fill="url(#b)"/></svg>