<svg viewBox="0 0 16 16" xmlns="http://www.w3.org/2000/svg">
/&amp;amp;gt;<path d="m10.493748 0c.125293.00280684.253327.05196495.361328.13867188l4.992187 4.00781252c.110722.088891.157578.2194888.152344.3535156.0047.1333758-.04214.2650437-.152344.3535156l-4.992187 4.0078125c-.216002.1734138-.511163.1958686-.707031 0-.1958691-.1958686-.2160022-.5336176 0-.7070312l3.929687-3.1542969h-8.0839844a5 5 0 0 0 -4.99999996 5 5 5 0 0 0 4.99999996 5v1a6 6 0 0 1 -5.99999996-6 6 6 0 0 1 5.99999996-6h8.0839844l-3.929687-3.15429688c-.2160022-.17341362-.1958691-.51116267 0-.70703124.097934-.0979343.22041-.14147872.345703-.13867188z" fill="#1e8bcd"/></svg>