<svg viewBox="0 0 16 16" xmlns="http://www.w3.org/2000/svg">
/&amp;amp;gt;<path d="m3 1v6.8359375l1.5 1.5 1.5039062-1.5019531a1.0007407 1.0007407 0 0 1 0-.0019532 1.0007407 1.0007407 0 0 1 .2890626-.7890624l.75-.75a1.0007407 1.0007407 0 0 1 .6914062-.2929688 1.0007407 1.0007407 0 0 1 .265625.0332031 1.0007407 1.0007407 0 0 1 .9570312.2597657l.75.75a1.0007407 1.0007407 0 0 1 .2890626.7890624 1.0007407 1.0007407 0 0 1 0 .0019532l1.5039062 1.5019531 1.5-1.5v-4.1308594l-2.695312-2.7050781zm5 9.164062-1.3359375 1.335938 1.3359375 1.335938 1.3359375-1.335938zm-3.5 3.5-1.3359375 1.335938h2.671875zm7 0-1.335938 1.335938h2.671876z" fill="#fafafa"/><path d="m3 0c-.554 0-1 .446-1 1v5.8359375l1 1v-6.8359375h6v3.5c0 .277.223.5.5.5h3.5v2.8359375l1-1v-2.3359375-.8632812l-3.636719-3.6367188h-.863281zm7 1 3 3h-3zm-8 10.164062v.671876l.3359375-.335938zm12 0-.335938.335938.335938.335938zm-10.8359375 3.835938-.7734375.773438c.1700739.13391.3751415.226562.609375.226562h2 1.0292969.3066406l-.0429687-.042969a1.0007407 1.0007407 0 0 1 -.2871094-.787109l-.1699219-.169922h-.8359375zm6.9999995 0-.1699214.169922a1.0007407 1.0007407 0 0 1 -.2871094.787109l-.0429687.042969h1.3359375 2c.234233 0 .439301-.092653.609375-.226562l-.773437-.773438h-1.835938-.740234z" fill="#3a3a38"/><path d="m4.5 4c-.277 0-.5.223-.5.5s.223.5.5.5h3c.277 0 .5-.223.5-.5s-.223-.5-.5-.5zm3.4199219 6.244141-.7558594.755859h.3359375c.277 0 .5-.223.5-.5 0-.095733-.0337822-.180002-.0800781-.255859zm-3.4199219 3.419921-.2558594.25586c.0758569.046296.1601259.080078.2558594.080078h.3359375z" fill="#797774"/><path d="m4.5 7c-.277 0-.5.223-.5.5s.223.5.5.5h1.3359375l.1699219-.1699219a1.0007407 1.0007407 0 0 1 .2871094-.7871093l.0429687-.0429688zm5.1640625 0 .0429687.0429688a1.0007407 1.0007407 0 0 1 .2890626.7890624 1.0007407 1.0007407 0 0 1 0 .0019532l.1679682.1660156h.335938c.277 0 .5-.223.5-.5s-.223-.5-.5-.5z" fill="#fb983b"/><g fill="#ed3d3b"><path d="m15.25 7.0000002-3.75 3.7499998-3.75-3.7499998-.75.75 3.75 3.7499998-3.75 3.75.75.75 3.75-3.75 3.75 3.75.75-.75-3.75-3.75 3.75-3.7499998z"/><path d="m8.25 7.0000002-3.75 3.7499998-3.75-3.7499998-.75.75 3.75 3.7499998-3.75 3.75.75.75 3.75-3.75 3.75 3.75.75-.75-3.75-3.75 3.75-3.7499998z"/></g></svg>