<svg viewBox="0 0 16 16" xmlns="http://www.w3.org/2000/svg">

/&amp;amp;amp;gt;<g transform="matrix(-1 0 0 1 16 -1)"><g fill-rule="evenodd"><path d="m8.970703 10.996094c-.1263428.0034-.2509171.03053-.367187.08008l-8.00000038 3c-1.00268995.431358-.69505492 1.9271.39648438 1.927732h8c.5542468-.000471 1.003435-.449659 1.003906-1.003906v-3c-.000254-.565878-.4675513-1.019925-1.033203-1.003906z" fill="#3a3a38"/><path d="m9 12v3h-8z" fill="#fafafa"/><path d="m11.992188 3c-.549209.004345-.99215.4507741-.992188 1v11c.000055.552262.447738.999945 1 1h3c.664461-.00035 1.14384-.636599.960938-1.275391l-3-10.9999996c-.123662-.4316032-.519792-.727902-.96875-.7246094z" fill="#0063b1"/><path d="m15 15h-3v-11z" fill="#83beec"/></g><g transform="translate(-3.01495 3.000008)"><path d="m9.51495.499992 1.984936 1.995-1.984936 2.005" fill="none" stroke="#1e8bcd" stroke-linecap="round" stroke-linejoin="round"/><path d="m3.01495 7.499992c0 .276142.223858.5.5.5s.5-.223858.5-.5v-2c0-1.380712 1.119287-2.5 2.5-2.5v-.0059h.423829 4.068228v-1h-4.068228-.5c-2.154663.0059-3.373799 1.88341-3.423829 3.5059z" fill="#1e8bcd" fill-rule="evenodd"/></g></g></svg>