<svg viewBox="0 0 16 16" xmlns="http://www.w3.org/2000/svg"><path d="m.5.5c.0000238-.000024 0 11 0 11h3v4l2.5-2.222656v-6.277344c0-.554.446-1 1-1h8.5v-5.5z" fill="#fafafa"/><g fill="#3a3a38"><path d="m.5 0a.5.5 0 0 0 -.5.5.5.5 0 0 0 .0078125.08789062h-.0078125v5.41210938 5.5a.50005.50005 0 0 0 .5.5h2.5v3.5a.50005.50005 0 0 0 .8320312.373047l2.1679688-1.927735v-1.335937l-2 1.777344v-2.886719a.50005.50005 0 0 0 -.5-.5h-2.5v-5-5h14v5h1v-5.5a.50005.50005 0 0 0 -.5-.5z"/><path d="m8 7c-.554 0-1 .446-1 1v4c0 .554.446 1 1 1v2.5c.0001744.445319.5385182.668294.8535156.353516l2.8535154-2.853516h3.292969c.554 0 1-.446 1-1v-4c0-.554-.446-1-1-1z"/></g><path d="m9 14v-2h-1v-4h7v4h-4z" fill="#fafafa"/></svg>