<svg viewBox="0 0 16 16" xmlns="http://www.w3.org/2000/svg">
/&amp;amp;amp;amp;gt;<path d="m2.8828125 0 4.4570313 4.0117188a1.0006512 1.0006512 0 0 0 0 .0019531c.4270464.3854099.6601562.913948.6601562 1.4863281s-.2331098 1.1009182-.6601562 1.4863281a1.0006512 1.0006512 0 0 0 0 .0019531l-5 4.4999998a1.0006512 1.0006512 0 0 0 -.0019532 0c-.5984133.537396-1.41530554.666979-2.1503906.339844-.06956105-.030956-.1231926-.079901-.1875-.117187v3.289062c0 .554.446 1 1 1h14c.554 0 1-.446 1-1v-14c0-.554-.446-1-1-1z" fill="#922e9b"/><path d="m3.9941406 1 3.3457032 3.0117188a1.0006512 1.0006512 0 0 0 0 .0019531c.4270464.3854099.6601562.913948.6601562 1.4863281s-.2331098 1.1009182-.6601562 1.4863281a1.0006512 1.0006512 0 0 0 0 .0019531l-5 4.4999998a1.0006512 1.0006512 0 0 0 -.0019532 0c-.3825514.343545-.8552172.500605-1.3378906.498047v3.013672h14v-14z" fill="#d492d8"/><path d="m2.8828125 0 4.4570313 4.0117188a1.0006512 1.0006512 0 0 0 0 .0019531c.4270464.3854099.6601562.913948.6601562 1.4863281s-.2331098 1.1009182-.6601562 1.4863281a1.0006512 1.0006512 0 0 0 0 .0019531l-1.125 1.0117188h7.7851562c.554 0 1-.446 1-1v-6c0-.554-.446-1-1-1zm2.2226563 9-2.765625 2.488281a1.0006512 1.0006512 0 0 0 -.0019532 0c-.1042217.093595-.222001.157967-.3378906.226563v2.785156c0 .554.446 1 1 1h9c.554 0 1-.446 1-1v-4.5c0-.554-.446-1-1-1z" fill="#922e9b"/><path d="m3.9941406 1 3.3457032 3.0117188a1.0006512 1.0006512 0 0 0 0 .0019531c.4270464.3854099.6601562.913948.6601562 1.4863281s-.2331098 1.1009182-.6601562 1.4863281a1.0006512 1.0006512 0 0 0 0 .0019531l-.0136719.0117188h5.6738281c.554 0 1-.446 1-1v-4c0-.554-.446-1-1-1zm.0058594 9c-.0027966 0-.0050214.00193-.0078125.001953l-.9667969.869141c-.0058746.04402-.0253906.083228-.0253906.128906v3c0 .554.446 1 1 1h1v-4h2v4h4c.554 0 1-.446 1-1v-3c0-.554-.446-1-1-1z" fill="#fafafa"/><path d="m1.0332031 0c-.26742797-.00865083-.53625124.09516673-.7285156.28125s-.30459807.45118214-.3046875.71875v9c.00063595.3841.24282994.757894.59375.914062.35092006.156169.7903909.08672 1.0761719-.169921l5-4.5000004c.2073594-.1871421.3300781-.4648198.3300781-.7441406s-.1227187-.5569985-.3300781-.7441406l-5-4.50000002c-.1735451-.1564913-.4031704-.24794756-.6367188-.25585938z" fill="#309048"/><path d="m1 .99804688v.00195312 9h.00195v.002l4.99805-4.5000469v-.00195-.00195l-4.9980469-4.50000622a.99928822.99928822 0 0 1 -.00195 0zm.00195 9.00390612c.0000031 0-.00195-.001953-.00195-.001953.00448.007.017074.0096 0 .002h.00195z" fill="#a1ddaa"/></svg>