<svg height="16" viewBox="0 0 4.2333332 4.2333335" width="16" xmlns="http://www.w3.org/2000/svg"><g transform="translate(0 -292.76665)"><g stroke-width=".264583"><path d="m1.8520833 293.74652h1.5875c.1465792 0 .2645834.11801.2645834.26459v.60764c0 .14658-.1180042.26458-.2645834.26458h-1.5875c-.1465791 0-.2645833-.118-.2645833-.26458v-.60764c0-.14658.1180042-.26459.2645833-.26459z" fill="#1e8bcd"/><path d="m2.1166667 293.03125v1.05833h1.0583333v-1.05833z" fill="#fafafa" fill-rule="evenodd"/><path d="m3.4395833 296.47083h.5291667v.26459h-.5291667z" fill="#fafafa"/><path d="m2.0789429 292.76667c-.1256393 0-.2268596.10122-.2268596.22686v1.36064h.2645834 1.0583333.2645833v-1.36064c0-.12564-.1012203-.22686-.2268595-.22686zm.037724.26458h1.0583331v1.05833h-1.0583333z" fill="#3a3a38"/><path d="m1.4552083 294.22187c-.1465791 0-.2645833.11801-.2645833.26459v2.11666c0 .14658.1180042.26459.2645833.26459h.5291667.2645833.9260417.6614583c.1465792 0 .2645834-.11801.2645834-.26459v-2.11666c0-.14658-.1180042-.26459-.2645834-.26459h-.2645833v.52917h-.1322917-1.4552083-.2645833v-.52917z" fill="#797774" stroke="#3a3a38"/><rect fill="#797774" height="2.645833" ry=".132292" stroke="#3a3a38" stroke-linecap="round" stroke-linejoin="bevel" width=".79375" x=".132292" y="294.22186"/></g><g fill="#fafafa" transform="matrix(.26458333 0 0 .26458333 0 292.76667)"><path d="m7 10h1v1h-1z"/><path d="m7 12h1v1h-1z"/><path d="m7 8h1v1h-1z"/><path d="m9 10h1v1h-1z"/><path d="m9 12h1v1h-1z"/><path d="m9 8h1v1h-1z"/><path d="m11 10h1v1h-1z"/><path d="m11 12h1v1h-1z"/><path d="m11 8h1v1h-1z"/></g></g></svg>