<svg viewBox="0 0 16 16" xmlns="http://www.w3.org/2000/svg">/&amp;amp;amp;amp;gt;<path d="m1 0c-.554 0-1 .446-1 1v14c0 .554.446 1 1 1h11c.554 0 1-.446 1-1v-14c0-.554-.446-1-1-1zm0 1h11v14h-11z" fill="#3a3a38"/><path d="m1 1h11v14h-11z" fill="#fafafa"/><path d="m15 8a6 6 0 0 1 -6 6 6 6 0 0 1 -6-6 6 6 0 0 1 6-6 6 6 0 0 1 6 6z" fill="#ed8733"/><path d="m14 8a5 5 0 0 1 -5 5 5 5 0 0 1 -5-5 5 5 0 0 1 5-5 5 5 0 0 1 5 5z" fill="#f8db8f"/><g fill="#797774"><rect height="1" ry=".452061" width="9" x="2" y="6"/><rect height="1" ry=".5" width="9" x="2" y="12"/><rect height="1" ry=".404121" width="9" x="2" y="9"/><rect height="1" ry=".452061" width="9" x="2" y="3"/></g></svg>