<svg viewBox="0 0 16 16" xmlns="http://www.w3.org/2000/svg">/&gt;<path d="m8 .5c-1.0358006 0-2.1972656 2.1972656-2.1972656 2.1972656s-2.3735028-.7319662-3.1054688 0c-.731966.7319663 0 3.1054688 0 3.1054688s-2.1972656 1.1614646-2.1972656 2.1972656 2.1972656 2.197266 2.1972656 2.197266-.731966 2.373501 0 3.105469c.731966.731965 3.1054688-.000001 3.1054688 0 0 0 1.161465 2.197265 2.1972656 2.197265 1.035801 0 2.197266-2.197266 2.197266-2.197265 0 0 2.373501.731965 3.105469 0 .731965-.731968 0-3.105469 0-3.105469s2.197265-1.161465 2.197265-2.197266-2.197265-2.1972656-2.197265-2.1972656.731965-2.3735025 0-3.1054688c-.731968-.7319662-3.105469 0-3.105469 0s-1.161465-2.1972656-2.197266-2.1972656zm0 3.75c2.071068 0 3.75 1.6789315 3.75 3.75 0 2.071068-1.678932 3.75-3.75 3.75-2.0710677 0-3.75-1.678931-3.75-3.75 0-2.0710685 1.6789323-3.75 3.75-3.75z" fill="#fafafa" stroke="#3a3a38"/><ellipse cx="7.981917" cy="8.006098" fill="none" rx="4.722035" ry="4.73402" stroke="#fafafa" stroke-linejoin="round"/></svg>