<svg height="16" viewBox="0 0 4.2333332 4.2333335" width="16" xmlns="http://www.w3.org/2000/svg"><g transform="translate(0 -292.76665)"><path d="m1.4414062 292.76758a.13180067.13180067 0 0 0 -.080078.0371l-1.3222656 1.32422a.13180067.13180067 0 0 0 -.03710937.0937v1.32226a.13180067.13180067 0 0 0 .03710937.0937l1.3222656 1.32227a.13180067.13180067 0 0 0 .09375.0371h1.3222657a.13180067.13180067 0 0 0 .09375-.0371l1.3242187-1.32227a.13180067.13180067 0 0 0 .037109-.0937v-1.32226a.13180067.13180067 0 0 0 -.037109-.0937l-1.3242187-1.32422a.13180067.13180067 0 0 0 -.09375-.0371h-1.3222658a.13180067.13180067 0 0 0 -.013672 0z" fill="#3a3a38"/><g fill="#fafafa" stroke-width=".264583"><path d="m1.6632922 293.03125.3086805.92604h.2893881l.3086806-.92604zm-.2797418.11576-1.00321186 1.00321.89710286.29903.4051433-.40514zm1.4662328 0-.2990344.8971.4051434.40514.8971026-.29903zm-2.58519986 1.28295v.90675l.92604166-.30868v-.28939zm3.70416666 0-.9260416.30868v.28939l.9260416.30868zm-2.6913086.88746-.89710286.29903 1.00321186 1.00321.2990343-.8971zm1.6784508 0-.4051434.40514.2990344.8971 1.0032116-1.00321zm-.9839195.49196-.3086805.92604h.9067492l-.3086806-.92604z"/><path d="m1.8961806 294.22188-.4409722.44097v.44097l.4409722.44097h.4409722l.4409722-.44097v-.44097l-.4409722-.44097z"/></g></g></svg>