<svg viewBox="0 0 16 16" xmlns="http://www.w3.org/2000/svg">/&amp;amp;amp;amp;gt;<g fill-rule="evenodd"><path d="m7 4-1.0197613.018687-3.9802387-.018687c-.931826.0674074-1.26108412.24659-1.80891038 1.0686251-.23536957.5001291-.18812052 1.0060873-.18554966 1.1134571l-.00553996 5.8179178c1.2308966-.665811 2.1877407-1.400014 3-2.5.0025999-.9507136-.0122883-.9878477.007811-2.8527291-.0087902-.7429187.5557234-.8771154.992189-1.1472709z" fill="#0063b1"/><path d="m2.0605469 4.9941406c-.3933227.0298039-.5371223.0742138-.6074219.1152344-.0623055.036356-.1932771.1836649-.3769531.4433594-.0369594.0978716-.0676512.2049334-.0761719.3046875-.0102171.1196148-.00388037.1387207 0 .3007812a.99433536.99433536 0 0 1 0 .025391l-.003906 3.7246093c.3212554-.2755246.7352629-.48896 1.0117185-.8378909-.0012383-.6195262-.0106929-.8583307.0058594-2.4121094-.0073824-.6239362.3322038-1.2339661.6914062-1.5292969.0984394-.0809353.1245173-.075221.2109375-.1308593z" fill="#83beec"/></g><path d="m10.5 3-6 3 1.8769531 3.7539062a.98720003.98720003 0 0 1 .5917969.2851558l1.9863281 2.00586 3.9140629-4.3046876z" fill="#3a3a38"/><path d="m10.177734 3.9667969-4.7109371 2.3554687 2.2226562 4.4433594 1.0488281 1.060547.7636719-.382813 2.8476559-3.1328121z" fill="#fafafa"/><path d="m8.5 8v-5.5c0-2.82779217 4-2.5 4 0v3.5" fill="none" stroke="#3a3a38"/><path d="m14.87645 7-5.8910916 6.478394-2.7178271-2.744073-1.2675313 1.265679.7478638.780928 2.6338937 2.575258.6859101.643814.6036008-.697465 6.3287316-7.302535z" fill="#1e8bcd"/></svg>