<svg viewBox="0 0 16 16" xmlns="http://www.w3.org/2000/svg"><path d="m4 1.000281v2 5h2 .5c.2761309.000028.4999724.223869.5.5v2.886719l3.667969-3.259766c.091392-.081553.209541-.12673.332031-.126953h4v-7z" fill="#fafafa" fill-rule="evenodd"/><path d="m.5 3c-.27614237 0-.5.2238576-.5.5.00000895.02947.0026233.058881.0078125.087891h-.0078125v2.412109 5.5c.00002761.276131.22386906.499972.5.5h2.5v3.5c.0007774.430893.5097988.659116.8320312.373047l4.3574219-3.873047h4.3105469c.276131-.000028.499972-.223869.5-.5v-8c-.000028-.2761309-.223869-.4999724-.5-.5zm.5 1h11v7h-4c-.1224905.000223-.2406387.0454-.3320312.126953l-3.6679688 3.259766v-2.886719c-.0000276-.276131-.2238691-.499972-.5-.5h-2.5v-5z" fill="#3a3a38"/><path d="m3.5-.00011884c-.2761424 0-.5.2238576-.5.5.000009.02947.00262.058881.00781.087891h-.00781v2.41210904 5.5c.0000276.276131.2238691.499972.5.5h2.5v3.4999998c.0007774.430893.5097988.659116.8320312.373047l4.3574218-3.8730468h4.310547c.276131-.000028.499972-.223869.5-.5v-8.00000004c-.000028-.2761309-.223869-.4999724-.5-.5zm.5 1h11v7.00000004h-4c-.12249.000223-.240639.0454-.332031.126953l-3.667969 3.2597658v-2.8867188c-.0000276-.276131-.2238691-.499972-.5-.5h-2.5v-5z" fill="#3a3a38"/><path d="m1 4v2 5h2 .5c.2761309.000028.4999724.223869.5.5v2.886719l3.6679688-3.259766c.0913925-.081553.2095407-.12673.3320312-.126953h4v-7z" fill="#fafafa" fill-rule="evenodd"/></svg>