<svg viewBox="0 0 16 16" xmlns="http://www.w3.org/2000/svg">
/&amp;amp;gt;<path d="m2 5v6h4v-1.4863281c-.0059896-.4236279.1937681-.8755908.4960938-1.140625.3023255-.2650343.6541945-.3682016.9902343-.3730469-.3361375-.0047985-.6879053-.1079954-.9902343-.3730469-.3023292-.2650515-.5020834-.7169966-.4960938-1.140625v-1.4863281zm7 0v1.4863281c.0059907.4236297-.1937642.8755735-.4960938 1.140625-.3023294.2650516-.6540968.3682484-.9902343.3730469.3361382.0047983.687905.1079953.9902343.3730469.3023295.2650516.5020845.7169953.4960938 1.140625v1.4863281h4v-6z" fill="#fafafa"/><path d="m2 4c-.554 0-1 .446-1 1v6c0 .554.446 1 1 1h4v-1h-4v-6h4v-1zm7 0v1h4v6h-4v1h4c.554 0 1-.446 1-1v-6c0-.554-.446-1-1-1z" fill="#3a3a38"/><g fill="#1e8bcd"><path d="m7.5 7c-.249672-.0035642-.5047291-.1655219-.5-.5v-4.7871094l-1.1386719 1.1425781c-.312338.3263931-.8630741.1041008-.8613281-.3476563.0005112-.1357713.056209-.2654981.1542969-.359375l1.9570312-1.953125c.0982024-.1275781.2429157-.1931313.3886719-.1953124.1457562.0021811.2904695.0677343.3886719.1953124l1.9570312 1.953125c.0980879.0938769.1537857.2236037.1542969.359375.001746.4517571-.5489901.6740494-.8613281.3476563l-1.1386719-1.1425781v4.7871094c.00473.3344781-.250328.4964358-.5.5z"/><path d="m7.5 9c-.249672.0036-.5047291.165522-.5.5v4.791015l-1.1386719-1.142578c-.312338-.326393-.8630741-.104101-.8613281.347657.0005112.135771.056209.265498.1542969.359375l1.9570312 1.953125c.098202.127578.2429157.193131.3886719.195312.1457562-.0022.2904695-.06773.3886719-.195312l1.9570312-1.953125c.0980879-.093877.1537857-.223604.1542969-.359375.0017-.451758-.5489901-.67405-.8613281-.347657l-1.1386719 1.142578v-4.791015c.00473-.334478-.250328-.496436-.5-.5z"/></g></svg>