<svg viewBox="0 0 16 11" xmlns="http://www.w3.org/2000/svg"><path d="m6.890625 5c-.1819353.4180463-.5778287.7214147-1.0390625.8515625-.1301478.4612338-.4335162.8571272-.8515625 1.0390625v2.203125c.5755473.211337 1 .7674377 1 1.40625 0 .168659-.0358512.329687-.0898438.482422.0310514.00288.0580154.017578.0898438.017578h9c.554 0 1-.446 1-1v-4c0-.0318284-.014698-.0587924-.017578-.0898438-.152735.0539926-.313763.0898438-.482422.0898438-.638812 0-1.194913-.4244527-1.40625-1zm-.890625 1h9v4h-9z" fill="#3a3a38"/><path d="m6 6h9v4h-9z" fill="#fafafa"/><g fill="#1e8bcd"><path d="m5.5 0c-.277 0-.5.223-.5.5v4c0 .277.223.5.5.5s.5-.223.5-.5v-1.5h9v1.5c0 .277.223.5.5.5s.5-.223.5-.5v-4c0-.277-.223-.5-.5-.5s-.5.223-.5.5v1.5h-9v-1.5c0-.277-.223-.5-.5-.5z"/><path d="m.5 5c-.277 0-.5.223-.5.5s.223.5.5.5h1.5v4h-1.5c-.277 0-.5.223-.5.5s.223.5.5.5h4c.277 0 .5-.223.5-.5s-.223-.5-.5-.5h-1.5v-4h1.5c.277 0 .5-.223.5-.5s-.223-.5-.5-.5z"/></g></svg>