<svg viewBox="0 0 16 16" xmlns="http://www.w3.org/2000/svg"><path d="m9 0v1h1 1 4v4h-3v1h4v-6zm-9 5v6h5.8789062l-1-1h-3.8789062v-4h3.8789062l1-1zm12 5v1h3v4h-4-1-1v1h7v-6z" fill="#3a3a38"/><path d="m11 1c.552262.0000552.999945.4477381 1 1v3h3v-4zm-10 5v4h3.8789062l-.4277343-.4277344c-.4234525-.4098219-.5136912-1.0423005-.3515625-1.5410156-.001819-.00475-.0099488-.0050056-.0117188-.0097656-.00255-.006882.0082994-.0145444.0058594-.0214844.00244-.00694-.0084094-.0146044-.0058594-.0214844.001769-.00477.0098988-.0050156.0117188-.0097656-.1621287-.4987151-.0718903-1.1311937.3515625-1.5410156l.4277343-.4277344zm11 5v3c-.000055.552262-.447738.999945-1 1h4v-4z" fill="#fafafa"/><path d="m7 2 1.6464844 1.6464844-3.5 3.5c-.3128385.3027683-.1126486.8210678.3085937.8535156-.4212423.0324478-.6214322.5507473-.3085937.8535156l3.5 3.5000004-1.6464844 1.646484h4v-4l-1.6464844 1.646484-3.5-3.4999996c-.0871442-.0900673-.2057156-.1389222-.3300781-.1464844.1243625-.0075622.2429339-.0564171.3300781-.1464844l3.5-3.5 1.6464844 1.6464844v-4z" fill="#1e8bcd"/></svg>