<svg viewBox="0 0 16 16" xmlns="http://www.w3.org/2000/svg"><path d="m6.0566406 2-5.0566406 14h1.4453125c.1572649 0 .2909889-.046333.4003906-.138672.1162393-.092339.1953025-.199561.2363281-.320312l1.1386719-3.355469h3.8261719c.0172188-.088157.0296284-.17851.0625-.259766.2084285-.515216.7604197-.937372 1.390625-.9375.4031194.000043.790385.16299 1.072266.451172l.4375.4375v-1.398437l-1.994141-5.5332035c-.2309133-.0786368-.4334946-.2045351-.59375-.3652344-.2513063-.2520024-.4322726-.597876-.4472656-1.015625-.0100844-.2809792.0866054-.5765756.2441406-.8300781l-.265625-.734375zm.9433594 1.8320312c.0615385.2628108.1269364.5090324.1953125.7363282s.1367021.4252313.2050781.5957031l1.9082032 5.6367185h-4.6171876l1.9082032-5.6249998c.0615384-.1704718.1269364-.3703604.1953125-.5976562.068376-.2272958.136702-.47618.2050781-.7460938z" fill="#3a3a38"/><g fill="#1e8bcd" fill-rule="evenodd"><path d="m8.9998699 3.484375c-.011504.454318.540283.6868471.857422.3613281l2.1445311-2.1484375-.002 4.7773434c-.017903.350177.241558.525391.500047.525391s.51795-.175214.5-.525391l-.002-4.7773434 2.144531 2.1484375c.317139.325519.868926.09299.857422-.3613281-.0041-.130048-.05875-.25337-.152344-.34375l-2.912062-2.9160156c-.160649-.173289-.266429-.2230094-.435547-.2246094-.169118.0016-.274898.0513204-.435547.2246094l-2.9121091 2.9160156c-.09359.09038-.148244.213702-.152344.34375z"/><path d="m8.9998699 12.515625c-.011504-.454318.540283-.686847.857422-.361328l2.1445311 2.148437-.0019-4.777343c-.018003-.350177.241458-.525391.499947-.525391s.51795.175214.5.525391l-.002 4.777343 2.144531-2.148437c.317139-.325519.868926-.09299.857422.361328-.0041.130048-.05875.25337-.152344.34375l-2.912112 2.916016c-.160599.173289-.266379.223009-.435497.224609-.169118-.0016-.274898-.05132-.435547-.224609l-2.9121091-2.916016c-.09359-.09038-.148244-.213702-.152344-.34375z"/></g></svg>