<svg viewBox="0 0 16 16" xmlns="http://www.w3.org/2000/svg">
/&amp;amp;gt;<path d="m3 1v14h10v-11.2949219l-2.695312-2.7050781z" fill="#fafafa"/><path d="m4.2226562 1-1.2226562 1.2226562v1.4140626l2.6367188-2.6367188zm2.828125 0-4.0507812 4.0507812v1.4140626l5.4648438-5.4648438zm2.828125 0-6.8789062 6.8789062v1.4140626l7.798828-7.7988282-.49414-.4941406zm1.6249998 1.203125-8.503906 8.503906v1.414063l9.208984-9.2089846zm1.41211 1.4160156-9.916016 9.9160154v1.414063l10-10.0000002v-1.2441407zm.083984 2.7441406-8.6367188 8.6367188h1.4140626l7.2226562-7.2226562zm0 2.8300782-5.8066406 5.8066406h1.4140625l4.3925781-4.392578zm0 2.8281246-2.978516 2.978516h1.414063l1.564453-1.564453zm0 2.828125-.150391.150391h.150391z" fill="#1e8bcd"/><path d="m3 0c-.554 0-1 .446-1 1v14c0 .554.446 1 1 1h2 1.0292969 2.9433593 2.0273438 2c.554 0 1-.446 1-1v-.800781-.199219-2-7.5-.8632812l-3.636719-3.6367188h-.863281zm0 1h6v3.5c0 .277.223.5.5.5h3.5v7 2 .0918.9082h-2-.740234-4.0585941-1.2011719-2zm7 0 3 3h-3z" fill="#3a3a38"/><path d="m13 4-3-3v3z" fill="#fafafa"/></svg>