<svg viewBox="0 0 16 16" xmlns="http://www.w3.org/2000/svg">


/&amp;amp;amp;gt;<g transform="translate(-2.002638 -1.004872)"><path d="m17.002638 2.0048716c-.177888.00524-2.101299 1.0915225-2.252093 1.1860353-4.136759 2.5854743-4.750545 3.8090931-7.250545 7.3090931-.210813.253601-.283141.594786-.193359.91211.124699.438291.05849.586853.729808.897431.67132.310578 1.030176.423588 2.302734.361328.225038-.01109.439749-.0978.609376-.246094 3.574573-3.115338 3.175018-2.301298 5.142984-5.220533.881307-1.0325742 1.381999-2.2843492 1.911095-4.1993704-.000147-.563767-.436464-1.0161281-1-1z" fill="#3a3a38"/><path d="m16.724609 3.3027344c-.12052.06376-.224452.1171683-.353515.1875-.510032.2779367-1.152213.6531562-1.060547.5957031a1.0556471 1.0556471 0 0 1 -.002 0c-4.049641 2.5310257-4.429068 3.499132-6.949219 7.0273435a1.0556471 1.0556471 0 0 1 -.03125.04102c.057793.19339.096644.293252.029297.1875-.078626-.123464-.1428925-.113268.1230469.0098.6250208.289159.6216153.318639 1.7949222.261719 1.784219-1.55364 2.614873-2.1692685 3.128906-2.6464841.517169-.4801273.835466-.9022529 1.8125-2.3515625a1.0556471 1.0556471 0 0 1 .07226-.095703c.6230129-.7299244 1.0102039-1.8312641 1.4355989-3.216836z" fill="#fafafa"/><path d="m7.2304688 11.009766c-.2611936.00974-.5143343.028897-.7304688.046875-2.056692.4941-1.7371332 1.337014-3.28125 3.322265-.5164462.665161-.0608622 1.627607.78125 1.628906 2.7115807-.173351 3.7401211.528889 5.578125-1.234374.07164-.07132.1322065-.152947.1796875-.242188.1631052-.351692.2618925-.682612.2597655-1.011719-.0037-.568259-.23225-1.098535-.4023436-1.486328-.4416095-.580756-.8799889-.870494-1.6035156-1.021484-.2501619-.0123-.5200567-.01169-.78125-.002zm.013672.978515c.2108343.0016.4312475.02151.6660156.05274.6457798.226088 1.0391393.662816 1.0839844 1.507812.0004787.07407-.016144.177417-.048828.296875l-3.09375-1.423828c.4524271-.326142.8961695-.4373 1.3925781-.433594zm-2.0585937 1.226563 3.0214843 1.390625c-.4027608.269951-.7300308.357145-1.1699218.392578-.9042073-.0092-2.4189477-.0088-3.0351563-.0098.6037334-.776211.9275974-1.337725 1.1835938-1.773437z" fill="#0063b1"/><path d="m5.1855469 13.214844c-.2559964.435712-.5798604.997226-1.1835938 1.773437.6162086.000977 2.130949.000587 3.0351563.0098.439891-.03543.7671611-.122627 1.1699218-.392578z" fill="#83beec"/><path d="m7.2441406 11.988281c-.4902613-.00366-.9303436.122539-1.3769531.439453l3.078125 1.417969c.032685-.119484.049307-.222806.048828-.296875-.044845-.844996-.4382045-1.281724-1.0839843-1.507812-.2347681-.031228-.4551813-.051161-.6660156-.052735z" fill="#fafafa"/></g></svg>