<svg viewBox="0 0 16 16" xmlns="http://www.w3.org/2000/svg">
/&amp;gt;<path d="m1 4v10h5.8945312l-2.40625-2.408203.0917969.082031c-.3719024-.288564-.5874116-.73807-.5800781-1.208984.006892-.438158.2119201-.8465139.546875-1.1250002l.0351562-.0351563-.0859374.0742187 2.9511718-2.9472656c.2950945-.2947324.7416179-.4693343 1.1425782-.4453125.1473585.0088284.2819391.0438249.4101562.0898438v.0175781c.3952568.1442882.7343856.4483843.8925781.8398438.2185139.5407298.0813892 1.205823-.3320312 1.6171874l-.4472657.4492188h.8867188v-.0039062l2.486328.0019531c.420169-.00594.867656.1828049 1.138672.484375.181875.2023796.271422.4343971.324219.6699221.018416.068418.027611.138222.035156.208984.00389.045812.023438.091248.023437.136719.000001.04547-.019547.090965-.023437.136719-.007545.070762-.01674.140566-.035156.208984-.052797.234946-.142344.465589-.324219.667969-.271016.30157-.718503.492228-1.138672.486328l-2.486328-.001953v.003906h-.875l.4257812.427734c.4098435.395829.5246878 1.03598.3496094 1.572266h.0996094 5v-10h-5-1zm9 3.3144531c.0043.033754.013635.0648254.015625.0996094.0046.080459-.004795.1635204-.015625.2460937zm0 5.9472659c.01886.104022.026964.208888.021484.310547-.0026.04844-.014574.0922-.021484.138672z" fill="#fafafa"/><path d="m0 1v3 10c0 .554.446 1 1 1h7.4746094c-.3782314-.013051-.777913-.18532-1.0449219-.464844l-.5351563-.535156h-5.8945312v-10h8 1 5v10h-5-.0996094c-.0681046.208613-.1768268.402302-.3339844.558594-.1585613.157688-.35526.265279-.5664062.332031v.029297c-.1154664.040691-.2381688.069093-.3691406.080078h.3691406 1 5c.554 0 1-.446 1-1v-10-3h-6-1z" fill="#3a3a38"/><path d="m15 4v10h-4v.5h-1v.5h6v-11z" fill="#0063b1"/><path d="m11 4v4.9960938l1.486328.0019531c.420169-.0059423.867656.1828049 1.138672.484375s.382812.6661771.382812 1.0156251c.000002.349447-.111796.712102-.382812 1.013672s-.718503.492228-1.138672.486328l-1.486328-.001953v2.003906h4v-10z" fill="#83beec"/><path d="m5.0000606 10.480118a.50005.50005 0 0 1 .203125-.394531l2.951171-2.9472663a.50063788.50063788 0 1 1 .707032.708984l-2.146485 2.1425793 5.7851564.0078a.50005.50005 0 1 1 0 1l-5.7851564-.0078 2.146485 2.15039a.50005.50005 0 1 1 -.708985.705078l-2.957031-2.960937a.50005.50005 0 0 1 -.195312-.404297z" fill="#1e8bcd" fill-rule="evenodd"/><path d="m10 4v3.3144531c.004251.0337542.013637.0648245.015625.0996094.004598.0804593-.004811.1635203-.015625.2460937v1.3359376h1v-4.9960938zm0 7.996094v1.265625c.018856.104022.026957.208888.021484.310547-.002607.048445-.014567.092199-.021484.138672v.789062h1v-.5-2.003906z" fill="#1e8bcd"/><path d="m1 2h14v1h-14z" fill="#797774"/></svg>