<svg viewBox="0 0 16 16" xmlns="http://www.w3.org/2000/svg">
/&amp;gt;<path d="m0 1v1 2 10c0 .554.446 1 1 1h5.0566406c.0114653-.053599.0096391-.106545.0273438-.160156v-.001953l.2792968-.837891h-5.3632812v-10h14v2.0585938c.113034-.0255942.225772-.0572108.339844-.0585938h.003906c.236092-.0018599.454569.0570715.65625.1484375v-2.1484375-2-1h-1-14zm16 9.912109-.333984 1.001953c-.070773.687126-.301212 1.32738-.666016 1.878907v.207031h-.150391c-.293389.390264-.648778.730221-1.05664 1h1.207031c.554 0 1-.446 1-1z" fill="#3a3a38"/><path d="m1 4v10h5.3632812l.9707032-2.914062c.2030598-1.971512 1.7804441-3.5488918 3.7519536-3.7519536l3.75-1.2480469c.053753-.0180526.109546-.0149997.164062-.0273437v-2.0585938zm14 9.792969c-.047316.071534-.098934.138583-.150391.207031h.150391z" fill="#fafafa"/><path d="m4 5c-.554 0-1 .446-1 1v1c0 .554.446 1 1 1h1c.554 0 1-.446 1-1v-1c0-.554-.446-1-1-1zm0 1h1v1h-1zm4.5 0c-.277 0-.5.223-.5.5s.223.5.5.5h3.589844l.857422-.2851562c.031501-.0655886.052734-.136961.052734-.2148438 0-.277-.223-.5-.5-.5zm-4.5 4c-.554 0-1 .446-1 1v1c0 .554.446 1 1 1h1c.554 0 1-.446 1-1v-1c0-.554-.446-1-1-1zm0 1h1v1h-1z" fill="#797774"/><path d="m15.351562 7c-.066959.0008118-.13378.0118821-.197265.0332031l-3.804688 1.2675781c-1.6178249.0815942-2.9672354 1.4310013-3.0488278 3.0488278l-1.2675781 3.804688c-.1656211.501513.3109864.978121.8125.8125l3.8046879-1.267578c1.617825-.08159 2.967235-1.431 3.048828-3.048828l1.267578-3.8046879c.138859-.4182031-.174594-.8491744-.615235-.8457031zm-3.851562 3a1.5 1.5 0 0 1 1.5 1.5 1.5 1.5 0 0 1 -1.5 1.5 1.5 1.5 0 0 1 -1.5-1.5 1.5 1.5 0 0 1 1.5-1.5z" fill="#1e8bcd"/><path d="m0 0h16v4h-16z" fill="#3a3a38"/><path d="m1 1h14v2h-14z" fill="#797774" stroke-width=".661438"/></svg>