<svg viewBox="0 0 16 16" xmlns="http://www.w3.org/2000/svg"><path d="m1 1v4h4v-1.5a1.5001719 1.5001719 0 0 1 1.453125-1.5 1.5001719 1.5001719 0 0 1 .9765625.3222656l3.3906245 2.6777344h4.179688v-4z" fill="#83beec"/><path d="m1 6v9h4v-.201172-8.798828z" fill="#fafafa"/><path d="m0 5v11h5.6035156a1.5001719 1.5001719 0 0 1 -.6035156-1.15625v.066406.089844h-4v-4h4 1v-1h-1-4v-4h4v-1z" fill="#3a3a38"/><path d="m1 0c-.554 0-1 .446-1 1v4 1h1 4v-1h-4v-4h4v2.5a1.5001719 1.5001719 0 0 1 1-1.4160156v-1.0839844h4v3.3515625l2.087891 1.6484375h2.912109 1v-1-4c0-.554-.446-1-1-1zm10 1h4v4h-4z" fill="#0063b1"/><g fill-rule="evenodd"><path d="m6.484375 2.9980469a.5024107.5024107 0 0 0 -.4863281.5019531v11.298828a.5024107.5024107 0 0 0 .859375.353516l2.3300781-2.347656 1.207031 2.394531-.02148-.04883c.158804.419916.531583.682333.902344.787109.37076.104776.761012.08648 1.125-.02344.363987-.109912.714608-.315863.947265-.660156.232658-.344292.297621-.835262.123047-1.296875a.5024107.5024107 0 0 0 -.01563-.03516l-1.36914-2.919922h3.279296a.5024107.5024107 0 0 0 .310547-.896484l-8.8652331-6.9999922a.5024107.5024107 0 0 0 -.3261719-.1074219z" fill="#3a3a38"/><path d="m7 4.5332031v9.0527349l1.9667969-1.982422a.49993388.49993388 0 0 1 .8027343.126953l1.5214848 3.017578a.49993388.49993388 0 0 1 .01953.04687c.03169.0838.08929.135631.238281.177734.148987.0421.369196.0402.560547-.01758s.341175-.165419.40625-.261719c.06408-.09482.09231-.172702.01758-.375l-1.689454-3.605461a.49993388.49993388 0 0 1 .453125-.712891h2.626953z" fill="#fafafa"/></g></svg>