<svg viewBox="0 0 16 16" xmlns="http://www.w3.org/2000/svg"><path d="m15.495233 11.492559-3.995233 4.000284-3.995233-4.000284" fill="none" stroke="#3a3a38" stroke-linecap="round" stroke-linejoin="round" stroke-width=".999439"/><path d="m11.5 15.492843v-14.99284225" fill="none" stroke="#3a3a38" stroke-linecap="round" stroke-linejoin="round" stroke-width=".999439"/><path d="m5.97089-.45767212v1.30859375c0 .41666667-.1236979.80729167-.3710937 1.17187497l-11.7578126 14.5898434h12.1289063v2.890625h-16.425781v-1.386718c0-.195313.03255-.377604.09766-.546875s.149742-.332032.253906-.488282l11.7382775-14.6484371h-11.6796875v-2.89062502z" fill="#a846b2" transform="matrix(.35068494 0 0 .35068494 3.906099 .160499)"/><path d="m2.6269531 9-2.6269531 7h.75195312c.08168441 0 .1502073-.022189.20703126-.068359.06037542-.04617.10173792-.09978.12304682-.160157l.625-1.771484h2.8222657l.6269531 1.775391c.028412.06393.067467.117538.1171875.160156.0532727.042619.1237485.064453.2089844.064453h.75l-2.6210938-7zm.4902344.9160156c.031963.1314054.0640944.2535394.0996094.3671874s.0719069.213592.1074219.298828l.8535156 2.417969h-2.1191406l.8496093-2.412109c.031963-.08524.066048-.18518.1015625-.298829.035515-.113647.071907-.238089.1074219-.3730464z" fill="#1e8bcd" transform="matrix(1.00000000031 0 0 1.00000000031 .00000036094 .00000010648)"/></svg>