<svg viewBox="0 0 16 16" xmlns="http://www.w3.org/2000/svg"><path d="m0 0v5h6v-.8730469l-1-1v.8730469h-4v-3h3.0878906c.0070223-.02006544.0076994-.04290859.015625-.0625.2084285-.51521667.7604192-.93737239 1.390625-.9375zm5.4941406 0c.1744213 0 .3446493.03582003.5058594.09375v-.09375zm6.5058594 5v1h3v4h-3v1h4v-6zm-3 2v2h1v-2zm-9 4v5h5.4589844c-.6149017-.016065-1.1510849-.426422-1.3554688-.931641-.0086271-.021325-.0080685-.046474-.015625-.068359h-3.0878906v-3h4v.878906l1-1v-.878906zm6 4.912109c-.1435455.05158-.2945755.081973-.4492188.087891h.4492188z" fill="#3a3a38"/><path d="m1 1v3h4v-.8730469l-.5488281-.5488281c-.4356322-.4216084-.5409304-1.0705076-.3632813-1.578125zm11 5v1.0058594c-.000799.5244291-.40656.9591719-.929688.9960937.523879.0369753.929913.4728657.929688.9980469v1h3v-4zm-11 6v3h3.0878906c-.1750069-.506842-.0708268-1.152132.3632813-1.572266l.5488281-.548828v-.878906z" fill="#fafafa"/><path d="m5.4941406 1c-.4494023.000091-.6705869.54684-.3476562.859375l3.5 3.5-1.6464844 1.6464844h4v-4l-1.6464844 1.6464844-3.5-3.5c-.094207-.0973701-.2238918-.1523438-.359375-.1523438zm1.5058594 8 1.6464844 1.646484-3.5 3.5c-.3229307.312535-.1017461.859284.3476562.859375.1354832 0 .265168-.054973.359375-.152343l3.5-3.5 1.6464844 1.646484v-4z" fill="#1e8bcd"/></svg>