<svg viewBox="0 0 16 16" xmlns="http://www.w3.org/2000/svg">/&gt;<path d="m4.25.5c0 2.0710678-1.6789323 3.75-3.75 3.75v7.5c2.0710677 0 3.75 1.678933 3.75 3.75h6.5625c0-2.071067 1.678933-3.75 3.75-3.75.324329 0 .637345.06908.9375.146485v-7.646485c-2.071067 0-3.75-1.6789322-3.75-3.75z" fill="#fafafa" stroke="#3a3a38" stroke-linejoin="round"/><path d="m5.0937841 1.4684759c-.2629196 1.5315241-1.7006464 3.3209997-3.5773686 3.6492777v5.7764774c1.4691598.205274 3.4149951 1.82136 3.6133231 3.601338l4.7772686-.023969c1.0168438-3.396748 3.5345278-3.584032 4.6005468-3.550828l-.011985-5.6951547c-1.453146-.3844714-3.536301-2.1873579-3.661262-3.7451566z" fill="none" stroke="#fafafa" stroke-width=".964"/></svg>