<svg height="16" viewBox="0 0 4.2333332 4.2333335" width="16" xmlns="http://www.w3.org/2000/svg"><g stroke-width=".264583"><path d="m.26458346.26458333h3.70416654v3.70416667h-3.70416654z" fill="#83beec"/><path d="m.13280855.00052333c-.07310476-.0001-.13239338.0592-.13229167.13229l-.00101756 3.96770667c-.00010171.0731.05918691.1324.13229167.1323h3.96874991c.073105.0001.1323932-.0592.1322916-.1323l.00103-3.96770667c.0001016-.0731-.059187-.13239-.1322917-.13229zm.13177491.26406h3.70416654.00103l-.00103 3.70416667h-3.70518601z" fill="#0063b1"/><path d="m1.3229168.26458333-.0000001 1.05832667h-1.05833336v.26459h1.05833336l.0000001 1.0583333h-1.05833331v.26458h1.05833331l-.0005008 1.0578167h.2645833l.0005008-1.0578167h1.0583332l-.0005008 1.0578167h.2645834l.0005008-1.0578167h1.0583333v-.26458h-1.0583333l-.0000001-1.0583333h1.0583333v-.26459h-1.0583333l.0000001-1.05832667h-.2645834l-.0000001 1.05832667h-1.0583332l.0000001-1.05832667zm.2645832 1.32291667h1.0583332l.0000001 1.0583333h-1.0583332z" fill="#1e8bcd"/></g><path d="m1.5875.52916h1.058333v3.175h-1.058333z" fill="#ff9f0a" opacity="0"/></svg>