<svg viewBox="0 0 16 16" xmlns="http://www.w3.org/2000/svg"><path d="m4.4098288 7.8936603-2.4098288-3.8936602h1.4347992c.1056943 0 .1823226.019087.229885.057259.052847.038173.1004096.08998.1426872.1554192l1.6171224 2.9038853c.021139-.059987.042277-.1172457.063417-.1717788.026424-.059987.060775-.1199732.1030519-.1799594l1.3555283-2.5194265c.047561-.076347.097768-.1363326.150615-.1799591.052845-.043627.116263-.06544.1902492-.06544h1.379311l-2.4177571 3.8200409 2.4177571 4.1799593h-1.3396762c-.1056934 0-.1928912-.02999-.261593-.08998-.063416-.06544-.1162632-.133605-.158541-.204498l-1.6409035-3.026585c-.0422779.1254257-.0898402.2317645-.1426874.3190178l-1.4823621 2.7075662c-.042277.07635-.095125.144513-.1585414.204498-.0581317.059994-.1374026.089981-.2378121.089981h-1.2445499z" fill="#3a3a38" stroke-width=".666667"/><path d="m11.350225 2.2499957c.30735 0 .586303.041698.83686.125093.253899.080417.469378.1950862.646439.3440064.180401.1489207.319042.3291147.415925.5405816.100222.208489.150333.439316.150333.692481 0 .217424-.03508.4199563-.105233.6075953-.07015.184662-.163699.361877-.280624.531647-.116926.16679-.253898.330603-.410914.491437-.157017.157856-.322384.317201-.496105.478036l-1.606906 1.439127 2.574057-.0029c.126949 0 .228842.03276.30568.09829.08018.06551.120268.151886.120268.259109v.395454h-4.500007v-.361876c0-.06851.01504-.141475.04511-.218914.03341-.08042.0902-.154877.17038-.22338l1.934304-1.773644c.163697-.151899.30735-.296351.430958-.433358.12695-.137008.232184-.272526.315703-.406554.08686-.137006.152005-.274013.195434-.411021.04343-.139985.06515-.2859273.06515-.4378263 0-.274014-.07684-.481013-.230513-.620998-.153675-.1399856-.370825-.2099783-.651448-.2099783-.120268 0-.230513.016382-.330736.049146s-.190423.07744-.270602.1340283c-.08018.05659-.148663.123604-.205457.201043-.05679.07744-.100219.160834-.130288.250186-.05345.137008-.126952.22636-.220492.268058-.0902.04169-.2154789.05063-.3758339.0268l-.6414281-.09829c.05011-.288908.140309-.540585.270598-.7550309.13028-.2173685.2923072-.3975622.4860721-.5405261.1971049-.1459422.4226059-.2546541.6765039-.3261354.253898-.07446.52617-.1116908.816812-.1116866z" fill="#1e8bcd" stroke-width=".750001"/></svg>