<svg viewBox="0 0 16 16" xmlns="http://www.w3.org/2000/svg">/&gt;<path d="m4.2499998.5s.6988125 3.2899592 0 4.6874999c-.6988125 1.3975429-3.7499999 2.8125-3.7499999 2.8125s3.0511874 1.4149567 3.7499999 2.8125001c.6988125 1.397546 0 4.6875 0 4.6875s2.1874688-2.812497 3.75-2.8125c1.5625313-.000002 3.7500002 2.8125 3.7500002 2.8125s-.698813-3.28996 0-4.6875c.698812-1.3975434 3.75-2.8125001 3.75-2.8125001s-3.051188-1.4149571-3.75-2.8125c-.698813-1.3975456 0-4.6874999 0-4.6874999s-2.1874689 2.8124978-3.7500002 2.8125c-1.5625312.0000021-3.75-2.8125-3.75-2.8125z" fill="#fafafa" stroke="#3a3a38" stroke-linejoin="round"/><path d="m2.4576806 7.9802002c1.7727118-1.0598339 3.3738504-2.2450484 2.9427491-4.9153611 2.2454441 1.9666807 3.7470735 1.1812472 5.1417263 0 .100351 2.081431.605687 3.5602088 2.915147 4.988696-1.451922.9731874-3.29828 1.3295359-2.882809 4.8905329-1.5817566-1.585826-3.3012917-1.51831-5.1417264 0 .3932265-2.629197-1.0599001-3.9591094-2.975087-4.9638678z" fill="none" stroke="#fafafa"/></svg>