<svg viewBox="0 0 16 16" xmlns="http://www.w3.org/2000/svg"><g fill="#3a3a38"><rect height="1" ry=".380151" width="7" x="7" y="2.000001"/><rect height="1" ry=".440076" width="7" x="7" y="10"/><rect height="1" ry=".5" width="8" x="7" y="14"/><rect height="1" ry=".47603" width="8" x="7" y="6"/></g><g fill="#1e8bcd" fill-rule="evenodd"><path d="m.00017707 3.484375c-.0115041.454318.5402829.6868471.8574219.3613281l2.14453123-2.1484375-.0019531 4.7773434c-.01795.350177.241511.525391.5.525391s.51795-.175214.5-.525391l-.0019531-4.7773434 2.144531 2.1484375c.317139.325519.868926.09299.857422-.3613281-.0041-.130048-.05875-.25337-.152344-.34375l-2.912109-2.9160156c-.160649-.173289-.2664289-.2230094-.4355469-.2246094-.169118.0016-.2748979.0513204-.4355469.2246094l-2.91210933 2.9160156c-.0935941.09038-.1482439.213702-.1523438.34375z"/><path d="m.00017707 12.515625c-.0115041-.454318.5402829-.686847.8574219-.361328l2.14453123 2.148437-.00195-4.777343c-.0179531-.350177.2415079-.525391.4999969-.525391s.51795.175214.5.525391l-.00195 4.777343 2.144531-2.148437c.317139-.325519.868926-.09299.857422.361328-.0041.130048-.05875.25337-.152344.34375l-2.9121121 2.916016c-.160649.173289-.2664289.223009-.4355469.224609-.169118-.0016-.2748979-.05132-.4355469-.224609l-2.91210933-2.916016c-.0935941-.09038-.1482439-.213702-.1523438-.34375z"/></g></svg>