<svg viewBox="0 0 16 16" xmlns="http://www.w3.org/2000/svg"><path d="m0 9v5h3.8847656l-.4453125-.445312a1.0001 1.0001 0 0 1 -.0410156-.044922c-.1293557-.146123-.2273368-.322996-.2929687-.509766h-2.1054688v-3h4 1l.0019531-1zm9.0019531 0-.0019531 1h1 1 4v3h-3.089844c-.084628.219823-.215097.425711-.382812.582031l-.417969.417969h4.890625v-5z"/><path d="m1 10v3h2.1054688c-.0694855-.197736-.1023908-.406608-.0859376-.603516.0319939-.382894.2022778-.704891.4414063-.943359s.5622351-.408583.9453125-.439453c.1934623-.01559.3990863.014459.59375.082031v-1.095703zm8 0-.0019531 1.871094.4121093-.41211c.158507-.169273.3672654-.299188.5898438-.382812v-1.076172zm2 0v1.070312c.219277.079663.412324.20096.566406.355469.248827.249515.428996.589256.447266 1 .008411.189146-.031281.386589-.103516.574219h3.089844v-3z" fill="#fafafa"/><path d="m0 2v5h7.0019531l-.0019531-1h-1-1-4v-3h3.078125c.0892655-.2259478.2262619-.4368578.4023438-.59375l.4042968-.40625zm12.109375 0 .417969.4179688c.167713.156321.298183.3622084.382812.5820312h2.089844v3h-4-1l.001953 1h5.998047v-5z"/><path d="m1 3v3h4v-1.0507812c-.2253575-.0792954-.4223794-.204065-.5800781-.3613282-.2523181-.251621-.4353942-.5951266-.4511719-1.0136718-.0071516-.1897162.0353674-.3868914.109375-.5742188zm11.910156 0c.072236.1876298.111929.3850739.103516.5742188-.018268.4107425-.198441.7504859-.447266 1-.248824.2495138-.589206.4298947-1 .4492187-.186621.0087787-.38111-.0299924-.566406-.0996094v1.0761719h4v-3zm-5.9121091 1.1269531-.4375.4375.0410156-.0449219c-.1585641.1791156-.3722766.3178459-.6015625.4082032v1.0722656h1zm3 .0019531.0019531 1.6816407v-1.6796875z" fill="#fafafa"/><g fill="#ed3d3b" fill-rule="evenodd"><path d="m8.484149.00006103a.4994882.49960146 0 0 0 -.394088.2029428l-2.9439546 2.94852387a.50007542.50018882 0 1 0 .7081878.7063978l2.1401718-2.1445596.0078 5.7799678a.4994882.49960146 0 1 0 .998876 0l-.0078-5.7799678 2.147974 2.1445596a.4994882.49960146 0 1 0 .704285-.7083491l-2.957609-2.95437856a.4994882.49960146 0 0 0 -.403843-.19513681z"/><path d="m7.484149 15.999957a.4994882.49960146 0 0 1 -.394088-.202943l-2.9439546-2.948523a.50007546.50018886 0 0 1 .7081878-.706398l2.1401718 2.144559.0078-5.7799675a.4994882.49960146 0 1 1 .998876 0l-.0078 5.7799675 2.147974-2.144559a.4994882.49960146 0 1 1 .704285.708349l-2.957609 2.954378a.4994882.49960146 0 0 1 -.403843.195137z"/></g><g fill="#797774"><path d="m10 4.1308594v1.6796875.1894531h1v-1.0761719c-.222579-.0836245-.431336-.2135404-.589844-.3828125zm-4 .796875c-.1841634.0725753-.3779546.1158495-.5644531.109375-.1570095-.0054508-.3003324-.0403134-.4355469-.0878906v1.0507812h1z"/><path d="m5 10v1.095703c.1907927.066228.3710522.168482.5195312.300781a1.0001 1.0001 0 0 1 .0410157.039063l.4375.4375.0019531-1.677735v-.195312zm5 0v1.076172c.185295-.069616.379784-.108385.566406-.09961.156415.007358.298764.044768.433594.09375v-1.070312z"/></g></svg>