<svg viewBox="0 0 16 16" xmlns="http://www.w3.org/2000/svg">/&amp;amp;amp;gt;<rect fill="#922e98" height="16" rx="0" ry="1" width="16"/><path d="m1 1h14v14h-14z" fill="#d492d8"/><path d="m2 0c-.554 0-1 .446-1 1v6c0 .554.446 1 1 1h12c.554 0 1-.446 1-1v-6c0-.554-.446-1-1-1zm1 9c-.554 0-1 .446-1 1v4.5c0 .554.446 1 1 1h9c.554 0 1-.446 1-1v-4.5c0-.554-.446-1-1-1z" fill="#922e98"/><path d="m3 1c-.554 0-1 .446-1 1v4c0 .554.446 1 1 1h10c.554 0 1-.446 1-1v-4c0-.554-.446-1-1-1zm1 9c-.554 0-1 .446-1 1v3c0 .554.446 1 1 1h1v-4h2v4h4c.554 0 1-.446 1-1v-3c0-.554-.446-1-1-1z" fill="#fafafa"/></svg>