<svg viewBox="0 0 16 16" xmlns="http://www.w3.org/2000/svg">/&amp;amp;amp;amp;amp;gt;<path d="m0 3v4 6c0 .554.446 1 1 1h4.2578125l.9042969-1h-5.1621094v-6-4zm15 0v.2148438l.193359-.2148438z" fill="#3a3a38"/><path d="m1 3v10h5.1621094l8.8378906-9.7851562v-.2148438z" fill="#fafafa"/><path d="m0 0v4h14.291016l1.708984-1.8925781v-2.1074219z" fill="#0063b1"/><path d="m1 1h14v2h-14z" fill="#83beec" stroke-width=".661438"/><path d="m15.5 5.0000003-9.5 10.4999997h9.5zm-2 5.4999997v.976392 2.023608h-2-.5z" fill="#f8db8f" fill-rule="evenodd" stroke="#ed8733"/><path d="m5 4v4h-4v1h4v4h1v-4h3.7734375l1.2265625-1.3574219v-3.6425781h-1v4h-4v-4z" fill="#797774"/></svg>