<svg viewBox="0 0 16 16" xmlns="http://www.w3.org/2000/svg"><path d="m0 3v13h15v-13h-5.5c-.7841451.0009175-1.5224286.3696977-1.9941406.9960938l-.0058594.0039062-.0039062-.0019531c-.4717184-.6276802-1.2109186-.9972803-1.9960938-.9980469z" fill="#0063b1"/><path d="m1 4h4.75l1.75.9285714 1.75-.9285714h4.75v10h-13z" fill="#83beec" stroke-width=".901388"/><g fill-rule="evenodd"><path d="m1 2v1 1 3 5 1h1 1.5 2.5c.287987 0 .5.212013.5.5.000802.01826.0021.0365.00391.05469.0008021.01826.0021.0365.00391.05469-.0000025.0013-.0000025.0026 0 .0039.00395.02886.00917.05753.015625.08594.00505.02299.010916.04579.017578.06836.00306.01112.00632.02219.00977.0332.00375.0098.00766.01959.011719.0293.00655.01975.013715.03929.021484.05859.00193.0039.00388.0078.00586.01172.014155.03006.0298.05939.046875.08789.014531.02541.030171.05018.046875.07422.010677.01462.021749.02895.033203.04297.00885.01192.017969.02364.027344.03516.00323.0033.00649.0065.00977.0098.019222.02237.039424.04387.060547.06445.013378.01143.027054.0225.041016.0332.01085.01001.021921.01978.033203.0293.00389.0026.00779.0052.011719.0078.026385.02023.053763.03914.082031.05664.026028.01553.052748.02987.080078.04297.0097.0041.01947.008.029297.01172.023669.01136.047776.02179.072266.03125.026968.0096.054337.01811.082031.02539.01939.0051.03893.0097.058594.01367.012968.0029.025991.0055.039063.0078.014943.0016.029921.0029.044922.0039.022713.0027.045513.0047.068359.0059.028633.0012.057305.0012.085938 0 .022847-.0012.045647-.0031.068359-.0059.015001-.000965.029979-.0023.044922-.0039.013071-.0023.026095-.0049.039063-.0078.019664-.004.039204-.0085.058594-.01367.027695-.0073.055064-.01576.082031-.02539.024489-.0095.048597-.01989.072266-.03125.00983-.0038.019594-.0077.029297-.01172.02733-.0131.05405-.02744.080078-.04297.028268-.0175.055646-.03641.082031-.05664.015331-.01193.030311-.02431.044922-.03711.013962-.0107.027638-.02178.041016-.0332.035184-.03402.067824-.07058.097656-.109375.014291-.01776.027971-.036.041016-.05469.013784-.02035.026814-.04119.039062-.0625.017075-.0285.03272-.05783.046875-.08789.01-.02309.019117-.04654.027344-.07031.00406-.0097.00797-.01947.011719-.0293.00345-.01101.0067-.02208.00977-.0332.015318-.05175.026422-.104659.033203-.158203.0018-.01819.0031-.03643.00391-.05469.0017744-.018214.003077-.03645.003879-.054712 0-.287987.2120131-.5.5-.5h2.5 1.5 1v-1-5-3-1-1h-1-1.5-2.5c-.5489928 0-1.0716732.6601712-1.5 1-.4283268-.3398288-.9510072-1-1.5-1h-2.5-1.5z" fill="#3a3a38"/><path d="m9.5 3c-.8284271 0-1.5.6715729-1.5 1.5v1.5 1 6.5c0-.828427.6715729-1.5 1.5-1.5h3.5v-5-3-1z" fill="#fafafa"/><path d="m5.5 3c.8284271 0 1.5.6715729 1.5 1.5v1.5 1 6.5c0-.828427-.671573-1.5-1.5-1.5h-3.5v-5-3-1z" fill="#fafafa"/></g><path d="m7 3h1v11h-1z" fill="#3a3a38" stroke-width="1.048809"/></svg>