<svg viewBox="0 0 16 16" xmlns="http://www.w3.org/2000/svg">/&amp;amp;amp;gt;<path d="m0 .0390625v15.9609375h15.960938l-5.802735-5.802734a1.0023027 1.0023027 0 0 1 -.044922.013672l-2.6894529.71289 3.0761719 3.076172-1.1894531-.042969-7.3105469.042969v-7.2675781-1.2324219l4.0742188 4.0742188.6679687-2.7128907a1.0023027 1.0023027 0 0 1 .0195313-.0605469z" fill="#3a3a38"/><rect fill="#ed8733" height="4" ry="1" width="16" y="12"/><path d="m1 13h14v2h-14z" fill="#f8db8f"/><g fill="#ed8733" transform="translate(-2 -2)"><path d="m5 14h1v2h-1z"/><path d="m8 14h1v2h-1z"/><path d="m11 14h1v2h-1z"/><path d="m14 14h1v2h-1z"/></g><g fill="#fb983b"><path d="m14.066406 1c-.142171 0-.283638.053302-.392578.1621094l-1.255859 1.2539062 2.134765 2.1367184 1.283204-1.2304684c.21788-.2175952.21788-.5675602 0-.7851562l-1.376954-1.375c-.108941-.108798-.250406-.1621094-.392578-.1621094zm-2.205078 1.9589844-4.1464842 4.1425776-.7148438 2.898438 2.8554688-.757812 4.1328122-4.160157z"/><g transform="translate(0 -6)"><path d="m13.804688 7.0683594c.171006-.1739438-.174941.1601863-1.386719 1.3476562l.01563.015625c.619714-.6142617 1.234361-1.2242057 1.371089-1.3632812zm-1.371094 1.3632812c-1.705556 1.6905364-4.4180608 4.3694234-4.7187502 4.6699214l-.7148438 2.898438 2.8554688-.757812 4.6835932-4.703126zm-.002 1.0078125 1.099609 1.0996089-4.0449219 4.0625-1.5039062.400391.3789062-1.535156c.3659391-.364052 2.4317849-2.404918 4.0703599-4.0273439z" fill="#0063b1"/><path d="m14.066406 7c-.142171 0-.283638.053302-.392578.1621094l-1.255859 1.2539062 2.134765 2.1367184 1.283204-1.2304684c.21788-.2175952.21788-.5675602 0-.7851562l-1.376954-1.375c-.108941-.108798-.250406-.1621094-.392578-.1621094zm0 .9941406.933594.9316406-.433594.4160157-.923828-.9257813z" fill="#0063b1"/><g fill="#83beec"><path d="m14.066406 7.9941406-.423828.421875.923828.9257813.433594-.4160157z"/><path d="m12.431641 9.4394531c-1.638575 1.6224259-3.7044208 3.6632919-4.0703129 4.0273439l-.3789062 1.535156 1.5039062-.400391 4.0449219-4.0625z"/></g></g></g></svg>