<svg viewBox="0 0 16 16" xmlns="http://www.w3.org/2000/svg"><path d="m6.1640625.9921875-5.1640625 14.0078125 1.3496094.007812c.1606282.000931.2964598-.046279.4082031-.138671.1187272-.09239.1983306-.199493.2402344-.320313l1.2304687-3.548828h4.9160156c-.084936-.319351-.1445312-.650406-.1445312-1h-4.4257812l2.0175781-5.8222656c.0628556-.1705669.1274261-.3702337.1972656-.5976563.0698396-.2274226.141098-.4760292.2109375-.7460937l2.125 6.2128906c.1708745-.7037699.5195109-1.3374881 1.007812-1.8398438l-2.2871089-6.2148437zm4.3281255 12.0468745.519531 1.521485c.05587.127926.132693.233075.230469.318359.104758.08528.240589.128906.408203.128906l.349609-.001953v-1.207031c-.563334-.147018-1.069636-.414727-1.507812-.759766z" fill="#3a3a38" stroke-width=".875488"/><path d="m13 7c-1.75727 0-3 1.27411-3 3s1.24273 3 3 3v3h1v-9zm2 0v9h1v-9z" fill="#1e8bcd"/></svg>