<svg viewBox="0 0 16 16" xmlns="http://www.w3.org/2000/svg"><path d="m3 1v14h1v-9c0-.554.446-1 1-1h9v-4z" fill="#fafafa"/><path d="m6 9c-.554 0-1 .446-1 1v5c0 .554.446 1 1 1h9c.554 0 1-.446 1-1v-5c0-.554-.446-1-1-1h-4-1zm0 1h4 1 4v2 1 2h-4-1-4v-2-1z" fill="#3a3a38"/><path d="m5 6v4h1v-1-2h4 1 4v2 1h1v-4z" fill="#0063b1"/><g transform="translate(-22.996091 -6)"><g fill="#1e8bcd"><rect height="4" ry=".5" width="1.003909" x="34.99609" y="7"/><rect height="1" ry=".5" width="4.003909" x="31.996092" y="10"/></g><path d="m35.499115 10.493535c-2.279661-3.5000009-6.057166-4.1907549-8 0" fill="none" stroke="#1e8bcd" stroke-linecap="round"/></g><path d="m3 0c-.554 0-1 .446-1 1v14c0 .554.446 1 1 1h1v-1h-1v-14h11v4h1v-4c0-.554-.446-1-1-1z" fill="#3a3a38"/><path d="m6 10h9v5h-9z" fill="#fafafa"/><path d="m10 10v2h-4v1h4v2h1v-2h4v-1h-4v-2z" fill="#797774"/><path d="m6 7h9v3h-9z" fill="#83beec"/><path d="m10 7v2h-4v1h9v-1h-4v-2z" fill="#1e8bcd"/></svg>