<svg viewBox="0 0 16 16" xmlns="http://www.w3.org/2000/svg">/&amp;amp;gt;<path d="m3 1v14h3.2167969l.5273437-2.138672c.04377-.176696.1349364-.338094.2636719-.466797l4.1464845-4.1425779c.097425-.0969128.213778-.1727082.341797-.2226562.050153-.1196995.123123-.2284935.214844-.3203125l1.255859-1.2539063c.010316-.0103037.022635-.0173807.033203-.0273437v-2.7226563l-2.695312-2.7050781zm10 12.496094-1.494141 1.503906h1.494141z" fill="#fafafa"/><path d="m3 0c-.554 0-1 .446-1 1v14c0 .554.446 1 1 1h3.0039062c.0003004-.078705.0052092-.158659.0253907-.240234l.1875-.759766h-3.2167969v-14h6v3.5c0 .277.223.5.5.5h3.5v1.4277344c.279141-.2631723.642184-.4059802 1-.421875v-1.5058594-.8632812l-3.636719-3.6367188h-.863281zm7 1 3 3h-3zm4 11.488281-1 1.007813v1.503906h-1.494141l-.941406.947266c-.020517.020642-.046233.034045-.068359.052734h2.503906c.554 0 1-.446 1-1z" fill="#3a3a38"/><g fill="#fb983b"><path d="m13.804688 7.0683594c.171006-.1739438-.174941.1601863-1.386719 1.3476562l.015625.015625c.619719-.6142617 1.234366-1.2242057 1.371094-1.3632812zm-1.371094 1.3632812c-1.705556 1.6905364-4.4180608 4.3694234-4.7187502 4.6699214l-.7148438 2.898438 2.8554688-.757812 4.6835932-4.703126zm-.001953 1.0078125 1.099609 1.0996089-4.0449219 4.0625-1.5039062.400391.3789062-1.535156c.3658921-.364052 2.4317379-2.404918 4.0703129-4.0273439z" fill="#0063b1"/><path d="m14.066406 7c-.142171 0-.283638.0533017-.392578.1621094l-1.255859 1.2539062 2.134765 2.1367184 1.283204-1.2304684c.21788-.2175952.21788-.5675602 0-.7851562l-1.376954-1.375c-.108941-.108798-.250406-.1621094-.392578-.1621094zm0 .9941406.933594.9316406-.433594.4160157-.923828-.9257813z" fill="#0063b1"/><g fill="#83beec"><path d="m14.066406 7.9941406-.423828.421875.923828.9257813.433594-.4160157z"/><path d="m12.431641 9.4394531c-1.638575 1.6224259-3.7044208 3.6632919-4.0703129 4.0273439l-.3789062 1.535156 1.5039062-.400391 4.0449219-4.0625z"/></g></g><path d="m16.263456 6.363961 1.455965-2.5549758h-3z" fill="#0063b1" transform="matrix(.70710678 .70710678 -.70710678 .70710678 0 0)"/><path d="m4.5 4c-.277 0-.5.223-.5.5s.223.5.5.5h3c.277 0 .5-.223.5-.5s-.223-.5-.5-.5zm0 6c-.277 0-.5.223-.5.5s.223.5.5.5h3c.277 0 .5-.223.5-.5s-.223-.5-.5-.5zm0 3c-.277 0-.5.223-.5.5s.223.5.5.5h1.9628906l.2363282-.958984c-.0609346-.026328-.1284012-.041016-.1992188-.041016z" fill="#797774"/><rect fill="#fb983b" height="1" ry=".5" width="7" x="4" y="7"/></svg>