<svg viewBox="0 0 16 16" xmlns="http://www.w3.org/2000/svg">
/&amp;gt;<path d="m7.3730469 0-3.3730469 10h.9648438c.1049193 0 .1945907-.033653.2675781-.0996094.0775491-.0659563.1288797-.142265.15625-.2285156l.8476562-2.671875h3.5371094l.8496095 2.6796875c.03649.091324.086529.1676328.150391.2285156.068425.0608828.158097.0917969.267578.0917969h.964843l-3.3671871-10zm.6289062 1.3085938c.0410556.187722.0852424.3630364.1308594.5253906.0456172.1623541.0911017.3040156.1367187.4257812l1.1855469 3.7402344h-2.9023437l1.1835937-3.7324219c.0410554-.1217656.0832893-.2634271.1289063-.4257812.0456172-.1623542.0911017-.3404076.1367187-.5332031z" fill="#3a3a38" transform="matrix(1.00000000799 0 0 .99999999618 -.00000015813 .00000051318)"/><g fill="#1e8bcd"><path d="m12.515625 9c-.454318-.011504-.686847.5402829-.361328.8574219l2.146484 2.1425781h-4.800781c-.277 0-.5.223-.5.5s.223.5.5.5h4.800781l-2.146484 2.142578c-.325519.317139-.09299.868926.361328.857422.130048-.0041.25337-.05875.34375-.152344l2.916016-2.912109c.173289-.160699.223009-.266429.224609-.435547-.0016-.169118-.05132-.274898-.224609-.435547l-2.916016-2.9121092c-.09038-.0935941-.213702-.1482439-.34375-.1523438z"/><path d="m3.484375 9c.454318-.011504.686847.5402829.361328.8574219l-2.146484 2.1425781h4.800781c.277 0 .5.223.5.5s-.223.5-.5.5h-4.800781l2.146484 2.142578c.325519.317139.09299.868926-.361328.857422-.130048-.0041-.25337-.05875-.34375-.152344l-2.916016-2.912109c-.173289-.160699-.223009-.266429-.224609-.435547.0016-.169118.05132-.274898.224609-.435547l2.916016-2.9121092c.09038-.0935941.213702-.1482439.34375-.1523438z"/></g></svg>