<svg viewBox="0 0 16 16" xmlns="http://www.w3.org/2000/svg">/&gt;<path d="m1 1c-.554 0-1 .446-1 1v3 9c0 .554.446 1 1 1h5 3v-1h-3-5v-12h5v3h5 4v4c.363969 0 .703481.1077387 1 .2832031v-4.2832031c0-.554-.446-1-1-1h-8v-2c0-.554-.446-1-1-1zm15 11.716797c-.296519.175464-.636031.283203-1 .283203v1h-2v1h2c.554 0 1-.446 1-1z" fill="#3a3a38"/><path d="m1 2v12h5 3v-1h-2c-1.0907028 0-2-.909297-2-2 0-1.0907028.9092972-2 2-2h2v-2c0-1.0907028.9092972-2 2-2h-5v-3zm10 3c1.090703 0 2 .9092972 2 2v2h2v-4zm2 8v1h2v-1z" fill="#fafafa"/><g fill="#1e8bcd"><rect height="2" ry="1" width="7" x="8" y="1"/><path d="m11 6c-.554 0-1 .446-1 1v3h-3c-.554 0-1 .446-1 1s.446 1 1 1h3v3c0 .554.446 1 1 1s1-.446 1-1v-3h3c.554 0 1-.446 1-1s-.446-1-1-1h-3v-3c0-.554-.446-1-1-1z"/></g></svg>