<svg viewBox="0 0 16 16" xmlns="http://www.w3.org/2000/svg"><path d="m2 1h13c.554 0 1 .446 1 1v13c0 .554-.446 1-1 1h-13c-.554 0-1-.446-1-1v-13c0-.554.446-1 1-1z" fill="#3a3a38"/><path d="m1 0c-.554 0-1 .446-1 1v13c0 .554.446 1 1 1h13c.554 0 1-.446 1-1v-13c0-.554-.446-1-1-1zm0 1h13v13h-13z" fill="#3a3a38"/><path d="m1 1h13v13h-13z" fill="#fafafa"/><path d="m7.4999999 2.0000126a5.4999998 5.4999998 0 0 0 -.2031232.011339 12.5 12.5 0 0 1 .00195-.00193 5.4999998 5.4999998 0 0 0 -.062498.00756 5.4999998 5.4999998 0 0 0 -.4414061.037795 5.4999998 5.4999998 0 0 0 -.1113297.018898 5.4999998 5.4999998 0 0 0 -.4453127.083905 5.4999998 5.4999998 0 0 0 -.115234.026457 13.5 13.5 0 0 0 -.00195.00378 5.4999998 5.4999998 0 0 0 -2.3027342 1.2402142 5.4999998 5.4999998 0 0 0 -.3886721.3886488 5.4999998 5.4999998 0 0 0 -.341797.414085 5.4999998 5.4999998 0 0 0 -1.0878906 3.2734488 5.4999998 5.4999998 0 0 0 1.0820312 3.2655869 5.4999998 5.4999998 0 0 0 .00586.0076 5.4999998 5.4999998 0 0 0 .3300783.404296 5.4999998 5.4999998 0 0 0 .033203.03402 5.4999998 5.4999998 0 0 0 .3593749.357544 5.4999998 5.4999998 0 0 0 .00979.01134 5.4999998 5.4999998 0 0 0 3.6796825 1.419892 5.4999998 5.4999998 0 0 0 .2109393-.01134 12.5 12.5 0 0 1 -.00195.002 5.4999998 5.4999998 0 0 0 .066406-.0076 5.4999998 5.4999998 0 0 0 .4492188-.0412 5.4999998 5.4999998 0 0 0 .080077-.01134 5.4999998 5.4999998 0 0 0 .4648437-.08806 5.4999998 5.4999998 0 0 0 .115234-.02646 13.5 13.5 0 0 0 .00195-.0038 5.4999998 5.4999998 0 0 0 2.2949222-1.236321 5.4999998 5.4999998 0 0 0 .0059-.0076 5.4999998 5.4999998 0 0 0 .382806-.38272 5.4999998 5.4999998 0 0 0 .339844-.414085 5.4999998 5.4999998 0 0 0 1.089803-3.2753007 5.4999998 5.4999998 0 0 0 -1.082031-3.2656251 5.4999998 5.4999998 0 0 0 -.0059-.00756 5.4999998 5.4999998 0 0 0 -.330077-.404296 5.4999998 5.4999998 0 0 0 -.01172-.015118 5.4999998 5.4999998 0 0 0 -.02147-.022677 5.4999998 5.4999998 0 0 0 -.359376-.3575433 5.4999998 5.4999998 0 0 0 -.0098-.011339 5.4999998 5.4999998 0 0 0 -3.6795964-1.4198962zm0 .9999874a4.4999999 4.4999999 0 0 1 .6601561.0548031 12.5 12.5 0 0 1 .3164069.8964661 12.5 12.5 0 0 1 -.9765626.0487559 12.5 12.5 0 0 1 -.9785155-.0430866 12.5 12.5 0 0 1 .3261732-.9062173 4.4999999 4.4999999 0 0 1 .6523438-.0506456zm1.8261717.3925795a4.4999999 4.4999999 0 0 1 .6289062.343937 12.5 12.5 0 0 1 -.4785154.0899527 13.5 13.5 0 0 0 -.1503912-.4335874zm-3.6699216.0113386a13.5 13.5 0 0 0 -.1367206.4336252 12.5 12.5 0 0 1 -.4707031-.1035591 4.4999999 4.4999999 0 0 1 .6074218-.3299527zm-1.5351564 1.1308724a13.5 13.5 0 0 0 1.1523439.2657008 13.5 13.5 0 0 0 -.2480466 2.201159h-1.9941409a4.4999999 4.4999999 0 0 1 1.0898436-2.4667842zm6.7636724.015118a4.4999999 4.4999999 0 0 1 1.082031 2.4511749h-1.9921878a13.5 13.5 0 0 0 -.2460926-2.1894425 13.5 13.5 0 0 0 1.1562504-.2619213zm-2.1660163.3836977a12.5 12.5 0 0 1 .2558589 2.0663811h-2.9472649a12.5 12.5 0 0 1 .2519546-2.0624882 13.5 13.5 0 0 0 1.2207031.062362 13.5 13.5 0 0 0 1.2187498-.06652zm-5.6855466 3.0664063h1.9941407a13.5 13.5 0 0 0 .2578129 2.1874775 13.5 13.5 0 0 0 -1.1699217.263811 4.4999999 4.4999999 0 0 1 -1.0820312-2.4511751zm2.9921873 0h2.949219a12.5 12.5 0 0 1 -.2441424 2.0624885 13.5 13.5 0 0 0 -1.2304686-.062363 13.5 13.5 0 0 0 -1.2285158.06652 12.5 12.5 0 0 1 -.2460926-2.066381zm3.9472656 0h1.996094a4.4999999 4.4999999 0 0 1 -1.089844 2.4667845 13.5 13.5 0 0 0 -1.1660154-.267591 13.5 13.5 0 0 0 .2597654-2.1991935zm-2.4726561 2.9999995a12.5 12.5 0 0 1 .9804688.04309 12.5 12.5 0 0 1 -.3242193.906217 4.4999999 4.4999999 0 0 1 -.6562499.05065 4.4999999 4.4999999 0 0 1 -.6660155-.05669 12.5 12.5 0 0 1 -.3124989-.894501 12.5 12.5 0 0 1 .9785148-.04876zm1.9902345.165922a12.5 12.5 0 0 1 .4609372.101669 4.4999999 4.4999999 0 0 1 -.595703.324283 13.5 13.5 0 0 0 .1347666-.425801zm-3.9765625.0076a13.5 13.5 0 0 0 .1503911.427728 4.4999999 4.4999999 0 0 1 -.6191402-.33978 12.5 12.5 0 0 1 .4687498-.08806z" fill="#797774" stroke-width="3.779527"/></svg>