<svg viewBox="0 0 16 16" xmlns="http://www.w3.org/2000/svg"><path d="m1 8c-.554 0-1 .446-1 1v6c0 .554.446 1 1 1h12c.554 0 1-.446 1-1v-6c0-.554-.446-1-1-1h-2-1-6-1zm0 1h12v6h-12z" fill="#ed8733"/><path d="m1 9h12v6h-12z" fill="#f8db8f"/><path d="m7 9c-1.1045695 0-2 .8954305-2 2v.5 1.5 1.5c0 .277.223.5.5.5h2c.277 0 .5-.223.5-.5v-1.5-.5l1-.5v-1c0-1.1045695-.8954305-2-2-2z" fill="#ed8733"/><path d="m7 10c-.5522847 0-1 .447715-1 1v3h1v-1.5l1-.5v-1c0-.552285-.4477153-1-1-1z" fill="#fafafa"/><path d="m12 0a4 4 0 0 0 -4 4v4h1v-4a3 3 0 0 1 3-3 3 3 0 0 1 3 3v4h1v-4a4 4 0 0 0 -4-4z" fill="#ed8733"/></svg>