<svg viewBox="0 0 16 16" xmlns="http://www.w3.org/2000/svg"><path d="m2 1v10h8v-10z" fill="#fafafa"/><path d="m2 0c-.554 0-1 .446-1 1v10c0 .554.446 1 1 1h8c.554 0 1-.446 1-1v-10c0-.554-.446-1-1-1zm0 1h8v10h-8z" fill="#3a3a38"/><path d="m4 3v10h8v-10z" fill="#fafafa"/><path d="m4 2c-.554 0-1 .446-1 1v10c0 .554.446 1 1 1h8c.554 0 1-.446 1-1v-10c0-.554-.446-1-1-1zm0 1h8v10h-8z" fill="#3a3a38"/><path d="m6 4c-.554 0-1 .446-1 1v10c0 .554.446 1 1 1h8c.554 0 1-.446 1-1v-10c0-.554-.446-1-1-1zm0 1h8v10h-8z" fill="#3a3a38"/><path d="m6 5v10h8v-10z" fill="#fafafa"/></svg>