<svg viewBox="0 0 16 16" xmlns="http://www.w3.org/2000/svg">/&amp;gt;<path d="m3 1v14h10v-11.2949219l-2.695312-2.7050781z" fill="#fafafa"/><path d="m3 0c-.554 0-1 .446-1 1v14c0 .554.446 1 1 1h2 1.0292969 2.9433593 2.0273438 2c.554 0 1-.446 1-1v-.800781-.199219-2-7.5-.8632812l-3.636719-3.6367188h-.863281zm0 1h6v3.5c0 .277.223.5.5.5h3.5v7 2 .0918.9082h-2-.740234-4.0585941-1.2011719-2zm7 0 3 3h-3z" fill="#3a3a38"/><path d="m3.0000174 7.0000003h.8509446q.1279198 0 .2169075.063926.094549.058598.1223581.1598178l1.4182411 4.8318121q.077864.255707.144605.596651.033371-.165145.072303-.314307.038932-.15449.083426-.287671l1.6295871-4.8211569q.027808-.090563.1223574-.1598178.09455-.069254.2224689-.069254h.2947722q.1334816 0 .2169073.063926.088987.058598.1223582.1598178l1.6295872 4.8318123q.04449.127854.08343.277016.03893.143836.0723.303652.03338-.159816.06674-.308979.03337-.149162.0723-.271689l1.412672-4.8264843q.02781-.0905633.122359-.1598178.100111-.0692545.228031-.0692545l.795327.0000003-2.21913 6.9999997h-.9176852l-1.7575097-5.3059359q-.027808-.074582-.055617-.159817-.022242-.090563-.050058-.1917813-.022242.1012184-.050058.1917813-.02225.085235-.050058.159817l-1.7686301 5.3059359h-.9121238l-2.2191302-6.9999997z" fill="#fb983b"/></svg>