<svg viewBox="0 0 16 16" xmlns="http://www.w3.org/2000/svg">/&amp;gt;<path d="m4 0v.02148438l-3.625 3.62500002-.35351562.3535156h-.02148438v12h1 11l.353516-.353516 3.646484-3.646484v-.216797-1.197265-9.585938-.29296875-.70703125h-11.9785156zm1 1h9.292969l-3 3h-.292969-6zm-1 .4355469v2.5644531h-.4140625-.171875-1.9785156zm11 .2714843v9.2929688h-3v-6.2929688l.353516-.3535156zm-14 3.2929688h1.4140625.59375.9921875v6 .5l-3 3zm4 0h6v6h-6zm0 7h6v3h-9zm7 0h2.585938l-2.585938 2.585938z" fill="#1e8bcd"/></svg>