<svg height="16" viewBox="0 0 4.2333332 4.2333335" width="16" xmlns="http://www.w3.org/2000/svg"><g stroke-width=".264583" transform="translate(0 -292.76665)"><path d="m1.5875 292.76667a1.5875 1.5875 0 0 0 -1.5875 1.5875 1.5875 1.5875 0 0 0 1.5875 1.5875 1.5875 1.5875 0 0 0 .9193237-.29456l1.2324828 1.23197c.051824.0518.1352452.0518.1870689 0l.1870686-.18707c.051824-.0518.051824-.13525 0-.18707l-1.2329996-1.23248a1.5875 1.5875 0 0 0 .2945556-.91829 1.5875 1.5875 0 0 0 -1.5875-1.5875zm-.5291667.26458h.2645834a.26460979.26460979 0 0 1 .082166.014.26460979.26460979 0 0 1 .0005159 0 1.3227219 1.3227219 0 0 1 .1819014-.014 1.3227219 1.3227219 0 0 1 .8366414.29921l-.3503662.35036a.26460979.26460979 0 0 1 .042892.14418v.18707l.4945434-.49454a1.3227219 1.3227219 0 0 1 .2992066.83664 1.3227219 1.3227219 0 0 1 -.055294.37517c.032386.0439.055288.0953.055294.15399v.26459c-.0000149.14612-.1184643.26457-.2645837.26458h-.2671673a1.3227219 1.3227219 0 0 1 -.7911662.26458 1.3227219 1.3227219 0 0 1 -.83664145-.2992l.49454345-.49455h-.1870687a.26460979.26460979 0 0 1 -.14417722-.0429l-.3503662.35037a1.3227219 1.3227219 0 0 1 -.29920655-.83664 1.3227219 1.3227219 0 0 1 .0139527-.18087.26460979.26460979 0 0 1 -.0139527-.0837v-.26459a.26460979.26460979 0 0 1 .26458334-.26458h.002066a1.3227219 1.3227219 0 0 1 .26251733-.26304v-.002a.26460979.26460979 0 0 1 .2645833-.26458zm.5291667 1.32292v.18707l.1870687-.18707zm.9596313.90847a1.3227219 1.3227219 0 0 1 -.031006.0331 1.3227219 1.3227219 0 0 0 .031006-.0331z" fill="#3a3a38"/><g fill="#1e8bcd"><path d="m1.5875 294.88333h1.0583333v.26459h-1.0583333z"/><path d="m1.0583333 293.29583v.52917h-.52916663v.26458h.52916663v.52917h.2645834v-.52917h.5291666v-.26458h-.5291666v-.52917z"/></g></g></svg>