<svg viewBox="0 0 16 16" xmlns="http://www.w3.org/2000/svg"><g fill="#3a3a38" stroke-linecap="round" stroke-linejoin="round" stroke-width="1.000001" transform="matrix(1 0 0 -1 0 16)"><g fill="#3a3a38"><path d="m7.5 4h7c.277 0 .5.223.5.5s-.223.5-.5.5h-7c-.277 0-.5-.223-.5-.5s.223-.5.5-.5z"/><path d="m7.5 7h7c.277 0 .5.223.5.5s-.223.5-.5.5h-7c-.277 0-.5-.223-.5-.5s.223-.5.5-.5z"/><path d="m7.5 10h7c.277 0 .5.223.5.5s-.223.5-.5.5h-7c-.277 0-.5-.223-.5-.5s.223-.5.5-.5z"/></g><path d="m1.5 13h13c.277 0 .5.223.5.5s-.223.5-.5.5h-13c-.277 0-.5-.223-.5-.5s.223-.5.5-.5z" fill="#1e8bcd"/></g></svg>