<svg viewBox="0 0 32 32" xmlns="http://www.w3.org/2000/svg"><path d="m13 17v7h-2v-18h5.083025c1.078626 0 2.013436.130334 2.804429.391002.799981.260668 1.46064.6291986 1.981976 1.1055919.521335.4763933.907843 1.0561549 1.159522 1.7392849.260668.6741414.391002 1.4291802.391002 2.2651162 0 .826946-.139322 1.47207-.417966 2.1552-.269657.68313-.674142 1.276374-1.213456 1.779733-.530324.494371-1.190983.880879-1.981975 1.159524-.782004.269657-1.689848.404484-2.723532.404484zm0-2h3.083025c.629197.0015 1.186489-.08989 1.671871-.269657.485381-.179771.889866-.43145 1.213455-.755039.332577-.323587.579762-.651621.741555-1.101049.170783-.449428.256175-.833884.256175-1.373197 0-1.132558-.319094-1.9370463-.957281-2.5572564-.638188-.6292622-1.613446-.9438616-2.925775-.9438616l-3.083025.00006z" fill="#3a3a38" stroke-width=".77"/><g fill="#1e8bcd" fill-opacity=".992647" stroke-width="1.025978"><path d="m6 26h20v1h-20z"/><path d="m6 24h20v1h-20z"/></g></svg>