<svg height="32" viewBox="0 0 32 32" width="32" xmlns="http://www.w3.org/2000/svg"><g fill="#3a3a38" transform="matrix(1.0010925 0 0 1.0010925 3.98689 3.98689)"><path d="m13.567661 1.9918634c-2.74185 0-4.7448313.516274-6.0179125 1.5281707-1.2952139 1.0319336-2.0909077 2.3047365-2.3949239 3.8322734-.3251845 1.6686284.125439 2.9976335 1.3662715 4.0395835 1.2408326 1.04195 3.2852241 1.785963 6.1344019 2.211307a.10025366.10025366 0 0 1 .002 0l1.851969.286285a.10025366.10025366 0 0 1 .08292.118462l-.513339 2.679235c-.207209 1.05621-.655525 1.860924-1.346528 2.396898-.691003.535975-1.618.799625-2.7680821.799625-1.1500825 0-1.9816656-.262148-2.4738992-.81147-.4922551-.549324-.6238188-1.368356-.4166159-2.424541l.4876721-2.525233h-2.9003655l-.497544 2.564721c-.3543433 1.795095-.084277 3.111674.7937011 3.990224.8779785.87855 2.3885306 1.330733 4.5450248 1.330733 2.1564947 0 3.8517187-.449587 5.0939027-1.340605 1.241738-.890698 2.038416-2.223745 2.39295-4.017865v-.002l.462005-2.424539a.10025366.10025366 0 0 1 .0533-.07108c.168548-.08591.32736-.194063.475827-.323798a.10025366.10025366 0 0 1 0-.002c.4694-.39153.752863-.861637.858855-1.423529.106125-.562585.0073-1.022265-.294183-1.403785-.301794-.392545-.710813-.582442-1.259654-.582442-.549374 0-1.045906.191047-1.504479.582442-.25676.218134-.458227.454259-.606135.712752a.10025366.10025366 0 0 1 -.100694.04936l-1.8342-.268516a.10025366.10025366 0 0 1 -.002 0c-1.915318-.287765-3.3062248-.76945-4.177756-1.464939-.8715312-.6954877-1.2101164-1.6186979-.995088-2.7147733.2132295-1.0525846.701363-1.8595378 1.4610419-2.4028215a.10025366.10025366 0 0 1 .00197-.00197c.7766691-.5356245 1.9692781-.791731 3.5775821-.791731 1.608306.0000001 2.698008.2507991 3.273524.8015986.572998.5491057.778606 1.2644395.608109 2.0987669l-.140181.720649h2.900365l.150054-.7601366c.259199-1.2992067-.04444-2.4460481-.920062-3.4709617-.870554-.9946521-2.66892-1.51435-5.409804-1.51435z" stroke-width="1.010883"/><text transform="scale(.99086738 1.0092168)" x="-11.771915" y="22.286119"><tspan fill="#3a3a38" x="-11.771915" y="22.286119"/></text></g></svg>