<svg viewBox="0 0 32 32" xmlns="http://www.w3.org/2000/svg"><path d="m13.416092 6-4.0654335.0344529-.9577873 1.1409764-.5397609.8498364c-.0023.00356-.00677.00799-.00919.011489-.1140243.1696433-.1538861.3086451-.1538861.4570744 0 .1846323.082506.4052581.3353407.6867595.00179.00176.00283.00281.0046.0046l.7533689.8613204 1.3016462 1.21274-.05282.762555-.03216.08038-.000002 8.71253c0 1.774467.471039 3.00444 1.545782 3.844936 1.074744.840494 2.437389 1.339066 4.810285 1.339066 2.372567 0 4.093497-.463699 5.19319-1.309208 1.099692-.84551 1.355252-2.098997 1.450741-3.867032v-.693651l-.000006-8.372596-2.925325-3.5104653c-.257396-.2929948-.047765-.2123089.342232-.2113107l3.583093-.034453-.000002-2-4.065432.034453-.957787 1.1409764-.539762.8498364c-.0023.00356-.0068.00799-.0091.011489-.114024.1696431-.153889.3086448-.153889.4570741 0 .1846323.08251.4052581.335341.6867595.0017.00176.0028.00281.0046.0046l.753368.8613206 1.717645 1.280537-.05282.762555-.03216.08038.01198 8.369847-.0023.695947c.0038.933123-1.059513 1.66312-1.814112 2.114215-.755478.451691-1.739599.65001-2.827373.65001-1.075215 0-2.052949-.188275-2.796649-.594885-.743703-.406611-1.558407-1.142218-1.559565-2.069467l-.011983-9.596368-2.5092321-3.4935163c-.2573959-.2929948-.0477651-.2123089.3422318-.2113107l3.5830943-.034453z" fill="#3a3a38" stroke-width="1.082477"/><path d="m8 27h16v1h-16z" fill="#1e8bcd" fill-opacity=".992647" stroke-width=".917663"/></svg>