<svg viewBox="0 0 24 24" xmlns="http://www.w3.org/2000/svg"><path d="m5 4c-.554 0-1 .446-1 1v16c0 .554.446 1 1 1h14c.554 0 1-.446 1-1v-16c0-.554-.446-1-1-1h-2v3h-10v-3z" fill="#ed8733"/><path d="m12 2c-1.1046 0-2 .89543-2 2h-2v2h8v-2h-2c0-.13807-.005-.27605-.03125-.40625-.18649-.91137-1.00215-1.59375-1.96875-1.59375zm0 1c.41421 0 .75444.26608.90625.625.0506.11964.09375.23693.09375.375 0 .55228-.44771 1-1 1s-1-.44772-1-1 .44771-1 1-1z" fill="#3a3a38"/><path d="m6 5c-.554 0-1 .446-1 1v14c0 .554.446 1 1 1h12c.554 0 1-.446 1-1v-14c0-.554-.446-1-1-1h-1v2h-10v-2z" fill="#f8db8f"/><path d="m6 6h12v15h-12z" fill="#fafafa"/><rect fill="#3a3a38" height="1" ry=".5" width="5" x="13" y="17"/><path d="m7.0000005 14c-.554 0-1 .446-1 1v4c0 .554.446 1 1 1h3.9999995c.554 0 1-.446 1-1v-4c0-.554-.446-1-1-1zm0 1h3.9999995v4h-3.9999995z" fill="#1e8bcd"/><path d="m6.5050675 16.500022 2.00015 1.999986 4.0002975-4.999966" fill="none" stroke="#18ab50" stroke-linecap="round" stroke-linejoin="round" stroke-width="1.000034"/><rect fill="#3a3a38" height="1" ry=".5" width="5" x="13" y="10"/><path d="m7.0000005 7c-.554 0-1 .446-1 1v4c0 .554.446 1 1 1h3.9999995c.554 0 1-.446 1-1v-4c0-.554-.446-1-1-1zm0 1h3.9999995v4h-3.9999995z" fill="#1e8bcd"/><path d="m6.5050675 9.500022 2.00015 1.999986 4.0002975-4.999966" fill="none" stroke="#18ab50" stroke-linecap="round" stroke-linejoin="round" stroke-width="1.000034"/></svg>