<svg viewBox="0 0 24 24" xmlns="http://www.w3.org/2000/svg"><path d="m1 4c-.554 0-1 .446-1 1v16c0 .554.446 1 1 1h6.0292969c-.0113928-.341236.0582409-.684596.2324219-1h-6.2617188v-16h5v-1zm17 0v1h5v2.0039062c-.01986-.0000342-.038621-.0044778-.058594-.0039062.385023-.0110191.746083.0965328 1.058594.28125v-2.28125c0-.554-.446-1-1-1zm6 9.099609c-.34949.523034-.670321.99751-1 1.460938v6.439453h-5.240234c-.043617.146964-.102899.295992-.183594.447266-.094366.177364-.2151.338783-.357422.480468-.025777.025595-.05577.047107-.082031.072266h5.863281c.554 0 1-.446 1-1zm-1.644531 2.304688c-.09134.117997-.181622.236969-.277344.355469.094586-.11784.186994-.238096.277344-.355469zm-.898438 1.083984c-.227123.257331-.474951.526351-.740234.800781.262067-.272161.516444-.546022.740234-.800781zm-1.3125 1.384766c-.522801.510859-1.095612 1.046335-1.80664 1.666015.710329-.619071 1.287968-1.158066 1.80664-1.666015zm-2.28125 1.857422c.00847.227663.007516.468505-.011719.71289.019456-.244961.020206-.484773.011719-.71289z" fill="#ed8733"/><path d="m1 5v16h6.2792969c.044411-.078108.0735055-.160505.1308593-.234375a1.0005291 1.0005291 0 0 0 .0019532 0l.5957031-.765625h-6.0078125v-14h4v-1zm17 0v1h4v1.2753906c.287219-.1664149.608882-.2655952.941406-.2753906.019973-.0005716.038734.003872.058594.0039062v-2.0039062zm5 9.541016c-.777575 1.096823-1.594719 2.102899-2.894531 3.371093.763684-.742705 1.377286-1.401824 1.894531-2.033203v4.121094h-4.134766c.005897.32016-.001962.65124-.105468 1h5.240234zm-3.207031 3.671875c-.433322.412067-.900942.843227-1.455078 1.326171.554925-.483632 1.021521-.91507 1.455078-1.326171z" fill="#f8db8f"/><path d="m2 6v14h6.0078125l.65625-.841797a1.0005291 1.0005291 0 0 1 .0195313-.027344 1.0005291 1.0005291 0 0 1 .0390624-.054687c.4058123-.510347.8049482-1.169538 1.6464848-1.853516.877094-.712879 1.866898-1.003334 2.716797-1.148437 2.918303-3.53659 4.636447-6.1347256 8.851562-8.7695315.019643-.0123114.042484-.0176993.0625-.0292969v-1.2753906h-4v2h-12v-2zm20 9.878906c-.862587 1.052922-1.929771 2.150376-3.662109 3.660156-.132021.115418-.319281.114937-.47461.191407.003202.086073-.005585.18096-.003906.269531h4.140625z" fill="#fafafa"/><path d="m12 2c-1.1046 0-2 .89543-2 2h-3v3h10v-3h-3c0-.13807-.005-.27605-.03125-.40625-.18649-.91137-1.00215-1.59375-1.96875-1.59375zm0 1c.41421 0 .75444.26608.90625.625.0506.11964.09375.23693.09375.375 0 .55228-.44771 1-1 1s-1-.44772-1-1 .44771-1 1-1z" fill="#3a3a38"/><g transform="translate(1)"><path d="m22.970703 8c-.177888.00524-.351159.0578309-.501953.1523438-4.136759 2.5854742-5.701244 5.0459732-8.738281 8.7089842-.210813.253601-.283142.594786-.19336.91211.124699.43829.059151.585906.730469.896484.67132.310578 1.530176.423588 2.802734.361328.225039-.01109.439748-.0978.609376-.246094 3.574573-3.115338 4.182424-4.307327 6.15039-7.226562.11091-.165166.17007-.359644.169922-.558594v-2c-.000147-.5637669-.465761-1.0161281-1.029297-1zm.029297 1v2c-2 2.966753-2.49934 3.999053-5.978516 7.03125-2.365328.115723-2.379228-.03125-2.521484-.53125 3.032664-3.657737 4.5-6 8.5-8.5z" fill="#3a3a38" transform="translate(-1)"/><path d="m22 9v2c-2 2.966753-2.5 4-5.979176 7.032197-2.365328.115723-2.378568-.032197-2.520824-.532197 3.032664-3.657737 4.5-6 8.5-8.5z" fill="#fafafa"/><path d="m12.521484 18.03125c-.323926.05073-.668149.136039-.99414.259766-.326113.124095-.634239.287343-.888672.49414-.314064.255263-.429433.449978-.638672.714844l4.261719 1.419922c.192081-.135176.38609-.269973.537109-.419922.19996-.374848.180051-.969421.01758-1.433594v-.002c-.054184-.15472-.124008-.293657-.207033-.406203-.150368-.173668-.346757-.299663-.558594-.390625h-.002c-.212443-.09101-.440245-.147122-.654297-.18164-.428371-.06869-.799057-.05211-.873047-.05469z" fill="#fafafa"/><path d="m12.515625 17.017578c-.05035.000165-.100621.0041-.150391.01172-.773679.12116-1.638455.378043-2.365234.96875-.7182932.583809-1.0383516 1.127975-1.4941406 1.701172-.00197.0032-.00392.0065-.00586.0098l-1.2988275 1.669886c-.5164462.665161-.0432845 1.633465.7988281 1.634766h3c.01564-.000305.03126-.000925.04687-.002 1.790411-.084 3.417955-.751558 4.466797-1.792969.07164-.07132.132206-.152947.179687-.242188.28179-.528248.298157-1.043096.242188-1.53125-.05597-.488151-.191681-.954835-.511719-1.388671-.000664-.0013-.0013-.0026-.002-.0039-.411673-.551823-1.022934-.934666-1.613281-1.029296-.491722-.02811-.819751-.01448-1.292969-.0059zm.0059 1.013672c.147979.0052 1.48492-.06945 2.087891.626953.332098.450185.456066 1.341999.189453 1.841797-.151019.149949-.345028.284746-.537109.419922l-4.26176-1.419922c.209239-.264866.324608-.459581.638672-.714844.508867-.413594 1.23496-.65245 1.882812-.753906zm-3.1093746 2.152344 3.3242186 1.476562c-.545471.17759-1.125964.311206-1.736369.339844h-3l1.2988281-1.669922c.044164-.05554.072599-.09372.1132813-.146484z" fill="#0063b1"/><path d="m9.4121094 20.183594c-.040682.05276-.069117.09094-.1132813.146484l-1.2988281 1.669922h3c.610405-.02864 1.190857-.162254 1.736328-.339844z" fill="#83beec"/></g><path d="m5.859375 9.0234375c-.2665994 0-.5153014.0472013-.7480469.1445313-.2285137.0973299-.4283868.2412124-.5976562.4316406-.1650377.1861963-.2952482.4182966-.3925781.6933596-.0930983.275062-.1406251.588219-.140625.939453 0 .342771.0475267.64909.140625.919922.0973299.266599.2275404.495119.3925781.685547.1692694.186196.3691425.328451.5976562.425781.2327455.09733.4814475.144531.7480469.144531.2496724 0 .4902362-.047201.71875-.144531.2285137-.09733.4280614-.239585.6015625-.425781.1735012-.190428.3125008-.418948.4140625-.685547.1015617-.270832.1523438-.577151.1523438-.919922 0-.351234-.0491545-.664391-.1464844-.939453-.0930982-.275063-.2252619-.5071633-.3945313-.6933596-.1692694-.1904282-.368817-.3343107-.6015625-.4316406-.2285137-.09733-.4775412-.1445313-.7441406-.1445313zm5.478516.0878906c-.143879 0-.263999.0338548-.361329.1015625-.093098.0634761-.176107.1565766-.248046.2792969l-6.2656254 8.3984375h.4765625c.1227204 0 .2327482-.022133.3300781-.064453.09733-.046549.1835944-.134441.2597657-.265625l6.2968751-8.4492189zm-5.478516.640625c.1396473 0 .2718108.0289719.3945312.0839844.1269521.0507809.2353523.1354178.3242188.2539065.0930982.118488.164063.270834.2148438.457031.0550126.186196.0820312.414716.0820312.685547.0000001.262367-.0270186.485678-.0820312.671875-.0507808.181965-.1217456.331056-.2148438.445312-.0888665.114258-.1972667.195314-.3242188.246094-.1227204.05078-.2548839.076172-.3945312.076172s-.2698577-.025392-.3925781-.076172c-.1227204-.050781-.2311206-.131836-.3242188-.246094-.0888666-.114256-.1582037-.263347-.2089843-.445312-.0507807-.186197-.0761719-.409508-.0761719-.671875 0-.270831.0253912-.499351.0761719-.685547.0507808-.186197.1201179-.338543.2089843-.457031.0930982-.1184887.2014984-.2031258.3242188-.2539065.1227204-.0550127.2529308-.0839844.3925781-.0839844zm4.691406 3.8535159c-.266599 0-.515301.050782-.7480466.152343-.2285138.09733-.4283869.241212-.5976563.431641-.1692694.186196-.3030607.416344-.4003906.691406-.0930982.270832-.1386719.58236-.1386719.933594 0 .342771.0455737.649091.1386719.919922.0973299.270831.2311212.502931.4003906.693359.1522116.167433.3330861.291145.5332031.386719.1812715-.192535.3814358-.387982.6269528-.587891-.069482-.012655-.142263-.014215-.207031-.041015-.12272-.050781-.2311204-.13379-.3242186-.248047-.0888664-.114257-.1617842-.261395-.2167969-.443359-.0507807-.186197-.0761719-.413089-.0761719-.679688s.0253912-.493491.0761719-.679687c.0550126-.190429.1279304-.342775.2167969-.457032.0930982-.118489.2014986-.203126.3242186-.253906.12272-.055013.252931-.082031.392578-.082031.139648 0 .271811.027018.394531.082031.12272.050781.229168.135418.322266.253906.093099.114257.166017.266603.216797.457032.055013.186196.082031.413088.082031.679687s-.027018.493491-.082031.679688c-.007593.027208-.018805.048524-.027344.074218.318322-.144295.636346-.263785.947266-.345703.017889-.131185.03125-.264347.03125-.408203 0-.351234-.047201-.662762-.144531-.933594-.09733-.275062-.231122-.50521-.400391-.691406-.165038-.190429-.364911-.334311-.597656-.431641-.228514-.101561-.475588-.152343-.742188-.152343z" fill="#3a3a38"/></svg>