<svg class="railroad-diagram" height="155" viewBox="0 0 502.0 155" width="502.0" xmlns="http://www.w3.org/2000/svg">
<g transform="translate(.5 .5)">
<style>/* <![CDATA[ */
    svg.railroad-diagram {
        background-color:transparent;
    }
    svg.railroad-diagram path {
        stroke-width:1;
        stroke:black;
        fill:rgba(0,0,0,0);
    }
    svg.railroad-diagram text {
        font:bold 14px monospace;
        font-family: Verdana, sans-serif;
        text-anchor:middle;
    }
    svg.railroad-diagram text.label{
        text-anchor:start;
    }
    svg.railroad-diagram text.comment{
        font:italic 12px monospace;
    }
    svg.railroad-diagram rect{
        stroke-width:1;
        stroke:black;
        fill:transparent;
    }

/* ]]> */
</style><g>
<path d="M20 41v20m0 -10h20"></path></g><path d="M40 51h10"></path><g>
<path d="M50 51h0.0"></path><path d="M452.0 51h0.0"></path><g class="terminal">
<path d="M50.0 51h0.0"></path><path d="M78.5 51h0.0"></path><rect height="22" rx="10" ry="10" width="28.5" x="50.0" y="40"></rect><text x="64.25" y="55">(</text></g><path d="M78.5 51h10"></path><g>
<path d="M88.5 51h0.0"></path><path d="M413.5 51h0.0"></path><path d="M88.5 51a15 15 0 0 0 15 -15v-1a15 15 0 0 1 15 -15"></path><g>
<path d="M118.5 20h265.0"></path></g><path d="M383.5 20a15 15 0 0 1 15 15v1a15 15 0 0 0 15 15"></path><path d="M88.5 51h30"></path><g>
<path d="M118.5 51h0.0"></path><path d="M383.5 51h0.0"></path><path d="M118.5 51h15"></path><g>
<path d="M133.5 51h0.0"></path><path d="M368.5 51h0.0"></path><g>
<path d="M133.5 51h0.0"></path><path d="M313.0 51h0.0"></path><path d="M133.5 51h30"></path><g>
<path d="M163.5 51h119.5"></path></g><path d="M283.0 51h30"></path><path d="M133.5 51a15 15 0 0 1 15 15v1a15 15 0 0 0 15 15"></path><g>
<path d="M163.5 82h0.0"></path><path d="M283.0 82h0.0"></path><g class="terminal">
<path d="M163.5 82h0.0"></path><path d="M226.0 82h0.0"></path><rect height="22" rx="10" ry="10" width="62.5" x="163.5" y="71"></rect><text x="194.75" y="86">start</text></g><path d="M226.0 82h10"></path><path d="M236.0 82h10"></path><g class="terminal">
<path d="M246.0 82h0.0"></path><path d="M283.0 82h0.0"></path><rect height="22" rx="10" ry="10" width="37.0" x="246.0" y="71"></rect><text x="264.5" y="86">To</text></g></g><path d="M283.0 82a15 15 0 0 0 15 -15v-1a15 15 0 0 1 15 -15"></path></g><path d="M313.0 51h10"></path><g class="terminal">
<path d="M323.0 51h0.0"></path><path d="M368.5 51h0.0"></path><rect height="22" rx="10" ry="10" width="45.5" x="323.0" y="40"></rect><text x="345.75" y="55">end</text></g></g><path d="M368.5 51h15"></path><path d="M133.5 51a15 15 0 0 0 -15 15v43a15 15 0 0 0 15 15"></path><g class="terminal">
<path d="M133.5 124h103.25"></path><path d="M265.25 124h103.25"></path><rect height="22" rx="10" ry="10" width="28.5" x="236.75" y="113"></rect><text x="251.0" y="128">,</text></g><path d="M368.5 124a15 15 0 0 0 15 -15v-43a15 15 0 0 0 -15 -15"></path></g><path d="M383.5 51h30"></path></g><path d="M413.5 51h10"></path><g class="terminal">
<path d="M423.5 51h0.0"></path><path d="M452.0 51h0.0"></path><rect height="22" rx="10" ry="10" width="28.5" x="423.5" y="40"></rect><text x="437.75" y="55">)</text></g></g><path d="M452.0 51h10"></path><path d="M 462.0 51 h 20 m 0 -10 v 20"></path></g></svg>