<svg class="railroad-diagram" height="82" viewBox="0 0 533.5 82" width="533.5" xmlns="http://www.w3.org/2000/svg">
<g transform="translate(.5 .5)">
<style>/* <![CDATA[ */
    svg.railroad-diagram {
        background-color:transparent;
    }
    svg.railroad-diagram path {
        stroke-width:1;
        stroke:black;
        fill:rgba(0,0,0,0);
    }
    svg.railroad-diagram text {
        font:bold 14px monospace;
        font-family: Verdana, sans-serif;
        text-anchor:middle;
    }
    svg.railroad-diagram text.label{
        text-anchor:start;
    }
    svg.railroad-diagram text.comment{
        font:italic 12px monospace;
    }
    svg.railroad-diagram rect{
        stroke-width:1;
        stroke:black;
        fill:transparent;
    }

/* ]]> */
</style><g>
<path d="M20 21v20m10 -20v20m-10 -10h20"></path></g><path d="M40 31h10"></path><g class="terminal">
<path d="M50 31h0.0"></path><path d="M104.0 31h0.0"></path><rect height="22" rx="10" ry="10" width="54.0" x="50.0" y="20"></rect><text x="77.0" y="35">Enum</text></g><path d="M104.0 31h10"></path><path d="M114.0 31h10"></path><g class="terminal">
<path d="M124.0 31h0.0"></path><path d="M220.5 31h0.0"></path><rect height="22" rx="10" ry="10" width="96.5" x="124.0" y="20"></rect><text x="172.25" y="35">list&#95;name</text></g><path d="M220.5 31h10"></path><path d="M230.5 31h10"></path><g>
<path d="M240.5 31h0.0"></path><path d="M375.5 31h0.0"></path><path d="M240.5 31h15"></path><g class="terminal">
<path d="M255.5 31h0.0"></path><path d="M360.5 31h0.0"></path><rect height="22" rx="10" ry="10" width="105.0" x="255.5" y="20"></rect><text x="308.0" y="35">assignment</text></g><path d="M360.5 31h15"></path><path d="M255.5 31a15 15 0 0 0 -15 15v1a15 15 0 0 0 15 15"></path><g>
<path d="M255.5 62h105.0"></path></g><path d="M360.5 62a15 15 0 0 0 15 -15v-1a15 15 0 0 0 -15 -15"></path></g><path d="M375.5 31h10"></path><path d="M385.5 31h10"></path><g class="terminal">
<path d="M395.5 31h0.0"></path><path d="M483.5 31h0.0"></path><rect height="22" rx="10" ry="10" width="88.0" x="395.5" y="20"></rect><text x="439.5" y="35">End Enum</text></g><path d="M483.5 31h10"></path><path d="M 493.5 31 h 20 m -10 -10 v 20 m 10 -20 v 20"></path></g></svg>