<svg class="railroad-diagram" height="124" viewBox="0 0 825.5 124" width="825.5" xmlns="http://www.w3.org/2000/svg">
<g transform="translate(.5 .5)">
<style>/* <![CDATA[ */
    svg.railroad-diagram {
        background-color:transparent;
    }
    svg.railroad-diagram path {
        stroke-width:1;
        stroke:black;
        fill:rgba(0,0,0,0);
    }
    svg.railroad-diagram text {
        font:bold 14px monospace;
        font-family: Verdana, sans-serif;
        text-anchor:middle;
    }
    svg.railroad-diagram text.label{
        text-anchor:start;
    }
    svg.railroad-diagram text.comment{
        font:italic 12px monospace;
    }
    svg.railroad-diagram rect{
        stroke-width:1;
        stroke:black;
        fill:transparent;
    }

/* ]]> */
</style><g>
<path d="M20 41v20m10 -20v20m-10 -10h20"></path></g><path d="M40 51h10"></path><g class="terminal">
<path d="M50 51h0.0"></path><path d="M87.0 51h0.0"></path><rect height="22" rx="10" ry="10" width="37.0" x="50.0" y="40"></rect><text x="68.5" y="55">If</text></g><path d="M87.0 51h10"></path><path d="M97.0 51h10"></path><g class="terminal">
<path d="M107.0 51h0.0"></path><path d="M203.5 51h0.0"></path><rect height="22" rx="10" ry="10" width="96.5" x="107.0" y="40"></rect><text x="155.25" y="55">condition</text></g><path d="M203.5 51h10"></path><path d="M213.5 51h10"></path><g class="terminal">
<path d="M223.5 51h0.0"></path><path d="M277.5 51h0.0"></path><rect height="22" rx="10" ry="10" width="54.0" x="223.5" y="40"></rect><text x="250.5" y="55">Then</text></g><path d="M277.5 51h10"></path><path d="M287.5 51h10"></path><g class="terminal">
<path d="M297.5 51h0.0"></path><path d="M402.5 51h0.0"></path><rect height="22" rx="10" ry="10" width="105.0" x="297.5" y="40"></rect><text x="350.0" y="55">statements</text></g><path d="M402.5 51h10"></path><g>
<path d="M412.5 51h0.0"></path><path d="M594.5 51h0.0"></path><path d="M412.5 51h30"></path><g>
<path d="M442.5 51h122.0"></path></g><path d="M564.5 51h30"></path><path d="M412.5 51a15 15 0 0 1 15 15v1a15 15 0 0 0 15 15"></path><g class="non-terminal">
<path d="M442.5 82h0.0"></path><path d="M564.5 82h0.0"></path><rect height="22" width="122.0" x="442.5" y="71"></rect><text x="503.5" y="86">Else options</text></g><path d="M564.5 82a15 15 0 0 0 15 -15v-1a15 15 0 0 1 15 -15"></path></g><g>
<path d="M594.5 51h0.0"></path><path d="M785.5 51h0.0"></path><path d="M594.5 51a15 15 0 0 0 15 -15v-1a15 15 0 0 1 15 -15"></path><g>
<path d="M624.5 20h131.0"></path></g><path d="M755.5 20a15 15 0 0 1 15 15v1a15 15 0 0 0 15 15"></path><path d="M594.5 51h30"></path><g>
<path d="M624.5 51h0.0"></path><path d="M755.5 51h0.0"></path><path d="M624.5 51h30"></path><g class="terminal">
<path d="M654.5 51h4.25"></path><path d="M721.25 51h4.25"></path><rect height="22" rx="10" ry="10" width="62.5" x="658.75" y="40"></rect><text x="690.0" y="55">EndIf</text></g><path d="M725.5 51h30"></path><path d="M624.5 51a15 15 0 0 1 15 15v12a15 15 0 0 0 15 15"></path><g class="terminal">
<path d="M654.5 93h0.0"></path><path d="M725.5 93h0.0"></path><rect height="22" rx="10" ry="10" width="71.0" x="654.5" y="82"></rect><text x="690.0" y="97">End If</text></g><path d="M725.5 93a15 15 0 0 0 15 -15v-12a15 15 0 0 1 15 -15"></path></g><path d="M755.5 51h30"></path></g><path d="M 785.5 51 h 20 m -10 -10 v 20 m 10 -20 v 20"></path></g></svg>