<svg class="railroad-diagram" height="155" viewBox="0 0 668.5 155" width="668.5" xmlns="http://www.w3.org/2000/svg">
<g transform="translate(.5 .5)">
<style>/* <![CDATA[ */
    svg.railroad-diagram {
        background-color:transparent;
    }
    svg.railroad-diagram path {
        stroke-width:1;
        stroke:black;
        fill:rgba(0,0,0,0);
    }
    svg.railroad-diagram text {
        font:bold 14px monospace;
        font-family: Verdana, sans-serif;
        text-anchor:middle;
    }
    svg.railroad-diagram text.label{
        text-anchor:start;
    }
    svg.railroad-diagram text.comment{
        font:italic 12px monospace;
    }
    svg.railroad-diagram rect{
        stroke-width:1;
        stroke:black;
        fill:transparent;
    }

/* ]]> */
</style><g>
<path d="M20 41v20m10 -20v20m-10 -10h20"></path></g><path d="M40 51h10"></path><g>
<path d="M50 51h0.0"></path><path d="M618.5 51h0.0"></path><g>
<path d="M50.0 51h0.0"></path><path d="M215.5 51h0.0"></path><path d="M50.0 51a15 15 0 0 0 15 -15v-1a15 15 0 0 1 15 -15"></path><g>
<path d="M80.0 20h105.5"></path></g><path d="M185.5 20a15 15 0 0 1 15 15v1a15 15 0 0 0 15 15"></path><path d="M50.0 51h30"></path><g>
<path d="M80.0 51h0.0"></path><path d="M185.5 51h0.0"></path><path d="M80.0 51h30"></path><g class="terminal">
<path d="M110.0 51h0.0"></path><path d="M155.5 51h0.0"></path><rect height="22" rx="10" ry="10" width="45.5" x="110.0" y="40"></rect><text x="132.75" y="55">Let</text></g><path d="M155.5 51h30"></path><path d="M80.0 51a15 15 0 0 1 15 15v12a15 15 0 0 0 15 15"></path><g class="terminal">
<path d="M110.0 93h0.0"></path><path d="M155.5 93h0.0"></path><rect height="22" rx="10" ry="10" width="45.5" x="110.0" y="82"></rect><text x="132.75" y="97">Set</text></g><path d="M155.5 93a15 15 0 0 0 15 -15v-12a15 15 0 0 1 15 -15"></path></g><path d="M185.5 51h30"></path></g><path d="M215.5 51h10"></path><g class="terminal">
<path d="M225.5 51h0.0"></path><path d="M313.5 51h0.0"></path><rect height="22" rx="10" ry="10" width="88.0" x="225.5" y="40"></rect><text x="269.5" y="55">variable</text></g><path d="M313.5 51h10"></path><path d="M323.5 51h10"></path><g class="terminal">
<path d="M333.5 51h0.0"></path><path d="M362.0 51h0.0"></path><rect height="22" rx="10" ry="10" width="28.5" x="333.5" y="40"></rect><text x="347.75" y="55">=</text></g><path d="M362.0 51h10"></path><g>
<path d="M372.0 51h0.0"></path><path d="M618.5 51h0.0"></path><path d="M372.0 51h30"></path><g class="terminal">
<path d="M402.0 51h40.75"></path><path d="M547.75 51h40.75"></path><rect height="22" rx="10" ry="10" width="105.0" x="442.75" y="40"></rect><text x="495.25" y="55">expression</text></g><path d="M588.5 51h30"></path><path d="M372.0 51a15 15 0 0 1 15 15v12a15 15 0 0 0 15 15"></path><g>
<path d="M402.0 93h0.0"></path><path d="M588.5 93h0.0"></path><g>
<path d="M402.0 93h0.0"></path><path d="M507.5 93h0.0"></path><path d="M402.0 93h30"></path><g>
<path d="M432.0 93h45.5"></path></g><path d="M477.5 93h30"></path><path d="M402.0 93a15 15 0 0 1 15 15v1a15 15 0 0 0 15 15"></path><g class="terminal">
<path d="M432.0 124h0.0"></path><path d="M477.5 124h0.0"></path><rect height="22" rx="10" ry="10" width="45.5" x="432.0" y="113"></rect><text x="454.75" y="128">New</text></g><path d="M477.5 124a15 15 0 0 0 15 -15v-1a15 15 0 0 1 15 -15"></path></g><path d="M507.5 93h10"></path><g class="terminal">
<path d="M517.5 93h0.0"></path><path d="M588.5 93h0.0"></path><rect height="22" rx="10" ry="10" width="71.0" x="517.5" y="82"></rect><text x="553.0" y="97">object</text></g></g><path d="M588.5 93a15 15 0 0 0 15 -15v-12a15 15 0 0 1 15 -15"></path></g></g><path d="M618.5 51h10"></path><path d="M 628.5 51 h 20 m -10 -10 v 20 m 10 -20 v 20"></path></g></svg>