<svg class="railroad-diagram" height="62" viewBox="0 0 469.5 62" width="469.5" xmlns="http://www.w3.org/2000/svg">
<g transform="translate(.5 .5)">
<style>/* <![CDATA[ */
    svg.railroad-diagram {
        background-color:transparent;
    }
    svg.railroad-diagram path {
        stroke-width:1;
        stroke:black;
        fill:rgba(0,0,0,0);
    }
    svg.railroad-diagram text {
        font:bold 14px monospace;
        font-family: Verdana, sans-serif;
        text-anchor:middle;
    }
    svg.railroad-diagram text.label{
        text-anchor:start;
    }
    svg.railroad-diagram text.comment{
        font:italic 12px monospace;
    }
    svg.railroad-diagram rect{
        stroke-width:1;
        stroke:black;
        fill:transparent;
    }

/* ]]> */
</style><g>
<path d="M20 21v20m10 -20v20m-10 -10h20"></path></g><path d="M40 31h10"></path><g class="terminal">
<path d="M50 31h0.0"></path><path d="M155.0 31h0.0"></path><rect height="22" rx="10" ry="10" width="105.0" x="50.0" y="20"></rect><text x="102.5" y="35">Line Input</text></g><path d="M155.0 31h10"></path><path d="M165.0 31h10"></path><g class="terminal">
<path d="M175.0 31h0.0"></path><path d="M263.0 31h0.0"></path><rect height="22" rx="10" ry="10" width="88.0" x="175.0" y="20"></rect><text x="219.0" y="35">#fileNum</text></g><path d="M263.0 31h10"></path><path d="M273.0 31h10"></path><g class="terminal">
<path d="M283.0 31h0.0"></path><path d="M311.5 31h0.0"></path><rect height="22" rx="10" ry="10" width="28.5" x="283.0" y="20"></rect><text x="297.25" y="35">,</text></g><path d="M311.5 31h10"></path><path d="M321.5 31h10"></path><g class="terminal">
<path d="M331.5 31h0.0"></path><path d="M419.5 31h0.0"></path><rect height="22" rx="10" ry="10" width="88.0" x="331.5" y="20"></rect><text x="375.5" y="35">variable</text></g><path d="M419.5 31h10"></path><path d="M 429.5 31 h 20 m -10 -10 v 20 m 10 -20 v 20"></path></g></svg>