<svg class="railroad-diagram" height="166" viewBox="0 0 363.5 166" width="363.5" xmlns="http://www.w3.org/2000/svg">
<g transform="translate(.5 .5)">
<style>/* <![CDATA[ */
    svg.railroad-diagram {
        background-color:transparent;
    }
    svg.railroad-diagram path {
        stroke-width:1;
        stroke:black;
        fill:rgba(0,0,0,0);
    }
    svg.railroad-diagram text {
        font:bold 14px monospace;
        font-family: Verdana, sans-serif;
        text-anchor:middle;
    }
    svg.railroad-diagram text.label{
        text-anchor:start;
    }
    svg.railroad-diagram text.comment{
        font:italic 12px monospace;
    }
    svg.railroad-diagram rect{
        stroke-width:1;
        stroke:black;
        fill:transparent;
    }

/* ]]> */
</style><g>
<path d="M20 41v20m10 -20v20m-10 -10h20"></path></g><path d="M40 51h10"></path><g>
<path d="M50 51h0.0"></path><path d="M313.5 51h0.0"></path><g class="terminal">
<path d="M50.0 51h0.0"></path><path d="M121.0 51h0.0"></path><rect height="22" rx="10" ry="10" width="71.0" x="50.0" y="40"></rect><text x="85.5" y="55">Resume</text></g><path d="M121.0 51h10"></path><g>
<path d="M131.0 51h0.0"></path><path d="M313.5 51h0.0"></path><path d="M131.0 51a15 15 0 0 0 15 -15v-1a15 15 0 0 1 15 -15"></path><g>
<path d="M161.0 20h122.5"></path></g><path d="M283.5 20a15 15 0 0 1 15 15v1a15 15 0 0 0 15 15"></path><path d="M131.0 51h30"></path><g>
<path d="M161.0 51h0.0"></path><path d="M283.5 51h0.0"></path><path d="M161.0 51h30"></path><g class="terminal">
<path d="M191.0 51h17.0"></path><path d="M236.5 51h17.0"></path><rect height="22" rx="10" ry="10" width="28.5" x="208.0" y="40"></rect><text x="222.25" y="55">0</text></g><path d="M253.5 51h30"></path><path d="M161.0 51a15 15 0 0 1 15 15v12a15 15 0 0 0 15 15"></path><g class="terminal">
<path d="M191.0 93h4.25"></path><path d="M249.25 93h4.25"></path><rect height="22" rx="10" ry="10" width="54.0" x="195.25" y="82"></rect><text x="222.25" y="97">Next</text></g><path d="M253.5 93a15 15 0 0 0 15 -15v-12a15 15 0 0 1 15 -15"></path><path d="M161.0 51a15 15 0 0 1 15 15v54a15 15 0 0 0 15 15"></path><g class="non-terminal">
<path d="M191.0 135h0.0"></path><path d="M253.5 135h0.0"></path><rect height="22" width="62.5" x="191.0" y="124"></rect><text x="222.25" y="139">label</text></g><path d="M253.5 135a15 15 0 0 0 15 -15v-54a15 15 0 0 1 15 -15"></path></g><path d="M283.5 51h30"></path></g></g><path d="M313.5 51h10"></path><path d="M 323.5 51 h 20 m -10 -10 v 20 m 10 -20 v 20"></path></g></svg>