<svg class="railroad-diagram" height="62" viewBox="0 0 478.0 62" width="478.0" xmlns="http://www.w3.org/2000/svg">
<g transform="translate(.5 .5)">
<style>/* <![CDATA[ */
    svg.railroad-diagram {
        background-color:transparent;
    }
    svg.railroad-diagram path {
        stroke-width:1;
        stroke:black;
        fill:rgba(0,0,0,0);
    }
    svg.railroad-diagram text {
        font:bold 14px monospace;
        font-family: Verdana, sans-serif;
        text-anchor:middle;
    }
    svg.railroad-diagram text.label{
        text-anchor:start;
    }
    svg.railroad-diagram text.comment{
        font:italic 12px monospace;
    }
    svg.railroad-diagram rect{
        stroke-width:1;
        stroke:black;
        fill:transparent;
    }

/* ]]> */
</style><g>
<path d="M20 21v20m10 -20v20m-10 -10h20"></path></g><path d="M40 31h10"></path><g class="terminal">
<path d="M50 31h0.0"></path><path d="M112.5 31h0.0"></path><rect height="22" rx="10" ry="10" width="62.5" x="50.0" y="20"></rect><text x="81.25" y="35">While</text></g><path d="M112.5 31h10"></path><path d="M122.5 31h10"></path><g class="terminal">
<path d="M132.5 31h0.0"></path><path d="M229.0 31h0.0"></path><rect height="22" rx="10" ry="10" width="96.5" x="132.5" y="20"></rect><text x="180.75" y="35">condition</text></g><path d="M229.0 31h10"></path><path d="M239.0 31h10"></path><g class="non-terminal">
<path d="M249.0 31h0.0"></path><path d="M354.0 31h0.0"></path><rect height="22" width="105.0" x="249.0" y="20"></rect><text x="301.5" y="35">statements</text></g><path d="M354.0 31h10"></path><path d="M364.0 31h10"></path><g class="terminal">
<path d="M374.0 31h0.0"></path><path d="M428.0 31h0.0"></path><rect height="22" rx="10" ry="10" width="54.0" x="374.0" y="20"></rect><text x="401.0" y="35">Wend</text></g><path d="M428.0 31h10"></path><path d="M 438.0 31 h 20 m -10 -10 v 20 m 10 -20 v 20"></path></g></svg>