<svg viewBox="0 0 24 24" xmlns="http://www.w3.org/2000/svg"><path d="m8.8066406 3.359375a.51587393.51587393 0 0 0 -.4882812.3671875l-1.5761719 5.2578125h-5.2421875a.51587393.51587393 0 0 0 -.3085938.9277344l4.2382813 3.1796876-1.0605469 5.306641a.51587393.51587393 0 0 0 .8417969.49414l3.640625-3.121094 3.1484375 2.097657v-.869141a1.0001 1.0001 0 0 1 .802734-.980469l.28125-.05664-.158203-.236329a1.0001 1.0001 0 0 1 .125-1.261718l.117188-.117188-.390625-1.298828 3.683594-3.1562499a.51587393.51587393 0 0 0 -.335938-.9082031h-4.712891l-2.1210934-5.3007812a.51587393.51587393 0 0 0 -.484375-.3242188z" fill="#ed8733"/><path d="m12 5 .5 1h8.5v-1zm1 2 .5 1h8.5v-1zm5 2 .5 1h4.5v-1zm-1 2-1 1h1 2 4v-1zm3.019531 2 .017578.083984.125-.083984zm1.458985 0a1.0001 1.0001 0 0 1 .05664.050781l.464844.464844v-.515625zm-5.503907.025391-.039062.039062.027344.019531zm7.025391 2.814453c-.024332.037665-.051199.079166-.085938.130859.036564.00576.062407.011103.085938.015625z" fill="#fb983b"/><path d="m8.8808594 5.4101562-1.2714844 4.2363282a.50655745.50655745 0 0 1 -.484375.3593746h-4.1074219l3.2871094 2.464844a.50655745.50655745 0 0 1 .1914063.503906l-.8378907 4.185547 2.8242188-2.419922a.50655745.50655745 0 0 1 .6113281-.037109l2.960938 1.974609a1.0001 1.0001 0 0 1 .564453-.601562l-.916016-3.054688a.50655745.50655745 0 0 1 .154297-.53125l2.898437-2.484375h-3.693359a.50655745.50655745 0 0 1 -.470703-.318359z" fill="#f8db8f"/><path d="m17 13-.349609 1.744141-1.478516-.986329-.707031.707032-.707032.707031.986329 1.478516-1.744141.349609v1 1l1.744141.349609-.986329 1.478516.707032.707031.707031.707032 1.478516-.986329.349609 1.744141h1 1l.349609-1.744141 1.478516.986329.707031-.707032.707032-.707031-.986329-1.478516 1.744141-.349609v-1-1l-1.744141-.349609.986329-1.478516-.707032-.707031-.707031-.707032-1.478516.986329-.349609-1.744141h-1zm.800781 1h.398438l.300781 1.5h.535156l.378906.378906 1.273438-.847656.28125.28125-.847656 1.273438.378906.378906v.535156l1.5.300781v.398438l-1.5.300781v.535156l-.378906.378906.847656 1.273438-.28125.28125-1.273438-.847656-.378906.378906h-.535156l-.300781 1.5h-.398438l-.300781-1.5h-.535156l-.378906-.378906-1.273438.847656-.28125-.28125.847656-1.273438-.378906-.378906v-.535156l-1.5-.300781v-.398438l1.5-.300781v-.535156l.378906-.378906-.847656-1.273438.28125-.28125 1.273438.847656.378906-.378906h.535156zm.199219 2a2 2 0 0 0 -2 2 2 2 0 0 0 2 2 2 2 0 0 0 2-2 2 2 0 0 0 -2-2zm0 1a1 1 0 0 1 1 1 1 1 0 0 1 -1 1 1 1 0 0 1 -1-1 1 1 0 0 1 1-1z" fill="#1e8bcd"/><path d="m17.800781 14h.398438l.300781 1.5h.535156l.378906.378906 1.273438-.847656.28125.28125-.847656 1.273438.378906.378906v.535156l1.5.300781v.398438l-1.5.300781v.535156l-.378906.378906.847656 1.273438-.28125.28125-1.273438-.847656-.378906.378906h-.535156l-.300781 1.5h-.398438l-.300781-1.5h-.535156l-.378906-.378906-1.273438.847656-.28125-.28125.847656-1.273438-.378906-.378906v-.535156l-1.5-.300781v-.398438l1.5-.300781v-.535156l.378906-.378906-.847656-1.273438.28125-.28125 1.273438.847656.378906-.378906h.535156zm.199219 2c-1.104569 0-2 .895431-2 2s.895431 2 2 2 2-.895431 2-2-.895431-2-2-2z" fill="#fafafa"/></svg>