<svg viewBox="0 0 24 24" xmlns="http://www.w3.org/2000/svg"><path d="m5.9121094 4a1.5 1.5 0 0 1 .0878906.5 1.5 1.5 0 0 1 -.0878906.5h4.0878906v-1zm8.0878906 0v1h4.087891a1.5 1.5 0 0 1 -.087891-.5 1.5 1.5 0 0 1 .087891-.5z" fill="#1e8bcd"/><path d="m10 4.2675781c-4.2837632 1.7584283-7.5 9.0228759-7.5 17.7324219h1.1875c0-7.947696 2.6895231-14.5976154 6.3125-16.4238281zm4 0v1.3085938c3.622977 1.8262127 6.3125 8.4761321 6.3125 16.4238281h1.1875c0-8.709546-3.216237-15.9739936-7.5-17.7324219z" fill="#3a3a38"/><path d="m10 2c-.554 0-1 .446-1 1v4c0 .554.446 1 1 1h4c.554 0 1-.446 1-1v-4c0-.554-.446-1-1-1zm0 1h4v4h-4z" fill="#1e8bcd"/><g fill="none" stroke="#1e8bcd" stroke-linecap="round" stroke-linejoin="round"><circle cx="4.5" cy="4.5" r="2"/><circle cx="19.5" cy="4.5" r="2"/></g></svg>