<svg viewBox="0 0 24 24" xmlns="http://www.w3.org/2000/svg"><path d="m8.9746094 2.2226562a1 1 0 0 1 -.8203125.765625l12.8710941 13.7890628a1 1 0 0 1 .820312-.765625z" fill="#3a3a38"/><path d="m23.499999 17c.000558.828266-.671178 1.500001-1.5 1.500001-.828819 0-1.500556-.671735-1.499999-1.500001-.000557-.828263.67118-1.499999 1.499999-1.499999.828822 0 1.500558.671736 1.5 1.499999z" fill="none" stroke="#1e8bcd"/><path d="m9.4999993 2c.000558.828266-.671178 1.500001-1.5 1.500001-.828819 0-1.500556-.671735-1.499999-1.500001-.000557-.828263.67118-1.499999 1.499999-1.499999.828822 0 1.500558.671736 1.5 1.499999z" fill="none" stroke="#1e8bcd"/><path d="m17 14a8 8 0 0 1 -8 8 8 8 0 0 1 -8-8 8 8 0 0 1 8-8 8 8 0 0 1 8 8z" fill="#0063b1"/><path d="m16 14a7 7 0 0 1 -7 7 7 7 0 0 1 -7-7 7 7 0 0 1 7-7 7 7 0 0 1 7 7z" fill="#83beec"/></svg>