<svg height="24" viewBox="0 0 6.3499999 6.3500002" width="24" xmlns="http://www.w3.org/2000/svg" xmlns:xlink="http://www.w3.org/1999/xlink"><linearGradient id="a" gradientTransform="matrix(.26458333 0 0 .26458333 -1.058333 290.65015)" gradientUnits="userSpaceOnUse" x1="5.016949" x2="5.271186" xlink:href="#b" y1="21.923729" y2="18.771187"/><linearGradient id="b" gradientTransform="matrix(.26458333 0 0 .26458333 101.6 307.58333)" gradientUnits="userSpaceOnUse" x1="18.5" x2="18.5" y1="23" y2="14.5"><stop offset="0" stop-color="#d70015"/><stop offset="1" stop-color="#ff453a"/></linearGradient><linearGradient id="c" gradientTransform="matrix(.26458333 0 0 .26458333 -1.058333 290.65015)" gradientUnits="userSpaceOnUse" x1="20.068359" x2="20.576271" xlink:href="#b" y1="7.824219" y2="5.279661"/><g transform="translate(0 -290.64999)"><path d="m20.5 11c-.277 0-.5.223-.5.5v3.498047.740234c.000007.0039.000007.0078 0 .01172v.249999c0 .02637-.01171.04897-.01563.07422-.000638.0052-.0013.01042-.002.01563-.173787 1.654316-1.568916 2.910272-3.23237 2.91015h-.75-3.292969l2.144531-2.144531c.195871-.195855.195897-.511253 0-.707031-.09793-.09789-.225711-.146485-.353515-.146485s-.255567.04859-.353516.146485l-2.998047 2.998046c-.04701.04701-.08407.103238-.109375.166016-.04898.120358-.04897.25467 0 .375.0253.06278.06236.119003.109375.166016l2.998047 2.998046c.195897.19578.511163.19578.707031 0 .195897-.195778.195871-.511176 0-.707031l-2.144531-2.144531h4.292969c1.5 0 2.044408-.647996 2.802734-1.148438.589375-.58012.984455-1.328657 1.13086-2.142578.02953-.216981.05027-.434013.05664-.640625.000081-.0038.000081-.0099 0-.01367v-.0039c.001833-.017485.009766-.032811.009766-.050789v-4.5c0-.277-.223-.5-.5-.5z" fill="#1e8bcd" transform="matrix(.26458333 0 0 .26458333 0 290.64999)"/><g stroke-width=".264583"><path d="m2.7285156 291.17932c-.2321314-.003-.4583136.0417-.6624918.12816-.4083566.17292-.7349993.5143-.8387085.96531-.095703.41619.00598.91235.3601847 1.43041l.085266.12195c.00209.003.00359.006.00568.008.2232321.29282.3685135.55282.4635375.78548.042646.0818.064188.17119.092501.25838.045031.14683.042165.29648.041341.44752-.00379.1311-.06273.23804-.1162709.35244-.036348.06-.077829.11581-.1271238.16433-.3388138.33346-.9959534.37927-1.37666028.12609l-.18293456.27543c.52966774.35225 1.32162854.29567 1.79110524-.1664.1110835-.10933.2004422-.24447.2609659-.39945.058253-.13439.067456-.27569.082682-.41858.00102-.24248-.011553-.40299-.1080037-.63976-.08502-.24424-.2241825-.50929-.4206462-.79375-.1287007-.17034-.2473227-.3453-.3550171-.52916-.1973074-.36633-.2344047-.68675-.1741496-.94878.078098-.33964.3207719-.59809.6449219-.73536.6482998-.27453 1.5990438-.0652 2.0567219 1.10846l.3079917-.11989c-.3832696-.98282-1.1345019-1.41327-1.8308961-1.4211z" fill="#3a3a38"/><path d="m0 295.67724h.79375v.79375h-.79375z" fill="url(#a)"/><path d="m3.96875 291.97307h.79375v.79375h-.79375z" fill="url(#c)"/><path d="m1.3229167 293.0314v1.05834h1.0583333v-1.05834zm.2645833.26459h.5291667v.52916h-.5291667z" fill="#0063b1"/><path d="m1.5875 293.29599h.5291667v.52916h-.5291667z" fill="#fff"/></g><g fill="#3a3a38" transform="matrix(.26458333 0 0 .26458333 -1.058333 290.65015)"><path d="m4 19h3v3h-3z"/><path d="m19 5h3v3h-3z"/></g></g></svg>