<svg viewBox="0 0 24 24" xmlns="http://www.w3.org/2000/svg"><path d="m3 7v14h14v-9.892578l-1.542969-1.5410158c-.452851-.4382737-.556084-1.1254083-.347656-1.640625.20012-.4946799.719666-.8938566 1.318359-.9257812zm13.619141 0c.130865.0105409.25848.036637.380859.0800781v-.0800781z" fill="#fafafa"/><path d="m2 6v16h16v-9.894531l-1-.998047v9.892578h-14v-14h13.427734c.024855-.0013254.047146-.0117136.072266-.0117188.040181.0000043.079363.0085148.119141.0117188h.380859v.0800781c.213613.0758266.410918.1944209.572266.359375l.427734.4277344v-1.8671875z" fill="#3a3a38"/><g fill="none" stroke="#1e8bcd" stroke-linecap="round" stroke-linejoin="round" transform="matrix(0 -1 -1 0 24 17)"><path d="m8.507121 1.494946-2.9999998 2.9949499 2.9999998 3.0050501"/><path d="m5.5071212 4.4898959h9.9928788"/></g><path d="m13 14-4.5 5-1.5-1.5-3.5 3.5h13.5v-3z" fill="#83beef"/><path d="m13 12.5-4.5 5-1.5-1.5-4 4v1h.5l3.5-3.5 1.5 1.5 4.5-5 4 4v-1.5z" fill="#0063b1"/><path d="m8 11a2 2 0 0 1 -2 2 2 2 0 0 1 -2-2 2 2 0 0 1 2-2 2 2 0 0 1 2 2z" fill="#ed8733" stroke-width=".8"/><path d="m7 11a1 1 0 0 1 -1 1 1 1 0 0 1 -1-1 1 1 0 0 1 1-1 1 1 0 0 1 1 1z" fill="#f8db8f"/></svg>