<svg viewBox="0 0 24 24" xmlns="http://www.w3.org/2000/svg"><path d="m12 3v8h10v-8zm0 10v8h10v-8z" fill="#fafafa"/><g fill="#3a3a38" transform="translate(4)"><path d="m10 15 3 5 3-5z" fill-rule="evenodd"/><path d="m10 9 3-5 3 5z" fill-rule="evenodd"/><path d="m8 2c-.554 0-.991133.446071-1 1v8h1 10 1v-8c0-.554-.446-1-1-1zm0 1h10v7h-10zm-1 10v8c0 .554.446 1 1 1h10c.554 0 1-.446 1-1v-8h-1-10zm1 1h10v7h-10z"/></g><path d="m1 13h8v8h-8z" fill="#fafafa"/><path d="m1 12c-.554 0-1 .446-1 1v8c0 .554.446 1 1 1h8c.554 0 1-.446 1-1v-8c0-.554-.446-1-1-1zm0 1h8v8h-8z" fill="#3a3a38"/><path d="m2.5 17 2 2 3.5-4" fill="none" stroke="#3a3a38" stroke-linecap="round" stroke-linejoin="round" stroke-width="1.5"/><path d="m5 2a5.0001861 5.0001861 0 0 0 -5 5 5.0001861 5.0001861 0 0 0 5 5 5.0001861 5.0001861 0 0 0 5-5 5.0001861 5.0001861 0 0 0 -5-5zm0 1a3.9998137 3.9998137 0 0 1 4 4 3.9998137 3.9998137 0 0 1 -4 4 3.9998137 3.9998137 0 0 1 -4-4 3.9998137 3.9998137 0 0 1 4-4z" fill="#3a3a38" opacity=".896"/><path d="m9 7.0001861a3.9998137 3.9998137 0 0 1 -3.9998139 3.9998139 3.9998137 3.9998137 0 0 1 -3.9998137-3.9998139 3.9998137 3.9998137 0 0 1 3.9998137-3.9998137 3.9998137 3.9998137 0 0 1 3.9998139 3.9998137z" fill="#fcfcfc"/><path d="m8 7.000186a2.9998138 2.9998138 0 0 1 -2.999814 2.999814 2.9998138 2.9998138 0 0 1 -2.9998136-2.999814 2.9998138 2.9998138 0 0 1 2.9998136-2.9998136 2.9998138 2.9998138 0 0 1 2.999814 2.9998136z" fill="#1e8bcd" fill-opacity=".898039"/></svg>