<svg viewBox="0 0 24 24" xmlns="http://www.w3.org/2000/svg"><path d="m3 3v18h8.091797c.206261-.573712.756653-1 1.390625-1h1.517578v-5.873047-.089844-.953125-10.083984z" fill="#fafafa"/><path d="m2 2v20h9.091797c-.054894-.152689-.091797-.313695-.091797-.482422v-.035156c0-.168727.036902-.329733.091797-.482422h-8.091797v-18h11v10.083984c.144796-.050016.296017-.083984.455078-.083984h.544922v-11z" fill="#3a3a38"/><g fill="#3a3a38"><rect height="1" ry=".5" width="3" x="19" y="2"/><rect height="1" ry=".5" width="3" x="15" y="2"/><rect height="1" ry=".5" width="3" x="18" y="21"/></g><g fill="#0063b1"><rect height="1" ry=".483075" width="10" x="12" y="21"/><rect height="1" ry=".5" transform="rotate(90)" width="10" x="12" y="-22"/><path d="m15 15h9v1h-9z"/><rect height="1.000006" ry=".483075" transform="rotate(90)" width="9" x="15" y="-16"/></g><rect fill="#3a3a38" height="3" ry=".5" width="1" x="21" y="7"/><rect fill="#3a3a38" height="3" ry=".5" width="1" x="21" y="2"/><path d="m14 14.5-4 4-1.5-1.5-4 4h6.591797c.206261-.573712.756653-1 1.390625-1h1.517578z" fill="#83beef"/><path d="m14 13-4 4-1.5-1.5-5.5 5.5h1.5l4-4 1.5 1.5 4-4v-.373047-.089844-.953125z" fill="#0063b1"/><circle cx="7.5" cy="7.5" fill="#ed8733" r="2.5"/><path d="m9 7.5a1.5 1.5 0 0 1 -1.5 1.5 1.5 1.5 0 0 1 -1.5-1.5 1.5 1.5 0 0 1 1.5-1.5 1.5 1.5 0 0 1 1.5 1.5z" fill="#f8db8f"/></svg>