<svg viewBox="0 0 24 24" xmlns="http://www.w3.org/2000/svg"><g fill="#fafafa"><path d="m3 3h18v18h-18z" fill="#fafafa"/><path d="m8 3h13v1h-13z"/><path d="m3 8h1v13h-1z"/></g><g fill="#3a3a38"><path d="m3 2c-.554 0-1 .446-1 1v18c0 .554.446 1 1 1h18c.554 0 1-.446 1-1v-18c0-.554-.446-1-1-1zm0 1h18v18h-18z" fill="#3a3a38"/><g fill="#797774"><path d="m4 4h3v3h-3z"/><path d="m9 4v3h5.875l.53125-.53125-.085938.0976562c.288389-.3753123.73964-.5933074 1.212891-.5859374a1.0001 1.0001 0 0 1 .003906 0c.457925.0085672.888773.2272343 1.166016.5917968l-.089844-.1015625.529297.5292969h.857422v-3z"/><path d="m4 9v10h3v-.90625l-.5117188-.511719.0957032.083985c-.7599903-.587053-.7570104-1.7956.0058594-2.378907l-.0996094.087891.5097656-.509766v-5.865234z"/><g fill="#c8c6c4"><path d="m5 10h1v8h-1z"/><path d="m-6 10h1v8h-1z" transform="rotate(-90)"/><path d="m-6 5h1v1h-1z" transform="rotate(-90)"/></g></g></g><path d="m16.517678 6.9801732c-.158062-.00246-.307979.069963-.404297.1953125l-2.960937 2.9570313c-.491945.469901.232466 1.198326.705078.708984l2.152344-2.1484372-.0098 3.2968752c0 2.209139-1.790861 4-4 4l-3.2835925-.011719 2.1445315-2.140625c.328848-.317806.09381-.873807-.363281-.859375-.129761.0036-.253031.05754-.34375.150391l-2.9570318 2.953125c-.2609436.199523-.2619107.592163-.00195.792969l2.9570318 2.960937c.4699.491949 1.198329-.232466.708984-.705078l-2.1484408-2.152344 3.2875328.011719c2.761424 0 5-2.238576 5-5l.0098-3.292969 2.140625 2.144531c.317806.328849.873807.09381.859375-.363281-.0036-.12976-.05754-.25303-.150391-.34375l-2.953159-2.9570312c-.092575-.1217304-.235766-.1944049-.388672-.1972656z" fill="#1e8bcd" fill-rule="evenodd"/></svg>