<svg viewBox="0 0 24 24" xmlns="http://www.w3.org/2000/svg"><path d="m3 2v19h9.871094l3-3-3.578125-3.578125c-.390668-.390406-.390668-1.023657 0-1.414063l.714843-.714843c.183634-.183805.431621-.288884.691407-.292969.270614-.0042.531368.101504.722656.292969l3.578125 3.578125 3.578125-3.578125c.117684-.117071.262673-.20299.421875-.25v-10.042969z" fill="#fafafa"/><path d="m7 2v4h-4v1h4v4h-4v1h4v4h-4v1h4v4h1v-4h4v4h.871094l.128906-.128906v-3.871094h1.871094l-1-1h-.871094v-.871094l-.707031-.707031c-.184272-.184116-.28939-.432894-.292969-.693359v2.271484h-4v-4h4v1.728516c-.0037-.269941.101994-.52989.292969-.720704l.707031-.707031v-.300781h.699219.002 3.298781v2.871094l1 1v-3.871094h4v-1h-4v-4h4v-1h-4v-4h-1v4h-4v-4h-1v4h-4v-4zm1 5h4v4h-4zm5 0h4v4h-4z" fill="#797774"/><path d="m3 1c-.554 0-1 .446-1 1v19c0 .554.446 1 1 1h9.042969c.04701-.159202.132929-.304191.25-.421875l.578125-.578125h-9.871094v-19h19v10.042969c.351547-.105089.732411-.0091.992188.25l.007812.007812v-10.300781c0-.554-.446-1-1-1z" fill="#3a3a38"/><g transform="matrix(-1 0 0 -1 25 18)"><path d="m22 7v4h-19v-4z" fill="#ed3d3b" opacity=".5" stroke-width="1.224745"/><g transform="matrix(-1 0 0 -1 25 18)"><path d="m2 6v5.042969.957031h1v-.128906-5.871094zm20 0v5.871094.128906h1v-.957031-5.042969z" fill="#d42314"/><path d="m3 6v1h4v4h-4v1h19v-1h-4v-4h4v-1zm5 1h4v4c-1.333333 0-2.6666667 0-4 0zm5 0h4v4c-1.333333 0-2.666667 0-4 0z" fill="#ed3d3b"/></g></g><path d="m22.285683 12.999968-4.285715 4.285714-4.285715-4.285714-.714285.714285 4.285714 4.285715-4.285714 4.285715.714285.714285 4.285715-4.285714 4.285715 4.285714.714285-.714285-4.285714-4.285715 4.285714-4.285715z" fill="#ed3d3b"/></svg>