<svg viewBox="0 0 24 24" xmlns="http://www.w3.org/2000/svg"><g fill="#fafafa"><path d="m3 3v18h9.871094l3-3-3.578125-3.578125c-.390668-.390406-.390668-1.023657 0-1.414063l.714843-.714843c.183634-.183805.431621-.288884.691407-.292969.270614-.0042.531368.101504.722656.292969l3.578125 3.578125 3-3v-9.871094z" fill="#fafafa"/><path d="m8 3h13v1h-13z"/><path d="m3 8h1v13h-1z"/></g><g fill="#3a3a38"><path d="m3 2c-.554 0-1 .446-1 1v18c0 .554.446 1 1 1h9.042969c.04701-.159202.132929-.304191.25-.421875l.578125-.578125h-9.871094v-18h18v9.871094l.578125-.578125c.117684-.117071.262673-.20299.421875-.25v-9.042969c0-.554-.446-1-1-1z" fill="#3a3a38"/><g fill="#797774"><path d="m4 4h3v3h-3z"/><path d="m9 4v3h10v-3z"/><path d="m4 9v10h3v-10z"/><g fill="#c8c6c4"><path d="m5 10h1v8h-1z"/><g transform="rotate(-90)"><path d="m-6 10h1v8h-1z"/><path d="m-6 5h1v1h-1z"/></g></g></g></g><path d="m22.285683 12.999968-4.285715 4.285714-4.285715-4.285714-.714285.714285 4.285714 4.285715-4.285714 4.285715.714285.714285 4.285715-4.285714 4.285715 4.285714.714285-.714285-4.285714-4.285715 4.285714-4.285715z" fill="#ed3d3b"/></svg>