<?xml-stylesheet type="text/css" href="icons.css" ?>
<svg viewBox="0 0 24 24" xmlns="http://www.w3.org/2000/svg">
  <path
	 class="icn icn--line-color" 
     d="m 7.5,2.5 h 14 z m 0,3 h 8 z m 0,5 h 14 z m 0,3 h 8 z m 0,5 h 14 z m 0,3 h 8 z"
     stroke="#3a3a38" 
	 stroke-linecap="round" 
	 stroke-linejoin="round"
     />
  <path
	 class="icn icn--highlight-color-line"
     d="m 3,3.5 1.5,-1 v 5"
     fill="none"
     stroke="#1e8bcd" 
	 stroke-linecap="round" 
	 stroke-linejoin="round"
     />
  <path
	 class="icn icn--highlight-color-line"
     d="m 3.5,7.5 h 2"
     fill="none"
     stroke="#1e8bcd" 
	 stroke-linecap="round" 
	 stroke-linejoin="round"
     />
  <path
	 class="icn icn--highlight-color-line"
     d="M 2.5,11.5 C 3.520087,9.5622672 5.4735739,10.307277 5.4378546,11.654063 5.4040295,12.929428 4.1705243,13.942095 2.8051105,15.004189 2.6434723,15.129921 2.2620892,15.415238 2.265165,15.5 H 5.5"
     fill="none"
     stroke="#1e8bcd" 
	 stroke-linecap="round" 
	 stroke-linejoin="round"
     />
  <path
	 class="icn icn--highlight-color-line"
     d="M 2.4880952,19.619048 C 2.5,18.722224 3.5,18.5 4,18.5 c 0.6623095,0 1.5,0.307143 1.5,1.2 0,0.8 -0.7440366,1.008842 -1.5,1.3 1.0244214,0.162639 1.4969621,0.709766 1.5,1.25516 C 5.5094547,23.086907 4.6752451,23.5 4,23.5 3.2347979,23.5 2.7970398,23 2.5,22.5"
     fill="none"
     stroke="#1e8bcd" 
	 stroke-linecap="round" 
	 stroke-linejoin="round"
     />
</svg>
