<svg viewBox="0 0 24 24" xmlns="http://www.w3.org/2000/svg"><path d="m4.71875 2a.50535904.50535904 0 0 0 -.3535156.1445312l-1.2128906 1.1855469a.50535904.50535904 0 0 0 -.1523438.3613281v1.1875.3613282a.50535904.50535904 0 0 0 .09375.2949218l5.9003906 8.2499998v4.148438.04687a.50535904.50535904 0 0 0 .2148438.414062l4.9941406 3.513672a.50535904.50535904 0 0 0 .291016.091802h.01172a.50535904.50535904 0 0 0 .50586-.505859v-7.708985l5.894531-8.2499998a.50535904.50535904 0 0 0 .093748-.2949218v-1.5488282a.50535904.50535904 0 0 0 -.152344-.3613281l-1.21289-1.1855469a.50535904.50535904 0 0 0 -.353516-.1445312zm.2070312 1.0097656h14.1484378l.916015.8945313v1.1738281l-5.894531 8.25a.50535904.50535904 0 0 0 -.095703.294922v6.90625l-3.994141-2.810547v-4.095703a.50535904.50535904 0 0 0 -.095703-.294922l-5.9003906-8.25v-.1992188-.9746093l.9160156-.8945313z" fill="#3a3a38"/><path d="m4.9257812 3.0097656h14.1484378l.916015.8945313v1.1738281l-5.894531 8.25c-.06202.08585-.09549.189015-.0957.294922v6.90625l-3.994141-2.810547v-4.095703c-.00021-.105907-.033687-.209071-.095703-.294922l-5.9003906-8.25v-.1992188-.9746093z" fill="#fafafa"/></svg>