<svg height="24" viewBox="0 0 6.3499999 6.3500002" width="24" xmlns="http://www.w3.org/2000/svg"><g transform="matrix(.26458333 0 0 .26458333 -1.322917 -1.85206)"><path d="m2.5 2c-.831 0-1.5.669-1.5 1.5v12c0 .831.669 1.5 1.5 1.5.9423028.000077 1.6490691-.000033 2.5 0v-1h-3v-13h16v4h1v-3.5c0-.831-.669-1.5-1.5-1.5z" fill="#3a3a38" transform="translate(5 7)"/><path d="m2 3v13h3v-7.5c0-.831.669-1.5 1.5-1.5h11.5v-4z" fill="#fafafa" transform="translate(5 7)"/><path d="m9 12h12v2h-12z" fill="#797774" stroke-width="1.322876"/><path d="m4 9v1h1v-1zm0 2v1h1v-1zm0 2v1h1v-1z" fill="#c8c6c4" transform="translate(5 7)"/></g><g transform="matrix(.26458333 0 0 .26458333 0 .00002)"><path d="m7.5 8c-.831 0-1.5.669-1.5 1.5v12c0 .831.669 1.5 1.5 1.5 5.653817.00046 9.332647.000027 15 0 .831 0 1.5-.669 1.5-1.5v-12c0-.831-.669-1.5-1.5-1.5zm-.5 1h16v13h-16z" fill="#3a3a38"/><path d="m23 9h-16v13h16z" fill="#fafafa"/><path d="m9 11h12v2h-12z" fill="#797774" stroke-width="1.322876"/><path d="m9 15v1h1v-1zm2 0v1h10v-1zm-2 2v1h1v-1zm2 0v1h7v-1zm-2 2v1h1v-1zm2 0v1h9v-1z" fill="#c8c6c4"/></g></svg>