<svg viewBox="0 0 24 24" xmlns="http://www.w3.org/2000/svg"><rect fill="#3a3a38" height="20" ry="1" transform="rotate(90)" width="16" x="4" y="-22"/><path d="m5-21h14v18h-14z" fill="#fafafa" transform="rotate(90)"/><g fill="#1e8bcd" fill-rule="evenodd"><path d="m8.8516862 6.5133237c.1983055.199846.1976726.5223718-.00143.7214422l-3.6151934 3.6142691c-.3063808.30722-.8321661.117235-.8712983-.314836l-.3615198-3.9756962c-.0295972-.3186665.2376535-.5858492.5564018-.5562592l3.9767107.361427c.1197669.011134.2317749.064124.316329.1496531z"/><path d="m15.148318 6.5133247c-.198306.199846-.197673.5223718.0014.7214422l3.61522 3.6142681c.306381.307221.832165.117235.871297-.314836l.36152-3.9756952c.0296-.3186665-.237653-.5858492-.556402-.5562592l-3.976706.361427c-.119767.011134-.231775.064124-.316329.1496531z"/><path d="m8.8516862 17.486676c.1983055-.199846.1976726-.522372-.00143-.721442l-3.6151934-3.614269c-.3063808-.30722-.8321661-.117235-.8712983.314836l-.3615198 3.975696c-.029597.318666.2376535.585849.5564018.556259l3.9767107-.361427c.1197669-.01113.2317749-.06412.316329-.149653z"/><path d="m15.148318 17.486675c-.198306-.199846-.197673-.522372.0014-.721442l3.61522-3.614268c.306381-.307221.832165-.117235.871297.314836l.36152 3.975695c.0296.318666-.237653.585849-.556402.556259l-3.976706-.361427c-.119767-.01113-.231775-.06412-.316329-.149653z"/></g></svg>