<svg viewBox="0 0 24 24" xmlns="http://www.w3.org/2000/svg"><path d="m3 3v18h9.773438a1.0001 1.0001 0 0 1 .152343-.726562l.158203-.236329-.28125-.05664a1.0001 1.0001 0 0 1 -.802734-.980469v-1-1a1.0001 1.0001 0 0 1 .802734-.980469l.28125-.05664-.158203-.236329a1.0001 1.0001 0 0 1 .125-1.261718l.707031-.707032.707032-.707031a1.0001 1.0001 0 0 1 1.261718-.125l.236329.158203.05664-.28125a1.0001 1.0001 0 0 1 .980469-.802734h1 1a1.0001 1.0001 0 0 1 .980469.802734l.05664.28125.236329-.158203a1.0001 1.0001 0 0 1 .726562-.152343v-9.773438z" fill="#fafafa"/><path d="m2 2v20h11.515625l-.464844-.464844a1.0001 1.0001 0 0 1 -.277343-.535156h-9.773438v-18h18v9.773438a1.0001 1.0001 0 0 1 .535156.277343l.464844.464844v-11.515625z" fill="#3a3a38"/><circle cx="7.5" cy="7.5" fill="#ed8733" r="2.5"/><path d="m16 12.5-.369141.369141a1.0001 1.0001 0 0 1 .095703.05664l.236329.158203.05664-.28125a1.0001 1.0001 0 0 1 .070313-.21289zm-3.130859 3.130859-2.869141 2.869141-1.5-1.5-4 4h8.273438a1.0001 1.0001 0 0 1 .152343-.726562l.158203-.236329-.28125-.05664a1.0001 1.0001 0 0 1 -.802734-.980469v-1-1a1.0001 1.0001 0 0 1 .802734-.980469l.28125-.05664-.158203-.236329a1.0001 1.0001 0 0 1 -.05664-.095703z" fill="#83beec"/><path d="m16 11-6 6-1.5-1.5-5.5 5.5h1.5l4-4 1.5 1.5 2.869141-2.869141a1.0001 1.0001 0 0 1 .18164-1.166015l.707031-.707032.707032-.707031a1.0001 1.0001 0 0 1 1.166015-.18164l.369141-.369141.089844.089844a1.0001 1.0001 0 0 1 .910156-.589844z" fill="#0063b1"/><path d="m9 7.5a1.5 1.5 0 0 1 -1.5 1.5 1.5 1.5 0 0 1 -1.5-1.5 1.5 1.5 0 0 1 1.5-1.5 1.5 1.5 0 0 1 1.5 1.5z" fill="#f8db8f"/><path d="m17 13-.349609 1.744141-1.478516-.986329-.707031.707032-.707032.707031.986329 1.478516-1.744141.349609v1 1l1.744141.349609-.986329 1.478516.707032.707031.707031.707032 1.478516-.986329.349609 1.744141h1 1l.349609-1.744141 1.478516.986329.707031-.707032.707032-.707031-.986329-1.478516 1.744141-.349609v-1-1l-1.744141-.349609.986329-1.478516-.707032-.707031-.707031-.707032-1.478516.986329-.349609-1.744141h-1zm.800781 1h.398438l.300781 1.5h.535156l.378906.378906 1.273438-.847656.28125.28125-.847656 1.273438.378906.378906v.535156l1.5.300781v.398438l-1.5.300781v.535156l-.378906.378906.847656 1.273438-.28125.28125-1.273438-.847656-.378906.378906h-.535156l-.300781 1.5h-.398438l-.300781-1.5h-.535156l-.378906-.378906-1.273438.847656-.28125-.28125.847656-1.273438-.378906-.378906v-.535156l-1.5-.300781v-.398438l1.5-.300781v-.535156l.378906-.378906-.847656-1.273438.28125-.28125 1.273438.847656.378906-.378906h.535156zm.199219 2a2 2 0 0 0 -2 2 2 2 0 0 0 2 2 2 2 0 0 0 2-2 2 2 0 0 0 -2-2zm0 1a1 1 0 0 1 1 1 1 1 0 0 1 -1 1 1 1 0 0 1 -1-1 1 1 0 0 1 1-1z" fill="#1e8bcd"/><path d="m17.800781 14h.398438l.300781 1.5h.535156l.378906.378906 1.273438-.847656.28125.28125-.847656 1.273438.378906.378906v.535156l1.5.300781v.398438l-1.5.300781v.535156l-.378906.378906.847656 1.273438-.28125.28125-1.273438-.847656-.378906.378906h-.535156l-.300781 1.5h-.398438l-.300781-1.5h-.535156l-.378906-.378906-1.273438.847656-.28125-.28125.847656-1.273438-.378906-.378906v-.535156l-1.5-.300781v-.398438l1.5-.300781v-.535156l.378906-.378906-.847656-1.273438.28125-.28125 1.273438.847656.378906-.378906h.535156zm.199219 2c-1.104569 0-2 .895431-2 2s.895431 2 2 2 2-.895431 2-2-.895431-2-2-2z" fill="#fafafa"/></svg>