<svg viewBox="0 0 24 24" xmlns="http://www.w3.org/2000/svg"><path d="m3 2h19v19h-19z" fill="#fafafa"/><g fill="#1e8bcd"><rect height="2" ry="1" width="2" x="4" y="3"/><rect height="2" ry="1" width="2" x="9" y="3"/><rect height="2" ry="1" width="2" x="14" y="3"/><rect height="2" ry="1" width="2" x="19" y="3"/></g><path d="m3 1c-.554 0-1 .446-1 1v19c0 .554.446 1 1 1h19c.554 0 1-.446 1-1v-19c0-.554-.446-1-1-1zm0 1h19v19h-19z" fill="#3a3a38"/><g fill="#1e8bcd"><rect height="2" ry="1" width="2" x="4" y="8"/><rect height="2" ry="1" width="2" x="9" y="8"/><rect height="2" ry="1" width="2" x="14" y="8"/><rect height="2" ry="1" width="2" x="19" y="8"/><rect height="2" ry="1" width="2" x="4" y="13"/><rect height="2" ry="1" width="2" x="9" y="13"/><rect height="2" ry="1" width="2" x="14" y="13"/><rect height="2" ry="1" width="2" x="19" y="13"/><rect height="2" ry="1" width="2" x="4" y="18"/><rect height="2" ry="1" width="2" x="9" y="18"/><rect height="2" ry="1" width="2" x="14" y="18"/><rect height="2" ry="1" width="2" x="19" y="18"/></g></svg>