<svg viewBox="0 0 24 24" xmlns="http://www.w3.org/2000/svg"><g transform="matrix(0 -1 1 0 0 24)"><path d="m3 4h17v17h-17z" fill="#fafafa"/><path d="m3 3c-.554 0-1 .446-1 1v17c0 .554.446 1 1 1h17l.390625-.07813c.359156-.151401.609375-.50637.609375-.92187v-17c0-.1385-.027656-.2709062-.078125-.390625-.151406-.3591562-.506375-.609375-.921875-.609375zm0 1h17v17h-17z" fill="#3a3a38"/><path d="m6 4v2h1v9h1 4.878906l.5-.5-.5-.5h-4.878906v-8h1v-2h-1-1z" fill="#ed3d3b"/><path d="m12.5 11c-.12781 0-.255581.04855-.353516.146484-.195869.195869-.195869.511163 0 .707032l2.646485 2.646484-2.646485 2.646484c-.195868.195869-.195868.511163 0 .707032.195869.195868.511163.195868.707032 0l2.646484-2.646485 2.646484 2.646485c.195869.195869.511164.195869.707032 0 .195869-.195868.195869-.511164 0-.707032l-2.646485-2.646484 2.646485-2.646484c.195868-.195869.195868-.511163 0-.707032-.195869-.195868-.511163-.195868-.707032 0l-2.646484 2.646485-2.646484-2.646485c-.097935-.097934-.225706-.146484-.353516-.146484z" fill="#1e8bcd"/></g></svg>