<svg height="24" viewBox="0 0 24 24" width="24" xmlns="http://www.w3.org/2000/svg">

/&amp;amp;gt;<path d="m13.867188 13c.15825.517468.043701 1.108644-.357422 1.509766-.27503.275031-.640439.415675-1.009766.427734v5.173828c0 .492445.396227.888672.888672.888672h9.722656c.492445 0 .888672-.396227.888672-.888672v-6.222656c0-.492445-.396227-.888672-.888672-.888672z" fill="#797774"/><path d="m12.121094 11 1.388672 1.388672c.575283.575283.575286 1.54581 0 2.121094-.575284.575286-1.545811.575283-2.121094 0l-.888672-.888672v4.490234c0 .492445.396227.888672.888672.888672h9.722656c.492445 0 .888672-.396227.888672-.888672v-6.222656c0-.492445-.396227-.888672-.888672-.888672z" fill="#0063b1"/><path d="m13.121094 12 .388672.388672c.575283.575283.575286 1.54581 0 2.121094-.540977.540978-1.427104.566296-2.009766.089843v3.400391h9.5v-6z" fill="#83beec"/><g fill="#ed8733"><rect height="3" rx=".5" width="1" x="7" y="1"/><rect height="3" rx=".5" width="1" x="7" y="13"/><rect height="3" rx=".5" transform="rotate(90)" width="1" x="8" y="-15"/><rect height="3" rx=".5" transform="rotate(90)" width="1" x="8" y="-3"/><rect height="3" rx=".5" transform="matrix(.70710678 .70710678 -.70710678 .70710678 0 0)" width="1" x="10.813709" y="-6.792893"/><rect height="3" rx=".5" transform="matrix(.70710678 .70710678 -.70710678 .70710678 0 0)" width="1" x="10.813709" y="5.207107"/><rect height="3" rx=".5" transform="matrix(-.70710678 .70710678 -.70710678 -.70710678 0 0)" width="1" x=".207107" y="-18.813709"/><rect height="3" rx=".5" transform="matrix(-.70710678 .70710678 -.70710678 -.70710678 0 0)" width="1" x=".207107" y="-6.813709"/><circle cx="7.5" cy="8.5" r="3.5"/></g><circle cx="7.5" cy="8.5" fill="#f8db8f" r="2.5"/></svg>