<svg viewBox="0 0 24 24" xmlns="http://www.w3.org/2000/svg"><path d="m3 3h18v15h-18z" fill="#fafafa"/><path d="m3 19h4v2h-4z" fill="#fafafa"/><path d="m8 3v3h-5v1h5v3h-5v1h5v3h-5v1h5v3h1v-3h6v2.871094.128906h1v-3h5v-1h-5v-3h5v-1h-5v-3h5v-1h-5v-3h-1v3h-6v-3zm1 4h6v3h-6zm0 4h6v3h-6zm4.871094 7.998047-10.871094.001953h10.869141z" fill="#797774"/><path d="m3 2c-.554 0-1 .446-1 1v15c0 .554.446 1 1 1l18.011719-.002c.548255-.006532.988281-.448128.988281-.998v-15c0-.554-.446-1-1-1zm0 1h18v15h-18z" fill="#3a3a38"/><path d="m2 18v3c0 .554.446 1 1 1h3 .5l1.5-3h-1l-1 2h-3v-3z" fill="#3a3a38"/><g fill-rule="evenodd"><path d="m3 2c-.554 0-1 .446-1 1v15c0 .28975.1266205.544255.3222656.726562l19.3554684-16.4531245c-.178426-.1662628-.413484-.2734375-.677734-.2734375zm0 1h16.183594l-16.183594 13.900391z" fill="#3a3a38"/><path d="m3 3h16.183594l-16.183594 13.900391z" fill="#fafafa"/></g></svg>