<svg viewBox="0 0 24 24" xmlns="http://www.w3.org/2000/svg"><path d="m4 9c-.554 0-1 .446-1 1v3c0 .554.446 1 1 1h15c.554 0 1-.446 1-1v-3c0-.554-.446-1-1-1zm0 1h15v3h-15z" fill="#3a3a38"/><path d="m4 10v3h15v-3z" fill="#fafafa"/><g fill="#1e8bcd"><path d="m11.5 0c-.277 0-.5.223-.5.5v6.7929688l-2.1445312-2.140625c-.1958692-.195868-.5131154-.1958681-.7089844 0-.09793.0979299-.1464844.2257066-.1464844.3535156 0 .127808.0485504.2575387.1464844.3554687l2.9999996 2.9921875c.04701.04702.103236.08407.166016.109375.057904.02334.12105.0371094.1875.0371094s.129596-.0137694.1875-.0371094c.06278-.025305.119006-.062355.166016-.109375l3-2.9921875c.097934-.09793.146484-.2276607.146484-.3554687 0-.127809-.048554-.2555856-.146484-.3535156-.195869-.1958682-.513116-.195868-.708985 0l-2.144531 2.140625v-6.7929688c0-.277-.223-.5-.5-.5z"/><path d="m11.5 23c-.277 0-.5-.223-.5-.5v-6.792969l-2.1445312 2.140625c-.1958692.195868-.5131154.195868-.7089844 0-.09793-.09793-.1464844-.225706-.1464844-.353515 0-.127808.04855-.257539.1464844-.355469l2.9999996-2.992188c.04701-.04702.103236-.08407.166016-.109375.057904-.02334.12105-.037109.1875-.037109s.129596.01377.1875.03711c.06278.02531.119006.06236.166016.109375l3 2.992188c.097934.097929.146484.22766.146484.355468 0 .127809-.04855.255585-.146484.353515-.195869.195868-.513116.195868-.708985 0l-2.144531-2.140625v6.792969c0 .277-.223.5-.5.5z"/></g></svg>