<svg viewBox="0 0 24 24" xmlns="http://www.w3.org/2000/svg"><path d="m3 3c-.554 0-1 .446-1 1v15c0 .554.446 1 1 1h8.904297l-.998047-1h-7.90625v-15h18v11.998047h.5l-.013672.001953c.177511-.0025.350201.03598.513672.09961v-12.09961c0-.554-.446-1-1-1z" fill="#3a3a38"/><path d="m3 4h18v4h-18z" fill="#797774"/><path d="m3 8v11h7.90625l-.412109-.412109.0957.08398c-.7203656-.556452-.7172395-1.81234.0059-2.365234l-.09961.08594 2.949218-2.945312c.266754-.273048.64182-.436151 1.023401-.447265h.002c.596134-.01713 1.183773.360765 1.416016.910156.232739.550566.09388 1.236958-.335938 1.652344l-.435547.435547h5.884719c0-2.666016 0-5.332031 0-7.998047z" fill="#fafafa"/><path d="m14.498047 13.990234a.50005.50005 0 0 0 -.34375.150391l-2.957031 2.953125a.50005.50005 0 0 0 -.002.792969l2.957032 2.960937a.50005.50005 0 1 0 .708984-.705078l-2.148391-2.152344h8.787109a.50005.50005 0 1 0 0-1h-8.783203l2.144531-2.140625a.50005.50005 0 0 0 -.363281-.859375z" fill="#1e8bcd" fill-rule="evenodd"/><path d="m3 8h18v1h-18z" fill="#3a3a38"/></svg>