<svg viewBox="0 0 24 24" xmlns="http://www.w3.org/2000/svg"><path d="m3 3v18h9.001953v-11.5a1.498017 1.498017 0 0 1 1.470703-1.4980469 1.498017 1.498017 0 0 1 .970703.3359375l6.556641 5.3242184v-10.662109z" fill="#fafafa"/><path d="m2 2v20h10.001953v-1h-9.001953v-18h18v10.662109l1 .8125v-12.474609z" fill="#3a3a38"/><path d="m11.998047 15.001953-1.998047 1.998047-1.5-1.5-5.5 5.5h1.5l4-4 1.5 1.5 1.998047-1.998047z" fill="#0063b1"/><path d="m11.998047 16.501953-1.998047 1.998047-1.5-1.5-4 4h7.498047z" fill="#83beef"/><g fill-rule="evenodd"><path d="m13.490234 9.0019531a.49916258.49916258 0 0 0 -.490234.4980469v13a.49916258.49916258 0 0 0 .867188.339844l2.669921-2.886719 1.396485 2.970703-.01953-.04687c.163359.463401.556257.7688.964844.892578.408588.123778.843466.103168 1.246094-.02734.402628-.130512.78484-.377526 1.029297-.765626.244456-.388099.311868-.918809.126953-1.443359a.49916258.49916258 0 0 0 -.02148-.05078l-1.687506-3.482431h3.779296a.49916258.49916258 0 0 0 .314454-.886719l-9.851563-7.9999998a.49916258.49916258 0 0 0 -.324219-.1113281z" fill="#3a3a38"/><path d="m14.011719 10.574219v10.61914l2.287109-2.472656a.51155848.51155848 0 0 1 .837891.130859l1.710937 3.642579a.51155848.51155848 0 0 1 .01953.04687c.04917.139478.132087.20943.304687.261718.1726.05229.42318.04963.642578-.02148.219398-.07112.396249-.203842.484375-.34375.08692-.13799.123466-.286409.0293-.560547l-2.013672-4.154297a.51155848.51155848 0 0 1 .460938-.734375h3.134765z" fill="#fafafa"/></g><circle cx="7.5" cy="7.5" fill="#ed8733" r="2.5"/><path d="m9 7.5a1.5 1.5 0 0 1 -1.5 1.5 1.5 1.5 0 0 1 -1.5-1.5 1.5 1.5 0 0 1 1.5-1.5 1.5 1.5 0 0 1 1.5 1.5z" fill="#f8db8f"/></svg>