<svg viewBox="0 0 24 24" xmlns="http://www.w3.org/2000/svg"><path d="m8.5 4c.8137028 0 1.5.6862972 1.5 1.5s-.6862972 1.5-1.5 1.5h-.3808594l1.4375 1.4375c.5752824.5752835.5752834 1.5458102 0 2.121094-.5752838.575284-1.5458099.575284-2.1210937 0l-1.4355469-1.4355471v.3769531c0 .813703-.6862972 1.5-1.5 1.5s-1.5-.686297-1.5-1.5v8.716797.783203h.8085938 7.8652342c.108615-.108547.217577-.215672.326172-.324219.108595.108547.217557.215672.326172.324219h7.865234.808594v-.783203-9.1113282-5.1054688z" fill="#1e8bcd"/><path d="m9.1210938 3-1 1h.3789062 12.5v5.1054688 9.3945312.5h-.5-.308594-8.517578-2.173828-6.5v-9.5-.3789062l-1 1.0000002v9.878906h7.5 1.455078 8.212891 1.332031 1.5v-2.751953-5.390625-8.857422z" fill="#3a3a38"/><path d="m9.90625 5c.0578587.1575702.09375.3251095.09375.5s-.0358913.3424298-.09375.5h9.09375v2h-9.8808594l.4375.4375c.1615307.161531.27293.3561459.34375.5625h10.0996094v-1-2-1zm-4 5c-.211337.575547-.7674377 1-1.40625 1-.1748905 0-.3424298-.035891-.5-.09375v.09375 6 1h16v-1-6-1h-10.0996094c-.070932.205002-.1831539.397998-.34375.558594-.5752838.575284-1.5458099.575284-2.1210937 0l-.5585938-.558594zm-.90625 1h14v6h-14z" fill="#fafafa"/><g transform="translate(1 1)"><path d="m3.5 0c-.277 0-.5.223-.5.5v1.5507812a2.5 2.5 0 0 0 -.8789062.3652344l-2.26562505-2.26562498c-.19586858-.19586857-.51116267-.19586857-.70703125 0-.1958686.19586858-.1958686.51116268 0 .70703126l2.265625 2.26562502a2.5 2.5 0 0 0 -.359375.8769531h-1.5546875c-.277 0-.5.223-.5.5s.223.5.5.5h1.5507812a2.5 2.5 0 0 0 .3652344.8769531l-2.2675781 2.2675781c-.1958685.1958687-.1958685.5111627 0 .7070313.19586857.1958685.51116267.1958685.70703125 0l2.26757815-2.2675781a2.5 2.5 0 0 0 .8769531.3613281v1.5546875c0 .277.223.5.5.5s.5-.223.5-.5v-1.5507812a2.5 2.5 0 0 0 .875-.3652344l2.2675781 2.2675781c.1958686.1958686.5111627.1958686.7070313 0s.1958686-.5111626 0-.7070313l-2.265625-2.265625a2.5 2.5 0 0 0 .3613281-.8789062h1.5546875c.277 0 .5-.223.5-.5s-.223-.5-.5-.5h-1.5507812a2.5 2.5 0 0 0 -.3652344-.8769531l2.265625-2.26562502c.1958686-.19586858.1958686-.51116268 0-.70703126-.1958686-.19586857-.5111627-.19586857-.7070313 0l-2.265625 2.26562498a2.5 2.5 0 0 0 -.8769531-.3613281v-1.5546875c0-.277-.223-.5-.5-.5zm0 3a1.5 1.5 0 0 1 1.5 1.5 1.5 1.5 0 0 1 -1.5 1.5 1.5 1.5 0 0 1 -1.5-1.5 1.5 1.5 0 0 1 .4394531-1.0585938 1.5 1.5 0 0 1 .0019531-.0019531 1.5 1.5 0 0 1 1.0585938-.4394531z" fill="#fb983b"/><circle cx="3.5" cy="4.5" fill="#fafafa" r="1.5"/></g></svg>