<svg viewBox="0 0 24 24" xmlns="http://www.w3.org/2000/svg"><path d="m5 3v18h14v-14.2705905l-4-3.7294095z" fill="#fafafa"/><path d="m5 2c-.554 0-1 .446-1 1v18c0 .554.446 1 1 1h14c.554 0 1-.446 1-1v-10.109375-3.6412209-.2079239c0-.4506799.09887-.4265951-.604637-1.0675892l-3.307389-3.2370335c-.709525-.7368575-.711223-.7368575-1.094804-.7368575h-.331557-.661613zm0 1h9v4c0 .554.446 1 1 1h4v13h-14z" fill="#3a3a38"/><path d="m15 7h4l-4-4z" fill="#fafafa" fill-rule="evenodd"/><path d="m4 10h17v11h-17z" fill="#1e8bcd"/><g fill="#fafafa"><path d="m11 15.5c0 .661205-.07261 1.266566-.217823 1.816083-.141913.549516-.344883 1.023082-.60891 1.420699-.260726.397618-.575907.708117-.945544.931497-.366337.218913-.773928.32837-1.222773.32837-.4455442 0-.853135-.109457-1.2227719-.32837-.3696369-.22338-.6864685-.533879-.9504949-.931497-.2640264-.397617-.4686469-.871183-.6138614-1.420699-.1452145-.549517-.2178218-1.154878-.2178218-1.816083 0-.656739.072607-1.259867.2178218-1.809383.1452145-.553983.349835-1.029784.6138614-1.427401.2640264-.402085.580858-.712584.9504949-.931497.3696369-.22338.7772277-.33507 1.2227719-.33507.448845 0 .856436.11169 1.222773.33507.369637.218913.684818.529412.945544.931497.264027.397617.466997.873418.60891 1.427401.145215.549516.217823 1.152644.217823 1.809383zm-.920792 0c0-.536114-.0495-1.016382-.148516-1.440805-.09571-.42889-.234322-.790766-.415841-1.085629-.178218-.29933-.39604-.527178-.653465-.683545-.254126-.160833-.539604-.24125-.856436-.24125-.3168314 0-.6039601.08042-.8613858.24125-.2541255.156367-.4719472.384215-.6534653.683545-.1815181.294863-.3217822.656739-.4207921 1.085629-.0957095.424423-.1435643.904691-.1435643 1.440805 0 .536113.047855 1.018614.1435643 1.447505.09901.424423.239274.7863.4207921 1.085629.1815181.294863.3993398.520477.6534653.676843.2574257.156367.5445544.23455.8613858.23455.316832 0 .60231-.07818.856436-.23455.257425-.156366.475247-.38198.653465-.676843.181519-.299329.320132-.661206.415841-1.085629.09901-.428891.148516-.911392.148516-1.447505z"/><path d="m13.056603 19h1.943397v1h-3v-9h1.056603z"/><path d="m19.999959 11v1h-2.810133v3h1.810154v1h-1.810154l.000472 3h2.813385l-.0069 1h-3.996783v-9h4z"/></g></svg>