<svg viewBox="0 0 24 24" xmlns="http://www.w3.org/2000/svg"><path d="m5 3v18h14v-14.2705905l-4-3.7294095z" fill="#fafafa"/><path d="m5 2c-.554 0-1 .446-1 1v18c0 .554.446 1 1 1h14c.554 0 1-.446 1-1v-10.109375-3.6412209-.2079239c0-.4506799.09887-.4265951-.604637-1.0675892l-3.307389-3.2370335c-.709525-.7368575-.711223-.7368575-1.094804-.7368575h-.331557-.661613zm0 1h9v4c0 .554.446 1 1 1h4v13h-14z" fill="#3a3a38"/><path d="m15 7h4l-4-4z" fill="#fafafa" fill-rule="evenodd"/><rect fill="#3a3a38" height="1" ry=".410114" width="7" x="6" y="12"/><g fill="#fb983b"><rect height="1" ry=".410114" width="7" x="6" y="6"/><rect height="1" ry=".410114" width="5" x="6" y="9"/><rect height="1" ry=".410114" width="11" x="6" y="15"/><rect height="1" ry=".410114" width="2" x="15" y="12"/><rect height="1" ry=".410114" width="3" x="6" y="18"/><rect height="1" ry=".410114" width="5" x="11" y="18"/></g></svg>