<svg height="24" viewBox="0 0 6.3499999 6.3500002" width="24" xmlns="http://www.w3.org/2000/svg"><g stroke-width=".264583" transform="translate(0 -290.64999)"><path d="m.79375 291.44373h4.7625v4.7625h-4.7625z" fill="#fafafa"/><path d="m2.1166667 291.44373v.52917h-1.3229167v.26458h1.3229167v.79375h-1.3229167v.26459h1.3229167v.79375h-1.3229167v.26458h1.3229167v.79375h-1.3229167v.26458h1.3229167v.79375h.2645833v-.79375h1.5875v.79375h.2645834v-.79375h1.3229166v-.26458h-1.3229166v-.79375h1.3229166v-.26458h-1.3229166v-.79375h1.3229166v-.26459h-1.3229166v-.79375h1.3229166v-.26458h-1.3229166v-.52917h-.2645834v.52917h-1.5875v-.52917zm.2645833.79375h1.5875v.79375h-1.5875zm0 1.05834h1.5875v.79375h-1.5875zm0 1.05833h1.5875v.79375h-1.5875z" fill="#797774"/><path d="m.79375 291.17915c-.14657916 0-.26458333.118-.26458333.26458v.52917.26458 3.96875c0 .14658.11800417.26459.26458333.26459h4.7625c.1465792 0 .2645834-.11801.2645834-.26459v-3.96875-.79375c0-.14658-.1180042-.26458-.2645834-.26458zm0 .26458h1.3229167.2645833 1.5875.2645834 1.3229166v.52917.26458.79375.26459.79375.26458.79375.26458.79375h-1.3229166-.2645834-1.5875-.2645833-1.3229167v-.79375-.26458-.79375-.26458-.79375-.26459-.79375-.26458z" fill="#0063b1"/></g></svg>