<svg viewBox="0 0 24 24" xmlns="http://www.w3.org/2000/svg"><path d="m3 3v16h1v-14c0-.554.446-1 1-1h10v-1zm2 2v16h4v-12h8v-4z" fill="#fafafa"/><path d="m3 2c-.554 0-1 .446-1 1v16c0 .554.446 1 1 1h1v1c0 .554.446 1 1 1h4v-1h-4v-1-1-10-4h12v4h1v-4c0-.554-.446-1-1-1h-1v-1c0-.554-.446-1-1-1zm0 1h12v1h-10c-.554 0-1 .446-1 1v14h-1z" fill="#3a3a38"/><g transform="translate(8 9)"><rect fill="#922e9b" height="12" rx="0" ry=".5" width="12" x="2" y="1"/><g fill="#fafafa" transform="translate(-11 -12)"><path d="m15 14h8v3h-8z"/><path d="m17 21c-.554 0-1 .446-1 1v1c0 .554.446 1 1 1v-2h1v2h3c.554 0 1-.446 1-1v-1c0-.554-.446-1-1-1z"/></g><path d="m3 6v6h1v-3c0-.554.446-1 1-1h6c.554 0 1 .446 1 1v3h1v-6h-1-8z" fill="#d492d8"/></g></svg>