<svg viewBox="0 0 24 24" xmlns="http://www.w3.org/2000/svg"><path d="m5 3v18h5.699219l-1.4472659-2.167969v-.001953c-.3747526-.563711-.3212446-1.320629.1289063-1.826172h-.0019532l3.9941408-4.498047c.288261-.33146.709192-.520425 1.148437-.515625h.001954c.025749.00037.048758.010019.074218.011719v-.001953h4.402344v-5.2714844l-4-3.7285156z" fill="#fafafa"/><path d="m5 2c-.554 0-1 .446-1 1v18c0 .554.446 1 1 1h6.365234l-.666015-1h-5.699219v-18h9v4c0 .554.446 1 1 1h4v4h1v-1.109375-3.640625-.2089844c0-.4506799.098038-.4254121-.605469-1.0664062l-3.30664-3.2382813c-.709525-.7368575-.710169-.7363281-1.09375-.7363281h-.332032-.662109z" fill="#3a3a38"/><path d="m15 7h4l-4-4z" fill="#fafafa" fill-rule="evenodd"/><g fill="none" stroke="#1e8bcd" stroke-linecap="round"><path d="m17.502922 13.493488-2 9"/><g stroke-linejoin="round"><path d="m18.50505 22.49495 4-4.49495-3.00505-4.50505"/><path d="m13.5 22.49495-3.000017-4.49495 4-4.50505"/></g></g></svg>