<?xml-stylesheet type="text/css" href="icons.css" ?>
<svg viewBox="0 0 24 24" xmlns="http://www.w3.org/2000/svg">
  <path
	 class="icn icn--line-color" 
     d="m 7.500001,2.5 h 14 z m 0,3 h 8 z m 0,5 h 14 z m 0,3 h 6 z m 0,5 h 4 z m 0,3 H 12.5 Z"
     stroke="#3a3a38" 
	 stroke-linecap="round" 
	 stroke-linejoin="round"
     />
  <path
	 class="icn icn--highlight-color" 
     d="M 17.410156 13.5 L 16.994141 15.574219 L 15.236328 14.400391 L 14.400391 15.236328 L 15.574219 16.994141 L 13.5 17.410156 L 13.5 18.589844 L 15.574219 19.005859 L 14.400391 20.763672 L 15.236328 21.599609 L 16.994141 20.425781 L 17.410156 22.5 L 18.589844 22.5 L 19.005859 20.425781 L 20.763672 21.599609 L 21.599609 20.763672 L 20.425781 19.005859 L 22.5 18.589844 L 22.5 17.410156 L 20.425781 16.994141 L 21.599609 15.236328 L 20.763672 14.400391 L 19.005859 15.574219 L 18.589844 13.5 L 17.410156 13.5 z M 18 16.5 A 1.5 1.5 0 0 1 19.5 18 A 1.5 1.5 0 0 1 18 19.5 A 1.5 1.5 0 0 1 16.5 18 A 1.5 1.5 0 0 1 18 16.5 z "
     fill="#83beec" 
     stroke="#1e8bcd" 
	 stroke-linecap="round" 
	 stroke-linejoin="round"
     />
  <path
	 class="icn icn--highlight-color" 
     d="M 4,2.5 A 1.5,1.5 0 0 0 2.5,4 1.5,1.5 0 0 0 4,5.5 1.5,1.5 0 0 0 5.5,4 1.5,1.5 0 0 0 4,2.5 Z m 0,8 A 1.5,1.5 0 0 0 2.5,12 1.5,1.5 0 0 0 4,13.5 1.5,1.5 0 0 0 5.5,12 1.5,1.5 0 0 0 4,10.5 Z m 0,8 A 1.5,1.5 0 0 0 2.5,20 1.5,1.5 0 0 0 4,21.5 1.5,1.5 0 0 0 5.5,20 1.5,1.5 0 0 0 4,18.5 Z"
     fill="#83beec" 
     stroke="#1e8bcd" 
	 stroke-linecap="round" 
	 stroke-linejoin="round"
     />
</svg>
