<svg viewBox="0 0 24 24" xmlns="http://www.w3.org/2000/svg"><path d="m5 3v3.7285156 5.2714844 9h6.226562.773438v-4c0-1.090703.909297-2 2-2v-1c0-2.197294 1.802706-4 4-4 .346993 0 .678233.060164 1 .144531v-3.4160154l-4-3.7285156h-6zm13 10c-.564128 0-1 .435872-1 1v1h2v-1c0-.564128-.435872-1-1-1z" fill="#fafafa"/><path d="m5 2c-.554 0-1 .446-1 1v18c0 .554.446 1 1 1h7v-1h-7v-18h9v4c0 .554.446 1 1 1h4v2.144531c.355789.093288.689331.233855 1 .416016v-3.310547-.2089844c0-.4506799.098038-.4254121-.605469-1.0664062l-3.30664-3.2382813c-.709525-.7368575-.710169-.7363281-1.09375-.7363281h-.332032-.662109z" fill="#3a3a38"/><path d="m15 7h4l-4-4z" fill="#fafafa" fill-rule="evenodd"/><path d="m7.5 5c-.277 0-.5.223-.5.5s.223.5.5.5h4c.277 0 .5-.223.5-.5s-.223-.5-.5-.5zm0 4c-.277 0-.5.223-.5.5s.223.5.5.5h2c.277 0 .5-.223.5-.5s-.223-.5-.5-.5zm0 6c-.277 0-.5.223-.5.5s.223.5.5.5h3c.277 0 .5-.223.5-.5s-.223-.5-.5-.5zm4.974609 0c-.262915 0-.474609.211694-.474609.474609v.050782c0 .201977.125622.370688.302734.439453.268517-.433865.695502-.758846 1.197266-.892578v-.072266h-.726562z" fill="#797774"/><path d="m12.5 9c-.277 0-.5.223-.5.5s.223.5.5.5h4c.277 0 .5-.223.5-.5s-.223-.5-.5-.5zm-5 3c-.277 0-.5.223-.5.5s.223.5.5.5h6c.277 0 .5-.223.5-.5s-.223-.5-.5-.5zm-.0253906 6c-.2629151 0-.4746094.211694-.4746094.474609v.050782c0 .262915.2116943.474609.4746094.474609h4.0507816c.262915 0 .474609-.211694.474609-.474609v-.050782c0-.262915-.211694-.474609-.474609-.474609z" fill="#fb983b"/><path d="m18 11c-1.656854 0-3 1.343146-3 3v2h-1c-.554 0-1 .446-1 1v5c0 .554.446 1 1 1h8c.554 0 1-.446 1-1v-5c0-.554-.446052-1.007599-1-1h-1v-2c0-1.656854-1.343146-3-3-3zm0 1c1.104569 0 2 .895431 2 2v2h-4v-2c0-1.104569.895431-2 2-2z" fill="#ed8733"/><path d="m14 17h8v5h-8z" fill="#f8db8f"/><path d="m18 17c-1.104569 0-2 .895431-2 2v3h3v-1h1v-1-1c0-1.104569-.895431-2-2-2z" fill="#ed8733"/><path d="m18 18c-.552285 0-1 .447715-1 1v2h1v-1l1-.0038v-.9962c0-.552285-.447715-1-1-1z" fill="#fafafa"/></svg>