<svg viewBox="0 0 24 24" xmlns="http://www.w3.org/2000/svg"><path d="m5 4c-.554 0-1 .446-1 1v5.582031 10.417969c0 .554.446 1 1 1h6.998047v-10.142578c0-.006.0019-.01159.002-.01758.000059.006.002.01158.002.01758v10.142578h6.997953c.554 0 1-.446 1-1v-10.417969-5.582031c0-.554-.446-1-1-1h-2v3h-10v-3z" fill="#ed8733"/><path d="m5 5v4.9980469 11.0019531h6.998047v-9.142578c0-.006.0019-.01159.002-.01758.000059.006.002.01158.002.01758v9.142578h6.997953v-11.0019531-4.9980469h-2v2h-10v-2z" fill="#f8db8f"/><path d="m6 6v3.9980469 10.0019531h5.998047v-8.142578c0-.006.0019-.01159.002-.01758.000059.006.002.01158.002.01758v8.142578h5.997953v-10.0019531-3.9980469h-1v1h-10v-1z" fill="#fafafa"/><g fill="#3a3a38"><path d="m12 2c-1.1046 0-2 .89543-2 2h-2v2h8v-2h-2c0-.13807-.005-.27605-.03125-.40625-.18649-.91137-1.00215-1.59375-1.96875-1.59375zm0 1c.41421 0 .75444.26608.90625.625.0506.11964.09375.23693.09375.375 0 .55228-.44771 1-1 1s-1-.44772-1-1 .44771-1 1-1z"/><path d="m8 8v1h8v-1zm0 3v1h8v-1zm0 3v1h8v-1zm0 3v1h7v-1z"/></g></svg>