<svg viewBox="0 0 24 24" xmlns="http://www.w3.org/2000/svg"><path d="m10 2c-3.3137085 0-6 2.6862915-6 6 0 3.313708 2.6862915 6 6 6h1v8h1v-3-1-1-14h2v10.515625l.464844-.464844a1.0001 1.0001 0 0 1 .535156-.277343v-9.773438h1 3v-1z" fill="#3a3a38"/><path d="m17 13-.349609 1.744141-1.478516-.986329-.707031.707032-.707032.707031.986329 1.478516-1.744141.349609v1 1l1.744141.349609-.986329 1.478516.707032.707031.707031.707032 1.478516-.986329.349609 1.744141h1 1l.349609-1.744141 1.478516.986329.707031-.707032.707032-.707031-.986329-1.478516 1.744141-.349609v-1-1l-1.744141-.349609.986329-1.478516-.707032-.707031-.707031-.707032-1.478516.986329-.349609-1.744141h-1zm.800781 1h.398438l.300781 1.5h.535156l.378906.378906 1.273438-.847656.28125.28125-.847656 1.273438.378906.378906v.535156l1.5.300781v.398438l-1.5.300781v.535156l-.378906.378906.847656 1.273438-.28125.28125-1.273438-.847656-.378906.378906h-.535156l-.300781 1.5h-.398438l-.300781-1.5h-.535156l-.378906-.378906-1.273438.847656-.28125-.28125.847656-1.273438-.378906-.378906v-.535156l-1.5-.300781v-.398438l1.5-.300781v-.535156l.378906-.378906-.847656-1.273438.28125-.28125 1.273438.847656.378906-.378906h.535156zm.199219 2a2 2 0 0 0 -2 2 2 2 0 0 0 2 2 2 2 0 0 0 2-2 2 2 0 0 0 -2-2zm0 1a1 1 0 0 1 1 1 1 1 0 0 1 -1 1 1 1 0 0 1 -1-1 1 1 0 0 1 1-1z" fill="#1e8bcd"/><path d="m17.800781 14h.398438l.300781 1.5h.535156l.378906.378906 1.273438-.847656.28125.28125-.847656 1.273438.378906.378906v.535156l1.5.300781v.398438l-1.5.300781v.535156l-.378906.378906.847656 1.273438-.28125.28125-1.273438-.847656-.378906.378906h-.535156l-.300781 1.5h-.398438l-.300781-1.5h-.535156l-.378906-.378906-1.273438.847656-.28125-.28125.847656-1.273438-.378906-.378906v-.535156l-1.5-.300781v-.398438l1.5-.300781v-.535156l.378906-.378906-.847656-1.273438.28125-.28125 1.273438.847656.378906-.378906h.535156zm.199219 2c-1.104569 0-2 .895431-2 2s.895431 2 2 2 2-.895431 2-2-.895431-2-2-2z" fill="#fafafa"/></svg>