<svg viewBox="0 0 24 24" xmlns="http://www.w3.org/2000/svg"><g fill="#3a3a38" transform="scale(-1 1)"><rect height="1" ry=".5" width="14.999998" x="-22" y="2"/><rect height="1" ry=".392136" width="15.000005" x="-22" y="10"/><rect height="1" ry=".436441" width="15.000001" x="-22" y="18"/><rect height="1" ry=".5" width="8.999999" x="-16" y="21"/><rect height="1" ry=".5" width="8.999999" x="-16" y="13"/><rect height="1" ry=".5" width="9.000002" x="-16" y="5"/></g><g fill="#1e8bcd"><path d="m4 12h1v4h-1z"/><path d="m4 10h1v1h-1z"/><path d="m2 12h1v4h-1z"/><path d="m2 10h1v1h-1z"/><path d="m4 4h1v4h-1z"/><path d="m4 2h1v1h-1z"/><path d="m4 20h1v4h-1z"/><path d="m4 18h1v1h-1z"/><path d="m2 20h1v4h-1z"/><path d="m2 18h1v1h-1z"/><path d="m0 20h1v4h-1z"/><path d="m0 18h1v1h-1z"/></g></svg>