<?xml-stylesheet type="text/css" href="icons.css" ?>
<svg viewBox="0 0 24 24" xmlns="http://www.w3.org/2000/svg">
  <g id="background"
     class="icn icn--area-color"
     fill="#fafafa"
     stroke="#3a3a38" 
	 stroke-linecap="round" 
	 stroke-linejoin="round"
     >
      <path d="m 20.5,13.5 c 0,4.9 -4,9 -9,9 -4.9,0 -9,-4 -9,-9 -10e-8,-4.9 4,-9 9,-9 4.9,0 9,4 9,9 z" />
      <path d="m 11.5,8.5 v 4 z m 0,6 v 2 z" />
      <path d="m 21.5,8.5 -5,-5" />
      <path d="m 9.5,4.5 v -2 h 4 v 2 z" />
      <path d="M 18,7 19,6" />
  </g>
  <g id="symbol"
	 class="icn icn--highlight-color"  
     fill="#83beec" 
     stroke="#1e8bcd" 
	 stroke-linecap="round" 
	 stroke-linejoin="round"
      >
      <path d="m 12.5,13.5 a 1,1 0 0 1 -1,1 1,1 0 0 1 -1,-1 1,1 0 0 1 1,-1 1,1 0 0 1 1,1 z" />
      <path d="m 11.5,8.5 v 4 z m 0,6 v 2 z" />
  </g>
</svg>
