<svg viewBox="0 0 24 24" xmlns="http://www.w3.org/2000/svg"><path d="m2.9492188 2c-.5263 0-.9492188.4229188-.9492188.9492188v10.1015622c0 .5263.4229188.949219.9492188.949219h10.1015622c.5263 0 .949219-.422919.949219-.949219v-6.9609372l-.943359-.7285157a1.0001 1.0001 0 0 1 -.056641-.0488281v7.6875h-10v-10h10v.828125a1.0001 1.0001 0 0 1 .056641-.0488281l.927734-.7148438.015625-.0136719v-.1015624c0-.5263001-.422919-.9492188-.949219-.9492188z" fill="#3a3a38"/><path d="m3 3v10h10v-7.6875a1.0001 1.0001 0 0 1 -.195312-.2402344 1.0001 1.0001 0 0 1 -.123047-.3417968c-.0008-.004572-.001279-.0090919-.001953-.0136719a1.0001 1.0001 0 0 1 .013671-.3652344 1.0001 1.0001 0 0 1 .154297-.3515625 1.0001 1.0001 0 0 1 .152344-.171875v-.828125z" fill="#fafafa"/><path d="m9.9492188 9c-.5263002 0-.9492188.4229187-.9492188.9492188v7.0507812.142578l1 .773438v-7.916016h9.050781c.152747-.2991674.241992-.6380819.263672-1h-4.314453zm11.0507812 1v11h-11v-.058594l-.0078125.007813-.7773437.599609c.164203.262312.398237.451172.734375.451172h2.0507812 9.050781c.5263 0 .949219-.422919.949219-.949219v-3.050781-8a1.0001 1.0001 0 0 1 -.007812 0zm-11.7851562 11.548828c-.0928941-.148397-.1689968-.313494-.2148438-.498047.0458471.184553.1219497.34965.2148438.498047z" fill="#ed8733"/><path d="m10 10v7.916016l.935547.722656a1.0001 1.0001 0 0 1 .251953.289062 1.0001 1.0001 0 0 1 .123047.341797c.0008.00457.001278.009072.001953.013672a1.0001 1.0001 0 0 1 -.013672.365235 1.0001 1.0001 0 0 1 -.154297.351562 1.0001 1.0001 0 0 1 -.208984.220703l-.927735.714844-.007812.005859v.058594h11v-11z" fill="#f8db8f"/><g fill="#1e8bcd"><path d="m17 2-3.332031 2.570312 3.332031 2.574219v-1.714843c1.839983 0 3.332031 1.531781 3.332031 3.425781 0 .04947-.01166.09557-.01367.144531h1.673829c.0013-.04852.0078-.09569.0078-.144531 0-2.84-2.238026-5.140625-5-5.140625z"/><path d="m6.99219 22 3.332031-2.570312-3.332031-2.574219v1.714843c-1.839983 0-3.332031-1.531781-3.332031-3.425781 0-.04947.01166-.09557.01367-.144531h-1.673829c-.0013.04852-.0078.09569-.0078.144531 0 2.84 2.238026 5.140625 5 5.140625z"/></g></svg>