<svg viewBox="0 0 24 24" xmlns="http://www.w3.org/2000/svg"><path d="m5 3v18h7.310547l1.140625-3.423828c.210479-2.17026 1.954743-3.914519 4.125-4.125l1.423828-.47461v-9.976562z" fill="#fafafa"/><path d="m5 2c-.554 0-1 .446-1 1v18c0 .554.446 1 1 1h7.019531c.013442-.086651.016223-.172864.044922-.259766.0007-.0013.001284-.002606.001953-.003906l.244141-.736328h-7.310547v-18h14v9.976562l1-.332031v-9.644531c0-.554-.446-1-1-1z" fill="#3a3a38"/><path d="m12 5v1h6v-1zm0 3v1h6v-1zm-6 3v1h12v-1zm0 3v1h8.576172c.354091-.402707.774118-.739267 1.246094-1zm0 3v1h7.310547l.140625-.423828c.018902-.194904.042953-.388798.085937-.576172z" fill="#797774"/><path d="m6 5h4v4h-4z" fill="#797774"/><path d="m22.279297 13c-.0744.000902-.148211.01342-.21875.03711l-4.228516 1.408203c-1.797579.09066-3.296061 1.589137-3.386719 3.386719l-1.408203 4.228516c-.184023.557236.345108 1.086367.902344.902344l4.228516-1.408203c1.797579-.09066 3.296061-1.589137 3.386719-3.386719l1.408203-4.228516c.154288-.464669-.193996-.943311-.683594-.939454zm-4.279297 3a2 2 0 0 1 1.433594.607422 2 2 0 0 1 .132812.148437 2 2 0 0 1 .433594 1.244141 2 2 0 0 1 -2 2 2 2 0 0 1 -.396484-.03906 2 2 0 0 1 -.002 0 2 2 0 0 1 -1.384719-1.05469 2 2 0 0 1 -.08008-.181641 2 2 0 0 1 -.10742-.384765 2 2 0 0 1 -.029297-.339844 2 2 0 0 1 .470703-1.289062 2 2 0 0 1 .136719-.146485 2 2 0 0 1 1.392578-.564453z" fill="#1e8bcd"/></svg>