<svg viewBox="0 0 24 24" xmlns="http://www.w3.org/2000/svg"><path d="m2 3v5h7v-5zm1 1h5v3h-5zm-1 6v5h7v-5zm13 0v5h7v-5zm-12 1h5v3h-5zm13 0h5v3h-5zm-14 6v5h7v-5zm1 1h5v3h-5z" fill="#3a3a38"/><path d="m3 4v3h5v-3zm0 7v3h5v-3zm13 0v3h5v-3zm-13 7v3h5v-3z" fill="#fafafa"/><path d="m9.4941406 4.9941406c-.4494023.0000914-.6705869.5468399-.3476562.859375l3.4999996 3.5-1.646484 1.6464844h4v-4l-1.646484 1.6464844-3.5000004-3.5c-.0942073-.0973688-.2238918-.1523438-.359375-.1523438zm1.5058594 9.0058594 1.646484 1.646484-3.4999996 3.5c-.3229307.312535-.1017461.859284.3476562.859375.1354831 0 .2651676-.05497.359375-.152343l3.5000004-3.5 1.646484 1.646484v-4z" fill="#1e8bcd"/></svg>