<?xml-stylesheet type="text/css" href="icons.css" ?>
<svg viewBox="0 0 24 24" xmlns="http://www.w3.org/2000/svg">
  <g id="background"
     class="icn icn--area-color"
     fill="#fafafa"
     stroke="#3a3a38"
     stroke-linecap="round"
     stroke-linejoin="round"
     >
      <path d="m 4.5,21.5 h 15 V 7 L 15,2.5 H 4.5 Z" />
      <path d="m 14.5,7.5 h 5 V 7 L 15,2.5 h -0.5 z" />
  </g>
  <g id="symbol"
	 class="icn icn--highlight-color"  
     fill="#83beec" 
     stroke="#1e8bcd" 
	 stroke-linecap="round" 
	 stroke-linejoin="round"
      >
      <path d="m 14.5,9.5 c -0.5,0 -1,0.4 -1,1 0,0.5 0.4,1 1,1 0.5,0 1,-0.4 1,-1 0,-0.5 -0.4,-1 -1,-1 z m -3.5,2 c -0.3,0 -0.5,0.2 -0.5,0.5 0,0.3 0.2,0.5 0.5,0.5 0.3,0 0.5,-0.2 0.5,-0.5 0,-0.3 -0.2,-0.5 -0.5,-0.5 z m -3.5,2 c -0.5,0 -1,0.4 -1,1 0,0.5 0.43,1 1,1 0.5,0 1,-0.4 1,-1 0,-0.5 -0.43,-1 -1,-1 z m 3.5,3 c -0.3,0 -0.5,0.2 -0.5,0.5 0,0.3 0.2,0.5 0.5,0.5 0.3,0 0.5,-0.2 0.5,-0.5 0,-0.3 -0.2,-0.5 -0.5,-0.5 z m 3.5,1 c -0.5,0 -1,0.4 -1,1 0,0.5 0.4,1 1,1 0.5,0 1,-0.4 1,-1 0,-0.5 -0.4,-1 -1,-1 z" />
  </g>
</svg>
