<svg viewBox="0 0 24 24" xmlns="http://www.w3.org/2000/svg"><path d="m10 2c-2.9999977 1.2902292-5.0000014 1.5095623-8 2v9.333984c.4199208 2.939447 3.9056694 5.075371 6.859375 6.939454l-.5664062-.566407a1.0001 1.0001 0 0 1 0-1.414062l1-1a1.0001 1.0001 0 0 1 1.4140622 0l1.984375 1.984375c.723231-.471384 1.436468-.963664 2.101563-1.484375l2.287109-2.28711c.475761-.675942.808995-1.395389.919922-2.171875v-9.333984c-2.999999-.4904377-5.000002-.7097708-8-2z" fill="#d42314"/><path d="m10 2.9941406c-2.5890646 1.0621641-4.5743242 1.6187161-7 2.0058594v8c.1912676 1.272713 1.1469254 2.735052 2.609375 3.910156.7515748.603903 1.5999816 1.170145 2.4628906 1.722656.049607-.127154.1247162-.242809.2207032-.339843l1-1c.3905298-.390368 1.0235322-.390368 1.4140622 0l1.292969 1.292969c.837712-.537883 1.660297-1.088951 2.390625-1.675782 1.46245-1.175104 2.418107-2.637443 2.609375-3.910156v-8c-2.425676-.3871433-4.410935-.9436954-7-2.0058594z" fill="#ff9198"/><path d="m10 4.984375c-1.104569 0-1 .6871985-1 1.515625 0 1.5000002 0 3 .3339844 6.484375h.6660156.666016c.333984-3.484375.333984-4.9843748.333984-6.484375 0-.8284265.104569-1.515625-1-1.515625zm0 9.015625a1 1 0 0 0 -1 1 1 1 0 0 0 1 1 1 1 0 0 0 1-1 1 1 0 0 0 -1-1z" fill="#3a3a38"/><path d="m10 18-.9999999 1 3.9999999 4 10-10-1-1-9 9z" fill="#18ab50"/></svg>