<svg viewBox="0 0 24 24" xmlns="http://www.w3.org/2000/svg"><path d="m14 4-8 4 4.601562 9.203125a1.0001 1.0001 0 0 1 .105469.089844l.56836.568359 6.896484-3.447266.689453-.689453z" fill="#3a3a38"/><path d="m13.492188 5.3007812a.17855016.17855016 0 0 0 -.06445.017578l-6.0293005 3.013672a.17855016.17855016 0 0 0 -.080078.2402344l4.0136716 8.0292964a.17855016.17855016 0 0 0 .240235.08008l6.029296-3.013672a.17855016.17855016 0 0 0 .08008-.240235l-4.0136731-8.0292975a.17855016.17855016 0 0 0 -.175781-.097656z" fill="#fafafa"/><ellipse cx="12" cy="19.725481" fill="none" rx="10" ry="2.274613"/><path d="m9 6h-4c-1 0-2 1-2 2.276478v5.723522l1.9530342-1.831665c.3469667-1.432286-.3011656-3.3499307 1.0469658-4.668335z" fill="#0063b1" fill-rule="evenodd"/><g fill="none" stroke="#3a3a38"><path d="m5.9560329 9.040016 5.3390121 9.387521c.410089.65506 1.069393.906864 1.704955.572463l6.896454-3.134542c.589382-.407352.86271-1.172428.486324-1.842477l-5.34511-9.3982373z" stroke="none"/><path d="m12.5 9.5.01862-4.918522c.01097-2.8972595 4.017559-3.1163609 4-.1877732l-.01862 3.1062952" stroke="#3a3a38" stroke-linecap="round"/></g><g fill-rule="evenodd"><path d="m9 6h-4c-1 0-2 1-2 2.276478v7.723522l1.9530342-1.831665c.3469667-1.432286-.3011656-5.3499307 1.0469658-6.668335z" fill="#0063b1"/><path d="m5 6.9882812c-.3404757 0-1.0117188.5288127-1.0117188 1.2890626v5.4414062l.017578-.01563c.075461-.488479.059369-3.144667.109375-3.9707031.052146-.861387.3104392-1.8919074 1.0703125-2.7441407z" fill="#83beec"/></g><path d="m10 18-.9999999 1 3.9999999 4 10-10-1-1-9 9z" fill="#1e8bcd"/></svg>