<svg viewBox="0 0 24 24" xmlns="http://www.w3.org/2000/svg"><rect fill="#922e98" height="20" rx="0" ry="1" width="20" x="2" y="2"/><path d="m3 3h18v18h-18z" fill="#d492d8"/><path d="m4 2c-.554 0-1 .446-1 1v8c0 .554.446 1 1 1h16c.554 0 1-.446 1-1v-8c0-.554-.446-1-1-1zm3 12c-.554 0-1 .446-1 1v6c0 .554.446 1 1 1h11c.554 0 1-.446 1-1v-6c0-.554-.446-1-1-1z" fill="#922e98"/><path d="m5 3c-.554 0-1 .446-1 1v6c0 .554.446 1 1 1h14c.554 0 1-.446 1-1v-6c0-.554-.446-1-1-1zm3 12c-.554 0-1 .446-1 1v4c0 .554.446 1 1 1h2v-5h2v5h5c.554 0 1-.446 1-1v-4c0-.554-.446-1-1-1z" fill="#fafafa"/></svg>