<?xml-stylesheet type="text/css" href="icons.css" ?>
<svg viewBox="0 0 24 24" xmlns="http://www.w3.org/2000/svg">
  <path
	 class="icn icn--shape-color" 
     d="m12 3.5053088c-1.708323 0-3.1410886 1.2408975-3.4863316 2.8821275-.5561108-.2825513-1.191318-.4550728-1.8544322-.4550728-2.2941508 0-4.1539275 1.9016015-4.1539275 4.2473455 0 1.46609.7123914 2.763535 1.8173433 3.526814-1.078545.625607-1.8173433 1.789124-1.8173433 3.147586 0 2.010638 1.5940943 3.640582 3.5605093 3.640582.9166965 0 1.7425798-.366188 2.373673-.948067.6310911.581878 1.4569794.948067 2.373673.948067 1.708317 0 3.141089-1.240902 3.486331-2.882127.55611.282552 1.191318.455073 1.854433.455073 2.294151 0 4.153927-1.901601 4.153927-4.247346 0-.837039-.258749-1.61765-.667596-2.275363 1.101927-.618895 1.854432-1.8092484 1.854432-3.1855099 0-2.0106379-1.594094-3.640582-3.560509-3.640582-1.039598 0-1.982357.4490645-2.633294 1.1756046-.505094-1.3823024-1.772819-2.3891319-3.300888-2.3891319z"
     fill="#fafafa" 
	 stroke="#3a3a38" 
	 stroke-linecap="round" 
	 stroke-linejoin="round"
     />
</svg>
