<svg viewBox="0 0 24 24" xmlns="http://www.w3.org/2000/svg"><path d="m3 10h5v5h-5z" fill="#fafafa"/><path d="m14 1v5h7v-5zm1 1h5v3h-5zm-1 5v5h7v-5zm1 1h5v3h-5zm-1 5v5h7v-5zm1 1h5v3h-5zm-1 5v5h7v-5zm1 1h5v3h-5z" fill="#3a3a38"/><path d="m15 2v3h5v-3zm0 6v3h5v-3zm0 6v3h5v-3zm0 6v3h5v-3z" fill="#fafafa"/><path d="m3 12h5v1h-5z" fill="#d42314" stroke-width="1.290994"/><path d="m5.5 1c-.277 0-.5.223-.5.5v6c0 .277.223.5.5.5s.5-.223.5-.5v-5.5h5.5c.277 0 .5-.223.5-.5s-.223-.5-.5-.5z" fill="#1e8bcd"/><path d="m5.5 24c-.277 0-.5-.223-.5-.5v-6c0-.277.223-.5.5-.5s.5.223.5.5v5.5h5.5c.277 0 .5.223.5.5s-.223.5-.5.5z" fill="#1e8bcd"/><path d="m2 9v7h7v-7zm1 1h5v5h-5z" fill="#d42314"/></svg>