<svg viewBox="0 0 24 24" xmlns="http://www.w3.org/2000/svg"><path d="m9.5 3a6.5 6.5 0 0 0 -3.4570312 1h.9570312a1.0001 1.0001 0 0 1 1 1v1h1a1.0001 1.0001 0 0 1 1 1v1a1.0001 1.0001 0 0 1 -1 1h-1v1a1.0001 1.0001 0 0 1 -1 1h-1a1.0001 1.0001 0 0 1 -1-1v-1h-1a1.0001 1.0001 0 0 1 -.9042969-.5742188 6.5 6.5 0 0 0 -.0957031 1.0742188 6.5 6.5 0 0 0 6.5 6.5 6.5 6.5 0 0 0 5.474609-3h-3.974609a1.0001 1.0001 0 0 1 -1-1v-1a1.0001 1.0001 0 0 1 1-1h4a1.0001 1.0001 0 0 1 .908203.585938 6.5 6.5 0 0 0 .091797-1.085938 6.5 6.5 0 0 0 -6.5-6.5zm-4.4765625 1.7929688a6.5 6.5 0 0 0 -.9921875 1.2070312h.96875v-1a1.0001 1.0001 0 0 1 .0234375-.2070312z" fill="#fafafa"/><path d="m9.4667969 2a7.5 7.5 0 0 0 -7.5 7.5 7.5 7.5 0 0 0 7.5 7.5 7.5 7.5 0 0 0 4.5429691-1.542969l6.25 6.25c.942508.981667 2.395729-.471553 1.414062-1.414062l-6.248047-6.248047a7.5 7.5 0 0 0 1.541016-4.544922 7.5 7.5 0 0 0 -7.5000001-7.5zm.0332031 1a6.5 6.5 0 0 1 4.226562 1.5664062l-3.7949214 3.7949219a1.0001 1.0001 0 0 1 -.5703125.5703125l-1.4296875 1.4296874a1.0001 1.0001 0 0 1 -.5703125.570313l-2.7929687 2.792968a6.5 6.5 0 0 1 -1.5683594-4.224609 6.5 6.5 0 0 1 .0957031-1.0742188 1.0001 1.0001 0 0 1 -.0957031-.4257812v-1a1.0001 1.0001 0 0 1 1-1h.03125a6.5 6.5 0 0 1 .9921875-1.2070312 1.0001 1.0001 0 0 1 .9765625-.7929688h.0429688a6.5 6.5 0 0 1 3.4570312-1zm4.931641 2.2753906a6.5 6.5 0 0 1 1.568359 4.2246094 6.5 6.5 0 0 1 -.095703 1.074219 1.0001 1.0001 0 0 1 .095703.425781v1a1.0001 1.0001 0 0 1 -1 1h-.03125a6.5 6.5 0 0 1 -5.46875 3 6.5 6.5 0 0 1 -4.2265625-1.566406z"/><g fill="#1e8bcd"><path d="m11 11h4v1h-4z"/><path d="m6 5v2h-2v1h2v2h1v-2h2v-1h-2v-2z"/></g></svg>