<svg viewBox="0 0 24 24" xmlns="http://www.w3.org/2000/svg"><path d="m9.4667969 2c-4.1421356 0-7.5 3.3578644-7.5 7.5 0 4.142136 3.3578644 7.5 7.5 7.5 1.6424201-.003 3.2384431-.545088 4.5429691-1.542969l6.25 6.25c.942508.981667 2.395729-.471553 1.414062-1.414062l-6.248047-6.248047c.26116-.345926.491841-.71384.689453-1.09961-.249905-.06499-.4899-.189107-.685546-.384765l-4.992188-4.998047c-.143355-.143325-.255501-.314906-.330078-.5-.066687-.165444-.1093751-.357639-.1093751-.5625s.042688-.397056.1093751-.5625c.07458-.185056.186789-.356717.330078-.5l2.552734-2.5546875c-1.084401-.5785298-2.294364-.8816912-3.5234371-.8828125zm5.8496091 2.8085938-.189453.1894531h.330078c-.04588-.063885-.09276-.1270433-.140625-.1894531z" fill="#3a3a38"/><path d="m9.5 3c-3.5898509 0-6.5 2.9101491-6.5 6.5 0 3.589851 2.9101491 6.5 6.5 6.5 2.451301-.0024 4.692759-1.383702 5.796875-3.572266l-4.859375-4.865234c-.143355-.143325-.255501-.314906-.330078-.5-.066687-.165444-.1093751-.357639-.1093751-.5625s.042688-.397056.1093751-.5625c.07458-.185056.186789-.356717.330078-.5l1.814453-1.8183594c-.860939-.4053314-1.800374-.6166876-2.751953-.6191406z" fill="#fafafa"/><path d="m16.494141 1.001953c.127809 0 .25558.04855.353515.146485.195868.195869.195868.513115 0 .708984l-4.140625 4.142578h10.792969c.277 0 .5.223.5.5s-.223.5-.5.5h-10.792969l4.140625 4.142578c.195868.195869.195868.513116 0 .708984-.09793.09794-.225706.146485-.353515.146485s-.257539-.04855-.355469-.146485l-4.992188-4.998046c-.04702-.04701-.08408-.103236-.109375-.166016-.02334-.0579-.03711-.12105-.03711-.1875s.01377-.129596.03711-.1875c.0253-.06278.06236-.119003.109375-.166016l4.992189-4.998046c.09793-.09793.22766-.146485.355468-.146485z" fill="#1e8bcd"/></svg>