<svg viewBox="0 0 16 16" xmlns="http://www.w3.org/2000/svg">

/&amp;amp;gt;<path d="m5.0410156 4.9824219-5.0410156 9.9296871h1.0351562c.1108435 0 .2092703-.029383.2949219-.089843.085652-.0655.1491465-.140912.1894531-.226563l1.2792969-2.595703h4.125l.6328125 2.595703c.025192.100768.071221.178955.1367188.234375.065498.05542.1583769.082031.2792968.082031h1.0292969l-2.6074219-9.9296871zm.5292969 1.2460937c.025192.18138.0518012.3524453.0820313.5136719.035268.1561882.0666048.2950957.0917968.4160156l.9355469 3.8417969h-3.3867187l1.890625-3.8339844c.0554216-.1209199.1161423-.2626016.1816406-.4238281.0654983-.1612266.1345415-.3322919.2050781-.5136719z" fill="#3a3a38"/><path d="m14.571572 14.903568h-.550426q-.209402 0-.281196-.101713-.0718-.107693-.05983-.257265l.107693-1.244442q-.22735.382905-.490598.694016-.257264.31111-.550426.532478-.287179.221367-.616238.341026-.323076.119657-.670084.119657-.382906 0-.694017-.137607-.30513-.137606-.526498-.400854-.215384-.26923-.3350423-.658119-.113675-.39487-.113675-.903417 0-.514528.137607-1.005126.1435893-.490596.3948713-.921365.257264-.436751.616238-.801709.358973-.3649557.795725-.6282029.436751-.2632474.945297-.4068369.508546-.1495723 1.058973-.1495723.394871 0 .777775.059829.382911.053849.741884.2094044zm-2.722217-.789743q.31111 0 .610256-.173504.299144-.179486.562391-.496579.26923-.317095.496581-.747863.233333-.430768.406836-.945297l.239316-1.9683723q-.137607-.029914-.281196-.035897-.143589-.011966-.281196-.011966-.568375 0-1.070938.2452985-.502563.2393148-.879485.6521358-.376923.406836-.59829.945297-.215384.53846-.215384 1.130767 0 1.40598 1.011109 1.40598z" fill="#3a3a38" stroke-width=".79165"/><g fill-rule="evenodd"><path d="m4 0h5l-3 3h2l-8 6 3-5h-2z" fill="#ed8733"/><path d="m4.5 1-1.5 2a1.0001 1.0001 0 0 1 .8574219 1.5136719l-.3730469.6230469 1.8515625-1.3886719a1.0001 1.0001 0 0 1 -.0429687-1.4550781l1.2929687-1.2929688z" fill="#f8db8f"/></g></svg>