<svg viewBox="0 0 16 16" xmlns="http://www.w3.org/2000/svg">/&amp;gt;<path d="m8.0744784.9762829-3.1864409 2.9491526 1.7140405.6271951.05 6.9596654-1.6114974.379241 2.949152 3.305085 3.1579744-3.427726-1.7841424-.522875.454675-6.4939823 1.2392904-.8774507z" fill="#fafafa"/><path d="m12.500398 4.5121168c.002072-.1353015-.050778-.2656665-.146484-.3613282l-4.0000004-4.00390622c-.1952649-.19518416-.5117663-.19518416-.7070312 0l-4.0000004 4.00390622c-.314778.3149974-.091803.8533412.353516.8535156h2v5.9921878h-2c-.445318.000175-.668293.538518-.353516.853515l4.0000004 4.003907c.1952649.195184.5117663.195184.7070312 0l4.0000004-4.003907c.09571-.09566.148556-.226027.146484-.361328-.0043-.273075-.226891-.492193-.5-.492187h-2c0-1.9973959 0-3.9947919 0-5.9921878h2c.273109.0000065.495706-.2191123.5-.4921874zm-1.707031-.5078126h-1.292969c-.2761309.0000276-.4999724.2238691-.5.5v.3007813 6.3906245.300782c.0000276.276131.2238691.499972.5.5h1.292969l-2.792969 2.796875-2.792969-2.796875h1.292969c.2761309-.000028.4999724-.223869.5-.5v-.300782c0-2.1302082 0-4.2604163 0-6.3906245v-.3007813c-.0000276-.2761309-.2238691-.4999724-.5-.5h-1.292969l2.792969-2.796875z" fill="#3a3a38"/></svg>