<svg viewBox="0 0 16 16" xmlns="http://www.w3.org/2000/svg" xmlns:xlink="http://www.w3.org/1999/xlink"><linearGradient id="a" gradientUnits="userSpaceOnUse" x1="11.003906" x2="11" y1="14.91016" y2="1"><stop offset="0" stop-color="#f6f6f6"/><stop offset="1" stop-color="#fafafa"/></linearGradient>




     /&amp;amp;amp;gt;
 <path d="m8.7773438.9765625c.0058802.00779688.0117396.01560941.0175781.0234375h-4.7949219v.0175781c-.533997.1270201-.8266138.4947912-1 .9824219v9.982422c-.06906.0014-.1282364.009602-.1933594.013672-.3736689-.03397-.716301.0484-1.0019531.210937-.6268889.267366-.86471507.984321-.8125 1.449219-.002239.03193-.01216485.063903-.01171875.095703.006895.491527.34398555.9582 1.14843745 1.152344.1609347.05069.3303102.08701.515625.09375.0514961.0019.1071945-.006013.1601563-.007813.0661824.002925.1249992.009594.1953125.009766h3.2148438l.5273437-2.138672a1.0023027 1.0023027 0 0 1 .2636719-.46875c.31556-.315357 2.8667245-2.8334769 4.5742186-4.5253905a1.0023027 1.0023027 0 0 1 .128906-.1601563l.320313-.3183593.015625-3.6445313c.07185-.00142.133578-.0093598.201172-.0136718.372474.0324179.713475-.048175.998047-.2109376.625266-.2675418 1.856872-.734843 1.804687-1.1992187.0022-.031933.012159-.0638951.011719-.0957031-.0065-.4611622-1.301378-.8963342-2.001953-1.109375-.04379-.013315-.08581-.0275765-.132813-.0390625-.163354-.052324-.336725-.09079708-.52539-.09765628-.05341-.00194199-.111028.00770163-.166016.00976563-.06434-.002776-.121219-.01155145-.189453-.01171875z" fill="url(#a)"/><path d="m4.25 0c-1.3070984 0-2.25 1.1080036-2.25 2.375v1.875 5.1425781 1.8046879c-1.07146171.240703-2 1.27521-2 2.427734 0 1.346001 1.1942339 2.375 2.5 2.375h3.4980469c.0000266-.08097.00986-.161633.029297-.240234l.1874999-.759766h-3.7148438c-.7653589 0-1.5-.649877-1.5-1.375 0-.09064.0116205-.180412.0332031-.267578.1510787-.610167.7971075-1.357422 1.4667969-1.357422h.5v-2.2148438-5.5351562-1.875c0-.8105224.4795984-1.375 1.25-1.375h4.4863281 3.7675779c.76536 0 2.496094.6498765 2.496094 1.375s-1.730931 1.3576694-2.496094 1.375h-.5v2.4648438 1.1972656l.960938-.9589844c.02703-.027.02524-.017857.03906-.029297v-1.8710936c1.071464-.2407031 2.996096-1.0252107 2.996096-2.1777344 0-1.3460015-1.262593-2.375-2.568359-2.375h-5.775391z"/><circle cx="2.5" cy="13.5" fill="#98989d" r="1.5"/><path d="m0 11v2.625.375h.04296875c.19830857 1.155777 1.27665455 2 2.45703125 2h3.4980469c-.0000159-.0033-.0000159-.0065 0-.0098.0006064-.03002.00256-.06.00586-.08984.00233-.02485.00559-.04961.00977-.07422.00381-.02228.00837-.04443.013672-.06641l.1874949-.75973h-3.7148438c-.0973966-.000134-.1926433-.011307-.2851562-.029297-.2783207-.054121-.5271343-.186577-.7285157-.373047-.189174-.165775-.3306617-.372307-.4101562-.597656h5.3847656l.28125-1.138672c.043546-.177353.1347191-.339438.2636719-.46875.0971267-.097064.9772812-.966474 1.4082031-1.392578h-5.4140625-1z" fill="#922e9b"/><path d="m1 12v1.5.169922h.0117188c.086307.75699.7263881 1.32903 1.4882812 1.330078.1023627.000007.2044573-.01046.3046875-.03125v.021484h3.4121094l.5253906-2.128906a1.0023027 1.0023027 0 0 1 .2636719-.46875c.0273633-.027346.3375085-.334081.3964844-.392578z" fill="#d492d8"/><path d="m14 .05273438v1.05078122c.189533.0691263.367347.1633377.513672.2988282.189174.1657756.330661.3723074.410156.5976562h-.923828v2 .8027344.1972656h2v-2.625-.375h-.035156c-.168921-.9906683-.989692-1.74952773-1.964844-1.94726562z" fill="#922e9b"/><path d="m13.416016 1c.171876.000857.422403.0449256.583984.1035156-.527274.186662-.921708.6426757-.988281 1.2265627h-.01172v.1699217 1.5 1h-.999999v-3h.0039c.211633-.598592.777207-.999109 1.41211-1z" fill="#f00"/><path d="m14 .05273438c-.975152.19773789-1.795927.95659732-1.964844 1.94726562h-.035156v.375 2.625h2v-.1972656-.8027344h-1v-1.5-.1699219h.011719c.013282-.1168576.049297-.2242185.08789-.3300781h-.023437c.054283-.15388.146365-.2925289.253906-.421875.010561-.0129858.022214-.0244939.033203-.0371094.041109-.0461956.075754-.097228.123047-.1386718.043472-.0402534.094066-.0701247.142578-.1035157.010673-.0075548.020375-.0161491.03125-.0234375.106119-.0685843.219102-.1278381.339844-.171875z" fill="#922e9b"/><path d="m14.021484 1.095703c-.536381.1839047-.943075.6476307-1.009765 1.234375h-.011719v.169922 1.5h2v-1.5-.1699219h-.01172c-.065537-.5748344-.451748-1.0418811-.966796-1.2343751z" fill="#d492d8"/><g fill="#fb983b"><path d="m13.804688 7.0683594c.171006-.1739438-.174941.1601863-1.386719 1.3476562l.01563.015625c.619714-.6142617 1.234361-1.2242057 1.371089-1.3632812zm-1.371094 1.3632812c-1.705556 1.6905364-4.4180608 4.3694234-4.7187502 4.6699214l-.7148438 2.898438 2.8554688-.757812 4.6835932-4.703126zm-.002 1.0078125 1.099609 1.0996089-4.0449219 4.0625-1.5039062.400391.3789062-1.535156c.3659391-.364052 2.4317849-2.404918 4.0703599-4.0273439z" fill="#0063b1"/><path d="m14.066406 7c-.142171 0-.283638.053302-.392578.1621094l-1.255859 1.2539062 2.134765 2.1367184 1.283204-1.2304684c.21788-.2175952.21788-.5675602 0-.7851562l-1.376954-1.375c-.108941-.108798-.250406-.1621094-.392578-.1621094zm0 .9941406.933594.9316406-.433594.4160157-.923828-.9257813z" fill="#0063b1"/><g fill="#83beec"><path d="m14.066406 7.9941406-.423828.421875.923828.9257813.433594-.4160157z"/><path d="m12.431641 9.4394531c-1.638575 1.6224259-3.7044208 3.6632919-4.0703129 4.0273439l-.3789062 1.535156 1.5039062-.400391 4.0449219-4.0625z"/></g></g></svg>