<svg viewBox="0 0 16 16" xmlns="http://www.w3.org/2000/svg">/&amp;gt;<path d="m8 0c-4.412355 0-8 3.5876537-8 8 0 4.412346 3.587645 8 8 8s8-3.587654 8-8c0-.2062778-.017507-.3933799-.029297-.5625l-.011719-.1855469-7.2109371-7.21093747-.1855469-.01171875c-.1691116-.01178518-.3562141-.02929688-.5625-.02929688zm0 1c.093698 0 .2033739.00855.3085938.015625l6.6757812 6.6757812c.007074.1052185.015625.2148916.015625.3085938 0 3.871904-3.128087 7-7 7s-7-3.128096-7-7c0-3.8719045 3.128087-7 7-7zm1.9902344 4.4960938a.50005.50005 0 0 0 -.34375.1503906l-5 4.9999996a.50005.50005 0 1 0 .7070312.707032l5.0000004-5.0000004a.50005.50005 0 0 0 -.3632816-.8574218z" fill="#1e8bcd"/><path d="m8 1 7 7v-7z" fill="none"/></svg>