<svg viewBox="0 0 16 16" xmlns="http://www.w3.org/2000/svg">
/&amp;amp;gt;<path d="m3 1v14h1.3554688l8.6445312-9.5722656v-1.7226563l-2.695312-2.7050781z" fill="#fafafa"/><path d="m3 0c-.554 0-1 .446-1 1v14c0 .554.446 1 1 1h.4511719l.9042969-1h-1.3554688v-14h6v3.5c0 .277.223.5.5.5h3.5v.4277344l1-1.1054688v-.6855468l-3.636719-3.6367188h-.863281zm7 1 3 3h-3z" fill="#3a3a38"/><rect fill="#18ab50" height="5" ry="1" width="4" y="8"/><path d="m7 8c-.554 0-1 .446-1 1v3c0 .313099.1511041.580579.375.763672l3.5839844-3.9687501c-.0966506-.4516001-.4776969-.7949219-.9589844-.7949219z" fill="#ed3d3b"/><path d="m15.5 5.0000003-9.5 10.4999997h9.5zm-2 5.4999997v.976392 2.023608h-2-.5z" fill="#f8db8f" fill-rule="evenodd" stroke="#ed8733"/></svg>