<svg viewBox="0 0 16 16" xmlns="http://www.w3.org/2000/svg"><path d="m6.2918289 15.866337q-.2360571 0-.3631647-.07129-.1271077-.07129-.1725032-.29406l-.1997406-.810888q-.3450065.311882-.6809338.561386-.3268484.240594-.690013.409901-.3631647.169308-.7808042.249505-.4176394.089109-.9169908.089109-.5175098 0-.9714657-.133663-.4448768-.142574-.78988329-.427723-.33592737-.29406-.53566797-.721782-.19066148-.436633-.19066148-1.024753 0-.516831.28145267-.989108.29053176-.481188.93514907-.855446.6446175-.374257 1.6796369-.605941 1.0350195-.240594 2.542153-.276237v-.668317q0-1.0158418-.4448767-1.5237626-.4357977-.5168317-1.2801556-.5168317-.5629054 0-.9533075.1425743-.381323.1425742-.6627757.3118812-.2814526.1693069-.4902722.3118812-.1997407.1425742-.4085604.1425742-.1634241 0-.28145261-.080198-.11802855-.0801981-.19066148-.2049505l-.29053178-.49901q.73540857-.6950495 1.57976657-1.0336633.853437-.3475248 1.8884565-.3475248.7444877 0 1.3255513.2405941.5810635.2316832.9714655.6683169.3904022.4366336.5901427 1.0425742.2088198.6059406.2088198 1.3455448v5.569307zm-3.3229571-.962377q.3994812 0 .7354085-.0802.3359274-.0802.6355383-.222773.2996109-.151485.5629052-.365346.2723736-.222772.535668-.490099v-1.8q-1.0622568.04456-1.8067444.178217-.7444877.124752-1.2166018.338615-.4630351.213861-.6718548.50792-.2088197.285149-.2088197.641584 0 .338614.1089494.588119.1180285.240594.30869.40099.1906616.151486.4539559.231683.2632945.07129.5629054.07129z" fill="#3a3a38"/><path d="m8 3v2.2070312c.0611143-.3150138.214703-.5832805.4179688-.7871093.2513062-.2520026.5940124-.4350235 1.0117187-.4511719.0691755-.0026743.1402838.0085942.2109375.0175781v-.9863281zm0 2.7597656v10.1132814h1.0625c.2424219 0 .3774771-.110679.4023438-.333985l.0917968-.789062c.3108002.392294.6646764.700523 1.0625004.923828.40404.217269.905216.326172 1.501953.326172.596736 0 1.134648-.114409 1.613281-.34375.478632-.22934.885039-.552315 1.220703-.96875.335665-.42247.595127-.926295.775391-1.511719.180264-.585421.269531-1.236879.269531-1.955078 0-.675951-.080571-1.2794414-.242188-1.8105468-.155115-.5361562-.382126-.9914342-.679687-1.3652343l-1.173828 1.171875c.266704.4992704.408203 1.1770371.408203 2.0566411 0 1.158773-.224323 2.031764-.671875 2.617187-.447553.585423-1.090526.878906-1.929687.878906-.410257 0-.787027-.07568-1.128907-.226562-.34188-.156918-.6554698-.426419-.941406-.806641v-4.2734374c.2648137-.3529016.557048-.6217028.865234-.8398437l-.599609-.5996094c-.0877123.0859619-.1830879.1590771-.265625.2539063v-.5175782l-1.2011719-1.1992187.0429688.0390625c-.2396655-.2134778-.4144821-.5229222-.4824219-.8398438z" fill="#3a3a38"/><path d="m12.496427 9.007162c-.152571-.00239-.2957-.074317-.388672-.195312l-.0039-.0059-2.9570315-2.9531251c-.5267392-.4691836.2344391-1.2324704.705078-.7070312l2.1523445 2.1484373v-6.7871098c-.0096-.6761613 1.009563-.6761613 1 0v6.7832038l2.140625-2.1445313c.471354-.4726558 1.180338.2343754.708984.7070312l-2.951172 2.9531651c-.0955.1281139-.246469.2028744-.406256.201172z" fill="#1e8bcd" fill-rule="evenodd"/></svg>