<svg viewBox="0 0 16 16" xmlns="http://www.w3.org/2000/svg">
/&amp;gt;<path d="m.5 0a.50001098.50001098 0 0 0 -.0371094.0019531.50001098.50001098 0 0 0 -.0488281.0058594.50001098.50001098 0 0 0 -.0136719.0019531.50001098.50001098 0 0 0 -.0273437.0058594.50001098.50001098 0 0 0 -.0058594.0019531.50001098.50001098 0 0 0 -.015625.0039063.50001098.50001098 0 0 0 -.0195313.0078125.50001098.50001098 0 0 0 -.0214843.0078125.50001098.50001098 0 0 0 -.0058594.0019531.50001098.50001098 0 0 0 -.03125.015625.50001098.50001098 0 0 0 -.0429687.0253906.50001098.50001098 0 0 0 -.0136719.0078125.50001098.50001098 0 0 0 -.015625.0117188.50001098.50001098 0 0 0 -.0175781.0136718.50001098.50001098 0 0 0 -.0058594.0039063.50001098.50001098 0 0 0 -.0136719.0136719.50001098.50001098 0 0 0 -.0117187.0117187.50001098.50001098 0 0 0 -.0058594.0039063.50001098.50001098 0 0 0 -.0019532.0019531.50001098.50001098 0 0 0 -.0039062.0039063.50001098.50001098 0 0 0 -.0097656.0117187.50001098.50001098 0 0 0 -.0175782.0195313.50001098.50001098 0 0 0 -.0058593.0058593.50001098.50001098 0 0 0 -.0078125.0117188.50001098.50001098 0 0 0 -.0449219.0722656.50001098.50001098 0 0 0 -.015625.03125.50001098.50001098 0 0 0 -.0019531.0058594.50001098.50001098 0 0 0 -.0039063.0078125.50001098.50001098 0 0 0 -.0039062.0136718.50001098.50001098 0 0 0 -.0058594.0136719.50001098.50001098 0 0 0 -.0058594.0195313.50001098.50001098 0 0 0 0 .001953.50001098.50001098 0 0 0 -.0019531.005859.50001098.50001098 0 0 0 -.0078125.0410156.50001098.50001098 0 0 1 0 .001953.50001098.50001098 0 0 0 -.0078125.083985v2.59375.00391 2.8125 1.1796878 2.8125.0039022 2.59375a.50001098.50001098 0 0 0 .0019531.03516.50001098.50001098 0 0 0 .0058594.05078.50001098.50001098 0 0 0 .0078125.04101.50001098.50001098 0 0 0 .0019531.0059.50001098.50001098 0 0 0 0 .002.50001098.50001098 0 0 0 .0117188.0332.50001098.50001098 0 0 0 .0039062.01367.50001098.50001098 0 0 0 .0039063.0078.50001098.50001098 0 0 0 0 .002.50001098.50001098 0 0 0 .0019531.0039.50001098.50001098 0 0 0 .015625.03125.50001098.50001098 0 0 0 .0253906.04297.50001098.50001098 0 0 0 .0195313.0293.50001098.50001098 0 0 0 .0078125.01172.50001098.50001098 0 0 0 .005859.0059.50001098.50001098 0 0 0 .0175782.01953.50001098.50001098 0 0 0 .0136718.01562.50001098.50001098 0 0 0 .001953.002.50001098.50001098 0 0 0 .0175781.01563.50001098.50001098 0 0 0 .0136719.01367.50001098.50001098 0 0 0 .005859.0039.50001098.50001098 0 0 0 .0175781.01367.50001098.50001098 0 0 0 .015625.01172.50001098.50001098 0 0 0 .0136719.0078.50001098.50001098 0 0 0 .0429687.02539.50001098.50001098 0 0 0 .03125.01563.50001098.50001098 0 0 0 .005859.002.50001098.50001098 0 0 0 .0214843.0078.50001098.50001098 0 0 0 .0351563.01172.50001098.50001098 0 0 0 .005859.002.50001098.50001098 0 0 0 .0273437.0059.50001098.50001098 0 0 0 .0136719.002.50001098.50001098 0 0 0 .0488281.0059.50001098.50001098 0 0 0 .001953 0 .50001098.50001098 0 0 0 .0351581.00156h1.5878906 7.7871094.625a.50001098.50001098 0 0 0 .03516-.002.50001098.50001098 0 0 0 .05078-.0059.50001098.50001098 0 0 0 .0957-.02539.50001098.50001098 0 0 0 .01367-.0059.50001098.50001098 0 0 0 .115235-.06836.50001098.50001098 0 0 0 .01172-.0098.50001098.50001098 0 0 0 .02539-.02344.50001098.50001098 0 0 0 .01172-.01172.50001098.50001098 0 0 0 .02344-.02539.50001098.50001098 0 0 0 .0098-.01172.50001098.50001098 0 0 0 .01953-.02734.50001098.50001098 0 0 0 .0078-.01367.50001098.50001098 0 0 0 .02539-.04297.50001098.50001098 0 0 0 .01563-.03125.50001098.50001098 0 0 0 .0059-.01367.50001098.50001098 0 0 0 .01172-.0332.50001098.50001098 0 0 0 .0039-.01563.50001098.50001098 0 0 0 .0078-.0332.50001098.50001098 0 0 0 .002-.01367.50001098.50001098 0 0 0 .0059-.04883.50001098.50001098 0 0 0 0-.002.50001098.50001098 0 0 0 .001815-.03495v-2.59375-.003906-2.8125-1.1796878-2.8125-.0039062-2.59375a.50001098.50001098 0 0 0 -.002-.0351562.50001098.50001098 0 0 1 0-.001953.50001098.50001098 0 0 0 -.0059-.0488281.50001098.50001098 0 0 0 -.002-.0136719.50001098.50001098 0 0 0 -.04492-.1269531.50001098.50001098 0 0 0 -.02539-.0429687.50001098.50001098 0 0 0 -.0078-.0136719.50001098.50001098 0 0 0 -.328006-.2089846.50001098.50001098 0 0 0 -.048828-.0058594.50001098.50001098 0 0 0 -.035156-.0019531h-.625-7.7871094-.9628906zm.5 1c.085414-.0000076.8951254.0000031 1.125 0h2.7636719c.4237881.0000014.7674161-.0000015 1.2226561 0 1.029018.0000033 1.806472.0000064 2.763672 0h.025391c.24962.0000024 1.016123-.0000074 1.099609 0v2.8828125 2.1210937.9921876 2.1210942 2.882812c-.083486.000008-.849989-.000002-1.099609 0h-.025391c-.9572-.000007-1.734654-.000003-2.763672 0-.45524.000001-.798868-.000001-1.2226561 0h-2.7636719c-.00519 0-.019627 0-.025391 0h-1.099609v-2.003906-.878906-2.1210942-.9921876-2.1210937-.8789063z" fill="#3a3a38"/><path d="m1 1h9v11h-9z" fill="#fafafa"/><path d="m2 2v1h7v-1zm0 2v1h7v-1zm0 2v1h7v-1zm0 2v1h7v-1zm0 2v1h7v-1z" fill="#797774"/><path d="m5.5 3a.50001098.50001098 0 0 0 -.0371094.0019531.50001098.50001098 0 0 0 -.0488281.0058594.50001098.50001098 0 0 0 -.0136719.0019531.50001098.50001098 0 0 0 -.0273437.0058594.50001098.50001098 0 0 0 -.0058594.0019531.50001098.50001098 0 0 0 -.015625.0039063.50001098.50001098 0 0 0 -.0195313.0078125.50001098.50001098 0 0 0 -.0214843.0078125.50001098.50001098 0 0 0 -.0058594.0019531.50001098.50001098 0 0 0 -.03125.015625.50001098.50001098 0 0 0 -.0429687.0253906.50001098.50001098 0 0 0 -.0136719.0078125.50001098.50001098 0 0 0 -.015625.0117188.50001098.50001098 0 0 0 -.0175781.0136718.50001098.50001098 0 0 0 -.0058594.0039063.50001098.50001098 0 0 0 -.0136719.0136719.50001098.50001098 0 0 0 -.0117187.0117187.50001098.50001098 0 0 0 -.0058594.0039063.50001098.50001098 0 0 0 -.0019532.0019531.50001098.50001098 0 0 0 -.0039062.0039063.50001098.50001098 0 0 0 -.0097656.0117187.50001098.50001098 0 0 0 -.0175782.0195313.50001098.50001098 0 0 0 -.0058593.0058593.50001098.50001098 0 0 0 -.0078125.0117188.50001098.50001098 0 0 0 -.0449219.0722656.50001098.50001098 0 0 0 -.015625.03125.50001098.50001098 0 0 0 -.0019531.0058594.50001098.50001098 0 0 0 -.0039063.0078125.50001098.50001098 0 0 0 -.0039062.0136718.50001098.50001098 0 0 0 -.0058594.0136719.50001098.50001098 0 0 0 -.0058594.0195313.50001098.50001098 0 0 0 0 .0019531.50001098.50001098 0 0 0 -.0019531.0058594.50001098.50001098 0 0 0 -.0078125.0410156.50001098.50001098 0 0 1 0 .0019531.50001098.50001098 0 0 0 -.0078125.0839844v2.59375.0039062 2.8125 1.1796878 2.8125.003906 2.59375a.50001098.50001098 0 0 0 .0019531.035156.50001098.50001098 0 0 0 .0058594.050782.50001098.50001098 0 0 0 .0078125.041015.50001098.50001098 0 0 0 .0019531.005859.50001098.50001098 0 0 0 0 .001954.50001098.50001098 0 0 0 .0117188.033203.50001098.50001098 0 0 0 .0039062.013672.50001098.50001098 0 0 0 .0039063.007812.50001098.50001098 0 0 0 0 .001953.50001098.50001098 0 0 0 .0019531.003906.50001098.50001098 0 0 0 .015625.03125.50001098.50001098 0 0 0 .0253906.042969.50001098.50001098 0 0 0 .0195313.029297.50001098.50001098 0 0 0 .0078125.011719.50001098.50001098 0 0 0 .0058593.005859.50001098.50001098 0 0 0 .0175782.019532.50001098.50001098 0 0 0 .0136718.015624.50001098.50001098 0 0 0 .0019532.001954.50001098.50001098 0 0 0 .0175781.015625.50001098.50001098 0 0 0 .0136719.013671.50001098.50001098 0 0 0 .0058594.003907.50001098.50001098 0 0 0 .0175781.013672.50001098.50001098 0 0 0 .015625.011718.50001098.50001098 0 0 0 .0136719.007813.50001098.50001098 0 0 0 .0429687.02539.50001098.50001098 0 0 0 .03125.015626.50001098.50001098 0 0 0 .0058594.001953.50001098.50001098 0 0 0 .0214843.007812.50001098.50001098 0 0 0 .0351563.011719.50001098.50001098 0 0 0 .0058594.001953.50001098.50001098 0 0 0 .0273437.005859.50001098.50001098 0 0 0 .0136719.001954.50001098.50001098 0 0 0 .0488281.005859.50001098.50001098 0 0 0 .0019532 0 .50001098.50001098 0 0 0 .0351562.001953h1.5878906 7.7871094.625a.50001098.50001098 0 0 0 .035156-.001953.50001098.50001098 0 0 0 .050782-.005859.50001098.50001098 0 0 0 .095703-.025391.50001098.50001098 0 0 0 .013671-.005859.50001098.50001098 0 0 0 .115235-.06836.50001098.50001098 0 0 0 .011719-.009766.50001098.50001098 0 0 0 .02539-.023437.50001098.50001098 0 0 0 .011719-.011719.50001098.50001098 0 0 0 .023437-.02539.50001098.50001098 0 0 0 .009766-.011719.50001098.50001098 0 0 0 .019531-.027344.50001098.50001098 0 0 0 .007813-.013672.50001098.50001098 0 0 0 .02539-.042969.50001098.50001098 0 0 0 .015626-.03125.50001098.50001098 0 0 0 .005859-.013671.50001098.50001098 0 0 0 .011719-.033203.50001098.50001098 0 0 0 .003906-.015626.50001098.50001098 0 0 0 .007812-.033203.50001098.50001098 0 0 0 .001954-.013671.50001098.50001098 0 0 0 .005859-.048829.50001098.50001098 0 0 0 0-.001953.50001098.50001098 0 0 0 .001953-.035156v-2.59375-.003906-2.8125-1.1796878-2.8125-.0039062-2.59375a.50001098.50001098 0 0 0 -.001953-.0351562.50001098.50001098 0 0 1 0-.0019532.50001098.50001098 0 0 0 -.005859-.0488281.50001098.50001098 0 0 0 -.001954-.0136719.50001098.50001098 0 0 0 -.044922-.1269531.50001098.50001098 0 0 0 -.02539-.0429687.50001098.50001098 0 0 0 -.007813-.0136719.50001098.50001098 0 0 0 -.328125-.2089844.50001098.50001098 0 0 0 -.048828-.0058594.50001098.50001098 0 0 0 -.035156-.0019531h-.625-7.7871094-.9628906zm.5 1c.0854144-.0000076.8951254.0000031 1.125 0h2.7636719c.4237881.0000014.7674161-.0000015 1.2226561 0 1.029018.0000033 1.806472.0000064 2.763672 0h.025391c.24962.0000024 1.016123-.0000074 1.099609 0v2.8828125 2.1210937.9921876 2.1210942 2.882812c-.083486.000008-.849989-.000002-1.099609 0h-.025391c-.9572-.000007-1.734654-.000003-2.763672 0-.45524.000001-.798868-.000001-1.2226561 0h-2.7636719c-.0051881 0-.0196268 0-.0253906 0h-1.0996094v-2.003906-.878906-2.1210942-.9921876-2.1210937-.8789063z" fill="#0063b1"/><path d="m6 4h9v11h-9z" fill="#fafafa"/><path d="m7 5v1h7v-1zm0 2v1h7v-1zm0 2v1h7v-1zm0 2v1h7v-1zm0 2v1h7v-1z" fill="#83beec"/></svg>