<svg viewBox="0 0 16 16" xmlns="http://www.w3.org/2000/svg"><g fill="#3a3a38"><rect height="1" ry=".5" width="13" x="2" y="2"/><rect height="1" ry=".440076" width="7" x="8" y="10"/><rect height="1" ry=".5" width="12.999998" x="2" y="14"/><rect height="1" ry=".47603" width="6.999999" x="8" y="6"/></g><path d="m3.484375 4.0000001c.454318-.0115041.6868471.5402829.3613281.8574219l-2.1484375 2.1445312 4.7773438-.0019531c.3501765-.01795.5253906.241511.5253906.5s-.1752141.51795-.5253906.5l-4.7773438-.0019531 2.1484375 2.144531c.325519.317139.09299.868926-.3613281.857422-.130048-.0041-.25337-.05875-.34375-.152344l-2.9160156-2.912109c-.173289-.160649-.2230094-.2664289-.2246094-.4355469.0016-.169118.0513204-.2748979.2246094-.4355469l2.9160156-2.9121093c.09038-.0935941.213702-.1482439.34375-.1523438z" fill="#1e8bcd" fill-rule="evenodd"/></svg>