<svg viewBox="0 0 16 16" xmlns="http://www.w3.org/2000/svg"><path d="m1 6h4v9h-4z" fill="#fafafa"/><path d="m0 5v11h6v-11zm1 1h4v9h-4z" fill="#3a3a38"/><path d="m1 1h14v4h-14z" fill="#83beec"/><path d="m1 10h4v1h-4z" fill="#797774" stroke-width=".894427"/><path d="m1 0c-.554 0-1 .446-1 1v4 1h1 14 1v-1-4c0-.554-.446-1-1-1zm0 1h4 1 4 1 4v4h-4-1-4-1-4z" fill="#0063b1"/><path d="m5 1v4h1v-4zm5 0v4h1v-4z" fill="#1e8bcd"/><path d="m10.462277 7.0003591c-.254427-.0030999-.462142.225115-.462277.507799v4.9838719c.000328.347953.308173.592602.604651.480457l5.087124-2.048323c.393157-.150748.415773-.75902.03515-.9452894l-5.085364-2.9355485c-.05655-.02763-.117518-.04225-.179284-.042967z" fill="#1e8bcd"/><rect fill="#3a3a38" height="9" ry=".5" width="1" x="8" y="7"/></svg>