<svg viewBox="0 0 16 16" xmlns="http://www.w3.org/2000/svg">/&amp;amp;gt;<path d="m.50195312.48242188v2.83007812l5.49804688 4.9980469v-.7578125c.0000552-.5522619.4477381-.9999448 1-1h4.263672l.947266-1.8945313c.163289-.3271192.492067-.5390653.857421-.5527343.167751-.00605.334326.03022.484375.1054687l.601563.3007813 1.34375-1.2285157v-2.80078122zm6.17382808 14.00585912v1.009766h.5234376c-.1133809-.261806-.1258611-.564696.0117187-.839844l.052734-.105469h-.2636719c-.115121-.000011-.2212936-.02865-.3242188-.06445z" fill="#fafafa" fill-rule="evenodd"/><path d="m.50195312-.01953125c-.27734535-.00030031-.50225343.22460778-.50195312.50195313v2.83007812c-.00003865.1412881.05953385.2760354.1640625.3710938l5.8359375 5.3046874v-1.3535156l-4.9980469-4.5449218v-2.1054688h13.9960939v2.0761719l-1.324219 1.2109375.958984.4804687 1.203126-1.0996093c.104027-.0946004.163552-.2285331.164062-.3691407v-2.80078122c.0003-.27734531-.224608-.50225337-.501953-.50195313zm5.67382808 14.10546925v1.412109c-.0003003.276583.2234177.501175.5.501953h.9824219c-.1172863-.058641-.2145607-.138327-.2949219-.230469-.0637351-.071354-.1059875-.155186-.1464843-.240234-.00866-.01918-.023837-.035-.03125-.05469-.08754-.218094-.088651-.460126-.00781-.693359v-.228516h-.1777344c-.114641-.000011-.2198641-.02733-.3203125-.06445-.045288-.01556-.08682-.03307-.1289063-.05469-.038152-.02094-.072453-.04655-.1074218-.07227-.1075268-.07431-.1962491-.165694-.2675782-.27539z" fill="#8c8c8c" fill-rule="evenodd"/><path d="m13.105469 5.105468-1.222657 2.894532h-4.882812v2h3.882812l-1 2h-2.882812v2h1.882812l-.777343 1.105468 1.789062.894532 1.222657-2h4.882812v-2h-3.882812l1-2h2.882812v-2h-1.882812l.777343-2z" fill="#1e8bcd"/></svg>