<svg height="16" viewBox="0 0 4.2333332 4.2333335" width="16" xmlns="http://www.w3.org/2000/svg" xmlns:xlink="http://www.w3.org/1999/xlink"><linearGradient id="a" gradientUnits="userSpaceOnUse" x1="61" x2="61" y1="29" y2="18"><stop offset="0" stop-color="#e9e9e9"/><stop offset=".2857143" stop-color="#f2f2f2"/><stop offset="1" stop-color="#fbfbfb"/></linearGradient><linearGradient id="b" gradientUnits="userSpaceOnUse" x1="65.9999972225" x2="65.9999972225" xlink:href="#a" y1="25.00004875983" y2="14.00005174243"/><linearGradient id="c" gradientUnits="userSpaceOnUse" x1="60.99999617307" x2="60.99999617307" xlink:href="#a" y1="29.00005111118" y2="18.00005031426"/><g transform="translate(0 -292.76665)"><g stroke-width=".999999" transform="matrix(.26458333 0 0 .26458333 0 292.76665)"><path d="m1 8v7h3.3554688l5.6445312-6.25v-.75z" fill="url(#c)"/><path d="m6 4v7h1.9667969l6.3242191-7z" fill="url(#b)"/><path d="m6 0c-.5540001 0-1 .44599686-1 1v3h-4c-.55399996 0-1 .4459969-1 1v10c0 .554003.44600004 1 1 1h2.4511719l.9042969-1h-3.3554688v-7h4v3c0 .554003.4459999 1 1 1h1.0644531l.9023438-1h-1.9667969v-3h4v.75l1-1.1074219v-2.6425781c0-.5540031-.446-1-1-1h4.291016l1.708984-1.8925781v-1.1074219c0-.55400314-.446-1-1-1z" fill="#3a3a38"/></g><g fill="#bababa" transform="matrix(.26458333 0 0 .26458333 0 292.76667)"><path d="m7 9v1h1.8710938l.1289062-.1425781v-.8574219z" transform="translate(0 -.000076)"/><g fill="#797774"><path d="m2 9h2v1h-2z" fill="#797774"/><path d="m2 11h2v1h-2z" fill="#797774"/><path d="m2 13h2v1h-2z"/><path d="m12 5v1h.572266l.904296-1z" transform="translate(0 -.000076)"/></g></g><g stroke-width=".264583"><path d="m1 4c-.55399997 0-1 .4459969-1 1v3h10.677734l.322266-.3574219v-2.6425781c0-.5540031-.446-1-1-1z" fill="#3a3a38" stroke-width=".999999" transform="matrix(.26458333 0 0 .26458333 0 292.76665)"/><path d="m.26458333 294.08958v.52917h1.05833337v-.52917zm1.32291667 0v.52917h1.0583333v-.52917z" fill="#797774"/><path d="m6 0c-.5540001 0-1 .44599686-1 1v3h9.291016l1.708984-1.8925781v-1.1074219c0-.55400314-.446-1-1-1z" fill="#3a3a38" stroke-width=".999999" transform="matrix(.26458333 0 0 .26458333 0 292.76665)"/></g><path d="m1.5875 293.03125h2.38125v.52917h-2.38125z" fill="#797774" stroke-width=".229136"/></g><path d="m4.1010417 1.3229167-2.5135417 2.778125h2.5135417zm-.5291667 1.4552083v.2583371.5354129h-.5291667-.1322917z" fill="#f8db8f" fill-rule="evenodd" stroke="#ed8733" stroke-width=".264583"/></svg>