<svg height="16" viewBox="0 0 4.2333332 4.2333335" width="16" xmlns="http://www.w3.org/2000/svg" xmlns:xlink="http://www.w3.org/1999/xlink"><linearGradient id="a" gradientUnits="userSpaceOnUse" x1="61" x2="61" y1="29" y2="18"><stop offset="0" stop-color="#e9e9e9"/><stop offset=".2857143" stop-color="#f2f2f2"/><stop offset="1" stop-color="#fbfbfb"/></linearGradient><linearGradient id="b" gradientUnits="userSpaceOnUse" x1="65.99999896875" x2="65.99999896875" xlink:href="#a" y1="25.00007869796" y2="14.00008138952"/><linearGradient id="c" gradientUnits="userSpaceOnUse" x1="60.99999778703" x2="60.99999778703" xlink:href="#a" y1="29.00008115514" y2="18.00008006718"/><g transform="translate(0 -292.76665)"><g stroke-width=".999999" transform="matrix(.26458333 0 0 .26458333 0 292.76665)"><path d="m1 8v7h5.0332031a1.0007407 1.0007407 0 0 1 .2597657-.457031l3.0429687-3.042969-3.0429687-3.0429688a1.0007407 1.0007407 0 0 1 -.2597657-.4570312z" fill="url(#c)"/><path d="m6 4v3.765625c-.0040708-.2705891.1016194-.5312915.2929688-.7226562l.75-.75c.1837045-.1836993.4316466-.2887595.6914062-.2929688.2705891-.0040708.5312915.1016194.7226562.2929688l3.0429688 3.0429687 3.042969-3.0429687c.126472-.1257699.28426-.2154529.457031-.2597657v-2.0332031zm0 3.765625v3.234375h2.8359375l-2.5429687-2.5429688c-.1836993-.1837045-.2887595-.4316466-.2929688-.6914062z" fill="url(#b)"/><path d="m6 0c-.5540001 0-1 .44599685-1 1v3h-4c-.55399997 0-1 .4459969-1 1v10c0 .554003.44600003 1 1 1h5.3359375l-.042969-.04297c-.2496703-.250664-.3484338-.61453-.2597654-.95703h-5.0332031v-7h4v3c0 .554003.4459999 1 1 1h2.8359375l.5-.5-.5-.5h-2.8359375v-3h.033203c-.0886684-.3425004.0100951-.7063657.2597658-.9570312l.75-.75c.1837045-.1836993.4316466-.2887595.6914062-.2929688.2705891-.0040708.5312915.1016194.7226562.2929688l2.5429688 2.5429687v-3.8359375c0-.5540031-.446-1-1-1h5v2.0332031c.3425-.088668.706366.010095.957031.2597657l.042969.0429687v-5.3359375c0-.55400315-.446-1-1-1z" fill="#3a3a38"/></g><g fill="#bababa" transform="matrix(.26458333 0 0 .26458333 0 292.76667)"><path d="m7 9.1640625v.8359375h.8359375z" fill="#1e8bcd" transform="translate(0 -.000076)"/><g fill="#797774"><path d="m2 9h2v1h-2z" fill="#797774"/><path d="m2 11h2v1h-2z" fill="#797774"/><path d="m2 13h2v1h-2z"/><path d="m12 7v1h.835938l1-1z" transform="translate(0 -.000076)"/><path d="m12 5h2v1h-2z"/><path d="m7 13v.835938l.8359375-.835938z" transform="translate(0 -.000076)"/></g></g><g stroke-width=".264583"><path d="m.26458333 293.825c-.14657916 0-.26458333.118-.26458333.26458v.79375h2.9104167v-.79375c0-.14658-.1180042-.26458-.2645834-.26458z" fill="#3a3a38"/><path d="m1 5v2h4v-2zm5 0v2h.3359375l.7070313-.7070312a1.0007407 1.0007407 0 0 1 .6914062-.2929688 1.0007407 1.0007407 0 0 1 .7226562.2929688l.7070313.7070312h.8359375v-2z" fill="#797774" stroke-width=".999999" transform="matrix(.26458333 0 0 .26458333 0 292.76665)"/><path d="m1.5875 292.76667c-.1465792 0-.2645833.118-.2645833.26458v.79375h2.9104166v-.79375c0-.14658-.1180041-.26458-.2645833-.26458z" fill="#3a3a38"/></g><path d="m1.5875 293.03125h2.38125v.52917h-2.38125z" fill="#797774" stroke-width=".229136"/></g><path d="m4.0348959 1.8520834-.9921875.9921875-.9921876-.9921875-.1984374.1984375.9921875.9921875-.9921875.9921875.1984374.1984374.9921876-.9921874.9921875.9921874.1984375-.1984374-.9921875-.9921875.9921875-.9921875z" fill="#ed3d3b"/></svg>