<svg viewBox="0 0 16 16" xmlns="http://www.w3.org/2000/svg">/&amp;amp;amp;amp;gt;<path d="m.49804688 1.0019531c-.27630145-.000384-.50038443.223699-.50000001.5v9.4999999h.00195313v3.498047c-.00038442.276301.22369855.500384.5.5h15c.276301.000384.500384-.223699.5-.5v-9.5h-.001953v-3.4980469c.000384-.276301-.223699-.500384-.5-.5zm.49804687.9980469h14.00390625v9.001953h.001953v3h-14.00390612v-9.001953h-.00195313z" fill="#3a3a38"/><path d="m1 2h14v12h-14z" fill="#fafafa"/><path d="m1 2h4v12h-4z" fill="#83beec" stroke-width=".866025"/><path d="m1 5v1h4v3h-4v1h4v4h1v-4h9v-1h-9v-3h9v-1h-9z" fill="#797774"/><path d="m.50195312 1.0019531c-.27630145-.000384-.50038441.223699-.49999999.5v4.4980469h-.00195313v8.5c-.00038442.276301.22369855.500384.5.5h5.5v-.966797-.03125-8.001953-.5332031-.4667969-3-.9980469zm.49804688.9980469h4v3h-4zm-.001953 4h.001953 4v3h-4.00195312zm0 4h4.001953v4.001953h-4.00195312z" fill="#0063b1"/></svg>