<svg viewBox="0 0 16 16" xmlns="http://www.w3.org/2000/svg">


/&amp;amp;amp;amp;amp;gt;<path d="m0 4v4 6c0 .554.446 1 1 1h5.2148438l.2460937-1h-5.4609375v-6-4zm15 0v2.3183594c.057236.0428558.1165.0833651.167969.1347656l.832031.8300781v-3.2832031zm1 6.552734-.753906.722657a1.0023027 1.0023027 0 0 1 -.13086.105468l-.115234.115235v2.503906h-2.492188l-.996093 1h3.488281c.554 0 1-.446 1-1z" fill="#3a3a38"/><path d="m1 4v10h5.4609375l.28125-1.138672a1.0023027 1.0023027 0 0 1 .2636719-.46875c.31556-.315357 2.8667245-2.8334769 4.5742186-4.5253905a1.0023027 1.0023027 0 0 1 .128906-.1601563l1.25586-1.2539062c.095152-.0950525.084092-.0675245.138672-.1015625a1.0023027 1.0023027 0 0 1 .017578-.0136719 1.0023027 1.0023027 0 0 1 .134765-.0996094l.001953-.0019531a1.0023027 1.0023027 0 0 1 .00586-.0039062c.188341-.1139319.458237-.234375.802734-.234375.325358 0 .657139.1133136.933594.3203125v-2.3183594zm14 7.496094-2.492188 2.503906h2.492188z" fill="#fafafa"/><path d="m4 6c-.554 0-1 .446-1 1v1c0 .554.446 1 1 1h1c.554 0 1-.446 1-1v-1c0-.554-.446-1-1-1zm4.5 0c-.277 0-.5.223-.5.5s.223.5.5.5h3.917969l.546875-.546875c.015578-.0155619.012799-.0058263.023437-.015625-.031763-.2459714-.233388-.4375-.488281-.4375zm-4.5 1h1v1h-1zm4.5 1c-.277 0-.5.223-.5.5s.223.5.5.5h1.935547c.427791-.4231153.622274-.6161668 1.009765-1zm-4.5 2c-.554 0-1 .446-1 1v1c0 .554.446 1 1 1h1c.554 0 1-.446 1-1v-1c0-.554-.446-1-1-1zm4.5 0c-.277 0-.5.223-.5.5 0 .251431.1866597.450266.4277344.486328.3066899-.303257.5998761-.594656.9960937-.986328zm-4.5 1h1v1h-1z" fill="#797774"/><path d="m0 1h16v4h-16z" fill="#3a3a38"/><path d="m1 2h14v2h-14z" fill="#797774" stroke-width=".661438"/><g fill="#fb983b"><path d="m13.804688 7.0683594c.171006-.1739438-.174941.1601863-1.386719 1.3476562l.01563.015625c.619714-.6142617 1.234361-1.2242057 1.371089-1.3632812zm-1.371094 1.3632812c-1.705556 1.6905364-4.4180608 4.3694234-4.7187502 4.6699214l-.7148438 2.898438 2.8554688-.757812 4.6835932-4.703126zm-.002 1.0078125 1.099609 1.0996089-4.0449219 4.0625-1.5039062.400391.3789062-1.535156c.3659391-.364052 2.4317849-2.404918 4.0703599-4.0273439z" fill="#0063b1"/><path d="m14.066406 7c-.142171 0-.283638.053302-.392578.1621094l-1.255859 1.2539062 2.134765 2.1367184 1.283204-1.2304684c.21788-.2175952.21788-.5675602 0-.7851562l-1.376954-1.375c-.108941-.108798-.250406-.1621094-.392578-.1621094zm0 .9941406.933594.9316406-.433594.4160157-.923828-.9257813z" fill="#0063b1"/><g fill="#83beec"><path d="m14.066406 7.9941406-.423828.421875.923828.9257813.433594-.4160157z"/><path d="m12.431641 9.4394531c-1.638575 1.6224259-3.7044208 3.6632919-4.0703129 4.0273439l-.3789062 1.535156 1.5039062-.400391 4.0449219-4.0625z"/></g></g></svg>