<svg viewBox="0 0 16 16" xmlns="http://www.w3.org/2000/svg">/&amp;gt;<path d="m8 1c-4.375029.0002714-7.99962593 3.0980629-8 7 .00037428 3.901937 3.6249712 6.999729 8 7 4.375029-.000272 7.999626-3.098063 8-7v-.0039062-.0039063c-.002824-.1706438-.014207-.3417415-.03125-.5117187l-.019531-.1992188-7.1328128-6.2441406-.1699218-.0117188c-.2146444-.0158631-.4291414-.0247128-.6445313-.0253906zm-.0019531 1.0195312h.0019531c.1367359.0004632.2737176.0082801.4101562.015625l6.5566408 5.7402344c.0047.075647.012332.1508135.013672.2265625-.001545 3.2659139-3.083106 5.9782739-6.980469 5.9785159-3.8981428-.000242-6.9801553-2.71368-6.9804688-5.980469.0003132-3.2662232 3.0813312-5.9792864 6.9785157-5.9804688zm2.9746091 2.6621094a.50005.50005 0 0 0 -.30664.1171875l-6.4375004 5.3183599a.50077174.50077174 0 0 0 .6386719.771484l6.4355465-5.3183595a.50005.50005 0 0 0 -.330078-.8886719z" fill="#1e8bcd"/></svg>