<svg viewBox="0 0 16 16" xmlns="http://www.w3.org/2000/svg"><path d="m5 0-3 2v1h9v9h1l2-2v-10z" fill="#0063b1" fill-rule="evenodd"/><path d="m4.5 2c-.2763133-.0004132-.5004132.2236867-.5.5v9c-.0004132.276313.2236867.500413.5.5h9c.276313.000413.500413-.223687.5-.5v-9c.000413-.2763133-.223687-.5004132-.5-.5z" fill="#0063b1" transform="translate(-2)"/><path d="m0 13h16v3h-16z" fill="#ed3d3b"/><path d="m5 3v8h8v-8z" fill="#83beec" transform="translate(-2)"/><path d="m5.3027344 1-1.5 1h7.1972656c.552262.0000552.999945.4477381 1 1v7.585938l1-1v-8.585938z" fill="#83beec" fill-rule="evenodd"/><path d="m11 3.5 3-3v-.5h-1l-3 3h1z" fill="#0063b1"/></svg>