<svg viewBox="0 0 16 16" xmlns="http://www.w3.org/2000/svg"><path d="m7.5000006 15.999904a5.5 5 0 0 0 5.5000004-5l.0059-9.2929693 2.140625 2.1386721a.50005.50005 0 0 0 .359375.152344.50005.50005 0 0 0 .347656-.859375l-2.994181-2.99218806a.50005.50005 0 0 0 -.707032 0l-3.005859 2.99218806a.50063745.50063745 0 1 0 .7070312.708984l2.1523438-2.1445311-.00586 9.2968753a4.5 4 0 0 1 -4.5 4 4.5 4 0 0 1 -4.5-4v-5.0000002h-1v5.0000002a5.5 5 0 0 0 5.5 5z" fill="#1e8bcd" fill-rule="evenodd"/><path d="m16.000001 6.9999996c0-.554-.446-.9999996-1-.9999996h-11.0000004v1.9999996h11.0000004c.554 0 1-.446 1-1zm-15.0000004-.9999996s-1 .4459996-1 .9999996.446001 1 1 1z" fill="#3a3a38"/></svg>