<svg viewBox="0 0 16 16" xmlns="http://www.w3.org/2000/svg">/&amp;amp;amp;amp;amp;gt;<path d="m0 3v4 6c0 .554.446 1 1 1h4.2578125l.9042969-1h-5.1621094v-6-4zm15 0v.2148438l.193359-.2148438z" fill="#3a3a38"/><path d="m1 3v10h5.1621094l8.8378906-9.7851562v-.2148438z" fill="#fafafa"/><path d="m4 5c-.554 0-1 .446-1 1v1c0 .554.446 1 1 1h1c.554 0 1-.446 1-1v-1c0-.554-.446-1-1-1zm4.5 0c-.277 0-.5.223-.5.5s.223.5.5.5h3.984375l.503906-.5585938c-.030062-.2478531-.232056-.4414062-.488281-.4414062zm-4.5 1h1v1h-1zm4.5 1c-.277 0-.5.223-.5.5s.223.5.5.5h2.177734l.902344-1zm-4.5 2c-.554 0-1 .446-1 1v1c0 .554.446 1 1 1h1c.554 0 1-.446 1-1v-1c0-.554-.446-1-1-1zm4.5 0c-.277 0-.5.223-.5.5s.223.5.5.5h.3710938l.9023437-1zm-4.5 1h1v1h-1z" fill="#797774"/><path d="m0 0v4h14.291016l1.708984-1.8925781v-2.1074219z" fill="#3a3a38"/><path d="m1 1h14v2h-14z" fill="#797774" stroke-width=".661438"/><path d="m15.5 5.0000003-9.5 10.4999997h9.5zm-2 5.4999997v.976392 2.023608h-2-.5z" fill="#f8db8f" fill-rule="evenodd" stroke="#ed8733"/></svg>