<svg height="16" viewBox="0 0 4.2333332 4.2333335" width="16" xmlns="http://www.w3.org/2000/svg" xmlns:xlink="http://www.w3.org/1999/xlink"><linearGradient id="a" gradientUnits="userSpaceOnUse" x1="3.704167" x2=".529167" y1="295.41248" y2="295.41248"><stop offset="0" stop-color="#18ab50"/><stop offset="1" stop-color="#18ab50" stop-opacity=".044118"/></linearGradient><g transform="translate(0 -292.76665)"><path d="m.26458333 292.76667c-.14657916 0-.26458333.118-.26458333.26458v3.70417c0 .14658.11800417.26458.26458333.26458h3.70416667c.1465792 0 .2645833-.118.2645833-.26458v-3.70417c0-.14658-.1180041-.26458-.2645833-.26458zm0 .26458h3.70416667v3.70417h-3.70416667z" fill="#3a3a38" stroke-width=".264583"/><path d="m.26458333 293.03125h3.70416667v3.70417h-3.70416667z" fill="#fafafa" stroke-width=".264583"/><path d="m.52916664 293.29581h3.17499996v1.5875h-3.17499996z" fill="#18ab50"/><path d="m2 9v1h1v-1zm1 1v1h1v-1zm1 0h1v-1h-1zm1 0v1h1v-1zm1 0h1v-1h-1zm1 0v1h1v-1zm1 0h1v-1h-1zm1 0v1h1v-1zm1 0h1v-1h-1zm1 0v1h1v-1zm1 0h1v-1h-1zm1 0v1h1v-1z" fill="#c8c6c4" transform="matrix(.26458333 0 0 .26458333 0 292.76665)"/><path d="m.52916664 295.14789h3.17499996v.52916h-3.17499996z" fill="url(#a)"/><path d="m.529167 295.94165h3.175v.264583h-3.175z" fill="#797774"/><path d="m1.0583333 295.67707v.79375l.396875.26458.396875-.26458v-.79375z" fill="#3a3a38"/><path d="m1.3229166 295.94165h.2645834v.39687l-.1322917.083-.1322917-.083z" fill="#fafafa"/></g></svg>