<svg height="16" viewBox="0 0 4.2333332 4.2333335" width="16" xmlns="http://www.w3.org/2000/svg"><g transform="translate(0 -292.76665)"><path d="m.26458333 292.76667c-.14657916 0-.26458333.118-.26458333.26458v3.70417c0 .14658.11800417.26458.26458333.26458h3.70416667c.1465792 0 .2645833-.118.2645833-.26458v-3.70417c0-.14658-.1180041-.26458-.2645833-.26458zm0 .26458h3.70416667v3.70417h-3.70416667z" fill="#3a3a38" stroke-width=".264583"/><path d="m.26458333 293.03125h3.70416667v3.70417h-3.70416667z" fill="#fafafa" stroke-width=".264583"/><g fill="#c8c6c4" transform="matrix(.26458333 0 0 .26458333 0 292.76667)"><path d="m1 4h14v1h-14z"/><path d="m1 8h14v1h-14z"/><path d="m1 12h14v1h-14z"/><g stroke-width=".881917"><path d="m5 .99999956v14.00000044h-1v-14.00000044z"/><path d="m9 .99999956v14.00000044h-1v-14.00000044z"/><path d="m13 .99999956v14.00000044h-1v-14.00000044z"/></g></g><path d="m3.8178549 293.04572c-.062752.001-.1158568.0468-.127124.10852-.2622119 1.03507-.9181198 1.898-1.6727662 2.50166-.4712588.36453-1.0175421.65453-1.6241903.80822-.061749.0113-.10709174.0644-.10852049.12712-.001841.0852.0762586.16856.15968017.15089l.17828371-.00052c.011017-.006.0225168-.0106.0351399-.0129.60664821-.15367 1.15293161-.44367 1.62419031-.80821.7546464-.60366 1.4105543-1.46658 1.6727662-2.50166.0023-.0126.0074-.0241.01292-.0351l.0005158-.17834c.017664-.0834-.065644-.16152-.1508951-.15968z" fill="#1e8bcd" stroke-width=".264583"/></g></svg>