<svg viewBox="0 0 16 16" xmlns="http://www.w3.org/2000/svg"><path d="m7.3945312 1-5.1738281 14h1.2597657c.1609053 0 .2962689-.04633.4082031-.138672.11893-.09234.2002122-.199561.2421875-.320312l1.2304687-3.541016h5.2773439l1.230469 3.541016c.041975.12075.123257.227972.242187.320312.111934.092342.247297.138672.408203.138672h1.259766l-3.736328-10.1113281c-.5380652.2038107-1.179982.0954078-1.605469-.3300781-.0229704-.0229705-.0394085-.0500388-.0605469-.0742188l1.9160159 5.515625h-4.5859378l2.0234376-5.8242188c.0629628-.1704718.12926-.3703604.1992187-.5976562.0236185-.0767363.0468287-.1703172.0703125-.2519531.0054436.0189241.0102022.0387445.015625.0585937.0253342-.3477529.1620419-.6877149.421875-.9472656l.5097656-.5097656-.3417968-.9277344h-.6054688z" fill="#3a3a38"/><path d="m12.5 7c-.277 0-.5-.223-.5-.5v-4.7949219l-2.1484375 2.1464844c-.195975.1957618-.5111622.1958686-.7070313 0-.195868-.1958686-.195975-.5112694 0-.7070313l3.0019528-2.9980468c.097935-.0979343.22572-.1464977.353516-.1464844.0639.0000067.127325.012631.1875.037109.06016.024381.117048.060408.166016.109375l3.001953 2.9980468c.195975.1957619.195868.5111627 0 .7070313-.195869.1958686-.511057.1957618-.707031 0l-2.148438-2.146484v4.7949219c0 .277-.223.5-.5.5z" fill="#1e8bcd"/></svg>