<svg viewBox="0 0 16 16" xmlns="http://www.w3.org/2000/svg"><path d="m1 1h14v14h-14z" fill="#fafafa"/><path d="m0 0v16h16v-16zm1 1h14v14h-14z" fill="#3a3a38"/><path d="m3 1v4h-2v1h2v4h-2v1h2v4h1v-4h8v4h1v-4h2v-1h-2v-4h2v-1h-2v-4h-1v4h-8v-4zm1 5h8v4h-8z" fill="#797774"/><circle cx="6" cy="3" fill="#ed3d3b" r="1"/><circle cx="6" cy="8" fill="#18ab50" r="1"/><circle cx="6" cy="13" fill="#ed3d3b" r="1"/><g fill="#797774"><path d="m8 3h3v1h-3z"/><path d="m8 8h3v1h-3z"/><path d="m8 13h3v1h-3z"/></g></svg>