<svg viewBox="0 0 16 16" xmlns="http://www.w3.org/2000/svg"><g fill="#3a3a38" transform="translate(0 2)"><path d="m5.5852289 9.5919053q-.1753795 0-.2698146-.053966-.094435-.0539664-.1281618-.2225976l-.148398-.6138276q-.2563238.2360876-.5059022.424958-.242833.1821249-.5126475.3102862-.2698145.1281621-.5801012.1888704-.3102866.0674556-.6812816.0674556-.3844856 0-.7217537-.1011807-.3305227-.1079238-.5868465-.3237756-.2495784-.2225974-.3979764-.5463746-.14165259-.3305231-.14165259-.775717 0-.3912307.20910629-.7487349.2158515-.3642496.6947722-.6475548.4789208-.2833052 1.247892-.4586847.7689714-.1821247 1.8887015-.2091061v-.5059022q0-.7689713-.3305227-1.153457-.3237774-.3912309-.9510962-.3912309-.4182124 0-.708263.1079257-.2833052.1079258-.4924114.2360877-.2091062.1281619-.3642496.2360877-.1483979.1079257-.3035413.1079257-.1214165 0-.2091062-.060708-.0876897-.0607086-.1416526-.1551436l-.2158516-.3777402q.5463744-.5261382 1.173693-.782462.6340641-.2630692 1.4030354-.2630692.5531197 0 .9848229.1821248.4317032.1753794.7217537.5059022.2900506.3305228.4384486.7892074.1551433.4586846.1551433 1.0185497v4.2158516zm-2.4688026-.7284987q.2967959 0 .5463743-.060711.2495784-.0607108.4721754-.1686348.2225969-.114671.4182125-.2765592.2023608-.1686346.3979763-.3709953v-1.3625607q-.7892074.0337269-1.3423271.1349073-.5531197.0944351-.9038786.2563238-.3440134.1618887-.4991567.3844857-.1551434.2158515-.1551434.4856657 0 .2563243.080944.4451939.08769.1821249.2293423.3035414.1416526.1146713.3372682.1753796.1956155.053966.4182124.053966z"/><path d="m7.9258695 9.5919053v-9.5919053h1.1871836v3.9325462q.4047222-.4789208.9241149-.7554806.519393-.2833052 1.193929-.2833052.573356 0 1.03204.2225969.458685.222597.782462.6408094.323778.4182125.492412 1.0185497.17538.5935919.17538 1.3490725 0 .8026981-.195616 1.4569983-.195616.6543004-.559865 1.1264759-.36425.4654297-.883643.7217531-.519393.2563243-1.166947.2563243-.647555 0-1.0860041-.2428332-.4317027-.2495787-.7689711-.688027l-.0674556.5868463q-.0269788.2495787-.290051.2495787zm2.9072505-5.7605395q-.546374 0-.964586.2563236-.411467.2563238-.7554809.7284992v3.1838114q.310287.4249572.6812814.6003365.3709955.1686349.8161895.1686349.910623 0 1.39629-.6543004.485666-.6543004.485666-1.9494099 0-1.2006745-.431704-1.767285-.431702-.5666103-1.227656-.5666103z"/></g></svg>