<svg viewBox="0 0 16 16" xmlns="http://www.w3.org/2000/svg"><path d="m13.085938 4.3007812c-.059821.0423982-.111971.0831444-.169922.125.046218.1869475.084672.3757097.083984.5761719v.0019531c-.002173 2.7477685-2.251749 4.9960938-5 4.9960938-.0467633 0-.092206-.0065192-.1386719-.0078125-.1297006.1831875-.2206454.3108565-.3613281.5078125-.210813.253601-.2831414.594785-.1933594.912109.124699.438291.0591508.585907.7304688.896485.67132.310578 1.0301763.423588 2.3027346.361328.225038-.01109.439748-.0978.609375-.246094 3.574573-3.1153379 2.912893-2.4303742 4.880859-5.3496092.11091-.1651661.17007-.3596438.169922-.5585938v-.296875c-.055173.0498264-.107149.1028087-.166016.1484375a1.0001 1.0001 0 0 1 -1.517578-.3632813c-.307825-.6519762-.748426-1.1985948-1.230468-1.703125z" fill="#3a3a38"/><path d="m13.771484 5.0996094c-.304658.2145742-.569778.4169652-.828125.6171875-.292091 2.0080306-1.791731 3.6243338-3.7304684 4.1152343-.2897002.4038838-.5469293.7578888-.8984375 1.2499998-.014286.01941-.0292699.038311-.0449219.056641h-.0019531c.030017.105503.0427002.147091.0566407.193359.0296773.016659.0438105.027181.1328124.06836.6319655.292371.6295825.330409 1.8339848.271484 0 0 .001953-.001953.001953-.001953 1.750049-1.525215 2.380092-2.2914535 2.851562-3.044922.467303-.7468076.831072-.6016386 1.833985-2.078125a1.0001 1.0001 0 0 1 -.66211-.5429688c-.153019-.3240954-.341104-.6210833-.544922-.9042968zm-5.4472652 6.2324216c-.0602225-.033803-.0606415-.034691-.0136719.039063.0447751.070309.0383042.042691.0136719-.039063z" fill="#fafafa"/><path d="m7.2304688 11.009766c-.2611936.00974-.5143343.028897-.7304688.046875-2.056692.4941-1.7371332 1.337014-3.28125 3.322265-.5164461.665161-.060862 1.627607.78125 1.628906 2.7115807-.173351 3.7401211.528889 5.578125-1.234374.07164-.07132.1322065-.152947.1796875-.242188.1631052-.351692.2618925-.682612.2597655-1.011719-.0037-.568259-.23225-1.098535-.4023436-1.486328-.4416095-.580756-.8799889-.870494-1.6035156-1.021484-.2501619-.0123-.5200567-.01169-.78125-.002zm.013672.978515c.2108343.0016.4312475.02151.6660156.05274.6457798.226088 1.0391393.662816 1.0839844 1.507812.0004787.07407-.016144.177417-.048828.296875l-3.09375-1.423828c.4524271-.326142.8961695-.4373 1.3925781-.433594zm-2.0585937 1.226563 3.0214843 1.390625c-.4027608.269951-.7300308.357145-1.1699218.392578-.9042073-.0092-2.4189477-.0088-3.0351563-.0098.6037334-.776211.9275974-1.337725 1.1835938-1.773437z" fill="#0063b1"/><path d="m5.1855469 13.214844c-.2559964.435712-.5798604.997226-1.1835938 1.773437.6162086.000977 2.130949.000587 3.0351563.0098.439891-.03543.7671611-.122627 1.1699218-.392578z" fill="#83beec"/><path d="m7.2441406 11.988281c-.4902613-.0037-.9303436.122539-1.3769531.439453l3.078125 1.417969c.032685-.119484.049307-.222806.048828-.296875-.044845-.844996-.4382045-1.281724-1.0839843-1.507812-.2347681-.031228-.4551813-.051161-.6660156-.052735z" fill="#fafafa"/><path d="m8 0c-3.280109.0043271-6.2981174 1.792832-7.87695312 4.6679688.12894503.3637347.35743874.6765875.65625.9082031 1.32178872-2.7913094 4.13225372-4.5724616 7.22070312-4.5761719-2.209139 0-4 1.790861-4 4s1.790861 4 4 4 4-1.790861 4-4c.007957-2.0795111-1.578821-3.8182597-3.6503906-4 2.9613126.1345513 5.6054636 1.8955649 6.8710936 4.5761719.301515-.2337112.531909-.5500503.660156-.9179688-1.582074-2.8725903-4.601418-4.6572585-7.880859-4.6582031zm0 2c1.6568542 0 3 1.3431457 3 3 0 1.6568542-1.3431458 3-3 3s-3-1.3431458-3-3 1.3431458-3 3-3z" fill="#3a3a38"/><path d="m11 5a3 3 0 0 1 -3 3 3 3 0 0 1 -3-3 3 3 0 0 1 3-3 3 3 0 0 1 3 3z" fill="#fafafa"/><path d="m8 3c-1.1045695 0-2 .8954305-2 2s.8954305 2 2 2c1.1045694 0 1.9999999-.8954304 2-2 .028959-.1948937.028959-.3929969 0-.5878906-.1740078.3890294-.5754496.6250332-1 .5878906-.5522847 0-1-.4477153-1-1-.0368238-.4250269.2000485-.8266117.5898438-1-.195534-.0291523-.3943098-.0291523-.5898438 0z" fill="#1e8bcd"/></svg>