<svg viewBox="0 0 16 16" xmlns="http://www.w3.org/2000/svg"><g fill="#ed3d3b"><rect height="1" ry=".485174" width="2.99762" x="5.00238" y="7"/><rect height="1" ry=".5" width="2.99762" x="9.00238" y="7"/><rect height="1" ry=".5" width="2.99762" x="13" y="7"/><path d="m.49414062 5.0000003a.50005.50005 0 0 0 -.49414062.5v4a.50005.50005 0 0 0 .77734375.4160156l3.00000005-2a.50005.50005 0 0 0 0-.8320312l-3.00000005-2a.50005.50005 0 0 0 -.28320313-.0839844z"/></g><path d="m5.0001674 9c-.554 0-.9999846.446-1 1l-.000167 6h1l.000167-6h9.9998326l-.000167 6h1l.000167-6c.000015-.554-.446-1-1-1z" fill="#3a3a38"/><path d="m4.9997399 10-.000167 6h9.9998331l.000167-6z" fill="#fafafa"/><path d="m5.002 6c-.554 0-1.0783767-.4515722-1-1v-5h1v5h10.000214v-5h1v5c0 .554-.446 1-1 1z" fill="#3a3a38"/><path d="m5.0015725 0v5h10.0002135v-5z" fill="#fafafa"/></svg>