<svg viewBox="0 0 16 16" xmlns="http://www.w3.org/2000/svg">/&amp;gt;<path d="m3 1v5h10v-2.2949219l-2.695312-2.7050781z" fill="#fafafa"/><path d="m3 0c-.554 0-1 .446-1 1v5h1v-5h6v3.5c0 .277.223.5.5.5h3.5v1h1v-1.5-.8632812l-3.636719-3.6367188h-.863281zm7 1 3 3h-3zm-8 14c0 .554.446 1 1 1h2 1.0292969 2.9433593 2.0273438 2c.554 0 1-.446 1-1h-1-10z" fill="#3a3a38"/><path d="m0 6h16v9h-16z" fill="#1e8bcd"/><g fill="#fafafa"><path d="m9.056603 13h1.943397v1h-3v-7h1.056603z"/><path d="m16 7v1h-3v2h2.000021v1h-2.000021l.000472 2h3.003252l-.0069 1h-3.996824v-7h4.000041z"/><path d="m4 7a3 3.5 0 0 0 -3 3.5 3 3.5 0 0 0 3 3.5 3 3.5 0 0 0 3-3.5 3 3.5 0 0 0 -3-3.5zm0 1a2 2.5 0 0 1 2 2.5 2 2.5 0 0 1 -2 2.5 2 2.5 0 0 1 -2-2.5 2 2.5 0 0 1 2-2.5z"/></g></svg>