<svg height="16" viewBox="0 0 4.2333333 4.2333335" width="16" xmlns="http://www.w3.org/2000/svg"><g transform="translate(0 -292.76665)"><path d="m.5291667 294.35416 1.5875-1.32293 1.5875002 1.32293v2.64582h-3.1750003z" fill="#3a3a38"/><path d="m.79375 294.35415 1.3229167-1.19063 1.3229166 1.19063v2.38125h-2.6458333z" fill="#fafafa" fill-opacity=".978947"/><path d="m.79375002 293.03123h.26458328v1.05834h-.26458327z" fill="#83beec" fill-opacity=".978947"/><path d="m2.1166667 293.29582-1.85208335 1.71979-.26458333-.26458 2.11666668-1.98438 2.1166667 1.85207-.2645834.26459z" fill="#0063b1"/><g fill-opacity=".978947"><path d="m.52916667 292.76665v.26458 1.5875h.26458333v-1.5875h.2645833v.92605h.2645834v-1.19063h-.1322917-.1322917-.2645833z" fill="#0063b1"/><g fill="#1e8bcd"><path d="m2.1166667 294.88332h1.0583333l-.0000001 1.85209h-1.0583332z"/><path d="m1.0583333 295.67707h.7937499l.0000001-.79375h-.79375z"/></g></g></g></svg>