<svg height="16" viewBox="0 0 4.2333332 4.2333335" width="16" xmlns="http://www.w3.org/2000/svg"><g transform="translate(0 -292.76665)"><path d="m.5 0c-.27699999 0-.5.22300001-.5.5v15c0 .277.22300001.5.5.5h8.9804688l-.1503907-.744141-.90625.306641a1.0001 1.0001 0 0 1 -1.1855469-.445312l-.25-.431641a1.0001 1.0001 0 0 0 -.0019531-.001953l-.4980469-.867188-.25-.429687a1.0001 1.0001 0 0 1 .2050782-1.251953l.7207031-.634766-.7207031-.634766a1.0001 1.0001 0 0 1 -.2050782-1.2519528l.25-.4296874.4980469-.8671876a1.0001 1.0001 0 0 0 .0019531-.0019531l.25-.4316406a1.0001 1.0001 0 0 1 1.1855469-.4453125l.90625.3066406.1894531-.9414062a1.0001 1.0001 0 0 1 .9804688-.8027344h.5 1 .5a1.0001 1.0001 0 0 1 .980469.8027344l.189453.9414062.90625-.3066406a1.0001 1.0001 0 0 1 1.185547.4453125l.238281.4121094v-7.7949219c0-.27699999-.223-.5-.5-.5zm15.5 11.355469-.164062.144531.164062.144531zm0 3.349609-.238281.41211a1.0001 1.0001 0 0 1 -1.185547.445312l-.90625-.306641-.150391.744141h1.980469c.277 0 .5-.223.5-.5z" fill="#3a3a38" transform="matrix(.26458333 0 0 .26458333 0 292.76665)"/><path d="m1 1v14h6.1699219l-.1816407-.314453a1.0001 1.0001 0 0 0 -.0019531-.001953l-.4980469-.867188-.25-.429687a1.0001 1.0001 0 0 1 .2050782-1.251953l.7207031-.634766-.7207031-.634766a1.0001 1.0001 0 0 1 -.2050782-1.2519528l.25-.4296874.4980469-.8671876a1.0001 1.0001 0 0 0 .0019531-.0019531l.25-.4316406a1.0001 1.0001 0 0 1 1.1855469-.4453125l.90625.3066406.1894531-.9414062a1.0001 1.0001 0 0 1 .9804688-.8027344h.5 1 .5a1.0001 1.0001 0 0 1 .980469.8027344l.189453.9414062.90625-.3066406a1.0001 1.0001 0 0 1 .423828-.046875v-6.390625z" fill="#fafafa" transform="matrix(.26458333 0 0 .26458333 0 292.76665)"/><g stroke-width=".264583"><rect fill="#797774" height=".264583" rx="0" ry=".132292" width="1.5875" x="1.852083" y="294.08957"/><path d="m1.5875 294.22185a.396875.396875 0 0 1 -.396875.39687.396875.396875 0 0 1 -.396875-.39687.396875.396875 0 0 1 .396875-.39688.396875.396875 0 0 1 .396875.39688z" fill="#1e8bcd"/><path d="m1.5875 295.54477a.396875.396875 0 0 1 -.396875.39687.396875.396875 0 0 1 -.396875-.39687.396875.396875 0 0 1 .396875-.39688.396875.396875 0 0 1 .396875.39688z" fill="#fb983b"/></g><path d="m2.778125 294.61873-.1090372.54416-.5250327-.17777-.066146.1142-.1322916.22945-.066146.1142.416512.36639-.416512.36638.066146.11421.1322916.22944.066146.11421.5250327-.17777.1090372.54415h.1322916.2645834.1322916l.1090372-.54415.5250325.17777.066146-.11421.1322916-.22944.066146-.11421-.4165119-.36638.4165119-.36639-.066146-.1142-.1322916-.22945-.066146-.1142-.5250325.17777-.1090372-.54416h-.1322916-.2645834zm.2315104.26459h.066146l.099219.39687h.173116l.086816.14986.3932577-.11213.033073.0568-.2940389.28474.086816.14986-.086816.14986.2940389.28474-.033073.0568-.3932577-.11214-.086816.14987h-.173116l-.099219.39687h-.066146l-.099219-.39687h-.1731159l-.086816-.14987-.3932576.11214-.033073-.0568.2940389-.28474-.086816-.14986.086816-.14986-.2940389-.28474.033073-.0568.3932576.11213.086816-.14986h.1731161zm.033073.52916a.396875.396875 0 0 0 -.396875.39688.396875.396875 0 0 0 .396875.39687.396875.396875 0 0 0 .396875-.39687.396875.396875 0 0 0 -.396875-.39688zm0 .26459a.13229167.13229167 0 0 1 .1322917.13229.13229167.13229167 0 0 1 -.1322917.13229.13229167.13229167 0 0 1 -.1322917-.13229.13229167.13229167 0 0 1 .1322917-.13229z" fill="#1e8bcd"/><path d="m3.0096354 294.88332h.066146l.099219.39687h.173116l.086816.14986.3932577-.11213.033073.0568-.2940389.28474.086816.14986-.086816.14986.2940389.28474-.033073.0568-.3932577-.11214-.086816.14987h-.173116l-.099219.39687h-.066146l-.099219-.39687h-.1731159l-.086816-.14987-.3932576.11214-.033073-.0568.2940389-.28474-.086816-.14986.086816-.14986-.2940389-.28474.033073-.0568.3932576.11213.086816-.14986h.1731161zm.033073.52916c-.219188 0-.396875.17769-.396875.39688s.177687.39687.396875.39687.396875-.17768.396875-.39687-.177687-.39688-.396875-.39688z" fill="#fafafa"/></g></svg>