<svg viewBox="0 0 16 16" xmlns="http://www.w3.org/2000/svg">/&amp;amp;gt;<path d="m8.7773438.9765625c.0058802.00779688.0117396.01560941.0175781.0234375h-4.7949219v.0175781c-.533997.1270201-.8266138.4947912-1 .9824219v9.982422c-.06906.0014-.1282364.009602-.1933594.013672-.3736689-.03397-.716301.0484-1.0019531.210937-.6268889.267366-.86471507.984321-.8125 1.449219-.002239.03193-.01216485.063903-.01171875.095703.006895.491527.34398555.9582 1.14843745 1.152344.1609347.05069.3303102.08701.515625.09375.0514961.0019.1071945-.006013.1601563-.007813.0661824.002925.1249992.009594.1953125.009766h4.2636719c-.0014112-.001872-.0024974-.003986-.0039063-.005859-.0010958-.001457-.0028119-.002449-.0039062-.003907a5.5 5.5 0 0 1 -.0097656-.013672 5.5 5.5 0 0 1 -1.2460938-3.476562 5.5 5.5 0 0 1 5.5-5.5 5.5 5.5 0 0 1 .535156.0332031l.009766-2.2890625c.07185-.00142.133578-.0093598.201172-.0136718.372474.0324179.713475-.048175.998047-.2109376.625266-.2675418 1.856872-.734843 1.804687-1.1992187.0022-.031933.012159-.0638951.011719-.0957031-.0065-.4611622-1.301378-.8963342-2.001953-1.109375-.04379-.013315-.08581-.0275765-.132813-.0390625-.163354-.052324-.336725-.09079708-.52539-.09765628-.05341-.00194199-.111028.00770163-.166016.00976563-.06434-.002776-.121219-.01155145-.189453-.01171875zm2.1015622 13.8671875c-.038944.03275-.076594.041596-.115234.066406.00098-.000629.002926.000636.003906 0 .037675-.024418.073371-.034491.111328-.066406z" fill="#fafafa"/><path d="m4.25 0c-1.3070984 0-2.25 1.1080036-2.25 2.375v1.875 5.1425781 1.8046879c-1.07146171.240703-2 1.27521-2 2.427734 0 1.346001 1.1942339 2.375 2.5 2.375h5.84375a5.5 5.5 0 0 1 -1.078125-1 5.5 5.5 0 0 1 -.0019531 0h-4.7636719c-.7653589 0-1.5-.649877-1.5-1.375 0-.09064.0116205-.180412.0332031-.267578.1510787-.610167.7971075-1.357422 1.4667969-1.357422h.5v-2.2148438-5.5351562-1.875c0-.8105224.4795984-1.375 1.25-1.375h4.4863281 3.7675779c.76536 0 2.496094.6498765 2.496094 1.375s-1.730931 1.3576694-2.496094 1.375h-.5v2.2773438a5.5 5.5 0 0 1 1 .1875v-1.6621094c1.071462-.2407031 2.996094-1.0252107 2.996094-2.1777344 0-1.3460015-1.262593-2.375-2.568359-2.375h-5.775391zm8.712891 14.078125c-.010729.058432-.032135.112925-.046875.169922.014571-.05689.036254-.111663.046875-.169922zm-.115235.410156c-.03416.09229-.078472.17906-.123047.265625.044237-.087038.089175-.17297.123047-.265625zm-.179687.38086c-.055922.095625-.119253.185286-.1875.271484.067829-.08692.131974-.175208.1875-.271484zm-.238281.33789c-.082788.097128-.173762.18781-.271485.269531.097705-.082871.188847-.171124.271485-.269531zm-.283204.279297c-.104987.086575-.217695.164319-.33789.230469.119987-.06698.2332-.142897.33789-.230469zm-.33789.230469c-.121468.06685-.249635.122933-.384766.166015.135292-.043669.263303-.098211.384766-.166015zm-.384766.166015c-.135131.043083-.276912.073454-.423828.089844.147544-.01646.288296-.046097.423828-.089844z" fill="#3a3a38"/><circle cx="2.5" cy="13.5" fill="#98989d" r="1.5"/><path d="m2 11v.197266c-1.07146171.240703-2 1.27521-2 2.427734 0 1.346001 1.1942339 2.375 2.5 2.375h5.84375a5.5 5.5 0 0 1 -1.0839844-1.005859l-.9960937.005859h-3.7636719c-.0973966-.000134-.1926433-.011307-.2851562-.029297-.2783205-.054121-.5271343-.186577-.7285157-.373047-.278703-.244231-.4654721-.573421-.4804687-.927734h-.0058594v-.044922-.125-1.5h1.5.5v-1z" fill="#922e9b"/><path d="m0 11v3h6.6113281a5.5 5.5 0 0 1 -.6113281-2.5 5.5 5.5 0 0 1 .0273438-.5z" fill="#922e9b"/><path d="m1 12v1.5.169922h.0117188c.086307.75699.7263881 1.32903 1.4882812 1.330078.1023627.000007.2044573-.01046.3046875-.03125v.021484h4.4511719a5.5 5.5 0 0 1 -1.2304688-2.990234z" fill="#d492d8"/><path d="m14 .05273438v1.05078122c.189533.0691263.367347.1633377.513672.2988282.189174.1657756.330661.3723074.410156.5976562h-.923828v2 .8027344.1972656h2v-2.625-.375h-.035156c-.168921-.9906683-.989692-1.74952773-1.964844-1.94726562z" fill="#922e9b"/><path d="m13.416016 1c.171876.000857.422403.0449256.583984.1035156-.527274.186662-.921708.6426757-.988281 1.2265627h-.01172v.1699217 1.5 1h-.999999v-3h.0039c.211633-.598592.777207-.999109 1.41211-1z" fill="#f00"/><path d="m14 .05273438c-.975152.19773789-1.795927.95659732-1.964844 1.94726562h-.035156v.375 2.625h2v-.1972656-.8027344h-1v-1.5-.1699219h.011719c.013282-.1168576.049297-.2242185.08789-.3300781h-.023437c.054283-.15388.146365-.2925289.253906-.421875.010561-.0129858.022214-.0244939.033203-.0371094.041109-.0461956.075754-.097228.123047-.1386718.043472-.0402534.094066-.0701247.142578-.1035157.010673-.0075548.020375-.0161491.03125-.0234375.106119-.0685843.219102-.1278381.339844-.171875z" fill="#922e9b"/><path d="m14.021484 1.095703c-.536381.1839047-.943075.6476307-1.009765 1.234375h-.011719v.169922 1.5h2v-1.5-.1699219h-.01172c-.065537-.5748344-.451748-1.0418811-.966796-1.2343751z" fill="#d492d8"/><circle cx="11.5" cy="11.5" fill="#fafafa" r="3.5"/><g fill="#ed3d3b"><path d="m11.5 7a4.5 4.5 0 0 0 -4.5 4.5 4.5 4.5 0 0 0 4.5 4.5 4.5 4.5 0 0 0 4.5-4.5 4.5 4.5 0 0 0 -4.5-4.5zm0 1a3.5 3.5 0 0 1 3.5 3.5 3.5 3.5 0 0 1 -3.5 3.5 3.5 3.5 0 0 1 -3.5-3.5 3.5 3.5 0 0 1 3.5-3.5z"/><path d="m14 11.5a2.5 2.5 0 0 1 -2.5 2.5 2.5 2.5 0 0 1 -2.5-2.5 2.5 2.5 0 0 1 2.5-2.5 2.5 2.5 0 0 1 2.5 2.5z"/></g></svg>