<svg height="16" viewBox="0 0 4.2333332 4.2333335" width="16" xmlns="http://www.w3.org/2000/svg"><g transform="translate(0 -292.76665)"><g transform="matrix(.26458333 0 0 .26458333 0 292.76667)"><rect fill="#0063b1" height="4" ry="1" width="4" x="1" y="12"/><rect fill="#3a3a38" height="9" ry="1" width="4" x="11" y="7"/><rect fill="#ed8733" height="6" ry="1" width="4" x="6" y="10"/><path d="m2 13h2v2h-2z" fill="#83beec" stroke-width=".679366"/><path d="m7 11h2v4h-2z" fill="#f8db8f" stroke-width=".720082"/><path d="m12 8h2v7h-2z" fill="#797774" stroke-width=".57735"/></g><g stroke-width=".264583"><path d="m1.190625 292.76667c-.07329 0-.1322917.059-.1322917.13229v2.77812h.2645833v-.39687c0-.0733.059002-.13229.1322917-.13229h1.190625v-.66146c0-.0733.059002-.13229.1322917-.13229h1.3229166c.07329 0 .1322917.059.1322917.13229v-1.5875c0-.0733-.059002-.13229-.1322917-.13229z" fill="#3a3a38"/><path d="m1.3229166 293.03125v2.24896c0-.0733.059002-.13229.1322917-.13229h1.190625v-.66146c0-.0733.059002-.13229.1322917-.13229h1.190625v-1.32292z" fill="#fafafa"/><rect fill="#98989d" height=".264583" rx="0" ry=".132292" width="1.058333" x="2.645833" y="293.82501"/><path d="m2.38125 293.95729a.396875.396875 0 0 1 -.396875.39688.396875.396875 0 0 1 -.396875-.39688.396875.396875 0 0 1 .396875-.39687.396875.396875 0 0 1 .396875.39687z" fill="#1e8bcd"/><path d="m1.984375 294.88333a.396875.396875 0 0 0 -.3736206.26459h.7472412a.396875.396875 0 0 0 -.3736206-.26459z" fill="#fb983b"/></g></g></svg>