<svg viewBox="0 0 16 16" xmlns="http://www.w3.org/2000/svg"><path d="m7 1v1.9980469l2.4863281.0019531c.4201687-.0059422.8676559.1828049 1.1386719.484375s.382814.6661774.382812 1.015625c.000004.3494476-.111796.7140549-.382812 1.015625s-.7185032.4903172-1.1386719.484375l-5.3554687-.0039062 1.4238281 1.4238281c.3042275.2920961.4894856.7436353.46875 1.1503906s-.1994888.7444107-.4472656.9921875-.5854323.4265289-.9921875.447266c-.4067553.020735-.8582948-.1645229-1.1503906-.4687504l-2.4335938-2.4335937v3.8925781h2.5c.2761309.000028.4999724.223869.5.5v2.886719l3.6679688-3.259766c.0913925-.081553.2095407-.12673.3320312-.126953h7v-10z" fill="#fafafa"/><path d="m7 0v1h8v10h-7c-.1224905.000223-.2406387.0454-.3320312.126953l-3.6679688 3.259766v-2.886719c-.0000276-.276131-.2238691-.499972-.5-.5h-2.5v-3.8925781l-1-1c0 .267254 0 1.881501 0 1.6933593v3.6992188c.00002761.276131.22386906.499972.5.5h2.5v3.5c.0007774.430893.5097988.659116.8320312.373047l4.3574219-3.873047h7.3105469c.276131-.000028.499972-.223869.5-.5v-11c-.000028-.27613094-.223869-.49997239-.5-.5z" fill="#3a3a38"/><path d="m4.4980468-.00976606a.50005.50005 0 0 0 -.34375.15039064l-3.95703124 3.95703122a.50005.50005 0 0 0 -.001953.7929688.50005.50005 0 0 0 .005859.00391l3.95312524 3.9531212a.50005.50005 0 1 0 .7070312-.7070312l-3.1464843-3.1464844 7.7851562.00586a.50005.50005 0 1 0 0-1l-7.7851562-.00586 3.1464843-3.14648437a.50005.50005 0 0 0 -.3632812-.85742189z" fill="#1e8bcd" fill-rule="evenodd"/></svg>