<svg viewBox="0 0 16 16" xmlns="http://www.w3.org/2000/svg">/&amp;amp;amp;amp;amp;gt;<path d="m2 2c-.554 0-1 .446-1 1v12c0 .554.446 1 1 1h12c.554 0 1-.446 1-1v-12c0-.554-.446-1-1-1h-1v2c0 .554-.446 1-1 1h-8c-.554 0-1-.446-1-1v-2z" fill="#ed8733"/><path d="m2 3v12h12v-12h-1v1c0 .554-.446 1-1 1h-8c-.554 0-1-.446-1-1v-1z" fill="#f8db8f"/><path d="m3 4v10h10v-10c0 .554-.446 1-1 1h-8c-.554 0-1-.446-1-1z" fill="#fafafa" stroke-width="1.118034"/><path d="m8.5 5c-1.38125 0-2.5 1.0743907-2.5 2.4003906v.5996094h1v-.5996094c0-.6599999.812504-1.4066504 1.5-1.4042968.990199.00339 1.49904.5352625 1.486328 1.3691406-.005.3299617-.374219.6648596-.605469.8808596l-.77539.755859c-.45.438-.623578.996364-.611328 1.65625l.005859.341797h1c0-1.192826-.000732-.999219.855469-1.697266l.5625-.552734c.35625-.342.582031-.8216094.582031-1.3496094 0-1.3259999-1.11875-2.4003906-2.5-2.4003906zm-.5 7v1h1v-1z" fill="#ed3d3b"/><path d="m8 0a2 2 0 0 0 -2 2h-2v2h4 4v-2h-2a2 2 0 0 0 -2-2zm0 1a1 1 0 0 1 1 1 1 1 0 0 1 -1 1 1 1 0 0 1 -1-1 1 1 0 0 1 .0058594-.0996094 1 1 0 0 1 .9941406-.9003906z" fill="#3a3a38"/></svg>