<svg viewBox="0 0 16 16" xmlns="http://www.w3.org/2000/svg">/&amp;gt;<path d="m3 1v14h4.1699219l-.1816407-.314453a1.0001 1.0001 0 0 0 -.0019531-.001953l-.4980469-.867188-.25-.429687a1.0001 1.0001 0 0 1 .2050782-1.251953l.7207031-.634766-.7207031-.634766a1.0001 1.0001 0 0 1 -.2050782-1.2519528l.25-.4296874.4980469-.8671876a1.0001 1.0001 0 0 0 .0019531-.0019531l.25-.4316406a1.0001 1.0001 0 0 1 1.1855469-.4453125l.90625.3066406.1894531-.9414062a1.0001 1.0001 0 0 1 .9804688-.8027344h.5 1 .5a1.0001 1.0001 0 0 1 .5.1367188v-2.4316407l-2.695312-2.7050781z" fill="#fafafa"/><path d="m3 0c-.554 0-1 .446-1 1v14c0 .554.446 1 1 1h2 1.0292969 2.9433593.5078126l-.1503907-.744141-.90625.306641c-.4507995.152549-.9466552-.033703-1.1855469-.445312l-.0683593-.117188h-.96875-1.2011719-2v-14h6v3.5c0 .277.223.5.5.5h3.5v1.1367188c.248124.1429771.423053.3854602.480469.6660156l.189453.9414062.330078-.1113281v-3.1328125-.8632812l-3.636719-3.6367188h-.863281zm7 1 3 3h-3z" fill="#3a3a38"/><path d="m10.5 7-.412109 2.056641-1.9843754-.6718754-.25.4316406-.5.8671878-.25.43164 1.5742188 1.384766-1.5742188 1.384766.25.43164.5.867188.25.43164 1.9843754-.671875.412109 2.056641h.5 1 .5l.412109-2.056641 1.984375.671875.25-.43164.5-.867188.25-.43164-1.574218-1.384766 1.574218-1.384766-.25-.43164-.5-.8671878-.25-.4316406-1.984375.6718754-.412109-2.056641h-.5-1zm.875 1h.25l.375 1.5h.654297l.328125.566406 1.486328-.423828.125.214844-1.111328 1.076172.328125.566406-.328125.566406 1.111328 1.076172-.125.214844-1.486328-.423828-.328125.566406h-.654297l-.375 1.5h-.25l-.375-1.5h-.654297l-.328125-.566406-1.486328.423828-.125-.214844 1.1113281-1.076172-.328125-.566406.328125-.566406-1.1113281-1.076172.125-.214844 1.486328.423828.328125-.566406h.654297zm.125 2a1.5 1.5 0 0 0 -1.5 1.5 1.5 1.5 0 0 0 1.5 1.5 1.5 1.5 0 0 0 1.5-1.5 1.5 1.5 0 0 0 -1.5-1.5zm0 1a.5.5 0 0 1 .5.5.5.5 0 0 1 -.5.5.5.5 0 0 1 -.5-.5.5.5 0 0 1 .5-.5z" fill="#1e8bcd"/><path d="m11.375 8h.25l.375 1.5h.654297l.328125.566406 1.486328-.423828.125.214844-1.111328 1.076172.328125.566406-.328125.566406 1.111328 1.076172-.125.214844-1.486328-.423828-.328125.566406h-.654297l-.375 1.5h-.25l-.375-1.5h-.654297l-.328125-.566406-1.486328.423828-.125-.214844 1.1113281-1.076172-.328125-.566406.328125-.566406-1.1113281-1.076172.125-.214844 1.486328.423828.328125-.566406h.654297zm.125 2c-.828427 0-1.5.671573-1.5 1.5s.671573 1.5 1.5 1.5 1.5-.671573 1.5-1.5-.671573-1.5-1.5-1.5z" fill="#fafafa"/></svg>