<svg viewBox="0 0 16 16" xmlns="http://www.w3.org/2000/svg"><g fill="#3a3a38"><rect height="1" ry=".380151" width="7" x="1" y="2.000001"/><rect height="1" ry=".440076" width="7" x="1" y="12"/><rect height="1" ry=".5" width="8" x="1" y="14"/><rect height="1" ry=".47603" width="8" x="1" y="4"/></g><g fill="#1e8bcd" fill-rule="evenodd"><path d="m8.9998199 3.484375c-.0115041.454318.5402829.6868471.8574219.3613281l2.1445312-2.1484375-.001953 4.7773434c-.01795.350177.241511.525391.5.525391s.51795-.175214.5-.525391l-.002-4.7773434 2.144531 2.1484375c.317139.325519.868926.09299.857422-.3613281-.0041-.130048-.05875-.25337-.152344-.34375l-2.912062-2.9160156c-.160649-.173289-.266429-.2230094-.435547-.2246094-.169118.0016-.274898.0513204-.435547.2246094l-2.9121093 2.9160156c-.093594.09038-.1482439.213702-.1523438.34375z"/><path d="m8.9998199 12.515625c-.011504-.454318.5402829-.686847.8574219-.361328l2.1445312 2.148437-.002-4.777343c-.017903-.350177.241558-.525391.500047-.525391s.51795.175214.5.525391l-.0019 4.777343 2.144531-2.148437c.317139-.325519.868926-.09299.857422.361328-.0041.130048-.05875.25337-.152344.34375l-2.912112 2.916016c-.160699.173289-.266479.223009-.435597.224609-.169118-.0016-.274898-.05132-.435547-.224609l-2.9121093-2.916016c-.093594-.09038-.1482439-.213702-.1523438-.34375z"/></g></svg>