<svg viewBox="0 0 16 16" xmlns="http://www.w3.org/2000/svg">/&amp;amp;amp;amp;amp;gt;<path d="m2 2c-.554 0-1 .446-1 1v12c0 .554.446 1 1 1h12c.554 0 1-.446 1-1v-12c0-.554-.446-1-1-1h-1v2c0 .554-.446 1-1 1h-8c-.554 0-1-.446-1-1v-2z" fill="#ed8733"/><path d="m2 3v12h12v-12h-1v1c0 .554-.446 1-1 1h-8c-.554 0-1-.446-1-1v-1z" fill="#f8db8f"/><path d="m3 4v10h10v-10c0 .554-.446 1-1 1h-8c-.554 0-1-.446-1-1z" fill="#fafafa" stroke-width="1.118034"/><g fill="#3a3a38"><path d="m8 0a2 2 0 0 0 -2 2h-2v2h4 4v-2h-2a2 2 0 0 0 -2-2zm0 1a1 1 0 0 1 1 1 1 1 0 0 1 -1 1 1 1 0 0 1 -1-1 1 1 0 0 1 .0058594-.0996094 1 1 0 0 1 .9941406-.9003906z"/><path d="m9.442308 11.926964q-.173077 0-.264423-.04868-.09135-.05356-.144231-.209349l-.105769-.321324q-.182692.160662-.350962.282376-.168269.121714-.350961.204479-.177885.08277-.3846158.121714-.201923.04382-.451923.04382-.3076924 0-.5625001-.08277-.2548076-.087637-.4423077-.253168-.1826923-.165531-.2836538-.408958-.1009616-.248296-.1009616-.569621 0-.26777.1346154-.53554.1346154-.26777.4567308-.481986.3269231-.219085.8653846-.360273.5432692-.146056 1.3509622-.165531v-.258033q0-.4673806-.192308-.6864653-.192308-.2190846-.552885-.2190846-.2692306 0-.4471153.063291-.173077.063291-.3076923.1411879-.1346154.073028-.2500001.1363194-.1153845.063291-.2596153.063291-.125 0-.2163462-.063291-.086538-.06816-.1394231-.1606621l-.2211539-.3894839q.4134616-.3894839.9134616-.5793573.5-.1898735 1.0817306-.1898735.41827 0 .75.1411879.331731.1363194.5625.389484.23077.248296.350962.593963.120192.345667.120192.7594935v3.042844zm-1.6730772-.769231q.3269232 0 .5625002-.116845.240385-.121714.475962-.37001v-.778968q-.475962.01947-.79327.08277-.3124998.05842-.4999998.155794-.1875001.0925-.2692308.219084-.076923.126583-.076923.272639 0 .292113.1586538.413827.1634616.121713.4423076.121714z"/></g></svg>