<svg viewBox="0 0 16 16" xmlns="http://www.w3.org/2000/svg">/&amp;amp;gt;<path d="m2 1v14h10v-6.2050781l-4.046875 4.2753901a.99995568.99995568 0 0 1 -.0195312.019532c-.0641332.06413-.1386624.050926-.2089844.097656a.99995568.99995568 0 0 1 -.4082032.259766l-3 1a.99995568.99995568 0 0 1 -1.265625-1.265625l1-2.998047-.0449218.216797c.0246776-.246485.1289659-.5801375.390625-.8417972l6.5449216-6.9160157-1.6367185-1.6425781z" fill="#fafafa"/><path d="m2 0c-.554 0-1 .446-1 1v14c0 .554.446 1 1 1h2 1.0292969 2.9433593 2.0273438 2c.554 0 1-.446 1-1v-.800781-.199219-2-4.2617188l-1 1.0566407v3.2050781 2 .091797.908203h-2-.7402344-4.0585937-1.2011719-2v-14h6v3.5c0 .277.223.5.5.5h.2109375l.9472656-1h-.6582031v-3l1.796875 1.796875.662109-.7011719-2.0957028-2.0957031h-.8632812z" fill="#3a3a38"/><path d="m3.4238281 3c-.234273 0-.4238281.1895551-.4238281.4238281v.1523438c0 .234273.1895551.4238281.4238281.4238281h3.1523438c.234273 0 .4238281-.1895551.4238281-.4238281v-.1523438c0-.234273-.1895551-.4238281-.4238281-.4238281zm.0761719 2c-.277 0-.5.223-.5.5s.223.5.5.5h4.265625l.9453125-1zm0 2c-.277 0-.5.223-.5.5s.223.5.5.5h2.3710938l.9472656-1zm0 2c-.277 0-.5.223-.5.5s.223.5.5.5h.6074219c.0618932-.1522683.1533233-.3056667.2890625-.4414062l.5292968-.5585938zm0 2c-.277 0-.5.223-.5.5 0 .259022.1974175.463832.4492188.490234l.3300781-.990234zm6.4121094 0-.9453125 1h1.5332031c.277 0 .5-.223.5-.5s-.223-.5-.5-.5zm-1.8925782 2-.0664062.070312a.99995568.99995568 0 0 1 -.0195312.019532c-.0641332.06413-.1386624.050926-.2089844.097656a.99995568.99995568 0 0 1 -.4082032.259766l-1.6582031.552734h4.8417969c.277 0 .5-.223.5-.5s-.223-.5-.5-.5z" fill="#ed3d3b"/><g transform="translate(-6.999111 -1.001933)"><path d="m21.310955 2.115187 1.576175 1.576175c.151005.1510055.146825.390073 0 .5451453l-8.662219 9.1487627c-.151006.151005-.39414.151005-.545146 0l-1.576175-1.576175c-.151005-.151006-.151005-.390234 0-.54124l8.662219-9.152668c.151006-.1510052.39414-.1510055.545146 0z" fill="#d42314"/><path d="m21.038382 3.2568279.707107.7071067-7.793151 8.2796944-.707107-.707107z" fill="#ff9198"/><g fill="#d42314"><path d="m12 11.5-1 3 3-1z"/><path d="m16.648932-11.313708h2.229048c.213554 0 .385476.171922.385476.385476v.229048c0 .213553-.171922.385476-.385476.385476h-2.229048c-.213553 0-.385476-.171923-.385476-.385476v-.229048c0-.213554.171923-.385476.385476-.385476z" transform="matrix(.70710678 .70710678 -.70710678 .70710678 0 0)"/></g></g></svg>