<svg viewBox="0 0 16 16" xmlns="http://www.w3.org/2000/svg">/&amp;amp;gt;<path d="m2 1v14h3.2011719a1.0001 1.0001 0 0 1 .203125-.318359c.00151-.00001.083434-.08231.013672-.01172.00212-.002.00179-.0058.00391-.0078a1.0001 1.0001 0 0 1 .064453-.05859c1.818538-1.52061 2.5129604-2.700691 2.8261681-3.767593.3118616-1.0623177.2332053-2.1197771.1679688-3.4121099a1.0001 1.0001 0 0 1 .00977-.2050781c.00156-.02415-.00357-.025383 0-.050781.00183-.013153.015368-.020177.017578-.033203a1.0001 1.0001 0 0 1 .2539063-.4589844 1.0001 1.0001 0 0 0 .00195-.00195c.2491319-.3844843.6155439-.6825916 1.0937489-.6738316.703751.01209 1.295011.5860433 1.330078 1.2890625.01055.215079.0066.2633722-.0039.0625a1.0001 1.0001 0 0 1 -.0078.1894531c-.247154 1.7827323.06889 2.6254894.601563 3.1835934.05585.05851.151077.11022.222656.166016v-7.1855469l-2.695331-2.7050781zm7.195312 6.2675781-.0078.1894531c-.01342-.2552585-.0073-.2802091.0039-.066406.0015.00274.0076.00225.0078.00586.006-.048344-.01071-.080034-.0039-.1289071zm2.650391 6.8222659c-.252875.01662-.50783.0544-.767578.115234-.560306.131226-1.163203.382191-1.818359.794922h2.740234v-.908203c-.05141.0017-.102808-.0053-.154297-.002z" fill="#fafafa"/><path d="m1.9999998 0c-.554 0-1 .446-1 1v14c0 .554.446 1 1 1h3.0292969c-.027641-.102762-.046762-.209222-.048828-.324219-.00219-.121989.1127475-.216802.1484374-.339843a1.0001 1.0001 0 0 1 .072266-.335938h-3.2011723v-14h6v3.5c0 .277.223.5.5.5h3.5000002v5.890625c.248709.193869.570418.372351 1 .521484v-6.912109-.8632812l-3.6367192-3.6367188h-.863281zm7 1 3.0000002 3h-3.0000002zm3.0000002 13.091797v.908203h-2.7402342c-.4043262.254714-.837182.598968-1.2871098 1h4.027344c.554 0 1-.446 1-1v-.800781c-.131309-.03459-.269199-.06478-.396484-.101563-.202397-.01586-.40245-.01268-.603516-.0059z" fill="#3a3a38"/><path d="m3.4238281 3c-.234273 0-.4238281.1895551-.4238281.4238281v.1523438c0 .234273.1895551.4238281.4238281.4238281h3.1523438c.234273 0 .4238281-.1895551.4238281-.4238281v-.1523438c0-.234273-.1895551-.4238281-.4238281-.4238281zm.0761719 2c-.277 0-.5.223-.5.5s.223.5.5.5h6.3574219.6425781c.277 0 .5-.223.5-.5s-.223-.5-.5-.5zm0 2c-.277 0-.5.223-.5.5s.223.5.5.5h4.9980469c-.009499-.1965069-.0070966-.3685329-.0175781-.5761719a1.0001 1.0001 0 0 1 .0097656-.2050781c.00156-.02415-.00357-.0253833 0-.0507812.00183-.013153.0153681-.0201772.0175781-.0332032a1.0001 1.0001 0 0 1 .0449219-.1347656zm5.6953125.2675781-.0078125.1894531c-.01342-.2552585-.0072938-.2802093.0039062-.0664062.0015001.00274.0076126.0022494.0078126.0058594.006-.048344-.0107163-.0800332-.0039063-.1289063zm-5.6953125 1.7324219c-.277 0-.5.223-.5.5s.223.5.5.5h4.9804688c.0404958-.3219524.0485279-.6612848.0488281-1zm0 2c-.277 0-.5.223-.5.5s.223.5.5.5h4.2910156c.1970158-.347028.3545154-.680683.4589844-1zm0 2c-.277 0-.5.223-.5.5s.223.5.5.5h2.6367188c.3715317-.349745.6908537-.683873.9511718-1z" fill="#ed3d3b"/><path d="m4 3v1h2v-1zm0 2v1h4v-1zm1 2v1h2v-1zm1 2v1h2.4804688c.0404958-.3219524.0485279-.6612848.0488281-1zm-2 2v1h3.7910156c.0668308-.117717.1542679-.241388.2089844-.355469v-.644531zm0 2v1h2v-1z" fill="#fafafa"/><path d="m6.3552524 15.644758c3.9201846-3.277907 3.6057646-5.7662152 3.4784016-8.2894016-.561677 4.0514056 1.529192 5.5007666 4.81093 5.7819296-2.474792-.780342-5.097383-.732202-8.2893316 2.507472z" fill="none" stroke="#ed3d3b" stroke-linecap="round" stroke-linejoin="round" stroke-width=".711393"/></svg>