<svg viewBox="0 0 16 16" xmlns="http://www.w3.org/2000/svg"><path d="m7.5 2a6.5 6.5 0 0 0 -6.5 6.5 6.5 6.5 0 0 0 5.0898438 6.339844 1.0007407 1.0007407 0 0 1 .203125-.296875l3.0429687-3.042969-3.0429687-3.0429688a1.0007407 1.0007407 0 0 1 0-1.4140624l.75-.75a1.0007407 1.0007407 0 0 1 .6914062-.2929688 1.0007407 1.0007407 0 0 1 .7226562.2929688l3.0429688 3.0429687 2.320312-2.3203125a6.5 6.5 0 0 0 -6.320312-5.015625z" fill="#fafafa"/><path d="m7.4550781 1c-.3509382.0021-.6933685.037251-1.03125.085937-.039234.00565-.078153.01132-.1171875.017578-.033193.005-.066489.00981-.099609.015625-.00204.0003558-.00382.0016-.00586.00195-.3750139.06563-.7401712.1562958-1.09375.2753906-.3385417.1140299-.6655268.2530368-.9804688.4121094-.00312.00158-.00665.00233-.00977.00391-.016129.00818-.032762.015147-.048828.023437-.00289.00149-.00492.00436-.00781.00586-.3214904.1663996-.6277132.3550142-.9199198.564453-.014404.010324-.028641.020827-.042969.03125-.017583.01295-.035092.025997-.052734.039063-.00296.00219-.00486.00562-.00781.00781-.5905676.4389002-1.1137913.9603979-1.5527344 1.5507812-.0028.00376-.00502.00795-.00781.011719-.012149.015797-.025354.030695-.037109.046875-.0017.00234-.00221.00547-.00391.00781-.2226177.3063742-.4247036.6279119-.5996111.9668012-.1223732.2371022-.22918721.4814482-.32617188.7324218-.02135587.054929-.04044715.1104775-.06054687.1660157-.07108956.1977813-.13491161.3984431-.18945313.6035156-.02107432.0784725-.0400299.1568638-.05859374.2363281-.0468642.2027432-.08518157.4085362-.11523438.6171875-.01066855.0731031-.02468127.1449669-.03320313.21875-.03202977.2810827-.05266415.5658642-.05273437.8554688v.0019531c.00007022.2896046.0207046.5743858.05273437.8554688.0085219.073783.02253458.1456466.03320313.21875.03005281.2086512.06837017.4144448.11523438.6171872.0185639.07946.0375194.157856.0585937.236328.0545415.205073.11836357.405735.18945313.603516.0200997.05554.039191.111087.0605469.166016.0969847.250973.20379868.495319.32617188.732422.1749075.338887.3769934.660426.5996094.966796.0017.0023.0022.0055.00391.0078.01452.01998.030216.03877.044922.05859.4389431.590383.9621668 1.111881 1.5527344 1.550781.00296.0022.00485.0056.00781.0078.031926.02364.063406.04718.095703.07031.2922066.209439.5984294.398053.9199219.564453.00289.0015.00492.0044.00781.0059.016066.0083.032699.01526.048828.02344.00312.0016.00665.0023.00977.0039.314942.159073.6419271.298082.9804688.412109.3535788.119095.7187361.209762 1.09375.275391.00204.000357.00382.0016.00586.002.00654.0011.012994.0028.019531.0039-.24118639-.296255-.29271339-.703924-.13281599-1.050827-.0926119-.022091-.1836677-.049492-.2753906-.074219-.1612579-.043689-.3217778-.088816-.4785156-.144531-.1366367-.04838-.2695581-.102892-.4023438-.160156-.155556-.067315-.3074383-.141572-.4570312-.220703-.1150608-.060697-.2325353-.118051-.34375-.185547-.2428023-.147803-.477275-.309487-.6992188-.488281-.1787373-.144685-.342435-.308912-.5058594-.472656-.00391-.0039-.00781-.0078-.011719-.01172-.070972-.07124-.1489866-.13428-.2167969-.208985.8919173-.313791 1.7816438-.535303 2.6699219-.671875.1833482.866354.4308474 1.730969.7421875 2.591797.046721-.08921.1066413-.170861.1777344-.242187l.6464846-.646484c-.2113541-.611425-.4015309-1.221671-.5410156-1.830078.3679684-.02923.734918-.042808 1.1015625-.042968.3666445.000159.7335941.01374 1.1015625.04297-.017728.07733-.045523.15505-.064453.232422l.798828-.79883-.5351563-.535156c-.00217.01371-.00364.0273-.00586.04101-.3679176-.03136-.7349552-.04141-1.1015625-.04687-.00111-.0019-.000826-.0039-.00195-.0059-.043065-.000598-.08582-.0057-.1289062-.0059-.020768-.000059-.041727.0019-.0625.002-.020773-.000032-.041732-.002-.0625-.002-.043086.0002-.085841.0053-.1289062.0059-.00113.0019-.0008397.0039-.00195.0059-.3666073.0055-.7336449.01551-1.1015625.04687-.1082302-.669852-.1669743-1.3383128-.1914119-2.005854h.027344.7949219l-.542969-.5429688c-.1260706-.1270159-.2157743-.285515-.2597657-.4589843h-.019531c.0008332-.022761.00299-.045596.00391-.068359-.02949-.1615764-.018758-.3279275.03125-.484375.032238-.4838164.077876-.9680245.15625-1.453125.3679176.031362.7349552.041409 1.1015625.046875.00111.00194.000826.00392.00195.00586.042414.0005889.084528.00552.1269531.00586.0006513.0000053.0013-.000003.00195 0 .0958322-.0318086.1959238-.0489295.2968773-.0507829.080236-.0004708.1602375.00871.2382812.027344.2738423-.00662.5476298-.011746.8222657-.035156.03937.2436791.064793.4871364.091797.7304687l1.080078 1.0800777c-.0147963-.402707-.0385157-.8048728-.078125-1.2070313l.0175781.0175781c-.02454-.25163-.0499368-.5040571-.0878906-.7578124 1.0537346-.1635413 2.1089726-.4340174 3.1621096-.8339844.130846.2063376.253093.418122.359375.6367187.0087.017838.01493.036771.02344.054687.06308.1328216.1179.2697328.171875.40625.02264.057458.04737.1138114.06836.171875.04842.1333426.08928.2680833.128906.4042969.0265.091614.04981.1845907.07227.2773437.0039.016091.0059.032704.0098.048828l.728516-.7285156c.02716-.027015.05586-.052447.08594-.076172-.0268-.082992-.04869-.1681043-.07813-.25-.0201-.055538-.03919-.1110866-.06055-.1660157-.097021-.2509729-.203834-.4953188-.326209-.732421-.174906-.3388893-.376993-.660427-.599609-.9667969-.0017-.00232-.0022-.0055-.0039-.00781-.01452-.019984-.03022-.038768-.04492-.058594-.438943-.5903833-.962167-1.111881-1.552734-1.5507812-.0029-.00218-.0049-.00564-.0078-.00781-.03193-.023644-.06341-.047177-.0957-.070312-.292207-.2094388-.598429-.3980534-.919922-.5644531-.0028-.00147-.005-.0044-.0078-.00586-.01607-.00829-.0327-.015262-.04883-.023437-.0031-.00158-.0066-.00233-.0098-.00391-.314942-.1590738-.641927-.2980809-.9804689-.4121108-.3535788-.1190948-.7187361-.2097612-1.09375-.2753906-.002-.0003496-.00386-.00161-.00586-.00195-.0720448-.0126627-.1441574-.0226315-.2167962-.0332063-.3378815-.0486863-.6803118-.0838355-1.03125-.0859375l.00391.00391c-.0165862-.0001469-.0322148-.00391-.0488319-.00391-.016617 0-.032246.00376-.048828.00391zm.0449219 1c.053418.00186.1068005.00463.1601562.00781.4010817.978753.7188498 1.9530806.9414063 2.9238306-.3679684.029232-.734918.0428073-1.1015625.0429688-.3666445-.0001615-.7335941-.0137368-1.1015625-.0429688.2225565-.97075.5403246-1.9450776.9414063-2.9238281.0533559-.0031803.1067381-.0059479.1601562-.0078125zm-1.3671875.15625c-.3210977.8794001-.5724221 1.7632058-.7597656 2.6484375-.8882781-.1365719-1.7780046-.3580843-2.6699219-.671875.0678103-.0747045.1458253-.1377484.2167969-.2089844.00391-.00392.00781-.0078.011719-.011719.1634241-.1637455.3271218-.3279719.5058591-.472656.2219438-.1787946.4564165-.340478.6992188-.4882812.1112147-.0674956.2286892-.1248501.34375-.1855469.149593-.0791316.3014752-.1533883.4570312-.2207031.1327857-.0572642.2657072-.111776.4023438-.1601563.1567378-.0557148.3172577-.1008395.4785156-.1445312.10467-.0282155.2081165-.0609631.3144531-.0839844zm2.734375 0c.1063366.023021.2097831.055769.3144531.083984.1612579.043692.321778.088816.4785156.1445312.1366368.04838.2695581.1028921.4023438.1601563.155556.067315.307438.1415715.457031.2207031.115061.060697.232536.1180513.34375.1855469.242802.1478032.477275.3094866.699219.4882812.178738.1446841.342435.3089105.505859.4726563.0039.00392.0078.0078.01172.011719.07097.071236.148987.1342799.216797.2089844-.891918.3137908-1.781645.5353032-2.6699229.6718751-.1873434-.8852317-.438668-1.7690374-.7597656-2.6484375zm-6.8476563 2.8652344c1.053137.399967 2.1083748.6704431 3.1621094.8339844-.0379538.2537552-.0633506.5061824-.0878906.7578124l.017578-.017578c-.0460166.467213-.0782873.9341963-.0898436 1.4023437h-3.9960938c.00778-.1004845.024646-.1991201.037109-.2988281.014226-.1144513.028585-.2285205.048828-.3417969.023244-.129167.052982-.2574846.083984-.3847657.022453-.092753.045769-.1857296.072266-.2773437.03963-.1362136.080485-.2709543.1289063-.4042969.02099-.058064.045717-.1144169.068359-.171875.053975-.1365172.1087953-.2734284.171875-.40625.00851-.017917.014766-.03685.023437-.054687.1062833-.2185972.2285289-.4303816.3593763-.6367192zm8.1425778 2.9765625 1.001953 1.0019531h.671876l1.001953-1.0019531zm-9.1367184 1.0019531h3.9960938c.011556.4681474.043827.9351303.089844 1.402344l-.0175784-.017578c.02454.25163.049937.504057.087891.757812-1.0537346.163541-2.1089724.434018-3.1621094.833984-.1308472-.206336-.2530929-.418121-.359375-.636718-.00867-.01784-.014927-.03677-.023437-.05469-.06308-.132821-.1178998-.269733-.171875-.40625-.022643-.05746-.047369-.113811-.068359-.171875-.0484222-.13334-.0892773-.268081-.1289075-.404295-.0264962-.091614-.0498125-.18459-.0722656-.277343-.031002-.1272821-.0607402-.2555991-.0839844-.384766-.0202426-.1132765-.034602-.2273456-.0488281-.3417969-.0124632-.099708-.0293278-.1983436-.0371094-.2988281z" fill="#3a3a38"/><path d="m15.25 7.0000002-3.75 3.7499998-3.75-3.7499998-.75.75 3.75 3.7499998-3.75 3.75.75.75 3.75-3.75 3.75 3.75.75-.75-3.75-3.75 3.75-3.7499998z" fill="#ed3d3b"/></svg>