<svg viewBox="0 0 16 16" xmlns="http://www.w3.org/2000/svg"><g fill="#3a3a38"><g fill="#3a3a38"><path d="m0 5v11h3v-1.90625-3.228516-.730468-3.228516-1.90625z"/><path d="m5 0v3h1.8574219 3.2675781.75 3.267578 1.857422v-3z"/><path d="m0 0h3v3h-3z"/></g><path d="m1 6h1v9h-1z" fill="#c8c6c4"/><path d="m-2 6h1v9h-1z" fill="#c8c6c4" transform="rotate(-90)"/><path d="m-2 1h1v1h-1z" fill="#c8c6c4" transform="rotate(-90)"/></g><path d="m11.5 7c-2.2897564.0027169-4.212381 1.72442-4.4667969 4h1.0078125c.2482706-1.7200823 1.721079-2.9974588 3.4589844-3 1.349002.00308 2.576155.7811616 3.154297 2h-1.154297c-.277 0-.5.223-.5.5s.223.5.5.5h2c.277 0 .5-.223.5-.5v-2-1c0-.277-.223-.5-.5-.5s-.5.223-.5.5v1 .1835938c-.851968-1.0616918-2.138739-1.6806629-3.5-1.6835938zm-4 5c-.277 0-.5.223-.5.5v2 1c0 .277.223.5.5.5s.5-.223.5-.5v-1-.183594c.8519683 1.061692 2.138739 1.680663 3.5 1.683594 2.289756-.0027 4.212381-1.72442 4.466797-4h-1.007813c-.248271 1.720082-1.721079 2.997459-3.458984 3-1.349002-.003078-2.5761554-.781162-3.1542969-2h1.1542969c.277 0 .5-.223.5-.5s-.223-.5-.5-.5z" fill="#18ab50"/></svg>