<svg viewBox="0 0 16 16" xmlns="http://www.w3.org/2000/svg">

/&amp;amp;amp;amp;amp;amp;amp;gt;<path d="m.99804688 2v9.998047h.00195312 7.8378906l.4980469-.498047-3.0429687-3.0429688c-.3900151-.3906761-.3900151-1.0233863 0-1.4140624l.75-.75c.1837045-.1836993.4316466-.2887595.6914062-.2929688.2705891-.0040708.5312915.1016194.7226562.2929688l3.0429688 3.0429687 3.042969-3.0429687c.126472-.1257699.28426-.2154529.457031-.2597657v-4.0332031h-.002-13.998z" fill="#fafafa"/><path d="m5 2v2h-4v1h4v3h-4v1h4l-.00195 2.998047h1l.00195-2.998047h.8359375l-.5429687-.5429688c-.1257699-.1264724-.2154529-.2842605-.2597657-.4570312h-.0332031v-.234375-2.765625h4v2.8359375l1.164062 1.1640625h.671876l1-1h-1.835938v-3h4v-1h-4v-2h-1v2h-4v-2z" fill="#797774"/><path d="m.49804688 1.0019531c-.06774689-.0000941-.13247708.0147062-.19140626.0390625-.18140943.0749794-.30888359.2523834-.30859375.4609375v10.9960939c-.0003844.276301.22369852.500384.50000001.5h7.33984372l.9980469-.998047h-7.8359375v-10h14v4.0332031c.3425-.088668.706366.010095.957031.2597657l.04492.044922v-4.8359377c.00029-.2085541-.127184-.3859581-.308594-.4609375-.0587-.024785-.123783-.038628-.191406-.039063h-.0039z" fill="#3a3a38"/><path d="m1 13v2h2.5l.5-2z" fill="#fafafa"/><path d="m.00195312 12-.00195312 3.498047c-.00038443.276301.22369855.500384.5.5l4 .001953.498094-3h-.996094-.002l-.5 2h-2.50195313l.00195313-3h-.99609375z" fill="#3a3a38"/><path d="m15.25 7.0000002-3.75 3.7499998-3.75-3.7499998-.75.75 3.75 3.7499998-3.75 3.75.75.75 3.75-3.75 3.75 3.75.75-.75-3.75-3.75 3.75-3.7499998z" fill="#ed3d3b"/></svg>