<svg viewBox="0 0 16 16" xmlns="http://www.w3.org/2000/svg">
/&amp;amp;amp;amp;gt;<path d="m4 3c-.554 0-1 .446-1 1v5h7c.554 0 1 .446 1 1v3h1c.554 0 1-.446 1-1v-5h-3-4c-.554 0-1-.446-1-1v-3z" fill="#ed8733"/><path d="m.9492188 10c-.5263 0-.9492188.422919-.9492188.949219v4.101562c0 .5263.4229188.949219.9492188.949219h8.1015623c.5262999 0 .9492189-.422919.9492189-.949219v-4.101562c0-.5263-.422919-.949219-.9492189-.949219zm.0507812 1h8.0000001v4h-8.0000001z" fill="#3a3a38"/><path d="m1 11v4h8.0000001v-4z" fill="#fafafa"/><path d="m6.949219 0c-.5263 0-.949219.422919-.949219.949219v4.101562c0 .5263.422919.949219.949219.949219h8.101562c.5263 0 .949219-.422919.949219-.949219v-4.101562c0-.5263-.422919-.949219-.949219-.949219zm.05078 1h8v4h-8z" fill="#3a3a38"/><path d="m7 1v4h8v-4z" fill="#fafafa"/><path d="m4 4v5h6c.554 0 1 .446 1 1v2h1v-5h-2-4c-.554 0-1-.446-1-1v-2z" fill="#f8db8f"/></svg>