<svg viewBox="0 0 16 16" xmlns="http://www.w3.org/2000/svg">/&gt;<path d="m8 1.75c-1.3494295 0-2.4811931.9140411-2.7539063 2.121582-.4392798-.2078881-.9410401-.336914-1.4648437-.336914-1.8121836 0-3.28125 1.3991101-3.28125 3.125 0 1.0786813.5627291 2.03363 1.4355469 2.5952148-.8519586.4602928-1.4355469 1.3174012-1.4355469 2.3168952 0 1.479333 1.2591998 2.678222 2.8125 2.678222.7241121 0 1.3764902-.270123 1.875-.698242.4985084.428118 1.1508902.698242 1.875.698242 1.3494258 0 2.481194-.914045 2.753906-2.121583.43928.207889.94104.336916 1.464844.336916 1.812184 0 3.28125-1.399111 3.28125-3.125001 0-.6158544-.20439-1.1908895-.527344-1.6748046.870428-.4553536 1.464844-1.3311608 1.464844-2.34375 0-1.4793341-1.2592-2.6782227-2.8125-2.6782227-.821194 0-1.565894.3297033-2.080077.8642578-.398983-1.0170341-1.400379-1.7578125-2.607423-1.7578125z" fill="#fafafa" stroke="#3a3a38"/><path d="m8 2.53125c-1.1807507 0-2.171044.799786-2.4096679 1.8563842-.3843699-.181902-.8234101-.2947997-1.2817384-.2947997-1.5856605 0-2.8710937 1.2242213-2.8710937 2.734375 0 .9438461.492388 1.7794264 1.2561036 2.2708131-.7454638.4027563-1.2561036 1.1527264-1.2561036 2.0272834 0 1.294416 1.1017998 2.343444 2.4609376 2.343444.6335981 0 1.2044289-.236358 1.640625-.610962.4361948.374603 1.0070289.610962 1.6406248.610962 1.1807479 0 2.1710444-.79979 2.4096676-1.856385.38437.181903.82341.294801 1.281739.294801 1.585661 0 2.871093-1.224221 2.871093-2.7343753 0-.5388726-.178841-1.0420284-.461426-1.4654542.761625-.3984344 1.281739-1.1647658 1.281739-2.0507813 0-1.2944173-1.1018-2.3434448-2.460937-2.3434448-.718545 0-1.370158.2884903-1.820068.7562255-.349109-.8899048-1.2253318-1.5380859-2.281495-1.5380859z" fill="none" stroke="#fafafa" stroke-width=".875"/></svg>