<svg viewBox="0 0 16 16" xmlns="http://www.w3.org/2000/svg">/&amp;amp;amp;amp;amp;amp;amp;gt;<path d="m2.9960469 2v9.998047h.0019531 9.000047.001953v-9.998047h-.002-9z" fill="#83beec"/><path d="m6.998 2v2h-4v1h4v3h-4v1h4l-.00195 2.998047h1l.00195-2.998047h4v-1h-4v-3h4v-1h-4v-2z" fill="#1e8bcd"/><path d="m2.4960469 1.0019531c-.0677469-.0000941-.1324771.0147062-.1914063.0390625-.1814094.0749794-.3088836.2523834-.3085937.4609375v10.9960939c-.0003844.276301.2236985.500384.5.5h10.0059061c.276301.000384.500384-.223699.5-.5v-10.9960939c.00029-.2085541-.127184-.3859581-.308594-.4609375-.0587-.024785-.123783-.038628-.191406-.039063h-.0039zm.5019531.9980469h9.002v10h-9.002z" fill="#0063b1"/><path d="m2.998 13v2h2.5l.5-2z" fill="#83beec"/><path d="m1.9999531 12-.0019531 3.498047c-.0003844.276301.2236985.500384.5.5l4 .002.498094-3h-.996094-.002l-.5 2h-2.5019531l.0019531-3.000047h-.9960938z" fill="#0063b1"/></svg>