<svg viewBox="0 0 16 16" xmlns="http://www.w3.org/2000/svg"><path d="m1 1v5.5859375l1.2929688-1.2929687c.180274-.1805262.4227243-.2853318.6777343-.2929688.5636664-.0164627 1.0294809.4360933 1.0292969 1v4c-.0003496.890637-1.0770367 1.336587-1.7070312.707031l-1.2929688-1.2929685v5.5859375h8v-3c0-2.197294 1.802706-4 4-4 .730674 0 1.40837.2136432 2 .5605469v-7.5605469h-7.5859375l1.2929687 1.2929688c.6295561.6299946.1836056 1.7066817-.7070312 1.7070312h-4c-.8906368-.0003495-1.3365873-1.0770366-.7070312-1.7070312l1.2929687-1.2929688z" fill="#fafafa"/><path d="m1 0c-.554 0-1 .446-1 1v7.015625c-.00414442-.2706029.10155695-.5313329.29296875-.7226562l.70703125-.7070313v-5.5859375h3.5859375l.7070313-.70703125c.1836661-.18375616.4316324-.28882665.6914062-.29296875zm4.984375 0c.2706029-.00414442.5313329.10155695.7226562.29296875l.7070313.70703125h7.5859375v7.5605469c.37769.2214595.713549.4998611 1 .8281251v-8.388672c0-.554-.446-1-1-1zm-5.984375 8.015625v6.984375c0 .554.446 1 1 1h8v-1h-8v-5.5859375l-.70703125-.7070313c-.18375616-.1836661-.28882665-.4316324-.29296875-.6914062z" fill="#3a3a38"/><g fill="#1e8bcd"><rect height="2" ry="1" width="2" x="12" y="2"/><rect height="2" ry="1" width="2" x="7" y="7"/><path d="m13 7c-.554 0-1 .446-1 1 0 .0478091.020918.0887823.027344.1347656.313231-.0796603.635804-.1347656.972656-.1347656.336947 0 .661486.0498306.972656.1328125.006251-.0453709.027344-.0856692.027344-.1328125 0-.554-.446-1-1-1z"/><rect height="2" ry="1" width="2" x="2" y="12"/><rect height="2" ry="1" width="2" x="7" y="12"/><path d="m13 9c-1.656854 0-3 1.343146-3 3v4h2v-4c0-.552285.447715-1 1-1s1 .447715 1 1v4h2v-4c0-1.656854-1.343146-3-3-3z" fill="#ed3d3b"/><g fill-rule="evenodd"><path d="m1 8 2-2v4z"/><path d="m6 1 2 2h-4z"/></g></g></svg>