<svg viewBox="0 0 16 16" xmlns="http://www.w3.org/2000/svg">/&amp;gt;<path d="m1 1h14v7h-14z" fill="#fafafa"/><path d="m0 0v1 7.5c-.00038442.276301.22369855.500384.5.5h15c.276301.000384.500384-.223699.5-.5v-7.5-1zm.99804688 1h4.00195312v3h-4v1h4v3h1v-3h4v3h1v-3h4v-1h-4v-3h4.001953v7.001953h-14.00390612zm5.00195312 0h4v3h-4z" fill="#3a3a38"/><g fill="none" stroke="#1e8bcd" stroke-linecap="round" stroke-linejoin="round"><path d="m15.502491 15.5v-5.9902281" stroke-width="1.004882"/><path d="m.5024912 15.5v-5.9902281" stroke-width="1.004882"/><path d="m4.507 9.495-2.9998788 3.000038 2.9998788 2.999962"/><path d="m1.5071212 12.495038h12.9928788"/><path d="m11.505 9.495 3.00005 3.000038-3.00005 2.999962"/></g></svg>