<svg viewBox="0 0 16 16" xmlns="http://www.w3.org/2000/svg">/&amp;gt;<path d="m1 1v7h2.7871094c.5507224-.6081574 1.3364833-1 2.2128906-1 .8376342 0 1.4958063.408013 1.9863281 1h1.0273438l.2578125-.3613281c.2805387-.4040222.7444616-.6458765 1.2363276-.6445313a1.0001 1.0001 0 0 0 .001954 0c.645254.0026192 1.145003.4507146 1.355468 1.0058594h3.134766v-7z" fill="#fafafa"/><path d="m0 0v1 7.5c-.00038442.276301.22369855.500384.5.5h2.6875c.1341877-.3721006.3366491-.7092972.5976562-.9980469h-2.78710932v-7.0019531h4.00195312v3h-4v1h4v2.1875c.3148939-.1135577.648149-.1875 1-.1875v-2h4v2.0917969c.162125-.058407.331308-.098139.507812-.097656h.002c.176312.0007156.337303.0436002.490188.1035153v-2.0976562h4v-1h-4v-3h4.001953v7.0019531h-3.136719c.120257.3182725.151328.6691284.042969.9980469h3.591797c.276301.000384.500384-.223699.5-.5v-7.5-1zm6 1h4v3h-4z" fill="#3a3a38"/><g fill="none" stroke="#1e8bcd" stroke-linecap="round" stroke-linejoin="round"><path d="m15.502491 15.5v-5.9902281" stroke-width="1.004882"/><path d="m.5024912 15.5v-5.9902281" stroke-width="1.004882"/><path d="m.50712124 12.495038h1.99287876"/><path d="m13.5 12.495038h2"/></g><path d="m10.505859 7.9941406a.50005.50005 0 0 0 -.412109.2148438l-4.9960938 6.9941406a.50052325.50052325 0 0 0 .8144532.582031l4.9941406-6.9941404a.50005.50005 0 0 0 -.400391-.796875zm-4.505859.0058594a2 2 0 0 0 -2 2 2 2 0 0 0 2 2 2 2 0 0 0 2-2 2 2 0 0 0 -2-2zm0 1a1 1 0 0 1 1 1 1 1 0 0 1 -1 1 1 1 0 0 1 -1-1 1 1 0 0 1 1-1zm4 3a2 2 0 0 0 -2 2 2 2 0 0 0 2 2 2 2 0 0 0 2-2 2 2 0 0 0 -2-2zm0 1a1 1 0 0 1 1 1 1 1 0 0 1 -1 1 1 1 0 0 1 -1-1 1 1 0 0 1 1-1z" fill="#1e8bcd"/></svg>