<svg viewBox="0 0 16 16" xmlns="http://www.w3.org/2000/svg">/&amp;amp;amp;amp;gt;<path d="m7 1a6 6 0 0 0 -6 6 6 6 0 0 0 4 5.648438v-9.148438a1.50015 1.50015 0 0 1 1.453125-1.5 1.50015 1.50015 0 0 1 .9765625.3222656l5.5605465 4.390625a6 6 0 0 0 -5.990234-5.7128906z" fill="#fafafa"/><path d="m7 0a7 7 0 0 0 -7 7 7 7 0 0 0 5 6.701172v-1.052734a6 6 0 0 1 -4-5.648438 6 6 0 0 1 6-6 6 6 0 0 1 5.990234 5.7128906l.992188.7832032a7 7 0 0 0 .017578-.4960938 7 7 0 0 0 -7-7zm0 2a5 5 0 0 0 -.296875.015625 1.50015 1.50015 0 0 1 .7265625.3066406l4.4218745 3.4921875a5 5 0 0 0 -4.851562-3.8144531zm-1.1054688.1269531a5 5 0 0 0 -3.8945312 4.8730469 5 5 0 0 0 3 4.576172v-8.076172a1.50015 1.50015 0 0 1 .8945312-1.3730469z" fill="#ed3d3b"/><path d="m6.5 3.4999998v11.2993812l2.8225023-2.84437 1.5213707 3.01775c.380365 1.005777 2.662692.502254 2.155535-.838784l-1.702594-3.633977h4.068964z" fill="#fafafa" fill-rule="evenodd" stroke="#3a3a38" stroke-linejoin="round"/></svg>