<svg viewBox="0 0 16 16" xmlns="http://www.w3.org/2000/svg">/&amp;amp;gt;<path d="m1 1h14v13h-14z" fill="#fafafa"/><path d="m0 0v1 4 .875 8.625c-.00038442.276301.22369855.500384.5.5h15c.276301.000384.500384-.223699.5-.5v-4.5-.888672-3.2441405-.8671875-4-1h-1-14zm1 1h4 1 4 1 4v3 .8691406l.002 9.1328124h-14.00395312l.00195312-9.1249999v-.8769531z"/><path d="m7 1v3h1v-3zm1 7.9960938-1 .00195v.0019562h1zm-1 1.0039062v4h1v-4z" fill="#797774"/><g fill="#0063b1"><path d="m1 4v1h14v-1zm-.002 6-.001953 1h14.001953l.002-1z"/><path d="m0 4h1l-.002 7h-1z"/><path d="m15 4h1l-.002 7h-1z"/></g><g fill="#1e8bcd"><path d="m11.488285 4.9999998c-.37612.022631-.684639.5117187-.330078.8652344l1.134766 1.125-4.7851567.00781c-.3389458-.00479-.5086799.2489211-.5078125.5019556h-.00391c-.0008674.2530345.1688667.5067429.5078124.5019531l4.7851558.00781-1.134765 1.1250001c-.354557.353518-.04604.842606.330082.865237.125374.0075.258789-.03839.376953-.15625l1.939453-1.9296877c.125544-.092622.200625-.2385344.203125-.3945313.0001-.00683-.00373-.012731-.00391-.019531h.0039c.000172-.0068.004-.012698.0039-.019531-.0025-.1559969-.07758-.3019096-.203124-.3945313l-1.939438-1.9296879c-.118164-.1178614-.251579-.1637938-.376953-.15625z"/><path d="m4.515607 4.9999998c.37612.022631.684639.5117187.330078.8652344l-1.1347656 1.125 4.7851566.00781c.338946-.00479.50868.2489211.507813.5019556h.0039c.000867.2530345-.168867.5067429-.507813.5019531l-4.7851556.00781 1.1347646 1.1250001c.354557.353518.04604.842606-.330082.865237-.125374.0075-.258789-.038389-.376953-.15625l-1.9394426-1.9296877c-.125544-.092622-.200625-.2385344-.203125-.3945313-.0001-.00683.00373-.012731.00391-.019531h-.0039c-.000172-.0068-.004-.012698-.0039-.019531.0025-.1559969.07758-.3019096.203124-.3945313l1.9394376-1.9296879c.118164-.1178614.251579-.1637938.376953-.15625z"/></g></svg>