<svg viewBox="0 0 16 16" xmlns="http://www.w3.org/2000/svg">
/&amp;amp;gt;<path d="m5.5 0c-.1252929.00280684-.2533274.05196495-.3613281.13867188l-4.99218752 4.00781252c-.11072143.088891-.15757801.2194888-.15234376.3535156-.00470349.1333758.0421443.2650437.15234376.3535156l4.99218752 4.0078125c.2160015.1734138.5111626.1958686.7070312 0s.2160017-.5336176 0-.7070312l-3.9296875-3.1542969h8.0839844a5 5 0 0 1 5 5 5 5 0 0 1 -5 5v1a6 6 0 0 0 6-6 6 6 0 0 0 -6-6h-8.0839844l3.9296875-3.15429688c.2160017-.17341362.1958686-.51116267 0-.70703124-.0979343-.0979343-.2204102-.14147872-.3457031-.13867188z" fill="#1e8bcd"/></svg>