<svg viewBox="0 0 11 11" xmlns="http://www.w3.org/2000/svg"><path d="m8.40625 2c-.2253559 0-.40625.1808941-.40625.40625v2.59375h-2.1347656c.1792169.3090576.1799614.6902447.00195 1h2.1328156v2.59375c0 .2253559.1808941.40625.40625.40625h.1875c.2253559 0 .40625-.1808941.40625-.40625v-2.59375h1.523719c.264087 0 .476562-.2124735.476562-.4765625v-.046875c0-.264089-.212474-.4765625-.476562-.4765625h-1.523719v-2.59375c0-.2253559-.1808941-.40625-.40625-.40625z" fill="#3a3a38"/><path d="m0 1v9l5-4.5z" fill="#309048"/><path d="m1 3.2460938v4.5078124l2.5039062-2.2539062z" fill="#a1ddaa"/></svg>