<svg viewBox="0 0 32 32" xmlns="http://www.w3.org/2000/svg"><g fill-rule="evenodd" transform="translate(0 2)"><path d="m9.033203 6 4.982891 4h11.017109l-.033203 15h-22l.033203-19z" fill="#fafafa"/><path d="m8.8964839 5c.324636.0000601.635697.1231192.865235.34375l4.7285151 3.65625h10.509766c.676036.000065.999932.35028 1 1v16h-1.033203v-13l.033203-3h-11.017578l-4.9824221-4h-6l-.009765 19.441406-1.023438.058594.033203-19.5c.000068-.6497199.323963-.9999351 1-1z" fill="#ed8733"/><g transform="translate(2 -2)"><path d="m4 11v14h14v-10.270591l-4-3.729409z" fill="#fafafa"/><path d="m4 10c-.554 0-1 .446-1 1v14c0 .554.446 1 1 1h14c.554 0 1-.446 1-1v-6.109375-3.641221-.207924c0-.45068.09887-.426595-.604637-1.067589l-3.307389-3.237034c-.709525-.736857-.711223-.736857-1.094804-.736857h-.331557-.661613zm0 1h9v4c0 .554.446 1 1 1h4v9h-14z" fill="#3a3a38"/><path d="m14 15h4l-4-4z" fill="#fafafa" fill-rule="evenodd"/><path d="m5 12h4v1h-4z" fill="#3a3a38"/></g><g transform="translate(2 -2)"><path d="m10 4v18h14v-14.270591l-4-3.729409z" fill="#fafafa"/><path d="m10 3c-.554 0-1 .446-1 1v18c0 .554.446 1 1 1h14c.554 0 1-.446 1-1v-10.109375-3.641221-.207924c0-.45068.09887-.426595-.604637-1.067589l-3.307389-3.237034c-.709525-.736857-.711223-.736857-1.094804-.736857h-.331557-.661613zm0 1h9v4c0 .554.446 1 1 1h4v13h-14z" fill="#3a3a38"/><path d="m20 8h4l-4-4z" fill="#fafafa" fill-rule="evenodd"/><path d="m11 7h4v5h-4z" fill="#309048"/><path d="m12 8h2v3h-2z" fill="#a1ddaa"/><path d="m17 10h5v5h-5z" fill="#0063b1"/><path d="m18 11h3v4h-3z" fill="#83beec"/><path d="m11 13h4v1h-4z" fill="#3a3a38"/></g><path d="m1.9667969 26h1.2226562 22.0351559.775391l3.732422-11.832031c.36461-1.168055.363884-1.167969-.91211-1.167969h-2.820312-19.1347656c-1.2500514.0041-1.2623375-.002914-1.5664063 1.166016l-2.2988281 8.833984z" fill="#ed8733"/><path d="m6.3964844 13.958984c-.031929.09815-.067721.223771-.1289063.458985a1.0001 1.0001 0 0 1 -.00195 0l-2.2988281 8.833984a1.0001 1.0001 0 0 1 -.021484.07422l-.5761754 1.673827h21.8554684.04297l3.470702-11h-2.738281-19.1308594-.0039062c-.5277722.003-.5639167.03521-.46875-.04102z" fill="#f8db8f"/></g></svg>