<?xml version="1.0" encoding="UTF-8" standalone="no"?>
<svg
   xmlns:dc="http://purl.org/dc/elements/1.1/"
   xmlns:cc="http://creativecommons.org/ns#"
   xmlns:rdf="http://www.w3.org/1999/02/22-rdf-syntax-ns#"
   xmlns:svg="http://www.w3.org/2000/svg"
   xmlns="http://www.w3.org/2000/svg"
   xmlns:sodipodi="http://sodipodi.sourceforge.net/DTD/sodipodi-0.dtd"
   xmlns:inkscape="http://www.inkscape.org/namespaces/inkscape"
   version="1.1"
   id="svg222"
   sodipodi:docname="al21826.svg"
   width="23"
   height="23"
   inkscape:version="0.92.4 (5da689c313, 2019-01-14)">
  <metadata
     id="metadata228">
    <rdf:RDF>
      <cc:Work
         rdf:about="">
        <dc:format>image/svg+xml</dc:format>
        <dc:type
           rdf:resource="http://purl.org/dc/dcmitype/StillImage" />
        <dc:title></dc:title>
      </cc:Work>
    </rdf:RDF>
  </metadata>
  <defs
     id="defs226" />
  <sodipodi:namedview
     pagecolor="#ffffff"
     bordercolor="#666666"
     borderopacity="1"
     objecttolerance="10"
     gridtolerance="10"
     guidetolerance="10"
     inkscape:pageopacity="0"
     inkscape:pageshadow="2"
     inkscape:window-width="1920"
     inkscape:window-height="995"
     id="namedview224"
     showgrid="false"
     fit-margin-top="0"
     fit-margin-left="0"
     fit-margin-right="0"
     fit-margin-bottom="0"
     inkscape:zoom="2.36"
     inkscape:cx="-31.27061"
     inkscape:cy="-35.06"
     inkscape:window-x="0"
     inkscape:window-y="0"
     inkscape:window-maximized="1"
     inkscape:current-layer="svg222" />
  <path
     d="m 5.203,4.6729998 q 1.003,0 1.472,0.41 Q 7.15,5.4930001 7.15,6.3390002 V 10.473 l 0.762,0.163 v 0.293 H 6.232 L 6.108,10.317 q -0.742,0.742 -1.894,0.742 -1.569,0 -1.569,-1.8229999 0,-0.612 0.234,-1.009 0.241,-0.403 0.762,-0.612 0.521,-0.215 1.51,-0.234 l 0.918,-0.026 v -0.957 q 0,-0.632 -0.234,-0.931 -0.228,-0.3000003 -0.71,-0.3000003 -0.651,0 -1.191,0.3060003 l -0.222,0.762 H 3.348 V 4.8999999 Q 4.403,4.6729998 5.203,4.6729998 Z m 0.866,3.1380003 -0.853,0.026 q -0.872,0.032 -1.185,0.338 -0.306,0.306 -0.306,1.022 0,1.1459999 0.931,1.1459999 0.443,0 0.762,-0.098 0.326,-0.104 0.651,-0.2599999 z"
     id="path214"
     inkscape:connector-curvature="0" />
  <path
     d="m 11.118,4.6729998 q 1,0 1.47,0.41 0.47,0.4100003 0.47,1.2560004 V 10.473 l 0.77,0.163 v 0.293 h -1.68 l -0.13,-0.612 q -0.74,0.742 -1.893,0.742 -1.569,0 -1.569,-1.8229999 0,-0.612 0.235,-1.009 0.24,-0.403 0.761,-0.612 0.521,-0.215 1.506,-0.234 l 0.92,-0.026 v -0.957 q 0,-0.632 -0.23,-0.931 -0.23,-0.3000003 -0.71,-0.3000003 -0.652,0 -1.193,0.3060003 l -0.221,0.762 H 9.259 V 4.8999999 q 1.055,-0.2270001 1.859,-0.2270001 z m 0.86,3.1380003 -0.85,0.026 q -0.873,0.032 -1.185,0.338 -0.306,0.306 -0.306,1.022 0,1.1459999 0.931,1.1459999 0.44,0 0.76,-0.098 0.33,-0.104 0.65,-0.2599999 z"
     id="path216"
     inkscape:connector-curvature="0" />
  <path
     d="m 17.028,4.6729998 q 1,0 1.47,0.41 0.47,0.4100003 0.47,1.2560004 V 10.473 l 0.77,0.163 v 0.293 h -1.68 l -0.13,-0.612 q -0.74,0.742 -1.89,0.742 -1.57,0 -1.57,-1.8229999 0,-0.612 0.23,-1.009 0.24,-0.403 0.77,-0.612 0.52,-0.215 1.51,-0.234 l 0.91,-0.026 v -0.957 q 0,-0.632 -0.23,-0.931 -0.23,-0.3000003 -0.71,-0.3000003 -0.65,0 -1.19,0.3060003 l -0.22,0.762 h -0.37 V 4.8999999 q 1.06,-0.2270001 1.86,-0.2270001 z m 0.86,3.1380003 -0.85,0.026 q -0.87,0.032 -1.18,0.338 -0.31,0.306 -0.31,1.022 0,1.1459999 0.93,1.1459999 0.44,0 0.76,-0.098 0.33,-0.104 0.65,-0.2599999 z"
     id="path218"
     inkscape:connector-curvature="0" />
  <path
     d="m 20.998,13.247 0.42,0.083 q -0.59,2.247 -1.92,2.667 -1.25,0.33 -3,0.17 -1.75,-0.17 -3.17,0.33 -1.33,0.5 -1.66,1.83 h -0.34 q -0.16,-1.33 -1.996,-1.75 -1.833,-0.5 -3.583,-0.41 -1.834,0.16 -2.917,-0.59 -1,-0.83 -1.25,-2.33 L 1.999,13.08 q 0.916,1.997 2.583,2.087 1.667,0 3.583,-0.17 1.834,-0.08 3.333,1.5 1.25,-1.58 3.58,-1.5 2.34,0.08 3.5,0.17 1.17,0 2.42,-1.92 z"
     id="path220"
     inkscape:connector-curvature="0" />
</svg>
