<?xml version="1.0" encoding="UTF-8" standalone="no"?>
<svg
   xmlns:dc="http://purl.org/dc/elements/1.1/"
   xmlns:cc="http://creativecommons.org/ns#"
   xmlns:rdf="http://www.w3.org/1999/02/22-rdf-syntax-ns#"
   xmlns:svg="http://www.w3.org/2000/svg"
   xmlns="http://www.w3.org/2000/svg"
   xmlns:sodipodi="http://sodipodi.sourceforge.net/DTD/sodipodi-0.dtd"
   xmlns:inkscape="http://www.inkscape.org/namespaces/inkscape"
   version="1.1"
   id="svg38"
   sodipodi:docname="al21810.svg"
   width="23"
   height="23"
   inkscape:version="0.92.4 (5da689c313, 2019-01-14)">
  <metadata
     id="metadata44">
    <rdf:RDF>
      <cc:Work
         rdf:about="">
        <dc:format>image/svg+xml</dc:format>
        <dc:type
           rdf:resource="http://purl.org/dc/dcmitype/StillImage" />
        <dc:title></dc:title>
      </cc:Work>
    </rdf:RDF>
  </metadata>
  <defs
     id="defs42" />
  <sodipodi:namedview
     pagecolor="#ffffff"
     bordercolor="#666666"
     borderopacity="1"
     objecttolerance="10"
     gridtolerance="10"
     guidetolerance="10"
     inkscape:pageopacity="0"
     inkscape:pageshadow="2"
     inkscape:window-width="1920"
     inkscape:window-height="995"
     id="namedview40"
     showgrid="false"
     fit-margin-top="0"
     fit-margin-left="0"
     fit-margin-right="0"
     fit-margin-bottom="0"
     inkscape:zoom="2.36"
     inkscape:cx="-31.95361"
     inkscape:cy="-32.78"
     inkscape:window-x="0"
     inkscape:window-y="0"
     inkscape:window-maximized="1"
     inkscape:current-layer="svg38" />
  <path
     d="M 2.4085,19.07645 V 3.2535501 h 2.766 v 0.5469 h -2 V 18.51645 h 2 v 0.56 z"
     id="path30"
     inkscape:connector-curvature="0" />
  <path
     d="m 13.0315,9.2844499 0.66,0.146 -0.05,0.264 h -1.67 l 0.17,-0.914 q -0.99,1.037 -1.81,1.037 -0.709,0 -1.143,-0.521 -0.428,-0.522 -0.428,-1.436 0,-1.025 0.446,-1.9159998 0.451,-0.896 1.201,-1.395 0.754,-0.503 1.624,-0.503 0.71,0 1.34,0.246 l 0.26,-0.2 h 0.32 z m -0.17,-4.4939998 q -0.23,-0.158 -0.43,-0.217 -0.2,-0.065 -0.49,-0.065 -0.59,0 -1.08,0.446 -0.489,0.439 -0.771,1.189 -0.281,0.7499998 -0.281,1.5649998 0,0.627 0.258,1.002 0.258,0.375 0.704,0.375 0.66,0 1.45,-0.815 z"
     id="path32"
     inkscape:connector-curvature="0" />
  <path
     d="m 9.8215,11.70445 -0.779,-0.14 0.047,-0.264 h 1.762 l -0.438,2.586 q -0.1,0.67 -0.229,1.13 0.469,-0.48 0.957,-0.76 0.5,-0.28 0.92,-0.28 0.73,0 1.17,0.52 0.44,0.52 0.44,1.43 0,1.01 -0.44,1.91 -0.43,0.89 -1.2,1.4 -0.77,0.51 -1.677,0.51 -0.515,0 -1.013,-0.13 -0.493,-0.14 -0.862,-0.36 z m -0.334,7.292 q 0.34,0.28 0.943,0.28 0.601,0 1.101,-0.44 0.51,-0.44 0.8,-1.18 0.29,-0.75 0.29,-1.57 0,-0.66 -0.27,-1.02 -0.27,-0.36 -0.73,-0.36 -0.35,0 -0.75,0.23 -0.4,0.23 -0.763,0.58 z"
     id="path34"
     inkscape:connector-curvature="0" />
  <path
     d="m 20.5915,19.37645 h -2.76 v -0.57 h 2 V 4.0924501 h -2 v -0.539 h 2.76 z"
     id="path36"
     inkscape:connector-curvature="0" />
</svg>
