<?xml version="1.0" encoding="UTF-8" standalone="no"?>
<svg
   xmlns:dc="http://purl.org/dc/elements/1.1/"
   xmlns:cc="http://creativecommons.org/ns#"
   xmlns:rdf="http://www.w3.org/1999/02/22-rdf-syntax-ns#"
   xmlns:svg="http://www.w3.org/2000/svg"
   xmlns="http://www.w3.org/2000/svg"
   xmlns:sodipodi="http://sodipodi.sourceforge.net/DTD/sodipodi-0.dtd"
   xmlns:inkscape="http://www.inkscape.org/namespaces/inkscape"
   version="1.1"
   id="svg4"
   sodipodi:docname="at21704.svg"
   width="11.091"
   height="11.091"
   inkscape:version="0.92.4 (5da689c313, 2019-01-14)">
  <metadata
     id="metadata10">
    <rdf:RDF>
      <cc:Work
         rdf:about="">
        <dc:format>image/svg+xml</dc:format>
        <dc:type
           rdf:resource="http://purl.org/dc/dcmitype/StillImage" />
        <dc:title></dc:title>
      </cc:Work>
    </rdf:RDF>
  </metadata>
  <defs
     id="defs8" />
  <sodipodi:namedview
     pagecolor="#ffffff"
     bordercolor="#666666"
     borderopacity="1"
     objecttolerance="10"
     gridtolerance="10"
     guidetolerance="10"
     inkscape:pageopacity="0"
     inkscape:pageshadow="2"
     inkscape:window-width="819"
     inkscape:window-height="480"
     id="namedview6"
     showgrid="false"
     fit-margin-top="0"
     fit-margin-left="0"
     fit-margin-right="0"
     fit-margin-bottom="0"
     inkscape:zoom="2.36"
     inkscape:cx="48.852"
     inkscape:cy="-37.9"
     inkscape:window-x="307"
     inkscape:window-y="187"
     inkscape:window-maximized="0"
     inkscape:current-layer="svg4" />
  <path
     d="m 7.7369998,10.381 0.883,0.2 -0.062,0.35 h -2.227 l 0.226,-1.2199992 q -1.32,1.3799992 -2.414,1.3799992 -0.945,0 -1.523,-0.69 -0.571,-0.6999992 -0.571,-1.9159992 0,-1.367 0.594,-2.554 0.602,-1.196 1.602,-1.86 1,-0.672 2.172,-0.672 0.945,0 1.781,0.328 l 0.352,-0.265 h 0.422 z m -0.226,-5.9899992 q -0.305,-0.211 -0.571,-0.289 -0.265,-0.086 -0.656,-0.086 -0.781,0 -1.438,0.594 -0.648,0.586 -1.023,1.586 -0.375,1 -0.375,2.086 0,0.839 0.344,1.339 0.343,0.4999992 0.937,0.4999992 0.883,0 1.93,-1.0899992 z m -1.094,-2.203 q -0.906,0 -1.399,-0.461 -0.492,-0.461 -0.492,-1.289 L 4.5569998,7.9345702e-7 h 0.578 Q 5.1669998,0.5080008 5.5569998,0.7970008 q 0.399,0.289 1.055,0.289 0.672,0 1.157,-0.289 0.492,-0.297 0.695,-0.79700000654298 h 0.578 Q 8.8309998,1.0160008 8.1439998,1.6020008 q -0.68,0.586 -1.727,0.586 z"
     id="path2"
     inkscape:connector-curvature="0" />
</svg>
