<?xml version="1.0" encoding="UTF-8" standalone="no"?>
<svg
   xmlns:dc="http://purl.org/dc/elements/1.1/"
   xmlns:cc="http://creativecommons.org/ns#"
   xmlns:rdf="http://www.w3.org/1999/02/22-rdf-syntax-ns#"
   xmlns:svg="http://www.w3.org/2000/svg"
   xmlns="http://www.w3.org/2000/svg"
   xmlns:sodipodi="http://sodipodi.sourceforge.net/DTD/sodipodi-0.dtd"
   xmlns:inkscape="http://www.inkscape.org/namespaces/inkscape"
   version="1.1"
   id="svg4"
   sodipodi:docname="at21707.svg"
   width="11.286"
   height="11.286"
   inkscape:version="0.92.4 (5da689c313, 2019-01-14)">
  <metadata
     id="metadata10">
    <rdf:RDF>
      <cc:Work
         rdf:about="">
        <dc:format>image/svg+xml</dc:format>
        <dc:type
           rdf:resource="http://purl.org/dc/dcmitype/StillImage" />
        <dc:title></dc:title>
      </cc:Work>
    </rdf:RDF>
  </metadata>
  <defs
     id="defs8" />
  <sodipodi:namedview
     pagecolor="#ffffff"
     bordercolor="#666666"
     borderopacity="1"
     objecttolerance="10"
     gridtolerance="10"
     guidetolerance="10"
     inkscape:pageopacity="0"
     inkscape:pageshadow="2"
     inkscape:window-width="819"
     inkscape:window-height="480"
     id="namedview6"
     showgrid="false"
     fit-margin-top="0"
     fit-margin-left="0"
     fit-margin-right="0"
     fit-margin-bottom="0"
     inkscape:zoom="2.36"
     inkscape:cx="49.001"
     inkscape:cy="-37.52"
     inkscape:window-x="0"
     inkscape:window-y="0"
     inkscape:window-maximized="0"
     inkscape:current-layer="svg4" />
  <path
     d="m 7.8700001,10.576 0.883,0.2 -0.063,0.35 h -2.226 l 0.226,-1.2200006 q -1.32,1.3800006 -2.414,1.3800006 -0.945,0 -1.524,-0.69 -0.57,-0.7000006 -0.57,-1.9160006 0,-1.367 0.594,-2.554 0.601,-1.196 1.601,-1.86 1.001,-0.672 2.173,-0.672 0.945,0 1.781,0.328 l 0.352,-0.265 h 0.421 z m -0.227,-5.9900006 q -0.304,-0.211 -0.57,-0.289 -0.266,-0.086 -0.656,-0.086 -0.782,0 -1.438,0.594 -0.648,0.586 -1.023,1.586 -0.375,1 -0.375,2.086 0,0.839 0.343,1.339 0.344,0.5000006 0.938,0.5000006 0.883,0 1.93,-1.0900006 z m -3.242,-2.195 0.039,-0.258 1.836,-2.13299990354004 h 1.664 L 9.0260001,2.1329994 l -0.039,0.258 h -0.367 l -1.609,-1.4299999 -2.11,1.4299999 z"
     id="path2"
     inkscape:connector-curvature="0" />
</svg>
