<?xml version="1.0" encoding="UTF-8" standalone="no"?>
<svg
   xmlns:dc="http://purl.org/dc/elements/1.1/"
   xmlns:cc="http://creativecommons.org/ns#"
   xmlns:rdf="http://www.w3.org/1999/02/22-rdf-syntax-ns#"
   xmlns:svg="http://www.w3.org/2000/svg"
   xmlns="http://www.w3.org/2000/svg"
   xmlns:sodipodi="http://sodipodi.sourceforge.net/DTD/sodipodi-0.dtd"
   xmlns:inkscape="http://www.inkscape.org/namespaces/inkscape"
   version="1.1"
   id="svg150"
   sodipodi:docname="co21906.svg"
   width="24"
   height="24"
   inkscape:version="0.92.4 (5da689c313, 2019-01-14)">
  <metadata
     id="metadata156">
    <rdf:RDF>
      <cc:Work
         rdf:about="">
        <dc:format>image/svg+xml</dc:format>
        <dc:type
           rdf:resource="http://purl.org/dc/dcmitype/StillImage" />
        <dc:title></dc:title>
      </cc:Work>
    </rdf:RDF>
  </metadata>
  <defs
     id="defs154" />
  <sodipodi:namedview
     pagecolor="#ffffff"
     bordercolor="#666666"
     borderopacity="1"
     objecttolerance="10"
     gridtolerance="10"
     guidetolerance="10"
     inkscape:pageopacity="0"
     inkscape:pageshadow="2"
     inkscape:window-width="1920"
     inkscape:window-height="995"
     id="namedview152"
     showgrid="false"
     fit-margin-top="0"
     fit-margin-left="0"
     fit-margin-right="0"
     fit-margin-bottom="0"
     inkscape:zoom="2.36"
     inkscape:cx="-31.37161"
     inkscape:cy="-30.25"
     inkscape:window-x="0"
     inkscape:window-y="0"
     inkscape:window-maximized="1"
     inkscape:current-layer="svg150" />
  <path
     d="m 11.963,2.5718999 q 0.802,0 1.177,0.3282 0.38,0.328 0.38,1.005 v 3.307 l 0.609,0.131 V 7.5771002 H 12.786 L 12.687,7.0870999 q -0.594,0.5940003 -1.516,0.5940003 -1.255,0 -1.255,-1.4580003 0,-0.49 0.187,-0.8070001 0.193,-0.323 0.61,-0.49 0.416,-0.172 1.208,-0.188 l 0.734,-0.02 v -0.766 q 0,-0.505 -0.187,-0.745 -0.182,-0.239 -0.568,-0.239 -0.521,0 -0.953,0.244 l -0.177,0.61 h -0.292 v -1.068 q 0.844,-0.1822 1.485,-0.1821999 z m 0.692,2.5102 -0.682,0.021 q -0.698,0.026 -0.948,0.271 -0.245,0.245 -0.245,0.818 0,0.916 0.745,0.916 0.354,0 0.609,-0.078 0.261,-0.083 0.521,-0.208 z"
     id="path144"
     inkscape:connector-curvature="0" />
  <path
     d="m 12.863,12.6981 q 0,-0.72 -0.25,-1.068 -0.25,-0.351 -0.773,-0.351 -0.231,0 -0.457,0.043 -0.227,0.039 -0.328,0.086 v 2.91 q 0.328,0.06 0.785,0.06 0.539,0 0.781,-0.42 0.242,-0.42 0.242,-1.26 z m -2.457,-3.3409998 -0.535,-0.094 v -0.176 h 1.184 V 10.4001 q 0,0.211 -0.024,0.773 0.391,-0.305 0.985,-0.305 0.75,0 1.148,0.458 0.402,0.452 0.402,1.372 0,0.99 -0.441,1.51 -0.438,0.51 -1.27,0.51 -0.336,0 -0.742,-0.08 -0.402,-0.07 -0.707,-0.19 z"
     id="path146"
     inkscape:connector-curvature="0" />
  <path
     d="m 13.875,21.0281 q -0.255,0.19 -0.703,0.3 -0.448,0.1 -0.917,0.1 -2.38,0 -2.38,-2.58 0,-1.23 0.604,-1.88 0.609,-0.67 1.74,-0.67 0.703,0 1.536,0.17 v 1.36 h -0.286 l -0.224,-0.86 q -0.433,-0.25 -1.037,-0.25 -1.396,0 -1.396,2.13 0,1.1 0.422,1.57 0.427,0.47 1.318,0.47 0.76,0 1.323,-0.17 z"
     id="path148"
     inkscape:connector-curvature="0" />
</svg>
