<?xml version="1.0" encoding="UTF-8" standalone="no"?>
<svg
   xmlns:dc="http://purl.org/dc/elements/1.1/"
   xmlns:cc="http://creativecommons.org/ns#"
   xmlns:rdf="http://www.w3.org/1999/02/22-rdf-syntax-ns#"
   xmlns:svg="http://www.w3.org/2000/svg"
   xmlns="http://www.w3.org/2000/svg"
   xmlns:sodipodi="http://sodipodi.sourceforge.net/DTD/sodipodi-0.dtd"
   xmlns:inkscape="http://www.inkscape.org/namespaces/inkscape"
   version="1.1"
   id="svg172"
   sodipodi:docname="fo21614.svg"
   width="24"
   height="24"
   inkscape:version="0.92.4 (5da689c313, 2019-01-14)">
  <metadata
     id="metadata178">
    <rdf:RDF>
      <cc:Work
         rdf:about="">
        <dc:format>image/svg+xml</dc:format>
        <dc:type
           rdf:resource="http://purl.org/dc/dcmitype/StillImage" />
        <dc:title></dc:title>
      </cc:Work>
    </rdf:RDF>
  </metadata>
  <defs
     id="defs176" />
  <sodipodi:namedview
     pagecolor="#ffffff"
     bordercolor="#666666"
     borderopacity="1"
     objecttolerance="10"
     gridtolerance="10"
     guidetolerance="10"
     inkscape:pageopacity="0"
     inkscape:pageshadow="2"
     inkscape:window-width="1920"
     inkscape:window-height="995"
     id="namedview174"
     showgrid="false"
     fit-margin-top="0"
     fit-margin-left="0"
     fit-margin-right="0"
     fit-margin-bottom="0"
     inkscape:zoom="2.36"
     inkscape:cx="-31.67561"
     inkscape:cy="-26.96"
     inkscape:window-x="0"
     inkscape:window-y="0"
     inkscape:window-maximized="1"
     inkscape:current-layer="svg172" />
  <path
     d="m 13.5105,8.4619999 v 0.21 L 10.6065,12.912 h 2.314 q 0.22,0 0.47,-0.01 0.25,0 0.51,0 0.26,-0.01 0.5,-0.02 0.25,-0.01 0.45,-0.02 0.2,-0.01 0.35,-0.02 0.15,-0.01 0.2,-0.02 l 0.29,-1.19 h 0.35 l -0.1,2.16 h -6.282 v -0.38 l 3.012,-4.4000001 -2.777,-4.0629998 v -0.411 h 5.757 v 1.8279998 h -0.35 l -0.21,-1.2869998 q -0.5,-0.062 -1.11,-0.062 -0.61,0 -0.73,0 l -2.102,-0.011 z"
     id="path164"
     inkscape:connector-curvature="0" />
  <path
     d="m 5.5805,14.952 q 0.702,0 1.03,0.29 0.333,0.28 0.333,0.88 v 2.89 l 0.533,0.11 v 0.21 h -1.176 l -0.086,-0.43 q -0.52,0.52 -1.327,0.52 -1.098,0 -1.098,-1.27 0,-0.43 0.164,-0.71 0.169,-0.28 0.533,-0.43 0.365,-0.15 1.058,-0.16 l 0.642,-0.02 v -0.67 q 0,-0.44 -0.164,-0.65 -0.159,-0.21 -0.497,-0.21 -0.455,0 -0.834,0.21 l -0.154,0.53 h -0.256 v -0.93 q 0.739,-0.16 1.299,-0.16 z m 0.606,2.2 -0.597,0.02 q -0.61,0.02 -0.829,0.23 -0.214,0.22 -0.214,0.72 0,0.8 0.651,0.8 0.31,0 0.534,-0.07 0.227,-0.07 0.455,-0.18 z"
     id="path166"
     inkscape:connector-curvature="0" />
  <path
     d="m 11.9075,16.932 v 0.47 h -4.343 v -0.47 z m 0,-1.87 v 0.47 h -4.343 v -0.47 z"
     id="path168"
     inkscape:connector-curvature="0" />
  <path
     d="m 13.9605,18.912 q 0,0.22 -0.16,0.39 -0.16,0.16 -0.39,0.16 -0.24,0 -0.4,-0.16 -0.15,-0.17 -0.15,-0.39 0,-0.23 0.16,-0.39 0.16,-0.16 0.39,-0.16 0.23,0 0.39,0.16 0.16,0.16 0.16,0.39 z m 3.13,0 q 0,0.22 -0.16,0.39 -0.16,0.16 -0.4,0.16 -0.23,0 -0.39,-0.16 -0.16,-0.17 -0.16,-0.39 0,-0.23 0.16,-0.39 0.16,-0.16 0.39,-0.16 0.24,0 0.4,0.16 0.16,0.16 0.16,0.39 z m 3.12,0 q 0,0.22 -0.16,0.39 -0.15,0.16 -0.39,0.16 -0.24,0 -0.4,-0.16 -0.15,-0.17 -0.15,-0.39 0,-0.23 0.16,-0.39 0.16,-0.16 0.39,-0.16 0.23,0 0.39,0.16 0.16,0.16 0.16,0.39 z"
     id="path170"
     inkscape:connector-curvature="0" />
</svg>
