<?xml version="1.0" encoding="UTF-8" standalone="no"?>
<svg
   xmlns:dc="http://purl.org/dc/elements/1.1/"
   xmlns:cc="http://creativecommons.org/ns#"
   xmlns:rdf="http://www.w3.org/1999/02/22-rdf-syntax-ns#"
   xmlns:svg="http://www.w3.org/2000/svg"
   xmlns="http://www.w3.org/2000/svg"
   xmlns:sodipodi="http://sodipodi.sourceforge.net/DTD/sodipodi-0.dtd"
   xmlns:inkscape="http://www.inkscape.org/namespaces/inkscape"
   version="1.1"
   id="svg132"
   sodipodi:docname="fo21603.svg"
   width="24"
   height="24"
   inkscape:version="0.92.4 (5da689c313, 2019-01-14)">
  <metadata
     id="metadata138">
    <rdf:RDF>
      <cc:Work
         rdf:about="">
        <dc:format>image/svg+xml</dc:format>
        <dc:type
           rdf:resource="http://purl.org/dc/dcmitype/StillImage" />
        <dc:title></dc:title>
      </cc:Work>
    </rdf:RDF>
  </metadata>
  <defs
     id="defs136" />
  <sodipodi:namedview
     pagecolor="#ffffff"
     bordercolor="#666666"
     borderopacity="1"
     objecttolerance="10"
     gridtolerance="10"
     guidetolerance="10"
     inkscape:pageopacity="0"
     inkscape:pageshadow="2"
     inkscape:window-width="1920"
     inkscape:window-height="995"
     id="namedview134"
     showgrid="false"
     fit-margin-top="0"
     fit-margin-left="0"
     fit-margin-right="0"
     fit-margin-bottom="0"
     inkscape:zoom="2.36"
     inkscape:cx="-31.59061"
     inkscape:cy="-39.48"
     inkscape:window-x="0"
     inkscape:window-y="0"
     inkscape:window-maximized="1"
     inkscape:current-layer="svg132" />
  <path
     d="m 3.147,16.625 v -0.27 l 0.895,-0.14 V 7.786 L 3.147,7.651 V 7.375 h 7.604 V 7.651 L 9.855,7.786 v 8.429 l 0.896,0.14 v 0.27 H 7.959 v -0.27 l 0.896,-0.14 V 7.843 H 5.048 v 8.372 l 0.896,0.14 v 0.27 z"
     id="path128"
     inkscape:connector-curvature="0" />
  <path
     d="m 20.853,16.175 v 0.35 h -3.32 v -0.35 l 0.97,-0.181 -1.69,-2.602 -1.99,2.617 1.01,0.166 v 0.35 h -2.64 v -0.35 l 0.85,-0.127 2.42,-3.187 -2.13,-3.133 -0.87,-0.195 V 9.181 h 3.33 v 0.352 l -0.97,0.211 1.41,2.109 1.62,-2.125 -1,-0.195 V 9.181 h 2.64 v 0.352 l -0.85,0.164 -2.06,2.672 2.42,3.64 z"
     id="path130"
     inkscape:connector-curvature="0" />
</svg>
