<?xml version="1.0" encoding="UTF-8" standalone="no"?>
<svg
   xmlns:dc="http://purl.org/dc/elements/1.1/"
   xmlns:cc="http://creativecommons.org/ns#"
   xmlns:rdf="http://www.w3.org/1999/02/22-rdf-syntax-ns#"
   xmlns:svg="http://www.w3.org/2000/svg"
   xmlns="http://www.w3.org/2000/svg"
   xmlns:sodipodi="http://sodipodi.sourceforge.net/DTD/sodipodi-0.dtd"
   xmlns:inkscape="http://www.inkscape.org/namespaces/inkscape"
   version="1.1"
   id="svg98"
   sodipodi:docname="fo21609.svg"
   width="24"
   height="24"
   inkscape:version="0.92.4 (5da689c313, 2019-01-14)">
  <metadata
     id="metadata104">
    <rdf:RDF>
      <cc:Work
         rdf:about="">
        <dc:format>image/svg+xml</dc:format>
        <dc:type
           rdf:resource="http://purl.org/dc/dcmitype/StillImage" />
        <dc:title></dc:title>
      </cc:Work>
    </rdf:RDF>
  </metadata>
  <defs
     id="defs102" />
  <sodipodi:namedview
     pagecolor="#ffffff"
     bordercolor="#666666"
     borderopacity="1"
     objecttolerance="10"
     gridtolerance="10"
     guidetolerance="10"
     inkscape:pageopacity="0"
     inkscape:pageshadow="2"
     inkscape:window-width="1920"
     inkscape:window-height="995"
     id="namedview100"
     showgrid="false"
     fit-margin-top="0"
     fit-margin-left="0"
     fit-margin-right="0"
     fit-margin-bottom="0"
     inkscape:zoom="2.36"
     inkscape:cx="-31.47061"
     inkscape:cy="-36.12"
     inkscape:window-x="0"
     inkscape:window-y="0"
     inkscape:window-maximized="1"
     inkscape:current-layer="svg98" />
  <path
     d="m 6.714,9.6839064 q 0,-1.437 0.125,-2.312 0.188,-0.875 0.625,-1.25 0.438,-0.438 0.875,-0.5 0.5,-0.063 0.875,0.125 0.375,0.125 0.563,0.375 0.187,0.187 0.25,0.562 0.062,0.313 -0.188,0.5 -0.187,0.188 -0.375,0.188 -0.125,0 -0.375,-0.125 -0.187,-0.125 -0.187,-0.313 0,-0.125 0.062,-0.25 0.063,-0.125 0.063,-0.25 0,-0.187 -0.188,-0.312 -0.187,-0.125 -0.625,0.062 -0.375,0.188 -0.562,0.688 -0.125,0.5 -0.188,1.25 -0.062,0.687 -0.062,1.562 1.75,0.25 2.062,1.1249996 0.313,0.813 0.313,1.25 0,0.688 -0.5,1.563 -0.5,0.875 -2.125,1.062 -0.125,1.13 -0.313,2 -0.187,0.88 -0.625,1.25 -0.437,0.44 -0.875,0.44 -0.375,0.06 -0.812,-0.06 -0.375,-0.13 -0.5,-0.38 -0.125,-0.25 -0.125,-0.44 0,-0.18 0.125,-0.37 0.187,-0.19 0.437,-0.19 0.188,0 0.438,0.13 0.25,0.06 0.187,0.43 -0.062,0.38 0.25,0.32 0.375,-0.07 0.625,-0.5 0.25,-0.5 0.5,-2.69 -0.687,-0.06 -1.312,-0.565 -0.625,-0.562 -0.75,-1.125 -0.063,-0.562 -0.063,-0.75 0,-0.75 0.5,-1.562 0.563,-0.8129996 1.875,-0.9379996 z m 0.5,4.3129996 q 1.063,-0.125 1.375,-0.688 0.375,-0.562 0.375,-1.187 0,-0.438 -0.187,-1 -0.125,-0.625 -1.375,-0.813 -0.063,1.813 -0.188,3.688 z m -0.687,0 q 0.062,-1.625 0.187,-3.688 -1.562,0.313 -1.687,1.75 -0.063,1.375 1.5,1.938 z"
     id="path94"
     inkscape:connector-curvature="0" />
  <path
     d="m 20.098,16.183906 v 0.35 h -3.33 v -0.35 l 0.98,-0.18 -1.7,-2.603 -1.98,2.613 1.01,0.17 v 0.35 h -2.642 v -0.35 l 0.852,-0.13 2.41,-3.184 -2.12,-3.1329996 -0.869,-0.195 v -0.352 h 3.329 v 0.352 l -0.98,0.211 1.42,2.1089996 1.62,-2.1249996 -1.01,-0.195 v -0.352 h 2.64 v 0.352 l -0.84,0.164 -2.06,2.6719996 2.41,3.636 z"
     id="path96"
     inkscape:connector-curvature="0" />
</svg>
