<?xml version="1.0" encoding="UTF-8" standalone="no"?>
<svg
   xmlns:dc="http://purl.org/dc/elements/1.1/"
   xmlns:cc="http://creativecommons.org/ns#"
   xmlns:rdf="http://www.w3.org/1999/02/22-rdf-syntax-ns#"
   xmlns:svg="http://www.w3.org/2000/svg"
   xmlns="http://www.w3.org/2000/svg"
   xmlns:sodipodi="http://sodipodi.sourceforge.net/DTD/sodipodi-0.dtd"
   xmlns:inkscape="http://www.inkscape.org/namespaces/inkscape"
   version="1.1"
   id="svg100"
   sodipodi:docname="fu21516.svg"
   width="23"
   height="23"
   inkscape:version="0.92.4 (5da689c313, 2019-01-14)">
  <metadata
     id="metadata106">
    <rdf:RDF>
      <cc:Work
         rdf:about="">
        <dc:format>image/svg+xml</dc:format>
        <dc:type
           rdf:resource="http://purl.org/dc/dcmitype/StillImage" />
        <dc:title></dc:title>
      </cc:Work>
    </rdf:RDF>
  </metadata>
  <defs
     id="defs104" />
  <sodipodi:namedview
     pagecolor="#ffffff"
     bordercolor="#666666"
     borderopacity="1"
     objecttolerance="10"
     gridtolerance="10"
     guidetolerance="10"
     inkscape:pageopacity="0"
     inkscape:pageshadow="2"
     inkscape:window-width="1920"
     inkscape:window-height="995"
     id="namedview102"
     showgrid="false"
     fit-margin-top="0"
     fit-margin-left="0"
     fit-margin-right="0"
     fit-margin-bottom="0"
     inkscape:zoom="2.36"
     inkscape:cx="-31.33761"
     inkscape:cy="-40.387"
     inkscape:window-x="0"
     inkscape:window-y="0"
     inkscape:window-maximized="1"
     inkscape:current-layer="svg100" />
  <path
     d="m 6.7355,15.2705 q -0.287,0.211 -0.791,0.334 -0.504,0.117 -1.032,0.117 -2.677,0 -2.677,-2.912 0,-1.377 0.679,-2.115 0.686,-0.744 1.957,-0.744 0.791,0 1.729,0.181 v 1.536 h -0.322 l -0.252,-0.973 q -0.487,-0.276 -1.166,-0.276 -1.571,0 -1.571,2.391 0,1.242 0.475,1.775 0.48,0.528 1.482,0.528 0.856,0 1.489,-0.194 z"
     id="path92"
     inkscape:connector-curvature="0" />
  <path
     d="m 12.1445,12.8215 q 0,2.9 -2.581,2.9 -1.242,0 -1.875,-0.744 -0.633,-0.744 -0.633,-2.156 0,-1.395 0.633,-2.133 0.633,-0.738 1.922,-0.738 1.254,0 1.894,0.726 0.64,0.721 0.64,2.145 z m -1.058,0 q 0,-1.266 -0.369,-1.834 -0.369,-0.569 -1.154,-0.569 -0.768,0 -1.113,0.545 -0.34,0.545 -0.34,1.858 0,1.33 0.345,1.887 0.352,0.55 1.108,0.55 0.773,0 1.148,-0.574 0.375,-0.574 0.375,-1.863 z"
     id="path94"
     inkscape:connector-curvature="0" />
  <path
     d="m 14.0545,15.7215 q -0.56,0 -0.84,-0.334 -0.28,-0.334 -0.28,-0.937 v -3.862 h -0.72 v -0.263 l 0.73,-0.229 0.6,-1.248 h 0.36 v 1.248 h 1.26 v 0.492 h -1.26 v 3.756 q 0,0.381 0.17,0.574 0.18,0.194 0.46,0.194 0.34,0 0.83,-0.094 v 0.381 q -0.21,0.141 -0.59,0.228 -0.39,0.094 -0.72,0.094 z"
     id="path96"
     inkscape:connector-curvature="0" />
  <path
     d="m 16.8345,9.6635 q 0,0.609 -0.04,0.879 0.42,-0.241 0.96,-0.417 0.54,-0.175 0.9,-0.175 0.72,0 1.08,0.416 0.37,0.416 0.37,1.207 v 3.621 l 0.66,0.146 v 0.264 h -2.37 v -0.264 l 0.73,-0.146 v -3.551 q 0,-1.008 -0.97,-1.008 -0.55,0 -1.32,0.17 v 4.389 l 0.75,0.146 v 0.264 h -2.42 v -0.264 l 0.7,-0.146 v -7.512 l -0.82,-0.14 v -0.264 h 1.79 z"
     id="path98"
     inkscape:connector-curvature="0" />
</svg>
