<?xml version="1.0" encoding="UTF-8" standalone="no"?>
<svg
   xmlns:dc="http://purl.org/dc/elements/1.1/"
   xmlns:cc="http://creativecommons.org/ns#"
   xmlns:rdf="http://www.w3.org/1999/02/22-rdf-syntax-ns#"
   xmlns:svg="http://www.w3.org/2000/svg"
   xmlns="http://www.w3.org/2000/svg"
   xmlns:sodipodi="http://sodipodi.sourceforge.net/DTD/sodipodi-0.dtd"
   xmlns:inkscape="http://www.inkscape.org/namespaces/inkscape"
   version="1.1"
   id="svg254"
   sodipodi:docname="fu21908.svg"
   width="23"
   height="23"
   inkscape:version="0.92.4 (5da689c313, 2019-01-14)">
  <metadata
     id="metadata260">
    <rdf:RDF>
      <cc:Work
         rdf:about="">
        <dc:format>image/svg+xml</dc:format>
        <dc:type
           rdf:resource="http://purl.org/dc/dcmitype/StillImage" />
        <dc:title></dc:title>
      </cc:Work>
    </rdf:RDF>
  </metadata>
  <defs
     id="defs258" />
  <sodipodi:namedview
     pagecolor="#ffffff"
     bordercolor="#666666"
     borderopacity="1"
     objecttolerance="10"
     gridtolerance="10"
     guidetolerance="10"
     inkscape:pageopacity="0"
     inkscape:pageshadow="2"
     inkscape:window-width="1920"
     inkscape:window-height="995"
     id="namedview256"
     showgrid="false"
     fit-margin-top="0"
     fit-margin-left="0"
     fit-margin-right="0"
     fit-margin-bottom="0"
     inkscape:zoom="2.36"
     inkscape:cx="-31.83861"
     inkscape:cy="-35.8"
     inkscape:window-x="0"
     inkscape:window-y="0"
     inkscape:window-maximized="1"
     inkscape:current-layer="svg254" />
  <path
     d="m 11.92,17.6065 v 0.35 H 8.592 v -0.35 l 0.976,-0.18 -1.695,-2.6 -1.985,2.61 1.008,0.17 v 0.35 h -2.64 v -0.35 l 0.851,-0.13 2.414,-3.18 -2.125,-3.137 -0.867,-0.195 v -0.352 h 3.328 v 0.352 l -0.976,0.211 1.414,2.109 1.625,-2.125 -1.008,-0.195 v -0.352 h 2.641 v 0.352 l -0.844,0.164 -2.063,2.668 2.414,3.64 z"
     id="path250"
     inkscape:connector-curvature="0" />
  <path
     d="m 14.494,12.2415 q -0.41,0 -0.81,-0.094 v -1.057 h 0.25 l 0.17,0.5 q 0.16,0.12 0.45,0.12 0.27,0 0.5,-0.156 0.23,-0.157 0.42,-0.464 0.19,-0.307 0.47,-1.099 l -1.86,-4.583 -0.5,-0.13 v -0.235 h 2.27 v 0.235 l -0.77,0.14 1.32,3.422 1.28,-3.432 -0.76,-0.13 v -0.235 h 1.82 v 0.235 l -0.51,0.109 -1.91,4.859 q -0.34,0.86 -0.59,1.235 -0.25,0.375 -0.55,0.567 -0.3,0.193 -0.69,0.193 z"
     id="path252"
     inkscape:connector-curvature="0" />
</svg>
