<?xml version="1.0" encoding="UTF-8" standalone="no"?>
<svg
   xmlns:dc="http://purl.org/dc/elements/1.1/"
   xmlns:cc="http://creativecommons.org/ns#"
   xmlns:rdf="http://www.w3.org/1999/02/22-rdf-syntax-ns#"
   xmlns:svg="http://www.w3.org/2000/svg"
   xmlns="http://www.w3.org/2000/svg"
   xmlns:sodipodi="http://sodipodi.sourceforge.net/DTD/sodipodi-0.dtd"
   xmlns:inkscape="http://www.inkscape.org/namespaces/inkscape"
   version="1.1"
   id="svg98"
   sodipodi:docname="op21407.svg"
   width="25"
   height="25"
   inkscape:version="0.92.4 (5da689c313, 2019-01-14)">
  <metadata
     id="metadata104">
    <rdf:RDF>
      <cc:Work
         rdf:about="">
        <dc:format>image/svg+xml</dc:format>
        <dc:type
           rdf:resource="http://purl.org/dc/dcmitype/StillImage" />
        <dc:title></dc:title>
      </cc:Work>
    </rdf:RDF>
  </metadata>
  <defs
     id="defs102" />
  <sodipodi:namedview
     pagecolor="#ffffff"
     bordercolor="#666666"
     borderopacity="1"
     objecttolerance="10"
     gridtolerance="10"
     guidetolerance="10"
     inkscape:pageopacity="0"
     inkscape:pageshadow="2"
     inkscape:window-width="1920"
     inkscape:window-height="995"
     id="namedview100"
     showgrid="false"
     fit-margin-top="0"
     fit-margin-left="0"
     fit-margin-right="0"
     fit-margin-bottom="0"
     inkscape:zoom="2.36"
     inkscape:cx="-30.71201"
     inkscape:cy="-41.006"
     inkscape:window-x="0"
     inkscape:window-y="0"
     inkscape:window-maximized="1"
     inkscape:current-layer="svg98" />
  <path
     d="m 3.2793,16.042 v 0.276 H 0.9827 v -0.276 l 0.7916,-0.141 2.38,-6.625 h 0.99 l 2.474,6.625 0.885,0.141 v 0.276 h -2.953 v -0.276 l 0.938,-0.141 -0.693,-2.015 h -2.75 l -0.703,2.015 z m 1.12,-6.016 -1.198,3.391 h 2.432 z"
     id="path92"
     inkscape:connector-curvature="0" />
  <path
     d="m 10.5873,8.552 h 0.75 l 4.13,7.896 h -0.74 z"
     id="path94"
     inkscape:connector-curvature="0" />
  <path
     d="m 22.4073,11.026 q 0,-0.64 -0.4,-0.932 -0.4,-0.292 -1.3,-0.292 h -1.08 v 2.641 h 1.14 q 0.85,0 1.24,-0.333 0.4,-0.334 0.4,-1.084 z m 0.53,3.302 q 0,-0.734 -0.49,-1.073 -0.49,-0.343 -1.57,-0.343 h -1.25 v 2.937 q 0.72,0.031 1.53,0.031 0.89,0 1.34,-0.375 0.44,-0.38 0.44,-1.177 z m -5.21,1.99 v -0.276 l 0.9,-0.141 V 9.745 l -0.9,-0.135 V 9.334 h 3.19 q 1.33,0 1.95,0.395 0.61,0.391 0.61,1.245 0,0.615 -0.38,1.047 -0.37,0.432 -1.06,0.578 0.95,0.099 1.46,0.552 0.52,0.448 0.52,1.157 0,1.005 -0.7,1.526 -0.69,0.515 -2.03,0.515 l -2.23,-0.031 z"
     id="path96"
     inkscape:connector-curvature="0" />
</svg>
