<?xml version="1.0" encoding="UTF-8" standalone="no"?>
<svg
   xmlns:dc="http://purl.org/dc/elements/1.1/"
   xmlns:cc="http://creativecommons.org/ns#"
   xmlns:rdf="http://www.w3.org/1999/02/22-rdf-syntax-ns#"
   xmlns:svg="http://www.w3.org/2000/svg"
   xmlns="http://www.w3.org/2000/svg"
   xmlns:sodipodi="http://sodipodi.sourceforge.net/DTD/sodipodi-0.dtd"
   xmlns:inkscape="http://www.inkscape.org/namespaces/inkscape"
   version="1.1"
   id="svg22"
   sodipodi:docname="op21406.svg"
   width="25"
   height="25"
   inkscape:version="0.92.4 (5da689c313, 2019-01-14)">
  <metadata
     id="metadata28">
    <rdf:RDF>
      <cc:Work
         rdf:about="">
        <dc:format>image/svg+xml</dc:format>
        <dc:type
           rdf:resource="http://purl.org/dc/dcmitype/StillImage" />
        <dc:title></dc:title>
      </cc:Work>
    </rdf:RDF>
  </metadata>
  <defs
     id="defs26" />
  <sodipodi:namedview
     pagecolor="#ffffff"
     bordercolor="#666666"
     borderopacity="1"
     objecttolerance="10"
     gridtolerance="10"
     guidetolerance="10"
     inkscape:pageopacity="0"
     inkscape:pageshadow="2"
     inkscape:window-width="1920"
     inkscape:window-height="995"
     id="namedview24"
     showgrid="false"
     fit-margin-top="0"
     fit-margin-left="0"
     fit-margin-right="0"
     fit-margin-bottom="0"
     inkscape:zoom="2.36"
     inkscape:cx="-31.11381"
     inkscape:cy="-43.286"
     inkscape:window-x="0"
     inkscape:window-y="0"
     inkscape:window-maximized="1"
     inkscape:current-layer="svg22" />
  <path
     d="m 3.5464,14.8845 v 0.207 H 1.8236 v -0.207 l 0.5938,-0.105 1.785,-4.969 h 0.742 l 1.856,4.969 0.664,0.105 v 0.207 h -2.215 v -0.207 l 0.703,-0.105 -0.519,-1.512 h -2.063 l -0.527,1.512 z m 0.84,-4.512 -0.899,2.543 h 1.825 z"
     id="path16"
     inkscape:connector-curvature="0" />
  <path
     d="m 14.7564,12.6815 v -2.508 h 0.63 v 2.508 q 0,0.68 -0.34,1.258 -0.33,0.578 -0.91,0.914 -0.58,0.336 -1.26,0.336 -0.68,0 -1.26,-0.336 -0.57,-0.336 -0.91,-0.914 -0.336,-0.578 -0.336,-1.258 v -2.508 h 0.625 v 2.508 q 0,0.508 0.251,0.941 0.26,0.434 0.69,0.688 0.43,0.254 0.94,0.254 0.51,0 0.94,-0.254 0.44,-0.254 0.69,-0.688 0.25,-0.433 0.25,-0.941 z"
     id="path18"
     inkscape:connector-curvature="0" />
  <path
     d="m 21.9764,11.1225 q 0,-0.48 -0.31,-0.699 -0.3,-0.219 -0.97,-0.219 h -0.81 v 1.981 h 0.86 q 0.63,0 0.92,-0.25 0.31,-0.25 0.31,-0.813 z m 0.39,2.477 q 0,-0.551 -0.37,-0.805 -0.36,-0.258 -1.17,-0.258 h -0.94 v 2.203 q 0.54,0.024 1.15,0.024 0.67,0 1,-0.281 0.33,-0.286 0.33,-0.883 z m -3.91,1.492 v -0.207 l 0.68,-0.105 v -4.618 l -0.68,-0.101 v -0.207 h 2.4 q 0.99,0 1.46,0.297 0.46,0.293 0.46,0.933 0,0.461 -0.29,0.785 -0.28,0.325 -0.79,0.434 0.71,0.074 1.09,0.414 0.39,0.336 0.39,0.867 0,0.754 -0.52,1.145 -0.52,0.386 -1.52,0.386 l -1.68,-0.023 z"
     id="path20"
     inkscape:connector-curvature="0" />
</svg>
