<?xml version="1.0" encoding="UTF-8" standalone="no"?>
<svg
   xmlns:dc="http://purl.org/dc/elements/1.1/"
   xmlns:cc="http://creativecommons.org/ns#"
   xmlns:rdf="http://www.w3.org/1999/02/22-rdf-syntax-ns#"
   xmlns:svg="http://www.w3.org/2000/svg"
   xmlns="http://www.w3.org/2000/svg"
   xmlns:sodipodi="http://sodipodi.sourceforge.net/DTD/sodipodi-0.dtd"
   xmlns:inkscape="http://www.inkscape.org/namespaces/inkscape"
   version="1.1"
   id="svg112"
   sodipodi:docname="op21411.svg"
   width="25"
   height="25"
   inkscape:version="0.92.4 (5da689c313, 2019-01-14)">
  <metadata
     id="metadata118">
    <rdf:RDF>
      <cc:Work
         rdf:about="">
        <dc:format>image/svg+xml</dc:format>
        <dc:type
           rdf:resource="http://purl.org/dc/dcmitype/StillImage" />
        <dc:title></dc:title>
      </cc:Work>
    </rdf:RDF>
  </metadata>
  <defs
     id="defs116" />
  <sodipodi:namedview
     pagecolor="#ffffff"
     bordercolor="#666666"
     borderopacity="1"
     objecttolerance="10"
     gridtolerance="10"
     guidetolerance="10"
     inkscape:pageopacity="0"
     inkscape:pageshadow="2"
     inkscape:window-width="1920"
     inkscape:window-height="995"
     id="namedview114"
     showgrid="false"
     fit-margin-top="0"
     fit-margin-left="0"
     fit-margin-right="0"
     fit-margin-bottom="0"
     inkscape:zoom="2.36"
     inkscape:cx="-30.23211"
     inkscape:cy="-42.583"
     inkscape:window-x="0"
     inkscape:window-y="0"
     inkscape:window-maximized="1"
     inkscape:current-layer="svg112" />
  <path
     d="m 2.38725,15.325 v 0.242 h -2.0095 v -0.242 l 0.6928,-0.123 2.0827,-5.796 h 0.866 l 2.165,5.796 0.774,0.123 v 0.242 h -2.584 v -0.242 l 0.821,-0.123 -0.607,-1.763 h -2.406 l -0.615,1.763 z m 0.98,-5.263 -1.048,2.967 h 2.128 z"
     id="path106"
     inkscape:connector-curvature="0" />
  <path
     d="m 12.93225,10.445 h -2.912 v -0.73 h 2.912 q 0.8,0 1.47,0.392 0.68,0.392 1.07,1.067 0.39,0.674 0.39,1.467 0,0.793 -0.39,1.468 -0.39,0.674 -1.07,1.066 -0.67,0.392 -1.47,0.392 h -2.912 v -0.729 h 2.912 q 0.6,0 1.1,-0.296 0.51,-0.297 0.81,-0.802 0.29,-0.506 0.29,-1.099 0,-0.592 -0.29,-1.098 -0.3,-0.506 -0.81,-0.802 -0.5,-0.296 -1.1,-0.296 z"
     id="path108"
     inkscape:connector-curvature="0" />
  <path
     d="m 23.22225,10.937 q 0,-0.561 -0.36,-0.816 -0.35,-0.255 -1.13,-0.255 h -0.95 v 2.31 h 1 q 0.74,0 1.08,-0.291 0.36,-0.292 0.36,-0.948 z m 0.46,2.889 q 0,-0.642 -0.43,-0.939 -0.43,-0.3 -1.37,-0.3 h -1.1 v 2.57 q 0.63,0.027 1.34,0.027 0.78,0 1.17,-0.328 0.39,-0.333 0.39,-1.03 z m -4.56,1.741 v -0.242 l 0.78,-0.123 V 9.816 l -0.78,-0.119 V 9.456 h 2.79 q 1.16,0 1.7,0.346 0.54,0.342 0.54,1.089 0,0.538 -0.33,0.916 -0.33,0.379 -0.93,0.506 0.83,0.087 1.28,0.483 0.45,0.392 0.45,1.012 0,0.879 -0.61,1.335 -0.61,0.451 -1.77,0.451 l -1.96,-0.027 z"
     id="path110"
     inkscape:connector-curvature="0" />
</svg>
