<svg viewBox="0 0 24 24" xmlns="http://www.w3.org/2000/svg"><g fill="#3a3a38" transform="matrix(.7 0 0 .7 3.6 3.6)"><path d="m17.490757 14.216667-.457754 2.4q-1.062644 5.383333-7.5039044 5.383333-6.4412596 0-5.3786152-5.383333l.5067998-2.616667h3.0734944l-.5067996 2.616667q-.6048899 3.083332 2.7628756 3.083332 3.3677654 0 3.9726564-3.083332l.5068-2.65-1.831019-.283334q-8.4848076-1.266667-7.5039051-6.2999999.4577547-2.2999998 2.4032112-3.8499998 1.9291075-1.5333333 6.0162029-1.5333333 4.087094 0 5.42766 1.5333333 1.324219 1.55.931858 3.5166666l-.163484.8333332h-3.073494l.163484-.8333332q.245224-1.2-.572193-1.9833333-.80107-.7666666-3.171586-.7666666-2.370515 0-3.4822034.7666666-1.095343.7833333-1.405961 2.3166665-.621238 3.1666669 5.0352994 4.0166669l1.814671.266666q.228877-.399999.621237-.733333.702981-.6 1.553096-.6.850115 0 1.324219.616667.474104.6.310619 1.466666-.163484.866668-.882812 1.466666-.228878.200001-.490453.333335z"/><text transform="scale(.99086738 1.0092168)" x="-11.771915" y="22.286119"><tspan fill="#3a3a38" x="-11.771915" y="22.286119"/></text></g></svg>