<svg class="railroad-diagram" height="166" viewBox="0 0 386.0 166" width="386.0" xmlns="http://www.w3.org/2000/svg">
<g transform="translate(.5 .5)">
<style>/* <![CDATA[ */
    svg.railroad-diagram {
        background-color:transparent;
    }
    svg.railroad-diagram path {
        stroke-width:1;
        stroke:black;
        fill:rgba(0,0,0,0);
    }
    svg.railroad-diagram text {
        font:bold 14px monospace;
        font-family: Verdana, sans-serif;
        text-anchor:middle;
    }
    svg.railroad-diagram text.label{
        text-anchor:start;
    }
    svg.railroad-diagram text.comment{
        font:italic 12px monospace;
    }
    svg.railroad-diagram rect{
        stroke-width:1;
        stroke:black;
        fill:transparent;
    }

/* ]]> */
</style><g>
<path d="M20 83v20m0 -10h20"></path></g><g>
<path d="M40 93h0.0"></path><path d="M346.0 93h0.0"></path><path d="M40.0 93a15 15 0 0 0 15 -15v-43a15 15 0 0 1 15 -15"></path><g>
<path d="M70.0 20h246.0"></path></g><path d="M316.0 20a15 15 0 0 1 15 15v43a15 15 0 0 0 15 15"></path><path d="M40.0 93h30"></path><g>
<path d="M70.0 93h0.0"></path><path d="M316.0 93h0.0"></path><g class="terminal">
<path d="M70.0 93h0.0"></path><path d="M141.0 93h0.0"></path><rect height="22" rx="10" ry="10" width="71.0" x="70.0" y="82"></rect><text x="105.5" y="97">Access</text></g><path d="M141.0 93h10"></path><g>
<path d="M151.0 93h0.0"></path><path d="M316.0 93h0.0"></path><path d="M151.0 93a15 15 0 0 0 15 -15v-12a15 15 0 0 1 15 -15"></path><g class="terminal">
<path d="M181.0 51h25.5"></path><path d="M260.5 51h25.5"></path><rect height="22" rx="10" ry="10" width="54.0" x="206.5" y="40"></rect><text x="233.5" y="55">Read</text></g><path d="M286.0 51a15 15 0 0 1 15 15v12a15 15 0 0 0 15 15"></path><path d="M151.0 93h30"></path><g class="terminal">
<path d="M181.0 93h0.0"></path><path d="M286.0 93h0.0"></path><rect height="22" rx="10" ry="10" width="105.0" x="181.0" y="82"></rect><text x="233.5" y="97">Read Write</text></g><path d="M286.0 93h30"></path><path d="M151.0 93a15 15 0 0 1 15 15v12a15 15 0 0 0 15 15"></path><g class="terminal">
<path d="M181.0 135h21.25"></path><path d="M264.75 135h21.25"></path><rect height="22" rx="10" ry="10" width="62.5" x="202.25" y="124"></rect><text x="233.5" y="139">Write</text></g><path d="M286.0 135a15 15 0 0 0 15 -15v-12a15 15 0 0 1 15 -15"></path></g></g><path d="M316.0 93h30"></path></g><path d="M 346.0 93 h 20 m 0 -10 v 20"></path></g></svg>