<svg class="railroad-diagram" height="292" viewBox="0 0 697.0 292" width="697.0" xmlns="http://www.w3.org/2000/svg">
<g transform="translate(.5 .5)">
<style>/* <![CDATA[ */
    svg.railroad-diagram {
        background-color:transparent;
    }
    svg.railroad-diagram path {
        stroke-width:1;
        stroke:black;
        fill:rgba(0,0,0,0);
    }
    svg.railroad-diagram text {
        font:bold 14px monospace;
        font-family: Verdana, sans-serif;
        text-anchor:middle;
    }
    svg.railroad-diagram text.label{
        text-anchor:start;
    }
    svg.railroad-diagram text.comment{
        font:italic 12px monospace;
    }
    svg.railroad-diagram rect{
        stroke-width:1;
        stroke:black;
        fill:transparent;
    }

/* ]]> */
</style><g>
<path d="M20 125v20m10 -20v20m-10 -10h20"></path></g><g>
<path d="M40 135h0.0"></path><path d="M370.5 135h0.0"></path><path d="M40.0 135a15 15 0 0 0 15 -15v-85a15 15 0 0 1 15 -15h124.5"></path><path d="M224.5 250h116.0a15 15 0 0 0 15 -15v-85a15 15 0 0 1 15 -15"></path><path d="M40.0 135h15"></path><g>
<path d="M55.0 135h0.0"></path><path d="M194.5 135h0.0"></path><path d="M55.0 135a15 15 0 0 0 15 -15v-12a15 15 0 0 1 15 -15"></path><g class="terminal">
<path d="M85.0 93h4.25"></path><path d="M160.25 93h4.25"></path><rect height="22" rx="10" ry="10" width="71.0" x="89.25" y="82"></rect><text x="124.75" y="97">DefCur</text></g><path d="M164.5 93a15 15 0 0 1 15 15v12a15 15 0 0 0 15 15"></path><path d="M55.0 135a15 15 0 0 0 15 -15v-54a15 15 0 0 1 15 -15"></path><g class="terminal">
<path d="M85.0 51h0.0"></path><path d="M164.5 51h0.0"></path><rect height="22" rx="10" ry="10" width="79.5" x="85.0" y="40"></rect><text x="124.75" y="55">DefBool</text></g><path d="M164.5 51a15 15 0 0 1 15 15v54a15 15 0 0 0 15 15"></path><path d="M55.0 135h30"></path><g class="terminal">
<path d="M85.0 135h0.0"></path><path d="M164.5 135h0.0"></path><rect height="22" rx="10" ry="10" width="79.5" x="85.0" y="124"></rect><text x="124.75" y="139">DefDate</text></g><path d="M164.5 135h30"></path><path d="M55.0 135a15 15 0 0 1 15 15v12a15 15 0 0 0 15 15"></path><g class="terminal">
<path d="M85.0 177h4.25"></path><path d="M160.25 177h4.25"></path><rect height="22" rx="10" ry="10" width="71.0" x="89.25" y="166"></rect><text x="124.75" y="181">DefDbl</text></g><path d="M164.5 177a15 15 0 0 0 15 -15v-12a15 15 0 0 1 15 -15"></path><path d="M55.0 135a15 15 0 0 1 15 15v54a15 15 0 0 0 15 15"></path><g class="terminal">
<path d="M85.0 219h4.25"></path><path d="M160.25 219h4.25"></path><rect height="22" rx="10" ry="10" width="71.0" x="89.25" y="208"></rect><text x="124.75" y="223">DefErr</text></g><path d="M164.5 219a15 15 0 0 0 15 -15v-54a15 15 0 0 1 15 -15"></path><path d="M55.0 135a15 15 0 0 1 15 15v96a15 15 0 0 0 15 15"></path><g class="terminal">
<path d="M85.0 261h4.25"></path><path d="M160.25 261h4.25"></path><rect height="22" rx="10" ry="10" width="71.0" x="89.25" y="250"></rect><text x="124.75" y="265">DefInt</text></g><path d="M164.5 261a15 15 0 0 0 15 -15v-96a15 15 0 0 1 15 -15"></path></g><path d="M194.5 135a15 15 0 0 1 15 15v85a15 15 0 0 0 15 15"></path><path d="M194.5 20a15 15 0 0 1 15 15v85a15 15 0 0 0 15 15"></path><g>
<path d="M224.5 135h0.0"></path><path d="M355.5 135h0.0"></path><path d="M224.5 135a15 15 0 0 0 15 -15v-12a15 15 0 0 1 15 -15"></path><g class="terminal">
<path d="M254.5 93h0.0"></path><path d="M325.5 93h0.0"></path><rect height="22" rx="10" ry="10" width="71.0" x="254.5" y="82"></rect><text x="290.0" y="97">DefObj</text></g><path d="M325.5 93a15 15 0 0 1 15 15v12a15 15 0 0 0 15 15"></path><path d="M224.5 135a15 15 0 0 0 15 -15v-54a15 15 0 0 1 15 -15"></path><g class="terminal">
<path d="M254.5 51h0.0"></path><path d="M325.5 51h0.0"></path><rect height="22" rx="10" ry="10" width="71.0" x="254.5" y="40"></rect><text x="290.0" y="55">DefLng</text></g><path d="M325.5 51a15 15 0 0 1 15 15v54a15 15 0 0 0 15 15"></path><path d="M224.5 135h30"></path><g class="terminal">
<path d="M254.5 135h0.0"></path><path d="M325.5 135h0.0"></path><rect height="22" rx="10" ry="10" width="71.0" x="254.5" y="124"></rect><text x="290.0" y="139">DefSng</text></g><path d="M325.5 135h30"></path><path d="M224.5 135a15 15 0 0 1 15 15v12a15 15 0 0 0 15 15"></path><g class="terminal">
<path d="M254.5 177h0.0"></path><path d="M325.5 177h0.0"></path><rect height="22" rx="10" ry="10" width="71.0" x="254.5" y="166"></rect><text x="290.0" y="181">DefStr</text></g><path d="M325.5 177a15 15 0 0 0 15 -15v-12a15 15 0 0 1 15 -15"></path><path d="M224.5 135a15 15 0 0 1 15 15v54a15 15 0 0 0 15 15"></path><g class="terminal">
<path d="M254.5 219h0.0"></path><path d="M325.5 219h0.0"></path><rect height="22" rx="10" ry="10" width="71.0" x="254.5" y="208"></rect><text x="290.0" y="223">DefVar</text></g><path d="M325.5 219a15 15 0 0 0 15 -15v-54a15 15 0 0 1 15 -15"></path></g><path d="M355.5 135h15"></path></g><path d="M370.5 135h10"></path><g>
<path d="M380.5 135h0.0"></path><path d="M647.0 135h0.0"></path><path d="M380.5 135h15"></path><g>
<path d="M395.5 135h0.0"></path><path d="M632.0 135h0.0"></path><path d="M395.5 135a15 15 0 0 0 15 -15v-12a15 15 0 0 1 15 -15"></path><g>
<path d="M425.5 93h0.0"></path><path d="M602.0 93h0.0"></path><g class="terminal">
<path d="M425.5 93h0.0"></path><path d="M479.5 93h0.0"></path><rect height="22" rx="10" ry="10" width="54.0" x="425.5" y="82"></rect><text x="452.5" y="97">char</text></g><path d="M479.5 93h10"></path><path d="M489.5 93h10"></path><g class="terminal">
<path d="M499.5 93h0.0"></path><path d="M528.0 93h0.0"></path><rect height="22" rx="10" ry="10" width="28.5" x="499.5" y="82"></rect><text x="513.75" y="97">-</text></g><path d="M528.0 93h10"></path><path d="M538.0 93h10"></path><g class="terminal">
<path d="M548.0 93h0.0"></path><path d="M602.0 93h0.0"></path><rect height="22" rx="10" ry="10" width="54.0" x="548.0" y="82"></rect><text x="575.0" y="97">char</text></g></g><path d="M602.0 93a15 15 0 0 1 15 15v12a15 15 0 0 0 15 15"></path><path d="M395.5 135h30"></path><g class="terminal">
<path d="M425.5 135h61.25"></path><path d="M540.75 135h61.25"></path><rect height="22" rx="10" ry="10" width="54.0" x="486.75" y="124"></rect><text x="513.75" y="139">char</text></g><path d="M602.0 135h30"></path></g><path d="M632.0 135h15"></path><path d="M395.5 135a15 15 0 0 0 -15 15v12a15 15 0 0 0 15 15"></path><g class="terminal">
<path d="M395.5 177h104.0"></path><path d="M528.0 177h104.0"></path><rect height="22" rx="10" ry="10" width="28.5" x="499.5" y="166"></rect><text x="513.75" y="181">,</text></g><path d="M632.0 177a15 15 0 0 0 15 -15v-12a15 15 0 0 0 -15 -15"></path></g><path d="M647.0 135h10"></path><path d="M 657.0 135 h 20 m -10 -10 v 20 m 10 -20 v 20"></path></g></svg>