<svg class="railroad-diagram" height="92" viewBox="0 0 509.5 92" width="509.5" xmlns="http://www.w3.org/2000/svg">
<g transform="translate(.5 .5)">
<style>/* <![CDATA[ */
    svg.railroad-diagram {
        background-color:transparent;
    }
    svg.railroad-diagram path {
        stroke-width:1;
        stroke:black;
        fill:rgba(0,0,0,0);
    }
    svg.railroad-diagram text {
        font:bold 14px monospace;
        font-family: Verdana, sans-serif;
        text-anchor:middle;
    }
    svg.railroad-diagram text.label{
        text-anchor:start;
    }
    svg.railroad-diagram text.comment{
        font:italic 12px monospace;
    }
    svg.railroad-diagram rect{
        stroke-width:1;
        stroke:black;
        fill:transparent;
    }

/* ]]> */
</style><g>
<path d="M20 20v20m0 -10h20"></path></g><g>
<path d="M40 30h0.0"></path><path d="M469.5 30h0.0"></path><path d="M40.0 30h30"></path><g>
<path d="M70.0 30h369.5"></path></g><path d="M439.5 30h30"></path><path d="M40.0 30a15 15 0 0 1 15 15v1a15 15 0 0 0 15 15"></path><g>
<path d="M70.0 61h0.0"></path><path d="M439.5 61h0.0"></path><g class="terminal">
<path d="M70.0 61h0.0"></path><path d="M124.0 61h0.0"></path><rect height="22" rx="10" ry="10" width="54.0" x="70.0" y="50"></rect><text x="97.0" y="65">Else</text></g><path d="M124.0 61h10"></path><path d="M134.0 61h10"></path><g class="terminal">
<path d="M144.0 61h0.0"></path><path d="M240.5 61h0.0"></path><rect height="22" rx="10" ry="10" width="96.5" x="144.0" y="50"></rect><text x="192.25" y="65">condition</text></g><path d="M240.5 61h10"></path><path d="M250.5 61h10"></path><g class="terminal">
<path d="M260.5 61h0.0"></path><path d="M314.5 61h0.0"></path><rect height="22" rx="10" ry="10" width="54.0" x="260.5" y="50"></rect><text x="287.5" y="65">Then</text></g><path d="M314.5 61h10"></path><path d="M324.5 61h10"></path><g class="terminal">
<path d="M334.5 61h0.0"></path><path d="M439.5 61h0.0"></path><rect height="22" rx="10" ry="10" width="105.0" x="334.5" y="50"></rect><text x="387.0" y="65">statements</text></g></g><path d="M439.5 61a15 15 0 0 0 15 -15v-1a15 15 0 0 1 15 -15"></path></g><path d="M 469.5 30 h 20 m 0 -10 v 20"></path></g></svg>