<svg class="railroad-diagram" height="124" viewBox="0 0 349.0 124" width="349.0" xmlns="http://www.w3.org/2000/svg">
<g transform="translate(.5 .5)">
<style>/* <![CDATA[ */
    svg.railroad-diagram {
        background-color:transparent;
    }
    svg.railroad-diagram path {
        stroke-width:1;
        stroke:black;
        fill:rgba(0,0,0,0);
    }
    svg.railroad-diagram text {
        font:bold 14px monospace;
        font-family: Verdana, sans-serif;
        text-anchor:middle;
    }
    svg.railroad-diagram text.label{
        text-anchor:start;
    }
    svg.railroad-diagram text.comment{
        font:italic 12px monospace;
    }
    svg.railroad-diagram rect{
        stroke-width:1;
        stroke:black;
        fill:transparent;
    }

/* ]]> */
</style><g>
<path d="M20 41v20m10 -20v20m-10 -10h20"></path></g><path d="M40 51h10"></path><g class="terminal">
<path d="M50 51h0.0"></path><path d="M112.5 51h0.0"></path><rect height="22" rx="10" ry="10" width="62.5" x="50.0" y="40"></rect><text x="81.25" y="55">Erase</text></g><path d="M112.5 51h10"></path><g>
<path d="M122.5 51h0.0"></path><path d="M309.0 51h0.0"></path><path d="M122.5 51a15 15 0 0 0 15 -15v-1a15 15 0 0 1 15 -15"></path><g>
<path d="M152.5 20h126.5"></path></g><path d="M279.0 20a15 15 0 0 1 15 15v1a15 15 0 0 0 15 15"></path><path d="M122.5 51h30"></path><g>
<path d="M152.5 51h0.0"></path><path d="M279.0 51h0.0"></path><path d="M152.5 51h15"></path><g class="terminal">
<path d="M167.5 51h0.0"></path><path d="M264.0 51h0.0"></path><rect height="22" rx="10" ry="10" width="96.5" x="167.5" y="40"></rect><text x="215.75" y="55">arrayname</text></g><path d="M264.0 51h15"></path><path d="M167.5 51a15 15 0 0 0 -15 15v12a15 15 0 0 0 15 15"></path><g class="terminal">
<path d="M167.5 93h34.0"></path><path d="M230.0 93h34.0"></path><rect height="22" rx="10" ry="10" width="28.5" x="201.5" y="82"></rect><text x="215.75" y="97">,</text></g><path d="M264.0 93a15 15 0 0 0 15 -15v-12a15 15 0 0 0 -15 -15"></path></g><path d="M279.0 51h30"></path></g><path d="M 309.0 51 h 20 m -10 -10 v 20 m 10 -20 v 20"></path></g></svg>