<svg class="railroad-diagram" height="166" viewBox="0 0 845.0 166" width="845.0" xmlns="http://www.w3.org/2000/svg">
<g transform="translate(.5 .5)">
<style>/* <![CDATA[ */
    svg.railroad-diagram {
        background-color:transparent;
    }
    svg.railroad-diagram path {
        stroke-width:1;
        stroke:black;
        fill:rgba(0,0,0,0);
    }
    svg.railroad-diagram text {
        font:bold 14px monospace;
        font-family: Verdana, sans-serif;
        text-anchor:middle;
    }
    svg.railroad-diagram text.label{
        text-anchor:start;
    }
    svg.railroad-diagram text.comment{
        font:italic 12px monospace;
    }
    svg.railroad-diagram rect{
        stroke-width:1;
        stroke:black;
        fill:transparent;
    }

/* ]]> */
</style><g>
<path d="M20 63v20m10 -20v20m-10 -10h20"></path></g><path d="M40 73h10"></path><g>
<path d="M50 73h0.0"></path><path d="M795.0 73h0.0"></path><g class="terminal">
<path d="M50.0 73h0.0"></path><path d="M163.5 73h0.0"></path><rect height="22" rx="10" ry="10" width="113.5" x="50.0" y="62"></rect><text x="106.75" y="77">Select Case</text></g><path d="M163.5 73h10"></path><path d="M173.5 73h10"></path><g class="terminal">
<path d="M183.5 73h0.0"></path><path d="M288.5 73h0.0"></path><rect height="22" rx="10" ry="10" width="105.0" x="183.5" y="62"></rect><text x="236.0" y="77">expression</text></g><path d="M288.5 73h10"></path><path d="M298.5 73h10"></path><g>
<path d="M308.5 73h0.0"></path><path d="M670.0 73h0.0"></path><path d="M308.5 73h15"></path><g>
<path d="M323.5 73h0.0"></path><path d="M655.0 73h0.0"></path><g class="terminal">
<path d="M323.5 73h0.0"></path><path d="M377.5 73h0.0"></path><rect height="22" rx="10" ry="10" width="54.0" x="323.5" y="62"></rect><text x="350.5" y="77">Case</text></g><path d="M377.5 73h10"></path><g>
<path d="M387.5 73h0.0"></path><path d="M540.0 73h0.0"></path><path d="M387.5 73a15 15 0 0 0 15 -15v-12a15 15 0 0 1 15 -15"></path><g class="terminal">
<path d="M417.5 31h19.25"></path><path d="M490.75 31h19.25"></path><rect height="22" rx="10" ry="10" width="54.0" x="436.75" y="20"></rect><text x="463.75" y="35">Else</text></g><path d="M510.0 31a15 15 0 0 1 15 15v12a15 15 0 0 0 15 15"></path><path d="M387.5 73h30"></path><g>
<path d="M417.5 73h0.0"></path><path d="M510.0 73h0.0"></path><path d="M417.5 73h15"></path><g class="terminal">
<path d="M432.5 73h0.0"></path><path d="M495.0 73h0.0"></path><rect height="22" rx="10" ry="10" width="62.5" x="432.5" y="62"></rect><text x="463.75" y="77">value</text></g><path d="M495.0 73h15"></path><path d="M432.5 73a15 15 0 0 0 -15 15v12a15 15 0 0 0 15 15"></path><g class="terminal">
<path d="M432.5 115h17.0"></path><path d="M478.0 115h17.0"></path><rect height="22" rx="10" ry="10" width="28.5" x="449.5" y="104"></rect><text x="463.75" y="119">,</text></g><path d="M495.0 115a15 15 0 0 0 15 -15v-12a15 15 0 0 0 -15 -15"></path></g><path d="M510.0 73h30"></path></g><path d="M540.0 73h10"></path><g class="terminal">
<path d="M550.0 73h0.0"></path><path d="M655.0 73h0.0"></path><rect height="22" rx="10" ry="10" width="105.0" x="550.0" y="62"></rect><text x="602.5" y="77">statements</text></g></g><path d="M655.0 73h15"></path><path d="M323.5 73a15 15 0 0 0 -15 15v43a15 15 0 0 0 15 15"></path><g>
<path d="M323.5 146h331.5"></path></g><path d="M655.0 146a15 15 0 0 0 15 -15v-43a15 15 0 0 0 -15 -15"></path></g><path d="M670.0 73h10"></path><path d="M680.0 73h10"></path><g class="terminal">
<path d="M690.0 73h0.0"></path><path d="M795.0 73h0.0"></path><rect height="22" rx="10" ry="10" width="105.0" x="690.0" y="62"></rect><text x="742.5" y="77">End Select</text></g></g><path d="M795.0 73h10"></path><path d="M 805.0 73 h 20 m -10 -10 v 20 m 10 -20 v 20"></path></g></svg>