<svg viewBox="0 0 16 16" xmlns="http://www.w3.org/2000/svg"><path d="m4.9886024 7.1416594h.6339786q.3404699 0 .5635364-.085301.2230666-.0959633.4226524-.3198779l4.7078782-5.320639q.234806-.2452398.481354-.3305407.246547-.0853008.575276-.0853008h1.761052l-5.4944808 6.0563586q-.4226524.4478293-.8570451.618431.2700279.0959634.4696137.2559025.1995858.159939.3639506.4265041l3.9564956 6.6534638h-1.796272q-.387432 0-.551797-.106626-.152624-.106625-.2700275-.28789l-3.4046994-5.5765412q-.1526245-.2452399-.3522103-.3412033-.1995858-.1066261-.6222382-.1066261h-.7866029l-.8687855 6.4188866h-2.0545599l1.8901952-14.02132261h2.0663003z" fill="#3a3a38" stroke-width=".876333"/></svg>