<svg height="22" viewBox="0 0 22 22" width="22" xmlns="http://www.w3.org/2000/svg"><g fill-rule="evenodd"><g fill="#1e8bcd"><path d="m10.5 10.5v11.000005l10-5v-11.000005z"/><path d="m10.5.49999962-10 4.99999998 10 5.0000004 10-5.0000004z"/><path d="m.5 5.5v11l10 5v-11z" opacity=".3"/></g><path d="m10.472656 0c-.06509.0038962-.128781.02048356-.1875.04882812l-9.99999975 4.99999998c-.0153604.00705-.0303536.014871-.0449219.023437l-.003906.00195c-.0127835.00854-.0251665.017664-.0371094.027344l-.003906.00195c-.0114949.00927-.0225734.019046-.0332031.029297l-.003906.00195c-.0109161.010587-.0213436.021666-.03125.033203l-.003906.00391c-.009632.011307-.0187558.023037-.02734376.035156-.02065825.02803-.03833227.058141-.05273437.089844-.0058607.014077-.01107453.028415-.015625.042969l-.0019531.00391c-.0045996.014785-.0085101.029775-.01171875.044922-.0023258.010999-.00428004.022073-.00585938.033203l-.00390724.0156269v.00391c-.00209897.0161987-.00340262.0324943-.00390625.0488244v.00195.00781 11c.00013434.192785.11108052.368324.28515625.451172l9.99999975 5c.135928.06468.29376.06468.429688 0l9.999672-5c.174076-.0828434.285022-.2583814.285156-.4511664v-10.9882812c.000145-.016298-.000507-.032594-.002-.048828-.0011-.017016-.003-.033965-.0059-.050781v-.00195l-.002-.00977c-.01927-.094386-.06539-.1811992-.132812-.25l-.0098-.00977-.0039-.00391c-.01067-.00959-.02175-.01871-.0332-.027344-.01011-.00822-.02053-.016035-.03125-.023437l-.0098-.00586c-.01081-.00693-.02189-.01345-.0332-.019531l-.0098-.00586-.01172-.00586-9.999672-4.99999998c-.075149-.03626655-.158419-.05305499-.241962-.04881782zm.027344 1.0527344 8.837563 4.4472656-.115235.0546875-8.722328 4.390625-8.8378906-4.4453125zm-9.5 5.2382812 9 4.5234374v9.892578l-9-4.523437zm18.999672 0v9.8925784l-8.999672 4.523437v-9.892578z" fill="#3a3a38"/></g></svg>