<svg viewBox="0 0 15 15" xmlns="http://www.w3.org/2000/svg"><path d="m7.5 3c-2.4852807 0-4.4999997 2.0147-4.4999997 4.5s2.014719 4.5 4.4999997 4.5c2.485281 0 4.5-2.0147 4.5-4.5s-2.014719-4.5-4.5-4.5z" fill="#e78e46" opacity=".66"/><path d="m7 0v2.03125c-2.6379248.2381-4.730646 2.33082-4.9687497 4.96875h-2.03125001v1h2.03125001c.2381037 2.63792 2.3308249 4.73065 4.9687497 4.96875v2.03125h1v-2.03125c2.637925-.2381 4.730646-2.33083 4.96875-4.96875h2.03125v-1h-2.03125c-.238104-2.63793-2.330825-4.73065-4.96875-4.96875v-2.03125zm0 3.0625v.9375h1v-.9375c2.079314.23365 3.703851 1.85819 3.9375 3.9375h-.9375v1h.9375c-.233649 2.07931-1.858186 3.70385-3.9375 3.9375v-.9375h-1v.9375c-2.079314-.23365-3.7038508-1.85819-3.9374997-3.9375h.9375v-1h-.9375c.2336489-2.07931 1.8581857-3.70385 3.9374997-3.9375z" fill="#d46e1c" opacity=".9"/></svg>