<svg height="15" width="15" xmlns="http://www.w3.org/2000/svg"><path d="m0 0v15h15v-15z" fill="#fafafa" stroke-width=".9375"/><path d="m1 1v1h1v-1zm2 0v1h2v-1zm3 0v1h2v-1zm3 0v1h2v-1zm3 0v1h1 1v-1h-1zm-11 2v2h1v-2zm12 0v2h1v-2zm-12 3v2h1v-2zm12 0v2h1v-2zm-12 3v2h1v-2zm12 0v2h1v-2zm-12 3v2h1v-2zm12 0v1h-1v1h1 1v-2zm-10 1v1h2v-1zm3 0v1h2v-1zm3 0v1h2v-1z" fill="#d3d3d3"/><g fill="#d3d3d3" transform="matrix(0 1 1 0 0 0)"><path d="m7 3h1v2h-1z"/><path d="m7 6h1v2h-1z"/><path d="m7 9h1v2h-1z"/><path d="m7 12h1v1h-1z"/></g><path d="m1 1v1h2 9 2v-1zm0 12v1h13v-1h-2-9z" fill="#3a3a38"/><path d="m14 1h-1v2 9 2h1zm-12 0h-1v13h1v-2-9z" fill="#3a3a38"/><g fill="#fb983b"><path d="m7-14h1v13h-1z" transform="rotate(90)"/><path d="m-8-14h1v13h-1z" transform="scale(-1)"/></g></svg>