<svg height="18" viewBox="0 0 18 18" width="18" xmlns="http://www.w3.org/2000/svg"><path d="m0 0v18h18v-18z" fill="#fafafa" stroke-width="1.125"/><path d="m0 0v1 1h1v-1-1zm2 0v1h2v-1zm3 0v1h2v-1zm3 0v1h2v-1zm3 0v1h2v-1zm3 0v1h2v-1zm3 0v1 1h1v-1-1zm-17 3v2h1v-2zm17 0v2h1v-2zm-17 4v2h1v-2zm17 0v2h1v-2zm-17 3v2h1v-2zm17 0v2h1v-2zm-17 3v2h1v-2zm17 0v2h1v-2zm-17 3v2h1v-2zm17 0v1 1h1v-2zm-15 1v1h2v-1zm3 0v1h2v-1zm3 0v1h2v-1zm3 0v1h2v-1zm3 0v1h2v-1z" fill="#d3d3d3"/><g fill="#3a3a38"><path d="m0 16v2h18v-2h-2-14z"/><path d="m0 0v2h18v-2h-2-14z"/></g></svg>