<svg height="128" viewBox="0 0 128 128" width="128" xmlns="http://www.w3.org/2000/svg"><g transform="translate(895.35638 480.52334)"><path d="m17.251953 0c-.250371 0-.500725.01115625-.75.03515625-3.66708.69973-4.56576 2.26628685-4.5 5.99804685v115.9687469c.0004 4.1875 1.8115 5.99765 6 5.99805h77.039063c-.642111-.84124-1.041016-1.87422-1.041016-3v-18c0-2.73541 2.264594-5 5-5h1v-3.978516c-.069014-6.628444 5.3962-12.021484 12-12.021484 1.40247 0 2.74462.256469 3.99805.703125v-36.519531c.048-2.1119-.78004-4.230237-2.25-5.748047l-42.160159-42.1503908c-1.51819-1.46918995-3.63759-2.29893995-5.75-2.24999995h-47.835938c-.24919-.024-.499629-.03515625-.75-.03515625zm94.748047 94c-2.23283 0-4 1.76717-4 4v4h7.99805v-4.019531c-.01058-2.223318-1.77193-3.980469-3.99805-3.980469z" fill="#ed5a33" transform="translate(-895.35638 -480.52334)"/><path d="m-808.72139-480.46172c-2.66247.85279-3.55852 4.90602-1.50595 6.81208l24.09514 24.22093c2.22593 2.12166 6.65946.30628 6.77674-2.77532v-24.22085c-.00024-2.11366-1.91322-4.0366-4.01587-4.03684h-24.09514c-.41518-.064-.83997-.064-1.25492 0z" fill="#ed5a33"/><path d="m18 5.9921875v2 112.0000025 2h2 74v-14.99219c0-2.73541 2.264594-5 5-5h1v-3.978516c-.061888-5.944065 4.33089-10.880922 10-11.839843v-36.189453-.875l-.625-.625-41.75-42.0000005-.5-.5h-.875-46.25zm92 88.5527345c-1.19586.68629-2 1.958528-2 3.455078v4h2z" fill="#fafafa" transform="translate(-895.35638 -480.52334)"/><g fill="#3a3a38"><path d="m-834.23592-385.52465-12.12121 7.9999h4.8844l2.69908-.5569 9.4165-7.443z"/><path d="m-830.35715-385.52465 12 7.9999h-5.00561l-2.5431-.4389-9.45128-7.561z"/><path d="m-835.23593-385.52465-12.12121 7.9999h5.87879l10.12122-7.9999z"/><path d="m-835.3572-387.52475h6v3h-6z"/><path d="m-829.35714-385.52465 12 7.9999h-6l-10.00001-7.9999z"/></g><path d="m-864.35714-432.52475h64v46h-64z" fill="#fb6d3b"/><rect fill="none" height="42.000023" rx="1" width="60" x="-862.35712" y="-430.52478"/><rect fill="#fafafa" height="42.000023" rx="1" width="60" x="-862.35712" y="-430.52478"/><rect fill="none" height="31.427435" rx="2" transform="rotate(90)" width="15.674944" x="-404.19971" y="816.92969"/><g fill="#fb6d3b"><path d="m-851.35714-411.52475h15v4h-15z"/><path d="m-851.35714-404.52475h15v4h-15z"/><path d="m-851.35714-397.52475h15v4h-15z"/><ellipse cx="-856.35712" cy="-409.52148" rx="1.999997" ry="1.999998"/><ellipse cx="-856.35712" cy="-402.52148" rx="1.999997" ry="1.999998"/><ellipse cx="-856.35712" cy="-395.52148" rx="1.999997" ry="1.999998"/><path d="m-858.35714-426.52475h51.99997v4h-51.99997z"/><path d="m-832.35714-411.52475h26v18h-26z"/></g><path d="m-830.35714-409.52475h22v14h-22z" fill="#e6e6e6"/><path d="m-830.35714-409.52475h22v14.0001h-22z" fill="#fafafa"/><path d="m-827.85714-398.02475 5.5-5.5 4 4 7.5-7.5" fill="none" stroke="#1e8bcd" stroke-linecap="round" stroke-linejoin="round" stroke-width="1.5"/><path d="m-848.35714-419.52475h32v4h-32z" fill="#fb6d3b"/></g><path d="m112 88c-5.52285 0-10.0575 4.477452-10 10v6h-3c-1.662 0-3 1.338-3 3v18c0 1.662 1.338 3 3 3h26c1.662 0 3-1.338 3-3v-18c0-1.662-1.33853-2.95787-3-3h-3v-6c0-5.522847-4.47715-10-10-10zm0 4c3.31371 0 6 2.686291 6 6v6h-12v-6c0-3.313709 2.68629-6 6-6z" fill="#ed8733"/><g fill-opacity=".978947"><path d="m98 106h28v20h-28z" fill="#f8db8f"/><path d="m112.5 109a4.5 4.5 0 0 0 -4.5 4.5 4.5 4.5 0 0 0 2 3.74023v4.75977c0 .554.446 1 1 1h3c.554 0 1-.446 1-1v-4.76172a4.5 4.5 0 0 0 2-3.73828 4.5 4.5 0 0 0 -4.5-4.5z" fill="#ed8733"/><path d="m112.5 110a3.5 3.5 0 0 0 -3.5 3.5 3.5 3.5 0 0 0 2 3.1582v4.8418c0 .277.223.5.5.5h2c.277 0 .5-.223.5-.5v-4.8418a3.5 3.5 0 0 0 2-3.1582 3.5 3.5 0 0 0 -3.5-3.5z" fill="#fafafa"/></g></svg>