<svg height="128" viewBox="0 0 128 128" width="128" xmlns="http://www.w3.org/2000/svg"><g transform="translate(-187.42857 -391.21935)"><path d="m17.251953 0c-.250372 0-.500725.01115625-.75.03515625-3.66708.6998-4.56576 2.26624685-4.5 5.99804685v115.9687469c.0004 4.1875 1.81149 5.99765 6 5.99805h77.039063c-.642111-.84124-1.041016-1.87422-1.041016-3v-18c0-2.73541 2.264594-5 5-5h1v-3.978516c-.069014-6.628444 5.3962-12.021484 12-12.021484 1.40247 0 2.74462.256469 3.99805.703125v-36.519531c.048-2.1119-.78004-4.230247-2.25-5.748047l-42.160159-42.1503908c-1.51819-1.46919995-3.63759-2.29889995-5.75-2.24999995h-47.835938c-.249195-.024-.499627-.03515625-.75-.03515625zm94.748047 94c-2.23283 0-4 1.76717-4 4v4h7.99805v-4.019531c-.01058-2.223318-1.77193-3.980469-3.99805-3.980469z" fill="#0063b1" transform="translate(187.42857 391.21935)"/><path d="m18 6v2 112 2h2 74v-15c0-2.73541 2.264594-5 5-5h1v-3.978516c-.061888-5.944065 4.33089-10.880922 10-11.839843v-36.181641-.875l-.625-.625-41.75-42-.5-.5h-.875-46.25zm92 88.544922c-1.19586.68629-2 1.958528-2 3.455078v4h2z" fill="#fafafa" transform="translate(187.42857 391.21935)"/><path d="m274.06356 391.28095c-2.66247.8528-3.55852 4.9061-1.50595 6.8121l24.09514 24.2209c2.22593 2.1217 6.65946.3063 6.77674-2.7753v-24.2208c-.00024-2.1137-1.91322-4.0366-4.01587-4.0369h-24.09514c-.41518-.064-.83997-.064-1.25492 0z" fill="#0063b1"/><g fill="#fafafa"><path d="m240.42729 440.21781h41.99922v28h-41.99922z"/><path d="m218.42784 448.21793h18v4h-18z"/><path d="m218.42784 440.21793h18v4h-18z"/><path d="m218.42784 472.21781h63.99997v4.00007h-63.99997z"/><path d="m218.42784 456.21793h18v4h-18z"/><path d="m218.42784 480.21781h63.99997v4.00007h-63.99997z"/><path d="m218.42784 488.21781h41.99997v4.00007h-41.99997z"/><path d="m218.42784 464.21793h18v4h-18z"/></g><g fill="#1e8bcd"><path d="m218.42781 439.21575v4h18v-4zm0 8v4h18v-4zm0 8v4h18v-4zm0 8v4h18v-4zm0 8v4h64v-4zm0 8v4h64v-4zm0 8v4h42v-4z"/><path d="m240.42729 439.21781h41.99922v28h-41.99922z" fill="#0063b1"/><path d="m243.42851 442.21805h35.99923v21.9999h-35.99923z" fill="#fafafa"/></g><path d="m262.02811 452.82905c-3.59197-3.0353-5.39988-5.5-7.79983-9.1666-.70179.2159-.67498.1338-1.19998 0 0 0-3.21063 4.8582-4.7999 7.3333-1.58925 2.4752-4.80059 6.1111-4.80059 6.1111v2.4444h27.59878s-6.59344-4.8509-8.99848-6.7221z" fill="#83beec"/><path d="m269.82795 447.32905c2.39995 1.2223 6.5708 5.4785 9.59846 8.5556v3.6666h-27.59877c4.80059-6.111 12.00044-9.7777 18.00031-12.2222z" fill="#83beec"/><path d="m279.42775 458.10685h-1.54688s-6.85294 1.2222-6.85294 1.2222-6.77196-1.8333-7.79068-1.8333c-1.00092 0-4.20908.6111-4.80941.6111-.42074 0-2.99959-1.2222-3.60943-1.2222-1.00619 0-2.16569 1.2986-5.16562 1.8333 0 0-.8619-1.9478-1.42439-1.8333-3.59992 1.4132-4.80059 1.2222-4.80059 1.2222v6.1111h35.9986s.001-6.1111.001-6.1111h.00014z" fill="#18ab50"/><path d="m279.4278 448.22208a6 6.0000038 0 0 1 -6-6h6z" fill="#fb983b"/><path d="m243.4284 442.21795v22h36v-22zm1 1h34v20h-34z" fill="#fafafa"/></g><path d="m112 88c-5.52285 0-10.0575 4.477452-10 10v6h-3c-1.662 0-3 1.338-3 3v18c0 1.662 1.338 3 3 3h26c1.662 0 3-1.338 3-3v-18c0-1.662-1.33853-2.95787-3-3h-3v-6c0-5.522847-4.47715-10-10-10zm0 4c3.31371 0 6 2.686291 6 6v6h-12v-6c0-3.313709 2.68629-6 6-6z" fill="#ed8733"/><g fill-opacity=".978947"><path d="m98 106h28v20h-28z" fill="#f8db8f"/><path d="m112.5 109a4.5 4.5 0 0 0 -4.5 4.5 4.5 4.5 0 0 0 2 3.74023v4.75977c0 .554.446 1 1 1h3c.554 0 1-.446 1-1v-4.76172a4.5 4.5 0 0 0 2-3.73828 4.5 4.5 0 0 0 -4.5-4.5z" fill="#ed8733"/><path d="m112.5 110a3.5 3.5 0 0 0 -3.5 3.5 3.5 3.5 0 0 0 2 3.1582v4.8418c0 .277.223.5.5.5h2c.277 0 .5-.223.5-.5v-4.8418a3.5 3.5 0 0 0 2-3.1582 3.5 3.5 0 0 0 -3.5-3.5z" fill="#fafafa"/></g></svg>