<svg height="128" viewBox="0 0 128 128" width="128" xmlns="http://www.w3.org/2000/svg"><g transform="translate(832.57143 85.923541)"><path d="m18 .02539063c-4.15175 0-6.01832 3.48502087-6 5.99804687v115.9687525c.0004 4.1875 1.81145 5.99764 6 5.99804h77.033203c-.637544-.83953-1.033203-1.86889-1.033203-2.99023v-18c0-2.73541 2.264594-5 5-5h1v-3.978516c-.069014-6.628444 5.3962-12.021484 12-12.021484 1.40247 0 2.74462.256469 3.99805.703125v-36.529297c.048-2.111901-.78003-4.232189-2.25-5.75l-42.162112-42.1484374c-1.51821-1.46918997-3.637561-2.29894098-5.75-2.24999997zm94 93.97460937c-2.23283 0-4 1.76717-4 4v4h7.99805v-4.019531c-.01058-2.223318-1.77193-3.980469-3.99805-3.980469z" fill="#309048" transform="translate(-832.57143 -85.923541)"/><path d="m18 5.9960938v2 111.9999962 2h2 74v-14.99609c0-2.73541 2.264594-5 5-5h1v-3.978516c-.061888-5.944065 4.33089-10.880922 10-11.839843v-36.185547-.875l-.625-.625-41.75-42.0000002-.5-.5h-.875-46.25zm92 88.5488282c-1.19586.68629-2 1.958528-2 3.455078v4h2z" fill="#fafafa" transform="translate(-832.57143 -85.923541)"/><path d="m-745.9369-85.865323c-2.66247.852789-3.55852 4.906018-1.50595 6.812079l24.09514 24.220931c2.22593 2.121657 6.65945.306281 6.77673-2.775324v-24.220851c-.00024-2.113661-1.91322-4.036595-4.01586-4.036835h-24.09514c-.41519-.06397-.83997-.06397-1.25492 0z" fill="#309048"/><path d="m-801.57265-37.928356v2 8 2 8 2 8.0000004 2 8 2 7.9999996 2h60v-2-50h-58z" fill="#18ab50"/><g fill="#fafafa"><path d="m-799.57265-35.928356h17v8h-17z"/><path d="m-780.57441-35.928356h17.99994v8h-17.99994z"/><path d="m-760.57265-35.928356h17v8h-17z"/><path d="m-799.57265-25.928356h17v8h-17z"/><path d="m-760.57265-25.928356h17v8h-17z"/><path d="m-780.57441-15.928356h17.99994v8.0000004h-17.99994z"/><path d="m-760.57265-15.928356h17v8.0000004h-17z"/><path d="m-799.57265-15.928356h17v8.0000004h-17z"/><path d="m-780.57441-5.9283556h17.99994v8h-17.99994z"/><path d="m-799.57265-5.9283556h17v8h-17z"/><path d="m-780.57441 4.0716444h17.99994v7.9999996h-17.99994z"/><path d="m-799.57265 4.0716444h17v7.9999996h-17z"/></g><path d="m-776.57265-9.9283556h39v28.0000006h-39z" fill="#18ab50"/><path d="m-774.57265-7.9283556h35v24.0000006h-35z" fill="#fafafa"/><path d="m-772.57265-.92835556h7v15.99990056h-7z" fill="#1e8bcd"/><path d="m-764.57265-5.9283556h7v20.9999006h-7z" fill="#ed3d3b"/><path d="m-756.57265 5.0716444h7v9.9999006h-7z" fill="#fb983b"/><path d="m-748.57265 1.0716444h7v14.0000006h-7z" fill="#18ab50"/><path d="m-774.57265 15.071645h35v1h-35z" fill="none" opacity=".75"/><path d="m-780.57441-25.928356h17.99994v8h-17.99994z" fill="#fafafa"/></g><path d="m112 88c-5.52285 0-10.0575 4.477452-10 10v6h-3c-1.662 0-3 1.338-3 3v18c0 1.662 1.338 3 3 3h26c1.662 0 3-1.338 3-3v-18c0-1.662-1.33853-2.95787-3-3h-3v-6c0-5.522847-4.47715-10-10-10zm0 4c3.31371 0 6 2.686291 6 6v6h-12v-6c0-3.313709 2.68629-6 6-6z" fill="#ed8733"/><g fill-opacity=".978947"><path d="m98 106h28v20h-28z" fill="#f8db8f"/><path d="m112.5 109a4.5 4.5 0 0 0 -4.5 4.5 4.5 4.5 0 0 0 2 3.74023v4.75977c0 .554.446 1 1 1h3c.554 0 1-.446 1-1v-4.76172a4.5 4.5 0 0 0 2-3.73828 4.5 4.5 0 0 0 -4.5-4.5z" fill="#ed8733"/><path d="m112.5 110a3.5 3.5 0 0 0 -3.5 3.5 3.5 3.5 0 0 0 2 3.1582v4.8418c0 .277.223.5.5.5h2c.277 0 .5-.223.5-.5v-4.8418a3.5 3.5 0 0 0 2-3.1582 3.5 3.5 0 0 0 -3.5-3.5z" fill="#fafafa"/></g></svg>