<svg height="24" viewBox="0 0 24 24" width="24" xmlns="http://www.w3.org/2000/svg">/&amp;amp;amp;amp;amp;gt;<g fill-rule="evenodd"><path d="m8.640625 4.4804688-.5195312.5195312h.3789062c.8137028 0 1.5.6862972 1.5 1.5s-.6862972 1.5-1.5 1.5h-.3808594l1.4375 1.4375c.5752824.575284.5752834 1.54581 0 2.121094-.5752838.575284-1.5458099.575284-2.1210937 0l-1.4355469-1.435547v.376953c0 .813703-.6862972 1.5-1.5 1.5s-1.5-.686297-1.5-1.5v7.5l18-.333984v-10.666016h-9z" fill="#fafafa"/><path d="m9.3554688 3.765625-.7148438.7148438 3.359375 2.5195312h9v3 7.666016 3.333984h1v-14c-.000056-.5522619-.447738-.9999448-1-1h-8.585938zm-6.3554688 6.355469-1 1v9.878906h1v-10.5z" fill="#ed8733"/></g><path d="m9.90625 7c-.211337.5755473-.7674377 1-1.40625 1h-.3808594l1.4375 1.4375c.5752824.575284.5752834 1.54581 0 2.121094-.5752838.575284-1.5458099.575284-2.1210937 0l-1.4355469-1.435547v.376953c0 .813703-.6862972 1.5-1.5 1.5s-1.5-.686297-1.5-1.5v-.378906l-1 1v9.878906h20v-11.8789062-2.1210938h-7.119141z" fill="#ed8733"/><path d="m8.1191406 8 1.4375 1.4375c.5752824.575284.5752834 1.54581 0 2.121094-.5752838.575284-1.5458099.575284-2.1210937 0l-1.4355469-1.435547v.376953c0 .813703-.6862972 1.5-1.5 1.5s-1.5-.686297-1.5-1.5v9.5h18v-11.5-.5h-6.900391-4.1992184-1.4003906z" fill="#f8db8f"/><g transform="translate(1 2)"><path d="m3.5 0c-.277 0-.5.223-.5.5v1.5507812a2.5 2.5 0 0 0 -.8789062.3652344l-2.26562505-2.26562498c-.19586858-.19586857-.51116267-.19586857-.70703125 0-.1958686.19586858-.1958686.51116268 0 .70703126l2.265625 2.26562502a2.5 2.5 0 0 0 -.359375.8769531h-1.5546875c-.277 0-.5.223-.5.5s.223.5.5.5h1.5507812a2.5 2.5 0 0 0 .3652344.8769531l-2.2675781 2.2675781c-.1958685.1958687-.1958685.5111627 0 .7070313.19586857.1958685.51116267.1958685.70703125 0l2.26757815-2.2675781a2.5 2.5 0 0 0 .8769531.3613281v1.5546875c0 .277.223.5.5.5s.5-.223.5-.5v-1.5507812a2.5 2.5 0 0 0 .875-.3652344l2.2675781 2.2675781c.1958686.1958686.5111627.1958686.7070313 0s.1958686-.5111626 0-.7070313l-2.265625-2.265625a2.5 2.5 0 0 0 .3613281-.8789062h1.5546875c.277 0 .5-.223.5-.5s-.223-.5-.5-.5h-1.5507812a2.5 2.5 0 0 0 -.3652344-.8769531l2.265625-2.26562502c.1958686-.19586858.1958686-.51116268 0-.70703126-.1958686-.19586857-.5111627-.19586857-.7070313 0l-2.265625 2.26562498a2.5 2.5 0 0 0 -.8769531-.3613281v-1.5546875c0-.277-.223-.5-.5-.5zm0 3a1.5 1.5 0 0 1 1.5 1.5 1.5 1.5 0 0 1 -1.5 1.5 1.5 1.5 0 0 1 -1.5-1.5 1.5 1.5 0 0 1 .4394531-1.0585938 1.5 1.5 0 0 1 .0019531-.0019531 1.5 1.5 0 0 1 1.0585938-.4394531z" fill="#fb983b"/><circle cx="3.5" cy="4.5" fill="#fafafa" r="1.5"/></g></svg>