<svg viewBox="0 0 16 16" xmlns="http://www.w3.org/2000/svg"><path d="m3 0h12v16h-12z" fill="#0063b1"/><path d="m4 1h10v14h-10z" fill="#83beec"/><path d="m9 1.999999c-2.2100007 0-3.9999997 1.9373333-3.9999997 4h2c0-1.0266666.9-2.1328125 1.9999997-2.1328125 1.1 0 2 .8385678 2 1.8652344 0 .5133334-.219844.9804062-.589844 1.3164062l-1.2402337 1.1757809c-.7200003.681334-1.1699223 1.327776-1.1699223 1.64258v.132812h2c0-.4.449922-.627261 1.169922-1.308594l.90039-.8574226c.570001-.532.929688-1.2802291.929688-2.1015625 0-2.0626667-1.79-3.7324219-4-3.7324219zm-1 9.000001v2h2v-2z" fill="#fafafa"/><path d="m1 0h2v16h-2z" fill="#3a3a38"/></svg>