<svg height="52" viewBox="0 0 44 52" width="44" xmlns="http://www.w3.org/2000/svg"><g fill="#ed3d3b" transform="matrix(2 0 0 2 -62 -52.001953)"><path d="m41.34375 28.001953-.839844 1.816406-1.208984-1.375-.339844 1.972657-1.523437-1.015625.18164 1.99414-1.734375-.585937.691406 1.878906-1.826171-.117188 1.154297 1.634766-1.794922.359375 1.537109 1.28125-1.638672.810547 1.816406.839844-1.375 1.208984 1.972657.339844-1.015625 1.523437 1.99414-.18164-.585937 1.734375 1.878906-.691406-.117188 1.826171 1.634766-1.154297.359375 1.794922 1.28125-1.537109.810547 1.638672.839844-1.816406 1.208984 1.375.339844-1.972657 1.523437 1.015625-.18164-1.99414 1.734375.585937-.691406-1.878906 1.826171.117188-1.154297-1.634766 1.794922-.359375-1.537109-1.28125 1.638672-.810547-1.816406-.839844 1.375-1.208984-1.972657-.339844 1.015625-1.523437-1.99414.18164.585937-1.734375-1.878906.691406.117188-1.826171-1.634766 1.154297-.359375-1.794922-1.28125 1.537109zm.65625 5.998047a2 2 0 0 1 2 2 2 2 0 0 1 -2 2 2 2 0 0 1 -2-2 2 2 0 0 1 2-2z"/><path d="m38.000002 42.917968v7.082032l4-4 4 4v-7.082032a8 8 0 0 1 -4 1.082032 8 8 0 0 1 -4-1.082032z" fill-rule="evenodd"/></g><path d="m22 14a6 6 0 0 0 -6 6 6 6 0 0 0 6 6 6 6 0 0 0 6-6 6 6 0 0 0 -6-6zm0 1c2.761424 0 5 2.238576 5 5s-2.238576 5-5 5-5-2.238576-5-5 2.238576-5 5-5z" fill="#fafafa"/></svg>