<svg height="59" viewBox="0 0 264.58333 15.610417" width="1000" xmlns="http://www.w3.org/2000/svg" xmlns:xlink="http://www.w3.org/1999/xlink"><linearGradient id="a" gradientTransform="matrix(15.9995 0 0 15.9955 -1815.94 -17050.2)" gradientUnits="userSpaceOnUse" x1="121.30617" x2="121.30617" xlink:href="#b" y1="976.37823" y2="992.4245"/><linearGradient id="b"><stop offset="0" stop-color="#666"/><stop offset="1" stop-color="#333"/></linearGradient><linearGradient id="c" gradientTransform="matrix(16.0634 0 0 16.1473 -1839.92 -17198.3)" gradientUnits="userSpaceOnUse" x1="110.96875" x2="110.96875" xlink:href="#b" y1="976.29968" y2="992.375"/><linearGradient id="d" gradientTransform="matrix(15.958 0 0 16.0248 -4705.13 -5573.42)" gradientUnits="userSpaceOnUse" x1="294.3429" x2="294.41818" y1="256.58133" y2="243.13852"><stop offset="0" stop-color="#999"/><stop offset="1" stop-color="#e6e6e6"/></linearGradient><linearGradient id="e" gradientTransform="matrix(.621118 0 0 1 23.559 -257)" gradientUnits="userSpaceOnUse" x1="-17" x2="144" xlink:href="#f" y1="-1194.6378" y2="-1194.6378"/><linearGradient id="f"><stop offset="0" stop-opacity="0"/><stop offset=".49305555"/><stop offset="1" stop-opacity="0"/></linearGradient><linearGradient id="g" gradientTransform="matrix(1.41615 0 0 1 -1655.56 1220.64)" gradientUnits="userSpaceOnUse" x1="-17" x2="144" xlink:href="#f" y1="-1194.6378" y2="-1194.6378"/><linearGradient id="h" gradientTransform="matrix(.867106 0 0 1 -1578 1033.64)" gradientUnits="userSpaceOnUse" x1="-17" x2="144" xlink:href="#f" y1="-1194.6378" y2="-1194.6378"/><linearGradient id="i" gradientTransform="matrix(.621118 0 0 1 23.559 -251)" gradientUnits="userSpaceOnUse" x1="-17" x2="144" xlink:href="#f" y1="-1194.6378" y2="-1194.6378"/><linearGradient id="j"><stop offset="0"/><stop offset="1" stop-opacity="0"/></linearGradient><linearGradient id="k" gradientTransform="matrix(1 0 0 -1 -392 -1379.64)" gradientUnits="userSpaceOnUse" x1="364.8671" x2="389.10162" xlink:href="#j" y1="300.81857" y2="276.58405"/><linearGradient id="l" gradientTransform="matrix(.524068 0 0 1 -1110.65 -48.9609)" gradientUnits="userSpaceOnUse" x1="-17" x2="144" xlink:href="#f" y1="-1194.6378" y2="-1194.6378"/><linearGradient id="m" gradientTransform="matrix(.524068 0 0 1 -1111.36 -41.1827)" gradientUnits="userSpaceOnUse" x1="-17" x2="144" xlink:href="#f" y1="-1194.6378" y2="-1194.6378"/><linearGradient id="n" gradientTransform="matrix(.524068 0 0 1 -1111.36 -69.467)" gradientUnits="userSpaceOnUse" x1="-17" x2="144" xlink:href="#f" y1="-1194.6378" y2="-1194.6378"/><linearGradient id="o" gradientTransform="matrix(1.41615 0 0 1 -1655.56 1226.64)" gradientUnits="userSpaceOnUse" x1="-17" x2="144" xlink:href="#f" y1="-1194.6378" y2="-1194.6378"/><linearGradient id="p" gradientTransform="matrix(.899038 0 0 1 -1580.99 1348.64)" gradientUnits="userSpaceOnUse" x1="-17" x2="144" xlink:href="#f" y1="-1194.6378" y2="-1194.6378"/><linearGradient id="q" gradientUnits="userSpaceOnUse" x1="-15.5" x2="-15.5" y1="-1449.21016" y2="-1677.63256"><stop offset="0" stop-color="#fff" stop-opacity=".85"/><stop offset="1" stop-color="#fff" stop-opacity=".9"/></linearGradient><linearGradient id="r" gradientUnits="userSpaceOnUse" x1="26.000076" x2="-3.75075290112" y1="-1451.6384912464" y2="-1481.3893669768"><stop offset="0"/><stop offset=".45461464" stop-opacity=".360784"/><stop offset="1" stop-opacity="0"/></linearGradient><linearGradient id="s" gradientUnits="userSpaceOnUse" x1="-25.1329" x2="-.89838" xlink:href="#j" y1="-1452.82143" y2="-1477.05595"/><g transform="translate(0 -281.38957)"><path d="m.26458332 281.38956h264.05417668c.14658 0 .26458.118.26458.26458v15.08125c0 .14658-.118.26458-.26458.26458h-264.05417668c-.14657916 0-.26458332-.118-.26458332-.26458v-15.08125c0-.14658.11800416-.26458.26458332-.26458z" fill="#3a3a38"/><path d="m0 289.0625 264.58333-.00001v1.85208l-264.58333.00001z" fill="#a1ddaa"/><path d="m0 36v22c0 .554003.44600004 1 1 1h998c.554 0 1-.445997 1-1v-22z" fill="#fafafa" transform="matrix(.26458333 0 0 .26458333 0 281.38957)"/><path d="m1 0c-.55399997 0-1 .44599685-1 1v28h1000v-28c0-.55400315-.446-1-1-1z" fill="#309048" transform="matrix(.26458333 0 0 .26458333 0 281.38957)"/><g transform="matrix(.04325908 0 0 .04325908 4.640279 356.80905)"><use height="1085" width="5033" xlink:href="#t"/><g transform="matrix(1.00001 0 0 .999844 -.006079 -261.184)"><path d="m-39.993353-1184.5675c0 3.8673 3.622442 7.9298 7.756866 7.9298h191.986687c4.62705 0 8.24949-3.8705 8.24949-7.7455v-149.2144c0-4.2249-.51199-6.1833-3.49989-9.171l-85.323928-85.2984c-2.988223-2.9873-5.273683-4.5274-9.499625-4.5307l-101.735939-.08c-4.133464 0-7.933661 3.6832-7.933661 8.1221z" fill="url(#a)"/><path d="m103.25988-1421.8904 53.19027 53.4419c4.33857 4.3589 11.55354 3.3243 11.55354-3.5507v-52.4417c0-4.2273-3.82644-8.1968-8.03174-8.1968h-53.19026c-6.837537 0-7.137368 7.1146-3.52181 10.7473z" fill="url(#c)"/></g><path d="m-32-1683.6378v238h192c0-50.4688 0-100.9375 0-151.4063-29.38313-29.5023-58.74517-59.0265-88.0625-88.5937-34.645833-.0001-69.2916667 0-103.9375 0v1z" fill="url(#d)"/><path id="t" d="m-26-1677.5312v226c60 0 120-.0001 180 0 0-46.8126 0-93.625 0-140.4376-28.98559-29.2017-58.077912-58.2982-87-87.5624-31-.0001-62 0-93 0v1z" fill="url(#q)"/><path d="m-32-1685.6378v1 1 238h192v-151.4063c-29.38313-29.5023-58.74517-59.0265-88.0625-88.5937-34.64583-.0001-69.29167 0-103.9375 0zm1 1c34.16667 0 68.33333-.0001 102.5 0 29.14816 29.3621 58.29572 58.7249 87.5 88.0312v149.9688c-63.33333 0-126.66667-.0001-190 0v-237z" fill="#fff" opacity=".15"/><path id="u" d="m-37.999992-1515.6378h64v64h-64z" fill="url(#r)" opacity=".15" transform="scale(-1 1)"/><path d="m13-1451.6378h100v1.000016h-100z" fill="url(#e)" opacity=".2"/><path d="m-1679.6378 25.999985h228v1.000016h-228z" fill="url(#g)" opacity=".2" transform="rotate(90)"/><path d="m-1592.7418-161h139.60402v1.000016h-139.60402z" fill="url(#h)" opacity=".5" transform="rotate(90)"/><path d="m13-1445.6378h100v1.000016h-100z" fill="url(#i)" opacity=".5"/><path id="v" d="m-25-1502.6378v49 1h1 49v-1h-49v-49z" fill="url(#s)" opacity=".15"/><path d="m-27-1630.6378v-49-1h1 49v1h-49v49z" fill="url(#k)" opacity=".1"/><path d="m-1119.5618-1243.5988h84.375v1.000016h-84.375z" fill="url(#l)" opacity=".4" transform="matrix(.70710678 .70710678 -.70710678 .70710678 0 0)"/><path d="m-1120.2689-1235.8206h84.375v1.000016h-84.375z" fill="url(#m)" opacity=".1" transform="matrix(.70710678 .70710678 -.70710678 .70710678 0 0)"/><path d="m-1120.2689-1264.1052h84.375v1.000016h-84.375z" fill="url(#n)" opacity=".4" transform="matrix(.70710678 .70710678 -.70710678 .70710678 0 0)"/><path d="m-1679.6378 31.999985h228v1.000016h-228z" fill="url(#o)" opacity=".5" transform="rotate(90)"/><path d="m-1596.2764 154h144.74516v1.000016h-144.74516z" fill="url(#p)" opacity=".2" transform="matrix(0 1 1 0 0 0)"/><g transform="matrix(-1 0 0 1 128 0)"><use height="1085" width="5033" xlink:href="#u"/><use height="1085" width="5033" xlink:href="#v"/></g></g></g></svg>