<svg height="54" viewBox="0 0 63.749999 50.625" width="68" xmlns="http://www.w3.org/2000/svg"><path d="m2.8125 2.8125h57.1875v44.0625h-57.1875z" fill="#3a3a38"/><path d="m3.75 3.75h55.3125v42.1875h-55.3125z" fill="#fafafa"/><path d="m42.1875 6.5624999c.519375 0 .9375.418125.9375.9375v15.0000001c0 .519375-.418125.9375-.9375.9375h-33.7500003c-.519375 0-.9375-.418125-.9375-.9375l-.0000001-15.0000001c0-.519375.418125-.9375.9375-.9375zm-.9375.9375h-31.8750004c-.519375 0-.9375.418125-.9375.9375l.0000001 13.1250001c0 .519375.418125.9375.9375.9375h31.8750003c.519375 0 .9375-.418125.9375-.9375v-13.1250001c0-.519375-.418125-.9375-.9375-.9375z" fill="#797774"/><rect fill="#1e8bcd" height="2.812501" rx="1.0125" ry="0" transform="rotate(90)" width="30.9375" x="9.375" y="-52.5"/><g fill="#797774"><path d="m54.375 6.5624999c.519375 0 .9375.418125.9375.9375v34.6875001c0 .519375-.418125.9375-.9375.9375h-6.5625c-.519375 0-.9375-.418125-.9375-.9375v-34.6875001c0-.519375.418125-.9375.9375-.9375zm-.9375.9375h-4.6875c-.519375 0-.9375.418125-.9375.9375v32.8125001c0 .519375.418125.9375.9375.9375h4.6875c.519375 0 .9375-.418125.9375-.9375v-32.8125001c0-.519375-.418125-.9375-.9375-.9375z"/><path d="m42.1875 26.25c.519375 0 .9375.418125.9375.9375v15c0 .519375-.418125.9375-.9375.9375h-33.7500006c-.519375 0-.9375-.418125-.9375-.9375l-.0000001-15c0-.519375.418125-.9375.9375-.9375zm-.9375.9375h-31.8750007c-.519375 0-.9375.418125-.9375.9375l.0000001 13.125c0 .519375.418125.9375.9375.9375h31.8750006c.519375 0 .9375-.418125.9375-.9375v-13.125c0-.519375-.418125-.9375-.9375-.9375z"/></g></svg>