<svg height="54" viewBox="0 0 63.749999 50.625" width="68" xmlns="http://www.w3.org/2000/svg"><path d="m2.8125 2.8125h57.1875v44.0625h-57.1875z" fill="#3a3a38"/><path d="m3.75 3.75h55.3125v42.1875h-55.3125z" fill="#fafafa"/><path d="m9 7c-.5540003 0-1 .446-1 1v7c0 .554.4459997 1 1 1h49c.554 0 1-.446 1-1v-7c0-.554-.446-1-1-1zm1 1h47c.554 0 1 .446 1 1v5c0 .554-.446 1-1 1h-47c-.554 0-1-.446-1-1v-5c0-.554.446-1 1-1z" fill="#797774" transform="scale(.93749999)"/><rect fill="#1e8bcd" height="2.8125" rx=".9375" width="38.4375" x="12.1875" y="9.375"/><g fill="#797774"><path d="m8.4374999 18.75c-.5193752 0-.9375.418125-.9375.9375v9.375c0 .519375.4181248.9375.9375.9375h20.6250001c.519375 0 .9375-.418125.9375-.9375v-9.375c0-.519375-.418125-.9375-.9375-.9375zm.9375.9375h18.7500001c.519375 0 .9375.418125.9375.9375v7.5c0 .519375-.418125.9375-.9375.9375h-18.7500001c-.519375 0-.9375-.418125-.9375-.9375v-7.5c0-.519375.418125-.9375.9375-.9375z"/><path d="m33.75 18.75c-.519375 0-.9375.418125-.9375.9375v9.375c0 .519375.418125.9375.9375.9375h20.624999c.519375 0 .9375-.418125.9375-.9375v-9.375c0-.519375-.418125-.9375-.9375-.9375zm.9375.9375h18.749999c.519375 0 .9375.418125.9375.9375v7.5c0 .519375-.418125.9375-.9375.9375h-18.749999c-.519375 0-.9375-.418125-.9375-.9375v-7.5c0-.519375.418125-.9375.9375-.9375z"/><path d="m8.4374999 31.875c-.5193752 0-.9375.418125-.9375.9375v9.375c0 .519375.4181248.9375.9375.9375h20.6250001c.519375 0 .9375-.418125.9375-.9375v-9.375c0-.519375-.418125-.9375-.9375-.9375zm.9375.9375h18.7500001c.519375 0 .9375.418125.9375.9375v7.5c0 .519375-.418125.9375-.9375.9375h-18.7500001c-.519375 0-.9375-.418125-.9375-.9375v-7.5c0-.519375.418125-.9375.9375-.9375z"/><path d="m33.75 31.875c-.519375 0-.9375.418125-.9375.9375v9.375c0 .519375.418125.9375.9375.9375h20.624999c.519375 0 .9375-.418125.9375-.9375v-9.375c0-.519375-.418125-.9375-.9375-.9375zm.9375.9375h18.749999c.519375 0 .9375.418125.9375.9375v7.5c0 .519375-.418125.9375-.9375.9375h-18.749999c-.519375 0-.9375-.418125-.9375-.9375v-7.5c0-.519375.418125-.9375.9375-.9375z"/></g></svg>