<svg viewBox="0 0 16 16" xmlns="http://www.w3.org/2000/svg" xmlns:xlink="http://www.w3.org/1999/xlink"><linearGradient id="a" gradientUnits="userSpaceOnUse" x1="10" x2="11.500001" y1="4" y2="2.499999"><stop offset="0" stop-color="#fff"/><stop offset=".77967989" stop-color="#f1f1f1"/><stop offset="1" stop-color="#d5d5d5"/></linearGradient><radialGradient id="b" cx="10.994179" cy="4.42844" gradientTransform="matrix(1.4 .00000004 -.00000001 1.2 -4.39185 -2.314129)" gradientUnits="userSpaceOnUse" r="5"><stop offset="0" stop-color="#d7d7d7"/><stop offset=".49894297" stop-color="#f7f7f7"/><stop offset="1" stop-color="#fff"/></radialGradient><path d="m3 1v14h10v-11.2949219l-2.695312-2.7050781z" fill="url(#b)" opacity=".5"/><path d="m3 0c-.554 0-1 .446-1 1v14c0 .554.446 1 1 1h10c.554 0 1-.446 1-1v-10.5-.8632812l-3.636719-3.6367188h-.863281zm0 1h6v3.5c0 .277.223.5.5.5h3.5v10h-10zm7 0 3 3h-3z" fill="#3a3a38" opacity=".5"/><path d="m10 1 3 3h-3z" fill="url(#a)" opacity=".5"/><path d="m4 7h4v6h-4z" fill="#ed8733" opacity=".5" stroke-width=".632456"/><path d="m11.998794 10.500603a2.499397 2.499397 0 0 1 -2.4993967 2.499397 2.499397 2.499397 0 0 1 -2.4993971-2.499397 2.499397 2.499397 0 0 1 2.4993971-2.4993973 2.499397 2.499397 0 0 1 2.4993967 2.4993973z" fill="#0063b1" opacity=".5" stroke-width=".714113"/><path d="m11 10.5a1.5 1.5 0 0 1 -1.5 1.5 1.5 1.5 0 0 1 -1.5-1.5 1.5 1.5 0 0 1 1.5-1.5 1.5 1.5 0 0 1 1.5 1.5z" fill="#83beec" opacity=".5"/><path d="m5 8h2v4h-2z" fill="#f8db8f" opacity=".5" stroke-width=".365149"/></svg>