<svg height="16" viewBox="0 0 30 16" width="30" xmlns="http://www.w3.org/2000/svg"><path d="m7 0 8 8v-8zm8 8h15v-7c0-.32643436-.1657-.60090993-.40625-.78320312zm0 0v8h8zm0 0h-15v7c0 .326434.16570023.60091.40625.783203zm-14.59375 7.783203c.08251183.062529.16769003.117701.26757812.152344-.09590085-.038105-.1860413-.090554-.26757812-.152344zm29.1875-15.56640612c-.082512-.06252904-.16769-.11770054-.267578-.15234375.095901.03810485.186041.09055359.267578.15234375z" fill="#f8db8f" opacity=".75"/><path d="m1 0c-.554 0-1 .446-1 1v7h15l-8-8zm14 8 14.59375-7.78320312c-.167693-.1270812-.366184-.21679688-.59375-.21679688h-14zm0 0 8 8h6c.554 0 1-.446 1-1v-7zm0 0-14.59375 7.783203c.16769333.127081.36618436.216797.59375.216797h14z" fill="#797774" opacity=".75"/></svg>