<svg height="31" viewBox="0 0 8.2020831 8.2020836" width="31" xmlns="http://www.w3.org/2000/svg"><path d="m23 0c-1.078509.00210928-2.127427.35289044-2.990234 1h-10.009766c-.5540005 0-1 .445971-1 1v6c0 .554029.4459995 1 1 1h1v1.5c0 .277.223.5.5.5h1c.277 0 .5-.223.5-.5v-1.5h7.009766c.862807.6471096 1.911725.9978907 2.990234 1 1.078509-.0021093 2.127427-.3528904 2.990234-1h.009766v1.5c0 .277.223.5.5.5h1c.277 0 .5-.223.5-.5v-1.5h2c.554001 0 1-.445971 1-1v-6c0-.554029-.445999-1-1-1h-4.009766c-.862807-.64710956-1.911725-.99789072-2.990234-1zm0 2a3 3 0 0 1 3 3 3 3 0 0 1 -3 3 3 3 0 0 1 -3-3 3 3 0 0 1 3-3zm0 9-4 4h2.785156c-.62068 2.186266-2.522121 3.765626-4.785156 3.974609v-2.974609l-4 4 4 4v-3.025391c3.363643-.227876 6.16187-2.672129 6.839844-5.974609h3.160156zm-22 1c-.55399963 0-1 .446001-1 1v13c0 .553999.44600037 1 1 1h8v2h-3.5c-.2769821 0-.5.223018-.5.5v1c0 .276982.2230179.5.5.5h9c.276982 0 .5-.223018.5-.5v-1c0-.276982-.223018-.5-.5-.5h-3.5v-2h8c.554 0 1-.446001 1-1v-4.888672c-.629639.287991-1.296756.511014-2 .640625v2.248047.5c0 .276982-.223.5-.5.5h-.484375-14.515625c-.2769996 0-.5-.223018-.5-.5v-10c0-.276982.2230004-.5.5-.5h15c.277 0 .5.223018.5.5v.515625a1.0000999 1.0000999 0 0 1 .292969-.722656l1.638672-1.638672c-.140767-.381401-.50016-.654297-.931641-.654297zm17 3.015625v.984375 1.527344c.831025-.314103 1.481456-.809156 1.996094-1.527344h-.996094a1.0000999 1.0000999 0 0 1 -1-.984375z" fill="#b3b7bc" transform="scale(.26458333)"/></svg>