<svg height="33" viewBox="0 0 8.2020832 8.7312502" width="31" xmlns="http://www.w3.org/2000/svg"><path d="m15 3c-7.7319865 0-14 6.2680139-14 14 0 7.731986 6.2680135 14 14 14 7.731986 0 14-6.268014 14-14 0-7.7319861-6.268014-14-14-14zm0 2c6.627417 0 12 5.372583 12 12s-5.372583 12-12 12c-6.6274169 0-12-5.372583-12-12s5.3725831-12 12-12zm-4.878906 5.666016a7.9999995 7.9999995 0 0 0 -1.4511721 1.458984l4.8750001 4.875-4.8789064 4.878906a7.9999995 7.9999995 0 0 0 1.4589844 1.451172l4.875-4.875 4.878906 4.878906a7.9999995 7.9999995 0 0 0 1.451172-1.458984l-4.875-4.875 4.878906-4.878906a7.9999995 7.9999995 0 0 0 -1.458984-1.451172l-4.875 4.875z" fill="#caccd0" transform="scale(.26458333)"/></svg>