<svg height="90" viewBox="0 0 120 90" width="120" xmlns="http://www.w3.org/2000/svg"><path d="m0 0h120v90h-120z" fill="#3a3a38"/><path d="m1 1h118v88h-118z" fill="#fafafa"/><path d="m88.677272 72.302699a29 29 0 0 1 -40.367852-.98276 29 29 0 0 1 -.252993-40.37902 29 29 0 0 1 40.352367-1.488511l-19.408794 21.547592z" fill="#0063b1"/><path d="m-96.514676 71.169352a29 29 0 0 1 -8.142794-21.241041 29 29 0 0 1 9.689397-20.581606l19.290796 21.653295z" fill="#309048" transform="scale(-1 1)"/><path d="m24 0h2v90h-2z" fill="#797774"/><path d="m26 0 86-.0000001-8 12.0000001h-78z" fill="#0063b1"/><g fill="#3a3a38"><path d="m8 24h12v2h-12z"/><path d="m8 31h12v2h-12z"/><path d="m8 38h12v2h-12z"/><path d="m8 46h12v2h-12z"/><path d="m8 54h12v2h-12z"/><path d="m8 62h12v2h-12z"/><path d="m8 70h12v2h-12z"/></g><path d="m4 24h2v2h-2z" fill="#fb983b"/><path d="m4 31h2v2h-2z" fill="#fb983b"/><path d="m4 38h2v2h-2z" fill="#fb983b"/><path d="m4 46h2v2h-2z" fill="#fb983b"/><path d="m4 54h2v2h-2z" fill="#fb983b"/><path d="m4 62h2v2h-2z" fill="#fb983b"/><path d="m4 70h2v2h-2z" fill="#fb983b"/><path d="m12-120h2v120h-2z" fill="#797774" transform="rotate(90)"/></svg>