<svg height="90" viewBox="0 0 120 90" width="120" xmlns="http://www.w3.org/2000/svg"><path d="m0 0h120v90h-120z" fill="#3a3a38"/><path d="m1 1h118v88h-118z" fill="#fafafa"/><path d="m96.677272 72.302699a29 29 0 0 1 -40.367852-.98276 29 29 0 0 1 -.252993-40.37902 29 29 0 0 1 40.352367-1.488511l-19.408794 21.547592z" fill="#0063b1"/><path d="m-104.51468 71.169352a29 29 0 0 1 -8.14279-21.241041 29 29 0 0 1 9.6894-20.581606l19.290793 21.653295z" fill="#309048" transform="scale(-1 1)"/><path d="m0 0h12v90h-12z" fill="#3a3a38"/><path d="m0 0 112-.0000001-8 12.0000001h-103.99999983z" fill="#0063b1"/><g fill="#3a3a38"><path d="m26 26h22v2h-22z"/><path d="m26 33h18v2h-18z"/><path d="m26 40h15v2h-15z"/><path d="m26 48h13v2h-13z"/><path d="m26 56h15v2h-15z"/><path d="m26 64h18v2h-18z"/><path d="m26 72h20v2h-20z"/></g><path d="m22 26h2v2h-2z" fill="#fb983b"/><path d="m22 33h2v2h-2z" fill="#fb983b"/><path d="m22 40h2v2h-2z" fill="#fb983b"/><path d="m22 48h2v2h-2z" fill="#fb983b"/><path d="m22 56h2v2h-2z" fill="#fb983b"/><path d="m22 64h2v2h-2z" fill="#fb983b"/><path d="m22 72h2v2h-2z" fill="#fb983b"/></svg>