<svg height="32" viewBox="0 0 32 32" width="32" xmlns="http://www.w3.org/2000/svg"><g transform="matrix(.125 0 0 .125 -3.5 -3)"><path d="m76 24v8 40h-48v24h48v48h24v-48h48v-24h-48v-48zm112 120c-21.99663 0-40 18.00337-40 40s18.00337 40 40 40 40-18.00337 40-40v-8h-32v-32z" fill="#fafafa"/><path d="m84 24v56h-56v8h56v56h8v-56h56v-8h-56v-56zm104 128c-17.67311 0-32 14.32689-32 32s14.32689 32 32 32 32-14.32689 32-32h-8-24v-24zm-8 9.39062v22.60938 8h30.59375c-3.38614 9.57748-12.43532 15.98575-22.59375 16-13.25483 0-24-10.74517-24-24 .008-10.16417 6.41712-19.22132 16-22.60938z"/></g></svg>