<svg height="32" viewBox="0 0 32 32" width="32" xmlns="http://www.w3.org/2000/svg"><g stroke-width=".125"><path d="m18.5 1c-1.368868 0-2.5 1.1311327-2.5 2.5.02772.3712671.256743.6698059.392578.9433594l-7.4843749 15.8046876c-1.0517034.295068-1.9082031 1.11288-1.9082031 2.251953 0 1.368867 1.1311327 2.5 2.5 2.5 1.368867 0 2.5-1.131133 2.5-2.5v-.002c-.000512-.353448-.250929-.62443-.392578-.941359l7.484375-15.8046879c1.051703-.295068 1.908203-1.1128806 1.908203-2.2519531 0-1.3688673-1.131133-2.5-2.5-2.5zm-14.5 3h5v9h-5zm20 7 4 4-7 7-4-4z" fill="#fff"/><path d="m18.5 2a1.5 1.5 0 0 0 -1.5 1.5 1.5 1.5 0 0 0 .443359 1.0625l-7.7890621 16.445312a1.5 1.5 0 0 0 -.1542969-.007812 1.5 1.5 0 0 0 -1.5 1.5 1.5 1.5 0 0 0 1.5 1.5 1.5 1.5 0 0 0 1.5-1.5 1.5 1.5 0 0 0 -.443359-1.0625l7.789062-16.4453125a1.5 1.5 0 0 0 .154297.0078125 1.5 1.5 0 0 0 1.5-1.5 1.5 1.5 0 0 0 -1.5-1.5zm-15.5 1v11h7v-11zm1 1h5v9h-5zm20 6-8 8 5 5 8-8zm0 1.5 3.5 3.5-6.5 6.5-3.5-3.5z"/></g></svg>