<svg height="8" viewBox="0 0 16.933333 2.1166667" width="64" xmlns="http://www.w3.org/2000/svg"><g transform="translate(0 -294.88332)"><path d="m0 294.88331h16.933333v2.11668h-16.933333z" fill="#1e8bcd"/><g transform="matrix(0 -1 1 0 -280.06661 288.53332)"><path d="m-6.879167 296.20624h.264583v.264578h-.264583z" fill="#fff"/><path d="m-7.14375 293.82498h.264583v.264583h-.264583z" fill="#808080"/><path d="m-7.408333 294.08957h.264583v.264583h-.264583z" fill="#808080"/><path d="m-7.672917 294.35416h.264583v.264583h-.264583z" fill="#808080"/><path d="m-7.9375 294.61874h.264583v.264583h-.264583z" fill="#808080"/><path d="m-7.672917 294.88333h.264583v.264583h-.264583z" fill="#808080"/><path d="m-7.408333 294.61874h.264583v.264583h-.264583z" fill="#808080"/><path d="m-7.14375 294.35416h.264583v.264583h-.264583z" fill="#808080"/><path d="m-7.408333 295.14792h.264583v.264583h-.264583z" fill="#808080"/><path d="m-7.14375 294.88333h.264583v.264583h-.264583z" fill="#808080"/><path d="m-7.14375 295.41248h.264583v.264583h-.264583z" fill="#808080"/><path d="m-7.672917 294.61871h.264583v.264583h-.264583z" fill="#808080"/><path d="m-7.408333 294.8833h.264583v.264583h-.264583z" fill="#808080"/><path d="m-7.14375 295.14786h.264583v.264583h-.264583z" fill="#808080"/><path d="m-7.408333 294.35416h.264583v.264583h-.264583z" fill="#808080"/><path d="m-7.14375 294.61874h.264583v.264583h-.264583z" fill="#808080"/><path d="m-7.14375 294.08957h.264583v.264583h-.264583z" fill="#808080"/><path d="m-6.879167 293.29581h.264583v2.910426h-.264583z" fill="#fff"/><path d="m-7.14375 293.56039h.264583v.264583h-.264583z" fill="#808080"/><path d="m-7.408333 293.82498h.264583v.264583h-.264583z" fill="#808080"/><path d="m-7.672917 294.08957h.264583v.264583h-.264583z" fill="#808080"/><path d="m-7.9375 294.35416h.264583v.264583h-.264583z" fill="#808080"/><path d="m-8.202084 294.61874h.264583v.264583h-.264583z" fill="#808080"/><path d="m-7.9375 294.88333h.264583v.264583h-.264583z" fill="#808080"/><path d="m-7.672917 295.14789h.264583v.264583h-.264583z" fill="#808080"/><path d="m-7.408333 295.41248h.264583v.264583h-.264583z" fill="#808080"/><path d="m-7.14375 295.67706h.264583v.264583h-.264583z" fill="#808080"/><path d="m-7.14375 295.94165h.264583v.264583h-.264583z"/><path d="m-7.408332 295.67703h.264583v.264578h-.264583z"/><path d="m-7.672916 295.41245h.264583v.264583h-.264583z"/><path d="m-7.937499 295.14789h.264583v.264578h-.264583z"/><path d="m-8.202084 294.8833h.264583v.264583h-.264583z"/></g><path d="m-4.7625 296.20624h.264583v.264578h-.264583z" fill="#fff" transform="matrix(0 -1 -1 0 305.466655 290.649985)"/><path d="m-5.027083 293.82498h.264583v.264583h-.264583z" fill="#c0c0c0" transform="matrix(0 -1 -1 0 305.466655 290.649985)"/><path d="m-5.291667 294.08957h.264583v.264583h-.264583z" fill="#c0c0c0" transform="matrix(0 -1 -1 0 305.466655 290.649985)"/><path d="m-5.55625 294.35416h.264583v.264583h-.264583z" fill="#c0c0c0" transform="matrix(0 -1 -1 0 305.466655 290.649985)"/><path d="m-5.820833 294.61874h.264583v.264583h-.264583z" fill="#c0c0c0" transform="matrix(0 -1 -1 0 305.466655 290.649985)"/><path d="m-5.55625 294.88333h.264583v.264583h-.264583z" fill="#c0c0c0" transform="matrix(0 -1 -1 0 305.466655 290.649985)"/><path d="m-5.291667 294.61874h.264583v.264583h-.264583z" fill="#c0c0c0" transform="matrix(0 -1 -1 0 305.466655 290.649985)"/><path d="m-5.027083 294.35416h.264583v.264583h-.264583z" fill="#c0c0c0" transform="matrix(0 -1 -1 0 305.466655 290.649985)"/><path d="m-5.291667 295.14792h.264583v.264583h-.264583z" fill="#c0c0c0" transform="matrix(0 -1 -1 0 305.466655 290.649985)"/><path d="m-5.027083 294.88333h.264583v.264583h-.264583z" fill="#c0c0c0" transform="matrix(0 -1 -1 0 305.466655 290.649985)"/><path d="m-5.027083 295.41248h.264583v.264583h-.264583z" fill="#c0c0c0" transform="matrix(0 -1 -1 0 305.466655 290.649985)"/><path d="m-5.55625 294.61871h.264583v.264583h-.264583z" fill="#808080" transform="matrix(0 -1 -1 0 305.466655 290.649985)"/><path d="m-5.291667 294.8833h.264583v.264583h-.264583z" fill="#808080" transform="matrix(0 -1 -1 0 305.466655 290.649985)"/><path d="m-5.027083 295.14786h.264583v.264583h-.264583z" fill="#808080" transform="matrix(0 -1 -1 0 305.466655 290.649985)"/><path d="m-5.291667 294.35416h.264583v.264583h-.264583z" fill="#808080" transform="matrix(0 -1 -1 0 305.466655 290.649985)"/><path d="m-5.027083 294.61874h.264583v.264583h-.264583z" fill="#808080" transform="matrix(0 -1 -1 0 305.466655 290.649985)"/><path d="m-5.027083 294.08957h.264583v.264583h-.264583z" fill="#808080" transform="matrix(0 -1 -1 0 305.466655 290.649985)"/><path d="m-4.7625 293.29581h.264583v2.910382h-.264583z" fill="#fff" transform="matrix(0 -1 -1 0 305.466655 290.649985)"/><path d="m-5.027083 293.56039h.264583v.264583h-.264583z" transform="matrix(0 -1 -1 0 305.466655 290.649985)"/><path d="m-5.291667 293.82498h.264583v.264583h-.264583z" transform="matrix(0 -1 -1 0 305.466655 290.649985)"/><path d="m-5.55625 294.08957h.264583v.264583h-.264583z" transform="matrix(0 -1 -1 0 305.466655 290.649985)"/><path d="m-5.820833 294.35416h.264583v.264583h-.264583z" transform="matrix(0 -1 -1 0 305.466655 290.649985)"/><path d="m-6.085417 294.61874h.264583v.264583h-.264583z" transform="matrix(0 -1 -1 0 305.466655 290.649985)"/><path d="m-5.820833 294.88333h.264583v.264583h-.264583z" fill="#808080" transform="matrix(0 -1 -1 0 305.466655 290.649985)"/><path d="m-5.55625 295.14789h.264583v.264583h-.264583z" fill="#808080" transform="matrix(0 -1 -1 0 305.466655 290.649985)"/><path d="m-5.291667 295.41248h.264583v.264583h-.264583z" fill="#808080" transform="matrix(0 -1 -1 0 305.466655 290.649985)"/><path d="m-5.034782 295.67706h.272282v.264583h-.272282z" fill="#808080" transform="matrix(0 -1 -1 0 305.466655 290.649985)"/><path d="m-5.027083 295.94165h.264583v.264583h-.264583z" fill="#808080" transform="matrix(0 -1 -1 0 305.466655 290.649985)"/><path d="m-5.291667 295.67706h.264583v.264578h-.264583z" fill="#808080" transform="matrix(0 -1 -1 0 305.466655 290.649985)"/><path d="m-5.55625 295.41248h.264583v.264583h-.264583z" fill="#808080" transform="matrix(0 -1 -1 0 305.466655 290.649985)"/><path d="m-5.820833 295.14792h.264583v.264578h-.264583z" fill="#808080" transform="matrix(0 -1 -1 0 305.466655 290.649985)"/><path d="m-6.085417 294.88333h.264583v.264583h-.264583z" fill="#808080" transform="matrix(0 -1 -1 0 305.466655 290.649985)"/><g transform="matrix(0 1 -1 0 301.233309 292.766651)"><path d="m3.704169 293.29581h.264583v2.910417h-.264583z"/><g fill="#808080"><path d="m3.439583 293.82498h.264583v.264583h-.264583z"/><path d="m3.175 294.08957h.264583v.264583h-.264583z"/><path d="m2.910417 294.35416h.264583v.264583h-.264583z"/><path d="m2.645833 294.61874h.264583v.264583h-.264583z"/><path d="m2.910417 294.88333h.264583v.264583h-.264583z"/><path d="m3.175 294.61874h.264583v.264583h-.264583z"/><path d="m3.439583 294.35416h.264583v.264583h-.264583z"/><path d="m3.175 295.14792h.264583v.264583h-.264583z"/><path d="m3.439583 294.88333h.264583v.264583h-.264583z"/><path d="m3.439583 295.41248h.264583v.264583h-.264583z"/><path d="m2.910417 294.61871h.264583v.264583h-.264583z"/><path d="m3.175 294.8833h.264583v.264583h-.264583z"/><path d="m3.439583 295.14786h.264583v.264583h-.264583z"/><path d="m3.175 294.35416h.264583v.264583h-.264583z"/><path d="m3.439583 294.61874h.264583v.264583h-.264583z"/><path d="m3.439583 294.08957h.264583v.264583h-.264583z"/></g><path d="m3.704169 296.20624h.264583v.264583h-.264583z" fill="#fff"/><path d="m3.439583 293.56039h.264583v.264583h-.264583z" fill="#fff"/><path d="m3.175 293.82498h.264583v.264583h-.264583z" fill="#fff"/><path d="m2.910417 294.08957h.264583v.264583h-.264583z" fill="#fff"/><path d="m2.645833 294.35416h.264583v.264583h-.264583z" fill="#fff"/><path d="m2.38125 294.61874h.264583v.264583h-.264583z" fill="#fff"/><path d="m2.645835 294.8833h.264581v.26461h-.264581z" fill="#808080"/><path d="m2.910419 295.14789h.264581v.264583h-.264581z" fill="#808080"/><path d="m3.175002 295.41248h.264581v.264588h-.264581z" fill="#808080"/><path d="m3.439585 295.67706h.264581v.264592h-.264581z" fill="#808080"/><path d="m3.439583 295.94165h.264583v.264583h-.264583z" fill="#fff"/><path d="m3.175004 295.67706h.264583v.264583h-.264583z" fill="#fff"/><path d="m2.910419 295.41248h.264583v.264583h-.264583z" fill="#fff"/><path d="m2.645838 295.14789h.264583v.264583h-.264583z" fill="#fff"/><path d="m2.381252 294.8833h.264583v.264583h-.264583z" fill="#fff"/></g><g transform="matrix(0 1 1 0 -292.76665 294.88332)"><path d="m1.5875 293.56039h.264583v2.910417h-.264583z"/><g fill="#c0c0c0"><path d="m1.322917 293.82498h.264583v.264583h-.264583z"/><path d="m1.058333 294.08957h.264583v.264583h-.264583z"/><path d="m.79375 294.35416h.264583v.264583h-.264583z"/><path d="m.529167 294.61874h.264583v.264583h-.264583z"/><path d="m.79375 294.88333h.264583v.264583h-.264583z"/><path d="m1.058333 294.61874h.264583v.264583h-.264583z"/><path d="m1.322917 294.35416h.264583v.264583h-.264583z"/><path d="m1.058333 295.14792h.264583v.264583h-.264583z"/><path d="m1.322917 294.88333h.264583v.264583h-.264583z"/><path d="m1.322917 295.41248h.264583v.264583h-.264583z"/></g><path d="m.79375 294.61871h.264583v.264583h-.264583z" fill="#808080"/><path d="m1.058333 294.8833h.264583v.264583h-.264583z" fill="#808080"/><path d="m1.322917 295.14786h.264583v.264583h-.264583z" fill="#808080"/><path d="m1.058334 294.35416h.264583v.264583h-.264583z" fill="#808080"/><path d="m1.322917 294.61874h.264583v.264583h-.264583z" fill="#808080"/><path d="m1.322917 294.08957h.264583v.264583h-.264583z" fill="#808080"/><path d="m1.5875 293.29581h.264583v.264583h-.264583z" fill="#fff"/><path d="m1.322917 293.56039h.264583v.264583h-.264583z" fill="#fff"/><path d="m1.058333 293.82498h.264583v.264583h-.264583z" fill="#fff"/><path d="m.79375 294.08957h.264583v.264583h-.264583z" fill="#fff"/><path d="m.529167 294.35416h.264583v.264583h-.264583z" fill="#fff"/><path d="m.264583 294.61874h.264583v.264583h-.264583z" fill="#fff"/><path d="m.529167 294.88333h.264583v.264602h-.264583z" fill="#808080"/><path d="m.79375 295.14789h.264583v.264576h-.264583z" fill="#808080"/><path d="m1.058333 295.41248h.264583v.26458h-.264583z" fill="#808080"/><path d="m1.322917 295.67706h.264583v.264584h-.264583z" fill="#808080"/><path d="m1.322917 295.94165h.264583v.264583h-.264583z" fill="#fff"/><path d="m1.058333 295.67706h.264583v.264583h-.264583z" fill="#fff"/><path d="m.79375 295.41248h.264583v.264583h-.264583z" fill="#fff"/><path d="m.529167 295.14789h.264583v.264583h-.264583z" fill="#fff"/><path d="m.264583 294.88333h.264583v.264583h-.264583z" fill="#fff"/><path d="m.264583 294.88333h.264583v.264583h-.264583z" fill="#fff"/></g></g></svg>