<?xml version="1.0" encoding="utf-8"?>
<!-- Generator: Adobe Illustrator 12.0.1, SVG Export Plug-In . SVG Version: 6.00 Build 51448)  -->
<!DOCTYPE svg PUBLIC "-//W3C//DTD SVG 1.1//EN" "http://www.w3.org/Graphics/SVG/1.1/DTD/svg11.dtd" [
	<!ENTITY ns_svg "http://www.w3.org/2000/svg">
	<!ENTITY ns_xlink "http://www.w3.org/1999/xlink">
]>
<svg  version="1.1" id="Layer_1" xmlns="&ns_svg;" xmlns:xlink="&ns_xlink;" width="473" height="240" viewBox="0 0 473 240"
	 overflow="visible" enable-background="new 0 0 473 240" xml:space="preserve">
<rect x="79" y="6" fill="none" width="253" height="197"/>
<g>
	
		<linearGradient id="XMLID_3_" gradientUnits="userSpaceOnUse" x1="181.3726" y1="-339.1675" x2="269.8191" y2="-226.9084" gradientTransform="matrix(0.925 -0.3799 0.3799 0.925 155.0617 510.2965)">
		<stop  offset="0" style="stop-color:#FFC00E"/>
		<stop  offset="1" style="stop-color:#F06422"/>
	</linearGradient>
	<path fill="url(#XMLID_3_)" d="M9.88,107.418c190.45,0,211.258,7.193,256.74,15.941c57.578,12.666,102.706,47.759,102.706,47.759
		l19.584-17.1l-2.057,80.462l-83.293-5.93l22.414-19.572C236.899,142.32,9.88,107.418,9.88,107.418L9.88,107.418"/>
	<linearGradient id="XMLID_4_" gradientUnits="userSpaceOnUse" x1="205.4912" y1="97.4697" x2="401.4578" y2="55.8604">
		<stop  offset="0" style="stop-color:#FFC00E"/>
		<stop  offset="1" style="stop-color:#F06422"/>
	</linearGradient>
	<path fill="url(#XMLID_4_)" d="M9.256,107.388c0,0,200.252,13.237,377.537-76.852L360.282,4.022l107.782,7.007l-11.573,93.729
		l-27.316-26.173C433.32,76.699,251.229,159.436,9.256,107.388z"/>
</g>
</svg>
