<?xml version="1.0" encoding="utf-8"?>
<!-- Generator: Adobe Illustrator 12.0.1, SVG Export Plug-In . SVG Version: 6.00 Build 51448)  -->
<!DOCTYPE svg PUBLIC "-//W3C//DTD SVG 1.1//EN" "http://www.w3.org/Graphics/SVG/1.1/DTD/svg11.dtd" [
	<!ENTITY ns_svg "http://www.w3.org/2000/svg">
	<!ENTITY ns_xlink "http://www.w3.org/1999/xlink">
]>
<svg  version="1.1" id="Layer_1" xmlns="&ns_svg;" xmlns:xlink="&ns_xlink;" width="389.98" height="122.993"
	 viewBox="0 0 389.98 122.993" overflow="visible" enable-background="new 0 0 389.98 122.993" xml:space="preserve">
<g>
	<g>
		<g>
			<path fill="#355787" d="M9.246,62.949l59.841,52.782c0,0-0.046-17.736-0.052-19.697c2.182,0,118.023,0,118.023,0
				s-12.272-13.314-13.354-14.486c0.932-1.365,15.525-22.735,15.525-22.735s-26.972-13.101-30.036-14.589
				c2.683-1.83,21.496-14.667,21.496-14.667s-109.659,0-111.827,0c-0.005-1.954-0.047-19.704-0.047-19.704L9.246,62.949z"/>
			<g>
				<path fill="#355787" d="M69.917,7.384l-3.682,3.282L9.441,61.29l-1.867,1.665l1.876,1.654l57.054,50.322l3.698,3.264
					l-0.013-4.932l-0.043-16.119h114.381h5.061l-3.43-3.723l-11.042-11.977L189.419,60.5l1.449-2.123l-2.312-1.123l-27.16-13.192
					l16.949-11.565l5.936-4.05h-7.186H69.968l-0.039-16.13L69.917,7.384L69.917,7.384z M10.917,62.946l56.794-50.624l0.044,18.343
					h109.34l0,0l0,0l-20.108,13.721l1.995,0.969l0,0l0.304,0.147l0,0l28.301,13.747l0,0l0,0l-15.297,22.403l12.237,13.273l0,0l0,0
					H67.922l0.006,2.219l0,0l0,0l0,0l0.043,16.125l0,0l0,0L10.917,62.946L10.917,62.946L10.917,62.946z"/>
			</g>
		</g>
		<g>
			<path fill="#F2A934" d="M322.941,29.308c-2.171,0-116.298,0-116.298,0l-17.54,13.763c0,0,24.958,10.227,27.197,11.145
				c-1.317,2.055-16.764,26.166-16.764,26.166l12.647,15.402c0,0,108.405,0,110.585,0c-0.005,1.961-0.053,19.697-0.053,19.697
				l59.844-52.782L322.992,9.603C322.992,9.603,322.946,27.354,322.941,29.308z"/>
			<g>
				<path fill="#886254" d="M321.89,7.135l-0.013,4.931l-0.042,16.133H207.026h-0.766l-0.604,0.473l-15.739,12.351l-2.998,2.352
					l3.526,1.445l24.202,9.918l-15.611,24.367l-0.869,1.357l1.023,1.246l11.802,14.373l0.666,0.813h1.049h108.949l-0.044,16.119
					l-0.013,4.934l3.698-3.264l57.057-50.324l1.876-1.654l-1.867-1.665L325.57,10.416L321.89,7.135L321.89,7.135z M191.288,42.768
					l15.739-12.351h117.021l0.047-18.345l56.794,50.624l0,0l0,0l-57.058,50.325l0,0l0,0l0.044-16.127l0,0l0,0l0,0l0.007-2.219
					H212.708l-11.803-14.373l0,0l0,0l15.83-24.709l0,0l0.02-0.031l0,0l1.197-1.867L191.288,42.768L191.288,42.768L191.288,42.768z"
					/>
			</g>
		</g>
	</g>
	<g>
		<linearGradient id="XMLID_7_" gradientUnits="userSpaceOnUse" x1="10.917" y1="62.7949" x2="187.5884" y2="62.7949">
			<stop  offset="0" style="stop-color:#A1C1EA"/>
			<stop  offset="1" style="stop-color:#6295D6"/>
		</linearGradient>
		<polygon fill="url(#XMLID_7_)" points="172.291,81.649 187.588,59.249 156.988,44.385 177.096,30.665 67.756,30.665 
			67.712,12.321 10.917,62.945 67.972,113.269 67.923,94.925 184.528,94.925 		"/>
	</g>
	<g>
		<linearGradient id="XMLID_8_" gradientUnits="userSpaceOnUse" x1="191.2876" y1="62.5449" x2="380.8887" y2="62.5449">
			<stop  offset="0" style="stop-color:#FEC260"/>
			<stop  offset="1" style="stop-color:#F0A32A"/>
		</linearGradient>
		<polygon fill="url(#XMLID_8_)" points="380.889,62.695 324.095,12.071 324.048,30.417 207.027,30.417 191.288,42.767 
			217.952,53.694 200.906,80.3 212.708,94.675 323.882,94.675 323.832,113.019 		"/>
	</g>
	<polygon fill="#D2EFF9" points="64.958,33.646 64.958,18.563 15.345,62.715 64.958,106.866 64.958,92.22 182.035,92.22 
		184.528,94.925 67.923,94.925 67.972,113.269 10.917,62.945 67.712,12.321 67.756,30.665 177.096,30.665 173.043,33.433 	"/>
	<polygon fill="#FFF38E" points="327.021,33.646 327.021,18.563 376.634,62.715 327.021,106.866 327.021,92.22 210.692,92.22 
		212.88,94.925 324.056,94.925 324.007,113.269 381.063,62.945 324.269,12.321 324.223,30.665 206.733,30.665 203.183,33.433 	"/>
	<path opacity="0.15" fill="#FFFFFF" d="M172.291,81.649l5.515-8.076c-25.979,9.711-56.904,16.816-93.63,21.352h100.352
		L172.291,81.649z M64.958,97.019l2.976,1.811l-0.005-2.104C66.938,96.824,65.955,96.924,64.958,97.019z"/>
	<g>
		<defs>
			<polygon id="XMLID_3_" points="380.889,62.695 324.095,12.071 324.048,30.417 207.027,30.417 191.288,42.767 217.952,53.694 
				200.906,80.3 212.708,94.675 323.882,94.675 323.832,113.019 			"/>
		</defs>
		<clipPath id="XMLID_9_">
			<use xlink:href="#XMLID_3_" />
		</clipPath>
		<defs>
			<filter id="Adobe_OpacityMaskFilter" filterUnits="userSpaceOnUse" x="187.717" y="6.593" width="215.709" height="136.353">
				<feColorMatrix  type="matrix" values="1 0 0 0 0  0 1 0 0 0  0 0 1 0 0  0 0 0 1 0"/>
			</filter>
		</defs>
		<mask maskUnits="userSpaceOnUse" x="187.717" y="6.593" width="215.709" height="136.353" id="XMLID_10_">
			<g clip-path="url(#XMLID_9_)" filter="url(#Adobe_OpacityMaskFilter)">
				<linearGradient id="XMLID_11_" gradientUnits="userSpaceOnUse" x1="244.6465" y1="56.3066" x2="329.2275" y2="131.0522">
					<stop  offset="0" style="stop-color:#FFFFFF"/>
					<stop  offset="1" style="stop-color:#000000"/>
				</linearGradient>
				<rect x="148.758" y="-15.97" opacity="0.2" fill="url(#XMLID_11_)" width="214.193" height="164.364"/>
			</g>
		</mask>
		<path clip-path="url(#XMLID_9_)" mask="url(#XMLID_10_)" fill="#FFFFFF" d="M187.717,86.874c0,0,123.219-9.297,163.256-80.281
			c17.484,17.485,1.309,48.082,1.309,48.082l51.145,14.864l-90.793,73.407l-56.391-20.984L187.717,86.874z"/>
	</g>
</g>
</svg>
