<svg height="58" viewBox="0 0 48 58" width="48" xmlns="http://www.w3.org/2000/svg"><path d="m38 6h-26v36h26z" fill="#fafafa"/><path d="m11.5 5c-.277 0-.5.223-.5.5v37c0 .277.223.5.5.5h27c.277 0 .5-.223.5-.5v-1.5-18-10-6-1.5c0 .277-.223-.5-.5-.5zm.5 1h26v1.5 5 11 17 1.5h-26z" fill="#3a3a38"/><path d="m13 6h1v36h-1z" fill="#3a3a38"/><g transform="translate(25 5)"><path d="m14 14v8h1.5c.277 0 .5-.223.5-.5v-7c0-.277-.223-.5-.5-.5z" fill="#309048"/><path d="m14 5v8h1.5c.237967 0 .5-.223.5-.5v-7c0-.277-.223-.5-.5-.5z" fill="#0063b1"/><path d="m14 23v8h1.5c.277 0 .5-.223.5-.5v-7c0-.277-.223-.5-.5-.5z" fill="#d42314"/><path d="m14 6v6h1v-6z" fill="#83beec"/><path d="m14 15v6h1v-6z" fill="#a1ddaa"/><path d="m14 24v6h1v-6z" fill="#ff9198"/></g><path d="m8 29.998047a1.0022045 1.0022045 0 0 0 -.640625 1.771484l2.6386719 2.199219v.134766l-7.2285157 7.710937a1.0022045 1.0022045 0 0 0 .021484 1.394531l7 7a1.0022045 1.0022045 0 0 0 1.4179688 0l7.207032-7.207031h.667968l2.207032 2.207031a1.0022045 1.0022045 0 0 0 1.710937-.708984v-13.5a1.0022045 1.0022045 0 0 0 -1.001953-1.001953z" fill="#922e9b"/><path d="m10.5 49.5-7-7 7.5-8v-1l-3-2.5h14v13.5l-2.5-2.5h-1.5z" fill="#d492d8"/></svg>