<svg height="16" viewBox="0 0 16 16" width="16" xmlns="http://www.w3.org/2000/svg"><path d="m0 0h15.999998v15.999993h-15.999998z" fill="#3a3a38"/><path d="m1 3h14.000001v12h-14.000001z" fill="#fafafa"/><path d="m1 1h14v1h-14z" fill="#797774"/><g fill="#1e8bcd"><rect height="1" ry=".465929" width="5" x="2" y="4"/><rect height="6" ry=".5" width="1" x="6" y="4"/></g><g fill="#a846b2" transform="translate(4.5 4)"><rect height="1" ry=".363716" width="3" x="5.5" y="2"/><rect height="1" ry=".409144" width="7" x="3.5" y="4"/><path d="m5.5 6c-.554 0-1 .446-1 1v2c0 .554.446 1 1 1h3c.554 0 1-.446 1-1v-2c0-.554-.446-1-1-1zm0 1h3v2h-3z"/></g></svg>