<svg viewBox="0 0 16 16" xmlns="http://www.w3.org/2000/svg">
/&amp;amp;amp;amp;amp;gt;<path d="m8 0v8.0449219c.8375759-1.1557897 1.6005536-2.1260581 2.587891-3.0449219h-.587891v-5zm-8 1v2h5c0 3.5-1 6-5 7v2c6-1 7-3.9999999 7-9.5429688v-1.4570312z" fill="#3a3a38"/><path d="m15.271484 2.9999998c-.177888.00524-.37069.0968934-.521484.1914062-4.136759 2.5854743-4.75 3.8085938-7.25 7.308594-.210813.253601-.2831414.594785-.1933594.912109.124699.438291.059151.585907.7304688.896485.67132.310578 1.0301763.423588 2.3027346.361328.225038-.01109.439748-.0978.609375-.246094 3.574573-3.1153381 2.912893-2.4303744 4.880859-5.3496094.11091-.1651661.17007-.3596438.169922-.5585938v-2.5c-.000147-.563767-.16498-1.0317531-.728516-1.015625zm-.271484 1.2558594v2.2597656.00195c-1.983507 2.9424767-1.124742 2.0302808-4.707031 5.1523442a1.0001 1.0001 0 0 1 -.002.002c-1.2044025.05893-1.2020193.02089-1.8339848-.271484-.089002-.04118-.1031351-.0517-.1328124-.06836.024632.08175.031103.109372-.013672.03906-.046969-.07375-.046551-.07287.013672-.03906-.013941-.04627-.026624-.08786-.056641-.193359h.00195a1.0001 1.0001 0 0 0 .044922-.05664c2.4324442-3.405396 3.0076232-4.4780412 6.6855972-6.8262168z" fill="#3a3a38"/><path d="m7.2304688 11.009766c-.2611936.00974-.5143343.028897-.7304688.046875-2.056692.4941-1.7371332 1.337014-3.28125 3.322265-.5164461.665161-.060862 1.627607.78125 1.628906 2.7115807-.173351 3.7401211.528889 5.578125-1.234374.07164-.07132.1322065-.152947.1796875-.242188.1631052-.351692.2618925-.682612.2597655-1.011719-.0037-.568259-.23225-1.098535-.4023436-1.486328-.4416095-.580756-.8799889-.870494-1.6035156-1.021484-.2501619-.0123-.5200567-.01169-.78125-.002zm.013672.978515c.2108343.0016.4312475.02151.6660156.05274.6457798.226088 1.0391393.662816 1.0839844 1.507812.0004787.07407-.016144.177417-.048828.296875l-3.09375-1.423828c.4524271-.326142.8961695-.4373 1.3925781-.433594zm-2.0585937 1.226563 3.0214843 1.390625c-.4027608.269951-.7300308.357145-1.1699218.392578-.9042073-.0092-2.4189477-.0088-3.0351563-.0098.6037334-.776211.9275974-1.337725 1.1835938-1.773437z" fill="#0063b1"/><path d="m5.1855469 13.214844c-.2559964.435712-.5798604.997226-1.1835938 1.773437.6162086.000977 2.130949.000587 3.0351563.0098.439891-.03543.7671611-.122627 1.1699218-.392578z" fill="#83beec"/><g fill="#fafafa"><path d="m7.2441406 11.988281c-.4902613-.0037-.9303436.122539-1.3769531.439453l3.078125 1.417969c.032685-.119484.049307-.222806.048828-.296875-.044845-.844996-.4382045-1.281724-1.0839843-1.507812-.2347681-.031228-.4551813-.051161-.6660156-.052735z"/><path d="m15 4.2558588c-3.677974 2.3481756-4.253153 3.4208206-6.6855469 6.8261722a1.0001 1.0001 0 0 1 -.044922.05664h-.00195c.083056.291924.1130843.342522.042969.232422-.070116-.1101-.1231235-.09544.1464843.0293.6319655.292371.6295827.330409 1.8339846.271484a1.0001 1.0001 0 0 1 .002-.002c3.582239-3.1220186 2.723474-2.2098228 4.706981-5.1522995v-.00195z"/></g></svg>