<svg viewBox="0 0 24 24" xmlns="http://www.w3.org/2000/svg"><path d="m12.945312 4.9042969c-1.099874 0-2.098729.1748196-2.9941401.5273437-.8883609.3525241-1.6486597.8459254-2.2832031 1.4804688-.6274931.6345435-1.1107957 1.3940803-1.4492188 2.2753906-.3384231.87426-.5078125 1.836198-.5078125 2.886719 0 1.043472.1767728 2.005409.5292969 2.886719.3595746.874259.8677426 1.631843 1.5234375 2.273437.6556949.634543 1.4408594 1.132613 2.3574221 1.492187.923613.352525 1.952762.529297 3.08789.529297.895411 0 1.742359-.116943 2.539063-.349609.796705-.239717 1.546904-.623558 2.251953-1.152344v-5.753906h-5v1.564453c0 .141009.049728.260665.148438.359375.105757.09871.242897.148438.412109.148438h1.474609c-.014492.058384-.035156.114743-.035156.177734v2.478516c-.203818.07688-.408993.144222-.617188.199218-.366624.091654-.782715.138672-1.248046.138672-.690947 0-1.318774-.10956-1.882813-.328125-.564039-.225615-1.045388-.549627-1.4472655-.972656-.3948271-.430079-.7033101-.955729-.921875-1.576172-.2185649-.620442-.3261719-1.325579-.3261719-2.115234 0-.726199.0975084-1.386275.2949219-1.978516.204464-.5992909.4935119-1.1055058.8671875-1.5214842.373675-.4159785.824729-.7372752 1.353516-.9628907.528786-.2326659 1.124364-.3496093 1.787109-.3496093.394827-.0000001.743704.0248657 1.046875.0742187.303171.0493534.579405.1192812.826172.2109375.253817.0846058.490419.1867824.708984.3066406.218565.1128077.435732.2371346.654297.3710938.232666.1410097.44907.1907404.646485.1484375.204463-.0493533.36647-.1736803.486328-.3710938l.792968-1.2480469c-.282019-.2749689-.598648-.5243846-.951172-.75-.345474-.2256155-.731267-.4198701-1.154296-.5820312s-.881466-.2892034-1.375-.3808594c-.493534-.0916564-1.024614-.1367187-1.595704-.1367187z" fill="#3a3a38"/></svg>