<svg height="12" viewBox="0 0 12 12" width="12" xmlns="http://www.w3.org/2000/svg">/&gt;<path d="m11 0v11h-10v1h10 1v-12z" fill="#3a3a38"/><path d="m0 0v1 11h1v-11h10v-1z" fill="#fafafa"/><path d="m6 9q-.4454148 0-.8165938-.1217635-.3668124-.1217634-.6331878-.3442967-.2620088-.2267319-.4061137-.5458362-.1441047-.3191043-.1441047-.7095872 0-.5038489.2358078-.8649405.235808-.3610916.7598254-.5374388-.4061135-.176347-.606987-.5038487-.2008733-.3317006-.2008733-.7893633 0-.3358992.1310045-.6256124.1353711-.2897129.3755457-.4996501.2401748-.2141357.5720525-.3358991.3362445-.1217635.7336244-.1217635.3973799 0 .7292576.1217635.3362446.1217634.5764193.3358991.2401746.2099372.371179.4996501.1353711.2897132.1353711.6256124 0 .4576627-.2008732.7893633-.2008735.3275017-.6113537.5038487.5240174.1763472.7598253.5374388.2401746.3610916.2401746.8649405 0 .3904829-.1441047.7095872-.1441048.3191043-.4104805.5458362-.2620086.2225333-.6331877.3442967-.3668122.1217635-.8122271.1217635zm0-.8271518q.2183406 0 .3799127-.06718.1615721-.071379.2663755-.193142.1048035-.1217636.1572053-.2855144.052401-.1679496.052401-.3652904 0-.4576627-.2052401-.6969909-.2008734-.243527-.6506551-.243527-.4454148 0-.6506551.243527-.20524.2435269-.20524.6969909 0 .1973408.052401.3652904.052401.1637508.1572053.2855144.1048035.1217634.2663755.193142.1615721.06718.3799127.06718zm0-2.6871939q.2139738 0 .3537118-.075578.1441048-.075578.2270742-.1973409.087337-.1217634.1179039-.2813155.034935-.1595521.034935-.3275018 0-.1553533-.043668-.3023093-.0393018-.1469552-.1310049-.2561225-.0873362-.1091672-.2270743-.1763472-.1353711-.0671797-.3318777-.0671797-.1965066 0-.3362445.06718-.1353713.067179-.2270743.1763471-.087337.1091673-.1310043.2561232-.039301.1469559-.039301.3023093 0 .1679497.030567.3275018.034935.1595521.117904.2813155.087336.1217636.2270742.1973409.139738.075578.3580786.075578z" fill="#505050"/></svg>