<?xml version="1.0" encoding="utf-8"?>
<!-- Generator: Adobe Illustrator 12.0.1, SVG Export Plug-In . SVG Version: 6.00 Build 51448)  -->
<!DOCTYPE svg PUBLIC "-//W3C//DTD SVG 1.1//EN" "http://www.w3.org/Graphics/SVG/1.1/DTD/svg11.dtd" [
	<!ENTITY ns_svg "http://www.w3.org/2000/svg">
	<!ENTITY ns_xlink "http://www.w3.org/1999/xlink">
]>
<svg  version="1.1" id="Layer_1" xmlns="&ns_svg;" xmlns:xlink="&ns_xlink;" width="139.489" height="128.666"
	 viewBox="0 0 139.489 128.666" overflow="visible" enable-background="new 0 0 139.489 128.666" xml:space="preserve">
<g>
	<linearGradient id="XMLID_4_" gradientUnits="userSpaceOnUse" x1="64.2842" y1="118.2725" x2="8.5976" y2="21.4837">
		<stop  offset="0" style="stop-color:#A11C15"/>
		<stop  offset="1" style="stop-color:#BA3704"/>
	</linearGradient>
	<polygon fill="url(#XMLID_4_)" points="9.745,23.433 9.745,103.956 67.441,123.662 67.441,43.282 	"/>
	<linearGradient id="XMLID_5_" gradientUnits="userSpaceOnUse" x1="65.5205" y1="38.396" x2="131.5796" y2="110.1248">
		<stop  offset="0" style="stop-color:#A11C15"/>
		<stop  offset="1" style="stop-color:#BA3704"/>
	</linearGradient>
	<polygon fill="url(#XMLID_5_)" points="67.441,43.282 129.393,24.569 129.744,105.16 67.441,123.662 	"/>
	<linearGradient id="XMLID_6_" gradientUnits="userSpaceOnUse" x1="108.9609" y1="13.3125" x2="12.1746" y2="39.8295">
		<stop  offset="0" style="stop-color:#A11C15"/>
		<stop  offset="1" style="stop-color:#BA3704"/>
	</linearGradient>
	<polygon fill="url(#XMLID_6_)" points="9.745,23.433 71.271,5.005 129.393,24.569 67.584,43.282 	"/>
	<polygon opacity="0.3" fill="#FFFFFF" points="69.324,123.103 69.258,45.096 129.401,27.044 129.393,24.569 126.557,23.612 
		67.69,41.274 12.521,22.603 9.745,23.433 9.745,25.995 65.15,44.754 65.221,122.903 67.441,123.662 	"/>
</g>
</svg>
