<?xml version="1.0" encoding="utf-8"?>
<!-- Generator: Adobe Illustrator 12.0.1, SVG Export Plug-In . SVG Version: 6.00 Build 51448)  -->
<!DOCTYPE svg PUBLIC "-//W3C//DTD SVG 1.1//EN" "http://www.w3.org/Graphics/SVG/1.1/DTD/svg11.dtd" [
	<!ENTITY ns_svg "http://www.w3.org/2000/svg">
	<!ENTITY ns_xlink "http://www.w3.org/1999/xlink">
]>
<svg  version="1.1" id="Layer_1" xmlns="&ns_svg;" xmlns:xlink="&ns_xlink;" width="263.987" height="263.988"
	 viewBox="0 0 263.987 263.988" overflow="visible" enable-background="new 0 0 263.987 263.988" xml:space="preserve">
<g>
	<g>
		<circle fill="#FFFFFF" stroke="#7C86C1" stroke-width="1.637" cx="131.994" cy="131.994" r="122.169"/>
		<linearGradient id="XMLID_13_" gradientUnits="userSpaceOnUse" x1="105.4404" y1="-1.6504" x2="257.1388" y2="198.6132">
			<stop  offset="0.0048" style="stop-color:#004C95"/>
			<stop  offset="1" style="stop-color:#102D4B"/>
		</linearGradient>
		<path fill="url(#XMLID_13_)" d="M133.084,129.363c3.528-3.52,80.036-79.861,81.554-81.375
			c-21.923-21.578-50.798-33.557-81.553-33.834C133.085,16.298,133.084,124.379,133.084,129.363z"/>
		<linearGradient id="XMLID_14_" gradientUnits="userSpaceOnUse" x1="106.0645" y1="-2.123" x2="257.7613" y2="198.1385">
			<stop  offset="0.0048" style="stop-color:#004C95"/>
			<stop  offset="1" style="stop-color:#102D4B"/>
		</linearGradient>
		<path fill="url(#XMLID_14_)" d="M134.633,130.902c4.999,0,113.055,0,115.2,0c-0.276-30.649-12.186-59.451-33.635-81.35
			C214.68,51.066,138.172,127.373,134.633,130.902z"/>
		<linearGradient id="XMLID_15_" gradientUnits="userSpaceOnUse" x1="95.7368" y1="5.7036" x2="247.4337" y2="205.9652">
			<stop  offset="0.0048" style="stop-color:#004C95"/>
			<stop  offset="1" style="stop-color:#102D4B"/>
		</linearGradient>
		<path fill="url(#XMLID_15_)" d="M134.623,133.085c3.517,3.525,79.831,80.064,81.347,81.582
			c21.596-21.927,33.586-50.812,33.863-81.582C247.688,133.085,139.603,133.085,134.623,133.085z"/>
		<linearGradient id="XMLID_16_" gradientUnits="userSpaceOnUse" x1="35.896" y1="51.0293" x2="187.5952" y2="251.2939">
			<stop  offset="0.0048" style="stop-color:#004C95"/>
			<stop  offset="1" style="stop-color:#102D4B"/>
		</linearGradient>
		<path fill="url(#XMLID_16_)" d="M133.096,249.833c30.637-0.28,59.429-12.184,81.321-33.618
			c-1.516-1.519-77.703-77.829-81.228-81.36C133.185,139.844,133.098,247.687,133.096,249.833z"/>
		<linearGradient id="XMLID_17_" gradientUnits="userSpaceOnUse" x1="79.96" y1="17.6494" x2="231.6584" y2="217.9131">
			<stop  offset="0.0048" style="stop-color:#004C95"/>
			<stop  offset="1" style="stop-color:#102D4B"/>
		</linearGradient>
		<path fill="url(#XMLID_17_)" d="M49.349,47.987c1.519,1.515,78.026,77.856,81.554,81.375c0-4.983,0-113.065,0-115.209
			C100.147,14.431,71.272,26.41,49.349,47.987z"/>
		<linearGradient id="XMLID_18_" gradientUnits="userSpaceOnUse" x1="20.2358" y1="62.8901" x2="171.9336" y2="263.1529">
			<stop  offset="0.0048" style="stop-color:#004C95"/>
			<stop  offset="1" style="stop-color:#102D4B"/>
		</linearGradient>
		<path fill="url(#XMLID_18_)" d="M14.154,130.902c2.145,0,110.201,0,115.2,0c-3.54-3.529-80.046-79.835-81.565-81.35
			C26.34,71.451,14.431,100.253,14.154,130.902z"/>
		<linearGradient id="XMLID_19_" gradientUnits="userSpaceOnUse" x1="9.9136" y1="70.7109" x2="161.612" y2="270.9745">
			<stop  offset="0.0048" style="stop-color:#004C95"/>
			<stop  offset="1" style="stop-color:#102D4B"/>
		</linearGradient>
		<path fill="url(#XMLID_19_)" d="M14.154,133.085c0.278,30.771,12.268,59.655,33.865,81.582
			c1.514-1.518,77.829-78.057,81.346-81.582C124.384,133.085,16.299,133.085,14.154,133.085z"/>
		<linearGradient id="XMLID_20_" gradientUnits="userSpaceOnUse" x1="10.4634" y1="70.2915" x2="162.162" y2="270.5555">
			<stop  offset="0.0048" style="stop-color:#004C95"/>
			<stop  offset="1" style="stop-color:#102D4B"/>
		</linearGradient>
		<path fill="url(#XMLID_20_)" d="M49.57,216.215c21.893,21.435,50.684,33.338,81.321,33.618
			c-0.001-2.146-0.088-109.988-0.092-114.979C127.273,138.386,51.087,214.697,49.57,216.215z"/>
	</g>
	<g>
		<circle fill="#FFFFFF" cx="131.994" cy="131.994" r="73.055"/>
		<g>
			
				<linearGradient id="XMLID_21_" gradientUnits="userSpaceOnUse" x1="73.646" y1="106.395" x2="226.6523" y2="105.9411" gradientTransform="matrix(0.7071 0.7071 -0.7071 0.7071 127.9877 -72.4027)">
				<stop  offset="0" style="stop-color:#5C85C4"/>
				<stop  offset="1" style="stop-color:#22579F"/>
			</linearGradient>
			<path fill="url(#XMLID_21_)" d="M131.994,61.472c-18.654,0-36.188,7.213-49.463,20.289c0.787,0.787,48.709,48.707,49.463,49.461
				c0.754-0.754,48.671-48.671,49.462-49.461C168.181,68.686,150.648,61.472,131.994,61.472L131.994,61.472z"/>
			<path fill="#FFFFFF" d="M131.992,60.927c-18.188,0-36.376,6.938-50.253,20.815l0.772,0.772l0,0l0,0l49.482,49.479l49.48-49.479
				l0,0l0,0l0,0l0.772-0.772C168.369,67.865,150.18,60.927,131.992,60.927L131.992,60.927z M83.289,81.749
				c6.504-6.312,14.025-11.222,22.371-14.606c8.384-3.4,17.244-5.124,26.333-5.124c9.089,0,17.949,1.724,26.333,5.124
				c8.345,3.384,15.865,8.295,22.37,14.606l-48.703,48.701L83.289,81.749L83.289,81.749z"/>
		</g>
		<g>
			
				<linearGradient id="XMLID_22_" gradientUnits="userSpaceOnUse" x1="74.7354" y1="106.499" x2="227.7449" y2="106.045" gradientTransform="matrix(0.7071 0.7071 -0.7071 0.7071 127.9877 -72.4027)">
				<stop  offset="0" style="stop-color:#5C85C4"/>
				<stop  offset="1" style="stop-color:#22579F"/>
			</linearGradient>
			<path fill="url(#XMLID_22_)" d="M132.765,131.993c0.754,0.754,48.673,48.673,49.463,49.464
				c13.074-13.275,20.288-30.809,20.288-49.463c0,0,0,0,0-0.001c0-18.653-7.214-36.187-20.288-49.46
				C181.442,83.318,133.519,131.239,132.765,131.993z"/>
			<path fill="#FFFFFF" d="M182.246,81.742l-50.252,50.25l49.481,49.482l0,0l0,0l0,0l0.772,0.772
				c0.257-0.258,0.513-0.518,0.766-0.778l0,0l0,0l0,0c13.367-13.775,20.05-31.625,20.05-49.475
				C203.062,113.807,196.124,95.619,182.246,81.742L182.246,81.742L182.246,81.742z M133.537,131.993l48.703-48.701
				c6.312,6.504,11.222,14.024,14.606,22.37c3.4,8.384,5.124,17.243,5.124,26.332c0,9.09-1.724,17.949-5.124,26.333
				c-3.384,8.346-8.295,15.866-14.605,22.371L133.537,131.993L133.537,131.993z"/>
		</g>
		<g>
			
				<linearGradient id="XMLID_23_" gradientUnits="userSpaceOnUse" x1="74.9443" y1="177.4351" x2="227.9503" y2="176.9811" gradientTransform="matrix(0.7071 0.7071 -0.7071 0.7071 127.9877 -72.4027)">
				<stop  offset="0" style="stop-color:#5C85C4"/>
				<stop  offset="1" style="stop-color:#22579F"/>
			</linearGradient>
			<path fill="url(#XMLID_23_)" d="M82.532,182.226c27.397,26.978,71.526,26.979,98.923,0.001
				c-0.792-0.792-48.708-48.709-49.462-49.463C131.24,133.518,83.324,181.434,82.532,182.226z"/>
			<path fill="#FFFFFF" d="M131.993,131.993l-0.772,0.772l0,0l0,0L81.74,182.247l0,0h0.001
				c12.792,12.792,29.249,19.689,45.991,20.688c1.419,0.085,2.84,0.127,4.261,0.127c17.851,0,35.701-6.682,49.475-20.049l0,0l0,0
				l0,0c0.261-0.253,0.521-0.509,0.778-0.766L131.993,131.993L131.993,131.993z M83.291,182.24l48.703-48.702l48.704,48.704
				c-6.505,6.311-14.025,11.222-22.37,14.605c-8.384,3.4-17.244,5.124-26.333,5.124c-9.089,0-17.949-1.724-26.333-5.124
				C97.314,193.462,89.795,188.551,83.291,182.24L83.291,182.24z"/>
		</g>
		<g>
			
				<linearGradient id="XMLID_24_" gradientUnits="userSpaceOnUse" x1="73.854" y1="177.3335" x2="226.8585" y2="176.8795" gradientTransform="matrix(0.7071 0.7071 -0.7071 0.7071 127.9877 -72.4027)">
				<stop  offset="0" style="stop-color:#5C85C4"/>
				<stop  offset="1" style="stop-color:#22579F"/>
			</linearGradient>
			<path fill="url(#XMLID_24_)" d="M61.471,131.993L61.471,131.993c0,18.654,7.214,36.188,20.289,49.463
				c0.791-0.791,48.708-48.708,49.461-49.462c-0.754-0.754-48.672-48.671-49.462-49.461
				C68.685,95.807,61.471,113.339,61.471,131.993z"/>
			<path fill="#FFFFFF" d="M81.739,81.743c-13.876,13.876-20.814,32.063-20.814,50.25c0,17.851,6.683,35.699,20.049,49.475l0,0l0,0
				l0,0c0.253,0.261,0.509,0.521,0.766,0.778l50.252-50.253L81.739,81.743L81.739,81.743z M81.746,180.696
				c-26.26-27.082-26.261-70.322-0.001-97.403l48.703,48.701L81.746,180.696L81.746,180.696z"/>
		</g>
	</g>
	<circle fill="#82ABE0" stroke="#FFFFFF" stroke-width="3.2741" cx="131.993" cy="131.994" r="25.998"/>
</g>
</svg>
