<?xml version="1.0" encoding="utf-8"?>
<!-- Generator: Adobe Illustrator 12.0.1, SVG Export Plug-In . SVG Version: 6.00 Build 51448)  -->
<!DOCTYPE svg PUBLIC "-//W3C//DTD SVG 1.1//EN" "http://www.w3.org/Graphics/SVG/1.1/DTD/svg11.dtd" [
	<!ENTITY ns_svg "http://www.w3.org/2000/svg">
	<!ENTITY ns_xlink "http://www.w3.org/1999/xlink">
]>
<svg  version="1.1" id="Layer_1" xmlns="&ns_svg;" xmlns:xlink="&ns_xlink;" width="480.684" height="305.687"
	 viewBox="0 0 480.684 305.687" overflow="visible" enable-background="new 0 0 480.684 305.687" xml:space="preserve">
<g>
	<linearGradient id="XMLID_2_" gradientUnits="userSpaceOnUse" x1="173.8086" y1="83.2627" x2="311.7548" y2="249.5531">
		<stop  offset="0" style="stop-color:#FFC10E"/>
		<stop  offset="0.4881" style="stop-color:#F66F19"/>
		<stop  offset="1" style="stop-color:#EC1C24"/>
	</linearGradient>
	<path fill="url(#XMLID_2_)" d="M350.533,86.397C210.565,302.489,17.803,284.071,17.803,284.071s265.201,44.203,401.486-165.752
		l50.337,30.697L432.793,6.593L295.283,61.845L350.533,86.397z"/>
	<g>
		<circle opacity="0.48" fill="#FFFFFF" cx="350.533" cy="145.331" r="22.1"/>
		<circle fill="#FFFFFF" cx="350.533" cy="145.331" r="11.459"/>
	</g>
	<g>
		<circle opacity="0.48" fill="#FFFFFF" cx="294.054" cy="199.354" r="16.78"/>
		<circle fill="#FFFFFF" cx="294.056" cy="199.354" r="8.7"/>
	</g>
	<g>
		<path opacity="0.48" fill="#FFFFFF" d="M247.861,239.683c0,7.449-6.036,13.486-13.482,13.486c-7.448,0-13.484-6.037-13.484-13.486
			c0-7.444,6.036-13.484,13.484-13.484C241.825,226.198,247.861,232.238,247.861,239.683z"/>
		<circle fill="#FFFFFF" cx="234.377" cy="239.683" r="6.991"/>
	</g>
	<g>
		<circle opacity="0.48" fill="#FFFFFF" cx="172.5" cy="265.658" r="9.392"/>
		<circle fill="#FFFFFF" cx="172.501" cy="265.658" r="4.869"/>
	</g>
</g>
</svg>
