<?xml version="1.0" encoding="utf-8"?>
<!-- Generator: Adobe Illustrator 12.0.1, SVG Export Plug-In . SVG Version: 6.00 Build 51448)  -->
<!DOCTYPE svg PUBLIC "-//W3C//DTD SVG 1.1//EN" "http://www.w3.org/Graphics/SVG/1.1/DTD/svg11.dtd" [
	<!ENTITY ns_svg "http://www.w3.org/2000/svg">
	<!ENTITY ns_xlink "http://www.w3.org/1999/xlink">
]>
<svg  version="1.1" id="Layer_1" xmlns="&ns_svg;" xmlns:xlink="&ns_xlink;" width="206" height="188" viewBox="0 0 206 188"
	 overflow="visible" enable-background="new 0 0 206 188" xml:space="preserve">
<polygon fill="#3F3F3F" points="201.463,94.383 182.102,77.125 182.082,85.039 167.342,85.039 167.342,103.627 182.033,103.627 
	182.012,111.54 "/>
<polygon fill="#3F3F3F" points="36.802,85.039 22.065,85.039 22.044,77.125 2.683,94.383 22.133,111.54 22.113,103.627 
	36.802,103.627 "/>
<polygon fill="#3F3F3F" points="156.944,33.707 151.811,8.283 127.185,16.422 134.028,20.397 126.659,33.16 142.757,42.454 
	150.101,29.732 "/>
<polygon fill="#3F3F3F" points="77.487,155.504 61.388,146.213 54.02,158.975 47.157,155.036 52.42,180.434 77.004,172.167 
	70.139,168.226 "/>
<polygon fill="#3F3F3F" points="77.453,33.153 70.108,20.432 76.971,16.494 52.388,8.226 47.123,33.623 53.986,29.684 
	61.355,42.447 "/>
<polygon fill="#3F3F3F" points="150.068,158.926 142.723,146.204 126.625,155.5 133.994,168.262 127.152,172.236 151.777,180.375 
	156.911,154.952 "/>
<circle fill="#62AA3A" cx="101.799" cy="94.299" r="53.656"/>
</svg>
