<?xml version="1.0" encoding="utf-8"?>
<!-- Generator: Adobe Illustrator 12.0.1, SVG Export Plug-In . SVG Version: 6.00 Build 51448)  -->
<!DOCTYPE svg PUBLIC "-//W3C//DTD SVG 1.1//EN" "http://www.w3.org/Graphics/SVG/1.1/DTD/svg11.dtd" [
	<!ENTITY ns_svg "http://www.w3.org/2000/svg">
	<!ENTITY ns_xlink "http://www.w3.org/1999/xlink">
]>
<svg  version="1.1" id="Layer_1" xmlns="&ns_svg;" xmlns:xlink="&ns_xlink;" width="536.955" height="173"
	 viewBox="0 0 536.955 173" overflow="visible" enable-background="new 0 0 536.955 173" xml:space="preserve">
<g>
	<path fill="#37598C" d="M275.861,79.206l0.005-0.003l-0.041-0.041c-0.028-0.027-0.056-0.056-0.083-0.082l-6.138-6.138l-1.216,5.235
		h-12.143V41.62c0-2.244-1.023-4.246-2.627-5.572l-5.277-5.276l-0.152,3.627h-35.818V17.385c0-0.799-0.306-1.524-0.792-2.087v-0.015
		l-0.078-0.077c-0.049-0.055-0.101-0.105-0.155-0.156l-6.023-6.025l-0.485,5.157h-12.392c-1.768,0-3.204,1.435-3.204,3.204V34.4
		h-36.458c-3.987,0-7.218,3.234-7.218,7.22v23.846l-6.26,1.756l6.26,6.26h15.981c2.486,0,4.502,2.016,4.502,4.504v23.512
		c0,2.486-2.016,4.504-4.502,4.504h-15.981v26.258l-4.291,4.293l6.302,6.301c0.072,0.075,0.145,0.146,0.219,0.217l0.009,0.012h0.001
		c1.296,1.237,3.047,2.002,4.978,2.002h31.761v-16.438c0-2.488,2.017-4.506,4.504-4.506h23.513c2.487,0,4.504,2.018,4.504,4.506
		v6.723l-6.26,3.454l6.26,6.261h31.962c3.983,0,7.215-3.235,7.215-7.222v-36.559h17.275c1.768,0,3.203-1.434,3.203-3.202V81.381
		C276.724,80.539,276.392,79.778,275.861,79.206z"/>
	<linearGradient id="XMLID_13_" gradientUnits="userSpaceOnUse" x1="256.4644" y1="165.5303" x2="157.643" y2="34.3671">
		<stop  offset="0" style="stop-color:#466DB2"/>
		<stop  offset="0.8539" style="stop-color:#70A4EF"/>
	</linearGradient>
	<path fill="url(#XMLID_13_)" d="M210.809,122.386v16.438h31.961c3.983,0,7.22-3.233,7.22-7.221V95.044h17.272
		c1.767,0,3.202-1.434,3.202-3.203V75.122c0-1.769-1.436-3.202-3.202-3.202H249.99V35.361c0-3.985-3.237-7.221-7.22-7.221h-36.657
		V11.125c0-1.767-1.434-3.202-3.202-3.202h-16.722c-1.767,0-3.204,1.435-3.204,3.202v17.015h-36.46
		c-3.984,0-7.217,3.235-7.217,7.221v31.86h15.98c2.488,0,4.504,2.018,4.504,4.504v23.512c0,2.487-2.017,4.503-4.504,4.503h-15.98
		v31.861c0,3.987,3.233,7.221,7.217,7.221h31.765v-16.438c0-2.486,2.016-4.504,4.505-4.504h23.51
		C208.79,117.882,210.809,119.899,210.809,122.386z"/>
	<defs>
		<filter id="Adobe_OpacityMaskFilter" filterUnits="userSpaceOnUse" x="139.308" y="7.923" width="131.157" height="130.9">
			<feColorMatrix  type="matrix" values="1 0 0 0 0  0 1 0 0 0  0 0 1 0 0  0 0 0 1 0"/>
		</filter>
	</defs>
	<mask maskUnits="userSpaceOnUse" x="139.308" y="7.923" width="131.157" height="130.9" id="XMLID_14_">
		<g filter="url(#Adobe_OpacityMaskFilter)">
			<linearGradient id="XMLID_15_" gradientUnits="userSpaceOnUse" x1="143.8452" y1="-5.7686" x2="198.6131" y2="71.6889">
				<stop  offset="0" style="stop-color:#FFFFFF"/>
				<stop  offset="1" style="stop-color:#000000"/>
			</linearGradient>
			<path fill="url(#XMLID_15_)" d="M115.776,107.761c0,0,105.232-30.124,146.702-98.974l-49.293-23.472l-29.73,8.999L138.467,8.787
				l-8.997,18.388l-14.866,25.818l-7.042,29.34L115.776,107.761z"/>
		</g>
	</mask>
	<path opacity="0.8" mask="url(#XMLID_14_)" fill="#FFFFFF" d="M210.809,122.386v16.438h31.961c3.983,0,7.22-3.233,7.22-7.221
		V95.044h17.272c1.767,0,3.202-1.434,3.202-3.203V75.122c0-1.769-1.436-3.202-3.202-3.202H249.99V35.361
		c0-3.985-3.237-7.221-7.22-7.221h-36.657V11.125c0-1.767-1.434-3.202-3.202-3.202h-16.722c-1.767,0-3.204,1.435-3.204,3.202v17.015
		h-36.46c-3.984,0-7.217,3.235-7.217,7.221v31.86h15.98c2.488,0,4.504,2.018,4.504,4.504v23.512c0,2.487-2.017,4.503-4.504,4.503
		h-15.98v31.861c0,3.987,3.233,7.221,7.217,7.221h31.765v-16.438c0-2.486,2.016-4.504,4.505-4.504h23.51
		C208.79,117.882,210.809,119.899,210.809,122.386z"/>
	<path fill="none" stroke="#70A4EF" stroke-width="0.7824" d="M186.188,9.488c-0.903,0-1.638,0.736-1.638,1.637v18.581h-38.026
		c-3.116,0-5.652,2.538-5.652,5.655c0,0,0,27.465,0,30.296c2.547,0,14.415,0,14.415,0c3.344,0,6.068,2.722,6.068,6.069v23.512
		c0,3.346-2.724,6.068-6.068,6.068c0,0-11.868,0-14.415,0c0,2.829,0,30.296,0,30.296c0,3.119,2.536,5.657,5.652,5.657
		c0,0,27.37,0,30.2,0c0-2.563,0-14.874,0-14.874c0-3.346,2.723-6.067,6.07-6.067h23.51c3.346,0,6.069,2.722,6.069,6.067
		c0,0,0,12.312,0,14.874c2.831,0,30.396,0,30.396,0c3.117,0,5.653-2.538,5.653-5.657V93.479h18.839c0.902,0,1.639-0.734,1.639-1.639
		V75.122c0-0.903-0.736-1.639-1.639-1.639h-18.839V35.361c0-3.117-2.536-5.655-5.653-5.655h-38.223V11.125
		c0-0.901-0.735-1.637-1.636-1.637H186.188z"/>
</g>
<g>
	<path fill="#4F80C9" d="M151.236,76.455l0.001-0.002l-5.69-5.9l-1.305,4.976h-12.271V39.067c0-1.956-0.783-3.731-2.05-5.032l0,0
		l-0.007-0.004c-0.027-0.029-0.053-0.06-0.083-0.089l-5.787-6.03l-0.941,3.938h-30.21v15.98c0,2.487-2.021,4.504-4.507,4.504H64.875
		c-2.487,0-4.504-2.017-4.504-4.504V31.85l-5.998-6.259l-0.621,6.259H28.507c-3.985,0-7.218,3.231-7.218,7.217V62.33l-5.998,2.241
		l5.998,6.262h16.436c2.486,0,4.504,2.015,4.504,4.502v23.512c0,2.488-2.018,4.505-4.504,4.505H21.289v30.119l-3.985,0.576
		l5.925,6.177l0,0c1.319,1.415,3.192,2.309,5.278,2.309h36.559v12.329l-5.071,0.936l6.004,6.262
		c0.004,0.006,0.008,0.011,0.011,0.015l0.003,0.004h0.001c0.579,0.575,1.375,0.931,2.255,0.931h16.72
		c1.769,0,3.204-1.437,3.204-3.204v-17.271h36.557c3.986,0,7.22-3.233,7.22-7.22V98.653h17.016c1.769,0,3.202-1.433,3.202-3.202
		V78.73C152.188,77.839,151.824,77.036,151.236,76.455z"/>
	<linearGradient id="XMLID_16_" gradientUnits="userSpaceOnUse" x1="118.3662" y1="127.9316" x2="42.0867" y2="52.8258">
		<stop  offset="0" style="stop-color:#89B4E8"/>
		<stop  offset="0.8539" style="stop-color:#95C2EF"/>
	</linearGradient>
	<path fill="url(#XMLID_16_)" d="M31.727,97.09H15.291v31.964c0,3.985,3.234,7.218,7.216,7.218h36.561v17.271
		c0,1.771,1.436,3.204,3.204,3.204h16.72c1.768,0,3.204-1.434,3.204-3.204v-17.271h36.558c3.986,0,7.22-3.232,7.22-7.218v-36.66
		h17.015c1.769,0,3.203-1.432,3.203-3.201V72.471c0-1.767-1.434-3.203-3.203-3.203h-17.015V32.809c0-3.985-3.233-7.217-7.22-7.217
		H86.89V41.57c0,2.488-2.017,4.504-4.503,4.504h-23.51c-2.489,0-4.504-2.017-4.504-4.504V25.591H22.508
		c-3.983,0-7.217,3.232-7.217,7.217v31.763h16.436c2.486,0,4.503,2.018,4.503,4.504v23.511C36.229,95.075,34.213,97.09,31.727,97.09
		z"/>
	<defs>
		<filter id="Adobe_OpacityMaskFilter_1_" filterUnits="userSpaceOnUse" x="15.291" y="25.591" width="130.899" height="131.156">
			<feColorMatrix  type="matrix" values="1 0 0 0 0  0 1 0 0 0  0 0 1 0 0  0 0 0 1 0"/>
		</filter>
	</defs>
	<mask maskUnits="userSpaceOnUse" x="15.291" y="25.591" width="130.899" height="131.156" id="XMLID_17_">
		<g filter="url(#Adobe_OpacityMaskFilter_1_)">
			<linearGradient id="XMLID_1_" gradientUnits="userSpaceOnUse" x1="18.9121" y1="-2.9688" x2="73.68" y2="74.4887">
				<stop  offset="0" style="stop-color:#FFFFFF"/>
				<stop  offset="1" style="stop-color:#000000"/>
			</linearGradient>
			<path fill="url(#XMLID_1_)" d="M-9.156,110.56c0,0,105.234-30.122,146.7-98.974l-49.291-23.47L58.521-2.888L13.535,11.585
				l-9,18.387l-14.864,25.818l-7.043,29.341L-9.156,110.56z"/>
		</g>
	</mask>
	<path opacity="0.8" mask="url(#XMLID_17_)" fill="#FFFFFF" d="M31.727,97.09H15.291v31.964c0,3.985,3.234,7.218,7.216,7.218h36.561
		v17.271c0,1.771,1.436,3.204,3.204,3.204h16.72c1.768,0,3.204-1.434,3.204-3.204v-17.271h36.558c3.986,0,7.22-3.232,7.22-7.218
		v-36.66h17.015c1.769,0,3.203-1.432,3.203-3.201V72.471c0-1.767-1.434-3.203-3.203-3.203h-17.015V32.809
		c0-3.985-3.233-7.217-7.22-7.217H86.89V41.57c0,2.488-2.017,4.504-4.503,4.504h-23.51c-2.489,0-4.504-2.017-4.504-4.504V25.591
		H22.508c-3.983,0-7.217,3.232-7.217,7.217v31.763h16.436c2.486,0,4.503,2.018,4.503,4.504v23.511
		C36.229,95.075,34.213,97.09,31.727,97.09z"/>
	<path fill="none" stroke="#B1D8F2" stroke-width="0.7824" d="M88.458,27.156c0,2.547,0,14.414,0,14.414
		c0,3.346-2.724,6.069-6.071,6.069h-23.51c-3.347,0-6.069-2.724-6.069-6.069c0,0,0-11.867,0-14.414c-2.831,0-30.3,0-30.3,0
		c-3.117,0-5.654,2.535-5.654,5.652c0,0,0,27.369,0,30.199c2.561,0,14.873,0,14.873,0c3.348,0,6.068,2.722,6.068,6.068v23.511
		c0,3.348-2.72,6.068-6.068,6.068c0,0-12.312,0-14.873,0c0,2.831,0,30.398,0,30.398c0,3.117,2.537,5.653,5.652,5.653h38.126v18.836
		c0,0.906,0.734,1.641,1.638,1.641h16.72c0.904,0,1.64-0.734,1.64-1.641v-18.836h38.122c3.117,0,5.654-2.536,5.654-5.653V90.829
		h18.581c0.902,0,1.638-0.735,1.638-1.637V72.471c0-0.437-0.171-0.848-0.479-1.157c-0.311-0.31-0.721-0.48-1.158-0.48h-18.581
		V32.809c0-3.117-2.537-5.652-5.654-5.652C118.752,27.156,91.286,27.156,88.458,27.156z"/>
</g>
<g>
	<path fill="#000066" d="M525.412,79.988l0.007-0.003l-0.046-0.041c-0.024-0.028-0.053-0.057-0.081-0.083l-6.136-6.139l-1.216,5.239
		h-12.142v-36.56c0-2.243-1.025-4.245-2.627-5.571l-5.277-5.276l-0.152,3.628H461.92V18.167c0-0.799-0.304-1.524-0.792-2.085v-0.017
		l-0.075-0.077c-0.05-0.053-0.1-0.105-0.151-0.154l-6.027-6.026l-0.483,5.157H442c-1.77,0-3.205,1.436-3.205,3.202v17.016h-36.458
		c-3.983,0-7.217,3.234-7.217,7.219V66.25l-6.26,1.754l6.26,6.258h15.979c2.485,0,4.501,2.018,4.501,4.505v23.512
		c0,2.488-2.016,4.503-4.501,4.503H395.12v26.257l-4.292,4.294l6.302,6.303c0.072,0.072,0.145,0.146,0.217,0.219l0.015,0.01l0,0
		c1.294,1.235,3.046,2.001,4.976,2.001h31.763v-16.438c0-2.484,2.018-4.503,4.503-4.503h23.515c2.485,0,4.502,2.019,4.502,4.503
		v6.724l-6.259,3.455l6.259,6.26h31.961c3.986,0,7.219-3.233,7.219-7.221v-36.559h17.275c1.767,0,3.203-1.434,3.203-3.201V82.163
		C526.277,81.322,525.944,80.562,525.412,79.988z"/>
	<linearGradient id="XMLID_2_" gradientUnits="userSpaceOnUse" x1="495.3599" y1="135.0195" x2="380.7243" y2="21.2935">
		<stop  offset="0" style="stop-color:#143777"/>
		<stop  offset="0.8539" style="stop-color:#1D68AA"/>
	</linearGradient>
	<path fill="url(#XMLID_2_)" d="M460.36,123.169v16.437h31.962c3.983,0,7.218-3.233,7.218-7.219V95.828h17.274
		c1.768,0,3.202-1.434,3.202-3.203V75.906c0-1.771-1.435-3.203-3.202-3.203H499.54v-36.56c0-3.986-3.234-7.218-7.218-7.218h-36.659
		V11.909c0-1.767-1.432-3.201-3.202-3.201h-16.72c-1.769,0-3.204,1.434-3.204,3.201v17.016H396.08c-3.986,0-7.22,3.232-7.22,7.218
		v31.861h15.979c2.489,0,4.504,2.017,4.504,4.504V96.02c0,2.487-2.015,4.505-4.504,4.505H388.86v31.862
		c0,3.985,3.233,7.219,7.22,7.219h31.762v-16.437c0-2.487,2.016-4.505,4.504-4.505h23.51
		C458.344,118.664,460.36,120.682,460.36,123.169z"/>
	<defs>
		<filter id="Adobe_OpacityMaskFilter_2_" filterUnits="userSpaceOnUse" x="388.86" y="8.708" width="131.156" height="130.898">
			<feColorMatrix  type="matrix" values="1 0 0 0 0  0 1 0 0 0  0 0 1 0 0  0 0 0 1 0"/>
		</filter>
	</defs>
	<mask maskUnits="userSpaceOnUse" x="388.86" y="8.708" width="131.156" height="130.898" id="XMLID_3_">
		<g filter="url(#Adobe_OpacityMaskFilter_2_)">
			<linearGradient id="XMLID_4_" gradientUnits="userSpaceOnUse" x1="393.396" y1="-4.9873" x2="448.1645" y2="72.4711">
				<stop  offset="0" style="stop-color:#FFFFFF"/>
				<stop  offset="1" style="stop-color:#000000"/>
			</linearGradient>
			<path fill="url(#XMLID_4_)" d="M365.331,108.543c0,0,105.232-30.125,146.697-98.975l-49.291-23.472l-29.73,8.997L388.017,9.568
				l-8.996,18.386l-14.863,25.819l-7.043,29.34L365.331,108.543z"/>
		</g>
	</mask>
	<path opacity="0.8" mask="url(#XMLID_3_)" fill="#FFFFFF" d="M460.36,123.169v16.437h31.962c3.983,0,7.218-3.233,7.218-7.219
		V95.828h17.274c1.768,0,3.202-1.434,3.202-3.203V75.906c0-1.771-1.435-3.203-3.202-3.203H499.54v-36.56
		c0-3.986-3.234-7.218-7.218-7.218h-36.659V11.909c0-1.767-1.432-3.201-3.202-3.201h-16.72c-1.769,0-3.204,1.434-3.204,3.201v17.016
		H396.08c-3.986,0-7.22,3.232-7.22,7.218v31.861h15.979c2.489,0,4.504,2.017,4.504,4.504V96.02c0,2.487-2.015,4.505-4.504,4.505
		H388.86v31.862c0,3.985,3.233,7.219,7.22,7.219h31.762v-16.437c0-2.487,2.016-4.505,4.504-4.505h23.51
		C458.344,118.664,460.36,120.682,460.36,123.169z"/>
	<path opacity="0.8" fill="none" stroke="#70A4EF" stroke-width="0.7824" d="M435.741,10.27c-0.903,0-1.64,0.735-1.64,1.639v18.581
		H396.08c-3.12,0-5.655,2.537-5.655,5.654c0,0,0,27.466,0,30.297c2.546,0,14.414,0,14.414,0c3.348,0,6.068,2.722,6.068,6.068V96.02
		c0,3.347-2.721,6.069-6.068,6.069c0,0-11.868,0-14.414,0c0,2.829,0,30.298,0,30.298c0,3.117,2.535,5.654,5.655,5.654
		c0,0,27.368,0,30.195,0c0-2.564,0-14.872,0-14.872c0-3.347,2.724-6.07,6.07-6.07h23.51c3.345,0,6.07,2.724,6.07,6.07
		c0,0,0,12.308,0,14.872c2.83,0,30.396,0,30.396,0c3.117,0,5.653-2.537,5.653-5.654V94.264h18.839c0.902,0,1.639-0.736,1.639-1.639
		V75.906c0-0.905-0.736-1.639-1.639-1.639h-18.839V36.143c0-3.117-2.536-5.654-5.653-5.654h-38.223V11.909
		c0-0.903-0.735-1.639-1.639-1.639H435.741z"/>
</g>
<g>
	<path fill="#154BAA" d="M399.788,78.802V78.8l-5.685-5.898l-1.305,4.973h-12.274v-36.46c0-1.955-0.783-3.73-2.05-5.031l0,0
		l-0.005-0.006c-0.03-0.028-0.057-0.059-0.083-0.088l-5.787-6.028l-0.942,3.938h-30.212v15.979c0,2.488-2.019,4.503-4.506,4.503
		h-23.511c-2.487,0-4.502-2.016-4.502-4.503V34.198l-6.001-6.26l-0.621,6.26H277.06c-3.983,0-7.216,3.231-7.216,7.216v23.265
		l-6.001,2.241l6.001,6.258h16.437c2.482,0,4.503,2.018,4.503,4.504v23.512c0,2.487-2.021,4.505-4.503,4.505h-16.437v30.12
		l-3.986,0.575l5.924,6.177h0.002c1.316,1.416,3.191,2.306,5.276,2.306h36.559v12.334l-5.072,0.936l6.007,6.261
		c0.003,0.006,0.006,0.011,0.012,0.015l0.002,0.005l0,0c0.58,0.571,1.377,0.928,2.259,0.928h16.717c1.77,0,3.205-1.435,3.205-3.204
		v-17.273h36.558c3.984,0,7.219-3.229,7.219-7.217v-36.657h17.016c1.767,0,3.201-1.433,3.201-3.203V81.077
		C400.741,80.187,400.376,79.382,399.788,78.802z"/>
	<linearGradient id="XMLID_5_" gradientUnits="userSpaceOnUse" x1="362.1147" y1="127.6592" x2="229.1541" y2="-9.7935">
		<stop  offset="0" style="stop-color:#0D69C8"/>
		<stop  offset="1" style="stop-color:#219CF7"/>
	</linearGradient>
	<path fill="url(#XMLID_5_)" d="M280.279,99.438h-16.436v31.963c0,3.984,3.233,7.217,7.22,7.217h36.56v17.273
		c0,1.769,1.435,3.204,3.205,3.204h16.716c1.771,0,3.206-1.436,3.206-3.204v-17.273h36.558c3.984,0,7.218-3.232,7.218-7.217V94.74
		h17.017c1.771,0,3.202-1.431,3.202-3.201V74.818c0-1.769-1.432-3.204-3.202-3.204h-17.017V35.155c0-3.985-3.233-7.217-7.218-7.217
		h-31.861v15.98c0,2.486-2.019,4.503-4.504,4.503h-23.513c-2.489,0-4.504-2.017-4.504-4.503v-15.98h-31.862
		c-3.986,0-7.22,3.232-7.22,7.217V66.92h16.436c2.486,0,4.505,2.016,4.505,4.504v23.512
		C284.784,97.422,282.765,99.438,280.279,99.438z"/>
	<defs>
		<filter id="Adobe_OpacityMaskFilter_3_" filterUnits="userSpaceOnUse" x="263.843" y="27.938" width="130.9" height="131.158">
			<feColorMatrix  type="matrix" values="1 0 0 0 0  0 1 0 0 0  0 0 1 0 0  0 0 0 1 0"/>
		</filter>
	</defs>
	<mask maskUnits="userSpaceOnUse" x="263.843" y="27.938" width="130.9" height="131.158" id="XMLID_6_">
		<g filter="url(#Adobe_OpacityMaskFilter_3_)">
			<linearGradient id="XMLID_7_" gradientUnits="userSpaceOnUse" x1="267.4653" y1="-0.6216" x2="322.2332" y2="76.8359">
				<stop  offset="0" style="stop-color:#FFFFFF"/>
				<stop  offset="1" style="stop-color:#000000"/>
			</linearGradient>
			<path fill="url(#XMLID_7_)" d="M239.399,112.906c0,0,105.23-30.121,146.698-98.972L336.806-9.538l-29.73,8.997l-44.989,14.476
				l-8.995,18.385l-14.867,25.819l-7.042,29.342L239.399,112.906z"/>
		</g>
	</mask>
	<path opacity="0.8" mask="url(#XMLID_6_)" fill="#FFFFFF" d="M280.279,99.438h-16.436v31.963c0,3.984,3.233,7.217,7.22,7.217h36.56
		v17.273c0,1.769,1.435,3.204,3.205,3.204h16.716c1.771,0,3.206-1.436,3.206-3.204v-17.273h36.558c3.984,0,7.218-3.232,7.218-7.217
		V94.74h17.017c1.771,0,3.202-1.431,3.202-3.201V74.818c0-1.769-1.432-3.204-3.202-3.204h-17.017V35.155
		c0-3.985-3.233-7.217-7.218-7.217h-31.861v15.98c0,2.486-2.019,4.503-4.504,4.503h-23.513c-2.489,0-4.504-2.017-4.504-4.503v-15.98
		h-31.862c-3.986,0-7.22,3.232-7.22,7.217V66.92h16.436c2.486,0,4.505,2.016,4.505,4.504v23.512
		C284.784,97.422,282.765,99.438,280.279,99.438z"/>
	<path fill="none" stroke="#89B4E8" stroke-width="0.7824" d="M337.01,29.502c0,2.547,0,14.416,0,14.416
		c0,3.345-2.72,6.07-6.068,6.07h-23.513c-3.344,0-6.067-2.725-6.067-6.07c0,0,0-11.869,0-14.416c-2.829,0-30.299,0-30.299,0
		c-3.117,0-5.652,2.535-5.652,5.653c0,0,0,27.371,0,30.199c2.561,0,14.868,0,14.868,0c3.348,0,6.071,2.722,6.071,6.069v23.512
		c0,3.346-2.724,6.067-6.071,6.067c0,0-12.308,0-14.868,0c0,2.83,0,30.398,0,30.398c0,3.117,2.535,5.652,5.652,5.652h38.123v18.838
		c0,0.904,0.735,1.639,1.642,1.639h16.716c0.904,0,1.64-0.734,1.64-1.639v-18.838h38.124c3.119,0,5.654-2.535,5.654-5.652V93.178
		h18.58c0.902,0,1.638-0.736,1.638-1.639V74.818c0-0.438-0.173-0.849-0.479-1.159c-0.31-0.308-0.722-0.479-1.158-0.479h-18.58
		V35.155c0-3.118-2.535-5.653-5.654-5.653C367.307,29.502,339.842,29.502,337.01,29.502z"/>
</g>
</svg>
