<?xml version="1.0" encoding="utf-8"?>
<!-- Generator: Adobe Illustrator 12.0.1, SVG Export Plug-In . SVG Version: 6.00 Build 51448)  -->
<!DOCTYPE svg PUBLIC "-//W3C//DTD SVG 1.1//EN" "http://www.w3.org/Graphics/SVG/1.1/DTD/svg11.dtd" [
	<!ENTITY ns_svg "http://www.w3.org/2000/svg">
	<!ENTITY ns_xlink "http://www.w3.org/1999/xlink">
]>
<svg  version="1.1" id="Layer_1" xmlns="&ns_svg;" xmlns:xlink="&ns_xlink;" width="305" height="301" viewBox="0 0 305 301"
	 overflow="visible" enable-background="new 0 0 305 301" xml:space="preserve">
<g>
	<path fill="#80A8E3" d="M156.522,16.785c-74.106,0-134.183,60.074-134.183,134.182c0,74.108,60.076,134.183,134.183,134.183
		s134.183-60.074,134.183-134.183C290.705,76.859,230.629,16.785,156.522,16.785z M156.522,283.81
		c-50.585,0-91.594-41.009-91.594-91.593c0-50.588,41.009-91.595,91.594-91.595s91.593,41.007,91.593,91.595
		C248.115,242.801,207.107,283.81,156.522,283.81z"/>
	<path fill="#3676D0" d="M156.522,109.268c-48.749,0-88.269,39.516-88.269,88.266c0,47.933,38.211,86.914,85.83,88.209
		c-25.032-1.269-44.938-21.967-44.938-47.314c0-26.165,21.211-47.377,47.376-47.377s47.376,21.212,47.376,47.377
		c0,25.348-19.905,46.046-44.938,47.314c47.619-1.295,85.83-40.276,85.83-88.209C244.791,148.783,205.271,109.268,156.522,109.268z"
		/>
	<circle fill="#314D89" cx="156.522" cy="242.417" r="43.386"/>
</g>
</svg>
