<svg viewBox="0 0 24 24" xmlns="http://www.w3.org/2000/svg"><g fill-rule="evenodd"><path d="m6.004237 1h5.995763l-4 4h2l-9 7 3-6h-2z" fill="#ed8733"/><path d="m6.484375 2-2.40625 3.0039062a1.0001 1.0001 0 0 1 .8164062 1.4433594l-1.0292968 2.0585938 3.5078125-2.7285156a1.0001 1.0001 0 0 1 -.0800781-1.484375l2.2929687-2.2929688z" fill="#f8db8f"/></g><path d="m14 1v5h7v-5zm1 1h5v3h-5zm-1 5v5h7v-5zm1 1h5v3h-5zm-1 5v5h7v-5zm1 1h5v3h-5zm-1 5v5h7v-5zm1 1h5v3h-5z" fill="#3a3a38"/><path d="m15 2v3h5v-3zm0 6v3h5v-3zm0 6v3h5v-3zm0 6v3h5v-3z" fill="#fafafa"/></svg>