<svg viewBox="0 0 24 24" xmlns="http://www.w3.org/2000/svg"><path d="m6.96875 2a.50005.50005 0 0 0 -.3398438.1660156l-4.5 5a.50005.50005 0 0 0 .3710938.8339844h1.5v2.8125.1875h-1.5a.50005.50005 0 0 0 -.5.5v10a.50005.50005 0 0 0 .5.5h10a.50005.50005 0 0 0 .5-.5v-1.5h.1875 2.8125v1.5a.50005.50005 0 0 0 .833984.371094l5-4.5a.50005.50005 0 0 0 0-.742188l-5-4.5a.50005.50005 0 0 0 -.833984.371094v1.5h-2.8125-.1875v-2.5a.50005.50005 0 0 0 -.5-.5h-2.5v-.1875-2.8125h1.5a.50005.50005 0 0 0 .371094-.8339844l-4.5000002-5a.50005.50005 0 0 0 -.3515626-.1660156.50005.50005 0 0 0 -.0507812 0zm.03125 1.25 3.382812 3.75h-1.382812v5h3v3h5v-1.402344l3.753906 3.402344-3.753906 3.378906v-1.378906h-5v2h-9v-9h2v-5h-1.375z" fill="#3a3a38"/><path d="m5 7h-1.375l3.375-3.7500001 3.382813 3.7500001h-1.382813v5h3v3h5v-1.402343l3.753906 3.402343-3.753906 3.378906v-1.378906h-5v2h-9v-9h2z" fill="#fafafa"/></svg>