<svg viewBox="0 0 24 24" xmlns="http://www.w3.org/2000/svg"><path d="m8.9257812 3.3413977c-.2255282.0024966-.4232887.1512125-.4882812.3671875l-1.6953125 5.2757898h-5.2421875c-.4940227.0019539-.70301573.6302557-.3085938.9277344l4.2382813 3.1796876-1.0605469 5.306641c-.098091.481631.4690778.814563.8417969.49414l3.7890625-3.146518 3 2.123081v-.869141c-.000018-.476271.335829-.886479.802734-.980469l.28125-.05664-.158203-.236329c-.264311-.396627-.211998-.924664.125-1.261718l.117188-.117188-.390625-1.298828 3.683594-3.1562499c.364984-.3116191.143977-.9091062-.335938-.9082031h-4.712891l-2.0019528-5.3187585c-.0790856-.197671-.2714822-.3264526-.484375-.3242188z" fill="#ed8733"/><path d="m12 5 .5 1h8.5v-1zm1 2 .5 1h8.5v-1zm5 2 .5 1h4.5v-1zm-1 2-1 1h1 2 4v-1zm3.019531 2 .017578.083984.125-.083984zm1.458985 0a1.0001 1.0001 0 0 1 .05664.050781l.464844.464844v-.515625zm-5.503907.025391-.039062.039062.027344.019531zm7.025391 2.814453c-.024332.037665-.051199.079166-.085938.130859.036564.00576.062407.011103.085938.015625z" fill="#fb983b"/><path d="m9 5.3921789-1.390625 4.2543055c-.0647795.2133324-.2614241.3592296-.484375.3593746h-4.1074219l3.2871094 2.464844c.1552931.117262.2296873.313116.1914063.503906l-.8378907 4.185547 2.9726563-2.445346c.1723796-.148104.4222997-.163275.6113281-.03711l2.8125005 2.000033c.09284-.272392.298516-.491591.564453-.601562l-.916016-3.054688c-.05834-.192014.0022-.400364.154297-.53125l2.898437-2.484375h-3.693359c-.207254.000166-.393703-.1259384-.470703-.318358z" fill="#f8db8f"/><path d="m17 13-.349609 1.744141-1.478516-.986329-.707031.707032-.707032.707031.986329 1.478516-1.744141.349609v1 1l1.744141.349609-.986329 1.478516.707032.707031.707031.707032 1.478516-.986329.349609 1.744141h1 1l.349609-1.744141 1.478516.986329.707031-.707032.707032-.707031-.986329-1.478516 1.744141-.349609v-1-1l-1.744141-.349609.986329-1.478516-.707032-.707031-.707031-.707032-1.478516.986329-.349609-1.744141h-1zm.800781 1h.398438l.300781 1.5h.535156l.378906.378906 1.273438-.847656.28125.28125-.847656 1.273438.378906.378906v.535156l1.5.300781v.398438l-1.5.300781v.535156l-.378906.378906.847656 1.273438-.28125.28125-1.273438-.847656-.378906.378906h-.535156l-.300781 1.5h-.398438l-.300781-1.5h-.535156l-.378906-.378906-1.273438.847656-.28125-.28125.847656-1.273438-.378906-.378906v-.535156l-1.5-.300781v-.398438l1.5-.300781v-.535156l.378906-.378906-.847656-1.273438.28125-.28125 1.273438.847656.378906-.378906h.535156zm.199219 2a2 2 0 0 0 -2 2 2 2 0 0 0 2 2 2 2 0 0 0 2-2 2 2 0 0 0 -2-2zm0 1a1 1 0 0 1 1 1 1 1 0 0 1 -1 1 1 1 0 0 1 -1-1 1 1 0 0 1 1-1z" fill="#1e8bcd"/><path d="m17.800781 14h.398438l.300781 1.5h.535156l.378906.378906 1.273438-.847656.28125.28125-.847656 1.273438.378906.378906v.535156l1.5.300781v.398438l-1.5.300781v.535156l-.378906.378906.847656 1.273438-.28125.28125-1.273438-.847656-.378906.378906h-.535156l-.300781 1.5h-.398438l-.300781-1.5h-.535156l-.378906-.378906-1.273438.847656-.28125-.28125.847656-1.273438-.378906-.378906v-.535156l-1.5-.300781v-.398438l1.5-.300781v-.535156l.378906-.378906-.847656-1.273438.28125-.28125 1.273438.847656.378906-.378906h.535156zm.199219 2c-1.104569 0-2 .895431-2 2s.895431 2 2 2 2-.895431 2-2-.895431-2-2-2z" fill="#fafafa"/></svg>