<svg viewBox="0 0 24 24" xmlns="http://www.w3.org/2000/svg"><path d="m21.500177 2c.276131.0000276.499972.2238691.5.5v19c-.000028.276131-.223869.499972-.5.5h-11c-.276131-.000028-.499972-.223869-.5-.5v-6.5h-2.0000002v1.75c.0000638.43891-.5249502.664958-.84375.363281l-5-4.75c-.208569-.197283-.208569-.529279 0-.726562l5-4.7500002c.3187999-.3016768.8438139-.0756291.84375.3632812v1.75h2.0000002v-6.5c.000028-.2761309.223869-.4999724.5-.5zm-.5 1h-10v7h-4.0000002v-1.5859375l-3.777344 3.5859375 3.777344 3.585938v-1.585938h4.0000002v7h10z" fill="#3a3a38"/><path d="m21.000177 3v18h-10v-7h-4.0000002v1.585938l-3.777344-3.585938 3.777344-3.5859375v1.5859375h4.0000002v-7z" fill="#fafafa"/></svg>