<svg viewBox="0 0 24 24" xmlns="http://www.w3.org/2000/svg"><path d="m16.480469 6.7558594a.49521966.49521966 0 0 0 -.476563.4941406v1.7539062h-13.503906a.49521966.49521966 0 0 0 -.3867188.8046876l1.7519532 2.1914062-1.7519532 2.191406a.49521966.49521966 0 0 0 .3867188.804688h13.503906v1.753906a.49521966.49521966 0 0 0 .837891.359375l5-4.75a.49521966.49521966 0 0 0 0-.71875l-5-4.75a.49521966.49521966 0 0 0 -.361328-.1347656zm.519531 1.6582031 3.777344 3.5859375-3.777344 3.585938v-1.585938h-13.4570312l1.5976562-2-1.5976562-2h13.4570312z" fill="#3a3a38"/><path d="m17 8.4140625v1.5859375h-13.4570312l1.5976562 2-1.5976562 2h13.4570312v1.585938l3.777344-3.585938z" fill="#fafafa"/></svg>