<svg viewBox="0 0 24 24" xmlns="http://www.w3.org/2000/svg"><path d="m6.96875 2a.50005.50005 0 0 0 -.3398438.1660156l-4.5 5a.50005.50005 0 0 0 .3710938.8339844h1.5v8h-1.5a.50005.50005 0 0 0 -.3710938.833984l4.5 5a.50005.50005 0 0 0 .7421876 0l4.5000002-5a.50005.50005 0 0 0 -.371094-.833984h-1.5v-1h6v1.75a.50005.50005 0 0 0 .84375.363281l5-4.75a.50005.50005 0 0 0 -.009766-.734375l-5-4.4999998a.50005.50005 0 0 0 -.833984.3710938v1.5h-6v-1h1.5a.50005.50005 0 0 0 .371094-.8339844l-4.5000002-5a.50005.50005 0 0 0 -.3515626-.1660156.50005.50005 0 0 0 -.0507812 0zm.03125 1.2109375 3.386719 3.7890625h-1.386719v3h8v-1.3730469l4 3.3730469-4 3.59375v-1.59375h-8v3h1.375l-3.375 4-3.3789062-4h1.3789062v-10h-1.3808594z" fill="#3a3a38"/><path d="m7 3.2118641-3.3803878 3.7881356h1.3803878v10.0000003h-1.3789313l3.3789313 4 3.375-4h-1.375v-3h8v1.59375l4-3.59375-4-3.3730489v1.3730486h-8v-3h1.386189z" fill="#fafafa"/></svg>