<svg viewBox="0 0 24 24" xmlns="http://www.w3.org/2000/svg"><path d="m5 3v18h4.5859375l-1.2929687-1.292969a1.0001 1.0001 0 0 1 0-1.414062l1-1a1.0001 1.0001 0 0 1 1.4140622 0l2.292969 2.292969 6-6v-1.171876l-5.292969 5.292969a1.0001 1.0001 0 0 1 -1.414062 0l-4.0000002-4a1.0001 1.0001 0 0 1 0-1.414062l1-1a1.0001 1.0001 0 0 1 1.4140622 0l2.292969 2.292969 6-6.0000005v-.8574219l-4-3.7285156zm14 15.414062-2.585938 2.585938h2.585938z" fill="#fafafa"/><path d="m5 2c-.554 0-1 .446-1 1v18c0 .554.446 1 1 1h5.585938l-1.0000005-1h-4.5859375v-18h9v4c0 .554.446 1 1 1h3.585938l1.382812-1.3828125c-.052183-.139043-.188795-.2914025-.574219-.6425781l-3.30664-3.2382813c-.709525-.7368575-.710169-.7363281-1.09375-.7363281h-.332032-.662109zm15 9.414062-1 1v1.171876l1-1zm0 6-1 1v2.585938h-2.585938l-1 1h3.585938c.554 0 1-.446 1-1z" fill="#3a3a38"/><path d="m15 7h4l-4-4z" fill="#fafafa" fill-rule="evenodd"/><rect fill="#797774" height="1" ry=".5" width="5" x="7" y="5"/><rect fill="#797774" height="1" ry=".5" width="3" x="7" y="9"/><rect fill="#fb983b" height="1" ry=".5" width="5" x="12" y="9"/><path d="m7.5 12c-.277 0-.5.223-.5.5s.223.5.5.5h.5a1.0001 1.0001 0 0 1 .2929688-.707031l.2929687-.292969zm3.914062 0 1 1h1.085938c.038087 0 .071816-.013492.107422-.021484l.371094-.371094c.007992-.035606.021484-.069335.021484-.107422 0-.277-.223-.5-.5-.5z" fill="#fb983b"/><path d="m7.5 15c-.277 0-.5.223-.5.5 0 .065417.013687.127067.0371094.183594.0184689.046847.0471728.086384.078125.125.0058945.007354.0093305.016435.015625.023437.0913989.101682.2210254.167969.3691406.167969h1.3945312.2109376 1.3945312c.025408 0 .046092-.01188.070312-.015625l-.9843745-.984375z" fill="#797774"/><rect fill="#797774" height="1" ry=".474576" width="2" x="12" y="15"/><path d="m10 18-1 1 4 4 10-10-1-1-9 9z" fill="#1e8bcd"/><path d="m7.5 18c-.277 0-.5.223-.5.5s.223.5.5.5h.5a1.0001 1.0001 0 0 1 .2929688-.707031l.2792968-.279297c-.024516-.003667-.0466964-.013672-.0722656-.013672z" fill="#fb983b" fill-opacity=".959559"/><path d="m10 12-.9999999 1 3.9999999 4 10-10-1-1-9 9z" fill="#1e8bcd"/></svg>