<svg viewBox="0 0 24 24" xmlns="http://www.w3.org/2000/svg"><path d="m3 3v14h6.6972656c.7914244-.539872 1.6419114-.798287 2.3886724-.925781 2.12837-2.579298 3.628214-4.657948 5.914062-6.6171878v-6.4570312z" fill="#fafafa"/><path d="m7 3v5h-4v1h4v2h-4v1h4v2h-4v1h4v2h1v-2h4.957031c.348487-.431409.713219-.87937 1.042969-1.285156v-1.714844h1.449219c.29893-.339487.606981-.673179.921875-1h-2.371094v-2h4v-1h-4v-5h-1v5h-5v-5zm1 6h5v2h-5zm0 3h5v2h-5z" fill="#797774"/><path d="m3 2c-.554 0-1 .446-1 1v14c0 .554.446 1 1 1h5.5742188c.2200365-.251484.4672495-.51102.7949218-.777344.1064375-.086509.2188194-.148093.328125-.222656h-.6972656-1-5v-2-1-2-1-2-1-5h5 1 6 1 2v5 1 .4570312c.313674-.268855.652648-.5355015 1-.8007812v-5.65625c0-.554-.446-1-1-1z" fill="#3a3a38"/><path d="m2 2h17v4h-17z" fill="#0063b1"/><path d="m3 3h15v2h-15z" fill="#83beec"/><path d="m21.970703 8c-.177888.00524-.351159.057831-.501953.1523438-4.136759 2.5854742-5.701244 5.0459732-8.738281 8.7089842-.04014.04829-.06967.102376-.09961.15625.409706-.0083.729836-.01975 1.177735.0059.02143.0034.04298.01339.06445.01758 2.766439-3.379599 4.309228-5.654978 8.126956-8.041058v2c-2 2.966753-2.49934 3.999053-5.978516 7.03125-.26113.01278-.39832.0094-.605468.01563.0017.0022.0042.0036.0059.0059.0007.0013.0013.0026.002.0039.228215.309362.343195.639873.421875.978515.07782-.0025.143485.000063.224609-.0039.225039-.01109.439748-.0978.609376-.246094 3.574573-3.115338 4.182424-4.307327 6.15039-7.226562.110822-.165211.169982-.359689.169834-.558639v-2c-.000147-.5637669-.465761-1.0161281-1.029297-1z" fill="#3a3a38"/><path d="m22 9c-3.817728 2.38608-5.360517 4.661459-8.126953 8.041016.004.000773.0078.0031.01172.0039.137473.02769.274213.06825.410156.125.0012.000487.0027-.000489.0039 0 .01481.0062.02821.0169.04297.02344.122855.0544.244606.113765.361328.189453.002.0013.0039.0026.0059.0039.04986.03252.09439.07522.142578.111328.07903.05922.160993.113365.234376.181641.120256.111203.231991.233809.332031.367187.206401-.0062.343606-.0029.603515-.01563 3.479139-3.032182 3.978479-4.064482 5.978479-7.031235z" fill="#fafafa"/><path d="m12.521484 18.03125c-.323926.05073-.668149.136039-.99414.259766-.326113.124095-.634239.287343-.888672.49414-.314064.255263-.429433.449978-.638672.714844l4.261719 1.419922c.192081-.135176.38609-.269973.537109-.419922.19996-.374848.180051-.969421.01758-1.433594v-.002c-.054184-.15472-.124008-.293657-.207033-.406203-.150368-.173668-.346757-.299663-.558594-.390625h-.002c-.212443-.09101-.440245-.147122-.654297-.18164-.428371-.06869-.799057-.05211-.873047-.05469z" fill="#fafafa"/><path d="m12.515625 17.017578c-.05035.000165-.100621.0041-.150391.01172-.773679.12116-1.638455.378043-2.365234.96875-.7182932.583809-1.0383516 1.127975-1.4941406 1.701172-.00197.0032-.00392.0065-.00586.0098l-1.2988275 1.669886c-.5164462.665161-.043284 1.633465.7988281 1.634766h3c.01564-.000305.03126-.000925.04687-.002 1.790411-.084 3.417955-.751558 4.466797-1.792969.07164-.07132.132206-.152947.179687-.242188.28179-.528248.298157-1.043096.242188-1.53125-.05597-.488151-.191681-.954835-.511719-1.388671-.000664-.0013-.0013-.0026-.002-.0039-.411673-.551823-1.022934-.934666-1.613281-1.029296-.491722-.02811-.819751-.01448-1.292969-.0059zm.0059 1.013672c.147979.0052 1.48492-.06945 2.087891.626953.332098.450185.456066 1.341999.189453 1.841797-.151019.149949-.345028.284746-.537109.419922l-4.26176-1.419922c.209239-.264866.324608-.459581.638672-.714844.508867-.413594 1.23496-.65245 1.882812-.753906zm-3.1093746 2.152344 3.3242186 1.476562c-.545471.17759-1.125964.311206-1.736369.339844h-3l1.2988281-1.669922c.044164-.05554.072599-.09372.1132813-.146484z" fill="#0063b1"/><path d="m9.4121094 20.183594c-.040682.05276-.069117.09094-.1132813.146484l-1.2988281 1.669922h3c.610405-.02864 1.190857-.162254 1.736328-.339844z" fill="#83beec"/></svg>