<svg viewBox="0 0 24 24" xmlns="http://www.w3.org/2000/svg"><g fill-rule="evenodd" transform="matrix(-1 0 0 1 23.999864 -2)"><path d="m21.029297 8.9921875c-.134625-.004415-.268771.0181622-.394531.0664063l-18.0000004 9.0000002c-1.046103.402019-.7554516 1.954772.3652344 1.951172h18c.557814.000328 1.010094-.451952 1.009766-1.009766v-9c-.000515-.545803-.434887-.9922885-.980469-1.0078125zm-.029297 1.0078125v9h-18z" fill="#3a3a38" transform="matrix(-1 0 0 1 23.999864 2)"/><path d="m2.999864 12v9h18z" fill="#fafafa"/><path d="m13.5 11.007943c-.276142 0-.5.223858-.5.5s.223858.5.5.5h2c1.380712 0 2.5 1.119287 2.5 2.5h.0059v.423829 6.068228h1v-6.068228-.5c-.0059-2.154663-1.88341-3.373799-3.5059-3.423829z" fill="#1e8bcd" transform="matrix(0 -1 -1 0 30.992857 27)"/></g><path d="m10.505859 1.996094c-.127809 0-.25558.04855-.353515.146484-.1958683.195869-.1958683.513116 0 .708985l3.140625 3.148437h-4.792969c-.277 0-.5.223-.5.5s.223.5.5.5h4.792969l-3.140625 3.148438c-.1958683.195869-.1958682.513115 0 .708984.09794.09793.225706.146484.353515.146484.127808 0 .257539-.04855.355469-.146484l3.992188-4.003906c.04702-.04701.08407-.103236.109375-.166016.02334-.057904.037109-.12105.037109-.1875s-.01377-.129596-.03711-.1875c-.0253-.06278-.06236-.119003-.109375-.166016l-3.992187-4.003906c-.09793-.09793-.227661-.146484-.355469-.146484z" fill="#1e8bcd"/></svg>