<svg viewBox="0 0 24 24" xmlns="http://www.w3.org/2000/svg"><path d="m21.999109 11.967859c-.0087-.130648-.06832-.252667-.166016-.339844l-5-4.4999998c-.321577-.2885135-.833023-.060938-.833984.3710938v1.5h-1v-6.5c-.000028-.2761309-.223869-.4999724-.5-.5h-5c-.276131.0000276-.499972.2238691-.5.5v6.5h-1v-1.5c-.000961-.4320314-.512406-.6596067-.833984-.3710938l-5 4.4999998c-.219839.198558-.219839.54363 0 .742188l5 4.5c.321578.288513.833023.06094.833984-.371094v-1.5h1v6.5c.000028.276131.223869.499972.5.5h5c.276131-.000028.499972-.223869.5-.5v-6.5h1v1.5c.00096.432032.512406.659608.833984.371094l5-4.5c.100495-.09.160365-.216779.166016-.351563.00086-.01692.00086-.03386 0-.05078zm-1.242188.03125-3.757812 3.375v-1.375h-3v7c-1.333333 0-2.666667 0-4 0v-7h-3v1.375l-3.757812-3.375 3.757812-3.375v1.375h3v-7h4v7h3v-1.375z" fill="#3a3a38"/><path d="m20.756921 11.999109-3.757812-3.375v1.375h-3v-7c-1.333333 0-2.666667 0-4 0v7h-3v-1.375l-3.757812 3.375 3.757812 3.375v-1.375h3v7h4v-7h3v1.375z" fill="#fafafa"/></svg>