<svg viewBox="0 0 24 24" xmlns="http://www.w3.org/2000/svg"><g transform="matrix(0 -1 -1 0 24.000089 24.000088)"><path d="m21.500177 2a.50005.50005 0 0 1 .5.5v19a.50005.50005 0 0 1 -.5.5h-11a.50005.50005 0 0 1 -.5-.5v-6.5h-2.0000002v1.75a.50005.50005 0 0 1 -.84375.363281l-5-4.75a.50005.50005 0 0 1 0-.726562l5-4.7500002a.50005.50005 0 0 1 .84375.3632812v1.75h2.0000002v-6.5a.50005.50005 0 0 1 .5-.5zm-.5 1h-10v7h-4.0000002v-1.5859375l-3.777344 3.5859375 3.777344 3.585938v-1.585938h4.0000002v7h10v-9z" fill="#3a3a38"/><path d="m21.000177 3v9 9h-10v-7h-4.0000002v1.585938l-3.777344-3.585938 3.777344-3.5859375v1.5859375h4.0000002v-7z" fill="#fafafa"/></g></svg>