<svg height="24" viewBox="0 0 6.3499999 6.3500002" width="24" xmlns="http://www.w3.org/2000/svg"><g transform="scale(.26458334)"><path d="m3 17v2 .5c.0008555 1.088733.4114743 1.47874 1.5 1.5l.3339844-.001953c3.1477864.0008 6.2955726.001718 9.4433596.001953-.171051-.294699-.277344-.632774-.277344-.998047-.000199-.01629-.000199-.032538 0-.048828v-.953125-2c-3.666667.000038-7.3333333-.000265-11 0z" fill="#d492d8" stroke-width=".999999"/><path d="m10.001953 3.0019531v2.9921875h2.998047c1.095705 0 2.007812.9121048 2.007812 2.0078125s-.920995 1.9999999-2.007812 1.9999999h-2.998047v2.998047c0 1.086821-.9042967 2.007812-1.9999999 2.007812-1.0957031 0-2.0078125-.912104-2.0078125-2.007812v-2.998047h-.9941406v5.998047c3.3333332-.0012 6.666666-.001353 10-.001953v.001953 3.501953c.000804 1.023564.386011 1.415909 1.333984 1.478516.05213-.0033.100346.001103.166016-.029297.830848-.219456 1.5-.951251 1.5-1.800781v-14.650391c.00049-.4615181.160577-.9088376.453125-1.265625.04655-.081523.10464-.1515891.158203-.2265625-3.095629.0005296-5.835346-.0035333-8.609375-.0058594zm-4.0078124.2792969c-.1386074.079646-.2706477.1679008-.3867187.2753906-.091847.085175-.1760611.1777879-.25.2773438v.0019531c-.1479424.1995584-.2583938.4231956-.3144531.6640625v.0019531c-.0278121.1201241-.0429688.2447813-.0429688.3710938v.0019531 1.1191406h.9941406z" fill="#fafafa" stroke-width=".999999"/><path d="m9.7167969 1.9980469c.1763457.2968283.2851561.634953.2851561.9980469v.0039062c2.947704.005652 6.090928.0237845 8.498047 0 .007294-.0040101.012312-.0096127.019531-.0136719.35667-.4651651.871989-.8074359 1.480469-.9316406-.233459-.0194309-.407524-.0537219-.714844-.0546875zm-3.5039063.1191406c-1.2354847.3349972-2.2128906 1.4181767-2.2128906 2.7578125v1.1191406h1v-1.1210937c0-.6675971.4146859-1.2608787.9941406-1.59375v-.2832031c0-.3163983.0833346-.6115359.21875-.8789063zm11.7871094 5.8828125v11.150391c0 .84953-.669152 1.581322-1.5 1.800781v1.048828c1.369643-.231464 2.5-1.406762 2.5-2.849609v-11.150391zm-14 2.001953v5.998047h1v-5.998047z" fill="#3a3a38" stroke-width=".999999"/><path d="m2 16v3.951172c-.0001987.01629-.0001987.03254 0 .04883.0000001 1.104569.8954303 2 2 2h12.5v-.998047-.05078c-.06567.03039-.113882.02597-.166016.0293-.947973-.062607-1.33318-.454958-1.333984-1.478522v-3.501953-.002c-4.333334.000695-8.6666681-.002231-13 .002zm1 .998047h2 9v.001953 2.953125c-.000199.01629-.000199.03254 0 .04883 0 .365273.106293.703348.277344.998047-3.147787-.000235-6.2955732-.0012-9.4433596-.002l-.3339844.001998c-1.0885257-.02126-1.4991445-.411267-1.5-1.5z" fill="#922e9b" stroke-width=".999999"/><path d="m20 2.0546875c-1.162442.2372808-1.998 1.2589016-2 2.4453125v3.5h4c0-1.1666667 0-2.3333333 0-3.5-.002-1.1864102-.837558-2.2080317-2-2.4453125zm0 .9707031c.581939.1187878.999936.6306704 1 1.2246094v.25 2.5c-.666667 0-1.333333 0-2 0 0-.8333333 0-1.6666667 0-2.5v-.25c.000064-.593939.418061-1.1058216 1-1.2246094z" fill="#922e9b" stroke-width="3.779527"/><path d="m20 3.0253906c-.581939.1187878-.999936.6306704-1 1.2246094v.25 2.5h2v-2.5-.25c-.000064-.593939-.418061-1.1058216-1-1.2246094z" fill="#d492d8" stroke-width="3.779527"/><path d="m20 2.0546875c-1.162442.2372808-1.998 1.2589016-2 2.4453125v3.5h4c0-1.1666667 0-2.3333333 0-3.5-.002-1.1864102-.837558-2.2080317-2-2.4453125zm0 .9707031c.581939.1187878.999936.6306704 1 1.2246094v.25 2.5c-.666667 0-1.333333 0-2 0 0-.8333333 0-1.6666667 0-2.5v-.25c.000064-.593939.418061-1.1058216 1-1.2246094z" fill="#922e9b" stroke-width="3.779527"/></g><path d="m2.1166667.52917011c-.1465792 0-.2645833.11799993-.2645833.2645799v1.05833999h-1.05833339c-.14657917 0-.26458334.1180002-.26458334.2645801 0 .14658.11800417.2645799.26458334.2645799h1.05833339v1.05834c0 .1465802.1180041.2645801.2645833.2645801s.2645833-.1179999.2645833-.2645801v-1.05834h1.0583334c.1465792 0 .2645833-.1179999.2645833-.2645799 0-.1465799-.1180041-.2645801-.2645833-.2645801h-1.0583334v-1.05833999c0-.14657997-.1180041-.2645799-.2645833-.2645799z" fill="#3a3a38" stroke-width=".264583"/></svg>