<svg viewBox="0 0 24 24" xmlns="http://www.w3.org/2000/svg"><path d="m7.4843751 1.9999995a.49983993.49983993 0 0 0 -.328125.1367188l-5 4.75a.49983993.49983993 0 0 0 .019531.7441406l5 4.2499991a.49983993.49983993 0 0 0 .824219-.380859v-1.4999995h.4375c.1611123 0 .2677435.06261.3769531.2089835.1092097.146377.1855469.378898.1855469.603516v10.6875a.49983993.49983993 0 0 0 .5.5h4.9999999a.49983993.49983993 0 0 0 .5-.5v-10.6875c0-.224621.07634-.457139.185547-.603516.10921-.146376.215842-.2089835.376953-.2089835h.4375v1.4999995a.49983993.49983993 0 0 0 .824219.380859l5-4.2499991a.49983993.49983993 0 0 0 .01953-.7441406l-5-4.75a.49983993.49983993 0 0 0 -.843749.3632812v1.5h-.4375c-1.653151 0-2.693263 1.1153904-3.5625 1.8515625-.869229-.7361692-1.909317-1.8515625-3.5624999-1.8515625h-.4375v-1.5a.49983993.49983993 0 0 0 -.515625-.5zm-.484375 1.6640625v.023437.8125a.50005.50005 0 0 0 .5.5h.9375c1.2979046 0 2.1818419 1.0776995 3.2597659 1.8984375a.50005.50005 0 0 0 .605468 0c1.077918-.8207344 1.96191-1.8984375 3.259766-1.8984375h.9375a.50005.50005 0 0 0 .5-.5v-.835937l3.751953 3.5644531-3.751953 3.1894529v-.9179685a.50005.50005 0 0 0 -.5-.5h-.9375c-.494792 0-.919621.2653734-1.177734.6113281-.258114.3459548-.384766.7699054-.384766 1.2011714v10.1875h-4v-10.1875c0-.431263-.1266532-.8552158-.3847655-1.2011714-.2581124-.3459555-.6829396-.6113281-1.1777344-.6113281h-.9375a.50005.50005 0 0 0 -.5.5v.9179685l-3.7519531-3.1894529z" fill="#3a3a38"/><path d="m7.0000001 3.664062-3.7519531 3.5644531 3.7519531 3.1894529v-.9179685a.50005.50005 0 0 1 .5-.5h.9375c.4947948 0 .919622.2653726 1.1777344.6113281.2581123.3459556.3847655.7699084.3847655 1.2011714v10.1875h4v-10.1875c0-.431266.126652-.8552166.384766-1.2011714.258113-.3459547.682942-.6113281 1.177734-.6113281h.9375a.50005.50005 0 0 1 .5.5v.9179685l3.751953-3.1894529-3.751953-3.5644531v.8359375a.50005.50005 0 0 1 -.5.5h-.9375c-1.297856 0-2.181848 1.0777031-3.259766 1.8984375a.50005.50005 0 0 1 -.605468 0c-1.077924-.820738-1.9618613-1.8984375-3.2597659-1.8984375h-.9375a.50005.50005 0 0 1 -.5-.5v-.8125z" fill="#fafafa"/></svg>