<svg viewBox="0 0 24 24" xmlns="http://www.w3.org/2000/svg"><path d="m11.96875 21.999355c-.130648-.0087-.252667-.06832-.339844-.166016l-4.4999998-5c-.2885135-.321577-.060938-.833023.3710938-.833984h1.5v-13.5c0-.277.223-.5.5-.5h5c.277 0 .5.223.5.5v13.5h1.5c.432032.00096.659608.512406.371094.833984l-4.5 5c-.09.100495-.216779.160365-.351563.166016-.01692.00086-.03387.00086-.05078 0zm.03125-1.242187 3.375-3.757813h-1.375v-14h-4v14h-1.375z" fill="#3a3a38"/><path d="m12 20.757168-3.375-3.757813h1.375v-14h4v14h1.375z" fill="#fafafa"/></svg>