<svg viewBox="0 0 24 24" xmlns="http://www.w3.org/2000/svg"><path d="m21 2-5.755859.3339844 1.03125 1.7324218-10.7636722 5.7753907h-.00195c-.214701-.1383018-.2111821-.1210558-.3398469-.1992188-.0226226-.0203803-.0489918-.0352092-.0722657-.0546875-.0597522-.0498825-.1217153-.094777-.1855468-.1386718-.0789226-.0544672-.159923-.1035933-.2441406-.1484376-.0632099-.0335494-.1255647-.0657456-.1914063-.09375-.0971864-.0415485-.1970851-.0726158-.2988281-.1015624-.0590111-.016681-.1154912-.0384505-.1757813-.0507813-.160371-.0331382-.3243298-.0517175-.4902343-.0527344-.0039792-.0000244-.0077378-.0019477-.0117188-.0019531-.6898128 0-1.3132986.2806382-1.765625.7324219-.4530387.4524951-.734375 1.0766791-.734375 1.7675781s.2813363 1.315083.734375 1.767578c.1128145.112679.2346052.215117.3671875.304688h.00195c.1325934.08945.2748108.167439.4238282.230468h.00195c.1490364.06291.3046705.113309.4667969.146485.1633239.033549.3326214.050781.5058655.050781.1707811-.000232.3389385-.02239.5039063-.05664.052192-.0108.1011059-.0289.1523437-.04297.1125652-.03094.223033-.06503.3300781-.111329.055173-.02384.1068367-.05232.1601563-.08008.097332-.05065.1909154-.106532.28125-.169922.051983-.03645.103101-.07281.1523437-.113281.029186-.02399.061663-.04297.089844-.06836.1281145-.07783.1259635-.06283.3378906-.199219h.00195l4.4960942 2.267578 6.267578 3.507813-1.03125 1.732422 5.755862.333988-3.177734-4.666016-1.03125 1.732422-6.707031-3.753906-4.0605475-2.023438h-.00195c-.07418-.04939-.051917-.03336-.125-.08203.01986-.06826.036802-.137332.050778-.207032.054788.000519.086061-.0026.1523438 0h.0019532 4.8984375.265625 1.089844 5.644531l.002 2 4.998-2.5-2.6875-1.34375-2.3125-1.15625v2h-5.646484-1.085938-.267578-4.8984375-.0019531c-.00767.000233-.078537-.0032-.1503906 0-.01369-.07041-.031093-.140018-.050781-.208984.065234-.0433.05091-.03143.1210937-.07813l.00195-.002h.00195l4.0644595-2.273386v-.00195l6.703125-3.5019531 1.03125 1.7324218z" fill="#3a3a38"/></svg>