<svg viewBox="0 0 24 24" xmlns="http://www.w3.org/2000/svg"><path d="m11.96875 2c-.130648.00871-.252667.068317-.339844.1660156l-4.4999998 5c-.2885135.3215779-.060938.8330238.3710938.8339844h1.5v13.5c0 .277.223.5.5.5h5c.277 0 .5-.223.5-.5v-13.5h1.5c.432032-.0009604.659608-.5124064.371094-.8339844l-4.5-5c-.089997-.1004949-.216779-.1603644-.351563-.1660156-.016916-.00086-.033865-.00086-.050781 0zm.03125 1.2421875 3.375 3.7578125h-1.375v14h-4v-14h-1.375z" fill="#3a3a38"/><path d="m12 3.2421875-3.375 3.7578125h1.375v14h4v-14h1.375z" fill="#fafafa"/></svg>