<svg viewBox="0 0 24 24" xmlns="http://www.w3.org/2000/svg"><path d="m12.003906 2a.50005.50005 0 0 0 -.330078.1210938l-3.4999999 3a.50005.50005 0 0 0 .3261719.8789062h1.5v2h-1.5a.50005.50005 0 0 0 -.5.5v1.5h-2v-1.5a.50005.50005 0 0 0 -.8789062-.3261719l-3 3.4999999a.50005.50005 0 0 0 0 .652344l3 3.5a.50005.50005 0 0 0 .8789062-.326172v-1.5h2v1.5a.50005.50005 0 0 0 .5.5h1.5v2h-1.5a.50005.50005 0 0 0 -.3261719.878906l3.4999999 3a.50005.50005 0 0 0 .652344 0l3.5-3a.50005.50005 0 0 0 -.326172-.878906h-1.5v-2h1.5a.50005.50005 0 0 0 .5-.5v-1.5h2v1.5a.50005.50005 0 0 0 .878906.326172l3-3.5a.50005.50005 0 0 0 0-.652344l-3-3.4999999a.50005.50005 0 0 0 -.878906.3261719v1.5h-2v-1.5a.50005.50005 0 0 0 -.5-.5h-1.5v-2h1.5a.50005.50005 0 0 0 .326172-.8789062l-3.5-3a.50005.50005 0 0 0 -.322266-.1210938zm-.003906 1.1601562 2.148438 1.8398438h-1.148438v4h2v2h4v-1.1484375l1.839844 2.1484375-1.839844 2.148438v-1.148438h-4v2h-2v4h1.148438l-2.148438 1.839844-2.1484375-1.839844h1.1484375v-4h-2v-2h-4v1.148438l-1.8398438-2.148438 1.8398438-2.1484375v1.1484375h4v-2h2v-4h-1.1484375z" fill="#3a3a38"/><path d="m12 3.1601562-2.1484375 1.8398438h1.1484375v4h-2v2h-4v-1.1484375l-1.8398438 2.1484375 1.8398438 2.148438v-1.148438h4v2h2v4h-1.1484375l2.1484375 1.839844 2.148438-1.839844h-1.148438v-4h2v-2h4v1.148438l1.839844-2.148438-1.839844-2.1484375v1.1484375h-4v-2h-2v-4h1.148438z" fill="#fafafa"/></svg>