<svg viewBox="0 0 24 24" xmlns="http://www.w3.org/2000/svg"><path d="m11 5c-.554 0-1 .446-1 1v9c0 .554.446 1 1 1h4c.554 0 1-.446 1-1v-9c0-.554-.446-1-1-1zm0 1h4v9h-4z" fill="#3a3a38"/><path d="m3 5c-.554 0-1 .446-1 1v15c0 .554.446 1 1 1h4c.554 0 1-.446 1-1v-15c0-.554-.446-1-1-1zm0 1h4v15h-4z" fill="#3a3a38"/><rect fill="#1e8bcd" height="1" ry=".5" transform="scale(1 -1)" width="20" x="2" y="-4"/><path d="m16.99982 8.484375c-.0115.454318.540283.686847.857422.361328l2.144531-2.148437-.002 8.777343c-.017903.350177.241558.525391.500047.525391s.51795-.175214.5-.525391l-.002-8.777343 2.144531 2.148437c.317139.325519.868926.09299.857422-.361328-.0041-.130048-.05875-.25337-.152344-.34375l-2.912112-2.916016c-.160599-.173289-.266379-.223009-.435497-.224609-.169118.0016-.274898.05132-.435547.224609l-2.912109 2.916016c-.09359.09038-.148244.213702-.152344.34375z" fill="#1e8bcd" fill-rule="evenodd"/><g fill="#fafafa"><path d="m3 6h4v15h-4z"/><path d="m11 6h4v9h-4z"/></g></svg>