<svg viewBox="0 0 24 24" xmlns="http://www.w3.org/2000/svg"><path d="m2.9492188 14c-.5263 0-.9492188.422919-.9492188.949219v6.101562c0 .5263.4229188.949219.9492188.949219h8.1015622c.5263 0 .949219-.422919.949219-.949219v-2.050781h-1v2h-8v-6h1v-1z" fill="#3a3a38"/><path d="m3 15v6h8v-2h-6c-.554 0-1-.446-1-1v-3z" fill="#fafafa"/><path d="m12.949219 2c-.5263 0-.949219.4229187-.949219.9492188v2.0507812h1v-2h8v6h-1v1h1.050781c.5263 0 .949219-.4229188.949219-.9492188v-6.1015624c0-.5263-.422919-.9492188-.949219-.9492188z" fill="#3a3a38"/><path d="m13 3v2h6c.554 0 1 .446 1 1v3h1v-6z" fill="#fafafa"/><path d="m6.2542371 6h11.4915259c.694847 0 1.254237.5593897 1.254237 1.2542371v9.4915259c0 .694847-.55939 1.254237-1.254237 1.254237h-11.4915259c-.6948474 0-1.2542371-.55939-1.2542371-1.254237v-9.4915259c0-.6948474.5593897-1.2542371 1.2542371-1.2542371z" fill="#ed8733"/><path d="m6 7h12v10h-12z" fill="#f8db8f"/></svg>