<svg viewBox="0 0 24 24" xmlns="http://www.w3.org/2000/svg"><path d="m2.9492188 12c-.5263 0-.9492188.422919-.9492188.949219v8.101562c0 .5263.4229188.949219.9492188.949219h10.1015622c.5263 0 .949219-.422919.949219-.949219v-1.068359a9.5 9.5 0 0 1 -.5.017578 9.5 9.5 0 0 1 -.5-.025391v1.025391h-10v-8h1.3359375a9.5 9.5 0 0 1 -.2109375-1z" fill="#3a3a38"/><path d="m3 13v8h10v-1.025391a9.5 9.5 0 0 1 -8.6640625-6.974609z" fill="#fafafa"/><path d="m22 10.5a8.5 8.5 0 0 1 -8.5 8.5 8.5 8.5 0 0 1 -8.5-8.5 8.5 8.5 0 0 1 8.5-8.5 8.5 8.5 0 0 1 8.5 8.5z" fill="#ed8733"/><path d="m21 10.5a7.5 7.5 0 0 1 -7.5 7.5 7.5 7.5 0 0 1 -7.5-7.5 7.5 7.5 0 0 1 7.5-7.5 7.5 7.5 0 0 1 7.5 7.5z" fill="#f8db8f"/></svg>