<svg viewBox="0 0 24 24" xmlns="http://www.w3.org/2000/svg"><path d="m2.9492188 12c-.5263 0-.9492188.422919-.9492188.949219v8.101562c0 .5263.4229188.949219.9492188.949219h10.1015622c.5263 0 .949219-.422919.949219-.949219v-8.101562c0-.5263-.422919-.949219-.949219-.949219zm.0507812 1h10v8h-10z" fill="#3a3a38"/><path d="m3 13v8h10v-8z" fill="#fafafa"/><path d="m13.5 2a8.5 8.5 0 0 0 -8.5 8.5 8.5 8.5 0 0 0 .0175781.5h9.0332029c.5263 0 .949219.422919.949219.949219v6.916015a8.5 8.5 0 0 0 7-8.365234 8.5 8.5 0 0 0 -8.5-8.5z" fill="#ed8733"/><path d="m13.5 3a7.5 7.5 0 0 0 -7.5 7.5 7.5 7.5 0 0 0 .0175781.5h8.0332029c.5263 0 .949219.422919.949219.949219v5.890625a7.5 7.5 0 0 0 6-7.339844 7.5 7.5 0 0 0 -7.5-7.5z" fill="#f8db8f"/></svg>