<svg viewBox="0 0 24 24" xmlns="http://www.w3.org/2000/svg"><path d="m2.9492188 12c-.5263 0-.9492188.422919-.9492188.949219v8.101562c0 .5263.4229188.949219.9492188.949219h10.1015622c.5263 0 .949219-.422919.949219-.949219v-8.101562c0-.5263-.422919-.949219-.949219-.949219zm.0507812 1h10v8h-10z" fill="#3a3a38"/><path d="m3 13v8h10v-8z" fill="#fafafa"/><path d="m5.9492188 2c-.5263 0-.9492188.4229188-.9492188.9492188v8.0507812h9.050781c.5263 0 .949219.422919.949219.949219v7.050781h6.050781c.5263 0 .949219-.422919.949219-.949219v-15.1015622c0-.5263-.422919-.9492188-.949219-.9492188z" fill="#ed8733"/><path d="m6 3v8h8a1 1 0 0 1 1 1v6h6v-15z" fill="#f8db8f"/></svg>