<svg viewBox="0 0 24 24" xmlns="http://www.w3.org/2000/svg"><path d="m6 3h13v18h-13z" fill="#fafafa"/><path d="m5.5 2c-.277 0-.5.223-.5.5v1.5h-.5c-.277 0-.5.223-.5.5v3c0 .277.223.5.5.5h.5v8h-.5c-.277 0-.5.223-.5.5v3c0 .277.223.5.5.5h.5v1.5c0 .277.223.5.5.5h14c.277 0 .5-.223.5-.5v-19c0-.277-.223-.5-.5-.5zm.5 1h13v18h-13v-1.5-3-9-3z" fill="#3a3a38"/><path d="m8 12h9v2h-9z" fill="#fb983b"/><path d="m9 15h7v1h-7z" fill="#fb983b"/><path d="m9 3h2v5l-1-1-1 1z" fill="#1e8bcd" fill-rule="evenodd"/></svg>