<svg viewBox="0 0 24 24" xmlns="http://www.w3.org/2000/svg"><g fill="#3a3a38" transform="scale(-1 1)"><rect height="1" ry=".5" width="14.999998" x="-22" y="2"/><rect height="1" ry=".392136" width="15.000005" x="-22" y="10"/><g transform="scale(-1 1)"><path d="m7.4355469 18c-.2417883 0-.4355469.193759-.4355469.435547v.128906c0 .241788.1937586.435547.4355469.435547h4.5644531v-1z"/><path d="m7.5 21c-.277 0-.5.223-.5.5s.223.5.5.5h6.015625l-.464844-.464844a1.0001 1.0001 0 0 1 -.277343-.535156z"/><path d="m7.5 13c-.277 0-.5.223-.5.5s.223.5.5.5h6.015625l.242187-.242188.707032-.707031a1.0001 1.0001 0 0 1 .054687-.050781z"/></g><rect height="1" ry=".5" width="9.000002" x="-16" y="5"/></g><path d="m17 13-.349609 1.744141-1.478516-.986329-.707031.707032-.707032.707031.986329 1.478516-1.744141.349609v1 1l1.744141.349609-.986329 1.478516.707032.707031.707031.707032 1.478516-.986329.349609 1.744141h1 1l.349609-1.744141 1.478516.986329.707031-.707032.707032-.707031-.986329-1.478516 1.744141-.349609v-1-1l-1.744141-.349609.986329-1.478516-.707032-.707031-.707031-.707032-1.478516.986329-.349609-1.744141h-1zm.800781 1h.398438l.300781 1.5h.535156l.378906.378906 1.273438-.847656.28125.28125-.847656 1.273438.378906.378906v.535156l1.5.300781v.398438l-1.5.300781v.535156l-.378906.378906.847656 1.273438-.28125.28125-1.273438-.847656-.378906.378906h-.535156l-.300781 1.5h-.398438l-.300781-1.5h-.535156l-.378906-.378906-1.273438.847656-.28125-.28125.847656-1.273438-.378906-.378906v-.535156l-1.5-.300781v-.398438l1.5-.300781v-.535156l.378906-.378906-.847656-1.273438.28125-.28125 1.273438.847656.378906-.378906h.535156zm.199219 2a2 2 0 0 0 -2 2 2 2 0 0 0 2 2 2 2 0 0 0 2-2 2 2 0 0 0 -2-2zm0 1a1 1 0 0 1 1 1 1 1 0 0 1 -1 1 1 1 0 0 1 -1-1 1 1 0 0 1 1-1z" fill="#1e8bcd"/><path d="m17.800781 14h.398438l.300781 1.5h.535156l.378906.378906 1.273438-.847656.28125.28125-.847656 1.273438.378906.378906v.535156l1.5.300781v.398438l-1.5.300781v.535156l-.378906.378906.847656 1.273438-.28125.28125-1.273438-.847656-.378906.378906h-.535156l-.300781 1.5h-.398438l-.300781-1.5h-.535156l-.378906-.378906-1.273438.847656-.28125-.28125.847656-1.273438-.378906-.378906v-.535156l-1.5-.300781v-.398438l1.5-.300781v-.535156l.378906-.378906-.847656-1.273438.28125-.28125 1.273438.847656.378906-.378906h.535156zm.199219 2c-1.104569 0-2 .895431-2 2s.895431 2 2 2 2-.895431 2-2-.895431-2-2-2z" fill="#fafafa"/><g fill="#1e8bcd"><path d="m2.8571905 7.4177009h1.242161v-4.0358857q0-.1774515.01365-.3685532l-1.0146588.8918078q-.109201.0910009-.2138519.0637006-.1001009-.0318503-.1410513-.0910008l-.2411521-.3321529 1.7426654-1.5424637h.6188055v5.4145479h1.1375101v.5824052h-3.1440779z"/><path d="m4.149402 9.9531033q.3776533 0 .7007062.1137507.3230528.113751.5596549.327603.2366021.213852.3685533.523255.1365012.309403.1365012.705256 0 .332153-.1001009.618806-.095551.282102-.2639023.541454-.1638015.259353-.3822034.509605-.2184019.245702-.4595541.495954l-1.5333635 1.597064q.1729015-.05005.345803-.07735.1774516-.0273.336703-.0273h1.8973668q.1228511 0 .1956517.0728.072801.06825.072801.186552v.459554h-3.9084849v-.259352q0-.07735.03185-.163802.03185-.091.1092009-.163801l1.8518667-1.911017q.2366021-.241152.4231538-.464104.1911016-.222952.3230528-.445904.1319512-.227502.2047518-.459554.072801-.232052.072801-.491405 0-.259352-.081901-.455004-.0773507-.195651-.2138519-.323053-.1365013-.131951-.3230529-.195651-.1865517-.0637-.4049536-.0637-.2138519 0-.3958535.06825-.1820016.0637-.3230528.182001-.1410513.113751-.2411522.277553-.1001009.159251-.1456013.350353-.0364.154701-.1274011.204752-.086451.0455-.2457022.02275l-.3958535-.0637q.0546-.414053.218402-.728006.1683515-.318503.4186037-.532355.2502522-.213852.573305-.323053.3276029-.1092017.7052563-.1092017z"/><path d="m4.2222026 17.953103q.3776534 0 .6916061.109201.3139528.109201.5414548.309403.227502.200202.3503531.482304.1274011.282103.1274011.627906 0 .286652-.072801.509604-.068251.222952-.2002018.391304-.1319511.168351-.3185028.286652-.1865516.113751-.4186037.186552.568755.154701.8554076.518705.2866525.359453.2866525.905458 0 .414053-.1547014.746206-.1547013.327603-.4231537.559655-.2639023.232052-.6188055.354903-.3549031.122851-.7553066.122851-.4641042 0-.791707-.113751-.3276025-.118301-.5596546-.327603-.232052-.209301-.3822034-.491404-.1501513-.282102-.2502522-.618805l.3276029-.141052q.1319512-.0546.2502522-.03185.1228511.02275.1774516.136501.0546.118301.1319512.282103.081901.159251.2184019.309403.1365012.145601.345803.250252.2093019.100101.5232547.100101.3003026 0 .5232546-.100101.222952-.104651.3731033-.263903.1501513-.159251.222952-.359453.077351-.200202.077351-.391303 0-.236602-.059151-.436804-.059151-.204752-.2229519-.345803-.1638015-.145601-.4550041-.227502-.2866525-.0819-.7416565-.0819v-.550555q.3731033-.0046.6324556-.0819.2593523-.0819.4231537-.218402.1638015-.136502.2366021-.327603.072801-.191102.072801-.418604 0-.254802-.077351-.441354-.0728006-.191103-.2093018-.318504-.1319512-.127401-.3185028-.186551-.1820016-.0637-.4004035-.0637-.218402 0-.4004036.06825-.1774516.0637-.3185028.182001-.1410512.113751-.2411521.277553-.095551.159251-.1456013.350353-.0364.154701-.1274011.204752-.086451.0455-.2457022.02275l-.4004036-.0637q.059151-.414053.222952-.728006.1638015-.318503.4140537-.532355.2548022-.213852.5778551-.323053.3276029-.109201.7052562-.109202z"/></g></svg>