<svg viewBox="0 0 24 24" xmlns="http://www.w3.org/2000/svg"><path d="m4.875 2c-1.5840932 0-2.875 1.2909068-2.875 2.875v14.25c0 1.584093 1.2909068 2.875 2.875 2.875h14.25c1.584093 0 2.875-1.290907 2.875-2.875v-14.25c0-1.5840932-1.290907-2.875-2.875-2.875zm0 1h14.25c1.047377 0 1.875.8276234 1.875 1.875v14.25c0 1.047377-.827623 1.875-1.875 1.875h-14.25c-1.0473766 0-1.875-.827623-1.875-1.875v-14.25c0-1.0473766.8276234-1.875 1.875-1.875z" fill="#3a3a38"/><path d="m4.875 3c-1.0473766 0-1.875.8276234-1.875 1.875v14.25c0 1.047377.8276234 1.875 1.875 1.875h14.25c1.047377 0 1.875-.827623 1.875-1.875v-14.25c0-1.0473766-.827623-1.875-1.875-1.875z" fill="#fafafa"/></svg>