<svg viewBox="0 0 24 24" xmlns="http://www.w3.org/2000/svg"><path d="m12 7c-5.3115196.0024714-9.7028687 4.17045-9.9824219 9.474609a.50005.50005 0 0 0 .5.525391h5.0136719a.50005.50005 0 0 0 .4960938-.445312c.2266794-2.027489 1.9325361-3.553152 3.9726562-3.554688a.50005.50005 0 0 0 .017578 0c2.04012.001536 3.745977 1.527198 3.972656 3.554688a.50005.50005 0 0 0 .496094.445312h5.013672a.50005.50005 0 0 0 .5-.525391c-.279553-5.304159-4.670902-9.4721376-9.982422-9.474609a.50005.50005 0 0 0 -.017578 0zm0 1a9 9 0 0 1 8.939453 8h-4.044922a5 5 0 0 0 -4.894531-4 5 5 0 0 0 -4.8984375 4h-4.0351563a9 9 0 0 1 8.9335938-8z" fill="#3a3a38"/><path d="m12 8a9 9 0 0 0 -8.9335938 8h4.0351563a5 5 0 0 1 4.8984375-4 5 5 0 0 1 4.894531 4h4.044922a9 9 0 0 0 -8.939453-8z" fill="#fafafa"/></svg>