<svg viewBox="0 0 24 24" xmlns="http://www.w3.org/2000/svg"><path d="m7.5 2a.50005.50005 0 0 0 -.3535156.1464844l-5 5a.50005.50005 0 0 0 -.1464844.3535156v9a.50005.50005 0 0 0 .1464844.353516l5 5a.50005.50005 0 0 0 .3535156.146484h9a.50005.50005 0 0 0 .353516-.146484l5-5a.50005.50005 0 0 0 .146484-.353516v-9a.50005.50005 0 0 0 -.146484-.3535156l-5-5a.50005.50005 0 0 0 -.353516-.1464844zm.2070312 1h8.5859378l4.707031 4.7070312v8.5859378l-4.707031 4.707031h-8.5859378l-4.7070312-4.707031v-8.5859378z" fill="#3a3a38"/><path d="m7.7070312 3-4.7070312 4.7070312v8.5859378l4.7070312 4.707031h8.5859378l4.707031-4.707031v-8.5859378l-4.707031-4.7070312z" fill="#fafafa"/></svg>