<svg viewBox="0 0 24 24" xmlns="http://www.w3.org/2000/svg"><path d="m18.498047 2c-.04224.0005547-.08424.0064601-.125.0175781l-16.0078126 4.4648438c-.3218312.0890984-.4675231.4626171-.2910156.7460937l8.7363282 14.1406254c.0032.0046.006366.009202.009765.013671l.263672.394532c.092689.139106.24884.222659.416016.222656h.378906l-1.439453-1.439453c-.142097-.142091-.253625-.312767-.328125-.496094-.1469182-.361011-.1469368-.767839 0-1.128906.04846-.119218.117281-.229801.195313-.333985l-6.9921879-11.3183589 14.4980469-4.0449219-1.710938 7.9863278-.128906.517579c-.03039.121253-.016537.24937.039063.361328l.214843.425781 2.115235 4.798828c.3034-.309595.523422-.70446.609375-1.15625l-1.792969-4.066406c-.0031-.0072-.006266-.014395-.009765-.021485l-.136719-.273437.085937-.345703c.0014-.0052.002706-.010395.003906-.015625l1.894532-8.8437502c.068116-.315218-.17561-.611512-.498047-.6054688zm-.195313 15.365234c-.081689.078676-.169232.150994-.261718.216797.092983-.066045.180022-.137367.261718-.216797zm-.322265.259766c-.092541.061354-.189674.114809-.291016.162109.101574-.046956.198439-.100929.291016-.162109zm-.382813.205078c-.103747.042741-.213268.07472-.324218.101563.111433-.026551.22005-.059084.324218-.101563zm-.410156.125c-.141548.028216-.287261.044933-.4375.044922.150312.000011.295665-.017093.4375-.044922z" fill="#3a3a38"/><path d="m17.8125 3.2382812-14.4980469 4.0449219 6.9921879 11.3183589c.04191-.05596.08315-.112448.132812-.162109l2.998047-2.998047c.288523-.288364.679194-.439453 1.060547-.439453.381379 0 .771968.150989 1.060547.439453.575893.575541.575555 1.545588 0 2.121094l-.4375.4375h.878906.75c.625123.000046 1.185516-.256449 1.59375-.667969l-2.117188-4.802734-.214843-.425781c-.0556-.111958-.06945-.240074-.03906-.361328l.128906-.517579z" fill="#fafafa"/><path d="m20.5 11c-.277 0-.5.223-.5.5v3.498047.740234c.000007.0039.000007.0078 0 .01172v.249999c0 .02637-.01171.04897-.01563.07422-.000638.0052-.0013.01042-.002.01563-.173787 1.654316-1.568916 2.910272-3.23237 2.91015h-.75-3.292969l2.144531-2.144531c.195871-.195855.195897-.511253 0-.707031-.09793-.09789-.225711-.146485-.353515-.146485s-.255567.04859-.353516.146485l-2.998047 2.998046c-.04701.04701-.08407.103238-.109375.166016-.04898.120358-.04897.25467 0 .375.0253.06278.06236.119003.109375.166016l2.998047 2.998046c.195897.19578.511163.19578.707031 0 .195897-.195778.195871-.511176 0-.707031l-2.144531-2.144531h4.292969c1.5 0 2.044408-.647996 2.802734-1.148438.589375-.58012.984455-1.328657 1.13086-2.142578.02953-.216981.05027-.434013.05664-.640625.000081-.0038.000081-.0099 0-.01367v-.0039c.001833-.017485.009766-.032811.009766-.050789v-4.5c0-.277-.223-.5-.5-.5z" fill="#1e8bcd"/></svg>