<svg viewBox="0 0 24 24" xmlns="http://www.w3.org/2000/svg"><path d="m9.5 2a.50005.50005 0 0 0 -.5.5v5.5h-3.5a.50005.50005 0 0 0 -.4863281.3867188l-3 13.0000002a.50005.50005 0 0 0 .4863281.613281h3a.50005.50005 0 0 0 .4902344-.402344l1.9199218-9.597656h1.0898438v4.5a.50005.50005 0 0 0 .5.5h12a.50005.50005 0 0 0 .5-.5v-14a.50005.50005 0 0 0 -.5-.5zm.5 1h11v13h-11v-4.5a.50005.50005 0 0 0 -.5-.5h-2a.50005.50005 0 0 0 -.4902344.402344l-1.9199218 9.597656h-1.9628907l2.7714844-12h3.6015625a.50005.50005 0 0 0 .5-.5z" fill="#3a3a38"/><path d="m10 3v5.5a.50005.50005 0 0 1 -.5.5h-3.6015625l-2.7714844 12h1.9628907l1.9199218-9.597656a.50005.50005 0 0 1 .4902344-.402344h2a.50005.50005 0 0 1 .5.5v4.5h11v-13z" fill="#fafafa"/></svg>