<svg viewBox="0 0 24 24" xmlns="http://www.w3.org/2000/svg"><path d="m5.6899498 10.357575q0 .1577-.1036312.261331-.099126.103631-.3379278.103631h-1.7887641l-.2568251 1.531939q.2252851-.04956.4235361-.07209.2027566-.02253.3919962-.02253.4505703 0 .7975094.139676.3469392.135171.5812357.373974.2342966.238802.3514449.567718.121654.324411.121654.707396 0 .473099-.1622053.856083-.1576996.378479-.441559.648822-.2793536.270342-.6623383.414524-.3829848.144183-.8245437.144183-.2568251 0-.4911217-.05407-.2342965-.04956-.4415589-.135169-.2072623-.085608-.3829848-.198251-.1712167-.112642-.3063878-.238802l.2297909-.319905q.081103-.108137.2027566-.108137.081103 0 .1802282.06308.1036311.06308.2478136.144183.1441825.0766.3379278.139676.1937452.06308.4640874.06308.2973764 0 .5361787-.09913.2388023-.09913.4055133-.279354.166711-.180228.2568251-.432547.090114-.256825.090114-.572225 0-.274848-.081103-.495627-.076597-.220779-.2342966-.378479-.1531939-.1577-.3874905-.243308-.2342965-.08561-.5451901-.08561-.4370532 0-.9281748.162205l-.4685928-.144176.4685932-2.771007h2.7574904z" fill="#1e8bcd" transform="translate(0 7.987768)"/><g transform="scale(-1 1)"><rect fill="#3a3a38" height="1" ry=".5" width="14.999998" x="-22" y="2"/><rect fill="#3a3a38" height="1" ry=".392136" width="20" x="-22" y="10"/><rect fill="#1e8bcd" height="1" ry=".436441" width="15.000001" x="-22" y="18"/><rect fill="#1e8bcd" height="1" ry=".5" width="8.999999" x="-16" y="21"/><g fill="#3a3a38"><rect height="1" ry=".392136" width="14" x="-16" y="13"/><rect height="1" ry=".5" width="9.000002" x="-16" y="5"/></g></g><path d="m5.01059 5.8538872h.8560836v.4280419q0 .067585-.045057.1171482-.040551.045057-.121654.045057h-.6893726v1.549962h-.6623383v-1.5499619h-2.5457224q-.090114 0-.1486882-.045057-.0585741-.0495628-.0765969-.1261598l-.076597-.378479 2.8025474-3.8253421h.7073954zm-.6623383-2.4150569q0-.2162737.027034-.4730988l-2.0681176 2.8881557h2.0410836z" fill="#3a3a38"/></svg>