<svg viewBox="0 0 24 24" xmlns="http://www.w3.org/2000/svg"><path d="m11 3c-.554 0-1 .446-1 1v13c0 .554.446 1 1 1h10c.554 0 1-.446 1-1v-13c0-.554-.446-1-1-1zm0 1h10v13h-10z" fill="#3a3a38"/><path d="m11 4v13h10v-13z" fill="#fafafa"/><path d="m7 19h10v-9-1l-3-3h-7z" fill="#fafafa" fill-rule="evenodd"/><path d="m7 5c-.554 0-1 .446-1 1v13c0 .554.446 1 1 1h10c.554 0 1-.446 1-1v-13c0-.554-.446-1-1-1zm0 1h10v13h-10z" fill="#3a3a38"/><path d="m3 7c-.554 0-1 .446-1 1v13c0 .554.446 1 1 1h10c.554 0 1-.446 1-1v-13c0-.554-.446-1-1-1zm0 1h10v13h-10z" fill="#3a3a38"/><path d="m3 8v13h10v-13z" fill="#fafafa"/></svg>