<svg height="24" viewBox="0 0 6.3499999 6.3500002" width="24" xmlns="http://www.w3.org/2000/svg"><path d="m3 17v2 .5c.0008555 1.088733.4114743 1.47874 1.5 1.5l.3339844-.001953c3.1477864.0008 6.2955726.001718 9.4433596.001953-.171051-.294699-.277344-.632774-.277344-.998047-.000199-.01629-.000199-.032538 0-.048828v-.953125-2c-3.666667.000038-7.3333333-.000265-11 0z" fill="#d492d8" stroke-width=".999999" transform="scale(.26458334)"/><path d="m7 3c-.5237076 0-1.023505.2148533-1.3925781.5566406-.091847.085175-.1760611.1777879-.25.2773438v.00195c-.1479424.1995584-.2583938.4231987-.3144531.6640656v.00195c-.027812.1201241-.0429688.2447844-.0429688.3710969v.0019531 11.125c3.3333331-.0012 6.666666-.0014 10-.002v.002 3.501953c.000804 1.023564.386011 1.415909 1.333984 1.478516.05213-.0033.100346.0011.166016-.0293.830848-.219456 1.5-.951248 1.5-1.800778 0-4.883464 0-9.7669273 0-14.650391.00049-.4615181.160577-.9088376.453125-1.265625.04655-.081523.10464-.1515891.158203-.2265625-4.175026.0007142-7.937652-.0083182-11.611328-.0078125z" fill="#fafafa" stroke-width=".999999" transform="scale(.26458334)"/><path d="m1.8520834.52864992v.00051676c-.4191285 0-.79375.3331671-.79375.76067712v2.9434896h.2645833v-2.9440064c0-.26875.2520381-.49609374.5291667-.49609374v.00051676c.9691955-.004252 2.1808443.008516 3.0427084 0 .00193-.001061.00326-.002543.00517-.003617.094369-.12307495.2307113-.21363444.391705-.24649694-.0617694-.00514108-.1078117-.01421393-.1891234-.01446941zm2.9104167 1.58801678v2.9502077c0 .2247715-.1770465.4183915-.396875.4764567l-.0000001.2775023c.3623847-.0612415.6614585-.3722057.6614585-.753959v-2.9502077z" fill="#3a3a38" stroke-width=".264583"/><g transform="scale(.26458334)"><path d="m2 16v3.951172c-.0001987.01629-.0001987.03254 0 .04883.0000001 1.104569.8954303 2 2 2h12.5v-.998047-.05078c-.06567.03039-.113882.02597-.166016.0293-.947973-.062607-1.33318-.454958-1.333984-1.478522v-3.501953-.002c-4.333334.000695-8.6666681-.002231-13 .002zm1 .998047h2 9v.001953 2.953125c-.000199.01629-.000199.03254 0 .04883 0 .365273.106293.703348.277344.998047-3.147787-.000235-6.2955732-.0012-9.4433596-.002l-.3339844.001998c-1.0885257-.02126-1.4991445-.411267-1.5-1.5z" fill="#922e9b" stroke-width=".999999"/><path d="m20 2.0546875c-1.162442.2372808-1.998 1.2589016-2 2.4453125v3.5h4c0-1.1666667 0-2.3333333 0-3.5-.002-1.1864102-.837558-2.2080317-2-2.4453125zm0 .9707031c.581939.1187878.999936.6306704 1 1.2246094v.25 2.5c-.666667 0-1.333333 0-2 0 0-.8333333 0-1.6666667 0-2.5v-.25c.000064-.593939.418061-1.1058216 1-1.2246094z" fill="#922e9b" stroke-width="3.779527"/><path d="m20 3.0253906c-.581939.1187878-.999936.6306704-1 1.2246094v.25 2.5h2v-2.5-.25c-.000064-.593939-.418061-1.1058216-1-1.2246094z" fill="#d492d8" stroke-width="3.779527"/><path d="m20 2.0546875c-1.162442.2372808-1.998 1.2589016-2 2.4453125v3.5h4c0-1.1666667 0-2.3333333 0-3.5-.002-1.1864102-.837558-2.2080317-2-2.4453125zm0 .9707031c.581939.1187878.999936.6306704 1 1.2246094v.25 2.5c-.666667 0-1.333333 0-2 0 0-.8333333 0-1.6666667 0-2.5v-.25c.000064-.593939.418061-1.1058216 1-1.2246094z" fill="#922e9b" stroke-width="3.779527"/></g></svg>