<svg viewBox="0 0 24 24" xmlns="http://www.w3.org/2000/svg"><g fill="#3a3a38" transform="scale(-1 1)"><rect height="1" ry=".446068" width="20" x="-22" y="3"/><rect height="1" ry=".446068" width="20" x="-22" y="6"/><path d="m11.226562 21a1.0001 1.0001 0 0 1 -.277343.535156l-.464844.464844h11.070313c.247121 0 .445312-.198191.445312-.445312v-.109376c0-.247121-.198191-.445312-.445312-.445312z" transform="scale(-1 1)"/><path d="m2.4238281 12c-.2347458 0-.4238281.189082-.4238281.423828v.152344c0 .234746.1890823.423828.4238281.423828h.0957031a1.0001 1.0001 0 0 1 1.2070313-.074219l.1113281.074219h.1425782l.0390624-.197266a1.0001 1.0001 0 0 1 .9804688-.802734zm4.5761719 0a1.0001 1.0001 0 0 1 .9648438.744141c.0220675-.051403.0351562-.108301.0351562-.167969v-.152344c0-.234746-.1890823-.423828-.4238281-.423828z" transform="scale(-1 1)"/><rect height="1" ry=".419102" width="9" x="-11" y="9"/></g><path d="m5 13-.349609 1.744141-1.478516-.986329-.707031.707032-.707032.707031.986329 1.478516-1.744141.349609v1 1l1.744141.349609-.986329 1.478516.707032.707031.707031.707032 1.478516-.986329.349609 1.744141h1 1l.349609-1.744141 1.478516.986329.707031-.707032.707032-.707031-.986329-1.478516 1.744141-.349609v-1-1l-1.744141-.349609.986329-1.478516-.707032-.707031-.707031-.707032-1.478516.986329-.349609-1.744141h-1zm.800781 1h.398438l.300781 1.5h.535156l.378906.378906 1.273438-.847656.28125.28125-.847656 1.273438.378906.378906v.535156l1.5.300781v.398438l-1.5.300781v.535156l-.378906.378906.847656 1.273438-.28125.28125-1.273438-.847656-.378906.378906h-.535156l-.300781 1.5h-.398438l-.300781-1.5h-.535156l-.378906-.378906-1.273438.847656-.28125-.28125.847656-1.273438-.378906-.378906v-.535156l-1.5-.300781v-.398438l1.5-.300781v-.535156l.378906-.378906-.847656-1.273438.28125-.28125 1.273438.847656.378906-.378906h.535156zm.199219 2a2 2 0 0 0 -2 2 2 2 0 0 0 2 2 2 2 0 0 0 2-2 2 2 0 0 0 -2-2zm0 1a1 1 0 0 1 1 1 1 1 0 0 1 -1 1 1 1 0 0 1 -1-1 1 1 0 0 1 1-1z" fill="#1e8bcd"/><path d="m5.800781 14h.398438l.300781 1.5h.535156l.378906.378906 1.273438-.847656.28125.28125-.847656 1.273438.378906.378906v.535156l1.5.300781v.398438l-1.5.300781v.535156l-.378906.378906.847656 1.273438-.28125.28125-1.273438-.847656-.378906.378906h-.535156l-.300781 1.5h-.398438l-.300781-1.5h-.535156l-.378906-.378906-1.273438.847656-.28125-.28125.847656-1.273438-.378906-.378906v-.535156l-1.5-.300781v-.398438l1.5-.300781v-.535156l.378906-.378906-.847656-1.273438.28125-.28125 1.273438.847656.378906-.378906h.535156zm.199219 2c-1.104569 0-2 .895431-2 2s.895431 2 2 2 2-.895431 2-2-.895431-2-2-2z" fill="#fafafa"/><path d="m16 7.75-5.882812 5.882812.125.125.707031.707032a1.0001 1.0001 0 0 1 .251953.986328l4.798828 4.798828 6.25-6.25z" fill="#0063b1" stroke-width=".990929"/><path d="m17.853682-4.773734h6.719044v6.719044h-6.719044z" fill="#83beec" stroke-width=".753277" transform="matrix(.70710679 .70710677 -.70710677 .70710679 0 0)"/></svg>