<svg viewBox="0 0 24 24" xmlns="http://www.w3.org/2000/svg"><path d="m2 2v15.931641c9.264151.171972 15.329296 1.802315 20 4.068359v-15.9316406c-5.45368-3.1546856-12.6068417-3.7894514-20-4.0683594z" fill="#fafafa"/><path d="m7 8-3 2.4 3 2.6v-1c4.423354 0 6.789194.07252 10 1v1l3-2.4-3-2.6v1c-2.737332-.8049597-6.000001-1-10-1z" fill="#1e8bcd"/><path d="m2 2v15.931641c9.264151.171972 15.329296 1.802315 20 4.068359v-15.9316406c-5.45368-3.1546856-12.6068417-3.7894514-20-4.0683594zm1 1.09375c6.7451221.2948813 13.132734.9890028 18 3.6210938v13.7929682c-4.424113-1.915829-10.049404-3.267095-18-3.515624z" fill="#3a3a38"/></svg>