<svg viewBox="0 0 24 24" xmlns="http://www.w3.org/2000/svg"><path d="m12 2c-2.5689034 0-5.1240036.6529417-6.9824219 1.8144531s-3.0175724 2.8591731-3.0175781 4.6230469c.0000057 1.763874 1.1591598 3.461535 3.0175781 4.623047.6104005.3815 1.3142485.68443 2.0507813.951172-.5007363.09631-.9723269.23714-1.3730469.4375-.7531545.376577-1.3203124.978902-1.3203125 1.707031.0000001.59026.4206428 1.061994.9628906 1.433594-.4102495.06306-.8475455.08295-1.1777344.248047-.5333245.266662-.9726562.714423-.9726562 1.287109 0 .277613.1103622.521923.2773438.734375-.2945846.023747-.5920087.05577-.8398438.179687-.3134943.156749-.625.449945-.625.867188s.3115057.71044.625.867188c.3134943.156747.6861634.226562 1.0625.226562s.7490057-.069816 1.0625-.226562c.3134943-.156749.625-.449945.625-.867188 0-.10136-.0634451-.171283-.0957031-.257812.2711886.0453.5003271.164062.7832031.164062.6872232 0 1.369019-.133728 1.9023438-.400391.5333245-.266662.9726562-.714423.9726562-1.287109 0-.268639-.1100312-.503122-.2675781-.710938.9164902-.028838 1.8164441-.204121 2.5097661-.550781.753154-.376577 1.320312-.978902 1.320312-1.707031 0-.533529-.357478-.961275-.816406-1.320312.108019.002299.208287.039062.316406.039062 2.568903 0 5.124004-.652942 6.982422-1.814453 1.858418-1.16151 3.017572-2.859173 3.017578-4.623047-.000006-1.7638738-1.15916-3.4615355-3.017578-4.6230469s-4.413519-1.8144531-6.982422-1.8144531zm0 1c2.405318 0 4.794214.6252903 6.453125 1.6621094s2.546871 2.4302947 2.546875 3.7753906c-.000004 1.3450959-.887964 2.738572-2.546875 3.775391s-4.047807 1.662109-6.453125 1.662109c-2.4053176 0-4.7942144-.62529-6.453125-1.662109s-2.5468707-2.4302951-2.546875-3.775391c.0000043-1.3450959.8879644-2.7385715 2.546875-3.7753906s4.0478074-1.6621094 6.453125-1.6621094zm-3.5625 11.875c.8672419 0 1.729051.185815 2.294922.46875s.767578.607845.767578.8125-.201707.529565-.767578.8125-1.4276801.46875-2.294922.46875-1.7290511-.185815-2.2949219-.46875-.7675781-.607845-.7675781-.8125.2017073-.529565.7675781-.8125 1.42768-.46875 2.2949219-.46875zm-2.375 3.5625c.5563544 0 1.1090375.121902 1.4550781.294922.3460409.17302.4199219.343368.4199219.392578 0 .049212-.0738812.219558-.4199219.392578-.3460406.17302-.8987237.294922-1.4550781.294922s-1.1090375-.121902-1.4550781-.294922c-.3460409-.17302-.4199219-.343368-.4199219-.392578 0-.049212.0738812-.219558.4199219-.392578.3460406-.17302.8987237-.294922 1.4550781-.294922zm-2.375 2.375c.1901366 0 .342109.048723.4765625.09375-.1344535.045027-.2864259.09375-.4765625.09375s-.342109-.048723-.4765625-.09375c.1344535-.04503.2864259-.09375.4765625-.09375z" fill="#3a3a38"/><path d="m12 3c-2.4053176 0-4.7942144.6252903-6.453125 1.6621094s-2.5468707 2.4302947-2.546875 3.7753906c.0000043 1.3450959.8879644 2.738572 2.546875 3.775391s4.0478074 1.662109 6.453125 1.662109c2.405318 0 4.794214-.62529 6.453125-1.662109s2.546871-2.4302951 2.546875-3.775391c-.000004-1.3450959-.887964-2.7385715-2.546875-3.7753906s-4.047807-1.6621094-6.453125-1.6621094zm-3.5625 11.875c-.8672419 0-1.7290511.185815-2.2949219.46875s-.7675781.607845-.7675781.8125.2017073.529565.7675781.8125 1.42768.46875 2.2949219.46875 1.729051-.185815 2.294922-.46875.767578-.607845.767578-.8125-.201707-.529565-.767578-.8125-1.4276801-.46875-2.294922-.46875zm-2.375 3.5625c-.5563544 0-1.1090375.121902-1.4550781.294922-.3460407.17302-.4199219.343366-.4199219.392578 0 .04921.073881.219558.4199219.392578.3460406.17302.8987237.294922 1.4550781.294922s1.1090375-.121902 1.4550781-.294922c.3460407-.17302.4199219-.343366.4199219-.392578 0-.04921-.073881-.219558-.4199219-.392578-.3460406-.17302-.8987237-.294922-1.4550781-.294922zm-2.375 2.375c-.1901366 0-.342109.04872-.4765625.09375.1344535.045027.2864259.09375.4765625.09375s.342109-.048723.4765625-.09375c-.1344535-.045027-.2864259-.09375-.4765625-.09375z" fill="#fafafa"/></svg>