<svg height="24" viewBox="0 0 6.3499999 6.3500002" width="24" xmlns="http://www.w3.org/2000/svg"><g transform="translate(0 -290.64998)"><path d="m1.471228 294.12162-.5208984.26045a.26357618.26357618 0 0 0 -.021704.45889l2.1166667 1.32292a.26357618.26357618 0 0 0 .2790526 0l.2025717-.12661a1.4552083 1.4552083 0 0 1 -.06873-.26717l-.2733683.17053-2.1166666-1.32291.664559-.33228zm1.9709392 1.49759a1.4552083 1.4552083 0 0 0 .00414.0449 1.4552083 1.4552083 0 0 1 -.00414-.0449z" fill="#3a3a38" stroke-width=".264583"/><path d="m1.7327108 294.28544-.6645589.33228 2.1166665 1.32291.2733682-.17053a1.4552083 1.4552083 0 0 1 -.018603-.22531 1.4552083 1.4552083 0 0 1 .127124-.59066l-.2423625.15141a.26357618.26357618 0 0 1 -.2790526 0z" fill="#fafafa" stroke-width=".264583"/><path d="m5.5605469 9.1210938-1.96875.9843752a.99619342.99619342 0 0 0 -.082031 1.734375l8.0000001 5a.99619342.99619342 0 0 0 1.054687 0l.912109-.570313a5.5 5.5 0 0 1 5.023438-3.269531 5.5 5.5 0 0 1 .193359.0098l1.871094-1.169922a.99619342.99619342 0 0 0 -.08203-1.734375l-1.96875-.9843752-.988281.6191406 2.511718 1.2558596-8 5-7.9999996-5 2.5117187-1.2558596z" fill="#3a3a38" transform="matrix(.26458333 0 0 .26458333 -.00000042279 290.65000347249)"/><path d="m6.5488281 9.7402344-2.5117187 1.2558596 7.9999996 5 8-5-2.511718-1.2558596-4.960938 3.0996096a.99619342.99619342 0 0 1 -1.054687 0z" fill="#fafafa" transform="matrix(.26458333 0 0 .26458333 -.00000042279 290.65000347249)"/><path d="m3.175 291.17917a.26357618.26357618 0 0 0 -.1080038.0279l-2.1166666 1.05834a.26357618.26357618 0 0 0 -.021704.45888l2.1166667 1.32292a.26357618.26357618 0 0 0 .2790526 0l2.1166667-1.32292a.26357618.26357618 0 0 0 -.021704-.45888l-2.1166665-1.05834a.26357618.26357618 0 0 0 -.1276411-.0279zm.00982.26355 2.1166666 1.05833-2.1166666 1.32292-2.1166665-1.32292z" fill="#3a3a38" stroke-width=".264583"/><path d="m3.1848184 291.44272-2.1166666 1.05833 2.1166666 1.32292 2.1166665-1.32292z" fill="#fafafa" stroke-width=".264583"/><g transform="matrix(0 .26458333 -.26458333 0 9.789584 290.65)"><path d="m18.5 14a4.5 4.5 0 0 0 -4.5 4.5 4.5 4.5 0 0 0 4.5 4.5 4.5 4.5 0 0 0 4.5-4.5 4.5 4.5 0 0 0 -4.5-4.5zm0 1a3.5 3.5 0 0 1 3.5 3.5 3.5 3.5 0 0 1 -3.5 3.5 3.5 3.5 0 0 1 -3.5-3.5 3.5 3.5 0 0 1 3.5-3.5z" fill="#1e8bcd"/><path d="m22 18.5a3.5 3.5 0 0 1 -3.5 3.5 3.5 3.5 0 0 1 -3.5-3.5 3.5 3.5 0 0 1 3.5-3.5 3.5 3.5 0 0 1 3.5 3.5z" fill="#fafafa"/><path d="m17 21 4-2.5-4-2.5z" fill="#1e8bcd" fill-rule="evenodd"/></g></g></svg>