<svg height="24" viewBox="0 0 6.3499999 6.3500002" width="24" xmlns="http://www.w3.org/2000/svg" xmlns:xlink="http://www.w3.org/1999/xlink"><radialGradient id="a" cx="24.803049" cy="16.542116" gradientTransform="matrix(.31749997 -.00000003 .00000003 .34831202 -2.054135 289.12149)" gradientUnits="userSpaceOnUse" r="10"><stop offset="0" stop-color="#83beec"/><stop offset="1" stop-color="#0063b1"/></radialGradient><g stroke-width=".264583" transform="translate(0 -290.64998)"><path d="m3.2525147 291.17966c-1.4910216-.0219-2.72340566.57657-2.72334803 1.3224v2.64583c0 .73062 1.18457993 1.32292 2.64583333 1.32292 1.4612533 0 2.6458334-.5923 2.6458334-1.32292v-2.64583c.0000553-.71555-1.1378245-1.30144-2.5683187-1.3224z" fill="url(#a)" opacity=".986928"/><path d="m5.8208334 292.36977a2.6458333 1.190625 0 0 1 -2.6458334 1.19062 2.6458333 1.190625 0 0 1 -2.64583333-1.19062 2.6458333 1.190625 0 0 1 2.64583333-1.19063 2.6458333 1.190625 0 0 1 2.6458334 1.19063z" fill="#0063b1"/></g></svg>