<svg viewBox="0 0 24 24" xmlns="http://www.w3.org/2000/svg"><path d="m19.501953.9921875a.50005.50005 0 0 0 -.388672.1953125l-.0039.00586-2.957031 2.953125a.50005.50005 0 1 0 .705078.7070312l2.152344-2.1484375v8.7871103a.50005.50005 0 1 0 1 0v-8.783204l2.140625 2.1445312a.50063745.50063745 0 1 0 .708984-.7070312l-2.951172-2.953125a.50005.50005 0 0 0 -.40625-.2011719z" fill="#1e8bcd" fill-rule="evenodd"/><g fill="#3a3a38"><path d="m12.466688 22h-1.502396q-.255727 0-.415556-.127863-.149174-.127864-.234416-.319659l-1.1933928-3.367071h-5.7751665l-1.1827371 3.356415q-.0639317.181141-.2450716.319659-.1704846.138519-.4155563.138519h-1.50239569l5.25305729-14.0010492h1.9712283zm-8.630784-5.199781h4.7948797l-1.9818834-5.636647q-.1065532-.255727-.2131058-.596697-.1065532-.340969-.2024506-.7352146-.1065526.4049006-.2131058.7458706-.1065526.340969-.2024506.596696z"/><path d="m14 8v14.001953h4.730469c.74587 0 1.407036-.097267 1.982422-.289062.582489-.191795 1.072905-.460521 1.470703-.808594.397797-.355176.700248-.779388.90625-1.269531.206002-.490144.308594-1.032211.308594-1.628907-.000001-.873734-.248848-1.576611-.746094-2.109375-.490144-.539868-1.22213-.905861-2.195313-1.097656.426212-.134967.794867-.312994 1.107422-.533203s.573294-.466394.779297-.736328c.206002-.269934.357582-.563154.457031-.882813.106553-.319658.160156-.651218.160157-.992187-.000001-.568282-.088037-1.075916-.265626-1.523438-.177588-.4546255-.458206-.8378351-.841796-1.1503902-.235739-.2001555-.53144-.359163-.853516-.4980469v2.9648441c.016755.141575.033203.283342.033203.441406 0 .355177-.06088.679459-.181641.970703-.113656.291245-.287068.540091-.521484.746094-.234417.206002-.529589.369474-.884766.490234-.355176.113657-.77211.169922-1.248046.169922h-2.257813v-4.7421875h2.060547v-1.4296875c0-.0332335.016656-.0612885.019531-.09375zm1.939453 7.628906h2.759766c.944768 0 1.640368.209799 2.08789.628906.454626.419109.681641.987623.681641 1.705079 0 .36228-.053604.699163-.160156 1.011718-.09945.305452-.260969.568854-.488282.789063-.220209.220209-.508105.39362-.863281.521484-.348072.12076-.767669.181641-1.257812.181641h-2.759766z"/></g></svg>