<svg viewBox="0 0 24 24" xmlns="http://www.w3.org/2000/svg"><path d="m2.5 2c-.3404189.0653112-.4442045.2686585-.5.5v14c.0000276.276131.2238691.499972.5.5h3.5v4.5c.00113.433187.5150257.660119.8359375.369141l5.3574215-4.869141h9.306641c.276131-.000028.499972-.223869.5-.5v-14c-.000028-.2761309-.223869-.4999724-.5-.5zm.5 1h18v13h-9c-.124355.000331-.244126.046985-.335938.130859l-4.664062 4.240235v-3.871094c-.0000276-.276131-.2238691-.499972-.5-.5h-3.5z" fill="#3a3a38"/><path d="m3 16h3.5c.2761309.000028.4999724.223869.5.5v3.871094l4.664062-4.240235c.091812-.083874.211583-.130528.335938-.130859h9v-13h-18z" fill="#fafafa"/></svg>