<svg height="24" viewBox="0 0 6.3499999 6.3500002" width="24" xmlns="http://www.w3.org/2000/svg"><path d="m6 2v1h-1v1h1v2h-1v1h1v2h-1v1h1v2h-1v1h1v2h-1v1h1v2h-1v1h1 1 2 1 2 1 2 1 2 1 2 1v-1-2-1-1.878906l-1 .5v1.378906h-2v-.378906l-2.552734 1.27539c-.126007.062498-.26376.097768-.404297.103516h1.957031v2h-2v-1.998047c-.3798-.00006-.726924-.214838-.896484-.554687l-.22461-.447266h-1.878906v-2h.878906l-.5-1h-.378906v-.759766l-.992188-1.9843746c-.0061.9562276-.0038 1.4868736-.0059 2.2460936-.000153.01824-.000804.03648-.002.05469v.443357h-.132812c-.01836.03302-.03858.06497-.06055.0957-.242285.328235-.500439.626217-.771394.9043h.964844v2h-2v-1.101562c-.3172813.240032-.6518097.463424-1 .671874v.429688h-.9472656c-.025381.000965-.05079.000965-.076172 0h-.9765624v-.953125c-.00105-.01626-.0017-.03254-.00195-.04883l.00195-.998045v-1-2h.00195l.00195-1h-.0039v-2c-.0000001-.5000001.3375068-.8176528.75-1h-.75v-2h2v1.15625c.2990899-.0887909.6079644-.1331181.9277344-.15625.0240572-.00152.0481614-.0021715.0722656-.0019531v-.9980469h2v1.0078125l1 .00586v-1.0136725h1.998047c.000827-.3461715.180271-.6673988.474609-.8496094.142594-.3007843.320614-.5851668.527344-.84375v-.3066406h-1v1h-2v-1h-1v1h-2v-1h-1v1h-2v-1zm15 0v.3066406c.204838.2565402.379589.5398109.521484.8378906.287745.1760695.467587.4851041.478516.8222657v-.9667969-1zm1 6.0332031c-.01112.3284952-.182634.6306508-.458984.8085938l.458984.9179687v-.7597656zm-15 7.9667969h2v2h-2zm3 0h2v2h-2zm3 0h2v2h-2zm6 0h2v2h-2z" fill="#83beec" transform="scale(.26458334)"/><g fill="#3a3a38" stroke-width=".264583"><path d="m1.3229166 5.6885616v-5.02708327c0-.0732896-.059002-.13229167-.1322916-.13229167-.07329 0-.1322917.0590021-.1322917.13229167v5.02708327c0 .07329.059002.1322917.1322917.1322917.07329 0 .1322916-.059002.1322916-.1322917z"/><path d="m5.8208333 5.1593949c0-.073289-.059002-.1322916-.1322917-.1322916h-5.02708328c-.0732896 0-.13229166.059002-.13229166.1322916 0 .07329.0590021.1322917.13229166.1322917h5.02708328c.07329 0 .1322917-.059002.1322917-.1322917z"/></g><g transform="matrix(.26458334 0 0 .26458334 -.529167 .529167)"><path d="m7 4-1.0197613.018687-3.9802387-.018687c-.931826.0674074-1.26108412.24659-1.80891038 1.0686251-.23536957.5001291-.18812052 1.0060873-.18554966 1.1134571l-.00553996 5.8179178c1.2308966-.665811 2.1877407-1.400014 3-2.5.0025999-.9507136-.0122883-.9878477.007811-2.8527291-.0087902-.7429187.5557234-.8771154.992189-1.1472709z" fill="#0063b1" fill-rule="evenodd" transform="translate(10)"/><path d="m2.0605469 4.9941406c-.3933227.0298039-.5371223.0742138-.6074219.1152344-.0623055.036356-.1932771.1836649-.3769531.4433594-.0369594.0978716-.0676512.2049334-.0761719.3046875-.0102171.1196148-.00388037.1387207 0 .3007812a.99433536.99433536 0 0 1 0 .025391l-.003906 3.7246093c.3212554-.2755246.7352629-.48896 1.0117185-.8378909-.0012383-.6195262-.0106929-.8583307.0058594-2.4121094-.0073824-.6239362.3322038-1.2339661.6914062-1.5292969.0984394-.0809353.1245173-.075221.2109375-.1308593z" fill="#83beec" fill-rule="evenodd" transform="translate(10)"/><path d="m20.5 3-6 3 3.5 7 6-3z" fill="#3a3a38"/><path d="m20.177734 3.9667969-4.710937 2.3554687 2.855469 5.7109374 4.710937-2.3554686z" fill="#fafafa"/><path d="m18.5 8v-5.5c0-2.82779209 4-2.4999999 4 0v3.5" fill="none" stroke="#3a3a38"/></g></svg>