<svg height="24" viewBox="0 0 6.3499999 6.3500002" width="24" xmlns="http://www.w3.org/2000/svg"><g stroke-width=".264583" transform="translate(0 -290.64998)"><path d="m.79375 291.44373h4.7625v4.7625h-4.7625z" fill="#fafafa"/><path d="m.79375 292.23748h1.3229167v3.96875h-1.3229167z" fill="#c8c6c4"/><path d="m.79375 291.17915c-.14657916 0-.26458333.118-.26458333.26458v4.7625c0 .14658.11800417.26459.26458333.26459h4.7625c.1465792 0 .2645834-.11801.2645834-.26459v-4.7625c0-.14658-.1180042-.26458-.2645834-.26458zm0 .26458h1.3229167v1.5875h-1.3229167zm1.5875 0h1.5875v1.5875h-1.5875zm1.8520834 0h1.3229166v1.5875h-1.3229166zm-3.4395834 1.85209h1.3229167v.79375h-1.3229167zm1.5875 0h1.5875v.79375h-1.5875zm1.8520834 0h1.3229166v.79375h-1.3229166zm-3.4395834 1.05833h1.3229167v.79375h-1.3229167zm1.5875 0h1.5875v.79375h-1.5875zm1.8520834 0h1.3229166v.79375h-1.3229166zm-3.4395834 1.05833h1.3229167v.79375h-1.3229167zm1.5875 0h1.5875v.79375h-1.5875zm1.8520834 0h1.3229166v.79375h-1.3229166z" fill="#797774"/><path d="m.52916667 291.17915h5.29166673v1.05833h-5.29166673z" fill="#83beec"/><path d="m.79375 291.17915c-.14657916 0-.26458333.118-.26458333.26458v4.7625c0 .14658.11800417.26459.26458333.26459h4.7625c.1465792 0 .2645834-.11801.2645834-.26459v-4.7625c0-.14658-.1180042-.26458-.2645834-.26458zm0 .26458h1.3229167.2645833 1.5875.2645834 1.3229166v1.5875.26459.79375.26458.79375.26458.79375h-1.3229166-.2645834-1.5875-.2645833-1.3229167v-.79375-.26458-.79375-.26458-.79375-.26459z" fill="#3a3a38"/><path d="m.79375 291.17915c-.14657916 0-.26458333.118-.26458333.26458v.52917.26458h.26458333 4.7625.2645834v-.26458-.52917c0-.14658-.1180042-.26458-.2645834-.26458zm0 .26458h1.3229167v.52917h-1.3229167zm1.5875 0h1.5875v.52917h-1.5875zm1.8520834 0h1.3229166v.52917h-1.3229166z" fill="#0063b1"/></g></svg>