<svg viewBox="0 0 24 24" xmlns="http://www.w3.org/2000/svg"><rect fill="#0063b1" height="15" ry="1" width="5" x="2" y="7"/><path d="m10 2c-.554 0-1 .446-1 1v18c0 .554.446 1 1 1h2.783203c-.476827-.562665-.783203-1.237837-.783203-2v-2-.025391-1.974609-2.025391-1.974609c0-1.22173.825538-2.304307 1.949219-2.9785156.015891-.0095348.034756-.0159867.050781-.0253906v-5.9960938c0-.554-.446-1-1-1z" fill="#3a3a38"/><path d="m3 8h3v13h-3z" fill="#83beec"/><path d="m10 3v18h2.1875c-.11725-.313967-.1875-.646725-.1875-1v-8c0-.837934.393484-1.606401 1-2.2265625v-6.7734375z" fill="#797774"/><path d="m18 10a4 2 0 0 0 -4 2 4 2 0 0 0 4 2 4 2 0 0 0 4-2 4 2 0 0 0 -4-2zm-4 3.794922v6.205078h.003906c0 .376571.264802.834662.976563 1.261719.711761.427056 1.801487.734375 3.019531.734375s2.30777-.307319 3.019531-.734375c.711761-.427057.976563-.885148.976563-1.261719h.003906v-6.205078a5 3 0 0 1 -4 1.205078 5 3 0 0 1 -4-1.205078z" fill="#f8db8f"/><path d="m18 9a5 3 0 0 0 -5 3v8c0 1.656854 2.238576 3 5 3s5-1.343146 5-3v-8a5 3 0 0 0 -5-3zm0 1a4 2 0 0 1 4 2 4 2 0 0 1 -4 2 4 2 0 0 1 -4-2 4 2 0 0 1 4-2zm-4 3.794922a5 3 0 0 0 4 1.205078 5 3 0 0 0 4-1.205078v6.205078h-.003906c0 .376571-.264802.834662-.976563 1.261719-.711761.427056-1.801487.734375-3.019531.734375s-2.30777-.307319-3.019531-.734375c-.711761-.427057-.976563-.885148-.976563-1.261719h-.003906z" fill="#ed8733"/></svg>