<svg viewBox="0 0 24 24" xmlns="http://www.w3.org/2000/svg"><path d="m2 2c-.554 0-1 .446-1 1v18c0 .554.446 1 1 1h20c.554 0 1-.446 1-1v-18c0-.554-.446-1-1-1zm0 1h20v18h-20z" fill="#3a3a38"/><path d="m2 3h20v18h-20z" fill="#fafafa"/><rect fill="#1e8bcd" height="2" ry="1" width="18" x="3" y="5"/><rect fill="#1e8bcd" height="2" ry="1" width="18" x="3" y="13"/><g fill="#3a3a38"><rect height="1" ry=".5" width="6" x="7" y="10"/><rect height="1" ry=".5" width="6" x="15" y="10"/><rect height="1" ry=".5" width="6" x="15" y="8"/><rect height="1" ry=".5" width="6" x="7" y="8"/><rect height="1" ry=".5" width="6" x="7" y="18"/><rect height="1" ry=".5" width="6" x="15" y="18"/><rect height="1" ry=".5" width="6" x="15" y="16"/><rect height="1" ry=".5" width="6" x="7" y="16"/></g></svg>