<svg viewBox="0 0 24 24" xmlns="http://www.w3.org/2000/svg"><path d="m3 10h5v5h-5z" fill="#fafafa"/><path d="m16 1v5h6v-5zm1 1h4v3h-4zm-1 5v5h6v-5zm1 1h4v3h-4zm-1 5v5h6v-5zm1 1h4v3h-4zm-1 5v5h6v-5zm1 1h4v3h-4z" fill="#3a3a38"/><path d="m17 2v3h4v-3zm0 6v3h4v-3zm0 6v3h4v-3zm0 6v3h4v-3z" fill="#fafafa"/><path d="m3 12h5v1h-5z" fill="#18ab50" stroke-width="1.290994"/><path d="m2.5 1c-.277 0-.5.223-.5.5v6c0 .277.223.5.5.5s.5-.223.5-.5v-5.5h3.5c.277 0 .5-.223.5-.5s-.223-.5-.5-.5z" fill="#1e8bcd"/><path d="m2 9v7h7v-7zm1 1h5v5h-5z" fill="#3a3a38"/><path d="m6 10v5h-1v-5z" fill="#18ab50" stroke-width="1.290994"/><path d="m3 18h5v5h-5z" fill="#fafafa"/><path d="m3 20h5v1h-5z" fill="#18ab50" stroke-width="1.290994"/><path d="m2 17v7h7v-7zm1 1h5v5h-5z" fill="#3a3a38"/><path d="m6 18v5h-1v-5z" fill="#18ab50" stroke-width="1.290994"/><path d="m11 1v5h6v-5zm1 1h4v3h-4zm-1 5v5h6v-5zm1 1h4v3h-4zm-1 5v5h6v-5zm1 1h4v3h-4zm-1 5v5h6v-5zm1 1h4v3h-4z" fill="#3a3a38"/><path d="m12 2v3h4v-3zm0 6v3h4v-3zm0 6v3h4v-3zm0 6v3h4v-3z" fill="#fafafa"/></svg>