<svg viewBox="0 0 24 24" xmlns="http://www.w3.org/2000/svg"><path d="m20.666016 4-1.332032 1h.666016v4h-6l-1.333984 1h7.333984v8h-16v-1.5l-1 .75v1.75h18v-15zm-2.666016 2-2.666016 2h3.666016v-2zm-6.666016 5-6.333984 4.75v1.25h14v-6z" fill="#fafafa"/><g fill="#3a3a38"><path d="m22 3-1.333984 1h.333984v15h-18v-1.75l-1 .75v2h20z"/><path d="m19.333984 5-1.333984 1h1v2h-3.666016l-1.333984 1h6v-4zm-6.667968 5-1.332032 1h7.666016v6h-14v-1.25l-1 .75v1.5h16v-8z"/><g fill-rule="evenodd" transform="translate(0 -3)"><path d="m2 6v15l20-15zm1 1h16l-16 12z"/><path d="m3 7h16l-16 12z" fill="#fafafa"/></g></g></svg>