<svg height="24" viewBox="0 0 6.3499999 6.3500002" width="24" xmlns="http://www.w3.org/2000/svg"><g stroke-width=".264583" transform="translate(0 -290.64998)"><path d="m.79375 291.44373h4.7625v4.7625h-4.7625z" fill="#fafafa"/><path d="m.79375 291.17915c-.14657916 0-.26458333.118-.26458333.26458v.66146 4.10104c0 .14658.11800417.26459.26458333.26459h4.7625c.1465792 0 .2645834-.11801.2645834-.26459v-4.10104-.66146c0-.14658-.1180042-.26458-.2645834-.26458zm0 .26458h.13229167 1.19062503.2645833 1.5875.2645834 1.190625.1322916v.1323.26458.13229h-.1322916-1.190625-.2645834-1.5875-.2645833-1.19062503-.13229167v-.13229-.26458zm0 .79375h.13229167 1.19062503.2645833 1.5875.2645834 1.190625.1322916v.1323.52916.13229h-.1322916-1.190625-.2645834-1.5875-.2645833-1.19062503-.13229167v-.13229-.52916zm0 1.05834h.13229167 1.19062503.2645833 1.5875.2645834 1.190625.1322916v.13229.52917.13229h-.1322916-1.190625-.2645834-1.5875-.2645833-1.19062503-.13229167v-.13229-.52917zm0 1.05833h.13229167 1.19062503.2645833 1.5875.2645834 1.190625.1322916v.13229.52917.13229h-.1322916-1.190625-.2645834-1.5875-.2645833-1.19062503-.13229167v-.13229-.52917zm0 1.05833h.13229167 1.19062503.2645833 1.5875.2645834 1.190625.1322916v.1323.52916.13229h-.1322916-1.190625-.2645834-1.5875-.2645833-1.19062503-.13229167v-.13229-.52916z" fill="#797774"/><path d="m.79375 291.44373h1.3229167v4.7625h-1.3229167z" fill="#83beec"/><path d="m.79375 291.17915c-.14657916 0-.26458333.118-.26458333.26458v4.7625c0 .14658.11800417.26459.26458333.26459h4.7625c.1465792 0 .2645834-.11801.2645834-.26459v-4.7625c0-.14658-.1180042-.26458-.2645834-.26458zm0 .26458h4.7625v4.7625h-4.7625z" fill="#3a3a38"/><path d="m.79375 291.17915c-.14657916 0-.26458333.118-.26458333.26458v4.7625c0 .14658.11800417.26459.26458333.26459h1.4552084.1322916v-.13229-.1323-4.7625-.13229-.13229h-.1322916zm0 .26458h1.3229167v.52917h-1.3229167zm0 .79375h1.3229167v.79375h-1.3229167zm0 1.05834h1.3229167v.79375h-1.3229167zm0 1.05833h1.3229167v.79375h-1.3229167zm0 1.05833h1.3229167v.79375h-1.3229167z" fill="#0063b1"/></g></svg>