<svg viewBox="0 0 24 24" xmlns="http://www.w3.org/2000/svg"><path d="m5.53125 2.0996094c-.277 0-.5.223-.5.5v1.2402344l1-.9980469v-.2421875c0-.277-.223-.5-.5-.5zm-.5 5.0390625v.8613281h.8574219zm0 11.8613281v2.599609c0 .277.223.5.5.5s.5-.223.5-.5v-2.599609z" fill="#1e8bcd"/><path d="m2.5 8a.50005.50005 0 0 0 -.5.5v10a.50005.50005 0 0 0 .5.5h6a.50005.50005 0 0 0 .5-.5v-8.6054688c-.1312061.0484272-.2701063.0849323-.421875.09375-.1897638.0110255-.3887415-.026039-.578125-.0957031v8.1074219h-5v-9h3.8984375l-.9960937-1z" fill="#3a3a38"/><path d="m18.5 2c-.277 0-.5.223-.5.5v.3730469l1 .9980469v-1.3710938c0-.277-.223-.5-.5-.5zm-.5 19v.5c0 .277.223.5.5.5s.5-.223.5-.5v-.5z" fill="#1e8bcd"/><path d="m3 9v9h5v-8.1074219c-.2085514-.0767149-.4051862-.1937476-.5585938-.3476562l-.5429687-.5449219z" fill="#fafafa"/><path d="m19.095703 7-.998047 1h2.902344v12h-5v-10.1074219c-.189383.0696641-.388361.1067286-.578125.0957031-.151769-.0088178-.290669-.0453228-.421875-.09375v10.6054688c.000028.276131.223869.499972.5.5h6c.276131-.000028.499972-.223869.5-.5v-13c-.000028-.2761309-.223869-.4999724-.5-.5z" fill="#3a3a38"/><path d="m18.097656 8-1.539062 1.5449219c-.153408.1539086-.350043.2709413-.558594.3476562v10.1074219h5v-12z" fill="#fafafa"/><path d="m8.5039062 1.9906284c-.1345094-.0001797-.2633926.0540499-.3574218.1503906l-2.953125 2.9511719c-.2598107.2006705-.258843.5935846.00195.7929687l2.9492187 2.9589844c.470586.4721232 1.1776173-.234908.7070313-.7070312l-2.140625-2.1484375h10.5781246l-2.140624 2.1484375c-.470586.472123.236445 1.1791542.707031.7070312l2.949219-2.9589844c.260796-.1993841.261764-.5922982.002-.7929687l-2.953169-2.9511719c-.09403-.096341-.222913-.1505703-.357422-.1503906-.4471.0006667-.667685.5446939-.347656.8574219l2.140624 2.140625h-10.5781245l2.140625-2.140625c.320029-.3127281.0994439-.8567554-.3476563-.8574219z" fill="#1e8bcd" fill-rule="evenodd"/></svg>