<svg viewBox="0 0 24 24" xmlns="http://www.w3.org/2000/svg"><g fill="#3a3a38"><rect height="1" ry=".5" width="16" x="7" y="16"/><rect height="15" rx=".5" width="1" x="7" y="2"/><path d="m2.1523438 21.140625c-.4908332.471254.235777 1.197864.7070312.707031 1.6778683-1.668186 3.3289318-3.331205 5-5 .3252697-.318004.09144-.869893-.3632812-.857422-.1297602.0036-.2530305.05754-.34375.150391z" fill-rule="evenodd"/><rect height="14" ry="1" width="4" x="14" y="2"/></g><path d="m15 3h2v12h-2z" fill="#c8c6c4"/><rect fill="#3a3a38" height="11" ry="1" width="4" x="9" y="5"/><path d="m10 6h2v9h-2z" fill="#c8c6c4"/><rect fill="#3a3a38" height="8" ry="1" width="4" x="19" y="8"/><path d="m20 9h2v6h-2z" fill="#c8c6c4"/><path d="m3.1523438 23.140625c-.4908332.471254.235777 1.197864.7070312.707031 1.6778683-1.668186 3.3289318-3.331205 5-5 .32527-.318004.09144-.869893-.3632812-.857422-.1297602.0036-.2530305.05754-.34375.150391z" fill="#1e8bcd" fill-rule="evenodd"/></svg>