<svg viewBox="0 0 24 24" xmlns="http://www.w3.org/2000/svg"><path d="m18 2h1v20h-1z" fill="#3a3a38"/><path d="m5 2h1v20h-1z" fill="#3a3a38"/><path d="m9.503906 1.9902344c-.134509-.0001797-.263392.05405-.357422.1503906l-2.9531246 2.9511719c-.2598107.2006705-.2588399.5935846.0019531.7929687l2.9492185 2.9589844c.470586.4721232 1.177617-.2349081.707031-.7070312l-2.1406245-2.1484376h4.2890625v-1h-4.2890625l2.1406245-2.140625c.320029-.3127281.09944-.8567553-.347656-.8574218z" fill="#1e8bcd" fill-rule="evenodd"/><path d="m2 9h7v11h-7z" fill="#3a3a38"/><path d="m3 10h5v9h-5z" fill="#fafafa"/><g transform="translate(13)"><path d="m2 11h7v9h-7z" fill="#3a3a38"/><path d="m3 12h5v7h-5z" fill="#fafafa"/></g><path d="m14.495202 1.9902344c.134509-.0001797.263392.05405.357422.1503906l2.953125 2.9511719c.25981.2006705.25884.5935846-.002.7929687l-2.949172 2.9589844c-.470586.4721232-1.177617-.2349081-.707031-.7070312l2.140625-2.1484376h-4.289063v-1h4.289063l-2.140625-2.140625c-.320029-.3127281-.09944-.8567553.347656-.8574218z" fill="#1e8bcd" fill-rule="evenodd"/></svg>