<svg viewBox="0 0 24 24" xmlns="http://www.w3.org/2000/svg"><g fill="#1e8bcd"><path d="m12 4c-5.4582355 0-10 3.5141599-10 8 0 4.48584 4.5417645 8 10 8 5.458235 0 10-3.514161 10-8a.51176992.51176992 0 0 0 -.195312-.402344l-9.488282-7.488281a.51176992.51176992 0 0 0 -.316406-.109375zm-.150391 1.0019531 9.132813 7.2089849c-.146436 3.712551-4.041649 6.798828-8.982422 6.798828-5.0360007 0-9.0097656-3.201823-9.0097656-7.009766 0-3.7689141 3.8968373-6.9333464 8.8593746-6.9980469z"/><path d="m15.5 9.9960936c-.09518.00132-.188011.029776-.267578.082031l-9.0000001 5c-.6037629.347058-.036146 1.241988.5351562.84375l8.9999999-5c.431586-.2658456.239286-.9311746-.267578-.925781z"/></g></svg>