<svg viewBox="0 0 24 24" xmlns="http://www.w3.org/2000/svg"><path d="m12 1c-1.104569 0-2 .8954305-2 2-.00021.1331322.01288.2659524.03906.3964844l.46094 4.6035156c-.037282 1.197784-.519187 1.826374-1.5 2h-2c-.554 0-1 .446-1 1v.5 3.5h6 6v-3.5-.5c0-.554-.446-1-1-1h-2c-.980813-.173626-1.462718-.802216-1.5-2l.460938-4.6035156c.026184-.130532.03927-.2633522.039062-.3964844 0-1.1045695-.895431-2-2-2z" fill="#3a3a38"/><path d="m-27 3.0019531c-.563409 0-.998047.4346374-.998047.9980469a1.0014316 1.0014316 0 0 1 0 .00195c-.000105.066436.0064.1320345.01953.1972657a1.0014316 1.0014316 0 0 1 .01367.097656l.460938 4.6035156a1.0014316 1.0014316 0 0 1 .003909.1308627c-.02264.7275425-.18072 1.404689-.595703 1.955078s-1.063542.881939-1.730469 1a1.0014316 1.0014316 0 0 1 -.173828.015625h-1.998047v.498047 2.498047h4.998047 4.998047v-2.498047-.498047h-1.998047a1.0014316 1.0014316 0 0 1 -.173828-.01563c-.666927-.118061-1.315487-.449611-1.730469-1-.414982-.550383-.573058-1.2275314-.595703-1.955073a1.0014316 1.0014316 0 0 1 .0039-.1308594l.460938-4.6035156a1.0014316 1.0014316 0 0 1 .01367-.097656c.01308-.065184.01964-.1307898.01953-.1972657a1.0014316 1.0014316 0 0 1 0-.00195c0-.5634095-.434638-.9980469-.998047-.9980469z" fill="#fafafa" transform="translate(39 -1)"/><path d="m7 16c-.04953.378941-.1148534.747568-.1855469 1.113281 4.0490019 1.543262 7.4139319 1.81388 10.1855469 2.083985v-1.503907c-.015806-.564456-.019809-1.128914 0-1.693359z" fill="#fafafa"/><path d="m6.5351562 18.302734c-.2595486.952437-.5950959 1.857649-1.0351562 2.697266h11.662109c-.010013-.197903-.020193-.395847-.03125-.59375l-.003906.052734c-3.38722-.423568-7.597544-.926453-10.5917968-2.15625z" fill="#f8db8f"/><path d="m6 15c-.5210582 3.34828-1.3438919 5.094659-2 7h14.5c-.194502-1.873405-.385758-2.853914-.5-7zm1 1h10c-.03747 1.067694.007018 2.135431.064453 3.203125-2.783182-.272158-6.17117-.535214-10.2499999-2.089844.0706935-.365713.1360169-.73434.1855469-1.113281zm-.4648438 2.302734c2.9942528 1.229797 7.2045768 1.732682 10.5917968 2.15625l.003906-.052734c.011057.197903.021237.395847.03125.59375h-11.662109c.4400603-.839617.7756075-1.744829 1.0351562-2.697266z" fill="#ed8733"/></svg>