<svg viewBox="0 0 24 24" xmlns="http://www.w3.org/2000/svg"><path d="m2.5 2a.50005.50005 0 0 0 -.5.5v19a.50005.50005 0 0 0 .5.5h5a.50005.50005 0 0 0 .5-.5v-19a.50005.50005 0 0 0 -.5-.5zm7 0a.50005.50005 0 0 0 -.5.5v19a.50005.50005 0 0 0 .5.5h5a.50005.50005 0 0 0 .5-.5v-19a.50005.50005 0 0 0 -.5-.5zm7 0a.50005.50005 0 0 0 -.5.5v19a.50005.50005 0 0 0 .5.5h5a.50005.50005 0 0 0 .5-.5v-19a.50005.50005 0 0 0 -.5-.5zm-13.5 1h4v18h-4zm7 0h4v18h-4zm7 0h4v18h-4z" fill="#3a3a38"/><path d="m3 3v18h4v-18zm7 0v18h4v-18zm7 0v18h4v-18z" fill="#fafafa"/></svg>