<svg viewBox="0 0 24 24" xmlns="http://www.w3.org/2000/svg"><path d="m2.4785156 3.0058594a.50230346.50230346 0 0 0 -.4804687.4941406v13.5c0 .672846.3682318 1.27516.9179687 1.755859.549737.480699 1.2945866.874258 2.1933594 1.203125 1.7975456.657735 4.2183738 1.042969 6.890625 1.042969 2.672251 0 5.093079-.385234 6.890625-1.042969.898773-.328867 1.643622-.722426 2.193359-1.203125s.917969-1.083013.917969-1.755859v-7.5a.50230346.50230346 0 0 0 -.501953-.5019531c-5.203295 0-9.914533-.6800254-13.2832031-1.7480469-1.6843353-.5340107-3.0322187-1.1678483-3.9238281-1.8320312-.8916095-.664183-1.2910157-1.3153303-1.2910157-1.9179688a.50230346.50230346 0 0 0 -.5234375-.4941406zm.5234375 2.5117187c.2247392.2380958.4025068.4918225.6914063.7070313 1.0313204.7682572 2.4667021 1.428277 4.2207031 1.984375 3.3939995 1.0760517 7.9980975 1.7347379 13.0839845 1.7773437v7.0136719c0 .310874-.164481.638058-.576172.998047s-1.056578.717397-1.876953 1.017578c-1.64075.600362-3.970486.982422-6.544922.982422-2.5744366 0-4.904172-.38206-6.5449219-.982422-.8203749-.300181-1.4652626-.657589-1.8769531-1.017578s-.5761719-.687173-.5761719-.998047z" fill="#3a3a38"/><path d="m3.0019531 5.5175781v11.4824219c0 .310874.1644814.638058.5761719.998047s1.0565782.717397 1.8769531 1.017578c1.6407499.600362 3.9704853.982422 6.5449219.982422 2.574436 0 4.904172-.38206 6.544922-.982422.820375-.300181 1.465262-.657589 1.876953-1.017578s.576172-.687173.576172-.998047v-7.0136719c-5.085887-.0426058-9.689985-.701292-13.0839845-1.7773437-1.754001-.556098-3.1893827-1.2161178-4.2207031-1.984375-.2888995-.2152088-.4666671-.4689355-.6914063-.7070313z" fill="#fafafa"/></svg>