<svg viewBox="0 0 24 24" xmlns="http://www.w3.org/2000/svg"><path d="m5.996067 17.435549a.50110183.50110183 0 0 1 .308594-.480469c2.007122-.84121 3.691406-2.787653 3.691406-4.953125 0-2.1742249-1.62847-4.097829-3.691406-4.9570311a.50110183.50110183 0 0 1 -.306641-.4746094.50110183.50110183 0 0 1 .0957-.2851563l3.000003-4.0820312a.50110183.50110183 0 0 1 .601563-.1640625c4.295861 1.832251 7.304687 5.5773602 7.304687 9.9589845v.0039c0 4.381624-3.008826 8.126734-7.304687 9.958985a.50110183.50110183 0 0 1 -.601563-.164057l-2.999999-4.082031a.50110183.50110183 0 0 1 -.09766-.279297zm1.232422-11.0058595c2.112151 1.0886527 3.769531 3.1215813 3.769531 5.5722655 0 2.454066-1.693847 4.488243-3.769531 5.566406l2.408203 3.279297c3.799777-1.753936 6.361328-5.042039 6.361328-8.845703v-.0039c0-3.8036704-2.56155-7.0917725-6.361328-8.8457091z" fill="#3a3a38"/><path d="m7.228489 6.4296895 2.408203-3.2773437c3.799778 1.7539366 6.361328 5.0420388 6.361328 8.8457032v.0039c0 3.803664-2.561551 7.091767-6.361328 8.845703l-2.408203-3.279291c2.075684-1.078163 3.769531-3.11234 3.769531-5.566406 0-2.4506843-1.65738-4.4836128-3.769531-5.5722655z" fill="#fafafa"/></svg>