<svg viewBox="0 0 24 24" xmlns="http://www.w3.org/2000/svg"><path d="m5 3v18h14v-18z" fill="#fafafa"/><rect fill="#1e8bcd" height="1" ry=".5" width="5" x="6" y="5"/><path d="m5 2c-.554 0-1 .446-1 1v18c0 .554.446 1 1 1h14c.554 0 1-.446 1-1v-18c0-.554-.446-1-1-1zm0 1h14v18h-14z" fill="#3a3a38"/><rect fill="#1e8bcd" height="1" ry=".5" width="5" x="13" y="5"/><g fill="#3a3a38"><rect height="1" ry=".5" width="5" x="6" y="9"/><rect height="1" ry=".5" width="5" x="13" y="9"/><rect height="1" ry=".5" width="5" x="6" y="15"/><rect height="1" ry=".5" width="5" x="13" y="15"/><rect height="1" ry=".5" width="5" x="6" y="12"/><rect height="1" ry=".5" width="5" x="13" y="12"/><rect height="1" ry=".5" width="5" x="6" y="18"/><rect height="1" ry=".5" width="5" x="13" y="18"/></g></svg>