<svg viewBox="0 0 24 24" xmlns="http://www.w3.org/2000/svg"><path d="m6.9999992 12.000643c.00247 5.31151 4.1704588 9.702869 9.4746088 9.982422a.50003233.50003233 0 0 0 .525391-.5v-5.013672a.50003233.50003233 0 0 0 -.445312-.496094c-2.027498-.22668-3.553152-1.932527-3.554688-3.972656a.50003233.50003233 0 0 0 0-.01758c.0015-2.040129 1.527189-3.745976 3.554688-3.972656a.50003233.50003233 0 0 0 .445312-.496092v-5.013672a.50003233.50003233 0 0 0 -.525391-.5c-5.30415.279553-9.4721374 4.670911-9.4746088 9.982422a.50003233.50003233 0 0 0 0 .01758zm1 0c.00293-2.275447.9074766-4.537725 2.4746088-6.1875 1.444864-1.521058 3.442255-2.470602 5.525391-2.708984v4.001953a5 5 0 0 0 -4 4.894531 5 5 0 0 0 4 4.898437v4.00586c-2.084254-.238587-4.084277-1.190414-5.529297-2.712891-1.5673025-1.651314-2.4696457-3.914725-2.4707028-6.191406z" fill="#3a3a38"/><path d="m7.9999992 12.000643c.00106 2.276681.9034002 4.540092 2.4707028 6.191406 1.44502 1.522477 3.445043 2.474304 5.529297 2.712891v-4.00586a5 5 0 0 1 -4-4.898437 5 5 0 0 1 4-4.894531v-4.001953c-2.083136.238382-4.080527 1.187926-5.525391 2.708984-1.5671326 1.649775-2.4716808 3.912053-2.4746088 6.1875z" fill="#fafafa"/></svg>