<svg viewBox="0 0 24 24" xmlns="http://www.w3.org/2000/svg"><path d="m7.5 2a.50005.50005 0 0 0 -.4433594.2675781l-5 9.4999999a.50005.50005 0 0 0 0 .464844l5 9.5a.50005.50005 0 0 0 .4433594.267578h9a.50005.50005 0 0 0 .443359-.267578l5-9.5a.50005.50005 0 0 0 0-.464844l-5-9.4999999a.50005.50005 0 0 0 -.443359-.2675781zm.3027344 1h8.3945316l4.738281 9-4.738281 9h-8.3945316l-4.7382813-9z" fill="#3a3a38"/><path d="m7.8027344 3-4.7382813 9 4.7382813 9h8.3945316l4.738281-9-4.738281-9z" fill="#fafafa"/></svg>