<svg viewBox="0 0 24 24" xmlns="http://www.w3.org/2000/svg"><path d="m3 4c-.554 0-1 .446-1 1v14c0 .554.446 1 1 1h18c.554 0 1-.446 1-1v-14c0-.554-.446-1-1-1zm0 1h18v14h-18z" fill="#3a3a38"/><path d="m5-21h14v18h-14z" fill="#fafafa" transform="rotate(90)"/><g fill-rule="evenodd"><path d="m19.441406 6.0019531-3.976562.3613281c-.119767.0111341-.231853.064862-.316406.1503907-.198307.199846-.197167.5216327.001953.7207031l.982421 1.2949219-8.8691401 6.1464841-1.1621094-1.529297c-.306381-.307221-.8319618-.117618-.8710937.314454l-1.2285157 3.980468c-.0296.318667.2378916.586231.5566407.556641l3.9765624-.361328c.1197671-.011134.2318523-.064862.3164063-.150391.198307-.199846.1971669-.521633-.0019531-.720703l-.9824219-1.294922 8.8691405-6.1464842 1.16211 1.5292972c.306381.307221.831961.117618.871093-.314454l1.228516-3.9804682c.0296-.3186665-.237892-.5862307-.556641-.5566407zm-.515625 1.0097657-.847656 2.3613281-.478516-.6464844-.59375-.8027344-.515625-.6972656zm-13.019531 7.4492192.5410156.779296.5683594.820313.4941406.712891-2.4570312.21875z" fill="#0063b1"/><path d="m18.925781 7.0117188-2.435547.2148437 1.587891 2.1464844zm-13.019531 7.4492192-.8535156 2.53125 2.4570312-.21875z" fill="#83beec"/></g></svg>