<svg viewBox="0 0 24 24" xmlns="http://www.w3.org/2000/svg"><path d="m17.435547 18.001641a.50110183.50110183 0 0 1 -.480469-.308594c-.84121-2.007122-2.787653-3.691406-4.953125-3.691406-2.1742249 0-4.097829 1.62847-4.9570311 3.691406a.50110183.50110183 0 0 1 -.4746094.306641.50110183.50110183 0 0 1 -.2851563-.0957l-4.0820312-3.000003a.50110183.50110183 0 0 1 -.1640625-.601563c1.832251-4.295861 5.5773602-7.304687 9.9589845-7.304687h.0039c4.381624 0 8.126734 3.008826 9.958985 7.304687a.50110183.50110183 0 0 1 -.164057.601563l-4.082031 2.999999a.50110183.50110183 0 0 1 -.279297.09766zm-11.0058595-1.232422c1.0886527-2.112151 3.1215813-3.769531 5.5722655-3.769531 2.454066 0 4.488243 1.693847 5.566406 3.769531l3.279297-2.408203c-1.753936-3.799777-5.042039-6.361328-8.845703-6.361328h-.0039c-3.8036703 0-7.0917724 2.56155-8.845709 6.361328z" fill="#3a3a38"/><path d="m6.4296875 16.769219-3.2773437-2.408203c1.7539366-3.799778 5.0420388-6.361328 8.8457032-6.361328h.0039c3.803664 0 7.091767 2.561551 8.845703 6.361328l-3.279291 2.408203c-1.078163-2.075684-3.11234-3.769531-5.566406-3.769531-2.4506843 0-4.4836128 1.65738-5.5722655 3.769531z" fill="#fafafa"/></svg>