<svg viewBox="0 0 24 24" xmlns="http://www.w3.org/2000/svg"><path d="m3.5 2a.50005.50005 0 0 0 -.5.5v16a.50005.50005 0 0 0 .1386719.345703c1.9688943 2.065983 3.7749443 2.954932 5.59375 2.898438 1.8074641-.056142 3.5223841-1.00357 5.4355471-2.347657 2.721607-1.587576 4.354374-2.165353 6.388672-2.40039a.50005.50005 0 0 0 .443359-.496094v-14a.50005.50005 0 0 0 -.5-.5zm.5 1h16v13.109375c-1.974572.288065-3.748227.914357-6.335938 2.423828a.50005.50005 0 0 0 -.035156.023438c-1.87571 1.320926-3.444756 2.1415-4.925781 2.1875-1.4424539.044804-2.9092813-.62367-4.703125-2.460938z" fill="#3a3a38"/><path d="m4 3v15.283203c1.7938437 1.837268 3.2606711 2.505742 4.703125 2.460938 1.481025-.046 3.050071-.866574 4.925781-2.1875a.50005.50005 0 0 1 .03516-.02344c2.58771-1.509471 4.361362-2.135761 6.335934-2.423826v-13.109375z" fill="#fafafa"/></svg>