<svg viewBox="0 0 24 24" xmlns="http://www.w3.org/2000/svg"><g transform="matrix(0 1 -1 0 23.999024 -.000976)"><path d="m12 2a10 5 0 0 0 -10 5 10 5 0 0 0 10 5 10 5 0 0 0 10-5 10 5 0 0 0 -10-5zm0 1a9 4 0 0 1 9 4 9 4 0 0 1 -9 4 9 4 0 0 1 -9-4 9 4 0 0 1 9-4zm-9.1972656 6.8632812c-.5526033-.0018525-.8024285.2345038-.8027344.7871098l.0019531 6.349609c.0002633.855828.4017634 1.635947.9824219 2.246094s1.3456295 1.093934 2.2460938 1.49414c1.8004676.800209 4.1631685 1.257579 6.7675782 1.257813h.001953c2.60441-.000234 4.967111-.457604 6.767578-1.257813.900464-.400206 1.665436-.883993 2.246094-1.49414.580659-.610147.982159-1.390266.982422-2.246094l.002-6.349609c-.000353-.552606-.250177-.7889594-.802782-.7871098-.269643.0008852-.728643.4193728-.916015.6132808-1.327434 1.377832-4.633009 2.523278-8.279297 2.525391h-.002c-3.646242-.002091-6.9518165-1.147559-8.27925-2.525391-.1873724-.193906-.6463708-.612396-.9160156-.6132808zm18.1972656 1.3007808v5.835938a9 4 0 0 1 -.03711.335938 9 4 0 0 1 -.05664.203124 9 4 0 0 1 -.06641.199219 9 4 0 0 1 -.0957.189453 9 4 0 0 1 -.117188.201172 9 4 0 0 1 -.132812.179688 9 4 0 0 1 -.160157.195312 9 4 0 0 1 -.183593.181641 9 4 0 0 1 -.195313.179687 9 4 0 0 1 -.216797.167969 9 4 0 0 1 -.251953.181641 9 4 0 0 1 -.214844.134765 9 4 0 0 1 -.328125.191407 9 4 0 0 1 -.224609.113281 9 4 0 0 1 -.376953.179687 9 4 0 0 1 -.283203.117188 9 4 0 0 1 -.371094.144531 9 4 0 0 1 -.34375.117188 9 4 0 0 1 -.373047.11914 9 4 0 0 1 -.390625.105469 9 4 0 0 1 -.378906.0957 9 4 0 0 1 -.455078.09766 9 4 0 0 1 -.339844.06836 9 4 0 0 1 -.429688.07031 9 4 0 0 1 -.480468.07031 9 4 0 0 1 -.345703.03906 9 4 0 0 1 -.498047.05078 9 4 0 0 1 -.414063.02734 9 4 0 0 1 -.478515.02734 9 4 0 0 1 -.759765.01564 9 4 0 0 1 -.759766-.015625 9 4 0 0 1 -.478515-.027344 9 4 0 0 1 -.414063-.027343 9 4 0 0 1 -.4980466-.050782 9 4 0 0 1 -.3457032-.039062 9 4 0 0 1 -.4804687-.070313 9 4 0 0 1 -.4296875-.070312 9 4 0 0 1 -.3398438-.06836 9 4 0 0 1 -.4550781-.097656 9 4 0 0 1 -.3789062-.095703 9 4 0 0 1 -.390625-.105469 9 4 0 0 1 -.3730469-.11914 9 4 0 0 1 -.34375-.117188 9 4 0 0 1 -.3710938-.144531 9 4 0 0 1 -.2832031-.117188 9 4 0 0 1 -.3769531-.179687 9 4 0 0 1 -.2246094-.113281 9 4 0 0 1 -.328125-.191407 9 4 0 0 1 -.2148437-.134765 9 4 0 0 1 -.2519531-.181641 9 4 0 0 1 -.2167969-.167969 9 4 0 0 1 -.1953125-.179687 9 4 0 0 1 -.1835938-.181641 9 4 0 0 1 -.1601562-.195312 9 4 0 0 1 -.1328125-.179688 9 4 0 0 1 -.1171875-.201172 9 4 0 0 1 -.0957032-.189453 9 4 0 0 1 -.0664062-.199219 9 4 0 0 1 -.0566406-.203124 9 4 0 0 1 -.0371094-.335938v-5.830078a10 5 0 0 0 .265625.24414 10 5 0 0 0 .2792969.244141 10 5 0 0 0 .2402343.175781 10 5 0 0 0 .3339844.234375 10 5 0 0 0 .2890625.171875 10 5 0 0 0 .3515625.201172 10 5 0 0 0 .3496094.167969 10 5 0 0 0 .3847656.179687 10 5 0 0 0 .3496094.140626 10 5 0 0 0 .4257812.162109 10 5 0 0 0 .4257813.136719 10 5 0 0 0 .4355469.132812 10 5 0 0 0 .3457031.08984 10 5 0 0 0 .5625.134766 10 5 0 0 0 .3535156.07031 10 5 0 0 0 .5683594.103516 10 5 0 0 0 .5078125.07031 10 5 0 0 0 .4121094.05273 10 5 0 0 0 .5859376.05078 10 5 0 0 0 .425781.0332 10 5 0 0 0 .554688.01953 10 5 0 0 0 .552734.01369 10 5 0 0 0 .580078-.01563 10 5 0 0 0 .515625-.01758 10 5 0 0 0 .607422-.04687 10 5 0 0 0 .355469-.03125 10 5 0 0 0 .503906-.06445 10 5 0 0 0 .53125-.07422 10 5 0 0 0 .367188-.06836 10 5 0 0 0 .521484-.101563 10 5 0 0 0 .476562-.115234 10 5 0 0 0 .419922-.105469 10 5 0 0 0 .449219-.138672 10 5 0 0 0 .404297-.130859 10 5 0 0 0 .361328-.136719 10 5 0 0 0 .443359-.177734 10 5 0 0 0 .310547-.146485 10 5 0 0 0 .390625-.189453 10 5 0 0 0 .34375-.197265 10 5 0 0 0 .308594-.185547 10 5 0 0 0 .289063-.201172 10 5 0 0 0 .28125-.205078 10 5 0 0 0 .248046-.21875 10 5 0 0 0 .291016-.267578z" fill="#3a3a38"/><path d="m12 3a9 4 0 0 0 -9 4 9 4 0 0 0 9 4 9 4 0 0 0 9-4 9 4 0 0 0 -9-4zm9 8.164062a10 5 0 0 1 -9 2.835938 10 5 0 0 1 -9-2.830078v5.830078a9 4 0 0 0 9 4 9 4 0 0 0 9-4z" fill="#fafafa"/></g></svg>