<svg viewBox="0 0 24 24" xmlns="http://www.w3.org/2000/svg"><path d="m2.5 2a.50005.50005 0 0 0 -.5.5v6a.50005.50005 0 0 0 .5.5h6a.50005.50005 0 0 0 .5-.5v-6a.50005.50005 0 0 0 -.5-.5zm8 0a.50005.50005 0 0 0 -.5.5v6a.50005.50005 0 0 0 .5.5h11a.50005.50005 0 0 0 .5-.5v-6a.50005.50005 0 0 0 -.5-.5zm-7.5 1h5v5h-5zm8 0h10v5h-10zm-8.5 7a.50005.50005 0 0 0 -.5.5v11a.50005.50005 0 0 0 .5.5h6a.50005.50005 0 0 0 .5-.5v-11a.50005.50005 0 0 0 -.5-.5zm8 0a.50005.50005 0 0 0 -.5.5v11a.50005.50005 0 0 0 .5.5h11a.50005.50005 0 0 0 .5-.5v-11a.50005.50005 0 0 0 -.5-.5zm-7.5 1h5v10h-5zm8 0h10v10h-10z" fill="#3a3a38"/><path d="m3 3v5h5v-5zm8 0v5h10v-5zm-8 8v10h5v-10zm8 0v10h10v-10z" fill="#fafafa"/></svg>