<svg viewBox="0 0 24 24" xmlns="http://www.w3.org/2000/svg"><path d="m2.9492188 11c-.5263 0-.9492188.422919-.9492188.949219v9.101562c0 .5263.4229188.949219.9492188.949219h11.1015622c.5263 0 .949219-.422919.949219-.949219v-1.050781h-1v1h-11v-9h1v-1z" fill="#3a3a38"/><path d="m3 12v9h11v-1h-9c-.554 0-1-.446-1-1v-7z" fill="#fafafa"/><path d="m5.9492188 2c-.5263 0-.9492188.4229188-.9492188.9492188v7.0507812 1 7.050781c0 .5263.4229188.949219.9492188.949219h9.0507812 6.050781c.5263 0 .949219-.422919.949219-.949219v-15.1015622c0-.5263-.422919-.9492188-.949219-.9492188h-6.050781z" fill="#ed8733"/><path d="m6 3v15h15v-15z" fill="#f8db8f"/></svg>