<svg height="24" viewBox="0 0 6.3499999 6.3500002" width="24" xmlns="http://www.w3.org/2000/svg"><g transform="translate(0 -290.64998)"><g transform="matrix(.26458333 0 0 .26458333 0 290.64998)"><path d="m3 2v19h9.773438a1.0001 1.0001 0 0 1 .152343-.726562l.158203-.236329-.28125-.05664a1.0001 1.0001 0 0 1 -.802734-.980469v-1-1a1.0001 1.0001 0 0 1 .802734-.980469l.28125-.05664-.158203-.236329a1.0001 1.0001 0 0 1 .125-1.261718l.707031-.707032.707032-.707031a1.0001 1.0001 0 0 1 1.261718-.125l.236329.158203.05664-.28125a1.0001 1.0001 0 0 1 .980469-.802734h1 1a1.0001 1.0001 0 0 1 .980469.802734l.05664.28125.236329-.158203a1.0001 1.0001 0 0 1 1.261718.125l.464844.464844v-11.515625z" fill="#fafafa"/><path d="m7 2v4h-4v1h4v4h-4v1h4v4h-4v1h4v4h1v-4h4a1.0001 1.0001 0 0 1 .802734-.980469l.197266-.039062v-.142578l-.074219-.111329a1.0001 1.0001 0 0 1 .074219-1.205078v-2.521484h4 1 1 3v-1h-4v-4h4v-1h-4v-4h-1v4h-4v-4h-1v4h-4v-4zm1 5h4v4h-4zm5 0h4v4h-4zm-5 5h4v4h-4zm4 7v2h.773438a1.0001 1.0001 0 0 1 .152343-.726562l.074219-.111329v-.142578l-.197266-.039062a1.0001 1.0001 0 0 1 -.802734-.980469z" fill="#797774"/><path d="m3 1c-.554 0-1 .4459969-1 1v19c0 .554003.446 1 1 1h10.515625l-.464844-.464844a1.0001 1.0001 0 0 1 -.277343-.535156h-9.773438v-19h19v11.515625l.242188.242187.707031.707032a1.0001 1.0001 0 0 1 .050781.054687v-12.519531c0-.5540031-.446-1-1-1zm20 14.839844c-.024332.037682-.051199.079184-.085938.130859.036563.005411.062407.011233.085938.015625zm0 4.179687-.083984.017578.083984.125z" fill="#3a3a38"/></g><g fill="#1e8bcd" transform="matrix(.26458333 0 0 .26458333 0 290.65)"><path d="m12 7v4h-4v-4z" opacity=".5" stroke-width=".561952"/><path d="m7 6v1 4 1h6v-1-4-1zm1 1h4v4h-4z"/></g><path d="m4.4979167 294.08956-.092501.46147-.3911907-.26096-.1870687.18707-.1870688.18707.2609662.39119-.4614707.0925v.26458.26458l.4614707.0925-.2609662.39119.1870688.18707.1870687.18707.3911907-.26096.092501.46147h.2645833.2645833l.092501-.46147.3911907.26096.1870687-.18707.1870688-.18707-.2609662-.39119.4614707-.0925v-.26458-.26458l-.4614707-.0925.2609662-.39119-.1870688-.18707-.1870687-.18707-.3911907.26096-.092501-.46147h-.2645833zm.2118733.26459h.10542l.079582.39687h.141593l.1002522.10025.3369305-.22427.074414.0744-.2242757.33693.1002522.10025v.1416l.396875.0796v.10542l-.396875.0796v.1416l-.1002522.10025.2242757.33693-.074414.0744-.3369305-.22427-.1002522.10025h-.1415933l-.0795817.39685h-.10542l-.079582-.39687h-.141593l-.1002522-.10025-.3369305.22427-.074414-.0744.2242757-.33693-.1002523-.10025v-.1416l-.396875-.0796v-.10542l.396875-.0796v-.1416l.1002523-.10025-.2242757-.33693.074414-.0744.3369305.22427.1002522-.10025h.1415933zm.05271.52916a.52916667.52916667 0 0 0 -.5291667.52917.52916667.52916667 0 0 0 .5291667.52917.52916667.52916667 0 0 0 .5291667-.52917.52916667.52916667 0 0 0 -.5291667-.52917zm0 .26459a.26458333.26458333 0 0 1 .2645833.26458.26458333.26458333 0 0 1 -.2645833.26458.26458333.26458333 0 0 1 -.2645833-.26458.26458333.26458333 0 0 1 .2645833-.26458z" fill="#1e8bcd"/><path d="m4.70979 294.35415h.10542l.079582.39687h.141593l.1002522.10025.3369305-.22427.074414.0744-.2242757.33693.1002522.10025v.1416l.396875.0796v.10542l-.396875.0796v.1416l-.1002522.10025.2242757.33693-.074414.0744-.3369305-.22427-.1002522.10025h-.1415933l-.0795817.39685h-.10542l-.079582-.39687h-.141593l-.1002522-.10025-.3369305.22427-.074414-.0744.2242757-.33693-.1002523-.10025v-.1416l-.396875-.0796v-.10542l.396875-.0796v-.1416l.1002523-.10025-.2242757-.33693.074414-.0744.3369305.22427.1002522-.10025h.1415933zm.05271.52916c-.2922505 0-.5291667.23692-.5291667.52917s.2369162.52917.5291667.52917.5291667-.23692.5291667-.52917-.2369162-.52917-.5291667-.52917z" fill="#fafafa"/></g></svg>