<svg viewBox="0 0 24 24" xmlns="http://www.w3.org/2000/svg"><g fill="#3a3a38" transform="matrix(1 0 0 -1 0 24)"><rect height="3" rx="1" width="18" x="3" y="2"/><path d="m3.5 14c-.277 0-.5.223-.5.5v1c0 .277.223.5.5.5h4.984375a1.507838 1.507838 0 0 1 -.5546875-1.546875l.1074219-.453125zm8.490234 1.552734-1.394531.447266h.904297c.258356 0 .46295-.196404.490234-.447266z" transform="matrix(1 0 0 -1 0 24)"/></g><g fill="#fb983b" transform="translate(-3 -9)"><path d="m20.419922 11c-.189562 0-.378184.07172-.523438.216797l-1.673828 1.669922 2.847656 2.849609 1.710938-1.638672c.290506-.290127.290506-.756747 0-1.046875l-1.835938-1.833984c-.145254-.145064-.335828-.216797-.52539-.216797zm0 .990234 1.582031 1.580078-.917969.88086-1.5625-1.5625z" fill="#0063b1" transform="translate(1 1)"/><path d="m21.419922 12.990234-.898438.898438 1.5625 1.5625.917969-.88086z" fill="#83beec"/><g transform="translate(1 1)"><path d="m12.708984 18.376953-.002-.002-.706984.707078.002.002-.05078.05078-.95122 3.865189 3.806641-1.011719 6.24414-6.271484-2.828125-2.830078zm5.511719-4.191406 1.53125 1.533203-4.841797 4.861328-1.550781-1.552734zm-5.509765 5.708984 1.34375 1.341797-1.791016.476563z" fill="#0063b1"/><path d="m18.220703 14.185547 1.53125 1.533203-4.841797 4.861328-1.550781-1.552734zm-5.509765 5.708984 1.34375 1.341797-1.791016.476563z" fill="#83beec"/></g></g></svg>