<svg viewBox="0 0 24 24" xmlns="http://www.w3.org/2000/svg"><path d="m17.435547 6.9980469a.50110183.50110183 0 0 0 -.480469.3085937c-.84121 2.0071219-2.787653 3.6914064-4.953125 3.6914064-2.1742249 0-4.097829-1.6284703-4.9570311-3.6914064a.50110183.50110183 0 0 0 -.4746094-.3066406.50110183.50110183 0 0 0 -.2851563.0957031l-4.0820312 2.9999999a.50110183.50110183 0 0 0 -.1640625.601563c1.832251 4.295861 5.5773602 7.304687 9.9589845 7.304687h.003906c4.381624 0 8.126734-3.008826 9.958985-7.304687a.50110183.50110183 0 0 0 -.164063-.601563l-4.082031-2.9999999a.50110183.50110183 0 0 0 -.279297-.0976562zm-11.0058595 1.2324219c1.0886527 2.1121512 3.1215813 3.7695312 5.5722655 3.7695312 2.454066 0 4.488243-1.693847 5.566406-3.7695312l3.279297 2.4082032c-1.753936 3.799777-5.042039 6.361328-8.845703 6.361328h-.003906c-3.8036645 0-7.0917666-2.56155-8.8457032-6.361328z" fill="#3a3a38"/><path d="m6.4296875 8.2304688-3.2773437 2.4082032c1.7539366 3.799778 5.0420388 6.361328 8.8457032 6.361328h.0039c3.803664 0 7.091767-2.561551 8.845703-6.361328l-3.279291-2.4082032c-1.078163 2.0756842-3.11234 3.7695312-5.566406 3.7695312-2.4506843 0-4.4836128-1.65738-5.5722655-3.7695312z" fill="#fafafa"/></svg>