<svg viewBox="0 0 24 24" xmlns="http://www.w3.org/2000/svg"><path d="m11.998047 2c-2.0133322-.000125-4.0255247.6894695-5.7832032 2.0585938a.20901439.20901439 0 0 0 -.0195313.3125l5.6562495 5.6562502a.20901439.20901439 0 0 0 .296876 0l5.65625-5.6562502a.20901439.20901439 0 0 0 -.019532-.3125c-1.761133-1.3684753-3.773777-2.0584689-5.787109-2.0585938zm0 .9882812c1.505063.0000935 2.987116.5328612 4.380859 1.4101563l-4.378906 4.3789063-4.3808594-4.3808594c1.3911034-.8770547 2.8739424-1.4082965 4.3789064-1.4082032zm-7.779297 3.1464844a.20901439.20901439 0 0 0 -.1621094.0800782c-2.7259524 3.5122887-2.7327447 8.0528082 0 11.5703122a.20901439.20901439 0 0 0 .3144532.019532l5.6562502-5.65625a.20901439.20901439 0 0 0 0-.296876l-5.6562502-5.6562495a.20901439.20901439 0 0 0 -.1523438-.0605469zm15.539062 0a.20901439.20901439 0 0 0 -.128906.0605469l-5.65625 5.6562495a.20901439.20901439 0 0 0 0 .296876l5.65625 5.65625a.20901439.20901439 0 0 0 .314453-.019532c2.725869-3.512206 2.732748-8.0528051 0-11.5703122a.20901439.20901439 0 0 0 -.185547-.0800782zm-15.3613276 1.484375 4.3808594 4.3808594-4.3808594 4.380859c-1.7571242-2.783655-1.7538525-5.981106 0-8.7617184zm15.2070316 0c1.757109 2.7836604 1.7538 5.9811574 0 8.7617184l-4.38086-4.380859zm-7.607422 6.2929684a.20901439.20901439 0 0 0 -.144532.060547l-5.6562495 5.65625a.20901439.20901439 0 0 0 .0195313.314453c3.5175044 2.732745 8.0580242 2.725953 11.5703122 0a.20901439.20901439 0 0 0 .019532-.314453l-5.65625-5.65625a.20901439.20901439 0 0 0 -.152344-.060547zm.003906 1.310547 4.380859 4.38086c-2.780612 1.753852-5.978062 1.757124-8.7617184 0z" fill="#3a3a38"/><path d="m11.998047 2.9882812c-1.504964-.0000934-2.987803.5311485-4.3789064 1.4082032l4.3808594 4.3808594 4.378906-4.3789063c-1.393743-.8772951-2.875796-1.4100629-4.380859-1.4101563zm-7.6015626 4.6308594c-1.7538525 2.7806124-1.7571242 5.9780634 0 8.7617184l4.3808594-4.380859zm15.2070316 0-4.38086 4.3808594 4.38086 4.380859c1.7538-2.780561 1.757109-5.978058 0-8.7617184zm-7.603516 7.6035154-4.3808594 4.38086c2.7836564 1.757124 5.9811064 1.753852 8.7617184 0z" fill="#fafafa"/></svg>