<svg viewBox="0 0 24 24" xmlns="http://www.w3.org/2000/svg"><path d="m5 4c-.554 0-1 .446-1 1v8c0 .554.446 1 1 1h10c.554 0 1-.446 1-1v-8c0-.554-.446-1-1-1zm0 1h10v8h-10z" fill="#3a3a38"/><path d="m5 5h10v8h-10z" fill="#fafafa"/><path d="m2 2v3h3v-3zm1 1h1v1h-1z" fill="#0063b1"/><path d="m15 2v3h3v-3zm1 1h1v1h-1z" fill="#0063b1"/><path d="m16 3h1v1h-1z" fill="#fafafa"/><path d="m3 3h1v1h-1z" fill="#fafafa"/><path d="m2 13v3h3v-3zm1 1h1v1h-1z" fill="#0063b1"/><path d="m3 14h1v1h-1z" fill="#fafafa"/><path d="m9 10c-.554 0-1 .446-1 1v8c0 .554.446 1 1 1h10c.554 0 1-.446 1-1v-8c0-.554-.446-1-1-1zm0 1h10v8h-10z" fill="#3a3a38"/><path d="m19 19v3h3v-3zm1 1h1v1h-1z" fill="#0063b1"/><path d="m20 20h1v1h-1z" fill="#fafafa"/><path d="m6 19v3h3v-3zm1 1h1v1h-1z" fill="#0063b1"/><path d="m7 20h1v1h-1z" fill="#fafafa"/><path d="m6 8v3h3v-3zm1 1h1v1h-1z" fill="#0063b1"/><path d="m7 9h1v1h-1z" fill="#fafafa"/><path d="m9 11h10v8h-10z" fill="#fafafa"/><path d="m19 8v3h3v-3zm1 1h1v1h-1z" fill="#0063b1"/><path d="m20 9h1v1h-1z" fill="#fafafa"/></svg>