<svg viewBox="0 0 24 24" xmlns="http://www.w3.org/2000/svg"><path d="m7.5 2a.50005.50005 0 0 0 -.4433594.2675781l-5 9.4999999a.50005.50005 0 0 0 0 .464844l5 9.5a.50005.50005 0 0 0 .4433594.267578h9c1.581897 0 2.953374-1.237523 3.923828-3.046875.970455-1.809352 1.576172-4.254276 1.576172-6.953125s-.605717-5.1437734-1.576172-6.953125c-.970454-1.8093516-2.341931-3.046875-3.923828-3.046875zm.3027344 1h8.6972656c1.041456 0 2.169262.8905591 3.042969 2.5195312.873707 1.6289722 1.457031 3.9326127 1.457031 6.4804688 0 2.547856-.583324 4.851497-1.457031 6.480469s-2.001513 2.519531-3.042969 2.519531h-8.6972656l-4.7382813-9z" fill="#3a3a38"/><path d="m7.8027344 3-4.7382813 9 4.7382813 9h8.6972656c1.041456 0 2.169262-.890559 3.042969-2.519531s1.457031-3.932613 1.457031-6.480469c0-2.5478561-.583324-4.8514966-1.457031-6.4804688-.873707-1.6289721-2.001513-2.5195312-3.042969-2.5195312z" fill="#fafafa"/></svg>