<svg viewBox="0 0 24 24" xmlns="http://www.w3.org/2000/svg"><path d="m5 4c-.554 0-1 .446-1 1v8c0 .554.446 1 1 1h10c.554 0 1-.446 1-1v-8c0-.554-.446-1-1-1zm0 1h10v8h-10z" fill="#3a3a38"/><path d="m5 5h10v8h-10z" fill="#fafafa"/><path d="m9 10c-.554 0-1 .446-1 1v8c0 .554.446 1 1 1h10c.554 0 1-.446 1-1v-8c0-.554-.446-1-1-1zm0 1h10v8h-10z" fill="#3a3a38"/><path d="m16 11v2c0 .554-.446 1-1 1h-6v5h10v-8z" fill="#fafafa"/><g fill="#0063b1"><path d="m2 2v3h3v-3zm1 1h1v1h-1z"/><path d="m19 2v3h3v-3zm1 1h1v1h-1z"/><path d="m2 19v3h3v-3zm1 1h1v1h-1z"/><path d="m19 19v3h3v-3zm1 1h1v1h-1z"/></g><g fill="#fafafa"><path d="m20 3h1v1h-1z"/><path d="m20 3h1v1h-1z" transform="translate(-17)"/><path d="m20 3h1v1h-1z" transform="translate(-17 17)"/><path d="m20 3h1v1h-1z" transform="translate(0 17)"/></g></svg>