<svg viewBox="0 0 24 24" xmlns="http://www.w3.org/2000/svg"><path d="m8.4375 2a.50005.50005 0 0 0 -.3535156.1464844l-5.9375 5.9375a.50005.50005 0 0 0 -.1464844.3535156v7.125a.50005.50005 0 0 0 .1464844.353516l5.9375 5.9375a.50005.50005 0 0 0 .3535156.146484h7.125a.50005.50005 0 0 0 .353516-.146484l5.9375-5.9375a.50005.50005 0 0 0 .146484-.353516v-7.125a.50005.50005 0 0 0 -.146484-.3535156l-5.9375-5.9375a.50005.50005 0 0 0 -.353516-.1464844zm.2070312 1h6.7109378l5.644531 5.6445312v6.7109378l-5.644531 5.644531h-6.7109378l-5.6445312-5.644531v-6.7109378z" fill="#3a3a38"/><path d="m8.6445312 3-5.6445312 5.6445312v6.7109378l5.6445312 5.644531h6.7109378l5.644531-5.644531v-6.7109378l-5.644531-5.6445312z" fill="#fafafa"/></svg>