<svg viewBox="0 0 24 24" xmlns="http://www.w3.org/2000/svg"><path d="m16.999922 12.000643c-.0025 5.31151-4.170459 9.702869-9.474609 9.982422a.50003233.50003233 0 0 1 -.525391-.5v-5.013672a.50003233.50003233 0 0 1 .445312-.496094c2.027498-.22668 3.553152-1.932527 3.554688-3.972656a.50003233.50003233 0 0 1 0-.01758c-.0015-2.040129-1.527189-3.745976-3.554688-3.972656a.50003233.50003233 0 0 1 -.445312-.496092v-5.013672a.50003233.50003233 0 0 1 .525391-.5c5.30415.279553 9.472137 4.670911 9.474609 9.982422a.50003233.50003233 0 0 1 0 .01758zm-1 0c-.00293-2.275447-.907477-4.537725-2.474609-6.1875-1.444864-1.521058-3.442255-2.470602-5.525391-2.708984v4.001953a5 5 0 0 1 4 4.894531 5 5 0 0 1 -4 4.898437v4.00586c2.084254-.238587 4.084277-1.190414 5.529297-2.712891 1.567303-1.651314 2.469646-3.914725 2.470703-6.191406z" fill="#3a3a38"/><path d="m15.999922 12.000643c-.0011 2.276681-.9034 4.540092-2.470703 6.191406-1.44502 1.522477-3.445043 2.474304-5.529297 2.712891v-4.00586a5 5 0 0 0 4-4.898437 5 5 0 0 0 -4-4.894531v-4.001953c2.083136.238382 4.080527 1.187926 5.525391 2.708984 1.567133 1.649775 2.471681 3.912053 2.474609 6.1875z" fill="#fafafa"/></svg>