<svg viewBox="0 0 24 24" xmlns="http://www.w3.org/2000/svg"><path d="m4 3v18h4.0039062v-11.5c-.0001523-.8157147.6531713-1.4812012 1.46875-1.4960938.3528311-.0066415.6966528.1116552.9707028.3339844l7.556641 6.1367184v-7.7460934l-4-3.7285156z" fill="#fafafa"/><path d="m4 2c-.554 0-1 .446-1 1v18c0 .554.446 1 1 1h4.0039062v-1h-4.0039062v-18h9v4c0 .554.446 1 1 1h4v6.474609l1 .8125v-4.396484-3.640625-.2089844c0-.4506799.098038-.4254121-.605469-1.0664062l-3.30664-3.2382813c-.709525-.7368575-.710169-.7363281-1.09375-.7363281h-.332032-.662109zm8.263672 19.714844-.263672.285156h.398438z" fill="#3a3a38"/><path d="m14 7h4l-4-4z" fill="#fafafa" fill-rule="evenodd"/><path d="m9.4902344 9.0019533a.49916258.49916258 0 0 0 -.4902344.4980469v12.9999998a.49916258.49916258 0 0 0 .8671875.339844l2.6699215-2.886719 1.396485 2.970703-.01953-.04687c.163359.463401.556257.7688.964844.892578.408588.123778.843466.103165 1.246094-.02734.402628-.130512.78484-.377525 1.029297-.765626.244456-.388099.311868-.918809.126953-1.443359a.49916258.49916258 0 0 0 -.02148-.05078l-1.687506-3.482431h3.779296a.49916258.49916258 0 0 0 .314454-.886719l-9.8515629-7.9999996a.49916258.49916258 0 0 0 -.3242187-.1113281zm.5214846 1.5722657 7.898437 6.414062h-3.134765a.51155848.51155848 0 0 0 -.460938.734375l2.013672 4.154297c.09417.274138.05762.422557-.0293.560547-.08813.139908-.264977.27263-.484375.34375-.219398.07111-.469978.07377-.642578.02148s-.255517-.12224-.304687-.261718a.51155848.51155848 0 0 0 -.01953-.04687l-1.710937-3.642579a.51155848.51155848 0 0 0 -.837891-.130859l-2.287109 2.472656z" fill="#3a3a38"/><path d="m10.011719 10.574219v10.61914l2.287109-2.472656a.51155848.51155848 0 0 1 .837891.130859l1.710937 3.642579a.51155848.51155848 0 0 1 .01953.04687c.04917.139478.132087.20943.304687.261718.1726.05229.42318.04963.642578-.02148.219398-.07112.396249-.203842.484375-.34375.08692-.13799.123466-.286409.0293-.560547l-2.013672-4.154297a.51155848.51155848 0 0 1 .460938-.734375h3.134765z" fill="#fafafa" fill-rule="evenodd"/></svg>