<svg viewBox="0 0 24 24" xmlns="http://www.w3.org/2000/svg"><path d="m11.996094 4c-4.3816244 0-8.1267335 3.0088265-9.9589845 7.304687-.091921.21427-.023914.463628.1640625.601563l4.0820312 3c.083009.06035.1825466.09375.2851563.0957.2062426.0052.3946142-.116472.4746094-.306641.8592021-2.062936 2.7828063-3.691406 4.9570311-3.691406 2.165472 0 4.111915 1.684284 4.953125 3.691406.08015.192983.271635.315971.480469.308594.100806-.0037.198149-.03773.279297-.09766l4.082031-3c.187977-.137934.255984-.387293.164063-.601563-1.832252-4.2958535-5.577361-7.30468-9.958985-7.30468zm0 1.0019531h.0039c3.803664 0 7.091767 2.5615511 8.845703 6.3613279l-3.279297 2.408203c-1.078157-2.075684-3.112334-3.769531-5.5664-3.769531-2.4506841 0-4.4836128 1.65738-5.5722655 3.769531l-3.2773437-2.408203c1.7539366-3.7997778 5.042033-6.3613279 8.8457032-6.3613279zm-5.496094 10.9980469c-.2761309.000028-.4999724.223869-.5.5v5c.0000276.276131.2238691.499972.5.5h11c.276131-.000028.499972-.223869.5-.5v-5c-.000028-.276131-.223869-.499972-.5-.5zm.5 1h10v4h-10z" fill="#3a3a38"/><path d="m11.996094 5.0019531c-3.8036645 0-7.0917666 2.5615501-8.8457032 6.3613279l3.2773437 2.408203c1.0886527-2.112151 3.1215813-3.769531 5.5722655-3.769531 2.454066 0 4.488243 1.693847 5.566406 3.769531l3.279297-2.408203c-1.753936-3.7997768-5.042039-6.3613279-8.845703-6.3613279zm-4.996094 11.9980469v4h10v-4z" fill="#fafafa"/></svg>