<svg viewBox="0 0 24 24" xmlns="http://www.w3.org/2000/svg"><path d="m12 4c-5.3115104.00247-9.7028692 4.170459-9.9824219 9.474609-.0145228.285993.2136383.525741.5.525391h5.0136719c.2546254-.000476.4682296-.192215.4960938-.445312.2266801-2.027499 1.9325273-3.553152 3.9726562-3.554688.0059.000103.01172.000103.01758 0 2.040129.0015 3.745976 1.527189 3.972656 3.554688.02786.253097.241469.444836.496094.445312h5.01367c.286362.00035.514523-.239398.5-.525391-.279554-5.30415-4.670911-9.4721376-9.982422-9.474609-.005859-.000103-.011719-.000103-.017578 0zm0 1c2.275446.00293 4.537725.9074772 6.1875 2.4746094 1.521058 1.4448636 2.470602 3.4422546 2.708984 5.5253906h-4.001953c-.474857-2.326319-2.520243-3.9978874-4.894531-4-2.3757561.0002575-4.4232863 1.672244-4.8984375 4h-4.0058594c.2385865-2.084254 1.1904142-4.084277 2.7128907-5.5292969 1.6513142-1.5673025 3.9147252-2.469646 6.1914062-2.4707031zm-4.5 10c-.2761309.000028-.4999724.223869-.5.5v5c.0000276.276131.2238691.499972.5.5h9c.276131-.000028.499972-.223869.5-.5v-5c-.000028-.276131-.223869-.499972-.5-.5zm.5 1h8v4h-8z" fill="#3a3a38"/><path d="m12 5c-2.276681.00106-4.540092.9034005-6.1914062 2.4707031-1.5224765 1.4450199-2.4743042 3.4450429-2.7128907 5.5292969h4.0058594c.4751512-2.327756 2.5226814-3.9997425 4.8984375-4 2.374288.00211 4.419674 1.673681 4.894531 4h4.001953c-.238382-2.083136-1.187926-4.080527-2.708984-5.5253906-1.649775-1.5671326-3.912054-2.4716814-6.1875-2.4746094zm-4 11v4h8v-4z" fill="#fafafa"/></svg>