<svg viewBox="0 0 24 24" xmlns="http://www.w3.org/2000/svg"><path d="m16.535156 4.0058594c-1.77862.1074971-3.406669 1.1916695-4.96289 2.7832031v-.0019531c-1.6692684 1.7031141-3.1506329 2.2902366-4.556641 2.2363281s-2.8033805-.7808859-4.2050781-1.9101563a.49581225.49581225 0 0 0 -.8066407.3867188v9a.49581225.49581225 0 0 0 .1191407.322266c1.7749947 2.077309 3.5550268 3.101328 5.3339843 3.101562 1.7749304.000235 3.4280458-1.012582 4.9726568-2.697266 1.63651-1.683335 3.101891-2.281676 4.507812-2.240234 1.405921.041443 2.817455.752209 4.251953 1.900391a.49581225.49581225 0 0 0 .806641-.386719v-9a.49581225.49581225 0 0 0 -.125-.328125c-1.744071-1.9767669-3.482184-3.2780544-5.335938-3.1660156zm.058594.9921875c1.296071-.0783331 2.790591.9241141 4.40625 2.71875v7.8750001c-1.284416-.892663-2.612298-1.559673-4.033203-1.601563-1.717849-.050637-3.484621.727079-5.25 2.542969a.49939643.49939643 0 0 0 -.011719.009766c-1.443534 1.577788-2.8499839 2.38495-4.2480468 2.384765-1.3633303-.000179-2.8380946-.778988-4.4570312-2.626953v-7.8867185c1.2555317.8790677 2.5609386 1.5492386 3.9765625 1.6035155 1.7181207.065875 3.5070725-.697146 5.3066405-2.533203 1.469928-1.5032819 2.903915-2.4013134 4.310547-2.4863281z" fill="#3a3a38"/><path d="m16.59375 4.9980469c-1.406632.0850147-2.840619.9830462-4.310547 2.4863281-1.799568 1.836057-3.5885198 2.599078-5.3066405 2.533203-1.4156239-.054277-2.7210308-.7244478-3.9765625-1.6035155v7.8867185c1.6189366 1.847965 3.0937009 2.626774 4.4570312 2.626953 1.3980629.000185 2.8045128-.806977 4.2480468-2.384765a.49939643.49939643 0 0 1 .01172-.0098c1.765379-1.81589 3.532151-2.593606 5.25-2.542969 1.420905.04189 2.748787.7089 4.033203 1.601563v-7.8749661c-1.615659-1.7946359-3.11018-2.7970831-4.406251-2.71875z" fill="#fafafa"/></svg>