<svg viewBox="0 0 24 24" xmlns="http://www.w3.org/2000/svg"><path d="m2.4824219 21.998733a.50000422.50000422 0 0 1 -.4824219-.5v-13.099609a.50000422.50000422 0 0 1 .2363281-.423829l9.4999999-5.90039a.50000422.50000422 0 0 1 .527344 0l9.5 5.90039a.50000422.50000422 0 0 1 .236328.423829v13.099609a.50000422.50000422 0 0 1 -.767578.421875l-9.232422-5.830078-9.2324219 5.830078a.50000422.50000422 0 0 1 -.2851562.07813zm.5175781-1.40625 8.732422-5.515625a.49994798.49994798 0 0 1 .535156 0l8.732422 5.515625v-11.916016l-9-5.589843-9 5.589843z" fill="#3a3a38"/><path d="m3 20.592483v-11.916016l9-5.589843 9 5.589843v11.916016l-8.732422-5.515625a.49994798.49994798 0 0 0 -.535156 0z" fill="#fafafa"/></svg>