<svg viewBox="0 0 24 24" xmlns="http://www.w3.org/2000/svg"><path d="m11.998047 1c-4.3811427 0-8.1249128 3.0091369-9.9570314 7.3046875a.50005.50005 0 0 0 .1621094.5976563l4.0820312 3.0000002a.50005.50005 0 0 0 .7578126-.210938c.8593401-2.0632668 2.7842459-3.691406 4.9589842-3.691406 2.166003 0 4.113727 1.6859025 4.955078 3.693359a.50005.50005 0 0 0 .757813.208985l4.082031-3.0000002a.50005.50005 0 0 0 .162109-.5976563c-1.832119-4.2955505-5.575889-7.3046875-9.957031-7.3046875zm0 .9941406h.0039c3.80725 0 7.099069 2.5642101 8.853516 6.3671875l-3.289057 2.4179689c-1.076226-2.0771491-3.110486-3.7734376-5.564453-3.7734376-2.4500452 0-4.4833304 1.6584192-5.5703124 3.7714846l-3.2871094-2.4160159c1.7544463-3.8029773 5.0462647-6.3671875 8.8535158-6.3671875z" fill="#3a3a38"/><path d="m11.998047 1.9941406c-3.807251 0-7.0990696 2.5642102-8.8535158 6.3671875l3.2871094 2.4160159c1.086982-2.1130651 3.1202671-3.7714846 5.5703124-3.7714846 2.453967 0 4.488227 1.6962886 5.564453 3.7734376l3.289063-2.4179689c-1.754447-3.8029774-5.046266-6.3671875-8.853516-6.3671875z" fill="#fafafa"/><path d="m11.998047 22.999896c-4.3811427 0-8.1249128-3.009137-9.9570314-7.304687a.50005.50005 0 0 1 .1621094-.597657l4.0820312-3a.50005.50005 0 0 1 .7578126.210938c.8593401 2.063267 2.7842459 3.691406 4.9589842 3.691406 2.166003 0 4.113727-1.685903 4.955078-3.693359a.50005.50005 0 0 1 .757813-.208985l4.082031 3a.50005.50005 0 0 1 .162109.597657c-1.832119 4.29555-5.575889 7.304687-9.957031 7.304687zm0-.994141h.0039c3.80725 0 7.099069-2.56421 8.853516-6.367187l-3.289057-2.417969c-1.076226 2.077149-3.110486 3.773438-5.564453 3.773438-2.4500452 0-4.4833304-1.65842-5.5703124-3.771485l-3.2871094 2.416016c1.7544463 3.802977 5.0462647 6.367187 8.8535158 6.367187z" fill="#3a3a38"/><path d="m11.998047 22.005755c-3.807251 0-7.0990696-2.56421-8.8535158-6.367187l3.2871094-2.416016c1.086982 2.113065 3.1202671 3.771485 5.5703124 3.771485 2.453967 0 4.488227-1.696289 5.564453-3.773438l3.289063 2.417969c-1.754447 3.802977-5.046266 6.367187-8.853516 6.367187z" fill="#fafafa"/></svg>