<svg viewBox="0 0 24 24" xmlns="http://www.w3.org/2000/svg"><path d="m3 8c-.554 0-1 .446-1 1v10c0 .554.446 1 1 1h9.806641l-1-1h-8.806641v-10h7.09375a6 6 0 0 1 -.09375-1z" fill="#3a3a38"/><path d="m3 9v10h8.806641l-3.6699222-3.669922a.46684355.46684355 0 0 1 0-.660156l3.0722652-3.072266a6 6 0 0 1 -1.115234-2.597656z" fill="#fafafa"/><path d="m16 2a6 6 0 0 0 -6 6 6 6 0 0 0 1.208984 3.597656l.714844-.714844a5 5 0 0 1 -.923828-2.882812 5 5 0 0 1 5-5 5 5 0 0 1 5 5 5 5 0 0 1 -1.890625 3.916016l.708984.708984a6 6 0 0 0 2.181641-4.625 6 6 0 0 0 -6-6z" fill="#3a3a38"/><path d="m16 3a5 5 0 0 0 -5 5 5 5 0 0 0 .923828 2.882812l2.746094-2.7460932a.46684355.46684355 0 0 1 .322266-.1367188.46684355.46684355 0 0 1 .33789.1367188l3.777344 3.7792972h.002a5 5 0 0 0 1.890578-3.916016 5 5 0 0 0 -5-5z" fill="#fafafa"/><g fill-rule="evenodd"><path d="m14.992188 8a.46684355.46684355 0 0 0 -.322266.1367188l-6.5332032 6.5332032a.46684355.46684355 0 0 0 0 .660156l6.5332032 6.533203a.46684355.46684355 0 0 0 .660156 0l6.533203-6.533203a.46684355.46684355 0 0 0 0-.660156l-6.533203-6.5332032a.46684355.46684355 0 0 0 -.33789-.1367188zm.007812 1.1191406 5.880859 5.8808594-5.880859 5.880859-5.8808594-5.880859z" fill="#3a3a38"/><path d="m15 9.1191406-5.8808594 5.8808594 5.8808594 5.880859 5.880859-5.880859z" fill="#fafafa"/></g></svg>