<svg viewBox="0 0 24 24" xmlns="http://www.w3.org/2000/svg"><path d="m3.0273438 2c-.6072951 0-1.0273438.545423-1.0273438 1.1171875v17.7656245c0 .571765.4200493 1.117188 1.0273438 1.117188h17.9453122c.607295 0 1.027344-.545423 1.027344-1.117188v-17.7656245c0-.5717642-.420049-1.1171875-1.027344-1.1171875zm-.0273438 1h18v18h-18z" fill="#3a3a38"/><path d="m3 3h18v18h-18z" fill="#fafafa"/><path d="m6.0273438 5c-.607295 0-1.0273438.545423-1.0273438 1.1171875v11.7656245c0 .571765.4200493 1.117188 1.0273438 1.117188h11.9453122c.607295 0 1.027344-.545423 1.027344-1.117188v-11.7656245c0-.5717642-.420049-1.1171875-1.027344-1.1171875zm-.0273438 1h12v12h-12z" fill="#3a3a38"/><path d="m6 6h12v12h-12z" fill="#fafafa"/><path d="m9.9550781 9c-.5530944 0-.9550781.4896531-.9550781 1v4.015625c0 .510348.4495086.984375 1 .984375h4c.550492 0 1-.489652 1-1v-3.994141c0-.5103472-.376593-1.005859-.929688-1.005859zm.0449219 1h4v4h-4z" fill="#3a3a38"/><path d="m10 10h4v4h-4z" fill="#fafafa"/></svg>