<svg height="24" viewBox="0 0 6.3499999 6.3500002" width="24" xmlns="http://www.w3.org/2000/svg" xmlns:xlink="http://www.w3.org/1999/xlink"><linearGradient id="a" gradientUnits="userSpaceOnUse" x1="5.291667" x2="1.058333" y1="3.704167" y2="3.704167"><stop offset="0" stop-color="#18ab50"/><stop offset="1" stop-color="#18ab50" stop-opacity="0"/></linearGradient><path d="m.79375.52919c-.14657916 0-.26458333.118-.26458333.26458v4.7625c0 .14658.11800417.26458.26458333.26458h4.7625c.1465792 0 .2645834-.118.2645834-.26458v-4.7625c0-.14658-.1180042-.26458-.2645834-.26458zm0 .26458h4.7625v4.7625h-4.7625z" fill="#3a3a38" stroke-width=".264583"/><path d="m.79375.79377h4.7625v4.7625h-4.7625z" fill="#fafafa" stroke-width=".264583"/><path d="m1.0583333 3.4395834v.2645833h.2645833v-.2645833zm.2645833.2645833v.2645834h.2645833v-.2645834zm.2645833 0h.2645834v-.2645833h-.2645834zm.2645834 0v.2645834h.2645833v-.2645834zm.2645833 0h.2645834v-.2645833h-.2645834zm.2645834 0v.2645834h.2645833v-.2645834zm.2645833 0h.2645833v-.2645833h-.2645833zm.2645833 0v.2645834h.2645834v-.2645834zm.2645834 0h.2645833v-.2645833h-.2645833zm.2645833 0v.2645834h.2645834v-.2645834zm.2645834 0h.2645833v-.2645833h-.2645833zm.2645833 0v.2645834h.2645833v-.2645834zm.2645833 0h.2645834v-.2645833h-.2645834zm.2645834 0v.2645834h.2645833v-.2645834zm.2645833 0h.2645834v-.2645833h-.2645834zm.2645834 0v.2645834h.2645833v-.2645834z" fill="#c8c6c4"/><path d="m1.058333 3.439583h4.233334v.529167h-4.233334z" fill="url(#a)"/><path d="m1.0583333 3.1750001h4.2333334v-2.1166668h-4.2333334z" fill="#18ab50"/><path d="m1.058333 4.497917h4.233334v.264583h-4.233334z" fill="#797774"/><path d="m2.1166667 4.2333333h1.0583333v.7937501l-.5291666.5291666-.5291667-.5291666z" fill="#3a3a38"/><path d="m2.3812498 4.497917h.5291667l.0000003.396875-.2645834.264583-.2645833-.264583z" fill="#fafafa"/></svg>