<svg height="24" viewBox="0 0 6.3499999 6.3500002" width="24" xmlns="http://www.w3.org/2000/svg"><g transform="translate(0 -290.64998)"><path d="m.66145834 291.70832c-.0732896 0-.13229167.059-.13229167.13229v.26459 3.43958.26458c0 .0733.0590021.13229.13229167.13229h.26458333 4.49791673.2645833c.07329 0 .1322917-.059.1322917-.13229v-.26458-3.43958-.26459c0-.0733-.059002-.13229-.1322917-.13229h-.2645833-4.49791673zm.13229166.26458h4.7625v3.70417h-4.7625z" fill="#3a3a38" stroke-width=".264583"/><path d="m5.55625 291.9729h-4.7625v3.70417h4.7625z" fill="#fafafa" stroke-width=".264583"/><path d="m1.3229167 292.50207h3.7041667v.52917h-3.7041667z" fill="#797774" stroke-width=".350011"/><g stroke-width=".264583"><path d="m1.3229167 293.5604v.26459h.2645833v-.26459zm.5291667 0v.26459h3.175v-.26459zm-.5291667.52917v.26458h.2645833v-.26458zm.5291667 0v.26458h2.38125v-.26458zm-.5291667.52917v.26458h.2645833v-.26458zm.5291667 0v.26458h2.6458333v-.26458z" fill="#c8c6c4"/><path d="m.66145834 291.70832c-.0732896 0-.13229167.059-.13229167.13229v.26459 3.43958.13229l.26458333-.19844 4.6741334-3.50573.3167764-.22169c-.024125-.026-.057709-.0429-.096118-.0429h-.2645834-4.49791673zm.13229166.26458h4.2333334l-4.2333334 3.175z" fill="#3a3a38"/><path d="m.79375 291.9729h4.2333334l-4.2333334 3.175z" fill="#fafafa"/></g></g></svg>