<svg viewBox="0 0 24 24" xmlns="http://www.w3.org/2000/svg"><path d="m9.5 2a.50005.50005 0 0 0 -.5.5v5.5h-3.5a.50005.50005 0 0 0 -.4863281.3867188l-3 13.0000002a.50005.50005 0 0 0 .4863281.613281h3a.50005.50005 0 0 0 .4902344-.402344l1.9199218-9.597656h1.0898438v4.5a.50005.50005 0 0 0 .5.5h12a.50005.50005 0 0 0 .5-.5v-14a.50005.50005 0 0 0 -.5-.5zm.5 1h11v13h-11v-5h-2.9375l-1.9707031 10h-1.9570313l2.7519532-12h4.1132812z" fill="#3a3a38"/><path d="m10 3v6h-4.113301l-2.7514123 12h1.9559172l1.9712961-10h2.9375v5h11v-13z" fill="#fafafa"/></svg>