<svg height="24" viewBox="0 0 6.3499999 6.3500002" width="24" xmlns="http://www.w3.org/2000/svg"><g transform="translate(0 -290.64998)"><path d="m.66145834 291.70831c-.0732896 0-.13229167.059-.13229167.13229v3.96875c0 .0733.0590021.13229.13229167.13229h2.80292976c-.015309-.0417-.024805-.086-.024805-.13229 0-.0463.0095-.0906.024805-.13229h-2.6706381v-3.70417h4.7625v1.61231c.04169-.0153.086018-.0248.1322917-.0248.046273 0 .090601.01.1322917.0248 0-.58153 0-1.16307 0-1.7446 0-.0733-.059002-.13229-.1322917-.13229-1.6756944 0-3.3513889 0-5.02708336 0z" fill="#3a3a38" stroke-width=".264583"/><path d="m.79375 291.97289v3.70417h2.6706381c.055916-.15228.2030513-.26458.3720703-.26458h.1322916v-.52917h-.1322916c-.2152923 0-.396875-.18158-.396875-.39687 0-.2153.1815827-.39688.396875-.39688h.1322916v-.13229c0-.21529.1815828-.39688.396875-.39688.2152923 0 .396875.18159.396875.39688v.13229h.5291667v-.13229c0-.16902.1123032-.31616.2645833-.37207v-1.61231z" fill="#fafafa" stroke-width=".264583"/><path d="m1.3229167 292.50206h3.7041667v.52917h-3.7041667z" fill="#797774" stroke-width=".350011"/><g stroke-width=".264583"><path d="m1.3229167 293.56039v.26459h.2645833v-.26459zm.5291667 0v.26459h2.1414713c.055916-.15228.2030513-.26459.3720703-.26459zm2.5135416 0c.169019 0 .3161541.11231.3720703.26459h.2893881v-.26459zm-3.0427083.52917v.26458h.2645833v-.26458zm.5291667 0v.26458h1.6123047c.055916-.15228.2030513-.26458.3720703-.26458zm-.5291667.52917v.26458h.2645833v-.26458zm.5291667 0v.26458h1.984375c-.169019 0-.3161541-.1123-.3720703-.26458z" fill="#c8c6c4"/><path d="m4.365625 293.82498c-.07329 0-.1322916.059-.1322916.13229v.39687h-.396875c-.07329 0-.1322917.059-.1322917.1323s.059002.13229.1322917.13229h.396875v1.05833h-.396875c-.07329 0-.1322917.059-.1322917.13229 0 .0733.059002.13229.1322917.13229h.396875v.39688c0 .0733.059002.13229.1322916.13229.07329 0 .1322917-.059.1322917-.13229v-.39688h1.0583333v.39688c0 .0733.059002.13229.1322917.13229.07329 0 .1332963-.059.1322917-.13229v-.39688h.396875c.073289 0 .1322916-.059.1322916-.13229 0-.0733-.059002-.13229-.1322916-.13229h-.396875v-1.05833h.396875c.073289 0 .1322916-.059.1322916-.13229 0-.0733-.059006-.13308-.1322916-.1323h-.396875v-.39687c0-.0733-.059002-.13229-.1322917-.13229-.07329 0-.1322917.059-.1322917.13229v.39687h-1.0583333v-.39687c0-.0733-.059002-.13229-.1322917-.13229zm.1322917.79375h1.0583333v1.05833h-1.0583333z" fill="#1e8bcd"/></g></g></svg>