<svg height="24" viewBox="0 0 6.3499998 6.3499998" width="24" xmlns="http://www.w3.org/2000/svg"><g transform="translate(0 -290.65)"><path d="m.79375 291.44375v4.7625h2.3807333v-3.04271a.2651392.2651392 0 0 0 0-.00051c.0004257-.20516.1845469-.3924.3896402-.39636h.0005292c.092627-.002.1853851.03.2573486.0884a.2651392.2651392 0 0 0 0 .00052l1.7342487 1.40818v-2.81998z" fill="#fafafa"/><path d="m2.6458334 294.08958-1.8520834 1.85209v.26458h.13229167l1.71979173-1.71979.3307291.33073-1.3890625 1.38906h.396875l1.1911418-1.19114v-.39688l-.0005168.00052z" fill="#0063b1" stroke-width=".264583"/><path d="m.52916667 291.17917v5.29166h2.64635013v-.26458h-2.3817668v-4.7625h4.7625v2.82102l.2645834.21497v-3.30057z" fill="#3a3a38" stroke-width=".264583"/><g fill-rule="evenodd" transform="matrix(.26458333 0 0 .26458333 0 290.65)"><path d="m13.490234 9.0019531a.49916259.49916259 0 0 0 -.490234.4980469v13a.49916259.49916259 0 0 0 .867188.339844l2.669921-2.886719 1.396485 2.970703-.019532-.046875c.16336.463401.556257.7688.964844.892578.408588.123778.843466.103165 1.246094-.027343.402628-.130513.78484-.377525 1.029297-.765626.244456-.388099.311868-.918809.126953-1.443359a.49916259.49916259 0 0 0 -.021484-.050781l-1.6875-3.482422h3.779296a.49916259.49916259 0 0 0 .314454-.886719l-9.851563-7.9999998a.49916259.49916259 0 0 0 -.324219-.1113281zm.521485 1.5722659 7.898437 6.414062h-3.134765a.51155849.51155849 0 0 0 -.460938.734375l2.013672 4.154297c.094166.274138.057623.422557-.029297.560547-.088126.139908-.264977.27263-.484375.34375-.219398.07111-.469978.073774-.642578.021484-.1726-.052288-.255517-.12224-.304687-.261718a.51155849.51155849 0 0 0 -.019532-.046875l-1.710937-3.642579a.51155849.51155849 0 0 0 -.837891-.130859l-2.287109 2.472656z" fill="#3a3a38"/><path d="m14.011719 10.574219v10.61914l2.287109-2.472656a.51155848.51155848 0 0 1 .837891.130859l1.710937 3.642579a.51155848.51155848 0 0 1 .01953.04687c.04917.139478.132087.20943.304687.261718.1726.05229.42318.04963.642578-.02148.219398-.07112.396249-.203842.484375-.34375.08692-.13799.123466-.286409.0293-.560547l-2.013672-4.154297a.51155848.51155848 0 0 1 .460938-.734375h3.134765z" fill="#fafafa"/></g><g stroke-width=".264583"><circle cx="1.984375" cy="292.63437" fill="#ed8733" r=".661458"/><path d="m2.38125 292.63437a.396875.396875 0 0 1 -.396875.39688.396875.396875 0 0 1 -.396875-.39688.396875.396875 0 0 1 .396875-.39687.396875.396875 0 0 1 .396875.39687z" fill="#f8db8f"/><path d="m2.6458334 294.48646-1.71979173 1.71979h.66145833l1.3890625-1.38906zm.5296834.52865-.0005168.00051-1.190625 1.19063h1.1911418z" fill="#83beec"/></g><path d="m14.011719 10.574219v10.61914l2.287109-2.472656a.51155848.51155848 0 0 1 .837891.130859l1.710937 3.642579a.51155848.51155848 0 0 1 .01953.04687c.04917.139478.132087.20943.304687.261718.1726.05229.42318.04963.642578-.02148.219398-.07112.396249-.203842.484375-.34375.08692-.13799.123466-.286409.0293-.560547l-2.013672-4.154297a.51155848.51155848 0 0 1 .460938-.734375h3.134765z" fill="#fafafa" fill-rule="evenodd" transform="matrix(.26458333 0 0 .26458333 0 290.65)"/></g></svg>