<svg height="24" viewBox="0 0 6.3499999 6.3500002" width="24" xmlns="http://www.w3.org/2000/svg"><g transform="translate(0 -290.64998)"><path d="m15 8v4.875l2.568359 2.5625c.440426.439446.556615 1.078746.332032 1.630859a1.0036208 1.0036208 0 0 1 0 .0078c-.08109.197631-.205767.359449-.332032.486328l-3.003906 3.005859c-.289232.288845-.675619.431588-1.0625.431654h7.498047v-10.294922l-2.695312-2.705078zm-1.498047 13c-.38688.000066-.773269-.142545-1.0625-.431641-.57854-.578494-.579542-1.548231 0-2.126953l.433594-.435547h-1.873047v2.994141z" fill="#fafafa" transform="matrix(.26458333 0 0 .26458333 0 290.64998)"/><path d="m15 7v1h2v3.5c0 .277039.223.5.5.5h3.5v9c-3.333333 0-6.666667 0-10 0v-2.994141h-.503906c-.166682-.000048-.330697-.031641-.496094-.050781v3.044922c0 .554003.446 1 1 1h10c.554 0 1-.445997 1-1v-9.5-.863281l-3.636719-3.636719h-.863281zm3 1 3 3h-3zm-8 7v.138672c.12617-.076053.267536-.123398.414062-.138672zm0 1.857422v.0957c.125169.0096.23132.01298.349609.0332-.123561-.020763-.242141-.064485-.349609-.1289z" fill="#3a3a38" transform="matrix(.26458333 0 0 .26458333 0 290.64998)"/><path d="m4.7625 292.76664.79375.79375h-.79375z" fill="#fafafa" stroke-width=".264583"/><path d="m1.984375 292.76664c-.07329 0-.1322916.059-.1322916.13229v1.32292a.92604167.92604167 0 0 0 .9260416.92604h1.2691732l-.5689576.56844c-.051871.0518-.051824.13525 0 .18707.051823.0518.1351978.0518.1870689 0l.7947834-.79375c.012851-.0129.022974-.0276.029456-.0434.0000643-.00016-.0000638-.00037 0-.00053.019444-.0478.00945-.10431-.029456-.14314l-.7947834-.79375c-.051871-.0518-.1352452-.0518-.1870689 0-.051823.0518-.051871.13529 0 .18707l.5679241.56742h-1.2681397a.66145833.66145833 0 0 1 -.6614583-.66147v-1.32292c0-.0733-.059002-.13229-.1322917-.13229z" fill="#1e8bcd"/><g transform="matrix(.26458333 0 0 .26458333 0 290.91456)"><path d="m3 2c-.5539999 0-1 .445993-1 1v8.5l2.5000001 2.5h8.4999999c.554 0 1-.445993 1-1v-10c0-.554007-.446-1-1-1z" fill="#922e9b" transform="translate(0 -.999987)"/><path d="m5 2.000013h6v3h-6z" fill="#fafafa"/><path d="m5 10v3h1v-2h1v2h4v-3z" fill="#fafafa" transform="translate(0 -.999987)"/><path d="m3 10.000013 1.0000001 1v-3.0000003h7.9999999v3.9999873h1v-9.9999874h-1v3.9999874h-8l.0000001-3.9999874h-1.0000001z" fill="#d492d8"/></g></g></svg>