<svg height="24" viewBox="0 0 6.3499999 6.3500002" width="24" xmlns="http://www.w3.org/2000/svg"><g stroke-width=".264583" transform="translate(0 -290.64998)"><path d="m.79375 291.44373h4.7625v4.7625h-4.7625z" fill="#fafafa"/><path d="m.52916667 291.17915v5.29167h5.29166673v-5.29167zm.26458333.26458h4.7625v4.7625h-4.7625z" fill="#3a3a38"/><circle cx="1.984375" cy="292.63437" fill="#ed8733" r=".661458"/><path d="m2.38125 292.63436a.396875.396875 0 0 1 -.396875.39687.396875.396875 0 0 1 -.396875-.39687.396875.396875 0 0 1 .396875-.39688.396875.396875 0 0 1 .396875.39688z" fill="#f8db8f"/><path d="m4.2333334 293.95728-1.0583334 1.05833-1.190625 1.19062h3.571875v-.92604zm-1.5875.52916-1.71979173 1.71979h.66145833l1.3890625-1.38906z" fill="#83beec"/><path d="m4.2333334 293.5604-1.0583334 1.05833-.5291666-.52916-1.8520834 1.85208v.26458h.13229167l1.71979173-1.71979.3307291.33073-1.3890625 1.38906h.396875l2.2489584-2.24895 1.3229166 1.32291v-.39687z" fill="#0063b1"/><path d="m2.9104167 292.50207h2.6458333v2.11666h-2.6458333z" fill="#fafafa" fill-opacity=".5"/><path d="m2.6458334 292.23748v.26459 2.11666.26459h2.9104166.2645834v-.26459-2.11666-.26459h-.2645834-2.6458333zm.2645833.26459h2.6458333v2.11666h-2.6458333z" fill="#d42314"/></g></svg>