<svg height="24" viewBox="0 0 6.3499999 6.3500002" width="24" xmlns="http://www.w3.org/2000/svg"><g stroke-width=".264583" transform="translate(0 -290.64998)"><path d="m.66145834 291.70831c-.0732896 0-.13229167.059-.13229167.13229v.26459 3.43958.26458c0 .0733.0590021.13229.13229167.13229h.26458333 4.49791673.2645833c.07329 0 .1322917-.059.1322917-.13229v-.26458-3.43958-.26459c0-.0733-.059002-.13229-.1322917-.13229h-.2645833-4.49791673zm.13229166.26458h4.7625v3.70417h-4.7625z" fill="#3a3a38"/><path d="m5.55625 291.97289h-4.7625v3.70417h4.7625z" fill="#fafafa"/><g fill="#1e8bcd"><rect height=".529167" ry=".264583" width="1.5875" x="2.38125" y="293.295813"/><rect height=".264583" ry=".065701" width="2.645833" x="1.852083" y="294.354147"/></g></g></svg>