<svg viewBox="0 0 24 24" xmlns="http://www.w3.org/2000/svg"><path d="m5 4v17h6.892578l-1.404297-1.40625.095703.083984c-.7599129-.587102-.7570461-1.795644.00586-2.378906l-.09961.087891 2.949219-2.945313c.093794-.09599.24152-.08936.355469-.15625a1.0001 1.0001 0 0 1 .671875-.294922h.001953s.001953.001954.001953.001954c.01-.000301.017344.007882.027344.007812v-.009766a1.0001 1.0001 0 0 1 .550781.169922c.374302.156209.699878.401132.845703.746094.21893.517899.121689 1.217962-.33789 1.662109l-.421875.421875h3.865234v-9.2617184l-4-3.7285156zm10.123047 15.990234.433594.433594c.162236.156686.284675.360091.365234.576172h3.078125v-1.009766z" fill="#fafafa"/><path d="m5 3c-.554 0-1 .446-1 1v17c0 .554.446 1 1 1h7.890625l-.998047-1h-6.892578v-17h9v4c0 .554.446 1 1 1h4v7.990234h1v-8.740234-.2089844c0-.4506799.098038-.4254121-.605469-1.0664062l-3.30664-3.2382813c-.709525-.7368575-.710169-.7363281-1.09375-.7363281h-.332032-.662109z" fill="#3a3a38"/><path d="m15 8h4l-4-4z" fill="#fafafa" fill-rule="evenodd"/><path d="m14.498047 14.990234a.50005.50005 0 0 0 -.34375.150391l-2.957031 2.953125a.50005.50005 0 0 0 -.002.792969l2.957032 2.960937a.50005.50005 0 1 0 .708984-.705078l-2.148391-2.152344h8.787109a.50005.50005 0 1 0 0-1h-8.783203l2.144531-2.140625a.50005.50005 0 0 0 -.363281-.859375z" fill="#1e8bcd" fill-rule="evenodd"/><path d="m7 6v1h2v-1zm3 0v1h3v-1zm-3 3v1h5v-1zm0 3v1h3v-1zm4 0v1h6v-1zm-4 3v1h1v-1zm2 0v1h2.892578l1.001953-1zm6.908203 0c.111489.323762.098668.677464-.017578 1h.109375v-1zm-8.908203 3v1h3v-1z" fill="#797774"/></svg>