<svg viewBox="0 0 24 24" xmlns="http://www.w3.org/2000/svg"><path d="m5 4c-.554 0-1 .446-1 1v8c0 .554.446 1 1 1h10c.554 0 1-.446 1-1v-8c0-.554-.446-1-1-1zm0 1h10v8h-10z" fill="#3a3a38"/><path d="m5 5h10v8h-10z" fill="#fafafa"/><path d="m9 10c-.554 0-1 .446-1 1v8c0 .554.446 1 1 1h2.095703c-.058189-.167258-.08789-.340298-.087891-.509766 0-.162945.030387-.329025.083985-.490234h-2.091797v-8h10v4.089844c.154643-.056779.318386-.093237.490234-.09375h.001954c.175047-.000444.346017.035288.507812.09375v-4.089844c0-.554-.446-1-1-1z" fill="#3a3a38"/><path d="m16 11v2c0 .554-.446 1-1 1h-6v5h2.091797c.060865-.183065.153409-.359894.296875-.519531.269803-.300215.714283-.490317 1.132812-.484375h6.367188l-.433594-.433594c-.450941-.436424-.553231-1.119824-.345703-1.632812.150236-.371371.482023-.689821.890625-.839844v-4.089844z" fill="#fafafa"/><g fill="#0063b1"><path d="m2 2v3h3v-3zm1 1h1v1h-1z"/><path d="m19 2v3h3v-3zm1 1h1v1h-1z"/><path d="m2 19v3h3v-3zm1 1h1v1h-1z"/></g><g fill="#fafafa"><path d="m20 3h1v1h-1z"/><path d="m3 3h1v1h-1z"/><path d="m3 20h1v1h-1z"/></g><path d="m19.494141 15.990234c-.449403.000091-.670588.54684-.347657.859375l2.144532 2.140625h-8.783204c-.676161-.0096-.676161 1.009563 0 1h8.78711l-2.148438 2.152344c-.525429.47064.237848 1.231807.707032.705078l2.957031-2.960937c.262886-.201387.260945-.598071-.0039-.796875l-2.953125-2.949219c-.09454-.09665-.224178-.150904-.359375-.150391z" fill="#1e8bcd" fill-rule="evenodd"/></svg>