<svg height="24" viewBox="0 0 6.3499999 6.3500002" width="24" xmlns="http://www.w3.org/2000/svg"><g fill="#1e8bcd" transform="scale(.26458333)"><path d="m7.5 17.5a1.5 1.5 0 0 1 -1.5 1.5 1.5 1.5 0 0 1 -1.5-1.5 1.5 1.5 0 0 1 1.5-1.5 1.5 1.5 0 0 1 1.5 1.5z"/><path d="m13.5 17.5a1.5 1.5 0 0 1 -1.5 1.5 1.5 1.5 0 0 1 -1.5-1.5 1.5 1.5 0 0 1 1.5-1.5 1.5 1.5 0 0 1 1.5 1.5z"/><path d="m19.5 17.5a1.5 1.5 0 0 1 -1.5 1.5 1.5 1.5 0 0 1 -1.5-1.5 1.5 1.5 0 0 1 1.5-1.5 1.5 1.5 0 0 1 1.5 1.5z"/></g><path d="m1.5875.79375001a1.3229167 1.3229167 0 0 0 -1.32291666 1.32291669 1.3229167 1.3229167 0 0 0 1.32291666 1.3229167 1.3229167 1.3229167 0 0 0 1.3229167-1.3229167 1.3229167 1.3229167 0 0 0 -1.3229167-1.32291669zm0 .26458329a1.0583333 1.0583333 0 0 1 1.0583333 1.0583334 1.0583333 1.0583333 0 0 1 -1.0583333 1.0583333 1.0583333 1.0583333 0 0 1 -1.05833332-1.0583333 1.0583333 1.0583333 0 0 1 1.05833332-1.0583334z" fill="#3a3a38" stroke-width=".264583"/><path d="m2.6458332 2.1166713a1.0583333 1.0583333 0 0 1 -1.0583332 1.05833 1.0583333 1.0583333 0 0 1 -1.05833334-1.05833 1.0583333 1.0583333 0 0 1 1.05833334-1.05834 1.0583333 1.0583333 0 0 1 1.0583332 1.05834z" fill="#fafafa"/><path d="m2.1166665 2.1166713a.52916667.52916667 0 0 1 -.5291665.52916.52916667.52916667 0 0 1 -.5291667-.52916.52916667.52916667 0 0 1 .5291667-.52917.52916667.52916667 0 0 1 .5291665.52917z" fill="#1e8bcd"/><path d="m3.4395833.79375001c-.1465791 0-.2645833.11800335-.2645833.26458329v2.1166667c0 .14658.1180042.2645834.2645833.2645834h2.38125c.1465792 0 .2645834-.1180034.2645834-.2645834v-2.1166667c0-.14657994-.1180042-.26458329-.2645834-.26458329zm0 .26458329h2.1166667v1.8520834h-2.1166667z" fill="#3a3a38" stroke-width=".264583"/><path d="m3.4395833 1.0583313h2.1166667v1.85209h-2.1166667z" fill="#fafafa"/></svg>