<svg height="24" viewBox="0 0 6.3499999 6.3500002" width="24" xmlns="http://www.w3.org/2000/svg"><g stroke-width=".264583" transform="translate(0 -290.64998)"><path d="m.79375 291.44373v4.23334h.2645833v-3.70417c0-.14658.1180042-.26458.2645834-.26458h2.6458333v-.26459zm.5291667.52917v4.23333h1.0583333v-3.175h2.1166667v-1.05833z" fill="#fafafa"/><path d="m.79375 291.17915c-.14657916 0-.26458333.118-.26458333.26458v4.23334c0 .14658.11800417.26458.26458333.26458h.2645833v.26458c0 .14658.1180042.26459.2645834.26459h1.3229167l-.2645834-.26459h-1.0583333v-4.23333h3.175v1.05833h.2645833v-1.05833c0-.14658-.1180041-.26458-.2645833-.26458h-.2645833v-.26459c0-.14658-.1180042-.26458-.2645834-.26458zm0 .26458h3.175v.26459h-2.6458333c-.1465792 0-.2645834.118-.2645834.26458v3.70417h-.2645833z" fill="#3a3a38"/><path d="m11 10a1.0001 1.0001 0 0 0 -1 1v9a1.0001 1.0001 0 0 0 .292969.707031l1 1a1.0001 1.0001 0 0 0 .707031.292969h9a1.0001 1.0001 0 0 0 1-1v-10a1.0001 1.0001 0 0 0 -1-1zm2 1h6v3h-6zm0 7h5v3h-3v-2h-1v2h-1z" fill="#922e9b" stroke-width=".999999" transform="matrix(.26458334 0 0 .26458334 0 290.64998)"/><path d="m2.9104167 293.5604v2.38125l.2645833.26458v-1.05833h1.8520834v1.05833h.5291666v-2.64583h-.2645833v1.05833h-2.1166667v-1.05833z" fill="#d492d8"/><path d="m3.4395834 293.5604v.79375h1.5875v-.79375zm0 1.85208v.79375h.2645833v-.52916h.2645833v.52916h.79375v-.79375z" fill="#fafafa"/></g></svg>