<svg height="24" viewBox="0 0 6.3499999 6.3500002" width="24" xmlns="http://www.w3.org/2000/svg"><g transform="scale(.26458334)"><path d="m3 17v2 .5c.0008555 1.088733.4114743 1.47874 1.5 1.5l.3339844-.001953c2.6464844.000672 5.2929686.00159 7.9394536.001953a1.0001 1.0001 0 0 1 .152343-.726562l.158203-.236329-.28125-.05664a1.0001 1.0001 0 0 1 -.802734-.980469v-1-1c-3.0000001-.000046-5.9999999-.000217-9 0z" fill="#d492d8"/><path d="m7 3c-.5237076 0-1.023505.2148533-1.3925781.5566406-.091847.085175-.1760611.1777879-.25.2773438v.0019531c-.1479424.1995584-.2583938.4231956-.3144531.6640625v.0019531c-.0278121.1201241-.0429688.2447813-.0429688.3710938v.0019531 11.125c2.6360676-.000949 5.272135-.001563 7.908203-.001953l.175781-.035156-.158203-.236329a1.0001 1.0001 0 0 1 .125-1.261718l.707031-.707032.707032-.707031a1.0001 1.0001 0 0 1 1.261718-.125l.236329.158203.05664-.28125a1.0001 1.0001 0 0 1 .980469-.802734h1v-7.5c.00049-.4615181.160577-.9088376.453125-1.265625.04655-.081523.10464-.1515891.158203-.2265625-4.175026.0007142-7.937652-.0083182-11.611328-.0078125z" fill="#fafafa"/><path d="m7 1.9980469v.0019531c-1.5841077 0-3 1.2592141-3 2.875v11.125h1v-11.1269531c0-1.015748.9525848-1.875 2-1.875v.0019531c3.663101-.0160706 8.242561.0321865 11.5 0 .007294-.0040101.012312-.0096127.019531-.0136719.35667-.4651651.871989-.8074359 1.480469-.9316406-.233459-.0194309-.407524-.0537219-.714844-.0546875zm11 6.0019531v4h1v-4z" fill="#3a3a38" stroke-width=".999999"/><path d="m12.908203 15.998047c-3.6360682-.000161-7.2721364-.001597-10.908203.001953v3.951172c-.0001987.01629-.0001987.032538 0 .048828.0000001 1.104569.8954303 2 2 2h9.515625l-.464844-.464844a1.0001 1.0001 0 0 1 -.277343-.535156c-2.646485-.000374-5.2929692-.001281-7.9394536-.001953l-.3339844.001953c-1.0885257-.02126-1.4991445-.411267-1.5-1.5v-2.501953h2 7a1.0001 1.0001 0 0 1 .802734-.978516z" fill="#922e9b"/><g stroke-width="3.779527"><path d="m20 2.0546875c-1.162442.2372808-1.998 1.2589016-2 2.4453125v3.5h4c0-1.1666667 0-2.3333333 0-3.5-.002-1.1864102-.837558-2.2080317-2-2.4453125zm0 .9707031c.581939.1187878.999936.6306704 1 1.2246094v.25 2.5c-.666667 0-1.333333 0-2 0 0-.8333333 0-1.6666667 0-2.5v-.25c.000064-.593939.418061-1.1058216 1-1.2246094z" fill="#922e9b"/><path d="m20 3.0253906c-.581939.1187878-.999936.6306704-1 1.2246094v.25 2.5h2v-2.5-.25c-.000064-.593939-.418061-1.1058216-1-1.2246094z" fill="#d492d8"/><path d="m20 2.0546875c-1.162442.2372808-1.998 1.2589016-2 2.4453125v3.5h4c0-1.1666667 0-2.3333333 0-3.5-.002-1.1864102-.837558-2.2080317-2-2.4453125zm0 .9707031c.581939.1187878.999936.6306704 1 1.2246094v.25 2.5c-.666667 0-1.333333 0-2 0 0-.8333333 0-1.6666667 0-2.5v-.25c.000064-.593939.418061-1.1058216 1-1.2246094z" fill="#922e9b"/></g></g><path d="m4.4979167 3.4395834-.0925007.4614706-.3911907-.2609662-.1870686.1870689-.1870689.1870686.2609662.3911907-.4614706.0925007v.2645833.2645833l.4614706.0925008-.2609662.3911907.1870689.1870686.1870686.1870689.3911907-.2609663.0925007.4614707h.2645833.2645833l.0925008-.4614707.3911907.2609663.1870686-.1870689.1870689-.1870686-.2609663-.3911907.4614707-.0925008v-.2645833-.2645833l-.4614707-.0925007.2609663-.3911907-.1870689-.1870686-.1870686-.1870689-.3911907.2609662-.0925008-.4614706h-.2645833zm.2118733.2645833h.10542l.079582.396875h.141593l.1002523.1002522.3369304-.2242756.0744141.074414-.2242757.3369305.1002523.1002522v.1415933l.396875.079582v.10542l-.396875.079582v.1415927l-.1002523.1002523.2242757.3369304-.0744141.0744141-.3369304-.2242757-.1002523.1002523h-.1415933l-.0795817.396875h-.10542l-.0795817-.396875h-.1415933l-.1002522-.1002523-.3369305.2242757-.074414-.0744141.2242756-.3369304-.1002522-.1002523v-.1415933l-.396875-.0795817v-.10542l.396875-.079582v-.141593l.1002522-.1002522-.2242756-.3369305.074414-.074414.3369305.2242756.1002522-.1002522h.1415933zm.05271.5291666a.52916667.52916667 0 0 0 -.5291667.5291667.52916667.52916667 0 0 0 .5291667.5291667.52916667.52916667 0 0 0 .5291667-.5291667.52916667.52916667 0 0 0 -.5291667-.5291667zm0 .2645834a.26458334.26458334 0 0 1 .2645833.2645833.26458334.26458334 0 0 1 -.2645833.2645833.26458334.26458334 0 0 1 -.2645833-.2645833.26458334.26458334 0 0 1 .2645833-.2645833z" fill="#1e8bcd"/><path d="m4.70979 3.7041667h.10542l.079582.396875h.141593l.1002523.1002522.3369304-.2242756.0744141.074414-.2242757.3369305.1002523.1002522v.1415933l.396875.079582v.10542l-.396875.079582v.1415927l-.1002523.1002523.2242757.3369304-.0744141.0744141-.3369304-.2242757-.1002523.1002523h-.1415933l-.0795817.396875h-.10542l-.0795817-.396875h-.1415933l-.1002522-.1002523-.3369305.2242757-.074414-.0744141.2242756-.3369304-.1002522-.1002523v-.1415933l-.396875-.0795817v-.10542l.396875-.079582v-.141593l.1002522-.1002522-.2242756-.3369305.074414-.074414.3369305.2242756.1002522-.1002522h.1415933zm.05271.5291666c-.2922505 0-.5291667.2369162-.5291667.5291667 0 .2922506.2369162.5291667.5291667.5291667.2922506 0 .5291667-.2369161.5291667-.5291667 0-.2922505-.2369161-.5291667-.5291667-.5291667z" fill="#fafafa"/></svg>