<svg viewBox="0 0 24 24" xmlns="http://www.w3.org/2000/svg"><path d="m21 12a9 9 0 0 1 -9 9 9 9 0 0 1 -9-9 9 9 0 0 1 9-9 9 9 0 0 1 9 9z" fill="#fafafa"/><g fill="#3a3a38"><path d="m12 2a10 10 0 0 0 -10 10 10 10 0 0 0 10 10 10 10 0 0 0 10-10 10 10 0 0 0 -10-10zm0 1a9 9 0 0 1 9 9 9 9 0 0 1 -9 9 9 9 0 0 1 -9-9 9 9 0 0 1 9-9z"/><path d="m8.5 8c-.277 0-.5.223-.5.5v7c0 .277.223.5.5.5h2c.277 0 .5-.223.5-.5v-7c0-.277-.223-.5-.5-.5zm5 0c-.277 0-.5.223-.5.5v7c0 .277.223.5.5.5h2c.277 0 .5-.223.5-.5v-7c0-.277-.223-.5-.5-.5z"/></g></svg>