<svg viewBox="0 0 24 24" xmlns="http://www.w3.org/2000/svg">

/&amp;amp;amp;amp;gt;<g fill="#3a3a38"><path d="m4.382812 3.9999997-3.88281195 4 .05664.3066406c.06866.10521.185678.1855365.353515.2421875.17546595.048559.35596795-.00806.53906295-.1699219l2.550782-2.3789062c-.02289.339909-.03271.6667925-.0332.9824219.010885 4.3391974.0332 8.6783644.0332 13.0175784h1c0-5.333333 0-10.666667 0-16.0000003z"/><path d="m11.935547 4.1054688c-.536096 0-1.032102.092066-1.492188.2753906-.4515427.1827108-.8493647.4531303-1.2011715.8125-.3512889.3588408-.6493686.8079108-.890625 1.3535156-.2103388.4819114-.3503624 1.0475397-.4355469 1.6796875l.5473167.1787296-.00391-.00195c.2043807.034902.3288385.00975.3925781-.029297.059175-.039443.1412319-.1612599.1894531-.40625.071167-.3572995.1850082-.6879516.34375-.9902344v-.00195c.1582072-.3091027.3520217-.5731221.5800822-.7929749.2277733-.227558.4916383-.553635.7851563-.6768136.000841-.000353.0011-.0016.002-.00195.297338-.1323304.747261-.249042 1.091355-.249042.349904-.0000001.679798.061226.984375.1855469.308645.1259811.728508.4710599.952204.729548.225416.2521355.397391.5662397.519532.9355469.130819.3752872.191406.8033476.191406 1.28125 0 .4776536-.05474.9318582-.167969 1.3632812-.111989.4267068-.270834.8496728-.472656 1.2656248-.201673.40733-.595509.813914-.885798 1.21875-.280696.40093-.598874.816442-.953125 1.248047l-4.1250002 5.089844c-.00254.0027-.00514.0053-.00781.0078-.094802.106657-.1589865.222776-.1972656.353516-.000637.0013-.00129.0026-.00195.0039-.041845.135775-.060547.25796-.060547.371094v.474609l7.8388148.000015v-.489929c0-.172915-.04051-.276573-.107422-.351563-.0013-.0019-.0026-.0039-.0039-.0059-.07025-.08397-.139412-.117187-.269531-.117188l-3.79194-.000015c-.220873-.000001-1.9431654-.06181-2.1962864-.01526l.5048214-.576786 3.417969-4.255859c.35689-.442714.698967-.878781 1.021484-1.3125h-.002c.318693-.436512.597674-.879126.835938-1.330078-.000003-.000667-.000003-.0013 0-.002.24253-.446624.432658-.912631.570312-1.3984376-.000003-.00065-.000003-.0013 0-.00195.142375-.4873682.214844-1.016069.214844-1.5878906 0-.6825338-.09678-1.281742-.289063-1.8027344-.00068-.0013-.0013-.0026-.002-.00391-.187429-.5255703-.447441-.9619755-.77725-1.3183118-.331053-.357679-.71924-.6297963-1.171875-.8203125-.452152-.1903125-.941408-.2871093-1.476562-.2871093z" transform="matrix(1.0205556 0 0 1.0205556 -.775757 -.189859)"/><path d="m19.892578 4.1367188c-.532595 0-1.02411.091599-1.480469.2734374-.447161.1809379-.845343.4481943-1.201171.8046876-.347951.3554302-.639907.7999038-.873047 1.3417968-.000663.0006538-.0013.0013-.002.00195-.205364.4705124-.344749 1.0247338-.435547 1.640625l.526949.1751575c.194501.031832.30852.0081.363282-.025391.04868-.032516.128359-.1457932.175781-.3867187.000655-.00131.0013-.00261.002-.00391.07851-.3583312.195954-.6899536.347656-.9921875-.000002-.00065-.000002-.0013 0-.00195.159686-.3123545.35488-.579994.585938-.8027344.229733-.2295663.49169-.5605384.783203-.6856288.302423-.134898.760819-.2532825 1.115628-.2532825.353445-.0000001.835814.062709 1.138754.1894531.826164.3793275 1.132332 1.0521272 1.31836 1.6485195.125213.363353.183594.780833.183594 1.2519531.000523 1.0549085-.450229 1.6610118-.912192 2.1640621-.272197.271148-.619407.483209-1.03125.638672-.0013.000678-.0026.0013-.0039.002-.355472.126731-.779265.188394-1.246094.21289v1.00586c.576026.01682 1.079435.07942 1.482422.216796.46108.155016.838951.374283 1.117187.669922.274052.282834.610323.632701.707114 1.033203.09326.377306.140625.784726.140625 1.222657 0 .366864-.06448.739481-.185547 1.115234-.116584.383239-.294708.731741-.537109 1.039062-.243807.309102-.699424.565147-1.056723.765626-.0013.000678-.0026.0013-.0039.002-.371809.199547-.803721.296875-1.283203.296875-.498319 0-1.05744-.04652-1.414456-.250625-.0013-.000655-.0026-.0013-.0039-.002-.333701-.199449-.616521-.441812-.839844-.726562-.00067-.000662-.0013-.0013-.002-.002-.214346-.281875-.387513-.576649-.517551-.878901-.000691-.002-.0014-.0039-.002-.0059-.114587-.290063-.213219-.538426-.294921-.75-.05973-.148747-.113286-.191929-.216797-.214844-.000667.000002-.0013.000002-.002 0-.112881-.02595-.236698-.01166-.394532.06641l-.411715.225233c.136353.508425.290535.99288.482422 1.423828.213183.478775.4817.893798.80664 1.244141.320649.345716.705282.61506 1.16211.8125.448538.18617 1.002459.283203 1.667969.283203.56445 0 1.090764-.102892 1.58789-.308594.496708-.205528.928191-.499195 1.296875-.886719.000663-.00067.0013-.0013.002-.002.374404-.386866.669389-.853684.888672-1.408203v-.002c.216867-.557295.328125-1.187766.328125-1.896484 0-.933598-.203863-1.685112-.597656-2.275391-.393479-.597274-.973126-1.022355-1.775391-1.283203-.224938-.07109-.232824-.386505-.01172-.46875.324921-.121852.614399-.278274.873046-.466797.252884-.192471.470361-.424649.650391-.699219.179328-.2734966.316446-.5912915.412109-.9648434.000655-.00131.0013-.00261.002-.00391.101001-.3697471.152343-.8032573.152343-1.2949219 0-.5889738-.09014-1.1143167-.267578-1.5839844-.00001-.0013-.00001-.00261 0-.00391-.172128-.4723464-.415124-.8694196-.728512-1.1990802-.31428-.3305975-.686455-.5840985-1.123047-.765625-.434061-.1804739-.912718-.2714843-1.445313-.2714843z" transform="matrix(1.0137551 0 0 1.0137551 -.106185 -.19362)"/></g></svg>