<svg height="24" viewBox="0 0 6.3499999 6.3500002" width="24" xmlns="http://www.w3.org/2000/svg" xmlns:xlink="http://www.w3.org/1999/xlink"><linearGradient id="a" gradientUnits="userSpaceOnUse" x1="3.17499996" x2="3.17499996" xlink:href="#b" y1="295.41251994" y2="294.61876995"/><linearGradient id="b"><stop offset="0" stop-color="#f16813"/><stop offset="1" stop-color="#ffb232"/></linearGradient><linearGradient id="c" gradientUnits="userSpaceOnUse" x1="1.85208331" x2="1.85208331" y1="296.47085326" y2="294.88335328"><stop offset="0" stop-color="#0078f6"/><stop offset="1" stop-color="#51cdfb"/></linearGradient><linearGradient id="d" gradientUnits="userSpaceOnUse" x1="5.02708327" x2="5.02708327" xlink:href="#b" y1="296.47085326" y2="293.2958533"/><linearGradient id="e" gradientUnits="userSpaceOnUse" x1="3.43958329" x2="3.43958329" y1="296.47085326" y2="294.08960329"><stop offset="0" stop-color="#01bc23"/><stop offset="1" stop-color="#4ee581"/></linearGradient><g stroke-width=".264583" transform="translate(0 -290.64998)"><path d="m2.3812499 291.17917c-.1465792 0-.2645834.118-.2645834.26458v2.38125h.2645834v-2.38125h3.1749998v4.23333h-.2645831v.26459h.2645831c.1465794 0 .2645836-.11801.2645836-.26459v-4.23333c0-.14658-.1180042-.26458-.2645836-.26458z" fill="#3a3a38"/><path d="m2.3812499 291.44377v2.38125h1.0583334v-.52917c0-.14658.1180041-.26458.2645833-.26458h1.3229167c.1465789 0 .2645833.118.2645833.26458v2.38125h.2645831v-4.23333z" fill="#fafafa"/><rect fill="#98989d" height=".264583" rx=".132292" ry=".098658" width="1.5875" x="3.704167" y="292.23752"/><path d="m3.4395833 292.36981a.396875.396875 0 0 1 -.3968751.39688.396875.396875 0 0 1 -.396875-.39688.396875.396875 0 0 1 .396875-.39687.396875.396875 0 0 1 .3968751.39687z" fill="#1e8bcd"/><path d="m3.0427082 293.29585a.396875.396875 0 0 0 -.396875.39688.396875.396875 0 0 0 .023254.13229h.747241a.396875.396875 0 0 0 .023255-.13229.396875.396875 0 0 0 -.396875-.39688z" fill="#fb983b"/><path d="m3.4395833 295.01564a.396875.396875 0 0 1 -.3968751.39688.396875.396875 0 0 1 -.396875-.39688.396875.396875 0 0 1 .396875-.39687.396875.396875 0 0 1 .3968751.39687z" fill="url(#a)"/><rect fill="url(#c)" height="1.5875" ry=".264583" width="1.322917" x=".529167" y="294.88336"/><rect fill="url(#d)" height="3.175" ry=".264583" width="1.322917" x="3.704167" y="293.29587"/><rect fill="url(#e)" height="2.38125" ry=".264583" width="1.322917" x="2.116667" y="294.0896"/><rect fill="#0063b1" height="1.5875" ry=".264583" width="1.322917" x=".529167" y="294.88336"/><rect fill="#3a3a38" height="3.175" ry=".264583" width="1.322917" x="3.704167" y="293.29587"/><rect fill="#ed8733" height="2.38125" ry=".264583" width="1.322917" x="2.116667" y="294.0896"/><path d="m.79375 295.14794h.7937499v1.05833h-.7937499z" fill="#83beec"/><path d="m2.3812499 294.35419h.79375v1.85208h-.79375z" fill="#f8db8f"/><path d="m3.9687499 293.56044h.7937498v2.64583h-.7937498z" fill="#797774"/></g></svg>