<svg height="24" viewBox="0 0 24 24" width="24" xmlns="http://www.w3.org/2000/svg"><path d="m28.238281 2.6679688q0 3.3593749-.703125 5.8398437-.703125 2.4609375-1.933594 4.0820315-1.230468 1.601562-2.910156 2.402344-1.660156.78125-3.574219.78125-1.914062 0-3.574218-.78125-1.660156-.800782-2.890625-2.402344-1.210938-1.621094-1.914063-4.0820315-.703125-2.4804688-.703125-5.8398437 0-3.35937505.703125-5.8203126.703125-2.4804687 1.914063-4.1015624 1.230469-1.6210938 2.890625-2.4023438 1.660156-.800781 3.574218-.800781 1.914063 0 3.574219.800781 1.679688.78125 2.910156 2.4023438 1.230469 1.6210937 1.933594 4.1015624.703125 2.46093755.703125 5.8203126zm-3.398437 0q0-2.92968755-.46875-4.9023438-.46875-1.9921875-1.269532-3.203125-.78125-1.2109375-1.816406-1.7382812-1.035156-.5273438-2.167969-.5273438-1.132812 0-2.167968.5273438-1.015625.5273437-1.816406 1.7382812-.78125 1.2109375-1.25 3.203125-.46875 1.97265625-.46875 4.9023438 0 2.9296874.46875 4.9218749.46875 1.9726563 1.25 3.1835943.800781 1.210937 1.816406 1.738281 1.035156.507812 2.167968.507812 1.132813 0 2.167969-.507812 1.035156-.527344 1.816406-1.738281.800782-1.210938 1.269532-3.1835943.46875-1.9921875.46875-4.9218749z" fill="#3a3a38" transform="matrix(.61545064 0 0 .61545064 4.120732 10.364007)"/><g stroke-width="1.095445"><path d="m5 7v2h-2v2h2v2h2v-2h2v-2h-2v-2z" fill="#18ab50"/><path d="m3 15v2h6v-2z" fill="#ed3d3b"/></g></svg>