<svg viewBox="0 0 24 24" xmlns="http://www.w3.org/2000/svg"><circle cx="12" cy="12" fill="#3a3a38" r="10"/><circle cx="12" cy="12" fill="#fafafa" r="9"/><path d="m16.279441 6.9999448c-.0744.000902-.148211.01342-.21875.03711l-4.228516 1.408203c-1.797579.09066-3.2960609 1.5891362-3.3867189 3.3867182l-1.408202 4.228516c-.184023.557236.345108 1.086367.902344.902344l4.2285149-1.408203c1.797579-.09066 3.296061-1.589137 3.386719-3.386719l1.408203-4.2285152c.154288-.464669-.193996-.943311-.683594-.939454zm-4.279297 2.9999996a2 2 0 0 1 1.433594.6074216 2 2 0 0 1 .132812.148437 2 2 0 0 1 .433594 1.244141 2 2 0 0 1 -2 2 2 2 0 0 1 -.396484-.03906 2 2 0 0 1 -.002 0 2 2 0 0 1 -1.384719-1.05469 2 2 0 0 1 -.08008-.181641 2 2 0 0 1 -.10742-.384765 2 2 0 0 1 -.0293-.339844 2 2 0 0 1 .470703-1.289062 2 2 0 0 1 .136719-.146485 2 2 0 0 1 1.392578-.5644526z" fill="#1e8bcd"/></svg>