<svg viewBox="0 0 24 24" xmlns="http://www.w3.org/2000/svg"><path d="m5 3v18h3v-9c.0001092-1.09263.9073695-1.999891 2-2h2c.310468-.000074.61681.072165.894531.210938l1.578125.789062h4.527344v-8z" fill="#fafafa"/><g fill="#3a3a38"><path d="m5 2c-.5539988 0-1 .4460016-1 1v18c0 .553998.4460012 1 1 1h3.2773438c-.1740964-.295786-.2773075-.636689-.2773438-1h-3v-18h14v8h1v-8c0-.5539984-.446002-1-1-1z"/><g stroke-width="5"><path d="m4.5 6h14.5v1h-14.5z" opacity=".98"/><path d="m6.5 1c.277 0 .5.223.5.5v3c0 .277-.223.5-.5.5s-.5-.223-.5-.5v-3c0-.277.223-.5.5-.5z" opacity=".98"/><path d="m8.5 1c.277 0 .5.223.5.5v3c0 .277-.223.5-.5.5s-.5-.223-.5-.5v-3c0-.277.223-.5.5-.5z" opacity=".98"/><path d="m10.5 1c.277 0 .5.223.5.5v3c0 .277-.223.5-.5.5s-.5-.223-.5-.5v-3c0-.277.223-.5.5-.5z" opacity=".98"/><path d="m12.5 1c.277 0 .5.223.5.5v3c0 .277-.223.5-.5.5s-.5-.223-.5-.5v-3c0-.277.223-.5.5-.5z" opacity=".98"/><path d="m14.5 1c.277 0 .5.223.5.5v3c0 .277-.223.5-.5.5s-.5-.223-.5-.5v-3c0-.277.223-.5.5-.5z" opacity=".98"/><path d="m16.5 1c.277 0 .5.223.5.5v3c0 .277-.223.5-.5.5s-.5-.223-.5-.5v-3c0-.277.223-.5.5-.5z" opacity=".98"/></g></g><g fill-rule="evenodd"><path d="m10 11c-.5522619.000055-.9999448.447738-1 1v9c.0000552.552262.4477381.999945 1 1h10c.552262-.000055.999945-.447738 1-1v-8c-.000055-.552262-.447738-.999945-1-1h-5.763672l-1.789062-.894531c-.138881-.069396-.292012-.105506-.447266-.105469z" fill="#ed8733"/><path d="m12 12 2 1h6v8h-10v-9z" fill="#fafafa"/><path d="m12.5 15c-.408698.00038-.776043.249401-.927734.628906l-2 5c-.2622317.656467-.2791709 1.370381.427734 1.371094h10.711864c.408698-.00038.776043-.249401.927734-.628906.771674-1.967819 1.602589-3.912608 2.328218-5.898067.122103-.404257-.284321-.488362-.255952-.473027z" fill="#ed8733"/><path d="m12.5 16-2 5h10.211864l2-5z" fill="#f8db8f"/></g></svg>