<svg viewBox="0 0 24 24" xmlns="http://www.w3.org/2000/svg"><g transform="scale(-1 1)"><rect fill="#1e8bcd" height="1" ry=".5" width="11" x="-22" y="4"/><g fill="#3a3a38"><rect height=".999999" rx=".5" ry=".499999" width="8" x="-22" y="7.000001"/><rect height="1" rx=".5" width="8" x="-22" y="19"/><rect height=".999999" rx=".5" ry=".499999" width="8" x="-22" y="10.000001"/><g fill="#3a3a38"><rect height="1" rx=".5" width="8" x="-22" y="16"/><rect height="1" rx=".5" width="8" x="-22" y="13"/></g></g></g><path d="m.996094 6.501953c0 .127809.04855.255581.146484.353516.195869.195868.513116.195868.708985 0l3.148437-3.148438v16.792969c0 .277.223.5.5.5s.5-.223.5-.5v-16.792969l3.148438 3.148438c.195868.195868.513115.195868.708984 0 .09793-.09793.146484-.225707.146484-.353516 0-.127808-.04855-.257539-.146484-.355469l-4.003906-4c-.04701-.04702-.103236-.08408-.166016-.109375-.057904-.02334-.12105-.037109-.1875-.037109s-.129596.01377-.1875.03711c-.06278.0253-.119003.06236-.166016.109375l-4.003906 4c-.09793.09793-.146484.22766-.146484.355468z" fill="#1e8bcd"/></svg>