<svg height="24" viewBox="0 0 6.3499999 6.3500002" width="24" xmlns="http://www.w3.org/2000/svg"><g transform="translate(0 -290.64998)"><g stroke-width=".264583"><path d="m.78031414 293.82498c-.1392502 0-.25114747.1119-.25114747.25115v2.14354c0 .13925.11189727.25115.25114747.25115h2.67270506c.1392502 0 .2511475-.1119.2511475-.25115v-.28267a2.5135417 2.5135417 0 0 1 -.1322917.005 2.5135417 2.5135417 0 0 1 -.1322916-.007v.2713h-2.6458334v-2.11666h.3534668a2.5135417 2.5135417 0 0 1 -.055811-.26459z" fill="#3a3a38"/><path d="m.79375 294.08957v2.11666h2.6458334v-.2713c-1.0971867-.0577-2.0093218-.82144-2.2897828-1.84536z" fill="#fafafa"/><path d="m3.571875 291.17915a2.2489583 2.2489583 0 0 0 -2.2489583 2.24896 2.2489583 2.2489583 0 0 0 2.2489583 2.24896 2.2489583 2.2489583 0 0 0 2.2489584-2.24896 2.2489583 2.2489583 0 0 0 -2.2489584-2.24896z" fill="#ed8733"/></g><path d="m5.55625 293.42811a1.984375 1.984375 0 0 1 -1.984375 1.98437 1.984375 1.984375 0 0 1 -1.984375-1.98437 1.984375 1.984375 0 0 1 1.984375-1.98438 1.984375 1.984375 0 0 1 1.984375 1.98438z" fill="#f8db8f"/></g></svg>