<svg viewBox="0 0 24 24" xmlns="http://www.w3.org/2000/svg"><path d="m3 15v6h8v-2.080078c-2.3486786-.339668-4.3224728-1.849719-5.3125-3.919922z" fill="#fafafa"/><path d="m12.949219 2c-.5263 0-.949219.4229187-.949219.9492188v2.0507812h1v-2h8v6h-1v1h1.050781c.5263 0 .949219-.4229188.949219-.9492188v-6.1015624c0-.5263-.422919-.9492188-.949219-.9492188z" fill="#3a3a38"/><path d="m13 3v2.0800781c2.348679.3396674 4.322473 1.8497191 5.3125 3.9199219h2.6875v-6z" fill="#fafafa"/><path d="m13 2c-.554 0-1 .446-1 1v2a7 7 0 0 1 1 .0800781v-2.0800781h8v6h-2.683594a7 7 0 0 1 .384766 1h2.298828c.554 0 1-.446 1-1v-6c0-.554-.446-1-1-1z" fill="#3a3a38"/><path d="m12 6a6 6 0 0 0 -6 6 6 6 0 0 0 6 6 6 6 0 0 0 6-6 6 6 0 0 0 -6-6z" fill="#ed8733"/><path d="m3 14c-.554 0-1 .446-1 1v6c0 .554.446 1 1 1h8c.554 0 1-.446 1-1v-2a7 7 0 0 1 -1-.080078v2.080078h-8v-6h2.6835938a7 7 0 0 1 -.3847657-1z" fill="#3a3a38"/><path d="m17 12a5 5 0 0 1 -5 5 5 5 0 0 1 -5-5 5 5 0 0 1 5-5 5 5 0 0 1 5 5z" fill="#f8db8f"/></svg>