<svg viewBox="0 0 24 24" xmlns="http://www.w3.org/2000/svg"><path d="m5 4c-.554 0-1 .446-1 1v5.582031 10.417969c0 .554.446 1 1 1h6.998047v-1h-6.998047v-16h2v-1zm12 0v1h2v16h-6.998047v1h6.998047c.554 0 1-.446 1-1v-10.417969-5.582031c0-.554-.446-1-1-1z" fill="#ed8733"/><path d="m5 5v16h14v-16h-2v1h1v14h-12v-14h1v-1z" fill="#f8db8f"/><path d="m6 6v14h12c0-4.666667 0-9.333333 0-14h-1v1h-10v-1z" fill="#fafafa"/><g fill="#3a3a38"><path d="m12 2c-1.1046 0-2 .89543-2 2h-2v2h8v-2h-2c0-.13807-.005-.27605-.03125-.40625-.18649-.91137-1.00215-1.59375-1.96875-1.59375zm0 1c.41421 0 .75444.26608.90625.625.0506.11964.09375.23693.09375.375 0 .55228-.44771 1-1 1s-1-.44772-1-1 .44771-1 1-1z"/><path d="m10.419376 15.963589h1.597529v-5.190507q0-.228219.01755-.473992l-1.304941 1.146944q-.140442.117035-.275033.08192-.128738-.04096-.181404-.117035l-.3101382-.427174 2.2412222-1.983745h.795839v6.963589h1.462939v.749025h-4.043563z" stroke-width=".29961"/></g></svg>