<svg viewBox="0 0 24 24" xmlns="http://www.w3.org/2000/svg"><path d="m18.498047 2c-.04224.0005563-.08424.0064601-.125.0175781l-16.0078126 4.4648438c-.3217285.0892121-.4673705.462603-.2910156.7460937l8.7363282 14.1406254c.0032.0046.006366.009202.009765.013671l.263672.394532c.092708.139085.248846.222632.416016.222656h10c.392352.000593.632553-.430226.425781-.763672l-2.582031-4.173828-2.185547-4.957031c-.0031-.0079-.006266-.015708-.009765-.023438l-.136719-.271484.085937-.345703c.0014-.0052.002706-.010395.003906-.015625l1.894532-8.8437502c.067981-.3151854-.175668-.611386-.498047-.6054688zm-.662109 1.2128906-1.714844 8.0156254-.128906.517578c-.03448.203642.000229.278499.037109.349609l.212891.425781 2.195312 4.980469c.01018.02058.024869.038604.042969.052735l-.011719.007812 2.121094 3.431641h-8.81836l-.109375-.16211-8.3789059-13.5624998zm.857421 14.1015624c.003977.007488.016275.037069.029297.066406 0 0 .001953.001953.001953.001953.003872.007322.003907.010115.007813.017579.001607.003406.002372.004541.003906.007812.008951.017188.016799.029607.021484.039063.003324.006251.005242.012084.00586.013672.001725.003804-.012813-.020953-.017578-.029297-.000581-.00108-.004586-.007144-.00586-.009766-.002102-.004018-.002615-.005353-.005859-.011719-.001726-.002919-.000051-.000678-.001953-.003906 0 0-.001953-.001953-.001953-.001953l-.003907.001953c-.000499-.00457-.001081-.009172-.001953-.013672-.00459-.009179-.002351-.002686-.005859-.009766v-.001953-.001953c-.004914-.009953-.005126-.010005-.007812-.015625-.000725-.001406-.001465-.004878-.001954-.005859-.002409-.005469-.005025-.013522-.005859-.015625-.002196-.005882-.011447-.03051-.009766-.027344z" fill="#3a3a38"/><g fill="none"><g stroke="none" stroke-linecap="round" stroke-linejoin="round"><path d="m17.835938 3.2128906-14.5527349 4.0566406 8.3789059 13.5624998.109375.16211h8.81836l-2.121094-3.431641.01172-.0078c-.0181-.01413-.03279-.03215-.04297-.05273l-2.195312-4.980469-.212891-.425781c-.03688-.07111-.07172-.145987-.03724-.349629l.128906-.517578zm.882812 14.1679684c.0013.0019.0026.0039.0039.0059.107985.235696-.103809-.245093-.0039-.0059zm.0039.0059c.000707.002.0014.0039.002.0059.115941.231887-.109937-.241556-.002-.0059zm.002.0059c.000872.0045.0015.0091.002.01367l.0039-.002c.131441.223465-.125716-.233667-.002-.0059.123762.227807-.119847-.237746-.0039-.0059z" fill="#fafafa"/><path d="m17.589844 3.4765625-14.0156252 3.9082031 8.2441402 13.3457034.05078.07617h8.386718l-1.945312-3.146485a.69254278.69254278 0 0 1 -.04297-.08398l-2.193359-4.97461-.210938-.421874a.69254278.69254278 0 0 1 -.05273-.478516l.128905-.513674z"/></g><path d="m17.589844 3.4765625-14.0156252 3.9082031 8.2441402 13.3457034.05078.07617h8.386718l-1.945312-3.146485a.69254278.69254278 0 0 1 -.04297-.08398l-2.193359-4.97461-.210938-.421874a.69254278.69254278 0 0 1 -.05273-.478516l.128905-.513674z"/></g></svg>