<svg viewBox="0 0 24 24" xmlns="http://www.w3.org/2000/svg"><path d="m5 4c-.554 0-1 .446-1 1v16c0 .554.446 1 1 1h6.998047v-1h-6.998047v-16h2v-1zm12 0v1h2v4.9980469a1.0024391 1.0024391 0 0 1 .708984.2929691l.291016.291015v-5.582031c0-.554-.446-1-1-1z" fill="#ed8733"/><path d="m12 2c-1.1046 0-2 .89543-2 2h-2v2h8v-2h-2c0-.13807-.005-.27605-.03125-.40625-.18649-.91137-1.00215-1.59375-1.96875-1.59375zm0 1c.41421 0 .75444.26608.90625.625.0506.11964.09375.23693.09375.375 0 .55228-.44771 1-1 1s-1-.44772-1-1 .44771-1 1-1z" fill="#3a3a38"/><g transform="translate(-1 6)"><path d="m14 12v10h8v-6h-3.142578c-.474857 0-.857422-.382565-.857422-.857422v-3.142578zm5 .414062v2.585938h2.585938z" fill="#fafafa" transform="translate(1 -6)"/><path d="m14.857422 5c-.474857 0-.857422.3825647-.857422.8574219v10.2851561c0 .474857.382565.857422.857422.857422h8.285156c.474857 0 .857422-.382565.857422-.857422v-7.142578c-1.333333-1.3333333-2.666667-2.6666667-4-4zm.142578 1h4v3.1425781c0 .474857.382565.8574219.857422.8574219h3.142578v6h-8zm5 .4140625 2.585938 2.5859375h-2.585938z" fill="#3a3a38"/></g><path d="m5 5v16h6.998047v-1h-5.998047v-14h1v-1zm12 0v1h1v3.9980469h1v-4.9980469z" fill="#f8db8f"/><path d="m6 6v14h5.998047v-8.142578c0-1.013208.846167-1.8593751 1.859375-1.8593751h4.142578v-3.9980469h-1v1h-10v-1z" fill="#fafafa"/></svg>