<svg viewBox="0 0 24 24" xmlns="http://www.w3.org/2000/svg"><path d="m5 4c-.554 0-1 .446-1 1v5.582031 10.417969c0 .554.446 1 1 1h6.998047v-1h-6.998047v-16h2v-1zm12 0v1h2v16h-6.998047v1h6.998047c.554 0 1-.446 1-1v-10.417969-5.582031c0-.554-.446-1-1-1z" fill="#ed8733"/><path d="m5 5v16h14v-16h-2v1h1v14h-12v-14h1v-1z" fill="#f8db8f"/><path d="m6 6v14h12c0-4.666667 0-9.333333 0-14h-1v1h-10v-1z" fill="#fafafa"/><path d="m12 2c-1.1046 0-2 .89543-2 2h-2v2h8v-2h-2c0-.13807-.005-.27605-.03125-.40625-.18649-.91137-1.00215-1.59375-1.96875-1.59375zm0 1c.41421 0 .75444.26608.90625.625.0506.11964.09375.23693.09375.375 0 .55228-.44771 1-1 1s-1-.44772-1-1 .44771-1 1-1z" fill="#3a3a38"/><path d="m11.5 9c-1.38125 0-2.5 1.074391-2.5 2.400391v.599609h1v-.599609c0-.66.812504-1.406651 1.5-1.404297.990199.0034 1.49904.535262 1.486328 1.36914-.005.329962-.374219.66486-.605469.88086l-.77539.755859c-.45.438-.623578.996364-.611328 1.65625l.0059.341797h1c-.000041-1.192826-.000773-.999219.855428-1.697266l.5625-.552734c.35625-.342.582031-.821609.582031-1.349609 0-1.326-1.11875-2.400391-2.5-2.400391zm-.5 7v1h1v-1z" fill="#ed3d3b"/></svg>