<svg viewBox="0 0 24 24" xmlns="http://www.w3.org/2000/svg"><path d="m8 19v2h8v-2z" fill="#fafafa" fill-rule="evenodd"/><path d="m7 19v2.142578c0 .474857.3825649.857422.8574219.857422h8.2851561c.474857 0 .857422-.382565.857422-.857422v-2.142578h-1v2h-8v-2z" fill="#3a3a38"/><path d="m3 9c-.554 0-1 .446-1 1v8c0 .554.446 1 1 1h18c.554 0 1-.446 1-1v-8c0-.554-.446-1-1-1h-2v1h2v8h-18v-8h2v-1z" fill="#3a3a38"/><path d="m3 10v8h18v-8h-2v2c0 .554-.446 1-1 1h-12c-.554 0-1-.446-1-1v-2zm15 6h2v1h-2z" fill="#797774"/><path d="m7 8c-.554 0-1 .446-1 1v2.296875c0 .554.446 1 1 1h10c.554 0 1-.446 1-1v-2.296875c0-.554-.446-1-1-1v2h-1-8-1z" fill="#1e8bcd"/><path d="m7.8574219 4c-.474857 0-.8574219.3825649-.8574219.8574219v5.1425781h1v-5h.1015625c.0685174-.2095939.176408-.4053577.3339844-.5625.5567531-.5552193 1.5684241-.5534413 2.1230471.0039062l.4375.4375.001953-.8789062zm6.1406251 0-.001953.8789062.427734-.4277343c.552649-.572212 1.581619-.5796923 2.142578-.015625.56096.5640673.547913 1.5930991-.027344 2.1425781l-.539062.5390625v2.8828125h1v-5.1425781c0-.474857-.382565-.8574219-.857422-.8574219z" fill="#3a3a38"/><g fill="#fafafa"><path d="m8 5v5h4.410156c-.439564-.0247481-.865384-.2470084-1.126953-.6015625l.097656.1132813-2.9472652-2.9511719c-.3985045-.3987501-.5056014-1.0295979-.3320313-1.5605469zm8 2.1171875-2.40625 2.4023437.085938-.0976562c-.268874.3499171-.700044.5623117-1.140626.578125h3.460938z"/><path d="m18 16h2v1h-2z"/></g><path d="m12.482422 9.0070612a.50005.50005 0 0 1 -.394531-.203125l-2.947266-2.951171a.50063788.50063788 0 1 1 .7089844-.707032l2.1425786 2.146485.0078-5.785157a.50005.50005 0 1 1 1 0l-.0078 5.785157 2.15039-2.146485a.50005.50005 0 1 1 .705078.708985l-2.960937 2.957031a.50005.50005 0 0 1 -.404297.195312z" fill="#1e8bcd" fill-rule="evenodd"/></svg>