<svg viewBox="0 0 24 24" xmlns="http://www.w3.org/2000/svg"><path d="m5 4c-.554 0-1 .446-1 1v5.582031 10.417969c0 .554.446 1 1 1h6.998047v-1h-6.998047v-16h2v-1zm12 0v1h2v16h-6.998047v1h6.998047c.554 0 1-.446 1-1v-10.417969-5.582031c0-.554-.446-1-1-1z" fill="#ed8733"/><path d="m5 5v16h14v-16h-2v1h1v14h-12v-14h1v-1z" fill="#f8db8f"/><path d="m6 6v14h12c0-4.666667 0-9.333333 0-14h-1v1h-10v-1z" fill="#fafafa"/><g fill="#3a3a38"><path d="m12 2c-1.1046 0-2 .89543-2 2h-2v2h8v-2h-2c0-.13807-.005-.27605-.03125-.40625-.18649-.91137-1.00215-1.59375-1.96875-1.59375zm0 1c.41421 0 .75444.26608.90625.625.0506.11964.09375.23693.09375.375 0 .55228-.44771 1-1 1s-1-.44772-1-1 .44771-1 1-1z"/><path d="m13.480639 16.091873q-.157605 0-.24247-.04849-.08486-.04849-.115173-.200038l-.133359-.551619q-.230346.212161-.454631.38189-.218223.163667-.460693.278841-.24247.115173-.521311.169729-.278841.06062-.612237.06062-.34552 0-.648608-.09093-.2970256-.096991-.5273723-.290967-.2242848-.200038-.3576434-.491002-.1272968-.297026-.1272968-.697102 0-.351582.1879143-.672854.1939761-.327335.6243602-.581929.430385-.254593 1.121425-.412199.69104-.163667 1.697291-.187914v-.454632q0-.69104-.297026-1.03656-.290964-.351581-.854707-.351581-.375829 0-.636485.09699-.254593.09699-.442508.212161-.187914.115173-.327334.212161-.133359.09699-.272779.09699-.1091116 0-.1879144-.05456-.078803-.05456-.1272969-.139421l-.1939761-.339457q.4910024-.472817 1.0547454-.703163.569805-.236409 1.260844-.236409.497064 0 .885016.163668.387953.157605.648608.454631.260655.297026.394014.709225.13942.4122.13942.915325v3.788596zm-2.218601-.654669q.266717 0 .491002-.05456.224285-.05456.424323-.151544.200037-.10305.375828-.248532.181853-.151544.357644-.333396v-1.224475q-.709225.03031-1.206289.121236-.497064.08486-.812275.230346-.30915.145482-.44857.34552-.13942.193976-.13942.436446 0 .230347.07274.400076.0788.163668.206099.272779.127297.10305.303088.157606.175791.04849.375829.04849z" stroke-width=".310362"/></g></svg>