<svg viewBox="0 0 24 24" xmlns="http://www.w3.org/2000/svg"><path d="m8 2c-3.3137085 0-6 2.6862915-6 6 0 3.313708 2.6862915 6 6 6h1v8h1v-19h2v19h1v-2.876953l-.558594-.558594c-.143216-.143186-.255642-.315336-.330078-.5-.06661-.165247-.109375-.355947-.109375-.560547 0-.20459.04277-.395313.109375-.560547.07448-.184828.186988-.356915.330078-.5l.558594-.558593v-12.884766h4v-1zm0 1h1v10h-1c-2.7614237 0-5-2.238576-5-5 0-2.7614237 2.2385763-5 5-5z" fill="#3a3a38"/><path d="m17.503907 13c.127809 0 .255581.04855.353516.146484.195868.195869.195868.513116 0 .708985l-3.148438 3.148437h6.792969c.277 0 .5.223.5.5s-.223.5-.5.5h-6.792969l3.148438 3.148438c.195868.195868.195868.513115 0 .708984-.09794.09793-.225707.146484-.353516.146484-.127808 0-.257539-.04855-.355469-.146484l-4-4.003906c-.04702-.04701-.08407-.103236-.109375-.166016-.02334-.0579-.03711-.12105-.03711-.1875s.01377-.129596.03711-.1875c.0253-.06278.06236-.119003.109375-.166016l4.000001-4.003906c.097929-.09793.22766-.146484.355468-.146484z" fill="#1e8bcd"/><path d="m8 3c-2.7614237 0-5 2.2385763-5 5 0 2.761424 2.2385763 5 5 5h1v-10z" fill="#c8c6c4"/></svg>