<svg viewBox="0 0 24 24" xmlns="http://www.w3.org/2000/svg"><path d="m5 4c-.554 0-1 .446-1 1v16c0 .554.4460035 1.001977 1 1l2.1894531-.007812c-.1140229-.314583-.1883485-.648573-.1894531-1l-2 .007812v-16h2v-1zm12 0v1h2v12h1v-12c0-.554-.446-1-1-1zm-6.992188 12.992188c-.1770632 0-.3497454.01945-.5175776.052734.1687603-.029904.3408346-.052734.5175776-.052734z" fill="#ed8733"/><path d="m12 2c-1.1046 0-2 .89543-2 2h-2v2h8v-2h-2c0-.13807-.005-.27605-.03125-.40625-.18649-.91137-1.00215-1.59375-1.96875-1.59375zm0 1c.41421 0 .75444.26608.90625.625.0506.11964.09375.23693.09375.375 0 .55228-.44771 1-1 1s-1-.44772-1-1 .44771-1 1-1z" fill="#3a3a38"/><path d="m10.007812 17.992188c-1.1126935 0-2.007812.895118-2.007812 2.007812v.984376c0 1.112694.8951185 2.007812 2.007812 2.007812h2.984375c.743044 0 1.381293-.403427 1.728516-1h-1.720703v-.002c-.0028.0001-.005.002-.0078.002h-2.984388c-.5759565 0-1.007824-.431856-1.007812-1.007812v-.984376c0-.575957.4318555-1.007812 1.007812-1.007812h2.984375c.0028 0 .005.0019.0078.002v-.002h1.720703c-.347223-.596573-.985472-1-1.728516-1zm8 .0078c-.743044 0-1.381292.403427-1.728515 1h1.720703v.002c.0028-.000021.005-.002.0078-.002h2.984376c.575969.000012 1.007824.431867 1.007824 1.007824v.984376c0 .575957-.431855 1.007812-1.007812 1.007812h-2.984376c-.0028 0-.005-.0019-.0078-.002v.002h-1.720703c.347223.596573.985471 1 1.728515 1h2.984376c1.112682 0 2.0078-.895118 2.0078-2.007812v-.984376c0-1.112694-.895118-2.007812-2.007812-2.007812zm-6.289062 1.992188v1l7.28125.007824v-1z" fill="#1e8bcd" stroke-width=".935545"/><path d="m5 5v16l2-.007812c-.000007-.002601 0-.005213 0-.007813v-.984375c0-.00264-.000007-.005174 0-.007812l-1 .007812v-14h1v-1zm12 0v1h1v11.001953c.002756-.000008.005054-.001953.007812-.001953h.992188v-12zm-6.992188 11.992188c-.3473683 0-.6766547.07298-.9882808.183593.3115032-.110509.641072-.183593.9882808-.183593zm-2.8183589 1.998046c-.0484362.133196-.097727.265347-.1269531.40625.0291603-.140811.0786076-.273132.1269531-.40625z" fill="#f8db8f"/><path d="m6 6v14l1-.0078c.00434-1.645431 1.3614524-3 3.007812-3h2.984375c.989398 0 2.103849.537961 2.648438 1.277343.543135-.736706 1.374101-1.26464 2.359375-1.26759v-11.001953h-1v1h-10v-1z" fill="#fafafa"/></svg>