<svg viewBox="0 0 24 24" xmlns="http://www.w3.org/2000/svg"><path d="m12.5 4.0058594c-2.7277766 0-5.3202488.8675744-7.2578125 2.2929687s-3.2363281 3.4400348-3.2363281 5.7011719c0 4.481533 4.5385874 7.994141 9.9941406 7.994141 2.7117 0 5.18287-.734436 7.003906-2.039063 1.821037-1.304627 2.990235-3.214311 2.990235-5.455078a.50548142.50548142 0 0 0 -.50586-.505859h-8.482422v-7.4824222a.50548142.50548142 0 0 0 -.505859-.5058594zm-.5 1.0449218v7.4492188a.50005.50005 0 0 0 .5.5h8.423828c-.157202 1.669531-1.03987 3.088408-2.505859 4.138672-1.614235 1.15647-3.888739 1.849609-6.417969 1.849609-5.0266537 0-8.9882812-3.195345-8.9882812-6.988281-.0000001-1.876317 1.0785552-3.6069209 2.8261718-4.8925781 1.6298901-1.1990501 3.8343908-1.956222 6.1621094-2.0566407z" fill="#3a3a38"/><path d="m12 5.0507812c-2.3277186.1004187-4.5322193.8575906-6.1621094 2.0566407-1.7476166 1.2856572-2.8261718 3.0162611-2.8261718 4.8925781 0 3.792936 3.9616275 6.988281 8.9882812 6.988281 2.52923 0 4.803734-.693139 6.417969-1.849609 1.465989-1.050264 2.348657-2.469141 2.505859-4.138672h-8.423828a.50005.50005 0 0 1 -.5-.5z" fill="#fafafa"/></svg>