<svg viewBox="0 0 24 24" xmlns="http://www.w3.org/2000/svg"><g fill="#1e8bcd"><path d="m2.5 2a.50005.50005 0 0 0 -.5.5v19a.50005.50005 0 0 0 .5.5h8.142578 10.857422a.50005.50005 0 0 0 .5-.5v-8a.50005.50005 0 0 0 -.5-.5h-10.5v-10.5a.50005.50005 0 0 0 -.5-.5zm.5 1h7v10.5a.50005.50005 0 0 0 .5.5h10.5v7h-10.357422-7.642578z"/><path d="m9.5 13.996094c-.095182.0013-.1880113.02978-.267578.08203l-5.0000001 5c-.6037629.347058-.036146 1.241988.5351562.84375l4.9999999-5c.431585-.265845.239286-.931173-.267578-.92578z"/></g></svg>