<svg viewBox="0 0 24 24" xmlns="http://www.w3.org/2000/svg"><g fill="#3a3a38"><path d="m7.2695312 5.0039062-7.09179682 13.9707028h1.45703122c.1559459 0 .2935588-.041886.4140625-.126953.1205035-.09214.2108702-.197856.2675781-.318359l1.7402344-3.529297h5.8945313l.8593751 3.529297c.03544.141768.101203.252105.193359.330078.09215.07798.222455.115234.392578.115234h1.445313l-3.6679689-13.9707028zm.7460938 1.7539063c.0354426.2551843.0746574.4958258.1171875.7226563.0496189.2197418.0915102.4138615.1269531.5839843l1.203125 4.9355469h-4.4199218l2.4296874-4.9238281c.0779728-.1701228.1617565-.3688727.2539063-.5957031.0921496-.2268306.1898242-.467472.2890625-.7226563z"/><path d="m22.433127 18.975013h-.978207q-.372144 0-.499735-.180755-.127593-.191389-.106329-.457205l.191387-2.211597q-.40404.680491-.871879 1.233391-.457204.552899-.978206.946307-.510368.393409-1.095166.606063-.574164.212654-1.190859.212654-.680492 0-1.23339-.244552-.542267-.244551-.935676-.71239-.382777-.478469-.595431-1.169594-.202021-.701757-.202021-1.605534 0-.914411.244553-1.78629.255185-.87188.701757-1.637432.457205-.776186 1.095165-1.424779.63796-.6485934 1.414146-1.1164307.776186-.4678378 1.679963-.723022.903778-.265817 1.881984-.265817.701757 0 1.382248.1063264.680492.095695 1.318453.3721441zm-4.837869-1.403513q.552899 0 1.084533-.308348.531634-.31898.999471-.882512.478471-.563531.882514-1.329085.414673-.765552.723022-1.679962l.425306-3.498151q-.244551-.053159-.499736-.063799-.255183-.02127-.499735-.02127-1.010105 0-1.90325.435939-.893145.425308-1.563003 1.158962-.669859.723023-1.063268 1.679963-.382776.956941-.382776 2.009577 0 2.498679 1.796922 2.498679z"/></g></svg>