<svg viewBox="0 0 24 24" xmlns="http://www.w3.org/2000/svg"><path d="m5 3v18h7.310547l1.140625-3.423828c.210479-2.17026 1.954743-3.914519 4.125-4.125l1.423828-.47461v-9.976562z" fill="#fafafa"/><path d="m5 2c-.554 0-1 .446-1 1v18c0 .554.446 1 1 1h7.019531c.013442-.086651.016223-.172864.044922-.259766.0007-.0013.001284-.002606.001953-.003906l.244141-.736328h-7.310547v-18h14v9.976562l1-.332031v-9.644531c0-.554-.446-1-1-1z" fill="#3a3a38"/><path d="m12 5v1h6v-1zm0 3v1h6v-1zm-6 3v1h12v-1zm0 3v1h8.576172c.354091-.402707.774118-.739267 1.246094-1zm0 3v1h7.310547l.140625-.423828c.018902-.194904.042953-.388798.085937-.576172z" fill="#797774"/><path d="m6 5h4v4h-4z" fill="#797774"/><path d="m22.279297 13c-.0744.000902-.148211.01342-.21875.03711l-4.228516 1.408203c-1.797579.09066-3.296061 1.589137-3.386719 3.386719l-1.408203 4.228516c-.184023.557236.345108 1.086367.902344.902344l4.228516-1.408203c1.797579-.09066 3.296061-1.589137 3.386719-3.386719l1.408203-4.228516c.154288-.464669-.193996-.943311-.683594-.939454z" fill="#0063b1"/><path d="m22.001953 13.998047-3.886719 1.294922a.89452139.89452139 0 0 1 -.238281.04492c-1.327373.06694-2.472118 1.211688-2.539062 2.539062a.89452139.89452139 0 0 1 -.04492.238281l-1.294922 3.886719 3.886719-1.294922a.89452139.89452139 0 0 1 .238281-.04492c1.327373-.06695 2.472118-1.211688 2.539062-2.539062a.89452139.89452139 0 0 1 .04492-.238281zm-4.001953 2.001953a2 2 0 0 1 2 2 2 2 0 0 1 -2 2 2 2 0 0 1 -2-2 2 2 0 0 1 2-2zm-4.341797 6.113281-.002.002h.0039s-.002-.002-.002-.002z" fill="#83beec"/><g fill-opacity=".982993"><path d="m21.5 18a3.5 3.5 0 0 1 -3.5 3.5 3.5 3.5 0 0 1 -3.5-3.5 3.5 3.5 0 0 1 3.5-3.5 3.5 3.5 0 0 1 3.5 3.5z" fill="#0063b1"/><path d="m20.5 18a2.5 2.5 0 0 1 -2.5 2.5 2.5 2.5 0 0 1 -2.5-2.5 2.5 2.5 0 0 1 2.5-2.5 2.5 2.5 0 0 1 2.5 2.5z" fill="#83beec"/></g></svg>