<svg viewBox="0 0 24 24" xmlns="http://www.w3.org/2000/svg"><g fill="#1e8bcd"><path d="m5 4c-1.6533514 0-3 1.3466486-3 3v10c0 1.653351 1.3466486 3 3 3h14c1.653351 0 3-1.346649 3-3v-10c0-1.6533514-1.346649-3-3-3zm0 1h14c1.116649 0 2 .8833514 2 2v10c0 1.116649-.883351 2-2 2h-14c-1.1166486 0-2-.883351-2-2v-10c0-1.1166486.8833514-2 2-2z"/><path d="m17.5 7.9960938c-.09518.00132-.188011.029776-.267578.082031l-11.0000001 7.0000002c-.6037629.347058-.036146 1.241988.5351562.84375l10.9999999-7.0000002c.431585-.2658463.239286-.9311743-.267578-.925781z"/></g></svg>