<svg viewBox="0 0 24 24" xmlns="http://www.w3.org/2000/svg"><path d="m11.40625 1.9921875c-.453977 0-.846429.212335-1.123047.4765625s-.4725417.5769483-.6562499.8769531c-.3674164.6000097-.6967842 1.1124233-1.0253906 1.2460938-.3280811.1334388-.9381742-.0007212-1.6289063-.1699219-.345366-.0846003-.706397-.1691195-1.0898437-.1640625s-.8149204.1254164-1.1386719.4433594c-.3237464.3179378-.447918.7476638-.453125 1.1289062-.005207.3812425.0797487.7385225.1660156 1.078125.172534.6792051.3058327 1.271016.1738282 1.5839844-.1321922.3133485-.6570191.6433183-1.2675782 1.0039063-.3052793.1802937-.6214751.3727633-.890625.6445312-.2691495.271768-.4902344.661371-.4902343 1.115234 0 .453864.2209996.843642.4902343 1.115235.2692348.271593.5853506.464506.890625.644531.6105489.36005 1.1354004.688574 1.2675782 1.001953.1319588.312795-.0012937.904747-.1738282 1.583984-.0862671.339621-.1712224.696869-.1660156 1.078126.0052069.381255.1293703.81096.453125 1.128906.3237647.317913.7552351.438321 1.1386719.443359s.7444845-.079464 1.0898437-.164062c.6907186-.169198 1.3008202-.303397 1.6289063-.169922.3283295.133524.6579938.647551 1.0253906 1.248047.1836985.300247.3796609.612504.6562499.876953.276589.264448.668926.476562 1.123047.476562s.846458-.212114 1.123047-.476562c.276589-.264449.472551-.576706.65625-.876953.31626-.516915.599233-.873108.882812-1.074219l3.511719 3.447265a.51452477.51452477 0 0 0 .820313-.132812l1.109375-2.179688 2.222656-1.09375a.51452477.51452477 0 0 0 .238281-.242187c.00006-.000126.048839-.249825.048828-.25-.00001-.000175-.029217-.142355-.029297-.142578s-.033054-.075901-.033203-.076172-.019668-.031744-.027343-.042969c-.030701-.044899-.045872-.059079-.058594-.072265-.025445-.026374-.038387-.036493-.052735-.048829-.028695-.024669-.056557-.04676-.091797-.074218-.070478-.054916-.167509-.128056-.287109-.216797-.239199-.177483-.570792-.418992-.953125-.697266-.703753-.512213-1.564742-1.136966-2.30664-1.685547-.025113-.225884-.047071-.45012.001953-.566406.13222-.313416.657038-.641901 1.267578-1.001953.30527-.180026.621398-.372936.890625-.644531.269226-.271595.490234-.661378.490234-1.115235 0-.453864-.221084-.843466-.490234-1.115234-.26915-.2717679-.585346-.4642375-.890625-.6445312-.610559-.360588-1.135387-.6905587-1.267578-1.0039063-.132005-.3129688.001294-.9047793.173828-1.5839844.086267-.3396025.171222-.6968827.166015-1.078125-.005207-.3812422-.129379-.8109683-.453125-1.1289062-.323751-.317943-.755225-.4383024-1.138671-.4433594-.383448-.005057-.744478.0794622-1.089844.1640625-.690732.1692007-1.300826.3033608-1.628906.1699219-.328607-.1336704-.657975-.6460841-1.025391-1.2460938-.183708-.3000048-.379632-.6127256-.65625-.8769531s-.66907-.4765625-1.123047-.4765625zm0 1.0097656c.166635 0 .272771.0511086.425781.1972657.153011.1461569.318818.390707.492188.6738281.346739.5662421.706217 1.3290181 1.505859 1.6542969.799455.325158 1.596781.0350114 2.25-.125.326609-.0800058.620519-.1356536.835938-.1328126.215418.0028411.328438.0394842.443359.1523438.114926.1128643.149516.2148654.152344.421875.002827.2070096-.053407.4961255-.134766.8164062-.162717.6405616-.461847 1.430611-.126953 2.2246094.335002.7940916 1.108533 1.1396924 1.685547 1.4804684.288507.170389.538753.336137.6875.486328.148746.150195.197265.248363.197265.404297 0 .155941-.048608.254332-.197265.404297s-.398996.314237-.6875.484375c-.577008.340277-1.350476.686215-1.685547 1.480469-.194602.461597-.135691.919267-.064453 1.3125a.49587639.49587639 0 0 0 .193359.310547c.787031.584405 1.748234 1.282202 2.511719 1.837891.272239.198144.471889.344355.675781.49414l-1.65625.814453a.49587639.49587639 0 0 0 -.222656.220703l-.880859 1.730469-3.335938-3.275391.025391.027344c-.154072-.176778-.449009-.200693-.578125-.160156-.068287.021439-.091825.053935-.13086.080078-.761111.337468-1.12429 1.067666-1.46289 1.621094-.173379.283381-.341102.527507-.494141.673828s-.257332.197266-.423828.197266c-.166497 0-.270789-.050945-.423828-.197266s-.320762-.390447-.494141-.673828c-.346757-.566762-.7059494-1.330945-1.5058591-1.65625-.7994496-.325238-1.5967682-.035015-2.25.125-.3266159.080007-.6205094.135643-.8359375.132812-.2154282-.00283-.3284508-.039512-.4433594-.152343-.1149184-.112857-.1495163-.214842-.1523438-.421875-.0028274-.207033.0534071-.496113.1347657-.816407.162717-.640587.4618918-1.430672.1269531-2.224609-.3350167-.79429-1.108524-1.14019-1.6855469-1.480469-.2885114-.170139-.5388357-.334408-.6875-.484375-.1486643-.149966-.1972656-.248362-.1972656-.404297 0-.155934.0485194-.254101.1972656-.404297.1487462-.150192.3989934-.315939.6875-.486328.5770132-.340776 1.3505442-.6863775 1.6855469-1.4804684.3348946-.7939986.0357644-1.5840478-.1269531-2.2246094-.0813588-.3202807-.1375928-.6093967-.1347657-.8164062.0028274-.2070095.0374174-.3090106.1523438-.421875.1149214-.1128596.2279407-.1495027.4433594-.1523438.2154187-.002841.5093281.0528068.8359375.1328126.6532187.1600114 1.4505456.450158 2.25.125.7996428-.3252788 1.1591201-1.0880548 1.5058591-1.6542969.17337-.2831211.339177-.5276714.492188-.6738281.15301-.1461571.259145-.1972657.425781-.1972657zm.09375 3.9980469a4.5 4.5 0 0 0 -4.5 4.5 4.5 4.5 0 0 0 4.5 4.5 4.5 4.5 0 0 0 4.5-4.5 4.5 4.5 0 0 0 -4.5-4.5zm0 1a3.5 3.5 0 0 1 3.5 3.5 3.5 3.5 0 0 1 -3.5 3.5 3.5 3.5 0 0 1 -3.5-3.5 3.5 3.5 0 0 1 3.5-3.5z" fill="#3a3a38"/><path d="m11.40625 3.0019531c-.166636 0-.272771.0511089-.425781.1972657-.153011.1461568-.318818.390707-.492188.6738281-.346739.5662421-.7062163 1.329018-1.5058591 1.6542969-.7994544.3251581-1.5967813.0350109-2.25-.125-.3266094-.0800059-.6205188-.1356536-.8359375-.1328126-.2154187.0028411-.328438.0394842-.4433594.1523438-.1149264.1128644-.1495164.2148655-.1523438.421875-.0028272.2070095.0534069.4961255.1347657.8164062.1627175.6405616.4618477 1.4306108.1269531 2.2246094-.3350027.7940909-1.1085337 1.1396924-1.6855469 1.4804684-.2885066.170389-.5387538.336135-.6875.486328-.1487462.150195-.1972656.248363-.1972656.404297 0 .155935.048601.254331.1972656.404297.1486643.149967.3989886.314236.6875.484375.5770229.340279 1.3505302.686179 1.6855469 1.480469.3349387.793937.035764 1.584022-.1269531 2.224609-.081359.320294-.1375931.609374-.1347657.816407.0028301.207033.037425.309018.1523438.421875.1149086.112831.2279312.149513.4433594.152343.2154281.0028.5093216-.0528.8359375-.132812.6532318-.160015 1.4505504-.450238 2.25-.125.7999097.325305 1.1591021 1.089488 1.5058591 1.65625.173379.283381.341102.527507.494141.673828s.257331.197266.423828.197266c.166496 0 .270789-.05094.423828-.197266.153039-.146321.320762-.390447.494141-.673828.3386-.553428.701779-1.283626 1.46289-1.621094.03904-.02614.06257-.058638.13086-.080078.129116-.04054.424053-.01662.578125.160156l-.025391-.027344 3.335938 3.275391.880859-1.730469a.49587639.49587639 0 0 1 .222656-.220703l1.65625-.814453c-.203893-.149787-.403542-.295996-.675781-.49414-.763485-.555689-1.724688-1.253486-2.511719-1.837891a.49587639.49587639 0 0 1 -.193359-.310547c-.07124-.393233-.130146-.850903.064453-1.3125.335071-.794254 1.108539-1.140192 1.685547-1.480469.288504-.170138.538843-.33441.6875-.484375s.197265-.248356.197265-.404297c0-.155934-.04852-.254102-.197265-.404297-.148744-.150193-.398993-.315939-.6875-.486328-.577014-.340776-1.350545-.6863768-1.685547-1.4804684-.334894-.7939984-.035764-1.5840478.126953-2.2246094.081359-.3202807.137593-.6093966.134766-.8164062-.002828-.2070096-.037418-.3090107-.152344-.421875-.114921-.1128596-.227941-.1495027-.443359-.1523438-.215419-.0028399-.509329.0528069-.835938.1328126-.653219.1600114-1.450545.4501579-2.25.125-.799642-.3252789-1.15912-1.0880548-1.505859-1.6542969-.17337-.2831211-.339177-.5276711-.492188-.6738281-.15301-.1461571-.259146-.1972657-.425781-.1972657zm.09375 3.9980469a4.5 4.5 0 0 1 4.5 4.5 4.5 4.5 0 0 1 -4.5 4.5 4.5 4.5 0 0 1 -4.5-4.5 4.5 4.5 0 0 1 4.5-4.5z" fill="#fafafa"/></svg>