<svg viewBox="0 0 24 24" xmlns="http://www.w3.org/2000/svg"><path d="m3.7070312 3 4 4h8.5859378l4-4zm-.7070312.7070312v16.5859378l4-4v-8.5859378zm18 0-4 4v8.5859378l4 4zm-13 4.2929688v8h8v-8zm-.2929688 9-4 4h16.5859378l-4-4z" fill="#fafafa"/><path d="m2.484375 2a.50005.50005 0 0 0 -.0839844.0097656.50005.50005 0 0 0 -.0078125.0019532.50005.50005 0 0 0 -.1328125.0488281.50005.50005 0 0 0 -.0058594.0039062.50005.50005 0 0 0 -.0390624.0253907.50005.50005 0 0 0 -.0136719.0097656.50005.50005 0 0 0 -.0234375.0175781.50005.50005 0 0 0 -.0058594.0058594.50005.50005 0 0 0 -.03125.0292969.50005.50005 0 0 0 -.0039062.0058593.50005.50005 0 0 0 -.0292969.03125.50005.50005 0 0 0 -.0039063.0058594.50005.50005 0 0 0 -.0234375.0351563.50005.50005 0 0 0 -.0371093.0664062.50005.50005 0 0 0 -.0097657.0214844.50005.50005 0 0 0 -.0019531.0078125.50005.50005 0 0 0 -.0136719.0410156.50005.50005 0 0 0 -.0019531.0058594.50005.50005 0 0 0 -.0078125.0429687.50005.50005 0 0 0 -.0078125.0839844.50005.50005 0 0 0 0 .015625v18.96875.015625a.50005.50005 0 0 0 .0019531.035156.50005.50005 0 0 0 .0058594.048828.50005.50005 0 0 0 .0097656.044922.50005.50005 0 0 0 0 .00586.50005.50005 0 0 0 .0117188.033203.50005.50005 0 0 0 .0078125.021484.50005.50005 0 0 0 .0019531.005859.50005.50005 0 0 0 .015625.03125.50005.50005 0 0 0 .0253906.042969.50005.50005 0 0 0 .0195313.029297.50005.50005 0 0 0 .0136718.017578.50005.50005 0 0 0 .0175782.019532.50005.50005 0 0 0 .015625.017578.50005.50005 0 0 0 .0175781.015625.50005.50005 0 0 0 .0195313.017578.50005.50005 0 0 0 .0175781.013672.50005.50005 0 0 0 .015625.011718.50005.50005 0 0 0 .0136719.007813.50005.50005 0 0 0 .0429687.02539.50005.50005 0 0 0 .0351563.017579.50005.50005 0 0 0 .0097656.003906.50005.50005 0 0 0 .0332031.009765.50005.50005 0 0 0 .0351563.009766.50005.50005 0 0 0 .0136718.003906.50005.50005 0 0 0 .015625.001954.50005.50005 0 0 0 .0488282.005859.50005.50005 0 0 0 .0351562.001953.50005.50005 0 0 0 .015625 0h18.96875.015625a.50005.50005 0 0 0 .035156-.001953.50005.50005 0 0 0 .041016-.003906.50005.50005 0 0 0 .007812-.001953.50005.50005 0 0 0 .042969-.007813.50005.50005 0 0 0 .005859-.001953.50005.50005 0 0 0 .041016-.013672.50005.50005 0 0 0 .041016-.017578.50005.50005 0 0 0 .003906-.001953.50005.50005 0 0 0 .007812-.003907.50005.50005 0 0 0 .001954-.001953.50005.50005 0 0 0 .041015-.023437.50005.50005 0 0 0 .035157-.023438.50005.50005 0 0 0 .005859-.003906.50005.50005 0 0 0 .03125-.029297.50005.50005 0 0 0 .005859-.003906.50005.50005 0 0 0 .029297-.03125.50005.50005 0 0 0 .005859-.005859.50005.50005 0 0 0 .025391-.033204.50005.50005 0 0 0 .003906-.005859.50005.50005 0 0 0 .023438-.037109.50005.50005 0 0 0 .003906-.00586.50005.50005 0 0 0 .017578-.039062.50005.50005 0 0 0 .03125-.09375.50005.50005 0 0 0 .001953-.007813.50005.50005 0 0 0 .00586-.042968.50005.50005 0 0 0 .003906-.041016.50005.50005 0 0 0 0-.007813.50005.50005 0 0 0 0-.007812v-19a.50005.50005 0 0 0 -.025391-.15625.50005.50005 0 0 0 -.005859-.0175781.50005.50005 0 0 0 -.033203-.0722657.50005.50005 0 0 0 -.001953-.0019531.50005.50005 0 0 0 -.007813-.015625.50005.50005 0 0 0 -.017578-.0253906.50005.50005 0 0 0 -.011719-.015625.50005.50005 0 0 0 -.019531-.0234375.50005.50005 0 0 0 -.013672-.0136719.50005.50005 0 0 0 -.021484-.0214843.50005.50005 0 0 0 -.013672-.0136719.50005.50005 0 0 0 -.023437-.0195313.50005.50005 0 0 0 -.015626-.0117187.50005.50005 0 0 0 -.02539-.0175781.50005.50005 0 0 0 -.017578-.0097657.50005.50005 0 0 0 -.027344-.0136719.50005.50005 0 0 0 -.017578-.0078124.50005.50005 0 0 1 -.001953-.0019532.50005.50005 0 0 0 -.091797-.0292968.50005.50005 0 0 0 -.03125-.0058594.50005.50005 0 0 0 -.076172-.0058594h-19a.50005.50005 0 0 0 -.0078125 0 .50005.50005 0 0 0 -.0078125 0zm1.2226562 1h16.5859378l-4 4h-8.5859378zm-.7070312.7070312 4 4v8.5859378l-4 4zm18 0v16.5859378l-4-4v-8.5859378zm-13 4.2929688h8v8h-8zm-.2929688 9h8.5859378l4 4h-16.5859378z" fill="#3a3a38"/></svg>