<svg viewBox="0 0 24 24" xmlns="http://www.w3.org/2000/svg"><path d="m10.5 8-2.5 2.5v3l2.5 2.5h3l2.5-2.5v-3l-2.5-2.5z" fill="#fafafa" stroke-width=".421053"/><path d="m9.0683594 2a.50005.50005 0 0 0 -.46875.6757812l1.7812496 4.75a.50005.50005 0 0 0 .46875.3242188h2.300782a.50005.50005 0 0 0 .46875-.3242188l1.78125-4.75a.50005.50005 0 0 0 -.46875-.6757812zm-1.1074219.4824219a.50005.50005 0 0 0 -.359375.1464843l-4.9726563 4.9726563a.50005.50005 0 0 0 .1777344.8222656l4.75 1.7812499a.50005.50005 0 0 0 .5292969-.115234l2.0039065-2.0039065a.50005.50005 0 0 0 .115234-.5292969l-1.7812499-4.75a.50005.50005 0 0 0 -.4628906-.3242187zm8.0761715 0a.50005.50005 0 0 0 -.460937.3242187l-1.78125 4.75a.50005.50005 0 0 0 .115234.5292969l2.003906 2.0039065a.50005.50005 0 0 0 .529297.115234l4.75-1.7812499a.50005.50005 0 0 0 .177735-.8222656l-4.972656-4.9726563a.50005.50005 0 0 0 -.361329-.1464843zm-6.2519528.5136719h4.4296878l-1.408203 3.7578124h-1.613282zm-2.0234374.8828124 1.3984374 3.7285157-1.5527343 1.5527343-3.7285157-1.3984374zm8.4765622 0 3.882813 3.8828126-3.728516 1.3984374-1.552734-1.5527343zm-13.7597654 4.6894532a.50005.50005 0 0 0 -.4785156.5v5.8632816a.50005.50005 0 0 0 .6757812.46875l4.75-1.78125a.50005.50005 0 0 0 .3242188-.46875v-2.300782a.50005.50005 0 0 0 -.3242188-.46875l-4.75-1.7812496a.50005.50005 0 0 0 -.1972656-.03125zm19.0058594 0a.50005.50005 0 0 0 -.160156.03125l-4.75 1.7812496a.50005.50005 0 0 0 -.324219.46875v2.300782a.50005.50005 0 0 0 .324219.46875l4.75 1.78125a.50005.50005 0 0 0 .675781-.46875v-5.8632816a.50005.50005 0 0 0 -.515625-.5zm-18.4882812 1.2167968 3.7578124 1.4082028v1.613282l-3.7578124 1.408203zm18.0078122 0v4.4296878l-3.757812-1.408203v-1.613282zm-13.2792966 3.9785158a.50005.50005 0 0 0 -.1679688.03125l-4.75 1.78125a.50005.50005 0 0 0 -.1777344.822266l4.9726563 4.972656a.50005.50005 0 0 0 .8222656-.177735l1.7812499-4.75a.50005.50005 0 0 0 -.115234-.529297l-2.0039065-2.003906a.50005.50005 0 0 0 -.3613281-.146484zm8.5214846 0a.50005.50005 0 0 0 -.332032.146484l-2.003906 2.003906a.50005.50005 0 0 0 -.115234.529297l1.78125 4.75a.50005.50005 0 0 0 .822266.177735l4.972656-4.972656a.50005.50005 0 0 0 -.177735-.822266l-4.75-1.78125a.50005.50005 0 0 0 -.197265-.03125zm-8.6386721 1.078125 1.5527343 1.550781-1.3984374 3.728516-3.8828126-3.882813zm8.7851561 0 3.728516 1.396484-3.882813 3.882813-1.398437-3.728516zm-5.542969 1.408203a.50005.50005 0 0 0 -.46875.324219l-1.7812496 4.75a.50005.50005 0 0 0 .46875.675781h5.8632816a.50005.50005 0 0 0 .46875-.675781l-1.78125-4.75a.50005.50005 0 0 0 -.46875-.324219zm.34375.996094h1.613282l1.408203 3.757812h-4.4296878z" fill="#3a3a38"/><path d="m9.785156 2.9960938 1.408203 3.7578124h1.613282l1.408203-3.7578124zm-2.0234372.8828124-3.8828126 3.8828126 3.7285157 1.3984374 1.5527341-1.5527343zm8.4765622 0-1.398437 3.7285157 1.552734 1.5527343 3.728516-1.3984374zm-13.2421872 5.90625v4.4296878l3.7578124-1.408203v-1.613282zm18.0078122 0-3.757812 1.4082028v1.613282l3.757812 1.408203zm-13.3964841 5.0566408-3.7285157 1.396484 3.8828126 3.882813 1.3984372-3.728516zm8.7851561 0-1.552734 1.550781 1.398437 3.728516 3.882813-3.882813zm-5.199219 2.404297-1.408203 3.757812h4.429688l-1.408203-3.757812z" fill="#fafafa"/></svg>