<svg viewBox="0 0 24 24" xmlns="http://www.w3.org/2000/svg"><path d="m12 2c-5.5169252 0-10 4.4830748-10 10 0 5.516925 4.4830748 10 10 10 5.516925 0 10-4.483075 10-10 0-5.5169252-4.483075-10-10-10zm0 .9902344c4.981824 0 9.009766 4.0279412 9.009766 9.0097656 0 4.981824-4.027942 9.009766-9.009766 9.009766-4.9818244 0-9.0097656-4.027942-9.0097656-9.009766 0-4.9818244 4.0279412-9.0097656 9.0097656-9.0097656zm0 2.0195312c-1.104008 0-2.1192211.209795-3.0175781.5917969a.49016933.49016933 0 0 0 -.1542969.796875l8.773437 8.7734375a.49016933.49016933 0 0 0 .796876-.154297c.382001-.898357.591796-1.91357.591796-3.017578 0-2.0443074-.703818-3.8073338-1.943359-5.046875s-3.002568-1.9433594-5.046875-1.9433594zm0 .9902344c1.819442 0 3.303714.6123076 4.345703 1.6542969 1.041989 1.0419892 1.654297 2.5262611 1.654297 4.3457031 0 .684853-.118495 1.301977-.285156 1.886719l-7.601563-7.6015628c.584742-.1666615 1.201866-.2851562 1.886719-.2851562zm-5.2285156 1.4140625a.49016933.49016933 0 0 0 -.3789063.1953125c-.8863349 1.1734741-1.3828125 2.680585-1.3828125 4.390625 0 2.044307.7038182 3.807334 1.9433594 5.046875s3.0025676 1.943359 5.046875 1.943359c1.710039 0 3.217151-.496477 4.390625-1.382812a.49016933.49016933 0 0 0 .050781-.736328l-9.3124998-9.3125002a.49016933.49016933 0 0 0 -.3574218-.1445313zm.1367187 1.3222656 8.3554689 8.3554689c-.911907.545807-1.981445.908203-3.263672.908203-1.819442 0-3.3037139-.612308-4.3457031-1.654297-1.0419893-1.041989-1.6542969-2.526261-1.6542969-4.345703 0-1.282227.3623959-2.3517647.9082031-3.2636719z" fill="#3a3a38"/><path d="m12 2.9902344c-4.9818244 0-9.0097656 4.0279412-9.0097656 9.0097656 0 4.981824 4.0279412 9.009766 9.0097656 9.009766 4.981824 0 9.009766-4.027942 9.009766-9.009766 0-4.9818244-4.027942-9.0097656-9.009766-9.0097656zm0 2.0195312c2.044307 0 3.807334.7038182 5.046875 1.9433594s1.943359 3.0025676 1.943359 5.046875c0 1.104008-.209795 2.119221-.591796 3.017578a.49016933.49016933 0 0 1 -.796876.154297l-8.773437-8.7734375a.49016933.49016933 0 0 1 .1542969-.796875c.898357-.3820019 1.9135701-.5917969 3.0175781-.5917969zm-5.2285156 2.4042969a.49016933.49016933 0 0 1 .3574218.1445313l9.3124998 9.3125002a.49016933.49016933 0 0 1 -.05078.736328c-1.173475.886335-2.680587 1.382812-4.390626 1.382812-2.0443074 0-3.8073338-.703818-5.046875-1.943359s-1.9433594-3.002568-1.9433594-5.046875c0-1.71004.4964776-3.2171509 1.3828125-4.390625a.49016933.49016933 0 0 1 .3789063-.1953125z" fill="#fafafa"/></svg>