<svg viewBox="0 0 24 24" xmlns="http://www.w3.org/2000/svg"><path d="m6.4785156 2a.50594388.50594388 0 0 0 -.0664062 1.0039062c1.0739493.2020002 2.240956 1.213018 3.1191406 2.8242188.878185 1.6112008 1.462891 3.7863762 1.462891 6.171875 0 2.385499-.584707 4.560703-1.462891 6.171875-.8781843 1.611172-2.0451518 2.622113-3.1191406 2.824219a.50594388.50594388 0 0 0 .1171875 1.003906c2.8371547-.133424 5.6748961-1.260548 7.8300781-3.027344 2.155182-1.766795 3.640625-4.202319 3.640625-6.935547 0-2.7332264-1.484186-5.1851114-3.638672-6.9707028-2.154486-1.7855913-4.9925664-2.9329984-7.8320311-3.0664062a.50594388.50594388 0 0 0 -.0507813 0zm2.4667969 1.4042969c1.7530405.4688809 3.4311535 1.2961351 4.7871095 2.4199219 1.985006 1.6451297 3.283203 3.8372146 3.283203 6.2128902 0 2.375677-1.296904 4.547082-3.28125 6.173829-1.357462 1.112832-3.038319 1.928466-4.7949219 2.390624.5404011-.539031 1.0370843-1.186569 1.4570309-1.957031.967843-1.775665 1.582032-4.099335 1.582032-6.644531 0-2.5451954-.614189-4.8688353-1.582032-6.6445312-.4184557-.76774-.9130603-1.4131035-1.4511715-1.9511719z" fill="#3a3a38"/><path d="m8.9453125 3.4042969c.5381112.5380684 1.0327154 1.1834319 1.4511715 1.9511719.967843 1.7756959 1.582032 4.0993358 1.582032 6.6445312 0 2.545196-.614189 4.868866-1.582032 6.644531-.419947.770462-.9166298 1.418-1.4570309 1.957031 1.7566029-.462159 3.4374599-1.277791 4.7949219-2.390624 1.984346-1.626746 3.28125-3.798152 3.28125-6.173829 0-2.375676-1.298197-4.5677605-3.283203-6.2128902-1.355956-1.1237867-3.034069-1.951041-4.7871095-2.4199219z" fill="#fafafa"/></svg>