<svg viewBox="0 0 24 24" xmlns="http://www.w3.org/2000/svg"><path d="m12.083984.97851562a.66303607.66303607 0 0 0 -.066406.00195313.66303607.66303607 0 0 0 -.597656.49804685l-1.076172 4.1914063-2.9902344-3.1289063a.66303607.66303607 0 0 0 -1.1171875.6347656l1.1640625 4.1699219-4.1542968-1.2148437a.66303607.66303607 0 0 0 -.6484376 1.1113281l3.0917969 3.0253905-4.203125 1.025391a.66303607.66303607 0 0 0 -.0078125 1.287109l4.1914063 1.076172-3.1289063 2.990234a.66303607.66303607 0 0 0 .6347656 1.117188l4.1699219-1.164063-1.2148437 4.154297a.66303607.66303607 0 0 0 1.1113281.648438l2.9511715-3.015625v-2.97461l-.2695309.236329a1.0338859 1.0338859 0 0 1 -.0214843.019531c-.3095438.257871-.8504223.462263-1.3496094.332031a1.0338859 1.0338859 0 0 1 -.0507813-.015625c-.2666446-.084842-.5872315-.245143-.8164062-.576172l.0117187.019531-.4785156-.660156a1.0338859 1.0338859 0 0 1 .1523438-1.380859l3.4589842-3.060547a1.0338859 1.0338859 0 0 1 .685547-.259766h1.226563a1.0338859 1.0338859 0 0 1 1.033203 1.033203v.900391h1.93164c.229212-.342969.483756-.663498.792969-.927734.433211-.370199.936935-.650256 1.480469-.833985a1.0338859 1.0338859 0 0 1 .003906-.001953c.198863-.066287.406166-.106871.613281-.148437l2.861328-2.7343754a.66303607.66303607 0 0 0 -.634765-1.1171875l-4.169922 1.1640625 1.214844-4.1542968a.66303607.66303607 0 0 0 -1.111329-.6484376l-3.02539 3.0917969-1.025391-4.203125a.66303607.66303607 0 0 0 -.623047-.50781248zm-.037109 3.02734378 1.009766 4.140625 2.980468-3.0449219-1.193359 4.0898437 4.103516-1.1464843-1.208985 1.15625c-.03002.009481-.061927.0115244-.091797.0214843-.0026.0013001-.005212.0025963-.007812.0039063-.663454.2242653-1.293366.5728886-1.832031 1.0332035-.398342.340401-.677468.783106-.962891 1.216796v-.376953c.000101-1.1607019-.94086-2.1016627-2.101562-2.1015621h-1.226563c-.513-.0000934-1.008316.1874734-1.392578.5273437l-3.4589845 3.0605474c-.013192.01285-.0262135.025872-.0390625.039062l-2.6191406-.671875 4.140625-1.009766-3.0449219-2.9804684 4.0898437 1.1933594-1.1464843-4.1035156 2.9433591 3.0800781zm-5.9355469 10.9394526c.0629359.15844.1449187.308633.2441407.447266l.1191406.166016-1.421875.396484zm3.0136719 2.064454v.701172l-1.1621094 1.1875.5410156-1.851563c.207533.0097.4141898-.012799.6210938-.037109z" fill="#3a3a38"/><path d="m12.046875 4.0058594-1.058594 4.1269531-2.9433591-3.0800781 1.1464843 4.1035156-4.0898437-1.1933594 3.0449219 2.9804684-4.140625 1.009766 2.6191406.671875c.012849-.01319.025871-.02621.039063-.03906l3.458984-3.0605494c.384262-.3398703.879578-.5274371 1.392578-.5273437h1.226563c1.160702-.0001006 2.101663.9408598 2.101562 2.1015621v.376953c.285423-.433691.564549-.876395.962891-1.216796.538665-.4603145 1.168577-.8089382 1.832031-1.0332035.0026-.00131.0052-.00261.0078-.00391.02987-.00996.06178-.012003.0918-.021484l1.208985-1.15625-4.103516 1.1464843 1.193359-4.0898437-2.980468 3.0449219zm-5.9355469 10.9394526-1.0585937 1.009766 1.421875-.396484-.1191406-.166016c-.099222-.138633-.1812048-.288826-.2441407-.447266zm12.6210939.929688c-.03044.03011-.07084.05493-.103516.08398l.04687.01367c.02301-.02631.05197-.05614.07422-.08203zm-9.607422 1.134766c-.206904.02431-.4135609.04681-.6210938.03711l-.5410156 1.851562 1.1621094-1.1875z" fill="#fafafa"/><g fill="#1e8bcd"><path d="m8.7607245 21.844243h2.4650105v-8.009026q0-.352144.02709-.731376l-2.0135472 1.769751q-.2167042.180586-.4243791.12641-.1986437-.063205-.2799077-.180587l-.4785552-.659142 3.4582382-3.060947h1.227989v10.744917h2.257337v1.155757h-6.2392755z"/><path d="m19.709366 11.000004q.749436 0 1.390519.225734.641084.225733 1.11061.650112.469525.424379.731376 1.038374.270881.613996.270881 1.399548 0 .659142-.198647 1.22799-.189615.55982-.523701 1.074492-.325055.514673-.758465 1.011286-.433408.487586-.911964.9842l-3.042888 3.169298q.343117-.09932.686231-.153498.352144-.05418.668171-.05418h3.765235q.243794 0 .388263.14447.144469.135441.144469.370203v.911967h-7.756205v-.514673q0-.153498.06321-.325056.06321-.180588.216704-.325057l3.674943-3.792323q.469525-.478556.839728-.920993.379232-.442438.641084-.884875.261851-.451468.40632-.911964.14447-.460497.14447-.975169 0-.514673-.162528-.902935-.153499-.388262-.42438-.641083-.27088-.261851-.641082-.388261-.370204-.126411-.803612-.126411-.424379 0-.785553.135439-.361174.126411-.641083.361174-.27991.225734-.478555.55079-.198646.316027-.288939.695259-.07223.306998-.252822.406322-.171557.09029-.487584.04514l-.785553-.126411q.108351-.82167.433408-1.444695.334086-.632054.830699-1.056432.496615-.42438 1.137698-.641084.650109-.216702 1.399544-.216702z"/></g></svg>