<svg viewBox="0 0 24 24" xmlns="http://www.w3.org/2000/svg"><path d="m1.996822 7c0-1.5841076 1.2592251-3 2.875-3h11.486328c.117159-.5602165.359952-1.0618957.775391-1.3867188.540567-.4226583 1.244966-.6132812 1.988281-.6132812.759198 0 1.470505.2355668 2.003906.6914062.533402.4558396.871094 1.1426505.871094 1.9335938v12.5c0 1.593139-1.319069 2.875-2.875 2.875h-1.1875-10.2890625c-.2458313 1.33632-1.3685223 2.375-2.7734375 2.375-1.5819252 0-2.875-1.293113-2.875-2.875v-1.1875zm1 0v11.3125 1.1875c0 1.041465.8335002 1.875 1.875 1.875s1.875-.833535 1.875-1.875a.50005.50005 0 0 1 .5-.5h10.6875 1.1875c1.004293 0 1.875-.836615 1.875-1.875v-12.5c0-.5207324-.193361-.8950865-.519531-1.1738281s-.802954-.4511719-1.355469-.4511719c-.568398 0-1.05209.152921-1.371094.4023438-.319004.2494226-.503906.5769238-.503906 1.0976562a.50005.50005 0 0 1 -.5.5h-11.875c-1.0157479 0-1.875.9525848-1.875 2z" fill="#3a3a38"/><path d="m2.996822 7c0-1.0474152.8592521-2 1.875-2h11.875a.50005.50005 0 0 0 .5-.5c0-.5207324.184902-.8482336.503906-1.0976562.319004-.2494227.802696-.4023438 1.371094-.4023438.552515 0 1.029299.1724303 1.355469.4511719s.519531.6530957.519531 1.1738281v12.5c0 1.038385-.870707 1.875-1.875 1.875h-1.1875-10.6875a.50005.50005 0 0 0 -.5.5c0 1.041465-.8335002 1.875-1.875 1.875s-1.875-.833535-1.875-1.875v-1.1875z" fill="#fafafa"/></svg>