<svg viewBox="0 0 24 24" xmlns="http://www.w3.org/2000/svg"><path d="m3 11v4h18v-4z" fill="#fafafa"/><path d="m2 10v1 4h1 5 1 6 1 5 1v-4-1zm1 1h5v3h-5zm6 0h6v3h-6zm7 0h5v3h-5z" fill="#3a3a38"/><g fill="#1e8bcd" fill-rule="evenodd"><path d="m12.478503 22.999939c-.155822-.0025-.30157-.07751-.394088-.202942l-2.9439543-2.948519c-.4716317-.472232.2373646-1.179435.7081878-.706396l2.1401715 2.144555.0078-4.779637c-.0096-.675574 1.008449-.675574.998876 0l-.0078 4.779637 2.147974-2.144555c.472081-.4889 1.195676.238868.704286.708347l-2.95761 2.954374c-.09621.125237-.245959.197595-.403843.195136z"/><path d="m12.478503 1.0000599a.49948816.49960054 0 0 0 -.394088.202942l-2.9439543 2.948519a.50007538.50018789 0 1 0 .7081878.706396l2.1401715-2.144555.0078 5.779957a.49948816.49960054 0 1 0 .998876 0l-.0078-5.779957 2.147974 2.144555a.49948816.49960054 0 1 0 .704286-.708347l-2.95761-2.954374a.49948816.49960054 0 0 0 -.403843-.195136z"/></g></svg>