<svg viewBox="0 0 24 24" xmlns="http://www.w3.org/2000/svg"><path d="m13.492188 2a.50005.50005 0 0 0 -.369141.171875l-6.935547 7.984375a.50005.50005 0 0 0 -.0117188.011719l-1.640625 2.015625a.50005.50005 0 0 0 .3886719.816406h2.4960938 5.4101561l-2.578125 2.775391-1.3730468-1.601563a.50005.50005 0 0 0 -.8730468.25586l-1 7a.50005.50005 0 0 0 .6308594.550781l7.0000002-2a.50005.50005 0 0 0 .085937-.927735l-1.470703-.734375 6.228516-8.5234371a.50005.50005 0 0 0 -.404297-.7949219h-2.53125-4.837891l4.146485-4.1464844a.50005.50005 0 0 0 0-.7070312l-2-2a.50005.50005 0 0 0 -.361328-.1464844zm.033203 1.2324219 1.267578 1.2675781-4.646485 4.6464844a.499299.499299 0 0 0 .353516.8535156h6.044922 1.548828l-5.996094 8.205078a.499299.499299 0 0 0 .179688.742188l.849609.425781-5.0234374 1.435547.734375-5.146485 1.0195313 1.189453a.499299.499299 0 0 0 .7441401.015626l3.742188-4.027344a.499299.499299 0 0 0 -.365234-.839844h-6.5585941-1.4453125l.9726562-1.193359z" fill="#3a3a38"/><path d="m13.525391 3.2324219-6.5781254 7.5742191-.9726562 1.193359h1.4453125 6.5585941a.499299.499299 0 0 1 .365234.839844l-3.742188 4.027344a.499299.499299 0 0 1 -.7441401-.015626l-1.0195313-1.189453-.734375 5.146485 5.0234374-1.435547-.849609-.425781a.499299.499299 0 0 1 -.179688-.742188l5.996094-8.205078h-1.548828-6.044922a.499299.499299 0 0 1 -.353516-.8535156l4.646485-4.6464844z" fill="#fafafa"/></svg>