<svg height="24" viewBox="0 0 6.3499998 6.3500001" width="24" xmlns="http://www.w3.org/2000/svg"><g transform="translate(0 -290.64999)"><g transform="matrix(.26458333 0 0 .26458333 0 290.64999)"><g stroke-width=".264583"><path d="m11.857422 4c-.474857 0-.857422.382562-.857422.8574219v5.1425781h1v-5h5v5h1v-5.1425781c0-.4748599-.382565-.8574219-.857422-.8574219z" fill="#3a3a38" stroke-width=".999999"/><path d="m7.5 9c-.8213409 0-1.4980469.6767176-1.4980469 1.498047v10.003906c0 .821329.676683 1.498047 1.4980469 1.498047h14.003906c.821364 0 1.498047-.676718 1.498047-1.498047v-10.003906c0-.8213294-.676706-1.498047-1.498047-1.498047h-1.505859a.50205657.50205657 0 0 0 -.501953.5019531v2.4960939c0 .286488-.211934.501953-.494141.501953h-9c-.2822058 0-.501953-.219585-.501953-.501953v-2.4960939a.50205657.50205657 0 0 0 -.5019531-.5019531zm0 .9960938h1.0039062v2.0019532c.0000002.823635.6744264 1.498047 1.4980468 1.498047h9c.82362 0 1.490234-.678835 1.490235-1.498047v-2.0019532h1.011718c.288796 0 .501953.2131972.501953.5019532v10.003906c0 .288794-.213178.501953-.501953.501953h-14.003906c-.2887729 0-.5019531-.213197-.5019531-.501953v-10.003906c0-.288794.2131556-.5019533.5019531-.5019532zm9.5 5.0039062c-.545351 0-1 .454649-1 1v1c0 .545351.454649 1 1 1h2c.545351 0 1-.454649 1-1v-1c0-.545351-.454649-1-1-1zm.001953 1.001953h1.996094v.996094h-1.996094z" fill="#3a3a38"/><path d="m11 8c-.554 0-1 .4459968-1 1v2c0 .554003.446 1 1 1h7c.554 0 1-.445997 1-1v-2c0-.5540032-.446-1-1-1v2h-1-5-1z" fill="#1e8bcd" stroke-width=".999999"/><path d="m7.5 9.9960938c-.2887975 0-.5019531.2131592-.5019531.5019532v10.003906c0 .288756.2131802.501953.5019531.501953h14.003906c.288775 0 .501953-.213159.501953-.501953v-10.003906c0-.288756-.213157-.5019533-.501953-.5019532h-1.011718v2.0019532c0 .819212-.666615 1.498047-1.490235 1.498047h-9c-.8236204 0-1.4980466-.674412-1.4980468-1.498047v-2.0019532zm2.5 5.0039062h1v1h-1zm2 0h1v1h-1zm2 0h1v1h-1zm3 0h2c.545351 0 1 .454649 1 1v1c0 .545351-.454649 1-1 1h-2c-.545351 0-1-.454649-1-1v-1c0-.545351.454649-1 1-1zm-7 2h1v1h-1zm2 0h1v1h-1zm2 0h1v1h-1zm-4 2h1v1h-1zm2 0h1v1h-1zm2 0h1v1h-1z" fill="#797774"/></g><g fill="#fafafa"><path d="m12 5v5h5v-5z" fill-rule="evenodd"/><path d="m10 15v1h1v-1zm2 0v1h1v-1zm2 0v1h1v-1zm-4 2v1h1v-1zm2 0v1h1v-1zm2 0v1h1v-1zm-4 2v1h1v-1zm2 0v1h1v-1zm2 0v1h1v-1z"/><path d="m17.001953 16.001953v.996094h1.996094v-.996094z"/></g><path d="m2.5019531 9c-.8213638 0-1.50585939.6722579-1.50585935 1.498047v10.003906c0 .825789.68451845 1.498047 1.50585935 1.498047h2.0019531c.8213413 0 1.4980469-.676718 1.4980469-1.498047v-10.003906c0-.8213293-.6766829-1.498047-1.4980469-1.498047zm0 .9960938h2.0019531c.2887733 0 .5019532.2131972.5019532.5019532v10.003906c-.0000004.288794-.2131557.501953-.5019532.501953h-2.0019531c-.2887961 0-.5097656-.217732-.5097656-.501953v-10.003906c0-.284258.2209923-.5019532.5097656-.5019532z" fill="#3a3a38"/></g><path d="m.66210938 293.29492c-.0764046 0-.13476563.0576-.13476563.13281v2.64649c0 .0752.058355.13281.13476563.13281h.52929682c.076411 0 .1328125-.0564.1328126-.13281v-2.64649c0-.0764-.056408-.13281-.1328126-.13281z" fill="#797774"/></g></svg>