<svg viewBox="0 0 24 24" xmlns="http://www.w3.org/2000/svg"><path d="m12.011719 2a.50005.50005 0 0 0 -.378907.1601562l-2.6347651 2.8398438h-3.4980469a.50005.50005 0 0 0 -.5.5v3.4980469l-2.8398438 2.6347651a.50005.50005 0 0 0 0 .734376l2.8398438 2.634765v3.498047a.50005.50005 0 0 0 .5.5h3.4980469l2.6347651 2.839844a.50005.50005 0 0 0 .734376 0l2.634765-2.839844h3.498047a.50005.50005 0 0 0 .5-.5v-3.498047l2.839844-2.634765a.50005.50005 0 0 0 0-.734376l-2.839844-2.6347651v-3.4980469a.50005.50005 0 0 0 -.5-.5h-3.498047l-2.634765-2.8398438a.50005.50005 0 0 0 -.355469-.1601562zm-.011719 1.2460938 2.412109 2.5996093a.50746055.50746055 0 0 0 .371094.1621094h3.208985v3.2089844a.50746055.50746055 0 0 0 .162109.3710937l2.599609 2.4121094-2.599609 2.412109a.50746055.50746055 0 0 0 -.162109.371094v3.208985h-3.208985a.50746055.50746055 0 0 0 -.371094.162109l-2.412109 2.599609-2.4121094-2.599609a.50746055.50746055 0 0 0 -.3710937-.162109h-3.2089844v-3.208985a.50746055.50746055 0 0 0 -.1621094-.371094l-2.5996093-2.412109 2.5996093-2.4121094a.50746055.50746055 0 0 0 .1621094-.3710937v-3.2089844h3.2089844a.50746055.50746055 0 0 0 .3710937-.1621094z" fill="#3a3a38"/><path d="m12 3.2460938-2.4121094 2.5996093a.50746055.50746055 0 0 1 -.3710937.1621094h-3.2089844v3.2089844a.50746055.50746055 0 0 1 -.1621094.3710937l-2.5996093 2.4121094 2.5996093 2.412109a.50746055.50746055 0 0 1 .1621094.371094v3.208985h3.2089844a.50746055.50746055 0 0 1 .3710937.162109l2.4121094 2.599609 2.412109-2.599609a.50746055.50746055 0 0 1 .371094-.162109h3.208985v-3.208985a.50746055.50746055 0 0 1 .162109-.371094l2.599609-2.412109-2.599609-2.4121094a.50746055.50746055 0 0 1 -.162109-.3710937v-3.2089844h-3.208985a.50746055.50746055 0 0 1 -.371094-.1621094z" fill="#fafafa"/></svg>