<svg viewBox="0 0 24 24" xmlns="http://www.w3.org/2000/svg"><path d="m13.99762 1v9.054688h9v-5.3252785l-4-3.7294095z" fill="#fafafa"/><path d="m13.99762 0c-.554 0-1 .446-1 1v9.054688c0 .554.446 1 1 1h9c.554 0 1-.446 1-1v-2.1093755-2.6959084-.2079239c0-.4506799.09887-.4265951-.604637-1.0675892l-4.039431-3.973891zm0 1h5l.00238 3c.00044.5539998.446 1 1 1h3l-.0024 5.054688h-9z" fill="#3a3a38"/><path d="m20 4h2l-2-2z" fill="#fafafa" fill-rule="evenodd"/><path d="m13.99762 14v9h9v-5.270591l-4-3.729409z" fill="#fafafa"/><path d="m13.99762 13c-.554 0-1 .446-1 1v9c0 .554.446 1 1 1h9c.554 0 1-.446 1-1v-1.109375-3.641221-.207924c0-.45068.09887-.426595-.604637-1.067589l-4.039431-3.973891zm0 1h5l.00238 3c.00044.554.446 1 1 1h3l-.0024 5h-9z" fill="#3a3a38"/><path d="m20 17h2l-2-2z" fill="#fafafa" fill-rule="evenodd"/><path d="m1 1v9.054688h9v-5.3252785l-4-3.7294095z" fill="#fafafa"/><path d="m1 0c-.554 0-1 .446-1 1v9.054688c0 .554.446 1 1 1h9c.554 0 1-.446 1-1v-2.1093755-2.6959084-.2079239c0-.4506799.09887-.4265951-.604637-1.0675892l-4.039431-3.973891zm0 1h5l.00238 3c.00044.5539998.446 1 1 1h3l-.0024 5.054688h-9z" fill="#3a3a38"/><path d="m7.00238 4h2l-2-2z" fill="#fafafa" fill-rule="evenodd"/><path d="m1 14v9h9v-5.270591l-4-3.729409z" fill="#fafafa"/><path d="m1 13c-.554 0-1 .446-1 1v9c0 .554.446 1 1 1h9c.554 0 1-.446 1-1v-1.109375-3.641221-.207924c0-.45068.09887-.426595-.604637-1.067589l-4.039431-3.973891zm0 1h5l.00238 3c.00044.554.446 1 1 1h3l-.0024 5h-9z" fill="#3a3a38"/><path d="m7.00238 17h2l-2-2z" fill="#fafafa" fill-rule="evenodd"/></svg>