<svg viewBox="0 0 24 24" xmlns="http://www.w3.org/2000/svg"><path d="m3 6v15h9.335938l1.142578-3.431641c.213092-2.150895 1.938952-3.876749 4.089843-4.089843l3.431641-1.142578v-6.335938z" fill="#fafafa"/><path d="m3 2c-.554 0-1 .446-1 1v18c0 .554.446 1 1 1h9.044922c.01327-.0849.01485-.168762.04297-.253906v-.002l.248046-.744094h-9.335938v-15h18v6.335938l.742188-.246094c.083137-.027922.171575-.029876.257812-.044922v-9.044922c0-.554-.446-1-1-1z" fill="#3a3a38"/><path d="m22.279297 13c-.0744.000902-.148211.01342-.21875.03711l-4.228516 1.408203c-1.797579.09066-3.296061 1.589137-3.386719 3.386719l-1.408203 4.228516c-.184023.557236.345108 1.086367.902344.902344l4.228516-1.408203c1.797579-.09066 3.296061-1.589137 3.386719-3.386719l1.408203-4.228516c.154288-.464669-.193996-.943311-.683594-.939454z" fill="#0063b1"/><path d="m2 2h20v4h-20z" fill="#3a3a38"/><path d="m22.001953 13.998047-3.886719 1.294922a.89452139.89452139 0 0 1 -.238281.044922c-1.327373.066945-2.472118 1.211688-2.539062 2.539062a.89452139.89452139 0 0 1 -.044922.238281l-1.294922 3.886719 3.886719-1.294922a.89452139.89452139 0 0 1 .238281-.044922c1.327373-.066945 2.472118-1.211688 2.539062-2.539062a.89452139.89452139 0 0 1 .044922-.238281zm-4.001953 2.001953a2 2 0 0 1 2 2 2 2 0 0 1 -2 2 2 2 0 0 1 -2-2 2 2 0 0 1 2-2zm-4.341797 6.113281-.001953.001953h.003906s-.001953-.001953-.001953-.001953z" fill="#83beec"/><g fill="#797774"><path d="m3 3h18v2h-18z"/><path d="m5 8v4h4v-4zm1 1h2v2h-2zm5 0v1h7v-1zm-6 5v4h4v-4zm1 1h2v2h-2zm5 0v1h2.927734c.181864-.364612.413276-.697598.681641-1z"/></g><g fill-opacity=".982993"><path d="m21.5 18a3.5 3.5 0 0 1 -3.5 3.5 3.5 3.5 0 0 1 -3.5-3.5 3.5 3.5 0 0 1 3.5-3.5 3.5 3.5 0 0 1 3.5 3.5z" fill="#0063b1"/><path d="m20.5 18a2.5 2.5 0 0 1 -2.5 2.5 2.5 2.5 0 0 1 -2.5-2.5 2.5 2.5 0 0 1 2.5-2.5 2.5 2.5 0 0 1 2.5 2.5z" fill="#83beec"/></g></svg>