<svg height="24" viewBox="0 0 6.3499999 6.3500002" width="24" xmlns="http://www.w3.org/2000/svg"><g stroke-width=".264583" transform="translate(0 -290.64998)"><path d="m1.3229167 291.44374v4.7625h1.0583333v-3.175h2.6458333l.0000001-.52918-1.0583334-1.05832z" fill="#fafafa"/><g stroke-width=".999999" transform="matrix(.26458334 0 0 .26458334 0 290.64998)"><path d="m5 3v.9785156l.9785156-.9785156zm2.3925781 0-2.3925781 2.3925781v1.4140625l3.8066406-3.8066406zm2.8300779 0-5.222656 5.2226562v1.4140626l6.636719-6.6367188zm2.828125 0-8.050781 8.050781v1.414063l9-9.0000002v-.4648438zm.949219 1.8789062-4.1210938 4.1210938h1.4140628l2.707031-2.7070312zm.173828 2.6542969-1.466797 1.4667969h1.414063l1-1h-.121094c-.353315 0-.648385-.1916732-.826172-.4667969zm2.361328.4667969-1 1h1.414063l1-1zm2.464844.3632812-.636719.6367188h.636719zm-10 1.515625-4 3.9999998v1.414063l4-4zm0 2.8281248-4 4v1.414063l4-4zm0 2.828125-4 4v1.414063l4-4zm0 2.828125-2.6367188 2.636719h1.4140626l1.2226562-1.222656z" fill="#1e8bcd"/><path d="m5 2c-.5540001 0-1 .4459969-1 1v18c0 .554003.4459999 1 1 1h5l-1-1h-4v-18h9v4c0 .5540031.446 1 1 1h4v1h1v-1.75-.2089844c0-.4506708.098037-.4254362-.605469-1.0664062l-3.30664-3.2382813c-.709525-.7368567-.71017-.7363281-1.09375-.7363281h-.332032-.662109zm10 1 4 4h-4z" fill="#3a3a38"/><path d="m11 10a1.0001 1.0001 0 0 0 -1 1v9a1.0001 1.0001 0 0 0 .292969.707031l1 1a1.0001 1.0001 0 0 0 .707031.292969h9a1.0001 1.0001 0 0 0 1-1v-10a1.0001 1.0001 0 0 0 -1-1zm2 1h6v3h-6zm0 7h5v3h-3v-2h-1v2h-1z" fill="#922e9b"/></g><path d="m2.9104166 293.56041v2.38125l.2645834.26458v-1.05833h1.8520833v1.05833h.5291667v-2.64583h-.2645834v1.05833h-2.1166666v-1.05833z" fill="#d492d8"/><path d="m3.4395833 293.56041v.79375h1.5875v-.79375zm0 1.85208v.79375h.2645833v-.52916h.2645834v.52916h.79375v-.79375z" fill="#fafafa"/></g></svg>