<svg viewBox="0 0 24 24" xmlns="http://www.w3.org/2000/svg"><g fill="#3a3a38" transform="matrix(-1 0 0 1 0 -3)"><rect height="1" ry=".5" width="11" x="-22" y="17"/><rect height="1" ry=".5" width="11" x="-22" y="9"/><rect height="1" ry=".5" width="11" x="-22" y="13"/><rect height="1" ry=".5" width="11" x="-22" y="21"/></g><g fill="#1e8bcd"><path d="m.996094 6.501953c0 .127809.048549.255581.1464843.353516.195869.195868.5131154.195868.7089844 0l3.1484373-3.1484378v6.7929688c0 .277.223.5.5.5s.5-.223.5-.5v-6.7929688l3.148438 3.1484378c.195868.195868.513115.195868.708984 0 .09793-.09793.146484-.225707.146484-.353516 0-.127808-.04855-.257539-.146484-.355469l-4.003906-3.9999996c-.047013-.047015-.103236-.084075-.166016-.109375-.057904-.02334-.12105-.0371094-.1875-.0371094s-.129596.013769-.1875.037109c-.06278.0253-.119003.06236-.166016.109375l-4.0039057 4c-.09793.09793-.1464844.227661-.1464843.355469z"/><path d="m.996094 17.498047c0-.127809.048549-.255581.1464843-.353516.195869-.195868.5131154-.195868.7089844 0l3.1484373 3.148438v-6.792969c0-.277.223-.5.5-.5s.5.223.5.5v6.792969l3.148438-3.148438c.195868-.195868.513115-.195868.708984 0 .09793.09793.146484.225707.146484.353516 0 .127808-.04855.257539-.146484.355469l-4.003906 4c-.047013.047015-.103236.084075-.166016.109375-.057904.02334-.12105.037109-.1875.037109s-.129596-.01377-.1875-.03711c-.06278-.0253-.119003-.06236-.166016-.109375l-4.0039057-4c-.09793-.09793-.1464844-.22766-.1464843-.355468z"/></g></svg>