<svg height="24" viewBox="0 0 6.3499999 6.3500002" width="24" xmlns="http://www.w3.org/2000/svg"><g stroke-width=".264583" transform="translate(0 -290.64998)"><path d="m11 10a1.0001 1.0001 0 0 0 -1 1v9a1.0001 1.0001 0 0 0 .292969.707031l1 1a1.0001 1.0001 0 0 0 .707031.292969h9a1.0001 1.0001 0 0 0 1-1v-10a1.0001 1.0001 0 0 0 -1-1zm2 1h6v3h-6zm0 7h5v3h-3v-2h-1v2h-1z" fill="#922e9b" stroke-width=".999999" transform="matrix(.26458334 0 0 .26458334 0 290.64998)"/><path d="m1.3229167 291.44374v4.7625h1.0583333v-2.91041c0-.14658.1180041-.26459.2645833-.26459h2.38125l.0000001-.52918-1.0583334-1.05832z" fill="#fafafa"/><path d="m5 2c-.5540001 0-1 .4459969-1 1v18c0 .554003.4459999 1 1 1h5l-1-1h-4v-18h9v4c0 .5540031.446 1 1 1h4v1h1v-1.75-.2089844c0-.4506708.098037-.4254362-.605469-1.0664062l-3.30664-3.2382813c-.709525-.7368567-.71017-.7363281-1.09375-.7363281-3.33138 0-6.6627607 0-9.994141 0zm10 1 4 4h-4z" fill="#3a3a38" stroke-width=".999999" transform="matrix(.26458334 0 0 .26458334 0 290.64998)"/><path d="m2.9104166 293.56041v2.38125l.2645834.26458v-1.05833h1.8520833v1.05833h.5291667v-2.64583h-.2645834v1.05833h-2.1166666v-1.05833z" fill="#d492d8"/><path d="m3.4395833 293.56041v.79375h1.5875v-.79375zm0 1.85208v.79375h.2645833v-.52916h.2645834v.52916h.79375v-.79375z" fill="#fafafa"/></g></svg>