<svg viewBox="0 0 24 24" xmlns="http://www.w3.org/2000/svg"><path d="m12 3c-1.75059 0-3.1935237 1.1638907-3.7675781 2.7441406-.4932718-.184623-1.0142646-.3183594-1.5722657-.3183594-2.5737887.0000001-4.6601562 2.1407345-4.6601562 4.7539068 0 1.387499.5979032 2.624255 1.5351562 3.498046-.9196249.75545-1.5351562 1.878888-1.5351562 3.175782 0 2.278018 1.820449 4.146484 4.0664062 4.146484.9044081 0 1.7036436-.354151 2.3730469-.861328.6694034.507177 1.4686409.861328 2.3730469.861328 1.750587 0 3.193523-1.163892 3.767578-2.744141.49388.184651 1.016218.31836 1.574219.31836 2.573789 0 4.660156-2.140733 4.660156-4.753907 0-.773211-.229611-1.478486-.550781-2.117187 1.036977-.751589 1.736328-1.9537878 1.736328-3.34375 0-2.2780179-1.820449-4.1464844-4.066406-4.1464844-.943552 0-1.769191.3917982-2.462891.9433594-.68843-1.2571242-1.94847-2.15625-3.470703-2.15625zm0 1c1.311283 0 2.39768.8597174 2.837891 2.0644531a.49380078.49380078 0 0 0 .830078.1601563c.560412-.625501 1.36827-1.0117188 2.265625-1.0117188 1.693563 0 3.066406 1.3968267 3.066406 3.1464844 0 1.1965001-.651747 2.222398-1.601562 2.755859a.49380078.49380078 0 0 0 -.177735.689454c.365751.588382.59375 1.280487.59375 2.015624 0 2.084722-1.63895 3.753907-3.660156 3.753907-.577474 0-1.137975-.149963-1.630859-.400391a.49380078.49380078 0 0 0 -.707032.337891c-.298905 1.420947-1.534448 2.488281-3.003906 2.488281-.78549 0-1.4899487-.310113-2.0390625-.816406a.49380078.49380078 0 0 0 -.6679687 0c-.5491172.506295-1.2535691.816406-2.0390626.816406-1.6935636 0-3.0664062-1.396826-3.0664062-3.146484 0-1.179672.6368426-2.177294 1.5703125-2.71875a.49380078.49380078 0 0 0 .0332031-.833985c-.9711267-.670835-1.6035156-1.814742-1.6035156-3.121093 0-2.0847197 1.6389504-3.7539067 3.6601562-3.7539068.5774725.0000002 1.1356033.149751 1.6289063.4003907a.49380078.49380078 0 0 0 .7070313-.3378907c.2989064-1.4209534 1.5344412-2.4882812 3.0039062-2.4882812z" fill="#3a3a38"/><path d="m12 4c-1.469465 0-2.7049998 1.0673277-3.0039062 2.4882812a.49380078.49380078 0 0 1 -.7070313.3378907c-.493303-.2506397-1.0514338-.4003906-1.6289063-.4003907-2.0212059.0000001-3.6601562 1.6691876-3.6601562 3.7539068 0 1.306352.6323889 2.450258 1.6035156 3.121093a.49380078.49380078 0 0 1 -.033203.833985c-.93347.541456-1.5703126 1.539078-1.5703126 2.71875 0 1.749658 1.3728426 3.146484 3.0664062 3.146484.7854934 0 1.4899455-.310111 2.0390626-.816406a.49380078.49380078 0 0 1 .6679687 0c.5491138.506293 1.2535725.816406 2.0390625.816406 1.469458 0 2.705001-1.067334 3.003906-2.488281a.49380078.49380078 0 0 1 .707032-.337891c.492885.250428 1.053385.400391 1.630859.400391 2.021206 0 3.660156-1.669186 3.660156-3.753907 0-.735138-.227999-1.427241-.59375-2.015624a.49380078.49380078 0 0 1 .177735-.689454c.949815-.533461 1.601562-1.5593589 1.601562-2.755859 0-1.7496577-1.372843-3.1464844-3.066406-3.1464844-.897355 0-1.705213.3862178-2.265625 1.0117188a.49380078.49380078 0 0 1 -.830078-.1601563c-.440211-1.2047357-1.526608-2.0644531-2.837891-2.0644531z" fill="#fafafa"/></svg>