<svg viewBox="0 0 24 24" xmlns="http://www.w3.org/2000/svg"><path d="m12.013672 2a.50005.50005 0 0 0 -.484375.3320312l-2.3808595 6.6679688h-6.6484375a.50005.50005 0 0 0 -.3359375.8691406l5.2714844 4.7929684-1.8554688 6.705079a.50005.50005 0 0 0 .7363281.564453l5.6835938-3.351563 5.683594 3.351563a.50005.50005 0 0 0 .74414-.53125l-1.382812-6.857422 4.804687-4.6855471a.50005.50005 0 0 0 -.349609-.8574219h-6.648438l-2.380859-6.6679688a.50005.50005 0 0 0 -.457031-.3320312zm-.013672 1.9921875 2.027344 5.6757813a.50127685.50127685 0 0 0 .472656.3339842h5.767578l-4.117187 4.013672a.50127685.50127685 0 0 0 -.142579.458984l1.214844 6.023438-4.96875-2.929688a.50127685.50127685 0 0 0 -.507812 0l-4.871094 2.871094 1.6074219-5.806641a.50127685.50127685 0 0 0 -.1445313-.503906l-4.5390625-4.126953h5.7011719a.50127685.50127685 0 0 0 .4726562-.3339842z" fill="#3a3a38"/><path d="m12 3.9921875-2.0273438 5.6757813a.50127685.50127685 0 0 1 -.4726562.3339842h-5.7011719l4.5390625 4.126953a.50127685.50127685 0 0 1 .1445313.503906l-1.6074219 5.806641 4.871094-2.871094a.50127685.50127685 0 0 1 .507812 0l4.96875 2.929688-1.214844-6.023438a.50127685.50127685 0 0 1 .142579-.458984l4.117187-4.013672h-5.767578a.50127685.50127685 0 0 1 -.472656-.3339842z" fill="#fafafa"/></svg>