<svg viewBox="0 0 24 24" xmlns="http://www.w3.org/2000/svg"><g fill="#fafafa"><path d="m12 7.5664062a.49971415.49971415 0 0 1 -.146484.3535157l-3.9335941 3.9335941a.49971415.49971415 0 0 1 -.3535157.146484.49971415.49971415 0 0 1 .3535157.146484l3.9335941 3.933594a.49971415.49971415 0 0 1 .146484.353516.49971415.49971415 0 0 1 .146484-.353516l3.933594-3.933594a.49971415.49971415 0 0 1 .353516-.146484.49971415.49971415 0 0 1 -.353516-.146484l-3.933594-3.9335941a.49971415.49971415 0 0 1 -.146484-.3535157z"/><path d="m11.484375 2a.49971415.49971415 0 0 0 -.337891.1464844l-8.9999996 8.9999996a.49971415.49971415 0 0 0 .3535156.853516.49971415.49971415 0 0 0 -.3535156.853516l8.9999996 9a.49971415.49971415 0 0 0 .853516-.353516.49971415.49971415 0 0 0 .853516.353516l9-9a.49971415.49971415 0 0 0 -.353516-.853516.49971415.49971415 0 0 0 .353516-.853516l-9-8.9999996a.49971415.49971415 0 0 0 -.853516.3535156.49971415.49971415 0 0 0 -.515625-.5zm-.484375 1.7070312v3.6523438l-3.640625 3.640625h-3.6523438zm2 0 7.292969 7.2929688h-3.652344l-3.640625-3.640625zm-1 3.859375a.49971415.49971415 0 0 0 .146484.3535157l3.933594 3.9335941a.49971415.49971415 0 0 0 .353516.146484.49971415.49971415 0 0 0 -.353516.146484l-3.933594 3.933594a.49971415.49971415 0 0 0 -.146484.353516.49971415.49971415 0 0 0 -.146484-.353516l-3.9335941-3.933594a.49971415.49971415 0 0 0 -.3535157-.146484.49971415.49971415 0 0 0 .3535157-.146484l3.9335941-3.9335941a.49971415.49971415 0 0 0 .146484-.3535157zm-8.2929688 5.4335938h3.6523438l3.640625 3.640625v3.652344zm12.9335938 0h3.652344l-7.292969 7.292969v-3.652344z" fill="#3a3a38"/><path d="m11 3.7070312-7.2929688 7.2929688h3.6523438l3.640625-3.640625zm2 0v3.6523438l3.640625 3.640625h3.652344zm-9.2929688 9.2929688 7.2929688 7.292969v-3.652344l-3.640625-3.640625zm12.9335938 0-3.640625 3.640625v3.652344l7.292969-7.292969z" fill="#fafafa"/></g></svg>