<svg viewBox="0 0 24 24" xmlns="http://www.w3.org/2000/svg"><path d="m7.5 2a.50018734.50018734 0 0 0 -.5.5c0 1.6785518-.3554671 2.7734358-1.0410156 3.4589844-.6855486.6855485-1.7804326 1.0410156-3.4589844 1.0410156a.50018734.50018734 0 0 0 -.5.5v9a.50018734.50018734 0 0 0 .5.5c1.6785518 0 2.7734358.355467 3.4589844 1.041016.6855485.685548 1.0410156 1.780432 1.0410156 3.458984a.50018734.50018734 0 0 0 .5.5h9a.50018734.50018734 0 0 0 .5-.492188c.027651-1.682493.385041-2.783271 1.064453-3.46875.679413-.685477 1.756995-1.039062 3.435547-1.039062a.50018734.50018734 0 0 0 .5-.5v-9a.50018734.50018734 0 0 0 -.5-.5c-1.678552 0-2.773436-.3554671-3.458984-1.0410156-.685549-.6855486-1.041016-1.7804326-1.041016-3.4589844a.50018734.50018734 0 0 0 -.5-.5zm.4335938 1h8.1328122c.074706 1.5548513.425667 2.8241038 1.267578 3.6660156.841912.8419119 2.111165 1.1928726 3.666016 1.2675782v8.1328122c-1.551985.075173-2.810315.427868-3.644531 1.269532-.835798.84326-1.190087 2.10962-1.285157 3.664062h-8.1367182c-.0747057-1.554851-.4256663-2.824104-1.2675782-3.666016-.8419118-.841911-2.1111643-1.192872-3.6660156-1.267578v-8.1328122c1.5548513-.0747057 2.8241038-.4256663 3.6660156-1.2675782.8419119-.8419118 1.1928726-2.1111643 1.2675782-3.6660156z" fill="#3a3a38"/><path d="m7.9335938 3c-.0747056 1.5548513-.4256663 2.8241038-1.2675782 3.6660156-.8419118.8419119-2.1111643 1.1928726-3.6660156 1.2675782v8.1328122c1.5548513.07471 2.8241038.425667 3.6660156 1.267578.8419119.841912 1.1928726 2.111165 1.2675782 3.666016h8.1367182c.09507-1.554442.449359-2.820802 1.285157-3.664062.834216-.841664 2.092546-1.194359 3.644531-1.269532v-8.1328122c-1.554851-.0747056-2.824104-.4256663-3.666016-1.2675782-.841911-.8419118-1.192872-2.1111643-1.267578-3.6660156z" fill="#fafafa"/></svg>