<svg height="24" viewBox="0 0 6.3499999 6.3500002" width="24" xmlns="http://www.w3.org/2000/svg" xmlns:xlink="http://www.w3.org/1999/xlink"><radialGradient id="a" cx="14" cy="19.833334" gradientTransform="matrix(.26458333 0 0 .1984375 0 291.47681)" gradientUnits="userSpaceOnUse" r="10"><stop offset="0" stop-color="#83beec"/><stop offset="1" stop-color="#0063b1"/></radialGradient><g stroke-width=".264583" transform="translate(0 -290.64998)"><path d="m3.175 291.9729a2.6458333 1.3229167 0 0 0 -2.64583333 1.32292 2.6458333 2.6458333 0 0 0 2.64583333 2.64583 2.6458333 2.6458333 0 0 0 2.6458334-2.64583 2.6458333 1.3229167 0 0 0 -2.6458334-1.32292z" fill="url(#a)"/><path d="m3.175 291.9729a2.6458333 1.3229167 0 0 0 -2.64583333 1.32292 2.6458333 1.3229167 0 0 0 2.64583333 1.32291 2.6458333 1.3229167 0 0 0 2.6458334-1.32291 2.6458333 1.3229167 0 0 0 -2.6458334-1.32292zm0 .26458a2.38125 1.0583333 0 0 1 2.38125 1.05834 2.38125 1.0583333 0 0 1 -2.38125 1.05833 2.38125 1.0583333 0 0 1 -2.38125-1.05833 2.38125 1.0583333 0 0 1 2.38125-1.05834z" fill="#0063b1"/><ellipse cx="3.175" cy="293.29581" fill="#fafafa" rx="2.38125" ry="1.058333"/></g></svg>