<svg height="24" viewBox="0 0 6.3499999 6.3500002" width="24" xmlns="http://www.w3.org/2000/svg"><g transform="matrix(.26458333 0 0 .26458333 .380142 0)"><path d="m-.436757 22h22v1h-22z" fill="#797774"/><path d="m9.5632427 20v2h-2v1h6.0000003v-1h-2v-2z" fill="#3a3a38"/></g><g transform="matrix(.26458333 0 0 .26458333 0 -.52917)"><path d="m3 0a1.0001 1.0001 0 0 0 -1 1v16a1.0001 1.0001 0 0 0 .2929688.707031l2 2a1.0001 1.0001 0 0 0 .7070312.292969h16a1.0001 1.0001 0 0 0 1-1v-18a1.0001 1.0001 0 0 0 -1-1zm3 1h12v6h-12zm1 12h10v6h-6v-5h-2v5h-2z" fill="#922e9b" transform="translate(0 2.000013)"/><path d="m3 3v16l2 2h1v-7h12v7h3v-18h-2v7h-14v-7z" fill="#d492d8"/><path d="m6 3v6h12v-6zm1 12v6h2v-5h2v5h6v-6z" fill="#fafafa"/></g></svg>