<svg viewBox="0 0 24 24" xmlns="http://www.w3.org/2000/svg"><path d="m11.974609 1.9960938a.50529472.50529472 0 0 0 -.386718.2109374l-3.4101566 4.7871094h-5.6777344a.50529472.50529472 0 0 0 -.3769531.8417969l3.7011719 4.1640625-3.7011719 4.164062a.50529472.50529472 0 0 0 .3769531.841797h5.6777344l3.4101566 4.78711a.50529472.50529472 0 0 0 .824218 0l3.410157-4.78711h5.677734a.50529472.50529472 0 0 0 .376953-.841797l-3.701172-4.164062 3.701172-4.1640625a.50529472.50529472 0 0 0 -.376953-.8417969h-5.677734l-3.410157-4.7871094a.50529472.50529472 0 0 0 -.4375-.2109374zm.025391 1.359375 3.158203 4.4316406a.49632124.49632124 0 0 0 .404297.2089844h4.832031l-3.265625 3.6738282a.49632124.49632124 0 0 0 0 .660156l3.265625 3.673828h-4.832031a.49632124.49632124 0 0 0 -.404297.208985l-3.158203 4.43164-3.1582031-4.43164a.49632124.49632124 0 0 0 -.4042969-.208985h-4.8320312l3.265625-3.673828a.49632124.49632124 0 0 0 0-.660156l-3.265625-3.6738282h4.8320312a.49632124.49632124 0 0 0 .4042969-.2089844z" fill="#3a3a38"/><path d="m12 3.3554688-3.1582031 4.4316406a.49632124.49632124 0 0 1 -.4042969.2089844h-4.8320312l3.265625 3.6738282a.49632124.49632124 0 0 1 0 .660156l-3.265625 3.673828h4.8320312a.49632124.49632124 0 0 1 .4042969.208985l3.1582031 4.43164 3.158203-4.43164a.49632124.49632124 0 0 1 .404297-.208985h4.832031l-3.265625-3.673828a.49632124.49632124 0 0 1 0-.660156l3.265625-3.6738282h-4.832031a.49632124.49632124 0 0 1 -.404297-.2089844z" fill="#fafafa"/></svg>