<svg height="24" viewBox="0 0 6.3499999 6.3500002" width="24" xmlns="http://www.w3.org/2000/svg" xmlns:xlink="http://www.w3.org/1999/xlink"><radialGradient id="a" cx="17.995798" cy="7.046331" fx="17.995798" fy="7.046331" gradientTransform="matrix(.13229166 0 0 .13229166 2.381806 291.83447)" gradientUnits="userSpaceOnUse" r="10" xlink:href="#b"/><radialGradient id="b" cx="11" cy="5" gradientTransform="translate(-51.118644 17.830508)" gradientUnits="userSpaceOnUse" r="8"><stop offset="0" stop-color="#83beec"/><stop offset="1" stop-color="#0063b1"/></radialGradient><radialGradient id="c" cx="17.995798" cy="7.046331" fx="17.995798" fy="7.046331" gradientTransform="matrix(-.15875 0 0 -.10583334 4.444333 295.89363)" gradientUnits="userSpaceOnUse" r="10" xlink:href="#b"/><g stroke-width=".264583" transform="translate(0 -290.64998)"><path d="m3.175 291.70831v1.05833a1.3229167 1.190625 0 0 1 1.3229167 1.19063 1.3229167 1.190625 0 0 1 -1.3229167 1.19062v1.05834a2.6458333 2.2489583 0 0 0 2.6458334-2.24896 2.6458333 2.2489583 0 0 0 -2.6458334-2.24896z" fill="url(#a)"/><path d="m3.175 296.20623v-1.05834a1.3229167 1.190625 0 0 1 -1.3229166-1.19062 1.3229167 1.190625 0 0 1 1.3229166-1.19063v-1.05833a2.6458333 2.2489583 0 0 0 -2.64583333 2.24896 2.6458333 2.2489583 0 0 0 2.64583333 2.24896z" fill="url(#c)"/></g></svg>