<svg height="24" viewBox="0 0 6.3499999 6.3500002" width="24" xmlns="http://www.w3.org/2000/svg"><g stroke-width=".264583" transform="translate(0 -290.64998)"><path d="m.79375 291.44373h4.7625v4.7625h-4.7625z" fill="#fafafa"/><path d="m.52916667 291.17915v5.02708c0 .14658.11800417.26459.26458333.26459h4.7625c.1465792 0 .2645834-.11801.2645834-.26459v-5.02708zm.26458333.26458h4.7625v4.7625h-1.3229166-.2645834-1.5875-.2645833-1.3229167z" fill="#3a3a38"/><path d="m2.1166667 291.44373v.52917h-1.3229167v.26458h1.3229167v.79375h.2645833v-.79375h1.5875v.79375h.2645834v-.79375h1.3229166v-.26458h-1.3229166v-.52917h-.2645834v.52917h-1.5875v-.52917zm0 3.96875v.79375h.2645833v-.79375zm1.8520833 0v.79375h.2645834v-.79375z" fill="#797774"/><g fill="#0063b1"><path d="m.79375 293.03123v.26459h4.7625v-.26459zm0 2.11667v.26458h4.7625v-.26458z"/><path d="m.52916667 293.03123v2.38125h.26458333v-2.38125zm5.02708333 0v2.38125h.2645834v-2.38125z"/></g></g><g fill="#1e8bcd" transform="scale(.26458333)"><path d="m18.486328 11c-.376099.02261-.68457.51165-.330078.865234l1.136719 1.125-5.785157.0078c-.338944-.004799-.508679.248926-.507812.501966h-.0039c-.000867.25304.168867.506752.507812.501953l5.785156.0078-1.136718 1.125c-.354498.353597-.046027.842637.330072.865247.125366.0075.258789-.03839.376953-.15625l1.941406-1.929688c.125544-.09262.200625-.238534.203125-.394531.0001-.0068-.0037-.01273-.0039-.01953h.0039c.000172-.0068.004-.0127.0039-.01953-.0025-.155997-.07758-.30191-.203124-.394531l-1.941401-1.92969c-.118164-.117862-.251587-.163787-.376953-.15625z"/><path d="m5.517577 11c.376099.02261.68457.51165.330078.865234l-1.136719 1.125 5.785157.0078c.338944-.0048.508679.248913.507812.501953h.0039c.000867.25304-.168867.506752-.507812.501953l-5.785156.0078 1.136718 1.125c.354498.35361.04603.84265-.330072.86526-.125366.0075-.258789-.03839-.376953-.15625l-1.941406-1.929688c-.125544-.09262-.200625-.238534-.203125-.394531-.0001-.0068.0037-.01273.0039-.01953h-.0039c-.000172-.0068-.004-.0127-.0039-.01953.0025-.155997.07758-.30191.203124-.394531l1.941401-1.92969c.118164-.117862.251587-.163787.376953-.15625z"/></g></svg>