<svg height="24" viewBox="0 0 6.3499998 6.3500002" width="24" xmlns="http://www.w3.org/2000/svg"><path d="m.64853923.52968349a.13142335.13142335 0 0 0 -.11523845.16019696l.79271652 3.44165025a.13142335.13142335 0 0 0 .129191.1012859h.927592v1.4552084a.13142335.13142335 0 0 0 .1307414.1307414h3.1760333a.13142335.13142335 0 0 0 .1307415-.1307414v-3.7031331a.13142335.13142335 0 0 0 -.1307415-.1307414h-3.1760333a.13142335.13142335 0 0 0 -.1307414.1307414v1.1911416h-.2909383l-.5079793-2.54093009a.13142335.13142335 0 0 0 -.1286744-.10541992h-.79323321a.13142335.13142335 0 0 0 -.0134359 0zm.17983399.26354982h.51728108l.5079794 2.53937979a.13318644.13318644 0 0 0 .1307413.107487h.5291667a.13318644.13318644 0 0 0 .1328084-.1328084v-1.1895914h2.9104165v3.4375163h-2.9104165v-1.4531415a.13318644.13318644 0 0 0 -.1328084-.1328084h-.9529134z" fill="#3a3a38"/><path d="m.82812501.79338572.73242189 3.17577998h.953125a.13318644.13318644 0 0 1 .1328125.13281v1.45313h2.9101563v-3.4374999h-2.9101563v1.1894499a.13318644.13318644 0 0 1 -.1328125.13281h-.5292969a.13318644.13318644 0 0 1 -.1308594-.1074198l-.5078125-2.53906018z" fill="#fafafa"/><path d="m11 9v10h1v-10zm2 0v7h1v-7zm2 0v5h1v-5zm2 0v9h1v-9zm2 0v11h1v-11z" fill="#1e8bcd" transform="matrix(.26458333 0 0 .26458333 0 -.00001)"/></svg>