<svg height="24" viewBox="0 0 6.3499999 6.3500002" width="24" xmlns="http://www.w3.org/2000/svg"><g transform="translate(0 -290.64999)"><path d="m.79375001 291.44374h4.76249999v4.7625h-4.76249999z" fill="#fafafa" stroke-width=".264583"/><path d="m.79375001 291.17916c-.14657916 0-.26458333.118-.26458333.26458v4.7625c0 .14658.11800417.26459.26458333.26459h4.76249999c.1465792 0 .2645834-.11801.2645834-.26459v-4.7625c0-.14658-.1180042-.26458-.2645834-.26458zm0 .26458h1.32291669v1.5875h-1.32291669zm1.58749999 0h1.5875v1.5875h-1.5875zm1.8520834 0h1.3229166v1.5875h-1.3229166zm-3.43958339 1.85209h1.32291669v.79375h-1.32291669zm1.58749999 0h1.5875v.79375h-1.5875zm1.8520834 0h1.3229166v.79375h-1.3229166zm-3.43958339 1.05833h1.32291669v.79375h-1.32291669zm1.58749999 0h1.5875v.79375h-1.5875zm1.8520834 0h1.3229166v.79375h-1.3229166zm-3.43958339 1.05833h1.32291669v.79375h-1.32291669zm1.58749999 0h1.5875v.79375h-1.5875zm1.8520834 0h1.3229166v.79375h-1.3229166z" fill="#797774" stroke-width=".264583"/><path d="m2.1166667 291.44374v4.7625h-1.32291669v-4.7625z" fill="#83beec" stroke-width=".289565"/><path d="m.79375001 291.44374h4.76249999v.52917h-4.76249999z" fill="#83beec" stroke-width=".177488"/><path d="m.79375001 291.17916c-.14657916 0-.26458333.118-.26458333.26458v4.7625c0 .14658.11800417.26459.26458333.26459h4.76249999c.1465792 0 .2645834-.11801.2645834-.26459v-4.7625c0-.14658-.1180042-.26458-.2645834-.26458zm0 .26458h1.32291669.2645833 1.5875.2645834 1.3229166v1.5875.26459.79375.26458.79375.26458.79375h-1.3229166-.2645834-1.5875-.2645833-1.32291669v-.79375-.26458-.79375-.26458-.79375-.26459z" fill="#3a3a38" stroke-width=".264583"/><g fill="#0063b1" transform="matrix(.26458333 0 0 .26458333 0 290.64999)"><path d="m3 2c-.554 0-1 .446-1 1v2 1h1 18 1v-1-2c0-.554-.446-1-1-1zm0 1h5v2h-5zm6 0h6v2h-6zm7 0h5v2h-5z"/><path d="m3 2c-.554 0-1 .446-1 1v18c0 .554.446 1 1 1h5 1v-20h-1zm0 1h5v6h-5zm0 7h5v3h-5zm0 4h5v3h-5zm0 4h5v3h-5z"/></g></g></svg>