<svg viewBox="0 0 24 24" xmlns="http://www.w3.org/2000/svg"><path d="m11.5 3c-3.4605176.0001182-6.265625.8955141-6.265625 2s2.8051074 1.9998818 6.265625 2c3.460518-.0001182 6.265625-.8955141 6.265625-2s-2.805107-1.9998818-6.265625-2zm6.5 3.4882812c-1.333136.9333109-3.812731 1.5099957-6.5 1.5117188-2.6862572-.0013221-5.1656167-.577207-6.5-1.5097656v12.5097656c0 1.104486 3.0394824 1.999882 6.5 2 3.460518-.000118 6.5-.895514 6.5-2z" fill="#f8db8f"/><path d="m11.5 2a7.5 3 0 0 0 -7.5 3v14c0 1.656854 3.3578644 3 7.5 3 4.142136 0 7.5-1.343146 7.5-3v-14a7.5 3 0 0 0 -7.5-3zm0 1a6.2662954 2 0 0 1 6.265625 2 6.2662954 2 0 0 1 -6.265625 2 6.2662954 2 0 0 1 -6.265625-2 6.2662954 2 0 0 1 6.265625-2zm6.5 3.4882812v12.5117188c0 1.104486-3.039482 1.999882-6.5 2-3.4605176-.000118-6.5-.895514-6.5-2v-12.5097656a7.5 3 0 0 0 6.5 1.5097656 7.5 3 0 0 0 6.5-1.5117188z" fill="#ed8733"/></svg>