<svg viewBox="0 0 24 24" xmlns="http://www.w3.org/2000/svg"><path d="m6 7h12v11h-12z" fill="#ed8733"/><path d="m2.4453125 3c-.2471217 0-.4453125.1981908-.4453125.4453125v.109375c0 .2471217.1981908.4453125.4453125.4453125h19.1093755c.247121 0 .445312-.1981908.445312-.4453125v-.109375c0-.2471217-.198191-.4453125-.445312-.4453125zm0 3c-.2471217 0-.4453125.1981908-.4453125.4453125v.109375c0 .2471217.1981908.4453125.4453125.4453125h19.1093755c.247121 0 .445312-.1981908.445312-.4453125v-.109375c0-.2471217-.198191-.4453125-.445312-.4453125zm0 3c-.2471217 0-.4453125.1981908-.4453125.4453125v.109375c0 .2471217.1981908.4453125.4453125.4453125h3.109375c.2471217 0 .4453125-.1981908.4453125-.4453125v-.109375c0-.2471217-.1981908-.4453125-.4453125-.4453125zm15.9999995 0c-.247121 0-.445312.1981908-.445312.4453125v.109375c0 .2471217.198191.4453125.445312.4453125h3.109376c.247121 0 .445312-.1981908.445312-.4453125v-.109375c0-.2471217-.198191-.4453125-.445312-.4453125zm-15.9999995 3c-.2471217 0-.4453125.198191-.4453125.445312v.109376c0 .247121.1981908.445312.4453125.445312h3.109375c.2471217 0 .4453125-.198191.4453125-.445312v-.109376c0-.247121-.1981908-.445312-.4453125-.445312zm15.9999995 0c-.247121 0-.445312.198191-.445312.445312v.109376c0 .247121.198191.445312.445312.445312h3.109376c.247121 0 .445312-.198191.445312-.445312v-.109376c0-.247121-.198191-.445312-.445312-.445312zm-16.0351558 3c-.2272031 0-.4101562.182953-.4101562.410156v.179688c0 .227203.1829531.410156.4101562.410156h3.1796876c.2272031 0 .4101562-.182953.4101562-.410156v-.179688c0-.227203-.1829531-.410156-.4101562-.410156zm15.9999998 0c-.227203 0-.410156.182953-.410156.410156v.179688c0 .227203.182953.410156.410156.410156h3.179688c.227203 0 .410156-.182953.410156-.410156v-.179688c0-.227203-.182953-.410156-.410156-.410156zm-16.113281 3c-.1643219 0-.296875.132553-.296875.296875v.40625c0 .164322.1325531.296875.296875.296875h19.40625c.164322 0 .296875-.132553.296875-.296875v-.40625c0-.164322-.132553-.296875-.296875-.296875zm.1484375 3c-.2471217 0-.4453125.198191-.4453125.445312v.109376c0 .247121.1981908.445312.4453125.445312h19.1093755c.247121 0 .445312-.198191.445312-.445312v-.109376c0-.247121-.198191-.445312-.445312-.445312z" fill="#3a3a38"/><path d="m7 8h10v9h-10z" fill="#0063b1"/><path d="m8 9h8v7h-8z" fill="#83beec"/></svg>