<svg viewBox="0 0 24 24" xmlns="http://www.w3.org/2000/svg"><rect fill="#3a3a38" height="1" ry=".446068" width="20" x="2" y="3"/><path d="m7 8h10v9h-10z" fill="#0063b1"/><g fill="#3a3a38"><rect height="1" ry=".446068" width="20" x="2" y="6"/><rect height="1" ry=".446068" width="20" x="2" y="21"/><rect height="1" ry=".410114" width="4" x="2" y="15"/><rect height="1" ry=".446068" width="4" x="2" y="12"/><rect height="1" ry=".446068" width="4" x="2" y="9"/><rect height="1" ry=".410114" width="4" x="18" y="15"/><rect height="1" ry=".446068" width="4" x="18" y="12"/><rect height="1" ry=".446068" width="4" x="18" y="9"/><rect height="1" ry=".271186" width="20" x="2" y="18"/></g><path d="m8 9h8v7h-8z" fill="#83beec"/></svg>