<svg viewBox="0 0 24 24" xmlns="http://www.w3.org/2000/svg"><rect fill="#3a3a38" height="1" ry=".446068" transform="scale(-1 1)" width="20" x="-22" y="3"/><path d="m16.793785-5.83363h8.838836v8.838836h-8.838836z" fill="#0063b1" stroke-width=".990929" transform="matrix(.70710679 .70710677 -.70710677 .70710679 0 0)"/><g fill="#3a3a38" transform="scale(-1 1)"><rect height="1" ry=".446068" width="20" x="-22" y="6"/><rect height="1" ry=".446068" width="20" x="-22" y="21"/><rect height="1" ry=".410114" width="5.999999" x="-8" y="15"/><rect height="1" ry=".423729" width="6.000001" x="-8" y="12"/><rect height="1" ry=".419102" width="9" x="-11" y="9"/><rect height="1" ry=".410114" width="9" x="-11" y="18"/></g><path d="m17.853682-4.773734h6.719044v6.719044h-6.719044z" fill="#83beec" stroke-width=".753277" transform="matrix(.70710679 .70710677 -.70710677 .70710679 0 0)"/></svg>