<svg viewBox="0 0 16 16" xmlns="http://www.w3.org/2000/svg"><rect fill="#1e8bcd" height="1" ry=".464045" width="16" y="15"/><g transform="matrix(0 1 1 0 0 2)"><path d="m-1.5 9c-.2761309.0000276-.4999724.2238691-.5.5v5c.0000276.276131.2238691.499972.5.5h13c.276131-.000028.499972-.223869.5-.5v-5c-.000028-.2761309-.223869-.4999724-.5-.5zm.5 1h12v4h-12z" fill="#3a3a38"/><path d="m-1 10v4h12v-4z" fill="#fafafa"/><path d="m3.5 1a.50005.50005 0 0 0 -.5.5v5a.50005.50005 0 0 0 .5.5h8a.50005.50005 0 0 0 .5-.5v-5a.50005.50005 0 0 0 -.5-.5zm.5 1h7v4h-7z" fill="#3a3a38"/><path d="m4 2v4h7v-4z" fill="#fafafa"/></g></svg>