<svg viewBox="0 0 16 16" xmlns="http://www.w3.org/2000/svg"><path d="m15.999431 9.4994318a.50005.50005 0 0 1 -.5.5h-9.4999993v2.5000002a.50005.50005 0 0 1 -.833984.371094l-4.99999999-4.5000004a.50005.50005 0 0 1 0-.7421876l4.99999999-4.5000002a.50005.50005 0 0 1 .833984.371094v2.5h9.4999993a.50005.50005 0 0 1 .5.5zm-1-.5v-2h-9.4999993a.50005.50005 0 0 1 -.5-.5v-1.878906l-3.753906 3.378906 3.753906 3.3789062v-1.8789062a.50005.50005 0 0 1 .5-.5z" fill="#3a3a38"/><path d="m14.999431 8.9994318h-9.4999993a.50005.50005 0 0 0 -.5.5v1.8789062l-3.753906-3.3789062 3.753906-3.378906v1.878906a.50005.50005 0 0 0 .5.5h9.4999993z" fill="#fafafa"/></svg>