<svg viewBox="0 0 16 16" xmlns="http://www.w3.org/2000/svg"><path d="m4.5 1a.50005.50005 0 0 0 -.5.5v10a.50005.50005 0 0 0 .5.5h4.5v2a.50005.50005 0 0 0 .8417969.365234l4.0000001-3.75a.50005.50005 0 0 0 0-.7304684l-4.0000001-3.75a.50005.50005 0 0 0 -.8417969.3652344v2h-1v-7a.50005.50005 0 0 0 -.5-.5zm.5 1h2v7a.50005.50005 0 0 0 .5.5h2a.50005.50005 0 0 0 .5-.5v-1.3457031l2.769531 2.5957031-2.769531 2.595703v-1.345703a.50005.50005 0 0 0 -.5-.5h-4.5z" fill="#3a3a38"/><path d="m5 2v9h4.5a.50005.50005 0 0 1 .5.5v1.345703l2.769531-2.595703-2.769531-2.5957031v1.3457031a.50005.50005 0 0 1 -.5.5h-2a.50005.50005 0 0 1 -.5-.5v-7z" fill="#fafafa"/></svg>