<svg viewBox="0 0 16 16" xmlns="http://www.w3.org/2000/svg">/&amp;amp;gt;<path d="m3.9765625 0a.50029411.50029411 0 0 0 -.3535156.16992188l-3.50000002 4.00000002a.50029411.50029411 0 0 0 .37695312.8300781h1.5v6h-1.5a.50029411.50029411 0 0 0 -.37695312.830078l3.50000002 4a.50029411.50029411 0 0 0 .7539062 0l3.5-4a.50029411.50029411 0 0 0 -.3769531-.830078h-1.5v-1h5v1.75a.50029411.50029411 0 0 0 .841797.365234l4-3.7499996a.50029411.50029411 0 0 0 0-.7304688l-4-3.75a.50029411.50029411 0 0 0 -.841797.3652344v1.75h-5v-1h1.5a.50029411.50029411 0 0 0 .3769531-.8300781l-3.5-4.00000002a.50029411.50029411 0 0 0 -.4003906-.16992188zm.0234375 1.2558594 2.4003906 2.7441406h-.9003906a.49909095.49909095 0 0 0 -.5.5v2a.49909095.49909095 0 0 0 .5.5h6a.49909095.49909095 0 0 0 .5-.5v-1.0976562l2.771484 2.5976562-2.771484 2.597656v-1.097656a.49909095.49909095 0 0 0 -.5-.5h-6a.49909095.49909095 0 0 0 -.5.5v2a.49909095.49909095 0 0 0 .5.5h.9003906l-2.4003906 2.744141-2.4003906-2.744141h.9003906a.49909095.49909095 0 0 0 .5-.5v-7a.49909095.49909095 0 0 0 -.5-.5h-.9003906z" fill="#3a3a38"/><path d="m4 1.2558594-2.4003906 2.7441406h.9003906a.49909095.49909095 0 0 1 .5.5v7a.49909095.49909095 0 0 1 -.5.5h-.9003906l2.4003906 2.744141 2.4003906-2.744141h-.9003906a.49909095.49909095 0 0 1 -.5-.5v-2a.49909095.49909095 0 0 1 .5-.5h6a.49909095.49909095 0 0 1 .5.5v1.097656l2.771484-2.597656-2.771484-2.5976562v1.0976562a.49909095.49909095 0 0 1 -.5.5h-6a.49909095.49909095 0 0 1 -.5-.5v-2a.49909095.49909095 0 0 1 .5-.5h.9003906z" fill="#fafafa"/></svg>