<svg viewBox="0 0 16 16" xmlns="http://www.w3.org/2000/svg"><path d="m6.5 0a.50005.50005 0 0 0 -.5.5v9.5h-2.5a.50005.50005 0 0 0 -.3710938.833984l4.5 5a.50005.50005 0 0 0 .7421876 0l4.5000002-5a.50005.50005 0 0 0 -.371094-.833984h-2.5v-9.5a.50005.50005 0 0 0 -.5-.5zm.5 1h2v9.5a.50005.50005 0 0 0 .5.5h1.878906l-3.378906 3.753906-3.3789062-3.753906h1.8789062a.50005.50005 0 0 0 .5-.5z" fill="#3a3a38"/><path d="m7 1v9.5a.50005.50005 0 0 1 -.5.5h-1.8789062l3.3789062 3.753906 3.378906-3.753906h-1.878906a.50005.50005 0 0 1 -.5-.5v-9.5z" fill="#fafafa"/></svg>