<svg viewBox="0 0 16 16" xmlns="http://www.w3.org/2000/svg"><path d="m.0005684 9.4994318a.50005.50005 0 0 0 .5.5h9.4999996v2.5000002a.50005.50005 0 0 0 .833984.371094l5-4.5000004a.50005.50005 0 0 0 0-.7421876l-5-4.5000002a.50005.50005 0 0 0 -.833984.371094v2.5h-9.4999996a.50005.50005 0 0 0 -.5.5zm1-.5v-2h9.4999996a.50005.50005 0 0 0 .5-.5v-1.878906l3.753906 3.378906-3.753906 3.3789062v-1.8789062a.50005.50005 0 0 0 -.5-.5z" fill="#3a3a38"/><path d="m1.0005684 8.9994318h9.4999996a.50005.50005 0 0 1 .5.5v1.8789062l3.753906-3.3789062-3.753906-3.378906v1.878906a.50005.50005 0 0 1 -.5.5h-9.4999996z" fill="#fafafa"/></svg>