<svg viewBox="0 0 16 16" xmlns="http://www.w3.org/2000/svg">/&amp;amp;gt;<path d="m4.4882812 0a.49927724.49927724 0 0 0 -.3417968.14648438l-4.00000002 4.00000002a.49927724.49927724 0 0 0 0 .7070312l4.00000002 4a.49927724.49927724 0 0 0 .8535156-.3535156v-2.3984375c.2438555.0839616.4440266.2092939.59375.4199219.2384753.3354824.3842092.867045.40625 1.4882812v7.4902344a.49927724.49927724 0 0 0 .5.5h3a.49927724.49927724 0 0 0 .5-.5v-7.5c0-.6157173.143514-1.1385524.386719-1.4746094.152968-.2113694.361636-.3390608.613281-.4238281v2.3984375a.49927724.49927724 0 0 0 .853516.3535156l4-4a.49927724.49927724 0 0 0 0-.7070312l-4-4.00000002a.49927724.49927724 0 0 0 -.361328-.14648438.49927724.49927724 0 0 0 -.492188.5v2.0585938c-1.215247.1215831-2.1858676.6962005-3 1.4941406-.8141322-.7979402-1.7847528-1.3725574-3-1.4941406v-2.0585938a.49927724.49927724 0 0 0 -.5117188-.5zm-.4882812 1.7070312v1.2929688a.50005.50005 0 0 0 .5.5c1.3483315 0 2.2714478.5460775 3.125 1.5117188a.50005.50005 0 0 0 .75 0c.8535528-.9656414 1.776669-1.5117188 3.125-1.5117188a.50005.50005 0 0 0 .5-.5v-1.2929688l2.792969 2.7929688-2.792969 2.7929688v-1.7929688a.50005.50005 0 0 0 -.5-.5c-.825466 0-1.5101282.3705082-1.921875.9394531-.4117468.568945-.578125 1.2954361-.578125 2.0605469v7h-2v-7a.50005.50005 0 0 0 0-.0175781c-.0251532-.7545966-.1880676-1.4711039-.5917969-2.0390625-.4037293-.5679587-1.0826444-.9433594-1.9082031-.9433594a.50005.50005 0 0 0 -.5.5v1.7929688l-2.7929688-2.7929688z" fill="#3a3a38"/><path d="m4 1.7070312-2.7929688 2.7929688 2.7929688 2.7929688v-1.7929688a.50005.50005 0 0 1 .5-.5c.8255587 0 1.5044738.3754007 1.9082031.9433594.4037293.5679586.5666437 1.2844659.5917969 2.0390625a.50005.50005 0 0 1 0 .0175781v7h2v-7c0-.7651108.1663782-1.4916019.578125-2.0605469.4117468-.5689449 1.096409-.9394531 1.921875-.9394531a.50005.50005 0 0 1 .5.5v1.7929688l2.792969-2.7929688-2.792969-2.7929688v1.2929688a.50005.50005 0 0 1 -.5.5c-1.348331 0-2.2714472.5460774-3.125 1.5117188a.50005.50005 0 0 1 -.75 0c-.8535522-.9656413-1.7766685-1.5117188-3.125-1.5117188a.50005.50005 0 0 1 -.5-.5z" fill="#fafafa"/></svg>