<svg viewBox="0 0 16 16" xmlns="http://www.w3.org/2000/svg">/&amp;amp;gt;<path d="m5.0136719 0a.50005.50005 0 0 0 -.3457031.12695312l-4.50000005 3.99999998a.50005.50005 0 0 0 .33203125.8730469h2.5v2h-1.5a.50005.50005 0 0 0 -.5.5v7a.50005.50005 0 0 0 .5.5h7a.50005.50005 0 0 0 .5-.5v-1.5h2v2.5a.50005.50005 0 0 0 .863281.341797l4-4.25a.50005.50005 0 0 0 .019531-.664063l-4-4.7499996a.50005.50005 0 0 0 -.882812.3222656v2.5h-.5-1-.5v-1.5a.50005.50005 0 0 0 -.5-.5h-1.5v-2h2.5a.50005.50005 0 0 0 .3320312-.8730469l-4.5-3.99999998a.50005.50005 0 0 0 -.3183593-.12695312zm-.0136719 1.1699219 3.1816406 2.828125h-1.6816406a.50125026.50125026 0 0 0 -.5019531.5019531v3a.50125026.50125026 0 0 0 .5019531.5019531h1.4980469v1.4980469a.50125026.50125026 0 0 0 .5019531.501953h1 1 1a.50125026.50125026 0 0 0 .501953-.501953v-1.6269531l2.828125 3.3593751-2.828125 3.003906v-1.736328a.50125026.50125026 0 0 0 -.501953-.501953h-3a.50125026.50125026 0 0 0 -.5019531.501953v1.498047h-5.9960938v-5.9960939h1.4980469a.50125026.50125026 0 0 0 .5019531-.5019531v-3a.50125026.50125026 0 0 0 -.5019531-.5019531h-1.6816406z" fill="#3a3a38"/><path d="m5 1.1699219-3.1816406 2.828125h1.6816406a.50125026.50125026 0 0 1 .5019531.5019531v3a.50125026.50125026 0 0 1 -.5019531.5019531h-1.4980469v5.9960939h5.9960938v-1.498047a.50125026.50125026 0 0 1 .5019531-.501953h3a.50125026.50125026 0 0 1 .501953.501953v1.736328l2.828125-3.003906-2.828125-3.3593751v1.6269531a.50125026.50125026 0 0 1 -.501953.501953h-1-1-1a.50125026.50125026 0 0 1 -.5019531-.501953v-1.4980469h-1.4980469a.50125026.50125026 0 0 1 -.5019531-.5019531v-3a.50125026.50125026 0 0 1 .5019531-.5019531h1.6816406z" fill="#fafafa"/></svg>