<svg viewBox="0 0 16 16" xmlns="http://www.w3.org/2000/svg"><path d="m.5 0a.50005.50005 0 0 0 -.44726562.72265625l3.63867182 7.27734375-3.63867182 7.277344a.50005.50005 0 0 0 .44726562.722656h11.25a.50005.50005 0 0 0 .447266-.277344l3.75-7.4999998a.50005.50005 0 0 0 0-.4453124l-3.75-7.50000005a.50005.50005 0 0 0 -.447266-.27734375zm.8085938 1h10.1328122l3.5 7-3.5 7h-10.1328122l3.3886718-6.7773438a.50005.50005 0 0 0 0-.4453124z" fill="#3a3a38"/><path d="m1.3085938 1 3.3886718 6.7773438a.50005.50005 0 0 1 0 .4453124l-3.3886718 6.7773438h10.1328122l3.5-7-3.5-7z" fill="#fafafa"/></svg>