<svg viewBox="0 0 16 16" xmlns="http://www.w3.org/2000/svg"><path d="m10.466797 3.0019531a.4976637.4976637 0 0 0 -.464844.4980469v2.5019531h-9.501953a.4976637.4976637 0 0 0 -.3515625.8496094l1.1484375 1.1484375-1.1484375 1.1484375a.4976637.4976637 0 0 0 .3515625.8496094h9.501953v2.5019531a.4976637.4976637 0 0 0 .830078.369141l5-4.5000004a.4976637.4976637 0 0 0 0-.7382812l-5-4.5a.4976637.4976637 0 0 0 -.316406-.1289063.4976637.4976637 0 0 0 -.048828 0zm.533203 1.6191407 3.753906 3.3789062-3.753906 3.378906v-1.878906a.50005.50005 0 0 0 -.5-.5h-8.7929688l.6464844-.6464844a.50005.50005 0 0 0 0-.7070312l-.6464844-.6464844h8.7929688a.50005.50005 0 0 0 .5-.5z" fill="#3a3a38"/><path d="m11 4.6210938v1.8789062a.50005.50005 0 0 1 -.5.5h-8.7929688l.6464844.6464844a.50005.50005 0 0 1 0 .7070312l-.6464844.6464844h8.7929688a.50005.50005 0 0 1 .5.5v1.878906l3.753906-3.378906z" fill="#fafafa"/></svg>