<svg viewBox="0 0 16 16" xmlns="http://www.w3.org/2000/svg"><path d="m15.999432 15.499432a.50005.50005 0 0 1 -.5.5h-7.0000002a.50005.50005 0 0 1 -.5-.5v-5.5000005h-2v2.5000005a.50005.50005 0 0 1 -.833984.371093l-4.99999999-4.4999997a.50005.50005 0 0 1 0-.7421876l4.99999999-4.5000002a.50005.50005 0 0 1 .833984.371094v2.5h2v-5.5a.50005.50005 0 0 1 .5-.5h7.0000002a.50005.50005 0 0 1 .5.5zm-1-.5v-14.0000005h-6.0000002v5.5a.50005.50005 0 0 1 -.5.5h-3a.50005.50005 0 0 1 -.5-.5v-1.878906l-3.753906 3.378906 3.753906 3.3789065v-1.8789065a.50005.50005 0 0 1 .5-.5h3a.50005.50005 0 0 1 .5.5v5.5000005z" fill="#3a3a38"/><path d="m14.999432 14.999432h-6.0000002v-5.5000005a.50005.50005 0 0 0 -.5-.5h-3a.50005.50005 0 0 0 -.5.5v1.8789065l-3.753906-3.3789065 3.753906-3.378906v1.878906a.50005.50005 0 0 0 .5.5h3a.50005.50005 0 0 0 .5-.5v-5.5h6.0000002z" fill="#fafafa"/></svg>