<svg viewBox="0 0 16 16" xmlns="http://www.w3.org/2000/svg">/&amp;amp;amp;gt;<path d="m7.5 0c-1.3807119 0-2.5 1.0073593-2.5 2.25.0007451.6910914.3543339 1.3435383.9589844 1.7695312l-5.63476565-.0175781c-.18681-.0005828-.32226562.1354548-.32226562.3222657v4.6757812h.12890625c.2626766-1.0383107 1.09359902-1.7929688 2.11914062-1.7929688 1.2426406 0 2.2499999 1.1192885 2.25 2.5 0 1.3807118-1.0073593 2.4999998-2.25 2.4999998-1.1469233 0-2.053107-.972234-2.1875-2.207031h-.06054687v3.693359c0 .18681.13545422.32202.32226562.322266l8.91406245.011719c.0852938-.015717.1726379-.027344.2617188-.027344h.3769531l-1.4199219-1.421875c-.2806493-.271012-.4447395-.641368-.4570312-1.03125a1.0001 1.0001 0 0 1 0-.005859c-.0161019-.635898.4018365-1.202411.9179688-1.419922.5161321-.2175119 1.2123412-.119634 1.6562502.335937l.427734.427735-.001953-4.3593754.001953.0507813c-.022022-.4296151.160913-.8975084.466797-1.1796875s.676059-.3964844 1.03125-.3964844.725387.1143068 1.03125.3964844.488754.750138.466797 1.1796875l.001953-.0507813-.001953 4.3593754.035156-.035157v-6.5078121c0-.1826361-.141315-.3222655-.328125-.3222657h-4.6621092c.603917-.4263476.9567562-1.0787401.9570312-1.7695312 0-1.2426407-1.1192881-2.25-2.5-2.25z" fill="#ed8733"/><path d="m7.5.99804688c-.8382749 0-1.5019531.65499422-1.5019531 1.25195312.0009274.3436946.1825069.7032978.5371093.953125.7947338.5624413.3974509 1.8135458-.5761718 1.8144531l-4.9589844-.0175781v1.4707031c.4023772-.1857246.8064316-.2714843 1.25-.2714843.8824376 0 1.7476592.4064703 2.3398438 1.0644531.5921845.6579828.9179686 1.5512163.9179687 2.4433593 0 .8921438-.3257842 1.7853768-.9179687 2.4433598-.3701154.411238-.8520777.707852-1.3730469.884765h5.6972656l-.4570313-.457031c-.2806493-.271012-.4447395-.641368-.4570312-1.03125a1.0001 1.0001 0 0 1 0-.005859c-.0161019-.635898.4018365-1.202411.9179688-1.419922.5161321-.2175119 1.2123412-.119634 1.6562502.335937l.427734.427735-.001953-4.3593754.001953.0507813c-.022022-.4296151.160913-.8975084.466797-1.1796875.276748-.2553008.606398-.358765.929688-.3789063h-3.3554692c-.9736229-.000907-1.3709058-1.2520117-.5761719-1.8144531.354658-.250378.5350192-.6090879.5351562-.953125 0-.5969589-.6636782-1.25195313-1.5019531-1.25195312zm5.101562 4.01953122c.14518.0090449.291277.0221596.433594.0742188v-.0742188zm-11.601562 7.8906249v.109375h.3183594c-.1064133-.036136-.2161665-.062206-.3183594-.109375z" fill="#f8db8f"/><path d="m12.5 6c-.258489 0-.51795.1752141-.5.5253906l.001953 6.7773434-2.1445311-2.148437c-.317139-.325519-.8689259-.09299-.8574219.361328.0041.130048.0587498.25337.1523438.34375l2.9121092 2.916016c.160699.173289.266429.223009.435547.224609.169118-.0016.274898-.05132.435547-.224609l2.912109-2.916016c.09359-.09038.148244-.213702.152344-.34375.0115-.454318-.540283-.686847-.857422-.361328l-2.144531 2.148437.001953-6.7773434c.0179-.3501765-.241511-.5253906-.5-.5253906zm0 9h-3c-.277 0-.5.223-.5.5s.223.5.5.5h6c.277 0 .5-.223.5-.5s-.223-.5-.5-.5z" fill="#1e8bcd" fill-rule="evenodd"/></svg>