<svg viewBox="0 0 16 16" xmlns="http://www.w3.org/2000/svg"><path d="m6.5 0a.50005.50005 0 0 0 -.5.5v5.75h-1v-2a.50005.50005 0 0 0 -.8417969-.3652344l-3.99999998 3.75a.50005.50005 0 0 0 0 .7304688l3.99999998 3.7499996a.50005.50005 0 0 0 .8417969-.365234v-2h1v5.75a.50005.50005 0 0 0 .5.5h3a.50005.50005 0 0 0 .5-.5v-5.75h1v2a.50005.50005 0 0 0 .841797.365234l4-3.7499996a.50005.50005 0 0 0 0-.7304688l-4-3.75a.50005.50005 0 0 0 -.841797.3652344v2h-1v-5.75a.50005.50005 0 0 0 -.5-.5zm.5 1h2v5.75a.50005.50005 0 0 0 .5.5h2a.50005.50005 0 0 0 .5-.5v-1.3457031l2.769531 2.5957031-2.769531 2.595703v-1.345703a.50005.50005 0 0 0 -.5-.5h-2a.50005.50005 0 0 0 -.5.5v5.75h-2v-5.75a.50005.50005 0 0 0 -.5-.5h-2a.50005.50005 0 0 0 -.5.5v1.345703l-2.7695312-2.595703 2.7695312-2.5957031v1.3457031a.50005.50005 0 0 0 .5.5h2a.50005.50005 0 0 0 .5-.5z" fill="#3a3a38"/><path d="m7 1v5.75a.50005.50005 0 0 1 -.5.5h-2a.50005.50005 0 0 1 -.5-.5v-1.3457031l-2.7695312 2.5957031 2.7695312 2.595703v-1.345703a.50005.50005 0 0 1 .5-.5h2a.50005.50005 0 0 1 .5.5v5.75h2v-5.75a.50005.50005 0 0 1 .5-.5h2a.50005.50005 0 0 1 .5.5v1.345703l2.769531-2.595703-2.769531-2.5957031v1.3457031a.50005.50005 0 0 1 -.5.5h-2a.50005.50005 0 0 1 -.5-.5v-5.75z" fill="#fafafa"/></svg>