<svg viewBox="0 0 16 16" xmlns="http://www.w3.org/2000/svg">/&amp;amp;gt;<path d="m11.472656.00195313a.49897626.49897626 0 0 0 -.470703.49804687v2.5019531h-.957031c-3.327234 0-5.951172 3.0793821-5.951172 6.3613281 0 .618159-.2125283.9616998-.5878906 1.2246098-.3753624.26291-.9590767.414062-1.6425782.414062h-1.3632812a.49897626.49897626 0 0 0 -.49804687.498047v3a.49897626.49897626 0 0 0 .49804687.498047h1.3632812c3.2470108 0 5.953125-2.352604 5.953125-5.6347658 0-1.2367489 1.0219574-2.3652343 2.2285158-2.3652343h.957031v2.5019531a.49897626.49897626 0 0 0 .871094.3320312l4-4.5a.49897626.49897626 0 0 0 0-.6640624l-4-4.50000005a.49897626.49897626 0 0 0 -.400391-.16601562zm.527344 1.81249997 2.830078 3.1855469-2.830078 3.1855469v-1.6855469c-.000028-.2761309-.223869-.4999724-.5-.5h-1.455078c-1.8065511 0-3.2265626 1.5869871-3.2265626 3.3632812 0 2.7421848-2.1776662 4.6367188-4.9550782 4.6367188h-.8632812v-2h.8632812c.8228803 0 1.6042044-.16468 2.2167969-.59375s1.0117188-1.154605 1.0117188-2.0429688c0-2.7424008 2.2561076-5.3632812 4.9531251-5.3632812h1.455078c.276131-.0000276.499972-.2238691.5-.5z" fill="#3a3a38"/><path d="m12 1.8144531v1.6855469c-.000028.2761309-.223869.4999724-.5.5h-1.455078c-2.6970174 0-4.9531251 2.6208803-4.9531251 5.3632812 0 .8883638-.3991263 1.6138988-1.0117188 2.0429688s-1.3939167.59375-2.2167969.59375h-.8632812v2h.8632812c2.777412 0 4.9550782-1.894534 4.9550782-4.6367188 0-1.7762942 1.4200116-3.3632812 3.2265626-3.3632812h1.455078c.276131.0000276.499972.2238691.5.5v1.6855469l2.830078-3.1855469z" fill="#fafafa"/></svg>