<svg viewBox="0 0 16 16" xmlns="http://www.w3.org/2000/svg">










     /&amp;amp;amp;amp;amp;amp;amp;amp;gt;
 <path d="m.5 2c-.277 0-.5.223-.5.5v11c0 .277.223.5.5.5h4.7578125l.9042969-1h-5.1621094v-10h14v.2148438l.900391-.9980469c-.090403-.1277652-.23129-.2167969-.400391-.2167969z" fill="#3a3a38"/><path d="m1 3v10h5.1621094l8.8378906-9.7851562v-.2148438z" fill="#fafafa"/><path d="m3 4v2h9.484375l.515625-.5722656v-1.4277344z" fill="#797774"/><path d="m3 7v1h1v-1zm2 0v1h5.677734l.902344-1zm-2 2v1h1v-1zm2 0v1h3.8710938l.9023437-1zm-2 2v1h1v-1zm2 0v1h2.0644531l.9023438-1z" fill="#c8c6c4"/><path d="m15.5 5.0000003-9.5 10.4999997h9.5zm-2 5.4999997v.976392 2.023608h-2-.5z" fill="#f8db8f" fill-rule="evenodd" stroke="#ed8733"/></svg>