<svg viewBox="0 0 16 16" xmlns="http://www.w3.org/2000/svg"><path d="m.0005685 15.499432a.50005.50005 0 0 0 .5.5h7.0000002a.50005.50005 0 0 0 .5-.5v-5.5000005h2.0000003v2.5000005a.50005.50005 0 0 0 .833984.371093l5-4.4999997a.50005.50005 0 0 0 0-.7421876l-5-4.5000002a.50005.50005 0 0 0 -.833984.371094v2.5h-2.0000003v-5.5a.50005.50005 0 0 0 -.5-.5h-7.0000002a.50005.50005 0 0 0 -.5.5zm1-.5v-14.0000005h6.0000002v5.5a.50005.50005 0 0 0 .5.5h3.0000003a.50005.50005 0 0 0 .5-.5v-1.878906l3.753906 3.378906-3.753906 3.3789065v-1.8789065a.50005.50005 0 0 0 -.5-.5h-3.0000003a.50005.50005 0 0 0 -.5.5v5.5000005z" fill="#3a3a38"/><path d="m1.0005685 14.999432h6.0000002v-5.5000005a.50005.50005 0 0 1 .5-.5h3.0000003a.50005.50005 0 0 1 .5.5v1.8789065l3.753906-3.3789065-3.753906-3.378906v1.878906a.50005.50005 0 0 1 -.5.5h-3.0000003a.50005.50005 0 0 1 -.5-.5v-5.5h-6.0000002z" fill="#fafafa"/></svg>