<svg viewBox="0 0 16 16" xmlns="http://www.w3.org/2000/svg">/&amp;amp;gt;<path d="m5.0136719 0a.50005.50005 0 0 0 -.3457031.12695312l-4.50000005 3.99999998a.50005.50005 0 0 0 .33203125.8730469h2.5v7.5a.50005.50005 0 0 0 .5.5h3 4.5v2.5a.50005.50005 0 0 0 .863281.341797l4-4.25a.50005.50005 0 0 0 .019531-.664063l-4-4.7499996a.50005.50005 0 0 0 -.882812.3222656v2.5h-.5-1-2.5v-4h2.5a.50005.50005 0 0 0 .3320312-.8730469l-4.5-3.99999998a.50005.50005 0 0 0 -.3183593-.12695312zm-.0136719 1.171875 3.1796875 2.8261719h-1.6796875a.50292627.50292627 0 0 0 -.5019531.5019531v5a.50292627.50292627 0 0 0 .5019531.501953h3 1 1a.50292627.50292627 0 0 0 .501953-.501953v-1.6230469l2.824219 3.3535159-2.824219 3.003906v-1.734375a.50292627.50292627 0 0 0 -.501953-.501953h-5-2.4980469v-7.498047a.50292627.50292627 0 0 0 -.5019531-.5019531h-1.6796875z" fill="#3a3a38"/><path d="m5 1.171875-3.1796875 2.8261719h1.6796875a.50292627.50292627 0 0 1 .5019531.5019531v7.498047h2.4980469 5a.50292627.50292627 0 0 1 .501953.501953v1.734375l2.824219-3.003906-2.824219-3.3535159v1.6230469a.50292627.50292627 0 0 1 -.501953.501953h-1-1-3a.50292627.50292627 0 0 1 -.5019531-.501953v-5a.50292627.50292627 0 0 1 .5019531-.5019531h1.6796875z" fill="#fafafa"/></svg>