<svg viewBox="0 0 16 16" xmlns="http://www.w3.org/2000/svg"><path d="m8 0c-1.6647705.00001614-3.3244178.40733145-4.6054688 1.2011719-1.2810508.7938403-2.3847663 2.0611524-2.3847656 3.4882812 0 .105033.01771.2072135.029297.3105469h-.0390626v5.5.238281.011719c0 2.899495 3.1340068 5.25 7 5.25 3.865993 0 7-2.350505 7-5.25v-.011719-.238281-5.5h-.03906c.01159-.1033334.0293-.2055139.0293-.3105469.000001-1.4271288-1.103714-2.6944409-2.384765-3.4882812-1.281057-.79384046-2.9407045-1.20115576-4.605475-1.2011719zm0 1c1.5025431.0000146 2.99635.3804285 4.078125 1.0507812 1.081774.6703532 1.91211 1.6340215 1.912109 2.6386719.000001 1.0046504-.830335 1.983944-1.912109 2.6542969-1.081775.6703529-2.5755819 1.0507669-4.078125 1.0507812-1.5025431-.0000143-2.9963506-.3804283-4.078125-1.0507812s-1.9121099-1.6496465-1.9121094-2.6542969c-.0000005-1.0046504.830335-1.9683188 1.9121094-2.6386719 1.0817744-.6703527 2.5755819-1.0507666 4.078125-1.0507812zm-6 6.0175781c.3975184.4548858.8794684.8566076 1.3945312 1.1757813 1.281051.7938403 2.9406983 1.2011561 4.6054688 1.2011718 1.6647705-.0000157 3.324418-.4073315 4.605469-1.2011718.515063-.3191737.997013-.7208955 1.394531-1.1757813v3.7207029c-.000007.0039-.000052.0078 0 .01172-.000006 2.34721-2.686292 4.25-6 4.25-3.3137085 0-6-1.90279-6-4.25v-.01172l.0058594-.238281h-.0058594z" fill="#3a3a38"/><path d="m8 1c-1.5025431.0000146-2.9963506.3804284-4.078125 1.0507812-1.0817744.670353-1.9121099 1.6340215-1.9121094 2.6386719-.0000005 1.0046504.830335 1.983944 1.9121094 2.6542969s2.5755819 1.0507668 4.078125 1.0507812c1.5025431-.0000143 2.99635-.3804283 4.078125-1.0507812 1.081774-.6703529 1.91211-1.6496465 1.912109-2.6542969.000001-1.0046504-.830335-1.9683188-1.912109-2.6386719-1.081775-.6703527-2.5755819-1.0507666-4.078125-1.0507812zm-6 6.0175781v3.7324219c0 2.34721 2.6862915 4.25 6 4.25 3.313708 0 6-1.90279 6-4.25v-3.7324219c-.397518.4548858-.879468.8566076-1.394531 1.1757813-1.281051.7938403-2.9406985 1.2011562-4.605469 1.2011718-1.6647705-.0000156-3.3244178-.4073315-4.6054688-1.2011718-.5150627-.3191737-.9970128-.7208955-1.3945312-1.1757813z" fill="#fafafa"/></svg>