<svg viewBox="0 0 16 16" xmlns="http://www.w3.org/2000/svg">/&amp;amp;gt;<path d="m5.5 0a.50005.50005 0 0 0 -.5.5v4.5h-4.5a.50005.50005 0 0 0 -.5.5v5a.50005.50005 0 0 0 .5.5h4.5v4.5a.50005.50005 0 0 0 .5.5l5-.007812a.50005.50005 0 0 0 .5-.5v-4.492188h4.5a.50005.50005 0 0 0 .5-.5v-5a.50005.50005 0 0 0 -.5-.5h-4.5v-4.5a.50005.50005 0 0 0 -.5-.5zm.5 1h4v4.5a.50005.50005 0 0 0 .5.5h4.5v4h-4.5a.50005.50005 0 0 0 -.5.5v4.492188l-4 .007812v-4.5a.50005.50005 0 0 0 -.5-.5h-4.5v-4h4.5a.50005.50005 0 0 0 .5-.5z" fill="#3a3a38"/><path d="m6 1v4.5a.50005.50005 0 0 1 -.5.5h-4.5v4h4.5a.50005.50005 0 0 1 .5.5v4.5l4-.0078v-4.4922a.50005.50005 0 0 1 .5-.5h4.5v-4h-4.5a.50005.50005 0 0 1 -.5-.5v-4.5z" fill="#fafafa"/></svg>