<svg viewBox="0 0 16 16" xmlns="http://www.w3.org/2000/svg"><path d="m9 1.1699219v1.0410156a6 14 0 0 1 5 13.7890625h1a7 15 0 0 0 -6-14.8300781zm-2 .0019531a7 15 0 0 0 -6 14.828125h1a6 14 0 0 1 5-13.8027344z" fill="#3a3a38"/><g fill="#1e8bcd"><path d="m.48242188 1c-.26761018 0-.48242188.2148117-.48242188.4824219v.0351562c0 .2676102.2148117.4824219.48242188.4824219h6.51757812v-1zm8.51757812 0v1h6.517578c.26761 0 .482422-.2148117.482422-.4824219v-.0351562c0-.2676102-.214812-.4824219-.482422-.4824219z"/><path d="m7 0c-.554 0-1 .446-1 1v2c0 .554.446 1 1 1h2c.554 0 1-.446 1-1v-2c0-.554-.446-1-1-1zm0 1h2v2h-2z"/></g></svg>