<svg height="16" viewBox="0 0 4.2333332 4.2333335" width="16" xmlns="http://www.w3.org/2000/svg"><g transform="scale(.26458333)"><g stroke-width=".999999"><path d="m4.25 1c-.0935913 0-.1829088.0093-.2675781.0253906-.3841257.0967701-.643067.3195375-.8203125.6230469-.1037337.2063448-.1621094.4506118-.1621094.7265625v8.625h5.4140625c.9691218-.958286 1.9840745-1.9616568 3.1660155-3.1328125a1.0023027 1.0023027 0 0 1 .128906-.1601563l.291016-.2890624c-.000001-.8325103.001864-1.5870588.001953-2.4179688h-.001953v-2.5c0-.5483785.187035-1.071724.498047-1.4980469-.00474-.0004459-.008923-.0015273-.013672-.0019531h-3.6894531zm9.359375.3027344c-.072073.0565661-.145175.1130053-.207031.1835937-.186331.2013816-.318997.450195-.373047.7285157-.0189.0925148-.031099.1877582-.03125.2851562h.001953v1.1191406c.08166-.030906.169747-.051165.244141-.09375.54012-.2311512 1.529186-.6111876 1.755859-1.0097656v-.015625h.001953c-.000197-.0973984-.01235-.1926415-.03125-.2851562-.020558-.1058671-.061582-.2024863-.103515-.2988282-.272179-.2373687-.785131-.4488966-1.257813-.6132812z" fill="#fafafa"/><path d="m4.25 0c-1.3070985 0-2.25 1.1080268-2.25 2.375v8.625h1v-8.625c0-.8105197.4795983-1.375 1.25-1.375h4.4863281 3.7636719c.358412-.49020724.882091-.85101035 1.5-.95703125l-.716797-.04296875h-5.626953zm7.751953 5c-.000082.83091-.002196 1.5807298-.001953 2.4179688l.964844-.9648438c.02703-.027003.02524-.017859.03906-.029297v-1.423828z" fill="#3a3a38"/><path d="m0 11v2.5h.01171875c-.00246089.041932-.01171875.082717-.01171875.125 0 1.346003 1.1942339 2.375 2.5 2.375h3.4980469a1.0023027 1.0023027 0 0 1 .0292969-.240234l.1875-.759766-3.7148438.001953c-.0973965-.000151-.1926433-.012352-.2851562-.03125-.2783135-.054047-.5271342-.186716-.7285157-.373047-.2787031-.244157-.4654721-.573403-.4804687-.927734h-.0058594v-.044922-.125-1.5h6.4023438c.1503598-.149139.7021998-.693942 1.0117187-1z" fill="#922e9b"/><path d="m1 12v1.5.125.044922h.0058594.0058594c.0400621.351387.2078615.6556.4433593.888672.0124681.01163.0183821.027789.03125.039062.0387941.035895.0867195.060064.1289063.091797.0873532.065156.1789996.124858.2792968.169922.1024857.04651.2067963.089284.3203126.111328.0582901.011907.1193728.014281.1796874.019531.0353806.002555.0694999.009716.1054688.009766.1023628 0 .2044575-.010399.3046875-.029297v.021485h3.4121094l.5253906-2.13086a1.0023027 1.0023027 0 0 1 .2636719-.46875c.0272279-.02721.3359932-.332561.3945312-.390625z" fill="#d492d8"/><path d="m14 .04296875c-1.155778.19830858-2 1.27665435-2 2.45703125v2.5h4v-2.5c0-1.1803769-.844222-2.25872265-2-2.45703125zm0 1.03320315c.225366.079495.431939.2209826.597656.4101562.186331.2013816.319.450195.373047.7285157.0189.092515.0311.1877578.03125.2851562h-.001953v1.5c-.666667 0-1.333333 0-2 0v-1.5h-.002c.000151-.097398.01235-.1926411.03125-.2851562.05405-.2783207.186716-.5271341.373047-.7285157.165772-.1891736.372337-.3306615.597703-.4101562z" fill="#922e9b"/><path d="m14 1.0761719c.225366.079495.431939.2209826.597656.4101562.186331.2013816.319.450195.373047.7285157.0189.092515.0311.1877578.03125.2851562h-.001953v1.5h-2v-1.5h-.002c.000151-.097398.01235-.1926411.03125-.2851562.05405-.2783207.186716-.5271341.373047-.7285157.165772-.1891736.372337-.3306615.597703-.4101562z" fill="#d492d8"/></g><g fill="#fb983b"><path d="m13.804688 7.0683594c.171006-.1739438-.174941.1601863-1.386719 1.3476562l.01563.015625c.619714-.6142617 1.234361-1.2242057 1.371089-1.3632812zm-1.371094 1.3632812c-1.705556 1.6905364-4.4180608 4.3694234-4.7187502 4.6699214l-.7148438 2.898438 2.8554688-.757812 4.6835932-4.703126zm-.002 1.0078125 1.099609 1.0996089-4.0449219 4.0625-1.5039062.400391.3789062-1.535156c.3659391-.364052 2.4317849-2.404918 4.0703599-4.0273439z" fill="#0063b1"/><path d="m14.066406 7c-.142171 0-.283638.053302-.392578.1621094l-1.255859 1.2539062 2.134765 2.1367184 1.283204-1.2304684c.21788-.2175952.21788-.5675602 0-.7851562l-1.376954-1.375c-.108941-.108798-.250406-.1621094-.392578-.1621094zm0 .9941406.933594.9316406-.433594.4160157-.923828-.9257813z" fill="#0063b1"/><g fill="#83beec"><path d="m14.066406 7.9941406-.423828.421875.923828.9257813.433594-.4160157z"/><path d="m12.431641 9.4394531c-1.638575 1.6224259-3.7044208 3.6632919-4.0703129 4.0273439l-.3789062 1.535156 1.5039062-.400391 4.0449219-4.0625z"/></g></g></g></svg>