<svg viewBox="0 0 16 16" xmlns="http://www.w3.org/2000/svg">/&amp;amp;gt;<path d="m8.0039062 0a.50005.50005 0 0 0 -.4511718.27734375l-7.50000002 15.00000025a.50005.50005 0 0 0 .44726562.722656s3.749999-.000005 7.5 0 7.5 0 7.5 0a.50005.50005 0 0 0 .447266-.722656l-7.5000004-15.00000025a.50005.50005 0 0 0 -.4433594-.27734375zm-.0039062 1.6269531 6.683594 13.3691409c-.68794.000003-3.341797.000004-6.683594 0-3.3417971-.000004-5.9956542.000001-6.6835938 0z" fill="#3a3a38"/><path d="m8 1.6269531-6.6835938 13.3691409c.6879395.000001 3.3417967-.000004 6.6835938 0 3.341797.000004 5.995654.000003 6.683594 0z" fill="#fafafa"/></svg>