<svg viewBox="0 0 16 16" xmlns="http://www.w3.org/2000/svg">/&amp;amp;gt;<path d="m8 3.9921875a1.0087534 1.0087534 0 0 0 -.09375.0039063c-4.3677211.0510926-7.9140625 3.6244418-7.9140625 8.0039062a1.0087534 1.0087534 0 0 0 1.0078125 1.007812h2.53125a1.0087534 1.0087534 0 0 0 1.0019531-.896484c.1983778-1.774349 1.6813927-3.1021721 3.4667969-3.1035155 1.7854042.0013434 3.268419 1.3291665 3.466797 3.1035155a1.0087534 1.0087534 0 0 0 1.001953.896484h2.53125a1.0087534 1.0087534 0 0 0 1.007812-1.007812c0-4.3794644-3.546341-7.9528136-7.914062-8.0039062a1.0087534 1.0087534 0 0 0 -.09375-.0039063zm0 1.0078125a7 7 0 0 1 7 7h-2.533203a4.5 4.5 0 0 0 -4.466797-4 4.5 4.5 0 0 0 -4.46875 4h-2.53125a7 7 0 0 1 7-7z" fill="#3a3a38"/><path d="m8 5a7 7 0 0 0 -7 7h2.53125a4.5 4.5 0 0 1 4.46875-4 4.5 4.5 0 0 1 4.466797 4h2.533203a7 7 0 0 0 -7-7z" fill="#fafafa"/></svg>