<svg viewBox="0 0 16 16" xmlns="http://www.w3.org/2000/svg"><path d="m4 2c-1.104522 0-2 .8954778-2 2v3 1c0 .2761493-.2238577.5-.5.5h-.5v1h.5c.2761423 0 .5.2238507.5.5v1 1 2c0 1.104597 1 2 2 2h1v-1h-1c-.5522843 0-1-.447701-1-1v-2-1-1c0-.382499-.1392847-.7350257-.375-1 .2357153-.2649743.375-.617501.375-1v-1-.28125-2.71875c0-.5522986.4956628-1 1-1h1v-1z" fill="#3a3a38"/><path d="m.5.015625c-.276142 0-.5.223858-.5.5s.223858.5.5.5h5c1.380712 0 2.5 1.119288 2.5 2.5h.0059v.4238281l-.0039 3.3476563-2.1445781-2.1347656c-.0945357-.0966507-.2241785-.1509034-.359375-.1503907-.4484574.0018389-.6679612.5474983-.3457031.859375l3.0039062 2.9921879c.1952649.195184.5117661.195184.707031 0l2.996094-2.9921879c.490833-.4712542-.235777-1.1978644-.707031-.7070312l-2.150391 2.1484375.0039-3.3632813v-.5c-.005894-2.154663-1.883363-3.3737981-3.505853-3.4238281z" fill="#1e8bcd" fill-rule="evenodd"/><path d="m12 2c1.104522 0 2 .8954778 2 2v3 1c0 .2761493.223858.5.5.5h.5v1h-.5c-.276142 0-.5.2238507-.5.5v1 1 2c0 1.104597-1 2-2 2h-1v-1h1c.552284 0 1-.447701 1-1v-2-1-1c0-.382499.139285-.7350257.375-1-.235715-.2649743-.375-.617501-.375-1v-1-.28125-2.71875c0-.5522986-.495663-1-1-1h-1v-1z" fill="#3a3a38"/></svg>