<svg viewBox="0 0 16 16" xmlns="http://www.w3.org/2000/svg">
/&amp;gt;<path d="m1 1v3h7v-3zm8 0 3 3 3-3zm-8 4v10h7v-10zm8 0v10h6v-10zm3 1 2 3h-4zm-9.5 1h4c.277 0 .5.223.5.5s-.223.5-.5.5h-4c-.277 0-.5-.223-.5-.5s.223-.5.5-.5zm0 3h4c.277 0 .5.223.5.5s-.223.5-.5.5h-4c-.277 0-.5-.223-.5-.5s.223-.5.5-.5zm7.5 1h4l-2 3zm-7.5 2h4c.277 0 .5.223.5.5s-.223.5-.5.5h-4c-.277 0-.5-.223-.5-.5s.223-.5.5-.5z" fill="#fafafa"/><path d="m0 0v16h16v-16zm1 1h7v3h-7zm8 0h6l-3 3zm-8 4h7v10h-7zm8 0h6v10h-6zm3 1-2 3h4zm-9.5 1c-.277 0-.5.223-.5.5s.223.5.5.5h4c.277 0 .5-.223.5-.5s-.223-.5-.5-.5zm0 3c-.277 0-.5.223-.5.5s.223.5.5.5h4c.277 0 .5-.223.5-.5s-.223-.5-.5-.5zm7.5 1 2 3 2-3zm-7.5 2c-.277 0-.5.223-.5.5s.223.5.5.5h4c.277 0 .5-.223.5-.5s-.223-.5-.5-.5z" fill="#3a3a38"/></svg>