<svg viewBox="0 0 16 16" xmlns="http://www.w3.org/2000/svg">
/&amp;gt;<path d="m1 1h14v14h-14z" fill="#fafafa"/><path d="m1 0c-.554 0-1 .446-1 1v14c0 .554.446 1 1 1h14c.554 0 1-.446 1-1v-14c0-.554-.446-1-1-1zm0 1h14v14h-14z" fill="#3a3a38"/><path d="m13.167969 3.0000001a.83203125.83203125 0 0 0 -.691407.3671875l-6.3164058 7.6796874-2.8046874-2.2578124a.80859375.80859375 0 0 0 -.546875-.2148437.80859375.80859375 0 0 0 -.8085938.8085937.80859375.80859375 0 0 0 .2773438.609375l-.00586.00781 3.421875 2.7656254a.80859375.80859375 0 0 0 .5800777.246096.80859375.80859375 0 0 0 .6367187-.3125l.019531-.02344a.80859375.80859375 0 0 0 .011719-.01563l6.8066418-8.2304614a.83203125.83203125 0 0 1 .001953-.0019531.83203125.83203125 0 0 0 .25-.5957032.83203125.83203125 0 0 0 -.832031-.8320312z" fill="#1e8bcd"/></svg>