<svg viewBox="0 0 16 16" xmlns="http://www.w3.org/2000/svg"><path d="m4.0107898 8.2708734q1.3647826 0 2.0193212.5988332.6545387.5988332.6545387 1.9079104v5.083119h-.8912867l-.236748-1.058403h-.055705q-.4874224.61276-1.0305501.905213-.5292015.292454-1.4761935.292454-1.0166238 0-1.6850888-.529202-.66846494-.543128-.66846494-1.685089 0-1.114108.87736024-1.712941.8773603-.61276 2.7017126-.668465l1.2672982-.04178v-.445643q0-.933066-.4038643-1.2951513-.4038642-.3620852-1.141961-.3620852-.5849068 0-1.1141082.1810426-.5292019.1671172-.9887715.3899389l-.3760116-.9191394q.4874224-.2646007 1.1558873-.4456433.668465-.1949689 1.3926354-.1949689zm1.4622671 3.9411576-1.1001819.04178q-1.3926354.05571-1.9357631.445644-.5292015.389938-.5292015 1.100182 0 .626686.3760116.919139.3899379.292453.9887711.292453.946992 0 1.5736779-.515275.6266859-.529201.6266859-1.615457z" fill="#3a3a38"/><path d="m7.9960938 5.2773438v10.5839842h.8769531l.2519531-.947266h.0976562c.213538.297096.5055838.552088.8769528.765626.37137.213537.848687.320312 1.433594.320312.919139 0 1.662177-.324713 2.228516-.974609.566338-.649897.849609-1.61526.849609-2.896485 0-1.281224-.283271-2.2422003-.849609-2.8828122-.093566-.1091595-.200645-.1962849-.304688-.2871094l-.201172.2011718.046875-.0546874c-.190696.2558207-.493421.4057432-.8125.4023437a.50006526.50006526 0 0 0 -.001953 0c-.304766-.0047741-.59164-.1489474-.777343-.390625l.003906.0078125-.792969-.7929688c-.310094.0504874-.593325.1281248-.822266.2597657-.371369.2135374-.6634148.4773047-.8769528.7929687h-.0703124c.0185666-.157832.0317289-.3713822.0410156-.640625.0185666-.278527.0292968-.574961.0292968-.890625v-1.21875l-.4082031-.4082031c-.2266296-.2018663-.3555205-.4998949-.3457031-.7734375.0022753-.0633968.0275156-.1168966.0410156-.1757812zm3.3281252 4.0097656c1.346214 0 2.019531.9434256 2.019531 2.8281246 0 .928424-.165767 1.638795-.5 2.13086-.324948.492064-.82177.736328-1.490234.736328-.817014 0-1.3791679-.239876-1.6855472-.722656-.2970961-.492064-.4453126-1.198049-.4453126-2.117188v-.05664c0-.956277.1526044-1.660307.4589844-2.1152349.30638-.4549272.8534184-.6835937 1.6425784-.6835937z" fill="#3a3a38"/><path d="m12.496427 9.0071618c-.152571-.00239-.2957-.074317-.388672-.195312l-.0039-.0059-2.9570315-2.9531251c-.5267392-.4691836.2344391-1.2324704.705078-.7070312l2.1523445 2.1484373v-6.78710982c-.0096-.6761613 1.009563-.6761613 1 0v6.78320382l2.140625-2.1445313c.471354-.4726558 1.180338.2343754.708984.7070312l-2.951172 2.9531651c-.0955.1281139-.246469.2028744-.406256.201172z" fill="#1e8bcd" fill-rule="evenodd"/></svg>