<svg viewBox="0 0 16 16" xmlns="http://www.w3.org/2000/svg">/&amp;gt;<g fill="#fafafa"><path d="m.5 0a.50005.50005 0 0 0 -.5.5v1.25 8.75 1a.50005.50005 0 0 0 .5.5h1.25 2.25v3.5a.50005.50005 0 0 0 .8769531.330078l3.3496094-3.830078h6.0234375 1.25a.50005.50005 0 0 0 .5-.5v-1-8.75-1.25a.50005.50005 0 0 0 -.5-.5h-1.25-12.5zm.5 1h.75 12.5.75v.75 8.75.5h-.75-6.25a.50005.50005 0 0 0 -.3769531.169922l-2.6230469 2.998047v-2.667969a.50005.50005 0 0 0 -.5-.5h-2.75-.75v-.5-8.75z" fill="#3a3a38"/><path d="m1 1v.75 8.75.5h.75 2.75a.50005.50005 0 0 1 .5.5v2.667969l2.6230469-2.998047a.50005.50005 0 0 1 .3769531-.169922h6.25.75v-.5-8.75-.75h-.75-12.5z"/></g></svg>