<svg viewBox="0 0 16 16" xmlns="http://www.w3.org/2000/svg">/&amp;gt;<path d="m8 0c-2.1723999 0-4.1486216.65687772-5.6035156 1.7480469-1.45489403 1.0911691-2.3964844 2.643501-2.3964844 4.3769531 0 2.2533839 1.7951487 4.07927 4 5.134766v4.240234a.50005.50005 0 0 0 .8769531.330078l3.3828125-3.865234c2.0543964-.047473 3.9356134-.595118 5.3320314-1.578125 1.458323-1.0265864 2.408203-2.5282669 2.408203-4.261719s-.94159-3.285784-2.396484-4.3769531c-1.454894-1.09116917-3.431116-1.7480469-5.603516-1.7480469zm0 .99414062c1.9708737.00000001 3.74519.60332728 5.005859 1.54882818 1.26067.9455007 2 2.2068476 2 3.5820312s-.729049 2.5622051-1.986328 3.4472656c-1.257278.8850604-3.038711 1.4335934-5.019531 1.4335934a.49443239.49443239 0 0 0 -.3710938.167969l-2.6347656 3.011719v-3.216797a.49443239.49443239 0 0 0 -.296875-.453125c-2.114924-.9240038-3.70312498-2.5955402-3.70312498-4.390625.00000001-1.3751836.73933078-2.6365306 1.99999998-3.5820312 1.2606693-.9455008 3.0349853-1.54882818 5.0058594-1.54882818z" fill="#3a3a38"/><path d="m8 .99414062c-1.9708741 0-3.7451901.60332738-5.0058594 1.54882818-1.2606692.9455007-1.99999998 2.2068476-1.99999998 3.5820312 0 1.7950848 1.58820098 3.4666212 3.70312498 4.390625a.49443239.49443239 0 0 1 .296875.453125v3.216797l2.6347656-3.011719a.49443239.49443239 0 0 1 .3710938-.167969c1.98082 0 3.762253-.548533 5.019531-1.4335934 1.257279-.8850605 1.986328-2.072082 1.986328-3.4472656s-.73933-2.6365305-2-3.5820312c-1.260669-.9455008-3.0349853-1.54882817-5.005859-1.54882818z" fill="#fafafa"/></svg>