<svg height="16" viewBox="0 0 4.2333332 4.2333335" width="16" xmlns="http://www.w3.org/2000/svg"><g stroke-width=".999999" transform="scale(.26458333)"><path d="m4.25 1c-.0935913 0-.1829088.0093-.2675781.0253906-.3841257.0967701-.643067.3195375-.8203125.6230469-.1037337.2063448-.1621094.4506118-.1621094.7265625v8.625h6v2.5.125.04492h.00586c.014997.354331.2017664.683577.4804687.927734.1006908.09317.2137714.173114.3359375.236328.1221661.06322.2534178.109696.3925788.136719.08681.01773.176436.02778.267578.0293h.017577v.002c.09465-.000778.187332-.01286.277344-.03125.27832-.05405.527134-.186716.728515-.373047.278703-.244157.465472-.573403.480469-.927734h.0059v-.04497-.125c.000208-.03597-.000204-.08491 0-.121094-.0063-.08825-.01008-.174409 0-.255859.01251-2.456391.0095-5.3316445.0098-8.123047h-.002028v-2.5c0-.5483785.187035-1.071724.498047-1.4980469-.00474-.0004459-.008923-.0015273-.013672-.0019531-2.7447917 0-5.4895833 0-8.234375 0z" fill="#fafafa"/><path d="m4.25 0c-1.3070985 0-2.25 1.1080268-2.25 2.375v8.625h1v-8.625c0-.8105197.4795983-1.375 1.25-1.375h8.25c.358412-.49020724.882091-.85101035 1.5-.95703125l-.716797-.04296875c-3.011068 0-6.0221353 0-9.033203 0zm7.751953 5c-.000287 2.9209385.0051 5.975292-.0098 8.5v.125.04492h-.0059c-.015.354331-.201766.683577-.480469.927734-.201381.186331-.450195.319-.728515.373047-.09001.01839-.182697.03047-.277344.03125v.998049c1.302803-.0041 2.500075-1.023884 2.500075-2.367188 0-.042278.0025-.09088 0-.132812h.0039v-8.5z" fill="#3a3a38"/><path d="m1 12v1.5.125.044922h.0058594c.0149966.354331.2017656.683577.4804687.927734.2013815.186331.4502022.319.7285157.373047.0925129.018898.1877597.031099.2851562.03125l5.9765625-.001953c-.2942179-.384386-.4765625-.854835-.4765625-1.375 0-.042282.0092579-.083066.0117188-.125h-.0117188v-1.498047z" fill="#d492d8"/><path d="m14 .04296875c-1.155778.19830858-2 1.27665435-2 2.45703125v2.5h4v-2.5c0-1.1803769-.844222-2.25872265-2-2.45703125zm0 1.03320315c.225366.079495.431939.2209826.597656.4101562.186331.2013816.319.450195.373047.7285157.0189.092515.0311.1877578.03125.2851562h-.001953v1.5c-.666667 0-1.333333 0-2 0v-1.5h-.002c.000151-.097398.01235-.1926411.03125-.2851562.05405-.2783207.186716-.5271341.373047-.7285157.165772-.1891736.372337-.3306615.597703-.4101562z" fill="#922e9b"/><path d="m14 1.0761719c.225366.079495.431939.2209826.597656.4101562.186331.2013816.319.450195.373047.7285157.0189.092515.0311.1877578.03125.2851562h-.001953v1.5h-2v-1.5h-.002c.000151-.097398.01235-.1926411.03125-.2851562.05405-.2783207.186716-.5271341.373047-.7285157.165772-.1891736.372337-.3306615.597703-.4101562z" fill="#d492d8"/><path d="m0 11v2.5h.01171875c-.00246089.041932-.01171875.082717-.01171875.125 0 1.346003 1.1942339 2.375 2.5 2.375h8v-1h-.017578c-.091142-.001518-.180767-.011564-.267578-.029297-.2783209-.054047-.5271343-.186716-.7285159-.373047-.2787023-.244157-.4654719-.573403-.4804687-.927734h-.0058594v-.044922-.125-1.5-1zm1 1h7v1.5h.0117188c-.0024609.041934-.0117188.082718-.0117188.125 0 .520165.1823446.990614.4765625 1.375l-5.9765625.001953c-.0973965-.000151-.1926432-.012352-.2851562-.03125-.2783135-.054047-.5271342-.186716-.7285157-.373047-.2787031-.244157-.4654721-.573403-.4804687-.927734h-.0058594v-.044922-.125z" fill="#922e9b"/></g></svg>