<svg viewBox="0 0 16 16" xmlns="http://www.w3.org/2000/svg">

/&amp;amp;gt;<g fill="#1e8bcd"><path d="m8.5 0c-5.0688829 0-8.5 3.6030951-8.5 8 0 4.412623 3.587368 8 8 8 2.183975 0 4.197007-.745369 5.65625-2.197266 1.459243-1.451896 2.34375-3.596537 2.34375-6.302734a.50056259.50056259 0 0 0 -.5-.5h-6.5v-6.5a.50056259.50056259 0 0 0 -.5-.5zm-.4980469 1.0410156v6.4589844a.49896428.49896428 0 0 0 .4980469.4980469h6.460938c-.103398 2.2297971-.843547 3.9373071-2.009766 5.0976561-1.25555 1.249229-2.9926525 1.90625-4.951172 1.90625-3.8724997 0-7.00195312-3.129462-7.00195312-7.001953-.00000001-3.7409735 2.69822582-6.73545 7.00390622-6.9589844z"/><path d="m6.9902344 8.4960938c-.1297602.00361-.2530305.057543-.34375.1503906l-3 2.9999996c-.4908001.471255.235776 1.197832.7070312.707032l3.0000004-3.0000004c.3252695-.3180037.0914392-.8698927-.3632816-.8574218z"/></g></svg>