<svg viewBox="0 0 16 16" xmlns="http://www.w3.org/2000/svg"><path d="m7.0566406 0-5.0566406 13h1.4453125c.157265 0 .2909889-.04633.4003906-.138672.1162395-.09234.1953031-.199561.2363281-.320312l1.5410157-3.541016h4.7597651l1.544922 3.552734c.0547.127854.130833.235073.226563.320313.102563.085233.236293.125455.400391.126953h1.445312l-5.046875-13zm.9433594 1.8320312c.061538.2628108.1269364.5090324.1953125.7363282.068376.2272958.1367021.4252313.2050781.5957031l1.6425784 4.8359375h-4.0800784l1.6367188-4.8242188c.0615385-.1704718.1269364-.3703605.1953125-.5976562s.136702-.4761799.2050781-.7460938z" fill="#3a3a38"/><path d="m0 13h16v3h-16z" fill="#ed3d3b"/></svg>