<svg height="16" viewBox="0 0 4.2333333 4.2333335" width="16" xmlns="http://www.w3.org/2000/svg"><g fill="#fff" transform="matrix(.26458333 0 0 .26458333 0 .00002)"><g transform="translate(0 -.000076)"><path d="m3.9980469 0c-.5527774 0-.9980469.44526956-.9980469.99804688v2.00195312h1v-2h6 4 1v1 4 6h-2v1h2.001953c.552777 0 .998047-.44527.998047-.998047v-11.00390612c0-.55277732-.44527-.99804688-.998047-.99804688z" fill="#3a3a38"/><path d="m4 1v2h5.6035156l-.2910156-.2753906a1.0001 1.0001 0 0 1 .6875-1.7246094zm10 0a1.0001 1.0001 0 0 1 1 1v-1zm1 5a1.0001 1.0001 0 0 1 -1.726562.6875l-.273438-.2890625v5.6015625h2z" fill="#fafafa"/><path d="m.99804688 3c-.55277733 0-.99804688.4452695-.99804688.9980469v11.0039061c0 .552777.44526955.998047.99804688.998047h11.00390612c.552777 0 .998047-.44527.998047-.998047v-8.6035155l-.585938-.6210937-.414062.4140624v8.8085938h-11v-11h8.9433594l.3476566-.3476562-.6875004-.6523438z" fill="#3a3a38"/></g><path d="m1 4v11h11v-8.8085938l-.980469.9804688-.002.00195-.707031.7070313a1.0001 1.0001 0 0 1 -1.4140626 0l-.7089374-.7089813a1.0001 1.0001 0 0 1 0-1.4140625l.7089844-.7089844 1.046875-1.0488281z" fill="#fafafa"/></g><g stroke-width=".264583" transform="translate(0 -292.766651)"><path d="m2.6458333 293.29583.4557861.43254-.5606892.5612-.1875855.18759.1875855.18758.1870687-.18707.0005167-.00051.5617229-.56121.4139282.43822v-1.05834z" fill="#1e8bcd"/><path d="m9 10.5-4.5 4.5h7.5v-1.5zm-4.5 1.5-3 3h1.5l2.25-2.25z" fill="#83beec" stroke-width=".264582" transform="matrix(.26458333 0 0 .26458333 0 292.76665)"/><path d="m9 9-3 3-1.4999999-1.5-3.5000001 3.5v1h.5l3.0000001-3 .7499999.75-2.25 2.25h1.5l4.5-4.5 3 3v-1.5z" fill="#0063b1" stroke-width=".264582" transform="matrix(.26458333 0 0 .26458333 0 292.76665)"/><path d="m1.5875 294.61874a.52916667.52916667 0 0 1 -.5291667.52916.52916667.52916667 0 0 1 -.52916663-.52916.52916667.52916667 0 0 1 .52916663-.52917.52916667.52916667 0 0 1 .5291667.52917z" fill="#ed8733" stroke-width=".211667"/><path d="m1.3229167 294.61874a.26458333.26458333 0 0 1 -.2645834.26458.26458333.26458333 0 0 1 -.2645833-.26458.26458333.26458333 0 0 1 .2645833-.26459.26458333.26458333 0 0 1 .2645834.26459z" fill="#f8db8f"/></g></svg>