<svg viewBox="0 0 16 16" xmlns="http://www.w3.org/2000/svg"><path d="m1 3v8h1.2480469c.2370847-.506475.617418-.940258 1.0761719-1.2460938.7382263-.4921509 1.6672073-.7539062 2.6757812-.7539062s1.937555.2617553 2.6757812.7539062c.1274917.0849945.2080541.2257142.3242188.3281248v-.082031c0-.9576149.585992-1.7539428 1.324219-2.2460938.738226-.4921508 1.667207-.7539062 2.675781-.7539062.722319 0 1.400163.1394894 2 .3964844v-4.3964844z" fill="#fafafa"/><path d="m0 2v10h2c0-.362527.103615-.691456.2480469-1h-.2480469c0-.554-.446-1-1-1v-6c.554 0 1-.446 1-1h12c0 .554.446 1 1 1v3.3964844c.237716.1018472.466257.2177387.675781.3574218.115633.0770882.217724.1741603.324219.265625v-5.0195312-1h-1zm8 2c-1.6568542 0-3 1.3431458-3 3 0 .7784938.3047463 1.480479.7910156 2.0136719.0703511-.0025967.1378013-.0136719.2089844-.0136719 1.0085739 0 1.937555.2617553 2.6757812.7539062.0484779.0323186.0836022.0817371.1230469.125.0732163-.0203038.1459462-.0408037.2167969-.0664062.0711518-.873074.6196033-1.5992669 1.308594-2.0585938.197955-.1319705.411521-.2455171.634765-.34375.018637-.1351743.041016-.2698581.041016-.4101562 0-1.6568542-1.3431458-3-3-3z" fill="#0063b1"/><path d="m6 10a3 2 0 0 0 -3 2v2a3 2 0 0 0 3 2 3 2 0 0 0 3-2v-2a3 2 0 0 0 -3-2zm0 1a2 1 0 0 1 2 1 2 1 0 0 1 -2 1 2 1 0 0 1 -2-1 2 1 0 0 1 2-1zm-2 2.488281a3 2 0 0 0 2 .511719 3 2 0 0 0 2-.511719v1a3 2 0 0 1 -2 .511719 3 2 0 0 1 -2-.511719z" fill="#ed8733"/><path d="m6 11a2 1 0 0 0 -2 1 2 1 0 0 0 2 1 2 1 0 0 0 2-1 2 1 0 0 0 -2-1zm-2 2.488281v1a3 2 0 0 0 2 .511719 3 2 0 0 0 2-.511719v-1a3 2 0 0 1 -2 .511719 3 2 0 0 1 -2-.511719z" fill="#f8db8f"/><path d="m13 10a3 2 0 0 0 -3 2v2a3 2 0 0 0 3 2 3 2 0 0 0 3-2v-2a3 2 0 0 0 -3-2zm0 1a2 1 0 0 1 2 1 2 1 0 0 1 -2 1 2 1 0 0 1 -2-1 2 1 0 0 1 2-1zm-2 2.488281a3 2 0 0 0 2 .511719 3 2 0 0 0 2-.511719v1a3 2 0 0 1 -2 .511719 3 2 0 0 1 -2-.511719z" fill="#ed8733"/><path d="m13 11a2 1 0 0 0 -2 1 2 1 0 0 0 2 1 2 1 0 0 0 2-1 2 1 0 0 0 -2-1zm-2 2.488281v1a3 2 0 0 0 2 .511719 3 2 0 0 0 2-.511719v-1a3 2 0 0 1 -2 .511719 3 2 0 0 1 -2-.511719z" fill="#f8db8f"/><path d="m13 8a3 2 0 0 0 -3 2v2a3 2 0 0 0 3 2 3 2 0 0 0 3-2v-2a3 2 0 0 0 -3-2zm0 1a2 1 0 0 1 2 1 2 1 0 0 1 -2 1 2 1 0 0 1 -2-1 2 1 0 0 1 2-1zm-2 2.488281a3 2 0 0 0 2 .511719 3 2 0 0 0 2-.511719v1a3 2 0 0 1 -2 .511719 3 2 0 0 1 -2-.511719z" fill="#ed8733"/><path d="m13 9a2 1 0 0 0 -2 1 2 1 0 0 0 2 1 2 1 0 0 0 2-1 2 1 0 0 0 -2-1zm-2 2.488281v1a3 2 0 0 0 2 .511719 3 2 0 0 0 2-.511719v-1a3 2 0 0 1 -2 .511719 3 2 0 0 1 -2-.511719z" fill="#f8db8f"/><path d="m10 7a2 2 0 0 1 -2 2 2 2 0 0 1 -2-2 2 2 0 0 1 2-2 2 2 0 0 1 2 2z" fill="#83beec"/></svg>