<svg height="16" viewBox="0 0 4.2333332 4.2333335" width="16" xmlns="http://www.w3.org/2000/svg" xmlns:xlink="http://www.w3.org/1999/xlink"><radialGradient id="a" cx="16.053827" cy="12.074853" gradientTransform="matrix(.26456434 -.0031696 .00634199 .52936137 -.076274 289.62038)" gradientUnits="userSpaceOnUse" r="8"><stop offset="0" stop-color="#83beec"/><stop offset="1" stop-color="#0063b1"/></radialGradient><g stroke-width=".264583" transform="translate(0 -292.76665)"><path d="m2.1166667 292.76665c-1.16900223 0-2.1166658.47383-2.1166667 1.05833v2.11667c0 .58449.94766355 1.05833 2.1166667 1.05833 1.1690032 0 2.1166666-.47384 2.1166666-1.05833v-2.11667c-.0000008-.5845-.9476644-1.05833-2.1166666-1.05833z" fill="url(#a)"/><path d="m4.2333333 293.82498a2.1166667 1.0583333 0 0 1 -2.1166666 1.05834 2.1166667 1.0583333 0 0 1 -2.1166667-1.05834 2.1166667 1.0583333 0 0 1 2.1166667-1.05833 2.1166667 1.0583333 0 0 1 2.1166666 1.05833z" fill="#0063b1"/></g></svg>