<svg height="16" viewBox="0 0 16 16" width="16" xmlns="http://www.w3.org/2000/svg"><path d="m8 2c-1.662 0-3 .892-3 2v4c0 1.108 1.338 2 3 2h1v-1h-1.5c-.831 0-1.5-.446-1.5-1v-4c0-.554.669-1 1.5-1h6c.831 0 1.5.446 1.5 1v4c0 .554-.669 1-1.5 1h-1.5v1h1c1.662 0 3-.892 3-2v-4c0-1.108-1.338-2-3-2zm-5 4c-1.662 0-3 .892-3 2v4c0 1.108 1.338 2 3 2h5c1.662 0 3-.892 3-2v-4c0-1.108-1.338-2-3-2h-1v1h1.5c.831 0 1.5.446 1.5 1v4c0 .554-.669 1-1.5 1h-6c-.831 0-1.5-.446-1.5-1v-4c0-.554.669-1 1.5-1h1.5v-1z" fill="#3a3a38"/></svg>