<svg viewBox="0 0 16 16" xmlns="http://www.w3.org/2000/svg">

/&amp;amp;gt;<path d="m8 0c-4.412355 0-8 3.5876537-8 8 0 4.412346 3.587645 8 8 8s8-3.587654 8-8c0-.2062853-.017511-.3933875-.029297-.5625a.50005.50005 0 0 0 -.144531-.3183594l-6.9453126-6.94531248a.50005.50005 0 0 0 -.3183594-.14453124c-.1691117-.01178517-.3562141-.02929688-.5625-.02929688zm0 1.0039062c.093575 0 .2034055.0085523.3085938.015625l6.6718752 6.671875c.00703.1051879.015625.2150188.015625.3085938 0 3.870044-3.126041 6.996094-6.996094 6.996094-3.8700532 0-6.9960938-3.12605-6.9960938-6.996094 0-3.8700448 3.1260405-6.9960938 6.9960938-6.9960938z" fill="#3a3a38"/><path d="m8 1 7 7v-7z" fill="none"/></svg>