<svg viewBox="0 0 16 16" xmlns="http://www.w3.org/2000/svg">

/&amp;amp;gt;<path d="m8 0c-4.412355 0-8 3.5876537-8 8 0 4.412346 3.587645 8 8 8s8-3.587654 8-8c0-4.4123463-3.587645-8-8-8zm0 .99023438c3.877263-.00000001 7.009766 3.13251082 7.009766 7.00976562 0 3.877254-3.132503 7.009766-7.009766 7.009766-3.8772632 0-7.00976562-3.132512-7.00976562-7.009766 0-3.8772548 3.13250242-7.00976562 7.00976562-7.00976562z" fill="#3a3a38"/><path d="m8 .99023438c-3.8772632 0-7.00976562 3.13251082-7.00976562 7.00976562 0 3.877254 3.13250242 7.009766 7.00976562 7.009766 3.877263 0 7.009766-3.132512 7.009766-7.009766 0-3.8772548-3.132503-7.00976562-7.009766-7.00976562z" fill="#fafafa"/></svg>