<svg height="16" viewBox="0 0 4.2333332 4.2333335" width="16" xmlns="http://www.w3.org/2000/svg"><g stroke-width=".264583" transform="translate(0 -292.76665)"><path d="m.26458333 295.14792c-.14657916 0-.26458333.118-.26458333.26458v1.05833c0 .14658.11800417.26459.26458333.26459h2.11666667c.1465792 0 .2645833-.11801.2645833-.26459v-1.05833c0-.14658-.1180041-.26458-.2645833-.26458z" fill="#3a3a38"/><path d="m.26458333 295.4125h2.11666667v1.05833h-2.11666667z" fill="#797774"/><path d="m2.9104167 293.29583c0-.14658-.1180042-.26458-.2645834-.26458h-1.3229166c-.1465792 0-.2645834.118-.2645834.26458v2.11667c0 .14658.1180042.26458.2645834.26458h1.3229166c.1465792 0 .2645834-.118.2645834-.26458z" fill="#ed8733"/><path d="m2.6458333 293.29583v2.11667h-1.3229166v-2.11667z" fill="#f8db8f"/><path d="m3.96875 295.94167c.1465792 0 .2645833-.11801.2645833-.26459v-1.05833c0-.14658-.1180041-.26458-.2645833-.26458h-1.8520833c-.1465792 0-.2645834.118-.2645834.26458v1.05833c0 .14658.1180042.26459.2645834.26459z" fill="#0063b1"/><path d="m3.96875 295.67708h-1.8520833v-1.05833h1.8520833z" fill="#83beec"/></g></svg>