<svg viewBox="0 0 16 16" xmlns="http://www.w3.org/2000/svg">/&amp;gt;<path d="m8 0c-2.1498808 0-4.1018419.50211756-5.5546875 1.3496094-1.45284564.8474918-2.4453125 2.0856462-2.4453125 3.5253906s.99246686 2.6778988 2.4453125 3.5253906c.4969788.2899038 1.1188893.4768994 1.7207031.6796875-.1292398.0392395-.317914.0252124-.4355468.0722657-.3234699.1293878-.6039216.2860161-.828125.4980468-.2242037.2120307-.4023438.5081324-.4023438.8496094s.1781401.637579.4023438.849609c.1217772.115166.296522.184431.4492187.271485-.465617.0324-.9210967.09238-1.2753906.269531-.4302983.215149-.8261719.580271-.8261719 1.109375 0 .326393.1704529.56834.3867188.773438-.3638834.01421-.70935015.07049-.99414068.21289-.31719408.158599-.64257812.44586-.64257812.888672s.32538404.730073.64257812.888672c.31719409.158599.69468648.236328 1.10742188.236328s.7902278-.077729 1.1074219-.236328.6425781-.44586.6425781-.888672c0-.202525-.081349-.363776-.1855469-.503906.1128422.009.1931401.06641.3105469.06641.5853218 0 1.1185298-.112976 1.5488281-.328125.4302984-.215153.8261719-.580275.8261719-1.109379 0-.374352-.2220893-.638156-.4902344-.853516.2226428.01843.3796208.103516.6152344.103516.916989 0 1.7475919-.143568 2.3945312-.402344.3234698-.129388.6039216-.286016.828125-.498047.2242037-.21203.4023438-.508132.4023438-.849609s-.1781402-.6375787-.4023438-.8496094c-.0221482-.0209457-.0588076-.0289323-.0820312-.0488281 1.62678-.1601563 3.138725-.5301434 4.289063-1.2011719 1.452844-.8474918 2.445312-2.0856462 2.445312-3.5253906s-.992467-2.6778988-2.445312-3.5253906c-1.452847-.84749184-3.404807-1.3496094-5.554688-1.3496094zm0 .99609375c1.9927937 0 3.790458.47851705 5.052734 1.21484375 1.262277.7363267 1.951172 1.6859622 1.951172 2.6640625s-.688895 1.9277358-1.951172 2.6640625c-1.262276.7363267-3.0599403 1.2148437-5.052734 1.2148437-1.9927937.0000002-3.7904578-.478517-5.0527344-1.2148437s-1.95117185-1.6859622-1.95117185-2.6640625.68889525-1.9277358 1.95117185-2.6640625 3.0599407-1.21484375 5.0527344-1.21484375zm-1.875 8.75000005c.8092716 0 1.5407441.1381726 2.0253906.3320312.2423233.09693.4211551.209381.5136719.296875.092517.08749.089844.12014.089844.125 0 .0049.00267.03751-.089844.125-.092517.08749-.2713486.199946-.5136719.296875-.4846465.193859-1.216119.332031-2.0253906.332031s-1.5407441-.138172-2.0253906-.332031c-.2423233-.096929-.4211551-.209381-.5136719-.296875s-.0898437-.12014-.0898437-.125c-.0000001-.0049-.00267-.03751.089844-.125.092517-.08749.2713486-.199946.5136719-.296875.4846462-.1938586 1.2161187-.3320312 2.0253903-.3320312zm-2.5 2.8125002c.4506753 0 .8545733.09819 1.1035156.222656.2489423.124471.2753906.228233.2753906.21875 0-.0095-.026448.09428-.2753906.21875-.2489422.124471-.6528402.222656-1.1035156.222656s-.8545734-.09819-1.1035156-.222656c-.2489422-.124471-.2753906-.228232-.2753906-.21875-.0000002.0095.026448-.09428.2753906-.21875.2489423-.124471.6528403-.222656 1.1035156-.222656zm-1.875 2.1875c.2739805 0 .515267.06215.6523438.128906-.1370768.066755-.3783633.128906-.6523438.128906s-.515267-.062151-.6523438-.128906c.1370769-.066755.3783633-.128906.6523438-.128906z" fill="#3a3a38"/><path d="m8 .99609375c-1.9927937 0-3.7904578.47851705-5.0527344 1.21484375s-1.95117185 1.6859622-1.95117185 2.6640625.68889525 1.9277358 1.95117185 2.6640625 3.0599407 1.2148438 5.0527344 1.2148437c1.9927937 0 3.790458-.478517 5.052734-1.2148437 1.262277-.7363267 1.951172-1.6859622 1.951172-2.6640625s-.688895-1.9277358-1.951172-2.6640625c-1.262276-.7363267-3.0599403-1.21484375-5.052734-1.21484375zm-1.875 8.75000005c-.8092716 0-1.5407441.1381726-2.0253906.3320312-.2423233.09693-.4211551.209381-.5136719.296875-.092517.08749-.089844.12014-.089844.125 0 .0049-.00267.03751.089844.125.092517.08749.2713486.199946.5136719.296875.4846465.193859 1.216119.332031 2.0253906.332031s1.5407441-.138172 2.0253906-.332031c.2423233-.09693.4211551-.209381.5136719-.296875.092517-.08749.089844-.12014.089844-.125 0-.0049.00267-.03751-.089844-.125-.0925168-.087494-.2713486-.199946-.5136719-.296875-.4846465-.1938586-1.216119-.3320312-2.0253906-.3320312zm-2.5 2.8125002c-.4506753 0-.8545733.09819-1.1035156.222656-.2489423.124471-.2753907.228233-.2753906.21875 0-.0095.026448.09428.2753906.21875.2489422.124471.6528402.222656 1.1035156.222656s.8545734-.09819 1.1035156-.222656c.2489422-.124471.2753906-.228232.2753906-.21875 0 .0095-.026448-.09428-.2753906-.21875-.2489423-.124471-.6528403-.222656-1.1035156-.222656zm-1.875 2.1875c-.2739805 0-.515267.06215-.6523438.128906.1370768.06676.3783633.128906.6523438.128906s.515267-.06215.6523438-.128906c-.1370768-.066755-.3783633-.128906-.6523438-.128906z" fill="#fafafa"/></svg>