<svg viewBox="0 0 16 16" xmlns="http://www.w3.org/2000/svg">

/&amp;amp;gt;<path d="m8.5 0c-5.0688829 0-8.5 3.6030951-8.5 8 0 4.412623 3.587368 8 8 8 2.183975 0 4.197007-.745369 5.65625-2.197266 1.459243-1.451896 2.34375-3.596537 2.34375-6.302734a.50056259.50056259 0 0 0 -.5-.5h-6.5v-6.5a.50056259.50056259 0 0 0 -.5-.5zm-.4980469 1.0410156v6.4589844a.49896428.49896428 0 0 0 .4980469.4980469h6.460938c-.103398 2.2297971-.843547 3.9373071-2.009766 5.0976561-1.25555 1.249229-2.9926525 1.90625-4.951172 1.90625-3.8724997 0-7.00195312-3.129462-7.00195312-7.001953-.00000001-3.7409735 2.69822582-6.73545 7.00390622-6.9589844z" fill="#3a3a38"/><path d="m8.0019531 1.0410156c-4.3056804.2235344-7.00390622 3.2180109-7.00390622 6.9589844 0 3.872491 3.12945342 7.001953 7.00195312 7.001953 1.9585195 0 3.695622-.657021 4.951172-1.90625 1.166219-1.160349 1.906368-2.867859 2.009766-5.0976561h-6.460938a.49896428.49896428 0 0 1 -.4980469-.4980469z" fill="#fafafa"/></svg>