<svg viewBox="0 0 16 16" xmlns="http://www.w3.org/2000/svg">
/&amp;gt;<g fill="#1e8bcd"><rect fill="#3a3a38" height="16" rx=".5" transform="scale(-1 1)" width="1" x="-1"/><rect fill="#3a3a38" height="16" rx=".5" transform="scale(-1 1)" width="1" x="-12"/><path d="m8.5000004 1.0019531c.1345093-.0001797.2633927.05405.3574219.1503907l1.9492187 1.9511718c.129905.1003353.193725.248249.193359.3964844.000366.1482354-.06345.2961491-.193359.3964844l-1.9492187 1.9511718c-.0940292.0963407-.2229126.1505704-.3574219.1503907-.4471002-.0006665-.6676854-.5446938-.3476562-.8574219l1.1367188-1.140625h-4.289063v-.5-.5h4.289063l-1.1367188-1.140625c-.3200292-.3127281-.0994441-.8567554.3476562-.8574219z" fill-rule="evenodd"/><path d="m-5 9h5v6h-5z" fill="#3a3a38" transform="matrix(-1 0 0 1 11 0)"/><path d="m-4 10h3v4h-3z" fill="#fafafa" transform="matrix(-1 0 0 1 11 0)"/><path d="m-16 7h5v8h-5z" fill="#3a3a38" transform="matrix(-1 0 0 1 -11 0)"/><path d="m-15 8h3v6h-3z" fill="#fafafa" transform="matrix(-1 0 0 1 -11 0)"/><path d="m3.500002 1.0019531c-.13451-.0001797-.263393.05405-.357422.1503907l-1.949219 1.9511718c-.129905.1003353-.193725.248249-.193359.3964844-.000366.1482354.06345.2961491.193359.3964844l1.949219 1.9511718c.09403.096341.222912.1505704.357422.1503907.4471-.0006665.667685-.5446938.347656-.8574219l-1.136719-1.140625h4.2890626v-.5-.5h-4.2890626l1.136719-1.140625c.320029-.3127281.099444-.8567554-.347656-.8574219z" fill-rule="evenodd"/></g></svg>