<svg viewBox="0 0 16 16" xmlns="http://www.w3.org/2000/svg"><path d="m1 1v10h2.5c.2761309.000028.4999724.223869.5.5v2.886719l3.6679688-3.259766c.0913925-.081553.2095407-.12673.3320312-.126953h.8359375l-2.5429687-2.5429688c-.3900151-.3906761-.3900151-1.0233863 0-1.4140624l.75-.75c.1837045-.1836993.4316466-.2887595.6914062-.2929688.2705891-.0040708.5312915.1016194.7226562.2929688l3.0429688 3.0429687 3.042969-3.0429687c.126472-.1257699.28426-.2154529.457031-.2597657v-5.0332031z" fill="#fafafa"/><path d="m.5 0c-.27614237 0-.5.2238576-.5.5.00000895.02947.0026233.05888063.0078125.08789062h-.0078125v10.91210938c.00002761.276131.22386906.499972.5.5h2.5v3.5c.0007774.430893.5097988.659116.8320312.373047l4.3574219-3.873047h.6464844l.5-.5-.5-.5h-.8359375c-.1224905.000223-.2406387.0454-.3320312.126953l-3.6679688 3.259766v-2.886719c-.0000276-.276131-.2238691-.499972-.5-.5h-2.5v-10h14v5.0332031c.3425-.088668.706366.010095.957031.2597657l.042969.0429687v-5.8359375c-.000028-.2761309-.223869-.4999724-.5-.5z" fill="#3a3a38"/><path d="m15.25 7.0000002-3.75 3.7499998-3.75-3.7499998-.75.75 3.75 3.7499998-3.75 3.75.75.75 3.75-3.75 3.75 3.75.75-.75-3.75-3.75 3.75-3.7499998z" fill="#ed3d3b"/></svg>