<svg height="16" viewBox="0 0 4.2333332 4.2333335" width="16" xmlns="http://www.w3.org/2000/svg"><g transform="translate(0 -292.76665)"><g stroke-width=".999999" transform="matrix(.26458333 0 0 .26458333 0 292.76665)"><path d="m1 8v7h6.1699219l-.1816407-.314453a1.0001 1.0001 0 0 0 -.00195-.002l-.4980469-.867188-.25-.429687a1.0001 1.0001 0 0 1 .2050751-1.251906l.7207031-.634766-.7207031-.634766a1.0001 1.0001 0 0 1 -.2050782-1.2519528l.25-.4296874.4980469-.8671876a1.0001 1.0001 0 0 0 .00195-.00195l.1816438-.3144562z" fill="#fafafa"/><path d="m6 4v7h.5957031l-.1523437-.134766a1.0001 1.0001 0 0 1 -.2050782-1.2519528l.25-.4296874.4980469-.8671876a1.0001 1.0001 0 0 0 .00195-.00195l.25-.4316406a1.0001 1.0001 0 0 1 1.18555-.4453156l.90625.3066406.1894531-.9414062a1.0001 1.0001 0 0 1 .9804688-.8027344h.5 1 .5a1.0001 1.0001 0 0 1 .980469.8027344l.189453.9414062.90625-.3066406a1.0001 1.0001 0 0 1 .423828-.046875v-3.390625z" fill="#fafafa"/><path d="m6 0c-.5540001 0-1 .44599685-1 1v3h-4c-.55399997 0-1 .4459969-1 1v10c0 .554003.44600003 1 1 1h8.4804688l-.1503907-.744141-.90625.306641a1.0001 1.0001 0 0 1 -1.1855469-.445312l-.0683593-.117188h-6.1699219v-7h4v3c0 .554003.4459999 1 1 1h.5957031l.5683594-.5-.5683594-.5h-.5957031v-3h1.1699219l.0683593-.1171875a1.0001 1.0001 0 0 1 1.1855469-.4453125l.90625.3066406.1894531-.9414062a1.0001 1.0001 0 0 1 .9804688-.8027344h.5v-1c0-.5540031-.446-1-1-1h5v3.390625a1.0001 1.0001 0 0 1 .761719.4921875l.238281.4121094v-7.2949219c0-.55400315-.446-1-1-1zm9.865234 11.474609-.0293.02539.0078.0059c.0066-.01093.01533-.02005.02148-.03125z" fill="#3a3a38"/></g><g fill="#797774" transform="matrix(.26458333 0 0 .26458333 0 292.76667)"><path d="m2 9h2v1h-2z" fill="#797774"/><path d="m2 11h2v1h-2z" fill="#797774"/><path d="m2 13h2v1h-2z"/><path d="m13.519531 7 .150391.7441406.330078-.1113281v-.6328125z" transform="translate(0 -.000076)"/><path d="m12 5h2v1h-2z"/></g><g stroke-width=".264583"><path d="m1 4c-.55399997 0-1 .4459969-1 1v3h7.1699219l.0683593-.1171875a1.0001 1.0001 0 0 1 1.1855469-.4453125l.90625.3066406.1894531-.9414062a1.0001 1.0001 0 0 1 .9804688-.8027344h.5v-1c0-.5540031-.446-1-1-1z" fill="#3a3a38" stroke-width=".999999" transform="matrix(.26458333 0 0 .26458333 0 292.76665)"/><path d="m1 5v2h4v-2zm5 0v2h3.4804688l.0390624-.1972656a1.0001 1.0001 0 0 1 .4804688-.6660156v-1.1367188z" fill="#797774" stroke-width=".999999" transform="matrix(.26458333 0 0 .26458333 0 292.76665)"/><path d="m1.5875 292.76667c-.1465792 0-.2645833.118-.2645833.26458v.79375h2.9104166v-.79375c0-.14658-.1180041-.26458-.2645833-.26458z" fill="#3a3a38"/></g><path d="m1.5875 293.03125h2.38125v.52917h-2.38125z" fill="#797774" stroke-width=".229136"/><path d="m2.778125 294.61872-.1090372.54415-.5250325-.17776-.066146.1142-.1322916.22945-.066146.1142.4165121.36639-.4165121.36638.066146.11421.1322916.22944.066146.11421.5250325-.17777.1090372.54415h.1322917.2645833.1322917l.1090371-.54415.5250326.17777.066146-.11421.1322917-.22944.066146-.11421-.4165118-.36638.4165118-.36639-.066146-.1142-.1322917-.22945-.066146-.1142-.5250326.17776-.1090371-.54415h-.1322917-.2645833zm.2315104.26459h.066146l.099219.39687h.1731158l.086816.14986.3932576-.11214.033073.0568-.2940388.28474.086816.14986-.086816.14986.2940388.28474-.033073.0568-.3932576-.11214-.086816.14986h-.1731162l-.099219.39688h-.066146l-.099219-.39688h-.1731154l-.086816-.14986-.3932576.11214-.033073-.0568.2940389-.28474-.086816-.14986.086816-.14986-.2940389-.28474.033073-.0568.3932576.11214.086816-.14986h.1731161zm.033073.52916a.396875.396875 0 0 0 -.396875.39688.396875.396875 0 0 0 .396875.39687.396875.396875 0 0 0 .396875-.39687.396875.396875 0 0 0 -.396875-.39688zm0 .26459a.13229167.13229167 0 0 1 .1322917.13229.13229167.13229167 0 0 1 -.1322917.13229.13229167.13229167 0 0 1 -.1322916-.13229.13229167.13229167 0 0 1 .1322916-.13229z" fill="#1e8bcd"/><path d="m3.0096354 294.88331h.066146l.099219.39687h.1731158l.086816.14986.3932576-.11214.033073.0568-.2940388.28474.086816.14986-.086816.14986.2940388.28474-.033073.0568-.3932576-.11214-.086816.14986h-.1731162l-.099219.39688h-.066146l-.099219-.39688h-.1731154l-.086816-.14986-.3932576.11214-.033073-.0568.2940389-.28474-.086816-.14986.086816-.14986-.2940389-.28474.033073-.0568.3932576.11214.086816-.14986h.1731161zm.033073.52916c-.2191879 0-.396875.17769-.396875.39688 0 .21918.1776871.39687.396875.39687.2191883 0 .396875-.17769.396875-.39687 0-.21919-.1776867-.39688-.396875-.39688z" fill="#fafafa"/></g></svg>