<svg viewBox="0 0 16 16" xmlns="http://www.w3.org/2000/svg">/&amp;gt;<path d="m1 1v5h5v-5zm9 0v5h5v-5zm-9 9v5h5v-5zm9 0v5h5v-5z" fill="#fafafa"/><path d="m1 0c-.554 0-1 .446-1 1v5c0 .554.446 1 1 1h5c.554 0 1-.446 1-1v-5c0-.554-.446-1-1-1zm9 0c-.554 0-1 .446-1 1v5c0 .554.446 1 1 1h5c.554 0 1-.446 1-1v-5c0-.554-.446-1-1-1zm-9 1h5v5h-5zm9 0h5v5h-5zm-9 8c-.554 0-1 .446-1 1v5c0 .554.446 1 1 1h5c.554 0 1-.446 1-1v-5c0-.554-.446-1-1-1zm9 0c-.554 0-1 .446-1 1v5c0 .554.446 1 1 1h5c.554 0 1-.446 1-1v-5c0-.554-.446-1-1-1zm-9 1h5v5h-5zm9 0h5v5h-5z" fill="#3a3a38"/></svg>