<svg viewBox="0 0 16 16" xmlns="http://www.w3.org/2000/svg">/&amp;amp;amp;amp;amp;gt;<path d="m1 3v2 1 2 1 2 1 2h4 1v-3.064453c0-.51789.446-.935547 1-.935547h1v-1-1-.0644531c0-.5178897.446-.9355469 1-.9355469h1 1 3c.554 0 1 .4176572 1 .9355469v-1.9355469-1-2h-4-1-4-1z" fill="#fafafa"/><path d="m0 2v13h6v-1c-1.6666667 0-3.3333333 0-5 0 0-3.666667 0-7.3333333 0-11h14v7h1v-8z" fill="#3a3a38"/><path d="m10 9v1h3v-1zm0 5v1h3v-1z" fill="#fafafa"/><path d="m9 8v2 1h5v-1-2zm1 1h3v1h-3zm-2 2c-.554 0-1 .446-1 1v2c0 .554.4482752 1.050157 1 1h1v1h5v-1h1c.554 0 1-.446 1-1v-2c0-.554-.446-1-1-1v3h-2v1h-3v-1h-2c0-1 0-2 0-3z" fill="#3a3a38"/><path d="m9 11h5v1h-5z" fill="#1e8bcd"/><path d="m5 3v2h-4v1h4v2h-4v1h4v2h-4v1h4v2h1v-3.064453-1.935547h2v-1h-2v-2h4v1h1v-1h4v-1h-4v-2h-1v2h-4v-2z" fill="#797774" fill-opacity=".959559"/><path d="m5 3v2h-4v1h4v2h-4v1h4 1 2v-1h-2v-2h4v1h1v-4h-1v2h-4v-2z" fill="#1e8bcd"/><path d="m1 3v2h4v-2zm5 0v2h4v-2zm-5 3v2h4v-2zm5 0v2h2v-.0644531c0-.5178897.446-.9355469 1-.9355469h1v-1z" fill="#5a81a9" opacity=".5"/><path d="m0 2v7h1v-6h10v-1h-10z" fill="#0063b1" fill-opacity=".959559"/><path d="m8 13h7v1h-7z" fill="#797774" fill-opacity=".982993"/></svg>