<svg height="16" viewBox="0 0 4.2333333 4.2333336" width="16" xmlns="http://www.w3.org/2000/svg"><g transform="translate(0 -292.76665)"><g stroke-width=".264583"><path d="m.26458333 294.88333h2.38124997v1.85209h-2.38124997z" fill="#fafafa"/><path d="m1.5875 293.825h2.38125v1.85208h-2.38125z" fill="#fafafa"/><path d="m1.5875 292.76667c-.1465792 0-.2645833.118-.2645833.26458v.79375h-1.05833337c-.14657916 0-.26458333.118-.26458333.26458v2.64584c0 .14658.11800417.26458.26458333.26458h2.38124997c.1465792 0 .2645834-.118.2645834-.26458v-.79375h1.0583333c.1465792 0 .2645833-.11801.2645833-.26459v-2.64583c0-.14658-.1180041-.26458-.2645833-.26458zm1.0583333 1.05833h1.3229167v1.85208h-1.0583333v-1.5875c0-.14658-.1180042-.26458-.2645834-.26458zm-2.38124997 1.05833h1.05833337v.79375c0 .14658.1180041.26459.2645833.26459h1.0583333v.79375h-2.38124997zm1.32291667 0h1.0583333v.79375h-1.0583333z" fill="#3a3a38"/></g><g fill="#bababa" transform="matrix(.26458333 0 0 .26458333 0 292.76667)"><path d="m7 9h2v1h-2z" fill="#1e8bcd"/><path d="m12 5v1h2v-1zm0 2v1h2v-1zm-10 2v1h2v-1zm10 0v1h2v-1zm-10 2v1h2v-1zm0 2v1h2v-1zm5 0v1h2v-1z" fill="#797774" transform="translate(0 -.000076)"/></g><g stroke-width=".264583"><path d="m.26458333 293.825c-.14657916 0-.26458333.118-.26458333.26458v.79375h2.9104167v-.79375c0-.14658-.1180042-.26458-.2645834-.26458z" fill="#3a3a38"/><path d="m.26458333 294.08958v.52917h1.05833337v-.52917zm1.32291667 0v.52917h1.0583333v-.52917z" fill="#797774"/><path d="m1.5875 292.76667c-.1465792 0-.2645833.118-.2645833.26458v.79375h2.9104166v-.79375c0-.14658-.1180041-.26458-.2645833-.26458z" fill="#3a3a38"/></g><path d="m1.5875 293.03125h2.38125v.52917h-2.38125z" fill="#797774" stroke-width=".229136"/></g></svg>