<svg viewBox="0 0 16 16" xmlns="http://www.w3.org/2000/svg">/&amp;amp;amp;gt;<path d="m1 5v9h5.8359375l2.5-2.5-3.0429687-3.0429688c-.3900151-.3906761-.3900151-1.0233863 0-1.4140624l.75-.75c.1837045-.1836993.4316466-.2887595.6914062-.2929688.2705891-.0040708.5312915.1016194.7226562.2929688l3.0429688 3.0429687 3.042969-3.0429687c.126472-.1257699.28426-.2154529.457031-.2597657v-1.0332031z" fill="#fafafa"/><path d="m0 1h16v4h-16z" fill="#0063b1"/><path d="m0 5v9.5c-.00038442.276301.22369855.500384.5.5h5.5332031c.044313-.172771.1339958-.330559.2597657-.457031l.5410156-.541016h-5.83593752v-9.001953zm15.001953 0v1.0332031c.341893-.087927.70482.010783.955078.2597657l.042969.0429687v-1.3359375z" fill="#3a3a38"/><path d="m5 5v4h-4v1h4v4h1v-4h1.8359375l-1-1h-.8359375v-1.234375-2.765625zm5 0v2.8359375l1 1v-3.8359375zm1.164062 4 .335938.3359375.335938-.3359375z" fill="#797774"/><path d="m1 2h14v2h-14z" fill="#83beec" stroke-width=".661438"/><path d="m15.25 7.0000002-3.75 3.7499998-3.75-3.7499998-.75.75 3.75 3.7499998-3.75 3.75.75.75 3.75-3.75 3.75 3.75.75-.75-3.75-3.75 3.75-3.7499998z" fill="#ed3d3b"/></svg>