<svg viewBox="0 0 16 16" xmlns="http://www.w3.org/2000/svg">


/&amp;amp;amp;amp;amp;gt;<path d="m0 4v10c0 .554.446 1 1 1h2v-1h-2v-10zm15 0v5h1v-5z" fill="#3a3a38"/><path d="m1 4v10h2v-7c.0000501-.503984.1680617-.8847927.4277344-1.2421875.2596726-.3573948.6769957-.7577447 1.3554687-.7578125h1.5c.4015486.0000773.7816154.1436504 1.0898438.390625l2.5195312 1.609375h3.3574219c.954566.0000954 1.749906.7954324 1.75 1.75v-4.75z" fill="#fafafa"/><path d="m8.5 6c-.0463442 0-.0883297.0136977-.1308594.0253906l1.5234375.9746094h2.6074219c.277 0 .5-.223.5-.5s-.223-.5-.5-.5z" fill="#797774"/><path d="m0 1h16v4h-16z" fill="#3a3a38"/><path d="m1 2h14v2h-14z" fill="#797774" stroke-width=".661438"/><g fill-rule="evenodd" transform="matrix(.75 0 0 .75 4 5.5)"><path d="m3.0451977.66666667c.265199.0000511.519519.1054325.707031.2929688l3.7138111 2.37369783h4.8672932c.552262.0000552.999945.4477379 1 1v8.3333337l-13.333333 1.333333v-12c.000055-.5522619.49293574-1.33327813 1.0451977-1.33333333z" fill="#ed8733"/><path d="m2.6666667 2 4 2.6666667h5.3333333v8.0000003h-10.6666667v-10.666667z" fill="#fafafa" stroke-width=".941243"/><path d="m0 14h1 12.151259l2.657335-7.0078125c.297854-.992847.298232-.9921875-.744141-.9921875h-1-1-9.0429686c-1.0211864 0-1.0208091-.0005516-1.2792969.9902344l-1.7421875 4.6757816z" fill="#ed8733"/><path d="m4.2567275 7.3368089-2.0086806 5.3298581h9.7519531l2-5.3333337z" fill="#f8db8f" stroke-width=".888889"/></g></svg>