<svg height="16" viewBox="0 0 16 16" width="16" xmlns="http://www.w3.org/2000/svg"><path d="m10.505859 2.001953c-.127809 0-.25558.04855-.353515.146485-.195868.195869-.195868.513115 0 .708984l4.140625 4.142578h-13.792969c-.277 0-.5.223-.5.5s.223.5.5.5h13.792969l-4.140625 4.142578c-.195868.195869-.195868.513116 0 .708984.09793.09794.225706.146485.353515.146485s.257539-.04855.355469-.146485l4.992188-4.998046c.04702-.04701.08408-.103236.109375-.166016.02334-.057904.037109-.12105.037109-.1875s-.01377-.129596-.03711-.1875c-.0253-.06278-.06236-.119003-.109375-.166016l-4.992188-4.998046c-.09793-.09793-.22766-.146485-.355468-.146485z" fill="#1e8bcd"/></svg>