<svg viewBox="0 0 16 16" xmlns="http://www.w3.org/2000/svg">
/&amp;amp;amp;amp;amp;amp;gt;<path d="m15 4v4 6h-9.390625l-1 1h10.390625c.554 0 1-.446 1-1v-6-4zm-15 1.90625v.9726562l.87890625-.8789062h-.37890625c-.17489052 0-.34242982-.0358913-.5-.09375zm0 3.9960938v2.4843752l1-1v-1.4843752c-.32340432.1109912-.67684444.1118142-1 0z" fill="#3a3a38"/><path d="m9.90625 4c.0578587.1575702.09375.3251095.09375.5 0 .0884233-.0118524.1750685-.0273438.2597656l1.7343748 1.734375a.99570177.99570177 0 0 1 0 1.4082032l-6.097656 6.0976562h9.390625v-10zm-6.90625 4.1210938-1.4375 1.4375c-.1615311.1615309-.356146.2729299-.5625.34375v1.4843752l2.1875-2.1875002c-.115177-.2110537-.1875-.4470645-.1875-.6992188z" fill="#fafafa"/><path d="m11.212891 6 .49414.4941406a.99570177.99570177 0 0 1 .269531.5058594h.523438c.277 0 .5-.223.5-.5s-.223-.5-.5-.5zm.396484 2-1 1h1.890625c.277 0 .5-.223.5-.5s-.223-.5-.5-.5zm-2 2-1 1h3.890625c.277 0 .5-.223.5-.5s-.223-.5-.5-.5zm-1.109375 2c-.277 0-.5.223-.5.5s.223.5.5.5h4c.277 0 .5-.223.5-.5s-.223-.5-.5-.5z" fill="#797774"/><path d="m9.9003906 1c-.0707617.2070303-.1817515.4024546-.34375.5644531l-1.4355468 1.4355469h.3789062c.8137028 0 1.5.6862972 1.5 1.5 0 .0846817-.0296732.16125-.0449219.2421875l.2578129.2578125h5.787109v-4zm-9.9003906 1.1230469v.9707031c.15757018-.0578587.32510948-.09375.5-.09375h.37695312z" fill="#3a3a38"/><path d="m9.1210938 2-1 1h.3789062c.6388123 0 1.194913.4244527 1.40625 1h5.09375v-2z" fill="#797774"/><g transform="translate(1)"><path d="m3.5 0c-.277 0-.5.223-.5.5v1.5507812a2.5 2.5 0 0 0 -.8789062.3652344l-2.26562505-2.26562498c-.19586858-.19586857-.51116267-.19586857-.70703125 0-.1958686.19586858-.1958686.51116268 0 .70703126l2.265625 2.26562502a2.5 2.5 0 0 0 -.359375.8769531h-1.5546875c-.277 0-.5.223-.5.5s.223.5.5.5h1.5507812a2.5 2.5 0 0 0 .3652344.8769531l-2.2675781 2.2675781c-.1958685.1958687-.1958685.5111627 0 .7070313.19586857.1958685.51116267.1958685.70703125 0l2.26757815-2.2675781a2.5 2.5 0 0 0 .8769531.3613281v1.5546875c0 .277.223.5.5.5s.5-.223.5-.5v-1.5507812a2.5 2.5 0 0 0 .875-.3652344l2.2675781 2.2675781c.1958686.1958686.5111627.1958686.7070313 0s.1958686-.5111626 0-.7070313l-2.265625-2.265625a2.5 2.5 0 0 0 .3613281-.8789062h1.5546875c.277 0 .5-.223.5-.5s-.223-.5-.5-.5h-1.5507812a2.5 2.5 0 0 0 -.3652344-.8769531l2.265625-2.26562502c.1958686-.19586858.1958686-.51116268 0-.70703126-.1958686-.19586857-.5111627-.19586857-.7070313 0l-2.265625 2.26562498a2.5 2.5 0 0 0 -.8769531-.3613281v-1.5546875c0-.277-.223-.5-.5-.5zm0 3a1.5 1.5 0 0 1 1.5 1.5 1.5 1.5 0 0 1 -1.5 1.5 1.5 1.5 0 0 1 -1.5-1.5 1.5 1.5 0 0 1 .4394531-1.0585938 1.5 1.5 0 0 1 .0019531-.0019531 1.5 1.5 0 0 1 1.0585938-.4394531z" fill="#fb983b"/><circle cx="3.5" cy="4.5" fill="#fafafa" r="1.5"/></g><g transform="matrix(2.7716524 2.7716524 -2.7716524 2.7716524 822.44739 -810.11404)"><path d="m.26458332 293.82498h.79374998v3.175h-.79374998z" fill="#3a3a38"/><path d="m.52916664 294.08957h.26458332v1.05833h-.26458332z" fill="#fafafa"/></g></svg>