<svg viewBox="0 0 16 16" xmlns="http://www.w3.org/2000/svg">/&amp;amp;amp;amp;gt;<path d="m.5 0a.50005.50005 0 0 0 -.5.5v3a.50005.50005 0 0 0 .16210938.3691406l5.83789062 5.3515625v6.2792969a.50005.50005 0 0 0 .5.5h3a.50005.50005 0 0 0 .5-.5v-6.2792969l5.837891-5.3515625a.50005.50005 0 0 0 .162109-.3691406v-3a.50005.50005 0 0 0 -.5-.5zm.5 1h14v2.2792969l-5.8378906 5.3515625a.50005.50005 0 0 0 -.1621094.3691406v6h-2v-6a.50005.50005 0 0 0 -.1621094-.3691406l-5.8378906-5.3515625z" fill="#3a3a38"/><path d="m1 1v2.2792969l5.8378906 5.3515625a.50005.50005 0 0 1 .1621094.3691406v6h2v-6a.50005.50005 0 0 1 .1621094-.3691406l5.8378906-5.3515625v-2.2792969z" fill="#fafafa"/></svg>