<svg viewBox="0 0 16 16" xmlns="http://www.w3.org/2000/svg">/&amp;amp;gt;<rect fill="#0063b1" height="11" ry="1" width="4" x="1" y="5"/><path d="m7 0c-.554 0-1 .446-1 1v14c0 .554.446 1 1 1h1.4902344c-.8408444-.577608-1.4902344-1.442991-1.4902344-2.5v-4c0-1.0733775.7005891-2.0277119 1.640625-2.6152344.4078489-.2549055.8721875-.4447907 1.359375-.5898437v-5.2949219c0-.554-.446-1-1-1z" fill="#3a3a38"/><path d="m2 6h2v9h-2z" fill="#83beec" stroke-width=".679366"/><path d="m7 1v8.5c0-1.0733775.7005891-2.0277119 1.640625-2.6152344.1124082-.0702551.2397439-.1236051.359375-.1855468v-5.6992188zm0 12.5v1.5h.46875c-.2902574-.438741-.46875-.944208-.46875-1.5z" fill="#797774"/><path d="m12 7a4 2.5 0 0 0 -4 2.5v4c0 1.380712 1.790861 2.5 4 2.5s4-1.119288 4-2.5v-4a4 2.5 0 0 0 -4-2.5zm0 1a2.8050847 1.5 0 0 1 2.804688 1.5 2.8050847 1.5 0 0 1 -2.804688 1.5 2.8050847 1.5 0 0 1 -2.8046875-1.5 2.8050847 1.5 0 0 1 2.8046875-1.5zm3 3.148438v2.351562c0 .828344-1.450949 1.499883-3 1.5-1.54905-.000117-3-.671656-3-1.5v-2.349609a4 2.5 0 0 0 3 .849609 4 2.5 0 0 0 3-.851562z" fill="#ed8733"/><path d="m12 8a2.8050847 1.5 0 0 0 -2.8046875 1.5 2.8050847 1.5 0 0 0 2.8046875 1.5 2.8050847 1.5 0 0 0 2.804688-1.5 2.8050847 1.5 0 0 0 -2.804688-1.5zm3 3.148438a4 2.5 0 0 1 -3 .851562 4 2.5 0 0 1 -3-.849609v2.349609c0 .828344 1.45095 1.499883 3 1.5 1.549051-.000117 3-.671656 3-1.5z" fill="#f8db8f"/></svg>