<svg viewBox="0 0 16 16" xmlns="http://www.w3.org/2000/svg">



/&amp;amp;amp;amp;gt;<g fill-rule="evenodd"><path d="m1.0019531.984375v2.1054688l5.0234375 4.7089843a.99676669.99676669 0 0 1 .9746094-.7949219h3.8125l.681641-.640625.693359-1.6464843a.99676669.99676669 0 0 1 .880859-.6074219.99676669.99676669 0 0 1 .482422.1054688l.144531.0722656 1.302735-1.2265625v-2.0761719zm5.9980469 10.011719v.007812h2v-.007812zm0 4v.003906h.1152344a.99676669.99676669 0 0 1 0-.003906z" fill="#fafafa"/><path d="m.50195312-.01953125c-.27734534-.00030031-.50225343.22460778-.50195312.50195313v2.83007812c-.00003865.1412881.05953385.2760353.1640625.3710938l5.8339844 5.4667968v6.3496094c-.0003003.276584.2234177.501176.5.501953h1.1738281l-.0117188-.005859a.99676669.99676669 0 0 1 -.5449218-.996094h-.1152344v-.003906a.99676669.99676669 0 0 1 -.9960938-.996094v-2a.99676669.99676669 0 0 1 .9960938-.996094v-.007812a.99676669.99676669 0 0 1 -.9960938-.996094v-2a.99676669.99676669 0 0 1 .0214844-.2011719l-5.0234375-4.7089843v-2.1054688h13.9960939v2.0761719l-1.302735 1.2265625.958985.4785156 1.181641-1.1132812c.104027-.0946005.163552-.2285331.164062-.3691407v-2.80078122c.0003-.27734532-.224608-.50225337-.501953-.50195313zm10.99218788 6.38281245-.681641.640625h.410156zm-2.494141 4.6328128v.007812h.2675781l.0039063-.007812z" fill="#3a3a38"/></g><path d="m13.105469 5.105468-1.222657 2.894532h-4.882812v2h3.882812l-1 2h-2.882812v2h1.882812l-.777343 1.105468 1.789062.894532 1.222657-2h4.882812v-2h-3.882812l1-2h2.882812v-2h-1.882812l.777343-2z" fill="#1e8bcd"/></svg>