<svg viewBox="0 0 16 16" xmlns="http://www.w3.org/2000/svg">

/&amp;amp;amp;amp;gt;<path d="m0 4v4 6c0 .554.446 1 1 1h14c.554 0 1-.446 1-1v-6-4h-1v4 6h-14v-6-4z" fill="#3a3a38"/><path d="m1 4v10h14v-10z" fill="#fafafa"/><path d="m4 6c-.554 0-1 .446-1 1v1c0 .554.446 1 1 1h1c.554 0 1-.446 1-1v-1c0-.554-.446-1-1-1zm4.5 0c-.277 0-.5.223-.5.5s.223.5.5.5h4c.277 0 .5-.223.5-.5s-.223-.5-.5-.5zm-4.5 1h1v1h-1zm4.5 1c-.277 0-.5.223-.5.5s.223.5.5.5h4c.277 0 .5-.223.5-.5s-.223-.5-.5-.5zm-4.5 2c-.554 0-1 .446-1 1v1c0 .554.446 1 1 1h1c.554 0 1-.446 1-1v-1c0-.554-.446-1-1-1zm4.5 0c-.277 0-.5.223-.5.5s.223.5.5.5h4c.277 0 .5-.223.5-.5s-.223-.5-.5-.5zm-4.5 1h1v1h-1zm4.5 1c-.277 0-.5.223-.5.5s.223.5.5.5h4c.277 0 .5-.223.5-.5s-.223-.5-.5-.5z" fill="#797774"/><path d="m0 1h16v4h-16z" fill="#3a3a38"/><path d="m1 2h14v2h-14z" fill="#797774" stroke-width=".661438"/></svg>