<svg viewBox="0 0 16 16" xmlns="http://www.w3.org/2000/svg">
/&amp;amp;gt;<g fill="#1e8bcd"><path d="m8 1c-2.076515.0001288-4.144472.7374466-5.6308594 2.0253906-1.4863873 1.287944-2.36896295 3.1214941-2.3691406 4.9746094.00017778 1.8531152.88275332 3.686665 2.3691406 4.974609 1.4863874 1.287944 3.5543445 2.025262 5.6308594 2.025391 2.076515-.000129 4.144472-.737447 5.630859-2.025391 1.486388-1.287944 2.368963-3.1214939 2.369141-4.974609-.000178-1.8531152-.882753-3.6866654-2.369141-4.9746094-1.486387-1.2879439-3.554344-2.0252617-5.630859-2.0253906zm0 1c1.8497967.0001148 3.68395.6629029 4.974609 1.78125 1.29066 1.1183471 2.025242 2.6675927 2.025391 4.21875-.000149 1.5511572-.734731 3.100403-2.025391 4.21875-1.290659 1.118347-3.1248123 1.781135-4.974609 1.78125-1.8497967-.000115-3.68395-.662903-4.9746094-1.78125-1.2906593-1.118347-2.0252418-2.6675927-2.0253906-4.21875.0001487-1.5511574.7347313-3.1004029 2.0253906-4.21875 1.2906594-1.1183471 3.1248126-1.7811353 4.9746094-1.78125z"/><path d="m10.496157 4.989674c-.12976.00361-.253031.057543-.34375.1503906l-5.0000002 4.9999994c-.4908001.471255.235776 1.197832.7070312.707032l5-5.0000002c.325269-.3180037.09144-.8698927-.363281-.8574218z"/></g></svg>