<svg viewBox="0 0 16 16" xmlns="http://www.w3.org/2000/svg">/&amp;amp;amp;gt;<path d="m3 3h6v6h-6z" fill="#fafafa"/><path d="m13 0v3h3v-3zm1 1h1v1h-1z" fill="#0063b1"/><path d="m14 1h1v1h-1z" fill="#fafafa"/><path d="m7 6c-.554 0-1 .446-1 1v6c0 .554.446 1 1 1h.1230469c-.0241376-.071724-.0645895-.139172-.078125-.212891a.99841207.99841207 0 0 1 -.0429688-.265625c-.0001649-.00783.0078533-.014096.0097657-.021484-.0019124-.007388-.0099306-.013654-.0097657-.021484a.99841207.99841207 0 0 1 .0429688-.265625c.0135355-.073719.0539874-.141167.078125-.212891h-.1230469v-6h6v4.990234h1v-4.990234c0-.554-.446-1-1-1z" fill="#3a3a38"/><path d="m0 13v3h3v-3zm1 1h1v1h-1z" fill="#0063b1"/><path d="m7 7v6h.1230469c.087403-.259716.2230615-.506388.453125-.6875l-.0722657.060547 1.9199219-1.919922c.2711349-.277501.6413889-.439929 1.0292969-.451172h.001953.001953c.158432-.0043308.313322.018182.458985.0625h.001953c.145632.0445.28218.110549.40625.193359h.001953c.124061.082972.234448.183966.328125.294922.09441.111614.171824.233793.226562.363282.138597.327869.097955.711397-.029297 1.074218h1.148438v-4.990234z" fill="#fafafa"/><path d="m1 14h1v1h-1z" fill="#fafafa"/><path d="m3 2c-.554 0-1 .446-1 1v6c0 .554.446 1 1 1h6c.554 0 1-.446 1-1v-6c0-.554-.446-1-1-1zm0 1h6v6h-6z" fill="#3a3a38"/><path d="m0 0v3h3v-3zm1 1h1v1h-1z" fill="#0063b1"/><g fill="#fafafa"><path d="m1 1h1v1h-1z"/><path d="m1 1h1v1h-1z"/></g><path d="m10.484375 11c-.12976.0036-.253031.05754-.34375.150391l-1.9433594 1.941406c-.1339896.102438-.1985281.25604-.1953125.408203h-.0019531c-.00322.152164.061323.305765.1953125.408203l1.9433595 1.941406c.09072.09285.21399.146791.34375.150391.457091.01443.692129-.541569.363281-.859375l-1.1308592-1.128906h5.7792972c.343417.0049.509306-.255404.503906-.511719h.001953c.0054-.256314-.160489-.516576-.503906-.511719h-5.7792971l1.1308591-1.128906c.328848-.317806.093811-.873807-.363281-.859375z" fill="#1e8bcd" fill-rule="evenodd"/></svg>