<svg viewBox="0 0 16 16" xmlns="http://www.w3.org/2000/svg">/&amp;amp;amp;amp;amp;gt;<path d="m1 1v2 1 1.9355469c0-.5178897.446-.9355469 1-.9355469h3 1 1c.554 0 1 .4176572 1 .9355469v.0644531 1 1h1c.554 0 1 .4176569 1 .9355469v.4941406c.664101-.6566268.990389-.9781917 1.580078-1.5625a1.0023027 1.0023027 0 0 1 .128906-.1601563l1.25586-1.2539062c.095152-.0950525.084092-.0675245.138672-.1015625a1.0023027 1.0023027 0 0 1 .017578-.0136719 1.0023027 1.0023027 0 0 1 .134765-.0996094l.001953-.0019531a1.0023027 1.0023027 0 0 1 .00586-.0039062c.188341-.1139319.458237-.234375.802734-.234375.325358 0 .657139.1133136.933594.3203125v-.3183594-2-1-2h-4-1-4-1zm14 10.496094-.501953.503906h.501953z" fill="#fafafa"/><path d="m0 0v8h1v-7h14v5.3183594c.05724.042856.1165.083365.167969.1347656l.832031.8300781v-7.2832031zm16 10.552734-.753906.722657c-.04059.03876-.08436.07404-.13086.105468l-.115234.115235v.503906h-.501953l-.994141 1h2.496094z" fill="#3a3a38"/><path d="m6 7v1h-3v-1zm0 5v1h-3v-1z" fill="#fafafa"/><path d="m2 6v2 1h5v-1-2zm1 1h3v1h-3zm-2 2c-.554 0-1 .446-1 1v2c0 .554.446 1 1 1h1v1h4.4609375l.28125-1.138672c.043546-.177353.1347191-.339438.2636719-.46875.0273633-.027346.3018801-.298875.3964844-.392578h-1.4023438v1h-3v-1h-2c0-1 0-2 0-3zm7 0v2.408203c.3904127-.386097.6330196-.625513 1-.988281v-.419922c0-.554-.446-1-1-1z" fill="#3a3a38"/><path d="m7 9h-5v1h5z" fill="#1e8bcd"/><path d="m5 1v2h-4v1h4v1h1v-1h4v2h-2v1h2v1.9355469.4941406c.420172-.4154426.590967-.5834434 1-.9882813v-1.4414062h1.417969l.546875-.546875c.095152-.0950525.084092-.0675245.138672-.1015625a1.0023027 1.0023027 0 0 1 .017578-.0136719 1.0023027 1.0023027 0 0 1 .134765-.0996094l.001953-.0019531a1.0023027 1.0023027 0 0 1 .00586-.0039062c.185935-.1124763.452803-.2294041.791016-.2324219h-3.054688v-2h4v-1h-4v-2h-1v2h-4v-2zm9.085938 5c.319259.0041759.643132.1154974.914062.3183594v-.3183594z" fill="#797774" fill-opacity=".959559"/><path d="m1 1v2 1 1 .9355469c0-.5178897.446-.9355469 1-.9355469h3 1 1c.554 0 1 .4176572 1 .9355469v.0644531h2v-1-1-1-2h-1.5-2.5-1z" fill="#5a81a9" opacity=".5"/><path d="m5 1v2h-4v1h4v1h1v-1h4v1 1h-2v1h2 1v-2.5-3.5h-1v2h-4v-2z" fill="#1e8bcd"/><path d="m0 0v7h1v-6h10v-1h-10z" fill="#0063b1" fill-opacity=".959559"/><g fill="#fb983b"><path d="m13.804688 7.0683594c.171006-.1739438-.174941.1601863-1.386719 1.3476562l.01563.015625c.619714-.6142617 1.234361-1.2242057 1.371089-1.3632812zm-1.371094 1.3632812c-1.705556 1.6905364-4.4180608 4.3694234-4.7187502 4.6699214l-.7148438 2.898438 2.8554688-.757812 4.6835932-4.703126zm-.002 1.0078125 1.099609 1.0996089-4.0449219 4.0625-1.5039062.400391.3789062-1.535156c.3659391-.364052 2.4317849-2.404918 4.0703599-4.0273439z" fill="#0063b1"/><path d="m14.066406 7c-.142171 0-.283638.053302-.392578.1621094l-1.255859 1.2539062 2.134765 2.1367184 1.283204-1.2304684c.21788-.2175952.21788-.5675602 0-.7851562l-1.376954-1.375c-.108941-.108798-.250406-.1621094-.392578-.1621094zm0 .9941406.933594.9316406-.433594.4160157-.923828-.9257813z" fill="#0063b1"/><g fill="#83beec"><path d="m14.066406 7.9941406-.423828.421875.923828.9257813.433594-.4160157z"/><path d="m12.431641 9.4394531c-1.638575 1.6224259-3.7044208 3.6632919-4.0703129 4.0273439l-.3789062 1.535156 1.5039062-.400391 4.0449219-4.0625z"/></g></g><path d="m1 11v1h6.4023438c.0889016-.08818.4483602-.444083.5976562-.591797v-.408203z" fill="#797774" fill-opacity=".982993"/></svg>