<svg viewBox="0 0 16 16" xmlns="http://www.w3.org/2000/svg">/&amp;amp;gt;<path d="m.4765625.00195331a.49301741.49301741 0 0 0 -.4765625.49218749v14.1289062a.49301741.49301741 0 0 0 .8417969.347656l3.046875-3.072265 1.5957031 3.164062-.021484-.04883c.1814156.479706.6034421.779899 1.0371093.902344.4336672.122444.8983349.103244 1.3300781-.02734.4317425-.130588.8431775-.376292 1.1113275-.773438.268151-.397145.344095-.954862.138672-1.498046a.49301741.49301741 0 0 0 -.01563-.03906l-1.8652291-3.8984423h4.3046872a.49301741.49301741 0 0 0 .304688-.8789063l-11.011719-8.69335934a.49301741.49301741 0 0 0 -.3203125-.10546875zm.5214844 1.53515629 9.0507811 7.1445312h-3.6328123a.50590996.50590996 0 0 0 -.4570313.7246094l2.1875005 4.5703118c.106328.286185.06709.431543-.0332.580079-.1013.150031-.3125834.296454-.5722652.375-.2596821.07854-.5570058.08344-.7695313.02344-.2125255-.06001-.3202433-.150132-.375-.294922a.50590996.50590996 0 0 0 -.021484-.04883l-1.9023481-3.773438a.50590996.50590996 0 0 0 -.8105469-.126953l-2.6640625 2.685546z" fill="#3a3a38" fill-rule="evenodd"/><path d="m.9980469 1.5371096v11.8593744l2.6640625-2.685546a.50590996.50590996 0 0 1 .8105469.126953l1.9023437 3.773437a.50590996.50590996 0 0 1 .021484.04883c.054757.14479.1624745.234916.375.294922.2125255.06001.5098493.05511.7695313-.02344.2596819-.07855.4709656-.224969.5722656-.375.100291-.148536.139533-.293894.0332-.580079l-2.1874965-4.5703108a.50590996.50590996 0 0 1 .4570313-.7246094h3.6328123z" fill="#fafafa" fill-rule="evenodd"/><path d="m13.5 7c-1.38125 0-2.5 1.0743907-2.5 2.4003906v.5996094h1v-.5996094c0-.6599999.812504-1.4066504 1.5-1.4042968.990199.0033897 1.49904.5352625 1.486328 1.3691406-.005.3299617-.374219.6648596-.605469.8808596l-.77539.755859c-.45.438-.623578.996364-.611328 1.65625l.005859 1.341797h1c0-1.192826-.000732-1.999219.855469-2.697266l.5625-.552734c.35625-.342.582031-.8216094.582031-1.3496094 0-1.3259999-1.11875-2.4003906-2.5-2.4003906zm-.5 8v1h1v-1z" fill="#fb983b"/></svg>