<svg viewBox="0 0 16 16" xmlns="http://www.w3.org/2000/svg">
/&amp;amp;gt;<path d="m8 1c-2.076515.0001288-4.144472.7374466-5.6308594 2.0253906-1.4863873 1.287944-2.36896295 3.1214941-2.3691406 4.9746094.00017778 1.8531152.88275332 3.686665 2.3691406 4.974609 1.4863874 1.287944 3.5543445 2.025262 5.6308594 2.025391 2.076515-.000129 4.144472-.737447 5.630859-2.025391 1.486388-1.287944 2.368963-3.1214939 2.369141-4.974609a.5098166.5098166 0 0 0 0-.0078125c-.002824-.1706477-.012254-.3417452-.029297-.5117187a.5098166.5098166 0 0 0 -.171875-.3320313l-6.8535155-5.9980469a.5098166.5098166 0 0 0 -.2988281-.125c-.2146274-.0158618-.4291585-.0247129-.6445313-.0253906a.5098166.5098166 0 0 0 -.0019531 0zm-.0019531 1h.0019531c.1385291.000469.27777.0081025.4160156.015625l6.5703124 5.75c.005034.078814.012276.1574133.013672.2363281v.0058594c-.002591 1.5485657-.736882 3.0944545-2.025391 4.2109375-1.290659 1.118347-3.1248123 1.781135-4.974609 1.78125-1.8497967-.000115-3.68395-.662903-4.9746094-1.78125-1.2906593-1.118347-2.0252418-2.6675927-2.0253906-4.21875.0001487-1.5511574.7347313-3.1004029 2.0253906-4.21875 1.2902059-1.1179541 3.1235198-1.7806697 4.9726563-1.78125z" fill="#3a3a38"/><path d="m7.9980469 2c-1.8491365.0005803-3.6824504.6632959-4.9726563 1.78125-1.2906593 1.1183471-2.0252419 2.6675926-2.0253906 4.21875.0001488 1.5511573.7347313 3.100403 2.0253906 4.21875 1.2906594 1.118347 3.1248127 1.781135 4.9746094 1.78125 1.8497967-.000115 3.68395-.662903 4.974609-1.78125 1.288509-1.116483 2.0228-2.6623718 2.025391-4.2109375v-.00586c-.0014-.078915-.0086-.1575141-.01367-.2363281l-6.5703124-5.75c-.1382476-.0075219-.2774885-.0151554-.4160176-.0156244z" fill="#fafafa"/></svg>