<svg viewBox="0 0 16 16" xmlns="http://www.w3.org/2000/svg"><path d="m1 1v10h2.5c.2761309.000028.4999724.223869.5.5v2.886719l3.6679688-3.259766c.0913925-.081553.2095407-.12673.3320312-.126953h.4140625c.9691218-.958286 1.9840745-1.9616559 3.1660155-3.1328125a1.0023027 1.0023027 0 0 1 .128906-.1601563l1.25586-1.2539062c.095152-.0950525.084092-.0675245.138672-.1015625a1.0023027 1.0023027 0 0 1 .017578-.0136719 1.0023027 1.0023027 0 0 1 .134765-.0996094l.001953-.0019531a1.0023027 1.0023027 0 0 1 .00586-.0039062c.188341-.1139319.458237-.234375.802734-.234375.325358 0 .657139.1133136.933594.3203125v-5.3183594z" fill="#fafafa"/><path d="m.5 0c-.27614237 0-.5.2238576-.5.5.00000895.02947.0026233.05888063.0078125.08789062h-.0078125v10.91210938c.00002761.276131.22386906.499972.5.5h2.5v3.5c.0007774.430893.5097988.659116.8320312.373047l2.7753907-2.466797.1347656-.544922c.043546-.177353.1347191-.339438.2636719-.46875.0971267-.097064.9772812-.966474 1.4082031-1.392578h-.4140625c-.1224905.000223-.2406387.0454-.3320312.126953l-3.6679688 3.259766v-2.886719c-.0000276-.276131-.2238691-.499972-.5-.5h-2.5v-10h14v5.3183594c.05724.042856.1165.083365.167969.1347656l.832031.8300781v-6.7832031c-.000028-.2761309-.223869-.4999724-.5-.5z" fill="#3a3a38"/><g fill="#fb983b"><path d="m13.804688 7.0683594c.171006-.1739438-.174941.1601863-1.386719 1.3476562l.01563.015625c.619714-.6142617 1.234361-1.2242057 1.371089-1.3632812zm-1.371094 1.3632812c-1.705556 1.6905364-4.4180608 4.3694234-4.7187502 4.6699214l-.7148438 2.898438 2.8554688-.757812 4.6835932-4.703126zm-.002 1.0078125 1.099609 1.0996089-4.0449219 4.0625-1.5039062.400391.3789062-1.535156c.3659391-.364052 2.4317849-2.404918 4.0703599-4.0273439z" fill="#0063b1"/><path d="m14.066406 7c-.142171 0-.283638.053302-.392578.1621094l-1.255859 1.2539062 2.134765 2.1367184 1.283204-1.2304684c.21788-.2175952.21788-.5675602 0-.7851562l-1.376954-1.375c-.108941-.108798-.250406-.1621094-.392578-.1621094zm0 .9941406.933594.9316406-.433594.4160157-.923828-.9257813z" fill="#0063b1"/><g fill="#83beec"><path d="m14.066406 7.9941406-.423828.421875.923828.9257813.433594-.4160157z"/><path d="m12.431641 9.4394531c-1.638575 1.6224259-3.7044208 3.6632919-4.0703129 4.0273439l-.3789062 1.535156 1.5039062-.400391 4.0449219-4.0625z"/></g></g></svg>