<svg viewBox="0 0 16 16" xmlns="http://www.w3.org/2000/svg"><path d="m1.0019531.984375v2.1054688l6.0117188 5.4667968a.50141049.50141049 0 0 1 .1640625.3691406v2.6289068l.15625-.46875c.1726458-1.6759686 1.3433017-3.0587475 2.9003906-3.5625005-.059445.0194024-.121273.0327707-.179687.0546875l4.943359-4.5175781v-2.0761719zm6.3320313 10.101563c-.0074024.071858-.027577.140062-.03125.21289l.0488281-.265625zm3.7304686-3.7480474c-.215773.023421-.424398.0674482-.628906.1230469.204809-.0549398.413278-.0996817.628906-.1230469zm-.007812.0058594-.023438.0078125.019531-.0039063zm-2.2343754 5.605469-.6132812 1.841797.6132812-.205078z" fill="#fafafa"/><path d="m.50195312-.01953125a.50141049.50141049 0 0 0 -.50195312.50195313v2.83007812a.50141049.50141049 0 0 0 .1640625.3710938l6.0117187 5.4648437v5.4140625l1.0019532-3.007812v-2.6289068a.50141049.50141049 0 0 0 -.1640625-.3691406l-6.0117188-5.4667968v-2.1054688h13.9960939v2.0761719l-4.943359 4.5175781c.327797-.1229886.671919-.2071246 1.03125-.2441406l1.136718-.3789063 3.613282-3.3027343a.50141049.50141049 0 0 0 .164062-.3691407v-2.80078122a.50141049.50141049 0 0 0 -.501953-.50195313zm9.32226568 10.13867225c-.301639.359994-.5014104.803812-.5253907 1.279297a1.0001 1.0001 0 0 1 -.0488281.265624l-.4277344 1.285157v1.636719l1.0019532-.332032z" fill="#3a3a38" fill-rule="evenodd"/><path d="m15.351562 7c-.06696.0008118-.13378.011882-.197265.033203l-3.804688 1.2675782c-1.6178249.0815942-2.9672354 1.4310013-3.0488278 3.0488278l-1.2675781 3.804688c-.1656211.501513.3109864.978121.8125.8125l3.8046879-1.267578c1.617825-.08159 2.967235-1.431 3.048828-3.048828l1.267578-3.8046879c.138859-.4182031-.174594-.8491744-.615235-.8457031zm-3.851562 3a1.5 1.5 0 0 1 1.5 1.5 1.5 1.5 0 0 1 -1.5 1.5 1.5 1.5 0 0 1 -1.5-1.5 1.5 1.5 0 0 1 1.5-1.5z" fill="#0063b1"/><path d="m15 8-3.375 1.125a.86854756.86854756 0 0 1 -.232422.042969c-1.161009.058555-2.1660556 1.0636-2.2246092 2.224609a.86854756.86854756 0 0 1 -.042969.232422l-1.125 3.375 3.3750002-1.125a.86854756.86854756 0 0 1 .232422-.04297c1.161007-.05855 2.166055-1.063597 2.224609-2.224609a.86854756.86854756 0 0 1 .042969-.232421zm-3.5 2.869141c-.465046 0 .579157.102444.123047.01172-.456111-.09073.548787.213122.119141.03516-.429647-.177966.496046.316959.109374.05859-.386671-.258365.424541.406963.0957.07813-.328838-.328837.33649.482375.07813.0957-.258366-.386672.236559.539021.05859.109374-.177965-.429646.125883.575252.03516.119141-.09073-.45611.01172.588093.01172.123047s-.102444.579157-.01172.123047c.09073-.456111-.213122.548787-.03516.119141.177966-.429647-.316959.496046-.05859.109374.258365-.386671-.406963.424541-.07813.0957.328837-.328838-.482375.33649-.0957.07813.386672-.258366-.539021.236559-.109374.05859.429646-.177965-.575252.125883-.119141.03516.45611-.09073-.588093.01172-.123047.01172s-.579157-.102444-.123047-.01172c.456111.09073-.548787-.213122-.119141-.03516.429647.177966-.496046-.316959-.109374-.05859.386671.258365-.424541-.406963-.0957-.07813.328838.328837-.33649-.482375-.07813-.0957.258366.386672-.236559-.539021-.05859-.109374.177965.429646-.125883-.575252-.03516-.119141.09073.45611-.01172-.588093-.01172-.123047s.102444-.579157.01172-.123047c-.09073.456111.213122-.548787.03516-.119141-.177966.429647.316959-.496046.05859-.109374-.258365.386671.406963-.424541.07813-.0957-.328837.328838.482375-.33649.0957-.07813-.386672.258366.539021-.236559.109374-.05859-.429646.177965.575252-.125883.119141-.03516-.45611.09073.588093-.01172.123047-.01172z" fill="#83beec"/><g fill-opacity=".982993"><path d="m14.5 11.5a3 3 0 0 1 -3 3 3 3 0 0 1 -3-3 3 3 0 0 1 3-3 3 3 0 0 1 3 3z" fill="#0063b1"/><path d="m13.5 11.5a2 2 0 0 1 -2 2 2 2 0 0 1 -2-2 2 2 0 0 1 2-2 2 2 0 0 1 2 2z" fill="#83beec"/></g></svg>