<svg viewBox="0 0 16 16" xmlns="http://www.w3.org/2000/svg">/&amp;gt;<path d="m4.875 0a.50005.50005 0 0 0 -.3535156.14648438l-4.37500002 4.37500002a.50005.50005 0 0 0 -.14648438.3535156v6.25a.50005.50005 0 0 0 .14648438.353516l4.37500002 4.375a.50005.50005 0 0 0 .3535156.146484h6.25a.50005.50005 0 0 0 .353516-.146484l4.375-4.375a.50005.50005 0 0 0 .146484-.353516v-6.25a.50005.50005 0 0 0 -.146484-.3535156l-4.375-4.37500002a.50005.50005 0 0 0 -.353516-.14648438zm.2070312 1h5.8359378l4.082031 4.0820312v5.8359378l-4.082031 4.082031h-5.8359378l-4.0820312-4.082031v-5.8359378z" fill="#3a3a38"/><path d="m5.0820312 1-4.0820312 4.0820312v5.8359378l4.0820312 4.082031h5.8359378l4.082031-4.082031v-5.8359378l-4.082031-4.0820312z" fill="#fafafa"/></svg>