<svg viewBox="0 0 16 16" xmlns="http://www.w3.org/2000/svg">/&amp;gt;<path d="m3.03125 7.9824219c0-4.3962354 3.7978321-7.96875 8.46875-7.96875.274829.00052467.497484.21008261.498047.46875v3.5c-.000533.256535-.194259.4964677-.466797.5-1.932997 0-3.5 1.5670034-3.5 3.5s1.567003 3.5000001 3.5 3.5000001c.274065.0015.46624.242047.466797.5v3.5c-.000563.258667-.223218.468225-.498047.46875-4.6709168 0-8.46875-3.572502-8.46875-7.9687501zm1 0c0 3.7266091 3.0765715 6.7364911 6.96875 6.9824221v-2.519531c-2.261711-.268886-3.96589-2.185254-3.96875-4.4628911.00286-2.277637 1.707039-4.1940046 3.96875-4.4628906v-2.5195313c-3.8921785.245931-6.96875 3.2558129-6.96875 6.9824219z" fill="#3a3a38"/><path d="m4.03125 7.9824219c0-3.726609 3.0765715-6.7364909 6.96875-6.9824219v2.5195313c-2.261711.268886-3.96589 2.1852536-3.96875 4.4628906.00286 2.2776371 1.707039 4.1940051 3.96875 4.4628911v2.519531c-3.8921785-.245931-6.96875-3.255813-6.96875-6.9824221z" fill="#fafafa"/></svg>