<svg viewBox="0 0 16 16" xmlns="http://www.w3.org/2000/svg">/&amp;gt;<g fill="#fafafa" transform="matrix(0 1 -1 0 15.999994 .000006)"><path d="m8.0175781 0a.50005602.50005602 0 0 0 -.2285156.046875l-7.5 3.5a.50005602.50005602 0 0 0 -.2890625.453125v8a.50005602.50005602 0 0 0 .2890625.453125l7.5 3.5a.50005602.50005602 0 0 0 .421875 0l7.5000005-3.5a.50005602.50005602 0 0 0 .289062-.453125v-8a.50005602.50005602 0 0 0 -.289062-.453125l-7.5000005-3.5a.50005602.50005602 0 0 0 -.1933594-.046875zm-.0175781 1.0527344 7 3.265625v7.3632816l-7 3.265625-7-3.265625v-7.3632816z" fill="#3a3a38" transform="matrix(0 -1 1 0 -.000006 15.999994)"/><path d="m4.3183594 1-3.265625 7 3.265625 7h7.3632816l3.265625-7-3.265625-7z" fill="#fafafa"/></g></svg>