<svg viewBox="0 0 16 16" xmlns="http://www.w3.org/2000/svg">

/&amp;gt;<path d="m1 2h14v12h-14z" fill="#fafafa"/><path d="m1 1c-.554 0-1 .446-1 1v12c0 .554.446 1 1 1h14c.554 0 1-.446 1-1v-12c0-.554-.446-1-1-1zm0 1h14v12h-14z" fill="#3a3a38"/><g fill-rule="evenodd"><path d="m13.441406 3.0019531-3.9765622.3613281c-.1197673.0111342-.2318523.064862-.3164063.1503907-.198306.199846-.1971168.5216327.0019531.7207031l1.1718754 1.3417969-5.3007816 4.0957031-1.3300782-1.5214844c-.306381-.307221-.8319617-.117618-.8710937.3144532l-.8183594 3.9765622c-.0296.318667.2378916.586231.5566407.556641l3.9765624-.361328c.1197673-.011134.2318523-.064862.3164063-.150391.198306-.199846.1971168-.521633-.0019531-.720703l-1.171875-1.341797 5.3007816-4.095703 1.330078 1.5214844c.306381.307221.831961.1176181.871094-.3144532l.818359-3.9765624c.0296-.3186669-.237892-.5862307-.556641-.5566407zm-.498047.9941407-.523437 2.5449218-2.021484-2.3125zm-9.3632809 5.4628906 2.0214844 2.3124996-2.5449219.232422z" fill="#0063b1"/><path d="m12.943359 3.9960938-2.544921.2324218 2.021484 2.3125zm-9.3632809 5.4628906-.5234375 2.5449216 2.5449219-.232422z" fill="#83beec"/></g></svg>