<svg viewBox="0 0 16 16" xmlns="http://www.w3.org/2000/svg">/&amp;gt;<g transform="matrix(0 -1 -1 0 17 16)"><path d="m8 4c-4.4013044 0-7.33846984 3.304797-7.99414062 7.25-.04078309.250202.10664454.492878.34765624.572266l3.45507818 1.15039c.3316999.110922.6871384-.123275.6914062-.472656 0-1.932997 1.5670034-3.5 3.5-3.5s3.5 1.567003 3.5 3.5c.0043.349381.359706.583578.691406.472656l3.455078-1.15039c.241012-.079388.388437-.322064.347657-.572266-.655671-3.945203-3.592837-7.25-7.994141-7.25zm0 1c3.762895 0 6.184795 2.6448722 6.894531 6.029297l-2.460937.818359c-.318577-2.1732052-2.171946-3.847656-4.433594-3.847656-2.2616484 0-4.1150168 1.6744508-4.4335938 3.847656l-2.4609374-.818359c.7097355-3.3844248 3.1316361-6.029297 6.8945312-6.029297z" fill="#3a3a38"/><path d="m8 5c-3.7628951 0-6.1847956 2.6448722-6.8945312 6.029297l2.4609374.818359c.3185769-2.1732052 2.1719454-3.847656 4.4335938-3.847656 2.261648 0 4.115017 1.6744508 4.433594 3.847656l2.460937-.818359c-.709736-3.3844248-3.131636-6.029297-6.894531-6.029297z" fill="#fafafa"/></g></svg>