<svg viewBox="0 0 16 16" xmlns="http://www.w3.org/2000/svg">/&amp;amp;gt;<path d="m4.4277344 1.2617188c-1.530526-.097642-2.9245178 1.012076-4.30859378 2.6679687a.49571279.49571279 0 0 0 -.11523437.3183594v7.5000001a.49571279.49571279 0 0 0 .83203125.365234c1.111363-1.023103 2.193391-1.636025 3.25-1.671875 1.056608-.03585 2.1845851.469144 3.4824219 1.951172a.49571279.49571279 0 0 0 .00977.0098c1.3073054 1.411247 2.7045806 2.341797 4.1718746 2.341797 1.463229 0 2.819395-1.108714 4.130859-2.677735a.49571279.49571279 0 0 0 .115235-.318359v-7.5000341a.49571279.49571279 0 0 0 -.832036-.3652344c-1.111752 1.0234607-2.19533 1.6389524-3.251953 1.6777344-1.056622.0387819-2.18287-.4616033-3.4804684-1.9433594a.49571279.49571279 0 0 0 -.00977-.00977c-1.2370268-1.3353791-2.5429362-2.2531177-3.9941362-2.3456987zm-.0625.9941406c1.062323.067772 2.1743755.7839718 3.3261718 2.0273437 1.4143011 1.6107449 2.8516088 2.3250504 4.2578128 2.2734375 1.091789-.040073 2.088827-.5965455 3.048828-1.3242187v6.3046871c-1.192598 1.388765-2.359096 2.208985-3.248047 2.208985-1.02719 0-2.2240956-.709625-3.4316406-2.009766l-.00977-.0098c-1.4140528-1.610452-2.849636-2.3289278-4.255855-2.2812155-1.092209.0370581-2.0900133.5930405-3.0507813 1.3203125v-6.3066406c1.259502-1.4694964 2.4121113-2.2638061 3.3632813-2.203125z" fill="#3a3a38"/><path d="m4.365234 2.2558594c1.062323.067772 2.1743758.7839718 3.3261722 2.0273437 1.4143011 1.6107449 2.8516088 2.3250504 4.2578128 2.2734375 1.091789-.040073 2.088827-.5965455 3.048828-1.3242187v6.3046871c-1.192598 1.388765-2.359096 2.208985-3.248047 2.208985-1.02719 0-2.2240956-.709625-3.4316406-2.009766l-.00977-.0098c-1.4140571-1.610487-2.8496404-2.3289618-4.2558594-2.2812495-1.092209.037058-2.090013.5930405-3.050781 1.3203125v-6.3066066c1.259506-1.4694964 2.412115-2.2638061 3.363285-2.203125z" fill="#fafafa"/></svg>