<svg viewBox="0 0 16 16" xmlns="http://www.w3.org/2000/svg"><path d="m5 .9765625a1.0240893 1.0240893 0 0 0 -1.0234375 1.0234375v.9765625h-.9765625a1.0240893 1.0240893 0 0 0 -1.0234375 1.0234375v.9765625h-.9765625a1.0240893 1.0240893 0 0 0 -1.0234375 1.0234375v8a1.0240893 1.0240893 0 0 0 .19335938.599609c.39346384.543353.92604382 1.051861 1.63867192 1.330079.7109269.277549 1.551799.295438 2.4472656.060546 1.2298536-.309503 2.2766999-.989872 3.2460937-1.535156.9717513-.54661 1.8393759-.931642 2.4980469-.93164a1.0240893 1.0240893 0 0 0 1.023438-1.023438v-.763672c.357723-.127746.689526-.212893.976562-.21289a1.0240893 1.0240893 0 0 0 1.023438-1.023438v-.7636719c.357723-.1277462.689526-.212891.976562-.2128906a1.0240893 1.0240893 0 0 0 1.023438-1.0234375v-6.5a1.0240893 1.0240893 0 0 0 -1.023438-1.0234375zm0 1.0234375h9v6.5c-.325474 0-.651089.0654008-.976562.15625v-4.65625a1.0240893 1.0240893 0 0 0 -1.023438-1.0234375h-7zm-2 2h9v6.5c-.325474 0-.651089.065401-.976562.15625v-4.65625a1.0240893 1.0240893 0 0 0 -1.023438-1.0234375h-7zm-2 2h9v6.5c-2 0-4 2-6 2.5-1.485915.391683-2.3646401-.122601-3-1z" fill="#3a3a38"/><path d="m5 2v.9765625h7c.56508.0003593 1.023078.4583574 1.023438 1.0234375v4.65625c.325472-.0908492.651088-.15625.976562-.15625v-6.5zm-2 2v.9765625h7c.56508.0003593 1.023078.4583574 1.023438 1.0234375v4.65625c.325472-.090849.651088-.15625.976562-.15625v-6.5zm-2 2v8c.6353599.877399 1.514085 1.391683 3 1 2-.5 4-2.5 6-2.5v-6.5z" fill="#fafafa"/></svg>