<svg viewBox="0 0 16 16" xmlns="http://www.w3.org/2000/svg">/&amp;amp;gt;<path d="m8 0c-4.3962354 0-7.96875 3.7978321-7.96875 8.46875.00052467.2748285.21008261.4974838.46875.4980469h3.5c.256535-.0005332.4964677-.1942593.5-.4667969 0-1.9329966 1.5670034-3.5 3.5-3.5s3.5 1.5670034 3.5 3.5c.0015.2740654.242047.4662396.5.4667969h3.5c.258667-.0005631.468225-.2232184.46875-.4980469 0-4.6709168-3.572502-8.46875-7.96875-8.46875zm0 1c3.726609 0 6.736491 3.0765715 6.982422 6.96875h-2.519531c-.268886-2.261711-2.185254-3.96589-4.462891-3.96875-2.277637.00286-4.1940046 1.707039-4.4628906 3.96875h-2.5195313c.245931-3.8921785 3.2558129-6.96875 6.9824219-6.96875zm-4.5 9c-.2761309.000028-.4999724.223869-.5.5v4c.0000276.276131.2238691.499972.5.5h9c.276131-.000028.499972-.223869.5-.5v-4c-.000028-.276131-.223869-.499972-.5-.5zm.5 1h8v3h-8z" fill="#3a3a38"/><path d="m8 1c-3.726609 0-6.7364909 3.0765715-6.9824219 6.96875h2.5195313c.268886-2.261711 2.1852536-3.96589 4.4628906-3.96875 2.277637.00286 4.194005 1.707039 4.462891 3.96875h2.519531c-.245931-3.8921785-3.255813-6.96875-6.982422-6.96875zm-4 10v3h8v-3z" fill="#fafafa"/></svg>