<svg height="16" viewBox="0 0 4.2333332 4.2333335" width="16" xmlns="http://www.w3.org/2000/svg"><g transform="translate(0 -292.76665)"><path d="m4.1036226 293.29478a.13193194.13193194 0 0 1 .1328084.13281v2.11718a.13193194.13193194 0 0 1 -.099735.12713l-3.97081712 1.05471a.13193194.13193194 0 0 1 -.16588181-.12712l.00206719-2.3766a.13193194.13193194 0 0 1 .10748698-.12919l3.96874986-.79478a.13193194.13193194 0 0 1 .025321-.004zm-.1307414.29301-3.70726707.74207-.002067 2.09962 3.70933427-.98599z" fill="#3a3a38"/><path d="m3.9727591 293.58789v1.85547l-3.7089843.98633.00195-2.09961z" fill="#fafafa"/></g></svg>