<svg viewBox="0 0 16 16" xmlns="http://www.w3.org/2000/svg">/&amp;gt;<g fill="#fafafa" transform="matrix(.70710678 .70710678 -.70710678 .70710678 8 -3.313708)"><path d="m8.0019531.00195313c-1.5563636.00026035-3.1109859.46723308-4.4101562 1.32421877a.50939527.50939527 0 0 0 -.0800781.7851562l4.1269531 4.1269531a.50939527.50939527 0 0 0 .7226562 0l4.1289059-4.1289062a.50939527.50939527 0 0 0 -.011718-.7324219.50939527.50939527 0 0 0 -.06836-.0507812c-1.299457-.85655112-2.8518391-1.32447906-4.4082029-1.32421877zm0 1.01367187c1.1437075-.0001913 2.2561179.3458764 3.2656249.8828125l-3.267578 3.2675781-3.265625-3.265625c1.0094545-.53745 2.1236759-.8845743 3.2675781-.8847656zm-6.265625 2.3398438a.50939527.50939527 0 0 0 -.4179687.2285156c-.85951958 1.300674-1.3261724 2.8570016-1.3261719 4.4160156-.00000014 1.5590147.46665226 3.115342 1.3261719 4.416016a.50939527.50939527 0 0 0 .7851562.080078l4.1347656-4.1347659a.50939527.50939527 0 0 0 0-.7226562l-4.1347656-4.1347657a.50939527.50939527 0 0 0 -.3671875-.1484374zm12.5136719 0a.50939527.50939527 0 0 0 -.353516.1484374l-4.1347652 4.1347657a.50939527.50939527 0 0 0 0 .7226562l4.1347652 4.1347659a.50939527.50939527 0 0 0 .785157-.080078c.859519-1.300674 1.326172-2.8570013 1.326171-4.416016.000001-1.559014-.466652-3.1153416-1.326171-4.4160156a.50939527.50939527 0 0 0 -.064453-.0800782.50939527.50939527 0 0 0 -.367188-.1484374zm-12.3574219 1.3710937 3.2734375 3.2734375-3.2734375 3.273438c-.5393858-1.011069-.8867188-2.1271982-.8867187-3.273438-.0000007-1.1462391.3473332-2.2623684.8867187-3.2734375zm12.2148439 0c.539385 1.0110691.886719 2.1271984.886719 3.2734375 0 1.1462398-.347333 2.262369-.886719 3.273438l-3.273438-3.273438zm-6.1152345 4.8847656a.50939527.50939527 0 0 0 -.3535156.1503907l-4.1289063 4.1289062a.50939527.50939527 0 0 0 .0800782.783203c1.2994568.856551 2.8518398 1.324479 4.4082031 1.324219 1.5563632-.00026 3.1109861-.467233 4.4101561-1.324219a.50939527.50939527 0 0 0 .080078-.785156l-4.1269529-4.1269532a.50939527.50939527 0 0 0 -.3691406-.1503907zm.0078125 1.2226559 3.265625 3.265625c-1.009455.53745-2.1236759.884575-3.2675781.884766-1.1437078.000192-2.2561177-.345876-3.265625-.882813z" fill="#3a3a38" transform="matrix(.70710678 -.70710678 .70710678 .70710678 -3.313709 8)"/><path d="m10.003906 1.3671875v4.6289063h4.628906c-.33353-1.0963368-.876986-2.1308924-1.6875-2.9414063-.810513-.8105139-1.845069-1.3539693-2.941406-1.6875zm-4.0078122.0078125c-1.0935007.3341584-2.1250058.8766883-2.9335938 1.6855469-.8087257.8089963-1.3517893 1.8417202-1.6855469 2.9355469h4.6191407zm-4.6289063 8.628906c.3335307 1.096337.8769861 2.130893 1.6875 2.941406.8105139.810514 1.8450695 1.35397 2.9414063 1.6875v-4.628906zm8.6367185 0v4.621094c1.093501-.334158 2.125006-.876688 2.933594-1.685547.808726-.808996 1.351789-1.84172 1.685547-2.935547z" fill="#fafafa"/></g></svg>