<svg viewBox="0 0 16 16" xmlns="http://www.w3.org/2000/svg">/&amp;gt;<path d="m9.5.15234375a.4994485.4994485 0 0 0 -.5.5v5.84765625a.4994485.4994485 0 0 0 .5.5h5.847656a.4994485.4994485 0 0 0 .490235-.5996094c-.641169-3.1396003-3.098681-5.59711236-6.2382816-6.23828122a.4994485.4994485 0 0 0 -.0996094-.00976563zm-3.015625.007813a.4994485.4994485 0 0 0 -.0839844.01171825c-3.1332116.64365096-5.58395916 3.095089-6.22656248 6.2285156a.4994485.4994485 0 0 0 .48828126.5996094h5.83789062a.4994485.4994485 0 0 0 .5-.5v-5.83984375a.4994485.4994485 0 0 0 -.515625-.4999995zm3.515625 1.20117135c2.23927.6771726 3.961499 2.3994019 4.638672 4.6386719h-4.638672zm-4 .00781v4.6308619h-4.6289062c.6774762-2.2335941 2.3957153-3.9522434 4.6289062-4.6308594zm-5.34765625 7.6308619a.4994485.4994485 0 0 0 -.49023437.5996094c.64116887 3.1396006 3.09868092 5.5971126 6.23828122 6.2382816a.4994485.4994485 0 0 0 .5996094-.490235v-5.847656a.4994485.4994485 0 0 0 -.5-.5zm8.84765625 0a.4994485.4994485 0 0 0 -.5.5v5.839844a.4994485.4994485 0 0 0 .5996094.488281c3.1332116-.643652 5.5839586-3.095089 6.2265626-6.2285156a.4994485.4994485 0 0 0 -.488281-.5996094zm-8.1386719 1h4.6386719v4.638672c-2.23927-.677173-3.9614993-2.399402-4.6386719-4.638672zm8.6386719 0h4.628906c-.677476 2.233594-2.395715 3.952245-4.628906 4.630859z" fill="#3a3a38"/><path d="m10 1.3613281v4.6386719h4.638672c-.677173-2.23927-2.399402-3.9614993-4.638672-4.6386719zm-4 .00781c-2.2331909.678616-3.95143 2.3972678-4.6289062 4.6308619h4.6289062zm-4.6386719 8.6308619c.6771726 2.23927 2.3994019 3.961499 4.6386719 4.638672v-4.638672zm8.6386719 0v4.630859c2.233191-.678614 3.95143-2.397265 4.628906-4.630859z" fill="#fafafa"/></svg>