<svg viewBox="0 0 16 16" xmlns="http://www.w3.org/2000/svg">/&amp;gt;<path d="m.5 0a.50005.50005 0 0 0 -.5.5v12.498047a.50005.50005 0 0 0 .12890625.335937c1.84673865 2.039726 3.46731125 2.82575 5.08593755 2.638672 1.6073552-.185775 3.0713044-1.235446 4.8437502-2.548828l.005859-.003906c2.57199-1.579186 3.618812-2.197419 5.496094-2.425781a.50005.50005 0 0 0 .439453-.496094v-9.998047a.50005.50005 0 0 0 -.5-.5zm.5 1h14v9.126953c-1.788683.303443-3.087988.985897-5.4648438 2.445313a.50005.50005 0 0 0 -.0351562.023437c-1.7764183 1.316806-3.159496 2.239392-4.4003906 2.382813-1.2080425.139623-2.4278521-.386206-4.0996094-2.189454z" fill="#3a3a38"/><path d="m1 1v11.789062c1.6717573 1.803248 2.8915669 2.329077 4.0996094 2.189454 1.2408946-.143421 2.6239723-1.066007 4.4003906-2.382813a.50005.50005 0 0 1 .035156-.02344c2.376856-1.459416 3.676161-2.141867 5.464844-2.44531v-9.126953z" fill="#fafafa"/></svg>