<svg viewBox="0 0 16 16" xmlns="http://www.w3.org/2000/svg">/&amp;gt;<path d="m.50195312 0a.50093087.50093087 0 0 0 -.50195312.5v11.488281c-.0135066.612828.32956122 1.147454.8125 1.527344.4829388.37989 1.1168102.657293 1.8554688.876953 1.477317.43932 3.3862475.635923 5.3027343.625 1.9164868-.010922 3.8307609-.230282 5.3144529-.673828.741846-.221773 1.37939-.495628 1.867188-.863281.487798-.367654.846094-.877367.847656-1.478516a.50093087.50093087 0 0 0 0-.001953v-7.5a.50093087.50093087 0 0 0 -.494141-.5c-5.168004-.0506684-8.2782246-.549661-10.3574215-1.2597656-2.0791969-.7101047-3.1449785-1.6173094-4.32421875-2.62109378a.50093087.50093087 0 0 0 -.32226563-.11914062zm.49804688 1.5195312c.9808989.7908878 2.0692418 1.5685945 3.8242188 2.1679688 2.1463372.7330349 5.2948892 1.2012643 10.1757812 1.2832031v7.0273439c-.000564.216985-.11351.429097-.451172.683594-.337662.254495-.879989.502593-1.550781.703125-1.341585.401063-3.191203.622312-5.0332032.632812-1.8420004.010498-3.6848447-.189403-5.0117188-.583984-.6634371-.197291-1.1947781-.446131-1.5214844-.703125s-.4371096-.47062-.4316406-.71875a.50005.50005 0 0 0 0-.011719z" fill="#3a3a38"/><path d="m1 1.5195312v10.4804688a.50005.50005 0 0 1 0 .01172c-.005469.24813.1049343.461756.4316406.71875s.8580473.505834 1.5214844.703125c1.3268741.394581 3.1697184.594482 5.0117188.583984 1.8420003-.0105 3.6916182-.231749 5.0332032-.632812.670792-.200532 1.213119-.44863 1.550781-.703125.337662-.254497.450608-.46661.451172-.683595v-7.0273439c-4.880892-.0819388-8.029444-.5501682-10.1757812-1.2832031-1.754977-.5993743-2.8433199-1.3770811-3.8242188-2.1679688z" fill="#fafafa"/></svg>