<svg viewBox="0 0 16 16" xmlns="http://www.w3.org/2000/svg">


/&amp;amp;amp;gt;<path d="m8 0c-3.8629463.04541432-6.4195509 2.9625211-6.9980469 6.4433594-.03737597.2242764.0944363.4423061.3105469.5136718l3.0722656 1.0234376c.2979371.1004243.6128903-.1195077.6152344-.4335938.0000356-.00359.0019031-.0061856.0019531-.0097656a3 3 0 0 1 -.0019531-.0371094 3 3 0 0 1 3-3 3 3 0 0 1 3 3 3 3 0 0 1 -.001953.03125c.000106.00583.001853.00973.001953.015625.0023.3140861.317297.5340181.615234.4335938l3.072266-1.0234376c.216107-.0713657.347927-.2893954.310547-.5136718-.578496-3.4808383-3.135101-6.39794508-6.998047-6.4433594zm0 1c2.796506.036909 4.700302 1.7577265 5.5625 4.1210938.122688.3362992.224626.6856015.304688 1.0449218.000275.00124-.000276.0026663 0 .0039063l-.001954-.0039063-1.925781.6445313a4 4 0 0 0 -3.939453-3.3105469 4 4 0 0 0 -3.9375 3.3144531l-1.9296875-.6445312c.6426985-2.8844697 2.6727485-5.1238585 5.8671875-5.1660157zm-3.3945312 7.0058594c-.0714609-.0114041-.1462189-.0055749-.2207032.0195312l-3.0722656 1.0234375c-.2161106.0713658-.34792287.2893955-.3105469.5136719.578496 3.480838 3.1351006 6.397945 6.9980469 6.443359 3.862946-.045414 6.419551-2.962521 6.998047-6.443359.03738-.2242764-.09444-.4423059-.310547-.5136719l-3.072266-1.0234375c-.297937-.1004243-.612934.1195077-.615234.4335938-.0001.005895-.001847.009795-.001953.015625a3 3 0 0 1 .001953.03125 3 3 0 0 1 -3 2.9999996 3 3 0 0 1 -3-2.9999996 3 3 0 0 1 .0019531-.0371094c-.00005-.00358-.0019175-.0061756-.0019531-.0097656-.0017581-.2355646-.1801486-.4189129-.3945312-.453125zm-.5429688 1.1855468a4 4 0 0 0 3.9375 3.3144528 4 4 0 0 0 3.939453-3.3105465l1.925781.6445313.001954-.0039063c-.000276.00124.000275.0026663 0 .0039063-.080062.3593202-.182.7086232-.304688 1.0449222-.862198 2.363368-2.765994 4.084183-5.5625 4.121093v-.003906c-3.194439-.042157-5.224489-2.281546-5.8671875-5.1660155z" fill="#3a3a38"/><path d="m8 1v.0039062c-3.194439.0421534-5.224489 2.281546-5.8671875 5.1660157l1.9296875.6445312a4 4 0 0 1 3.9375-3.3144531 4 4 0 0 1 3.939453 3.3105469l1.927735-.6445313c-.6427-2.8844697-2.672749-5.1238546-5.867188-5.1660156zm-3.9375 8.1914062-1.9296875.6445313c.6426985 2.8844695 2.6727485 5.1238525 5.8671875 5.1660155v.003906c3.194439-.042161 5.224488-2.281546 5.867188-5.1660152l-1.927735-.6445313a4 4 0 0 1 -3.939453 3.3105465 4 4 0 0 1 -3.9375-3.3144528z" fill="#fafafa"/></svg>