<svg viewBox="0 0 16 16" xmlns="http://www.w3.org/2000/svg">/&amp;gt;<path d="m.5 0a.50005.50005 0 0 0 -.5.5v5a.50005.50005 0 0 0 .5.5h4a.50005.50005 0 0 0 .5-.5v-5a.50005.50005 0 0 0 -.5-.5zm6 0a.50005.50005 0 0 0 -.5.5v5a.50005.50005 0 0 0 .5.5h9a.50005.50005 0 0 0 .5-.5v-5a.50005.50005 0 0 0 -.5-.5zm-5.5 1h3v4h-3zm6 0h8v4h-8zm-6.5 6a.50005.50005 0 0 0 -.5.5v8a.50005.50005 0 0 0 .5.5h4a.50005.50005 0 0 0 .5-.5v-8a.50005.50005 0 0 0 -.5-.5zm6 0a.50005.50005 0 0 0 -.5.5v8a.50005.50005 0 0 0 .5.5h9a.50005.50005 0 0 0 .5-.5v-8a.50005.50005 0 0 0 -.5-.5zm-5.5 1h3v7h-3zm6 0h8v7h-8z" fill="#3a3a38"/><path d="m1 1v4h3v-4zm6 0v4h8v-4zm-6 7v7h3v-7zm6 0v7h8v-7z" fill="#fafafa"/></svg>