<svg viewBox="0 0 16 16" xmlns="http://www.w3.org/2000/svg">/&amp;amp;amp;gt;<path d="m8 0c-.8178443 0-1.9960936.65871765-1.9960938 1.4765625-.0001553.098574.0099299.1963202.0292969.2929687l.3398438 3.0449219c-.0275994.8868625-.9398024 1.0550378-1.6660157 1.1835938l-.9648437.0039062c-.4101889.0016569-.8139848.3363744-.7421875.7402344v.2578125 3h5 5v-3-.2578125c.071797-.40386-.331998-.7385844-.742188-.7402344l-.964843-.0039062c-.726213-.128556-1.6384169-.2967313-1.6660159-1.1835938l.3398438-3.0449219c.019367-.0966485.0294518-.1943947.0292969-.2929687 0-.81784485-1.1782495-1.4765625-1.9960938-1.4765625z" fill="#3a3a38" stroke-width=".740419"/><path d="m3.7148438 11c-.048637.206543-.01883.72852-.0625.910156 2.9500571 1.099442 6.2844349.97711 8.3111592 1.1731-.014499-.489114.045009-1.344854.036497-2.083256z" fill="#fafafa" stroke-width=".823673"/><path d="m3.4375 12.818359c-.1569961.612095-.3665261 1.703652-.5273438 2.181641l9.1623388.0221c-.03353-.07558-.10907-.949825-.13281-1.033203-.0038-.01037-.01084-.0136-.01172-.0293l-.002.03906c-2.3811407-.210267-5.929543-.283405-8.488465-1.180298z" fill="#f8db8f" stroke-width=".789064"/><g stroke-width=".740419"><path d="m3 10c-.3858016 2.479131-.9790485 4.589248-1.4648438 6h11.8515618c-.198839-1.299387-.461928-2.674482-.386718-6zm.7148438 1h8.2851562c.0085.738402-.05099 1.594142-.0365 2.083256-2.0267215-.195991-5.361099-.073658-8.3111562-1.1731.0436702-.181636.013863-.703613.0625-.910156zm-.2773438 1.818359c2.558922.896893 6.1073245.970031 8.488511 1.1803l.002-.03906c.000878.0157.0079.01892.01172.0293.02374.08338.09929.957622.13281 1.033203l-9.1623848-.0221c.1608176-.477991.3703477-1.569548.5273438-2.181643z" fill="#ed8733"/><path d="m8 1.0019531c-.1399303 0-.5137383.1054206-.7460938.2617188-.2323554.1562981-.2480468.285114-.2480468.2128906a1.0020172 1.0020172 0 0 1 0 .00195c-.000046.029193.0028.059003.00977.09375a1.0020172 1.0020172 0 0 1 .013672.085937l.3398392 3.0449255a1.0020172 1.0020172 0 0 1 .0058594.1425781c-.0244132.7844798-.5827473 1.4573332-1.1074219 1.7324219s-1.0206724.3414516-1.3867187.40625a1.0020172 1.0020172 0 0 1 -.1699219.015625l-.7089844.00195v1.9960969h3.9980469 3.998047v-1.9960938l-.708985-.0019531a1.0020172 1.0020172 0 0 1 -.169921-.015625c-.36605-.0647971-.862044-.1311603-1.3867191-.40625-.5246752-.2750897-1.083009-.9479417-1.1074219-1.7324219a1.0020172 1.0020172 0 0 1 .0058594-.1425781l.3398437-3.0449219a1.0020172 1.0020172 0 0 1 .013672-.085937c.00696-.034744.00981-.064552.00977-.09375a1.0020172 1.0020172 0 0 1 0-.00195c0 .072224-.015691-.056593-.2480468-.2128906-.23236-.1563018-.606168-.2617224-.7460983-.2617224z" fill="#fafafa"/></g></svg>