<svg viewBox="0 0 16 16" xmlns="http://www.w3.org/2000/svg"><path d="m4.5039062 0a.50005.50005 0 0 0 -.4414062.26367188l-4.00390625 7.50000002a.50005.50005 0 0 0 0 .4726562l4.00390625 7.4999999a.50005.50005 0 0 0 .4414062.263672h5.9999998c1.583378 0 2.981239-.965021 3.951172-2.419922.969933-1.4549 1.548828-3.418941 1.548828-5.580078 0-2.1611371-.578895-4.1251776-1.548828-5.5800781-.969933-1.45490062-2.367794-2.4199219-3.951172-2.4199219zm.3007813 1h5.6992185c1.178047 0 2.27943.7150417 3.119141 1.9746094.839711 1.2595676 1.380859 3.0444005 1.380859 5.0253906 0 1.98099-.541148 3.765823-1.380859 5.025391-.839711 1.259567-1.941094 1.974609-3.119141 1.974609h-5.6992185l-3.7382813-7z" fill="#3a3a38"/><path d="m4.8046875 1-3.7382813 7 3.7382813 7h5.6992185c1.178047 0 2.27943-.715042 3.119141-1.974609.839711-1.259568 1.380859-3.044401 1.380859-5.025391 0-1.9809901-.541148-3.765823-1.380859-5.0253906-.839711-1.2595677-1.941094-1.9746094-3.119141-1.9746094z" fill="#fafafa"/></svg>