<svg viewBox="0 0 16 16" xmlns="http://www.w3.org/2000/svg"><path d="m.5.00195313a.49871946.49871946 0 0 0 -.49804687.49804687v15a.49871946.49871946 0 0 0 .49804687.498047h10c1.582838 0 2.981412-.963328 3.951172-2.417969s1.546875-3.419181 1.546875-5.580078c0-2.1608975-.577115-4.1254374-1.546875-5.5800781-.96976-1.45464076-2.368334-2.41796877-3.951172-2.41796877zm.5.99804687h9.5c1.178046 0 2.27943.7150417 3.119141 1.9746094.839711 1.2595676 1.380859 3.0444005 1.380859 5.0253906 0 1.98099-.541148 3.765823-1.380859 5.025391-.839711 1.259567-1.941095 1.974609-3.119141 1.974609h-9.5z" fill="#3a3a38"/><path d="m1 1v14h9.5c1.178046 0 2.27943-.715042 3.119141-1.974609.839711-1.259568 1.380859-3.044401 1.380859-5.025391 0-1.9809901-.541148-3.765823-1.380859-5.0253906-.839711-1.2595677-1.941095-1.9746094-3.119141-1.9746094z" fill="#fafafa"/></svg>