<svg viewBox="0 0 16 16" xmlns="http://www.w3.org/2000/svg">/&amp;gt;<path d="m5.5 0c-1.5833773 0-2.9812389.96502133-3.9511719 2.4199219-.96993295 1.4549005-1.5488281 3.4189408-1.5488281 5.5800781 0 2.161137.57889515 4.125178 1.5488281 5.580078.969933 1.454901 2.3677946 2.419922 3.9511719 2.419922h5c1.583375 0 2.981238-.965024 3.951172-2.419922.969933-1.454898 1.548828-3.41893 1.548828-5.580078 0-2.1611484-.578895-4.1251801-1.548828-5.5800781-.969934-1.45489803-2.367797-2.4199219-3.951172-2.4199219zm0 1h5c1.178047 0 2.27943.715045 3.119141 1.9746094.839711 1.2595643 1.380859 3.0443883 1.380859 5.0253906 0 1.9810019-.541148 3.765826-1.380859 5.025391-.839711 1.259564-1.941094 1.974609-3.119141 1.974609h-5c-1.1780461 0-2.2794295-.715042-3.1191406-1.974609-.8397112-1.259568-1.3808594-3.0444011-1.3808594-5.025391 0-1.9809902.5411482-3.765823 1.3808594-5.0253906.8397111-1.2595676 1.9410945-1.9746094 3.1191406-1.9746094z" fill="#3a3a38"/><path d="m5.5 1c-1.1780461 0-2.2794295.7150418-3.1191406 1.9746094-.8397112 1.2595676-1.3808594 3.0444004-1.3808594 5.0253906 0 1.9809899.5411482 3.765823 1.3808594 5.025391.8397111 1.259567 1.9410945 1.974609 3.1191406 1.974609h5c1.178047 0 2.27943-.715045 3.119141-1.974609.839711-1.259565 1.380859-3.0443891 1.380859-5.025391 0-1.9810023-.541148-3.7658263-1.380859-5.0253906-.839711-1.2595644-1.941094-1.9746094-3.119141-1.9746094z" fill="#fafafa"/></svg>