<svg viewBox="0 0 16 16" xmlns="http://www.w3.org/2000/svg">
/&amp;amp;gt;<path d="m7.9921875-.00000036a.50005.50005 0 0 0 -.3457031.14648438l-7.50000002 7.49999998a.50005.50005 0 0 0 0 .7070312l7.50000002 7.5000008a.50005.50005 0 0 0 .7070312 0l7.5000004-7.5000008a.50005.50005 0 0 0 0-.7070312l-7.5000004-7.49999998a.50005.50005 0 0 0 -.3613281-.14648438zm.0078125 1.04296876 6.957031 6.9570312-6.957031 6.9570314-6.9570312-6.9570314z" fill="#3a3a38"/><path d="m8 1.0429684-6.9570312 6.9570312 6.9570312 6.9570314 6.957031-6.9570314z" fill="#fafafa"/></svg>