<svg viewBox="0 0 16 16" xmlns="http://www.w3.org/2000/svg">/&amp;gt;<path d="m2.9995658 7.9999996c0 4.4013044 3.304797 7.3384694 7.2500002 7.9941404.250202.04078.492878-.106644.572266-.347656l1.15039-3.455078c.110922-.3317-.123275-.687139-.472656-.691406-1.9329972 0-3.5000002-1.5670038-3.5000002-3.5000004s1.567003-3.5 3.5000002-3.5c.349381-.0043.583578-.359706.472656-.691406l-1.15039-3.455078c-.07939-.241012-.322064-.388437-.572266-.347657-3.9452032.655671-7.2500002 3.592837-7.2500002 7.994141zm1 0c0-3.762895 2.6448722-6.184795 6.0292972-6.894531l.818359 2.460937c-2.1732054.318577-3.8476562 2.171946-3.8476562 4.433594 0 2.2616484 1.6744508 4.1150164 3.8476562 4.4335934l-.818359 2.460938c-3.384425-.709736-6.0292972-3.131636-6.0292972-6.8945314z" fill="#3a3a38"/><path d="m3.9995658 7.9999996c0 3.7628954 2.6448722 6.1847954 6.0292972 6.8945314l.818359-2.460938c-2.1732054-.318577-3.8476562-2.171945-3.8476562-4.4335934 0-2.261648 1.6744508-4.115017 3.8476562-4.433594l-.818359-2.460937c-3.384425.709736-6.0292972 3.131636-6.0292972 6.894531z" fill="#fafafa"/></svg>