<svg viewBox="0 0 16 16" xmlns="http://www.w3.org/2000/svg">


/&amp;amp;amp;amp;gt;<path d="m1 4c-.554 0-1 .446-1 1v8c0 .554.446 1 1 1h6.3925781l-.9980469-1h-5.3945312v-8h5c0-.3424207.0340384-.6769297.0996094-1z" fill="#3a3a38"/><path d="m1 5v8h5.3945312l-2.1972656-2.197266a.50005.50005 0 0 1 0-.707031l2.53125-2.5312499c-.4528072-.7521557-.7285156-1.6225476-.7285156-2.5644531z" fill="#fafafa"/><path d="m11 0c-2.7614233 0-5 2.2385763-5 5 0 .9419055.2757084 1.8122974.7285156 2.5644531l.7226563-.7226562a4 4 0 0 1 -.4511719-1.8417969 4 4 0 0 1 4-4 4 4 0 0 1 4 4 4 4 0 0 1 -1.894531 3.3984375l.720703.7207031c1.310666-.9014184 2.173828-2.4081746 2.173828-4.1191406 0-2.7614237-2.238577-5-5-5z" fill="#3a3a38" stroke-width=".833333"/><path d="m9.4921875 5a.50005.50005 0 0 0 -.3457031.1464844l-4.9492188 4.9492186a.50005.50005 0 0 0 0 .707031l4.9492188 4.951172a.50005.50005 0 0 0 .7070312 0l4.9492184-4.951172a.50005.50005 0 0 0 0-.707031l-4.9492184-4.9492186a.50005.50005 0 0 0 -.3613281-.1464844zm.0078125 1.2070312 4.242188 4.2421878-4.242188 4.24414-4.2421875-4.24414z" fill="#3a3a38"/><g fill="#fafafa"><path d="m9.5 6.2070312-4.2421875 4.2421878 4.2421875 4.24414 4.242188-4.24414z" fill-rule="evenodd"/><path d="m11 1a4 4 0 0 0 -4 4 4 4 0 0 0 .4511719 1.8417969l1.6953125-1.6953125a.50005.50005 0 0 1 .3457031-.1464844.50005.50005 0 0 1 .3613281.1464844l3.2519534 3.2519531a4 4 0 0 0 1.894531-3.3984375 4 4 0 0 0 -4-4z"/></g></svg>