<svg viewBox="0 0 16 16" xmlns="http://www.w3.org/2000/svg">/&amp;gt;<path d="m3.4982305 8.9793216c-.129759.0036-.253031.05754-.34375.150391l-2.95721499 2.9569764c-.260944.199523-.261911.592163-.002.792969l.0059.0039 2.95331799 2.952991c.471255.490833 1.197865-.235777.707031-.707032l-2.146681-2.146343h12.5781255l-2.146479 2.146343c-.490797.471255.235788 1.197839.707042.707032l2.957025-2.956891c.262885-.201389.26094-.598073-.0039-.796875l-2.95313-2.9530704c-.09454-.09665-.224178-.150904-.359375-.150391-.447077.0019-.667178.544711-.347657.857422l2.14649 2.1464304h-12.5781255l2.146668-2.1464304c.32527-.318004.09144-.869893-.363287-.857422z" fill="#1e8bcd" fill-rule="evenodd"/><path d="m16 1.4999999a.53016009.53016009 0 0 0 -.529297-.5292969h-14.941406a.53016009.53016009 0 0 0 -.529297.5292969v5.9414061a.53016009.53016009 0 0 0 .529297.529297h14.941406a.53016009.53016009 0 0 0 .529297-.529297zm-1 .4707031v5h-14v-5z" fill="#3a3a38"/><path d="m15 1.970703h-14v5h14z" fill="#fafafa"/></svg>