<svg viewBox="0 0 16 16" xmlns="http://www.w3.org/2000/svg"><g fill="#fafafa"><path d="m2.0273438 1c-.6072951 0-1.0273438.545423-1.0273438 1.1171875v11.7656245c0 .571766.4200493 1.117188 1.0273438 1.117188h11.9453122c.607295 0 1.027344-.545423 1.027344-1.117188v-11.7656245c0-.5717642-.420049-1.1171875-1.027344-1.1171875zm0 1h11.9453122c-.023298 0 .027344.005772.027344.1171875v11.7656245c0 .111419-.050641.117188-.027344.117188h-11.9453122c.0232984 0-.0273438-.00577-.0273438-.117188v-11.7656245c0-.1114152.0506429-.1171875.0273438-.1171875z" fill="#3a3a38"/><path d="m2.0273438 2c.0232991 0-.0273438.0057723-.0273438.1171875v11.7656245c0 .111418.0506422.117188.0273438.117188h11.9453122c-.023297 0 .027344-.005769.027344-.117188v-11.7656245c0-.1114155-.050642-.1171875-.027344-.1171875zm3.9140624 3h4.1171878c.557841 0 .941406.4998899.941406 1.015625v3.96875c0 .515735-.383565 1.015625-.941406 1.015625h-4.1171878c-.5578409 0-.9414062-.499889-.9414062-1.015625v-3.96875c0-.5157357.3835653-1.015625.9414062-1.015625z"/><path d="m5.9414062 5c-.5578409 0-.9414062.4998893-.9414062 1.015625v3.96875c0 .515736.3835653 1.015625.9414062 1.015625h4.1171878c.557841 0 .941406-.49989.941406-1.015625v-3.96875c0-.5157351-.383565-1.015625-.941406-1.015625zm.0585938 1h4v4h-4z" fill="#3a3a38"/><path d="m6 6v4h4v-4z" fill="#fafafa"/></g></svg>