<svg viewBox="0 0 16 16" xmlns="http://www.w3.org/2000/svg"><path d="m1 1v14h6.1699219l-.1816407-.314453a1.0001 1.0001 0 0 0 -.0019531-.001953l-.4980469-.867188-.25-.429687a1.0001 1.0001 0 0 1 .2050782-1.251953l.7207031-.634766-.7207031-.634766a1.0001 1.0001 0 0 1 -.2050782-1.2519528l.25-.4296874.4980469-.8671876a1.0001 1.0001 0 0 0 .0019531-.0019531l.25-.4316406a1.0001 1.0001 0 0 1 1.1855469-.4453125l.90625.3066406.1894531-.9414062a1.0001 1.0001 0 0 1 .9804688-.8027344h.5 1 .5a1.0001 1.0001 0 0 1 .980469.8027344l.189453.9414062.90625-.3066406a1.0001 1.0001 0 0 1 .423828-.046875v-6.390625z" fill="#fafafa"/><path d="m0 0v16h9.4804688l-.1503907-.744141-.90625.306641a1.0001 1.0001 0 0 1 -1.1855469-.445312l-.0683593-.117188h-6.1699219v-14h14v6.390625a1.0001 1.0001 0 0 1 .761719.4921875l.238281.4121094v-8.2949219zm16 11.355469-.164062.144531.164062.144531zm0 3.349609-.238281.41211a1.0001 1.0001 0 0 1 -1.185547.445312l-.90625-.306641-.150391.744141h2.480469z" fill="#3a3a38"/><path d="m6 4a2 2 0 0 1 -2 2 2 2 0 0 1 -2-2 2 2 0 0 1 2-2 2 2 0 0 1 2 2z" fill="#ed8733" stroke-width=".8"/><path d="m5 4a1 1 0 0 1 -1 1 1 1 0 0 1 -1-1 1 1 0 0 1 1-1 1 1 0 0 1 1 1z" fill="#f8db8f"/><path d="m10.5 7-.412109 2.056641-1.9843754-.6718754-.25.4316406-.5.8671878-.25.43164 1.5742188 1.384766-1.5742188 1.384766.25.43164.5.867188.25.43164 1.9843754-.671875.412109 2.056641h.5 1 .5l.412109-2.056641 1.984375.671875.25-.43164.5-.867188.25-.43164-1.574218-1.384766 1.574218-1.384766-.25-.43164-.5-.8671878-.25-.4316406-1.984375.6718754-.412109-2.056641h-.5-1zm.875 1h.25l.375 1.5h.654297l.328125.566406 1.486328-.423828.125.214844-1.111328 1.076172.328125.566406-.328125.566406 1.111328 1.076172-.125.214844-1.486328-.423828-.328125.566406h-.654297l-.375 1.5h-.25l-.375-1.5h-.654297l-.328125-.566406-1.486328.423828-.125-.214844 1.1113281-1.076172-.328125-.566406.328125-.566406-1.1113281-1.076172.125-.214844 1.486328.423828.328125-.566406h.654297zm.125 2a1.5 1.5 0 0 0 -1.5 1.5 1.5 1.5 0 0 0 1.5 1.5 1.5 1.5 0 0 0 1.5-1.5 1.5 1.5 0 0 0 -1.5-1.5zm0 1a.5.5 0 0 1 .5.5.5.5 0 0 1 -.5.5.5.5 0 0 1 -.5-.5.5.5 0 0 1 .5-.5z" fill="#1e8bcd"/><path d="m11.375 8h.25l.375 1.5h.654297l.328125.566406 1.486328-.423828.125.214844-1.111328 1.076172.328125.566406-.328125.566406 1.111328 1.076172-.125.214844-1.486328-.423828-.328125.566406h-.654297l-.375 1.5h-.25l-.375-1.5h-.654297l-.328125-.566406-1.486328.423828-.125-.214844 1.1113281-1.076172-.328125-.566406.328125-.566406-1.1113281-1.076172.125-.214844 1.486328.423828.328125-.566406h.654297zm.125 2c-.828427 0-1.5.671573-1.5 1.5s.671573 1.5 1.5 1.5 1.5-.671573 1.5-1.5-.671573-1.5-1.5-1.5z" fill="#fafafa"/><path d="m5.5 10-4.5 4.5v.5h2l3.75-3.75zm.765625 2.341797a1.0001 1.0001 0 0 0 -.0429688.074219 1.0001 1.0001 0 0 1 .0429688-.074219zm-.0917969.177734a1.0001 1.0001 0 0 0 -.0253906.072266 1.0001 1.0001 0 0 1 .0253906-.072266zm-.0664062.291016a1.0001 1.0001 0 0 0 -.0039063.091797 1.0001 1.0001 0 0 1 .0039063-.091797zm.0039062.199219a1.0001 1.0001 0 0 0 .0117188.066406 1.0001 1.0001 0 0 1 -.0117188-.066406zm.0820313.287109a1.0001 1.0001 0 0 0 .0019531.007813l-1.6953125 1.695312h2.6699219l-.1816407-.314453a1.0001 1.0001 0 0 0 -.0019531-.001953l-.4980469-.867188-.25-.429687a1.0001 1.0001 0 0 1 -.0449218-.089844z" fill="#83beec"/><path d="m5.5 8.5-4.5 4.5v1.5l4.5-4.5 1.25 1.25-3.75 3.75h1.5l1.6953125-1.695312a1.0001 1.0001 0 0 1 .2480469-1.169922l.7207031-.634766-.7207031-.634766a1.0001 1.0001 0 0 1 -.2050782-1.2519528l.1386719-.2363281z" fill="#0063b1"/></svg>