<svg viewBox="0 0 16 16" xmlns="http://www.w3.org/2000/svg">/&gt;<path d="m1 4v11h14v-11h-1.607422l-.265625.5351562v2.4648438a1.0001 1.0001 0 0 1 -1 1h-1.332031a1.0001 1.0001 0 0 1 -1.0000001-1v-2.4746094l-.2617188-.5253906h-1.2832031l1.3359375 2.5332031a1.0001 1.0001 0 0 1 -.8847656 1.4667969h-1.3359375c-.2562216 0-.5996781-.0818468-.8613282-.3007812a1.0001 1.0001 0 0 1 -.0507812-.046875c-.1133919-.1089901-.2093194-.2297095-.2871094-.3535157a1.0001 1.0001 0 0 1 -.0507812-.0917969l-.3222656-.6601562-.3066407.6445312a1.0001 1.0001 0 0 1 -.0566406.1035157c-.0809168.1287869-.1729646.238734-.2597656.328125-.236793.2438598-.6152182.3769531-.90625.3769531h-1.2636719a1.0001 1.0001 0 0 1 -.8808594-1.4746094l1.3613282-2.5253906z" fill="#fafafa"/><g fill="#3a3a38"><path d="m1 3c-.554 0-1 .446-1 1v11c0 .554.446 1 1 1h14c.554 0 1-.446 1-1v-11c0-.554-.446-1-1-1h-1.111328l-.496094 1h1.607422v11h-14v-7.9941406-3.0058594h2.4804688l.3203124-.5957031-.2226562-.4042969z"/><path d="m3.0722656 0 1.8671875 3.4003906-1.9394531 3.5996094h1.2636719c.078482 0 .1416818-.025022.1894531-.074219.047771-.049196.091372-.10237.1289062-.1621093l1.1464844-2.4199217c.00682-.01757.015154-.032818.025391-.046875.010237-.01757.018567-.035164.025391-.052734l1.234375 2.5234375c.037535.059739.081629.114866.1328125.1640625.0545951.0456823.1266187.068359.2187493.068359h1.3359375l-1.9296875-3.6640625 1.8886718-3.3359375h-1.2832031c-.058008 0-.1074908.015249-.1484375.046875-.040947.028112-.081606.073073-.1191406.1328125l-1.0742188 2.25-.082031.1523437-1.2285156-2.4296874c-.0341229-.0562246-.0723348-.0941498-.1132815-.1152344-.0375347-.024598-.0987817-.0371094-.1875-.0371094zm5.5878906 0 2.1347658 4.2910156v2.7089844h1.332031v-2.6992188l2.132813-4.3007812h-1.191407c-.112604 0-.205687.032842-.277343.099609-.07165.063253-.126523.133236-.164063.2070312l-.833984 2.265625c-.06824.1370482-.128994.267633-.183594.390625-.05459.122992-.101132.2461487-.138672.3691406-.04436-.1229919-.09629-.2461486-.154297-.3691406-.0546-.122992-.115842-.2559222-.1875-.3964844l-.839844-2.2597652c-.044358-.091365-.101676-.1664309-.169921-.2226562-.068245-.0562254-.156433-.0839844-.265625-.0839844z"/></g></svg>