<svg viewBox="0 0 16 16" xmlns="http://www.w3.org/2000/svg"><path d="m7.4882812 2c-.2703603 0-.4882812.2179209-.4882812.4882812v.023438c0 .2703599.2179209.4882808.4882812.4882808h7.0234378c.27036 0 .488281-.2179209.488281-.4882812v-.0234376c0-.2703603-.217921-.4882812-.488281-.4882812zm-.0117187 2c-.2637206 0-.4765625.2128419-.4765625.4765625v.046875c0 .2637206.2128419.4765625.4765625.4765625h7.0468755c.26372 0 .476562-.2128419.476562-.4765625v-.046875c0-.2637206-.212842-.4765625-.476562-.4765625zm1 3c-.2637206 0-.4765625.2128419-.4765625.4765625v.046875c0 .2637206.2128419.4765625.4765625.4765625h6.0468755c.26372 0 .476562-.2128419.476562-.4765625v-.046875c0-.2637206-.212842-.4765625-.476562-.4765625zm-.0117187 2c-.2570812 0-.4648438.2077626-.4648438.4648438v.070312c0 .2570816.2077626.4648442.4648438.4648442h6.0703122c.257081 0 .464844-.2077626.464844-.4648438v-.0703124c0-.2570812-.207763-.4648438-.464844-.4648438zm-.9648438 3c-.277 0-.5.223-.5.5s.223.5.5.5h7c.277 0 .5-.223.5-.5s-.223-.5-.5-.5zm0 2c-.277 0-.5.223-.5.5s.223.5.5.5h7c.277 0 .5-.223.5-.5s-.223-.5-.5-.5z" fill="#3a3a38"/><path d="m1 7h6v2h-6z" fill="#ed3d3b"/></svg>