<svg viewBox="0 0 16 16" xmlns="http://www.w3.org/2000/svg">/&amp;amp;gt;<path d="m4.5 0c-.277 0-.5.223-.5.5v3.5h-3.55078125c-.24883077 0-.44921875.2003879-.44921875.4492188v.1015624c0 .2488308.20038798.4492188.44921875.4492188h3.55078125v-.5a.50005.50005 0 0 1 .5-.5h.5v-3.5c0-.277-.223-.5-.5-.5zm7 0c-.277 0-.5.223-.5.5v3.5h.5a.50005.50005 0 0 1 .5.5v.5h3.550781c.248831 0 .449219-.2003879.449219-.4492188v-.1015624c0-.2488308-.200388-.4492188-.449219-.4492188h-3.550781v-3.5c0-.277-.223-.5-.5-.5zm-11 11c-.277 0-.5.223-.5.5s.223.5.5.5h3.5v3.5c0 .277.223.5.5.5s.5-.223.5-.5v-3.5h-.5a.50005.50005 0 0 1 -.5-.5v-.5zm11.5 0v.5a.50005.50005 0 0 1 -.5.5h-.5v3.5c0 .277.223.5.5.5s.5-.223.5-.5v-3.5h3.5c.277 0 .5-.223.5-.5s-.223-.5-.5-.5z" fill="#1e8bcd"/><path d="m4.5 4a.50005.50005 0 0 0 -.5.5v7a.50005.50005 0 0 0 .5.5h7a.50005.50005 0 0 0 .5-.5v-7a.50005.50005 0 0 0 -.5-.5zm.5 1h6v6h-6z" fill="#3a3a38"/><path d="m5 5v6h6v-6z" fill="#fafafa"/></svg>