<svg viewBox="0 0 16 16" xmlns="http://www.w3.org/2000/svg">/&amp;amp;gt;<path d="m9.9003906 1c-.0707617.2070303-.1817515.4024546-.34375.5644531l-1.4355468 1.4355469h.3789062c.8137028 0 1.5.6862972 1.5 1.5s-.6862972 1.5-1.5 1.5h-.3808594l1.4375 1.4375c.3697102.3697108.4980624.9022966.3925782 1.3886719l2.6093752 2.6093751.001953.001953c.151566.15152.258639.325599.328125.496094.072237.177188.111328.368968.111328.564453 0 .195585-.036312.382343-.111328.566406-.073218.179694-.187137.352702-.326172.492188a1.0001 1.0001 0 0 0 -.001953.001953l-1.441406 1.441406h2.880859v-11.2949219l-2.695312-2.7050781zm-3.9003906 7.1230469v.3769531c0 .6800152-.4808598 1.2655533-1.1132812 1.4414062a1.0001 1.0001 0 0 1 -.8867188.5410158v1.460937c-.0056268-.004506.0376238.043484.0253906.03125-.2082601-.20826.7741849.599176.5292969.435547s.8775738.436929.6054687.324219c-.2721048-.11271.9451153.256678.65625.199219-.288865-.057459.9781181.066406.6835938.066406l.9980469-.998047-1.0351563-.998047c-.264761.009729-.2380713-.003906.0605469-.003906h1.3574219l-.4414063-.441406c-.3698172-.369789-.4980867-.9023263-.3925781-1.3886721zm-2 5.1132811v1.763672h3.0957031c.0708474-.206347.1821112-.400936.34375-.5625l.4375-.4375h-1.3535156c-.0355994 0 .0179777.000484-.0097656 0a1.0001 1.0001 0 0 1 -.0136719 0c-.0046278 0-.0090443-.001938-.0136719-.001953-.0219175-.003354-.1677547-.010942-.0410156-.003906l.0039063-.003907c-.8665426-.01049-1.7271728-.277672-2.4492188-.753906z" fill="#fafafa"/><path d="m5.90625 0c.0578587.15757018.09375.32510948.09375.5v.37890625l.8789062-.87890625zm3.9921875 0c.1124045.3231665.1125915.6762995.0019531 1h.0996094v3.5c0 .277.223.5.5.5h3.5v7 2 .091797.908203h-2-.740234-.140625l-1 1h1.880859 2c.554 0 1-.446 1-1v-.800781-.199219-2-7.5-.8632812l-3.636719-3.6367188h-.863281zm1.1015625 1 3 3h-3zm-7.9863281 8.6542969c.0314759.1911734.0972347.7530141.0527343.5292971-.0574588-.2888656.3119284.928355.1992188.65625s.4878477.850357.3242188.605468c-.1540176-.230502.5003208.570261.4101562.498047v-1.460937a1.0001 1.0001 0 0 1 -.9863281-.8281251zm-.0136719 2.6367191v2.708984c0 .554.446 1 1 1h2 1.0292969.0664062c-.1118774-.323145-.1110341-.676607 0-1h-1.0957031-2v-1.763672c-.2449073-.161531-.4737586-.346806-.6816406-.554687-.1190474-.119048-.2139162-.258757-.3183594-.390625z" fill="#3a3a38"/><path d="m3 8.5v1a3.5000001 3.5000001 0 0 0 3.5 3.5v-.003906c.00816.000453.0151605.003906.0234375.003906h3.7675785l-2.1445316 2.144531c-.1958703.19578-.1958703.511176 0 .707031.1958702.19578.5111624.19578.7070312 0l3.0000004-3c.04897-.049129.084889-.103968.109375-.164062.02449-.06009.037109-.125579.037109-.189453 0-.06387-.012609-.127405-.037109-.1875-.02449-.06009-.060409-.11726-.109375-.166016l-2.4570316-2.457031c-.3280329.2453863-.7390422.340768-1.1328125.28125l2.0312501 2.03125h-3.7714845c-.00828 0-.0152735.003606-.0234375.003906v-.003906a2.5 2.5 0 0 1 -2.4648438-2.0839844c-.5930225-.2013055-1.0351562-.7645356-1.0351562-1.4160156z" fill="#1e8bcd"/><g transform="translate(1)"><path d="m3.5 0c-.277 0-.5.223-.5.5v1.5507812a2.5 2.5 0 0 0 -.8789062.3652344l-2.26562505-2.26562498c-.19586858-.19586857-.51116267-.19586857-.70703125 0-.1958686.19586858-.1958686.51116268 0 .70703126l2.265625 2.26562502a2.5 2.5 0 0 0 -.359375.8769531h-1.5546875c-.277 0-.5.223-.5.5s.223.5.5.5h1.5507812a2.5 2.5 0 0 0 .3652344.8769531l-2.2675781 2.2675781c-.1958685.1958687-.1958685.5111627 0 .7070313.19586857.1958685.51116267.1958685.70703125 0l2.26757815-2.2675781a2.5 2.5 0 0 0 .8769531.3613281v1.5546875c0 .277.223.5.5.5s.5-.223.5-.5v-1.5507812a2.5 2.5 0 0 0 .875-.3652344l2.2675781 2.2675781c.1958686.1958686.5111627.1958686.7070313 0s.1958686-.5111626 0-.7070313l-2.265625-2.265625a2.5 2.5 0 0 0 .3613281-.8789062h1.5546875c.277 0 .5-.223.5-.5s-.223-.5-.5-.5h-1.5507812a2.5 2.5 0 0 0 -.3652344-.8769531l2.265625-2.26562502c.1958686-.19586858.1958686-.51116268 0-.70703126-.1958686-.19586857-.5111627-.19586857-.7070313 0l-2.265625 2.26562498a2.5 2.5 0 0 0 -.8769531-.3613281v-1.5546875c0-.277-.223-.5-.5-.5zm0 3a1.5 1.5 0 0 1 1.5 1.5 1.5 1.5 0 0 1 -1.5 1.5 1.5 1.5 0 0 1 -1.5-1.5 1.5 1.5 0 0 1 .4394531-1.0585938 1.5 1.5 0 0 1 .0019531-.0019531 1.5 1.5 0 0 1 1.0585938-.4394531z" fill="#fb983b"/><circle cx="3.5" cy="4.5" fill="#fafafa" r="1.5"/></g></svg>