<svg viewBox="0 0 16 16" xmlns="http://www.w3.org/2000/svg"><path d="m15 1v14h-14c0 .554.446 1 1 1h13c.554 0 1-.446 1-1v-13c0-.554-.446-1-1-1z" fill="#3a3a38"/><path d="m1 1h13v13h-13z" fill="#fafafa"/><path d="m0 0v15h15v-15zm1 1h13v13h-13z" fill="#3a3a38"/><path d="m6 4a2 2 0 0 1 -2 2 2 2 0 0 1 -2-2 2 2 0 0 1 2-2 2 2 0 0 1 2 2z" fill="#ed8733" stroke-width=".8"/><path d="m5 4a1 1 0 0 1 -1 1 1 1 0 0 1 -1-1 1 1 0 0 1 1-1 1 1 0 0 1 1 1z" fill="#f8db8f"/><path d="m11 8-6 6h9v-3zm-6 2-4 4h2.5l2.75-2.75z" fill="#83beec"/><path d="m11 6.5-4 4-2-2-4 4v1.5l4-4 1.25 1.25-2.75 2.75h1.5l6-6 3 3v-1.5z" fill="#0063b1"/></svg>