<svg viewBox="0 0 16 16" xmlns="http://www.w3.org/2000/svg"><path d="m1 1v14h4.015625a1.5003801 1.5003801 0 0 1 -.015625-.201172v-11.298828a1.5003801 1.5003801 0 0 1 1.453125-1.5 1.5003801 1.5003801 0 0 1 .9765625.3222656l7.5703125 5.9765625v-7.2988281zm12.658203 11 .701172 1.498047a1.5003801 1.5003801 0 0 1 .042969.105469c.164096.433909.177648.93413.083984 1.396484h.513672v-3zm-4.7382811 2.490234-.5058594.509766h.7636719z" fill="#fafafa"/><path d="m0 0v16h5.6054688a1.5003801 1.5003801 0 0 1 -.5898438-1h-4.015625v-14h14v7.2988281l1 .7910157v-9.0898438zm16 11.857422a1.5003801 1.5003801 0 0 1 -.634766.142578h-.365234v3h-.513672c-.060158.296957-.156257.581288-.3125.8125-.047761.070678-.104445.124793-.15625.1875h1.982422zm-7.5859375 3.142578-.8496094.855469a1.5003801 1.5003801 0 0 1 -.1679687.144531h2.3164062c-.108587-.148984-.2025937-.31393-.2714844-.496094l.0625.144532-.3261718-.648438z" fill="#3a3a38"/><g fill-rule="evenodd"><path d="m6.484375 2.9980469a.5024107.5024107 0 0 0 -.4863281.5019531v11.298828a.5024107.5024107 0 0 0 .859375.353516l2.3300781-2.347656 1.207031 2.394531-.021484-.048828c.158804.419916.531583.682333.902344.787109.37076.104776.761012.086483 1.125-.023438.363987-.109911.714608-.315863.947265-.660156.232658-.344292.297621-.835262.123047-1.296875a.5024107.5024107 0 0 0 -.015625-.035156l-1.36914-2.919922h3.279296a.5024107.5024107 0 0 0 .310547-.896484l-8.8652341-7.0000002a.5024107.5024107 0 0 0 -.3261719-.1074219zm.515625 1.5351562 6.923828 5.4667969h-2.626953a.49993388.49993388 0 0 0 -.453125.712891l1.689453 3.605468c.07473.202298.046502.28018-.017578.375-.065075.0963-.214899.203939-.40625.261719s-.41156.059678-.560547.017578c-.148991-.042103-.206591-.093934-.238281-.177734a.49993388.49993388 0 0 0 -.019531-.046875l-1.5214848-3.017578a.49993388.49993388 0 0 0 -.8027343-.126953l-1.9667969 1.982422z" fill="#3a3a38"/><path d="m7 4.533203v9.052735l1.9667969-1.982422a.49993388.49993388 0 0 1 .8027343.126953l1.5214848 3.017578a.49993388.49993388 0 0 1 .01953.04687c.03169.0838.08929.135631.238281.177734.148987.0421.369196.0402.560547-.01758s.341175-.165419.40625-.261719c.06408-.09482.09231-.172702.01758-.375l-1.689454-3.605461a.49993388.49993388 0 0 1 .453125-.7128911h2.626953z" fill="#fafafa"/></g><path d="m5 10.5-4 4v.5h2l2-2zm8.658203 1.5.701172 1.498047a1.5003801 1.5003801 0 0 1 .042969.105469c.164096.433909.177648.93413.083984 1.396484h.513672v-3zm-4.7382811 2.490234-.5058594.509766h.7636719zm-3.9199219.009766-.5.5h.515625a1.5003801 1.5003801 0 0 1 -.015625-.201172z" fill="#83beec"/><path d="m5 9-4 4v1.5l4-4zm0 4-2 2h1.5l.5-.5z" fill="#0063b1"/><path d="m4 2c-1.1045695 0-2 .8954305-2 2s.8954305 2 2 2c.365911 0 .70494-.1057639 1-.2773438v-2.2226562a1.5003801 1.5003801 0 0 1 .3515625-.9648438c-.3564298-.3289167-.8283178-.5351562-1.3515625-.5351562z" fill="#ed8733" stroke-width=".8"/><path d="m5 4c0 .5522847-.4477153 1-1 1s-1-.4477153-1-1 .4477153-1 1-1 1 .4477153 1 1z" fill="#f8db8f"/></svg>