<svg viewBox="0 0 16 16" xmlns="http://www.w3.org/2000/svg"><path d="m2 1h12v14h-12z" fill="#fafafa"/><path d="m6.5 6c-.276142 0-.5.223858-.5.5s.223858.5.5.5h1c1.380712 0 2.5 1.119288 2.5 2.5h.0059v.423828 1.359375l-2.152343-2.144531a.50005.50005 0 0 0 -.359375-.152344.50005.50005 0 0 0 -.347657.859375l3.00586 2.994141a.50005.50005 0 0 0 .707031-.002l2.994141-2.992188a.50005.50005 0 1 0 -.707032-.707031l-2.140625 2.138672v-1.353516-.5c-.005941-2.1546159-1.88341-3.373751-3.5059-3.423781z" fill="#ed3d3b"/><path d="m2 0c-.554 0-1 .446-1 1v14c0 .554.446 1 1 1h12c.554 0 1-.446 1-1v-14c0-.554-.446-1-1-1zm0 1h12v14h-12z" fill="#3a3a38"/><path d="m3.4394531 3c-.2438019 0-.4394531.1956512-.4394531.4394531v.1210938c0 .2438019.1956512.4394531.4394531.4394531h9.1210939c.243802 0 .439453-.1956512.439453-.4394531v-.1210938c0-.2438019-.195651-.4394531-.439453-.4394531zm.025391 3c-.2570815 0-.4648441.2077626-.4648441.4648438v.070312c0 .2570816.2077626.4648442.4648438.4648442h1.0703124c.2570812 0 .4648438-.2077626.4648438-.4648438v-.0703124c0-.2570812-.2077626-.4648438-.4648438-.4648438zm0 3c-.2570815 0-.4648441.2077626-.4648441.4648438v.070312c0 .2570816.2077626.4648442.4648438.4648442h2.0703124c.2570812 0 .4648438-.2077626.4648438-.4648438v-.0703124c0-.2570812-.2077626-.4648438-.4648438-.4648438zm-.025391 4c-.2438019 0-.4394531.195651-.4394531.439453v.121094c0 .243802.1956512.439453.4394531.439453h9.1210939c.243802 0 .439453-.195651.439453-.439453v-.121094c0-.243802-.195651-.439453-.439453-.439453z" fill="#797774"/></svg>