<svg viewBox="0 0 16 16" xmlns="http://www.w3.org/2000/svg"><path d="m.49414062 5a.50005.50005 0 0 0 -.49414062.5v4a.50005.50005 0 0 0 .77734375.4160156l3.00000005-2a.50005.50005 0 0 0 0-.8320312l-3.00000005-2a.50005.50005 0 0 0 -.28320313-.0839844zm.50781248 1.4375 1.59375 1.0625-1.59375 1.0625zm4.4863281.5625c-.2687863 0-.4863281.2155886-.4863281.484375v.03125c0 .2687864.2175418.484375.4863281.484375h2.0273438c.2687864 0 .484375-.2155886.484375-.484375v-.03125c0-.2687864-.2155886-.484375-.484375-.484375zm4.0136719 0c-.277 0-.5.223-.5.5s.223.5.5.5h1.9980469c.277 0 .5-.223.5-.5s-.223-.5-.5-.5zm3.9980469 0c-.277 0-.5.223-.5.5s.223.5.5.5h1.998047c.277 0 .5-.223.5-.5s-.223-.5-.5-.5z" fill="#d42314"/><path d="m5.0001674 9c-.554 0-.9999846.446-1 1l-.000167 6h1l.000167-6h9.9998326l-.000167 6h1l.000167-6c.000015-.554-.446-1-1-1z" fill="#3a3a38"/><path d="m4.9997399 10-.000167 6h9.9998331l.000167-6z" fill="#fafafa"/><path d="m5.002 6c-.554 0-1.0783767-.4515722-1-1v-5h1v5h10.000214v-5h1v5c0 .554-.446 1-1 1z" fill="#3a3a38"/><path d="m5.0015725 0v5h10.0002135v-5z" fill="#fafafa"/><path d="m1.0019531 6.4375v2.125l1.59375-1.0625z" fill="#ff9198"/></svg>