<svg viewBox="0 0 16 16" xmlns="http://www.w3.org/2000/svg"><path d="m3 1v14h4.46875c-.2902574-.438741-.46875-.944208-.46875-1.5v-4c0-1.0733775.7005891-2.0277119 1.640625-2.6152344.9400359-.5875224 2.148553-.8847656 3.359375-.8847656.335692 0 .670334.0267195 1 .0722656v-2.0722656l-3-3z" fill="#fafafa"/><path d="m3 0c-.554 0-1 .446-1 1v14c0 .554.446 1 1 1h5.4902344c-.3987151-.273892-.7597284-.60434-1.0214844-1h-4.46875v-14h6v3.5c0 .277.223.5.5.5h3.5v1.0722656c.343516.0474597.675604.1260719 1 .2226563v-2.6582031l-3.636719-3.6367188zm7 1 3 3h-3z" fill="#3a3a38"/><path d="m12 7a4 2.5 0 0 0 -4 2.5v4c0 1.380712 1.790861 2.5 4 2.5s4-1.119288 4-2.5v-4a4 2.5 0 0 0 -4-2.5zm0 1a2.8050847 1.5 0 0 1 2.804688 1.5 2.8050847 1.5 0 0 1 -2.804688 1.5 2.8050847 1.5 0 0 1 -2.8046875-1.5 2.8050847 1.5 0 0 1 2.8046875-1.5zm3 3.148438v2.351562c0 .828344-1.450949 1.499883-3 1.5-1.54905-.000117-3-.671656-3-1.5v-2.349609a4 2.5 0 0 0 3 .849609 4 2.5 0 0 0 3-.851562z" fill="#ed8733"/><path d="m12 8a2.8050847 1.5 0 0 0 -2.8046875 1.5 2.8050847 1.5 0 0 0 2.8046875 1.5 2.8050847 1.5 0 0 0 2.804688-1.5 2.8050847 1.5 0 0 0 -2.804688-1.5zm3 3.148438a4 2.5 0 0 1 -3 .851562 4 2.5 0 0 1 -3-.849609v2.349609c0 .828344 1.45095 1.499883 3 1.5 1.549051-.000117 3-.671656 3-1.5z" fill="#f8db8f"/></svg>