<svg viewBox="0 0 16 16" xmlns="http://www.w3.org/2000/svg"><g transform="scale(-1 1)"><rect fill="#1e8bcd" height="1" ry=".5" width="10" x="-15" y="2"/><rect fill="#3a3a38" height="1" ry=".5" width="8" x="-15" y="5"/><g fill="#1e8bcd"><rect fill="#1e8bcd" height="1" ry=".5" width="10" x="-14.999999" y="10"/><rect fill="#3a3a38" height="1" ry=".5" width="8" x="-15" y="13"/></g></g><path d="m.25 11.000176c-.13849986 0-.25-.1115-.25-.25v-8.5000003c0-.1385.11150014-.25.25-.25h2.0507812l-.1367187-.138672c-.3255187-.317139-.11838-.872828.3359375-.861328.1300479.0041.2533701.05875.34375.152344l.9316406.912109c.1732889.160649.2230094.266429.2246094.435547-.0016.169118-.0513205.274898-.2246094.435547l-.9316406.9121092c-.0903799.093594-.2137021.1482438-.34375.1523438-.4543175.011504-.6614562-.5441894-.3359375-.8613281l.1367187-.1386719h-1.3007812v7.0000003h2.75c.1384999 0 .25.1115.25.25v.5c0 .1385-.1115001.25-.25.25z" fill="#1e8bcd" fill-rule="evenodd"/></svg>