<svg viewBox="0 0 16 16" xmlns="http://www.w3.org/2000/svg">/&amp;amp;amp;gt;<path d="m3 3h6v6h-6z" fill="#fafafa"/><path d="m13 0v3h3v-3zm1 1h1v1h-1z" fill="#0063b1"/><path d="m14 1h1v1h-1z" fill="#fafafa"/><path d="m7 6c-.554 0-1 .446-1 1v6c0 .554.446 1 1 1h.1113281c-.0149386-.052946-.0363373-.104658-.046875-.158203a.99841207.99841207 0 0 1 -.0625-.320313c-.000142-.0067.0061325-.012851.0078125-.019531v-.001953-.001953c-.00168-.0067-.0079525-.012821-.0078125-.019531a.99841207.99841207 0 0 1 .0625-.320313c.0105377-.053545.0319364-.105257.046875-.158203h-.1113281v-6h6v3.103516c.02864-.010705.052622-.030076.082031-.039063h.001953c.145663-.04432.300553-.0668309.458985-.0625h.001953.001953c.156378.004531.307822.040491.453125.091797v-3.09375c0-.554-.446-1-1-1z" fill="#3a3a38"/><path d="m0 13v3h3v-3zm1 1h1v1h-1z" fill="#0063b1"/><path d="m7 7v6h.1113281c.0499649-.177088.1197528-.350943.2558594-.507812h.0019531c.066991-.077221.1437728-.149067.2304688-.210938h.0019531c.086717-.06175.181491-.114597.28125-.158203h.0019531c.099769-.04348.2043769-.077079.3105469-.099609h.0019531c.106153-.0224.2143905-.034574.3203125-.033204h.0019531 3.6289068c-.127251-.362821-.167891-.746349-.029297-1.074218.05474-.129489.132152-.251668.226562-.363282.09368-.110956.204064-.211949.328125-.294922h.001953c.099015-.066087.211035-.111993.324219-.154296v-3.103516z" fill="#fafafa"/><path d="m1 14h1v1h-1z" fill="#fafafa"/><path d="m3 2c-.554 0-1 .446-1 1v6c0 .554.446 1 1 1h6c.554 0 1-.446 1-1v-6c0-.554-.446-1-1-1zm0 1h6v6h-6z" fill="#3a3a38"/><path d="m0 0v3h3v-3zm1 1h1v1h-1z" fill="#0063b1"/><g fill="#fafafa"><path d="m1 1h1v1h-1z"/><path d="m1 1h1v1h-1z"/></g><path d="m13.515638 11c.12976.0036.253031.05754.34375.150391l1.943359 1.941406c.13399.102438.198528.25604.195313.408203h.002c.0032.152164-.06132.305765-.195313.408203l-1.943359 1.941406c-.090767.09285-.214037.146791-.343797.150391-.457091.01443-.692129-.541569-.363281-.859375l1.130859-1.128906h-5.7792971c-.343417.0049-.509306-.255404-.503906-.511719h-.00195c-.0054-.256314.160489-.516576.503906-.511719h5.7792941l-1.130859-1.128906c-.328848-.317806-.093811-.873807.363281-.859375z" fill="#1e8bcd" fill-rule="evenodd"/></svg>