<svg viewBox="0 0 16 16" xmlns="http://www.w3.org/2000/svg">
/&amp;amp;gt;<path d="m3 1v14h6.2167969l-.3125-.140625a1.018315 1.018315 0 0 1 -.1171875-.0625l-2.2714844-1.40625a1.018315 1.018315 0 0 1 -.4609375-.650391l-.0839844-.390625a1.018315 1.018315 0 0 1 .4472657-1.072265l3.5292968-2.261719.4140624-.7558594a1.018315 1.018315 0 0 1 1.335938-.4257812l.292968.1425781 1.009766-2.09375v-2.1777344l-2.695312-2.7050781z" fill="#fafafa"/><path d="m3 0c-.554 0-1 .446-1 1v14c0 .554.446 1 1 1h2 1.0292969 2.9433593 2.0273438.332031l-1.103515-.542969-1.0117191-.457031h-3.015625-1.2011719-2v-14h6v3.5c0 .277.223.5.5.5h3.5v.8828125l.871094-1.8066406a1.018315 1.018315 0 0 1 .128906-.1992188v-.2402343l-3.636719-3.6367188h-.863281zm7 1 3 3h-3z" fill="#3a3a38"/><path d="m14.789062 4.5175781-2.324218 4.8183594-1.210938-.5859375-.539062.9824219-3.7480471 2.4023441.083984.390625 2.2714844 1.40625 1.3515624.609375.0039.002 1.330078.654297 2.53125.857422.353516-.183594-.53125-4.421875.414063-1.041016-1.222657-.5585936 2.234375-4.8613282z" fill="#3a3a38"/><path d="m10.714844 9.7324219-3.7480471 2.4023441.083984.390625 2.2714844 1.40625 1.3515624.609375.0039.002 1.330078.654297 2.53125.857422.353516-.183594-.53125-4.421875z" fill="#ed8733"/><path d="m10.995979 10.566279-2.6971509 1.72669 1.0886614.674075.7565905-.467044-.1666389.790049 1.0479499.473623c.0099.0044.01962.0089.0293.01367h.002l.833544.410399.609765-.852327-.165966 1.070834 1.587891.537109-.364565-3.029906z" fill="#f8db8f"/></svg>