<svg height="16" viewBox="0 0 4.2333332 4.2333335" width="16" xmlns="http://www.w3.org/2000/svg"><g stroke-width=".999999" transform="scale(.26458333)"><path d="m4.25 1c-.0935913 0-.1829088.0093-.2675781.0253906-.3841257.0967701-.643067.3195375-.8203125.6230469-.1037337.2063448-.1621094.4506118-.1621094.7265625v8.625h3.5957031l-.1523437-.134766a1.0001 1.0001 0 0 1 -.2050782-1.2519528l.25-.4296874.4980469-.8671876a1.0001 1.0001 0 0 0 .0019531-.0019531l.25-.4316406a1.0001 1.0001 0 0 1 1.1855469-.4453125l.90625.3066406.1894531-.9414062a1.0001 1.0001 0 0 1 .9804688-.8027344h.5 1c-.000028-.3452438.001916-.6563599.001953-1h-.001953v-2.5c0-.5483785.187035-1.071724.498047-1.4980469-.00474-.0004459-.008923-.0015273-.013672-.0019531z" fill="#fafafa"/><path d="m4.25 0c-1.3070985 0-2.25 1.1080268-2.25 2.375v8.625h1v-8.625c0-.8105197.4795983-1.375 1.25-1.375h8.25c.358412-.49020723.882091-.85101035 1.5-.95703125l-.716797-.04296875zm7.751953 5c-.000034.3436401-.002034.6537464-.001953 1h.5a1.0001 1.0001 0 0 1 .503906.1386719v-1.1386719z" fill="#3a3a38"/><path d="m1 12v1.5.125.044922h.0058594c.0149966.354331.2017656.683577.4804687.927734.2013815.186331.4502022.319.7285157.373047.0925128.018898.1877597.031099.2851562.03125l4.6699219-.001953-.1816407-.314453a1.0001 1.0001 0 0 0 -.0019531-.001953l-.4980469-.867188-.25-.429687a1.0001 1.0001 0 0 1 .2050782-1.251953l.1503906-.132813z" fill="#d492d8"/><path d="m14 .04296875c-1.155778.19830858-2 1.27665435-2 2.45703125v2.5h4v-2.5c0-1.1803769-.844222-2.25872265-2-2.45703125zm0 1.03320315c.225366.079495.431939.2209826.597656.4101562.186331.2013816.319.450195.373047.7285157.0189.092515.0311.1877578.03125.2851562h-.001953v1.5c-.666667 0-1.333333 0-2 0v-1.5h-.002c.000151-.097398.01235-.1926411.03125-.2851562.05405-.2783207.186716-.5271341.373047-.7285157.165772-.1891736.372337-.3306615.597703-.4101562z" fill="#922e9b"/><path d="m14 1.0761719c.225366.079495.431939.2209826.597656.4101562.186331.2013816.319.450195.373047.7285157.0189.092515.0311.1877578.03125.2851562h-.001953v1.5h-2v-1.5h-.002c.000151-.097398.01235-.1926411.03125-.2851562.05405-.2783207.186716-.5271341.373047-.7285157.165772-.1891736.372337-.3306615.597703-.4101562z" fill="#d492d8"/><path d="m0 11v2.5h.01171875c-.00246089.041932-.01171875.082717-.01171875.125 0 1.346003 1.1942339 2.375 2.5 2.375h6.9804688l-.1503907-.744141-.90625.306641a1.0001 1.0001 0 0 1 -1.1855469-.445312l-.0683593-.117188-4.6699219.001953c-.0973965-.000151-.1926433-.012352-.2851562-.03125-.2783135-.054047-.5271342-.186716-.7285157-.373047-.2787031-.244157-.4654721-.573403-.4804687-.927734h-.0058594v-.044922-.125-1.5h5.5957031l.5683594-.5-.5683594-.5z" fill="#922e9b"/></g><path d="m2.7781251 1.8520834-.1090372.5441529-.5250326-.177767-.0661459.1142049-.1322916.2294434-.0661459.1142047.4165121.366386-.4165121.366386.0661459.1142048.1322916.2294435.0661459.1142047.5250326-.1777669.1090372.5441529h.1322916.2645834.1322916l.1090372-.5441529.5250326.1777669.0661458-.1142047.1322917-.2294435.0661458-.1142048-.4165119-.366386.4165119-.366386-.0661458-.1142047-.1322917-.2294434-.0661458-.1142049-.5250326.177767-.1090372-.5441529h-.1322916-.2645834zm.2315104.2645833h.066146l.099219.396875h.173116l.086816.1498616.3932576-.1121378.033073.056844-.2940389.2847372.086816.1498615-.086816.1498616.2940389.2847372-.033073.056844-.3932575-.1121376-.0868165.1498616h-.173116l-.0992188.396875h-.0661458l-.0992188-.396875h-.1731161l-.0868164-.1498616-.3932576.1121378-.0330729-.0568441.2940389-.2847372-.0868164-.1498616.0868164-.1498615-.2940389-.2847372.0330729-.0568441.3932576.1121378.0868164-.1498616h.1731161zm.033073.5291666a.396875.396875 0 0 0 -.396875.396875.396875.396875 0 0 0 .396875.396875.396875.396875 0 0 0 .396875-.396875.396875.396875 0 0 0 -.396875-.396875zm0 .2645834a.13229167.13229167 0 0 1 .1322916.1322916.13229167.13229167 0 0 1 -.1322917.1322917.13229167.13229167 0 0 1 -.1322917-.1322917.13229167.13229167 0 0 1 .1322918-.1322916z" fill="#1e8bcd"/><path d="m3.0096355 2.1166667h.066146l.099219.396875h.173116l.086816.1498616.3932576-.1121378.033073.056844-.2940389.2847372.086816.1498615-.086816.1498616.2940389.2847372-.033073.056844-.3932575-.1121376-.0868165.1498616h-.173116l-.0992188.396875h-.0661458l-.0992188-.396875h-.1731161l-.0868164-.1498616-.3932576.1121378-.0330729-.0568441.2940389-.2847372-.0868164-.1498616.0868164-.1498615-.2940389-.2847372.0330729-.0568441.3932576.1121378.0868164-.1498616h.1731161zm.033073.5291666c-.219188 0-.396875.1776871-.396875.396875 0 .219188.177687.396875.396875.396875s.396875-.177687.396875-.396875c0-.2191879-.177687-.396875-.396875-.396875z" fill="#fafafa"/></svg>