<svg viewBox="0 0 16 16" xmlns="http://www.w3.org/2000/svg">/&amp;amp;gt;<path d="m8 0a8 8 0 0 0 -4.5039062 1.3867188l.7226562.7226562a7 7 0 0 1 3.78125-1.109375 7 7 0 0 1 7 7 7 7 0 0 1 -1.115234 3.775391l.722656.722656a8 8 0 0 0 1.392578-4.498047 8 8 0 0 0 -8-8zm-6.6074219 3.5019531a8 8 0 0 0 -1.3925781 4.4980469 8 8 0 0 0 8 8 8 8 0 0 0 4.503906-1.386719l-.722656-.722656a7 7 0 0 1 -3.78125 1.109375 7 7 0 0 1 -7-7 7 7 0 0 1 1.1152344-3.7753906z" fill="#3a3a38"/><path d="m8 1a7 7 0 0 0 -3.78125 1.109375l9.666016 9.666016a7 7 0 0 0 1.115234-3.775391 7 7 0 0 0 -7-7zm-5.8847656 3.2246094a7 7 0 0 0 -1.1152344 3.7753906 7 7 0 0 0 7 7 7 7 0 0 0 3.78125-1.109375z" fill="#fafafa"/><path d="m10 3-3.0566406 1.8339844.7226562.7226562 2.3339844-1.2753906v3.609375l1 1v-.890625-4.53125-.46875zm-6 3.109375v3.890625h1l5 3h.890625l-1.7519531-1.751953-3.1386719-1.716797v-1.421875z" fill="#3a3a38"/><path d="m.6969055-.010202-.707107.7071068 15.3137085 15.3137082.707107-.707107z" fill="#ed3d3b"/></svg>