<svg viewBox="0 0 16 16" xmlns="http://www.w3.org/2000/svg">/&amp;amp;amp;gt;<path d="m1 1h14v13h-14z" fill="#fafafa"/><path d="m0 0v14.5c-.00038442.276301.22369855.500384.5.5h15c.276301.000384.500384-.223699.5-.5v-14.5zm1 1h14c-.000393 4.3339844.0011 8.6679687.002 13.001953h-14.00395312z" fill="#3a3a38"/><path d="m7 1v3h1v-3zm1 7.9960938-1 .00195v.0019562h1zm-1 1.0039062v4h1v-4z" fill="#797774"/><g fill="#0063b1"><path d="m1 4v1h14v-1zm-.002 6-.001953 1h14.001953l.002-1z"/><path d="m0 4h1l-.002 7h-1z"/><path d="m15 4h1l-.002 7h-1z"/></g></svg>