<svg viewBox="0 0 16 16" xmlns="http://www.w3.org/2000/svg">/&amp;amp;gt;<path d="m8 0a8 8 0 0 0 -8 8 8 8 0 0 0 8 8 8 8 0 0 0 8-8 8 8 0 0 0 -8-8zm0 1a7 7 0 0 1 7 7 7 7 0 0 1 -7 7 7 7 0 0 1 -7-7 7 7 0 0 1 7-7z" fill="#3a3a38"/><path d="m15 8a7 7 0 0 1 -7 7 7 7 0 0 1 -7-7 7 7 0 0 1 7-7 7 7 0 0 1 7 7z" fill="#fafafa"/><path d="m8.0000003.500196c-4.1382416 0-7.5000003 3.3617148-7.5000003 7.4999011 0 4.1381889 3.3617587 7.4999049 7.5000003 7.4999029 4.1382417 0 7.5000047-3.361714 7.5000007-7.4999029 0-4.1381863-3.361759-7.4999011-7.5000007-7.4999011z" fill="none"/><path d="m3.9999998 3.9842299v4.0157701h2.0000002v-2.0157698l4 .01577v2.9999988l-2 .000001v-2l-3.9999998 3.000001 3.9999998 2.999998v-1.999998l4-.000001v-7z" fill="#3a3a38"/></svg>