<svg viewBox="0 0 16 16" xmlns="http://www.w3.org/2000/svg"><path d="m2 3v2h-2v2h2v2h2v-2h2v-2h-2v-2z" fill="#18ab50"/><path d="m16.530281 7.2641342q0 1.6270148-.340538 2.8283568-.340538 1.191883-.936479 1.977013-.595942.775669-1.409449 1.163504-.804048.378376-1.731068.378376-.927021 0-1.731069-.378376-.8040476-.387835-1.399989-1.163504-.5864821-.78513-.9270201-1.977013-.340538-1.201342-.340538-2.8283568 0-1.6270148.340538-2.8188978.340538-1.2013423.9270201-1.9864715.5959414-.7851293 1.399989-1.1635048.804048-.38783493 1.731069-.38783493.92702 0 1.731068.38783493.813507.3783755 1.409449 1.1635048.595941.7851292.936479 1.9864715.340538 1.191883.340538 2.8188978zm-1.645934 0q0-1.4189083-.227025-2.3743065-.227025-.9648576-.61486-1.5513397-.378376-.5864821-.879723-.8418856-.501348-.2554035-1.049992-.2554035-.548645 0-1.049993.2554035-.491888.2554035-.879723.8418856-.3783752.5864821-.6054006 1.5513397-.2270253.9553982-.2270253 2.3743065 0 1.4189083.2270253 2.3837659.2270254.9553979.6054006 1.5418799.387835.586482.879723.841886.501348.245944 1.049993.245944.548644 0 1.049992-.245944.501347-.255404.879723-.841886.387835-.586482.61486-1.5418799.227025-.9648576.227025-2.3837659z" fill="#3a3a38" transform="scale(.9074256 1.1020187)"/><path d="m0 11h6v2h-6z" fill="#ed3d3b"/></svg>