<svg viewBox="0 0 16 16" xmlns="http://www.w3.org/2000/svg">
/&amp;amp;gt;<g fill="#fafafa" stroke="none"><path d="m11 3c-.545351 0-1 .4546486-1 1v8c0 .545351.454649 1 1 1h2c.545351 0 1-.454649 1-1v-8c0-.5453514-.454649-1-1-1zm0 .9980469h2l.001953.0019531v8l-.001953.001953h-2l-.001953-.001953v-8z" fill="#3a3a38"/><path d="m3.4667969 3.0019531a.4979974.4979974 0 0 0 -.4648438.4980469v9a.4979974.4979974 0 0 0 .8320313.371094l5-4.5000002a.4979974.4979974 0 0 0 0-.7421876l-5-4.5a.4979974.4979974 0 0 0 -.3183594-.1269531.4979974.4979974 0 0 0 -.0488281 0zm.5332031 1.6191407 3.7539062 3.3789062-3.7539062 3.378906z" fill="#3a3a38" fill-rule="evenodd"/><path d="m11 3.9980469s-.002.00195-.002.00195v8s.002.002.002.002h2s.002-.002.002-.002v-7.9999969s-.002-.00195-.002-.00195z"/><path d="m4 4.6210938v6.7578122l3.7539062-3.378906z" fill="#fafafa" fill-rule="evenodd"/></g></svg>