<svg viewBox="0 0 16 16" xmlns="http://www.w3.org/2000/svg">


/&amp;amp;amp;amp;gt;<g fill="#3a3a38"><path d="m4.3418198 1-4.3418198 3.6008301.4970368.1400802c.0613078.092059.1657963.1623444.3156612.211914.156677.042489.3178498-.00705.4813389-.1486815l2.7059631-2.0815431c-.020439.2974204-.029207.5834434-.029645.8596192l.029645 9.6677811v.350342 1.399658h1v-1.399658-12.600342z"/><path d="m11.642525.9531435c-.581923 0-1.119191.082048-1.617188.2480469-.4892301.1656028-.9205381.4088727-1.2968739.7304687-.3755861.3209555-.6901655.7225788-.9472656 1.2089844-.2139628.410537-.3570163.8944785-.4492187 1.4296875l.6933593.1113281c.2197359.030595.3637629.00508.4316407-.029297.063331-.035262.1366618-.1203633.1855469-.328125-.0000025-.00065-.0000025-.0013 0-.00195.0785963-.3301074.2039015-.6370552.3789062-.9160186l.00195-.00195c.174284-.2845962.386734-.5265381.634769-.7265656.2485375-.2077664.5338641-.3712279.8515611-.4824219.320614-.1194056.667846-.1777344 1.035156-.1777344.375022 0 .727759.056335 1.054688.1679688.32999.1126794.864706.3856121 1.109429.6212695.247921.2313936.438734.5235303.574218.8652344.14593.3493432.216797.7459044.216797 1.1875.0092.987109-.640601 1.8928781-.945366 2.3162305.000003.00065.000003.0013 0 .00195-.219818.3714208-.487774.741924-.802734 1.1093781-.303802.3629553-.64669.7369883-1.029297 1.1269531h.002l-4.4550772 4.597656c-.00255.0027-.00515.0053-.00781.0078-.098959.09314-.1623493.189581-.1992188.294922-.0006386.0013-.00129.0026-.00195.0039-.042514.115394-.060547.21816-.060547.308594v.373047h8.902343v-.855469c0-.139728-.03035-.208144-.09375-.267578-.002-.0019-.004-.0039-.0059-.0059-.06649-.06649-.146045-.09961-.294922-.09961h-4.564465c-.241957 0-.500656.01858-.773438.06055-.2653446.04198-.5311071.104143-.7988271.18164-.2452605.07186-.4270364-.227787-.25-.412109l3.6894531-3.84375c-.000003-.00065-.000003-.0013 0-.00195.384145-.398588.750484-.7910814 1.097656-1.1815868l.002-.00195c.341418-.3914222.637435-.7893824.892578-1.1933593.000655-.00131.0013-.00261.002-.00391.259129-.399342.460892-.8137586.607328-1.2460931-.000003-.00065-.000003-.0013 0-.00195.150821-.4318941.228516-.8990171.228516-1.40625 0-.6062807-.103631-1.1355474-.306641-1.5957031-.00001-.0013-.00001-.00261 0-.00391-.198696-.4659075-.474139-.8536915-.826172-1.1718745-.35351-.3195183-.771395-.565632-1.261719-.7382812-.48936-.17231-1.022807-.2578125-1.603515-.2578125z"/></g></svg>