<svg viewBox="0 0 16 16" xmlns="http://www.w3.org/2000/svg"><path d="m1 2h14v11h-14z" fill="#fafafa"/><g fill="#3a3a38"><path d="m0 1v13h16v-13zm1 1h14v11h-14z"/><path d="m4 4c-.554 0-1 .446-1 1v1c0 .554.446 1 1 1h1c.554 0 1-.446 1-1v-1c0-.554-.446-1-1-1zm4.5 0c-.277 0-.5.223-.5.5s.223.5.5.5h4c.277 0 .5-.223.5-.5s-.223-.5-.5-.5zm-4.5 1h1v1h-1zm4.5 1c-.277 0-.5.223-.5.5s.223.5.5.5h4c.277 0 .5-.223.5-.5s-.223-.5-.5-.5zm-4.5 2c-.554 0-1 .446-1 1v1c0 .554.446 1 1 1h1c.554 0 1-.446 1-1v-1c0-.554-.446-1-1-1zm4.5 0c-.277 0-.5.223-.5.5s.223.5.5.5h4c.277 0 .5-.223.5-.5s-.223-.5-.5-.5zm-4.5 1h1v1h-1zm4.5 1c-.277 0-.5.223-.5.5s.223.5.5.5h4c.277 0 .5-.223.5-.5s-.223-.5-.5-.5z"/></g></svg>