<svg viewBox="0 0 16 16" xmlns="http://www.w3.org/2000/svg">







     /&amp;amp;amp;amp;amp;amp;amp;gt;
 <path d="m5.1269531 0-4.16796872 8.1230469c-.17091456.1889055-.46783639.3019086-.890625.3378906l-.06835938.5390625h3.0488281l.0683594-.5390625c-.4947526-.0629685-.8551906-.1993535-1.0800781-.40625l1.0488281-2.0546875h2.6425781l.3574219 2.1230469c-.1529235.161919-.4498454.2749221-.890625.3378906l-.0820313.5390625h3.7246094l.0546875-.5390625c-.3868066-.0629685-.6295651-.2161058-.7285156-.4589844l-1.6328125-8.0019531zm-.0527343 2.1054688.4863281 2.8945312h-1.9648438z" fill="#1e8bcd" transform="matrix(1.0000000059 0 0 1.0000000059 .000000079 -.0000002594)"/><path d="m12.392578 9-2.6249999 7h.7499999c.08169 0 .152161-.022189.208984-.068359.060381-.04617.09979-.09978.121094-.160157l.625-1.771484h2.824219l.626953 1.775391c.02841.06392.06747.117536.117188.160156.053273.042621.121795.064453.207031.064453h.751953l-2.621094-7zm.490234.9160156c.03197.1314054.06605.2535394.101563.3671874.03552.113648.07191.213592.107422.298828l.853515 2.417969h-2.121093l.851562-2.412109c.03197-.08524.06605-.18518.101563-.298829.03552-.113647.069961-.238089.105468-.3730464z" fill="#3a3a38"/><path d="m15.5 4.5-11 11" fill="none" stroke="#3a3a38" stroke-linecap="round" stroke-linejoin="round"/></svg>