<svg viewBox="0 0 16 16" xmlns="http://www.w3.org/2000/svg">
/&amp;amp;gt;<g fill="none" stroke="none" stroke-linecap="round" stroke-linejoin="round"><path d="m12.478516 0a.50012147.50012147 0 0 0 -.144532.03125l-12.00781212 4.4648438a.50012147.50012147 0 0 0 -.27929688.6796874l4.7363281 10.1406248a.50012147.50012147 0 0 0 .0371094.066406l.2636719.394532a.50012147.50012147 0 0 0 .4160156.222656h10a.50012147.50012147 0 0 0 .324219-.880859l-2.511719-2.128907-2.154297-4.8847652a.50012147.50012147 0 0 0 -.009765-.0234376l-.136719-.2714843.085937-.3398438 1.892578-6.8378906a.50012147.50012147 0 0 0 -.511718-.6328125zm-.716797 1.3144531-1.632813 5.8945313a.50207163.50207163 0 0 0 -.001953.0136718l-.1308592.5253907a.50207163.50207163 0 0 0 .0371092.3457031l.212891.4257812 2.195312 4.9804688a.50207163.50207163 0 0 0 .134766.179688l1.554687 1.318359h-8.3632809l-.0917969-.140625-4.4902343-9.6113282z" fill="#3a3a38"/><path d="m11.761719 1.3144531-10.5761721 3.9316407 4.4902343 9.6113282.0917969.140625h8.3632809l-1.554687-1.318359a.50207163.50207163 0 0 1 -.134766-.179688l-2.195312-4.9804688-.212891-.4257812a.50207163.50207163 0 0 1 -.0371092-.3457031l.1308592-.5253907a.50207163.50207163 0 0 1 .002-.013672z" fill="#fafafa"/></g></svg>