<svg viewBox="0 0 16 16" xmlns="http://www.w3.org/2000/svg">/&amp;amp;amp;amp;amp;amp;amp;gt;<path d="m2 2c-.554 0-1 .446-1 1v12c0 .554.446 1 1 1h.5175781c-.2317923-.304171-.3959039-.660853-.4707031-1.046875.002858.015238.000759.031729.0039062.046875h-.0507812v-.5-2-9.5h1v-1zm11 0v1h1v7h.5c.170963 0 .338145.017149.5.050781v-7.050781c0-.554-.446-1-1-1zm-10.3886719 8.888672c-.0140069.016211-.027415.03227-.0410156.048828.0134339-.016501.0271775-.032672.0410156-.048828zm-.2910156.419922c-.0236846.042191-.0471132.083347-.0683594.126953.0208989-.043439.0450611-.084906.0683594-.126953zm-.2109375.503906c-.0131188.044147-.0303716.085758-.0410156.130859.0104894-.044938.0280991-.086843.0410156-.130859zm7.390625 3.988281c-.0467304.071239-.1063065.131929-.1582031.199219h.3164062c-.0518966-.06729-.1114727-.12798-.1582031-.199219z" fill="#ed8733"/><path d="m2 3v9.5c0-.805523.3977011-1.523442 1-1.982422v-6.517578-1zm11 0v1 6h1v-7zm-8.5 7c-.1553779 0-.3056841.018305-.453125.046875.1476159-.027767.2981605-.046875.453125-.046875zm-.6445312.097656c-.0759203.021327-.1516712.042021-.2246094.070313.0731166-.027746.1485403-.049482.2246094-.070313zm-.4472657.169922c-.0483004.024366-.0960197.048867-.1425781.076172.0465856-.027009.0942113-.052146.1425781-.076172zm-1.4082031 4.232422v.5h.0507812c-.0336324-.161855-.0507812-.329037-.0507812-.5z" fill="#f8db8f"/><path d="m3 4v6.517578c.4203488-.320325.9378199-.517578 1.5-.517578h3c.8691729 0 1.5537647.518946 2 1.199219.4462353-.680273 1.130827-1.199219 2-1.199219h1.5v-6c0 .554-.446 1-1 1h-8c-.554 0-1-.446-1-1z" fill="#fafafa"/><path d="m8 0a2 2 0 0 0 -2 2h-2v2h4 4v-2h-2a2 2 0 0 0 -2-2zm0 1a1 1 0 0 1 1 1 1 1 0 0 1 -1 1 1 1 0 0 1 -1-1 1 1 0 0 1 .0058594-.0996094 1 1 0 0 1 .9941406-.9003906z" fill="#3a3a38"/><g fill="#1e8bcd"><path d="m4.5 11c-.831 0-1.5.669-1.5 1.5v2c0 .831.669 1.5 1.5 1.5h3c.6542402 0 1.2021974-.418077 1.4082031-1h-1.9082031-2c-.554 0-1-.401791-1-.900391v-1.199218c0-.4986.446-.900391 1-.900391h2 1.9082031c-.2060057-.581923-.7539629-1-1.4082031-1z"/><path d="m14.5 11c.831 0 1.5.669 1.5 1.5v2c0 .831-.669 1.5-1.5 1.5h-3c-.65424 0-1.202197-.418077-1.408203-1h1.908203 2c.554 0 1-.401791 1-.900391v-1.199218c0-.4986-.446-.900391-1-.900391h-2-1.908203c.206006-.581923.753963-1 1.408203-1z"/><path d="m6 13h7v1h-7z"/></g></svg>