<svg viewBox="0 0 16 16" xmlns="http://www.w3.org/2000/svg">/&amp;gt;<g fill="#3a3a38"><path d="m5.0820312 2.9980469-5.0820312 10.0097651h1.0429688c.1117386 0 .2124845-.030846.2988281-.091796.0863435-.066024.1488208-.142172.1894531-.228516l1.3261719-2.6875h4.1054687l.65625 2.6875c.025395.101583.070691.180461.1367188.236328.066027.05587.1593532.083984.28125.083984h1.0371094l-2.6289063-10.0097651zm.5332032 1.2558593c.025395.1828453.0535103.3570023.0839844.5195313.035553.15745.0664018.296072.0917968.4179687l.9296875 3.8085938h-3.3691406l1.875-3.8007812c.0558693-.1218969.1156132-.2632522.1816406-.4257813.0660275-.162529.1359249-.3366861.2070313-.5195313z"/><path d="m15.123867 13.008123h-.700906q-.266649 0-.358072-.129515-.09142-.137134-.07619-.327597l.137134-1.584658q-.289504.487587-.624721.883751-.327597.396165-.700906.678051-.36569.281886-.78471.434257-.411402.152371-.853278.152371-.487587 0-.883751-.175227-.388542-.175226-.6704283-.510442-.2742677-.342835-.4266387-.83804-.1447524-.502825-.1447524-1.150401 0-.6551952.1752266-1.279916.1828452-.6247209.5028238-1.1732564.327598-.5561539.784711-1.0208853.457113-.4647314 1.013267-.7999475.556154-.3352161 1.20373-.5180612.647577-.1904637 1.348483-.1904637.502824 0 .990411.076185.487587.068567.9447.2666491zm-3.466439-1.005648q.396164 0 .777092-.220938.380927-.228556.716143-.632339.342835-.403783.63234-.952319.297123-.548535.518061-1.2037301l.304742-2.5065021q-.175227-.038093-.358072-.045711-.182845-.015237-.358072-.015237-.723762 0-1.36372.3123605-.639958.3047419-1.119926.8304216-.479969.5180613-.761855 1.2037305-.274268.6856693-.274268 1.4399046 0 1.790359 1.287535 1.790359z"/></g></svg>