<svg viewBox="0 0 16 16" xmlns="http://www.w3.org/2000/svg">/&amp;gt;<path d="m3 0c-.554 0-1 .446-1 1v14c0 .554.446 1 1 1h10c.221483 0 .414716-.08606.580078-.207031l-.796875-.792969h-2.28125-.001953-7.5v-14h10v5.765625c.38424.2586333.711424.5861819 1 .9472656v-6.7128906c0-.554-.446-1-1-1z" fill="#3a3a38"/><path d="m10.5 7a3.5 3.5 0 0 0 -3.5 3.5 3.5 3.5 0 0 0 3.5 3.5 3.5 3.5 0 0 0 2.035156-.65625l2.501953 2.488281a.56140807.56140807 0 1 0 .791016-.796875l-2.498047-2.482422a3.5 3.5 0 0 0 .669922-2.052734 3.5 3.5 0 0 0 -3.5-3.5zm0 1a2.5 2.5 0 0 1 2.5 2.5 2.5 2.5 0 0 1 -2.5 2.5 2.5 2.5 0 0 1 -2.5-2.5 2.5 2.5 0 0 1 2.5-2.5z" fill="#1e8bcd"/><g fill="#fafafa"><circle cx="10.5" cy="10.5" r="2.5"/><path d="m3 1v14h7.5c-.30918 0-.6121674-.031552-.9042969-.091797-2.0449062-.421713-3.5957031-2.243946-3.5957031-4.408203 0-2.4734367 2.0265633-4.5 4.5-4.5.275913 0 .544039.03363.806641.082031.08288.01522.162869.034949.24414.054688.190071.046272.374699.1041016.554688.1738281.07451.028826.148133.057212.220703.089844.228613.1028198.449469.2176047.65625.3554688.0056.0037.01204.00604.01758.00977l-.000002-5.7656299zm7.5 8c-.7352378 0-1.3329389.5041668-1.4707031 1.193359-.0196806.098456-.0292969.201607-.0292969.306641 0 .840272.6597282 1.5 1.5 1.5.840272 0 1.5-.659728 1.5-1.5 0-.8402718-.659728-1.5-1.5-1.5zm1.724609 5.445312c-.560971.243826-1.104413.553767-1.722656.554688h2.28125z"/></g></svg>