<svg viewBox="0 0 16 16" xmlns="http://www.w3.org/2000/svg"><g fill="#3a3a38"><rect height="1" ry=".380151" width="7" x="1" y="4"/><rect height="1" ry=".440076" width="7" x="1" y="10"/><rect height="1" ry=".5" width="8" x="1" y="12"/><rect height="1" ry=".47603" width="8" x="1" y="6"/></g><g fill="#1e8bcd" fill-rule="evenodd"><path d="m8.9998199 12.484375c-.011504.454318.5402829.686847.8574219.361328l2.1445312-2.148437-.002 4.777343c-.017903.350177.241558.525391.500047.525391s.51795-.175214.5-.525391l-.0019-4.777343 2.144531 2.148437c.317139.325519.868926.09299.857422-.361328-.0041-.130048-.05875-.25337-.152344-.34375l-2.912162-2.916016c-.160649-.173289-.266429-.223009-.435547-.224609-.169118.0016-.274898.05132-.435547.224609l-2.9121093 2.916016c-.093594.09038-.1482439.213702-.1523438.34375z"/><path d="m8.9998199 3.515625c-.0115041-.454318.5402829-.686847.8574219-.361328l2.1445312 2.148437-.002-4.777343c-.017903-.350177.241558-.525391.500047-.525391s.51795.175214.5.525391l-.0019 4.777343 2.144531-2.148437c.317139-.325519.868926-.09299.857422.361328-.0041.130048-.05875.25337-.152344.34375l-2.912162 2.916016c-.160649.173289-.266429.223009-.435547.224609-.169118-.0016-.274898-.05132-.435547-.224609l-2.9121093-2.916016c-.0935941-.09038-.1482439-.213702-.1523438-.34375z"/></g></svg>