<svg viewBox="0 0 16 16" xmlns="http://www.w3.org/2000/svg">/&amp;amp;amp;amp;amp;amp;gt;<path d="m2 2c-.554 0-1 .446-1 1v12c0 .554.446 1 1 1h12c.554 0 1-.446 1-1v-12c0-.554-.446-1-1-1h-1v1h1v12h-12v-12h1v-1z" fill="#ed8733"/><path d="m2 3v12h12v-12h-1v1 10h-10v-10-1z" fill="#f8db8f"/><path d="m3 4v10h10v-10c0 .554-.446 1-1 1h-8c-.554 0-1-.446-1-1z" fill="#fafafa" stroke-width="1.118034"/><g fill="#3a3a38"><path d="m8 0a2 2 0 0 0 -2 2h-2v2h4 4v-2h-2a2 2 0 0 0 -2-2zm0 1a1 1 0 0 1 1 1 1 1 0 0 1 -1 1 1 1 0 0 1 -1-1 1 1 0 0 1 .0058594-.0996094 1 1 0 0 1 .9941406-.9003906z"/><path d="m6 5v2h-3v2 2 1 2h3v-2-1-2-1h2 1 2 2v-3h-2-2-1zm1 1h1v1h-1zm2 0h1v1h-1zm2 0h1v1h-1zm-7 2h1v1h-1zm0 2h1v1h-1zm0 2h1v1h-1z"/></g></svg>