<svg viewBox="0 0 16 16" xmlns="http://www.w3.org/2000/svg">/&amp;amp;gt;<path d="m8.5 1.0058594c-2.1863827.0001356-4.2852105.7609318-5.859375 2.0097656s-2.63457648 3.0114586-2.63476562 4.984375c.00037405 3.898924 3.62137292 6.993869 7.99414062 6.994141 4.413413-.000275 7.993766-3.595221 7.994141-7.494141a.50444795.50444795 0 0 0 -.503907-.5039062h-6.4863278v-5.4863282a.50444795.50444795 0 0 0 -.5039062-.5039062zm-.5 1.0898437v5.4042969a.50005.50005 0 0 0 .5.5h6.431641c-.29865 3.091473-3.267533 5.990007-6.931641 5.990234-3.902463-.000242-6.9899204-2.717692-6.9902344-5.990234.0001547-1.6130226.8663689-3.096489 2.2539063-4.1972656 1.2648698-1.0034607 2.9696236-1.5974365 4.7363281-1.7070313z" fill="#3a3a38"/><path d="m8 2.0957031c-1.7667045.1095948-3.4714583.7035706-4.7363281 1.7070313-1.3875374 1.1007766-2.2537516 2.584243-2.2539063 4.1972656.000314 3.272542 3.0877714 5.989992 6.9902344 5.990234 3.664108-.000227 6.632991-2.898761 6.931641-5.990234h-6.431641a.50005.50005 0 0 1 -.5-.5z" fill="#fafafa"/></svg>