<svg viewBox="0 0 16 16" xmlns="http://www.w3.org/2000/svg"><path d="m8 8v3h2v1.666667c0 .920475-1.116352 1.666666-2 1.666666v1.666667c1.767312 0 2.962774-1.492762 3-3.333333v-1.666667-1.333333-1.666667zm5 0v3h1.400001v1.666667c0 .920475-.516352 1.666666-1.400001 1.666666v1.666667c1.767312 0 3-1.492385 3-3.333333v-1.666667-1.333333-1.666667z" fill="#1e8bcd"/><path d="m5.3066406 1.0058594c-.7868458 0-1.5073656.1460757-2.1601562.4375-.6527906.2855958-1.2114554.6902797-1.6777344 1.2148437-.466279.5187354-.8275309 1.1385956-1.08398438 1.8613281-.25645347.7169041-.38476562 1.5045405-.38476562 2.3613282 0 .8626162.12831215 1.6522366.38476562 2.3691406.25645348.716904.61770538 1.33478 1.08398438 1.853516.466279.518735 1.0249438.923419 1.6777344 1.214843.6527906.285596 1.3733104.429688 2.1601562.429688.7577035 0 1.4545386-.134234 2.0898438-.402344l.8105468.941406c.1673728-.043293.3595225-.114456.5117188-.232421.2199742-.170502.28125-.332702.28125-.388672v-.658204l-.0058594-.007812h-.9941406a1.0001 1.0001 0 0 1 -1-1v-.039062c-.0625513.033113-.11619.078053-.1816406.107421-.4487936.203997-.9521839.306641-1.5117188.306641-.5595348 0-1.0668623-.102644-1.5214844-.306641-.4487935-.203997-.83373-.498132-1.1542968-.882812-.3205669-.3905088-.567333-.8623094-.7421875-1.4160158-.1690264-.5595348-.2539063-1.1892533-.2539063-1.8886718 0-.6994186.0848799-1.3251999.2539063-1.8789063.1748545-.5595348.4216206-1.0332885.7421875-1.4179687.3205668-.3905086.7055033-.6866279 1.1542968-.890625.4546221-.2098256.9619496-.3144532 1.5214844-.3144532.5595349.0000001 1.0629252.1046276 1.5117188.3144532.454622.2039971.8395585.5001164 1.1542968.890625.3205669.3846802.5653489.8584339.734375 1.4179687.1748547.5537064.2636719 1.1794877.2636719 1.8789063 0 .0418249-.0071872.0778159-.0078125.1191406h1.6269534c.000557-.0404792.005859-.0783215.005859-.1191406 0-.8567877-.128312-1.6444241-.384765-2.3613282-.2506255-.7227325-.6079402-1.3425927-1.0742192-1.8613281-.4604506-.524564-1.0171313-.9292479-1.6699219-1.2148437-.6469622-.2914243-1.3674819-.4375-2.1601563-.4375zm6.1386714 13.7988286c-.032466.062086-.056658.129161-.091796.189453h.255859z" fill="#3a3a38" transform="scale(1.00000001)"/></svg>