<svg height="16" viewBox="0 0 4.2333332 4.2333335" width="16" xmlns="http://www.w3.org/2000/svg"><g stroke-width=".264583" transform="translate(0 -292.76665)"><path d="m.13229167 292.76667c-.07328959 0-.13229167.059-.13229167.13229v2.24792h.26458333v-2.11563h2.08462727l.2387451-.23875c-.02146-.015-.046126-.0258-.074414-.0258zm.13229166 2.38021-.001034.001h.001034zm2.36574707-2.30735c.00918.018.015503.0377.015503.0594 0-.0217-.00632-.0414-.015503-.0594zm-.2490804 1.01751v1.29088h-1.83968099c-.007824.0437-.011979.0879-.0124023.13229.00005463.0449.006476.0886.0139526.13229h1.97042239c.07329 0 .1322916-.059.1322916-.13229v-1.15807z" fill="#3a3a38"/><path d="m.26458333 293.03125v2.11667h2.11666667v-1.29088l-.1483114-.14831c-.1468839-.147-.1468839-.41421 0-.56121l.116272-.11627z" fill="#fafafa"/><path d="m1.7197917 294.35417c-.07306 0-.1322843.0592-.1322917.13229v1.15807l.2645833.2651v-1.29088h1.839681c.00782-.0437.011979-.0879.012402-.13229-.0000548-.0449-.00648-.0887-.013953-.13229h-.5152133zm2.2489583.26458v.001l.00103-.001zm0 .001v2.11564h-2.0846273l-.2387451.23874c.021468.01507.046215.02587.074414.02587h.6614584 1.7197917c.07306-.00001.1322842-.0592.1322916-.13229v-1.19063-1.0573zm-2.3233724 2.35438c-.016067-.0112-.029208-.0262-.039274-.0429.00977.0174.023007.0315.039274.0429zm-.0578776-.10642c.0000022.0216.0063.0414.015503.0594-.00972-.0177-.015501-.0376-.015503-.0594z" fill="#ed8733"/><path d="m1.8520833 294.61875v1.29088l.1483114.14831c.1468839.147.1468839.4142 0 .5612l-.116272.11628h2.0846273v-2.11667z" fill="#f8db8f"/><g fill="#1e8bcd"><path d="m3.0385742 292.7677a.1315999.1315999 0 0 0 -.088883.0382l-.5291668.52917a.1315999.1315999 0 0 0 0 .18603l.5291668.52917a.1315999.1315999 0 0 0 .2247924-.093v-.13281l.0005164.00054v-.26458a.79375.79375 0 0 1 .79375.79375h.2645833a1.0583333 1.0583333 0 0 0 -1.0583333-1.05834v-.26458l-.0005292.00052v-.13281a.1315999.1315999 0 0 0 -.1358966-.13126z"/><path d="m1.1947591 296.99897a.1315999.1315999 0 0 0 .088883-.0382l.5291671-.52917a.1315999.1315999 0 0 0 0-.18604l-.5291668-.52916a.1315999.1315999 0 0 0 -.2247923.093v.13281l-.0005168-.00051v.26458a.79375.79375 0 0 1 -.79374997-.79378h-.26458333a1.0583333 1.0583333 0 0 0 1.0583333 1.05833v.26459l.0005292-.00053v.13282a.1315999.1315999 0 0 0 .1358966.13126z"/></g></g></svg>