<svg height="16" viewBox="0 0 4.2333332 4.2333335" width="16" xmlns="http://www.w3.org/2000/svg"><g stroke-width=".264583" transform="translate(0 -292.76665)"><path d="m2.8828125 0 1.1171875 1.0058594v-.0058594l8 .0019531v4h-4.0683594c.0408415.1610291.0683594.3264643.0683594.4980469 0 .5723717-.2331097 1.1009297-.6601562 1.4863281a1.0006512 1.0006512 0 0 0 0 .0019531l-5 4.4999998a1.0006512 1.0006512 0 0 0 -.0019532 0c-.5984165.537411-1.41530553.667038-2.1503906.339844-.06956103-.030879-.12319259-.079884-.1875-.117187v1.287109a1.0001 1.0001 0 0 0 .29296875.707031l2.00195315 2.001953a1.0001 1.0001 0 0 0 .7070312.292969h11.9980469c.137167 0 .267923-.030125.386719-.078125a1.0001 1.0001 0 0 0 .009765-.003906c.116232-.04989.220285-.120922.308594-.208985a1.0001 1.0001 0 0 0 .003906-.003906c.085531-.086173.153357-.188151.203125-.300781a1.0001 1.0001 0 0 0 .011719-.027344c.047176-.116409.076172-.243536.076172-.376953v-14c0-.13719685-.028568-.26796599-.078125-.38671875a1.0001 1.0001 0 0 0 0-.00195313c-.000929-.00219212-.003013-.00391958-.003906-.0078125-.049992-.11640944-.121156-.2201528-.208985-.30859374a1.0001 1.0001 0 0 0 -.001953-.00195313s-.001953-.00195313-.001953-.00195313c-.085999-.08541732-.188181-.15361318-.300781-.20312499a1.0001 1.0001 0 0 0 -.027344-.01171875c-.116372-.0472441-.243245-.07617188-.376953-.07617188zm4.8046875 4.4414062c.0144931.023.0275229.0467924.0410156.0703126-.0134257-.0238535-.0265679-.0469908-.0410156-.0703126zm-3.6875 6.5585938h7v4h-4v-3h-2v3h-1z" fill="#922e9b" stroke-width=".999999" transform="matrix(.26458333 0 0 .26458333 0 292.76665)"/><path d="m3.4395833 293.03121v1.32291h-1.3410034c-.025293.0993-.077589.18968-.1565796.26097a.26475563.26475563 0 0 0 0 .00051l-.8852173.79686h2.118217v1.32291h.79375v-3.70416zm-2.6458333 2.61792-.17466633.1571a.26475563.26475563 0 0 0 -.00051594 0c-.10121757.0909-.22627706.13245-.3539844.13178v.26768l.52916667.52917z" fill="#d492d8"/><path d="m.27336832 292.76662c-.070757-.002-.14188314.0252-.19275309.0744-.05086994.04925-.08059157.11939-.08061523.19019v2.38125c.00016826.10162.06424875.20052.15709635.24184.0928476.0413.20912426.023.28473715-.045l1.3229167-1.19062c.054864-.0495.087333-.12299.087333-.19689s-.032469-.14737-.087333-.19689l-1.3229167-1.19062c-.0459171-.0414-.10667217-.0656-.16846518-.0677z" fill="#309048"/><path d="m.26458333 293.03069v.00052 2.38125h.00051594v.00053l1.32240073-1.19064v-.00052-.00051l-1.32239991-1.19063a.26439501.26439501 0 0 1 -.00051676 0zm.00051594 2.38228c.00000082 0-.00051594-.00053-.00051594-.00053.001185.002.004518.003 0 .00053z" fill="#a1ddaa"/><path d="m1.0583333 293.03121v.002l.883667.7953a.26475563.26475563 0 0 0 0 .00051c.078991.0713.131287.16164.1565796.26097h1.0764201v-1.05833zm0 2.64583v1.05833h.2645834v-.79375h.5291666v.79375h1.0583334v-1.05833z" fill="#fafafa"/></g></svg>