<svg viewBox="0 0 16 16" xmlns="http://www.w3.org/2000/svg">
/&amp;amp;amp;gt;<g fill="#1e8bcd"><path d="m3.625 2c-1.731275 0-3.125 1.393725-3.125 3.125v6.25c0 1.731275 1.393725 3.125 3.125 3.125h8.75c1.731275 0 3.125-1.393725 3.125-3.125v-6.25c0-1.731275-1.393725-3.125-3.125-3.125zm0 1h8.75c1.19459 0 2.125.9304104 2.125 2.125v6.25c0 1.19459-.93041 2.125-2.125 2.125h-8.75c-1.1945896 0-2.125-.93041-2.125-2.125v-6.25c0-1.1945896.9304104-2.125 2.125-2.125z"/><path d="m10.496157 4.9896738c-.12976.00361-.253031.057543-.34375.1503906l-5.0000002 4.9999996c-.4908001.471255.235776 1.197832.7070312.707032l5-5.0000004c.325269-.3180037.09144-.8698927-.363281-.8574218z"/></g></svg>