<svg viewBox="0 0 16 16" xmlns="http://www.w3.org/2000/svg">/&amp;gt;<path d="m4.5 0a.50005.50005 0 0 0 -.5.5c0 1.15-.335653 2.0036218-.9160156 2.5839844s-1.4339844.9160156-2.5839844.9160156a.50005.50005 0 0 0 -.5.5v7a.50005.50005 0 0 0 .5.5c1.15 0 2.0036218.335653 2.5839844.916016.5803626.580362.9160156 1.433984.9160156 2.583984a.50005.50005 0 0 0 .5.5h7a.50005.50005 0 0 0 .496094-.439453c.134792-1.112658.480626-1.976163 1.037109-2.566406.556483-.590244 1.336648-.946456 2.488281-.994141a.50005.50005 0 0 0 .478516-.5v-7.25a.50005.50005 0 0 0 -.5-.5c-.934941 0-1.820619-.2852595-2.455078-.8203125s-1.044922-1.308283-1.044922-2.4296875a.50005.50005 0 0 0 -.5-.5zm.4179688 1h6.1855472c.12546 1.1251858.563922 2.0771977 1.296875 2.6953125.719967.6071642 1.644901.8887573 2.599609.9765625v6.427734c-1.10728.140013-2.045198.5215-2.693359 1.208985-.652464.692047-1.005684 1.634659-1.195313 2.691406h-6.1933592c-.096136-1.11812-.4394718-2.103534-1.1269532-2.791016-.6874813-.687481-1.6728953-1.030817-2.7910156-1.126953v-6.1640622c1.1181203-.096136 2.1035343-.4394718 2.7910156-1.1269532.6874814-.6874813 1.0308172-1.6728953 1.1269532-2.7910156z" fill="#3a3a38"/><path d="m4.9179688 1c-.096136 1.1181203-.4394718 2.1035343-1.1269532 2.7910156-.6874813.6874814-1.6728953 1.0308172-2.7910156 1.1269532v6.1640622c1.1181203.09614 2.1035343.439472 2.7910156 1.126953.6874814.687482 1.0308172 1.672896 1.1269532 2.791016h6.1933592c.189629-1.056747.542849-1.999359 1.195313-2.691406.648161-.687485 1.586079-1.068972 2.693359-1.208985v-6.427734c-.954708-.0878052-1.879642-.3693983-2.599609-.9765625-.732953-.6181148-1.171415-1.5701267-1.296875-2.6953125z" fill="#fafafa"/></svg>