<svg viewBox="0 0 16 16" xmlns="http://www.w3.org/2000/svg"><path d="m8 0-8 8 8 8 8-8zm-1.1503906 2.25v3.4492188l-1.1503906 1.1503906h-3.4492188zm2.3007812 0 4.5996094 4.5996094h-3.449219l-1.1503904-1.1503906zm-1.1503906 3.7324219 2.017578 2.0175781-2.017578 2.017578-2.0175781-2.017578zm-5.75 3.1679687h3.4492188l1.1503906 1.1503904v3.449219zm8.050781 0h3.449219l-4.5996094 4.5996094v-3.449219z" fill="#3a3a38"/><path d="m6.8496094 2.25-4.5996094 4.5996094h3.4492188l1.1503906-1.1503906zm2.3007812 0v3.4492188l1.1503904 1.1503906h3.449219zm-1.1503906 3.7324219-2.0175781 2.0175781 2.0175781 2.017578 2.017578-2.017578zm-5.75 3.1679687 4.5996094 4.5996094v-3.449219l-1.1503906-1.1503904zm8.050781 0-1.1503904 1.1503904v3.449219l4.5996094-4.5996094z" fill="#fafafa"/></svg>