<svg viewBox="0 0 16 16" xmlns="http://www.w3.org/2000/svg">/&amp;gt;<path d="m4.71875 0c-2.5997623 0-4.71875 2.1189632-4.71875 4.71875 0 .5333139.04686654 1.11324.3203125 1.6367188a.49930043.49930043 0 0 0 .00390625.0058593c1.10595365 2.0642683 2.34622735 3.2115773 3.56250005 4.4140629 1.2061603 1.192487 2.4045635 2.456515 3.6074218 4.839843a.49930043.49930043 0 0 0 0 .003907.49930043.49930043 0 0 0 .0292969.074218c.0169991.034108.0217008.021121.0390625.044922a.49930043.49930043 0 0 0 .8847656-.015625c.0096219-.019371.0188382-.03771.0292969-.058594 1.2130227-2.422488 2.4204465-3.686188 3.6367185-4.888671 1.216273-1.2024842 2.456547-2.3497945 3.5625-4.4140629a.49930043.49930043 0 0 0 .003907-.0058593c.273443-.5234781.320312-1.1034044.320312-1.6367188 0-2.5997868-2.118987-4.71875-4.71875-4.71875-1.3063228 0-2.4307204.59364138-3.28125 1.453125-.8505293-.85948368-1.9749268-1.453125-3.28125-1.453125zm0 .97070312c1.1751275 0 2.1989698.53357548 2.8886719 1.37890628.072047.088306.0817656.0958156.0253906.0253906a.47013597.47013597 0 0 0 .734375 0c-.056372.070421-.0466544.0629134.0253906-.0253906.6897064-.845334 1.7135449-1.37890628 2.8886719-1.37890628 2.075899 0 3.748047 1.67212488 3.748047 3.74804688 0 .4618188-.060168.8986084-.208985 1.1855469-1.034584 1.9300496-2.158099 2.9650194-3.388671 4.1816411-1.106422 1.093877-2.2827743 2.4447-3.431641 4.523437-1.1488667-2.078733-2.3252196-3.429559-3.4316406-4.523437-1.2305718-1.2166229-2.3540866-2.2515913-3.3886719-4.1816411 0 0-.0019531-.0019531-.0019531-.0019531-.1482032-.2869616-.20703128-.7226422-.20703128-1.1835938 0-2.0759219 1.67214828-3.74804688 3.74804688-3.74804688z" fill="#3a3a38"/><path d="m4.71875.97070312c-2.0758986 0-3.74804688 1.67212498-3.74804688 3.74804688 0 .4609516.0588281.8966322.20703128 1.1835938.0004909.0009163.00146.00104.00195.00195 1.0345853 1.9300498 2.1581001 2.9650187 3.3886719 4.1816411 1.106421 1.093878 2.2827739 2.444704 3.4316406 4.523437 1.1488667-2.078737 2.325219-3.42956 3.431641-4.523437 1.230572-1.2166212 2.354087-2.2515915 3.388671-4.1816411.148816-.2869385.208985-.7237281.208985-1.1855469 0-2.075922-1.672148-3.74804688-3.748047-3.74804688-1.175127 0-2.1989655.53357228-2.8886719 1.37890628-.072045.088304-.081763.095812-.025391.025391a.47013597.47013597 0 0 1 -.734375 0c.056375.070425.046656.062915-.025391-.025391-.6897021-.8453308-1.7135405-1.37890318-2.888668-1.37890318z" fill="#fafafa"/></svg>