<svg viewBox="0 0 16 16" xmlns="http://www.w3.org/2000/svg"><path d="m7.9999998 16h-.9641026q-.1641026 0-.2666666-.091324-.0957266-.091324-.1504274-.228311l-.765812-2.404871h-3.7059829l-.7589744 2.397261q-.0410256.129376-.1572649.22831-.1094018.098935-.26666672.098935h-.96410253l3.37094025-10h1.2649572zm-5.5384616-3.71385h3.0769231l-1.2717949-4.025876q-.0683761-.1826484-.1367521-.4261796-.0683761-.2435312-.1299145-.5251142-.0683761.2891933-.1367522.5327245-.0683761.2435312-.1299145.4261796z" fill="#3a3a38"/><path d="m9 7.9882812v8.0117188h2.707031c.426842 0 .805488-.054303 1.134766-.164062.333343-.10976.614148-.265651.841797-.464844.227649-.203258.399688-.444113.517578-.72461.11789-.280496.177734-.59212.177734-.933593 0-.500015-.143173-.902144-.427734-1.207032-.280496-.308952-.698932-.519146-1.25586-.628906.24391-.077238.455899-.178667.634766-.304687s.327423-.265446.445313-.419922c.117889-.154476.204806-.322927.261718-.50586.060978-.182932.091797-.373231.091797-.568359 0-.325213-.050714-.6149885-.152344-.8710938-.005525-.0141461-.015609-.0251566-.021484-.0390624l-.345703.3457031.095703-.109375c-.178868.2399531-.427703.407515-.703125.5058593.013788.0949028.023438.1942628.023438.3027348 0 .203258-.036361.388015-.105469.554687-.065043.166672-.164678.309845-.298828.427734-.134151.11789-.302601.21019-.50586.279297-.203258.065043-.440524.097657-.71289.097657h-1.292969v-2.712891h.632813l-.8730474-.8710938zm1.109375 4.3652348h1.580078c.540667 0 .939207.11953 1.195313.359375.26017.239844.390625.565981.390625.976562 0 .207323-.03082.399258-.091797.578125-.056913.174802-.151165.325152-.28125.451172-.12602.12602-.290883.225655-.494141.298828-.199193.069108-.438254.103516-.71875.103516h-1.580078z" fill="#3a3a38" transform="matrix(1.00000000418 0 0 1.00000000418 -.00000003386 -.00000002199)"/><path d="m12.496427 9.0071618c-.152571-.00239-.2957-.074317-.388672-.195312l-.0039-.0059-2.9570315-2.9531251c-.5267392-.4691836.2344391-1.2324704.705078-.7070312l2.1523445 2.1484373v-6.78710982c-.0096-.6761613 1.009563-.6761613 1 0v6.78320382l2.140625-2.1445313c.471354-.4726558 1.180338.2343754.708984.7070312l-2.951172 2.9531651c-.0955.1281139-.246469.2028744-.406256.201172z" fill="#1e8bcd" fill-rule="evenodd"/></svg>