<svg height="16" viewBox="0 0 4.2333332 4.2333335" width="16" xmlns="http://www.w3.org/2000/svg"><g stroke-width=".264583" transform="translate(0 -292.76665)"><path d="m.26458334 293.03123h3.70416656v3.43959h-3.70416656z" fill="#fafafa"/><path d="m0 292.76665v3.83646c-.00010171.0731.05918691.13239.13229167.13229h3.96874993c.073105.0001.1323932-.0592.1322916-.13229v-3.83646zm.26458334.26458h3.70416656l.0005292 3.4401h-3.70521253z" fill="#3a3a38"/><path d="m1.8520834 293.03123v.79375h.2645833v-.79375zm.2645833 2.11564-.2645833.00051v.00052h.2645833zm-.2645833.26561v1.05834h.2645833v-1.05834z" fill="#797774"/></g><g fill="#d42314" transform="scale(.26458333)"><path d="m1 4v1h2v4h-2v1h14v-1h-3v-4h3v-1zm3 1h3v4h-3zm4 0h3v4h-3z"/><path d="m0 4v6h1v-6zm15 0v6h1v-6z"/></g></svg>