<svg viewBox="0 0 16 16" xmlns="http://www.w3.org/2000/svg"><path d="m4 1v2h8.5c.276131.0000276.499972.2238691.5.5v4.5h2v-7z" fill="#fafafa"/><path d="m.5 3c-.27614237 0-.5.2238576-.5.5.00000895.02947.0026233.058881.0078125.087891h-.0078125v7.912109c.00002761.276131.22386906.499972.5.5h2.5v3.5c.0007774.430893.5097988.659116.8320312.373047l4.3574219-3.873047h4.3105469c.276131-.000028.499972-.223869.5-.5v-8c-.000028-.2761309-.223869-.4999724-.5-.5zm.5 1h11v7h-4c-.1224905.000223-.2406387.0454-.3320312.126953l-3.6679688 3.259766v-2.886719c-.0000276-.276131-.2238691-.499972-.5-.5h-2.5c0-2.3333333 0-4.6666667 0-7z" fill="#3a3a38"/><path d="m3.5 0c-.2761424 0-.5.2238576-.5.5.000009.02947.0026225.05888063.0078125.08789062h-.0078125v2.41210938h1v-2h11v7h-2v1h2.5c.276131-.000028.499972-.223869.5-.5v-8c-.000028-.2761309-.223869-.4999724-.5-.5z" fill="#3a3a38"/><path d="m1 4v7h2 .5c.2761309.000028.4999724.223869.5.5v2.886719l3.6679688-3.259766c.0913925-.081553.2095407-.12673.3320312-.126953h4v-7z" fill="#fafafa" fill-rule="evenodd"/></svg>