<svg height="16" viewBox="0 0 4.2333332 4.2333335" width="16" xmlns="http://www.w3.org/2000/svg"><g stroke-width=".264583" transform="translate(0 -292.76665)"><path d="m7 3.703125c-.5539997 0-1 .4459969-1 1v.2988281h.5039062a.50306598.50306598 0 0 1 .4960938.4277344zm6 0v1.8007812a.50306598.50306598 0 0 1 .501953-.5019531h.498047v-.2988281c0-.5540031-.446-1-1-1zm-5.9941406 2.296875v1.0019531h.4941406 5.5v-1.0019531h-1-4z" fill="#1e8bcd" stroke-width=".999999" transform="matrix(.26458333 0 0 .26458333 0 292.76665)"/><path d="m2.1166667 293.03125v1.05833h1.0583333v-1.05833z" fill="#fafafa" fill-rule="evenodd"/><path d="m2.0789429 292.76667c-.1256393 0-.2268596.10122-.2268596.22686v1.36064h.2645834 1.0583333.2645833v-1.36064c0-.12564-.1012203-.22686-.2268595-.22686zm.037724.26458h1.0583331v1.05833h-1.0583333z" fill="#3a3a38"/><g transform="matrix(.26458333 0 0 .26458333 0 292.76665)"><path d="m5.5 5.0019531c-.8218783 0-1.4980465.6761508-1.4980469 1.4980469v8.001953c0 .821858.6761686 1.498047 1.4980469 1.498047h2 .9960938 3.5078122 2.494141c.821879 0 1.505859-.671691 1.505859-1.498047v-8.001953c0-.8263559-.68398-1.4980469-1.505859-1.4980469h-.996094a.503066.503066 0 0 0 -.501953.5019531v1.4980469h-5.5-.4941406v-1.4980469a.503066.503066 0 0 0 -.5019532-.5019531zm0 .9960938h.5097656v1.5058593a.49821199.49821199 0 0 0 .4941406.4941407h.9960938 5.5.501953a.49821199.49821199 0 0 0 .494141-.4941407v-1.5058593h.501953c.288705 0 .509765.2177326.509765.5019531v8.001953c.000001.284258-.221058.501953-.509765.501953h-2.494141-3.5078122-.9960938-2c-.2887049 0-.5019531-.213197-.5019531-.501953v-8.001953c.0000004-.2887937.2132463-.5019531.5019531-.5019531z" fill="#3a3a38"/><path d="m.99609375 5.0019531c-.54041733 0-.99609375.4556591-.99609375.9960938v9.0058591c0 .540397.45567642.996094.99609375.996094h2.00000005c.5404172 0 1.0058589-.446739 1.0058593-.996094v-9.0058591c0-.5493544-.4654421-.9960938-1.0058593-.9960938zm0 .9960938h2.00000005.0078124v9.0058591h-.0078124-2.00000005z" fill="#3a3a38"/><path d="m5.5 5.9980469c-.2887068 0-.5019527.2131594-.5019531.5019531v8.001953c0 .288756.2132482.501953.5019531.501953h2 .9960938 3.5078122 2.494141c.007015 0 .012598-.003651.019531-.003906h-1.517578v-1h2v.541016c.001046-.013607.007813-.025118.007812-.039063v-8.001953c0-.2842205-.22106-.5019531-.509765-.5019531h-.501953v1.5058593c-.0022.2719843-.222157.4919272-.494141.4941407h-.501953l-5.5.0019531-.9960938-.0019531c-.271984-.0022137-.4919269-.2221566-.4941406-.4941407v-1.5058593zm1.5 3.0019531h1v1h-1zm2 0h1v1h-1zm2 0h1v1h-1zm-4 2h1v1h-1zm2 0h1v1h-1zm2 0h1v1h-1zm-4 2h1v1h-1zm2 0h1v1h-1zm2 0h1v1h-1z" fill="#797774"/></g><path d="m.26367188 294.35352v2.38281h.52929687.001953v-2.38281h-.001953z" fill="#797774"/><path d="m3.4395833 296.47083h.5291667v.26459h-.5291667z" fill="#fafafa"/></g><path d="m7.0000002 9.0000002v.9999998h1v-.9999998zm2 0v.9999998h.9999998v-.9999998zm1.9999998 0v.9999998h1v-.9999998zm-3.9999998 1.9999998v1h1v-1zm2 0v1h.9999998v-1zm1.9999998 0v1h1v-1zm-3.9999998 2v1h1v-1zm2 0v1h.9999998v-1zm1.9999998 0v1h1v-1z" fill="#fafafa" transform="scale(.26458333)"/></svg>