<svg viewBox="0 0 16 16" xmlns="http://www.w3.org/2000/svg">/&amp;gt;<path d="m4.3710938.00390625a.49913039.49913039 0 0 0 -.4980469.5546875c.0278025.25111885.1219807 1.18440985.1796875 2.33984375.033248.6642992.0533644 1.3813096.0292968 1.9335937-.01109.2557066-.0481607.4652895-.0859374.6835938-.0380214.2197306-.0800739.3328347-.0703126.3183594-.0570175.0847122-.0998241.1329157-.1289062.1640625-.0164514-.0055858-.0194739-.0068432-.0585938-.0214844-.2265992-.0930088-.6940153-.3155794-1.4160156-.3046875a.49913039.49913039 0 0 0 0 .0019531c-.7371471.0116424-1.34594637.2689034-1.74218748.703125-.39796759.4362476-.57980841 1.0216142-.58007812 1.625.00026969.6034747.19217566 1.1704888.58007812 1.5957031.3968261.4349798 1.00580618.6899348 1.74218748.7011718.724236.011425 1.1943922-.210294 1.4199219-.3027342.0435034-.0171917.0473205-.0198417.0605469-.0253907-.0172423-.0027593.0180266.0120133.1230468.1679689-.0093945-.013949.032297.098673.0703126.318359.0363211.209823.0747751.459356.0859374.716797.0241072.553289.0041071 1.235392-.0292968 1.900391-.0587229 1.174684-.1548881 2.148189-.1796875 2.371093a.49913039.49913039 0 0 0 .4980469.554688c.2072107-.000716.3853682-.026208.5-.03125.3198392-.013976.6005713-.059352.8105468-.095703.2242234-.037766.3984037-.05298.6152344-.197266a.49913039.49913039 0 0 0 .0019531-.001953c.2323454-.156417.3985583-.280282.4921875-.548828.0716319-.205385.0374013-.44284-.0371094-.625-.1242266-.3037-.2743396-.526667-.265625-1.091797a.49913039.49913039 0 0 0 .0019532 0c.0084459-.56974.1714174-.89954.4335937-1.138672.2638038-.240554.6420963-.378676 1.0761719-.378906.4340759.00023.8123683.138352 1.0761719.378906.2620428.239011.426757.568589.4355469 1.138672h-.0019532c.0083935.565406-.1396207.788408-.2636718 1.091797-.0742169.18143-.108945.420339-.0390626.623047a.49913039.49913039 0 0 0 .0019532.001953c.0934371.267913.2576852.390239.4902344.546875.2236066.151965.3969912.16315.6171872.201172.20979.036343.491358.081951.8125.095703.126397.007843.300439.030038.498047.03125a.49913039.49913039 0 0 0 .5-.554688c-.024806-.222655-.120966-1.1964-.179687-2.371093-.033171-.66525-.053402-1.347248-.029297-1.900391.011166-.25746.049613-.507008.085937-.716797.038016-.219694.079858-.332525.070313-.318359.057699-.085676.102969-.13433.130859-.1640626.015807.0056642.015838.0062407.054688.0214844.226258.0927872.695027.3155942 1.417968.3046872.737208-.010187 1.345675-.268487 1.742188-.7031248.387901-.4252139.579808-.9922278.580078-1.5957031-.00027-.6033857-.18211-1.1887523-.580078-1.625-.396121-.434091-1.004723-.6918853-1.742188-.703125-.72232-.0113951-1.189776.2098496-1.416015.3027344-.039903.0154648-.040315.0154291-.056641.0214844-.02849-.0302123-.072958-.0780442-.130859-.1640625.009695.0143805-.032292-.0986369-.070313-.3183594-.037775-.2183025-.074843-.4278796-.085937-.6835938-.024076-.5523781-.004115-1.2694708.029297-1.9335937.057709-1.1554318.151889-2.08865599.179687-2.33984375a.49913039.49913039 0 0 0 -.498047-.5546875c-.136868.00047287-.308436-.00994225-.5.00195313-.321351.01404263-.604132.05926012-.814453.09570312-.22235.03729784-.39578.05384381-.611328.19726562a.49913039.49913039 0 0 0 -.0019531.00195313c-.2322666.15636361-.398606.28021893-.4921875.54882813-.0706692.20264172-.0366856.44265002.0371094.62304682.12431.3040441.2743412.526332.265625 1.0917969a.49913039.49913039 0 0 0 -.0019532 0c-.0084452.5694275-.1723234.9023814-.4335937 1.140625-.2630507.23993-.6408407.3767219-1.0761719.3769531-.4353311-.0002311-.8131197-.1370221-1.0761719-.3769531-.2611371-.2381219-.4267584-.5708529-.4355469-1.140625h.0019532c-.0083949-.565738.1395372-.7880369.2636718-1.0917969.0738647-.1805784.1082464-.4196901.0371094-.62304682-.0934344-.26790788-.2576865-.39024047-.4902344-.546875-.2235957-.15195836-.396986-.16315069-.6171874-.20117188-.2066867-.03493366-.4893001-.08200349-.8125-.09570312-.1923217-.01193275-.3646465-.00117388-.5-.00195313zm.5234374.99414063c.2225013.01408212.4385454.04303982.6230469.07421872h.0019531c.1883716.033132.2913415.0889459.2265626.0449219a.48625864.48625864 0 0 1 .0019531.0019531c.096257.064801.0692856.0360158.0722656.0351563-.0867228.1998707-.3273522.6881215-.3164063 1.4257812.011971.7761081.2841938 1.4234201.7558594 1.8535157.4697994.4285059 1.0962998.6344235 1.7402344.6347656.6439351-.0003421 1.2704357-.2062597 1.7402344-.6347656.4715346-.4299771.7443326-1.0770749.7558596-1.8535157.011394-.7392002-.230117-1.2288077-.316406-1.4277343.002819.0009799-.021338.0297538.070312-.0332032-.058768.039103.043005-.015304.230469-.046875a.48625864.48625864 0 0 0 .003906 0c.181604-.031467.396693-.0599294.621094-.07421872-.042008.42930682-.097008.93845332-.142578 1.84960932v.0019532c-.0341.6788312-.055917 1.414511-.029297 2.0253906.014126.3255946.061883.5905763.099609.8085938.037491.2166591.05328.4470396.224609.7011718.153397.2279103.304814.4627186.63086.578125a.48625864.48625864 0 0 1 .001953 0c.341673.1186997.617142-.0259524.726563-.0683594a.48625864.48625864 0 0 0 .007812-.0039062c.297227-.1214671.494215-.2409864 1.037109-.2324219.531597.0081021.827928.1621413 1.029297.3828125.199572.2187676.322084.5550064.322266.9609375-.000182.4060414-.113111.7020701-.322266.9316407-.200987.2203113-.495496.3735093-1.027344.3808593a.48625864.48625864 0 0 1 -.001953 0c-.543218.0081953-.740253-.1111345-1.037109-.2324219a.48625864.48625864 0 0 0 -.005859-.0039062c-.120051-.047105-.394366-.1795536-.726563-.0644531a.48625864.48625864 0 0 1 -.001953 0c-.323081.1124012-.477951.3442725-.632813.5742187-.171188.2540464-.187119.4845124-.224609.7011714-.03916.226164-.085549.517731-.099609.841797-.02662.610923-.004523 1.313908.029297 1.992188.045745.915075.099005 1.419284.140625 1.853515-.223183-.01421-.437771-.042788-.619141-.074218a.48625864.48625864 0 0 1 -.001953 0c-.191396-.03305-.293846-.089322-.228516-.044922a.48625864.48625864 0 0 1 -.001953-.001953c-.09625-.0648-.069265-.036014-.072265-.035157.086349-.199204.327376-.688884.316406-1.427734-.011971-.77637-.285077-1.42216-.7558596-1.851562-.4690672-.427728-1.0950764-.636377-1.7402344-.636719-.6451577.000342-1.271167.208992-1.7402344.636719-.4706532.429284-.7443453 1.074857-.7558594 1.851562-.0114231.740767.2325895 1.231666.3183594 1.429688-.001456-.00352.0242653-.033097-.0742187.033203.0557435-.03733-.0425691.015555-.2285157.046875a.48625864.48625864 0 0 1 -.0019531 0c-.1811161.03138-.3974075.059859-.6210937.074218.041606-.43417.09488-.938433.140625-1.853515.034087-.678524.0559089-1.381408.0292968-1.992188-.014052-.324084-.0604653-.615667-.0996093-.841797-.0374937-.216668-.0535658-.4472132-.2246094-.7011714-.1551323-.2303717-.3112337-.4614056-.6308594-.5742187a.48625864.48625864 0 0 1 -.0019531 0c-.3317563-.1152544-.6072414.0165317-.7285156.0644531a.48625864.48625864 0 0 0 -.0058594.0039062c-.2972081.1214656-.4942015.2409865-1.0371094.2324219-.5326522-.0081284-.8286133-.160881-1.0292968-.3808593-.2093769-.2295165-.32208422-.5255988-.32226568-.9316407.00018146-.405931.12269448-.7421698.32226568-.9609375.2012534-.220544.4973905-.3744117 1.0292968-.3828125.5432332-.008195.740272.1111363 1.0371094.2324219a.48625864.48625864 0 0 0 .0097656.0039062c.1053249.0403119.3818144.1900389.7265625.0683594.3295616-.1150161.4781036-.3511302.6308594-.578125.1714007-.2541753.187121-.4845208.2246094-.7011718.0377268-.2180157.085488-.4829918.0996093-.8085938.0266507-.6115601.0046974-1.3461842-.0292968-2.0253906-.0455693-.9124114-.100521-1.4217852-.1425782-1.85156252z" fill="#3a3a38"/><path d="m4.8945312.99804688c.0420572.42977732.0970089.93915112.1425782 1.85156252.0339942.6792064.0559475 1.4138305.0292968 2.0253906-.0141213.325602-.0618825.5905781-.0996093.8085938-.0374884.2166511-.0532087.4469965-.2246094.7011718-.1527558.2269948-.3012978.4631089-.6308594.578125-.3447481.1216795-.6212376-.0280475-.7265625-.0683594a.48625864.48625864 0 0 1 -.0097656-.0039062c-.2968374-.1212856-.4938762-.2406169-1.0371094-.2324219-.5319063.0084008-.8280434.1622685-1.0292968.3828125-.1995712.2187677-.32208423.5550065-.32226568.9609375.00018146.4060419.11288888.7021242.32226568.9316407.2006835.2199784.4966446.3727309 1.0292968.3808593.5429079.0085646.7399013-.1109563 1.0371094-.2324219a.48625864.48625864 0 0 1 .00586-.00391c.1212742-.0479214.3967587-.1797037.728515-.0644493a.48625864.48625864 0 0 1 .00195 0c.3196257.1128131.4757271.343847.6308594.5742187.1710436.2539582.1871157.4845024.2246094.7011714.039144.22613.085557.517713.099609.841797.026612.61078.00479 1.313664-.029297 1.992188-.045745.915082-.099019 1.419345-.140625 1.853515.2236862-.01436.4399776-.04284.6210937-.07422a.48625864.48625864 0 0 1 .00195 0c.1859465-.03132.2842592-.0842.2285157-.04687.098484-.0663.072763-.03672.074219-.0332-.0857699-.198022-.3297762-.688927-.318353-1.429694.0115141-.776705.2852062-1.422278.7558594-1.851562.4690674-.427727 1.0950767-.636377 1.7402344-.636719.645158.000342 1.2711672.208991 1.7402344.636719.4707826.429402.7438886 1.075192.7558596 1.851562.01097.73885-.230057 1.228529-.316406 1.427734.003-.000858-.02399-.02964.07226.03516a.48625864.48625864 0 0 1 .002.002c-.06533-.0444.03712.01187.228516.04492a.48625864.48625864 0 0 1 .002 0c.18137.03143.395958.06001.619141.07422-.04162-.434232-.09488-.93844-.140625-1.853515-.03382-.67828-.05592-1.381265-.0293-1.992188.01406-.324066.06045-.615633.09961-.841797.03749-.21666.05342-.447125.224609-.7011714.154861-.2299462.309732-.4618175.632813-.5742187a.48625864.48625864 0 0 1 .002 0c.332197-.1151005.606512.017348.726563.064453a.48625864.48625864 0 0 1 .0059.00391c.296856.1212873.493891.2406172 1.037109.2324219a.48625864.48625864 0 0 1 .002 0c.531847-.00735.826357-.160548 1.027344-.3808593.209155-.2295706.321862-.525653.322044-.9316944-.000182-.4059311-.122694-.7421699-.322266-.9609375-.201369-.2206712-.4977-.3747104-1.029297-.3828125-.542894-.0085645-.739882.1109548-1.037109.2324219a.48625864.48625864 0 0 1 -.0078.00391c-.109421.042407-.38489.1870587-.726563.068359a.48625864.48625864 0 0 1 -.002 0c-.326046-.1154064-.477429-.3502181-.630825-.5781284-.17133-.2541322-.187118-.4845127-.224609-.7011718-.037726-.2180175-.085483-.4829992-.099609-.8085938-.02662-.6108796-.0048-1.3465594.0293-2.0253906v-.00195c.04557-.911156.10057-1.4203025.142578-1.84960932-.224401.0142893-.43949.0427517-.621094.0742187a.48625864.48625864 0 0 1 -.0039 0c-.187464.031571-.289237.085978-.230469.046875-.09165.062957-.06749.034183-.07031.033203.08629.1989267.3278.6885341.316406 1.4277343-.011527.77644082-.284336 1.42353562-.7558706 1.85351272-.4697987.4285059-1.0962993.6344235-1.7402344.6347656-.6439346-.0003421-1.270435-.2062597-1.7402344-.6347656-.4716656-.4300956-.7438884-1.0774076-.7558594-1.8535157-.0109459-.7376597.2296835-1.2259105.3164063-1.4257812-.00298.0008595.023991.029645-.072266-.035156a.48625864.48625864 0 0 1 -.00195-.00195c.064779.044024-.038191-.01179-.2265626-.044922h-.00195c-.1845015-.0311789-.4005514-.0601399-.6230527-.07422202z" fill="#fafafa"/></svg>