<svg viewBox="0 0 16 16" xmlns="http://www.w3.org/2000/svg">/&gt;<path d="m13 1v2h2v-1l-1.050847-1z" fill="#fafafa"/><path d="m9 1v6h6v-4l-2.016949-2z" fill="#fafafa"/><path d="m9 0c-.554 0-1 .446-1 1v6c0 .554.446 1 1 1h6c.554 0 1-.446 1-1v-2.9589844-.0410156-1-.4140625l-2.585938-2.5859375h-.414062-1zm0 1h3v2.5c0 .277.223.5.5.5h.5 2v3h-6zm4 0 2 2h-2z" fill="#3a3a38" fill-rule="evenodd"/><path d="m5 1v2h2v-1l-1.050847-1z" fill="#fafafa"/><path d="m1 1v6h6v-4l-2.016949-2z" fill="#fafafa"/><path d="m1 0c-.554 0-1 .446-1 1v6c0 .554.446 1 1 1h6c.554 0 1-.446 1-1v-2.9589844-.0410156-1-.4140625l-2.585938-2.5859375h-.414062-1zm0 1h3v2.5c0 .277.223.5.5.5h.5 2v3h-6zm4 0 2 2h-2z" fill="#3a3a38" fill-rule="evenodd"/><path d="m13 9v2h2v-1l-1.050847-1z" fill="#fafafa"/><path d="m9 9v6h6v-4l-2.016949-2z" fill="#fafafa"/><path d="m9 8c-.554 0-1 .446-1 1v6c0 .554.446 1 1 1h6c.554 0 1-.446 1-1v-2.958984-.041016-1-.414062l-2.585938-2.585938h-.414062-1zm0 1h3v2.5c0 .277.223.5.5.5h.5 2v3h-6zm4 0 2 2h-2z" fill="#3a3a38" fill-rule="evenodd"/><path d="m5 9v2h2v-1l-1.050847-1z" fill="#fafafa"/><path d="m1 9v6h6v-4l-2.016949-2z" fill="#fafafa"/><path d="m1 8c-.554 0-1 .446-1 1v6c0 .554.446 1 1 1h6c.554 0 1-.446 1-1v-2.958984-.041016-1-.414062l-2.585938-2.585938h-.414062-1zm0 1h3v2.5c0 .277.223.5.5.5h.5 2v3h-6zm4 0 2 2h-2z" fill="#3a3a38" fill-rule="evenodd"/></svg>