<svg viewBox="0 0 16 16" xmlns="http://www.w3.org/2000/svg">/&amp;amp;gt;<path d="m0 1v1 2 10c0 .554.446 1 1 1h5.0566406c.011465-.0536.00964-.106545.027344-.160156v-.002l.2792966-.837844h-5.3632812v-10h14v2.0585938c.113034-.0255942.225772-.0572108.339844-.0585938h.0039c.236098-.0018599.454575.0570715.656256.1484375v-2.1484375-2-1h-1-14z" fill="#3a3a38"/><path d="m1 4v10h5.3632812l.9707032-2.914062c.2030598-1.971512 1.7804441-3.5488918 3.7519536-3.7519536l3.75-1.2480469c.053753-.0180526.109546-.0149997.164062-.0273437v-2.0585938zm14 9.792969c-.047316.071534-.098934.138583-.150391.207031h.150391z" fill="#fafafa"/><path d="m4 5c-.554 0-1 .446-1 1v1c0 .554.446 1 1 1h1c.554 0 1-.446 1-1v-1c0-.554-.446-1-1-1zm0 1h1v1h-1zm4.5 0c-.277 0-.5.223-.5.5s.223.5.5.5h3.589844l.857422-.2851562c.031501-.0655886.052734-.136961.052734-.2148438 0-.277-.223-.5-.5-.5zm-4.5 4c-.554 0-1 .446-1 1v1c0 .554.446 1 1 1h1c.554 0 1-.446 1-1v-1c0-.554-.446-1-1-1zm0 1h1v1h-1z" fill="#797774"/><path d="m15.351562 7c-.066959.0008118-.13378.0118821-.197265.0332031l-3.804688 1.2675781c-1.6178249.0815942-2.9672354 1.4310013-3.0488278 3.0488278l-1.2675781 3.804688c-.1656211.501513.3109864.978121.8125.8125l3.8046879-1.267578c1.617825-.08159 2.967235-1.431 3.048828-3.048828l1.267578-3.8046879c.138859-.4182031-.174594-.8491744-.615235-.8457031zm-3.851562 3a1.5 1.5 0 0 1 1.5 1.5 1.5 1.5 0 0 1 -1.5 1.5 1.5 1.5 0 0 1 -1.5-1.5 1.5 1.5 0 0 1 1.5-1.5z" fill="#0063b1"/><path d="m0 0h16v4h-16z" fill="#3a3a38"/><path d="m1 1h14v2h-14z" fill="#797774" stroke-width=".661438"/><path d="m15 8-3.375 1.125a.86854756.86854756 0 0 1 -.232422.042969c-1.161009.0585548-2.1660556 1.0636-2.2246092 2.224609a.86854756.86854756 0 0 1 -.0429688.232422l-1.125 3.375 3.375-1.125a.86854756.86854756 0 0 1 .232422-.04297c1.161007-.05855 2.166055-1.063597 2.224609-2.224609a.86854756.86854756 0 0 1 .042969-.232421zm-3.5 2.869141c-.465046 0 .579157.102444.123047.01172-.456111-.09073.548787.213122.119141.03516-.429647-.177966.496046.316959.109374.05859-.386671-.258365.424541.406963.0957.07813-.328838-.328837.33649.482375.07813.0957-.258366-.386672.236559.539021.05859.109374-.177965-.429646.125883.575252.03516.119141-.09073-.45611.01172.588093.01172.123047s-.102444.579157-.01172.123047c.09073-.456111-.213122.548787-.03516.119141.177966-.429647-.316959.496046-.05859.109374.258365-.386671-.406963.424541-.07813.0957.328837-.328838-.482375.33649-.0957.07813.386672-.258366-.539021.236559-.109374.05859.429646-.177965-.575252.125883-.119141.03516.45611-.09073-.588093.01172-.123047.01172s-.579157-.102444-.123047-.01172c.456111.09073-.548787-.213122-.119141-.03516.429647.177966-.496046-.316959-.109374-.05859.386671.258365-.424541-.406963-.0957-.07813.328838.328837-.33649-.482375-.07813-.0957.258366.386672-.236559-.539021-.05859-.109374.177965.429646-.125883-.575252-.03516-.119141.09073.45611-.01172-.588093-.01172-.123047s.102444-.579157.01172-.123047c-.09073.456111.213122-.548787.03516-.119141-.177966.429647.316959-.496046.05859-.109374-.258365.386671.406963-.424541.07813-.0957-.328837.328838.482375-.33649.0957-.07813-.386672.258366.539021-.236559.109374-.05859-.429646.177965.575252-.125883.119141-.03516-.45611.09073.588093-.01172.123047-.01172z" fill="#83beec"/><g fill-opacity=".982993"><path d="m14.5 11.5a3 3 0 0 1 -3 3 3 3 0 0 1 -3-3 3 3 0 0 1 3-3 3 3 0 0 1 3 3z" fill="#0063b1"/><path d="m13.5 11.5a2 2 0 0 1 -2 2 2 2 0 0 1 -2-2 2 2 0 0 1 2-2 2 2 0 0 1 2 2z" fill="#83beec"/></g></svg>