<svg viewBox="0 0 16 16" xmlns="http://www.w3.org/2000/svg">/&amp;gt;<path d="m7.9726562-.00195313a.51859623.51859623 0 0 0 -.4863281.45312501l-.25 1.99414062-.7011719-1.82421875a.51859623.51859623 0 0 0 -.9980468.25l.2460937 1.94726565-1.1015625-1.5585938a.51859623.51859623 0 0 0 -.9082031.484375l.7402344 1.9238282-1.4863281-1.2167969a.51859623.51859623 0 0 0 -.75.703125l1.1953124 1.6679687-1.7734374-.7792968a.51859623.51859623 0 0 0 -.5351563.8769531l1.5742187 1.2734375-1.87499995-.2714844a.51859623.51859623 0 0 0 -.28320313.9882812l1.84765628.8125-1.98632815.2851563a.51859623.51859623 0 0 0 0 1.0273437l1.94921875.2792969-1.80664062.7734379a.51859623.51859623 0 0 0 .2734375.990234l1.91210932-.255859-1.6054687 1.298828a.51859623.51859623 0 0 0 .5390625.875l1.7714844-.800782-1.1992188 1.697266a.51859623.51859623 0 0 0 .7558594.697266l1.4824219-1.236328-.7402344 1.947265a.51859623.51859623 0 0 0 .9101563.480469l2.2988281-3.292969.0019531-.001953c.0015617-.002216.4092895-.580616.8183594-1.162109.2049266-.291304.4085069-.582967.5625-.802735.0426459-.060861.0697194-.10006.1035156-.148437h5.066406a.51859623.51859623 0 0 0 .205078-.9941408l-.144531-.0625 1.962891-.28125a.51859623.51859623 0 0 0 0-1.0273437l-1.986328-.2851563 1.847656-.8125a.51859623.51859623 0 0 0 -.283203-.9882812l-1.917969.2753906 1.578125-1.2773437a.51859623.51859623 0 0 0 -.535156-.8769531l-1.746094.7675781 1.205078-1.6542969a.51859623.51859623 0 0 0 -.746094-.7070312l-1.507812 1.2207031.757812-1.921875a.51859623.51859623 0 0 0 -.90625-.4882813l-1.125 1.5898438.232422-1.9824219a.51859623.51859623 0 0 0 -1.0019529-.2421875l-.6660156 1.7792969-.2441406-1.95312502a.51859623.51859623 0 0 0 -.5410157-.45312501zm.0273438 4.62500003a.50970972.50970972 0 0 0 .9335938.2148437.50970972.50970972 0 0 0 .8300781.3671875.50970972.50970972 0 0 0 .8183591.5019531l.017578-.0136718-.048828.0664062a.50970972.50970972 0 0 0 .617188.7675782l.019531-.0078126-.078125.0625a.50970972.50970972 0 0 0 .392578.9003907l.09375-.0136719-.097656.0429688a.50970972.50970972 0 0 0 .132812.9707031l.265625.0390625-.265625.0371094a.50970972.50970972 0 0 0 -.351562.7871093h-3.0820314a.50970972.50970972 0 0 0 -.4335937.2421875.50970972.50970972 0 0 0 -.0117188.0175782c-.0107115.0155908-.0237955.0349214-.0429687.0625-.0440963.0634271-.1089148.154308-.1855469.2636718-.1532642.2187274-.3577571.5097394-.5625.8007814-.3868775.549947-.7318877 1.04066-.7734375 1.099609a.50970972.50970972 0 0 0 -.8144531-.533203l-.0117188.009766.0527344-.074219a.50970972.50970972 0 0 0 -.5488281-.785156.50970972.50970972 0 0 0 -.4023438-.8906252l-.0410156.0058593.0761719-.0332031a.50970972.50970972 0 0 0 -.1289063-.9726562l-.265625-.0371094.265625-.0390625a.50970972.50970972 0 0 0 .1328125-.9707031l-.078125-.0351563.0351563.0058594a.50970972.50970972 0 0 0 .3925781-.9003907l-.078125-.0625.0195313.0078126a.50970972.50970972 0 0 0 .6191406-.7636719l-.0507813-.0722657.015625.0136719a.50970972.50970972 0 0 0 .8085938-.5488281.50970972.50970972 0 0 0 .8808593-.3183594.50970972.50970972 0 0 0 .9335938-.2148437z" fill="#3a3a38"/><path d="m8 4.6230469a.50970972.50970972 0 0 1 -.9335938.2148437.50970972.50970972 0 0 1 -.8808593.3183594.50970972.50970972 0 0 1 -.8085938.5488281l-.015625-.013672.050781.072266a.50970972.50970972 0 0 1 -.6191403.7636717l-.019531-.00781.078125.0625a.50970972.50970972 0 0 1 -.3925784.9003881l-.035156-.00586.078125.035156a.50970972.50970972 0 0 1 -.1328128.970704l-.265625.039063.265625.037109a.50970972.50970972 0 0 1 .1289063.9726561l-.076172.033203.041016-.00586a.50970972.50970972 0 0 1 .4023438.8906252.50970972.50970972 0 0 1 .5488281.785156l-.052734.07422.011719-.0098a.50970972.50970972 0 0 1 .8144522.5332368c.04155-.05895.38656-.549662.7734375-1.099609.2047429-.291042.4092358-.582054.5625-.8007814.076632-.1093638.1414506-.2002446.1855469-.2636718.019173-.027579.032257-.046909.042969-.0625-.0005872.00104-.000904.00386-.00195.00586a.50970972.50970972 0 0 1 .013672-.023437.50970972.50970972 0 0 1 .4335937-.2421875h3.0820314a.50970972.50970972 0 0 1 .351562-.7871093l.265625-.037109-.265625-.039063a.50970972.50970972 0 0 1 -.1328155-.9707042l.09766-.042969-.09375.013672a.50970972.50970972 0 0 1 -.392582-.9003906l.07813-.0625-.01953.00781a.50970972.50970972 0 0 1 -.617194-.7675756l.04883-.066406-.01758.013672a.50970972.50970972 0 0 1 -.8183591-.5019535.50970972.50970972 0 0 1 -.8300781-.3671875.50970972.50970972 0 0 1 -.9335938-.2148437z" fill="#fafafa"/><g fill="#1e8bcd"><path d="m9.0823291 9.7772032q.3886321 0 .7210765.1170578.3324444.117058.5759254.337127.24348.220069.379267.538466.14047.318397.14047.725759 0 .341809-.103011.636795-.09833.290303-.271574.557195-.168564.266892-.393315.524419-.2247515.252845-.4729142.510373l-1.5779401 1.643492q.177928-.0515.3558559-.0796.1826103-.02809.3464913-.02809h1.9525261q.126422 0 .201339.07492.07492.07024.07492.191975v.472908h-4.0221117v-.266892q0-.0796.032776-.168563.032776-.09365.1123755-.168564l1.9057025-1.966572q.2434803-.248163.4354553-.477596.1966572-.229434.3324443-.458867.1357872-.234116.2107041-.472914.07492-.238798.07492-.50569 0-.266892-.08428-.468231-.079599-.20134-.2200687-.332445-.1404695-.135787-.3324444-.201339-.1919749-.06555-.416726-.06555-.2200688 0-.4073614.07024-.1872926.06555-.3324444.187292-.1451518.117059-.2481627.285622-.1030109.163881-.1498341.360538-.037458.159199-.1311048.210704-.088964.04682-.252845.02341l-.407361-.06556q.0561827-.426088.2247461-.749168.1732456-.327762.430773-.547831.2575273-.220069.5899717-.3324443.3371266-.1123755.7257588-.1123755z"/><path d="m15.11036 13.7759h.88964v.44482q0 .07024-.04682.12174-.04214.04682-.126423.04682h-.716397v1.61072h-.6883v-1.610716h-2.645508q-.09365 0-.154517-.04682-.06087-.05151-.0796-.131104l-.0796-.393315 2.9124-3.9752855h.735123zm-.6883-2.509721q0-.224751.02809-.491643l-2.149179 3.001364h2.121089z"/></g></svg>