<svg viewBox="0 0 16 16" xmlns="http://www.w3.org/2000/svg">/&amp;gt;<g fill="#fafafa" transform="matrix(0 1 1 0 0 0)"><path d="m4.25.00195313c-1.3057653 0-2.2480469 1.10718427-2.2480469 2.37304687v1.875 7.097656c-1.08995644.225148-1.99999997 1.110678-1.99999997 2.277344 0 1.344459 1.19362317 2.373047 2.49804687 2.373047h9.25c1.305765 0 2.248047-1.107184 2.248047-2.373047v-.9375-8.0351562c1.089957-.2251478 2-1.1106785 2-2.2773438 0-1.3444593-1.193623-2.37304687-2.498047-2.37304687zm0 .99414062h9.25c.767928 0 1.503906.65083225 1.503906 1.37890625s-.735978 1.3789062-1.503906 1.3789062a.49529734.49529734 0 0 0 -.496094.4960938v8.4375.9375c0 .812692-.480954 1.378906-1.253906 1.378906h-9.25c-.7679271 0-1.50390625-.650833-1.50390625-1.378906 0-.728075.73597885-1.378906 1.50390625-1.378906a.49529734.49529734 0 0 0 .4960938-.496094v-7.5-1.875c0-.8126916.4809541-1.37890625 1.2539062-1.37890625z" fill="#3a3a38" transform="matrix(0 1 1 0 0 0)"/><path d="m13.625.99609375c-.728075 0-1.378906.73597885-1.378906 1.50390625a.49529734.49529734 0 0 1 -.496094.4960938h-7.5-1.875c-.8126916 0-1.37890625.4809541-1.37890625 1.2539062v9.25c0 .767928.65083225 1.503906 1.37890625 1.503906s1.3789062-.735978 1.3789062-1.503906a.49529734.49529734 0 0 1 .4960938-.496094h8.4375.9375c.812692 0 1.378906-.480954 1.378906-1.253906v-9.25c0-.7679271-.650833-1.50390625-1.378906-1.50390625z" fill="#fafafa"/></g></svg>