<svg viewBox="0 0 16 16" xmlns="http://www.w3.org/2000/svg">/&amp;gt;<path d="m7.9746094 0a.50005.50005 0 0 0 -.4492188.34179688l-1.8867187 5.65820312h-5.1386719a.50005.50005 0 0 0 -.30664062.8945312l4.23632812 3.2949218-1.4121094 5.179688a.50005.50005 0 0 0 .7597657.546875l4.2226562-2.814454 4.222656 2.814454a.50005.50005 0 0 0 .759766-.546875l-1.41211-5.179688 4.236329-3.2949218a.50005.50005 0 0 0 -.306641-.8945312h-5.138672l-1.8867186-5.65820312a.50005.50005 0 0 0 -.5-.34179688zm.0253906 2.1152344 1.515625 4.546875a.51062987.51062987 0 0 0 .484375.3476562h4.015625l-3.328125 2.5878906a.51062987.51062987 0 0 0 -.179688.5371098l1.140626 4.183593-3.3652349-2.24414a.51062987.51062987 0 0 0 -.5664062 0l-3.3652344 2.24414 1.140625-4.183593a.51062987.51062987 0 0 0 -.1796875-.5371098l-3.328125-2.5878906h4.015625a.51062987.51062987 0 0 0 .484375-.3476562z" fill="#3a3a38"/><path d="m8 2.1152344-1.515625 4.546875a.51062987.51062987 0 0 1 -.484375.3476562h-4.015625l3.328125 2.5878906a.51062987.51062987 0 0 1 .1796875.5371098l-1.140625 4.183593 3.3652344-2.24414a.51062987.51062987 0 0 1 .5664062 0l3.3652349 2.24414-1.140626-4.183593a.51062987.51062987 0 0 1 .179688-.5371098l3.328125-2.5878906h-4.015625a.51062987.51062987 0 0 1 -.484375-.3476562z" fill="#fafafa"/></svg>