<svg viewBox="0 0 16 16" xmlns="http://www.w3.org/2000/svg">/&gt;<path d="m6 0c-1.104522 0-2 .8954778-2 2v4 1c0 .2761493-.2238577.5-.5.5h-.5v1h.5c.2761423 0 .5.2238507.5.5v1 1 3c0 1.104597 1 2 2 2h1v-1h-1c-.5522843 0-1-.447701-1-1v-3-1-1c0-.382499-.1392847-.7350257-.375-1 .2357153-.2649743.375-.617501.375-1v-1-.28125-3.71875c0-.5522986.4477765-1 1-1h1v-1zm3 0v1h1c.552224 0 1 .4477014 1 1v3.71875.28125 1c0 .382499.139285.7350257.375 1-.235715.2649743-.375.617501-.375 1v1 1 3c0 .552299-.447716 1-1 1h-1v1h1c1.104569 0 2-.895403 2-2v-3-1-1c0-.2761493.223858-.5.5-.5h.5v-1h-.5c-.276142 0-.5-.2238507-.5-.5v-1-4c0-1.1045222-.822906-2-2-2z" fill="#1e8bcd"/></svg>