<svg viewBox="0 0 16 16" xmlns="http://www.w3.org/2000/svg"><path d="m0 3v4 6c0 .554.446 1 1 1h7.9101562l-.4492187-.449219c-.1558727-.152554-.2575773-.346206-.3320313-.550781h-7.1289062v-6-4zm15 0v4 4.111328c.320452-.108655.677594-.110605 1-.007812v-4.103516-4z" fill="#3a3a38"/><path d="m1 3v10h7.1289062c-.1256908-.345357-.1448772-.731322-.0058593-1.072266.2210045-.542016.7897178-.922401 1.375-.923828.395614-.000767.7897681.162485 1.0664061.445313l.449219.449219v-4.3945318c-.009115-.7762893.686644-1.4917537 1.46289-1.5039062.791729-.0123456 1.519061.7121369 1.509766 1.5039062v4.4062498l.457031-.457031c.154517-.159991.34799-.27105.556641-.341797v-8.111328z" fill="#fafafa"/><path d="m4 5c-.554 0-1 .446-1 1v1c0 .554.446 1 1 1h1c.554 0 1-.446 1-1v-1c0-.554-.446-1-1-1zm4.5 0c-.277 0-.5.223-.5.5s.223.5.5.5h3.976562.023438c.277 0 .5-.223.5-.5s-.223-.5-.5-.5zm-4.5 1h1v1h-1zm4.5 1c-.277 0-.5.223-.5.5s.223.5.5.5h2.513672v-.4960938c-.002043-.1739946.035908-.3432573.097656-.5039062zm-4.5 2c-.554 0-1 .446-1 1v1c0 .554.446 1 1 1h1c.554 0 1-.446 1-1v-1c0-.554-.446-1-1-1zm4.5 0c-.277 0-.5.223-.5.5s.223.5.5.5h2.513672v-1zm-4.5 1h1v1h-1zm4.5 1c-.277 0-.5.223-.5.5 0 .145168.0639403.272101.1621094.363281.2395982-.504877.7759216-.858009 1.3359375-.859375.395614-.000767.7897681.162485 1.0664061.445313l.449219.449219v-.898438z" fill="#797774"/><path d="m0 0h16v4h-16z" fill="#3a3a38"/><path d="m1 1h14v2h-14z" fill="#797774" stroke-width=".661438"/><path d="m12.492188 6.9863281a.50005.50005 0 0 0 -.492188.5058594v6.7910155l-2.140625-2.144531a.50005.50005 0 0 0 -.359375-.150391.50005.50005 0 0 0 -.3496094.857422l2.9531254 2.957031a.50005.50005 0 0 0 .792968.001954l2.960938-2.957032a.50005.50005 0 1 0 -.705078-.708984l-2.152344 2.148437v-6.7949215a.50005.50005 0 0 0 -.507812-.5058594z" fill="#1e8bcd"/></svg>