<svg viewBox="0 0 16 16" xmlns="http://www.w3.org/2000/svg"><path d="m3 1v14h4.2636719c-.8150834-.984409-1.2618955-2.221947-1.2636719-3.5 0-3.0375661 2.4624339-5.5 5.5-5.5.507518.00206 1.012307.074365 1.5.2148438v-2.2148438l-3-3z" fill="#fafafa"/><path d="m3 0c-.554 0-1 .446-1 1v14c0 .554.446 1 1 1h5.34375a5.5 5.5 0 0 1 -1.0800781-1h-4.2636719v-14h6v3.5c0 .277.223.5.5.5h3.5v1.2148438a5.5 5.5 0 0 1 1 .3925781v-2.1074219-.8632812l-3.636719-3.6367188h-.863281zm7 1 3 3h-3z" fill="#3a3a38"/><rect fill="#797774" height="1" ry=".5" width="4" x="4" y="4"/><path d="m4.5 7c-.277 0-.5.223-.5.5s.223.5.5.5h2.7597656a5.5 5.5 0 0 1 1.0898438-1z" fill="#fb983b"/><g fill="#3a3a38"><path d="m4.5 10c-.277 0-.5.223-.5.5s.223.5.5.5h1.5253906a5.5 5.5 0 0 1 .1894532-1z" fill="#797774"/><path d="m4.5 13c-.277 0-.5.223-.5.5s.223.5.5.5h2c.0324942 0 .0610617-.011713.0917969-.017578a5.5 5.5 0 0 1 -.3808594-.982422z" fill="#797774"/><path d="m11.5 7c-2.485282 0-4.5 2.0147186-4.5 4.5 0 2.485281 2.014718 4.5 4.5 4.5 2.485281 0 4.5-2.014719 4.5-4.5 0-2.4852814-2.014719-4.5-4.5-4.5zm0 .75c2.071068 0 3.75 1.6789322 3.75 3.75 0 2.071068-1.678932 3.75-3.75 3.75s-3.75-1.678932-3.75-3.75c0-2.0710678 1.678932-3.75 3.75-3.75z"/><path d="m11.5 7a4.5 4.5 0 0 0 -4.5 4.5 4.5 4.5 0 0 0 4.5 4.5 4.5 4.5 0 0 0 4.5-4.5 4.5 4.5 0 0 0 -4.5-4.5zm0 1a3.5 3.5 0 0 1 3.5 3.5 3.5 3.5 0 0 1 -3.5 3.5 3.5 3.5 0 0 1 -3.5-3.5 3.5 3.5 0 0 1 3.5-3.5z"/></g><circle cx="11.5" cy="11.5" fill="#fafafa" r="3.5"/><circle cx="11.5" cy="11.5" fill="#ed3d3b" r="1.5"/></svg>