<svg viewBox="0 0 16 16" xmlns="http://www.w3.org/2000/svg">
/&amp;amp;gt; <path d="m4.4335938 0-4.4335938 12h1.2675781c.1379157 0 .2556212-.03999.3515625-.119141.1019376-.07915.1710532-.169936.2070313-.273437l.9042969-2.607422h5.0664062l.9101562 2.617188c.0479711.109588.1133169.200378.1972657.273437.0899449.073059.2076505.109375.3515625.109375h1.2675786l-4.4257818-12zm.828125 1.5703125c.053967.2252664.1119115.4360344.171875.6308594.0599629.194825.1197241.3656001.1796874.5117187l1.8378907 5.2871094h-4.3730469l1.8320312-5.2792969c.0539671-.1461186.1119116-.3149406.171875-.5097656.059963-.1948249.1197242-.4092703.1796876-.640625z" fill="#1e8bcd" stroke-width="1.010654"/><g fill="none" stroke="#3a3a38" stroke-linecap="round" stroke-linejoin="round"><path d="m.50712124 13.49995h14.99999976"/><path d="m12.5 15.5 3-2-3-2"/><path d="m9.5 3.4959776h6.007121"/><path d="m12.5 5.4960276 3-2-3-2"/></g></svg>