<svg viewBox="0 0 16 16" xmlns="http://www.w3.org/2000/svg"><path d="m3 1v14h3.3828125l4.2226565-8.4472656a1.0001 1.0001 0 0 1 .902343-.5527344 1.0001 1.0001 0 0 1 .886719.5527344l.605469 1.2109375v-4.0585938l-2.695312-2.7050781z" fill="#fafafa"/><path d="m3 0c-.554 0-1 .446-1 1v14c0 .554.446 1 1 1h2 1a1.0001 1.0001 0 0 1 .1054688-.447266l.2773437-.552734h-.1816406-1.2011719-2v-14h6v3.5c0 .277.223.5.5.5h3.5v2.7636719l1 2v-5.2636719-.8632812l-3.636719-3.6367188h-.863281zm7 1 3 3h-3z" fill="#3a3a38"/><path d="m4.5 6c-.277 0-.5.223-.5.5s.223.5.5.5h4c.277 0 .5-.223.5-.5s-.223-.5-.5-.5zm0 3c-.277 0-.5.223-.5.5s.223.5.5.5h4c.277 0 .5-.223.5-.5s-.223-.5-.5-.5zm0 3c-.277 0-.5.223-.5.5s.223.5.5.5h2.8828125l.5-1z" fill="#1e8bcd"/><path d="m11.5 7-4.5 9h9z" fill="#ed8733"/><path d="m11.5 9.2265625-2.8886719 5.7773435h5.7773439z" fill="#f8db8f"/><g fill="#3a3a38" fill-opacity=".965649"><rect height="3" ry=".5" width="1" x="11" y="10"/><rect height="1" ry=".5" width="1" x="11" y="14"/></g></svg>