<svg viewBox="0 0 16 16" xmlns="http://www.w3.org/2000/svg">/&amp;amp;gt;<path d="m8 .8671875c-2.7609693-.00000003-4.9993573.9548124-5 2.1328125.0006427 1.1780001 2.2390307 2.1328125 5 2.1328125 2.760969 0 4.999357-.9548124 5-2.1328125-.000643-1.1780001-2.239031-2.13281253-5-2.1328125zm-5 3.7871094v8.3457031c.0006434 1.178 2.2390312 2.132813 5 2.132812 2.760969 0 4.999357-.954812 5-2.132812 0-2.781901 0-5.5638021 0-8.3457031-1.074247.8103652-2.909934 1.3457031-5 1.3457031-2.0900667 0-3.9257527-.5353379-5-1.3457031z" fill="#f8db8f"/><path d="m8 0c-3.3137085 0-6 1.3431458-6 3v10c0 1.656854 2.6862915 3 6 3 3.313708 0 6-1.343146 6-3v-10c0-1.6568542-2.686292-3-6-3zm0 .8671875c.3259275.00014051.651042.0138777.9707031.0410156.00782.00064308.015629.001294.023437.001953.025437.00219.048923.005459.074219.007813.3001292.027494.5936864.0667222.8769531.1171874h.00195c.2666878.048998.5228638.1078136.7656258.1757814.03603.00997.07399.018943.109375.029297l.0039.00195c.241178.070832.467307.1505653.675781.2382813.01458.00611.03052.01139.04492.017578.198577.086384.379568.1798201.541016.2792969.02764.016781.05746.031697.08398.048828.149839.098116.280489.201329.390625.3085937.01991.01906.04192.03729.06055.056641.107039.1126123.19133.2289206.251953.3476563.01226.023632.0267.046393.03711.070312.01263.030492.0237.061099.0332.091797.01264.038333.02541.076275.0332.1152343.013359.0610406.020527.1222954.021502.1835966-.000143.0711-.0086.1421519-.02539.2128906-.01664.071679-.04136.1415233-.07422.2109375-.0031.00663-.0084.012923-.01172.019531-.0632.1269382-.15342.251151-.269531.3710937-.0052.00539-.0083.010259-.01367.015625-.0052.00457-.01038.00912-.01563.013672-.117341.115781-.258519.2268934-.421875.3320312-.01132.00729-.01973.016212-.03125.023438-.167831.1032589-.356716.1999891-.564453.2890624-.02067.00902-.03951.018476-.06055.027344-.198417.082984-.4127.1587672-.640625.2265625-.04085.012282-.07935.025342-.121094.037109-.234504.065364-.481466.1222046-.738281.1699219-.036824.00693-.072092.014925-.1093752.021484-.2589067.044611-.526117.079891-.7988282.1054688-.054294.00524-.1071617.01115-.1621094.015625-.3100493.0263397-.6252627.0400731-.9413982.0410159-.3259275-.0001405-.651042-.0138777-.9707031-.0410156-.0076-.0006386-.015849-.0013-.023437-.00195-.025437-.00219-.048923-.00546-.074219-.00781-.3001292-.027494-.5936864-.066722-.8769531-.1171874-.000653-.0001179-.0013.0001179-.00195 0-.2666869-.048998-.5228635-.1078136-.765625-.1757813-.03603-.00997-.073993-.018943-.109375-.029297l-.00391-.00195c-.2411774-.0708405-.4673068-.150574-.6757809-.23829-.0145781-.0061129-.0305196-.0113898-.0449219-.0175781-.1985765-.0863843-.3795677-.1798202-.5410156-.2792969-.0276406-.0167805-.0574599-.0316971-.0839844-.0488281-.1498394-.0981158-.2804891-.201329-.390625-.3085937-.0199146-.0190601-.0419156-.0372903-.0605469-.0566406-.1070387-.1126122-.1913297-.2289206-.2519531-.3476563-.0122608-.0236324-.0267025-.0463926-.0371094-.0703125-.0126278-.0304925-.0236982-.0610987-.0332031-.0917969-.0126401-.0383328-.0254047-.0762755-.0332031-.1152343-.0133407-.0610378-.0205088-.1222926-.0214844-.1835938.0000391-.071679.00917-.143029.025391-.2128906.016645-.071679.041361-.1415233.074219-.2109375.00314-.00663.00844-.012923.011719-.019531.063203-.1269382.1534204-.251151.2695313-.3710937.00523-.00539.00834-.010259.013672-.015625.00448-.00451.011079-.00918.015625-.013672.1173409-.115781.258519-.2268934.421875-.3320312.011319-.00729.019728-.016212.03125-.023438.1678306-.1032589.356716-.1999891.5644532-.2890624.02067-.00902.039508-.018476.060547-.027344.1984155-.0829836.412699-.1587668.6406237-.2265621.0408509-.0122822.0793545-.0253416.1210938-.0371094.2345036-.065364.4814663-.1222046.7382812-.1699219.036824-.00693.072092-.014925.109375-.021484.2589067-.0446113.526117-.0798909.7988282-.10546878.054294-.005236.1071617-.0111501.1621094-.015625.3100573-.0263397.6252707-.04007307.9414062-.04101592zm-5 3.7871094c1.0742473.8103652 2.9099333 1.3457031 5 1.3457031 2.090066 0 3.925753-.5353379 5-1.3457031v8.3457031c-.000143.0711-.0086.142152-.02539.212891-.01664.07168-.04136.141523-.07422.210937-.0031.0066-.0084.01292-.01172.01953-.0632.126938-.15342.251151-.269531.371094-.0052.0054-.0083.01026-.01367.01563-.0052.0046-.01038.0091-.01563.01367-.117341.115781-.258519.226893-.421875.332031-.01132.0073-.01973.01621-.03125.02344-.167831.103259-.356716.199989-.564453.289062-.02067.009-.03951.01848-.06055.02734-.198417.08298-.4127.158768-.640625.226563-.04085.01228-.07935.02534-.121094.03711-.234504.06536-.481466.122205-.738281.169922-.036824.0069-.072092.01492-.1093752.02148-.2589067.04461-.526117.07989-.7988282.105469-.054294.0052-.1071617.01115-.1621094.01563-.3100493.026337-.6252627.04007-.9413982.041013-.3259275-.00014-.6510419-.01388-.9707031-.04101-.0076-.000639-.015849-.0013-.023437-.002-.025437-.0022-.048923-.0055-.074219-.0078-.3001292-.02749-.5936864-.06672-.8769531-.117187-.000653-.000118-.0013.000118-.00195 0-.2666869-.049-.5228635-.107814-.765625-.175782-.03603-.01-.073993-.01894-.109375-.0293l-.00391-.002c-.2411774-.070753-.4673068-.150486-.6757809-.238202-.014578-.0061-.03052-.01139-.044922-.01758-.1985765-.08638-.3795677-.17982-.5410156-.279297-.027641-.01678-.05746-.0317-.083984-.04883-.1498397-.098112-.2804895-.201325-.3906253-.30859-.0199146-.01906-.0419156-.03729-.0605469-.05664-.1070387-.112612-.1913297-.22892-.2519531-.347656-.012261-.02363-.026702-.04639-.037109-.07031-.012628-.03049-.023698-.0611-.033203-.0918-.01264-.03833-.025405-.07628-.033203-.115234-.0133413-.061038-.0205095-.122293-.021485-.183594z" fill="#ed8733"/></svg>