<svg viewBox="0 0 16 16" xmlns="http://www.w3.org/2000/svg">

/&amp;amp;amp;gt;<path d="m6 4c-.554 0-1 .446-1 1v6c0 .554.446 1 1 1h4c.554 0 1-.446 1-1v-6c0-.554-.446-1-1-1zm0 1h4v6h-4z" fill="#3a3a38"/><path d="m6 5v6h4v-6z" fill="#fafafa"/><g fill-rule="evenodd"><path d="m8 0v.00195313c-.143027-.00053801-.2862957.06066062-.3867188.18164062l-1.4980468 2.00195315c-.0751214.090524-.1159244.2046336-.1152344.3222656.0011.275368.22463.4980249.5.4980469l3-.00195c.27537-.0000281.4989-.222682.5-.49805.00069-.117632-.04011-.2317446-.1152344-.3222656l-1.4980468-2.00195318c-.100423-.12097999-.2436918-.18217862-.3867188-.18164062zm0 1.15625.6679688.8398438v.00195h.00195v.0019562h-.6699188l-.6699219.00195z" fill="#0063b1"/><path d="m7.330078 2.0009996.669922-.84475.669922.842797-.669922.000977z" fill="#83beec"/><path d="m8 16.005856v-.002c-.143027.000585-.2862957-.060614-.3867188-.181594l-1.4980468-2.001953c-.0751214-.090524-.1159244-.204633-.1152344-.322265.0011-.275368.22463-.498025.5-.498047l3 .0019c.27537.000028.4989.222682.5.49805.00069.117632-.04011.231744-.1152344.322265l-1.4980468 2.002003c-.100423.12098-.2436918.182179-.3867188.181641zm0-1.15625.6679688-.839844v-.002h.00195v-.002h-.6699188l-.6699219-.0019z" fill="#0063b1"/><path d="m7.330078 14.004856.669922.84475.669922-.842797-.669922-.000977z" fill="#83beec"/><path d="m15.002928 8.0029278h-.002c.000585-.143027-.060614-.2862957-.181594-.3867188l-2.001953-1.4980468c-.09052-.075121-.204634-.1159244-.322266-.1152344-.275368.0011-.498025.22463-.498047.5l.0019 3c.000029.27537.222682.4989002.49805.5000002.117632.00069.231745-.04011.322266-.1152346l2.001953-1.4980468c.12098-.100423.182179-.2436918.181641-.3867188zm-1.15625 0-.839844.6679688h-.0019v.00195h-.002v-.6699188l-.002-.6699219z" fill="#0063b1"/><path d="m13.001928 7.3330058.84475.669922-.842797.669922-.000977-.669922z" fill="#83beec"/><path d="m.9970724 8.0029278h.001953c-.00053788-.143027.0606608-.2862957.1816407-.3867188l2.0019532-1.4980468c.090524-.075121.2046336-.1159244.3222656-.1152344.275368.0011.4980249.22463.4980469.5l-.00195 3c-.0000281.27537-.222682.4989002-.49805.5000002-.117632.00069-.2317446-.04011-.3222656-.1152346l-2.0019532-1.4980468c-.12098-.100423-.1821786-.2436918-.1816406-.3867188zm1.15625 0 .8398438.6679688h.00195v.00195h.00196v-.6699188l.00195-.6699219z" fill="#0063b1"/><path d="m2.998072 7.3330058-.84475.669922.842797.669922.000977-.669922z" fill="#83beec"/></g></svg>