<svg viewBox="0 0 16 16" xmlns="http://www.w3.org/2000/svg">/&amp;gt;<path d="m6 0a6 6 0 0 0 -6 6 6 6 0 0 0 6 6 6 6 0 0 0 3.875-1.417969l5.277344 5.267578a.50005.50005 0 1 0 .705078-.708984l-5.28125-5.2714844a6 6 0 0 0 1.423828-3.8691406 6 6 0 0 0 -6-6zm0 1a5 5 0 0 1 5 5 5 5 0 0 1 -5 5 5 5 0 0 1 -5-5 5 5 0 0 1 5-5z" fill="#3a3a38"/><path d="m6 1a5 5 0 0 0 -5 5 5 5 0 0 0 5 5 5 5 0 0 0 5-5 5 5 0 0 0 -5-5z" fill="#fafafa"/><path d="m6 2c-.554 0-1 .446-1 1v2h-2c-.554 0-1 .446-1 1s.446 1 1 1h2v2c0 .554.446 1 1 1s1-.446 1-1v-2h2c.554 0 1-.446 1-1s-.446-1-1-1h-2v-2c0-.554-.446-1-1-1z" fill="#1e8bcd"/></svg>