<svg viewBox="0 0 16 16" xmlns="http://www.w3.org/2000/svg">
/&amp;amp;gt;<path d="m6 0c-.0273523.00111493-.0546967.00241705-.0820312.00390625-3.2801085.04484889-5.91613971 2.71567915-5.9179688 5.99609375.00159613.037778.00354935.07554.00585938.1132812.00371177.1997774.0174007.3992448.04101562.5976563.02395611.198837.05785271.3963499.1015625.5917969.0426158.1932148.0947629.3842034.15625.5722656.003877.010427.007784.020844.0117188.03125.0584495.1748443.12492625.3469019.19921875.515625.0128136.027442.0258348.054786.0390625.082031.0731262.1603532.15328205.3174065.24023438.4707032.0972919.1704397.20288761.3360033.31640622.4960937.011642.015682.023361.031307.035156.046875.1078544.1497406.2225597.2944257.34375.4335938l.00391.00391c.1249488.1428819.2566073.2797549.3945313.4101559.030327.027.060928.0537.091797.08008.1194343.109127.2432333.213379.3710937.3125.025248.01843.050639.03666.076172.05469.1333747.100087.2708639.19457.4121094.283203.040737.02392.081756.04736.1230468.07031.1262512.07568.2552448.146694.3867188.21289.066502.03118.1335703.06113.2011718.08984.1130348.05238.2276737.101237.34375.146484.071167.02479.142794.04823.2148438.07031.1185761.04151.2384269.07929.359375.113281.081639.01995.1636886.03818.2460938.05469.1061659.02439.2129763.04588.3203124.06445.1102744.01675.2209945.03043.3320313.04101.090276.01117.180794.02029.2714844.02734.12027425.0081984.24077165.0127584.36132435.0136844.6012131.000162 1.1990363-.09004 1.7734375-.267578.3824924-.118389.7521738-.274768 1.1035156-.466797.3511336-.191748.6822085-.418135.9882813-.675781.00326-.0026.00651-.0052.00977-.0078l5.277344 5.267578c.472611.489355 1.197037-.239083.705078-.708984l-5.1953174-5.1855599c-.423755.0376696-.8597622-.0864339-1.1699215-.3769531-.9339003.911532-2.1871739 1.421813-3.4921875 1.421875-.3338747.000072-.6669172-.033297-.9941406-.099609-.9870365-.200806-1.8904119-.695042-2.5917969-1.4179691-.1162059-.1194218-.2263694-.244578-.3300781-.375v-.00195c-.1036624-.1298498-.2007881-.2647828-.2910156-.4043v-.00195c-.0897983-.1396753-.1725832-.283734-.2480469-.4316438v-.0019531c-.1603687-.3157955-.286729-.6477369-.3769531-.9902344-.1106731-.4161241-.1671298-.8448013-.1679688-1.2753906.001542-2.7199793 2.1770876-4.9397822 4.8964844-4.9960938.0344908-.0016595.0689978-.0029616.1035156-.0039062.5510945.00129 1.0981842.093684 1.6191406.2734375l.7695313-.76953125c-.7532786-.32988694-1.5663291-.50140536-2.3886719-.50390625zm5.751953 7.6835938c-7.8346353 5.5442712-3.9173177 2.7721352 0 0z" fill="#3a3a38"/><path d="m6 1c-2.7614237 0-5 2.2385763-5 5s2.2385763 5 5 5c1.3050136-.000062 2.5582872-.510343 3.4921875-1.421875-.016612-.01556-.036895-.026472-.052734-.042969l-3.9394535-3.9394529.0839844.0683594c-.7095116-.5606326-.7077583-1.8033884.0117187-2.3535156l-.0996093.0859375 2.1230468-2.1230469c-.5209564-.1797532-1.0680461-.2721447-1.6191406-.2734375z" fill="#fafafa"/><path d="m10.498047-.00976563a.50005.50005 0 0 0 -.34375.15039063l-3.9570314 3.9570312a.50005.50005 0 0 0 -.00195.7929688.50005.50005 0 0 0 .00586.00391l3.9531254 3.953125a.50005.50005 0 1 0 .707027-.707035l-3.1464842-3.1464844 7.7851562.0058594a.50005.50005 0 1 0 0-1l-7.7851562-.0058594 3.1464842-3.14648435a.50005.50005 0 0 0 -.363281-.85742188z" fill="#1e8bcd" fill-rule="evenodd"/></svg>