<svg viewBox="0 0 32 32" xmlns="http://www.w3.org/2000/svg"><circle cx="13" cy="13" fill="#fafafa" r="8"/><path d="m13 3a10 10 0 0 0 -10 10 10 10 0 0 0 10 10 10 10 0 0 0 10-10 10 10 0 0 0 -10-10zm0 2a8 8 0 0 1 8 8 8 8 0 0 1 -8 8 8 8 0 0 1 -8-8 8 8 0 0 1 8-8z" fill="#3a3a38"/><path d="m28 28-8-8" fill="none" stroke="#3a3a38" stroke-linecap="round" stroke-width="2"/><path d="m11 17.499999h2l.0079-7.493394-.01008-.7660838-1.819811 1.6510488c-.135904.121396-.251168.182952-.381392.146536-.124558-.04248-.247896-.217595-.298853-.296502l-.497764-.741604 3-3h1.559322v10.5h1.440678v1.5h-5z" fill="#1e8bcd"/></svg>