<svg height="32" viewBox="0 0 32 32" width="32" xmlns="http://www.w3.org/2000/svg"><path d="m10.516054 5.9848054-2.4695277 20.0303886h2.3821097l1.13642-9.176787c.01068-.08624.08396-.151004.170861-.150993h1.045028c.387257 0 .686036.04906.907944.17682.212904.11271.388698.304137.534435.560264.000672.000661.0013.0013.002.002l4.523824 8.103944c.0936.157061.199063.276872.311919.363574.09484.0656.306838.121192.629799.121192h2.095971l-5.115875-9.411223-.002-.004c-.137621-.243233-.28744-.434057-.445032-.572184-.07341-.180478-.257899-.399232-.683702-.497631.551781-.244138.860143-.724254 1.180349-1.014284l7.062888-8.5151997h-1.970853c-.275191 0-.509046.037746-.70331.1112578-.184059.069652-.37732.2105108-.572183.4331109l-6.250307 7.726461c.000004.000667.000004.0013 0 .002-.189145.232095-.395618.404146-.621852.510595-.0026.0014-.0052.0027-.0079.004-.226746.09483-.497571.137085-.814566.137085h-.842381c-.104113.000122-.184503-.091486-.170859-.194701l1.084764-8.745662z" fill="#3a3a38" stroke-width="1.018764"/></svg>