<svg height="18" viewBox="0 0 140 18" width="140" xmlns="http://www.w3.org/2000/svg"><g fill="#3a3a38"><path d="m5 7h4v4h-4z"/><path d="m13 7h4v4h-4z"/><path d="m21 7h4v4h-4z"/><path d="m29 7h4v4h-4z"/><path d="m37 7h4v4h-4z"/><path d="m45 7h4v4h-4z"/><path d="m53 7h4v4h-4z"/><path d="m61 7h4v4h-4z"/><path d="m69 7h4v4h-4z"/><path d="m77 7h4v4h-4z"/><path d="m85 7h4v4h-4z"/><path d="m93 7h4v4h-4z"/><path d="m101 7h4v4h-4z"/><path d="m109 7h4v4h-4z"/><path d="m117 7h4v4h-4z"/><path d="m125 7h4v4h-4z"/><path d="m133 7h4v4h-4z"/></g></svg>