<svg viewBox="0 0 56 40" xmlns="http://www.w3.org/2000/svg"><path d="m6 4c-1.108 0-2 .892-2 2v28c0 1.108.892 2 2 2h2.0742188l.5-1h-3.5742188v-30h46v30h-4v1h3c1.108 0 2-.892 2-2v-28c0-1.108-.892-2-2-2zm19.425781 31 .5 1h11.074219v-1z"/><path d="m5 5v30h3.5742188l7.0839842-14.167969c.248541-.499689.795441-.835878 1.353516-.832031.550259.004807 1.085022.339328 1.330078.832031l7.083984 14.167969h11.515625v-3.435547-.001953-.017578c-.0016-.0029-.07273-.042149 0-.00586v-.005859c-.0972-.0579-.192313-.114101 0-.011719v-.351562c-.774996.097749-1.385656-.648265-1.136718-1.388672l.064453-.191406-.373047.033203c-.886113.07977-1.469924-.902203-.976563-1.642578l.113281-.167969-.36914-.064453c-.87542-.152311-1.185664-1.249817-.519531-1.837891l.154297-.134765-.341797-.158203c-.806182-.374677-.820182-1.515813-.023438-1.910157l.179688-.08789-.28711-.240235c-.68519-.569878-.403371-1.679614.470703-1.853515l.197266-.039063-.214844-.304687c-.513258-.727406.04518-1.725108.933594-1.667969l.201172.013672-.128906-.353516c-.30735-.83562.490654-1.654654 1.333984-1.36914l.191406.064453-.033203-.373047c-.07977-.886113.902203-1.469924 1.642578-.976563l.167969.113281.064453-.36914c.152311-.875423 1.249817-1.185664 1.837891-.519531l.134765.154297.158203-.341797c.175418-.377904.55605-.617902.972657-.613282.398582.0046.760855.232513.9375.589844l.08789.179688.240235-.28711c.569878-.68519 1.679614-.403371 1.853515.470703l.039063.197266.304687-.214844c.727406-.513258 1.725108.04517 1.667969.933594l-.013672.201172.353516-.128906c.83562-.30735 1.654655.490654 1.36914 1.333984l-.064453.191406.373047-.033203c.886113-.07977 1.469924.902203.976563 1.642578l-.113281.167969.36914.064453c.875423.152311 1.185664 1.249817.519531 1.837891l-.154297.134765.341797.158203c.263465.123106.464741.349097.556641.625v-18.007812zm46 18.683594c-.09003.265715-.281791.484866-.533203.609375l-.179688.08789.28711.240235c.68519.569878.403371 1.679614-.470703 1.853515l-.197266.039063.214844.304687c.513258.727406-.04518 1.725108-.933594 1.667969l-.201172-.013672.128906.353516c.30735.83562-.490654 1.654654-1.333984 1.36914l-.191406-.064453.033203.373047c.03816.42687-.184633.834681-.564453 1.033203v3.462891h3.941406zm-13.472656 7.300781-.353516.130859c-.0327.01139-.065949.021157-.099609.029297l.382812.654297c.08469.04601.110091.05895.195313.105469.08987.04661.115867.06091.205078.107422.02992.01478.038429.018393.068359.033203-.276941-.21475-.42976-.55256-.408203-.902344zm8.285156.382813-.056641.324218c-.06432.376405-.326241.689064-.685547.81836-1.66261.594697 1.836515-.701735.1875-.070313-1.649014.631419 1.822108-.742049.1875-.074219-1.634605.667831 1.804943-.782034.185547-.078125-1.619395.703915 1.785029-.821683.181641-.082031-1.603388.739651 1.768233-.860959.181641-.085937-1.586593.775024 1.748703-.899865.179687-.089844-1.569016.810017 1.728403-.938361.177734-.09375-1.550666.84461 1.707339-.978398.175782-.099609l.103515-.179688c-.230149.01374-.458497-.04798-.65039-.175781zm-6.328125.539062-.261719.185547c-.249444.175943-.562658.235739-.859375.164062.134239.06401.308362.14479.378907.179688-.010171-.01859 1.540329.562622.21875.083984-1.63874-.593497 1.930359.634413.273437.09375-1.00465-.327822-.347573-.110254.167969.052735.13543.02815.469164.107535.761718.179687-.333215-.132936-.576511-.42548-.646484-.777344zm4.291016.195312-.140625.304688c-.128793.276942-.370846.484822-.664063.570312.04902-.003799.135391-.011121.171875-.013671.160142-.02842.284299-.051355.484375-.083985.124135-.02544.177977-.036337.300781-.060547.271589-.06423.531684-.124129.652344-.148437.493787-.154537 1.232585-.391117.177734-.052734-1.659449.532321 1.916885-.679107.275391-.09375-.408486.145145-.864187.02677-1.150391-.298829zm-2.158203.185547-.212891.25586c-.240047.287941-.614395.427579-.984375.367187-.533115-.106302 1.709928.281933.173828.03125-1.742746-.284406 1.94784.275009.199219.029297-1.748621-.245714 1.952855.232294.199219.025391-1.753637-.206903 1.95701.189477.199218.021484-.36212-.03461.034126.005706.041016.003906.130766.0034.322586.009402.560547.019532.180205-.0055.246845-.008602.4375-.013672.05059-.0025.06463-.00336.115234-.00586.0629-.0043.08101-.007398.144531-.011718-.345928-.04883-.645509-.265166-.800781-.578125zm-3.117188.044922c.01665.0084.037324.019534.052734.027344.478418.199343.96336.386365.136719.056641.0083.0054-.142507-.063845-.189453-.083985zm.957031.34961c.000667.0037.385731.113972.054688.017578-1.673402-.487272 1.969411.509554.28125.076172-.330112-.08475-.335406-.09026-.335938-.09375z" fill="#fafafa" stroke-width="1.058362"/><path d="m5 5v30h3.5742188l2.4628902-4.927734c-.908878-1.250332-2.3730799-2.072266-4.037109-2.072266v-1-14-1c2.761424 0 5-2.238576 5-5h1 30 1c0 2.761424 2.238576 5 5 5v1 5.453125a1.059386 1.059386 0 0 1 .480469 1.566406l-.113281.167969.36914.064453a1.059386 1.059386 0 0 1 .519531 1.837891l-.154297.134765.341797.158203a1.059386 1.059386 0 0 1 .556641.625v-18.007812zm46 18.683594a1.059386 1.059386 0 0 1 -.533203.609375l-.179688.08789.28711.240235a1.059386 1.059386 0 0 1 -.470703 1.853515l-.197266.039063.214844.304687a1.059386 1.059386 0 0 1 -.933594 1.667969l-.201172-.013672.128906.353516a1.059386 1.059386 0 0 1 -1.333984 1.36914l-.191406-.064453.033203.373047a1.059386 1.059386 0 0 1 -.564453 1.033203v3.462891h3.941406zm-5.1875 7.683594-.056641.324218a1.059386 1.059386 0 0 1 -.630859.796875c.338256-.131596 1.298041-.495002.132812-.048828-1.649014.631419 1.822107-.74205.1875-.074219-1.634605.667831 1.804943-.782039.185547-.078125-1.619395.703915 1.785029-.821682.181641-.082031s1.768233-.860962.181641-.085937c-1.586593.775024 1.748703-.899861.179687-.089844s1.728403-.938361.177734-.09375c-1.550667.84461 1.707339-.978399.175782-.099609l.103515-.179688a1.059386 1.059386 0 0 1 -.65039-.175781zm-1.769531 1.005859c-.017551.140069-.027489.282357-.033203.425781.244218-.057226.464893-.107669.570312-.128906.493787-.154537 1.232585-.391112.177734-.052734-1.659449.532321 1.916885-.679107.275391-.09375a1.059386 1.059386 0 0 1 -.990234-.150391zm-19.617188.626953 1 2h11.515625v-2zm16.603516 0c-.079441-.018478 1.592559.154284.162109.017578-.36212-.034607.034127.005652.041016.003906.130766.003424.322586.009398.560547.019532.180205-.005537.246845-.008592.4375-.013672.05059-.002474.064634-.003437.115234-.00586.062901-.004346.081012-.007412.144531-.011718a1.059386 1.059386 0 0 1 -.0625-.009766z" fill="#f8db8f"/><path d="m12 7c0 2.7614237-2.2385763 5-5 5v1 14 1c1.6640289 0 3.128231.821934 4.037109 2.072266l.488282-.976563c-.891129-1.033571-2.1157251-1.77008-3.525391-2.009765v-14.175782c2.515297-.425619 4.486444-2.395199 4.914062-4.910156h30.175782c.425619 2.515297 2.395199 4.486444 4.910156 4.914062v4.283204a1.059386 1.059386 0 0 1 .195312 1.021484l-.064453.191406.373047-.033203a1.059386 1.059386 0 0 1 .496094.076172v-5.453125-1c-2.761424 0-5-2.2385763-5-5h-1-30zm11.925781 25 .5 1h12.515625v-1zm13.910157 0c.009466.004933.012055.006803.021484.011719.029917.014779.038431.018393.068359.033203a1.059386 1.059386 0 0 1 -.05664-.044922zm1.515624 0-.128906.091797a1.059386 1.059386 0 0 1 -.859375.164062c.134239.064012.308362.14479.378907.179688-.010174-.018585 1.54033.562618.21875.083984-1.63874-.593497 1.930359.634413.273437.09375-1.00465-.327822-.347573-.110259.167969.052735.13543.028147.469164.107535.761718.179687a1.059386 1.059386 0 0 1 -.646484-.777344l-.013672-.068359zm4.423829.101562-.140625.304688a1.059386 1.059386 0 0 1 -.664063.570312c.049021-.003773.135391-.011124.171875-.013671.160142-.028415.284299-.051354.484375-.083985.124135-.025439.177977-.036337.300781-.060547.034306-.008112.046723-.011257.082032-.019531.005714-.143424.015652-.285712.033203-.425781a1.059386 1.059386 0 0 1 -.160157-.148438zm-2.158203.185547-.212891.25586a1.059386 1.059386 0 0 1 -.984375.367187c-.533115-.106302 1.709928.281933.173828.03125-1.742746-.284406 1.94784.275012.199219.029297-1.748621-.245714 1.952855.232293.199219.025391-.326569-.03853.055288.008135.037109.003906h1.398437a1.059386 1.059386 0 0 1 -.738281-.568359zm-3.117188.044922c.016652.00841.03732.01953.052734.027344.478418.199343.96336.386364.136719.056641.0083.005429-.142507-.063836-.189453-.083985zm.957031.34961c.000667.003722.385733.113974.054688.017578-1.673402-.487272 1.969411.509552.28125.076172-.330112-.084746-.335406-.09026-.335938-.09375z" fill="#ed8733"/><path d="m19 12h19v2h-19z" fill="#797774"/><path d="m11 16v1h25.453125c.253615-.618479 1.009621-.850372 1.566406-.480469l.167969.113281.064453-.36914c.01635-.09118.044584-.179831.083985-.263672zm33.494141 0 .019531.09375.132812-.09375zm-33.494141 3v1h6.011719 16.84375c.207178-.323706.573422-.509817.957031-.486328l.201172.013672-.128906-.353516c-.020529-.056506-.036211-.11466-.046875-.173828zm0 3v1h3.574219l.5-1zm7.925781 0 .5 1h13.712891c-.14632-.323711-.120652-.699212.068359-1zm-7.925781 3v1h2.074219l.5-1zm9.425781 0 .5 1h12.728516c.02812-.03172.058124-.061724.089844-.089844l.154297-.134765-.341797-.158203c-.261126-.121746-.461411-.344591-.554688-.617188z" fill="#c8c6c4"/><g fill="#ed3d3b"><path d="m38.000002 30.917968v7.082032l4-4 4 4v-7.082032a8 8 0 0 1 -4 1.082032 8 8 0 0 1 -4-1.082032z" fill-rule="evenodd"/><path d="m41.34375 16.001953-.839844 1.816406-1.208984-1.375-.339844 1.972657-1.523437-1.015625.18164 1.99414-1.734375-.585937.691406 1.878906-1.826171-.117188 1.154297 1.634766-1.794922.359375 1.537109 1.28125-1.638672.810547 1.816406.839844-1.375 1.208984 1.972657.339844-1.015625 1.523437 1.99414-.18164-.585937 1.734375 1.878906-.691406-.117188 1.826171 1.634766-1.154297.359375 1.794922 1.28125-1.537109.810547 1.638672.839844-1.816406 1.208984 1.375.339844-1.972657 1.523437 1.015625-.18164-1.99414 1.734375.585937-.691406-1.878906 1.826171.117188-1.154297-1.634766 1.794922-.359375-1.537109-1.28125 1.638672-.810547-1.816406-.839844 1.375-1.208984-1.972657-.339844 1.015625-1.523437-1.99414.18164.585937-1.734375-1.878906.691406.117188-1.826171-1.634766 1.154297-.359375-1.794922-1.28125 1.537109zm.65625 5.998047a2 2 0 0 1 2 2 2 2 0 0 1 -2 2 2 2 0 0 1 -2-2 2 2 0 0 1 2-2z" fill="#ed3d3b"/></g><path d="m17.003909 21a.50005.50005 0 0 0 -.451172.277344l-8.4999998 17a.50005.50005 0 0 0 .4472657.722656h17.0000001a.50005.50005 0 0 0 .447266-.722656l-8.500001-17a.50005.50005 0 0 0 -.443359-.277344z" fill="#ed8733"/><path d="m17 22.591797-7.7109375 15.419922h15.4218755z" fill="#f8db8f"/><rect height="8" ry="1" width="2" x="16" y="26"/><circle cx="16.999998" cy="36.000004" r="1"/></svg>