<svg viewBox="0 0 32 32" xmlns="http://www.w3.org/2000/svg"><path d="m9 12c2.21 0 4 1.79 4 4h-2c0-1.1-.9-2-2-2s-2 .9-2 2c0 .55.219844 1.050156.589844 1.410156l1.240234 1.259766c.72.73 1.169922 1.730078 1.169922 2.830078v.5h-2c0-1.5-.449922-2.100078-1.169922-2.830078l-.90039-.919922c-.57-.57-.929688-1.37-.929688-2.25 0-2.21 1.79-4 4-4zm1 13v2h-2v-2z" fill="#fb983b"/><g transform="matrix(-1 0 0 1 32 0)"><path d="m4 5c-.52828.0163208-.997599.4714734-1 1v7 7c.0024.528527.47172.98368 1 1 .2310901.0071.4572703-.0676.6386719-.210938l8.9902341-7.113281c.220185-.174644.346584-.422461.371094-.675781-.02451-.25332-.150909-.501137-.371094-.675781l-8.9902341-7.1132815c-.1814016-.1433407-.4075818-.2180421-.6386719-.2109375z" fill="#309048"/><path d="m4 6v7 7l8.869141-7z" fill="#a1ddaa"/></g></svg>