<svg height="32" viewBox="0 0 32 32" width="32" xmlns="http://www.w3.org/2000/svg"><g transform="matrix(-2 0 0 2 24.00069 7.99931)"><path d="m4.0000001 6h3v1h-3z" fill="#fff"/><g fill="#1e8bcd"><rect height="7.5" rx=".249827" ry=".25" width=".5" x="6.500345" y="3.000345"/><rect height="7.5" rx=".249827" ry=".25" transform="rotate(90)" width=".5" x="6.500345" y="-10.500345"/></g></g><g transform="matrix(-1 0 0 1 32 0)"><path d="m4 5c-.52828.0163208-.997599.4714734-1 1v7 7c.0024.528527.47172.98368 1 1 .2310901.0071.4572703-.0676.6386719-.210938l8.9902341-7.113281c.220185-.174644.346584-.422461.371094-.675781-.02451-.25332-.150909-.501137-.371094-.675781l-8.9902341-7.1132815c-.1814016-.1433407-.4075818-.2180421-.6386719-.2109375z" fill="#309048"/><path d="m4 6v7 7l8.869141-7z" fill="#a1ddaa"/></g></svg>