<svg viewBox="0 0 16 16" xmlns="http://www.w3.org/2000/svg">
/&amp;amp;amp;gt;<path d="m1 5h14v9h-14z" fill="#fafafa"/><path d="m0 5v9.5c-.00038442.276301.22369855.500384.5.5h15c.276301.000384.500384-.223699.5-.5v-9.5h-.998047v9.001953h-14.00390612v-9.001953z" fill="#3a3a38"/><path d="m0 1h16v4h-16z" fill="#0063b1"/><g fill="#ed3d3b" stroke-width=".270147"><path d="m7.0473392 12.958789v-4.3846194l-.5223554-.0685921q-.1108026-.0105526-.1793947-.0685921-.0685921-.0580395-.0685921-.1635658v-.3798948h.7703422v-.4906975q0-.4432106.116079-.7861712.1213553-.3482369.3429606-.5803948.2216053-.2374343.5381843-.3587896.316579-.1266316.7123027-.1266316.1635659 0 .316579.026382.1582896.026382.3007501.073868l-.0263816.4643159q-.010553.1213553-.1266316.1371842-.116079.010553-.3113027.010553-.2216053 0-.401.058039-.1741185.05804-.3007501.1952237-.1266316.1371842-.1952237.3640658-.068592.2216053-.068592.548737v.4643161h1.3876712v.6753685h-1.3560134v4.3898957z"/><path d="m11.168143 10.310078-1.5354087-2.5115269h.8864217q.105526 0 .153013.036934.05276.036934.09497.10025l1.076369 1.8730925q.02111-.058039.04221-.1108027.02638-.05804.06859-.116079l.90225-1.6251055q.04749-.073868.10025-.116079.05276-.042211.126632-.042211h.849487l-1.540685 2.4640399 1.609277 2.696198h-.891698q-.105526 0-.174118-.05804-.06332-.06331-.105527-.131908l-1.092197-1.952237q-.04221.121356-.09497.205777l-.986671 1.74646q-.04221.07387-.105527.131908-.05804.05804-.158289.05804h-.8283798z"/></g><path d="m5 5v4h-4v1h4v4h1v-4-1-4z" fill="#797774"/><path d="m1 2h14v2h-14z" fill="#83beec" stroke-width=".661438"/></svg>