<svg height="354.72815mm" viewBox="0 0 372.72406 354.72815" width="372.72406mm" xmlns="http://www.w3.org/2000/svg" xmlns:xlink="http://www.w3.org/1999/xlink"><linearGradient id="a" gradientUnits="userSpaceOnUse" x1="-207.866674" x2="-313.55302" y1="-235.731586" y2="-512.47178"><stop offset="0" stop-color="#385529"/><stop offset="1" stop-color="#20465d"/></linearGradient><linearGradient id="b" gradientTransform="matrix(1.721118 4.674508 -4.6768944 1.7219966 1258.1241 352.02612)" gradientUnits="userSpaceOnUse" x1="-203.79489" x2="-178.08011" y1="166.93982" y2="153.62662"><stop offset="0" stop-color="#6b9651"/><stop offset=".34644496" stop-color="#a4ca8d"/><stop offset="1" stop-color="#8db576"/></linearGradient><linearGradient id="c" gradientUnits="userSpaceOnUse" x1="-323.589879" x2="-274.394145" y1="-285.127264" y2="-344.482132"><stop offset="0" stop-color="#648737"/><stop offset="1" stop-color="#829d19"/></linearGradient><linearGradient id="d" gradientTransform="matrix(1.721118 4.674508 -4.6768944 1.7219966 1258.1241 352.02612)" gradientUnits="userSpaceOnUse" x1="-238.79185" x2="-210.35672" y1="149.8284" y2="139.60396"><stop offset="0" stop-color="#88ae72"/><stop offset="1" stop-color="#345653"/></linearGradient><radialGradient id="e" cx="438.71869" cy="102.63671" gradientTransform="matrix(1.9200906 -.00000003 .00000003 1.9200906 -664.04956 -463.04547)" gradientUnits="userSpaceOnUse" r="23.177462" xlink:href="#f"/><linearGradient id="f"><stop offset="0" stop-color="#fcf395" stop-opacity=".724299"/><stop offset="1" stop-color="#fcf395" stop-opacity="0"/></linearGradient><radialGradient id="g" cx="328.793911" cy="-385.9811" gradientUnits="userSpaceOnUse" r="115.19316"><stop offset="0" stop-color="#ffe680" stop-opacity=".787879"/><stop offset="1" stop-color="#fbff8b" stop-opacity="0"/></radialGradient><radialGradient id="h" cx="438.71869" cy="102.63671" gradientTransform="matrix(1.9200905 -.00000003 .00000003 1.9200905 -531.60368 -646.42047)" gradientUnits="userSpaceOnUse" r="23.177462" xlink:href="#f"/><linearGradient id="i" gradientUnits="userSpaceOnUse" x1="400.32681" x2="428.45718" y1="176.45792" y2="201.35971"><stop offset="0" stop-color="#7bafdc"/><stop offset="1" stop-color="#5d7b93"/></linearGradient><radialGradient id="j" cx="438.71869" cy="102.63671" gradientTransform="matrix(1.3041262 -.00000002 .00000002 1.3041262 -138.5714 42.751161)" gradientUnits="userSpaceOnUse" r="23.177462" xlink:href="#f"/><linearGradient id="k" gradientUnits="userSpaceOnUse" x1="400.32681" x2="428.45718" y1="176.45792" y2="201.35971"><stop offset="0" stop-color="#3b80ab"/><stop offset="1" stop-color="#20465d"/></linearGradient><linearGradient id="l" gradientUnits="userSpaceOnUse" x1="411.80502" x2="409.72617" xlink:href="#m" y1="232.31361" y2="246.48772"/><linearGradient id="m"><stop offset="0" stop-color="#7c91ac"/><stop offset="1" stop-color="#8da1b8"/></linearGradient><linearGradient id="n" gradientUnits="userSpaceOnUse" x1="328.80438" x2="350.603" y1="265.42493" y2="268.0976"><stop offset="0" stop-color="#677f9f"/><stop offset="1" stop-color="#375571"/></linearGradient><linearGradient id="o" gradientUnits="userSpaceOnUse" x1="342.06845" x2="395.93005" xlink:href="#m" y1="258.91367" y2="213.74554"/><linearGradient id="p" gradientUnits="userSpaceOnUse" x1="227.1787" x2="236.66985" y1="237.34032" y2="205.76627"><stop offset="0" stop-color="#90b7e7"/><stop offset="1" stop-color="#f8f4c9"/></linearGradient><linearGradient id="q" gradientUnits="userSpaceOnUse" x1="287.04327" x2="291.76212" y1="104.47689" y2="56.368378"><stop offset="0" stop-color="#e0c8c8"/><stop offset="1" stop-color="#e0c8c8"/></linearGradient><linearGradient id="r" gradientUnits="userSpaceOnUse" x1="290.83029" x2="326.66876" y1="57.52739" y2="39.543564"><stop offset="0" stop-color="#fff"/><stop offset="1" stop-color="#f1fbc7"/></linearGradient><linearGradient id="s" gradientUnits="userSpaceOnUse" x1="308.08258" x2="306.59653" y1="111.93678" y2="86.813446"><stop offset="0" stop-color="#e0c8c8"/><stop offset="1" stop-color="#ab9696"/></linearGradient><linearGradient id="t" gradientUnits="userSpaceOnUse" x1="199.87111" x2="203.86049" y1="-304.47889" y2="-367.55451"><stop offset="0" stop-color="#a99c5e"/><stop offset="1" stop-color="#e2dcc5"/></linearGradient><linearGradient id="u" gradientUnits="userSpaceOnUse" x1="197.34269" x2="167.65028" xlink:href="#v" y1="-321.73638" y2="-367.76565"/><linearGradient id="v"><stop offset="0" stop-color="#edeadd"/><stop offset="1" stop-color="#fff"/></linearGradient><linearGradient id="w" gradientUnits="userSpaceOnUse" x1="445.27103" x2="452.62091" y1="109.86376" y2="76.722343"><stop offset="0" stop-color="#1c99e0"/><stop offset="1" stop-color="#0a364e"/></linearGradient><linearGradient id="x" gradientUnits="userSpaceOnUse" x1="457.46933" x2="483.91174" y1="81.171448" y2="89.724075"><stop offset="0" stop-color="#036da5"/><stop offset="1" stop-color="#0299c1"/></linearGradient><linearGradient id="y" gradientUnits="userSpaceOnUse" x1="433.758964" x2="441.089834" xlink:href="#z" y1="66.48637" y2="69.88815"/><linearGradient id="z"><stop offset="0" stop-color="#fff"/><stop offset="1" stop-color="#fff" stop-opacity="0"/></linearGradient><linearGradient id="A" gradientUnits="userSpaceOnUse" x1="468.06784" x2="440.04474" y1="82.457657" y2="32.745522"><stop offset="0" stop-color="#7f92a2"/><stop offset="1" stop-color="#768895"/></linearGradient><linearGradient id="B" gradientUnits="userSpaceOnUse" x1="372.6326" x2="375.8623" y1="33.580486" y2="107.39139"><stop offset="0" stop-color="#4c95b6"/><stop offset="1" stop-color="#365472"/></linearGradient><linearGradient id="C" gradientUnits="userSpaceOnUse" x1="436.56924" x2="361.50916" y1="112.82684" y2="10.017335"><stop offset="0" stop-color="#677f9f"/><stop offset="1" stop-color="#91c0d8"/></linearGradient><linearGradient id="D" gradientUnits="userSpaceOnUse" x1="453.32828" x2="486.30771" y1="49.26218" y2="65.56562"><stop offset="0" stop-color="#87b0ca"/><stop offset="1" stop-color="#6983a2"/></linearGradient><linearGradient id="E" gradientUnits="userSpaceOnUse" x1="379.43793" x2="439.3432" y1="4.452206" y2="24.449261"><stop offset="0" stop-color="#a9cee1"/><stop offset="1" stop-color="#677f9f"/></linearGradient><linearGradient id="F" gradientUnits="userSpaceOnUse" x1="450.43402" x2="484.74203" y1="36.08139" y2="51.583023"><stop offset="0" stop-color="#7691ae"/><stop offset="1" stop-color="#677f9f"/></linearGradient><linearGradient id="G" gradientUnits="userSpaceOnUse" x1="431.58981" x2="468.88843" xlink:href="#z" y1="41.682819" y2="85.078575"/><linearGradient id="H" gradientUnits="userSpaceOnUse" x1="440.38681" x2="455.64435" xlink:href="#z" y1="39.354145" y2="44.191936"/><linearGradient id="I" gradientUnits="userSpaceOnUse" x1="354.80151" x2="355.8096" xlink:href="#z" y1="1.931534" y2="34.282871"/><linearGradient id="J" gradientUnits="userSpaceOnUse" x1="356.59018" x2="364.70126" xlink:href="#z" y1="-1.549683" y2="-6.318365"/><linearGradient id="K" gradientUnits="userSpaceOnUse" x1="387.42456" x2="381.74661" y1="67.128197" y2="45.060703"><stop offset="0" stop-color="#dc85e9"/><stop offset="1" stop-color="#f8f1cb"/></linearGradient><linearGradient id="L"><stop offset="0" stop-color="#fff"/><stop offset="1" stop-color="#c254d2"/></linearGradient><linearGradient id="M" gradientUnits="userSpaceOnUse" x1="347.26794" x2="383.90924" y1="-40.876339" y2="-42.38269"><stop offset="0" stop-color="#ff7f2a"/><stop offset="1" stop-color="#f6cdb4"/></linearGradient><linearGradient id="N" gradientUnits="userSpaceOnUse" x1="324.37396" x2="302.13605" xlink:href="#O" y1="83.309219" y2="106.74373"/><linearGradient id="O"><stop offset="0" stop-color="#fff" stop-opacity=".368687"/><stop offset="1" stop-color="#fff" stop-opacity="0"/></linearGradient><linearGradient id="P" gradientUnits="userSpaceOnUse" x1="384.52396" x2="394.60715" y1="212.76161" y2="232.79434"><stop offset="0" stop-color="#1dbe03"/><stop offset="1" stop-color="#18a303"/></linearGradient><linearGradient id="Q" gradientUnits="userSpaceOnUse" x1="380.99274" x2="376.85001" y1="229.32477" y2="208.47774"><stop offset="0" stop-color="#43c330"/><stop offset="1" stop-color="#7cd270"/></linearGradient><linearGradient id="R" gradientUnits="userSpaceOnUse" x1="384.92093" x2="393.47321" y1="207.12851" y2="219.52737"><stop offset="0" stop-color="#f0c56e"/><stop offset="1" stop-color="#edb450"/></linearGradient><linearGradient id="S" gradientUnits="userSpaceOnUse" x1="401.80969" x2="411.70392" y1="190.89001" y2="216.78139"><stop offset="0" stop-color="#b94603"/><stop offset="1" stop-color="#a33e03"/></linearGradient><linearGradient id="T" gradientUnits="userSpaceOnUse" x1="392.28784" x2="398.96954" y1="183.35027" y2="211.01266"><stop offset="0" stop-color="#e97e3b"/><stop offset="1" stop-color="#d36118"/></linearGradient><linearGradient id="U" gradientUnits="userSpaceOnUse" x1="391.8725" x2="391.11652" y1="232.54283" y2="208.16339"><stop offset="0" stop-color="#0369a3"/><stop offset="1" stop-color="#048edc"/></linearGradient><linearGradient id="V" gradientUnits="userSpaceOnUse" x1="374.3988" x2="383.27792" y1="205.31416" y2="232.90642"><stop offset="0" stop-color="#68c1f4"/><stop offset="1" stop-color="#1c99e0"/></linearGradient><linearGradient id="W" gradientUnits="userSpaceOnUse" x1="373.796071" x2="381.126941" xlink:href="#z" y1="203.568426" y2="206.970206"/><linearGradient id="X" gradientUnits="userSpaceOnUse" x1="390.681447" x2="398.012317" xlink:href="#z" y1="180.785972" y2="184.187752"/><linearGradient id="Y" gradientUnits="userSpaceOnUse" x1="423.581952" x2="430.912822" xlink:href="#z" y1="171.457301" y2="174.859081"/><linearGradient id="Z" gradientUnits="userSpaceOnUse" x1="318.0481" x2="341.17939" y1="-526.974826" y2="-508.405231"><stop offset="0" stop-color="#f9cfb5"/><stop offset="1" stop-color="#f09e6f"/></linearGradient><radialGradient id="aa" cx="422.204283" cy="-395.766238" gradientUnits="userSpaceOnUse" r="44.502827" xlink:href="#f"/><linearGradient id="ab" gradientUnits="userSpaceOnUse" x1="300.47383" x2="320.52696" y1="-513.515376" y2="-497.983485"><stop offset="0" stop-color="#ef7e36"/><stop offset="1" stop-color="#c55b16"/></linearGradient><linearGradient id="ac" gradientUnits="userSpaceOnUse" x1="291.58442" x2="281.19255" y1="-346.90624" y2="-370.42596"><stop offset="0" stop-color="#eeb755"/><stop offset="1" stop-color="#f9db6f"/></linearGradient><linearGradient id="ad" gradientUnits="userSpaceOnUse" x1="443.84253" x2="449.08444" y1="138.09639" y2="171.03415"><stop offset="0" stop-color="#ce9f2d"/><stop offset="1" stop-color="#b08826"/></linearGradient><linearGradient id="ae" gradientUnits="userSpaceOnUse" x1="439.317792" x2="443.618792" xlink:href="#z" y1="134.546817" y2="137.753137"/><linearGradient id="af" gradientUnits="userSpaceOnUse" x1="442.966871" x2="448.342971" xlink:href="#z" y1="136.499761" y2="150.261801"/><linearGradient id="ag" gradientTransform="matrix(.11253923 .06497456 0 .11332301 426.75936 116.35004)" gradientUnits="userSpaceOnUse" x1="389.85834" x2="401.54822" xlink:href="#z" y1="166.01152" y2="165.56099"/><linearGradient id="ah" gradientTransform="matrix(.11253922 .06497456 0 .11332301 430.70335 116.34967)" gradientUnits="userSpaceOnUse" x1="389.85834" x2="393.79596" xlink:href="#z" y1="166.01152" y2="169.07349"/><linearGradient id="ai" gradientUnits="userSpaceOnUse" x1="246.1382" x2="248.96156" y1="180.50006" y2="144.1514"><stop offset="0" stop-color="#e7d4d4"/><stop offset="1" stop-color="#dbb2b2"/></linearGradient><linearGradient id="aj" gradientUnits="userSpaceOnUse" x1="286.20463" x2="300.7454" xlink:href="#z" y1="-358.47593" y2="-358.47593"/><linearGradient id="ak" gradientUnits="userSpaceOnUse" x1="427.86572" x2="445.00394" y1="253.81558" y2="265.91083"><stop offset="0" stop-color="#b2c5b3"/><stop offset="1" stop-color="#68826a"/></linearGradient><linearGradient id="al" gradientUnits="userSpaceOnUse" x1="463.15866" x2="478.57916" y1="225.54387" y2="179.03897"><stop offset="0" stop-color="#a5b7a7"/><stop offset="1" stop-color="#d4e95f"/></linearGradient><linearGradient id="am" gradientUnits="userSpaceOnUse" x1="343.90793" x2="373.10526" xlink:href="#z" y1="136.39871" y2="161.91211"/><linearGradient id="an" gradientUnits="userSpaceOnUse" x1="377.59891" x2="377.5571" y1="193.34622" y2="150.02148"><stop offset="0" stop-color="#fff" stop-opacity="0"/><stop offset=".65953171" stop-color="#fff" stop-opacity=".823232"/><stop offset="1" stop-color="#fff" stop-opacity="0"/></linearGradient><linearGradient id="ao" gradientUnits="userSpaceOnUse" x1="192.99857" x2="159.59211" y1="-309.36476" y2="-332.32782"><stop offset="0" stop-color="#dcd6bd"/><stop offset="1" stop-color="#f3f1e8"/></linearGradient><linearGradient id="ap" gradientUnits="userSpaceOnUse" x1="287.55502" x2="249.19374" y1="142.32111" y2="99.290703"><stop offset="0" stop-color="#edeadd"/><stop offset="1" stop-color="#d0c8a6"/></linearGradient><linearGradient id="aq" gradientTransform="matrix(.99999997 .46630764 0 .99999997 -28.621988 -102.50388)" gradientUnits="userSpaceOnUse" x1="301.74957" x2="324.07974" xlink:href="#v" y1="94.247169" y2="108.24984"/><clipPath id="ar"><path d="m285.65829 82.083641h30.049107v21.544643h-30.049107z"/></clipPath><linearGradient id="as" gradientUnits="userSpaceOnUse" x1="196.06443" x2="188.6486" y1="-351.95437" y2="-369.54724"><stop offset="0" stop-color="#e47a35"/><stop offset="1" stop-color="#f3bc5d"/></linearGradient><linearGradient id="at" gradientUnits="userSpaceOnUse" x1="339.18344" x2="344.32153" xlink:href="#z" y1="37.618519" y2="60.399506"/><linearGradient id="au" gradientUnits="userSpaceOnUse" x1="253.366048" x2="218.299188" xlink:href="#O" y1="-465.860711" y2="-443.49528"/><linearGradient id="av" gradientUnits="userSpaceOnUse" x1="427.18884" x2="446.81647" y1="-8.385137" y2="12.624707"><stop offset="0" stop-color="#fafe92"/><stop offset="1" stop-color="#f9db6f"/></linearGradient><linearGradient id="aw" gradientUnits="userSpaceOnUse" x1="342.52185" x2="349.30112" y1="80.828423" y2="64.181023"><stop offset="0" stop-color="#81a539"/><stop offset="1" stop-color="#8fb347"/></linearGradient><linearGradient id="ax" gradientUnits="userSpaceOnUse" x1="298.55717" x2="338.83787" y1="-207.74586" y2="-234.1464"><stop offset="0" stop-color="#828071"/><stop offset="1" stop-color="#cecbbc"/></linearGradient><linearGradient id="ay" gradientUnits="userSpaceOnUse" x1="199.72346" x2="196.80009" xlink:href="#z" y1="-366.75244" y2="-364.19532"/><filter id="az" color-interpolation-filters="sRGB" height="1.065571" width="1.092669" x="-.046335" y="-.032786"><feGaussianBlur stdDeviation="2.0226957"/></filter><linearGradient id="aA" gradientUnits="userSpaceOnUse" x1="359.54462" x2="386.5986" xlink:href="#L" y1="56.260239" y2="52.38483"/><linearGradient id="aB" gradientUnits="userSpaceOnUse" x1="364.554223" x2="393.181913" xlink:href="#L" y1="76.634907" y2="78.171703"/><linearGradient id="aC" gradientUnits="userSpaceOnUse" x1="364.506446" x2="393.134136" xlink:href="#L" y1="88.010775" y2="89.547571"/><linearGradient id="aD" gradientTransform="matrix(10.477202 0 0 6.82409 255.09608 -1164.1969)" gradientUnits="userSpaceOnUse" x1="10.760489" x2="10.268553" y1="125.70395" y2="108.99121"><stop offset="0" stop-color="#294c4a"/><stop offset="1" stop-color="#19333d"/></linearGradient><g transform="translate(-66.113256 538.77172)"><g><g transform="matrix(.34551637 .93841272 -.93841272 .34551637 0 0)"><ellipse cx="-254.3817" cy="-373.78561" fill="url(#a)" rx="170.90765" ry="170.90761"/><path d="m-159.83456-373.78552a94.547142 94.547104 0 0 1 -72.4132 91.91977 94.547142 94.547104 0 0 1 -106.31776-48.88205l84.18382-43.03772z" fill="#6c8422"/><path d="m-193.92891-477.35993a119.92583 119.9258 0 0 1 57.58398 82.37239 119.92583 119.9258 0 0 1 -25.31741 97.26332l-92.71936-76.0613z" fill="#436557"/></g><path d="m258.48305-338.83416-2.93996 140.58376s-11.22534 2.13818-30.46873-4.00904c-19.24341-6.1472-24.85607-15.50163-24.85607-15.50163z" fill-opacity=".247475"/><path d="m235.00277-184.10879c-66.81656-10.13014-122.90195-55.75552-146.401002-119.16012-.35756-.92404.43009-1.61492.93774-1.77572l173.332572-62.81941-25.58531 182.54523c-.13514.96892-.62093 1.4618-2.284 1.21002z" fill="url(#b)"/><path d="m-299.32869-256.18727a125.89514 125.89512 0 0 1 -71.30848-69.28417l116.25547-48.31408z" fill="url(#c)" transform="matrix(.34551637 .93841272 -.93841272 .34551637 0 0)"/><path d="m127.25314-458.55965-17.37253 24.58879 128.8239 52.6521z" fill-opacity=".267677"/><path d="m114.53399-447.56352c25.89213-40.96294 50.94227-63.06664 93.55284-80.68617l54.78525 160.38565z" fill="url(#d)"/><ellipse cx="-238.24078" cy="-372.28287" rx="40.007908" ry="38.355846" transform="matrix(.32895518 .94434553 -.93191494 .36267691 0 0)"/><g fill="none"><path d="m184.44939-409.52695-69.75735-38.21953" stroke="#bcc7b7" stroke-width=".79375"/><path d="m136.34087-437.18935c-.86985-.32618 32.27293-53.74616 81.78447-62.54107" stroke="#fff" stroke-opacity=".277778" stroke-width=".529167"/><g stroke-width=".765"><path d="m244.4112-237.04137-7.03715 51.80125" stroke="#3a4f2e"/><path d="m136.50822-321.97583-47.061112 17.32357" stroke="#a5c096" stroke-linecap="round"/></g></g><circle cx="178.33006" cy="-265.97391" fill="url(#e)" r="44.056404"/><path d="m194.02211-533.3594 12.29439 25.12334c.64103-.64103-3.38927.56731-10.00397 3.75063-5.96745 3.03674-10.67165 5.60195-15.57514 8.72857-.49413.31528.79629.7486.28016 1.15028-3.33374 2.59441-8.8675 6.68257-12.28891 9.31176-.70268.53996-.92356-1.29345-1.62943-.73152-11.06477 8.80837-22.42755 20.3208-31.0746 34.71869l-25.01817-16.51143c-.0321.124 32.92727-53.21484 83.01567-65.54032z" fill-opacity=".14486"/><path d="m156.47958-502.13429 4.42313 4.56135 14.85891-11.12692-4.83776-5.11424z" fill="#67865c"/><path d="m158.69478-497.70912c4.58519-3.68104 8.43806-6.79369 12.85259-9.52947l9.18739 10.26251c-5.04783 3.34719-9.18745 6.25874-13.09692 9.4806z" fill="#8eb43f"/><g fill="none" stroke="#efa"><path d="m242.31629-316.36594-20.39956 12.67007 7.76751 3.3235-57.87622 36.26672" stroke-width="1.322917"/><path d="m175.70497-247.57892 12.545-8.40024-29.10417-14.55208-9.07141 5.85863" stroke-width="1.322917"/><g stroke-linecap="round" stroke-width="1.461673"><rect height="8.767051" ry=".448629" transform="matrix(.90630779 .42261826 -.86602541 .5 0 0)" width="13.607142" x="-196.23225" y="-370.2663"/><g transform="matrix(.90630779 .42261826 -.8660254 .5 0 0)"><rect height="8.767051" ry=".448629" width="13.607142" x="-160.43929" y="-364.57016"/><rect height="8.767051" ry=".448629" width="13.607142" x="-145.47502" y="-337.06055"/></g></g><path d="m168.5049-242.90434-6.23889 4.02894 11.75985 5.3454-8.72997 5.84189" stroke-width="1.322917"/></g><path d="m163.42527-491.97492 4.35401 4.5959 3.38645-2.86812-9.29546-9.88292-2.28069 2.07334z" fill="#668000" fill-opacity=".425234"/><path d="m193.26938-536.34654c-50.0884 12.32547-83.0477 65.6647-83.0156 65.5407l25.01811 16.51114c9.29752-15.48097 21.73431-27.62409 33.56489-36.65875l-10.76783-11.45718s9.74495-7.25673 13.33873-9.5374l10.2371 12.1605c12.64795-7.8562 22.56583-11.60286 23.83935-11.59826zm12.21475 24.96075.0796.16278c.10991-.1099.0746-.16223-.0796-.16278z" fill="#85a93b"/><circle cx="328.79388" cy="-385.98108" fill="url(#g)" r="0"/><g fill="none" stroke="#fff" stroke-opacity=".277778"><path d="m130.14803-341.01514c-.86665.3346-11.62078-61.60477 19.51926-101.08946" stroke-width=".529167"/><path d="m239.12423-206.13431c-.75806 3.16481-101.0005-19.58411-129.02188-106.52712" stroke-width="1.375385"/><path d="m408.30049-418.96901c15.24473 2.86306 27.58784 139.21224-88.12355 197.17994" stroke-width="1.110053"/></g><circle cx="358.78177" cy="-441.31519" fill="#142a37" r="0"/><path d="m303.19761-220.09942-19.62334 14.96952s-97.97267-41.09733-122.66141-66.95064c-41.44098-43.39574-33.03549-104.77532-33.03549-104.77532l23.65262-13.2924s-11.68874 66.00253 33.02974 108.4853c23.74387 22.55679 118.63788 61.56354 118.63788 61.56354z" fill-opacity=".112245"/><path d="m302.7575-228.82728-19.62334 14.96954s-97.97267-41.09733-122.66142-66.95067c-41.44097-43.39574-33.03548-104.77531-33.03548-104.77531l23.65262-13.29239s-11.68875 66.00252 33.02975 108.48532c23.74386 22.55678 118.63787 61.56351 118.63787 61.56351z" fill="#cecbbc"/><path d="m310.5799-368.01057c4.71225 2.94515-16.98577 72.58351-59.22932 81.70912l42.80933 14.46525c0 6.36926 49.26005-33.70096 51.80124-87.5734z" fill-opacity=".280612"/><path d="m264.63882-245.3857-20.45698 14.0987-13.54582-6.77291 22.66852-13.68404z" fill-opacity=".191589"/><path d="m150.28931-374.2658-23.45715 10.16476c-.8909 3.34082 8.78398 52.72757 14.07428 55.31983l21.69789-10.16479s-12.5105-32.64453-12.31502-55.3198z" fill-opacity=".093458"/><g fill="none"><path d="m127.43726-385.58372s-8.40549 61.37957 33.03548 104.77531c24.68875 25.85332 122.66142 66.95065 122.66142 66.95065" stroke="#828071" stroke-width=".865"/><path d="m150.4848-474.25196-12.31503-9.28512c-.83857-.4193 30.74625-34.8643 61.18409-39.97492" stroke="#abc837" stroke-width=".465"/><path d="m151.01396-474.25195-12.31501-9.28512c-.83858-.41929 30.74624-34.8643 61.18408-39.97492" stroke="#69895d" stroke-width=".465"/><g stroke="#abc837" stroke-width=".264583"><path d="m171.78775-511.70621 9.8829 11.8526"/><path d="m167.77928-487.5518c4.119-3.41368 8.38018-6.6283 12.95837-9.39914"/></g></g><circle cx="310.77612" cy="-449.34888" fill="url(#h)" r="0"/><path d="m266.91414-391.76326v3.8728c0 8.46212 3.45839 15.25658 7.75465 15.27691l108.48309.51234c4.08461.0209 2.79124-7.52798 3.27773-15.96998l.0262-2.81764z" fill="#073e5d" fill-opacity=".182243"/><path d="m299.36318-428.61336h78.58491c4.82563 0 8.71052 2.53035 8.71052 5.67341v127.74852c0 3.14295-3.88489 5.67341-8.71052 5.67341h-78.58491c-4.82563 0-11.14925-2.96138-8.71052-5.67341 41.31296-45.94441 43.86123-88.73467 0-127.74852-2.85094-2.5359 3.88489-5.67341 8.71052-5.67341z" fill="url(#aD)"/></g><g><path d="m283.13415-213.85776s17.44255 6.62149 24.90658 7.72726 33.72633-17.6925 33.72633-17.6925l-42.98725-5.11424z" fill="#cecbbc"/><g transform="matrix(1.4723196 0 0 1.4723196 -425.32121 -562.73644)"><path d="m424.29743 205.05325 30.10447-17.38472c.69754-.81836.64818-1.63673.0996-2.45509l-30.17063 11.85514z" fill="#464f58"/><path d="m403.3739 178.64953-23.37634 13.51885 39.8055 20.27827 19.52722-12.39227z" fill-opacity=".209184"/><path d="m384.40521 183.70626 29.74584-17.17377 40.35042 18.68095-30.08318 17.01893z" fill="url(#i)"/><path d="m384.40521 183.70626c-.83437.94085-.50202 1.71891 0 2.47329l39.89222 18.8737c.67589-.75131 1.0661-1.59283.0668-2.87314z" fill="#677f9f"/><path d="m454.36748 185.20138-40.29723-18.78047" fill="none" stroke="#a3cdfc" stroke-width=".264583"/><path d="m397.99157 187.35644 24.29647 11.28524 5.3107-3.05365-13.23119-5.3871-1.63878.34193-4.94463-1.89764-.17441-1.34378-5.20462-1.95792z" fill-opacity=".182243"/><circle cx="433.5733" cy="176.60226" fill="url(#j)" r="29.923128"/><path d="m420.41328 180.94962 1.87762 8.1207 2.15926 1.07963-.18777 5.25733" fill="none" stroke="#fcf395" stroke-width=".179705"/></g><g transform="matrix(1.1742926 0 0 1.1742926 -287.9338 -550.98699)"><path d="m424.29743 205.05325 30.10447-17.38472c.69754-.81836.64818-1.63673.0996-2.45509l-30.17063 11.85514z" fill="#10232e"/><path d="m384.40521 183.70626 29.74584-17.17377 40.35042 18.68095-30.08318 17.01893z" fill="url(#k)"/><path d="m384.40521 183.70626c-.83437.94085-.50202 1.71891 0 2.47329l39.89222 18.8737c.67589-.75131 1.0661-1.59283.0668-2.87314z" fill="#295a77"/><path d="m454.36748 185.20138-40.29723-18.78047" fill="none" stroke="#a3cdfc" stroke-width=".264583"/></g><g transform="translate(-147.58186 -632.82143)"><circle cx="252.37251" cy="303.46469" fill="#fff" r="3.474504"/><path d="m252.77342 303.33106 69.49008-39.68952" fill="none" stroke="#fff" stroke-width="1.365"/></g><g transform="translate(.584818 -514.89287)"><circle cx="252.37251" cy="303.46469" fill="#fff" r="3.474504"/><path d="m252.77342 303.33106 69.49008-39.68952" fill="none" stroke="#fff" stroke-width="1.365"/></g><g transform="translate(26.976368 -638.10659)"><circle cx="252.37251" cy="303.46469" fill="#fff" r="3.474504"/><path d="m252.77342 303.33106 69.49008-39.68952" fill="none" stroke="#fff" stroke-width="1.365"/></g><g transform="translate(-60.661142 -553.11954)"><circle cx="252.37251" cy="303.46469" fill="#fff" r="3.474504"/><path d="m252.77342 303.33106 69.49008-39.68952" fill="none" stroke="#fff" stroke-width="1.365"/></g><g transform="translate(-118.09972 -496.75001)"><path d="m392.33927 238.21949 12.37874-14.2686 13.22917.94494 3.87424 5.66964-1.51191 9.6384-12.00073 8.78794z" fill="url(#l)"/><path d="m409.06472 247.00744-16.72545-8.78795-.18897 3.49628 16.44195 8.88244z" fill="#677f9f"/><path d="m419.61315 237.42848s-.80182-4.14268-4.40994-5.47903c-3.60815-1.33635-12.96257-.26727-12.96257-.26727l14.56618-7.61718s4.00905 1.20271 4.14269 2.6727c.13362 1.46998.80179 9.08716.80179 9.08716z" fill="#677f9f"/><path d="m401.85469 246.56461.18899-3.26143c.8241-6.24847 4.00847-11.68712 10.53353-14.72879 0 0 3.48008-1.5052 5.36997-.46576 1.88986 1.03943 3.59076 3.40178 3.59076 3.40178s-.28347-4.7247-1.7009-5.57515c-1.41739-.85044-8.12649-1.70089-8.12649-1.70089l-19.19849 15.11331.0391 2.16764z" fill-opacity=".131313"/><path d="m415.74612 225.97915s4.61401-.56499 4.803 6.04959-3.97941 9.63364-11.76788 14.8842l-.18898 3.3073s15.15819-6.40267 14.91385-17.40509c-.21626-9.73782-4.79823-11.35746-8.01103-11.92442z" fill="#375571"/><path d="m321.91918 254.99554-.19745 4.6705.29665 3.09601c3.75864 4.19921 9.55295 6.83266 15.0867 8.43904 1.38641.40246 3.11915.48374 4.32437.23824l.35365-5.668-4.05813-.24889-14.20861-8.90471z" fill="url(#n)"/><path d="m322.66703 256.99474c-.71098-.54669-1.48942-2.3993.72932-4.04929l69.47643-41.8106 22.86497 9.85655-71.67513 43.60802c-1.93695 1.45627-3.79241 2.53319-6.5614 1.35376-5.31445-2.26364-10.55553-4.80719-14.83419-8.95844z" fill="url(#o)"/><path d="m341.66136 266.10541-.30167 5.39166 74.5117-45.56118-.13364-5.21176z" fill="#35536f"/><path d="m322.166 254.48393s-.17933 1.68932 1.14202 2.94553c2.12316 2.01849 10.75819 7.08075 13.69115 8.17472 1.25152.46681 2.0927 1.10526 3.9826.4438 0 0-.50825.87814-3.29583.31118-5.92122-1.39214-16.06907-9.34148-15.33669-9.06907 0 0-.75797 3.50995-.0448 5.02597 1.32973 2.8267 7.15995 6.00454 7.27246 5.91078.05.34986-6.56574-3.42237-7.78644-5.72515-.53118-.61659-.52208-3.81278.37561-8.01776z" fill="#b1bfce"/></g><path d="m222.902-248.69108-5.21177 3.34086 11.22532 5.27857 10.62398-5.87991-9.35445-4.07586z" fill="#35536f" fill-opacity=".358586"/><g transform="translate(-123.71773 -499.29359)"><path d="m203.79301 216.58145s-2.40542 14.56619 6.94901 30.736l4.40995.80181-5.34539-23.38608-.26727-9.2208z" fill="#eaefff"/><path d="m236.53353 202.1489s.80181 18.8425 8.41899 28.73147l-29.93419 17.10526s-7.61718-10.28988-7.48354-30.3351z" fill="url(#p)"/><path d="m211.67746 219.52142s-.4009 14.03165 5.07812 22.71791l23.11882-12.6953s-6.1472-9.08717-5.47902-21.11429z" fill="none" stroke="#009cfa" stroke-width=".765"/><path d="m218.89374 237.16121 4.27631-10.42351 6.28084.13363 3.34087-12.02713" fill="none" stroke="#009cfa" stroke-width=".765"/><g fill="#009cfa"><circle cx="218.7601" cy="237.02757" r="1.069078"/><circle cx="223.17006" cy="226.60406" r="1.069078"/><circle cx="229.25044" cy="226.80452" r="1.069078"/><circle cx="232.65813" cy="215.2451" r="1.069078"/></g><path d="m236.53353 202.01526-4.00905-.93544-28.99874 15.50163 3.87541 1.06908z" fill="#fafaff"/></g><g transform="translate(-106.33986 -506.39858)"><path d="m311.76989 41.653549s-10.43132 11.779053-2.54687 38.773275c7.88445 26.994226 15.10854 30.482936 15.10854 30.482936l-40.75858 21.21452s-12.20663-17.63978-14.21114-29.53328c-7.27804-26.259917-4.19993-36.708692-3.654-36.57221l13.32155-11.135399z" fill="url(#q)"/><path d="m306.37792 57.369947c-17.91448 13.847181-24.55248 34.558309-34.65249 53.162123 0 0-8.93876-34.396392-7.96136-38.30592.97737-3.909529 6.35296-18.863469 23.45717-18.863469 17.10417 0 21.89335-5.27786 21.89335-5.27786s-1.95477 2.052501-2.73667 9.285126z" fill="#916f6f" fill-opacity=".172897"/><path d="m306.56787 56.392565c-15.60196 8.598855-29.89494 18.132693-40.36586 30.396574 0 0-3.22539-11.630842-2.24799-15.540371.97737-3.909529 6.35296-18.863469 23.45717-18.863469 17.10417 0 21.89335-5.27786 21.89335-5.27786s-1.95477 2.052501-2.73667 9.285126z" fill="#baa4a4"/><path d="m306.56788 56.392552c-16.25844 8.270615-28.44846 26.674985-38.02014 39.388486 0 0-5.57111-20.622754-4.59371-24.532283.97737-3.909529 6.35296-18.863469 23.45717-18.863469 17.10417 0 21.89335-5.27786 21.89335-5.27786s-1.95477 2.052501-2.73667 9.285126z" fill="#916f6f" fill-opacity=".331633"/><path d="m334.48781 38.579948-44.90128 25.925145s-22.48263-8.131816-24.3535 5.632563c-3.0926 13.560765 11.1448 50.724544 11.33336 50.755974l-5.36354-10.7711c.16636.22181-10.84947-30.428348-6.87329-42.94474 3.81701-12.015364 43.90613-30.382718 43.90613-30.382718s12.70526-6.364711 26.25212 1.784876z" fill="url(#r)"/></g><g fill="#baa4a4" stroke="#baa4a4" stroke-linecap="round" stroke-width=".965" transform="translate(-118.09972 -496.75001)"><path d="m281.80969 75.041379 23.70868-13.505334"/><path d="m282.69814 80.086173 23.70868-13.505334"/><path d="m283.80393 84.64752 23.70868-13.505334"/><path d="m285.4626 89.485314 23.70868-13.505334"/><path d="m287.25949 94.323107 23.70868-13.505335"/><path d="m289.05639 98.608009 23.70868-13.505334"/></g><g transform="translate(-115.90784 -500.06469)"><path d="m294.93191 84.416674c0 .000002-6.08378 15.167433 2.86597 33.173826 2.09878 3.51462 5.77405 5.67797 9.08718 8.15172l1.27671-.29967s-10.55715-21.24793-10.15625-29.533286c.40091-8.285355.26727-10.289877.26727-10.289877z" fill="#fff"/><path d="m318.18437 71.320466-21.11428 14.432555s-8.19744 10.498692 1.5302 32.017289c1.46683 3.24479 9.56148 8.20678 9.56148 8.20678l17.37252-14.16529s-18.97615-3.47451-7.34992-40.491334z" fill="url(#s)"/><path d="m318.18437 71.320466-2.00451-1.336347-21.24795 14.566188 2.00454 1.069078z" fill="#fff"/></g><path d="m197.32142-372.77382 6.61456 2.55134c.84677 1.13311.9113 2.32777 1.03944 9.4494l.75596 32.97843-5.10267 15.40254-.56698 10.77229c-1.70846 3.11434-3.72382 2.23944-5.66965 2.26788l1.60642-27.0253z" fill="url(#t)"/><path d="m203.46351-365.84103.66146 37.78212-55.45947-24.04181-.15838-36.26903c.0837-2.24921.36303-5.69779 3.94298-5.49962l47.32446 22.08419c3.26302 1.28907 3.81754 2.94997 3.68895 5.94415z" fill="url(#u)"/><g transform="translate(-121.22997 -472.43992)"><path d="m454.28564 123.05912-18.10177-8.44099 11.80556-42.538513 22.80581 3.784437z" fill="url(#w)"/><path d="m465.07036 83.855525-3.93933 14.51338s-4.21581-1.520444-11.6107-.06911c-7.39492 1.45134-10.43581 5.598015-10.43581 5.598015l4.76866-16.655826z" fill="#0a334a" fill-opacity=".27551"/><path d="m454.28564 123.05912 13.00853-7.61171 16.61758-59.058371-32.32237 18.277045.0611 16.99361 13.43232-7.755158z" fill="url(#x)"/><path d="m451.65049 91.659694-18.10177-8.44099.0457-16.88064 17.99496 8.32802z" fill="#46ade8"/><path d="m451.58937 74.666082-17.99494-8.328019 31.96103-18.508702 18.35629 8.559678z" fill="#63bbee"/><path d="m445.41397 71.752925 6.16446 3.04001.18111 5.13599.10596-5.16713 3.96954-2.69226-4.10927 2.48895z" fill="#fff"/><path d="m443.76594 60.638079-9.54389 5.38616-.51972.85045.0472 17.19791" fill="none" stroke="url(#y)" stroke-width=".264583"/></g><g transform="translate(-119.26288 -495.02116)"><path d="m425.83927 32.104786 10.5686-6.13611 60.29799 70.320328-10.08661 6.308966z" fill="url(#A)"/><path d="m367.98802 117.57911-.055-98.636613 10.21685-6.331105.20045 99.117188z" fill="url(#B)"/><path d="m378.26013 111.5668 103.25214 48.37578-10.56858 6.13611-103.25214-48.37578z" fill="#7ea2be"/><path d="m354.54841-1.2001082.26717 125.5923782 131.6147 61.64011.18899-83.43441-61.07173-70.700323zm13.36352 20.1298882 52.55789 24.498465 51.1824 59.407085-.45617 62.99685-103.28412-48.16218z" fill="url(#C)"/><path d="m443.52614 34.745744-8.01452 4.886907 49.45552 56.492669 7.81905-4.691433z" fill="#365472" fill-opacity=".364486"/><path d="m440.67136 41.249576 43.03101 49.147416c2.2951 2.70131 2.6325 1.295595 2.55803-.974178l.0473-23.628182-4.675-7.614627-40.0364-18.792245c-1.39468-.58861-1.75124.921087-.92494 1.861816z" fill="url(#D)"/><path d="m364.98602-7.0770982 71.42185 33.0457742-10.56858 6.13611-71.42185-33.04577401z" fill="url(#E)"/><path d="m451.38089 33.080153 40.84471 19.109772-10.56858 6.136111-40.84471-19.109773z" fill="url(#F)"/><path d="m486.35501 185.66602.13399-83.04592 10.21685-6.331096.0115 83.526486z" fill="#365472"/><path d="m486.35501 91.854414-.055-25.95179 10.21685-6.331105.20045 26.432365z" fill="#3c5c82"/><path d="m481.65702 58.326035 10.56857-6.136111 4.29128 7.381595-10.21686 6.331103z" fill="#6d8091"/><path d="m481.98103 97.120375-56.39388-64.946492-70.90238-33.352186" fill="none" stroke="url(#G)" stroke-width=".529167"/><path d="m450.57686 33.7775-10.0226 5.612659 34.74504 16.036173" fill="none" stroke="url(#H)" stroke-width=".529167"/><path d="m484.02774 102.62697c1.5119-1.76388 3.02381-1.76391 4.53571 0v81.83185c-1.6379 1.42567-3.27579.93027-4.91369.18898z" fill="#426390"/><path d="m354.66538-1.2563805-.28347 44.8846715" fill="none" stroke="url(#I)" stroke-width=".529167"/><path d="m364.89608-6.7675879-9.74471 5.80535146" fill="none" stroke="url(#J)" stroke-width=".865"/><path d="m475.48476 55.299622 6.16446 3.04001 3.74034 5.965326-3.45327-5.996466 3.96954-2.69226-4.10927 2.48895z" fill="#fff"/></g><g fill="none"><path d="m282.92003-213.87747s19.55416 8.34382 26.0954 7.55972c14.2289-1.70561 27.39681-18.56724 29.13851-29.57943" stroke="url(#ax)" stroke-width=".965"/><path d="m200.22705-348.18882-.34555-18.48729" stroke="#aa5117" stroke-linecap="round" stroke-width=".665"/><path d="m186.4739-372.96524 13.4076 6.28913" stroke="#f9dcab" stroke-linecap="round" stroke-width=".565"/><path d="m193.90337-369.02589 5.59803 2.52256.17277 9.19181" stroke="url(#ay)" stroke-width=".264583"/><path d="m247.09195-379.22861.26726-98.08792 53.18664 24.5888 51.31575 60.13565-.80182 63.34286z" filter="url(#az)" stroke="#f9f79b" stroke-width="2.065"/><path d="m283.70192-402.21894 34.11064 15.83358" stroke="#fcf395" stroke-width=".565"/><path d="m317.71483-352.07925-.19551-34.50158" stroke="#d36721" stroke-width=".264583"/><path d="m223.29974-391.37 37.4337 17.49513" stroke="#fcf395" stroke-width=".465"/></g><path d="m1359.2852 206.21484v42.81045c.8256 3.63634 4.3802 8.86466 0 9.46428v34.64286c2.2685 6.66962 2.014 9.69489 0 10.17857v28.11673l.1132.0117c-1.8311 15.26731 11.3902 31.05808 35.3653 42.23828 40.2841 18.78424 98.5018 19.25381 130.0332 1.04883 10.9969-6.34912 17.7024-14.45514 19.3105-23.34375l.416.0449v-32.82115c-3.6611-4.00749-.603-7.53504 0-11.23795v-17.04632-17.42513c-1.9795-2.62487-.5323-6.53475 0-10.10153v-44.58077z" fill="#c254d2" transform="matrix(.26458333 0 0 .26458333 -104.70685 -492.06658)"/><path d="m1511.0723 201.13281v175.38672c27.991 1.75465 54.3026-3.00958 71.58-12.96094 10.9969-6.34912 17.7024-14.45514 19.3106-23.34375l.416.0449v-35.79548c-2.4672-1.03533-.6291-5.14589 0-8.39286v-35c-3.0588-2.00769-.3365-6.18332 0-9.46428v-44.56027z" fill="#800080" fill-opacity=".378788" transform="matrix(.26458333 0 0 .26458333 -120.0144 -489.11168)"/><g transform="translate(-104.70685 -492.06658)"><path d="m399.26932 47.538762a24.587889 12.374217 5.3523284 0 1 4.1928 17.720651 24.587889 12.374217 5.3523284 0 1 -34.40484-.277721 24.587889 12.374217 5.3523284 0 1 -4.1928-17.720652 24.587889 12.374217 5.3523284 0 1 34.40484.277722z" fill="url(#K)"/><path d="m360.07765 67.469107c-.32689.05948-.37588.184314-.21345.973642.6909 3.357295 3.99089 6.656698 9.26618 9.116625 10.65824 4.970095 26.06162 5.094568 34.40462.278019 2.60414-1.503428 4.28318-3.369479 4.92039-5.407723.29727-.950893.13394-.73655-.0341-1.743061-.0838.490627.008-.230326-.19153.24023-.7648 1.807329-2.36592 3.449392-4.69472 4.793887-8.343 4.816549-23.74638 4.692076-34.40462-.278019-4.35202-2.029381-7.39461-4.648682-8.69508-7.422681-.30086-.641752-.14225-.590115-.35765-.550919z" fill="#dc85e9"/><path d="m359.86611 80.093665c.69505 3.354105 3.99383 6.649708 9.26427 9.107376 10.65824 4.970095 26.06162 5.094568 34.40462.278019 2.31538-1.33672 3.89944-2.960101 4.67014-4.736298.63117-2.049842.0811-2.665602-.17666-1.740394-.82648 1.636319-2.35244 3.123932-4.49348 4.360025-8.343 4.816549-23.74638 4.692076-34.40462-.278019-4.22045-1.968032-7.20945-4.490856-8.57238-7.17154-1.00303-2.679736-.83622-.01819-.69189.180831z" fill="#dc85e9"/><path d="m362.33756 62.407434s3.07361 3.207234 7.61719 4.677217v30.86963s-5.48831-2.568003-7.88445-6.414468z" fill="#f2cbf8" fill-opacity=".328283"/><g fill="none" stroke-width=".661458"><path d="m399.26932 47.538774a24.587889 12.374217 5.3523284 0 1 4.1928 17.720651 24.587889 12.374217 5.3523284 0 1 -34.40483-.277721 24.587889 12.374217 5.3523284 0 1 -4.1928-17.720652 24.587889 12.374217 5.3523284 0 1 34.40483.277722z" stroke="url(#aA)"/><path d="m408.37403 72.765468c-.0838.490627.008-.230326-.19153.24023-.7648 1.807329-2.36592 3.449392-4.69472 4.793887-8.343 4.816549-23.74638 4.692076-34.40462-.278019-4.35202-2.029381-7.39461-4.648682-8.69508-7.422681-.39139-.754243-.48415-1.350113-.61755-2.251812" stroke="url(#aB)"/><path d="m408.32623 84.141333c-.0838.490627.008-.230326-.19152.24023-.76481 1.807329-2.36592 3.449392-4.69473 4.793887-8.34299 4.816549-23.74638 4.692076-34.40461-.278019-4.35202-2.029381-7.39461-4.648682-8.69508-7.422681-.39139-.754243-.48415-1.350113-.61755-2.251812" stroke="url(#aC)"/></g><path d="m407.16374 63.860652s-3.07361 3.20723-7.61719 4.67722v30.869614s5.48831-2.56799 7.88445-6.414455z" fill="#fae09b" fill-opacity=".233645"/></g><g fill="#c254d2" transform="matrix(.97780241 -.20952909 0 1 -318.21832 -609.50842)"><ellipse cx="620.89801" cy="321.11084" rx="2.52235" ry="2.46636"/><ellipse cx="621.05994" cy="333.25952" rx="2.52235" ry="2.46636"/><ellipse cx="621.05988" cy="344.66287" rx="2.52235" ry="2.46636"/></g><path d="m248.05953-378.12284.26726-98.08791 53.18665 24.58879 51.31575 60.13564-.80182 63.34288z" fill="none" stroke="#c8f99b" stroke-width="1.365"/><g transform="translate(-128.68305 -505.74585)"><g transform="translate(18.465201 -5.271322)"><path d="m329.26837-66.508049h64.88588v51.906273h-64.88588z" fill="url(#M)" transform="matrix(.90630779 .42261826 0 1 0 0)"/><path d="m301.18245 122.62422v-44.77158l52.50896 24.25668-.25106 43.01974z" fill="#fff"/><g fill="#d36118" stroke-width="1.208751" transform="matrix(.74978871 .34963221 0 .8273003 56.855429 18.221759)"><rect height="3.705949" rx=".667341" ry=".879644" width="51.241714" x="335.6734" y="-58.036438"/><rect height="3.705949" ry=".898447" width="27.207424" x="347.58627" y="-49.572815"/><rect height="3.705949" ry=".863892" width="27.782621" x="333.92886" y="-39.668106"/><rect height="3.705949" ry=".656558" width="27.782621" x="333.92886" y="-31.690172"/><rect height="3.705949" ry=".898447" width="27.782621" x="333.92886" y="-23.712236"/></g><path d="m357.1135 100.12771c.59594-1.393427.95287-2.786854-1.25509-4.180281l-49.64529-22.784733c-4.7767-1.944705-5.83732-.829098-7.76529-.427786z" fill="#fce8db"/><path d="m359.93427 100.95873-.73499 49.42508-2.08578 1.64727-.0195-51.77645c.6163-1.206863.32175-2.48826-.67548-4.075804 1.28875.957599 3.06079 2.655103 3.51582 4.779904z" fill="#f09e6f"/><path d="m353.69141 102.10932-52.50897-24.256681.1202 44.969281" fill="none" stroke="#c87137" stroke-width=".665"/></g><path d="m319.57885 72.949408.189 44.601192-46.30208-13.79613z" fill="url(#N)"/><g fill="#f60" fill-opacity=".122449"><path d="m319.60383 118.46014c12.01899-13.41728 28.8104-20.977497 52.28995-20.329547l-52.19221-24.434544z"/><path d="m319.75044 117.89049c5.61283-30.115397 25.91054-31.228138 52.28995-20.329537l-52.19221-24.434545z"/></g></g><g fill="#63bbee" transform="matrix(.50405758 .23275464 0 .49914395 -32.139096 -486.69809)"><path d="m412.26767 34.729843h8.098758v3.468551h-8.098758z"/><path d="m412.26767 44.971111h8.098758v3.468551h-8.098758z"/><path d="m412.26767 55.212368h8.098758v3.468551h-8.098758z"/><path d="m432.87268 76.756599h29.396147v3.441448h-29.396147z" transform="matrix(.99982093 .0189238 0 1 0 0)"/><path d="m433.2327 67.697182h29.396147v3.441448h-29.396147z" transform="matrix(.99982093 .01892381 0 1 0 0)"/><path d="m433.1001 59.194202h29.396147v3.441449h-29.396147z" transform="matrix(.99982093 .01892382 0 1 0 0)"/></g><g fill="#35536f" fill-opacity=".358586"><path d="m239.53495-258.82039-5.21176 3.34086 11.22531 5.27857 10.62398-5.87994-9.35445-4.07585z"/><path d="m256.77517-268.24334-5.21176 3.34086 11.22532 5.27857 10.62394-5.87991-9.35442-4.07585z"/><path d="m272.27547-277.93016-5.21176 3.34084 11.22531 5.2786 10.62398-5.87995-9.35445-4.07585z"/></g><g transform="translate(-157.24483 -481.49166)"><g transform="translate(49.787095 -32.071537)"><path d="m384.57895 241.81972-.055-33.01994 9.88276-6.19747.20045 33.50051z" fill="url(#P)"/><path d="m384.59899 241.82712-10.95618-5.05855v-33.04237l10.95803 4.94448z" fill="url(#Q)"/><path d="m373.70961 203.7262 10.28987-5.94675 10.35672 4.87766-9.73865 6.0971z" fill="#faa"/><path d="m374.21144 203.02807-.55837.78314 10.95395 4.94186.0354-1.04062z" fill="#a0e695"/><path d="m384.59626 207.68418.0134 1.08035 9.88013-6.14082-.60136-.71829z" fill="#48cd34"/><path d="m374.21142 203.02807 9.80477-5.61612 9.87224 4.49347-9.29217 5.77876z" fill="#92e285"/><path d="m378.25526 204.84616 6.16446 3.04001.18111 5.13599.10596-5.16713 3.96954-2.69226-4.10927 2.48895z" fill="#fff"/></g><path d="m425.72026 197.63674 2.16469-1.5273 3.15662 12.05527-5.22682-2.307z" fill-opacity=".141414"/><g transform="translate(33.767038 -7.835296)"><path d="m384.57895 227.00305-.055-18.20327 9.88276-6.19747.20045 18.68384z" fill="url(#R)"/><path d="m384.59899 227.01045-10.95618-5.05855v-18.2257l10.95803 4.94448z" fill="#f2d25e"/><path d="m373.70961 203.7262 10.28987-5.94675 10.35672 4.87766-9.73865 6.0971z" fill="#faa"/><path d="m374.21144 203.02807-.55837.78314 10.95395 4.94186.0354-1.04062z" fill="#fbe8a1"/><path d="m384.59626 207.68418.0134 1.08035 9.88013-6.14082-.60136-.71829z" fill="#f4da7a"/><path d="m374.21142 203.02807 9.80477-5.61612 9.87224 4.49347-9.29217 5.77876z" fill="#f9db6f"/><path d="m378.25526 204.84616 6.16446 3.04001.18111 5.13599.10596-5.16713 3.96954-2.69226-4.10927 2.48895z" fill="#fff"/></g><path d="m409.13655 194.80192 3.12781 2.44538 3.34086 20.67995-6.56317-2.84154z" fill-opacity=".141414"/><path d="m401.4867 228.82136-.055-42.82891 9.88276-6.19747.20045 43.30948z" fill="url(#S)"/><path d="m401.50674 228.81206-10.95618-5.05855v-42.83464l10.95803 4.94448z" fill="url(#T)"/><path d="m390.61736 180.91887 10.28987-5.94675 10.35672 4.87766-9.73865 6.0971z" fill="#faa"/><path d="m391.11919 180.22074-.55837.78314 10.95395 4.94186.0354-1.04062z" fill="#df884e"/><path d="m401.50401 184.87685.0134 1.08035 9.88013-6.14082-.60136-.71829z" fill="#d36118"/><path d="m391.11917 180.22074 9.80477-5.61612 9.87224 4.49347-9.29217 5.77876z" fill="#f09e6f"/><path d="m395.16301 182.03883 6.16446 3.04001.18111 5.13599.10596-5.16713 3.96954-2.69226-4.10927 2.48895z" fill="#fff"/><path d="m394.20649 205.47974.68046 3.40572 4.04818 18.44058-7.56346-2.94749z" fill-opacity=".141414"/><path d="m384.57895 238.64472-.055-29.84494 9.88276-6.19747.20045 30.32551z" fill="url(#U)"/><path d="m384.59899 238.65212-10.95618-5.05855v-29.86737l10.95803 4.94448z" fill="url(#V)"/><path d="m373.70961 203.7262 10.28987-5.94675 10.35672 4.87766-9.73865 6.0971z" fill="#faa"/><path d="m374.21144 203.02807-.55837.78314 10.95395 4.94186.0354-1.04062z" fill="#94d0f3"/><path d="m384.59626 207.68418.0134 1.08035 9.88013-6.14082-.60136-.71829z" fill="#259fe4"/><path d="m374.21142 203.02807 9.80477-5.61612 9.87224 4.49347-9.29217 5.77876z" fill="#63bbee"/><path d="m378.25526 204.84616 6.16446 3.04001.18111 5.13599.10596-5.16713 3.96954-2.69226-4.10927 2.48895z" fill="#fff"/><g fill="none" stroke-width=".264583"><path d="m383.80305 197.72015-9.54389 5.38616-.51972.85045.0472 17.19791" stroke="url(#W)"/><path d="m400.68841 174.93769-9.54389 5.38616-.51972.85045.0472 17.19791" stroke="url(#X)"/><path d="m433.58889 165.60902-9.54389 5.38616-.51972.85045.0472 17.19791" stroke="url(#Y)"/></g></g><circle cx="434.34781" cy="-568.88025" fill="#e9afaf" r="0" transform="matrix(.90630779 .42261826 0 1 0 0)"/><path d="m312.67853-534.66309h37.937614v34.383156h-37.937614z" fill="url(#Z)" transform="matrix(.90630779 .42261826 0 1 0 0)"/><circle cx="422.20428" cy="-395.76624" fill="url(#aa)" r="0"/><path d="m283.38276-392.34812v24.21196l20.29589 9.46403a20.878672 13.151623 51.562129 0 0 2.6288-7.69773 20.878672 13.151623 51.562129 0 0 -16.57109-24.29774 20.878672 13.151623 51.562129 0 0 -6.3536-1.68052z" fill-opacity=".146465" stroke-width=".2"/><ellipse cx="309.91058" cy="-507.37103" fill="url(#ab)" rx="18.283756" ry="16.570709" stroke-width=".210084" transform="matrix(.90630779 .42261826 0 1 0 0)"/><circle cx="409.70136" cy="-447.46165" fill="#fff" r="3.474504"/><path d="m249.39775-499.94943h26.552834v20.007059h-26.552834z" fill-opacity=".19697" transform="matrix(.90332647 .42895372 0 1 0 0)"/><path d="m279.70507-362.04565 8.15515-15.20449 8.98448 12.99293s-2.00424 5.39069-6.84202 6.56558c-4.8378 1.17489-10.2976-4.35402-10.29761-4.35402z" fill-opacity=".149533"/><path d="m285.13578-377.13792 19.84375 42.28902-38.25121-17.83683z" fill="url(#ac)"/><g transform="translate(-125.302899 -468.797325)"><path d="m444.8875 172.59959-6.52537-4.05781-8.65954-8.24688 1.87088-1.13589z" fill="#9e7b21"/><path d="m438.83034 134.18154-2.17336 27.97024 5.00819 4.63021 1.43039-30.18598z" fill="#e3b641"/><path d="m431.33291 153.15918-4.0844-1.79293c-.59469-.14771-1.10185.20905-1.36722.95836l-3.96539 10.9611 5.00819 1.41741 3.56677-10.81236z" fill="#fce365"/><path d="m444.16724 172.1413c.75508.78134 2.18083.86667 2.21551-.88473l1.51902-29.13753 21.92263-12.00074.56695-7.74851-27.59226 14.07961-1.7009 27.11979-9.69042-10.35619c-.31017-.19385-.67098-.21253-.80865.25824l-3.9585 11.23188 4.63021 3.40179 1.88986-6.4256z" fill="url(#ad)"/><path d="m470.76934 122.1808-5.0082-1.79538-26.9308 13.89062 4.06326 2.26786z" fill="#fce365"/><g fill="none"><path d="m437.59398 151.9505 1.11169-16.8373c.0696-.80585.474-1.00896.85962-1.24592l14.06251-7.21153" stroke="url(#ae)" stroke-width=".265"/><path d="m441.68288 154.24552 1.11169-16.8373c.0696-.80585.474-1.00896.85962-1.24592l26.23091-13.46677" stroke="url(#af)" stroke-width=".465"/></g></g><g fill="#c87137" stroke-width=".264583" transform="matrix(3.1686717 -1.8294334 0 3.1686717 -1165.932452 30.51557)"><path d="m472.40459 163.29092-1.72479-2.62072-.0102-.1317.0738-.0743h1.58885l1.12137 1.83968 1.13171-1.83968h1.788l-1.88101 2.82669 1.96886 2.95072h-1.79316l-1.2144-1.9792-1.21956 1.9792h-1.788z" fill="#c87137" stroke-width=".264583"/><path d="m476.37331 160.46423 1.52488 1.60998-1.78799.00001-1.52488-1.60999z" fill="#fce365"/><path d="m474.58531 160.46425-1.39067 2.32543 1.78381 1.12419 1.13172-1.83968z" fill="#e3b641"/><path d="m473.85712 162.07421-1.52489-1.60998h-1.56956l-.0604.0893.0356.11509 1.33125 1.40556z" fill="#fce365"/><path d="m471.97093 167.85163-1.52488-1.60999 1.95854-2.95072 1.52488 1.60999z" fill="#fce365"/><path d="m470.67148 160.5936 1.73311 2.69732 1.52488 1.60999-1.86035-2.82669z" fill="#9e7b21"/><path d="m476.19289 167.85163-1.52488-1.60999-.535-1.66609.84548 1.29688z" fill="#9e7b21"/><g fill="none" stroke-width=".083631"><path d="m471.99031 162.61018-1.27162-1.94463c-.0819-.12376-.002-.17426.0857-.17407l1.39886.0171" stroke="url(#ag)"/><path d="m473.72595 161.91281.7677-1.3016c.0653-.12055.16703-.12029.25473-.1201l1.40431-.002" stroke="url(#ah)"/></g></g><path d="m472.40459 163.29092-1.86035-2.82669h1.788l1.12137 1.83968 1.13171-1.83968h1.788l-1.88101 2.82669 1.96886 2.95072h-1.79316l-1.2144-1.9792-1.21956 1.9792h-1.788z" fill="#ce9f2d" transform="matrix(3.1686718 -1.8294334 0 3.1686718 -1161.100652 32.8274)"/><g fill="#d86115" transform="translate(-127.67806 -507.27609)"><path d="m387.18848-47.661526h41.496532v30.805059h-41.496532z" fill="#d86115" transform="matrix(.90630779 .42261826 0 1 0 0)"/><path d="m355.23222 148.80308 10.09025-8.56981h12.16359l7.87871-4.97601" fill="#d86115" stroke="#ac9d93" stroke-width="1.265"/><path d="m352.53802 119.43857 33.82458 15.63093v24.02294l-33.82458-15.63093z" fill="#ffece0"/></g><path d="m355.23222 148.80308 14.87588 1.00144 7.37796-9.57125 13.55056-1.78559" fill="none" stroke="#ac9d93" stroke-width="1.622133" transform="matrix(.77983763 0 0 .77983763 -48.913362 -478.56443)"/><path d="m244.42027-468.41815h41.060043v19.863565h-41.060043z" fill-opacity=".19697" transform="matrix(.91367516 .4064452 0 1 0 0)"/><path d="m118.16653-351.39588s-6.5481 26.19241 3.4745 51.71665l-2.53904 1.06908s-11.62622-22.04974-2.53905-54.52299z" fill="#fcf9f9"/><g transform="translate(-118.09972 -496.75001)"><path d="m259.1178 134.52971s-7.21628 15.368.53454 51.18211l-20.98066 11.8935s-6.81537-20.71339-6.41447-29.26601c.40091-8.55263 3.34087-24.85607 3.34087-24.85607z" fill="url(#ai)"/><path d="m258.18236 132.92609 1.33635 1.46998-23.38609 10.95806-1.60361-1.87089z" fill="#fff"/><path d="m257.95703 136.93513-18.61717 33.94324 16.97161 11.75985-13.36347-13.49711z" fill="#280b0b" fill-opacity=".121212"/><path d="m236.13544 146.51795 15.83358 20.91597-12.11953 30.88526c-6.65965-15.45987-9.52007-32.18614-3.71405-51.80123z" fill-opacity=".065657"/><path d="m234.97852 145.07106 15.20449 20.7334 8.98447-31.1001z" fill-opacity=".126263"/><path d="m259.25827 134.37066-16.98749 34.91308 17.27783 16.03383c-6.34867-26.11911-2.09817-37.59449-.29034-50.94691z" fill="#e3dbdb"/></g><path d="m285.16488-377.11192 20.11141 42.77992" fill="#eeb755" stroke="#c58614" stroke-width=".565"/><path d="m286.34815-373.56281 14.25372 30.17375" fill="none" stroke="url(#aj)" stroke-width=".3175"/><rect fill="#fff" height="4.462519" ry=".278907" stroke="#fff" stroke-linecap="round" stroke-width="1.088185" transform="matrix(.90630779 .42261826 0 1 0 0)" width="4.923845" x="311.53943" y="-511.28375"/><rect fill="#fff" height="4.462519" ry=".278907" stroke="#fff" stroke-linecap="round" stroke-width="1.088185" transform="matrix(.90630779 .42261826 0 1 0 0)" width="4.923845" x="333.76013" y="-479.4173"/><g transform="translate(-121.41706 -508.91361)"><path d="m243.48143 85.138641 69.49008-39.689525" fill="none" stroke="#fff" stroke-width="1.365"/><circle cx="241.94662" cy="86.028236" fill="#fff" r="3.474504"/></g><ellipse cx="124.39735" cy="-296.78314" fill="none" rx="3.732514" ry="1.417411" stroke="#000" stroke-linecap="round" stroke-width="1.322917" transform="matrix(.94319134 .33225004 -.33225004 .94319134 0 0)"/><path d="m276.24755-257.60921 8.05561 4.15774" fill="none" stroke="#8599b2" stroke-width=".264583"/><g transform="translate(-111.46503 -488.7331)"><path d="m471.94604 241.67504-39.15498 31.67146s-13.66416 7.85103-34.37754-3.37427c-.89044-1.48455-.40032-2.10625.10168-2.72051l33.74132-23.97306s1.00136-.52067 2.68649.27331c4.08336 1.92394 13.60124 5.74379 22.83775 2.80029 12.16076-3.87541 14.16528-4.67722 14.16528-4.67722z" fill="url(#ak)"/><path d="m440.85214 208.30331c.3956.73156 11.91575 17.2085 1.56062 49.14062l-2.80633 8.28538s13.63075-14.9671 12.82894-35.68049c-.53716-13.87671-5.63965-22.81325-9.30227-25.41435-.84265-.59843-1.83553.23542-2.18571 1.2162-.3997 1.1195-.49085 1.72109-.0952 2.45264z" fill="#e1e1e1"/><path d="m478.01103 186.60411c-1.28822-1.54137-2.86428-1.09435-3.36196-.83233l-30.35417 17.98095c-2.42442.89076-2.38036 4.26077-1.66796 5.50007 0 0 17.19401 28.14186-9.8313 64.04958l43.27828-32.69493s14.97726-16.5837 1.93711-54.00334z" fill="url(#al)"/><path d="m478.59102 188.30221c.0322-.95385-1.93634-5.53172-6.77861-2.65358l-27.68695 16.5726c-2.47511 1.23244-3.2941 3.06435-3.11931 3.5676l2.40887-1.49814 29.91811-17.76738c.7739-.35723 2.31258-1.22405 3.18655-.62657s2.07134 2.40547 2.07134 2.40547z" fill="#e1e1e1"/><path d="m482.31268 206.39566c-.19312.7314-.38695 1.6556-.5819 2.8143-2.8998 17.23773-32.41473 44.9127-41.27275 52.78598-1.88568 3.63572-3.43032 6.47869-6.25906 10.23715l41.87481-31.62556s8.59544-11.46479 6.2389-34.21187z" fill-opacity=".10101"/><g fill="none"><path d="m398.36523 269.90173c-.23564.18138 27.84198 13.86786 37.41772-.46772" stroke="#fff" stroke-width=".264583"/><g stroke="#436557" stroke-opacity=".39899" stroke-width="1.137708"><path d="m459.51619 205.68389 16.91445-10.77232"/><path d="m461.57076 212.79109 16.91445-10.77232"/><path d="m450.87834 225.93526 29.76564-18.70982"/><path d="m451.72879 232.83333 29.76564-18.70982"/><path d="m450.50036 240.95982 29.76564-18.70982"/></g><path d="m446.48437 209.39881s2.45684 5.48065 3.59077 11.0558l8.59897-5.57515s-1.03944-6.61458-3.40179-10.48884z" stroke="#88a275" stroke-width=".79375"/></g><path d="m478.92859 191.48495-11.53311 7.03715s4.59369 10.7512 4.88691 16.81097c.29321 6.05977.39094 5.18012.39094 5.18012l10.84895-5.18012s-.19547-10.26251-2.24798-13.68335c-2.0525-3.42083-2.34571-10.16477-2.34571-10.16477z" fill-opacity=".088785"/><path d="m469.90756 196.98552s4.35401 12.1636 4.35401 17.83073 3.31734 2.76445 3.31734 2.76445l9.26092-5.80535s.91378-1.32191.82934-5.25246c-.0857-3.99132-3.10321-14.50265-3.49012-15.61916 0 0-.50105-2.33251-2.79901-2.4189-3.04188-.11435-10.29758 4.63046-10.29758 4.63046s-2.3498 1.58956-1.1749 3.87023z" fill="#e3e2db"/><path d="m423.12008 254.81929 12.55934.73304c2.90251.31621 3.57991 1.15161 2.57463 2.37964l-9.46516 9.78877c-2.04546 1.8522-5.89755 1.40297-8.21.87964l-17.39739-4.49596 13.87883-10.45798z" fill-opacity=".172897"/><path d="m422.17912 266.12916s-16.81098-3.42085-23.65263-6.15752c-6.84167-2.73666-.1955-5.27785-.1955-5.27785l12.90145-8.50324s2.05251-1.07512 5.3756.29322c3.32311 1.36833 10.65347 4.39822 15.44264 4.39822s5.27786-1.07512 5.27786-1.07512 3.22535.39095.48868 3.90952c-2.73666 3.51859-8.28906 9.4858-8.28906 9.4858s-2.75534 3.31791-7.34904 2.92697z" fill="#f4e3d7"/></g><g transform="translate(-108.85237 -491.45008)"><g fill="#43c330" transform="translate(-7.847699 -2.607845)"><path d="m368.38699-26.489141h48.21604v44.495002h-48.21604z" fill="#43c330" transform="matrix(.90630779 .42261826 0 1 0 0)"/><g fill="#92e285" transform="matrix(1 .46630766 0 1 0 -165.8756)"><path d="m335.87482 175.07083h8.856065v6.366026h-8.856065z"/><path d="m346.12946 175.07083h8.856064v6.366026h-8.856064z"/><path d="m356.38406 175.07083h8.856063v6.366026h-8.856063z"/><path d="m366.63867 175.07083h8.856063v6.366026h-8.856063z"/></g><g fill="#43c330" transform="matrix(1 .46630766 0 1 0 -165.61101)"><path d="m335.87482 166.60413h8.856065v6.366026h-8.856065z" fill="#53a41a"/><g fill="#92e285"><path d="m346.12946 166.60413h8.856064v6.366026h-8.856064z"/><path d="m356.38406 166.60413h8.856063v6.366026h-8.856063z"/><path d="m366.63867 166.60413h8.856063v6.366026h-8.856063z"/></g></g><g fill="#43c330" transform="matrix(1 .46630766 0 1 0 -165.87558)"><path d="m335.87482 158.66658h8.856065v6.366026h-8.856065z" fill="#92e285"/><path d="m346.12946 158.66658h8.856064v6.366026h-8.856064z" fill="#92e285"/><path d="m356.38406 158.66658h8.856063v6.366026h-8.856063z" fill="#53a41a"/><path d="m366.63867 158.66658h8.856063v6.366026h-8.856063z" fill="#92e285"/></g><g fill="#92e285" transform="matrix(1 .46630766 0 1 0 -165.61099)"><path d="m335.87482 150.19987h8.856065v6.366026h-8.856065z"/><path d="m346.12946 150.19987h8.856064v6.366026h-8.856064z"/><path d="m356.38406 150.19987h8.856063v6.366026h-8.856063z"/><path d="m366.63867 150.19987h8.856063v6.366026h-8.856063z"/></g><g fill="#18a303" transform="matrix(1 .46630766 0 1 0 -165.87556)"><path d="m335.87482 142.26233h8.856065v6.366026h-8.856065z"/><path d="m346.12946 142.26233h8.856064v6.366026h-8.856064z"/><path d="m356.38406 142.26233h8.856063v6.366026h-8.856063z"/><path d="m366.63867 142.26233h8.856063v6.366026h-8.856063z"/></g><path d="m377.57057 149.5749 3.55576-2.10894-43.23082-19.9784-4.02352 1.71037z" fill="#92e285"/><path d="m381.12633 147.46596v44.55578l-3.55576 2.04817v-44.49501z" fill="#18a303"/><path d="m333.94665 129.41885 43.75076 20.03275-.0945 31.27752" fill="none" stroke="url(#am)" stroke-width=".264583"/><path d="m377.51692 194.11272.14174-44.50669" fill="none" stroke="url(#an)" stroke-width=".264583"/><path d="m371.35972 146.6189 6.16447 3.04001.18106 5.13599.10589-5.16712 2.89832-1.89748-3.03806 1.69417z" fill="#fff"/></g><g fill="none" stroke-width=".529167"><g transform="matrix(-1 0 0 -1 716.08884 311.7414)"><path d="m358.84276 152.9379-.0334 6.58151" stroke="#18a303"/><path d="m367.66264 163.42823-8.92011-4.14268" stroke="#fff" stroke-opacity=".843434"/></g><g transform="matrix(-1 0 0 -1 726.31886 316.60476)"><path d="m358.84276 152.9379-.0334 6.58151" stroke="#18a303"/><path d="m367.66264 163.42823-8.92011-4.14268" stroke="#fff" stroke-opacity=".843434"/></g><g transform="matrix(-1 0 0 -1 705.86578 307.0642)"><path d="m358.84276 152.9379-.0334 6.58151" stroke="#18a303"/><path d="m367.66264 163.42823-8.92011-4.14268" stroke="#fff" stroke-opacity=".843434"/></g><g transform="matrix(-1 0 0 -1 695.5759 302.25334)"><path d="m358.84276 152.9379-.0334 6.58151" stroke="#18a303"/><path d="m367.66264 163.42823-8.92011-4.14268" stroke="#fff" stroke-opacity=".843434"/></g><g transform="matrix(-1 0 0 -1 695.57242 310.44564)"><path d="m358.84276 152.9379-.0334 6.58151" stroke="#18a303"/><path d="m367.66264 163.42823-8.92011-4.14268" stroke="#fff" stroke-opacity=".843434"/></g><g transform="matrix(-1 0 0 -1 705.80244 315.30898)"><path d="m358.84276 152.9379-.0334 6.58151" stroke="#18a303"/><path d="m367.66264 163.42823-8.92011-4.14268" stroke="#fff" stroke-opacity=".843434"/></g><g transform="matrix(-1 0 0 -1 726.3154 324.79704)"><path d="m358.84276 152.9379-.0334 6.58151" stroke="#18a303"/><path d="m367.66264 163.42823-8.92011-4.14268" stroke="#fff" stroke-opacity=".843434"/></g><g transform="matrix(-1 0 0 -1 705.80244 323.59434)"><path d="m358.84276 152.9379-.0334 6.58151" stroke="#18a303"/><path d="m367.66264 163.42823-8.92011-4.14268" stroke="#fff" stroke-opacity=".843434"/></g><g transform="matrix(-1 0 0 -1 716.0255 328.27154)"><path d="m358.84276 152.9379-.0334 6.58151" stroke="#18a303"/><path d="m367.66264 163.42823-8.92011-4.14268" stroke="#fff" stroke-opacity=".843434"/></g><g transform="matrix(-1 0 0 -1 726.3154 333.0824)"><path d="m358.84276 152.9379-.0334 6.58151" stroke="#18a303"/><path d="m367.66264 163.42823-8.92011-4.14268" stroke="#fff" stroke-opacity=".843434"/></g><g transform="matrix(-1 0 0 -1 695.43878 326.74908)"><path d="m358.84276 152.9379-.0334 6.58151" stroke="#18a303"/><path d="m367.66264 163.42823-8.92011-4.14268" stroke="#fff" stroke-opacity=".843434"/></g><g transform="matrix(-1 0 0 -1 705.6688 331.61242)"><path d="m358.84276 152.9379-.0334 6.58151" stroke="#18a303"/><path d="m367.66264 163.42823-8.92011-4.14268" stroke="#fff" stroke-opacity=".843434"/></g><g transform="matrix(-1 0 0 -1 715.89186 336.28964)"><path d="m358.84276 152.9379-.0334 6.58151" stroke="#18a303"/><path d="m367.66264 163.42823-8.92011-4.14268" stroke="#fff" stroke-opacity=".843434"/></g><g transform="matrix(-1 0 0 -1 726.18176 341.10048)"><path d="m358.84276 152.9379-.0334 6.58151" stroke="#18a303"/><path d="m367.66264 163.42823-8.92011-4.14268" stroke="#fff" stroke-opacity=".843434"/></g></g><path d="m358.78302 5.465524h9.486268v6.464963h-9.486268z" fill="#c8fabc" transform="matrix(.90741355 .42023881 0 1 0 0)"/><g fill="none" stroke-width=".529167" transform="matrix(-1 0 0 -1 693.29174 319.56032)"><path d="m358.84276 152.9379-.0334 6.58151" stroke="#18a303"/><path d="m367.66264 163.42823-8.92011-4.14268" stroke="#fff" stroke-opacity=".843434"/></g><path d="m381.86035-2.58793h9.486268v6.464963h-9.486268z" fill="#c8fabc" transform="matrix(.90741354 .42023882 0 1 0 0)"/><g fill="none" stroke-width=".529167" transform="matrix(-1 0 0 -1 714.1595 321.43754)"><path d="m358.84276 152.9379-.0334 6.58151" stroke="#18a303"/><path d="m367.66264 163.42823-8.92011-4.14268" stroke="#fff" stroke-opacity=".843434"/></g></g><g transform="translate(-43.714392 -790.38838)"><circle cx="252.37251" cy="303.46469" fill="#fff" r="3.474504"/><path d="m252.77342 303.33106 90.797-50.83167" fill="none" stroke="#fff" stroke-width="1.365"/></g><path d="m199.78085-316.14426-.75594 10.66232c.20254 6.71476-2.51367 6.1327-5.07812 5.92998l-47.66659-22.68415c-4.93221-2.34598-3.31113-5.16005-3.62924-7.83561l.59754-9.43272c10.46887-9.81215 57.59712 9.78534 56.53235 23.36018z" fill="url(#ao)"/><path d="m173.62496-309.03365 8.0181-10.02262 12.56165 6.01354 2.40543 13.49712-3.07359-.4009z" fill-opacity=".156566"/><path d="m148.71905-354.42527 55.5625 26.36384-4.68882 15.56301-56.40625-26.97943z" fill="#fff"/><g fill="#63bbee" transform="matrix(.50405758 .23275464 0 .49914395 -53.622652 -495.46206)"><path d="m396.50705 131.96461h47.200222v3.441449h-47.200222z"/><path d="m396.50705 142.12587h47.200222v3.441449h-47.200222z"/><path d="m396.50705 152.28711h47.200222v3.441449h-47.200222z"/></g><g transform="translate(-143.5853 -506.17582)"><path d="m315.1881 205.10908 3.71744-1.8356 3.67851-8.40954-2.60713-.73937z" fill="#b38a27"/><g fill="#f9db6f"><path d="m329.22499 211.8288 3.25597-2.69496-13.57542-5.86036-3.71744 1.8356z"/><path d="m330.20861 195.38608 3.71336-1.51425-12.28073-5.83661-3.71744 1.8356z"/><path d="m339.17 225.35768 3.85-1.99578-11.61131-5.26365-4.25198 2.13628z"/><path d="m314.70524 214.96722 3.71744-1.8356-10.63-4.84176-3.71744 1.8356z"/></g><path d="m311.65052 213.5349 3.60812-1.90429 1.93773-4.87767-3.4745 1.20271z" fill="#b38a27"/><path d="m314.75924 221.27427 3.77346-2.0933-.11002-6.04935-3.96179 1.88447z" fill="#b38b27"/><path d="m339.171 233.03025 3.77346-2.0933.0574-7.57361-4.02192 2.01162z" fill="#ce9f2d"/><path d="m336.33891 223.9974 3.63983-2.00978-6.05677-28.11579-4.19714 1.51425z" fill="#ce9f2d"/><path d="m317.9238 189.87082-10.86937 21.66454-2.97919-1.4099.0169 6.02849 10.66712 5.12032-.054-6.30705-3.10302-1.44973 2.15653-5.64968 16.0453 7.76188 1.2267 6.26571-3.87406-1.66087-.0332 6.85529 12.04749 5.94043-.001-7.67257-2.83105-1.36028-6.13024-28.61132zm1.74659 5.05197 6.85276 3.18909 2.70184 13.71692-14.03689-6.71972z" fill="#e3b641"/><path d="m323.72767 192.50024 6.18889 2.94227 1.40284 5.08712-1.0121-5.03187 3.27944-1.45918-3.52284 1.04854z" fill="#fff"/></g><g fill="#63bbee" transform="matrix(-.32810429 -.15833555 -.14570351 .37839041 349.03228 -313.81705)"><path d="m396.50705 131.96461h47.200222v3.441449h-47.200222z"/><path d="m396.50705 142.12587h47.200222v3.441449h-47.200222z"/><path d="m396.50705 152.28711h47.200222v3.441449h-47.200222z"/></g><g transform="translate(-112.55191 -500.69516)"><path d="m261.06532 118.79846c1.90067-1.47895 5.12799-4.14388 7.06897-5.69264l24.09676 10.34567c2.40995.93458 4.0969 2.39276 3.74983 5.32397l.18899 20.12373c-.0296 2.82535-1.39985 2.44664-2.64583 2.36496l-30.00187-13.83492c-2.88828-.87437-2.81732-2.57664-2.72778-4.68651z" fill-opacity=".328283"/><path d="m260.32683 117.62113c1.90067-1.48523 5.12799-4.16146 7.06897-5.71679l24.09676 10.38955c2.40995.93855 4.0969 2.40291 3.74983 5.34655l.18899 20.20909c-.0296 2.83735-1.39985 2.45703-2.64583 2.375l-30.00187-13.8936c-2.88828-.87808-2.81732-2.58757-2.72778-4.7064z" fill="url(#ap)"/><path d="m257.09447 120.75067c1.90067-1.47895 5.12799-4.14388 7.06897-5.69264l24.09676 10.34567c2.40995.93458 4.0969 2.39276 3.74983 5.32397l.18899 20.12373c-.0296 2.82535-1.39985 2.44664-2.64583 2.36496l-30.00187-13.83492c-2.88828-.87437-2.81732-2.57664-2.72778-4.68651z" fill-opacity=".328283"/><path d="m256.35598 119.57334c1.90067-1.48523 5.12799-4.16146 7.06897-5.71679l24.09676 10.38955c2.40995.93855 4.0969 2.40291 3.74983 5.34655l.18899 20.20909c-.0296 2.83735-1.39985 2.45703-2.64583 2.375l-30.00187-13.8936c-2.88828-.87808-2.81732-2.58757-2.72778-4.7064z" fill="url(#aq)"/><g clip-path="url(#ar)" transform="matrix(.99999999 .46630765 0 .99999999 -27.034488 -101.76361)"><path d="m288.11514 84.812251 2.06081-2.72861h25.53145v21.544639h-30.04911v-15.250602z" fill="#9ebfc8"/><circle cx="315.23215" cy="81.973587" fill="#fea" r="4.110491"/><path d="m286.78021 97.406955 8.61942-10.645756 1.67043.971102 2.47226-1.541303 3.20723 8.422413 6.41448-7.483546 2.20496.935442 1.60361-.534537 5.41222 7.951268-2.07135 2.873148-27.06103-.08753z" fill="#808080"/><path d="m295.46645 86.663222-3.94221 7.670492 3.00677-3.59571-1.33635 4.209494.66818.801809 9.15397.868627-.20045-2.004523 6.21403-7.483546-3.8754 8.15172 1.20271.734991 2.87314-3.541321 1.60361 4.476766 1.73726 1.403165-28.19693-1.385516 4.00904-2.55113z"/><path d="m298.44047 90.555092.68043 6.537542 4.48847.661458.6142-1.842635-4.68636-9.772092z" fill="#a4a4a4"/><path d="m313.05878 87.690475 2.88205 6.898065-.66146.992188-3.1183-3.212798 3.3073 6.283854 2.55135.0945.89768-2.74033z" fill="#9c9c9c"/><path d="m310.64917 89.060638-1.08667 3.023809 1.93712 1.039437z" fill="#b3b3b3"/><path d="m285.32477 97.943077h29.151413v6.18936h-29.151413z" fill="#c2d7dd"/><path d="m317.68899 97.187127-14.50483-.708705-9.59115.897692-5.43343-.425223-2.9293-.850445-1.03945 2.551338 13.22917.330729 13.13468 1.275667.99219.8977-5.62239 1.84263-4.15775 2.55134 14.12687-.28348 1.70088-2.55134z" fill="#8eb244"/></g><path d="m270.4315 117.23167c-3.19668 4.88056-5.14939 6.90589-11.52744 4.23209l-2.70791-1.36681 7.06123-5.98542z" fill-opacity=".171717"/><path d="m263.39297 113.57243-6.99257 6.3311 5.48066 1.88985c1.42701.23008 1.78485-.89248 1.7009-2.17336z" fill="#edeadd"/></g><path d="m200.37717-347.72302-14.00873-6.75331-.0778-18.91129 13.68608 6.52125z" fill="url(#as)"/><g fill="#63bbee" transform="matrix(-.32810429 -.15833555 -.14570351 .37839041 315.10892 -330.07001)"><path d="m396.50705 131.96461h47.200222v3.441449h-47.200222z"/><path d="m396.50705 142.12587h47.200222v3.441449h-47.200222z"/><path d="m396.50705 152.28711h47.200222v3.441449h-47.200222z"/></g><g fill="#63bbee" transform="matrix(-.32810429 -.15833555 -.14570351 .37839041 331.92885 -321.94353)"><path d="m396.50705 131.96461h47.200222v3.441449h-47.200222z"/><path d="m396.50705 142.12587h47.200222v3.441449h-47.200222z"/><path d="m396.50705 152.28711h47.200222v3.441449h-47.200222z"/></g><g transform="translate(19.723188 -401.14429)"><path d="m336.73624 65.401303-.0945-23.660067c.41125-2.449971-.6758-4.521967 2.67269-7.349914l25.75124-15.073865c1.89058-.594195 5.5758.739417 5.54262 3.839512l-1.09632 25.132367c.009 5.078643-.853 5.664121-2.25559 7.213497l-25.31116 13.962867c-4.29745 2.312958-5.26147-1.483875-5.20898-4.064397z" fill="#fff"/><path d="m1798.5 496.22852c-6.634 8.31459-5.1416 15.18469-5.248 22.8789l.3574 89.42383c-.7305 8.35275 3.0319 21.55963 15.4006 21.47975l-4.9589-127.5967z" fill="#c3b1b1" transform="matrix(.26458333 0 0 .26458333 -137.82292 -95.605724)"/><path d="m338.17422 66.336845-.0945-23.660068c.0692-2.352233-.6758-4.521967 2.67269-7.349914l25.75124-15.073865c1.89058-.594195 4.57398.641679 4.5408 3.741774l-.0945 25.230106c.009 5.078642-.853 5.66412-2.25559 7.213497l-25.31116 13.962865c-4.29745 2.312961-5.23703-1.435006-5.20898-4.064395z" fill="#e3dbdb"/><g fill="#fff"><path d="m342.07672 57.134569-.0417-7.781732 7.49141-4.69785.15194 8.146017z"/><path d="m342.32956 67.757024-.0417-7.781732 7.49141-4.69785.15194 8.146017z"/><path d="m351.30362 52.081349-.0417-7.781732 7.4914-4.69785.15195 8.146017z"/><path d="m351.55645 62.703804-.0417-7.781732 7.49141-4.69785.15194 8.146017z"/></g><path d="m360.71549 57.815308-.0417-18.365065 7.49141-4.69785.15194 18.72935z" fill="#e95e19"/><g fill="#916f6f"><path d="m341.87925 46.588753-.0417-7.781732 25.82326-14.147255.0574 7.390065z"/><path d="m344.40131 52.471649q-.18791.108488-.31317.05554-.12528-.05294-.12528-.240847 0-.187907.12528-.377676.12526-.189765.31317-.298253l3.18658-1.839774q.18791-.108488.31318-.05554.12527.04512.12527.233024 0 .187906-.12527.385498-.12527.189766-.31318.298254zm1.58154.613636q-.21922.126567-.36797.07152-.14093-.05956-.14093-.278785v-3.053479q0-.219221.14875-.446036.14876-.226814.36799-.353387.22705-.131086.36015-.067.14093.05957.14093.278786v3.053479q0 .219221-.14093.441517-.14093.222295-.36799.353385z"/><path d="m345.26078 59.831944q.22706-.131091.38364-.02576l2.61504 1.739428q.10178.06651.10178.223097 0 .195733-.14876.422547-.14877.22682-.32884.330784-.22705.131091-.38364.01793l-2.61503-1.739425q-.10178-.06651-.10178-.223097 0-.203567.14093-.418029.14875-.218987.33666-.327475zm.008 4.192051q-.15658.0904-.31317.06337-.14876-.03939-.14876-.211636 0-.156591.11744-.365326l1.19791-2.155711.46976.511722-.94736 1.744865q-.14876.281625-.37582.412716zm2.6072-5.701847q.18791-.108488.31319-.04771.13309.04843.13309.212843 0 .07829-.0235.170132-.0234.09183-.0861.198477l-1.18225 2.123185-.49325-.39638.96302-1.832195q.15659-.301802.37581-.42837z"/><path d="m355.81902 55.541428q-.27112.156531-.4207.102657-.14024-.06861-.14024-.339746v-.158934q0-.27112.14024-.492325.14958-.235959.4207-.39249l.12155-.07018q.27112-.15653.41136-.08791.14958.05387.14958.324991v.158939q0 .271129-.14958.50708-.14024.221204-.41136.377735zm0 3.655521q-.27112.156532-.4207.102658-.14024-.06863-.14024-.339747v-.158931q0-.271129.14024-.492332.14958-.235951.4207-.392482l.12155-.07018q.27112-.156531.41136-.08791.14958.05387.14958.324999v.158929q0 .271129-.14958.507081-.14024.221203-.41136.377735z"/></g><path d="m363.26538 48.100731q-.19573.113007-.32883.06458-.13311-.05625-.13311-.236328 0-.180079.13311-.374367.1331-.202116.32883-.315122l3.1396-1.812652q.20357-.117526.32884-.06458.1331.0406.1331.220678 0 .180072-.1331.390017-.12527.197596-.32884.315122zm0 1.518912q-.19573.113006-.32883.06458-.13311-.05625-.13311-.236336 0-.180072.13311-.37436.1331-.202122.32883-.315129l3.1396-1.812652q.20357-.117526.32884-.06458.1331.0406.1331.220671 0 .180079-.1331.390025-.12527.197596-.32884.315122z" fill="#fff"/><path d="m353.80036 47.808447c-.13049.07534-.2401.09686-.32883.06458-.0887-.0375-.13311-.116276-.13311-.236327 0-.120053.0444-.244842.13311-.374367.0887-.134744.19834-.239785.32883-.315122l3.1396-1.812652c.13571-.07835.24533-.09988.32884-.06458.0887.02707.1331.100626.1331.220678 0 .120048-.0444.250054-.1331.390017-.0835.131731-.19313.236771-.32884.315122z" fill="#916f6f"/><path d="m354.50003 58.025367c-.13049.07534-.2401.09686-.32883.06458-.0887-.0375-.13311-.116275-.13311-.236326 0-.120053.0444-.244842.13311-.374367.0887-.134744.19834-.239785.32883-.315122l3.1396-1.812652c.13571-.07835.24533-.09988.32884-.06458.0887.02707.1331.100626.1331.220678 0 .120048-.0444.250054-.1331.390017-.0835.131731-.19313.236771-.32884.315122z" fill="#916f6f"/><path d="m338.17422 66.336841-.0945-23.660067c.0692-2.352233-.6758-4.521967 2.67269-7.349914l25.75124-15.073864" fill="none" stroke="url(#at)" stroke-width=".365"/></g><path d="m248.57092-476.22053.18902 78.27715-62.33827-41.05761z" fill="url(#au)"/><g transform="translate(-297.19853 -247.52103)"><path d="m409.69366 4.5432536c.37631 12.0189184 0-2.4309 0 9.3167354l.03.0031c-.48448 4.039475 3.01366 8.217449 9.35707 11.175544 10.6585 4.969997 26.06193 5.094237 34.40462.277503 2.90959-1.679872 4.68376-3.824589 5.10923-6.176367l.11007.01188c-.24072-11.8278757 0 .573981 0-11.4333957-14.1241-6.066478-29.94614-8.29023531-49.01099-3.1749997z" fill="#eeba5a"/><path d="m418.44251 14.498069-.55288 10.021144 2.28066.829337 15.61917-3.593791 14.78981 4.976016-.34554-10.021141-17.76161-12.163594z" fill="#b48b27"/><path d="m450.233 34.213518-17.73533-12.16877-14.00279 10.0707a24.587889 12.374217 5.3523284 0 0 .61185.31109 24.587889 12.374217 5.3523284 0 0 31.12627 1.78698z" fill="#b24403"/><path d="m418.65907 21.560097v10.360248l18.08154 2.73667 13.29241-.586431.0977-10.457984-12.90142-5.3756-10.16479.195476-3.02988 2.443454z" fill="#b64503"/><path d="m450.23301 23.630169-17.73533-12.168767-14.00279 10.070703a24.587889 12.374217 5.3523284 0 0 .61185.311092 24.587889 12.374217 5.3523284 0 0 31.12627 1.786972z" fill="#e1742f"/><path d="m431.60367-6.2837683a24.587889 12.374217 5.3523284 0 0 -16.68994 3.5269167 24.587889 12.374217 5.3523284 0 0 3.58116 17.4097896l14.00279-10.0707031 17.73533 12.1687671a24.587889 12.374217 5.3523284 0 0 3.27835-1.509469 24.587889 12.374217 5.3523284 0 0 -4.19251-17.7203657 24.587889 12.374217 5.3523284 0 0 -17.71518-3.8049356z" fill="url(#av)"/></g><g transform="matrix(.99999998 .46630765 0 .99999998 -172.26522 -454.55281)"><path d="m293.87684-81.15475-.27645 5.988426c-8.77897 10.095855-43.18451 31.794199-43.87901 25.995174v-43.06967c0-2.80713 2.25989-5.06702 5.06702-5.06702h22.89987" fill="#fcf395"/><path d="m293.85179-80.244588 1.52045 30.583491c.13623 2.740294-2.25989 5.067019-5.06702 5.067019h-34.02143c-2.80713-.000001-5.61926-2.057234-5.06702-5.06702l3.45557-18.833386c.55223-3.009787 4.21987-15.062322 6.72569-14.410276l26.49366 6.893993" fill="#45546f"/><path d="m293.83476-79.917764v31.9836c0 2.80713-2.25989 5.06702-5.06702 5.06702h-34.02143c-2.80713 0-5.06702-2.25989-5.06702-5.06702v-43.06967c0-2.80713 2.25989-5.06702 5.06702-5.06702h22.89987" fill="#8999b5"/><path d="m279.35757-81.503164 14.29623 12.3961.0905-11.12935-8.23391-6.06232-3.89075.0905z" fill-opacity=".141414"/><path d="m293.90154-79.913314-16.17731-16.1773v11.11043c0 2.80713 2.25975 5.06687 5.06687 5.06687z" fill="#e3dbdb"/><g fill-opacity=".363636"><g fill="#e3dbdb"><rect height="2.714475" ry="1.357238" width="25.452942" x="261.44205" y="-71.821533"/><rect height="2.714475" ry="1.357238" width="25.452938" x="261.74506" y="-63.949551"/><rect height="2.714475" ry="1.357238" width="25.452938" x="262.0481" y="-56.529995"/><rect height="2.714475" ry="1.357238" width="13.180984" x="261.89655" y="-80.598358"/></g><g fill="#483737"><circle cx="256.05829" cy="-87.837036" r="2.081098"/><circle cx="256.05829" cy="-75.863144" r="2.081098"/><circle cx="256.05832" cy="-63.889263" r="2.081098"/><circle cx="256.05829" cy="-51.915379" r="2.081098"/></g></g></g><g transform="translate(-131.72898 -685.77731)"><circle cx="252.37251" cy="303.46469" fill="#fff" r="3.474504"/><path d="m252.77342 303.33106 66.86385-38.03085" fill="none" stroke="#fff" stroke-width="1.365"/></g><g transform="matrix(-1.9573527 .14677414 0 1.9528443 759.1066 -567.50426)"><path d="m337.74285 81.40875-.68386.494918-.7241-.348778.56319-18.629893 13.11407-6.872377s1.85046-.945481 2.97682.260106c1.12636 1.205586 1.0459 1.735795 1.0459 1.735795l-10.78089 22.381535z" fill="#18a303"/><path d="m338.02444 63.445142 12.83248-6.568972s.76431.02319 1.44817.495957c.68388.472762.40228 2.026092.40228 2.026092l-11.14293 6.038785z" fill="#fff"/><path d="m340.07978 83.666075s-.45514-2.702811-2.27561-2.28088l.22755-17.864745s1.53603-.514596 2.73072.935186c1.19469 1.449781.79646 1.650776.79646 1.650776z" fill="#ccc"/><path d="m340.19672 65.499481 1.17295-.650156 12.6652-6.720162v19.031084l-13.25487 7.397306-.70397-.501757z" fill="url(#aw)"/><path d="m353.98935 59.013855-12.99935 7.04978-.81098-.584333 13.86721-7.353551z" fill="#92e285"/><path d="m350.78588 58.333541 1.94741 1.355108-3.34557 1.915584-2.14715-1.452707z" fill="#f95"/><path d="m352.16838 60.049048-.0543 16.345971-1.55756-.549704-1.62609 2.285431.0171-16.375693z" fill="#68802e"/><g stroke-width=".406165" transform="matrix(-.0125785 .00715598 0 .01260754 414.376981 14.217793)"><path d="m5459 988h273v272h-273z" fill="none"/><path d="m5485 988c-10 0-20 6-24 16-4 9-2 20 5 27l220 220c7 8 18 10 28 6 9-4 16-13 16-23v-221c0-13-12-25-26-25z" fill="#769932"/><path d="m4859 988h871v1055h-871z" fill="none"/><path d="m4885 988c-14 0-26 12-26 26v1001c0 13 12 25 26 26h819c13 0 25-13 25-26v-645c0-7-2-13-7-18l-354-356c-5-5-12-8-19-8zm25 52h428l340 341v608h-768z" fill="#769932"/></g><path d="m352.72081 59.698175-.16662 16.391952-1.55756-.549705-1.62609 2.285431-.0455-16.258391z" fill="#e95e19"/><path d="m340.96274 66.06445-.10593 18.516976-.8121-.505205.15568-18.574874z" fill="#18a303"/><path d="m344.10666 64.377179-3.03704 1.666103-.12995 3.979231-.0166-3.984154-.70477-.524879.77616.415404z" fill="#fff"/></g><path d="m310.25231-206.1305s14.47001-6.24374 17.37267-10.11396c7.30089-7.68205 10.61535-19.87222 10.61535-19.87222l18.48135-10.01334c1.98118-1.48588-8.18909 20.20464-15.09283 26.17726-3.73203 3.59379-19.62764 11.47247-19.62764 11.47247-4.76361 1.70116-8.54673 2.34019-11.7489 2.34979z" fill="#f4e3d7"/><path d="m358.19822-365.92361s-1.78372 1.53938-1.9059 4.32492l1.39277.95295s.26879-2.73667 1.17287-3.61632c.90408-.87964-.65974-1.66155-.65974-1.66155z" fill="#fff" fill-opacity=".387755"/><g transform="translate(64.243618 -589.73215)"><circle cx="252.37251" cy="303.46469" fill="#fff" r="3.474504"/><path d="m252.77342 303.33106 121.48679-68.03359" fill="none" stroke="#fff" stroke-width="1.365"/></g></g></g></svg>