<svg xmlns="http://www.w3.org/2000/svg" stroke-linejoin="round" stroke-width="28.222" fill-rule="evenodd" preserveAspectRatio="xMidYMid" viewBox="0 0 9144.293 1891.771" height="71.5" width="345.611" version="1.2"><g class="SlideGroup"><path fill="#18a303" d="M2121.35 79.926v1032.38h666.052V955.784h-462.906V79.926zm795.163 1034.045h204.811V369.66h-204.81zm103.238-807.587c63.275 0 116.56-51.619 116.56-118.224 0-63.275-53.285-116.559-116.56-116.559-66.605 0-118.224 53.284-118.224 116.559 0 66.605 51.62 118.224 118.224 118.224zm454.58 149.861h-3.33V16.651h-203.146v1095.655h199.816l3.33-86.587h3.33c63.274 71.601 128.214 101.573 231.452 101.573 198.151 0 328.031-178.169 328.031-399.63 0-214.802-116.559-372.99-318.04-372.99-108.233 0-171.508 31.638-241.443 101.573zm-3.33 268.086c0-128.215 58.28-213.137 166.513-213.137 121.554 0 183.164 86.587 183.164 228.123 0 139.871-59.944 231.453-179.833 231.453-104.903 0-169.843-81.59-169.843-213.137zm1107.311-371.324c-96.577 6.66-189.824 64.94-233.118 148.197h-1.66l-4.99-133.211h-199.815v744.313h204.81V830.9c0-148.196 26.643-201.48 73.266-234.783 41.628-29.972 89.917-41.628 156.522-44.958zm745.978 343.017c0-184.83-113.23-343.017-306.384-343.017-234.783 0-384.645 161.518-384.645 406.292 0 239.778 154.857 367.993 384.645 367.993 108.232 0 183.164-16.65 254.765-49.954l-21.647-151.527c-66.605 28.308-134.875 44.96-208.141 44.96-123.22 0-201.481-56.615-209.807-173.174H5314.3c6.66-26.643 9.99-69.936 9.99-101.573zM4996.258 509.53c88.253 0 129.88 71.601 131.545 148.197h-286.401c14.987-84.922 74.93-148.197 154.856-148.197z"/><path d="M5937.056 64.94c-271.416 0-496.207 199.815-496.207 531.176 0 331.361 224.791 531.176 496.207 531.176 274.746 0 497.874-199.815 497.874-531.176 0-331.361-223.128-531.176-497.874-531.176zm0 103.238c204.811 0 358.004 153.192 358.004 427.938 0 276.411-153.193 427.938-358.004 427.938-201.48 0-356.338-151.527-356.338-427.938 0-274.746 154.857-427.938 356.338-427.938zm691.03 159.852v46.624h-119.89v96.577h119.89v639.41H6756.3v-639.41h188.159v-96.577h-188.16v-66.605c0-133.21 54.95-211.471 158.188-211.471 46.625 0 76.597 8.32 104.904 18.316l13.32-93.247C7004.405 9.991 6952.785 0 6912.82 0c-181.497 0-284.735 116.559-284.735 328.03z"/><path d="M7049.363 328.03v46.624h-119.89v96.577h119.89v639.41h128.214v-639.41h188.16v-96.577h-188.16v-66.605c0-133.21 54.95-211.471 158.189-211.471 46.623 0 76.595 8.32 104.903 18.316l13.32-93.247C7427.349 9.991 7375.729 0 7334.1 0c-181.498 0-284.736 116.559-284.736 328.03zm514.157 784.276h129.88V374.654h-129.88zm64.94-845.885c44.959 0 79.927-34.968 79.927-78.261 0-44.959-34.968-79.927-79.927-79.927-44.958 0-79.925 34.968-79.925 79.927 0 43.293 34.967 78.261 79.925 78.261zm326.366 474.561c0-186.494 111.563-283.072 256.429-283.072 74.932 0 141.536 16.652 196.486 43.294l13.32-98.243c-46.622-21.647-119.888-43.293-199.815-43.293-228.123 0-399.631 138.205-399.631 397.965 0 243.11 154.857 369.66 359.668 369.66 91.583 0 156.522-9.99 231.453-43.294l-11.655-96.578c-64.941 29.973-133.212 43.294-196.485 43.294-148.197 0-249.77-93.248-249.77-289.733zm1182.241 31.638c3.33-26.642 4.99-49.954 4.99-73.266 0-188.16-99.908-339.686-289.732-339.686-204.811 0-354.672 171.508-354.672 397.965 0 249.77 149.86 369.66 354.672 369.66 91.582 0 159.852-13.322 231.452-43.294l-11.655-96.578c-56.615 26.642-138.206 43.294-201.481 43.294-146.531 0-243.11-89.917-244.774-258.095zm-294.728-314.71c111.563 0 173.173 91.582 173.173 214.802h-384.645c18.317-129.88 89.917-214.802 211.472-214.802zM1042.371.001c-16.652 0-33.303 9.99-39.964 26.642-6.66 14.986-3.33 33.302 8.33 44.958l366.329 366.328c11.656 13.322 29.972 16.652 46.623 9.99 14.986-6.66 26.642-21.646 26.642-38.298V41.628c0-21.647-19.982-41.628-43.293-41.628zm0 0zm-999.077 0C19.982.001 0 19.982 0 43.294v1666.794c0 21.646 19.982 41.628 43.294 43.293h1363.74c21.646 0 41.628-21.647 41.628-43.293V636.08c0-11.656-3.33-21.647-11.656-29.973L847.551 13.322C839.221 4.992 827.569.001 815.913.001zm41.628 86.586h712.675l566.143 567.809v1012.398H84.922zm0 0z"/><g aria-label="Community" style="line-height:1.25" font-weight="400" font-size="652.639" font-family="Vegur" letter-spacing="0" word-spacing="0" stroke-width="746.707"><path d="M2496.111 1682.534c-37.853 18.927-73.095 26.758-118.127 26.758-87.454 0-169.686-58.084-169.686-185.349 0-122.044 88.106-182.739 171.644-182.739 50.253 0 87.453 9.137 122.043 29.369l3.916-48.948c-27.41-16.969-70.485-27.41-122.696-27.41-116.17 0-234.95 73.095-234.95 234.296 0 143.581 95.285 227.771 222.55 227.771 48.295 0 90.717-6.526 129.875-25.452zM2694.513 1431.268c-88.76 0-144.886 65.264-144.886 162.507 0 97.244 56.127 162.507 144.886 162.507 88.759 0 144.886-65.263 144.886-162.507 0-97.243-56.127-162.507-144.886-162.507zm0 43.074c56.78 0 86.148 52.212 86.148 119.433 0 67.222-29.369 119.433-86.148 119.433-56.78 0-86.149-52.21-86.149-119.433 0-67.221 29.37-119.433 86.149-119.433zM2958.178 1437.795h-48.295v311.961h53.516v-174.255c0-54.168 30.674-97.243 70.485-97.243 45.685 0 62 33.285 62 79.622v191.876h53.517v-174.255c0-54.168 30.674-97.243 70.485-97.243 45.685 0 62 33.285 62 79.622v191.876h53.517v-207.54c0-62.652-30.674-110.948-96.59-110.948-40.464 0-73.749 20.885-95.938 65.917-11.748-39.158-41.117-65.917-90.064-65.917-38.506 0-74.401 20.232-90.717 63.959zM3472.456 1437.795h-48.295v311.961h53.516v-174.255c0-54.168 30.674-97.243 70.485-97.243 45.685 0 62.001 33.285 62.001 79.622v191.876h53.516v-174.255c0-54.168 30.674-97.243 70.485-97.243 45.685 0 62.001 33.285 62.001 79.622v191.876h53.517v-207.54c0-62.652-30.674-110.948-96.591-110.948-40.464 0-73.748 20.885-95.938 65.917-11.747-39.158-41.116-65.917-90.064-65.917-38.506 0-74.401 20.232-90.717 63.959zM4188.4 1437.795h-53.516v174.254c0 54.17-34.59 97.243-76.36 97.243-48.947 0-69.179-34.59-69.179-78.969v-192.528h-53.516v208.191c0 63.96 36.547 110.296 103.77 110.296 37.852 0 78.969-19.579 96.59-65.263l3.916 58.737h48.295zM4328.064 1437.795h-48.295v311.961h53.516v-174.255c0-54.168 34.59-97.243 76.359-97.243 48.948 0 69.18 34.59 69.18 78.97v192.528h53.516v-208.192c0-63.958-36.548-110.296-103.77-110.296-37.853 0-78.969 19.58-96.59 65.264zM4647.856 1323.583c-18.274 0-33.284 15.01-33.284 33.284s15.01 33.285 33.284 33.285 33.285-15.01 33.285-33.285c0-18.274-15.01-33.284-33.285-33.284zm-26.758 426.173h53.516v-311.961h-53.516zM4839.078 1440.405v-82.232h-53.516v82.232h-48.948v41.77h48.948v181.433c0 67.874 36.548 92.675 88.759 92.675 18.274 0 37.2-3.916 48.948-9.79l-2.61-39.811c-11.096 4.568-22.843 5.874-34.59 5.874-28.064 0-46.99-16.316-46.99-52.864v-177.518h84.19v-41.769zM5233.924 1437.795h-58.085l-85.495 261.055-84.844-261.055h-61.348l116.823 317.182c-15.664 44.38-50.906 72.443-98.549 89.412l18.927 45.684c62-17.62 110.948-69.18 137.054-140.317z" style="-inkscape-font-specification:'Vegur, Normal';font-variant-ligatures:normal;font-variant-caps:normal;font-variant-numeric:normal;font-variant-east-asian:normal"/></g></g></svg>