<svg viewBox="0 0 16 16" xmlns="http://www.w3.org/2000/svg">


/&amp;amp;amp;amp;amp;gt;<path d="m1 5v3.9960938h5.8769531l-.4238281-.4238282-.0019531-.0019531c-.441516-.4408634-.5398478-1.1956694-.3085938-1.6875.231583-.4925297.679774-.8437503 1.28125-.8808594.404679-.024967.8486763.1491973 1.1445313.4433594a1.0002221 1.0002221 0 0 1 .0019531.0019531l2.8906255 2.8925782c.192947.1859991.533831.6337547.535156 1.1601562-.0013.526401-.34221.974157-.535156 1.160156l-2.3378911 2.339844h5.8769531v-9zm0 7.003906v1.996094h5.1015625c-.0500855-.134179-.0889331-.276028-.0976563-.431641-.02242-.399872.1528817-.844856.4472657-1.138671l.0019531-.001954.4238281-.423828z" fill="#fafafa"/><path d="m0 1h16v4h-16z" fill="#3a3a38"/><path d="m0 5v4.0898438c.18094856-.0669653.37526215-.1022566.578125-.0917969l-.05078125-.0019531h.47070313v-3.9960938zm15.001953 0v9.001953h-5.8808592l-.5507813.550781a1.0002221 1.0002221 0 0 1 -.0019531.001954c-.295488.293795-.7420562.46807-1.1425782.443359-.4005229-.02471-.7336786-.203025-.9785156-.449219-.1493493-.150176-.266789-.336267-.3457031-.546875h-5.10351562v-1.998047h-.47070313l.05078125-.001953c-.20286669.010462-.39717327-.024832-.578125-.091797v2.589844c-.00038442.276301.22369855.500384.5.5h15c.276301.000384.500384-.223699.5-.5v-9.5z" fill="#3a3a38"/><g fill="#797774"><path d="m5 5v3h1v-3zm5 0v2.8769531l1 1.0019531v-3.8789062zm1.121094 4 .339844.3398438c.126775.122211.311507.3638769.427734.6601562h3.111328v-1zm-.121094 3.121094-1 1.001953v.876953h1zm-6 .878906v1h1v-1z"/><path d="m1 2h14v2h-14z" stroke-width=".661438"/></g><path d="m7.486332 6.9999996c.125183-.00772.25879.036809.376954.1542969l2.904296 2.9062505c.141888.136779.236365.258099.234375.439453.002.181354-.09249.302674-.234375.439453l-2.904296 2.90625c-.472656.469951-1.177734-.239033-.705079-.708984l2.128907-2.132813h-8.7597655c-.287625.014834-.52821-.215913-.525391-.503906-.0028-.287993.237766-.5187366.525391-.5039066h8.7597655l-2.128907-2.1328126c-.354491-.3524632-.047424-.8401111.328125-.8632812z" fill="#1e8bcd"/></svg>