<?xml version="1.0" encoding="utf-8"?>
<!-- Generator: Adobe Illustrator 12.0.1, SVG Export Plug-In . SVG Version: 6.00 Build 51448)  -->
<!DOCTYPE svg PUBLIC "-//W3C//DTD SVG 1.1//EN" "http://www.w3.org/Graphics/SVG/1.1/DTD/svg11.dtd" [
	<!ENTITY ns_svg "http://www.w3.org/2000/svg">
	<!ENTITY ns_xlink "http://www.w3.org/1999/xlink">
]>
<svg  version="1.1" id="图层_1" xmlns="&ns_svg;" xmlns:xlink="&ns_xlink;" width="16.854" height="16.855"
	 viewBox="0 0 16.854 16.855" overflow="visible" enable-background="new 0 0 16.854 16.855" xml:space="preserve">
<g>
	
		<radialGradient id="XMLID_4_" cx="7.7354" cy="8.7939" r="6.2207" gradientTransform="matrix(0.7071 -0.7071 0.7071 0.7071 -3.2619 7.6792)" gradientUnits="userSpaceOnUse">
		<stop  offset="0" style="stop-color:#C5D4E1"/>
		<stop  offset="1" style="stop-color:#7194B8"/>
	</radialGradient>
	<path fill="url(#XMLID_4_)" d="M16.595,7.799c0.346,0.348,0.346,0.91,0,1.258l-7.539,7.538c-0.348,0.348-0.91,0.348-1.258,0.002
		l-7.537-7.54c-0.348-0.348-0.348-0.91,0-1.258L7.798,0.26c0.348-0.347,0.91-0.347,1.258,0.001L16.595,7.799z"/>
	<defs>
		<filter id="Adobe_OpacityMaskFilter" filterUnits="userSpaceOnUse" x="0.918" y="0.919" width="15.017" height="15.016">
			<feColorMatrix  type="matrix" values="1 0 0 0 0  0 1 0 0 0  0 0 1 0 0  0 0 0 1 0"/>
		</filter>
	</defs>
	<mask maskUnits="userSpaceOnUse" x="0.918" y="0.919" width="15.017" height="15.016" id="XMLID_5_">
		<g filter="url(#Adobe_OpacityMaskFilter)">
			<linearGradient id="XMLID_6_" gradientUnits="userSpaceOnUse" x1="2.6665" y1="1.7036" x2="9.2414" y2="9.6487">
				<stop  offset="0" style="stop-color:#FFFFFF"/>
				<stop  offset="1" style="stop-color:#000000"/>
			</linearGradient>
			<path fill="url(#XMLID_6_)" d="M0.47,8.312l8.004-7.702l2.574,2.436l2.621,2.691c0,0-4.518,4.423-10.766,5.29
				C2.083,10.159,0.47,8.312,0.47,8.312z"/>
		</g>
	</mask>
	<path mask="url(#XMLID_5_)" fill="#FFFFFF" d="M15.704,7.868c0.309,0.309,0.309,0.811,0,1.12l-6.717,6.715
		c-0.311,0.31-0.811,0.31-1.121,0.002L1.151,8.988c-0.311-0.31-0.311-0.812,0-1.121l6.715-6.716c0.311-0.31,0.811-0.31,1.121,0.001
		L15.704,7.868z"/>
</g>
</svg>
