<?xml version="1.0" encoding="utf-8"?>
<!-- Generator: Adobe Illustrator 12.0.1, SVG Export Plug-In . SVG Version: 6.00 Build 51448)  -->
<!DOCTYPE svg PUBLIC "-//W3C//DTD SVG 1.1//EN" "http://www.w3.org/Graphics/SVG/1.1/DTD/svg11.dtd" [
	<!ENTITY ns_svg "http://www.w3.org/2000/svg">
	<!ENTITY ns_xlink "http://www.w3.org/1999/xlink">
]>
<svg  version="1.1" id="Layer_1" xmlns="&ns_svg;" xmlns:xlink="&ns_xlink;" width="16.854" height="16.855"
	 viewBox="0 0 16.854 16.855" overflow="visible" enable-background="new 0 0 16.854 16.855" xml:space="preserve">
<g>
	
		<radialGradient id="XMLID_4_" cx="8.4175" cy="8.7822" r="6.2205" gradientTransform="matrix(0.7071 -0.7071 0.7071 0.7071 -3.7357 8.1699)" gradientUnits="userSpaceOnUse">
		<stop  offset="0" style="stop-color:#FF5F06"/>
		<stop  offset="0.1061" style="stop-color:#F95507"/>
		<stop  offset="1" style="stop-color:#CC0212"/>
	</radialGradient>
	<path fill="url(#XMLID_4_)" d="M16.596,7.8c0.346,0.348,0.346,0.91,0,1.256l-7.54,7.539c-0.348,0.348-0.909,0.348-1.257,0.002
		L0.26,9.056c-0.347-0.346-0.347-0.908,0-1.258l7.539-7.537c0.348-0.348,0.909-0.348,1.257,0L16.596,7.8z"/>
	<defs>
		<filter id="Adobe_OpacityMaskFilter" filterUnits="userSpaceOnUse" x="0.918" y="0.92" width="15.017" height="15.016">
			<feColorMatrix  type="matrix" values="1 0 0 0 0  0 1 0 0 0  0 0 1 0 0  0 0 0 1 0"/>
		</filter>
	</defs>
	<mask maskUnits="userSpaceOnUse" x="0.918" y="0.92" width="15.017" height="15.016" id="XMLID_5_">
		<g filter="url(#Adobe_OpacityMaskFilter)">
			<linearGradient id="XMLID_6_" gradientUnits="userSpaceOnUse" x1="2.668" y1="1.7046" x2="9.242" y2="9.6486">
				<stop  offset="0" style="stop-color:#FFFFFF"/>
				<stop  offset="1" style="stop-color:#000000"/>
			</linearGradient>
			<path fill="url(#XMLID_6_)" d="M0.47,8.312L8.475,0.61l2.574,2.436l2.621,2.689c0,0-4.518,4.424-10.767,5.291
				C2.084,10.159,0.47,8.312,0.47,8.312z"/>
		</g>
	</mask>
	<path mask="url(#XMLID_5_)" fill="#FFFFFF" d="M15.704,7.868c0.309,0.309,0.309,0.811,0,1.119l-6.717,6.717
		c-0.31,0.309-0.812,0.309-1.12,0.002L1.151,8.987c-0.311-0.309-0.311-0.811,0-1.119l6.716-6.717c0.309-0.309,0.811-0.309,1.12,0
		L15.704,7.868z"/>
</g>
</svg>
