<svg viewBox="0 0 24 24" xmlns="http://www.w3.org/2000/svg"><path d="m2.279855-10.937499c.2213541 0 .4101562.01302.5664063.03906.15625.01302.2929687.05208.4101562.117188.1302083.05209.2473958.130211.3515625.234375.1171875.104166.2473959.240885.390625.410156l11.397548 16.2471647c-.07813-.859375-.11471-1.6731811-.117187-2.4414062l-.0471-14.6065375h5.558034v25.9375h-3.683034c-.403646 0-.742188-.0651-1.015625-.195312-.260417-.143229-.520834-.371094-.78125-.683594l-11.3355045-16.2201598c.078125.8072917.1160669 1.5559905.1171875 2.24609376l.0241185 14.85297204h-5.5580357v-25.9375z" fill="#3a3a38" transform="matrix(.53975904 0 0 .53975904 6.778464 10.903614)"/></svg>