<svg viewBox="0 0 32 32" xmlns="http://www.w3.org/2000/svg"><path d="m4 7v18h24v-12l-6-6z" fill="#fafafa"/><path d="m4 6c-.554 0-1 .446-1 1v18c0 .554.446 1 1 1h24c.554 0 1-.446 1-1v-6.570312a.50005.50005 0 0 0 0-.035157v-4.394531-.5a.50005.50005 0 0 0 -.146484-.353516l-.853516-.853515-5.292969-5.292969-.853515-.8535156a.50005.50005 0 0 0 -.353516-.1464844h-.5-11zm0 1h5.9648438 11.0351562v6c0 .554.446 1 1 1h6v4.394531 6.605469h-24zm18 .7070312 5.292969 5.2929688h-5.292969z" fill="#3a3a38"/></svg>