<?xml version="1.0" encoding="UTF-8" standalone="no"?>
<svg
   xmlns:pmml2svg="https://sourceforge.net/projects/pmml2svg/"
   xmlns:dc="http://purl.org/dc/elements/1.1/"
   xmlns:cc="http://creativecommons.org/ns#"
   xmlns:rdf="http://www.w3.org/1999/02/22-rdf-syntax-ns#"
   xmlns:svg="http://www.w3.org/2000/svg"
   xmlns="http://www.w3.org/2000/svg"
   id="svg118"
   viewBox="0 0 599.5027666666665 54.962500000000006"
   height="54.962500000000006px"
   width="599.5027666666665px"
   version="1.1">
  <defs
     id="defs122" />
  <metadata
     id="metadata2">
    <pmml2svg:baseline-shift>24.137500000000003</pmml2svg:baseline-shift>
    <rdf:RDF>
      <cc:Work
         rdf:about="">
        <dc:format>image/svg+xml</dc:format>
        <dc:type
           rdf:resource="http://purl.org/dc/dcmitype/StillImage" />
      </cc:Work>
    </rdf:RDF>
  </metadata>
  <g
     style="font-family:STIXGeneral, STIXSizeOneSym;fill:#000000;stroke:none;text-rendering:optimizeLegibility"
     id="g116">
    <g
       id="g114"
       style="font-family:STIXGeneral, STIXSizeOneSym">
      <g
         id="g112"
         style="font-family:STIXGeneral, STIXSizeOneSym">
        <g
           id="text4"
           style="font-style:italic;font-size:25px;font-family:STIXGeneral, STIXSizeOneSym;fill:#000000"
           aria-label="sec">
          <path
             id="path124"
             style="font-style:italic;font-size:25px;font-family:STIXGeneral, STIXSizeOneSym;fill:#000000"
             d="M 14.15,19.775001 H 13.8 c -0.2,0.35 -0.375,0.45 -0.75,0.45 -0.2,0 -0.425,-0.025 -0.9,-0.175 -0.625,-0.175 -0.975,-0.25 -1.4,-0.25 -1.85,0 -3.025,1.05 -3.025,2.7 0,0.8 0.5,1.925 1.575,3.275 0.975,1.225 1.4,2.075 1.4,2.875 0,1.225 -0.725,1.925 -1.9,1.925 -1.3,0 -2.15,-1.025 -2.5,-3.4 H 5.9 l -0.5,3.975 h 0.4 c 0.175,-0.4 0.45,-0.525 0.725,-0.525 0.275,0 0.625,0.025 1.1,0.225 0.575,0.225 0.95,0.25 1.375,0.25 2.075,0 3.6,-1.275 3.6,-3.35 0,-0.975 -0.45,-1.95 -1.7,-3.4 -0.975,-1.15 -1.35,-1.875 -1.35,-2.55 0,-0.925 0.6,-1.425 1.475,-1.425 1.225,0 1.975,0.825 2.225,2.9 h 0.4 z" />
          <path
             id="path126"
             style="font-style:italic;font-size:25px;font-family:STIXGeneral, STIXSizeOneSym;fill:#000000"
             d="m 23.666797,28.100001 c -1.8,1.475 -2.575,1.875 -3.675,1.875 -1.4,0 -2.325,-0.9 -2.325,-2.275 0,-0.375 0,-1.025 0.25,-1.525 4.475,-0.575 7.1,-2.525 7.1,-4.675 0,-1.05 -0.725,-1.7 -2.05,-1.7 -3.75,0 -7.475,4 -7.475,7.875 0,2.075 1.35,3.425 3.375,3.425 2.075,0 3.675,-0.95 5.1,-2.7 z m -5.15,-3.575 c 0.85,-2.225 2.55,-4.15 3.975,-4.15 0.7,0 0.875,0.375 0.875,0.975 0,0.775 -0.475,1.675 -1.25,2.425 -0.925,0.875 -1.875,1.325 -4.025,1.85 z" />
          <path
             id="path128"
             style="font-style:italic;font-size:25px;font-family:STIXGeneral, STIXSizeOneSym;fill:#000000"
             d="m 34.550781,28.150001 c -1.35,1.425 -2.3,2.05 -3.625,2.05 -1.425,0 -2.225,-1.05 -2.225,-2.85 0,-2.225 0.875,-4.35 2.275,-5.825 0.725,-0.75 1.725,-1.2 2.725,-1.2 0.575,0 0.925,0.2 0.925,0.5 0,0.475 -0.375,0.75 -0.375,1.2 0,0.5 0.275,1 0.975,1 0.65,0 1.2,-0.525 1.2,-1.2 0,-1.175 -1.1,-2.025 -2.625,-2.025 -1.525,0 -2.95,0.55 -4.175,1.525 -1.775,1.425 -3.075,3.6 -3.075,5.925 0,2.55 1.35,3.85 3.675,3.85 1.875,0 3.2,-0.775 4.725,-2.7 z" />
        </g>
        <g
           id="g110"
           style="font-family:STIXGeneral, STIXSizeOneSym">
          <g
             id="g20"
             style="font-family:STIXGeneral, STIXSizeOneSym">
            <g
               id="text6"
               style="font-size:25px;font-family:STIXGeneral, STIXSizeOneSym;fill:#000000"
               aria-label="(">
              <path
                 id="path131"
                 style="font-size:25px;font-family:STIXGeneral, STIXSizeOneSym;fill:#000000"
                 d="m 44.524999,34.850001 c -3.5,-2.925 -4.25,-5.75 -4.25,-10.4 0,-4.825 0.775,-7.15 4.25,-10.125 l -0.225,-0.4 c -4,2.375 -6.175,5.975 -6.175,10.6 0,4.25 2.15,8.475 6.1,10.725 z" />
            </g>
            <g
               id="g16"
               style="font-family:STIXGeneral, STIXSizeOneSym">
              <g
                 id="g14"
                 style="font-family:STIXGeneral, STIXSizeOneSym">
                <g
                   id="text8"
                   style="font-style:italic;font-size:25px;font-family:STIXGeneral, STIXSizeOneSym;fill:#000000"
                   aria-label="a">
                  <path
                     id="path134"
                     style="font-style:italic;font-size:25px;font-family:STIXGeneral, STIXSizeOneSym;fill:#000000"
                     d="m 56.825,28.050001 -0.675,0.725 c -0.75,0.825 -1.075,1.025 -1.3,1.025 -0.2,0 -0.35,-0.15 -0.35,-0.325 0,-0.5 1.05,-4.8 2.225,-9.075 0.075,-0.25 0.1,-0.3 0.15,-0.525 l -0.175,-0.075 -1.525,0.175 -0.075,0.075 -0.275,1.2 c -0.2,-0.925 -0.925,-1.45 -2,-1.45 -3.325,0 -7.15,4.525 -7.15,8.4 0,1.9 1.1,2.9 2.5,2.9 1.75,0 3.2,-1.1 5.075,-3.925 -0.525,2.05 -0.575,2.25 -0.575,2.875 0,0.725 0.3,1.025 1,1.025 1,0 1.6,-0.475 3.475,-2.75 z m -2.45,-6.25 c 0,1.775 -0.75,3.925 -1.925,5.625 -0.75,1.075 -1.925,2.45 -3.175,2.45 -0.9,0 -1.5,-0.475 -1.5,-1.85 0,-1.575 0.875,-3.8 1.925,-5.375 1.05,-1.525 2.15,-2.3 3.275,-2.3 0.875,0 1.4,0.575 1.4,1.45 z" />
                </g>
                <g
                   id="text10"
                   style="font-size:25px;font-family:STIXGeneral, STIXSizeOneSym;fill:#000000"
                   aria-label="+">
                  <path
                     id="path137"
                     style="font-size:25px;font-family:STIXGeneral, STIXSizeOneSym;fill:#000000"
                     d="m 79.230551,25.325001 v -1.65 h -6.525 v -6.525 h -1.65 v 6.525 h -6.525 v 1.65 h 6.525 v 6.525 h 1.65 v -6.525 z" />
                </g>
                <g
                   id="text12"
                   style="font-style:italic;font-size:25px;font-family:STIXGeneral, STIXSizeOneSym;fill:#000000"
                   aria-label="bi">
                  <path
                     id="path140"
                     style="font-style:italic;font-size:25px;font-family:STIXGeneral, STIXSizeOneSym;fill:#000000"
                     d="m 90.086101,23.575001 2.1,-7.65 0.525,-2.05 -0.125,-0.125 c -1.25,0.225 -2.15,0.375 -3.825,0.575 v 0.425 c 1.475,0.05 1.6,0.075 1.6,0.625 0,0.225 -0.075,0.575 -0.225,1.175 l -3.55,13.075 v 0.15 c 0,0.75 1.825,1.325 3.25,1.325 3.875,0 8,-4.35 8,-8.3 0,-1.925 -1.225,-3 -2.9,-3 -1.75,0 -3.125,0.95 -4.825,3.775 z m 5.625,-0.4 c 0,1.85 -1.25,4.325 -2.75,5.875 -0.925,0.95 -2,1.475 -3.075,1.475 -0.775,0 -1.15,-0.275 -1.15,-0.85 0,-1.5 0.7,-3.925 1.8,-5.775 1.075,-1.825 2.225,-2.875 3.425,-2.875 1.1,0 1.75,0.625 1.75,2.15 z" />
                  <path
                     id="path142"
                     style="font-style:italic;font-size:25px;font-family:STIXGeneral, STIXSizeOneSym;fill:#000000"
                     d="m 105.1111,15.850001 c 0,-0.725 -0.575,-1.375 -1.25,-1.375 -0.675,0 -1.175,0.55 -1.175,1.325 0,0.8 0.475,1.325 1.2,1.325 0.65,0 1.225,-0.575 1.225,-1.275 z m -1.05,12.125 c -1.075,1.425 -1.675,1.95 -2.1,1.95 -0.2,0 -0.35,-0.125 -0.35,-0.375 0,-0.35 0.125,-0.675 0.25,-1.1 l 2.35,-8.575 -0.1,-0.075 c -2.525,0.475 -3.025,0.55 -4,0.625 v 0.4 c 1.35,0.025 1.6,0.1 1.6,0.6 0,0.2 -0.1,0.65 -0.225,1.1 l -1.2,4.425 c -0.374999,1.4 -0.549999,2.275 -0.549999,2.775 0,0.925 0.399999,1.375 1.224999,1.375 1.25,0 2.05,-0.75 3.425,-2.85 z" />
                </g>
              </g>
            </g>
            <g
               id="text18"
               style="font-size:25px;font-family:STIXGeneral, STIXSizeOneSym;fill:#000000"
               aria-label=")">
              <path
                 id="path145"
                 style="font-size:25px;font-family:STIXGeneral, STIXSizeOneSym;fill:#000000"
                 d="m 106.1861,14.325001 c 3.625,2.85 4.25,5.725 4.25,10.4 0,4.85 -0.7,7.2 -4.25,10.125 l 0.225,0.4 c 3.975,-2.425 6.175,-5.975 6.175,-10.6 0,-4.25 -2.275,-8.425 -6.1,-10.725 z" />
            </g>
          </g>
          <g
             id="text22"
             style="font-size:25px;font-family:STIXGeneral, STIXSizeOneSym;fill:#000000"
             aria-label="=">
            <path
               id="path148"
               style="font-size:25px;font-family:STIXGeneral, STIXSizeOneSym;fill:#000000"
               d="m 136.65555,22.825001 v -1.65 h -14.725 v 1.65 z m 0,5 v -1.65 h -14.725 v 1.65 z" />
          </g>
          <g
             id="text24"
             style="font-size:25px;font-family:STIXGeneral, STIXSizeOneSym;fill:#000000"
             aria-label="1">
            <path
               id="path151"
               style="font-size:25px;font-family:STIXGeneral, STIXSizeOneSym;fill:#000000"
               d="m 205.15972,21.9 v -0.375 c -1.875,0 -2.375,-0.45 -2.375,-1.525 V 5.0749996 l -0.225,-0.075 -4.475,2.275 v 0.35 l 0.675,-0.25 c 0.45,-0.175 0.875,-0.3 1.125,-0.3 0.525,0 0.75,0.375 0.75,1.225 V 19.525 c 0,1.375 -0.525,1.9 -2.375,2 V 21.9 Z" />
          </g>
          <g
             id="g44"
             style="font-family:STIXGeneral, STIXSizeOneSym">
            <g
               id="text26"
               style="font-size:25px;font-family:STIXGeneral, STIXSizeOneSym;fill:#000000"
               aria-label="cos">
              <path
                 id="path154"
                 style="font-size:25px;font-family:STIXGeneral, STIXSizeOneSym;fill:#000000"
                 d="m 156.41666,41.637498 c -1.2,1.75 -2.1,2.35 -3.525,2.35 -2.3,0 -3.875,-2 -3.875,-4.875 0,-2.6 1.375,-4.35 3.4,-4.35 0.9,0 1.225,0.275 1.475,1.2 l 0.15,0.55 c 0.2,0.725 0.65,1.15 1.2,1.15 0.65,0 1.175,-0.475 1.175,-1.05 0,-1.4 -1.75,-2.575 -3.85,-2.575 -1.175,0 -2.375,0.45 -3.375,1.275 -1.35,1.125 -2.1,2.85 -2.1,4.925 0,3.225 1.975,5.55 4.75,5.55 1.075,0 2.025,-0.35 2.875,-1.05 0.75,-0.6 1.25,-1.325 2.05,-2.875 z" />
              <path
                 id="path156"
                 style="font-size:25px;font-family:STIXGeneral, STIXSizeOneSym;fill:#000000"
                 d="m 169.30064,39.762498 c 0,-3.45 -2.35,-5.725 -5.4,-5.725 -3.375,0 -5.625,2.325 -5.625,5.8 0,3.475 2.375,5.95 5.4,5.95 3.375,0 5.625,-2.55 5.625,-6.025 z m -2.25,0.675 c 0,2.9 -1.1,4.65 -2.95,4.65 -0.9,0 -1.7,-0.45 -2.25,-1.25 -0.925,-1.35 -1.325,-3.15 -1.325,-5.125 0,-2.5 1.175,-3.975 2.9,-3.975 1.075,0 1.775,0.5 2.375,1.25 0.8,1.025 1.25,2.75 1.25,4.45 z" />
              <path
                 id="path158"
                 style="font-size:25px;font-family:STIXGeneral, STIXSizeOneSym;fill:#000000"
                 d="m 173.95064,38.012498 c -0.7,-0.425 -1.075,-1.15 -1.075,-1.7 0,-1.175 0.8,-1.7 1.875,-1.7 1.5,0 2.25,0.825 2.825,3.075 h 0.375 l -0.125,-3.4 h -0.275 c -0.2,0.225 -0.3,0.25 -0.4,0.25 -0.175,0 -0.425,-0.075 -0.7,-0.2 -0.525,-0.25 -1.075,-0.275 -1.675,-0.275 -2.05,0 -3.45,1.1 -3.45,3.075 0,1.275 0.925,2.475 3,3.625 l 1.35,0.75 c 0.825,0.45 1.325,1.1 1.325,1.875 0,1.025 -0.8,1.85 -2.075,1.85 -1.725,0 -2.65,-1.1 -3.175,-3.525 h -0.4 v 3.925 h 0.325 c 0.15,-0.25 0.3,-0.3 0.6,-0.3 0.275,0 0.55,0.025 1.15,0.225 0.575,0.2 1.3,0.225 1.825,0.225 1.9,0 3.5,-1.45 3.5,-3.125 0,-1.425 -0.6,-2.1 -2.2,-3.075 z" />
            </g>
            <g
               id="g42"
               style="font-family:STIXGeneral, STIXSizeOneSym">
              <g
                 id="text28"
                 style="font-size:25px;font-family:STIXGeneral, STIXSizeOneSym;fill:#000000"
                 aria-label="(">
                <path
                   id="path161"
                   style="font-size:25px;font-family:STIXGeneral, STIXSizeOneSym;fill:#000000"
                   d="m 187.39167,49.562498 c -3.5,-2.925 -4.25,-5.75 -4.25,-10.4 0,-4.825 0.775,-7.15 4.25,-10.125 l -0.225,-0.4 c -4,2.375 -6.175,5.975 -6.175,10.6 0,4.25 2.15,8.475 6.1,10.725 z" />
              </g>
              <g
                 id="g38"
                 style="font-family:STIXGeneral, STIXSizeOneSym">
                <g
                   id="g36"
                   style="font-family:STIXGeneral, STIXSizeOneSym">
                  <g
                     id="text30"
                     style="font-style:italic;font-size:25px;font-family:STIXGeneral, STIXSizeOneSym;fill:#000000"
                     aria-label="a">
                    <path
                       id="path164"
                       style="font-style:italic;font-size:25px;font-family:STIXGeneral, STIXSizeOneSym;fill:#000000"
                       d="m 199.69167,42.762498 -0.675,0.725 c -0.75,0.825 -1.075,1.025 -1.3,1.025 -0.2,0 -0.35,-0.15 -0.35,-0.325 0,-0.5 1.05,-4.8 2.225,-9.075 0.075,-0.25 0.1,-0.3 0.15,-0.525 l -0.175,-0.075 -1.525,0.175 -0.075,0.075 -0.275,1.2 c -0.2,-0.925 -0.925,-1.45 -2,-1.45 -3.325,0 -7.15,4.525 -7.15,8.4 0,1.9 1.1,2.9 2.5,2.9 1.75,0 3.2,-1.1 5.075,-3.925 -0.525,2.05 -0.575,2.25 -0.575,2.875 0,0.725 0.3,1.025 1,1.025 1,0 1.6,-0.475 3.475,-2.75 z m -2.45,-6.25 c 0,1.775 -0.75,3.925 -1.925,5.625 -0.75,1.075 -1.925,2.45 -3.175,2.45 -0.9,0 -1.5,-0.475 -1.5,-1.85 0,-1.575 0.875,-3.8 1.925,-5.375 1.05,-1.525 2.15,-2.3 3.275,-2.3 0.875,0 1.4,0.575 1.4,1.45 z" />
                  </g>
                  <g
                     id="text32"
                     style="font-size:25px;font-family:STIXGeneral, STIXSizeOneSym;fill:#000000"
                     aria-label="+">
                    <path
                       id="path167"
                       style="font-size:25px;font-family:STIXGeneral, STIXSizeOneSym;fill:#000000"
                       d="m 222.09722,40.037498 v -1.65 h -6.525 v -6.525 h -1.65 v 6.525 h -6.525 v 1.65 h 6.525 v 6.525 h 1.65 v -6.525 z" />
                  </g>
                  <g
                     id="text34"
                     style="font-style:italic;font-size:25px;font-family:STIXGeneral, STIXSizeOneSym;fill:#000000"
                     aria-label="bi">
                    <path
                       id="path170"
                       style="font-style:italic;font-size:25px;font-family:STIXGeneral, STIXSizeOneSym;fill:#000000"
                       d="m 232.95276,38.287498 2.1,-7.65 0.525,-2.05 -0.125,-0.125 c -1.25,0.225 -2.15,0.375 -3.825,0.575 v 0.425 c 1.475,0.05 1.6,0.075 1.6,0.625 0,0.225 -0.075,0.575 -0.225,1.175 l -3.55,13.075 v 0.15 c 0,0.75 1.825,1.325 3.25,1.325 3.875,0 8,-4.35 8,-8.3 0,-1.925 -1.225,-3 -2.9,-3 -1.75,0 -3.125,0.95 -4.825,3.775 z m 5.625,-0.4 c 0,1.85 -1.25,4.325 -2.75,5.875 -0.925,0.95 -2,1.475 -3.075,1.475 -0.775,0 -1.15,-0.275 -1.15,-0.85 0,-1.5 0.7,-3.925 1.8,-5.775 1.075,-1.825 2.225,-2.875 3.425,-2.875 1.1,0 1.75,0.625 1.75,2.15 z" />
                    <path
                       id="path172"
                       style="font-style:italic;font-size:25px;font-family:STIXGeneral, STIXSizeOneSym;fill:#000000"
                       d="m 247.97776,30.562498 c 0,-0.725 -0.575,-1.375 -1.25,-1.375 -0.675,0 -1.175,0.55 -1.175,1.325 0,0.8 0.475,1.325 1.2,1.325 0.65,0 1.225,-0.575 1.225,-1.275 z m -1.05,12.125 c -1.075,1.425 -1.675,1.95 -2.1,1.95 -0.2,0 -0.35,-0.125 -0.35,-0.375 0,-0.35 0.125,-0.675 0.25,-1.1 l 2.35,-8.575 -0.1,-0.075 c -2.525,0.475 -3.025,0.55 -4,0.625 v 0.4 c 1.35,0.025 1.6,0.1 1.6,0.6 0,0.2 -0.1,0.65 -0.225,1.1 l -1.2,4.425 c -0.375,1.4 -0.55,2.275 -0.55,2.775 0,0.925 0.4,1.375 1.225,1.375 1.25,0 2.05,-0.75 3.425,-2.85 z" />
                  </g>
                </g>
              </g>
              <g
                 id="text40"
                 style="font-size:25px;font-family:STIXGeneral, STIXSizeOneSym;fill:#000000"
                 aria-label=")">
                <path
                   id="path175"
                   style="font-size:25px;font-family:STIXGeneral, STIXSizeOneSym;fill:#000000"
                   d="m 249.05277,29.037498 c 3.625,2.85 4.25,5.725 4.25,10.4 0,4.85 -0.7,7.2 -4.25,10.125 l 0.225,0.4 c 3.975,-2.425 6.175,-5.975 6.175,-10.6 0,-4.25 -2.275,-8.425 -6.1,-10.725 z" />
              </g>
            </g>
          </g>
          <path
             id="line46"
             d="M 144.8,24.4 H 258.31943"
             style="fill:none;stroke:#000000;stroke-width:1.5625" />
          <g
             id="text48"
             style="font-size:25px;font-family:STIXGeneral, STIXSizeOneSym;fill:#000000"
             aria-label="=">
            <path
               id="path179"
               style="font-size:25px;font-family:STIXGeneral, STIXSizeOneSym;fill:#000000"
               d="m 281.18889,22.825001 v -1.65 h -14.725 v 1.65 z m 0,5 v -1.65 h -14.725 v 1.65 z" />
          </g>
          <g
             id="text50"
             style="font-size:25px;font-family:STIXGeneral, STIXSizeOneSym;fill:#000000"
             aria-label="1">
            <path
               id="path182"
               style="font-size:25px;font-family:STIXGeneral, STIXSizeOneSym;fill:#000000"
               d="m 445.51806,21.9 v -0.375 c -1.875,0 -2.375,-0.45 -2.375,-1.525 V 5.0749996 l -0.225,-0.075 -4.475,2.275 v 0.35 l 0.675,-0.25 c 0.45,-0.175 0.875,-0.3 1.125,-0.3 0.525,0 0.75,0.375 0.75,1.225 V 19.525 c 0,1.375 -0.525,1.9 -2.375,2 V 21.9 Z" />
          </g>
          <g
             id="g106"
             style="font-family:STIXGeneral, STIXSizeOneSym">
            <g
               id="text52"
               style="font-size:25px;font-family:STIXGeneral, STIXSizeOneSym;fill:#000000"
               aria-label="cos">
              <path
                 id="path185"
                 style="font-size:25px;font-family:STIXGeneral, STIXSizeOneSym;fill:#000000"
                 d="m 300.95,41.637498 c -1.2,1.75 -2.1,2.35 -3.525,2.35 -2.3,0 -3.875,-2 -3.875,-4.875 0,-2.6 1.375,-4.35 3.4,-4.35 0.9,0 1.225,0.275 1.475,1.2 l 0.15,0.55 c 0.2,0.725 0.65,1.15 1.2,1.15 0.65,0 1.175,-0.475 1.175,-1.05 0,-1.4 -1.75,-2.575 -3.85,-2.575 -1.175,0 -2.375,0.45 -3.375,1.275 -1.35,1.125 -2.1,2.85 -2.1,4.925 0,3.225 1.975,5.55 4.75,5.55 1.075,0 2.025,-0.35 2.875,-1.05 0.75,-0.6 1.25,-1.325 2.05,-2.875 z" />
              <path
                 id="path187"
                 style="font-size:25px;font-family:STIXGeneral, STIXSizeOneSym;fill:#000000"
                 d="m 313.83398,39.762498 c 0,-3.45 -2.35,-5.725 -5.4,-5.725 -3.375,0 -5.625,2.325 -5.625,5.8 0,3.475 2.375,5.95 5.4,5.95 3.375,0 5.625,-2.55 5.625,-6.025 z m -2.25,0.675 c 0,2.9 -1.1,4.65 -2.95,4.65 -0.9,0 -1.7,-0.45 -2.25,-1.25 -0.925,-1.35 -1.325,-3.15 -1.325,-5.125 0,-2.5 1.175,-3.975 2.9,-3.975 1.075,0 1.775,0.5 2.375,1.25 0.8,1.025 1.25,2.75 1.25,4.45 z" />
              <path
                 id="path189"
                 style="font-size:25px;font-family:STIXGeneral, STIXSizeOneSym;fill:#000000"
                 d="m 318.48398,38.012498 c -0.7,-0.425 -1.075,-1.15 -1.075,-1.7 0,-1.175 0.8,-1.7 1.875,-1.7 1.5,0 2.25,0.825 2.825,3.075 h 0.375 l -0.125,-3.4 h -0.275 c -0.2,0.225 -0.3,0.25 -0.4,0.25 -0.175,0 -0.425,-0.075 -0.7,-0.2 -0.525,-0.25 -1.075,-0.275 -1.675,-0.275 -2.05,0 -3.45,1.1 -3.45,3.075 0,1.275 0.925,2.475 3,3.625 l 1.35,0.75 c 0.825,0.45 1.325,1.1 1.325,1.875 0,1.025 -0.8,1.85 -2.075,1.85 -1.725,0 -2.65,-1.1 -3.175,-3.525 h -0.4 v 3.925 h 0.325 c 0.15,-0.25 0.3,-0.3 0.6,-0.3 0.275,0 0.55,0.025 1.15,0.225 0.575,0.2 1.3,0.225 1.825,0.225 1.9,0 3.5,-1.45 3.5,-3.125 0,-1.425 -0.6,-2.1 -2.2,-3.075 z" />
            </g>
            <g
               id="g62"
               style="font-family:STIXGeneral, STIXSizeOneSym">
              <g
                 id="text54"
                 style="font-size:25px;font-family:STIXGeneral, STIXSizeOneSym;fill:#000000"
                 aria-label="(">
                <path
                   id="path192"
                   style="font-size:25px;font-family:STIXGeneral, STIXSizeOneSym;fill:#000000"
                   d="m 331.92501,49.562498 c -3.5,-2.925 -4.25,-5.75 -4.25,-10.4 0,-4.825 0.775,-7.15 4.25,-10.125 l -0.225,-0.4 c -4,2.375 -6.175,5.975 -6.175,10.6 0,4.25 2.15,8.475 6.1,10.725 z" />
              </g>
              <g
                 id="g58"
                 style="font-family:STIXGeneral, STIXSizeOneSym">
                <g
                   id="text56"
                   style="font-style:italic;font-size:25px;font-family:STIXGeneral, STIXSizeOneSym;fill:#000000"
                   aria-label="a">
                  <path
                     id="path195"
                     style="font-style:italic;font-size:25px;font-family:STIXGeneral, STIXSizeOneSym;fill:#000000"
                     d="m 344.22499,42.762498 -0.675,0.725 c -0.75,0.825 -1.075,1.025 -1.3,1.025 -0.2,0 -0.35,-0.15 -0.35,-0.325 0,-0.5 1.05,-4.8 2.225,-9.075 0.075,-0.25 0.1,-0.3 0.15,-0.525 l -0.175,-0.075 -1.525,0.175 -0.075,0.075 -0.275,1.2 c -0.2,-0.925 -0.925,-1.45 -2,-1.45 -3.325,0 -7.15,4.525 -7.15,8.4 0,1.9 1.1,2.9 2.5,2.9 1.75,0 3.2,-1.1 5.075,-3.925 -0.525,2.05 -0.575,2.25 -0.575,2.875 0,0.725 0.3,1.025 1,1.025 1,0 1.6,-0.475 3.475,-2.75 z m -2.45,-6.25 c 0,1.775 -0.75,3.925 -1.925,5.625 -0.75,1.075 -1.925,2.45 -3.175,2.45 -0.9,0 -1.5,-0.475 -1.5,-1.85 0,-1.575 0.875,-3.8 1.925,-5.375 1.05,-1.525 2.15,-2.3 3.275,-2.3 0.875,0 1.4,0.575 1.4,1.45 z" />
                </g>
              </g>
              <g
                 id="text60"
                 style="font-size:25px;font-family:STIXGeneral, STIXSizeOneSym;fill:#000000"
                 aria-label=")">
                <path
                   id="path198"
                   style="font-size:25px;font-family:STIXGeneral, STIXSizeOneSym;fill:#000000"
                   d="m 345.89999,29.037498 c 3.625,2.85 4.25,5.725 4.25,10.4 0,4.85 -0.7,7.2 -4.25,10.125 l 0.225,0.4 c 3.975,-2.425 6.175,-5.975 6.175,-10.6 0,-4.25 -2.275,-8.425 -6.1,-10.725 z" />
              </g>
            </g>
            <g
               id="text64"
               style="font-size:25px;font-family:STIXGeneral, STIXSizeOneSym;fill:#000000"
               aria-label="cosh">
              <path
                 id="path201"
                 style="font-size:25px;font-family:STIXGeneral, STIXSizeOneSym;fill:#000000"
                 d="m 363.45,41.637498 c -1.2,1.75 -2.1,2.35 -3.525,2.35 -2.3,0 -3.875,-2 -3.875,-4.875 0,-2.6 1.375,-4.35 3.4,-4.35 0.9,0 1.225,0.275 1.475,1.2 l 0.15,0.55 c 0.2,0.725 0.65,1.15 1.2,1.15 0.65,0 1.175,-0.475 1.175,-1.05 0,-1.4 -1.75,-2.575 -3.85,-2.575 -1.175,0 -2.375,0.45 -3.375,1.275 -1.35,1.125 -2.1,2.85 -2.1,4.925 0,3.225 1.975,5.55 4.75,5.55 1.075,0 2.025,-0.35 2.875,-1.05 0.75,-0.6 1.25,-1.325 2.05,-2.875 z" />
              <path
                 id="path203"
                 style="font-size:25px;font-family:STIXGeneral, STIXSizeOneSym;fill:#000000"
                 d="m 376.33398,39.762498 c 0,-3.45 -2.35,-5.725 -5.4,-5.725 -3.375,0 -5.625,2.325 -5.625,5.8 0,3.475 2.375,5.95 5.4,5.95 3.375,0 5.625,-2.55 5.625,-6.025 z m -2.25,0.675 c 0,2.9 -1.1,4.65 -2.95,4.65 -0.9,0 -1.7,-0.45 -2.25,-1.25 -0.925,-1.35 -1.325,-3.15 -1.325,-5.125 0,-2.5 1.175,-3.975 2.9,-3.975 1.075,0 1.775,0.5 2.375,1.25 0.8,1.025 1.25,2.75 1.25,4.45 z" />
              <path
                 id="path205"
                 style="font-size:25px;font-family:STIXGeneral, STIXSizeOneSym;fill:#000000"
                 d="m 380.98398,38.012498 c -0.7,-0.425 -1.075,-1.15 -1.075,-1.7 0,-1.175 0.8,-1.7 1.875,-1.7 1.5,0 2.25,0.825 2.825,3.075 h 0.375 l -0.125,-3.4 h -0.275 c -0.2,0.225 -0.3,0.25 -0.4,0.25 -0.175,0 -0.425,-0.075 -0.7,-0.2 -0.525,-0.25 -1.075,-0.275 -1.675,-0.275 -2.05,0 -3.45,1.1 -3.45,3.075 0,1.275 0.925,2.475 3,3.625 l 1.35,0.75 c 0.825,0.45 1.325,1.1 1.325,1.875 0,1.025 -0.8,1.85 -2.075,1.85 -1.725,0 -2.65,-1.1 -3.175,-3.525 h -0.4 v 3.925 h 0.325 c 0.15,-0.25 0.3,-0.3 0.6,-0.3 0.275,0 0.55,0.025 1.15,0.225 0.575,0.2 1.3,0.225 1.825,0.225 1.9,0 3.5,-1.45 3.5,-3.125 0,-1.425 -0.6,-2.1 -2.2,-3.075 z" />
              <path
                 id="path207"
                 style="font-size:25px;font-family:STIXGeneral, STIXSizeOneSym;fill:#000000"
                 d="m 398.97578,45.537498 v -0.375 c -1.35,-0.25 -1.5,-0.45 -1.5,-2.175 v -4.975 c 0,-2.625 -1.025,-3.975 -3.075,-3.975 -1.475,0 -2.525,0.6 -3.675,2.1 v -7.6 l -0.125,-0.075 c -0.875,0.3 -1.45,0.475 -2.875,0.9 l -0.675,0.2 v 0.4 c 0.075,-0.025 0.2,-0.025 0.3,-0.025 1.075,0 1.275,0.2 1.275,1.275 v 11.775 c 0,1.75 -0.15,1.975 -1.6,2.175 v 0.375 h 5.4 v -0.375 c -1.45,-0.15 -1.7,-0.45 -1.7,-2.175 v -6.025 c 1.05,-1.15 1.8,-1.575 2.8,-1.575 1.225,0 1.85,0.9 1.85,2.65 v 4.95 c 0,1.725 -0.25,2.025 -1.7,2.175 v 0.375 z" />
            </g>
            <g
               id="g80"
               style="font-family:STIXGeneral, STIXSizeOneSym">
              <g
                 id="g74"
                 style="font-family:STIXGeneral, STIXSizeOneSym">
                <g
                   id="text66"
                   style="font-size:25px;font-family:STIXGeneral, STIXSizeOneSym;fill:#000000"
                   aria-label="(">
                  <path
                     id="path210"
                     style="font-size:25px;font-family:STIXGeneral, STIXSizeOneSym;fill:#000000"
                     d="m 406.92501,49.562498 c -3.5,-2.925 -4.25,-5.75 -4.25,-10.4 0,-4.825 0.775,-7.15 4.25,-10.125 l -0.225,-0.4 c -4,2.375 -6.175,5.975 -6.175,10.6 0,4.25 2.15,8.475 6.1,10.725 z" />
                </g>
                <g
                   id="g70"
                   style="font-family:STIXGeneral, STIXSizeOneSym">
                  <g
                     id="text68"
                     style="font-style:italic;font-size:25px;font-family:STIXGeneral, STIXSizeOneSym;fill:#000000"
                     aria-label="b">
                    <path
                       id="path213"
                       style="font-style:italic;font-size:25px;font-family:STIXGeneral, STIXSizeOneSym;fill:#000000"
                       d="m 411.72499,38.287498 2.1,-7.65 0.525,-2.05 -0.125,-0.125 c -1.25,0.225 -2.15,0.375 -3.825,0.575 v 0.425 c 1.475,0.05 1.6,0.075 1.6,0.625 0,0.225 -0.075,0.575 -0.225,1.175 l -3.55,13.075 v 0.15 c 0,0.75 1.825,1.325 3.25,1.325 3.875,0 8,-4.35 8,-8.3 0,-1.925 -1.225,-3 -2.9,-3 -1.75,0 -3.125,0.95 -4.825,3.775 z m 5.625,-0.4 c 0,1.85 -1.25,4.325 -2.75,5.875 -0.925,0.95 -2,1.475 -3.075,1.475 -0.775,0 -1.15,-0.275 -1.15,-0.85 0,-1.5 0.7,-3.925 1.8,-5.775 1.075,-1.825 2.225,-2.875 3.425,-2.875 1.1,0 1.75,0.625 1.75,2.15 z" />
                  </g>
                </g>
                <g
                   id="text72"
                   style="font-size:25px;font-family:STIXGeneral, STIXSizeOneSym;fill:#000000"
                   aria-label=")">
                  <path
                     id="path216"
                     style="font-size:25px;font-family:STIXGeneral, STIXSizeOneSym;fill:#000000"
                     d="m 420.87499,29.037498 c 3.625,2.85 4.25,5.725 4.25,10.4 0,4.85 -0.7,7.2 -4.25,10.125 l 0.225,0.4 c 3.975,-2.425 6.175,-5.975 6.175,-10.6 0,-4.25 -2.275,-8.425 -6.1,-10.725 z" />
                </g>
              </g>
              <g
                 id="text76"
                 style="font-size:25px;font-family:STIXGeneral, STIXSizeOneSym;fill:#000000"
                 aria-label="−">
                <path
                   id="path219"
                   style="font-size:25px;font-family:STIXGeneral, STIXSizeOneSym;fill:#000000"
                   d="m 449.55555,40.037498 v -1.65 h -13.925 v 1.65 z" />
              </g>
              <g
                 id="text78"
                 style="font-size:25px;font-family:STIXGeneral, STIXSizeOneSym;fill:#000000"
                 aria-label="sin">
                <path
                   id="path222"
                   style="font-size:25px;font-family:STIXGeneral, STIXSizeOneSym;fill:#000000"
                   d="m 460.61109,38.012498 c -0.7,-0.425 -1.075,-1.15 -1.075,-1.7 0,-1.175 0.8,-1.7 1.875,-1.7 1.5,0 2.25,0.825 2.825,3.075 h 0.375 l -0.125,-3.4 h -0.275 c -0.2,0.225 -0.3,0.25 -0.4,0.25 -0.175,0 -0.425,-0.075 -0.7,-0.2 -0.525,-0.25 -1.075,-0.275 -1.675,-0.275 -2.05,0 -3.45,1.1 -3.45,3.075 0,1.275 0.925,2.475 3,3.625 l 1.35,0.75 c 0.825,0.45 1.325,1.1 1.325,1.875 0,1.025 -0.8,1.85 -2.075,1.85 -1.725,0 -2.65,-1.1 -3.175,-3.525 h -0.4 v 3.925 h 0.325 c 0.15,-0.25 0.3,-0.3 0.6,-0.3 0.275,0 0.55,0.025 1.15,0.225 0.575,0.2 1.3,0.225 1.825,0.225 1.9,0 3.5,-1.45 3.5,-3.125 0,-1.425 -0.6,-2.1 -2.2,-3.075 z" />
                <path
                   id="path224"
                   style="font-size:25px;font-family:STIXGeneral, STIXSizeOneSym;fill:#000000"
                   d="m 470.92789,29.737498 c 0,-0.7 -0.55,-1.275 -1.275,-1.275 -0.7,0 -1.275,0.575 -1.275,1.275 0,0.725 0.55,1.275 1.25,1.275 0.75,0 1.3,-0.55 1.3,-1.275 z m 1.825,15.8 v -0.375 c -1.65,-0.125 -1.85,-0.4 -1.85,-2.25 v -8.775 l -0.1,-0.1 -3.875,1.375 v 0.4 c 0.45,-0.125 0.825,-0.125 1.05,-0.125 0.625,0 0.825,0.4 0.825,1.575 v 5.675 c 0,1.9 -0.25,2.125 -1.975,2.225 v 0.375 z" />
                <path
                   id="path226"
                   style="font-size:25px;font-family:STIXGeneral, STIXSizeOneSym;fill:#000000"
                   d="m 485.48648,45.537498 v -0.375 c -1.225,-0.125 -1.525,-0.4 -1.525,-1.75 v -5.525 c 0,-2.475 -1.05,-3.85 -2.95,-3.85 -1.15,0 -2.3,0.55 -3.6,2.025 h -0.025 v -1.95 l -0.2,-0.075 c -1.225,0.45 -2.05,0.725 -3.425,1.125 v 0.425 c 0.175,-0.075 0.45,-0.1 0.725,-0.1 0.7,0 0.875,0.4 0.875,1.625 v 6.075 c 0,1.475 -0.275,1.875 -1.55,1.975 v 0.375 h 5.275 v -0.375 c -1.275,-0.1 -1.625,-0.45 -1.625,-1.425 v -6.9 c 1.15,-1.125 1.75,-1.425 2.575,-1.425 1.225,0 1.825,0.75 1.825,2.525 v 4.975 c 0,1.65 -0.3,2.15 -1.55,2.25 l -0.025,0.375 z" />
              </g>
            </g>
            <g
               id="g90"
               style="font-family:STIXGeneral, STIXSizeOneSym">
              <g
                 id="text82"
                 style="font-size:25px;font-family:STIXGeneral, STIXSizeOneSym;fill:#000000"
                 aria-label="(">
                <path
                   id="path229"
                   style="font-size:25px;font-family:STIXGeneral, STIXSizeOneSym;fill:#000000"
                   d="m 493.48611,49.562498 c -3.5,-2.925 -4.25,-5.75 -4.25,-10.4 0,-4.825 0.775,-7.15 4.25,-10.125 l -0.225,-0.4 c -4,2.375 -6.175,5.975 -6.175,10.6 0,4.25 2.15,8.475 6.1,10.725 z" />
              </g>
              <g
                 id="g86"
                 style="font-family:STIXGeneral, STIXSizeOneSym">
                <g
                   id="text84"
                   style="font-style:italic;font-size:25px;font-family:STIXGeneral, STIXSizeOneSym;fill:#000000"
                   aria-label="a">
                  <path
                     id="path232"
                     style="font-style:italic;font-size:25px;font-family:STIXGeneral, STIXSizeOneSym;fill:#000000"
                     d="m 505.78609,42.762498 -0.675,0.725 c -0.75,0.825 -1.075,1.025 -1.3,1.025 -0.2,0 -0.35,-0.15 -0.35,-0.325 0,-0.5 1.05,-4.8 2.225,-9.075 0.075,-0.25 0.1,-0.3 0.15,-0.525 l -0.175,-0.075 -1.525,0.175 -0.075,0.075 -0.275,1.2 c -0.2,-0.925 -0.925,-1.45 -2,-1.45 -3.325,0 -7.15,4.525 -7.15,8.4 0,1.9 1.1,2.9 2.5,2.9 1.75,0 3.2,-1.1 5.075,-3.925 -0.525,2.05 -0.575,2.25 -0.575,2.875 0,0.725 0.3,1.025 1,1.025 1,0 1.6,-0.475 3.475,-2.75 z m -2.45,-6.25 c 0,1.775 -0.75,3.925 -1.925,5.625 -0.75,1.075 -1.925,2.45 -3.175,2.45 -0.9,0 -1.5,-0.475 -1.5,-1.85 0,-1.575 0.875,-3.8 1.925,-5.375 1.05,-1.525 2.15,-2.3 3.275,-2.3 0.875,0 1.4,0.575 1.4,1.45 z" />
                </g>
              </g>
              <g
                 id="text88"
                 style="font-size:25px;font-family:STIXGeneral, STIXSizeOneSym;fill:#000000"
                 aria-label=")">
                <path
                   id="path235"
                   style="font-size:25px;font-family:STIXGeneral, STIXSizeOneSym;fill:#000000"
                   d="m 507.46111,29.037498 c 3.625,2.85 4.25,5.725 4.25,10.4 0,4.85 -0.7,7.2 -4.25,10.125 l 0.225,0.4 c 3.975,-2.425 6.175,-5.975 6.175,-10.6 0,-4.25 -2.275,-8.425 -6.1,-10.725 z" />
              </g>
            </g>
            <g
               id="text92"
               style="font-size:25px;font-family:STIXGeneral, STIXSizeOneSym;fill:#000000"
               aria-label="sinh">
              <path
                 id="path238"
                 style="font-size:25px;font-family:STIXGeneral, STIXSizeOneSym;fill:#000000"
                 d="m 518.9611,38.012498 c -0.7,-0.425 -1.075,-1.15 -1.075,-1.7 0,-1.175 0.8,-1.7 1.875,-1.7 1.5,0 2.25,0.825 2.825,3.075 h 0.375 l -0.125,-3.4 h -0.275 c -0.2,0.225 -0.3,0.25 -0.4,0.25 -0.175,0 -0.425,-0.075 -0.7,-0.2 -0.525,-0.25 -1.075,-0.275 -1.675,-0.275 -2.05,0 -3.45,1.1 -3.45,3.075 0,1.275 0.925,2.475 3,3.625 l 1.35,0.75 c 0.825,0.45 1.325,1.1 1.325,1.875 0,1.025 -0.8,1.85 -2.075,1.85 -1.725,0 -2.65,-1.1 -3.175,-3.525 h -0.4 v 3.925 h 0.325 c 0.15,-0.25 0.3,-0.3 0.6,-0.3 0.275,0 0.55,0.025 1.15,0.225 0.575,0.2 1.3,0.225 1.825,0.225 1.9,0 3.5,-1.45 3.5,-3.125 0,-1.425 -0.6,-2.1 -2.2,-3.075 z" />
              <path
                 id="path240"
                 style="font-size:25px;font-family:STIXGeneral, STIXSizeOneSym;fill:#000000"
                 d="m 529.27789,29.737498 c 0,-0.7 -0.55,-1.275 -1.275,-1.275 -0.7,0 -1.275,0.575 -1.275,1.275 0,0.725 0.55,1.275 1.25,1.275 0.75,0 1.3,-0.55 1.3,-1.275 z m 1.825,15.8 v -0.375 c -1.65,-0.125 -1.85,-0.4 -1.85,-2.25 v -8.775 l -0.1,-0.1 -3.875,1.375 v 0.4 c 0.45,-0.125 0.825,-0.125 1.05,-0.125 0.625,0 0.825,0.4 0.825,1.575 v 5.675 c 0,1.9 -0.25,2.125 -1.975,2.225 v 0.375 z" />
              <path
                 id="path242"
                 style="font-size:25px;font-family:STIXGeneral, STIXSizeOneSym;fill:#000000"
                 d="m 543.83649,45.537498 v -0.375 c -1.225,-0.125 -1.525,-0.4 -1.525,-1.75 v -5.525 c 0,-2.475 -1.05,-3.85 -2.95,-3.85 -1.15,0 -2.3,0.55 -3.6,2.025 h -0.025 v -1.95 l -0.2,-0.075 c -1.225,0.45 -2.05,0.725 -3.425,1.125 v 0.425 c 0.175,-0.075 0.45,-0.1 0.725,-0.1 0.7,0 0.875,0.4 0.875,1.625 v 6.075 c 0,1.475 -0.275,1.875 -1.55,1.975 v 0.375 h 5.275 v -0.375 c -1.275,-0.1 -1.625,-0.45 -1.625,-1.425 v -6.9 c 1.15,-1.125 1.75,-1.425 2.575,-1.425 1.225,0 1.825,0.75 1.825,2.525 v 4.975 c 0,1.65 -0.3,2.15 -1.55,2.25 l -0.025,0.375 z" />
              <path
                 id="path244"
                 style="font-size:25px;font-family:STIXGeneral, STIXSizeOneSym;fill:#000000"
                 d="m 556.38649,45.537498 v -0.375 c -1.35,-0.25 -1.5,-0.45 -1.5,-2.175 v -4.975 c 0,-2.625 -1.025,-3.975 -3.075,-3.975 -1.475,0 -2.525,0.6 -3.675,2.1 v -7.6 l -0.125,-0.075 c -0.875,0.3 -1.45,0.475 -2.875,0.9 l -0.675,0.2 v 0.4 c 0.075,-0.025 0.2,-0.025 0.3,-0.025 1.075,0 1.275,0.2 1.275,1.275 v 11.775 c 0,1.75 -0.15,1.975 -1.6,2.175 v 0.375 h 5.4 v -0.375 c -1.45,-0.15 -1.7,-0.45 -1.7,-2.175 v -6.025 c 1.05,-1.15 1.8,-1.575 2.8,-1.575 1.225,0 1.85,0.9 1.85,2.65 v 4.95 c 0,1.725 -0.25,2.025 -1.7,2.175 v 0.375 z" />
            </g>
            <g
               id="g102"
               style="font-family:STIXGeneral, STIXSizeOneSym">
              <g
                 id="text94"
                 style="font-size:25px;font-family:STIXGeneral, STIXSizeOneSym;fill:#000000"
                 aria-label="(">
                <path
                   id="path247"
                   style="font-size:25px;font-family:STIXGeneral, STIXSizeOneSym;fill:#000000"
                   d="m 564.33608,49.562498 c -3.5,-2.925 -4.25,-5.75 -4.25,-10.4 0,-4.825 0.775,-7.15 4.25,-10.125 l -0.225,-0.4 c -4,2.375 -6.175,5.975 -6.175,10.6 0,4.25 2.15,8.475 6.1,10.725 z" />
              </g>
              <g
                 id="g98"
                 style="font-family:STIXGeneral, STIXSizeOneSym">
                <g
                   id="text96"
                   style="font-style:italic;font-size:25px;font-family:STIXGeneral, STIXSizeOneSym;fill:#000000"
                   aria-label="b">
                  <path
                     id="path250"
                     style="font-style:italic;font-size:25px;font-family:STIXGeneral, STIXSizeOneSym;fill:#000000"
                     d="m 569.1361,38.287498 2.1,-7.65 0.525,-2.05 -0.125,-0.125 c -1.25,0.225 -2.15,0.375 -3.825,0.575 v 0.425 c 1.475,0.05 1.6,0.075 1.6,0.625 0,0.225 -0.075,0.575 -0.225,1.175 l -3.55,13.075 v 0.15 c 0,0.75 1.825,1.325 3.25,1.325 3.875,0 8,-4.35 8,-8.3 0,-1.925 -1.225,-3 -2.9,-3 -1.75,0 -3.125,0.95 -4.825,3.775 z m 5.625,-0.4 c 0,1.85 -1.25,4.325 -2.75,5.875 -0.925,0.95 -2,1.475 -3.075,1.475 -0.775,0 -1.15,-0.275 -1.15,-0.85 0,-1.5 0.7,-3.925 1.8,-5.775 1.075,-1.825 2.225,-2.875 3.425,-2.875 1.1,0 1.75,0.625 1.75,2.15 z" />
                </g>
              </g>
              <g
                 id="text100"
                 style="font-size:25px;font-family:STIXGeneral, STIXSizeOneSym;fill:#000000"
                 aria-label=")">
                <path
                   id="path253"
                   style="font-size:25px;font-family:STIXGeneral, STIXSizeOneSym;fill:#000000"
                   d="m 578.2861,29.037498 c 3.625,2.85 4.25,5.725 4.25,10.4 0,4.85 -0.7,7.2 -4.25,10.125 l 0.225,0.4 c 3.975,-2.425 6.175,-5.975 6.175,-10.6 0,-4.25 -2.275,-8.425 -6.1,-10.725 z" />
              </g>
            </g>
            <g
               id="text104"
               style="font-style:italic;font-size:25px;font-family:STIXGeneral, STIXSizeOneSym;fill:#000000"
               aria-label="i">
              <path
                 id="path256"
                 style="font-style:italic;font-size:25px;font-family:STIXGeneral, STIXSizeOneSym;fill:#000000"
                 d="m 592.48611,30.562498 c 0,-0.725 -0.575,-1.375 -1.25,-1.375 -0.675,0 -1.175,0.55 -1.175,1.325 0,0.8 0.475,1.325 1.2,1.325 0.65,0 1.225,-0.575 1.225,-1.275 z m -1.05,12.125 c -1.075,1.425 -1.675,1.95 -2.1,1.95 -0.2,0 -0.35,-0.125 -0.35,-0.375 0,-0.35 0.125,-0.675 0.25,-1.1 l 2.35,-8.575 -0.1,-0.075 c -2.525,0.475 -3.025,0.55 -4,0.625 v 0.4 c 1.35,0.025 1.6,0.1 1.6,0.6 0,0.2 -0.1,0.65 -0.225,1.1 l -1.2,4.425 c -0.375,1.4 -0.55,2.275 -0.55,2.775 0,0.925 0.4,1.375 1.225,1.375 1.25,0 2.05,-0.75 3.425,-2.85 z" />
            </g>
          </g>
          <path
             id="line108"
             d="M 289.33334,24.4 H 594.50275"
             style="fill:none;stroke:#000000;stroke-width:1.5625" />
        </g>
      </g>
    </g>
  </g>
</svg>
