<?xml version="1.0" encoding="UTF-8" standalone="no"?>
<svg
   xmlns:pmml2svg="https://sourceforge.net/projects/pmml2svg/"
   xmlns:dc="http://purl.org/dc/elements/1.1/"
   xmlns:cc="http://creativecommons.org/ns#"
   xmlns:rdf="http://www.w3.org/1999/02/22-rdf-syntax-ns#"
   xmlns:svg="http://www.w3.org/2000/svg"
   xmlns="http://www.w3.org/2000/svg"
   id="svg118"
   viewBox="0 0 1190.7055333333333 109.92500000000001"
   height="109.92500000000001px"
   width="1190.7055333333333px"
   version="1.1">
  <defs
     id="defs122" />
  <metadata
     id="metadata2">
    <pmml2svg:baseline-shift>48.275000000000006</pmml2svg:baseline-shift>
    <rdf:RDF>
      <cc:Work
         rdf:about="">
        <dc:format>image/svg+xml</dc:format>
        <dc:type
           rdf:resource="http://purl.org/dc/dcmitype/StillImage" />
      </cc:Work>
    </rdf:RDF>
  </metadata>
  <g
     style="font-family:STIXGeneral, STIXSizeOneSym;fill:#000000;stroke:none;text-rendering:optimizeLegibility"
     id="g116">
    <g
       id="g114"
       style="font-family:STIXGeneral, STIXSizeOneSym">
      <g
         id="g112"
         style="font-family:STIXGeneral, STIXSizeOneSym">
        <g
           id="text4"
           style="font-style:italic;font-size:50px;font-family:STIXGeneral, STIXSizeOneSym;fill:#000000"
           aria-label="csc">
          <path
             id="path124"
             style="font-style:italic;font-size:50px;font-family:STIXGeneral, STIXSizeOneSym;fill:#000000"
             d="m 27.5,56.300002 c -2.7,2.85 -4.6,4.1 -7.25,4.1 -2.85,0 -4.45,-2.1 -4.45,-5.7 0,-4.45 1.75,-8.7 4.55,-11.65 1.45,-1.5 3.45,-2.4 5.45,-2.4 1.15,0 1.85,0.4 1.85,1 0,0.95 -0.75,1.5 -0.75,2.4 0,1 0.55,2 1.95,2 1.3,0 2.4,-1.05 2.4,-2.4 0,-2.35 -2.2,-4.05 -5.25,-4.05 -3.05,0 -5.9,1.1 -8.35,3.05 -3.55,2.85 -6.15,7.2 -6.15,11.85 0,5.1 2.7,7.7 7.35,7.7 3.75,0 6.4,-1.55 9.45,-5.4 z" />
          <path
             id="path126"
             style="font-style:italic;font-size:50px;font-family:STIXGeneral, STIXSizeOneSym;fill:#000000"
             d="m 50.467969,39.550002 h -0.7 c -0.4,0.7 -0.75,0.9 -1.5,0.9 -0.4,0 -0.85,-0.05 -1.8,-0.35 -1.25,-0.35 -1.95,-0.5 -2.8,-0.5 -3.7,0 -6.05,2.1 -6.05,5.4 0,1.6 1,3.85 3.15,6.55 1.95,2.45 2.8,4.15 2.8,5.75 0,2.45 -1.45,3.85 -3.8,3.85 -2.6,0 -4.3,-2.05 -5,-6.8 h -0.8 l -1,7.95 h 0.8 c 0.35,-0.8 0.9,-1.05 1.45,-1.05 0.55,0 1.25,0.05 2.2,0.45 1.15,0.45 1.9,0.5 2.75,0.5 4.15,0 7.2,-2.55 7.2,-6.7 0,-1.95 -0.9,-3.9 -3.4,-6.8 -1.95,-2.3 -2.7,-3.75 -2.7,-5.1 0,-1.85 1.2,-2.85 2.95,-2.85 2.45,0 3.95,1.65 4.45,5.8 h 0.8 z" />
          <path
             id="path128"
             style="font-style:italic;font-size:50px;font-family:STIXGeneral, STIXSizeOneSym;fill:#000000"
             d="m 69.101562,56.300002 c -2.7,2.85 -4.599999,4.1 -7.25,4.1 -2.85,0 -4.45,-2.1 -4.45,-5.7 0,-4.45 1.75,-8.7 4.550001,-11.65 1.449999,-1.5 3.449999,-2.4 5.449999,-2.4 1.150001,0 1.850001,0.4 1.850001,1 0,0.95 -0.75,1.5 -0.75,2.4 0,1 0.55,2 1.949999,2 1.300001,0 2.4,-1.05 2.4,-2.4 0,-2.35 -2.2,-4.05 -5.25,-4.05 -3.049999,0 -5.899999,1.1 -8.35,3.05 -3.549999,2.85 -6.15,7.2 -6.15,11.85 0,5.1 2.700001,7.7 7.350001,7.7 3.749999,0 6.399999,-1.55 9.449999,-5.4 z" />
        </g>
        <g
           id="g110"
           style="font-family:STIXGeneral, STIXSizeOneSym">
          <g
             id="g20"
             style="font-family:STIXGeneral, STIXSizeOneSym">
            <g
               id="text6"
               style="font-size:50px;font-family:STIXGeneral, STIXSizeOneSym;fill:#000000"
               aria-label="(">
              <path
                 id="path131"
                 style="font-size:50px;font-family:STIXGeneral, STIXSizeOneSym;fill:#000000"
                 d="m 89.049998,69.700002 c -7,-5.85 -8.5,-11.5 -8.5,-20.8 0,-9.65 1.55,-14.3 8.5,-20.25 l -0.45,-0.8 c -8,4.75 -12.35,11.95 -12.35,21.2 0,8.5 4.3,16.95 12.2,21.45 z" />
            </g>
            <g
               id="g16"
               style="font-family:STIXGeneral, STIXSizeOneSym">
              <g
                 id="g14"
                 style="font-family:STIXGeneral, STIXSizeOneSym">
                <g
                   id="text8"
                   style="font-style:italic;font-size:50px;font-family:STIXGeneral, STIXSizeOneSym;fill:#000000"
                   aria-label="a">
                  <path
                     id="path134"
                     style="font-style:italic;font-size:50px;font-family:STIXGeneral, STIXSizeOneSym;fill:#000000"
                     d="m 113.65,56.100002 -1.35,1.45 c -1.5,1.65 -2.15,2.05 -2.6,2.05 -0.4,0 -0.7,-0.3 -0.7,-0.65 0,-1 2.1,-9.6 4.45,-18.15 0.15,-0.5 0.2,-0.6 0.3,-1.05 l -0.35,-0.15 -3.05,0.35 -0.15,0.15 -0.55,2.4 c -0.4,-1.85 -1.85,-2.9 -4,-2.9 -6.65,0 -14.3,9.05 -14.3,16.8 0,3.8 2.2,5.8 5,5.8 3.5,0 6.4,-2.2 10.15,-7.85 -1.05,4.1 -1.15,4.5 -1.15,5.75 0,1.45 0.6,2.05 2,2.05 2,0 3.2,-0.95 6.95,-5.5 z m -4.9,-12.5 c 0,3.55 -1.5,7.85 -3.85,11.25 -1.5,2.15 -3.85,4.9 -6.35,4.9 -1.8,0 -3,-0.95 -3,-3.7 0,-3.15 1.75,-7.6 3.85,-10.75 2.1,-3.05 4.3,-4.6 6.55,-4.6 1.75,0 2.8,1.15 2.8,2.9 z" />
                </g>
                <g
                   id="text10"
                   style="font-size:50px;font-family:STIXGeneral, STIXSizeOneSym;fill:#000000"
                   aria-label="+">
                  <path
                     id="path137"
                     style="font-size:50px;font-family:STIXGeneral, STIXSizeOneSym;fill:#000000"
                     d="m 158.4611,50.650002 v -3.3 h -13.05 v -13.05 h -3.3 v 13.05 h -13.05 v 3.3 h 13.05 v 13.05 h 3.3 v -13.05 z" />
                </g>
                <g
                   id="text12"
                   style="font-style:italic;font-size:50px;font-family:STIXGeneral, STIXSizeOneSym;fill:#000000"
                   aria-label="bi">
                  <path
                     id="path140"
                     style="font-style:italic;font-size:50px;font-family:STIXGeneral, STIXSizeOneSym;fill:#000000"
                     d="m 180.1722,47.150002 4.2,-15.3 1.05,-4.1 -0.25,-0.25 c -2.5,0.45 -4.3,0.75 -7.65,1.15 v 0.85 c 2.95,0.1 3.2,0.15 3.2,1.25 0,0.45 -0.15,1.15 -0.45,2.35 l -7.1,26.15 v 0.3 c 0,1.5 3.65,2.65 6.5,2.65 7.75,0 16,-8.7 16,-16.6 0,-3.85 -2.45,-6 -5.8,-6 -3.5,0 -6.25,1.9 -9.65,7.55 z m 11.25,-0.8 c 0,3.7 -2.5,8.65 -5.5,11.75 -1.85,1.9 -4,2.95 -6.15,2.95 -1.55,0 -2.3,-0.55 -2.3,-1.7 0,-3 1.4,-7.85 3.6,-11.55 2.15,-3.65 4.45,-5.75 6.85,-5.75 2.2,0 3.5,1.25 3.5,4.3 z" />
                  <path
                     id="path142"
                     style="font-style:italic;font-size:50px;font-family:STIXGeneral, STIXSizeOneSym;fill:#000000"
                     d="m 210.2222,31.700002 c 0,-1.45 -1.15,-2.75 -2.5,-2.75 -1.35,0 -2.35,1.1 -2.35,2.65 0,1.6 0.95,2.65 2.4,2.65 1.3,0 2.45,-1.15 2.45,-2.55 z m -2.1,24.25 c -2.15,2.85 -3.35,3.9 -4.2,3.9 -0.4,0 -0.7,-0.25 -0.7,-0.75 0,-0.7 0.25,-1.35 0.5,-2.2 l 4.7,-17.15 -0.2,-0.15 c -5.05,0.95 -6.05,1.1 -8,1.25 v 0.8 c 2.7,0.05 3.2,0.2 3.2,1.2 0,0.4 -0.2,1.3 -0.45,2.2 l -2.4,8.85 c -0.75,2.8 -1.1,4.55 -1.1,5.55 0,1.85 0.8,2.75 2.45,2.75 2.5,0 4.1,-1.5 6.85,-5.7 z" />
                </g>
              </g>
            </g>
            <g
               id="text18"
               style="font-size:50px;font-family:STIXGeneral, STIXSizeOneSym;fill:#000000"
               aria-label=")">
              <path
                 id="path145"
                 style="font-size:50px;font-family:STIXGeneral, STIXSizeOneSym;fill:#000000"
                 d="m 212.3722,28.650002 c 7.25,5.7 8.5,11.45 8.5,20.8 0,9.7 -1.4,14.4 -8.5,20.25 l 0.45,0.8 c 7.95,-4.85 12.35,-11.95 12.35,-21.2 0,-8.5 -4.55,-16.85 -12.2,-21.45 z" />
            </g>
          </g>
          <g
             id="text22"
             style="font-size:50px;font-family:STIXGeneral, STIXSizeOneSym;fill:#000000"
             aria-label="=">
            <path
               id="path148"
               style="font-size:50px;font-family:STIXGeneral, STIXSizeOneSym;fill:#000000"
               d="m 273.31111,45.650002 v -3.3 h -29.45 v 3.3 z m 0,10 v -3.3 h -29.45 v 3.3 z" />
          </g>
          <g
             id="text24"
             style="font-size:50px;font-family:STIXGeneral, STIXSizeOneSym;fill:#000000"
             aria-label="1">
            <path
               id="path151"
               style="font-size:50px;font-family:STIXGeneral, STIXSizeOneSym;fill:#000000"
               d="m 406.16942,43.799999 v -0.75 c -3.75,0 -4.75,-0.9 -4.75,-3.05 v -29.85 l -0.45,-0.1499998 -8.95,4.5499998 v 0.7 l 1.35,-0.5 c 0.9,-0.35 1.75,-0.6 2.25,-0.6 1.05,0 1.5,0.75 1.5,2.45 v 22.45 c 0,2.75 -1.05,3.8 -4.75,4 v 0.75 z" />
          </g>
          <g
             id="g44"
             style="font-family:STIXGeneral, STIXSizeOneSym">
            <g
               id="text26"
               style="font-size:50px;font-family:STIXGeneral, STIXSizeOneSym;fill:#000000"
               aria-label="sin">
              <path
                 id="path154"
                 style="font-size:50px;font-family:STIXGeneral, STIXSizeOneSym;fill:#000000"
                 d="m 300.73332,76.024997 c -1.4,-0.85 -2.15,-2.3 -2.15,-3.4 0,-2.35 1.6,-3.4 3.75,-3.4 3,0 4.5,1.65 5.65,6.15 h 0.75 l -0.25,-6.8 h -0.55 c -0.4,0.45 -0.6,0.5 -0.8,0.5 -0.35,0 -0.85,-0.15 -1.4,-0.4 -1.05,-0.5 -2.15,-0.55 -3.35,-0.55 -4.1,0 -6.9,2.2 -6.9,6.15 0,2.55 1.85,4.95 6,7.25 l 2.7,1.5 c 1.65,0.9 2.65,2.2 2.65,3.75 0,2.05 -1.6,3.7 -4.15,3.7 -3.45,0 -5.3,-2.2 -6.35,-7.05 h -0.8 v 7.85 h 0.65 c 0.3,-0.5 0.6,-0.6 1.2,-0.6 0.55,0 1.1,0.05 2.3,0.45 1.15,0.4 2.6,0.45 3.65,0.45 3.8,0 7,-2.9 7,-6.25 0,-2.85 -1.2,-4.2 -4.4,-6.15 z" />
              <path
                 id="path156"
                 style="font-size:50px;font-family:STIXGeneral, STIXSizeOneSym;fill:#000000"
                 d="m 321.36691,59.474997 c 0,-1.4 -1.1,-2.55 -2.55,-2.55 -1.4,0 -2.55,1.15 -2.55,2.55 0,1.45 1.1,2.55 2.5,2.55 1.5,0 2.6,-1.1 2.6,-2.55 z m 3.65,31.6 v -0.75 c -3.3,-0.25 -3.7,-0.8 -3.7,-4.5 v -17.55 l -0.2,-0.2 -7.75,2.75 v 0.8 c 0.9,-0.25 1.65,-0.25 2.1,-0.25 1.25,0 1.65,0.8 1.65,3.15 v 11.35 c 0,3.8 -0.5,4.25 -3.95,4.45 v 0.75 z" />
              <path
                 id="path158"
                 style="font-size:50px;font-family:STIXGeneral, STIXSizeOneSym;fill:#000000"
                 d="m 350.4841,91.074997 v -0.75 c -2.45,-0.25 -3.05,-0.8 -3.05,-3.5 v -11.05 c 0,-4.95 -2.1,-7.7 -5.9,-7.7 -2.3,0 -4.6,1.1 -7.2,4.05 h -0.05 v -3.9 l -0.4,-0.15 c -2.45,0.9 -4.1,1.45 -6.85,2.25 v 0.85 c 0.35,-0.15 0.9,-0.2 1.45,-0.2 1.4,0 1.75,0.8 1.75,3.25 v 12.15 c 0,2.95 -0.55,3.75 -3.1,3.95 v 0.75 h 10.55 v -0.75 c -2.55,-0.2 -3.25,-0.9 -3.25,-2.85 v -13.8 c 2.3,-2.25 3.5,-2.85 5.15,-2.85 2.45,0 3.65,1.5 3.65,5.05 v 9.95 c 0,3.3 -0.6,4.3 -3.1,4.5 l -0.05,0.75 z" />
            </g>
            <g
               id="g42"
               style="font-family:STIXGeneral, STIXSizeOneSym">
              <g
                 id="text28"
                 style="font-size:50px;font-family:STIXGeneral, STIXSizeOneSym;fill:#000000"
                 aria-label="(">
                <path
                   id="path161"
                   style="font-size:50px;font-family:STIXGeneral, STIXSizeOneSym;fill:#000000"
                   d="m 366.48333,99.124997 c -7,-5.85 -8.5,-11.5 -8.5,-20.8 0,-9.65 1.55,-14.3 8.5,-20.25 l -0.45,-0.8 c -8,4.75 -12.35,11.95 -12.35,21.2 0,8.5 4.3,16.95 12.2,21.45 z" />
              </g>
              <g
                 id="g38"
                 style="font-family:STIXGeneral, STIXSizeOneSym">
                <g
                   id="g36"
                   style="font-family:STIXGeneral, STIXSizeOneSym">
                  <g
                     id="text30"
                     style="font-style:italic;font-size:50px;font-family:STIXGeneral, STIXSizeOneSym;fill:#000000"
                     aria-label="a">
                    <path
                       id="path164"
                       style="font-style:italic;font-size:50px;font-family:STIXGeneral, STIXSizeOneSym;fill:#000000"
                       d="m 391.08332,85.524997 -1.35,1.45 c -1.5,1.65 -2.15,2.05 -2.6,2.05 -0.4,0 -0.7,-0.3 -0.7,-0.65 0,-1 2.1,-9.6 4.45,-18.15 0.15,-0.5 0.2,-0.6 0.3,-1.05 l -0.35,-0.15 -3.05,0.35 -0.15,0.15 -0.55,2.4 c -0.4,-1.85 -1.85,-2.9 -4,-2.9 -6.65,0 -14.3,9.05 -14.3,16.8 0,3.8 2.2,5.8 5,5.8 3.5,0 6.4,-2.2 10.15,-7.85 -1.05,4.1 -1.15,4.5 -1.15,5.75 0,1.45 0.6,2.05 2,2.05 2,0 3.2,-0.95 6.95,-5.5 z m -4.9,-12.5 c 0,3.55 -1.5,7.85 -3.85,11.25 -1.5,2.15 -3.85,4.9 -6.35,4.9 -1.8,0 -3,-0.95 -3,-3.7 0,-3.15 1.75,-7.6 3.85,-10.75 2.1,-3.05 4.3,-4.6 6.55,-4.6 1.75,0 2.8,1.15 2.8,2.9 z" />
                  </g>
                  <g
                     id="text32"
                     style="font-size:50px;font-family:STIXGeneral, STIXSizeOneSym;fill:#000000"
                     aria-label="+">
                    <path
                       id="path167"
                       style="font-size:50px;font-family:STIXGeneral, STIXSizeOneSym;fill:#000000"
                       d="m 435.89442,80.074997 v -3.3 h -13.05 v -13.05 h -3.3 v 13.05 h -13.05 v 3.3 h 13.05 v 13.05 h 3.3 v -13.05 z" />
                  </g>
                  <g
                     id="text34"
                     style="font-style:italic;font-size:50px;font-family:STIXGeneral, STIXSizeOneSym;fill:#000000"
                     aria-label="bi">
                    <path
                       id="path170"
                       style="font-style:italic;font-size:50px;font-family:STIXGeneral, STIXSizeOneSym;fill:#000000"
                       d="m 457.60554,76.574997 4.2,-15.3 1.05,-4.1 -0.25,-0.25 c -2.5,0.45 -4.3,0.75 -7.65,1.15 v 0.85 c 2.95,0.1 3.2,0.15 3.2,1.25 0,0.45 -0.15,1.15 -0.45,2.35 l -7.1,26.15 v 0.3 c 0,1.5 3.65,2.65 6.5,2.65 7.75,0 16,-8.7 16,-16.6 0,-3.85 -2.45,-6 -5.8,-6 -3.5,0 -6.25,1.9 -9.65,7.55 z m 11.25,-0.8 c 0,3.7 -2.5,8.65 -5.5,11.75 -1.85,1.9 -4,2.95 -6.15,2.95 -1.55,0 -2.3,-0.55 -2.3,-1.7 0,-3 1.4,-7.85 3.6,-11.55 2.15,-3.65 4.45,-5.75 6.85,-5.75 2.2,0 3.5,1.25 3.5,4.3 z" />
                    <path
                       id="path172"
                       style="font-style:italic;font-size:50px;font-family:STIXGeneral, STIXSizeOneSym;fill:#000000"
                       d="m 487.65554,61.124997 c 0,-1.45 -1.15,-2.75 -2.5,-2.75 -1.35,0 -2.35,1.1 -2.35,2.65 0,1.6 0.95,2.65 2.4,2.65 1.3,0 2.45,-1.15 2.45,-2.55 z m -2.1,24.25 c -2.15,2.85 -3.35,3.9 -4.2,3.9 -0.4,0 -0.7,-0.25 -0.7,-0.75 0,-0.7 0.25,-1.35 0.5,-2.2 l 4.7,-17.15 -0.2,-0.15 c -5.05,0.95 -6.05,1.1 -8,1.25 v 0.8 c 2.7,0.05 3.2,0.2 3.2,1.2 0,0.4 -0.2,1.3 -0.45,2.2 l -2.4,8.85 c -0.75,2.8 -1.1,4.55 -1.1,5.55 0,1.85 0.8,2.75 2.45,2.75 2.5,0 4.1,-1.5 6.85,-5.7 z" />
                  </g>
                </g>
              </g>
              <g
                 id="text40"
                 style="font-size:50px;font-family:STIXGeneral, STIXSizeOneSym;fill:#000000"
                 aria-label=")">
                <path
                   id="path175"
                   style="font-size:50px;font-family:STIXGeneral, STIXSizeOneSym;fill:#000000"
                   d="m 489.80553,58.074997 c 7.25,5.7 8.5,11.45 8.5,20.8 0,9.7 -1.4,14.4 -8.5,20.25 l 0.45,0.8 c 7.95,-4.85 12.35,-11.95 12.35,-21.2 0,-8.5 -4.55,-16.85 -12.2,-21.45 z" />
              </g>
            </g>
          </g>
          <path
             id="line46"
             d="M 289.60001,48.799999 H 508.33887"
             style="fill:none;stroke:#000000;stroke-width:3.125" />
          <g
             id="text48"
             style="font-size:50px;font-family:STIXGeneral, STIXSizeOneSym;fill:#000000"
             aria-label="=">
            <path
               id="path179"
               style="font-size:50px;font-family:STIXGeneral, STIXSizeOneSym;fill:#000000"
               d="m 554.07778,45.650002 v -3.3 h -29.45 v 3.3 z m 0,10 v -3.3 h -29.45 v 3.3 z" />
          </g>
          <g
             id="text50"
             style="font-size:50px;font-family:STIXGeneral, STIXSizeOneSym;fill:#000000"
             aria-label="1">
            <path
               id="path182"
               style="font-size:50px;font-family:STIXGeneral, STIXSizeOneSym;fill:#000000"
               d="m 882.73607,43.799999 v -0.75 c -3.75,0 -4.75,-0.9 -4.75,-3.05 v -29.85 l -0.45,-0.1499998 -8.95,4.5499998 v 0.7 l 1.35,-0.5 c 0.9,-0.35 1.75,-0.6 2.25,-0.6 1.05,0 1.5,0.75 1.5,2.45 v 22.45 c 0,2.75 -1.05,3.8 -4.75,4 v 0.75 z" />
          </g>
          <g
             id="g106"
             style="font-family:STIXGeneral, STIXSizeOneSym">
            <g
               id="text52"
               style="font-size:50px;font-family:STIXGeneral, STIXSizeOneSym;fill:#000000"
               aria-label="sin">
              <path
                 id="path185"
                 style="font-size:50px;font-family:STIXGeneral, STIXSizeOneSym;fill:#000000"
                 d="m 581.50001,76.024997 c -1.4,-0.85 -2.15,-2.3 -2.15,-3.4 0,-2.35 1.6,-3.4 3.75,-3.4 3,0 4.5,1.65 5.65,6.15 h 0.75 l -0.25,-6.8 h -0.55 c -0.4,0.45 -0.6,0.5 -0.8,0.5 -0.35,0 -0.85,-0.15 -1.4,-0.4 -1.05,-0.5 -2.15,-0.55 -3.35,-0.55 -4.1,0 -6.9,2.2 -6.9,6.15 0,2.55 1.85,4.95 6,7.25 l 2.7,1.5 c 1.65,0.9 2.65,2.2 2.65,3.75 0,2.05 -1.6,3.7 -4.15,3.7 -3.45,0 -5.3,-2.2 -6.35,-7.05 h -0.8 v 7.85 h 0.65 c 0.3,-0.5 0.6,-0.6 1.2,-0.6 0.55,0 1.1,0.05 2.3,0.45 1.15,0.4 2.6,0.45 3.65,0.45 3.8,0 7,-2.9 7,-6.25 0,-2.85 -1.2,-4.2 -4.4,-6.15 z" />
              <path
                 id="path187"
                 style="font-size:50px;font-family:STIXGeneral, STIXSizeOneSym;fill:#000000"
                 d="m 602.13361,59.474997 c 0,-1.4 -1.1,-2.55 -2.55,-2.55 -1.4,0 -2.55,1.15 -2.55,2.55 0,1.45 1.1,2.55 2.5,2.55 1.5,0 2.6,-1.1 2.6,-2.55 z m 3.65,31.6 v -0.75 c -3.3,-0.25 -3.7,-0.8 -3.7,-4.5 v -17.55 l -0.2,-0.2 -7.75,2.75 v 0.8 c 0.9,-0.25 1.65,-0.25 2.1,-0.25 1.25,0 1.65,0.8 1.65,3.15 v 11.35 c 0,3.8 -0.5,4.25 -3.95,4.45 v 0.75 z" />
              <path
                 id="path189"
                 style="font-size:50px;font-family:STIXGeneral, STIXSizeOneSym;fill:#000000"
                 d="m 631.25079,91.074997 v -0.75 c -2.45,-0.25 -3.05,-0.8 -3.05,-3.5 v -11.05 c 0,-4.95 -2.1,-7.7 -5.9,-7.7 -2.3,0 -4.6,1.1 -7.2,4.05 h -0.05 v -3.9 l -0.4,-0.15 c -2.45,0.9 -4.1,1.45 -6.85,2.25 v 0.85 c 0.35,-0.15 0.9,-0.2 1.45,-0.2 1.4,0 1.75,0.8 1.75,3.25 v 12.15 c 0,2.95 -0.55,3.75 -3.1,3.95 v 0.75 h 10.55 v -0.75 c -2.55,-0.2 -3.25,-0.9 -3.25,-2.85 v -13.8 c 2.3,-2.25 3.5,-2.85 5.15,-2.85 2.45,0 3.65,1.5 3.65,5.05 v 9.95 c 0,3.3 -0.6,4.3 -3.1,4.5 l -0.05,0.75 z" />
            </g>
            <g
               id="g62"
               style="font-family:STIXGeneral, STIXSizeOneSym">
              <g
                 id="text54"
                 style="font-size:50px;font-family:STIXGeneral, STIXSizeOneSym;fill:#000000"
                 aria-label="(">
                <path
                   id="path192"
                   style="font-size:50px;font-family:STIXGeneral, STIXSizeOneSym;fill:#000000"
                   d="m 647.24999,99.124997 c -7,-5.85 -8.5,-11.5 -8.5,-20.8 0,-9.65 1.55,-14.3 8.5,-20.25 l -0.45,-0.8 c -8,4.75 -12.35,11.95 -12.35,21.2 0,8.5 4.3,16.95 12.2,21.45 z" />
              </g>
              <g
                 id="g58"
                 style="font-family:STIXGeneral, STIXSizeOneSym">
                <g
                   id="text56"
                   style="font-style:italic;font-size:50px;font-family:STIXGeneral, STIXSizeOneSym;fill:#000000"
                   aria-label="a">
                  <path
                     id="path195"
                     style="font-style:italic;font-size:50px;font-family:STIXGeneral, STIXSizeOneSym;fill:#000000"
                     d="m 671.85001,85.524997 -1.35,1.45 c -1.5,1.65 -2.15,2.05 -2.6,2.05 -0.4,0 -0.7,-0.3 -0.7,-0.65 0,-1 2.1,-9.6 4.45,-18.15 0.15,-0.5 0.2,-0.6 0.3,-1.05 l -0.35,-0.15 -3.05,0.35 -0.15,0.15 -0.55,2.4 c -0.4,-1.85 -1.85,-2.9 -4,-2.9 -6.65,0 -14.3,9.05 -14.3,16.8 0,3.8 2.2,5.8 5,5.8 3.5,0 6.4,-2.2 10.15,-7.85 -1.05,4.1 -1.15,4.5 -1.15,5.75 0,1.45 0.6,2.05 2,2.05 2,0 3.2,-0.95 6.95,-5.5 z m -4.9,-12.5 c 0,3.55 -1.5,7.85 -3.85,11.25 -1.5,2.15 -3.85,4.9 -6.35,4.9 -1.8,0 -3,-0.95 -3,-3.7 0,-3.15 1.75,-7.6 3.85,-10.75 2.1,-3.05 4.3,-4.6 6.55,-4.6 1.75,0 2.8,1.15 2.8,2.9 z" />
                </g>
              </g>
              <g
                 id="text60"
                 style="font-size:50px;font-family:STIXGeneral, STIXSizeOneSym;fill:#000000"
                 aria-label=")">
                <path
                   id="path198"
                   style="font-size:50px;font-family:STIXGeneral, STIXSizeOneSym;fill:#000000"
                   d="m 675.2,58.074997 c 7.25,5.7 8.5,11.45 8.5,20.8 0,9.7 -1.4,14.4 -8.5,20.25 l 0.45,0.8 c 7.95,-4.85 12.35,-11.95 12.35,-21.2 0,-8.5 -4.55,-16.85 -12.2,-21.45 z" />
              </g>
            </g>
            <g
               id="text64"
               style="font-size:50px;font-family:STIXGeneral, STIXSizeOneSym;fill:#000000"
               aria-label="cosh">
              <path
                 id="path201"
                 style="font-size:50px;font-family:STIXGeneral, STIXSizeOneSym;fill:#000000"
                 d="m 710.30002,83.274997 c -2.4,3.5 -4.2,4.7 -7.05,4.7 -4.6,0 -7.75,-4 -7.75,-9.75 0,-5.2 2.75,-8.7 6.8,-8.7 1.8,0 2.45,0.55 2.95,2.4 l 0.3,1.1 c 0.4,1.45 1.3,2.3 2.4,2.3 1.3,0 2.35,-0.95 2.35,-2.1 0,-2.8 -3.5,-5.15 -7.7,-5.15 -2.35,0 -4.75,0.9 -6.75,2.55 -2.7,2.25 -4.2,5.7 -4.2,9.85 0,6.45 3.95,11.1 9.5,11.1 2.15,0 4.05,-0.7 5.75,-2.1 1.5,-1.2 2.5,-2.65 4.1,-5.75 z" />
              <path
                 id="path203"
                 style="font-size:50px;font-family:STIXGeneral, STIXSizeOneSym;fill:#000000"
                 d="m 736.06799,79.524997 c 0,-6.9 -4.7,-11.45 -10.8,-11.45 -6.75,0 -11.25,4.65 -11.25,11.6 0,6.95 4.75,11.9 10.8,11.9 6.75,0 11.25,-5.1 11.25,-12.05 z m -4.5,1.35 c 0,5.8 -2.2,9.3 -5.9,9.3 -1.8,0 -3.4,-0.9 -4.5,-2.5 -1.85,-2.7 -2.65,-6.3 -2.65,-10.25 0,-5 2.35,-7.95 5.8,-7.95 2.15,0 3.55,1 4.75,2.5 1.6,2.05 2.5,5.5 2.5,8.9 z" />
              <path
                 id="path205"
                 style="font-size:50px;font-family:STIXGeneral, STIXSizeOneSym;fill:#000000"
                 d="m 745.36799,76.024997 c -1.4,-0.85 -2.15,-2.3 -2.15,-3.4 0,-2.35 1.6,-3.4 3.75,-3.4 3,0 4.5,1.65 5.65,6.15 h 0.75 l -0.25,-6.8 h -0.55 c -0.4,0.45 -0.6,0.5 -0.8,0.5 -0.35,0 -0.85,-0.15 -1.4,-0.4 -1.05,-0.5 -2.15,-0.55 -3.35,-0.55 -4.1,0 -6.9,2.2 -6.9,6.15 0,2.55 1.85,4.95 6,7.25 l 2.7,1.5 c 1.65,0.9 2.65,2.2 2.65,3.75 0,2.05 -1.6,3.7 -4.15,3.7 -3.45,0 -5.3,-2.2 -6.35,-7.05 h -0.8 v 7.85 h 0.65 c 0.3,-0.5 0.6,-0.6 1.2,-0.6 0.55,0 1.1,0.05 2.3,0.45 1.15,0.4 2.6,0.45 3.65,0.45 3.8,0 7,-2.9 7,-6.25 0,-2.85 -1.2,-4.2 -4.4,-6.15 z" />
              <path
                 id="path207"
                 style="font-size:50px;font-family:STIXGeneral, STIXSizeOneSym;fill:#000000"
                 d="m 781.35159,91.074997 v -0.75 c -2.7,-0.5 -3,-0.9 -3,-4.35 v -9.95 c 0,-5.25 -2.05,-7.95 -6.15,-7.95 -2.95,0 -5.05,1.2 -7.35,4.2 v -15.2 l -0.25,-0.15 c -1.75,0.6 -2.9,0.95 -5.75,1.8 l -1.35,0.4 v 0.8 c 0.15,-0.05 0.4,-0.05 0.6,-0.05 2.15,0 2.55,0.4 2.55,2.55 v 23.55 c 0,3.5 -0.3,3.95 -3.2,4.35 v 0.75 h 10.8 v -0.75 c -2.9,-0.3 -3.4,-0.9 -3.4,-4.35 v -12.05 c 2.1,-2.3 3.6,-3.15 5.6,-3.15 2.45,0 3.7,1.8 3.7,5.3 v 9.9 c 0,3.45 -0.5,4.05 -3.4,4.35 v 0.75 z" />
            </g>
            <g
               id="g80"
               style="font-family:STIXGeneral, STIXSizeOneSym">
              <g
                 id="g74"
                 style="font-family:STIXGeneral, STIXSizeOneSym">
                <g
                   id="text66"
                   style="font-size:50px;font-family:STIXGeneral, STIXSizeOneSym;fill:#000000"
                   aria-label="(">
                  <path
                     id="path210"
                     style="font-size:50px;font-family:STIXGeneral, STIXSizeOneSym;fill:#000000"
                     d="m 797.24999,99.124997 c -7,-5.85 -8.5,-11.5 -8.5,-20.8 0,-9.65 1.55,-14.3 8.5,-20.25 l -0.45,-0.8 c -8,4.75 -12.35,11.95 -12.35,21.2 0,8.5 4.3,16.95 12.2,21.45 z" />
                </g>
                <g
                   id="g70"
                   style="font-family:STIXGeneral, STIXSizeOneSym">
                  <g
                     id="text68"
                     style="font-style:italic;font-size:50px;font-family:STIXGeneral, STIXSizeOneSym;fill:#000000"
                     aria-label="b">
                    <path
                       id="path213"
                       style="font-style:italic;font-size:50px;font-family:STIXGeneral, STIXSizeOneSym;fill:#000000"
                       d="m 806.85001,76.574997 4.2,-15.3 1.05,-4.1 -0.25,-0.25 c -2.5,0.45 -4.3,0.75 -7.65,1.15 v 0.85 c 2.95,0.1 3.2,0.15 3.2,1.25 0,0.45 -0.15,1.15 -0.45,2.35 l -7.1,26.15 v 0.3 c 0,1.5 3.65,2.65 6.5,2.65 7.75,0 16,-8.7 16,-16.6 0,-3.85 -2.45,-6 -5.8,-6 -3.5,0 -6.25,1.9 -9.65,7.55 z m 11.25,-0.8 c 0,3.7 -2.5,8.65 -5.5,11.75 -1.85,1.9 -4,2.95 -6.15,2.95 -1.55,0 -2.3,-0.55 -2.3,-1.7 0,-3 1.4,-7.85 3.6,-11.55 2.15,-3.65 4.45,-5.75 6.85,-5.75 2.2,0 3.5,1.25 3.5,4.3 z" />
                  </g>
                </g>
                <g
                   id="text72"
                   style="font-size:50px;font-family:STIXGeneral, STIXSizeOneSym;fill:#000000"
                   aria-label=")">
                  <path
                     id="path216"
                     style="font-size:50px;font-family:STIXGeneral, STIXSizeOneSym;fill:#000000"
                     d="m 825.15001,58.074997 c 7.25,5.7 8.5,11.45 8.5,20.8 0,9.7 -1.4,14.4 -8.5,20.25 l 0.45,0.8 c 7.95,-4.85 12.35,-11.95 12.35,-21.2 0,-8.5 -4.55,-16.85 -12.2,-21.45 z" />
                </g>
              </g>
              <g
                 id="text76"
                 style="font-size:50px;font-family:STIXGeneral, STIXSizeOneSym;fill:#000000"
                 aria-label="+">
                <path
                   id="path219"
                   style="font-size:50px;font-family:STIXGeneral, STIXSizeOneSym;fill:#000000"
                   d="m 883.26112,80.074997 v -3.3 h -13.05 v -13.05 h -3.3 v 13.05 h -13.05 v 3.3 h 13.05 v 13.05 h 3.3 v -13.05 z" />
              </g>
              <g
                 id="text78"
                 style="font-size:50px;font-family:STIXGeneral, STIXSizeOneSym;fill:#000000"
                 aria-label="cos">
                <path
                   id="path222"
                   style="font-size:50px;font-family:STIXGeneral, STIXSizeOneSym;fill:#000000"
                   d="m 916.7222,83.274997 c -2.4,3.5 -4.2,4.7 -7.05,4.7 -4.6,0 -7.75,-4 -7.75,-9.75 0,-5.2 2.75,-8.7 6.8,-8.7 1.8,0 2.45,0.55 2.95,2.4 l 0.3,1.1 c 0.4,1.45 1.3,2.3 2.4,2.3 1.3,0 2.35,-0.95 2.35,-2.1 0,-2.8 -3.5,-5.15 -7.7,-5.15 -2.35,0 -4.75,0.9 -6.75,2.55 -2.7,2.25 -4.2,5.7 -4.2,9.85 0,6.45 3.95,11.1 9.5,11.1 2.15,0 4.05,-0.7 5.75,-2.1 1.5,-1.2 2.5,-2.65 4.1,-5.75 z" />
                <path
                   id="path224"
                   style="font-size:50px;font-family:STIXGeneral, STIXSizeOneSym;fill:#000000"
                   d="m 942.49017,79.524997 c 0,-6.9 -4.7,-11.45 -10.8,-11.45 -6.75,0 -11.25,4.65 -11.25,11.6 0,6.95 4.75,11.9 10.8,11.9 6.75,0 11.25,-5.1 11.25,-12.05 z m -4.5,1.35 c 0,5.8 -2.2,9.3 -5.9,9.3 -1.8,0 -3.4,-0.9 -4.5,-2.5 -1.85,-2.7 -2.65,-6.3 -2.65,-10.25 0,-5 2.35,-7.95 5.8,-7.95 2.15,0 3.55,1 4.75,2.5 1.6,2.05 2.5,5.5 2.5,8.9 z" />
                <path
                   id="path226"
                   style="font-size:50px;font-family:STIXGeneral, STIXSizeOneSym;fill:#000000"
                   d="m 951.79017,76.024997 c -1.4,-0.85 -2.15,-2.3 -2.15,-3.4 0,-2.35 1.6,-3.4 3.75,-3.4 3,0 4.5,1.65 5.65,6.15 h 0.75 l -0.25,-6.8 h -0.55 c -0.4,0.45 -0.6,0.5 -0.8,0.5 -0.35,0 -0.85,-0.15 -1.4,-0.4 -1.05,-0.5 -2.15,-0.55 -3.35,-0.55 -4.1,0 -6.9,2.2 -6.9,6.15 0,2.55 1.85,4.95 6,7.25 l 2.7,1.5 c 1.65,0.9 2.65,2.2 2.65,3.75 0,2.05 -1.6,3.7 -4.15,3.7 -3.45,0 -5.3,-2.2 -6.35,-7.05 h -0.8 v 7.85 h 0.65 c 0.3,-0.5 0.6,-0.6 1.2,-0.6 0.55,0 1.1,0.05 2.3,0.45 1.15,0.4 2.6,0.45 3.65,0.45 3.8,0 7,-2.9 7,-6.25 0,-2.85 -1.2,-4.2 -4.4,-6.15 z" />
              </g>
            </g>
            <g
               id="g90"
               style="font-family:STIXGeneral, STIXSizeOneSym">
              <g
                 id="text82"
                 style="font-size:50px;font-family:STIXGeneral, STIXSizeOneSym;fill:#000000"
                 aria-label="(">
                <path
                   id="path229"
                   style="font-size:50px;font-family:STIXGeneral, STIXSizeOneSym;fill:#000000"
                   d="m 978.67223,99.124997 c -7,-5.85 -8.5,-11.5 -8.5,-20.8 0,-9.65 1.55,-14.3 8.5,-20.25 l -0.45,-0.8 c -8,4.75 -12.35,11.95 -12.35,21.2 0,8.5 4.3,16.95 12.2,21.45 z" />
              </g>
              <g
                 id="g86"
                 style="font-family:STIXGeneral, STIXSizeOneSym">
                <g
                   id="text84"
                   style="font-style:italic;font-size:50px;font-family:STIXGeneral, STIXSizeOneSym;fill:#000000"
                   aria-label="a">
                  <path
                     id="path232"
                     style="font-style:italic;font-size:50px;font-family:STIXGeneral, STIXSizeOneSym;fill:#000000"
                     d="m 1003.2722,85.524997 -1.35,1.45 c -1.5,1.65 -2.15001,2.05 -2.60001,2.05 -0.4,0 -0.7,-0.3 -0.7,-0.65 0,-1 2.10001,-9.6 4.45001,-18.15 0.15,-0.5 0.2,-0.6 0.3,-1.05 l -0.35,-0.15 -3.05001,0.35 -0.15,0.15 -0.55,2.4 c -0.4,-1.85 -1.85,-2.9 -4,-2.9 -6.65,0 -14.3,9.05 -14.3,16.8 0,3.8 2.2,5.8 5,5.8 3.5,0 6.4,-2.2 10.15,-7.85 -1.05,4.1 -1.15,4.5 -1.15,5.75 0,1.45 0.6,2.05 2,2.05 2,0 3.20001,-0.95 6.95001,-5.5 z m -4.90001,-12.5 c 0,3.55 -1.5,7.85 -3.85,11.25 -1.5,2.15 -3.85,4.9 -6.35,4.9 -1.8,0 -3,-0.95 -3,-3.7 0,-3.15 1.75,-7.6 3.85,-10.75 2.1,-3.05 4.3,-4.6 6.55,-4.6 1.75,0 2.8,1.15 2.8,2.9 z" />
                </g>
              </g>
              <g
                 id="text88"
                 style="font-size:50px;font-family:STIXGeneral, STIXSizeOneSym;fill:#000000"
                 aria-label=")">
                <path
                   id="path235"
                   style="font-size:50px;font-family:STIXGeneral, STIXSizeOneSym;fill:#000000"
                   d="m 1006.6222,58.074997 c 7.25,5.7 8.5,11.45 8.5,20.8 0,9.7 -1.4,14.4 -8.5,20.25 l 0.45,0.8 c 7.95,-4.85 12.35,-11.95 12.35,-21.2 0,-8.5 -4.55,-16.85 -12.2,-21.45 z" />
              </g>
            </g>
            <g
               id="text92"
               style="font-size:50px;font-family:STIXGeneral, STIXSizeOneSym;fill:#000000"
               aria-label="sinh">
              <path
                 id="path238"
                 style="font-size:50px;font-family:STIXGeneral, STIXSizeOneSym;fill:#000000"
                 d="m 1029.6222,76.024997 c -1.4,-0.85 -2.15,-2.3 -2.15,-3.4 0,-2.35 1.6,-3.4 3.75,-3.4 3,0 4.5,1.65 5.65,6.15 h 0.75 l -0.25,-6.8 h -0.55 c -0.4,0.45 -0.6,0.5 -0.8,0.5 -0.35,0 -0.85,-0.15 -1.4,-0.4 -1.05,-0.5 -2.15,-0.55 -3.35,-0.55 -4.1,0 -6.9,2.2 -6.9,6.15 0,2.55 1.85,4.95 6,7.25 l 2.7,1.5 c 1.65,0.9 2.65,2.2 2.65,3.75 0,2.05 -1.6,3.7 -4.15,3.7 -3.45,0 -5.3,-2.2 -6.35,-7.05 h -0.8 v 7.85 h 0.65 c 0.3,-0.5 0.6,-0.6 1.2,-0.6 0.55,0 1.1,0.05 2.3,0.45 1.15,0.4 2.6,0.45 3.65,0.45 3.8,0 7,-2.9 7,-6.25 0,-2.85 -1.2,-4.2 -4.4,-6.15 z" />
              <path
                 id="path240"
                 style="font-size:50px;font-family:STIXGeneral, STIXSizeOneSym;fill:#000000"
                 d="m 1050.2558,59.474997 c 0,-1.4 -1.1,-2.55 -2.55,-2.55 -1.4,0 -2.55,1.15 -2.55,2.55 0,1.45 1.1,2.55 2.5,2.55 1.5,0 2.6,-1.1 2.6,-2.55 z m 3.65,31.6 v -0.75 c -3.3,-0.25 -3.7,-0.8 -3.7,-4.5 v -17.55 l -0.2,-0.2 -7.75,2.75 v 0.8 c 0.9,-0.25 1.65,-0.25 2.1,-0.25 1.25,0 1.65,0.8 1.65,3.15 v 11.35 c 0,3.8 -0.5,4.25 -3.95,4.45 v 0.75 z" />
              <path
                 id="path242"
                 style="font-size:50px;font-family:STIXGeneral, STIXSizeOneSym;fill:#000000"
                 d="m 1079.373,91.074997 v -0.75 c -2.45,-0.25 -3.05,-0.8 -3.05,-3.5 v -11.05 c 0,-4.95 -2.1,-7.7 -5.9,-7.7 -2.3,0 -4.6,1.1 -7.2,4.05 h -0.05 v -3.9 l -0.4,-0.15 c -2.45,0.9 -4.1,1.45 -6.85,2.25 v 0.85 c 0.35,-0.15 0.9,-0.2 1.45,-0.2 1.4,0 1.75,0.8 1.75,3.25 v 12.15 c 0,2.95 -0.55,3.75 -3.1,3.95 v 0.75 h 10.55 v -0.75 c -2.55,-0.2 -3.25,-0.9 -3.25,-2.85 v -13.8 c 2.3,-2.25 3.5,-2.85 5.15,-2.85 2.45,0 3.65,1.5 3.65,5.05 v 9.95 c 0,3.3 -0.6,4.3 -3.1,4.5 l -0.05,0.75 z" />
              <path
                 id="path244"
                 style="font-size:50px;font-family:STIXGeneral, STIXSizeOneSym;fill:#000000"
                 d="m 1104.473,91.074997 v -0.75 c -2.7,-0.5 -3,-0.9 -3,-4.35 v -9.95 c 0,-5.25 -2.05,-7.95 -6.15,-7.95 -2.95,0 -5.05,1.2 -7.35,4.2 v -15.2 l -0.25,-0.15 c -1.75,0.6 -2.9,0.95 -5.75,1.8 l -1.35,0.4 v 0.8 c 0.15,-0.05 0.4,-0.05 0.6,-0.05 2.15,0 2.55,0.4 2.55,2.55 v 23.55 c 0,3.5 -0.3,3.95 -3.2,4.35 v 0.75 h 10.8 v -0.75 c -2.9,-0.3 -3.4,-0.9 -3.4,-4.35 v -12.05 c 2.1,-2.3 3.6,-3.15 5.6,-3.15 2.45,0 3.7,1.8 3.7,5.3 v 9.9 c 0,3.45 -0.5,4.05 -3.4,4.35 v 0.75 z" />
            </g>
            <g
               id="g102"
               style="font-family:STIXGeneral, STIXSizeOneSym">
              <g
                 id="text94"
                 style="font-size:50px;font-family:STIXGeneral, STIXSizeOneSym;fill:#000000"
                 aria-label="(">
                <path
                   id="path247"
                   style="font-size:50px;font-family:STIXGeneral, STIXSizeOneSym;fill:#000000"
                   d="m 1120.3722,99.124997 c -7,-5.85 -8.5,-11.5 -8.5,-20.8 0,-9.65 1.55,-14.3 8.5,-20.25 l -0.45,-0.8 c -8,4.75 -12.35,11.95 -12.35,21.2 0,8.5 4.3,16.95 12.2,21.45 z" />
              </g>
              <g
                 id="g98"
                 style="font-family:STIXGeneral, STIXSizeOneSym">
                <g
                   id="text96"
                   style="font-style:italic;font-size:50px;font-family:STIXGeneral, STIXSizeOneSym;fill:#000000"
                   aria-label="b">
                  <path
                     id="path250"
                     style="font-style:italic;font-size:50px;font-family:STIXGeneral, STIXSizeOneSym;fill:#000000"
                     d="m 1129.9721,76.574997 4.2,-15.3 1.05,-4.1 -0.25,-0.25 c -2.5,0.45 -4.3,0.75 -7.65,1.15 v 0.85 c 2.95,0.1 3.2,0.15 3.2,1.25 0,0.45 -0.15,1.15 -0.45,2.35 l -7.1,26.15 v 0.3 c 0,1.5 3.65,2.65 6.5,2.65 7.75,0 16,-8.7 16,-16.6 0,-3.85 -2.45,-6 -5.8,-6 -3.5,0 -6.25,1.9 -9.65,7.55 z m 11.25,-0.8 c 0,3.7 -2.5,8.65 -5.5,11.75 -1.85,1.9 -4,2.95 -6.15,2.95 -1.55,0 -2.3,-0.55 -2.3,-1.7 0,-3 1.4,-7.85 3.6,-11.55 2.15,-3.65 4.45,-5.75 6.85,-5.75 2.2,0 3.5,1.25 3.5,4.3 z" />
                </g>
              </g>
              <g
                 id="text100"
                 style="font-size:50px;font-family:STIXGeneral, STIXSizeOneSym;fill:#000000"
                 aria-label=")">
                <path
                   id="path253"
                   style="font-size:50px;font-family:STIXGeneral, STIXSizeOneSym;fill:#000000"
                   d="m 1148.2721,58.074997 c 7.25,5.7 8.5,11.45 8.5,20.8 0,9.7 -1.4,14.4 -8.5,20.25 l 0.45,0.8 c 7.95,-4.85 12.35,-11.95 12.35,-21.2 0,-8.5 -4.55,-16.85 -12.2,-21.45 z" />
              </g>
            </g>
            <g
               id="text104"
               style="font-style:italic;font-size:50px;font-family:STIXGeneral, STIXSizeOneSym;fill:#000000"
               aria-label="i">
              <path
                 id="path256"
                 style="font-style:italic;font-size:50px;font-family:STIXGeneral, STIXSizeOneSym;fill:#000000"
                 d="m 1176.6722,61.124997 c 0,-1.45 -1.15,-2.75 -2.5,-2.75 -1.35,0 -2.35,1.1 -2.35,2.65 0,1.6 0.95,2.65 2.4,2.65 1.3,0 2.45,-1.15 2.45,-2.55 z m -2.1,24.25 c -2.15,2.85 -3.35,3.9 -4.2,3.9 -0.4,0 -0.7,-0.25 -0.7,-0.75 0,-0.7 0.25,-1.35 0.5,-2.2 l 4.7,-17.15 -0.2,-0.15 c -5.05,0.95 -6.05,1.1 -8,1.25 v 0.8 c 2.7,0.05 3.2,0.2 3.2,1.2 0,0.4 -0.2,1.3 -0.45,2.2 l -2.4,8.85 c -0.75,2.8 -1.1,4.55 -1.1,5.55 0,1.85 0.8,2.75 2.45,2.75 2.5,0 4.1,-1.5 6.85,-5.7 z" />
            </g>
          </g>
          <path
             id="line108"
             d="M 570.36664,48.799999 H 1180.7056"
             style="fill:none;stroke:#000000;stroke-width:3.125" />
        </g>
      </g>
    </g>
  </g>
</svg>
