<svg class="railroad-diagram" height="259" viewBox="0 0 705.0 259" width="705.0" xmlns="http://www.w3.org/2000/svg">
<g transform="translate(.5 .5)">
<style>/* <![CDATA[ */
    svg.railroad-diagram {
        background-color:transparent;
    }
    svg.railroad-diagram path {
        stroke-width:1;
        stroke:black;
        fill:rgba(0,0,0,0);
    }
    svg.railroad-diagram text {
        font:bold 14px monospace;
        font-family: Verdana, sans-serif;
        text-anchor:middle;
    }
    svg.railroad-diagram text.label{
        text-anchor:start;
    }
    svg.railroad-diagram text.comment{
        font:italic 12px monospace;
    }
    svg.railroad-diagram rect{
        stroke-width:1;
        stroke:black;
        fill:transparent;
    }

/* ]]> */
</style><g>
<path d="M20 41v20m10 -20v20m-10 -10h20"></path></g><g>
<path d="M40 51h0.0"></path><path d="M179.5 51h0.0"></path><path d="M40.0 51h30"></path><g class="terminal">
<path d="M70.0 51h17.0"></path><path d="M132.5 51h17.0"></path><rect height="22" rx="10" ry="10" width="45.5" x="87.0" y="40"></rect><text x="109.75" y="55">Dim</text></g><path d="M149.5 51h30"></path><path d="M40.0 51a15 15 0 0 1 15 15v12a15 15 0 0 0 15 15"></path><g class="terminal">
<path d="M70.0 93h4.25"></path><path d="M145.25 93h4.25"></path><rect height="22" rx="10" ry="10" width="71.0" x="74.25" y="82"></rect><text x="109.75" y="97">Global</text></g><path d="M149.5 93a15 15 0 0 0 15 -15v-12a15 15 0 0 1 15 -15"></path><path d="M40.0 51a15 15 0 0 1 15 15v54a15 15 0 0 0 15 15"></path><g class="terminal">
<path d="M70.0 135h0.0"></path><path d="M149.5 135h0.0"></path><rect height="22" rx="10" ry="10" width="79.5" x="70.0" y="124"></rect><text x="109.75" y="139">Private</text></g><path d="M149.5 135a15 15 0 0 0 15 -15v-54a15 15 0 0 1 15 -15"></path><path d="M40.0 51a15 15 0 0 1 15 15v96a15 15 0 0 0 15 15"></path><g class="terminal">
<path d="M70.0 177h4.25"></path><path d="M145.25 177h4.25"></path><rect height="22" rx="10" ry="10" width="71.0" x="74.25" y="166"></rect><text x="109.75" y="181">Public</text></g><path d="M149.5 177a15 15 0 0 0 15 -15v-96a15 15 0 0 1 15 -15"></path><path d="M40.0 51a15 15 0 0 1 15 15v138a15 15 0 0 0 15 15"></path><g class="terminal">
<path d="M70.0 219h4.25"></path><path d="M145.25 219h4.25"></path><rect height="22" rx="10" ry="10" width="71.0" x="74.25" y="208"></rect><text x="109.75" y="223">Static</text></g><path d="M149.5 219a15 15 0 0 0 15 -15v-138a15 15 0 0 1 15 -15"></path></g><path d="M179.5 51h10"></path><g>
<path d="M189.5 51h0.0"></path><path d="M655.0 51h0.0"></path><path d="M189.5 51h15"></path><g>
<path d="M204.5 51h0.0"></path><path d="M640.0 51h0.0"></path><g class="terminal">
<path d="M204.5 51h0.0"></path><path d="M292.5 51h0.0"></path><rect height="22" rx="10" ry="10" width="88.0" x="204.5" y="40"></rect><text x="248.5" y="55">variable</text></g><path d="M292.5 51h10"></path><g>
<path d="M302.5 51h0.0"></path><path d="M640.0 51h0.0"></path><path d="M302.5 51h30"></path><g>
<path d="M332.5 51h0.0"></path><path d="M610.0 51h0.0"></path><g>
<path d="M332.5 51h0.0"></path><path d="M455.0 51h0.0"></path><path d="M332.5 51a15 15 0 0 0 15 -15v-1a15 15 0 0 1 15 -15"></path><g>
<path d="M362.5 20h62.5"></path></g><path d="M425.0 20a15 15 0 0 1 15 15v1a15 15 0 0 0 15 15"></path><path d="M332.5 51h30"></path><g class="non-terminal">
<path d="M362.5 51h0.0"></path><path d="M425.0 51h0.0"></path><rect height="22" width="62.5" x="362.5" y="40"></rect><text x="393.75" y="55">array</text></g><path d="M425.0 51h30"></path></g><path d="M455.0 51h10"></path><g>
<path d="M465.0 51h0.0"></path><path d="M610.0 51h0.0"></path><g class="terminal">
<path d="M465.0 51h0.0"></path><path d="M502.0 51h0.0"></path><rect height="22" rx="10" ry="10" width="37.0" x="465.0" y="40"></rect><text x="483.5" y="55">As</text></g><path d="M502.0 51h10"></path><path d="M512.0 51h10"></path><g class="non-terminal">
<path d="M522.0 51h0.0"></path><path d="M610.0 51h0.0"></path><rect height="22" width="88.0" x="522.0" y="40"></rect><text x="566.0" y="55">typename</text></g></g></g><path d="M610.0 51h30"></path><path d="M302.5 51a15 15 0 0 1 15 15v12a15 15 0 0 0 15 15"></path><g>
<path d="M332.5 93h22.0"></path><path d="M588.0 93h22.0"></path><g class="terminal">
<path d="M354.5 93h0.0"></path><path d="M391.5 93h0.0"></path><rect height="22" rx="10" ry="10" width="37.0" x="354.5" y="82"></rect><text x="373.0" y="97">As</text></g><path d="M391.5 93h10"></path><g>
<path d="M401.5 93h0.0"></path><path d="M507.0 93h0.0"></path><path d="M401.5 93h30"></path><g>
<path d="M431.5 93h45.5"></path></g><path d="M477.0 93h30"></path><path d="M401.5 93a15 15 0 0 1 15 15v1a15 15 0 0 0 15 15"></path><g class="terminal">
<path d="M431.5 124h0.0"></path><path d="M477.0 124h0.0"></path><rect height="22" rx="10" ry="10" width="45.5" x="431.5" y="113"></rect><text x="454.25" y="128">New</text></g><path d="M477.0 124a15 15 0 0 0 15 -15v-1a15 15 0 0 1 15 -15"></path></g><path d="M507.0 93h10"></path><g class="terminal">
<path d="M517.0 93h0.0"></path><path d="M588.0 93h0.0"></path><rect height="22" rx="10" ry="10" width="71.0" x="517.0" y="82"></rect><text x="552.5" y="97">object</text></g></g><path d="M610.0 93a15 15 0 0 0 15 -15v-12a15 15 0 0 1 15 -15"></path><path d="M302.5 51a15 15 0 0 1 15 15v105a15 15 0 0 0 15 15"></path><g>
<path d="M332.5 186h45.5"></path><path d="M564.5 186h45.5"></path><g class="non-terminal">
<path d="M378.0 186h0.0"></path><path d="M432.0 186h0.0"></path><rect height="22" width="54.0" x="378.0" y="175"></rect><text x="405.0" y="190">char</text></g><path d="M432.0 186h10"></path><g>
<path d="M442.0 186h0.0"></path><path d="M564.5 186h0.0"></path><path d="M442.0 186a15 15 0 0 0 15 -15v-1a15 15 0 0 1 15 -15"></path><g>
<path d="M472.0 155h62.5"></path></g><path d="M534.5 155a15 15 0 0 1 15 15v1a15 15 0 0 0 15 15"></path><path d="M442.0 186h30"></path><g class="non-terminal">
<path d="M472.0 186h0.0"></path><path d="M534.5 186h0.0"></path><rect height="22" width="62.5" x="472.0" y="175"></rect><text x="503.25" y="190">array</text></g><path d="M534.5 186h30"></path></g></g><path d="M610.0 186a15 15 0 0 0 15 -15v-105a15 15 0 0 1 15 -15"></path></g></g><path d="M640.0 51h15"></path><path d="M204.5 51a15 15 0 0 0 -15 15v147a15 15 0 0 0 15 15"></path><g class="terminal">
<path d="M204.5 228h203.5"></path><path d="M436.5 228h203.5"></path><rect height="22" rx="10" ry="10" width="28.5" x="408.0" y="217"></rect><text x="422.25" y="232">,</text></g><path d="M640.0 228a15 15 0 0 0 15 -15v-147a15 15 0 0 0 -15 -15"></path></g><path d="M655.0 51h10"></path><path d="M 665.0 51 h 20 m -10 -10 v 20 m 10 -20 v 20"></path></g></svg>