<svg class="railroad-diagram" height="124" viewBox="0 0 695.0 124" width="695.0" xmlns="http://www.w3.org/2000/svg">
<g transform="translate(.5 .5)">
<style>/* <![CDATA[ */
    svg.railroad-diagram {
        background-color:transparent;
    }
    svg.railroad-diagram path {
        stroke-width:1;
        stroke:black;
        fill:rgba(0,0,0,0);
    }
    svg.railroad-diagram text {
        font:bold 14px monospace;
        font-family: Verdana, sans-serif;
        text-anchor:middle;
    }
    svg.railroad-diagram text.label{
        text-anchor:start;
    }
    svg.railroad-diagram text.comment{
        font:italic 12px monospace;
    }
    svg.railroad-diagram rect{
        stroke-width:1;
        stroke:black;
        fill:transparent;
    }

/* ]]> */
</style><g>
<path d="M20 41v20m10 -20v20m-10 -10h20"></path></g><path d="M40 51h10"></path><g>
<path d="M50 51h0.0"></path><path d="M645.0 51h0.0"></path><g>
<path d="M50.0 51h0.0"></path><path d="M246.5 51h0.0"></path><path d="M50.0 51h30"></path><g>
<path d="M80.0 51h136.5"></path></g><path d="M216.5 51h30"></path><path d="M50.0 51a15 15 0 0 1 15 15v1a15 15 0 0 0 15 15"></path><g>
<path d="M80.0 82h0.0"></path><path d="M216.5 82h0.0"></path><g class="terminal">
<path d="M80.0 82h0.0"></path><path d="M168.0 82h0.0"></path><rect height="22" rx="10" ry="10" width="88.0" x="80.0" y="71"></rect><text x="124.0" y="86">variable</text></g><path d="M168.0 82h10"></path><path d="M178.0 82h10"></path><g class="terminal">
<path d="M188.0 82h0.0"></path><path d="M216.5 82h0.0"></path><rect height="22" rx="10" ry="10" width="28.5" x="188.0" y="71"></rect><text x="202.25" y="86">=</text></g></g><path d="M216.5 82a15 15 0 0 0 15 -15v-1a15 15 0 0 1 15 -15"></path></g><path d="M246.5 51h10"></path><g class="terminal">
<path d="M256.5 51h0.0"></path><path d="M344.5 51h0.0"></path><rect height="22" rx="10" ry="10" width="88.0" x="256.5" y="40"></rect><text x="300.5" y="55">DimArray</text></g><path d="M344.5 51h10"></path><path d="M354.5 51h10"></path><g class="terminal">
<path d="M364.5 51h0.0"></path><path d="M393.0 51h0.0"></path><rect height="22" rx="10" ry="10" width="28.5" x="364.5" y="40"></rect><text x="378.75" y="55">(</text></g><path d="M393.0 51h10"></path><g>
<path d="M403.0 51h0.0"></path><path d="M606.5 51h0.0"></path><path d="M403.0 51a15 15 0 0 0 15 -15v-1a15 15 0 0 1 15 -15"></path><g>
<path d="M433.0 20h143.5"></path></g><path d="M576.5 20a15 15 0 0 1 15 15v1a15 15 0 0 0 15 15"></path><path d="M403.0 51h30"></path><g>
<path d="M433.0 51h0.0"></path><path d="M576.5 51h0.0"></path><path d="M433.0 51h15"></path><g class="non-terminal">
<path d="M448.0 51h0.0"></path><path d="M561.5 51h0.0"></path><rect height="22" width="113.5" x="448.0" y="40"></rect><text x="504.75" y="55">upper&#95;bound</text></g><path d="M561.5 51h15"></path><path d="M448.0 51a15 15 0 0 0 -15 15v12a15 15 0 0 0 15 15"></path><g class="terminal">
<path d="M448.0 93h42.5"></path><path d="M519.0 93h42.5"></path><rect height="22" rx="10" ry="10" width="28.5" x="490.5" y="82"></rect><text x="504.75" y="97">,</text></g><path d="M561.5 93a15 15 0 0 0 15 -15v-12a15 15 0 0 0 -15 -15"></path></g><path d="M576.5 51h30"></path></g><path d="M606.5 51h10"></path><g class="terminal">
<path d="M616.5 51h0.0"></path><path d="M645.0 51h0.0"></path><rect height="22" rx="10" ry="10" width="28.5" x="616.5" y="40"></rect><text x="630.75" y="55">)</text></g></g><path d="M645.0 51h10"></path><path d="M 655.0 51 h 20 m -10 -10 v 20 m 10 -20 v 20"></path></g></svg>