<svg class="railroad-diagram" height="104" viewBox="0 0 497.0 104" width="497.0" xmlns="http://www.w3.org/2000/svg">
<g transform="translate(.5 .5)">
<style>/* <![CDATA[ */
    svg.railroad-diagram {
        background-color:transparent;
    }
    svg.railroad-diagram path {
        stroke-width:1;
        stroke:black;
        fill:rgba(0,0,0,0);
    }
    svg.railroad-diagram text {
        font:bold 14px monospace;
        font-family: Verdana, sans-serif;
        text-anchor:middle;
    }
    svg.railroad-diagram text.label{
        text-anchor:start;
    }
    svg.railroad-diagram text.comment{
        font:italic 12px monospace;
    }
    svg.railroad-diagram rect{
        stroke-width:1;
        stroke:black;
        fill:transparent;
    }

/* ]]> */
</style><g>
<path d="M20 21v20m10 -20v20m-10 -10h20"></path></g><path d="M40 31h10"></path><g>
<path d="M50 31h0.0"></path><path d="M447.0 31h0.0"></path><g class="terminal">
<path d="M50.0 31h0.0"></path><path d="M87.0 31h0.0"></path><rect height="22" rx="10" ry="10" width="37.0" x="50.0" y="20"></rect><text x="68.5" y="35">On</text></g><path d="M87.0 31h10"></path><path d="M97.0 31h10"></path><g class="terminal">
<path d="M107.0 31h0.0"></path><path d="M212.0 31h0.0"></path><rect height="22" rx="10" ry="10" width="105.0" x="107.0" y="20"></rect><text x="159.5" y="35">expression</text></g><path d="M212.0 31h10"></path><g>
<path d="M222.0 31h0.0"></path><path d="M344.5 31h0.0"></path><path d="M222.0 31h30"></path><g class="terminal">
<path d="M252.0 31h0.0"></path><path d="M314.5 31h0.0"></path><rect height="22" rx="10" ry="10" width="62.5" x="252.0" y="20"></rect><text x="283.25" y="35">GoSub</text></g><path d="M314.5 31h30"></path><path d="M222.0 31a15 15 0 0 1 15 15v12a15 15 0 0 0 15 15"></path><g class="terminal">
<path d="M252.0 73h4.25"></path><path d="M310.25 73h4.25"></path><rect height="22" rx="10" ry="10" width="54.0" x="256.25" y="62"></rect><text x="283.25" y="77">GoTo</text></g><path d="M314.5 73a15 15 0 0 0 15 -15v-12a15 15 0 0 1 15 -15"></path></g><path d="M344.5 31h10"></path><g>
<path d="M354.5 31h0.0"></path><path d="M447.0 31h0.0"></path><path d="M354.5 31h15"></path><g class="terminal">
<path d="M369.5 31h0.0"></path><path d="M432.0 31h0.0"></path><rect height="22" rx="10" ry="10" width="62.5" x="369.5" y="20"></rect><text x="400.75" y="35">label</text></g><path d="M432.0 31h15"></path><path d="M369.5 31a15 15 0 0 0 -15 15v12a15 15 0 0 0 15 15"></path><g class="terminal">
<path d="M369.5 73h17.0"></path><path d="M415.0 73h17.0"></path><rect height="22" rx="10" ry="10" width="28.5" x="386.5" y="62"></rect><text x="400.75" y="77">,</text></g><path d="M432.0 73a15 15 0 0 0 15 -15v-12a15 15 0 0 0 -15 -15"></path></g></g><path d="M447.0 31h10"></path><path d="M 457.0 31 h 20 m -10 -10 v 20 m 10 -20 v 20"></path></g></svg>