<svg class="railroad-diagram" height="124" viewBox="0 0 977.5 124" width="977.5" xmlns="http://www.w3.org/2000/svg">
<g transform="translate(.5 .5)">
<style>/* <![CDATA[ */
    svg.railroad-diagram {
        background-color:transparent;
    }
    svg.railroad-diagram path {
        stroke-width:1;
        stroke:black;
        fill:rgba(0,0,0,0);
    }
    svg.railroad-diagram text {
        font:bold 14px monospace;
        font-family: Verdana, sans-serif;
        text-anchor:middle;
    }
    svg.railroad-diagram text.label{
        text-anchor:start;
    }
    svg.railroad-diagram text.comment{
        font:italic 12px monospace;
    }
    svg.railroad-diagram rect{
        stroke-width:1;
        stroke:black;
        fill:transparent;
    }

/* ]]> */
</style><g>
<path d="M20 41v20m10 -20v20m-10 -10h20"></path></g><path d="M40 51h10"></path><g>
<path d="M50 51h0.0"></path><path d="M927.5 51h0.0"></path><g>
<path d="M50.0 51h0.0"></path><path d="M249.5 51h0.0"></path><path d="M50.0 51a15 15 0 0 0 15 -15v-1a15 15 0 0 1 15 -15"></path><g>
<path d="M80.0 20h139.5"></path></g><path d="M219.5 20a15 15 0 0 1 15 15v1a15 15 0 0 0 15 15"></path><path d="M50.0 51h30"></path><g>
<path d="M80.0 51h0.0"></path><path d="M219.5 51h0.0"></path><path d="M80.0 51h30"></path><g class="terminal">
<path d="M110.0 51h4.25"></path><path d="M185.25 51h4.25"></path><rect height="22" rx="10" ry="10" width="71.0" x="114.25" y="40"></rect><text x="149.75" y="55">Public</text></g><path d="M189.5 51h30"></path><path d="M80.0 51a15 15 0 0 1 15 15v12a15 15 0 0 0 15 15"></path><g class="terminal">
<path d="M110.0 93h0.0"></path><path d="M189.5 93h0.0"></path><rect height="22" rx="10" ry="10" width="79.5" x="110.0" y="82"></rect><text x="149.75" y="97">Private</text></g><path d="M189.5 93a15 15 0 0 0 15 -15v-12a15 15 0 0 1 15 -15"></path></g><path d="M219.5 51h30"></path></g><path d="M249.5 51h10"></path><g class="terminal">
<path d="M259.5 51h0.0"></path><path d="M381.5 51h0.0"></path><rect height="22" rx="10" ry="10" width="122.0" x="259.5" y="40"></rect><text x="320.5" y="55">Property Get</text></g><path d="M381.5 51h10"></path><path d="M391.5 51h10"></path><g class="terminal">
<path d="M401.5 51h0.0"></path><path d="M455.5 51h0.0"></path><rect height="22" rx="10" ry="10" width="54.0" x="401.5" y="40"></rect><text x="428.5" y="55">name</text></g><path d="M455.5 51h10"></path><g>
<path d="M465.5 51h0.0"></path><path d="M670.5 51h0.0"></path><path d="M465.5 51h30"></path><g>
<path d="M495.5 51h0.0"></path><path d="M640.5 51h0.0"></path><g class="terminal">
<path d="M495.5 51h0.0"></path><path d="M532.5 51h0.0"></path><rect height="22" rx="10" ry="10" width="37.0" x="495.5" y="40"></rect><text x="514.0" y="55">As</text></g><path d="M532.5 51h10"></path><path d="M542.5 51h10"></path><g class="non-terminal">
<path d="M552.5 51h0.0"></path><path d="M640.5 51h0.0"></path><rect height="22" width="88.0" x="552.5" y="40"></rect><text x="596.5" y="55">typename</text></g></g><path d="M640.5 51h30"></path><path d="M465.5 51a15 15 0 0 1 15 15v12a15 15 0 0 0 15 15"></path><g class="non-terminal">
<path d="M495.5 93h45.5"></path><path d="M595.0 93h45.5"></path><rect height="22" width="54.0" x="541.0" y="82"></rect><text x="568.0" y="97">char</text></g><path d="M640.5 93a15 15 0 0 0 15 -15v-12a15 15 0 0 1 15 -15"></path></g><path d="M670.5 51h10"></path><g class="terminal">
<path d="M680.5 51h0.0"></path><path d="M785.5 51h0.0"></path><rect height="22" rx="10" ry="10" width="105.0" x="680.5" y="40"></rect><text x="733.0" y="55">statements</text></g><path d="M785.5 51h10"></path><path d="M795.5 51h10"></path><g class="terminal">
<path d="M805.5 51h0.0"></path><path d="M927.5 51h0.0"></path><rect height="22" rx="10" ry="10" width="122.0" x="805.5" y="40"></rect><text x="866.5" y="55">End Property</text></g></g><path d="M927.5 51h10"></path><path d="M 937.5 51 h 20 m -10 -10 v 20 m 10 -20 v 20"></path></g></svg>