<svg class="railroad-diagram" height="259" viewBox="0 0 796.0 259" width="796.0" xmlns="http://www.w3.org/2000/svg">
<g transform="translate(.5 .5)">
<style>/* <![CDATA[ */
    svg.railroad-diagram {
        background-color:transparent;
    }
    svg.railroad-diagram path {
        stroke-width:1;
        stroke:black;
        fill:rgba(0,0,0,0);
    }
    svg.railroad-diagram text {
        font:bold 14px monospace;
        font-family: Verdana, sans-serif;
        text-anchor:middle;
    }
    svg.railroad-diagram text.label{
        text-anchor:start;
    }
    svg.railroad-diagram text.comment{
        font:italic 12px monospace;
    }
    svg.railroad-diagram rect{
        stroke-width:1;
        stroke:black;
        fill:transparent;
    }

/* ]]> */
</style><g>
<path d="M20 41v20m10 -20v20m-10 -10h20"></path></g><path d="M40 51h10"></path><g class="terminal">
<path d="M50 51h0.0"></path><path d="M112.5 51h0.0"></path><rect height="22" rx="10" ry="10" width="62.5" x="50.0" y="40"></rect><text x="81.25" y="55">ReDim</text></g><path d="M112.5 51h10"></path><g>
<path d="M122.5 51h0.0"></path><path d="M270.5 51h0.0"></path><path d="M122.5 51h30"></path><g>
<path d="M152.5 51h88.0"></path></g><path d="M240.5 51h30"></path><path d="M122.5 51a15 15 0 0 1 15 15v1a15 15 0 0 0 15 15"></path><g class="terminal">
<path d="M152.5 82h0.0"></path><path d="M240.5 82h0.0"></path><rect height="22" rx="10" ry="10" width="88.0" x="152.5" y="71"></rect><text x="196.5" y="86">Preserve</text></g><path d="M240.5 82a15 15 0 0 0 15 -15v-1a15 15 0 0 1 15 -15"></path></g><path d="M270.5 51h10"></path><g>
<path d="M280.5 51h0.0"></path><path d="M746.0 51h0.0"></path><path d="M280.5 51h15"></path><g>
<path d="M295.5 51h0.0"></path><path d="M731.0 51h0.0"></path><g class="terminal">
<path d="M295.5 51h0.0"></path><path d="M383.5 51h0.0"></path><rect height="22" rx="10" ry="10" width="88.0" x="295.5" y="40"></rect><text x="339.5" y="55">variable</text></g><path d="M383.5 51h10"></path><g>
<path d="M393.5 51h0.0"></path><path d="M731.0 51h0.0"></path><path d="M393.5 51h30"></path><g>
<path d="M423.5 51h0.0"></path><path d="M701.0 51h0.0"></path><g>
<path d="M423.5 51h0.0"></path><path d="M546.0 51h0.0"></path><path d="M423.5 51a15 15 0 0 0 15 -15v-1a15 15 0 0 1 15 -15"></path><g>
<path d="M453.5 20h62.5"></path></g><path d="M516.0 20a15 15 0 0 1 15 15v1a15 15 0 0 0 15 15"></path><path d="M423.5 51h30"></path><g class="non-terminal">
<path d="M453.5 51h0.0"></path><path d="M516.0 51h0.0"></path><rect height="22" width="62.5" x="453.5" y="40"></rect><text x="484.75" y="55">array</text></g><path d="M516.0 51h30"></path></g><path d="M546.0 51h10"></path><g>
<path d="M556.0 51h0.0"></path><path d="M701.0 51h0.0"></path><g class="terminal">
<path d="M556.0 51h0.0"></path><path d="M593.0 51h0.0"></path><rect height="22" rx="10" ry="10" width="37.0" x="556.0" y="40"></rect><text x="574.5" y="55">As</text></g><path d="M593.0 51h10"></path><path d="M603.0 51h10"></path><g class="non-terminal">
<path d="M613.0 51h0.0"></path><path d="M701.0 51h0.0"></path><rect height="22" width="88.0" x="613.0" y="40"></rect><text x="657.0" y="55">typename</text></g></g></g><path d="M701.0 51h30"></path><path d="M393.5 51a15 15 0 0 1 15 15v12a15 15 0 0 0 15 15"></path><g>
<path d="M423.5 93h22.0"></path><path d="M679.0 93h22.0"></path><g class="terminal">
<path d="M445.5 93h0.0"></path><path d="M482.5 93h0.0"></path><rect height="22" rx="10" ry="10" width="37.0" x="445.5" y="82"></rect><text x="464.0" y="97">As</text></g><path d="M482.5 93h10"></path><g>
<path d="M492.5 93h0.0"></path><path d="M598.0 93h0.0"></path><path d="M492.5 93h30"></path><g>
<path d="M522.5 93h45.5"></path></g><path d="M568.0 93h30"></path><path d="M492.5 93a15 15 0 0 1 15 15v1a15 15 0 0 0 15 15"></path><g class="terminal">
<path d="M522.5 124h0.0"></path><path d="M568.0 124h0.0"></path><rect height="22" rx="10" ry="10" width="45.5" x="522.5" y="113"></rect><text x="545.25" y="128">New</text></g><path d="M568.0 124a15 15 0 0 0 15 -15v-1a15 15 0 0 1 15 -15"></path></g><path d="M598.0 93h10"></path><g class="terminal">
<path d="M608.0 93h0.0"></path><path d="M679.0 93h0.0"></path><rect height="22" rx="10" ry="10" width="71.0" x="608.0" y="82"></rect><text x="643.5" y="97">object</text></g></g><path d="M701.0 93a15 15 0 0 0 15 -15v-12a15 15 0 0 1 15 -15"></path><path d="M393.5 51a15 15 0 0 1 15 15v105a15 15 0 0 0 15 15"></path><g>
<path d="M423.5 186h45.5"></path><path d="M655.5 186h45.5"></path><g class="non-terminal">
<path d="M469.0 186h0.0"></path><path d="M523.0 186h0.0"></path><rect height="22" width="54.0" x="469.0" y="175"></rect><text x="496.0" y="190">char</text></g><path d="M523.0 186h10"></path><g>
<path d="M533.0 186h0.0"></path><path d="M655.5 186h0.0"></path><path d="M533.0 186a15 15 0 0 0 15 -15v-1a15 15 0 0 1 15 -15"></path><g>
<path d="M563.0 155h62.5"></path></g><path d="M625.5 155a15 15 0 0 1 15 15v1a15 15 0 0 0 15 15"></path><path d="M533.0 186h30"></path><g class="non-terminal">
<path d="M563.0 186h0.0"></path><path d="M625.5 186h0.0"></path><rect height="22" width="62.5" x="563.0" y="175"></rect><text x="594.25" y="190">array</text></g><path d="M625.5 186h30"></path></g></g><path d="M701.0 186a15 15 0 0 0 15 -15v-105a15 15 0 0 1 15 -15"></path></g></g><path d="M731.0 51h15"></path><path d="M295.5 51a15 15 0 0 0 -15 15v147a15 15 0 0 0 15 15"></path><g class="terminal">
<path d="M295.5 228h203.5"></path><path d="M527.5 228h203.5"></path><rect height="22" rx="10" ry="10" width="28.5" x="499.0" y="217"></rect><text x="513.25" y="232">,</text></g><path d="M731.0 228a15 15 0 0 0 15 -15v-147a15 15 0 0 0 -15 -15"></path></g><path d="M746.0 51h10"></path><path d="M 756.0 51 h 20 m -10 -10 v 20 m 10 -20 v 20"></path></g></svg>