<svg enable-background="new 0 0 15.988 12.901" height="12.901" viewBox="0 0 15.988 12.901" width="15.988" xmlns="http://www.w3.org/2000/svg" xmlns:xlink="http://www.w3.org/1999/xlink"><linearGradient id="a" gradientUnits="userSpaceOnUse" x1="4.7002" x2="15.9883" y1="7.8076" y2="7.8076"><stop offset="0" stop-color="#ffc10e"/><stop offset="1" stop-color="#f16422"/></linearGradient><linearGradient id="b" gradientUnits="userSpaceOnUse" x1="1.7974" x2="12.9976" y1="-.4531" y2="19.6142"><stop offset=".0109" stop-color="#a01c15"/><stop offset="1" stop-color="#65040b"/></linearGradient><path d="m4.71 7.803c0 1.365-.01 4.949-.01 4.949s4.092-.008 5.649-.008c3.113 0 5.639-2.212 5.639-4.941 0-1.363-.054-4.893-.054-4.893s-4.028-.047-5.585-.047c-3.117 0-5.639 2.212-5.639 4.94z" fill="url(#a)"/><path d="m5.654.014c-1.559 0-5.654-.014-5.654-.014s.011 4.676.011 6.457c0 3.56 2.524 6.444 5.644 6.444 1.557 0 5.591-.062 5.591-.062s.054-4.604.054-6.383c-.001-3.558-2.528-6.442-5.646-6.442z" fill="url(#b)"/></svg>