<svg viewBox="0 0 32 32" xmlns="http://www.w3.org/2000/svg"><g fill="#3a3a38"><rect height="1" ry=".5" width="14.999998" x="4" y="4"/><rect height="1" ry=".392136" width="15.000005" x="4" y="14"/><rect height="1" ry=".436441" width="15.000001" x="4" y="24"/><rect height="1" ry=".5" width="8.999999" x="10" y="27"/><rect height="1" ry=".5" width="8.999999" x="10" y="17"/><rect height="1" ry=".5" width="9.000002" x="10" y="7"/></g><g fill="#1e8bcd" transform="translate(19)"><path d="m8.4941625 9.910887q-.1686117 0-.2594025-.04752-.090792-.04752-.1232167-.19604l-.1426725-.540595q-.2464333.207919-.4863808.374257-.2334625.160395-.4928667.273267-.2594033.11287-.5577166.166335-.2983142.059409-.6549942.059409-.36965 0-.6939033-.089109-.31777-.095049-.5642034-.285148-.2399475-.19604-.3826191-.481188-.1361867-.2910882-.1361867-.6831667 0-.3445552.2010375-.659406.2075225-.3207918.6679633-.5702966.4604417-.2495049 1.1997417-.4039603.7392983-.1603954 1.8158233-.184158v-.4455437q0-.6772275-.31777-1.0158411-.3112841-.3445541-.9143966-.3445541-.402075 0-.6809342.095049-.2723725.0950497-.4734108.2079211-.2010375.112871-.3501942.2079204-.1426725.09505-.2918292.09505-.1167308 0-.2010375-.053465-.0843066-.0534658-.1361875-.1366342l-.2075216-.3326786q.5252916-.4633659 1.1284041-.6891081.6095975-.2316831 1.3488975-.2316831.5317767 0 .9468225.1603959.415045.1544553.6939042.4455442.2788584.2910889.4215309.6950488.1491566.4039609.1491566.8970296v3.7128685zm-2.37354-.641584q.2853433 0 .5252917-.05347.2399475-.053467.4539558-.148513.2140075-.1009906.402075-.2435643.1945533-.1485146.3826208-.3267326v-1.1999991q-.758755.0297-1.2905325.118812-.5317766.0831685-.8690016.2257423-.3307384.1425745-.4798959.3386125-.1491566.1900997-.1491566.4277237 0 .2257423.077817.3920795.084308.1603954.2204942.267326.1361858.100989.3242542.154455.1880675.04752.402075.04752z"/><path d="m4 19.922006v-7.922006h1.0256409v3.247911q.34965-.395543.7983682-.623955.4487183-.233984 1.0314684-.233984.4953382 0 .8916089.183844.3962695.183844.6759901.529248.2797203.345404.4254085.841226.151515.49025.151515 1.114206 0 .662953-.1689975 1.203343-.1689982.54039-.4836835.930362-.3146856.3844-.7634032.5961-.4487176.211699-1.0081584.211699-.5594408 0-.9382283-.200557-.3729607-.206128-.6643357-.568245l-.058275.484679q-.023306.206129-.2505826.206129zm2.5116549-4.757661q-.4720282 0-.8333333.2117-.3554776.211699-.6526807.601671v2.629526q.268065.350975.5885782.495822.3205125.139275.7051276.139275.7867133 0 1.2062941-.540389.4195801-.54039.4195801-1.610028 0-.991643-.3729601-1.45961-.3729601-.467967-1.0606059-.467967z"/><path d="m7.6622559 25.119508q-.04689.06448-.093781.09964-.041029.02931-.1230874.02931-.087919 0-.1817004-.07034-.093781-.07034-.2344522-.152394-.1406713-.08792-.3458169-.158255-.1992843-.07034-.4923496-.07034-.386846 0-.6857726.152394-.2930652.146532-.4923495.427875-.193423.275481-.2989265.67405-.099642.398568-.099642.896779 0 .515795.1055035.920225.1113648.398569.3106491.67405.1992843.275481.480627.422014.2813426.140671.6330208.140671.3399557 0 .5568239-.08792.2168683-.08792.3634009-.193423.1465326-.105504.2403134-.193423.099642-.08792.2051457-.08792.1172261 0 .1875617.09964l.2989265.375124q-.1875617.228591-.4161526.398568-.2285908.164117-.4923495.275482-.2637587.105503-.5509626.158255-.2813426.05275-.5744078.05275-.5040722 0-.94367-.199285-.4395979-.199271-.767831-.574395-.3223717-.380984-.5099334-.926086-.1817005-.550962-.1817005-1.254319 0-.638882.1699779-1.178122.1699778-.545101.4923495-.937809.3282331-.392707.8029987-.609575.4806269-.22273 1.1019252-.22273.5861304 0 1.0257282.199285.4395979.193423.7795535.545101z" transform="matrix(1.0151806 0 0 1.0151806 -.054033 -.364334)"/></g></svg>