<svg viewBox="0 0 32 32" xmlns="http://www.w3.org/2000/svg"><g fill="#3a3a38" transform="translate(32)"><rect height="1" ry=".5" width="14.999998" x="-28" y="4"/><rect height="1" ry=".392136" width="15.000005" x="-28" y="14"/><path d="m13.435547 24c-.241788 0-.435547.193759-.435547.435547v.128906c0 .241788.193759.435547.435547.435547h4.564453v-.5a1.0001 1.0001 0 0 1 .134766-.5z" transform="scale(-1 1)"/><path d="m13.5 27c-.277 0-.5.223-.5.5s.223.5.5.5h6.458984l.208985-.291016-1.332031-.222656a1.0001 1.0001 0 0 1 -.699219-.486328z" transform="scale(-1 1)"/><rect height="1" ry=".5" width="8.999999" x="-22" y="17"/><rect height="1" ry=".5" width="9.000002" x="-22" y="7"/></g><path d="m7.5 19 .371094 2.228516a4.5 4.5 0 0 1 .683594.279296l1.833984-1.310546.861328.859375.552734.554687-1.3125 1.835938a4.5 4.5 0 0 1 .289063.68164l2.220703.371094v1.216797.783203l-2.228516.371094a4.5 4.5 0 0 1 -.279296.683594l1.310546 1.833984-.552734.554687-.861328.859375-1.835938-1.3125a4.5 4.5 0 0 1 -.68164.289063l-.371094 2.220703h-1.216797-.783203l-.371094-2.228516a4.5 4.5 0 0 1 -.683594-.279296l-1.833984 1.310546-.554687-.552734-.859375-.861328 1.3125-1.835938a4.5 4.5 0 0 1 -.289063-.68164l-2.220703-.371094v-.783203-1.216797l2.228516-.371094a4.5 4.5 0 0 1 .279296-.683594l-1.310546-1.833984.859375-.861328.554687-.552734 1.835938 1.3125a4.5 4.5 0 0 1 .68164-.289063l.371094-2.220703h.783203zm-.605469 1h-.789062l-.353516 2v.08984a3.5 3.5 0 0 0 -1.136719.466797l-.06055-.06055-1.664063-1.164063-.558594.558594 1.164063 1.664063.0625.0625a3.5 3.5 0 0 0 -.470703 1.134765h-.087887l-2 .353516v.789062l2 .353516h.08984a3.5 3.5 0 0 0 .466797 1.136719l-.06055.06055-1.164063 1.664063.558594.558594 1.664063-1.164063.0625-.0625a3.5 3.5 0 0 0 1.134765.470703v.087894l.353516 2h.789062l.353516-2v-.08984a3.5 3.5 0 0 0 1.136719-.466797l.06055.06055 1.664063 1.164063.558594-.558594-1.164063-1.664063-.0625-.0625a3.5 3.5 0 0 0 .470706-1.134772h.087891l2-.353516v-.789062l-2-.353516h-.08984a3.5 3.5 0 0 0 -.466797-1.136719l.06055-.06055 1.164063-1.664063-.558594-.558594-1.664063 1.164063-.0625.0625a3.5 3.5 0 0 0 -1.134765-.470703v-.087887zm-.394531 3a2.5 2.5 0 0 1 2.5 2.5 2.5 2.5 0 0 1 -2.5 2.5 2.5 2.5 0 0 1 -2.5-2.5 2.5 2.5 0 0 1 2.5-2.5zm0 1a1.5 1.5 0 0 0 -1.5 1.5 1.5 1.5 0 0 0 1.5 1.5 1.5 1.5 0 0 0 1.5-1.5 1.5 1.5 0 0 0 -1.5-1.5z" fill="#1e8bcd"/><path d="m6.894531 20h-.789062l-.353516 2v.08984c-.40347.08734-.788306.245379-1.136719.466797l-.06055-.06055-1.664063-1.164063-.558594.558594 1.164063 1.664063.0625.0625c-.222578.347545-.381933.731717-.470703 1.134765h-.087887l-2 .353516v.789062l2 .353516h.08984c.08734.40347.245379.788306.466797 1.136719l-.06055.06055-1.164063 1.664063.558594.558594 1.664063-1.164063.0625-.0625c.347545.222578.731717.381933 1.134765.470703v.087894l.353516 2h.789062l.353516-2v-.08984c.40347-.08734.788306-.245379 1.136719-.466797l.06055.06055 1.664063 1.164063.558594-.558594-1.164063-1.664063-.0625-.0625c.222581-.347552.381936-.731724.470706-1.134772h.087891l2-.353516v-.789062l-2-.353516h-.08984c-.08734-.40347-.245379-.788306-.466797-1.136719l.06055-.06055 1.164063-1.664063-.558594-.558594-1.664063 1.164063-.0625.0625c-.347545-.222578-.731717-.381933-1.134765-.470703v-.087887zm-.394531 3c1.380712 0 2.5 1.119288 2.5 2.5s-1.119288 2.5-2.5 2.5-2.5-1.119288-2.5-2.5 1.119288-2.5 2.5-2.5z" fill="#fafafa"/><g fill="#1e8bcd" transform="translate(-1.9917)"><path d="m24.470153 10.037375h1.986424v-5.1719431c0-.1568629.006-.319759.0181-.4886883l-1.345401 1.1825051c-.09653.080442-.191051.1085975-.28356.084465-.08849-.028155-.15083-.068376-.187029-.1206638l-.319759-.4404232 2.310711-2.0452511h.820514v6.9999994h2l-.0083 1h-5z" transform="translate(.529847 -.037375)"/><path d="m27.545228 13.030036q.497068 0 .922271.14972.425203.149719.73662.431191.311416.281473.48509.68871.179664.407236.179664.92826 0 .43718-.131753.814473-.125765.371304-.347349.712664-.215596.341361-.503058.670743-.287461.323394-.604866.652777l-2.018217 2.10206q.227573-.06588.455147-.101809.233562-.03593.443169-.03593h2.497319q.161697 0 .257518.09582.09582.08983.09582.24554v.604867h-5.144358v-.341361q0-.101809.04192-.215596.04192-.119775.14373-.215595l2.437432-2.515286q.311416-.317405.556956-.610855.251528-.29345.425203-.5869.173674-.299439.269495-.604866.09582-.305428.09582-.646788 0-.34136-.107798-.598878-.101809-.257517-.281472-.425203-.179663-.173674-.425203-.257517-.24554-.08384-.533001-.08384-.281473 0-.521024.08983-.239551.08384-.425203.239551-.185652.149719-.317405.365315-.131753.209607-.191641.461136-.04791.203618-.167685.269495-.113787.05989-.323394.02994l-.521024-.08384q.07187-.544979.287462-.958204.221584-.419215.550967-.700687.329383-.281473.754586-.425203.431191-.143731.92826-.143731z" transform="matrix(1.0048011 0 0 1.0048011 -.144093 -.100771)"/><path d="m27.558757 23.012724q.555431 0 1.017175.160606.461744.160607.796341.455052.334597.294446.51528.709346.187374.4149.187374.923488 0 .421592-.107071.749497-.100379.327905-.294445.575507-.194067.247602-.468436.421592-.27437.167299-.615659.27437.836493.227526 1.258085.762881.421592.528664.421592 1.331696 0 .608967-.227526 1.097479-.227526.481819-.62235.823108-.388133.341289-.910104.521972-.521971.180682-1.110862.180682-.682578 0-1.164398-.167298-.48182-.173991-.823109-.48182-.341288-.307829-.562123-.72273-.220834-.4149-.368056-.910104l.481819-.20745q.194067-.0803.368057-.04684.180683.03346.260986.200758.0803.17399.194066.4149.120455.234218.321213.455052.200759.214142.508588.368057.307829.147223.769573.147223.441668 0 .769573-.147223.327905-.153915.548739-.388133.220834-.234218.327905-.528663.113763-.294445.113763-.575507 0-.347981-.08699-.642426-.087-.301138-.327905-.508588-.24091-.214142-.669194-.334597-.421592-.120455-1.090786-.120455v-.809724q.548739-.0067.930179-.120455.381441-.120455.622351-.321214.24091-.200758.347981-.481819.107071-.281062.107071-.615659 0-.374748-.113763-.649118-.107071-.281062-.307829-.468436-.194067-.187374-.468436-.274369-.267678-.09369-.588891-.09369-.321213 0-.588891.10038-.260986.09369-.468436.267677-.20745.167299-.354673.408209-.14053.234217-.214142.515279-.05354.227526-.187374.301137-.127147.06692-.361365.03346l-.588891-.09369q.087-.608967.327906-1.070711.240909-.468436.608966-.782957.374749-.314521.849877-.475128.481819-.160606 1.03725-.160606z"/></g></svg>