<svg viewBox="0 0 32 32" xmlns="http://www.w3.org/2000/svg"><g fill="#3a3a38"><path d="m29 3v1h-2v6h2v1h-2-1-2v-1h2v-6h-2v-1h2 1z"/><path d="m29 13v1h-1v6h1v1h-1-1-3v-1h1v-6h-1v-1h3 1zm-2 1h-1v6h1z"/><rect height="1" ry=".5" width="14.999998" x="4" y="4"/><rect height="1" ry=".392136" width="15.000005" x="4" y="14"/><rect fill="#1e8bcd" height="1" ry=".436441" width="15.000001" x="4" y="24"/><rect fill="#1e8bcd" height="1" ry=".5" width="8.999999" x="10" y="27"/><rect height="1" ry=".5" width="8.999999" x="10" y="17"/><rect height="1" ry=".5" width="9.000002" x="10" y="7"/></g></svg>