<svg viewBox="0 0 16 16" xmlns="http://www.w3.org/2000/svg">
/&amp;gt;<g fill="#1e8bcd"><path d="m1 10c-.554 0-1 .446-1 1v4c0 .554.446 1 1 1h1c.554 0 1-.446 1-1v-4c0-.554-.446-1-1-1zm0 1h1v4h-1z" fill="#0063b1"/><path d="m1 11h1v4h-1z" fill="#83beec" opacity=".5"/><path d="m5 7c-.554 0-1 .446-1 1v7c0 .554.446 1 1 1h1c.554 0 1-.446 1-1v-7c0-.554-.446-1-1-1zm0 1h1v7h-1z" fill="#0063b1"/><path d="m5 8h1v7h-1z" fill="#83beec" opacity=".5"/></g><g fill="#3a3a38"><path d="m9 3c-.554 0-1 .446-1 1v11c0 .554.446 1 1 1h1c.554 0 1-.446 1-1v-11c0-.554-.446-1-1-1zm0 1h1v11h-1z" fill="#3a3a38"/><path d="m9 4h1v11h-1z" fill="#797774" opacity=".5"/><path d="m13 0c-.554 0-1 .446-1 1v14c0 .554.446 1 1 1h1c.554 0 1-.446 1-1v-14c0-.554-.446-1-1-1zm0 1h1v14h-1z" fill="#3a3a38"/><path d="m13 1h1v14h-1z" fill="#797774" opacity=".5"/></g></svg>