<svg height="12" viewBox="0 0 12 12" width="12" xmlns="http://www.w3.org/2000/svg">/&gt;<path d="m11 0v11h-10v1h10 1v-12z" fill="#3a3a38"/><path d="m0 0v1 11h1v-11h10v-1z" fill="#fafafa"/><path d="m6.1436466 3.0000002q.4066298 0 .7292818.119381.3270717.119381.5524861.3271923.2254144.2033899.3447514.4819455.1237569.2741342.1237569.5880619 0 .2785557-.061879.4907885-.057458.2122329-.1723751.3714076-.1149172.1591746-.2828729.2697126-.1679558.1105379-.3801105.1812821 1.0033149.3404569 1.0033149 1.3574061 0 .4465734-.1635359.7870302-.1591161.3360354-.4331492.5659543-.2696133.229919-.6320442.3448784-.358011.1149595-.7558012.1149595-.4198894 0-.7425414-.097274-.3182321-.0972727-.561326-.2918196-.238674-.1989683-.4154696-.4907884-.1723757-.2918203-.2961326-.6764923l.4685083-.1989684q.1856354-.075166.3447514-.035372.163536.035372.2298342.1724392.079558.1503316.1679559.2829772.088398.128224.198895.2299189.1149171.097273.2607734.1547531.1458565.05748.3359117.05748.2342541 0 .4066299-.075166.1767955-.079588.2917126-.2033899.1149171-.128224.1723758-.2873986.057458-.1591747.057458-.3183494 0-.2033898-.039779-.3714075-.0353586-.1680177-.1679554-.2873987-.1281767-.119381-.3801104-.1857038-.2519337-.0663228-.6850829-.0663228v-.7560795q.3624309-.0044209.5922652-.0663233.2342541-.0619014.3668509-.1724391.1325967-.1149595.1812154-.2697126.048619-.1547532.048619-.3448784 0-.4023582-.2033149-.605748-.1988951-.2033898-.561326-.2033898-.322652 0-.5392266.1812822-.2165747.1812827-.3005526.4465737-.0707183.2033899-.1900553.2652912-.1149171.0619012-.3314917.0265291l-.5613259-.0972735q.0618784-.4288872.2342541-.7472365.1723757-.3227708.4331491-.5350037.2607736-.2166544.5922652-.3227708.3359116-.110538.7204421-.110538z" fill="#505050"/></svg>