<svg height="12" viewBox="0 0 12 12" width="12" xmlns="http://www.w3.org/2000/svg">/&gt;<path d="m11 0v11h-10v1h10 1v-12z" fill="#3a3a38"/><path d="m0 0v1 11h1v-11h10v-1z" fill="#fafafa"/><path d="m7.9999999 3v.4653615q0 .2078313-.044346.3388555-.044346.131024-.084257.2168673l-2.1152994 4.6084338q-.075388.1536144-.2084256.2620482-.1286031.1084337-.3547672.1084337h-.7804879l2.1640798-4.5045182q.075388-.1490962.1552107-.2756023.079823-.126506.1818181-.2394578h-2.669623q-.093127 0-.1685144-.072289-.075388-.0768073-.075388-.1762047v-.7319277h3.9999999z" fill="#505050"/></svg>