<svg height="65" viewBox="0 0 90 65" width="90" xmlns="http://www.w3.org/2000/svg"><path d="m0 0h90v65h-90z" fill="#3a3a38"/><path d="m1 1h88v63h-88z" fill="#fafafa"/><g transform="translate(-1)"><g fill="#3a3a38"><path d="m48 5h37v1h-37z"/><path d="m84 6h1v25h-1z"/><path d="m-49-30h1v25h-1z" transform="scale(-1)"/></g><g fill="#797774"><path d="m57 6h1v24h-1z"/><path d="m66 6h1v24h-1z"/><path d="m75 6h1v24h-1z"/><g transform="rotate(-90)"><path d="m-11 49h1v35h-1z"/><path d="m-9 60h1v4h-1z"/><path d="m-14 60h1v4h-1z"/><path d="m-16 60h1v4h-1z"/><path d="m-18 60h1v4h-1z"/><path d="m-20 60h1v4h-1z"/><path d="m-22 60h1v4h-1z"/><path d="m-24 60h1v4h-1z"/><path d="m-26 60h1v4h-1z"/><path d="m-28 60h1v4h-1z"/></g></g><path d="m-85-31h37v1h-37z" fill="#3a3a38" transform="scale(-1)"/><g fill="#797774"><g transform="matrix(0 -1 1 0 9 0)"><path d="m-9 60h1v4h-1z"/><path d="m-14 60h1v4h-1z"/><path d="m-16 60h1v4h-1z"/><path d="m-18 60h1v4h-1z"/><path d="m-20 60h1v4h-1z"/><path d="m-22 60h1v4h-1z"/><path d="m-24 60h1v4h-1z"/><path d="m-26 60h1v4h-1z"/><path d="m-28 60h1v4h-1z"/></g><g transform="matrix(0 -1 1 0 18 0)"><path d="m-9 60h1v4h-1z"/><path d="m-14 60h1v4h-1z"/><path d="m-16 60h1v4h-1z"/><path d="m-18 60h1v4h-1z"/><path d="m-20 60h1v4h-1z"/><path d="m-22 60h1v4h-1z"/><path d="m-24 60h1v4h-1z"/><path d="m-26 60h1v4h-1z"/><path d="m-28 60h1v4h-1z"/></g><g transform="matrix(0 -1 1 0 -9 0)"><path d="m-9 60h1v4h-1z"/><path d="m-14 60h1v4h-1z"/><path d="m-16 60h1v4h-1z"/><path d="m-18 60h1v4h-1z"/><path d="m-20 60h1v4h-1z"/><path d="m-22 60h1v4h-1z"/><path d="m-24 60h1v4h-1z"/><path d="m-26 60h1v4h-1z"/><path d="m-28 60h1v4h-1z"/></g></g></g><g transform="translate(-1 29)"><g fill="#3a3a38"><path d="m48 5h37v1h-37z"/><path d="m84 6h1v25h-1z"/><path d="m-49-30h1v25h-1z" transform="scale(-1)"/></g><g fill="#797774"><path d="m57 6h1v24h-1z"/><path d="m66 6h1v24h-1z"/><path d="m75 6h1v24h-1z"/><g transform="rotate(-90)"><path d="m-11 49h1v35h-1z"/><path d="m-9 60h1v4h-1z"/><path d="m-14 60h1v4h-1z"/><path d="m-16 60h1v4h-1z"/><path d="m-18 60h1v4h-1z"/><path d="m-20 60h1v4h-1z"/><path d="m-22 60h1v4h-1z"/><path d="m-24 60h1v4h-1z"/><path d="m-26 60h1v4h-1z"/><path d="m-28 60h1v4h-1z"/></g></g><path d="m-85-31h37v1h-37z" fill="#3a3a38" transform="scale(-1)"/><g fill="#797774"><g transform="matrix(0 -1 1 0 9 0)"><path d="m-9 60h1v4h-1z"/><path d="m-14 60h1v4h-1z"/><path d="m-16 60h1v4h-1z"/><path d="m-18 60h1v4h-1z"/><path d="m-20 60h1v4h-1z"/><path d="m-22 60h1v4h-1z"/><path d="m-24 60h1v4h-1z"/><path d="m-26 60h1v4h-1z"/><path d="m-28 60h1v4h-1z"/></g><g transform="matrix(0 -1 1 0 18 0)"><path d="m-9 60h1v4h-1z"/><path d="m-14 60h1v4h-1z"/><path d="m-16 60h1v4h-1z"/><path d="m-18 60h1v4h-1z"/><path d="m-20 60h1v4h-1z"/><path d="m-22 60h1v4h-1z"/><path d="m-24 60h1v4h-1z"/><path d="m-26 60h1v4h-1z"/><path d="m-28 60h1v4h-1z"/></g><g transform="matrix(0 -1 1 0 -9 0)"><path d="m-9 60h1v4h-1z"/><path d="m-14 60h1v4h-1z"/><path d="m-16 60h1v4h-1z"/><path d="m-18 60h1v4h-1z"/><path d="m-20 60h1v4h-1z"/><path d="m-22 60h1v4h-1z"/><path d="m-24 60h1v4h-1z"/><path d="m-26 60h1v4h-1z"/><path d="m-28 60h1v4h-1z"/></g></g></g><g transform="translate(-43 29)"><g fill="#3a3a38"><path d="m48 5h37v1h-37z"/><path d="m84 6h1v25h-1z"/><path d="m-49-30h1v25h-1z" transform="scale(-1)"/></g><g fill="#797774"><path d="m57 6h1v24h-1z"/><path d="m66 6h1v24h-1z"/><path d="m75 6h1v24h-1z"/><g transform="rotate(-90)"><path d="m-11 49h1v35h-1z"/><path d="m-9 60h1v4h-1z"/><path d="m-14 60h1v4h-1z"/><path d="m-16 60h1v4h-1z"/><path d="m-18 60h1v4h-1z"/><path d="m-20 60h1v4h-1z"/><path d="m-22 60h1v4h-1z"/><path d="m-24 60h1v4h-1z"/><path d="m-26 60h1v4h-1z"/><path d="m-28 60h1v4h-1z"/></g></g><path d="m-85-31h37v1h-37z" fill="#3a3a38" transform="scale(-1)"/><g fill="#797774"><g transform="matrix(0 -1 1 0 9 0)"><path d="m-9 60h1v4h-1z"/><path d="m-14 60h1v4h-1z"/><path d="m-16 60h1v4h-1z"/><path d="m-18 60h1v4h-1z"/><path d="m-20 60h1v4h-1z"/><path d="m-22 60h1v4h-1z"/><path d="m-24 60h1v4h-1z"/><path d="m-26 60h1v4h-1z"/><path d="m-28 60h1v4h-1z"/></g><g transform="matrix(0 -1 1 0 18 0)"><path d="m-9 60h1v4h-1z"/><path d="m-14 60h1v4h-1z"/><path d="m-16 60h1v4h-1z"/><path d="m-18 60h1v4h-1z"/><path d="m-20 60h1v4h-1z"/><path d="m-22 60h1v4h-1z"/><path d="m-24 60h1v4h-1z"/><path d="m-26 60h1v4h-1z"/><path d="m-28 60h1v4h-1z"/></g><g transform="matrix(0 -1 1 0 -9 0)"><path d="m-9 60h1v4h-1z"/><path d="m-14 60h1v4h-1z"/><path d="m-16 60h1v4h-1z"/><path d="m-18 60h1v4h-1z"/><path d="m-20 60h1v4h-1z"/><path d="m-22 60h1v4h-1z"/><path d="m-24 60h1v4h-1z"/><path d="m-26 60h1v4h-1z"/><path d="m-28 60h1v4h-1z"/></g></g></g><g transform="translate(-43)"><g fill="#3a3a38"><path d="m48 5h37v1h-37z"/><path d="m84 6h1v25h-1z"/><path d="m-49-30h1v25h-1z" transform="scale(-1)"/></g><g fill="#797774"><path d="m57 6h1v24h-1z"/><path d="m66 6h1v24h-1z"/><path d="m75 6h1v24h-1z"/><g transform="rotate(-90)"><path d="m-11 49h1v35h-1z"/><path d="m-9 60h1v4h-1z"/><path d="m-14 60h1v4h-1z"/><path d="m-16 60h1v4h-1z"/><path d="m-18 60h1v4h-1z"/><path d="m-20 60h1v4h-1z"/><path d="m-22 60h1v4h-1z"/><path d="m-24 60h1v4h-1z"/><path d="m-26 60h1v4h-1z"/><path d="m-28 60h1v4h-1z"/></g></g><path d="m-85-31h37v1h-37z" fill="#3a3a38" transform="scale(-1)"/><g fill="#797774"><g transform="matrix(0 -1 1 0 9 0)"><path d="m-9 60h1v4h-1z"/><path d="m-14 60h1v4h-1z"/><path d="m-16 60h1v4h-1z"/><path d="m-18 60h1v4h-1z"/><path d="m-20 60h1v4h-1z"/><path d="m-22 60h1v4h-1z"/><path d="m-24 60h1v4h-1z"/><path d="m-26 60h1v4h-1z"/><path d="m-28 60h1v4h-1z"/></g><g transform="matrix(0 -1 1 0 18 0)"><path d="m-9 60h1v4h-1z"/><path d="m-14 60h1v4h-1z"/><path d="m-16 60h1v4h-1z"/><path d="m-18 60h1v4h-1z"/><path d="m-20 60h1v4h-1z"/><path d="m-22 60h1v4h-1z"/><path d="m-24 60h1v4h-1z"/><path d="m-26 60h1v4h-1z"/><path d="m-28 60h1v4h-1z"/></g><g transform="matrix(0 -1 1 0 -9 0)"><path d="m-9 60h1v4h-1z"/><path d="m-14 60h1v4h-1z"/><path d="m-16 60h1v4h-1z"/><path d="m-18 60h1v4h-1z"/><path d="m-20 60h1v4h-1z"/><path d="m-22 60h1v4h-1z"/><path d="m-24 60h1v4h-1z"/><path d="m-26 60h1v4h-1z"/><path d="m-28 60h1v4h-1z"/></g></g></g><g fill="#1e8bcd" transform="matrix(0 1 1 0 15 -15)"><path d="m28 7h36l.757812 1.757812 1.242188 4.242188h-38z"/><path d="m26.5 46h36.5v6h-33z"/><path d="m64.757812 8.757812-38.257812 37.242188h8.484375l34.015625-33z" fill="#1e8bcd"/><path d="m63 57v-15h1l7.5 7.5-7.5 7.5z"/></g></svg>