<svg height="42" viewBox="0 0 42 42" width="42" xmlns="http://www.w3.org/2000/svg">
/&amp;amp;gt;<path d="m40 21a19 19 0 0 1 -19 19 19 19 0 0 1 -19-19 19 19 0 0 1 19-19 19 19 0 0 1 19 19z" fill="#0063b1"/><path d="m39 21a18 18 0 0 1 -18 18 18 18 0 0 1 -18-18 18 18 0 0 1 18-18 18 18 0 0 1 18 18z" fill="#83beec"/><path d="m24.670149 8.002961c-2.657824-.1228307-4.046104 3.611173-1.52039 4.632197 2.049093.731831 4.279586-1.099466 3.779002-2.9282698-.155348-.9522734-1.137812-1.7359594-2.258612-1.7039272zm-1.139561 8.212136c-.428051-.03062-.92993.103072-1.473518.459834-2.604953.98803-4.782739 2.601602-7.05707 4.048237.285435.675741.607536 1.222899 1.291891.47394.84845-.439618 3.691426-2.367098 3.406963-.479582-.910274 3.492733-2.017818 6.948571-2.865012 10.452066-.885863 1.918319 1.127983 3.656686 3.228265 2.409192 2.232464-.801466 4.151234-2.108736 6.113783-3.306294-.267778-.571899-.446539-1.39394-1.186432-.646025-.971518.384017-3.094779 2.195698-3.488986.702446.81606-3.782 2.329155-7.422417 3.295643-11.174259.667064-1.293818.01865-2.847667-1.265527-2.939555z" fill="#fafafa"/></svg>