<svg viewBox="0 0 24 24" xmlns="http://www.w3.org/2000/svg"><g fill="#3a3a38"><path d="m15.457003 7.0827998q-.154791.2626954-.423096.2626954-.154792 0-.371499-.1407296-.206388-.1501117-.51597-.3189874-.299263-.1782576-.732678-.3189874-.423096-.1501116-1.021622-.1501116-.567568 0-1.000983.1501116-.423096.1407298-.71204.4034252-.278623.2533136-.423095.6004468-.144472.3377513-.144472.7317945 0 .516009.257985.8537603.268305.3377513.691401.5816828.433415.2345496.980344.4128076.546929.178257 1.114497.365897.567567.18764 1.114496.431571.546928.23455.970024.600447.433416.356515.691401.881907.268304.52539.268304 1.285331 0 .816232-.288942 1.529263-.288944.703647-.846193 1.229038-.546929.525391-1.351842.825615-.804914.300223-1.836855.300223-1.24865 0-2.3012291-.43157-1.0422605-.440953-1.7749386-1.182131l.5469287-.806849q.072236-.103202.17543-.159494.1135135-.06567.2579852-.06567.1960688 0 .4334153.197022.2476658.187639.6088452.422189.3611793.225167.8668313.422189.51597.187638 1.22801.187638.598525 0 1.062898-.159493.464373-.159493.784276-.450334.330221-.290842.495331-.694267.17543-.412807.17543-.910052 0-.553537-.268304-.910054-.257986-.356518-.691401-.591068-.423096-.243931-.970025-.403424-.546928-.168879-1.114496-.347136-.567567-.178255-1.114496-.403423-.5469291-.23455-.9803443-.609828-.4230958-.37528-.6914004-.9288167-.2579853-.5535369-.2579853-1.3791512 0-.6473567.2683046-1.2571854.2683047-.6192108.7739559-1.0883097.5159705-.4784811 1.2589675-.7599405.753317-.2908415 1.723342-.2908415 1.083539 0 1.981327.3283694.908108.3283693 1.56855.956962z" stroke-width=".7"/><g fill="#1e8bcd"><path d="m4 20h16v1h-16z"/><path d="m4 18h16v1h-16z"/></g></g></svg>