<svg viewBox="0 0 16 16" xmlns="http://www.w3.org/2000/svg"><g fill="#3a3a38"><path d="m12.11548 2.3142208q-.184275.2918839-.503686.2918839-.184275 0-.44226-.1563663-.245701-.1667909-.614251-.3544305-.356265-.198064-.872236-.3544304-.5036855-.1667908-1.2162163-.1667908-.6756756 0-1.1916462.1667908-.5036856.1563664-.847666.4482502-.3316953.2814594-.5036855.6671631-.1719902.3752793-.1719902.813105 0 .5733434.3071254.9486226.3194103.3752792.8230959.6463142.5159704.2606106 1.1670762.4586747.6511056.198064 1.3267814.4065525.6756753.2084884 1.3267813.4795235.651106.2606106 1.154791.667163.515971.3961282.823096.9798959.319411.5837677.319411 1.4281455 0 .9069253-.343981 1.6991813-.343981.781832-1.007371 1.365599-.651106.583768-1.609337.91735-.9582306.333582-2.1867319.333582-1.4864866 0-2.7395579-.479524-1.2407864-.489948-2.1130223-1.313478l.6511057-.8965q.085995-.114669.2088453-.177215.1351351-.07298.3071253-.07298.2334152 0 .5159705.218913.2948403.208489.7248158.469099.4299754.250186 1.0319411.4691.6142506.208488 1.4619166.208488.7125307 0 1.2653562-.177216.5528256-.177215.9336606-.500372.393121-.323157.589681-.771407.208845-.458675.208845-1.0111692 0-.6150409-.31941-1.011169-.307125-.3961193-.8230959-.6567299-.5036856-.2710351-1.1547912-.4482503-.6511058-.1876396-1.3267814-.3857036-.6756757-.198064-1.3267815-.4482502-.6511056-.2606106-1.1670762-.6775876-.5036855-.4169769-.8230959-1.0320179-.3071253-.6150409-.3071253-1.5323902 0-.7192852.3194104-1.3968728.3194103-.6880119.9213759-1.2092331.6142507-.53164555 1.4987716-.84437825.8968059-.32315712 2.0515972-.32315712 1.2899264 0 2.3587223.36485482 1.081081.36485481 1.867322 1.06329115z"/><path d="m1 15h14v1h-14z" fill="#1e8bcd"/></g></svg>