<svg height="52" viewBox="0 0 60 52" width="60" xmlns="http://www.w3.org/2000/svg"><path d="m0 0h60v52h-60z" fill="#fafafa"/><g fill="#3a3a38"><path d="m11.646484 39.6456-8.9999996 9 .7070312.707 9.0000004-9z" fill-rule="evenodd"/><path d="m11 40.0062h46v.9874h-46z"/><path d="m9 3h1v38h-1z"/></g><path d="m7 28a4 7.5 0 0 0 -4 7.5 4 7.5 0 0 0 4 7.5h28v-15z" fill="#fb983b"/><path d="m27 28c-2.209139 0-4 3.3579-4 7.5s1.790861 7.5 4 7.5h22a4 7.5 0 0 1 -4-7.5 4 7.5 0 0 1 4-7.5z" fill="#1e8bcd"/><ellipse cx="35.499981" cy="-49" fill="#1e8bcd" opacity=".8" rx="7.5" ry="4" transform="rotate(90)"/><path d="m7 8a4 7.5 0 0 0 -4 7.5 4 7.5 0 0 0 4 7.5h28v-15z" fill="#fb983b"/><path d="m19 8c-2.209139 0-4 3.3579-4 7.5s1.790861 7.5 4 7.5h8 14 8a4 7.5 0 0 1 -4-7.5 4 7.5 0 0 1 4-7.5h-8-14z" fill="#1e8bcd"/><ellipse cx="15.499983" cy="-49" fill="#1e8bcd" opacity=".8" rx="7.5" ry="4" transform="rotate(90)"/><g fill="#fafafa"><path d="m37 11.4999a2 2 0 0 0 -2 2 2 2 0 0 0 2 2 2 2 0 0 0 2-2 2 2 0 0 0 -2-2zm0 1a1 1 0 0 1 1 1 1 1 0 0 1 -1 1 1 1 0 0 1 -1-1 1 1 0 0 1 1-1z"/><path d="m41 15.4999a2 2 0 0 0 -2 2 2 2 0 0 0 2 2 2 2 0 0 0 2-2 2 2 0 0 0 -2-2zm0 1a1 1 0 0 1 1 1 1 1 0 0 1 -1 1 1 1 0 0 1 -1-1 1 1 0 0 1 1-1z"/><path d="m41.59961 11.2002-6 8 .80078.5996 6-8z" fill-rule="evenodd"/></g></svg>