<svg height="52" viewBox="0 0 60 52" width="60" xmlns="http://www.w3.org/2000/svg"><path d="m0 0h60v52h-60z" fill="#fafafa"/><g fill="#3a3a38"><path d="m11.646484 39.6456-8.9999996 9 .7070312.707 9.0000004-9z" fill-rule="evenodd"/><path d="m11 40.0062h46v.9874h-46z"/><path d="m9 3h1v38h-1z"/></g><path d="m7 15a2 4 0 0 0 -2 4 2 4 0 0 0 2 4h24a2 4 0 0 1 -2-4 2 4 0 0 1 2-4z" fill="#1e8bcd"/><ellipse cx="18.999983" cy="-31.000078" fill="#1e8bcd" opacity=".8" rx="4" ry="2" transform="rotate(90)"/><path d="m7 7c-1.1045695 0-2 1.7909-2 4s.8954305 4 2 4h12a2 4 0 0 1 -2-4 2 4 0 0 1 2-4z" fill="#fb983b"/><ellipse cx="10.999983" cy="-19.000076" fill="#fb983b" opacity=".7" rx="4" ry="2" transform="rotate(90)"/><path d="m7 35c-1.1045695 0-2 1.7909-2 4s.8954305 4 2 4h40a2 4 0 0 1 -2-4 2 4 0 0 1 2-4z" fill="#1e8bcd"/><ellipse cx="38.999981" cy="-47.000076" fill="#1e8bcd" opacity=".8" rx="4" ry="2" transform="rotate(90)"/><g fill="#fb983b"><path d="m7 27c-1.1045695 0-2 1.7909-2 4s.8954305 4 2 4h28a2 4 0 0 1 -2-4 2 4 0 0 1 2-4z"/><ellipse cx="30.999983" cy="-35.000076" opacity=".7" rx="4" ry="2" transform="rotate(90)"/></g></svg>