<svg height="52" viewBox="0 0 60 52" width="60" xmlns="http://www.w3.org/2000/svg"><path d="m0 0h60v52h-60z" fill="#fafafa"/><path d="m30 3a23 23 0 0 0 -23 23 23 23 0 0 0 23 23 23 23 0 0 0 23-23 23 23 0 0 0 -23-23zm0 9a14 14 0 0 1 14 14 14 14 0 0 1 -14 14 14 14 0 0 1 -14-14 14 14 0 0 1 14-14z" fill="#1e8bcd"/><path d="m20.8125 16.8125a13 13 0 0 0 -3.8125 9.1875 13 13 0 0 0 13 13 13 13 0 0 0 13-13 13 13 0 0 0 -3.8125-9.1875l-5.6543 5.6543a5 5 0 0 1 1.4668 3.5332 5 5 0 0 1 -5 5 5 5 0 0 1 -5-5 5 5 0 0 1 1.4668-3.5332zm-2.38867 1.336c-.0255.038-.053.074-.0781.1113a14 14 0 0 1 .0781-.1113zm-.64453 1.0566c-.0495.089-.10487.1739-.15235.2637a14 14 0 0 1 .15235-.2637zm-.56641 1.1406c-.0571.1289-.12062.2542-.17383.3848a14 14 0 0 1 .17383-.3848zm-.48437 1.25c-.0494.1484-.10206.2953-.14649.4453a14 14 0 0 1 .14649-.4453zm-.35352 1.2637c-.0423.1827-.088.3642-.12305.5488a14 14 0 0 1 .12305-.5488zm-.24023 1.3242c-.0268.2029-.0563.4048-.0742.6094a14 14 0 0 1 .0742-.6094zm27.80468 3.0176a14 14 0 0 1 -.0898.7363c.0339-.2443.0687-.4882.0898-.7363zm-.1875 1.375a14 14 0 0 1 -.17968.8027c.0659-.2656.12916-.5314.17968-.8027zm-27.47265.2051c.0849.4213.19488.8335.3164 1.2402a14 14 0 0 1 -.3164-1.2402zm.3164 1.2402a14 14 0 0 0 .0957.2949c-.0318-.099-.066-.1955-.0957-.2949zm.0957.2949c.10516.3253.21983.6447.34766.959a14 14 0 0 1 -.34766-.959zm.34766.959a14 14 0 0 0 .11523.2813c-.0402-.093-.077-.1874-.11523-.2813zm.11523.2813c.17002.3931.35226.7808.55664 1.1543a14 14 0 0 1 -.55664-1.1543zm26.28516-1.6602a14 14 0 0 1 -.28906.8691c.10395-.2867.20365-.574.28906-.8691zm-.44727 1.3027a14 14 0 0 1 -.38476.8575c.1357-.2819.26778-.5655.38476-.8575zm-.57812 1.2598a14 14 0 0 1 -.44141.7715c.15336-.2534.304-.508.44141-.7715zm-24.67578.293c.21514.3899.44716.7687.69726 1.1347a14 14 0 0 1 -.69726-1.1347zm23.96484.9218a14 14 0 0 1 -.47461.6622c.16204-.2179.32521-.4348.47461-.6622zm-23.11133.4239c.21212.2982.42979.5927.66407.873a14 14 0 0 1 -.66407-.873zm22.29297.6972a14 14 0 0 1 -.54492.6211c.18571-.2038.37136-.4065.54492-.6211zm-21.31054.5254c.20056.2242.39883.4493.61328.6602a14 14 0 0 1 -.61328-.6602zm20.40625.4922a14 14 0 0 1 -.66016.6133c.22421-.2006.4493-.3989.66016-.6133zm-19.39649.5274c.20383.1858.40653.3713.6211.5449a14 14 0 0 1 -.6211-.5449zm18.38672.4043a14 14 0 0 1 -.87305.664c.29829-.2121.59273-.4297.87305-.664zm-17.30664.4843c.21791.162.43472.3252.66211.4746a14 14 0 0 1 -.66211-.4746zm16.22266.336a14 14 0 0 1 -1.13477.6972c.38987-.2151.76873-.447 1.13477-.6972zm-15.11719.4082c.25337.1533.50794.304.77148.4414a14 14 0 0 1 -.77148-.4414zm13.94141.3164a14 14 0 0 1 -1.1543.5566c.39316-.17.78081-.3523 1.1543-.5566zm-1.1543.5566c-.0929.04-.18736.077-.28125.1153a14 14 0 0 0 .28125-.1153zm-.28125.1153a14 14 0 0 1 -.95899.3476c.32526-.1051.64465-.2198.95899-.3476zm-.95899.3476c-.0985.032-.19547.066-.29492.096a14 14 0 0 0 .29492-.096zm-.29492.096a14 14 0 0 1 -1.24023.3164c.42134-.085.83353-.1949 1.24023-.3164zm-10.07812-.7969c.2819.1357.56542.2678.85742.3848a14 14 0 0 1 -.85742-.3848zm1.29102.543c.2867.1039.57406.2037.86914.2891a14 14 0 0 1 -.86914-.2891zm1.38671.4219c.26558.066.53142.1292.80274.1797a14 14 0 0 1 -.80274-.1797zm1.44141.2773c.24429.034.48818.069.73633.09a14 14 0 0 1 -.73633-.09z" fill="#fb983b"/><path d="m31.10352 12.0488a14 14 0 0 1 .50195.061 14 14 0 0 0 -.50195-.061zm1.41211.1856a14 14 0 0 1 .41015.092 14 14 0 0 0 -.41015-.092zm1.36132.3203a14 14 0 0 1 .3711.1231 14 14 0 0 0 -.3711-.1231zm-3.87695.4453a13 13 0 0 0 -9.1875 3.8125l5.6543 5.6543a5 5 0 0 1 3.5332-1.4668 5 5 0 0 1 3.5332 1.4668l5.6543-5.6543a13 13 0 0 0 -9.1875-3.8125zm5.22656.019a14 14 0 0 1 .21485.098 14 14 0 0 0 -.21485-.098zm1.26367.584a14 14 0 0 1 .22461.1289 14 14 0 0 0 -.22461-.1289z" fill="#1e8bcd"/><path d="m20.10742 35.8926-6.36133 6.3613a23 23 0 0 0 .008.01 23 23 0 0 0 1.54883 1.4024 23 23 0 0 0 .17578.1543 23 23 0 0 0 1.62696 1.2011 23 23 0 0 0 .22851.1641 23 23 0 0 0 1.61328.959 23 23 0 0 0 .39258.2246 23 23 0 0 0 1.56641.7305 23 23 0 0 0 .53711.2402 23 23 0 0 0 1.52929.5332 23 23 0 0 0 .66016.2207 23 23 0 0 0 1.4707.3516 23 23 0 0 0 .7793.1757 23 23 0 0 0 1.43555.1954 23 23 0 0 0 .86328.1054 23 23 0 0 0 1.81836.08 23 23 0 0 0 16.1582-6.6582 23 23 0 0 0 .0957-.088l-6.36133-6.3613a14 14 0 0 1 -9.89256 4.1054 14 14 0 0 1 -9.89258-4.1074z" fill="#fb983b" fill-rule="evenodd"/></svg>