<svg height="52" viewBox="0 0 60 52" width="60" xmlns="http://www.w3.org/2000/svg"><path d="m0 0h60v52h-60z" fill="#fafafa"/><path d="m29 6v22.6328l-19.167969-11.0664-.5.8672 19.167969 11.0664v.293l-15.617188 15.6172.707032.707 15.910156-15.9102 15.91016 15.9102.70703-.707-15.61719-15.6172v-.293l19.16797-11.0664-.5-.8672-19.16797 11.0664v-22.6328z" fill="#3a3a38"/><g fill="#fb983b"><path d="m19 24h1v1h-1z"/><path d="m20 23h1v1h-1z"/><path d="m19 22h1v1h-1z"/><path d="m18 23h1v1h-1z"/></g><path d="m19 23h1v1h-1z" fill="#fafafa"/><path d="m47 17h3v3h-3z" fill="#1e8bcd"/><path d="m48 18h1v1h-1z" fill="#fafafa"/><path d="m41 41h3v3h-3z" fill="#1e8bcd"/><path d="m42 42h1v1h-1z" fill="#fafafa"/><path d="m18 38h3v3h-3z" fill="#1e8bcd"/><path d="m19 39h1v1h-1z" fill="#fafafa"/><path d="m9 17h3v3h-3z" fill="#1e8bcd"/><path d="m10 18h1v1h-1z" fill="#fafafa"/><path d="m28 7h3v3h-3z" fill="#1e8bcd"/><path d="m29 8h1v1h-1z" fill="#fafafa"/><g fill="#fb983b"><path d="m29 15h1v1h-1z"/><path d="m30 14h1v1h-1z"/><path d="m29 13h1v1h-1z"/><path d="m28 14h1v1h-1z"/></g><path d="m29 14h1v1h-1z" fill="#fafafa"/><g fill="#fb983b"><path d="m43 22h1v1h-1z"/><path d="m44 21h1v1h-1z"/><path d="m43 20h1v1h-1z"/><path d="m42 21h1v1h-1z"/></g><path d="m43 21h1v1h-1z" fill="#fafafa"/><g fill="#fb983b"><path d="m38 39h1v1h-1z"/><path d="m39 38h1v1h-1z"/><path d="m38 37h1v1h-1z"/><path d="m37 38h1v1h-1z"/></g><path d="m38 38h1v1h-1z" fill="#fafafa"/><g fill="#fb983b"><path d="m22 37h1v1h-1z"/><path d="m23 36h1v1h-1z"/><path d="m22 35h1v1h-1z"/><path d="m21 36h1v1h-1z"/></g><path d="m22 36h1v1h-1z" fill="#fafafa"/></svg>