<svg height="52" viewBox="0 0 60 52" width="60" xmlns="http://www.w3.org/2000/svg"><path d="m0 0h60v52h-60z" fill="#fafafa"/><path d="m29.376953 8-.376953.1992188v.8007812h1v-.8007812l-.376953-.1992188zm-2.376953 1.2519531-14.064453 7.4003909a1.0001 1.0001 0 0 1 .064453.347656v3a1.0001 1.0001 0 0 1 -1 1h-1.390625l4.75 19h2.640625a1.0001 1.0001 0 0 1 1 1v2h21v-2a1.0001 1.0001 0 0 1 1-1h2.640625l4.75-19h-1.390625a1.0001 1.0001 0 0 1 -1-1v-3a1.0001 1.0001 0 0 1 .064453-.347656l-14.064453-7.4003909v.7480469a1.0001 1.0001 0 0 1 -1 1h-3a1.0001 1.0001 0 0 1 -1-1zm2 2.7480469h1a1.0001 1.0001 0 0 1 1 1 1.0001 1.0001 0 0 1 1 1v1a1.0001 1.0001 0 0 1 -1 1 1.0001 1.0001 0 0 1 -1 1h-1a1.0001 1.0001 0 0 1 -1-1 1.0001 1.0001 0 0 1 -1-1v-1a1.0001 1.0001 0 0 1 1-1 1.0001 1.0001 0 0 1 1-1zm-18.623047 6-.376953.197266v.361328l.015625.0625.09375.378906h.890625v-1zm37.623047 0v1h.890625l.109375-.439453v-.363281l-.376953-.197266zm-5 1h1a1.0001 1.0001 0 0 1 1 1 1.0001 1.0001 0 0 1 1 1v1a1.0001 1.0001 0 0 1 -1 1 1.0001 1.0001 0 0 1 -1 1h-1a1.0001 1.0001 0 0 1 -1-1 1.0001 1.0001 0 0 1 -1-1v-1a1.0001 1.0001 0 0 1 1-1 1.0001 1.0001 0 0 1 1-1zm-24 2h1a1.0001 1.0001 0 0 1 1 1 1.0001 1.0001 0 0 1 1 1v1a1.0001 1.0001 0 0 1 -1 1 1.0001 1.0001 0 0 1 -1 1h-1a1.0001 1.0001 0 0 1 -1-1 1.0001 1.0001 0 0 1 -1-1v-1a1.0001 1.0001 0 0 1 1-1 1.0001 1.0001 0 0 1 1-1zm3 13h1a1.0001 1.0001 0 0 1 1 1 1.0001 1.0001 0 0 1 1 1v1a1.0001 1.0001 0 0 1 -1 1 1.0001 1.0001 0 0 1 -1 1h-1a1.0001 1.0001 0 0 1 -1-1 1.0001 1.0001 0 0 1 -1-1v-1a1.0001 1.0001 0 0 1 1-1 1.0001 1.0001 0 0 1 1-1zm16 2h1a1.0001 1.0001 0 0 1 1 1 1.0001 1.0001 0 0 1 1 1v1a1.0001 1.0001 0 0 1 -1 1 1.0001 1.0001 0 0 1 -1 1h-1a1.0001 1.0001 0 0 1 -1-1 1.0001 1.0001 0 0 1 -1-1v-1a1.0001 1.0001 0 0 1 1-1 1.0001 1.0001 0 0 1 1-1zm-22 6v.5625l.109375.4375h.890625v-1zm26 0v1h.890625l.109375-.4375v-.5625z" fill="#1e8bcd" fill-rule="evenodd"/><path d="m31.982422 15.183594a1.0001 1.0001 0 0 1 -.982422.816406 1.0001 1.0001 0 0 1 -1 1h-1a1.0001 1.0001 0 0 1 -1-1 1.0001 1.0001 0 0 1 -.646484-.240234l-6.453125 5.808593a1.0001 1.0001 0 0 1 .099609.431641 1.0001 1.0001 0 0 1 1 1v1a1.0001 1.0001 0 0 1 -1 1 1.0001 1.0001 0 0 1 -1 1h-.435547l1.884766 8.166016a1.0001 1.0001 0 0 1 .550781-.166016h1a1.0001 1.0001 0 0 1 1 1 1.0001 1.0001 0 0 1 1 1v1a1.0001 1.0001 0 0 1 -.050781.310547l11.050781 1.382812v-.693359a1.0001 1.0001 0 0 1 1-1 1.0001 1.0001 0 0 1 1-1h1a1.0001 1.0001 0 0 1 .677734.265625l3.607422-12.265625h-.285156a1.0001 1.0001 0 0 1 -1-1 1.0001 1.0001 0 0 1 -1-1v-1a1.0001 1.0001 0 0 1 .705078-.955078z" fill="#fb983b" fill-rule="evenodd"/><path d="m29 6v22.6328l-19.167969-11.0664-.4999999.8672 19.1679689 11.0664v.293l-15.617188 15.6172.707032.707 15.910156-15.9102 15.910156 15.9102.707032-.707-15.617188-15.6172v-.293l19.167969-11.0664-.5-.8672-19.167969 11.0664v-22.6328z" fill="#3a3a38"/><g fill="#fb983b"><path d="m19 24h1v1h-1z"/><path d="m20 23h1v1h-1z"/><path d="m19 22h1v1h-1z"/><path d="m18 23h1v1h-1z"/></g><path d="m19 23h1v1h-1z" fill="#fafafa"/><path d="m47 17h3v3h-3z" fill="#1e8bcd"/><path d="m48 18h1v1h-1z" fill="#fafafa"/><path d="m41 41h3v3h-3z" fill="#1e8bcd"/><path d="m42 42h1v1h-1z" fill="#fafafa"/><path d="m15 41h3v3h-3z" fill="#1e8bcd"/><path d="m16 42h1v1h-1z" fill="#fafafa"/><path d="m9 17h3v3h-3z" fill="#1e8bcd"/><path d="m10 18h1v1h-1z" fill="#fafafa"/><path d="m28 7h3v3h-3z" fill="#1e8bcd"/><path d="m29 8h1v1h-1z" fill="#fafafa"/><g fill="#fb983b"><path d="m29 15h1v1h-1z"/><path d="m30 14h1v1h-1z"/><path d="m29 13h1v1h-1z"/><path d="m28 14h1v1h-1z"/></g><path d="m29 14h1v1h-1z" fill="#fafafa"/><g fill="#fb983b"><path d="m43 22h1v1h-1z"/><path d="m44 21h1v1h-1z"/><path d="m43 20h1v1h-1z"/><path d="m42 21h1v1h-1z"/></g><path d="m43 21h1v1h-1z" fill="#fafafa"/><g fill="#fb983b"><path d="m38 39h1v1h-1z"/><path d="m39 38h1v1h-1z"/><path d="m38 37h1v1h-1z"/><path d="m37 38h1v1h-1z"/></g><path d="m38 38h1v1h-1z" fill="#fafafa"/><g fill="#fb983b"><path d="m22 37h1v1h-1z"/><path d="m23 36h1v1h-1z"/><path d="m22 35h1v1h-1z"/><path d="m21 36h1v1h-1z"/></g><path d="m22 36h1v1h-1z" fill="#fafafa"/></svg>