<svg height="52" viewBox="0 0 60 52" width="60" xmlns="http://www.w3.org/2000/svg"><path d="m0 0h60v52h-60z" fill="#fafafa"/><path d="m14 37-12 12" fill="none" stroke="#3a3a38"/><path d="m13 37h46v.9874h-46z" fill="#3a3a38"/><path d="m43 11 8 32h-17z" fill="#1e8bcd"/><path d="m13 2h1v36h-1z" fill="#3a3a38"/><path d="m21 12 7 31h-16z" fill="#1e8bcd"/><g fill-rule="evenodd"><path d="m21 12 7 31 3-3z" fill="#1e8bcd" opacity=".8"/><path d="m43 11 8 32 3-3z" fill="#1e8bcd" opacity=".8"/><g fill="#fb983b"><path d="m39 32 7 15 3-3z" opacity=".8"/><path d="m16 26 7 21 3-3z" opacity=".8"/></g></g><g fill="#fb983b"><path d="m16 26 7 21h-15z"/><path d="m39 32 7 15h-15z"/></g></svg>