<svg height="52" viewBox="0 0 60 52" width="60" xmlns="http://www.w3.org/2000/svg"><path d="m0-.0001h60v52h-60z" fill="#fafafa"/><path d="m0-.0001h60v52h-60z" fill="#fafafa"/><path d="m14 37-12 12" fill="none" stroke="#3a3a38"/><path d="m13 37h46v.9874h-46z" fill="#3a3a38"/><path d="m13 2h1v36h-1z" fill="#3a3a38"/><path d="m50 34-42 7v-12z" fill="#1e8bcd"/><path d="m30 39-26 6v-12z" fill="#fb983b"/><path d="m41 16-33 7v-12z" fill="#1e8bcd"/><path d="m50 34-42-5 3-3z" fill="#1e8bcd" fill-rule="evenodd" opacity=".7"/><g fill="#fb983b"><path d="m31 20-27 7v-12z"/><g fill-rule="evenodd"><path d="m30 39-26-6 3-3z" opacity=".7"/><path d="m31 20-27-5 3-3z" opacity=".7"/></g></g><path d="m41 16-33-5 3-3z" fill="#1e8bcd" fill-rule="evenodd" opacity=".7"/></svg>