<svg height="52" viewBox="0 0 60 52" width="60" xmlns="http://www.w3.org/2000/svg"><path d="m0 0h60v52h-60z" fill="#fafafa"/><path d="m3 45h52v1h-52z" fill="#3a3a38"/><path d="m6 3h1v46h-1z" fill="#3a3a38"/><path d="m11 37h1v1h-1z" fill="#fafafa"/><path d="m11 22v1h-1v1h1v1h1v-1h1v-1h-1v-1z" fill="#fafafa"/><g fill="none"><path d="m11.500402 23.5s7.054903-10.7718 12-12.0001 8.155513 4.7496 13 4 13-9 13-9" stroke="#1e8bcd"/><path d="m11.5 37.4999s7.78042-5.9968 11.999605-7.9999 8.516572-3.3259 13-4.0001c4.285157-.6444 13 0 13 0" stroke="#fb983b"/></g></svg>