<svg height="52" viewBox="0 0 60 52" width="60" xmlns="http://www.w3.org/2000/svg"><path d="m0 0h60v52h-60z" fill="#fafafa"/><path d="m10 19h9v27h-9z" fill="#fb983b"/><path d="m19 21h9v25h-9z" fill="#1e8bcd"/><path d="m34 16h9v30h-9z" fill="#fb983b"/><path d="m43 25h9v21h-9z" fill="#1e8bcd"/><path d="m3 45h52v1h-52z" fill="#3a3a38"/><path d="m6 3h1v46h-1z" fill="#4d4d4d"/><g fill="#fb983b"><path d="m13 9h3v5h-3z"/><path d="m14 7h1v9h-1z"/><path d="m37 6h3v5h-3z"/><path d="m38 4h1v9h-1z"/></g><g fill="#1e8bcd"><path d="m22 11h3v5h-3z"/><path d="m23 9h1v9h-1z"/><path d="m46 15h3v5h-3z"/><path d="m47 13h1v9h-1z"/></g></svg>