<svg height="52" viewBox="0 0 60 52" width="60" xmlns="http://www.w3.org/2000/svg"><path d="m0 0h60v52h-60z" fill="#fafafa"/><path d="m3 45h52v1h-52z" fill="#3a3a38"/><path d="m6 3h1v45.999962h-1z" fill="#3a3a38"/><path d="m10 27.000017h3v5h-3z" fill="#fb983b"/><path d="m11 25.000017h1v8.999983h-1z" fill="#fb983b"/><path d="m22 28.000017h3v4.999996h-3z" fill="#1e8bcd"/><path d="m23 26.000017h1v8.999983h-1z" fill="#1e8bcd"/><g fill="#fb983b"><path d="m17 16.000017h3v5h-3z"/><path d="m18 14.000017h1v8.999983h-1z"/><path d="m29 9.000017h3v5h-3z"/><path d="m30 7.000017h1v8.999983h-1z"/><path d="m44 15.000017h3v5h-3z"/><path d="m45 13.000017h1v8.999983h-1z"/></g><g fill="#1e8bcd"><path d="m32 23.000017h3v4.999996h-3z"/><path d="m33 21.000017h1v8.999983h-1z"/><path d="m41 33.000017h3v4.999996h-3z"/><path d="m42 31.000017h1v8.999983h-1z"/><path d="m50 22.000017h3v4.999996h-3z"/><path d="m51 20.000017h1v8.999983h-1z"/></g></svg>