<svg viewBox="0 0 16 16" xmlns="http://www.w3.org/2000/svg"><rect fill="#3a3a38" height="15.999998" ry=".5" width="1" x="1"/><rect fill="#3a3a38" height="1" ry=".5" width="16" y="14"/><g fill="#fb983b"><path d="m4 3h1v1h-1z"/><path d="m6 3h1v1h-1z"/><path d="m6 5h1v1h-1z"/><path d="m4 5h1v1h-1z"/><path d="m9 8h1v1h-1z"/><path d="m9 10h1v1h-1z"/><path d="m11 10h1v1h-1z"/><path d="m11 8h1v1h-1z"/></g><g fill="#1e8bcd"><path d="m12 2h1v1h-1z"/><path d="m13 3h1v1h-1z"/><path d="m12 4h1v1h-1z"/><path d="m11 3h1v1h-1z"/><path d="m5 9h1v1h-1z"/><path d="m6 10h1v1h-1z"/><path d="m5 11h1v1h-1z"/><path d="m4 10h1v1h-1z"/></g></svg>