<svg height="52" viewBox="0 0 60 52" width="60" xmlns="http://www.w3.org/2000/svg"><path d="m0 0h60v52h-60z" fill="#fafafa"/><path d="m3 45h52v1h-52z" fill="#3a3a38"/><path d="m6 3h1v46h-1z" fill="#3a3a38"/><path d="m26.572394 12.825607 2.275262-.690841-.04687.04297.96875.419922.04297-.0625c14.358443-1.5231 16.228283 3.648791 19.464844 8.087891h.002l2.910016-2.023467c-1.178174-6.85029-18.423057-10.9894266-25.616972-5.773975z" fill="#1e8bcd" fill-rule="evenodd" opacity=".7"/><path d="m28.31055 11.9102h-.002l.53711.2246h.002zm.49218.2675-.3789.3536c-11.038336 6.9488-12.077352 15.1638-16.60742 22.4277l-.002.8848 2.883929-2.4196c4.002853-8.3157 9.759405-17.7357 15.071151-20.8265l-.9668-.42zm1.00977.3575c21.962161-2.268 19.061285 11.672 11.11523 24.1796l3.454912-3.78c3.040567-4.4695 8.311154-9.1053 7.790413-14.3944-3.115459 1.6625-3.201885 1.212-5.516158-1.8002-4.691589-3.2679-9.200101-4.8768-16.844757-4.2051z" fill="#1e8bcd" fill-rule="evenodd" opacity=".8"/><path d="m11.5 35.5s8.831585-20.6055 17-23 18.684412 1.6011 21 8-9 16-9 16" fill="none" stroke="#1e8bcd"/><path d="m20.089844 8.2167969c-4.530888 3.2646001-8.34163 7.1021091-9.201172 13.2871091l-.042969.042969.009766.009766-.089844.128906.935547.488281 2.001953-3.017578c-.04505-.048495-.094062-.093712-.138672-.142578-.894732-3.6213 4.155597-6.720672 6.435547-10.013672l.089844-.78125zm-2.982422 13.9843751c.190331.1433.38889.279021.583984.417969-.194981-.139151-.393478-.275014-.583984-.417969zm1.296875.919922c.079538.053077.161953.103807.242187.15625-.07994-.052764-.162908-.102923-.242187-.15625zm33.953125 3.693359c-5.112499 1.761393-10.664772 4.436109-14.806641 4.181641l-2.958984 2.998047-.150391.041015c4.559693-.696 9.79363-2.268428 15.1875-4.048828l-.007812-.027344.044922-.011718z" fill="#fb983b" fill-rule="evenodd" opacity=".8"/><path d="m13.73284 19.1138-2.03167 3.06c3.864703 5.9293 13.168652 8.9308 22.66992 11.8262l-.0137.014.0254-.01.0586.031.15039-.041 3.01172-3.0508-.17579.049c-9.100273-2.9388-18.23744-5.7107-23.69487-11.8784z" fill="#fb983b" fill-rule="evenodd" opacity=".7"/><path d="m20.5 8.5s-10.6689045 6.2441-9 13c1.668905 6.7559 16.130808 11.2403 23 12s15-4 15-4" fill="none" stroke="#fb983b"/></svg>