<svg viewBox="0 0 24 24" xmlns="http://www.w3.org/2000/svg"><g fill="#3a3a38"><path d="m14.98386 10.53994q-.174309 0-.268168-.05363-.09386-.05363-.127379-.221238l-.147493-.6100849q-.254759.2346466-.502814.4223639-.24135.181013-.509518.308393-.268167.127379-.57656.187717-.308393.06704-.677123.06704-.382139 0-.717348-.100563-.328505-.107267-.583264-.321801-.248055-.2212383-.395547-.5430393-.140788-.3285052-.140788-.7709816 0-.3888428.207829-.7441648.214534-.3620261.690532-.643602.475997-.2815759 1.240274-.4558847.764278-.1810131 1.877173-.2078298v-.5028141q0-.7642774-.328505-1.1464161-.321801-.3888428-.945291-.3888428-.415659 0-.703939.107267-.281576.107267-.489406.2346465-.20783.1273796-.362026.2346466-.147492.107267-.301689.107267-.120675 0-.207829-.060338-.08716-.060338-.140788-.1541963l-.214534-.3754322q.543039-.5229266 1.166528-.7776858.630194-.2614633 1.394471-.2614633.549744 0 .978812.1810131.429068.1743089.717348.5028141.28828.3285051.435772.7843899.154196.4558847.154196 1.0123323v4.1901173zm-2.453733-.7240524q.294984 0 .543039-.060338.248055-.060338.469293-.1676046.221238-.1139712.41566-.2748717.201126-.1676047.395547-.3687303v-1.3542459q-.78439.033521-1.334133.1340837-.549744.093859-.898361.2547592-.341914.1609005-.49611.3821386-.154197.214534-.154197.4827015 0 .2547592.08045.4424764.08715.1810131.227942.3016885.140788.1139711.335209.1743088.194422.053634.41566.053634z" transform="matrix(.96731847 0 0 1.0337857 0 -1)"/><path d="m10.370571 21.129267v-8.593795h1.063648v3.523335q.362607-.429086.827953-.676867.465347-.253826 1.069692-.253826.513694 0 .924649.199435.410955.199434.701041.574128.290086.374694.441172.912562.15713.531824.15713 1.208691 0 .719171-.17526 1.305387-.17526.586215-.501607 1.009257-.326347.416998-.791693.64665-.465346.229651-1.045518.229651-.580172 0-.972996-.217564-.386781-.223608-.688954-.616433l-.06044.525781q-.02417.223608-.259868.223608h-.688954zm2.604729-5.161112q-.48952 0-.864214.229651-.368651.229652-.676867.652694v2.852511q.277999.380738.610389.537868.33239.151086.731258.151086.815867 0 1.250996-.586215.435129-.586216.435129-1.746559 0-1.075735-.386782-1.583386-.386781-.50765-1.099909-.50765z" transform="matrix(.96426705 0 0 1.0370571 0 -1)"/></g></svg>