<svg viewBox="0 0 24 24" xmlns="http://www.w3.org/2000/svg"><g fill="#3a3a38"><g transform="matrix(.98224679 0 0 1.0180741 0 1)"><path d="m6.5525651 1.9087192q.9413457 0 1.4532295.6506998.5118839.6463618.5118839 1.8089454 0 1.1799356-.5205599 1.8262974-.5205598.6420238-1.4445535.6420238-.4815178 0-.8589237-.17352-.3774059-.1735199-.6159958-.5162218h-.060732q-.1344779.5205598-.1605059.6029818h-.5596019v-6.74992577h.7808398v1.63976347q0 .4901938-.04338.9803877h.04338q.4815178-.7114318 1.4749195-.7114318zm-.13014.6463618q-.7201077 0-1.0324436.4077719-.3123359.4077718-.3123359 1.3794835v.034704q0 .9760497.3166739 1.3968355.3210119.4164479 1.0454576.4164479.6420238 0 .9543597-.4685038.3166739-.4728419.3166739-1.3621316 0-.9023037-.3166739-1.3534556-.3166739-.4511518-.9717117-.4511518z"/><path d="m9.5067419 3.0539508v-.6290098h4.0690431v.6290098zm0 1.7699034v-.6333477h4.0690431v.6333477z"/><path d="m14.729692 6.2684078q0-.2863079.138816-.4381379.143154-.1561679.403434-.1561679.264618 0 .41211.1561679.147492.15183.147492.4381379 0 .2819699-.147492.4468138-.147492.160506-.41211.160506-.255942 0-.399096-.160506-.143154-.1605059-.143154-.4468138z"/><path d="m17.106915 6.2684078q0-.2863079.138816-.4381379.143154-.1561679.403434-.1561679.264618 0 .41211.1561679.147492.15183.147492.4381379 0 .2819699-.147492.4468138-.147492.160506-.41211.160506-.255942 0-.399096-.160506-.143154-.1605059-.143154-.4468138z"/><path d="m19.484139 6.2684078q0-.2863079.138815-.4381379.143154-.1561679.403434-.1561679.264618 0 .41211.1561679.147492.15183.147492.4381379 0 .2819699-.147492.4468138-.147492.160506-.41211.160506-.255942 0-.399096-.160506-.143153-.1605059-.143153-.4468138z"/></g><path d="m9.8082552 15.623912-1.9660194 3.747473c-.1075235.245629-.304834.422644-.4514561.624045.1650485-.02537.315534-.04312.4514563-.05327.1407767-.01522.2718447-.02283.3932039-.02283h9.7645631v1.08067h-12v-.517505c0-.101471.021845-.202942.065534-.304413.048543-.106545.1067958-.200406.1747573-.281583l2.8033909-4.881414-2.8834942-5.0180421c-.0436893-.0558093-.0825243-.1192289-.1165049-.1902588-.0291262-.0710299-.0436893-.1420599-.0436893-.2130898v-.5936073h12.0000002v1.08067h-9.6043691c-.3613008.02238-.7134355-.05757-1.0412621-.098934.301448.1865342.4740753.5056902.6626213.7458142l1.8058251 3.480752c.3791178.66759.2402748.900106-.014557 1.415524z"/></g></svg>