<svg viewBox="0 0 24 24" xmlns="http://www.w3.org/2000/svg"><path d="m18.450001 10.998479q0 1.789954-.544719 3.270928-.534243 1.47032-1.4875 2.525114-.953257 1.054795-2.273151 1.630137-1.319895.575343-2.870247.575343h-4.7243839l1.6970071-14.0000003h4.7243838q1.267518 0 2.273152.4474886 1.016109.4368341 1.728433 1.2252664.712324.7884323 1.089436 1.8964993.387589 1.108067.387589 2.429224zm-1.896039.04262q0-1.0441407-.261884-1.8858454-.251409-.8417064-.74375-1.4277034-.481867-.5859969-1.183715-.8949772-.691374-.3196347-1.571303-.3196347h-2.8702464l-1.3303697 10.9741247h2.8597711q1.131338 0 2.07412-.436834.942782-.447489 1.613204-1.278538.670423-.831051 1.03706-2.024354.377113-1.193302.377113-2.70624z" fill="#3a3a38" stroke-width=".7"/></svg>