<?xml version="1.0" encoding="utf-8"?>
<!-- Generator: Adobe Illustrator 12.0.1, SVG Export Plug-In . SVG Version: 6.00 Build 51448)  -->
<!DOCTYPE svg PUBLIC "-//W3C//DTD SVG 1.1//EN" "http://www.w3.org/Graphics/SVG/1.1/DTD/svg11.dtd" [
	<!ENTITY ns_svg "http://www.w3.org/2000/svg">
	<!ENTITY ns_xlink "http://www.w3.org/1999/xlink">
]>
<svg  version="1.1" id="Layer_1" xmlns="&ns_svg;" xmlns:xlink="&ns_xlink;" width="110" height="100" viewBox="0 0 110 100"
	 overflow="visible" enable-background="new 0 0 110 100" xml:space="preserve">
<g>
	<linearGradient id="XMLID_11_" gradientUnits="userSpaceOnUse" x1="103.4243" y1="62.939" x2="24.5499" y2="85.9809">
		<stop  offset="0" style="stop-color:#BEBAB6"/>
		<stop  offset="1" style="stop-color:#F2F1F0"/>
	</linearGradient>
	<path fill="url(#XMLID_11_)" stroke="#AFAFAF" stroke-width="1.4675" d="M104.777,75.83c1.083,0.191,1.139,0.697,0.125,1.123
		l-26.27,11.336c-1.015,0.426-2.731,0.623-3.816,0.438l-69.61-14.27c-1.084-0.186-1.114-0.609-0.066-0.941l28.803-8.154
		c1.049-0.332,2.793-0.447,3.875-0.254L104.777,75.83z"/>
	<g>
		<path fill="#006B33" d="M74.665,9.647l-0.412,0.165l-12.017,4.823l-0.938,0.376l-0.003,1.011l-0.214,62.815l-0.004,1.24
			l1.216,0.237l14.635,2.859l0.435,0.085l0.412-0.165l12.017-4.822l0.938-0.376l0.003-1.011l0.215-62.815l0.004-1.239l-1.216-0.238
			L75.1,9.732L74.665,9.647L74.665,9.647z M62.581,78.842l0.214-62.815l12.017-4.823l14.635,2.86l0,0l0,0l-0.215,62.815
			l-12.016,4.822L62.581,78.842L62.581,78.842L62.581,78.842z"/>
	</g>
	<g>
		<path fill="#2F5581" d="M52.892,27.487l-0.412,0.165l-11.452,4.596l-0.938,0.376l-0.003,1.011l-0.142,41.536l-0.004,1.24
			l1.217,0.237l14.636,2.857l0.434,0.085l0.412-0.165l11.452-4.596l0.938-0.376l0.003-1.011l0.142-41.535l0.004-1.24l-1.217-0.237
			l-14.636-2.858L52.892,27.487L52.892,27.487z M41.445,75.176l0.142-41.536l11.452-4.596l14.636,2.858l0,0l0,0l-0.142,41.535
			l-11.452,4.596L41.445,75.176L41.445,75.176L41.445,75.176z"/>
	</g>
	<g>
		<linearGradient id="XMLID_12_" gradientUnits="userSpaceOnUse" x1="44.1655" y1="79.6069" x2="23.8478" y2="38.1588">
			<stop  offset="0" style="stop-color:#BE0000"/>
			<stop  offset="0.05" style="stop-color:#C30707"/>
			<stop  offset="0.34" style="stop-color:#DB2A2A"/>
			<stop  offset="0.4952" style="stop-color:#E43838"/>
			<stop  offset="0.662" style="stop-color:#DA2929"/>
			<stop  offset="0.9807" style="stop-color:#C00303"/>
			<stop  offset="1" style="stop-color:#BE0000"/>
		</linearGradient>
		<polygon fill="url(#XMLID_12_)" points="20.342,47.886 20.258,72.08 35.72,75.099 47.846,70.232 47.928,46.039 32.467,43.02 		"/>
		<path fill="#7C1212" d="M32.393,42.242l-0.412,0.165L20.53,47.002l-0.937,0.376l-0.004,1.011l-0.08,23.069l-0.004,1.24
			l1.217,0.237l14.637,2.857l0.435,0.085l0.411-0.165l11.451-4.596l0.938-0.376l0.003-1.011l0.078-23.068l0.004-1.24l-1.217-0.237
			l-14.635-2.857L32.393,42.242L32.393,42.242z M21.009,71.463l0.08-23.069l11.451-4.595l14.635,2.857l0,0l0,0l-0.078,23.068
			L35.646,74.32L21.009,71.463L21.009,71.463L21.009,71.463z"/>
	</g>
	<g>
		<g>
			<polygon fill="#D60000" points="35.725,51.251 47.176,46.656 47.098,69.724 35.646,74.32 			"/>
			<linearGradient id="XMLID_13_" gradientUnits="userSpaceOnUse" x1="21.0898" y1="47.5249" x2="47.1758" y2="47.5249">
				<stop  offset="0" style="stop-color:#BE0000"/>
				<stop  offset="0.05" style="stop-color:#C30707"/>
				<stop  offset="0.34" style="stop-color:#DB2A2A"/>
				<stop  offset="0.4952" style="stop-color:#E43838"/>
			</linearGradient>
			<polygon fill="url(#XMLID_13_)" points="21.09,48.394 32.541,43.798 47.176,46.656 35.725,51.251 			"/>
			<linearGradient id="XMLID_14_" gradientUnits="userSpaceOnUse" x1="37.6621" y1="80.3184" x2="18.9134" y2="42.0711">
				<stop  offset="0" style="stop-color:#BE0000"/>
				<stop  offset="0.05" style="stop-color:#C30707"/>
				<stop  offset="0.34" style="stop-color:#DB2A2A"/>
				<stop  offset="0.4952" style="stop-color:#E43838"/>
			</linearGradient>
			<polygon fill="url(#XMLID_14_)" points="35.725,51.251 35.646,74.32 21.01,71.462 21.09,48.394 			"/>
		</g>
		<polygon fill="#EE6060" points="21.09,48.394 35.725,51.251 35.646,74.32 34.158,74.007 34.244,52.601 21.087,50.039 		"/>
		<polygon fill="#EE6060" points="35.725,52.712 45.9,48.57 45.904,47.166 35.725,51.251 		"/>
	</g>
	<g>
		<g>
			<linearGradient id="XMLID_15_" gradientUnits="userSpaceOnUse" x1="53.814" y1="38.6758" x2="103.5647" y2="139.1771">
				<stop  offset="0" style="stop-color:#458FD4"/>
				<stop  offset="1" style="stop-color:#5ABEFF"/>
			</linearGradient>
			<polygon fill="url(#XMLID_15_)" points="56.223,36.498 67.676,31.902 67.533,73.437 56.082,78.033 			"/>
			<linearGradient id="XMLID_16_" gradientUnits="userSpaceOnUse" x1="41.5879" y1="32.7705" x2="67.6758" y2="32.7705">
				<stop  offset="0" style="stop-color:#458FD4"/>
				<stop  offset="1" style="stop-color:#5ABEFF"/>
			</linearGradient>
			<polygon fill="url(#XMLID_16_)" points="41.588,33.64 53.039,29.044 67.676,31.902 56.223,36.498 			"/>
			<linearGradient id="XMLID_17_" gradientUnits="userSpaceOnUse" x1="53.6802" y1="77.1875" x2="46.5332" y2="45.7021">
				<stop  offset="0" style="stop-color:#458FD4"/>
				<stop  offset="1" style="stop-color:#5ABEFF"/>
			</linearGradient>
			<polygon fill="url(#XMLID_17_)" points="56.223,36.498 56.082,78.033 41.445,75.175 41.588,33.64 			"/>
		</g>
		<polygon fill="#66CDF6" points="41.588,33.64 56.223,36.498 56.082,78.033 54.379,77.701 54.654,38.039 41.582,35.414 		"/>
		<polygon fill="#66CDF6" points="55.295,38.199 65.114,34.32 65.114,32.529 55.223,36.498 		"/>
	</g>
	<g>
		<g>
			<linearGradient id="XMLID_18_" gradientUnits="userSpaceOnUse" x1="100.4185" y1="95.1743" x2="37.9181" y2="-77.8272">
				<stop  offset="0" style="stop-color:#2FD352"/>
				<stop  offset="1" style="stop-color:#0A813A"/>
			</linearGradient>
			<polygon fill="url(#XMLID_18_)" points="77.432,18.885 89.448,14.063 89.233,76.878 77.217,81.701 			"/>
			<linearGradient id="XMLID_19_" gradientUnits="userSpaceOnUse" x1="69.7896" y1="15.8784" x2="91.6213" y2="13.0031">
				<stop  offset="0" style="stop-color:#25BE4C"/>
				<stop  offset="1" style="stop-color:#51D56D"/>
			</linearGradient>
			<polygon fill="url(#XMLID_19_)" points="62.796,16.026 74.813,11.204 89.448,14.063 77.432,18.885 			"/>
			<linearGradient id="XMLID_20_" gradientUnits="userSpaceOnUse" x1="76.7891" y1="81.2344" x2="62.7317" y2="14.1421">
				<stop  offset="0" style="stop-color:#25BE4C"/>
				<stop  offset="1" style="stop-color:#51D56D"/>
			</linearGradient>
			<polygon fill="url(#XMLID_20_)" points="77.432,18.885 77.217,81.701 62.581,78.841 62.796,16.026 			"/>
		</g>
		<polygon fill="#6BE77D" points="62.796,16.026 77.432,18.885 77.229,81.742 75.563,81.324 75.813,20.323 62.792,17.724 		"/>
		<polygon fill="#6BE77D" points="77.432,18.885 89.448,14.063 89.443,15.494 77.427,20.597 		"/>
	</g>
</g>
</svg>
