<?xml version="1.0" encoding="utf-8"?>
<!-- Generator: Adobe Illustrator 12.0.1, SVG Export Plug-In . SVG Version: 6.00 Build 51448)  -->
<!DOCTYPE svg PUBLIC "-//W3C//DTD SVG 1.1//EN" "http://www.w3.org/Graphics/SVG/1.1/DTD/svg11.dtd" [
	<!ENTITY ns_svg "http://www.w3.org/2000/svg">
	<!ENTITY ns_xlink "http://www.w3.org/1999/xlink">
]>
<svg  version="1.1" id="Layer_1" xmlns="&ns_svg;" xmlns:xlink="&ns_xlink;" width="100.001" height="100"
	 viewBox="0 0 100.001 100" overflow="visible" enable-background="new 0 0 100.001 100" xml:space="preserve">
<g>
	<g>
		
			<linearGradient id="XMLID_3_" gradientUnits="userSpaceOnUse" x1="81.0049" y1="18.8159" x2="32.5122" y2="33.3448" gradientTransform="matrix(0.9948 -0.1019 0.1019 0.9948 0.1028 10.8186)">
			<stop  offset="0.1571" style="stop-color:#00A33D"/>
			<stop  offset="0.5" style="stop-color:#2FD452"/>
			<stop  offset="1" style="stop-color:#00A33D"/>
		</linearGradient>
		<path fill="url(#XMLID_3_)" d="M47.35,15.252c-0.011,0.005-0.022,0.01-0.033,0.016c-14.442,7.336-26.812-0.489-26.935-0.568
			c-0.264-0.171-0.606-0.16-0.858,0.028c-0.251,0.188-0.36,0.513-0.27,0.813l11.472,38.544c0.054,0.183,0.176,0.335,0.341,0.431
			c2.456,1.427,15.482,8.123,30.842-0.209c12.891-6.272,25.158-2.688,25.674-2.532c0.27,0.081,0.562,0.007,0.758-0.195
			c0.195-0.202,0.262-0.494,0.17-0.761L76.234,15c-0.048-0.14-0.135-0.26-0.253-0.351C69.435,9.649,62.934,8.264,47.35,15.252z"/>
		<path fill="#3C8009" d="M64.603,9.684c-4.55,0-10.13,1.552-17.56,4.884c-0.022,0.01-0.044,0.021-0.065,0.032
			c-4.021,2.042-8.242,3.078-12.548,3.078c-7.955,0-13.584-3.573-13.64-3.609c-0.249-0.16-0.532-0.24-0.815-0.24
			c-0.317,0-0.634,0.1-0.899,0.3c-0.503,0.376-0.719,1.025-0.54,1.626c0.103,0.347,10.324,34.755,11.472,38.547
			c0.11,0.364,0.354,0.672,0.682,0.863c2.055,1.193,7.681,3.973,15.533,3.973c5.529,0,10.912-1.395,16.001-4.148
			c4.918-2.391,10.323-3.602,16.068-3.602c5.345,0.001,9.037,1.094,9.074,1.105c0.142,0.042,0.287,0.063,0.432,0.063
			c0.4,0,0.791-0.159,1.078-0.455c0.39-0.403,0.523-0.989,0.346-1.52c-0.038-0.115-3.927-11.714-12.279-35.826
			c-0.096-0.278-0.272-0.522-0.506-0.701C72.425,10.991,68.886,9.684,64.603,9.684L64.603,9.684z M34.429,19.178
			c3.955,0,8.472-0.825,13.227-3.241c7.449-3.341,12.738-4.753,16.946-4.753c4.413,0,7.637,1.552,10.923,4.062
			c8.446,24.384,12.274,35.811,12.274,35.811l0,0l0,0c0,0-3.843-1.168-9.508-1.169c-4.706,0-10.671,0.807-16.74,3.76
			c-5.427,2.944-10.678,3.99-15.329,3.99c-6.461,0-11.764-2.017-14.779-3.77c-1.16-3.833-11.47-38.541-11.47-38.541l0,0l0,0
			C19.973,15.328,25.889,19.178,34.429,19.178L34.429,19.178z M62.232,54.985c0.011-0.007,0.023-0.013,0.034-0.019
			C62.255,54.972,62.244,54.979,62.232,54.985L62.232,54.985z"/>
	</g>
	<path opacity="0.1" fill="#EAF3FB" d="M75.601,15.768c-0.025-0.175-0.051-0.345-0.075-0.521c-6.419-4.904-12.605-6.154-27.868,0.69
		c-15.021,7.631-27.684-0.608-27.684-0.608s10.311,34.707,11.471,38.54c0.418,0.244,0.893,0.493,1.405,0.741
		c-2.474-8.276-10.9-36.64-10.9-36.64s0.209,0.136,0.601,0.354l5.537,16.426c0,0,13.406,0.82,25.361-7.928
		c9.197-7.613,9.308-11.003,22.967-9.685L75.601,15.768z"/>
	<g>
		
			<linearGradient id="XMLID_4_" gradientUnits="userSpaceOnUse" x1="6.8652" y1="47.938" x2="24.7993" y2="43.2674" gradientTransform="matrix(0.8088 -0.0419 0.1416 0.982 8.6154 7.6737)">
			<stop  offset="0.0048" style="stop-color:#ADADAD"/>
			<stop  offset="0.0464" style="stop-color:#B1B1B1"/>
			<stop  offset="0.2369" style="stop-color:#C1C1C1"/>
			<stop  offset="0.3857" style="stop-color:#C7C7C6"/>
			<stop  offset="0.5389" style="stop-color:#BABAB9"/>
			<stop  offset="0.8211" style="stop-color:#989898"/>
			<stop  offset="1" style="stop-color:#7F7F7F"/>
		</linearGradient>
		<path fill="url(#XMLID_4_)" d="M18.822,14.332l-5.892,1.903c-0.473,0.152-0.868,0.497-1.11,0.97
			c-0.299,0.585-0.344,1.313-0.122,1.998l22.193,68.481c0.416,1.283,1.644,2.04,2.737,1.687l5.89-1.902
			c0.473-0.152,0.868-0.496,1.11-0.968c0.3-0.585,0.345-1.314,0.124-2.001L21.559,16.018c-0.221-0.684-0.682-1.248-1.267-1.547
			C19.819,14.228,19.297,14.179,18.822,14.332z"/>
		<path fill="#757575" d="M19.381,13.603c-0.257,0-0.51,0.039-0.753,0.117l-5.896,1.904c-0.636,0.205-1.164,0.663-1.485,1.289
			c-0.376,0.736-0.435,1.643-0.16,2.489L33.28,87.883c0.421,1.307,1.568,2.22,2.788,2.22c0.261,0,0.517-0.041,0.762-0.121l5.885-1.9
			c0.734-0.236,1.324-0.813,1.616-1.584c0.257-0.68,0.269-1.458,0.032-2.193L22.168,15.82c0,0,0,0,0.001,0
			C21.74,14.494,20.62,13.603,19.381,13.603L19.381,13.603z M12.201,18.325c0.002-0.692,0.352-1.293,0.927-1.478l5.892-1.903
			c0.119-0.038,0.24-0.056,0.362-0.056c0.653,0,1.307,0.529,1.565,1.328L43.14,84.698c0.074,0.23,0.109,0.461,0.108,0.683
			c-0.002,0.692-0.352,1.293-0.928,1.478l-5.89,1.903c-0.119,0.039-0.24,0.057-0.362,0.057c-0.653,0-1.308-0.531-1.566-1.331
			L12.31,19.006C12.235,18.777,12.2,18.546,12.201,18.325L12.201,18.325z"/>
	</g>
</g>
</svg>
