<?xml version="1.0" encoding="utf-8"?>
<!-- Generator: Adobe Illustrator 12.0.1, SVG Export Plug-In . SVG Version: 6.00 Build 51448)  -->
<!DOCTYPE svg PUBLIC "-//W3C//DTD SVG 1.1//EN" "http://www.w3.org/Graphics/SVG/1.1/DTD/svg11.dtd" [
	<!ENTITY ns_svg "http://www.w3.org/2000/svg">
	<!ENTITY ns_xlink "http://www.w3.org/1999/xlink">
]>
<svg  version="1.1" id="Layer_1" xmlns="&ns_svg;" xmlns:xlink="&ns_xlink;" width="100.001" height="100"
	 viewBox="0 0 100.001 100" overflow="visible" enable-background="new 0 0 100.001 100" xml:space="preserve">
<g>
	<g>
		<linearGradient id="XMLID_11_" gradientUnits="userSpaceOnUse" x1="50.2808" y1="88.6538" x2="50.2808" y2="47.1056">
			<stop  offset="0" style="stop-color:#BEBAB6"/>
			<stop  offset="1" style="stop-color:#F2F1F0"/>
		</linearGradient>
		<path fill="url(#XMLID_11_)" d="M19.566,33.222c-2.783,0-5.359,0.262-5.359,2.159v50.191c0,1.19,1.076,2.16,2.399,2.16h66.789
			c1.322,0,2.398-0.97,2.398-2.16V35.381l-0.098-0.692c0,0-0.006-0.033-0.01-0.05c0.123-0.021,0.322-0.042,0.668-0.042v-1.375
			H19.566z"/>
		<path fill="#606060" d="M86.354,32.536H19.565c-2.019,0-3.386,0.167-4.302,0.526c-1.518,0.594-1.744,1.709-1.744,2.32v50.19
			c0,1.57,1.385,2.848,3.087,2.848h66.788c0.786,0,1.534-0.271,2.107-0.765c0.622-0.536,0.978-1.295,0.978-2.083v-50.19
			c0-0.347-0.066-0.637-0.115-0.848c-0.003-0.014-0.007-0.03-0.011-0.047V33.91l0,0l0,0c-1.141,0-1.39,0.212-1.391,0.543
			c-0.001,0.253,0.143,0.577,0.143,0.93v50.19l0,0l0,0c0,0.813-0.766,1.474-1.711,1.474H16.606c-0.946,0-1.713-0.66-1.713-1.474
			v-50.19l0,0l0,0c0-0.813,0.767-1.473,4.672-1.473h66.788V32.536L86.354,32.536z M85.755,35.325L85.755,35.325L85.755,35.325
			L85.755,35.325z"/>
	</g>
	<g>
		<linearGradient id="XMLID_12_" gradientUnits="userSpaceOnUse" x1="50.0005" y1="50.8169" x2="50.0005" y2="31.7212">
			<stop  offset="0" style="stop-color:#BEBAB6"/>
			<stop  offset="1" style="stop-color:#F2F1F0"/>
		</linearGradient>
		<path fill="url(#XMLID_12_)" d="M14.851,32.891c-1.585,0-2.875,1.152-2.875,2.569V46.44c0,1.417,1.29,2.569,2.875,2.569h70.3
			c1.585,0,2.875-1.152,2.875-2.569V35.46c0-1.417-1.29-2.569-2.875-2.569H14.851z"/>
		<path fill="#606060" d="M85.15,32.205h-70.3c-1.964,0-3.562,1.461-3.562,3.257V46.44c0,1.795,1.598,3.256,3.562,3.256h70.3
			c1.964,0,3.562-1.461,3.562-3.256V35.461C88.712,33.666,87.114,32.205,85.15,32.205L85.15,32.205z M12.663,35.461
			c0-1.039,0.979-1.883,2.188-1.883h70.3c1.208,0,2.187,0.844,2.187,1.883V46.44l0,0l0,0c0,1.039-0.979,1.882-2.187,1.882h-70.3
			c-1.209,0-2.188-0.843-2.188-1.882V35.461L12.663,35.461L12.663,35.461z"/>
	</g>
	<path opacity="0.47" fill="#FFFFFF" d="M85.151,33.579h-70.3c-1.208,0-2.188,0.843-2.188,1.882v1.404
		c0-1.039,0.979-1.882,2.188-1.882h70.3c1.208,0,2.188,0.843,2.188,1.882V35.46C87.338,34.421,86.359,33.579,85.151,33.579z"/>
	<linearGradient id="XMLID_13_" gradientUnits="userSpaceOnUse" x1="28.2217" y1="14.1934" x2="34.638" y2="26.5265">
		<stop  offset="0" style="stop-color:#9D0000"/>
		<stop  offset="1" style="stop-color:#BE0000"/>
	</linearGradient>
	<path fill="url(#XMLID_13_)" stroke="#BE0000" d="M23.95,24.547c0,0,1.426-5.145,8.176-2.395c6.75,2.75,9.842,5.087,10.671,5.087
		s2.869,0,2.869,0l-3.873-6.004l-8.833-4.75l-7,0.417l-2.667,3.75v4.552L23.95,24.547z"/>
	
		<linearGradient id="XMLID_14_" gradientUnits="userSpaceOnUse" x1="28.3281" y1="14.1938" x2="34.7445" y2="26.527" gradientTransform="matrix(-1 0 0 1 99.5449 0)">
		<stop  offset="0" style="stop-color:#9D0000"/>
		<stop  offset="1" style="stop-color:#BE0000"/>
	</linearGradient>
	<path fill="url(#XMLID_14_)" stroke="#BE0000" d="M75.489,24.547c0,0-1.427-5.145-8.177-2.395c-6.75,2.75-9.842,5.087-10.671,5.087
		s-2.869,0-2.869,0l3.873-6.004l8.833-4.75l7,0.417l2.667,3.75v4.552L75.489,24.547z"/>
	<g>
		<linearGradient id="XMLID_15_" gradientUnits="userSpaceOnUse" x1="49.77" y1="30.9497" x2="51.0521" y2="84.2805">
			<stop  offset="0" style="stop-color:#FF5F06"/>
			<stop  offset="0.1061" style="stop-color:#F95507"/>
			<stop  offset="1" style="stop-color:#CB0212"/>
		</linearGradient>
		<path fill="url(#XMLID_15_)" d="M45.576,30.301c-0.666,0-1.293,0.261-1.766,0.734c-0.473,0.473-0.734,1.101-0.734,1.766v53.837
			c0,0.666,0.261,1.293,0.734,1.767c0.473,0.473,1.1,0.733,1.766,0.733h9.771c1.378,0,2.5-1.121,2.5-2.5V32.801
			c0-1.379-1.122-2.5-2.5-2.5H45.576z"/>
		<path fill="#BE0000" d="M55.347,29.802h-9.771c-1.654,0-3,1.346-3,3v53.837c0,1.654,1.346,3,3,3h9.771c1.654,0,3-1.346,3-3V32.802
			C58.347,31.148,57,29.802,55.347,29.802L55.347,29.802z M43.575,32.802c0-1.101,0.899-2,2-2h9.771c1.101,0,2,0.899,2,2v53.837l0,0
			l0,0c0,1.1-0.899,2-2,2h-9.771c-1.101,0-2-0.9-2-2V32.802L43.575,32.802L43.575,32.802z"/>
	</g>
	<path opacity="0.2" fill="#FFFFFF" d="M55.347,30.801h-9.771c-1.101,0-2,0.9-2,2v3c0-1.1,0.899-2,2-2h9.771c1.101,0,2,0.9,2,2v-3
		C57.347,31.702,56.448,30.801,55.347,30.801z"/>
	<linearGradient id="XMLID_16_" gradientUnits="userSpaceOnUse" x1="75.3276" y1="10.4839" x2="60.4524" y2="36.3594">
		<stop  offset="0" style="stop-color:#FF5F06"/>
		<stop  offset="0.1061" style="stop-color:#F95507"/>
		<stop  offset="1" style="stop-color:#CB0212"/>
	</linearGradient>
	<path fill="url(#XMLID_16_)" stroke="#BE0000" d="M74.736,11.583c-8.978-2.207-25.037,12.878-25.037,12.878l-0.636,1.993l1.224,3.9
		c0,0,25.374,6.237,31.637-1.222C88.187,21.674,83.713,13.79,74.736,11.583z M74.596,26.921c-1.933,2.302-10.853,1.702-17.515,0.318
		c-0.058-0.181-0.071-0.226-0.119-0.375c0.006-0.019,0.006-0.019,0.012-0.035c4.825-4.382,11.711-8.655,14.329-8.01
		c2.235,0.549,3.877,1.732,4.506,3.245C76.428,23.558,76.01,25.238,74.596,26.921z"/>
	<linearGradient id="XMLID_17_" gradientUnits="userSpaceOnUse" x1="20.4453" y1="13.9292" x2="39.1959" y2="31.6797">
		<stop  offset="0" style="stop-color:#FF5F06"/>
		<stop  offset="0.1061" style="stop-color:#F95507"/>
		<stop  offset="1" style="stop-color:#CB0212"/>
	</linearGradient>
	<path fill="url(#XMLID_17_)" stroke="#BE0000" d="M50.18,24.461c0,0-16.06-15.085-25.037-12.878s-13.45,10.091-7.188,17.55
		c6.263,7.459,31.637,1.222,31.637,1.222l1.224-3.9L50.18,24.461z M42.797,27.24c-6.662,1.384-14.748,2.448-17.515-0.318
		c-1.414-1.684-1.832-3.363-1.213-4.857c0.808-1.691,2.147-3.127,4.506-3.245c5.051,0,9.504,3.628,14.329,8.01
		c0.006,0.017,0.006,0.017,0.012,0.035C42.869,27.014,42.855,27.059,42.797,27.24z"/>
	
		<linearGradient id="XMLID_18_" gradientUnits="userSpaceOnUse" x1="32.0635" y1="37.2808" x2="53.9165" y2="37.2808" gradientTransform="matrix(0.9819 0.1893 -0.1893 0.9819 1.0267 -9.8138)">
		<stop  offset="0" style="stop-color:#FF5F06"/>
		<stop  offset="0.1061" style="stop-color:#F95507"/>
		<stop  offset="1" style="stop-color:#CB0212"/>
	</linearGradient>
	<path fill="url(#XMLID_18_)" stroke="#BE0000" d="M46.647,27.155c0,0-10.735,0.766-14.674,3.431
		c-3.938,2.666-7.763,8.719-7.763,8.719l12.666,5.552c0,0,0.619-8.523,2.583-10.335c1.432-1.381,8.75-4.264,8.75-4.264
		L46.647,27.155z"/>
	
		<linearGradient id="XMLID_19_" gradientUnits="userSpaceOnUse" x1="42.9468" y1="34.6274" x2="64.6494" y2="34.6274" gradientTransform="matrix(-0.9819 0.1893 0.1893 0.9819 110.7506 -9.8138)">
		<stop  offset="0" style="stop-color:#FF5F06"/>
		<stop  offset="0.1061" style="stop-color:#F95507"/>
		<stop  offset="1" style="stop-color:#CB0212"/>
	</linearGradient>
	<path fill="url(#XMLID_19_)" stroke="#BE0000" d="M54.27,25.384c0,0,10.734,2.9,14.673,5.566c3.938,2.665,7.291,7.06,7.291,7.06
		l-11.206,7.21c0,0-1.607-8.523-3.571-10.335c-1.432-1.38-8.749-4.264-8.749-4.264L54.27,25.384z"/>
	<g>
		<linearGradient id="XMLID_20_" gradientUnits="userSpaceOnUse" x1="50.3647" y1="21.5352" x2="50.3647" y2="30.1192">
			<stop  offset="0" style="stop-color:#FF5F06"/>
			<stop  offset="0.1061" style="stop-color:#F95507"/>
			<stop  offset="1" style="stop-color:#CB0212"/>
		</linearGradient>
		<path fill="url(#XMLID_20_)" d="M47.58,20.779c-1.892,0-3.431,1.239-3.431,2.763v5.935c0,1.523,1.539,2.763,3.431,2.763h5.57
			c1.892,0,3.43-1.239,3.43-2.763v-5.935c0-1.523-1.539-2.763-3.43-2.763H47.58z"/>
		<path fill="#BE0000" d="M53.149,20.164h-5.57c-2.269,0-4.046,1.484-4.046,3.378v5.935c0,1.893,1.777,3.377,4.046,3.377h5.57
			c2.268,0,4.045-1.484,4.045-3.377v-5.935C57.194,21.648,55.417,20.164,53.149,20.164L53.149,20.164z M44.764,23.542
			c0-1.187,1.26-2.148,2.816-2.148h5.57c1.555,0,2.815,0.962,2.815,2.148v5.935l0,0l0,0c0,1.186-1.26,2.147-2.815,2.147h-5.57
			c-1.556,0-2.816-0.962-2.816-2.147V23.542L44.764,23.542L44.764,23.542z"/>
	</g>
	<g opacity="0.2">
		<path fill="#FFFFFF" d="M53.15,21.394h-5.57c-1.556,0-2.816,0.962-2.816,2.148v1.5c0-1.186,1.26-2.148,2.816-2.148h5.57
			c1.555,0,2.815,0.962,2.815,2.148v-1.5C55.965,22.355,54.705,21.394,53.15,21.394z"/>
	</g>
	<path opacity="0.07" d="M56.589,50.553c0,0.654-0.357,1.185-0.798,1.185H45.337c-0.441,0-0.799-0.53-0.799-1.185l0,0
		c0-0.655,0.358-1.186,0.799-1.186h10.454C56.232,49.368,56.589,49.898,56.589,50.553L56.589,50.553z"/>
</g>
</svg>
