<?xml version="1.0" encoding="utf-8"?>
<!-- Generator: Adobe Illustrator 12.0.1, SVG Export Plug-In . SVG Version: 6.00 Build 51448)  -->
<!DOCTYPE svg PUBLIC "-//W3C//DTD SVG 1.1//EN" "http://www.w3.org/Graphics/SVG/1.1/DTD/svg11.dtd" [
	<!ENTITY ns_svg "http://www.w3.org/2000/svg">
	<!ENTITY ns_xlink "http://www.w3.org/1999/xlink">
]>
<svg  version="1.1" id="Layer_1" xmlns="&ns_svg;" xmlns:xlink="&ns_xlink;" width="100.001" height="100"
	 viewBox="0 0 100.001 100" overflow="visible" enable-background="new 0 0 100.001 100" xml:space="preserve">
<g>
	<linearGradient id="XMLID_8_" gradientUnits="userSpaceOnUse" x1="26.9995" y1="90.0791" x2="30.333" y2="93.4128">
		<stop  offset="0" style="stop-color:#797979"/>
		<stop  offset="1" style="stop-color:#000000"/>
	</linearGradient>
	<g>
		<radialGradient id="XMLID_9_" cx="47.1997" cy="49.4824" r="35.6029" gradientUnits="userSpaceOnUse">
			<stop  offset="0" style="stop-color:#51D56D"/>
			<stop  offset="1" style="stop-color:#25BE4C"/>
		</radialGradient>
		<path fill="url(#XMLID_9_)" d="M46.56,13.377l-4.052,17.942c-0.373,1.65-0.081,3.346,0.823,4.775
			c0.902,1.428,2.305,2.418,3.952,2.788c0.001,0,1.272,0.157,1.272,0.157c3.741,0.563,7.569-0.304,10.77-2.412
			c2.188,0.846,3.4,2.396,3.667,4.757c-1.051,7.771-7.579,25.361-14.202,30.185c-1.361,0.621-2.604,0.638-3.92,0.096
			c-0.764-3.823-2.879-7.195-6.033-9.505c0.033,0.053-0.849-0.646-0.849-0.646c-1.471-0.963-3.217-1.299-4.918-0.943
			c-1.646,0.343-3.054,1.298-3.965,2.689L19.027,78.645c-1.908,2.916-1.032,6.879,1.953,8.834l0.997,0.532
			c2.976,1.738,6.514,2.387,9.973,1.895c0.12,0.032,0.242,0.065,0.242,0.065c0.127,0.034,12.853,3.34,25.183-6.775
			c12.055-10.522,19.007-26.289,19.007-42.743c0-1.191-0.037-2.387-0.11-3.583c-0.265-8.272-6.947-15.065-10.965-18.417
			c-1.71-4.625-5.535-8.199-10.29-9.564c-0.006,0-0.897-0.282-0.897-0.282C50.72,7.839,47.329,9.979,46.56,13.377z"/>
		<path fill="#017731" d="M52.722,7.951c-1.523,0-3.024,0.522-4.226,1.471c-1.22,0.962-2.081,2.328-2.424,3.845L42.02,31.21
			c-0.402,1.778-0.088,3.607,0.885,5.149s2.488,2.612,4.266,3.013c0.43,0.098,0.87,0.153,1.308,0.167
			c0.769,0.111,1.548,0.168,2.317,0.168c3.072,0,6.043-0.87,8.625-2.522c1.815,0.785,2.821,2.158,3.07,4.184
			c-0.566,4.115-2.532,10.425-5.028,16.128c-2.928,6.692-6.081,11.52-8.888,13.611c-0.699,0.313-1.338,0.466-1.952,0.466
			c-0.422,0-0.843-0.073-1.278-0.223c-0.824-3.86-3.015-7.251-6.212-9.593l-0.116-0.085c-0.249-0.218-0.498-0.407-0.754-0.575
			c-1.164-0.761-2.502-1.162-3.873-1.162c-2.319,0-4.451,1.141-5.703,3.051L18.608,78.371c-2.058,3.146-1.118,7.419,2.098,9.526
			c0.299,0.196,0.618,0.369,0.973,0.528c2.45,1.422,5.238,2.174,8.063,2.174c0.754,0,1.513-0.054,2.264-0.16l0.053,0.014
			c0.088,0.024,2.184,0.584,5.49,0.584c5.043,0,12.63-1.293,20.141-7.455l0.012-0.01l0.012-0.01
			c6.164-5.382,11.176-12.32,14.493-20.064c1.737-4.057,3.009-8.325,3.781-12.689c0.807-4.564,1.07-9.259,0.782-13.955
			c0,0.005,0,0.009,0,0.014c-0.269-8.389-6.918-15.248-11.014-18.692c-1.778-4.713-5.704-8.347-10.56-9.755
			c-0.359-0.139-0.667-0.234-0.969-0.301c0.001,0,0.001,0,0.002,0C53.732,8.007,53.225,7.951,52.722,7.951L52.722,7.951z
			 M55.18,8.415c-0.009-0.002-0.018-0.005-0.026-0.008C55.162,8.41,55.171,8.413,55.18,8.415L55.18,8.415z M55.241,8.438
			c-0.009-0.003-0.018-0.007-0.027-0.011C55.223,8.43,55.232,8.434,55.241,8.438L55.241,8.438z M42.851,32.747
			c-0.002-0.435,0.045-0.875,0.145-1.316l4.052-17.943c0.611-2.701,3.013-4.537,5.675-4.537c0.425,0,0.856,0.047,1.288,0.144
			c0.301,0.067,0.588,0.165,0.867,0.274c4.804,1.379,8.449,4.973,10.032,9.402c4.088,3.395,10.603,10.047,10.862,18.129
			c0.078,1.262,0.114,2.512,0.112,3.751c-0.03,17.419-7.783,32.517-18.827,42.159c-7.336,6.018-14.738,7.228-19.507,7.228
			c-3.21,0-5.227-0.549-5.227-0.549l0,0l0,0l0.049-0.12c-0.866,0.153-1.746,0.231-2.629,0.231c-2.584,0-5.196-0.664-7.569-2.043l0,0
			l0,0c-0.292-0.133-0.583-0.281-0.863-0.459c-0.019-0.012-0.037-0.024-0.056-0.036c-1.767-1.158-2.734-3.071-2.739-5.003
			c-0.002-1.084,0.298-2.174,0.93-3.139l10.078-15.386c1.105-1.687,2.958-2.599,4.866-2.599c1.137,0,2.293,0.324,3.324,0.998
			c0.297,0.195,0.566,0.414,0.816,0.646l0.012-0.015c3.234,2.369,5.269,5.816,5.926,9.511c0.708,0.323,1.414,0.498,2.156,0.498
			c0.768,0,1.575-0.188,2.461-0.599C55.722,67.14,62.429,49.471,63.5,41.378c-0.335-3.128-2.197-4.604-4.197-5.313
			c-2.458,1.689-5.413,2.643-8.506,2.643c-0.738,0-1.484-0.055-2.232-0.167c-0.388-0.008-0.78-0.055-1.173-0.144
			C44.695,37.789,42.863,35.399,42.851,32.747L42.851,32.747z M21.777,88.47c-0.032-0.014-0.065-0.026-0.096-0.043
			C21.713,88.441,21.745,88.455,21.777,88.47L21.777,88.47z"/>
	</g>
	
		<radialGradient id="XMLID_10_" cx="67.4468" cy="62.3428" r="27.8089" gradientTransform="matrix(1.3305 0.1372 0.0782 1.0976 -41.2404 -24.0362)" gradientUnits="userSpaceOnUse">
		<stop  offset="0" style="stop-color:#51D56D"/>
		<stop  offset="1" style="stop-color:#25BE4C"/>
	</radialGradient>
	<path fill="url(#XMLID_10_)" d="M32.323,89.488c0,0,12.461,3.389,24.734-6.68c11.83-10.327,19.883-26.915,18.715-45.909
		c-0.379-11.809-14.117-20.57-14.117-20.57s-6.842,18.162-7.747,18.857c-0.904,0.693,8.786-1.352,9.592,6.19
		c-1.069,8.093-7.776,25.762-14.415,30.597c-3.257,1.509-5.443,0.047-8.615-2.852L32.323,89.488z"/>
	<linearGradient id="XMLID_11_" gradientUnits="userSpaceOnUse" x1="37.4985" y1="61.8398" x2="21.0463" y2="87.8121">
		<stop  offset="0.0048" style="stop-color:#00A23D"/>
		<stop  offset="0.519" style="stop-color:#1EC14A"/>
		<stop  offset="1" style="stop-color:#00A23D"/>
	</linearGradient>
	<path fill="url(#XMLID_11_)" d="M37.713,61.933c2.761,1.807,3.566,5.453,1.803,8.145L29.44,85.464
		c-1.761,2.688-5.426,3.406-8.186,1.597l0,0c-2.758-1.808-3.567-5.454-1.809-8.142l10.078-15.385
		C31.288,60.841,34.954,60.125,37.713,61.933L37.713,61.933z"/>
	<radialGradient id="XMLID_12_" cx="33.437" cy="76.082" r="12.4421" gradientUnits="userSpaceOnUse">
		<stop  offset="0" style="stop-color:#51D56D"/>
		<stop  offset="1" style="stop-color:#25BE4C"/>
	</radialGradient>
	<path fill="url(#XMLID_12_)" d="M22.173,87.556c6.853,3.982,15.692,2.006,20.085-4.701c4.396-6.713,2.678-15.605-3.717-20.291
		L22.173,87.556z"/>
	<linearGradient id="XMLID_13_" gradientUnits="userSpaceOnUse" x1="54.4009" y1="9.9517" x2="46.4992" y2="39.403">
		<stop  offset="0.0048" style="stop-color:#00A23D"/>
		<stop  offset="0.519" style="stop-color:#1EC14A"/>
		<stop  offset="1" style="stop-color:#00A23D"/>
	</linearGradient>
	<path fill="url(#XMLID_13_)" d="M47.392,38.396c3.138,0.711,6.253-1.26,6.962-4.398l4.053-17.942
		c0.708-3.136-1.258-6.253-4.396-6.961l0,0c-3.137-0.708-6.254,1.261-6.963,4.394L42.996,31.43
		C42.287,34.569,44.254,37.688,47.392,38.396L47.392,38.396z"/>
	
		<radialGradient id="XMLID_14_" cx="102.7944" cy="113.79" r="12.4413" gradientTransform="matrix(0.6953 0.7188 0.7188 -0.6953 -98.8581 30.6548)" gradientUnits="userSpaceOnUse">
		<stop  offset="0" style="stop-color:#51D56D"/>
		<stop  offset="1" style="stop-color:#25BE4C"/>
	</radialGradient>
	<path fill="url(#XMLID_14_)" d="M54.823,9.353c7.627,2.156,12.353,9.883,10.586,17.704c-1.769,7.827-9.355,12.774-17.17,11.436
		L54.823,9.353z"/>
	<path opacity="0.2" fill="#FFFFFF" d="M45.109,72.075c2.309,0.941,7.192-0.053,13.933-16.896
		c7.359-17.574,1.705-18.779,1.705-18.779s0.506-0.383,1.822-2.629c0.877,1.564,3.326,3.766,1.672,11.484
		c0,0-5.776,17.299-10.529,24.469c-2.986,3.951-8.68,4.305-8.474,3.914C45.734,72.7,45.109,72.075,45.109,72.075z"/>
	<g>
		<path opacity="0.11" d="M64.993,18.839c0,0,1.716,6.709-0.071,9.904c1.917-3.393,2.147-5.449,2.54-7.68L64.993,18.839z"/>
		<path opacity="0.11" d="M59.036,36.055c0,0,5.518-4.187,6.105-7.799c-0.609,3.849-2.613,7.009-3.693,9L59.036,36.055z"/>
	</g>
	<g>
		<path opacity="0.11" d="M44.471,71.12c0,0,0.166,8.025-2.855,11.156c3.232-3.319,4.082-5.579,5.174-7.992L44.471,71.12z"/>
		<path opacity="0.11" d="M32.561,88.967c0,0,7.742-3.261,9.453-7.182C40.211,85.966,36.94,89,35.096,90.96L32.561,88.967z"/>
	</g>
</g>
</svg>
