<?xml version="1.0" encoding="utf-8"?>
<!-- Generator: Adobe Illustrator 12.0.1, SVG Export Plug-In . SVG Version: 6.00 Build 51448)  -->
<!DOCTYPE svg PUBLIC "-//W3C//DTD SVG 1.1//EN" "http://www.w3.org/Graphics/SVG/1.1/DTD/svg11.dtd" [
	<!ENTITY ns_svg "http://www.w3.org/2000/svg">
	<!ENTITY ns_xlink "http://www.w3.org/1999/xlink">
]>
<svg  version="1.1" id="Layer_1" xmlns="&ns_svg;" xmlns:xlink="&ns_xlink;" width="100" height="100" viewBox="0 0 100 100"
	 overflow="visible" enable-background="new 0 0 100 100" xml:space="preserve">
<g>
	<g>
		<linearGradient id="XMLID_12_" gradientUnits="userSpaceOnUse" x1="53.1655" y1="26.376" x2="43.7966" y2="87.2735">
			<stop  offset="0" style="stop-color:#BE0000"/>
			<stop  offset="0.05" style="stop-color:#C30707"/>
			<stop  offset="0.34" style="stop-color:#DB2A2A"/>
			<stop  offset="0.4952" style="stop-color:#E43838"/>
			<stop  offset="0.662" style="stop-color:#DA2929"/>
			<stop  offset="0.9807" style="stop-color:#C00303"/>
			<stop  offset="1" style="stop-color:#BE0000"/>
		</linearGradient>
		<path fill="url(#XMLID_12_)" d="M51.188,9.631c-0.004,0-0.813,0.017-0.813,0.017c-0.009,0-0.259,0.008-0.259,0.008L49.32,9.688
			c-10.083,0.481-19.719,3.741-28.642,9.69l-0.05,0.033l-0.046,0.039c-7.476,6.322-11.26,13.238-11.26,20.573
			c0,0.332,0.008,0.664,0.023,0.998c-0.001-0.002-0.001,0.063,1.556,23.204c0.021,0.319,0.592,7.896,6.952,14.257l0.542,0.542
			c0,0,33.193-16.953,33.602-17.161c0.458-0.018,37.926-1.48,37.926-1.48V37.814C88.85,20.1,71.877,13.834,71.273,13.618
			C69.61,12.567,61.992,9.493,51.188,9.631z M51.186,9.631c0,0,0.001,0,0.002,0C51.187,9.631,51.186,9.631,51.186,9.631z"/>
		<path fill="#7C1212" d="M51.875,8.575c-0.228,0-0.456,0.002-0.686,0.004c-0.057,0-0.123,0.001-0.192,0.002
			c-0.216,0.003-0.434,0.008-0.654,0.015l-0.124,0.003l-0.118,0.003l-0.013,0.001h-0.013c-0.221,0.008-0.443,0.018-0.667,0.027
			c0.006,0,0.012,0,0.019,0c-0.039,0.001-0.077,0.002-0.115,0.004l-0.014,0.001h0.015c-0.782,0.021-1.451,0.579-1.814,0.579
			c-0.164,0-0.266-0.113-0.289-0.441c-9.529,0.811-18.641,4.08-27.117,9.729l-0.1,0.066l-0.092,0.078
			c-4.302,3.639-7.455,7.538-9.371,11.591c-1.656,3.501-2.408,7.146-2.237,10.833c-0.001-0.028-0.002-0.057-0.002-0.085
			c0.002,0.126,0.062,1.058,1.56,23.311c0.021,0.325,0.588,7.854,6.713,14.37l0.208,2.37l1.419-0.726l3.046,3.048l-0.41-4.395
			l31.44-16.057l36.683-1.431l2.024-0.079V59.37V37.815v-0.064l-0.004-0.064c-0.467-7.703-3.975-14.487-10.144-19.62
			c-4.01-3.335-7.908-4.952-8.979-5.359c-1.373-0.865-4.274-1.807-5.968-2.277C62.824,9.584,57.912,8.575,51.875,8.575L51.875,8.575
			z M10.376,40.045c-0.001-5.835,2.558-12.747,10.886-19.79c10.1-6.733,19.911-9.123,28.108-9.514
			c0.037-0.001,0.074-0.004,0.112-0.005c0.224-0.01,0.447-0.019,0.669-0.027c0.085-0.002,0.169-0.005,0.252-0.007
			c0.21-0.006,0.418-0.011,0.625-0.014c0.058-0.001,0.114-0.002,0.171-0.002c0.227-0.002,0.451-0.004,0.676-0.004
			c10.982,0,18.533,3.442,19.007,3.915c0,0,16.932,5.834,17.987,23.218V59.37l0,0l0,0l-37.146,1.449L18.598,77.737
			c-0.214-2.445-0.287-3.272-0.288-3.285c0.001,0.015,0.102,1.164,0.183,2.099l0,0c0.057,0.645,0.104,1.187,0.104,1.187
			c-6.152-6.153-6.645-13.582-6.645-13.582s-1.555-23.107-1.555-23.183C10.384,40.666,10.376,40.357,10.376,40.045L10.376,40.045z
			 M72.37,13.105c-0.073-0.073-0.161-0.146-0.261-0.221C72.202,12.95,72.289,13.024,72.37,13.105L72.37,13.105z"/>
	</g>
	<g>
		<path fill="#EE6060" d="M49.71,38.868L16.874,55.901c0,0-17.209-17.385,4.39-35.646c25.286-16.857,48.772-6.506,49.62-5.658
			c0,0,16.932,5.834,17.986,23.218L49.71,38.868z"/>
		<linearGradient id="XMLID_13_" gradientUnits="userSpaceOnUse" x1="96.1919" y1="5.2183" x2="20.3375" y2="44.7257">
			<stop  offset="0" style="stop-color:#BE0000"/>
			<stop  offset="0.05" style="stop-color:#C30707"/>
			<stop  offset="0.34" style="stop-color:#DB2A2A"/>
			<stop  offset="0.4952" style="stop-color:#E43838"/>
		</linearGradient>
		<path fill="url(#XMLID_13_)" d="M23.229,19.831c-6.375,5.417-9.756,11.227-10.038,17.271c-0.014,0.276-0.02,0.551-0.02,0.821
			c0,6.167,3.229,11.089,4.904,13.229c2.708-1.405,31.781-16.485,31.781-16.485s33.254-0.896,37.337-1.005
			C85.067,19.625,71.486,14.692,70.879,14.48l-0.363-0.127c0,0-0.112-0.096-0.223-0.191c-0.744-0.465-6.576-3.002-15.29-3.424
			C47.312,10.365,35.565,11.646,23.229,19.831z"/>
		<linearGradient id="XMLID_14_" gradientUnits="userSpaceOnUse" x1="19.208" y1="53.0322" x2="-2.4483" y2="82.0698">
			<stop  offset="0" style="stop-color:#BE0000"/>
			<stop  offset="0.101" style="stop-color:#C30707"/>
			<stop  offset="0.6865" style="stop-color:#DB2A2A"/>
			<stop  offset="1" style="stop-color:#E43838"/>
		</linearGradient>
		<path fill="url(#XMLID_14_)" d="M16.879,55.911c0,0,1.074,14.433,1.72,21.825c-6.152-6.153-6.646-13.582-6.646-13.582l-1.555-23.2
			C10.399,40.954,10.352,48.747,16.879,55.911z"/>
		<linearGradient id="XMLID_15_" gradientUnits="userSpaceOnUse" x1="54.9438" y1="44.1943" x2="48.6222" y2="85.285">
			<stop  offset="0" style="stop-color:#BE0000"/>
			<stop  offset="0.101" style="stop-color:#C30707"/>
			<stop  offset="0.6865" style="stop-color:#DB2A2A"/>
			<stop  offset="1" style="stop-color:#E43838"/>
		</linearGradient>
		<polygon fill="url(#XMLID_15_)" points="88.87,37.814 88.87,59.369 51.725,60.818 18.599,77.736 16.879,55.911 49.71,38.868 		"/>
	</g>
	<g>
		<g>
			<linearGradient id="XMLID_16_" gradientUnits="userSpaceOnUse" x1="93.604" y1="68.7949" x2="43.8866" y2="79.4281">
				<stop  offset="0" style="stop-color:#458FD4"/>
				<stop  offset="1" style="stop-color:#5ABEFF"/>
			</linearGradient>
			<path fill="url(#XMLID_16_)" d="M89.233,60.394L41.667,79.396c-0.429,0.172-0.696,0.603-0.659,1.063l0.388,4.773
				c0.04,0.492,0.417,0.891,0.906,0.959c0.546,0.075,13.548,1.791,27.625-3.756c15.977-6.279,20.517-20.159,20.703-20.748
				c0.122-0.388,0.011-0.812-0.288-1.089C90.042,60.323,89.611,60.243,89.233,60.394z"/>
			<path fill="#2F5581" d="M89.623,59.266c-0.264,0-0.528,0.049-0.781,0.15L41.275,78.418c-0.858,0.343-1.393,1.206-1.318,2.128
				l0.388,4.774c0.08,0.983,0.832,1.779,1.81,1.916c0.09,0.013,2.255,0.308,5.735,0.308c5.451,0,13.766-0.716,22.422-4.127h0
				c8.582-3.374,13.907-8.978,16.864-13.084c3.22-4.473,4.408-8.171,4.457-8.326c0.245-0.776,0.02-1.624-0.576-2.178
				C90.66,59.46,90.145,59.266,89.623,59.266L89.623,59.266z M42.057,80.375l47.566-19.002l0,0l0,0c0,0-4.392,13.916-20.084,20.084
				c-8.425,3.32-16.534,3.98-21.649,3.98c-3.374,0-5.445-0.288-5.445-0.288L42.057,80.375L42.057,80.375L42.057,80.375z"/>
		</g>
		<g>
			<linearGradient id="XMLID_17_" gradientUnits="userSpaceOnUse" x1="13.1812" y1="72.8594" x2="47.353" y2="72.8594">
				<stop  offset="0" style="stop-color:#00C009"/>
				<stop  offset="1" style="stop-color:#0D6001"/>
			</linearGradient>
			<path fill="url(#XMLID_17_)" d="M46.195,55.697L13.604,72.838c-0.28,0.147-0.445,0.447-0.42,0.763l0.392,4.853
				c0.012,0.151,0.068,0.297,0.16,0.417c0.296,0.386,7.433,9.47,24.184,11.237c0.397,0.042,0.763-0.219,0.853-0.608
				c0.521-2.252,8.475-32.596,8.555-32.902c0.08-0.303-0.027-0.624-0.272-0.819C46.81,55.583,46.472,55.551,46.195,55.697z"/>
			<path fill="#006B33" d="M46.562,54.817c-0.251,0-0.504,0.06-0.736,0.181L13.234,72.139c-0.56,0.295-0.89,0.896-0.839,1.526
				l0.392,4.852c0.024,0.304,0.136,0.594,0.32,0.834c0.079,0.104,1.968,2.539,5.981,5.171c3.644,2.389,9.855,5.434,18.748,6.372
				c0.056,0.006,0.111,0.009,0.166,0.009c0.728,0,1.373-0.501,1.54-1.225c0.518-2.242,8.468-32.574,8.549-32.88
				c0.159-0.606-0.055-1.249-0.546-1.638C47.26,54.933,46.912,54.817,46.562,54.817L46.562,54.817z M13.97,73.538l32.592-17.141l0,0
				l0,0c0,0-8.031,30.635-8.56,32.925C21.396,87.57,14.362,78.39,14.362,78.39L13.97,73.538L13.97,73.538L13.97,73.538z"/>
		</g>
		<linearGradient id="XMLID_18_" gradientUnits="userSpaceOnUse" x1="13.1353" y1="67.7324" x2="46.563" y2="67.7324">
			<stop  offset="0" style="stop-color:#00C009"/>
			<stop  offset="1" style="stop-color:#0D6001"/>
		</linearGradient>
		<path fill="url(#XMLID_18_)" d="M45.796,46.144L13.135,63.178l1.228,15.212c0,0,6.585,9.088,23.64,10.932c-0.329-6.19,0,0,0,0
			l8.561-32.925L45.796,46.144z"/>
		<linearGradient id="XMLID_19_" gradientUnits="userSpaceOnUse" x1="13.1353" y1="76.25" x2="38.0024" y2="76.25">
			<stop  offset="0" style="stop-color:#24BB24"/>
			<stop  offset="1" style="stop-color:#20CD20"/>
		</linearGradient>
		<path fill="url(#XMLID_19_)" d="M13.135,63.178l1.228,15.212c0,0,6.585,9.088,23.64,10.932c-0.329-6.19-0.635-15.257-0.635-15.257
			l0,0c0,0-7.201-0.284-13.799-3.746c-2.804-1.452,0,0,0,0S16.844,66.887,13.135,63.178"/>
		<path fill="#6BE77D" d="M45.796,46.144L13.135,63.178c0,0,8.78,9.482,24.232,10.887C39.651,67.216,45.796,46.144,45.796,46.144z"
			/>
		<linearGradient id="XMLID_20_" gradientUnits="userSpaceOnUse" x1="44.3857" y1="49.6235" x2="26.9408" y2="64.626">
			<stop  offset="0" style="stop-color:#25BE4C"/>
			<stop  offset="1" style="stop-color:#51D56D"/>
		</linearGradient>
		<path fill="url(#XMLID_20_)" d="M16.584,61.791c3.103,2.258,9.463,6.339,18.637,7.456c2.146-5.363,6.35-16.485,8.713-21.384
			C38.088,50.619,20.396,59.994,16.584,61.791z"/>
		<linearGradient id="XMLID_21_" gradientUnits="userSpaceOnUse" x1="37.3677" y1="67.7324" x2="46.563" y2="67.7324">
			<stop  offset="0" style="stop-color:#00C009"/>
			<stop  offset="1" style="stop-color:#0D6001"/>
		</linearGradient>
		<polygon fill="url(#XMLID_21_)" points="45.796,46.144 46.563,56.396 38.002,89.321 37.368,74.064 		"/>
	</g>
	<g>
		<path fill="#3F7FAE" d="M88.79,41.397l0.834,19.975c0,0-4.391,13.916-20.084,20.084c-13.981,5.51-27.094,3.692-27.094,3.692
			L41.26,70.548l-0.057-0.308l8.253-27.438L88.79,41.397z"/>
		<path fill="#66CDF6" d="M49.456,42.803L41.26,70.548c0,0,16.273,3.512,33.482-7.2C90.02,53.164,88.79,41.397,88.79,41.397
			L49.456,42.803z"/>
		<linearGradient id="XMLID_22_" gradientUnits="userSpaceOnUse" x1="86.8208" y1="47.8647" x2="44.0817" y2="57.0054">
			<stop  offset="0" style="stop-color:#458FD4"/>
			<stop  offset="1" style="stop-color:#5ABEFF"/>
		</linearGradient>
		<path fill="url(#XMLID_22_)" d="M50.099,43.634c-0.658,2.25-5.962,20.349-6.99,23.864c4.587,0.442,16.776,0.126,28.562-7.272
			c9.781-6.597,12.487-14.409,12.875-17.713C80.947,42.643,52.568,43.544,50.099,43.634z"/>
	</g>
</g>
</svg>
