<?xml version="1.0" encoding="utf-8"?>
<!-- Generator: Adobe Illustrator 12.0.1, SVG Export Plug-In . SVG Version: 6.00 Build 51448)  -->
<!DOCTYPE svg PUBLIC "-//W3C//DTD SVG 1.1//EN" "http://www.w3.org/Graphics/SVG/1.1/DTD/svg11.dtd" [
	<!ENTITY ns_svg "http://www.w3.org/2000/svg">
	<!ENTITY ns_xlink "http://www.w3.org/1999/xlink">
]>
<svg  version="1.1" id="Layer_1" xmlns="&ns_svg;" xmlns:xlink="&ns_xlink;" width="100.001" height="100.001"
	 viewBox="0 0 100.001 100.001" overflow="visible" enable-background="new 0 0 100.001 100.001" xml:space="preserve">
<g>
	<g>
		<linearGradient id="XMLID_8_" gradientUnits="userSpaceOnUse" x1="8.9648" y1="82.2354" x2="91.0371" y2="82.2354">
			<stop  offset="0" style="stop-color:#F69F32"/>
			<stop  offset="1" style="stop-color:#EF6422"/>
		</linearGradient>
		<path fill="url(#XMLID_8_)" d="M11.858,73.555c-0.773,0-1.5,0.301-2.046,0.849c-0.546,0.546-0.847,1.273-0.847,2.046v11.573
			c0,1.596,1.298,2.894,2.894,2.894h76.285c0.772,0,1.499-0.301,2.046-0.847c0.547-0.547,0.848-1.273,0.848-2.047V76.449
			c0-1.596-1.298-2.895-2.894-2.895H11.858z"/>
		<path fill="#964B0E" d="M88.144,72.766H11.857c-0.984,0-1.909,0.384-2.605,1.08c-0.695,0.696-1.077,1.621-1.077,2.604v11.573
			c0,2.029,1.652,3.682,3.682,3.682h76.286c0.984,0,1.908-0.383,2.604-1.078s1.078-1.62,1.078-2.604V76.45
			C91.825,74.418,90.174,72.766,88.144,72.766L88.144,72.766z M9.753,76.45c0-1.162,0.942-2.106,2.104-2.106h76.286
			c1.162,0,2.104,0.944,2.104,2.106v11.573l0,0l0,0c0,1.163-0.941,2.104-2.104,2.104H11.857c-1.162,0-2.104-0.94-2.104-2.104V76.45
			L9.753,76.45L9.753,76.45z"/>
	</g>
	<g>
		<linearGradient id="XMLID_9_" gradientUnits="userSpaceOnUse" x1="27.5942" y1="42.9092" x2="72.4077" y2="42.9092">
			<stop  offset="0.0238" style="stop-color:#EF6422"/>
			<stop  offset="0.1136" style="stop-color:#F17627"/>
			<stop  offset="0.2532" style="stop-color:#F48D2D"/>
			<stop  offset="0.3863" style="stop-color:#F59A31"/>
			<stop  offset="0.5048" style="stop-color:#F69F32"/>
			<stop  offset="0.623" style="stop-color:#F59A31"/>
			<stop  offset="0.7685" style="stop-color:#F48B2C"/>
			<stop  offset="0.9277" style="stop-color:#F17226"/>
			<stop  offset="1" style="stop-color:#EF6422"/>
		</linearGradient>
		<path fill="url(#XMLID_9_)" d="M44.121,9.204c-1.222,0-2.428,1.127-2.746,2.567L27.671,73.75c-0.184,0.83-0.035,1.623,0.409,2.176
			c0.357,0.444,0.869,0.688,1.442,0.688h40.956c0.574,0,1.086-0.244,1.443-0.688c0.444-0.553,0.593-1.346,0.409-2.176L58.626,11.771
			c-0.318-1.439-1.524-2.567-2.746-2.567H44.121z"/>
		<path fill="#964B0E" d="M55.88,8.511h-11.76c-1.559,0-3.03,1.337-3.422,3.11l-13.704,61.98c-0.229,1.035-0.03,2.042,0.546,2.759
			c0.49,0.61,1.194,0.947,1.981,0.947h40.956c0.788,0,1.492-0.337,1.983-0.948c0.576-0.717,0.775-1.723,0.546-2.758l-13.704-61.98
			C58.911,9.848,57.439,8.511,55.88,8.511L55.88,8.511z M28.287,74.428c0-0.168,0.02-0.345,0.061-0.527l13.704-61.98
			c0.246-1.113,1.176-2.023,2.069-2.023h11.76c0.891,0,1.823,0.91,2.069,2.023L71.653,73.9c0.041,0.183,0.06,0.359,0.061,0.527
			c0.002,0.858-0.49,1.494-1.236,1.494H29.521C28.777,75.922,28.285,75.286,28.287,74.428L28.287,74.428z"/>
	</g>
	<linearGradient id="XMLID_10_" gradientUnits="userSpaceOnUse" x1="28.2871" y1="42.9092" x2="71.7148" y2="42.9092">
		<stop  offset="0.0238" style="stop-color:#EF6422"/>
		<stop  offset="0.1136" style="stop-color:#F17627"/>
		<stop  offset="0.2532" style="stop-color:#F48D2D"/>
		<stop  offset="0.3863" style="stop-color:#F59A31"/>
		<stop  offset="0.5048" style="stop-color:#F69F32"/>
		<stop  offset="0.623" style="stop-color:#F59A31"/>
		<stop  offset="0.7685" style="stop-color:#F48B2C"/>
		<stop  offset="0.9277" style="stop-color:#F17226"/>
		<stop  offset="1" style="stop-color:#EF6422"/>
	</linearGradient>
	<path fill="url(#XMLID_10_)" d="M71.654,73.899c0.246,1.112-0.283,2.022-1.176,2.022H29.522c-0.892,0-1.421-0.91-1.175-2.022
		L42.052,11.92c0.246-1.113,1.177-2.023,2.069-2.023h11.76c0.892,0,1.823,0.91,2.069,2.023L71.654,73.899z"/>
	<path opacity="0.15" fill="#FFFFFF" d="M41.625,14.471c0.26-1.172,1.241-2.131,2.181-2.131h12.391c0.939,0,1.921,0.959,2.18,2.131
		l13.318,60.238c0.032-0.248,0.023-0.521-0.04-0.81L57.95,11.92c-0.246-1.113-1.178-2.023-2.069-2.023h-11.76
		c-0.893,0-1.823,0.91-2.069,2.023L28.348,73.899c-0.063,0.288-0.073,0.562-0.04,0.81L41.625,14.471z"/>
	<linearGradient id="XMLID_11_" gradientUnits="userSpaceOnUse" x1="27.9004" y1="72.0029" x2="72.1006" y2="72.0029">
		<stop  offset="0.0048" style="stop-color:#3F3F3F"/>
		<stop  offset="0.1548" style="stop-color:#424242"/>
		<stop  offset="0.2706" style="stop-color:#4C4B4B"/>
		<stop  offset="0.3746" style="stop-color:#5C5A59"/>
		<stop  offset="0.4286" style="stop-color:#686564"/>
		<stop  offset="0.499" style="stop-color:#5C5A5A"/>
		<stop  offset="0.6385" style="stop-color:#4C4B4B"/>
		<stop  offset="0.7931" style="stop-color:#424242"/>
		<stop  offset="0.9905" style="stop-color:#3F3F3F"/>
	</linearGradient>
	<path opacity="0.1" fill="url(#XMLID_11_)" d="M28.964,70.604c0,0,7.097,2.965,20.628,2.965c13.532,0,21.005-4.434,21.005-4.434
		l1.504,5.736H27.9L28.964,70.604z"/>
	<linearGradient id="XMLID_12_" gradientUnits="userSpaceOnUse" x1="50.0005" y1="67.3633" x2="50.0005" y2="98.2134">
		<stop  offset="0" style="stop-color:#F69F32"/>
		<stop  offset="1" style="stop-color:#EF6422"/>
	</linearGradient>
	<path fill="url(#XMLID_12_)" d="M90.248,88.022c0,1.163-0.942,2.104-2.104,2.104H11.858c-1.162,0-2.104-0.941-2.104-2.104V76.449
		c0-1.162,0.942-2.105,2.104-2.105h76.285c1.162,0,2.104,0.943,2.104,2.105V88.022z"/>
	<path opacity="0.2" fill="#FFFFFF" d="M88.144,74.344H11.858c-1.162,0-2.104,0.506-2.104,1.131v1.412
		c0-0.624,0.942-1.131,2.104-1.131h76.285c1.162,0,2.104,0.507,2.104,1.131v-1.412C90.248,74.85,89.306,74.344,88.144,74.344z"/>
	<linearGradient id="XMLID_13_" gradientUnits="userSpaceOnUse" x1="35.9316" y1="31.9268" x2="64.0703" y2="31.9268">
		<stop  offset="0.0048" style="stop-color:#DCE9FF"/>
		<stop  offset="0.5143" style="stop-color:#FFFFFF"/>
		<stop  offset="1" style="stop-color:#DCE9FF"/>
	</linearGradient>
	<polygon fill="url(#XMLID_13_)" points="35.932,39.601 64.07,39.601 60.677,24.254 39.324,24.254 	"/>
	<linearGradient id="XMLID_14_" gradientUnits="userSpaceOnUse" x1="30.1621" y1="57.6211" x2="69.8389" y2="57.6211">
		<stop  offset="0.0048" style="stop-color:#DCE9FF"/>
		<stop  offset="0.5143" style="stop-color:#FFFFFF"/>
		<stop  offset="1" style="stop-color:#DCE9FF"/>
	</linearGradient>
	<polygon fill="url(#XMLID_14_)" points="30.162,65.691 69.839,65.691 66.271,49.551 33.731,49.551 	"/>
	<polygon opacity="0.1" fill="#FFFFFF" points="48.96,9.873 43.918,74.251 57.172,74.321 51.513,9.873 	"/>
</g>
</svg>
