<?xml version="1.0" encoding="utf-8"?>
<!-- Generator: Adobe Illustrator 12.0.1, SVG Export Plug-In . SVG Version: 6.00 Build 51448)  -->
<!DOCTYPE svg PUBLIC "-//W3C//DTD SVG 1.1//EN" "http://www.w3.org/Graphics/SVG/1.1/DTD/svg11.dtd" [
	<!ENTITY ns_svg "http://www.w3.org/2000/svg">
	<!ENTITY ns_xlink "http://www.w3.org/1999/xlink">
]>
<svg  version="1.1" id="Layer_1" xmlns="&ns_svg;" xmlns:xlink="&ns_xlink;" width="100.002" height="100.001"
	 viewBox="0 0 100.002 100.001" overflow="visible" enable-background="new 0 0 100.002 100.001" xml:space="preserve">
<g>
	<linearGradient id="XMLID_13_" gradientUnits="userSpaceOnUse" x1="49.6963" y1="102.9351" x2="49.6963" y2="-23.7399">
		<stop  offset="0" style="stop-color:#E6E6E6"/>
		<stop  offset="1" style="stop-color:#979797"/>
	</linearGradient>
	<path fill="url(#XMLID_13_)" stroke="#727272" stroke-width="1.5" d="M49.596,93.764c0,0,24.393-15.213,30.266-21.087
		c5.874-5.874,5.751-14.196,5.751-14.196V11.858l-35.61-5.621h-0.611l-35.61,5.621v46.623c0,0-0.122,8.322,5.751,14.196
		C25.405,78.551,49.596,93.764,49.596,93.764L49.596,93.764z"/>
	<linearGradient id="XMLID_14_" gradientUnits="userSpaceOnUse" x1="47.6431" y1="5.3867" x2="55.1431" y2="90.0537">
		<stop  offset="0" style="stop-color:#E6E6E6"/>
		<stop  offset="1" style="stop-color:#979797"/>
	</linearGradient>
	<path fill="url(#XMLID_14_)" stroke="#727272" stroke-width="1.5" d="M50.206,93.764c0,0,24.393-15.213,30.267-21.087
		s5.75-14.196,5.75-14.196V11.858l-35.61-5.621h-0.61l-35.611,5.621v46.623c0,0-0.122,8.322,5.752,14.196
		S50.206,93.764,50.206,93.764L50.206,93.764z"/>
	<path opacity="0.07" fill="#FFFFFF" d="M86.223,58.481V11.858l-35.61-5.621h-0.61l-35.611,5.621v3.049l35.372-5.583h0.607
		l35.372,5.583v46.311c0,0,0.009,0.719-0.125,1.877C86.25,60.424,86.223,58.481,86.223,58.481z M14.391,58.559v-0.078
		C14.391,58.481,14.391,58.51,14.391,58.559z"/>
	<linearGradient id="XMLID_15_" gradientUnits="userSpaceOnUse" x1="50.1963" y1="9.1108" x2="50.1963" y2="103.7235">
		<stop  offset="0" style="stop-color:#E6E6E6"/>
		<stop  offset="1" style="stop-color:#979797"/>
	</linearGradient>
	<linearGradient id="XMLID_16_" gradientUnits="userSpaceOnUse" x1="47.3906" y1="84.3774" x2="51.2239" y2="9.7103">
		<stop  offset="0" style="stop-color:#E6E6E6"/>
		<stop  offset="1" style="stop-color:#979797"/>
	</linearGradient>
	<path fill="url(#XMLID_16_)" d="M22.801,20.697c0,5.524,0,37.464,0,37.464c0,0.047,0.075,5.364,3.546,8.836
		c3.074,3.073,14.02,10.48,23.271,16.42c8.45-5.381,19.324-12.314,23.429-16.42c3.465-3.466,3.545-8.771,3.546-8.822
		c0,0,0-31.954,0-37.478c-5.072-0.8-26.083-4.118-26.896-4.245C48.884,16.579,27.872,19.896,22.801,20.697z"/>
	<linearGradient id="XMLID_17_" gradientUnits="userSpaceOnUse" x1="56.1602" y1="15.6729" x2="43.1603" y2="64.6723">
		<stop  offset="0" style="stop-color:#6294D5"/>
		<stop  offset="1" style="stop-color:#4972A9"/>
	</linearGradient>
	<path fill="url(#XMLID_17_)" d="M24.013,21.291c0,1.546,0,36.284,0,36.284c0.001,0.039,0.104,4.949,3.234,8.08
		c2.91,2.909,13.365,10.004,22.373,15.801c9.083-5.798,19.618-12.894,22.525-15.801c3.126-3.126,3.233-8.029,3.233-8.078
		c0,0,0-34.74,0-36.286c-1.49-0.235-25.417-4.011-25.683-4.054C49.413,17.282,25.506,21.055,24.013,21.291z"/>
	<defs>
		<filter id="Adobe_OpacityMaskFilter" filterUnits="userSpaceOnUse" x="24.013" y="17.236" width="51.366" height="64.219">
			<feColorMatrix  type="matrix" values="1 0 0 0 0  0 1 0 0 0  0 0 1 0 0  0 0 0 1 0"/>
		</filter>
	</defs>
	<mask maskUnits="userSpaceOnUse" x="24.013" y="17.236" width="51.366" height="64.219" id="XMLID_18_">
		<g filter="url(#Adobe_OpacityMaskFilter)">
			
				<linearGradient id="XMLID_19_" gradientUnits="userSpaceOnUse" x1="122.7695" y1="93.8198" x2="117.4071" y2="120.9471" gradientTransform="matrix(0.9967 -0.0812 0.0812 0.9967 -79.812 -63.9679)">
				<stop  offset="0" style="stop-color:#FFFFFF"/>
				<stop  offset="1" style="stop-color:#000000"/>
			</linearGradient>
			<path fill="url(#XMLID_19_)" d="M-0.665,17.417c0,0,0.254,0.381,0.739,1.067c4.032,5.699,24.049,32.44,47.26,36.482
				c26.003,4.528,54.627-32.615,54.627-32.615L91.687-2.764L27.037-3.828L-1.831,18.639"/>
		</g>
	</mask>
	<path opacity="0.3" mask="url(#XMLID_18_)" fill="#FFFFFF" d="M24.013,21.291c0,1.546,0,36.284,0,36.284
		c0.001,0.039,0.104,4.949,3.234,8.08c2.91,2.909,13.365,10.004,22.373,15.801c9.083-5.798,19.618-12.894,22.525-15.801
		c3.126-3.126,3.233-8.029,3.233-8.078c0,0,0-34.74,0-36.286c-1.49-0.235-25.417-4.011-25.683-4.054
		C49.413,17.282,25.506,21.055,24.013,21.291z"/>
	<radialGradient id="XMLID_20_" cx="53.7461" cy="50.5054" r="45.4433" gradientUnits="userSpaceOnUse">
		<stop  offset="0" style="stop-color:#FFF254"/>
		<stop  offset="1" style="stop-color:#F9BC21"/>
	</radialGradient>
	<linearGradient id="XMLID_21_" gradientUnits="userSpaceOnUse" x1="46.3037" y1="12.9302" x2="61.3036" y2="48.4299">
		<stop  offset="0" style="stop-color:#6294D5"/>
		<stop  offset="0.3366" style="stop-color:#6092D2"/>
		<stop  offset="0.6068" style="stop-color:#5A8AC8"/>
		<stop  offset="0.8533" style="stop-color:#517DB7"/>
		<stop  offset="1" style="stop-color:#4972A9"/>
	</linearGradient>
	<path fill="url(#XMLID_21_)" d="M72.146,65.655c3.126-3.126,3.233-8.029,3.233-8.078c0,0,0-34.74,0-36.286
		c-1.49-0.235-25.417-4.011-25.683-4.054v64.172C58.762,75.62,69.245,68.553,72.146,65.655z"/>
	<defs>
		<filter id="Adobe_OpacityMaskFilter_1_" filterUnits="userSpaceOnUse" x="24.013" y="17.236" width="51.366" height="64.219">
			<feColorMatrix  type="matrix" values="1 0 0 0 0  0 1 0 0 0  0 0 1 0 0  0 0 0 1 0"/>
		</filter>
	</defs>
	<mask maskUnits="userSpaceOnUse" x="24.013" y="17.236" width="51.366" height="64.219" id="XMLID_22_">
		<g filter="url(#Adobe_OpacityMaskFilter_1_)">
			<linearGradient id="XMLID_1_" gradientUnits="userSpaceOnUse" x1="63.7954" y1="56.7163" x2="26.0572" y2="3.3437">
				<stop  offset="0" style="stop-color:#FFFFFF"/>
				<stop  offset="1" style="stop-color:#000000"/>
			</linearGradient>
			<path fill="url(#XMLID_1_)" d="M17.98,54.384c0,0,14.767-29.651,60.381-20.217c1.617-9.435,1.078-17.79,1.078-17.79
				l-31.808-4.044l-30.19,5.931L17.98,54.384z"/>
		</g>
	</mask>
	<linearGradient id="XMLID_2_" gradientUnits="userSpaceOnUse" x1="49.5435" y1="33.7104" x2="25.424" y2="14.4149">
		<stop  offset="0" style="stop-color:#F25353"/>
		<stop  offset="0.2383" style="stop-color:#E94444"/>
		<stop  offset="0.6932" style="stop-color:#D11E1E"/>
		<stop  offset="1" style="stop-color:#BE0000"/>
	</linearGradient>
</g>
</svg>
