<?xml version="1.0" encoding="utf-8"?>
<!-- Generator: Adobe Illustrator 12.0.1, SVG Export Plug-In . SVG Version: 6.00 Build 51448)  -->
<!DOCTYPE svg PUBLIC "-//W3C//DTD SVG 1.1//EN" "http://www.w3.org/Graphics/SVG/1.1/DTD/svg11.dtd" [
	<!ENTITY ns_svg "http://www.w3.org/2000/svg">
	<!ENTITY ns_xlink "http://www.w3.org/1999/xlink">
]>
<svg  version="1.1" id="Layer_1" xmlns="&ns_svg;" xmlns:xlink="&ns_xlink;" width="106" height="106" viewBox="0 0 106 106"
	 overflow="visible" enable-background="new 0 0 106 106" xml:space="preserve">
<g>
	<g>
		<g>
			<g>
				<polygon fill="#82ABE0" points="41.794,17.35 45.822,67.344 56.881,67.344 67.284,17.35 				"/>
				<path fill="#D85700" d="M67.898,16.851h-1.229H42.335h-1.083l0.087,1.08l3.945,48.994l0.074,0.92h0.924h10.192h0.813
					l0.166-0.796l10.194-48.994L67.898,16.851L67.898,16.851z M42.335,17.851h24.334l0,0l0,0L56.475,66.845H46.283L42.335,17.851
					L42.335,17.851L42.335,17.851z"/>
			</g>
		</g>
		<g>
			<g>
				<path fill="#82ABE0" d="M42.126,80.731c0,5.06,4.116,9.176,9.176,9.176s9.176-4.116,9.176-9.176s-4.116-9.176-9.176-9.176
					S42.126,75.672,42.126,80.731z"/>
				<path fill="#D85700" d="M51.302,71.057c-5.336,0-9.676,4.34-9.676,9.675s4.34,9.676,9.676,9.676
					c5.335,0,9.676-4.341,9.676-9.676S56.637,71.057,51.302,71.057L51.302,71.057z M42.626,80.731c0-4.791,3.885-8.675,8.676-8.675
					s8.676,3.884,8.676,8.675l0,0l0,0c0,4.791-3.885,8.676-8.676,8.676S42.626,85.522,42.626,80.731L42.626,80.731L42.626,80.731z"
					/>
			</g>
		</g>
	</g>
	<g>
		<g>
			<linearGradient id="XMLID_7_" gradientUnits="userSpaceOnUse" x1="43.1548" y1="25.439" x2="64.2442" y2="52.206">
				<stop  offset="0" style="stop-color:#FFC10E"/>
				<stop  offset="1" style="stop-color:#F16422"/>
			</linearGradient>
			<polygon fill="url(#XMLID_7_)" points="42.336,17.85 66.669,17.85 56.475,66.844 46.283,66.844 			"/>
		</g>
		<g>
			<linearGradient id="XMLID_8_" gradientUnits="userSpaceOnUse" x1="43.5278" y1="70.2207" x2="54.1512" y2="84.5822">
				<stop  offset="0" style="stop-color:#FFC10E"/>
				<stop  offset="1" style="stop-color:#F16422"/>
			</linearGradient>
			<circle fill="url(#XMLID_8_)" cx="51.302" cy="80.731" r="8.676"/>
		</g>
	</g>
	<defs>
		<filter id="Adobe_OpacityMaskFilter" filterUnits="userSpaceOnUse" x="42.335" y="17.851" width="24.334" height="71.557">
			<feColorMatrix  type="matrix" values="1 0 0 0 0  0 1 0 0 0  0 0 1 0 0  0 0 0 1 0"/>
		</filter>
	</defs>
	<mask maskUnits="userSpaceOnUse" x="42.335" y="17.851" width="24.334" height="71.557" id="XMLID_9_">
		<g filter="url(#Adobe_OpacityMaskFilter)">
			<linearGradient id="XMLID_10_" gradientUnits="userSpaceOnUse" x1="40.3877" y1="2.645" x2="59.1305" y2="29.7728">
				<stop  offset="0" style="stop-color:#FFFFFF"/>
				<stop  offset="1" style="stop-color:#000000"/>
			</linearGradient>
			<path fill="url(#XMLID_10_)" d="M17.35,40.631c0,0,34.28,13.811,76.328-32.184C78.635-1.417,59.275-2.28,59.275-2.28
				L41.202,0.142L24.592,15.749L17.35,40.631z"/>
			<path fill="url(#XMLID_10_)" d="M17.35,40.631c0,0,34.28,13.811,76.328-32.184C78.635-1.417,59.275-2.28,59.275-2.28
				L41.202,0.142L24.592,15.749L17.35,40.631z"/>
			<linearGradient id="XMLID_12_" gradientUnits="userSpaceOnUse" x1="41.5327" y1="69.6699" x2="49.1342" y2="80.672">
				<stop  offset="0" style="stop-color:#FFFFFF"/>
				<stop  offset="1" style="stop-color:#000000"/>
			</linearGradient>
			<path fill="url(#XMLID_12_)" d="M32.19,85.075c0,0,13.902,5.602,30.955-13.052c-6.102-4.001-13.952-4.351-13.952-4.351
				l-7.33,0.981l-6.736,6.33L32.19,85.075z"/>
		</g>
	</mask>
</g>
</svg>
