<?xml version="1.0" encoding="utf-8"?>
<!-- Generator: Adobe Illustrator 12.0.1, SVG Export Plug-In . SVG Version: 6.00 Build 51448)  -->
<!DOCTYPE svg PUBLIC "-//W3C//DTD SVG 1.1//EN" "http://www.w3.org/Graphics/SVG/1.1/DTD/svg11.dtd" [
	<!ENTITY ns_svg "http://www.w3.org/2000/svg">
	<!ENTITY ns_xlink "http://www.w3.org/1999/xlink">
]>
<svg  version="1.1" id="Layer_1" xmlns="&ns_svg;" xmlns:xlink="&ns_xlink;" width="106" height="106" viewBox="0 0 106 106"
	 overflow="visible" enable-background="new 0 0 106 106" xml:space="preserve">
<g>
	<g>
		<g>
			<path fill="#82ABE0" d="M48.708,18.761l-34.482,57.83c-1.104,1.852-1.284,3.624-0.508,4.99c0.776,1.367,2.391,2.12,4.547,2.12
				h69.326c2.155,0,3.771-0.753,4.547-2.119c0.776-1.367,0.596-3.14-0.508-4.991L57.147,18.762c-1.102-1.848-2.6-2.865-4.219-2.865
				C51.31,15.896,49.811,16.914,48.708,18.761z"/>
			<path fill="#D85700" d="M52.927,15.396c-1.801,0-3.452,1.104-4.648,3.109l-34.483,57.83c-1.2,2.012-1.382,3.963-0.513,5.493
				c0.869,1.529,2.638,2.372,4.982,2.372h69.326c2.343,0,4.111-0.843,4.98-2.371c0.869-1.53,0.688-3.481-0.513-5.494l-34.483-57.83
				C56.38,16.5,54.729,15.396,52.927,15.396L52.927,15.396z M13.746,79.734c-0.002-0.867,0.29-1.85,0.909-2.887l34.483-57.83
				c1.042-1.747,2.416-2.621,3.789-2.621c1.374,0,2.748,0.874,3.79,2.621L91.2,76.848c0.619,1.037,0.911,2.02,0.909,2.887
				c-0.005,2.054-1.657,3.467-4.518,3.467H18.265C15.403,83.201,13.751,81.788,13.746,79.734L13.746,79.734z"/>
		</g>
	</g>
	<g>
		<linearGradient id="XMLID_6_" gradientUnits="userSpaceOnUse" x1="23.0322" y1="30.5708" x2="64.0493" y2="95.4095">
			<stop  offset="0" style="stop-color:#FFC10E"/>
			<stop  offset="1" style="stop-color:#F16422"/>
		</linearGradient>
		<path fill="url(#XMLID_6_)" d="M49.568,19.274L49.568,19.274L15.085,77.103c-0.912,1.529-1.088,2.944-0.498,3.985
			c0.591,1.04,1.897,1.613,3.677,1.613h69.326c1.78,0,3.086-0.573,3.678-1.613c0.591-1.041,0.414-2.456-0.498-3.985L56.288,19.273
			c-0.914-1.533-2.106-2.377-3.359-2.377C51.675,16.896,50.482,17.74,49.568,19.274z"/>
		<path fill="#FFF38E" d="M52.927,16.396c-1.373,0-2.747,0.874-3.789,2.621l-34.483,57.83c-0.619,1.037-0.911,2.02-0.909,2.887
			c0.005,2.054,1.657,3.467,4.519,3.467h69.326c2.86,0,4.513-1.413,4.518-3.467c0.002-0.867-0.29-1.85-0.909-2.887l-34.482-57.83
			C55.675,17.271,54.301,16.396,52.927,16.396L52.927,16.396z M18.265,82.201c-1.593,0-2.745-0.482-3.243-1.359
			c-0.499-0.878-0.324-2.114,0.492-3.482l34.483-57.83c0.819-1.375,1.86-2.133,2.93-2.133s2.11,0.758,2.931,2.133l34.483,57.83
			c0.815,1.368,0.99,2.605,0.491,3.482c-0.497,0.877-1.648,1.359-3.241,1.359H18.265L18.265,82.201z"/>
	</g>
	<g>
		<g>
			<linearGradient id="XMLID_7_" gradientUnits="userSpaceOnUse" x1="58.3149" y1="34.8149" x2="43.3528" y2="62.7066">
				<stop  offset="0" style="stop-color:#FFC10E"/>
				<stop  offset="1" style="stop-color:#F16422"/>
			</linearGradient>
			<path fill="url(#XMLID_7_)" d="M44.608,36.544c-0.172-1.346,0.798-2.447,2.154-2.447h11.591c1.356,0,2.289,1.097,2.072,2.436
				l-4.352,26.882c-0.217,1.339-1.504,2.435-2.86,2.435h-2.404c-1.356,0-2.606-1.101-2.778-2.446L44.608,36.544z"/>
			<linearGradient id="XMLID_8_" gradientUnits="userSpaceOnUse" x1="55.8853" y1="69.2188" x2="47.7054" y2="78.9561">
				<stop  offset="0" style="stop-color:#FFC10E"/>
				<stop  offset="1" style="stop-color:#F16422"/>
			</linearGradient>
			<circle fill="url(#XMLID_8_)" cx="51.798" cy="74.086" r="5.693"/>
		</g>
		<g>
			<path fill="#FFFFFF" d="M45.604,36.542c-0.177-1.345,0.788-2.445,2.145-2.445h10.604c1.356,0,2.285,1.096,2.063,2.434
				l-4.285,25.892c-0.222,1.338-1.513,2.433-2.869,2.433h-1.467c-1.356,0-2.611-1.1-2.788-2.444L45.604,36.542z"/>
			<circle fill="#FFFFFF" cx="52.558" cy="73.573" r="5.446"/>
		</g>
	</g>
	<defs>
		<filter id="Adobe_OpacityMaskFilter" filterUnits="userSpaceOnUse" x="13.954" y="17.375" width="78.362" height="66.804">
			<feColorMatrix  type="matrix" values="1 0 0 0 0  0 1 0 0 0  0 0 1 0 0  0 0 0 1 0"/>
		</filter>
	</defs>
	<mask maskUnits="userSpaceOnUse" x="13.954" y="17.375" width="78.362" height="66.804" id="XMLID_9_">
		<g filter="url(#Adobe_OpacityMaskFilter)">
			<linearGradient id="XMLID_10_" gradientUnits="userSpaceOnUse" x1="37.71" y1="17.915" x2="57.9678" y2="47.2356">
				<stop  offset="0" style="stop-color:#FFFFFF"/>
				<stop  offset="1" style="stop-color:#000000"/>
			</linearGradient>
			<path fill="url(#XMLID_10_)" d="M16.45,58.473c0,0,34.28,13.811,76.328-32.184c-15.044-9.864-34.403-13.494-34.403-13.494
				l-18.073,1.232L27.968,33.591L16.45,58.473z"/>
		</g>
	</mask>
	<g opacity="0.6" mask="url(#XMLID_9_)">
		<path fill="#FFFFFF" d="M53.136,17.874c-1.252,0-2.446,0.844-3.361,2.377L15.292,78.078c-0.558,0.936-0.84,1.828-0.84,2.619
			c0,0.502,0.114,0.963,0.344,1.367c0.591,1.04,1.897,1.613,3.677,1.613h69.326c1.78,0,3.086-0.573,3.677-1.613
			c0.592-1.041,0.414-2.456-0.498-3.986L56.496,20.25C55.582,18.718,54.389,17.874,53.136,17.874L53.136,17.874z"/>
		<path fill="#FFCDCC" d="M53.135,17.375c-1.374,0-2.747,0.873-3.789,2.62L14.862,77.822c-0.618,1.038-0.91,2.02-0.908,2.888
			c0.005,2.055,1.657,3.469,4.519,3.469h69.326c2.86,0,4.513-1.414,4.517-3.469c0.002-0.868-0.29-1.85-0.909-2.888L56.925,19.995
			C55.883,18.248,54.509,17.375,53.135,17.375L53.135,17.375z M18.473,83.179c-1.593,0-2.745-0.483-3.243-1.361
			c-0.499-0.878-0.324-2.114,0.491-3.482l34.483-57.828c0.82-1.375,1.861-2.132,2.931-2.132s2.11,0.757,2.931,2.132l34.482,57.828
			c0.815,1.369,0.99,2.604,0.492,3.482s-1.649,1.361-3.241,1.361H18.473L18.473,83.179z"/>
	</g>
</g>
</svg>
