<?xml version="1.0" encoding="utf-8"?>
<!-- Generator: Adobe Illustrator 12.0.1, SVG Export Plug-In . SVG Version: 6.00 Build 51448)  -->
<!DOCTYPE svg PUBLIC "-//W3C//DTD SVG 1.1//EN" "http://www.w3.org/Graphics/SVG/1.1/DTD/svg11.dtd" [
	<!ENTITY ns_svg "http://www.w3.org/2000/svg">
	<!ENTITY ns_xlink "http://www.w3.org/1999/xlink">
]>
<svg  version="1.1" id="Layer_1" xmlns="&ns_svg;" xmlns:xlink="&ns_xlink;" width="106" height="106" viewBox="0 0 106 106"
	 overflow="visible" enable-background="new 0 0 106 106" xml:space="preserve">
<g>
	<g>
		<g>
			<g>
				<path fill="#82ABE0" d="M33.309,20.467L33.309,20.467c-5.635,4.988-9.237,12.432-9.177,18.964l0.004,0.496h17.092l0.006-0.494
					c0.035-2.903,1.126-5.306,3.243-7.143c2.136-1.854,4.918-2.794,8.27-2.794c3.284,0,5.929,0.77,7.86,2.289
					c1.886,1.484,2.272,3.251,2.272,5.447c0,1.577-0.392,2.969-1.165,4.136c-0.877,1.324-2.732,3.576-6.583,6.78
					c-4.147,3.434-6.651,5.507-8.571,9.58c-1.871,3.962-2.32,5.631-2.826,10.508l0.027,1.339h16.516l0.038-0.458
					c0.169-1.999,0.446-2.936,0.865-4.354l0.097-0.33c0.542-1.852,1.023-2.39,1.976-3.34c1.056-1.055,2.019-1.747,3.767-3.003
					l1.788-1.294c2.768-2.023,5.003-4.197,6.646-6.459c1.574-2.18,2.743-4.341,3.477-6.425c0.736-2.083,1.109-4.239,1.109-6.409
					c0-3.952-1.168-7.772-3.47-11.354c-2.054-3.195-4.697-6.731-8.737-8.739c-4.635-2.308-6.631-3.127-14.36-3.526
					C44.781,13.882,38.382,15.975,33.309,20.467z"/>
				<path fill="#BD0000" d="M53.471,13.382h-0.026c-8.795,0-15.299,2.133-20.468,6.711c-2.7,2.39-5.005,5.395-6.668,8.692
					c-1.784,3.537-2.71,7.22-2.678,10.651l0.009,0.991h0.991h16.102h0.988l0.012-0.988c0.034-2.793,1.038-5.008,3.07-6.772
					c2.044-1.773,4.716-2.672,7.942-2.672c3.17,0,5.71,0.734,7.552,2.182c1.728,1.36,2.082,3.003,2.082,5.053
					c0,1.499-0.354,2.762-1.082,3.861c-0.859,1.296-2.684,3.507-6.487,6.671c-4.056,3.359-6.737,5.58-8.703,9.751
					c-1.902,4.026-2.358,5.722-2.872,10.67l-0.006,0.063l0.001,0.064l0.019,0.787l0.024,0.976h0.976h15.567h0.919l0.077-0.916
					c0.166-1.948,0.437-2.865,0.847-4.255l0.098-0.329c0.51-1.74,0.911-2.189,1.849-3.128c1.028-1.026,1.981-1.711,3.711-2.954
					c0.521-0.374,1.11-0.798,1.786-1.292c2.811-2.056,5.084-4.267,6.755-6.569c1.602-2.217,2.793-4.421,3.543-6.552
					c0.755-2.135,1.138-4.347,1.138-6.575c0-4.049-1.193-7.96-3.55-11.625c-2.088-3.251-4.783-6.853-8.935-8.917v0
					c-4.784-2.382-6.97-3.186-14.558-3.578L53.471,13.382L53.471,13.382z M24.63,39.266c-0.001-6.855,3.958-13.951,9.01-18.423
					c5.088-4.507,11.489-6.46,19.805-6.46c7.603,0.392,9.585,1.194,14.163,3.474c3.759,1.868,6.28,5.045,8.539,8.562
					c2.26,3.516,3.391,7.21,3.391,11.084l0,0l0,0c0,2.118-0.357,4.198-1.081,6.243c-0.72,2.045-1.854,4.145-3.408,6.297
					c-0.911,1.255-2.861,3.66-6.536,6.35c-2.915,2.13-4.202,2.936-5.614,4.346c-1.014,1.014-1.534,1.615-2.101,3.554
					c-0.468,1.589-0.794,2.575-0.981,4.781H44.249l-0.019-0.787l0,0l0,0c0.499-4.808,0.927-6.42,2.782-10.347
					c1.852-3.929,4.275-5.961,8.438-9.408c4.011-3.336,5.85-5.633,6.682-6.888c0.831-1.255,1.248-2.726,1.248-4.413
					c0-2.295-0.435-4.242-2.465-5.839c-2.028-1.596-4.754-2.396-8.169-2.396c-3.491,0-6.358,0.974-8.598,2.917
					s-3.378,4.449-3.415,7.515H24.631C24.63,39.374,24.63,39.32,24.63,39.266L24.63,39.266z"/>
			</g>
		</g>
		<g>
			<g>
				<path fill="#82ABE0" d="M43.621,81.395c0,5.012,3.932,9.09,8.764,9.09c2.344,0,4.547-0.948,6.202-2.669
					c1.651-1.717,2.561-3.997,2.561-6.421c0-5.012-3.931-9.089-8.763-9.089S43.621,76.383,43.621,81.395z"/>
				<path fill="#BD0000" d="M52.384,71.807c-5.108,0-9.265,4.302-9.265,9.589s4.156,9.589,9.265,9.589
					c5.106,0,9.262-4.302,9.262-9.589S57.491,71.807,52.384,71.807L52.384,71.807z M44.12,81.396c0-4.744,3.699-8.589,8.265-8.589
					c4.562,0,8.262,3.845,8.262,8.589l0,0l0,0c0,4.744-3.7,8.589-8.262,8.589C47.819,89.984,44.12,86.14,44.12,81.396L44.12,81.396
					L44.12,81.396z"/>
			</g>
		</g>
	</g>
	<g>
		<g>
			<linearGradient id="XMLID_7_" gradientUnits="userSpaceOnUse" x1="46.8599" y1="25.3125" x2="76.1157" y2="86.5771">
				<stop  offset="0" style="stop-color:#FF5F06"/>
				<stop  offset="0.1061" style="stop-color:#F95507"/>
				<stop  offset="1" style="stop-color:#CB0212"/>
			</linearGradient>
			<path fill="url(#XMLID_7_)" d="M76.148,26.418c-2.26-3.517-4.78-6.694-8.539-8.562c-4.578-2.28-6.562-3.082-14.163-3.475
				c-8.316,0-14.717,1.953-19.806,6.46c-5.092,4.507-9.072,11.681-9.009,18.585h16.103c0.037-3.065,1.176-5.571,3.415-7.515
				c2.238-1.943,5.105-2.917,8.598-2.917c3.415,0,6.14,0.8,8.169,2.396c2.03,1.598,2.464,3.544,2.464,5.84
				c0,1.687-0.417,3.157-1.248,4.412c-0.832,1.256-2.671,3.553-6.681,6.889c-4.162,3.446-6.586,5.479-8.438,9.408
				c-1.854,3.927-2.282,5.539-2.781,10.347l0.019,0.787h15.567c0.187-2.206,0.514-3.193,0.98-4.782
				c0.567-1.938,1.087-2.54,2.102-3.553c1.411-1.41,2.698-2.216,5.613-4.347c3.676-2.688,5.625-5.095,6.536-6.35
				c1.554-2.152,2.689-4.252,3.409-6.297c0.723-2.045,1.081-4.125,1.081-6.243C79.539,33.628,78.408,29.934,76.148,26.418z"/>
		</g>
		<g>
			<linearGradient id="XMLID_8_" gradientUnits="userSpaceOnUse" x1="24.1704" y1="24.0576" x2="70.0403" y2="117.2772">
				<stop  offset="0" style="stop-color:#FF5F06"/>
				<stop  offset="0.1061" style="stop-color:#F95507"/>
				<stop  offset="1" style="stop-color:#CB0212"/>
			</linearGradient>
			<ellipse fill="url(#XMLID_8_)" cx="52.384" cy="81.395" rx="8.263" ry="8.59"/>
		</g>
	</g>
	<defs>
		<filter id="Adobe_OpacityMaskFilter" filterUnits="userSpaceOnUse" x="24.63" y="14.382" width="54.907" height="75.602">
			<feColorMatrix  type="matrix" values="1 0 0 0 0  0 1 0 0 0  0 0 1 0 0  0 0 0 1 0"/>
		</filter>
	</defs>
	<mask maskUnits="userSpaceOnUse" x="24.63" y="14.382" width="54.907" height="75.602" id="XMLID_9_">
		<g filter="url(#Adobe_OpacityMaskFilter)">
			<linearGradient id="XMLID_10_" gradientUnits="userSpaceOnUse" x1="37.7222" y1="7.5859" x2="56.4654" y2="34.7144">
				<stop  offset="0" style="stop-color:#FFFFFF"/>
				<stop  offset="1" style="stop-color:#000000"/>
			</linearGradient>
			<path fill="url(#XMLID_10_)" d="M14.685,45.572c0,0,34.279,13.811,76.328-32.184C75.969,3.524,56.61,2.661,56.61,2.661
				L38.536,5.083L21.926,20.69L14.685,45.572z"/>
		</g>
	</mask>
	<defs>
		<filter id="Adobe_OpacityMaskFilter_1_" filterUnits="userSpaceOnUse" x="44.12" y="72.807" width="16.526" height="17.178">
			<feColorMatrix  type="matrix" values="1 0 0 0 0  0 1 0 0 0  0 0 1 0 0  0 0 0 1 0"/>
		</filter>
	</defs>
	<mask maskUnits="userSpaceOnUse" x="44.12" y="72.807" width="16.526" height="17.178" id="XMLID_11_">
		<g filter="url(#Adobe_OpacityMaskFilter_1_)">
			<linearGradient id="XMLID_1_" gradientUnits="userSpaceOnUse" x1="47.1606" y1="68.8291" x2="53.9464" y2="78.6506">
				<stop  offset="0" style="stop-color:#FFFFFF"/>
				<stop  offset="1" style="stop-color:#000000"/>
			</linearGradient>
			<path fill="url(#XMLID_1_)" d="M38.82,82.582c0,0,12.411,5,27.635-11.652c-5.446-3.571-12.456-3.884-12.456-3.884l-6.544,0.877
				l-6.013,5.65L38.82,82.582z"/>
		</g>
	</mask>
</g>
</svg>
