<?xml version="1.0" encoding="utf-8"?>
<!-- Generator: Adobe Illustrator 12.0.1, SVG Export Plug-In . SVG Version: 6.00 Build 51448)  -->
<!DOCTYPE svg PUBLIC "-//W3C//DTD SVG 1.1//EN" "http://www.w3.org/Graphics/SVG/1.1/DTD/svg11.dtd" [
	<!ENTITY ns_svg "http://www.w3.org/2000/svg">
	<!ENTITY ns_xlink "http://www.w3.org/1999/xlink">
]>
<svg  version="1.1" id="Layer_1" xmlns="&ns_svg;" xmlns:xlink="&ns_xlink;" width="106" height="106" viewBox="0 0 106 106"
	 overflow="visible" enable-background="new 0 0 106 106" xml:space="preserve">
<g>
	<g>
		<g>
			<path fill="#82ABE0" d="M41.964,19.444c-1.566,0-3.662,0.867-4.769,1.975L20.903,37.711c-1.107,1.107-1.975,3.202-1.975,4.769
				v23.041c0,1.566,0.867,3.66,1.975,4.768L37.195,86.58c1.108,1.107,3.203,1.976,4.769,1.976h23.04
				c1.566,0,3.661-0.868,4.769-1.976l16.291-16.292c1.108-1.108,1.977-3.202,1.977-4.768V42.479c0-1.564-0.868-3.659-1.977-4.769
				L69.773,21.419c-1.107-1.107-3.202-1.975-4.769-1.975H41.964z"/>
			<g>
				<path fill="#BD0000" d="M65.004,18.945h-23.04c-1.684,0-3.935,0.932-5.124,2.121L20.549,37.358
					c-1.189,1.189-2.121,3.439-2.121,5.122v23.041c0,1.683,0.932,3.933,2.121,5.121l16.292,16.292c1.19,1.19,3.44,2.122,5.124,2.122
					h23.04c1.682,0,3.932-0.932,5.122-2.122l16.291-16.292c1.19-1.189,2.122-3.439,2.122-5.121V42.479
					c0-1.681-0.932-3.93-2.122-5.122L70.126,21.066C68.937,19.877,66.687,18.945,65.004,18.945L65.004,18.945z M19.428,42.479
					c0-1.422,0.822-3.409,1.828-4.415l16.292-16.292c1.006-1.006,2.993-1.828,4.417-1.828h23.04c1.423,0,3.408,0.822,4.415,1.828
					L85.71,38.065c1.006,1.007,1.829,2.993,1.829,4.415v23.041l0,0l0,0c0,1.422-0.823,3.408-1.829,4.414L69.419,86.227
					c-1.007,1.006-2.992,1.829-4.415,1.829h-23.04c-1.424,0-3.41-0.823-4.417-1.829L21.256,69.935
					c-1.006-1.006-1.828-2.992-1.828-4.414V42.479L19.428,42.479L19.428,42.479z"/>
			</g>
		</g>
	</g>
	<g>
		<linearGradient id="XMLID_6_" gradientUnits="userSpaceOnUse" x1="33.0112" y1="23.4521" x2="76.6453" y2="88.5616">
			<stop  offset="0" style="stop-color:#FF5F06"/>
			<stop  offset="0.1061" style="stop-color:#F95507"/>
			<stop  offset="1" style="stop-color:#CB0212"/>
		</linearGradient>
		<path fill="url(#XMLID_6_)" d="M41.964,88.056c-1.423,0-3.41-0.823-4.416-1.829L21.257,69.935
			c-1.006-1.006-1.828-2.992-1.828-4.414V42.479c0-1.422,0.822-3.409,1.828-4.415l16.292-16.292
			c1.006-1.006,2.993-1.828,4.416-1.828h23.04c1.423,0,3.409,0.822,4.415,1.828L85.71,38.064c1.006,1.007,1.83,2.993,1.83,4.415
			v23.041c0,1.422-0.824,3.408-1.83,4.414L69.419,86.227c-1.006,1.006-2.992,1.829-4.415,1.829H41.964z"/>
	</g>
	<linearGradient id="XMLID_7_" gradientUnits="userSpaceOnUse" x1="93.2349" y1="-0.9883" x2="57.1074" y2="50.847">
		<stop  offset="0" style="stop-color:#FF5F06"/>
		<stop  offset="0.1061" style="stop-color:#F95507"/>
		<stop  offset="1" style="stop-color:#CB0212"/>
	</linearGradient>
	<linearGradient id="XMLID_8_" gradientUnits="userSpaceOnUse" x1="73.9224" y1="40.3511" x2="70.3069" y2="43.063">
		<stop  offset="0" style="stop-color:#FF5F06"/>
		<stop  offset="0.1061" style="stop-color:#F95507"/>
		<stop  offset="1" style="stop-color:#CB0212"/>
	</linearGradient>
	<polygon fill="url(#XMLID_8_)" points="71.417,45.928 63.156,37.668 53.16,47.664 43.164,37.668 34.903,45.928 44.898,55.924 
		34.902,65.92 43.164,74.182 53.16,64.185 63.156,74.182 71.417,65.92 61.421,55.924 	"/>
	<polygon fill="#FFFFFF" points="72.269,45.076 64.008,36.815 54.011,46.812 44.016,36.815 35.755,45.076 45.75,55.072 
		35.754,65.068 44.015,73.329 54.011,63.332 64.008,73.329 72.269,65.068 62.273,55.072 	"/>
	<g>
		<g>
			<path fill="#FFFFFF" d="M63.86,22.705H43.107c-1.423,0-3.408,0.822-4.415,1.828L24.016,39.208
				c-1.006,1.005-1.829,2.992-1.829,4.415v20.753c0,1.423,0.823,3.41,1.829,4.416l14.676,14.676
				c1.007,1.006,2.992,1.829,4.415,1.829H63.86c1.423,0,3.41-0.823,4.416-1.829l14.675-14.676c1.006-1.006,1.829-2.993,1.829-4.416
				V43.625c0-1.423-0.823-3.411-1.829-4.416L68.276,24.533C67.27,23.527,65.283,22.705,63.86,22.705L63.86,22.705z M43.107,82.391
				c-0.646,0-1.902-0.521-2.359-0.977L26.071,66.737c-0.456-0.457-0.977-1.715-0.977-2.36V43.624c0-0.646,0.52-1.903,0.976-2.359
				l14.678-14.677c0.457-0.456,1.713-0.976,2.359-0.976H63.86c0.647,0,1.904,0.52,2.361,0.976l14.675,14.676
				c0.457,0.457,0.977,1.714,0.977,2.361v20.752c0,0.646-0.521,1.903-0.977,2.36L66.221,81.414
				c-0.457,0.456-1.715,0.977-2.361,0.977H43.107L43.107,82.391z"/>
		</g>
	</g>
	<defs>
		<filter id="Adobe_OpacityMaskFilter" filterUnits="userSpaceOnUse" x="19.945" y="20.463" width="68.113" height="68.11">
			<feColorMatrix  type="matrix" values="1 0 0 0 0  0 1 0 0 0  0 0 1 0 0  0 0 0 1 0"/>
		</filter>
	</defs>
	<mask maskUnits="userSpaceOnUse" x="19.945" y="20.463" width="68.113" height="68.11" id="XMLID_9_">
		<g filter="url(#Adobe_OpacityMaskFilter)">
			<linearGradient id="XMLID_10_" gradientUnits="userSpaceOnUse" x1="35.1626" y1="20.7441" x2="54.8201" y2="49.1959">
				<stop  offset="0" style="stop-color:#FFFFFF"/>
				<stop  offset="1" style="stop-color:#000000"/>
			</linearGradient>
			<path fill="url(#XMLID_10_)" d="M11.002,60.585c0,0,35.952,14.484,80.052-33.754C75.277,16.485,54.972,15.58,54.972,15.58
				l-18.955,2.54L18.598,34.489L11.002,60.585z"/>
		</g>
	</mask>
</g>
</svg>
