<?xml version="1.0" encoding="utf-8"?>
<!-- Generator: Adobe Illustrator 12.0.1, SVG Export Plug-In . SVG Version: 6.00 Build 51448)  -->
<!DOCTYPE svg PUBLIC "-//W3C//DTD SVG 1.1//EN" "http://www.w3.org/Graphics/SVG/1.1/DTD/svg11.dtd" [
	<!ENTITY ns_svg "http://www.w3.org/2000/svg">
	<!ENTITY ns_xlink "http://www.w3.org/1999/xlink">
]>
<svg  version="1.1" id="Layer_1" xmlns="&ns_svg;" xmlns:xlink="&ns_xlink;" width="100" height="100" viewBox="0 0 100 100"
	 overflow="visible" enable-background="new 0 0 100 100" xml:space="preserve">
<g>
	<g>
		<g>
			<path fill="#727272" d="M56.603,10.392l-0.009,0.009c-3.512,3.625-5.365,8.5-5.365,13.542c0,2.622,0.501,5.29,1.531,7.85
				c0.001,0.003,0.046,0.124,0.104,0.28c-1.36,1.317-44.666,43.24-44.666,43.24C7.104,76.375,6.5,77.791,6.498,79.3
				c0,0.003,0,0.005,0,0.008c0,0.942,0.242,1.876,0.701,2.699L7.05,81.625c0.289,1.211,0.911,2.31,1.801,3.178l6.215,6.063
				c1.282,1.251,2.973,1.918,4.759,1.877c1.788-0.041,3.446-0.785,4.671-2.095c0,0,40.499-43.331,41.832-44.756
				c8.092,3.146,16.906,1.417,22.724-4.59c5.166-5.334,6.859-13.76,4.313-21.467l-0.271-0.818l-2.295-0.486l-1.544,1.263
				l-0.197,0.137c0,0-10.657,9.771-11.747,10.77c-1.149-0.303-5.505-1.45-6.794-1.79c-0.281-1.375-1.448-7.1-1.704-8.355
				c1.011-0.938,5.746-5.332,5.746-5.332c5.505-5.134,6.84-6.379,6.84-7.182c0-0.257-0.137-0.469-0.317-0.749
				c-0.391-0.597-0.88-0.754-3.415-1.488l-0.326-0.095C71.241,3.982,62.599,4.306,56.603,10.392z"/>
			<path fill="#606060" d="M70.693,3.306C66.491,3.305,60.45,4.351,55.534,9.338l-0.009,0.009l-0.009,0.01
				c-2.853,2.945-4.745,6.672-5.471,10.777c-0.677,3.828-0.307,7.805,1.066,11.548L7.154,74.237C5.766,75.583,5,77.379,4.997,79.298
				c-0.002,1.06,0.238,2.11,0.697,3.064c0.388,1.335,1.113,2.543,2.11,3.515l6.213,6.062c1.52,1.486,3.53,2.307,5.656,2.307
				c2.233,0,4.39-0.938,5.918-2.572l41.134-44.011c2.462,0.834,5.06,1.27,7.619,1.27c6.064,0,11.67-2.339,15.784-6.587
				c2.846-2.938,4.759-6.721,5.53-10.938c0.725-3.96,0.424-8.124-0.87-12.041l-0.536-1.621l-1.666-0.367
				c-0.16-0.036-0.777-0.166-0.777-0.166l-1.438-0.303l-1.121,0.951c-0.069,0.059-0.142,0.12-0.213,0.179h-0.131l-0.863,0.787
				l-3.556,3.26c-2.516,2.307-5.674,5.203-7.587,6.957l-5.102-1.344l-1.349-6.612c1.224-1.133,3.188-2.952,5.131-4.765
				c1.85-1.726,3.322-3.11,4.375-4.112c0.644-0.615,1.123-1.078,1.464-1.416c0.208-0.207,0.358-0.362,0.476-0.488
				c1.627-1.757,0.662-3.485,0.452-3.814l-0.011-0.017l-0.011-0.016c-0.646-0.982-1.592-1.283-2.505-1.575
				c-0.534-0.17-1.178-0.356-1.747-0.521l-0.317-0.092l-0.01-0.003l-0.01-0.003C76.191,3.828,73.714,3.306,70.693,3.306
				L70.693,3.306z M52.716,23.933c-0.006-4.645,1.693-9.122,4.955-12.489c3.92-3.978,8.83-5.14,13.022-5.139
				c2.426,0,4.613,0.389,6.227,0.846c1.139,0.331,2.796,0.798,2.9,0.956c0,0,0,0.001,0,0.002
				c0.001,0.248-12.647,11.919-12.647,11.919l2.059,10.095l8.488,2.236c2.166-1.985,10.631-9.748,12.35-11.324
				c0.071,0.002,1.121-0.889,1.121-0.889s0.595,0.125,0.748,0.159c0.729,2.208,1.104,4.529,1.104,6.837
				c-0.001,4.812-1.632,9.565-5.069,13.114c-3.67,3.789-8.595,5.674-13.629,5.674c-2.843,0-5.721-0.601-8.425-1.801L23.4,89.625
				c-1.008,1.078-2.366,1.621-3.727,1.621c-1.282,0-2.567-0.482-3.561-1.454L9.898,83.73c-0.715-0.697-1.175-1.554-1.389-2.451
				c-0.334-0.601-0.513-1.272-0.512-1.976l0,0l0,0c0.002-1.101,0.445-2.137,1.244-2.912l45.368-43.919
				c-0.166-0.408-0.318-0.82-0.457-1.238C53.191,28.844,52.719,26.366,52.716,23.933L52.716,23.933z M69.208,22.234
				c0,0,0.002-0.002,0.005-0.005C69.211,22.231,69.209,22.233,69.208,22.234L69.208,22.234z"/>
		</g>
		<path fill="#868686" stroke="#868686" stroke-width="2" d="M91.899,20.497c-0.155-0.031-0.748-0.157-0.748-0.157L78.265,32.708
			l-9.073-2.391l-2.058-10.094L79.498,8.485c-7.439-3.187-15.541-2.612-21.218,3.25c-5.555,5.735-6.655,14.214-3.495,21.447
			L9.873,76.661c-2.059,1.994-2.655,5.648-0.605,7.65l6.215,6.061c2.051,2.002,5.92,1.539,7.877-0.557l42.521-45.49
			c7.492,3.32,16.313,2.055,22.053-3.873C93.02,35.198,94.148,27.309,91.899,20.497z"/>
		<path fill="#C5C5C5" d="M90.539,19.406L76.898,31.913l-9.074-2.391l-2.057-10.093L78.72,6.961
			c-7.439-3.187-16.131-1.883-21.808,3.98c-5.554,5.735-6.655,14.215-3.495,21.446L8.505,75.866
			c-2.059,1.994-2.064,5.262-0.014,7.262l6.215,6.063c2.051,2.002,5.328,1.926,7.285-0.168L64.513,43.53
			c7.493,3.322,16.313,2.055,22.053-3.873C91.817,34.235,93.086,26.362,90.539,19.406z"/>
		
			<linearGradient id="XMLID_16_" gradientUnits="userSpaceOnUse" x1="-586.5356" y1="-156.2632" x2="-562.5125" y2="-140.312" gradientTransform="matrix(0.9791 0.2032 -0.2032 0.9791 580.8515 312.3004)">
			<stop  offset="0" style="stop-color:#E6E6E6"/>
			<stop  offset="1" style="stop-color:#979797"/>
		</linearGradient>
		<path fill="url(#XMLID_16_)" d="M57.63,11.637L57.63,11.637c-5.102,5.27-6.396,13.258-3.296,20.35l0.278,0.637L9.201,76.584
			c-0.799,0.773-1.24,1.809-1.242,2.912c-0.003,1.102,0.436,2.139,1.231,2.916l6.214,6.061c0.798,0.779,1.848,1.193,2.957,1.168
			s2.139-0.486,2.9-1.301l43.007-46.014l0.65,0.289c7.392,3.277,15.607,1.842,20.93-3.654c2.362-2.439,3.914-5.451,4.587-8.693
			c0.604-2.908,0.453-6-0.404-9.039c-1.976,1.811-12.86,11.789-12.86,11.789l-10.202-2.688l-2.293-11.242
			c0,0,10.299-9.911,12.204-11.744C69.951,4.972,62.537,6.571,57.63,11.637z"/>
		<g>
			
				<linearGradient id="XMLID_17_" gradientUnits="userSpaceOnUse" x1="-568.7139" y1="-156.0771" x2="-597.9941" y2="-176.0409" gradientTransform="matrix(0.9783 0.2071 -0.2071 0.9783 574.5089 334.5931)">
				<stop  offset="0" style="stop-color:#FFFFFF"/>
				<stop  offset="1" style="stop-color:#000000"/>
			</linearGradient>
			<path fill="url(#XMLID_17_)" d="M31.375,71.358c-1.163,1.267-3.117,1.316-4.343,0.111l-1.36-1.338
				c-1.226-1.205-1.209-3.16,0.038-4.344l27.477-26.082c1.247-1.184,3.088-1.344,4.092-0.356s0.874,2.832-0.289,4.099L31.375,71.358
				z"/>
			<path fill="none" stroke="#F8F8F8" stroke-width="0.5" d="M31.375,71.358c-1.163,1.267-3.117,1.316-4.343,0.111l-1.36-1.338
				c-1.226-1.205-1.209-3.16,0.038-4.344l27.477-26.082c1.247-1.184,3.088-1.344,4.092-0.356s0.874,2.832-0.289,4.099L31.375,71.358
				z"/>
		</g>
		<path fill="#868686" d="M19.419,84.149c-1.006,1.031-2.653,1.051-3.684,0.047l-3.48-3.396c-1.029-1.004-1.051-2.652-0.045-3.682
			l3.395-3.482c1.004-1.029,2.653-1.049,3.684-0.043l3.479,3.395c1.03,1.004,1.05,2.652,0.046,3.682L19.419,84.149z"/>
		<path fill="#FFFFFF" d="M19.029,84.598c-0.873,0.895-2.221,0.994-3.014,0.221l-2.676-2.609c-0.791-0.771-0.726-2.123,0.148-3.02
			l2.95-3.023c0.874-0.895,2.222-0.994,3.015-0.221l2.31,2.252l0.364,0.357c0.367,0.357,0.549,0.838,0.554,1.342
			c0.005,0.584-0.231,1.195-0.7,1.676L19.029,84.598z"/>
	</g>
	<g>
		<g>
			<linearGradient id="XMLID_18_" gradientUnits="userSpaceOnUse" x1="39.6021" y1="68.0874" x2="91.4688" y2="68.0874">
				<stop  offset="0" style="stop-color:#BE0000"/>
				<stop  offset="0.05" style="stop-color:#C30707"/>
				<stop  offset="0.34" style="stop-color:#DB2A2A"/>
				<stop  offset="0.4952" style="stop-color:#E43838"/>
				<stop  offset="0.662" style="stop-color:#DA2929"/>
				<stop  offset="0.9807" style="stop-color:#C00303"/>
				<stop  offset="1" style="stop-color:#BE0000"/>
			</linearGradient>
			<path fill="url(#XMLID_18_)" d="M51.746,41.261L40.352,51.443c-0.925,0.828-1.004,2.253-0.179,3.177l2.619,2.93
				c0.398,0.447,0.949,0.714,1.549,0.748c0.372,0.021,0.726-0.068,1.056-0.221c0.436,0.488,1.036,1.16,1.509,1.689
				c-0.527,0.558-0.824,1.282-0.824,2.075c0,0.953,0.378,1.973,1.126,2.808l26.269,29.379c0.773,0.864,1.816,1.393,2.86,1.45
				c0.821,0.045,1.586-0.212,2.155-0.722l12.02-10.775c0.568-0.509,0.906-1.242,0.951-2.063c0.057-1.045-0.354-2.138-1.129-3
				L64.067,49.536c-0.773-0.863-1.815-1.391-2.859-1.448c-0.733-0.04-1.403,0.19-1.948,0.597c-0.477-0.534-1.079-1.208-1.503-1.683
				c0.209-0.353,0.354-0.732,0.354-1.133c0-0.534-0.188-1.069-0.57-1.498l-2.619-2.931C54.095,40.517,52.67,40.437,51.746,41.261z"
				/>
			<path fill="#7C1212" d="M53.243,39.942c-0.738,0-1.447,0.27-1.997,0.76L39.852,50.884c-1.233,1.104-1.339,3.003-0.239,4.235
				l2.62,2.93c0.562,0.635,1.379,1.002,2.236,1.002c0.243,0,0.483-0.029,0.715-0.086l0.722,0.808
				c-0.961,1.535-0.705,3.76,0.745,5.378l26.268,29.378c0.97,1.084,2.284,1.706,3.605,1.706c0.933,0,1.81-0.327,2.47-0.92
				L91.012,84.54c0.717-0.642,1.145-1.558,1.2-2.579c0.068-1.242-0.412-2.533-1.318-3.544l-26.268-29.38
				c-0.971-1.083-2.284-1.703-3.605-1.703c-0.581,0-1.14,0.126-1.638,0.364l-0.707-0.792c0.368-1.005,0.185-2.179-0.576-3.032
				l-2.621-2.933l-0.001-0.001l-0.001-0.001C54.91,40.304,54.095,39.942,53.243,39.942L53.243,39.942z M40.351,53.109
				c0.003-0.407,0.172-0.813,0.5-1.106l11.393-10.181c0.286-0.255,0.643-0.38,0.999-0.38c0.412,0,0.822,0.168,1.119,0.499
				l2.619,2.93c0.258,0.29,0.384,0.652,0.381,1.013c-0.003,0.407-0.172,0.813-0.501,1.106l-0.067,0.06l1.377,1.542l0,0l0,0l0,0
				l1,1.118l0.381-0.341c0.402-0.361,0.92-0.535,1.469-0.535c0.853,0,1.784,0.419,2.487,1.203l26.269,29.382
				c0.624,0.695,0.942,1.537,0.941,2.31c0,0.661-0.233,1.271-0.707,1.694l-12.02,10.776c-0.403,0.361-0.919,0.536-1.468,0.536
				c-0.853,0-1.783-0.419-2.487-1.206L47.767,64.15c-0.623-0.696-0.941-1.538-0.94-2.311c0-0.661,0.233-1.271,0.708-1.696
				l0.397-0.354l-2.395-2.68l-0.068,0.06c-0.286,0.257-0.644,0.383-0.999,0.383c-0.412,0-0.823-0.169-1.118-0.502l-2.619-2.929
				C40.473,53.831,40.348,53.469,40.351,53.109L40.351,53.109z"/>
		</g>
		<g>
			<path fill="#CCCCCC" d="M8.85,11.446l6.398,9.589c0,0,5.879,2.264,6.028,2.321C21.63,23.749,61.25,67.76,61.25,67.76
				c0.767,0.852,2.419,1.521,3.367,0.675l1.247-1.118c0.373-0.335,0.523-0.803,0.523-1.299c0-0.768-0.362-1.604-0.828-2.122
				c0,0-39.675-44.068-39.991-44.42c-0.058-0.222-1.621-6.214-1.621-6.214l-8.812-7.433L8.85,11.446z"/>
			<path fill="#666666" d="M15.122,4.836l-0.971,0.868l-2.293,2.049l-0.213,0.189l-0.146,0.129l-0.004,0.004l-0.004,0.003
				l-0.152,0.136l-0.212,0.191l-2.291,2.048L7.865,11.32l0.722,1.083l5.904,8.85l0.265,0.397l0.444,0.171l5.639,2.171l39.854,44.27
				c0.718,0.799,1.824,1.316,2.815,1.316c0.627,0,1.184-0.203,1.612-0.587l1.244-1.116c0.645-0.579,0.905-1.493,0.714-2.51
				c-0.136-0.725-0.486-1.442-0.962-1.972l-39.87-44.285l-1.514-5.805l-0.12-0.46l-0.364-0.307l-8.131-6.86L15.122,4.836
				L15.122,4.836z M12.491,9.196l0.153-0.135l0.213-0.19l2.293-2.049l8.131,6.86l1.591,6.099l0,0l0,0l-0.021,0.02l40.15,44.597
				c0.376,0.419,0.64,1.072,0.639,1.614c0,0.304-0.084,0.573-0.277,0.746l-1.246,1.117c-0.158,0.142-0.372,0.203-0.609,0.203
				c-0.572,0-1.284-0.357-1.7-0.82L21.655,22.657l-0.033,0.03l-5.883-2.265l-5.904-8.85l0,0l0,0l2.293-2.049l0.211-0.189V9.333
				L12.491,9.196L12.491,9.196z"/>
		</g>
		<defs>
			<filter id="Adobe_OpacityMaskFilter" filterUnits="userSpaceOnUse" x="20.098" y="17.939" width="45.542" height="50.138">
				<feFlood  style="flood-color:white;flood-opacity:1" result="back"/>
				<feBlend  in="SourceGraphic" in2="back" mode="normal"/>
			</filter>
		</defs>
		<mask maskUnits="userSpaceOnUse" x="20.098" y="17.939" width="45.542" height="50.138" id="XMLID_19_">
			<g filter="url(#Adobe_OpacityMaskFilter)">
				
					<linearGradient id="XMLID_20_" gradientUnits="userSpaceOnUse" x1="97.9258" y1="-80.3257" x2="97.9258" y2="-83.1696" gradientTransform="matrix(0.7457 -0.6663 0.6663 0.7457 4.3633 147.9164)">
					<stop  offset="0" style="stop-color:#FFFFFF"/>
					<stop  offset="1" style="stop-color:#000000"/>
				</linearGradient>
				<polygon fill="url(#XMLID_20_)" points="30.168,19.316 19.73,28.645 13.816,22.027 24.255,12.699 				"/>
			</g>
		</mask>
		
			<linearGradient id="XMLID_21_" gradientUnits="userSpaceOnUse" x1="96.3516" y1="-52.5864" x2="100.8643" y2="-52.5864" gradientTransform="matrix(0.7457 -0.6663 0.6663 0.7457 4.3633 147.9164)">
			<stop  offset="0" style="stop-color:#BDBDBD"/>
			<stop  offset="0.4762" style="stop-color:#DADADA"/>
			<stop  offset="1" style="stop-color:#979797"/>
		</linearGradient>
		<path mask="url(#XMLID_19_)" fill="url(#XMLID_21_)" d="M65.001,64.397c0.588,0.654,0.898,1.879,0.362,2.361l-1.246,1.117
			c-0.538,0.48-1.721,0.037-2.31-0.617L21.38,22.351c-1.256-1.4-1.568-2.625-1.03-3.107l1.245-1.116
			c0.539-0.481,1.721-0.038,2.977,1.362L65.001,64.397z"/>
		<defs>
			<filter id="Adobe_OpacityMaskFilter_1_" filterUnits="userSpaceOnUse" x="9.835" y="6.822" width="15.197" height="16.283">
				<feFlood  style="flood-color:white;flood-opacity:1" result="back"/>
				<feBlend  in="SourceGraphic" in2="back" mode="normal"/>
			</filter>
		</defs>
		<mask maskUnits="userSpaceOnUse" x="9.835" y="6.822" width="15.197" height="16.283" id="XMLID_22_">
			<g filter="url(#Adobe_OpacityMaskFilter_1_)">
				
					<linearGradient id="XMLID_1_" gradientUnits="userSpaceOnUse" x1="98.5186" y1="-83.3438" x2="98.5186" y2="-80.4531" gradientTransform="matrix(0.7457 -0.6663 0.6663 0.7457 4.3633 147.9164)">
					<stop  offset="0" style="stop-color:#FFFFFF"/>
					<stop  offset="1" style="stop-color:#000000"/>
				</linearGradient>
				<polygon fill="url(#XMLID_1_)" points="28.476,19.086 20.572,26.151 16.616,21.724 24.521,14.659 				"/>
			</g>
		</mask>
		<linearGradient id="XMLID_2_" gradientUnits="userSpaceOnUse" x1="19.7231" y1="17.3135" x2="-2.2182" y2="-9.738">
			<stop  offset="0" style="stop-color:#DADADA"/>
			<stop  offset="0.2168" style="stop-color:#D4D4D4"/>
			<stop  offset="0.5119" style="stop-color:#C2C2C2"/>
			<stop  offset="0.8506" style="stop-color:#A6A6A6"/>
			<stop  offset="1" style="stop-color:#979797"/>
		</linearGradient>
		<polygon mask="url(#XMLID_22_)" fill="url(#XMLID_2_)" points="23.282,13.682 15.15,6.822 12.857,8.871 12.644,9.061 
			12.644,9.061 12.492,9.196 12.339,9.332 12.339,9.333 12.128,9.522 9.835,11.571 15.74,20.421 21.623,22.686 23.9,23.105 
			25.033,22.093 24.873,19.781 		"/>
		
			<linearGradient id="XMLID_3_" gradientUnits="userSpaceOnUse" x1="91.2051" y1="-38.7725" x2="106.3018" y2="-38.7725" gradientTransform="matrix(0.7457 -0.6663 0.6663 0.7457 4.3633 147.9164)">
			<stop  offset="0" style="stop-color:#BE0000"/>
			<stop  offset="0.05" style="stop-color:#C30707"/>
			<stop  offset="0.34" style="stop-color:#DB2A2A"/>
			<stop  offset="0.4952" style="stop-color:#E43838"/>
			<stop  offset="0.662" style="stop-color:#DA2929"/>
			<stop  offset="0.9807" style="stop-color:#C00303"/>
			<stop  offset="1" style="stop-color:#BE0000"/>
		</linearGradient>
		<path fill="url(#XMLID_3_)" d="M59.326,49.883c0.645,0.721,0.62,1.791-0.053,2.393l-8.82,7.881
			c-0.672,0.602-1.739,0.506-2.383-0.215l-3.055-3.416c-0.643-0.721-0.619-1.791,0.054-2.393l8.82-7.883
			c0.673-0.602,1.74-0.504,2.384,0.217L59.326,49.883z"/>
		<path opacity="0.24" fill="#791A16" d="M59.326,49.883c0.645,0.721,0.62,1.791-0.053,2.393l-8.82,7.881
			c-0.672,0.602-1.739,0.506-2.383-0.215l-3.055-3.416c-0.643-0.721-0.619-1.791,0.054-2.393l8.82-7.883
			c0.673-0.602,1.74-0.504,2.384,0.217L59.326,49.883z"/>
		
			<linearGradient id="XMLID_4_" gradientUnits="userSpaceOnUse" x1="88.1787" y1="-13.8574" x2="109.3311" y2="-13.8574" gradientTransform="matrix(0.7457 -0.6663 0.6663 0.7457 4.3633 147.9164)">
			<stop  offset="0" style="stop-color:#BE0000"/>
			<stop  offset="0.05" style="stop-color:#C30707"/>
			<stop  offset="0.34" style="stop-color:#DB2A2A"/>
			<stop  offset="0.4952" style="stop-color:#E43838"/>
			<stop  offset="0.662" style="stop-color:#DA2929"/>
			<stop  offset="0.9807" style="stop-color:#C00303"/>
			<stop  offset="1" style="stop-color:#BE0000"/>
		</linearGradient>
		<path fill="url(#XMLID_4_)" d="M89.777,79.418c1.157,1.289,1.262,3.084,0.234,4.004l-12.02,10.775
			c-1.027,0.922-2.798,0.623-3.955-0.67l-26.27-29.379c-1.156-1.291-1.262-3.084-0.232-4.006l12.018-10.775
			c1.028-0.922,2.8-0.623,3.956,0.668L89.777,79.418z"/>
		
			<linearGradient id="XMLID_5_" gradientUnits="userSpaceOnUse" x1="89.6143" y1="-43.7466" x2="107.8945" y2="-43.7466" gradientTransform="matrix(0.7457 -0.6663 0.6663 0.7457 4.3633 147.9164)">
			<stop  offset="0" style="stop-color:#BE0000"/>
			<stop  offset="0.05" style="stop-color:#C30707"/>
			<stop  offset="0.34" style="stop-color:#DB2A2A"/>
			<stop  offset="0.4952" style="stop-color:#E43838"/>
			<stop  offset="0.662" style="stop-color:#DA2929"/>
			<stop  offset="0.9807" style="stop-color:#C00303"/>
			<stop  offset="1" style="stop-color:#BE0000"/>
		</linearGradient>
		<path fill="url(#XMLID_5_)" d="M56.981,44.87c0.552,0.619,0.499,1.566-0.119,2.119l-11.394,10.18
			c-0.617,0.553-1.566,0.5-2.117-0.119l-2.619-2.93c-0.552-0.617-0.498-1.564,0.119-2.117l11.394-10.182
			c0.618-0.551,1.565-0.498,2.118,0.119L56.981,44.87z"/>
		<g opacity="0.7">
			
				<linearGradient id="XMLID_6_" gradientUnits="userSpaceOnUse" x1="96.7197" y1="-13.0347" x2="101.0547" y2="-13.0347" gradientTransform="matrix(0.7457 -0.6663 0.6663 0.7457 4.3633 147.9164)">
				<stop  offset="0.0048" style="stop-color:#B10000"/>
				<stop  offset="1" style="stop-color:#860206"/>
			</linearGradient>
			<path fill="url(#XMLID_6_)" d="M57.889,59.253l-0.151,0.135c-0.455,0.405-0.733,0.957-0.764,1.512
				c-0.025,0.445,0.114,0.86,0.391,1.17l20.877,23.365c0.643,0.719,1.857,0.687,2.707-0.072l0.151-0.134
				c0.85-0.76,1.017-1.963,0.374-2.683L60.595,59.183c-0.276-0.309-0.673-0.493-1.117-0.519
				C58.923,58.632,58.344,58.847,57.889,59.253z"/>
			<path fill="#F85353" d="M59.37,58.413c-0.588,0-1.174,0.231-1.648,0.655l-0.151,0.135c-0.504,0.449-0.813,1.063-0.848,1.685
				c-0.028,0.512,0.133,0.991,0.455,1.351l20.877,23.363c0.347,0.391,0.848,0.605,1.41,0.605c0.589,0,1.175-0.233,1.649-0.657
				l0.15-0.134c0.449-0.401,0.742-0.927,0.826-1.481c0.09-0.59-0.063-1.142-0.431-1.554L60.781,59.017
				C60.432,58.627,59.931,58.413,59.37,58.413L59.37,58.413z M57.22,60.995c0.003-0.494,0.239-1.022,0.684-1.419l0.151-0.135
				c0.393-0.351,0.87-0.528,1.315-0.528c0.401,0,0.776,0.145,1.038,0.438l20.879,23.363c0.224,0.251,0.331,0.572,0.329,0.91
				c-0.004,0.493-0.24,1.021-0.684,1.418l-0.151,0.135c-0.395,0.353-0.873,0.53-1.316,0.53c-0.401,0-0.776-0.146-1.037-0.438
				L57.55,61.904C57.325,61.653,57.218,61.332,57.22,60.995L57.22,60.995z"/>
		</g>
		
			<linearGradient id="XMLID_7_" gradientUnits="userSpaceOnUse" x1="104.9688" y1="-13.9077" x2="107.6367" y2="-13.9077" gradientTransform="matrix(0.7457 -0.6663 0.6663 0.7457 4.3633 147.9164)">
			<stop  offset="0.0048" style="stop-color:#B10000"/>
			<stop  offset="1" style="stop-color:#860206"/>
		</linearGradient>
		<path opacity="0.7" fill="url(#XMLID_7_)" stroke="#F85353" stroke-width="0.5" d="M85.801,77.51
			c0.552,0.617,0.578,1.494,0.058,1.959l-0.104,0.094c-0.521,0.465-1.389,0.342-1.941-0.277L62.934,55.922
			c-0.552-0.619-0.578-1.496-0.058-1.961l0.105-0.094c0.52-0.465,1.389-0.34,1.94,0.277L85.801,77.51z"/>
		
			<linearGradient id="XMLID_8_" gradientUnits="userSpaceOnUse" x1="89.7637" y1="-13.8677" x2="92.4316" y2="-13.8677" gradientTransform="matrix(0.7457 -0.6663 0.6663 0.7457 4.3633 147.9164)">
			<stop  offset="0.0048" style="stop-color:#B10000"/>
			<stop  offset="1" style="stop-color:#860206"/>
		</linearGradient>
		<path fill="url(#XMLID_8_)" stroke="#F85353" stroke-width="0.5" d="M74.488,87.67c0.553,0.619,0.578,1.496,0.059,1.961
			l-0.105,0.094c-0.521,0.465-1.389,0.34-1.941-0.277L51.622,66.083c-0.552-0.617-0.578-1.494-0.058-1.959l0.105-0.094
			c0.52-0.465,1.389-0.342,1.94,0.277L74.488,87.67z"/>
	</g>
</g>
</svg>
