<svg viewBox="0 0 24 24" xmlns="http://www.w3.org/2000/svg"><path d="m5.494164 16.896042q-.168613 0-.259404-.05544-.09079-.05544-.123216-.228713l-.142673-.630699q-.246433.242574-.486381.436634-.233463.187128-.492867.318812-.259402.131682-.557717.194059-.298314.069305-.654993.069305-.36965 0-.693904-.103961-.317769-.110891-.564202-.332673-.239948-.228713-.38262-.561386-.136187-.339604-.136187-.79703 0-.40198.201037-.769307.207523-.374257.667964-.665346.460441-.291089 1.19974-.471287.7393-.187129 1.815824-.214852v-.519802q0-.790099-.317769-1.185148-.311284-.401981-.914397-.401981-.402075 0-.680933.110891-.272374.110892-.473412.242575-.201038.131683-.350194.242574-.142672.110891-.29183.110891-.116731 0-.201036-.06238-.08431-.06238-.136187-.159406l-.207523-.388116q.525292-.540594 1.128404-.80396.609598-.270297 1.348898-.270297.531777 0 .946823.187128.415045.180198.693904.519802.278858.339604.42153.810891.149157.471288.149157 1.046535v4.331684zm-2.373542-.748516q.285344 0 .525292-.06238.239948-.06238.453956-.173267.214007-.117822.402075-.284158.194553-.173268.38262-.381188v-1.4q-.758755.03465-1.290531.138613-.531778.09703-.869001.263367-.33074.166336-.479897.395049-.149157.221782-.149157.49901 0 .263367.07782.457426.0843.187129.220493.311881.136187.117822.324254.180198.188068.05545.402075.05545z" fill="#3a3a38"/><path d="m17.000005 16.912256v-8.912256h1.025641v3.6539q.34965-.444987.798367-.70195.448719-.263232 1.031469-.263232.495338 0 .891609.206826.39627.206824.67599.595403.279721.388579.425408.946379.151515.551532.151515 1.253482 0 .745821-.168997 1.35376-.168998.607939-.483683 1.046658-.314686.43245-.763404.670612-.448717.238162-1.008158.238162-.559441 0-.938228-.225627-.37296-.231894-.664336-.639276l-.05828.545265q-.02331.231894-.250582.231894h-.664336zm2.511654-5.352367q-.472028 0-.833333.238161-.355478.238162-.65268.676881v2.958216q.268065.394847.588578.5578.320512.156685.705128.156685.786713 0 1.206294-.607938.41958-.60794.41958-1.811282 0-1.115598-.372961-1.642061-.37296-.526462-1.060606-.526462z" fill="#3a3a38"/><g fill="none" stroke="#3a3a38" stroke-linecap="round"><path d="m8.5023407 12.49374c.4976593-1.49374 1.4976593-2.49374 3.0470963-1.00005s2.450563.50631 2.953563-.99995"/><path d="m8.5023407 15.493241c.4976593-1.49374 1.4976593-2.49374 3.0470963-1.00005s2.450563.50631 2.953563-.99995"/></g></svg>