<svg height="96" viewBox="0 0 96 96" width="96" xmlns="http://www.w3.org/2000/svg"><g fill="#3a3a38"><path d="m19.738531 53.628867-.123853.907216q0 .618557.825688.618557.825688 0 2.146789-.783505l.412844 1.319587q-2.683486 2.309279-4.706422 2.309279-1.403669 0-1.857798-.536083-.454129-.536082-.454129-1.27835 0-.783505.330276-2.515464-2.931193 4.329897-5.986239 4.329897-3.0137605 0-4.1697237-1.896907-1.1559632-1.938145-1.1559632-5.319588 0-3.381443 1.0733944-6.185567 1.0733944-2.84536 3.2614676-4.70103 2.1880729-1.896907 4.7064219-1.896907 2.518349 0 4.830275 1.072165l2.105504-.989691 1.197248.577319zm-8.422018 2.226804q1.733945 0 3.591744-2.969072 1.857797-3.01031 2.600917-7.587629l.701835-4.329897q-1.527524-.98969-3.261469-.98969-1.733944 0-3.302752 1.85567-1.527522 1.814433-2.2706416 4.206186-.7018347 2.391752-.7018347 4.618556 0 5.195876 2.6422013 5.195876z"/><path d="m43.000002 47v-3h6.999998v-7.000003h3v7.000003h7.000002v3h-7.000002v6.999997h-3v-6.999997z"/><path d="m75.223329 57.176139q-.421836-.164773-.843673-.617898-.379652-.494319-.379652-1.071023 0-.576704.210918-2.018465 1.476427-8.856534 2.404467-14.541194.928039-5.684658.928039-6.055397 0-1.730113-3.248138-2.059659l.210918-1.359375 6.116624-.453124 1.054591 1.029829-2.024814 12.110795q2.868486-4.036932 5.905707-4.036932 3.079405 0 4.260546 1.93608 1.181141 1.936079 1.181141 5.190341 0 3.213068-1.223325 6.09659-1.223324 2.842329-3.585608 4.778409-2.362283 1.894886-4.977667 1.894886-2.615385 0-4.091811-.329546-1.434243-.370738-1.898263-.494317zm5.441687-1.02983q2.741936 0 4.640198-3.460227 1.940447-3.50142 1.940447-7.208807 0-5.231534-2.699752-5.231534-1.98263 0-4.091811 3.913353-2.109181 3.872159-2.826302 10.463067 0 .700284.843672 1.112216.885856.411932 2.193548.411932z"/></g><g fill="none" stroke="#1e8bcd" stroke-linecap="round" stroke-linejoin="round"><path d="m42.5 49.5.0025 17.980216" stroke-width="1.004882"/><path d="m23.502491 54.499585v12.980631" stroke-width="1.004882"/><path d="m28.507121 67.49495-4-4 4-4"/><path d="m24.507121 63.49495h16.992879"/><path d="m37.50505 67.49495 4-4-4-4"/></g></svg>