<svg viewBox="0 0 24 24" xmlns="http://www.w3.org/2000/svg"><g fill="#3a3a38" transform="translate(24)"><rect height="1" ry=".5" width="14.999998" x="-22" y="2"/><rect height="1" ry=".392136" width="15.000005" x="-22" y="10"/><g transform="scale(-1 1)"><path d="m7.4355469 18c-.2417883 0-.4355469.193759-.4355469.435547v.128906c0 .241788.1937586.435547.4355469.435547h4.5644531v-1z"/><path d="m7.5 21c-.277 0-.5.223-.5.5s.223.5.5.5h6.015625l-.464844-.464844a1.0001 1.0001 0 0 1 -.277343-.535156z"/><path d="m7.5 13c-.277 0-.5.223-.5.5s.223.5.5.5h6.015625l.242187-.242188.707032-.707031a1.0001 1.0001 0 0 1 .054687-.050781z"/></g><rect height="1" ry=".5" width="9.000002" x="-16" y="5"/></g><g fill="#1e8bcd" transform="matrix(-1 0 0 1 24 0)"><circle cx="3.5" cy="3.5" r="1.5"/><circle cx="3.5" cy="11.5" r="1.5"/><circle cx="-3.5" cy="19.5" r="1.5" transform="scale(-1 1)"/></g><path d="m7 13 .349609 1.744141 1.478516-.986329.707031.707032.707032.707031-.986329 1.478516 1.744141.349609v1 1l-1.744141.349609.986329 1.478516-.707032.707031-.707031.707032-1.478516-.986329-.349609 1.744141h-1-1l-.349609-1.744141-1.478516.986329-.707031-.707032-.707032-.707031.986329-1.478516-1.744141-.349609v-1-1l1.744141-.349609-.986329-1.478516.707032-.707031.707031-.707032 1.478516.986329.349609-1.744141h1zm-.800781 1h-.398438l-.300781 1.5h-.535156l-.378906.378906-1.273438-.847656-.28125.28125.847656 1.273438-.378906.378906v.535156l-1.5.300781v.398438l1.5.300781v.535156l.378906.378906-.847656 1.273438.28125.28125 1.273438-.847656.378906.378906h.535156l.300781 1.5h.398438l.300781-1.5h.535156l.378906-.378906 1.273438.847656.28125-.28125-.847656-1.273438.378906-.378906v-.535156l1.5-.300781v-.398438l-1.5-.300781v-.535156l-.378906-.378906.847656-1.273438-.28125-.28125-1.273438.847656-.378906-.378906h-.535156zm-.199219 2a2 2 0 0 1 2 2 2 2 0 0 1 -2 2 2 2 0 0 1 -2-2 2 2 0 0 1 2-2zm0 1a1 1 0 0 0 -1 1 1 1 0 0 0 1 1 1 1 0 0 0 1-1 1 1 0 0 0 -1-1z" fill="#1e8bcd"/><path d="m6.199219 14h-.398438l-.300781 1.5h-.535156l-.378906.378906-1.273438-.847656-.28125.28125.847656 1.273438-.378906.378906v.535156l-1.5.300781v.398438l1.5.300781v.535156l.378906.378906-.847656 1.273438.28125.28125 1.273438-.847656.378906.378906h.535156l.300781 1.5h.398438l.300781-1.5h.535156l.378906-.378906 1.273438.847656.28125-.28125-.847656-1.273438.378906-.378906v-.535156l1.5-.300781v-.398438l-1.5-.300781v-.535156l-.378906-.378906.847656-1.273438-.28125-.28125-1.273438.847656-.378906-.378906h-.535156zm-.199219 2c1.104569 0 2 .895431 2 2s-.895431 2-2 2-2-.895431-2-2 .895431-2 2-2z" fill="#fafafa"/></svg>