<svg viewBox="0 0 24 24" xmlns="http://www.w3.org/2000/svg"><g fill="#3a3a38" transform="translate(24)"><rect height="1" ry=".5" width="14.999998" x="-22" y="2"/><rect height="1" ry=".392136" width="15.000005" x="-22" y="10"/><rect height="1" ry=".5" width="9.000002" x="-16" y="5"/><g transform="scale(-1 1)"><path d="m7.5 13c-.277 0-.5.223-.5.5s.223.5.5.5h.3671875l.7089844-.708984a1.0015534 1.0015534 0 0 1 .6464843-.291016zm1.8710938 0a1.0015534 1.0015534 0 0 1 .6230468.291016l.7089844.708984h4.796875c.277 0 .5-.223.5-.5s-.223-.5-.5-.5z"/><path d="m8.1328125 18-.90625.90625c.0797331.053717.1696564.09375.2734375.09375h14c.277 0 .5-.223.5-.5s-.223-.5-.5-.5z"/><path d="m9.1328125 21 .9999995 1h5.367188c.277 0 .5-.223.5-.5s-.223-.5-.5-.5z"/></g></g><g fill="#1e8bcd" transform="matrix(-1 0 0 1 24 0)"><circle cx="3.5" cy="11.5" r="1.5"/><path d="m5.142809 7.4177009h-1.24216v-4.0358857q0-.1774515-.01365-.3685532l1.014658.8918078q.109201.091001.213852.063701.100101-.03185.141052-.091001l.241152-.3321531-1.742666-1.5424637h-.618805v5.4145479h-1.13751v.5824052h3.144077z" fill="#1e8bcd"/></g><path d="m14.714285 14 4.285715 4.285714 4.285715-4.285714.714285.714285-4.285714 4.285715 4.285714 4.285715-.714285.714285-4.285715-4.285714-4.285715 4.285714-.714285-.714285 4.285714-4.285715-4.285714-4.285715z" fill="#ed3d3b"/></svg>