<svg viewBox="0 0 24 24" xmlns="http://www.w3.org/2000/svg"><g fill="#3a3a38"><rect height="1" ry=".5" width="14.999998" x="2" y="2"/><rect height="1" ry=".392136" width="15.000005" x="2" y="10"/><rect height="1" ry=".436441" width="15.000001" x="2" y="18"/><rect height="1" ry=".5" width="8.999999" x="8" y="21"/><rect height="1" ry=".5" width="8.999999" x="8" y="13"/><rect height="1" ry=".5" width="9.000002" x="8" y="5"/></g><g fill="#1e8bcd" transform="matrix(-1 0 0 1 24 0)"><path d="m2 2v1h1v4h-1v1h1 1 1v-1h-1v-4h1v-1h-1-1z"/><path d="m1 10v1h1v4h-1v1h1 1 3v-1h-1v-4h1v-1h-3-1zm2 1h1v4h-1z"/><path d="m0 18v1h1v4h-1v1h1 1 1 2 2v-1h-1v-4h1v-1h-2-2-1-1zm2 1h1v4h-1zm2 0h1v4h-1z"/></g></svg>