<svg viewBox="0 0 16 16" xmlns="http://www.w3.org/2000/svg"><rect fill="#3a3a38" height="1" ry=".5" width="10" x="1" y="2"/><rect fill="#3a3a38" height="1" ry=".5" width="6.000002" x="5" y="5"/><path d="m13 6h1v-3.168421c0-.1383459.0048-.2827068.01456-.4330828l-.611651.6112782c-.05502.042105-.110032.067669-.165048.076692-.05502.00902-.106796.00902-.15534 0-.04854-.00902-.09223-.02406-.131068-.045113-.0356-.02406-.06311-.04812-.08252-.072181l-.368933-.4691724 1.708737-1.5h.791263v5h1v1h-3z" fill="#1e8bcd"/><path d="m14.089086 9q.4098 0 .743875.125093.33853.120625.574611.344006.240534.223381.36971.540581.13363.312732.13363.692479 0 .326136-.09354.607595-.09354.276992-.249443.531646-.155902.250186-.365256.491437-.209354.236784-.44098.478035l-1.256124 1.317944q.200445-.06254.40089-.09382.200446-.03574.374165-.03574h1.340756q.169265 0 .271715.09829.106905.098283.106905.259116v.643336h-4v-.361876q0-.102755.04009-.218913.04454-.120625.151448-.22338l1.719376-1.773642q.218263-.227848.383073-.433358.169265-.20551.280624-.406552.115813-.20551.173719-.411021.05791-.209977.05791-.437825 0-.411021-.204899-.620998-.2049-.209978-.579065-.209978-.160356 0-.293987.04915-.13363.04915-.240534.134028-.106904.08488-.182628.201043-.07572.116158-.115813.250186-.07127.205509-.195991.268056-.120267.06254-.334076.0268l-.570157-.09829q.066812-.433353.240531-.755022.173719-.326134.432071-.54058.262806-.218913.601336-.326136.338531-.11169.726058-.11169z" fill="#1e8bcd"/><g fill="#3a3a38"><rect height="1" ry=".5" width="10" x="1.000001" y="10"/><rect height="1" ry=".5" width="6.000002" x="5" y="13"/></g></svg>