<svg viewBox="0 0 16 16" xmlns="http://www.w3.org/2000/svg"><rect fill="#1e8bcd" height="1" ry=".5" width="10" x="1" y="2"/><rect fill="#3a3a38" height="1" ry=".5" width="8" x="1" y="5"/><g fill="#1e8bcd"><g><rect fill="#1e8bcd" height="1" ry=".5" width="10" x="1.000001" y="10"/><rect fill="#3a3a38" height="1" ry=".5" width="8" x="1" y="13"/></g><path d="m15.75 2c.1385 0 .25.1115.25.25v8.5c0 .1385-.1115.25-.25.25h-2.050781l.136719.138672c.325518.317139.11838.872828-.335938.861328-.130048-.0041-.25337-.05875-.34375-.152344l-.931641-.912109c-.173289-.160649-.223009-.266429-.224609-.435547.0016-.169118.05132-.274898.224609-.435547l.931641-.9121089c.09038-.093594.213702-.1482438.34375-.1523438.454318-.011504.661456.5441894.335938.8613281l-.136719.1386716h1.300781v-7h-2.75c-.1385 0-.25-.1115-.25-.25v-.5c0-.1385.1115-.25.25-.25z" fill-rule="evenodd"/></g></svg>