<svg viewBox="0 0 16 16" xmlns="http://www.w3.org/2000/svg"><rect fill="#3a3a38" height="1" ry=".5" width="10" x="1" y="2"/><rect fill="#3a3a38" height="1" ry=".5" width="6.000002" x="5" y="5"/><rect fill="#1e8bcd" height="1" ry=".5" width="10" x="1.000001" y="10"/><rect fill="#1e8bcd" height="1" ry=".5" width="6.000002" x="5" y="13"/><path d="m3.7118182 1.4642401q0 .229036-.1481998.3772357-.1481997.1437089-.4895082.1437089h-1.5269066l-.1975997 1.1721253q.3547812-.071854.6826171-.071854.4580719 0 .8083623.1437088.3547812.139218.592799.3862176.2380178.2469996.3592721.5793263.1212544.3323267.1212544.7140534 0 .4760356-.1661634.8712349-.1616724.3907081-.4535811.669144-.2919086.2784359-.6960897.4356174-.3996903.1526907-.8757259.1526907-.2784359 0-.5299264-.058382-.24699956-.0583814-.46705374-.1571813-.22005418-.0987998-.40867206-.229036-.18412697-.1302361-.33232672-.273945l.33232672-.458072q.11227255-.1481997.27843591-.1481997.10778164 0 .21107238.067363.10329074.062873.23352691.1437089.134727.080836.3098722.1481997.1796361.062873.4356175.062873.2649632 0 .4580719-.089818.1975997-.0898179.3278359-.2469995.1302361-.1571815.1931087-.3682539.0673636-.2155633.0673636-.4670538 0-.4760356-.2649632-.7365079-.2649632-.2604723-.7679442-.2604723-.2020906 0-.4086721.040418-.2065815.0359274-.41316294.1122727l-.66914436-.184127.48501739-2.923577h2.91908611z" fill="#3a3a38" transform="translate(11.326572)"/><path d="m12 14h1v-3.168421c0-.138346.0048-.282707.01456-.433083l-.61165.611278c-.05502.0421-.110033.06767-.165049.07669-.05502.009-.106796.009-.15534 0-.04854-.009-.09223-.02406-.131068-.04511-.0356-.02406-.06311-.04812-.08252-.07218l-.368933-.469174 1.708738-1.5h.791262v5h1v1h-3z" fill="#1e8bcd"/></svg>