<svg height="32" viewBox="0 0 32 32" width="32" xmlns="http://www.w3.org/2000/svg"><g stroke-width=".125" transform="matrix(.70710678 .70710678 .70710678 -.70710678 -3.962616 12.627563)"><path d="m21 25.000915c-.00015.177112-.04733.351007-.136719.503907l-3.5 6c-.386164.660237-1.340398.660237-1.726562 0l-3.5-6c-.089388-.1529-.136569-.326795-.136719-.503907v-1c.000055-.552262.447738-.999945 1-1h.349609c.205523.000107.406023.06353.574219.181641.754039.529888 1.652682.815586 2.574219.81836h.002.002c.923131-.0018 1.824685-.287522 2.580078-.81836.168135-.118101.368618-.181524.574125-.181641h.34375c.552262.000055.999945.447738 1 1zm-1 0v-1h-.34375c-.924399.649603-2.026428.9988-3.15625 1-1.127821-.0024-2.227628-.351543-3.150391-1h-.349609v1l3.5 6.000001zm0-5.499999c0 1.921152-1.578848 3.499999-3.5 3.499999s-3.5-1.578847-3.5-3.499999 1.578848-3.5 3.5-3.5 3.5 1.578848 3.5 3.5zm-1 0c0-1.380712-1.119288-2.5-2.5-2.5s-2.5 1.119288-2.5 2.5 1.119288 2.499999 2.5 2.499999 2.5-1.119287 2.5-2.499999z" fill="#ffeffc"/><path d="m20 25.000915-3.5 6.000001-3.5-6.000001v-1h.349609c.922763.648457 2.02257.997559 3.150391 1 1.129822-.0012 2.231851-.350397 3.15625-1h.34375zm-1-5.499999c0 1.380712-1.119288 2.499999-2.5 2.499999s-2.5-1.119287-2.5-2.499999 1.119288-2.5 2.5-2.5 2.5 1.119288 2.5 2.5z"/></g></svg>