<svg height="32" viewBox="0 0 32 32" width="32" xmlns="http://www.w3.org/2000/svg"><g stroke-width=".125"><path d="m10 11a1.0001 1.0001 0 0 0 -.5039062.136719l-6 3.5a1.0001 1.0001 0 0 0 0 1.726562l6 3.5a1.0001 1.0001 0 0 0 .5039062.136719h1a1.0001 1.0001 0 0 0 1-1v-.349609a1.0001 1.0001 0 0 0 -.181641-.574219c-.529888-.754039-.815585-1.652682-.818359-2.574219v-.001953-.001953c.0018-.923131.287522-1.824685.818359-2.580078a1.0001 1.0001 0 0 0 .181641-.574219v-.34375a1.0001 1.0001 0 0 0 -1-1zm10 0a1.0001 1.0001 0 0 0 -1 1v.349609a1.0001 1.0001 0 0 0 .181641.574219c.530619.755078.816362 1.655253.818359 2.578125-.0018.923131-.287522 1.824685-.818359 2.580078a1.0001 1.0001 0 0 0 -.181641.574219v.34375a1.0001 1.0001 0 0 0 1 1h1a1.0001 1.0001 0 0 0 .503906-.136719l6-3.5a1.0001 1.0001 0 0 0 0-1.726562l-6-3.5a1.0001 1.0001 0 0 0 -.503906-.136719zm-10 1h1v.34375c-.649603.924399-.9988 2.026428-1 3.15625.002441 1.127821.351543 2.227628 1 3.150391v.349609h-1l-6-3.5zm5.5 0c-1.921152 0-3.5 1.578848-3.5 3.5s1.578848 3.5 3.5 3.5 3.5-1.578848 3.5-3.5-1.578848-3.5-3.5-3.5zm4.5 0h1l6 3.5-6 3.5h-1v-.34375c.649603-.924399.9988-2.026428 1-3.15625-.002441-1.127821-.351543-2.227628-1-3.150391zm-4.5 1c1.380712 0 2.5 1.119288 2.5 2.5s-1.119288 2.5-2.5 2.5-2.5-1.119288-2.5-2.5 1.119288-2.5 2.5-2.5z" fill="#ffeffc"/><path d="m10 12-6 3.5 6 3.5h1v-.349609c-.648457-.922763-.997559-2.02257-1-3.150391.0012-1.129822.350397-2.231851 1-3.15625v-.34375zm10 0v.349609c.648457.922763.997559 2.02257 1 3.150391-.0012 1.129822-.350397 2.231851-1 3.15625v.34375h1l6-3.5-6-3.5zm-4.5 1c-1.380712 0-2.5 1.119288-2.5 2.5s1.119288 2.5 2.5 2.5 2.5-1.119288 2.5-2.5-1.119288-2.5-2.5-2.5z"/></g></svg>