<svg height="32" viewBox="0 0 32 32" width="32" xmlns="http://www.w3.org/2000/svg"><g transform="matrix(.125 0 0 .125 -3.5 -2)"><path d="m6 0v6h-6v3h6v6h3v-6h6v-3h-6v-6zm14 15c-2.749579 0-5 2.250421-5 5s2.250421 5 5 5 5-2.250421 5-5-2.250421-5-5-5zm0 3c1.116414 0 2 .883586 2 2s-.883586 2-2 2-2-.883586-2-2 .883586-2 2-2z" fill="#fafafa" stroke-width=".125" transform="matrix(8 0 0 8 28 16)"/><path d="m84 16v56h-56v8h56v56h8v-56h56v-8h-56v-56zm104 128c-17.67311 0-32 14.32689-32 32s14.32689 32 32 32 32-14.32689 32-32-14.32689-32-32-32zm0 8c13.25483 0 24 10.74517 24 24s-10.74517 24-24 24-24-10.74517-24-24 10.74517-24 24-24z"/></g></svg>