<svg height="32" viewBox="0 0 32 32" width="32" xmlns="http://www.w3.org/2000/svg"><g transform="matrix(.125 0 0 .125 -4.5 -3)"><path d="m6 0v6h-6v3h6v6h3v-6h6v-3h-6v-6zm11 15v1 1.414062l2.777344 2.785157-1.277344 1.800781h-2.5v3h4.5l1.699219-2.375 2.375 2.375h2.425781v-2.400391l-2.777344-2.798828 1.291016-1.800781h2.486328v-3h-3-1.5l-1.699219 2.375-2.375-2.375z" fill="#fafafa" stroke-width=".125" transform="matrix(8 0 0 8 36 24)"/><path d="m92 24v56h-56v8h56v56h8v-56h56v-8h-56v-56zm88 128v8l24.8 24.8-16.8 23.2h-16v8h24l16.67187-23.32813 23.32813 23.32813h8v-8l-24.8-24.8 16.8-23.2h16v-8h-16-8l-16.8 23.2-23.2-23.2z"/></g></svg>