<svg height="32" viewBox="0 0 32 32" width="32" xmlns="http://www.w3.org/2000/svg"><g transform="matrix(.125 0 0 .125 0 -1.292969)"><path d="m96 104v20.75l48 47.8116 45.89005-44.5616-31.43373-33.559648-14.45632-6.440352-8-12.20339z" fill="#fafafa"/><path d="m130.34375 72-26.34375 26.343752v-10.343752h-16l-24 24v48h8v16h8v8h8v-56h10.343752l5.656248 5.65625v8c11.44791 11.44793 22.89583 22.89584 34.34375 34.34375h11.3125l42.34375-42.34375v-11.3125c-11.3847-11.59541-23.03612-23.036118-34.34375-34.34375h-8l-5.65625-5.65625v-10.34375zm3.3125 8h2.34375v5.65625l10.34375 10.34375h8l2.82812 2.828128-42.34374 42.343742-2.82813-2.82812v-8l-10.34375-10.34375h-5.65625v-2.34375zm43.53125 38.84375 6.8125 6.8125v4.6875l-37.65625 37.65625h-4.6875l-6.98438-6.98438z"/></g></svg>