<svg height="32" viewBox="0 0 32 32" width="32" xmlns="http://www.w3.org/2000/svg"><g transform="matrix(.125 0 0 .125 -4 -5)"><path d="m40 48v104l24-24 27.59375 51.71875c3.367476 5.37539 11.72315 5.33031 16.78125 1.26563 4.41006-4.12147 3.07811-12.14063.39062-16.42188l-27.45312-44.5625h38.6875zm136 120v40h40v-40z" fill="#fafafa"/><path d="m32 40v131.3125l30.015625-30.01563 22.65625 42.43751c.474311 1.0261 1.805507 2.56152 3.328125 3.82812 3.241626 2.74669 7.345741 4.07202 11.0625 4.20312 5.08093.1792 9.91409-1.3056 14.03125-4.31249.69584-.27848 1.01055-.95846 1.51563-1.43751 6.76067-8.36888 5.30272-18.72421.93749-25.68749l-19.906245-32.32813h45.203125l-97.765625-88zm8 8 80 72h-38.6875l27.45312 44.5625c2.68749 4.28125 3.23438 12.7798-.39062 16.42188-4.96222 4.01675-13.413774 4.10976-16.78125-1.26563l-27.59375-51.71875-24 24zm128 112v56h56v-56zm8 8h40v40h-40z"/></g></svg>