<svg height="32" viewBox="0 0 32 32" width="32" xmlns="http://www.w3.org/2000/svg"><g transform="matrix(.125 0 0 .125 -5.188404 -2.561214)"><path d="m49.507232 28.489709v104.094011h64.057858v64.05786l24.02169-24.0217 27.6187 51.76551c3.37052 5.38024 11.73374 5.33513 16.79642 1.26677 4.41405-4.12519 3.08088-12.1516.39099-16.43673l-27.47796-44.60278h38.72248l-64.05786-57.64581v-60.97695l-18.59492-17.500181z" fill="#fafafa"/><path d="m49.507233 92.547562h40.03616v40.036158h-40.03616z" fill="#fafafa"/><path d="m41.5 20.482477v64.057855 56.050628h56.050623 8.007237v75.38057l30.04275-30.04275 22.67673 42.47586c3.33114 6.87427 20.01179 9.73673 27.38411 4.17565 7.40697-5.58723 7.88797-20.63348 3.5188-27.60305l-19.92424-32.35736h45.24399l-76.91322-69.2344v-58.881307l-24.02169-24.021696zm8.007232 8.007232h56.050628v24.021696h24.02169v43.664436l-12.93356-11.635509h-11.08813v48.043388h-8.007237v-8.00723-40.036158h-24.021695-8.007232-8.007232-8.007232zm64.057858 2.424064 14.43491 13.5904h-14.43491zm-64.057858 61.633791h40.036159v40.036156h-40.036159zm64.057858 0 16.01446 14.419276 8.00723 7.194 56.05063 50.45181h-38.72248l27.47794 44.60278c2.68992 4.28514 3.23732 12.79136-.39099 16.43673-4.96671 4.02038-13.4259 4.11347-16.79642-1.26677l-27.61868-51.76551-24.02169 24.0217zm-48.043394 8.007236v8.00723h1.532634l-9.539866 8.00723v8.00723h8.007232v-3.06526l8.007232-7.24092v2.29895h8.007231v-9.53986-6.4746h-4.941963-5.91159z"/></g></svg>