<svg height="32" viewBox="0 0 32 32" width="32" xmlns="http://www.w3.org/2000/svg"><g transform="matrix(.125 0 0 .125 -5.188404 -2.561214)"><path d="m49.507232 28.489709v104.094011h64.057858v64.05786l24.02169-24.0217 27.6187 51.76551c3.37052 5.38024 11.73374 5.33513 16.79642 1.26677 4.41405-4.12519 3.08088-12.1516.39099-16.43673l-27.47796-44.60278h38.72248l-64.05786-57.64581v-60.97695l-18.59492-17.500181z" fill="#fafafa"/><path d="m0 0v15.011719h7.0058594 1v9.423828l3.7558596-3.755859 2.833984 5.310546c.416393.859284 2.502288 1.21662 3.423828.521485.925872-.698404.9856-2.579976.439453-3.451172l-2.490234-4.044922h5.65625l-9.615234-8.654297v-7.3593749l-3.0019535-3.0019531zm1 1h7.0058594v3.0019531h3.0039066v5.4589844l-1.6171879-1.4550781h-1.3867187v6.0058596h-1v-1-5.0058596h-.0058594v5.9941406h-.9960938v.01172h-5.0039062v-.01172zm8.0078125.3027344 1.8046875 1.6992187h-1.8046875zm0 7.7050781 2.0019535 1.8027345 1 .898437 7.005859 6.306641h-4.839844l3.435547 5.574219c.33624.535642.404711 1.599016-.04883 2.054687-.620839.502548-1.678294.514327-2.099609-.158203l-3.453125-6.470703-3.0019535 3.003906z" stroke-width=".125" transform="matrix(8 0 0 8 41.507232 20.489709)"/></g></svg>