<svg viewBox="0 0 108 43" xmlns="http://www.w3.org/2000/svg"><g transform="translate(79 9.000001)"><path d="m5-2.0003125v23.0003125h19v-19.270903l-4-3.7294095z" fill="#fafafa"/><path d="m5-3.0003125c-.554 0-1 .446-1 1v23.0003125c0 .554.446 1 1 1h19c.554 0 1.036585-.447209 1-1v-15.1096875-3.6412209-.2079239c0-.4506799.09887-.4265951-.604637-1.0675892l-3.307389-3.2370335c-.709525-.7368575-.711223-.7368575-1.094804-.7368575h-.331557-.661613zm0 1h14v4c0 .554.446 1 1 1h4v18.0003125h-19z" fill="#3a3a38"/><path d="m20 1.9996875h4l-4-4z" fill="#fafafa" fill-rule="evenodd"/></g><g transform="translate(9 9)"><path d="m5-2.0003125v23.0003125h19v-19.270903l-4-3.7294095z" fill="#fafafa"/><path d="m5-3.0003125c-.554 0-1 .446-1 1v23.0003125c0 .554.446 1 1 1h19c.554 0 1.036585-.447209 1-1v-15.1096875-3.6412209-.2079239c0-.4506799.09887-.4265951-.604637-1.0675892l-3.307389-3.2370335c-.709525-.7368575-.711223-.7368575-1.094804-.7368575h-.331557-.661613zm0 1h14v4c0 .554.446 1 1 1h4v18.0003125h-19z" fill="#3a3a38"/><path d="m20 1.9996875h4l-4-4z" fill="#fafafa" fill-rule="evenodd"/></g><g transform="translate(-1 15)"><path d="m5-2.0003125v23.0003125h19v-19.270903l-4-3.7294095z" fill="#fafafa"/><path d="m5-3.0003125c-.554 0-1 .446-1 1v23.0003125c0 .554.446 1 1 1h19c.554 0 1.036585-.447209 1-1v-15.1096875-3.6412209-.2079239c0-.4506799.09887-.4265951-.604637-1.0675892l-3.307389-3.2370335c-.709525-.7368575-.711223-.7368575-1.094804-.7368575h-.331557-.661613zm0 1h14v4c0 .554.446 1 1 1h4v18.0003125h-19z" fill="#3a3a38"/><path d="m20 1.9996875h4l-4-4z" fill="#fafafa" fill-rule="evenodd"/></g><path d="m21 35.000001h-1.333333v-9.350543q-.481482.505434-1.266667 1.010869-.777778.505435-1.4.758152v-1.418478q1.118519-.578804 1.955555-1.402174.837038-.823369 1.185186-1.597826h.859259z" fill="#1e8bcd"/><path d="m31 29.000001h-1.333333v-9.350543q-.481482.505434-1.266667 1.010869-.777778.505435-1.4.758152v-1.418478q1.118519-.578804 1.955555-1.402174.837038-.823369 1.185186-1.597826h.859259z" fill="#1e8bcd"/><g transform="translate(44 9.000001)"><path d="m5-2.0003125v23.0003125h19v-19.270903l-4-3.7294095z" fill="#fafafa"/><path d="m5-3.0003125c-.554 0-1 .446-1 1v23.0003125c0 .554.446 1 1 1h19c.554 0 1.036585-.447209 1-1v-15.1096875-3.6412209-.2079239c0-.4506799.09887-.4265951-.604637-1.0675892l-3.307389-3.2370335c-.709525-.7368575-.711223-.7368575-1.094804-.7368575h-.331557-.661613zm0 1h14v4c0 .554.446 1 1 1h4v18.0003125h-19z" fill="#3a3a38"/><path d="m20 1.9996875h4l-4-4z" fill="#fafafa" fill-rule="evenodd"/></g><g transform="translate(34 15)"><path d="m5-2.0003125v23.0003125h19v-19.270903l-4-3.7294095z" fill="#fafafa"/><path d="m5-3.0003125c-.554 0-1 .446-1 1v23.0003125c0 .554.446 1 1 1h19c.554 0 1.036585-.447209 1-1v-15.1096875-3.6412209-.2079239c0-.4506799.09887-.4265951-.604637-1.0675892l-3.307389-3.2370335c-.709525-.7368575-.711223-.7368575-1.094804-.7368575h-.331557-.661613zm0 1h14v4c0 .554.446 1 1 1h4v18.0003125h-19z" fill="#3a3a38"/><path d="m20 1.9996875h4l-4-4z" fill="#fafafa" fill-rule="evenodd"/></g><g transform="translate(69 15)"><path d="m5-2.0003125v23.0003125h19v-19.270903l-4-3.7294095z" fill="#fafafa"/><path d="m5-3.0003125c-.554 0-1 .446-1 1v23.0003125c0 .554.446 1 1 1h19c.554 0 1.036585-.447209 1-1v-15.1096875-3.6412209-.2079239c0-.4506799.09887-.4265951-.604637-1.0675892l-3.307389-3.2370335c-.709525-.7368575-.711223-.7368575-1.094804-.7368575h-.331557-.661613zm0 1h14v4c0 .554.446 1 1 1h4v18.0003125h-19z" fill="#3a3a38"/><path d="m20 1.9996875h4l-4-4z" fill="#fafafa" fill-rule="evenodd"/></g><g fill="#1e8bcd"><path d="m95 25.69159 1.3125-.192256q.226041 1.225634.76563 1.77036.54687.536716 1.32708.536716.92604 0 1.56042-.70494.64166-.70494.64166-1.746328 0-.993325-.59062-1.634179-.59063-.648865-1.50209-.648865-.37187 0-.92604.160213l.14584-1.265687q.13124.01602.21145.01602.83855 0 1.50938-.480641.67083-.480641.67083-1.481976 0-.793057-.48854-1.313751-.48854-.520695-1.26146-.520695-.76562 0-1.27604.528705-.510417.528705-.656251 1.586115l-1.312499-.256342q.240624-1.449933 1.09375-2.24299.85313-.801068 2.12187-.801068.875 0 1.61146.416555.73646.408545 1.12292 1.121495.39375.712951.39375 1.514019 0 .761015-.37187 1.385848-.37188.624833-1.10105.993324.94792.240321 1.47292 1.001335.525.753004.525 1.890521 0 1.538051-1.02083 2.611482-1.02084 1.06542-2.58125 1.06542-1.407295 0-2.340629-.921228-.926041-.921228-1.057291-2.387183z"/><path d="m85 31.69159 1.3125-.192256q.226041 1.225634.76563 1.77036.54687.536716 1.32708.536716.92604 0 1.56042-.70494.64166-.70494.64166-1.746328 0-.993325-.59062-1.634179-.59063-.648865-1.50209-.648865-.37187 0-.92604.160213l.14584-1.265687q.13124.01602.21145.01602.83855 0 1.50938-.480641.67083-.480641.67083-1.481976 0-.793057-.48854-1.313751-.48854-.520695-1.26146-.520695-.76562 0-1.27604.528705-.510417.528705-.656251 1.586115l-1.312499-.256342q.240624-1.449933 1.09375-2.24299.85313-.801068 2.12187-.801068.875 0 1.61146.416555.73646.408545 1.12292 1.121495.39375.712951.39375 1.514019 0 .761015-.37187 1.385848-.37188.624833-1.10105.993324.94792.240321 1.47292 1.001335.525.753004.525 1.890521 0 1.538051-1.02083 2.611482-1.02084 1.06542-2.58125 1.06542-1.407295 0-2.340629-.921228-.926041-.921228-1.057291-2.387183z"/><path d="m67 27.589674v1.410326h-6.998845q-.01444-.529891.151678-1.019022.267243-.807065.852285-1.589674.592266-.782608 1.704569-1.809782 1.726237-1.597826 2.332948-2.527174.606711-.9375.606711-1.769022 0-.872283-.556152-1.467391-.548929-.603261-1.437327-.603261-.938957 0-1.502332.635869-.563374.63587-.570597 1.76087l-1.336209-.154891q.137233-1.6875 1.032853-2.567935.895622-.888587 2.405176-.888587 1.524 0 2.412398.953804.888399.953805.888399 2.364131 0 .717391-.26002 1.410326-.260018.692935-.86673 1.459239-.599487.766304-2.000701 2.103261-1.170085 1.108695-1.502332 1.508152-.332246.391304-.548929.790761z"/><path d="m57 33.589674v1.410326h-6.998845q-.01444-.529891.151678-1.019022.267243-.807065.852285-1.589674.592266-.782608 1.704569-1.809782 1.726237-1.597826 2.332948-2.527174.606711-.9375.606711-1.769022 0-.872283-.556152-1.467391-.548929-.603261-1.437327-.603261-.938957 0-1.502332.635869-.563374.63587-.570597 1.76087l-1.336209-.154891q.137233-1.6875 1.032853-2.567935.895622-.888587 2.405176-.888587 1.524 0 2.412398.953804.888399.953805.888399 2.364131 0 .717391-.26002 1.410326-.260018.692935-.86673 1.459239-.599487.766304-2.000701 2.103261-1.170085 1.108695-1.502332 1.508152-.332246.391304-.548929.790761z"/></g></svg>