<svg height="13" viewBox="0 0 13 13" width="13" xmlns="http://www.w3.org/2000/svg" xmlns:xlink="http://www.w3.org/1999/xlink"><linearGradient id="a" gradientUnits="userSpaceOnUse" x1="2.181818" x2="10.363636" y1="3.181818" y2="10.272727"><stop offset="0" stop-color="#0b0b0b"/><stop offset=".5" stop-color="#7d7d7d"/><stop offset=".53333336" stop-color="#b6b6b6"/><stop offset="1" stop-color="#fefefe"/></linearGradient><linearGradient id="b" gradientUnits="userSpaceOnUse" x1="2" x2="8.5" y1="5" y2="11"><stop offset="0" stop-color="#606060"/><stop offset=".5" stop-color="#aeaeae"/><stop offset=".5" stop-color="#d5d5d5"/><stop offset="1" stop-color="#fcfcfc"/></linearGradient><filter id="c" color-interpolation-filters="sRGB" height="1.072" width="1.072" x="-.036" y="-.036"><feGaussianBlur stdDeviation=".1202228"/></filter><g transform="translate(.5 -.5)"><path d="m12 7a6 6 0 0 1 -6 6 6 6 0 0 1 -6-6 6 6 0 0 1 6-6 6 6 0 0 1 6 6z" fill="url(#a)" stroke-width="1.090909"/><path d="m9.5074272 7.5a4.0074272 4.0074272 0 0 1 -4.0074272 4.007427 4.0074272 4.0074272 0 0 1 -4.0074272-4.007427 4.0074272 4.0074272 0 0 1 4.0074272-4.0074272 4.0074272 4.0074272 0 0 1 4.0074272 4.0074272z" fill="url(#b)" filter="url(#c)" transform="matrix(1.1332014 0 0 1.1332014 -.198813 -1.532806)"/><path d="m10 7a4 4 0 0 1 -4 4 4 4 0 0 1 -4-4 4 4 0 0 1 4-4 4 4 0 0 1 4 4z" fill="#c0c0c0" stroke-width="1.142857"/><path d="m8 7a2 2 0 0 1 -2 2 2 2 0 0 1 -2-2 2 2 0 0 1 2-2 2 2 0 0 1 2 2z" fill="#3a3a38" stroke-width=".801176"/></g></svg>