<svg height="25" viewBox="0 0 25 25" width="25" xmlns="http://www.w3.org/2000/svg" xmlns:xlink="http://www.w3.org/1999/xlink"><radialGradient id="a" cx="11.287591" cy="11.559854" gradientTransform="matrix(1.3043478 .43478266 -.50890004 1.5267 2.159865 -11.556078)" gradientUnits="userSpaceOnUse" r="11.5"><stop offset="0" stop-color="#fdfdfd"/><stop offset=".60000002" stop-color="#fdfdfd"/><stop offset=".74999994" stop-color="#a9a9a9"/><stop offset="1" stop-color="#fdfdfd"/></radialGradient><path d="m0 0h25v25h-25z" fill="#fff"/><g opacity=".5"><path d="m25 12.5a12.5 12.5 0 0 1 -12.5 12.5 12.5 12.5 0 0 1 -12.5-12.5 12.5 12.5 0 0 1 12.5-12.5 12.5 12.5 0 0 1 12.5 12.5z" opacity="1"/><path d="m24 12.5a11.5 11.5 0 0 1 -11.5 11.5 11.5 11.5 0 0 1 -11.5-11.5 11.5 11.5 0 0 1 11.5-11.5 11.5 11.5 0 0 1 11.5 11.5z" fill="url(#a)" opacity="1"/><path d="m15 12.5a2.5 2.5 0 0 1 -2.5 2.5 2.5 2.5 0 0 1 -2.5-2.5 2.5 2.5 0 0 1 2.5-2.5 2.5 2.5 0 0 1 2.5 2.5z" opacity="1"/><path d="m16 17-3.5 7-3.496094-6.992188a5.708447 5.708447 0 0 0 3.496094 1.201172 5.708447 5.708447 0 0 0 3.5-1.208984zm-.00391-9.007812a5.708447 5.708447 0 0 0 -3.49609-1.201172 5.708447 5.708447 0 0 0 -3.5 1.208984l3.5-7z"/></g></svg>