<svg height="32" viewBox="0 0 32 32" width="32" xmlns="http://www.w3.org/2000/svg"><path d="m16.523438 4.0019531a.99818304.99818304 0 0 0 -.791016.359375l-2.5 3a.99818304.99818304 0 0 0 .767578 1.6367188h1.001953v1.0019531h-8.001953v12h8.001953v1.001953h-1.001953a.99818304.99818304 0 0 0 -.767578 1.636719l2.5 3a.99818304.99818304 0 0 0 1.535156 0l2.5-3a.99818304.99818304 0 0 0 -.767578-1.636719h-1.001953v-1.001953h8.001953v-12h-8.001953v-1.0019531h1.001953a.99818304.99818304 0 0 0 .767578-1.6367188l-2.5-3a.99818304.99818304 0 0 0 -.74414-.359375z" fill="#fff"/><path d="m8 11v10h17v-10zm1 1h15v8h-15z"/><path d="m16.5 5-2.5 3h2v2 12 2h-2l2.5 3 2.5-3h-2v-2-12-2h2z"/></svg>