<svg height="64" viewBox="0 0 64 64" width="64" xmlns="http://www.w3.org/2000/svg"><g transform="matrix(-.5 -.8660254 .8660254 -.5 20.287187 75.712813)"><path d="m37 59a5 5 0 0 1 -5 5 5 5 0 0 1 -5-5 5 5 0 0 1 5-5 5 5 0 0 1 5 5z" fill="#787878"/><path d="m37 5a5 5 0 0 1 -5 5 5 5 0 0 1 -5-5 5 5 0 0 1 5-5 5 5 0 0 1 5 5z"/><path d="m48.712814-15.287187a5 5 0 0 1 -5 5 5 5 0 0 1 -5-5 5 5 0 0 1 5-5 5 5 0 0 1 5 5z" fill="#dcdcdc" transform="matrix(.8660254 .5 -.5 .8660254 0 0)"/><path d="m48.712814 38.712814a5 5 0 0 1 -5 5 5 5 0 0 1 -5-5 5 5 0 0 1 5-5 5 5 0 0 1 5 5z" fill="#646464" transform="matrix(.8660254 .5 -.5 .8660254 0 0)"/><path d="m48.712814-38.712814a5 5 0 0 1 -5 5 5 5 0 0 1 -5-5 5 5 0 0 1 5-5 5 5 0 0 1 5 5z" fill="#c8c8c8" transform="matrix(.5 .8660254 -.8660254 .5 0 0)"/><path d="m48.712814 15.287187a5 5 0 0 1 -5 5 5 5 0 0 1 -5-5 5 5 0 0 1 5-5 5 5 0 0 1 5 5z" fill="#505050" transform="matrix(.5 .8660254 -.8660254 .5 0 0)"/><path d="m37-59a5 5 0 0 1 -5 5 5 5 0 0 1 -5-5 5 5 0 0 1 5-5 5 5 0 0 1 5 5z" fill="#b4b4b4" transform="rotate(90)"/><path d="m37-5a5 5 0 0 1 -5 5 5 5 0 0 1 -5-5 5 5 0 0 1 5-5 5 5 0 0 1 5 5z" fill="#3c3c3c" transform="rotate(90)"/><path d="m16.712813-70.712814a5 5 0 0 1 -5 5 5 5 0 0 1 -4.9999996-5 5 5 0 0 1 4.9999996-5 5 5 0 0 1 5 5z" fill="#a0a0a0" transform="matrix(-.5 .8660254 -.8660254 -.5 0 0)"/><path d="m16.712813-16.712812a5 5 0 0 1 -5 5 5 5 0 0 1 -4.9999996-5 5 5 0 0 1 4.9999996-5 5 5 0 0 1 5 5z" fill="#282828" transform="matrix(-.5 .8660254 -.8660254 -.5 0 0)"/><g transform="matrix(-.8660254 .5 -.5 -.8660254 0 0)"><path d="m-6.7128134-70.712814a5 5 0 0 1 -4.9999996 5 5 5 0 0 1 -5-5 5 5 0 0 1 5-5 5 5 0 0 1 4.9999996 5z" fill="#8c8c8c"/><path d="m-6.7128134-16.712812a5 5 0 0 1 -4.9999996 5 5 5 0 0 1 -5-5 5 5 0 0 1 5-5 5 5 0 0 1 4.9999996 5z" fill="#141414"/></g></g></svg>