<svg viewBox="0 0 16 16" xmlns="http://www.w3.org/2000/svg"><path d="m5.5136719 0a.50005.50005 0 0 0 -.4980469.37890625l-.90625 3.62109375h-3.109375-.5a.50005.50005 0 0 0 -.24804688.9335938l3.13085938 1.7890624-1.3515625 3.6015628a.50005.50005 0 0 0 .7890625.560547l2.1796875-1.8183598v-5.5664062c.0002983-.748888.6489179-1.433243 1.3925781-1.4921875l-.4082031-1.62890625a.50005.50005 0 0 0 -.4707031-.37890625zm4.0410156 4 1.1875005.9375.005859-.0039062a.50005.50005 0 0 0 -.248047-.9335938h-.5z" fill="#ed8733"/><path d="m5 4.5-.0292969.1171875a.48511975.48511975 0 0 1 -.4707031.3671875h-2.1738281l1.9140625 1.09375a.48511975.48511975 0 0 1 .2148437.5917969l-.8554687 2.28125 1.4003906-1.1660157z" fill="#f8db8f"/><g fill-rule="evenodd"><g><path d="m6.484375 2.9980469a.5024107.5024107 0 0 0 -.4863281.5019531v11.298828a.5024107.5024107 0 0 0 .859375.353516l2.3300781-2.347656 1.207031 2.394531-.02148-.04883c.158804.419916.531583.682333.902344.787109.37076.104776.761012.08648 1.125-.02344.363987-.109912.714608-.315863.947265-.660156.232658-.344292.297621-.835262.123047-1.296875a.5024107.5024107 0 0 0 -.01563-.03516l-1.36914-2.919922h3.279296a.5024107.5024107 0 0 0 .310547-.896484l-8.8652331-6.9999922a.5024107.5024107 0 0 0 -.3261719-.1074219z" fill="#3a3a38"/><path d="m7 4.5332031v9.0527349l1.9667969-1.982422a.49993388.49993388 0 0 1 .8027343.126953l1.5214848 3.017578a.49993388.49993388 0 0 1 .01953.04687c.03169.0838.08929.135631.238281.177734.148987.0421.369196.0402.560547-.01758s.341175-.165419.40625-.261719c.06408-.09482.09231-.172702.01758-.375l-1.689454-3.605461a.49993388.49993388 0 0 1 .453125-.712891h2.626953z" fill="#fafafa"/></g><g><path d="m6.484375 2.9980469a.5024107.5024107 0 0 0 -.4863281.5019531v11.298828a.5024107.5024107 0 0 0 .859375.353516l2.3300781-2.347656 1.207031 2.394531-.02148-.04883c.158804.419916.531583.682333.902344.787109.37076.104776.761012.08648 1.125-.02344.363987-.109912.714608-.315863.947265-.660156.232658-.344292.297621-.835262.123047-1.296875a.5024107.5024107 0 0 0 -.01563-.03516l-1.36914-2.919922h3.279296a.5024107.5024107 0 0 0 .310547-.896484l-8.8652331-6.9999922a.5024107.5024107 0 0 0 -.3261719-.1074219z" fill="#3a3a38"/><path d="m7 4.5332031v9.0527349l1.9667969-1.982422a.49993388.49993388 0 0 1 .8027343.126953l1.5214848 3.017578a.49993388.49993388 0 0 1 .01953.04687c.03169.0838.08929.135631.238281.177734.148987.0421.369196.0402.560547-.01758s.341175-.165419.40625-.261719c.06408-.09482.09231-.172702.01758-.375l-1.689454-3.605461a.49993388.49993388 0 0 1 .453125-.712891h2.626953z" fill="#fafafa"/></g></g></svg>