<svg height="17" viewBox="0 0 21 17" width="21" xmlns="http://www.w3.org/2000/svg"><g transform="translate(7 2)"><path d="m2 2v11h10v-8.5l-3-2.5z" fill="#fafafa"/><path d="m2 1c-.554 0-1 .446-1 1v11c0 .554.446 1 1 1h10c.554 0 1-.446 1-1v-3.109375-4.6412209-.2079239c0-.4506799.09887-.4265951-.604637-1.0675892l-2.307389-2.2370335c-.709525-.7368575-.711223-.7368575-1.094804-.7368575h-.331557-.661613zm0 1h6v3c0 .554.446 1 1 1h3v7h-10z" fill="#3a3a38"/><path d="m9 5h3l-3-3z" fill="#fafafa" fill-rule="evenodd"/><g stroke-linecap="round" stroke-linejoin="bevel"><path d="m7 8.5h2c.277 0 .5.223.5.5v2c0 .277-.223.5-.5.5h-2c-.277 0-.5-.223-.5-.5v-2c0-.277.223-.5.5-.5z" fill="#a1ddaa" stroke="#309048"/><path d="m3 6.5h2c.277 0 .5.223.5.5v2c0 .277-.223.5-.5.5h-2c-.277 0-.5-.223-.5-.5v-2c0-.277.223-.5.5-.5z" fill="#f8db8f" stroke="#ed8733"/><path d="m7.5 6a1.5 1.5 0 0 1 -1.5 1.5 1.5 1.5 0 0 1 -1.5-1.5 1.5 1.5 0 0 1 1.5-1.5 1.5 1.5 0 0 1 1.5 1.5z" fill="#83beec" stroke="#0063b1"/></g></g><g transform="translate(3 1)"><path d="m2 2v11h10v-8.5l-3-2.5z" fill="#fafafa"/><path d="m2 1c-.554 0-1 .446-1 1v11c0 .554.446 1 1 1h10c.554 0 1-.446 1-1v-3.109375-4.6412209-.2079239c0-.4506799.09887-.4265951-.604637-1.0675892l-2.307389-2.2370335c-.709525-.7368575-.711223-.7368575-1.094804-.7368575h-.331557-.661613zm0 1h6v3c0 .554.446 1 1 1h3v7h-10z" fill="#3a3a38"/><path d="m9 5h3l-3-3z" fill="#fafafa" fill-rule="evenodd"/><g stroke-linecap="round" stroke-linejoin="bevel"><path d="m7 8.5h2c.277 0 .5.223.5.5v2c0 .277-.223.5-.5.5h-2c-.277 0-.5-.223-.5-.5v-2c0-.277.223-.5.5-.5z" fill="#a1ddaa" stroke="#309048"/><path d="m3 6.5h2c.277 0 .5.223.5.5v2c0 .277-.223.5-.5.5h-2c-.277 0-.5-.223-.5-.5v-2c0-.277.223-.5.5-.5z" fill="#f8db8f" stroke="#ed8733"/><path d="m7.5 6a1.5 1.5 0 0 1 -1.5 1.5 1.5 1.5 0 0 1 -1.5-1.5 1.5 1.5 0 0 1 1.5-1.5 1.5 1.5 0 0 1 1.5 1.5z" fill="#83beec" stroke="#0063b1"/></g></g><g transform="translate(-1)"><path d="m2 2v11h10v-8.5l-3-2.5z" fill="#fafafa"/><path d="m2 1c-.554 0-1 .446-1 1v11c0 .554.446 1 1 1h10c.554 0 1-.446 1-1v-3.109375-4.6412209-.2079239c0-.4506799.09887-.4265951-.604637-1.0675892l-2.307389-2.2370335c-.709525-.7368575-.711223-.7368575-1.094804-.7368575h-.331557-.661613zm0 1h6v3c0 .554.446 1 1 1h3v7h-10z" fill="#3a3a38"/><path d="m9 5h3l-3-3z" fill="#fafafa" fill-rule="evenodd"/><g stroke-linecap="round" stroke-linejoin="bevel"><path d="m7 8.5h2c.277 0 .5.223.5.5v2c0 .277-.223.5-.5.5h-2c-.277 0-.5-.223-.5-.5v-2c0-.277.223-.5.5-.5z" fill="#a1ddaa" stroke="#309048"/><path d="m3 6.5h2c.277 0 .5.223.5.5v2c0 .277-.223.5-.5.5h-2c-.277 0-.5-.223-.5-.5v-2c0-.277.223-.5.5-.5z" fill="#f8db8f" stroke="#ed8733"/><path d="m7.5 6a1.5 1.5 0 0 1 -1.5 1.5 1.5 1.5 0 0 1 -1.5-1.5 1.5 1.5 0 0 1 1.5-1.5 1.5 1.5 0 0 1 1.5 1.5z" fill="#83beec" stroke="#0063b1"/></g></g></svg>