<svg height="17" viewBox="0 0 21 17" width="21" xmlns="http://www.w3.org/2000/svg"><g transform="translate(4 2)"><path d="m2 2v11h10v-8.5l-3-2.5z" fill="#fafafa"/><path d="m2 1c-.554 0-1 .446-1 1v11c0 .554.446 1 1 1h10c.554 0 1-.446 1-1v-3.109375-4.6412209-.2079239c0-.4506799.09887-.4265951-.604637-1.0675892l-2.307389-2.2370335c-.709525-.7368575-.711223-.7368575-1.094804-.7368575h-.331557-.661613zm0 1h6v3c0 .554.446 1 1 1h3v7h-10z" fill="#3a3a38"/><path d="m9 5h3l-3-3z" fill="#fafafa" fill-rule="evenodd"/><g fill="#3a3a38"><rect height="1" ry=".5" width="3" x="3" y="3"/><rect height="1" rx=".5" width="1" x="3" y="5"/><rect height="1" ry=".423729" width="8" x="3" y="7"/><rect height="1" ry=".474576" width="8" x="3" y="9"/><rect height="1" rx=".5" width="2" x="5" y="5"/><rect height="1" ry=".474576" width="8" x="3" y="11"/></g></g><g transform="translate(2 1)"><path d="m2 2v11h10v-8.5l-3-2.5z" fill="#fafafa"/><path d="m2 1c-.554 0-1 .446-1 1v11c0 .554.446 1 1 1h10c.554 0 1-.446 1-1v-3.109375-4.6412209-.2079239c0-.4506799.09887-.4265951-.604637-1.0675892l-2.307389-2.2370335c-.709525-.7368575-.711223-.7368575-1.094804-.7368575h-.331557-.661613zm0 1h6v3c0 .554.446 1 1 1h3v7h-10z" fill="#3a3a38"/><path d="m9 5h3l-3-3z" fill="#fafafa" fill-rule="evenodd"/><g fill="#3a3a38"><rect height="1" ry=".5" width="3" x="3" y="3"/><rect height="1" rx=".5" width="1" x="3" y="5"/><rect height="1" ry=".423729" width="8" x="3" y="7"/><rect height="1" ry=".474576" width="8" x="3" y="9"/><rect height="1" rx=".5" width="2" x="5" y="5"/><rect height="1" ry=".474576" width="8" x="3" y="11"/></g></g><path d="m2 2v11h10v-8.5l-3-2.5z" fill="#fafafa"/><path d="m2 1c-.554 0-1 .446-1 1v11c0 .554.446 1 1 1h10c.554 0 1-.446 1-1v-3.109375-4.6412209-.2079239c0-.4506799.09887-.4265951-.604637-1.0675892l-2.307389-2.2370335c-.709525-.7368575-.711223-.7368575-1.094804-.7368575h-.331557-.661613zm0 1h6v3c0 .554.446 1 1 1h3v7h-10z" fill="#3a3a38"/><path d="m9 5h3l-3-3z" fill="#fafafa" fill-rule="evenodd"/><g fill="#3a3a38"><rect height="1" ry=".5" width="3" x="3" y="3"/><rect height="1" rx=".5" width="1" x="3" y="5"/><rect height="1" ry=".423729" width="8" x="3" y="7"/><rect height="1" ry=".474576" width="8" x="3" y="9"/><rect height="1" rx=".5" width="2" x="5" y="5"/><rect height="1" ry=".474576" width="8" x="3" y="11"/></g></svg>