<svg viewBox="0 0 16 16" xmlns="http://www.w3.org/2000/svg" xmlns:xlink="http://www.w3.org/1999/xlink"><linearGradient id="a" gradientTransform="translate(-24 -7)" gradientUnits="userSpaceOnUse" x1="-14.118644" x2="-14.118644" y1="29.61017" y2="11.61017"><stop offset="0" stop-color="#2a9240"/><stop offset="1" stop-color="#32d74b"/></linearGradient><linearGradient id="b" gradientUnits="userSpaceOnUse" x1="-.800001" x2="-9.92" xlink:href="#a" y1="20.6" y2="7.94"/><linearGradient id="c" gradientUnits="userSpaceOnUse" x1="-13" x2="-12.7" xlink:href="#a" y1="16" y2=".4"/><linearGradient id="d" gradientUnits="userSpaceOnUse" x1="20" x2="10.400001" xlink:href="#a" y1="5.000001" y2="-7.299999"/><linearGradient id="e" gradientUnits="userSpaceOnUse" x1="-20" x2="-10.400001" xlink:href="#a" y1="-5.000003" y2="7.299998"/><path d="m0 4h16v9h-16z" fill="#0063b1"/><rect fill="url(#c)" height="3" ry=".5" transform="translate(16)" width="1" x="-9"/><g fill="#fafafa" transform="translate(-.056603 -2)"><path d="m9.056603 13h1.943397v1h-3v-7h1.056603z"/><path d="m16 7v1h-3v2h2.000021v1h-2.000021l.000472 2h3.003252l-.0069 1h-3.996824v-7h4.000041z"/><path d="m4 7a3 3.5 0 0 0 -3 3.5 3 3.5 0 0 0 3 3.5 3 3.5 0 0 0 3-3.5 3 3.5 0 0 0 -3-3.5zm0 1a2 2.5 0 0 1 2 2.5 2 2.5 0 0 1 -2 2.5 2 2.5 0 0 1 -2-2.5 2 2.5 0 0 1 2-2.5z"/></g><rect fill="url(#c)" height="2" ry=".5" transform="translate(16)" width="1" x="-9" y="14"/><rect fill="url(#b)" height="3" ry=".5" transform="matrix(.80000004 .59999995 -.59999995 .80000004 16 0)" width="1" x="-2.8" y="2.6"/><rect fill="url(#b)" height="3" ry=".5" transform="matrix(.80000004 .59999995 -.59999995 .80000004 16 0)" width="1" x="-2.000001" y="17"/><rect fill="url(#d)" height="3" ry=".5" transform="matrix(-.80000004 .59999995 .59999995 .80000004 16 0)" width="1" x="10.400001" y="-7.299999"/><rect fill="url(#e)" height="3" ry=".5" transform="matrix(.80000008 -.59999989 -.59999989 -.80000008 16 0)" width="1" x="-12.279999" y="-10.040002"/></svg>