<svg height="57" viewBox="0 0 70.999998 56.999999" width="71" xmlns="http://www.w3.org/2000/svg"><path d="m5 6h61v46h-61z" fill="#fafafa"/><g fill="#3a3a38"><path d="m5 5c-.554 0-1 .446-1 1v46c0 .554.446 1 1 1h61c.554 0 1-.446 1-1v-46c0-.554-.446-1-1-1zm0 1h61v46h-61z"/><path d="m9 9c-.554 0-1 .446-1 1v17c0 .554.446 1 1 1h52c.554 0 1-.446 1-1v-17c0-.554-.446-1-1-1zm0 1h52v17h-52z"/><path d="m9 30c-.554 0-1 .446-1 1v17c0 .554.446 1 1 1h52c.554 0 1-.446 1-1v-17c0-.554-.446-1-1-1zm0 1h52v17h-52z"/></g></svg>