<svg height="71" viewBox="0 0 89 71" width="89" xmlns="http://www.w3.org/2000/svg" xmlns:xlink="http://www.w3.org/1999/xlink"><filter id="a" color-interpolation-filters="sRGB" height="1.156" width="1.156" x="-.078" y="-.078"><feGaussianBlur stdDeviation="1.1050065"/></filter><linearGradient id="b" gradientUnits="userSpaceOnUse" x1="13.5403" x2="18.475107" y1="7.30736" y2="7.30736"><stop offset="0" stop-color="#eee"/><stop offset=".12832868" stop-color="#eee"/><stop offset=".2677961" stop-color="#fff"/><stop offset=".6242128" stop-color="#fff"/><stop offset=".875" stop-color="#eee"/><stop offset="1" stop-color="#eee"/></linearGradient><path d="m12 15v9.685547 28.613281l13.257812-13.257812 7.556641-7.556641c.147975-.148027.320283-.269488.523438-.355469a1.0004224 1.0004224 0 0 0 .001953 0c.198938-.083812.406422-.125923.61914-.128906h.003907c.216753-.002819.435202.035845.640625.119141.084561.034283.140609.097.214843.142578a1.0004224 1.0004224 0 0 1 .003907.001953 1.0004224 1.0004224 0 0 1 .328125.220703 1.0004224 1.0004224 0 0 0 .001953 0l4.361328 4.361328.001953.001953c.318741.31821.485259.746453.484375 1.169922-.000181.083748-.035961.16012-.048828.242188v.001953a1.0004224 1.0004224 0 0 1 0 .003906 1.0004224 1.0004224 0 0 1 -.074219.373047c-.079081.194346-.201638.386042-.363281.546875a1.0004224 1.0004224 0 0 1 -.705078.291015h.412109l-7.296875 7.296876-16.224609 16.226562h5.001953 2.597656 53.701172v-38.314453-9.685547z" fill="#fafafa"/><path d="m11 14v11.257812 29.041016l1-1v-28.613281-9.685547h65v9.685547 38.314453h-53.701172-2.597656-5.001953l-1 1h5.617187 3.367188 54.316406v-38.742188-11.257812z" fill="#3a3a38"/><path d="m8 11.073262h73v2.926738h-73z" fill="#1e8bcd" stroke-width=".693684"/><path d="m33.974609 33.5c-.08486.00105-.16933.018444-.246093.050781-.076458.03236-.147418.080993-.207032.140625l-7.55664 7.556641-20.7734378 20.773437c-.2554147.25412-.2554147.667754 0 .921875l4.3632813 4.365235c.2541101.255424.6677645.255423.9218745 0l20.740235-20.742188 7.589844-7.589844h.001953c.063853-.06353.110651-.136381.142578-.214843.000244-.000599-.000242-.001354 0-.001953.032056-.078419.048654-.16076.048828-.244141.000348-.166763-.063709-.333877-.191406-.460937l-4.363282-4.363282h-.001953c-.062175-.062205-.13495-.112141-.214843-.144531-.079863-.032432-.165969-.048222-.253907-.046875z" fill="#0e0f0f" filter="url(#a)" opacity=".15"/><g transform="matrix(.70710678 .70710678 -.70710678 .70710678 25.999384 23.372641)"><path d="m12.446483 1.1688483c-.11854.1214816-.184933.2844641-.184904.4541989l.000593 40.0667008c-.000915.360296.2914.652611.651696.651696l6.172127.000128c.360295.000929.652597-.291374.651668-.651669l-.000592-40.0667016c.000913-.3602951-.291401-.65260938-.651696-.65169587l-6.172127-.00012728c-.1759-.00004285-.344307.0712022-.466765.19747005z" fill="#3a3a38"/><path d="m12.914062.97070312c-.1759-.00004285-.344338.0709978-.466796.19726568-.11854.1214816-.185576.2853433-.185547.4550781v10.6875001l7.474609.04687v-10.7343701c.000913-.3602951-.290095-.65325729-.65039-.65234378z" fill="#3a3a38" stroke-width="1.566195"/><path d="m13.5403 2.250099.000207 10.064842 4.934601.04968-.01673-10.0813664z" fill="url(#b)"/></g><path d="m31.072266 25a11 11 0 0 0 -10.826172 8.683594 11 11 0 0 0 2.179687 9.189453l2.832031-2.832031 5.753907-5.753907zm6.732422 15.892578-5.88086 5.88086-.195312.195312a11 11 0 0 0 8.203125-4.548828z" fill="#0063b1"/><path d="m31.072266 25-.060547 9.287109 1.802734-1.802734c.147975-.148027.320283-.269488.523438-.355469a1.0004224 1.0004224 0 0 0 .001953 0c.198938-.083812.406422-.125923.61914-.128906h.003907c.216753-.002819.435202.035845.640625.119141.084561.034283.140609.097.214843.142578a1.0004224 1.0004224 0 0 1 .003907.001953 1.0004224 1.0004224 0 0 1 .328125.220703 1.0004224 1.0004224 0 0 0 .001953 0l4.361328 4.361328.001953.001953c.318741.31821.485259.746453.484375 1.169922-.000181.083748-.035961.16012-.048828.242188v.001953a1.0004224 1.0004224 0 0 1 0 .003906 1.0004224 1.0004224 0 0 1 -.074219.373047c-.079081.194346-.201638.386042-.363281.546875a1.0004224 1.0004224 0 0 1 -.705078.291015h.412109l-1.503906 1.503907 2.119141 1.572265c2.455302-3.310905 2.853102-7.71657 1.03125-11.414062-1.821853-3.697492-5.673559-6.068262-9.794922-6.138672z" fill="#309048"/><path d="m32.007812 26.091797-.046874 7.246094.853515-.853516c.147975-.148027.320283-.269488.523438-.355469a1.0004224 1.0004224 0 0 0 .001953 0c.198938-.083812.406422-.125923.61914-.128906h.003907c.216753-.002819.435202.035845.640625.119141.084561.034283.140609.097.214843.142578a1.0004224 1.0004224 0 0 1 .003907.001953 1.0004224 1.0004224 0 0 1 .328125.220703 1.0004224 1.0004224 0 0 0 .001953 0l4.361328 4.361328.001953.001953c.318741.31821.485259.746453.484375 1.169922-.000181.083748-.035961.16012-.048828.242188v.001953a1.0004224 1.0004224 0 0 1 0 .003906 1.0004224 1.0004224 0 0 1 -.074219.373047c-.079081.194346-.201638.386042-.363281.546875a1.0004224 1.0004224 0 0 1 -.705078.291015h.412109l-.830078.830079 1.144531.847656c1.75588-2.913447 2.009474-6.506395.486328-9.597656-1.516362-3.077491-4.617139-5.07896-8.013672-5.464844z" fill="#a1ddaa"/><path d="m29.970703 26.277344c-1.870359.203434-3.701609.81837-5.169922 1.996094-1.758281 1.410304-3.009772 3.437159-3.484375 5.640624-.474751 2.203506-.168214 4.56697.853516 6.576172.289215.568733.639229 1.103885 1.033203 1.605469l2.054687-2.054687 4.652344-4.652344zm7.050781 15.398437-4.017578 4.017578c.197468-.040478.39524-.080004.589844-.132812 1.816425-.492909 3.390276-1.610434 4.65625-3.001953z" fill="#83beec"/><g fill="#797774"><path d="m47 29h3v3h-3z"/><path d="m52 30h17v1h-17z"/><path d="m47 35h3v3h-3z"/><path d="m52 36h17v1h-17z"/><path d="m47 41h3v3h-3z"/><path d="m52 42h17v1h-17z"/></g></svg>