<svg viewBox="0 0 32 32" xmlns="http://www.w3.org/2000/svg"><path d="m16 2c-7.731987 0-14 6.268013-14 14 0 7.731986 6.268013 14 14 14 7.731986 0 14-6.268014 14-14 0-7.731987-6.268014-14-14-14zm0 2c6.627417 0 12 5.372583 12 12s-5.372583 12-12 12-12-5.372583-12-12 5.372583-12 12-12zm.5 3c-3.037566 0-5.5 2.4624339-5.5 5.5h2c0-1.932997 1.567003-3.5 3.5-3.5s3.5 1.567003 3.5 3.5c-.0433.847889.171989 1.635405-.800781 2.5-.5.5-.995333.761986-1.720703 1.105469-1.443572.683574-2.478516 2.193609-2.478516 3.894531v1h2v-1c0-1.095518.771-1.687463 1.330078-2.1875.404038-.352769 1.168718-.768918 1.580078-1.029297 1.24487-.909323 2.151237-2.138719 2.089844-4.283203 0-3.0375661-2.462434-5.5-5.5-5.5zm-1 16c-.277 0-.5.223-.5.5v1c0 .277.223.5.5.5h1c.277 0 .5-.223.5-.5v-1c0-.277-.223-.5-.5-.5z" fill="#b4b6bb" fill-opacity=".4"/></svg>