<svg height="33" viewBox="0 0 8.7312499 8.7312502" width="33" xmlns="http://www.w3.org/2000/svg"><path d="m4.4979166.79374999c-2.0457548 0-3.70416661 1.65841201-3.70416661 3.70416661s1.65841181 3.7041666 3.70416661 3.7041666c2.0457546 0 3.7041666-1.658412 3.7041666-3.7041666s-1.658412-3.70416661-3.7041666-3.70416661zm0 .52916661c1.753504 0 3.1749999 1.421496 3.1749999 3.175 0 1.7535041-1.4214959 3.175-3.1749999 3.175-1.7535041 0-3.175-1.4214959-3.175-3.175 0-1.753504 1.4214959-3.175 3.175-3.175zm-2.2489584 2.9104167c-.07329 0-.1322916.059002-.1322916.1322916v.2645834c0 .07329.059002.1322916.1322916.1322916h4.4979167c.07329 0 .1322916-.059002.1322916-.1322916v-.2645834c0-.07329-.059002-.1322916-.1322916-.1322916z" fill="#fff" stroke-width=".264583"/><circle cx="4.497916" cy="4.497917" fill="#fafafa" opacity=".5" r="3.175"/></svg>