<svg height="64" viewBox="0 0 16.933333 16.933334" width="64" xmlns="http://www.w3.org/2000/svg"><g fill-opacity=".501961"><path d="m0 0h16.933332v16.93333h-16.933332z" fill="#cbcbcb"/><path d="m.12092285 0-.12092285.12195638v1.19889322l1.3110311-1.3208496zm2.10168055 0-2.2226034 2.2386231v1.1988933l3.4111613-3.4375164zm2.1016805 0-4.3242839 4.3552899v1.1988932l5.5118083-5.5541831zm2.1011637 0-6.4254476 6.4719566v1.1988932l7.6124552-7.6708498zm2.1016807 0-8.5271283 8.5886233v1.1988932l9.7125854-9.7875165zm2.1016807 0-10.628809 10.70529v1.198893l11.813233-11.904183zm2.10168 0-12.730489 12.821957v1.198893l13.91388-14.02085zm2.101164 0-14.831653 14.938623v1.198894l16.014527-16.137517zm2.10168 0-16.80104133 16.933333h1.19062503l15.6104163-15.742708zm0 2.1166667-14.6843746 14.8166663h1.190625l13.4937496-13.6260413zm0 2.1166667-12.567708 12.6999996h1.1906251l11.3770829-11.5093746zm0 2.1166667-10.4510413 10.5833329h1.190625l9.2604163-9.3927079zm0 2.1166666-8.3343746 8.4666663h1.190625l7.1437496-7.2760412zm0 2.1166663-6.217708 6.35h1.190625l5.027083-5.159375zm0 2.116667-4.101041 4.233333h1.190625l2.910416-3.042708zm0 2.116667-1.984375 2.116666h1.190625l.79375-.926041z" fill="#808080" stroke-width=".264583"/></g></svg>