<svg height="19" viewBox="0 0 5.0270832 5.0270835" width="19" xmlns="http://www.w3.org/2000/svg"><g transform="scale(.26458333)"><path d="m2 2v15h15v-15zm3 3h9v9h-9zm4.5 4a.49999997.49999997 0 0 0 -.5.5.49999997.49999997 0 0 0 .5.5.49999997.49999997 0 0 0 .5-.5.49999997.49999997 0 0 0 -.5-.5z" fill="#83beec"/><path d="m4 4v11h11v-11zm1 1h9v9h-9zm4.5 4a.49999996.49999996 0 0 0 -.5.5.49999996.49999996 0 0 0 .5.5.49999996.49999996 0 0 0 .5-.5.49999996.49999996 0 0 0 -.5-.5z" fill="#1e8bcd"/></g></svg>