<svg viewBox="0 0 32 32" xmlns="http://www.w3.org/2000/svg"><path d="m23.992469 14.84826q0 1.951956-.580311 3.57419-.567122 1.622235-1.622234 2.796046-1.041922 1.173811-2.519079 1.833256-1.463967.646255-3.257656.646255-1.7805 0-3.257656-.646255-1.477156-.659445-2.532268-1.833256-1.0551112-1.173811-1.6354225-2.796046-.5803113-1.622234-.5803113-3.57419 0-1.938767.5803113-3.561001.5803113-1.6354223 1.6354225-2.8092337 1.055112-1.1870004 2.532268-1.8332561 1.477156-.6594446 3.257656-.6594446 1.793689 0 3.257656.6594446 1.477157.6462557 2.519079 1.8332561 1.055112 1.1738114 1.622234 2.8092337.580311 1.622234.580311 3.561001zm-2.453134 0q0-1.582667-.395666-2.835612-.382479-1.266133-1.107867-2.1366001-.712201-.8836558-1.740934-1.3452671-1.015545-.4748001-2.281679-.4748001-1.266134 0-2.294868.4748001-1.015544.4616113-1.740933 1.3452671-.725389.8704671-1.121056 2.1366001-.382478 1.252945-.382478 2.835612 0 1.582667.382478 2.848802.395667 1.252944 1.121056 2.1366.725389.870467 1.740933 1.332078 1.028734.461612 2.294868.461612 1.266134 0 2.281679-.461612 1.028733-.461611 1.740934-1.332078.725388-.883656 1.107867-2.1366.395666-1.266135.395666-2.848802z" fill="#3a3a38" stroke-width=".77"/><path d="m6 25h20v1h-20z" fill="#1e8bcd" fill-opacity=".992647" stroke-width="1.025978"/></svg>