<?xml version="1.0" encoding="UTF-8" standalone="no"?>
<svg
   xmlns:dc="http://purl.org/dc/elements/1.1/"
   xmlns:cc="http://creativecommons.org/ns#"
   xmlns:rdf="http://www.w3.org/1999/02/22-rdf-syntax-ns#"
   xmlns:svg="http://www.w3.org/2000/svg"
   xmlns="http://www.w3.org/2000/svg"
   xmlns:sodipodi="http://sodipodi.sourceforge.net/DTD/sodipodi-0.dtd"
   xmlns:inkscape="http://www.inkscape.org/namespaces/inkscape"
   version="1.1"
   id="svg236"
   sodipodi:docname="al21804.svg"
   width="23"
   height="23"
   inkscape:version="0.92.4 (5da689c313, 2019-01-14)">
  <metadata
     id="metadata242">
    <rdf:RDF>
      <cc:Work
         rdf:about="">
        <dc:format>image/svg+xml</dc:format>
        <dc:type
           rdf:resource="http://purl.org/dc/dcmitype/StillImage" />
        <dc:title></dc:title>
      </cc:Work>
    </rdf:RDF>
  </metadata>
  <defs
     id="defs240" />
  <sodipodi:namedview
     pagecolor="#ffffff"
     bordercolor="#666666"
     borderopacity="1"
     objecttolerance="10"
     gridtolerance="10"
     guidetolerance="10"
     inkscape:pageopacity="0"
     inkscape:pageshadow="2"
     inkscape:window-width="1920"
     inkscape:window-height="995"
     id="namedview238"
     showgrid="false"
     fit-margin-top="0"
     fit-margin-left="0"
     fit-margin-right="0"
     fit-margin-bottom="0"
     inkscape:zoom="2.36"
     inkscape:cx="-31.35161"
     inkscape:cy="-32.49"
     inkscape:window-x="0"
     inkscape:window-y="0"
     inkscape:window-maximized="1"
     inkscape:current-layer="svg236" />
  <path
     d="m 5.0495,19.756 h -0.086 q -1.047,0 -1.594,-0.71 -0.516,-0.63 -0.516,-1.7 l 0.016,-4.72 q 0,-0.996 -0.977,-1.004 v -0.258 l 0.289,-0.016 q 0.688,-0.117 0.688,-1.007 L 2.8535,5.6209999 q 0,-1.078 0.57,-1.719 Q 3.9865,3.254 5.0495,3.254 v 0.258 l -0.36,0.023 -0.289,0.078 q -0.898,0.3440001 -0.922,1.79 L 3.4165,9.8950001 Q 3.3925,11.005 2.3925,11.497 q 1,0.476 1.024,1.619 l 0.062,4.48 q 0.031,1.89 1.531,1.9 0.024,0 0.04,0 z"
     id="path230"
     inkscape:connector-curvature="0" />
  <path
     d="m 14.2075,15.436 0.88,0.2 -0.06,0.35 h -2.22 l 0.22,-1.22 q -1.32,1.38 -2.412,1.38 -0.946,0 -1.524,-0.69 -0.57,-0.7 -0.57,-1.92 0,-1.363 0.593,-2.55 0.602,-1.196 1.602,-1.86 1.001,-0.672 2.171,-0.672 0.95,0 1.78,0.328 l 0.35,-0.265 h 0.43 z m -0.23,-5.9899999 q -0.3,-0.211 -0.57,-0.289 -0.26,-0.086 -0.65,-0.086 -0.78,0 -1.44,0.594 -0.648,0.5859999 -1.023,1.5859999 -0.375,1.005 -0.375,2.085 0,0.84 0.344,1.34 0.344,0.5 0.934,0.5 0.89,0 1.93,-1.09 z"
     id="path232"
     inkscape:connector-curvature="0" />
  <path
     d="m 17.9475,19.746 v -0.26 l 0.36,-0.02 q 1.21,-0.21 1.21,-1.88 0,-0.75 -0.05,-2.26 -0.04,-1.48 -0.04,-2.24 0,-1.06 1.03,-1.599 -1.03,-0.492 -1.03,-1.602 0,-0.742 0.04,-2.258 0.05,-1.5000001 0.05,-2.2500001 0,-1.875 -1.57,-1.875 v -0.258 h 0.08 q 1.03,0 1.57,0.664 0.54,0.664 0.54,1.719 0,0.852 -0.1,2.3520001 -0.09,1.57 -0.09,2.352 0,1.023 1.03,1.023 h 0.13 v 0.258 l -0.35,0.016 q -0.81,0.109 -0.81,1.008 0,0.79 0.09,2.35 0.1,1.52 0.1,2.35 0,2.41 -2.19,2.41 z"
     id="path234"
     inkscape:connector-curvature="0" />
</svg>
