<?xml version="1.0" encoding="UTF-8" standalone="no"?>
<svg
   xmlns:dc="http://purl.org/dc/elements/1.1/"
   xmlns:cc="http://creativecommons.org/ns#"
   xmlns:rdf="http://www.w3.org/1999/02/22-rdf-syntax-ns#"
   xmlns:svg="http://www.w3.org/2000/svg"
   xmlns="http://www.w3.org/2000/svg"
   xmlns:sodipodi="http://sodipodi.sourceforge.net/DTD/sodipodi-0.dtd"
   xmlns:inkscape="http://www.inkscape.org/namespaces/inkscape"
   version="1.1"
   id="svg206"
   sodipodi:docname="al21822.svg"
   width="23"
   height="23"
   inkscape:version="0.92.4 (5da689c313, 2019-01-14)">
  <metadata
     id="metadata212">
    <rdf:RDF>
      <cc:Work
         rdf:about="">
        <dc:format>image/svg+xml</dc:format>
        <dc:type
           rdf:resource="http://purl.org/dc/dcmitype/StillImage" />
        <dc:title></dc:title>
      </cc:Work>
    </rdf:RDF>
  </metadata>
  <defs
     id="defs210" />
  <sodipodi:namedview
     pagecolor="#ffffff"
     bordercolor="#666666"
     borderopacity="1"
     objecttolerance="10"
     gridtolerance="10"
     guidetolerance="10"
     inkscape:pageopacity="0"
     inkscape:pageshadow="2"
     inkscape:window-width="1920"
     inkscape:window-height="995"
     id="namedview208"
     showgrid="false"
     fit-margin-top="0"
     fit-margin-left="0"
     fit-margin-right="0"
     fit-margin-bottom="0"
     inkscape:zoom="2.36"
     inkscape:cx="-31.01181"
     inkscape:cy="-33.65"
     inkscape:window-x="0"
     inkscape:window-y="0"
     inkscape:window-maximized="1"
     inkscape:current-layer="svg206" />
  <path
     d="m 5.6734,4.1904998 1.062,0.563 -3.813,6.6260002 3.813,6.63 -1.062,0.56 -4.1258,-7.19 z"
     id="path196"
     inkscape:connector-curvature="0" />
  <path
     d="m 8.4724,15.8795 q 0.375,0 0.625,0.25 0.258,0.24 0.258,0.61 0,0.35 -0.266,0.61 -0.258,0.26 -0.617,0.26 -0.352,0 -0.609,-0.26 -0.25,-0.26 -0.25,-0.61 0,-0.34 0.25,-0.61 0.25,-0.25 0.609,-0.25 z m 0,-5.325 q 0.367,0 0.617,0.242 0.266,0.243 0.266,0.602 0,0.352 -0.266,0.617 -0.265,0.266 -0.617,0.266 -0.344,0 -0.609,-0.266 -0.25,-0.273 -0.25,-0.617 0,-0.844 0.859,-0.844 z m 0,-5.3440002 q 0.375,0 0.625,0.242 0.258,0.242 0.258,0.6170004 0,0.352 -0.266,0.61 -0.258,0.258 -0.617,0.258 -0.352,0 -0.609,-0.258 -0.25,-0.266 -0.25,-0.61 0,-0.3430004 0.25,-0.6090004 0.25,-0.25 0.609,-0.25 z"
     id="path198"
     inkscape:connector-curvature="0" />
  <path
     d="m 10.7924,4.3727998 h 1.01 V 18.8095 h -1.01 z"
     id="path200"
     inkscape:connector-curvature="0" />
  <path
     d="m 14.4824,15.8495 q 0.38,0 0.63,0.25 0.25,0.24 0.25,0.61 0,0.35 -0.26,0.61 -0.26,0.26 -0.62,0.26 -0.35,0 -0.61,-0.26 -0.25,-0.26 -0.25,-0.61 0,-0.34 0.25,-0.61 0.25,-0.25 0.61,-0.25 z m 0,-5.325 q 0.37,0 0.62,0.242 0.26,0.243 0.26,0.602 0,0.352 -0.26,0.617 -0.27,0.266 -0.62,0.266 -0.34,0 -0.61,-0.266 -0.25,-0.273 -0.25,-0.617 0,-0.844 0.86,-0.844 z m 0,-5.3440002 q 0.38,0 0.63,0.242 0.25,0.242 0.25,0.6170004 0,0.352 -0.26,0.61 -0.26,0.258 -0.62,0.258 -0.35,0 -0.61,-0.258 -0.25,-0.266 -0.25,-0.61 0,-0.3430004 0.25,-0.6090004 0.25,-0.25 0.61,-0.25 z"
     id="path202"
     inkscape:connector-curvature="0" />
  <path
     d="m 17.3224,18.7895 -1.06,-0.56 3.81,-6.63 -3.81,-6.6260002 1.06,-0.563 4.13,7.1890002 z"
     id="path204"
     inkscape:connector-curvature="0" />
</svg>
