<?xml version="1.0" encoding="UTF-8" standalone="no"?>
<svg
   xmlns:dc="http://purl.org/dc/elements/1.1/"
   xmlns:cc="http://creativecommons.org/ns#"
   xmlns:rdf="http://www.w3.org/1999/02/22-rdf-syntax-ns#"
   xmlns:svg="http://www.w3.org/2000/svg"
   xmlns="http://www.w3.org/2000/svg"
   xmlns:sodipodi="http://sodipodi.sourceforge.net/DTD/sodipodi-0.dtd"
   xmlns:inkscape="http://www.inkscape.org/namespaces/inkscape"
   version="1.1"
   id="svg84"
   sodipodi:docname="al21802.svg"
   width="23"
   height="23"
   inkscape:version="0.92.4 (5da689c313, 2019-01-14)">
  <metadata
     id="metadata90">
    <rdf:RDF>
      <cc:Work
         rdf:about="">
        <dc:format>image/svg+xml</dc:format>
        <dc:type
           rdf:resource="http://purl.org/dc/dcmitype/StillImage" />
        <dc:title></dc:title>
      </cc:Work>
    </rdf:RDF>
  </metadata>
  <defs
     id="defs88" />
  <sodipodi:namedview
     pagecolor="#ffffff"
     bordercolor="#666666"
     borderopacity="1"
     objecttolerance="10"
     gridtolerance="10"
     guidetolerance="10"
     inkscape:pageopacity="0"
     inkscape:pageshadow="2"
     inkscape:window-width="1920"
     inkscape:window-height="995"
     id="namedview86"
     showgrid="false"
     fit-margin-top="0"
     fit-margin-left="0"
     fit-margin-right="0"
     fit-margin-bottom="0"
     inkscape:zoom="2.36"
     inkscape:cx="-31.95361"
     inkscape:cy="-33.15"
     inkscape:window-x="0"
     inkscape:window-y="0"
     inkscape:window-maximized="1"
     inkscape:current-layer="svg84" />
  <path
     d="M 2.4085,19.26145 V 3.43855 h 2.766 v 0.5469 h -2 v 14.716 h 2 v 0.56 z"
     id="path78"
     inkscape:connector-curvature="0" />
  <path
     d="m 20.5915,19.56145 h -2.76 v -0.57 h 2 v -14.714 h -2 v -0.539 h 2.76 z"
     id="path80"
     inkscape:connector-curvature="0" />
  <path
     d="m 14.1215,15.90145 0.88,0.2 -0.06,0.35 h -2.22 l 0.22,-1.22 q -1.32,1.38 -2.412,1.38 -0.946,0 -1.524,-0.69 -0.57,-0.7 -0.57,-1.92 0,-1.363 0.593,-2.55 0.602,-1.196 1.602,-1.86 1.001,-0.672 2.171,-0.672 0.95,0 1.78,0.328 l 0.35,-0.265 h 0.43 z m -0.23,-5.99 q -0.3,-0.211 -0.57,-0.289 -0.26,-0.086 -0.65,-0.086 -0.78,0 -1.44,0.594 -0.648,0.586 -1.023,1.586 -0.375,1.005 -0.375,2.085 0,0.84 0.344,1.34 0.344,0.5 0.934,0.5 0.89,0 1.93,-1.09 z"
     id="path82"
     inkscape:connector-curvature="0" />
</svg>
