<?xml version="1.0" encoding="UTF-8" standalone="no"?>
<svg
   xmlns:dc="http://purl.org/dc/elements/1.1/"
   xmlns:cc="http://creativecommons.org/ns#"
   xmlns:rdf="http://www.w3.org/1999/02/22-rdf-syntax-ns#"
   xmlns:svg="http://www.w3.org/2000/svg"
   xmlns="http://www.w3.org/2000/svg"
   xmlns:sodipodi="http://sodipodi.sourceforge.net/DTD/sodipodi-0.dtd"
   xmlns:inkscape="http://www.inkscape.org/namespaces/inkscape"
   version="1.1"
   id="svg4"
   sodipodi:docname="at21710.svg"
   width="10.7546"
   height="10.7546"
   inkscape:version="0.92.4 (5da689c313, 2019-01-14)">
  <metadata
     id="metadata10">
    <rdf:RDF>
      <cc:Work
         rdf:about="">
        <dc:format>image/svg+xml</dc:format>
        <dc:type
           rdf:resource="http://purl.org/dc/dcmitype/StillImage" />
        <dc:title></dc:title>
      </cc:Work>
    </rdf:RDF>
  </metadata>
  <defs
     id="defs8" />
  <sodipodi:namedview
     pagecolor="#ffffff"
     bordercolor="#666666"
     borderopacity="1"
     objecttolerance="10"
     gridtolerance="10"
     guidetolerance="10"
     inkscape:pageopacity="0"
     inkscape:pageshadow="2"
     inkscape:window-width="819"
     inkscape:window-height="480"
     id="namedview6"
     showgrid="false"
     fit-margin-top="0"
     fit-margin-left="0"
     fit-margin-right="0"
     fit-margin-bottom="0"
     inkscape:zoom="2.36"
     inkscape:cx="48.964"
     inkscape:cy="-38.27"
     inkscape:window-x="590"
     inkscape:window-y="191"
     inkscape:window-maximized="0"
     inkscape:current-layer="svg4" />
  <path
     d="m 7.6037998,10.0446 0.883,0.2 -0.062,0.35 h -2.227 l 0.226,-1.2199992 q -1.32,1.3799992 -2.414,1.3799992 -0.945,0 -1.523,-0.69 -0.571,-0.6999992 -0.571,-1.9159992 0,-1.367 0.594,-2.554 0.602,-1.196 1.602,-1.86 1,-0.672 2.172,-0.672 0.945,0 1.781,0.328 l 0.352,-0.265 h 0.422 z m -0.226,-5.9899992 q -0.305,-0.211 -0.571,-0.289 -0.265,-0.086 -0.656,-0.086 -0.781,0 -1.438,0.594 -0.648,0.586 -1.023,1.586 -0.375,1 -0.375,2.086 0,0.836 0.344,1.339 0.343,0.5 0.937,0.5 0.883,0 1.93,-1.089 z m 0.117,-3.20299994 q 0,0.34399994 -0.25,0.59399994 -0.25,0.25 -0.602,0.25 -0.344,0 -0.594,-0.25 -0.25,-0.25 -0.25,-0.59399994 0,-0.352 0.25,-0.602 0.25,-0.24960000245606 0.594,-0.24960000245606 0.352,0 0.602,0.24960000245606 0.25,0.25 0.25,0.602 z"
     id="path2"
     inkscape:connector-curvature="0" />
</svg>
