<?xml version="1.0" encoding="UTF-8" standalone="no"?>
<svg
   xmlns:dc="http://purl.org/dc/elements/1.1/"
   xmlns:cc="http://creativecommons.org/ns#"
   xmlns:rdf="http://www.w3.org/1999/02/22-rdf-syntax-ns#"
   xmlns:svg="http://www.w3.org/2000/svg"
   xmlns="http://www.w3.org/2000/svg"
   xmlns:sodipodi="http://sodipodi.sourceforge.net/DTD/sodipodi-0.dtd"
   xmlns:inkscape="http://www.inkscape.org/namespaces/inkscape"
   version="1.1"
   id="svg92"
   sodipodi:docname="bi21302.svg"
   width="24"
   height="24"
   inkscape:version="0.92.4 (5da689c313, 2019-01-14)">
  <metadata
     id="metadata98">
    <rdf:RDF>
      <cc:Work
         rdf:about="">
        <dc:format>image/svg+xml</dc:format>
        <dc:type
           rdf:resource="http://purl.org/dc/dcmitype/StillImage" />
        <dc:title></dc:title>
      </cc:Work>
    </rdf:RDF>
  </metadata>
  <defs
     id="defs96" />
  <sodipodi:namedview
     pagecolor="#ffffff"
     bordercolor="#666666"
     borderopacity="1"
     objecttolerance="10"
     gridtolerance="10"
     guidetolerance="10"
     inkscape:pageopacity="0"
     inkscape:pageshadow="2"
     inkscape:window-width="1920"
     inkscape:window-height="995"
     id="namedview94"
     showgrid="false"
     fit-margin-top="0"
     fit-margin-left="0"
     fit-margin-right="0"
     fit-margin-bottom="0"
     inkscape:zoom="9.44"
     inkscape:cx="43.213983"
     inkscape:cy="0.11806841"
     inkscape:window-x="0"
     inkscape:window-y="0"
     inkscape:window-maximized="1"
     inkscape:current-layer="svg92" />
  <g
     id="g411"
     transform="translate(0.5383,-7.3095)">
    <path
       inkscape:connector-curvature="0"
       id="path86"
       d="m 2.5584,17.614 q 1.003,0 1.472,0.41 0.475,0.41 0.475,1.256 v 4.134 l 0.761,0.166 v 0.29 H 3.5874 L 3.4634,23.258 Q 2.7214,24 1.5694,24 0,24 0,22.177 q 0,-0.612 0.2344,-1.009 0.241,-0.403 0.762,-0.612 0.521,-0.215 1.51,-0.234 l 0.918,-0.026 v -0.957 q 0,-0.632 -0.234,-0.931 -0.228,-0.3 -0.71,-0.3 -0.651,0 -1.191,0.306 l -0.222,0.762 h -0.364 v -1.335 q 1.054,-0.227 1.855,-0.227 z m 0.866,3.138 -0.853,0.026 q -0.872,0.032 -1.185,0.338 -0.306,0.306 -0.306,1.022 0,1.146 0.931,1.146 0.443,0 0.762,-0.098 0.326,-0.104 0.651,-0.26 z" />
    <path
       inkscape:connector-curvature="0"
       id="path88"
       d="m 12.6634,17.776 h 1.54 v 0.664 h -2 l -1.4,2.006 h 3.4 v 0.664 h -3.87 l -1.289,1.849 h -0.801 l 1.29,-1.849 h -1.537 v -0.664 h 1.997 l 1.4,-2.006 h -3.397 v -0.664 h 3.857 l 1.29,-1.849 h 0.82 z" />
    <path
       inkscape:connector-curvature="0"
       id="path90"
       d="m 21.7434,20.641 q 0,-1.198 -0.41,-1.784 -0.42,-0.586 -1.29,-0.586 -0.39,0 -0.76,0.072 -0.38,0.065 -0.55,0.143 v 4.85 q 0.55,0.104 1.31,0.104 0.9,0 1.3,-0.703 0.4,-0.703 0.4,-2.096 z m -4.09,-5.573 -0.89,-0.156 v -0.293 h 1.97 v 2.187 q 0,0.352 -0.04,1.289 0.65,-0.508 1.64,-0.508 1.25,0 1.92,0.762 0.67,0.755 0.67,2.292 0,1.647 -0.74,2.506 -0.73,0.853 -2.12,0.853 -0.56,0 -1.23,-0.12 -0.67,-0.13 -1.18,-0.33 z" />
  </g>
</svg>
