<?xml version="1.0" encoding="UTF-8" standalone="no"?>
<svg
   xmlns:dc="http://purl.org/dc/elements/1.1/"
   xmlns:cc="http://creativecommons.org/ns#"
   xmlns:rdf="http://www.w3.org/1999/02/22-rdf-syntax-ns#"
   xmlns:svg="http://www.w3.org/2000/svg"
   xmlns="http://www.w3.org/2000/svg"
   xmlns:sodipodi="http://sodipodi.sourceforge.net/DTD/sodipodi-0.dtd"
   xmlns:inkscape="http://www.inkscape.org/namespaces/inkscape"
   version="1.1"
   id="svg302"
   sodipodi:docname="bi21324.svg"
   width="24"
   height="24"
   inkscape:version="0.92.4 (5da689c313, 2019-01-14)">
  <metadata
     id="metadata308">
    <rdf:RDF>
      <cc:Work
         rdf:about="">
        <dc:format>image/svg+xml</dc:format>
        <dc:type
           rdf:resource="http://purl.org/dc/dcmitype/StillImage" />
        <dc:title></dc:title>
      </cc:Work>
    </rdf:RDF>
  </metadata>
  <defs
     id="defs306" />
  <sodipodi:namedview
     pagecolor="#ffffff"
     bordercolor="#666666"
     borderopacity="1"
     objecttolerance="10"
     gridtolerance="10"
     guidetolerance="10"
     inkscape:pageopacity="0"
     inkscape:pageshadow="2"
     inkscape:window-width="1920"
     inkscape:window-height="995"
     id="namedview304"
     showgrid="false"
     fit-margin-top="0"
     fit-margin-left="0"
     fit-margin-right="0"
     fit-margin-bottom="0"
     inkscape:zoom="2.36"
     inkscape:cx="49.2749"
     inkscape:cy="-41.414"
     inkscape:window-x="0"
     inkscape:window-y="0"
     inkscape:window-maximized="1"
     inkscape:current-layer="svg302" />
  <path
     d="m 2.93945,10.6435 q 0.802,0 1.177,0.328 0.38,0.328 0.38,1.005 v 3.307 l 0.61,0.131 v 0.234 h -1.344 l -0.099,-0.49 q -0.594,0.594 -1.516,0.594 -1.2549,0 -1.2549,-1.458 0,-0.49 0.1875,-0.807 0.1924,-0.323 0.6094,-0.49 0.417,-0.172 1.208,-0.188 l 0.735,-0.02 v -0.766 q 0,-0.505 -0.188,-0.745 -0.182,-0.239 -0.568,-0.239 -0.52,0 -0.953,0.244 l -0.177,0.61 h -0.291 v -1.068 q 0.843,-0.182 1.484,-0.182 z m 0.693,2.51 -0.683,0.021 q -0.698,0.026 -0.948,0.271 -0.244,0.245 -0.244,0.818 0,0.916 0.744,0.916 0.355,0 0.61,-0.078 0.26,-0.083 0.521,-0.208 z"
     id="path296"
     inkscape:connector-curvature="0" />
  <path
     d="m 9.87145,14.3775 h -0.057 l -2.172,-2.151 v -0.052 l 2.172,-2.151 h 0.057 l -0.463,0.844 h 6.169 v 0.843 h -6.633 l -0.265,0.49 0.265,0.49 h 6.633 v 0.843 h -6.169 z"
     id="path298"
     inkscape:connector-curvature="0" />
  <path
     d="m 22.17745,13.0655 q 0,-0.959 -0.34,-1.427 -0.33,-0.469 -1.03,-0.469 -0.31,0 -0.61,0.057 -0.3,0.052 -0.44,0.115 v 3.88 q 0.44,0.083 1.05,0.083 0.72,0 1.04,-0.562 0.33,-0.563 0.33,-1.677 z m -3.28,-4.459 -0.71,-0.125 v -0.234 h 1.57 v 1.75 q 0,0.281 -0.03,1.031 0.52,-0.406 1.32,-0.406 1,0 1.53,0.609 0.53,0.604 0.53,1.834 0,1.317 -0.58,2.005 -0.59,0.682 -1.7,0.682 -0.45,0 -0.99,-0.099 -0.53,-0.099 -0.94,-0.26 z"
     id="path300"
     inkscape:connector-curvature="0" />
</svg>
