<?xml version="1.0" encoding="UTF-8" standalone="no"?>
<svg
   xmlns:dc="http://purl.org/dc/elements/1.1/"
   xmlns:cc="http://creativecommons.org/ns#"
   xmlns:rdf="http://www.w3.org/1999/02/22-rdf-syntax-ns#"
   xmlns:svg="http://www.w3.org/2000/svg"
   xmlns="http://www.w3.org/2000/svg"
   xmlns:sodipodi="http://sodipodi.sourceforge.net/DTD/sodipodi-0.dtd"
   xmlns:inkscape="http://www.inkscape.org/namespaces/inkscape"
   version="1.1"
   id="svg144"
   sodipodi:docname="fo21606.svg"
   width="24"
   height="24"
   inkscape:version="0.92.4 (5da689c313, 2019-01-14)">
  <metadata
     id="metadata150">
    <rdf:RDF>
      <cc:Work
         rdf:about="">
        <dc:format>image/svg+xml</dc:format>
        <dc:type
           rdf:resource="http://purl.org/dc/dcmitype/StillImage" />
        <dc:title></dc:title>
      </cc:Work>
    </rdf:RDF>
  </metadata>
  <defs
     id="defs148" />
  <sodipodi:namedview
     pagecolor="#ffffff"
     bordercolor="#666666"
     borderopacity="1"
     objecttolerance="10"
     gridtolerance="10"
     guidetolerance="10"
     inkscape:pageopacity="0"
     inkscape:pageshadow="2"
     inkscape:window-width="1920"
     inkscape:window-height="995"
     id="namedview146"
     showgrid="false"
     fit-margin-top="0"
     fit-margin-left="0"
     fit-margin-right="0"
     fit-margin-bottom="0"
     inkscape:zoom="2.36"
     inkscape:cx="-31.40261"
     inkscape:cy="-34.15"
     inkscape:window-x="0"
     inkscape:window-y="0"
     inkscape:window-maximized="1"
     inkscape:current-layer="svg144" />
  <path
     d="m 9.24,18.6547 q 0.828,0 0.938,-5.378 0.015,-0.844 0.023,-1.289 0.094,-4.0239998 0.831,-5.7579998 0.75,-1.7344004 2.33,-1.7344004 0.62,0 1.01,0.3284 0.39,0.328 0.39,0.8360004 0,0.422 -0.25,0.672 -0.25,0.242 -0.68,0.242 -0.33,0 -0.55,-0.149 -0.21,-0.148 -0.31,-0.422 -0.04,-0.117 -0.08,-0.398 -0.03,-0.2810004 -0.16,-0.2810004 -0.84,0 -0.95,4.8360002 -0.03,1.507 -0.06,2.367 -0.13,3.738 -0.87,5.358 -0.737,1.62 -2.268,1.62 -0.617,0 -1.016,-0.33 -0.39,-0.32 -0.39,-0.83 0,-0.44 0.265,-0.69 0.266,-0.24 0.742,-0.24 0.258,0 0.446,0.11 0.187,0.12 0.304,0.34 0.078,0.14 0.118,0.46 0.039,0.33 0.187,0.33 z m -5.289,0 q 0.828,0 0.937,-5.378 0.016,-0.844 0.024,-1.289 0.094,-4.0239998 0.836,-5.7579998 0.742,-1.7344004 2.32,-1.7344004 0.625,0 1.016,0.3284 0.39,0.328 0.39,0.8360004 0,0.422 -0.25,0.672 -0.25,0.242 -0.679,0.242 -0.328,0 -0.547,-0.149 -0.219,-0.148 -0.313,-0.422 -0.047,-0.117 -0.086,-0.398 -0.031,-0.2810004 -0.156,-0.2810004 -0.836,0 -0.945,4.8360002 -0.031,1.507 -0.063,2.367 -0.132,3.738 -0.875,5.358 -0.734,1.62 -2.265,1.62 -0.617,0 -1.016,-0.33 -0.391,-0.32 -0.391,-0.83 0,-0.44 0.266,-0.69 0.266,-0.24 0.742,-0.24 0.258,0 0.446,0.11 0.187,0.12 0.304,0.34 0.078,0.14 0.117,0.46 0.04,0.33 0.188,0.33 z"
     id="path140"
     inkscape:connector-curvature="0" />
  <path
     d="m 22.112,16.5247 v 0.35 h -3.32 v -0.35 l 0.97,-0.18 -1.69,-2.6 -1.99,2.61 1.01,0.17 v 0.35 h -2.64 v -0.35 l 0.85,-0.13 2.42,-3.184 -2.13,-3.133 -0.87,-0.1949998 v -0.352 h 3.33 v 0.352 l -0.97,0.2109998 1.41,2.109 1.62,-2.125 -1,-0.1949998 v -0.352 h 2.64 v 0.352 l -0.85,0.1639998 -2.06,2.672 2.42,3.636 z"
     id="path142"
     inkscape:connector-curvature="0" />
</svg>
