<?xml version="1.0" encoding="UTF-8" standalone="no"?>
<svg
   xmlns:dc="http://purl.org/dc/elements/1.1/"
   xmlns:cc="http://creativecommons.org/ns#"
   xmlns:rdf="http://www.w3.org/1999/02/22-rdf-syntax-ns#"
   xmlns:svg="http://www.w3.org/2000/svg"
   xmlns="http://www.w3.org/2000/svg"
   xmlns:sodipodi="http://sodipodi.sourceforge.net/DTD/sodipodi-0.dtd"
   xmlns:inkscape="http://www.inkscape.org/namespaces/inkscape"
   version="1.1"
   id="svg192"
   sodipodi:docname="fu21521.svg"
   width="23"
   height="23"
   inkscape:version="0.92.4 (5da689c313, 2019-01-14)">
  <metadata
     id="metadata198">
    <rdf:RDF>
      <cc:Work
         rdf:about="">
        <dc:format>image/svg+xml</dc:format>
        <dc:type
           rdf:resource="http://purl.org/dc/dcmitype/StillImage" />
        <dc:title></dc:title>
      </cc:Work>
    </rdf:RDF>
  </metadata>
  <defs
     id="defs196" />
  <sodipodi:namedview
     pagecolor="#ffffff"
     bordercolor="#666666"
     borderopacity="1"
     objecttolerance="10"
     gridtolerance="10"
     guidetolerance="10"
     inkscape:pageopacity="0"
     inkscape:pageshadow="2"
     inkscape:window-width="1920"
     inkscape:window-height="995"
     id="namedview194"
     showgrid="false"
     fit-margin-top="0"
     fit-margin-left="0"
     fit-margin-right="0"
     fit-margin-bottom="0"
     inkscape:zoom="2.36"
     inkscape:cx="-31.48161"
     inkscape:cy="-38.67"
     inkscape:window-x="0"
     inkscape:window-y="0"
     inkscape:window-maximized="1"
     inkscape:current-layer="svg192" />
  <path
     d="m 4.7805,15.1655 q 0,0.725 -0.463,1.105 -0.459,0.37 -1.36,0.37 -0.364,0 -0.807,-0.07 -0.437,-0.08 -0.687,-0.17 v -1.204 h 0.234 l 0.255,0.684 q 0.391,0.35 1.016,0.35 1.01,0 1.01,-0.86 0,-0.637 -0.797,-0.908 l -0.463,-0.151 q -0.526,-0.172 -0.766,-0.349 -0.239,-0.177 -0.37,-0.432 -0.13,-0.261 -0.13,-0.625 0,-0.646 0.438,-1.016 0.442,-0.375 1.192,-0.375 0.537,0 1.344,0.161 v 1.068 h -0.245 l -0.218,-0.568 q -0.276,-0.244 -0.87,-0.244 -0.422,0 -0.646,0.208 -0.219,0.208 -0.219,0.562 0,0.297 0.198,0.5 0.203,0.204 0.61,0.339 0.765,0.26 1,0.38 0.234,0.12 0.395,0.297 0.167,0.172 0.256,0.396 0.093,0.224 0.093,0.552 z"
     id="path180"
     inkscape:connector-curvature="0" />
  <path
     d="m 6.6355,10.0455 q 0,0.229 -0.167,0.396 -0.167,0.167 -0.401,0.167 -0.229,0 -0.396,-0.167 -0.167,-0.167 -0.167,-0.396 0,-0.234 0.167,-0.401 0.167,-0.167 0.396,-0.167 0.234,0 0.401,0.167 0.167,0.167 0.167,0.401 z m -0.053,6.135 0.839,0.13 v 0.23 h -2.536 v -0.23 l 0.833,-0.13 v -4.171 l -0.693,-0.13 v -0.235 h 1.557 z"
     id="path182"
     inkscape:connector-curvature="0" />
  <path
     d="m 8.8065,12.0405 q 0.401,-0.229 0.855,-0.375 0.453,-0.151 0.756,-0.151 0.63,0 0.96,0.37 0.32,0.37 0.32,1.073 v 3.223 l 0.59,0.13 v 0.23 h -2.106 v -0.23 l 0.656,-0.13 v -3.13 q 0,-0.432 -0.22,-0.677 -0.21,-0.25 -0.649,-0.25 -0.469,0 -1.151,0.151 v 3.906 l 0.661,0.13 v 0.23 h -2.114 v -0.23 l 0.588,-0.13 v -4.171 l -0.588,-0.13 v -0.235 h 1.396 z"
     id="path184"
     inkscape:connector-curvature="0" />
  <path
     d="m 13.6475,11.2595 q 0,0.541 -0.03,0.781 0.37,-0.214 0.85,-0.37 0.47,-0.156 0.8,-0.156 0.64,0 0.96,0.37 0.32,0.37 0.32,1.073 v 3.223 l 0.6,0.13 v 0.23 h -2.11 v -0.23 l 0.65,-0.13 v -3.161 q 0,-0.896 -0.86,-0.896 -0.49,0 -1.18,0.151 v 3.906 l 0.66,0.13 v 0.23 h -2.14 v -0.23 l 0.62,-0.13 v -6.682 l -0.73,-0.125 v -0.234 h 1.59 z"
     id="path186"
     inkscape:connector-curvature="0" />
  <path
     d="m 15.6875,7.9185 v -0.598 h 2.07 v 0.598 z"
     id="path188"
     inkscape:connector-curvature="0" />
  <path
     d="m 20.4775,11.3275 1.07,0.106 v 0.207 h -2.82 v -0.207 l 1.08,-0.106 v -4.273 l -1.06,0.379 v -0.207 l 1.53,-0.867 h 0.2 z"
     id="path190"
     inkscape:connector-curvature="0" />
</svg>
