<?xml version="1.0" encoding="UTF-8" standalone="no"?>
<svg
   xmlns:dc="http://purl.org/dc/elements/1.1/"
   xmlns:cc="http://creativecommons.org/ns#"
   xmlns:rdf="http://www.w3.org/1999/02/22-rdf-syntax-ns#"
   xmlns:svg="http://www.w3.org/2000/svg"
   xmlns="http://www.w3.org/2000/svg"
   xmlns:sodipodi="http://sodipodi.sourceforge.net/DTD/sodipodi-0.dtd"
   xmlns:inkscape="http://www.inkscape.org/namespaces/inkscape"
   version="1.1"
   id="svg68"
   sodipodi:docname="fu21514.svg"
   width="23"
   height="23"
   inkscape:version="0.92.4 (5da689c313, 2019-01-14)">
  <metadata
     id="metadata74">
    <rdf:RDF>
      <cc:Work
         rdf:about="">
        <dc:format>image/svg+xml</dc:format>
        <dc:type
           rdf:resource="http://purl.org/dc/dcmitype/StillImage" />
        <dc:title></dc:title>
      </cc:Work>
    </rdf:RDF>
  </metadata>
  <defs
     id="defs72" />
  <sodipodi:namedview
     pagecolor="#ffffff"
     bordercolor="#666666"
     borderopacity="1"
     objecttolerance="10"
     gridtolerance="10"
     guidetolerance="10"
     inkscape:pageopacity="0"
     inkscape:pageshadow="2"
     inkscape:window-width="1920"
     inkscape:window-height="995"
     id="namedview70"
     showgrid="false"
     fit-margin-top="0"
     fit-margin-left="0"
     fit-margin-right="0"
     fit-margin-bottom="0"
     inkscape:zoom="2.36"
     inkscape:cx="-31.40361"
     inkscape:cy="-40.25"
     inkscape:window-x="0"
     inkscape:window-y="0"
     inkscape:window-maximized="1"
     inkscape:current-layer="svg68" />
  <path
     d="m 6.0635,15.2705 q -0.288,0.211 -0.791,0.334 -0.504,0.117 -1.032,0.117 -2.677,0 -2.677,-2.912 0,-1.377 0.679,-2.115 0.686,-0.744 1.957,-0.744 0.791,0 1.729,0.181 v 1.536 h -0.322 l -0.252,-0.973 q -0.487,-0.276 -1.166,-0.276 -1.571,0 -1.571,2.391 0,1.242 0.475,1.775 0.48,0.528 1.482,0.528 0.856,0 1.489,-0.194 z"
     id="path60"
     inkscape:connector-curvature="0" />
  <path
     d="m 11.4665,12.8215 q 0,2.9 -2.575,2.9 -1.243,0 -1.875,-0.744 -0.633,-0.744 -0.633,-2.156 0,-1.395 0.633,-2.133 0.632,-0.738 1.922,-0.738 1.253,0 1.888,0.726 0.64,0.721 0.64,2.145 z m -1.052,0 q 0,-1.266 -0.369,-1.834 -0.369,-0.569 -1.154,-0.569 -0.768,0 -1.114,0.545 -0.339,0.545 -0.339,1.858 0,1.33 0.345,1.887 0.352,0.55 1.108,0.55 0.773,0 1.148,-0.574 0.375,-0.574 0.375,-1.863 z"
     id="path62"
     inkscape:connector-curvature="0" />
  <path
     d="m 15.6665,14.0575 q 0,0.82 -0.53,1.242 -0.51,0.422 -1.52,0.422 -0.41,0 -0.91,-0.088 -0.5,-0.082 -0.78,-0.187 v -1.354 h 0.27 l 0.28,0.768 q 0.44,0.398 1.15,0.398 1.13,0 1.13,-0.972 0,-0.715 -0.89,-1.02 l -0.52,-0.17 q -0.6,-0.193 -0.87,-0.392 -0.27,-0.2 -0.41,-0.487 -0.15,-0.293 -0.15,-0.703 0,-0.726 0.49,-1.142 0.5,-0.422 1.35,-0.422 0.6,0 1.51,0.181 v 1.202 h -0.28 l -0.24,-0.639 q -0.31,-0.276 -0.98,-0.276 -0.48,0 -0.73,0.235 -0.24,0.234 -0.24,0.633 0,0.334 0.22,0.562 0.23,0.229 0.68,0.381 0.86,0.293 1.13,0.428 0.26,0.135 0.44,0.334 0.19,0.193 0.29,0.445 0.11,0.252 0.11,0.621 z"
     id="path64"
     inkscape:connector-curvature="0" />
  <path
     d="m 17.4965,9.6635 q 0,0.609 -0.04,0.879 0.42,-0.241 0.96,-0.417 0.54,-0.175 0.91,-0.175 0.71,0 1.07,0.416 0.37,0.416 0.37,1.207 v 3.621 l 0.67,0.146 v 0.264 h -2.38 v -0.264 l 0.74,-0.146 v -3.551 q 0,-1.008 -0.98,-1.008 -0.55,0 -1.32,0.17 v 4.389 l 0.75,0.146 v 0.264 h -2.42 v -0.264 l 0.7,-0.146 v -7.512 l -0.82,-0.14 v -0.264 h 1.79 z"
     id="path66"
     inkscape:connector-curvature="0" />
</svg>
