<?xml version="1.0" encoding="UTF-8" standalone="no"?>
<svg
   xmlns:dc="http://purl.org/dc/elements/1.1/"
   xmlns:cc="http://creativecommons.org/ns#"
   xmlns:rdf="http://www.w3.org/1999/02/22-rdf-syntax-ns#"
   xmlns:svg="http://www.w3.org/2000/svg"
   xmlns="http://www.w3.org/2000/svg"
   xmlns:sodipodi="http://sodipodi.sourceforge.net/DTD/sodipodi-0.dtd"
   xmlns:inkscape="http://www.inkscape.org/namespaces/inkscape"
   version="1.1"
   id="svg136"
   sodipodi:docname="fu21518.svg"
   width="23"
   height="23"
   inkscape:version="0.92.4 (5da689c313, 2019-01-14)">
  <metadata
     id="metadata142">
    <rdf:RDF>
      <cc:Work
         rdf:about="">
        <dc:format>image/svg+xml</dc:format>
        <dc:type
           rdf:resource="http://purl.org/dc/dcmitype/StillImage" />
        <dc:title></dc:title>
      </cc:Work>
    </rdf:RDF>
  </metadata>
  <defs
     id="defs140" />
  <sodipodi:namedview
     pagecolor="#ffffff"
     bordercolor="#666666"
     borderopacity="1"
     objecttolerance="10"
     gridtolerance="10"
     guidetolerance="10"
     inkscape:pageopacity="0"
     inkscape:pageshadow="2"
     inkscape:window-width="1920"
     inkscape:window-height="995"
     id="namedview138"
     showgrid="false"
     fit-margin-top="0"
     fit-margin-left="0"
     fit-margin-right="0"
     fit-margin-bottom="0"
     inkscape:zoom="2.36"
     inkscape:cx="-31.70261"
     inkscape:cy="-38.6"
     inkscape:window-x="0"
     inkscape:window-y="0"
     inkscape:window-maximized="1"
     inkscape:current-layer="svg136" />
  <path
     d="m 6.113,16.27115 q -0.287,0.21 -0.791,0.33 -0.504,0.12 -1.031,0.12 -2.678,0 -2.678,-2.915 0,-1.377 0.68,-2.115 0.685,-0.744 1.957,-0.744 0.791,0 1.728,0.181 v 1.535 H 5.656 l -0.252,-0.972 q -0.486,-0.276 -1.166,-0.276 -1.57,0 -1.57,2.391 0,1.242 0.474,1.775 0.481,0.53 1.483,0.53 0.855,0 1.488,-0.2 z"
     id="path126"
     inkscape:connector-curvature="0" />
  <path
     d="m 11.517,13.81815 q 0,2.903 -2.576,2.903 -1.242,0 -1.875,-0.75 -0.633,-0.741 -0.633,-2.153 0,-1.395 0.633,-2.133 0.633,-0.738 1.922,-0.738 1.249,0 1.889,0.726 0.64,0.721 0.64,2.145 z m -1.05,0 q 0,-1.266 -0.372,-1.834 -0.369,-0.569 -1.154,-0.569 -0.768,0 -1.113,0.545 -0.34,0.545 -0.34,1.858 0,1.33 0.346,1.883 0.351,0.55 1.107,0.55 0.773,0 1.148,-0.57 0.378,-0.574 0.378,-1.863 z"
     id="path128"
     inkscape:connector-curvature="0" />
  <path
     d="m 15.717,15.05415 q 0,0.817 -0.53,1.247 -0.51,0.42 -1.53,0.42 -0.41,0 -0.9,-0.09 -0.5,-0.08 -0.78,-0.19 v -1.352 h 0.27 l 0.28,0.772 q 0.44,0.39 1.15,0.39 1.13,0 1.13,-0.968 0,-0.715 -0.89,-1.02 l -0.52,-0.17 q -0.6,-0.193 -0.87,-0.392 -0.27,-0.2 -0.41,-0.487 -0.15,-0.293 -0.15,-0.703 0,-0.726 0.49,-1.142 0.5,-0.422 1.35,-0.422 0.6,0 1.51,0.181 v 1.202 h -0.28 l -0.24,-0.639 q -0.32,-0.276 -0.98,-0.276 -0.48,0 -0.73,0.235 -0.25,0.234 -0.25,0.633 0,0.334 0.23,0.562 0.23,0.229 0.68,0.381 0.86,0.293 1.13,0.428 0.26,0.134 0.44,0.334 0.19,0.193 0.29,0.445 0.11,0.252 0.11,0.621 z"
     id="path130"
     inkscape:connector-curvature="0" />
  <path
     d="m 15.277,7.62915 v -0.598 h 2.08 v 0.598 z"
     id="path132"
     inkscape:connector-curvature="0" />
  <path
     d="m 20.317,11.24715 1.07,0.106 v 0.207 h -2.82 v -0.207 l 1.08,-0.106 v -4.273 l -1.06,0.379 v -0.207 l 1.53,-0.8673 h 0.2 z"
     id="path134"
     inkscape:connector-curvature="0" />
</svg>
