<?xml version="1.0" encoding="UTF-8" standalone="no"?>
<svg
   xmlns:dc="http://purl.org/dc/elements/1.1/"
   xmlns:cc="http://creativecommons.org/ns#"
   xmlns:rdf="http://www.w3.org/1999/02/22-rdf-syntax-ns#"
   xmlns:svg="http://www.w3.org/2000/svg"
   xmlns="http://www.w3.org/2000/svg"
   xmlns:sodipodi="http://sodipodi.sourceforge.net/DTD/sodipodi-0.dtd"
   xmlns:inkscape="http://www.inkscape.org/namespaces/inkscape"
   version="1.1"
   id="svg8"
   sodipodi:docname="fu21510.svg"
   width="23"
   height="23"
   inkscape:version="0.92.4 (5da689c313, 2019-01-14)">
  <metadata
     id="metadata14">
    <rdf:RDF>
      <cc:Work
         rdf:about="">
        <dc:format>image/svg+xml</dc:format>
        <dc:type
           rdf:resource="http://purl.org/dc/dcmitype/StillImage" />
        <dc:title></dc:title>
      </cc:Work>
    </rdf:RDF>
  </metadata>
  <defs
     id="defs12" />
  <sodipodi:namedview
     pagecolor="#ffffff"
     bordercolor="#666666"
     borderopacity="1"
     objecttolerance="10"
     gridtolerance="10"
     guidetolerance="10"
     inkscape:pageopacity="0"
     inkscape:pageshadow="2"
     inkscape:window-width="1920"
     inkscape:window-height="995"
     id="namedview10"
     showgrid="false"
     fit-margin-top="0"
     fit-margin-left="0"
     fit-margin-right="0"
     fit-margin-bottom="0"
     inkscape:zoom="2.36"
     inkscape:cx="-31.50161"
     inkscape:cy="-43.044"
     inkscape:window-x="0"
     inkscape:window-y="0"
     inkscape:window-maximized="1"
     inkscape:current-layer="svg8" />
  <path
     d="m 8.9525,13.9345 q -0.287,0.211 -0.791,0.334 -0.504,0.117 -1.031,0.117 -2.678,0 -2.678,-2.912 0,-1.377 0.68,-2.115 0.685,-0.744 1.957,-0.744 0.791,0 1.728,0.181 v 1.536 h -0.322 l -0.252,-0.973 q -0.486,-0.276 -1.166,-0.276 -1.57,0 -1.57,2.391 0,1.242 0.475,1.775 0.48,0.528 1.482,0.528 0.855,0 1.488,-0.194 z"
     id="path2"
     inkscape:connector-curvature="0" />
  <path
     d="m 14.3575,11.4855 q 0,2.9 -2.577,2.9 -1.242,0 -1.875,-0.744 -0.632,-0.744 -0.632,-2.156 0,-1.395 0.632,-2.133 0.633,-0.738 1.922,-0.738 1.254,0 1.89,0.726 0.64,0.721 0.64,2.145 z m -1.05,0 q 0,-1.266 -0.372,-1.834 -0.369,-0.569 -1.155,-0.569 -0.767,0 -1.113,0.545 -0.34,0.545 -0.34,1.858 0,1.33 0.346,1.887 0.351,0.55 1.107,0.55 0.774,0 1.149,-0.574 0.378,-0.574 0.378,-1.863 z"
     id="path4"
     inkscape:connector-curvature="0" />
  <path
     d="m 18.5475,12.7215 q 0,0.82 -0.52,1.242 -0.51,0.422 -1.53,0.422 -0.41,0 -0.9,-0.088 -0.5,-0.082 -0.78,-0.187 v -1.354 h 0.27 l 0.28,0.768 q 0.44,0.398 1.15,0.398 1.13,0 1.13,-0.972 0,-0.715 -0.89,-1.02 l -0.53,-0.17 q -0.59,-0.193 -0.86,-0.392 -0.27,-0.2 -0.41,-0.487 -0.15,-0.293 -0.15,-0.703 0,-0.726 0.49,-1.142 0.5,-0.422 1.34,-0.422 0.61,0 1.52,0.181 v 1.202 h -0.28 l -0.25,-0.639 q -0.31,-0.276 -0.97,-0.276 -0.48,0 -0.73,0.235 -0.25,0.234 -0.25,0.633 0,0.334 0.23,0.562 0.22,0.229 0.68,0.381 0.86,0.293 1.13,0.428 0.26,0.135 0.44,0.334 0.19,0.193 0.29,0.445 0.1,0.252 0.1,0.621 z"
     id="path6"
     inkscape:connector-curvature="0" />
</svg>
