<?xml version="1.0" encoding="UTF-8" standalone="no"?>
<svg
   xmlns:dc="http://purl.org/dc/elements/1.1/"
   xmlns:cc="http://creativecommons.org/ns#"
   xmlns:rdf="http://www.w3.org/1999/02/22-rdf-syntax-ns#"
   xmlns:svg="http://www.w3.org/2000/svg"
   xmlns="http://www.w3.org/2000/svg"
   xmlns:sodipodi="http://sodipodi.sourceforge.net/DTD/sodipodi-0.dtd"
   xmlns:inkscape="http://www.inkscape.org/namespaces/inkscape"
   version="1.1"
   id="svg84"
   sodipodi:docname="fu21515.svg"
   width="23"
   height="23"
   inkscape:version="0.92.4 (5da689c313, 2019-01-14)">
  <metadata
     id="metadata90">
    <rdf:RDF>
      <cc:Work
         rdf:about="">
        <dc:format>image/svg+xml</dc:format>
        <dc:type
           rdf:resource="http://purl.org/dc/dcmitype/StillImage" />
        <dc:title></dc:title>
      </cc:Work>
    </rdf:RDF>
  </metadata>
  <defs
     id="defs88" />
  <sodipodi:namedview
     pagecolor="#ffffff"
     bordercolor="#666666"
     borderopacity="1"
     objecttolerance="10"
     gridtolerance="10"
     guidetolerance="10"
     inkscape:pageopacity="0"
     inkscape:pageshadow="2"
     inkscape:window-width="1920"
     inkscape:window-height="995"
     id="namedview86"
     showgrid="false"
     fit-margin-top="0"
     fit-margin-left="0"
     fit-margin-right="0"
     fit-margin-bottom="0"
     inkscape:zoom="2.36"
     inkscape:cx="-31.21241"
     inkscape:cy="-40.45"
     inkscape:window-x="0"
     inkscape:window-y="0"
     inkscape:window-maximized="1"
     inkscape:current-layer="svg84" />
  <path
     d="m 3.9031,15.7215 q -0.563,0 -0.844,-0.334 -0.276,-0.334 -0.276,-0.937 v -3.862 H 2.0629 v -0.263 l 0.7322,-0.229 0.592,-1.248 h 0.369 v 1.248 h 1.26 v 0.492 h -1.26 v 3.756 q 0,0.381 0.17,0.574 0.176,0.194 0.457,0.194 0.34,0 0.826,-0.094 v 0.381 q -0.205,0.141 -0.592,0.228 -0.386,0.094 -0.714,0.094 z"
     id="path76"
     inkscape:connector-curvature="0" />
  <path
     d="m 7.4981,9.9735 q 0.903,0 1.325,0.369 0.427,0.369 0.427,1.131 v 3.721 l 0.686,0.146 v 0.264 h -1.512 l -0.111,-0.551 q -0.668,0.668 -1.705,0.668 -1.412,0 -1.412,-1.64 0,-0.551 0.211,-0.909 0.216,-0.363 0.685,-0.55 0.469,-0.194 1.359,-0.211 l 0.827,-0.024 v -0.861 q 0,-0.568 -0.211,-0.838 -0.205,-0.27 -0.639,-0.27 -0.586,0 -1.072,0.276 l -0.199,0.685 h -0.329 v -1.201 q 0.95,-0.205 1.67,-0.205 z m 0.78,2.824 -0.768,0.024 q -0.785,0.029 -1.066,0.304 -0.276,0.276 -0.276,0.92 0,1.032 0.838,1.032 0.399,0 0.686,-0.088 0.293,-0.094 0.586,-0.235 z"
     id="path78"
     inkscape:connector-curvature="0" />
  <path
     d="m 11.4971,10.5415 q 0.45,-0.257 0.96,-0.421 0.51,-0.17 0.85,-0.17 0.71,0 1.07,0.416 0.37,0.416 0.37,1.207 v 3.621 l 0.67,0.146 v 0.264 h -2.38 v -0.264 l 0.73,-0.146 v -3.516 q 0,-0.486 -0.24,-0.762 -0.23,-0.281 -0.73,-0.281 -0.53,0 -1.29,0.17 v 4.389 l 0.74,0.146 v 0.264 h -2.378 v -0.264 l 0.663,-0.146 v -4.688 l -0.663,-0.146 v -0.264 h 1.568 z"
     id="path80"
     inkscape:connector-curvature="0" />
  <path
     d="m 17.0071,9.6635 q 0,0.609 -0.04,0.878 0.42,-0.24 0.95,-0.416 0.54,-0.175 0.91,-0.175 0.71,0 1.08,0.416 0.36,0.416 0.36,1.207 v 3.621 l 0.67,0.146 v 0.264 h -2.37 v -0.264 l 0.73,-0.146 v -3.551 q 0,-1.008 -0.97,-1.008 -0.56,0 -1.32,0.17 v 4.389 l 0.74,0.146 v 0.264 h -2.41 v -0.264 l 0.69,-0.146 v -7.512 l -0.82,-0.141 v -0.263 h 1.8 z"
     id="path82"
     inkscape:connector-curvature="0" />
</svg>
