<?xml version="1.0" encoding="UTF-8" standalone="no"?>
<svg
   xmlns:dc="http://purl.org/dc/elements/1.1/"
   xmlns:cc="http://creativecommons.org/ns#"
   xmlns:rdf="http://www.w3.org/1999/02/22-rdf-syntax-ns#"
   xmlns:svg="http://www.w3.org/2000/svg"
   xmlns="http://www.w3.org/2000/svg"
   xmlns:sodipodi="http://sodipodi.sourceforge.net/DTD/sodipodi-0.dtd"
   xmlns:inkscape="http://www.inkscape.org/namespaces/inkscape"
   version="1.1"
   id="svg34"
   sodipodi:docname="fu21503.svg"
   width="23"
   height="23"
   inkscape:version="0.92.4 (5da689c313, 2019-01-14)">
  <metadata
     id="metadata40">
    <rdf:RDF>
      <cc:Work
         rdf:about="">
        <dc:format>image/svg+xml</dc:format>
        <dc:type
           rdf:resource="http://purl.org/dc/dcmitype/StillImage" />
        <dc:title />
      </cc:Work>
    </rdf:RDF>
  </metadata>
  <defs
     id="defs38" />
  <sodipodi:namedview
     pagecolor="#ffffff"
     bordercolor="#666666"
     borderopacity="1"
     objecttolerance="10"
     gridtolerance="10"
     guidetolerance="10"
     inkscape:pageopacity="0"
     inkscape:pageshadow="2"
     inkscape:window-width="1920"
     inkscape:window-height="995"
     id="namedview36"
     showgrid="false"
     fit-margin-top="0"
     fit-margin-left="0"
     fit-margin-right="0"
     fit-margin-bottom="0"
     inkscape:zoom="7.375"
     inkscape:cx="25.595966"
     inkscape:cy="-2.7879661"
     inkscape:window-x="0"
     inkscape:window-y="0"
     inkscape:window-maximized="1"
     inkscape:current-layer="svg34" />
  <path
     d="m 18.281815,15.33999 v 0.29 h -2.77 v -0.29 l 0.81,-0.15 -1.41,-2.171 -1.65,2.181 0.84,0.14 v 0.29 h -2.2 v -0.29 l 0.71,-0.11 2.01,-2.653 -1.77,-2.6109995 -0.72,-0.163 v -0.293 h 2.77 v 0.293 l -0.82,0.176 1.18,1.7579995 1.36,-1.7709995 -0.84,-0.163 v -0.293 h 2.2 v 0.293 l -0.71,0.137 -1.71,2.2259995 2.01,3.034 z"
     id="path28"
     inkscape:connector-curvature="0" />
  <path
     d="m 6.287818,16.81999 h -0.697 l -1.933,-5.396 h -1.094 v -0.521 h 1.764 l 1.68,4.797 2.9429994,-9.5169995 h 0.586 z"
     id="path30"
     inkscape:connector-curvature="0" />
  <path
     style="fill:none;stroke:#000000;stroke-width:1px"
     d="m 8.9818174,6.6799905 11.4499976,0.1"
     id="path32"
     inkscape:connector-curvature="0" />
</svg>
