<?xml version="1.0" encoding="UTF-8" standalone="no"?>
<svg
   xmlns:dc="http://purl.org/dc/elements/1.1/"
   xmlns:cc="http://creativecommons.org/ns#"
   xmlns:rdf="http://www.w3.org/1999/02/22-rdf-syntax-ns#"
   xmlns:svg="http://www.w3.org/2000/svg"
   xmlns="http://www.w3.org/2000/svg"
   xmlns:sodipodi="http://sodipodi.sourceforge.net/DTD/sodipodi-0.dtd"
   xmlns:inkscape="http://www.inkscape.org/namespaces/inkscape"
   version="1.1"
   id="svg14"
   sodipodi:docname="mi22004.svg"
   width="23"
   height="23"
   inkscape:version="0.92.4 (5da689c313, 2019-01-14)">
  <metadata
     id="metadata20">
    <rdf:RDF>
      <cc:Work
         rdf:about="">
        <dc:format>image/svg+xml</dc:format>
        <dc:type
           rdf:resource="http://purl.org/dc/dcmitype/StillImage" />
        <dc:title></dc:title>
      </cc:Work>
    </rdf:RDF>
  </metadata>
  <defs
     id="defs18" />
  <sodipodi:namedview
     pagecolor="#ffffff"
     bordercolor="#666666"
     borderopacity="1"
     objecttolerance="10"
     gridtolerance="10"
     guidetolerance="10"
     inkscape:pageopacity="0"
     inkscape:pageshadow="2"
     inkscape:window-width="1920"
     inkscape:window-height="995"
     id="namedview16"
     showgrid="false"
     fit-margin-top="0"
     fit-margin-left="0"
     fit-margin-right="0"
     fit-margin-bottom="0"
     inkscape:zoom="2.36"
     inkscape:cx="-31.83861"
     inkscape:cy="-37.54"
     inkscape:window-x="0"
     inkscape:window-y="0"
     inkscape:window-maximized="1"
     inkscape:current-layer="svg14" />
  <path
     d="m 15.0665,6.738 q -0.649,0.571 -0.93,1.055 -0.281,0.484 -0.281,1.297 0,0.711 0.711,1.914 0.711,1.195 0.711,1.945 0,0.852 -0.531,1.602 -0.532,0.753 -1.625,1.443 l -1.719,1.08 -2.86,-1.23 -0.593,0.45 -0.227,-0.18 1.617,-1.31 3.055,1.31 q 0.586,-0.34 0.992,-0.94 0.414,-0.592 0.414,-1.717 0,-0.726 -0.711,-1.867 -0.711,-1.148 -0.711,-1.984 0,-0.547 0.352,-1.055 0.351,-0.516 1.187,-1.156 -0.742,-0.258 -1.953,-0.258 -1.562,0 -2.523,0.32 -0.961,0.32 -0.961,0.656 0,0.336 0.68,0.688 0.679,0.344 1.101,0.766 0.422,0.421 0.422,0.96 0,0.454 -0.203,0.704 -0.195,0.25 -0.945,0.711 l -0.071,-0.258 q 0.321,-0.172 0.446,-0.289 0.132,-0.125 0.132,-0.305 0,-0.406 -0.671,-0.883 -0.672,-0.484 -1,-0.969 -0.329,-0.484 -0.329,-1 0,-0.945 1.016,-1.625 1.016,-0.687 2.875,-0.687 2.078,0 3.133,0.812 z"
     id="path12"
     inkscape:connector-curvature="0" />
</svg>
