<?xml version="1.0" encoding="UTF-8" standalone="no"?>
<svg
   xmlns:dc="http://purl.org/dc/elements/1.1/"
   xmlns:cc="http://creativecommons.org/ns#"
   xmlns:rdf="http://www.w3.org/1999/02/22-rdf-syntax-ns#"
   xmlns:svg="http://www.w3.org/2000/svg"
   xmlns="http://www.w3.org/2000/svg"
   xmlns:sodipodi="http://sodipodi.sourceforge.net/DTD/sodipodi-0.dtd"
   xmlns:inkscape="http://www.inkscape.org/namespaces/inkscape"
   version="1.1"
   id="svg8"
   sodipodi:docname="op21401.svg"
   width="25"
   height="25"
   inkscape:version="0.92.4 (5da689c313, 2019-01-14)">
  <metadata
     id="metadata14">
    <rdf:RDF>
      <cc:Work
         rdf:about="">
        <dc:format>image/svg+xml</dc:format>
        <dc:type
           rdf:resource="http://purl.org/dc/dcmitype/StillImage" />
        <dc:title />
      </cc:Work>
    </rdf:RDF>
  </metadata>
  <defs
     id="defs12" />
  <sodipodi:namedview
     pagecolor="#ffffff"
     bordercolor="#666666"
     borderopacity="1"
     objecttolerance="10"
     gridtolerance="10"
     guidetolerance="10"
     inkscape:pageopacity="0"
     inkscape:pageshadow="2"
     inkscape:window-width="1920"
     inkscape:window-height="995"
     id="namedview10"
     showgrid="false"
     fit-margin-top="0"
     fit-margin-left="0"
     fit-margin-right="0"
     fit-margin-bottom="0"
     inkscape:zoom="2.36"
     inkscape:cx="-30.67961"
     inkscape:cy="-40.272"
     inkscape:window-x="0"
     inkscape:window-y="0"
     inkscape:window-maximized="1"
     inkscape:current-layer="svg8" />
  <path
     d="m 3.1395,10.9735 q 0.902,0 1.324,0.369 0.428,0.369 0.428,1.131 v 3.721 l 0.685,0.146 v 0.264 h -1.511 l -0.112,-0.551 q -0.668,0.668 -1.705,0.668 -1.412,0 -1.412,-1.64 0,-0.551 0.211,-0.909 0.2167,-0.363 0.685,-0.55 0.469,-0.194 1.36,-0.211 l 0.826,-0.024 v -0.861 q 0,-0.568 -0.211,-0.838 -0.205,-0.27 -0.639,-0.27 -0.586,0 -1.072,0.276 l -0.199,0.685 h -0.328 v -1.201 q 0.949,-0.205 1.67,-0.205 z m 0.779,2.824 -0.768,0.024 q -0.785,0.029 -1.066,0.304 -0.275,0.276 -0.275,0.92 0,1.032 0.838,1.032 0.398,0 0.685,-0.088 0.293,-0.094 0.586,-0.235 z"
     id="path2"
     inkscape:connector-curvature="0" />
  <path
     d="m 12.7635,15.7455 h 2.58 v 0.937 h -2.58 q -1.01,0 -1.88,-0.504 -0.869,-0.504 -1.373,-1.371 -0.504,-0.867 -0.504,-1.887 0,-1.019 0.504,-1.886 0.504,-0.868 1.373,-1.372 0.87,-0.503 1.88,-0.503 h 2.58 v 0.937 h -2.58 q -0.76,0 -1.41,0.381 -0.65,0.381 -1.029,1.031 -0.258,0.445 -0.34,0.938 h 5.359 v 0.949 h -5.359 q 0.082,0.492 0.34,0.937 0.379,0.651 1.029,1.032 0.65,0.381 1.41,0.381 z"
     id="path4"
     inkscape:connector-curvature="0" />
  <path
     d="m 23.1035,13.6985 q 0,-1.078 -0.37,-1.606 -0.38,-0.527 -1.16,-0.527 -0.35,0 -0.69,0.064 -0.34,0.059 -0.49,0.129 v 4.366 q 0.49,0.093 1.18,0.093 0.81,0 1.17,-0.633 0.36,-0.632 0.36,-1.886 z m -3.68,-5.016 -0.81,-0.14 v -0.264 h 1.78 v 1.969 q 0,0.316 -0.04,1.16 0.59,-0.457 1.48,-0.457 1.13,0 1.72,0.685 0.61,0.68 0.61,2.063 0,1.482 -0.66,2.256 -0.66,0.767 -1.91,0.767 -0.5,0 -1.11,-0.111 -0.61,-0.111 -1.06,-0.293 z"
     id="path6"
     inkscape:connector-curvature="0" />
</svg>
