<?xml version="1.0" encoding="UTF-8" standalone="no"?>
<svg
   xmlns:dc="http://purl.org/dc/elements/1.1/"
   xmlns:cc="http://creativecommons.org/ns#"
   xmlns:rdf="http://www.w3.org/1999/02/22-rdf-syntax-ns#"
   xmlns:svg="http://www.w3.org/2000/svg"
   xmlns="http://www.w3.org/2000/svg"
   xmlns:sodipodi="http://sodipodi.sourceforge.net/DTD/sodipodi-0.dtd"
   xmlns:inkscape="http://www.inkscape.org/namespaces/inkscape"
   version="1.1"
   id="svg264"
   sodipodi:docname="op21417.svg"
   width="25"
   height="25"
   inkscape:version="0.92.4 (5da689c313, 2019-01-14)">
  <metadata
     id="metadata270">
    <rdf:RDF>
      <cc:Work
         rdf:about="">
        <dc:format>image/svg+xml</dc:format>
        <dc:type
           rdf:resource="http://purl.org/dc/dcmitype/StillImage" />
        <dc:title></dc:title>
      </cc:Work>
    </rdf:RDF>
  </metadata>
  <defs
     id="defs268" />
  <sodipodi:namedview
     pagecolor="#ffffff"
     bordercolor="#666666"
     borderopacity="1"
     objecttolerance="10"
     gridtolerance="10"
     guidetolerance="10"
     inkscape:pageopacity="0"
     inkscape:pageshadow="2"
     inkscape:window-width="1920"
     inkscape:window-height="995"
     id="namedview266"
     showgrid="false"
     fit-margin-top="0"
     fit-margin-left="0"
     fit-margin-right="0"
     fit-margin-bottom="0"
     inkscape:zoom="2.36"
     inkscape:cx="-31.50161"
     inkscape:cy="-38.07"
     inkscape:window-x="0"
     inkscape:window-y="0"
     inkscape:window-maximized="1"
     inkscape:current-layer="svg264" />
  <path
     d="m 18.2775,7.402 q -0.72,0 -1.03,0.141 -0.31,0.141 -0.39,0.437 -0.08,0.297 -0.08,1.165 v 8.742 h -0.29 L 9.4335,9.238 h -0.032 v 6.438 q 0,0.871 0.078,1.161 0.086,0.3 0.391,0.44 0.313,0.14 1.031,0.14 v 0.29 h -3.586 v -0.29 q 0.727,0 1.032,-0.14 0.312,-0.14 0.39,-0.44 0.086,-0.29 0.086,-1.161 V 8.504 Q 8.3155,7.863 7.8625,7.637 7.4175,7.402 6.7225,7.402 V 7.113 h 2.882 l 6.553,8.055 h 0.04 V 9.145 q 0,-0.868 -0.08,-1.165 -0.08,-0.296 -0.4,-0.437 -0.308,-0.141 -1.027,-0.141 V 7.113 h 3.587 z m -2.19,9.475 V 15.613 L 9.4335,7.434 h -1.282 q 0.422,0.218 0.782,0.656 z"
     id="path262"
     inkscape:connector-curvature="0" />
</svg>
