<?xml version="1.0" encoding="UTF-8" standalone="no"?>
<svg
   xmlns:dc="http://purl.org/dc/elements/1.1/"
   xmlns:cc="http://creativecommons.org/ns#"
   xmlns:rdf="http://www.w3.org/1999/02/22-rdf-syntax-ns#"
   xmlns:svg="http://www.w3.org/2000/svg"
   xmlns="http://www.w3.org/2000/svg"
   xmlns:sodipodi="http://sodipodi.sourceforge.net/DTD/sodipodi-0.dtd"
   xmlns:inkscape="http://www.inkscape.org/namespaces/inkscape"
   version="1.1"
   id="svg180"
   sodipodi:docname="un21209.svg"
   width="30"
   height="30"
   inkscape:version="0.92.4 (5da689c313, 2019-01-14)">
  <metadata
     id="metadata186">
    <rdf:RDF>
      <cc:Work
         rdf:about="">
        <dc:format>image/svg+xml</dc:format>
        <dc:type
           rdf:resource="http://purl.org/dc/dcmitype/StillImage" />
        <dc:title></dc:title>
      </cc:Work>
    </rdf:RDF>
  </metadata>
  <defs
     id="defs184" />
  <sodipodi:namedview
     pagecolor="#ffffff"
     bordercolor="#666666"
     borderopacity="1"
     objecttolerance="10"
     gridtolerance="10"
     guidetolerance="10"
     inkscape:pageopacity="0"
     inkscape:pageshadow="2"
     inkscape:window-width="1920"
     inkscape:window-height="995"
     id="namedview182"
     showgrid="false"
     fit-margin-top="0"
     fit-margin-left="0"
     fit-margin-right="0"
     fit-margin-bottom="0"
     inkscape:zoom="2.36"
     inkscape:cx="-31.17131"
     inkscape:cy="-37.85"
     inkscape:window-x="0"
     inkscape:window-y="0"
     inkscape:window-maximized="1"
     inkscape:current-layer="svg180" />
  <path
     d="m 8.49565,19.92125 0.883,0.2 -0.063,0.35 h -2.227 l 0.227,-1.22 q -1.321,1.38 -2.414,1.38 -0.946,0 -1.524,-0.69 -0.5703,-0.7 -0.5703,-1.916 0,-1.367 0.5933,-2.554 0.602,-1.196 1.602,-1.86 1,-0.672 2.172,-0.672 0.946,0 1.782,0.328 l 0.351,-0.265 h 0.422 z m -0.227,-5.99 q -0.305,-0.211 -0.57,-0.289 -0.266,-0.086 -0.657,-0.086 -0.781,0 -1.437,0.594 -0.649,0.586 -1.024,1.586 -0.375,1 -0.375,2.086 0,0.839 0.344,1.339 0.344,0.5 0.938,0.5 0.882,0 1.929,-1.09 z"
     id="path174"
     inkscape:connector-curvature="0" />
  <path
     d="m 12.92265,17.29925 v -1.196 h 4.16 v 1.196 z"
     id="path176"
     inkscape:connector-curvature="0" />
  <path
     d="m 22.06265,9.90825 -1.04,-0.188 0.06,-0.3515 h 2.34 l -0.57,3.4455 q -0.14,0.891 -0.31,1.508 0.63,-0.641 1.28,-1.016 0.67,-0.375 1.22,-0.375 0.98,0 1.56,0.704 0.59,0.695 0.59,1.906 0,1.344 -0.59,2.539 -0.57,1.191 -1.6,1.871 -1.02,0.68 -2.23,0.68 -0.69,0 -1.35,-0.18 -0.66,-0.18 -1.15,-0.48 z m -0.45,9.723 q 0.45,0.38 1.26,0.38 0.8,0 1.47,-0.59 0.68,-0.59 1.06,-1.583 0.39,-1 0.39,-2.094 0,-0.875 -0.37,-1.352 -0.36,-0.484 -0.97,-0.484 -0.46,0 -1,0.305 -0.53,0.304 -1.01,0.781 z"
     id="path178"
     inkscape:connector-curvature="0" />
</svg>
