<?xml version="1.0" encoding="utf-8"?>
<!-- Generator: Adobe Illustrator 12.0.1, SVG Export Plug-In . SVG Version: 6.00 Build 51448)  -->
<!DOCTYPE svg PUBLIC "-//W3C//DTD SVG 1.1//EN" "http://www.w3.org/Graphics/SVG/1.1/DTD/svg11.dtd" [
	<!ENTITY ns_svg "http://www.w3.org/2000/svg">
	<!ENTITY ns_xlink "http://www.w3.org/1999/xlink">
]>
<svg  version="1.1" id="Layer_1" xmlns="&ns_svg;" xmlns:xlink="&ns_xlink;" width="100.001" height="100.001"
	 viewBox="0 0 100.001 100.001" overflow="visible" enable-background="new 0 0 100.001 100.001" xml:space="preserve">
<g>
	<g>
		<linearGradient id="XMLID_8_" gradientUnits="userSpaceOnUse" x1="50.3799" y1="-1.6919" x2="50.3799" y2="90.8452">
			<stop  offset="0.5" style="stop-color:#FFFFFF"/>
			<stop  offset="0.6879" style="stop-color:#FDFDFD"/>
			<stop  offset="0.7943" style="stop-color:#F4F4F4"/>
			<stop  offset="0.8803" style="stop-color:#E7E7E7"/>
			<stop  offset="0.9549" style="stop-color:#D3D3D3"/>
			<stop  offset="1" style="stop-color:#C3C3C3"/>
		</linearGradient>
		<path fill="url(#XMLID_8_)" d="M19.748,16.727c-2.953,0-5.355,2.403-5.355,5.356V84.59c0,2.954,2.402,5.357,5.355,5.357h61.263
			c1.431,0,2.776-0.558,3.788-1.569s1.569-2.357,1.569-3.788V22.083c0-2.954-2.403-5.356-5.356-5.356H19.748z"/>
		<path fill="#7F7F7F" d="M81.011,15.882H19.748c-3.419,0-6.201,2.782-6.201,6.202v62.506c0,3.421,2.782,6.202,6.201,6.202h61.263
			c1.657,0,3.214-0.645,4.385-1.816c1.171-1.171,1.816-2.729,1.816-4.386V22.084c0-1.657-0.645-3.215-1.816-4.386
			C84.225,16.527,82.667,15.882,81.011,15.882L81.011,15.882z M15.237,22.084c0-2.492,2.019-4.511,4.51-4.511h61.263
			c2.491,0,4.51,2.019,4.51,4.511v62.506l0,0l0,0c0,2.491-2.019,4.512-4.51,4.512H19.748c-2.491,0-4.51-2.021-4.51-4.512V22.084
			L15.237,22.084L15.237,22.084z"/>
	</g>
	<path fill="#7F7F7F" stroke="#7F7F7F" stroke-width="1.5" d="M78.428,22.823c0,1.105-0.896,2-2,2h-5c-1.104,0-2-0.895-2-2v-10
		c0-1.104,0.896-2,2-2h5c1.104,0,2,0.896,2,2V22.823z"/>
	<path fill="#7F7F7F" stroke="#7F7F7F" stroke-width="1.5" d="M35.928,22.823c0,1.105-0.896,2-2,2h-5c-1.104,0-2-0.895-2-2v-10
		c0-1.104,0.896-2,2-2h5c1.104,0,2,0.896,2,2V22.823z"/>
	<g>
		<linearGradient id="XMLID_9_" gradientUnits="userSpaceOnUse" x1="50.3799" y1="11.9199" x2="50.3799" y2="36.5519">
			<stop  offset="0" style="stop-color:#CEFBAD"/>
			<stop  offset="0.1446" style="stop-color:#C0F69E"/>
			<stop  offset="0.4208" style="stop-color:#9AE878"/>
			<stop  offset="0.4762" style="stop-color:#92E56F"/>
			<stop  offset="1" style="stop-color:#44C956"/>
		</linearGradient>
		<path fill="url(#XMLID_9_)" d="M19.748,16.823c-2.9,0-5.26,2.36-5.26,5.261v14.229h71.783V22.083c0-2.901-2.36-5.261-5.261-5.261
			H19.748z"/>
		<path fill="#4DA004" d="M81.011,16.073H19.748c-3.314,0-6.01,2.697-6.01,6.011v13.479v1.5h1.5h70.283h1.5v-1.5V22.084
			c0-1.606-0.625-3.115-1.76-4.251C84.125,16.698,82.617,16.073,81.011,16.073L81.011,16.073z M15.237,22.084
			c0-2.492,2.019-4.511,4.51-4.511h61.263c2.491,0,4.51,2.019,4.51,4.511v13.479l0,0l0,0H15.237V22.084L15.237,22.084L15.237,22.084
			z"/>
	</g>
	<g opacity="0.3">
		<path fill="#FFFFFF" d="M81.011,17.573H19.748c-2.491,0-4.51,2.02-4.51,4.511v2c0-2.491,2.019-4.511,4.51-4.511h61.263
			c2.491,0,4.511,2.02,4.511,4.511v-2C85.521,19.592,83.502,17.573,81.011,17.573z"/>
	</g>
	<linearGradient id="XMLID_10_" gradientUnits="userSpaceOnUse" x1="29.9277" y1="10.5728" x2="29.9277" y2="24.0728">
		<stop  offset="0" style="stop-color:#ECEBEA"/>
		<stop  offset="0.281" style="stop-color:#FFFFFF"/>
		<stop  offset="0.4445" style="stop-color:#F0EFEE"/>
		<stop  offset="1" style="stop-color:#BEBAB6"/>
	</linearGradient>
	<path fill="url(#XMLID_10_)" stroke="#7F7F7F" stroke-width="1.5" d="M34.428,22.823c0,1.105-0.896,2-2,2h-5c-1.104,0-2-0.895-2-2
		v-10c0-1.104,0.896-2,2-2h5c1.104,0,2,0.896,2,2V22.823z"/>
	<linearGradient id="XMLID_11_" gradientUnits="userSpaceOnUse" x1="72.4277" y1="10.5728" x2="72.4277" y2="24.0728">
		<stop  offset="0" style="stop-color:#ECEBEA"/>
		<stop  offset="0.281" style="stop-color:#FFFFFF"/>
		<stop  offset="0.4445" style="stop-color:#F0EFEE"/>
		<stop  offset="1" style="stop-color:#BEBAB6"/>
	</linearGradient>
	<path fill="url(#XMLID_11_)" stroke="#7F7F7F" stroke-width="1.5" d="M76.928,22.823c0,1.105-0.896,2-2,2h-5c-1.104,0-2-0.895-2-2
		v-10c0-1.104,0.896-2,2-2h5c1.104,0,2,0.896,2,2V22.823z"/>
	<g>
		<g>
			<path fill="#89A6C6" d="M51.252,55.58h-1.5H39.614h-1.5v1.5v10.14v1.5h1.5h10.139h1.5v-1.5V57.08V55.58L51.252,55.58z
				 M39.614,57.08h10.139v10.14l0,0l0,0H39.614V57.08L39.614,57.08L39.614,57.08z"/>
		</g>
		<g>
			<path fill="#89A6C6" d="M39.711,55.58h-1.5h-10.14h-1.5v1.5v10.14v1.5h1.5h10.14h1.5v-1.5V57.08V55.58L39.711,55.58z
				 M28.072,57.08h10.14v10.14l0,0l0,0h-10.14V57.08L28.072,57.08L28.072,57.08z"/>
		</g>
		<g>
			<path fill="#89A6C6" d="M62.794,55.58h-1.5h-10.14h-1.5v1.5v10.14v1.5h1.5h10.14h1.5v-1.5V57.08V55.58L62.794,55.58z
				 M51.155,57.08h10.14v10.14l0,0l0,0h-10.14V57.08L51.155,57.08L51.155,57.08z"/>
		</g>
		<g>
			<path fill="#89A6C6" d="M74.335,55.58h-1.5h-10.14h-1.5v1.5v10.14v1.5h1.5h10.14h1.5v-1.5V57.08V55.58L74.335,55.58z
				 M62.695,57.08h10.14v10.14l0,0l0,0h-10.14V57.08L62.695,57.08L62.695,57.08z"/>
		</g>
	</g>
	<g>
		<g>
			<path fill="#89A6C6" d="M62.794,43.972h-1.5h-10.14h-1.5v1.5V55.61v1.5h1.5h10.14h1.5v-1.5V45.472V43.972L62.794,43.972z
				 M51.155,45.472h10.14V55.61l0,0l0,0h-10.14V45.472L51.155,45.472L51.155,45.472z"/>
		</g>
		<g>
			<path fill="#89A6C6" d="M74.335,43.972h-1.5h-10.14h-1.5v1.5V55.61v1.5h1.5h10.14h1.5v-1.5V45.472V43.972L74.335,43.972z
				 M62.695,45.472h10.14V55.61l0,0l0,0h-10.14V45.472L62.695,45.472L62.695,45.472z"/>
		</g>
	</g>
	<g>
		<g>
			<path fill="#89A6C6" d="M51.252,67.168h-1.5H39.614h-1.5v1.5v10.141v1.5h1.5h10.139h1.5v-1.5V68.668V67.168L51.252,67.168z
				 M39.614,68.668h10.139v10.141l0,0l0,0H39.614V68.668L39.614,68.668L39.614,68.668z"/>
		</g>
		<g>
			<path fill="#89A6C6" d="M39.711,67.168h-1.5h-10.14h-1.5v1.5v10.141v1.5h1.5h10.14h1.5v-1.5V68.668V67.168L39.711,67.168z
				 M28.072,68.668h10.14v10.141l0,0l0,0h-10.14V68.668L28.072,68.668L28.072,68.668z"/>
		</g>
		<g>
			<path fill="#89A6C6" d="M62.794,67.168h-1.5h-10.14h-1.5v1.5v10.141v1.5h1.5h10.14h1.5v-1.5V68.668V67.168L62.794,67.168z
				 M51.155,68.668h10.14v10.141l0,0l0,0h-10.14V68.668L51.155,68.668L51.155,68.668z"/>
		</g>
	</g>
	<g>
		<linearGradient id="XMLID_12_" gradientUnits="userSpaceOnUse" x1="44.8965" y1="50.7715" x2="62.1104" y2="67.9851">
			<stop  offset="0" style="stop-color:#FDF58D"/>
			<stop  offset="0.324" style="stop-color:#F9CE6B"/>
			<stop  offset="1" style="stop-color:#F08026"/>
		</linearGradient>
		<rect x="49.926" y="55.801" fill="url(#XMLID_12_)" width="12.52" height="12.52"/>
		<path fill="#C15E27" d="M63.194,55.052h-1.5H50.676h-1.5v1.5V67.57v1.5h1.5h11.019h1.5v-1.5V56.552V55.052L63.194,55.052z
			 M50.676,56.552h11.019V67.57l0,0l0,0H50.676V56.552L50.676,56.552L50.676,56.552z"/>
	</g>
</g>
</svg>
