<?xml version="1.0" encoding="utf-8"?>
<!-- Generator: Adobe Illustrator 12.0.1, SVG Export Plug-In . SVG Version: 6.00 Build 51448)  -->
<!DOCTYPE svg PUBLIC "-//W3C//DTD SVG 1.1//EN" "http://www.w3.org/Graphics/SVG/1.1/DTD/svg11.dtd" [
	<!ENTITY ns_svg "http://www.w3.org/2000/svg">
	<!ENTITY ns_xlink "http://www.w3.org/1999/xlink">
]>
<svg  version="1.1" id="Layer_1" xmlns="&ns_svg;" xmlns:xlink="&ns_xlink;" width="100" height="100" viewBox="0 0 100 100"
	 overflow="visible" enable-background="new 0 0 100 100" xml:space="preserve">
<g>
	<g>
		<radialGradient id="XMLID_4_" cx="48.7671" cy="53.8662" r="52.4911" gradientUnits="userSpaceOnUse">
			<stop  offset="0" style="stop-color:#FFF254"/>
			<stop  offset="1" style="stop-color:#F9BC21"/>
		</radialGradient>
		<path fill="url(#XMLID_4_)" d="M7.647,49.999c0,23.354,19,42.354,42.353,42.354c23.354,0,42.354-19,42.354-42.354
			c0-23.354-19-42.353-42.354-42.353C26.646,7.646,7.647,26.646,7.647,49.999z"/>
		<g>
			<path fill="#E2963B" d="M50,6.857c-5.824,0-11.474,1.141-16.794,3.391c-5.137,2.173-9.751,5.283-13.713,9.245
				c-3.961,3.961-7.072,8.575-9.245,13.712c-2.25,5.32-3.391,10.97-3.391,16.794s1.141,11.474,3.391,16.794
				c2.173,5.138,5.283,9.751,9.245,13.713s8.576,7.073,13.713,9.246c5.32,2.25,10.97,3.392,16.794,3.392
				c5.824,0,11.474-1.142,16.794-3.392c5.137-2.173,9.751-5.284,13.713-9.246s7.072-8.575,9.245-13.713
				c2.25-5.32,3.391-10.97,3.391-16.794s-1.142-11.474-3.391-16.794c-2.173-5.137-5.284-9.751-9.245-13.712
				c-3.962-3.962-8.576-7.072-13.713-9.245C61.474,7.998,55.824,6.857,50,6.857L50,6.857z M8.436,49.999
				C8.436,27.044,27.045,8.436,50,8.436c22.955,0,41.564,18.608,41.564,41.563l0,0l0,0c0,22.955-18.609,41.565-41.564,41.565
				C27.045,91.564,8.436,72.954,8.436,49.999L8.436,49.999L8.436,49.999z"/>
		</g>
	</g>
	<path fill="none" stroke="#727272" stroke-width="0.5471" d="M27.784,69.133"/>
	<path fill="none" stroke="#666666" stroke-width="1.6413" d="M60.609,27.827"/>
	<defs>
		<filter id="Adobe_OpacityMaskFilter" filterUnits="userSpaceOnUse" x="11.273" y="8.527" width="76.947" height="76.947">
			<feColorMatrix  type="matrix" values="1 0 0 0 0  0 1 0 0 0  0 0 1 0 0  0 0 0 1 0"/>
		</filter>
	</defs>
	<mask maskUnits="userSpaceOnUse" x="11.273" y="8.527" width="76.947" height="76.947" id="XMLID_5_">
		<g filter="url(#Adobe_OpacityMaskFilter)">
			<radialGradient id="XMLID_6_" cx="48.7476" cy="25.4082" r="59.7208" gradientUnits="userSpaceOnUse">
				<stop  offset="0" style="stop-color:#FFFFFF"/>
				<stop  offset="1" style="stop-color:#000000"/>
			</radialGradient>
			<circle opacity="0.7" fill="url(#XMLID_6_)" cx="49.532" cy="43.073" r="44.755"/>
		</g>
	</mask>
	<circle opacity="0.57" mask="url(#XMLID_5_)" fill="#FFFFFF" cx="49.747" cy="46.999" r="38.474"/>
	<path fill="#8A5C29" stroke="#8A5C29" stroke-width="2.1883" stroke-linecap="round" stroke-linejoin="round" d="M55.399,35.293
		c0,0,12.378-19.61,25.143-1.747l1.633-1.977c-12.764-17.863-25.142,1.748-25.142,1.748L55.399,35.293z"/>
	<path fill="#3F3F3F" stroke="#3F3F3F" stroke-width="2.1883" stroke-linecap="round" stroke-linejoin="round" d="M54.968,34.288
		c0,0,12.378-19.611,25.143-1.748l1.633-1.975c-12.764-17.864-25.142,1.748-25.142,1.748L54.968,34.288z"/>
	<path fill="#8A5C29" stroke="#8A5C29" stroke-width="2.1883" stroke-linecap="round" stroke-linejoin="round" d="M43.652,35.058
		c0,0-11.287-20.259-25.01-3.123l-1.523-2.062c13.724-17.137,25.01,3.122,25.01,3.122L43.652,35.058z"/>
	<path fill="#3F3F3F" stroke="#3F3F3F" stroke-width="2.1883" stroke-linecap="round" stroke-linejoin="round" d="M44.199,34.11
		c0,0-11.285-20.259-25.009-3.123l-1.522-2.061c13.723-17.137,25.009,3.122,25.009,3.122L44.199,34.11z"/>
	<g>
		<path fill="#FFFFFF" d="M22.947,56.974l0.056,0.802c0.939,13.632,12.387,24.31,26.062,24.31c13.673,0,25.12-10.678,26.061-24.31
			l0.056-0.802H22.947z"/>
		<path fill="#606060" d="M75.984,56.225h-1.607H23.751h-1.607l0.111,1.603c0.467,6.78,3.462,13.082,8.434,17.743
			c4.996,4.685,11.522,7.265,18.375,7.265s13.378-2.58,18.374-7.265c4.971-4.661,7.967-10.962,8.435-17.743L75.984,56.225
			L75.984,56.225z M23.751,57.725h50.626l0,0l0,0c-0.911,13.19-11.891,23.61-25.313,23.61C35.641,81.335,24.66,70.915,23.751,57.725
			L23.751,57.725L23.751,57.725z"/>
	</g>
	<path opacity="0.57" fill="none" stroke="#58B8F9" stroke-width="1.8637" stroke-linecap="round" d="M28.199,69.008
		c1.242,1.241,14.301,0.308,14.301,0.308l3.932-3.932l1.619,3.47h4.472c0,0,15.997,1.717,18.196,0"/>
	<path fill="none" stroke="#3F3F3F" stroke-width="4" stroke-linecap="round" stroke-linejoin="round" d="M24.285,42.813
		c0,0,0.025-7.514,6.892-7.514c7.087,0,6.608,7.264,6.608,7.264"/>
	<path fill="none" stroke="#3F3F3F" stroke-width="4" stroke-linecap="round" stroke-linejoin="round" d="M60.006,43.813
		c0,0,0.025-7.514,6.893-7.514c7.086,0,6.607,7.264,6.607,7.264"/>
</g>
</svg>
