<?xml version="1.0" encoding="utf-8"?>
<!-- Generator: Adobe Illustrator 12.0.1, SVG Export Plug-In . SVG Version: 6.00 Build 51448)  -->
<!DOCTYPE svg PUBLIC "-//W3C//DTD SVG 1.1//EN" "http://www.w3.org/Graphics/SVG/1.1/DTD/svg11.dtd" [
	<!ENTITY ns_svg "http://www.w3.org/2000/svg">
	<!ENTITY ns_xlink "http://www.w3.org/1999/xlink">
]>
<svg  version="1.1" id="Layer_1" xmlns="&ns_svg;" xmlns:xlink="&ns_xlink;" width="106" height="106" viewBox="0 0 106 106"
	 overflow="visible" enable-background="new 0 0 106 106" xml:space="preserve">
<g>
	<g>
		<g>
			<g>
				<path fill="#82ABE0" d="M14.737,57.126c0,20.661,16.809,37.471,37.47,37.471c20.66,0,37.47-16.81,37.47-37.471
					s-16.81-37.471-37.47-37.471C31.545,19.655,14.737,36.465,14.737,57.126z"/>
				<g>
					<path fill="#BD0000" d="M52.207,19.156c-5.127,0-10.1,1.004-14.781,2.984c-4.522,1.912-8.583,4.649-12.069,8.136
						c-3.487,3.487-6.225,7.548-8.137,12.069c-1.98,4.682-2.984,9.654-2.984,14.78s1.004,10.099,2.984,14.78
						c1.913,4.522,4.65,8.582,8.137,12.069c3.486,3.486,7.547,6.225,12.069,8.138c4.681,1.979,9.654,2.984,14.781,2.984
						c5.125,0,10.098-1.005,14.779-2.984c4.521-1.913,8.582-4.651,12.068-8.138c3.488-3.487,6.225-7.547,8.138-12.069
						c1.979-4.682,2.983-9.655,2.983-14.78c0-5.126-1.004-10.099-2.983-14.78c-1.913-4.521-4.649-8.582-8.138-12.069
						c-3.486-3.486-7.547-6.224-12.068-8.136C62.304,20.16,57.332,19.156,52.207,19.156L52.207,19.156z M15.236,57.126
						c0-20.42,16.551-36.97,36.971-36.97c20.418,0,36.969,16.55,36.969,36.97l0,0l0,0c0,20.418-16.551,36.972-36.969,36.972
						C31.787,94.098,15.236,77.544,15.236,57.126L15.236,57.126L15.236,57.126z"/>
				</g>
			</g>
		</g>
		<g>
			<linearGradient id="XMLID_8_" gradientUnits="userSpaceOnUse" x1="31.0791" y1="26.5151" x2="79.0057" y2="95.9543">
				<stop  offset="0" style="stop-color:#FF5F06"/>
				<stop  offset="0.1061" style="stop-color:#F95507"/>
				<stop  offset="1" style="stop-color:#CB0212"/>
			</linearGradient>
			<circle fill="url(#XMLID_8_)" cx="52.207" cy="57.126" r="36.97"/>
		</g>
		<g>
			<g>
				<path fill="#FFFFFF" d="M52.207,22.156c-19.314,0-34.971,15.655-34.971,34.97s15.656,34.972,34.971,34.972
					c19.313,0,34.969-15.657,34.969-34.972S71.52,22.156,52.207,22.156L52.207,22.156z M52.207,90.098
					c-8.808,0-17.086-3.431-23.314-9.657c-6.227-6.228-9.656-14.507-9.656-23.314c0-8.807,3.429-17.087,9.656-23.313
					c6.227-6.228,14.507-9.656,23.314-9.656c8.807,0,17.086,3.429,23.313,9.656c6.228,6.227,9.655,14.507,9.655,23.313
					c0,8.808-3.428,17.087-9.655,23.314C69.292,86.667,61.013,90.098,52.207,90.098L52.207,90.098z"/>
			</g>
		</g>
	</g>
	<linearGradient id="XMLID_11_" gradientUnits="userSpaceOnUse" x1="83.2964" y1="34.0508" x2="62.1711" y2="50.2601">
		<stop  offset="0" style="stop-color:#FF5F06"/>
		<stop  offset="0.1061" style="stop-color:#F95507"/>
		<stop  offset="1" style="stop-color:#CB0212"/>
	</linearGradient>
	<path fill="url(#XMLID_11_)" d="M56.173,81.128c-0.4,0.184-1.083,0.336-1.521,0.339l-6.83,0.02c-0.438,0-3.173-0.11-4.424-0.665
		c-2.152-1.605-2.922-2.571-4.221-4.275c-1.825-2.784-2.836-6.063-2.836-6.063c-0.151-0.41-0.282-1.104-0.282-1.543l-0.049-24.593
		c-0.002-0.438,0.251-1.05,0.563-1.359l0.314-0.317c0.311-0.31,0.924-0.563,1.362-0.563h1.311c0.438,0,1.05,0.253,1.36,0.563
		l0.019,0.021c0.31,0.309,0.563,0.923,0.563,1.362l0.021,14.138c0,0.436,0.193,0.947,0.425,1.138
		c0.232,0.188,0.611,0.153,0.842-0.078c0.231-0.231,0.421-0.78,0.421-1.217V38.819c0-0.438,0.197-1.094,0.441-1.46l0.291-0.434
		c0.245-0.365,0.803-0.663,1.24-0.663h1.396c0.437,0,1.02,0.28,1.295,0.623l0.329,0.414c0.275,0.344,0.5,0.982,0.5,1.42
		l0.022,16.439c0,0.438,0.188,0.929,0.419,1.088c0.229,0.157,0.609,0.101,0.84-0.13c0.23-0.231,0.421-0.778,0.421-1.218v-18.08
		c0-0.439,0.228-1.072,0.506-1.411l0.344-0.421c0.278-0.339,0.861-0.616,1.302-0.616h1.194c0.439,0,0.985,0.305,1.215,0.678
		l0.491,0.803c0.231,0.371,0.421,1.037,0.421,1.476l0.04,17.624c0,0.438,0.19,0.987,0.421,1.217c0.233,0.23,0.609,0.23,0.842,0
		c0.229-0.229,0.419-0.778,0.419-1.217V39.816c0-0.438,0.182-1.107,0.403-1.482l0.425-0.72c0.222-0.378,0.765-0.686,1.201-0.686
		h1.044c0.44,0,1.052,0.252,1.36,0.563l0.485,0.483c0.31,0.309,0.564,0.921,0.564,1.359v26.286c0,0.438,0.216,0.856,0.484,0.928
		c0.268,0.074,0.728-0.131,1.021-0.457l5.506-6.049c0.294-0.326,0.892-0.555,1.325-0.509l1.164,0.125
		c0.438,0.046,1.046,0.337,1.354,0.646l0.932,0.932c0.313,0.312,0.466,0.91,0.342,1.33l-0.152,0.525
		c-0.122,0.424-0.468,1.031-0.764,1.351L64.22,75.329c-0.298,0.32-0.8,0.835-1.117,1.135l-2.368,2.272
		c-0.318,0.305-0.902,0.704-1.301,0.889L56.173,81.128z"/>
	<path fill="#FFFFFF" d="M57.236,80.33c-0.4,0.186-1.082,0.337-1.522,0.339l-6.826,0.02c-0.439,0-3.174-0.109-4.425-0.663
		c-2.153-1.606-2.924-2.574-4.221-4.277c-1.826-2.783-2.837-6.061-2.837-6.061c-0.152-0.411-0.282-1.105-0.282-1.544l-0.049-24.593
		c-0.002-0.439,0.251-1.051,0.562-1.359l0.315-0.317c0.312-0.31,0.926-0.563,1.361-0.563h1.313c0.438,0,1.048,0.253,1.359,0.563
		l0.02,0.021c0.31,0.31,0.563,0.922,0.563,1.361l0.021,14.138c0,0.437,0.193,0.948,0.423,1.139c0.232,0.187,0.612,0.153,0.842-0.077
		c0.231-0.233,0.422-0.78,0.422-1.218V38.023c0-0.438,0.199-1.097,0.441-1.46l0.292-0.436c0.243-0.365,0.802-0.663,1.24-0.663h1.394
		c0.438,0,1.022,0.281,1.296,0.624l0.329,0.414c0.275,0.343,0.5,0.982,0.5,1.421l0.023,16.438c0,0.438,0.188,0.927,0.418,1.088
		c0.23,0.157,0.61,0.101,0.841-0.131s0.42-0.778,0.42-1.216v-18.08c0-0.439,0.228-1.073,0.505-1.413l0.345-0.422
		c0.28-0.337,0.862-0.614,1.302-0.614h1.196c0.438,0,0.983,0.306,1.213,0.677l0.494,0.804c0.23,0.371,0.419,1.037,0.419,1.474
		l0.04,17.625c0,0.439,0.189,0.987,0.419,1.217c0.233,0.23,0.612,0.23,0.842,0c0.23-0.229,0.42-0.777,0.42-1.217V39.02
		c0-0.438,0.182-1.106,0.405-1.48l0.423-0.723c0.222-0.377,0.765-0.687,1.201-0.687h1.046c0.438,0,1.051,0.253,1.36,0.565
		l0.484,0.483c0.309,0.309,0.563,0.922,0.563,1.359v26.285c0,0.438,0.217,0.856,0.485,0.93c0.268,0.073,0.725-0.131,1.021-0.458
		l5.504-6.051c0.295-0.326,0.894-0.555,1.327-0.506l1.164,0.122c0.436,0.048,1.046,0.339,1.354,0.648l0.934,0.933
		c0.31,0.31,0.463,0.908,0.338,1.33l-0.15,0.523c-0.123,0.423-0.468,1.031-0.764,1.354L65.283,74.532
		c-0.297,0.32-0.8,0.833-1.117,1.135l-2.37,2.273c-0.315,0.305-0.898,0.702-1.298,0.889L57.236,80.33z"/>
	<linearGradient id="XMLID_12_" gradientUnits="userSpaceOnUse" x1="50.7222" y1="57.7197" x2="32.2719" y2="67.5483">
		<stop  offset="0" style="stop-color:#FF5F06"/>
		<stop  offset="0.1061" style="stop-color:#F95507"/>
		<stop  offset="1" style="stop-color:#CB0212"/>
	</linearGradient>
	<defs>
		<filter id="Adobe_OpacityMaskFilter" filterUnits="userSpaceOnUse" x="16.271" y="20.155" width="73.94" height="73.942">
			<feColorMatrix  type="matrix" values="1 0 0 0 0  0 1 0 0 0  0 0 1 0 0  0 0 0 1 0"/>
		</filter>
	</defs>
	<mask maskUnits="userSpaceOnUse" x="16.271" y="20.155" width="73.94" height="73.942" id="XMLID_13_">
		<g filter="url(#Adobe_OpacityMaskFilter)">
			<linearGradient id="XMLID_14_" gradientUnits="userSpaceOnUse" x1="34.5313" y1="22.7012" x2="54.1883" y2="51.1522">
				<stop  offset="0" style="stop-color:#FFFFFF"/>
				<stop  offset="1" style="stop-color:#000000"/>
			</linearGradient>
			<path fill="url(#XMLID_14_)" d="M10.371,62.541c0,0,35.952,14.484,80.052-33.754C74.644,18.441,54.34,17.536,54.34,17.536
				l-18.955,2.54L17.967,36.445L10.371,62.541z"/>
		</g>
	</mask>
	<g opacity="0.5" mask="url(#XMLID_13_)">
		<path fill="#FFFFFF" d="M16.733,55.762L16.733,55.762c-0.365,9.752,3.09,19.063,9.728,26.216
			c6.638,7.152,15.665,11.292,25.417,11.656c9.75,0.365,19.061-3.09,26.213-9.728c7.154-6.638,11.295-15.664,11.658-25.416
			c0.752-20.131-15.012-37.121-35.143-37.874C34.475,19.864,17.484,35.631,16.733,55.762z"/>
		<g>
			<path fill="#FFCDCC" d="M53.218,20.155c-19.781,0.002-36.177,15.657-36.921,35.59c-0.018,0.479-0.026,0.955-0.026,1.43
				c0.012,19.771,15.663,36.151,35.59,36.896c0.471,0.018,0.938,0.027,1.406,0.027c19.779,0,36.173-15.657,36.918-35.591
				c0.018-0.478,0.026-0.954,0.025-1.429c-0.012-19.771-15.664-36.151-35.588-36.896C54.152,20.164,53.685,20.155,53.218,20.155
				L53.218,20.155z M53.267,93.226c-0.454,0-0.916-0.009-1.373-0.026c-9.637-0.36-18.556-4.45-25.115-11.518
				c-6.558-7.068-9.971-16.268-9.611-25.903c0.351-9.397,4.277-18.159,11.055-24.674c6.76-6.498,15.637-10.077,24.996-10.077
				c0.443,0,0.906,0.008,1.373,0.025c0,0,0,0-0.002,0c9.636,0.359,18.554,4.45,25.112,11.519c6.558,7.068,9.972,16.267,9.612,25.903
				c-0.352,9.396-4.277,18.159-11.055,24.675C71.5,89.647,62.625,93.226,53.267,93.226L53.267,93.226z"/>
		</g>
	</g>
</g>
</svg>
