<svg height="32" viewBox="0 0 32 32" width="32" xmlns="http://www.w3.org/2000/svg"><path d="m2 5h28v22h-28z" fill="#fafafa"/><g fill="#1e8bcd"><path d="m1.99998 23.99997h4v4h-4z"/><path d="m2.00001 19.99997h4v4h-4z"/><path d="m2.00001 15.99997h4v4h-4z"/><path d="m2.00001 7.99997h4v4h-4z"/><path d="m5.99998 23.99997h4v4h-4z"/><path d="m6.00001 15.99997h4v4h-4z"/><path d="m6.00004 11.99997h4v4h-4z"/><path d="m6.00004 3.99997h4v4h-4z"/><path d="m10.00001 19.99997h4v4h-4z"/><path d="m10.00001 7.99997h4v4h-4z"/><path d="m10.00004 3.99997h4v4h-4z"/><path d="m13.99998 23.99997h4v4h-4z"/><path d="m14.00001 15.99997h4v4h-4z"/><path d="m14.00004 11.99997h4v4h-4z"/><path d="m17.99995 23.99997h4v4h-4z"/><path d="m17.99998 19.99997h4v4h-4z"/><path d="m18.00001 3.99997h4v4h-4z"/><path d="m21.99998 19.99997h4v4h-4z"/><path d="m21.99998 15.99997h4v4h-4z"/><path d="m18.00001 11.99997h4v4h-4z"/><path d="m21.99998 7.99997h4v4h-4z"/><path d="m22.00001 3.99997h4v4h-4z"/><path d="m25.99995 23.99997h4v4h-4z"/><path d="m25.99998 15.99997h4v4h-4z"/><path d="m25.99998 7.99997h4v4h-4z"/></g><path d="m2 4c-.554 0-1 .446-1 1v22c0 .554.446 1 1 1h28c.554 0 1-.446 1-1v-22c0-.554-.446-1-1-1zm0 1h28v22h-28z" fill="#3a3a38"/></svg>