<svg viewBox="0 0 24 24" xmlns="http://www.w3.org/2000/svg"><path d="m18.99407 2c.557728 0 1.005859.448131 1.005859 1.0058594v17.9882816c0 .557728-.448131 1.005859-1.005859 1.005859h-13.988211c-.557728 0-1.005859-.448131-1.005859-1.005859v-17.9882816c0-.5577284.448131-1.0058594 1.005859-1.0058594zm.0059 1h-13.99997v18h13.999929z" fill="#3a3a38"/><path d="m18.999929 3v18h-13.999929v-18z" fill="#fafafa"/><g fill="#1e8bcd" transform="scale(-1 1)"><rect height="1" ry=".5" width="7" x="-17.999929" y="6"/><rect height="1" ry=".5" width="7" x="-17.999929" y="12"/><rect height="1" ry=".5" width="7" x="-17.999929" y="18"/><rect height="1" ry=".5" width="7" x="-17.999929" y="15"/><rect height="1" ry=".5" width="7" x="-17.999929" y="9"/><rect height="1" ry=".5" width="4" x="-9.999929" y="6"/><rect height="1" ry=".5" width="4" x="-9.999929" y="12"/><rect height="1" ry=".5" width="4" x="-9.999929" y="18"/><rect height="1" ry=".5" width="4" x="-9.999929" y="15"/><rect height="1" ry=".5" width="4" x="-9.999929" y="9"/></g></svg>