<svg viewBox="0 0 24 24" xmlns="http://www.w3.org/2000/svg"><path d="m4.0058594 2c-.5577284 0-1.0058594.448131-1.0058594 1.0058594v17.9882816c0 .557728.448131 1.005859 1.0058594 1.005859h15.9882816c.557728 0 1.005859-.448131 1.005859-1.005859v-17.9882816c0-.5577284-.448131-1.0058594-1.005859-1.0058594zm-.0058594 1h16v18h-16z" fill="#3a3a38"/><path d="m4 3h16v18h-16z" fill="#fafafa"/><path d="m9.5 9c-1.932997 0-3.5 1.567-3.5 3.5s1.567003 3.5 3.5 3.5c.756948 0 1.458668-.247785 2.03125-.65625l-.6875-.75c-.387715.247154-.84988.40625-1.34375.40625-1.380712 0-2.5-1.1193-2.5-2.5s1.119288-2.5 2.5-2.5c.49387 0 .956035.159096 1.34375.40625l.6875-.75c-.572582-.4084646-1.274302-.65625-2.03125-.65625zm3.5 0v1 2 .5h2.25c.690356 0 1.25.5596 1.25 1.25s-.559644 1.25-1.25 1.25-1.25-.5596-1.25-1.25h-1c0 1.2426 1.007359 2.25 2.25 2.25s2.25-1.0074 2.25-2.25-1.007359-2.25-2.25-2.25h-1.25v-1.5h3.25v-1z" fill="#1e8bcd"/></svg>