<svg viewBox="0 0 24 24" xmlns="http://www.w3.org/2000/svg"><path d="m22 5.0058594c0-.5577284-.448131-1.0058594-1.005859-1.0058594h-17.988282c-.557728 0-1.005859.448131-1.005859 1.0058594v13.9882816c0 .557728.448131 1.005859 1.005859 1.005859h17.988282c.557728 0 1.005859-.448131 1.005859-1.005859zm-1-.0058594v14h-18v-14z" fill="#3a3a38"/><path d="m21 5v14h-18v-14z" fill="#fafafa"/><path d="m8.65625 8-2.671875 7h.998047l.638672-1.794922h3.154297l.638671 1.794922h.984376l-2.667969-7zm4.34375 0v1 2 .5h2.25c.690356 0 1.25.5596 1.25 1.25s-.559644 1.25-1.25 1.25-1.25-.5596-1.25-1.25h-1c0 1.2426 1.007359 2.25 2.25 2.25s2.25-1.0074 2.25-2.25-1.007359-2.25-2.25-2.25h-1.25v-1.5h3.25v-1zm-3.808594.9335938 1.289063 3.4824222h-2.574219z" fill="#1e8bcd"/></svg>