<svg viewBox="0 0 24 24" xmlns="http://www.w3.org/2000/svg"><path d="m4 4c-.554 0-1 .446-1 1v11.09375c.1575702-.057859.3251094-.09375.5-.09375s.3424298.035891.5.09375v-11.09375h13.09375c-.057859-.1575702-.09375-.3251095-.09375-.5s.035891-.3424298.09375-.5zm16 3.90625v11.09375h-13.09375c.0578587.15757.09375.325109.09375.5s-.0358913.34243-.09375.5h13.09375c.554 0 1-.446 1-1v-11.09375c-.15757.0578587-.325109.09375-.5.09375s-.34243-.0358913-.5-.09375z" fill="#3a3a38"/><path d="m4 5v11.09375c.5755473.211337 1 .767438 1 1.40625v.5h.5c.6388124 0 1.194913.424453 1.40625 1h13.09375v-11.09375c-.575547-.211337-1-.7674377-1-1.40625v-.5h-.5c-.638812 0-1.194913-.4244527-1.40625-1z" fill="#fafafa"/><g fill="#1e8bcd"><path d="m20.5 2c-.277 0-.5.223-.5.5v1.5h-1.5c-.277 0-.5.223-.5.5s.223.5.5.5h1.5v1.5c0 .277.223.5.5.5s.5-.223.5-.5v-1.5h1.5c.277 0 .5-.223.5-.5s-.223-.5-.5-.5h-1.5v-1.5c0-.277-.223-.5-.5-.5z"/><path d="m3.5 17c-.277 0-.5.223-.5.5v1.5h-1.5c-.277 0-.50000002.223-.50000002.5s.22300002.5.50000002.5h1.5v1.5c0 .277.223.5.5.5s.5-.223.5-.5v-1.5h1.5c.277 0 .5-.223.5-.5s-.223-.5-.5-.5h-1.5v-1.5c0-.277-.223-.5-.5-.5z"/></g></svg>