<svg height="43" viewBox="0 0 43 43" width="43" xmlns="http://www.w3.org/2000/svg"><path d="m2 1v1 1h1v-1-1zm2 0v1h2v-1zm3 0v1h2v-1zm3 0v1h2v-1zm3 0v1h2v-1zm3 0v1h2v-1zm3 0v1h2v-1zm3 0v1 1h1v-1h1v-1zm3 0v1h2v-1zm3 0v1h2v-1zm3 0v1h2v-1zm3 0v1h2v-1zm3 0v1h2v-1zm3 0v1h2v1h1v-1-1h-1zm-38 3v2h1v-2zm20 0v2h1v-2zm20 0v2h1v-2zm-40 3v2h1v-2zm20 0v2h1v-2zm20 0v2h1v-2zm-40 3v2h1v-2zm20 0v2h1v-2zm20 0v2h1v-2zm-40 3v2h1v-2zm20 0v2h1v-2zm20 0v2h1v-2zm-40 3v2h1v-2zm20 0v2h1v-2zm20 0v2h1v-2zm-40 3v2 1 2h1v-2h1v-1h-1v-2zm20 0v2h1v-2zm1 2v1h2v-1zm0 1h-1v2h1zm-1 0v-1h-2v1zm20-3v2h1v-2zm0 2h-1v1h1zm0 1v2h1v-2zm-37-1v1h2v-1zm3 0v1h2v-1zm3 0v1h2v-1zm3 0v1h2v-1zm3 0v1h2v-1zm9 0v1h2v-1zm3 0v1h2v-1zm3 0v1h2v-1zm3 0v1h2v-1zm3 0v1h2v-1zm-36 4v2h1v-2zm20 0v2h1v-2zm20 0v2h1v-2zm-40 3v2h1v-2zm20 0v2h1v-2zm20 0v2h1v-2zm-40 3v2h1v-2zm20 0v2h1v-2zm20 0v2h1v-2zm-40 3v2h1v-2zm20 0v2h1v-2zm20 0v2h1v-2zm-40 3v2h1v-2zm20 0v2h1v-2zm20 0v2h1v-2zm-40 3v2h1v-2zm20 0v2h2v-1h-1v-1zm20 0v1h-2v1h2 1v-2zm-38 1v1h2v-1zm3 0v1h2v-1zm3 0v1h2v-1zm3 0v1h2v-1zm3 0v1h2v-1zm3 0v1h2v-1zm6 0v1h2v-1zm3 0v1h2v-1zm3 0v1h2v-1zm3 0v1h2v-1zm3 0v1h2v-1z" fill="#d3d3d3"/></svg>