<svg viewBox="0 0 24 24" xmlns="http://www.w3.org/2000/svg"><g fill="#3a3a38"><rect height="1" ry=".5" width="14.999998" x="2" y="2"/><rect height="1" ry=".392136" width="15.000005" x="2" y="10"/><rect height="1" ry=".436441" width="15.000001" x="2" y="18"/><rect height="1" ry=".5" width="8.999999" x="8" y="21"/><rect height="1" ry=".5" width="8.999999" x="8" y="13"/><rect height="1" ry=".5" width="9.000002" x="8" y="5"/></g><g fill="#1e8bcd" transform="matrix(-1 0 0 1 24 0)"><path d="m4 12h1v4h-1z"/><path d="m4 10h1v1h-1z"/><path d="m2 12h1v4h-1z"/><path d="m2 10h1v1h-1z"/><path d="m4 4h1v4h-1z"/><path d="m4 2h1v1h-1z"/><path d="m4 20h1v4h-1z"/><path d="m4 18h1v1h-1z"/><path d="m2 20h1v4h-1z"/><path d="m2 18h1v1h-1z"/><path d="m0 20h1v4h-1z"/><path d="m0 18h1v1h-1z"/></g></svg>