<svg viewBox="0 0 16 16" xmlns="http://www.w3.org/2000/svg">

/&amp;amp;amp;gt;<path d="m14.966797 0c.267428-.00865083.536251.09516673.728516.28125.192264.18608327.304598.45118214.304687.71875v9c-.000636.3841-.24283.757894-.59375.914062-.35092.156169-.790391.08672-1.076172-.169921l-4.9999999-4.5000004c-.2073594-.1871421-.3300781-.4648198-.3300781-.7441406s.1227187-.5569985.3300781-.7441406l4.9999999-4.50000002c.173545-.1564913.403171-.24794756.636719-.25585938z" fill="#309048"/><path d="m15 .99804688v.00195312 9h-.002v.002l-4.998-4.5000469v-.00195-.00195l4.998047-4.50000622a.99928822.99928822 0 0 0 .002 0zm-.002 9.00390612c-.000003 0 .002-.002.002-.002-.0045.007-.01707.0096 0 .002z" fill="#a1ddaa"/><path d="m.75 7 3.75 3.75 3.75-3.75.75.75-3.75 3.75 3.75 3.75-.75.75-3.75-3.75-3.75 3.75-.75-.75 3.75-3.75-3.75-3.75z" fill="#ed3d3b"/></svg>