<svg height="19" viewBox="0 0 19 19" width="19" xmlns="http://www.w3.org/2000/svg"><path d="m0 0h19v19h-19z" fill="#fafafa"/><g fill="#3a3a38"><g transform="matrix(0 1 -1 0 18.978516 -.021484)"><path d="m4 11v.951172a6.5 6.5 0 0 0 5.5 3.048828 6.5 6.5 0 0 0 5.5-3.042969v-.957031h-.607422a5.5 5.5 0 0 1 -4.892578 3 5.5 5.5 0 0 1 -4.8984375-3z"/><path d="m4 7.957031v-.951172a6.5 6.5 0 0 1 5.5-3.048828 6.5 6.5 0 0 1 5.5 3.042969v.957031h-.607422a5.5 5.5 0 0 0 -4.892578-3 5.5 5.5 0 0 0 -4.8984375 3z"/></g><path d="m7 9h5v1h-5z"/></g></svg>