<svg viewBox="0 0 16 16" xmlns="http://www.w3.org/2000/svg"><path d="m5.5 3.5000537 5-3v11.0000003l-5 4z" fill="#1e8bcd" fill-rule="evenodd" opacity=".6"/><path d="m5.5 3.500054 5-2.99999999v10.99999999l-5 4z" fill="none" stroke="#1e8bcd" stroke-linecap="round" stroke-linejoin="round"/><g fill="#fb983b"><rect height="1" ry=".5" width="4" x="12" y="10"/><rect height="1" ry=".5" width="4" x="12" y="6"/><rect height="1" ry=".5" width="4" y="10"/><rect height="1" ry=".5" width="4" y="6"/></g><g fill="none" stroke="#fb983b" stroke-linecap="round"><path d="m12.50594 13.5 3.006758 1.997714"/><path d="m.50593976 1.4983228 3.00675804 1.997714"/><path d="m12.50594 3.4960368 3.006758-1.997714"/></g><path d="m3.5332379 12.996094a.50005.50005 0 0 1 .271484.919922l-3.00781196 1.998046a.50005.50005 0 1 1 -.552734-.832031l3.00585896-1.998047a.50005.50005 0 0 1 .283203-.08789z" fill="#fb983b" fill-rule="evenodd"/></svg>