<svg height="16" viewBox="0 0 16 16" width="16" xmlns="http://www.w3.org/2000/svg">

/&amp;amp;gt;<path d="m7.5 2c-2.4852814 0-4.5 2.014719-4.5 4.5 0 .947442.294876 1.82371.7949219 2.548828.5401802.829385 1.020413 1.646199 1.2050781 2.451172h5c.184665-.804973.664898-1.621787 1.205078-2.451172.500046-.725118.794922-1.601386.794922-2.548828 0-2.485281-2.014719-4.5-4.5-4.5zm0 .9804688c1.955518 0 3.519531 1.5640122 3.519531 3.5195312 0 .744052-.228333 1.42264-.621093 1.992188a.98034099.98034099 0 0 0 -.01563.02148c-.402754.618395-.690208 1.311972-.968746 2.00586l-.154296.480472h-.259766-3-.2597656l-.1542969-.480469c-.2785354-.693888-.5659883-1.387465-.96875-2.005859a.98034099.98034099 0 0 0 -.015625-.02148c-.3927638-.569552-.6210937-1.24814-.6210937-1.992192-.0000002-1.955519 1.5640124-3.5195312 3.5195312-3.5195312z" fill="#ed8733"/><path d="m5 11v3h5v-3zm1 1h3v1h-3z" fill="#797774"/><path d="m5 15h5v1h-5z" fill="#797774"/><path d="m7 0v1h1v-1zm-7 6v1h2v-1zm13 0v1h2v-1z" fill="#ed8733"/><path d="m7.302734 3c-1.7937176.0994082-3.2033259 1.5090162-3.302734 3.302734v.457032c.047137.64109.2556063 1.230746.6015625 1.732422.00531.0071.010514.01425.015625.02148.4027617.618394.6902146 1.311971.96875 2.005859l.1542969.480473h3.5195316l.154296-.480469c.278538-.693888.565997-1.387464.96875-2.005859.0051-.0072.01032-.01439.01563-.02148.345948-.501677.55442-1.091336.601558-1.732426v-.457032c-.099408-1.7937178-1.509017-3.2033258-3.302734-3.302734z" fill="#f8db8f"/><path d="m6 12h3v1h-3z" fill="#fafafa"/><g fill="#ed8733"><path d="m4.1464844-.06054688a6.5 6.5 0 0 0 -.8183594.58398438l.8632812 1.4960937.8671876-.5zm6.7070316 0-.9121098 1.58007808.8671878.5.865234-1.49999995a6.5 6.5 0 0 0 -.820312-.58007813z"/><path d="m14.828125 1.9414062-2.597656 1.5.5.8671876 2.597656-1.5zm-12.5585938 7.25-2.2695312 1.3105468v.757813l.171875.298828 2.5976562-1.5z"/><path d="m.171875 1.9414062-.171875.2988282v.7578125l2.2695312 1.3105469.5-.8671876zm12.558594 7.25-.5.8671878 2.597656 1.5.5-.867188z"/></g></svg>