<svg viewBox="0 0 22 10" xmlns="http://www.w3.org/2000/svg"><path d="m14.423828 0c-.234641 0-.423828.18918723-.423828.42382812v.15234376c0 .23464089.189187.42382812.423828.42382812h1.576172v8h-1.5c-.277 0-.5.223-.5.5s.223.5.5.5h4c.277 0 .5-.223.5-.5s-.223-.5-.5-.5h-1.5v-8h1.576172c.234641 0 .423828-.18918723.423828-.42382812v-.15234376c0-.23464089-.189187-.42382812-.423828-.42382812z" fill="#3a3a38"/><path d="m11 2c.554 0 1 .446 1 1v4c0 .554-.446 1-1 1h-7c-.554 0-1-.446-1-1v-4c0-.554.446-1 1-1zm0 1h-7v4h7z" fill="#3a3a38"/><path d="m-11 3h7v4h-7z" fill="#fafafa" transform="scale(-1 1)"/></svg>