<svg height="90" viewBox="0 0 120 90" width="120" xmlns="http://www.w3.org/2000/svg"><path d="m44 75-6 9v4h44v-2.535156a21 21 0 0 1 -7.107422-10.464844h-13.892578-2zm1.5 2h13.5 2 13.5l4.5 7h-38z" fill="#3a3a38"/><path d="m15 4v58h60.228516a21 21 0 0 1 19.771484-14 21 21 0 0 1 10 2.537109v-46.537109z" fill="#3a3a38"/><path d="m16 5v55.900391h59.628906a21 21 0 0 1 19.371094-12.900391 21 21 0 0 1 9 2.054688v-45.054688z" fill="#fafafa"/><path d="m83.46496 46.296637a14.008686 14.008686 0 0 1 -19.500019-.47473 14.008686 14.008686 0 0 1 -.122211-19.505414 14.008686 14.008686 0 0 1 19.49254-.719037l-9.375576 10.408739z" fill="#0063b1"/><path d="m-87.250887 45.749165a14.008686 14.008686 0 0 1 -3.933441-10.260658 14.008686 14.008686 0 0 1 4.680541-9.942112l9.318576 10.4598z" fill="#309048" transform="scale(-1 1)"/><path d="m15 4h12v58h-12z" fill="#3a3a38"/><path d="m16 5 80.769231-.0000001-5.769231 10.0000001h-75z" fill="#0063b1"/><g fill="#3a3a38"><path d="m34 20h18v2h-18z"/><path d="m34 27h15v2h-15z"/><path d="m34 35h13v2h-13z"/><path d="m34 43h15v2h-15z"/><path d="m34 51h18v2h-18z"/></g><path d="m30 20h2v2h-2z" fill="#fb983b"/><path d="m30 27h2v2h-2z" fill="#fb983b"/><path d="m30 35h2v2h-2z" fill="#fb983b"/><path d="m30 43h2v2h-2z" fill="#fb983b"/><path d="m30 51h2v2h-2z" fill="#fb983b"/><path d="m8 0h104v4h-104z" fill="#3a3a38"/><path d="m45.5 77-4.5 7h38l-4.5-7h-13.5-2z" fill="#fafafa"/><path d="m55 62h10v18h-10z" fill="#3a3a38"/><g transform="translate(1)"><path d="m111 69a17 17 0 0 1 -17 17 17 17 0 0 1 -17-17 17 17 0 0 1 17-17 17 17 0 0 1 17 17z" fill="#fafafa"/><g fill="#1e8bcd"><path d="m75 68h38v2h-38z"/><path d="m94 50a19 19 0 0 0 -19 19 19 19 0 0 0 19 19 19 19 0 0 0 19-19 19 19 0 0 0 -19-19zm0 2a17 17 0 0 1 17 17 17 17 0 0 1 -17 17 17 17 0 0 1 -17-17 17 17 0 0 1 17-17z"/><path d="m96.669922 50.208984a21 35 0 0 1 3.330078 18.791016 21 35 0 0 1 -3.316406 18.789062c.786522-.111465 1.556141-.269899 2.308594-.474609a23 37.214783 0 0 0 3.007812-18.314453 23 37.214783 0 0 0 -3.001953-18.314453c-.758554-.206615-1.534949-.364743-2.328125-.476563z"/><path d="m91.308594 50.212891c-.782333.11121-1.548264.267219-2.296875.470703a23 37.214783 0 0 0 -3.011719 18.316406 23 37.214783 0 0 0 2.994141 18.3125c.747298.203892 1.51199.360733 2.292968.472656a21 35 0 0 1 -3.287109-18.785156 21 35 0 0 1 3.308594-18.787109z"/><path d="m109.3418 57.822266a35 21 0 0 1 -15.351566 2.167968 35 21 0 0 1 -15.33789-2.160156c-.408054.559639-.788726 1.138598-1.134766 1.742188a37.214783 23 0 0 0 16.472656 2.417968 37.214783 23 0 0 0 16.490236-2.419922c-.34731-.605596-.72894-1.186715-1.13867-1.748046z"/><path d="m94 77a37.214783 23 0 0 0 -15.976562 2.259766c.383264.595532.790821 1.173258 1.236328 1.720703a35 21 0 0 1 14.740234-1.980469 35 21 0 0 1 14.74023 1.980469c.44699-.549257.85592-1.128908 1.24024-1.726563a37.214783 23 0 0 0 -15.98047-2.253906z"/></g></g></svg>