<svg viewBox="0 0 32 32" xmlns="http://www.w3.org/2000/svg"><g fill="#3a3a38"><rect height="1" ry=".5" width="14.999998" x="4" y="4"/><rect height="1" ry=".392136" width="15.000005" x="4" y="14"/><rect height="1" ry=".5" width="8.999999" x="10" y="17"/><rect height="1" ry=".5" width="9.000002" x="10" y="7"/><rect height="1" ry=".392136" width="15.000005" x="4" y="24"/><rect height="1" ry=".5" width="8.999999" x="10" y="27"/></g><path d="m.722222 19 5.777778 5.777778 5.777778-5.777778.722222.722222-5.777778 5.777778 5.777778 5.777778-.722222.722222-5.777778-5.777778-5.777778 5.777778-.722222-.722222 5.777778-5.777778-5.777778-5.777778z" fill="#ed3d3b" transform="translate(19)"/><g fill="#1e8bcd"><path d="m27 6a2 2 0 0 1 -2 2 2 2 0 0 1 -2-2 2 2 0 0 1 2-2 2 2 0 0 1 2 2z"/><path d="m27 16a2 2 0 0 1 -2 2 2 2 0 0 1 -2-2 2 2 0 0 1 2-2 2 2 0 0 1 2 2z"/></g></svg>