<svg viewBox="0 0 24 24" xmlns="http://www.w3.org/2000/svg"><path d="m4 20h16v1h-16z" fill="#1e8bcd" stroke-width=".917663" transform="matrix(.75 0 0 1 3 0)"/><path d="m10 13.509167v5.490833h-2v-14h4.026448c.854417 0 1.594913.099825 2.221486.2994731.633694.1996488 1.157025.4819107 1.569994.8467861.412969.3648753.719135.8089216.9185 1.3321389.206485.516333.309726 1.0946259.309726 1.7348787 0 .6333688-.110363 1.2116622-.331087 1.7348792-.213606.523217-.534012.97759-.96122 1.363118-.42009.378645-.943421.674676-1.569994.888094-.619454.206532-1.338589.309799-2.157405.309799zm0-1.487039h2.026448c.49841 0 .939859-.06885 1.324347-.206533.384488-.137689.704895-.330454.96122-.578293.263446-.247839.459251-.54387.587413-.888093.135282-.344222.202925-.7228658.202925-1.1359322 0-.8674393-.252766-1.5386721-.758297-2.0136985-.50553-.4819108-1.278066-.7228661-2.317608-.7228661h-2.026448z" fill="#3a3a38" stroke-width=".753846"/></svg>