<?xml version="1.0" encoding="utf-8"?>
<!-- Generator: Adobe Illustrator 12.0.1, SVG Export Plug-In . SVG Version: 6.00 Build 51448)  -->
<!DOCTYPE svg PUBLIC "-//W3C//DTD SVG 1.1//EN" "http://www.w3.org/Graphics/SVG/1.1/DTD/svg11.dtd" [
	<!ENTITY ns_svg "http://www.w3.org/2000/svg">
	<!ENTITY ns_xlink "http://www.w3.org/1999/xlink">
]>
<svg  version="1.1" id="Layer_1" xmlns="&ns_svg;" xmlns:xlink="&ns_xlink;" width="122.666" height="70.666"
	 viewBox="0 0 122.666 70.666" overflow="visible" enable-background="new 0 0 122.666 70.666" xml:space="preserve">
<g>
	<polygon fill="#0D69C8" points="31.939,7.729 11.403,26.383 11.589,62.937 92.61,62.937 111.263,43.719 111.263,8.107 	"/>
	<linearGradient id="XMLID_10_" gradientUnits="userSpaceOnUse" x1="86.5078" y1="62.2134" x2="10.7635" y2="23.7759">
		<stop  offset="0" style="stop-color:#0D69C8"/>
		<stop  offset="1" style="stop-color:#0683F4"/>
	</linearGradient>
	<polyline fill="url(#XMLID_10_)" points="11.589,26.761 92.61,26.761 92.61,62.937 11.968,62.937 	"/>
	<linearGradient id="XMLID_11_" gradientUnits="userSpaceOnUse" x1="110.373" y1="39.9902" x2="86.6325" y2="27.5547">
		<stop  offset="0" style="stop-color:#0D69C8"/>
		<stop  offset="1" style="stop-color:#0683F4"/>
	</linearGradient>
	<polygon fill="url(#XMLID_11_)" points="111.076,8.107 92.61,26.761 92.61,62.937 111.076,43.341 	"/>
	<linearGradient id="XMLID_12_" gradientUnits="userSpaceOnUse" x1="108.6011" y1="5.1226" x2="48.1182" y2="20.9499">
		<stop  offset="0" style="stop-color:#0683F4"/>
		<stop  offset="1" style="stop-color:#2CA5FF"/>
	</linearGradient>
	<polygon fill="url(#XMLID_12_)" points="31.94,7.729 111.076,8.107 92.61,26.761 11.589,26.761 	"/>
	<polygon opacity="0.1" fill="#FFFFFF" points="12.816,25.535 91.951,25.347 108.909,7.824 111.076,8.107 93.082,26.666 
		11.589,26.761 	"/>
	<polygon opacity="0.1" fill="#FFFFFF" points="91.898,26.348 91.904,62.417 93.317,62.513 93.317,26.337 	"/>
</g>
</svg>
