<?xml version="1.0" encoding="utf-8"?>
<!-- Generator: Adobe Illustrator 12.0.1, SVG Export Plug-In . SVG Version: 6.00 Build 51448)  -->
<!DOCTYPE svg PUBLIC "-//W3C//DTD SVG 1.1//EN" "http://www.w3.org/Graphics/SVG/1.1/DTD/svg11.dtd" [
	<!ENTITY ns_svg "http://www.w3.org/2000/svg">
	<!ENTITY ns_xlink "http://www.w3.org/1999/xlink">
]>
<svg  version="1.1" id="Layer_1" xmlns="&ns_svg;" xmlns:xlink="&ns_xlink;" width="480.684" height="305.687"
	 viewBox="0 0 480.684 305.687" overflow="visible" enable-background="new 0 0 480.684 305.687" xml:space="preserve">
<linearGradient id="XMLID_2_" gradientUnits="userSpaceOnUse" x1="191.7383" y1="103.8418" x2="299.4497" y2="228.5606">
	<stop  offset="0" style="stop-color:#FFED9F"/>
	<stop  offset="1" style="stop-color:#F8D000"/>
</linearGradient>
<path fill="url(#XMLID_2_)" d="M348.409,92.466C216.099,296.734,33.885,279.324,33.885,279.324s250.689,41.781,379.518-156.683
	l47.584,29.015L426.168,17.028L296.182,69.255L348.409,92.466z"/>
<g>
	<circle opacity="0.48" fill="#FFFFFF" cx="337.305" cy="162.28" r="17.224"/>
	<circle fill="#FFFFFF" cx="337.305" cy="162.28" r="8.93"/>
</g>
<g>
	<circle opacity="0.48" fill="#FFFFFF" cx="385.333" cy="99.643" r="20.891"/>
	<circle fill="#FFFFFF" cx="385.333" cy="99.643" r="10.832"/>
</g>
<g>
	<path opacity="0.48" fill="#FFFFFF" d="M290.423,211.718c0,7.354-5.964,13.316-13.319,13.316c-7.354,0-13.318-5.962-13.318-13.316
		c0-7.357,5.964-13.321,13.318-13.321C284.459,198.396,290.423,204.36,290.423,211.718z"/>
	<circle fill="#FFFFFF" cx="277.104" cy="211.718" r="6.906"/>
</g>
<g>
	<circle opacity="0.48" fill="#FFFFFF" cx="217.339" cy="247.517" r="9.362"/>
	<circle fill="#FFFFFF" cx="217.339" cy="247.517" r="4.855"/>
</g>
<g>
	<circle opacity="0.48" fill="#FFFFFF" cx="159.405" cy="267.309" r="6.824"/>
	<circle fill="#FFFFFF" cx="159.406" cy="267.309" r="3.537"/>
</g>
</svg>
