<?xml version="1.0" encoding="utf-8"?>
<!-- Generator: Adobe Illustrator 12.0.1, SVG Export Plug-In . SVG Version: 6.00 Build 51448)  -->
<!DOCTYPE svg PUBLIC "-//W3C//DTD SVG 1.1//EN" "http://www.w3.org/Graphics/SVG/1.1/DTD/svg11.dtd" [
	<!ENTITY ns_svg "http://www.w3.org/2000/svg">
	<!ENTITY ns_xlink "http://www.w3.org/1999/xlink">
]>
<svg  version="1.1" id="Layer_1" xmlns="&ns_svg;" xmlns:xlink="&ns_xlink;" width="263.5" height="237.5"
	 viewBox="0 0 263.5 237.5" overflow="visible" enable-background="new 0 0 263.5 237.5" xml:space="preserve">
<rect x="-31" y="-53" fill="none" width="305" height="301"/>
<rect x="-36" y="-46" fill="none" width="305" height="304"/>
<g>
	<g>
		<g>
			<path fill="#141745" d="M115.751,8.367c0,0,0,14.333,0,15.721c-1.414,0-20.128,0-20.128,0l39.05,44.81l39.04-44.81
				c0,0-18.714,0-20.128,0c0-1.388,0-15.721,0-15.721H115.751z"/>
			<path fill="#141745" d="M154.352,7.6h-1.533h-36.302h-1.533v1.534v14.187H97.308h-3.37l2.215,2.542l37.363,42.875l1.156,1.327
				l1.157-1.327l37.354-42.875l2.215-2.542h-3.371h-17.676V9.134V7.6L154.352,7.6z M116.517,9.134h36.302v14.187l0,0l0,0v1.534
				h1.533l0,0l0,0h17.676l0,0l0,0L134.672,67.73L97.308,24.855l0,0l0,0h17.676l0,0l0,0h1.533V9.134L116.517,9.134L116.517,9.134z"/>
		</g>
		<g>
			
				<linearGradient id="XMLID_6_" gradientUnits="userSpaceOnUse" x1="-1656.5718" y1="-1745.0313" x2="-1600.394" y2="-1745.0313" gradientTransform="matrix(0 -1 1 0 1879.6997 -1590.3018)">
				<stop  offset="0" style="stop-color:#27447D"/>
				<stop  offset="1" style="stop-color:#1C2958"/>
			</linearGradient>
			<path fill="url(#XMLID_6_)" d="M117.477,10.092c0,1.691,0,15.721,0,15.721s-14.721,0-18.061,0
				c2.516,2.887,33.919,38.922,35.257,40.457c1.338-1.535,32.732-37.57,35.248-40.457c-3.34,0-18.062,0-18.062,0s0-14.03,0-15.721
				C150.092,10.092,119.244,10.092,117.477,10.092z"/>
			<g>
				<path fill="#619BD6" d="M152.818,9.134h-36.302v15.721l0,0l0,0H97.308l1.26,1.445l0,0l0.411,0.472l0,0L133.4,66.271l0,0
					l0.012,0.014l0,0l1.26,1.446l1.26-1.446l0,0l0.013-0.014l0,0l34.412-39.498l0,0l0.411-0.471l0,0l1.26-1.446h-19.209V9.134
					L152.818,9.134z M118.434,11.051h32.468v13.804v1.917h1.917h14.995l-33.142,38.039l-33.149-38.039h14.994h1.917v-1.917V11.051
					L118.434,11.051z"/>
			</g>
		</g>
	</g>
	<g>
		<g>
			<path fill="#141745" d="M95.623,213.355c0,0,18.714,0,20.128,0c0,1.389,0,15.72,0,15.72h37.834c0,0,0-14.331,0-15.72
				c1.414,0,20.128,0,20.128,0l-39.04-44.813L95.623,213.355z"/>
			<path fill="#141745" d="M134.672,167.376l-1.156,1.327l-37.363,42.878l-2.215,2.542h3.37h17.676v14.186v1.534h1.533h36.302h1.533
				v-1.534v-14.186h17.676h3.371l-2.215-2.542l-37.354-42.878L134.672,167.376L134.672,167.376z M97.308,212.589l37.364-42.878
				l37.355,42.878l0,0l0,0h-19.209v1.534l0,0l0,0v14.186l0,0l0,0h-36.302v-15.72H97.308L97.308,212.589L97.308,212.589
				L97.308,212.589z"/>
		</g>
		<g>
			
				<linearGradient id="XMLID_7_" gradientUnits="userSpaceOnUse" x1="-1394.751" y1="-1745.0313" x2="-1338.5713" y2="-1745.0313" gradientTransform="matrix(0 1 1 0 1879.6997 1565.9209)">
				<stop  offset="0" style="stop-color:#27447D"/>
				<stop  offset="1" style="stop-color:#1C2958"/>
			</linearGradient>
			<path fill="url(#XMLID_7_)" d="M99.416,211.63c3.34,0,18.061,0,18.061,0s0,14.029,0,15.72c1.768,0,32.615,0,34.383,0
				c0-1.69,0-15.72,0-15.72s14.722,0,18.062,0c-2.515-2.887-33.91-38.924-35.248-40.46
				C133.335,172.705,101.932,208.743,99.416,211.63z"/>
			<g>
				<path fill="#619BD6" d="M134.672,169.711l-37.364,42.878h1.918l0,0h0.626l0,0h16.665v15.72h36.302v-15.72l0,0l0,0h16.666l0,0
					h0.626l0,0h1.917L134.672,169.711L134.672,169.711z M101.522,210.672l33.149-38.042l33.143,38.042h-14.996h-1.917v1.917v13.803
					h-32.468v-13.803v-1.917h-1.917H101.522L101.522,210.672z"/>
			</g>
		</g>
	</g>
	<g>
		<g>
			<path fill="#141745" d="M40.035,99.804c-1.389,0-15.722,0-15.722,0v37.834c0,0,14.333,0,15.722,0c0,1.414,0,20.128,0,20.128
				l44.81-39.049l-44.81-39.042C40.035,79.675,40.035,98.39,40.035,99.804z"/>
			<path fill="#141745" d="M39.267,77.99v3.371v17.676H25.08h-1.534v1.534v36.301v1.534h1.534h14.187v17.675v3.371l2.542-2.215
				l42.876-37.364l1.327-1.156l-1.327-1.157L41.809,80.204L39.267,77.99L39.267,77.99z M40.801,81.361l42.876,37.355l0,0l0,0
				l-42.876,37.364v-19.209H25.08v-36.301l0,0l0,0h14.187l0,0l0,0h1.534V81.361L40.801,81.361L40.801,81.361z"/>
		</g>
		<g>
			
				<linearGradient id="XMLID_8_" gradientUnits="userSpaceOnUse" x1="-3919.6953" y1="-4092.9199" x2="-3863.5156" y2="-4092.9199" gradientTransform="matrix(-1 0 0 -1 -3837.4766 -3974.2002)">
				<stop  offset="0" style="stop-color:#27447D"/>
				<stop  offset="1" style="stop-color:#1C2958"/>
			</linearGradient>
			<path fill="url(#XMLID_8_)" d="M41.761,101.529c0,0-14.031,0-15.722,0c0,1.768,0,32.615,0,34.383c1.69,0,15.722,0,15.722,0
				s0,14.721,0,18.061c2.887-2.516,38.923-33.918,40.458-35.256c-1.535-1.338-37.571-32.734-40.458-35.25
				C41.761,86.808,41.761,101.529,41.761,101.529z"/>
			<g>
				<path fill="#619BD6" d="M40.801,81.361v1.917l0,0v0.626l0,0v16.667l0,0l0,0H25.08v36.301h15.721v16.665l0,0v0.626l0,0v1.918
					l1.445-1.26l0,0l0.472-0.411l0,0l39.5-34.421l0,0l0.014-0.013l0,0l1.445-1.26L40.801,81.361L40.801,81.361z M26.997,102.488
					h13.804h1.917v-1.917V85.575l38.04,33.142l-38.04,33.149v-14.994v-1.917h-1.917H26.997V102.488L26.997,102.488z"/>
			</g>
		</g>
	</g>
	<g>
		<g>
			<path fill="#141745" d="M184.493,118.717l44.809,39.049c0,0,0-18.714,0-20.128c1.389,0,15.722,0,15.722,0V99.804
				c0,0-14.333,0-15.722,0c0-1.414,0-20.129,0-20.129L184.493,118.717z"/>
			<path fill="#141745" d="M230.069,77.99l-2.542,2.214l-42.875,37.355l-1.327,1.157l1.327,1.156l42.875,37.364l2.542,2.215v-3.371
				v-17.675h14.187h1.534v-1.534v-36.301v-1.534h-1.534h-14.187V81.361V77.99L230.069,77.99z M185.66,118.717l42.875-37.355v17.676
				l0,0l0,0v1.534h1.534l0,0l0,0h14.187v36.301l0,0l0,0h-15.721v1.534l0,0l0,0v17.675l0,0l0,0L185.66,118.717L185.66,118.717
				L185.66,118.717z"/>
		</g>
		<g>
			
				<linearGradient id="XMLID_9_" gradientUnits="userSpaceOnUse" x1="868.373" y1="-4092.9199" x2="924.5527" y2="-4092.9199" gradientTransform="matrix(1 0 0 -1 -681.2539 -3974.2002)">
				<stop  offset="0" style="stop-color:#27447D"/>
				<stop  offset="1" style="stop-color:#1C2958"/>
			</linearGradient>
			<path fill="url(#XMLID_9_)" d="M187.119,118.717c1.535,1.338,37.57,32.74,40.457,35.256c0-3.34,0-18.061,0-18.061
				s14.031,0,15.722,0c0-1.768,0-32.615,0-34.383c-1.69,0-15.722,0-15.722,0s0-14.722,0-18.063
				C224.689,85.982,188.654,117.379,187.119,118.717z"/>
			<g>
				<path fill="#619BD6" d="M228.535,81.361l-42.875,37.355l1.445,1.26l0,0l0.015,0.013l0,0l39.498,34.421l0,0l0.472,0.411l0,0
					l1.445,1.26v-19.209l0,0l0,0h15.721v-36.301h-15.721V81.361L228.535,81.361z M188.579,118.717l38.039-33.142v14.996v1.917h1.917
					h13.804v32.467h-13.804h-1.917v1.917v14.994L188.579,118.717L188.579,118.717z"/>
			</g>
		</g>
	</g>
	<g>
		<g>
			<path fill="#141745" d="M94.933,118.721c0,21.91,17.824,39.735,39.734,39.735c21.911,0,39.736-17.825,39.736-39.735
				s-17.825-39.735-39.736-39.735C112.757,78.985,94.933,96.811,94.933,118.721z"/>
			<g>
				<path fill="#141745" d="M134.666,78.218c-5.467,0-10.771,1.071-15.765,3.185c-4.823,2.04-9.155,4.96-12.874,8.68
					c-3.72,3.719-6.64,8.05-8.68,12.873c-2.111,4.995-3.183,10.299-3.183,15.766c0,5.468,1.071,10.772,3.183,15.767
					c2.04,4.822,4.96,9.154,8.68,12.874c3.719,3.719,8.051,6.639,12.874,8.679c4.993,2.113,10.298,3.184,15.765,3.184
					s10.771-1.07,15.767-3.184c4.823-2.04,9.154-4.96,12.874-8.679c3.72-3.72,6.64-8.052,8.68-12.874
					c2.112-4.994,3.184-10.299,3.184-15.767c0-5.467-1.071-10.771-3.184-15.766c-2.04-4.823-4.96-9.154-8.68-12.874
					c-3.72-3.719-8.051-6.639-12.874-8.679C145.438,79.289,140.133,78.218,134.666,78.218L134.666,78.218z M95.699,118.721
					c0-21.521,17.445-38.969,38.967-38.969c21.523,0,38.97,17.448,38.97,38.969l0,0l0,0c0,21.522-17.446,38.97-38.97,38.97
					C113.145,157.69,95.699,140.243,95.699,118.721L95.699,118.721L95.699,118.721z"/>
			</g>
		</g>
		<g>
			<linearGradient id="XMLID_10_" gradientUnits="userSpaceOnUse" x1="101.5669" y1="82.1357" x2="162.0858" y2="149.025">
				<stop  offset="0" style="stop-color:#27447D"/>
				<stop  offset="1" style="stop-color:#1C2958"/>
			</linearGradient>
			<path fill="url(#XMLID_10_)" d="M96.658,118.721c0,20.959,17.051,38.01,38.009,38.01c20.959,0,38.011-17.051,38.011-38.01
				s-17.052-38.01-38.011-38.01C113.709,80.711,96.658,97.762,96.658,118.721z"/>
			<g>
				<path fill="#619BD6" d="M134.666,79.752c-21.521,0-38.967,17.448-38.967,38.969c0,21.522,17.445,38.97,38.967,38.97
					c21.523,0,38.97-17.447,38.97-38.97C173.636,97.2,156.189,79.752,134.666,79.752L134.666,79.752z M134.666,155.773
					c-9.896,0-19.2-3.854-26.198-10.854c-6.998-6.998-10.852-16.302-10.852-26.199c0-9.896,3.854-19.201,10.852-26.198
					c6.998-6.998,16.302-10.854,26.198-10.854s19.202,3.855,26.2,10.854c6.999,6.997,10.853,16.302,10.853,26.198
					c0,9.897-3.854,19.201-10.853,26.199C153.868,151.919,144.563,155.773,134.666,155.773L134.666,155.773z"/>
			</g>
		</g>
	</g>
</g>
</svg>
