<?xml version="1.0" encoding="utf-8"?>
<!-- Generator: Adobe Illustrator 12.0.1, SVG Export Plug-In . SVG Version: 6.00 Build 51448)  -->
<!DOCTYPE svg PUBLIC "-//W3C//DTD SVG 1.1//EN" "http://www.w3.org/Graphics/SVG/1.1/DTD/svg11.dtd" [
	<!ENTITY ns_svg "http://www.w3.org/2000/svg">
	<!ENTITY ns_xlink "http://www.w3.org/1999/xlink">
]>
<svg  version="1.1" id="Layer_1" xmlns="&ns_svg;" xmlns:xlink="&ns_xlink;" width="300" height="169.333"
	 viewBox="0 0 300 169.333" overflow="visible" enable-background="new 0 0 300 169.333" xml:space="preserve">
<g>
	<polygon fill="#0D69C8" points="32.094,105.235 11.558,123.887 11.746,160.441 92.765,160.441 111.418,141.223 111.418,105.612 	
		"/>
	<linearGradient id="XMLID_22_" gradientUnits="userSpaceOnUse" x1="86.6626" y1="159.7173" x2="10.9191" y2="121.2803">
		<stop  offset="0" style="stop-color:#1B3962"/>
		<stop  offset="1" style="stop-color:#0D69C8"/>
	</linearGradient>
	<polyline fill="url(#XMLID_22_)" points="11.746,124.264 92.765,124.264 92.765,160.441 12.123,160.441 	"/>
	<linearGradient id="XMLID_23_" gradientUnits="userSpaceOnUse" x1="110.5273" y1="137.4946" x2="86.7868" y2="125.0591">
		<stop  offset="0" style="stop-color:#1B3962"/>
		<stop  offset="1" style="stop-color:#0D69C8"/>
	</linearGradient>
	<polygon fill="url(#XMLID_23_)" points="111.23,105.612 92.765,124.264 92.765,160.441 111.23,140.846 	"/>
	<linearGradient id="XMLID_24_" gradientUnits="userSpaceOnUse" x1="141.5073" y1="87.5918" x2="29.5877" y2="126.0288">
		<stop  offset="0" style="stop-color:#1B3962"/>
		<stop  offset="1" style="stop-color:#0D69C8"/>
	</linearGradient>
	<polygon fill="url(#XMLID_24_)" points="32.095,105.235 111.23,105.612 92.765,124.264 11.746,124.264 	"/>
	<polygon opacity="0.1" fill="#FFFFFF" points="12.971,123.041 92.106,122.852 109.064,105.328 111.23,105.612 93.237,124.17 
		11.746,124.264 	"/>
	<polygon opacity="0.1" fill="#FFFFFF" points="92.053,123.852 92.058,159.922 93.472,160.018 93.472,123.84 	"/>
</g>
<g>
	<polygon fill="#0D69C8" points="122.094,104.235 101.558,122.887 101.746,159.441 182.765,159.441 201.418,140.223 
		201.418,104.612 	"/>
	<linearGradient id="XMLID_25_" gradientUnits="userSpaceOnUse" x1="176.6621" y1="158.7173" x2="100.9194" y2="120.2807">
		<stop  offset="0" style="stop-color:#1B3962"/>
		<stop  offset="1" style="stop-color:#0D69C8"/>
	</linearGradient>
	<polyline fill="url(#XMLID_25_)" points="101.746,123.264 182.765,123.264 182.765,159.441 102.123,159.441 	"/>
	<linearGradient id="XMLID_26_" gradientUnits="userSpaceOnUse" x1="200.5273" y1="136.4946" x2="176.7859" y2="124.0586">
		<stop  offset="0" style="stop-color:#1B3962"/>
		<stop  offset="1" style="stop-color:#0D69C8"/>
	</linearGradient>
	<polygon fill="url(#XMLID_26_)" points="201.23,104.612 182.765,123.264 182.765,159.441 201.23,139.846 	"/>
	<linearGradient id="XMLID_27_" gradientUnits="userSpaceOnUse" x1="231.5073" y1="86.5918" x2="119.5877" y2="125.0288">
		<stop  offset="0" style="stop-color:#1B3962"/>
		<stop  offset="1" style="stop-color:#0D69C8"/>
	</linearGradient>
	<polygon fill="url(#XMLID_27_)" points="122.095,104.235 201.23,104.612 182.765,123.264 101.746,123.264 	"/>
	<polygon opacity="0.1" fill="#FFFFFF" points="102.971,122.041 182.106,121.852 199.064,104.328 201.23,104.612 183.237,123.17 
		101.746,123.264 	"/>
	<polygon opacity="0.1" fill="#FFFFFF" points="182.053,122.852 182.058,158.922 183.472,159.018 183.472,122.84 	"/>
</g>
<g>
	<polygon fill="#0077E2" points="122.094,57.883 101.558,76.537 101.746,113.09 182.765,113.09 201.418,93.873 201.418,58.261 	"/>
	<linearGradient id="XMLID_28_" gradientUnits="userSpaceOnUse" x1="176.6621" y1="112.3672" x2="100.9194" y2="73.9306">
		<stop  offset="0" style="stop-color:#0D69C8"/>
		<stop  offset="1" style="stop-color:#0683F4"/>
	</linearGradient>
	<polyline fill="url(#XMLID_28_)" points="101.746,76.915 182.765,76.915 182.765,113.09 102.123,113.09 	"/>
	<linearGradient id="XMLID_29_" gradientUnits="userSpaceOnUse" x1="200.5273" y1="90.144" x2="176.7868" y2="77.7085">
		<stop  offset="0" style="stop-color:#0D69C8"/>
		<stop  offset="1" style="stop-color:#0683F4"/>
	</linearGradient>
	<polygon fill="url(#XMLID_29_)" points="201.23,58.261 182.765,76.915 182.765,113.09 201.23,93.495 	"/>
	<linearGradient id="XMLID_30_" gradientUnits="userSpaceOnUse" x1="198.7559" y1="55.2773" x2="138.2742" y2="71.1044">
		<stop  offset="0" style="stop-color:#0683F4"/>
		<stop  offset="1" style="stop-color:#2CA5FF"/>
	</linearGradient>
	<polygon fill="url(#XMLID_30_)" points="122.095,57.883 201.23,58.261 182.765,76.915 101.746,76.915 	"/>
	<polygon opacity="0.1" fill="#FFFFFF" points="102.971,75.69 182.106,75.501 199.064,57.978 201.23,58.261 183.237,76.82 
		101.746,76.915 	"/>
	<polygon opacity="0.1" fill="#FFFFFF" points="182.053,76.501 182.058,112.571 183.472,112.667 183.472,76.49 	"/>
</g>
<g>
	<polygon fill="#0D69C8" points="213.667,103.668 193.13,122.323 193.318,158.875 274.337,158.875 292.991,139.657 292.991,104.046 
			"/>
	<linearGradient id="XMLID_34_" gradientUnits="userSpaceOnUse" x1="268.2349" y1="158.1528" x2="192.4913" y2="119.7158">
		<stop  offset="0" style="stop-color:#1B3962"/>
		<stop  offset="1" style="stop-color:#0D69C8"/>
	</linearGradient>
	<polyline fill="url(#XMLID_34_)" points="193.318,122.7 274.337,122.7 274.337,158.875 193.695,158.875 	"/>
	<linearGradient id="XMLID_35_" gradientUnits="userSpaceOnUse" x1="292.0986" y1="135.9292" x2="268.36" y2="123.4947">
		<stop  offset="0" style="stop-color:#1B3962"/>
		<stop  offset="1" style="stop-color:#0D69C8"/>
	</linearGradient>
	<polygon fill="url(#XMLID_35_)" points="292.802,104.046 274.337,122.7 274.337,158.875 292.802,139.28 	"/>
	<linearGradient id="XMLID_36_" gradientUnits="userSpaceOnUse" x1="323.0791" y1="86.0264" x2="211.16" y2="124.4632">
		<stop  offset="0" style="stop-color:#1B3962"/>
		<stop  offset="1" style="stop-color:#0D69C8"/>
	</linearGradient>
	<polygon fill="url(#XMLID_36_)" points="213.667,103.668 292.802,104.046 274.337,122.7 193.318,122.7 	"/>
	<polygon opacity="0.1" fill="#FFFFFF" points="194.542,121.475 273.678,121.286 290.636,103.763 292.802,104.046 274.808,122.605 
		193.318,122.7 	"/>
	<polygon opacity="0.1" fill="#FFFFFF" points="273.625,122.287 273.63,158.357 275.044,158.452 275.044,122.275 	"/>
</g>
<g>
	<polygon fill="#0077E2" points="213.667,57.319 193.13,75.972 193.318,112.525 274.337,112.525 292.991,93.306 292.991,57.696 	"/>
	<linearGradient id="XMLID_37_" gradientUnits="userSpaceOnUse" x1="268.2354" y1="111.8018" x2="192.4918" y2="73.3647">
		<stop  offset="0" style="stop-color:#0D69C8"/>
		<stop  offset="1" style="stop-color:#0683F4"/>
	</linearGradient>
	<polyline fill="url(#XMLID_37_)" points="193.318,76.348 274.337,76.348 274.337,112.525 193.695,112.525 	"/>
	<linearGradient id="XMLID_38_" gradientUnits="userSpaceOnUse" x1="292.0986" y1="89.5781" x2="268.3591" y2="77.1431">
		<stop  offset="0" style="stop-color:#0D69C8"/>
		<stop  offset="1" style="stop-color:#0683F4"/>
	</linearGradient>
	<polygon fill="url(#XMLID_38_)" points="292.802,57.696 274.337,76.348 274.337,112.525 292.802,92.929 	"/>
	<linearGradient id="XMLID_39_" gradientUnits="userSpaceOnUse" x1="290.3271" y1="54.7114" x2="229.8457" y2="70.5384">
		<stop  offset="0" style="stop-color:#0683F4"/>
		<stop  offset="1" style="stop-color:#2CA5FF"/>
	</linearGradient>
	<polygon fill="url(#XMLID_39_)" points="213.667,57.319 292.802,57.696 274.337,76.348 193.318,76.348 	"/>
	<polygon opacity="0.1" fill="#FFFFFF" points="194.542,75.125 273.678,74.936 290.636,57.413 292.802,57.696 274.808,76.254 
		193.318,76.348 	"/>
	<polygon opacity="0.1" fill="#FFFFFF" points="273.625,75.936 273.63,112.006 275.044,112.102 275.044,75.925 	"/>
</g>
<g>
	<polygon fill="#5AC0FF" points="213.667,11.534 193.13,30.187 193.318,66.74 274.337,66.74 292.991,47.521 292.991,11.911 	"/>
	<linearGradient id="XMLID_40_" gradientUnits="userSpaceOnUse" x1="268.2349" y1="66.0161" x2="192.4913" y2="27.5791">
		<stop  offset="0" style="stop-color:#5AC0FF"/>
		<stop  offset="1" style="stop-color:#92DBFF"/>
	</linearGradient>
	<polyline fill="url(#XMLID_40_)" points="193.318,30.563 274.337,30.563 274.337,66.74 193.695,66.74 	"/>
	<linearGradient id="XMLID_41_" gradientUnits="userSpaceOnUse" x1="292.0996" y1="43.793" x2="268.3591" y2="31.3575">
		<stop  offset="0" style="stop-color:#5AC0FF"/>
		<stop  offset="1" style="stop-color:#92DBFF"/>
	</linearGradient>
	<polygon fill="url(#XMLID_41_)" points="292.802,11.911 274.337,30.563 274.337,66.74 292.802,47.145 	"/>
	<linearGradient id="XMLID_42_" gradientUnits="userSpaceOnUse" x1="290.3281" y1="8.9272" x2="229.8467" y2="24.7542">
		<stop  offset="0" style="stop-color:#5AC0FF"/>
		<stop  offset="1" style="stop-color:#92DBFF"/>
	</linearGradient>
	<polygon fill="url(#XMLID_42_)" points="213.667,11.534 292.802,11.911 274.337,30.563 193.318,30.563 	"/>
	<polygon opacity="0.1" fill="#FFFFFF" points="194.542,29.339 273.678,29.151 290.636,11.627 292.802,11.911 274.808,30.469 
		193.318,30.563 	"/>
	<polygon opacity="0.1" fill="#FFFFFF" points="273.625,30.152 273.63,66.221 275.044,66.316 275.044,30.139 	"/>
</g>
</svg>
