<svg height="32" viewBox="0 0 32 32" width="32" xmlns="http://www.w3.org/2000/svg"><path d="m24.497734 14.57052q0 2.556397-.777962 4.671509-.763002 2.099897-2.124434 3.606344-1.361432 1.506448-3.246491 2.328147-1.885061.821699-4.099261.821699h-6.7473199l2.4236497-19.9946677h6.7473202q1.810256 0 3.246492.6390985 1.451197.6238827 2.468533 1.7499143 1.017334 1.1260318 1.555923 2.7085619.55355 1.58253.55355 3.469394zm-2.707905.06087q0-1.491232-.374021-2.693345-.359058-1.202115-1.062216-2.0390304-.688196-.8369179-1.690569-1.2782013-.987415-.4564993-2.244121-.4564993h-4.099258l-1.900022 15.67314h4.084299q1.615765 0 2.962237-.62388 1.346472-.639099 2.303962-1.825998.957493-1.186898 1.48112-2.891162.538589-1.704264.538589-3.865027z" fill="#3a3a38" stroke-width=".999734"/></svg>