<svg height="12" viewBox="0 0 70 12" width="70" xmlns="http://www.w3.org/2000/svg" xmlns:xlink="http://www.w3.org/1999/xlink"><radialGradient id="a" cx="37" cy="6" gradientTransform="matrix(.92857145 -.00000001 0 .17857143 2.642855 4.928572)" gradientUnits="userSpaceOnUse" r="28"><stop offset="0" stop-color="#3a3a38" stop-opacity="0"/><stop offset="1" stop-color="#3a3a38"/></radialGradient><path d="m9 1h56v10h-56z" fill="#fafafa"/><path d="m8 0v12h58v-12zm1 1h56v10h-56z" fill="#1e8bcd"/><g fill="#3a3a38"><path d="m12 2h2v2h-2z" opacity=".5"/><path d="m12 6h2v2h-2z" opacity=".5"/><path d="m10 4h2v2h-2z" opacity=".5"/><path d="m10 8h2v2h-2z" opacity=".5"/><path d="m16 2h2v2h-2z" opacity=".5"/><path d="m16 6h2v2h-2z" opacity=".5"/><path d="m14 4h2v2h-2z" opacity=".5"/><path d="m14 8h2v2h-2z" opacity=".5"/><path d="m20 2h2v2h-2z" opacity=".5"/><path d="m20 6h2v2h-2z" opacity=".5"/><path d="m18 4h2v2h-2z" opacity=".5"/><path d="m18 8h2v2h-2z" opacity=".5"/><path d="m24 2h2v2h-2z" opacity=".5"/><path d="m24 6h2v2h-2z" opacity=".5"/><path d="m22 4h2v2h-2z" opacity=".5"/><path d="m22 8h2v2h-2z" opacity=".5"/><path d="m28 2h2v2h-2z" opacity=".5"/><path d="m28 6h2v2h-2z" opacity=".5"/><path d="m26 4h2v2h-2z" opacity=".5"/><path d="m26 8h2v2h-2z" opacity=".5"/><path d="m32 2h2v2h-2z" opacity=".5"/><path d="m32 6h2v2h-2z" opacity=".5"/><path d="m30 4h2v2h-2z" opacity=".5"/><path d="m30 8h2v2h-2z" opacity=".5"/><path d="m36 2h2v2h-2z" opacity=".5"/><path d="m36 6h2v2h-2z" opacity=".5"/><path d="m34 4h2v2h-2z" opacity=".5"/><path d="m34 8h2v2h-2z" opacity=".5"/><path d="m40 2h2v2h-2z" opacity=".5"/><path d="m40 6h2v2h-2z" opacity=".5"/><path d="m38 4h2v2h-2z" opacity=".5"/><path d="m38 8h2v2h-2z" opacity=".5"/><path d="m44 2h2v2h-2z" opacity=".5"/><path d="m44 6h2v2h-2z" opacity=".5"/><path d="m42 4h2v2h-2z" opacity=".5"/><path d="m42 8h2v2h-2z" opacity=".5"/><path d="m48 2h2v2h-2z" opacity=".5"/><path d="m48 6h2v2h-2z" opacity=".5"/><path d="m46 4h2v2h-2z" opacity=".5"/><path d="m46 8h2v2h-2z" opacity=".5"/><path d="m52 2h2v2h-2z" opacity=".5"/><path d="m52 6h2v2h-2z" opacity=".5"/><path d="m50 4h2v2h-2z" opacity=".5"/><path d="m50 8h2v2h-2z" opacity=".5"/><path d="m56 2h2v2h-2z" opacity=".5"/><path d="m56 6h2v2h-2z" opacity=".5"/><path d="m54 4h2v2h-2z" opacity=".5"/><path d="m54 8h2v2h-2z" opacity=".5"/><path d="m60 2h2v2h-2z" opacity=".5"/><path d="m60 6h2v2h-2z" opacity=".5"/><path d="m58 4h2v2h-2z" opacity=".5"/><path d="m58 8h2v2h-2z" opacity=".5"/><path d="m62 4h2v2h-2z" opacity=".5"/><path d="m62 8h2v2h-2z" opacity=".5"/></g><path d="m9 1h56v10h-56z" fill="url(#a)"/></svg>