<?xml version="1.0" encoding="utf-8"?>
<!-- Generator: Adobe Illustrator 12.0.1, SVG Export Plug-In . SVG Version: 6.00 Build 51448)  -->
<!DOCTYPE svg PUBLIC "-//W3C//DTD SVG 1.1//EN" "http://www.w3.org/Graphics/SVG/1.1/DTD/svg11.dtd" [
	<!ENTITY ns_svg "http://www.w3.org/2000/svg">
	<!ENTITY ns_xlink "http://www.w3.org/1999/xlink">
]>
<svg  version="1.1" id="Layer_1" xmlns="&ns_svg;" xmlns:xlink="&ns_xlink;" width="122.666" height="70.666"
	 viewBox="0 0 122.666 70.666" overflow="visible" enable-background="new 0 0 122.666 70.666" xml:space="preserve">
<g>
	<linearGradient id="XMLID_11_" gradientUnits="userSpaceOnUse" x1="11.4023" y1="35.333" x2="111.2627" y2="35.333">
		<stop  offset="0" style="stop-color:#CC0212"/>
		<stop  offset="1" style="stop-color:#FF5F06"/>
	</linearGradient>
	<polygon fill="url(#XMLID_11_)" points="31.939,7.729 11.402,26.383 11.59,62.937 92.609,62.937 111.263,43.718 111.263,8.108 	"/>
	<linearGradient id="XMLID_12_" gradientUnits="userSpaceOnUse" x1="86.5073" y1="62.2129" x2="10.7638" y2="23.7759">
		<stop  offset="0" style="stop-color:#CC0212"/>
		<stop  offset="1" style="stop-color:#FF5F06"/>
	</linearGradient>
	<polyline fill="url(#XMLID_12_)" points="11.59,26.76 92.609,26.76 92.609,62.937 11.968,62.937 	"/>
	<linearGradient id="XMLID_13_" gradientUnits="userSpaceOnUse" x1="110.3716" y1="39.9907" x2="86.6311" y2="27.5552">
		<stop  offset="0" style="stop-color:#CC0212"/>
		<stop  offset="1" style="stop-color:#FF5F06"/>
	</linearGradient>
	<polygon fill="url(#XMLID_13_)" points="111.074,8.108 92.609,26.76 92.609,62.937 111.074,43.341 	"/>
	<linearGradient id="XMLID_14_" gradientUnits="userSpaceOnUse" x1="108.5996" y1="5.1226" x2="48.1182" y2="20.9495">
		<stop  offset="0" style="stop-color:#CC0212"/>
		<stop  offset="1" style="stop-color:#FF5F06"/>
	</linearGradient>
	<polygon fill="url(#XMLID_14_)" points="31.939,7.729 111.074,8.108 92.609,26.76 11.59,26.76 	"/>
	<polygon opacity="0.1" fill="#FFFFFF" points="12.815,25.535 91.951,25.347 108.908,7.824 111.074,8.108 93.081,26.666 
		11.59,26.76 	"/>
	<polygon opacity="0.1" fill="#FFFFFF" points="91.898,26.348 91.903,62.416 93.315,62.512 93.315,26.336 	"/>
</g>
</svg>
