<?xml version="1.0" encoding="utf-8"?>
<!-- Generator: Adobe Illustrator 12.0.1, SVG Export Plug-In . SVG Version: 6.00 Build 51448)  -->
<!DOCTYPE svg PUBLIC "-//W3C//DTD SVG 1.1//EN" "http://www.w3.org/Graphics/SVG/1.1/DTD/svg11.dtd" [
	<!ENTITY ns_svg "http://www.w3.org/2000/svg">
	<!ENTITY ns_xlink "http://www.w3.org/1999/xlink">
]>
<svg  version="1.1" id="Layer_1" xmlns="&ns_svg;" xmlns:xlink="&ns_xlink;" width="263.986" height="263.987"
	 viewBox="0 0 263.986 263.987" overflow="visible" enable-background="new 0 0 263.986 263.987" xml:space="preserve">
<g>
	<circle fill="#FFFFFF" stroke="#7C86C1" stroke-width="1.637" cx="131.993" cy="131.994" r="122.17"/>
	<g>
		<linearGradient id="XMLID_5_" gradientUnits="userSpaceOnUse" x1="55.9214" y1="20.7661" x2="223.0948" y2="206.3144">
			<stop  offset="0" style="stop-color:#A1C1EA"/>
			<stop  offset="1" style="stop-color:#6295D6"/>
		</linearGradient>
		<path fill="url(#XMLID_5_)" d="M132.537,132.312c-0.006,0.623-1.104,117.147-1.114,118.231
			c31.462,0.155,61.135-11.883,83.607-33.936c22.602-22.18,35.213-51.834,35.511-83.498c0.004-0.376,0.006-0.753,0.006-1.129
			c0-20.346-5.246-40.366-15.176-58.019C234.403,74.511,133.078,132.005,132.537,132.312z"/>
		<g>
			<path fill="#FFFFFF" d="M235.59,73.21l-103.596,58.783l-1.122,119.094c0.363,0.004,0.728,0.006,1.091,0.006l0,0l0,0l0,0
				c0.018,0,0.036,0,0.053,0c65.251,0,118.454-52.586,119.07-117.979c0.004-0.425,0.006-0.85,0.006-1.274
				C251.07,110.537,245.437,90.525,235.59,73.21L235.59,73.21z M133.079,132.632L235.175,74.7
				c4.775,8.58,8.458,17.725,10.951,27.195c2.668,10.133,3.969,20.634,3.869,31.21c-0.15,15.838-3.379,31.181-9.6,45.6
				c-2.99,6.931-6.674,13.612-10.95,19.859c-4.235,6.188-9.088,12.003-14.424,17.286c-5.335,5.282-11.198,10.076-17.426,14.249
				c-6.285,4.212-12.999,7.828-19.956,10.749c-14.463,6.074-29.813,9.154-45.623,9.154c-0.014,0-0.029,0-0.043,0L133.079,132.632
				L133.079,132.632z"/>
		</g>
	</g>
	<g>
		<linearGradient id="XMLID_6_" gradientUnits="userSpaceOnUse" x1="-2.3447" y1="71.8594" x2="165.2095" y2="257.8304">
			<stop  offset="0" style="stop-color:#A1C1EA"/>
			<stop  offset="1" style="stop-color:#6295D6"/>
		</linearGradient>
		<path fill="url(#XMLID_6_)" d="M13.446,130.876c-0.004,0.377-0.005,0.754-0.005,1.131c0,64.671,52.156,117.609,116.891,118.516
			c0.026-2.752,0.182-19.245,1.114-118.221C130.91,131.985,30.701,72.568,29.743,72C19.285,89.789,13.641,110.129,13.446,130.876z"
			/>
		<g>
			<path fill="#FFFFFF" d="M29.537,71.244c-10.383,17.474-16.431,37.838-16.636,59.627c-0.003,0.385-0.005,0.771-0.005,1.155
				c0.007,64.883,52.006,117.851,116.885,119.047l0,0h0l0,0c0.364,0.007,0.726,0.012,1.091,0.016v-0.001l1.122-119.094l0,0
				L29.537,71.244L29.537,71.244z M129.792,249.982c-64.557-1.2-116.407-54.4-115.799-119.101c0.1-10.581,1.6-21.059,4.46-31.144
				c2.674-9.427,6.531-18.504,11.47-26.996l100.975,59.87L129.792,249.982L129.792,249.982z"/>
		</g>
	</g>
	<g>
		<linearGradient id="XMLID_7_" gradientUnits="userSpaceOnUse" x1="72.9307" y1="3.877" x2="240.2655" y2="189.6044">
			<stop  offset="0" style="stop-color:#A1C1EA"/>
			<stop  offset="1" style="stop-color:#6295D6"/>
		</linearGradient>
		<path fill="url(#XMLID_7_)" d="M30.305,71.057C31.264,71.625,131.46,131.042,132,131.362
			c0.545-0.31,101.835-57.841,102.805-58.392C213.9,36.64,174.994,13.84,133.111,13.447C91.222,13.052,51.89,35.12,30.305,71.057z"
			/>
		<path fill="#FFFFFF" d="M131.971,12.896c-43.508,0-81.651,23.379-102.43,58.343l0.938,0.557l0,0l0,0c0,0.001,0,0.001,0,0.001
			l101.515,60.196l102.622-58.289c0.001,0.001,0.001,0.001,0.001,0.001l-0.001-0.001l0,0l0.949-0.539
			c-20.294-35.652-58.475-59.851-102.449-60.265C132.734,12.898,132.352,12.896,131.971,12.896L131.971,12.896z M31.042,70.86
			C41.29,53.977,55.701,39.829,72.781,29.9c8.806-5.12,18.24-9.074,28.04-11.752c10.102-2.761,20.583-4.161,31.15-4.161
			c0.378,0,0.757,0.002,1.136,0.005h-0.001c10.678,0.101,21.247,1.627,31.415,4.536c9.858,2.82,19.325,6.934,28.138,12.227
			c17.092,10.266,31.391,24.774,41.413,42.004l-102.065,57.972L31.042,70.86L31.042,70.86z"/>
	</g>
	<linearGradient id="XMLID_8_" gradientUnits="userSpaceOnUse" x1="183.4175" y1="182.2007" x2="58.9891" y2="59.4098">
		<stop  offset="0" style="stop-color:#E3E3E3"/>
		<stop  offset="1" style="stop-color:#B2B2B2"/>
	</linearGradient>
	<circle fill="url(#XMLID_8_)" stroke="#FFFFFF" stroke-width="3.2741" cx="132.54" cy="131.993" r="36.675"/>
</g>
</svg>
