<?xml version="1.0" encoding="utf-8"?>
<!-- Generator: Adobe Illustrator 12.0.1, SVG Export Plug-In . SVG Version: 6.00 Build 51448)  -->
<!DOCTYPE svg PUBLIC "-//W3C//DTD SVG 1.1//EN" "http://www.w3.org/Graphics/SVG/1.1/DTD/svg11.dtd" [
	<!ENTITY ns_svg "http://www.w3.org/2000/svg">
	<!ENTITY ns_xlink "http://www.w3.org/1999/xlink">
]>
<svg  version="1.1" id="Layer_1" xmlns="&ns_svg;" xmlns:xlink="&ns_xlink;" width="348" height="277" viewBox="0 0 348 277"
	 overflow="visible" enable-background="new 0 0 348 277" xml:space="preserve">
<g>
	<g>
		<path fill="#65040B" d="M7.251,145.28c0,68.426,55.47,123.896,123.894,123.896c68.426,0,123.895-55.47,123.895-123.896
			S199.57,21.388,131.145,21.388C62.721,21.388,7.251,76.854,7.251,145.28z M46.187,145.28c0-46.922,38.038-84.956,84.958-84.956
			c46.921,0,84.957,38.034,84.957,84.956c0,46.919-38.036,84.957-84.957,84.957C84.225,230.237,46.187,192.199,46.187,145.28z"/>
		<circle fill="#FFC10E" cx="131.146" cy="145.28" r="36.579"/>
		<path fill="#FA7700" d="M50.908,145.279c0,44.316,35.924,80.24,80.236,80.24s80.238-35.924,80.238-80.24
			c0-44.311-35.926-80.236-80.238-80.236S50.908,100.969,50.908,145.279z M90.318,145.28c0-22.548,18.278-40.827,40.826-40.827
			c22.547,0,40.827,18.279,40.827,40.827c0,22.549-18.28,40.827-40.827,40.827C108.597,186.107,90.318,167.829,90.318,145.28z"/>
	</g>
	<g>
		<path fill="#B0AAAA" d="M178.542,43.656c-3.421,0-6.194,2.771-6.194,6.193c0,3.425,2.773,6.195,6.194,6.195
			s6.196-2.771,6.196-6.195C184.738,46.428,181.963,43.656,178.542,43.656z M178.542,53.104c-1.796,0-3.255-1.457-3.255-3.254
			c0-1.795,1.459-3.253,3.255-3.253c1.798,0,3.253,1.458,3.253,3.253C181.795,51.646,180.34,53.104,178.542,53.104z"/>
		
			<rect x="201.06" y="5.044" transform="matrix(-0.6209 -0.7839 0.7839 -0.6209 304.2766 207.1797)" fill="#B0AAAA" width="2.359" height="49.927"/>
		<rect x="221.09" y="13.636" fill="#B0AAAA" width="114.668" height="2.36"/>
	</g>
	<g>
		<path fill="#B0AAAA" d="M157.208,89.998c-3.421,0-6.194,2.773-6.194,6.193c0,3.423,2.773,6.195,6.194,6.195
			s6.196-2.772,6.196-6.195C163.404,92.771,160.629,89.998,157.208,89.998z M157.208,99.445c-1.797,0-3.255-1.456-3.255-3.254
			c0-1.796,1.458-3.252,3.255-3.252s3.253,1.456,3.253,3.252C160.461,97.989,159.005,99.445,157.208,99.445z"/>
		
			<rect x="179.726" y="51.385" transform="matrix(-0.6204 -0.7842 0.7842 -0.6204 233.2735 265.5954)" fill="#B0AAAA" width="2.361" height="49.928"/>
		<rect x="199.756" y="59.984" fill="#B0AAAA" width="139.168" height="2.359"/>
	</g>
	<g>
		<path fill="#B0AAAA" d="M134.646,135.789c-3.42,0-6.193,2.771-6.193,6.191c0,3.426,2.773,6.197,6.193,6.197
			c3.422,0,6.194-2.771,6.194-6.197C140.841,138.561,138.068,135.789,134.646,135.789z M134.646,145.236
			c-1.796,0-3.254-1.458-3.254-3.256c0-1.797,1.458-3.251,3.254-3.251c1.797,0,3.254,1.454,3.254,3.251
			C137.9,143.778,136.443,145.236,134.646,145.236z"/>
		
			<rect x="157.164" y="97.176" transform="matrix(-0.6202 -0.7844 0.7844 -0.6202 160.7509 322.1022)" fill="#B0AAAA" width="2.362" height="49.926"/>
		<rect x="177.194" y="105.777" fill="#B0AAAA" width="160.371" height="2.362"/>
	</g>
</g>
</svg>
